<?xml version="1.0" encoding="UTF-8"?>
<!DOCTYPE svg PUBLIC "-//W3C//DTD SVG 1.1 Tiny//EN" "http://www.w3.org/Graphics/SVG/1.1/DTD/svg11-tiny.dtd">
<svg version="1.1" xmlns="http://www.w3.org/2000/svg" xmlns:xlink="http://www.w3.org/1999/xlink" width="100%" height="100%" viewBox="0,0,9796,6625">
<title>SVG</title>
<desc>Poligon Test</desc>
<style id="style_css_sheet" type="text/css">
.polyStyle{fill: #cccccc;stroke-width:0;fill-rule:evenodd;}
</style>
<circle cx="8467" cy="4253" r="200" stroke="black" stroke-width="1" fill="red" id="130181" name="辛集市"/>
<circle cx="7608" cy="3668" r="200" stroke="black" stroke-width="1" fill="red" id="130183" name="晋州市"/>
<circle cx="5800" cy="2088" r="200" stroke="black" stroke-width="1" fill="red" id="130184" name="新乐市"/>
<circle cx="6253" cy="5027" r="200" stroke="black" stroke-width="1" fill="red" id="130133" name="赵县"/>
<circle cx="4986" cy="5058" r="200" stroke="black" stroke-width="1" fill="red" id="130132" name="元氏县"/>
<circle cx="4338" cy="5503" r="200" stroke="black" stroke-width="1" fill="red" id="130129" name="赞皇县"/>
<circle cx="5415" cy="5793" r="200" stroke="black" stroke-width="1" fill="red" id="130127" position="3" name="高邑县"/>
<circle cx="5133" cy="1626" r="200" stroke="black" stroke-width="1" fill="red" id="130125" name="行唐县"/>
<circle cx="8394" cy="2885" r="200" stroke="black" stroke-width="1" fill="red" id="130128" position="43" name="深泽县"/>
<circle cx="7272" cy="2929" r="200" stroke="black" stroke-width="1" fill="red" id="130130" name="无极县"/>
<circle cx="5252" cy="3091" r="200" stroke="black" stroke-width="1" fill="red" id="130123" name="正定县"/>
<circle cx="3117" cy="3645" r="200" stroke="black" stroke-width="1" fill="red" id="130121" name="井陉县"/>
<circle cx="4232" cy="2282" r="200" stroke="black" stroke-width="1" fill="red" id="130126" name="灵寿县"/>
<circle cx="3338" cy="2523" r="200" stroke="black" stroke-width="1" fill="red" id="130131" name="平山县"/>
<circle cx="5047" cy="3766" r="200" stroke="black" stroke-width="1" fill="red" id="130108" position="3" name="裕华区"/>
<circle cx="2639" cy="3423" r="200" stroke="black" stroke-width="1" fill="red" id="130107" position="1" name="井陉矿区"/>
<circle cx="5070" cy="3618" r="200" stroke="black" stroke-width="1" fill="red" id="130102" name="长安区"/>
<circle cx="4717" cy="3800" r="200" stroke="black" stroke-width="1" fill="red" id="130104" position="234"name="桥西区"/>
<circle cx="4702" cy="3560" r="200" stroke="black" stroke-width="1" fill="red" id="130105" name="新华区"/>
<circle cx="5600" cy="4294" r="200" stroke="black" stroke-width="1" fill="red" id="130111"  name="栾城区"/>
<circle cx="6592" cy="3695" r="200" stroke="black" stroke-width="1" fill="red" id="130109" position="33" name="藁城区"/>
<circle cx="3975" cy="3376" r="200" stroke="black" stroke-width="1" fill="red" id="130110"position="4" name="鹿泉区"/>
<path d="" class="polyStyle" id="" style="fill:#ee8b94"/>
<path d="" class="polyStyle" id="623022" style="fill:#fbe6ef"/>
<path d="" class="polyStyle" id="211421" style="fill:#f6f67b"/>
<path d="" class="polyStyle" id="532524" style="fill:#ee8b94"/>
<path d="" class="polyStyle" id="440825" style="fill:#f6f67b"/>
<path d="" class="polyStyle" id="441721" style="fill:#f6f67b"/>
<path d="" class="polyStyle" id="450521" style="fill:#f6f67b"/>
<path d="" class="polyStyle" id="450123" style="fill:#fbe6ef"/>
<path d="" class="polyStyle" id="350624" style="fill:#f6f67b"/>
<path d="" class="polyStyle" id="" style="fill:#fbe6ef"/>
<path d="" class="polyStyle" id="451224" style="fill:#fbe6ef"/>
<path d="" class="polyStyle" id="350627" style="fill:#f6f67b"/>
<path d="" class="polyStyle" id="" style="fill:#f6f67b"/>
<path d="" class="polyStyle" id="350525" style="fill:#f6f67b"/>
<path d="" class="polyStyle" id="530124" style="fill:#ee8b94"/>
<path d="" class="polyStyle" id="522627" style="fill:#ee8b94"/>
<path d="" class="polyStyle" id="510421" style="fill:#fbe6ef"/>
<path d="" class="polyStyle" id="522623" style="fill:#d4ecb2"/>
<path d="" class="polyStyle" id="430321" style="fill:#d4ecb2"/>
<path d="" class="polyStyle" id="511129" style="fill:#d4ecb2"/>
<path d="" class="polyStyle" id="511423" style="fill:#ee8b94"/>
<path d="" class="polyStyle" id="421023" style="fill:#f6f67b"/>
<path d="" class="polyStyle" id="511724" style="fill:#f6f67b"/>
<path d="" class="polyStyle" id="420526" style="fill:#fbe6ef"/>
<path d="" class="polyStyle" id="511923" style="fill:#fbe6ef"/>
<path d="" class="polyStyle" id="420325" style="fill:#fbe6ef"/>
<path d="" class="polyStyle" id="511921" style="fill:#f6f67b"/>
<path d="" class="polyStyle" id="542525" style="fill:#f6f67b"/>
<path d="" class="polyStyle" id="611026" style="fill:#ee8b94"/>
<path d="" class="polyStyle" id="411023" style="fill:#fbe6ef"/>
<path d="" class="polyStyle" id="632323" style="fill:#f6f67b"/>
<path d="" class="polyStyle" id="140525" style="fill:#d4ecb2"/>
<path d="" class="polyStyle" id="410922" style="fill:#ee8b94"/>
<path d="" class="polyStyle" id="621027" style="fill:#ee8b94"/>
<path d="" class="polyStyle" id="130427" style="fill:#f6f67b"/>
<polygon points="5565,5341 5588,5338 5577,5390 5583,5424 5604,5453 5625,5469 5632,5499 5628,5526 5659,5542 5690,5536 5723,5543 5733,5584 5765,5597 5794,5613 5823,5606 5849,5603 5876,5578 5906,5554 5932,5559 5945,5584 5954,5618 5982,5636 6008,5644 6033,5669 6037,5686 6010,5694 5985,5713 5922,5728 5886,5756 5859,5789 5851,5833 5848,5862 5856,5915 5839,5944 5821,5980 5794,5990 5756,6000 5703,6014 5630,6025 5592,6024 5543,6030 5513,6035 5479,6036 5448,6034 5411,6033 5399,6037 5388,6041 5375,6066 5339,6063 5304,6054 5275,6044 5246,6035 5210,6020 5180,6008 5141,5994 5110,5979 5079,5961 5053,5953 5023,5942 4997,5937 4966,5926 4935,5916 4896,5904 4869,5906 4832,5913 4806,5919 4779,5926 4743,5921 4697,5917 4669,5917 4654,5924 4648,5905 4673,5895 4697,5876 4728,5850 4733,5817 4728,5795 4750,5775 4780,5737 4810,5730 4845,5720 4870,5692 4875,5652 4885,5622 4905,5617 4938,5615 4958,5605 4963,5572 4978,5537 4970,5527 4955,5510 4958,5475 4965,5467 4973,5460 4994,5447 5033,5459 5069,5476 5107,5462 5145,5442 5170,5436 5197,5421 5228,5399 5255,5396 5274,5408 5303,5398 5333,5385 5362,5372 5388,5357 5418,5346 5447,5344 5477,5339 5503,5334 5533,5340 " class="polyStyle" id="130127" style="fill:#d4ecb2"/>
<polygon points="3424,5019 3443,5044 3483,5058 3509,5062 3538,5076 3567,5087 3598,5099 3626,5106 3650,5128 3688,5126 3709,5088 3727,5055 3767,5043 3805,5020 3851,5018 3887,5022 3920,5017 3955,5024 3989,5047 4023,5060 4077,5065 4112,5068 4138,5072 4178,5093 4204,5101 4248,5100 4274,5074 4292,5039 4316,5031 4339,5041 4348,5068 4354,5103 4363,5125 4363,5170 4366,5191 4402,5195 4448,5197 4480,5210 4516,5233 4538,5270 4557,5310 4593,5318 4634,5296 4675,5282 4712,5280 4753,5284 4789,5293 4812,5304 4853,5336 4859,5370 4858,5400 4894,5420 4934,5440 4965,5467 4958,5475 4955,5510 4970,5527 4978,5537 4963,5572 4958,5605 4938,5615 4905,5617 4885,5622 4875,5652 4870,5692 4845,5720 4810,5730 4780,5737 4750,5775 4728,5795 4733,5817 4728,5850 4697,5876 4673,5895 4648,5905 4654,5924 4652,5925 4657,5934 4664,5949 4667,5972 4621,5996 4585,6018 4538,6048 4505,6051 4479,6056 4449,6062 4422,6073 4397,6085 4371,6098 4345,6112 4315,6141 4287,6159 4260,6174 4239,6196 4235,6235 4215,6230 4163,6220 4109,6245 4081,6264 4062,6290 4034,6297 4000,6292 3967,6283 3936,6276 3907,6272 3873,6280 3845,6289 3817,6302 3789,6314 3749,6323 3723,6323 3698,6321 3670,6301 3643,6281 3618,6273 3590,6275 3554,6262 3519,6252 3493,6249 3460,6242 3437,6216 3413,6189 3387,6189 3360,6183 3332,6165 3305,6157 3280,6150 3253,6151 3199,6133 3172,6131 3181,6153 3216,6169 3233,6182 3206,6200 3186,6218 3196,6245 3167,6276 3139,6286 3111,6294 3076,6313 3048,6331 3031,6359 3009,6387 2982,6370 2958,6344 2931,6331 2900,6331 2871,6348 2831,6391 2781,6436 2746,6490 2704,6533 2682,6561 2677,6565 2651,6588 2626,6616 2593,6625 2560,6619 2493,6601 2507,6520 2515,6470 2533,6440 2545,6416 2553,6408 2595,6358 2628,6307 2642,6282 2658,6264 2680,6254 2706,6246 2734,6248 2780,6126 2784,6118 2802,6098 2812,6096 2844,6088 2854,6080 2850,6042 2846,5982 2856,5966 2880,5958 2910,5956 2930,5944 2942,5916 2944,5898 2956,5882 3004,5836 3024,5812 3030,5794 3030,5784 3016,5764 3008,5754 2980,5742 2934,5730 2928,5722 2950,5686 2970,5648 2986,5624 3040,5598 3080,5582 3070,5564 3056,5542 3048,5508 3054,5462 3054,5376 3050,5368 3094,5330 3122,5291 3132,5259 3133,5220 3132,5195 3136,5161 3151,5135 3190,5121 3222,5110 3235,5081 3239,5049 3256,5016 3284,4988 3309,4975 3335,4964 3367,4957 3394,4956 3411,4994 " class="polyStyle" id="130129" style="fill:#fbe6ef"/>
<polygon points="6412,4380 6444,4391 6477,4409 6510,4439 6537,4433 6547,4410 6578,4401 6606,4396 6638,4386 6675,4404 6713,4423 6752,4427 6789,4435 6819,4442 6845,4465 6859,4501 6887,4516 6912,4522 6947,4517 6972,4516 7009,4510 7035,4509 7067,4517 7096,4549 7116,4541 7158,4536 7191,4514 7216,4510 7247,4508 7275,4507 7303,4490 7306,4455 7305,4427 7304,4398 7347,4412 7379,4431 7409,4454 7400,4509 7415,4527 7441,4554 7467,4578 7501,4620 7515,4652 7519,4680 7519,4709 7516,4739 7533,4770 7560,4798 7592,4809 7639,4815 7681,4827 7708,4853 7734,4887 7733,4915 7731,4953 7717,5000 7730,5051 7725,5087 7698,5107 7666,5113 7625,5116 7587,5120 7554,5111 7524,5087 7496,5079 7462,5060 7435,5083 7413,5115 7384,5145 7357,5143 7319,5142 7291,5148 7258,5162 7225,5178 7190,5195 7161,5198 7114,5206 7067,5198 7056,5176 7037,5163 6995,5174 6966,5168 6929,5185 6901,5209 6874,5241 6841,5240 6794,5236 6765,5259 6736,5278 6716,5305 6693,5329 6665,5329 6623,5335 6600,5361 6586,5388 6576,5422 6554,5448 6525,5464 6498,5477 6469,5490 6440,5512 6424,5540 6409,5568 6399,5595 6398,5621 6398,5656 6372,5671 6340,5669 6290,5667 6260,5693 6229,5717 6215,5710 6188,5696 6155,5688 6128,5686 6101,5686 6070,5689 6037,5686 6033,5669 6008,5644 5982,5636 5954,5618 5945,5584 5932,5559 5906,5554 5876,5578 5849,5603 5823,5606 5794,5613 5765,5597 5733,5584 5723,5543 5690,5536 5659,5542 5628,5526 5632,5499 5625,5469 5604,5453 5583,5424 5577,5390 5588,5338 5587,5328 5595,5298 5592,5271 5596,5241 5600,5214 5578,5182 5550,5170 5520,5146 5511,5119 5507,5092 5507,5066 5487,5036 5463,5009 5452,4966 5466,4936 5498,4929 5527,4940 5557,4956 5583,4945 5578,4916 5550,4889 5535,4854 5540,4822 5575,4826 5603,4824 5647,4826 5686,4849 5730,4845 5763,4823 5783,4797 5814,4788 5847,4782 5882,4779 5911,4774 5936,4768 5952,4751 5963,4717 5995,4694 6037,4692 6066,4689 6101,4679 6127,4672 6162,4663 6200,4642 6217,4631 6222,4607 6191,4604 6163,4595 6144,4572 6139,4532 6140,4500 6169,4487 6212,4495 6242,4487 6268,4478 6296,4461 6318,4443 6344,4420 6373,4391 6382,4370 6384,4372 " class="polyStyle" id="130133" style="fill:#f6f67b"/>
<polygon points="4834,4221 4836,4262 4813,4300 4800,4327 4816,4351 4855,4356 4883,4343 4909,4365 4947,4377 4980,4385 5011,4399 4998,4419 4999,4451 5030,4466 5061,4470 5089,4487 5094,4509 5074,4535 5060,4550 5052,4576 5063,4621 5086,4651 5129,4662 5155,4671 5188,4685 5225,4703 5261,4717 5288,4725 5315,4724 5348,4721 5378,4711 5411,4698 5437,4693 5475,4692 5486,4718 5482,4749 5486,4779 5512,4808 5540,4822 5535,4854 5550,4889 5578,4916 5583,4945 5557,4956 5527,4940 5498,4929 5466,4936 5452,4966 5463,5009 5487,5036 5507,5066 5507,5092 5511,5119 5520,5146 5550,5170 5578,5182 5600,5214 5596,5241 5592,5271 5595,5298 5587,5328 5588,5338 5565,5341 5533,5340 5503,5334 5477,5339 5447,5344 5418,5346 5388,5357 5362,5372 5333,5385 5303,5398 5274,5408 5255,5396 5228,5399 5197,5421 5170,5436 5145,5442 5107,5462 5069,5476 5033,5459 4994,5447 4973,5460 4965,5467 4934,5440 4894,5420 4858,5400 4859,5370 4853,5336 4812,5304 4789,5293 4753,5284 4712,5280 4675,5282 4634,5296 4593,5318 4557,5310 4538,5270 4516,5233 4480,5210 4448,5197 4402,5195 4366,5191 4363,5170 4363,5125 4354,5103 4348,5068 4339,5041 4316,5031 4292,5039 4274,5074 4248,5100 4204,5101 4178,5093 4138,5072 4112,5068 4077,5065 4023,5060 3989,5047 3955,5024 3920,5017 3887,5022 3851,5018 3805,5020 3767,5043 3727,5055 3709,5088 3688,5126 3650,5128 3626,5106 3598,5099 3567,5087 3538,5076 3509,5062 3483,5058 3443,5044 3424,5019 3411,4994 3394,4956 3421,4940 3448,4918 3466,4886 3455,4858 3436,4827 3428,4793 3445,4764 3454,4730 3433,4704 3391,4683 3359,4679 3332,4678 3305,4673 3284,4664 3275,4647 3282,4633 3298,4616 3294,4590 3297,4557 3322,4540 3359,4541 3392,4544 3425,4561 3461,4575 3488,4572 3513,4555 3556,4543 3569,4525 3566,4495 3557,4465 3571,4434 3553,4408 3548,4374 3556,4348 3540,4321 3546,4292 3565,4282 3575,4262 3574,4235 3589,4209 3632,4203 3663,4203 3709,4203 3718,4205 3746,4211 3753,4229 3733,4257 3753,4291 3750,4320 3778,4327 3808,4331 3840,4347 3869,4335 3907,4308 3933,4293 3949,4300 3975,4340 4003,4336 4037,4321 4055,4341 4079,4365 4135,4349 4183,4350 4238,4362 4272,4371 4303,4376 4334,4356 4373,4337 4414,4325 4451,4328 4478,4312 4494,4290 4525,4262 4563,4239 4598,4215 4640,4202 4667,4197 4712,4189 4744,4188 4774,4177 4796,4176 4823,4190 " class="polyStyle" id="130132" style="fill:#f8c67d"/>
<path d="M2689,2746 L2719,2763 L2750,2774 L2779,2805 L2808,2814 L2839,2815 L2868,2804 L2897,2799 L2928,2808 L2963,2804 L2994,2786 L3025,2782 L3057,2795 L3089,2803 L3118,2817 L3146,2831 L3168,2858 L3186,2882 L3207,2905 L3217,2933 L3234,2938 L3260,2933 L3290,2930 L3322,2925 L3354,2929 L3390,2924 L3415,2944 L3438,2951 L3485,2944 L3517,2952 L3548,2972 L3570,2999 L3595,3002 L3630,3004 L3634,3029 L3632,3056 L3632,3088 L3642,3115 L3638,3144 L3610,3159 L3580,3169 L3551,3170 L3521,3177 L3490,3186 L3461,3209 L3440,3236 L3431,3261 L3462,3268 L3487,3282 L3491,3310 L3477,3335 L3476,3369 L3485,3395 L3501,3423 L3528,3437 L3559,3447 L3585,3455 L3615,3459 L3642,3475 L3675,3480 L3704,3489 L3734,3508 L3763,3522 L3792,3548 L3791,3577 L3781,3602 L3767,3633 L3758,3666 L3735,3699 L3705,3720 L3677,3747 L3673,3772 L3699,3792 L3727,3805 L3758,3828 L3791,3835 L3831,3821 L3855,3806 L3895,3832 L3897,3858 L3884,3888 L3894,3916 L3890,3942 L3865,3964 L3860,3994 L3861,4036 L3861,4062 L3860,4089 L3833,4095 L3804,4118 L3782,4145 L3753,4173 L3718,4205 L3709,4203 L3663,4203 L3632,4203 L3589,4209 L3574,4235 L3575,4262 L3565,4282 L3546,4292 L3540,4321 L3556,4348 L3548,4374 L3553,4408 L3571,4434 L3557,4465 L3566,4495 L3569,4525 L3556,4543 L3513,4555 L3488,4572 L3461,4575 L3425,4561 L3392,4544 L3359,4541 L3322,4540 L3297,4557 L3294,4590 L3298,4616 L3282,4633 L3275,4647 L3284,4664 L3305,4673 L3332,4678 L3359,4679 L3391,4683 L3433,4704 L3454,4730 L3445,4764 L3428,4793 L3436,4827 L3455,4858 L3466,4886 L3448,4918 L3421,4940 L3394,4956 L3367,4957 L3335,4964 L3309,4975 L3284,4988 L3256,5016 L3239,5049 L3235,5081 L3222,5110 L3190,5121 L3151,5135 L3136,5161 L3132,5195 L3133,5220 L3132,5259 L3122,5291 L3094,5330 L3050,5368 L3042,5350 L3030,5336 L3016,5324 L2986,5308 L2978,5302 L2974,5294 L2968,5282 L2960,5274 L2948,5274 L2924,5274 L2908,5270 L2904,5256 L2906,5242 L2896,5236 L2886,5234 L2868,5252 L2850,5260 L2832,5256 L2814,5242 L2804,5236 L2780,5232 L2772,5232 L2744,5228 L2718,5214 L2695,5194 L2684,5184 L2659,5176 L2613,5169 L2570,5175 L2554,5178 L2550,5182 L2550,5188 L2565,5225 L2556,5238 L2536,5240 L2512,5228 L2496,5228 L2464,5234 L2442,5240 L2404,5254 L2386,5256 L2374,5256 L2360,5250 L2348,5242 L2344,5234 L2348,5190 L2360,5158 L2378,5134 L2412,5096 L2442,5080 L2468,5076 L2472,5076 L2520,5070 L2554,5066 L2584,5056 L2590,5054 L2604,5038 L2608,5016 L2606,4990 L2604,4906 L2602,4884 L2594,4872 L2550,4852 L2506,4834 L2478,4820 L2438,4800 L2440,4786 L2446,4776 L2452,4774 L2456,4768 L2460,4760 L2460,4756 L2456,4752 L2430,4734 L2400,4722 L2376,4718 L2340,4720 L2294,4724 L2274,4728 L2266,4728 L2236,4710 L2224,4686 L2218,4648 L2220,4642 L2214,4636 L2204,4568 L2202,4564 L2198,4540 L2198,4530 L2200,4522 L2204,4516 L2208,4518 L2260,4502 L2268,4496 L2268,4488 L2260,4458 L2262,4434 L2258,4418 L2250,4410 L2236,4416 L2222,4418 L2214,4402 L2208,4376 L2204,4342 L2200,4330 L2174,4282 L2132,4230 L2096,4208 L2050,4196 L2020,4174 L2000,4136 L1998,4110 L2006,4094 L2010,4084 L2014,4072 L2010,4060 L1998,4042 L1976,4022 L1950,4002 L1928,3972 L1890,3906 L1866,3888 L1838,3862 L1820,3858 L1790,3860 L1754,3860 L1734,3848 L1700,3820 L1692,3810 L1696,3804 L1752,3798 L1762,3790 L1772,3758 L1748,3748 L1748,3712 L1752,3696 L1764,3688 L1782,3674 L1782,3646 L1766,3630 L1752,3618 L1748,3602 L1746,3584 L1750,3570 L1766,3558 L1772,3544 L1764,3522 L1750,3516 L1714,3504 L1680,3494 L1662,3484 L1658,3476 L1668,3460 L1664,3446 L1650,3422 L1644,3410 L1625,3385 L1560,3322 L1490,3276 L1456,3266 L1444,3256 L1446,3242 L1462,3186 L1468,3172 L1494,3158 L1500,3140 L1504,3120 L1492,3086 L1486,3072 L1486,3062 L1494,3054 L1528,3072 L1546,3078 L1552,3074 L1556,3066 L1556,3058 L1536,3048 L1522,3036 L1530,3024 L1564,2992 L1560,2982 L1544,2972 L1565,2951 L1609,2954 L1626,2930 L1623,2906 L1607,2892 L1624,2860 L1656,2852 L1685,2860 L1723,2878 L1756,2888 L1784,2884 L1813,2881 L1844,2888 L1875,2903 L1891,2934 L1908,2948 L1939,2930 L1968,2911 L2000,2896 L2031,2893 L2059,2877 L2091,2863 L2110,2877 L2127,2913 L2143,2947 L2170,2958 L2201,2972 L2232,2953 L2272,2947 L2302,2950 L2338,2944 L2371,2929 L2390,2893 L2405,2863 L2420,2844 L2447,2864 L2472,2853 L2489,2824 L2515,2797 L2521,2768 L2548,2746 L2573,2738 L2604,2736 L2630,2733 L2656,2730 L2689,2746z M2873,3159 L2873,3136 L2899,3142 L2915,3151 L2906,3178 L2891,3201 L2877,3217 L2863,3228 L2860,3255 L2868,3285 L2887,3301 L2874,3314 L2840,3325 L2804,3349 L2792,3378 L2799,3405 L2826,3410 L2851,3403 L2879,3403 L2904,3405 L2932,3416 L2925,3438 L2905,3456 L2875,3461 L2849,3450 L2816,3449 L2788,3448 L2762,3461 L2772,3487 L2776,3514 L2780,3540 L2776,3559 L2788,3580 L2774,3597 L2759,3605 L2749,3616 L2746,3628 L2740,3646 L2724,3666 L2692,3666 L2667,3672 L2647,3681 L2605,3679 L2575,3654 L2539,3639 L2511,3633 L2479,3626 L2465,3610 L2448,3587 L2423,3571 L2396,3548 L2378,3514 L2342,3497 L2332,3465 L2344,3417 L2360,3383 L2372,3356 L2382,3323 L2420,3295 L2432,3295 L2460,3286 L2490,3275 L2521,3259 L2548,3245 L2575,3240 L2603,3236 L2635,3234 L2661,3239 L2690,3246 L2717,3229 L2745,3249 L2771,3240 L2796,3228 L2815,3229 L2830,3223 L2854,3214 L2870,3186 L2873,3159z M2363,3670 L2398,3687 L2433,3692 L2460,3695 L2455,3715 L2455,3735 L2458,3755 L2468,3780 L2465,3792 L2449,3795 L2425,3785 L2400,3775 L2385,3750 L2363,3730 L2355,3705 L2350,3680 L2363,3670z " class="polyStyle" id="130121" style="fill:#ee8b94"/>
<path d="" class="polyStyle" id="610823" style="fill:#fbe6ef"/>
<polygon points="8738,2404 8723,2430 8715,2462 8714,2497 8741,2517 8766,2533 8769,2574 8795,2598 8831,2618 8857,2622 8889,2622 8920,2609 8953,2588 8985,2577 9010,2574 9020,2574 9021,2596 9016,2633 9013,2669 9015,2697 9042,2713 9073,2723 9108,2736 9143,2765 9137,2793 9122,2820 9114,2857 9117,2878 9143,2910 9138,2956 9119,2986 9114,3011 9115,3044 9131,3071 9142,3098 9173,3107 9200,3117 9210,3145 9229,3174 9237,3199 9195,3214 9162,3226 9129,3227 9113,3218 9093,3206 9064,3199 9042,3217 9015,3215 8988,3191 8959,3196 8933,3204 8893,3197 8861,3193 8831,3190 8811,3165 8810,3143 8799,3121 8776,3117 8753,3126 8746,3152 8714,3165 8682,3163 8647,3163 8600,3148 8571,3153 8541,3171 8510,3185 8475,3185 8454,3164 8448,3158 8429,3119 8402,3124 8372,3144 8334,3137 8288,3133 8245,3131 8207,3137 8170,3135 8135,3133 8110,3144 8083,3157 8048,3165 8005,3166 7976,3164 7955,3172 7915,3176 7855,3174 7823,3152 7810,3103 7820,3056 7828,3027 7835,3005 7845,2979 7852,2950 7857,2949 7882,2930 7902,2926 7921,2922 7945,2916 7956,2896 7953,2882 7933,2871 7914,2869 7898,2863 7892,2837 7884,2807 7884,2782 7870,2774 7860,2760 7881,2728 7917,2700 7930,2665 7933,2639 7939,2624 7973,2604 8030,2584 8058,2564 8091,2532 8104,2536 8129,2532 8161,2509 8197,2495 8239,2513 8270,2525 8299,2544 8329,2563 8348,2581 8391,2593 8416,2607 8447,2595 8457,2559 8493,2541 8514,2508 8512,2473 8523,2445 8501,2423 8513,2401 8592,2396 8621,2382 8624,2381 8668,2370 8696,2368 8720,2380 " class="polyStyle" id="130128" style="fill:#fbe6ef"/>
<polygon points="7796,2408 7831,2432 7853,2458 7874,2490 7906,2499 7937,2504 7978,2480 8020,2483 8052,2488 8084,2509 8091,2532 8058,2564 8030,2584 7973,2604 7939,2624 7933,2639 7930,2665 7917,2700 7881,2728 7860,2760 7870,2774 7884,2782 7884,2807 7892,2837 7898,2863 7914,2869 7933,2871 7953,2882 7956,2896 7945,2916 7921,2922 7902,2926 7882,2930 7857,2949 7852,2950 7817,2957 7791,2973 7791,2997 7778,2995 7758,2982 7735,2988 7706,2997 7690,3019 7683,3030 7672,3041 7658,3053 7640,3064 7633,3069 7629,3074 7628,3078 7629,3090 7626,3098 7617,3107 7594,3117 7583,3120 7578,3123 7564,3134 7551,3148 7516,3195 7439,3277 7423,3294 7364,3327 7338,3347 7323,3353 7307,3362 7298,3366 7281,3373 7229,3385 7203,3396 7170,3409 7116,3421 7102,3431 7072,3460 7039,3478 7025,3484 7019,3485 6944,3499 6933,3503 6905,3521 6892,3526 6876,3533 6858,3547 6823,3566 6797,3578 6776,3584 6748,3586 6710,3579 6656,3566 6633,3563 6582,3562 6578,3558 6573,3547 6566,3508 6563,3461 6565,3411 6568,3351 6566,3331 6561,3319 6543,3303 6510,3309 6484,3302 6465,3273 6421,3249 6423,3221 6401,3183 6377,3157 6392,3128 6402,3094 6391,3072 6351,3049 6353,3011 6352,2972 6385,2952 6404,2924 6397,2894 6364,2875 6325,2876 6296,2864 6319,2841 6334,2809 6340,2775 6353,2744 6367,2712 6373,2683 6395,2667 6423,2668 6445,2657 6484,2669 6518,2669 6548,2652 6592,2633 6580,2583 6576,2566 6586,2548 6610,2546 6647,2532 6672,2504 6688,2481 6723,2488 6753,2516 6775,2527 6799,2528 6816,2501 6828,2476 6842,2479 6871,2485 6906,2492 6934,2493 6966,2489 6978,2460 7004,2424 7038,2413 7077,2418 7106,2424 7137,2426 7174,2421 7200,2415 7227,2419 7262,2426 7281,2454 7313,2459 7340,2469 7335,2496 7345,2531 7372,2528 7408,2526 7436,2513 7469,2496 7494,2486 7527,2477 7554,2480 7586,2502 7616,2508 7648,2504 7674,2502 7700,2490 7717,2460 7702,2433 7690,2408 7713,2375 7741,2365 7770,2380 " class="polyStyle" id="130130" style="fill:#f6f67b"/>
<polygon points="4031,274 4044,300 4062,325 4094,330 4131,353 4158,400 4174,409 4205,408 4245,386 4283,371 4320,362 4344,348 4350,312 4375,305 4413,298 4447,295 4458,305 4487,328 4517,331 4547,330 4581,332 4611,318 4638,296 4664,298 4691,305 4722,315 4750,333 4779,346 4806,373 4833,386 4863,413 4900,445 4908,478 4932,507 4958,525 4985,539 5021,557 5053,569 5066,599 5076,644 5089,661 5111,691 5135,730 5142,762 5134,795 5094,815 5059,837 5037,864 5038,884 5060,887 5078,872 5124,856 5175,855 5227,849 5265,840 5299,851 5314,880 5340,910 5352,942 5373,972 5397,1001 5414,1026 5432,1054 5451,1080 5478,1117 5501,1151 5519,1192 5540,1221 5569,1239 5596,1260 5625,1272 5655,1304 5685,1336 5707,1363 5720,1391 5747,1419 5750,1454 5768,1482 5795,1505 5830,1533 5844,1567 5840,1599 5813,1621 5756,1641 5701,1672 5675,1702 5639,1747 5634,1796 5668,1828 5672,1854 5662,1882 5631,1903 5604,1921 5574,1895 5552,1885 5529,1911 5517,1935 5491,1931 5462,1933 5425,1937 5394,1952 5367,1949 5337,1925 5310,1919 5282,1919 5248,1936 5249,1964 5260,1992 5244,2020 5202,2015 5170,2018 5127,1999 5096,1997 5061,2022 5029,1999 4999,1970 4971,1972 4947,1998 4936,2026 4928,2035 4912,2054 4882,2058 4873,2058 4855,2050 4840,2039 4815,2024 4801,2008 4783,1996 4764,1989 4740,1982 4714,1982 4684,1966 4663,1934 4635,1905 4609,1882 4577,1864 4548,1855 4521,1837 4496,1807 4476,1780 4469,1754 4450,1726 4429,1697 4410,1670 4403,1644 4372,1616 4341,1598 4312,1589 4281,1597 4250,1607 4221,1612 4193,1611 4167,1605 4141,1586 4114,1569 4089,1552 4059,1522 4053,1493 4041,1464 4075,1452 4118,1448 4138,1425 4157,1396 4155,1364 4140,1338 4109,1318 4091,1284 4094,1244 4098,1219 4074,1191 4048,1174 4024,1148 4018,1119 3989,1101 3961,1099 3933,1103 3904,1118 3878,1118 3864,1091 3869,1061 3887,1036 3859,1018 3831,1030 3801,1016 3791,990 3773,963 3744,962 3718,937 3691,939 3669,908 3665,882 3660,853 3642,828 3613,811 3584,785 3556,751 3533,722 3499,695 3470,672 3443,660 3407,660 3378,649 3353,622 3327,595 3295,577 3285,550 3288,523 3254,501 3249,476 3262,457 3276,452 3298,421 3330,386 3361,385 3390,376 3428,369 3460,354 3487,344 3514,349 3543,349 3573,343 3607,338 3632,344 3658,329 3675,303 3703,293 3736,303 3762,307 3788,310 3816,307 3845,293 3882,283 3913,296 3937,287 3963,254 3999,257 " class="polyStyle" id="130125" style="fill:#f6f67b"/>
<polygon points="1632,87 1668,79 1703,80 1746,79 1785,78 1814,84 1839,108 1874,126 1898,148 1926,184 1974,201 1999,219 2012,250 2007,280 2018,292 2041,301 2071,306 2099,306 2126,307 2153,317 2181,315 2208,311 2238,337 2257,365 2287,390 2312,397 2340,423 2366,419 2392,402 2421,392 2453,381 2482,395 2509,384 2542,379 2574,403 2600,404 2626,384 2653,382 2674,407 2703,417 2718,445 2745,453 2773,447 2788,474 2803,502 2835,513 2862,507 2900,506 2926,520 2959,510 2995,510 3022,495 3028,466 3057,450 3088,430 3115,418 3143,430 3169,438 3195,441 3220,450 3262,457 3249,476 3254,501 3288,523 3285,550 3295,577 3327,595 3353,622 3378,649 3407,660 3443,660 3470,672 3499,695 3533,722 3556,751 3584,785 3613,811 3642,828 3660,853 3665,882 3669,908 3691,939 3718,937 3744,962 3773,963 3791,990 3801,1016 3831,1030 3859,1018 3887,1036 3869,1061 3864,1091 3878,1118 3904,1118 3933,1103 3961,1099 3989,1101 4018,1119 4024,1148 4048,1174 4074,1191 4098,1219 4094,1244 4091,1284 4109,1318 4140,1338 4155,1364 4157,1396 4138,1425 4118,1448 4075,1452 4041,1464 4053,1493 4059,1522 4089,1552 4114,1569 4141,1586 4167,1605 4193,1611 4221,1612 4250,1607 4281,1597 4312,1589 4341,1598 4372,1616 4403,1644 4410,1670 4429,1697 4450,1726 4469,1754 4476,1780 4496,1807 4521,1837 4548,1855 4577,1864 4609,1882 4635,1905 4663,1934 4684,1966 4714,1982 4740,1982 4764,1989 4783,1996 4801,2008 4815,2024 4840,2039 4768,2073 4759,2105 4751,2131 4721,2134 4691,2149 4666,2176 4648,2201 4652,2231 4659,2266 4689,2302 4689,2335 4689,2357 4623,2378 4614,2414 4637,2445 4637,2476 4604,2478 4593,2498 4596,2531 4568,2551 4541,2554 4510,2556 4481,2550 4451,2546 4416,2547 4385,2549 4359,2549 4340,2550 4331,2520 4319,2493 4280,2471 4252,2454 4218,2443 4188,2445 4161,2450 4127,2454 4096,2465 4058,2451 4033,2468 3998,2488 3971,2503 3943,2511 3912,2535 3878,2566 3845,2580 3808,2592 3771,2583 3769,2580 3747,2554 3722,2509 3697,2459 3687,2408 3691,2358 3695,2332 3724,2315 3747,2287 3751,2253 3754,2227 3780,2181 3792,2144 3781,2120 3737,2112 3713,2096 3692,2067 3662,2064 3628,2034 3601,2007 3576,1977 3560,1951 3582,1902 3568,1888 3533,1880 3497,1882 3459,1890 3419,1874 3404,1850 3408,1813 3380,1796 3347,1772 3345,1745 3359,1707 3376,1676 3368,1645 3365,1612 3357,1583 3355,1555 3325,1535 3305,1507 3301,1475 3315,1439 3296,1419 3275,1396 3260,1370 3232,1356 3206,1360 3178,1361 3135,1368 3109,1336 3088,1304 3080,1288 3102,1261 3094,1247 3071,1254 3034,1248 3006,1227 2979,1205 2949,1180 2918,1169 2890,1166 2862,1177 2834,1198 2806,1211 2780,1223 2750,1235 2721,1255 2698,1282 2692,1311 2680,1339 2670,1366 2644,1378 2617,1362 2591,1363 2559,1372 2527,1371 2512,1342 2487,1315 2481,1288 2483,1258 2487,1231 2495,1206 2505,1178 2533,1138 2490,1136 2460,1132 2431,1135 2420,1132 2404,1129 2376,1148 2337,1162 2298,1151 2260,1143 2234,1138 2198,1117 2162,1093 2134,1061 2109,1063 2072,1052 2041,1038 2013,1026 2022,994 2049,965 2056,935 2030,912 2008,922 1975,913 1954,883 1933,851 1894,855 1858,840 1854,798 1853,759 1845,727 1822,701 1833,677 1831,637 1814,606 1793,574 1764,552 1781,523 1793,497 1786,471 1743,459 1690,463 1655,447 1644,421 1655,395 1659,368 1634,343 1605,327 1574,302 1548,275 1551,244 1578,222 1594,203 1585,171 1566,133 1573,99 1567,73 1567,52 1592,74 " class="polyStyle" id="130126" style="fill:#d4ecb2"/>
<polygon points="1440,12 1478,22 1492,22 1531,18 1565,51 1567,52 1567,73 1573,99 1566,133 1585,171 1594,203 1578,222 1551,244 1548,275 1574,302 1605,327 1634,343 1659,368 1655,395 1644,421 1655,447 1690,463 1743,459 1786,471 1793,497 1781,523 1764,552 1793,574 1814,606 1831,637 1833,677 1822,701 1845,727 1853,759 1854,798 1858,840 1894,855 1933,851 1954,883 1975,913 2008,922 2030,912 2056,935 2049,965 2022,994 2013,1026 2041,1038 2072,1052 2109,1063 2134,1061 2162,1093 2198,1117 2234,1138 2260,1143 2298,1151 2337,1162 2376,1148 2404,1129 2420,1132 2431,1135 2460,1132 2490,1136 2533,1138 2505,1178 2495,1206 2487,1231 2483,1258 2481,1288 2487,1315 2512,1342 2527,1371 2559,1372 2591,1363 2617,1362 2644,1378 2670,1366 2680,1339 2692,1311 2698,1282 2721,1255 2750,1235 2780,1223 2806,1211 2834,1198 2862,1177 2890,1166 2918,1169 2949,1180 2979,1205 3006,1227 3034,1248 3071,1254 3094,1247 3102,1261 3080,1288 3088,1304 3109,1336 3135,1368 3178,1361 3206,1360 3232,1356 3260,1370 3275,1396 3296,1419 3315,1439 3301,1475 3305,1507 3325,1535 3355,1555 3357,1583 3365,1612 3368,1645 3376,1676 3359,1707 3345,1745 3347,1772 3380,1796 3408,1813 3404,1850 3419,1874 3459,1890 3497,1882 3533,1880 3568,1888 3582,1902 3560,1951 3576,1977 3601,2007 3628,2034 3662,2064 3692,2067 3713,2096 3737,2112 3781,2120 3792,2144 3780,2181 3754,2227 3751,2253 3747,2287 3724,2315 3695,2332 3691,2358 3687,2408 3697,2459 3722,2509 3747,2554 3769,2580 3735,2609 3701,2623 3676,2626 3641,2629 3614,2631 3589,2636 3575,2664 3564,2691 3559,2718 3543,2763 3515,2762 3472,2745 3417,2755 3375,2775 3363,2787 3384,2818 3372,2844 3357,2872 3334,2897 3324,2923 3322,2925 3290,2930 3260,2933 3234,2938 3217,2933 3207,2905 3186,2882 3168,2858 3146,2831 3118,2817 3089,2803 3057,2795 3025,2782 2994,2786 2963,2804 2928,2808 2897,2799 2868,2804 2839,2815 2808,2814 2779,2805 2750,2774 2719,2763 2689,2746 2656,2730 2630,2733 2604,2736 2573,2738 2548,2746 2521,2768 2515,2797 2489,2824 2472,2853 2447,2864 2420,2844 2405,2863 2390,2893 2371,2929 2338,2944 2302,2950 2272,2947 2232,2953 2201,2972 2170,2958 2143,2947 2127,2913 2110,2877 2091,2863 2059,2877 2031,2893 2000,2896 1968,2911 1939,2930 1908,2948 1891,2934 1875,2903 1844,2888 1813,2881 1784,2884 1756,2888 1723,2878 1685,2860 1656,2852 1624,2860 1607,2892 1623,2906 1626,2930 1609,2954 1565,2951 1544,2972 1524,2970 1508,2972 1468,2980 1412,2994 1398,2998 1380,3010 1372,3014 1362,3014 1350,3000 1298,2990 1284,2996 1262,3000 1256,2990 1252,2980 1246,2972 1224,2966 1182,2964 1042,2970 1028,2968 1016,2964 996,2942 1010,2926 1080,2896 1086,2878 1080,2858 1052,2840 1042,2840 1000,2854 990,2852 976,2844 972,2838 972,2816 970,2792 972,2770 966,2762 952,2754 924,2742 908,2742 898,2748 862,2772 848,2780 828,2784 808,2784 804,2780 646,2638 638,2636 632,2636 592,2650 542,2660 514,2654 500,2638 486,2624 482,2618 454,2614 426,2616 384,2616 362,2618 310,2620 270,2624 258,2630 246,2640 228,2650 220,2646 214,2642 210,2634 208,2616 206,2592 204,2578 202,2572 194,2566 182,2558 122,2530 108,2520 100,2502 94,2484 88,2428 84,2382 90,2366 100,2348 106,2326 102,2288 122,2234 148,2188 176,2168 198,2146 198,2126 182,2088 124,2032 116,2028 108,2028 90,2036 80,2038 74,2034 54,2012 12,1942 2,1922 0,1908 4,1898 8,1892 24,1866 36,1840 40,1816 48,1758 50,1748 66,1710 82,1696 108,1682 132,1684 152,1688 172,1688 186,1688 198,1678 204,1666 206,1652 212,1634 222,1612 230,1560 242,1548 272,1536 324,1526 332,1524 338,1516 342,1508 340,1496 332,1486 292,1466 212,1418 188,1402 164,1366 160,1338 166,1316 170,1298 150,1262 124,1242 120,1235 118,1230 158,1206 178,1184 178,1168 180,1112 166,1046 160,1038 160,1030 168,1026 172,1020 178,1014 226,974 250,956 276,942 288,934 324,918 350,904 362,886 374,868 398,852 432,842 446,822 446,804 400,768 390,748 390,728 394,716 426,698 426,682 406,676 402,668 428,636 474,596 478,564 558,536 576,540 604,546 634,558 660,564 682,562 702,550 730,550 746,560 772,576 796,578 826,572 848,562 898,544 906,532 908,512 914,492 926,484 964,482 974,476 974,460 968,428 952,390 942,328 934,250 936,244 942,240 988,232 992,228 998,228 1014,234 1050,264 1110,298 1142,310 1154,316 1170,290 1188,280 1212,288 1234,296 1258,260 1276,238 1252,210 1246,188 1250,176 1252,172 1314,88 1334,62 1376,16 1400,0 1424,4 " class="polyStyle" id="130131" style="fill:#fbe6ef"/>
<path d="" class="polyStyle" id="130225" style="fill:#fbe6ef"/>
<path d="" class="polyStyle" id="130322" style="fill:#d4ecb2"/>
<path d="" class="polyStyle" id="653130" style="fill:#f6f67b"/>
<path d="" class="polyStyle" id="130822" style="fill:#fbe6ef"/>
<path d="" class="polyStyle" id="211221" style="fill:#f6f67b"/>
<path d="" class="polyStyle" id="210921" style="fill:#f6f67b"/>
<path d="" class="polyStyle" id="150223" style="fill:#f8c67d"/>
<path d="" class="polyStyle" id="220422" style="fill:#d4ecb2"/>
<path d="" class="polyStyle" id="340721" style="fill:#f6f67b"/>
<path d="" class="polyStyle" id="510824" style="fill:#d4ecb2"/>
<path d="" class="polyStyle" id="610324" style="fill:#f6f67b"/>
<path d="" class="polyStyle" id="530722" style="fill:#ee8b94"/>
<polygon points="4995,2051 5022,2059 5046,2074 5074,2096 5112,2111 5113,2135 5100,2176 5060,2196 5054,2223 5093,2261 5141,2272 5171,2261 5200,2265 5204,2224 5212,2193 5217,2163 5236,2133 5263,2136 5277,2162 5289,2177 5290,2191 5284,2206 5283,2231 5286,2262 5286,2288 5271,2321 5257,2345 5261,2362 5268,2379 5280,2396 5293,2409 5318,2423 5350,2434 5377,2436 5407,2426 5422,2414 5438,2409 5464,2409 5500,2410 5535,2423 5552,2392 5563,2360 5588,2354 5594,2331 5576,2302 5566,2282 5563,2262 5579,2254 5598,2256 5614,2268 5628,2276 5638,2280 5654,2283 5677,2298 5697,2321 5721,2340 5734,2352 5769,2350 5805,2347 5826,2342 5847,2336 5864,2333 5861,2357 5861,2379 5881,2389 5904,2378 5947,2376 5974,2393 5976,2423 5967,2444 5953,2474 5954,2500 5955,2532 5945,2546 5919,2556 5886,2572 5877,2616 5858,2642 5835,2678 5813,2697 5791,2738 5780,2781 5784,2809 5793,2847 5776,2883 5766,2914 5762,2950 5762,2981 5747,3028 5755,3074 5754,3099 5724,3108 5701,3136 5688,3178 5677,3216 5674,3249 5651,3269 5626,3279 5588,3284 5548,3282 5471,3279 5391,3277 5329,3272 5275,3258 5248,3231 5215,3223 5185,3214 5149,3195 5116,3185 5084,3173 5077,3169 5059,3160 5030,3156 4994,3154 4941,3156 4902,3160 4891,3137 4878,3113 4854,3102 4817,3105 4782,3091 4745,3075 4713,3053 4675,3025 4647,3000 4621,2983 4599,2968 4594,2964 4591,2962 4562,2937 4534,2914 4506,2892 4506,2863 4480,2831 4458,2795 4428,2766 4412,2741 4386,2715 4368,2681 4366,2652 4361,2623 4355,2597 4349,2568 4340,2550 4359,2549 4385,2549 4416,2547 4451,2546 4481,2550 4510,2556 4541,2554 4568,2551 4596,2531 4593,2498 4604,2478 4637,2476 4637,2445 4614,2414 4623,2378 4689,2357 4689,2335 4689,2302 4659,2266 4652,2231 4648,2201 4666,2176 4691,2149 4721,2134 4751,2131 4759,2105 4768,2073 4840,2039 4855,2050 4873,2058 4882,2058 4912,2054 4928,2035 4961,2053 " class="polyStyle" id="130123" style="fill:#ee8b94"/>
<path d="" class="polyStyle" id="340823" style="fill:#d4ecb2"/>
<path d="" class="polyStyle" id="620825" style="fill:#d4ecb2"/>
<path d="" class="polyStyle" id="421125" style="fill:#ee8b94"/>
<path d="" class="polyStyle" id="210281" style="fill:#ee8b94"/>
<path d="" class="polyStyle" id="440883" style="fill:#f6f67b"/>
<path d="" class="polyStyle" id="469006" style="fill:#d4ecb2"/>
<path d="" class="polyStyle" id="469002" style="fill:#ee8b94"/>
<path d="" class="polyStyle" id="469005" style="fill:#fbe6ef"/>
<path d="" class="polyStyle" id="440882" style="fill:#ee8b94"/>
<path d="" class="polyStyle" id="450681" style="fill:#ee8b94"/>
<path d="" class="polyStyle" id="441581" style="fill:#d4ecb2"/>
<path d="" class="polyStyle" id="421087" style="fill:#ee8b94"/>
<path d="" class="polyStyle" id="420984" style="fill:#fbe6ef"/>
<path d="" class="polyStyle" id="420582" style="fill:#ee8b94"/>
<path d="" class="polyStyle" id="370282" style="fill:#f6f67b"/>
<path d="" class="polyStyle" id="371083" style="fill:#f6f67b"/>
<path d="" class="polyStyle" id="371082" style="fill:#fbe6ef"/>
<polygon points="8810,3143 8811,3165 8831,3190 8861,3193 8893,3197 8933,3204 8959,3196 8988,3191 9015,3215 9042,3217 9064,3199 9093,3206 9113,3218 9129,3227 9162,3226 9195,3214 9237,3199 9265,3216 9275,3245 9287,3279 9294,3307 9313,3334 9327,3353 9367,3356 9397,3352 9422,3347 9449,3343 9484,3354 9516,3368 9559,3388 9587,3402 9614,3395 9647,3373 9658,3346 9692,3344 9724,3347 9749,3355 9768,3384 9793,3391 9796,3416 9773,3446 9755,3474 9728,3479 9702,3490 9697,3521 9696,3549 9684,3578 9672,3611 9686,3637 9658,3646 9621,3659 9630,3684 9638,3716 9605,3732 9577,3744 9588,3776 9617,3781 9646,3805 9647,3811 9630,3847 9611,3884 9616,3904 9645,3931 9657,3946 9662,3988 9661,4016 9678,4043 9664,4070 9630,4097 9612,4132 9581,4141 9544,4131 9538,4124 9523,4104 9491,4102 9468,4113 9449,4131 9442,4164 9441,4181 9441,4196 9413,4212 9387,4212 9350,4207 9317,4232 9314,4255 9314,4262 9316,4290 9286,4291 9261,4287 9251,4284 9216,4306 9214,4314 9210,4339 9207,4365 9197,4390 9200,4426 9207,4450 9242,4459 9293,4465 9322,4457 9344,4465 9346,4494 9337,4551 9329,4575 9292,4578 9215,4573 9194,4585 9185,4604 9176,4629 9186,4677 9175,4698 9129,4723 9121,4766 9113,4782 9116,4812 9127,4842 9152,4869 9179,4888 9231,4918 9236,4956 9214,4965 9195,4986 9158,4999 9121,4998 9107,5025 9106,5053 9118,5079 9142,5111 9168,5124 9203,5135 9234,5148 9237,5149 9265,5161 9283,5189 9264,5214 9228,5231 9178,5226 9119,5223 9079,5223 9063,5227 9042,5257 9015,5298 8982,5332 8977,5370 8994,5414 8989,5445 8977,5476 8969,5507 8941,5515 8912,5514 8881,5524 8863,5543 8858,5585 8864,5627 8858,5661 8835,5666 8804,5657 8766,5642 8737,5631 8705,5617 8662,5589 8673,5587 8670,5585 8663,5559 8669,5527 8662,5499 8683,5468 8695,5440 8697,5412 8690,5377 8679,5344 8656,5315 8630,5291 8612,5264 8610,5236 8610,5208 8610,5182 8588,5153 8558,5150 8518,5131 8488,5111 8429,5093 8393,5071 8346,5049 8285,5045 8243,5038 8215,5023 8188,5003 8162,4987 8130,4977 8121,4958 8124,4952 8137,4927 8173,4909 8179,4883 8166,4847 8136,4812 8130,4810 8099,4801 8100,4785 8101,4754 8115,4731 8129,4699 8105,4664 8122,4646 8122,4618 8133,4584 8110,4563 8073,4559 8043,4558 8011,4535 8021,4506 8050,4490 8076,4477 8114,4443 8136,4415 8152,4384 8158,4355 8146,4317 8150,4288 8168,4252 8192,4213 8202,4183 8197,4149 8179,4119 8138,4111 8119,4091 8112,4075 8140,4072 8181,4062 8208,4059 8247,4036 8254,4010 8261,3979 8262,3949 8262,3917 8287,3895 8329,3879 8351,3866 8370,3830 8372,3790 8389,3762 8418,3766 8448,3744 8462,3716 8442,3700 8388,3695 8350,3684 8350,3658 8361,3636 8398,3634 8428,3626 8444,3613 8451,3581 8479,3559 8502,3538 8486,3498 8451,3477 8411,3480 8381,3467 8380,3434 8391,3407 8418,3379 8435,3350 8452,3324 8471,3294 8471,3258 8456,3232 8449,3201 8454,3164 8475,3185 8510,3185 8541,3171 8571,3153 8600,3148 8647,3163 8682,3163 8714,3165 8746,3152 8753,3126 8776,3117 8799,3121 " class="polyStyle" id="130181" style="fill:#f6f67b"/>
<polygon points="7835,3005 7828,3027 7820,3056 7810,3103 7823,3152 7855,3174 7915,3176 7955,3172 7976,3164 8005,3166 8048,3165 8083,3157 8110,3144 8135,3133 8170,3135 8207,3137 8245,3131 8288,3133 8334,3137 8372,3144 8402,3124 8429,3119 8448,3158 8454,3164 8449,3201 8456,3232 8471,3258 8471,3294 8452,3324 8435,3350 8418,3379 8391,3407 8380,3434 8381,3467 8411,3480 8451,3477 8486,3498 8502,3538 8479,3559 8451,3581 8444,3613 8428,3626 8398,3634 8361,3636 8350,3658 8350,3684 8388,3695 8442,3700 8462,3716 8448,3744 8418,3766 8389,3762 8372,3790 8370,3830 8351,3866 8329,3879 8287,3895 8262,3917 8262,3949 8261,3979 8254,4010 8247,4036 8208,4059 8181,4062 8140,4072 8112,4075 8119,4091 8138,4111 8179,4119 8197,4149 8202,4183 8192,4213 8168,4252 8150,4288 8146,4317 8158,4355 8152,4384 8136,4415 8114,4443 8076,4477 8050,4490 8021,4506 8011,4535 8043,4558 8073,4559 8110,4563 8133,4584 8122,4618 8122,4646 8105,4664 8129,4699 8115,4731 8101,4754 8100,4785 8099,4801 8096,4800 8066,4801 8031,4800 7997,4787 7966,4779 7941,4778 7908,4780 7882,4788 7851,4817 7841,4842 7805,4861 7766,4869 7735,4882 7734,4887 7708,4853 7681,4827 7639,4815 7592,4809 7560,4798 7533,4770 7516,4739 7519,4709 7519,4680 7515,4652 7501,4620 7467,4578 7441,4554 7415,4527 7400,4509 7409,4454 7379,4431 7347,4412 7304,4398 7282,4371 7263,4340 7240,4314 7215,4287 7221,4260 7237,4234 7265,4217 7283,4190 7285,4163 7275,4134 7245,4107 7235,4083 7255,4059 7285,4023 7290,3991 7300,3964 7284,3938 7270,3913 7284,3886 7295,3858 7290,3835 7249,3790 7261,3753 7270,3724 7268,3696 7267,3670 7273,3644 7286,3616 7292,3582 7289,3551 7290,3519 7266,3492 7268,3461 7274,3436 7286,3405 7296,3375 7298,3366 7307,3362 7323,3353 7338,3347 7364,3327 7423,3294 7439,3277 7516,3195 7551,3148 7564,3134 7578,3123 7583,3120 7594,3117 7617,3107 7626,3098 7629,3090 7628,3078 7629,3074 7633,3069 7640,3064 7658,3053 7672,3041 7683,3030 7690,3019 7706,2997 7735,2988 7758,2982 7778,2995 7791,2997 7791,2973 7817,2957 7852,2950 7845,2979 " class="polyStyle" id="130183" style="fill:#ee8b94"/>
<polygon points="6001,1369 6017,1391 6054,1391 6074,1363 6087,1327 6121,1310 6146,1329 6181,1343 6237,1340 6268,1342 6301,1352 6333,1352 6364,1341 6392,1334 6418,1335 6449,1341 6453,1342 6453,1349 6473,1380 6504,1399 6527,1428 6533,1454 6541,1483 6541,1510 6531,1540 6528,1570 6555,1588 6582,1575 6588,1549 6619,1508 6647,1523 6670,1550 6673,1579 6666,1612 6671,1644 6697,1654 6725,1661 6761,1670 6797,1676 6824,1700 6855,1730 6880,1763 6910,1794 6937,1805 6943,1834 6969,1856 7000,1884 7013,1921 7020,1960 7035,1997 7034,2029 7028,2058 7034,2092 7076,2120 7078,2145 7049,2173 7023,2189 6998,2217 6969,2238 6937,2259 6917,2288 6907,2316 6879,2336 6848,2357 6817,2387 6795,2415 6803,2443 6828,2476 6816,2501 6799,2528 6775,2527 6753,2516 6723,2488 6688,2481 6656,2470 6628,2451 6602,2440 6564,2418 6534,2412 6507,2396 6502,2380 6489,2370 6470,2365 6445,2363 6427,2345 6392,2327 6363,2310 6337,2302 6320,2295 6302,2291 6285,2293 6260,2304 6224,2305 6205,2296 6194,2276 6185,2264 6168,2254 6151,2258 6135,2268 6110,2281 6090,2288 6059,2282 6010,2273 5977,2274 5940,2293 5926,2300 5893,2317 5864,2333 5847,2336 5826,2342 5805,2347 5769,2350 5734,2352 5721,2340 5697,2321 5677,2298 5654,2283 5638,2280 5628,2276 5614,2268 5598,2256 5579,2254 5563,2262 5566,2282 5576,2302 5594,2331 5588,2354 5563,2360 5552,2392 5535,2423 5500,2410 5464,2409 5438,2409 5422,2414 5407,2426 5377,2436 5350,2434 5318,2423 5293,2409 5280,2396 5268,2379 5261,2362 5257,2345 5271,2321 5286,2288 5286,2262 5283,2231 5284,2206 5290,2191 5289,2177 5277,2162 5263,2136 5236,2133 5217,2163 5212,2193 5204,2224 5200,2265 5171,2261 5141,2272 5093,2261 5054,2223 5060,2196 5100,2176 5113,2135 5112,2111 5074,2096 5046,2074 5022,2059 4995,2051 4961,2053 4928,2035 4936,2026 4947,1998 4971,1972 4999,1970 5029,1999 5061,2022 5096,1997 5127,1999 5170,2018 5202,2015 5244,2020 5260,1992 5249,1964 5248,1936 5282,1919 5310,1919 5337,1925 5367,1949 5394,1952 5425,1937 5462,1933 5491,1931 5517,1935 5529,1911 5552,1885 5574,1895 5604,1921 5631,1903 5662,1882 5672,1854 5668,1828 5634,1796 5639,1747 5675,1702 5701,1672 5756,1641 5813,1621 5840,1599 5844,1567 5830,1533 5795,1505 5768,1482 5750,1454 5747,1419 5771,1422 5790,1406 5818,1387 5851,1374 5885,1365 5907,1324 5937,1308 5974,1319 " class="polyStyle" id="130184" style="fill:#fbe6ef"/>
<path d="" class="polyStyle" id="652801" style="fill:#f8c67d"/>
<path d="" class="polyStyle" id="654301" style="fill:#ee8b94"/>
<path d="" class="polyStyle" id="370687" style="fill:#ee8b94"/>
<path d="" class="polyStyle" id="371482" style="fill:#d4ecb2"/>
<path d="" class="polyStyle" id="421081" style="fill:#fbe6ef"/>
<path d="" class="polyStyle" id="429006" style="fill:#f6f67b"/>
<path d="" class="polyStyle" id="440982" style="fill:#d4ecb2"/>
<path d="" class="polyStyle" id="421181" style="fill:#d4ecb2"/>
<path d="" class="polyStyle" id="321181" style="fill:#d4ecb2"/>
<path d="" class="polyStyle" id="659007" style="fill:#ee8b94"/>
<path d="" class="polyStyle" id="652701" style="fill:#fbe6ef"/>
<path d="" class="polyStyle" id="210781" style="fill:#fbe6ef"/>
<path d="" class="polyStyle" id="460204" style="fill:#f6f67b"/>
<path d="" class="polyStyle" id="210211" style="fill:#f6f67b"/>
<path d="" class="polyStyle" id="450512" style="fill:#ee8b94"/>
<path d="" class="polyStyle" id="450602" style="fill:#fbe6ef"/>
<path d="" class="polyStyle" id="440404" style="fill:#ee8b94"/>
<path d="" class="polyStyle" id="440403" style="fill:#f6f67b"/>
<path d="" class="polyStyle" id="441502" style="fill:#f6f67b"/>
<path d="" class="polyStyle" id="431002" style="fill:#d4ecb2"/>
<path d="" class="polyStyle" id="500107" style="fill:#fbe6ef"/>
<path d="" class="polyStyle" id="430611" style="fill:#d4ecb2"/>
<path d="" class="polyStyle" id="511304" style="fill:#fbe6ef"/>
<path d="" class="polyStyle" id="340711" style="fill:#ee8b94"/>
<path d="" class="polyStyle" id="320118" style="fill:#f6f67b"/>
<path d="" class="polyStyle" id="510704" style="fill:#f6f67b"/>
<path d="" class="polyStyle" id="411502" style="fill:#ee8b94"/>
<path d="" class="polyStyle" id="320302" style="fill:#d4ecb2"/>
<polygon points="2433,3692 2460,3695 2455,3715 2455,3735 2458,3755 2468,3780 2465,3792 2449,3795 2425,3785 2400,3775 2385,3750 2363,3730 2355,3705 2350,3680 2363,3670 2398,3687 " class="polyStyle" id="130107" style="fill:#f6f67b"/>
<path d="" class="polyStyle" id="140311" style="fill:#ee8b94"/>
<polygon points="2915,3151 2906,3178 2891,3201 2877,3217 2863,3228 2860,3255 2868,3285 2887,3301 2874,3314 2840,3325 2804,3349 2792,3378 2799,3405 2826,3410 2851,3403 2879,3403 2904,3405 2932,3416 2925,3438 2905,3456 2875,3461 2849,3450 2816,3449 2788,3448 2762,3461 2772,3487 2776,3514 2780,3540 2776,3559 2788,3580 2774,3597 2759,3605 2749,3616 2746,3628 2740,3646 2724,3666 2692,3666 2667,3672 2647,3681 2605,3679 2575,3654 2539,3639 2511,3633 2479,3626 2465,3610 2448,3587 2423,3571 2396,3548 2378,3514 2342,3497 2332,3465 2344,3417 2360,3383 2372,3356 2382,3323 2420,3295 2432,3295 2460,3286 2490,3275 2521,3259 2548,3245 2575,3240 2603,3236 2635,3234 2661,3239 2690,3246 2717,3229 2745,3249 2771,3240 2796,3228 2815,3229 2830,3223 2854,3214 2870,3186 2873,3159 2873,3136 2899,3142 " class="polyStyle" id="130107" style="fill:#f6f67b"/>
<path d="" class="polyStyle" id="610802" style="fill:#ee8b94"/>
<path d="" class="polyStyle" id="120116" style="fill:#f6f67b"/>
<path d="" class="polyStyle" id="130303" style="fill:#fbe6ef"/>
<path d="" class="polyStyle" id="140211" style="fill:#f6f67b"/>
<path d="" class="polyStyle" id="150207" style="fill:#fbe6ef"/>
<path d="" class="polyStyle" id="211403" style="fill:#f6f67b"/>
<path d="" class="polyStyle" id="150802" style="fill:#f8c67d"/>
<path d="" class="polyStyle" id="210112" style="fill:#ee8b94"/>
<path d="" class="polyStyle" id="230406" style="fill:#d4ecb2"/>
<path d="" class="polyStyle" id="110113" style="fill:#fbe6ef"/>
<path d="" class="polyStyle" id="341702" style="fill:#fbe6ef"/>
<path d="" class="polyStyle" id="420303" style="fill:#ee8b94"/>
<polygon points="5462,3541 5608,3572 5677,3586 5714,3594 5760,3602 5765,3620 5767,3646 5754,3676 5726,3680 5689,3712 5671,3751 5646,3768 5632,3802 5657,3827 5687,3857 5691,3885 5697,3911 5691,3937 5701,3951 5635,3957 5608,3957 5595,3942 5590,3919 5575,3897 5558,3874 5535,3862 5493,3842 5443,3842 5403,3852 5379,3883 5369,3916 5350,3944 5303,3954 5258,3954 5218,3954 5180,3954 5123,3962 5078,3962 5025,3959 4990,3959 4960,3957 4933,3952 4905,3954 4893,3966 4889,3965 4869,3960 4843,3953 4843,3941 4877,3938 4859,3852 4853,3824 4848,3799 4854,3797 4859,3794 4872,3782 4885,3769 4911,3743 4941,3715 4950,3705 4953,3702 4952,3684 4951,3635 4951,3631 4969,3630 4999,3630 5033,3629 5056,3628 5101,3627 5155,3626 5206,3625 5258,3623 5310,3622 5347,3621 5347,3617 5347,3610 5347,3601 5347,3597 5347,3592 5347,3570 5348,3560 5348,3549 5348,3545 5348,3537 5347,3518 5374,3524 " class="polyStyle" id="130108" style="fill:#d4ecb2"/>
<polygon points="4599,2968 4621,2983 4647,3000 4675,3025 4713,3053 4745,3075 4782,3091 4817,3105 4854,3102 4878,3113 4891,3137 4902,3160 4893,3167 4865,3188 4839,3208 4812,3229 4808,3233 4835,3238 4828,3244 4819,3248 4820,3252 4821,3260 4822,3264 4820,3267 4817,3269 4803,3271 4791,3271 4802,3292 4817,3294 4851,3298 4865,3286 4864,3298 4864,3301 4864,3315 4863,3329 4864,3338 4864,3351 4860,3374 4859,3385 4856,3394 4887,3399 4900,3400 4894,3414 4892,3419 4880,3455 4858,3543 4843,3593 4812,3591 4811,3586 4811,3583 4776,3582 4737,3582 4737,3574 4738,3570 4703,3568 4647,3566 4601,3564 4579,3564 4570,3564 4565,3548 4563,3539 4567,3516 4570,3503 4572,3496 4552,3491 4540,3488 4515,3483 4468,3473 4393,3462 4318,3448 4303,3445 4266,3445 4273,3418 4286,3388 4297,3362 4303,3335 4329,3308 4355,3299 4380,3282 4409,3260 4440,3257 4467,3250 4438,3222 4432,3191 4437,3164 4457,3136 4467,3109 4492,3079 4521,3056 4550,3025 4570,2995 4585,2969 4591,2962 4594,2964 " class="polyStyle" id="130105" style="fill:#fbe6ef"/>
<path d="" class="polyStyle" id="340702" style="fill:#d4ecb2"/>
<path d="" class="polyStyle" id="421002" style="fill:#f6f67b"/>
<path d="" class="polyStyle" id="420117" style="fill:#f6f67b"/>
<path d="" class="polyStyle" id="440904" style="fill:#f8c67d"/>
<path d="" class="polyStyle" id="460205" style="fill:#ee8b94"/>
<path d="" class="polyStyle" id="460202" style="fill:#f6f67b"/>
<path d="" class="polyStyle" id="460203" style="fill:#fbe6ef"/>
<path d="" class="polyStyle" id="420304" style="fill:#f6f67b"/>
<path d="" class="polyStyle" id="445302" style="fill:#ee8b94"/>
<path d="" class="polyStyle" id="410202" style="fill:#d4ecb2"/>
<polygon points="4950,3606 4950,3613 4950,3620 4951,3631 4951,3635 4952,3684 4953,3702 4950,3705 4941,3715 4911,3743 4885,3769 4872,3782 4859,3794 4854,3797 4848,3799 4853,3824 4859,3852 4877,3938 4843,3941 4843,3953 4832,3951 4802,3941 4765,3933 4755,3931 4714,3928 4675,3907 4640,3859 4599,3842 4568,3843 4543,3842 4515,3831 4499,3807 4500,3780 4487,3752 4450,3719 4424,3686 4382,3651 4338,3619 4300,3583 4308,3560 4315,3539 4298,3506 4267,3471 4265,3448 4266,3445 4303,3445 4318,3448 4393,3462 4468,3473 4515,3483 4540,3488 4552,3491 4572,3496 4570,3503 4567,3516 4563,3539 4565,3548 4570,3564 4579,3564 4601,3564 4647,3566 4703,3568 4738,3570 4737,3574 4737,3582 4776,3582 4811,3583 4811,3586 4812,3591 4843,3593 4840,3603 4949,3605 " class="polyStyle" id="130104" style="fill:#ee8b94"/>
<polygon points="4840,3602 4843,3593 4858,3543 4880,3455 4892,3419 4894,3414 4900,3400 4887,3399 4856,3394 4859,3385 4860,3374 4864,3351 4864,3338 4863,3329 4864,3315 4864,3301 4864,3298 4865,3286 4851,3298 4817,3294 4802,3292 4791,3271 4803,3271 4817,3269 4820,3267 4822,3264 4821,3260 4820,3252 4819,3248 4828,3244 4835,3238 4808,3233 4812,3229 4839,3208 4865,3188 4893,3167 4902,3160 4941,3156 4994,3154 5030,3156 5059,3160 5077,3169 5084,3173 5116,3185 5149,3195 5185,3214 5215,3223 5248,3231 5275,3258 5329,3272 5391,3277 5471,3279 5548,3282 5588,3284 5626,3279 5651,3269 5674,3249 5717,3260 5761,3261 5805,3276 5824,3299 5852,3320 5893,3347 5891,3375 5896,3419 5882,3447 5868,3472 5841,3493 5814,3513 5788,3528 5760,3554 5755,3581 5760,3602 5714,3594 5677,3586 5608,3572 5462,3541 5374,3524 5347,3518 5348,3537 5348,3545 5348,3549 5348,3560 5347,3570 5347,3592 5347,3597 5347,3601 5347,3610 5347,3617 5347,3621 5310,3622 5258,3623 5206,3625 5155,3626 5101,3627 5056,3628 5033,3629 4999,3630 4969,3630 4951,3631 4950,3620 4950,3613 4950,3606 4949,3605 " class="polyStyle" id="130102" style="fill:#fbe6ef"/>
<polygon points="4280,2471 4319,2493 4331,2520 4340,2550 4349,2568 4355,2597 4361,2623 4366,2652 4368,2681 4386,2715 4412,2741 4428,2766 4458,2795 4480,2831 4506,2863 4506,2892 4534,2914 4562,2937 4591,2962 4585,2969 4570,2995 4550,3025 4521,3056 4492,3079 4467,3109 4457,3136 4437,3164 4432,3191 4438,3222 4467,3250 4440,3257 4409,3260 4380,3282 4355,3299 4329,3308 4303,3335 4297,3362 4286,3388 4273,3418 4266,3445 4265,3448 4267,3471 4298,3506 4315,3539 4308,3560 4300,3583 4338,3619 4382,3651 4424,3686 4450,3719 4487,3752 4500,3780 4499,3807 4515,3831 4543,3842 4568,3843 4599,3842 4640,3859 4675,3907 4714,3928 4755,3931 4765,3933 4802,3941 4832,3951 4843,3953 4869,3960 4889,3965 4884,3981 4880,3996 4887,4022 4914,4035 4928,4065 4928,4098 4910,4120 4880,4143 4845,4154 4810,4168 4796,4176 4774,4177 4744,4188 4712,4189 4667,4197 4640,4202 4598,4215 4563,4239 4525,4262 4494,4290 4478,4312 4451,4328 4414,4325 4373,4337 4334,4356 4303,4376 4272,4371 4238,4362 4183,4350 4135,4349 4079,4365 4055,4341 4037,4321 4003,4336 3975,4340 3949,4300 3933,4293 3907,4308 3869,4335 3840,4347 3808,4331 3778,4327 3750,4320 3753,4291 3733,4257 3753,4229 3746,4211 3718,4205 3753,4173 3782,4145 3804,4118 3833,4095 3860,4089 3861,4062 3861,4036 3860,3994 3865,3964 3890,3942 3894,3916 3884,3888 3897,3858 3895,3832 3855,3806 3831,3821 3791,3835 3758,3828 3727,3805 3699,3792 3673,3772 3677,3747 3705,3720 3735,3699 3758,3666 3767,3633 3781,3602 3791,3577 3792,3548 3763,3522 3734,3508 3704,3489 3675,3480 3642,3475 3615,3459 3585,3455 3559,3447 3528,3437 3501,3423 3485,3395 3476,3369 3477,3335 3491,3310 3487,3282 3462,3268 3431,3261 3440,3236 3461,3209 3490,3186 3521,3177 3551,3170 3580,3169 3610,3159 3638,3144 3642,3115 3632,3088 3632,3056 3634,3029 3630,3004 3595,3002 3570,2999 3548,2972 3517,2952 3485,2944 3438,2951 3415,2944 3390,2924 3354,2929 3322,2925 3324,2923 3334,2897 3357,2872 3372,2844 3384,2818 3363,2787 3375,2775 3417,2755 3472,2745 3515,2762 3543,2763 3559,2718 3564,2691 3575,2664 3589,2636 3614,2631 3641,2629 3676,2626 3701,2623 3735,2609 3769,2580 3771,2583 3808,2592 3845,2580 3878,2566 3912,2535 3943,2511 3971,2503 3998,2488 4033,2468 4058,2451 4096,2465 4127,2454 4161,2450 4188,2445 4218,2443 4252,2454 " class="polyStyle" id="130110" style="fill:#f6f67b"/>
<polygon points="6194,2276 6205,2296 6224,2305 6260,2304 6285,2293 6302,2291 6320,2295 6337,2302 6363,2310 6392,2327 6427,2345 6445,2363 6470,2365 6489,2370 6502,2380 6507,2396 6534,2412 6564,2418 6602,2440 6628,2451 6656,2470 6688,2481 6672,2504 6647,2532 6610,2546 6586,2548 6576,2566 6580,2583 6592,2633 6548,2652 6518,2669 6484,2669 6445,2657 6423,2668 6395,2667 6373,2683 6367,2712 6353,2744 6340,2775 6334,2809 6319,2841 6296,2864 6325,2876 6364,2875 6397,2894 6404,2924 6385,2952 6352,2972 6353,3011 6351,3049 6391,3072 6402,3094 6392,3128 6377,3157 6401,3183 6423,3221 6421,3249 6465,3273 6484,3302 6510,3309 6543,3303 6561,3319 6566,3331 6568,3351 6565,3411 6563,3461 6566,3508 6573,3547 6578,3558 6582,3562 6633,3563 6656,3566 6710,3579 6748,3586 6776,3584 6797,3578 6823,3566 6858,3547 6876,3533 6892,3526 6905,3521 6933,3503 6944,3499 7019,3485 7025,3484 7039,3478 7072,3460 7102,3431 7116,3421 7170,3409 7203,3396 7229,3385 7281,3373 7298,3366 7296,3375 7286,3405 7274,3436 7268,3461 7266,3492 7290,3519 7289,3551 7292,3582 7286,3616 7273,3644 7267,3670 7268,3696 7270,3724 7261,3753 7249,3790 7290,3835 7295,3858 7284,3886 7270,3913 7284,3938 7300,3964 7290,3991 7285,4023 7255,4059 7235,4083 7245,4107 7275,4134 7285,4163 7283,4190 7265,4217 7237,4234 7221,4260 7215,4287 7240,4314 7263,4340 7282,4371 7304,4398 7305,4427 7306,4455 7303,4490 7275,4507 7247,4508 7216,4510 7191,4514 7158,4536 7116,4541 7096,4549 7067,4517 7035,4509 7009,4510 6972,4516 6947,4517 6912,4522 6887,4516 6859,4501 6845,4465 6819,4442 6789,4435 6752,4427 6713,4423 6675,4404 6638,4386 6606,4396 6578,4401 6547,4410 6537,4433 6510,4439 6477,4409 6444,4391 6412,4380 6384,4372 6382,4370 6335,4339 6298,4330 6261,4326 6235,4336 6198,4358 6158,4368 6135,4350 6134,4320 6163,4300 6190,4280 6188,4242 6181,4214 6151,4209 6111,4206 6073,4220 6028,4182 5992,4175 5949,4163 5898,4156 5857,4143 5819,4115 5809,4081 5779,4068 5754,4041 5747,4008 5714,3991 5706,3959 5701,3951 5691,3937 5697,3911 5691,3885 5687,3857 5657,3827 5632,3802 5646,3768 5671,3751 5689,3712 5726,3680 5754,3676 5767,3646 5765,3620 5760,3602 5755,3581 5760,3554 5788,3528 5814,3513 5841,3493 5868,3472 5882,3447 5896,3419 5891,3375 5893,3347 5852,3320 5824,3299 5805,3276 5761,3261 5717,3260 5674,3249 5677,3216 5688,3178 5701,3136 5724,3108 5754,3099 5755,3074 5747,3028 5762,2981 5762,2950 5766,2914 5776,2883 5793,2847 5784,2809 5780,2781 5791,2738 5813,2697 5835,2678 5858,2642 5877,2616 5886,2572 5919,2556 5945,2546 5955,2532 5954,2500 5953,2474 5967,2444 5976,2423 5974,2393 5947,2376 5904,2378 5881,2389 5861,2379 5861,2357 5864,2333 5893,2317 5926,2300 5940,2293 5977,2274 6010,2273 6059,2282 6090,2288 6110,2281 6135,2268 6151,2258 6168,2254 6185,2264 " class="polyStyle" id="130109" style="fill:#f8c67d"/>
<polygon points="5558,3874 5575,3897 5590,3919 5595,3942 5608,3957 5635,3957 5701,3951 5706,3959 5714,3991 5747,4008 5754,4041 5779,4068 5809,4081 5819,4115 5857,4143 5898,4156 5949,4163 5992,4175 6028,4182 6073,4220 6111,4206 6151,4209 6181,4214 6188,4242 6190,4280 6163,4300 6134,4320 6135,4350 6158,4368 6198,4358 6235,4336 6261,4326 6298,4330 6335,4339 6382,4370 6373,4391 6344,4420 6318,4443 6296,4461 6268,4478 6242,4487 6212,4495 6169,4487 6140,4500 6139,4532 6144,4572 6163,4595 6191,4604 6222,4607 6217,4631 6200,4642 6162,4663 6127,4672 6101,4679 6066,4689 6037,4692 5995,4694 5963,4717 5952,4751 5936,4768 5911,4774 5882,4779 5847,4782 5814,4788 5783,4797 5763,4823 5730,4845 5686,4849 5647,4826 5603,4824 5575,4826 5540,4822 5512,4808 5486,4779 5482,4749 5486,4718 5475,4692 5437,4693 5411,4698 5378,4711 5348,4721 5315,4724 5288,4725 5261,4717 5225,4703 5188,4685 5155,4671 5129,4662 5086,4651 5063,4621 5052,4576 5060,4550 5074,4535 5094,4509 5089,4487 5061,4470 5030,4466 4999,4451 4998,4419 5011,4399 4980,4385 4947,4377 4909,4365 4883,4343 4855,4356 4816,4351 4800,4327 4813,4300 4836,4262 4834,4221 4823,4190 4796,4176 4810,4168 4845,4154 4880,4143 4910,4120 4928,4098 4928,4065 4914,4035 4887,4022 4880,3996 4884,3981 4889,3965 4893,3966 4905,3954 4933,3952 4960,3957 4990,3959 5025,3959 5078,3962 5123,3962 5180,3954 5218,3954 5258,3954 5303,3954 5350,3944 5369,3916 5379,3883 5403,3852 5443,3842 5493,3842 5535,3862 " class="polyStyle" id="130111" style="fill:#ee8b94"/>
<path d="" class="polyStyle" id="440800" style="fill:#f6f67b"/>
<path d="" class="polyStyle" id="440900" style="fill:#ee8b94"/>
<path d="" class="polyStyle" id="340800" style="fill:#ee8b94"/>
<path d="" class="polyStyle" id="460200" style="fill:#f6f67b"/>
<path d="" class="polyStyle" id="460000" style="fill:#ee8b94"/>
<path d="" class="polyStyle" id="450500" style="fill:#ee8b94"/>
<path d="" class="polyStyle" id="450600" style="fill:#ee8b94"/>
<path d="" class="polyStyle" id="440400" style="fill:#f6f67b"/>
<path d="" class="polyStyle" id="441700" style="fill:#f6f67b"/>
<path d="" class="polyStyle" id="441500" style="fill:#f6f67b"/>
<path d="" class="polyStyle" id="350600" style="fill:#ee8b94"/>
<path d="" class="polyStyle" id="710000" style="fill:#f6f67b"/>
<path d="" class="polyStyle" id="510400" style="fill:#f6f67b"/>
<path d="" class="polyStyle" id="522600" style="fill:#fbe6ef"/>
<path d="" class="polyStyle" id="520500" style="fill:#ee8b94"/>
<path d="" class="polyStyle" id="431200" style="fill:#f6f67b"/>
<path d="" class="polyStyle" id="430600" style="fill:#f6f67b"/>
<path d="" class="polyStyle" id="511400" style="fill:#d4ecb2"/>
<path d="" class="polyStyle" id="421000" style="fill:#ee8b94"/>
<path d="" class="polyStyle" id="341700" style="fill:#f6f67b"/>
<path d="" class="polyStyle" id="420500" style="fill:#f6f67b"/>
<path d="" class="polyStyle" id="511300" style="fill:#f6f67b"/>
<path d="" class="polyStyle" id="420900" style="fill:#f6f67b"/>
<path d="" class="polyStyle" id="511700" style="fill:#ee8b94"/>
<path d="" class="polyStyle" id="420600" style="fill:#d4ecb2"/>
<path d="" class="polyStyle" id="411500" style="fill:#fbe6ef"/>
<path d="" class="polyStyle" id="510800" style="fill:#ee8b94"/>
<path d="" class="polyStyle" id="420300" style="fill:#fbe6ef"/>
<path d="" class="polyStyle" id="611000" style="fill:#ee8b94"/>
<path d="" class="polyStyle" id="620800" style="fill:#fbe6ef"/>
<path d="" class="polyStyle" id="370200" style="fill:#ee8b94"/>
<path d="" class="polyStyle" id="371000" style="fill:#f6f67b"/>
<path d="" class="polyStyle" id="370600" style="fill:#fbe6ef"/>
<path d="" class="polyStyle" id="120000" style="fill:#f6f67b"/>
<path d="" class="polyStyle" id="130200" style="fill:#ee8b94"/>
<path d="" class="polyStyle" id="130300" style="fill:#f6f67b"/>
<path d="" class="polyStyle" id="652900" style="fill:#fbe6ef"/>
<path d="" class="polyStyle" id="150500" style="fill:#d4ecb2"/>
<path d="" class="polyStyle" id="" style="fill:#d4ecb2"/>
<path d="" class="polyStyle" id="350500" style="fill:#fbe6ef"/>
<path d="" class="polyStyle" id="440400" style="fill:#f6f67b"/>
<path d="" class="polyStyle" id="421100" style="fill:#d4ecb2"/>
<path d="" class="polyStyle" id="420100" style="fill:#fbe6ef"/>
<path d="" class="polyStyle" id="532500" style="fill:#fbe6ef"/>
<path d="" class="polyStyle" id="654200" style="fill:#fbe6ef"/>
<path d="" class="polyStyle" id="210700" style="fill:#d4ecb2"/>
<path d="" class="polyStyle" id="522300" style="fill:#fbe6ef"/>
<path d="" class="polyStyle" id="" style="fill:#ee8b94"/>
<path d="" class="polyStyle" id="440400" style="fill:#f6f67b"/>
<path d="" class="polyStyle" id="620000" style="fill:#f6f67b"/>
<path d="" class="polyStyle" id="430000" style="fill:#fbe6ef"/>
<path d="" class="polyStyle" id="420000" style="fill:#ee8b94"/>
<path d="" class="polyStyle" id="410000" style="fill:#f6f67b"/>
<path d="" class="polyStyle" id="350000" style="fill:#fbe6ef"/>
<path d="" class="polyStyle" id="520000" style="fill:#f6f67b"/>
<path d="" class="polyStyle" id="" style="fill:#ee8b94"/>
</svg>
