<?xml version="1.0" encoding="UTF-8"?>
<!DOCTYPE svg PUBLIC "-//W3C//DTD SVG 1.1 Tiny//EN" "http://www.w3.org/Graphics/SVG/1.1/DTD/svg11-tiny.dtd">
<svg version="1.1" xmlns="http://www.w3.org/2000/svg" xmlns:xlink="http://www.w3.org/1999/xlink" width="100%" height="100%" viewBox="0,0,10460,5268">
<title>SVG</title>
<desc>Poligon Test</desc>
<style id="style_css_sheet" type="text/css">
.polyStyle{fill: #cccccc;stroke-width:0;fill-rule:evenodd;}
</style>
<circle cx="3741" cy="4731" r="200" stroke="black" stroke-width="1" fill="red" id="130582" name="沙河市"/>
<circle cx="8156" cy="2236" r="200" stroke="black" stroke-width="1" fill="red" id="130581" name="南宫市"/>
<circle cx="3715" cy="1813" r="200" stroke="black" stroke-width="1" fill="red" id="130522" name="临城县"/>
<circle cx="8677" cy="4725" r="200" stroke="black" stroke-width="1" fill="red" id="130535" name="临西县"/>
<circle cx="7534" cy="4120" r="200" stroke="black" stroke-width="1" fill="red" id="130533" name="威县"/>
<circle cx="4669" cy="4039" r="200" stroke="black" stroke-width="1" fill="red" id="130527" name="南和县"/>
<circle cx="7458" cy="1383" r="200" stroke="black" stroke-width="1" fill="red" id="130530" name="新河县"/>
<circle cx="5063" cy="2265" r="200" stroke="black" stroke-width="1" fill="red" id="130525" name="隆尧县"/>
<circle cx="3811" cy="2559" r="200" stroke="black" stroke-width="1" fill="red" id="130523" name="内丘县"/>
<circle cx="6366" cy="2952" r="200" stroke="black" stroke-width="1" fill="red" id="130529" name="巨鹿县"/>
<circle cx="4625" cy="3394" r="200" stroke="black" stroke-width="1" fill="red" id="130526" name="任县"/>
<circle cx="6947" cy="3669" r="200" stroke="black" stroke-width="1" fill="red" id="130531"position="4" name="广宗县"/>
<circle cx="6362" cy="3675" r="200" stroke="black" stroke-width="1" fill="red" id="130532" name="平乡县"/>
<circle cx="4560" cy="1592" r="200" stroke="black" stroke-width="1" fill="red" id="130524" name="柏乡县"/>
<circle cx="5835" cy="938" r="200" stroke="black" stroke-width="1" fill="red" id="130528" name="宁晋县"/>
<circle cx="9513" cy="3664" r="200" stroke="black" stroke-width="1" fill="red" id="130534" name="清河县"/>
<circle cx="3770" cy="3681" r="200" stroke="black" stroke-width="1" fill="red" id="130521" name="邢台县"/>
<circle cx="3549" cy="3740" r="200" stroke="black" stroke-width="1" fill="red" id="130503" name="桥西区"/>
<circle cx="3771" cy="3721" r="200" stroke="black" stroke-width="1" fill="red" id="130502" name="桥东区"/>
<path d="" class="polyStyle" id="" style="fill:#ee8b94"/>
<path d="" class="polyStyle" id="623022" style="fill:#fbe6ef"/>
<path d="" class="polyStyle" id="211421" style="fill:#f6f67b"/>
<path d="" class="polyStyle" id="532524" style="fill:#ee8b94"/>
<path d="" class="polyStyle" id="440825" style="fill:#f6f67b"/>
<path d="" class="polyStyle" id="441721" style="fill:#f6f67b"/>
<path d="" class="polyStyle" id="450521" style="fill:#f6f67b"/>
<path d="" class="polyStyle" id="450123" style="fill:#fbe6ef"/>
<path d="" class="polyStyle" id="350624" style="fill:#f6f67b"/>
<path d="" class="polyStyle" id="" style="fill:#fbe6ef"/>
<path d="" class="polyStyle" id="451224" style="fill:#fbe6ef"/>
<path d="" class="polyStyle" id="350627" style="fill:#f6f67b"/>
<path d="" class="polyStyle" id="" style="fill:#f6f67b"/>
<path d="" class="polyStyle" id="350525" style="fill:#f6f67b"/>
<path d="" class="polyStyle" id="530124" style="fill:#ee8b94"/>
<path d="" class="polyStyle" id="522627" style="fill:#ee8b94"/>
<path d="" class="polyStyle" id="510421" style="fill:#fbe6ef"/>
<path d="" class="polyStyle" id="522623" style="fill:#d4ecb2"/>
<path d="" class="polyStyle" id="430321" style="fill:#d4ecb2"/>
<path d="" class="polyStyle" id="511129" style="fill:#d4ecb2"/>
<path d="" class="polyStyle" id="511423" style="fill:#ee8b94"/>
<path d="" class="polyStyle" id="421023" style="fill:#f6f67b"/>
<path d="" class="polyStyle" id="511724" style="fill:#f6f67b"/>
<path d="" class="polyStyle" id="420526" style="fill:#fbe6ef"/>
<path d="" class="polyStyle" id="511923" style="fill:#fbe6ef"/>
<path d="" class="polyStyle" id="420325" style="fill:#fbe6ef"/>
<path d="" class="polyStyle" id="511921" style="fill:#f6f67b"/>
<path d="" class="polyStyle" id="542525" style="fill:#f6f67b"/>
<path d="" class="polyStyle" id="611026" style="fill:#ee8b94"/>
<path d="" class="polyStyle" id="411023" style="fill:#fbe6ef"/>
<path d="" class="polyStyle" id="632323" style="fill:#f6f67b"/>
<path d="" class="polyStyle" id="140525" style="fill:#d4ecb2"/>
<path d="" class="polyStyle" id="410922" style="fill:#ee8b94"/>
<path d="" class="polyStyle" id="621027" style="fill:#ee8b94"/>
<path d="" class="polyStyle" id="130427" style="fill:#f6f67b"/>
<polygon points="9823,4321 9857,4323 9895,4332 9921,4356 9956,4380 9994,4378 10003,4378 10007,4398 10009,4404 10009,4410 10017,4416 10027,4418 10035,4422 10043,4426 10044,4428 10047,4436 10047,4456 10039,4470 10027,4486 9999,4486 9997,4508 9997,4513 9989,4516 9971,4518 9963,4518 9951,4516 9927,4510 9918,4501 9902,4510 9899,4516 9878,4543 9871,4548 9859,4555 9855,4556 9847,4560 9836,4563 9826,4567 9793,4592 9777,4603 9760,4622 9760,4625 9753,4635 9753,4638 9750,4641 9743,4658 9727,4678 9715,4702 9700,4736 9695,4743 9694,4746 9684,4762 9674,4778 9670,4782 9668,4785 9666,4788 9655,4799 9649,4815 9650,4832 9650,4840 9658,4870 9658,4885 9660,4889 9657,4901 9647,4929 9643,4940 9638,4947 9634,4952 9626,4957 9641,4972 9649,4998 9649,5004 9645,5006 9633,5006 9611,4998 9591,4990 9591,4969 9588,4970 9577,4972 9569,4971 9556,4970 9545,4970 9533,4969 9528,4970 9505,4976 9488,4984 9473,4989 9459,4995 9420,5011 9378,5026 9359,5035 9325,5058 9316,5063 9306,5066 9290,5072 9278,5077 9232,5090 9189,5101 9155,5112 9092,5153 9078,5153 9058,5152 9043,5130 9035,5122 9007,5108 8991,5106 9003,5150 8992,5150 8976,5151 8959,5154 8949,5106 8939,5106 8905,5106 8893,5108 8889,5112 8887,5116 8887,5144 8885,5152 8885,5158 8884,5169 8879,5169 8870,5165 8864,5159 8857,5159 8848,5160 8841,5169 8841,5175 8842,5188 8845,5201 8846,5209 8843,5213 8837,5214 8832,5214 8823,5210 8802,5199 8791,5196 8785,5194 8773,5189 8761,5183 8756,5182 8745,5172 8729,5164 8723,5164 8708,5165 8703,5166 8681,5178 8664,5189 8661,5192 8656,5199 8649,5214 8645,5224 8636,5234 8614,5237 8603,5240 8598,5242 8594,5246 8592,5249 8591,5253 8591,5256 8594,5264 8594,5268 8572,5260 8538,5259 8508,5255 8482,5250 8457,5246 8428,5234 8397,5221 8371,5214 8343,5210 8315,5205 8287,5199 8250,5203 8234,5214 8204,5244 8170,5233 8136,5212 8108,5216 8084,5215 8053,5201 8020,5168 7989,5135 7960,5133 7932,5130 7906,5130 7878,5130 7850,5134 7847,5134 7846,5130 7831,5101 7829,5075 7825,5046 7823,5020 7818,4991 7809,4965 7788,4937 7754,4910 7738,4882 7732,4832 7754,4802 7800,4805 7802,4770 7786,4748 7794,4720 7802,4690 7779,4662 7775,4663 7792,4637 7811,4622 7853,4639 7906,4663 7954,4671 8002,4679 8031,4670 8033,4644 8035,4619 8037,4592 8062,4570 8092,4570 8120,4564 8150,4555 8190,4534 8197,4510 8217,4500 8247,4502 8274,4484 8305,4494 8335,4499 8370,4492 8391,4471 8417,4454 8445,4431 8473,4419 8508,4429 8540,4443 8572,4456 8603,4452 8630,4441 8660,4427 8710,4396 8732,4384 8761,4358 8809,4347 8849,4349 8879,4365 8910,4375 8924,4362 8935,4336 8959,4327 9010,4337 9048,4335 9074,4327 9101,4327 9121,4361 9147,4382 9185,4382 9223,4395 9252,4398 9282,4391 9309,4404 9352,4407 9372,4408 9397,4401 9405,4377 9428,4375 9478,4375 9508,4373 9556,4355 9585,4347 9624,4336 9659,4326 9703,4317 9738,4309 9764,4317 " class="polyStyle" id="130535" style="fill:#d4ecb2"/>
<polygon points="4632,3557 4627,3584 4644,3612 4666,3630 4709,3623 4762,3603 4795,3598 4822,3619 4849,3642 4896,3653 4932,3661 4971,3663 5003,3665 5068,3680 5086,3647 5101,3617 5119,3574 5137,3554 5179,3565 5224,3558 5264,3563 5302,3553 5330,3551 5365,3556 5396,3564 5426,3569 5455,3573 5483,3574 5519,3574 5545,3573 5573,3566 5624,3561 5677,3571 5712,3585 5718,3586 5706,3599 5682,3634 5662,3668 5645,3695 5667,3703 5692,3694 5705,3711 5725,3734 5718,3757 5682,3781 5618,3842 5608,3872 5608,3915 5609,3941 5611,3972 5611,4000 5593,4019 5574,4051 5554,4084 5537,4101 5552,4117 5589,4136 5630,4145 5655,4174 5658,4201 5655,4201 5616,4206 5584,4205 5535,4212 5501,4218 5472,4223 5437,4228 5405,4248 5346,4264 5322,4291 5298,4315 5269,4348 5242,4355 5216,4379 5188,4407 5159,4418 5127,4418 5082,4413 5071,4384 5041,4375 5038,4375 4996,4374 4960,4363 4916,4356 4895,4328 4871,4307 4829,4313 4777,4339 4750,4367 4734,4409 4707,4436 4685,4452 4650,4456 4607,4449 4556,4442 4551,4447 4543,4440 4510,4427 4484,4411 4464,4385 4430,4393 4397,4390 4379,4368 4351,4357 4378,4334 4421,4300 4439,4275 4414,4255 4385,4247 4348,4233 4324,4248 4276,4260 4245,4251 4232,4219 4238,4177 4254,4149 4290,4137 4308,4134 4319,4113 4299,4089 4271,4082 4247,4087 4202,4102 4185,4091 4179,4055 4175,4027 4186,4001 4212,3981 4223,3953 4255,3928 4290,3905 4319,3873 4339,3848 4342,3816 4346,3782 4327,3744 4342,3725 4360,3715 4349,3688 4348,3661 4346,3636 4347,3602 4371,3591 4409,3568 4448,3556 4491,3532 4525,3523 4555,3514 4580,3513 4614,3522 " class="polyStyle" id="130527" style="fill:#ee8b94"/>
<polygon points="5865,3206 5898,3225 5932,3228 5967,3224 5978,3253 6013,3255 6054,3255 6083,3251 6127,3243 6159,3235 6193,3264 6205,3294 6234,3322 6280,3344 6320,3345 6345,3341 6374,3336 6402,3348 6426,3369 6451,3383 6489,3377 6526,3377 6553,3383 6561,3402 6595,3412 6625,3398 6648,3388 6680,3369 6715,3375 6731,3377 6729,3414 6740,3447 6751,3478 6741,3504 6733,3530 6736,3577 6765,3580 6781,3595 6785,3615 6760,3631 6737,3669 6723,3694 6732,3720 6761,3730 6792,3739 6797,3773 6787,3801 6764,3817 6751,3847 6753,3879 6763,3919 6779,3949 6787,3994 6788,4022 6790,4027 6801,4054 6821,4084 6837,4110 6841,4139 6831,4166 6807,4192 6788,4217 6768,4241 6748,4213 6726,4205 6717,4201 6706,4202 6629,4219 6599,4223 6570,4224 6535,4225 6504,4219 6477,4216 6434,4210 6407,4206 6376,4207 6351,4208 6315,4214 6289,4218 6263,4224 6235,4231 6209,4245 6179,4261 6153,4265 6117,4271 6091,4274 6063,4279 6058,4279 6051,4279 6021,4281 5989,4286 5948,4289 5912,4284 5882,4272 5840,4255 5808,4236 5753,4205 5724,4201 5696,4199 5658,4201 5655,4174 5630,4145 5589,4136 5552,4117 5537,4101 5554,4084 5574,4051 5593,4019 5611,4000 5611,3972 5609,3941 5608,3915 5608,3872 5618,3842 5682,3781 5718,3757 5725,3734 5705,3711 5692,3694 5667,3703 5645,3695 5662,3668 5682,3634 5706,3599 5718,3586 5749,3558 5763,3529 5775,3495 5772,3455 5764,3419 5747,3386 5729,3346 5707,3319 5688,3307 5704,3266 5726,3249 5749,3227 5757,3206 5780,3192 5802,3184 5834,3198 " class="polyStyle" id="130532" style="fill:#d4ecb2"/>
<polygon points="10017,3146 10029,3173 10025,3198 10019,3223 10019,3258 10024,3286 10040,3313 10065,3330 10090,3357 10120,3378 10145,3385 10152,3415 10163,3441 10189,3447 10215,3445 10242,3442 10274,3439 10315,3435 10343,3460 10354,3486 10351,3520 10381,3548 10384,3582 10377,3619 10372,3654 10387,3680 10431,3714 10460,3741 10428,3761 10375,3803 10360,3826 10340,3862 10328,3875 10302,3881 10284,3880 10280,3880 10276,3882 10274,3891 10277,3915 10269,3929 10265,3938 10238,3931 10224,3927 10210,3929 10202,3933 10200,3943 10204,3953 10230,3967 10242,3972 10235,3978 10211,3991 10175,3999 10164,3999 10156,4002 10153,4006 10144,4012 10142,4016 10137,4020 10135,4024 10137,4027 10132,4034 10130,4036 10128,4042 10125,4044 10121,4050 10100,4071 10096,4076 10101,4089 10130,4117 10141,4129 10115,4134 10109,4140 10107,4158 10109,4180 10115,4184 10129,4186 10149,4180 10155,4170 10163,4153 10173,4167 10183,4193 10182,4208 10178,4217 10175,4220 10174,4223 10169,4229 10162,4243 10155,4251 10153,4255 10148,4265 10141,4273 10140,4276 10128,4289 10102,4308 10091,4318 10081,4329 10075,4335 10071,4339 10065,4348 10057,4344 10043,4330 10035,4328 10019,4330 10009,4336 10007,4350 10005,4360 10003,4378 9994,4378 9956,4380 9921,4356 9895,4332 9857,4323 9823,4321 9764,4317 9738,4309 9703,4317 9659,4326 9624,4336 9585,4347 9556,4355 9508,4373 9478,4375 9428,4375 9405,4377 9397,4401 9372,4408 9352,4407 9309,4404 9282,4391 9252,4398 9223,4395 9185,4382 9147,4382 9121,4361 9101,4327 9094,4306 9098,4278 9074,4250 9053,4246 9015,4256 8987,4233 8973,4219 8968,4202 8944,4195 8962,4167 8963,4134 8948,4126 8922,4134 8894,4152 8872,4159 8833,4165 8804,4155 8791,4134 8789,4103 8793,4067 8784,4038 8764,4017 8764,3983 8799,3959 8817,3930 8829,3902 8808,3877 8824,3859 8861,3843 8883,3827 8892,3809 8877,3789 8884,3770 8920,3766 8930,3742 8919,3700 8901,3670 8902,3648 8906,3646 8911,3645 8927,3637 8940,3632 8971,3617 8983,3612 9005,3601 9020,3598 9028,3592 9038,3588 9057,3582 9069,3578 9111,3562 9128,3558 9144,3555 9153,3555 9162,3554 9171,3553 9198,3554 9205,3555 9216,3555 9247,3560 9273,3560 9285,3563 9327,3569 9358,3573 9367,3573 9373,3574 9386,3576 9397,3576 9400,3577 9411,3577 9432,3576 9448,3571 9482,3553 9504,3539 9528,3517 9534,3512 9563,3485 9568,3474 9568,3467 9566,3461 9558,3442 9553,3437 9544,3422 9541,3414 9538,3398 9538,3392 9538,3386 9543,3375 9552,3366 9588,3345 9614,3335 9622,3333 9647,3330 9671,3331 9677,3331 9681,3332 9705,3328 9721,3326 9774,3322 9782,3322 9794,3315 9824,3296 9836,3282 9838,3275 9839,3267 9829,3252 9827,3247 9816,3236 9805,3231 9804,3227 9798,3221 9797,3218 9794,3199 9797,3191 9805,3183 9819,3175 9831,3172 9853,3172 9860,3170 9884,3167 9915,3163 9921,3160 9950,3153 9955,3150 9974,3134 9990,3110 10001,3120 " class="polyStyle" id="130534" style="fill:#f6f67b"/>
<polygon points="5210,2619 5236,2628 5262,2641 5292,2653 5319,2672 5348,2692 5373,2693 5409,2687 5429,2691 5438,2704 5441,2732 5437,2729 5423,2763 5440,2796 5474,2814 5498,2831 5525,2824 5542,2815 5555,2829 5580,2849 5583,2885 5581,2930 5617,2963 5652,3002 5656,3029 5653,3059 5643,3095 5625,3131 5633,3151 5667,3172 5687,3172 5717,3160 5739,3161 5751,3178 5780,3192 5757,3206 5749,3227 5726,3249 5704,3266 5688,3307 5707,3319 5729,3346 5747,3386 5764,3419 5772,3455 5775,3495 5763,3529 5749,3558 5718,3586 5712,3585 5677,3571 5624,3561 5573,3566 5545,3573 5519,3574 5483,3574 5455,3573 5426,3569 5396,3564 5365,3556 5330,3551 5302,3553 5264,3563 5224,3558 5179,3565 5137,3554 5119,3574 5101,3617 5086,3647 5068,3680 5003,3665 4971,3663 4932,3661 4896,3653 4849,3642 4822,3619 4795,3598 4762,3603 4709,3623 4666,3630 4644,3612 4627,3584 4632,3557 4614,3522 4580,3513 4555,3514 4525,3523 4491,3532 4448,3556 4409,3568 4371,3591 4347,3602 4347,3598 4340,3561 4339,3528 4351,3500 4369,3465 4394,3440 4404,3415 4397,3381 4381,3344 4366,3321 4310,3252 4300,3223 4265,3197 4228,3189 4196,3178 4164,3171 4134,3163 4106,3151 4074,3146 4071,3147 4074,3129 4084,3101 4094,3074 4101,3045 4106,3018 4103,2985 4110,2954 4126,2932 4154,2909 4187,2889 4198,2931 4214,2971 4240,2967 4263,2945 4288,2935 4317,2935 4346,2956 4384,2972 4417,2967 4449,2967 4479,2979 4500,2998 4526,3018 4553,3024 4578,3006 4612,2972 4633,2931 4672,2921 4707,2925 4742,2917 4777,2914 4806,2893 4844,2885 4883,2893 4909,2894 4943,2863 4948,2817 4967,2776 4988,2759 5017,2741 5042,2721 5049,2691 5064,2662 5088,2634 5114,2610 5148,2607 5179,2610 " class="polyStyle" id="130526" style="fill:#f6f67b"/>
<polygon points="7584,2552 7644,2569 7702,2577 7737,2579 7774,2589 7804,2599 7847,2589 7879,2584 7902,2579 7922,2589 7939,2597 7952,2612 7982,2622 8012,2622 8069,2612 8107,2597 8152,2594 8194,2599 8232,2604 8257,2622 8269,2639 8299,2642 8339,2649 8367,2654 8382,2664 8389,2692 8372,2714 8359,2737 8377,2764 8412,2802 8417,2824 8417,2842 8454,2862 8487,2869 8514,2882 8522,2924 8542,2944 8594,2957 8629,2969 8634,2989 8609,3007 8597,3039 8572,3064 8542,3069 8507,3087 8489,3114 8489,3144 8514,3164 8547,3172 8579,3194 8589,3219 8577,3242 8542,3259 8529,3289 8539,3327 8559,3352 8579,3344 8604,3337 8632,3352 8654,3372 8667,3397 8697,3397 8734,3369 8769,3344 8792,3314 8789,3267 8792,3229 8794,3207 8804,3182 8817,3164 8839,3174 8862,3202 8884,3214 8907,3229 8912,3257 8927,3282 8957,3287 8984,3299 9007,3299 9017,3312 9012,3344 9017,3369 9034,3387 9062,3389 9064,3417 9074,3432 9059,3449 9052,3472 9054,3502 9072,3529 9057,3569 9057,3582 9038,3588 9028,3592 9020,3598 9005,3601 8983,3612 8971,3617 8940,3632 8927,3637 8911,3645 8906,3646 8902,3648 8901,3670 8919,3700 8930,3742 8920,3766 8884,3770 8877,3789 8892,3809 8883,3827 8861,3843 8824,3859 8808,3877 8829,3902 8817,3930 8799,3959 8764,3983 8764,4017 8784,4038 8793,4067 8789,4103 8791,4134 8804,4155 8833,4165 8872,4159 8894,4152 8922,4134 8948,4126 8963,4134 8962,4167 8944,4195 8968,4202 8973,4219 8987,4233 9015,4256 9053,4246 9074,4250 9098,4278 9094,4306 9101,4327 9074,4327 9048,4335 9010,4337 8959,4327 8935,4336 8924,4362 8910,4375 8879,4365 8849,4349 8809,4347 8761,4358 8732,4384 8710,4396 8660,4427 8630,4441 8603,4452 8572,4456 8540,4443 8508,4429 8473,4419 8445,4431 8417,4454 8391,4471 8370,4492 8335,4499 8305,4494 8274,4484 8247,4502 8217,4500 8197,4510 8190,4534 8150,4555 8120,4564 8092,4570 8062,4570 8037,4592 8035,4619 8033,4644 8031,4670 8002,4679 7954,4671 7906,4663 7853,4639 7811,4622 7792,4637 7775,4663 7755,4669 7726,4674 7696,4680 7660,4692 7634,4705 7607,4716 7576,4713 7533,4701 7505,4690 7479,4688 7453,4688 7426,4689 7396,4688 7365,4687 7340,4688 7312,4688 7284,4688 7260,4683 7288,4657 7313,4644 7331,4616 7330,4578 7317,4549 7287,4535 7274,4511 7292,4494 7328,4492 7357,4483 7392,4487 7424,4482 7451,4465 7440,4448 7457,4409 7482,4387 7487,4360 7461,4343 7435,4330 7404,4322 7378,4320 7349,4315 7320,4312 7292,4324 7263,4315 7228,4309 7213,4301 7222,4281 7248,4276 7284,4276 7319,4271 7345,4270 7380,4271 7405,4273 7425,4264 7440,4243 7440,4214 7433,4190 7406,4183 7395,4170 7400,4147 7413,4134 7446,4130 7450,4111 7444,4075 7413,4064 7409,4039 7420,4015 7395,4006 7370,3996 7324,3979 7319,3958 7339,3947 7363,3939 7403,3955 7439,3953 7468,3934 7478,3916 7490,3898 7507,3874 7536,3845 7547,3798 7548,3759 7544,3724 7558,3703 7581,3693 7580,3659 7566,3623 7572,3590 7599,3560 7614,3534 7619,3506 7605,3486 7587,3465 7587,3440 7564,3429 7552,3451 7541,3488 7520,3508 7484,3528 7453,3518 7438,3490 7420,3452 7386,3435 7370,3415 7369,3376 7381,3347 7393,3321 7367,3330 7339,3328 7314,3308 7300,3280 7311,3258 7337,3229 7350,3199 7350,3175 7338,3135 7346,3106 7376,3082 7404,3074 7431,3072 7468,3073 7520,3064 7524,3029 7541,3004 7579,3000 7622,3008 7649,3002 7683,2983 7693,2965 7661,2951 7637,2926 7608,2898 7591,2871 7587,2844 7579,2819 7544,2771 7521,2745 7513,2724 7541,2715 7572,2704 7593,2673 7597,2644 7566,2620 7508,2616 7503,2585 7494,2545 7534,2549 " class="polyStyle" id="130533" style="fill:#ee8b94"/>
<polygon points="7394,2532 7424,2539 7479,2544 7494,2545 7503,2585 7508,2616 7566,2620 7597,2644 7593,2673 7572,2704 7541,2715 7513,2724 7521,2745 7544,2771 7579,2819 7587,2844 7591,2871 7608,2898 7637,2926 7661,2951 7693,2965 7683,2983 7649,3002 7622,3008 7579,3000 7541,3004 7524,3029 7520,3064 7468,3073 7431,3072 7404,3074 7376,3082 7346,3106 7338,3135 7350,3175 7350,3199 7337,3229 7311,3258 7300,3280 7314,3308 7339,3328 7367,3330 7393,3321 7381,3347 7369,3376 7370,3415 7386,3435 7420,3452 7438,3490 7453,3518 7484,3528 7520,3508 7541,3488 7552,3451 7564,3429 7587,3440 7587,3465 7605,3486 7619,3506 7614,3534 7599,3560 7572,3590 7566,3623 7580,3659 7581,3693 7558,3703 7544,3724 7548,3759 7547,3798 7536,3845 7507,3874 7490,3898 7478,3916 7468,3934 7439,3953 7403,3955 7363,3939 7339,3947 7319,3958 7324,3979 7370,3996 7395,4006 7420,4015 7409,4039 7413,4064 7444,4075 7450,4111 7446,4130 7413,4134 7400,4147 7395,4170 7406,4183 7433,4190 7440,4214 7440,4243 7425,4264 7405,4273 7380,4271 7345,4270 7319,4271 7284,4276 7248,4276 7222,4281 7213,4301 7228,4309 7263,4315 7292,4324 7320,4312 7349,4315 7378,4320 7404,4322 7435,4330 7461,4343 7487,4360 7482,4387 7457,4409 7440,4448 7451,4465 7424,4482 7392,4487 7357,4483 7328,4492 7292,4494 7274,4511 7287,4535 7317,4549 7330,4578 7331,4616 7313,4644 7288,4657 7260,4683 7233,4678 7203,4676 7174,4694 7146,4710 7129,4737 7100,4753 7071,4755 7043,4754 7011,4751 7014,4722 7024,4694 7035,4662 7035,4617 7020,4586 7022,4558 6990,4532 6964,4533 6933,4534 6902,4529 6870,4518 6841,4504 6812,4483 6784,4470 6759,4442 6743,4413 6737,4388 6764,4369 6790,4363 6825,4351 6828,4323 6817,4296 6790,4273 6771,4247 6768,4241 6788,4217 6807,4192 6831,4166 6841,4139 6837,4110 6821,4084 6801,4054 6790,4027 6788,4022 6787,3994 6779,3949 6763,3919 6753,3879 6751,3847 6764,3817 6787,3801 6797,3773 6792,3739 6761,3730 6732,3720 6723,3694 6737,3669 6760,3631 6785,3615 6781,3595 6765,3580 6736,3577 6733,3530 6741,3504 6751,3478 6740,3447 6729,3414 6731,3377 6754,3368 6786,3341 6781,3312 6782,3281 6785,3250 6773,3221 6782,3198 6815,3189 6833,3165 6823,3138 6792,3120 6784,3094 6794,3064 6813,3029 6842,3017 6871,3026 6893,3014 6902,2989 6922,2983 6959,2988 6995,2977 7021,2968 7048,2970 7081,2952 7100,2930 7084,2897 7046,2879 7023,2895 6990,2893 6961,2882 6921,2850 6940,2825 6951,2796 6938,2760 6957,2748 6983,2742 7015,2739 7050,2750 7080,2746 7095,2719 7100,2696 7113,2677 7152,2682 7175,2696 7212,2708 7241,2711 7274,2712 7307,2699 7334,2678 7357,2659 7366,2629 7362,2601 7334,2592 7301,2568 7283,2554 7288,2541 7309,2524 7339,2504 7357,2492 7379,2487 7392,2509 " class="polyStyle" id="130531" style="fill:#f6f67b"/>
<polygon points="1042,2218 1076,2228 1103,2231 1131,2236 1166,2256 1197,2264 1239,2265 1280,2276 1309,2284 1330,2295 1360,2329 1403,2361 1430,2379 1460,2407 1503,2424 1542,2428 1575,2418 1614,2421 1649,2437 1686,2434 1722,2427 1751,2414 1777,2409 1814,2410 1840,2425 1869,2415 1908,2404 1936,2394 1970,2377 1997,2365 2030,2337 2058,2340 2088,2358 2116,2380 2149,2409 2167,2458 2156,2486 2192,2520 2221,2500 2249,2488 2275,2488 2305,2483 2334,2462 2361,2447 2384,2440 2395,2459 2395,2498 2399,2528 2409,2565 2426,2599 2443,2634 2471,2659 2493,2685 2512,2720 2544,2744 2550,2746 2583,2751 2628,2757 2664,2767 2698,2765 2731,2754 2768,2751 2808,2763 2837,2762 2868,2756 2895,2763 2920,2771 2948,2785 2976,2800 3006,2815 3037,2821 3067,2838 3093,2853 3110,2893 3099,2917 3126,2927 3163,2916 3203,2929 3223,2950 3236,2988 3249,3010 3267,3032 3297,3073 3322,3102 3356,3098 3388,3091 3414,3101 3446,3110 3483,3114 3519,3106 3544,3108 3570,3121 3585,3149 3605,3171 3648,3172 3673,3175 3700,3182 3732,3193 3772,3215 3807,3205 3829,3184 3863,3170 3891,3154 3912,3138 3950,3137 4001,3156 4041,3156 4071,3147 4074,3146 4106,3151 4134,3163 4164,3171 4196,3178 4228,3189 4265,3197 4300,3223 4310,3252 4366,3321 4381,3344 4397,3381 4404,3415 4394,3440 4369,3465 4351,3500 4339,3528 4340,3561 4347,3598 4347,3602 4346,3636 4348,3661 4349,3688 4360,3715 4342,3725 4327,3744 4346,3782 4342,3816 4339,3848 4319,3873 4290,3905 4255,3928 4223,3953 4212,3981 4186,4001 4175,4027 4125,4026 4087,4034 4051,4031 4026,4034 4002,4038 3985,4036 3984,4017 3966,4012 3951,4000 3931,4003 3897,3999 3875,4001 3875,4021 3866,4039 3842,4044 3836,4059 3812,4060 3809,4036 3801,4025 3784,4033 3764,4036 3749,4045 3746,4028 3746,4005 3751,3983 3757,3960 3767,3948 3781,3948 3776,3937 3766,3927 3771,3908 3784,3907 3791,3893 3809,3900 3839,3902 3861,3900 3851,3892 3832,3890 3827,3880 3812,3877 3814,3862 3827,3855 3814,3845 3802,3837 3812,3815 3827,3822 3826,3803 3827,3787 3836,3792 3849,3788 3864,3782 3879,3782 3896,3782 3909,3760 3911,3743 3916,3728 3929,3727 3944,3733 3946,3718 3929,3710 3929,3700 3941,3700 3957,3700 3957,3687 3952,3673 3939,3668 3921,3672 3912,3668 3906,3657 3894,3648 3899,3637 3904,3622 3909,3602 3902,3583 3879,3582 3857,3588 3827,3597 3829,3568 3831,3542 3824,3532 3817,3547 3807,3550 3792,3552 3777,3562 3757,3572 3742,3575 3717,3565 3713,3564 3696,3563 3684,3548 3652,3537 3647,3528 3642,3508 3621,3490 3614,3473 3612,3462 3634,3457 3639,3445 3634,3425 3621,3417 3604,3410 3587,3415 3586,3428 3592,3438 3596,3448 3572,3447 3561,3435 3549,3437 3537,3438 3526,3423 3516,3425 3514,3440 3494,3445 3457,3455 3427,3457 3404,3460 3406,3473 3399,3472 3387,3458 3372,3430 3361,3405 3346,3400 3324,3400 3299,3405 3272,3407 3247,3415 3226,3428 3219,3445 3207,3448 3204,3463 3212,3497 3232,3508 3267,3518 3307,3527 3329,3542 3334,3570 3341,3583 3362,3590 3366,3603 3371,3608 3382,3607 3391,3608 3392,3617 3384,3622 3382,3632 3376,3648 3357,3653 3341,3650 3334,3665 3324,3670 3309,3667 3301,3677 3286,3685 3292,3700 3306,3707 3324,3707 3339,3713 3344,3727 3361,3728 3362,3748 3356,3762 3357,3772 3371,3790 3381,3807 3384,3833 3386,3852 3386,3867 3372,3872 3366,3885 3357,3888 3344,3887 3344,3875 3327,3880 3322,3892 3316,3905 3309,3920 3307,3937 3301,3948 3287,3960 3299,3970 3292,3990 3281,4002 3272,4012 3257,4020 3236,4020 3227,4030 3226,4048 3231,4067 3247,4070 3247,4082 3257,4078 3272,4078 3266,4097 3271,4110 3262,4127 3251,4140 3237,4158 3236,4175 3227,4180 3221,4170 3207,4170 3199,4181 3160,4169 3127,4171 3069,4173 3016,4170 2984,4167 2955,4168 2917,4164 2888,4164 2845,4164 2816,4161 2785,4157 2738,4154 2697,4156 2639,4159 2605,4159 2571,4154 2546,4151 2514,4150 2468,4153 2425,4159 2399,4160 2362,4155 2330,4141 2321,4114 2334,4086 2349,4053 2366,4027 2362,4022 2369,3992 2374,3963 2375,3931 2375,3903 2375,3874 2370,3842 2344,3850 2314,3854 2285,3870 2242,3895 2211,3911 2177,3922 2145,3916 2116,3904 2073,3891 2039,3892 1994,3902 1967,3913 1944,3951 1930,3995 1920,4027 1933,4056 1932,4086 1912,4107 1877,4103 1851,4080 1823,4076 1794,4061 1767,4064 1732,4053 1720,4027 1699,4009 1672,3981 1640,3969 1607,3975 1583,3983 1548,3998 1523,4020 1490,4012 1475,3998 1448,3980 1413,3972 1377,3968 1346,3945 1333,3905 1300,3880 1274,3879 1239,3880 1233,3867 1224,3836 1195,3838 1160,3832 1131,3830 1086,3823 1056,3797 1025,3792 999,3793 972,3787 939,3786 904,3787 868,3783 837,3787 804,3803 784,3798 762,3792 756,3790 716,3790 684,3799 657,3807 631,3827 597,3852 582,3883 572,3903 565,3919 554,3925 524,3937 498,3952 457,3972 448,3976 423,3985 395,3987 360,3974 326,3965 297,3974 265,3996 239,4017 214,4047 214,4044 166,4038 130,4026 108,4016 80,3998 50,3978 40,3962 40,3942 50,3922 84,3868 148,3796 184,3774 128,3730 104,3742 84,3736 62,3724 36,3706 24,3696 10,3680 2,3660 2,3642 6,3636 22,3618 24,3600 16,3592 4,3582 0,3566 2,3554 62,3530 72,3522 74,3510 72,3502 50,3478 42,3460 50,3450 72,3430 66,3388 58,3324 66,3268 70,3264 82,3258 94,3254 108,3252 112,3254 132,3266 152,3270 182,3268 214,3264 220,3238 222,3214 234,3208 270,3196 290,3188 314,3180 348,3164 362,3146 362,3126 364,3102 374,3086 394,3068 412,3050 472,2986 510,2942 534,2908 550,2866 558,2840 566,2818 582,2808 608,2792 616,2764 622,2748 622,2724 626,2710 640,2680 650,2668 672,2652 694,2646 710,2648 722,2642 718,2632 710,2606 698,2578 688,2512 688,2500 688,2488 692,2476 696,2468 740,2428 772,2394 780,2376 790,2354 796,2338 812,2308 820,2304 834,2298 852,2294 890,2294 902,2310 914,2326 934,2340 966,2304 978,2286 980,2256 974,2210 974,2183 1016,2195 " class="polyStyle" id="130521" style="fill:#fbe6ef"/>
<polygon points="6849,1922 6879,1934 6902,1947 6929,1937 6965,1951 6992,1977 7004,2004 6993,2032 6995,2053 7027,2062 7051,2056 7073,2043 7082,2004 7098,1987 7127,1987 7146,2003 7164,2042 7160,2071 7157,2120 7155,2154 7157,2185 7164,2214 7175,2235 7149,2247 7119,2240 7081,2248 7060,2283 7064,2331 7076,2342 7104,2345 7166,2346 7187,2334 7206,2345 7227,2361 7235,2388 7244,2418 7253,2444 7223,2445 7204,2458 7195,2487 7200,2524 7206,2548 7217,2568 7245,2566 7280,2563 7283,2554 7301,2568 7334,2592 7362,2601 7366,2629 7357,2659 7334,2678 7307,2699 7274,2712 7241,2711 7212,2708 7175,2696 7152,2682 7113,2677 7100,2696 7095,2719 7080,2746 7050,2750 7015,2739 6983,2742 6957,2748 6938,2760 6951,2796 6940,2825 6921,2850 6961,2882 6990,2893 7023,2895 7046,2879 7084,2897 7100,2930 7081,2952 7048,2970 7021,2968 6995,2977 6959,2988 6922,2983 6902,2989 6893,3014 6871,3026 6842,3017 6813,3029 6794,3064 6784,3094 6792,3120 6823,3138 6833,3165 6815,3189 6782,3198 6773,3221 6785,3250 6782,3281 6781,3312 6786,3341 6754,3368 6731,3377 6715,3375 6680,3369 6648,3388 6625,3398 6595,3412 6561,3402 6553,3383 6526,3377 6489,3377 6451,3383 6426,3369 6402,3348 6374,3336 6345,3341 6320,3345 6280,3344 6234,3322 6205,3294 6193,3264 6159,3235 6127,3243 6083,3251 6054,3255 6013,3255 5978,3253 5967,3224 5932,3228 5898,3225 5865,3206 5834,3198 5802,3184 5780,3192 5751,3178 5739,3161 5717,3160 5687,3172 5667,3172 5633,3151 5625,3131 5643,3095 5653,3059 5656,3029 5652,3002 5617,2963 5581,2930 5583,2885 5580,2849 5555,2829 5542,2815 5525,2824 5498,2831 5474,2814 5440,2796 5423,2763 5437,2729 5441,2732 5474,2754 5499,2762 5537,2759 5562,2752 5577,2742 5579,2732 5574,2717 5559,2704 5539,2699 5524,2687 5544,2677 5559,2649 5582,2644 5607,2657 5639,2662 5674,2649 5702,2629 5724,2619 5749,2614 5772,2602 5797,2597 5819,2597 5842,2597 5862,2589 5872,2559 5869,2524 5874,2497 5899,2492 5929,2487 5957,2479 5972,2462 5972,2452 5957,2444 5942,2432 5937,2402 5929,2372 5934,2349 5942,2327 5959,2312 5982,2299 6002,2299 5994,2317 5979,2339 5969,2357 5982,2374 6014,2387 6042,2392 6059,2397 6069,2369 6062,2344 6054,2322 6062,2302 6089,2272 6104,2239 6104,2204 6119,2182 6142,2162 6162,2159 6192,2137 6222,2117 6257,2097 6294,2074 6312,2034 6314,2004 6303,1969 6310,1971 6310,1952 6314,1935 6327,1929 6352,1931 6383,1944 6401,1949 6442,1964 6502,1972 6515,1992 6520,2022 6520,2049 6545,2039 6592,2034 6635,2037 6670,2044 6702,2049 6732,2037 6757,2032 6760,2002 6760,1979 6772,1964 6777,1939 6783,1919 6817,1922 " class="polyStyle" id="130529" style="fill:#ee8b94"/>
<polygon points="1597,1834 1622,1839 1627,1866 1648,1894 1689,1909 1718,1917 1747,1919 1772,1921 1798,1927 1826,1962 1859,1975 1890,1979 1918,1996 1938,2035 1954,2065 1978,2091 2014,2088 2036,2092 2050,2117 2058,2140 2063,2175 2078,2207 2107,2222 2145,2212 2182,2195 2211,2192 2239,2184 2273,2193 2307,2218 2341,2231 2370,2243 2396,2256 2413,2259 2425,2237 2410,2202 2428,2190 2415,2155 2412,2134 2439,2110 2438,2075 2448,2043 2465,2009 2494,1996 2524,2002 2552,1994 2569,2004 2591,2018 2605,2038 2632,2062 2660,2086 2693,2096 2728,2107 2757,2119 2790,2130 2819,2140 2845,2146 2875,2157 2900,2155 2928,2139 2956,2130 2987,2147 3029,2158 3040,2181 3047,2210 3053,2237 3083,2241 3115,2250 3125,2277 3163,2295 3211,2288 3243,2291 3262,2266 3270,2231 3283,2199 3291,2181 3298,2151 3328,2122 3365,2114 3398,2132 3409,2161 3436,2166 3464,2168 3491,2194 3497,2199 3528,2232 3543,2259 3572,2283 3604,2291 3639,2282 3661,2257 3692,2234 3711,2217 3744,2203 3758,2175 3784,2156 3817,2143 3844,2138 3872,2138 3903,2140 3935,2146 3961,2147 3999,2147 4037,2136 4046,2131 4064,2123 4106,2109 4133,2105 4162,2103 4191,2117 4213,2144 4258,2158 4283,2177 4282,2215 4262,2240 4220,2262 4189,2277 4140,2295 4114,2308 4095,2343 4100,2372 4112,2406 4128,2432 4164,2456 4181,2485 4212,2517 4250,2521 4297,2532 4336,2539 4368,2548 4403,2568 4441,2589 4436,2608 4406,2643 4386,2674 4369,2701 4348,2716 4305,2725 4280,2738 4270,2764 4248,2802 4218,2830 4206,2858 4196,2884 4187,2889 4154,2909 4126,2932 4110,2954 4103,2985 4106,3018 4101,3045 4094,3074 4084,3101 4074,3129 4071,3147 4041,3156 4001,3156 3950,3137 3912,3138 3891,3154 3863,3170 3829,3184 3807,3205 3772,3215 3732,3193 3700,3182 3673,3175 3648,3172 3605,3171 3585,3149 3570,3121 3544,3108 3519,3106 3483,3114 3446,3110 3414,3101 3388,3091 3356,3098 3322,3102 3297,3073 3267,3032 3249,3010 3236,2988 3223,2950 3203,2929 3163,2916 3126,2927 3099,2917 3110,2893 3093,2853 3067,2838 3037,2821 3006,2815 2976,2800 2948,2785 2920,2771 2895,2763 2868,2756 2837,2762 2808,2763 2768,2751 2731,2754 2698,2765 2664,2767 2628,2757 2583,2751 2550,2746 2544,2744 2512,2720 2493,2685 2471,2659 2443,2634 2426,2599 2409,2565 2399,2528 2395,2498 2395,2459 2384,2440 2361,2447 2334,2462 2305,2483 2275,2488 2249,2488 2221,2500 2192,2520 2156,2486 2167,2458 2149,2409 2116,2380 2088,2358 2058,2340 2030,2337 1997,2365 1970,2377 1936,2394 1908,2404 1869,2415 1840,2425 1814,2410 1777,2409 1751,2414 1722,2427 1686,2434 1649,2437 1614,2421 1575,2418 1542,2428 1503,2424 1460,2407 1430,2379 1403,2361 1360,2329 1330,2295 1309,2284 1280,2276 1239,2265 1197,2264 1166,2256 1131,2236 1103,2231 1076,2228 1042,2218 1016,2195 974,2183 974,2146 978,2130 986,2116 1024,2080 1056,2046 1076,2018 1108,1972 1134,1946 1190,1920 1226,1908 1286,1870 1310,1838 1312,1823 1379,1841 1412,1847 1445,1838 1470,1810 1496,1787 1566,1835 " class="polyStyle" id="130523" style="fill:#ee8b94"/>
<polygon points="5190,1367 5195,1393 5228,1402 5255,1431 5285,1441 5319,1437 5347,1434 5378,1435 5410,1470 5419,1496 5428,1530 5444,1564 5475,1579 5505,1607 5535,1628 5530,1650 5540,1674 5578,1680 5610,1681 5630,1696 5669,1701 5702,1682 5730,1671 5757,1664 5770,1679 5747,1702 5720,1726 5681,1745 5639,1754 5602,1768 5577,1765 5558,1747 5533,1735 5504,1724 5488,1705 5462,1703 5428,1701 5399,1704 5409,1717 5429,1724 5440,1739 5499,1751 5530,1766 5545,1778 5572,1797 5592,1791 5631,1789 5676,1791 5713,1773 5750,1784 5793,1797 5833,1802 5863,1810 5901,1813 5950,1813 5985,1810 6017,1812 6040,1822 6066,1835 6093,1838 6128,1853 6137,1877 6178,1888 6204,1911 6220,1931 6233,1953 6270,1959 6291,1967 6303,1969 6314,2004 6312,2034 6294,2074 6257,2097 6222,2117 6192,2137 6162,2159 6142,2162 6119,2182 6104,2204 6104,2239 6089,2272 6062,2302 6054,2322 6062,2344 6069,2369 6059,2397 6042,2392 6014,2387 5982,2374 5969,2357 5979,2339 5994,2317 6002,2299 5982,2299 5959,2312 5942,2327 5934,2349 5929,2372 5937,2402 5942,2432 5957,2444 5972,2452 5972,2462 5957,2479 5929,2487 5899,2492 5874,2497 5869,2524 5872,2559 5862,2589 5842,2597 5819,2597 5797,2597 5772,2602 5749,2614 5724,2619 5702,2629 5674,2649 5639,2662 5607,2657 5582,2644 5559,2649 5544,2677 5524,2687 5539,2699 5559,2704 5574,2717 5579,2732 5577,2742 5562,2752 5537,2759 5499,2762 5474,2754 5441,2732 5438,2704 5429,2691 5409,2687 5373,2693 5348,2692 5319,2672 5292,2653 5262,2641 5236,2628 5210,2619 5179,2610 5148,2607 5114,2610 5088,2634 5064,2662 5049,2691 5042,2721 5017,2741 4988,2759 4967,2776 4948,2817 4943,2863 4909,2894 4883,2893 4844,2885 4806,2893 4777,2914 4742,2917 4707,2925 4672,2921 4633,2931 4612,2972 4578,3006 4553,3024 4526,3018 4500,2998 4479,2979 4449,2967 4417,2967 4384,2972 4346,2956 4317,2935 4288,2935 4263,2945 4240,2967 4214,2971 4198,2931 4187,2889 4196,2884 4206,2858 4218,2830 4248,2802 4270,2764 4280,2738 4305,2725 4348,2716 4369,2701 4386,2674 4406,2643 4436,2608 4441,2589 4403,2568 4368,2548 4336,2539 4297,2532 4250,2521 4212,2517 4181,2485 4164,2456 4128,2432 4112,2406 4100,2372 4095,2343 4114,2308 4140,2295 4189,2277 4220,2262 4262,2240 4282,2215 4283,2177 4258,2158 4213,2144 4191,2117 4162,2103 4133,2105 4106,2109 4064,2123 4046,2131 4027,2104 4020,2081 4010,2056 4010,2021 4007,1996 4015,1976 4042,1956 4072,1966 4100,1974 4135,1964 4162,1966 4197,1964 4220,1968 4262,1954 4270,1945 4303,1960 4329,1978 4358,1994 4391,1997 4420,2000 4455,1999 4481,1985 4494,1956 4498,1920 4535,1902 4579,1887 4609,1882 4647,1870 4673,1862 4714,1864 4758,1867 4784,1882 4821,1901 4867,1912 4917,1907 4945,1885 4972,1864 4997,1852 5042,1851 5050,1827 5040,1794 4996,1772 4977,1749 4965,1723 4969,1691 4998,1667 5031,1673 5066,1649 5080,1618 5089,1591 5117,1591 5136,1568 5122,1540 5108,1521 5089,1500 5099,1479 5117,1442 5106,1404 5092,1362 5099,1321 5121,1299 5152,1300 5179,1298 5190,1326 " class="polyStyle" id="130525" style="fill:#fbe6ef"/>
<polygon points="7471,1139 7509,1145 7539,1151 7573,1154 7612,1159 7634,1172 7651,1209 7670,1228 7727,1228 7767,1242 7788,1266 7810,1286 7834,1315 7850,1338 7885,1357 7920,1368 7953,1397 7976,1413 8003,1418 8002,1388 7988,1356 8014,1334 8001,1303 8005,1270 8003,1241 8031,1234 8040,1260 8052,1289 8073,1315 8106,1329 8134,1334 8163,1339 8192,1348 8223,1349 8250,1370 8254,1398 8259,1433 8275,1447 8310,1472 8332,1486 8367,1496 8394,1500 8421,1513 8448,1518 8473,1530 8436,1546 8395,1549 8367,1543 8335,1539 8296,1524 8255,1508 8219,1517 8201,1541 8221,1563 8274,1591 8331,1613 8365,1631 8341,1646 8294,1638 8263,1637 8260,1659 8304,1662 8338,1668 8360,1687 8330,1693 8303,1696 8270,1698 8238,1707 8192,1720 8166,1676 8137,1678 8101,1690 8118,1725 8102,1740 8071,1736 8036,1721 8006,1725 7980,1731 7953,1750 7931,1777 7933,1791 7916,1795 7889,1798 7855,1792 7828,1817 7787,1823 7751,1835 7746,1873 7772,1900 7801,1927 7784,1963 7818,1989 7817,2014 7779,2018 7738,2015 7711,2003 7686,1985 7666,1961 7662,1936 7683,1910 7698,1884 7686,1864 7657,1855 7628,1859 7598,1887 7565,1887 7523,1868 7506,1845 7456,1834 7427,1842 7398,1866 7356,1864 7316,1860 7283,1841 7255,1832 7216,1837 7186,1867 7164,1891 7142,1931 7118,1929 7093,1950 7056,1936 7017,1935 6989,1933 6973,1917 6958,1928 6929,1937 6902,1947 6879,1934 6849,1922 6817,1922 6783,1919 6786,1912 6769,1891 6766,1865 6745,1841 6706,1850 6667,1849 6617,1846 6601,1816 6621,1768 6635,1725 6651,1691 6666,1658 6683,1628 6705,1599 6733,1577 6749,1550 6727,1521 6697,1499 6687,1470 6692,1438 6702,1417 6731,1411 6769,1416 6803,1415 6849,1404 6873,1381 6891,1358 6905,1324 6932,1322 6962,1324 6996,1327 7025,1324 7052,1322 7067,1283 7087,1260 7117,1240 7147,1220 7180,1201 7208,1192 7201,1219 7202,1238 7228,1249 7285,1244 7312,1232 7324,1214 7336,1182 7363,1158 7389,1140 7415,1134 7442,1135 " class="polyStyle" id="130530" style="fill:#f6f67b"/>
<polygon points="5007,918 5034,932 5048,939 5056,967 5066,996 5074,1027 5080,1060 5090,1096 5104,1128 5120,1166 5117,1207 5117,1244 5131,1253 5152,1287 5152,1300 5121,1299 5099,1321 5092,1362 5106,1404 5117,1442 5099,1479 5089,1500 5108,1521 5122,1540 5136,1568 5117,1591 5089,1591 5080,1618 5066,1649 5031,1673 4998,1667 4969,1691 4965,1723 4977,1749 4996,1772 5040,1794 5050,1827 5042,1851 4997,1852 4972,1864 4945,1885 4917,1907 4867,1912 4821,1901 4784,1882 4758,1867 4714,1864 4673,1862 4647,1870 4609,1882 4579,1887 4535,1902 4498,1920 4494,1956 4481,1985 4455,1999 4420,2000 4391,1997 4358,1994 4329,1978 4303,1960 4270,1945 4283,1931 4308,1910 4331,1892 4343,1868 4313,1861 4316,1840 4317,1812 4320,1785 4314,1750 4293,1725 4289,1718 4266,1696 4270,1671 4291,1639 4308,1608 4309,1586 4279,1586 4235,1579 4227,1552 4228,1521 4241,1497 4239,1473 4239,1453 4233,1428 4226,1386 4226,1350 4221,1302 4218,1259 4230,1255 4267,1256 4298,1258 4332,1257 4362,1252 4411,1246 4449,1247 4522,1236 4575,1222 4613,1212 4640,1202 4658,1166 4675,1137 4667,1084 4670,1055 4678,1011 4705,978 4741,950 4804,935 4829,916 4856,908 4889,911 4920,908 4947,908 4974,910 " class="polyStyle" id="130524" style="fill:#ee8b94"/>
<polygon points="6816,9 6850,22 6885,23 6915,22 6918,23 6949,32 6955,34 6985,69 6998,105 6992,131 6956,149 6943,174 6940,180 6949,199 6981,209 7007,225 7034,245 7062,260 7104,267 7165,271 7212,293 7248,315 7307,333 7337,353 7377,372 7407,375 7429,404 7429,430 7429,458 7431,486 7449,513 7475,537 7498,566 7509,599 7516,634 7514,662 7502,690 7481,721 7488,749 7482,781 7489,807 7492,809 7481,811 7456,816 7428,813 7402,807 7374,797 7347,798 7321,807 7293,817 7251,820 7221,819 7191,821 7195,850 7203,881 7178,902 7171,927 7175,956 7174,983 7163,1001 7093,1028 7080,1048 7107,1065 7137,1091 7152,1134 7180,1136 7210,1156 7209,1184 7208,1192 7180,1201 7147,1220 7117,1240 7087,1260 7067,1283 7052,1322 7025,1324 6996,1327 6962,1324 6932,1322 6905,1324 6891,1358 6873,1381 6849,1404 6803,1415 6769,1416 6731,1411 6702,1417 6692,1438 6687,1470 6697,1499 6727,1521 6749,1550 6733,1577 6705,1599 6683,1628 6666,1658 6651,1691 6635,1725 6621,1768 6601,1816 6617,1846 6667,1849 6706,1850 6745,1841 6766,1865 6769,1891 6786,1912 6783,1919 6777,1939 6772,1964 6760,1979 6760,2002 6757,2032 6732,2037 6702,2049 6670,2044 6635,2037 6592,2034 6545,2039 6520,2049 6520,2022 6515,1992 6502,1972 6442,1964 6401,1949 6383,1944 6352,1931 6327,1929 6314,1935 6310,1952 6310,1971 6303,1969 6291,1967 6270,1959 6233,1953 6220,1931 6204,1911 6178,1888 6137,1877 6128,1853 6093,1838 6066,1835 6040,1822 6017,1812 5985,1810 5950,1813 5901,1813 5863,1810 5833,1802 5793,1797 5750,1784 5713,1773 5676,1791 5631,1789 5592,1791 5572,1797 5545,1778 5530,1766 5499,1751 5440,1739 5429,1724 5409,1717 5399,1704 5428,1701 5462,1703 5488,1705 5504,1724 5533,1735 5558,1747 5577,1765 5602,1768 5639,1754 5681,1745 5720,1726 5747,1702 5770,1679 5757,1664 5730,1671 5702,1682 5669,1701 5630,1696 5610,1681 5578,1680 5540,1674 5530,1650 5535,1628 5505,1607 5475,1579 5444,1564 5428,1530 5419,1496 5410,1470 5378,1435 5347,1434 5319,1437 5285,1441 5255,1431 5228,1402 5195,1393 5190,1367 5190,1326 5179,1298 5152,1300 5152,1287 5131,1253 5117,1244 5117,1207 5120,1166 5104,1128 5090,1096 5080,1060 5074,1027 5066,996 5056,967 5048,939 5079,915 5109,889 5159,891 5191,893 5217,878 5217,843 5218,817 5228,790 5243,762 5259,734 5288,712 5317,699 5344,686 5373,670 5395,644 5405,610 5419,583 5442,557 5484,551 5512,551 5535,527 5555,500 5584,481 5613,458 5660,462 5693,463 5720,431 5748,407 5785,390 5814,396 5856,385 5875,398 5886,420 5933,428 5980,420 6009,417 6044,400 6077,384 6110,370 6138,364 6176,365 6203,367 6232,337 6254,305 6281,282 6315,301 6343,309 6373,333 6406,342 6444,338 6485,335 6517,329 6544,309 6549,273 6536,222 6550,175 6552,137 6553,109 6554,104 6585,91 6624,83 6660,64 6670,39 6701,10 6727,2 6760,0 6785,1 " class="polyStyle" id="130528" style="fill:#d4ecb2"/>
<path d="" class="polyStyle" id="130121" style="fill:#ee8b94"/>
<path d="" class="polyStyle" id="610823" style="fill:#fbe6ef"/>
<path d="" class="polyStyle" id="130225" style="fill:#fbe6ef"/>
<path d="" class="polyStyle" id="130322" style="fill:#d4ecb2"/>
<path d="" class="polyStyle" id="653130" style="fill:#f6f67b"/>
<path d="" class="polyStyle" id="130822" style="fill:#fbe6ef"/>
<path d="" class="polyStyle" id="211221" style="fill:#f6f67b"/>
<path d="" class="polyStyle" id="210921" style="fill:#f6f67b"/>
<path d="" class="polyStyle" id="150223" style="fill:#f8c67d"/>
<path d="" class="polyStyle" id="220422" style="fill:#d4ecb2"/>
<path d="" class="polyStyle" id="340721" style="fill:#f6f67b"/>
<path d="" class="polyStyle" id="510824" style="fill:#d4ecb2"/>
<polygon points="3471,1147 3473,1146 3488,1139 3516,1139 3562,1143 3598,1148 3625,1141 3651,1135 3688,1128 3715,1126 3754,1138 3785,1148 3816,1159 3842,1164 3872,1175 3898,1183 3929,1201 3960,1216 3999,1230 4029,1242 4065,1257 4094,1266 4123,1276 4158,1285 4194,1288 4207,1263 4218,1259 4221,1302 4226,1350 4226,1386 4233,1428 4239,1453 4239,1473 4241,1497 4228,1521 4227,1552 4235,1579 4279,1586 4309,1586 4308,1608 4291,1639 4270,1671 4266,1696 4289,1718 4293,1725 4314,1750 4320,1785 4317,1812 4316,1840 4313,1861 4343,1868 4331,1892 4308,1910 4283,1931 4270,1945 4262,1954 4220,1968 4197,1964 4162,1966 4135,1964 4100,1974 4072,1966 4042,1956 4015,1976 4007,1996 4010,2021 4010,2056 4020,2081 4027,2104 4046,2131 4037,2136 3999,2147 3961,2147 3935,2146 3903,2140 3872,2138 3844,2138 3817,2143 3784,2156 3758,2175 3744,2203 3711,2217 3692,2234 3661,2257 3639,2282 3604,2291 3572,2283 3543,2259 3528,2232 3497,2199 3491,2194 3464,2168 3436,2166 3409,2161 3398,2132 3365,2114 3328,2122 3298,2151 3291,2181 3283,2199 3270,2231 3262,2266 3243,2291 3211,2288 3163,2295 3125,2277 3115,2250 3083,2241 3053,2237 3047,2210 3040,2181 3029,2158 2987,2147 2956,2130 2928,2139 2900,2155 2875,2157 2845,2146 2819,2140 2790,2130 2757,2119 2728,2107 2693,2096 2660,2086 2632,2062 2605,2038 2591,2018 2569,2004 2552,1994 2524,2002 2494,1996 2465,2009 2448,2043 2438,2075 2439,2110 2412,2134 2415,2155 2428,2190 2410,2202 2425,2237 2413,2259 2396,2256 2370,2243 2341,2231 2307,2218 2273,2193 2239,2184 2211,2192 2182,2195 2145,2212 2107,2222 2078,2207 2063,2175 2058,2140 2050,2117 2036,2092 2014,2088 1978,2091 1954,2065 1938,2035 1918,1996 1890,1979 1859,1975 1826,1962 1798,1927 1772,1921 1747,1919 1718,1917 1689,1909 1648,1894 1627,1866 1622,1839 1597,1834 1566,1835 1496,1787 1501,1783 1523,1755 1565,1712 1600,1658 1650,1613 1690,1570 1719,1553 1750,1553 1777,1566 1801,1592 1828,1609 1850,1581 1867,1553 1895,1535 1930,1516 1958,1508 1986,1498 2015,1467 2005,1440 2025,1422 2052,1404 2035,1391 2000,1375 1991,1353 2018,1355 2072,1373 2099,1372 2124,1379 2151,1387 2179,1405 2206,1411 2232,1411 2256,1438 2279,1464 2312,1471 2338,1474 2373,1484 2409,1497 2437,1495 2462,1503 2489,1523 2517,1543 2542,1545 2568,1545 2608,1536 2636,1524 2664,1511 2692,1502 2726,1494 2755,1498 2786,1505 2819,1514 2853,1519 2881,1512 2900,1486 2928,1467 2982,1442 3034,1452 3054,1457 3058,1418 3079,1396 3106,1381 3134,1363 3164,1334 3190,1320 3216,1307 3241,1295 3268,1284 3298,1278 3324,1273 3357,1270 3404,1240 3440,1218 3486,1194 3483,1171 3476,1156 " class="polyStyle" id="130522" style="fill:#f6f67b"/>
<path d="" class="polyStyle" id="610324" style="fill:#f6f67b"/>
<path d="" class="polyStyle" id="530722" style="fill:#ee8b94"/>
<path d="" class="polyStyle" id="340823" style="fill:#d4ecb2"/>
<path d="" class="polyStyle" id="620825" style="fill:#d4ecb2"/>
<path d="" class="polyStyle" id="421125" style="fill:#ee8b94"/>
<path d="" class="polyStyle" id="210281" style="fill:#ee8b94"/>
<path d="" class="polyStyle" id="440883" style="fill:#f6f67b"/>
<path d="" class="polyStyle" id="469006" style="fill:#d4ecb2"/>
<path d="" class="polyStyle" id="469002" style="fill:#ee8b94"/>
<path d="" class="polyStyle" id="469005" style="fill:#fbe6ef"/>
<path d="" class="polyStyle" id="440882" style="fill:#ee8b94"/>
<path d="" class="polyStyle" id="450681" style="fill:#ee8b94"/>
<path d="" class="polyStyle" id="441581" style="fill:#d4ecb2"/>
<path d="" class="polyStyle" id="421087" style="fill:#ee8b94"/>
<path d="" class="polyStyle" id="420984" style="fill:#fbe6ef"/>
<path d="" class="polyStyle" id="420582" style="fill:#ee8b94"/>
<path d="" class="polyStyle" id="370282" style="fill:#f6f67b"/>
<polygon points="939,3786 972,3787 999,3793 1025,3792 1056,3797 1086,3823 1131,3830 1160,3832 1195,3838 1224,3836 1233,3867 1239,3880 1274,3879 1300,3880 1333,3905 1346,3945 1377,3968 1413,3972 1448,3980 1475,3998 1490,4012 1523,4020 1548,3998 1583,3983 1607,3975 1640,3969 1672,3981 1699,4009 1720,4027 1732,4053 1767,4064 1794,4061 1823,4076 1851,4080 1877,4103 1912,4107 1932,4086 1933,4056 1920,4027 1930,3995 1944,3951 1967,3913 1994,3902 2039,3892 2073,3891 2116,3904 2145,3916 2177,3922 2211,3911 2242,3895 2285,3870 2314,3854 2344,3850 2370,3842 2375,3874 2375,3903 2375,3931 2374,3963 2369,3992 2362,4022 2366,4027 2349,4053 2334,4086 2321,4114 2330,4141 2362,4155 2399,4160 2425,4159 2468,4153 2514,4150 2546,4151 2571,4154 2605,4159 2639,4159 2697,4156 2738,4154 2785,4157 2816,4161 2845,4164 2888,4164 2917,4164 2955,4168 2984,4167 3016,4170 3069,4173 3127,4171 3160,4169 3199,4181 3210,4193 3236,4195 3263,4198 3275,4207 3293,4206 3306,4160 3320,4169 3320,4209 3334,4221 3355,4206 3362,4179 3370,4159 3390,4149 3400,4160 3405,4135 3410,4114 3414,4090 3438,4073 3433,4052 3449,4046 3471,4040 3501,4044 3519,4035 3536,4037 3535,4014 3562,4019 3567,4036 3559,4053 3567,4062 3599,4060 3631,4049 3655,4029 3663,4028 3697,4026 3715,4044 3749,4045 3764,4036 3784,4033 3801,4025 3809,4036 3812,4060 3836,4059 3842,4044 3866,4039 3875,4021 3875,4001 3897,3999 3931,4003 3951,4000 3966,4012 3984,4017 3985,4036 4002,4038 4026,4034 4051,4031 4087,4034 4125,4026 4175,4027 4179,4055 4185,4091 4202,4102 4247,4087 4271,4082 4299,4089 4319,4113 4308,4134 4290,4137 4254,4149 4238,4177 4232,4219 4245,4251 4276,4260 4324,4248 4348,4233 4385,4247 4414,4255 4439,4275 4421,4300 4378,4334 4351,4357 4379,4368 4397,4390 4430,4393 4464,4385 4484,4411 4510,4427 4543,4440 4551,4447 4531,4470 4511,4492 4489,4519 4445,4526 4405,4533 4370,4540 4334,4546 4291,4555 4265,4561 4228,4568 4196,4571 4164,4572 4124,4577 4092,4569 4048,4575 4008,4583 3969,4616 3967,4665 3971,4704 3966,4737 3968,4773 3967,4804 3950,4834 3922,4850 3888,4859 3849,4863 3821,4864 3792,4864 3740,4867 3699,4868 3671,4869 3644,4869 3614,4858 3586,4845 3552,4832 3524,4824 3492,4822 3460,4827 3419,4840 3387,4846 3350,4845 3324,4841 3283,4836 3253,4830 3227,4822 3195,4809 3166,4793 3135,4768 3105,4760 3072,4759 3043,4785 3039,4811 3039,4814 3027,4809 3003,4798 2969,4783 2938,4773 2911,4770 2883,4765 2847,4768 2813,4776 2785,4786 2757,4797 2727,4810 2699,4821 2674,4824 2645,4809 2618,4792 2596,4763 2564,4752 2533,4746 2506,4742 2436,4733 2407,4743 2383,4769 2359,4796 2332,4815 2300,4820 2272,4814 2243,4801 2219,4782 2194,4779 2156,4779 2121,4767 2090,4770 2061,4807 2030,4820 1993,4807 1960,4808 1930,4813 1887,4818 1860,4821 1835,4817 1806,4811 1776,4813 1735,4819 1687,4831 1632,4814 1603,4800 1616,4773 1635,4734 1631,4705 1610,4672 1605,4646 1574,4635 1536,4651 1511,4662 1478,4673 1450,4678 1416,4669 1394,4637 1382,4606 1365,4580 1337,4557 1311,4555 1280,4560 1251,4561 1239,4559 1223,4539 1226,4513 1208,4481 1177,4481 1149,4462 1148,4437 1134,4404 1108,4375 1114,4349 1104,4316 1081,4288 1064,4259 1034,4240 1008,4227 972,4210 940,4189 913,4163 895,4134 884,4094 875,4063 847,4073 814,4082 782,4084 751,4084 722,4084 690,4058 673,4027 659,4017 639,3987 613,3955 578,3945 565,3919 572,3903 582,3883 597,3852 631,3827 657,3807 684,3799 716,3790 756,3790 762,3792 784,3798 804,3803 837,3787 868,3783 904,3787 " class="polyStyle" id="130582" style="fill:#f6f67b"/>
<path d="" class="polyStyle" id="371083" style="fill:#f6f67b"/>
<path d="" class="polyStyle" id="371082" style="fill:#fbe6ef"/>
<polygon points="7988,1830 8012,1859 8038,1870 8068,1872 8106,1875 8138,1884 8164,1897 8192,1912 8222,1940 8252,1973 8273,2005 8290,2033 8297,2063 8336,2086 8377,2089 8408,2090 8452,2089 8497,2085 8554,2082 8584,2085 8619,2095 8649,2124 8675,2150 8697,2176 8718,2202 8739,2221 8772,2250 8797,2257 8827,2266 8842,2293 8824,2322 8829,2350 8858,2377 8886,2397 8911,2417 8938,2433 8970,2444 9005,2447 9035,2441 9062,2438 9090,2443 9116,2425 9125,2400 9141,2374 9170,2355 9196,2357 9222,2357 9247,2361 9253,2388 9220,2412 9192,2423 9167,2447 9155,2477 9177,2506 9207,2518 9238,2522 9265,2526 9295,2530 9324,2536 9354,2551 9364,2577 9336,2601 9307,2624 9325,2650 9356,2656 9384,2641 9410,2631 9441,2629 9474,2616 9504,2612 9531,2613 9559,2625 9564,2655 9591,2679 9592,2706 9585,2733 9613,2756 9639,2736 9645,2707 9670,2715 9698,2738 9724,2745 9757,2755 9786,2763 9783,2786 9775,2814 9787,2843 9792,2873 9810,2904 9836,2923 9863,2932 9891,2938 9924,2944 9951,2951 9968,2962 9970,2967 9978,2976 9992,2989 10006,2998 10018,3009 10025,3019 10027,3035 10020,3051 10008,3068 10007,3078 10002,3083 9996,3096 9990,3110 9974,3134 9955,3150 9950,3153 9921,3160 9915,3163 9884,3167 9860,3170 9853,3172 9831,3172 9819,3175 9805,3183 9797,3191 9794,3199 9797,3218 9798,3221 9804,3227 9805,3231 9816,3236 9827,3247 9829,3252 9839,3267 9838,3275 9836,3282 9824,3296 9794,3315 9782,3322 9774,3322 9721,3326 9705,3328 9681,3332 9677,3331 9671,3331 9647,3330 9622,3333 9614,3335 9588,3345 9552,3366 9543,3375 9538,3386 9538,3392 9538,3398 9541,3414 9544,3422 9553,3437 9558,3442 9566,3461 9568,3467 9568,3474 9563,3485 9534,3512 9528,3517 9504,3539 9482,3553 9448,3571 9432,3576 9411,3577 9400,3577 9397,3576 9386,3576 9373,3574 9367,3573 9358,3573 9327,3569 9285,3563 9273,3560 9247,3560 9216,3555 9205,3555 9198,3554 9171,3553 9162,3554 9153,3555 9144,3555 9128,3558 9111,3562 9069,3578 9057,3582 9057,3569 9072,3529 9054,3502 9052,3472 9059,3449 9074,3432 9064,3417 9062,3389 9034,3387 9017,3369 9012,3344 9017,3312 9007,3299 8984,3299 8957,3287 8927,3282 8912,3257 8907,3229 8884,3214 8862,3202 8839,3174 8817,3164 8804,3182 8794,3207 8792,3229 8789,3267 8792,3314 8769,3344 8734,3369 8697,3397 8667,3397 8654,3372 8632,3352 8604,3337 8579,3344 8559,3352 8539,3327 8529,3289 8542,3259 8577,3242 8589,3219 8579,3194 8547,3172 8514,3164 8489,3144 8489,3114 8507,3087 8542,3069 8572,3064 8597,3039 8609,3007 8634,2989 8629,2969 8594,2957 8542,2944 8522,2924 8514,2882 8487,2869 8454,2862 8417,2842 8417,2824 8412,2802 8377,2764 8359,2737 8372,2714 8389,2692 8382,2664 8367,2654 8339,2649 8299,2642 8269,2639 8257,2622 8232,2604 8194,2599 8152,2594 8107,2597 8069,2612 8012,2622 7982,2622 7952,2612 7939,2597 7922,2589 7902,2579 7879,2584 7847,2589 7804,2599 7774,2589 7737,2579 7702,2577 7644,2569 7584,2552 7534,2549 7494,2545 7479,2544 7424,2539 7394,2532 7392,2509 7379,2487 7357,2492 7339,2504 7309,2524 7288,2541 7283,2554 7280,2563 7245,2566 7217,2568 7206,2548 7200,2524 7195,2487 7204,2458 7223,2445 7253,2444 7244,2418 7235,2388 7227,2361 7206,2345 7187,2334 7166,2346 7104,2345 7076,2342 7064,2331 7060,2283 7081,2248 7119,2240 7149,2247 7175,2235 7164,2214 7157,2185 7155,2154 7157,2120 7160,2071 7164,2042 7146,2003 7127,1987 7098,1987 7082,2004 7073,2043 7051,2056 7027,2062 6995,2053 6993,2032 7004,2004 6992,1977 6965,1951 6929,1937 6958,1928 6973,1917 6989,1933 7017,1935 7056,1936 7093,1950 7118,1929 7142,1931 7164,1891 7186,1867 7216,1837 7255,1832 7283,1841 7316,1860 7356,1864 7398,1866 7427,1842 7456,1834 7506,1845 7523,1868 7565,1887 7598,1887 7628,1859 7657,1855 7686,1864 7698,1884 7683,1910 7662,1936 7666,1961 7686,1985 7711,2003 7738,2015 7779,2018 7817,2014 7818,1989 7784,1963 7801,1927 7772,1900 7746,1873 7751,1835 7787,1823 7828,1817 7855,1792 7889,1798 7916,1795 7933,1791 7961,1806 " class="polyStyle" id="130581" style="fill:#fbe6ef"/>
<path d="" class="polyStyle" id="652801" style="fill:#f8c67d"/>
<path d="" class="polyStyle" id="654301" style="fill:#ee8b94"/>
<path d="" class="polyStyle" id="370687" style="fill:#ee8b94"/>
<path d="" class="polyStyle" id="371482" style="fill:#d4ecb2"/>
<path d="" class="polyStyle" id="421081" style="fill:#fbe6ef"/>
<path d="" class="polyStyle" id="429006" style="fill:#f6f67b"/>
<path d="" class="polyStyle" id="440982" style="fill:#d4ecb2"/>
<path d="" class="polyStyle" id="421181" style="fill:#d4ecb2"/>
<path d="" class="polyStyle" id="321181" style="fill:#d4ecb2"/>
<path d="" class="polyStyle" id="659007" style="fill:#ee8b94"/>
<path d="" class="polyStyle" id="652701" style="fill:#fbe6ef"/>
<path d="" class="polyStyle" id="210781" style="fill:#fbe6ef"/>
<path d="" class="polyStyle" id="460204" style="fill:#f6f67b"/>
<path d="" class="polyStyle" id="210211" style="fill:#f6f67b"/>
<path d="" class="polyStyle" id="450512" style="fill:#ee8b94"/>
<path d="" class="polyStyle" id="450602" style="fill:#fbe6ef"/>
<path d="" class="polyStyle" id="440404" style="fill:#ee8b94"/>
<path d="" class="polyStyle" id="440403" style="fill:#f6f67b"/>
<path d="" class="polyStyle" id="441502" style="fill:#f6f67b"/>
<path d="" class="polyStyle" id="431002" style="fill:#d4ecb2"/>
<path d="" class="polyStyle" id="500107" style="fill:#fbe6ef"/>
<path d="" class="polyStyle" id="430611" style="fill:#d4ecb2"/>
<path d="" class="polyStyle" id="511304" style="fill:#fbe6ef"/>
<path d="" class="polyStyle" id="340711" style="fill:#ee8b94"/>
<path d="" class="polyStyle" id="320118" style="fill:#f6f67b"/>
<path d="" class="polyStyle" id="510704" style="fill:#f6f67b"/>
<path d="" class="polyStyle" id="411502" style="fill:#ee8b94"/>
<path d="" class="polyStyle" id="320302" style="fill:#d4ecb2"/>
<polygon points="3829,3568 3827,3597 3857,3588 3879,3582 3902,3583 3909,3602 3904,3622 3899,3637 3894,3648 3906,3657 3912,3668 3921,3672 3939,3668 3952,3673 3957,3687 3957,3700 3941,3700 3929,3700 3929,3710 3946,3718 3944,3733 3929,3727 3916,3728 3911,3743 3909,3760 3896,3782 3879,3782 3864,3782 3849,3788 3836,3792 3827,3787 3826,3803 3827,3822 3812,3815 3802,3837 3814,3845 3827,3855 3814,3862 3812,3877 3827,3880 3832,3890 3851,3892 3861,3900 3839,3902 3809,3900 3791,3893 3784,3907 3771,3908 3766,3927 3776,3937 3781,3948 3767,3948 3757,3960 3751,3983 3746,4005 3746,4028 3749,4045 3715,4044 3697,4026 3663,4028 3663,4021 3663,4015 3669,4011 3670,3996 3673,3987 3680,3979 3689,3978 3688,3971 3690,3968 3720,3964 3716,3952 3719,3951 3711,3934 3708,3933 3707,3927 3694,3895 3677,3865 3680,3849 3685,3847 3691,3832 3681,3827 3680,3833 3661,3833 3655,3813 3654,3795 3646,3795 3645,3786 3644,3782 3644,3765 3650,3744 3656,3722 3660,3707 3662,3697 3642,3696 3652,3645 3656,3641 3676,3641 3677,3638 3677,3634 3679,3630 3688,3590 3694,3591 3694,3596 3699,3597 3712,3593 3716,3588 3715,3574 3713,3564 3717,3565 3742,3575 3757,3572 3777,3562 3792,3552 3807,3550 3817,3547 3824,3532 3831,3542 " class="polyStyle" id="130502" style="fill:#d4ecb2"/>
<polygon points="3372,3430 3387,3458 3399,3472 3406,3473 3404,3460 3427,3457 3457,3455 3494,3445 3514,3440 3516,3425 3526,3423 3537,3438 3549,3437 3561,3435 3572,3447 3596,3448 3592,3438 3586,3428 3587,3415 3604,3410 3621,3417 3634,3425 3639,3445 3634,3457 3612,3462 3614,3473 3621,3490 3642,3508 3647,3528 3652,3537 3684,3548 3696,3563 3713,3564 3715,3574 3716,3588 3712,3593 3699,3597 3694,3596 3694,3591 3688,3590 3679,3630 3677,3634 3677,3638 3676,3641 3656,3641 3652,3645 3642,3696 3662,3697 3660,3707 3656,3722 3650,3744 3644,3765 3644,3782 3645,3786 3646,3795 3654,3795 3655,3813 3661,3833 3680,3833 3681,3827 3691,3832 3685,3847 3680,3849 3677,3865 3694,3895 3707,3927 3708,3933 3711,3934 3719,3951 3716,3952 3720,3964 3690,3968 3688,3971 3689,3978 3680,3979 3673,3987 3670,3996 3669,4011 3663,4015 3663,4021 3663,4028 3655,4029 3631,4049 3599,4060 3567,4062 3559,4053 3567,4036 3562,4019 3535,4014 3536,4037 3519,4035 3501,4044 3471,4040 3449,4046 3433,4052 3438,4073 3414,4090 3410,4114 3405,4135 3400,4160 3390,4149 3370,4159 3362,4179 3355,4206 3334,4221 3320,4209 3320,4169 3306,4160 3293,4206 3275,4207 3263,4198 3236,4195 3210,4193 3199,4181 3207,4170 3221,4170 3227,4180 3236,4175 3237,4158 3251,4140 3262,4127 3271,4110 3266,4097 3272,4078 3257,4078 3247,4082 3247,4070 3231,4067 3226,4048 3227,4030 3236,4020 3257,4020 3272,4012 3281,4002 3292,3990 3299,3970 3287,3960 3301,3948 3307,3937 3309,3920 3316,3905 3322,3892 3327,3880 3344,3875 3344,3887 3357,3888 3366,3885 3372,3872 3386,3867 3386,3852 3384,3833 3381,3807 3371,3790 3357,3772 3356,3762 3362,3748 3361,3728 3344,3727 3339,3713 3324,3707 3306,3707 3292,3700 3286,3685 3301,3677 3309,3667 3324,3670 3334,3665 3341,3650 3357,3653 3376,3648 3382,3632 3384,3622 3392,3617 3391,3608 3382,3607 3371,3608 3366,3603 3362,3590 3341,3583 3334,3570 3329,3542 3307,3527 3267,3518 3232,3508 3212,3497 3204,3463 3207,3448 3219,3445 3226,3428 3247,3415 3272,3407 3299,3405 3324,3400 3346,3400 3361,3405 " class="polyStyle" id="130503" style="fill:#ee8b94"/>
<path d="" class="polyStyle" id="140311" style="fill:#ee8b94"/>
<path d="" class="polyStyle" id="610802" style="fill:#ee8b94"/>
<path d="" class="polyStyle" id="120116" style="fill:#f6f67b"/>
<path d="" class="polyStyle" id="130303" style="fill:#fbe6ef"/>
<path d="" class="polyStyle" id="140211" style="fill:#f6f67b"/>
<path d="" class="polyStyle" id="150207" style="fill:#fbe6ef"/>
<path d="" class="polyStyle" id="211403" style="fill:#f6f67b"/>
<path d="" class="polyStyle" id="150802" style="fill:#f8c67d"/>
<path d="" class="polyStyle" id="210112" style="fill:#ee8b94"/>
<path d="" class="polyStyle" id="230406" style="fill:#d4ecb2"/>
<path d="" class="polyStyle" id="110113" style="fill:#fbe6ef"/>
<path d="" class="polyStyle" id="341702" style="fill:#fbe6ef"/>
<path d="" class="polyStyle" id="420303" style="fill:#ee8b94"/>
<path d="" class="polyStyle" id="340702" style="fill:#d4ecb2"/>
<path d="" class="polyStyle" id="421002" style="fill:#f6f67b"/>
<path d="" class="polyStyle" id="420117" style="fill:#f6f67b"/>
<path d="" class="polyStyle" id="440904" style="fill:#f8c67d"/>
<path d="" class="polyStyle" id="460205" style="fill:#ee8b94"/>
<path d="" class="polyStyle" id="460202" style="fill:#f6f67b"/>
<path d="" class="polyStyle" id="460203" style="fill:#fbe6ef"/>
<path d="" class="polyStyle" id="420304" style="fill:#f6f67b"/>
<path d="" class="polyStyle" id="445302" style="fill:#ee8b94"/>
<path d="" class="polyStyle" id="410202" style="fill:#d4ecb2"/>
<path d="" class="polyStyle" id="440800" style="fill:#f6f67b"/>
<path d="" class="polyStyle" id="440900" style="fill:#ee8b94"/>
<path d="" class="polyStyle" id="340800" style="fill:#ee8b94"/>
<path d="" class="polyStyle" id="460200" style="fill:#f6f67b"/>
<path d="" class="polyStyle" id="460000" style="fill:#ee8b94"/>
<path d="" class="polyStyle" id="450500" style="fill:#ee8b94"/>
<path d="" class="polyStyle" id="450600" style="fill:#ee8b94"/>
<path d="" class="polyStyle" id="440400" style="fill:#f6f67b"/>
<path d="" class="polyStyle" id="441700" style="fill:#f6f67b"/>
<path d="" class="polyStyle" id="441500" style="fill:#f6f67b"/>
<path d="" class="polyStyle" id="350600" style="fill:#ee8b94"/>
<path d="" class="polyStyle" id="710000" style="fill:#f6f67b"/>
<path d="" class="polyStyle" id="510400" style="fill:#f6f67b"/>
<path d="" class="polyStyle" id="522600" style="fill:#fbe6ef"/>
<path d="" class="polyStyle" id="520500" style="fill:#ee8b94"/>
<path d="" class="polyStyle" id="431200" style="fill:#f6f67b"/>
<path d="" class="polyStyle" id="430600" style="fill:#f6f67b"/>
<path d="" class="polyStyle" id="511400" style="fill:#d4ecb2"/>
<path d="" class="polyStyle" id="421000" style="fill:#ee8b94"/>
<path d="" class="polyStyle" id="341700" style="fill:#f6f67b"/>
<path d="" class="polyStyle" id="420500" style="fill:#f6f67b"/>
<path d="" class="polyStyle" id="511300" style="fill:#f6f67b"/>
<path d="" class="polyStyle" id="420900" style="fill:#f6f67b"/>
<path d="" class="polyStyle" id="511700" style="fill:#ee8b94"/>
<path d="" class="polyStyle" id="420600" style="fill:#d4ecb2"/>
<path d="" class="polyStyle" id="411500" style="fill:#fbe6ef"/>
<path d="" class="polyStyle" id="510800" style="fill:#ee8b94"/>
<path d="" class="polyStyle" id="420300" style="fill:#fbe6ef"/>
<path d="" class="polyStyle" id="611000" style="fill:#ee8b94"/>
<path d="" class="polyStyle" id="620800" style="fill:#fbe6ef"/>
<path d="" class="polyStyle" id="370200" style="fill:#ee8b94"/>
<path d="" class="polyStyle" id="371000" style="fill:#f6f67b"/>
<path d="" class="polyStyle" id="370600" style="fill:#fbe6ef"/>
<path d="" class="polyStyle" id="120000" style="fill:#f6f67b"/>
<path d="" class="polyStyle" id="130200" style="fill:#ee8b94"/>
<path d="" class="polyStyle" id="130300" style="fill:#f6f67b"/>
<path d="" class="polyStyle" id="652900" style="fill:#fbe6ef"/>
<path d="" class="polyStyle" id="150500" style="fill:#d4ecb2"/>
<path d="" class="polyStyle" id="" style="fill:#d4ecb2"/>
<path d="" class="polyStyle" id="350500" style="fill:#fbe6ef"/>
<path d="" class="polyStyle" id="440400" style="fill:#f6f67b"/>
<path d="" class="polyStyle" id="421100" style="fill:#d4ecb2"/>
<path d="" class="polyStyle" id="420100" style="fill:#fbe6ef"/>
<path d="" class="polyStyle" id="532500" style="fill:#fbe6ef"/>
<path d="" class="polyStyle" id="654200" style="fill:#fbe6ef"/>
<path d="" class="polyStyle" id="210700" style="fill:#d4ecb2"/>
<path d="" class="polyStyle" id="522300" style="fill:#fbe6ef"/>
<path d="" class="polyStyle" id="" style="fill:#ee8b94"/>
<path d="" class="polyStyle" id="440400" style="fill:#f6f67b"/>
<path d="" class="polyStyle" id="620000" style="fill:#f6f67b"/>
<path d="" class="polyStyle" id="430000" style="fill:#fbe6ef"/>
<path d="" class="polyStyle" id="420000" style="fill:#ee8b94"/>
<path d="" class="polyStyle" id="410000" style="fill:#f6f67b"/>
<path d="" class="polyStyle" id="350000" style="fill:#fbe6ef"/>
<path d="" class="polyStyle" id="520000" style="fill:#f6f67b"/>
<path d="" class="polyStyle" id="" style="fill:#ee8b94"/>
</svg>
