<?xml version="1.0" encoding="UTF-8"?>
<!DOCTYPE svg PUBLIC "-//W3C//DTD SVG 1.1 Tiny//EN" "http://www.w3.org/Graphics/SVG/1.1/DTD/svg11-tiny.dtd">
<svg version="1.1" xmlns="http://www.w3.org/2000/svg" xmlns:xlink="http://www.w3.org/1999/xlink" width="100%" height="100%" viewBox="0,0,13210,12955">
<title>SVG</title>
<desc>Poligon Test</desc>
<style id="style_css_sheet" type="text/css">
.polyStyle{fill: #cccccc;stroke-width:0;fill-rule:evenodd;}
</style>

<circle cx="9376" cy="2382" r="200" stroke="black" stroke-width="1" fill="red" id="130724" name="沽源县"/>
<circle cx="4451" cy="4952" r="200" stroke="black" stroke-width="1" fill="red" id="130722" name="张北县"/>
<circle cx="3953" cy="1479" r="200" stroke="black" stroke-width="1" fill="red" id="130723" name="康保县"/>
<circle cx="728" cy="5368" r="200" stroke="black" stroke-width="1" fill="red" id="130725" name="尚义县"/>
<circle cx="10018" cy="6155" r="200" stroke="black" stroke-width="1" fill="red" id="130732" name="赤城县"/>
<circle cx="8451" cy="8743" r="200" stroke="black" stroke-width="1" fill="red" id="130730" name="怀来县"/>
<circle cx="7283" cy="5867" r="200" stroke="black" stroke-width="1" fill="red" id="130733" name="崇礼区"/>
<circle cx="4529" cy="6939" r="200" stroke="black" stroke-width="1" fill="red" id="130729" name="万全区"/>
<circle cx="2962" cy="7395" r="200" stroke="black" stroke-width="1" fill="red" id="130728" name="怀安县"/>
<circle cx="6955" cy="8870" r="200" stroke="black" stroke-width="1" fill="red" id="130731" name="涿鹿县"/>
<circle cx="1712" cy="10172" r="200" stroke="black" stroke-width="1" fill="red" id="130727" name="阳原县"/>
<circle cx="3748" cy="11532" r="200" stroke="black" stroke-width="1" fill="red" id="130726" name="蔚县"/>
<circle cx="6351" cy="7711" r="200" stroke="black" stroke-width="1" fill="red" id="130705" name="宣化区"/>
<circle cx="5357" cy="6643" r="200" stroke="black" stroke-width="1" fill="red" id="130702" name="桥东区"/>
<circle cx="5284" cy="6601" r="200" stroke="black" stroke-width="1" fill="red" id="130703"position="1" name="桥西区"/>
<circle cx="7364" cy="8264" r="200" stroke="black" stroke-width="1" fill="red" id="130706" name="下花园区"/>

<path d="" class="polyStyle" id="" style="fill:#ee8b94"/>
<path d="" class="polyStyle" id="623022" style="fill:#fbe6ef"/>
<path d="" class="polyStyle" id="211421" style="fill:#f6f67b"/>
<path d="" class="polyStyle" id="532524" style="fill:#ee8b94"/>
<path d="" class="polyStyle" id="440825" style="fill:#f6f67b"/>
<path d="" class="polyStyle" id="441721" style="fill:#f6f67b"/>
<path d="" class="polyStyle" id="450521" style="fill:#f6f67b"/>
<path d="" class="polyStyle" id="450123" style="fill:#fbe6ef"/>
<path d="" class="polyStyle" id="350624" style="fill:#f6f67b"/>
<path d="" class="polyStyle" id="" style="fill:#fbe6ef"/>
<path d="" class="polyStyle" id="451224" style="fill:#fbe6ef"/>
<path d="" class="polyStyle" id="350627" style="fill:#f6f67b"/>
<path d="" class="polyStyle" id="" style="fill:#f6f67b"/>
<path d="" class="polyStyle" id="350525" style="fill:#f6f67b"/>
<path d="" class="polyStyle" id="530124" style="fill:#ee8b94"/>
<path d="" class="polyStyle" id="522627" style="fill:#ee8b94"/>
<path d="" class="polyStyle" id="510421" style="fill:#fbe6ef"/>
<path d="" class="polyStyle" id="522623" style="fill:#d4ecb2"/>
<path d="" class="polyStyle" id="430321" style="fill:#d4ecb2"/>
<path d="" class="polyStyle" id="511129" style="fill:#d4ecb2"/>
<path d="" class="polyStyle" id="511423" style="fill:#ee8b94"/>
<path d="" class="polyStyle" id="421023" style="fill:#f6f67b"/>
<path d="" class="polyStyle" id="511724" style="fill:#f6f67b"/>
<path d="" class="polyStyle" id="420526" style="fill:#fbe6ef"/>
<path d="" class="polyStyle" id="511923" style="fill:#fbe6ef"/>
<path d="" class="polyStyle" id="420325" style="fill:#fbe6ef"/>
<path d="" class="polyStyle" id="511921" style="fill:#f6f67b"/>
<path d="" class="polyStyle" id="542525" style="fill:#f6f67b"/>
<path d="" class="polyStyle" id="611026" style="fill:#ee8b94"/>
<path d="" class="polyStyle" id="411023" style="fill:#fbe6ef"/>
<path d="" class="polyStyle" id="632323" style="fill:#f6f67b"/>
<path d="" class="polyStyle" id="140525" style="fill:#d4ecb2"/>
<path d="" class="polyStyle" id="410922" style="fill:#ee8b94"/>
<path d="" class="polyStyle" id="621027" style="fill:#ee8b94"/>
<path d="" class="polyStyle" id="130427" style="fill:#f6f67b"/>
<path d="" class="polyStyle" id="130121" style="fill:#ee8b94"/>
<path d="" class="polyStyle" id="610823" style="fill:#fbe6ef"/>
<path d="" class="polyStyle" id="130225" style="fill:#fbe6ef"/>
<path d="" class="polyStyle" id="130322" style="fill:#d4ecb2"/>
<polygon points="4766,9784 4783,9809 4792,9836 4797,9862 4825,9885 4854,9907 4882,9912 4892,9913 4917,9932 4951,9961 4984,9973 5020,9962 5052,9952 5088,9939 5116,9926 5147,9901 5180,9889 5222,9868 5246,9856 5281,9834 5315,9823 5342,9813 5366,9818 5398,9834 5432,9857 5457,9869 5471,9899 5475,9923 5491,9946 5528,9941 5558,9911 5605,9914 5640,9905 5669,9911 5699,9890 5726,9898 5755,9892 5758,9911 5775,9942 5800,9949 5833,9963 5868,9984 5877,10011 5908,10026 5939,10030 5974,10047 5962,10073 5953,10100 5926,10115 5919,10141 5928,10173 5926,10199 5921,10230 5923,10261 5919,10291 5914,10318 5937,10348 5961,10375 5983,10402 5995,10432 6012,10459 6042,10484 6052,10512 6064,10538 6058,10567 6068,10593 6096,10623 6091,10650 6089,10677 6112,10709 6141,10736 6153,10767 6172,10797 6197,10823 6199,10850 6199,10876 6195,10905 6192,10933 6223,10957 6227,10991 6199,11019 6166,11026 6136,11028 6110,11036 6089,11065 6084,11092 6068,11117 6046,11143 6019,11173 6016,11199 6021,11227 6017,11253 6026,11283 6052,11311 6069,11339 6059,11365 6033,11370 6008,11376 5973,11395 5942,11425 5937,11453 5937,11482 5966,11503 5964,11533 5956,11559 5952,11585 5966,11611 5974,11640 5964,11669 5976,11697 6005,11707 6034,11727 6044,11752 6038,11782 6023,11810 6013,11837 6021,11867 6001,11896 5973,11912 5941,11930 5932,11956 5962,11966 5953,11993 5926,12010 5908,12040 5888,12067 5890,12096 5901,12124 5921,12158 5946,12183 5968,12208 5980,12240 5989,12268 6015,12300 5984,12324 5960,12350 5956,12363 5928,12363 5901,12362 5871,12361 5845,12355 5818,12356 5780,12363 5749,12378 5720,12396 5689,12417 5661,12434 5633,12428 5603,12398 5574,12381 5548,12377 5541,12402 5538,12431 5529,12458 5504,12485 5466,12482 5445,12510 5433,12535 5405,12539 5378,12535 5351,12543 5322,12555 5297,12579 5295,12610 5289,12638 5263,12661 5232,12679 5221,12704 5198,12732 5167,12733 5139,12746 5146,12774 5159,12801 5128,12821 5097,12816 5065,12792 5055,12756 5032,12730 5002,12709 4972,12695 4941,12694 4912,12695 4888,12721 4860,12745 4830,12727 4803,12722 4778,12702 4751,12678 4725,12693 4696,12669 4669,12655 4640,12656 4615,12672 4589,12682 4564,12687 4536,12678 4510,12654 4483,12641 4455,12638 4442,12666 4432,12694 4436,12721 4438,12748 4436,12779 4409,12795 4382,12799 4357,12801 4322,12813 4290,12810 4264,12803 4236,12802 4209,12793 4184,12822 4162,12826 4146,12820 4149,12799 4184,12774 4186,12751 4162,12740 4132,12758 4104,12783 4098,12809 4086,12837 4075,12877 4062,12909 4036,12925 4016,12953 3980,12955 3939,12944 3914,12927 3886,12903 3863,12878 3854,12863 3831,12837 3784,12814 3745,12829 3714,12857 3702,12847 3686,12843 3666,12843 3648,12847 3626,12855 3596,12865 3564,12885 3546,12901 3514,12919 3482,12925 3460,12917 3454,12913 3434,12863 3404,12767 3402,12763 3390,12725 3382,12719 3364,12719 3354,12725 3338,12727 3322,12725 3310,12717 3288,12707 3268,12701 3238,12693 3210,12691 3174,12693 3126,12707 3088,12713 3064,12713 3056,12709 3040,12695 3024,12687 3010,12689 3000,12683 2996,12667 3008,12649 3006,12635 2992,12609 2962,12575 2916,12525 2913,12521 2898,12501 2886,12465 2884,12443 2886,12407 2890,12379 2896,12347 2898,12251 2904,12201 2912,12157 2920,12115 2922,12093 2920,12083 2914,12065 2914,12049 2922,12025 2940,12005 2944,11981 2926,11945 2922,11927 2926,11917 2956,11887 2956,11859 2942,11837 2920,11817 2892,11783 2856,11695 2844,11673 2830,11653 2830,11637 2850,11625 2882,11619 2896,11617 2902,11609 2904,11593 2900,11571 2900,11557 2896,11527 2896,11495 2878,11439 2863,11411 2851,11405 2837,11405 2816,11405 2770,11407 2748,11411 2724,11411 2708,11413 2692,11417 2676,11419 2640,11429 2626,11431 2618,11431 2586,11433 2528,11419 2522,11417 2514,11417 2504,11419 2496,11423 2480,11433 2452,11441 2430,11443 2406,11441 2384,11439 2364,11443 2344,11453 2322,11455 2314,11455 2307,11454 2304,11449 2312,11395 2311,11388 2304,11383 2294,11379 2288,11375 2284,11375 2278,11373 2266,11373 2262,11375 2232,11389 2194,11405 2150,11421 2088,11435 2060,11439 2040,11447 2028,11457 2024,11469 2026,11483 2018,11491 2004,11491 1992,11473 1978,11449 1964,11437 1942,11425 1884,11379 1882,11373 1878,11365 1876,11357 1877,11346 1880,11341 1882,11337 1886,11333 1896,11325 1900,11321 1956,11289 1964,11287 1982,11279 2019,11264 2024,11257 2026,11250 2024,11243 1982,11175 1960,11159 1944,11158 1943,11086 1927,11057 1897,11049 1875,11024 1888,10997 1911,10969 1941,10960 1967,10955 1997,10948 2026,10924 2051,10915 2080,10930 2107,10937 2107,10963 2112,10991 2110,11026 2087,11053 2093,11080 2120,11078 2149,11074 2182,11069 2212,11060 2244,11047 2279,11039 2304,11039 2331,11032 2356,11022 2389,11013 2415,10999 2444,10997 2472,10994 2500,10994 2532,10991 2544,10963 2572,10943 2569,10917 2559,10891 2563,10863 2580,10836 2609,10822 2637,10822 2641,10797 2654,10766 2682,10754 2710,10736 2764,10716 2796,10688 2824,10668 2854,10657 2887,10661 2912,10677 2922,10706 2910,10736 2909,10764 2942,10778 2972,10774 3006,10771 3033,10774 3062,10767 3091,10758 3119,10763 3145,10784 3171,10809 3200,10822 3227,10830 3236,10795 3241,10767 3271,10747 3298,10744 3302,10736 3331,10713 3315,10686 3316,10659 3342,10649 3370,10639 3403,10632 3431,10614 3458,10595 3485,10577 3518,10575 3551,10571 3583,10566 3617,10556 3650,10542 3679,10524 3705,10511 3728,10483 3724,10457 3703,10428 3691,10401 3688,10374 3687,10340 3693,10310 3729,10289 3765,10267 3797,10254 3828,10246 3854,10247 3875,10246 3924,10247 3959,10261 3974,10303 4002,10289 4034,10257 4071,10241 4107,10243 4130,10252 4185,10252 4195,10216 4215,10182 4213,10151 4244,10131 4262,10103 4286,10079 4297,10037 4306,10001 4289,9979 4255,9968 4221,9951 4206,9909 4194,9883 4167,9857 4204,9835 4237,9832 4268,9841 4296,9843 4324,9838 4359,9820 4373,9795 4400,9775 4436,9777 4467,9774 4493,9777 4523,9785 4553,9784 4586,9778 4621,9781 4655,9779 4682,9763 4712,9750 4743,9754 " class="polyStyle" id="130726" style="fill:#f6f67b"/>
<path d="" class="polyStyle" id="653130" style="fill:#f6f67b"/>
<polygon points="4366,8880 4401,8887 4428,8876 4457,8862 4459,8872 4487,8896 4529,8909 4563,8927 4593,8947 4618,8961 4645,8974 4676,8990 4709,9008 4745,9031 4773,9059 4780,9084 4783,9121 4779,9148 4775,9180 4780,9214 4802,9254 4829,9286 4832,9320 4849,9348 4888,9358 4886,9386 4876,9415 4906,9456 4916,9475 4900,9509 4904,9545 4904,9582 4892,9614 4888,9641 4893,9669 4903,9701 4918,9730 4938,9758 4944,9785 4944,9813 4941,9840 4938,9869 4918,9902 4892,9913 4882,9912 4854,9907 4825,9885 4797,9862 4792,9836 4783,9809 4766,9784 4743,9754 4712,9750 4682,9763 4655,9779 4621,9781 4586,9778 4553,9784 4523,9785 4493,9777 4467,9774 4436,9777 4400,9775 4373,9795 4359,9820 4324,9838 4296,9843 4268,9841 4237,9832 4204,9835 4167,9857 4194,9883 4206,9909 4221,9951 4255,9968 4289,9979 4306,10001 4297,10037 4286,10079 4262,10103 4244,10131 4213,10151 4215,10182 4195,10216 4185,10252 4130,10252 4107,10243 4071,10241 4034,10257 4002,10289 3974,10303 3959,10261 3924,10247 3875,10246 3854,10247 3828,10246 3797,10254 3765,10267 3729,10289 3693,10310 3687,10340 3688,10374 3691,10401 3703,10428 3724,10457 3728,10483 3705,10511 3679,10524 3650,10542 3617,10556 3583,10566 3551,10571 3518,10575 3485,10577 3458,10595 3431,10614 3403,10632 3370,10639 3342,10649 3316,10659 3315,10686 3331,10713 3302,10736 3298,10744 3271,10747 3241,10767 3236,10795 3227,10830 3200,10822 3171,10809 3145,10784 3119,10763 3091,10758 3062,10767 3033,10774 3006,10771 2972,10774 2942,10778 2909,10764 2910,10736 2922,10706 2912,10677 2887,10661 2854,10657 2824,10668 2796,10688 2764,10716 2710,10736 2682,10754 2654,10766 2641,10797 2637,10822 2609,10822 2580,10836 2563,10863 2559,10891 2569,10917 2572,10943 2544,10963 2532,10991 2500,10994 2472,10994 2444,10997 2415,10999 2389,11013 2356,11022 2331,11032 2304,11039 2279,11039 2244,11047 2212,11060 2182,11069 2149,11074 2120,11078 2093,11080 2087,11053 2110,11026 2112,10991 2107,10963 2107,10937 2080,10930 2051,10915 2026,10924 1997,10948 1967,10955 1941,10960 1911,10969 1888,10997 1875,11024 1897,11049 1927,11057 1943,11086 1944,11158 1934,11157 1920,11175 1908,11193 1888,11205 1862,11207 1836,11209 1816,11219 1798,11235 1776,11241 1752,11241 1728,11233 1714,11233 1700,11235 1682,11241 1664,11249 1652,11253 1626,11257 1608,11253 1588,11243 1570,11233 1528,11223 1472,11203 1436,11197 1358,11191 1298,11171 1264,11153 1238,11131 1213,11131 1192,11133 1170,11137 1154,11139 1148,11155 1136,11169 1122,11164 1118,11163 1114,11153 1108,11129 1100,11095 1072,11013 1036,10937 1028,10909 1026,10885 1022,10857 1026,10825 1026,10813 1022,10799 1010,10793 982,10779 960,10773 948,10771 924,10775 872,10777 848,10771 790,10763 754,10753 672,10725 626,10709 598,10705 562,10707 540,10711 516,10721 494,10721 466,10717 444,10707 428,10695 428,10683 440,10659 454,10643 482,10627 542,10613 632,10599 670,10585 680,10569 744,10479 776,10423 776,10347 764,10297 750,10263 748,10257 752,10239 766,10201 774,10187 778,10185 832,10185 926,10209 938,10215 968,10229 988,10249 1004,10289 1024,10305 1034,10319 1048,10399 1048,10407 1054,10423 1064,10435 1084,10453 1093,10460 1102,10461 1114,10459 1154,10435 1194,10409 1256,10401 1276,10397 1298,10393 1322,10377 1332,10351 1334,10331 1340,10309 1350,10291 1368,10265 1382,10241 1380,10207 1360,10177 1330,10147 1312,10125 1304,10107 1286,10059 1271,10003 1260,9959 1258,9955 1244,9913 1212,9835 1212,9825 1216,9817 1224,9811 1248,9815 1272,9821 1308,9819 1338,9811 1362,9795 1374,9785 1394,9779 1422,9779 1434,9787 1448,9799 1474,9801 1492,9809 1492,9823 1488,9841 1492,9849 1506,9855 1548,9863 1604,9865 1644,9857 1720,9811 1738,9801 1766,9795 1788,9791 1806,9789 1878,9799 1924,9803 1954,9797 1962,9767 1972,9757 1984,9753 2024,9773 2040,9771 2054,9767 2060,9755 2060,9739 2026,9697 2018,9683 2052,9667 2088,9643 2142,9607 2178,9571 2194,9569 2206,9573 2216,9579 2206,9607 2210,9613 2226,9621 2250,9621 2278,9623 2304,9621 2314,9601 2338,9595 2360,9593 2374,9599 2400,9611 2420,9613 2428,9603 2432,9573 2446,9559 2462,9553 2494,9555 2518,9557 2544,9549 2566,9537 2608,9519 2650,9507 2680,9505 2706,9511 2790,9535 2822,9539 2854,9541 2932,9527 2966,9521 2976,9511 2984,9493 2988,9487 3000,9485 3036,9489 3070,9485 3096,9479 3204,9441 3266,9403 3272,9389 3277,9374 3300,9373 3320,9379 3328,9379 3334,9377 3344,9369 3356,9357 3366,9335 3370,9313 3358,9287 3364,9277 3398,9267 3414,9261 3450,9237 3490,9187 3506,9159 3504,9141 3498,9119 3498,9103 3508,9097 3520,9091 3534,9077 3540,9053 3538,9029 3566,9024 3602,9013 3627,9004 3657,8986 3686,8975 3717,8977 3749,8987 3775,8979 3809,8959 3834,8955 3865,8959 3900,8956 3918,8928 3945,8913 3973,8920 3999,8942 4026,8960 4051,8939 4077,8921 4107,8923 4135,8917 4141,8891 4169,8876 4195,8878 4226,8877 4254,8869 4285,8851 4310,8851 4341,8871 " class="polyStyle" id="130727" style="fill:#d4ecb2"/>
<polygon points="7014,8312 7003,8321 6984,8323 6962,8332 6937,8343 6921,8371 6926,8397 6952,8409 6977,8416 6978,8443 6987,8470 6999,8484 6989,8502 7020,8514 7037,8505 7055,8512 7089,8510 7102,8516 7082,8528 7095,8539 7099,8548 7089,8557 7103,8560 7125,8568 7133,8555 7152,8544 7146,8526 7157,8509 7180,8500 7214,8500 7253,8495 7282,8507 7304,8502 7332,8502 7336,8521 7352,8547 7369,8575 7392,8604 7423,8641 7445,8671 7465,8698 7497,8730 7536,8762 7572,8784 7587,8794 7607,8799 7617,8804 7628,8812 7641,8820 7666,8828 7699,8835 7750,8843 7769,8850 7797,8857 7838,8866 7895,8881 8033,8922 8081,8943 8092,8953 8093,8960 8087,8969 8077,8979 8045,9008 8035,9038 8031,9057 8030,9065 8032,9069 8037,9070 8124,9053 8177,9045 8224,9040 8284,9038 8300,9041 8305,9043 8307,9046 8314,9067 8318,9089 8320,9109 8317,9121 8305,9137 8302,9147 8300,9163 8294,9181 8240,9204 8210,9219 8191,9235 8187,9241 8186,9248 8191,9272 8193,9300 8195,9342 8181,9367 8168,9399 8141,9429 8116,9459 8116,9489 8128,9518 8141,9556 8165,9582 8191,9598 8209,9630 8211,9659 8244,9670 8265,9690 8256,9724 8252,9761 8236,9786 8244,9817 8254,9846 8267,9881 8271,9908 8292,9935 8314,9961 8299,9991 8304,10024 8322,10049 8336,10076 8353,10110 8375,10147 8407,10167 8406,10199 8412,10226 8417,10257 8427,10288 8440,10305 8425,10330 8415,10355 8410,10375 8415,10400 8434,10417 8432,10419 8404,10439 8382,10461 8308,10539 8270,10563 8264,10569 8226,10585 8186,10583 8178,10585 8152,10597 8110,10663 8102,10677 8104,10707 8122,10757 8130,10781 8118,10785 8086,10781 8062,10787 8014,10837 7996,10891 7998,10973 8008,10991 7981,11022 7954,11051 7942,11076 7936,11102 7931,11129 7922,11155 7897,11170 7870,11200 7854,11225 7870,11255 7878,11282 7851,11307 7816,11308 7784,11316 7754,11320 7712,11315 7684,11343 7691,11372 7698,11400 7695,11426 7679,11451 7660,11478 7633,11498 7608,11529 7590,11555 7588,11585 7597,11616 7598,11645 7571,11670 7544,11695 7536,11723 7554,11754 7580,11780 7545,11802 7512,11809 7485,11814 7459,11816 7429,11832 7405,11861 7389,11886 7359,11910 7333,11939 7325,11969 7310,12000 7276,12022 7246,12030 7219,12039 7188,12050 7160,12054 7129,12054 7099,12072 7073,12089 7054,12116 7033,12142 6999,12156 6972,12187 6941,12208 6909,12222 6880,12232 6847,12229 6820,12223 6793,12224 6774,12252 6781,12279 6781,12307 6776,12333 6768,12359 6743,12377 6718,12379 6691,12370 6664,12361 6637,12347 6612,12333 6586,12307 6561,12297 6535,12299 6499,12303 6468,12295 6437,12261 6408,12233 6380,12221 6352,12216 6313,12218 6283,12220 6249,12221 6213,12216 6184,12224 6159,12227 6131,12211 6105,12209 6073,12225 6045,12247 6024,12278 6015,12300 5989,12268 5980,12240 5968,12208 5946,12183 5921,12158 5901,12124 5890,12096 5888,12067 5908,12040 5926,12010 5953,11993 5962,11966 5932,11956 5941,11930 5973,11912 6001,11896 6021,11867 6013,11837 6023,11810 6038,11782 6044,11752 6034,11727 6005,11707 5976,11697 5964,11669 5974,11640 5966,11611 5952,11585 5956,11559 5964,11533 5966,11503 5937,11482 5937,11453 5942,11425 5973,11395 6008,11376 6033,11370 6059,11365 6069,11339 6052,11311 6026,11283 6017,11253 6021,11227 6016,11199 6019,11173 6046,11143 6068,11117 6084,11092 6089,11065 6110,11036 6136,11028 6166,11026 6199,11019 6227,10991 6223,10957 6192,10933 6195,10905 6199,10876 6199,10850 6197,10823 6172,10797 6153,10767 6141,10736 6112,10709 6089,10677 6091,10650 6096,10623 6068,10593 6058,10567 6064,10538 6052,10512 6042,10484 6012,10459 5995,10432 5983,10402 5961,10375 5937,10348 5914,10318 5919,10291 5923,10261 5921,10230 5926,10199 5928,10173 5919,10141 5926,10115 5953,10100 5962,10073 5974,10047 5939,10030 5908,10026 5877,10011 5868,9984 5833,9963 5800,9949 5775,9942 5758,9911 5755,9892 5754,9860 5735,9829 5709,9801 5698,9775 5706,9746 5728,9720 5700,9686 5673,9657 5644,9644 5617,9621 5606,9586 5582,9565 5554,9532 5546,9500 5562,9471 5594,9457 5619,9443 5650,9425 5680,9419 5693,9399 5666,9361 5674,9347 5701,9322 5723,9295 5739,9254 5774,9241 5771,9214 5748,9189 5733,9158 5704,9146 5679,9148 5651,9140 5620,9129 5594,9113 5590,9079 5604,9049 5588,9024 5618,8997 5647,8984 5683,8971 5710,8965 5739,8955 5772,8948 5799,8940 5837,8929 5873,8926 5898,8944 5927,8973 5952,8981 5976,8955 6005,8943 6032,8937 6038,8907 6066,8900 6100,8888 6127,8870 6155,8836 6182,8809 6212,8792 6243,8798 6274,8814 6301,8834 6328,8860 6357,8864 6384,8854 6412,8834 6434,8800 6446,8770 6454,8735 6461,8708 6456,8675 6444,8647 6475,8629 6506,8623 6537,8604 6555,8573 6545,8547 6547,8520 6567,8503 6601,8496 6620,8495 6633,8481 6647,8478 6656,8492 6679,8490 6691,8470 6697,8446 6685,8418 6697,8403 6718,8393 6747,8386 6768,8385 6791,8375 6811,8360 6833,8343 6853,8317 6883,8306 6934,8298 6968,8295 6994,8297 " class="polyStyle" id="130731" style="fill:#d4ecb2"/>
<polygon points="9524,7831 9539,7861 9534,7902 9531,7929 9537,7956 9529,8005 9501,8049 9495,8093 9506,8119 9531,8153 9558,8175 9579,8180 9578,8183 9562,8225 9592,8279 9606,8253 9642,8253 9730,8261 9774,8269 9790,8285 9790,8291 9788,8301 9764,8359 9740,8379 9722,8401 9718,8415 9730,8427 9748,8435 9776,8435 9748,8467 9738,8499 9744,8523 9794,8557 9824,8585 9862,8581 9872,8595 9854,8611 9882,8637 10060,8813 10100,8849 10126,8867 10156,8871 10178,8877 10190,8891 10180,8927 10190,8937 10222,8947 10310,8957 10344,8961 10356,8963 10414,8959 10428,8959 10458,8971 10472,8979 10480,9003 10482,9009 10490,9050 10494,9063 10520,9107 10490,9117 10512,9151 10538,9143 10566,9183 10602,9191 10586,9229 10602,9259 10610,9295 10634,9303 10644,9317 10640,9347 10648,9359 10686,9375 10713,9409 10724,9423 10722,9437 10708,9449 10700,9455 10626,9475 10592,9475 10562,9459 10534,9473 10492,9495 10458,9517 10450,9565 10444,9571 10432,9573 10414,9575 10378,9559 10358,9575 10342,9595 10310,9629 10294,9663 10300,9671 10320,9683 10288,9697 10316,9713 10266,9737 10262,9767 10236,9815 10214,9819 10196,9815 10182,9807 10156,9801 10140,9805 10122,9825 10142,9847 10138,9869 10102,9903 10102,9915 10110,9931 10134,9917 10150,9939 10128,9951 10144,9969 10148,9975 10150,9989 10148,9995 10147,9998 10146,10001 10142,10005 10126,10009 10114,10009 10048,9985 10062,10023 10038,10015 9990,9985 9912,9979 9898,9967 9886,9959 9848,9909 9824,9879 9804,9873 9772,9905 9732,9929 9702,9939 9648,9955 9632,9969 9634,9989 9646,10001 9652,10007 9654,10015 9640,10037 9622,10055 9596,10075 9562,10095 9548,10101 9536,10101 9502,10091 9450,10075 9420,10075 9408,10081 9412,10091 9434,10099 9430,10113 9412,10121 9394,10119 9326,10105 9244,10095 9174,10091 9126,10097 9108,10107 9104,10111 9072,10147 9048,10155 8948,10149 8874,10151 8852,10161 8844,10185 8842,10213 8840,10241 8840,10249 8838,10257 8834,10263 8828,10265 8804,10271 8784,10261 8776,10251 8750,10247 8710,10253 8672,10269 8660,10283 8650,10307 8628,10335 8600,10349 8544,10353 8506,10365 8470,10391 8434,10417 8415,10400 8410,10375 8415,10355 8425,10330 8440,10305 8427,10288 8417,10257 8412,10226 8406,10199 8407,10167 8375,10147 8353,10110 8336,10076 8322,10049 8304,10024 8299,9991 8314,9961 8292,9935 8271,9908 8267,9881 8254,9846 8244,9817 8236,9786 8252,9761 8256,9724 8265,9690 8244,9670 8211,9659 8209,9630 8191,9598 8165,9582 8141,9556 8128,9518 8116,9489 8116,9459 8141,9429 8168,9399 8181,9367 8195,9342 8193,9300 8191,9272 8186,9248 8187,9241 8191,9235 8210,9219 8240,9204 8294,9181 8300,9163 8302,9147 8305,9137 8317,9121 8320,9109 8318,9089 8314,9067 8307,9046 8305,9043 8300,9041 8284,9038 8224,9040 8177,9045 8124,9053 8037,9070 8032,9069 8030,9065 8031,9057 8035,9038 8045,9008 8077,8979 8087,8969 8093,8960 8092,8953 8081,8943 8033,8922 7895,8881 7838,8866 7797,8857 7769,8850 7750,8843 7699,8835 7666,8828 7641,8820 7628,8812 7617,8804 7607,8799 7587,8794 7572,8784 7536,8762 7497,8730 7465,8698 7445,8671 7423,8641 7392,8604 7369,8575 7352,8547 7336,8521 7332,8502 7332,8499 7327,8476 7318,8439 7320,8418 7329,8398 7343,8395 7373,8408 7408,8403 7436,8403 7466,8394 7494,8361 7500,8340 7511,8327 7540,8318 7537,8297 7531,8268 7565,8241 7600,8207 7592,8191 7597,8163 7626,8160 7663,8185 7694,8190 7727,8207 7754,8199 7778,8205 7810,8209 7820,8223 7847,8237 7877,8241 7924,8255 7943,8243 7969,8241 7987,8248 7997,8251 8007,8237 7996,8212 7993,8178 8021,8164 8054,8150 8098,8139 8117,8125 8149,8115 8175,8110 8201,8089 8229,8070 8273,8025 8272,8006 8288,7991 8325,7963 8351,7933 8353,7932 8387,7919 8417,7920 8435,7913 8452,7898 8455,7873 8464,7844 8498,7860 8531,7853 8554,7857 8565,7866 8581,7884 8608,7892 8629,7906 8665,7932 8704,7922 8738,7907 8758,7896 8793,7918 8842,7924 8882,7904 8923,7898 8957,7895 8985,7907 9018,7918 9052,7912 9066,7876 9070,7846 9102,7848 9146,7864 9206,7880 9234,7899 9248,7930 9279,7934 9313,7908 9312,7860 9322,7843 9343,7848 9360,7872 9375,7857 9395,7820 9443,7811 9497,7825 " class="polyStyle" id="130730" style="fill:#f6f67b"/>
<path d="" class="polyStyle" id="130822" style="fill:#fbe6ef"/>
<polygon points="1880,6896 1909,6900 1938,6911 1966,6935 1995,6948 2023,6964 2050,6969 2075,6973 2109,6973 2138,6971 2169,6961 2200,6966 2232,6977 2261,6985 2289,6988 2319,6999 2346,7016 2371,7017 2398,7006 2426,7008 2457,7017 2487,7044 2504,7071 2533,7061 2558,7052 2607,7046 2617,7048 2628,7050 2632,7079 2654,7104 2662,7126 2649,7164 2668,7192 2726,7192 2754,7199 2797,7193 2839,7204 2870,7217 2896,7222 2923,7225 2967,7225 2995,7230 3024,7237 3061,7236 3087,7236 3130,7246 3165,7255 3205,7258 3235,7273 3268,7297 3301,7317 3329,7327 3356,7333 3388,7349 3421,7360 3453,7366 3481,7366 3512,7363 3544,7357 3570,7355 3599,7357 3643,7358 3671,7356 3700,7343 3734,7327 3773,7312 3803,7306 3839,7309 3873,7314 3902,7322 3927,7320 3959,7298 3986,7290 4014,7300 4044,7299 4079,7291 4104,7276 4137,7268 4171,7269 4205,7257 4233,7235 4266,7214 4296,7207 4321,7194 4352,7179 4386,7165 4420,7145 4459,7141 4494,7141 4523,7135 4551,7137 4578,7149 4615,7158 4651,7156 4679,7154 4710,7163 4744,7186 4760,7202 4777,7211 4765,7237 4766,7253 4755,7281 4721,7304 4714,7315 4721,7336 4746,7336 4758,7351 4766,7361 4789,7365 4813,7384 4835,7387 4864,7388 4882,7395 4877,7412 4851,7419 4833,7426 4823,7445 4794,7458 4782,7471 4783,7492 4773,7515 4747,7530 4744,7542 4751,7570 4770,7580 4800,7610 4821,7642 4834,7667 4856,7700 4847,7734 4840,7752 4824,7758 4829,7767 4844,7776 4846,7787 4845,7824 4846,7860 4824,7897 4812,7931 4811,7977 4819,8012 4794,8042 4791,8067 4798,8105 4814,8122 4843,8119 4870,8115 4878,8120 4888,8136 4889,8171 4884,8198 4857,8205 4827,8224 4802,8243 4754,8239 4704,8242 4637,8241 4627,8262 4646,8294 4670,8314 4673,8352 4671,8372 4624,8373 4600,8396 4593,8435 4587,8469 4556,8492 4509,8507 4501,8532 4482,8548 4449,8546 4413,8556 4380,8580 4387,8609 4395,8635 4406,8670 4418,8699 4443,8718 4473,8744 4458,8772 4443,8799 4469,8829 4457,8862 4428,8876 4401,8887 4366,8880 4341,8871 4310,8851 4285,8851 4254,8869 4226,8877 4195,8878 4169,8876 4141,8891 4135,8917 4107,8923 4077,8921 4051,8939 4026,8960 3999,8942 3973,8920 3945,8913 3918,8928 3900,8956 3865,8959 3834,8955 3809,8959 3775,8979 3749,8987 3717,8977 3686,8975 3657,8986 3627,9004 3602,9013 3566,9024 3538,9029 3536,9023 3532,9019 3448,8963 3432,8959 3408,8971 3360,8995 3320,9011 3278,9017 3246,9015 3230,8997 3216,8961 3198,8937 3142,8891 3112,8883 3092,8883 3082,8903 3062,8915 3048,8913 3010,8911 2988,8909 2980,8911 2975,8914 2966,8921 2936,8949 2898,8987 2878,8995 2874,8995 2868,8995 2863,8995 2806,8979 2796,8971 2794,8961 2792,8943 2784,8933 2772,8929 2752,8931 2742,8933 2728,8941 2718,8941 2704,8931 2676,8919 2656,8915 2628,8913 2596,8913 2474,8927 2458,8927 2452,8927 2436,8925 2426,8919 2414,8913 2406,8907 2400,8901 2394,8873 2396,8859 2398,8839 2398,8835 2398,8831 2386,8775 2376,8757 2354,8711 2344,8671 2336,8657 2316,8631 2312,8627 2310,8623 2310,8619 2310,8615 2310,8609 2312,8603 2318,8593 2320,8589 2326,8585 2338,8577 2346,8575 2356,8569 2366,8563 2372,8555 2376,8548 2376,8542 2376,8535 2374,8531 2374,8527 2372,8521 2372,8517 2362,8509 2344,8503 2328,8499 2322,8491 2314,8475 2312,8459 2306,8447 2302,8441 2274,8447 2252,8455 2242,8449 2238,8447 2232,8439 2224,8427 2224,8423 2216,8381 2220,8367 2224,8359 2240,8343 2244,8329 2242,8307 2244,8293 2260,8279 2278,8269 2294,8257 2302,8213 2312,8157 2312,8131 2310,8111 2326,8101 2342,8089 2352,8075 2356,8071 2360,8065 2364,8059 2364,8055 2362,8027 2350,7993 2318,7993 2288,7991 2260,7987 2254,7985 2249,7982 2246,7977 2246,7972 2246,7965 2246,7961 2250,7953 2254,7915 2276,7911 2260,7867 2261,7860 2264,7855 2269,7850 2274,7847 2278,7845 2292,7839 2306,7831 2310,7829 2314,7825 2316,7819 2316,7813 2312,7809 2298,7783 2302,7763 2292,7755 2276,7753 2258,7751 2240,7735 2220,7715 2215,7701 2210,7697 2206,7695 2200,7691 2177,7690 2145,7714 2140,7715 2134,7715 2130,7715 2124,7717 2096,7715 2076,7713 2066,7713 2056,7711 2048,7709 2040,7707 2034,7705 2030,7703 2024,7699 2000,7683 1928,7615 1922,7605 1923,7600 1926,7597 1930,7593 1934,7591 1940,7589 1950,7583 1960,7575 1960,7570 1960,7565 1956,7559 1954,7555 1952,7551 1948,7545 1946,7541 1938,7535 1926,7527 1908,7517 1890,7501 1836,7437 1826,7427 1782,7369 1758,7331 1746,7313 1744,7303 1748,7293 1752,7287 1756,7275 1754,7263 1752,7259 1746,7253 1734,7245 1714,7237 1704,7229 1700,7225 1686,7211 1666,7193 1658,7185 1652,7179 1630,7161 1590,7105 1568,7075 1579,7051 1583,7017 1598,6982 1624,6974 1650,6974 1682,6962 1708,6950 1737,6944 1767,6926 1797,6915 1825,6893 1854,6904 " class="polyStyle" id="130728" style="fill:#f6f67b"/>
<polygon points="6471,6610 6485,6636 6513,6652 6538,6664 6565,6669 6593,6684 6623,6690 6652,6695 6669,6732 6700,6745 6726,6746 6754,6747 6782,6747 6809,6733 6835,6737 6864,6737 6891,6740 6918,6748 6947,6757 6972,6762 7000,6761 7031,6770 7063,6774 7093,6757 7118,6753 7146,6759 7176,6754 7207,6746 7236,6722 7264,6702 7294,6701 7324,6717 7349,6725 7380,6724 7408,6731 7435,6745 7463,6765 7489,6771 7516,6776 7545,6774 7572,6763 7602,6772 7631,6779 7657,6788 7685,6803 7711,6826 7737,6844 7766,6851 7794,6852 7827,6841 7854,6825 7884,6818 7909,6811 7937,6800 7963,6793 7989,6782 8015,6771 8044,6768 8046,6782 8079,6783 8105,6777 8131,6781 8158,6805 8172,6832 8153,6860 8141,6894 8118,6921 8114,6948 8134,6974 8165,6984 8178,7013 8194,7041 8234,7043 8265,7046 8292,7053 8329,7074 8362,7103 8357,7131 8343,7161 8335,7197 8327,7224 8349,7253 8377,7281 8377,7307 8359,7303 8341,7316 8324,7324 8306,7333 8289,7341 8281,7351 8262,7354 8251,7370 8236,7372 8244,7352 8228,7334 8224,7308 8209,7296 8176,7280 8125,7272 8088,7276 8059,7289 8036,7306 8007,7321 7978,7329 7951,7331 7925,7337 7924,7322 7897,7326 7881,7325 7882,7310 7871,7299 7850,7306 7826,7310 7810,7315 7813,7335 7811,7357 7779,7373 7755,7375 7733,7367 7717,7368 7711,7383 7694,7393 7686,7406 7712,7403 7738,7412 7722,7424 7717,7438 7722,7454 7713,7485 7732,7506 7756,7534 7745,7553 7722,7581 7716,7606 7718,7631 7716,7649 7703,7646 7680,7621 7652,7624 7636,7612 7612,7592 7578,7577 7559,7587 7528,7587 7506,7599 7503,7615 7478,7616 7449,7613 7424,7616 7404,7621 7406,7634 7397,7644 7368,7639 7345,7652 7311,7678 7305,7700 7286,7720 7284,7732 7250,7746 7230,7759 7208,7771 7192,7757 7145,7769 7111,7766 7086,7774 7084,7790 7077,7802 7039,7795 7021,7800 6998,7811 6983,7829 6967,7848 6959,7861 6978,7867 6980,7875 6962,7897 6949,7927 6935,7950 6891,7983 6856,7984 6838,7997 6821,8013 6791,8012 6750,8021 6735,8027 6740,8041 6757,8044 6760,8056 6750,8079 6738,8087 6721,8097 6711,8110 6724,8122 6713,8143 6692,8141 6670,8147 6654,8166 6627,8178 6595,8169 6559,8159 6544,8174 6542,8196 6558,8223 6585,8229 6608,8234 6624,8249 6659,8246 6679,8233 6694,8250 6705,8239 6723,8217 6738,8201 6765,8209 6780,8222 6801,8229 6825,8223 6836,8228 6814,8237 6798,8258 6790,8292 6774,8310 6759,8337 6752,8367 6747,8386 6718,8393 6697,8403 6685,8418 6697,8446 6691,8470 6679,8490 6656,8492 6647,8478 6633,8481 6620,8495 6601,8496 6567,8503 6547,8520 6545,8547 6555,8573 6537,8604 6506,8623 6475,8629 6444,8647 6456,8675 6461,8708 6454,8735 6446,8770 6434,8800 6412,8834 6384,8854 6357,8864 6328,8860 6301,8834 6274,8814 6243,8798 6212,8792 6182,8809 6155,8836 6127,8870 6100,8888 6066,8900 6038,8907 6032,8937 6005,8943 5976,8955 5952,8981 5927,8973 5898,8944 5873,8926 5837,8929 5799,8940 5772,8948 5739,8955 5710,8965 5683,8971 5647,8984 5618,8997 5588,9024 5604,9049 5590,9079 5594,9113 5620,9129 5651,9140 5679,9148 5704,9146 5733,9158 5748,9189 5771,9214 5774,9241 5739,9254 5723,9295 5701,9322 5674,9347 5666,9361 5693,9399 5680,9419 5650,9425 5619,9443 5594,9457 5562,9471 5546,9500 5554,9532 5582,9565 5606,9586 5617,9621 5644,9644 5673,9657 5700,9686 5728,9720 5706,9746 5698,9775 5709,9801 5735,9829 5754,9860 5755,9892 5726,9898 5699,9890 5669,9911 5640,9905 5605,9914 5558,9911 5528,9941 5491,9946 5475,9923 5471,9899 5457,9869 5432,9857 5398,9834 5366,9818 5342,9813 5315,9823 5281,9834 5246,9856 5222,9868 5180,9889 5147,9901 5116,9926 5088,9939 5052,9952 5020,9962 4984,9973 4951,9961 4917,9932 4892,9913 4918,9902 4938,9869 4941,9840 4944,9813 4944,9785 4938,9758 4918,9730 4903,9701 4893,9669 4888,9641 4892,9614 4904,9582 4904,9545 4900,9509 4916,9475 4906,9456 4876,9415 4886,9386 4888,9358 4849,9348 4832,9320 4829,9286 4802,9254 4780,9214 4775,9180 4779,9148 4783,9121 4780,9084 4773,9059 4745,9031 4709,9008 4676,8990 4645,8974 4618,8961 4593,8947 4563,8927 4529,8909 4487,8896 4459,8872 4457,8862 4469,8829 4443,8799 4458,8772 4473,8744 4443,8718 4418,8699 4406,8670 4395,8635 4387,8609 4380,8580 4413,8556 4449,8546 4482,8548 4501,8532 4509,8507 4556,8492 4587,8469 4593,8435 4600,8396 4624,8373 4671,8372 4673,8352 4670,8314 4646,8294 4627,8262 4637,8241 4704,8242 4754,8239 4802,8243 4827,8224 4857,8205 4884,8198 4889,8171 4888,8136 4878,8120 4870,8115 4843,8119 4814,8122 4798,8105 4791,8067 4794,8042 4819,8012 4811,7977 4812,7931 4824,7897 4846,7860 4845,7824 4846,7787 4844,7776 4829,7767 4824,7758 4840,7752 4847,7734 4856,7700 4834,7667 4821,7642 4800,7610 4770,7580 4751,7570 4744,7542 4747,7530 4773,7515 4783,7492 4782,7471 4794,7458 4823,7445 4833,7426 4851,7419 4877,7412 4882,7395 4864,7388 4835,7387 4813,7384 4789,7365 4766,7361 4758,7351 4746,7336 4721,7336 4714,7315 4721,7304 4755,7281 4766,7253 4765,7237 4777,7211 4807,7226 4840,7240 4872,7249 4912,7260 4947,7277 4981,7290 5017,7313 5040,7303 5064,7273 5084,7229 5108,7197 5111,7173 5109,7153 5102,7142 5103,7131 5105,7114 5119,7094 5124,7071 5127,7068 5139,7056 5151,7060 5163,7079 5174,7088 5178,7076 5178,7059 5194,7058 5225,7080 5255,7090 5280,7098 5296,7078 5320,7089 5346,7106 5371,7123 5408,7137 5423,7152 5426,7134 5440,7115 5452,7129 5464,7147 5480,7169 5505,7192 5530,7210 5573,7234 5602,7249 5630,7251 5655,7259 5684,7282 5716,7303 5737,7301 5747,7309 5741,7324 5717,7332 5707,7343 5708,7366 5697,7385 5670,7380 5637,7378 5592,7370 5563,7378 5533,7407 5555,7425 5574,7438 5570,7457 5584,7486 5588,7503 5557,7491 5543,7500 5537,7515 5587,7530 5650,7556 5680,7576 5711,7590 5742,7613 5779,7642 5819,7663 5863,7689 5901,7711 5936,7727 5970,7747 6010,7760 6046,7780 6081,7797 6106,7806 6144,7820 6187,7835 6223,7855 6258,7873 6292,7898 6317,7930 6344,7958 6373,7985 6399,7992 6429,8004 6454,7997 6476,7986 6482,7961 6491,7952 6518,7951 6533,7941 6522,7926 6519,7906 6522,7879 6496,7874 6482,7857 6496,7844 6499,7831 6517,7821 6542,7821 6556,7842 6570,7863 6596,7858 6611,7871 6620,7862 6618,7847 6613,7822 6616,7790 6611,7745 6612,7713 6615,7682 6610,7652 6607,7627 6617,7598 6622,7560 6627,7537 6648,7527 6660,7511 6643,7509 6626,7521 6607,7522 6597,7533 6582,7541 6582,7554 6571,7575 6547,7576 6515,7565 6510,7541 6506,7517 6487,7518 6447,7522 6431,7519 6430,7501 6432,7475 6402,7440 6379,7419 6365,7406 6354,7396 6337,7373 6329,7362 6290,7355 6260,7349 6252,7333 6239,7321 6203,7318 6185,7322 6175,7345 6157,7351 6138,7357 6111,7386 6080,7397 6061,7397 6035,7405 6006,7426 5980,7430 5965,7422 5952,7414 5950,7398 5938,7386 5910,7353 5880,7336 5846,7325 5813,7323 5782,7316 5751,7298 5775,7278 5774,7255 5790,7245 5805,7217 5813,7177 5827,7148 5824,7114 5811,7088 5781,7062 5750,7035 5729,7023 5718,7000 5698,6986 5669,6981 5647,6968 5629,6967 5621,6956 5625,6933 5637,6928 5661,6907 5678,6892 5696,6874 5714,6854 5740,6839 5750,6827 5731,6811 5694,6780 5678,6751 5675,6726 5666,6700 5677,6673 5689,6636 5710,6646 5737,6659 5765,6671 5795,6661 5819,6635 5853,6626 5880,6627 5912,6621 5939,6618 5968,6627 6007,6649 6033,6668 6060,6680 6087,6686 6116,6687 6141,6683 6167,6673 6195,6667 6225,6664 6256,6659 6285,6654 6314,6646 6341,6630 6368,6603 6394,6584 6420,6577 6451,6585 " class="polyStyle" id="130721" style="fill:#fbe6ef"/>
<polygon points="4293,5643 4329,5646 4363,5653 4400,5663 4442,5670 4482,5675 4515,5677 4542,5676 4572,5673 4608,5683 4633,5692 4683,5703 4711,5706 4744,5714 4778,5731 4792,5736 4824,5758 4854,5787 4880,5812 4904,5839 4914,5865 4911,5894 4910,5911 4910,5920 4897,5918 4874,5938 4858,5959 4841,5961 4820,5971 4823,5988 4821,6004 4818,6020 4835,6019 4860,6016 4862,6040 4849,6070 4861,6102 4862,6128 4864,6154 4855,6183 4853,6213 4827,6227 4810,6252 4823,6270 4837,6295 4864,6318 4890,6335 4919,6367 4936,6402 4961,6418 4956,6426 4935,6429 4907,6436 4900,6451 4913,6469 4945,6501 4970,6537 5000,6557 5022,6583 5037,6611 5056,6639 5070,6672 5085,6711 5086,6740 5063,6757 5058,6773 5060,6802 5041,6830 5016,6843 4998,6832 4982,6843 4985,6861 4992,6872 5011,6901 5024,6923 5018,6935 4999,6947 4968,6956 4965,6973 4938,6987 4914,6995 4901,7013 4879,7018 4862,7027 4882,7039 4895,7055 4910,7084 4910,7112 4901,7123 4901,7143 4893,7152 4916,7152 4911,7172 4901,7184 4884,7183 4862,7173 4849,7168 4849,7183 4861,7191 4858,7206 4856,7220 4840,7240 4807,7226 4777,7211 4760,7202 4744,7186 4710,7163 4679,7154 4651,7156 4615,7158 4578,7149 4551,7137 4523,7135 4494,7141 4459,7141 4420,7145 4386,7165 4352,7179 4321,7194 4296,7207 4266,7214 4233,7235 4205,7257 4171,7269 4137,7268 4104,7276 4079,7291 4044,7299 4014,7300 3986,7290 3959,7298 3927,7320 3902,7322 3873,7314 3839,7309 3803,7306 3773,7312 3734,7327 3700,7343 3671,7356 3643,7358 3599,7357 3570,7355 3544,7357 3512,7363 3481,7366 3453,7366 3421,7360 3388,7349 3356,7333 3329,7327 3301,7317 3268,7297 3235,7273 3205,7258 3165,7255 3130,7246 3087,7236 3061,7236 3024,7237 2995,7230 2967,7225 2923,7225 2896,7222 2870,7217 2839,7204 2797,7193 2754,7199 2726,7192 2668,7192 2649,7164 2662,7126 2654,7104 2632,7079 2628,7050 2656,7055 2697,7049 2738,7038 2761,7013 2770,6986 2769,6958 2771,6932 2776,6903 2784,6878 2798,6853 2823,6822 2819,6794 2816,6764 2810,6736 2796,6708 2783,6678 2757,6667 2729,6644 2735,6616 2725,6588 2736,6563 2728,6534 2718,6507 2718,6480 2717,6454 2722,6429 2737,6403 2765,6381 2791,6387 2818,6381 2842,6354 2869,6344 2898,6329 2929,6297 2942,6271 2956,6244 2976,6217 2996,6191 3015,6164 3023,6137 3032,6110 3042,6082 3058,6054 3076,6026 3103,5999 3128,5987 3154,5983 3181,5985 3210,5983 3240,5978 3267,5976 3294,5968 3325,5950 3353,5923 3382,5895 3409,5869 3435,5852 3464,5843 3493,5842 3519,5822 3524,5797 3528,5770 3556,5756 3584,5759 3612,5766 3642,5769 3673,5767 3700,5764 3727,5760 3753,5757 3780,5762 3809,5766 3834,5768 3863,5757 3889,5748 3916,5745 3942,5744 3969,5741 3996,5736 4025,5724 4056,5707 4084,5694 4114,5681 4148,5670 4174,5660 4199,5647 4237,5638 4263,5640 " class="polyStyle" id="130729" style="fill:#d4ecb2"/>
<polygon points="8377,4298 8414,4303 8442,4323 8476,4335 8505,4338 8535,4325 8563,4321 8589,4316 8622,4305 8632,4333 8616,4365 8616,4396 8644,4437 8687,4458 8735,4465 8721,4481 8715,4483 8682,4491 8651,4497 8621,4499 8592,4503 8557,4510 8524,4518 8496,4524 8470,4530 8441,4546 8414,4573 8386,4597 8361,4626 8334,4650 8327,4678 8344,4703 8371,4721 8396,4749 8403,4777 8413,4802 8418,4810 8433,4838 8448,4869 8444,4895 8433,4931 8451,4961 8474,4987 8479,5012 8487,5040 8513,5080 8499,5104 8466,5137 8450,5164 8435,5189 8437,5216 8414,5244 8382,5266 8389,5295 8365,5333 8374,5360 8401,5385 8414,5407 8404,5460 8396,5486 8384,5512 8352,5530 8340,5556 8322,5585 8331,5615 8338,5643 8322,5671 8309,5703 8309,5728 8309,5736 8284,5764 8261,5790 8263,5817 8274,5843 8288,5873 8286,5900 8315,5907 8345,5909 8374,5909 8402,5933 8414,5939 8447,5949 8452,5977 8478,5997 8450,6028 8445,6065 8463,6091 8457,6128 8449,6164 8431,6202 8414,6215 8383,6225 8350,6230 8325,6255 8298,6283 8271,6301 8244,6312 8214,6311 8192,6340 8166,6359 8137,6370 8112,6387 8086,6415 8065,6442 8071,6473 8093,6504 8087,6531 8094,6562 8063,6589 8044,6616 8034,6644 8039,6674 8024,6705 8049,6732 8060,6759 8044,6768 8015,6771 7989,6782 7963,6793 7937,6800 7909,6811 7884,6818 7854,6825 7827,6841 7794,6852 7766,6851 7737,6844 7711,6826 7685,6803 7657,6788 7631,6779 7602,6772 7572,6763 7545,6774 7516,6776 7489,6771 7463,6765 7435,6745 7408,6731 7380,6724 7349,6725 7324,6717 7294,6701 7264,6702 7236,6722 7207,6746 7176,6754 7146,6759 7118,6753 7093,6757 7063,6774 7031,6770 7000,6761 6972,6762 6947,6757 6918,6748 6891,6740 6864,6737 6835,6737 6809,6733 6782,6747 6754,6747 6726,6746 6700,6745 6669,6732 6652,6695 6623,6690 6593,6684 6565,6669 6538,6664 6513,6652 6485,6636 6471,6610 6451,6585 6420,6577 6394,6584 6368,6603 6341,6630 6314,6646 6285,6654 6256,6659 6225,6664 6195,6667 6167,6673 6141,6683 6116,6687 6087,6686 6060,6680 6033,6668 6007,6649 5968,6627 5939,6618 5912,6621 5880,6627 5853,6626 5819,6635 5795,6661 5765,6671 5737,6659 5710,6646 5689,6636 5653,6623 5626,6613 5595,6595 5575,6584 5548,6569 5520,6554 5505,6535 5525,6504 5535,6487 5536,6467 5553,6453 5538,6456 5526,6458 5509,6450 5487,6445 5465,6435 5445,6421 5411,6399 5388,6390 5386,6370 5360,6351 5346,6356 5329,6335 5320,6319 5296,6318 5279,6308 5265,6285 5277,6264 5276,6235 5251,6209 5247,6188 5221,6165 5170,6153 5139,6154 5100,6144 5083,6138 5075,6149 5063,6143 5049,6108 5024,6089 5004,6057 4979,6020 4949,5984 4938,5957 4935,5909 4947,5915 4960,5902 4953,5881 4970,5873 5008,5863 5036,5856 5050,5872 5063,5869 5073,5856 5082,5844 5079,5824 5061,5810 5034,5809 5018,5796 4999,5784 4960,5783 4918,5768 4879,5737 4870,5708 4866,5682 4860,5645 4856,5620 4883,5591 4910,5574 4935,5556 4962,5543 4988,5538 5031,5533 5059,5540 5089,5549 5116,5547 5142,5536 5167,5529 5193,5522 5218,5518 5251,5517 5286,5523 5318,5534 5350,5543 5390,5557 5416,5517 5461,5492 5506,5506 5546,5536 5578,5549 5615,5535 5648,5511 5666,5472 5700,5445 5721,5416 5734,5392 5739,5366 5745,5333 5748,5302 5749,5265 5770,5238 5803,5212 5844,5178 5861,5152 5881,5112 5905,5078 5938,5063 5964,5052 5990,5041 6021,5050 6070,5032 6071,5003 6104,4977 6131,4952 6130,4922 6148,4896 6179,4888 6183,4859 6209,4841 6224,4814 6201,4792 6172,4767 6148,4750 6121,4749 6084,4769 6052,4758 6040,4715 6044,4684 6088,4662 6118,4644 6151,4638 6158,4610 6171,4578 6199,4563 6228,4543 6237,4517 6264,4498 6297,4497 6351,4522 6389,4514 6419,4509 6452,4514 6492,4512 6518,4485 6521,4456 6542,4429 6574,4429 6602,4441 6630,4446 6646,4483 6682,4509 6711,4528 6735,4555 6762,4578 6788,4576 6820,4576 6847,4584 6873,4581 6886,4552 6920,4539 6960,4536 7002,4519 7033,4507 7073,4509 7110,4519 7139,4533 7166,4536 7200,4530 7237,4504 7265,4520 7312,4521 7343,4524 7378,4514 7407,4498 7434,4492 7464,4476 7490,4471 7521,4472 7556,4483 7584,4516 7589,4550 7591,4585 7602,4611 7636,4615 7665,4613 7700,4598 7713,4568 7740,4558 7769,4542 7800,4527 7843,4526 7876,4536 7911,4556 7949,4587 7965,4557 7986,4527 8019,4520 8056,4515 8100,4507 8075,4468 8085,4433 8130,4398 8176,4387 8206,4385 8220,4367 8216,4334 8225,4305 8259,4295 8337,4317 " class="polyStyle" id="130733" style="fill:#f6f67b"/>
<polygon points="1498,3074 1530,3086 1542,3092 1568,3098 1594,3102 1604,3104 1672,3116 1791,3136 1816,3140 1870,3150 1886,3152 1896,3156 1910,3166 1926,3180 1944,3194 1931,3212 1903,3243 1871,3261 1843,3291 1846,3319 1873,3338 1882,3366 1900,3403 1866,3415 1837,3428 1809,3421 1784,3431 1797,3457 1829,3481 1860,3475 1886,3461 1932,3484 1969,3501 1996,3520 1971,3542 1942,3572 1973,3591 1996,3617 1998,3644 2013,3670 2015,3699 2015,3729 1991,3755 1996,3782 2008,3811 2033,3830 2063,3837 2095,3846 2124,3864 2139,3892 2144,3920 2162,3951 2184,3978 2210,3988 2239,3986 2264,3996 2290,4009 2316,4019 2346,4029 2370,4063 2390,4099 2412,4130 2429,4160 2448,4188 2457,4220 2455,4261 2435,4303 2419,4339 2389,4379 2362,4407 2340,4433 2304,4463 2267,4521 2265,4548 2270,4580 2278,4605 2305,4623 2322,4651 2333,4696 2357,4724 2382,4743 2397,4778 2404,4803 2422,4833 2440,4859 2482,4871 2519,4880 2560,4890 2586,4904 2631,4935 2676,4970 2717,5003 2734,5022 2728,5064 2724,5108 2677,5131 2647,5154 2649,5182 2674,5215 2702,5236 2730,5267 2735,5293 2707,5315 2667,5288 2635,5295 2632,5315 2659,5342 2662,5369 2654,5396 2656,5424 2649,5459 2648,5514 2643,5557 2643,5598 2655,5626 2675,5658 2693,5692 2699,5727 2697,5736 2727,5749 2768,5760 2797,5759 2832,5750 2861,5752 2891,5748 2908,5772 2893,5798 2910,5830 2960,5871 3021,5891 3054,5909 3081,5932 3106,5961 3128,5987 3103,5999 3076,6026 3058,6054 3042,6082 3032,6110 3023,6137 3015,6164 2996,6191 2976,6217 2956,6244 2942,6271 2929,6297 2898,6329 2869,6344 2842,6354 2818,6381 2791,6387 2765,6381 2737,6403 2722,6429 2717,6454 2718,6480 2718,6507 2728,6534 2736,6563 2725,6588 2735,6616 2729,6644 2757,6667 2783,6678 2796,6708 2810,6736 2816,6764 2819,6794 2823,6822 2798,6853 2784,6878 2776,6903 2771,6932 2769,6958 2770,6986 2761,7013 2738,7038 2697,7049 2656,7055 2628,7050 2617,7048 2607,7046 2558,7052 2533,7061 2504,7071 2487,7044 2457,7017 2426,7008 2398,7006 2371,7017 2346,7016 2319,6999 2289,6988 2261,6985 2232,6977 2200,6966 2169,6961 2138,6971 2109,6973 2075,6973 2050,6969 2023,6964 1995,6948 1966,6935 1938,6911 1909,6900 1880,6896 1854,6904 1825,6893 1797,6915 1767,6926 1737,6944 1708,6950 1682,6962 1650,6974 1624,6974 1598,6982 1583,7017 1579,7051 1568,7075 1554,7057 1548,7049 1522,7022 1516,7018 1504,7004 1480,6986 1466,6980 1416,6960 1398,6950 1384,6938 1380,6926 1378,6906 1378,6894 1388,6872 1402,6854 1402,6834 1406,6820 1404,6776 1400,6770 1398,6766 1392,6762 1378,6760 1356,6762 1330,6770 1292,6792 1286,6794 1278,6794 1274,6796 1266,6792 1248,6776 1198,6708 1178,6684 1164,6668 1154,6642 1136,6620 1116,6614 1104,6598 1100,6592 1104,6582 1136,6552 1160,6532 1164,6530 1188,6528 1204,6520 1246,6494 1256,6482 1254,6474 1244,6468 1206,6456 1166,6422 1144,6398 1140,6388 1120,6320 1140,6282 1116,6252 1088,6226 1086,6218 1078,6192 1066,6152 1066,6148 1074,6142 1108,6132 1138,6124 1158,6122 1164,6122 1166,6116 1158,6102 1148,6092 1134,6082 1122,6082 1114,6082 1096,6082 1072,6084 1020,6080 942,6074 936,6070 912,6044 888,6012 882,6008 872,6008 866,6012 858,6024 856,6034 851,6053 840,6052 782,6032 776,6028 774,6022 772,6008 774,5994 778,5966 778,5950 788,5878 788,5852 790,5844 788,5830 786,5820 766,5778 764,5774 754,5766 750,5764 724,5808 702,5802 658,5728 618,5710 570,5692 546,5686 536,5682 526,5678 514,5672 504,5666 494,5656 482,5636 474,5628 472,5614 468,5598 484,5588 486,5570 446,5568 398,5546 390,5536 378,5510 374,5508 360,5532 352,5534 346,5532 338,5524 334,5514 330,5504 310,5476 302,5468 296,5460 282,5452 274,5448 250,5446 245,5446 232,5444 228,5440 238,5414 236,5402 202,5358 190,5352 184,5354 148,5354 114,5362 88,5370 84,5366 82,5362 80,5344 60,5320 38,5300 28,5290 6,5276 0,5260 0,5246 6,5238 22,5228 60,5206 76,5200 86,5198 122,5200 152,5200 172,5202 202,5210 244,5198 264,5206 288,5220 298,5218 300,5212 300,5206 292,5194 276,5182 270,5172 284,5112 286,5096 292,5082 294,5074 300,5066 310,5066 330,5076 348,5078 366,5076 382,5064 394,5042 410,4986 406,4960 396,4950 378,4936 376,4930 386,4918 426,4936 456,4894 540,4874 552,4868 564,4862 592,4850 606,4848 616,4854 650,4880 666,4888 676,4886 692,4884 726,4868 736,4860 774,4840 796,4832 816,4832 844,4834 866,4832 882,4824 896,4814 906,4792 904,4776 900,4758 900,4742 906,4726 924,4650 932,4612 936,4596 930,4564 910,4494 909,4489 898,4485 878,4468 869,4455 861,4436 852,4415 845,4406 835,4401 824,4398 815,4397 806,4398 791,4398 781,4400 766,4404 762,4416 760,4424 758,4444 760,4470 746,4488 738,4512 738,4536 734,4550 716,4552 690,4536 683,4481 655,4474 628,4447 638,4440 638,4428 638,4338 660,4328 658,4316 648,4308 610,4294 574,4276 556,4274 536,4274 454,4282 440,4281 436,4273 419,4248 413,4240 393,4211 386,4188 382,4169 387,4154 403,4147 444,4135 464,4127 469,4115 473,4106 482,4105 496,4106 503,4094 498,4066 503,4042 515,4019 537,3998 559,3977 564,3950 560,3918 557,3891 558,3874 569,3845 585,3819 604,3804 611,3794 610,3785 595,3772 558,3772 534,3770 514,3758 484,3736 468,3728 446,3722 292,3694 238,3686 232,3682 232,3676 244,3630 252,3612 264,3576 276,3562 304,3548 322,3538 370,3528 420,3516 442,3506 462,3490 474,3476 482,3462 494,3430 510,3380 522,3340 528,3322 536,3316 546,3312 562,3312 574,3318 592,3328 616,3332 634,3332 640,3332 646,3330 654,3326 666,3314 734,3262 746,3250 754,3238 760,3230 764,3224 768,3216 776,3210 794,3206 830,3196 850,3188 884,3178 890,3172 894,3156 902,3150 914,3148 930,3150 942,3152 958,3150 962,3148 968,3144 982,3136 1000,3124 1036,3102 1060,3112 1066,3088 1075,3082 1078,3084 1086,3084 1095,3093 1114,3110 1122,3114 1136,3116 1152,3118 1168,3116 1190,3096 1208,3090 1226,3090 1262,3090 1274,3094 1288,3104 1298,3110 1302,3112 1306,3110 1352,3070 1376,3062 1400,3060 1418,3060 1452,3064 " class="polyStyle" id="130725" style="fill:#f8c67d"/>
<polygon points="2762,2903 2791,2923 2824,2945 2864,2966 2896,2996 2927,3027 2952,3056 2977,3080 3008,3105 3036,3127 3064,3152 3093,3180 3130,3208 3161,3229 3223,3271 3249,3289 3280,3313 3311,3340 3323,3369 3353,3398 3380,3432 3382,3472 3401,3497 3429,3503 3454,3521 3481,3546 3502,3580 3522,3606 3554,3611 3581,3600 3612,3587 3648,3561 3686,3535 3720,3524 3753,3518 3783,3511 3816,3505 3845,3503 3878,3507 3909,3500 3949,3507 3976,3499 4008,3478 4041,3476 4071,3479 4090,3450 4112,3423 4145,3421 4171,3419 4198,3405 4230,3392 4260,3388 4294,3388 4323,3378 4357,3380 4388,3385 4423,3396 4452,3394 4493,3402 4524,3411 4552,3419 4579,3421 4612,3404 4639,3396 4666,3388 4696,3390 4728,3389 4755,3387 4782,3385 4823,3374 4859,3366 4891,3353 4941,3350 4973,3345 5015,3329 5032,3303 5044,3272 5055,3246 5086,3216 5112,3197 5135,3174 5162,3174 5203,3164 5229,3154 5271,3157 5286,3182 5292,3220 5290,3252 5334,3271 5363,3268 5396,3270 5423,3271 5443,3244 5475,3237 5511,3247 5543,3244 5565,3269 5597,3280 5624,3307 5655,3303 5683,3286 5730,3278 5728,3244 5692,3229 5660,3218 5629,3209 5603,3211 5574,3202 5548,3190 5534,3162 5541,3132 5570,3105 5597,3105 5622,3089 5648,3089 5675,3098 5679,3129 5697,3154 5725,3170 5763,3185 5796,3167 5830,3139 5860,3113 5892,3104 5890,3131 5925,3143 5970,3131 5998,3104 6035,3100 6069,3104 6105,3104 6142,3126 6185,3156 6214,3159 6246,3161 6284,3175 6320,3203 6353,3210 6381,3207 6448,3202 6488,3203 6519,3202 6560,3208 6605,3220 6642,3232 6678,3238 6714,3220 6744,3202 6776,3194 6802,3183 6832,3172 6857,3171 6882,3189 6911,3210 6942,3240 6972,3248 6997,3253 7052,3263 7089,3279 7130,3273 7171,3282 7197,3294 7230,3301 7263,3312 7280,3343 7281,3370 7306,3392 7338,3416 7376,3416 7406,3432 7423,3467 7436,3495 7473,3513 7489,3544 7476,3572 7492,3598 7523,3624 7555,3637 7580,3627 7608,3609 7638,3635 7678,3654 7731,3672 7757,3679 7785,3685 7818,3681 7842,3707 7865,3734 7891,3752 7898,3779 7924,3799 7949,3824 7971,3854 7980,3880 8007,3897 8023,3928 8049,3922 8092,3947 8109,3977 8096,4006 8118,4038 8127,4074 8130,4106 8162,4122 8185,4149 8194,4176 8185,4203 8179,4229 8182,4262 8167,4287 8124,4312 8120,4349 8160,4376 8176,4387 8130,4398 8085,4433 8075,4468 8100,4507 8056,4515 8019,4520 7986,4527 7965,4557 7949,4587 7911,4556 7876,4536 7843,4526 7800,4527 7769,4542 7740,4558 7713,4568 7700,4598 7665,4613 7636,4615 7602,4611 7591,4585 7589,4550 7584,4516 7556,4483 7521,4472 7490,4471 7464,4476 7434,4492 7407,4498 7378,4514 7343,4524 7312,4521 7265,4520 7237,4504 7200,4530 7166,4536 7139,4533 7110,4519 7073,4509 7033,4507 7002,4519 6960,4536 6920,4539 6886,4552 6873,4581 6847,4584 6820,4576 6788,4576 6762,4578 6735,4555 6711,4528 6682,4509 6646,4483 6630,4446 6602,4441 6574,4429 6542,4429 6521,4456 6518,4485 6492,4512 6452,4514 6419,4509 6389,4514 6351,4522 6297,4497 6264,4498 6237,4517 6228,4543 6199,4563 6171,4578 6158,4610 6151,4638 6118,4644 6088,4662 6044,4684 6040,4715 6052,4758 6084,4769 6121,4749 6148,4750 6172,4767 6201,4792 6224,4814 6209,4841 6183,4859 6179,4888 6148,4896 6130,4922 6131,4952 6104,4977 6071,5003 6070,5032 6021,5050 5990,5041 5964,5052 5938,5063 5905,5078 5881,5112 5861,5152 5844,5178 5803,5212 5770,5238 5749,5265 5748,5302 5745,5333 5739,5366 5734,5392 5721,5416 5700,5445 5666,5472 5648,5511 5615,5535 5578,5549 5546,5536 5506,5506 5461,5492 5416,5517 5390,5557 5350,5543 5318,5534 5286,5523 5251,5517 5218,5518 5193,5522 5167,5529 5142,5536 5116,5547 5089,5549 5059,5540 5031,5533 4988,5538 4962,5543 4935,5556 4910,5574 4883,5591 4856,5620 4860,5645 4866,5682 4870,5708 4879,5737 4918,5768 4960,5783 4999,5784 5018,5796 5034,5809 5061,5810 5079,5824 5082,5844 5073,5856 5063,5869 5050,5872 5036,5856 5008,5863 4970,5873 4953,5881 4960,5902 4947,5915 4935,5909 4929,5906 4910,5911 4911,5894 4914,5865 4904,5839 4880,5812 4854,5787 4824,5758 4792,5736 4778,5731 4744,5714 4711,5706 4683,5703 4633,5692 4608,5683 4572,5673 4542,5676 4515,5677 4482,5675 4442,5670 4400,5663 4363,5653 4329,5646 4293,5643 4263,5640 4237,5638 4199,5647 4174,5660 4148,5670 4114,5681 4084,5694 4056,5707 4025,5724 3996,5736 3969,5741 3942,5744 3916,5745 3889,5748 3863,5757 3834,5768 3809,5766 3780,5762 3753,5757 3727,5760 3700,5764 3673,5767 3642,5769 3612,5766 3584,5759 3556,5756 3528,5770 3524,5797 3519,5822 3493,5842 3464,5843 3435,5852 3409,5869 3382,5895 3353,5923 3325,5950 3294,5968 3267,5976 3240,5978 3210,5983 3181,5985 3154,5983 3128,5987 3106,5961 3081,5932 3054,5909 3021,5891 2960,5871 2910,5830 2893,5798 2908,5772 2891,5748 2861,5752 2832,5750 2797,5759 2768,5760 2727,5749 2697,5736 2699,5727 2693,5692 2675,5658 2655,5626 2643,5598 2643,5557 2648,5514 2649,5459 2656,5424 2654,5396 2662,5369 2659,5342 2632,5315 2635,5295 2667,5288 2707,5315 2735,5293 2730,5267 2702,5236 2674,5215 2649,5182 2647,5154 2677,5131 2724,5108 2728,5064 2734,5022 2717,5003 2676,4970 2631,4935 2586,4904 2560,4890 2519,4880 2482,4871 2440,4859 2422,4833 2404,4803 2397,4778 2382,4743 2357,4724 2333,4696 2322,4651 2305,4623 2278,4605 2270,4580 2265,4548 2267,4521 2304,4463 2340,4433 2362,4407 2389,4379 2419,4339 2435,4303 2455,4261 2457,4220 2448,4188 2429,4160 2412,4130 2390,4099 2370,4063 2346,4029 2316,4019 2290,4009 2264,3996 2239,3986 2210,3988 2184,3978 2162,3951 2144,3920 2139,3892 2124,3864 2095,3846 2063,3837 2033,3830 2008,3811 1996,3782 1991,3755 2015,3729 2015,3699 2013,3670 1998,3644 1996,3617 1973,3591 1942,3572 1971,3542 1996,3520 1969,3501 1932,3484 1886,3461 1860,3475 1829,3481 1797,3457 1784,3431 1809,3421 1837,3428 1866,3415 1900,3403 1882,3366 1873,3338 1846,3319 1843,3291 1871,3261 1903,3243 1931,3212 1944,3194 1956,3198 1972,3194 1994,3192 2020,3186 2032,3182 2034,3176 2033,3156 2091,3192 2121,3197 2144,3165 2140,3138 2141,3112 2167,3107 2197,3115 2229,3112 2245,3083 2272,3084 2299,3081 2330,3088 2357,3087 2387,3090 2413,3084 2459,3053 2495,3064 2512,3038 2524,3009 2547,2981 2574,2976 2603,2933 2629,2917 2657,2899 2694,2879 2736,2884 " class="polyStyle" id="130722" style="fill:#ee8b94"/>
<polygon points="10513,1060 10515,1066 10519,1080 10525,1096 10527,1104 10541,1136 10545,1152 10549,1162 10551,1170 10555,1176 10557,1184 10567,1204 10573,1214 10589,1238 10605,1262 10613,1272 10619,1278 10631,1294 10671,1354 10689,1386 10703,1402 10713,1416 10759,1462 10775,1478 10791,1506 10807,1526 10839,1568 10887,1608 10885,1682 10887,1694 10887,1712 10889,1726 10893,1740 10937,1822 10953,1854 10957,1858 10961,1862 10962,1864 11049,1866 11047,1844 11049,1836 11063,1834 11103,1836 11155,1836 11177,1838 11191,1840 11291,1840 11297,1842 11295,1850 11292,1854 11260,1891 11240,1926 11227,1952 11208,1982 11195,2019 11169,2051 11140,2079 11113,2089 11084,2110 11059,2130 11034,2152 11008,2168 10982,2183 10954,2209 10928,2225 10900,2242 10867,2263 10842,2278 10811,2300 10786,2317 10758,2335 10731,2362 10705,2380 10677,2403 10652,2421 10619,2440 10592,2457 10562,2473 10537,2485 10508,2493 10479,2507 10451,2515 10425,2539 10439,2564 10449,2590 10457,2615 10469,2644 10485,2685 10494,2712 10512,2742 10520,2769 10514,2795 10489,2832 10498,2860 10499,2888 10522,2922 10548,2924 10581,2918 10616,2940 10641,2967 10668,2985 10695,2994 10730,3013 10735,3040 10742,3075 10757,3104 10767,3132 10767,3161 10791,3187 10792,3214 10780,3242 10787,3269 10809,3296 10820,3322 10817,3348 10798,3377 10814,3408 10842,3419 10873,3421 10902,3439 10931,3463 10924,3490 10919,3516 10931,3542 10929,3569 10935,3594 10968,3600 10996,3624 11021,3628 11046,3638 11057,3666 11070,3692 11072,3720 11080,3747 11094,3774 11115,3801 11099,3808 11065,3834 11037,3853 11024,3884 11034,3911 11009,3945 11001,3972 11000,3999 10992,4026 10966,4055 10965,4082 10969,4115 10947,4143 10921,4165 10894,4182 10867,4202 10844,4233 10812,4219 10776,4211 10749,4211 10717,4237 10713,4266 10707,4299 10704,4326 10700,4353 10682,4378 10668,4405 10665,4433 10669,4462 10681,4493 10681,4519 10663,4548 10637,4554 10605,4549 10577,4545 10550,4540 10525,4539 10499,4558 10473,4570 10441,4570 10411,4575 10382,4565 10359,4538 10336,4512 10318,4479 10297,4448 10268,4422 10240,4398 10215,4376 10186,4367 10160,4361 10129,4353 10092,4348 10063,4358 10036,4369 10005,4352 9992,4320 9976,4288 9954,4260 9934,4235 9908,4206 9902,4180 9885,4145 9878,4118 9851,4089 9817,4081 9787,4056 9764,4037 9737,4019 9721,3988 9692,3964 9663,3956 9643,3929 9618,3910 9586,3903 9552,3899 9523,3898 9497,3904 9469,3931 9441,3948 9409,3956 9376,3960 9353,3985 9343,4018 9316,4036 9289,4054 9264,4081 9238,4099 9213,4122 9186,4149 9156,4151 9130,4150 9103,4146 9072,4143 9038,4141 9009,4146 8980,4171 8981,4198 8959,4231 8937,4257 8910,4278 8880,4293 8848,4306 8832,4331 8837,4359 8843,4385 8834,4410 8806,4411 8775,4433 8748,4450 8735,4465 8687,4458 8644,4437 8616,4396 8616,4365 8632,4333 8622,4305 8589,4316 8563,4321 8535,4325 8505,4338 8476,4335 8442,4323 8414,4303 8377,4298 8337,4317 8259,4295 8225,4305 8216,4334 8220,4367 8206,4385 8176,4387 8160,4376 8120,4349 8124,4312 8167,4287 8182,4262 8179,4229 8185,4203 8194,4176 8185,4149 8162,4122 8130,4106 8127,4074 8118,4038 8096,4006 8109,3977 8092,3947 8049,3922 8023,3928 8007,3897 7980,3880 7971,3854 7949,3824 7924,3799 7898,3779 7891,3752 7865,3734 7842,3707 7818,3681 7785,3685 7757,3679 7731,3672 7678,3654 7638,3635 7608,3609 7580,3627 7555,3637 7523,3624 7492,3598 7476,3572 7489,3544 7473,3513 7436,3495 7423,3467 7406,3432 7376,3416 7338,3416 7306,3392 7281,3370 7280,3343 7263,3312 7230,3301 7197,3294 7171,3282 7130,3273 7089,3279 7052,3263 6997,3253 6972,3248 6942,3240 6911,3210 6882,3189 6857,3171 6832,3172 6802,3183 6776,3194 6744,3202 6714,3220 6678,3238 6642,3232 6605,3220 6560,3208 6519,3202 6488,3203 6448,3202 6381,3207 6353,3210 6320,3203 6284,3175 6246,3161 6214,3159 6185,3156 6142,3126 6105,3104 6069,3104 6035,3100 5998,3104 5970,3131 5925,3143 5890,3131 5892,3104 5860,3113 5830,3139 5796,3167 5763,3185 5725,3170 5697,3154 5679,3129 5675,3098 5648,3089 5622,3089 5597,3105 5570,3105 5541,3132 5534,3162 5548,3190 5574,3202 5603,3211 5629,3209 5660,3218 5692,3229 5728,3244 5730,3278 5683,3286 5655,3303 5624,3307 5597,3280 5565,3269 5543,3244 5511,3247 5475,3237 5443,3244 5423,3271 5396,3270 5363,3268 5334,3271 5290,3252 5292,3220 5286,3182 5271,3157 5229,3154 5203,3164 5162,3174 5135,3174 5141,3144 5133,3116 5142,3089 5137,3064 5139,3037 5162,3011 5159,2982 5165,2955 5170,2924 5171,2894 5184,2859 5210,2835 5235,2817 5265,2802 5294,2776 5275,2750 5278,2750 5288,2748 5278,2712 5324,2710 5362,2708 5422,2702 5464,2698 5570,2686 5612,2682 5708,2674 5727,2677 5728,2708 5752,2710 5858,2699 5894,2692 5938,2680 5962,2678 5990,2680 6070,2726 6044,2750 6086,2756 6124,2758 6138,2760 6146,2760 6158,2760 6172,2756 6196,2748 6218,2738 6228,2734 6240,2726 6246,2716 6252,2708 6268,2686 6308,2678 6314,2636 6322,2634 6352,2632 6360,2630 6372,2630 6378,2632 6386,2638 6426,2660 6438,2668 6444,2672 6456,2676 6470,2678 6548,2672 6560,2670 6588,2668 6604,2668 6618,2667 6620,2672 6620,2676 6624,2690 6624,2696 6628,2728 6633,2733 6680,2732 6694,2734 6714,2734 6794,2730 6870,2728 6856,2756 6902,2752 6906,2774 6906,2786 6902,2816 6898,2882 6898,2892 6908,2892 6934,2886 6938,2884 6968,2880 6982,2876 7010,2872 7034,2870 7044,2868 7076,2866 7098,2860 7110,2860 7114,2858 7142,2854 7158,2848 7165,2844 7174,2836 7198,2806 7206,2796 7210,2784 7204,2724 7200,2702 7196,2690 7193,2677 7193,2672 7196,2670 7200,2666 7210,2664 7270,2644 7291,2642 7300,2644 7310,2646 7336,2660 7352,2670 7364,2678 7374,2690 7390,2720 7406,2748 7420,2774 7424,2780 7428,2784 7432,2786 7438,2786 7454,2786 7542,2780 7546,2780 7616,2776 7638,2774 7660,2774 7676,2774 7704,2770 7724,2764 7750,2750 7764,2737 7754,2726 7738,2714 7704,2688 7684,2668 7678,2660 7672,2654 7662,2644 7646,2624 7638,2614 7622,2598 7610,2584 7606,2574 7606,2570 7610,2558 7624,2540 7638,2514 7682,2438 7686,2428 7690,2420 7690,2414 7688,2410 7686,2406 7676,2402 7648,2390 7630,2386 7574,2378 7560,2374 7534,2334 7522,2322 7502,2308 7474,2296 7464,2288 7458,2278 7452,2242 7454,2228 7462,2220 7482,2214 7496,2210 7514,2202 7534,2196 7632,2170 7680,2162 7684,2162 7812,2130 7982,2088 8082,2034 8096,2030 8184,1998 8272,1974 8316,1960 8360,1950 8386,1942 8414,1936 8544,1890 8642,1840 8672,1824 8860,1730 8870,1726 8888,1716 8916,1702 8920,1700 8934,1692 8964,1678 9050,1638 9116,1614 9130,1608 9144,1594 9146,1590 9148,1586 9148,1575 9150,1574 9156,1566 9176,1558 9234,1530 9258,1516 9282,1504 9294,1496 9354,1460 9360,1456 9368,1452 9378,1448 9464,1404 9480,1396 9514,1398 9522,1394 9524,1384 9526,1330 9528,1312 9532,1294 9536,1280 9544,1272 9556,1266 9566,1266 9574,1266 9584,1268 9606,1278 9660,1304 9672,1308 9686,1316 9704,1316 9718,1314 9726,1312 9742,1302 9824,1244 9860,1222 9864,1216 9864,1208 9852,1184 9851,1177 9892,1176 9924,1175 9955,1165 9969,1157 9979,1147 9988,1130 10000,1109 10002,1106 10019,1082 10044,1069 10109,1055 10118,1057 10123,1058 10127,1058 10140,1063 10156,1064 10172,1065 10209,1062 10271,1059 10293,1058 10317,1054 10326,1052 10389,1033 10451,1007 10484,993 10505,1036 " class="polyStyle" id="130724" style="fill:#fbe6ef"/>
<polygon points="4958,2 4976,4 5000,6 5020,10 5036,16 5018,37 5007,45 5002,52 5010,80 5041,112 5056,120 5073,129 5086,138 5095,145 5105,155 5119,171 5134,190 5156,204 5169,214 5173,220 5180,235 5182,238 5194,266 5194,269 5198,286 5192,362 5192,366 5190,374 5188,384 5190,398 5184,450 5182,464 5182,470 5183,475 5226,488 5246,520 5274,542 5310,558 5322,574 5326,582 5326,594 5322,616 5310,630 5260,634 5260,644 5314,658 5340,688 5346,692 5364,670 5380,670 5386,670 5394,674 5412,702 5420,716 5428,738 5436,764 5444,794 5450,806 5454,816 5458,826 5460,834 5460,838 5464,848 5464,854 5464,860 5448,896 5446,900 5446,908 5448,930 5454,948 5460,956 5536,1020 5540,1024 5544,1052 5541,1067 5536,1070 5532,1070 5522,1068 5478,1064 5466,1064 5460,1064 5456,1068 5456,1076 5460,1086 5468,1124 5464,1156 5456,1176 5458,1186 5462,1188 5468,1192 5492,1202 5496,1204 5498,1208 5502,1216 5504,1220 5506,1234 5508,1244 5505,1251 5498,1256 5488,1260 5466,1282 5444,1316 5436,1354 5442,1380 5448,1388 5466,1396 5496,1398 5504,1402 5480,1428 5470,1450 5474,1462 5478,1470 5483,1473 5500,1482 5518,1484 5524,1484 5534,1482 5548,1478 5560,1472 5566,1472 5570,1474 5572,1484 5576,1502 5576,1514 5572,1532 5538,1560 5522,1576 5476,1632 5418,1654 5384,1668 5336,1690 5320,1692 5278,1680 5248,1672 5230,1672 5222,1682 5212,1724 5212,1732 5222,1740 5254,1760 5276,1782 5292,1798 5304,1812 5320,1826 5350,1824 5358,1884 5376,1988 5384,2056 5380,2066 5378,2072 5376,2090 5382,2150 5386,2162 5386,2170 5386,2182 5394,2238 5406,2360 5396,2456 5394,2462 5392,2466 5390,2476 5392,2486 5392,2500 5394,2506 5396,2524 5398,2534 5402,2552 5399,2561 5386,2570 5332,2600 5316,2610 5264,2646 5248,2658 5226,2670 5236,2710 5208,2728 5202,2736 5206,2744 5208,2748 5212,2748 5218,2750 5229,2750 5275,2750 5294,2776 5265,2802 5235,2817 5210,2835 5184,2859 5171,2894 5170,2924 5165,2955 5159,2982 5162,3011 5139,3037 5137,3064 5142,3089 5133,3116 5141,3144 5135,3174 5112,3197 5086,3216 5055,3246 5044,3272 5032,3303 5015,3329 4973,3345 4941,3350 4891,3353 4859,3366 4823,3374 4782,3385 4755,3387 4728,3389 4696,3390 4666,3388 4639,3396 4612,3404 4579,3421 4552,3419 4524,3411 4493,3402 4452,3394 4423,3396 4388,3385 4357,3380 4323,3378 4294,3388 4260,3388 4230,3392 4198,3405 4171,3419 4145,3421 4112,3423 4090,3450 4071,3479 4041,3476 4008,3478 3976,3499 3949,3507 3909,3500 3878,3507 3845,3503 3816,3505 3783,3511 3753,3518 3720,3524 3686,3535 3648,3561 3612,3587 3581,3600 3554,3611 3522,3606 3502,3580 3481,3546 3454,3521 3429,3503 3401,3497 3382,3472 3380,3432 3353,3398 3323,3369 3311,3340 3280,3313 3249,3289 3223,3271 3161,3229 3130,3208 3093,3180 3064,3152 3036,3127 3008,3105 2977,3080 2952,3056 2927,3027 2896,2996 2864,2966 2824,2945 2791,2923 2762,2903 2736,2884 2694,2879 2657,2899 2629,2917 2603,2933 2574,2976 2547,2981 2524,3009 2512,3038 2495,3064 2459,3053 2413,3084 2387,3090 2357,3087 2330,3088 2299,3081 2272,3084 2245,3083 2229,3112 2197,3115 2167,3107 2141,3112 2140,3138 2144,3165 2121,3197 2091,3192 2033,3156 2032,3128 2038,3032 2036,3016 2032,3006 2026,2996 2020,2984 2010,2970 2002,2954 1996,2942 1994,2936 1988,2926 1982,2880 1982,2852 1982,2848 1984,2840 1986,2837 1990,2836 2006,2832 2016,2826 2058,2776 2062,2768 2062,2760 2038,2728 2026,2714 2016,2702 2012,2696 2010,2688 2010,2682 2010,2668 2010,2662 2012,2654 2015,2647 2022,2644 2032,2642 2054,2638 2066,2636 2110,2634 2168,2636 2176,2632 2178,2626 2172,2616 2076,2496 2056,2472 2020,2422 2006,2402 1968,2350 1964,2344 1958,2336 1952,2324 1964,2314 1984,2304 1956,2268 1966,2250 1974,2250 2010,2266 2016,2268 2020,2268 2030,2266 2065,2263 2034,2228 2014,2202 1987,2178 1971,2160 1943,2090 1924,2070 1900,2060 1902,2057 1914,2046 1924,2038 1932,2032 1943,2021 1948,2012 1952,2006 1954,1996 1958,1986 1958,1978 1956,1970 1956,1964 1918,1958 1900,1932 1908,1922 1918,1892 1916,1888 1912,1884 1904,1878 1898,1874 1880,1858 1876,1854 1874,1846 1874,1838 1872,1820 1876,1806 1880,1798 1884,1792 1890,1784 1895,1779 1944,1736 1970,1716 1978,1712 2010,1696 2026,1684 2040,1666 2086,1616 2088,1612 2090,1608 2094,1600 2092,1594 2090,1590 2080,1578 2080,1573 2090,1566 2098,1564 2126,1548 2230,1502 2258,1504 2270,1500 2290,1478 2296,1468 2312,1412 2314,1408 2318,1398 2360,1386 2372,1300 2378,1286 2384,1278 2386,1272 2390,1270 2398,1268 2404,1270 2414,1272 2422,1274 2426,1274 2430,1274 2442,1268 2478,1232 2492,1218 2532,1178 2534,1173 2531,1167 2522,1158 2516,1150 2510,1140 2504,1130 2504,1122 2504,1114 2505,1105 2513,1100 2524,1100 2538,1102 2552,1106 2592,1116 2600,1118 2606,1116 2612,1114 2618,1110 2625,1099 2634,1072 2612,1062 2616,1052 2636,1034 2618,1012 2626,996 2648,982 2676,1006 2698,1010 2704,1008 2712,1008 2726,1006 2730,1000 2742,970 2746,966 2748,962 2760,962 2780,966 2804,970 2814,972 2832,978 2846,982 2876,1000 2888,1004 2924,1012 2936,1018 2960,1032 2972,1038 2976,1038 2982,1040 2986,1040 2990,1038 3006,1034 3020,1026 3030,1022 3110,1006 3152,996 3166,994 3178,990 3264,992 3258,970 3268,964 3306,924 3322,910 3334,904 3344,900 3356,896 3408,888 3416,888 3422,886 3426,886 3430,884 3436,860 3438,846 3434,836 3424,814 3408,800 3383,785 3376,782 3368,780 3364,780 3352,776 3338,772 3332,770 3326,768 3306,758 3302,756 3296,750 3292,742 3282,714 3294,692 3310,678 3274,662 3228,632 3222,620 3218,614 3214,602 3212,588 3216,568 3220,550 3228,534 3240,520 3250,502 3254,490 3266,456 3270,444 3274,432 3276,428 3280,426 3288,426 3312,436 3316,438 3332,448 3334,452 3340,454 3344,456 3348,454 3352,450 3356,448 3378,422 3394,396 3402,370 3404,358 3402,354 3400,350 3390,342 3382,332 3380,322 3380,318 3404,282 3412,274 3416,270 3428,252 3432,246 3436,242 3436,238 3434,234 3432,218 3432,206 3432,202 3434,182 3436,172 3440,166 3448,158 3462,150 3470,144 3482,142 3540,136 3606,122 3616,140 3638,140 3650,140 3668,136 3672,133 3672,130 3670,122 3668,116 3669,112 3680,108 3704,104 3778,90 3786,90 3790,88 3796,88 3808,86 3834,88 3850,90 3876,92 3884,94 3920,106 3926,108 3942,114 3966,126 4004,144 4012,148 4018,152 4076,196 4086,204 4096,214 4108,222 4112,224 4118,226 4124,226 4128,224 4134,222 4146,218 4156,214 4162,210 4166,208 4172,204 4176,200 4212,168 4262,176 4270,170 4322,142 4332,140 4340,140 4368,140 4400,142 4412,144 4432,170 4496,158 4554,166 4594,174 4612,176 4636,172 4658,170 4686,160 4712,152 4724,142 4744,120 4754,106 4760,100 4824,88 4838,32 4842,12 4848,2 4858,0 4878,0 4894,0 4909,0 " class="polyStyle" id="130723" style="fill:#d4ecb2"/>
<path d="" class="polyStyle" id="211221" style="fill:#f6f67b"/>
<path d="" class="polyStyle" id="210921" style="fill:#f6f67b"/>
<path d="" class="polyStyle" id="150223" style="fill:#f8c67d"/>
<path d="" class="polyStyle" id="220422" style="fill:#d4ecb2"/>
<polygon points="8735,4465 8748,4450 8775,4433 8806,4411 8834,4410 8843,4385 8837,4359 8832,4331 8848,4306 8880,4293 8910,4278 8937,4257 8959,4231 8981,4198 8980,4171 9009,4146 9038,4141 9072,4143 9103,4146 9130,4150 9156,4151 9186,4149 9213,4122 9238,4099 9264,4081 9289,4054 9316,4036 9343,4018 9353,3985 9376,3960 9409,3956 9441,3948 9469,3931 9497,3904 9523,3898 9552,3899 9586,3903 9618,3910 9643,3929 9663,3956 9692,3964 9721,3988 9737,4019 9764,4037 9787,4056 9817,4081 9851,4089 9878,4118 9885,4145 9902,4180 9908,4206 9934,4235 9954,4260 9976,4288 9992,4320 10005,4352 10036,4369 10063,4358 10092,4348 10129,4353 10160,4361 10186,4367 10215,4376 10240,4398 10268,4422 10297,4448 10318,4479 10336,4512 10359,4538 10382,4565 10411,4575 10441,4570 10473,4570 10499,4558 10525,4539 10550,4540 10577,4545 10605,4549 10637,4554 10663,4548 10681,4519 10681,4493 10669,4462 10665,4433 10668,4405 10682,4378 10700,4353 10704,4326 10707,4299 10713,4266 10717,4237 10749,4211 10776,4211 10812,4219 10844,4233 10867,4202 10894,4182 10921,4165 10947,4143 10969,4115 10965,4082 10966,4055 10992,4026 11000,3999 11001,3972 11009,3945 11034,3911 11024,3884 11037,3853 11065,3834 11099,3808 11115,3801 11128,3804 11153,3791 11179,3795 11207,3812 11235,3821 11264,3820 11292,3818 11321,3828 11341,3854 11369,3881 11395,3891 11421,3895 11448,3898 11473,3904 11502,3899 11535,3896 11560,3895 11586,3899 11610,3925 11636,3933 11663,3935 11690,3941 11718,3952 11747,3969 11775,3991 11787,4017 11806,4045 11832,4047 11858,4066 11878,4093 11904,4121 11932,4130 11913,4161 11916,4189 11921,4216 11896,4225 11869,4250 11853,4275 11851,4305 11869,4333 11850,4358 11852,4385 11845,4412 11846,4446 11862,4472 11879,4501 11893,4529 11914,4554 11931,4585 11956,4607 11982,4629 11998,4655 12024,4679 12056,4704 12047,4734 12036,4761 12012,4790 11994,4816 11985,4842 11991,4869 12017,4893 12050,4904 12081,4910 12118,4923 12101,4951 12103,4978 12100,5008 12091,5035 12078,5061 12051,5082 12058,5107 12074,5133 12096,5161 12122,5167 12138,5197 12164,5217 12192,5225 12218,5241 12234,5270 12262,5286 12263,5314 12271,5340 12294,5366 12320,5392 12343,5418 12334,5445 12303,5458 12274,5475 12250,5511 12218,5535 12199,5560 12211,5586 12236,5595 12245,5622 12249,5648 12271,5673 12304,5678 12330,5697 12343,5710 12347,5736 12340,5769 12361,5803 12406,5816 12452,5838 12527,5837 12568,5841 12610,5861 12608,5905 12622,5940 12654,5963 12685,5995 12702,6033 12680,6071 12626,6069 12572,6113 12548,6141 12558,6187 12550,6225 12574,6245 12636,6297 12658,6313 12692,6339 12718,6357 12750,6383 12818,6441 12856,6481 12914,6579 12916,6585 12930,6595 12998,6637 13048,6643 13070,6647 13082,6701 13104,6723 13134,6737 13164,6755 13174,6765 13190,6799 13198,6825 13210,6857 13210,6875 13210,6879 13210,6885 13206,6887 13188,6895 13174,6899 13154,6925 13100,6903 13048,6909 12986,6909 12961,6900 12966,6871 12952,6859 12944,6853 12920,6847 12854,6855 12738,6885 12694,6885 12686,6885 12564,6883 12474,6885 12464,6887 12440,6903 12430,6929 12436,6969 12435,6988 12428,6989 12420,6985 12376,6957 12348,6947 12318,6941 12270,6939 12250,6933 12232,6895 12202,6833 12174,6813 12146,6797 12122,6789 12088,6815 12050,6831 12056,6857 12050,6875 12036,6903 12040,6931 12044,6951 12030,6963 11998,6975 11984,6997 11974,7029 11946,7047 11934,7039 11898,7053 11910,7079 11894,7089 11848,7127 11806,7165 11770,7221 11762,7243 11736,7341 11714,7425 11688,7433 11638,7427 11604,7419 11570,7409 11558,7409 11552,7413 11440,7507 11436,7513 11444,7543 11452,7557 11466,7567 11484,7583 11490,7597 11489,7602 11468,7609 11444,7611 11406,7613 11390,7611 11380,7591 11352,7601 11332,7605 11298,7621 11276,7641 11248,7669 11216,7693 11170,7713 11052,7755 11042,7759 11028,7759 11022,7753 11022,7749 11030,7737 11030,7721 11024,7713 11008,7715 10926,7803 10902,7827 10880,7827 10862,7823 10862,7847 10802,7853 10794,7851 10788,7847 10780,7831 10754,7763 10750,7755 10744,7737 10706,7743 10720,7717 10696,7705 10666,7699 10486,7665 10428,7665 10398,7677 10358,7721 10328,7759 10304,7767 10282,7769 10246,7771 10220,7767 10206,7787 10184,7793 10154,7797 10112,7779 10100,7789 10044,7797 10010,7821 10002,7849 10000,7867 9986,7927 9984,7941 9974,7951 9958,7959 9948,7959 9928,7959 9846,7939 9836,7941 9736,8003 9682,8053 9662,8045 9636,8059 9654,8091 9608,8131 9579,8180 9558,8175 9531,8153 9506,8119 9495,8093 9501,8049 9529,8005 9537,7956 9531,7929 9534,7902 9539,7861 9524,7831 9497,7825 9443,7811 9395,7820 9375,7857 9360,7872 9343,7848 9322,7843 9312,7860 9313,7908 9279,7934 9248,7930 9234,7899 9206,7880 9146,7864 9102,7848 9070,7846 9066,7876 9052,7912 9018,7918 8985,7907 8957,7895 8923,7898 8882,7904 8842,7924 8793,7918 8758,7896 8738,7907 8704,7922 8665,7932 8629,7906 8608,7892 8581,7884 8565,7866 8554,7857 8531,7853 8498,7860 8464,7844 8436,7821 8440,7786 8434,7752 8403,7734 8363,7720 8356,7692 8377,7657 8384,7626 8402,7603 8408,7573 8428,7557 8451,7546 8461,7529 8452,7503 8461,7491 8499,7486 8508,7480 8504,7462 8491,7444 8479,7430 8490,7422 8507,7417 8517,7405 8496,7393 8503,7380 8513,7368 8504,7362 8487,7369 8477,7360 8466,7348 8444,7323 8410,7313 8386,7308 8377,7307 8377,7281 8349,7253 8327,7224 8335,7197 8343,7161 8357,7131 8362,7103 8329,7074 8292,7053 8265,7046 8234,7043 8194,7041 8178,7013 8165,6984 8134,6974 8114,6948 8118,6921 8141,6894 8153,6860 8172,6832 8158,6805 8131,6781 8105,6777 8079,6783 8046,6782 8044,6768 8060,6759 8049,6732 8024,6705 8039,6674 8034,6644 8044,6616 8063,6589 8094,6562 8087,6531 8093,6504 8071,6473 8065,6442 8086,6415 8112,6387 8137,6370 8166,6359 8192,6340 8214,6311 8244,6312 8271,6301 8298,6283 8325,6255 8350,6230 8383,6225 8414,6215 8431,6202 8449,6164 8457,6128 8463,6091 8445,6065 8450,6028 8478,5997 8452,5977 8447,5949 8414,5939 8402,5933 8374,5909 8345,5909 8315,5907 8286,5900 8288,5873 8274,5843 8263,5817 8261,5790 8284,5764 8309,5736 8309,5728 8309,5703 8322,5671 8338,5643 8331,5615 8322,5585 8340,5556 8352,5530 8384,5512 8396,5486 8404,5460 8414,5407 8401,5385 8374,5360 8365,5333 8389,5295 8382,5266 8414,5244 8437,5216 8435,5189 8450,5164 8466,5137 8499,5104 8513,5080 8487,5040 8479,5012 8474,4987 8451,4961 8433,4931 8444,4895 8448,4869 8433,4838 8418,4810 8413,4802 8403,4777 8396,4749 8371,4721 8344,4703 8327,4678 8334,4650 8361,4626 8386,4597 8414,4573 8441,4546 8470,4530 8496,4524 8524,4518 8557,4510 8592,4503 8621,4499 8651,4497 8682,4491 8715,4483 8721,4481 " class="polyStyle" id="130732" style="fill:#ee8b94"/>
<path d="" class="polyStyle" id="340721" style="fill:#f6f67b"/>
<path d="" class="polyStyle" id="510824" style="fill:#d4ecb2"/>
<path d="" class="polyStyle" id="610324" style="fill:#f6f67b"/>
<path d="" class="polyStyle" id="530722" style="fill:#ee8b94"/>
<path d="" class="polyStyle" id="340823" style="fill:#d4ecb2"/>
<path d="" class="polyStyle" id="620825" style="fill:#d4ecb2"/>
<path d="" class="polyStyle" id="421125" style="fill:#ee8b94"/>
<path d="" class="polyStyle" id="210281" style="fill:#ee8b94"/>
<path d="" class="polyStyle" id="440883" style="fill:#f6f67b"/>
<path d="" class="polyStyle" id="469006" style="fill:#d4ecb2"/>
<path d="" class="polyStyle" id="469002" style="fill:#ee8b94"/>
<path d="" class="polyStyle" id="469005" style="fill:#fbe6ef"/>
<path d="" class="polyStyle" id="440882" style="fill:#ee8b94"/>
<path d="" class="polyStyle" id="450681" style="fill:#ee8b94"/>
<path d="" class="polyStyle" id="441581" style="fill:#d4ecb2"/>
<path d="" class="polyStyle" id="421087" style="fill:#ee8b94"/>
<path d="" class="polyStyle" id="420984" style="fill:#fbe6ef"/>
<path d="" class="polyStyle" id="420582" style="fill:#ee8b94"/>
<path d="" class="polyStyle" id="370282" style="fill:#f6f67b"/>
<path d="" class="polyStyle" id="371083" style="fill:#f6f67b"/>
<path d="" class="polyStyle" id="371082" style="fill:#fbe6ef"/>
<path d="" class="polyStyle" id="652801" style="fill:#f8c67d"/>
<path d="" class="polyStyle" id="654301" style="fill:#ee8b94"/>
<path d="" class="polyStyle" id="370687" style="fill:#ee8b94"/>
<path d="" class="polyStyle" id="371482" style="fill:#d4ecb2"/>
<path d="" class="polyStyle" id="421081" style="fill:#fbe6ef"/>
<path d="" class="polyStyle" id="429006" style="fill:#f6f67b"/>
<path d="" class="polyStyle" id="440982" style="fill:#d4ecb2"/>
<path d="" class="polyStyle" id="421181" style="fill:#d4ecb2"/>
<path d="" class="polyStyle" id="321181" style="fill:#d4ecb2"/>
<path d="" class="polyStyle" id="659007" style="fill:#ee8b94"/>
<path d="" class="polyStyle" id="652701" style="fill:#fbe6ef"/>
<path d="" class="polyStyle" id="210781" style="fill:#fbe6ef"/>
<path d="" class="polyStyle" id="460204" style="fill:#f6f67b"/>
<path d="" class="polyStyle" id="210211" style="fill:#f6f67b"/>
<path d="" class="polyStyle" id="450512" style="fill:#ee8b94"/>
<path d="" class="polyStyle" id="450602" style="fill:#fbe6ef"/>
<path d="" class="polyStyle" id="440404" style="fill:#ee8b94"/>
<path d="" class="polyStyle" id="440403" style="fill:#f6f67b"/>
<path d="" class="polyStyle" id="441502" style="fill:#f6f67b"/>
<path d="" class="polyStyle" id="431002" style="fill:#d4ecb2"/>
<path d="" class="polyStyle" id="500107" style="fill:#fbe6ef"/>
<path d="" class="polyStyle" id="430611" style="fill:#d4ecb2"/>
<path d="" class="polyStyle" id="511304" style="fill:#fbe6ef"/>
<path d="" class="polyStyle" id="340711" style="fill:#ee8b94"/>
<path d="" class="polyStyle" id="320118" style="fill:#f6f67b"/>
<path d="" class="polyStyle" id="510704" style="fill:#f6f67b"/>
<path d="" class="polyStyle" id="411502" style="fill:#ee8b94"/>
<path d="" class="polyStyle" id="320302" style="fill:#d4ecb2"/>
<path d="" class="polyStyle" id="140311" style="fill:#ee8b94"/>
<path d="" class="polyStyle" id="610802" style="fill:#ee8b94"/>
<path d="" class="polyStyle" id="120116" style="fill:#f6f67b"/>
<path d="" class="polyStyle" id="130303" style="fill:#fbe6ef"/>
<path d="" class="polyStyle" id="140211" style="fill:#f6f67b"/>
<polygon points="7636,7612 7652,7624 7680,7621 7703,7646 7716,7649 7752,7710 7777,7735 7802,7735 7842,7735 7862,7740 7879,7740 7912,7740 7934,7755 7957,7760 7984,7745 8009,7743 8027,7750 8039,7768 8054,7780 8074,7783 8069,7798 8054,7808 8059,7823 8074,7840 8084,7873 8089,7895 8114,7905 8134,7888 8174,7873 8194,7850 8217,7838 8242,7840 8267,7855 8302,7883 8317,7903 8353,7932 8351,7933 8325,7963 8288,7991 8272,8006 8273,8025 8229,8070 8201,8089 8175,8110 8149,8115 8117,8125 8098,8139 8054,8150 8021,8164 7993,8178 7996,8212 8007,8237 7997,8251 7987,8248 7969,8241 7943,8243 7924,8255 7877,8241 7847,8237 7820,8223 7810,8209 7778,8205 7754,8199 7727,8207 7694,8190 7663,8185 7626,8160 7597,8163 7592,8191 7600,8207 7565,8241 7531,8268 7537,8297 7540,8318 7511,8327 7500,8340 7494,8361 7466,8394 7436,8403 7408,8403 7373,8408 7343,8395 7329,8398 7320,8418 7318,8439 7327,8476 7332,8499 7332,8502 7304,8502 7282,8507 7253,8495 7214,8500 7180,8500 7157,8509 7146,8526 7152,8544 7133,8555 7125,8568 7103,8560 7089,8557 7099,8548 7095,8539 7082,8528 7102,8516 7089,8510 7055,8512 7037,8505 7020,8514 6989,8502 6999,8484 6987,8470 6978,8443 6977,8416 6952,8409 6926,8397 6921,8371 6937,8343 6962,8332 6984,8323 7003,8321 7014,8312 6994,8297 6968,8295 6934,8298 6883,8306 6853,8317 6833,8343 6811,8360 6791,8375 6768,8385 6747,8386 6752,8367 6759,8337 6774,8310 6790,8292 6798,8258 6814,8237 6836,8228 6825,8223 6801,8229 6780,8222 6765,8209 6738,8201 6723,8217 6705,8239 6694,8250 6679,8233 6659,8246 6624,8249 6608,8234 6585,8229 6558,8223 6542,8196 6544,8174 6559,8159 6595,8169 6627,8178 6654,8166 6670,8147 6692,8141 6713,8143 6724,8122 6711,8110 6721,8097 6738,8087 6750,8079 6760,8056 6757,8044 6740,8041 6735,8027 6750,8021 6791,8012 6821,8013 6838,7997 6856,7984 6891,7983 6935,7950 6949,7927 6962,7897 6980,7875 6978,7867 6959,7861 6967,7848 6983,7829 6998,7811 7021,7800 7039,7795 7077,7802 7084,7790 7086,7774 7111,7766 7145,7769 7192,7757 7208,7771 7230,7759 7250,7746 7284,7732 7286,7720 7305,7700 7311,7678 7345,7652 7368,7639 7397,7644 7406,7634 7404,7621 7424,7616 7449,7613 7478,7616 7503,7615 7506,7599 7528,7587 7559,7587 7578,7577 7612,7592 " class="polyStyle" id="130706" style="fill:#ee8b94"/>
<polygon points="5813,7323 5846,7325 5880,7336 5910,7353 5938,7386 5950,7398 5952,7414 5965,7422 5980,7430 6006,7426 6035,7405 6061,7397 6080,7397 6111,7386 6138,7357 6157,7351 6175,7345 6185,7322 6203,7318 6239,7321 6252,7333 6260,7349 6290,7355 6329,7362 6337,7373 6354,7396 6365,7406 6379,7419 6402,7440 6432,7475 6430,7501 6431,7519 6447,7522 6487,7518 6506,7517 6510,7541 6515,7565 6547,7576 6571,7575 6582,7554 6582,7541 6597,7533 6607,7522 6626,7521 6643,7509 6660,7511 6648,7527 6627,7537 6622,7560 6617,7598 6607,7627 6610,7652 6615,7682 6612,7713 6611,7745 6616,7790 6613,7822 6618,7847 6620,7862 6611,7871 6596,7858 6570,7863 6556,7842 6542,7821 6517,7821 6499,7831 6496,7844 6482,7857 6496,7874 6522,7879 6519,7906 6522,7926 6533,7941 6518,7951 6491,7952 6482,7961 6476,7986 6454,7997 6429,8004 6399,7992 6373,7985 6344,7958 6317,7930 6292,7898 6258,7873 6223,7855 6187,7835 6144,7820 6106,7806 6081,7797 6046,7780 6010,7760 5970,7747 5936,7727 5901,7711 5863,7689 5819,7663 5779,7642 5742,7613 5711,7590 5680,7576 5650,7556 5587,7530 5537,7515 5543,7500 5557,7491 5588,7503 5584,7486 5570,7457 5574,7438 5555,7425 5533,7407 5563,7378 5592,7370 5637,7378 5670,7380 5697,7385 5708,7366 5707,7343 5717,7332 5741,7324 5747,7309 5737,7301 5751,7298 5782,7316 " class="polyStyle" id="130705" style="fill:#d4ecb2"/>
<polygon points="8209,7296 8224,7308 8228,7334 8244,7352 8236,7372 8251,7370 8262,7354 8281,7351 8289,7341 8306,7333 8324,7324 8341,7316 8359,7303 8377,7307 8386,7308 8410,7313 8444,7323 8466,7348 8477,7360 8487,7369 8504,7362 8513,7368 8503,7380 8496,7393 8517,7405 8507,7417 8490,7422 8479,7430 8491,7444 8504,7462 8508,7480 8499,7486 8461,7491 8452,7503 8461,7529 8451,7546 8428,7557 8408,7573 8402,7603 8384,7626 8377,7657 8356,7692 8363,7720 8403,7734 8434,7752 8440,7786 8436,7821 8464,7844 8455,7873 8452,7898 8435,7913 8417,7920 8387,7919 8353,7932 8317,7903 8302,7883 8267,7855 8242,7840 8217,7838 8194,7850 8174,7873 8134,7888 8114,7905 8089,7895 8084,7873 8074,7840 8059,7823 8054,7808 8069,7798 8074,7783 8054,7780 8039,7768 8027,7750 8009,7743 7984,7745 7957,7760 7934,7755 7912,7740 7879,7740 7862,7740 7842,7735 7802,7735 7777,7735 7752,7710 7716,7649 7718,7631 7716,7606 7722,7581 7745,7553 7756,7534 7732,7506 7713,7485 7722,7454 7717,7438 7722,7424 7738,7412 7712,7403 7686,7406 7694,7393 7711,7383 7717,7368 7733,7367 7755,7375 7779,7373 7811,7357 7813,7335 7810,7315 7826,7310 7850,7306 7871,7299 7882,7310 7881,7325 7897,7326 7924,7322 7925,7337 7951,7331 7978,7329 8007,7321 8036,7306 8059,7289 8088,7276 8125,7272 8176,7280 " class="polyStyle" id="130705" style="fill:#d4ecb2"/>
<path d="" class="polyStyle" id="150207" style="fill:#fbe6ef"/>
<path d="" class="polyStyle" id="211403" style="fill:#f6f67b"/>
<polygon points="5437,6530 5472,6548 5515,6570 5539,6578 5575,6584 5595,6595 5626,6613 5653,6623 5689,6636 5677,6673 5666,6700 5675,6726 5678,6751 5694,6780 5731,6811 5750,6827 5740,6839 5714,6854 5696,6874 5678,6892 5661,6907 5637,6928 5625,6933 5621,6956 5629,6967 5647,6968 5669,6981 5698,6986 5718,7000 5729,7023 5750,7035 5781,7062 5811,7088 5824,7114 5827,7148 5813,7177 5805,7217 5790,7245 5774,7255 5775,7278 5751,7298 5737,7301 5716,7303 5684,7282 5655,7259 5630,7251 5602,7249 5573,7234 5530,7210 5505,7192 5480,7169 5464,7147 5452,7129 5440,7115 5426,7134 5423,7152 5408,7137 5371,7123 5346,7106 5320,7089 5296,7078 5280,7098 5255,7090 5225,7080 5194,7058 5178,7059 5178,7076 5174,7088 5163,7079 5151,7060 5139,7056 5127,7068 5127,7045 5132,7025 5147,7008 5164,6995 5175,6970 5194,6938 5212,6923 5237,6913 5247,6888 5252,6858 5260,6840 5270,6825 5272,6798 5282,6766 5294,6745 5285,6718 5277,6690 5277,6671 5292,6655 5305,6633 5320,6610 5345,6583 5354,6568 5354,6541 5365,6515 5379,6505 5402,6510 " class="polyStyle" id="130702" style="fill:#d4ecb2"/>
<polygon points="4938,5957 4949,5984 4979,6020 5004,6057 5024,6089 5049,6108 5063,6143 5075,6149 5083,6138 5100,6144 5139,6154 5170,6153 5221,6165 5247,6188 5251,6209 5276,6235 5277,6264 5265,6285 5279,6308 5296,6318 5320,6319 5329,6335 5346,6356 5360,6351 5386,6370 5388,6390 5411,6399 5445,6421 5465,6435 5487,6445 5509,6450 5526,6458 5538,6456 5553,6453 5536,6467 5535,6487 5525,6504 5505,6535 5520,6554 5548,6569 5575,6584 5539,6578 5515,6570 5472,6548 5437,6530 5402,6510 5379,6505 5365,6515 5354,6541 5354,6568 5345,6583 5320,6610 5305,6633 5292,6655 5277,6671 5277,6690 5285,6718 5294,6745 5282,6766 5272,6798 5270,6825 5260,6840 5252,6858 5247,6888 5237,6913 5212,6923 5194,6938 5175,6970 5164,6995 5147,7008 5132,7025 5127,7045 5127,7068 5124,7071 5119,7094 5105,7114 5103,7131 5102,7142 5109,7153 5111,7173 5108,7197 5084,7229 5064,7273 5040,7303 5017,7313 4981,7290 4947,7277 4912,7260 4872,7249 4840,7240 4856,7220 4858,7206 4861,7191 4849,7183 4849,7168 4862,7173 4884,7183 4901,7184 4911,7172 4916,7152 4893,7152 4901,7143 4901,7123 4910,7112 4910,7084 4895,7055 4882,7039 4862,7027 4879,7018 4901,7013 4914,6995 4938,6987 4965,6973 4968,6956 4999,6947 5018,6935 5024,6923 5011,6901 4992,6872 4985,6861 4982,6843 4998,6832 5016,6843 5041,6830 5060,6802 5058,6773 5063,6757 5086,6740 5085,6711 5070,6672 5056,6639 5037,6611 5022,6583 5000,6557 4970,6537 4945,6501 4913,6469 4900,6451 4907,6436 4935,6429 4956,6426 4961,6418 4936,6402 4919,6367 4890,6335 4864,6318 4837,6295 4823,6270 4810,6252 4827,6227 4853,6213 4855,6183 4864,6154 4862,6128 4861,6102 4849,6070 4862,6040 4860,6016 4835,6019 4818,6020 4821,6004 4823,5988 4820,5971 4841,5961 4858,5959 4874,5938 4897,5918 4910,5920 4910,5911 4929,5906 4935,5909 " class="polyStyle" id="130703" style="fill:#ee8b94"/>
<path d="" class="polyStyle" id="150802" style="fill:#f8c67d"/>
<path d="" class="polyStyle" id="210112" style="fill:#ee8b94"/>
<path d="" class="polyStyle" id="230406" style="fill:#d4ecb2"/>
<path d="" class="polyStyle" id="110113" style="fill:#fbe6ef"/>
<path d="" class="polyStyle" id="341702" style="fill:#fbe6ef"/>
<path d="" class="polyStyle" id="420303" style="fill:#ee8b94"/>
<path d="" class="polyStyle" id="340702" style="fill:#d4ecb2"/>
<path d="" class="polyStyle" id="421002" style="fill:#f6f67b"/>
<path d="" class="polyStyle" id="420117" style="fill:#f6f67b"/>
<path d="" class="polyStyle" id="440904" style="fill:#f8c67d"/>
<path d="" class="polyStyle" id="460205" style="fill:#ee8b94"/>
<path d="" class="polyStyle" id="460202" style="fill:#f6f67b"/>
<path d="" class="polyStyle" id="460203" style="fill:#fbe6ef"/>
<path d="" class="polyStyle" id="420304" style="fill:#f6f67b"/>
<path d="" class="polyStyle" id="445302" style="fill:#ee8b94"/>
<path d="" class="polyStyle" id="410202" style="fill:#d4ecb2"/>
<path d="" class="polyStyle" id="440800" style="fill:#f6f67b"/>
<path d="" class="polyStyle" id="440900" style="fill:#ee8b94"/>
<path d="" class="polyStyle" id="340800" style="fill:#ee8b94"/>
<path d="" class="polyStyle" id="460200" style="fill:#f6f67b"/>
<path d="" class="polyStyle" id="460000" style="fill:#ee8b94"/>
<path d="" class="polyStyle" id="450500" style="fill:#ee8b94"/>
<path d="" class="polyStyle" id="450600" style="fill:#ee8b94"/>
<path d="" class="polyStyle" id="440400" style="fill:#f6f67b"/>
<path d="" class="polyStyle" id="441700" style="fill:#f6f67b"/>
<path d="" class="polyStyle" id="441500" style="fill:#f6f67b"/>
<path d="" class="polyStyle" id="350600" style="fill:#ee8b94"/>
<path d="" class="polyStyle" id="710000" style="fill:#f6f67b"/>
<path d="" class="polyStyle" id="510400" style="fill:#f6f67b"/>
<path d="" class="polyStyle" id="522600" style="fill:#fbe6ef"/>
<path d="" class="polyStyle" id="520500" style="fill:#ee8b94"/>
<path d="" class="polyStyle" id="431200" style="fill:#f6f67b"/>
<path d="" class="polyStyle" id="430600" style="fill:#f6f67b"/>
<path d="" class="polyStyle" id="511400" style="fill:#d4ecb2"/>
<path d="" class="polyStyle" id="421000" style="fill:#ee8b94"/>
<path d="" class="polyStyle" id="341700" style="fill:#f6f67b"/>
<path d="" class="polyStyle" id="420500" style="fill:#f6f67b"/>
<path d="" class="polyStyle" id="511300" style="fill:#f6f67b"/>
<path d="" class="polyStyle" id="420900" style="fill:#f6f67b"/>
<path d="" class="polyStyle" id="511700" style="fill:#ee8b94"/>
<path d="" class="polyStyle" id="420600" style="fill:#d4ecb2"/>
<path d="" class="polyStyle" id="411500" style="fill:#fbe6ef"/>
<path d="" class="polyStyle" id="510800" style="fill:#ee8b94"/>
<path d="" class="polyStyle" id="420300" style="fill:#fbe6ef"/>
<path d="" class="polyStyle" id="611000" style="fill:#ee8b94"/>
<path d="" class="polyStyle" id="620800" style="fill:#fbe6ef"/>
<path d="" class="polyStyle" id="370200" style="fill:#ee8b94"/>
<path d="" class="polyStyle" id="371000" style="fill:#f6f67b"/>
<path d="" class="polyStyle" id="370600" style="fill:#fbe6ef"/>
<path d="" class="polyStyle" id="120000" style="fill:#f6f67b"/>
<path d="" class="polyStyle" id="130200" style="fill:#ee8b94"/>
<path d="" class="polyStyle" id="130300" style="fill:#f6f67b"/>
<path d="" class="polyStyle" id="652900" style="fill:#fbe6ef"/>
<path d="" class="polyStyle" id="150500" style="fill:#d4ecb2"/>
<path d="" class="polyStyle" id="" style="fill:#d4ecb2"/>
<path d="" class="polyStyle" id="350500" style="fill:#fbe6ef"/>
<path d="" class="polyStyle" id="440400" style="fill:#f6f67b"/>
<path d="" class="polyStyle" id="421100" style="fill:#d4ecb2"/>
<path d="" class="polyStyle" id="420100" style="fill:#fbe6ef"/>
<path d="" class="polyStyle" id="532500" style="fill:#fbe6ef"/>
<path d="" class="polyStyle" id="654200" style="fill:#fbe6ef"/>
<path d="" class="polyStyle" id="210700" style="fill:#d4ecb2"/>
<path d="" class="polyStyle" id="522300" style="fill:#fbe6ef"/>
<path d="" class="polyStyle" id="" style="fill:#ee8b94"/>
<path d="" class="polyStyle" id="440400" style="fill:#f6f67b"/>
<path d="" class="polyStyle" id="620000" style="fill:#f6f67b"/>
<path d="" class="polyStyle" id="430000" style="fill:#fbe6ef"/>
<path d="" class="polyStyle" id="420000" style="fill:#ee8b94"/>
<path d="" class="polyStyle" id="410000" style="fill:#f6f67b"/>
<path d="" class="polyStyle" id="350000" style="fill:#fbe6ef"/>
<path d="" class="polyStyle" id="520000" style="fill:#f6f67b"/>
<path d="" class="polyStyle" id="" style="fill:#ee8b94"/>
</svg>
