<?xml version="1.0" encoding="UTF-8"?>
<!DOCTYPE svg PUBLIC "-//W3C//DTD SVG 1.1 Tiny//EN" "http://www.w3.org/Graphics/SVG/1.1/DTD/svg11-tiny.dtd">
<svg version="1.1" xmlns="http://www.w3.org/2000/svg" xmlns:xlink="http://www.w3.org/1999/xlink" width="100%" height="100%" viewBox="0,0,11013,7344">
<title>SVG</title>
<desc>Poligon Test</desc>
<style id="style_css_sheet" type="text/css">
.polyStyle{fill: #cccccc;stroke-width:0;fill-rule:evenodd;}
</style>
<circle cx="1978" cy="2534" r="200" stroke="black" stroke-width="1" fill="red" id="130984" name="河间市"/>
<circle cx="1917" cy="1241" r="200" stroke="black" stroke-width="1" fill="red" id="130982" name="任丘市"/>
<circle cx="4345" cy="4369" r="200" stroke="black" stroke-width="1" fill="red" id="130981"  position="1" name="泊头市"/>
<circle cx="8212" cy="2877" r="200" stroke="black" stroke-width="1" fill="red" id="130983" name="黄骅市"/>
<circle cx="675" cy="2580" r="200" stroke="black" stroke-width="1" fill="red" id="130926" name="肃宁县"/>
<circle cx="4149" cy="5300" r="200" stroke="black" stroke-width="1" fill="red" id="130923" name="东光县"/>
<circle cx="3426" cy="6596" r="200" stroke="black" stroke-width="1" fill="red" id="130928" name="吴桥县"/>
<circle cx="5022" cy="4527" r="200" stroke="black" stroke-width="1" fill="red" id="130927"  position="1" name="南皮县"/>
<circle cx="2101" cy="3769" r="200" stroke="black" stroke-width="1" fill="red" id="130929" name="献县"/>
<circle cx="5692" cy="1834" r="200" stroke="black" stroke-width="1" fill="red" id="130922" name="青县"/>
<circle cx="8958" cy="4011" r="200" stroke="black" stroke-width="1" fill="red" id="130924" name="海兴县"/>
<circle cx="6983" cy="4442" r="200" stroke="black" stroke-width="1" fill="red" id="130930"  position="44" name="孟村回族自治县"/>
<circle cx="7616" cy="4445" r="200" stroke="black" stroke-width="1" fill="red" id="130925" name="盐山县"/>
<circle cx="5868" cy="3260" r="200" stroke="black" stroke-width="1" fill="red" id="130921"  position="333" name="沧县"/>
<circle cx="5773" cy="3153" r="200" stroke="black" stroke-width="1" fill="red" id="130903"  position="" name="运河区"/>
<circle cx="5813" cy="3151" r="200" stroke="black" stroke-width="1" fill="red" id="130902" position="124" name="新华区"/>
<path d="" class="polyStyle" id="" style="fill:#ee8b94"/>
<path d="" class="polyStyle" id="623022" style="fill:#fbe6ef"/>
<path d="" class="polyStyle" id="211421" style="fill:#f6f67b"/>
<path d="" class="polyStyle" id="532524" style="fill:#ee8b94"/>
<path d="" class="polyStyle" id="440825" style="fill:#f6f67b"/>
<path d="" class="polyStyle" id="441721" style="fill:#f6f67b"/>
<path d="" class="polyStyle" id="450521" style="fill:#f6f67b"/>
<path d="" class="polyStyle" id="450123" style="fill:#fbe6ef"/>
<path d="" class="polyStyle" id="350624" style="fill:#f6f67b"/>
<path d="" class="polyStyle" id="" style="fill:#fbe6ef"/>
<path d="" class="polyStyle" id="451224" style="fill:#fbe6ef"/>
<path d="" class="polyStyle" id="350627" style="fill:#f6f67b"/>
<path d="" class="polyStyle" id="" style="fill:#f6f67b"/>
<path d="" class="polyStyle" id="350525" style="fill:#f6f67b"/>
<path d="" class="polyStyle" id="530124" style="fill:#ee8b94"/>
<path d="" class="polyStyle" id="522627" style="fill:#ee8b94"/>
<path d="" class="polyStyle" id="510421" style="fill:#fbe6ef"/>
<path d="" class="polyStyle" id="522623" style="fill:#d4ecb2"/>
<path d="" class="polyStyle" id="430321" style="fill:#d4ecb2"/>
<path d="" class="polyStyle" id="511129" style="fill:#d4ecb2"/>
<path d="" class="polyStyle" id="511423" style="fill:#ee8b94"/>
<path d="" class="polyStyle" id="421023" style="fill:#f6f67b"/>
<path d="" class="polyStyle" id="511724" style="fill:#f6f67b"/>
<path d="" class="polyStyle" id="420526" style="fill:#fbe6ef"/>
<path d="" class="polyStyle" id="511923" style="fill:#fbe6ef"/>
<path d="" class="polyStyle" id="420325" style="fill:#fbe6ef"/>
<path d="" class="polyStyle" id="511921" style="fill:#f6f67b"/>
<path d="" class="polyStyle" id="542525" style="fill:#f6f67b"/>
<path d="" class="polyStyle" id="611026" style="fill:#ee8b94"/>
<path d="" class="polyStyle" id="411023" style="fill:#fbe6ef"/>
<path d="" class="polyStyle" id="632323" style="fill:#f6f67b"/>
<path d="" class="polyStyle" id="140525" style="fill:#d4ecb2"/>
<path d="" class="polyStyle" id="410922" style="fill:#ee8b94"/>
<path d="" class="polyStyle" id="621027" style="fill:#ee8b94"/>
<path d="" class="polyStyle" id="130427" style="fill:#f6f67b"/>
<polygon points="4075,5828 4105,5819 4147,5824 4208,5840 4235,5841 4293,5826 4322,5828 4351,5836 4377,5868 4396,5894 4431,5912 4477,5922 4508,5928 4538,5939 4562,5941 4594,5925 4616,5895 4643,5876 4668,5872 4696,5877 4712,5912 4731,5944 4775,5957 4838,5961 4859,5947 4885,5921 4918,5921 4941,5937 4967,5954 4988,5988 4989,6020 4963,6035 4963,6051 4967,6074 4948,6080 4939,6083 4926,6088 4919,6073 4867,6081 4871,6091 4873,6107 4866,6114 4862,6124 4855,6138 4847,6171 4843,6183 4838,6201 4834,6211 4833,6220 4825,6245 4813,6280 4809,6289 4794,6305 4786,6314 4776,6321 4771,6325 4759,6334 4751,6341 4723,6333 4693,6315 4681,6315 4675,6319 4667,6329 4663,6339 4664,6355 4666,6365 4671,6375 4677,6387 4685,6393 4691,6395 4681,6410 4671,6422 4638,6462 4624,6475 4607,6493 4597,6505 4583,6521 4559,6551 4537,6574 4521,6589 4531,6595 4519,6611 4506,6603 4503,6605 4496,6611 4488,6617 4482,6622 4469,6628 4466,6629 4462,6631 4447,6639 4440,6641 4428,6646 4418,6649 4390,6662 4376,6668 4362,6675 4356,6683 4351,6690 4344,6698 4312,6708 4295,6713 4272,6723 4258,6730 4257,6733 4263,6739 4283,6743 4297,6745 4301,6748 4300,6751 4285,6768 4283,6772 4278,6778 4256,6795 4220,6814 4208,6824 4200,6845 4198,6852 4191,6867 4187,6871 4179,6881 4165,6890 4160,6890 4154,6894 4148,6895 4142,6898 4119,6905 4082,6927 4079,6931 4072,6939 4054,6972 4049,6979 4042,6990 4036,7002 4031,7009 4025,7012 4007,7024 3982,7037 3979,7039 3962,7052 3942,7071 3937,7077 3929,7090 3917,7102 3907,7110 3896,7114 3853,7124 3808,7131 3798,7134 3779,7143 3762,7156 3752,7166 3737,7186 3723,7211 3718,7224 3712,7245 3703,7270 3700,7278 3695,7293 3688,7310 3682,7325 3680,7329 3670,7344 3629,7340 3603,7334 3583,7330 3555,7266 3531,7266 3527,7228 3523,7202 3489,7188 3495,7162 3485,7160 3455,7154 3433,7176 3419,7168 3411,7164 3397,7158 3423,7124 3413,7114 3389,7108 3375,7120 3355,7116 3313,7092 3329,7068 3309,7056 3341,7024 3365,7008 3367,6994 3351,6994 3351,6976 3347,6926 3367,6930 3369,6920 3371,6910 3337,6902 3327,6900 3317,6900 3311,6896 3317,6882 3291,6876 3287,6880 3275,6898 3257,6906 3241,6912 3217,6906 3193,6896 3187,6882 3175,6832 3158,6820 3167,6814 3165,6810 3162,6808 3158,6807 3151,6802 3144,6799 3135,6792 3134,6777 3141,6756 3142,6754 3146,6749 3150,6728 3148,6722 3140,6712 3135,6704 3130,6699 3129,6695 3141,6683 3159,6682 3180,6682 3185,6681 3188,6679 3190,6672 3190,6664 3194,6658 3222,6664 3230,6668 3237,6670 3251,6670 3260,6667 3267,6660 3269,6645 3273,6642 3274,6638 3279,6634 3288,6634 3291,6635 3294,6637 3310,6648 3335,6652 3339,6651 3350,6643 3355,6638 3356,6622 3352,6606 3350,6601 3349,6595 3348,6585 3349,6583 3351,6565 3352,6538 3344,6515 3334,6506 3331,6501 3322,6493 3316,6485 3319,6477 3326,6471 3328,6459 3335,6452 3343,6449 3361,6446 3368,6440 3362,6420 3359,6418 3357,6417 3351,6411 3343,6404 3342,6396 3345,6391 3355,6384 3361,6383 3372,6376 3370,6364 3362,6361 3360,6358 3359,6354 3362,6349 3369,6348 3375,6350 3383,6350 3398,6357 3407,6358 3410,6355 3409,6350 3405,6345 3404,6342 3396,6334 3390,6324 3394,6311 3406,6300 3408,6296 3410,6293 3416,6278 3416,6263 3418,6255 3419,6250 3423,6247 3433,6249 3437,6253 3445,6256 3454,6256 3457,6254 3456,6244 3448,6236 3445,6235 3441,6228 3442,6221 3448,6215 3451,6211 3469,6199 3474,6194 3487,6186 3500,6175 3503,6174 3505,6171 3518,6160 3522,6154 3525,6151 3545,6128 3551,6114 3554,6112 3556,6104 3555,6094 3552,6083 3551,6078 3547,6072 3547,6064 3552,6059 3556,6060 3564,6064 3583,6074 3590,6075 3593,6071 3596,6064 3603,6057 3605,6053 3623,6052 3630,6054 3640,6055 3648,6053 3656,6047 3659,6043 3658,6033 3652,6020 3643,6012 3637,6004 3637,5991 3630,5984 3624,5981 3620,5978 3617,5978 3613,5975 3615,5968 3618,5967 3638,5967 3660,5968 3669,5965 3676,5960 3679,5947 3684,5930 3687,5927 3697,5926 3719,5933 3731,5935 3737,5933 3744,5928 3748,5920 3752,5908 3753,5896 3758,5893 3760,5888 3768,5882 3771,5880 3772,5852 3772,5848 3775,5840 3787,5835 3803,5833 3815,5833 3826,5833 3861,5832 3886,5824 3911,5830 3937,5809 3969,5793 3999,5786 4031,5790 " class="polyStyle" id="130928" style="fill:#ee8b94"/>
<polygon points="4782,4587 4808,4608 4819,4634 4837,4675 4850,4710 4859,4718 4900,4731 4929,4730 4943,4757 4946,4785 4976,4793 5002,4790 5029,4785 5049,4806 5081,4793 5099,4809 5124,4819 5162,4822 5205,4845 5227,4843 5254,4830 5285,4851 5310,4865 5360,4862 5399,4852 5441,4860 5474,4849 5521,4863 5549,4886 5582,4895 5613,4904 5631,4907 5641,4922 5673,4947 5712,4952 5729,4981 5724,5010 5719,5045 5722,5072 5759,5094 5783,5121 5779,5160 5779,5204 5789,5241 5773,5260 5751,5266 5744,5296 5756,5314 5804,5318 5854,5342 5906,5376 5919,5406 5918,5435 5920,5465 5918,5503 5903,5505 5879,5506 5857,5511 5844,5514 5841,5516 5830,5521 5798,5530 5782,5536 5764,5540 5761,5543 5748,5546 5735,5551 5727,5551 5718,5551 5710,5552 5688,5553 5674,5551 5649,5540 5615,5520 5589,5515 5572,5519 5559,5517 5541,5509 5529,5495 5513,5481 5501,5473 5491,5473 5483,5483 5477,5487 5469,5493 5463,5495 5443,5499 5435,5501 5425,5505 5421,5511 5415,5521 5412,5528 5411,5543 5411,5557 5411,5575 5411,5579 5407,5591 5408,5594 5378,5616 5343,5644 5322,5659 5293,5691 5284,5705 5275,5710 5259,5717 5249,5721 5235,5721 5227,5721 5219,5715 5217,5709 5217,5703 5211,5701 5207,5701 5201,5707 5195,5715 5191,5725 5189,5733 5189,5737 5193,5749 5205,5759 5225,5763 5255,5765 5258,5765 5252,5796 5252,5867 5250,5873 5250,5881 5247,5893 5248,5896 5241,5912 5226,5927 5201,5943 5189,5939 5157,5937 5141,5929 5125,5911 5099,5899 5089,5897 5085,5901 5073,5913 5079,5931 5073,5953 5091,5995 5097,6008 5072,6023 5037,6039 5021,6049 4997,6015 4989,6020 4988,5988 4967,5954 4941,5937 4918,5921 4885,5921 4859,5947 4838,5961 4775,5957 4731,5944 4712,5912 4696,5877 4668,5872 4643,5876 4616,5895 4594,5925 4562,5941 4538,5939 4508,5928 4477,5922 4431,5912 4396,5894 4377,5868 4351,5836 4322,5828 4293,5826 4235,5841 4208,5840 4147,5824 4105,5819 4075,5828 4031,5790 3999,5786 3969,5793 3937,5809 3911,5830 3886,5824 3861,5832 3826,5833 3831,5831 3838,5825 3840,5821 3840,5812 3842,5804 3844,5794 3843,5791 3843,5783 3844,5771 3848,5751 3850,5730 3847,5722 3840,5718 3838,5715 3831,5713 3822,5707 3821,5704 3821,5699 3836,5690 3841,5689 3850,5680 3853,5672 3841,5648 3844,5639 3852,5632 3855,5630 3857,5623 3865,5619 3870,5612 3874,5608 3877,5598 3880,5595 3882,5573 3877,5565 3863,5550 3868,5534 3869,5526 3864,5514 3861,5509 3860,5499 3870,5488 3872,5479 3869,5467 3861,5460 3853,5456 3846,5448 3846,5437 3851,5417 3854,5414 3857,5402 3863,5399 3872,5398 3884,5408 3891,5414 3899,5419 3908,5420 3916,5416 3920,5411 3926,5410 3937,5409 3953,5415 3964,5415 3989,5410 4003,5410 4013,5412 4017,5414 4032,5416 4038,5413 4041,5410 4040,5400 4035,5396 4010,5381 4007,5375 4009,5368 4015,5362 4034,5354 4037,5352 4043,5349 4046,5343 4046,5334 4044,5328 4044,5313 4047,5306 4053,5286 4056,5283 4058,5276 4058,5267 4060,5263 4070,5253 4080,5250 4082,5248 4101,5237 4106,5233 4108,5228 4108,5218 4104,5208 4104,5205 4111,5201 4134,5196 4138,5194 4139,5164 4141,5156 4142,5153 4148,5148 4153,5146 4162,5140 4167,5134 4175,5099 4178,5093 4190,5082 4202,5075 4208,5073 4210,5069 4210,5055 4211,5045 4213,5036 4215,5034 4220,5029 4225,5020 4233,5013 4246,4996 4250,4980 4260,4949 4262,4946 4271,4923 4276,4900 4281,4883 4294,4853 4301,4833 4305,4817 4305,4809 4307,4802 4307,4769 4310,4757 4311,4740 4306,4729 4305,4718 4300,4695 4301,4691 4299,4672 4298,4662 4297,4657 4297,4653 4296,4639 4297,4635 4296,4625 4296,4615 4327,4605 4359,4599 4387,4601 4414,4602 4441,4604 4474,4605 4501,4608 4530,4621 4562,4612 4591,4591 4624,4592 4652,4591 4685,4593 4700,4565 4730,4557 4756,4583 " class="polyStyle" id="130923" style="fill:#fbe6ef"/>
<polygon points="7801,4155 7840,4152 7878,4161 7914,4165 7950,4185 7987,4194 8041,4201 8079,4201 8085,4210 8108,4220 8155,4225 8198,4235 8225,4250 8245,4275 8248,4287 8230,4310 8205,4322 8188,4345 8213,4355 8230,4357 8240,4387 8243,4430 8263,4440 8300,4445 8360,4442 8405,4447 8425,4470 8435,4487 8425,4500 8395,4515 8368,4540 8350,4557 8328,4565 8328,4585 8335,4617 8345,4642 8373,4645 8400,4640 8415,4622 8428,4622 8448,4642 8455,4667 8473,4680 8495,4685 8498,4707 8488,4747 8495,4780 8518,4780 8568,4782 8608,4785 8643,4795 8655,4805 8655,4835 8673,4842 8710,4845 8743,4850 8783,4862 8803,4882 8810,4912 8810,4935 8783,4957 8760,4977 8753,5010 8753,5037 8758,5055 8780,5060 8810,5060 8845,5045 8860,5022 8883,5020 8905,5027 8935,5027 8955,5040 8985,5056 8922,5104 8906,5124 8888,5141 8859,5190 8829,5239 8808,5271 8786,5301 8769,5323 8752,5346 8719,5388 8701,5412 8670,5447 8657,5459 8639,5470 8614,5481 8587,5490 8560,5498 8535,5504 8523,5506 8514,5506 8500,5506 8487,5504 8480,5501 8462,5489 8424,5468 8412,5461 8401,5457 8377,5452 8356,5452 8318,5455 8302,5454 8288,5450 8220,5419 8205,5413 8191,5410 8178,5408 8164,5408 8151,5410 8133,5413 8088,5417 8072,5419 8054,5424 8044,5429 8027,5440 8025,5442 7989,5464 7953,5477 7926,5482 7914,5484 7897,5490 7860,5513 7830,5528 7826,5530 7826,5505 7747,5504 7740,5527 7675,5521 7622,5517 7560,5509 7472,5497 7417,5482 7377,5481 7352,5490 7320,5513 7296,5523 7266,5527 7200,5524 7181,5523 7146,5516 6997,5487 6945,5482 6878,5481 6829,5486 6790,5496 6759,5507 6736,5518 6709,5532 6678,5546 6658,5555 6646,5558 6645,5523 6630,5503 6625,5483 6632,5465 6630,5450 6605,5428 6607,5398 6632,5370 6652,5338 6650,5310 6650,5283 6642,5255 6637,5218 6635,5175 6637,5128 6655,5085 6650,5045 6655,5015 6657,4988 6633,4968 6595,4943 6570,4930 6530,4910 6500,4900 6487,4875 6500,4855 6515,4838 6535,4815 6572,4800 6602,4791 6626,4787 6636,4786 6679,4796 6723,4802 6753,4815 6781,4833 6802,4858 6826,4886 6865,4906 6907,4916 6950,4917 6985,4916 7028,4905 7073,4900 7124,4919 7164,4940 7191,4964 7207,4986 7241,5013 7299,5017 7354,5020 7412,5025 7455,5023 7483,5002 7498,4973 7505,4947 7497,4906 7484,4855 7465,4810 7459,4782 7446,4751 7434,4715 7418,4699 7376,4708 7351,4698 7366,4677 7363,4648 7346,4629 7329,4608 7310,4580 7259,4542 7229,4510 7216,4478 7250,4473 7256,4446 7274,4421 7302,4406 7306,4377 7321,4342 7346,4327 7354,4307 7373,4273 7389,4249 7402,4224 7412,4199 7432,4173 7470,4171 7496,4148 7542,4159 7575,4138 7603,4144 7638,4143 7677,4114 7714,4111 7752,4108 7779,4130 " class="polyStyle" id="130925" style="fill:#f6f67b"/>
<polygon points="5248,3803 5251,3804 5258,3808 5264,3810 5274,3827 5277,3845 5295,3853 5312,3859 5349,3871 5378,3883 5418,3901 5465,3920 5490,3941 5492,3962 5487,3990 5480,4020 5502,4030 5520,4030 5542,4027 5557,4015 5590,4015 5610,3997 5630,3990 5672,3992 5700,4002 5725,4012 5757,4010 5790,4002 5827,3987 5845,4000 5837,4047 5827,4082 5832,4112 5840,4155 5857,4192 5895,4210 5942,4205 5992,4217 6012,4210 6020,4195 6050,4195 6110,4200 6122,4220 6145,4242 6175,4242 6175,4260 6202,4285 6210,4307 6237,4315 6300,4307 6367,4290 6435,4277 6502,4252 6567,4235 6587,4232 6592,4232 6592,4272 6585,4317 6580,4370 6587,4417 6606,4446 6650,4469 6675,4520 6670,4567 6660,4592 6632,4600 6625,4622 6625,4652 6640,4682 6665,4697 6672,4717 6662,4730 6642,4737 6632,4767 6626,4787 6602,4791 6572,4800 6535,4815 6515,4838 6500,4855 6487,4875 6500,4900 6530,4910 6570,4930 6595,4943 6633,4968 6657,4988 6655,5015 6650,5045 6655,5085 6637,5128 6635,5175 6637,5218 6642,5255 6650,5283 6650,5310 6652,5338 6632,5370 6607,5398 6605,5428 6630,5450 6632,5465 6625,5483 6630,5503 6645,5523 6646,5558 6643,5559 6623,5563 6609,5562 6601,5563 6540,5556 6513,5551 6497,5550 6483,5547 6439,5537 6426,5534 6381,5525 6364,5523 6344,5520 6339,5520 6329,5522 6320,5522 6292,5528 6272,5527 6245,5527 6233,5524 6222,5524 6210,5523 6204,5521 6185,5517 6176,5514 6162,5512 6147,5509 6125,5503 6094,5497 6063,5497 6053,5497 6046,5499 5997,5498 5982,5499 5959,5499 5949,5501 5944,5503 5932,5504 5925,5502 5918,5503 5920,5465 5918,5435 5919,5406 5906,5376 5854,5342 5804,5318 5756,5314 5744,5296 5751,5266 5773,5260 5789,5241 5779,5204 5779,5160 5783,5121 5759,5094 5722,5072 5719,5045 5724,5010 5729,4981 5712,4952 5673,4947 5641,4922 5631,4907 5613,4904 5582,4895 5549,4886 5521,4863 5474,4849 5441,4860 5399,4852 5360,4862 5310,4865 5285,4851 5254,4830 5227,4843 5205,4845 5162,4822 5124,4819 5099,4809 5081,4793 5049,4806 5029,4785 5002,4790 4976,4793 4946,4785 4943,4757 4929,4730 4900,4731 4859,4718 4850,4710 4837,4675 4819,4634 4808,4608 4782,4587 4756,4583 4730,4557 4700,4565 4685,4593 4652,4591 4624,4592 4591,4591 4562,4612 4530,4621 4501,4608 4474,4605 4441,4604 4414,4602 4387,4601 4359,4599 4327,4605 4296,4615 4296,4610 4294,4605 4291,4600 4286,4594 4280,4591 4276,4589 4267,4583 4266,4580 4252,4574 4254,4569 4255,4563 4255,4550 4237,4530 4231,4522 4227,4517 4225,4512 4222,4505 4224,4500 4228,4499 4233,4491 4235,4488 4261,4488 4285,4490 4307,4499 4343,4506 4371,4518 4421,4517 4435,4495 4450,4460 4477,4441 4514,4449 4565,4452 4568,4473 4574,4490 4601,4484 4642,4471 4673,4473 4701,4472 4732,4475 4746,4460 4751,4414 4770,4394 4795,4379 4813,4354 4834,4335 4833,4305 4818,4277 4789,4257 4777,4231 4737,4213 4700,4197 4659,4185 4627,4173 4616,4157 4619,4154 4624,4149 4629,4146 4633,4144 4636,4142 4643,4140 4647,4141 4652,4142 4662,4144 4673,4146 4677,4146 4681,4146 4684,4145 4688,4145 4692,4141 4694,4136 4695,4132 4696,4121 4698,4116 4703,4111 4708,4107 4728,4090 4729,4086 4731,4082 4732,4076 4733,4068 4736,4064 4740,4062 4749,4062 4758,4063 4762,4063 4771,4064 4775,4065 4779,4063 4784,4061 4789,4056 4791,4051 4794,4047 4795,4042 4799,4037 4804,4035 4807,4034 4813,4035 4821,4039 4833,4049 4846,4049 4851,4047 4855,4045 4862,4040 4865,4038 4870,4035 4878,4032 4882,4031 4886,4030 4890,4029 4899,4025 4902,4020 4902,4015 4901,4012 4899,4008 4897,4005 4898,4001 4900,3998 4906,3996 4909,3997 4914,3998 4918,3998 4922,3998 4932,3997 4935,3997 4940,3993 4944,3989 4947,3986 4949,3983 4952,3982 4955,3980 4958,3978 4961,3978 4984,3977 4992,3972 4999,3967 5002,3965 5005,3964 5010,3963 5015,3963 5020,3962 5034,3961 5038,3958 5041,3956 5047,3953 5050,3951 5053,3950 5057,3947 5061,3945 5064,3943 5068,3941 5071,3940 5074,3937 5080,3934 5085,3932 5088,3930 5096,3925 5100,3923 5107,3921 5114,3918 5121,3915 5130,3911 5135,3907 5137,3903 5135,3899 5132,3895 5130,3892 5132,3888 5137,3884 5140,3884 5144,3884 5148,3885 5152,3887 5157,3888 5165,3887 5168,3885 5167,3880 5165,3875 5162,3870 5159,3865 5160,3862 5161,3859 5165,3857 5175,3853 5180,3851 5183,3848 5188,3843 5187,3840 5186,3835 5187,3829 5193,3824 5199,3825 5206,3828 5212,3830 5218,3829 5221,3827 5225,3823 5226,3818 5228,3814 5227,3811 5228,3803 5232,3801 5235,3801 5242,3802 " class="polyStyle" id="130927" style="fill:#d4ecb2"/>
<path d="" class="polyStyle" id="130121" style="fill:#ee8b94"/>
<polygon points="7229,3569 7251,3595 7252,3630 7254,3661 7282,3669 7318,3682 7350,3686 7382,3691 7405,3719 7429,3732 7448,3758 7473,3786 7477,3824 7485,3845 7526,3849 7568,3843 7593,3846 7621,3848 7650,3855 7680,3844 7708,3841 7736,3840 7762,3850 7779,3865 7809,3893 7827,3923 7858,3938 7901,3929 7927,3939 7951,3956 7983,3937 8006,3925 8029,3936 8060,3934 8089,3936 8120,3936 8151,3941 8172,3937 8190,3975 8200,4002 8200,4032 8183,4067 8160,4087 8135,4115 8115,4127 8103,4150 8083,4177 8075,4195 8079,4201 8041,4201 7987,4194 7950,4185 7914,4165 7878,4161 7840,4152 7801,4155 7779,4130 7752,4108 7714,4111 7677,4114 7638,4143 7603,4144 7575,4138 7542,4159 7496,4148 7470,4171 7432,4173 7412,4199 7402,4224 7389,4249 7373,4273 7354,4307 7346,4327 7321,4342 7306,4377 7302,4406 7274,4421 7256,4446 7250,4473 7216,4478 7229,4510 7259,4542 7310,4580 7329,4608 7346,4629 7363,4648 7366,4677 7351,4698 7376,4708 7418,4699 7434,4715 7446,4751 7459,4782 7465,4810 7484,4855 7497,4906 7505,4947 7498,4973 7483,5002 7455,5023 7412,5025 7354,5020 7299,5017 7241,5013 7207,4986 7191,4964 7164,4940 7124,4919 7073,4900 7028,4905 6985,4916 6950,4917 6907,4916 6865,4906 6826,4886 6802,4858 6781,4833 6753,4815 6723,4802 6679,4796 6636,4786 6626,4787 6632,4767 6642,4737 6662,4730 6672,4717 6665,4697 6640,4682 6625,4652 6625,4622 6632,4600 6660,4592 6670,4567 6675,4520 6650,4469 6606,4446 6587,4417 6580,4370 6585,4317 6592,4272 6592,4232 6587,4232 6605,4208 6620,4193 6635,4168 6672,4138 6722,4115 6755,4095 6805,4083 6840,4078 6862,4078 6875,4088 6877,4105 6885,4123 6917,4110 6940,4093 6970,4075 7007,4073 7037,4075 7045,4053 7050,4023 7067,3995 7090,3973 7120,3960 7155,3963 7192,3968 7210,3945 7212,3910 7195,3893 7165,3873 7130,3865 7085,3868 7070,3848 7085,3823 7097,3800 7080,3763 7070,3718 7072,3673 7080,3640 7105,3615 7140,3590 7193,3548 7208,3551 " class="polyStyle" id="130930" style="fill:#ee8b94"/>
<path d="" class="polyStyle" id="610823" style="fill:#fbe6ef"/>
<polygon points="9908,3318 10006,3338 10075,3353 10120,3363 10181,3377 10227,3386 10257,3402 10289,3419 10315,3446 10341,3463 10367,3452 10394,3436 10422,3422 10451,3400 10474,3372 10487,3359 10503,3344 10515,3336 10531,3343 10557,3360 10581,3378 10600,3389 10623,3399 10655,3405 10695,3405 10732,3397 10744,3394 10738,3415 10735,3432 10730,3442 10718,3454 10703,3464 10653,3478 10625,3487 10615,3495 10610,3509 10604,3531 10599,3540 10592,3548 10584,3554 10543,3566 10529,3572 10518,3579 10508,3591 10506,3597 10506,3604 10510,3616 10512,3626 10509,3634 10491,3650 10485,3661 10477,3671 10440,3693 10433,3703 10432,3707 10433,3712 10438,3720 10450,3729 10461,3740 10462,3752 10459,3767 10443,3797 10439,3803 10438,3809 10439,3816 10443,3821 10456,3831 10483,3841 10486,3844 10487,3849 10486,3858 10474,3874 10463,3885 10457,3888 10449,3889 10395,3886 10381,3889 10368,3899 10363,3901 10342,3907 10321,3913 10315,3916 10312,3921 10311,3925 10312,3933 10321,3955 10331,3987 10335,4008 10337,4030 10335,4043 10329,4052 10326,4056 10321,4059 10317,4062 10310,4064 10292,4070 10252,4087 10227,4093 10212,4097 10200,4106 10190,4119 10186,4125 10183,4134 10169,4149 10130,4185 10124,4201 10125,4218 10125,4235 10121,4251 10115,4261 10107,4266 10092,4270 10077,4277 10062,4287 10046,4301 10039,4308 10022,4331 10006,4341 9994,4343 9971,4342 9919,4334 9891,4325 9880,4323 9868,4325 9855,4330 9840,4339 9819,4351 9808,4357 9790,4362 9766,4359 9747,4358 9708,4359 9639,4367 9582,4378 9575,4378 9562,4374 9536,4366 9513,4359 9464,4359 9426,4362 9414,4362 9403,4364 9386,4373 9355,4400 9332,4401 9308,4401 9295,4408 9292,4415 9294,4423 9296,4433 9288,4439 9276,4441 9260,4437 9254,4441 9254,4457 9254,4463 9252,4479 9258,4493 9264,4501 9272,4511 9279,4516 9262,4538 9227,4566 9208,4584 9200,4600 9198,4613 9196,4626 9196,4640 9193,4651 9180,4667 9179,4669 9143,4705 9139,4710 9138,4715 9133,4725 9115,4744 9107,4755 9102,4770 9097,4789 9091,4825 9083,4872 9081,4886 9079,4897 9068,4930 9055,4960 9041,4994 9034,5011 9028,5021 9016,5032 8985,5056 8955,5040 8935,5027 8905,5027 8883,5020 8860,5022 8845,5045 8810,5060 8780,5060 8758,5055 8753,5037 8753,5010 8760,4977 8783,4957 8810,4935 8810,4912 8803,4882 8783,4862 8743,4850 8710,4845 8673,4842 8655,4835 8655,4805 8643,4795 8608,4785 8568,4782 8518,4780 8495,4780 8488,4747 8498,4707 8495,4685 8473,4680 8455,4667 8448,4642 8428,4622 8415,4622 8400,4640 8373,4645 8345,4642 8335,4617 8328,4585 8328,4565 8350,4557 8368,4540 8395,4515 8425,4500 8435,4487 8425,4470 8405,4447 8360,4442 8300,4445 8263,4440 8243,4430 8240,4387 8230,4357 8213,4355 8188,4345 8205,4322 8230,4310 8248,4287 8245,4275 8225,4250 8198,4235 8155,4225 8108,4220 8085,4210 8079,4201 8075,4195 8083,4177 8103,4150 8115,4127 8135,4115 8160,4087 8183,4067 8200,4032 8200,4002 8190,3975 8172,3937 8177,3937 8203,3947 8230,3951 8256,3938 8266,3912 8251,3889 8259,3861 8273,3835 8288,3819 8313,3804 8313,3774 8343,3765 8364,3782 8393,3766 8390,3741 8364,3713 8333,3701 8330,3679 8340,3665 8376,3653 8375,3638 8392,3613 8429,3613 8460,3612 8514,3609 8579,3600 8661,3601 8698,3608 8723,3636 8762,3639 8792,3662 8860,3675 8908,3665 8942,3655 8972,3674 9014,3661 9045,3651 9060,3630 9087,3614 9132,3604 9182,3612 9213,3617 9231,3591 9259,3582 9289,3580 9312,3585 9341,3595 9377,3587 9400,3560 9419,3565 9456,3551 9486,3542 9510,3510 9483,3491 9495,3456 9528,3453 9531,3430 9518,3403 9525,3364 9536,3336 9593,3323 9684,3321 9753,3307 9779,3306 9817,3304 9857,3314 " class="polyStyle" id="130924" style="fill:#d4ecb2"/>
<polygon points="2521,2845 2559,2844 2590,2861 2625,2887 2662,2909 2711,2913 2730,2895 2758,2905 2785,2911 2811,2914 2848,2921 2875,2937 2909,2948 2944,2936 2971,2930 2984,2962 3009,2984 3041,2999 3087,3001 3115,2990 3125,2975 3112,2946 3138,2922 3171,2899 3203,2896 3242,2895 3278,2895 3310,2912 3340,2936 3365,2967 3392,2973 3433,2969 3467,2964 3500,2964 3538,2970 3581,2982 3602,2962 3627,2942 3660,2939 3708,2959 3710,3005 3712,3031 3694,3057 3695,3083 3709,3121 3719,3147 3750,3168 3788,3169 3805,3171 3816,3204 3818,3225 3823,3249 3830,3275 3819,3307 3822,3336 3795,3365 3822,3393 3849,3405 3879,3429 3911,3430 3943,3433 3974,3440 4002,3470 3999,3506 3979,3542 3973,3570 3992,3596 3998,3613 3998,3635 3985,3637 3961,3667 3948,3693 3935,3728 3918,3759 3900,3781 3875,3790 3838,3795 3816,3788 3790,3745 3763,3730 3716,3723 3682,3724 3645,3726 3620,3726 3584,3724 3548,3718 3511,3711 3480,3710 3467,3743 3441,3770 3412,3773 3384,3773 3366,3746 3336,3735 3317,3740 3287,3756 3253,3772 3213,3784 3187,3792 3160,3795 3121,3794 3088,3787 3067,3789 3049,3786 3057,3760 3049,3731 3012,3723 2977,3732 2946,3756 2936,3787 2931,3813 2927,3846 2923,3873 2928,3905 2950,3917 2952,3942 2941,3953 2919,3958 2900,3975 2897,4013 2921,4032 2952,4029 2948,4047 2913,4056 2879,4054 2843,4061 2815,4077 2807,4101 2771,4113 2733,4104 2711,4126 2680,4131 2631,4145 2604,4161 2600,4192 2578,4225 2551,4226 2519,4219 2499,4191 2465,4197 2427,4200 2404,4181 2382,4166 2350,4173 2316,4182 2277,4166 2255,4176 2258,4210 2259,4248 2226,4277 2204,4300 2195,4328 2160,4327 2134,4321 2103,4308 2075,4304 2035,4303 1996,4322 1958,4329 1925,4347 1892,4359 1857,4378 1823,4390 1784,4392 1755,4416 1734,4390 1708,4377 1672,4356 1644,4322 1638,4297 1633,4268 1620,4238 1647,4204 1677,4185 1706,4163 1729,4137 1742,4111 1752,4083 1753,4051 1727,4037 1725,4008 1699,3995 1672,4009 1644,4014 1618,4018 1593,4039 1557,4039 1532,4039 1500,4063 1475,4072 1447,4070 1421,4085 1394,4088 1368,4070 1355,4042 1328,4027 1300,4024 1274,4021 1245,4018 1218,4008 1192,3998 1167,3997 1161,3968 1160,3942 1158,3916 1135,3900 1093,3913 1047,3918 1005,3933 975,3939 941,3923 918,3907 904,3875 918,3847 945,3817 970,3788 969,3761 967,3726 940,3706 913,3675 901,3668 882,3653 850,3629 823,3605 814,3577 810,3549 806,3522 805,3492 802,3461 795,3430 767,3396 735,3373 700,3360 669,3340 646,3301 638,3267 634,3233 671,3218 677,3215 700,3240 723,3248 750,3239 778,3232 798,3269 815,3298 831,3325 849,3365 873,3380 917,3362 944,3311 978,3272 1007,3254 1036,3250 1040,3216 1077,3194 1117,3182 1143,3160 1171,3147 1198,3114 1210,3065 1232,3045 1270,3044 1298,3034 1326,3044 1348,3069 1377,3078 1404,3079 1429,3093 1454,3108 1485,3126 1513,3110 1558,3087 1575,3081 1591,3076 1620,3079 1650,3080 1679,3082 1718,3084 1750,3086 1781,3087 1809,3095 1812,3095 1843,3103 1876,3115 1917,3118 1943,3120 1975,3126 2014,3143 2045,3137 2075,3114 2074,3086 2106,3065 2131,3041 2166,3031 2193,3029 2223,3022 2253,3022 2285,3033 2309,3055 2336,3058 2341,3014 2354,2972 2374,2952 2397,2949 2407,2920 2405,2875 2426,2844 2455,2827 2488,2835 " class="polyStyle" id="130929" style="fill:#ee8b94"/>
<polygon points="926,2100 972,2106 1004,2109 1062,2095 1103,2086 1141,2090 1155,2113 1152,2140 1135,2165 1115,2183 1087,2223 1067,2245 1070,2273 1082,2295 1112,2320 1152,2325 1197,2320 1235,2300 1280,2303 1345,2295 1405,2303 1440,2305 1457,2335 1480,2353 1520,2355 1570,2373 1570,2408 1582,2450 1612,2503 1615,2543 1600,2575 1580,2605 1585,2625 1615,2645 1650,2660 1680,2660 1695,2673 1690,2705 1665,2720 1655,2748 1655,2788 1660,2838 1660,2875 1660,2913 1637,2948 1612,2970 1572,3003 1572,3038 1572,3065 1575,3081 1558,3087 1513,3110 1485,3126 1454,3108 1429,3093 1404,3079 1377,3078 1348,3069 1326,3044 1298,3034 1270,3044 1232,3045 1210,3065 1198,3114 1171,3147 1143,3160 1117,3182 1077,3194 1040,3216 1036,3250 1007,3254 978,3272 944,3311 917,3362 873,3380 849,3365 831,3325 815,3298 798,3269 778,3232 750,3239 723,3248 700,3240 677,3215 698,3206 697,3157 684,3128 687,3103 691,3075 678,3044 653,3032 605,3029 557,3028 513,3027 478,3019 446,3017 419,2981 391,2960 346,2953 298,2944 254,2938 226,2898 199,2872 173,2877 160,2906 140,2932 105,2931 68,2925 37,2917 5,2918 0,2920 2,2903 9,2874 17,2841 43,2830 76,2831 114,2830 144,2799 147,2768 139,2742 133,2705 118,2672 97,2643 99,2611 96,2579 85,2551 66,2521 58,2494 65,2469 98,2439 134,2415 161,2393 186,2366 204,2334 214,2305 239,2295 265,2302 296,2305 333,2308 376,2301 377,2272 383,2242 390,2215 400,2180 435,2168 466,2158 500,2135 526,2107 549,2078 577,2071 594,2104 638,2126 675,2132 704,2135 732,2144 763,2152 803,2174 822,2185 842,2174 844,2158 827,2132 801,2114 764,2101 723,2093 745,2077 803,2081 841,2079 871,2061 905,2072 " class="polyStyle" id="130926" style="fill:#f6f67b"/>
<polygon points="6940,2060 6942,2087 6940,2114 6938,2141 6940,2170 6936,2198 6945,2223 6974,2236 7001,2247 7027,2260 7052,2289 7047,2317 7045,2345 7032,2371 7005,2397 6977,2422 6955,2449 6943,2476 6923,2501 6911,2530 6894,2555 6913,2581 6941,2596 6965,2622 6970,2651 6982,2678 7008,2700 7016,2735 7025,2766 7002,2804 6976,2823 6951,2833 6914,2855 6915,2883 6942,2909 6971,2919 7004,2925 7034,2923 7058,2951 7058,2983 7060,3009 7071,3037 7089,3066 7111,3076 7140,3077 7166,3079 7206,3090 7242,3118 7247,3155 7231,3195 7225,3229 7213,3255 7205,3289 7193,3322 7178,3350 7169,3371 7173,3397 7185,3420 7178,3450 7173,3472 7185,3507 7184,3536 7193,3548 7140,3590 7105,3615 7080,3640 7072,3673 7070,3718 7080,3763 7097,3800 7085,3823 7070,3848 7085,3868 7130,3865 7165,3873 7195,3893 7212,3910 7210,3945 7192,3968 7155,3963 7120,3960 7090,3973 7067,3995 7050,4023 7045,4053 7037,4075 7007,4073 6970,4075 6940,4093 6917,4110 6885,4123 6877,4105 6875,4088 6862,4078 6840,4078 6805,4083 6755,4095 6722,4115 6672,4138 6635,4168 6620,4193 6605,4208 6587,4232 6567,4235 6502,4252 6435,4277 6367,4290 6300,4307 6237,4315 6210,4307 6202,4285 6175,4260 6175,4242 6145,4242 6122,4220 6110,4200 6050,4195 6020,4195 6012,4210 5992,4217 5942,4205 5895,4210 5857,4192 5840,4155 5832,4112 5827,4082 5837,4047 5845,4000 5827,3987 5790,4002 5757,4010 5725,4012 5700,4002 5672,3992 5630,3990 5610,3997 5590,4015 5557,4015 5542,4027 5520,4030 5502,4030 5480,4020 5487,3990 5492,3962 5490,3941 5465,3920 5418,3901 5378,3883 5349,3871 5312,3859 5295,3853 5277,3845 5274,3827 5264,3810 5269,3814 5274,3815 5282,3813 5285,3810 5286,3806 5285,3803 5284,3801 5283,3798 5281,3794 5280,3790 5275,3777 5245,3765 5219,3756 5188,3747 5155,3778 5145,3804 5116,3805 5090,3798 5064,3787 5036,3775 5007,3763 4967,3750 4929,3722 4900,3716 4870,3712 4833,3699 4804,3692 4787,3667 4797,3639 4780,3609 4752,3619 4719,3628 4693,3631 4665,3629 4638,3628 4606,3632 4579,3637 4554,3647 4527,3655 4493,3643 4466,3664 4428,3673 4388,3685 4376,3714 4349,3730 4319,3734 4292,3741 4264,3746 4239,3748 4211,3751 4181,3757 4155,3767 4127,3784 4100,3783 4093,3754 4085,3722 4058,3698 4060,3670 4042,3639 4016,3633 3998,3635 3998,3613 3992,3596 3973,3570 3979,3542 3999,3506 4002,3470 3974,3440 3943,3433 3911,3430 3879,3429 3849,3405 3822,3393 3795,3365 3822,3336 3819,3307 3830,3275 3823,3249 3818,3225 3816,3204 3805,3171 3806,3157 3808,3129 3821,3086 3843,3067 3860,3060 3885,3042 3916,3022 3934,2991 3960,2972 3983,2955 3990,2914 3998,2869 4016,2838 4024,2809 4024,2752 4044,2727 4067,2714 4094,2723 4109,2734 4129,2745 4163,2751 4195,2755 4221,2729 4247,2687 4267,2673 4295,2653 4303,2628 4349,2612 4377,2624 4413,2652 4429,2668 4450,2690 4480,2696 4512,2695 4539,2671 4573,2639 4576,2646 4578,2649 4614,2651 4653,2646 4688,2644 4710,2661 4736,2695 4752,2736 4771,2765 4808,2782 4834,2783 4864,2788 4891,2789 4919,2785 4944,2778 4975,2768 5001,2775 5035,2761 5067,2746 5077,2739 5129,2743 5171,2719 5202,2693 5230,2680 5254,2663 5278,2653 5305,2656 5313,2641 5329,2646 5333,2661 5349,2671 5354,2681 5360,2690 5382,2703 5408,2711 5418,2696 5428,2685 5448,2675 5467,2680 5518,2679 5536,2664 5538,2647 5552,2635 5580,2627 5602,2612 5618,2620 5652,2638 5645,2652 5687,2670 5713,2678 5723,2686 5710,2701 5690,2720 5670,2740 5648,2753 5625,2766 5612,2778 5597,2805 5585,2823 5577,2820 5562,2843 5547,2870 5540,2898 5525,2920 5508,2940 5485,2963 5462,2981 5433,2995 5417,3005 5415,3025 5408,3045 5410,3068 5415,3083 5410,3093 5423,3101 5425,3116 5438,3126 5435,3138 5415,3138 5398,3141 5383,3155 5370,3171 5350,3178 5342,3188 5350,3191 5352,3203 5367,3211 5357,3226 5370,3235 5377,3241 5368,3253 5378,3256 5405,3253 5402,3270 5397,3276 5377,3276 5368,3283 5357,3281 5347,3303 5335,3305 5315,3308 5312,3321 5315,3338 5333,3338 5337,3355 5382,3355 5420,3355 5445,3356 5447,3371 5427,3375 5422,3405 5403,3405 5390,3433 5377,3458 5362,3458 5355,3476 5367,3485 5357,3510 5342,3545 5330,3568 5317,3590 5307,3611 5321,3622 5342,3643 5377,3655 5392,3656 5393,3652 5398,3649 5401,3645 5410,3638 5413,3635 5417,3633 5423,3631 5431,3630 5436,3628 5439,3627 5442,3625 5444,3622 5443,3618 5442,3615 5441,3612 5440,3608 5439,3605 5440,3598 5443,3595 5446,3592 5450,3590 5458,3587 5464,3586 5468,3584 5473,3581 5483,3572 5488,3566 5492,3562 5497,3559 5501,3558 5504,3557 5508,3557 5515,3558 5519,3559 5523,3560 5527,3561 5533,3561 5537,3559 5540,3558 5543,3556 5544,3553 5545,3550 5544,3545 5542,3540 5538,3534 5536,3528 5534,3521 5535,3518 5536,3513 5539,3508 5543,3505 5546,3502 5549,3501 5554,3498 5566,3489 5570,3483 5575,3477 5577,3472 5577,3467 5579,3463 5580,3460 5581,3457 5584,3453 5587,3451 5590,3450 5594,3448 5601,3448 5607,3449 5614,3453 5619,3459 5620,3465 5622,3469 5623,3473 5625,3477 5629,3479 5632,3481 5638,3482 5645,3481 5659,3480 5663,3481 5667,3482 5672,3483 5676,3485 5680,3488 5686,3492 5690,3494 5696,3495 5700,3494 5705,3493 5709,3489 5710,3485 5714,3481 5718,3479 5721,3477 5730,3477 5737,3476 5740,3474 5743,3475 5746,3470 5749,3467 5753,3462 5757,3457 5761,3453 5763,3449 5766,3444 5765,3440 5761,3438 5758,3438 5753,3437 5744,3436 5740,3434 5740,3430 5742,3426 5743,3422 5747,3420 5753,3415 5756,3409 5755,3406 5753,3399 5752,3395 5750,3390 5747,3385 5748,3380 5749,3375 5752,3371 5756,3368 5763,3366 5770,3365 5777,3366 5783,3364 5785,3361 5784,3353 5788,3349 5801,3349 5798,3343 5812,3342 5819,3342 5819,3334 5811,3332 5813,3319 5819,3314 5831,3315 5831,3343 5831,3349 5858,3350 5862,3353 5874,3353 5872,3370 5890,3370 5890,3380 5872,3380 5868,3404 5843,3410 5840,3416 5843,3430 5894,3433 5912,3436 5901,3473 5900,3476 5912,3475 5921,3474 5923,3480 5927,3480 5932,3477 5936,3475 5940,3472 5944,3472 5953,3473 5964,3474 5968,3474 5974,3474 5981,3474 5988,3474 5991,3472 5993,3468 5992,3462 5997,3459 6005,3459 6012,3460 6018,3460 6029,3453 6050,3450 6056,3446 6056,3394 6019,3386 6016,3384 6017,3378 6043,3379 6079,3382 6081,3374 6086,3367 6094,3362 6098,3361 6127,3377 6135,3357 6144,3356 6171,3362 6174,3345 6177,3314 6181,3303 6187,3301 6211,3307 6218,3297 6217,3291 6205,3290 6202,3288 6201,3280 6205,3273 6207,3267 6199,3255 6201,3251 6206,3248 6203,3242 6206,3241 6222,3233 6225,3221 6221,3214 6206,3219 6203,3217 6202,3165 6227,3166 6224,3142 6223,3136 6236,3106 6243,3100 6255,3098 6255,3064 6254,3031 6254,3028 6271,3021 6281,3016 6184,2990 6160,2985 6151,2981 6150,2975 6152,2960 6152,2955 6152,2938 6152,2935 6131,2930 6134,2908 6114,2907 6102,2923 6074,2916 6055,2910 6044,2911 6035,2911 6025,2905 5999,2901 5990,2894 5972,2892 5972,2886 5964,2885 5961,2899 5956,2898 5953,2898 5947,2899 5949,2912 5946,2923 5928,2917 5914,2915 5922,2932 5943,2937 5941,2944 5924,2942 5917,2971 5902,2968 5890,2962 5876,2962 5867,2965 5857,2963 5852,2963 5845,2965 5837,2966 5839,2962 5835,2957 5832,2953 5832,2950 5827,2945 5822,2941 5820,2938 5818,2935 5815,2933 5812,2929 5811,2926 5812,2923 5814,2919 5818,2916 5823,2914 5827,2912 5833,2912 5836,2911 5841,2912 5849,2912 5860,2913 5863,2913 5869,2917 5873,2918 5876,2918 5881,2919 5883,2915 5883,2909 5879,2905 5875,2903 5873,2900 5869,2899 5866,2896 5863,2895 5857,2891 5852,2886 5851,2883 5850,2880 5849,2876 5848,2871 5848,2867 5850,2863 5852,2859 5855,2855 5860,2852 5864,2850 5868,2848 5872,2846 5876,2843 5881,2839 5881,2834 5883,2829 5884,2824 5887,2818 5889,2813 5891,2809 5892,2806 5895,2802 5898,2799 5900,2796 5902,2793 5908,2788 5910,2785 5911,2779 5911,2775 5910,2772 5903,2767 5900,2764 5898,2761 5898,2758 5899,2755 5904,2751 5910,2749 5914,2746 5922,2742 5926,2742 5930,2738 5932,2734 5931,2731 5927,2728 5922,2725 5918,2723 5916,2717 5915,2712 5916,2709 5923,2699 5924,2696 5925,2693 5928,2691 5930,2688 5934,2683 5935,2679 5937,2676 5938,2673 5938,2670 5937,2667 5936,2664 5935,2657 5936,2652 5937,2647 5938,2642 5940,2638 5938,2629 5937,2623 5934,2620 5930,2616 5927,2613 5928,2609 5927,2605 5931,2603 5935,2600 5942,2596 5948,2591 5946,2586 5944,2582 5940,2579 5933,2572 5930,2569 5929,2565 5928,2561 5928,2558 5929,2555 5936,2541 5940,2537 5940,2533 5939,2522 5938,2517 5937,2512 5938,2496 5940,2493 5939,2490 5939,2481 5941,2473 5942,2470 5943,2466 5944,2463 5944,2457 5945,2448 5944,2443 5943,2436 5942,2432 5941,2429 5940,2426 5939,2423 5938,2420 5936,2415 5937,2403 5938,2399 5939,2395 5940,2391 5941,2388 5940,2380 5939,2375 5938,2370 5939,2354 5940,2350 5942,2347 5943,2341 5945,2337 5944,2333 5942,2326 5939,2322 5935,2319 5929,2312 5932,2302 5957,2289 5984,2261 6016,2241 6038,2245 6048,2284 6065,2314 6088,2331 6120,2325 6163,2329 6181,2343 6239,2323 6286,2292 6328,2269 6370,2250 6418,2240 6454,2234 6489,2226 6521,2217 6565,2217 6601,2218 6602,2180 6595,2144 6625,2131 6666,2122 6699,2112 6744,2118 6774,2108 6800,2086 6839,2055 6869,2027 6900,2015 6918,2035 " class="polyStyle" id="130921" style="fill:#f6f67b"/>
<polygon points="5336,1014 5378,1026 5418,1030 5432,1029 5434,1017 5434,1003 5434,996 5458,998 5486,996 5552,1002 5592,1014 5775,1008 5790,1008 5796,1008 5800,994 5806,994 5822,994 5826,1008 5826,1022 5828,1036 5826,1078 5824,1106 5818,1140 5836,1142 5854,1144 5854,1160 5852,1202 5862,1300 5866,1310 5872,1316 5882,1320 5906,1322 5926,1318 5944,1320 6040,1296 6074,1286 6082,1288 6084,1294 6076,1326 6120,1328 6153,1276 6205,1275 6204,1294 6270,1288 6275,1269 6280,1268 6283,1267 6286,1267 6291,1266 6295,1265 6299,1264 6303,1263 6307,1263 6310,1262 6314,1261 6319,1260 6326,1260 6333,1259 6336,1258 6346,1257 6352,1256 6358,1255 6363,1254 6368,1254 6373,1253 6377,1252 6383,1251 6388,1250 6392,1250 6398,1249 6402,1248 6406,1247 6411,1247 6416,1246 6419,1246 6452,1258 6452,1270 6486,1270 6520,1272 6540,1272 6548,1270 6552,1266 6560,1242 6562,1230 6558,1224 6557,1217 6562,1217 6610,1205 6655,1195 6690,1187 6701,1195 6702,1200 6680,1256 6678,1266 6680,1272 6704,1294 6730,1300 6758,1306 6828,1322 6808,1350 6792,1392 6764,1438 6764,1460 6752,1488 6740,1512 6746,1524 6766,1536 6792,1558 6828,1644 6844,1686 6874,1694 6908,1696 6920,1730 6940,1726 6968,1722 6966,1739 6953,1776 6954,1802 6955,1828 6957,1854 6951,1881 6940,1903 6934,1937 6935,1959 6927,1997 6904,2014 6900,2015 6869,2027 6839,2055 6800,2086 6774,2108 6744,2118 6699,2112 6666,2122 6625,2131 6595,2144 6602,2180 6601,2218 6565,2217 6521,2217 6489,2226 6454,2234 6418,2240 6370,2250 6328,2269 6286,2292 6239,2323 6181,2343 6163,2329 6120,2325 6088,2331 6065,2314 6048,2284 6038,2245 6016,2241 5984,2261 5957,2289 5932,2302 5929,2312 5935,2319 5939,2322 5942,2326 5944,2333 5945,2337 5943,2341 5942,2347 5940,2350 5939,2354 5938,2370 5939,2375 5940,2380 5941,2388 5940,2391 5939,2395 5938,2399 5937,2403 5936,2415 5938,2420 5939,2423 5940,2426 5941,2429 5942,2432 5943,2436 5944,2443 5945,2448 5944,2457 5944,2463 5943,2466 5942,2470 5941,2473 5939,2481 5939,2490 5940,2493 5938,2496 5937,2512 5938,2517 5939,2522 5940,2533 5940,2537 5936,2541 5929,2555 5928,2558 5928,2561 5929,2565 5930,2569 5933,2572 5940,2579 5944,2582 5946,2586 5948,2591 5942,2596 5935,2600 5931,2603 5927,2605 5928,2609 5927,2613 5930,2616 5934,2620 5937,2623 5938,2629 5940,2638 5938,2642 5937,2647 5936,2652 5935,2657 5936,2664 5937,2667 5930,2677 5914,2668 5888,2664 5856,2657 5867,2638 5840,2631 5808,2625 5781,2616 5765,2631 5755,2646 5741,2646 5734,2668 5713,2669 5721,2681 5713,2678 5687,2670 5645,2652 5652,2638 5618,2620 5602,2612 5580,2627 5552,2635 5538,2647 5536,2664 5518,2679 5467,2680 5448,2675 5428,2685 5418,2696 5408,2711 5382,2703 5360,2690 5354,2681 5349,2671 5333,2661 5329,2646 5313,2641 5305,2656 5278,2653 5254,2663 5230,2680 5202,2693 5171,2719 5129,2743 5077,2739 5067,2746 5035,2761 5001,2775 4975,2768 4944,2778 4919,2785 4891,2789 4864,2788 4834,2783 4808,2782 4771,2765 4752,2736 4736,2695 4710,2661 4688,2644 4653,2646 4614,2651 4578,2649 4576,2646 4573,2639 4567,2618 4558,2590 4587,2569 4623,2552 4638,2526 4660,2496 4666,2463 4668,2436 4655,2409 4632,2365 4609,2364 4582,2365 4539,2379 4507,2387 4475,2387 4447,2367 4437,2352 4430,2335 4427,2320 4437,2302 4467,2310 4493,2314 4522,2324 4536,2341 4560,2343 4566,2327 4551,2275 4571,2254 4597,2227 4562,2216 4535,2202 4559,2177 4581,2152 4612,2157 4651,2179 4687,2177 4722,2173 4742,2147 4750,2119 4780,2094 4801,2057 4824,2027 4803,2009 4768,1990 4733,1973 4695,1945 4664,1932 4678,1911 4707,1899 4762,1896 4800,1908 4819,1902 4818,1880 4777,1859 4796,1832 4784,1819 4780,1794 4806,1759 4840,1759 4885,1753 4911,1731 4876,1701 4899,1680 4935,1655 4974,1648 5018,1667 5056,1685 5109,1673 5138,1639 5142,1603 5154,1572 5173,1553 5201,1548 5243,1563 5269,1600 5280,1577 5292,1539 5327,1498 5360,1464 5361,1424 5334,1385 5298,1342 5282,1290 5269,1248 5241,1230 5191,1229 5178,1213 5193,1195 5225,1200 5249,1188 5267,1157 5265,1100 5275,1048 5299,989 5308,1002 " class="polyStyle" id="130922" style="fill:#ee8b94"/>
<path d="" class="polyStyle" id="130225" style="fill:#fbe6ef"/>
<path d="" class="polyStyle" id="130322" style="fill:#d4ecb2"/>
<path d="" class="polyStyle" id="653130" style="fill:#f6f67b"/>
<path d="" class="polyStyle" id="130822" style="fill:#fbe6ef"/>
<path d="" class="polyStyle" id="211221" style="fill:#f6f67b"/>
<path d="" class="polyStyle" id="210921" style="fill:#f6f67b"/>
<path d="" class="polyStyle" id="150223" style="fill:#f8c67d"/>
<path d="" class="polyStyle" id="220422" style="fill:#d4ecb2"/>
<path d="" class="polyStyle" id="340721" style="fill:#f6f67b"/>
<path d="" class="polyStyle" id="510824" style="fill:#d4ecb2"/>
<path d="" class="polyStyle" id="610324" style="fill:#f6f67b"/>
<path d="" class="polyStyle" id="530722" style="fill:#ee8b94"/>
<path d="" class="polyStyle" id="340823" style="fill:#d4ecb2"/>
<path d="" class="polyStyle" id="620825" style="fill:#d4ecb2"/>
<path d="" class="polyStyle" id="421125" style="fill:#ee8b94"/>
<path d="" class="polyStyle" id="210281" style="fill:#ee8b94"/>
<path d="" class="polyStyle" id="440883" style="fill:#f6f67b"/>
<path d="" class="polyStyle" id="469006" style="fill:#d4ecb2"/>
<path d="" class="polyStyle" id="469002" style="fill:#ee8b94"/>
<path d="" class="polyStyle" id="469005" style="fill:#fbe6ef"/>
<path d="" class="polyStyle" id="440882" style="fill:#ee8b94"/>
<path d="" class="polyStyle" id="450681" style="fill:#ee8b94"/>
<path d="" class="polyStyle" id="441581" style="fill:#d4ecb2"/>
<path d="" class="polyStyle" id="421087" style="fill:#ee8b94"/>
<path d="" class="polyStyle" id="420984" style="fill:#fbe6ef"/>
<path d="" class="polyStyle" id="420582" style="fill:#ee8b94"/>
<path d="" class="polyStyle" id="370282" style="fill:#f6f67b"/>
<path d="" class="polyStyle" id="371083" style="fill:#f6f67b"/>
<path d="" class="polyStyle" id="371082" style="fill:#fbe6ef"/>
<polygon points="4787,3667 4804,3692 4833,3699 4870,3712 4900,3716 4929,3722 4967,3750 5007,3763 5036,3775 5064,3787 5090,3798 5116,3805 5145,3804 5155,3778 5188,3747 5219,3756 5245,3765 5275,3777 5280,3790 5281,3794 5283,3798 5284,3801 5285,3803 5286,3806 5285,3810 5282,3813 5274,3815 5269,3814 5264,3810 5258,3808 5251,3804 5248,3803 5242,3802 5235,3801 5232,3801 5228,3803 5227,3811 5228,3814 5226,3818 5225,3823 5221,3827 5218,3829 5212,3830 5206,3828 5199,3825 5193,3824 5187,3829 5186,3835 5187,3840 5188,3843 5183,3848 5180,3851 5175,3853 5165,3857 5161,3859 5160,3862 5159,3865 5162,3870 5165,3875 5167,3880 5168,3885 5165,3887 5157,3888 5152,3887 5148,3885 5144,3884 5140,3884 5137,3884 5132,3888 5130,3892 5132,3895 5135,3899 5137,3903 5135,3907 5130,3911 5121,3915 5114,3918 5107,3921 5100,3923 5096,3925 5088,3930 5085,3932 5080,3934 5074,3937 5071,3940 5068,3941 5064,3943 5061,3945 5057,3947 5053,3950 5050,3951 5047,3953 5041,3956 5038,3958 5034,3961 5020,3962 5015,3963 5010,3963 5005,3964 5002,3965 4999,3967 4992,3972 4984,3977 4961,3978 4958,3978 4955,3980 4952,3982 4949,3983 4947,3986 4944,3989 4940,3993 4935,3997 4932,3997 4922,3998 4918,3998 4914,3998 4909,3997 4906,3996 4900,3998 4898,4001 4897,4005 4899,4008 4901,4012 4902,4015 4902,4020 4899,4025 4890,4029 4886,4030 4882,4031 4878,4032 4870,4035 4865,4038 4862,4040 4855,4045 4851,4047 4846,4049 4833,4049 4821,4039 4813,4035 4807,4034 4804,4035 4799,4037 4795,4042 4794,4047 4791,4051 4789,4056 4784,4061 4779,4063 4775,4065 4771,4064 4762,4063 4758,4063 4749,4062 4740,4062 4736,4064 4733,4068 4732,4076 4731,4082 4729,4086 4728,4090 4708,4107 4703,4111 4698,4116 4696,4121 4695,4132 4694,4136 4692,4141 4688,4145 4684,4145 4681,4146 4677,4146 4673,4146 4662,4144 4652,4142 4647,4141 4643,4140 4636,4142 4633,4144 4629,4146 4624,4149 4619,4154 4616,4157 4627,4173 4659,4185 4700,4197 4737,4213 4777,4231 4789,4257 4818,4277 4833,4305 4834,4335 4813,4354 4795,4379 4770,4394 4751,4414 4746,4460 4732,4475 4701,4472 4673,4473 4642,4471 4601,4484 4574,4490 4568,4473 4565,4452 4514,4449 4477,4441 4450,4460 4435,4495 4421,4517 4371,4518 4343,4506 4307,4499 4285,4490 4261,4488 4235,4488 4233,4491 4228,4499 4224,4500 4222,4505 4225,4512 4227,4517 4231,4522 4237,4530 4255,4550 4255,4563 4254,4569 4252,4574 4266,4580 4267,4583 4276,4589 4280,4591 4286,4594 4291,4600 4294,4605 4296,4610 4296,4615 4268,4626 4242,4625 4203,4626 4175,4626 4146,4628 4109,4628 4071,4630 4044,4634 4012,4649 3978,4659 3942,4654 3919,4651 3913,4610 3893,4603 3884,4635 3863,4664 3841,4657 3834,4632 3825,4620 3805,4643 3784,4669 3759,4661 3745,4658 3716,4657 3682,4665 3644,4666 3607,4668 3571,4668 3540,4667 3511,4665 3478,4665 3455,4648 3439,4627 3418,4611 3382,4624 3350,4618 3310,4618 3279,4620 3252,4625 3221,4629 3191,4634 3164,4640 3138,4658 3115,4684 3086,4708 3059,4730 3050,4765 3035,4809 3001,4831 2972,4839 2962,4814 2938,4808 2925,4836 2930,4867 2904,4876 2858,4869 2832,4835 2832,4871 2820,4903 2789,4921 2778,4890 2752,4894 2720,4913 2687,4936 2659,4952 2630,4954 2593,4949 2565,4932 2526,4910 2498,4885 2473,4873 2436,4870 2404,4876 2375,4876 2346,4860 2330,4878 2340,4912 2325,4930 2299,4937 2276,4942 2284,4969 2324,5008 2346,5038 2327,5067 2305,5099 2278,5134 2251,5149 2209,5156 2180,5146 2140,5152 2108,5161 2072,5145 2044,5141 2008,5152 1939,5170 1917,5168 1917,5164 1918,5139 1942,5114 1975,5087 1991,5060 2010,5034 2029,4994 2022,4979 1989,4980 1953,4979 1927,4955 1905,4917 1884,4879 1874,4842 1857,4809 1843,4778 1819,4781 1810,4782 1804,4774 1779,4751 1781,4721 1785,4686 1767,4666 1739,4650 1704,4620 1687,4595 1690,4564 1718,4555 1747,4562 1780,4565 1801,4556 1795,4529 1760,4507 1732,4478 1736,4447 1755,4416 1784,4392 1823,4390 1857,4378 1892,4359 1925,4347 1958,4329 1996,4322 2035,4303 2075,4304 2103,4308 2134,4321 2160,4327 2195,4328 2204,4300 2226,4277 2259,4248 2258,4210 2255,4176 2277,4166 2316,4182 2350,4173 2382,4166 2404,4181 2427,4200 2465,4197 2499,4191 2519,4219 2551,4226 2578,4225 2600,4192 2604,4161 2631,4145 2680,4131 2711,4126 2733,4104 2771,4113 2807,4101 2815,4077 2843,4061 2879,4054 2913,4056 2948,4047 2952,4029 2921,4032 2897,4013 2900,3975 2919,3958 2941,3953 2952,3942 2950,3917 2928,3905 2923,3873 2927,3846 2931,3813 2936,3787 2946,3756 2977,3732 3012,3723 3049,3731 3057,3760 3049,3786 3067,3789 3088,3787 3121,3794 3160,3795 3187,3792 3213,3784 3253,3772 3287,3756 3317,3740 3336,3735 3366,3746 3384,3773 3412,3773 3441,3770 3467,3743 3480,3710 3511,3711 3548,3718 3584,3724 3620,3726 3645,3726 3682,3724 3716,3723 3763,3730 3790,3745 3816,3788 3838,3795 3875,3790 3900,3781 3918,3759 3935,3728 3948,3693 3961,3667 3985,3637 3998,3635 4016,3633 4042,3639 4060,3670 4058,3698 4085,3722 4093,3754 4100,3783 4127,3784 4155,3767 4181,3757 4211,3751 4239,3748 4264,3746 4292,3741 4319,3734 4349,3730 4376,3714 4388,3685 4428,3673 4466,3664 4493,3643 4527,3655 4554,3647 4579,3637 4606,3632 4638,3628 4665,3629 4693,3631 4719,3628 4752,3619 4780,3609 4797,3639 " class="polyStyle" id="130981" style="fill:#fbe6ef"/>
<polygon points="7628,1510 7632,1512 7632,1532 7593,1582 7650,1584 7648,1588 7640,1598 7634,1608 7632,1622 7680,1624 7724,1638 7742,1644 7750,1650 7768,1668 7764,1698 7754,1716 7708,1752 7680,1784 7674,1796 7678,1818 7796,1790 7802,1812 7686,1840 7690,1852 7718,1896 7744,1930 7776,1952 7810,1932 7824,1944 7894,1920 7916,1916 7928,1910 7936,1904 7940,1894 7946,1870 7950,1866 7956,1864 7976,1868 7982,1870 7986,1872 8000,1896 8012,1936 8014,1940 8020,1944 8038,1942 8058,1934 8076,1924 8106,1902 8116,1900 8214,1914 8230,1914 8241,1914 8240,1908 8266,1868 8258,1824 8292,1820 8324,1816 8326,1852 8326,1886 8328,1895 8457,1852 8485,1825 8500,1809 8492,1794 8485,1777 8522,1751 8559,1760 8575,1750 8619,1727 8658,1711 8667,1710 8721,1698 8726,1698 8740,1694 8750,1692 8784,1682 8834,1668 8845,1674 8852,1675 8872,1648 8890,1629 8946,1635 8994,1655 9014,1653 9036,1649 9080,1651 9096,1655 9104,1679 9110,1717 9178,1713 9194,1705 9190,1699 9180,1679 9186,1659 9206,1639 9217,1628 9246,1640 9246,1648 9246,1652 9249,1655 9256,1657 9259,1658 9266,1659 9273,1664 9284,1676 9298,1689 9308,1701 9348,1763 9352,1775 9361,1791 9371,1805 9373,1808 9378,1813 9394,1817 9423,1850 9433,1864 9439,1877 9439,1884 9437,1886 9431,1889 9425,1890 9420,1892 9418,1893 9419,1897 9421,1900 9429,1913 9433,1922 9458,1958 9459,1961 9466,1968 9490,1997 9516,2038 9522,2049 9527,2066 9530,2073 9543,2103 9547,2109 9554,2122 9556,2125 9558,2131 9591,2194 9617,2240 9620,2246 9624,2252 9630,2266 9634,2273 9636,2276 9643,2283 9645,2286 9649,2288 9655,2293 9660,2296 9674,2306 9690,2321 9708,2348 9712,2352 9739,2393 9751,2421 9764,2449 9774,2466 9819,2539 9820,2542 9855,2594 9873,2616 9886,2637 9887,2642 9924,2690 9968,2741 9978,2758 9980,2765 9982,2772 9980,2775 9976,2778 9970,2783 9971,2785 9975,2785 9984,2784 9988,2784 9994,2785 9996,2787 9997,2791 9999,2795 10008,2806 10012,2815 10040,2846 10056,2859 10075,2874 10119,2915 10135,2927 10165,2954 10167,2959 10154,2969 10156,2973 10176,2988 10190,2984 10198,2984 10211,2995 10234,3017 10255,3034 10396,3079 10432,3099 10475,3122 10511,3140 10549,3149 10574,3157 10606,3172 10628,3186 10648,3193 10685,3168 10762,3118 10819,3078 10833,3089 10845,3099 10858,3110 10877,3128 10897,3147 10948,3114 10961,3127 10966,3123 10996,3104 11013,3093 11011,3104 11010,3114 10987,3129 10973,3130 10959,3130 10926,3151 10922,3184 10888,3207 10865,3223 10782,3279 10742,3305 10740,3308 10735,3312 10733,3318 10734,3331 10739,3340 10745,3349 10752,3354 10755,3355 10759,3356 10765,3358 10756,3369 10748,3383 10744,3394 10732,3397 10695,3405 10655,3405 10623,3399 10600,3389 10581,3378 10557,3360 10531,3343 10515,3336 10503,3344 10487,3359 10474,3372 10451,3400 10422,3422 10394,3436 10367,3452 10341,3463 10315,3446 10289,3419 10257,3402 10227,3386 10181,3377 10120,3363 10075,3353 10006,3338 9908,3318 9857,3314 9817,3304 9779,3306 9753,3307 9684,3321 9593,3323 9536,3336 9525,3364 9518,3403 9531,3430 9528,3453 9495,3456 9483,3491 9510,3510 9486,3542 9456,3551 9419,3565 9400,3560 9377,3587 9341,3595 9312,3585 9289,3580 9259,3582 9231,3591 9213,3617 9182,3612 9132,3604 9087,3614 9060,3630 9045,3651 9014,3661 8972,3674 8942,3655 8908,3665 8860,3675 8792,3662 8762,3639 8723,3636 8698,3608 8661,3601 8579,3600 8514,3609 8460,3612 8429,3613 8392,3613 8375,3638 8376,3653 8340,3665 8330,3679 8333,3701 8364,3713 8390,3741 8393,3766 8364,3782 8343,3765 8313,3774 8313,3804 8288,3819 8273,3835 8259,3861 8251,3889 8266,3912 8256,3938 8230,3951 8203,3947 8177,3937 8172,3937 8151,3941 8120,3936 8089,3936 8060,3934 8029,3936 8006,3925 7983,3937 7951,3956 7927,3939 7901,3929 7858,3938 7827,3923 7809,3893 7779,3865 7762,3850 7736,3840 7708,3841 7680,3844 7650,3855 7621,3848 7593,3846 7568,3843 7526,3849 7485,3845 7477,3824 7473,3786 7448,3758 7429,3732 7405,3719 7382,3691 7350,3686 7318,3682 7282,3669 7254,3661 7252,3630 7251,3595 7229,3569 7208,3551 7193,3548 7184,3536 7185,3507 7173,3472 7178,3450 7185,3420 7173,3397 7169,3371 7178,3350 7193,3322 7205,3289 7213,3255 7225,3229 7231,3195 7247,3155 7242,3118 7206,3090 7166,3079 7140,3077 7111,3076 7089,3066 7071,3037 7060,3009 7058,2983 7058,2951 7034,2923 7004,2925 6971,2919 6942,2909 6915,2883 6914,2855 6951,2833 6976,2823 7002,2804 7025,2766 7016,2735 7008,2700 6982,2678 6970,2651 6965,2622 6941,2596 6913,2581 6894,2555 6911,2530 6923,2501 6943,2476 6955,2449 6977,2422 7005,2397 7032,2371 7045,2345 7047,2317 7052,2289 7027,2260 7001,2247 6974,2236 6945,2223 6936,2198 6940,2170 6938,2141 6940,2114 6942,2087 6940,2060 6918,2035 6900,2015 6904,2014 6927,1997 6935,1959 6934,1937 6940,1903 6951,1881 6957,1854 6955,1828 6954,1802 6953,1776 6966,1739 6966,1748 6966,1774 6968,1782 6988,1792 7022,1796 7074,1752 7120,1728 7170,1710 7194,1704 7210,1700 7258,1694 7264,1648 7266,1636 7312,1634 7314,1652 7426,1642 7424,1622 7478,1614 7512,1578 7558,1516 7578,1508 7592,1504 7606,1506 " class="polyStyle" id="130983" style="fill:#fbe6ef"/>
<polygon points="3122,1401 3160,1401 3180,1416 3192,1452 3218,1475 3248,1472 3282,1463 3283,1467 3300,1500 3320,1536 3341,1568 3366,1597 3393,1626 3376,1643 3370,1662 3397,1689 3413,1716 3447,1732 3499,1727 3530,1723 3555,1728 3590,1749 3598,1800 3630,1811 3675,1816 3708,1817 3738,1831 3750,1853 3717,1880 3718,1892 3721,1911 3749,1951 3734,1969 3692,1971 3654,1976 3635,2009 3637,2035 3656,2077 3689,2082 3717,2092 3759,2099 3773,2119 3758,2140 3726,2164 3735,2188 3763,2212 3799,2226 3806,2247 3840,2264 3877,2267 3913,2269 3952,2268 3991,2268 4020,2271 4055,2273 4092,2280 4119,2282 4150,2275 4163,2249 4186,2221 4215,2220 4249,2212 4281,2231 4296,2254 4297,2278 4298,2307 4306,2328 4314,2353 4346,2357 4386,2347 4423,2328 4427,2320 4430,2335 4437,2352 4447,2367 4475,2387 4507,2387 4539,2379 4582,2365 4609,2364 4632,2365 4655,2409 4668,2436 4666,2463 4660,2496 4638,2526 4623,2552 4587,2569 4558,2590 4567,2618 4573,2639 4539,2671 4512,2695 4480,2696 4450,2690 4429,2668 4413,2652 4377,2624 4349,2612 4303,2628 4295,2653 4267,2673 4247,2687 4221,2729 4195,2755 4163,2751 4129,2745 4109,2734 4094,2723 4067,2714 4044,2727 4024,2752 4024,2809 4016,2838 3998,2869 3990,2914 3983,2955 3960,2972 3934,2991 3916,3022 3885,3042 3860,3060 3843,3067 3821,3086 3808,3129 3806,3157 3805,3171 3788,3169 3750,3168 3719,3147 3709,3121 3695,3083 3694,3057 3712,3031 3710,3005 3708,2959 3660,2939 3627,2942 3602,2962 3581,2982 3538,2970 3500,2964 3467,2964 3433,2969 3392,2973 3365,2967 3340,2936 3310,2912 3278,2895 3242,2895 3203,2896 3171,2899 3138,2922 3112,2946 3125,2975 3115,2990 3087,3001 3041,2999 3009,2984 2984,2962 2971,2930 2944,2936 2909,2948 2875,2937 2848,2921 2811,2914 2785,2911 2758,2905 2730,2895 2711,2913 2662,2909 2625,2887 2590,2861 2559,2844 2521,2845 2488,2835 2455,2827 2426,2844 2405,2875 2407,2920 2397,2949 2374,2952 2354,2972 2341,3014 2336,3058 2309,3055 2285,3033 2253,3022 2223,3022 2193,3029 2166,3031 2131,3041 2106,3065 2074,3086 2075,3114 2045,3137 2014,3143 1975,3126 1943,3120 1917,3118 1876,3115 1843,3103 1812,3095 1809,3095 1781,3087 1750,3086 1718,3084 1679,3082 1650,3080 1620,3079 1591,3076 1575,3081 1572,3065 1572,3038 1572,3003 1612,2970 1637,2948 1660,2913 1660,2875 1660,2838 1655,2788 1655,2748 1665,2720 1690,2705 1695,2673 1680,2660 1650,2660 1615,2645 1585,2625 1580,2605 1600,2575 1615,2543 1612,2503 1582,2450 1570,2408 1570,2373 1520,2355 1480,2353 1457,2335 1440,2305 1405,2303 1345,2295 1280,2303 1235,2300 1197,2320 1152,2325 1112,2320 1082,2295 1070,2273 1067,2245 1087,2223 1115,2183 1135,2165 1152,2140 1155,2113 1141,2090 1157,2030 1140,2006 1152,1973 1179,1946 1202,1911 1223,1876 1253,1875 1276,1868 1293,1898 1318,1920 1355,1943 1368,1963 1385,1980 1408,1970 1440,1963 1478,1958 1513,1943 1543,1920 1578,1910 1585,1890 1583,1868 1605,1858 1630,1840 1653,1835 1668,1855 1670,1880 1693,1903 1713,1913 1738,1910 1750,1890 1748,1863 1743,1848 1758,1830 1788,1823 1825,1831 1870,1824 1885,1807 1917,1813 1947,1819 1987,1836 2028,1843 2064,1841 2103,1838 2133,1839 2159,1848 2180,1863 2206,1883 2247,1896 2271,1888 2296,1865 2300,1862 2305,1854 2309,1850 2311,1846 2315,1842 2316,1837 2319,1836 2324,1833 2329,1827 2332,1824 2335,1820 2339,1817 2340,1811 2341,1805 2345,1802 2350,1797 2353,1793 2354,1790 2355,1785 2356,1782 2356,1767 2355,1764 2354,1761 2352,1755 2351,1750 2349,1744 2348,1740 2345,1733 2345,1725 2348,1721 2351,1716 2357,1712 2361,1706 2367,1698 2372,1693 2374,1690 2376,1686 2378,1683 2380,1679 2384,1672 2385,1669 2386,1665 2383,1662 2380,1660 2384,1654 2386,1650 2389,1647 2388,1639 2385,1634 2411,1637 2450,1634 2467,1612 2495,1621 2524,1624 2565,1620 2599,1600 2630,1584 2667,1560 2701,1534 2745,1525 2761,1506 2781,1461 2800,1419 2821,1396 2855,1393 2908,1395 2958,1403 2976,1393 3001,1381 3028,1376 3048,1376 3068,1391 " class="polyStyle" id="130984" style="fill:#fbe6ef"/>
<polygon points="2302,14 2331,26 2370,50 2397,80 2438,99 2480,129 2482,136 2486,153 2466,195 2480,234 2494,263 2479,292 2487,317 2498,355 2520,380 2569,397 2611,396 2654,415 2680,440 2706,463 2708,505 2730,524 2783,534 2817,546 2847,558 2875,573 2886,623 2852,639 2868,658 2928,674 2982,677 3047,681 3075,681 3123,668 3158,668 3179,696 3195,728 3235,728 3260,734 3286,746 3313,758 3330,779 3351,741 3376,730 3374,788 3412,790 3447,794 3501,790 3537,804 3552,822 3561,847 3577,875 3594,906 3615,933 3643,948 3662,956 3639,995 3642,1020 3639,1052 3627,1084 3613,1115 3589,1150 3558,1164 3530,1153 3490,1170 3462,1205 3447,1226 3411,1241 3388,1248 3354,1260 3326,1271 3297,1285 3277,1319 3270,1372 3280,1405 3279,1429 3282,1463 3248,1472 3218,1475 3192,1452 3180,1416 3160,1401 3122,1401 3068,1391 3048,1376 3028,1376 3001,1381 2976,1393 2958,1403 2908,1395 2855,1393 2821,1396 2800,1419 2781,1461 2761,1506 2745,1525 2701,1534 2667,1560 2630,1584 2599,1600 2565,1620 2524,1624 2495,1621 2467,1612 2450,1634 2411,1637 2385,1634 2388,1639 2389,1647 2386,1650 2384,1654 2380,1660 2383,1662 2386,1665 2385,1669 2384,1672 2380,1679 2378,1683 2376,1686 2374,1690 2372,1693 2367,1698 2361,1706 2357,1712 2351,1716 2348,1721 2345,1725 2345,1733 2348,1740 2349,1744 2351,1750 2352,1755 2354,1761 2355,1764 2356,1767 2356,1782 2355,1785 2354,1790 2353,1793 2350,1797 2345,1802 2341,1805 2340,1811 2339,1817 2335,1820 2332,1824 2329,1827 2324,1833 2319,1836 2316,1837 2315,1842 2311,1846 2309,1850 2305,1854 2300,1862 2296,1865 2271,1888 2247,1896 2206,1883 2180,1863 2159,1848 2133,1839 2103,1838 2064,1841 2028,1843 1987,1836 1947,1819 1917,1813 1885,1807 1870,1824 1825,1831 1788,1823 1758,1830 1743,1848 1748,1863 1750,1890 1738,1910 1713,1913 1693,1903 1670,1880 1668,1855 1653,1835 1630,1840 1605,1858 1583,1868 1585,1890 1578,1910 1543,1920 1513,1943 1478,1958 1440,1963 1408,1970 1385,1980 1368,1963 1355,1943 1318,1920 1293,1898 1276,1868 1280,1867 1283,1840 1278,1781 1277,1741 1286,1709 1287,1675 1269,1644 1255,1613 1250,1587 1284,1575 1326,1561 1350,1535 1354,1503 1347,1473 1335,1446 1335,1420 1337,1388 1316,1361 1290,1357 1284,1327 1266,1301 1275,1276 1299,1246 1307,1213 1307,1182 1288,1151 1250,1130 1235,1092 1218,1101 1205,1052 1226,999 1228,967 1242,951 1254,947 1287,936 1320,919 1353,906 1376,881 1407,846 1430,820 1450,794 1477,762 1490,734 1515,714 1547,679 1584,672 1619,676 1652,679 1667,655 1670,641 1672,605 1657,572 1671,539 1692,510 1704,472 1735,422 1743,387 1729,350 1716,328 1704,291 1720,263 1763,246 1820,240 1858,233 1889,203 1928,187 1962,183 2009,184 2063,184 2073,157 2095,134 2106,90 2131,52 2158,39 2187,23 2213,13 2244,0 2275,3 " class="polyStyle" id="130982" style="fill:#ee8b94"/>
<path d="" class="polyStyle" id="652801" style="fill:#f8c67d"/>
<path d="" class="polyStyle" id="654301" style="fill:#ee8b94"/>
<path d="" class="polyStyle" id="370687" style="fill:#ee8b94"/>
<path d="" class="polyStyle" id="371482" style="fill:#d4ecb2"/>
<path d="" class="polyStyle" id="421081" style="fill:#fbe6ef"/>
<path d="" class="polyStyle" id="429006" style="fill:#f6f67b"/>
<path d="" class="polyStyle" id="440982" style="fill:#d4ecb2"/>
<path d="" class="polyStyle" id="421181" style="fill:#d4ecb2"/>
<path d="" class="polyStyle" id="321181" style="fill:#d4ecb2"/>
<path d="" class="polyStyle" id="659007" style="fill:#ee8b94"/>
<path d="" class="polyStyle" id="652701" style="fill:#fbe6ef"/>
<path d="" class="polyStyle" id="210781" style="fill:#fbe6ef"/>
<path d="" class="polyStyle" id="460204" style="fill:#f6f67b"/>
<path d="" class="polyStyle" id="210211" style="fill:#f6f67b"/>
<path d="" class="polyStyle" id="450512" style="fill:#ee8b94"/>
<path d="" class="polyStyle" id="450602" style="fill:#fbe6ef"/>
<path d="" class="polyStyle" id="440404" style="fill:#ee8b94"/>
<path d="" class="polyStyle" id="440403" style="fill:#f6f67b"/>
<path d="" class="polyStyle" id="441502" style="fill:#f6f67b"/>
<path d="" class="polyStyle" id="431002" style="fill:#d4ecb2"/>
<path d="" class="polyStyle" id="500107" style="fill:#fbe6ef"/>
<path d="" class="polyStyle" id="430611" style="fill:#d4ecb2"/>
<path d="" class="polyStyle" id="511304" style="fill:#fbe6ef"/>
<path d="" class="polyStyle" id="340711" style="fill:#ee8b94"/>
<path d="" class="polyStyle" id="320118" style="fill:#f6f67b"/>
<path d="" class="polyStyle" id="510704" style="fill:#f6f67b"/>
<path d="" class="polyStyle" id="411502" style="fill:#ee8b94"/>
<path d="" class="polyStyle" id="320302" style="fill:#d4ecb2"/>
<path d="" class="polyStyle" id="140311" style="fill:#ee8b94"/>
<polygon points="5972,2892 5990,2894 5999,2901 6025,2905 6035,2911 6044,2911 6055,2910 6074,2916 6102,2923 6114,2907 6134,2908 6131,2930 6152,2935 6152,2938 6152,2955 6152,2960 6150,2975 6151,2981 6160,2985 6184,2990 6281,3016 6271,3021 6254,3028 6254,3031 6255,3064 6255,3098 6243,3100 6236,3106 6223,3136 6224,3142 6227,3166 6202,3165 6203,3217 6206,3219 6221,3214 6225,3221 6222,3233 6206,3241 6203,3242 6206,3248 6201,3251 6199,3255 6207,3267 6205,3273 6201,3280 6202,3288 6205,3290 6217,3291 6218,3297 6211,3307 6187,3301 6181,3303 6177,3314 6174,3345 6171,3362 6144,3356 6135,3357 6127,3377 6098,3361 6094,3362 6086,3367 6081,3374 6079,3382 6043,3379 6017,3378 6016,3384 6019,3386 6056,3394 6056,3446 6050,3450 6029,3453 6018,3460 6012,3460 6005,3459 5997,3459 5992,3462 5993,3468 5991,3472 5988,3474 5981,3474 5974,3474 5968,3474 5964,3474 5953,3473 5944,3472 5940,3472 5936,3475 5932,3477 5927,3480 5923,3480 5921,3474 5912,3475 5900,3476 5901,3473 5912,3436 5894,3433 5843,3430 5840,3416 5843,3410 5868,3404 5872,3380 5890,3380 5890,3370 5872,3370 5874,3353 5862,3353 5858,3350 5831,3349 5831,3343 5831,3315 5819,3314 5813,3319 5811,3332 5819,3334 5819,3342 5812,3342 5798,3343 5801,3349 5788,3349 5784,3353 5778,3344 5769,3332 5768,3329 5763,3325 5763,3321 5766,3313 5768,3310 5771,3309 5774,3307 5782,3310 5790,3314 5794,3315 5798,3312 5801,3308 5798,3299 5797,3290 5795,3287 5794,3278 5794,3259 5792,3237 5789,3228 5786,3217 5790,3192 5792,3166 5794,3148 5812,3111 5842,3052 5852,3018 5858,2995 5863,2981 5861,2974 5839,2977 5832,2975 5834,2970 5837,2966 5845,2965 5852,2963 5857,2963 5867,2965 5876,2962 5890,2962 5902,2968 5917,2971 5924,2942 5941,2944 5943,2937 5922,2932 5914,2915 5928,2917 5946,2923 5949,2912 5947,2899 5953,2898 5956,2898 5961,2899 5964,2885 5972,2886 " class="polyStyle" id="130902" style="fill:#fbe6ef"/>
<polygon points="5840,2631 5867,2638 5856,2657 5888,2664 5914,2668 5930,2677 5937,2667 5938,2670 5938,2673 5937,2676 5935,2679 5934,2683 5930,2688 5928,2691 5925,2693 5924,2696 5923,2699 5916,2709 5915,2712 5916,2717 5918,2723 5922,2725 5927,2728 5931,2731 5932,2734 5930,2738 5926,2742 5922,2742 5914,2746 5910,2749 5904,2751 5899,2755 5898,2758 5898,2761 5900,2764 5903,2767 5910,2772 5911,2775 5911,2779 5910,2785 5908,2788 5902,2793 5900,2796 5898,2799 5895,2802 5892,2806 5891,2809 5889,2813 5887,2818 5884,2824 5883,2829 5881,2834 5881,2839 5876,2843 5872,2846 5868,2848 5864,2850 5860,2852 5855,2855 5852,2859 5850,2863 5848,2867 5848,2871 5849,2876 5850,2880 5851,2883 5852,2886 5857,2891 5863,2895 5866,2896 5869,2899 5873,2900 5875,2903 5879,2905 5883,2909 5883,2915 5881,2919 5876,2918 5873,2918 5869,2917 5863,2913 5860,2913 5849,2912 5841,2912 5836,2911 5833,2912 5827,2912 5823,2914 5818,2916 5814,2919 5812,2923 5811,2926 5812,2929 5815,2933 5818,2935 5820,2938 5822,2941 5827,2945 5832,2950 5832,2953 5835,2957 5839,2962 5837,2966 5834,2970 5832,2975 5839,2977 5861,2974 5863,2981 5858,2995 5852,3018 5842,3052 5812,3111 5794,3148 5792,3166 5790,3192 5786,3217 5789,3228 5792,3237 5794,3259 5794,3278 5795,3287 5797,3290 5798,3299 5801,3308 5798,3312 5794,3315 5790,3314 5782,3310 5774,3307 5771,3309 5768,3310 5766,3313 5763,3321 5763,3325 5768,3329 5769,3332 5778,3344 5784,3353 5785,3361 5783,3364 5777,3366 5770,3365 5763,3366 5756,3368 5752,3371 5749,3375 5748,3380 5747,3385 5750,3390 5752,3395 5753,3399 5755,3406 5756,3409 5753,3415 5747,3420 5743,3422 5742,3426 5740,3430 5740,3434 5744,3436 5753,3437 5758,3438 5761,3438 5765,3440 5766,3444 5763,3449 5761,3453 5757,3457 5753,3462 5749,3467 5746,3470 5743,3475 5740,3474 5737,3476 5730,3477 5721,3477 5718,3479 5714,3481 5710,3485 5709,3489 5705,3493 5700,3494 5696,3495 5690,3494 5686,3492 5680,3488 5676,3485 5672,3483 5667,3482 5663,3481 5659,3480 5645,3481 5638,3482 5632,3481 5629,3479 5625,3477 5623,3473 5622,3469 5620,3465 5619,3459 5614,3453 5607,3449 5601,3448 5594,3448 5590,3450 5587,3451 5584,3453 5581,3457 5580,3460 5579,3463 5577,3467 5577,3472 5575,3477 5570,3483 5566,3489 5554,3498 5549,3501 5546,3502 5543,3505 5539,3508 5536,3513 5535,3518 5534,3521 5536,3528 5538,3534 5542,3540 5544,3545 5545,3550 5544,3553 5543,3556 5540,3558 5537,3559 5533,3561 5527,3561 5523,3560 5519,3559 5515,3558 5508,3557 5504,3557 5501,3558 5497,3559 5492,3562 5488,3566 5483,3572 5473,3581 5468,3584 5464,3586 5458,3587 5450,3590 5446,3592 5443,3595 5440,3598 5439,3605 5440,3608 5441,3612 5442,3615 5443,3618 5444,3622 5442,3625 5439,3627 5436,3628 5431,3630 5423,3631 5417,3633 5413,3635 5410,3638 5401,3645 5398,3649 5393,3652 5392,3656 5377,3655 5342,3643 5321,3622 5307,3611 5317,3590 5330,3568 5342,3545 5357,3510 5367,3485 5355,3476 5362,3458 5377,3458 5390,3433 5403,3405 5422,3405 5427,3375 5447,3371 5445,3356 5420,3355 5382,3355 5337,3355 5333,3338 5315,3338 5312,3321 5315,3308 5335,3305 5347,3303 5357,3281 5368,3283 5377,3276 5397,3276 5402,3270 5405,3253 5378,3256 5368,3253 5377,3241 5370,3235 5357,3226 5367,3211 5352,3203 5350,3191 5342,3188 5350,3178 5370,3171 5383,3155 5398,3141 5415,3138 5435,3138 5438,3126 5425,3116 5423,3101 5410,3093 5415,3083 5410,3068 5408,3045 5415,3025 5417,3005 5433,2995 5462,2981 5485,2963 5508,2940 5525,2920 5540,2898 5547,2870 5562,2843 5577,2820 5585,2823 5597,2805 5612,2778 5625,2766 5648,2753 5670,2740 5690,2720 5710,2701 5723,2686 5713,2678 5721,2681 5713,2669 5734,2668 5741,2646 5755,2646 5765,2631 5781,2616 5808,2625 " class="polyStyle" id="130903" style="fill:#d4ecb2"/>
<path d="" class="polyStyle" id="610802" style="fill:#ee8b94"/>
<path d="" class="polyStyle" id="120116" style="fill:#f6f67b"/>
<path d="" class="polyStyle" id="130303" style="fill:#fbe6ef"/>
<path d="" class="polyStyle" id="140211" style="fill:#f6f67b"/>
<path d="" class="polyStyle" id="150207" style="fill:#fbe6ef"/>
<path d="" class="polyStyle" id="211403" style="fill:#f6f67b"/>
<path d="" class="polyStyle" id="150802" style="fill:#f8c67d"/>
<path d="" class="polyStyle" id="210112" style="fill:#ee8b94"/>
<path d="" class="polyStyle" id="230406" style="fill:#d4ecb2"/>
<path d="" class="polyStyle" id="110113" style="fill:#fbe6ef"/>
<path d="" class="polyStyle" id="341702" style="fill:#fbe6ef"/>
<path d="" class="polyStyle" id="420303" style="fill:#ee8b94"/>
<path d="" class="polyStyle" id="340702" style="fill:#d4ecb2"/>
<path d="" class="polyStyle" id="421002" style="fill:#f6f67b"/>
<path d="" class="polyStyle" id="420117" style="fill:#f6f67b"/>
<path d="" class="polyStyle" id="440904" style="fill:#f8c67d"/>
<path d="" class="polyStyle" id="460205" style="fill:#ee8b94"/>
<path d="" class="polyStyle" id="460202" style="fill:#f6f67b"/>
<path d="" class="polyStyle" id="460203" style="fill:#fbe6ef"/>
<path d="" class="polyStyle" id="420304" style="fill:#f6f67b"/>
<path d="" class="polyStyle" id="445302" style="fill:#ee8b94"/>
<path d="" class="polyStyle" id="410202" style="fill:#d4ecb2"/>
<path d="" class="polyStyle" id="440800" style="fill:#f6f67b"/>
<path d="" class="polyStyle" id="440900" style="fill:#ee8b94"/>
<path d="" class="polyStyle" id="340800" style="fill:#ee8b94"/>
<path d="" class="polyStyle" id="460200" style="fill:#f6f67b"/>
<path d="" class="polyStyle" id="460000" style="fill:#ee8b94"/>
<path d="" class="polyStyle" id="450500" style="fill:#ee8b94"/>
<path d="" class="polyStyle" id="450600" style="fill:#ee8b94"/>
<path d="" class="polyStyle" id="440400" style="fill:#f6f67b"/>
<path d="" class="polyStyle" id="441700" style="fill:#f6f67b"/>
<path d="" class="polyStyle" id="441500" style="fill:#f6f67b"/>
<path d="" class="polyStyle" id="350600" style="fill:#ee8b94"/>
<path d="" class="polyStyle" id="710000" style="fill:#f6f67b"/>
<path d="" class="polyStyle" id="510400" style="fill:#f6f67b"/>
<path d="" class="polyStyle" id="522600" style="fill:#fbe6ef"/>
<path d="" class="polyStyle" id="520500" style="fill:#ee8b94"/>
<path d="" class="polyStyle" id="431200" style="fill:#f6f67b"/>
<path d="" class="polyStyle" id="430600" style="fill:#f6f67b"/>
<path d="" class="polyStyle" id="511400" style="fill:#d4ecb2"/>
<path d="" class="polyStyle" id="421000" style="fill:#ee8b94"/>
<path d="" class="polyStyle" id="341700" style="fill:#f6f67b"/>
<path d="" class="polyStyle" id="420500" style="fill:#f6f67b"/>
<path d="" class="polyStyle" id="511300" style="fill:#f6f67b"/>
<path d="" class="polyStyle" id="420900" style="fill:#f6f67b"/>
<path d="" class="polyStyle" id="511700" style="fill:#ee8b94"/>
<path d="" class="polyStyle" id="420600" style="fill:#d4ecb2"/>
<path d="" class="polyStyle" id="411500" style="fill:#fbe6ef"/>
<path d="" class="polyStyle" id="510800" style="fill:#ee8b94"/>
<path d="" class="polyStyle" id="420300" style="fill:#fbe6ef"/>
<path d="" class="polyStyle" id="611000" style="fill:#ee8b94"/>
<path d="" class="polyStyle" id="620800" style="fill:#fbe6ef"/>
<path d="" class="polyStyle" id="370200" style="fill:#ee8b94"/>
<path d="" class="polyStyle" id="371000" style="fill:#f6f67b"/>
<path d="" class="polyStyle" id="370600" style="fill:#fbe6ef"/>
<path d="" class="polyStyle" id="120000" style="fill:#f6f67b"/>
<path d="" class="polyStyle" id="130200" style="fill:#ee8b94"/>
<path d="" class="polyStyle" id="130300" style="fill:#f6f67b"/>
<path d="" class="polyStyle" id="652900" style="fill:#fbe6ef"/>
<path d="" class="polyStyle" id="150500" style="fill:#d4ecb2"/>
<path d="" class="polyStyle" id="" style="fill:#d4ecb2"/>
<path d="" class="polyStyle" id="350500" style="fill:#fbe6ef"/>
<path d="" class="polyStyle" id="440400" style="fill:#f6f67b"/>
<path d="" class="polyStyle" id="421100" style="fill:#d4ecb2"/>
<path d="" class="polyStyle" id="420100" style="fill:#fbe6ef"/>
<path d="" class="polyStyle" id="532500" style="fill:#fbe6ef"/>
<path d="" class="polyStyle" id="654200" style="fill:#fbe6ef"/>
<path d="" class="polyStyle" id="210700" style="fill:#d4ecb2"/>
<path d="" class="polyStyle" id="522300" style="fill:#fbe6ef"/>
<path d="" class="polyStyle" id="" style="fill:#ee8b94"/>
<path d="" class="polyStyle" id="440400" style="fill:#f6f67b"/>
<path d="" class="polyStyle" id="620000" style="fill:#f6f67b"/>
<path d="" class="polyStyle" id="430000" style="fill:#fbe6ef"/>
<path d="" class="polyStyle" id="420000" style="fill:#ee8b94"/>
<path d="" class="polyStyle" id="410000" style="fill:#f6f67b"/>
<path d="" class="polyStyle" id="350000" style="fill:#fbe6ef"/>
<path d="" class="polyStyle" id="520000" style="fill:#f6f67b"/>
<path d="" class="polyStyle" id="" style="fill:#ee8b94"/>
</svg>
