<?xml version="1.0" encoding="UTF-8"?>
<!DOCTYPE svg PUBLIC "-//W3C//DTD SVG 1.1 Tiny//EN" "http://www.w3.org/Graphics/SVG/1.1/DTD/svg11-tiny.dtd">
<svg version="1.1" xmlns="http://www.w3.org/2000/svg" xmlns:xlink="http://www.w3.org/1999/xlink" width="100%" height="100%" viewBox="0,0,8201,4813">
<title>SVG</title>
<desc>Poligon Test</desc>
<style id="style_css_sheet" type="text/css">
.polyStyle{fill: #cccccc;stroke-width:0;fill-rule:evenodd;}
</style>
<circle cx="3238" cy="2552" r="200" stroke="black" stroke-width="1" fill="red" id="140181" name="古交市"/>
<circle cx="5815" cy="1804" r="200" stroke="black" stroke-width="1" fill="red" id="140122" name="阳曲县"/>
<circle cx="1396" cy="1762" r="200" stroke="black" stroke-width="1" fill="red" id="140123" name="娄烦县"/>
<circle cx="4179" cy="4059" r="200" stroke="black" stroke-width="1" fill="red" id="140121"position="444" name="清徐县"/>
<circle cx="5236" cy="2788" r="200" stroke="black" stroke-width="1" fill="red" id="140106" name="迎泽区"/>
<circle cx="5010" cy="2805" r="200" stroke="black" stroke-width="1" fill="red" id="140109" position="344"name="万柏林区"/>
<circle cx="5234" cy="2683" r="200" stroke="black" stroke-width="1" fill="red" id="140107" name="杏花岭区"/>
<circle cx="5290" cy="3408" r="200" stroke="black" stroke-width="1" fill="red" id="140105" name="小店区"/>
<circle cx="4855" cy="2408" r="200" stroke="black" stroke-width="1" fill="red" id="140108"position="4" name="尖草坪区"/>
<circle cx="4851" cy="3465" r="200" stroke="black" stroke-width="1" fill="red" id="140110"position="4" name="晋源区"/>
<path d="" class="polyStyle" id="" style="fill:#ee8b94"/>
<path d="" class="polyStyle" id="623022" style="fill:#fbe6ef"/>
<path d="" class="polyStyle" id="211421" style="fill:#f6f67b"/>
<path d="" class="polyStyle" id="532524" style="fill:#ee8b94"/>
<path d="" class="polyStyle" id="440825" style="fill:#f6f67b"/>
<path d="" class="polyStyle" id="441721" style="fill:#f6f67b"/>
<path d="" class="polyStyle" id="450521" style="fill:#f6f67b"/>
<path d="" class="polyStyle" id="450123" style="fill:#fbe6ef"/>
<path d="" class="polyStyle" id="350624" style="fill:#f6f67b"/>
<path d="" class="polyStyle" id="" style="fill:#fbe6ef"/>
<path d="" class="polyStyle" id="451224" style="fill:#fbe6ef"/>
<path d="" class="polyStyle" id="350627" style="fill:#f6f67b"/>
<path d="" class="polyStyle" id="" style="fill:#f6f67b"/>
<path d="" class="polyStyle" id="350525" style="fill:#f6f67b"/>
<path d="" class="polyStyle" id="530124" style="fill:#ee8b94"/>
<path d="" class="polyStyle" id="522627" style="fill:#ee8b94"/>
<path d="" class="polyStyle" id="510421" style="fill:#fbe6ef"/>
<path d="" class="polyStyle" id="522623" style="fill:#d4ecb2"/>
<path d="" class="polyStyle" id="430321" style="fill:#d4ecb2"/>
<path d="" class="polyStyle" id="511129" style="fill:#d4ecb2"/>
<path d="" class="polyStyle" id="511423" style="fill:#ee8b94"/>
<path d="" class="polyStyle" id="421023" style="fill:#f6f67b"/>
<path d="" class="polyStyle" id="511724" style="fill:#f6f67b"/>
<path d="" class="polyStyle" id="420526" style="fill:#fbe6ef"/>
<path d="" class="polyStyle" id="511923" style="fill:#fbe6ef"/>
<path d="" class="polyStyle" id="420325" style="fill:#fbe6ef"/>
<path d="" class="polyStyle" id="511921" style="fill:#f6f67b"/>
<path d="" class="polyStyle" id="542525" style="fill:#f6f67b"/>
<path d="" class="polyStyle" id="611026" style="fill:#ee8b94"/>
<path d="" class="polyStyle" id="411023" style="fill:#fbe6ef"/>
<path d="" class="polyStyle" id="632323" style="fill:#f6f67b"/>
<path d="" class="polyStyle" id="140525" style="fill:#d4ecb2"/>
<path d="" class="polyStyle" id="410922" style="fill:#ee8b94"/>
<path d="" class="polyStyle" id="621027" style="fill:#ee8b94"/>
<path d="" class="polyStyle" id="130427" style="fill:#f6f67b"/>
<polygon points="4076,3216 4080,3221 4085,3225 4095,3227 4108,3239 4119,3255 4124,3265 4125,3280 4124,3301 4122,3321 4126,3334 4135,3344 4152,3350 4154,3355 4154,3363 4151,3377 4138,3406 4134,3414 4118,3422 4084,3436 4077,3442 4067,3450 4058,3459 4054,3467 4054,3473 4054,3480 4058,3491 4061,3501 4071,3518 4078,3539 4082,3557 4082,3567 4065,3586 4056,3598 4056,3612 4081,3642 4092,3667 4106,3686 4125,3707 4134,3723 4149,3736 4166,3741 4186,3745 4196,3747 4205,3753 4208,3770 4218,3793 4241,3818 4263,3839 4270,3849 4270,3861 4260,3879 4259,3892 4263,3901 4271,3911 4275,3924 4265,3949 4263,3961 4270,3980 4283,4007 4304,4041 4320,4061 4336,4068 4359,4073 4371,4072 4377,4069 4403,4025 4415,4000 4420,3994 4428,3993 4446,3999 4466,4021 4473,4031 4478,4045 4491,4062 4595,4121 4625,4127 4644,4129 4670,4118 4712,4096 4721,4085 4727,4068 4729,4010 4738,3998 4746,3997 4822,4006 4837,4011 4841,4034 4850,4036 4871,4039 4886,4037 4900,4032 4905,4026 4912,4007 4928,4003 4960,3978 4970,3977 4990,3979 5031,3993 5049,3997 5063,4002 5070,4012 5073,4022 5079,4034 5078,4072 5084,4078 5113,4086 5143,4081 5152,4088 5156,4094 5173,4101 5188,4103 5196,4099 5221,4091 5227,4093 5234,4100 5263,4118 5276,4118 5285,4115 5296,4090 5301,4084 5319,4084 5324,4084 5336,4091 5391,4098 5408,4104 5416,4118 5421,4144 5430,4160 5451,4189 5460,4206 5465,4220 5467,4232 5466,4258 5458,4322 5455,4332 5455,4341 5459,4349 5479,4364 5488,4373 5490,4397 5501,4425 5521,4429 5541,4429 5559,4432 5562,4439 5556,4453 5550,4462 5539,4471 5526,4476 5511,4478 5477,4479 5466,4478 5455,4480 5409,4492 5392,4501 5378,4515 5376,4522 5376,4536 5381,4554 5380,4562 5375,4571 5321,4558 5300,4555 5270,4547 5246,4543 5218,4525 5151,4514 5145,4514 5136,4520 5131,4531 5123,4533 5098,4531 5087,4532 5078,4534 5048,4547 5037,4550 4994,4548 4983,4551 4977,4554 4970,4569 4970,4601 4973,4651 4970,4694 4962,4712 4959,4714 4940,4721 4923,4718 4910,4719 4896,4726 4875,4732 4853,4734 4830,4730 4822,4731 4803,4755 4789,4764 4753,4768 4741,4763 4730,4751 4720,4736 4706,4722 4693,4717 4656,4712 4630,4713 4623,4721 4612,4746 4604,4753 4598,4766 4594,4798 4591,4805 4587,4811 4566,4813 4549,4812 4525,4808 4508,4802 4500,4790 4487,4787 4469,4787 4454,4790 4436,4797 4417,4800 4394,4793 4384,4783 4363,4748 4360,4732 4371,4691 4362,4684 4321,4683 4284,4680 4260,4687 4234,4683 4215,4682 4208,4691 4197,4730 4198,4756 4192,4777 4182,4791 4162,4801 4112,4797 4102,4808 4091,4812 4072,4812 4068,4800 4026,4777 4011,4767 4009,4759 4015,4736 4008,4725 3990,4719 3927,4707 3890,4683 3867,4665 3871,4654 3887,4646 3919,4635 3971,4629 3988,4629 3994,4622 3994,4590 3989,4579 3980,4572 3937,4572 3915,4566 3904,4541 3906,4530 3914,4515 3912,4508 3899,4499 3839,4499 3837,4489 3831,4486 3816,4485 3799,4485 3790,4486 3790,4478 3794,4456 3800,4444 3839,4415 3865,4391 3891,4363 3894,4346 3889,4292 3882,4277 3873,4272 3833,4275 3801,4284 3739,4294 3699,4298 3653,4297 3624,4287 3606,4277 3590,4256 3569,4202 3556,4145 3542,4129 3528,4122 3485,4113 3469,4104 3452,4060 3441,4050 3419,4035 3408,4029 3397,4026 3392,4020 3379,3995 3359,3971 3324,3951 3298,3939 3290,3930 3289,3903 3292,3870 3280,3834 3282,3814 3298,3799 3308,3776 3313,3762 3335,3752 3340,3746 3344,3732 3352,3722 3358,3719 3366,3720 3381,3718 3387,3713 3390,3707 3389,3699 3397,3689 3406,3685 3421,3687 3445,3680 3453,3680 3467,3687 3476,3685 3498,3674 3504,3668 3507,3654 3515,3649 3532,3650 3541,3655 3557,3657 3576,3654 3582,3650 3591,3626 3611,3621 3628,3620 3642,3628 3651,3630 3661,3630 3679,3621 3707,3591 3711,3583 3711,3577 3698,3564 3693,3555 3694,3545 3726,3508 3744,3476 3783,3424 3850,3356 3880,3334 3913,3317 3934,3309 3947,3301 3982,3262 3992,3260 3999,3256 4017,3236 4073,3201 4075,3208 " class="polyStyle" id="140121" style="fill:#d4ecb2"/>
<path d="" class="polyStyle" id="130121" style="fill:#ee8b94"/>
<polygon points="1733,981 1753,984 1766,1005 1762,1032 1753,1064 1744,1095 1755,1114 1760,1122 1785,1138 1817,1138 1845,1123 1857,1107 1866,1107 1891,1111 1912,1115 1932,1133 1943,1148 1964,1170 1997,1202 2039,1202 2077,1214 2099,1209 2122,1221 2146,1239 2164,1257 2177,1266 2197,1269 2222,1261 2238,1235 2277,1214 2301,1217 2342,1207 2361,1198 2407,1192 2435,1168 2454,1160 2471,1160 2479,1185 2501,1198 2524,1201 2551,1208 2593,1225 2628,1239 2652,1247 2610,1306 2594,1325 2579,1335 2555,1344 2542,1354 2531,1371 2505,1397 2489,1405 2482,1410 2475,1418 2465,1431 2462,1439 2462,1447 2476,1478 2476,1492 2473,1499 2457,1510 2442,1518 2442,1536 2461,1557 2494,1580 2505,1622 2527,1647 2531,1654 2530,1679 2526,1711 2540,1732 2547,1755 2547,1761 2540,1776 2530,1787 2523,1792 2519,1798 2516,1807 2511,1825 2509,1862 2512,1887 2511,1893 2509,1901 2490,1944 2488,1952 2489,1962 2497,1969 2501,1975 2514,1985 2543,2000 2555,2008 2562,2016 2572,2032 2609,2076 2615,2090 2611,2105 2608,2119 2608,2127 2612,2143 2624,2150 2628,2162 2622,2176 2622,2202 2624,2218 2633,2231 2631,2240 2601,2245 2583,2244 2565,2237 2532,2229 2530,2235 2532,2250 2528,2258 2483,2250 2470,2254 2470,2260 2478,2267 2487,2279 2537,2301 2548,2308 2579,2318 2623,2329 2653,2339 2668,2350 2679,2363 2680,2376 2671,2381 2652,2388 2635,2415 2622,2424 2613,2427 2538,2433 2448,2451 2408,2464 2343,2496 2311,2515 2243,2551 2208,2553 2187,2560 2177,2574 2183,2603 2166,2654 2158,2660 2122,2659 2112,2657 2102,2658 2090,2663 2040,2636 2030,2635 2020,2637 1990,2653 1980,2656 1951,2653 1933,2648 1898,2646 1832,2632 1818,2632 1773,2649 1748,2652 1705,2643 1682,2637 1670,2632 1659,2618 1639,2601 1633,2598 1615,2610 1589,2605 1556,2604 1537,2608 1528,2613 1520,2614 1486,2599 1463,2592 1429,2594 1404,2591 1375,2582 1364,2577 1328,2570 1314,2570 1301,2573 1277,2573 1258,2578 1211,2580 1197,2579 1187,2581 1176,2607 1170,2617 1139,2644 1108,2666 1094,2685 1094,2694 1098,2715 1104,2727 1108,2741 1106,2740 1089,2738 1080,2733 1073,2730 1056,2727 1041,2729 1028,2731 1018,2733 1005,2729 1002,2725 986,2715 972,2713 951,2711 928,2717 914,2719 894,2725 884,2728 873,2732 867,2740 861,2754 857,2764 850,2773 847,2780 838,2787 828,2791 818,2792 807,2792 790,2791 773,2787 763,2787 750,2787 738,2794 724,2801 720,2806 705,2816 694,2821 689,2822 680,2822 674,2822 667,2819 654,2809 645,2803 634,2798 625,2798 615,2798 605,2803 597,2808 587,2813 582,2814 575,2814 566,2813 558,2810 544,2807 525,2805 513,2808 501,2810 492,2815 483,2822 466,2827 450,2829 436,2826 410,2823 391,2822 381,2823 366,2825 351,2829 340,2834 331,2842 323,2853 316,2860 310,2864 303,2867 296,2867 290,2865 281,2856 273,2844 268,2832 265,2820 259,2807 256,2797 256,2785 253,2770 254,2755 254,2737 253,2725 248,2718 245,2712 238,2707 228,2702 210,2698 196,2696 184,2693 171,2687 161,2684 166,2676 200,2666 210,2661 232,2648 256,2631 294,2620 311,2608 318,2599 322,2592 320,2577 294,2537 294,2517 308,2495 310,2487 284,2446 273,2438 236,2429 220,2422 209,2412 193,2390 185,2371 176,2357 161,2337 149,2326 146,2313 140,2300 138,2266 134,2242 132,2236 117,2225 111,2209 114,2161 111,2143 104,2129 96,2121 73,2110 54,2098 46,2092 39,2084 23,2059 9,2025 5,2008 6,1998 13,1977 30,1952 51,1928 62,1913 56,1906 47,1902 12,1872 1,1857 0,1850 2,1843 8,1835 31,1820 36,1812 36,1798 33,1791 37,1780 53,1772 118,1757 139,1746 153,1731 155,1697 159,1679 215,1656 239,1639 259,1628 303,1620 328,1621 375,1620 423,1617 454,1609 475,1609 508,1606 546,1596 583,1565 637,1525 677,1506 721,1493 773,1465 791,1453 843,1447 868,1435 908,1396 927,1383 987,1326 1003,1314 1012,1289 1012,1281 998,1242 1002,1231 1034,1214 1076,1212 1112,1205 1141,1188 1152,1188 1170,1191 1188,1208 1212,1208 1225,1206 1252,1210 1272,1198 1278,1179 1287,1167 1306,1173 1321,1160 1346,1150 1376,1158 1390,1153 1382,1137 1384,1131 1396,1131 1409,1137 1423,1135 1432,1130 1453,1129 1442,1104 1450,1088 1461,1070 1473,1057 1497,1053 1507,1047 1508,1034 1525,1029 1542,1029 1575,1034 1602,1038 1618,1039 1653,1036 1669,1031 1673,1019 1660,1007 1631,1001 1627,993 1633,975 1638,963 1646,956 1659,956 1716,973 " class="polyStyle" id="140123" style="fill:#ee8b94"/>
<path d="" class="polyStyle" id="610823" style="fill:#fbe6ef"/>
<polygon points="8075,10 8100,14 8115,18 8131,24 8140,37 8147,48 8141,61 8135,66 8131,69 8128,73 8126,78 8122,83 8121,87 8119,91 8118,95 8118,100 8118,104 8119,108 8121,112 8121,117 8122,122 8124,126 8125,131 8126,135 8128,139 8130,143 8132,147 8134,151 8136,155 8142,160 8143,163 8146,167 8149,169 8153,172 8156,177 8159,180 8162,183 8164,187 8166,192 8169,196 8171,201 8173,206 8175,211 8176,215 8177,222 8177,228 8176,235 8173,239 8173,244 8171,249 8170,253 8166,257 8163,263 8160,268 8159,271 8156,276 8152,280 8150,284 8146,287 8143,292 8138,294 8135,298 8131,303 8137,329 8174,358 8201,380 8200,408 8170,466 8139,490 8128,496 8118,500 8108,505 8104,511 8103,518 8093,527 8075,533 8057,535 8043,538 8028,537 8015,534 8005,541 7994,548 7989,552 7979,563 7963,572 7949,573 7933,567 7916,561 7907,555 7897,560 7890,567 7875,571 7865,571 7848,574 7829,573 7812,574 7802,572 7795,577 7786,583 7784,594 7786,601 7784,608 7771,615 7750,618 7746,621 7740,628 7737,633 7732,644 7732,652 7732,661 7730,673 7725,686 7712,697 7694,703 7682,710 7681,714 7678,728 7660,741 7647,743 7630,750 7615,751 7596,753 7592,761 7588,772 7586,782 7584,799 7581,804 7579,809 7576,813 7570,815 7564,818 7560,822 7556,824 7554,827 7551,829 7530,832 7514,833 7498,831 7480,839 7459,851 7442,861 7425,869 7408,877 7386,888 7370,897 7364,906 7353,918 7339,930 7317,939 7302,942 7291,941 7284,946 7280,954 7279,966 7275,981 7270,993 7257,1003 7241,1015 7232,1014 7226,1016 7221,1016 7217,1019 7212,1022 7208,1026 7207,1030 7206,1035 7202,1040 7203,1044 7201,1048 7205,1052 7208,1056 7211,1060 7213,1064 7214,1068 7214,1073 7211,1077 7208,1080 7203,1085 7200,1089 7197,1095 7193,1099 7189,1101 7185,1105 7181,1110 7178,1112 7173,1116 7171,1120 7168,1122 7164,1125 7160,1129 7157,1131 7154,1135 7152,1139 7152,1143 7155,1147 7157,1151 7160,1155 7162,1159 7163,1163 7162,1167 7156,1167 7151,1167 7146,1166 7141,1166 7135,1167 7133,1171 7129,1174 7126,1178 7125,1184 7121,1189 7119,1194 7118,1197 7113,1198 7109,1200 7106,1205 7103,1212 7115,1232 7117,1240 7117,1253 7116,1285 7111,1294 7105,1303 7095,1306 7065,1288 7046,1289 7028,1295 7027,1299 7020,1319 7024,1331 7032,1342 7034,1352 7034,1364 7035,1377 7041,1384 7046,1386 7050,1388 7055,1389 7060,1388 7063,1391 7070,1392 7073,1395 7079,1401 7081,1405 7084,1410 7086,1414 7090,1416 7094,1417 7101,1418 7106,1420 7111,1422 7116,1422 7122,1422 7126,1422 7134,1419 7139,1418 7144,1417 7148,1415 7156,1414 7160,1412 7165,1410 7172,1408 7177,1407 7181,1405 7186,1404 7191,1402 7197,1400 7203,1398 7207,1397 7212,1396 7218,1396 7222,1398 7225,1402 7228,1406 7228,1410 7229,1414 7229,1418 7229,1422 7232,1433 7231,1441 7226,1457 7226,1479 7234,1498 7242,1512 7247,1514 7257,1523 7266,1534 7275,1545 7284,1552 7301,1562 7307,1569 7315,1576 7325,1582 7337,1592 7342,1593 7360,1603 7369,1609 7374,1609 7384,1609 7386,1612 7388,1619 7392,1631 7401,1639 7408,1641 7434,1657 7480,1682 7486,1695 7493,1694 7501,1690 7515,1683 7534,1680 7560,1681 7566,1682 7578,1689 7600,1691 7626,1698 7631,1706 7632,1714 7633,1724 7636,1740 7648,1750 7662,1762 7677,1775 7693,1783 7706,1786 7717,1788 7728,1791 7743,1790 7749,1788 7749,1799 7752,1817 7753,1826 7754,1832 7735,1831 7729,1835 7725,1838 7721,1839 7718,1842 7713,1846 7710,1850 7706,1853 7704,1856 7700,1860 7694,1863 7690,1866 7686,1867 7681,1869 7675,1870 7670,1870 7664,1870 7659,1868 7654,1867 7649,1866 7645,1865 7640,1864 7634,1863 7609,1860 7583,1858 7558,1855 7552,1855 7546,1855 7541,1855 7535,1856 7529,1858 7522,1861 7516,1864 7510,1867 7505,1870 7502,1873 7498,1875 7493,1877 7490,1881 7486,1884 7482,1887 7478,1890 7474,1892 7470,1896 7466,1899 7463,1903 7463,1906 7466,1909 7470,1911 7473,1914 7479,1915 7483,1918 7488,1918 7493,1920 7497,1922 7502,1926 7507,1931 7509,1935 7511,1940 7514,1946 7519,1950 7522,1954 7526,1957 7528,1961 7531,1966 7533,1970 7534,1974 7528,1975 7522,1976 7517,1977 7511,1978 7508,1983 7506,1986 7505,1992 7504,1996 7502,2000 7501,2003 7497,2006 7491,2008 7484,2010 7478,2008 7473,2010 7468,2010 7462,2012 7456,2015 7449,2017 7446,2059 7444,2072 7426,2089 7411,2090 7366,2094 7344,2082 7339,2080 7337,2076 7335,2072 7332,2067 7297,2030 7259,2014 7249,2015 7237,2023 7225,2034 7224,2040 7219,2056 7217,2067 7208,2079 7197,2087 7187,2094 7179,2101 7163,2108 7159,2117 7154,2121 7149,2126 7147,2131 7144,2136 7139,2141 7135,2144 7130,2148 7124,2150 7115,2153 7106,2150 7096,2148 7083,2142 7067,2138 7059,2133 7046,2128 7039,2125 7032,2124 7025,2122 7013,2122 7003,2125 6991,2127 6978,2131 6959,2136 6947,2139 6934,2144 6922,2146 6913,2147 6906,2146 6898,2142 6883,2136 6875,2131 6870,2126 6859,2122 6849,2122 6841,2122 6831,2122 6824,2123 6815,2127 6805,2130 6797,2134 6787,2140 6776,2145 6766,2149 6756,2151 6747,2153 6738,2157 6730,2157 6717,2159 6708,2158 6701,2158 6692,2159 6687,2158 6682,2154 6674,2146 6669,2139 6664,2134 6661,2130 6652,2127 6643,2125 6634,2125 6623,2125 6614,2121 6607,2120 6601,2116 6589,2113 6584,2106 6580,2101 6577,2096 6573,2088 6567,2084 6559,2083 6549,2085 6546,2091 6544,2094 6538,2101 6534,2102 6523,2105 6515,2110 6508,2115 6498,2122 6497,2131 6497,2141 6503,2152 6511,2160 6514,2166 6515,2171 6514,2175 6514,2180 6511,2184 6509,2189 6504,2194 6495,2199 6487,2205 6480,2208 6471,2211 6460,2216 6450,2222 6437,2228 6422,2237 6408,2249 6394,2259 6384,2272 6372,2285 6363,2299 6353,2308 6341,2321 6326,2342 6311,2356 6288,2381 6278,2389 6268,2402 6264,2406 6262,2408 6235,2388 6204,2370 6185,2357 6161,2341 6149,2334 6140,2329 6129,2332 6120,2338 6112,2343 6109,2349 6109,2353 6110,2359 6112,2367 6112,2376 6108,2385 6100,2392 6089,2402 6077,2410 6060,2416 6048,2413 6035,2409 6020,2403 6017,2403 5957,2395 5919,2387 5898,2369 5860,2348 5828,2329 5809,2310 5807,2307 5789,2294 5781,2288 5773,2285 5765,2283 5762,2280 5760,2277 5757,2271 5752,2266 5744,2254 5724,2241 5703,2232 5698,2231 5691,2232 5686,2238 5683,2239 5680,2240 5671,2231 5651,2205 5581,2171 5575,2167 5560,2150 5542,2137 5539,2131 5540,2122 5564,2101 5567,2089 5566,2082 5538,2052 5511,2005 5490,1976 5482,1957 5474,1947 5472,1937 5473,1918 5456,1898 5453,1845 5441,1846 5404,1878 5368,1898 5313,1876 5283,1856 5272,1855 5231,1862 5197,1871 5170,1871 5142,1867 5127,1873 5117,1873 5102,1867 5087,1864 5073,1864 5067,1870 5062,1880 5061,1891 5052,1897 5032,1901 5012,1898 4993,1892 4967,1860 4946,1849 4923,1842 4867,1845 4854,1843 4840,1837 4840,1800 4828,1788 4756,1732 4749,1732 4735,1740 4722,1753 4715,1756 4683,1792 4670,1799 4636,1829 4626,1827 4625,1817 4619,1808 4611,1806 4575,1827 4574,1840 4589,1862 4570,1899 4566,1925 4565,1953 4563,1963 4558,1972 4560,1981 4570,1992 4579,2005 4579,2017 4571,2026 4551,2031 4537,2030 4540,2004 4527,2004 4519,2006 4513,2009 4504,2016 4501,2017 4493,2020 4475,2020 4471,2019 4467,2018 4464,2018 4460,2017 4456,2016 4452,2015 4448,2017 4449,2022 4451,2027 4454,2031 4457,2034 4460,2038 4464,2044 4465,2048 4465,2052 4463,2057 4460,2060 4454,2065 4451,2068 4446,2070 4442,2074 4447,2078 4451,2079 4455,2080 4461,2083 4461,2086 4461,2091 4458,2092 4455,2092 4441,2093 4438,2092 4433,2090 4427,2087 4420,2086 4416,2088 4411,2093 4408,2098 4407,2101 4401,2107 4398,2108 4394,2109 4387,2111 4381,2110 4378,2109 4375,2107 4371,2106 4368,2104 4363,2101 4359,2101 4356,2102 4350,2101 4344,2100 4336,2098 4333,2099 4326,2099 4317,2101 4314,2101 4310,2106 4307,2108 4305,2111 4304,2114 4303,2118 4302,2124 4302,2128 4304,2131 4306,2134 4308,2137 4310,2139 4312,2142 4317,2148 4337,2165 4339,2168 4341,2171 4341,2173 4343,2177 4344,2183 4343,2186 4341,2188 4339,2191 4336,2193 4332,2194 4330,2195 4327,2196 4322,2198 4319,2199 4316,2200 4312,2200 4308,2202 4304,2203 4301,2204 4298,2206 4294,2207 4291,2209 4287,2212 4283,2214 4280,2216 4272,2222 4268,2224 4265,2225 4262,2226 4259,2227 4254,2229 4250,2228 4239,2222 4228,2215 4207,2212 4197,2212 4177,2219 4159,2222 4153,2221 4145,2213 4131,2208 4098,2201 4090,2191 4084,2178 4073,2169 4070,2163 4077,2152 4074,2146 4043,2137 4040,2130 4030,2123 4024,2124 4018,2121 4016,2115 4020,2107 4021,2090 4011,2070 3991,2058 3986,2050 3983,2043 3980,2015 3973,2004 3960,1994 3925,1973 3900,1941 3889,1933 3847,1874 3837,1861 3830,1856 3817,1825 3804,1822 3775,1835 3728,1850 3716,1849 3694,1837 3680,1799 3690,1789 3684,1782 3663,1765 3650,1751 3628,1743 3587,1741 3576,1742 3572,1733 3584,1714 3590,1691 3600,1683 3627,1686 3640,1678 3642,1656 3597,1632 3569,1619 3567,1613 3577,1597 3567,1576 3555,1567 3540,1561 3528,1554 3508,1538 3499,1534 3490,1527 3469,1523 3451,1515 3447,1509 3447,1499 3454,1486 3489,1461 3496,1454 3494,1444 3492,1435 3490,1431 3486,1415 3481,1388 3488,1379 3510,1371 3530,1369 3556,1385 3584,1391 3601,1392 3624,1376 3632,1364 3678,1356 3695,1341 3705,1321 3718,1300 3726,1273 3732,1256 3735,1246 3751,1224 3759,1194 3758,1165 3749,1137 3727,1128 3705,1127 3694,1113 3694,1085 3689,1056 3684,1029 3678,1008 3664,991 3645,976 3624,964 3597,945 3579,929 3554,900 3539,874 3525,853 3527,825 3590,798 3646,787 3742,767 3770,767 3773,756 3769,741 3749,729 3728,725 3691,710 3673,698 3662,683 3658,668 3660,647 3674,635 3701,611 3732,591 3763,575 3781,549 3786,541 3790,537 3790,541 3794,545 3799,547 3805,548 3811,549 3815,549 3822,549 3830,548 3837,548 3842,548 3847,549 3852,550 3856,550 3861,553 3866,555 3870,557 3875,559 3877,562 3883,566 3887,568 3893,569 3897,570 3902,570 3909,571 3915,571 3920,572 3925,571 3928,574 3935,575 3941,573 3946,573 3950,569 3956,567 3961,565 3965,563 3970,561 3975,560 3980,559 3984,557 3989,556 3994,555 4000,553 4005,553 4014,552 4018,551 4022,554 4025,556 4028,560 4031,565 4034,568 4037,570 4040,571 4061,580 4088,584 4108,585 4123,591 4142,615 4168,636 4196,660 4215,692 4238,717 4271,729 4293,727 4325,727 4345,728 4369,743 4411,766 4452,773 4466,765 4488,744 4512,731 4536,724 4558,714 4585,704 4611,701 4639,712 4654,726 4661,755 4665,777 4678,791 4691,806 4702,835 4713,857 4725,864 4750,867 4763,871 4773,883 4793,898 4821,890 4835,886 4854,889 4870,897 4886,907 4912,918 4918,920 4944,915 4955,905 4976,877 4987,872 5005,870 5035,863 5044,856 5045,853 5045,842 5044,825 5046,803 5046,789 5045,777 5046,767 5049,759 5053,758 5059,761 5062,765 5066,769 5070,772 5072,776 5076,778 5081,781 5085,783 5088,785 5092,788 5097,791 5101,793 5106,795 5111,797 5116,799 5121,800 5125,803 5130,804 5133,808 5135,811 5137,816 5137,820 5137,824 5135,829 5135,832 5135,836 5135,840 5138,844 5142,845 5148,845 5153,844 5158,844 5163,845 5168,846 5173,849 5178,851 5182,854 5185,856 5189,859 5192,863 5192,867 5192,871 5191,875 5190,879 5187,883 5187,887 5189,892 5193,896 5197,898 5202,902 5207,904 5223,908 5234,910 5239,921 5240,935 5235,950 5225,968 5214,981 5209,988 5218,1005 5232,1023 5243,1032 5253,1043 5266,1052 5288,1059 5308,1062 5329,1063 5350,1067 5366,1066 5389,1056 5393,1053 5405,1049 5422,1049 5434,1053 5453,1056 5471,1063 5487,1070 5508,1073 5525,1072 5536,1068 5548,1058 5558,1051 5570,1042 5591,1032 5605,1025 5619,1009 5629,992 5644,977 5663,967 5663,957 5661,944 5656,929 5649,914 5641,909 5634,895 5627,888 5622,879 5621,873 5630,867 5645,865 5677,872 5705,877 5742,884 5761,894 5788,901 5802,910 5812,919 5829,926 5849,922 5868,926 5877,925 5888,922 5890,917 5890,911 5890,898 5894,894 5905,893 5924,892 5944,891 5958,886 5971,884 5977,888 5990,889 6006,890 6025,891 6040,899 6051,907 6064,913 6072,911 6080,906 6085,900 6093,893 6100,886 6112,885 6120,891 6138,896 6165,896 6197,888 6224,881 6244,879 6263,877 6295,873 6322,866 6343,863 6379,856 6401,851 6417,839 6430,825 6438,815 6452,801 6466,789 6466,773 6470,759 6471,747 6478,742 6487,736 6489,723 6498,710 6510,696 6523,680 6534,669 6550,657 6567,640 6588,623 6604,610 6622,598 6639,589 6660,580 6675,575 6688,573 6708,573 6731,572 6749,563 6771,556 6785,553 6816,549 6837,539 6846,531 6866,522 6887,522 6905,524 6926,517 6946,511 6964,505 6976,499 6995,487 7009,473 7021,461 7040,451 7054,448 7069,448 7085,447 7113,441 7128,439 7146,436 7160,427 7177,418 7190,402 7204,386 7210,375 7221,374 7237,359 7252,342 7259,332 7272,324 7281,318 7290,319 7294,329 7295,344 7294,357 7295,371 7305,386 7311,394 7332,402 7354,404 7362,401 7370,394 7386,398 7401,402 7413,399 7425,394 7437,389 7454,378 7459,369 7472,362 7481,346 7492,339 7501,329 7514,322 7522,311 7525,302 7523,294 7533,283 7548,276 7558,271 7575,268 7579,254 7583,243 7586,226 7594,212 7602,206 7615,198 7635,193 7653,187 7667,179 7682,177 7692,168 7718,157 7765,166 7784,153 7826,136 7835,127 7838,111 7823,63 7811,53 7815,46 7826,44 7835,38 7846,28 7862,25 7879,20 7902,14 7927,12 7955,6 7977,2 8000,1 8025,0 8055,5 " class="polyStyle" id="140122" style="fill:#ee8b94"/>
<path d="" class="polyStyle" id="130225" style="fill:#fbe6ef"/>
<path d="" class="polyStyle" id="130322" style="fill:#d4ecb2"/>
<path d="" class="polyStyle" id="653130" style="fill:#f6f67b"/>
<path d="" class="polyStyle" id="130822" style="fill:#fbe6ef"/>
<path d="" class="polyStyle" id="211221" style="fill:#f6f67b"/>
<path d="" class="polyStyle" id="210921" style="fill:#f6f67b"/>
<path d="" class="polyStyle" id="150223" style="fill:#f8c67d"/>
<path d="" class="polyStyle" id="220422" style="fill:#d4ecb2"/>
<path d="" class="polyStyle" id="340721" style="fill:#f6f67b"/>
<path d="" class="polyStyle" id="510824" style="fill:#d4ecb2"/>
<path d="" class="polyStyle" id="610324" style="fill:#f6f67b"/>
<path d="" class="polyStyle" id="530722" style="fill:#ee8b94"/>
<path d="" class="polyStyle" id="340823" style="fill:#d4ecb2"/>
<path d="" class="polyStyle" id="620825" style="fill:#d4ecb2"/>
<path d="" class="polyStyle" id="421125" style="fill:#ee8b94"/>
<path d="" class="polyStyle" id="210281" style="fill:#ee8b94"/>
<path d="" class="polyStyle" id="440883" style="fill:#f6f67b"/>
<path d="" class="polyStyle" id="469006" style="fill:#d4ecb2"/>
<path d="" class="polyStyle" id="469002" style="fill:#ee8b94"/>
<path d="" class="polyStyle" id="469005" style="fill:#fbe6ef"/>
<path d="" class="polyStyle" id="440882" style="fill:#ee8b94"/>
<path d="" class="polyStyle" id="450681" style="fill:#ee8b94"/>
<path d="" class="polyStyle" id="441581" style="fill:#d4ecb2"/>
<path d="" class="polyStyle" id="421087" style="fill:#ee8b94"/>
<path d="" class="polyStyle" id="420984" style="fill:#fbe6ef"/>
<path d="" class="polyStyle" id="420582" style="fill:#ee8b94"/>
<path d="" class="polyStyle" id="370282" style="fill:#f6f67b"/>
<path d="" class="polyStyle" id="371083" style="fill:#f6f67b"/>
<path d="" class="polyStyle" id="371082" style="fill:#fbe6ef"/>
<polygon points="2776,1256 2787,1253 2813,1273 2832,1270 2859,1262 2879,1259 2905,1264 2926,1270 2950,1287 2959,1299 2977,1315 2998,1318 3012,1329 3021,1352 3050,1371 3066,1391 3093,1402 3115,1386 3125,1370 3142,1366 3167,1364 3221,1356 3256,1366 3295,1374 3364,1395 3399,1402 3432,1394 3457,1414 3475,1435 3494,1444 3496,1454 3489,1461 3454,1486 3447,1499 3447,1509 3451,1515 3469,1523 3490,1527 3499,1534 3508,1538 3528,1554 3540,1561 3555,1567 3567,1576 3577,1597 3567,1613 3569,1619 3597,1632 3642,1656 3640,1678 3627,1686 3600,1683 3590,1691 3584,1714 3572,1733 3576,1742 3587,1741 3628,1743 3650,1751 3663,1765 3684,1782 3690,1789 3680,1799 3694,1837 3716,1849 3728,1850 3775,1835 3804,1822 3817,1825 3830,1856 3837,1861 3847,1874 3889,1933 3900,1941 3925,1973 3960,1994 3973,2004 3980,2015 3983,2043 3986,2050 3991,2058 4011,2070 4021,2090 4020,2107 4016,2115 4018,2121 4024,2124 4030,2123 4040,2130 4043,2137 4074,2146 4077,2152 4070,2163 4073,2169 4084,2178 4090,2191 4098,2201 4090,2208 4080,2213 4059,2213 4049,2211 4031,2220 4028,2228 4036,2246 4059,2261 4101,2279 4106,2287 4099,2320 4090,2326 4065,2335 4059,2341 4056,2350 4054,2359 4049,2364 4045,2368 4043,2371 4041,2374 4039,2377 4038,2380 4036,2383 4034,2387 4033,2392 4032,2395 4032,2400 4029,2418 4025,2424 4023,2421 4021,2418 4020,2415 4019,2412 4017,2409 4015,2406 4013,2403 4012,2400 4009,2396 4005,2392 3996,2383 3992,2381 3988,2380 3984,2379 3981,2380 3976,2382 3974,2383 3970,2387 3967,2389 3967,2393 3965,2394 3964,2398 3963,2401 3962,2408 3961,2412 3962,2418 3963,2423 3963,2426 3964,2430 3965,2433 3966,2436 3967,2439 3968,2443 3970,2448 3971,2451 3972,2454 3972,2459 3968,2461 3961,2462 3957,2463 3953,2463 3948,2464 3946,2465 3943,2466 3939,2468 3935,2470 3929,2475 3920,2480 3914,2484 3909,2485 3907,2479 3908,2475 3910,2471 3912,2467 3913,2464 3915,2462 3917,2459 3920,2457 3921,2454 3923,2451 3925,2447 3927,2445 3928,2442 3929,2439 3927,2435 3925,2432 3924,2430 3921,2426 3912,2418 3908,2415 3905,2414 3902,2413 3899,2412 3897,2411 3893,2409 3889,2409 3886,2408 3882,2407 3878,2406 3869,2406 3860,2405 3851,2406 3847,2406 3844,2407 3841,2408 3838,2409 3835,2410 3832,2412 3829,2413 3819,2420 3818,2425 3823,2430 3826,2431 3831,2433 3835,2434 3838,2435 3841,2436 3844,2436 3848,2437 3851,2438 3856,2438 3859,2440 3862,2442 3864,2446 3862,2448 3860,2451 3856,2454 3852,2456 3847,2459 3843,2461 3840,2462 3837,2463 3835,2464 3832,2465 3828,2466 3825,2468 3820,2469 3816,2471 3809,2473 3807,2473 3802,2476 3788,2474 3785,2476 3763,2489 3759,2497 3769,2518 3798,2569 3845,2667 3855,2678 3866,2680 3906,2667 3915,2667 3923,2675 3946,2711 3942,2722 3931,2728 3903,2722 3862,2722 3845,2729 3839,2745 3852,2777 3865,2818 3911,2870 3939,2897 3952,2943 3958,2945 3968,2941 3985,2940 3997,2951 4024,2968 4063,2983 4098,2983 4111,2987 4129,2994 4134,3003 4131,3012 4111,3036 4104,3054 4103,3092 4100,3100 4089,3105 4060,3134 4060,3140 4077,3166 4080,3178 4080,3191 4073,3201 4017,3236 3999,3256 3992,3260 3982,3262 3947,3301 3934,3309 3913,3317 3880,3334 3850,3356 3783,3424 3744,3476 3726,3508 3694,3545 3693,3555 3698,3564 3711,3577 3711,3583 3707,3591 3679,3621 3661,3630 3651,3630 3642,3628 3628,3620 3611,3621 3591,3626 3582,3650 3576,3654 3557,3657 3541,3655 3532,3650 3515,3649 3507,3654 3504,3668 3498,3674 3476,3685 3467,3687 3453,3680 3445,3680 3421,3687 3406,3685 3397,3689 3389,3699 3390,3707 3387,3713 3381,3718 3366,3720 3358,3719 3352,3722 3344,3732 3340,3746 3335,3752 3313,3762 3292,3754 3300,3735 3289,3729 3259,3724 3229,3710 3221,3691 3204,3679 3183,3677 3128,3662 3118,3662 3105,3659 3078,3638 3066,3614 3059,3609 3050,3609 3030,3617 3023,3618 3013,3615 2955,3543 2939,3528 2933,3526 2900,3535 2884,3542 2863,3538 2843,3527 2825,3527 2798,3524 2790,3525 2767,3534 2719,3546 2688,3556 2663,3561 2639,3561 2614,3558 2593,3551 2585,3546 2571,3529 2560,3522 2543,3506 2539,3491 2529,3487 2513,3497 2503,3499 2455,3495 2402,3496 2372,3504 2296,3540 2281,3541 2259,3537 2250,3532 2240,3522 2233,3512 2215,3478 2206,3454 2201,3445 2197,3439 2187,3432 2174,3429 2166,3429 2137,3435 2091,3449 2087,3439 2097,3402 2090,3393 2087,3384 2082,3376 2071,3363 2049,3345 2028,3316 2027,3303 2022,3293 2017,3287 2014,3278 2013,3268 2017,3258 2012,3233 2004,3225 1993,3220 1983,3213 1975,3203 1973,3197 1975,3190 1973,3181 1979,3156 1983,3148 1983,3141 1970,3128 1944,3116 1935,3115 1923,3111 1912,3110 1901,3111 1870,3122 1860,3128 1847,3140 1829,3144 1821,3144 1790,3137 1753,3134 1683,3135 1665,3132 1635,3131 1582,3137 1558,3137 1548,3136 1534,3132 1520,3125 1518,3119 1512,3111 1511,3100 1512,3084 1495,3051 1486,3041 1463,3021 1452,3017 1434,3005 1408,2998 1384,2986 1376,2978 1362,2970 1317,2970 1303,2967 1284,2960 1264,2950 1256,2925 1260,2914 1260,2904 1252,2893 1223,2883 1205,2873 1182,2856 1165,2837 1155,2829 1149,2808 1151,2783 1156,2759 1153,2749 1146,2746 1128,2746 1108,2741 1104,2727 1098,2715 1094,2694 1094,2685 1108,2666 1139,2644 1170,2617 1176,2607 1187,2581 1197,2579 1211,2580 1258,2578 1277,2573 1301,2573 1314,2570 1328,2570 1364,2577 1375,2582 1404,2591 1429,2594 1463,2592 1486,2599 1520,2614 1528,2613 1537,2608 1556,2604 1589,2605 1615,2610 1633,2598 1639,2601 1659,2618 1670,2632 1682,2637 1705,2643 1748,2652 1773,2649 1818,2632 1832,2632 1898,2646 1933,2648 1951,2653 1980,2656 1990,2653 2020,2637 2030,2635 2040,2636 2090,2663 2102,2658 2112,2657 2122,2659 2158,2660 2166,2654 2183,2603 2177,2574 2187,2560 2208,2553 2243,2551 2311,2515 2343,2496 2408,2464 2448,2451 2538,2433 2613,2427 2622,2424 2635,2415 2652,2388 2671,2381 2680,2376 2679,2363 2668,2350 2653,2339 2623,2329 2579,2318 2548,2308 2537,2301 2487,2279 2478,2267 2470,2260 2470,2254 2483,2250 2528,2258 2532,2250 2530,2235 2532,2229 2565,2237 2583,2244 2601,2245 2631,2240 2633,2231 2624,2218 2622,2202 2622,2176 2628,2162 2624,2150 2612,2143 2608,2127 2608,2119 2611,2105 2615,2090 2609,2076 2572,2032 2562,2016 2555,2008 2543,2000 2514,1985 2501,1975 2497,1969 2489,1962 2488,1952 2490,1944 2509,1901 2511,1893 2512,1887 2509,1862 2511,1825 2516,1807 2519,1798 2523,1792 2530,1787 2540,1776 2547,1761 2547,1755 2540,1732 2526,1711 2530,1679 2531,1654 2527,1647 2505,1622 2494,1580 2461,1557 2442,1536 2442,1518 2457,1510 2473,1499 2476,1492 2476,1478 2462,1447 2462,1439 2465,1431 2475,1418 2482,1410 2489,1405 2505,1397 2531,1371 2542,1354 2555,1344 2579,1335 2594,1325 2610,1306 2652,1247 2668,1249 2677,1246 2701,1228 2716,1227 2736,1242 " class="polyStyle" id="140181" style="fill:#fbe6ef"/>
<path d="" class="polyStyle" id="652801" style="fill:#f8c67d"/>
<path d="" class="polyStyle" id="654301" style="fill:#ee8b94"/>
<path d="" class="polyStyle" id="370687" style="fill:#ee8b94"/>
<path d="" class="polyStyle" id="371482" style="fill:#d4ecb2"/>
<path d="" class="polyStyle" id="421081" style="fill:#fbe6ef"/>
<path d="" class="polyStyle" id="429006" style="fill:#f6f67b"/>
<path d="" class="polyStyle" id="440982" style="fill:#d4ecb2"/>
<path d="" class="polyStyle" id="421181" style="fill:#d4ecb2"/>
<path d="" class="polyStyle" id="321181" style="fill:#d4ecb2"/>
<path d="" class="polyStyle" id="659007" style="fill:#ee8b94"/>
<path d="" class="polyStyle" id="652701" style="fill:#fbe6ef"/>
<path d="" class="polyStyle" id="210781" style="fill:#fbe6ef"/>
<path d="" class="polyStyle" id="460204" style="fill:#f6f67b"/>
<path d="" class="polyStyle" id="210211" style="fill:#f6f67b"/>
<path d="" class="polyStyle" id="450512" style="fill:#ee8b94"/>
<path d="" class="polyStyle" id="450602" style="fill:#fbe6ef"/>
<path d="" class="polyStyle" id="440404" style="fill:#ee8b94"/>
<path d="" class="polyStyle" id="440403" style="fill:#f6f67b"/>
<path d="" class="polyStyle" id="441502" style="fill:#f6f67b"/>
<path d="" class="polyStyle" id="431002" style="fill:#d4ecb2"/>
<path d="" class="polyStyle" id="500107" style="fill:#fbe6ef"/>
<path d="" class="polyStyle" id="430611" style="fill:#d4ecb2"/>
<path d="" class="polyStyle" id="511304" style="fill:#fbe6ef"/>
<path d="" class="polyStyle" id="340711" style="fill:#ee8b94"/>
<path d="" class="polyStyle" id="320118" style="fill:#f6f67b"/>
<path d="" class="polyStyle" id="510704" style="fill:#f6f67b"/>
<path d="" class="polyStyle" id="411502" style="fill:#ee8b94"/>
<path d="" class="polyStyle" id="320302" style="fill:#d4ecb2"/>
<polygon points="4922,2990 4929,2992 4935,2999 4939,3018 4956,3021 4999,3026 4999,3039 5007,3040 4991,3063 4995,3069 5004,3071 5005,3077 5001,3086 4985,3088 4987,3097 5003,3117 5008,3101 5040,3108 5052,3104 5052,3089 5069,3088 5079,3061 5089,3051 5101,3049 5107,3042 5132,3044 5132,3049 5132,3056 5129,3064 5132,3085 5129,3092 5122,3100 5120,3112 5127,3137 5116,3143 5114,3148 5114,3156 5110,3165 5103,3175 5097,3191 5099,3217 5105,3223 5106,3234 5110,3248 5116,3262 5121,3277 5121,3292 5124,3310 5127,3312 5126,3315 5127,3319 5129,3323 5131,3327 5133,3331 5138,3340 5142,3344 5149,3355 5150,3359 5151,3363 5152,3372 5151,3377 5152,3382 5153,3386 5154,3389 5154,3392 5157,3398 5160,3403 5161,3408 5163,3412 5165,3417 5170,3434 5171,3438 5172,3445 5171,3448 5170,3451 5167,3456 5164,3460 5160,3468 5158,3472 5157,3480 5158,3485 5158,3492 5157,3498 5155,3502 5153,3507 5149,3514 5146,3520 5141,3528 5139,3533 5134,3541 5131,3544 5129,3548 5126,3551 5123,3556 5120,3559 5115,3564 5112,3568 5109,3571 5101,3578 5094,3584 5086,3590 5079,3595 5074,3598 5065,3601 5041,3617 5024,3635 4995,3681 4967,3701 4948,3708 4925,3711 4907,3711 4898,3709 4862,3693 4848,3689 4838,3689 4817,3697 4779,3722 4747,3756 4712,3787 4684,3808 4652,3840 4614,3872 4603,3875 4546,3880 4515,3893 4470,3931 4428,3993 4420,3994 4415,4000 4403,4025 4377,4069 4371,4072 4359,4073 4336,4068 4320,4061 4304,4041 4283,4007 4270,3980 4263,3961 4265,3949 4275,3924 4271,3911 4263,3901 4259,3892 4260,3879 4270,3861 4270,3849 4263,3839 4241,3818 4218,3793 4208,3770 4205,3753 4196,3747 4186,3745 4166,3741 4149,3736 4134,3723 4125,3707 4106,3686 4092,3667 4081,3642 4056,3612 4056,3598 4065,3586 4082,3567 4082,3557 4078,3539 4071,3518 4061,3501 4058,3491 4054,3480 4054,3473 4054,3467 4058,3459 4067,3450 4077,3442 4084,3436 4118,3422 4134,3414 4138,3406 4151,3377 4154,3363 4154,3355 4152,3350 4135,3344 4126,3334 4122,3321 4124,3301 4125,3280 4124,3265 4119,3255 4108,3239 4095,3227 4085,3225 4080,3221 4076,3216 4075,3208 4073,3201 4122,3193 4206,3175 4274,3154 4352,3125 4392,3119 4433,3118 4448,3115 4498,3098 4507,3090 4506,3060 4507,3052 4512,3042 4528,3028 4540,3025 4560,3017 4583,3004 4604,3004 4630,3011 4662,3037 4714,3067 4826,3113 4838,3114 4847,3111 4857,3100 4874,3061 4874,3050 4866,3036 4849,3027 4840,3014 4840,3005 4852,2999 4885,3000 4887,2991 4891,2983 4908,2981 4918,2984 " class="polyStyle" id="140110" style="fill:#fbe6ef"/>
<polygon points="5858,2877 5888,2890 5893,2900 5886,2901 5878,2911 5871,2947 5861,2960 5831,2973 5815,2994 5798,3027 5797,3047 5816,3072 5842,3112 5842,3129 5831,3142 5805,3162 5771,3182 5727,3215 5711,3221 5696,3224 5686,3229 5681,3242 5683,3251 5688,3258 5701,3269 5704,3279 5711,3290 5731,3308 5735,3315 5735,3341 5732,3364 5733,3372 5737,3378 5746,3385 5759,3392 5760,3400 5743,3418 5737,3427 5695,3448 5690,3458 5689,3464 5691,3490 5688,3511 5678,3549 5674,3556 5660,3560 5608,3560 5585,3561 5566,3564 5556,3567 5537,3578 5528,3591 5528,3601 5525,3608 5526,3617 5533,3621 5554,3639 5558,3646 5558,3654 5561,3667 5559,3685 5549,3700 5538,3705 5506,3711 5498,3709 5491,3712 5487,3719 5487,3739 5484,3754 5479,3762 5449,3772 5442,3785 5442,3797 5444,3804 5459,3828 5479,3838 5515,3844 5525,3852 5525,3878 5519,3891 5490,3904 5456,3912 5426,3917 5415,3914 5385,3911 5370,3912 5356,3915 5343,3919 5332,3925 5318,3936 5315,3945 5315,3963 5324,4020 5320,4048 5322,4061 5319,4070 5319,4084 5301,4084 5296,4090 5285,4115 5276,4118 5263,4118 5234,4100 5227,4093 5221,4091 5196,4099 5188,4103 5173,4101 5156,4094 5152,4088 5143,4081 5113,4086 5084,4078 5078,4072 5079,4034 5073,4022 5070,4012 5063,4002 5049,3997 5031,3993 4990,3979 4970,3977 4960,3978 4928,4003 4912,4007 4905,4026 4900,4032 4886,4037 4871,4039 4850,4036 4841,4034 4837,4011 4822,4006 4746,3997 4738,3998 4729,4010 4727,4068 4721,4085 4712,4096 4670,4118 4644,4129 4625,4127 4595,4121 4491,4062 4478,4045 4473,4031 4466,4021 4446,3999 4428,3993 4470,3931 4515,3893 4546,3880 4603,3875 4614,3872 4652,3840 4684,3808 4712,3787 4747,3756 4779,3722 4817,3697 4838,3689 4848,3689 4862,3693 4898,3709 4907,3711 4925,3711 4948,3708 4967,3701 4995,3681 5024,3635 5041,3617 5065,3601 5074,3598 5079,3595 5086,3590 5094,3584 5101,3578 5109,3571 5112,3568 5115,3564 5120,3559 5123,3556 5126,3551 5129,3548 5131,3544 5134,3541 5139,3533 5141,3528 5146,3520 5149,3514 5153,3507 5155,3502 5157,3498 5158,3492 5158,3485 5157,3480 5158,3472 5160,3468 5164,3460 5167,3456 5170,3451 5171,3448 5172,3445 5171,3438 5170,3434 5165,3417 5163,3412 5161,3408 5160,3403 5157,3398 5154,3392 5154,3389 5153,3386 5152,3382 5151,3377 5152,3372 5151,3363 5150,3359 5149,3355 5142,3344 5138,3340 5133,3331 5131,3327 5129,3323 5127,3319 5126,3315 5127,3312 5124,3310 5121,3292 5121,3277 5116,3262 5110,3248 5106,3234 5105,3223 5099,3217 5097,3191 5103,3175 5110,3165 5114,3156 5114,3148 5116,3143 5127,3137 5120,3112 5122,3100 5129,3092 5132,3085 5129,3064 5132,3056 5132,3049 5132,3044 5133,3042 5133,3037 5137,3025 5126,2995 5126,2981 5134,2969 5134,2963 5131,2950 5119,2943 5115,2936 5115,2922 5117,2915 5350,2909 5355,2918 5355,2929 5363,2934 5393,2934 5430,2938 5439,2949 5439,2955 5430,2964 5365,2972 5359,2983 5363,3030 5368,3048 5391,3078 5401,3077 5403,3058 5409,3054 5453,3048 5470,3031 5481,3029 5497,3029 5518,3046 5532,3048 5577,3034 5599,3022 5609,3022 5616,3027 5630,3027 5646,3013 5666,2989 5681,2980 5715,2970 5727,2962 5731,2948 5745,2929 5762,2894 5782,2882 5797,2858 5815,2850 5842,2849 5852,2855 " class="polyStyle" id="140105" style="fill:#ee8b94"/>
<polygon points="6237,2518 6249,2531 6248,2540 6253,2547 6255,2555 6262,2561 6267,2570 6270,2576 6270,2581 6272,2595 6270,2606 6270,2615 6271,2625 6277,2632 6285,2642 6290,2650 6296,2658 6300,2664 6304,2672 6306,2678 6305,2685 6305,2691 6306,2696 6310,2704 6317,2712 6320,2716 6325,2723 6330,2733 6335,2743 6340,2753 6340,2763 6339,2773 6335,2775 6328,2775 6321,2772 6304,2757 6293,2746 6283,2737 6271,2730 6254,2720 6241,2714 6224,2704 6211,2698 6203,2698 6192,2697 6182,2697 6175,2698 6169,2701 6161,2704 6152,2708 6130,2717 6115,2727 6109,2730 6104,2738 6101,2746 6097,2755 6096,2769 6096,2783 6094,2793 6094,2801 6090,2806 6086,2812 6080,2818 6073,2821 6068,2823 6064,2825 6058,2827 6053,2835 6049,2843 6047,2849 6039,2853 6030,2856 6018,2859 6004,2857 5979,2851 5971,2850 5949,2850 5946,2856 5949,2863 5952,2874 5954,2883 5955,2893 5947,2896 5925,2897 5898,2898 5893,2900 5888,2890 5858,2877 5852,2855 5842,2849 5815,2850 5797,2858 5782,2882 5762,2894 5745,2929 5731,2948 5727,2962 5715,2970 5681,2980 5666,2989 5646,3013 5630,3027 5616,3027 5609,3022 5599,3022 5577,3034 5532,3048 5518,3046 5497,3029 5481,3029 5470,3031 5453,3048 5409,3054 5403,3058 5401,3077 5391,3078 5368,3048 5363,3030 5359,2983 5365,2972 5430,2964 5439,2955 5439,2949 5430,2938 5393,2934 5363,2934 5355,2929 5355,2918 5350,2909 5117,2915 5112,2900 5109,2891 5106,2878 5104,2850 5104,2841 5105,2798 5106,2772 5107,2762 5147,2760 5188,2763 5222,2763 5242,2755 5263,2752 5330,2750 5346,2751 5350,2761 5358,2780 5397,2782 5445,2786 5473,2791 5480,2789 5490,2775 5510,2772 5536,2778 5562,2796 5579,2798 5624,2791 5715,2772 5791,2762 5799,2749 5786,2727 5784,2703 5785,2695 5825,2669 5825,2654 5818,2646 5808,2642 5806,2633 5816,2623 5832,2598 5847,2567 5863,2555 5903,2549 5920,2537 5934,2523 5943,2523 5946,2530 5963,2532 6005,2526 6021,2511 6045,2506 6082,2507 6128,2506 6137,2514 6141,2522 6149,2522 6177,2517 6192,2507 6208,2504 6217,2504 6227,2506 " class="polyStyle" id="140106" style="fill:#d4ecb2"/>
<polygon points="5634,2222 5642,2222 5651,2228 5671,2231 5680,2240 5683,2239 5686,2238 5691,2232 5698,2231 5703,2232 5724,2241 5744,2254 5752,2266 5757,2271 5760,2277 5762,2280 5765,2283 5773,2285 5781,2288 5789,2294 5807,2307 5809,2310 5828,2329 5860,2348 5898,2369 5919,2387 5957,2395 6017,2403 6020,2403 6035,2409 6048,2413 6060,2416 6077,2410 6089,2402 6100,2392 6108,2385 6112,2376 6112,2367 6110,2359 6109,2353 6109,2349 6112,2343 6120,2338 6129,2332 6140,2329 6149,2334 6161,2341 6185,2357 6204,2370 6235,2388 6262,2408 6259,2416 6261,2422 6267,2429 6277,2434 6284,2439 6290,2445 6296,2450 6304,2457 6309,2467 6311,2472 6313,2477 6313,2482 6311,2488 6302,2492 6296,2495 6277,2501 6269,2509 6262,2518 6258,2525 6253,2528 6249,2531 6237,2518 6227,2506 6217,2504 6208,2504 6192,2507 6177,2517 6149,2522 6141,2522 6137,2514 6128,2506 6082,2507 6045,2506 6021,2511 6005,2526 5963,2532 5946,2530 5943,2523 5934,2523 5920,2537 5903,2549 5863,2555 5847,2567 5832,2598 5816,2623 5806,2633 5808,2642 5818,2646 5825,2654 5825,2669 5785,2695 5784,2703 5786,2727 5799,2749 5791,2762 5715,2772 5624,2791 5579,2798 5562,2796 5536,2778 5510,2772 5490,2775 5480,2789 5473,2791 5445,2786 5397,2782 5358,2780 5350,2761 5346,2751 5330,2750 5263,2752 5242,2755 5222,2763 5188,2763 5147,2760 5107,2762 5108,2744 5108,2725 5111,2700 5111,2691 5111,2688 5111,2666 5107,2654 5111,2644 5127,2636 5146,2615 5169,2603 5206,2604 5234,2589 5237,2581 5241,2566 5256,2543 5262,2528 5266,2508 5266,2498 5256,2490 5256,2484 5258,2462 5259,2424 5255,2376 5257,2366 5262,2365 5291,2366 5309,2369 5325,2367 5342,2355 5342,2343 5311,2320 5304,2312 5304,2304 5315,2302 5331,2277 5353,2266 5363,2266 5384,2270 5387,2287 5400,2289 5408,2288 5418,2282 5428,2270 5443,2261 5477,2260 5522,2274 5529,2277 5532,2270 5524,2255 5522,2242 5533,2235 5545,2232 5570,2219 5601,2217 5622,2223 " class="polyStyle" id="140107" style="fill:#f8c67d"/>
<polygon points="4145,2213 4153,2221 4159,2222 4177,2219 4197,2212 4207,2212 4228,2215 4239,2222 4230,2227 4213,2242 4206,2253 4208,2259 4230,2267 4237,2272 4244,2318 4244,2334 4238,2341 4210,2348 4189,2362 4184,2372 4190,2386 4209,2403 4249,2428 4269,2437 4288,2439 4301,2443 4323,2445 4332,2448 4360,2463 4372,2481 4380,2489 4397,2492 4407,2490 4413,2484 4418,2473 4428,2459 4453,2441 4460,2427 4493,2413 4503,2415 4511,2428 4517,2451 4522,2457 4532,2461 4590,2477 4622,2496 4630,2504 4629,2517 4633,2525 4644,2531 4655,2532 4682,2530 4747,2556 4795,2584 4814,2597 4827,2609 4838,2615 4901,2613 4959,2614 4970,2641 4971,2671 5041,2670 5047,2675 5072,2676 5072,2689 5084,2690 5084,2696 5111,2700 5108,2725 5108,2744 5107,2762 5106,2772 5105,2798 5104,2841 5104,2850 5106,2878 5109,2891 5112,2900 5117,2915 5115,2922 5115,2936 5119,2943 5131,2950 5134,2963 5134,2969 5126,2981 5126,2995 5137,3025 5133,3037 5133,3042 5132,3044 5107,3042 5101,3049 5089,3051 5079,3061 5069,3088 5052,3089 5052,3104 5040,3108 5008,3101 5003,3117 4987,3097 4985,3088 5001,3086 5005,3077 5004,3071 4995,3069 4991,3063 5007,3040 4999,3039 4999,3026 4956,3021 4939,3018 4935,2999 4929,2992 4922,2990 4918,2984 4908,2981 4891,2983 4887,2991 4885,3000 4852,2999 4840,3005 4840,3014 4849,3027 4866,3036 4874,3050 4874,3061 4857,3100 4847,3111 4838,3114 4826,3113 4714,3067 4662,3037 4630,3011 4604,3004 4583,3004 4560,3017 4540,3025 4528,3028 4512,3042 4507,3052 4506,3060 4507,3090 4498,3098 4448,3115 4433,3118 4392,3119 4352,3125 4274,3154 4206,3175 4122,3193 4073,3201 4080,3191 4080,3178 4077,3166 4060,3140 4060,3134 4089,3105 4100,3100 4103,3092 4104,3054 4111,3036 4131,3012 4134,3003 4129,2994 4111,2987 4098,2983 4063,2983 4024,2968 3997,2951 3985,2940 3968,2941 3958,2945 3952,2943 3939,2897 3911,2870 3865,2818 3852,2777 3839,2745 3845,2729 3862,2722 3903,2722 3931,2728 3942,2722 3946,2711 3923,2675 3915,2667 3906,2667 3866,2680 3855,2678 3845,2667 3798,2569 3769,2518 3759,2497 3763,2489 3785,2476 3788,2474 3802,2476 3807,2473 3809,2473 3816,2471 3820,2469 3825,2468 3828,2466 3832,2465 3835,2464 3837,2463 3840,2462 3843,2461 3847,2459 3852,2456 3856,2454 3860,2451 3862,2448 3864,2446 3862,2442 3859,2440 3856,2438 3851,2438 3848,2437 3844,2436 3841,2436 3838,2435 3835,2434 3831,2433 3826,2431 3823,2430 3818,2425 3819,2420 3829,2413 3832,2412 3835,2410 3838,2409 3841,2408 3844,2407 3847,2406 3851,2406 3860,2405 3869,2406 3878,2406 3882,2407 3886,2408 3889,2409 3893,2409 3897,2411 3899,2412 3902,2413 3905,2414 3908,2415 3912,2418 3921,2426 3924,2430 3925,2432 3927,2435 3929,2439 3928,2442 3927,2445 3925,2447 3923,2451 3921,2454 3920,2457 3917,2459 3915,2462 3913,2464 3912,2467 3910,2471 3908,2475 3907,2479 3909,2485 3914,2484 3920,2480 3929,2475 3935,2470 3939,2468 3943,2466 3946,2465 3948,2464 3953,2463 3957,2463 3961,2462 3968,2461 3972,2459 3972,2454 3971,2451 3970,2448 3968,2443 3967,2439 3966,2436 3965,2433 3964,2430 3963,2426 3963,2423 3962,2418 3961,2412 3962,2408 3963,2401 3964,2398 3965,2394 3967,2393 3967,2389 3970,2387 3974,2383 3976,2382 3981,2380 3984,2379 3988,2380 3992,2381 3996,2383 4005,2392 4009,2396 4012,2400 4013,2403 4015,2406 4017,2409 4019,2412 4020,2415 4021,2418 4023,2421 4025,2424 4029,2418 4032,2400 4032,2395 4033,2392 4034,2387 4036,2383 4038,2380 4039,2377 4041,2374 4043,2371 4045,2368 4049,2364 4054,2359 4056,2350 4059,2341 4065,2335 4090,2326 4099,2320 4106,2287 4101,2279 4059,2261 4036,2246 4028,2228 4031,2220 4049,2211 4059,2213 4080,2213 4090,2208 4098,2201 4131,2208 " class="polyStyle" id="140109" style="fill:#f6f67b"/>
<polygon points="4840,1800 4840,1837 4854,1843 4867,1845 4923,1842 4946,1849 4967,1860 4993,1892 5012,1898 5032,1901 5052,1897 5061,1891 5062,1880 5067,1870 5073,1864 5087,1864 5102,1867 5117,1873 5127,1873 5142,1867 5170,1871 5197,1871 5231,1862 5272,1855 5283,1856 5313,1876 5368,1898 5404,1878 5441,1846 5453,1845 5456,1898 5473,1918 5472,1937 5474,1947 5482,1957 5490,1976 5511,2005 5538,2052 5566,2082 5567,2089 5564,2101 5540,2122 5539,2131 5542,2137 5560,2150 5575,2167 5581,2171 5651,2205 5671,2231 5651,2228 5642,2222 5634,2222 5622,2223 5601,2217 5570,2219 5545,2232 5533,2235 5522,2242 5524,2255 5532,2270 5529,2277 5522,2274 5477,2260 5443,2261 5428,2270 5418,2282 5408,2288 5400,2289 5387,2287 5384,2270 5363,2266 5353,2266 5331,2277 5315,2302 5304,2304 5304,2312 5311,2320 5342,2343 5342,2355 5325,2367 5309,2369 5291,2366 5262,2365 5257,2366 5255,2376 5259,2424 5258,2462 5256,2484 5256,2490 5266,2498 5266,2508 5262,2528 5256,2543 5241,2566 5237,2581 5234,2589 5206,2604 5169,2603 5146,2615 5127,2636 5111,2644 5107,2654 5111,2666 5111,2688 5111,2691 5111,2700 5084,2696 5084,2690 5072,2689 5072,2676 5047,2675 5041,2670 4971,2671 4970,2641 4959,2614 4901,2613 4838,2615 4827,2609 4814,2597 4795,2584 4747,2556 4682,2530 4655,2532 4644,2531 4633,2525 4629,2517 4630,2504 4622,2496 4590,2477 4532,2461 4522,2457 4517,2451 4511,2428 4503,2415 4493,2413 4460,2427 4453,2441 4428,2459 4418,2473 4413,2484 4407,2490 4397,2492 4380,2489 4372,2481 4360,2463 4332,2448 4323,2445 4301,2443 4288,2439 4269,2437 4249,2428 4209,2403 4190,2386 4184,2372 4189,2362 4210,2348 4238,2341 4244,2334 4244,2318 4237,2272 4230,2267 4208,2259 4206,2253 4213,2242 4230,2227 4239,2222 4250,2228 4254,2229 4259,2227 4262,2226 4265,2225 4268,2224 4272,2222 4280,2216 4283,2214 4287,2212 4291,2209 4294,2207 4298,2206 4301,2204 4304,2203 4308,2202 4312,2200 4316,2200 4319,2199 4322,2198 4327,2196 4330,2195 4332,2194 4336,2193 4339,2191 4341,2188 4343,2186 4344,2183 4343,2177 4341,2173 4341,2171 4339,2168 4337,2165 4317,2148 4312,2142 4310,2139 4308,2137 4306,2134 4304,2131 4302,2128 4302,2124 4303,2118 4304,2114 4305,2111 4307,2108 4310,2106 4314,2101 4317,2101 4326,2099 4333,2099 4336,2098 4344,2100 4350,2101 4356,2102 4359,2101 4363,2101 4368,2104 4371,2106 4375,2107 4378,2109 4381,2110 4387,2111 4394,2109 4398,2108 4401,2107 4407,2101 4408,2098 4411,2093 4416,2088 4420,2086 4427,2087 4433,2090 4438,2092 4441,2093 4455,2092 4458,2092 4461,2091 4461,2086 4461,2083 4455,2080 4451,2079 4447,2078 4442,2074 4446,2070 4451,2068 4454,2065 4460,2060 4463,2057 4465,2052 4465,2048 4464,2044 4460,2038 4457,2034 4454,2031 4451,2027 4449,2022 4448,2017 4452,2015 4456,2016 4460,2017 4464,2018 4467,2018 4471,2019 4475,2020 4493,2020 4501,2017 4504,2016 4513,2009 4519,2006 4527,2004 4540,2004 4537,2030 4551,2031 4571,2026 4579,2017 4579,2005 4570,1992 4560,1981 4558,1972 4563,1963 4565,1953 4566,1925 4570,1899 4589,1862 4574,1840 4575,1827 4611,1806 4619,1808 4625,1817 4626,1827 4636,1829 4670,1799 4683,1792 4715,1756 4722,1753 4735,1740 4749,1732 4756,1732 4828,1788 " class="polyStyle" id="140108" style="fill:#fbe6ef"/>
<path d="" class="polyStyle" id="140311" style="fill:#ee8b94"/>
<path d="" class="polyStyle" id="610802" style="fill:#ee8b94"/>
<path d="" class="polyStyle" id="120116" style="fill:#f6f67b"/>
<path d="" class="polyStyle" id="130303" style="fill:#fbe6ef"/>
<path d="" class="polyStyle" id="140211" style="fill:#f6f67b"/>
<path d="" class="polyStyle" id="150207" style="fill:#fbe6ef"/>
<path d="" class="polyStyle" id="211403" style="fill:#f6f67b"/>
<path d="" class="polyStyle" id="150802" style="fill:#f8c67d"/>
<path d="" class="polyStyle" id="210112" style="fill:#ee8b94"/>
<path d="" class="polyStyle" id="230406" style="fill:#d4ecb2"/>
<path d="" class="polyStyle" id="110113" style="fill:#fbe6ef"/>
<path d="" class="polyStyle" id="341702" style="fill:#fbe6ef"/>
<path d="" class="polyStyle" id="420303" style="fill:#ee8b94"/>
<path d="" class="polyStyle" id="340702" style="fill:#d4ecb2"/>
<path d="" class="polyStyle" id="421002" style="fill:#f6f67b"/>
<path d="" class="polyStyle" id="420117" style="fill:#f6f67b"/>
<path d="" class="polyStyle" id="440904" style="fill:#f8c67d"/>
<path d="" class="polyStyle" id="460205" style="fill:#ee8b94"/>
<path d="" class="polyStyle" id="460202" style="fill:#f6f67b"/>
<path d="" class="polyStyle" id="460203" style="fill:#fbe6ef"/>
<path d="" class="polyStyle" id="420304" style="fill:#f6f67b"/>
<path d="" class="polyStyle" id="445302" style="fill:#ee8b94"/>
<path d="" class="polyStyle" id="410202" style="fill:#d4ecb2"/>
<path d="" class="polyStyle" id="440800" style="fill:#f6f67b"/>
<path d="" class="polyStyle" id="440900" style="fill:#ee8b94"/>
<path d="" class="polyStyle" id="340800" style="fill:#ee8b94"/>
<path d="" class="polyStyle" id="460200" style="fill:#f6f67b"/>
<path d="" class="polyStyle" id="460000" style="fill:#ee8b94"/>
<path d="" class="polyStyle" id="450500" style="fill:#ee8b94"/>
<path d="" class="polyStyle" id="450600" style="fill:#ee8b94"/>
<path d="" class="polyStyle" id="440400" style="fill:#f6f67b"/>
<path d="" class="polyStyle" id="441700" style="fill:#f6f67b"/>
<path d="" class="polyStyle" id="441500" style="fill:#f6f67b"/>
<path d="" class="polyStyle" id="350600" style="fill:#ee8b94"/>
<path d="" class="polyStyle" id="710000" style="fill:#f6f67b"/>
<path d="" class="polyStyle" id="510400" style="fill:#f6f67b"/>
<path d="" class="polyStyle" id="522600" style="fill:#fbe6ef"/>
<path d="" class="polyStyle" id="520500" style="fill:#ee8b94"/>
<path d="" class="polyStyle" id="431200" style="fill:#f6f67b"/>
<path d="" class="polyStyle" id="430600" style="fill:#f6f67b"/>
<path d="" class="polyStyle" id="511400" style="fill:#d4ecb2"/>
<path d="" class="polyStyle" id="421000" style="fill:#ee8b94"/>
<path d="" class="polyStyle" id="341700" style="fill:#f6f67b"/>
<path d="" class="polyStyle" id="420500" style="fill:#f6f67b"/>
<path d="" class="polyStyle" id="511300" style="fill:#f6f67b"/>
<path d="" class="polyStyle" id="420900" style="fill:#f6f67b"/>
<path d="" class="polyStyle" id="511700" style="fill:#ee8b94"/>
<path d="" class="polyStyle" id="420600" style="fill:#d4ecb2"/>
<path d="" class="polyStyle" id="411500" style="fill:#fbe6ef"/>
<path d="" class="polyStyle" id="510800" style="fill:#ee8b94"/>
<path d="" class="polyStyle" id="420300" style="fill:#fbe6ef"/>
<path d="" class="polyStyle" id="611000" style="fill:#ee8b94"/>
<path d="" class="polyStyle" id="620800" style="fill:#fbe6ef"/>
<path d="" class="polyStyle" id="370200" style="fill:#ee8b94"/>
<path d="" class="polyStyle" id="371000" style="fill:#f6f67b"/>
<path d="" class="polyStyle" id="370600" style="fill:#fbe6ef"/>
<path d="" class="polyStyle" id="120000" style="fill:#f6f67b"/>
<path d="" class="polyStyle" id="130200" style="fill:#ee8b94"/>
<path d="" class="polyStyle" id="130300" style="fill:#f6f67b"/>
<path d="" class="polyStyle" id="652900" style="fill:#fbe6ef"/>
<path d="" class="polyStyle" id="150500" style="fill:#d4ecb2"/>
<path d="" class="polyStyle" id="" style="fill:#d4ecb2"/>
<path d="" class="polyStyle" id="350500" style="fill:#fbe6ef"/>
<path d="" class="polyStyle" id="440400" style="fill:#f6f67b"/>
<path d="" class="polyStyle" id="421100" style="fill:#d4ecb2"/>
<path d="" class="polyStyle" id="420100" style="fill:#fbe6ef"/>
<path d="" class="polyStyle" id="532500" style="fill:#fbe6ef"/>
<path d="" class="polyStyle" id="654200" style="fill:#fbe6ef"/>
<path d="" class="polyStyle" id="210700" style="fill:#d4ecb2"/>
<path d="" class="polyStyle" id="522300" style="fill:#fbe6ef"/>
<path d="" class="polyStyle" id="" style="fill:#ee8b94"/>
<path d="" class="polyStyle" id="440400" style="fill:#f6f67b"/>
<path d="" class="polyStyle" id="620000" style="fill:#f6f67b"/>
<path d="" class="polyStyle" id="430000" style="fill:#fbe6ef"/>
<path d="" class="polyStyle" id="420000" style="fill:#ee8b94"/>
<path d="" class="polyStyle" id="410000" style="fill:#f6f67b"/>
<path d="" class="polyStyle" id="350000" style="fill:#fbe6ef"/>
<path d="" class="polyStyle" id="520000" style="fill:#f6f67b"/>
<path d="" class="polyStyle" id="" style="fill:#ee8b94"/>
</svg>
