<?xml version="1.0" encoding="UTF-8"?>
<!DOCTYPE svg PUBLIC "-//W3C//DTD SVG 1.1 Tiny//EN" "http://www.w3.org/Graphics/SVG/1.1/DTD/svg11-tiny.dtd">
<svg version="1.1" xmlns="http://www.w3.org/2000/svg" xmlns:xlink="http://www.w3.org/1999/xlink" width="100%" height="100%" viewBox="0,0,5624,4311">
<title>SVG</title>
<desc>Poligon Test</desc>
<style id="style_css_sheet" type="text/css">
.polyStyle{fill: #cccccc;stroke-width:0;fill-rule:evenodd;}
</style>
<circle cx="2460" cy="2197" r="200" stroke="black" stroke-width="1" fill="red" id="140322" name="盂县"/>
<circle cx="3533" cy="3604" r="200" stroke="black" stroke-width="1" fill="red" id="140321" position="33"name="平定县"/>
<circle cx="3414" cy="3377" r="200" stroke="black" stroke-width="1" fill="red" id="140302"position="3" name="城区"/>
<circle cx="3213" cy="3286" r="200" stroke="black" stroke-width="1" fill="red" id="140303" name="矿区"/>
<circle cx="3343" cy="2914" r="200" stroke="black" stroke-width="1" fill="red" id="140311" name="郊区"/>
<path d="" class="polyStyle" id="" style="fill:#ee8b94"/>
<path d="" class="polyStyle" id="623022" style="fill:#fbe6ef"/>
<path d="" class="polyStyle" id="211421" style="fill:#f6f67b"/>
<path d="" class="polyStyle" id="532524" style="fill:#ee8b94"/>
<path d="" class="polyStyle" id="440825" style="fill:#f6f67b"/>
<path d="" class="polyStyle" id="441721" style="fill:#f6f67b"/>
<path d="" class="polyStyle" id="450521" style="fill:#f6f67b"/>
<path d="" class="polyStyle" id="450123" style="fill:#fbe6ef"/>
<path d="" class="polyStyle" id="350624" style="fill:#f6f67b"/>
<path d="" class="polyStyle" id="" style="fill:#fbe6ef"/>
<path d="" class="polyStyle" id="451224" style="fill:#fbe6ef"/>
<path d="" class="polyStyle" id="350627" style="fill:#f6f67b"/>
<path d="" class="polyStyle" id="" style="fill:#f6f67b"/>
<path d="" class="polyStyle" id="350525" style="fill:#f6f67b"/>
<path d="" class="polyStyle" id="530124" style="fill:#ee8b94"/>
<path d="" class="polyStyle" id="522627" style="fill:#ee8b94"/>
<path d="" class="polyStyle" id="510421" style="fill:#fbe6ef"/>
<path d="" class="polyStyle" id="522623" style="fill:#d4ecb2"/>
<path d="" class="polyStyle" id="430321" style="fill:#d4ecb2"/>
<path d="" class="polyStyle" id="511129" style="fill:#d4ecb2"/>
<path d="" class="polyStyle" id="511423" style="fill:#ee8b94"/>
<path d="" class="polyStyle" id="421023" style="fill:#f6f67b"/>
<path d="" class="polyStyle" id="511724" style="fill:#f6f67b"/>
<path d="" class="polyStyle" id="420526" style="fill:#fbe6ef"/>
<path d="" class="polyStyle" id="511923" style="fill:#fbe6ef"/>
<path d="" class="polyStyle" id="420325" style="fill:#fbe6ef"/>
<path d="" class="polyStyle" id="511921" style="fill:#f6f67b"/>
<path d="" class="polyStyle" id="542525" style="fill:#f6f67b"/>
<path d="" class="polyStyle" id="611026" style="fill:#ee8b94"/>
<path d="" class="polyStyle" id="411023" style="fill:#fbe6ef"/>
<path d="" class="polyStyle" id="632323" style="fill:#f6f67b"/>
<path d="" class="polyStyle" id="140525" style="fill:#d4ecb2"/>
<path d="" class="polyStyle" id="410922" style="fill:#ee8b94"/>
<path d="" class="polyStyle" id="621027" style="fill:#ee8b94"/>
<path d="" class="polyStyle" id="130427" style="fill:#f6f67b"/>
<polygon points="4472,2077 4506,2087 4576,2133 4641,2196 4660,2221 4666,2233 4680,2257 4684,2271 4674,2287 4678,2295 4696,2305 4730,2315 4766,2327 4780,2333 4788,2355 4782,2369 4766,2381 4762,2395 4764,2413 4768,2429 4782,2441 4798,2457 4798,2485 4780,2499 4768,2507 4764,2523 4764,2559 4788,2569 4778,2601 4768,2609 4712,2615 4708,2621 4716,2631 4750,2659 4770,2671 4806,2671 4836,2669 4854,2673 4882,2699 4906,2717 4944,2783 4966,2813 4992,2833 5014,2853 5026,2871 5030,2883 5026,2895 5022,2905 5014,2921 5016,2947 5036,2985 5066,3007 5112,3019 5148,3041 5190,3093 5216,3141 5220,3153 5224,3187 5230,3213 5238,3229 5252,3227 5266,3221 5274,3229 5278,3245 5276,3269 5284,3299 5284,3307 5276,3313 5224,3329 5220,3327 5216,3333 5214,3341 5214,3351 5218,3375 5220,3379 5230,3447 5236,3453 5234,3459 5240,3497 5252,3521 5282,3539 5290,3539 5310,3535 5356,3531 5392,3529 5416,3533 5446,3545 5472,3563 5476,3567 5476,3571 5472,3579 5468,3585 5462,3587 5456,3597 5454,3611 5494,3631 5522,3645 5566,3663 5610,3683 5618,3695 5620,3717 5622,3801 5624,3827 5620,3849 5606,3865 5600,3867 5570,3877 5536,3881 5488,3887 5484,3887 5458,3891 5428,3907 5394,3945 5376,3969 5364,4001 5360,4045 5364,4053 5376,4061 5390,4067 5402,4067 5402,4074 5401,4079 5394,4088 5386,4098 5378,4103 5376,4110 5371,4123 5371,4136 5367,4152 5365,4165 5364,4178 5358,4195 5355,4204 5354,4211 5347,4216 5340,4220 5329,4225 5322,4227 5312,4227 5303,4226 5295,4223 5284,4220 5273,4222 5266,4223 5257,4222 5251,4219 5241,4214 5227,4206 5215,4193 5206,4185 5198,4176 5193,4170 5185,4165 5177,4160 5165,4155 5153,4150 5141,4143 5136,4135 5129,4127 5124,4120 5112,4112 5106,4108 5100,4104 5095,4102 5081,4103 5072,4105 5063,4107 5052,4106 5044,4106 5034,4102 5024,4095 5015,4089 5005,4084 4995,4080 4988,4079 4980,4081 4974,4083 4965,4083 4957,4083 4942,4082 4931,4081 4920,4078 4909,4074 4897,4071 4881,4071 4865,4070 4853,4071 4839,4074 4823,4081 4810,4082 4798,4084 4786,4088 4775,4092 4767,4096 4757,4102 4750,4107 4743,4115 4731,4128 4726,4134 4717,4139 4703,4144 4693,4148 4684,4151 4676,4155 4667,4160 4661,4166 4657,4175 4654,4180 4654,4186 4653,4197 4651,4202 4648,4206 4641,4207 4629,4208 4621,4206 4612,4206 4604,4207 4594,4209 4582,4218 4569,4220 4560,4224 4540,4227 4527,4229 4516,4228 4504,4229 4493,4230 4485,4231 4476,4233 4467,4238 4453,4247 4447,4249 4439,4249 4431,4246 4424,4242 4415,4237 4406,4235 4401,4238 4393,4244 4387,4249 4380,4252 4372,4254 4361,4254 4346,4252 4332,4250 4324,4251 4313,4254 4301,4259 4293,4263 4287,4268 4280,4273 4270,4277 4266,4282 4259,4283 4253,4283 4246,4281 4241,4274 4233,4264 4224,4254 4221,4245 4219,4234 4216,4228 4212,4220 4209,4215 4202,4209 4197,4205 4187,4202 4177,4202 4167,4202 4157,4202 4151,4200 4149,4196 4140,4192 4126,4191 4110,4188 4097,4186 4077,4184 4052,4182 4030,4184 4012,4185 3991,4188 3975,4189 3957,4191 3929,4195 3919,4198 3911,4200 3904,4205 3897,4210 3891,4215 3888,4220 3883,4229 3884,4236 3884,4244 3888,4250 3888,4256 3886,4260 3880,4264 3874,4268 3864,4269 3853,4271 3837,4271 3816,4274 3803,4275 3794,4275 3786,4278 3775,4287 3759,4302 3753,4308 3749,4309 3741,4310 3731,4308 3714,4306 3699,4302 3691,4303 3678,4304 3668,4307 3658,4310 3648,4310 3638,4311 3626,4309 3613,4306 3601,4301 3592,4297 3581,4292 3576,4285 3566,4277 3543,4255 3535,4243 3530,4234 3524,4227 3518,4219 3514,4213 3510,4209 3505,4204 3498,4201 3491,4200 3478,4200 3455,4203 3435,4204 3424,4208 3414,4213 3407,4219 3398,4225 3390,4232 3382,4232 3370,4234 3353,4233 3342,4234 3333,4238 3325,4248 3317,4258 3313,4261 3305,4265 3297,4264 3277,4257 3265,4255 3246,4251 3231,4250 3214,4250 3197,4250 3180,4254 3155,4253 3143,4256 3134,4257 3126,4257 3115,4254 3095,4243 3075,4233 3050,4223 3040,4218 3030,4216 3020,4212 3008,4208 2998,4201 2991,4192 2988,4181 2986,4170 2984,4146 2984,4137 2979,4134 2964,4132 2950,4137 2935,4141 2921,4147 2911,4148 2902,4144 2890,4140 2876,4144 2854,4146 2840,4148 2829,4147 2819,4144 2811,4137 2804,4129 2797,4119 2785,4102 2780,4093 2775,4089 2775,4080 2772,4069 2769,4057 2764,4048 2755,4040 2749,4031 2742,4023 2733,4020 2723,4017 2710,4019 2701,4020 2696,4017 2685,4003 2675,3991 2665,3983 2655,3971 2648,3960 2636,3947 2621,3933 2612,3924 2608,3918 2607,3912 2604,3902 2602,3892 2599,3882 2598,3876 2598,3872 2600,3868 2605,3863 2609,3860 2612,3852 2613,3840 2612,3828 2609,3816 2605,3800 2604,3793 2599,3783 2591,3772 2586,3763 2644,3722 2678,3689 2696,3669 2703,3668 2720,3671 2748,3671 2761,3668 2790,3657 2808,3637 2814,3623 2821,3590 2825,3580 2833,3535 2829,3509 2829,3498 2813,3460 2807,3437 2812,3423 2850,3408 2877,3408 2922,3411 2948,3403 2984,3413 2996,3429 2996,3469 3001,3492 3026,3503 3040,3512 3049,3513 3060,3509 3071,3510 3079,3514 3111,3522 3133,3535 3139,3542 3151,3550 3165,3556 3178,3550 3214,3522 3227,3520 3243,3522 3305,3507 3381,3491 3424,3490 3458,3497 3489,3513 3533,3518 3588,3523 3632,3520 3647,3523 3663,3517 3681,3464 3708,3418 3756,3405 3774,3384 3800,3365 3815,3363 3826,3334 3827,3301 3794,3282 3782,3256 3793,3239 3821,3212 3881,3199 3901,3175 3918,3141 3930,3082 3930,3064 3915,3044 3865,3028 3818,3003 3807,2976 3783,2933 3750,2902 3743,2898 3735,2889 3700,2860 3667,2805 3679,2783 3706,2775 3727,2757 3744,2730 3775,2701 3815,2702 3841,2700 3860,2692 3862,2678 3850,2643 3812,2626 3806,2615 3783,2615 3763,2615 3754,2612 3743,2599 3713,2598 3700,2592 3690,2597 3683,2593 3678,2587 3679,2580 3685,2576 3707,2576 3748,2554 3766,2550 3788,2557 3800,2559 3806,2555 3813,2556 3821,2556 3826,2552 3825,2538 3831,2528 3839,2529 3847,2537 3859,2544 3867,2540 3862,2518 3855,2512 3848,2508 3829,2507 3802,2497 3794,2485 3779,2440 3768,2396 3750,2375 3742,2370 3721,2369 3690,2361 3671,2354 3662,2353 3651,2354 3636,2359 3626,2357 3622,2349 3629,2334 3636,2327 3652,2297 3650,2230 3646,2197 3656,2176 3674,2181 3684,2183 3708,2180 3733,2192 3753,2193 3766,2197 3779,2196 3785,2190 3786,2181 3786,2176 3774,2165 3768,2161 3765,2151 3766,2145 3772,2140 3788,2137 3791,2134 3797,2125 3809,2115 3820,2110 3828,2109 3833,2114 3847,2117 3872,2118 3895,2120 3919,2114 3934,2111 3944,2111 3955,2116 3972,2121 3999,2124 4018,2129 4036,2134 4047,2140 4054,2146 4058,2156 4056,2170 4065,2178 4067,2186 4059,2202 4060,2210 4070,2220 4086,2217 4105,2215 4129,2215 4145,2218 4169,2226 4180,2234 4191,2240 4202,2241 4209,2235 4215,2226 4229,2213 4241,2202 4245,2199 4253,2195 4258,2193 4262,2190 4268,2187 4271,2184 4277,2181 4281,2178 4286,2176 4290,2174 4295,2174 4301,2172 4307,2173 4312,2172 4318,2170 4323,2167 4326,2163 4330,2160 4334,2157 4336,2152 4337,2148 4339,2144 4338,2139 4339,2135 4341,2130 4341,2126 4344,2121 4345,2117 4349,2115 4351,2111 4357,2108 4360,2104 4364,2101 4368,2099 4374,2099 4378,2095 4384,2094 4390,2094 4398,2091 4404,2090 4412,2088 4421,2085 4425,2084 4429,2082 4433,2080 4437,2078 4442,2075 4445,2073 4458,2067 4460,2067 " class="polyStyle" id="140321" style="fill:#d4ecb2"/>
<path d="" class="polyStyle" id="130121" style="fill:#ee8b94"/>
<path d="" class="polyStyle" id="610823" style="fill:#fbe6ef"/>
<path d="" class="polyStyle" id="130225" style="fill:#fbe6ef"/>
<path d="" class="polyStyle" id="130322" style="fill:#d4ecb2"/>
<path d="" class="polyStyle" id="653130" style="fill:#f6f67b"/>
<path d="" class="polyStyle" id="130822" style="fill:#fbe6ef"/>
<path d="" class="polyStyle" id="211221" style="fill:#f6f67b"/>
<path d="" class="polyStyle" id="210921" style="fill:#f6f67b"/>
<path d="" class="polyStyle" id="150223" style="fill:#f8c67d"/>
<path d="" class="polyStyle" id="220422" style="fill:#d4ecb2"/>
<path d="" class="polyStyle" id="340721" style="fill:#f6f67b"/>
<path d="" class="polyStyle" id="510824" style="fill:#d4ecb2"/>
<polygon points="2102,2778 2102,2775 2099,2773 2095,2768 2084,2761 2076,2751 2070,2747 2063,2740 2058,2736 2052,2727 2049,2722 2045,2716 2042,2711 2041,2708 2039,2704 2035,2702 2030,2701 2026,2701 2018,2702 2013,2699 2012,2692 2008,2682 2009,2675 2005,2670 2000,2668 1993,2669 1983,2673 1973,2681 1967,2684 1955,2686 1950,2685 1941,2682 1937,2678 1928,2676 1918,2676 1903,2682 1894,2682 1888,2682 1881,2681 1876,2676 1873,2668 1868,2658 1867,2651 1866,2645 1863,2636 1855,2634 1847,2632 1833,2630 1826,2623 1824,2620 1822,2617 1820,2612 1831,2590 1845,2548 1849,2535 1841,2523 1841,2507 1833,2500 1808,2490 1746,2493 1719,2486 1706,2469 1705,2461 1705,2447 1708,2426 1698,2409 1697,2395 1694,2386 1673,2382 1661,2371 1655,2363 1651,2353 1648,2348 1663,2334 1675,2321 1672,2307 1671,2296 1674,2291 1702,2252 1718,2233 1703,2211 1699,2206 1689,2181 1676,2179 1602,2182 1550,2167 1532,2165 1491,2163 1480,2170 1470,2189 1466,2202 1449,2210 1439,2219 1423,2232 1412,2238 1408,2242 1404,2250 1397,2274 1389,2286 1383,2301 1368,2323 1363,2329 1353,2340 1342,2344 1334,2345 1318,2344 1302,2349 1292,2351 1288,2351 1282,2343 1275,2337 1254,2337 1239,2339 1223,2347 1216,2350 1208,2355 1200,2360 1182,2366 1157,2367 1141,2365 1139,2356 1143,2348 1154,2341 1158,2333 1157,2324 1154,2319 1147,2313 1142,2309 1136,2306 1129,2302 1119,2302 1107,2302 1096,2297 1088,2285 1076,2268 1064,2255 1054,2244 1044,2233 1035,2223 1034,2220 1031,2214 1027,2211 1022,2209 1017,2208 1011,2208 1006,2209 1002,2211 995,2212 991,2215 988,2217 983,2220 979,2224 975,2228 972,2230 970,2235 964,2238 960,2243 956,2246 952,2249 948,2251 944,2254 941,2257 937,2260 933,2263 930,2266 926,2269 922,2271 917,2275 914,2277 911,2281 907,2284 904,2288 901,2293 898,2297 896,2302 895,2306 895,2310 895,2317 893,2332 884,2341 861,2341 819,2344 811,2340 792,2334 778,2338 772,2341 762,2342 744,2342 733,2341 732,2332 729,2314 729,2303 723,2305 708,2306 697,2303 686,2301 673,2298 657,2290 642,2277 628,2265 616,2255 613,2239 612,2229 611,2221 606,2213 580,2206 558,2204 546,2197 540,2196 514,2195 495,2198 481,2205 473,2209 466,2210 460,2197 414,2172 388,2156 381,2154 372,2146 368,2134 366,2127 364,2124 354,2124 349,2124 340,2118 322,2108 317,2107 305,2097 295,2091 287,2084 281,2077 264,2067 255,2060 246,2049 237,2038 227,2029 222,2027 214,2013 206,1994 206,1972 211,1956 212,1948 209,1937 209,1933 209,1929 208,1925 208,1921 205,1917 202,1913 198,1911 192,1911 187,1912 183,1913 177,1915 171,1917 166,1919 161,1920 157,1922 152,1923 145,1925 140,1927 136,1929 128,1930 124,1932 119,1933 114,1934 106,1937 102,1937 96,1937 91,1937 86,1935 81,1933 74,1932 70,1931 66,1929 64,1925 61,1920 59,1916 53,1910 50,1907 43,1906 40,1903 35,1904 30,1903 26,1901 21,1899 15,1892 14,1879 14,1867 12,1857 4,1846 0,1834 7,1814 8,1810 26,1804 45,1803 75,1821 85,1818 91,1809 96,1800 97,1768 97,1755 95,1747 83,1727 86,1720 89,1715 93,1713 98,1712 99,1709 101,1704 105,1699 106,1693 109,1689 113,1686 115,1682 121,1681 126,1681 131,1682 136,1682 142,1682 143,1678 142,1674 140,1670 137,1666 135,1662 132,1658 132,1654 134,1650 137,1646 140,1644 144,1640 148,1637 151,1635 153,1631 158,1627 161,1625 165,1620 169,1616 173,1614 177,1610 180,1604 183,1600 188,1595 191,1592 194,1588 194,1583 193,1579 191,1575 188,1571 185,1567 181,1563 183,1559 182,1555 186,1550 187,1545 188,1541 192,1537 197,1534 201,1531 206,1531 212,1529 221,1530 237,1518 250,1508 255,1496 259,1481 260,1469 264,1461 271,1456 282,1457 297,1454 319,1445 333,1433 344,1421 350,1412 366,1403 388,1392 405,1384 422,1376 439,1366 460,1354 478,1346 494,1348 510,1347 531,1344 534,1342 536,1339 540,1337 544,1333 550,1330 556,1328 559,1324 561,1319 564,1314 566,1297 568,1287 572,1276 576,1268 595,1266 610,1265 627,1258 640,1256 658,1243 661,1229 662,1225 674,1218 692,1212 705,1201 710,1188 712,1176 712,1167 712,1159 717,1148 720,1143 726,1136 730,1133 751,1130 764,1123 766,1116 764,1109 766,1098 775,1092 782,1087 792,1089 809,1088 828,1089 845,1086 855,1086 870,1082 877,1075 887,1070 896,1076 913,1082 929,1088 943,1087 959,1078 969,1067 974,1063 985,1056 995,1049 1008,1052 1023,1053 1037,1050 1055,1048 1073,1042 1083,1033 1084,1026 1088,1020 1098,1015 1108,1011 1119,1005 1150,981 1180,923 1181,895 1154,873 1117,844 1111,818 1115,813 1118,809 1123,807 1126,802 1130,799 1132,795 1136,791 1139,786 1140,783 1143,778 1146,772 1150,768 1151,764 1153,759 1153,754 1156,750 1157,743 1157,737 1156,730 1155,726 1153,721 1151,716 1149,711 1146,707 1144,702 1142,698 1139,695 1136,692 1133,687 1129,684 1126,682 1123,678 1122,675 1116,670 1114,666 1112,662 1110,658 1108,654 1106,650 1105,646 1104,641 1102,637 1101,632 1101,627 1099,623 1098,619 1098,615 1098,610 1099,606 1101,602 1102,598 1106,593 1108,588 1111,584 1115,581 1121,576 1127,563 1135,555 1141,545 1167,540 1205,550 1219,554 1232,554 1244,549 1255,545 1283,543 1310,540 1337,544 1375,544 1414,544 1432,532 1442,519 1459,511 1474,506 1479,489 1486,475 1491,462 1497,459 1518,457 1544,454 1569,451 1596,454 1620,458 1643,460 1668,457 1690,447 1706,438 1740,429 1763,412 1777,406 1790,402 1802,395 1810,381 1817,362 1823,353 1826,344 1818,332 1817,318 1822,306 1824,294 1826,289 1828,284 1847,277 1875,271 1905,265 1923,261 1937,246 1936,238 1939,229 1941,218 1948,210 1955,206 1973,201 1983,200 2008,200 2026,200 2042,185 2050,179 2061,165 2080,161 2098,157 2127,144 2152,136 2192,130 2220,133 2248,134 2270,131 2285,116 2295,110 2311,90 2323,81 2339,71 2356,68 2379,65 2400,60 2427,57 2443,41 2452,24 2463,8 2475,7 2494,2 2518,0 2539,2 2564,16 2586,32 2617,46 2636,54 2653,64 2662,69 2691,75 2715,82 2731,85 2757,93 2775,89 2802,82 2812,80 2832,79 2853,80 2868,76 2876,72 2893,57 2899,49 2905,41 2925,23 2933,17 2939,13 2958,16 2966,15 2980,22 2993,27 3006,26 3019,18 3033,10 3043,5 3056,3 3073,3 3089,9 3105,14 3122,23 3127,26 3127,32 3130,37 3134,41 3136,46 3140,53 3166,73 3186,109 3182,127 3176,149 3180,177 3204,213 3228,229 3308,277 3348,297 3356,307 3358,319 3354,327 3348,335 3340,337 3288,347 3258,359 3246,371 3238,423 3228,445 3222,463 3220,477 3214,489 3202,499 3188,499 3168,499 3148,495 3124,493 3098,507 3082,521 3066,559 3064,569 3056,627 3052,651 3040,677 3024,703 3020,709 3016,719 3018,733 3028,753 3070,823 3090,845 3096,849 3106,847 3124,839 3132,839 3140,843 3198,899 3214,937 3214,957 3192,979 3164,999 3138,1045 3118,1099 3122,1137 3116,1159 3106,1177 3100,1193 3104,1239 3110,1295 3116,1313 3124,1331 3138,1341 3198,1369 3210,1377 3218,1383 3220,1389 3222,1403 3224,1427 3226,1445 3230,1453 3236,1457 3244,1461 3262,1451 3274,1441 3286,1435 3326,1431 3378,1429 3400,1427 3442,1427 3470,1425 3498,1429 3502,1435 3516,1449 3530,1465 3558,1471 3608,1461 3648,1447 3654,1447 3662,1449 3820,1591 3824,1595 3844,1595 3864,1591 3878,1583 3914,1559 3924,1553 3940,1553 3968,1565 3982,1573 3988,1581 3986,1603 3988,1627 3988,1649 3992,1655 4006,1663 4016,1665 4058,1651 4068,1651 4096,1669 4102,1689 4096,1707 4026,1737 4012,1753 4032,1775 4044,1779 4058,1781 4198,1775 4240,1777 4262,1783 4268,1791 4272,1801 4278,1811 4300,1807 4314,1801 4366,1811 4378,1825 4388,1825 4396,1821 4414,1809 4428,1805 4484,1791 4524,1783 4540,1781 4560,1783 4576,1793 4580,1803 4546,1835 4538,1847 4552,1859 4572,1869 4572,1877 4568,1885 4562,1889 4544,1883 4510,1865 4502,1873 4502,1883 4508,1897 4520,1931 4516,1951 4510,1969 4484,1983 4478,1997 4462,2053 4460,2067 4458,2067 4445,2073 4442,2075 4437,2078 4433,2080 4429,2082 4425,2084 4421,2085 4412,2088 4404,2090 4398,2091 4390,2094 4384,2094 4378,2095 4374,2099 4368,2099 4364,2101 4360,2104 4357,2108 4351,2111 4349,2115 4345,2117 4344,2121 4341,2126 4341,2130 4339,2135 4338,2139 4339,2144 4337,2148 4336,2152 4334,2157 4330,2160 4326,2163 4323,2167 4318,2170 4312,2172 4307,2173 4301,2172 4295,2174 4290,2174 4286,2176 4281,2178 4277,2181 4271,2184 4268,2187 4262,2190 4258,2193 4253,2195 4245,2199 4241,2202 4229,2213 4215,2226 4209,2235 4202,2241 4191,2240 4180,2234 4169,2226 4145,2218 4129,2215 4105,2215 4086,2217 4070,2220 4060,2210 4059,2202 4067,2186 4065,2178 4056,2170 4058,2156 4054,2146 4047,2140 4036,2134 4018,2129 3999,2124 3972,2121 3955,2116 3944,2111 3934,2111 3919,2114 3895,2120 3872,2118 3847,2117 3833,2114 3828,2109 3820,2110 3809,2115 3797,2125 3791,2134 3788,2137 3772,2140 3766,2145 3765,2151 3768,2161 3774,2165 3786,2176 3786,2181 3785,2190 3779,2196 3766,2197 3753,2193 3733,2192 3708,2180 3684,2183 3674,2181 3656,2176 3631,2179 3619,2174 3609,2174 3557,2167 3546,2172 3536,2179 3526,2196 3513,2199 3505,2205 3505,2217 3508,2227 3508,2235 3471,2227 3439,2202 3433,2192 3417,2180 3406,2176 3393,2184 3375,2204 3364,2228 3370,2254 3364,2286 3344,2295 3329,2296 3323,2303 3302,2318 3296,2316 3270,2277 3262,2271 3250,2265 3230,2266 3215,2271 3190,2299 3175,2309 3143,2347 3133,2354 3121,2355 3079,2342 3068,2344 3037,2371 2998,2382 2971,2402 2967,2408 2956,2409 2948,2405 2937,2407 2928,2411 2922,2418 2917,2431 2915,2444 2915,2467 2928,2482 2941,2488 2956,2492 2958,2518 2964,2533 2979,2545 2971,2573 2976,2582 2992,2597 2987,2623 2983,2642 2979,2649 2972,2655 2963,2657 2934,2657 2920,2651 2899,2636 2900,2630 2919,2613 2889,2601 2880,2605 2872,2606 2861,2603 2845,2590 2826,2568 2812,2561 2797,2561 2767,2572 2751,2586 2745,2616 2746,2632 2739,2650 2721,2667 2706,2684 2702,2692 2708,2704 2735,2724 2735,2733 2723,2761 2718,2823 2714,2835 2702,2852 2683,2871 2668,2878 2651,2882 2634,2882 2620,2878 2604,2869 2597,2868 2559,2874 2490,2873 2470,2869 2458,2869 2381,2832 2373,2832 2354,2844 2342,2849 2333,2856 2322,2861 2302,2863 2291,2861 2279,2858 2268,2853 2244,2825 2232,2817 2208,2809 2184,2792 2170,2788 2163,2791 2130,2792 2122,2785 2108,2778 " class="polyStyle" id="140322" style="fill:#f6f67b"/>
<path d="" class="polyStyle" id="610324" style="fill:#f6f67b"/>
<path d="" class="polyStyle" id="530722" style="fill:#ee8b94"/>
<path d="" class="polyStyle" id="340823" style="fill:#d4ecb2"/>
<path d="" class="polyStyle" id="620825" style="fill:#d4ecb2"/>
<path d="" class="polyStyle" id="421125" style="fill:#ee8b94"/>
<path d="" class="polyStyle" id="210281" style="fill:#ee8b94"/>
<path d="" class="polyStyle" id="440883" style="fill:#f6f67b"/>
<path d="" class="polyStyle" id="469006" style="fill:#d4ecb2"/>
<path d="" class="polyStyle" id="469002" style="fill:#ee8b94"/>
<path d="" class="polyStyle" id="469005" style="fill:#fbe6ef"/>
<path d="" class="polyStyle" id="440882" style="fill:#ee8b94"/>
<path d="" class="polyStyle" id="450681" style="fill:#ee8b94"/>
<path d="" class="polyStyle" id="441581" style="fill:#d4ecb2"/>
<path d="" class="polyStyle" id="421087" style="fill:#ee8b94"/>
<path d="" class="polyStyle" id="420984" style="fill:#fbe6ef"/>
<path d="" class="polyStyle" id="420582" style="fill:#ee8b94"/>
<path d="" class="polyStyle" id="370282" style="fill:#f6f67b"/>
<path d="" class="polyStyle" id="371083" style="fill:#f6f67b"/>
<path d="" class="polyStyle" id="371082" style="fill:#fbe6ef"/>
<path d="" class="polyStyle" id="652801" style="fill:#f8c67d"/>
<path d="" class="polyStyle" id="654301" style="fill:#ee8b94"/>
<path d="" class="polyStyle" id="370687" style="fill:#ee8b94"/>
<path d="" class="polyStyle" id="371482" style="fill:#d4ecb2"/>
<path d="" class="polyStyle" id="421081" style="fill:#fbe6ef"/>
<path d="" class="polyStyle" id="429006" style="fill:#f6f67b"/>
<path d="" class="polyStyle" id="440982" style="fill:#d4ecb2"/>
<path d="" class="polyStyle" id="421181" style="fill:#d4ecb2"/>
<path d="" class="polyStyle" id="321181" style="fill:#d4ecb2"/>
<path d="" class="polyStyle" id="659007" style="fill:#ee8b94"/>
<path d="" class="polyStyle" id="652701" style="fill:#fbe6ef"/>
<path d="" class="polyStyle" id="210781" style="fill:#fbe6ef"/>
<path d="" class="polyStyle" id="460204" style="fill:#f6f67b"/>
<path d="" class="polyStyle" id="210211" style="fill:#f6f67b"/>
<path d="" class="polyStyle" id="450512" style="fill:#ee8b94"/>
<path d="" class="polyStyle" id="450602" style="fill:#fbe6ef"/>
<path d="" class="polyStyle" id="440404" style="fill:#ee8b94"/>
<path d="" class="polyStyle" id="440403" style="fill:#f6f67b"/>
<path d="" class="polyStyle" id="441502" style="fill:#f6f67b"/>
<path d="" class="polyStyle" id="431002" style="fill:#d4ecb2"/>
<path d="" class="polyStyle" id="500107" style="fill:#fbe6ef"/>
<path d="" class="polyStyle" id="430611" style="fill:#d4ecb2"/>
<path d="" class="polyStyle" id="511304" style="fill:#fbe6ef"/>
<path d="" class="polyStyle" id="340711" style="fill:#ee8b94"/>
<path d="" class="polyStyle" id="320118" style="fill:#f6f67b"/>
<path d="" class="polyStyle" id="510704" style="fill:#f6f67b"/>
<path d="" class="polyStyle" id="411502" style="fill:#ee8b94"/>
<path d="" class="polyStyle" id="320302" style="fill:#d4ecb2"/>
<polygon points="3264,3262 3286,3271 3321,3269 3357,3282 3412,3313 3445,3335 3479,3345 3502,3372 3516,3376 3527,3372 3528,3358 3536,3352 3551,3353 3577,3357 3631,3371 3655,3371 3665,3377 3663,3388 3643,3400 3594,3402 3577,3404 3570,3413 3564,3426 3537,3427 3527,3427 3508,3431 3493,3426 3450,3406 3411,3389 3379,3381 3365,3380 3360,3392 3367,3410 3398,3422 3394,3431 3377,3432 3340,3428 3306,3426 3293,3436 3270,3454 3239,3455 3235,3451 3251,3444 3259,3433 3264,3412 3264,3384 3240,3370 3208,3346 3203,3344 3215,3332 3243,3319 3250,3303 3251,3285 3243,3258 3239,3245 3245,3248 " class="polyStyle" id="140302" style="fill:#f6f67b"/>
<polygon points="3057,3067 3056,3071 3038,3078 3015,3093 2999,3125 2996,3156 2990,3173 2990,3188 2989,3198 3003,3212 3048,3235 3105,3247 3119,3247 3127,3236 3131,3218 3130,3206 3122,3202 3095,3201 3092,3194 3094,3183 3103,3182 3129,3178 3130,3169 3126,3154 3119,3131 3123,3118 3132,3117 3138,3139 3159,3179 3162,3194 3157,3208 3160,3220 3189,3235 3228,3239 3239,3245 3243,3258 3251,3285 3250,3303 3243,3319 3215,3332 3203,3344 3193,3341 3171,3337 3149,3327 3147,3302 3127,3295 3083,3285 3049,3280 3001,3261 2951,3253 2940,3234 2941,3216 2924,3194 2920,3173 2922,3166 2951,3163 2967,3156 2975,3128 2983,3101 2985,3074 2973,3071 2938,3068 2938,3057 2947,3053 2958,3053 2976,3053 3023,3051 3039,3055 " class="polyStyle" id="140303" style="fill:#fbe6ef"/>
<path d="M3609,2174 L3619,2174 L3631,2179 L3656,2176 L3646,2197 L3650,2230 L3652,2297 L3636,2327 L3629,2334 L3622,2349 L3626,2357 L3636,2359 L3651,2354 L3662,2353 L3671,2354 L3690,2361 L3721,2369 L3742,2370 L3750,2375 L3768,2396 L3779,2440 L3794,2485 L3802,2497 L3829,2507 L3848,2508 L3855,2512 L3862,2518 L3867,2540 L3859,2544 L3847,2537 L3839,2529 L3831,2528 L3825,2538 L3826,2552 L3821,2556 L3813,2556 L3806,2555 L3800,2559 L3788,2557 L3766,2550 L3748,2554 L3707,2576 L3685,2576 L3679,2580 L3678,2587 L3683,2593 L3690,2597 L3700,2592 L3713,2598 L3743,2599 L3754,2612 L3763,2615 L3783,2615 L3806,2615 L3812,2626 L3850,2643 L3862,2678 L3860,2692 L3841,2700 L3815,2702 L3775,2701 L3744,2730 L3727,2757 L3706,2775 L3679,2783 L3667,2805 L3700,2860 L3735,2889 L3743,2898 L3750,2902 L3783,2933 L3807,2976 L3818,3003 L3865,3028 L3915,3044 L3930,3064 L3930,3082 L3918,3141 L3901,3175 L3881,3199 L3821,3212 L3793,3239 L3782,3256 L3794,3282 L3827,3301 L3826,3334 L3815,3363 L3800,3365 L3774,3384 L3756,3405 L3708,3418 L3681,3464 L3663,3517 L3647,3523 L3632,3520 L3588,3523 L3533,3518 L3489,3513 L3458,3497 L3424,3490 L3381,3491 L3305,3507 L3243,3522 L3227,3520 L3214,3522 L3178,3550 L3165,3556 L3151,3550 L3139,3542 L3133,3535 L3111,3522 L3079,3514 L3071,3510 L3060,3509 L3049,3513 L3040,3512 L3026,3503 L3001,3492 L2996,3469 L2996,3429 L2984,3413 L2948,3403 L2922,3411 L2877,3408 L2850,3408 L2812,3423 L2807,3437 L2813,3460 L2829,3498 L2829,3509 L2833,3535 L2825,3580 L2821,3590 L2814,3623 L2808,3637 L2790,3657 L2761,3668 L2748,3671 L2720,3671 L2703,3668 L2696,3669 L2678,3689 L2644,3722 L2586,3763 L2580,3754 L2568,3745 L2546,3719 L2513,3702 L2500,3699 L2456,3671 L2449,3651 L2451,3644 L2443,3624 L2436,3620 L2433,3600 L2429,3594 L2401,3571 L2399,3563 L2399,3550 L2396,3538 L2398,3523 L2394,3506 L2388,3502 L2350,3495 L2329,3486 L2313,3482 L2278,3469 L2270,3461 L2258,3456 L2252,3448 L2245,3438 L2243,3425 L2244,3413 L2243,3402 L2226,3383 L2221,3374 L2215,3348 L2197,3309 L2185,3288 L2176,3263 L2164,3261 L2145,3261 L2127,3259 L2119,3254 L2119,3241 L2102,3220 L2091,3211 L2075,3179 L2068,3170 L2040,3141 L2034,3124 L2038,3116 L2041,3103 L2041,3087 L2033,3071 L2037,3048 L2037,3039 L2034,3031 L2033,3022 L2034,3013 L2028,3002 L2026,2995 L2027,2985 L2040,2961 L2052,2946 L2066,2889 L2085,2862 L2089,2852 L2091,2820 L2099,2803 L2102,2783 L2105,2781 L2108,2778 L2122,2785 L2130,2792 L2163,2791 L2170,2788 L2184,2792 L2208,2809 L2232,2817 L2244,2825 L2268,2853 L2279,2858 L2291,2861 L2302,2863 L2322,2861 L2333,2856 L2342,2849 L2354,2844 L2373,2832 L2381,2832 L2458,2869 L2470,2869 L2490,2873 L2559,2874 L2597,2868 L2604,2869 L2620,2878 L2634,2882 L2651,2882 L2668,2878 L2683,2871 L2702,2852 L2714,2835 L2718,2823 L2723,2761 L2735,2733 L2735,2724 L2708,2704 L2702,2692 L2706,2684 L2721,2667 L2739,2650 L2746,2632 L2745,2616 L2751,2586 L2767,2572 L2797,2561 L2812,2561 L2826,2568 L2845,2590 L2861,2603 L2872,2606 L2880,2605 L2889,2601 L2919,2613 L2900,2630 L2899,2636 L2920,2651 L2934,2657 L2963,2657 L2972,2655 L2979,2649 L2983,2642 L2987,2623 L2992,2597 L2976,2582 L2971,2573 L2979,2545 L2964,2533 L2958,2518 L2956,2492 L2941,2488 L2928,2482 L2915,2467 L2915,2444 L2917,2431 L2922,2418 L2928,2411 L2937,2407 L2948,2405 L2956,2409 L2967,2408 L2971,2402 L2998,2382 L3037,2371 L3068,2344 L3079,2342 L3121,2355 L3133,2354 L3143,2347 L3175,2309 L3190,2299 L3215,2271 L3230,2266 L3250,2265 L3262,2271 L3270,2277 L3296,2316 L3302,2318 L3323,2303 L3329,2296 L3344,2295 L3364,2286 L3370,2254 L3364,2228 L3375,2204 L3393,2184 L3406,2176 L3417,2180 L3433,2192 L3439,2202 L3471,2227 L3508,2235 L3508,2227 L3505,2217 L3505,2205 L3513,2199 L3526,2196 L3536,2179 L3546,2172 L3557,2167 L3609,2174z M2976,3053 L3023,3051 L3039,3055 L3057,3067 L3056,3071 L3038,3078 L3015,3093 L2999,3125 L2996,3156 L2990,3173 L2990,3188 L2989,3198 L3003,3212 L3048,3235 L3105,3247 L3119,3247 L3127,3236 L3131,3218 L3130,3206 L3122,3202 L3095,3201 L3092,3194 L3094,3183 L3103,3182 L3129,3178 L3130,3169 L3126,3154 L3119,3131 L3123,3118 L3132,3117 L3138,3139 L3159,3179 L3162,3194 L3157,3208 L3160,3220 L3189,3235 L3228,3239 L3239,3245 L3245,3248 L3264,3262 L3286,3271 L3321,3269 L3357,3282 L3412,3313 L3445,3335 L3479,3345 L3502,3372 L3516,3376 L3527,3372 L3528,3358 L3536,3352 L3551,3353 L3577,3357 L3631,3371 L3655,3371 L3665,3377 L3663,3388 L3643,3400 L3594,3402 L3577,3404 L3570,3413 L3564,3426 L3537,3427 L3527,3427 L3508,3431 L3493,3426 L3450,3406 L3411,3389 L3379,3381 L3365,3380 L3360,3392 L3367,3410 L3398,3422 L3394,3431 L3377,3432 L3340,3428 L3306,3426 L3293,3436 L3270,3454 L3239,3455 L3235,3451 L3251,3444 L3259,3433 L3264,3412 L3264,3384 L3240,3370 L3208,3346 L3203,3344 L3193,3341 L3171,3337 L3149,3327 L3147,3302 L3127,3295 L3083,3285 L3049,3280 L3001,3261 L2951,3253 L2940,3234 L2941,3216 L2924,3194 L2920,3173 L2922,3166 L2951,3163 L2967,3156 L2975,3128 L2983,3101 L2985,3074 L2973,3071 L2938,3068 L2938,3057 L2947,3053 L2958,3053 L2976,3053z " class="polyStyle" id="140311" style="fill:#ee8b94"/>
<path d="" class="polyStyle" id="610802" style="fill:#ee8b94"/>
<path d="" class="polyStyle" id="120116" style="fill:#f6f67b"/>
<path d="" class="polyStyle" id="130303" style="fill:#fbe6ef"/>
<path d="" class="polyStyle" id="140211" style="fill:#f6f67b"/>
<path d="" class="polyStyle" id="150207" style="fill:#fbe6ef"/>
<path d="" class="polyStyle" id="211403" style="fill:#f6f67b"/>
<path d="" class="polyStyle" id="150802" style="fill:#f8c67d"/>
<path d="" class="polyStyle" id="210112" style="fill:#ee8b94"/>
<path d="" class="polyStyle" id="230406" style="fill:#d4ecb2"/>
<path d="" class="polyStyle" id="110113" style="fill:#fbe6ef"/>
<path d="" class="polyStyle" id="341702" style="fill:#fbe6ef"/>
<path d="" class="polyStyle" id="420303" style="fill:#ee8b94"/>
<path d="" class="polyStyle" id="340702" style="fill:#d4ecb2"/>
<path d="" class="polyStyle" id="421002" style="fill:#f6f67b"/>
<path d="" class="polyStyle" id="420117" style="fill:#f6f67b"/>
<path d="" class="polyStyle" id="440904" style="fill:#f8c67d"/>
<path d="" class="polyStyle" id="460205" style="fill:#ee8b94"/>
<path d="" class="polyStyle" id="460202" style="fill:#f6f67b"/>
<path d="" class="polyStyle" id="460203" style="fill:#fbe6ef"/>
<path d="" class="polyStyle" id="420304" style="fill:#f6f67b"/>
<path d="" class="polyStyle" id="445302" style="fill:#ee8b94"/>
<path d="" class="polyStyle" id="410202" style="fill:#d4ecb2"/>
<path d="" class="polyStyle" id="440800" style="fill:#f6f67b"/>
<path d="" class="polyStyle" id="440900" style="fill:#ee8b94"/>
<path d="" class="polyStyle" id="340800" style="fill:#ee8b94"/>
<path d="" class="polyStyle" id="460200" style="fill:#f6f67b"/>
<path d="" class="polyStyle" id="460000" style="fill:#ee8b94"/>
<path d="" class="polyStyle" id="450500" style="fill:#ee8b94"/>
<path d="" class="polyStyle" id="450600" style="fill:#ee8b94"/>
<path d="" class="polyStyle" id="440400" style="fill:#f6f67b"/>
<path d="" class="polyStyle" id="441700" style="fill:#f6f67b"/>
<path d="" class="polyStyle" id="441500" style="fill:#f6f67b"/>
<path d="" class="polyStyle" id="350600" style="fill:#ee8b94"/>
<path d="" class="polyStyle" id="710000" style="fill:#f6f67b"/>
<path d="" class="polyStyle" id="510400" style="fill:#f6f67b"/>
<path d="" class="polyStyle" id="522600" style="fill:#fbe6ef"/>
<path d="" class="polyStyle" id="520500" style="fill:#ee8b94"/>
<path d="" class="polyStyle" id="431200" style="fill:#f6f67b"/>
<path d="" class="polyStyle" id="430600" style="fill:#f6f67b"/>
<path d="" class="polyStyle" id="511400" style="fill:#d4ecb2"/>
<path d="" class="polyStyle" id="421000" style="fill:#ee8b94"/>
<path d="" class="polyStyle" id="341700" style="fill:#f6f67b"/>
<path d="" class="polyStyle" id="420500" style="fill:#f6f67b"/>
<path d="" class="polyStyle" id="511300" style="fill:#f6f67b"/>
<path d="" class="polyStyle" id="420900" style="fill:#f6f67b"/>
<path d="" class="polyStyle" id="511700" style="fill:#ee8b94"/>
<path d="" class="polyStyle" id="420600" style="fill:#d4ecb2"/>
<path d="" class="polyStyle" id="411500" style="fill:#fbe6ef"/>
<path d="" class="polyStyle" id="510800" style="fill:#ee8b94"/>
<path d="" class="polyStyle" id="420300" style="fill:#fbe6ef"/>
<path d="" class="polyStyle" id="611000" style="fill:#ee8b94"/>
<path d="" class="polyStyle" id="620800" style="fill:#fbe6ef"/>
<path d="" class="polyStyle" id="370200" style="fill:#ee8b94"/>
<path d="" class="polyStyle" id="371000" style="fill:#f6f67b"/>
<path d="" class="polyStyle" id="370600" style="fill:#fbe6ef"/>
<path d="" class="polyStyle" id="120000" style="fill:#f6f67b"/>
<path d="" class="polyStyle" id="130200" style="fill:#ee8b94"/>
<path d="" class="polyStyle" id="130300" style="fill:#f6f67b"/>
<path d="" class="polyStyle" id="652900" style="fill:#fbe6ef"/>
<path d="" class="polyStyle" id="150500" style="fill:#d4ecb2"/>
<path d="" class="polyStyle" id="" style="fill:#d4ecb2"/>
<path d="" class="polyStyle" id="350500" style="fill:#fbe6ef"/>
<path d="" class="polyStyle" id="440400" style="fill:#f6f67b"/>
<path d="" class="polyStyle" id="421100" style="fill:#d4ecb2"/>
<path d="" class="polyStyle" id="420100" style="fill:#fbe6ef"/>
<path d="" class="polyStyle" id="532500" style="fill:#fbe6ef"/>
<path d="" class="polyStyle" id="654200" style="fill:#fbe6ef"/>
<path d="" class="polyStyle" id="210700" style="fill:#d4ecb2"/>
<path d="" class="polyStyle" id="522300" style="fill:#fbe6ef"/>
<path d="" class="polyStyle" id="" style="fill:#ee8b94"/>
<path d="" class="polyStyle" id="440400" style="fill:#f6f67b"/>
<path d="" class="polyStyle" id="620000" style="fill:#f6f67b"/>
<path d="" class="polyStyle" id="430000" style="fill:#fbe6ef"/>
<path d="" class="polyStyle" id="420000" style="fill:#ee8b94"/>
<path d="" class="polyStyle" id="410000" style="fill:#f6f67b"/>
<path d="" class="polyStyle" id="350000" style="fill:#fbe6ef"/>
<path d="" class="polyStyle" id="520000" style="fill:#f6f67b"/>
<path d="" class="polyStyle" id="" style="fill:#ee8b94"/>
</svg>
