<?xml version="1.0" encoding="UTF-8"?>
<!DOCTYPE svg PUBLIC "-//W3C//DTD SVG 1.1 Tiny//EN" "http://www.w3.org/Graphics/SVG/1.1/DTD/svg11-tiny.dtd">
<svg version="1.1" xmlns="http://www.w3.org/2000/svg" xmlns:xlink="http://www.w3.org/1999/xlink" width="100%" height="100%" viewBox="0,0,8367,6054">
<title>SVG</title>
<desc>Poligon Test</desc>
<style id="style_css_sheet" type="text/css">
.polyStyle{fill: #cccccc;stroke-width:0;fill-rule:evenodd;}
</style>
<circle cx="4678" cy="3903" r="200" stroke="black" stroke-width="1" fill="red" id="140621" name="山阴县"/>
<circle cx="6470" cy="3666" r="200" stroke="black" stroke-width="1" fill="red" id="140622" name="应县"/>
<circle cx="6033" cy="2357" r="200" stroke="black" stroke-width="1" fill="red" id="140624" name="怀仁县"/>
<circle cx="2823" cy="1555" r="200" stroke="black" stroke-width="1" fill="red" id="140623" name="右玉县"/>
<circle cx="2673" cy="4919" r="200" stroke="black" stroke-width="1" fill="red" id="140602" name="朔城区"/>
<circle cx="1962" cy="3865" r="200" stroke="black" stroke-width="1" fill="red" id="140603" name="平鲁区"/>
<path d="" class="polyStyle" id="" style="fill:#ee8b94"/>
<path d="" class="polyStyle" id="623022" style="fill:#fbe6ef"/>
<path d="" class="polyStyle" id="211421" style="fill:#f6f67b"/>
<path d="" class="polyStyle" id="532524" style="fill:#ee8b94"/>
<path d="" class="polyStyle" id="440825" style="fill:#f6f67b"/>
<path d="" class="polyStyle" id="441721" style="fill:#f6f67b"/>
<path d="" class="polyStyle" id="450521" style="fill:#f6f67b"/>
<path d="" class="polyStyle" id="450123" style="fill:#fbe6ef"/>
<path d="" class="polyStyle" id="350624" style="fill:#f6f67b"/>
<path d="" class="polyStyle" id="" style="fill:#fbe6ef"/>
<path d="" class="polyStyle" id="451224" style="fill:#fbe6ef"/>
<path d="" class="polyStyle" id="350627" style="fill:#f6f67b"/>
<path d="" class="polyStyle" id="" style="fill:#f6f67b"/>
<path d="" class="polyStyle" id="350525" style="fill:#f6f67b"/>
<path d="" class="polyStyle" id="530124" style="fill:#ee8b94"/>
<path d="" class="polyStyle" id="522627" style="fill:#ee8b94"/>
<path d="" class="polyStyle" id="510421" style="fill:#fbe6ef"/>
<path d="" class="polyStyle" id="522623" style="fill:#d4ecb2"/>
<path d="" class="polyStyle" id="430321" style="fill:#d4ecb2"/>
<path d="" class="polyStyle" id="511129" style="fill:#d4ecb2"/>
<path d="" class="polyStyle" id="511423" style="fill:#ee8b94"/>
<path d="" class="polyStyle" id="421023" style="fill:#f6f67b"/>
<path d="" class="polyStyle" id="511724" style="fill:#f6f67b"/>
<path d="" class="polyStyle" id="420526" style="fill:#fbe6ef"/>
<path d="" class="polyStyle" id="511923" style="fill:#fbe6ef"/>
<path d="" class="polyStyle" id="420325" style="fill:#fbe6ef"/>
<path d="" class="polyStyle" id="511921" style="fill:#f6f67b"/>
<path d="" class="polyStyle" id="542525" style="fill:#f6f67b"/>
<path d="" class="polyStyle" id="611026" style="fill:#ee8b94"/>
<path d="" class="polyStyle" id="411023" style="fill:#fbe6ef"/>
<path d="" class="polyStyle" id="632323" style="fill:#f6f67b"/>
<path d="" class="polyStyle" id="140525" style="fill:#d4ecb2"/>
<path d="" class="polyStyle" id="410922" style="fill:#ee8b94"/>
<path d="" class="polyStyle" id="621027" style="fill:#ee8b94"/>
<path d="" class="polyStyle" id="130427" style="fill:#f6f67b"/>
<path d="" class="polyStyle" id="130121" style="fill:#ee8b94"/>
<path d="" class="polyStyle" id="610823" style="fill:#fbe6ef"/>
<path d="" class="polyStyle" id="130225" style="fill:#fbe6ef"/>
<polygon points="6406,2828 6411,2828 6416,2829 6422,2829 6428,2831 6433,2831 6438,2833 6443,2836 6449,2837 6454,2838 6459,2841 6465,2842 6470,2844 6476,2845 6481,2847 6486,2849 6493,2849 6497,2851 6503,2852 6508,2853 6514,2855 6519,2857 6525,2858 6530,2860 6534,2863 6539,2866 6544,2868 6549,2870 6554,2873 6559,2876 6563,2879 6568,2881 6572,2884 6576,2887 6580,2890 6585,2893 6590,2896 6593,2899 6598,2902 6603,2905 6608,2906 6612,2909 6618,2911 6622,2914 6628,2915 6631,2918 6636,2919 6642,2921 6647,2923 6652,2924 6657,2926 6662,2928 6667,2929 6672,2932 6676,2935 6681,2938 6685,2941 6689,2944 6691,2948 6696,2952 6698,2956 6701,2959 6705,2962 6709,2966 6713,2969 6718,2971 6723,2974 6728,2976 6733,2978 6738,2981 6742,2983 6747,2986 6752,2988 6757,2990 6762,2993 6766,2997 6770,3000 6775,3001 6780,3004 6785,3005 6791,3006 6797,3007 6802,3010 6807,3011 6813,3011 6819,3010 6824,3011 6830,3011 6836,3011 6842,3011 6848,3011 6854,3011 6859,3011 6865,3009 6871,3009 6876,3009 6883,3009 6888,3009 6894,3009 6900,3010 6906,3011 6911,3014 6915,3016 6919,3019 6923,3023 6928,3025 6933,3028 6938,3029 6944,3031 6948,3034 6953,3036 6959,3038 6964,3039 6969,3040 6975,3042 6981,3043 6986,3044 6992,3044 6998,3044 7004,3045 7010,3045 7015,3046 7021,3048 7027,3049 7032,3049 7038,3051 7044,3052 7049,3052 7055,3052 7061,3052 7067,3052 7073,3052 7078,3052 7082,3054 7086,3054 7092,3054 7097,3053 7106,3052 7111,3051 7115,3049 7122,3048 7127,3046 7134,3044 7138,3042 7145,3040 7150,3038 7155,3036 7160,3034 7165,3033 7170,3031 7175,3029 7180,3028 7189,3024 7193,3021 7197,3019 7202,3017 7208,3013 7213,3011 7217,3009 7221,3007 7229,3004 7235,3000 7237,2996 7242,2993 7246,2991 7251,2988 7256,2987 7262,2987 7268,2986 7273,2984 7279,2984 7285,2985 7291,2985 7297,2985 7303,2986 7308,2987 7314,2988 7318,2990 7323,2993 7328,2996 7331,3000 7337,3002 7341,3005 7345,3007 7352,3007 7357,3007 7363,3006 7369,3005 7374,3004 7380,3002 7386,3002 7391,3004 7397,3004 7403,3004 7409,3004 7414,3006 7420,3007 7425,3007 7431,3009 7436,3011 7442,3011 7448,3013 7453,3014 7458,3016 7464,3017 7470,3017 7477,3016 7478,3020 7479,3023 7490,3037 7492,3044 7490,3051 7473,3053 7447,3062 7443,3064 7439,3068 7435,3071 7433,3075 7433,3080 7431,3083 7429,3087 7428,3092 7422,3099 7428,3112 7434,3128 7452,3139 7469,3153 7472,3159 7472,3163 7469,3167 7468,3171 7464,3174 7461,3178 7459,3183 7455,3186 7452,3190 7448,3193 7444,3196 7442,3200 7439,3204 7435,3207 7431,3211 7429,3215 7426,3219 7422,3222 7418,3225 7415,3229 7411,3232 7407,3235 7404,3239 7402,3244 7401,3248 7404,3252 7407,3256 7411,3259 7414,3263 7414,3266 7434,3283 7478,3315 7496,3340 7500,3345 7503,3349 7505,3353 7507,3357 7510,3362 7511,3366 7512,3370 7513,3375 7514,3379 7516,3383 7517,3387 7522,3390 7525,3393 7529,3397 7533,3400 7537,3404 7540,3407 7545,3410 7550,3411 7554,3414 7560,3416 7563,3417 7566,3419 7571,3419 7576,3423 7581,3426 7585,3430 7590,3433 7596,3435 7600,3438 7604,3441 7608,3444 7612,3446 7617,3448 7621,3451 7627,3454 7630,3456 7634,3459 7638,3462 7642,3464 7644,3467 7646,3471 7649,3476 7650,3480 7651,3484 7651,3488 7651,3492 7651,3496 7652,3500 7650,3503 7650,3507 7651,3511 7648,3515 7648,3520 7645,3523 7642,3527 7639,3531 7637,3535 7634,3538 7631,3542 7627,3546 7623,3549 7619,3552 7616,3556 7614,3560 7611,3564 7609,3568 7606,3572 7606,3577 7605,3581 7606,3586 7606,3590 7608,3594 7610,3599 7613,3603 7615,3607 7618,3611 7622,3614 7627,3616 7632,3618 7638,3618 7643,3616 7649,3616 7654,3613 7657,3610 7662,3607 7667,3605 7672,3603 7677,3601 7683,3599 7688,3598 7694,3597 7699,3595 7705,3594 7711,3593 7716,3592 7722,3591 7728,3590 7733,3589 7739,3588 7745,3587 7750,3587 7756,3587 7762,3589 7767,3590 7770,3594 7774,3597 7776,3601 7779,3605 7782,3609 7785,3612 7789,3616 7792,3619 7793,3624 7794,3628 7796,3632 7797,3637 7798,3642 7800,3645 7801,3650 7803,3654 7804,3658 7806,3662 7806,3667 7808,3671 7810,3675 7812,3680 7815,3683 7817,3688 7819,3692 7821,3696 7824,3700 7827,3704 7831,3707 7835,3711 7838,3714 7843,3717 7847,3720 7851,3723 7855,3727 7859,3730 7865,3732 7869,3734 7875,3736 7879,3738 7884,3741 7889,3744 7893,3747 7897,3750 7902,3753 7906,3756 7910,3759 7914,3762 7919,3765 7922,3768 7926,3772 7930,3775 7934,3778 7939,3780 7943,3784 7947,3787 7952,3790 7955,3793 7960,3796 7964,3800 7967,3803 7971,3807 7976,3809 7979,3812 8002,3827 8035,3862 8041,3869 8075,3880 8080,3883 8085,3886 8089,3889 8092,3892 8088,3908 8069,3919 8067,3926 8067,3943 8064,3948 8060,3952 8058,3956 8057,3960 8055,3964 8055,3968 8055,3971 8061,3988 8058,3997 8053,4004 8053,4007 8053,4011 8053,4016 8053,4021 8050,4024 8051,4029 8050,4033 8049,4038 8050,4042 8051,4046 8051,4051 8052,4056 8054,4059 8056,4064 8059,4067 8062,4071 8065,4075 8069,4079 8073,4081 8078,4084 8083,4086 8086,4090 8090,4092 8096,4094 8100,4097 8105,4100 8110,4102 8114,4104 8119,4107 8124,4109 8129,4111 8134,4114 8138,4117 8143,4120 8148,4122 8149,4126 8154,4129 8157,4133 8160,4137 8164,4140 8169,4143 8173,4146 8177,4149 8181,4152 8186,4155 8189,4159 8193,4162 8198,4165 8202,4168 8206,4171 8210,4175 8214,4178 8218,4180 8223,4183 8227,4187 8230,4190 8235,4192 8239,4195 8244,4198 8248,4202 8252,4205 8256,4208 8260,4211 8264,4214 8269,4218 8272,4221 8276,4224 8281,4227 8284,4231 8288,4233 8293,4236 8298,4239 8302,4242 8306,4245 8308,4249 8312,4252 8316,4256 8320,4259 8324,4262 8327,4266 8331,4269 8336,4272 8340,4276 8362,4286 8366,4291 8367,4296 8362,4303 8359,4304 8349,4314 8345,4317 8340,4319 8335,4321 8330,4321 8324,4324 8319,4326 8314,4328 8311,4331 8309,4335 8306,4340 8305,4344 8305,4349 8305,4353 8305,4358 8304,4362 8304,4366 8304,4371 8304,4376 8304,4380 8304,4384 8305,4389 8305,4393 8306,4398 8306,4402 8306,4407 8305,4411 8303,4416 8302,4420 8299,4424 8297,4428 8295,4432 8293,4436 8293,4440 8293,4445 8293,4449 8294,4454 8297,4458 8300,4462 8302,4466 8305,4469 8306,4474 8307,4478 8309,4483 8309,4487 8309,4492 8310,4496 8309,4500 8308,4505 8307,4510 8304,4513 8301,4517 8297,4519 8292,4522 8286,4523 8280,4524 8275,4525 8269,4525 8263,4525 8258,4525 8252,4525 8246,4527 8241,4527 8235,4526 8229,4527 8224,4527 8218,4528 8212,4529 8209,4533 8205,4536 8200,4538 8197,4542 8196,4547 8195,4551 8194,4556 8193,4560 8191,4564 8189,4568 8186,4572 8185,4576 8183,4580 8180,4584 8179,4589 8178,4593 8176,4597 8174,4601 8174,4606 8171,4610 8169,4614 8166,4618 8163,4621 8159,4624 8154,4627 8149,4629 8145,4632 8140,4635 8137,4639 8131,4641 8129,4645 8124,4647 8121,4651 8118,4655 8116,4659 8115,4663 8112,4668 8109,4671 8107,4675 8106,4680 8103,4684 8100,4688 8100,4692 8099,4697 8097,4701 8097,4705 8095,4709 8094,4714 8093,4718 8091,4722 8089,4726 8085,4729 8083,4734 8079,4736 8076,4740 8072,4743 8067,4745 8062,4748 8057,4751 8052,4753 8048,4756 8042,4758 8037,4759 8032,4762 8027,4763 8021,4764 8015,4765 8010,4766 8004,4768 7999,4769 7993,4769 7987,4768 7982,4770 7976,4770 7970,4770 7965,4770 7959,4769 7953,4769 7947,4769 7942,4770 7937,4772 7931,4773 7926,4776 7921,4778 7916,4780 7911,4782 7906,4785 7901,4787 7897,4790 7891,4792 7886,4793 7880,4794 7875,4795 7869,4795 7863,4794 7858,4796 7852,4796 7846,4797 7840,4797 7835,4797 7829,4797 7823,4797 7817,4797 7811,4797 7806,4797 7800,4796 7794,4796 7789,4797 7783,4798 7777,4799 7773,4801 7767,4803 7763,4807 7759,4810 7757,4814 7755,4818 7754,4822 7753,4827 7752,4831 7752,4835 7750,4840 7750,4844 7750,4849 7750,4853 7751,4858 7751,4862 7752,4866 7753,4871 7755,4875 7756,4880 7757,4884 7757,4888 7753,4892 7748,4895 7743,4895 7737,4895 7731,4895 7725,4895 7720,4893 7715,4891 7710,4890 7705,4887 7700,4884 7696,4882 7693,4878 7689,4875 7686,4871 7682,4868 7678,4864 7674,4862 7669,4859 7664,4856 7661,4853 7656,4850 7651,4849 7645,4846 7641,4844 7636,4842 7631,4839 7626,4838 7620,4836 7614,4835 7609,4835 7603,4837 7599,4840 7595,4843 7591,4846 7590,4851 7590,4855 7589,4859 7588,4864 7588,4869 7588,4873 7586,4877 7584,4881 7581,4886 7579,4890 7576,4893 7573,4897 7567,4899 7562,4901 7559,4904 7554,4907 7549,4910 7544,4912 7539,4914 7533,4914 7528,4916 7522,4918 7517,4919 7511,4921 7506,4923 7500,4923 7496,4924 7490,4926 7486,4929 7482,4931 7478,4935 7476,4939 7474,4943 7473,4948 7471,4952 7469,4956 7468,4961 7466,4965 7463,4969 7462,4973 7459,4977 7457,4981 7454,4985 7450,4989 7446,4991 7440,4992 7435,4993 7429,4992 7423,4992 7418,4990 7412,4990 7408,4986 7403,4983 7398,4982 7393,4980 7388,4978 7383,4976 7377,4974 7371,4973 7367,4971 7362,4968 7357,4965 7352,4963 7349,4959 7345,4957 7341,4954 7337,4951 7335,4947 7332,4943 7331,4939 7328,4935 7325,4931 7323,4927 7322,4923 7318,4920 7312,4918 7307,4917 7301,4917 7295,4917 7290,4917 7284,4915 7279,4913 7274,4911 7269,4908 7265,4906 7260,4903 7255,4901 7249,4903 7244,4903 7239,4906 7237,4910 7233,4914 7229,4917 7226,4921 7221,4924 7217,4926 7213,4929 7208,4931 7204,4935 7200,4937 7194,4938 7188,4938 7182,4938 7177,4936 7173,4933 7169,4930 7164,4928 7159,4926 7154,4923 7148,4921 7144,4919 7138,4918 7133,4916 7128,4913 7124,4911 7119,4908 7115,4905 7110,4903 7106,4900 7101,4897 7096,4895 7090,4893 7085,4893 7079,4894 7073,4895 7069,4898 7066,4901 7059,4903 7055,4904 7049,4906 7043,4906 7038,4907 7032,4907 7026,4907 7020,4906 7014,4906 7009,4906 7003,4905 6997,4905 6991,4905 6986,4904 6979,4904 6974,4904 6968,4904 6962,4905 6957,4906 6951,4907 6947,4911 6944,4914 6938,4916 6933,4918 6928,4921 6923,4923 6918,4925 6914,4928 6908,4929 6903,4931 6898,4934 6893,4935 6887,4936 6882,4938 6876,4939 6871,4939 6865,4941 6859,4942 6854,4942 6848,4942 6842,4941 6837,4939 6833,4935 6828,4933 6824,4931 6820,4928 6815,4924 6810,4924 6805,4921 6799,4921 6793,4921 6787,4921 6782,4921 6776,4923 6770,4922 6765,4923 6759,4923 6753,4924 6748,4926 6743,4928 6738,4930 6732,4931 6728,4934 6723,4936 6717,4937 6712,4939 6707,4942 6702,4944 6697,4945 6692,4948 6687,4950 6682,4952 6679,4955 6673,4956 6669,4959 6664,4962 6659,4964 6654,4967 6649,4969 6644,4970 6639,4972 6635,4975 6630,4978 6624,4980 6619,4982 6614,4984 6609,4985 6603,4986 6597,4986 6592,4987 6586,4988 6581,4989 6575,4990 6569,4991 6564,4993 6559,4995 6554,4997 6548,4997 6542,4999 6537,5000 6532,5002 6526,5004 6521,5004 6515,5005 6510,5006 6504,5008 6498,5009 6493,5010 6487,5008 6481,5008 6476,5008 6470,5008 6464,5008 6459,5007 6454,5005 6449,5003 6445,5000 6440,4997 6435,4995 6430,4993 6424,4991 6419,4990 6411,4986 6400,4983 6396,4980 6390,4979 6385,4978 6379,4978 6373,4977 6367,4977 6362,4977 6355,4976 6350,4975 6345,4973 6340,4971 6334,4971 6329,4969 6324,4968 6318,4967 6312,4966 6307,4965 6301,4964 6297,4962 6291,4960 6286,4959 6281,4956 6277,4953 6273,4949 6269,4946 6267,4942 6265,4938 6262,4934 6261,4929 6261,4924 6258,4921 6258,4917 6255,4913 6252,4909 6248,4906 6245,4902 6241,4898 6238,4895 6234,4891 6230,4889 6224,4887 6220,4883 6216,4880 6211,4878 6206,4877 6200,4875 6196,4872 6190,4871 6184,4869 6179,4868 6173,4867 6169,4865 6164,4862 6159,4859 6155,4856 6151,4853 6147,4849 6144,4846 6144,4841 6143,4837 6142,4832 6142,4828 6143,4824 6145,4819 6146,4815 6148,4811 6150,4807 6149,4802 6151,4797 6153,4793 6156,4790 6158,4785 6158,4781 6159,4776 6160,4772 6160,4768 6161,4763 6159,4759 6155,4756 6152,4752 6147,4750 6143,4747 6139,4743 6135,4740 6130,4738 6124,4736 6121,4733 6116,4729 6112,4727 6107,4724 6104,4721 6099,4718 6096,4714 6092,4711 6089,4707 6084,4704 6080,4702 6076,4698 6072,4696 6067,4693 6062,4691 6057,4690 6051,4689 6045,4689 6040,4688 6034,4688 6028,4689 6022,4689 6016,4689 6011,4689 6005,4687 6000,4687 5994,4687 5989,4685 5983,4684 5977,4684 5971,4686 5966,4687 5961,4689 5955,4690 5950,4692 5947,4695 5943,4699 5942,4703 5940,4707 5938,4711 5938,4716 5934,4719 5928,4721 5923,4721 5917,4719 5913,4721 5908,4724 5903,4726 5899,4729 5893,4730 5889,4728 5887,4722 5886,4704 5879,4687 5873,4683 5865,4672 5857,4666 5812,4645 5805,4644 5787,4637 5753,4617 5745,4607 5744,4599 5732,4575 5720,4572 5711,4562 5700,4496 5693,4467 5676,4454 5635,4442 5614,4442 5598,4432 5597,4418 5608,4407 5621,4398 5627,4387 5630,4375 5637,4358 5699,4346 5704,4338 5678,4309 5677,4255 5676,4246 5673,4240 5680,4236 5685,4229 5682,4216 5673,4199 5671,4192 5692,4181 5707,4167 5703,4128 5697,4130 5664,4159 5658,4159 5652,4149 5648,4128 5642,4124 5601,4129 5577,4121 5569,4114 5559,4098 5557,4080 5548,4045 5541,4039 5515,4028 5507,4022 5500,4014 5471,3967 5459,3953 5429,3907 5427,3900 5433,3884 5438,3876 5444,3870 5466,3830 5459,3825 5436,3815 5389,3802 5386,3796 5388,3787 5385,3779 5376,3774 5348,3769 5338,3763 5333,3756 5336,3748 5345,3742 5382,3730 5390,3723 5391,3714 5391,3705 5385,3688 5379,3662 5378,3644 5371,3590 5368,3582 5368,3573 5363,3564 5362,3556 5356,3541 5355,3522 5352,3513 5324,3486 5318,3477 5286,3444 5299,3439 5304,3437 5309,3435 5314,3432 5319,3431 5325,3430 5331,3429 5336,3428 5342,3428 5346,3429 5352,3428 5358,3428 5363,3428 5369,3428 5375,3426 5380,3426 5386,3426 5392,3425 5398,3425 5404,3425 5410,3425 5415,3424 5421,3422 5426,3421 5431,3419 5437,3418 5442,3416 5446,3413 5450,3409 5455,3407 5459,3403 5462,3400 5464,3395 5466,3391 5469,3387 5472,3383 5473,3379 5476,3375 5481,3373 5482,3368 5485,3364 5488,3361 5490,3356 5494,3353 5497,3349 5500,3345 5504,3342 5507,3338 5509,3334 5512,3330 5514,3326 5515,3321 5518,3318 5521,3314 5523,3310 5525,3305 5527,3301 5529,3297 5531,3293 5533,3289 5538,3286 5538,3281 5540,3277 5542,3273 5545,3269 5549,3266 5553,3263 5556,3259 5561,3257 5565,3254 5570,3252 5576,3251 5582,3251 5587,3252 5593,3253 5598,3255 5604,3256 5610,3256 5616,3256 5621,3259 5626,3259 5631,3257 5638,3257 5643,3256 5648,3253 5652,3250 5655,3246 5658,3242 5660,3238 5662,3234 5664,3230 5666,3225 5669,3221 5669,3217 5671,3213 5674,3209 5677,3205 5680,3201 5683,3197 5686,3193 5690,3191 5694,3187 5698,3184 5702,3181 5707,3178 5711,3175 5715,3172 5718,3168 5722,3164 5725,3161 5730,3158 5735,3156 5740,3154 5745,3152 5750,3150 5755,3149 5762,3149 5767,3148 5773,3147 5779,3148 5784,3148 5790,3148 5796,3148 5802,3148 5808,3148 5814,3148 5819,3147 5825,3146 5831,3146 5837,3145 5842,3145 5848,3145 5854,3144 5859,3144 5865,3143 5871,3142 5876,3141 5882,3139 5887,3138 5891,3135 5896,3132 5898,3128 5902,3125 5905,3121 5909,3118 5912,3114 5915,3110 5918,3106 5922,3103 5924,3099 5928,3095 5932,3092 5936,3088 5938,3084 5943,3081 5946,3078 5949,3074 5954,3071 5957,3067 5961,3064 5965,3061 5969,3057 5973,3054 5977,3051 5981,3048 5984,3044 5988,3041 5993,3038 5997,3035 6002,3032 6007,3030 6012,3028 6017,3025 6022,3023 6027,3021 6032,3018 6037,3018 6042,3016 6048,3014 6054,3014 6059,3014 6065,3014 6071,3014 6077,3014 6083,3014 6087,3017 6093,3018 6098,3019 6104,3021 6109,3022 6115,3023 6121,3023 6126,3024 6132,3024 6138,3023 6144,3022 6149,3021 6155,3020 6159,3018 6164,3015 6169,3013 6175,3011 6180,3009 6185,3007 6190,3005 6195,3002 6200,3000 6204,2996 6208,2993 6213,2991 6217,2988 6221,2985 6225,2981 6229,2978 6233,2975 6236,2971 6240,2968 6244,2965 6248,2962 6252,2958 6255,2954 6257,2950 6262,2948 6265,2944 6268,2940 6273,2937 6278,2935 6282,2932 6287,2928 6292,2925 6297,2922 6303,2921 6309,2921 6314,2920 6320,2919 6323,2916 6328,2914 6331,2911 6335,2910 6335,2906 6335,2901 6336,2897 6336,2893 6337,2890 6338,2885 6338,2880 6339,2876 6340,2873 6340,2869 6342,2864 6342,2860 6345,2856 6347,2852 6350,2849 6353,2846 6355,2842 6359,2839 6361,2836 6366,2833 6369,2830 6373,2829 6379,2827 6385,2827 6390,2827 6396,2827 6400,2828 " class="polyStyle" id="140622" style="fill:#ee8b94"/>
<polygon points="4456,2601 4462,2602 4467,2602 4473,2604 4478,2604 4484,2604 4490,2605 4495,2607 4501,2608 4506,2610 4512,2611 4517,2613 4523,2614 4528,2614 4531,2614 4543,2621 4549,2621 4554,2621 4637,2617 4642,2619 4648,2620 4652,2622 4658,2624 4663,2626 4669,2628 4674,2630 4678,2633 4682,2636 4686,2639 4690,2642 4694,2645 4697,2649 4700,2653 4704,2657 4706,2661 4707,2666 4709,2670 4711,2674 4713,2678 4713,2683 4713,2687 4711,2692 4711,2696 4710,2700 4708,2705 4707,2709 4706,2714 4705,2718 4704,2722 4703,2727 4701,2731 4700,2736 4697,2739 4696,2743 4692,2747 4690,2751 4686,2755 4683,2758 4680,2762 4676,2766 4673,2769 4669,2772 4665,2776 4661,2779 4655,2780 4652,2783 4647,2786 4642,2788 4637,2790 4632,2793 4628,2795 4623,2798 4617,2800 4613,2803 4609,2806 4604,2808 4599,2811 4594,2812 4589,2815 4584,2817 4579,2819 4574,2822 4569,2824 4564,2826 4559,2829 4554,2830 4548,2831 4543,2833 4538,2834 4532,2836 4527,2837 4521,2838 4516,2840 4511,2842 4505,2844 4500,2846 4495,2848 4490,2850 4485,2852 4480,2855 4476,2858 4473,2862 4468,2864 4465,2865 4460,2867 4457,2869 4452,2873 4450,2876 4446,2880 4443,2883 4438,2887 4433,2889 4428,2893 4424,2896 4420,2899 4415,2902 4411,2904 4407,2907 4400,2911 4396,2914 4391,2918 4387,2921 4383,2923 4380,2926 4378,2930 4378,2934 4377,2938 4381,2941 4385,2943 4389,2945 4393,2948 4398,2950 4402,2953 4407,2955 4411,2959 4417,2961 4421,2964 4425,2968 4430,2970 4434,2973 4437,2976 4440,2979 4444,2983 4447,2987 4452,2991 4457,2994 4459,2997 4462,3001 4466,3004 4468,3008 4472,3011 4475,3013 4478,3017 4481,3021 4484,3025 4487,3029 4490,3033 4492,3037 4495,3042 4498,3046 4500,3050 4503,3054 4505,3058 4508,3062 4510,3066 4512,3069 4514,3073 4515,3078 4517,3082 4520,3086 4523,3092 4527,3095 4531,3098 4534,3100 4537,3104 4539,3107 4542,3111 4544,3115 4546,3119 4550,3123 4553,3127 4556,3130 4560,3134 4561,3138 4563,3142 4567,3146 4569,3150 4574,3153 4592,3165 4670,3164 4695,3172 4738,3221 4827,3314 4832,3318 4837,3319 4842,3322 4845,3325 4849,3329 4854,3331 4858,3334 4861,3338 4866,3341 4870,3344 4874,3347 4879,3350 4883,3353 4887,3356 4891,3359 4895,3362 4900,3366 4904,3369 4908,3372 4912,3375 4916,3378 4920,3382 4923,3385 4928,3388 4932,3391 4935,3395 4939,3398 4944,3401 4948,3403 4953,3406 4959,3408 4964,3409 4970,3410 4976,3410 4981,3411 4987,3411 4993,3412 4998,3413 5004,3413 5010,3413 5015,3414 5021,3414 5027,3414 5032,3416 5038,3416 5044,3416 5050,3417 5056,3417 5061,3418 5067,3419 5073,3420 5078,3420 5084,3421 5090,3421 5096,3421 5101,3422 5107,3422 5113,3422 5119,3422 5124,3422 5131,3422 5136,3421 5142,3421 5148,3421 5153,3422 5159,3423 5165,3422 5171,3423 5176,3424 5182,3424 5188,3424 5193,3425 5200,3425 5205,3426 5211,3426 5217,3427 5222,3428 5228,3428 5234,3429 5239,3429 5245,3430 5251,3431 5256,3431 5262,3433 5267,3435 5271,3438 5275,3440 5286,3444 5318,3477 5324,3486 5352,3513 5355,3522 5356,3541 5362,3556 5363,3564 5368,3573 5368,3582 5371,3590 5378,3644 5379,3662 5385,3688 5391,3705 5391,3714 5390,3723 5382,3730 5345,3742 5336,3748 5333,3756 5338,3763 5348,3769 5376,3774 5385,3779 5388,3787 5386,3796 5389,3802 5436,3815 5459,3825 5466,3830 5444,3870 5438,3876 5433,3884 5427,3900 5429,3907 5459,3953 5471,3967 5500,4014 5507,4022 5515,4028 5541,4039 5548,4045 5557,4080 5559,4098 5569,4114 5577,4121 5601,4129 5642,4124 5648,4128 5652,4149 5658,4159 5664,4159 5697,4130 5703,4128 5707,4167 5692,4181 5671,4192 5673,4199 5682,4216 5685,4229 5680,4236 5673,4240 5676,4246 5677,4255 5678,4309 5704,4338 5699,4346 5637,4358 5630,4375 5627,4387 5621,4398 5608,4407 5597,4418 5598,4432 5614,4442 5635,4442 5676,4454 5693,4467 5700,4496 5711,4562 5720,4572 5732,4575 5744,4599 5745,4607 5753,4617 5787,4637 5805,4644 5812,4645 5857,4666 5865,4672 5873,4683 5879,4687 5886,4704 5887,4722 5889,4728 5879,4731 5873,4729 5851,4733 5816,4733 5794,4737 5785,4742 5778,4749 5773,4767 5777,4793 5773,4802 5747,4820 5732,4834 5721,4849 5695,4860 5687,4867 5685,4875 5687,4893 5680,4897 5643,4910 5621,4916 5576,4924 5533,4935 5483,4959 5472,4961 5446,4970 5440,4970 5431,4976 5392,4986 5324,4994 5296,5000 5238,5003 5227,5005 5217,5010 5211,5017 5195,5030 5190,5038 5147,5080 5135,5095 5101,5131 5079,5150 5058,5171 5049,5177 5037,5192 5018,5224 5017,5241 5020,5250 5017,5258 4998,5269 4987,5271 4938,5295 4924,5309 4921,5317 4920,5344 4923,5353 4925,5371 4920,5388 4914,5395 4905,5401 4873,5409 4856,5410 4828,5415 4800,5411 4765,5411 4748,5415 4729,5424 4720,5430 4701,5452 4692,5457 4676,5470 4665,5486 4645,5508 4632,5533 4628,5550 4617,5575 4604,5590 4594,5594 4577,5597 4566,5594 4551,5588 4524,5572 4481,5542 4459,5536 4431,5533 4419,5532 4408,5535 4356,5554 4328,5558 4303,5568 4303,5561 4306,5544 4305,5535 4301,5526 4278,5506 4283,5498 4289,5497 4307,5487 4314,5480 4323,5453 4303,5447 4285,5421 4275,5403 4273,5390 4278,5383 4317,5358 4327,5335 4349,5324 4380,5303 4386,5290 4387,5257 4375,5244 4347,5230 4345,5200 4347,5191 4346,5182 4348,5164 4350,5156 4349,5146 4352,5138 4350,5129 4354,5102 4355,5066 4352,5049 4352,5040 4348,5031 4344,5014 4341,4978 4336,4951 4321,4890 4320,4881 4307,4846 4306,4837 4283,4797 4258,4767 4247,4742 4242,4715 4235,4698 4234,4690 4234,4680 4238,4654 4237,4645 4230,4619 4214,4576 4213,4567 4210,4559 4187,4517 4184,4508 4178,4501 4174,4493 4166,4487 4158,4470 4152,4462 4145,4445 4136,4429 4129,4393 4108,4362 4092,4350 4059,4314 4043,4301 4037,4293 3995,4251 3977,4229 3949,4212 3948,4209 3946,4200 3947,4182 3951,4173 3982,4136 3986,4128 3984,4119 3968,4097 3953,4083 3928,4066 3913,4052 3873,4021 3869,4011 3862,4005 3845,3994 3822,3983 3818,3976 3818,3967 3820,3959 3809,3942 3805,3889 3797,3883 3711,3879 3694,3877 3649,3868 3631,3869 3615,3872 3606,3877 3595,3893 3584,3919 3569,3931 3548,3939 3508,3945 3473,3946 3463,3943 3456,3936 3438,3904 3431,3896 3415,3872 3406,3856 3405,3847 3386,3805 3380,3787 3378,3769 3374,3752 3368,3744 3349,3734 3324,3716 3292,3679 3290,3661 3293,3652 3307,3628 3344,3584 3360,3570 3362,3562 3356,3555 3326,3542 3320,3542 3277,3528 3248,3526 3209,3533 3188,3539 3176,3540 3159,3539 3131,3534 3114,3535 3103,3538 3097,3538 3079,3549 3059,3557 3038,3569 3028,3572 3017,3573 3006,3573 2988,3568 2965,3565 2959,3561 2945,3549 2934,3531 2930,3521 2928,3494 2925,3488 2895,3479 2883,3473 2875,3465 2859,3454 2835,3445 2821,3442 2814,3438 2815,3430 2821,3412 2821,3391 2820,3372 2817,3357 2812,3350 2804,3345 2786,3341 2701,3333 2679,3323 2670,3314 2667,3307 2667,3297 2677,3292 2697,3287 2713,3280 2733,3281 2742,3275 2776,3271 2800,3251 2819,3226 2843,3185 2838,3146 2804,3121 2781,3108 2776,3101 2780,3089 2785,3083 2783,3047 2745,3006 2751,3002 2759,2980 2731,2952 2731,2934 2735,2921 2746,2921 2772,2901 2781,2897 2803,2896 2825,2897 2838,2901 2854,2900 2869,2893 2892,2879 2921,2872 2947,2870 2972,2863 2995,2848 3003,2829 3003,2816 3012,2799 3020,2791 3035,2787 3060,2793 3083,2794 3107,2794 3124,2791 3142,2780 3152,2764 3161,2758 3172,2756 3180,2762 3192,2776 3200,2782 3228,2797 3235,2804 3238,2813 3238,2822 3245,2828 3290,2838 3307,2838 3324,2841 3359,2839 3433,2830 3456,2830 3485,2844 3545,2886 3562,2897 3573,2902 3580,2908 3596,2914 3619,2913 3635,2900 3662,2851 3674,2836 3689,2822 3698,2817 3731,2792 3730,2749 3767,2739 3818,2726 3899,2719 3903,2714 3903,2710 3907,2707 3911,2703 3914,2700 3917,2696 3920,2691 3921,2687 3924,2683 3925,2679 3928,2675 3930,2670 3931,2666 3935,2662 3938,2659 3942,2656 3943,2651 3946,2648 3948,2643 3952,2640 3956,2637 3962,2635 3965,2631 3971,2631 3977,2631 3983,2630 3988,2631 3994,2631 4000,2630 4004,2630 4015,2627 4051,2625 4079,2633 4097,2647 4141,2678 4197,2696 4251,2712 4254,2712 4259,2712 4265,2712 4270,2710 4274,2707 4278,2703 4281,2699 4284,2695 4287,2692 4288,2687 4287,2683 4287,2679 4285,2674 4284,2670 4283,2666 4280,2662 4279,2657 4277,2653 4275,2649 4273,2645 4271,2641 4269,2636 4268,2632 4267,2628 4267,2623 4267,2619 4268,2614 4273,2611 4276,2608 4281,2605 4286,2604 4292,2604 4298,2604 4304,2605 4309,2607 4315,2607 4320,2610 4325,2611 4331,2611 4336,2611 4342,2612 4348,2612 4354,2612 4359,2612 4365,2611 4371,2611 4376,2609 4382,2608 4387,2607 4393,2606 4398,2604 4404,2604 4410,2602 4415,2601 4421,2601 4427,2600 4433,2600 4439,2600 4445,2600 4450,2601 " class="polyStyle" id="140621" style="fill:#f6f67b"/>
<path d="" class="polyStyle" id="130322" style="fill:#d4ecb2"/>
<polygon points="6711,1706 6717,1706 6722,1707 6728,1708 6734,1708 6739,1709 6745,1710 6751,1711 6756,1712 6762,1714 6767,1715 6773,1717 6779,1718 6784,1719 6789,1721 6795,1723 6800,1724 6805,1726 6811,1728 6816,1730 6822,1731 6828,1732 6833,1734 6838,1735 6844,1736 6850,1737 6855,1738 6861,1738 6867,1739 6873,1740 6879,1741 6884,1741 6890,1742 6896,1743 6901,1743 6907,1744 6912,1746 6917,1748 6923,1749 6928,1751 6934,1752 6939,1754 6945,1756 6951,1756 6957,1756 6962,1757 6968,1758 6973,1760 6977,1763 6980,1767 6982,1771 6985,1775 6987,1779 6990,1783 6995,1786 7000,1787 7006,1789 7011,1792 7013,1796 7014,1800 7016,1804 7017,1809 7020,1812 7022,1816 7028,1819 7033,1819 7039,1820 7045,1821 7050,1821 7056,1823 7062,1823 7068,1824 7073,1824 7079,1825 7085,1825 7091,1825 7096,1827 7102,1828 7108,1828 7114,1828 7119,1830 7124,1832 7130,1832 7135,1833 7140,1837 7145,1838 7150,1841 7154,1844 7156,1849 7160,1852 7163,1856 7166,1859 7169,1863 7172,1867 7175,1871 7179,1874 7183,1878 7186,1882 7189,1885 7193,1888 7197,1892 7201,1895 7206,1897 7211,1900 7216,1903 7219,1906 7224,1909 7227,1913 7230,1917 7234,1920 7238,1923 7241,1927 7244,1931 7246,1935 7249,1939 7251,1943 7253,1947 7257,1951 7259,1955 7263,1958 7268,1960 7272,1964 7278,1965 7283,1967 7289,1967 7295,1967 7300,1967 7306,1966 7312,1966 7317,1966 7323,1965 7329,1965 7335,1963 7356,1962 7368,1961 7374,1962 7387,1962 7414,1962 7415,1967 7418,1971 7421,1975 7423,1979 7425,1983 7425,1987 7428,1992 7431,1995 7432,2000 7433,2004 7435,2008 7438,2012 7439,2017 7441,2021 7443,2025 7445,2029 7447,2033 7450,2037 7455,2039 7461,2039 7466,2038 7472,2038 7478,2038 7484,2038 7490,2037 7494,2035 7497,2032 7503,2028 7510,2040 7520,2053 7536,2069 7539,2074 7546,2077 7549,2082 7585,2106 7588,2107 7594,2112 7599,2113 7610,2121 7620,2128 7622,2132 7628,2137 7635,2144 7652,2161 7695,2198 7718,2218 7740,2233 7710,2246 7682,2253 7643,2262 7629,2267 7621,2269 7607,2271 7585,2271 7576,2271 7557,2273 7537,2280 7528,2288 7512,2297 7499,2303 7471,2311 7443,2314 7414,2314 7385,2317 7357,2320 7339,2330 7333,2348 7327,2373 7326,2400 7300,2417 7269,2442 7241,2476 7223,2496 7197,2503 7178,2495 7166,2498 7153,2510 7165,2536 7180,2561 7196,2590 7206,2616 7228,2642 7257,2663 7283,2674 7308,2685 7333,2696 7363,2718 7390,2736 7420,2754 7448,2771 7476,2784 7505,2811 7531,2837 7540,2843 7540,2848 7540,2851 7534,2853 7532,2856 7531,2860 7536,2865 7560,2890 7561,2893 7561,2898 7562,2902 7562,2907 7562,2911 7561,2916 7560,2920 7559,2924 7556,2928 7554,2932 7550,2936 7547,2940 7542,2943 7538,2946 7534,2949 7531,2953 7528,2957 7525,2960 7522,2964 7518,2967 7516,2972 7525,2984 7527,2990 7512,2994 7488,3013 7484,3014 7477,3016 7470,3017 7464,3017 7458,3016 7453,3014 7448,3013 7442,3011 7436,3011 7431,3009 7425,3007 7420,3007 7414,3006 7409,3004 7403,3004 7397,3004 7391,3004 7386,3002 7380,3002 7374,3004 7369,3005 7363,3006 7357,3007 7352,3007 7345,3007 7341,3005 7337,3002 7331,3000 7328,2996 7323,2993 7318,2990 7314,2988 7308,2987 7303,2986 7297,2985 7291,2985 7285,2985 7279,2984 7273,2984 7268,2986 7262,2987 7256,2987 7251,2988 7246,2991 7242,2993 7237,2996 7235,3000 7229,3004 7221,3007 7217,3009 7213,3011 7208,3013 7202,3017 7197,3019 7193,3021 7189,3024 7180,3028 7175,3029 7170,3031 7165,3033 7160,3034 7155,3036 7150,3038 7145,3040 7138,3042 7134,3044 7127,3046 7122,3048 7115,3049 7111,3051 7106,3052 7097,3053 7092,3054 7086,3054 7082,3054 7078,3052 7073,3052 7067,3052 7061,3052 7055,3052 7049,3052 7044,3052 7038,3051 7032,3049 7027,3049 7021,3048 7015,3046 7010,3045 7004,3045 6998,3044 6992,3044 6986,3044 6981,3043 6975,3042 6969,3040 6964,3039 6959,3038 6953,3036 6948,3034 6944,3031 6938,3029 6933,3028 6928,3025 6923,3023 6919,3019 6915,3016 6911,3014 6906,3011 6900,3010 6894,3009 6888,3009 6883,3009 6876,3009 6871,3009 6865,3009 6859,3011 6854,3011 6848,3011 6842,3011 6836,3011 6830,3011 6824,3011 6819,3010 6813,3011 6807,3011 6802,3010 6797,3007 6791,3006 6785,3005 6780,3004 6775,3001 6770,3000 6766,2997 6762,2993 6757,2990 6752,2988 6747,2986 6742,2983 6738,2981 6733,2978 6728,2976 6723,2974 6718,2971 6713,2969 6709,2966 6705,2962 6701,2959 6698,2956 6696,2952 6691,2948 6689,2944 6685,2941 6681,2938 6676,2935 6672,2932 6667,2929 6662,2928 6657,2926 6652,2924 6647,2923 6642,2921 6636,2919 6631,2918 6628,2915 6622,2914 6618,2911 6612,2909 6608,2906 6603,2905 6598,2902 6593,2899 6590,2896 6585,2893 6580,2890 6576,2887 6572,2884 6568,2881 6563,2879 6559,2876 6554,2873 6549,2870 6544,2868 6539,2866 6534,2863 6530,2860 6525,2858 6519,2857 6514,2855 6508,2853 6503,2852 6497,2851 6493,2849 6486,2849 6481,2847 6476,2845 6470,2844 6465,2842 6459,2841 6454,2838 6449,2837 6443,2836 6438,2833 6433,2831 6428,2831 6422,2829 6416,2829 6411,2828 6406,2828 6400,2828 6396,2827 6390,2827 6385,2827 6379,2827 6373,2829 6369,2830 6366,2833 6361,2836 6359,2839 6355,2842 6353,2846 6350,2849 6347,2852 6345,2856 6342,2860 6342,2864 6340,2869 6340,2873 6339,2876 6338,2880 6338,2885 6337,2890 6336,2893 6336,2897 6335,2901 6335,2906 6335,2910 6331,2911 6328,2914 6323,2916 6320,2919 6314,2920 6309,2921 6303,2921 6297,2922 6292,2925 6287,2928 6282,2932 6278,2935 6273,2937 6268,2940 6265,2944 6262,2948 6257,2950 6255,2954 6252,2958 6248,2962 6244,2965 6240,2968 6236,2971 6233,2975 6229,2978 6225,2981 6221,2985 6217,2988 6213,2991 6208,2993 6204,2996 6200,3000 6195,3002 6190,3005 6185,3007 6180,3009 6175,3011 6169,3013 6164,3015 6159,3018 6155,3020 6149,3021 6144,3022 6138,3023 6132,3024 6126,3024 6121,3023 6115,3023 6109,3022 6104,3021 6098,3019 6093,3018 6087,3017 6083,3014 6077,3014 6071,3014 6065,3014 6059,3014 6054,3014 6048,3014 6042,3016 6037,3018 6032,3018 6027,3021 6022,3023 6017,3025 6012,3028 6007,3030 6002,3032 5997,3035 5993,3038 5988,3041 5984,3044 5981,3048 5977,3051 5973,3054 5969,3057 5965,3061 5961,3064 5957,3067 5954,3071 5949,3074 5946,3078 5943,3081 5938,3084 5936,3088 5932,3092 5928,3095 5924,3099 5922,3103 5918,3106 5915,3110 5912,3114 5909,3118 5905,3121 5902,3125 5898,3128 5896,3132 5891,3135 5887,3138 5882,3139 5876,3141 5871,3142 5865,3143 5859,3144 5854,3144 5848,3145 5842,3145 5837,3145 5831,3146 5825,3146 5819,3147 5814,3148 5808,3148 5802,3148 5796,3148 5790,3148 5784,3148 5779,3148 5773,3147 5767,3148 5762,3149 5755,3149 5750,3150 5745,3152 5740,3154 5735,3156 5730,3158 5725,3161 5722,3164 5718,3168 5715,3172 5711,3175 5707,3178 5702,3181 5698,3184 5694,3187 5690,3191 5686,3193 5683,3197 5680,3201 5677,3205 5674,3209 5671,3213 5669,3217 5669,3221 5666,3225 5664,3230 5662,3234 5660,3238 5658,3242 5655,3246 5652,3250 5648,3253 5643,3256 5638,3257 5631,3257 5626,3259 5621,3259 5616,3256 5610,3256 5604,3256 5598,3255 5593,3253 5587,3252 5582,3251 5576,3251 5570,3252 5565,3254 5561,3257 5556,3259 5553,3263 5549,3266 5545,3269 5542,3273 5540,3277 5538,3281 5538,3286 5533,3289 5531,3293 5529,3297 5527,3301 5525,3305 5523,3310 5521,3314 5518,3318 5515,3321 5514,3326 5512,3330 5509,3334 5507,3338 5504,3342 5500,3345 5497,3349 5494,3353 5490,3356 5488,3361 5485,3364 5482,3368 5481,3373 5476,3375 5473,3379 5472,3383 5469,3387 5466,3391 5464,3395 5462,3400 5459,3403 5455,3407 5450,3409 5446,3413 5442,3416 5437,3418 5431,3419 5426,3421 5421,3422 5415,3424 5410,3425 5404,3425 5398,3425 5392,3425 5386,3426 5380,3426 5375,3426 5369,3428 5363,3428 5358,3428 5352,3428 5346,3429 5342,3428 5336,3428 5331,3429 5325,3430 5319,3431 5314,3432 5309,3435 5304,3437 5299,3439 5286,3444 5275,3440 5271,3438 5267,3435 5262,3433 5256,3431 5251,3431 5245,3430 5239,3429 5234,3429 5228,3428 5222,3428 5217,3427 5211,3426 5205,3426 5200,3425 5193,3425 5188,3424 5182,3424 5176,3424 5171,3423 5165,3422 5159,3423 5153,3422 5148,3421 5142,3421 5136,3421 5131,3422 5124,3422 5119,3422 5113,3422 5107,3422 5101,3422 5096,3421 5090,3421 5084,3421 5078,3420 5073,3420 5067,3419 5061,3418 5056,3417 5050,3417 5044,3416 5038,3416 5032,3416 5027,3414 5021,3414 5015,3414 5010,3413 5004,3413 4998,3413 4993,3412 4987,3411 4981,3411 4976,3410 4970,3410 4964,3409 4959,3408 4953,3406 4948,3403 4944,3401 4939,3398 4935,3395 4932,3391 4928,3388 4923,3385 4920,3382 4916,3378 4912,3375 4908,3372 4904,3369 4900,3366 4895,3362 4891,3359 4887,3356 4883,3353 4879,3350 4874,3347 4870,3344 4866,3341 4861,3338 4858,3334 4854,3331 4849,3329 4845,3325 4842,3322 4837,3319 4832,3318 4827,3314 4738,3221 4695,3172 4670,3164 4592,3165 4574,3153 4569,3150 4567,3146 4563,3142 4561,3138 4560,3134 4556,3130 4553,3127 4550,3123 4546,3119 4544,3115 4542,3111 4539,3107 4537,3104 4534,3100 4531,3098 4527,3095 4523,3092 4520,3086 4517,3082 4515,3078 4514,3073 4512,3069 4510,3066 4508,3062 4505,3058 4503,3054 4500,3050 4498,3046 4495,3042 4492,3037 4490,3033 4487,3029 4484,3025 4481,3021 4478,3017 4475,3013 4472,3011 4468,3008 4466,3004 4462,3001 4459,2997 4457,2994 4452,2991 4447,2987 4444,2983 4440,2979 4437,2976 4434,2973 4430,2970 4425,2968 4421,2964 4417,2961 4411,2959 4407,2955 4402,2953 4398,2950 4393,2948 4389,2945 4385,2943 4381,2941 4377,2938 4378,2934 4378,2930 4380,2926 4383,2923 4387,2921 4391,2918 4396,2914 4400,2911 4407,2907 4411,2904 4415,2902 4420,2899 4424,2896 4428,2893 4433,2889 4438,2887 4443,2883 4446,2880 4450,2876 4452,2873 4457,2869 4460,2867 4465,2865 4468,2864 4473,2862 4476,2858 4480,2855 4485,2852 4490,2850 4495,2848 4500,2846 4505,2844 4511,2842 4516,2840 4521,2838 4527,2837 4532,2836 4538,2834 4543,2833 4548,2831 4554,2830 4559,2829 4564,2826 4569,2824 4574,2822 4579,2819 4584,2817 4589,2815 4594,2812 4599,2811 4604,2808 4609,2806 4613,2803 4617,2800 4623,2798 4628,2795 4632,2793 4637,2790 4642,2788 4647,2786 4652,2783 4655,2780 4661,2779 4665,2776 4669,2772 4673,2769 4676,2766 4680,2762 4683,2758 4686,2755 4690,2751 4692,2747 4696,2743 4697,2739 4700,2736 4701,2731 4703,2727 4704,2722 4705,2718 4706,2714 4707,2709 4708,2705 4710,2700 4711,2696 4711,2692 4713,2687 4713,2683 4713,2678 4711,2674 4709,2670 4707,2666 4706,2661 4704,2657 4700,2653 4697,2649 4694,2645 4690,2642 4686,2639 4682,2636 4678,2633 4674,2630 4669,2628 4663,2626 4658,2624 4652,2622 4648,2620 4642,2619 4637,2617 4554,2621 4553,2616 4545,2605 4542,2596 4542,2589 4536,2576 4536,2561 4542,2538 4544,2528 4559,2519 4585,2505 4615,2479 4624,2475 4647,2480 4704,2491 4793,2494 4816,2494 4821,2490 4826,2488 4831,2486 4835,2483 4841,2480 4845,2478 4850,2475 4854,2472 4859,2470 4865,2468 4870,2466 4875,2464 4881,2463 4886,2462 4892,2461 4898,2460 4904,2459 4909,2458 4915,2458 4921,2457 4926,2456 4931,2455 4932,2451 4930,2446 4928,2442 4925,2438 4925,2434 4926,2429 4928,2425 4929,2421 4931,2417 4934,2413 4937,2409 4942,2406 4947,2404 4951,2401 4956,2399 4962,2397 4967,2395 4973,2393 4978,2392 4984,2391 4988,2389 4993,2386 4999,2384 5004,2382 5009,2380 5014,2378 5019,2376 5024,2374 5029,2372 5035,2370 5039,2368 5044,2365 5048,2362 5052,2359 5058,2357 5062,2355 5067,2352 5071,2349 5076,2345 5079,2342 5083,2338 5086,2335 5090,2331 5093,2327 5096,2324 5099,2320 5102,2316 5105,2312 5108,2308 5112,2305 5115,2301 5120,2299 5125,2296 5129,2296 5134,2296 5139,2296 5145,2296 5150,2295 5155,2293 5160,2293 5165,2292 5170,2291 5175,2289 5180,2288 5182,2285 5184,2280 5185,2276 5186,2273 5187,2267 5189,2263 5190,2259 5191,2255 5192,2250 5193,2245 5193,2242 5193,2238 5195,2234 5195,2230 5195,2226 5195,2222 5196,2218 5196,2214 5196,2209 5196,2206 5196,2201 5197,2198 5199,2194 5202,2191 5207,2194 5210,2198 5213,2201 5216,2203 5220,2205 5225,2208 5230,2211 5234,2213 5238,2214 5244,2216 5249,2218 5254,2221 5258,2224 5263,2226 5269,2228 5274,2230 5279,2232 5285,2232 5290,2232 5296,2231 5300,2228 5301,2224 5302,2219 5302,2214 5302,2210 5304,2206 5306,2202 5310,2198 5314,2195 5318,2192 5320,2188 5323,2184 5327,2180 5329,2176 5332,2173 5335,2169 5338,2165 5340,2161 5342,2156 5342,2152 5341,2148 5338,2144 5337,2139 5334,2135 5330,2132 5330,2128 5326,2124 5323,2121 5320,2116 5317,2112 5314,2108 5311,2105 5308,2101 5305,2097 5302,2094 5299,2090 5297,2086 5293,2082 5291,2078 5286,2075 5282,2072 5277,2069 5272,2068 5267,2066 5262,2064 5255,2064 5250,2064 5244,2062 5239,2060 5235,2058 5229,2056 5226,2052 5222,2049 5219,2045 5218,2040 5217,2036 5217,2031 5217,2027 5216,2023 5213,2019 5223,2010 5226,2006 5225,2001 5224,1997 5223,1993 5220,1989 5219,1984 5216,1980 5214,1976 5211,1972 5225,1950 5255,1930 5271,1924 5331,1917 5393,1900 5555,1904 5599,1919 5619,1935 5625,1935 5631,1934 5636,1931 5641,1930 5647,1929 5652,1927 5657,1924 5662,1922 5668,1921 5673,1919 5677,1916 5683,1914 5687,1911 5692,1908 5697,1907 5703,1906 5708,1905 5714,1903 5720,1902 5725,1901 5731,1900 5737,1899 5742,1897 5748,1896 5754,1897 5759,1895 5765,1895 5771,1895 5777,1896 5783,1896 5789,1896 5794,1897 5800,1899 5805,1900 5811,1901 5817,1902 5822,1904 5827,1906 5832,1907 5838,1908 5843,1911 5848,1913 5854,1914 5859,1916 5865,1917 5870,1919 5876,1921 5881,1922 5887,1923 5893,1924 5898,1924 5904,1925 5910,1927 5915,1927 5921,1928 5927,1929 5933,1929 5938,1930 5944,1931 5949,1932 5955,1934 5961,1935 5966,1937 5972,1937 5978,1938 5983,1939 5988,1942 5994,1943 6000,1944 6005,1945 6010,1947 6016,1949 6021,1950 6027,1951 6032,1953 6037,1956 6042,1957 6048,1959 6053,1960 6059,1961 6064,1964 6069,1965 6075,1967 6080,1969 6085,1970 6090,1973 6096,1973 6101,1975 6107,1976 6113,1976 6119,1976 6124,1976 6130,1977 6136,1977 6142,1977 6148,1976 6154,1976 6159,1976 6165,1976 6171,1974 6176,1974 6183,1974 6188,1973 6194,1972 6199,1971 6205,1970 6211,1969 6216,1968 6222,1968 6228,1966 6233,1966 6239,1964 6244,1963 6250,1961 6255,1959 6261,1959 6266,1958 6272,1956 6277,1954 6282,1952 6287,1950 6293,1949 6299,1948 6303,1945 6307,1943 6313,1941 6317,1938 6322,1936 6327,1933 6332,1931 6336,1928 6340,1924 6345,1922 6348,1918 6352,1915 6356,1912 6361,1909 6365,1906 6369,1902 6373,1899 6377,1896 6381,1893 6386,1890 6391,1888 6396,1885 6400,1882 6403,1878 6407,1876 6411,1873 6416,1869 6420,1866 6424,1863 6428,1860 6434,1858 6438,1855 6442,1852 6447,1849 6451,1846 6455,1843 6461,1842 6465,1838 6470,1836 6474,1833 6479,1831 6483,1828 6488,1826 6493,1823 6497,1820 6502,1818 6507,1815 6510,1811 6514,1809 6518,1806 6521,1802 6527,1800 6531,1797 6535,1794 6539,1791 6543,1787 6546,1784 6549,1780 6554,1777 6557,1773 6560,1770 6564,1766 6569,1763 6573,1761 6577,1758 6583,1758 6589,1756 6593,1754 6599,1752 6604,1751 6609,1749 6614,1748 6619,1745 6624,1743 6629,1740 6632,1737 6636,1733 6639,1729 6643,1726 6648,1724 6652,1721 6657,1718 6662,1716 6667,1713 6672,1711 6677,1708 6682,1707 6687,1705 6693,1705 6699,1705 6705,1706 " class="polyStyle" id="140624" style="fill:#d4ecb2"/>
<path d="" class="polyStyle" id="653130" style="fill:#f6f67b"/>
<polygon points="2843,4 2857,12 2873,26 2889,42 2903,66 2907,72 2925,78 2975,90 2993,96 3007,106 3027,130 3045,142 3135,176 3191,192 3287,210 3291,210 3301,212 3347,218 3367,222 3387,230 3413,248 3447,262 3479,270 3605,296 3625,300 3632,302 3631,312 3631,319 3631,331 3632,335 3636,338 3638,343 3639,348 3638,356 3638,364 3636,371 3638,377 3639,382 3639,385 3635,387 3628,390 3621,392 3616,392 3609,392 3598,391 3590,390 3586,390 3583,393 3576,399 3571,407 3568,414 3565,421 3561,426 3556,430 3547,437 3542,439 3540,442 3536,447 3527,455 3521,462 3517,466 3517,469 3520,473 3524,479 3528,483 3532,486 3535,489 3537,492 3538,499 3540,504 3542,509 3544,513 3547,518 3548,522 3549,527 3552,531 3558,536 3573,541 3581,542 3589,545 3594,550 3600,557 3604,563 3607,565 3611,566 3614,569 3624,576 3629,580 3630,586 3631,590 3635,591 3638,594 3637,597 3632,601 3629,606 3628,609 3629,615 3635,626 3641,637 3644,642 3647,643 3654,645 3667,648 3672,651 3671,654 3666,656 3660,657 3658,659 3653,664 3648,669 3643,672 3634,675 3627,677 3624,678 3618,682 3613,682 3599,682 3591,682 3580,680 3571,679 3562,678 3557,679 3553,681 3550,680 3541,680 3538,680 3534,683 3530,683 3528,677 3527,669 3526,666 3523,665 3516,664 3504,663 3490,664 3482,666 3478,668 3474,673 3470,676 3465,680 3460,681 3452,685 3442,692 3435,697 3427,701 3425,704 3415,711 3412,712 3411,716 3411,722 3412,730 3413,737 3414,745 3415,748 3418,750 3424,751 3431,752 3436,754 3436,757 3433,762 3428,763 3425,763 3418,765 3414,768 3407,774 3402,782 3401,787 3401,790 3406,795 3413,799 3417,805 3418,808 3421,812 3426,818 3431,823 3431,828 3426,833 3421,841 3418,849 3419,855 3421,860 3424,864 3424,869 3425,873 3428,874 3431,874 3435,874 3440,874 3444,874 3448,876 3453,877 3457,879 3460,883 3461,886 3464,887 3466,890 3470,894 3471,897 3475,907 3476,911 3479,914 3483,918 3486,920 3487,923 3483,927 3474,930 3461,935 3453,938 3446,940 3438,942 3435,943 3433,947 3435,951 3437,956 3442,959 3449,965 3452,969 3454,974 3455,982 3455,988 3457,992 3464,997 3471,1001 3479,1004 3488,1007 3497,1009 3508,1010 3515,1011 3518,1012 3521,1015 3525,1018 3531,1020 3538,1021 3546,1024 3550,1024 3555,1023 3562,1020 3568,1018 3572,1017 3577,1020 3583,1025 3589,1030 3592,1032 3597,1034 3600,1035 3606,1036 3612,1038 3617,1043 3620,1047 3621,1052 3616,1054 3611,1055 3605,1057 3597,1060 3589,1064 3580,1068 3576,1070 3569,1072 3568,1078 3568,1086 3566,1093 3565,1097 3562,1099 3563,1102 3567,1107 3572,1112 3577,1117 3577,1122 3578,1125 3581,1129 3588,1132 3595,1135 3599,1139 3602,1145 3604,1154 3605,1164 3607,1176 3608,1183 3612,1191 3616,1197 3619,1202 3623,1207 3629,1212 3634,1215 3640,1217 3648,1220 3658,1222 3669,1225 3674,1228 3675,1234 3676,1242 3677,1248 3680,1256 3684,1269 3686,1277 3689,1284 3691,1291 3692,1294 3692,1304 3693,1309 3695,1313 3700,1317 3707,1321 3719,1326 3729,1331 3736,1335 3739,1339 3740,1343 3738,1348 3737,1353 3737,1362 3737,1366 3737,1369 3735,1376 3738,1382 3740,1387 3740,1392 3740,1397 3739,1404 3737,1409 3731,1414 3725,1419 3715,1425 3709,1428 3704,1433 3697,1442 3695,1447 3693,1452 3692,1456 3691,1461 3688,1466 3686,1470 3686,1473 3687,1479 3687,1483 3687,1486 3685,1491 3684,1500 3683,1504 3681,1507 3680,1511 3679,1514 3677,1518 3676,1521 3674,1524 3672,1527 3669,1530 3669,1534 3666,1537 3665,1540 3663,1543 3661,1547 3659,1550 3656,1553 3654,1556 3653,1559 3651,1562 3649,1566 3648,1569 3646,1573 3644,1576 3643,1580 3642,1583 3642,1587 3643,1590 3643,1594 3643,1597 3643,1601 3642,1604 3642,1608 3641,1612 3640,1615 3640,1619 3640,1622 3639,1626 3638,1629 3638,1633 3637,1637 3635,1640 3634,1644 3633,1647 3632,1651 3630,1654 3628,1657 3628,1661 3626,1664 3625,1668 3624,1671 3623,1675 3622,1678 3621,1682 3619,1685 3617,1688 3615,1691 3614,1695 3613,1698 3611,1702 3609,1705 3608,1708 3606,1712 3605,1715 3604,1719 3603,1722 3603,1726 3602,1729 3602,1733 3602,1737 3602,1740 3602,1744 3602,1748 3602,1751 3601,1755 3601,1758 3601,1762 3601,1766 3599,1769 3599,1773 3597,1776 3594,1779 3592,1782 3590,1785 3586,1787 3583,1790 3579,1792 3575,1794 3571,1796 3568,1798 3565,1801 3562,1804 3558,1806 3555,1809 3552,1812 3549,1814 3547,1818 3544,1820 3541,1823 3539,1826 3537,1829 3535,1832 3532,1835 3530,1838 3528,1842 3526,1845 3524,1848 3523,1852 3519,1854 3517,1857 3516,1861 3515,1864 3515,1868 3514,1872 3514,1875 3514,1879 3514,1882 3512,1885 3512,1889 3512,1893 3511,1896 3511,1900 3512,1903 3511,1907 3511,1910 3512,1913 3513,1917 3514,1920 3516,1924 3517,1927 3519,1931 3521,1934 3523,1937 3524,1941 3525,1944 3526,1948 3527,1951 3527,1955 3527,1958 3528,1962 3528,1966 3527,1969 3526,1973 3525,1976 3524,1980 3522,1983 3520,1986 3519,1990 3518,1993 3516,1997 3514,2000 3514,2004 3514,2007 3513,2011 3512,2014 3513,2018 3513,2021 3513,2025 3513,2028 3514,2032 3517,2035 3520,2038 3522,2041 3524,2044 3528,2047 3531,2049 3535,2052 3537,2055 3540,2057 3543,2060 3545,2063 3547,2067 3548,2070 3549,2074 3549,2077 3549,2081 3549,2084 3549,2088 3548,2091 3548,2095 3548,2099 3548,2102 3548,2106 3548,2110 3548,2113 3547,2117 3546,2120 3545,2124 3544,2127 3543,2131 3542,2134 3540,2138 3539,2141 3538,2145 3538,2148 3538,2152 3537,2156 3535,2159 3534,2162 3533,2166 3532,2169 3531,2173 3530,2176 3528,2180 3526,2183 3525,2187 3524,2190 3523,2193 3521,2197 3521,2200 3521,2204 3521,2207 3520,2211 3518,2214 3517,2218 3515,2221 3513,2224 3511,2228 3510,2231 3508,2235 3507,2238 3505,2242 3503,2245 3501,2248 3499,2251 3497,2255 3496,2258 3493,2261 3491,2264 3489,2267 3486,2270 3483,2273 3481,2276 3480,2280 3479,2283 3477,2287 3477,2290 3478,2294 3478,2297 3480,2301 3483,2304 3485,2307 3486,2311 3486,2314 3486,2318 3486,2321 3487,2325 3487,2328 3489,2332 3490,2335 3491,2339 3493,2342 3494,2346 3497,2349 3502,2352 3505,2356 3507,2359 3509,2363 3511,2367 3514,2371 3516,2374 3519,2378 3521,2381 3525,2385 3528,2389 3531,2393 3533,2397 3536,2400 3542,2403 3546,2405 3552,2405 3557,2407 3562,2408 3569,2410 3574,2410 3579,2411 3584,2411 3589,2411 3594,2411 3599,2411 3603,2413 3608,2415 3611,2418 3613,2421 3615,2425 3617,2429 3619,2432 3621,2436 3622,2440 3623,2444 3625,2449 3626,2453 3627,2456 3629,2462 3629,2466 3630,2469 3630,2473 3629,2478 3628,2482 3628,2487 3628,2491 3626,2494 3624,2498 3623,2503 3622,2507 3621,2510 3621,2514 3619,2518 3618,2522 3616,2527 3616,2531 3614,2535 3614,2538 3613,2542 3612,2545 3612,2549 3612,2552 3611,2556 3609,2559 3608,2563 3608,2566 3607,2570 3607,2573 3607,2577 3606,2580 3606,2584 3606,2588 3606,2591 3606,2595 3606,2598 3606,2602 3606,2606 3606,2609 3606,2613 3606,2616 3605,2620 3605,2624 3604,2627 3601,2630 3600,2634 3599,2637 3598,2641 3596,2644 3594,2647 3593,2651 3593,2654 3592,2658 3592,2661 3592,2665 3592,2669 3593,2672 3595,2675 3597,2679 3598,2682 3600,2685 3603,2688 3605,2691 3609,2693 3612,2696 3615,2699 3618,2702 3621,2705 3624,2707 3627,2710 3630,2713 3633,2715 3637,2718 3640,2720 3643,2722 3647,2727 3652,2731 3656,2733 3660,2734 3664,2735 3668,2738 3671,2740 3675,2742 3680,2744 3730,2749 3731,2792 3698,2817 3689,2822 3674,2836 3662,2851 3635,2900 3619,2913 3596,2914 3580,2908 3573,2902 3562,2897 3545,2886 3485,2844 3456,2830 3433,2830 3359,2839 3324,2841 3307,2838 3290,2838 3245,2828 3238,2822 3238,2813 3235,2804 3228,2797 3200,2782 3192,2776 3180,2762 3172,2756 3161,2758 3152,2764 3142,2780 3124,2791 3107,2794 3083,2794 3060,2793 3035,2787 3020,2791 3012,2799 3003,2816 3003,2829 2995,2848 2972,2863 2947,2870 2921,2872 2892,2879 2869,2893 2854,2900 2838,2901 2825,2897 2803,2896 2781,2897 2772,2901 2746,2921 2735,2921 2731,2934 2731,2952 2759,2980 2751,3002 2745,3006 2707,3010 2696,3021 2695,3041 2687,3044 2678,3045 2667,3038 2656,3024 2648,3007 2590,3009 2573,2997 2559,2996 2536,3003 2529,2997 2521,2968 2485,2908 2476,2898 2472,2880 2484,2870 2487,2861 2484,2854 2478,2849 2468,2847 2450,2849 2431,2855 2411,2859 2372,2859 2362,2828 2381,2748 2382,2736 2377,2726 2368,2718 2336,2703 2320,2700 2302,2708 2295,2716 2287,2722 2277,2723 2271,2711 2255,2704 2242,2712 2224,2716 2213,2711 2196,2708 2190,2702 2188,2690 2191,2677 2191,2656 2184,2646 2157,2623 2152,2608 2140,2596 2134,2596 2113,2580 2096,2578 2080,2573 2073,2568 2055,2563 2048,2551 2040,2535 2044,2523 2047,2503 2053,2496 2080,2482 2096,2476 2103,2470 2105,2463 2112,2452 2111,2441 2099,2423 2017,2365 2008,2354 1993,2347 1976,2356 1975,2375 1962,2383 1933,2386 1921,2390 1917,2399 1919,2415 1899,2416 1826,2379 1823,2364 1839,2302 1836,2294 1821,2272 1814,2252 1804,2244 1753,2247 1728,2235 1714,2237 1702,2242 1661,2280 1647,2281 1633,2275 1635,2266 1652,2256 1655,2244 1675,2213 1676,2207 1614,2188 1578,2173 1529,2144 1516,2114 1474,2100 1460,2089 1451,2062 1440,2045 1433,2025 1438,2010 1445,1996 1448,1981 1443,1967 1427,1957 1406,1940 1388,1928 1325,1900 1307,1897 1284,1883 1282,1866 1273,1858 1293,1823 1300,1804 1297,1783 1289,1764 1268,1746 1254,1729 1242,1730 1216,1755 1206,1753 1204,1745 1196,1730 1194,1704 1197,1693 1189,1685 1183,1676 1131,1641 1091,1609 1111,1586 1135,1552 1157,1516 1175,1470 1187,1434 1205,1400 1217,1376 1227,1362 1239,1350 1299,1300 1327,1272 1359,1240 1389,1214 1403,1198 1409,1188 1411,1174 1415,1136 1419,1114 1427,1090 1435,1072 1455,1054 1507,1014 1553,964 1583,928 1639,856 1655,834 1659,822 1661,812 1653,754 1651,718 1659,690 1673,658 1681,646 1687,640 1703,626 1759,600 1795,582 1823,568 1873,540 1931,508 1945,498 1987,462 2005,446 2009,438 2009,426 1995,412 1971,394 1967,386 1967,382 1977,366 2015,326 2031,306 2043,284 2059,264 2057,252 2057,244 2057,227 2056,224 2055,219 2055,216 2073,218 2087,218 2109,218 2135,210 2151,210 2171,218 2185,224 2191,224 2209,226 2233,226 2263,226 2293,222 2317,214 2331,206 2335,202 2339,198 2347,184 2357,164 2363,158 2367,154 2373,154 2393,152 2415,148 2467,132 2473,128 2483,120 2509,96 2529,68 2547,46 2563,34 2575,28 2595,26 2633,22 2767,6 2823,0 2835,2 " class="polyStyle" id="140623" style="fill:#d4ecb2"/>
<path d="" class="polyStyle" id="130822" style="fill:#fbe6ef"/>
<path d="" class="polyStyle" id="211221" style="fill:#f6f67b"/>
<path d="" class="polyStyle" id="210921" style="fill:#f6f67b"/>
<path d="" class="polyStyle" id="150223" style="fill:#f8c67d"/>
<path d="" class="polyStyle" id="220422" style="fill:#d4ecb2"/>
<path d="" class="polyStyle" id="340721" style="fill:#f6f67b"/>
<path d="" class="polyStyle" id="510824" style="fill:#d4ecb2"/>
<path d="" class="polyStyle" id="610324" style="fill:#f6f67b"/>
<path d="" class="polyStyle" id="530722" style="fill:#ee8b94"/>
<path d="" class="polyStyle" id="340823" style="fill:#d4ecb2"/>
<path d="" class="polyStyle" id="620825" style="fill:#d4ecb2"/>
<path d="" class="polyStyle" id="421125" style="fill:#ee8b94"/>
<path d="" class="polyStyle" id="210281" style="fill:#ee8b94"/>
<path d="" class="polyStyle" id="440883" style="fill:#f6f67b"/>
<path d="" class="polyStyle" id="469006" style="fill:#d4ecb2"/>
<path d="" class="polyStyle" id="469002" style="fill:#ee8b94"/>
<path d="" class="polyStyle" id="469005" style="fill:#fbe6ef"/>
<path d="" class="polyStyle" id="440882" style="fill:#ee8b94"/>
<path d="" class="polyStyle" id="450681" style="fill:#ee8b94"/>
<path d="" class="polyStyle" id="441581" style="fill:#d4ecb2"/>
<path d="" class="polyStyle" id="421087" style="fill:#ee8b94"/>
<path d="" class="polyStyle" id="420984" style="fill:#fbe6ef"/>
<path d="" class="polyStyle" id="420582" style="fill:#ee8b94"/>
<path d="" class="polyStyle" id="370282" style="fill:#f6f67b"/>
<path d="" class="polyStyle" id="371083" style="fill:#f6f67b"/>
<path d="" class="polyStyle" id="371082" style="fill:#fbe6ef"/>
<path d="" class="polyStyle" id="652801" style="fill:#f8c67d"/>
<path d="" class="polyStyle" id="654301" style="fill:#ee8b94"/>
<path d="" class="polyStyle" id="370687" style="fill:#ee8b94"/>
<path d="" class="polyStyle" id="371482" style="fill:#d4ecb2"/>
<path d="" class="polyStyle" id="421081" style="fill:#fbe6ef"/>
<path d="" class="polyStyle" id="429006" style="fill:#f6f67b"/>
<path d="" class="polyStyle" id="440982" style="fill:#d4ecb2"/>
<path d="" class="polyStyle" id="421181" style="fill:#d4ecb2"/>
<path d="" class="polyStyle" id="321181" style="fill:#d4ecb2"/>
<path d="" class="polyStyle" id="659007" style="fill:#ee8b94"/>
<path d="" class="polyStyle" id="652701" style="fill:#fbe6ef"/>
<path d="" class="polyStyle" id="210781" style="fill:#fbe6ef"/>
<path d="" class="polyStyle" id="460204" style="fill:#f6f67b"/>
<path d="" class="polyStyle" id="210211" style="fill:#f6f67b"/>
<path d="" class="polyStyle" id="450512" style="fill:#ee8b94"/>
<path d="" class="polyStyle" id="450602" style="fill:#fbe6ef"/>
<path d="" class="polyStyle" id="440404" style="fill:#ee8b94"/>
<path d="" class="polyStyle" id="440403" style="fill:#f6f67b"/>
<path d="" class="polyStyle" id="441502" style="fill:#f6f67b"/>
<path d="" class="polyStyle" id="431002" style="fill:#d4ecb2"/>
<path d="" class="polyStyle" id="500107" style="fill:#fbe6ef"/>
<path d="" class="polyStyle" id="430611" style="fill:#d4ecb2"/>
<path d="" class="polyStyle" id="511304" style="fill:#fbe6ef"/>
<path d="" class="polyStyle" id="340711" style="fill:#ee8b94"/>
<path d="" class="polyStyle" id="320118" style="fill:#f6f67b"/>
<path d="" class="polyStyle" id="510704" style="fill:#f6f67b"/>
<path d="" class="polyStyle" id="411502" style="fill:#ee8b94"/>
<path d="" class="polyStyle" id="320302" style="fill:#d4ecb2"/>
<path d="" class="polyStyle" id="140311" style="fill:#ee8b94"/>
<path d="" class="polyStyle" id="610802" style="fill:#ee8b94"/>
<path d="" class="polyStyle" id="120116" style="fill:#f6f67b"/>
<polygon points="3995,4251 4037,4293 4043,4301 4059,4314 4092,4350 4108,4362 4129,4393 4136,4429 4145,4445 4152,4462 4158,4470 4166,4487 4174,4493 4178,4501 4184,4508 4187,4517 4210,4559 4213,4567 4214,4576 4230,4619 4237,4645 4238,4654 4234,4680 4234,4690 4235,4698 4242,4715 4247,4742 4258,4767 4283,4797 4306,4837 4307,4846 4320,4881 4321,4890 4336,4951 4341,4978 4344,5014 4348,5031 4352,5040 4352,5049 4355,5066 4354,5102 4350,5129 4352,5138 4349,5146 4350,5156 4348,5164 4346,5182 4347,5191 4345,5200 4347,5230 4375,5244 4387,5257 4386,5290 4380,5303 4349,5324 4327,5335 4317,5358 4278,5383 4273,5390 4275,5403 4285,5421 4303,5447 4323,5453 4314,5480 4307,5487 4289,5497 4283,5498 4278,5506 4301,5526 4305,5535 4306,5544 4303,5561 4303,5568 4286,5579 4275,5580 4259,5578 4238,5571 4216,5566 4193,5564 4188,5570 4190,5578 4210,5587 4219,5593 4225,5600 4231,5602 4238,5609 4254,5632 4258,5650 4257,5659 4252,5676 4252,5685 4247,5693 4245,5702 4235,5718 4222,5731 4206,5748 4190,5761 4171,5771 4147,5790 4129,5802 4046,5842 4014,5852 3959,5863 3947,5864 3937,5862 3897,5845 3887,5839 3871,5835 3845,5852 3831,5866 3812,5877 3790,5897 3784,5905 3781,5914 3779,5931 3792,5966 3793,5984 3791,5993 3774,6005 3762,6017 3758,6026 3743,6040 3735,6040 3711,6048 3675,6049 3648,6054 3615,6038 3597,6040 3476,6054 3456,6053 3425,5998 3422,5989 3427,5981 3432,5963 3429,5945 3424,5938 3414,5933 3398,5928 3380,5928 3369,5930 3363,5929 3346,5931 3325,5924 3307,5913 3279,5865 3269,5831 3261,5814 3241,5792 3218,5788 3201,5787 3162,5793 3151,5790 3120,5766 3103,5763 3092,5766 3045,5790 3026,5797 2976,5823 2909,5869 2890,5889 2864,5907 2842,5915 2831,5922 2779,5947 2739,5975 2704,5987 2654,5993 2638,5990 2621,5979 2613,5970 2610,5953 2602,5937 2596,5931 2577,5925 2518,5916 2488,5918 2478,5930 2471,5944 2453,5947 2410,5972 2390,5974 2366,5969 2335,5957 2284,5919 2259,5903 2241,5896 2197,5883 2181,5875 2166,5873 2156,5888 2141,5893 2097,5887 2081,5896 2075,5907 2071,5920 2073,5937 2084,5969 2084,5978 2079,5993 2034,6007 2008,6008 1980,6001 1967,5990 1960,5980 1952,5968 1948,5954 1956,5935 1998,5924 2018,5914 2032,5901 2036,5886 2035,5875 2024,5859 2003,5849 1970,5848 1938,5854 1879,5862 1858,5862 1841,5854 1828,5838 1831,5818 1840,5804 1851,5778 1848,5743 1840,5731 1840,5713 1859,5694 1872,5685 1874,5676 1866,5673 1840,5677 1834,5673 1835,5656 1829,5630 1826,5619 1819,5612 1804,5607 1773,5588 1760,5583 1732,5591 1711,5592 1697,5586 1682,5585 1668,5591 1649,5607 1626,5615 1602,5618 1587,5612 1582,5603 1586,5590 1598,5576 1614,5547 1615,5528 1607,5479 1597,5470 1579,5463 1551,5456 1517,5440 1519,5421 1524,5408 1524,5389 1521,5380 1506,5368 1486,5358 1451,5335 1442,5321 1442,5303 1447,5287 1461,5261 1459,5250 1455,5243 1432,5236 1402,5213 1385,5193 1375,5169 1344,5157 1314,5149 1286,5126 1239,5113 1203,5111 1176,5116 1150,5118 1089,5114 1076,5119 1051,5146 1014,5176 1017,5203 1009,5215 993,5230 957,5244 941,5245 921,5230 910,5217 896,5194 895,5178 897,5172 898,5153 894,5146 864,5118 826,5074 798,5049 789,5045 768,5042 744,5034 739,5025 743,5016 752,5011 795,4997 828,4973 832,4963 827,4955 773,4928 764,4918 757,4905 753,4885 752,4869 766,4850 774,4836 752,4815 730,4804 670,4793 649,4782 629,4759 617,4738 607,4712 607,4694 619,4681 627,4670 630,4667 692,4681 702,4676 700,4656 711,4654 721,4659 742,4657 767,4652 783,4655 800,4661 816,4669 824,4676 867,4701 899,4731 914,4734 944,4724 956,4712 963,4708 967,4702 974,4676 981,4672 998,4669 1051,4665 1061,4662 1082,4611 1088,4601 1107,4593 1120,4591 1135,4581 1171,4551 1180,4520 1179,4488 1185,4471 1195,4456 1201,4441 1224,4437 1245,4427 1252,4413 1267,4394 1281,4391 1297,4391 1305,4395 1329,4402 1376,4373 1428,4314 1442,4305 1465,4306 1501,4325 1547,4326 1586,4323 1619,4325 1634,4334 1671,4368 1682,4381 1694,4400 1698,4411 1706,4420 1728,4424 1768,4423 1787,4420 1817,4401 1838,4400 1852,4412 1865,4436 1871,4451 1891,4460 1897,4468 1903,4485 1912,4495 1924,4503 1952,4500 1984,4487 2010,4487 2036,4492 2054,4491 2079,4488 2096,4484 2108,4477 2123,4475 2131,4477 2158,4474 2162,4466 2168,4459 2162,4450 2141,4438 2139,4428 2145,4426 2191,4421 2252,4420 2289,4415 2309,4406 2331,4382 2328,4374 2314,4366 2311,4350 2325,4343 2342,4341 2363,4345 2394,4343 2407,4341 2428,4328 2445,4329 2464,4333 2481,4339 2503,4339 2522,4335 2550,4323 2589,4332 2641,4365 2682,4362 2717,4368 2754,4379 2784,4390 2822,4395 2849,4394 2895,4388 2958,4370 2965,4354 2976,4340 3020,4319 3045,4313 3054,4309 3066,4309 3089,4318 3142,4303 3153,4304 3159,4309 3172,4334 3186,4377 3190,4385 3201,4392 3229,4402 3240,4411 3257,4445 3272,4448 3323,4434 3382,4414 3410,4410 3419,4404 3419,4397 3410,4380 3421,4369 3445,4360 3466,4324 3503,4288 3511,4282 3518,4281 3549,4291 3573,4301 3591,4322 3634,4324 3663,4317 3697,4324 3740,4339 3761,4329 3799,4296 3844,4248 3871,4239 3909,4229 3949,4212 3977,4229 " class="polyStyle" id="140602" style="fill:#ee8b94"/>
<polygon points="1183,1676 1189,1685 1197,1693 1194,1704 1196,1730 1204,1745 1206,1753 1216,1755 1242,1730 1254,1729 1268,1746 1289,1764 1297,1783 1300,1804 1293,1823 1273,1858 1282,1866 1284,1883 1307,1897 1325,1900 1388,1928 1406,1940 1427,1957 1443,1967 1448,1981 1445,1996 1438,2010 1433,2025 1440,2045 1451,2062 1460,2089 1474,2100 1516,2114 1529,2144 1578,2173 1614,2188 1676,2207 1675,2213 1655,2244 1652,2256 1635,2266 1633,2275 1647,2281 1661,2280 1702,2242 1714,2237 1728,2235 1753,2247 1804,2244 1814,2252 1821,2272 1836,2294 1839,2302 1823,2364 1826,2379 1899,2416 1919,2415 1917,2399 1921,2390 1933,2386 1962,2383 1975,2375 1976,2356 1993,2347 2008,2354 2017,2365 2099,2423 2111,2441 2112,2452 2105,2463 2103,2470 2096,2476 2080,2482 2053,2496 2047,2503 2044,2523 2040,2535 2048,2551 2055,2563 2073,2568 2080,2573 2096,2578 2113,2580 2134,2596 2140,2596 2152,2608 2157,2623 2184,2646 2191,2656 2191,2677 2188,2690 2190,2702 2196,2708 2213,2711 2224,2716 2242,2712 2255,2704 2271,2711 2277,2723 2287,2722 2295,2716 2302,2708 2320,2700 2336,2703 2368,2718 2377,2726 2382,2736 2381,2748 2362,2828 2372,2859 2411,2859 2431,2855 2450,2849 2468,2847 2478,2849 2484,2854 2487,2861 2484,2870 2472,2880 2476,2898 2485,2908 2521,2968 2529,2997 2536,3003 2559,2996 2573,2997 2590,3009 2648,3007 2656,3024 2667,3038 2678,3045 2687,3044 2695,3041 2696,3021 2707,3010 2745,3006 2783,3047 2785,3083 2780,3089 2776,3101 2781,3108 2804,3121 2838,3146 2843,3185 2819,3226 2800,3251 2776,3271 2742,3275 2733,3281 2713,3280 2697,3287 2677,3292 2667,3297 2667,3307 2670,3314 2679,3323 2701,3333 2786,3341 2804,3345 2812,3350 2817,3357 2820,3372 2821,3391 2821,3412 2815,3430 2814,3438 2821,3442 2835,3445 2859,3454 2875,3465 2883,3473 2895,3479 2925,3488 2928,3494 2930,3521 2934,3531 2945,3549 2959,3561 2965,3565 2988,3568 3006,3573 3017,3573 3028,3572 3038,3569 3059,3557 3079,3549 3097,3538 3103,3538 3114,3535 3131,3534 3159,3539 3176,3540 3188,3539 3209,3533 3248,3526 3277,3528 3320,3542 3326,3542 3356,3555 3362,3562 3360,3570 3344,3584 3307,3628 3293,3652 3290,3661 3292,3679 3324,3716 3349,3734 3368,3744 3374,3752 3378,3769 3380,3787 3386,3805 3405,3847 3406,3856 3415,3872 3431,3896 3438,3904 3456,3936 3463,3943 3473,3946 3508,3945 3548,3939 3569,3931 3584,3919 3595,3893 3606,3877 3615,3872 3631,3869 3649,3868 3694,3877 3711,3879 3797,3883 3805,3889 3809,3942 3820,3959 3818,3967 3818,3976 3822,3983 3845,3994 3862,4005 3869,4011 3873,4021 3913,4052 3928,4066 3953,4083 3968,4097 3984,4119 3986,4128 3982,4136 3951,4173 3947,4182 3946,4200 3948,4209 3949,4212 3909,4229 3871,4239 3844,4248 3799,4296 3761,4329 3740,4339 3697,4324 3663,4317 3634,4324 3591,4322 3573,4301 3549,4291 3518,4281 3511,4282 3503,4288 3466,4324 3445,4360 3421,4369 3410,4380 3419,4397 3419,4404 3410,4410 3382,4414 3323,4434 3272,4448 3257,4445 3240,4411 3229,4402 3201,4392 3190,4385 3186,4377 3172,4334 3159,4309 3153,4304 3142,4303 3089,4318 3066,4309 3054,4309 3045,4313 3020,4319 2976,4340 2965,4354 2958,4370 2895,4388 2849,4394 2822,4395 2784,4390 2754,4379 2717,4368 2682,4362 2641,4365 2589,4332 2550,4323 2522,4335 2503,4339 2481,4339 2464,4333 2445,4329 2428,4328 2407,4341 2394,4343 2363,4345 2342,4341 2325,4343 2311,4350 2314,4366 2328,4374 2331,4382 2309,4406 2289,4415 2252,4420 2191,4421 2145,4426 2139,4428 2141,4438 2162,4450 2168,4459 2162,4466 2158,4474 2131,4477 2123,4475 2108,4477 2096,4484 2079,4488 2054,4491 2036,4492 2010,4487 1984,4487 1952,4500 1924,4503 1912,4495 1903,4485 1897,4468 1891,4460 1871,4451 1865,4436 1852,4412 1838,4400 1817,4401 1787,4420 1768,4423 1728,4424 1706,4420 1698,4411 1694,4400 1682,4381 1671,4368 1634,4334 1619,4325 1586,4323 1547,4326 1501,4325 1465,4306 1442,4305 1428,4314 1376,4373 1329,4402 1305,4395 1297,4391 1281,4391 1267,4394 1252,4413 1245,4427 1224,4437 1201,4441 1195,4456 1185,4471 1179,4488 1180,4520 1171,4551 1135,4581 1120,4591 1107,4593 1088,4601 1082,4611 1061,4662 1051,4665 998,4669 981,4672 974,4676 967,4702 963,4708 956,4712 944,4724 914,4734 899,4731 867,4701 824,4676 816,4669 800,4661 783,4655 767,4652 742,4657 721,4659 711,4654 700,4656 702,4676 692,4681 630,4667 624,4653 614,4646 608,4638 561,4597 553,4587 544,4582 541,4575 546,4562 562,4533 569,4496 569,4483 566,4474 560,4462 551,4446 536,4438 518,4435 507,4431 502,4415 502,4397 500,4380 456,4336 447,4307 444,4290 447,4266 445,4255 435,4251 421,4252 413,4255 402,4266 389,4271 379,4269 353,4260 300,4228 277,4204 267,4197 223,4181 212,4180 190,4182 154,4199 140,4203 126,4203 120,4201 111,4191 108,4179 112,4159 117,4149 116,4129 93,4111 79,4080 62,4071 42,4064 28,4047 18,4028 11,4010 4,3989 0,3970 10,3960 42,3943 59,3936 73,3927 126,3916 168,3899 187,3888 207,3880 222,3887 245,3885 254,3880 271,3875 290,3876 322,3883 338,3884 357,3879 377,3871 401,3869 438,3876 459,3876 471,3878 486,3871 498,3862 538,3852 545,3848 549,3837 542,3819 519,3798 451,3761 440,3746 423,3729 390,3702 365,3697 352,3687 348,3680 330,3658 309,3637 260,3607 229,3581 221,3568 214,3546 209,3524 206,3498 200,3479 186,3458 170,3449 173,3448 177,3434 181,3422 191,3406 227,3384 233,3374 233,3370 231,3362 225,3356 211,3354 189,3352 181,3348 175,3344 171,3334 173,3324 183,3308 191,3292 197,3282 199,3274 201,3268 197,3258 151,3214 143,3204 137,3192 131,3176 133,3164 137,3156 147,3148 159,3140 191,3128 209,3118 267,3072 283,3058 303,3036 325,3004 347,2970 355,2954 369,2944 359,2928 345,2888 341,2864 343,2842 353,2792 363,2708 365,2642 359,2560 363,2544 369,2528 379,2518 425,2490 455,2468 569,2364 603,2330 619,2310 633,2290 655,2260 675,2230 693,2204 729,2130 735,2114 735,2104 733,2078 735,2062 771,2006 781,1992 789,1984 797,1980 821,1974 835,1966 851,1952 873,1926 897,1890 955,1788 1009,1706 1043,1664 1063,1642 1091,1609 1131,1641 " class="polyStyle" id="140603" style="fill:#fbe6ef"/>
<path d="" class="polyStyle" id="130303" style="fill:#fbe6ef"/>
<path d="" class="polyStyle" id="140211" style="fill:#f6f67b"/>
<path d="" class="polyStyle" id="150207" style="fill:#fbe6ef"/>
<path d="" class="polyStyle" id="211403" style="fill:#f6f67b"/>
<path d="" class="polyStyle" id="150802" style="fill:#f8c67d"/>
<path d="" class="polyStyle" id="210112" style="fill:#ee8b94"/>
<path d="" class="polyStyle" id="230406" style="fill:#d4ecb2"/>
<path d="" class="polyStyle" id="110113" style="fill:#fbe6ef"/>
<path d="" class="polyStyle" id="341702" style="fill:#fbe6ef"/>
<path d="" class="polyStyle" id="420303" style="fill:#ee8b94"/>
<path d="" class="polyStyle" id="340702" style="fill:#d4ecb2"/>
<path d="" class="polyStyle" id="421002" style="fill:#f6f67b"/>
<path d="" class="polyStyle" id="420117" style="fill:#f6f67b"/>
<path d="" class="polyStyle" id="440904" style="fill:#f8c67d"/>
<path d="" class="polyStyle" id="460205" style="fill:#ee8b94"/>
<path d="" class="polyStyle" id="460202" style="fill:#f6f67b"/>
<path d="" class="polyStyle" id="460203" style="fill:#fbe6ef"/>
<path d="" class="polyStyle" id="420304" style="fill:#f6f67b"/>
<path d="" class="polyStyle" id="445302" style="fill:#ee8b94"/>
<path d="" class="polyStyle" id="410202" style="fill:#d4ecb2"/>
<path d="" class="polyStyle" id="440800" style="fill:#f6f67b"/>
<path d="" class="polyStyle" id="440900" style="fill:#ee8b94"/>
<path d="" class="polyStyle" id="340800" style="fill:#ee8b94"/>
<path d="" class="polyStyle" id="460200" style="fill:#f6f67b"/>
<path d="" class="polyStyle" id="460000" style="fill:#ee8b94"/>
<path d="" class="polyStyle" id="450500" style="fill:#ee8b94"/>
<path d="" class="polyStyle" id="450600" style="fill:#ee8b94"/>
<path d="" class="polyStyle" id="440400" style="fill:#f6f67b"/>
<path d="" class="polyStyle" id="441700" style="fill:#f6f67b"/>
<path d="" class="polyStyle" id="441500" style="fill:#f6f67b"/>
<path d="" class="polyStyle" id="350600" style="fill:#ee8b94"/>
<path d="" class="polyStyle" id="710000" style="fill:#f6f67b"/>
<path d="" class="polyStyle" id="510400" style="fill:#f6f67b"/>
<path d="" class="polyStyle" id="522600" style="fill:#fbe6ef"/>
<path d="" class="polyStyle" id="520500" style="fill:#ee8b94"/>
<path d="" class="polyStyle" id="431200" style="fill:#f6f67b"/>
<path d="" class="polyStyle" id="430600" style="fill:#f6f67b"/>
<path d="" class="polyStyle" id="511400" style="fill:#d4ecb2"/>
<path d="" class="polyStyle" id="421000" style="fill:#ee8b94"/>
<path d="" class="polyStyle" id="341700" style="fill:#f6f67b"/>
<path d="" class="polyStyle" id="420500" style="fill:#f6f67b"/>
<path d="" class="polyStyle" id="511300" style="fill:#f6f67b"/>
<path d="" class="polyStyle" id="420900" style="fill:#f6f67b"/>
<path d="" class="polyStyle" id="511700" style="fill:#ee8b94"/>
<path d="" class="polyStyle" id="420600" style="fill:#d4ecb2"/>
<path d="" class="polyStyle" id="411500" style="fill:#fbe6ef"/>
<path d="" class="polyStyle" id="510800" style="fill:#ee8b94"/>
<path d="" class="polyStyle" id="420300" style="fill:#fbe6ef"/>
<path d="" class="polyStyle" id="611000" style="fill:#ee8b94"/>
<path d="" class="polyStyle" id="620800" style="fill:#fbe6ef"/>
<path d="" class="polyStyle" id="370200" style="fill:#ee8b94"/>
<path d="" class="polyStyle" id="371000" style="fill:#f6f67b"/>
<path d="" class="polyStyle" id="370600" style="fill:#fbe6ef"/>
<path d="" class="polyStyle" id="120000" style="fill:#f6f67b"/>
<path d="" class="polyStyle" id="130200" style="fill:#ee8b94"/>
<path d="" class="polyStyle" id="130300" style="fill:#f6f67b"/>
<path d="" class="polyStyle" id="652900" style="fill:#fbe6ef"/>
<path d="" class="polyStyle" id="150500" style="fill:#d4ecb2"/>
<path d="" class="polyStyle" id="" style="fill:#d4ecb2"/>
<path d="" class="polyStyle" id="350500" style="fill:#fbe6ef"/>
<path d="" class="polyStyle" id="440400" style="fill:#f6f67b"/>
<path d="" class="polyStyle" id="421100" style="fill:#d4ecb2"/>
<path d="" class="polyStyle" id="420100" style="fill:#fbe6ef"/>
<path d="" class="polyStyle" id="532500" style="fill:#fbe6ef"/>
<path d="" class="polyStyle" id="654200" style="fill:#fbe6ef"/>
<path d="" class="polyStyle" id="210700" style="fill:#d4ecb2"/>
<path d="" class="polyStyle" id="522300" style="fill:#fbe6ef"/>
<path d="" class="polyStyle" id="" style="fill:#ee8b94"/>
<path d="" class="polyStyle" id="440400" style="fill:#f6f67b"/>
<path d="" class="polyStyle" id="620000" style="fill:#f6f67b"/>
<path d="" class="polyStyle" id="430000" style="fill:#fbe6ef"/>
<path d="" class="polyStyle" id="420000" style="fill:#ee8b94"/>
<path d="" class="polyStyle" id="410000" style="fill:#f6f67b"/>
<path d="" class="polyStyle" id="350000" style="fill:#fbe6ef"/>
<path d="" class="polyStyle" id="520000" style="fill:#f6f67b"/>
<path d="" class="polyStyle" id="" style="fill:#ee8b94"/>
</svg>
