<?xml version="1.0" encoding="UTF-8"?>
<!DOCTYPE svg PUBLIC "-//W3C//DTD SVG 1.1 Tiny//EN" "http://www.w3.org/Graphics/SVG/1.1/DTD/svg11-tiny.dtd">
<svg version="1.1" xmlns="http://www.w3.org/2000/svg" xmlns:xlink="http://www.w3.org/1999/xlink" width="100%" height="100%" viewBox="0,0,9228,6190">
<title>SVG</title>
<desc>Poligon Test</desc>
<style id="style_css_sheet" type="text/css">
.polyStyle{fill: #cccccc;stroke-width:0;fill-rule:evenodd;}
</style>
<circle cx="2391" cy="1184" r="200" stroke="black" stroke-width="1" fill="red" id="140882" name="河津市"/>
<circle cx="1074" cy="4770" r="200" stroke="black" stroke-width="1" fill="red" id="140881" name="永济市"/>
<circle cx="4950" cy="1039" r="200" stroke="black" stroke-width="1" fill="red" id="140825" name="新绛县"/>
<circle cx="2671" cy="3354" r="200" stroke="black" stroke-width="1" fill="red" id="140821" name="临猗县"/>
<circle cx="3011" cy="2022" r="200" stroke="black" stroke-width="1" fill="red" id="140822" name="万荣县"/>
<circle cx="3705" cy="1114" r="200" stroke="black" stroke-width="1" fill="red" id="140824" name="稷山县"/>
<circle cx="6681" cy="1655" r="200" stroke="black" stroke-width="1" fill="red" id="140826" name="绛县"/>
<circle cx="7163" cy="2571" r="200" stroke="black" stroke-width="1" fill="red" id="140827" name="垣曲县"/>
<circle cx="4938" cy="3423" r="200" stroke="black" stroke-width="1" fill="red" id="140828" name="夏县"/>
<circle cx="4930" cy="2329" r="200" stroke="black" stroke-width="1" fill="red" id="140823" name="闻喜县"/>
<circle cx="4908" cy="4919" r="200" stroke="black" stroke-width="1" fill="red" id="140829" name="平陆县"/>
<circle cx="2282" cy="5633" r="200" stroke="black" stroke-width="1" fill="red" id="140830" name="芮城县"/>
<circle cx="3839" cy="4042" r="200" stroke="black" stroke-width="1" fill="red" id="140802" name="盐湖区"/>
<path d="" class="polyStyle" id="" style="fill:#ee8b94"/>
<path d="" class="polyStyle" id="623022" style="fill:#fbe6ef"/>
<path d="" class="polyStyle" id="211421" style="fill:#f6f67b"/>
<path d="" class="polyStyle" id="532524" style="fill:#ee8b94"/>
<path d="" class="polyStyle" id="440825" style="fill:#f6f67b"/>
<path d="" class="polyStyle" id="441721" style="fill:#f6f67b"/>
<path d="" class="polyStyle" id="450521" style="fill:#f6f67b"/>
<path d="" class="polyStyle" id="450123" style="fill:#fbe6ef"/>
<path d="" class="polyStyle" id="350624" style="fill:#f6f67b"/>
<path d="" class="polyStyle" id="" style="fill:#fbe6ef"/>
<path d="" class="polyStyle" id="451224" style="fill:#fbe6ef"/>
<path d="" class="polyStyle" id="350627" style="fill:#f6f67b"/>
<path d="" class="polyStyle" id="" style="fill:#f6f67b"/>
<path d="" class="polyStyle" id="350525" style="fill:#f6f67b"/>
<path d="" class="polyStyle" id="530124" style="fill:#ee8b94"/>
<path d="" class="polyStyle" id="522627" style="fill:#ee8b94"/>
<path d="" class="polyStyle" id="510421" style="fill:#fbe6ef"/>
<path d="" class="polyStyle" id="522623" style="fill:#d4ecb2"/>
<path d="" class="polyStyle" id="430321" style="fill:#d4ecb2"/>
<path d="" class="polyStyle" id="511129" style="fill:#d4ecb2"/>
<path d="" class="polyStyle" id="511423" style="fill:#ee8b94"/>
<path d="" class="polyStyle" id="421023" style="fill:#f6f67b"/>
<path d="" class="polyStyle" id="511724" style="fill:#f6f67b"/>
<path d="" class="polyStyle" id="420526" style="fill:#fbe6ef"/>
<path d="" class="polyStyle" id="511923" style="fill:#fbe6ef"/>
<path d="" class="polyStyle" id="420325" style="fill:#fbe6ef"/>
<path d="" class="polyStyle" id="511921" style="fill:#f6f67b"/>
<path d="" class="polyStyle" id="542525" style="fill:#f6f67b"/>
<path d="" class="polyStyle" id="611026" style="fill:#ee8b94"/>
<path d="" class="polyStyle" id="411023" style="fill:#fbe6ef"/>
<polygon points="3326,4917 3326,4931 3337,4942 3356,4967 3373,4981 3394,4988 3404,4997 3410,5004 3415,5018 3428,5037 3433,5043 3455,5060 3460,5066 3468,5088 3461,5107 3452,5123 3446,5123 3440,5127 3435,5135 3435,5142 3432,5148 3424,5145 3415,5189 3423,5215 3430,5255 3427,5267 3427,5285 3424,5294 3425,5301 3432,5319 3429,5341 3450,5353 3466,5366 3486,5364 3493,5366 3504,5371 3514,5385 3522,5385 3536,5388 3543,5395 3554,5399 3559,5393 3565,5395 3574,5392 3580,5388 3586,5388 3614,5390 3645,5402 3656,5401 3662,5402 3659,5409 3645,5415 3642,5421 3643,5427 3635,5428 3629,5432 3619,5433 3604,5431 3598,5433 3587,5429 3549,5435 3538,5462 3536,5465 3520,5458 3508,5452 3490,5446 3460,5442 3446,5444 3422,5454 3414,5466 3402,5506 3398,5554 3396,5586 3394,5614 3392,5626 3386,5652 3374,5686 3364,5714 3338,5768 3328,5784 3312,5800 3270,5848 3262,5860 3246,5878 3230,5892 3220,5900 3184,5922 3176,5924 3164,5924 3122,5912 3108,5906 3102,5906 3086,5900 3072,5898 3060,5900 3032,5912 3018,5920 2994,5944 2976,5956 2968,5964 2946,5978 2934,5978 2922,5976 2910,5970 2876,5954 2854,5940 2810,5908 2786,5886 2772,5876 2748,5860 2712,5848 2698,5846 2676,5846 2630,5836 2592,5836 2568,5844 2556,5854 2542,5882 2530,5896 2514,5920 2486,5936 2438,5954 2416,5970 2402,6006 2390,6034 2386,6052 2378,6068 2370,6076 2358,6082 2346,6084 2340,6080 2332,6078 2318,6066 2306,6052 2302,6048 2294,6046 2288,6046 2282,6050 2272,6056 2254,6078 2242,6096 2228,6130 2222,6136 2200,6146 2166,6158 2146,6160 2134,6158 2124,6156 2092,6144 2074,6134 2054,6118 2046,6112 2018,6100 1974,6086 1952,6076 1930,6068 1908,6054 1884,6046 1866,6048 1842,6062 1834,6066 1802,6094 1774,6120 1764,6126 1744,6136 1718,6144 1698,6148 1648,6156 1596,6172 1532,6188 1516,6190 1508,6190 1482,6184 1464,6176 1444,6164 1422,6152 1408,6144 1390,6130 1374,6118 1358,6104 1336,6092 1312,6076 1260,6046 1226,6030 1212,6022 1192,6018 1176,6014 1164,6014 1154,6018 1142,6026 1130,6034 1102,6062 1074,6084 1050,6098 1020,6116 992,6136 960,6154 922,6162 880,6156 838,6144 826,6142 802,6132 772,6114 762,6106 756,6104 748,6102 736,6102 707,6105 656,6084 628,6074 616,6072 584,6070 560,6068 536,6066 526,6068 478,6068 424,6064 358,6064 342,6062 330,6058 290,6044 274,6038 250,6028 212,6012 184,6000 160,5986 120,5960 110,5952 98,5940 84,5930 72,5918 51,5889 48,5884 34,5854 20,5818 16,5792 20,5776 22,5766 26,5739 78,5733 84,5732 90,5732 95,5732 102,5733 111,5734 118,5735 126,5734 131,5735 138,5735 145,5734 153,5731 158,5730 162,5729 167,5728 173,5728 181,5725 189,5725 202,5727 213,5726 226,5723 231,5718 235,5709 242,5701 246,5694 246,5676 245,5667 245,5663 248,5654 252,5645 260,5638 264,5625 260,5615 248,5604 246,5598 247,5595 250,5588 259,5583 266,5571 270,5563 279,5563 289,5558 295,5553 298,5546 307,5535 310,5524 313,5516 318,5513 325,5505 336,5491 337,5483 337,5472 333,5463 334,5457 336,5451 342,5443 343,5436 346,5432 353,5433 359,5432 363,5431 367,5429 374,5430 383,5431 388,5429 388,5424 384,5417 379,5413 376,5410 374,5405 378,5404 383,5404 389,5407 392,5410 400,5413 411,5415 417,5415 419,5413 413,5407 407,5405 402,5402 398,5394 395,5390 397,5386 400,5382 400,5376 405,5373 411,5372 412,5367 418,5361 424,5353 432,5350 441,5351 453,5353 457,5359 458,5363 463,5367 465,5370 468,5376 470,5378 476,5381 480,5381 485,5384 490,5386 493,5386 495,5382 496,5378 498,5376 503,5376 508,5371 512,5369 520,5367 526,5364 529,5362 532,5358 538,5356 546,5354 552,5353 562,5348 573,5344 581,5340 581,5336 581,5331 586,5328 589,5326 595,5325 605,5324 620,5318 628,5314 637,5308 641,5307 650,5307 664,5309 679,5309 689,5307 693,5307 701,5306 708,5305 716,5305 722,5304 728,5301 736,5299 743,5295 748,5293 752,5290 754,5287 759,5285 768,5283 777,5283 783,5284 802,5283 809,5280 818,5279 826,5279 831,5279 841,5280 853,5282 861,5286 870,5291 876,5291 884,5288 897,5280 905,5276 926,5267 933,5263 940,5259 949,5253 955,5248 959,5245 966,5240 970,5236 976,5232 986,5222 992,5215 996,5210 1000,5207 1004,5204 1014,5205 1021,5204 1025,5205 1032,5206 1039,5207 1042,5209 1045,5212 1048,5214 1052,5214 1056,5216 1061,5221 1066,5223 1071,5225 1074,5226 1080,5226 1089,5224 1092,5220 1095,5215 1098,5212 1103,5210 1107,5212 1111,5214 1115,5214 1118,5214 1121,5213 1124,5211 1128,5210 1134,5209 1143,5205 1148,5205 1154,5207 1156,5210 1160,5212 1164,5213 1168,5210 1174,5206 1179,5204 1183,5204 1189,5204 1192,5201 1192,5197 1198,5197 1202,5200 1205,5203 1210,5204 1218,5207 1224,5207 1233,5207 1238,5204 1242,5198 1244,5190 1252,5170 1260,5153 1271,5148 1273,5144 1276,5141 1281,5132 1283,5124 1286,5119 1290,5116 1294,5112 1300,5107 1305,5103 1311,5098 1315,5095 1319,5092 1323,5090 1327,5088 1332,5088 1339,5087 1346,5084 1351,5079 1352,5074 1356,5069 1362,5070 1366,5071 1369,5074 1373,5076 1383,5083 1395,5086 1401,5089 1412,5092 1415,5092 1419,5093 1428,5097 1433,5097 1438,5096 1446,5091 1459,5087 1478,5087 1495,5088 1508,5089 1521,5084 1533,5080 1541,5079 1544,5079 1547,5079 1549,5079 1559,5083 1565,5086 1574,5091 1586,5099 1591,5104 1595,5108 1599,5113 1604,5118 1607,5123 1612,5126 1617,5129 1620,5130 1625,5131 1630,5131 1635,5131 1639,5131 1644,5131 1648,5131 1651,5130 1654,5130 1658,5131 1670,5137 1674,5141 1680,5142 1686,5145 1691,5148 1698,5150 1702,5151 1707,5152 1712,5152 1720,5152 1727,5152 1739,5152 1753,5151 1764,5151 1774,5148 1779,5145 1783,5143 1786,5141 1791,5137 1801,5124 1805,5124 1817,5127 1821,5130 1833,5134 1842,5136 1850,5140 1855,5142 1864,5145 1874,5145 1878,5146 1886,5147 1900,5146 1911,5146 1920,5145 1929,5145 1937,5144 1943,5143 1951,5142 1956,5143 1961,5145 1970,5149 1980,5154 1990,5159 2001,5165 2009,5169 2014,5172 2019,5177 2022,5180 2027,5183 2032,5185 2037,5186 2041,5186 2044,5188 2047,5190 2051,5190 2055,5190 2060,5191 2069,5196 2072,5197 2080,5200 2086,5201 2091,5203 2097,5201 2104,5201 2117,5195 2124,5191 2130,5187 2138,5186 2141,5184 2142,5178 2144,5167 2147,5163 2159,5158 2164,5159 2173,5156 2181,5152 2185,5145 2186,5138 2186,5127 2188,5116 2190,5112 2196,5110 2209,5106 2240,5093 2256,5083 2275,5076 2283,5071 2293,5070 2297,5072 2305,5084 2312,5111 2321,5123 2333,5132 2341,5137 2346,5138 2351,5137 2358,5129 2371,5118 2386,5109 2397,5106 2406,5101 2420,5095 2430,5092 2436,5086 2443,5075 2447,5069 2455,5064 2465,5063 2477,5061 2490,5062 2497,5062 2505,5060 2519,5056 2523,5056 2532,5055 2545,5055 2555,5052 2564,5050 2572,5047 2576,5046 2582,5046 2586,5046 2594,5046 2599,5045 2604,5045 2610,5041 2616,5039 2622,5036 2627,5034 2631,5034 2637,5033 2642,5032 2646,5031 2651,5029 2655,5028 2658,5027 2660,5024 2665,5019 2668,5010 2680,4999 2702,4988 2718,4984 2740,4986 2746,4984 2763,4983 2779,4987 2786,4994 2793,4997 2818,4994 2852,5009 2866,5011 2873,5010 2897,4985 2908,4976 2928,4951 2944,4942 2969,4935 2986,4933 3006,4925 3015,4924 3027,4926 3035,4934 3048,4924 3056,4922 3071,4921 3088,4926 3110,4921 3137,4910 3143,4910 3176,4919 3211,4933 3235,4937 3242,4935 3263,4935 3269,4933 3284,4922 3286,4914 3296,4902 3307,4904 3316,4904 3322,4901 3329,4894 3335,4898 " class="polyStyle" id="140830" style="fill:#fbe6ef"/>
<polygon points="4754,4036 4771,4041 4786,4052 4793,4040 4850,4031 4896,4049 4912,4049 4932,4043 4945,4041 4960,4041 4982,4044 5001,4051 5034,4052 5055,4048 5066,4041 5076,4039 5093,4039 5121,4055 5142,4073 5152,4076 5156,4084 5156,4091 5162,4103 5168,4104 5164,4097 5161,4084 5168,4084 5185,4090 5213,4093 5243,4106 5250,4103 5252,4097 5267,4085 5277,4084 5293,4085 5304,4090 5329,4115 5349,4123 5365,4127 5377,4137 5384,4140 5396,4136 5418,4106 5424,4093 5435,4093 5461,4106 5467,4106 5473,4104 5486,4079 5493,4077 5500,4081 5506,4087 5510,4100 5518,4101 5542,4096 5555,4101 5563,4102 5578,4103 5599,4107 5603,4131 5614,4141 5622,4140 5633,4145 5639,4146 5648,4144 5657,4145 5672,4139 5681,4132 5691,4100 5701,4099 5718,4093 5737,4090 5745,4108 5769,4117 5779,4117 5780,4148 5787,4150 5797,4146 5813,4132 5824,4131 5833,4135 5832,4145 5822,4151 5822,4158 5838,4172 5848,4185 5849,4200 5865,4228 5866,4235 5863,4241 5845,4260 5851,4262 5868,4260 5884,4261 5908,4268 5912,4274 5904,4288 5904,4300 5911,4315 5929,4321 5935,4320 5942,4324 5954,4324 5961,4321 5971,4309 5989,4276 6001,4262 6014,4253 6020,4251 6047,4250 6055,4247 6061,4248 6067,4260 6073,4259 6079,4238 6086,4232 6118,4209 6177,4179 6193,4158 6209,4146 6204,4137 6204,4131 6218,4118 6224,4117 6235,4119 6249,4125 6260,4124 6268,4120 6278,4121 6283,4118 6288,4109 6295,4111 6303,4116 6314,4117 6325,4122 6333,4121 6341,4116 6333,4099 6338,4078 6342,4077 6358,4087 6367,4095 6389,4107 6393,4123 6387,4133 6392,4147 6402,4163 6413,4199 6421,4210 6419,4220 6424,4228 6435,4237 6442,4248 6444,4254 6443,4262 6433,4272 6442,4280 6462,4288 6469,4283 6478,4281 6491,4286 6493,4292 6483,4302 6489,4304 6502,4298 6517,4300 6521,4287 6528,4281 6531,4272 6538,4277 6545,4276 6543,4268 6546,4262 6556,4262 6563,4269 6572,4287 6574,4299 6546,4303 6551,4311 6602,4323 6672,4329 6738,4349 6871,4403 6878,4411 6889,4417 6887,4425 6879,4429 6885,4451 6890,4459 6908,4449 6916,4456 6923,4453 6933,4441 6935,4435 6944,4435 6953,4438 6956,4446 6964,4441 6966,4448 6979,4449 6993,4453 6995,4454 6983,4465 6980,4470 6973,4483 6967,4490 6956,4497 6943,4504 6937,4510 6933,4520 6931,4534 6928,4556 6921,4574 6910,4616 6906,4622 6898,4626 6887,4628 6872,4628 6862,4629 6834,4639 6820,4644 6810,4650 6802,4656 6790,4669 6785,4679 6781,4697 6779,4729 6779,4751 6777,4764 6775,4773 6768,4789 6758,4806 6743,4816 6740,4820 6730,4840 6721,4849 6698,4866 6681,4880 6668,4887 6658,4890 6651,4890 6644,4890 6637,4887 6633,4884 6630,4882 6627,4877 6624,4874 6615,4857 6602,4849 6590,4844 6565,4839 6534,4842 6501,4849 6464,4856 6445,4863 6431,4873 6417,4889 6402,4902 6389,4908 6367,4909 6362,4913 6358,4921 6351,4932 6343,4940 6325,4953 6309,4961 6296,4963 6278,4963 6263,4964 6241,4972 6214,4977 6177,4974 6150,4973 6141,4972 6130,4965 6120,4958 6086,4928 6074,4923 6052,4922 6032,4919 6017,4916 6007,4920 5998,4927 5987,4942 5971,4954 5954,4962 5932,4967 5914,4966 5899,4968 5885,4972 5872,4979 5855,4990 5836,5010 5818,5021 5816,5023 5798,5030 5777,5030 5747,5022 5704,5011 5646,5003 5620,4998 5597,4990 5589,4985 5578,4973 5570,4959 5560,4952 5549,4948 5530,4946 5513,4950 5498,4965 5473,4986 5448,5000 5419,5006 5393,5009 5375,5012 5341,5032 5307,5053 5280,5069 5263,5071 5248,5067 5228,5055 5203,5046 5176,5029 5150,5018 5130,5008 5110,5001 5094,5007 5073,5027 5040,5086 5026,5121 5007,5140 4984,5153 4962,5159 4938,5158 4918,5152 4904,5140 4898,5127 4891,5114 4874,5103 4853,5095 4805,5088 4775,5090 4746,5094 4726,5093 4708,5086 4675,5055 4649,5031 4632,5028 4613,5031 4590,5041 4568,5058 4530,5101 4501,5148 4498,5153 4463,5216 4444,5268 4432,5301 4418,5316 4395,5324 4344,5332 4260,5336 4184,5341 4104,5357 4056,5372 3996,5399 3969,5412 3931,5430 3907,5443 3890,5453 3871,5464 3864,5468 3846,5478 3816,5496 3762,5538 3746,5546 3734,5556 3716,5568 3692,5584 3676,5588 3668,5586 3662,5582 3656,5576 3648,5558 3640,5548 3634,5538 3626,5528 3616,5516 3590,5496 3576,5488 3550,5472 3536,5465 3538,5462 3549,5435 3587,5429 3598,5433 3604,5431 3619,5433 3629,5432 3635,5428 3643,5427 3642,5421 3645,5415 3659,5409 3662,5402 3656,5401 3645,5402 3614,5390 3586,5388 3580,5388 3574,5392 3565,5395 3559,5393 3554,5399 3543,5395 3536,5388 3522,5385 3514,5385 3504,5371 3493,5366 3486,5364 3466,5366 3450,5353 3429,5341 3432,5319 3425,5301 3424,5294 3427,5285 3427,5267 3430,5255 3423,5215 3415,5189 3424,5145 3432,5148 3435,5142 3435,5135 3440,5127 3446,5123 3452,5123 3461,5107 3468,5088 3460,5066 3455,5060 3433,5043 3428,5037 3415,5018 3410,5004 3404,4997 3394,4988 3373,4981 3356,4967 3337,4942 3326,4931 3326,4917 3335,4898 3329,4894 3322,4901 3316,4904 3307,4904 3296,4902 3300,4898 3305,4890 3319,4879 3328,4873 3346,4867 3362,4869 3369,4865 3375,4859 3404,4838 3421,4828 3437,4816 3463,4782 3469,4781 3495,4784 3508,4780 3535,4740 3542,4734 3548,4731 3572,4729 3594,4724 3625,4723 3632,4720 3653,4695 3661,4679 3671,4675 3686,4672 3700,4673 3731,4670 3739,4672 3752,4661 3761,4651 3776,4639 3811,4622 3851,4607 3863,4614 3880,4620 3912,4618 3907,4603 3925,4576 3957,4542 3966,4523 3976,4518 3997,4518 4018,4511 4022,4499 4032,4494 4048,4493 4063,4495 4090,4479 4102,4480 4117,4477 4121,4470 4120,4458 4123,4452 4155,4438 4159,4423 4173,4413 4176,4402 4195,4392 4204,4373 4214,4368 4233,4369 4245,4365 4257,4358 4279,4354 4291,4350 4297,4338 4315,4328 4326,4326 4356,4328 4362,4319 4374,4316 4380,4318 4390,4328 4402,4335 4405,4328 4396,4319 4386,4313 4381,4304 4395,4304 4400,4294 4406,4293 4422,4286 4425,4273 4437,4259 4449,4249 4454,4240 4445,4235 4445,4229 4455,4219 4461,4218 4484,4220 4502,4217 4518,4207 4532,4194 4542,4190 4550,4190 4557,4187 4557,4179 4545,4168 4540,4157 4545,4141 4541,4120 4565,4100 4576,4095 4583,4096 4597,4104 4607,4104 4618,4095 4622,4086 4659,4068 4662,4061 4677,4057 4679,4051 4685,4047 4692,4047 4702,4038 4709,4036 4732,4024 4741,4025 " class="polyStyle" id="140829" style="fill:#f6f67b"/>
<polygon points="2773,2591 2786,2602 2791,2609 2794,2614 2809,2636 2820,2672 2816,2707 2792,2753 2776,2762 2777,2772 2802,2787 2815,2791 2831,2815 2826,2828 2824,2843 2827,2850 2838,2858 2850,2861 2855,2846 2866,2837 2875,2816 2887,2805 2914,2805 2962,2825 2997,2833 3011,2841 3031,2840 3081,2810 3096,2803 3114,2803 3130,2809 3144,2819 3158,2839 3166,2862 3170,2869 3189,2878 3243,2879 3261,2883 3271,2885 3285,2890 3290,2896 3293,2910 3266,2978 3258,2993 3228,3016 3219,3025 3209,3042 3198,3053 3176,3062 3153,3066 3131,3075 3119,3092 3105,3107 3095,3121 3103,3159 3102,3169 3112,3197 3113,3207 3118,3214 3129,3228 3165,3246 3185,3260 3223,3293 3232,3307 3232,3316 3227,3322 3205,3335 3197,3345 3198,3373 3221,3408 3252,3449 3264,3480 3266,3490 3277,3508 3290,3544 3303,3555 3308,3563 3324,3603 3330,3612 3335,3642 3335,3650 3329,3677 3324,3686 3325,3708 3328,3721 3370,3754 3419,3768 3434,3797 3433,3831 3398,3854 3345,3836 3319,3804 3300,3796 3282,3803 3245,3823 3226,3828 3203,3830 3154,3874 3121,3885 3101,3889 3045,3883 3032,3886 3015,3896 2997,3922 2993,3942 2957,3961 2887,3960 2859,3958 2838,3947 2824,3945 2781,3966 2766,3976 2751,4022 2735,4031 2686,4017 2670,4002 2666,3992 2662,3963 2652,3944 2643,3941 2620,3946 2604,3937 2591,3919 2588,3893 2578,3889 2566,3888 2549,3897 2522,3907 2478,3898 2409,3912 2349,3927 2337,3932 2330,3947 2321,3951 2314,3957 2314,3971 2318,3982 2323,3988 2329,3994 2344,3998 2355,4006 2362,4041 2362,4049 2348,4062 2328,4068 2278,4076 2252,4084 2238,4090 2213,4106 2208,4119 2210,4128 2173,4136 2166,4142 2152,4145 2152,4151 2143,4154 2135,4166 2126,4162 2105,4159 2099,4162 2099,4171 2096,4177 2083,4180 2076,4188 2040,4178 2027,4179 2017,4177 2013,4171 2014,4165 1998,4163 1989,4153 1972,4148 1966,4149 1954,4157 1942,4158 1936,4163 1935,4172 1922,4181 1911,4182 1866,4168 1825,4162 1802,4143 1788,4137 1774,4137 1759,4145 1741,4148 1733,4157 1731,4174 1726,4183 1690,4195 1645,4199 1621,4203 1583,4199 1542,4199 1520,4190 1493,4170 1466,4162 1453,4161 1442,4149 1435,4138 1424,4134 1400,4134 1386,4130 1377,4123 1367,4121 1345,4125 1338,4135 1338,4146 1343,4165 1340,4179 1332,4183 1297,4175 1286,4163 1266,4149 1242,4143 1231,4138 1225,4124 1223,4114 1199,4092 1182,4085 1143,4075 1122,4068 1082,4048 1075,4041 1066,4036 1048,4022 1012,3988 986,3974 880,3911 784,3857 756,3846 735,3835 724,3832 600,3819 555,3812 539,3811 530,3811 552,3726 564,3688 564,3684 578,3635 588,3593 604,3511 624,3433 634,3385 648,3341 654,3319 658,3295 664,3283 668,3275 672,3271 674,3255 698,3137 708,3091 714,3065 724,3029 752,2935 764,2849 788,2775 802,2739 828,2689 844,2663 868,2639 895,2608 1015,2655 1036,2665 1058,2680 1080,2691 1116,2697 1172,2675 1218,2669 1237,2661 1284,2622 1296,2617 1339,2622 1370,2632 1392,2641 1411,2638 1436,2637 1458,2643 1468,2647 1463,2661 1469,2665 1478,2667 1486,2671 1486,2683 1492,2687 1501,2688 1500,2695 1493,2708 1492,2714 1497,2720 1510,2727 1510,2741 1517,2759 1538,2769 1580,2779 1604,2792 1611,2793 1620,2792 1628,2787 1629,2775 1635,2769 1656,2761 1660,2755 1661,2743 1667,2729 1675,2722 1693,2721 1700,2728 1700,2748 1704,2769 1708,2779 1733,2796 1745,2802 1762,2807 1787,2808 1833,2821 1857,2832 1873,2836 1884,2841 1897,2843 1906,2840 1912,2834 1922,2829 1931,2821 1939,2810 1943,2801 1949,2798 1961,2796 2022,2816 2041,2818 2049,2824 2052,2835 2050,2866 2041,2890 2037,2908 2038,2915 2045,2921 2055,2925 2056,2936 2061,2943 2072,2947 2086,2945 2096,2928 2105,2927 2126,2932 2138,2908 2145,2876 2138,2863 2143,2842 2142,2826 2134,2821 2114,2819 2099,2815 2095,2808 2105,2794 2116,2773 2129,2741 2139,2722 2153,2701 2164,2672 2169,2666 2176,2662 2183,2662 2195,2669 2235,2680 2242,2676 2247,2668 2249,2659 2257,2652 2268,2655 2274,2655 2287,2661 2297,2662 2327,2673 2337,2675 2344,2679 2353,2678 2358,2671 2365,2670 2399,2682 2430,2690 2487,2697 2493,2696 2499,2686 2500,2668 2505,2647 2514,2631 2520,2625 2531,2622 2564,2621 2617,2629 2633,2627 2650,2620 2661,2613 2670,2610 2676,2610 2703,2604 2710,2600 2723,2580 2732,2579 2739,2579 2747,2583 " class="polyStyle" id="140821" style="fill:#ee8b94"/>
<polygon points="5100,2530 5103,2536 5104,2543 5110,2547 5128,2548 5141,2552 5148,2556 5145,2564 5151,2569 5152,2576 5159,2575 5166,2566 5162,2559 5178,2559 5199,2564 5209,2559 5215,2559 5228,2566 5259,2587 5266,2595 5263,2608 5257,2612 5251,2620 5256,2626 5257,2634 5262,2640 5268,2645 5280,2645 5280,2651 5286,2658 5286,2667 5261,2695 5250,2722 5266,2732 5273,2729 5279,2724 5286,2726 5304,2738 5305,2750 5312,2752 5312,2759 5318,2759 5334,2754 5336,2746 5356,2725 5361,2710 5368,2708 5374,2714 5382,2713 5390,2708 5383,2718 5393,2729 5386,2737 5377,2742 5376,2753 5362,2765 5361,2771 5376,2768 5384,2769 5390,2764 5406,2744 5414,2745 5422,2742 5417,2757 5446,2780 5446,2786 5450,2793 5443,2801 5443,2807 5452,2815 5454,2822 5461,2820 5485,2826 5523,2844 5531,2842 5527,2836 5534,2822 5540,2825 5546,2820 5552,2822 5556,2829 5574,2838 5572,2844 5598,2845 5606,2848 5620,2849 5633,2858 5647,2862 5662,2862 5669,2865 5677,2872 5690,2878 5712,2870 5754,2874 5767,2871 5778,2882 5792,2879 5811,2886 5828,2880 5835,2884 5835,2894 5873,2921 5889,2925 5895,2931 5906,2937 5938,2935 5946,2938 5951,2944 5955,2954 5964,2969 5967,2981 5980,2990 5986,2992 6018,2981 6025,2980 6032,2987 6030,2995 6022,3003 6021,3018 6024,3031 6031,3038 6040,3044 6054,3051 6078,3058 6086,3064 6089,3075 6096,3084 6117,3101 6124,3103 6137,3103 6141,3089 6138,3078 6141,3072 6155,3072 6178,3060 6193,3047 6196,3038 6202,3038 6204,3045 6193,3057 6187,3070 6190,3076 6199,3074 6210,3069 6217,3072 6204,3076 6188,3086 6173,3098 6169,3107 6169,3113 6173,3121 6172,3128 6159,3142 6151,3157 6148,3172 6154,3173 6176,3186 6182,3192 6193,3189 6202,3193 6202,3200 6205,3208 6220,3210 6226,3214 6241,3220 6240,3228 6242,3234 6242,3242 6240,3252 6245,3258 6247,3273 6253,3278 6269,3275 6275,3278 6288,3280 6300,3278 6303,3269 6313,3255 6309,3242 6321,3234 6327,3218 6334,3212 6352,3212 6358,3219 6375,3224 6413,3250 6416,3244 6405,3231 6391,3202 6383,3172 6402,3161 6411,3163 6430,3171 6432,3181 6438,3186 6490,3180 6518,3185 6533,3191 6539,3191 6546,3188 6559,3190 6573,3188 6580,3192 6588,3200 6596,3204 6623,3204 6627,3213 6610,3234 6608,3241 6610,3249 6623,3264 6636,3266 6645,3270 6642,3293 6645,3297 6646,3300 6637,3311 6641,3317 6655,3327 6659,3337 6666,3346 6667,3355 6672,3363 6683,3366 6693,3365 6719,3354 6751,3359 6763,3358 6780,3370 6803,3373 6811,3372 6820,3380 6824,3390 6834,3396 6840,3406 6852,3407 6866,3415 6881,3418 6897,3428 6909,3431 6923,3443 6935,3458 6937,3464 6932,3470 6886,3475 6873,3473 6858,3473 6848,3500 6835,3507 6831,3513 6825,3518 6818,3521 6809,3532 6784,3554 6776,3571 6776,3581 6770,3599 6776,3620 6768,3623 6758,3631 6754,3649 6757,3673 6752,3687 6758,3690 6759,3702 6753,3707 6755,3714 6771,3722 6773,3728 6772,3736 6765,3747 6768,3756 6786,3771 6794,3775 6800,3776 6821,3774 6829,3779 6841,3794 6854,3797 6862,3794 6898,3790 6921,3781 6928,3782 6945,3788 6957,3782 6967,3782 6981,3785 7009,3795 7024,3796 7038,3799 7060,3799 7073,3795 7081,3790 7088,3793 7094,3789 7109,3802 7107,3808 7111,3816 7117,3818 7132,3835 7135,3850 7143,3851 7147,3866 7154,3869 7157,3875 7151,3880 7150,3886 7156,3890 7169,3903 7170,3915 7161,3917 7165,3924 7168,3938 7179,3951 7178,3957 7167,3962 7162,3973 7164,3983 7174,3992 7174,4000 7183,4006 7188,4039 7181,4051 7185,4064 7203,4080 7199,4086 7189,4094 7180,4095 7153,4104 7125,4108 7124,4128 7127,4135 7154,4142 7160,4148 7162,4154 7157,4156 7150,4162 7147,4169 7147,4177 7150,4185 7156,4193 7165,4200 7190,4220 7200,4231 7205,4239 7225,4317 7229,4331 7226,4343 7219,4353 7212,4358 7204,4361 7178,4371 7169,4376 7153,4385 7131,4392 7112,4395 7078,4394 7064,4396 7053,4401 7032,4420 7006,4447 6995,4454 6993,4453 6979,4449 6966,4448 6964,4441 6956,4446 6953,4438 6944,4435 6935,4435 6933,4441 6923,4453 6916,4456 6908,4449 6890,4459 6885,4451 6879,4429 6887,4425 6889,4417 6878,4411 6871,4403 6738,4349 6672,4329 6602,4323 6551,4311 6546,4303 6574,4299 6572,4287 6563,4269 6556,4262 6546,4262 6543,4268 6545,4276 6538,4277 6531,4272 6528,4281 6521,4287 6517,4300 6502,4298 6489,4304 6483,4302 6493,4292 6491,4286 6478,4281 6469,4283 6462,4288 6442,4280 6433,4272 6443,4262 6444,4254 6442,4248 6435,4237 6424,4228 6419,4220 6421,4210 6413,4199 6402,4163 6392,4147 6387,4133 6393,4123 6389,4107 6367,4095 6358,4087 6342,4077 6338,4078 6333,4099 6341,4116 6333,4121 6325,4122 6314,4117 6303,4116 6295,4111 6288,4109 6283,4118 6278,4121 6268,4120 6260,4124 6249,4125 6235,4119 6224,4117 6218,4118 6204,4131 6204,4137 6209,4146 6193,4158 6177,4179 6118,4209 6086,4232 6079,4238 6073,4259 6067,4260 6061,4248 6055,4247 6047,4250 6020,4251 6014,4253 6001,4262 5989,4276 5971,4309 5961,4321 5954,4324 5942,4324 5935,4320 5929,4321 5911,4315 5904,4300 5904,4288 5912,4274 5908,4268 5884,4261 5868,4260 5851,4262 5845,4260 5863,4241 5866,4235 5865,4228 5849,4200 5848,4185 5838,4172 5822,4158 5822,4151 5832,4145 5833,4135 5824,4131 5813,4132 5797,4146 5787,4150 5780,4148 5779,4117 5769,4117 5745,4108 5737,4090 5718,4093 5701,4099 5691,4100 5681,4132 5672,4139 5657,4145 5648,4144 5639,4146 5633,4145 5622,4140 5614,4141 5603,4131 5599,4107 5578,4103 5563,4102 5555,4101 5542,4096 5518,4101 5510,4100 5506,4087 5500,4081 5493,4077 5486,4079 5473,4104 5467,4106 5461,4106 5435,4093 5424,4093 5418,4106 5396,4136 5384,4140 5377,4137 5365,4127 5349,4123 5329,4115 5304,4090 5293,4085 5277,4084 5267,4085 5252,4097 5250,4103 5243,4106 5213,4093 5185,4090 5168,4084 5161,4084 5164,4097 5168,4104 5162,4103 5156,4091 5156,4084 5152,4076 5142,4073 5121,4055 5093,4039 5076,4039 5066,4041 5055,4048 5034,4052 5001,4051 4982,4044 4960,4041 4945,4041 4932,4043 4912,4049 4896,4049 4850,4031 4793,4040 4786,4052 4771,4041 4754,4036 4741,4025 4732,4024 4724,4014 4723,4007 4729,4000 4753,3994 4748,3986 4732,3974 4728,3955 4718,3947 4660,3915 4634,3902 4623,3899 4621,3887 4615,3887 4606,3891 4603,3885 4597,3890 4593,3884 4594,3876 4588,3874 4583,3867 4581,3861 4582,3853 4578,3846 4585,3846 4587,3840 4582,3829 4567,3821 4556,3813 4558,3806 4551,3807 4544,3804 4528,3795 4511,3782 4504,3779 4497,3784 4490,3782 4496,3768 4509,3755 4510,3748 4508,3742 4511,3733 4505,3733 4505,3720 4502,3714 4503,3707 4499,3701 4500,3694 4494,3697 4488,3697 4471,3684 4462,3679 4455,3684 4449,3684 4441,3679 4433,3683 4427,3683 4419,3674 4418,3668 4411,3672 4403,3673 4398,3666 4392,3672 4375,3675 4368,3672 4362,3675 4355,3676 4346,3676 4332,3672 4318,3673 4317,3667 4324,3661 4322,3654 4326,3648 4327,3642 4321,3638 4321,3632 4326,3626 4307,3610 4306,3597 4301,3591 4298,3584 4297,3570 4302,3564 4320,3558 4347,3541 4346,3535 4323,3521 4321,3515 4350,3492 4375,3464 4381,3452 4373,3445 4380,3436 4378,3430 4382,3424 4382,3416 4374,3411 4375,3405 4390,3385 4381,3380 4387,3365 4388,3356 4383,3343 4377,3338 4353,3326 4352,3288 4355,3281 4352,3273 4341,3267 4336,3259 4337,3253 4328,3240 4307,3216 4298,3213 4289,3216 4282,3224 4271,3233 4259,3238 4236,3235 4227,3232 4210,3233 4197,3225 4189,3204 4195,3192 4188,3186 4188,3179 4190,3173 4189,3167 4192,3161 4186,3160 4187,3152 4185,3146 4177,3142 4180,3136 4186,3135 4184,3128 4176,3118 4176,3112 4173,3104 4166,3104 4164,3098 4169,3090 4158,3070 4153,3056 4155,3027 4149,3013 4145,2987 4151,2979 4151,2966 4143,2959 4131,2958 4125,2953 4125,2944 4120,2936 4110,2933 4096,2919 4089,2920 4083,2915 4067,2889 4052,2889 4052,2883 4060,2875 4053,2867 4045,2870 4037,2866 4038,2859 4044,2856 4045,2849 4037,2837 4040,2830 4050,2824 4049,2817 4058,2814 4062,2807 4083,2800 4090,2794 4125,2782 4131,2775 4129,2765 4136,2762 4146,2759 4153,2762 4161,2761 4172,2757 4181,2761 4187,2766 4194,2765 4211,2750 4205,2744 4206,2735 4218,2731 4220,2724 4228,2718 4226,2709 4229,2702 4216,2689 4219,2682 4216,2675 4224,2671 4223,2665 4235,2676 4242,2676 4255,2669 4259,2654 4273,2657 4280,2663 4296,2665 4301,2658 4302,2651 4308,2647 4328,2641 4335,2641 4357,2633 4368,2620 4365,2614 4363,2604 4371,2604 4377,2610 4383,2629 4390,2628 4396,2631 4392,2637 4410,2649 4416,2650 4422,2647 4428,2649 4432,2655 4430,2663 4453,2658 4459,2655 4467,2657 4476,2669 4503,2713 4508,2725 4515,2725 4521,2728 4527,2724 4535,2724 4544,2737 4538,2746 4546,2752 4553,2754 4559,2752 4565,2756 4570,2765 4580,2768 4583,2774 4591,2778 4598,2772 4606,2768 4614,2775 4610,2781 4616,2783 4647,2758 4666,2737 4674,2736 4683,2731 4691,2716 4697,2700 4690,2700 4683,2696 4686,2689 4692,2683 4686,2678 4681,2671 4705,2670 4711,2673 4725,2664 4729,2653 4729,2643 4735,2641 4748,2641 4746,2635 4754,2627 4754,2620 4749,2613 4758,2603 4758,2597 4769,2591 4777,2593 4783,2588 4790,2586 4795,2592 4801,2595 4807,2595 4819,2585 4828,2581 4836,2581 4838,2588 4837,2596 4832,2602 4840,2610 4850,2631 4858,2633 4862,2627 4869,2632 4874,2638 4882,2638 4883,2644 4890,2645 4903,2642 4927,2622 4939,2619 4966,2590 4975,2584 4983,2583 4989,2587 4995,2586 4994,2572 4992,2566 4992,2552 5010,2561 5017,2561 5019,2555 5025,2555 5031,2552 5045,2536 5052,2539 5058,2532 5064,2535 5089,2520 5095,2524 " class="polyStyle" id="140828" style="fill:#ee8b94"/>
<polygon points="8733,2002 8736,2008 8740,2014 8745,2019 8749,2024 8754,2030 8759,2034 8764,2044 8770,2052 8775,2058 8778,2063 8788,2073 8794,2074 8797,2076 8800,2079 8801,2083 8803,2090 8812,2094 8821,2094 8827,2094 8822,2101 8822,2105 8822,2111 8826,2114 8834,2116 8837,2116 8842,2111 8846,2114 8847,2118 8849,2130 8850,2135 8852,2141 8865,2151 8869,2154 8875,2151 8879,2151 8888,2151 8893,2150 8897,2149 8906,2149 8914,2148 8922,2150 8927,2150 8937,2146 8940,2143 8943,2143 8946,2145 8952,2155 8952,2159 8945,2164 8942,2166 8939,2172 8939,2175 8945,2184 8945,2189 8943,2193 8947,2197 8948,2200 8951,2204 8950,2207 8945,2210 8948,2214 8950,2216 8949,2220 8952,2223 8952,2227 8949,2230 8946,2233 8945,2235 8947,2238 8948,2241 8947,2245 8949,2253 8948,2264 8948,2269 8948,2273 8945,2279 8938,2288 8938,2295 8936,2299 8938,2309 8938,2312 8935,2315 8931,2316 8927,2315 8923,2317 8922,2330 8924,2333 8922,2338 8922,2341 8927,2352 8938,2366 8950,2373 8959,2374 8985,2375 8990,2375 8993,2377 9002,2384 9005,2387 9009,2387 9014,2385 9018,2386 9029,2389 9032,2392 9042,2393 9051,2396 9059,2397 9066,2397 9077,2397 9080,2399 9085,2404 9089,2408 9097,2417 9097,2424 9095,2432 9090,2441 9089,2448 9088,2455 9089,2460 9090,2466 9091,2470 9097,2475 9104,2478 9110,2480 9123,2484 9127,2486 9129,2489 9132,2490 9136,2490 9139,2490 9142,2491 9143,2496 9145,2504 9150,2507 9154,2513 9154,2517 9152,2520 9153,2524 9160,2527 9166,2531 9168,2535 9169,2541 9169,2546 9166,2560 9164,2566 9159,2570 9155,2574 9153,2577 9156,2584 9155,2589 9150,2590 9146,2591 9143,2593 9142,2596 9138,2604 9137,2607 9140,2611 9145,2619 9146,2623 9146,2626 9142,2630 9140,2638 9138,2642 9136,2645 9125,2651 9119,2655 9116,2656 9103,2662 9100,2668 9102,2676 9105,2682 9107,2690 9108,2695 9110,2702 9111,2709 9108,2710 9096,2716 9088,2724 9080,2736 9078,2744 9080,2750 9082,2754 9098,2770 9122,2792 9144,2816 9160,2832 9174,2842 9184,2854 9190,2862 9198,2874 9200,2878 9210,2902 9216,2918 9220,2934 9224,2956 9228,2972 9228,2990 9224,3006 9218,3014 9206,3020 9192,3020 9172,3020 9166,3028 9158,3038 9146,3048 9120,3076 9114,3080 9108,3082 9084,3084 9062,3090 9038,3102 9030,3108 9024,3116 9020,3122 9020,3132 9024,3144 9034,3164 9044,3182 9048,3188 9058,3202 9066,3210 9074,3222 9078,3230 9090,3248 9100,3258 9106,3264 9110,3270 9146,3342 9150,3352 9150,3364 9148,3374 9146,3380 9140,3384 9130,3386 9118,3392 9114,3402 9114,3408 9116,3412 9126,3412 9150,3414 9154,3416 9154,3422 9152,3434 9142,3444 9138,3454 9134,3474 9128,3510 9120,3532 9116,3552 9108,3576 9100,3604 9092,3632 9090,3640 9092,3648 9100,3662 9114,3684 9126,3708 9128,3722 9130,3742 9126,3758 9120,3770 9104,3786 9108,3796 9132,3804 9130,3816 9126,3836 9120,3842 9110,3860 9098,3870 9086,3880 9076,3890 9072,3892 9058,3892 9022,3882 9015,3881 9013,3872 9012,3860 9006,3840 8997,3824 8988,3814 8958,3796 8925,3780 8896,3767 8867,3758 8844,3754 8811,3753 8781,3750 8721,3740 8700,3735 8694,3732 8680,3726 8672,3723 8659,3715 8620,3691 8602,3686 8570,3680 8520,3676 8483,3679 8469,3683 8458,3689 8434,3705 8414,3713 8395,3716 8367,3715 8352,3712 8330,3702 8322,3701 8305,3701 8279,3705 8213,3722 8187,3727 8155,3727 8120,3721 8080,3717 8057,3718 8032,3722 8011,3726 7978,3735 7909,3760 7899,3765 7891,3773 7884,3784 7878,3798 7871,3830 7864,3893 7860,3908 7852,3923 7840,3935 7834,3940 7827,3943 7812,3949 7793,3952 7771,3952 7748,3949 7720,3946 7704,3949 7699,3956 7697,3972 7694,3982 7688,3990 7680,3997 7663,4007 7650,4012 7604,4007 7577,4010 7556,4018 7541,4033 7531,4055 7527,4063 7521,4068 7502,4075 7476,4076 7427,4071 7411,4071 7391,4074 7347,4087 7304,4096 7291,4101 7285,4104 7280,4109 7276,4121 7274,4128 7272,4132 7269,4134 7262,4139 7250,4144 7234,4148 7220,4149 7178,4151 7167,4152 7162,4154 7160,4148 7154,4142 7127,4135 7124,4128 7125,4108 7153,4104 7180,4095 7189,4094 7199,4086 7203,4080 7185,4064 7181,4051 7188,4039 7183,4006 7174,4000 7174,3992 7164,3983 7162,3973 7167,3962 7178,3957 7179,3951 7168,3938 7165,3924 7161,3917 7170,3915 7169,3903 7156,3890 7150,3886 7151,3880 7157,3875 7154,3869 7147,3866 7143,3851 7135,3850 7132,3835 7117,3818 7111,3816 7107,3808 7109,3802 7094,3789 7088,3793 7081,3790 7073,3795 7060,3799 7038,3799 7024,3796 7009,3795 6981,3785 6967,3782 6957,3782 6945,3788 6928,3782 6921,3781 6898,3790 6862,3794 6854,3797 6841,3794 6829,3779 6821,3774 6800,3776 6794,3775 6786,3771 6768,3756 6765,3747 6772,3736 6773,3728 6771,3722 6755,3714 6753,3707 6759,3702 6758,3690 6752,3687 6757,3673 6754,3649 6758,3631 6768,3623 6776,3620 6770,3599 6776,3581 6776,3571 6784,3554 6809,3532 6818,3521 6825,3518 6831,3513 6835,3507 6848,3500 6858,3473 6873,3473 6886,3475 6932,3470 6937,3464 6935,3458 6923,3443 6909,3431 6897,3428 6881,3418 6866,3415 6852,3407 6840,3406 6834,3396 6824,3390 6820,3380 6811,3372 6803,3373 6780,3370 6763,3358 6751,3359 6719,3354 6693,3365 6683,3366 6672,3363 6667,3355 6666,3346 6659,3337 6655,3327 6641,3317 6637,3311 6646,3300 6645,3297 6642,3293 6645,3270 6636,3266 6623,3264 6610,3249 6608,3241 6610,3234 6627,3213 6623,3204 6596,3204 6588,3200 6580,3192 6573,3188 6559,3190 6546,3188 6539,3191 6533,3191 6518,3185 6490,3180 6438,3186 6432,3181 6430,3171 6411,3163 6402,3161 6397,3125 6393,3114 6393,3107 6387,3092 6386,3076 6393,3065 6396,3057 6413,3035 6435,3020 6448,3016 6456,3008 6462,2996 6449,2980 6424,2962 6424,2952 6430,2938 6449,2912 6456,2907 6478,2897 6480,2889 6490,2876 6497,2876 6511,2872 6520,2872 6541,2886 6575,2904 6592,2899 6614,2890 6625,2879 6629,2865 6629,2858 6621,2829 6628,2818 6663,2802 6673,2795 6689,2793 6716,2795 6737,2793 6729,2790 6728,2783 6721,2776 6724,2769 6742,2759 6754,2756 6765,2748 6773,2741 6776,2732 6784,2728 6793,2717 6812,2709 6835,2702 6852,2701 6866,2692 6874,2684 6899,2673 6914,2661 6911,2655 6913,2648 6935,2621 6945,2588 6949,2568 6947,2560 6939,2547 6944,2539 6944,2529 6938,2522 6923,2514 6918,2504 6900,2492 6889,2490 6889,2483 6883,2474 6862,2453 6873,2433 6889,2416 6907,2405 6965,2383 6970,2362 6976,2355 6985,2348 7006,2349 7027,2340 7039,2337 7048,2336 7055,2337 7074,2314 7076,2307 7080,2301 7100,2288 7114,2276 7125,2235 7139,2216 7160,2207 7185,2203 7268,2206 7293,2200 7319,2191 7335,2181 7349,2178 7383,2175 7438,2161 7444,2167 7457,2193 7477,2217 7485,2241 7493,2253 7508,2256 7527,2257 7539,2253 7562,2239 7580,2237 7587,2245 7595,2251 7636,2259 7655,2259 7659,2243 7663,2234 7673,2228 7681,2228 7691,2209 7699,2204 7707,2201 7717,2200 7724,2197 7728,2190 7728,2183 7734,2179 7740,2178 7757,2163 7752,2150 7742,2138 7744,2114 7750,2106 7782,2090 7788,2083 7803,2071 7814,2065 7828,2062 7841,2063 7880,2075 7928,2083 8015,2105 8040,2107 8075,2112 8081,2113 8084,2113 8088,2113 8093,2112 8102,2112 8109,2113 8118,2115 8123,2116 8128,2117 8133,2117 8137,2117 8143,2118 8149,2120 8155,2123 8160,2123 8165,2125 8170,2127 8177,2129 8182,2131 8187,2135 8193,2138 8197,2141 8200,2143 8204,2148 8208,2151 8213,2154 8217,2155 8222,2158 8230,2159 8235,2160 8242,2160 8248,2161 8255,2162 8262,2162 8268,2162 8274,2162 8280,2162 8285,2162 8290,2162 8295,2162 8301,2164 8305,2165 8310,2165 8316,2166 8321,2166 8327,2165 8333,2163 8337,2162 8342,2161 8348,2159 8353,2159 8357,2156 8361,2156 8365,2156 8369,2155 8375,2155 8380,2157 8384,2159 8390,2162 8394,2164 8400,2167 8411,2169 8415,2171 8418,2171 8430,2173 8445,2172 8457,2172 8468,2170 8475,2169 8484,2169 8492,2169 8501,2169 8512,2169 8520,2168 8527,2167 8540,2159 8541,2153 8542,2147 8543,2143 8542,2136 8542,2131 8542,2126 8541,2121 8548,2119 8556,2116 8562,2114 8569,2112 8573,2110 8582,2107 8588,2104 8593,2100 8598,2097 8603,2091 8604,2087 8604,2081 8604,2077 8606,2073 8604,2064 8602,2059 8602,2052 8604,2041 8607,2038 8616,2031 8618,2028 8624,2023 8627,2018 8631,2014 8633,2008 8638,2006 8669,1992 8698,1978 8704,1978 8715,1988 " class="polyStyle" id="140827" style="fill:#f6f67b"/>
<path d="" class="polyStyle" id="632323" style="fill:#f6f67b"/>
<polygon points="2967,1493 3018,1478 3037,1474 3039,1485 3053,1528 3057,1569 3059,1576 3061,1588 3060,1596 3064,1608 3062,1622 3058,1632 3053,1641 3052,1647 3053,1655 3058,1666 3061,1679 3064,1693 3069,1707 3075,1719 3080,1728 3085,1739 3096,1760 3104,1776 3110,1787 3114,1790 3125,1794 3134,1795 3143,1794 3151,1795 3155,1793 3158,1788 3159,1784 3158,1777 3157,1761 3161,1755 3170,1755 3182,1762 3188,1770 3202,1796 3221,1810 3223,1815 3226,1826 3226,1838 3227,1843 3232,1846 3240,1847 3247,1845 3252,1843 3255,1833 3268,1826 3276,1823 3301,1830 3307,1831 3314,1831 3336,1811 3338,1794 3340,1788 3342,1782 3347,1781 3351,1783 3356,1789 3359,1798 3363,1807 3370,1824 3369,1837 3372,1847 3374,1856 3377,1865 3383,1868 3395,1868 3419,1870 3436,1873 3494,1890 3510,1894 3525,1897 3528,1893 3526,1883 3528,1879 3533,1877 3538,1877 3542,1879 3544,1895 3547,1903 3555,1909 3573,1917 3600,1930 3621,1935 3641,1929 3662,1933 3679,1931 3682,1927 3685,1914 3687,1910 3702,1918 3715,1938 3726,1945 3734,1946 3739,1941 3744,1939 3750,1934 3756,1928 3763,1919 3766,1919 3767,1923 3769,1928 3771,1931 3776,1938 3781,1947 3786,1956 3790,1962 3793,1968 3794,1972 3796,1977 3795,1984 3793,1991 3793,1998 3794,2002 3794,2007 3797,2013 3800,2017 3793,2051 3789,2073 3786,2103 3796,2140 3803,2162 3801,2190 3802,2193 3806,2197 3816,2199 3818,2200 3815,2202 3810,2207 3811,2210 3816,2226 3819,2235 3812,2248 3811,2252 3769,2320 3749,2376 3744,2397 3726,2434 3676,2476 3652,2504 3611,2518 3601,2535 3609,2551 3614,2567 3615,2581 3615,2590 3608,2601 3605,2609 3597,2609 3588,2602 3582,2594 3569,2588 3542,2591 3524,2599 3514,2609 3519,2626 3517,2636 3485,2653 3438,2675 3449,2723 3447,2736 3436,2738 3419,2737 3392,2725 3378,2725 3351,2741 3326,2753 3300,2790 3265,2826 3260,2859 3261,2883 3243,2879 3189,2878 3170,2869 3166,2862 3158,2839 3144,2819 3130,2809 3114,2803 3096,2803 3081,2810 3031,2840 3011,2841 2997,2833 2962,2825 2914,2805 2887,2805 2875,2816 2866,2837 2855,2846 2850,2861 2838,2858 2827,2850 2824,2843 2826,2828 2831,2815 2815,2791 2802,2787 2777,2772 2776,2762 2792,2753 2816,2707 2820,2672 2809,2636 2794,2614 2791,2609 2786,2602 2773,2591 2747,2583 2739,2579 2732,2579 2723,2580 2710,2600 2703,2604 2676,2610 2670,2610 2661,2613 2650,2620 2633,2627 2617,2629 2564,2621 2531,2622 2520,2625 2514,2631 2505,2647 2500,2668 2499,2686 2493,2696 2487,2697 2430,2690 2399,2682 2365,2670 2358,2671 2353,2678 2344,2679 2337,2675 2327,2673 2297,2662 2287,2661 2274,2655 2268,2655 2257,2652 2249,2659 2247,2668 2242,2676 2235,2680 2195,2669 2183,2662 2176,2662 2169,2666 2164,2672 2153,2701 2139,2722 2129,2741 2116,2773 2105,2794 2095,2808 2099,2815 2114,2819 2134,2821 2142,2826 2143,2842 2138,2863 2145,2876 2138,2908 2126,2932 2105,2927 2096,2928 2086,2945 2072,2947 2061,2943 2056,2936 2055,2925 2045,2921 2038,2915 2037,2908 2041,2890 2050,2866 2052,2835 2049,2824 2041,2818 2022,2816 1961,2796 1949,2798 1943,2801 1939,2810 1931,2821 1922,2829 1912,2834 1906,2840 1897,2843 1884,2841 1873,2836 1857,2832 1833,2821 1787,2808 1762,2807 1745,2802 1733,2796 1708,2779 1704,2769 1700,2748 1700,2728 1693,2721 1675,2722 1667,2729 1661,2743 1660,2755 1656,2761 1635,2769 1629,2775 1628,2787 1620,2792 1611,2793 1604,2792 1580,2779 1538,2769 1517,2759 1510,2741 1510,2727 1497,2720 1492,2714 1493,2708 1500,2695 1501,2688 1492,2687 1486,2683 1486,2671 1478,2667 1469,2665 1463,2661 1468,2647 1458,2643 1436,2637 1411,2638 1392,2641 1370,2632 1339,2622 1296,2617 1284,2622 1237,2661 1218,2669 1172,2675 1116,2697 1080,2691 1058,2680 1036,2665 1015,2655 895,2608 916,2586 932,2569 952,2551 972,2535 992,2512 1034,2481 1058,2465 1072,2455 1084,2443 1092,2433 1102,2423 1108,2415 1134,2389 1158,2359 1174,2333 1198,2283 1210,2247 1217,2214 1234,2153 1242,2131 1254,2055 1264,2033 1272,2019 1282,1997 1304,1973 1328,1947 1354,1929 1398,1885 1422,1859 1454,1829 1482,1801 1498,1781 1508,1765 1528,1731 1554,1677 1574,1619 1578,1609 1584,1599 1588,1589 1594,1575 1599,1575 1670,1589 1828,1580 1845,1533 1931,1507 1942,1507 1967,1535 2013,1585 2040,1589 2073,1581 2086,1584 2090,1592 2096,1602 2100,1614 2103,1617 2106,1618 2111,1618 2115,1618 2122,1615 2129,1614 2140,1610 2152,1607 2155,1608 2158,1611 2162,1617 2163,1620 2166,1623 2169,1628 2173,1632 2178,1635 2184,1641 2190,1644 2194,1646 2198,1646 2201,1646 2207,1645 2213,1643 2222,1638 2226,1638 2231,1639 2235,1641 2240,1644 2246,1649 2252,1659 2262,1671 2272,1679 2281,1688 2289,1691 2294,1693 2298,1694 2309,1704 2317,1704 2362,1688 2366,1684 2377,1651 2380,1648 2386,1648 2399,1653 2421,1671 2437,1696 2442,1699 2459,1694 2464,1699 2467,1714 2468,1738 2469,1742 2476,1745 2488,1745 2504,1741 2510,1714 2513,1709 2514,1705 2517,1698 2519,1691 2518,1683 2517,1671 2516,1665 2516,1660 2518,1654 2519,1647 2523,1641 2525,1635 2531,1632 2536,1624 2541,1621 2544,1618 2546,1615 2548,1611 2549,1608 2549,1602 2552,1599 2555,1593 2560,1591 2565,1590 2570,1590 2575,1590 2580,1590 2588,1589 2592,1587 2596,1582 2599,1576 2601,1568 2604,1559 2604,1554 2609,1546 2611,1543 2613,1537 2617,1534 2622,1531 2626,1531 2631,1532 2638,1532 2643,1532 2650,1531 2659,1535 2664,1549 2669,1577 2674,1580 2682,1580 2692,1578 2692,1569 2692,1545 2696,1532 2714,1520 2718,1517 2741,1510 2746,1507 2754,1509 2767,1501 2776,1488 2791,1479 2804,1474 2807,1475 2812,1476 2816,1484 2818,1487 2822,1489 2826,1488 2827,1472 2835,1471 2842,1472 2852,1476 2859,1477 2877,1468 2888,1465 2910,1465 2944,1488 " class="polyStyle" id="140822" style="fill:#f6f67b"/>
<polygon points="5873,1260 5873,1265 5873,1269 5875,1275 5877,1280 5879,1283 5882,1285 5890,1290 5907,1297 5914,1300 5921,1304 5928,1308 5935,1313 5944,1317 5961,1323 5959,1330 5952,1336 5944,1339 5918,1345 5901,1346 5869,1362 5862,1368 5856,1375 5847,1392 5851,1421 5854,1430 5857,1461 5829,1468 5802,1480 5766,1504 5757,1514 5749,1520 5736,1527 5689,1559 5683,1569 5683,1576 5689,1585 5689,1591 5686,1601 5678,1612 5673,1622 5674,1628 5686,1642 5717,1670 5727,1675 5751,1679 5759,1690 5785,1693 5799,1699 5803,1714 5783,1730 5776,1742 5765,1766 5748,1817 5715,1850 5697,1859 5688,1868 5682,1890 5681,1904 5694,1910 5751,1918 5764,1922 5793,1927 5808,1936 5836,1940 5849,1947 5867,1973 5868,1979 5885,2004 5900,2022 5908,2037 5924,2053 5942,2065 5953,2066 5965,2074 5990,2077 6020,2076 6035,2080 6053,2091 6059,2087 6066,2073 6072,2068 6081,2066 6110,2073 6180,2068 6210,2055 6235,2049 6248,2053 6277,2055 6288,2058 6301,2059 6326,2066 6343,2074 6408,2090 6432,2101 6459,2105 6477,2105 6494,2107 6504,2113 6521,2136 6532,2142 6537,2148 6546,2153 6555,2161 6566,2182 6565,2198 6562,2210 6556,2223 6555,2247 6552,2260 6552,2287 6554,2299 6557,2305 6567,2317 6599,2341 6616,2346 6631,2344 6649,2335 6673,2319 6679,2317 6692,2317 6702,2325 6712,2330 6720,2331 6758,2321 6776,2323 6778,2329 6778,2336 6791,2360 6791,2371 6795,2380 6806,2383 6823,2401 6833,2407 6845,2409 6866,2409 6889,2416 6873,2433 6862,2453 6883,2474 6889,2483 6889,2490 6900,2492 6918,2504 6923,2514 6938,2522 6944,2529 6944,2539 6939,2547 6947,2560 6949,2568 6945,2588 6935,2621 6913,2648 6911,2655 6914,2661 6899,2673 6874,2684 6866,2692 6852,2701 6835,2702 6812,2709 6793,2717 6784,2728 6776,2732 6773,2741 6765,2748 6754,2756 6742,2759 6724,2769 6721,2776 6728,2783 6729,2790 6737,2793 6716,2795 6689,2793 6673,2795 6663,2802 6628,2818 6621,2829 6629,2858 6629,2865 6625,2879 6614,2890 6592,2899 6575,2904 6541,2886 6520,2872 6511,2872 6497,2876 6490,2876 6480,2889 6478,2897 6456,2907 6449,2912 6430,2938 6424,2952 6424,2962 6449,2980 6462,2996 6456,3008 6448,3016 6435,3020 6413,3035 6396,3057 6393,3065 6386,3076 6387,3092 6393,3107 6393,3114 6397,3125 6402,3161 6383,3172 6391,3202 6405,3231 6416,3244 6413,3250 6375,3224 6358,3219 6352,3212 6334,3212 6327,3218 6321,3234 6309,3242 6313,3255 6303,3269 6300,3278 6288,3280 6275,3278 6269,3275 6253,3278 6247,3273 6245,3258 6240,3252 6242,3242 6242,3234 6240,3228 6241,3220 6226,3214 6220,3210 6205,3208 6202,3200 6202,3193 6193,3189 6182,3192 6176,3186 6154,3173 6148,3172 6151,3157 6159,3142 6172,3128 6173,3121 6169,3113 6169,3107 6173,3098 6188,3086 6204,3076 6217,3072 6210,3069 6199,3074 6190,3076 6187,3070 6193,3057 6204,3045 6202,3038 6196,3038 6193,3047 6178,3060 6155,3072 6141,3072 6138,3078 6141,3089 6137,3103 6124,3103 6117,3101 6096,3084 6089,3075 6086,3064 6078,3058 6054,3051 6040,3044 6031,3038 6024,3031 6021,3018 6022,3003 6030,2995 6032,2987 6025,2980 6018,2981 5986,2992 5980,2990 5967,2981 5964,2969 5955,2954 5951,2944 5946,2938 5938,2935 5906,2937 5895,2931 5889,2925 5873,2921 5835,2894 5835,2884 5828,2880 5811,2886 5792,2879 5778,2882 5767,2871 5754,2874 5712,2870 5690,2878 5677,2872 5669,2865 5662,2862 5647,2862 5633,2858 5620,2849 5606,2848 5598,2845 5572,2844 5574,2838 5556,2829 5552,2822 5546,2820 5540,2825 5534,2822 5527,2836 5531,2842 5523,2844 5485,2826 5461,2820 5454,2822 5452,2815 5443,2807 5443,2801 5450,2793 5446,2786 5446,2780 5417,2757 5422,2742 5414,2745 5406,2744 5390,2764 5384,2769 5376,2768 5361,2771 5362,2765 5376,2753 5377,2742 5386,2737 5393,2729 5383,2718 5390,2708 5382,2713 5374,2714 5368,2708 5361,2710 5356,2725 5336,2746 5334,2754 5318,2759 5312,2759 5312,2752 5305,2750 5304,2738 5286,2726 5279,2724 5273,2729 5266,2732 5250,2722 5261,2695 5286,2667 5286,2658 5280,2651 5280,2645 5268,2645 5262,2640 5257,2634 5256,2626 5251,2620 5257,2612 5263,2608 5266,2595 5259,2587 5228,2566 5215,2559 5209,2559 5199,2564 5178,2559 5162,2559 5166,2566 5159,2575 5152,2576 5151,2569 5145,2564 5148,2556 5141,2552 5128,2548 5110,2547 5104,2543 5103,2536 5100,2530 5095,2524 5089,2520 5064,2535 5058,2532 5052,2539 5045,2536 5031,2552 5025,2555 5019,2555 5017,2561 5010,2561 4992,2552 4992,2566 4994,2572 4995,2586 4989,2587 4983,2583 4975,2584 4966,2590 4939,2619 4927,2622 4903,2642 4890,2645 4883,2644 4882,2638 4874,2638 4869,2632 4862,2627 4858,2633 4850,2631 4840,2610 4832,2602 4837,2596 4838,2588 4836,2581 4828,2581 4819,2585 4807,2595 4801,2595 4795,2592 4790,2586 4783,2588 4777,2593 4769,2591 4758,2597 4758,2603 4749,2613 4754,2620 4754,2627 4746,2635 4748,2641 4735,2641 4729,2643 4729,2653 4725,2664 4711,2673 4705,2670 4681,2671 4686,2678 4692,2683 4686,2689 4683,2696 4690,2700 4697,2700 4691,2716 4683,2731 4674,2736 4666,2737 4647,2758 4616,2783 4610,2781 4614,2775 4606,2768 4598,2772 4591,2778 4583,2774 4580,2768 4570,2765 4565,2756 4559,2752 4553,2754 4546,2752 4538,2746 4544,2737 4535,2724 4527,2724 4521,2728 4515,2725 4508,2725 4503,2713 4476,2669 4467,2657 4459,2655 4453,2658 4430,2663 4432,2655 4428,2649 4422,2647 4416,2650 4410,2649 4392,2637 4396,2631 4390,2628 4383,2629 4377,2610 4371,2604 4363,2604 4365,2614 4368,2620 4357,2633 4335,2641 4328,2641 4308,2647 4302,2651 4301,2658 4296,2665 4280,2663 4273,2657 4259,2654 4255,2669 4242,2676 4235,2676 4223,2665 4224,2671 4216,2675 4193,2661 4175,2656 4170,2648 4158,2637 4154,2623 4147,2620 4137,2624 4114,2622 4112,2616 4095,2608 4092,2600 4091,2591 4086,2583 4080,2579 4080,2569 4073,2554 4072,2539 4073,2529 4076,2521 4075,2508 4070,2500 4069,2492 4072,2483 4079,2485 4080,2479 4074,2479 4070,2472 4066,2459 4071,2453 4057,2427 4041,2415 4033,2414 4021,2417 4013,2417 3997,2413 3988,2409 3980,2403 3970,2379 3959,2374 3954,2381 3948,2376 3948,2359 3958,2360 3955,2354 3942,2351 3944,2336 3932,2341 3924,2340 3913,2331 3905,2329 3892,2333 3897,2341 3888,2342 3880,2339 3871,2338 3868,2331 3859,2334 3823,2309 3820,2302 3819,2286 3838,2256 3826,2252 3817,2251 3811,2252 3812,2248 3819,2235 3816,2226 3811,2210 3810,2207 3815,2202 3818,2200 3823,2196 3828,2190 3835,2176 3851,2163 3857,2152 3863,2129 3869,2119 3877,2110 3891,2100 3901,2095 3935,2088 3949,2083 3959,2065 3951,2029 3953,2023 3969,1995 3970,1989 3980,1979 3997,1969 4007,1949 4002,1931 3990,1921 3993,1914 3998,1907 4001,1890 4000,1883 3987,1863 3984,1851 3987,1841 3990,1835 3992,1830 3994,1825 4015,1833 4022,1831 4056,1817 4066,1805 4075,1804 4088,1792 4124,1784 4136,1778 4152,1767 4176,1761 4191,1754 4206,1743 4259,1735 4298,1740 4311,1723 4327,1715 4351,1714 4362,1712 4378,1696 4390,1693 4405,1697 4414,1704 4423,1705 4437,1699 4483,1700 4499,1707 4513,1704 4519,1707 4530,1717 4541,1716 4557,1717 4572,1730 4608,1720 4627,1712 4635,1712 4645,1714 4657,1719 4712,1724 4766,1735 4784,1736 4811,1721 4820,1709 4825,1691 4843,1679 4857,1675 4865,1670 4880,1665 4899,1661 4926,1658 4937,1655 4944,1648 4947,1639 4963,1630 5029,1629 5042,1627 5058,1623 5092,1608 5095,1599 5089,1574 5085,1566 5113,1549 5120,1542 5138,1517 5146,1509 5173,1491 5201,1465 5221,1457 5274,1444 5297,1431 5311,1417 5317,1421 5324,1423 5332,1426 5342,1430 5357,1434 5368,1431 5382,1429 5393,1427 5409,1422 5423,1418 5432,1414 5448,1407 5460,1401 5470,1396 5480,1392 5488,1387 5493,1382 5497,1374 5498,1371 5502,1353 5509,1343 5521,1340 5535,1339 5545,1331 5549,1326 5559,1326 5571,1326 5585,1322 5591,1322 5607,1330 5619,1342 5624,1343 5629,1342 5632,1338 5642,1334 5648,1327 5653,1324 5659,1325 5669,1331 5676,1334 5683,1334 5690,1331 5696,1324 5703,1312 5699,1300 5700,1294 5703,1292 5708,1291 5718,1293 5728,1300 5748,1299 5764,1293 5780,1294 5787,1291 5796,1287 5807,1280 5822,1270 5825,1269 5829,1270 5834,1273 5841,1279 5845,1279 5851,1276 5855,1263 5863,1251 5868,1248 5873,1248 5873,1253 " class="polyStyle" id="140823" style="fill:#fbe6ef"/>
<polygon points="7227,825 7233,833 7235,838 7237,842 7238,847 7238,852 7238,855 7235,861 7231,869 7223,876 7215,878 7208,883 7197,888 7189,893 7182,899 7176,906 7175,910 7180,913 7185,913 7191,913 7201,913 7207,912 7213,911 7219,910 7228,910 7233,909 7239,907 7245,907 7251,907 7259,907 7265,906 7277,906 7290,904 7300,903 7308,901 7319,900 7328,899 7336,896 7342,895 7348,894 7365,895 7371,898 7378,901 7383,904 7394,909 7401,912 7412,914 7424,919 7435,924 7447,927 7456,929 7467,931 7478,934 7494,939 7498,949 7507,953 7536,965 7581,996 7615,1019 7626,1028 7645,1031 7655,1039 7657,1044 7673,1061 7695,1068 7715,1082 7716,1090 7716,1096 7720,1100 7735,1104 7773,1107 7776,1110 7779,1115 7781,1117 7784,1120 7787,1120 7792,1115 7800,1109 7804,1108 7808,1109 7809,1115 7809,1121 7813,1122 7820,1121 7835,1117 7840,1117 7842,1120 7844,1123 7850,1122 7856,1120 7870,1122 7881,1124 7887,1126 7891,1125 7902,1123 7910,1120 7918,1117 7926,1114 7937,1109 7945,1108 7951,1107 7961,1104 7966,1101 7976,1099 7985,1094 7991,1091 7999,1084 8004,1085 8014,1091 8022,1097 8032,1097 8041,1097 8050,1100 8054,1104 8058,1107 8073,1110 8076,1113 8078,1121 8077,1129 8072,1135 8062,1144 8059,1146 8056,1152 8056,1161 8053,1164 8048,1166 8041,1170 8036,1175 8031,1178 8025,1179 8023,1181 8024,1187 8023,1190 8020,1190 8013,1188 8010,1191 8003,1198 7999,1201 7994,1203 7989,1205 7985,1206 7985,1209 7993,1218 7993,1222 7991,1235 7988,1241 7983,1245 7983,1249 7982,1256 7986,1265 7990,1269 8006,1284 8020,1308 8030,1321 8031,1332 8033,1338 8036,1340 8052,1344 8079,1346 8102,1344 8114,1344 8123,1344 8126,1345 8131,1348 8135,1359 8140,1362 8163,1365 8193,1368 8207,1369 8228,1366 8246,1367 8258,1371 8266,1377 8272,1385 8277,1385 8298,1383 8305,1386 8314,1393 8318,1395 8326,1394 8340,1390 8353,1392 8361,1397 8362,1401 8358,1407 8355,1409 8355,1413 8358,1415 8361,1416 8359,1423 8360,1431 8359,1442 8355,1446 8338,1449 8333,1451 8329,1455 8331,1466 8332,1482 8332,1490 8326,1498 8300,1517 8284,1533 8275,1550 8266,1558 8259,1559 8255,1555 8232,1531 8214,1528 8200,1529 8196,1533 8191,1534 8185,1534 8180,1528 8177,1527 8169,1527 8160,1531 8154,1531 8150,1534 8135,1537 8108,1545 8097,1549 8083,1550 8081,1558 8076,1576 8068,1582 8066,1586 8070,1597 8075,1605 8073,1610 8065,1616 8049,1629 8042,1639 8039,1645 8039,1652 8039,1666 8040,1674 8043,1683 8049,1690 8048,1693 8045,1696 8040,1696 8016,1694 8001,1698 7989,1715 7988,1727 7987,1744 8000,1769 8000,1772 8000,1777 8001,1784 8001,1791 8004,1795 8007,1801 8011,1815 8009,1840 7998,1846 7978,1849 7973,1859 7975,1871 7972,1876 7965,1880 7938,1879 7932,1883 7923,1895 7917,1915 7900,1921 7882,1923 7877,1930 7878,1938 7889,1955 7900,1956 7922,1957 7930,1957 7940,1962 7950,1959 7980,1934 7997,1929 8008,1931 8020,1951 8024,1965 8045,1971 8053,1978 8060,1984 8060,1992 8060,2009 8072,2028 8077,2048 8077,2080 8074,2095 8074,2107 8075,2112 8040,2107 8015,2105 7928,2083 7880,2075 7841,2063 7828,2062 7814,2065 7803,2071 7788,2083 7782,2090 7750,2106 7744,2114 7742,2138 7752,2150 7757,2163 7740,2178 7734,2179 7728,2183 7728,2190 7724,2197 7717,2200 7707,2201 7699,2204 7691,2209 7681,2228 7673,2228 7663,2234 7659,2243 7655,2259 7636,2259 7595,2251 7587,2245 7580,2237 7562,2239 7539,2253 7527,2257 7508,2256 7493,2253 7485,2241 7477,2217 7457,2193 7444,2167 7438,2161 7383,2175 7349,2178 7335,2181 7319,2191 7293,2200 7268,2206 7185,2203 7160,2207 7139,2216 7125,2235 7114,2276 7100,2288 7080,2301 7076,2307 7074,2314 7055,2337 7048,2336 7039,2337 7027,2340 7006,2349 6985,2348 6976,2355 6970,2362 6965,2383 6907,2405 6889,2416 6866,2409 6845,2409 6833,2407 6823,2401 6806,2383 6795,2380 6791,2371 6791,2360 6778,2336 6778,2329 6776,2323 6758,2321 6720,2331 6712,2330 6702,2325 6692,2317 6679,2317 6673,2319 6649,2335 6631,2344 6616,2346 6599,2341 6567,2317 6557,2305 6554,2299 6552,2287 6552,2260 6555,2247 6556,2223 6562,2210 6565,2198 6566,2182 6555,2161 6546,2153 6537,2148 6532,2142 6521,2136 6504,2113 6494,2107 6477,2105 6459,2105 6432,2101 6408,2090 6343,2074 6326,2066 6301,2059 6288,2058 6277,2055 6248,2053 6235,2049 6210,2055 6180,2068 6110,2073 6081,2066 6072,2068 6066,2073 6059,2087 6053,2091 6035,2080 6020,2076 5990,2077 5965,2074 5953,2066 5942,2065 5924,2053 5908,2037 5900,2022 5885,2004 5868,1979 5867,1973 5849,1947 5836,1940 5808,1936 5793,1927 5764,1922 5751,1918 5694,1910 5681,1904 5682,1890 5688,1868 5697,1859 5715,1850 5748,1817 5765,1766 5776,1742 5783,1730 5803,1714 5799,1699 5785,1693 5759,1690 5751,1679 5727,1675 5717,1670 5686,1642 5674,1628 5673,1622 5678,1612 5686,1601 5689,1591 5689,1585 5683,1576 5683,1569 5689,1559 5736,1527 5749,1520 5757,1514 5766,1504 5802,1480 5829,1468 5857,1461 5854,1430 5851,1421 5847,1392 5856,1375 5862,1368 5869,1362 5901,1346 5918,1345 5944,1339 5952,1336 5959,1330 5961,1323 5970,1321 5975,1321 5982,1320 5990,1319 6000,1316 6007,1314 6015,1313 6025,1311 6029,1310 6035,1309 6046,1307 6050,1307 6056,1307 6061,1307 6069,1306 6073,1305 6079,1303 6086,1300 6092,1298 6099,1296 6105,1293 6108,1292 6113,1290 6119,1288 6124,1288 6130,1288 6137,1290 6142,1296 6145,1298 6149,1298 6168,1294 6177,1295 6184,1300 6190,1304 6195,1307 6198,1307 6201,1305 6205,1304 6210,1307 6212,1309 6218,1308 6226,1300 6238,1289 6241,1287 6245,1286 6256,1283 6263,1282 6271,1277 6275,1278 6276,1281 6279,1285 6282,1286 6287,1288 6292,1289 6296,1290 6303,1296 6309,1297 6312,1297 6316,1296 6323,1289 6326,1286 6331,1284 6337,1283 6343,1276 6346,1269 6348,1269 6350,1273 6354,1275 6357,1275 6360,1274 6363,1273 6379,1266 6386,1265 6396,1266 6400,1265 6408,1262 6416,1255 6421,1252 6427,1252 6438,1260 6446,1262 6468,1261 6474,1262 6479,1264 6486,1266 6499,1268 6508,1268 6518,1268 6523,1268 6525,1271 6518,1272 6514,1273 6511,1276 6514,1279 6518,1280 6526,1279 6545,1280 6557,1279 6561,1278 6563,1275 6564,1272 6562,1268 6564,1266 6566,1266 6570,1270 6575,1271 6575,1268 6575,1262 6578,1261 6582,1262 6592,1271 6596,1273 6602,1273 6607,1274 6614,1273 6618,1276 6623,1290 6643,1305 6651,1322 6656,1330 6662,1334 6667,1332 6664,1327 6664,1324 6669,1327 6671,1331 6676,1333 6686,1341 6694,1344 6697,1343 6700,1340 6707,1329 6714,1318 6718,1315 6724,1314 6743,1314 6745,1313 6747,1311 6744,1307 6742,1303 6743,1298 6742,1294 6739,1291 6735,1283 6734,1244 6730,1238 6724,1233 6724,1229 6728,1228 6734,1230 6738,1227 6734,1224 6727,1223 6725,1221 6723,1217 6723,1211 6731,1195 6742,1189 6752,1181 6768,1179 6774,1182 6777,1182 6777,1179 6773,1172 6773,1160 6770,1155 6762,1148 6757,1145 6758,1140 6763,1139 6790,1147 6802,1147 6810,1143 6823,1138 6827,1131 6827,1119 6832,1110 6837,1101 6840,1095 6842,1089 6840,1085 6838,1076 6838,1067 6833,1062 6830,1055 6832,1045 6836,1043 6839,1042 6846,1041 6851,1038 6856,1038 6857,1036 6849,1033 6850,1030 6849,1024 6850,1018 6852,993 6855,985 6858,980 6859,975 6858,969 6858,966 6859,962 6869,958 6870,952 6873,953 6875,962 6879,964 6881,962 6876,948 6879,945 6882,943 6889,941 6896,936 6911,921 6912,917 6912,912 6907,906 6908,904 6914,898 6917,889 6919,885 6923,880 6932,889 6939,892 6949,896 6952,899 6959,903 6964,906 6971,908 6978,911 6981,912 6989,912 6996,914 6999,914 7008,914 7017,913 7023,911 7031,910 7037,907 7045,904 7052,904 7059,902 7065,901 7070,900 7074,898 7079,898 7084,896 7090,896 7093,895 7100,895 7105,895 7113,897 7118,896 7121,893 7125,887 7129,882 7133,876 7137,874 7141,870 7152,870 7163,871 7169,871 7177,869 7182,866 7184,860 7186,853 7189,845 7190,839 7193,831 7197,827 7201,823 7205,822 7213,822 7221,823 " class="polyStyle" id="140826" style="fill:#ee8b94"/>
<path d="" class="polyStyle" id="140525" style="fill:#d4ecb2"/>
<polygon points="3700,67 3704,69 3707,72 3712,74 3716,79 3717,84 3718,93 3715,99 3713,103 3710,107 3707,114 3704,123 3701,133 3698,142 3697,151 3696,159 3696,166 3699,169 3704,172 3711,173 3714,176 3719,179 3722,182 3725,187 3728,194 3731,200 3732,203 3735,207 3740,211 3745,215 3749,220 3751,227 3751,231 3751,237 3748,241 3743,246 3740,253 3738,263 3736,270 3737,273 3738,277 3742,279 3748,280 3753,282 3761,285 3773,289 3786,294 3793,300 3798,302 3803,305 3806,309 3809,315 3810,318 3813,323 3813,328 3810,332 3807,337 3800,343 3789,350 3784,355 3782,359 3782,364 3786,369 3792,373 3798,383 3806,396 3811,402 3815,410 3821,409 3827,408 3835,409 3851,411 3854,414 3865,424 3913,415 3929,414 3949,407 3960,406 3983,410 3996,412 4011,426 4018,427 4028,427 4053,426 4073,425 4098,421 4104,421 4111,421 4105,448 4105,471 4112,487 4112,497 4119,529 4120,546 4121,588 4119,607 4109,621 4110,634 4113,641 4116,659 4124,685 4128,693 4138,728 4144,735 4146,745 4168,772 4193,789 4204,814 4207,831 4210,870 4207,919 4207,962 4222,980 4242,996 4266,1008 4270,1014 4274,1031 4293,1051 4298,1059 4300,1069 4299,1104 4305,1116 4305,1124 4300,1141 4299,1151 4300,1162 4316,1199 4316,1211 4313,1225 4307,1234 4299,1242 4264,1269 4250,1290 4243,1309 4242,1324 4234,1350 4234,1359 4229,1371 4213,1399 4196,1423 4166,1476 4152,1492 4134,1517 4112,1538 4103,1552 4095,1559 4090,1566 4066,1587 4057,1599 4040,1614 4034,1622 4016,1639 4008,1659 4009,1686 4005,1701 4005,1712 4003,1721 3997,1736 3993,1742 3988,1761 3987,1770 3992,1790 3993,1809 3996,1820 3994,1825 3992,1830 3990,1835 3987,1841 3984,1851 3987,1863 4000,1883 4001,1890 3998,1907 3993,1914 3990,1921 4002,1931 4007,1949 3997,1969 3980,1979 3970,1989 3969,1995 3953,2023 3951,2029 3959,2065 3949,2083 3935,2088 3901,2095 3891,2100 3877,2110 3869,2119 3863,2129 3857,2152 3851,2163 3835,2176 3828,2190 3823,2196 3818,2200 3816,2199 3806,2197 3802,2193 3801,2190 3803,2162 3796,2140 3786,2103 3789,2073 3793,2051 3800,2017 3797,2013 3794,2007 3794,2002 3793,1998 3793,1991 3795,1984 3796,1977 3794,1972 3793,1968 3790,1962 3786,1956 3781,1947 3776,1938 3771,1931 3769,1928 3767,1923 3766,1919 3763,1919 3756,1928 3750,1934 3744,1939 3739,1941 3734,1946 3726,1945 3715,1938 3702,1918 3687,1910 3685,1914 3682,1927 3679,1931 3662,1933 3641,1929 3621,1935 3600,1930 3573,1917 3555,1909 3547,1903 3544,1895 3542,1879 3538,1877 3533,1877 3528,1879 3526,1883 3528,1893 3525,1897 3510,1894 3494,1890 3436,1873 3419,1870 3395,1868 3383,1868 3377,1865 3374,1856 3372,1847 3369,1837 3370,1824 3363,1807 3359,1798 3356,1789 3351,1783 3347,1781 3342,1782 3340,1788 3338,1794 3336,1811 3314,1831 3307,1831 3301,1830 3276,1823 3268,1826 3255,1833 3252,1843 3247,1845 3240,1847 3232,1846 3227,1843 3226,1838 3226,1826 3223,1815 3221,1810 3202,1796 3188,1770 3182,1762 3170,1755 3161,1755 3157,1761 3158,1777 3159,1784 3158,1788 3155,1793 3151,1795 3143,1794 3134,1795 3125,1794 3114,1790 3110,1787 3104,1776 3096,1760 3085,1739 3080,1728 3075,1719 3069,1707 3064,1693 3061,1679 3058,1666 3053,1655 3052,1647 3053,1641 3058,1632 3062,1622 3064,1608 3060,1596 3061,1588 3059,1576 3057,1569 3053,1528 3039,1485 3037,1474 3035,1459 3035,1444 3032,1435 3005,1406 2997,1395 2989,1388 2977,1383 2966,1375 2959,1367 2949,1360 2939,1350 2934,1344 2928,1324 2930,1307 2949,1299 2985,1310 2997,1305 2999,1293 2991,1226 2987,1153 2981,1143 2936,1118 2923,1100 2917,1089 2931,1083 2946,1085 2982,1081 2997,1066 2993,1056 2998,1027 2994,1010 2985,997 2976,989 2969,978 2961,973 2946,958 2946,948 2952,927 2954,915 2954,901 2959,880 2952,859 2940,838 2931,830 2927,823 2923,797 2926,744 2924,721 2925,709 2923,686 2924,679 2926,671 2932,659 2935,647 2942,641 2946,620 2945,605 2962,580 2966,569 2962,557 2952,545 2946,541 2934,519 2931,511 2933,497 2941,500 2946,502 2952,503 2967,509 2977,514 2990,513 2995,507 3002,497 3014,490 3023,490 3031,491 3082,511 3089,512 3094,519 3099,531 3115,538 3143,548 3183,556 3190,557 3199,561 3204,562 3212,566 3220,572 3226,580 3232,586 3236,589 3247,595 3255,603 3265,610 3273,617 3278,622 3285,631 3293,639 3297,645 3304,648 3316,652 3321,649 3334,647 3351,645 3358,644 3373,644 3390,644 3400,643 3412,643 3419,642 3423,640 3428,637 3434,633 3438,628 3441,624 3451,612 3458,602 3463,594 3468,581 3470,572 3476,567 3484,559 3495,550 3501,547 3511,544 3524,540 3535,538 3545,536 3551,535 3559,534 3564,532 3566,528 3565,524 3562,520 3559,516 3554,511 3551,507 3551,502 3552,493 3553,488 3553,479 3555,473 3554,466 3550,455 3548,442 3548,435 3547,429 3549,424 3549,419 3552,415 3555,407 3557,400 3559,397 3561,391 3561,380 3563,372 3563,365 3566,359 3568,354 3569,351 3573,348 3578,345 3582,341 3583,338 3581,332 3578,328 3573,322 3569,315 3566,308 3562,299 3559,291 3555,283 3555,277 3557,270 3559,259 3561,250 3562,244 3566,241 3569,240 3575,238 3580,237 3583,237 3587,235 3589,232 3591,228 3590,222 3591,215 3592,207 3592,197 3592,186 3592,176 3593,162 3594,159 3596,155 3601,152 3607,150 3612,146 3618,141 3622,134 3623,127 3625,120 3630,114 3633,108 3640,99 3649,92 3658,83 3662,81 3668,78 3675,73 3680,69 3686,67 3692,65 3697,66 " class="polyStyle" id="140824" style="fill:#ee8b94"/>
<polygon points="4421,13 4424,28 4434,44 4469,69 4484,72 4528,69 4552,76 4582,102 4605,124 4621,136 4660,207 4679,241 4698,254 4737,259 4763,273 4773,286 4775,289 4774,327 4776,366 4780,378 4790,391 4792,399 4792,410 4793,418 4794,427 4794,438 4794,446 4795,457 4795,467 4796,478 4796,489 4796,502 4797,510 4798,532 4808,562 4818,563 4850,564 4861,562 4875,561 4889,559 4907,555 4918,555 4941,551 4958,553 4969,555 4982,558 4990,560 4997,563 5007,568 5016,569 5024,573 5029,585 5030,592 5034,601 5035,607 5034,620 5040,633 5051,635 5051,641 5050,650 5049,660 5049,669 5049,681 5051,690 5057,697 5075,697 5092,696 5116,698 5144,699 5172,695 5191,691 5208,681 5212,678 5220,673 5225,664 5229,654 5231,648 5234,641 5237,635 5238,625 5238,616 5240,603 5240,594 5242,586 5248,587 5252,592 5266,597 5271,600 5290,603 5301,600 5311,594 5318,587 5326,582 5342,573 5354,572 5366,570 5371,570 5373,559 5377,557 5389,554 5400,553 5408,555 5422,555 5432,554 5439,548 5440,544 5440,538 5440,535 5443,532 5448,530 5455,528 5466,531 5473,531 5480,534 5486,538 5494,544 5497,550 5504,558 5511,568 5513,577 5515,585 5519,594 5521,601 5521,609 5520,616 5518,621 5512,627 5510,633 5508,639 5505,647 5505,653 5507,662 5513,669 5519,677 5534,685 5542,695 5545,698 5552,704 5557,711 5558,723 5559,741 5557,755 5556,765 5528,763 5502,756 5489,745 5482,733 5477,728 5459,719 5450,718 5421,720 5394,723 5367,729 5341,738 5325,744 5309,743 5299,743 5289,746 5282,752 5277,760 5282,777 5285,787 5299,803 5306,812 5312,829 5323,845 5327,855 5329,865 5324,875 5314,881 5296,889 5287,892 5278,901 5292,917 5297,928 5291,943 5283,948 5276,950 5270,951 5259,950 5233,941 5204,940 5192,936 5176,924 5169,922 5163,926 5157,936 5156,971 5157,1001 5159,1020 5161,1043 5155,1056 5155,1069 5156,1076 5157,1090 5163,1116 5170,1136 5175,1152 5175,1169 5180,1181 5187,1186 5204,1189 5219,1193 5227,1199 5230,1209 5242,1218 5249,1229 5253,1249 5249,1256 5219,1260 5208,1263 5207,1269 5210,1279 5210,1284 5201,1290 5198,1308 5208,1324 5221,1344 5227,1347 5238,1352 5241,1354 5244,1355 5249,1353 5252,1346 5256,1341 5262,1340 5266,1339 5270,1340 5277,1348 5290,1359 5298,1365 5300,1367 5298,1373 5297,1376 5297,1384 5301,1395 5306,1405 5311,1417 5297,1431 5274,1444 5221,1457 5201,1465 5173,1491 5146,1509 5138,1517 5120,1542 5113,1549 5085,1566 5089,1574 5095,1599 5092,1608 5058,1623 5042,1627 5029,1629 4963,1630 4947,1639 4944,1648 4937,1655 4926,1658 4899,1661 4880,1665 4865,1670 4857,1675 4843,1679 4825,1691 4820,1709 4811,1721 4784,1736 4766,1735 4712,1724 4657,1719 4645,1714 4635,1712 4627,1712 4608,1720 4572,1730 4557,1717 4541,1716 4530,1717 4519,1707 4513,1704 4499,1707 4483,1700 4437,1699 4423,1705 4414,1704 4405,1697 4390,1693 4378,1696 4362,1712 4351,1714 4327,1715 4311,1723 4298,1740 4259,1735 4206,1743 4191,1754 4176,1761 4152,1767 4136,1778 4124,1784 4088,1792 4075,1804 4066,1805 4056,1817 4022,1831 4015,1833 3994,1825 3996,1820 3993,1809 3992,1790 3987,1770 3988,1761 3993,1742 3997,1736 4003,1721 4005,1712 4005,1701 4009,1686 4008,1659 4016,1639 4034,1622 4040,1614 4057,1599 4066,1587 4090,1566 4095,1559 4103,1552 4112,1538 4134,1517 4152,1492 4166,1476 4196,1423 4213,1399 4229,1371 4234,1359 4234,1350 4242,1324 4243,1309 4250,1290 4264,1269 4299,1242 4307,1234 4313,1225 4316,1211 4316,1199 4300,1162 4299,1151 4300,1141 4305,1124 4305,1116 4299,1104 4300,1069 4298,1059 4293,1051 4274,1031 4270,1014 4266,1008 4242,996 4222,980 4207,962 4207,919 4210,870 4207,831 4204,814 4193,789 4168,772 4146,745 4144,735 4138,728 4128,693 4124,685 4116,659 4113,641 4110,634 4109,621 4119,607 4121,588 4120,546 4119,529 4112,497 4112,487 4105,471 4105,448 4111,421 4113,419 4113,412 4114,409 4114,404 4114,397 4112,390 4110,384 4110,375 4110,367 4110,359 4106,345 4110,330 4117,324 4128,324 4134,323 4149,308 4173,293 4186,284 4191,278 4195,273 4199,269 4204,259 4206,252 4205,223 4199,207 4194,198 4195,191 4199,184 4240,166 4278,134 4303,126 4305,121 4310,114 4311,105 4304,89 4297,83 4292,79 4289,69 4288,63 4313,45 4337,38 4352,28 4376,17 4381,13 4386,7 4393,3 4400,1 4411,0 4416,2 " class="polyStyle" id="140825" style="fill:#d4ecb2"/>
<path d="" class="polyStyle" id="410922" style="fill:#ee8b94"/>
<path d="" class="polyStyle" id="621027" style="fill:#ee8b94"/>
<path d="" class="polyStyle" id="130427" style="fill:#f6f67b"/>
<path d="" class="polyStyle" id="130121" style="fill:#ee8b94"/>
<path d="" class="polyStyle" id="610823" style="fill:#fbe6ef"/>
<path d="" class="polyStyle" id="130225" style="fill:#fbe6ef"/>
<path d="" class="polyStyle" id="130322" style="fill:#d4ecb2"/>
<path d="" class="polyStyle" id="653130" style="fill:#f6f67b"/>
<path d="" class="polyStyle" id="130822" style="fill:#fbe6ef"/>
<path d="" class="polyStyle" id="211221" style="fill:#f6f67b"/>
<path d="" class="polyStyle" id="210921" style="fill:#f6f67b"/>
<path d="" class="polyStyle" id="150223" style="fill:#f8c67d"/>
<path d="" class="polyStyle" id="220422" style="fill:#d4ecb2"/>
<path d="" class="polyStyle" id="340721" style="fill:#f6f67b"/>
<path d="" class="polyStyle" id="510824" style="fill:#d4ecb2"/>
<path d="" class="polyStyle" id="610324" style="fill:#f6f67b"/>
<path d="" class="polyStyle" id="530722" style="fill:#ee8b94"/>
<path d="" class="polyStyle" id="340823" style="fill:#d4ecb2"/>
<path d="" class="polyStyle" id="620825" style="fill:#d4ecb2"/>
<path d="" class="polyStyle" id="421125" style="fill:#ee8b94"/>
<path d="" class="polyStyle" id="210281" style="fill:#ee8b94"/>
<path d="" class="polyStyle" id="440883" style="fill:#f6f67b"/>
<path d="" class="polyStyle" id="469006" style="fill:#d4ecb2"/>
<path d="" class="polyStyle" id="469002" style="fill:#ee8b94"/>
<path d="" class="polyStyle" id="469005" style="fill:#fbe6ef"/>
<path d="" class="polyStyle" id="440882" style="fill:#ee8b94"/>
<path d="" class="polyStyle" id="450681" style="fill:#ee8b94"/>
<path d="" class="polyStyle" id="441581" style="fill:#d4ecb2"/>
<path d="" class="polyStyle" id="421087" style="fill:#ee8b94"/>
<path d="" class="polyStyle" id="420984" style="fill:#fbe6ef"/>
<path d="" class="polyStyle" id="420582" style="fill:#ee8b94"/>
<polygon points="600,3819 724,3832 735,3835 756,3846 784,3857 880,3911 986,3974 1012,3988 1048,4022 1066,4036 1075,4041 1082,4048 1122,4068 1143,4075 1182,4085 1199,4092 1223,4114 1225,4124 1231,4138 1242,4143 1266,4149 1286,4163 1297,4175 1332,4183 1340,4179 1343,4165 1338,4146 1338,4135 1345,4125 1367,4121 1377,4123 1386,4130 1400,4134 1424,4134 1435,4138 1442,4149 1453,4161 1466,4162 1493,4170 1520,4190 1542,4199 1583,4199 1621,4203 1645,4199 1690,4195 1726,4183 1731,4174 1733,4157 1741,4148 1759,4145 1774,4137 1788,4137 1802,4143 1825,4162 1866,4168 1911,4182 1922,4181 1935,4172 1936,4163 1942,4158 1954,4157 1966,4149 1972,4148 1989,4153 1998,4163 2014,4165 2013,4171 2017,4177 2027,4179 2040,4178 2076,4188 2083,4180 2096,4177 2099,4171 2099,4162 2105,4159 2126,4162 2135,4166 2143,4154 2152,4151 2152,4145 2166,4142 2173,4136 2210,4128 2208,4119 2213,4106 2238,4090 2252,4084 2278,4076 2328,4068 2348,4062 2362,4049 2362,4041 2355,4006 2344,3998 2329,3994 2323,3988 2318,3982 2314,3971 2314,3957 2321,3951 2330,3947 2337,3932 2349,3927 2409,3912 2478,3898 2522,3907 2549,3897 2566,3888 2578,3889 2588,3893 2591,3919 2604,3937 2620,3946 2643,3941 2652,3944 2662,3963 2666,3992 2637,3996 2619,4013 2613,4038 2611,4050 2612,4072 2610,4094 2614,4107 2633,4136 2647,4144 2651,4159 2645,4170 2632,4184 2610,4199 2571,4217 2559,4230 2542,4264 2531,4277 2528,4290 2537,4321 2551,4360 2559,4395 2561,4462 2567,4470 2597,4477 2624,4479 2649,4473 2662,4472 2676,4476 2677,4508 2672,4549 2662,4549 2638,4540 2602,4544 2585,4553 2574,4579 2569,4604 2563,4610 2545,4622 2528,4631 2518,4672 2521,4682 2535,4688 2546,4697 2564,4721 2576,4731 2583,4749 2579,4768 2566,4780 2569,4794 2581,4808 2588,4826 2590,4838 2589,4852 2593,4871 2603,4900 2613,4906 2630,4920 2636,4934 2646,4947 2655,4982 2661,4998 2668,5010 2665,5019 2660,5024 2658,5027 2655,5028 2651,5029 2646,5031 2642,5032 2637,5033 2631,5034 2627,5034 2622,5036 2616,5039 2610,5041 2604,5045 2599,5045 2594,5046 2586,5046 2582,5046 2576,5046 2572,5047 2564,5050 2555,5052 2545,5055 2532,5055 2523,5056 2519,5056 2505,5060 2497,5062 2490,5062 2477,5061 2465,5063 2455,5064 2447,5069 2443,5075 2436,5086 2430,5092 2420,5095 2406,5101 2397,5106 2386,5109 2371,5118 2358,5129 2351,5137 2346,5138 2341,5137 2333,5132 2321,5123 2312,5111 2305,5084 2297,5072 2293,5070 2283,5071 2275,5076 2256,5083 2240,5093 2209,5106 2196,5110 2190,5112 2188,5116 2186,5127 2186,5138 2185,5145 2181,5152 2173,5156 2164,5159 2159,5158 2147,5163 2144,5167 2142,5178 2141,5184 2138,5186 2130,5187 2124,5191 2117,5195 2104,5201 2097,5201 2091,5203 2086,5201 2080,5200 2072,5197 2069,5196 2060,5191 2055,5190 2051,5190 2047,5190 2044,5188 2041,5186 2037,5186 2032,5185 2027,5183 2022,5180 2019,5177 2014,5172 2009,5169 2001,5165 1990,5159 1980,5154 1970,5149 1961,5145 1956,5143 1951,5142 1943,5143 1937,5144 1929,5145 1920,5145 1911,5146 1900,5146 1886,5147 1878,5146 1874,5145 1864,5145 1855,5142 1850,5140 1842,5136 1833,5134 1821,5130 1817,5127 1805,5124 1801,5124 1791,5137 1786,5141 1783,5143 1779,5145 1774,5148 1764,5151 1753,5151 1739,5152 1727,5152 1720,5152 1712,5152 1707,5152 1702,5151 1698,5150 1691,5148 1686,5145 1680,5142 1674,5141 1670,5137 1658,5131 1654,5130 1651,5130 1648,5131 1644,5131 1639,5131 1635,5131 1630,5131 1625,5131 1620,5130 1617,5129 1612,5126 1607,5123 1604,5118 1599,5113 1595,5108 1591,5104 1586,5099 1574,5091 1565,5086 1559,5083 1549,5079 1547,5079 1544,5079 1541,5079 1533,5080 1521,5084 1508,5089 1495,5088 1478,5087 1459,5087 1446,5091 1438,5096 1433,5097 1428,5097 1419,5093 1415,5092 1412,5092 1401,5089 1395,5086 1383,5083 1373,5076 1369,5074 1366,5071 1362,5070 1356,5069 1352,5074 1351,5079 1346,5084 1339,5087 1332,5088 1327,5088 1323,5090 1319,5092 1315,5095 1311,5098 1305,5103 1300,5107 1294,5112 1290,5116 1286,5119 1283,5124 1281,5132 1276,5141 1273,5144 1271,5148 1260,5153 1252,5170 1244,5190 1242,5198 1238,5204 1233,5207 1224,5207 1218,5207 1210,5204 1205,5203 1202,5200 1198,5197 1192,5197 1192,5201 1189,5204 1183,5204 1179,5204 1174,5206 1168,5210 1164,5213 1160,5212 1156,5210 1154,5207 1148,5205 1143,5205 1134,5209 1128,5210 1124,5211 1121,5213 1118,5214 1115,5214 1111,5214 1107,5212 1103,5210 1098,5212 1095,5215 1092,5220 1089,5224 1080,5226 1074,5226 1071,5225 1066,5223 1061,5221 1056,5216 1052,5214 1048,5214 1045,5212 1042,5209 1039,5207 1032,5206 1025,5205 1021,5204 1014,5205 1004,5204 1000,5207 996,5210 992,5215 986,5222 976,5232 970,5236 966,5240 959,5245 955,5248 949,5253 940,5259 933,5263 926,5267 905,5276 897,5280 884,5288 876,5291 870,5291 861,5286 853,5282 841,5280 831,5279 826,5279 818,5279 809,5280 802,5283 783,5284 777,5283 768,5283 759,5285 754,5287 752,5290 748,5293 743,5295 736,5299 728,5301 722,5304 716,5305 708,5305 701,5306 693,5307 689,5307 679,5309 664,5309 650,5307 641,5307 637,5308 628,5314 620,5318 605,5324 595,5325 589,5326 586,5328 581,5331 581,5336 581,5340 573,5344 562,5348 552,5353 546,5354 538,5356 532,5358 529,5362 526,5364 520,5367 512,5369 508,5371 503,5376 498,5376 496,5378 495,5382 493,5386 490,5386 485,5384 480,5381 476,5381 470,5378 468,5376 465,5370 463,5367 458,5363 457,5359 453,5353 441,5351 432,5350 424,5353 418,5361 412,5367 411,5372 405,5373 400,5376 400,5382 397,5386 395,5390 398,5394 402,5402 407,5405 413,5407 419,5413 417,5415 411,5415 400,5413 392,5410 389,5407 383,5404 378,5404 374,5405 376,5410 379,5413 384,5417 388,5424 388,5429 383,5431 374,5430 367,5429 363,5431 359,5432 353,5433 346,5432 343,5436 342,5443 336,5451 334,5457 333,5463 337,5472 337,5483 336,5491 325,5505 318,5513 313,5516 310,5524 307,5535 298,5546 295,5553 289,5558 279,5563 270,5563 266,5571 259,5583 250,5588 247,5595 246,5598 248,5604 260,5615 264,5625 260,5638 252,5645 248,5654 245,5663 245,5667 246,5676 246,5694 242,5701 235,5709 231,5718 226,5723 213,5726 202,5727 189,5725 181,5725 173,5728 167,5728 162,5729 158,5730 153,5731 145,5734 138,5735 131,5735 126,5734 118,5735 111,5734 102,5733 95,5732 90,5732 84,5732 78,5733 26,5739 40,5682 46,5660 58,5622 70,5580 76,5560 88,5496 102,5452 104,5434 112,5396 114,5362 116,5298 110,5220 104,5186 94,5152 90,5138 82,5082 76,5050 70,4996 62,4960 58,4938 48,4884 40,4814 10,4654 2,4618 0,4592 0,4570 2,4502 6,4476 18,4436 24,4426 50,4392 94,4354 110,4338 168,4282 200,4246 212,4234 250,4202 308,4138 326,4124 338,4106 358,4088 408,4038 444,3994 478,3942 490,3920 514,3866 528,3818 530,3811 539,3811 555,3812 " class="polyStyle" id="140881" style="fill:#f6f67b"/>
<polygon points="2103,168 2106,169 2110,171 2116,173 2125,176 2136,180 2145,188 2156,197 2164,206 2176,216 2182,218 2190,220 2195,223 2200,228 2200,236 2200,247 2198,255 2199,259 2203,261 2207,262 2214,263 2222,264 2229,264 2234,267 2247,265 2264,266 2267,267 2273,271 2280,275 2286,279 2297,284 2305,290 2306,293 2309,299 2311,304 2311,320 2308,327 2303,332 2297,336 2292,338 2286,339 2279,341 2275,343 2271,346 2263,349 2255,353 2248,359 2240,362 2232,371 2225,383 2224,390 2223,393 2223,397 2224,401 2226,406 2228,411 2232,414 2236,420 2241,425 2242,431 2242,439 2242,444 2243,447 2244,451 2246,457 2249,459 2252,459 2256,459 2268,455 2276,453 2285,451 2297,450 2307,450 2314,450 2325,452 2332,453 2339,450 2348,448 2365,441 2374,437 2380,433 2391,431 2403,429 2413,426 2419,424 2425,423 2428,423 2443,410 2456,406 2492,410 2533,395 2549,392 2578,399 2620,430 2654,441 2659,440 2669,435 2677,435 2690,435 2702,438 2713,441 2726,447 2740,454 2746,455 2755,462 2767,471 2779,477 2788,481 2796,483 2807,486 2819,489 2828,490 2835,489 2845,490 2856,490 2866,488 2874,489 2882,484 2890,481 2893,479 2901,480 2908,481 2917,487 2922,489 2927,493 2933,497 2931,511 2934,519 2946,541 2952,545 2962,557 2966,569 2962,580 2945,605 2946,620 2942,641 2935,647 2932,659 2926,671 2924,679 2923,686 2925,709 2924,721 2926,744 2923,797 2927,823 2931,830 2940,838 2952,859 2959,880 2954,901 2954,915 2952,927 2946,948 2946,958 2961,973 2969,978 2976,989 2985,997 2994,1010 2998,1027 2993,1056 2997,1066 2982,1081 2946,1085 2931,1083 2917,1089 2923,1100 2936,1118 2981,1143 2987,1153 2991,1226 2999,1293 2997,1305 2985,1310 2949,1299 2930,1307 2928,1324 2934,1344 2939,1350 2949,1360 2959,1367 2966,1375 2977,1383 2989,1388 2997,1395 3005,1406 3032,1435 3035,1444 3035,1459 3037,1474 3018,1478 2967,1493 2944,1488 2910,1465 2888,1465 2877,1468 2859,1477 2852,1476 2842,1472 2835,1471 2827,1472 2826,1488 2822,1489 2818,1487 2816,1484 2812,1476 2807,1475 2804,1474 2791,1479 2776,1488 2767,1501 2754,1509 2746,1507 2741,1510 2718,1517 2714,1520 2696,1532 2692,1545 2692,1569 2692,1578 2682,1580 2674,1580 2669,1577 2664,1549 2659,1535 2650,1531 2643,1532 2638,1532 2631,1532 2626,1531 2622,1531 2617,1534 2613,1537 2611,1543 2609,1546 2604,1554 2604,1559 2601,1568 2599,1576 2596,1582 2592,1587 2588,1589 2580,1590 2575,1590 2570,1590 2565,1590 2560,1591 2555,1593 2552,1599 2549,1602 2549,1608 2548,1611 2546,1615 2544,1618 2541,1621 2536,1624 2531,1632 2525,1635 2523,1641 2519,1647 2518,1654 2516,1660 2516,1665 2517,1671 2518,1683 2519,1691 2517,1698 2514,1705 2513,1709 2510,1714 2504,1741 2488,1745 2476,1745 2469,1742 2468,1738 2467,1714 2464,1699 2459,1694 2442,1699 2437,1696 2421,1671 2399,1653 2386,1648 2380,1648 2377,1651 2366,1684 2362,1688 2317,1704 2309,1704 2298,1694 2294,1693 2289,1691 2281,1688 2272,1679 2262,1671 2252,1659 2246,1649 2240,1644 2235,1641 2231,1639 2226,1638 2222,1638 2213,1643 2207,1645 2201,1646 2198,1646 2194,1646 2190,1644 2184,1641 2178,1635 2173,1632 2169,1628 2166,1623 2163,1620 2162,1617 2158,1611 2155,1608 2152,1607 2140,1610 2129,1614 2122,1615 2115,1618 2111,1618 2106,1618 2103,1617 2100,1614 2096,1602 2090,1592 2086,1584 2073,1581 2040,1589 2013,1585 1967,1535 1942,1507 1931,1507 1845,1533 1828,1580 1670,1589 1599,1575 1594,1575 1624,1511 1638,1481 1662,1423 1678,1385 1692,1357 1702,1327 1728,1267 1758,1217 1782,1175 1788,1165 1794,1157 1804,1151 1844,1115 1854,1105 1862,1093 1864,1077 1884,1033 1888,1023 1894,971 1898,923 1894,881 1887,861 1868,834 1845,813 1817,805 1800,800 1788,793 1781,785 1779,775 1779,765 1786,720 1787,697 1784,684 1778,674 1768,666 1753,658 1741,649 1735,636 1730,619 1726,613 1715,597 1712,580 1714,565 1724,537 1726,527 1726,516 1724,496 1719,472 1714,440 1713,423 1719,423 1729,422 1739,420 1742,416 1751,412 1764,407 1773,402 1781,396 1792,389 1798,385 1804,384 1811,382 1815,379 1818,378 1819,373 1819,368 1821,364 1827,361 1834,360 1843,357 1845,352 1846,348 1849,346 1852,346 1855,347 1859,346 1861,343 1862,340 1863,336 1867,330 1870,326 1873,323 1875,320 1876,317 1878,313 1877,309 1877,305 1881,301 1884,299 1888,299 1891,300 1894,301 1899,300 1906,297 1909,294 1913,292 1917,288 1918,285 1919,282 1920,279 1922,275 1924,271 1925,267 1929,261 1933,257 1936,256 1939,256 1944,254 1947,246 1951,242 1956,239 1958,236 1960,232 1961,229 1962,223 1964,214 1965,204 1967,197 1973,198 1980,196 1986,195 1993,193 1999,189 2007,186 2014,182 2020,180 2028,178 2037,176 2044,175 2052,173 2058,169 2061,168 2065,167 2068,166 2072,166 2075,166 2079,166 2082,166 2085,166 2089,166 2092,166 2096,166 2099,167 " class="polyStyle" id="140882" style="fill:#fbe6ef"/>
<path d="" class="polyStyle" id="370282" style="fill:#f6f67b"/>
<path d="" class="polyStyle" id="371083" style="fill:#f6f67b"/>
<path d="" class="polyStyle" id="371082" style="fill:#fbe6ef"/>
<path d="" class="polyStyle" id="652801" style="fill:#f8c67d"/>
<path d="" class="polyStyle" id="654301" style="fill:#ee8b94"/>
<path d="" class="polyStyle" id="370687" style="fill:#ee8b94"/>
<path d="" class="polyStyle" id="371482" style="fill:#d4ecb2"/>
<path d="" class="polyStyle" id="421081" style="fill:#fbe6ef"/>
<path d="" class="polyStyle" id="429006" style="fill:#f6f67b"/>
<path d="" class="polyStyle" id="440982" style="fill:#d4ecb2"/>
<path d="" class="polyStyle" id="421181" style="fill:#d4ecb2"/>
<path d="" class="polyStyle" id="321181" style="fill:#d4ecb2"/>
<path d="" class="polyStyle" id="659007" style="fill:#ee8b94"/>
<path d="" class="polyStyle" id="652701" style="fill:#fbe6ef"/>
<path d="" class="polyStyle" id="210781" style="fill:#fbe6ef"/>
<path d="" class="polyStyle" id="460204" style="fill:#f6f67b"/>
<path d="" class="polyStyle" id="210211" style="fill:#f6f67b"/>
<path d="" class="polyStyle" id="450512" style="fill:#ee8b94"/>
<path d="" class="polyStyle" id="450602" style="fill:#fbe6ef"/>
<path d="" class="polyStyle" id="440404" style="fill:#ee8b94"/>
<path d="" class="polyStyle" id="440403" style="fill:#f6f67b"/>
<path d="" class="polyStyle" id="441502" style="fill:#f6f67b"/>
<path d="" class="polyStyle" id="431002" style="fill:#d4ecb2"/>
<path d="" class="polyStyle" id="500107" style="fill:#fbe6ef"/>
<path d="" class="polyStyle" id="430611" style="fill:#d4ecb2"/>
<path d="" class="polyStyle" id="511304" style="fill:#fbe6ef"/>
<path d="" class="polyStyle" id="340711" style="fill:#ee8b94"/>
<path d="" class="polyStyle" id="320118" style="fill:#f6f67b"/>
<path d="" class="polyStyle" id="510704" style="fill:#f6f67b"/>
<path d="" class="polyStyle" id="411502" style="fill:#ee8b94"/>
<path d="" class="polyStyle" id="320302" style="fill:#d4ecb2"/>
<polygon points="3838,2256 3819,2286 3820,2302 3823,2309 3859,2334 3868,2331 3871,2338 3880,2339 3888,2342 3897,2341 3892,2333 3905,2329 3913,2331 3924,2340 3932,2341 3944,2336 3942,2351 3955,2354 3958,2360 3948,2359 3948,2376 3954,2381 3959,2374 3970,2379 3980,2403 3988,2409 3997,2413 4013,2417 4021,2417 4033,2414 4041,2415 4057,2427 4071,2453 4066,2459 4070,2472 4074,2479 4080,2479 4079,2485 4072,2483 4069,2492 4070,2500 4075,2508 4076,2521 4073,2529 4072,2539 4073,2554 4080,2569 4080,2579 4086,2583 4091,2591 4092,2600 4095,2608 4112,2616 4114,2622 4137,2624 4147,2620 4154,2623 4158,2637 4170,2648 4175,2656 4193,2661 4216,2675 4219,2682 4216,2689 4229,2702 4226,2709 4228,2718 4220,2724 4218,2731 4206,2735 4205,2744 4211,2750 4194,2765 4187,2766 4181,2761 4172,2757 4161,2761 4153,2762 4146,2759 4136,2762 4129,2765 4131,2775 4125,2782 4090,2794 4083,2800 4062,2807 4058,2814 4049,2817 4050,2824 4040,2830 4037,2837 4045,2849 4044,2856 4038,2859 4037,2866 4045,2870 4053,2867 4060,2875 4052,2883 4052,2889 4067,2889 4083,2915 4089,2920 4096,2919 4110,2933 4120,2936 4125,2944 4125,2953 4131,2958 4143,2959 4151,2966 4151,2979 4145,2987 4149,3013 4155,3027 4153,3056 4158,3070 4169,3090 4164,3098 4166,3104 4173,3104 4176,3112 4176,3118 4184,3128 4186,3135 4180,3136 4177,3142 4185,3146 4187,3152 4186,3160 4192,3161 4189,3167 4190,3173 4188,3179 4188,3186 4195,3192 4189,3204 4197,3225 4210,3233 4227,3232 4236,3235 4259,3238 4271,3233 4282,3224 4289,3216 4298,3213 4307,3216 4328,3240 4337,3253 4336,3259 4341,3267 4352,3273 4355,3281 4352,3288 4353,3326 4377,3338 4383,3343 4388,3356 4387,3365 4381,3380 4390,3385 4375,3405 4374,3411 4382,3416 4382,3424 4378,3430 4380,3436 4373,3445 4381,3452 4375,3464 4350,3492 4321,3515 4323,3521 4346,3535 4347,3541 4320,3558 4302,3564 4297,3570 4298,3584 4301,3591 4306,3597 4307,3610 4326,3626 4321,3632 4321,3638 4327,3642 4326,3648 4322,3654 4324,3661 4317,3667 4318,3673 4332,3672 4346,3676 4355,3676 4362,3675 4368,3672 4375,3675 4392,3672 4398,3666 4403,3673 4411,3672 4418,3668 4419,3674 4427,3683 4433,3683 4441,3679 4449,3684 4455,3684 4462,3679 4471,3684 4488,3697 4494,3697 4500,3694 4499,3701 4503,3707 4502,3714 4505,3720 4505,3733 4511,3733 4508,3742 4510,3748 4509,3755 4496,3768 4490,3782 4497,3784 4504,3779 4511,3782 4528,3795 4544,3804 4551,3807 4558,3806 4556,3813 4567,3821 4582,3829 4587,3840 4585,3846 4578,3846 4582,3853 4581,3861 4583,3867 4588,3874 4594,3876 4593,3884 4597,3890 4603,3885 4606,3891 4615,3887 4621,3887 4623,3899 4634,3902 4660,3915 4718,3947 4728,3955 4732,3974 4748,3986 4753,3994 4729,4000 4723,4007 4724,4014 4732,4024 4709,4036 4702,4038 4692,4047 4685,4047 4679,4051 4677,4057 4662,4061 4659,4068 4622,4086 4618,4095 4607,4104 4597,4104 4583,4096 4576,4095 4565,4100 4541,4120 4545,4141 4540,4157 4545,4168 4557,4179 4557,4187 4550,4190 4542,4190 4532,4194 4518,4207 4502,4217 4484,4220 4461,4218 4455,4219 4445,4229 4445,4235 4454,4240 4449,4249 4437,4259 4425,4273 4422,4286 4406,4293 4400,4294 4395,4304 4381,4304 4386,4313 4396,4319 4405,4328 4402,4335 4390,4328 4380,4318 4374,4316 4362,4319 4356,4328 4326,4326 4315,4328 4297,4338 4291,4350 4279,4354 4257,4358 4245,4365 4233,4369 4214,4368 4204,4373 4195,4392 4176,4402 4173,4413 4159,4423 4155,4438 4123,4452 4120,4458 4121,4470 4117,4477 4102,4480 4090,4479 4063,4495 4048,4493 4032,4494 4022,4499 4018,4511 3997,4518 3976,4518 3966,4523 3957,4542 3925,4576 3907,4603 3912,4618 3880,4620 3863,4614 3851,4607 3811,4622 3776,4639 3761,4651 3752,4661 3739,4672 3731,4670 3700,4673 3686,4672 3671,4675 3661,4679 3653,4695 3632,4720 3625,4723 3594,4724 3572,4729 3548,4731 3542,4734 3535,4740 3508,4780 3495,4784 3469,4781 3463,4782 3437,4816 3421,4828 3404,4838 3375,4859 3369,4865 3362,4869 3346,4867 3328,4873 3319,4879 3305,4890 3300,4898 3296,4902 3286,4914 3284,4922 3269,4933 3263,4935 3242,4935 3235,4937 3211,4933 3176,4919 3143,4910 3137,4910 3110,4921 3088,4926 3071,4921 3056,4922 3048,4924 3035,4934 3027,4926 3015,4924 3006,4925 2986,4933 2969,4935 2944,4942 2928,4951 2908,4976 2897,4985 2873,5010 2866,5011 2852,5009 2818,4994 2793,4997 2786,4994 2779,4987 2763,4983 2746,4984 2740,4986 2718,4984 2702,4988 2680,4999 2668,5010 2661,4998 2655,4982 2646,4947 2636,4934 2630,4920 2613,4906 2603,4900 2593,4871 2589,4852 2590,4838 2588,4826 2581,4808 2569,4794 2566,4780 2579,4768 2583,4749 2576,4731 2564,4721 2546,4697 2535,4688 2521,4682 2518,4672 2528,4631 2545,4622 2563,4610 2569,4604 2574,4579 2585,4553 2602,4544 2638,4540 2662,4549 2672,4549 2677,4508 2676,4476 2662,4472 2649,4473 2624,4479 2597,4477 2567,4470 2561,4462 2559,4395 2551,4360 2537,4321 2528,4290 2531,4277 2542,4264 2559,4230 2571,4217 2610,4199 2632,4184 2645,4170 2651,4159 2647,4144 2633,4136 2614,4107 2610,4094 2612,4072 2611,4050 2613,4038 2619,4013 2637,3996 2666,3992 2670,4002 2686,4017 2735,4031 2751,4022 2766,3976 2781,3966 2824,3945 2838,3947 2859,3958 2887,3960 2957,3961 2993,3942 2997,3922 3015,3896 3032,3886 3045,3883 3101,3889 3121,3885 3154,3874 3203,3830 3226,3828 3245,3823 3282,3803 3300,3796 3319,3804 3345,3836 3398,3854 3433,3831 3434,3797 3419,3768 3370,3754 3328,3721 3325,3708 3324,3686 3329,3677 3335,3650 3335,3642 3330,3612 3324,3603 3308,3563 3303,3555 3290,3544 3277,3508 3266,3490 3264,3480 3252,3449 3221,3408 3198,3373 3197,3345 3205,3335 3227,3322 3232,3316 3232,3307 3223,3293 3185,3260 3165,3246 3129,3228 3118,3214 3113,3207 3112,3197 3102,3169 3103,3159 3095,3121 3105,3107 3119,3092 3131,3075 3153,3066 3176,3062 3198,3053 3209,3042 3219,3025 3228,3016 3258,2993 3266,2978 3293,2910 3290,2896 3285,2890 3271,2885 3261,2883 3260,2859 3265,2826 3300,2790 3326,2753 3351,2741 3378,2725 3392,2725 3419,2737 3436,2738 3447,2736 3449,2723 3438,2675 3485,2653 3517,2636 3519,2626 3514,2609 3524,2599 3542,2591 3569,2588 3582,2594 3588,2602 3597,2609 3605,2609 3608,2601 3615,2590 3615,2581 3614,2567 3609,2551 3601,2535 3611,2518 3652,2504 3676,2476 3726,2434 3744,2397 3749,2376 3769,2320 3811,2252 3817,2251 3826,2252 " class="polyStyle" id="140802" style="fill:#d4ecb2"/>
<path d="" class="polyStyle" id="140311" style="fill:#ee8b94"/>
<path d="" class="polyStyle" id="610802" style="fill:#ee8b94"/>
<path d="" class="polyStyle" id="120116" style="fill:#f6f67b"/>
<path d="" class="polyStyle" id="130303" style="fill:#fbe6ef"/>
<path d="" class="polyStyle" id="140211" style="fill:#f6f67b"/>
<path d="" class="polyStyle" id="150207" style="fill:#fbe6ef"/>
<path d="" class="polyStyle" id="211403" style="fill:#f6f67b"/>
<path d="" class="polyStyle" id="150802" style="fill:#f8c67d"/>
<path d="" class="polyStyle" id="210112" style="fill:#ee8b94"/>
<path d="" class="polyStyle" id="230406" style="fill:#d4ecb2"/>
<path d="" class="polyStyle" id="110113" style="fill:#fbe6ef"/>
<path d="" class="polyStyle" id="341702" style="fill:#fbe6ef"/>
<path d="" class="polyStyle" id="420303" style="fill:#ee8b94"/>
<path d="" class="polyStyle" id="340702" style="fill:#d4ecb2"/>
<path d="" class="polyStyle" id="421002" style="fill:#f6f67b"/>
<path d="" class="polyStyle" id="420117" style="fill:#f6f67b"/>
<path d="" class="polyStyle" id="440904" style="fill:#f8c67d"/>
<path d="" class="polyStyle" id="460205" style="fill:#ee8b94"/>
<path d="" class="polyStyle" id="460202" style="fill:#f6f67b"/>
<path d="" class="polyStyle" id="460203" style="fill:#fbe6ef"/>
<path d="" class="polyStyle" id="420304" style="fill:#f6f67b"/>
<path d="" class="polyStyle" id="445302" style="fill:#ee8b94"/>
<path d="" class="polyStyle" id="410202" style="fill:#d4ecb2"/>
<path d="" class="polyStyle" id="440800" style="fill:#f6f67b"/>
<path d="" class="polyStyle" id="440900" style="fill:#ee8b94"/>
<path d="" class="polyStyle" id="340800" style="fill:#ee8b94"/>
<path d="" class="polyStyle" id="460200" style="fill:#f6f67b"/>
<path d="" class="polyStyle" id="460000" style="fill:#ee8b94"/>
<path d="" class="polyStyle" id="450500" style="fill:#ee8b94"/>
<path d="" class="polyStyle" id="450600" style="fill:#ee8b94"/>
<path d="" class="polyStyle" id="440400" style="fill:#f6f67b"/>
<path d="" class="polyStyle" id="441700" style="fill:#f6f67b"/>
<path d="" class="polyStyle" id="441500" style="fill:#f6f67b"/>
<path d="" class="polyStyle" id="350600" style="fill:#ee8b94"/>
<path d="" class="polyStyle" id="710000" style="fill:#f6f67b"/>
<path d="" class="polyStyle" id="510400" style="fill:#f6f67b"/>
<path d="" class="polyStyle" id="522600" style="fill:#fbe6ef"/>
<path d="" class="polyStyle" id="520500" style="fill:#ee8b94"/>
<path d="" class="polyStyle" id="431200" style="fill:#f6f67b"/>
<path d="" class="polyStyle" id="430600" style="fill:#f6f67b"/>
<path d="" class="polyStyle" id="511400" style="fill:#d4ecb2"/>
<path d="" class="polyStyle" id="421000" style="fill:#ee8b94"/>
<path d="" class="polyStyle" id="341700" style="fill:#f6f67b"/>
<path d="" class="polyStyle" id="420500" style="fill:#f6f67b"/>
<path d="" class="polyStyle" id="511300" style="fill:#f6f67b"/>
<path d="" class="polyStyle" id="420900" style="fill:#f6f67b"/>
<path d="" class="polyStyle" id="511700" style="fill:#ee8b94"/>
<path d="" class="polyStyle" id="420600" style="fill:#d4ecb2"/>
<path d="" class="polyStyle" id="411500" style="fill:#fbe6ef"/>
<path d="" class="polyStyle" id="510800" style="fill:#ee8b94"/>
<path d="" class="polyStyle" id="420300" style="fill:#fbe6ef"/>
<path d="" class="polyStyle" id="611000" style="fill:#ee8b94"/>
<path d="" class="polyStyle" id="620800" style="fill:#fbe6ef"/>
<path d="" class="polyStyle" id="370200" style="fill:#ee8b94"/>
<path d="" class="polyStyle" id="371000" style="fill:#f6f67b"/>
<path d="" class="polyStyle" id="370600" style="fill:#fbe6ef"/>
<path d="" class="polyStyle" id="120000" style="fill:#f6f67b"/>
<path d="" class="polyStyle" id="130200" style="fill:#ee8b94"/>
<path d="" class="polyStyle" id="130300" style="fill:#f6f67b"/>
<path d="" class="polyStyle" id="652900" style="fill:#fbe6ef"/>
<path d="" class="polyStyle" id="150500" style="fill:#d4ecb2"/>
<path d="" class="polyStyle" id="" style="fill:#d4ecb2"/>
<path d="" class="polyStyle" id="350500" style="fill:#fbe6ef"/>
<path d="" class="polyStyle" id="440400" style="fill:#f6f67b"/>
<path d="" class="polyStyle" id="421100" style="fill:#d4ecb2"/>
<path d="" class="polyStyle" id="420100" style="fill:#fbe6ef"/>
<path d="" class="polyStyle" id="532500" style="fill:#fbe6ef"/>
<path d="" class="polyStyle" id="654200" style="fill:#fbe6ef"/>
<path d="" class="polyStyle" id="210700" style="fill:#d4ecb2"/>
<path d="" class="polyStyle" id="522300" style="fill:#fbe6ef"/>
<path d="" class="polyStyle" id="" style="fill:#ee8b94"/>
<path d="" class="polyStyle" id="440400" style="fill:#f6f67b"/>
<path d="" class="polyStyle" id="620000" style="fill:#f6f67b"/>
<path d="" class="polyStyle" id="430000" style="fill:#fbe6ef"/>
<path d="" class="polyStyle" id="420000" style="fill:#ee8b94"/>
<path d="" class="polyStyle" id="410000" style="fill:#f6f67b"/>
<path d="" class="polyStyle" id="350000" style="fill:#fbe6ef"/>
<path d="" class="polyStyle" id="520000" style="fill:#f6f67b"/>
<path d="" class="polyStyle" id="" style="fill:#ee8b94"/>
</svg>
