<?xml version="1.0" encoding="UTF-8"?>
<!DOCTYPE svg PUBLIC "-//W3C//DTD SVG 1.1 Tiny//EN" "http://www.w3.org/Graphics/SVG/1.1/DTD/svg11-tiny.dtd">
<svg version="1.1" xmlns="http://www.w3.org/2000/svg" xmlns:xlink="http://www.w3.org/1999/xlink" width="100%" height="100%" viewBox="0,0,48481,26937">
<title>SVG</title>
<desc>Poligon Test</desc>
<style id="style_css_sheet" type="text/css">
.polyStyle{fill: #cccccc;stroke-width:0;fill-rule:evenodd;}
</style>
<circle cx="22484" cy="17926" r="200" stroke="black" stroke-width="1" fill="red" id="152922" name="阿拉善右旗"/>
<circle cx="19469" cy="4179" r="200" stroke="black" stroke-width="1" fill="red" id="152923" name="额济纳旗"/>
<circle cx="42458" cy="19847" r="200" stroke="black" stroke-width="1" fill="red" id="152921" position="444"name="阿拉善左旗"/>
<path d="" class="polyStyle" id="" style="fill:#ee8b94"/>
<path d="" class="polyStyle" id="623022" style="fill:#fbe6ef"/>
<path d="" class="polyStyle" id="211421" style="fill:#f6f67b"/>
<path d="" class="polyStyle" id="532524" style="fill:#ee8b94"/>
<path d="" class="polyStyle" id="440825" style="fill:#f6f67b"/>
<path d="" class="polyStyle" id="441721" style="fill:#f6f67b"/>
<path d="" class="polyStyle" id="450521" style="fill:#f6f67b"/>
<path d="" class="polyStyle" id="450123" style="fill:#fbe6ef"/>
<path d="" class="polyStyle" id="350624" style="fill:#f6f67b"/>
<path d="" class="polyStyle" id="" style="fill:#fbe6ef"/>
<path d="" class="polyStyle" id="451224" style="fill:#fbe6ef"/>
<path d="" class="polyStyle" id="350627" style="fill:#f6f67b"/>
<path d="" class="polyStyle" id="" style="fill:#f6f67b"/>
<path d="" class="polyStyle" id="350525" style="fill:#f6f67b"/>
<path d="" class="polyStyle" id="530124" style="fill:#ee8b94"/>
<path d="" class="polyStyle" id="522627" style="fill:#ee8b94"/>
<path d="" class="polyStyle" id="510421" style="fill:#fbe6ef"/>
<path d="" class="polyStyle" id="522623" style="fill:#d4ecb2"/>
<path d="" class="polyStyle" id="430321" style="fill:#d4ecb2"/>
<path d="" class="polyStyle" id="511129" style="fill:#d4ecb2"/>
<path d="" class="polyStyle" id="511423" style="fill:#ee8b94"/>
<path d="" class="polyStyle" id="421023" style="fill:#f6f67b"/>
<path d="" class="polyStyle" id="511724" style="fill:#f6f67b"/>
<path d="" class="polyStyle" id="420526" style="fill:#fbe6ef"/>
<path d="" class="polyStyle" id="511923" style="fill:#fbe6ef"/>
<path d="" class="polyStyle" id="420325" style="fill:#fbe6ef"/>
<path d="" class="polyStyle" id="511921" style="fill:#f6f67b"/>
<path d="" class="polyStyle" id="542525" style="fill:#f6f67b"/>
<path d="" class="polyStyle" id="611026" style="fill:#ee8b94"/>
<path d="" class="polyStyle" id="411023" style="fill:#fbe6ef"/>
<path d="" class="polyStyle" id="632323" style="fill:#f6f67b"/>
<path d="" class="polyStyle" id="140525" style="fill:#d4ecb2"/>
<path d="" class="polyStyle" id="410922" style="fill:#ee8b94"/>
<path d="" class="polyStyle" id="621027" style="fill:#ee8b94"/>
<path d="" class="polyStyle" id="130427" style="fill:#f6f67b"/>
<path d="" class="polyStyle" id="130121" style="fill:#ee8b94"/>
<path d="" class="polyStyle" id="610823" style="fill:#fbe6ef"/>
<path d="" class="polyStyle" id="130225" style="fill:#fbe6ef"/>
<path d="" class="polyStyle" id="130322" style="fill:#d4ecb2"/>
<path d="" class="polyStyle" id="653130" style="fill:#f6f67b"/>
<path d="" class="polyStyle" id="130822" style="fill:#fbe6ef"/>
<polygon points="31641,4640 31740,4657 32200,4741 32845,4842 32932,4862 33001,4878 33070,4891 33140,4906 33212,4923 33282,4937 33370,4956 33410,4967 33446,4966 34019,4957 34239,4953 34385,4951 34476,4949 34511,4950 35037,4863 35100,4852 35153,4844 35242,4829 35314,4820 35380,4809 35455,4799 35526,4786 35595,4774 35653,4767 36243,4676 36452,4641 36525,4631 36597,4621 36669,4609 36735,4598 36764,4595 36728,5664 36786,5670 36859,5676 37150,5705 37293,5718 37367,5726 37437,5732 37509,5739 37547,5743 37583,5742 37658,5738 37795,5733 37873,5728 37996,5724 38085,5719 38158,5717 38228,5715 38298,5711 38369,5708 38443,5706 38514,5703 38591,5700 38660,5697 38724,5694 38835,5788 38883,5830 38935,5868 38968,5896 39019,5935 39084,5989 39130,6027 39141,6038 39169,6060 39242,6009 39298,5965 39365,5915 39447,5854 39529,5793 39605,5735 39673,5685 39711,5655 39764,5616 39806,5587 39831,5566 39858,5547 39888,5525 39925,5497 39965,5468 39991,5449 40017,5429 40044,5408 40083,5378 40126,5348 40152,5327 40189,5298 40215,5280 40244,5259 40276,5237 40287,5228 40286,5252 40282,5292 40279,5320 40273,5370 40267,5425 40264,5454 40260,5491 40255,5529 40252,5558 40250,5580 40248,5587 40243,5613 40238,5634 40229,5681 40215,5757 40201,5842 40189,5910 40179,5973 40168,6037 40154,6116 40141,6185 40139,6197 40132,6236 40128,6258 40127,6264 40127,6270 40128,6276 40132,6306 40138,6348 40142,6381 40148,6422 40153,6460 40154,6468 40162,6519 40176,6613 40183,6666 40192,6717 40198,6761 40209,6833 40213,6860 40219,6901 40226,6948 40233,6994 40228,7021 40218,7069 40234,7110 40257,7163 40275,7206 40290,7241 40304,7270 40318,7300 40321,7308 40326,7318 40345,7354 40359,7380 40391,7433 40396,7439 40401,7445 40411,7464 40420,7478 40431,7501 40449,7533 40460,7553 40474,7578 40482,7594 40493,7612 40505,7633 40516,7652 40533,7680 40544,7698 40555,7717 40568,7740 40578,7755 40586,7770 40596,7788 40608,7807 40613,7819 40625,7838 40634,7853 40642,7866 40659,7894 40670,7913 40684,7936 40696,7958 40704,7971 40709,7991 40712,8002 40717,8022 40722,8045 40732,8092 40742,8134 40743,8140 40750,8168 40754,8181 40761,8209 40769,8240 40777,8272 40785,8302 40789,8319 40776,8334 40754,8358 40729,8387 40707,8410 40720,8422 40739,8439 40771,8466 40800,8492 40825,8514 40861,8546 40890,8571 40908,8587 40927,8604 40955,8629 40993,8662 41013,8680 41037,8720 41045,8734 41055,8752 41073,8784 41089,8816 41110,8856 41132,8898 41131,8906 41127,8921 41124,8934 41117,8959 41115,8967 41094,9053 41374,9190 41597,9316 41641,9341 41646,9345 41809,9454 41912,9523 42302,9702 42440,9800 42488,9835 42589,9908 42603,9918 42672,9940 42774,9971 42838,9991 42891,10008 42896,10009 42931,10020 42997,10040 43023,10048 43164,10057 43282,10064 43295,10065 43331,10089 43405,10138 43457,10155 43529,10177 43543,10182 43607,10203 43668,10222 43710,10236 43800,10264 43839,10276 43897,10284 43935,10289 43973,10295 44017,10300 44074,10308 44120,10314 44141,10316 44146,10317 44168,10320 44185,10323 44210,10326 44241,10330 44311,10340 44358,10346 44378,10349 44448,10359 44482,10363 44517,10367 44569,10372 44620,10378 44656,10382 44692,10386 44758,10409 44794,10420 44820,10445 44848,10470 44894,10512 44905,10507 44910,10504 44920,10500 44973,10477 45029,10452 45081,10508 45089,10518 45104,10534 45120,10551 45131,10565 45148,10582 45162,10598 45172,10610 45220,10614 45262,10618 45341,10626 45367,10628 45367,10634 45366,10649 45365,10659 45365,10671 45365,10682 45365,10686 45366,10689 45370,10691 45372,10693 45375,10694 45377,10695 45379,10698 45377,10701 45374,10705 45373,10708 45376,10712 45379,10713 45379,10715 45378,10722 45376,10732 45374,10743 45372,10752 45369,10768 45366,10782 45362,10798 45359,10814 45356,10826 45353,10840 45353,10844 45354,10846 45359,10849 45365,10851 45373,10853 45383,10855 45395,10856 45400,10857 45403,10858 45406,10861 45407,10864 45406,10869 45400,10873 45400,10876 45404,10877 45407,10876 45409,10878 45409,10883 45412,10884 45417,10885 45424,10891 45428,10896 45428,10902 45432,10904 45430,10909 45437,10912 45439,10914 45438,10921 45443,10926 45446,10928 45449,10929 45451,10932 45455,10933 45458,10933 45459,10936 45458,10940 45455,10943 45458,10943 45466,10941 45473,10948 45479,10945 45482,10946 45484,10950 45487,10950 45490,10950 45492,10950 45500,10956 45504,10960 45505,10967 45506,10970 45511,10977 45514,10979 45519,10981 45522,10981 45528,10980 45532,10980 45543,10989 45548,10993 45551,10999 45554,11001 45556,11000 45562,10996 45566,10997 45569,10997 45578,11001 45589,11005 45600,11009 45615,11015 45631,11015 45647,11014 45657,11014 45661,11013 45667,11012 45670,11009 45674,11002 45678,10995 45685,10990 45688,10987 45695,10984 45704,10983 45712,10981 45720,10981 45730,10982 45743,10984 45753,10986 45762,10990 45770,10993 45774,10994 45784,10996 45791,10998 45798,11000 45805,11005 45814,11014 45817,11015 45823,11015 45838,11017 45841,11016 45843,11016 45847,11017 45859,11021 45902,11033 45961,11051 45965,11051 46018,11067 46068,11082 46073,11084 46097,11091 46141,11104 46150,11107 46165,11115 46194,11130 46241,11156 46269,11168 46274,11170 46328,11195 46331,11196 46358,11197 46376,11197 46451,11198 46473,11198 46487,11199 46513,11199 46514,11211 46516,11239 46516,11249 46542,11250 46552,11250 46552,11313 46556,11318 46558,11333 46572,11390 46574,11399 46582,11439 46589,11467 46590,11472 46598,11513 46608,11558 46571,11536 46537,11516 46520,11505 46488,11513 46441,11524 46411,11518 46375,11511 46322,11500 46294,11495 46255,11499 46210,11504 46158,11509 46127,11512 46102,11512 46066,11513 46018,11514 45986,11515 45933,11467 45879,11415 45870,11406 45862,11398 45856,11393 45839,11376 45808,11367 45771,11355 45733,11343 45703,11334 45670,11323 45651,11317 45608,11304 45576,11294 45521,11277 45519,11319 45515,11401 45513,11428 45477,11425 45441,11421 45423,11420 45396,11415 45391,11415 45329,11408 45287,11404 45262,11402 45226,11399 45205,11397 45165,11393 45162,11393 45167,11405 45176,11429 45184,11448 45191,11467 45207,11508 45213,11524 45220,11541 45225,11553 45232,11571 45241,11592 45250,11615 45255,11628 45263,11648 45269,11655 45284,11673 45307,11700 45341,11741 45368,11774 45385,11792 45391,11798 45396,11804 45419,11832 45440,11857 45479,11905 45513,11946 45535,11972 45557,11999 45593,12042 45627,12083 45668,12133 45709,12184 45753,12237 45758,12242 45811,12241 45923,12239 46014,12237 46119,12235 46162,12234 46235,12233 46279,12232 46298,12252 46339,12295 46345,12300 46384,12338 46455,12347 46508,12300 46579,12239 46641,12186 46646,12181 46722,12105 46799,12094 46812,12091 47134,12039 47240,12043 47268,12044 47348,12046 47427,12049 47485,12050 47505,12053 47566,12058 47590,12061 47672,12069 47698,12072 47721,12074 47891,12093 47896,12093 48020,12107 48115,12117 48165,12122 48183,12125 48195,12151 48210,12186 48216,12198 48200,12217 48175,12246 48123,12300 48117,12308 48113,12313 48072,12357 48009,12428 47957,12486 47943,12500 47938,12502 47896,12526 47891,12529 47793,12583 47676,12646 47644,12663 47661,12694 47683,12736 47712,12792 47741,12848 47783,12929 47816,12992 47891,13005 47896,13006 48122,13052 48144,13056 48154,13058 48163,13060 48169,13061 48175,13061 48190,13060 48256,13057 48349,13052 48427,13047 48447,13046 48448,13050 48449,13112 48481,13204 48461,13208 48416,13198 48392,13204 48374,13232 48352,13259 48329,13287 48306,13313 48281,13340 48254,13376 48237,13409 48215,13441 48191,13471 48168,13497 48140,13510 48104,13522 48077,13529 48049,13537 48018,13550 47992,13566 47962,13592 47965,13628 47970,13661 47941,13680 47909,13691 47875,13701 47848,13713 47816,13729 47782,13753 47751,13778 47734,13808 47730,13840 47730,13873 47738,13910 47752,13938 47765,13967 47775,13994 47774,14025 47755,14054 47728,14081 47712,14106 47704,14132 47702,14157 47726,14186 47748,14213 47769,14246 47784,14274 47793,14305 47791,14337 47765,14349 47737,14355 47702,14382 47679,14411 47656,14438 47644,14468 47657,14497 47683,14527 47715,14555 47747,14580 47773,14600 47801,14626 47829,14655 47864,14681 47882,14709 47889,14738 47897,14769 47904,14799 47908,14833 47913,14861 47899,14887 47880,14916 47888,14946 47903,14982 47907,15012 47915,15045 47929,15064 47945,15090 47947,15147 47940,15196 47934,15227 47926,15240 47906,15263 47892,15284 47877,15318 47868,15351 47884,15382 47894,15408 47913,15436 47931,15461 47965,15477 47992,15485 48020,15498 48046,15508 48071,15521 48086,15552 48073,15578 48046,15607 48019,15633 47982,15656 47956,15683 47939,15711 47924,15736 47954,15766 47989,15782 47999,15787 47964,15805 47810,15875 47315,16102 47303,16115 47309,16139 47251,16175 47216,16206 47174,16267 47175,16288 47175,16322 47218,16475 47292,16589 47461,16672 47469,16676 47479,16677 47486,16679 47493,16681 47500,16684 47508,16685 47518,16688 47526,16691 47535,16694 47543,16697 47549,16699 47557,16702 47564,16704 47569,16706 47576,16708 47581,16710 47587,16713 47595,16716 47612,16723 47622,16727 47630,16730 47641,16735 47650,16738 47659,16742 47666,16743 47670,16744 47676,16744 47681,16748 47691,16753 47703,16760 47711,16763 47714,16765 47718,16765 47725,16766 47729,16766 47741,16766 47752,16766 47766,16768 47770,16769 47779,16774 47787,16776 47800,16778 47808,16780 47818,16781 47824,16783 47833,16785 47841,16786 47851,16787 47865,16788 47870,16788 47876,16789 47879,16801 47882,16810 47883,16816 47884,16828 47881,16840 47875,16847 47870,16852 47847,16861 47835,16866 47823,16874 47821,16877 47817,16884 47817,16903 47821,16921 47824,16930 47834,16951 47844,16964 47846,16981 47848,16994 47861,17015 47864,17019 47868,17029 47852,17037 47810,17047 47800,17049 47790,17057 47782,17067 47762,17081 47588,17145 47570,17155 47556,17169 47526,17191 47520,17195 47500,17197 47456,17197 47336,17187 47128,17097 46996,17247 46912,17317 46764,17469 46674,17595 46662,17615 46656,17621 46652,17621 46646,17619 46588,17601 46540,17589 46474,17579 46308,17547 46282,17531 46260,17539 46232,17545 46144,17541 46130,17541 46062,17547 45992,17555 45978,17555 45970,17555 45952,17557 45786,17569 45772,17567 45734,17557 45728,17557 45726,17569 45726,17585 45712,17591 45688,17591 45672,17591 45654,17591 45626,17591 45614,17591 45584,17591 45564,17595 45526,17597 45509,17598 45510,17609 45490,17637 45488,17657 45512,17721 45514,17729 45516,17751 45522,17807 45520,17811 45526,17819 45532,17825 45536,17827 45552,17835 45558,17851 45560,17869 45560,17885 45556,17895 45554,17901 45550,17911 45546,17917 45538,17925 45532,17927 45516,17927 45512,17927 45510,17931 45508,17937 45516,17957 45518,17965 45522,17981 45522,17991 45524,18001 45526,18007 45538,18017 45548,18021 45560,18029 45568,18039 45574,18057 45574,18071 45574,18077 45572,18095 45572,18107 45574,18119 45576,18129 45578,18137 45588,18145 45594,18147 45598,18149 45610,18155 45618,18161 45620,18167 45620,18171 45612,18185 45600,18187 45578,18199 45558,18215 45540,18231 45536,18257 45532,18271 45520,18277 45492,18287 45478,18291 45460,18289 45430,18267 45426,18267 45424,18271 45422,18279 45420,18297 45412,18335 45407,18338 45398,18337 45378,18317 45360,18305 45328,18295 45306,18287 45262,18279 45252,18281 45226,18297 45214,18305 45210,18307 45202,18309 45186,18307 45128,18297 45116,18291 45110,18287 45106,18281 45100,18275 45096,18267 45080,18259 45072,18257 45060,18251 45054,18249 45032,18247 45004,18237 44998,18231 44988,18225 44982,18211 44980,18207 44978,18199 44972,18191 44962,18187 44944,18181 44934,18179 44919,18179 44906,18179 44890,18185 44872,18189 44864,18195 44850,18207 44836,18225 44826,18241 44786,18291 44766,18311 44740,18347 44726,18357 44702,18359 44690,18361 44682,18365 44677,18368 44674,18379 44678,18395 44684,18409 44690,18431 44686,18447 44684,18457 44680,18465 44676,18475 44666,18491 44662,18497 44644,18507 44626,18517 44596,18529 44592,18535 44588,18545 44596,18565 44596,18579 44592,18597 44582,18615 44578,18617 44574,18622 44560,18647 44550,18669 44540,18687 44534,18711 44534,18717 44532,18737 44536,18741 44538,18749 44542,18769 44544,18787 44544,18797 44536,18805 44524,18809 44514,18817 44494,18827 44494,18835 44506,18847 44512,18857 44518,18865 44522,18867 44546,18867 44554,18875 44558,18881 44562,18887 44564,18895 44562,18901 44560,18907 44554,18927 44528,18981 44508,19001 44472,19025 44460,19027 44452,19031 44444,19039 44436,19051 44434,19057 44430,19067 44426,19077 44424,19095 44422,19107 44414,19125 44407,19138 44384,19157 44368,19167 44351,19177 44322,19167 44298,19161 44278,19167 44260,19171 44230,19191 44196,19217 44126,19279 44122,19289 44122,19299 44124,19307 44128,19317 44132,19327 44130,19339 44130,19347 44126,19357 44112,19365 44086,19369 44072,19377 44058,19391 44038,19417 44020,19429 44010,19441 44006,19445 43994,19455 43988,19457 43974,19469 43962,19487 43960,19497 43962,19509 43972,19517 43982,19527 44000,19535 44008,19541 44010,19547 44024,19577 44030,19591 44036,19599 44048,19601 44058,19601 44068,19599 44072,19599 44104,19595 44128,19595 44136,19596 44136,19607 44128,19619 44110,19635 44087,19667 44054,19709 44046,19719 44028,19731 44016,19737 43982,19747 43966,19755 43918,19777 43904,19787 43896,19797 43886,19807 43872,19821 43860,19831 43850,19845 43822,19875 43810,19889 43798,19909 43794,19929 43796,19941 43800,19957 43798,19961 43792,19965 43762,19961 43748,19965 43734,19975 43708,19995 43692,20005 43658,20017 43624,20027 43604,20035 43598,20041 43598,20047 43602,20067 43604,20077 43610,20087 43622,20097 43630,20107 43638,20115 43646,20119 43652,20129 43650,20137 43616,20151 43604,20165 43602,20187 43606,20205 43644,20277 43646,20295 43644,20321 43610,20331 43600,20341 43578,20355 43548,20369 43542,20377 43540,20381 43542,20399 43558,20455 43582,20487 43584,20499 43570,20517 43554,20537 43546,20549 43538,20577 43532,20587 43524,20591 43504,20599 43480,20611 43476,20617 43472,20631 43476,20655 43492,20667 43492,20671 43472,20691 43454,20697 43420,20699 43414,20715 43382,20767 43380,20787 43376,20809 43374,20827 43382,20861 43386,20897 43414,20937 43426,20949 43484,21007 43492,21019 43488,21041 43480,21057 43464,21067 43436,21069 43418,21075 43402,21089 43394,21101 43396,21107 43390,21135 43390,21139 43390,21145 43392,21157 43396,21165 43404,21179 43412,21195 43416,21199 43424,21217 43430,21231 43434,21251 43436,21267 43436,21281 43432,21307 43422,21337 43408,21365 43378,21397 43352,21411 43342,21417 43338,21427 43342,21441 43352,21457 43356,21467 43356,21477 43356,21489 43342,21517 43321,21560 43318,21567 43308,21585 43298,21595 43294,21599 43292,21609 43288,21637 43294,21651 43302,21669 43316,21685 43344,21715 43362,21737 43366,21749 43362,21759 43350,21769 43342,21777 43332,21787 43328,21787 43318,21789 43302,21787 43290,21781 43282,21781 43272,21787 43256,21797 43249,21811 43256,21827 43271,21841 43257,21889 43257,21897 43257,21911 43255,21925 43255,21937 43254,21941 43256,21947 43270,21971 43275,21977 43290,22015 43295,22030 43292,22042 43287,22056 43277,22063 43260,22078 43249,22098 43234,22128 43227,22141 43228,22166 43237,22179 43242,22205 43246,22207 43270,22224 43277,22230 43293,22241 43306,22250 43359,22312 43395,22365 43425,22413 43441,22476 43444,22536 43437,22599 43418,22650 43415,22655 43399,22684 43380,22715 43361,22744 43327,22778 43318,22790 43304,22800 43286,22814 43270,22826 43245,22844 43224,22853 43199,22865 43173,22877 43097,22922 43066,22945 43041,22977 43032,23009 43020,23047 43000,23108 42977,23177 42977,23189 42976,23209 42976,23281 42980,23323 42982,23350 42985,23369 42990,23415 42994,23428 43015,23472 43045,23520 43071,23560 43086,23581 43104,23608 43160,23687 43180,23715 43204,23745 43227,23777 43248,23805 43268,23836 43287,23866 43313,23902 43316,23907 43324,23926 43326,23942 43327,23956 43327,23970 43318,23986 43279,24026 43244,24072 43221,24104 43199,24136 43176,24174 43155,24207 43140,24233 43118,24273 43109,24310 43109,24343 43112,24375 43127,24417 43138,24469 43151,24515 43158,24551 43164,24593 43157,24641 43133,24668 43104,24716 43073,24754 43046,24787 43036,24802 43007,24863 43004,24875 42997,24906 42993,24943 42990,24987 42983,24992 42971,24995 42928,24997 42896,24987 42869,24972 42828,24978 42798,24990 42732,25011 42692,25025 42578,25067 42500,25101 42480,25111 42460,25119 42438,25125 42424,25125 42412,25105 42396,25089 42380,25081 42330,25071 42312,25067 42282,25067 42248,25071 42234,25077 42226,25087 42200,25205 42198,25377 42122,25435 42120,25437 42106,25439 42042,25455 42034,25457 42012,25459 41986,25467 41924,25467 41638,25465 41462,25457 41377,25467 41364,25469 41074,25425 40968,25397 40930,25399 40766,25451 40444,25541 40389,25569 40303,25609 40145,25617 39989,25651 39929,25679 39591,25889 39309,26047 39245,26075 39139,26081 38735,26111 38641,26137 38467,26137 38293,26197 38147,26277 37889,26297 37189,26365 36639,26387 36289,26397 36273,26417 36235,26417 36222,26415 36167,26619 36161,26647 36162,26650 36162,26652 36145,26655 36108,26667 36079,26667 36007,26661 35992,26663 35981,26672 35963,26681 35935,26713 35921,26724 35847,26750 35836,26751 35813,26748 35777,26730 35764,26727 35755,26728 35739,26732 35720,26738 35688,26749 35657,26759 35614,26790 35589,26812 35559,26836 35547,26817 35313,26913 35039,26937 34517,26611 34211,26391 34139,26339 33815,26115 33483,25941 33473,25935 33461,25921 33459,25918 33325,25731 32497,25045 31185,24675 31155,24667 31135,24665 31117,24666 31115,24659 31107,24639 31091,24479 31077,24390 31068,24327 31061,24287 31057,24249 31039,24197 31027,24141 31013,24101 31005,24063 30985,23993 30971,23935 30955,23891 30923,23787 30917,23757 30907,23705 30897,23659 30895,23633 30894,23627 30903,23619 30964,23536 30967,23533 30973,23527 31167,23451 31887,23173 31639,22625 31491,22301 31465,22233 31459,22219 31455,22215 31441,22193 31333,22069 31285,22015 31269,22003 31255,21987 31223,21965 31199,21948 31199,21945 31639,21709 32277,21361 33435,20739 34138,19745 34264,19559 34296,19511 34982,19275 35106,19031 35066,18743 35136,18549 35010,18201 34606,17761 34358,17487 34432,17301 34572,16877 35174,16653 35238,16247 35582,15866 35201,14950 35128,14764 35265,14428 35410,14039 35283,13973 35268,13964 35257,13957 35242,13950 35201,13928 35147,13900 35130,13891 35141,13885 35157,13877 35204,13852 35283,13809 35348,13775 35391,13753 35396,13750 35572,13657 35618,13633 35779,13581 35907,13540 36046,13522 36244,13511 36455,13498 36500,13495 36641,13438 36646,13436 36816,13364 36916,13322 36945,13314 37030,13292 37244,13237 37327,13216 37267,13134 37187,13026 37160,12988 37102,12908 37082,12882 37059,12853 37041,12785 37034,12754 37009,12656 37041,12624 37213,12300 37257,12220 37032,12081 36789,11955 37059,11796 37017,11511 36812,11508 36799,11467 36794,11449 36787,11415 36803,11395 36822,11373 36872,11312 36916,11257 36907,11242 36882,11204 36858,11169 36842,11145 36824,11119 36803,11103 36774,11081 36736,11053 36673,11006 36646,10987 36641,10983 36603,10955 36546,10912 36501,10879 36487,10855 36468,10822 36443,10777 36416,10732 36395,10693 36384,10677 36367,10657 36352,10641 36345,10634 36321,10607 36280,10562 36265,10546 36238,10517 36213,10489 36179,10451 36109,10375 36061,10322 36047,10306 36000,10255 35967,10218 35931,10178 35922,10168 35914,10149 35904,10120 35889,10076 35879,10045 35872,10027 35861,9993 35855,9976 35845,9962 35833,9946 35819,9928 35795,9896 35784,9881 35762,9853 35754,9843 35735,9818 35722,9800 35694,9764 35655,9768 35623,9772 35586,9775 35538,9780 35512,9783 35455,9789 35396,9795 35391,9795 35343,9801 35337,9801 35334,9801 35312,9707 35300,9653 35255,9608 35179,9537 35134,9493 35079,9440 35063,9423 35029,9391 34998,9361 34963,9328 34971,9302 34978,9278 34987,9243 34994,9224 34989,9150 34986,9081 34982,9047 34953,8966 34938,8925 34920,8878 34897,8840 34857,8777 34836,8742 34794,8674 34772,8639 34727,8566 34713,8544 34685,8497 34669,8483 34627,8445 34603,8417 34552,8359 34527,8331 34486,8283 34455,8247 34434,8222 34406,8190 34390,8173 34378,8159 34355,8134 34325,8099 34285,8053 34227,7985 34205,7963 34146,7897 34141,7891 34023,7763 33924,7654 33844,7567 33788,7507 33780,7442 33769,7361 33761,7300 33755,7260 33752,7256 33719,7218 33670,7162 33620,7105 33564,7039 33494,6960 33429,6885 33370,6818 33303,6741 33243,6672 33179,6601 33161,6579 33082,6528 32989,6467 32896,6408 32891,6405 32849,6377 32807,6351 32773,6329 32714,6291 32652,6253 32590,6212 32574,6203 32530,6174 32524,6170 32459,6129 32452,6126 32439,6117 32425,6107 32390,6086 32318,6039 32169,5948 32108,5912 32081,5895 32032,5867 32004,5849 31875,5772 31792,5721 31764,5704 31754,5684 31729,5634 31717,5605 31703,5577 31684,5539 31675,5522 31672,5513 31654,5477 31411,5117 31261,4817 31162,4544 31207,4559 " class="polyStyle" id="152921" style="fill:#f6f67b"/>
<polygon points="28817,3671 28853,3686 28884,3699 28917,3713 28983,3739 29015,3752 29057,3770 29103,3789 29138,3801 29181,3814 29228,3832 29249,3840 29313,3864 29349,3878 29380,3889 29420,3903 29462,3919 29499,3932 29525,3940 29559,3952 29594,3965 29597,3967 30081,4146 30726,4384 31141,4537 31162,4544 31261,4817 31411,5117 31654,5477 31672,5513 31675,5522 31684,5539 31703,5577 31717,5605 31729,5634 31754,5684 31764,5704 31792,5721 31875,5772 32004,5849 32032,5867 32081,5895 32108,5912 32169,5948 32318,6039 32390,6086 32425,6107 32439,6117 32452,6126 32459,6129 32524,6170 32530,6174 32574,6203 32590,6212 32652,6253 32714,6291 32773,6329 32807,6351 32849,6377 32891,6405 32896,6408 32989,6467 33082,6528 33161,6579 33179,6601 33243,6672 33303,6741 33370,6818 33429,6885 33494,6960 33564,7039 33620,7105 33670,7162 33719,7218 33752,7256 33755,7260 33761,7300 33769,7361 33780,7442 33788,7507 33844,7567 33924,7654 34023,7763 34141,7891 34146,7897 34205,7963 34227,7985 34285,8053 34325,8099 34355,8134 34378,8159 34390,8173 34406,8190 34434,8222 34455,8247 34486,8283 34527,8331 34552,8359 34603,8417 34627,8445 34669,8483 34685,8497 34713,8544 34727,8566 34772,8639 34794,8674 34836,8742 34857,8777 34897,8840 34920,8878 34938,8925 34953,8966 34982,9047 34986,9081 34989,9150 34994,9224 34987,9243 34978,9278 34971,9302 34963,9328 34998,9361 35029,9391 35063,9423 35079,9440 35134,9493 35179,9537 35255,9608 35300,9653 35312,9707 35334,9801 35337,9801 35343,9801 35391,9795 35396,9795 35455,9789 35512,9783 35538,9780 35586,9775 35623,9772 35655,9768 35694,9764 35722,9800 35735,9818 35754,9843 35762,9853 35784,9881 35795,9896 35819,9928 35833,9946 35845,9962 35855,9976 35861,9993 35872,10027 35879,10045 35889,10076 35904,10120 35914,10149 35922,10168 35931,10178 35967,10218 36000,10255 36047,10306 36061,10322 36109,10375 36179,10451 36213,10489 36238,10517 36265,10546 36280,10562 36321,10607 36345,10634 36352,10641 36367,10657 36384,10677 36395,10693 36416,10732 36443,10777 36468,10822 36487,10855 36501,10879 36546,10912 36603,10955 36641,10983 36646,10987 36673,11006 36736,11053 36774,11081 36803,11103 36824,11119 36842,11145 36858,11169 36882,11204 36907,11242 36916,11257 36872,11312 36822,11373 36803,11395 36787,11415 36794,11449 36799,11467 36812,11508 37017,11511 37059,11796 36789,11955 37032,12081 37257,12220 37213,12300 37041,12624 37009,12656 37034,12754 37041,12785 37059,12853 37082,12882 37102,12908 37160,12988 37187,13026 37267,13134 37327,13216 37244,13237 37030,13292 36945,13314 36916,13322 36816,13364 36646,13436 36641,13438 36500,13495 36455,13498 36244,13511 36046,13522 35907,13540 35779,13581 35618,13633 35572,13657 35396,13750 35391,13753 35348,13775 35283,13809 35204,13852 35157,13877 35141,13885 35130,13891 35147,13900 35201,13928 35242,13950 35257,13957 35268,13964 35283,13973 35410,14039 35265,14428 35128,14764 35201,14950 35582,15866 35238,16247 35174,16653 34572,16877 34574,16873 34138,16755 33876,16679 33366,16665 32061,17010 30926,17301 30848,17325 30744,17405 30572,17533 30435,17641 30231,17777 29983,17943 29827,17979 29741,18047 29469,18259 29189,18477 29139,18467 28581,18353 28141,18265 27625,18181 27153,18107 27143,18103 26851,17943 26691,17855 26643,17827 26639,17825 26409,17695 26401,17697 25893,17813 25547,18011 24139,18317 23383,18483 23285,18497 23345,18563 23717,18871 23797,18937 23836,18972 23861,18995 24019,19129 24139,19227 24495,19517 24139,19725 24131,19731 23839,19899 23825,19909 23411,20381 23111,20597 23075,20623 23061,20635 23035,20655 23015,20671 23009,20675 23003,20675 22955,20635 22949,20631 22945,20627 22937,20623 22925,20619 22901,20613 22879,20615 22869,20597 22855,20585 22843,20583 22823,20581 22771,20587 22733,20587 22653,20569 22557,20539 22487,20521 22477,20521 22465,20521 22427,20527 22387,20539 22379,20543 22363,20557 22335,20583 22331,20585 22317,20615 22303,20625 22293,20633 22259,20655 22215,20683 22185,20679 22185,20705 22167,20731 22163,20733 22157,20731 22148,20719 22071,20625 21927,20405 21647,20323 21627,20317 21615,20313 21603,20309 21593,20305 21587,20299 21577,20293 21571,20291 21565,20289 21555,20285 21547,20285 21533,20285 21517,20287 21505,20287 21493,20283 21467,20259 21445,20243 21435,20235 21425,20235 21409,20235 21397,20231 21369,20215 21335,20199 21299,20183 21287,20179 21269,20171 21249,20163 21233,20157 21221,20155 21197,20157 21179,20159 21173,20157 21165,20141 21157,20133 21133,20119 21119,20111 21113,20109 21107,20109 21097,20109 21079,20113 21069,20115 21061,20119 21053,20123 21041,20127 21027,20127 20991,20113 20977,20109 20961,20107 20949,20109 20937,20109 20921,20109 20907,20107 20897,20103 20885,20101 20873,20097 20843,20083 20839,20081 20829,20079 20807,20081 20783,20085 20773,20087 20761,20085 20753,20081 20749,20077 20739,20067 20733,20061 20723,20057 20713,20051 20697,20047 20683,20043 20673,20037 20669,20033 20665,20023 20663,20015 20661,20007 20661,19997 20659,19987 20657,19970 20658,19966 20663,19963 20673,19959 20699,19955 20719,19953 20731,19951 20753,19945 20783,19935 20799,19929 20803,19925 20801,19919 20801,19903 20813,19885 20839,19849 20839,19839 20827,19819 20815,19793 20811,19775 20805,19745 20797,19737 20793,19733 20645,19721 20525,19725 20429,19677 20319,19677 20309,19545 20309,19533 20309,19527 20305,19455 20305,19447 20303,19437 20201,19325 20115,19235 20273,18863 19989,18991 19839,19059 19807,19073 19775,19083 19717,19097 19539,19133 19007,19241 18945,19251 18951,19239 18983,19137 18965,19001 18957,18959 18897,18929 18789,18885 18639,18819 18555,18967 18541,18991 18509,18971 18501,18967 18366,18883 18353,18875 18281,18831 18289,18649 18271,18605 18287,18589 18471,18421 18455,18399 18449,18389 18447,18379 18449,18373 18459,18359 18461,18349 18429,18283 18415,18253 18411,18239 18403,18213 18397,18197 18393,18181 18389,18163 18385,18145 18373,18111 18365,18097 18359,18085 18357,18067 18363,18049 18371,18009 18371,18001 18367,17995 18349,17981 18343,17975 18337,17955 18329,17929 18331,17899 18307,17437 18301,17221 18287,16949 18141,16951 17901,16951 17883,16953 17863,16955 17843,16959 17827,16961 17793,16961 17767,16957 17723,16951 17707,16947 17679,16947 17657,16951 17635,16955 17607,16963 17589,16967 17567,16973 17535,16985 17445,17007 17419,17011 17371,17015 17243,17033 17223,17035 17197,17035 17183,17035 17147,17031 17091,17021 17061,17017 17019,17007 17003,17003 16993,17001 16975,16997 16957,16993 16921,16991 16843,16983 16827,16981 16791,16977 16763,16975 16745,16973 16737,16973 16721,16973 16624,16971 16627,16569 16367,16547 16345,16545 15757,16429 15629,16111 15693,15929 15449,15585 14711,15447 14313,15193 14139,15165 13961,15135 13657,15033 13577,14963 13349,14757 13243,14661 13205,14653 13171,14645 13135,14643 12993,14627 12937,14617 12753,14589 12685,14571 12619,14551 12569,14535 12539,14529 12527,14529 12471,14527 12425,14527 12401,14529 12377,14531 11424,14587 11409,14579 11389,14569 11374,14560 11343,14551 11344,14544 11345,14541 11347,14535 11351,14525 11355,14515 11361,14507 11373,14499 11391,14493 11399,14491 11419,14489 11431,14489 11449,14491 11465,14495 11473,14499 11483,14501 11493,14505 11503,14513 11517,14529 11535,14539 11551,14545 11565,14551 11585,14557 11603,14559 11617,14559 11635,14559 11655,14559 11673,14557 11689,14553 11717,14547 11739,14543 11751,14539 11783,14527 11799,14519 11805,14515 11823,14503 11863,14471 11885,14461 11897,14457 11909,14455 11931,14451 11945,14445 12065,14401 12155,14363 12175,14357 12193,14351 12239,14337 12261,14327 12295,14309 12323,14295 12379,14273 12439,14249 12453,14241 12459,14233 12465,14229 12471,14223 12481,14219 12501,14215 12517,14211 12531,14205 12547,14197 12573,14183 12607,14169 12657,14141 12701,14113 12713,14105 12761,14073 12781,14057 12829,14011 12845,13993 12875,13953 12887,13939 12899,13937 12943,13935 13033,13931 13089,13927 13127,13925 13241,13919 13297,13913 13339,13907 13375,13897 13431,13877 13497,13843 13539,13819 13673,13723 13751,13673 13769,13653 13773,13649 13779,13631 13835,13453 13913,13213 13929,13185 13939,13171 13961,13145 14005,13101 14039,13069 14077,13035 14097,13017 14139,12989 14229,12945 14859,12641 14986,12588 14977,11872 15035,11841 15390,11893 15393,11894 15396,11894 15489,11907 15774,11947 15993,11808 16087,11748 16282,11625 16462,11511 16531,11467 16562,11449 16593,11429 16602,11423 16640,11421 16717,11417 16778,11413 16833,11410 16956,11402 17023,11398 17145,11391 17307,11381 17385,11376 17491,11369 17539,11386 17603,11408 17730,11453 17769,11465 17774,11467 17777,11468 17798,11475 17836,11488 17860,11497 17869,11500 17879,11504 17890,11507 17896,11509 17924,11518 17948,11526 17967,11533 17989,11540 18015,11550 18040,11558 18055,11563 18075,11570 18097,11577 18111,11582 18117,11584 18132,11589 18148,11595 18164,11601 18178,11605 18191,11610 18202,11614 18218,11619 18234,11624 18248,11629 18264,11635 18276,11639 18295,11646 18320,11654 18339,11661 18355,11666 18371,11671 18389,11679 18406,11684 18418,11688 18439,11696 18451,11700 18466,11705 18481,11709 18500,11716 18521,11724 18536,11729 18558,11736 18563,11739 18569,11739 18586,11738 18608,11738 18626,11737 18644,11737 18669,11736 18687,11736 18703,11736 18717,11736 18730,11736 18741,11735 18749,11735 18757,11735 18768,11734 18781,11734 18798,11734 18813,11733 18833,11733 18848,11733 18862,11733 18873,11732 18885,11732 18901,11732 18922,11731 18938,11731 18950,11731 18957,11730 18969,11729 18987,11729 19006,11729 19022,11729 19030,11729 19041,11729 19062,11728 19072,11727 19080,11727 19096,11727 19110,11726 19124,11726 19135,11726 19141,11726 19146,11726 19218,11725 19304,11723 19392,11721 19448,11719 19516,11718 19606,11706 19684,11696 19755,11686 19885,11669 19993,11654 20056,11646 20141,11634 20206,11626 20248,11620 20297,11612 20362,11604 20390,11600 20396,11599 20433,11594 20514,11622 20602,11650 20700,11682 20797,11714 20840,11727 21015,11784 21112,11815 21136,11823 21200,11844 21253,11861 21408,11859 21517,11857 21599,11856 21641,11855 21646,11855 21720,11853 21765,11852 21796,11852 21827,11851 21847,11850 21861,11839 21899,11808 21928,11783 21976,11744 22000,11725 22029,11701 22070,11666 22086,11654 22106,11638 22125,11622 22153,11600 22173,11583 22193,11567 22216,11548 22231,11535 22267,11506 22291,11486 22305,11475 22313,11467 22330,11454 22345,11440 22351,11439 22413,11426 22460,11417 22494,11410 22504,11408 22524,11405 22560,11397 22607,11388 22669,11377 22697,11371 22733,11364 22761,11359 22795,11352 22835,11344 22849,11342 22890,11335 22896,11334 23034,11310 23095,11244 23146,11189 23175,11158 23244,11083 23306,11016 23345,10975 23418,10897 23506,10802 23532,10774 23623,10667 23652,10634 23673,10608 23693,10584 23705,10571 23721,10552 23736,10536 23754,10515 23772,10495 23783,10481 23798,10465 23822,10437 23839,10417 23897,10383 23955,10349 24011,10315 24056,10288 24110,10257 24141,10239 24146,10235 24183,10212 24196,10204 24243,10177 24286,10153 24352,10116 24393,10093 24455,10059 24514,10026 24567,9995 24616,9968 24671,9936 24717,9911 24765,9883 24796,9867 24831,9846 24873,9824 24915,9800 24929,9793 25027,9743 25094,9708 25138,9684 25178,9661 25228,9634 25286,9602 25341,9571 25390,9544 25396,9541 25425,9525 25486,9491 25538,9463 25573,9443 25631,9412 25637,9409 25696,9383 25723,9371 25773,9349 25864,9309 25912,9288 25965,9264 26022,9239 26068,9219 26156,9180 26238,9144 26346,9097 26402,9073 26412,9067 26496,9023 26537,9003 26577,8982 26601,8967 26613,8960 26634,8949 26641,8946 26646,8943 26665,8934 26958,8778 27172,8664 27286,8604 27518,8448 27573,8411 27757,8287 27885,8201 27890,8199 27896,8195 27939,8168 27979,8140 27986,8134 28062,8084 28077,8073 28741,7737 28960,7626 29109,7552 29131,7542 29141,7534 29146,7529 29187,7489 29252,7426 29308,7373 29369,7312 29381,7300 29644,7046 29444,6881 29430,6816 29417,6753 29408,6715 29402,6685 29393,6641 29375,6564 29354,6467 29338,6411 29320,6333 29301,6253 29286,6188 29270,6122 29254,6053 29245,6015 29246,5969 29246,5924 29247,5893 29248,5843 29248,5785 29249,5742 29250,5692 29249,5634 29247,5598 29247,5573 29248,5538 29248,5497 29242,5474 29227,5433 29216,5400 29205,5368 29191,5327 29181,5297 29170,5264 29161,5239 29148,5202 29146,5193 29141,5177 29121,5146 29091,5100 29044,5029 29017,4988 28975,4925 28936,4864 28894,4800 28891,4793 28879,4774 28870,4760 28855,4737 28840,4713 28810,4666 28791,4639 28752,4578 28710,4512 28678,4464 28658,4432 28662,4401 28669,4355 28679,4294 28686,4237 28694,4182 28703,4114 28711,4064 28717,4028 28726,3967 28738,3896 28743,3843 28749,3788 28762,3683 28766,3650 28785,3658 " class="polyStyle" id="152922" style="fill:#d4ecb2"/>
<path d="" class="polyStyle" id="211221" style="fill:#f6f67b"/>
<path d="" class="polyStyle" id="210921" style="fill:#f6f67b"/>
<path d="" class="polyStyle" id="150223" style="fill:#f8c67d"/>
<polygon points="176,23 334,43 484,64 593,78 622,81 712,94 817,110 921,122 1060,142 1090,146 1223,164 1369,184 1459,197 1506,202 1563,211 1626,218 1641,218 1678,220 1761,231 1804,238 1835,240 1878,247 1917,253 1978,261 2045,270 2114,281 2191,291 2265,301 2341,312 2395,319 2441,326 2472,331 2510,335 2546,340 2581,344 2618,349 2657,355 2687,358 2735,365 2773,369 2807,375 2843,379 2880,386 2909,389 2957,397 2986,402 3033,409 3088,416 3117,419 3146,424 3198,429 3224,434 3283,440 3336,448 3377,454 3451,463 3489,471 3522,476 3576,485 3622,490 3653,495 3694,499 3729,503 3806,515 3836,519 3880,526 3910,531 3958,538 4003,545 4041,549 4087,554 4129,560 4163,564 4198,570 4236,576 4280,583 4307,587 4348,593 4384,599 4424,605 4459,609 4494,615 4523,619 4558,624 4599,630 4648,636 4677,640 4717,646 4750,651 4806,660 4866,669 4896,674 4935,681 4967,685 5000,688 5042,695 5081,700 5119,704 5180,706 5217,708 5245,709 5287,709 5347,711 5421,714 5491,718 5550,721 5609,724 5639,725 5693,728 5736,728 5817,731 5892,733 5962,737 6021,739 6069,742 6098,743 6141,746 6178,748 6216,750 6254,751 6289,753 6338,755 6389,757 6436,761 6488,764 6540,766 6590,769 6650,772 6704,774 6752,777 6813,780 6867,784 6921,786 6969,790 7043,794 7116,801 7194,807 7274,814 7318,817 7346,821 7402,824 7464,829 7499,831 7559,836 7613,839 7659,844 7722,850 7765,853 7803,856 7865,860 7918,862 7988,868 8050,873 8119,878 8178,883 8221,887 8277,890 8315,892 8365,898 8423,902 8461,904 8506,909 8540,913 8577,914 8635,918 8668,919 8701,922 8731,924 8772,928 8817,931 8854,934 8882,936 8917,939 8967,944 9007,947 9070,951 9103,953 9141,957 10486,1052 11629,1135 11657,1138 12296,1025 12327,1018 12940,910 13415,825 13898,742 13958,731 13984,727 14033,729 14542,750 14867,763 15256,780 15468,790 15487,760 15522,727 15726,541 15760,533 16148,543 16379,549 16625,556 16641,557 16748,561 16855,564 16932,566 16977,568 17055,570 17127,572 17271,577 17359,579 17481,583 17559,586 17617,587 17686,589 17748,592 17813,593 17854,594 17926,597 17964,598 18004,599 18037,600 18085,602 18141,604 18202,605 18245,606 18281,607 18317,608 18352,609 18386,611 18445,622 18479,629 18522,638 18555,645 18594,652 18626,659 18667,667 18701,673 18849,704 18917,717 18978,730 19018,738 19102,756 19177,770 19223,779 19276,789 19310,796 19348,803 19388,812 19423,820 19459,827 19496,834 19531,841 19580,851 19638,863 19710,877 19744,885 19779,891 19816,900 19864,909 19891,916 19930,923 19966,930 20043,946 20159,970 20201,978 20258,990 20348,1006 20392,1015 20435,1023 20476,1031 20512,1038 20556,1046 20588,1053 20622,1060 20658,1068 20696,1076 20733,1083 20817,1101 20887,1116 20995,1137 21075,1153 21163,1171 21215,1182 21260,1192 21315,1203 21349,1209 21384,1216 21421,1225 21475,1237 21527,1246 21614,1265 21670,1276 21707,1284 21744,1291 21778,1299 21816,1306 21850,1313 21889,1320 21927,1328 21961,1335 22005,1341 22047,1345 22092,1350 22132,1354 22210,1361 22249,1365 22288,1368 22324,1372 22356,1375 22393,1379 22428,1382 22466,1385 22505,1390 22541,1393 22572,1396 22599,1400 22652,1404 22691,1406 22745,1412 22809,1418 22852,1422 22881,1424 22913,1429 22976,1434 23019,1438 23057,1442 23091,1445 23122,1447 23155,1462 23189,1498 23225,1533 23266,1575 23311,1620 23338,1647 23372,1681 23405,1714 23452,1763 23498,1811 23556,1868 23597,1911 23638,1951 23683,1995 23709,2021 23740,2052 23775,2085 23798,2111 23830,2144 23865,2178 23894,2208 23928,2243 23962,2277 24006,2318 24052,2365 24100,2415 24141,2457 24179,2492 24223,2536 24247,2562 24291,2606 24339,2654 24382,2697 24425,2742 24470,2788 24498,2815 24525,2841 24576,2850 24618,2860 24649,2866 24690,2877 24721,2884 24759,2892 24792,2899 24833,2909 24865,2915 24910,2925 24939,2931 24984,2941 25023,2950 25055,2956 25098,2967 25130,2973 25166,2981 25198,2988 25225,2993 25275,3004 25311,3014 25352,3022 25383,3029 25416,3036 25489,3050 25569,3069 25612,3079 25657,3088 25685,3095 25728,3104 25780,3115 25852,3133 25927,3148 26050,3175 26121,3191 26193,3206 26264,3222 26320,3234 26353,3241 26388,3244 26437,3235 26480,3229 26528,3219 26575,3212 26610,3207 26648,3200 26681,3194 26720,3187 26757,3181 26796,3175 26828,3169 26863,3165 26892,3169 26918,3172 26960,3176 26995,3179 27034,3182 27068,3185 27097,3188 27131,3190 27175,3194 27217,3197 27265,3204 27306,3206 27334,3209 27386,3211 27429,3212 27469,3212 27505,3212 27560,3213 27622,3215 27676,3214 27703,3217 27739,3232 27774,3246 27804,3258 27841,3274 27873,3286 27938,3312 27974,3329 28007,3341 28070,3367 28106,3383 28137,3394 28173,3410 28231,3434 28275,3451 28333,3475 28396,3500 28495,3540 28627,3593 28692,3619 28752,3645 28766,3650 28762,3683 28749,3788 28743,3843 28738,3896 28726,3967 28717,4028 28711,4064 28703,4114 28694,4182 28686,4237 28679,4294 28669,4355 28662,4401 28658,4432 28678,4464 28710,4512 28752,4578 28791,4639 28810,4666 28840,4713 28855,4737 28870,4760 28879,4774 28891,4793 28894,4800 28936,4864 28975,4925 29017,4988 29044,5029 29091,5100 29121,5146 29141,5177 29146,5193 29148,5202 29161,5239 29170,5264 29181,5297 29191,5327 29205,5368 29216,5400 29227,5433 29242,5474 29248,5497 29248,5538 29247,5573 29247,5598 29249,5634 29250,5692 29249,5742 29248,5785 29248,5843 29247,5893 29246,5924 29246,5969 29245,6015 29254,6053 29270,6122 29286,6188 29301,6253 29320,6333 29338,6411 29354,6467 29375,6564 29393,6641 29402,6685 29408,6715 29417,6753 29430,6816 29444,6881 29644,7046 29381,7300 29369,7312 29308,7373 29252,7426 29187,7489 29146,7529 29141,7534 29131,7542 29109,7552 28960,7626 28741,7737 28077,8073 28062,8084 27986,8134 27979,8140 27939,8168 27896,8195 27890,8199 27885,8201 27757,8287 27573,8411 27518,8448 27286,8604 27172,8664 26958,8778 26665,8934 26646,8943 26641,8946 26634,8949 26613,8960 26601,8967 26577,8982 26537,9003 26496,9023 26412,9067 26402,9073 26346,9097 26238,9144 26156,9180 26068,9219 26022,9239 25965,9264 25912,9288 25864,9309 25773,9349 25723,9371 25696,9383 25637,9409 25631,9412 25573,9443 25538,9463 25486,9491 25425,9525 25396,9541 25390,9544 25341,9571 25286,9602 25228,9634 25178,9661 25138,9684 25094,9708 25027,9743 24929,9793 24915,9800 24873,9824 24831,9846 24796,9867 24765,9883 24717,9911 24671,9936 24616,9968 24567,9995 24514,10026 24455,10059 24393,10093 24352,10116 24286,10153 24243,10177 24196,10204 24183,10212 24146,10235 24141,10239 24110,10257 24056,10288 24011,10315 23955,10349 23897,10383 23839,10417 23822,10437 23798,10465 23783,10481 23772,10495 23754,10515 23736,10536 23721,10552 23705,10571 23693,10584 23673,10608 23652,10634 23623,10667 23532,10774 23506,10802 23418,10897 23345,10975 23306,11016 23244,11083 23175,11158 23146,11189 23095,11244 23034,11310 22896,11334 22890,11335 22849,11342 22835,11344 22795,11352 22761,11359 22733,11364 22697,11371 22669,11377 22607,11388 22560,11397 22524,11405 22504,11408 22494,11410 22460,11417 22413,11426 22351,11439 22345,11440 22330,11454 22313,11467 22305,11475 22291,11486 22267,11506 22231,11535 22216,11548 22193,11567 22173,11583 22153,11600 22125,11622 22106,11638 22086,11654 22070,11666 22029,11701 22000,11725 21976,11744 21928,11783 21899,11808 21861,11839 21847,11850 21827,11851 21796,11852 21765,11852 21720,11853 21646,11855 21641,11855 21599,11856 21517,11857 21408,11859 21253,11861 21200,11844 21136,11823 21112,11815 21015,11784 20840,11727 20797,11714 20700,11682 20602,11650 20514,11622 20433,11594 20396,11599 20390,11600 20362,11604 20297,11612 20248,11620 20206,11626 20141,11634 20056,11646 19993,11654 19885,11669 19755,11686 19684,11696 19606,11706 19516,11718 19448,11719 19392,11721 19304,11723 19218,11725 19146,11726 19141,11726 19135,11726 19124,11726 19110,11726 19096,11727 19080,11727 19072,11727 19062,11728 19041,11729 19030,11729 19022,11729 19006,11729 18987,11729 18969,11729 18957,11730 18950,11731 18938,11731 18922,11731 18901,11732 18885,11732 18873,11732 18862,11733 18848,11733 18833,11733 18813,11733 18798,11734 18781,11734 18768,11734 18757,11735 18749,11735 18741,11735 18730,11736 18717,11736 18703,11736 18687,11736 18669,11736 18644,11737 18626,11737 18608,11738 18586,11738 18569,11739 18563,11739 18558,11736 18536,11729 18521,11724 18500,11716 18481,11709 18466,11705 18451,11700 18439,11696 18418,11688 18406,11684 18389,11679 18371,11671 18355,11666 18339,11661 18320,11654 18295,11646 18276,11639 18264,11635 18248,11629 18234,11624 18218,11619 18202,11614 18191,11610 18178,11605 18164,11601 18148,11595 18132,11589 18117,11584 18111,11582 18097,11577 18075,11570 18055,11563 18040,11558 18015,11550 17989,11540 17967,11533 17948,11526 17924,11518 17896,11509 17890,11507 17879,11504 17869,11500 17860,11497 17836,11488 17798,11475 17777,11468 17774,11467 17769,11465 17730,11453 17603,11408 17539,11386 17491,11369 17385,11376 17307,11381 17145,11391 17023,11398 16956,11402 16833,11410 16778,11413 16717,11417 16640,11421 16602,11423 16593,11429 16562,11449 16531,11467 16462,11511 16282,11625 16087,11748 15993,11808 15774,11947 15489,11907 15396,11894 15393,11894 15390,11893 15035,11841 14977,11872 14971,11342 15298,11035 15361,10967 15376,10937 15294,10342 14681,9587 14561,9547 14151,9437 13871,9417 13301,9387 12506,9312 11988,9745 11491,9737 10111,9663 10021,9677 9998,9730 10006,10233 10008,10238 9759,10401 9671,10547 9641,10595 9549,10569 9341,10507 9325,10483 9143,10197 9135,10179 9059,10061 9055,10063 8091,10448 8089,10456 8081,10508 8081,10514 8079,10529 8075,10557 8076,10577 8078,10582 8083,10587 8087,10593 8093,10602 8100,10609 8103,10613 8113,10619 8125,10631 8137,10645 8147,10655 8167,10675 8169,10681 8166,10688 8147,10697 8142,10704 8141,10711 8143,10727 8143,10733 8143,10741 8143,10749 8141,10754 8136,10768 8133,10776 8127,10789 8119,10801 8115,10809 8113,10815 8115,10829 8117,10835 8125,10865 8141,10893 8145,10903 8147,10931 8144,10939 8142,10943 8139,10951 8130,10937 8115,10919 8105,10904 8076,10883 8044,10855 8023,10842 8010,10829 7956,10782 7904,10749 7725,10665 7667,10620 7635,10593 7631,10593 7611,10563 7583,10507 7577,10489 7563,10439 7479,10111 7417,10125 7105,10207 6987,10241 7191,10485 7277,10585 7223,10605 7033,10679 6733,10797 6253,10979 5857,11133 5843,10683 5837,10563 5801,9381 5797,9379 5785,9373 5707,9345 5661,9331 5627,9321 5605,9315 5493,9299 5419,9287 5387,9281 5063,9039 5057,9037 4847,8967 4755,8913 4139,8567 3997,8487 3689,8171 2811,7301 2291,6783 2283,6774 2283,6767 2297,6731 2307,6723 2309,6717 2307,6711 2303,6707 2285,6699 2265,6685 2249,6673 2233,6665 2225,6661 2221,6657 2219,6653 2209,6605 2205,6589 2505,6355 3371,5695 3363,5677 3335,5635 3051,5149 2815,4751 2765,4663 2531,4265 2357,3967 1639,2759 1461,2467 1359,2299 991,1695 541,927 431,735 375,635 0,0 45,5 " class="polyStyle" id="152923" style="fill:#ee8b94"/>
<path d="" class="polyStyle" id="220422" style="fill:#d4ecb2"/>
<path d="" class="polyStyle" id="340721" style="fill:#f6f67b"/>
<path d="" class="polyStyle" id="510824" style="fill:#d4ecb2"/>
<path d="" class="polyStyle" id="610324" style="fill:#f6f67b"/>
<path d="" class="polyStyle" id="530722" style="fill:#ee8b94"/>
<path d="" class="polyStyle" id="340823" style="fill:#d4ecb2"/>
<path d="" class="polyStyle" id="620825" style="fill:#d4ecb2"/>
<path d="" class="polyStyle" id="421125" style="fill:#ee8b94"/>
<path d="" class="polyStyle" id="210281" style="fill:#ee8b94"/>
<path d="" class="polyStyle" id="440883" style="fill:#f6f67b"/>
<path d="" class="polyStyle" id="469006" style="fill:#d4ecb2"/>
<path d="" class="polyStyle" id="469002" style="fill:#ee8b94"/>
<path d="" class="polyStyle" id="469005" style="fill:#fbe6ef"/>
<path d="" class="polyStyle" id="440882" style="fill:#ee8b94"/>
<path d="" class="polyStyle" id="450681" style="fill:#ee8b94"/>
<path d="" class="polyStyle" id="441581" style="fill:#d4ecb2"/>
<path d="" class="polyStyle" id="421087" style="fill:#ee8b94"/>
<path d="" class="polyStyle" id="420984" style="fill:#fbe6ef"/>
<path d="" class="polyStyle" id="420582" style="fill:#ee8b94"/>
<path d="" class="polyStyle" id="370282" style="fill:#f6f67b"/>
<path d="" class="polyStyle" id="371083" style="fill:#f6f67b"/>
<path d="" class="polyStyle" id="371082" style="fill:#fbe6ef"/>
<path d="" class="polyStyle" id="652801" style="fill:#f8c67d"/>
<path d="" class="polyStyle" id="654301" style="fill:#ee8b94"/>
<path d="" class="polyStyle" id="370687" style="fill:#ee8b94"/>
<path d="" class="polyStyle" id="371482" style="fill:#d4ecb2"/>
<path d="" class="polyStyle" id="421081" style="fill:#fbe6ef"/>
<path d="" class="polyStyle" id="429006" style="fill:#f6f67b"/>
<path d="" class="polyStyle" id="440982" style="fill:#d4ecb2"/>
<path d="" class="polyStyle" id="421181" style="fill:#d4ecb2"/>
<path d="" class="polyStyle" id="321181" style="fill:#d4ecb2"/>
<path d="" class="polyStyle" id="659007" style="fill:#ee8b94"/>
<path d="" class="polyStyle" id="652701" style="fill:#fbe6ef"/>
<path d="" class="polyStyle" id="210781" style="fill:#fbe6ef"/>
<path d="" class="polyStyle" id="460204" style="fill:#f6f67b"/>
<path d="" class="polyStyle" id="210211" style="fill:#f6f67b"/>
<path d="" class="polyStyle" id="450512" style="fill:#ee8b94"/>
<path d="" class="polyStyle" id="450602" style="fill:#fbe6ef"/>
<path d="" class="polyStyle" id="440404" style="fill:#ee8b94"/>
<path d="" class="polyStyle" id="440403" style="fill:#f6f67b"/>
<path d="" class="polyStyle" id="441502" style="fill:#f6f67b"/>
<path d="" class="polyStyle" id="431002" style="fill:#d4ecb2"/>
<path d="" class="polyStyle" id="500107" style="fill:#fbe6ef"/>
<path d="" class="polyStyle" id="430611" style="fill:#d4ecb2"/>
<path d="" class="polyStyle" id="511304" style="fill:#fbe6ef"/>
<path d="" class="polyStyle" id="340711" style="fill:#ee8b94"/>
<path d="" class="polyStyle" id="320118" style="fill:#f6f67b"/>
<path d="" class="polyStyle" id="510704" style="fill:#f6f67b"/>
<path d="" class="polyStyle" id="411502" style="fill:#ee8b94"/>
<path d="" class="polyStyle" id="320302" style="fill:#d4ecb2"/>
<path d="" class="polyStyle" id="140311" style="fill:#ee8b94"/>
<path d="" class="polyStyle" id="610802" style="fill:#ee8b94"/>
<path d="" class="polyStyle" id="120116" style="fill:#f6f67b"/>
<path d="" class="polyStyle" id="130303" style="fill:#fbe6ef"/>
<path d="" class="polyStyle" id="140211" style="fill:#f6f67b"/>
<path d="" class="polyStyle" id="150207" style="fill:#fbe6ef"/>
<path d="" class="polyStyle" id="211403" style="fill:#f6f67b"/>
<path d="" class="polyStyle" id="150802" style="fill:#f8c67d"/>
<path d="" class="polyStyle" id="210112" style="fill:#ee8b94"/>
<path d="" class="polyStyle" id="230406" style="fill:#d4ecb2"/>
<path d="" class="polyStyle" id="110113" style="fill:#fbe6ef"/>
<path d="" class="polyStyle" id="341702" style="fill:#fbe6ef"/>
<path d="" class="polyStyle" id="420303" style="fill:#ee8b94"/>
<path d="" class="polyStyle" id="340702" style="fill:#d4ecb2"/>
<path d="" class="polyStyle" id="421002" style="fill:#f6f67b"/>
<path d="" class="polyStyle" id="420117" style="fill:#f6f67b"/>
<path d="" class="polyStyle" id="440904" style="fill:#f8c67d"/>
<path d="" class="polyStyle" id="460205" style="fill:#ee8b94"/>
<path d="" class="polyStyle" id="460202" style="fill:#f6f67b"/>
<path d="" class="polyStyle" id="460203" style="fill:#fbe6ef"/>
<path d="" class="polyStyle" id="420304" style="fill:#f6f67b"/>
<path d="" class="polyStyle" id="445302" style="fill:#ee8b94"/>
<path d="" class="polyStyle" id="410202" style="fill:#d4ecb2"/>
<path d="" class="polyStyle" id="440800" style="fill:#f6f67b"/>
<path d="" class="polyStyle" id="440900" style="fill:#ee8b94"/>
<path d="" class="polyStyle" id="340800" style="fill:#ee8b94"/>
<path d="" class="polyStyle" id="460200" style="fill:#f6f67b"/>
<path d="" class="polyStyle" id="460000" style="fill:#ee8b94"/>
<path d="" class="polyStyle" id="450500" style="fill:#ee8b94"/>
<path d="" class="polyStyle" id="450600" style="fill:#ee8b94"/>
<path d="" class="polyStyle" id="440400" style="fill:#f6f67b"/>
<path d="" class="polyStyle" id="441700" style="fill:#f6f67b"/>
<path d="" class="polyStyle" id="441500" style="fill:#f6f67b"/>
<path d="" class="polyStyle" id="350600" style="fill:#ee8b94"/>
<path d="" class="polyStyle" id="710000" style="fill:#f6f67b"/>
<path d="" class="polyStyle" id="510400" style="fill:#f6f67b"/>
<path d="" class="polyStyle" id="522600" style="fill:#fbe6ef"/>
<path d="" class="polyStyle" id="520500" style="fill:#ee8b94"/>
<path d="" class="polyStyle" id="431200" style="fill:#f6f67b"/>
<path d="" class="polyStyle" id="430600" style="fill:#f6f67b"/>
<path d="" class="polyStyle" id="511400" style="fill:#d4ecb2"/>
<path d="" class="polyStyle" id="421000" style="fill:#ee8b94"/>
<path d="" class="polyStyle" id="341700" style="fill:#f6f67b"/>
<path d="" class="polyStyle" id="420500" style="fill:#f6f67b"/>
<path d="" class="polyStyle" id="511300" style="fill:#f6f67b"/>
<path d="" class="polyStyle" id="420900" style="fill:#f6f67b"/>
<path d="" class="polyStyle" id="511700" style="fill:#ee8b94"/>
<path d="" class="polyStyle" id="420600" style="fill:#d4ecb2"/>
<path d="" class="polyStyle" id="411500" style="fill:#fbe6ef"/>
<path d="" class="polyStyle" id="510800" style="fill:#ee8b94"/>
<path d="" class="polyStyle" id="420300" style="fill:#fbe6ef"/>
<path d="" class="polyStyle" id="611000" style="fill:#ee8b94"/>
<path d="" class="polyStyle" id="620800" style="fill:#fbe6ef"/>
<path d="" class="polyStyle" id="370200" style="fill:#ee8b94"/>
<path d="" class="polyStyle" id="371000" style="fill:#f6f67b"/>
<path d="" class="polyStyle" id="370600" style="fill:#fbe6ef"/>
<path d="" class="polyStyle" id="120000" style="fill:#f6f67b"/>
<path d="" class="polyStyle" id="130200" style="fill:#ee8b94"/>
<path d="" class="polyStyle" id="130300" style="fill:#f6f67b"/>
<path d="" class="polyStyle" id="652900" style="fill:#fbe6ef"/>
<path d="" class="polyStyle" id="150500" style="fill:#d4ecb2"/>
<path d="" class="polyStyle" id="" style="fill:#d4ecb2"/>
<path d="" class="polyStyle" id="350500" style="fill:#fbe6ef"/>
<path d="" class="polyStyle" id="440400" style="fill:#f6f67b"/>
<path d="" class="polyStyle" id="421100" style="fill:#d4ecb2"/>
<path d="" class="polyStyle" id="420100" style="fill:#fbe6ef"/>
<path d="" class="polyStyle" id="532500" style="fill:#fbe6ef"/>
<path d="" class="polyStyle" id="654200" style="fill:#fbe6ef"/>
<path d="" class="polyStyle" id="210700" style="fill:#d4ecb2"/>
<path d="" class="polyStyle" id="522300" style="fill:#fbe6ef"/>
<path d="" class="polyStyle" id="" style="fill:#ee8b94"/>
<path d="" class="polyStyle" id="440400" style="fill:#f6f67b"/>
<path d="" class="polyStyle" id="620000" style="fill:#f6f67b"/>
<path d="" class="polyStyle" id="430000" style="fill:#fbe6ef"/>
<path d="" class="polyStyle" id="420000" style="fill:#ee8b94"/>
<path d="" class="polyStyle" id="410000" style="fill:#f6f67b"/>
<path d="" class="polyStyle" id="350000" style="fill:#fbe6ef"/>
<path d="" class="polyStyle" id="520000" style="fill:#f6f67b"/>
<path d="" class="polyStyle" id="" style="fill:#ee8b94"/>
</svg>
