<?xml version="1.0" encoding="UTF-8"?>
<!DOCTYPE svg PUBLIC "-//W3C//DTD SVG 1.1 Tiny//EN" "http://www.w3.org/Graphics/SVG/1.1/DTD/svg11-tiny.dtd">
<svg version="1.1" xmlns="http://www.w3.org/2000/svg" xmlns:xlink="http://www.w3.org/1999/xlink" width="100%" height="100%" viewBox="0,0,6958,9207">
<title>SVG</title>
<desc>Poligon Test</desc>
<style id="style_css_sheet" type="text/css">
.polyStyle{fill: #cccccc;stroke-width:0;fill-rule:evenodd;}
</style>
<circle cx="2035" cy="5232" r="200" stroke="black" stroke-width="1" fill="red" id="210181" name="新民市"/>
<circle cx="4961" cy="2671" r="200" stroke="black" stroke-width="1" fill="red" id="210124"position="4" name="法库县"/>
<circle cx="4653" cy="1479" r="200" stroke="black" stroke-width="1" fill="red" id="210123" name="康平县"/>
<circle cx="1532" cy="7648" r="200" stroke="black" stroke-width="1" fill="red" id="210115" name="辽中区"/>
<circle cx="5190" cy="6228" r="200" stroke="black" stroke-width="1" fill="red" id="210103"position="22" name="沈河区"/>
<circle cx="4774" cy="6196" r="200" stroke="black" stroke-width="1" fill="red" id="210106"position="44" name="铁西区"/>
<circle cx="4991" cy="6260" r="200" stroke="black" stroke-width="1" fill="red" id="210102" name="和平区"/>
<circle cx="5239" cy="6176" r="200" stroke="black" stroke-width="1" fill="red" id="210104" name="大东区"/>
<circle cx="5012" cy="6096" r="200" stroke="black" stroke-width="1" fill="red" id="210105" name="皇姑区"/>
<circle cx="5441" cy="4959" r="200" stroke="black" stroke-width="1" fill="red" id="210113" name="沈北新区"/>
<circle cx="5245" cy="6336" r="200" stroke="black" stroke-width="1" fill="red" id="210112" name="浑南区"/>
<circle cx="4631" cy="6899" r="200" stroke="black" stroke-width="1" fill="red" id="210111"position="44" name="苏家屯区"/>
<circle cx="4424" cy="6262" r="200" stroke="black" stroke-width="1" fill="red" id="210114" name="于洪区"/>
<path d="" class="polyStyle" id="" style="fill:#ee8b94"/>
<path d="" class="polyStyle" id="623022" style="fill:#fbe6ef"/>
<path d="" class="polyStyle" id="211421" style="fill:#f6f67b"/>
<path d="" class="polyStyle" id="532524" style="fill:#ee8b94"/>
<path d="" class="polyStyle" id="440825" style="fill:#f6f67b"/>
<path d="" class="polyStyle" id="441721" style="fill:#f6f67b"/>
<path d="" class="polyStyle" id="450521" style="fill:#f6f67b"/>
<path d="" class="polyStyle" id="450123" style="fill:#fbe6ef"/>
<path d="" class="polyStyle" id="350624" style="fill:#f6f67b"/>
<path d="" class="polyStyle" id="" style="fill:#fbe6ef"/>
<path d="" class="polyStyle" id="451224" style="fill:#fbe6ef"/>
<path d="" class="polyStyle" id="350627" style="fill:#f6f67b"/>
<path d="" class="polyStyle" id="" style="fill:#f6f67b"/>
<path d="" class="polyStyle" id="350525" style="fill:#f6f67b"/>
<path d="" class="polyStyle" id="530124" style="fill:#ee8b94"/>
<path d="" class="polyStyle" id="522627" style="fill:#ee8b94"/>
<path d="" class="polyStyle" id="510421" style="fill:#fbe6ef"/>
<path d="" class="polyStyle" id="522623" style="fill:#d4ecb2"/>
<path d="" class="polyStyle" id="430321" style="fill:#d4ecb2"/>
<path d="" class="polyStyle" id="511129" style="fill:#d4ecb2"/>
<path d="" class="polyStyle" id="511423" style="fill:#ee8b94"/>
<path d="" class="polyStyle" id="421023" style="fill:#f6f67b"/>
<path d="" class="polyStyle" id="511724" style="fill:#f6f67b"/>
<path d="" class="polyStyle" id="420526" style="fill:#fbe6ef"/>
<path d="" class="polyStyle" id="511923" style="fill:#fbe6ef"/>
<path d="" class="polyStyle" id="420325" style="fill:#fbe6ef"/>
<path d="" class="polyStyle" id="511921" style="fill:#f6f67b"/>
<path d="" class="polyStyle" id="542525" style="fill:#f6f67b"/>
<path d="" class="polyStyle" id="611026" style="fill:#ee8b94"/>
<path d="" class="polyStyle" id="411023" style="fill:#fbe6ef"/>
<path d="" class="polyStyle" id="632323" style="fill:#f6f67b"/>
<path d="" class="polyStyle" id="140525" style="fill:#d4ecb2"/>
<path d="" class="polyStyle" id="410922" style="fill:#ee8b94"/>
<path d="" class="polyStyle" id="621027" style="fill:#ee8b94"/>
<path d="" class="polyStyle" id="130427" style="fill:#f6f67b"/>
<path d="" class="polyStyle" id="130121" style="fill:#ee8b94"/>
<path d="" class="polyStyle" id="610823" style="fill:#fbe6ef"/>
<path d="" class="polyStyle" id="130225" style="fill:#fbe6ef"/>
<path d="" class="polyStyle" id="130322" style="fill:#d4ecb2"/>
<path d="" class="polyStyle" id="653130" style="fill:#f6f67b"/>
<path d="" class="polyStyle" id="130822" style="fill:#fbe6ef"/>
<polygon points="1035,6313 1068,6339 1098,6375 1125,6393 1163,6406 1201,6421 1236,6432 1265,6441 1296,6451 1338,6479 1419,6519 1446,6530 1483,6559 1527,6568 1543,6561 1551,6530 1562,6506 1580,6494 1605,6489 1636,6489 1657,6482 1672,6469 1683,6457 1691,6430 1688,6406 1684,6374 1743,6365 1774,6363 1826,6368 1903,6402 1941,6418 1970,6404 2011,6401 2042,6414 2083,6430 2120,6452 2162,6467 2203,6484 2252,6493 2310,6495 2367,6498 2415,6486 2441,6477 2467,6478 2499,6483 2533,6487 2562,6490 2596,6499 2632,6517 2658,6555 2683,6598 2723,6628 2756,6634 2784,6633 2816,6627 2848,6623 2861,6588 2892,6551 2919,6537 2924,6536 2963,6532 2993,6529 3003,6529 3014,6529 3017,6553 3028,6565 3055,6584 3078,6596 3087,6623 3091,6659 3087,6686 3078,6712 3063,6737 3035,6759 3025,6771 3021,6785 3026,6816 3035,6846 3047,6874 3078,6875 3117,6871 3153,6881 3181,6894 3188,6903 3180,6913 3160,6922 3181,6944 3209,6972 3236,6997 3261,7016 3276,7048 3284,7074 3296,7102 3312,7132 3342,7151 3371,7156 3398,7163 3426,7162 3432,7158 3437,7158 3429,7171 3424,7183 3405,7210 3389,7223 3376,7231 3365,7234 3349,7232 3324,7229 3315,7232 3309,7240 3310,7247 3320,7262 3327,7274 3327,7290 3320,7316 3306,7342 3297,7355 3293,7369 3296,7384 3294,7396 3284,7410 3239,7437 3212,7443 3182,7447 3161,7447 3138,7451 3119,7459 3099,7477 3087,7502 3079,7527 3073,7552 3067,7570 3057,7598 3026,7647 3007,7665 2984,7678 2951,7678 2927,7658 2891,7633 2851,7646 2811,7655 2751,7657 2732,7664 2721,7675 2706,7690 2700,7705 2680,7757 2650,7781 2612,7788 2587,7798 2579,7807 2571,7827 2564,7858 2550,7877 2533,7895 2470,7959 2452,7984 2428,8013 2418,8039 2408,8051 2390,8058 2358,8062 2341,8064 2329,8073 2310,8093 2308,8095 2287,8119 2259,8136 2244,8138 2233,8131 2223,8117 2222,8104 2221,8091 2213,8087 2195,8094 2164,8110 2149,8125 2148,8138 2152,8167 2154,8200 2152,8225 2145,8250 2119,8277 2112,8290 2108,8306 2093,8320 2069,8322 2042,8324 2017,8329 1991,8335 1963,8344 1938,8343 1927,8339 1910,8344 1881,8371 1855,8376 1825,8373 1799,8377 1773,8397 1758,8406 1747,8402 1743,8394 1748,8377 1740,8363 1721,8372 1695,8390 1676,8417 1668,8431 1648,8445 1634,8463 1635,8483 1635,8508 1626,8521 1631,8533 1647,8550 1644,8559 1632,8561 1618,8560 1601,8552 1590,8554 1572,8558 1564,8570 1561,8584 1553,8591 1515,8592 1489,8592 1481,8597 1480,8606 1505,8619 1516,8634 1511,8644 1498,8653 1482,8656 1457,8652 1442,8656 1432,8678 1406,8693 1396,8698 1392,8724 1408,8751 1419,8777 1421,8791 1392,8804 1383,8813 1375,8831 1360,8858 1353,8866 1335,8875 1309,8884 1293,8888 1283,8899 1274,8925 1272,8932 1246,8961 1239,8968 1233,8991 1230,9029 1229,9055 1243,9093 1225,9118 1198,9137 1168,9149 1136,9152 1124,9145 1095,9148 1079,9156 1069,9173 1057,9190 1036,9199 1007,9207 975,9200 981,9180 978,9150 959,9107 958,9071 906,9037 885,9001 863,8969 833,8947 774,8960 745,8976 704,9000 675,8986 665,8935 683,8894 717,8863 756,8848 790,8827 823,8804 854,8798 872,8762 866,8729 851,8696 870,8686 890,8682 915,8682 927,8677 937,8671 940,8663 916,8636 911,8626 913,8616 923,8611 949,8610 990,8609 1010,8598 1029,8563 1060,8537 1091,8514 1126,8487 1162,8452 1175,8435 1179,8421 1177,8414 1169,8411 1139,8407 1116,8399 1110,8391 1107,8384 1111,8338 1126,8318 1159,8297 1180,8284 1196,8272 1206,8253 1209,8240 1204,8217 1198,8195 1184,8189 1170,8199 1143,8211 1128,8211 1109,8202 1071,8172 1059,8154 1054,8143 1065,8120 1075,8109 1090,8103 1107,8107 1129,8101 1145,8079 1141,8064 1094,8040 1058,8044 1042,8044 1032,8038 1031,8028 1035,8018 1057,7993 1049,7955 1049,7928 1034,7895 1021,7858 1022,7839 1032,7831 1047,7823 1058,7815 1067,7803 1073,7782 1030,7769 1018,7763 1011,7753 1065,7713 1075,7695 1074,7692 1069,7691 1057,7691 1051,7690 1047,7685 1046,7677 1043,7676 1038,7674 1033,7671 1030,7669 1029,7666 1028,7662 1027,7656 1029,7651 1025,7650 1020,7649 1015,7647 1007,7640 1002,7635 1001,7633 997,7631 994,7626 980,7613 974,7617 967,7621 962,7625 913,7645 906,7647 876,7658 873,7658 881,7638 886,7624 888,7618 889,7615 890,7612 891,7609 893,7604 894,7599 901,7582 902,7578 905,7570 907,7566 909,7563 909,7559 906,7555 903,7552 900,7549 898,7549 893,7549 888,7549 884,7548 877,7546 871,7552 867,7555 863,7556 857,7556 847,7555 844,7555 837,7553 834,7553 827,7552 823,7550 812,7547 806,7545 810,7542 813,7538 797,7535 800,7531 802,7525 800,7523 796,7521 792,7519 787,7518 781,7516 785,7512 788,7508 782,7506 780,7508 777,7509 773,7507 770,7507 766,7510 763,7509 760,7509 757,7508 756,7511 755,7515 753,7518 750,7520 746,7519 736,7516 731,7514 728,7514 727,7512 726,7507 721,7508 718,7507 720,7506 722,7503 725,7502 724,7499 721,7500 718,7501 715,7502 711,7504 709,7506 707,7510 704,7511 698,7513 698,7516 700,7518 701,7521 697,7521 693,7518 686,7512 681,7510 676,7506 673,7503 677,7500 681,7500 684,7502 687,7501 689,7497 687,7493 684,7491 681,7491 677,7492 671,7493 671,7490 675,7485 680,7477 676,7475 681,7470 684,7467 692,7459 651,7456 648,7455 644,7455 639,7458 639,7461 637,7463 632,7464 628,7465 624,7465 625,7468 625,7473 625,7475 619,7476 616,7477 611,7479 604,7480 601,7480 599,7478 597,7479 594,7483 591,7486 589,7490 588,7494 576,7493 570,7493 569,7501 566,7509 565,7511 561,7513 558,7514 553,7514 547,7514 539,7513 529,7514 511,7514 512,7511 514,7505 501,7504 497,7511 491,7511 485,7511 487,7515 490,7515 494,7516 491,7520 485,7520 482,7520 477,7521 474,7521 472,7523 468,7525 466,7523 466,7521 465,7518 461,7519 457,7519 453,7519 449,7517 449,7514 436,7514 430,7514 427,7514 424,7512 418,7512 415,7514 410,7517 407,7517 404,7511 402,7510 398,7510 398,7507 396,7503 393,7503 392,7502 392,7499 391,7496 390,7490 390,7487 389,7484 386,7482 381,7481 375,7479 372,7478 369,7483 366,7486 362,7486 362,7483 364,7479 365,7474 362,7471 358,7469 357,7468 357,7464 358,7458 358,7452 359,7449 363,7448 366,7446 373,7444 378,7442 380,7440 380,7436 379,7431 380,7428 381,7425 384,7424 387,7423 391,7422 394,7420 394,7418 394,7410 395,7406 395,7400 378,7394 366,7390 366,7386 363,7379 361,7376 377,7379 382,7363 382,7360 380,7357 366,7363 363,7365 360,7366 354,7369 351,7370 347,7372 343,7374 338,7374 336,7375 336,7371 334,7365 330,7363 322,7357 313,7348 308,7345 304,7341 300,7337 297,7334 295,7330 298,7325 302,7320 302,7315 294,7311 291,7311 286,7309 283,7307 282,7304 286,7300 289,7297 292,7296 297,7295 300,7296 304,7298 311,7300 314,7301 323,7302 327,7295 341,7277 349,7267 349,7262 353,7258 355,7254 355,7251 352,7250 346,7249 343,7249 340,7247 332,7241 329,7238 326,7234 320,7225 324,7219 331,7216 334,7215 337,7214 340,7209 342,7206 340,7202 338,7197 337,7193 336,7190 335,7181 336,7178 338,7174 341,7169 343,7166 344,7162 346,7159 347,7156 348,7152 350,7149 352,7146 355,7141 357,7138 361,7133 374,7123 379,7121 382,7119 386,7116 395,7111 398,7109 397,7106 390,7100 389,7097 390,7094 393,7089 398,7083 402,7079 404,7075 406,7069 405,7059 410,7059 419,7065 422,7068 431,7072 435,7072 438,7071 443,7069 446,7068 450,7066 453,7064 458,7059 463,7057 468,7056 472,7055 476,7055 477,7046 475,7039 475,7035 474,7023 476,7019 478,7015 483,7007 486,7001 487,6998 488,6995 489,6991 489,6987 488,6983 487,6973 490,6968 493,6965 498,6962 503,6960 508,6957 516,6954 523,6936 507,6929 492,6925 482,6922 473,6920 472,6910 472,6905 477,6866 478,6854 478,6849 480,6833 481,6826 494,6827 504,6828 527,6829 531,6834 534,6836 537,6839 540,6842 543,6846 547,6850 551,6854 554,6856 556,6859 559,6860 570,6856 575,6855 578,6855 581,6855 594,6855 599,6856 605,6853 607,6849 608,6844 606,6836 605,6833 604,6829 603,6822 604,6819 607,6813 609,6810 615,6808 618,6808 623,6808 629,6810 639,6813 642,6814 645,6815 650,6813 651,6809 650,6805 648,6801 647,6797 643,6789 640,6787 634,6776 633,6772 631,6764 630,6756 631,6753 632,6750 634,6743 633,6740 633,6733 639,6727 641,6724 645,6719 656,6700 659,6697 666,6690 671,6686 671,6683 673,6678 675,6675 678,6674 694,6645 700,6638 703,6635 706,6634 709,6633 713,6633 732,6632 736,6631 739,6629 742,6626 744,6621 744,6613 745,6606 747,6602 751,6595 753,6590 756,6580 756,6566 755,6556 756,6552 756,6549 752,6547 750,6546 746,6542 746,6539 747,6536 749,6533 751,6528 751,6523 750,6517 748,6514 747,6510 746,6507 748,6504 752,6496 759,6483 759,6480 763,6472 770,6456 786,6441 790,6438 794,6435 800,6431 803,6428 806,6427 828,6417 837,6414 873,6391 878,6387 886,6381 894,6374 916,6366 937,6341 958,6314 974,6279 1016,6282 " class="polyStyle" id="210122" style="fill:#fbe6ef"/>
<path d="" class="polyStyle" id="211221" style="fill:#f6f67b"/>
<path d="" class="polyStyle" id="210921" style="fill:#f6f67b"/>
<polygon points="5995,1943 6024,1965 6053,1988 6082,2012 6109,2020 6127,2028 6137,2040 6141,2052 6143,2068 6140,2097 6150,2104 6168,2113 6182,2123 6183,2141 6185,2155 6195,2169 6208,2176 6223,2178 6240,2176 6253,2174 6267,2174 6281,2181 6298,2193 6323,2204 6339,2213 6349,2222 6367,2242 6377,2268 6383,2286 6401,2297 6432,2304 6469,2317 6487,2327 6494,2339 6498,2358 6507,2368 6513,2371 6535,2383 6549,2392 6564,2405 6575,2420 6581,2425 6590,2428 6614,2426 6638,2415 6662,2408 6671,2410 6681,2419 6687,2442 6685,2452 6682,2458 6673,2462 6654,2461 6639,2463 6632,2466 6630,2472 6630,2485 6630,2488 6634,2493 6603,2498 6572,2503 6546,2518 6513,2527 6480,2538 6450,2537 6406,2569 6378,2598 6333,2628 6307,2656 6276,2633 6245,2626 6224,2612 6228,2583 6230,2556 6224,2524 6192,2511 6164,2507 6145,2479 6136,2454 6107,2447 6079,2446 6046,2469 6021,2490 5995,2520 5987,2552 5983,2586 5979,2619 5965,2647 5931,2672 5904,2666 5872,2662 5843,2680 5812,2696 5786,2702 5756,2701 5727,2710 5701,2734 5672,2762 5643,2770 5629,2796 5603,2812 5576,2800 5548,2793 5518,2785 5491,2788 5464,2812 5445,2838 5418,2867 5387,2886 5354,2893 5328,2890 5295,2891 5263,2899 5252,2931 5182,2987 5164,3015 5169,3040 5198,3054 5205,3079 5239,3103 5266,3128 5271,3155 5251,3184 5258,3211 5260,3236 5252,3271 5231,3297 5255,3325 5281,3335 5304,3361 5319,3387 5349,3397 5379,3394 5411,3392 5437,3391 5456,3426 5458,3440 5462,3457 5491,3477 5503,3504 5531,3513 5533,3545 5534,3572 5532,3599 5498,3615 5476,3644 5473,3672 5476,3701 5467,3731 5434,3756 5408,3779 5396,3807 5370,3833 5344,3833 5319,3860 5310,3886 5288,3930 5285,3968 5295,3996 5293,4033 5258,4051 5225,4057 5221,4088 5190,4114 5158,4139 5153,4165 5167,4193 5173,4222 5180,4224 5176,4251 5207,4261 5238,4274 5234,4299 5233,4308 5229,4318 5215,4333 5186,4344 5152,4349 5138,4349 5122,4353 5108,4360 5092,4376 5078,4388 5064,4394 5048,4390 5033,4379 5007,4356 4991,4349 4969,4352 4954,4362 4944,4376 4940,4388 4945,4407 4975,4435 4978,4442 4975,4447 4970,4453 4944,4458 4924,4458 4909,4464 4884,4477 4859,4491 4831,4498 4796,4505 4763,4501 4736,4494 4711,4481 4700,4477 4678,4474 4652,4467 4637,4451 4619,4445 4594,4442 4580,4443 4549,4452 4516,4457 4489,4455 4463,4436 4452,4423 4456,4410 4467,4394 4463,4386 4440,4384 4407,4381 4390,4354 4380,4337 4361,4335 4335,4341 4309,4353 4283,4376 4255,4380 4235,4366 4227,4336 4233,4315 4221,4297 4203,4284 4189,4254 4195,4228 4176,4202 4160,4176 4130,4159 4102,4155 4073,4149 4032,4151 3992,4139 3983,4106 3961,4080 3944,4067 3931,4064 3899,4068 3872,4071 3840,4064 3804,4046 3780,4052 3754,4054 3699,4031 3705,4003 3706,3976 3676,3965 3645,3955 3634,3927 3603,3911 3589,3895 3576,3882 3543,3854 3495,3859 3460,3855 3428,3861 3401,3865 3373,3871 3346,3899 3313,3906 3281,3901 3252,3897 3213,3896 3185,3894 3159,3921 3144,3932 3141,3951 3126,3960 3109,3988 3074,3969 3041,3970 3012,3968 2983,3955 2953,3939 2943,3914 2925,3904 2894,3914 2865,3916 2839,3904 2810,3889 2781,3883 2755,3885 2728,3884 2698,3877 2671,3868 2645,3864 2618,3868 2588,3878 2560,3887 2533,3887 2503,3880 2474,3877 2444,3872 2417,3868 2390,3869 2363,3887 2340,3912 2311,3919 2282,3911 2245,3899 2192,3905 2166,3917 2132,3916 2106,3910 2076,3903 2049,3899 2023,3895 1997,3892 1968,3884 1941,3865 1914,3865 1896,3891 1866,3890 1840,3903 1811,3901 1782,3897 1756,3889 1727,3881 1699,3859 1688,3833 1681,3807 1682,3779 1698,3752 1724,3729 1730,3728 1757,3721 1785,3717 1813,3710 1844,3702 1879,3682 1915,3658 1941,3638 1967,3616 2002,3591 2033,3574 2065,3562 2097,3548 2123,3548 2159,3537 2180,3510 2208,3495 2241,3480 2276,3463 2309,3455 2351,3456 2384,3456 2400,3430 2395,3402 2383,3375 2366,3347 2340,3322 2314,3310 2295,3284 2305,3258 2280,3253 2246,3237 2225,3197 2202,3169 2171,3164 2138,3171 2114,3144 2085,3138 2059,3132 2034,3108 2032,3081 2031,3050 2029,3024 2028,2992 2020,2962 2012,2935 2006,2905 2002,2868 2003,2829 2011,2797 2016,2764 2044,2735 2070,2723 2102,2713 2127,2708 2156,2708 2182,2705 2209,2705 2235,2703 2263,2703 2291,2699 2325,2693 2351,2689 2378,2686 2416,2688 2444,2676 2448,2643 2447,2610 2448,2584 2461,2550 2489,2539 2523,2532 2545,2503 2575,2501 2599,2511 2637,2497 2665,2474 2691,2451 2721,2420 2747,2420 2775,2412 2806,2379 2806,2359 2830,2354 2856,2355 2896,2348 2925,2339 2972,2345 2998,2353 3021,2346 3037,2343 3063,2347 3092,2354 3122,2368 3154,2383 3179,2412 3205,2425 3207,2429 3204,2434 3190,2445 3188,2451 3181,2476 3180,2483 3184,2496 3192,2502 3200,2503 3209,2492 3217,2493 3220,2495 3230,2503 3246,2507 3256,2505 3273,2510 3288,2513 3300,2521 3326,2536 3338,2545 3350,2562 3357,2566 3363,2563 3370,2563 3374,2566 3373,2572 3363,2576 3364,2584 3372,2586 3389,2584 3397,2583 3433,2583 3463,2603 3489,2612 3498,2583 3525,2562 3552,2547 3578,2541 3608,2537 3635,2533 3661,2531 3694,2530 3727,2528 3754,2533 3781,2541 3811,2536 3837,2531 3867,2527 3899,2537 3930,2556 3947,2584 3973,2606 4006,2591 4033,2580 4036,2555 4063,2533 4084,2506 4110,2494 4135,2468 4162,2441 4195,2430 4224,2404 4254,2388 4275,2361 4301,2353 4334,2358 4360,2356 4388,2331 4422,2306 4448,2289 4479,2277 4483,2249 4509,2232 4535,2228 4579,2226 4634,2212 4648,2139 4660,2102 4705,2071 4743,2068 4753,2092 4778,2115 4785,2147 4811,2160 4845,2166 4871,2168 4897,2175 4925,2171 4950,2167 4977,2166 5007,2155 5039,2126 5066,2135 5106,2136 5133,2142 5159,2143 5191,2141 5224,2139 5258,2132 5292,2125 5321,2119 5340,2092 5375,2058 5416,2059 5444,2062 5484,2061 5512,2043 5507,2018 5534,2010 5562,2014 5577,2038 5621,2035 5649,2012 5678,2008 5707,1994 5754,1994 5806,2016 5838,2027 5870,2021 5892,1991 5920,1965 5946,1937 5975,1912 5982,1927 " class="polyStyle" id="210124" style="fill:#ee8b94"/>
<path d="" class="polyStyle" id="150223" style="fill:#f8c67d"/>
<polygon points="5284,12 5322,40 5338,54 5348,72 5354,82 5364,86 5382,92 5414,96 5418,94 5434,86 5478,70 5483,84 5494,94 5514,105 5532,113 5544,124 5534,154 5534,162 5544,166 5554,166 5558,172 5568,172 5598,174 5622,172 5634,172 5644,166 5658,160 5672,152 5678,156 5682,170 5684,180 5702,184 5713,188 5706,195 5703,202 5702,209 5708,222 5721,239 5723,248 5721,260 5717,265 5690,278 5670,286 5661,282 5654,271 5648,268 5629,274 5630,284 5630,303 5624,319 5625,330 5632,345 5647,363 5658,371 5672,375 5685,372 5697,364 5705,363 5711,365 5725,377 5733,390 5736,399 5734,407 5708,415 5696,419 5690,431 5699,440 5729,454 5747,459 5758,458 5785,448 5797,449 5806,461 5809,477 5812,487 5836,497 5861,505 5888,508 5899,510 5911,523 5909,540 5907,546 5900,551 5889,554 5882,554 5869,551 5845,538 5838,537 5827,543 5824,549 5823,568 5827,583 5837,604 5860,631 5877,646 5889,662 5904,681 5900,693 5875,720 5869,733 5865,748 5861,765 5854,778 5843,788 5822,794 5817,800 5820,808 5849,815 5877,819 5888,817 5895,808 5901,794 5908,790 5920,796 5930,806 5928,821 5921,829 5903,839 5889,842 5876,848 5867,859 5859,885 5845,902 5841,908 5840,921 5846,929 5873,953 5883,964 5892,979 5895,988 5890,1005 5883,1014 5858,1035 5847,1045 5848,1054 5861,1062 5871,1067 5879,1079 5882,1088 5886,1115 5892,1145 5895,1162 5893,1171 5887,1181 5867,1201 5863,1221 5864,1228 5869,1239 5873,1258 5884,1283 5891,1297 5885,1309 5875,1317 5852,1321 5840,1326 5834,1333 5832,1340 5835,1350 5838,1361 5835,1372 5826,1376 5808,1380 5801,1384 5796,1390 5795,1417 5793,1433 5783,1447 5762,1473 5755,1485 5743,1493 5735,1496 5719,1494 5709,1477 5699,1471 5691,1475 5683,1482 5677,1497 5679,1512 5688,1522 5711,1530 5738,1538 5754,1545 5764,1552 5770,1562 5771,1571 5767,1578 5738,1588 5729,1594 5727,1602 5729,1613 5733,1622 5758,1636 5767,1640 5783,1647 5790,1659 5790,1674 5787,1687 5775,1694 5746,1690 5739,1694 5736,1706 5734,1722 5741,1743 5749,1747 5767,1753 5789,1758 5815,1760 5851,1771 5856,1778 5854,1786 5836,1799 5809,1809 5790,1813 5788,1819 5812,1846 5826,1853 5829,1874 5838,1883 5859,1886 5875,1880 5890,1867 5915,1850 5945,1830 5964,1815 5977,1820 5992,1826 6007,1835 6021,1844 6024,1851 6020,1861 5991,1877 5977,1892 5975,1912 5946,1937 5920,1965 5892,1991 5870,2021 5838,2027 5806,2016 5754,1994 5707,1994 5678,2008 5649,2012 5621,2035 5577,2038 5562,2014 5534,2010 5507,2018 5512,2043 5484,2061 5444,2062 5416,2059 5375,2058 5340,2092 5321,2119 5292,2125 5258,2132 5224,2139 5191,2141 5159,2143 5133,2142 5106,2136 5066,2135 5039,2126 5007,2155 4977,2166 4950,2167 4925,2171 4897,2175 4871,2168 4845,2166 4811,2160 4785,2147 4778,2115 4753,2092 4743,2068 4705,2071 4660,2102 4648,2139 4634,2212 4579,2226 4535,2228 4509,2232 4483,2249 4479,2277 4448,2289 4422,2306 4388,2331 4360,2356 4334,2358 4301,2353 4275,2361 4254,2388 4224,2404 4195,2430 4162,2441 4135,2468 4110,2494 4084,2506 4063,2533 4036,2555 4033,2580 4006,2591 3973,2606 3947,2584 3930,2556 3899,2537 3867,2527 3837,2531 3811,2536 3781,2541 3754,2533 3727,2528 3694,2530 3661,2531 3635,2533 3608,2537 3578,2541 3552,2547 3525,2562 3498,2583 3489,2612 3463,2603 3433,2583 3397,2583 3389,2584 3372,2586 3364,2584 3363,2576 3373,2572 3374,2566 3370,2563 3363,2563 3357,2566 3350,2562 3338,2545 3326,2536 3300,2521 3288,2513 3273,2510 3256,2505 3246,2507 3230,2503 3220,2495 3217,2493 3209,2492 3200,2503 3192,2502 3184,2496 3180,2483 3181,2476 3188,2451 3190,2445 3204,2434 3207,2429 3205,2425 3179,2412 3154,2383 3122,2368 3092,2354 3063,2347 3037,2343 3021,2346 2998,2353 2972,2345 2925,2339 2896,2348 2856,2355 2830,2354 2806,2359 2807,2351 2770,2331 2735,2313 2671,2290 2604,2267 2561,2253 2502,2222 2475,2194 2451,2166 2423,2148 2393,2140 2364,2153 2336,2162 2309,2165 2279,2161 2252,2155 2223,2140 2199,2108 2183,2081 2155,2061 2128,2047 2102,2025 2091,1999 2096,1973 2071,1963 2044,1961 2019,1958 1977,1958 1949,1959 1924,1956 1897,1955 1868,1953 1827,1948 1819,1920 1813,1893 1807,1867 1792,1842 1784,1816 1764,1789 1739,1786 1694,1781 1666,1774 1634,1744 1630,1716 1636,1691 1664,1665 1690,1659 1722,1657 1756,1650 1783,1640 1809,1617 1840,1603 1870,1587 1897,1585 1924,1590 1960,1603 1987,1616 2013,1618 2043,1621 2068,1624 2095,1612 2097,1621 2110,1616 2122,1612 2122,1624 2128,1638 2126,1645 2124,1662 2124,1670 2178,1680 2188,1650 2168,1632 2188,1608 2191,1575 2214,1562 2274,1518 2262,1504 2284,1478 2310,1484 2316,1450 2276,1457 2286,1413 2305,1399 2318,1364 2394,1352 2508,1348 2542,1352 2604,1430 2622,1442 2634,1412 2662,1438 2674,1438 2748,1408 2758,1394 2738,1378 2738,1370 2794,1324 2808,1320 2844,1320 2853,1323 2863,1334 2876,1340 2906,1340 2919,1335 2943,1335 2970,1351 3009,1353 3020,1357 3049,1366 3066,1365 3114,1350 3126,1351 3161,1365 3182,1364 3198,1358 3204,1352 3218,1342 3224,1338 3234,1324 3244,1314 3254,1312 3268,1308 3288,1284 3304,1270 3308,1270 3318,1280 3338,1278 3382,1252 3402,1242 3408,1238 3424,1242 3438,1234 3452,1222 3472,1210 3494,1202 3544,1200 3584,1192 3648,1170 3668,1166 3684,1164 3724,1154 3758,1136 3778,1124 3788,1116 3788,1112 3782,1096 3788,1094 3808,1086 3832,1082 3872,1086 3924,1086 3968,1076 3978,1076 3992,1084 3998,1086 4004,1084 4004,1080 4014,1070 4022,1062 4028,1051 4012,1046 3984,1030 3948,1022 3922,1004 3898,994 3884,992 3864,982 3854,982 3838,970 3834,966 3828,970 3818,980 3808,982 3804,982 3788,973 3778,964 3768,962 3743,953 3738,932 3738,912 3752,886 3774,842 3784,816 3798,802 3814,792 3822,782 3824,774 3828,766 3828,750 3832,732 3832,726 3832,716 3828,700 3818,656 3814,622 3812,600 3808,582 3812,580 3824,562 3834,546 3842,542 3852,530 3862,522 3878,506 3888,496 3902,474 3918,454 3932,446 3942,444 3978,444 3988,442 3994,436 4034,404 4048,392 4052,382 4054,374 4054,366 4058,356 4068,342 4084,324 4088,320 4104,310 4122,294 4178,252 4188,244 4204,242 4248,230 4282,222 4314,222 4414,214 4454,212 4488,210 4522,200 4534,192 4552,184 4564,182 4584,180 4602,176 4632,174 4648,174 4674,170 4694,166 4748,154 4768,150 4788,142 4804,140 4804,130 4894,112 4914,102 4932,86 4944,70 4954,70 4978,64 5004,64 5018,66 5034,72 5048,74 5062,72 5074,66 5088,62 5112,42 5128,22 5142,20 5158,16 5174,16 5194,16 5204,14 5214,12 5228,4 5244,0 5254,0 5264,2 " class="polyStyle" id="210123" style="fill:#d4ecb2"/>
<path d="" class="polyStyle" id="220422" style="fill:#d4ecb2"/>
<path d="" class="polyStyle" id="340721" style="fill:#f6f67b"/>
<path d="" class="polyStyle" id="510824" style="fill:#d4ecb2"/>
<path d="" class="polyStyle" id="610324" style="fill:#f6f67b"/>
<path d="" class="polyStyle" id="530722" style="fill:#ee8b94"/>
<path d="" class="polyStyle" id="340823" style="fill:#d4ecb2"/>
<path d="" class="polyStyle" id="620825" style="fill:#d4ecb2"/>
<path d="" class="polyStyle" id="421125" style="fill:#ee8b94"/>
<path d="" class="polyStyle" id="210281" style="fill:#ee8b94"/>
<path d="" class="polyStyle" id="440883" style="fill:#f6f67b"/>
<path d="" class="polyStyle" id="469006" style="fill:#d4ecb2"/>
<path d="" class="polyStyle" id="469002" style="fill:#ee8b94"/>
<path d="" class="polyStyle" id="469005" style="fill:#fbe6ef"/>
<path d="" class="polyStyle" id="440882" style="fill:#ee8b94"/>
<path d="" class="polyStyle" id="450681" style="fill:#ee8b94"/>
<path d="" class="polyStyle" id="441581" style="fill:#d4ecb2"/>
<path d="" class="polyStyle" id="421087" style="fill:#ee8b94"/>
<path d="" class="polyStyle" id="420984" style="fill:#fbe6ef"/>
<path d="" class="polyStyle" id="420582" style="fill:#ee8b94"/>
<path d="" class="polyStyle" id="370282" style="fill:#f6f67b"/>
<path d="" class="polyStyle" id="371083" style="fill:#f6f67b"/>
<path d="" class="polyStyle" id="371082" style="fill:#fbe6ef"/>
<path d="" class="polyStyle" id="652801" style="fill:#f8c67d"/>
<polygon points="1682,3779 1681,3807 1688,3833 1699,3859 1727,3881 1756,3889 1782,3897 1811,3901 1840,3903 1866,3890 1896,3891 1914,3865 1941,3865 1968,3884 1997,3892 2023,3895 2049,3899 2076,3903 2106,3910 2132,3916 2166,3917 2192,3905 2245,3899 2282,3911 2311,3919 2340,3912 2363,3887 2390,3869 2417,3868 2444,3872 2474,3877 2503,3880 2533,3887 2560,3887 2588,3878 2618,3868 2645,3864 2671,3868 2698,3877 2728,3884 2755,3885 2781,3883 2810,3889 2839,3904 2865,3916 2894,3914 2925,3904 2943,3914 2953,3939 2983,3955 3012,3968 3041,3970 3074,3969 3109,3988 3126,3960 3141,3951 3144,3932 3159,3921 3185,3894 3213,3896 3252,3897 3281,3901 3313,3906 3346,3899 3373,3871 3401,3865 3428,3861 3460,3855 3495,3859 3543,3854 3576,3882 3589,3895 3603,3911 3634,3927 3645,3955 3676,3965 3706,3976 3705,4003 3699,4031 3754,4054 3780,4052 3804,4046 3840,4064 3872,4071 3899,4068 3931,4064 3944,4067 3961,4080 3983,4106 3992,4139 4032,4151 4073,4149 4102,4155 4130,4159 4160,4176 4176,4202 4195,4228 4189,4254 4203,4284 4221,4297 4233,4315 4227,4336 4235,4366 4255,4380 4283,4376 4309,4353 4335,4341 4361,4335 4380,4337 4390,4354 4407,4381 4440,4384 4463,4386 4467,4394 4456,4410 4452,4423 4463,4436 4489,4455 4516,4457 4549,4452 4580,4443 4610,4463 4608,4495 4591,4524 4565,4527 4538,4542 4509,4543 4501,4568 4508,4598 4481,4625 4455,4653 4433,4684 4416,4712 4393,4741 4363,4744 4337,4758 4325,4764 4300,4791 4277,4819 4253,4843 4234,4862 4205,4868 4179,4881 4172,4909 4150,4938 4119,4952 4097,4977 4068,4973 4057,4999 4031,5027 4004,5034 3980,5059 3968,5087 3939,5106 3913,5107 3883,5121 3857,5131 3831,5150 3803,5172 3775,5197 3794,5224 3768,5252 3740,5252 3713,5245 3686,5243 3679,5254 3677,5273 3660,5278 3658,5293 3660,5309 3663,5321 3637,5312 3624,5323 3599,5331 3571,5331 3563,5343 3570,5373 3563,5394 3538,5412 3516,5425 3499,5418 3484,5400 3458,5397 3447,5423 3465,5440 3477,5449 3495,5472 3479,5481 3473,5493 3487,5507 3491,5514 3488,5521 3478,5530 3484,5540 3524,5553 3551,5565 3573,5576 3574,5589 3562,5600 3544,5620 3527,5628 3518,5644 3510,5670 3527,5699 3559,5715 3579,5719 3600,5694 3620,5707 3641,5726 3667,5743 3685,5759 3669,5771 3660,5777 3650,5786 3639,5792 3641,5803 3638,5812 3622,5812 3611,5809 3606,5806 3597,5802 3591,5802 3582,5810 3584,5820 3600,5824 3606,5832 3598,5854 3585,5873 3560,5898 3551,5913 3563,5926 3579,5939 3592,5939 3602,5948 3601,5957 3620,5965 3656,5976 3672,5966 3689,5981 3710,6012 3712,6051 3703,6076 3697,6098 3699,6112 3721,6121 3747,6136 3763,6152 3759,6167 3744,6190 3722,6213 3701,6243 3691,6270 3699,6302 3700,6321 3688,6340 3691,6361 3717,6392 3730,6418 3729,6453 3711,6479 3689,6482 3665,6481 3662,6508 3656,6517 3667,6526 3678,6530 3649,6566 3637,6577 3616,6574 3590,6572 3571,6574 3556,6584 3540,6588 3508,6586 3478,6579 3456,6577 3440,6570 3437,6545 3427,6536 3397,6538 3364,6539 3336,6538 3303,6539 3274,6539 3244,6536 3205,6533 3194,6529 3177,6528 3132,6529 3101,6528 3067,6528 3039,6528 3014,6529 3003,6529 2993,6529 2963,6532 2924,6536 2919,6537 2892,6551 2861,6588 2848,6623 2816,6627 2784,6633 2756,6634 2723,6628 2683,6598 2658,6555 2632,6517 2596,6499 2562,6490 2533,6487 2499,6483 2467,6478 2441,6477 2415,6486 2367,6498 2310,6495 2252,6493 2203,6484 2162,6467 2120,6452 2083,6430 2042,6414 2011,6401 1970,6404 1941,6418 1903,6402 1826,6368 1774,6363 1743,6365 1684,6374 1688,6406 1691,6430 1683,6457 1672,6469 1657,6482 1636,6489 1605,6489 1580,6494 1562,6506 1551,6530 1543,6561 1527,6568 1483,6559 1446,6530 1419,6519 1338,6479 1296,6451 1265,6441 1236,6432 1201,6421 1163,6406 1125,6393 1098,6375 1068,6339 1035,6313 1016,6282 974,6279 958,6314 937,6341 916,6366 894,6374 891,6369 886,6363 881,6355 877,6349 873,6348 865,6347 856,6347 853,6348 848,6349 838,6349 817,6349 811,6350 805,6352 801,6352 797,6353 794,6351 790,6349 787,6349 784,6350 779,6351 777,6352 770,6352 767,6352 763,6352 760,6351 757,6350 754,6349 748,6347 740,6346 736,6348 729,6352 724,6354 718,6355 716,6356 712,6356 708,6356 703,6355 699,6352 696,6349 693,6346 690,6342 683,6336 686,6332 689,6328 692,6323 693,6320 693,6317 694,6311 695,6305 698,6305 704,6304 704,6300 702,6294 701,6290 701,6284 701,6280 699,6272 699,6265 693,6261 687,6257 672,6250 666,6248 664,6256 663,6259 659,6269 659,6275 655,6275 647,6273 635,6269 628,6267 617,6264 611,6263 607,6262 618,6250 616,6246 612,6238 605,6228 597,6211 594,6207 577,6202 570,6200 560,6196 547,6189 542,6186 545,6179 545,6176 543,6171 541,6169 539,6168 535,6166 528,6164 522,6161 519,6159 513,6157 509,6156 504,6155 494,6153 491,6152 484,6149 481,6146 482,6138 484,6127 481,6127 479,6127 475,6127 463,6127 459,6127 456,6128 453,6128 450,6127 451,6125 452,6123 453,6119 456,6115 459,6111 461,6108 451,6112 435,6121 435,6118 435,6114 438,6111 442,6107 447,6103 438,6100 432,6099 426,6098 421,6097 417,6093 416,6089 419,6081 420,6077 417,6075 414,6074 409,6074 398,6078 394,6080 390,6084 386,6087 383,6089 376,6085 376,6082 376,6080 371,6078 365,6076 365,6073 366,6069 363,6066 353,6062 343,6059 332,6056 328,6054 328,6050 307,6044 278,6036 268,6033 259,6031 258,6027 247,6025 252,6016 239,6012 212,6004 189,5997 192,5991 201,5977 188,5971 197,5949 206,5936 206,5932 206,5909 209,5900 205,5893 206,5883 198,5884 197,5863 207,5845 220,5822 210,5820 218,5805 208,5803 195,5801 190,5800 172,5794 158,5789 144,5785 143,5788 135,5787 132,5785 122,5782 125,5777 112,5772 97,5766 88,5763 87,5757 87,5749 86,5742 86,5737 90,5733 94,5730 97,5728 100,5726 102,5723 103,5717 104,5713 105,5707 106,5701 111,5702 125,5705 128,5706 131,5704 134,5696 138,5690 143,5686 149,5691 153,5694 156,5695 158,5697 162,5699 169,5702 167,5699 164,5696 165,5688 164,5675 164,5669 173,5670 181,5673 185,5674 194,5676 196,5670 203,5672 206,5672 213,5673 218,5673 223,5674 241,5680 246,5682 260,5687 267,5689 273,5683 273,5679 276,5679 279,5681 290,5685 298,5687 309,5692 311,5690 315,5683 317,5678 320,5676 325,5678 325,5680 330,5683 342,5687 346,5690 349,5689 351,5687 355,5689 363,5691 366,5692 370,5693 374,5693 378,5692 382,5691 385,5692 394,5694 396,5695 400,5695 410,5699 424,5704 427,5704 431,5704 439,5706 439,5701 439,5694 438,5688 441,5690 444,5691 447,5694 453,5696 473,5704 485,5709 491,5711 499,5711 508,5710 505,5705 505,5697 506,5692 508,5688 508,5684 507,5680 503,5677 497,5674 491,5669 486,5664 484,5660 481,5652 482,5648 486,5642 491,5637 495,5631 496,5627 495,5623 490,5618 484,5612 480,5605 479,5596 475,5587 473,5580 472,5572 473,5563 473,5557 457,5521 449,5500 442,5491 433,5488 413,5491 402,5489 403,5480 404,5476 408,5467 412,5460 414,5455 413,5451 414,5447 414,5411 406,5404 403,5402 397,5399 390,5392 386,5386 385,5383 386,5367 387,5360 389,5354 390,5351 391,5347 392,5344 393,5341 394,5337 395,5334 396,5329 396,5315 392,5309 390,5306 388,5303 384,5299 381,5296 376,5291 374,5288 370,5284 367,5252 368,5247 370,5233 369,5227 369,5221 368,5217 368,5211 367,5207 366,5203 364,5196 363,5192 362,5188 361,5184 360,5180 357,5175 354,5173 354,5170 347,5162 345,5156 344,5153 341,5148 331,5131 316,5111 313,5107 310,5104 307,5099 304,5096 301,5093 297,5091 292,5088 286,5085 283,5084 275,5080 272,5079 261,5074 255,5071 247,5069 242,5064 241,5060 245,5054 250,5049 254,5046 256,5043 261,5039 265,5034 267,5030 269,5027 270,5023 272,5018 274,5014 275,5011 277,5004 278,4994 277,4990 275,4986 270,4981 267,4981 264,4980 258,4979 251,4981 248,4981 243,4988 239,4994 237,4999 235,5003 228,5011 218,5011 215,5011 211,5008 205,5004 202,5001 199,4997 196,4992 194,4988 192,4984 192,4980 191,4977 190,4973 189,4969 188,4963 187,4956 186,4950 185,4946 176,4933 171,4924 163,4921 158,4920 155,4918 150,4915 146,4913 143,4910 142,4906 141,4902 142,4898 143,4895 144,4891 146,4887 148,4882 150,4879 154,4865 154,4859 153,4850 152,4845 148,4843 145,4840 142,4837 134,4834 130,4833 121,4832 116,4833 112,4834 108,4835 105,4835 94,4836 89,4835 77,4832 69,4823 65,4822 70,4793 74,4790 76,4786 84,4781 88,4780 91,4780 100,4779 108,4778 111,4777 114,4777 117,4776 120,4775 131,4772 134,4770 141,4764 145,4759 146,4751 144,4746 143,4743 139,4739 129,4735 120,4732 117,4732 106,4734 102,4734 97,4735 92,4737 88,4737 84,4738 80,4739 77,4740 74,4741 69,4742 66,4743 63,4744 59,4744 52,4746 45,4743 45,4737 46,4734 47,4729 52,4721 62,4710 64,4703 73,4692 77,4687 82,4679 84,4675 88,4668 94,4664 97,4664 104,4664 110,4664 114,4664 119,4663 126,4661 130,4657 132,4652 130,4648 129,4645 123,4641 114,4636 111,4635 99,4632 94,4629 90,4627 81,4621 80,4618 87,4612 91,4610 96,4608 101,4605 110,4601 114,4598 116,4591 111,4587 107,4586 90,4586 80,4586 58,4587 51,4587 46,4586 41,4586 36,4584 29,4581 20,4574 18,4570 14,4564 5,4546 0,4515 20,4492 32,4480 47,4466 89,4462 140,4478 198,4484 227,4470 256,4455 281,4442 310,4430 335,4416 375,4393 403,4383 431,4373 464,4359 494,4343 528,4328 550,4314 583,4304 604,4286 648,4263 695,4243 750,4221 816,4195 872,4180 904,4167 923,4134 944,4093 973,4088 1002,4101 1034,4097 1088,4081 1144,4056 1195,4036 1216,4028 1244,4012 1276,3993 1304,3971 1333,3953 1361,3934 1387,3914 1417,3894 1443,3877 1470,3860 1499,3842 1528,3823 1556,3811 1584,3798 1613,3786 1640,3770 1670,3753 1699,3732 1724,3729 1698,3752 " class="polyStyle" id="210181" style="fill:#d4ecb2"/>
<path d="" class="polyStyle" id="654301" style="fill:#ee8b94"/>
<path d="" class="polyStyle" id="370687" style="fill:#ee8b94"/>
<path d="" class="polyStyle" id="371482" style="fill:#d4ecb2"/>
<path d="" class="polyStyle" id="421081" style="fill:#fbe6ef"/>
<path d="" class="polyStyle" id="429006" style="fill:#f6f67b"/>
<path d="" class="polyStyle" id="440982" style="fill:#d4ecb2"/>
<path d="" class="polyStyle" id="421181" style="fill:#d4ecb2"/>
<path d="" class="polyStyle" id="321181" style="fill:#d4ecb2"/>
<path d="" class="polyStyle" id="659007" style="fill:#ee8b94"/>
<path d="" class="polyStyle" id="652701" style="fill:#fbe6ef"/>
<path d="" class="polyStyle" id="210781" style="fill:#fbe6ef"/>
<path d="" class="polyStyle" id="460204" style="fill:#f6f67b"/>
<path d="" class="polyStyle" id="210211" style="fill:#f6f67b"/>
<path d="" class="polyStyle" id="450512" style="fill:#ee8b94"/>
<path d="" class="polyStyle" id="450602" style="fill:#fbe6ef"/>
<path d="" class="polyStyle" id="440404" style="fill:#ee8b94"/>
<path d="" class="polyStyle" id="440403" style="fill:#f6f67b"/>
<path d="" class="polyStyle" id="441502" style="fill:#f6f67b"/>
<path d="" class="polyStyle" id="431002" style="fill:#d4ecb2"/>
<path d="" class="polyStyle" id="500107" style="fill:#fbe6ef"/>
<path d="" class="polyStyle" id="430611" style="fill:#d4ecb2"/>
<path d="" class="polyStyle" id="511304" style="fill:#fbe6ef"/>
<path d="" class="polyStyle" id="340711" style="fill:#ee8b94"/>
<path d="" class="polyStyle" id="320118" style="fill:#f6f67b"/>
<path d="" class="polyStyle" id="510704" style="fill:#f6f67b"/>
<path d="" class="polyStyle" id="411502" style="fill:#ee8b94"/>
<path d="" class="polyStyle" id="320302" style="fill:#d4ecb2"/>
<path d="" class="polyStyle" id="140311" style="fill:#ee8b94"/>
<path d="" class="polyStyle" id="610802" style="fill:#ee8b94"/>
<path d="" class="polyStyle" id="120116" style="fill:#f6f67b"/>
<path d="" class="polyStyle" id="130303" style="fill:#fbe6ef"/>
<path d="" class="polyStyle" id="140211" style="fill:#f6f67b"/>
<path d="" class="polyStyle" id="150207" style="fill:#fbe6ef"/>
<path d="" class="polyStyle" id="211403" style="fill:#f6f67b"/>
<path d="" class="polyStyle" id="150802" style="fill:#f8c67d"/>
<polygon points="4521,6655 4496,6695 4486,6713 4492,6734 4514,6746 4544,6746 4577,6749 4609,6747 4628,6738 4641,6723 4649,6706 4654,6685 4656,6664 4647,6650 4655,6645 4673,6657 4688,6666 4690,6684 4688,6699 4683,6718 4685,6730 4746,6770 4784,6785 4814,6785 4843,6743 4859,6726 4876,6717 4902,6718 4926,6730 4926,6750 4903,6804 4869,6867 4850,6875 4821,6892 4795,6904 4775,6911 4771,6930 4762,6962 4764,6971 4819,6991 4864,7003 4879,7009 4880,7022 4871,7040 4875,7052 4894,7057 4905,7053 4922,7037 4934,7032 4945,7031 4972,7036 5014,7045 5056,7046 5102,7048 5161,7057 5196,7076 5211,7098 5221,7125 5242,7148 5276,7158 5312,7165 5349,7165 5385,7154 5418,7137 5447,7116 5466,7102 5486,7102 5499,7115 5523,7116 5547,7102 5564,7072 5584,7048 5604,7026 5624,7026 5646,7034 5676,7048 5690,7061 5706,7064 5721,7050 5740,7032 5763,7032 5806,7055 5813,7067 5805,7074 5816,7082 5831,7087 5830,7105 5861,7130 5880,7139 5897,7145 5901,7132 5913,7122 5928,7122 5949,7134 5964,7142 5988,7144 6017,7134 6056,7122 6080,7125 6098,7132 6114,7139 6135,7131 6159,7126 6184,7141 6206,7152 6249,7165 6299,7163 6339,7163 6369,7155 6409,7140 6447,7127 6477,7130 6501,7147 6539,7155 6579,7141 6596,7136 6616,7139 6629,7151 6646,7157 6667,7160 6677,7146 6678,7135 6682,7104 6708,7113 6726,7140 6742,7167 6772,7174 6798,7181 6825,7197 6819,7225 6789,7243 6760,7257 6729,7275 6699,7291 6672,7306 6639,7307 6610,7316 6577,7335 6548,7350 6519,7357 6506,7387 6517,7416 6554,7436 6568,7447 6556,7458 6539,7462 6541,7475 6550,7496 6571,7489 6586,7504 6602,7532 6631,7572 6617,7598 6611,7623 6596,7628 6577,7629 6555,7625 6545,7625 6531,7640 6507,7654 6486,7662 6459,7650 6428,7637 6404,7618 6409,7603 6395,7594 6373,7588 6355,7585 6344,7595 6337,7606 6322,7617 6307,7610 6289,7599 6291,7577 6280,7571 6258,7575 6235,7578 6210,7576 6190,7566 6182,7576 6181,7597 6160,7607 6140,7611 6117,7607 6099,7600 6072,7595 6057,7581 6048,7598 6034,7617 6006,7621 5978,7639 5969,7665 5941,7674 5922,7678 5925,7700 5914,7708 5880,7724 5851,7737 5845,7738 5812,7721 5782,7723 5752,7740 5723,7757 5689,7773 5659,7783 5631,7794 5601,7791 5575,7774 5546,7752 5518,7762 5491,7790 5460,7793 5433,7795 5407,7792 5375,7803 5346,7814 5319,7833 5287,7850 5257,7863 5232,7875 5196,7884 5170,7873 5144,7867 5115,7860 5089,7855 5060,7854 5047,7851 5030,7848 5027,7843 5032,7823 5032,7803 5024,7793 4996,7793 4991,7789 4991,7781 4999,7771 4997,7768 4980,7769 4972,7767 4957,7757 4946,7745 4943,7733 4949,7722 4949,7718 4944,7712 4933,7709 4921,7710 4890,7727 4882,7731 4871,7732 4861,7721 4858,7717 4849,7716 4835,7724 4826,7723 4796,7687 4800,7674 4797,7664 4785,7662 4777,7670 4766,7673 4733,7670 4720,7672 4705,7680 4697,7681 4691,7677 4692,7669 4703,7659 4703,7652 4701,7648 4694,7645 4675,7648 4663,7650 4643,7651 4611,7647 4584,7637 4570,7634 4564,7643 4559,7665 4553,7671 4530,7668 4511,7663 4495,7653 4467,7628 4452,7612 4438,7604 4434,7604 4400,7608 4371,7599 4343,7582 4315,7580 4286,7553 4273,7521 4246,7515 4211,7515 4171,7514 4137,7510 4107,7497 4078,7476 4058,7447 4030,7416 3998,7418 3962,7415 3935,7412 3907,7410 3882,7411 3847,7430 3821,7451 3787,7463 3757,7471 3730,7483 3699,7497 3668,7509 3634,7511 3602,7504 3568,7490 3542,7470 3511,7440 3490,7407 3480,7372 3456,7344 3447,7318 3465,7291 3490,7265 3507,7235 3524,7209 3546,7183 3547,7152 3519,7152 3493,7153 3467,7154 3437,7158 3432,7158 3455,7122 3459,7105 3472,7086 3479,7083 3502,7068 3497,7021 3506,7009 3526,7006 3564,7006 3608,6997 3633,6988 3675,6973 3677,6957 3665,6944 3661,6931 3676,6916 3699,6912 3720,6919 3737,6939 3746,6946 3752,6959 3755,6978 3763,6988 3780,6987 3787,6967 3785,6948 3779,6935 3778,6920 3791,6912 3812,6909 3829,6904 3837,6886 3849,6880 3882,6884 3914,6881 3928,6872 3927,6857 3920,6821 3931,6805 3946,6800 3964,6803 3991,6806 4056,6738 4063,6724 4080,6717 4101,6727 4134,6743 4157,6754 4181,6760 4213,6765 4228,6763 4269,6750 4315,6742 4325,6737 4334,6728 4334,6716 4329,6700 4306,6673 4271,6650 4261,6643 4256,6635 4257,6623 4269,6615 4279,6612 4291,6615 4323,6625 4337,6630 4364,6633 4388,6637 4409,6636 4439,6633 4449,6630 4496,6616 4524,6607 4533,6603 4542,6598 4538,6629 " class="polyStyle" id="210111" style="fill:#d4ecb2"/>
<polygon points="5019,6173 5013,6198 5004,6224 5004,6244 5006,6256 5012,6274 5023,6302 5033,6313 5049,6314 5066,6314 5068,6322 5069,6334 5065,6355 5064,6386 5062,6407 5062,6421 5067,6428 5072,6434 5069,6435 5049,6438 5029,6434 5003,6422 4973,6410 4937,6402 4906,6400 4883,6404 4855,6414 4834,6425 4805,6442 4787,6452 4757,6465 4756,6443 4756,6422 4757,6406 4767,6386 4775,6368 4788,6345 4802,6319 4819,6292 4827,6274 4842,6253 4861,6227 4884,6201 4905,6179 4916,6169 4931,6156 4937,6142 4954,6140 4972,6135 4996,6126 5017,6118 5035,6115 5026,6152 " class="polyStyle" id="210102" style="fill:#fbe6ef"/>
<polygon points="5154,6094 5149,6103 5149,6115 5150,6128 5145,6150 5134,6165 5137,6178 5151,6180 5175,6180 5196,6183 5211,6186 5214,6196 5216,6211 5216,6234 5226,6239 5237,6244 5240,6253 5242,6265 5250,6270 5265,6271 5277,6271 5289,6269 5295,6274 5301,6281 5307,6284 5321,6284 5330,6284 5331,6293 5332,6301 5334,6311 5337,6315 5343,6325 5337,6328 5310,6334 5300,6333 5280,6318 5270,6310 5262,6317 5243,6322 5227,6327 5219,6327 5212,6325 5197,6327 5183,6345 5169,6348 5150,6352 5139,6355 5133,6364 5127,6373 5115,6377 5103,6385 5098,6395 5100,6407 5100,6419 5090,6429 5072,6434 5067,6428 5062,6421 5062,6407 5064,6386 5065,6355 5069,6334 5068,6322 5066,6314 5049,6314 5033,6313 5023,6302 5012,6274 5006,6256 5004,6244 5004,6224 5013,6198 5019,6173 5026,6152 5035,6115 5049,6113 5079,6107 5109,6100 5128,6091 5144,6082 5145,6079 5154,6083 " class="polyStyle" id="210103" style="fill:#f6f67b"/>
<polygon points="4621,6046 4640,6058 4655,6073 4663,6077 4690,6091 4728,6102 4766,6109 4797,6114 4825,6120 4863,6128 4893,6133 4919,6139 4937,6142 4931,6156 4916,6169 4905,6179 4884,6201 4861,6227 4842,6253 4827,6274 4819,6292 4802,6319 4788,6345 4775,6368 4767,6386 4757,6406 4734,6400 4688,6388 4658,6378 4616,6365 4566,6352 4536,6338 4509,6325 4493,6308 4476,6276 4474,6218 4476,6179 4479,6138 4479,6101 4483,6063 4490,6049 4503,6032 4523,6029 4540,6027 4570,6025 4588,6023 4602,6034 " class="polyStyle" id="210106" style="fill:#fbe6ef"/>
<polygon points="5314,5948 5346,5957 5375,5960 5386,5969 5375,5982 5367,5982 5361,5984 5364,5998 5372,5998 5382,5989 5397,5973 5410,5963 5417,5960 5430,5960 5441,5964 5459,5970 5484,5983 5514,5989 5536,5993 5557,5999 5570,6009 5572,6018 5559,6024 5521,6039 5495,6050 5499,6069 5486,6075 5491,6084 5479,6083 5461,6087 5457,6092 5465,6103 5471,6110 5466,6113 5457,6112 5450,6114 5454,6125 5467,6133 5485,6147 5490,6158 5491,6173 5490,6185 5490,6193 5482,6189 5474,6184 5464,6179 5458,6182 5468,6194 5483,6207 5490,6214 5490,6224 5480,6240 5470,6264 5464,6274 5465,6285 5454,6292 5444,6290 5439,6282 5437,6278 5427,6280 5414,6285 5399,6300 5388,6319 5377,6323 5364,6319 5355,6320 5343,6325 5337,6315 5334,6311 5332,6301 5331,6293 5330,6284 5321,6284 5307,6284 5301,6281 5295,6274 5289,6269 5277,6271 5265,6271 5250,6270 5242,6265 5240,6253 5237,6244 5226,6239 5216,6234 5216,6211 5214,6196 5211,6186 5196,6183 5175,6180 5151,6180 5137,6178 5134,6165 5145,6150 5150,6128 5149,6115 5149,6103 5154,6094 5154,6083 5145,6079 5171,6063 5196,6046 5222,6028 5237,6010 5245,5985 5253,5965 5259,5940 5271,5939 5290,5945 " class="polyStyle" id="210104" style="fill:#fbe6ef"/>
<polygon points="5148,5772 5156,5774 5156,5792 5151,5830 5143,5870 5139,5899 5133,5914 5123,5919 5105,5924 5083,5924 5082,5951 5084,5983 5091,5989 5122,5988 5125,6000 5136,6015 5145,6025 5137,6036 5104,6036 5105,6045 5112,6056 5121,6066 5132,6078 5142,6078 5145,6079 5144,6082 5128,6091 5109,6100 5079,6107 5049,6113 5035,6115 5017,6118 4996,6126 4972,6135 4954,6140 4937,6142 4919,6139 4893,6133 4863,6128 4825,6120 4797,6114 4766,6109 4728,6102 4690,6091 4663,6077 4663,6063 4665,6040 4673,6028 4680,6019 4683,6018 4694,6029 4709,6040 4724,6043 4736,6047 4748,6035 4736,6027 4720,6013 4704,5998 4694,5983 4686,5972 4679,5963 4703,5952 4691,5937 4691,5927 4699,5920 4705,5909 4718,5899 4729,5894 4738,5894 4746,5902 4753,5917 4758,5924 4794,5908 4805,5910 4818,5923 4833,5960 4839,5982 4839,5997 4830,6009 4816,6019 4809,6029 4810,6034 4825,6024 4845,6017 4864,6013 4881,6018 4899,6023 4915,6025 4926,6024 4936,6018 4948,6007 4961,5995 4969,5988 4981,5988 4986,5980 4981,5974 4971,5974 4961,5972 4956,5959 4953,5940 4954,5928 4963,5922 4974,5922 4976,5905 4974,5802 4980,5783 4989,5773 5008,5765 5030,5768 5056,5768 5074,5768 5099,5763 5125,5765 " class="polyStyle" id="210105" style="fill:#ee8b94"/>
<polygon points="5357,5750 5372,5750 5385,5744 5399,5743 5422,5753 5451,5765 5474,5767 5494,5764 5505,5762 5516,5768 5519,5779 5506,5795 5497,5805 5497,5822 5497,5839 5492,5863 5486,5889 5471,5900 5454,5899 5449,5887 5449,5875 5447,5863 5436,5857 5425,5854 5404,5853 5387,5853 5379,5860 5374,5872 5351,5870 5322,5875 5315,5867 5310,5835 5310,5815 5300,5807 5286,5805 5284,5795 5294,5790 5301,5789 5304,5779 5319,5778 5336,5783 5341,5774 5326,5767 5317,5760 5316,5749 5326,5735 5335,5734 5346,5743 " class="polyStyle" id="210104" style="fill:#fbe6ef"/>
<path d="M6368,5376 L6389,5394 L6413,5418 L6425,5419 L6430,5406 L6441,5405 L6460,5417 L6475,5428 L6493,5418 L6516,5411 L6534,5399 L6528,5408 L6530,5422 L6547,5433 L6547,5450 L6513,5471 L6510,5483 L6529,5503 L6543,5522 L6552,5548 L6549,5574 L6562,5586 L6573,5592 L6588,5591 L6602,5590 L6608,5600 L6595,5614 L6572,5625 L6558,5638 L6546,5663 L6537,5673 L6540,5697 L6538,5715 L6509,5727 L6489,5738 L6482,5756 L6499,5773 L6530,5787 L6560,5805 L6589,5807 L6598,5825 L6596,5856 L6591,5879 L6578,5894 L6564,5902 L6547,5915 L6523,5937 L6491,5961 L6463,5978 L6430,5992 L6397,5996 L6365,5998 L6326,6003 L6302,6005 L6282,6010 L6266,6017 L6256,6025 L6256,6035 L6269,6056 L6281,6074 L6298,6104 L6315,6127 L6320,6148 L6311,6159 L6270,6174 L6240,6195 L6228,6214 L6224,6243 L6230,6267 L6247,6277 L6277,6280 L6302,6290 L6325,6287 L6339,6301 L6349,6306 L6369,6311 L6401,6307 L6430,6307 L6459,6311 L6478,6322 L6514,6316 L6542,6311 L6568,6305 L6591,6292 L6618,6278 L6637,6288 L6654,6304 L6674,6294 L6692,6311 L6709,6304 L6712,6289 L6701,6277 L6699,6253 L6679,6233 L6675,6220 L6692,6222 L6710,6222 L6733,6218 L6746,6226 L6765,6234 L6777,6235 L6811,6238 L6828,6261 L6836,6283 L6829,6294 L6809,6289 L6799,6293 L6802,6312 L6795,6324 L6773,6330 L6765,6338 L6782,6348 L6815,6353 L6848,6360 L6855,6363 L6850,6384 L6848,6406 L6846,6428 L6850,6461 L6842,6480 L6838,6496 L6843,6518 L6876,6540 L6890,6556 L6901,6595 L6904,6618 L6936,6631 L6948,6646 L6951,6657 L6950,6668 L6938,6681 L6938,6699 L6913,6738 L6890,6756 L6864,6767 L6855,6787 L6854,6808 L6864,6814 L6876,6807 L6881,6815 L6873,6837 L6856,6868 L6842,6890 L6821,6913 L6794,6931 L6769,6941 L6745,6932 L6729,6933 L6716,6970 L6699,6989 L6668,7009 L6647,7027 L6678,7103 L6682,7104 L6678,7135 L6677,7146 L6667,7160 L6646,7157 L6629,7151 L6616,7139 L6596,7136 L6579,7141 L6539,7155 L6501,7147 L6477,7130 L6447,7127 L6409,7140 L6369,7155 L6339,7163 L6299,7163 L6249,7165 L6206,7152 L6184,7141 L6159,7126 L6135,7131 L6114,7139 L6098,7132 L6080,7125 L6056,7122 L6017,7134 L5988,7144 L5964,7142 L5949,7134 L5928,7122 L5913,7122 L5901,7132 L5897,7145 L5880,7139 L5861,7130 L5830,7105 L5831,7087 L5816,7082 L5805,7074 L5813,7067 L5806,7055 L5763,7032 L5740,7032 L5721,7050 L5706,7064 L5690,7061 L5676,7048 L5646,7034 L5624,7026 L5604,7026 L5584,7048 L5564,7072 L5547,7102 L5523,7116 L5499,7115 L5486,7102 L5466,7102 L5447,7116 L5418,7137 L5385,7154 L5349,7165 L5312,7165 L5276,7158 L5242,7148 L5221,7125 L5211,7098 L5196,7076 L5161,7057 L5102,7048 L5056,7046 L5014,7045 L4972,7036 L4945,7031 L4934,7032 L4922,7037 L4905,7053 L4894,7057 L4875,7052 L4871,7040 L4880,7022 L4879,7009 L4864,7003 L4819,6991 L4764,6971 L4762,6962 L4771,6930 L4775,6911 L4795,6904 L4821,6892 L4850,6875 L4869,6867 L4903,6804 L4926,6750 L4926,6730 L4902,6718 L4876,6717 L4859,6726 L4843,6743 L4814,6785 L4784,6785 L4746,6770 L4685,6730 L4683,6718 L4688,6699 L4690,6684 L4688,6666 L4673,6657 L4655,6645 L4647,6650 L4656,6664 L4654,6685 L4649,6706 L4641,6723 L4628,6738 L4609,6747 L4577,6749 L4544,6746 L4514,6746 L4492,6734 L4486,6713 L4496,6695 L4521,6655 L4538,6629 L4542,6598 L4564,6584 L4586,6568 L4599,6550 L4618,6530 L4636,6504 L4659,6488 L4686,6478 L4721,6469 L4741,6468 L4757,6465 L4787,6452 L4805,6442 L4834,6425 L4855,6414 L4883,6404 L4906,6400 L4937,6402 L4973,6410 L5003,6422 L5029,6434 L5049,6438 L5069,6435 L5072,6434 L5090,6429 L5100,6419 L5100,6407 L5098,6395 L5103,6385 L5115,6377 L5127,6373 L5133,6364 L5139,6355 L5150,6352 L5169,6348 L5183,6345 L5197,6327 L5212,6325 L5219,6327 L5227,6327 L5243,6322 L5262,6317 L5270,6310 L5280,6318 L5300,6333 L5310,6334 L5337,6328 L5343,6325 L5355,6320 L5364,6319 L5377,6323 L5388,6319 L5399,6300 L5414,6285 L5427,6280 L5437,6278 L5439,6282 L5444,6290 L5454,6292 L5465,6285 L5464,6274 L5470,6264 L5480,6240 L5490,6224 L5490,6214 L5483,6207 L5468,6194 L5458,6182 L5464,6179 L5474,6184 L5482,6189 L5490,6193 L5490,6185 L5491,6173 L5490,6158 L5485,6147 L5467,6133 L5454,6125 L5450,6114 L5457,6112 L5466,6113 L5471,6110 L5465,6103 L5457,6092 L5461,6087 L5479,6083 L5491,6084 L5486,6075 L5499,6069 L5495,6050 L5521,6039 L5559,6024 L5572,6018 L5570,6009 L5557,5999 L5536,5993 L5514,5989 L5484,5983 L5459,5970 L5441,5964 L5430,5960 L5417,5960 L5410,5963 L5397,5973 L5382,5989 L5372,5998 L5364,5998 L5361,5984 L5367,5982 L5375,5982 L5386,5969 L5375,5960 L5346,5957 L5314,5948 L5290,5945 L5271,5939 L5259,5940 L5261,5930 L5268,5910 L5271,5886 L5273,5858 L5277,5832 L5267,5825 L5249,5820 L5241,5812 L5240,5803 L5232,5792 L5214,5785 L5204,5774 L5200,5763 L5184,5760 L5162,5754 L5145,5744 L5136,5734 L5146,5707 L5170,5712 L5178,5696 L5195,5698 L5216,5696 L5233,5695 L5236,5682 L5265,5687 L5266,5707 L5295,5717 L5309,5704 L5329,5710 L5332,5687 L5345,5664 L5371,5644 L5391,5636 L5405,5629 L5419,5615 L5426,5613 L5433,5630 L5439,5631 L5453,5622 L5472,5616 L5481,5621 L5486,5639 L5504,5642 L5524,5641 L5539,5639 L5542,5616 L5550,5601 L5564,5599 L5587,5605 L5606,5611 L5623,5613 L5639,5616 L5649,5624 L5659,5619 L5665,5609 L5675,5597 L5691,5586 L5709,5570 L5705,5544 L5709,5531 L5724,5512 L5741,5506 L5756,5503 L5770,5498 L5784,5502 L5805,5513 L5819,5523 L5830,5527 L5835,5523 L5835,5513 L5831,5499 L5832,5485 L5840,5486 L5856,5494 L5879,5477 L5895,5473 L5912,5477 L5936,5477 L5953,5481 L5955,5494 L5967,5504 L5991,5499 L6010,5496 L6024,5488 L6031,5490 L6024,5508 L6036,5511 L6044,5521 L6051,5534 L6069,5537 L6091,5534 L6113,5521 L6133,5505 L6152,5503 L6167,5498 L6173,5484 L6206,5464 L6224,5450 L6248,5439 L6279,5431 L6292,5422 L6304,5403 L6313,5388 L6327,5382 L6343,5383 L6356,5371 L6368,5376z M5326,5735 L5335,5734 L5346,5743 L5357,5750 L5372,5750 L5385,5744 L5399,5743 L5422,5753 L5451,5765 L5474,5767 L5494,5764 L5505,5762 L5516,5768 L5519,5779 L5506,5795 L5497,5805 L5497,5822 L5497,5839 L5492,5863 L5486,5889 L5471,5900 L5454,5899 L5449,5887 L5449,5875 L5447,5863 L5436,5857 L5425,5854 L5404,5853 L5387,5853 L5379,5860 L5374,5872 L5351,5870 L5322,5875 L5315,5867 L5310,5835 L5310,5815 L5300,5807 L5286,5805 L5284,5795 L5294,5790 L5301,5789 L5304,5779 L5319,5778 L5336,5783 L5341,5774 L5326,5767 L5317,5760 L5316,5749 L5326,5735z " class="polyStyle" id="210112" style="fill:#ee8b94"/>
<polygon points="4331,4889 4346,4909 4368,4951 4318,4992 4285,5017 4266,5036 4270,5055 4289,5079 4358,5136 4406,5174 4415,5189 4421,5205 4417,5227 4443,5244 4449,5256 4453,5277 4467,5284 4486,5276 4503,5274 4516,5281 4571,5311 4602,5341 4595,5378 4593,5399 4600,5410 4610,5419 4626,5426 4646,5436 4673,5439 4694,5439 4707,5439 4714,5453 4733,5457 4754,5457 4768,5453 4782,5445 4796,5448 4792,5456 4778,5462 4772,5469 4771,5477 4786,5481 4789,5492 4803,5495 4812,5502 4817,5511 4800,5526 4784,5543 4778,5558 4774,5571 4777,5592 4778,5606 4764,5613 4765,5636 4767,5657 4772,5665 4803,5676 4827,5685 4859,5681 4867,5670 4881,5666 4901,5672 4916,5676 4932,5677 4947,5672 4964,5668 4977,5675 4977,5685 4977,5701 4996,5681 5010,5675 5031,5672 5051,5675 5064,5671 5076,5660 5084,5661 5089,5683 5105,5695 5123,5700 5146,5707 5136,5734 5145,5744 5162,5754 5184,5760 5200,5763 5204,5774 5214,5785 5232,5792 5240,5803 5241,5812 5249,5820 5267,5825 5277,5832 5273,5858 5271,5886 5268,5910 5261,5930 5259,5940 5253,5965 5245,5985 5237,6010 5222,6028 5196,6046 5171,6063 5145,6079 5142,6078 5132,6078 5121,6066 5112,6056 5105,6045 5104,6036 5137,6036 5145,6025 5136,6015 5125,6000 5122,5988 5091,5989 5084,5983 5082,5951 5083,5924 5105,5924 5123,5919 5133,5914 5139,5899 5143,5870 5151,5830 5156,5792 5156,5774 5148,5772 5125,5765 5099,5763 5074,5768 5056,5768 5030,5768 5008,5765 4989,5773 4980,5783 4974,5802 4976,5905 4974,5922 4963,5922 4954,5928 4953,5940 4956,5959 4961,5972 4971,5974 4981,5974 4986,5980 4981,5988 4969,5988 4961,5995 4948,6007 4936,6018 4926,6024 4915,6025 4899,6023 4881,6018 4864,6013 4845,6017 4825,6024 4810,6034 4809,6029 4816,6019 4830,6009 4839,5997 4839,5982 4833,5960 4818,5923 4805,5910 4794,5908 4758,5924 4753,5917 4746,5902 4738,5894 4729,5894 4718,5899 4705,5909 4699,5920 4691,5927 4691,5937 4703,5952 4679,5963 4686,5972 4694,5983 4704,5998 4720,6013 4736,6027 4748,6035 4736,6047 4724,6043 4709,6040 4694,6029 4683,6018 4680,6019 4673,6028 4665,6040 4663,6063 4663,6077 4655,6073 4640,6058 4621,6046 4602,6034 4588,6023 4570,6025 4540,6027 4523,6029 4503,6032 4490,6049 4483,6063 4479,6101 4479,6138 4476,6179 4474,6218 4476,6276 4493,6308 4509,6325 4536,6338 4566,6352 4616,6365 4658,6378 4688,6388 4734,6400 4757,6406 4756,6422 4756,6443 4757,6465 4741,6468 4721,6469 4686,6478 4659,6488 4636,6504 4618,6530 4599,6550 4586,6568 4564,6584 4542,6598 4533,6603 4524,6607 4496,6616 4449,6630 4439,6633 4409,6636 4388,6637 4364,6633 4337,6630 4323,6625 4291,6615 4279,6612 4269,6615 4257,6623 4256,6635 4261,6643 4271,6650 4306,6673 4329,6700 4334,6716 4334,6728 4325,6737 4315,6742 4269,6750 4228,6763 4213,6765 4181,6760 4157,6754 4134,6743 4101,6727 4080,6717 4063,6724 4056,6738 3991,6806 3964,6803 3946,6800 3931,6805 3920,6821 3927,6857 3928,6872 3914,6881 3882,6884 3849,6880 3837,6886 3829,6904 3812,6909 3791,6912 3778,6920 3779,6935 3785,6948 3787,6967 3780,6987 3763,6988 3755,6978 3752,6959 3746,6946 3737,6939 3720,6919 3699,6912 3676,6916 3661,6931 3665,6944 3677,6957 3675,6973 3633,6988 3608,6997 3564,7006 3526,7006 3506,7009 3497,7021 3502,7068 3479,7083 3472,7086 3459,7105 3455,7122 3432,7158 3426,7162 3398,7163 3371,7156 3342,7151 3312,7132 3296,7102 3284,7074 3276,7048 3261,7016 3236,6997 3209,6972 3181,6944 3160,6922 3180,6913 3188,6903 3181,6894 3153,6881 3117,6871 3078,6875 3047,6874 3035,6846 3026,6816 3021,6785 3025,6771 3035,6759 3063,6737 3078,6712 3087,6686 3091,6659 3087,6623 3078,6596 3055,6584 3028,6565 3017,6553 3014,6529 3039,6528 3067,6528 3101,6528 3132,6529 3177,6528 3194,6529 3205,6533 3244,6536 3274,6539 3303,6539 3336,6538 3364,6539 3397,6538 3427,6536 3437,6545 3440,6570 3456,6577 3478,6579 3508,6586 3540,6588 3556,6584 3571,6574 3590,6572 3616,6574 3637,6577 3649,6566 3678,6530 3667,6526 3656,6517 3662,6508 3665,6481 3689,6482 3711,6479 3729,6453 3730,6418 3717,6392 3691,6361 3688,6340 3700,6321 3699,6302 3691,6270 3701,6243 3722,6213 3744,6190 3759,6167 3763,6152 3747,6136 3721,6121 3699,6112 3697,6098 3703,6076 3712,6051 3710,6012 3689,5981 3672,5966 3656,5976 3620,5965 3601,5957 3602,5948 3592,5939 3579,5939 3563,5926 3551,5913 3560,5898 3585,5873 3598,5854 3606,5832 3600,5824 3584,5820 3582,5810 3591,5802 3597,5802 3606,5806 3611,5809 3622,5812 3638,5812 3641,5803 3639,5792 3650,5786 3660,5777 3669,5771 3685,5759 3667,5743 3641,5726 3620,5707 3600,5694 3579,5719 3559,5715 3527,5699 3510,5670 3518,5644 3527,5628 3544,5620 3562,5600 3574,5589 3573,5576 3551,5565 3524,5553 3484,5540 3478,5530 3488,5521 3491,5514 3487,5507 3473,5493 3479,5481 3495,5472 3477,5449 3465,5440 3447,5423 3458,5397 3484,5400 3499,5418 3516,5425 3538,5412 3563,5394 3570,5373 3563,5343 3571,5331 3599,5331 3624,5323 3637,5312 3663,5321 3660,5309 3658,5293 3660,5278 3677,5273 3679,5254 3686,5243 3713,5245 3740,5252 3768,5252 3794,5224 3775,5197 3803,5172 3831,5150 3857,5131 3883,5121 3913,5107 3939,5106 3968,5087 3980,5059 4004,5034 4031,5027 4057,4999 4068,4973 4097,4977 4119,4952 4150,4938 4172,4909 4179,4881 4205,4868 4234,4862 4253,4843 4298,4861 " class="polyStyle" id="210114" style="fill:#f6f67b"/>
<polygon points="5510,4283 5543,4280 5574,4277 5597,4309 5597,4334 5594,4363 5598,4391 5594,4424 5590,4450 5607,4475 5639,4485 5665,4479 5693,4499 5714,4509 5739,4524 5765,4543 5793,4549 5824,4556 5854,4569 5879,4580 5905,4591 5934,4603 5960,4615 5988,4625 6015,4643 6042,4665 6045,4691 6071,4693 6097,4700 6125,4707 6163,4730 6192,4728 6224,4735 6249,4731 6281,4725 6315,4729 6341,4735 6368,4749 6397,4757 6428,4758 6459,4769 6486,4783 6527,4802 6577,4831 6614,4859 6631,4899 6655,4926 6664,4937 6654,4947 6661,4957 6681,4974 6693,4989 6701,4986 6716,4979 6731,4984 6738,4991 6759,4993 6777,5005 6796,5020 6809,5022 6831,5011 6847,4985 6847,4948 6866,4919 6899,4916 6915,4927 6955,4968 6958,4992 6930,5021 6929,5034 6946,5049 6958,5071 6942,5101 6906,5131 6883,5143 6854,5145 6833,5125 6808,5109 6789,5099 6773,5094 6740,5103 6710,5130 6710,5146 6716,5166 6704,5185 6700,5200 6709,5218 6723,5214 6738,5204 6746,5215 6750,5229 6772,5228 6780,5239 6783,5251 6797,5257 6828,5262 6845,5269 6820,5276 6814,5305 6788,5333 6760,5366 6751,5365 6732,5350 6708,5347 6710,5361 6698,5360 6678,5358 6657,5361 6636,5359 6608,5372 6587,5381 6564,5376 6544,5387 6534,5399 6516,5411 6493,5418 6475,5428 6460,5417 6441,5405 6430,5406 6425,5419 6413,5418 6389,5394 6368,5376 6356,5371 6343,5383 6327,5382 6313,5388 6304,5403 6292,5422 6279,5431 6248,5439 6224,5450 6206,5464 6173,5484 6167,5498 6152,5503 6133,5505 6113,5521 6091,5534 6069,5537 6051,5534 6044,5521 6036,5511 6024,5508 6031,5490 6024,5488 6010,5496 5991,5499 5967,5504 5955,5494 5953,5481 5936,5477 5912,5477 5895,5473 5879,5477 5856,5494 5840,5486 5832,5485 5831,5499 5835,5513 5835,5523 5830,5527 5819,5523 5805,5513 5784,5502 5770,5498 5756,5503 5741,5506 5724,5512 5709,5531 5705,5544 5709,5570 5691,5586 5675,5597 5665,5609 5659,5619 5649,5624 5639,5616 5623,5613 5606,5611 5587,5605 5564,5599 5550,5601 5542,5616 5539,5639 5524,5641 5504,5642 5486,5639 5481,5621 5472,5616 5453,5622 5439,5631 5433,5630 5426,5613 5419,5615 5405,5629 5391,5636 5371,5644 5345,5664 5332,5687 5329,5710 5309,5704 5295,5717 5266,5707 5265,5687 5236,5682 5233,5695 5216,5696 5195,5698 5178,5696 5170,5712 5146,5707 5123,5700 5105,5695 5089,5683 5084,5661 5076,5660 5064,5671 5051,5675 5031,5672 5010,5675 4996,5681 4977,5701 4977,5685 4977,5675 4964,5668 4947,5672 4932,5677 4916,5676 4901,5672 4881,5666 4867,5670 4859,5681 4827,5685 4803,5676 4772,5665 4767,5657 4765,5636 4764,5613 4778,5606 4777,5592 4774,5571 4778,5558 4784,5543 4800,5526 4817,5511 4812,5502 4803,5495 4789,5492 4786,5481 4771,5477 4772,5469 4778,5462 4792,5456 4796,5448 4782,5445 4768,5453 4754,5457 4733,5457 4714,5453 4707,5439 4694,5439 4673,5439 4646,5436 4626,5426 4610,5419 4600,5410 4593,5399 4595,5378 4602,5341 4571,5311 4516,5281 4503,5274 4486,5276 4467,5284 4453,5277 4449,5256 4443,5244 4417,5227 4421,5205 4415,5189 4406,5174 4358,5136 4289,5079 4270,5055 4266,5036 4285,5017 4318,4992 4368,4951 4346,4909 4331,4889 4298,4861 4253,4843 4277,4819 4300,4791 4325,4764 4337,4758 4363,4744 4393,4741 4416,4712 4433,4684 4455,4653 4481,4625 4508,4598 4501,4568 4509,4543 4538,4542 4565,4527 4591,4524 4608,4495 4610,4463 4580,4443 4594,4442 4619,4445 4637,4451 4652,4467 4678,4474 4700,4477 4711,4481 4736,4494 4763,4501 4796,4505 4831,4498 4859,4491 4884,4477 4909,4464 4924,4458 4944,4458 4970,4453 4975,4447 4978,4442 4975,4435 4945,4407 4940,4388 4944,4376 4954,4362 4969,4352 4991,4349 5007,4356 5033,4379 5048,4390 5064,4394 5078,4388 5092,4376 5108,4360 5122,4353 5138,4349 5152,4349 5186,4344 5215,4333 5229,4318 5233,4308 5234,4299 5238,4274 5263,4274 5282,4278 5314,4301 5342,4288 5370,4270 5398,4260 5431,4250 5459,4247 5484,4258 " class="polyStyle" id="210113" style="fill:#fbe6ef"/>
<path d="" class="polyStyle" id="230406" style="fill:#d4ecb2"/>
<path d="" class="polyStyle" id="110113" style="fill:#fbe6ef"/>
<path d="" class="polyStyle" id="341702" style="fill:#fbe6ef"/>
<path d="" class="polyStyle" id="420303" style="fill:#ee8b94"/>
<path d="" class="polyStyle" id="340702" style="fill:#d4ecb2"/>
<path d="" class="polyStyle" id="421002" style="fill:#f6f67b"/>
<path d="" class="polyStyle" id="420117" style="fill:#f6f67b"/>
<path d="" class="polyStyle" id="440904" style="fill:#f8c67d"/>
<path d="" class="polyStyle" id="460205" style="fill:#ee8b94"/>
<path d="" class="polyStyle" id="460202" style="fill:#f6f67b"/>
<path d="" class="polyStyle" id="460203" style="fill:#fbe6ef"/>
<path d="" class="polyStyle" id="420304" style="fill:#f6f67b"/>
<path d="" class="polyStyle" id="445302" style="fill:#ee8b94"/>
<path d="" class="polyStyle" id="410202" style="fill:#d4ecb2"/>
<path d="" class="polyStyle" id="440800" style="fill:#f6f67b"/>
<path d="" class="polyStyle" id="440900" style="fill:#ee8b94"/>
<path d="" class="polyStyle" id="340800" style="fill:#ee8b94"/>
<path d="" class="polyStyle" id="460200" style="fill:#f6f67b"/>
<path d="" class="polyStyle" id="460000" style="fill:#ee8b94"/>
<path d="" class="polyStyle" id="450500" style="fill:#ee8b94"/>
<path d="" class="polyStyle" id="450600" style="fill:#ee8b94"/>
<path d="" class="polyStyle" id="440400" style="fill:#f6f67b"/>
<path d="" class="polyStyle" id="441700" style="fill:#f6f67b"/>
<path d="" class="polyStyle" id="441500" style="fill:#f6f67b"/>
<path d="" class="polyStyle" id="350600" style="fill:#ee8b94"/>
<path d="" class="polyStyle" id="710000" style="fill:#f6f67b"/>
<path d="" class="polyStyle" id="510400" style="fill:#f6f67b"/>
<path d="" class="polyStyle" id="522600" style="fill:#fbe6ef"/>
<path d="" class="polyStyle" id="520500" style="fill:#ee8b94"/>
<path d="" class="polyStyle" id="431200" style="fill:#f6f67b"/>
<path d="" class="polyStyle" id="430600" style="fill:#f6f67b"/>
<path d="" class="polyStyle" id="511400" style="fill:#d4ecb2"/>
<path d="" class="polyStyle" id="421000" style="fill:#ee8b94"/>
<path d="" class="polyStyle" id="341700" style="fill:#f6f67b"/>
<path d="" class="polyStyle" id="420500" style="fill:#f6f67b"/>
<path d="" class="polyStyle" id="511300" style="fill:#f6f67b"/>
<path d="" class="polyStyle" id="420900" style="fill:#f6f67b"/>
<path d="" class="polyStyle" id="511700" style="fill:#ee8b94"/>
<path d="" class="polyStyle" id="420600" style="fill:#d4ecb2"/>
<path d="" class="polyStyle" id="411500" style="fill:#fbe6ef"/>
<path d="" class="polyStyle" id="510800" style="fill:#ee8b94"/>
<path d="" class="polyStyle" id="420300" style="fill:#fbe6ef"/>
<path d="" class="polyStyle" id="611000" style="fill:#ee8b94"/>
<path d="" class="polyStyle" id="620800" style="fill:#fbe6ef"/>
<path d="" class="polyStyle" id="370200" style="fill:#ee8b94"/>
<path d="" class="polyStyle" id="371000" style="fill:#f6f67b"/>
<path d="" class="polyStyle" id="370600" style="fill:#fbe6ef"/>
<path d="" class="polyStyle" id="120000" style="fill:#f6f67b"/>
<path d="" class="polyStyle" id="130200" style="fill:#ee8b94"/>
<path d="" class="polyStyle" id="130300" style="fill:#f6f67b"/>
<path d="" class="polyStyle" id="652900" style="fill:#fbe6ef"/>
<path d="" class="polyStyle" id="150500" style="fill:#d4ecb2"/>
<path d="" class="polyStyle" id="" style="fill:#d4ecb2"/>
<path d="" class="polyStyle" id="350500" style="fill:#fbe6ef"/>
<path d="" class="polyStyle" id="440400" style="fill:#f6f67b"/>
<path d="" class="polyStyle" id="421100" style="fill:#d4ecb2"/>
<path d="" class="polyStyle" id="420100" style="fill:#fbe6ef"/>
<path d="" class="polyStyle" id="532500" style="fill:#fbe6ef"/>
<path d="" class="polyStyle" id="654200" style="fill:#fbe6ef"/>
<path d="" class="polyStyle" id="210700" style="fill:#d4ecb2"/>
<path d="" class="polyStyle" id="522300" style="fill:#fbe6ef"/>
<path d="" class="polyStyle" id="" style="fill:#ee8b94"/>
<path d="" class="polyStyle" id="440400" style="fill:#f6f67b"/>
<path d="" class="polyStyle" id="620000" style="fill:#f6f67b"/>
<path d="" class="polyStyle" id="430000" style="fill:#fbe6ef"/>
<path d="" class="polyStyle" id="420000" style="fill:#ee8b94"/>
<path d="" class="polyStyle" id="410000" style="fill:#f6f67b"/>
<path d="" class="polyStyle" id="350000" style="fill:#fbe6ef"/>
<path d="" class="polyStyle" id="520000" style="fill:#f6f67b"/>
<path d="" class="polyStyle" id="" style="fill:#ee8b94"/>
</svg>
