<?xml version="1.0" encoding="UTF-8"?>
<!DOCTYPE svg PUBLIC "-//W3C//DTD SVG 1.1 Tiny//EN" "http://www.w3.org/Graphics/SVG/1.1/DTD/svg11-tiny.dtd">
<svg version="1.1" xmlns="http://www.w3.org/2000/svg" xmlns:xlink="http://www.w3.org/1999/xlink" width="100%" height="100%" viewBox="0,0,5489,4503">
<title>SVG</title>
<desc>Poligon Test</desc>
<style id="style_css_sheet" type="text/css">
.polyStyle{fill: #cccccc;stroke-width:0;fill-rule:evenodd;}
</style>
<circle cx="3752" cy="927" r="200" stroke="black" stroke-width="1" fill="red" id="211081" name="灯塔市"/>
<circle cx="2543" cy="2032" r="200" stroke="black" stroke-width="1" fill="red" id="211021"position="44" name="辽阳县"/>
<circle cx="2924" cy="1701" r="200" stroke="black" stroke-width="1" fill="red" id="211002" position="44"name="白塔区"/>
<circle cx="3092" cy="2045" r="200" stroke="black" stroke-width="1" fill="red" id="211004"position="1" name="宏伟区"/>
<circle cx="2961" cy="1797" r="200" stroke="black" stroke-width="1" fill="red" id="211011"position="3" name="太子河区"/>
<circle cx="2964" cy="1765" r="200" stroke="black" stroke-width="1" fill="red" id="211003" position="3"name="文圣区"/>
<circle cx="4154" cy="2301" r="200" stroke="black" stroke-width="1" fill="red" id="211005" name="弓长岭区"/>
<path d="" class="polyStyle" id="" style="fill:#ee8b94"/>
<path d="" class="polyStyle" id="623022" style="fill:#fbe6ef"/>
<path d="" class="polyStyle" id="211421" style="fill:#f6f67b"/>
<path d="" class="polyStyle" id="532524" style="fill:#ee8b94"/>
<path d="" class="polyStyle" id="440825" style="fill:#f6f67b"/>
<path d="" class="polyStyle" id="441721" style="fill:#f6f67b"/>
<path d="" class="polyStyle" id="450521" style="fill:#f6f67b"/>
<path d="" class="polyStyle" id="450123" style="fill:#fbe6ef"/>
<path d="" class="polyStyle" id="350624" style="fill:#f6f67b"/>
<path d="" class="polyStyle" id="" style="fill:#fbe6ef"/>
<path d="" class="polyStyle" id="451224" style="fill:#fbe6ef"/>
<path d="" class="polyStyle" id="350627" style="fill:#f6f67b"/>
<path d="" class="polyStyle" id="" style="fill:#f6f67b"/>
<path d="" class="polyStyle" id="350525" style="fill:#f6f67b"/>
<path d="" class="polyStyle" id="530124" style="fill:#ee8b94"/>
<path d="" class="polyStyle" id="522627" style="fill:#ee8b94"/>
<path d="" class="polyStyle" id="510421" style="fill:#fbe6ef"/>
<path d="" class="polyStyle" id="522623" style="fill:#d4ecb2"/>
<path d="" class="polyStyle" id="430321" style="fill:#d4ecb2"/>
<path d="" class="polyStyle" id="511129" style="fill:#d4ecb2"/>
<path d="" class="polyStyle" id="511423" style="fill:#ee8b94"/>
<path d="" class="polyStyle" id="421023" style="fill:#f6f67b"/>
<path d="" class="polyStyle" id="511724" style="fill:#f6f67b"/>
<path d="" class="polyStyle" id="420526" style="fill:#fbe6ef"/>
<path d="" class="polyStyle" id="511923" style="fill:#fbe6ef"/>
<path d="" class="polyStyle" id="420325" style="fill:#fbe6ef"/>
<path d="" class="polyStyle" id="511921" style="fill:#f6f67b"/>
<path d="" class="polyStyle" id="542525" style="fill:#f6f67b"/>
<path d="" class="polyStyle" id="611026" style="fill:#ee8b94"/>
<path d="" class="polyStyle" id="411023" style="fill:#fbe6ef"/>
<path d="" class="polyStyle" id="632323" style="fill:#f6f67b"/>
<path d="" class="polyStyle" id="140525" style="fill:#d4ecb2"/>
<path d="" class="polyStyle" id="410922" style="fill:#ee8b94"/>
<path d="" class="polyStyle" id="621027" style="fill:#ee8b94"/>
<path d="" class="polyStyle" id="130427" style="fill:#f6f67b"/>
<path d="" class="polyStyle" id="130121" style="fill:#ee8b94"/>
<path d="" class="polyStyle" id="610823" style="fill:#fbe6ef"/>
<path d="" class="polyStyle" id="130225" style="fill:#fbe6ef"/>
<path d="" class="polyStyle" id="130322" style="fill:#d4ecb2"/>
<path d="" class="polyStyle" id="653130" style="fill:#f6f67b"/>
<path d="" class="polyStyle" id="130822" style="fill:#fbe6ef"/>
<polygon points="4161,1526 4169,1545 4177,1578 4187,1599 4202,1606 4230,1607 4259,1601 4288,1589 4314,1582 4339,1580 4365,1582 4394,1584 4419,1585 4450,1577 4476,1572 4505,1573 4533,1573 4561,1562 4604,1562 4641,1562 4667,1571 4673,1598 4674,1624 4651,1673 4638,1699 4631,1727 4609,1730 4582,1746 4562,1772 4546,1806 4518,1805 4491,1797 4461,1794 4434,1811 4427,1839 4418,1866 4392,1882 4365,1884 4338,1881 4309,1864 4280,1845 4253,1842 4245,1871 4252,1904 4238,1930 4211,1945 4200,1972 4175,1998 4160,2024 4143,2052 4124,2086 4096,2109 4069,2123 4041,2124 4016,2126 3988,2143 3960,2158 3934,2160 3905,2161 3880,2166 3853,2177 3827,2193 3810,2225 3784,2256 3767,2259 3736,2272 3707,2285 3675,2292 3650,2289 3621,2280 3585,2281 3558,2296 3529,2321 3498,2329 3464,2324 3458,2324 3432,2326 3407,2344 3403,2369 3396,2394 3369,2402 3326,2388 3300,2394 3304,2446 3304,2482 3307,2513 3307,2545 3325,2580 3348,2610 3374,2641 3401,2650 3423,2677 3430,2706 3457,2716 3497,2717 3527,2728 3555,2738 3585,2752 3609,2760 3649,2779 3680,2779 3732,2787 3785,2782 3863,2777 3913,2754 3959,2706 3993,2663 4022,2642 4045,2626 4063,2615 4090,2604 4123,2605 4153,2601 4188,2595 4221,2588 4255,2600 4281,2617 4310,2620 4336,2619 4361,2612 4391,2607 4418,2622 4459,2680 4462,2727 4483,2750 4552,2765 4556,2795 4607,2835 4634,2824 4664,2800 4686,2771 4717,2744 4737,2729 4764,2707 4782,2680 4804,2653 4823,2626 4832,2598 4806,2575 4779,2558 4764,2531 4755,2506 4728,2482 4702,2437 4670,2424 4621,2425 4593,2396 4563,2372 4561,2342 4579,2312 4592,2285 4597,2265 4583,2248 4555,2240 4523,2223 4514,2205 4497,2190 4461,2172 4436,2152 4408,2127 4412,2100 4443,2075 4478,2047 4496,2021 4522,2008 4548,1994 4641,1947 4667,1936 4698,1927 4724,1921 4756,1904 4781,1889 4812,1877 4821,1873 4826,1870 4859,1863 4878,1852 4874,1830 4848,1814 4798,1793 4787,1766 4834,1738 4861,1733 4877,1703 4904,1694 4949,1707 4984,1707 5022,1703 5057,1715 5084,1721 5115,1732 5123,1760 5124,1798 5119,1792 5092,1811 5066,1835 5039,1862 5029,1884 5051,1901 5076,1931 5085,1944 5070,1975 5061,1990 5062,2015 5038,2020 5040,2027 5050,2035 5080,2035 5107,2039 5138,2046 5161,2064 5164,2088 5173,2108 5210,2146 5227,2181 5234,2211 5236,2237 5239,2257 5272,2262 5291,2276 5312,2297 5321,2306 5360,2343 5358,2369 5337,2394 5317,2423 5312,2451 5307,2480 5304,2509 5312,2537 5325,2566 5343,2594 5353,2624 5375,2650 5398,2673 5423,2691 5437,2708 5468,2734 5489,2756 5482,2783 5460,2813 5426,2828 5392,2838 5365,2846 5341,2941 5308,2975 5302,3005 5301,3040 5308,3083 5307,3124 5308,3152 5313,3182 5314,3189 5318,3210 5322,3230 5327,3252 5337,3285 5331,3311 5309,3341 5304,3368 5284,3397 5258,3413 5232,3429 5203,3450 5184,3477 5171,3509 5170,3537 5154,3564 5138,3589 5123,3617 5109,3657 5095,3686 5068,3711 5041,3722 5015,3733 4993,3760 4993,3764 4966,3768 4938,3770 4901,3771 4865,3763 4821,3754 4793,3748 4789,3774 4798,3808 4805,3837 4796,3863 4795,3892 4767,3909 4753,3930 4736,3925 4708,3930 4681,3944 4654,3969 4629,3983 4603,3986 4574,3990 4546,3998 4505,4006 4476,3990 4449,3989 4419,4001 4392,4010 4363,4021 4338,4032 4301,4042 4272,4057 4243,4056 4217,4046 4188,4038 4161,4031 4133,4023 4106,4031 4079,4058 4052,4085 4045,4124 4019,4154 3988,4164 3959,4189 3932,4176 3905,4172 3871,4175 3839,4184 3811,4200 3785,4219 3757,4209 3729,4202 3683,4206 3635,4216 3606,4215 3571,4225 3547,4251 3518,4266 3491,4281 3464,4306 3439,4318 3413,4319 3384,4322 3354,4331 3349,4364 3325,4393 3300,4394 3271,4389 3246,4390 3219,4398 3190,4382 3161,4385 3134,4397 3107,4422 3080,4437 3046,4444 3017,4447 2989,4457 2960,4477 2946,4503 2919,4494 2893,4471 2868,4454 2840,4439 2809,4454 2783,4452 2752,4462 2726,4475 2721,4462 2694,4440 2665,4417 2653,4392 2627,4381 2594,4376 2568,4380 2537,4367 2536,4340 2522,4312 2495,4295 2467,4281 2440,4260 2413,4232 2402,4201 2398,4173 2395,4145 2416,4119 2432,4091 2458,4064 2485,4058 2514,4052 2524,4026 2527,3998 2553,3989 2569,3963 2555,3932 2528,3916 2501,3912 2472,3910 2443,3902 2410,3880 2384,3877 2349,3896 2323,3883 2296,3872 2283,3847 2311,3812 2310,3782 2285,3763 2259,3739 2285,3717 2296,3690 2300,3662 2327,3645 2357,3626 2368,3599 2403,3584 2406,3552 2383,3526 2377,3498 2374,3480 2352,3466 2347,3450 2351,3448 2376,3446 2424,3431 2439,3447 2456,3444 2475,3416 2500,3396 2522,3391 2536,3397 2550,3398 2550,3370 2535,3360 2518,3341 2516,3318 2510,3297 2492,3276 2472,3257 2470,3239 2476,3216 2506,3203 2530,3196 2538,3173 2547,3163 2567,3163 2590,3158 2599,3138 2608,3128 2636,3125 2670,3116 2695,3113 2720,3111 2748,3132 2774,3143 2809,3146 2840,3147 2871,3138 2896,3127 2923,3117 2950,3109 2993,3119 3006,3131 3023,3121 3014,3094 3014,3073 3036,3060 3068,3041 3082,3024 3113,2982 3110,2963 3084,2932 3057,2898 3062,2879 3090,2860 3152,2840 3193,2829 3226,2821 3231,2806 3210,2797 3194,2773 3193,2758 3202,2739 3222,2724 3200,2714 3174,2701 3149,2682 3124,2677 3099,2665 3099,2652 3107,2633 3121,2616 3120,2599 3112,2578 3109,2563 3089,2564 3066,2566 3049,2552 3014,2549 3000,2540 2987,2532 2971,2537 2949,2556 2919,2567 2892,2572 2872,2565 2849,2548 2829,2533 2807,2541 2784,2551 2764,2537 2765,2525 2786,2516 2784,2488 2778,2461 2771,2443 2768,2427 2779,2413 2794,2403 2785,2390 2766,2378 2762,2365 2774,2352 2792,2346 2791,2331 2794,2319 2799,2289 2785,2277 2763,2276 2746,2266 2721,2241 2703,2227 2693,2195 2705,2178 2722,2159 2734,2149 2748,2142 2763,2138 2769,2129 2757,2131 2754,2126 2758,2117 2768,2107 2769,2092 2782,2087 2792,2081 2787,2064 2773,2049 2783,2046 2793,2038 2797,2014 2798,2005 2800,1996 2812,1989 2837,1992 2855,1996 2863,1986 2873,1976 2875,1984 2884,1971 2889,1959 2903,1947 2917,1933 2924,1926 2942,1934 2954,1943 2960,1951 2957,1961 2964,1967 2952,1986 2942,1984 2934,1991 2934,2002 2947,2011 2957,2023 2960,2033 2950,2033 2945,2041 2955,2054 2973,2066 2987,2078 2999,2091 3019,2107 3032,2121 3032,2136 3033,2149 3035,2157 3044,2162 3054,2171 3065,2176 3078,2169 3088,2164 3095,2167 3103,2181 3120,2211 3127,2228 3134,2239 3148,2253 3150,2271 3158,2288 3167,2296 3179,2294 3194,2283 3208,2274 3227,2268 3247,2268 3258,2258 3260,2243 3253,2237 3265,2237 3285,2232 3294,2222 3304,2208 3309,2198 3305,2187 3307,2166 3313,2167 3323,2174 3333,2179 3348,2184 3363,2182 3378,2171 3390,2156 3394,2144 3395,2126 3400,2108 3413,2093 3429,2088 3443,2079 3444,2067 3435,2063 3415,2054 3422,2051 3435,2049 3455,2049 3474,2049 3494,2042 3507,2029 3509,2016 3503,1988 3490,1969 3483,1947 3483,1936 3487,1923 3485,1903 3489,1883 3491,1877 3492,1874 3504,1874 3519,1874 3533,1878 3543,1883 3558,1886 3583,1877 3592,1862 3604,1846 3615,1836 3632,1823 3647,1809 3662,1792 3682,1778 3697,1757 3710,1739 3722,1729 3730,1717 3725,1699 3717,1664 3713,1656 3742,1646 3766,1637 3786,1635 3815,1643 3827,1639 3822,1624 3817,1600 3828,1575 3838,1566 3848,1551 3865,1542 3885,1540 3914,1559 3931,1593 3945,1621 3974,1637 4011,1630 4011,1609 4002,1581 3996,1549 4002,1537 4009,1525 4031,1518 4069,1508 4102,1502 4117,1502 4147,1515 " class="polyStyle" id="211021" style="fill:#ee8b94"/>
<polygon points="1376,952 1377,965 1387,979 1398,986 1413,984 1441,967 1462,943 1534,954 1572,984 1604,1009 1663,1020 1687,1031 1703,1056 1707,1098 1699,1131 1689,1150 1721,1162 1783,1159 1837,1149 1837,1160 1854,1188 1868,1213 1889,1230 1907,1233 1928,1223 1962,1204 1983,1200 1999,1209 2007,1224 2003,1250 1989,1271 1983,1289 1982,1299 1997,1304 2006,1299 2053,1264 2092,1259 2128,1271 2159,1273 2197,1267 2227,1259 2231,1244 2220,1233 2217,1218 2216,1202 2222,1189 2244,1183 2268,1191 2283,1216 2300,1238 2313,1255 2340,1262 2362,1265 2381,1287 2395,1300 2422,1304 2425,1289 2423,1278 2418,1265 2420,1246 2424,1232 2437,1220 2460,1215 2474,1218 2486,1225 2507,1245 2512,1249 2543,1277 2571,1281 2596,1264 2620,1244 2652,1245 2671,1250 2679,1256 2690,1282 2728,1289 2768,1315 2790,1329 2789,1358 2780,1379 2769,1391 2759,1404 2756,1411 2760,1418 2775,1434 2765,1443 2771,1454 2738,1471 2725,1463 2703,1472 2684,1476 2669,1477 2655,1471 2639,1461 2624,1458 2595,1459 2568,1464 2554,1468 2561,1478 2536,1487 2510,1494 2489,1498 2470,1492 2446,1486 2428,1479 2411,1482 2388,1491 2368,1499 2370,1506 2383,1523 2384,1533 2374,1536 2356,1544 2346,1554 2340,1568 2346,1576 2373,1586 2386,1589 2388,1598 2364,1617 2358,1618 2346,1611 2338,1606 2329,1608 2319,1621 2315,1639 2320,1651 2331,1663 2329,1672 2324,1677 2333,1684 2336,1691 2333,1701 2339,1704 2345,1693 2353,1697 2368,1709 2386,1719 2399,1728 2413,1728 2419,1722 2426,1717 2438,1719 2453,1723 2469,1722 2476,1723 2476,1732 2468,1742 2474,1747 2488,1744 2503,1743 2500,1749 2500,1758 2509,1761 2524,1762 2538,1764 2538,1771 2544,1782 2555,1789 2565,1788 2579,1788 2586,1794 2623,1816 2649,1836 2639,1849 2629,1842 2619,1838 2613,1841 2606,1844 2603,1858 2594,1862 2576,1867 2558,1874 2545,1886 2539,1898 2546,1904 2553,1913 2546,1917 2534,1918 2528,1922 2533,1929 2538,1938 2534,1944 2533,1953 2539,1958 2549,1964 2555,1972 2556,1984 2564,1988 2579,1989 2604,1994 2621,2003 2628,2016 2634,2031 2639,2043 2648,2057 2654,2066 2659,2076 2654,2087 2643,2106 2631,2121 2626,2134 2609,2134 2584,2150 2553,2161 2522,2162 2486,2154 2460,2149 2436,2143 2405,2142 2378,2144 2359,2140 2365,2125 2352,2119 2340,2107 2343,2093 2358,2077 2354,2067 2367,2054 2347,2061 2331,2061 2326,2049 2314,2037 2291,2032 2263,2019 2243,2022 2231,2031 2218,2036 2200,2037 2189,2035 2180,2028 2158,2033 2153,2048 2134,2049 2134,2061 2130,2073 2116,2077 2110,2096 2099,2105 2082,2116 2054,2117 2033,2123 2015,2121 2007,2121 1996,2112 1998,2099 1999,2089 1989,2076 1986,2063 1975,2056 1955,2050 1935,2046 1919,2049 1905,2062 1887,2090 1871,2092 1870,2108 1855,2106 1851,2097 1844,2091 1837,2109 1824,2109 1819,2099 1803,2099 1785,2096 1774,2081 1754,2087 1747,2086 1743,2076 1731,2080 1711,2088 1689,2082 1672,2089 1649,2092 1637,2103 1626,2107 1618,2103 1611,2092 1602,2086 1593,2095 1576,2115 1549,2150 1550,2168 1542,2191 1524,2200 1497,2213 1478,2218 1453,2208 1432,2202 1412,2218 1400,2231 1403,2243 1425,2249 1435,2271 1427,2285 1399,2298 1396,2316 1379,2327 1366,2335 1344,2338 1327,2339 1316,2357 1329,2363 1323,2382 1308,2396 1305,2413 1320,2426 1327,2446 1329,2468 1339,2481 1326,2490 1313,2495 1299,2501 1282,2511 1264,2530 1251,2553 1237,2553 1224,2564 1214,2577 1208,2602 1201,2625 1191,2629 1187,2639 1180,2640 1167,2643 1160,2626 1150,2618 1135,2622 1102,2615 1096,2605 1097,2590 1083,2586 1071,2591 1052,2585 1052,2566 1047,2556 1037,2558 1026,2570 1013,2567 997,2572 969,2553 959,2551 942,2556 916,2561 887,2557 857,2555 851,2547 860,2536 837,2529 810,2525 743,2514 712,2510 686,2505 659,2498 629,2489 602,2483 565,2478 538,2466 490,2447 473,2414 477,2378 435,2378 388,2355 359,2337 334,2329 297,2314 251,2279 222,2248 173,2199 135,2191 109,2190 83,2192 50,2200 -1,2174 0,2158 2,2153 6,2150 11,2147 19,2144 33,2150 47,2155 58,2154 67,2149 73,2142 64,2126 47,2099 45,2082 55,2069 71,2060 103,2051 117,2048 129,2048 161,2055 190,2047 211,2038 223,2021 233,2004 249,1996 278,1993 290,2000 322,1997 352,1985 379,1966 397,1941 383,1903 384,1877 387,1839 393,1816 400,1809 426,1780 428,1773 437,1747 447,1736 463,1732 489,1723 507,1714 514,1706 529,1679 537,1661 546,1652 575,1639 573,1625 562,1599 546,1572 550,1546 560,1541 586,1526 596,1504 611,1500 636,1504 652,1501 665,1492 670,1482 659,1467 634,1454 635,1445 643,1440 669,1440 707,1439 715,1432 718,1418 726,1406 744,1402 755,1400 772,1408 786,1409 798,1407 801,1398 785,1381 780,1369 789,1356 789,1331 788,1311 802,1293 822,1279 830,1265 849,1238 875,1220 894,1211 902,1225 897,1242 901,1250 912,1254 927,1245 953,1225 979,1221 1009,1224 1035,1219 1064,1192 1081,1187 1092,1191 1117,1192 1145,1183 1171,1177 1196,1172 1223,1170 1247,1168 1262,1154 1266,1138 1273,1125 1299,1098 1306,1073 1308,1048 1306,1015 1302,986 1303,973 1318,958 1349,942 1367,935 1375,939 " class="polyStyle" id="211021" style="fill:#ee8b94"/>
<path d="" class="polyStyle" id="211221" style="fill:#f6f67b"/>
<path d="" class="polyStyle" id="210921" style="fill:#f6f67b"/>
<path d="" class="polyStyle" id="150223" style="fill:#f8c67d"/>
<path d="" class="polyStyle" id="220422" style="fill:#d4ecb2"/>
<path d="" class="polyStyle" id="340721" style="fill:#f6f67b"/>
<path d="" class="polyStyle" id="510824" style="fill:#d4ecb2"/>
<path d="" class="polyStyle" id="610324" style="fill:#f6f67b"/>
<path d="" class="polyStyle" id="530722" style="fill:#ee8b94"/>
<path d="" class="polyStyle" id="340823" style="fill:#d4ecb2"/>
<path d="" class="polyStyle" id="620825" style="fill:#d4ecb2"/>
<path d="" class="polyStyle" id="421125" style="fill:#ee8b94"/>
<path d="" class="polyStyle" id="210281" style="fill:#ee8b94"/>
<path d="" class="polyStyle" id="440883" style="fill:#f6f67b"/>
<path d="" class="polyStyle" id="469006" style="fill:#d4ecb2"/>
<path d="" class="polyStyle" id="469002" style="fill:#ee8b94"/>
<path d="" class="polyStyle" id="469005" style="fill:#fbe6ef"/>
<path d="" class="polyStyle" id="440882" style="fill:#ee8b94"/>
<path d="" class="polyStyle" id="450681" style="fill:#ee8b94"/>
<path d="" class="polyStyle" id="441581" style="fill:#d4ecb2"/>
<path d="" class="polyStyle" id="421087" style="fill:#ee8b94"/>
<path d="" class="polyStyle" id="420984" style="fill:#fbe6ef"/>
<path d="" class="polyStyle" id="420582" style="fill:#ee8b94"/>
<path d="" class="polyStyle" id="370282" style="fill:#f6f67b"/>
<path d="" class="polyStyle" id="371083" style="fill:#f6f67b"/>
<path d="" class="polyStyle" id="371082" style="fill:#fbe6ef"/>
<polygon points="2678,57 2661,83 2644,113 2619,139 2601,166 2610,192 2634,220 2644,255 2665,288 2696,318 2722,338 2756,352 2788,359 2822,357 2853,345 2884,331 2911,319 2941,311 2975,299 3001,278 3036,259 3061,258 3089,260 3116,263 3152,266 3184,264 3212,295 3232,324 3261,345 3291,358 3325,362 3365,363 3400,363 3427,369 3440,401 3469,428 3497,430 3525,447 3554,456 3588,452 3592,452 3606,460 3621,476 3649,501 3665,511 3684,516 3707,519 3713,513 3718,491 3724,482 3738,485 3765,495 3797,499 3817,498 3829,496 3848,493 3855,496 3857,500 3857,507 3846,517 3845,525 3851,529 3859,528 3874,520 3887,518 3920,521 3931,518 3939,510 3951,512 3954,522 3950,535 3980,571 3989,572 4003,564 4012,565 4015,569 4025,580 4036,579 4044,575 4075,558 4087,557 4098,560 4103,566 4103,570 4097,581 4100,593 4111,605 4126,615 4134,617 4151,616 4153,619 4145,629 4145,637 4150,641 4178,641 4186,651 4186,671 4181,691 4184,696 4201,699 4214,702 4243,703 4269,708 4298,715 4324,721 4350,732 4386,723 4411,711 4441,698 4473,681 4500,662 4529,651 4561,640 4587,643 4614,641 4645,638 4672,610 4700,600 4729,622 4755,639 4785,642 4813,631 4843,621 4877,605 4906,588 4936,571 4966,569 4999,586 5005,585 5014,604 5035,615 5054,622 5058,638 5062,656 5079,665 5103,667 5120,674 5140,698 5129,719 5122,734 5133,741 5149,737 5185,736 5214,733 5248,726 5275,730 5291,726 5301,730 5300,743 5299,757 5310,771 5317,783 5333,813 5346,840 5343,865 5313,881 5300,897 5291,926 5276,956 5251,978 5239,1008 5271,1067 5291,1099 5303,1132 5300,1157 5313,1183 5321,1213 5316,1249 5316,1274 5320,1307 5332,1333 5331,1358 5320,1386 5323,1412 5353,1442 5355,1470 5351,1501 5355,1528 5355,1531 5355,1545 5342,1563 5328,1573 5332,1603 5333,1621 5362,1638 5377,1657 5374,1679 5378,1703 5397,1720 5407,1732 5398,1752 5369,1767 5344,1782 5317,1792 5286,1805 5273,1811 5261,1831 5232,1837 5200,1841 5170,1837 5141,1821 5124,1798 5123,1760 5115,1732 5084,1721 5057,1715 5022,1703 4984,1707 4949,1707 4904,1694 4877,1703 4861,1733 4834,1738 4787,1766 4798,1793 4848,1814 4874,1830 4878,1852 4859,1863 4826,1870 4821,1873 4812,1877 4806,1864 4775,1848 4749,1824 4746,1797 4735,1765 4703,1769 4663,1759 4650,1727 4640,1726 4631,1727 4638,1699 4651,1673 4674,1624 4673,1598 4667,1571 4641,1562 4604,1562 4561,1562 4533,1573 4505,1573 4476,1572 4450,1577 4419,1585 4394,1584 4365,1582 4339,1580 4314,1582 4288,1589 4259,1601 4230,1607 4202,1606 4187,1599 4177,1578 4169,1545 4161,1526 4147,1515 4117,1502 4102,1502 4069,1508 4031,1518 4009,1525 4002,1537 3996,1549 4002,1581 4011,1609 4011,1630 3974,1637 3945,1621 3931,1593 3914,1559 3885,1540 3865,1542 3848,1551 3838,1566 3828,1575 3817,1600 3822,1624 3827,1639 3815,1643 3786,1635 3766,1637 3742,1646 3713,1656 3710,1648 3695,1631 3694,1611 3697,1584 3695,1567 3684,1553 3672,1544 3677,1534 3674,1523 3663,1512 3650,1513 3652,1501 3647,1488 3637,1491 3625,1497 3613,1503 3602,1503 3587,1499 3565,1489 3554,1486 3543,1484 3534,1492 3532,1508 3523,1522 3507,1529 3482,1527 3460,1523 3444,1519 3420,1513 3399,1513 3384,1507 3395,1499 3389,1483 3380,1479 3343,1492 3315,1504 3305,1498 3304,1484 3308,1471 3304,1460 3296,1461 3286,1464 3270,1474 3249,1474 3221,1475 3210,1466 3195,1463 3178,1460 3166,1445 3146,1427 3123,1414 3093,1407 3057,1406 3022,1398 2991,1382 2961,1372 2932,1380 2903,1385 2873,1387 2852,1383 2838,1373 2803,1337 2790,1329 2768,1315 2728,1289 2690,1282 2679,1256 2671,1250 2652,1245 2620,1244 2596,1264 2571,1281 2543,1277 2512,1249 2507,1245 2486,1225 2474,1218 2460,1215 2437,1220 2424,1232 2420,1246 2418,1265 2423,1278 2425,1289 2422,1304 2395,1300 2381,1287 2362,1265 2340,1262 2313,1255 2300,1238 2283,1216 2268,1191 2244,1183 2222,1189 2216,1202 2217,1218 2220,1233 2231,1244 2227,1259 2197,1267 2159,1273 2128,1271 2092,1259 2053,1264 2006,1299 1997,1304 1982,1299 1983,1289 1989,1271 2003,1250 2007,1224 1999,1209 1983,1200 1962,1204 1928,1223 1907,1233 1889,1230 1868,1213 1854,1188 1837,1160 1837,1149 1783,1159 1721,1162 1689,1150 1699,1131 1707,1098 1703,1056 1687,1031 1663,1020 1604,1009 1572,984 1534,954 1462,943 1464,941 1483,921 1495,912 1512,910 1544,906 1562,899 1572,887 1582,861 1606,832 1624,807 1687,743 1704,725 1718,706 1725,675 1733,655 1741,646 1766,636 1804,629 1834,605 1854,553 1860,538 1875,523 1886,512 1905,505 1965,503 2005,494 2045,481 2081,506 2105,526 2138,526 2161,513 2180,495 2211,446 2221,418 2227,400 2233,375 2241,350 2253,325 2273,307 2292,299 2315,295 2336,295 2366,291 2393,285 2438,258 2448,244 2450,232 2447,217 2451,203 2460,190 2474,164 2481,138 2481,122 2474,110 2464,95 2463,88 2469,80 2478,77 2503,80 2519,82 2530,79 2543,71 2559,58 2578,31 2583,19 2591,6 2621,2 2647,1 2673,0 2701,0 2700,31 " class="polyStyle" id="211081" style="fill:#f6f67b"/>
<path d="" class="polyStyle" id="652801" style="fill:#f8c67d"/>
<path d="" class="polyStyle" id="654301" style="fill:#ee8b94"/>
<path d="" class="polyStyle" id="370687" style="fill:#ee8b94"/>
<path d="" class="polyStyle" id="371482" style="fill:#d4ecb2"/>
<path d="" class="polyStyle" id="421081" style="fill:#fbe6ef"/>
<path d="" class="polyStyle" id="429006" style="fill:#f6f67b"/>
<path d="" class="polyStyle" id="440982" style="fill:#d4ecb2"/>
<path d="" class="polyStyle" id="421181" style="fill:#d4ecb2"/>
<path d="" class="polyStyle" id="321181" style="fill:#d4ecb2"/>
<path d="" class="polyStyle" id="659007" style="fill:#ee8b94"/>
<path d="" class="polyStyle" id="652701" style="fill:#fbe6ef"/>
<path d="" class="polyStyle" id="210781" style="fill:#fbe6ef"/>
<path d="" class="polyStyle" id="460204" style="fill:#f6f67b"/>
<path d="" class="polyStyle" id="210211" style="fill:#f6f67b"/>
<path d="" class="polyStyle" id="450512" style="fill:#ee8b94"/>
<path d="" class="polyStyle" id="450602" style="fill:#fbe6ef"/>
<path d="" class="polyStyle" id="440404" style="fill:#ee8b94"/>
<path d="" class="polyStyle" id="440403" style="fill:#f6f67b"/>
<path d="" class="polyStyle" id="441502" style="fill:#f6f67b"/>
<path d="" class="polyStyle" id="431002" style="fill:#d4ecb2"/>
<path d="" class="polyStyle" id="500107" style="fill:#fbe6ef"/>
<path d="" class="polyStyle" id="430611" style="fill:#d4ecb2"/>
<path d="" class="polyStyle" id="511304" style="fill:#fbe6ef"/>
<path d="" class="polyStyle" id="340711" style="fill:#ee8b94"/>
<path d="" class="polyStyle" id="320118" style="fill:#f6f67b"/>
<path d="" class="polyStyle" id="510704" style="fill:#f6f67b"/>
<path d="" class="polyStyle" id="411502" style="fill:#ee8b94"/>
<path d="" class="polyStyle" id="320302" style="fill:#d4ecb2"/>
<path d="" class="polyStyle" id="140311" style="fill:#ee8b94"/>
<path d="" class="polyStyle" id="610802" style="fill:#ee8b94"/>
<path d="" class="polyStyle" id="120116" style="fill:#f6f67b"/>
<path d="" class="polyStyle" id="130303" style="fill:#fbe6ef"/>
<path d="" class="polyStyle" id="140211" style="fill:#f6f67b"/>
<path d="" class="polyStyle" id="150207" style="fill:#fbe6ef"/>
<path d="" class="polyStyle" id="211403" style="fill:#f6f67b"/>
<polygon points="3206,1819 3213,1819 3220,1815 3226,1812 3248,1823 3279,1839 3295,1848 3316,1852 3348,1859 3371,1866 3389,1876 3404,1877 3428,1874 3448,1873 3461,1873 3491,1877 3489,1883 3485,1903 3487,1923 3483,1936 3483,1947 3490,1969 3503,1988 3509,2016 3507,2029 3494,2042 3474,2049 3455,2049 3435,2049 3422,2051 3415,2054 3435,2063 3444,2067 3443,2079 3429,2088 3413,2093 3400,2108 3395,2126 3394,2144 3390,2156 3378,2171 3363,2182 3348,2184 3333,2179 3323,2174 3313,2167 3307,2166 3305,2187 3309,2198 3304,2208 3294,2222 3285,2232 3265,2237 3253,2237 3260,2243 3258,2258 3247,2268 3227,2268 3208,2274 3194,2283 3179,2294 3167,2296 3158,2288 3150,2271 3148,2253 3134,2239 3127,2228 3120,2211 3103,2181 3095,2167 3088,2164 3078,2169 3065,2176 3054,2171 3044,2162 3035,2157 3033,2149 3032,2136 3032,2121 3019,2107 2999,2091 2987,2078 2973,2066 2955,2054 2945,2041 2950,2033 2960,2033 2957,2023 2947,2011 2934,2002 2934,1991 2942,1984 2952,1986 2964,1967 2957,1961 2960,1951 2954,1943 2942,1934 2924,1926 2917,1933 2903,1947 2889,1959 2884,1971 2875,1984 2873,1976 2863,1986 2855,1996 2837,1992 2812,1989 2800,1996 2798,2005 2784,2003 2769,2003 2754,1997 2744,1992 2744,1984 2751,1976 2763,1966 2762,1956 2751,1944 2738,1939 2729,1929 2736,1924 2741,1918 2748,1916 2756,1921 2763,1933 2776,1938 2787,1936 2792,1923 2796,1912 2807,1907 2818,1906 2823,1898 2824,1879 2833,1864 2846,1864 2863,1861 2873,1853 2882,1856 2884,1864 2892,1864 2901,1863 2901,1852 2904,1839 2912,1833 2923,1836 2932,1844 2941,1846 2954,1852 2963,1856 2979,1856 2998,1853 3008,1848 3027,1844 3051,1847 3069,1854 3076,1861 3079,1868 3088,1876 3098,1878 3099,1867 3098,1842 3099,1817 3104,1821 3113,1823 3122,1827 3125,1833 3127,1840 3137,1840 3151,1840 3160,1841 3165,1835 3170,1826 3175,1818 3183,1810 3191,1808 3199,1813 " class="polyStyle" id="211004" style="fill:#f6f67b"/>
<polygon points="4663,1759 4703,1769 4735,1765 4746,1797 4749,1824 4775,1848 4806,1864 4812,1877 4781,1889 4756,1904 4724,1921 4698,1927 4667,1936 4641,1947 4548,1994 4522,2008 4496,2021 4478,2047 4443,2075 4412,2100 4408,2127 4436,2152 4461,2172 4497,2190 4514,2205 4523,2223 4555,2240 4583,2248 4597,2265 4592,2285 4579,2312 4561,2342 4563,2372 4593,2396 4621,2425 4670,2424 4702,2437 4728,2482 4755,2506 4764,2531 4779,2558 4806,2575 4832,2598 4823,2626 4804,2653 4782,2680 4764,2707 4737,2729 4717,2744 4686,2771 4664,2800 4634,2824 4607,2835 4556,2795 4552,2765 4483,2750 4462,2727 4459,2680 4418,2622 4391,2607 4361,2612 4336,2619 4310,2620 4281,2617 4255,2600 4221,2588 4188,2595 4153,2601 4123,2605 4090,2604 4063,2615 4045,2626 4022,2642 3993,2663 3959,2706 3913,2754 3863,2777 3785,2782 3732,2787 3680,2779 3649,2779 3609,2760 3585,2752 3555,2738 3527,2728 3497,2717 3457,2716 3430,2706 3423,2677 3401,2650 3374,2641 3348,2610 3325,2580 3307,2545 3307,2513 3304,2482 3304,2446 3300,2394 3326,2388 3369,2402 3396,2394 3403,2369 3407,2344 3432,2326 3458,2324 3464,2324 3498,2329 3529,2321 3558,2296 3585,2281 3621,2280 3650,2289 3675,2292 3707,2285 3736,2272 3767,2259 3784,2256 3810,2225 3827,2193 3853,2177 3880,2166 3905,2161 3934,2160 3960,2158 3988,2143 4016,2126 4041,2124 4069,2123 4096,2109 4124,2086 4143,2052 4160,2024 4175,1998 4200,1972 4211,1945 4238,1930 4252,1904 4245,1871 4253,1842 4280,1845 4309,1864 4338,1881 4365,1884 4392,1882 4418,1866 4427,1839 4434,1811 4461,1794 4491,1797 4518,1805 4546,1806 4562,1772 4582,1746 4609,1730 4631,1727 4640,1726 4650,1727 " class="polyStyle" id="211005" style="fill:#fbe6ef"/>
<path d="" class="polyStyle" id="150802" style="fill:#f8c67d"/>
<polygon points="3133,1569 3140,1583 3153,1596 3161,1602 3163,1613 3149,1629 3125,1664 3106,1688 3096,1706 3094,1717 3099,1731 3115,1743 3148,1763 3186,1791 3215,1806 3226,1812 3220,1815 3213,1819 3206,1819 3199,1813 3191,1808 3183,1810 3175,1818 3170,1826 3165,1835 3160,1841 3151,1840 3137,1840 3127,1840 3125,1833 3122,1827 3113,1823 3104,1821 3099,1817 3099,1813 3101,1806 3099,1805 3096,1803 3084,1803 3061,1804 3039,1807 3028,1803 3012,1795 2999,1787 2985,1784 2974,1781 2928,1782 2938,1748 2945,1729 2952,1711 2957,1692 2960,1672 2969,1666 2989,1664 2990,1659 2995,1644 2999,1631 3009,1623 3015,1617 3018,1611 3025,1609 3054,1609 3063,1604 3070,1592 3082,1576 3098,1559 3118,1544 3130,1534 3131,1553 " class="polyStyle" id="211003" style="fill:#ee8b94"/>
<polygon points="2844,1531 2863,1547 2879,1559 2894,1566 2909,1566 2914,1557 2899,1547 2899,1536 2909,1531 2929,1521 2939,1512 2944,1503 2953,1503 2971,1506 2994,1509 3019,1516 3044,1526 3059,1527 3068,1521 3076,1516 3091,1517 3114,1517 3124,1517 3128,1522 3130,1531 3130,1534 3118,1544 3098,1559 3082,1576 3070,1592 3063,1604 3054,1609 3025,1609 3018,1611 3015,1617 3009,1623 2999,1631 2995,1644 2990,1659 2989,1664 2969,1666 2960,1672 2957,1692 2952,1711 2945,1729 2938,1748 2928,1782 2900,1784 2898,1803 2883,1804 2851,1804 2819,1810 2796,1810 2773,1809 2771,1779 2786,1779 2780,1767 2769,1754 2754,1741 2748,1734 2791,1702 2781,1679 2774,1669 2779,1661 2774,1653 2765,1649 2759,1643 2763,1632 2759,1626 2754,1619 2761,1614 2776,1614 2784,1607 2778,1598 2761,1583 2796,1569 2771,1557 2828,1529 2818,1517 2849,1486 2873,1504 " class="polyStyle" id="211002" style="fill:#f6f67b"/>
<path d="" class="polyStyle" id="210112" style="fill:#ee8b94"/>
<path d="" class="polyStyle" id="230406" style="fill:#d4ecb2"/>
<polygon points="3099,1813 3099,1817 3098,1842 3099,1867 3098,1878 3088,1876 3079,1868 3076,1861 3069,1854 3051,1847 3027,1844 3008,1848 2998,1853 2979,1856 2963,1856 2954,1852 2941,1846 2932,1844 2923,1836 2912,1833 2904,1839 2901,1852 2901,1863 2892,1864 2884,1864 2882,1856 2873,1853 2863,1861 2846,1864 2833,1864 2824,1879 2823,1898 2818,1906 2807,1907 2796,1912 2792,1923 2787,1936 2776,1938 2763,1933 2756,1921 2748,1916 2741,1918 2736,1924 2729,1929 2738,1939 2751,1944 2762,1956 2763,1966 2751,1976 2744,1984 2744,1992 2754,1997 2769,2003 2784,2003 2798,2005 2797,2014 2793,2038 2783,2046 2773,2049 2787,2064 2792,2081 2782,2087 2769,2092 2768,2107 2758,2117 2754,2126 2757,2131 2769,2129 2763,2138 2748,2142 2734,2149 2722,2159 2705,2178 2693,2195 2678,2184 2655,2176 2641,2162 2635,2141 2626,2134 2631,2121 2643,2106 2654,2087 2659,2076 2654,2066 2648,2057 2639,2043 2634,2031 2628,2016 2621,2003 2604,1994 2579,1989 2564,1988 2556,1984 2555,1972 2549,1964 2539,1958 2533,1953 2534,1944 2538,1938 2533,1929 2528,1922 2534,1918 2546,1917 2553,1913 2546,1904 2539,1898 2545,1886 2558,1874 2576,1867 2594,1862 2603,1858 2606,1844 2613,1841 2619,1838 2629,1842 2639,1849 2649,1836 2623,1816 2586,1794 2579,1788 2565,1788 2555,1789 2544,1782 2538,1771 2538,1764 2524,1762 2509,1761 2500,1758 2500,1749 2503,1743 2488,1744 2474,1747 2468,1742 2476,1732 2476,1723 2469,1722 2453,1723 2438,1719 2426,1717 2419,1722 2413,1728 2399,1728 2386,1719 2368,1709 2353,1697 2345,1693 2339,1704 2333,1701 2336,1691 2333,1684 2324,1677 2329,1672 2331,1663 2320,1651 2315,1639 2319,1621 2329,1608 2338,1606 2346,1611 2358,1618 2364,1617 2388,1598 2386,1589 2373,1586 2346,1576 2340,1568 2346,1554 2356,1544 2374,1536 2384,1533 2383,1523 2370,1506 2368,1499 2388,1491 2411,1482 2428,1479 2446,1486 2470,1492 2489,1498 2510,1494 2536,1487 2561,1478 2554,1468 2568,1464 2595,1459 2624,1458 2639,1461 2655,1471 2669,1477 2684,1476 2703,1472 2725,1463 2738,1471 2771,1454 2765,1443 2775,1434 2760,1418 2756,1411 2759,1404 2769,1391 2780,1379 2789,1358 2790,1329 2803,1337 2838,1373 2852,1383 2873,1387 2903,1385 2932,1380 2961,1372 2991,1382 3022,1398 3057,1406 3093,1407 3123,1414 3146,1427 3166,1445 3178,1460 3195,1463 3210,1466 3221,1475 3249,1474 3270,1474 3286,1464 3296,1461 3304,1460 3308,1471 3304,1484 3305,1498 3315,1504 3343,1492 3380,1479 3389,1483 3395,1499 3384,1507 3399,1513 3420,1513 3444,1519 3460,1523 3482,1527 3507,1529 3523,1522 3532,1508 3534,1492 3543,1484 3554,1486 3565,1489 3587,1499 3602,1503 3613,1503 3625,1497 3637,1491 3647,1488 3652,1501 3650,1513 3663,1512 3674,1523 3677,1534 3672,1544 3684,1553 3695,1567 3697,1584 3694,1611 3695,1631 3710,1648 3713,1656 3717,1664 3725,1699 3730,1717 3722,1729 3710,1739 3697,1757 3682,1778 3662,1792 3647,1809 3632,1823 3615,1836 3604,1846 3592,1862 3583,1877 3558,1886 3543,1883 3533,1878 3519,1874 3504,1874 3492,1874 3491,1877 3461,1873 3448,1873 3428,1874 3404,1877 3389,1876 3371,1866 3348,1859 3316,1852 3295,1848 3279,1839 3248,1823 3226,1812 3215,1806 3186,1791 3148,1763 3115,1743 3099,1731 3094,1717 3096,1706 3106,1688 3125,1664 3149,1629 3163,1613 3161,1602 3153,1596 3140,1583 3133,1569 3131,1553 3130,1534 3130,1531 3128,1522 3124,1517 3114,1517 3091,1517 3076,1516 3068,1521 3059,1527 3044,1526 3019,1516 2994,1509 2971,1506 2953,1503 2944,1503 2939,1512 2929,1521 2909,1531 2899,1536 2899,1547 2914,1557 2909,1566 2894,1566 2879,1559 2863,1547 2844,1531 2873,1504 2849,1486 2818,1517 2828,1529 2771,1557 2796,1569 2761,1583 2778,1598 2784,1607 2776,1614 2761,1614 2754,1619 2759,1626 2763,1632 2759,1643 2765,1649 2774,1653 2779,1661 2774,1669 2781,1679 2791,1702 2748,1734 2754,1741 2769,1754 2780,1767 2786,1779 2771,1779 2773,1809 2796,1810 2819,1810 2851,1804 2883,1804 2898,1803 2900,1784 2928,1782 2974,1781 2985,1784 2999,1787 3012,1795 3028,1803 3039,1807 3061,1804 3084,1803 3096,1803 3099,1805 3101,1806 " class="polyStyle" id="211011" style="fill:#fbe6ef"/>
<path d="" class="polyStyle" id="110113" style="fill:#fbe6ef"/>
<path d="" class="polyStyle" id="341702" style="fill:#fbe6ef"/>
<path d="" class="polyStyle" id="420303" style="fill:#ee8b94"/>
<path d="" class="polyStyle" id="340702" style="fill:#d4ecb2"/>
<path d="" class="polyStyle" id="421002" style="fill:#f6f67b"/>
<path d="" class="polyStyle" id="420117" style="fill:#f6f67b"/>
<path d="" class="polyStyle" id="440904" style="fill:#f8c67d"/>
<path d="" class="polyStyle" id="460205" style="fill:#ee8b94"/>
<path d="" class="polyStyle" id="460202" style="fill:#f6f67b"/>
<path d="" class="polyStyle" id="460203" style="fill:#fbe6ef"/>
<path d="" class="polyStyle" id="420304" style="fill:#f6f67b"/>
<path d="" class="polyStyle" id="445302" style="fill:#ee8b94"/>
<path d="" class="polyStyle" id="410202" style="fill:#d4ecb2"/>
<path d="" class="polyStyle" id="440800" style="fill:#f6f67b"/>
<path d="" class="polyStyle" id="440900" style="fill:#ee8b94"/>
<path d="" class="polyStyle" id="340800" style="fill:#ee8b94"/>
<path d="" class="polyStyle" id="460200" style="fill:#f6f67b"/>
<path d="" class="polyStyle" id="460000" style="fill:#ee8b94"/>
<path d="" class="polyStyle" id="450500" style="fill:#ee8b94"/>
<path d="" class="polyStyle" id="450600" style="fill:#ee8b94"/>
<path d="" class="polyStyle" id="440400" style="fill:#f6f67b"/>
<path d="" class="polyStyle" id="441700" style="fill:#f6f67b"/>
<path d="" class="polyStyle" id="441500" style="fill:#f6f67b"/>
<path d="" class="polyStyle" id="350600" style="fill:#ee8b94"/>
<path d="" class="polyStyle" id="710000" style="fill:#f6f67b"/>
<path d="" class="polyStyle" id="510400" style="fill:#f6f67b"/>
<path d="" class="polyStyle" id="522600" style="fill:#fbe6ef"/>
<path d="" class="polyStyle" id="520500" style="fill:#ee8b94"/>
<path d="" class="polyStyle" id="431200" style="fill:#f6f67b"/>
<path d="" class="polyStyle" id="430600" style="fill:#f6f67b"/>
<path d="" class="polyStyle" id="511400" style="fill:#d4ecb2"/>
<path d="" class="polyStyle" id="421000" style="fill:#ee8b94"/>
<path d="" class="polyStyle" id="341700" style="fill:#f6f67b"/>
<path d="" class="polyStyle" id="420500" style="fill:#f6f67b"/>
<path d="" class="polyStyle" id="511300" style="fill:#f6f67b"/>
<path d="" class="polyStyle" id="420900" style="fill:#f6f67b"/>
<path d="" class="polyStyle" id="511700" style="fill:#ee8b94"/>
<path d="" class="polyStyle" id="420600" style="fill:#d4ecb2"/>
<path d="" class="polyStyle" id="411500" style="fill:#fbe6ef"/>
<path d="" class="polyStyle" id="510800" style="fill:#ee8b94"/>
<path d="" class="polyStyle" id="420300" style="fill:#fbe6ef"/>
<path d="" class="polyStyle" id="611000" style="fill:#ee8b94"/>
<path d="" class="polyStyle" id="620800" style="fill:#fbe6ef"/>
<path d="" class="polyStyle" id="370200" style="fill:#ee8b94"/>
<path d="" class="polyStyle" id="371000" style="fill:#f6f67b"/>
<path d="" class="polyStyle" id="370600" style="fill:#fbe6ef"/>
<path d="" class="polyStyle" id="120000" style="fill:#f6f67b"/>
<path d="" class="polyStyle" id="130200" style="fill:#ee8b94"/>
<path d="" class="polyStyle" id="130300" style="fill:#f6f67b"/>
<path d="" class="polyStyle" id="652900" style="fill:#fbe6ef"/>
<path d="" class="polyStyle" id="150500" style="fill:#d4ecb2"/>
<path d="" class="polyStyle" id="" style="fill:#d4ecb2"/>
<path d="" class="polyStyle" id="350500" style="fill:#fbe6ef"/>
<path d="" class="polyStyle" id="440400" style="fill:#f6f67b"/>
<path d="" class="polyStyle" id="421100" style="fill:#d4ecb2"/>
<path d="" class="polyStyle" id="420100" style="fill:#fbe6ef"/>
<path d="" class="polyStyle" id="532500" style="fill:#fbe6ef"/>
<path d="" class="polyStyle" id="654200" style="fill:#fbe6ef"/>
<path d="" class="polyStyle" id="210700" style="fill:#d4ecb2"/>
<path d="" class="polyStyle" id="522300" style="fill:#fbe6ef"/>
<path d="" class="polyStyle" id="" style="fill:#ee8b94"/>
<path d="" class="polyStyle" id="440400" style="fill:#f6f67b"/>
<path d="" class="polyStyle" id="620000" style="fill:#f6f67b"/>
<path d="" class="polyStyle" id="430000" style="fill:#fbe6ef"/>
<path d="" class="polyStyle" id="420000" style="fill:#ee8b94"/>
<path d="" class="polyStyle" id="410000" style="fill:#f6f67b"/>
<path d="" class="polyStyle" id="350000" style="fill:#fbe6ef"/>
<path d="" class="polyStyle" id="520000" style="fill:#f6f67b"/>
<path d="" class="polyStyle" id="" style="fill:#ee8b94"/>
</svg>
