<?xml version="1.0" encoding="UTF-8"?>
<!DOCTYPE svg PUBLIC "-//W3C//DTD SVG 1.1 Tiny//EN" "http://www.w3.org/Graphics/SVG/1.1/DTD/svg11-tiny.dtd">
<svg version="1.1" xmlns="http://www.w3.org/2000/svg" xmlns:xlink="http://www.w3.org/1999/xlink" width="100%" height="100%" viewBox="0,0,4638,3854">
<title>SVG</title>
<desc>Poligon Test</desc>
<style id="style_css_sheet" type="text/css">
.polyStyle{fill: #cccccc;stroke-width:0;fill-rule:evenodd;}
</style>
<circle cx="2150" cy="1040" r="200" stroke="black" stroke-width="1" fill="red" id="211122" position="1441"name="盘山县"/>
<circle cx="2540" cy="2275" r="200" stroke="black" stroke-width="1" fill="red" id="211104" name="大洼区"/>
<circle cx="2546" cy="1596" r="200" stroke="black" stroke-width="1" fill="red" id="211103" position="11"name="兴隆台区"/>
<circle cx="2476" cy="1310" r="200" stroke="black" stroke-width="1" fill="red" id="211102" name="双台子区"/>
<path d="" class="polyStyle" id="" style="fill:#ee8b94"/>
<path d="" class="polyStyle" id="623022" style="fill:#fbe6ef"/>
<path d="" class="polyStyle" id="211421" style="fill:#f6f67b"/>
<path d="" class="polyStyle" id="532524" style="fill:#ee8b94"/>
<path d="" class="polyStyle" id="440825" style="fill:#f6f67b"/>
<path d="" class="polyStyle" id="441721" style="fill:#f6f67b"/>
<path d="" class="polyStyle" id="450521" style="fill:#f6f67b"/>
<path d="" class="polyStyle" id="450123" style="fill:#fbe6ef"/>
<path d="" class="polyStyle" id="350624" style="fill:#f6f67b"/>
<path d="" class="polyStyle" id="" style="fill:#fbe6ef"/>
<path d="" class="polyStyle" id="451224" style="fill:#fbe6ef"/>
<path d="" class="polyStyle" id="350627" style="fill:#f6f67b"/>
<path d="" class="polyStyle" id="" style="fill:#f6f67b"/>
<path d="" class="polyStyle" id="350525" style="fill:#f6f67b"/>
<path d="" class="polyStyle" id="530124" style="fill:#ee8b94"/>
<path d="" class="polyStyle" id="522627" style="fill:#ee8b94"/>
<path d="" class="polyStyle" id="510421" style="fill:#fbe6ef"/>
<path d="" class="polyStyle" id="522623" style="fill:#d4ecb2"/>
<path d="" class="polyStyle" id="430321" style="fill:#d4ecb2"/>
<path d="" class="polyStyle" id="511129" style="fill:#d4ecb2"/>
<path d="" class="polyStyle" id="511423" style="fill:#ee8b94"/>
<path d="" class="polyStyle" id="421023" style="fill:#f6f67b"/>
<path d="" class="polyStyle" id="511724" style="fill:#f6f67b"/>
<path d="" class="polyStyle" id="420526" style="fill:#fbe6ef"/>
<path d="" class="polyStyle" id="511923" style="fill:#fbe6ef"/>
<path d="" class="polyStyle" id="420325" style="fill:#fbe6ef"/>
<path d="" class="polyStyle" id="511921" style="fill:#f6f67b"/>
<path d="" class="polyStyle" id="542525" style="fill:#f6f67b"/>
<path d="" class="polyStyle" id="611026" style="fill:#ee8b94"/>
<path d="" class="polyStyle" id="411023" style="fill:#fbe6ef"/>
<path d="" class="polyStyle" id="632323" style="fill:#f6f67b"/>
<path d="" class="polyStyle" id="140525" style="fill:#d4ecb2"/>
<path d="" class="polyStyle" id="410922" style="fill:#ee8b94"/>
<path d="" class="polyStyle" id="621027" style="fill:#ee8b94"/>
<path d="" class="polyStyle" id="130427" style="fill:#f6f67b"/>
<path d="" class="polyStyle" id="130121" style="fill:#ee8b94"/>
<path d="" class="polyStyle" id="610823" style="fill:#fbe6ef"/>
<path d="" class="polyStyle" id="130225" style="fill:#fbe6ef"/>
<path d="" class="polyStyle" id="130322" style="fill:#d4ecb2"/>
<path d="" class="polyStyle" id="653130" style="fill:#f6f67b"/>
<path d="" class="polyStyle" id="130822" style="fill:#fbe6ef"/>
<polygon points="3045,1474 3071,1482 3098,1487 3125,1491 3152,1498 3179,1509 3204,1518 3230,1526 3256,1531 3283,1537 3310,1548 3337,1560 3362,1568 3388,1575 3415,1579 3442,1584 3469,1591 3495,1613 3521,1633 3548,1656 3575,1671 3602,1682 3629,1693 3655,1701 3686,1719 3688,1727 3690,1754 3691,1768 3687,1782 3682,1790 3678,1802 3678,1810 3705,1836 3733,1866 3740,1870 3759,1887 3767,1905 3766,1933 3762,1938 3767,1949 3768,1959 3761,1971 3756,1977 3753,1986 3752,1994 3757,2012 3759,2021 3757,2031 3759,2037 3763,2070 3763,2091 3759,2105 3754,2128 3756,2138 3774,2177 3790,2208 3793,2231 3789,2242 3790,2249 3793,2269 3807,2269 3821,2273 3831,2278 3846,2291 3869,2317 3877,2320 3896,2324 3894,2329 3902,2337 3922,2333 3948,2320 3963,2314 3977,2317 3987,2325 3987,2342 3975,2368 3948,2392 3911,2404 3890,2406 3860,2398 3840,2395 3829,2399 3816,2411 3820,2427 3829,2437 3845,2443 3874,2452 3903,2463 3922,2480 3922,2492 3903,2510 3886,2527 3884,2546 3889,2572 3894,2599 3890,2626 3870,2635 3850,2634 3833,2627 3814,2609 3809,2594 3810,2564 3821,2545 3818,2537 3805,2529 3789,2526 3770,2527 3747,2530 3733,2539 3730,2552 3750,2568 3778,2587 3794,2615 3790,2629 3802,2640 3813,2657 3809,2673 3802,2683 3777,2694 3775,2707 3804,2709 3843,2708 3854,2716 3860,2730 3860,2753 3857,2769 3845,2785 3821,2784 3782,2776 3773,2768 3775,2755 3792,2735 3793,2726 3790,2719 3781,2714 3768,2712 3756,2716 3731,2735 3719,2762 3711,2788 3691,2815 3667,2841 3645,2864 3621,2883 3600,2894 3598,2916 3599,2932 3596,2938 3590,2941 3578,2941 3560,2934 3535,2914 3505,2906 3468,2908 3431,2919 3407,2925 3379,2926 3349,2927 3321,2938 3307,2972 3284,2985 3260,2986 3232,2974 3199,2949 3172,2925 3150,2900 3122,2875 3103,2867 3089,2867 3078,2876 3068,2903 3061,2928 3060,2945 3062,2967 3073,2995 3091,3020 3105,3035 3115,3049 3123,3062 3122,3076 3113,3083 3097,3090 3072,3088 3037,3078 3011,3067 2985,3053 2946,3050 2930,3057 2899,3086 2871,3111 2851,3137 2827,3160 2799,3182 2770,3197 2740,3210 2712,3218 2680,3231 2671,3238 2665,3250 2663,3264 2667,3275 2691,3297 2730,3317 2761,3331 2800,3347 2820,3355 2850,3373 2879,3394 2902,3407 2925,3421 2955,3439 2988,3457 3032,3477 3064,3492 3090,3507 3139,3524 3186,3535 3208,3561 3209,3596 3189,3643 3190,3678 3212,3703 3235,3719 3273,3715 3310,3721 3350,3710 3380,3693 3408,3683 3441,3678 3492,3687 3526,3703 3540,3722 3545,3747 3540,3771 3525,3788 3498,3803 3468,3813 3439,3824 3410,3836 3378,3839 3346,3838 3294,3829 3242,3818 3205,3811 3178,3803 3155,3791 3129,3772 3104,3751 3073,3730 3041,3711 3015,3698 3001,3695 2987,3697 2972,3704 2958,3715 2948,3726 2939,3743 2941,3802 2944,3823 2945,3839 2945,3854 2938,3851 2919,3843 2916,3844 2908,3846 2901,3848 2894,3849 2889,3850 2884,3851 2878,3851 2869,3849 2856,3846 2850,3846 2844,3843 2838,3841 2835,3839 2831,3837 2827,3837 2824,3836 2797,3815 2768,3792 2754,3780 2737,3765 2729,3759 2727,3756 2729,3753 2726,3753 2722,3753 2717,3752 2712,3749 2707,3746 2701,3741 2698,3738 2693,3735 2688,3732 2673,3722 2664,3712 2652,3703 2636,3695 2617,3677 2611,3670 2610,3667 2612,3663 2583,3643 2538,3612 2523,3602 2535,3593 2534,3588 2527,3587 2518,3577 2517,3573 2517,3570 2517,3567 2520,3560 2521,3557 2528,3540 2531,3535 2534,3529 2527,3526 2517,3521 2508,3516 2498,3512 2493,3518 2487,3525 2482,3531 2479,3536 2476,3540 2480,3543 2477,3546 2472,3544 2470,3547 2465,3553 2461,3559 2458,3560 2461,3556 2409,3528 2370,3507 2366,3507 2363,3509 2348,3512 2325,3500 2327,3497 2369,3465 2389,3451 2385,3449 2369,3461 2338,3486 2325,3494 2313,3494 2282,3486 2282,3479 2268,3475 2272,3465 2317,3474 2251,3457 2280,3413 2273,3417 2265,3423 2262,3430 2255,3434 2246,3437 2239,3439 2234,3438 2237,3435 2241,3432 2245,3428 2242,3429 2235,3431 2234,3429 2238,3422 2242,3418 2240,3418 2238,3422 2232,3424 2229,3424 2228,3422 2228,3417 2230,3412 2232,3405 2238,3399 2246,3396 2252,3395 2257,3394 2261,3393 2264,3390 2267,3386 2265,3384 2261,3384 2257,3387 2252,3391 2249,3387 2245,3388 2244,3391 2241,3391 2238,3391 2238,3387 2236,3384 2231,3386 2225,3390 2221,3393 2218,3398 2213,3400 2209,3397 2208,3394 2208,3392 2209,3384 2212,3383 2212,3380 2212,3377 2217,3376 2223,3374 2227,3372 2233,3369 2237,3365 2238,3362 2239,3360 2241,3358 2243,3353 2239,3355 2236,3353 2233,3357 2232,3360 2230,3363 2227,3365 2224,3367 2221,3369 2217,3370 2214,3368 2214,3363 2215,3360 2216,3357 2215,3355 2216,3352 2217,3349 2218,3346 2216,3343 2214,3345 2213,3350 2211,3355 2209,3360 2206,3362 2204,3362 2203,3358 2195,3367 2187,3360 2178,3368 2174,3372 2169,3375 2165,3377 2161,3380 2155,3384 2153,3387 2150,3391 2148,3394 2143,3399 2140,3403 2136,3407 2133,3407 2127,3407 2108,3391 2102,3397 2087,3383 2083,3380 2068,3367 2074,3360 2083,3355 2094,3349 2107,3340 2129,3329 2130,3324 2124,3327 2120,3329 2117,3330 2111,3334 2101,3339 2093,3344 2062,3330 2059,3329 2053,3364 2047,3366 2045,3366 2036,3364 2028,3362 2017,3360 2016,3355 1976,3346 1973,3345 1954,3335 1959,3325 1962,3322 1963,3318 1965,3312 1965,3308 1965,3305 1964,3300 1965,3298 1963,3294 1961,3290 1958,3284 1955,3278 1951,3273 1949,3267 1951,3266 1956,3265 1961,3265 1967,3263 1963,3261 1958,3258 1962,3255 1965,3253 1967,3249 1968,3244 1967,3230 1967,3225 1968,3211 1969,3206 1969,3198 1968,3190 1965,3186 1958,3180 1955,3178 1958,3176 1961,3172 1964,3170 1966,3167 1969,3167 1973,3166 1980,3165 1982,3165 1996,3163 2000,3164 2005,3164 2006,3161 2005,3158 2002,3153 2006,3144 2009,3143 2017,3131 2020,3131 2024,3126 2022,3122 2021,3118 2015,3118 2011,3118 1969,3118 1969,3113 1969,3108 1969,3103 1969,3099 1969,3094 1969,3088 1969,3083 1969,3079 1969,3074 1970,3068 1970,3063 1970,3059 1970,3054 1970,3049 1971,3044 1972,3039 1968,3038 1963,3038 1953,3036 1911,3032 1886,3029 1893,3023 1903,3012 1917,2997 1923,2993 1927,2990 1934,2980 1938,2973 1941,2970 1945,2967 1956,2969 1956,2960 1954,2928 1953,2906 1951,2876 1950,2849 1949,2837 1948,2832 1945,2808 1938,2810 1921,2815 1903,2819 1881,2825 1861,2831 1843,2836 1838,2837 1824,2843 1804,2849 1768,2861 1769,2877 1769,2902 1769,2918 1769,2963 1770,2994 1770,3002 1770,3030 1771,3046 1762,3049 1751,3053 1741,3056 1742,3071 1742,3076 1742,3081 1743,3090 1746,3095 1748,3098 1747,3117 1739,3119 1731,3121 1722,3122 1718,3123 1710,3125 1703,3126 1701,3127 1697,3132 1696,3136 1694,3137 1692,3140 1691,3143 1698,3143 1702,3142 1707,3142 1713,3141 1718,3140 1722,3140 1729,3170 1732,3173 1738,3174 1744,3175 1767,3180 1766,3184 1766,3211 1766,3214 1759,3214 1687,3215 1679,3212 1648,3203 1596,3186 1553,3173 1549,3171 1545,3168 1496,3082 1493,3077 1490,3072 1486,3065 1484,3062 1476,3049 1468,3036 1462,3025 1459,3021 1449,3003 1443,2992 1436,2980 1429,2968 1423,2957 1418,2948 1413,2941 1410,2934 1405,2925 1402,2921 1400,2916 1393,2904 1388,2895 1384,2889 1384,2882 1386,2863 1387,2848 1388,2837 1389,2821 1391,2808 1393,2793 1393,2790 1393,2787 1394,2780 1393,2777 1392,2775 1389,2771 1385,2769 1379,2766 1372,2763 1362,2761 1354,2759 1359,2754 1361,2751 1371,2745 1401,2742 1411,2740 1410,2737 1406,2736 1403,2733 1395,2724 1389,2718 1385,2713 1386,2709 1391,2701 1396,2694 1400,2685 1403,2680 1401,2675 1404,2670 1410,2660 1413,2655 1413,2652 1413,2647 1414,2640 1417,2629 1418,2625 1420,2622 1425,2617 1429,2614 1432,2610 1436,2605 1440,2598 1445,2588 1450,2580 1457,2569 1459,2565 1453,2565 1446,2564 1443,2564 1440,2567 1431,2567 1418,2554 1405,2557 1398,2559 1393,2560 1366,2568 1349,2573 1329,2575 1317,2577 1316,2560 1314,2540 1314,2538 1313,2533 1312,2517 1311,2498 1311,2486 1311,2480 1311,2477 1314,2475 1324,2470 1331,2466 1336,2464 1343,2461 1349,2458 1354,2455 1360,2451 1368,2446 1374,2441 1384,2432 1389,2428 1395,2425 1401,2423 1409,2418 1426,2408 1434,2403 1442,2398 1450,2392 1457,2386 1462,2381 1469,2374 1464,2371 1458,2371 1449,2370 1440,2368 1434,2367 1410,2367 1408,2367 1399,2366 1414,2349 1440,2321 1462,2296 1489,2275 1515,2242 1539,2193 1559,2157 1581,2119 1608,2067 1618,2023 1616,1995 1585,1966 1560,1958 1499,1964 1418,1971 1350,1971 1281,1957 1264,1945 1253,1933 1255,1916 1278,1894 1301,1881 1334,1862 1363,1848 1391,1836 1431,1823 1483,1809 1513,1791 1546,1766 1579,1743 1612,1739 1653,1756 1684,1759 1703,1739 1710,1715 1712,1678 1720,1639 1725,1612 1740,1573 1761,1556 1797,1561 1833,1566 1869,1571 1885,1589 1895,1608 1914,1622 1936,1635 1956,1651 1976,1653 2009,1646 2028,1642 2044,1647 2069,1644 2101,1646 2139,1646 2168,1641 2194,1633 2227,1635 2254,1640 2285,1643 2307,1646 2313,1640 2323,1632 2331,1624 2341,1622 2356,1626 2373,1631 2381,1625 2383,1632 2371,1646 2382,1650 2401,1644 2408,1649 2396,1661 2393,1675 2429,1676 2428,1691 2433,1701 2434,1710 2437,1716 2463,1722 2448,1812 2536,1794 2533,1770 2559,1766 2559,1790 2579,1792 2579,1740 2581,1706 2593,1702 2612,1701 2612,1715 2668,1716 2669,1734 2686,1730 2687,1712 2698,1712 2711,1710 2711,1694 2706,1665 2703,1647 2714,1624 2733,1629 2751,1632 2751,1621 2753,1602 2754,1595 2774,1595 2784,1589 2786,1566 2777,1550 2772,1541 2779,1539 2801,1529 2830,1520 2856,1511 2886,1497 2911,1488 2938,1477 2964,1464 2992,1463 3018,1470 " class="polyStyle" id="211121" style="fill:#fbe6ef"/>
<polygon points="252,1346 256,1348 259,1350 261,1351 265,1355 268,1358 272,1361 275,1362 280,1364 283,1364 289,1363 301,1363 305,1363 328,1357 342,1357 356,1361 398,1385 418,1392 443,1394 456,1393 481,1388 489,1389 521,1411 597,1438 617,1443 635,1450 648,1458 655,1465 664,1476 676,1485 690,1494 703,1498 732,1500 742,1503 750,1508 803,1558 865,1616 900,1656 911,1681 920,1713 916,1739 900,1738 852,1735 821,1734 784,1732 755,1737 720,1740 678,1732 649,1731 608,1746 565,1764 534,1770 508,1761 481,1754 453,1749 401,1749 374,1747 347,1744 341,1743 338,1742 334,1739 331,1738 327,1736 325,1733 322,1730 318,1725 314,1721 310,1715 303,1711 299,1710 295,1709 291,1708 283,1707 279,1706 276,1707 272,1706 268,1716 267,1720 265,1723 263,1725 252,1723 247,1734 201,1723 210,1701 200,1701 195,1700 189,1700 185,1699 179,1700 174,1711 169,1725 150,1724 152,1718 133,1715 134,1711 122,1716 117,1718 113,1720 108,1722 96,1728 93,1729 82,1718 79,1714 81,1710 77,1694 59,1691 62,1676 64,1668 67,1653 54,1639 51,1635 51,1622 56,1576 34,1555 40,1534 43,1533 42,1521 40,1517 38,1512 33,1483 33,1479 27,1476 31,1467 37,1454 22,1450 32,1436 38,1434 41,1432 48,1418 48,1414 49,1408 51,1407 57,1408 64,1410 68,1410 71,1410 76,1409 80,1409 89,1410 94,1399 101,1401 106,1403 109,1403 113,1403 117,1405 124,1404 126,1401 127,1398 134,1395 138,1384 140,1380 142,1378 144,1376 143,1371 144,1368 151,1368 159,1369 163,1368 168,1368 172,1367 175,1366 180,1364 183,1362 189,1360 193,1357 196,1356 199,1355 202,1354 207,1352 217,1349 222,1347 225,1347 229,1346 232,1345 237,1344 247,1345 " class="polyStyle" id="211122" style="fill:#ee8b94"/>
<path d="" class="polyStyle" id="211221" style="fill:#f6f67b"/>
<path d="" class="polyStyle" id="210921" style="fill:#f6f67b"/>
<path d="" class="polyStyle" id="150223" style="fill:#f8c67d"/>
<path d="" class="polyStyle" id="220422" style="fill:#d4ecb2"/>
<path d="" class="polyStyle" id="340721" style="fill:#f6f67b"/>
<path d="" class="polyStyle" id="510824" style="fill:#d4ecb2"/>
<path d="" class="polyStyle" id="610324" style="fill:#f6f67b"/>
<path d="" class="polyStyle" id="530722" style="fill:#ee8b94"/>
<path d="" class="polyStyle" id="340823" style="fill:#d4ecb2"/>
<path d="" class="polyStyle" id="620825" style="fill:#d4ecb2"/>
<polygon points="816,591 816,602 817,635 844,609 852,601 873,584 882,582 893,580 903,577 912,575 919,574 927,575 937,577 949,580 953,583 952,588 958,589 962,589 973,588 975,601 976,606 970,616 966,618 969,632 969,638 1021,639 1028,634 1033,631 1052,622 1055,620 1055,617 1055,608 1054,575 1054,562 1051,537 1071,538 1070,545 1070,562 1086,562 1085,557 1105,556 1106,576 1136,577 1194,579 1198,579 1196,546 1196,521 1200,507 1234,518 1235,509 1238,509 1240,506 1244,493 1248,494 1256,498 1260,500 1265,504 1269,506 1272,507 1275,507 1282,509 1290,510 1294,511 1297,512 1299,511 1299,508 1297,504 1296,498 1294,492 1292,487 1290,482 1290,477 1307,480 1305,491 1305,493 1310,494 1320,495 1330,495 1346,496 1356,496 1358,481 1366,483 1389,488 1395,491 1404,494 1414,498 1433,508 1447,515 1455,520 1480,534 1500,545 1513,551 1517,555 1519,562 1518,565 1520,570 1522,581 1524,607 1530,610 1537,613 1555,622 1558,623 1562,625 1565,627 1571,630 1575,632 1578,633 1582,635 1586,637 1589,639 1592,640 1596,642 1600,644 1604,646 1615,636 1618,633 1622,629 1626,625 1630,621 1637,613 1641,609 1646,604 1653,598 1656,596 1659,594 1662,593 1667,590 1673,588 1677,585 1683,582 1687,580 1693,576 1697,573 1698,570 1699,565 1698,562 1695,557 1692,554 1686,549 1685,543 1686,540 1690,536 1692,532 1693,526 1696,523 1699,522 1702,520 1705,516 1707,511 1708,504 1707,500 1700,495 1694,490 1693,487 1689,486 1693,484 1696,484 1705,483 1721,482 1724,482 1727,481 1731,480 1734,479 1737,477 1740,476 1745,472 1749,470 1759,466 1762,464 1768,461 1772,456 1773,453 1774,443 1777,439 1789,435 1795,432 1798,430 1805,427 1810,426 1814,429 1816,432 1819,433 1826,431 1834,427 1841,426 1844,427 1848,426 1851,422 1851,415 1861,414 1883,414 1903,412 1907,412 1910,411 1914,408 1915,404 1912,399 1909,396 1910,392 1913,391 1920,386 1926,383 1931,375 1933,363 1932,353 1931,337 1932,333 1933,330 1937,321 1942,322 1945,322 1950,322 1955,322 1960,323 1963,323 1972,325 1977,328 2042,336 2055,337 2059,338 2070,338 2092,339 2108,340 2124,339 2141,338 2155,338 2162,338 2199,339 2216,340 2226,340 2236,341 2244,342 2249,343 2255,343 2260,350 2264,356 2267,374 2267,397 2268,406 2272,409 2281,409 2286,410 2292,413 2296,414 2300,412 2306,410 2312,409 2332,408 2369,408 2371,411 2374,414 2379,418 2382,424 2381,430 2384,433 2388,433 2391,433 2394,432 2397,433 2399,434 2402,433 2404,429 2405,425 2406,422 2407,418 2408,409 2421,405 2444,379 2468,348 2513,325 2575,315 2582,309 2602,291 2610,288 2615,290 2621,298 2632,293 2638,278 2647,250 2653,247 2659,252 2667,254 2675,251 2701,240 2721,230 2731,221 2755,196 2782,183 2811,173 2840,163 2873,152 2903,140 2937,127 2965,113 3002,90 3029,72 3059,50 3088,27 3116,0 3142,20 3173,43 3166,76 3170,110 3172,140 3212,152 3229,187 3231,223 3265,245 3293,257 3319,265 3345,278 3357,314 3357,344 3379,369 3441,405 3469,422 3497,438 3526,454 3555,469 3570,496 3567,510 3569,523 3571,530 3586,545 3585,554 3578,562 3570,579 3560,593 3538,604 3536,607 3531,610 3534,620 3545,632 3546,661 3545,667 3537,671 3538,680 3532,687 3525,696 3518,713 3513,729 3515,739 3527,745 3526,755 3504,765 3501,769 3498,784 3486,795 3487,820 3486,834 3465,842 3459,850 3451,862 3437,877 3430,899 3430,905 3433,915 3427,931 3423,957 3411,996 3395,1032 3375,1076 3353,1120 3306,1116 3280,1108 3244,1106 3252,1142 3277,1183 3313,1212 3343,1229 3385,1243 3393,1249 3406,1263 3422,1267 3462,1269 3499,1273 3517,1272 3535,1280 3520,1305 3520,1318 3547,1318 3580,1296 3590,1295 3607,1315 3626,1317 3653,1294 3701,1299 3735,1294 3768,1295 3805,1285 3821,1282 3859,1302 3886,1295 3914,1280 3944,1263 3947,1250 3933,1245 3904,1238 3897,1232 3900,1222 3929,1215 3948,1214 3986,1214 3995,1201 4001,1186 4040,1168 4076,1137 4104,1134 4116,1122 4122,1111 4139,1074 4159,1048 4173,1036 4196,1036 4206,1023 4199,995 4214,983 4241,993 4267,997 4264,1021 4269,1033 4295,1033 4306,1023 4289,1005 4281,994 4284,988 4290,983 4303,982 4346,982 4395,982 4440,1000 4461,1011 4478,1003 4480,972 4486,956 4502,944 4521,958 4535,971 4581,976 4608,966 4628,969 4638,990 4630,1014 4612,1031 4586,1043 4549,1051 4514,1060 4495,1065 4484,1071 4470,1094 4469,1103 4462,1119 4462,1123 4454,1131 4427,1139 4412,1142 4419,1175 4392,1194 4377,1196 4358,1195 4314,1195 4272,1184 4261,1187 4254,1200 4246,1204 4243,1204 4234,1204 4230,1206 4225,1210 4227,1215 4241,1228 4228,1249 4220,1261 4211,1267 4200,1269 4184,1266 4165,1259 4150,1259 4122,1266 4104,1270 4095,1276 4075,1287 4069,1297 4067,1304 4065,1323 4052,1333 4047,1355 4037,1358 4025,1355 3997,1352 3990,1358 3992,1363 4000,1368 4013,1368 4016,1377 4018,1386 4016,1406 4013,1420 4017,1431 4024,1436 4045,1437 4079,1424 4087,1427 4106,1456 4110,1467 4120,1474 4120,1478 4116,1485 4095,1503 4098,1512 4105,1530 4102,1555 4100,1564 4096,1581 4095,1591 4099,1601 4108,1608 4124,1610 4147,1620 4150,1628 4159,1654 4163,1666 4161,1680 4152,1705 4144,1723 4145,1730 4151,1743 4161,1748 4176,1749 4192,1753 4201,1762 4209,1779 4216,1780 4229,1771 4232,1770 4237,1776 4237,1782 4240,1796 4249,1814 4251,1828 4248,1879 4245,1891 4236,1906 4224,1923 4223,1933 4225,1942 4226,1959 4217,1988 4212,2014 4201,2044 4207,2070 4214,2096 4222,2103 4241,2100 4250,2103 4250,2113 4245,2127 4243,2138 4251,2153 4278,2176 4287,2183 4274,2211 4269,2238 4264,2254 4246,2273 4222,2285 4193,2274 4181,2261 4177,2246 4177,2232 4170,2219 4158,2212 4136,2211 4132,2219 4133,2226 4150,2273 4158,2298 4137,2311 4098,2312 4068,2299 4041,2275 4018,2254 3987,2249 3957,2261 3918,2285 3905,2302 3896,2324 3877,2320 3869,2317 3846,2291 3831,2278 3821,2273 3807,2269 3793,2269 3790,2249 3789,2242 3793,2231 3790,2208 3774,2177 3756,2138 3754,2128 3759,2105 3763,2091 3763,2070 3759,2037 3757,2031 3759,2021 3757,2012 3752,1994 3753,1986 3756,1977 3761,1971 3768,1959 3767,1949 3762,1938 3766,1933 3767,1905 3759,1887 3740,1870 3733,1866 3705,1836 3678,1810 3678,1802 3682,1790 3687,1782 3691,1768 3690,1754 3688,1727 3686,1719 3655,1701 3629,1693 3602,1682 3575,1671 3548,1656 3521,1633 3495,1613 3469,1591 3442,1584 3415,1579 3388,1575 3362,1568 3337,1560 3310,1548 3283,1537 3256,1531 3230,1526 3204,1518 3179,1509 3152,1498 3125,1491 3098,1487 3071,1482 3045,1474 3018,1470 2992,1463 2964,1464 2938,1477 2911,1488 2886,1497 2856,1511 2854,1490 2842,1489 2812,1484 2782,1484 2771,1481 2770,1469 2772,1459 2777,1451 2777,1440 2785,1440 2789,1427 2789,1419 2775,1414 2772,1404 2774,1390 2769,1382 2754,1381 2745,1376 2747,1365 2747,1346 2744,1327 2752,1327 2753,1314 2753,1303 2752,1299 2761,1296 2779,1290 2794,1286 2818,1286 2831,1288 2839,1286 2840,1276 2837,1265 2834,1253 2835,1246 2846,1233 2852,1228 2861,1225 2870,1221 2869,1215 2837,1173 2816,1143 2739,1000 2708,969 2618,900 2602,902 2527,922 2482,938 2467,963 2452,984 2449,1002 2447,1025 2453,1047 2438,1078 2434,1095 2425,1108 2427,1118 2422,1118 2406,1118 2393,1116 2374,1098 2350,1071 2338,1058 2328,1059 2323,1065 2319,1059 2315,1064 2311,1067 2308,1070 2305,1073 2301,1077 2298,1080 2294,1084 2277,1096 2271,1099 2268,1100 2256,1106 2252,1107 2247,1108 2244,1109 2240,1110 2237,1110 2232,1111 2228,1112 2224,1112 2220,1113 2216,1114 2211,1115 2208,1115 2204,1116 2200,1117 2196,1117 2190,1119 2176,1123 2150,1132 2135,1137 2110,1146 2093,1152 2081,1157 2078,1158 2073,1161 2066,1164 2061,1166 2055,1169 2042,1178 2035,1188 2028,1197 2023,1206 2022,1209 2019,1214 2017,1218 2015,1222 2013,1226 2011,1230 2010,1235 2008,1238 2007,1243 2005,1246 2004,1250 2004,1253 2003,1257 2002,1260 2001,1263 1999,1268 1995,1274 1989,1278 1986,1279 1982,1281 1979,1282 1973,1284 1967,1286 1962,1287 1939,1296 1929,1301 1924,1302 1921,1303 1918,1304 1915,1304 1911,1304 1906,1305 1903,1292 1897,1282 1896,1260 1893,1229 1884,1219 1876,1213 1862,1207 1848,1203 1844,1195 1845,1185 1845,1173 1837,1168 1814,1168 1789,1168 1746,1170 1698,1169 1674,1170 1664,1173 1653,1175 1642,1169 1645,1163 1655,1147 1654,1135 1649,1129 1633,1131 1621,1132 1605,1134 1595,1136 1589,1135 1589,1129 1588,1123 1585,1117 1582,1112 1581,1107 1577,1105 1573,1110 1571,1117 1561,1135 1551,1150 1536,1169 1522,1183 1503,1195 1494,1202 1483,1212 1478,1218 1479,1222 1485,1225 1495,1226 1503,1227 1509,1230 1510,1234 1506,1235 1498,1237 1494,1241 1496,1248 1497,1252 1491,1259 1478,1269 1458,1278 1435,1284 1422,1290 1415,1298 1413,1306 1413,1318 1418,1330 1427,1342 1437,1348 1447,1352 1449,1355 1446,1361 1441,1366 1433,1370 1432,1376 1433,1390 1432,1394 1426,1398 1416,1401 1410,1407 1396,1428 1382,1451 1371,1464 1362,1471 1339,1476 1319,1480 1309,1485 1308,1489 1305,1496 1301,1500 1294,1502 1286,1501 1280,1497 1273,1493 1269,1494 1259,1499 1252,1503 1243,1508 1234,1510 1225,1506 1208,1496 1194,1488 1173,1481 1158,1478 1153,1483 1146,1476 1135,1464 1127,1458 1121,1453 1114,1442 1109,1437 1088,1429 1083,1426 1080,1422 1075,1409 1072,1406 1065,1404 1058,1405 1053,1409 1051,1414 1049,1420 1044,1421 1037,1419 1029,1413 1019,1405 1003,1399 997,1394 997,1385 995,1379 989,1373 981,1371 973,1372 965,1372 957,1367 949,1359 943,1348 941,1338 941,1324 923,1323 900,1318 847,1302 843,1304 768,1292 758,1293 705,1277 611,1252 583,1248 565,1243 558,1237 556,1232 552,1228 547,1225 541,1225 515,1224 492,1198 486,1194 477,1195 462,1200 448,1208 432,1211 406,1204 396,1202 387,1207 384,1211 383,1217 385,1225 390,1233 401,1241 426,1254 396,1260 381,1266 367,1273 358,1273 351,1271 326,1257 308,1263 287,1263 289,1254 292,1234 293,1225 292,1221 286,1220 283,1220 280,1219 277,1218 273,1218 269,1216 265,1215 261,1215 253,1214 246,1213 241,1213 238,1212 235,1211 232,1211 228,1209 225,1208 218,1206 215,1206 210,1204 195,1200 188,1201 185,1201 179,1202 176,1203 172,1204 169,1205 166,1206 162,1207 158,1207 150,1208 147,1207 141,1206 137,1204 132,1201 122,1195 121,1192 117,1190 114,1187 108,1182 103,1177 97,1172 91,1170 87,1170 79,1169 69,1170 73,1164 76,1160 79,1158 85,1152 88,1149 90,1148 92,1146 98,1143 101,1141 104,1140 106,1140 110,1143 112,1143 114,1139 116,1134 118,1131 123,1129 128,1126 132,1124 128,1122 122,1118 119,1115 116,1114 113,1112 110,1109 104,1104 105,1101 105,1098 106,1089 107,1085 107,1080 104,1080 79,1080 82,1063 83,1056 93,1038 102,1041 107,1043 110,1045 112,1047 115,1042 119,1032 121,1027 125,1018 129,1021 134,1023 138,1025 141,1027 145,1023 153,1025 161,1015 156,1012 169,997 175,1000 177,997 181,994 188,989 192,988 195,986 196,984 198,982 202,980 206,978 209,976 212,974 215,972 218,970 221,968 225,967 228,967 231,969 234,969 237,969 238,960 240,956 244,942 229,935 227,938 217,930 221,928 225,931 230,922 242,915 246,916 265,921 278,924 288,915 292,919 295,919 305,916 310,918 313,919 316,916 324,905 321,903 321,899 322,894 325,891 326,888 327,884 329,879 328,874 326,870 323,868 321,864 327,861 333,857 340,852 344,850 347,848 355,843 360,840 364,838 369,836 375,833 396,820 402,815 407,812 410,809 416,805 419,804 415,794 411,787 410,783 409,780 406,776 404,772 402,768 401,761 421,771 425,775 429,779 432,781 435,784 438,786 441,788 444,789 471,773 483,767 527,743 565,723 569,724 575,722 586,719 593,718 610,745 666,730 669,731 672,730 675,729 686,725 692,723 695,721 700,715 709,704 717,704 729,705 734,704 753,698 765,694 767,698 791,701 804,702 806,700 811,698 810,695 806,692 801,686 799,682 798,679 797,667 795,664 789,661 785,659 784,656 786,652 793,647 795,643 796,637 794,633 789,625 788,622 791,620 793,615 813,593 " class="polyStyle" id="211122" style="fill:#ee8b94"/>
<path d="" class="polyStyle" id="421125" style="fill:#ee8b94"/>
<path d="" class="polyStyle" id="210281" style="fill:#ee8b94"/>
<path d="" class="polyStyle" id="440883" style="fill:#f6f67b"/>
<path d="" class="polyStyle" id="469006" style="fill:#d4ecb2"/>
<path d="" class="polyStyle" id="469002" style="fill:#ee8b94"/>
<path d="" class="polyStyle" id="469005" style="fill:#fbe6ef"/>
<path d="" class="polyStyle" id="440882" style="fill:#ee8b94"/>
<path d="" class="polyStyle" id="450681" style="fill:#ee8b94"/>
<path d="" class="polyStyle" id="441581" style="fill:#d4ecb2"/>
<path d="" class="polyStyle" id="421087" style="fill:#ee8b94"/>
<path d="" class="polyStyle" id="420984" style="fill:#fbe6ef"/>
<path d="" class="polyStyle" id="420582" style="fill:#ee8b94"/>
<path d="" class="polyStyle" id="370282" style="fill:#f6f67b"/>
<path d="" class="polyStyle" id="371083" style="fill:#f6f67b"/>
<path d="" class="polyStyle" id="371082" style="fill:#fbe6ef"/>
<path d="" class="polyStyle" id="652801" style="fill:#f8c67d"/>
<path d="" class="polyStyle" id="654301" style="fill:#ee8b94"/>
<path d="" class="polyStyle" id="370687" style="fill:#ee8b94"/>
<path d="" class="polyStyle" id="371482" style="fill:#d4ecb2"/>
<path d="" class="polyStyle" id="421081" style="fill:#fbe6ef"/>
<path d="" class="polyStyle" id="429006" style="fill:#f6f67b"/>
<path d="" class="polyStyle" id="440982" style="fill:#d4ecb2"/>
<path d="" class="polyStyle" id="421181" style="fill:#d4ecb2"/>
<path d="" class="polyStyle" id="321181" style="fill:#d4ecb2"/>
<path d="" class="polyStyle" id="659007" style="fill:#ee8b94"/>
<path d="" class="polyStyle" id="652701" style="fill:#fbe6ef"/>
<path d="" class="polyStyle" id="210781" style="fill:#fbe6ef"/>
<path d="" class="polyStyle" id="460204" style="fill:#f6f67b"/>
<path d="" class="polyStyle" id="210211" style="fill:#f6f67b"/>
<path d="" class="polyStyle" id="450512" style="fill:#ee8b94"/>
<path d="" class="polyStyle" id="450602" style="fill:#fbe6ef"/>
<path d="" class="polyStyle" id="440404" style="fill:#ee8b94"/>
<path d="" class="polyStyle" id="440403" style="fill:#f6f67b"/>
<path d="" class="polyStyle" id="441502" style="fill:#f6f67b"/>
<path d="" class="polyStyle" id="431002" style="fill:#d4ecb2"/>
<path d="" class="polyStyle" id="500107" style="fill:#fbe6ef"/>
<path d="" class="polyStyle" id="430611" style="fill:#d4ecb2"/>
<path d="" class="polyStyle" id="511304" style="fill:#fbe6ef"/>
<path d="" class="polyStyle" id="340711" style="fill:#ee8b94"/>
<path d="" class="polyStyle" id="320118" style="fill:#f6f67b"/>
<path d="" class="polyStyle" id="510704" style="fill:#f6f67b"/>
<path d="" class="polyStyle" id="411502" style="fill:#ee8b94"/>
<path d="" class="polyStyle" id="320302" style="fill:#d4ecb2"/>
<path d="" class="polyStyle" id="140311" style="fill:#ee8b94"/>
<path d="" class="polyStyle" id="610802" style="fill:#ee8b94"/>
<path d="" class="polyStyle" id="120116" style="fill:#f6f67b"/>
<path d="" class="polyStyle" id="130303" style="fill:#fbe6ef"/>
<path d="" class="polyStyle" id="140211" style="fill:#f6f67b"/>
<path d="" class="polyStyle" id="150207" style="fill:#fbe6ef"/>
<path d="" class="polyStyle" id="211403" style="fill:#f6f67b"/>
<polygon points="1582,1112 1585,1117 1588,1123 1589,1129 1589,1135 1595,1136 1605,1134 1621,1132 1633,1131 1649,1129 1654,1135 1655,1147 1645,1163 1642,1169 1653,1175 1664,1173 1674,1170 1698,1169 1746,1170 1789,1168 1814,1168 1837,1168 1845,1173 1845,1185 1844,1195 1848,1203 1862,1207 1876,1213 1884,1219 1893,1229 1896,1260 1897,1282 1903,1292 1906,1305 1886,1308 1866,1308 1849,1309 1838,1318 1836,1329 1827,1357 1819,1379 1809,1397 1811,1409 1819,1410 1833,1409 1844,1407 1851,1412 1861,1414 1874,1420 1878,1430 1869,1440 1859,1440 1856,1445 1863,1449 1871,1452 1869,1463 1872,1474 1874,1482 1867,1488 1864,1495 1869,1505 1868,1519 1873,1528 1884,1525 1906,1512 1916,1500 1917,1484 1923,1475 1937,1470 1982,1464 2034,1460 2087,1457 2112,1454 2128,1452 2147,1449 2168,1449 2185,1447 2194,1444 2199,1437 2197,1426 2189,1416 2175,1407 2166,1397 2169,1392 2179,1387 2185,1381 2189,1370 2192,1360 2195,1354 2202,1355 2209,1362 2217,1364 2227,1370 2232,1375 2232,1382 2237,1384 2249,1383 2264,1379 2275,1384 2283,1394 2285,1400 2282,1406 2280,1410 2282,1415 2289,1417 2298,1417 2307,1418 2309,1422 2309,1430 2308,1436 2312,1439 2312,1444 2303,1449 2299,1459 2299,1469 2300,1474 2314,1475 2335,1475 2341,1474 2336,1467 2333,1461 2335,1454 2344,1450 2355,1446 2362,1440 2373,1439 2389,1437 2407,1437 2418,1435 2426,1430 2449,1427 2475,1427 2490,1427 2498,1427 2504,1421 2510,1422 2517,1427 2531,1427 2541,1424 2552,1421 2559,1415 2559,1404 2557,1389 2554,1379 2547,1371 2534,1365 2524,1355 2517,1344 2514,1332 2515,1326 2523,1324 2531,1327 2538,1339 2546,1341 2551,1335 2563,1328 2584,1314 2592,1314 2610,1311 2625,1309 2639,1310 2656,1311 2672,1311 2693,1311 2713,1311 2733,1306 2752,1299 2753,1303 2753,1314 2752,1327 2744,1327 2747,1346 2747,1365 2745,1376 2754,1381 2769,1382 2774,1390 2772,1404 2775,1414 2789,1419 2789,1427 2785,1440 2777,1440 2777,1451 2772,1459 2770,1469 2771,1481 2782,1484 2812,1484 2842,1489 2854,1490 2856,1511 2830,1520 2801,1529 2779,1539 2772,1541 2777,1550 2786,1566 2784,1589 2774,1595 2754,1595 2753,1602 2751,1621 2751,1632 2733,1629 2714,1624 2703,1647 2706,1665 2711,1694 2711,1710 2698,1712 2687,1712 2686,1730 2669,1734 2668,1716 2612,1715 2612,1701 2593,1702 2581,1706 2579,1740 2579,1792 2559,1790 2559,1766 2533,1770 2536,1794 2448,1812 2463,1722 2437,1716 2434,1710 2433,1701 2428,1691 2429,1676 2393,1675 2396,1661 2408,1649 2401,1644 2382,1650 2371,1646 2383,1632 2381,1625 2373,1631 2356,1626 2341,1622 2331,1624 2323,1632 2313,1640 2307,1646 2285,1643 2254,1640 2227,1635 2194,1633 2168,1641 2139,1646 2101,1646 2069,1644 2044,1647 2028,1642 2009,1646 1976,1653 1956,1651 1936,1635 1914,1622 1895,1608 1885,1589 1869,1571 1833,1566 1797,1561 1761,1556 1740,1573 1725,1612 1720,1639 1712,1678 1710,1715 1703,1739 1684,1759 1653,1756 1612,1739 1579,1743 1546,1766 1513,1791 1483,1809 1431,1823 1391,1836 1363,1848 1334,1862 1301,1881 1278,1894 1255,1916 1253,1933 1264,1945 1281,1957 1350,1971 1418,1971 1499,1964 1560,1958 1585,1966 1616,1995 1618,2023 1608,2067 1581,2119 1559,2157 1539,2193 1515,2242 1489,2275 1462,2296 1440,2321 1414,2349 1399,2366 1390,2366 1374,2365 1364,2364 1358,2369 1350,2376 1344,2380 1331,2388 1323,2393 1313,2398 1301,2404 1292,2408 1279,2414 1263,2421 1259,2423 1254,2428 1245,2436 1233,2446 1227,2451 1224,2451 1212,2456 1211,2464 1211,2470 1209,2480 1208,2485 1206,2491 1203,2498 1202,2502 1201,2509 1200,2520 1198,2525 1196,2532 1191,2539 1185,2546 1180,2555 1176,2563 1175,2567 1173,2575 1170,2585 1166,2596 1165,2602 1165,2608 1166,2611 1169,2616 1172,2620 1175,2624 1178,2630 1182,2639 1183,2642 1187,2646 1189,2650 1189,2653 1192,2658 1195,2663 1198,2669 1203,2677 1207,2685 1213,2693 1217,2702 1218,2708 1217,2712 1213,2719 1209,2725 1205,2729 1199,2731 1198,2725 1195,2721 1192,2718 1189,2717 1185,2716 1179,2719 1173,2719 1171,2720 1170,2723 1174,2727 1178,2731 1177,2739 1176,2743 1172,2749 1168,2751 1164,2753 1158,2757 1154,2759 1151,2762 1141,2767 1136,2770 1130,2775 1127,2780 1124,2783 1119,2789 1113,2794 1107,2799 1102,2802 1093,2807 1085,2812 1072,2818 1064,2822 1057,2825 1048,2831 1044,2834 1042,2838 1037,2842 1030,2844 1024,2844 1021,2843 1017,2841 1012,2839 1010,2836 1018,2833 1016,2828 1013,2828 1010,2828 1007,2827 1004,2826 1002,2825 995,2824 993,2815 992,2806 991,2801 992,2798 993,2794 995,2793 1001,2790 999,2787 996,2787 990,2786 976,2785 962,2784 957,2784 958,2760 959,2754 959,2743 943,2735 931,2729 917,2745 907,2756 881,2752 879,2744 869,2743 870,2735 870,2730 864,2738 853,2742 857,2744 859,2749 853,2756 838,2756 833,2753 837,2741 838,2735 829,2726 827,2723 817,2713 803,2698 789,2688 778,2685 765,2689 757,2686 743,2669 739,2663 739,2660 727,2652 720,2652 714,2653 683,2661 680,2686 686,2696 683,2716 680,2749 677,2778 675,2804 676,2808 676,2812 676,2818 676,2822 676,2827 677,2832 677,2839 677,2844 678,2850 678,2856 679,2860 679,2866 655,2869 641,2869 643,2866 646,2861 649,2855 650,2850 652,2845 665,2841 662,2837 643,2837 643,2843 643,2849 643,2853 639,2859 635,2863 627,2870 601,2872 601,2866 601,2860 600,2856 600,2849 600,2843 599,2822 599,2817 598,2812 598,2808 598,2803 586,2802 586,2818 585,2840 584,2844 589,2845 593,2847 595,2850 593,2856 588,2858 584,2858 582,2862 580,2867 586,2869 592,2873 595,2876 598,2879 602,2885 608,2890 604,2893 599,2893 597,2904 595,2910 600,2911 614,2912 613,2917 597,2915 588,2915 574,2915 563,2915 530,2915 527,2914 526,2918 526,2922 525,2927 524,2931 523,2936 522,2940 517,2967 491,2963 459,2956 447,2953 451,2946 461,2935 469,2935 469,2930 470,2925 462,2924 436,2922 441,2900 443,2891 445,2883 451,2880 454,2874 459,2875 490,2878 525,2882 532,2883 536,2883 539,2869 541,2857 542,2852 534,2854 526,2858 522,2860 522,2863 498,2860 460,2854 462,2851 468,2848 469,2845 472,2841 474,2836 474,2833 475,2831 476,2827 479,2825 483,2822 488,2818 507,2819 510,2815 517,2811 524,2806 548,2806 549,2803 524,2806 499,2808 496,2806 490,2804 477,2808 476,2812 459,2816 438,2820 416,2824 390,2828 379,2829 378,2842 382,2843 410,2852 430,2859 448,2865 445,2869 441,2873 437,2876 433,2879 428,2883 424,2886 413,2893 393,2885 375,2878 374,2882 388,2887 395,2889 404,2893 401,2896 395,2898 380,2891 378,2894 381,2896 378,2901 386,2905 384,2908 387,2913 385,2916 383,2915 382,2918 385,2916 382,2922 372,2919 356,2912 360,2907 365,2909 366,2902 367,2898 369,2892 370,2884 349,2896 327,2891 299,2884 280,2880 264,2916 249,2929 225,2950 205,2968 188,2984 144,2975 116,2969 85,2963 58,2958 35,2944 17,2933 7,2927 7,2905 7,2891 7,2880 7,2876 0,2873 19,2868 43,2863 56,2862 82,2865 108,2864 136,2859 164,2848 198,2828 216,2814 235,2786 254,2758 270,2739 280,2733 312,2715 321,2704 312,2677 315,2661 322,2647 332,2636 342,2631 374,2616 390,2606 400,2593 402,2553 402,2526 383,2513 382,2508 390,2500 406,2492 430,2479 463,2467 507,2452 525,2436 537,2408 560,2369 554,2332 566,2300 587,2275 599,2246 598,2230 616,2188 632,2121 637,2046 642,2016 652,1992 666,1961 679,1934 692,1907 707,1874 719,1847 734,1821 794,1822 820,1823 857,1825 888,1827 940,1809 955,1781 942,1740 916,1739 920,1713 911,1681 900,1656 865,1616 803,1558 750,1508 742,1503 732,1500 703,1498 690,1494 676,1485 664,1476 655,1465 648,1458 635,1450 617,1443 597,1438 521,1411 489,1389 481,1388 456,1393 443,1394 418,1392 398,1385 356,1361 342,1357 328,1357 305,1363 301,1363 289,1363 283,1364 280,1364 275,1362 272,1361 268,1358 265,1355 261,1351 267,1341 269,1336 278,1318 276,1316 279,1303 284,1286 288,1267 287,1263 308,1263 326,1257 351,1271 358,1273 367,1273 381,1266 396,1260 426,1254 401,1241 390,1233 385,1225 383,1217 384,1211 387,1207 396,1202 406,1204 432,1211 448,1208 462,1200 477,1195 486,1194 492,1198 515,1224 541,1225 547,1225 552,1228 556,1232 558,1237 565,1243 583,1248 611,1252 705,1277 758,1293 768,1292 843,1304 847,1302 900,1318 923,1323 941,1324 941,1338 943,1348 949,1359 957,1367 965,1372 973,1372 981,1371 989,1373 995,1379 997,1385 997,1394 1003,1399 1019,1405 1029,1413 1037,1419 1044,1421 1049,1420 1051,1414 1053,1409 1058,1405 1065,1404 1072,1406 1075,1409 1080,1422 1083,1426 1088,1429 1109,1437 1114,1442 1121,1453 1127,1458 1135,1464 1146,1476 1153,1483 1158,1478 1173,1481 1194,1488 1208,1496 1225,1506 1234,1510 1243,1508 1252,1503 1259,1499 1269,1494 1273,1493 1280,1497 1286,1501 1294,1502 1301,1500 1305,1496 1308,1489 1309,1485 1319,1480 1339,1476 1362,1471 1371,1464 1382,1451 1396,1428 1410,1407 1416,1401 1426,1398 1432,1394 1433,1390 1432,1376 1433,1370 1441,1366 1446,1361 1449,1355 1447,1352 1437,1348 1427,1342 1418,1330 1413,1318 1413,1306 1415,1298 1422,1290 1435,1284 1458,1278 1478,1269 1491,1259 1497,1252 1496,1248 1494,1241 1498,1237 1506,1235 1510,1234 1509,1230 1503,1227 1495,1226 1485,1225 1479,1222 1478,1218 1483,1212 1494,1202 1503,1195 1522,1183 1536,1169 1551,1150 1561,1135 1571,1117 1573,1110 1577,1105 1581,1107 " class="polyStyle" id="211103" style="fill:#f6f67b"/>
<polygon points="2739,1000 2816,1143 2837,1173 2869,1215 2870,1221 2861,1225 2852,1228 2846,1233 2835,1246 2834,1253 2837,1265 2840,1276 2839,1286 2831,1288 2818,1286 2794,1286 2779,1290 2761,1296 2752,1299 2733,1306 2713,1311 2693,1311 2672,1311 2656,1311 2639,1310 2625,1309 2610,1311 2592,1314 2584,1314 2563,1328 2551,1335 2546,1341 2538,1339 2531,1327 2523,1324 2515,1326 2514,1332 2517,1344 2524,1355 2534,1365 2547,1371 2554,1379 2557,1389 2559,1404 2559,1415 2552,1421 2541,1424 2531,1427 2517,1427 2510,1422 2504,1421 2498,1427 2490,1427 2475,1427 2449,1427 2426,1430 2418,1435 2407,1437 2389,1437 2373,1439 2362,1440 2355,1446 2344,1450 2335,1454 2333,1461 2336,1467 2341,1474 2335,1475 2314,1475 2300,1474 2299,1469 2299,1459 2303,1449 2312,1444 2312,1439 2308,1436 2309,1430 2309,1422 2307,1418 2298,1417 2289,1417 2282,1415 2280,1410 2282,1406 2285,1400 2283,1394 2275,1384 2264,1379 2249,1383 2237,1384 2232,1382 2232,1375 2227,1370 2217,1364 2209,1362 2202,1355 2195,1354 2192,1360 2189,1370 2185,1381 2179,1387 2169,1392 2166,1397 2175,1407 2189,1416 2197,1426 2199,1437 2194,1444 2185,1447 2168,1449 2147,1449 2128,1452 2112,1454 2087,1457 2034,1460 1982,1464 1937,1470 1923,1475 1917,1484 1916,1500 1906,1512 1884,1525 1873,1528 1868,1519 1869,1505 1864,1495 1867,1488 1874,1482 1872,1474 1869,1463 1871,1452 1863,1449 1856,1445 1859,1440 1869,1440 1878,1430 1874,1420 1861,1414 1851,1412 1844,1407 1833,1409 1819,1410 1811,1409 1809,1397 1819,1379 1827,1357 1836,1329 1838,1318 1849,1309 1866,1308 1886,1308 1906,1305 1911,1304 1915,1304 1918,1304 1921,1303 1924,1302 1929,1301 1939,1296 1962,1287 1967,1286 1973,1284 1979,1282 1982,1281 1986,1279 1989,1278 1995,1274 1999,1268 2001,1263 2002,1260 2003,1257 2004,1253 2004,1250 2005,1246 2007,1243 2008,1238 2010,1235 2011,1230 2013,1226 2015,1222 2017,1218 2019,1214 2022,1209 2023,1206 2028,1197 2035,1188 2042,1178 2055,1169 2061,1166 2066,1164 2073,1161 2078,1158 2081,1157 2093,1152 2110,1146 2135,1137 2150,1132 2176,1123 2190,1119 2196,1117 2200,1117 2204,1116 2208,1115 2211,1115 2216,1114 2220,1113 2224,1112 2228,1112 2232,1111 2237,1110 2240,1110 2244,1109 2247,1108 2252,1107 2256,1106 2268,1100 2271,1099 2277,1096 2294,1084 2298,1080 2301,1077 2305,1073 2308,1070 2311,1067 2315,1064 2319,1059 2323,1065 2328,1059 2338,1058 2350,1071 2374,1098 2393,1116 2406,1118 2422,1118 2427,1118 2425,1108 2434,1095 2438,1078 2453,1047 2447,1025 2449,1002 2452,984 2467,963 2482,938 2527,922 2602,902 2618,900 2708,969 " class="polyStyle" id="211102" style="fill:#fbe6ef"/>
<path d="" class="polyStyle" id="150802" style="fill:#f8c67d"/>
<path d="" class="polyStyle" id="210112" style="fill:#ee8b94"/>
<path d="" class="polyStyle" id="230406" style="fill:#d4ecb2"/>
<path d="" class="polyStyle" id="110113" style="fill:#fbe6ef"/>
<path d="" class="polyStyle" id="341702" style="fill:#fbe6ef"/>
<path d="" class="polyStyle" id="420303" style="fill:#ee8b94"/>
<path d="" class="polyStyle" id="340702" style="fill:#d4ecb2"/>
<path d="" class="polyStyle" id="421002" style="fill:#f6f67b"/>
<path d="" class="polyStyle" id="420117" style="fill:#f6f67b"/>
<path d="" class="polyStyle" id="440904" style="fill:#f8c67d"/>
<path d="" class="polyStyle" id="460205" style="fill:#ee8b94"/>
<path d="" class="polyStyle" id="460202" style="fill:#f6f67b"/>
<path d="" class="polyStyle" id="460203" style="fill:#fbe6ef"/>
<path d="" class="polyStyle" id="420304" style="fill:#f6f67b"/>
<path d="" class="polyStyle" id="445302" style="fill:#ee8b94"/>
<path d="" class="polyStyle" id="410202" style="fill:#d4ecb2"/>
<path d="" class="polyStyle" id="440800" style="fill:#f6f67b"/>
<path d="" class="polyStyle" id="440900" style="fill:#ee8b94"/>
<path d="" class="polyStyle" id="340800" style="fill:#ee8b94"/>
<path d="" class="polyStyle" id="460200" style="fill:#f6f67b"/>
<path d="" class="polyStyle" id="460000" style="fill:#ee8b94"/>
<path d="" class="polyStyle" id="450500" style="fill:#ee8b94"/>
<path d="" class="polyStyle" id="450600" style="fill:#ee8b94"/>
<path d="" class="polyStyle" id="440400" style="fill:#f6f67b"/>
<path d="" class="polyStyle" id="441700" style="fill:#f6f67b"/>
<path d="" class="polyStyle" id="441500" style="fill:#f6f67b"/>
<path d="" class="polyStyle" id="350600" style="fill:#ee8b94"/>
<path d="" class="polyStyle" id="710000" style="fill:#f6f67b"/>
<path d="" class="polyStyle" id="510400" style="fill:#f6f67b"/>
<path d="" class="polyStyle" id="522600" style="fill:#fbe6ef"/>
<path d="" class="polyStyle" id="520500" style="fill:#ee8b94"/>
<path d="" class="polyStyle" id="431200" style="fill:#f6f67b"/>
<path d="" class="polyStyle" id="430600" style="fill:#f6f67b"/>
<path d="" class="polyStyle" id="511400" style="fill:#d4ecb2"/>
<path d="" class="polyStyle" id="421000" style="fill:#ee8b94"/>
<path d="" class="polyStyle" id="341700" style="fill:#f6f67b"/>
<path d="" class="polyStyle" id="420500" style="fill:#f6f67b"/>
<path d="" class="polyStyle" id="511300" style="fill:#f6f67b"/>
<path d="" class="polyStyle" id="420900" style="fill:#f6f67b"/>
<path d="" class="polyStyle" id="511700" style="fill:#ee8b94"/>
<path d="" class="polyStyle" id="420600" style="fill:#d4ecb2"/>
<path d="" class="polyStyle" id="411500" style="fill:#fbe6ef"/>
<path d="" class="polyStyle" id="510800" style="fill:#ee8b94"/>
<path d="" class="polyStyle" id="420300" style="fill:#fbe6ef"/>
<path d="" class="polyStyle" id="611000" style="fill:#ee8b94"/>
<path d="" class="polyStyle" id="620800" style="fill:#fbe6ef"/>
<path d="" class="polyStyle" id="370200" style="fill:#ee8b94"/>
<path d="" class="polyStyle" id="371000" style="fill:#f6f67b"/>
<path d="" class="polyStyle" id="370600" style="fill:#fbe6ef"/>
<path d="" class="polyStyle" id="120000" style="fill:#f6f67b"/>
<path d="" class="polyStyle" id="130200" style="fill:#ee8b94"/>
<path d="" class="polyStyle" id="130300" style="fill:#f6f67b"/>
<path d="" class="polyStyle" id="652900" style="fill:#fbe6ef"/>
<path d="" class="polyStyle" id="150500" style="fill:#d4ecb2"/>
<path d="" class="polyStyle" id="" style="fill:#d4ecb2"/>
<path d="" class="polyStyle" id="350500" style="fill:#fbe6ef"/>
<path d="" class="polyStyle" id="440400" style="fill:#f6f67b"/>
<path d="" class="polyStyle" id="421100" style="fill:#d4ecb2"/>
<path d="" class="polyStyle" id="420100" style="fill:#fbe6ef"/>
<path d="" class="polyStyle" id="532500" style="fill:#fbe6ef"/>
<path d="" class="polyStyle" id="654200" style="fill:#fbe6ef"/>
<path d="" class="polyStyle" id="210700" style="fill:#d4ecb2"/>
<path d="" class="polyStyle" id="522300" style="fill:#fbe6ef"/>
<path d="" class="polyStyle" id="" style="fill:#ee8b94"/>
<path d="" class="polyStyle" id="440400" style="fill:#f6f67b"/>
<path d="" class="polyStyle" id="620000" style="fill:#f6f67b"/>
<path d="" class="polyStyle" id="430000" style="fill:#fbe6ef"/>
<path d="" class="polyStyle" id="420000" style="fill:#ee8b94"/>
<path d="" class="polyStyle" id="410000" style="fill:#f6f67b"/>
<path d="" class="polyStyle" id="350000" style="fill:#fbe6ef"/>
<path d="" class="polyStyle" id="520000" style="fill:#f6f67b"/>
<path d="" class="polyStyle" id="" style="fill:#ee8b94"/>
</svg>
