<?xml version="1.0" encoding="UTF-8"?>
<!DOCTYPE svg PUBLIC "-//W3C//DTD SVG 1.1 Tiny//EN" "http://www.w3.org/Graphics/SVG/1.1/DTD/svg11-tiny.dtd">
<svg version="1.1" xmlns="http://www.w3.org/2000/svg" xmlns:xlink="http://www.w3.org/1999/xlink" width="100%" height="100%" viewBox="0,0,5023,4667">
<title>SVG</title>
<desc>Poligon Test</desc>
<style id="style_css_sheet" type="text/css">
.polyStyle{fill: #cccccc;stroke-width:0;fill-rule:evenodd;}
</style>
<circle cx="814" cy="1543" r="200" stroke="black" stroke-width="1" fill="red" id="220422" name="东辽县"/>
<circle cx="3460" cy="2789" r="200" stroke="black" stroke-width="1" fill="red" id="220421" name="东丰县"/>
<circle cx="1561" cy="1548" r="200" stroke="black" stroke-width="1" fill="red" id="220403"position="4" name="西安区"/>
<circle cx="1466" cy="1683" r="200" stroke="black" stroke-width="1" fill="red" id="220402"position="3" name="龙山区"/>
<path d="" class="polyStyle" id="" style="fill:#ee8b94"/>
<path d="" class="polyStyle" id="623022" style="fill:#fbe6ef"/>
<path d="" class="polyStyle" id="211421" style="fill:#f6f67b"/>
<path d="" class="polyStyle" id="532524" style="fill:#ee8b94"/>
<path d="" class="polyStyle" id="440825" style="fill:#f6f67b"/>
<path d="" class="polyStyle" id="441721" style="fill:#f6f67b"/>
<path d="" class="polyStyle" id="450521" style="fill:#f6f67b"/>
<path d="" class="polyStyle" id="450123" style="fill:#fbe6ef"/>
<path d="" class="polyStyle" id="350624" style="fill:#f6f67b"/>
<path d="" class="polyStyle" id="" style="fill:#fbe6ef"/>
<path d="" class="polyStyle" id="451224" style="fill:#fbe6ef"/>
<path d="" class="polyStyle" id="350627" style="fill:#f6f67b"/>
<path d="" class="polyStyle" id="" style="fill:#f6f67b"/>
<path d="" class="polyStyle" id="350525" style="fill:#f6f67b"/>
<path d="" class="polyStyle" id="530124" style="fill:#ee8b94"/>
<path d="" class="polyStyle" id="522627" style="fill:#ee8b94"/>
<path d="" class="polyStyle" id="510421" style="fill:#fbe6ef"/>
<path d="" class="polyStyle" id="522623" style="fill:#d4ecb2"/>
<path d="" class="polyStyle" id="430321" style="fill:#d4ecb2"/>
<path d="" class="polyStyle" id="511129" style="fill:#d4ecb2"/>
<path d="" class="polyStyle" id="511423" style="fill:#ee8b94"/>
<path d="" class="polyStyle" id="421023" style="fill:#f6f67b"/>
<path d="" class="polyStyle" id="511724" style="fill:#f6f67b"/>
<path d="" class="polyStyle" id="420526" style="fill:#fbe6ef"/>
<path d="" class="polyStyle" id="511923" style="fill:#fbe6ef"/>
<path d="" class="polyStyle" id="420325" style="fill:#fbe6ef"/>
<path d="" class="polyStyle" id="511921" style="fill:#f6f67b"/>
<path d="" class="polyStyle" id="542525" style="fill:#f6f67b"/>
<path d="" class="polyStyle" id="611026" style="fill:#ee8b94"/>
<path d="" class="polyStyle" id="411023" style="fill:#fbe6ef"/>
<path d="" class="polyStyle" id="632323" style="fill:#f6f67b"/>
<path d="" class="polyStyle" id="140525" style="fill:#d4ecb2"/>
<path d="" class="polyStyle" id="410922" style="fill:#ee8b94"/>
<path d="" class="polyStyle" id="621027" style="fill:#ee8b94"/>
<path d="" class="polyStyle" id="130427" style="fill:#f6f67b"/>
<path d="" class="polyStyle" id="130121" style="fill:#ee8b94"/>
<path d="" class="polyStyle" id="610823" style="fill:#fbe6ef"/>
<path d="" class="polyStyle" id="130225" style="fill:#fbe6ef"/>
<path d="" class="polyStyle" id="130322" style="fill:#d4ecb2"/>
<path d="" class="polyStyle" id="653130" style="fill:#f6f67b"/>
<path d="" class="polyStyle" id="130822" style="fill:#fbe6ef"/>
<path d="" class="polyStyle" id="211221" style="fill:#f6f67b"/>
<path d="" class="polyStyle" id="210921" style="fill:#f6f67b"/>
<path d="" class="polyStyle" id="150223" style="fill:#f8c67d"/>
<path d="M1821,32 L1830,40 L1835,51 L1835,67 L1839,79 L1854,89 L1855,95 L1850,105 L1879,131 L1890,138 L1903,146 L1911,159 L1938,182 L1951,194 L1964,202 L1975,207 L1983,215 L1985,223 L1988,228 L1989,234 L2000,245 L2008,255 L2017,264 L2030,271 L2034,280 L2040,288 L2050,297 L2075,308 L2088,317 L2100,334 L2107,345 L2119,354 L2130,357 L2136,360 L2143,367 L2147,384 L2149,391 L2158,401 L2176,409 L2195,417 L2205,419 L2225,424 L2232,430 L2261,443 L2290,457 L2323,468 L2335,473 L2356,488 L2374,495 L2384,497 L2406,500 L2412,502 L2423,504 L2444,512 L2459,517 L2471,520 L2500,532 L2514,538 L2535,553 L2561,570 L2587,587 L2601,594 L2616,607 L2642,621 L2658,623 L2676,619 L2709,637 L2750,629 L2747,598 L2753,567 L2774,539 L2777,537 L2781,533 L2787,525 L2795,515 L2799,509 L2802,502 L2804,499 L2812,495 L2815,493 L2844,495 L2908,507 L2915,539 L2926,575 L2938,606 L2958,633 L2980,669 L3021,676 L3054,692 L3084,703 L3087,704 L3092,704 L3101,704 L3105,705 L3111,706 L3115,707 L3118,709 L3123,712 L3124,717 L3124,720 L3121,723 L3117,727 L3113,729 L3108,731 L3103,735 L3097,743 L3095,748 L3095,756 L3095,762 L3095,768 L3094,771 L3095,774 L3097,777 L3102,779 L3107,780 L3110,781 L3113,780 L3116,779 L3120,778 L3126,776 L3131,776 L3134,779 L3137,780 L3141,782 L3145,782 L3148,782 L3152,784 L3155,788 L3158,793 L3161,796 L3165,798 L3168,799 L3172,799 L3177,799 L3180,801 L3181,805 L3181,808 L3183,811 L3185,813 L3189,813 L3194,814 L3198,814 L3201,815 L3205,817 L3209,822 L3216,828 L3219,832 L3221,836 L3218,839 L3215,841 L3210,843 L3204,845 L3199,848 L3194,851 L3191,851 L3187,853 L3188,858 L3192,861 L3196,864 L3206,872 L3211,876 L3216,881 L3221,887 L3224,889 L3227,891 L3230,895 L3230,898 L3230,903 L3229,906 L3234,912 L3240,915 L3245,919 L3247,922 L3251,929 L3256,929 L3259,928 L3262,926 L3266,924 L3269,925 L3275,930 L3275,933 L3272,939 L3271,943 L3271,948 L3273,951 L3277,954 L3281,954 L3285,953 L3289,952 L3294,953 L3297,954 L3299,955 L3300,958 L3302,964 L3303,971 L3306,975 L3308,977 L3312,977 L3316,976 L3320,977 L3322,979 L3326,983 L3327,987 L3327,996 L3331,1000 L3336,1002 L3339,1002 L3343,1004 L3350,1006 L3353,1006 L3359,1005 L3364,1004 L3370,1000 L3375,997 L3381,995 L3388,991 L3392,988 L3397,987 L3400,986 L3405,984 L3408,982 L3411,979 L3414,978 L3417,978 L3421,979 L3425,978 L3430,979 L3434,979 L3437,980 L3439,981 L3443,980 L3447,978 L3450,976 L3455,972 L3461,968 L3465,968 L3469,968 L3474,970 L3478,971 L3482,971 L3488,974 L3493,980 L3495,984 L3497,991 L3499,995 L3501,1000 L3506,1002 L3512,1003 L3523,1004 L3531,1004 L3538,1005 L3541,1006 L3547,1009 L3550,1014 L3551,1019 L3553,1023 L3559,1026 L3562,1027 L3566,1027 L3575,1027 L3582,1028 L3592,1029 L3598,1030 L3601,1032 L3604,1036 L3606,1039 L3606,1044 L3603,1050 L3606,1054 L3606,1057 L3603,1065 L3599,1067 L3594,1069 L3592,1072 L3592,1077 L3594,1082 L3596,1089 L3599,1095 L3603,1099 L3606,1102 L3610,1102 L3613,1103 L3615,1101 L3618,1098 L3623,1094 L3628,1094 L3630,1098 L3632,1101 L3636,1102 L3638,1104 L3638,1107 L3643,1112 L3645,1116 L3649,1121 L3655,1127 L3660,1130 L3662,1132 L3663,1137 L3662,1140 L3660,1145 L3658,1150 L3661,1154 L3665,1158 L3669,1160 L3673,1161 L3677,1161 L3686,1157 L3690,1157 L3693,1159 L3697,1162 L3700,1164 L3706,1165 L3710,1166 L3715,1168 L3719,1168 L3723,1168 L3725,1169 L3723,1172 L3720,1173 L3715,1173 L3710,1176 L3706,1179 L3703,1183 L3701,1187 L3703,1194 L3703,1199 L3702,1206 L3699,1209 L3701,1215 L3702,1241 L3700,1266 L3730,1290 L3759,1319 L3769,1351 L3729,1353 L3703,1373 L3673,1400 L3649,1426 L3620,1413 L3588,1414 L3563,1419 L3533,1412 L3505,1425 L3475,1449 L3441,1468 L3411,1475 L3388,1500 L3397,1526 L3412,1556 L3412,1585 L3409,1588 L3404,1591 L3400,1593 L3397,1601 L3397,1603 L3395,1606 L3394,1608 L3394,1611 L3393,1615 L3393,1618 L3392,1623 L3389,1625 L3386,1626 L3382,1628 L3379,1630 L3375,1630 L3371,1632 L3371,1635 L3375,1637 L3378,1638 L3381,1639 L3386,1640 L3389,1642 L3392,1644 L3394,1648 L3396,1650 L3396,1653 L3396,1658 L3396,1660 L3395,1664 L3393,1668 L3392,1673 L3375,1683 L3371,1684 L3375,1688 L3378,1691 L3382,1696 L3386,1703 L3392,1705 L3396,1704 L3402,1702 L3407,1700 L3409,1700 L3412,1702 L3415,1703 L3418,1705 L3421,1706 L3423,1705 L3427,1705 L3431,1705 L3433,1707 L3436,1710 L3435,1714 L3437,1716 L3439,1719 L3440,1722 L3440,1726 L3441,1730 L3461,1754 L3462,1779 L3477,1809 L3451,1837 L3454,1864 L3437,1890 L3430,1920 L3457,1948 L3486,1949 L3517,1949 L3543,1966 L3511,1978 L3478,2001 L3447,1999 L3414,1994 L3378,1998 L3348,2002 L3320,2010 L3291,2016 L3265,2026 L3292,2052 L3293,2081 L3272,2107 L3259,2135 L3253,2161 L3225,2173 L3193,2181 L3190,2182 L3187,2185 L3182,2187 L3180,2188 L3177,2189 L3174,2190 L3171,2191 L3168,2192 L3165,2192 L3161,2192 L3156,2193 L3153,2194 L3149,2194 L3145,2195 L3141,2195 L3138,2195 L3134,2195 L3130,2195 L3127,2195 L3124,2194 L3120,2194 L3116,2194 L3113,2195 L3111,2197 L3109,2199 L3107,2202 L3105,2205 L3104,2208 L3103,2211 L3102,2213 L3100,2214 L3098,2220 L3099,2223 L3102,2224 L3106,2225 L3109,2225 L3112,2225 L3114,2226 L3117,2226 L3120,2227 L3122,2228 L3125,2229 L3130,2230 L3133,2232 L3135,2234 L3138,2236 L3141,2238 L3143,2240 L3146,2244 L3143,2245 L3140,2247 L3136,2249 L3134,2269 L3115,2301 L3079,2311 L3050,2321 L3024,2323 L2995,2314 L2968,2307 L2942,2311 L2916,2329 L2883,2340 L2857,2355 L2831,2363 L2829,2363 L2826,2363 L2822,2361 L2820,2361 L2817,2362 L2815,2364 L2812,2367 L2809,2369 L2806,2372 L2804,2375 L2801,2378 L2798,2379 L2796,2380 L2794,2382 L2790,2383 L2788,2384 L2784,2385 L2778,2388 L2772,2390 L2766,2392 L2758,2393 L2751,2393 L2745,2393 L2737,2392 L2734,2392 L2730,2392 L2727,2393 L2724,2393 L2721,2392 L2718,2388 L2716,2385 L2715,2382 L2711,2383 L2710,2381 L2709,2378 L2708,2375 L2704,2373 L2701,2371 L2701,2368 L2702,2364 L2699,2363 L2695,2364 L2692,2366 L2692,2375 L2692,2379 L2691,2384 L2689,2387 L2685,2395 L2685,2398 L2685,2402 L2686,2407 L2686,2410 L2684,2414 L2681,2421 L2677,2425 L2674,2431 L2670,2431 L2667,2432 L2664,2433 L2661,2433 L2658,2432 L2655,2433 L2652,2434 L2646,2433 L2643,2431 L2638,2429 L2626,2428 L2619,2426 L2609,2422 L2603,2420 L2589,2414 L2586,2411 L2579,2407 L2568,2403 L2536,2399 L2512,2394 L2505,2390 L2499,2388 L2495,2387 L2493,2388 L2489,2388 L2484,2390 L2481,2393 L2478,2395 L2476,2397 L2471,2397 L2464,2397 L2458,2397 L2451,2397 L2448,2399 L2448,2403 L2447,2408 L2446,2412 L2442,2415 L2439,2420 L2437,2423 L2433,2423 L2429,2424 L2422,2426 L2418,2426 L2412,2425 L2409,2425 L2406,2429 L2403,2434 L2404,2437 L2403,2441 L2403,2446 L2405,2447 L2406,2454 L2403,2457 L2403,2462 L2403,2468 L2401,2474 L2404,2479 L2409,2481 L2412,2484 L2412,2488 L2410,2491 L2409,2494 L2413,2495 L2416,2496 L2421,2497 L2426,2497 L2429,2498 L2433,2499 L2438,2500 L2440,2502 L2441,2508 L2444,2512 L2448,2514 L2450,2518 L2450,2522 L2449,2525 L2447,2528 L2446,2530 L2446,2533 L2444,2536 L2442,2538 L2440,2539 L2437,2541 L2434,2543 L2430,2544 L2427,2544 L2423,2540 L2415,2535 L2410,2531 L2402,2527 L2396,2524 L2392,2523 L2386,2523 L2381,2527 L2382,2530 L2384,2533 L2387,2535 L2387,2541 L2385,2544 L2385,2547 L2382,2550 L2379,2550 L2375,2550 L2371,2552 L2368,2555 L2369,2557 L2369,2559 L2367,2563 L2363,2567 L2356,2570 L2349,2571 L2347,2573 L2343,2573 L2340,2573 L2326,2575 L2295,2599 L2268,2596 L2242,2622 L2213,2646 L2206,2651 L2200,2652 L2197,2654 L2197,2657 L2198,2662 L2197,2665 L2195,2668 L2191,2669 L2187,2670 L2184,2669 L2181,2669 L2177,2669 L2174,2671 L2171,2672 L2168,2672 L2164,2672 L2161,2671 L2159,2670 L2157,2671 L2154,2671 L2151,2673 L2146,2674 L2143,2676 L2141,2680 L2141,2685 L2142,2688 L2144,2691 L2147,2694 L2151,2699 L2152,2703 L2150,2706 L2146,2707 L2143,2707 L2140,2707 L2138,2707 L2135,2707 L2130,2708 L2127,2708 L2122,2708 L2119,2708 L2117,2708 L2113,2707 L2109,2707 L2107,2706 L2104,2707 L2100,2707 L2095,2707 L2091,2706 L2088,2708 L2077,2705 L2052,2693 L2026,2679 L1996,2673 L1980,2700 L1955,2722 L1927,2735 L1896,2736 L1869,2743 L1841,2757 L1859,2783 L1856,2794 L1827,2809 L1799,2823 L1785,2834 L1743,2832 L1717,2817 L1690,2815 L1662,2821 L1634,2825 L1607,2823 L1581,2809 L1579,2807 L1578,2804 L1575,2802 L1571,2802 L1568,2801 L1565,2800 L1563,2800 L1560,2799 L1558,2799 L1554,2799 L1551,2798 L1547,2798 L1543,2797 L1539,2797 L1535,2797 L1528,2798 L1523,2800 L1520,2802 L1517,2802 L1513,2800 L1512,2797 L1512,2792 L1515,2788 L1517,2783 L1518,2779 L1515,2775 L1513,2775 L1510,2775 L1505,2771 L1501,2767 L1495,2763 L1491,2762 L1470,2747 L1445,2733 L1415,2733 L1387,2740 L1360,2741 L1334,2729 L1308,2708 L1282,2690 L1253,2682 L1243,2702 L1243,2707 L1244,2710 L1243,2713 L1244,2716 L1247,2720 L1248,2726 L1247,2733 L1246,2738 L1246,2741 L1245,2745 L1242,2748 L1239,2752 L1239,2755 L1236,2757 L1234,2757 L1231,2757 L1229,2757 L1226,2755 L1223,2755 L1220,2756 L1217,2757 L1211,2756 L1206,2757 L1203,2758 L1199,2757 L1196,2757 L1194,2756 L1190,2756 L1188,2759 L1185,2761 L1185,2764 L1186,2767 L1184,2770 L1183,2773 L1182,2776 L1182,2779 L1182,2781 L1183,2785 L1185,2789 L1187,2791 L1196,2797 L1199,2804 L1196,2808 L1194,2810 L1192,2812 L1190,2814 L1186,2817 L1182,2820 L1179,2821 L1175,2823 L1173,2827 L1170,2830 L1166,2832 L1163,2834 L1165,2837 L1165,2839 L1162,2841 L1162,2844 L1163,2847 L1164,2850 L1167,2851 L1175,2850 L1178,2850 L1182,2850 L1184,2853 L1187,2856 L1189,2860 L1191,2863 L1194,2865 L1199,2868 L1196,2870 L1193,2874 L1190,2875 L1186,2877 L1182,2878 L1177,2878 L1176,2882 L1175,2885 L1173,2887 L1171,2889 L1172,2892 L1175,2894 L1177,2898 L1179,2900 L1181,2902 L1182,2905 L1183,2908 L1185,2911 L1182,2913 L1179,2916 L1178,2918 L1175,2922 L1171,2923 L1166,2924 L1162,2926 L1163,2929 L1164,2934 L1163,2938 L1161,2940 L1158,2943 L1155,2945 L1151,2948 L1149,2951 L1146,2953 L1143,2954 L1140,2955 L1138,2957 L1135,2958 L1133,2960 L1133,2965 L1134,2967 L1136,2968 L1139,2969 L1141,2972 L1138,2975 L1134,2976 L1131,2975 L1127,2976 L1124,2978 L1121,2981 L1118,2982 L1115,2982 L1110,2982 L1106,2985 L1103,2985 L1099,2988 L1098,2992 L1101,2995 L1102,2998 L1099,3003 L1096,3007 L1092,3011 L1091,3013 L1088,3017 L1089,3019 L1089,3023 L1088,3026 L1087,3030 L1085,3034 L1083,3038 L1080,3043 L1079,3046 L1076,3048 L1032,3067 L1006,3089 L992,3093 L968,3089 L956,3083 L952,3079 L946,3065 L912,3033 L884,3027 L870,3015 L858,3007 L860,2995 L878,2959 L890,2927 L900,2905 L892,2887 L864,2865 L882,2849 L878,2839 L870,2835 L786,2791 L768,2783 L746,2779 L730,2785 L718,2789 L702,2799 L694,2801 L676,2803 L664,2801 L654,2803 L648,2799 L644,2797 L630,2780 L632,2773 L642,2767 L670,2757 L728,2733 L736,2729 L742,2717 L748,2703 L750,2691 L750,2683 L744,2671 L736,2663 L720,2651 L702,2631 L660,2593 L686,2583 L682,2573 L648,2559 L650,2551 L678,2539 L692,2527 L712,2523 L720,2523 L730,2529 L738,2531 L746,2529 L753,2526 L756,2519 L780,2459 L780,2447 L780,2439 L764,2425 L740,2409 L706,2405 L702,2399 L712,2385 L716,2367 L748,2367 L768,2339 L772,2319 L772,2303 L770,2293 L766,2285 L754,2273 L742,2265 L734,2261 L726,2261 L714,2259 L686,2251 L678,2239 L682,2223 L684,2213 L688,2199 L688,2195 L690,2183 L690,2179 L682,2153 L668,2145 L652,2143 L624,2139 L598,2139 L566,2133 L528,2121 L502,2111 L492,2101 L480,2085 L472,2065 L460,2065 L452,2065 L438,2069 L434,2073 L418,2081 L380,2079 L368,2083 L364,2091 L368,2151 L366,2155 L358,2161 L340,2195 L326,2213 L310,2225 L294,2227 L242,2217 L206,2225 L190,2223 L180,2219 L172,2215 L166,2209 L164,2201 L158,2191 L154,2177 L132,2134 L125,2125 L122,2121 L119,2118 L117,2115 L116,2112 L114,2108 L113,2103 L112,2100 L110,2096 L101,2080 L98,2076 L97,2073 L96,2070 L93,2065 L94,2053 L93,2050 L92,2046 L91,2043 L90,2039 L83,2024 L85,2022 L86,2018 L92,2010 L94,2006 L95,2003 L96,2000 L97,1995 L96,1975 L97,1967 L98,1962 L103,1953 L104,1947 L101,1943 L94,1935 L88,1929 L83,1924 L83,1919 L82,1916 L81,1913 L81,1910 L79,1906 L78,1898 L78,1889 L79,1881 L80,1876 L81,1868 L82,1860 L81,1849 L80,1838 L78,1829 L73,1822 L67,1817 L61,1813 L57,1810 L56,1805 L60,1803 L65,1801 L64,1797 L62,1793 L59,1792 L49,1787 L48,1783 L49,1779 L48,1763 L49,1758 L50,1755 L53,1752 L57,1750 L60,1748 L65,1745 L68,1745 L73,1743 L80,1738 L82,1733 L81,1727 L79,1723 L77,1719 L76,1715 L74,1712 L68,1708 L65,1707 L61,1706 L57,1704 L57,1695 L58,1692 L61,1678 L64,1669 L67,1660 L69,1657 L72,1653 L83,1645 L87,1643 L90,1642 L93,1642 L96,1641 L99,1638 L101,1635 L100,1625 L99,1622 L98,1619 L97,1614 L96,1599 L104,1590 L126,1576 L127,1545 L140,1521 L141,1517 L143,1513 L144,1508 L145,1505 L146,1502 L147,1497 L146,1489 L144,1483 L139,1479 L133,1477 L128,1474 L125,1471 L126,1462 L127,1459 L129,1454 L128,1444 L127,1441 L128,1433 L133,1428 L136,1425 L139,1422 L141,1418 L142,1414 L143,1409 L144,1406 L144,1403 L146,1398 L148,1393 L154,1389 L158,1387 L161,1387 L164,1386 L169,1384 L169,1380 L165,1378 L162,1376 L159,1376 L154,1375 L151,1376 L147,1377 L140,1376 L139,1372 L143,1367 L146,1366 L151,1364 L156,1363 L161,1359 L161,1356 L155,1357 L152,1357 L147,1359 L142,1360 L137,1358 L137,1352 L137,1349 L138,1346 L144,1338 L147,1335 L152,1332 L155,1331 L158,1330 L163,1329 L167,1328 L170,1327 L173,1323 L172,1320 L165,1314 L158,1309 L155,1310 L151,1305 L148,1304 L144,1300 L141,1295 L140,1292 L139,1287 L140,1284 L140,1278 L145,1271 L143,1261 L141,1257 L140,1254 L143,1249 L147,1247 L149,1244 L155,1241 L158,1238 L162,1236 L155,1233 L152,1232 L147,1227 L143,1223 L135,1219 L130,1220 L120,1219 L117,1218 L116,1213 L117,1206 L116,1202 L113,1198 L110,1195 L106,1193 L106,1187 L104,1182 L103,1179 L97,1177 L94,1176 L90,1174 L88,1171 L91,1166 L97,1162 L100,1160 L106,1157 L110,1154 L106,1147 L102,1140 L99,1135 L98,1132 L96,1129 L95,1124 L94,1119 L92,1116 L91,1113 L90,1110 L83,1103 L80,1100 L78,1097 L72,1094 L69,1093 L61,1089 L54,1086 L47,1076 L45,1070 L43,1067 L41,1063 L39,1058 L37,1054 L33,1047 L26,1041 L22,1040 L18,1038 L12,1037 L4,1032 L3,1029 L0,1025 L0,1017 L4,1010 L7,1006 L10,1003 L13,1001 L18,998 L22,994 L29,990 L40,988 L45,987 L49,988 L57,989 L63,990 L67,991 L72,992 L76,992 L83,993 L87,994 L90,995 L97,996 L101,997 L116,996 L120,994 L122,989 L119,983 L115,979 L111,977 L93,969 L89,967 L90,955 L91,950 L92,946 L93,938 L95,923 L96,918 L97,915 L101,912 L106,909 L113,905 L120,902 L127,900 L131,899 L134,898 L138,897 L144,896 L147,894 L151,890 L154,887 L156,882 L158,879 L160,874 L161,871 L163,865 L164,862 L165,858 L166,855 L169,852 L169,846 L178,838 L184,832 L188,830 L193,827 L198,824 L205,820 L210,817 L215,814 L218,813 L227,806 L237,799 L246,794 L249,786 L247,782 L245,779 L237,772 L230,766 L229,760 L217,757 L204,711 L190,695 L187,671 L202,591 L224,552 L235,549 L236,539 L230,531 L236,527 L211,503 L224,494 L233,488 L246,484 L264,485 L280,489 L295,481 L299,477 L302,474 L305,467 L312,455 L317,449 L321,448 L326,448 L332,447 L337,446 L350,446 L360,444 L371,439 L383,432 L387,426 L390,420 L408,421 L415,422 L417,410 L420,409 L424,408 L427,406 L431,404 L434,403 L438,400 L440,399 L445,396 L448,395 L450,393 L453,392 L460,388 L468,384 L472,380 L483,372 L491,367 L498,360 L504,354 L509,352 L515,348 L520,345 L524,341 L530,338 L534,337 L538,335 L542,331 L547,328 L551,326 L554,325 L558,323 L561,323 L563,321 L565,320 L568,323 L575,321 L581,319 L586,317 L591,315 L596,312 L599,309 L603,306 L609,301 L614,298 L619,295 L623,292 L627,291 L632,290 L640,288 L645,285 L645,282 L644,278 L644,274 L642,271 L641,265 L639,259 L637,254 L635,250 L633,244 L630,238 L629,234 L628,230 L629,225 L631,222 L636,220 L641,217 L644,214 L647,213 L651,211 L669,201 L675,196 L680,192 L684,189 L692,189 L695,191 L698,193 L701,195 L704,195 L707,195 L711,196 L714,196 L719,195 L725,195 L729,194 L732,193 L736,192 L740,190 L743,188 L745,187 L747,185 L751,183 L754,183 L759,184 L762,184 L765,182 L767,181 L771,180 L774,179 L778,177 L784,175 L790,176 L794,178 L799,180 L811,185 L816,188 L820,189 L824,187 L828,185 L831,185 L835,183 L840,182 L844,181 L848,179 L851,178 L855,177 L859,175 L862,174 L866,171 L869,170 L874,166 L878,163 L882,161 L885,158 L887,156 L888,154 L891,151 L893,148 L894,144 L894,141 L894,138 L892,135 L891,130 L893,126 L896,124 L899,121 L903,118 L908,116 L912,113 L917,110 L921,109 L923,106 L923,103 L923,98 L937,95 L951,92 L960,90 L966,88 L972,84 L987,74 L998,69 L1008,64 L1013,59 L1016,58 L1020,60 L1025,63 L1033,69 L1043,72 L1048,72 L1060,70 L1066,69 L1069,71 L1073,75 L1106,101 L1111,104 L1114,105 L1120,105 L1130,104 L1136,102 L1141,101 L1146,97 L1150,94 L1157,93 L1167,91 L1178,89 L1187,88 L1192,88 L1197,88 L1208,87 L1212,84 L1216,83 L1221,84 L1224,84 L1231,86 L1240,90 L1248,92 L1254,93 L1261,92 L1271,90 L1276,88 L1282,86 L1285,85 L1295,75 L1299,70 L1303,70 L1307,71 L1310,72 L1314,73 L1321,70 L1326,69 L1329,68 L1332,69 L1337,71 L1351,69 L1362,69 L1370,68 L1383,67 L1393,67 L1401,66 L1410,65 L1417,64 L1421,64 L1426,64 L1430,64 L1436,62 L1442,60 L1450,58 L1463,55 L1471,52 L1476,50 L1483,49 L1487,49 L1494,51 L1499,53 L1505,53 L1509,53 L1514,53 L1518,52 L1523,51 L1526,51 L1529,51 L1534,52 L1537,52 L1544,52 L1547,51 L1551,52 L1555,52 L1558,48 L1561,45 L1565,44 L1568,41 L1572,38 L1575,35 L1577,33 L1583,31 L1590,30 L1596,30 L1609,30 L1622,30 L1632,31 L1647,34 L1651,33 L1659,34 L1673,36 L1678,36 L1685,35 L1689,35 L1691,34 L1692,32 L1695,33 L1699,33 L1703,31 L1709,31 L1715,33 L1723,32 L1731,31 L1741,30 L1747,30 L1762,29 L1778,27 L1794,26 L1803,25 L1806,24 L1821,32z M1605,824 L1611,822 L1614,826 L1618,832 L1622,835 L1628,834 L1642,831 L1652,824 L1660,824 L1666,828 L1669,834 L1670,841 L1671,851 L1676,860 L1683,866 L1689,868 L1698,868 L1702,870 L1708,875 L1711,879 L1717,882 L1722,881 L1726,883 L1731,887 L1735,892 L1739,893 L1743,889 L1746,883 L1755,882 L1770,883 L1787,878 L1815,876 L1834,878 L1853,885 L1864,889 L1879,899 L1890,902 L1893,912 L1893,931 L1896,940 L1904,943 L1917,946 L1930,956 L1949,959 L1960,966 L1973,970 L1984,974 L1995,980 L2004,983 L2014,976 L2024,974 L2038,980 L2047,987 L2055,991 L2059,997 L2056,998 L2054,1003 L2053,1011 L2047,1023 L2050,1024 L2054,1024 L2057,1026 L2060,1027 L2061,1030 L2061,1033 L2060,1037 L2059,1040 L2060,1043 L2064,1045 L2068,1047 L2071,1049 L2073,1051 L2074,1054 L2075,1057 L2076,1059 L2078,1061 L2082,1062 L2086,1061 L2089,1061 L2093,1060 L2097,1059 L2099,1059 L2103,1061 L2106,1064 L2110,1064 L2115,1067 L2120,1070 L2129,1074 L2134,1076 L2140,1077 L2151,1078 L2150,1081 L2142,1090 L2141,1095 L2146,1110 L2151,1115 L2156,1118 L2163,1120 L2176,1121 L2180,1123 L2184,1126 L2189,1130 L2193,1133 L2193,1139 L2192,1142 L2193,1145 L2199,1155 L2203,1163 L2209,1171 L2217,1179 L2223,1185 L2226,1189 L2231,1192 L2234,1200 L2229,1202 L2226,1206 L2224,1209 L2222,1214 L2219,1222 L2212,1232 L2207,1235 L2198,1239 L2188,1243 L2197,1251 L2205,1255 L2213,1261 L2215,1264 L2217,1269 L2219,1277 L2223,1288 L2225,1292 L2239,1293 L2244,1294 L2250,1295 L2257,1295 L2261,1295 L2266,1298 L2269,1300 L2269,1302 L2266,1303 L2263,1305 L2259,1308 L2256,1309 L2254,1311 L2252,1312 L2261,1328 L2266,1339 L2265,1342 L2260,1360 L2254,1374 L2256,1378 L2258,1383 L2261,1390 L2262,1396 L2262,1399 L2264,1403 L2271,1414 L2274,1419 L2269,1420 L2257,1423 L2252,1424 L2249,1427 L2250,1431 L2253,1433 L2258,1439 L2263,1449 L2264,1452 L2271,1460 L2285,1461 L2288,1461 L2291,1461 L2296,1457 L2304,1453 L2314,1457 L2330,1464 L2335,1464 L2338,1464 L2342,1466 L2345,1470 L2352,1484 L2354,1487 L2363,1493 L2361,1502 L2360,1505 L2357,1507 L2354,1508 L2351,1507 L2348,1508 L2345,1509 L2342,1510 L2338,1511 L2334,1512 L2331,1512 L2330,1518 L2332,1525 L2335,1528 L2339,1527 L2345,1526 L2348,1526 L2353,1527 L2356,1528 L2357,1530 L2357,1534 L2356,1537 L2354,1548 L2352,1560 L2352,1564 L2349,1568 L2346,1569 L2335,1571 L2330,1571 L2322,1571 L2323,1575 L2325,1578 L2326,1582 L2327,1584 L2330,1586 L2331,1588 L2334,1592 L2336,1597 L2337,1599 L2339,1602 L2345,1607 L2349,1609 L2358,1614 L2363,1616 L2367,1616 L2373,1615 L2374,1612 L2375,1608 L2378,1606 L2382,1606 L2384,1609 L2388,1611 L2392,1612 L2395,1614 L2399,1611 L2403,1609 L2405,1609 L2407,1612 L2409,1616 L2411,1620 L2413,1623 L2415,1623 L2417,1616 L2420,1612 L2418,1609 L2419,1605 L2423,1603 L2428,1603 L2433,1606 L2437,1606 L2443,1606 L2446,1608 L2441,1616 L2437,1623 L2439,1630 L2444,1643 L2443,1646 L2444,1648 L2444,1651 L2444,1654 L2444,1657 L2443,1660 L2442,1664 L2441,1666 L2440,1670 L2439,1672 L2437,1675 L2434,1678 L2430,1680 L2425,1683 L2422,1686 L2411,1702 L2413,1708 L2416,1713 L2419,1716 L2421,1718 L2424,1719 L2428,1720 L2430,1722 L2431,1725 L2431,1727 L2432,1730 L2434,1733 L2436,1737 L2438,1739 L2440,1741 L2442,1742 L2443,1745 L2443,1748 L2443,1750 L2443,1755 L2444,1758 L2444,1762 L2441,1773 L2441,1785 L2448,1787 L2454,1788 L2457,1789 L2459,1791 L2458,1795 L2447,1797 L2441,1799 L2434,1799 L2429,1806 L2427,1813 L2424,1814 L2420,1814 L2413,1810 L2409,1810 L2399,1813 L2391,1817 L2387,1820 L2382,1827 L2378,1830 L2368,1836 L2360,1840 L2354,1849 L2348,1854 L2345,1855 L2341,1854 L2338,1854 L2335,1855 L2330,1858 L2326,1857 L2322,1855 L2320,1852 L2317,1849 L2311,1845 L2308,1842 L2300,1832 L2291,1828 L2291,1825 L2278,1821 L2272,1819 L2268,1818 L2258,1818 L2253,1818 L2250,1817 L2244,1815 L2240,1812 L2237,1812 L2234,1813 L2230,1813 L2227,1811 L2223,1811 L2216,1809 L2211,1807 L2205,1802 L2203,1798 L2199,1794 L2195,1792 L2193,1792 L2189,1794 L2185,1795 L2182,1794 L2178,1793 L2175,1796 L2168,1805 L2161,1809 L2155,1812 L2149,1816 L2142,1822 L2139,1826 L2133,1830 L2128,1833 L2124,1834 L2117,1836 L2110,1837 L2103,1836 L2099,1836 L2099,1840 L2098,1844 L2096,1847 L2092,1848 L2089,1849 L2086,1850 L2083,1853 L2079,1856 L2075,1859 L2072,1859 L2068,1862 L2061,1866 L2047,1879 L2034,1900 L2052,1902 L2056,1915 L2035,1912 L2008,1922 L2009,1943 L1992,1948 L2000,1964 L1978,1971 L1955,1987 L1932,1989 L1907,2005 L1887,1993 L1886,1980 L1866,1970 L1862,1968 L1860,1958 L1857,1949 L1845,1940 L1835,1930 L1831,1920 L1833,1909 L1831,1902 L1821,1895 L1820,1892 L1808,1886 L1775,1902 L1747,1909 L1714,1917 L1691,1919 L1663,1920 L1646,1912 L1637,1955 L1617,1980 L1604,1994 L1573,1999 L1547,2011 L1541,2022 L1541,2025 L1540,2029 L1543,2033 L1541,2035 L1538,2039 L1537,2044 L1535,2047 L1533,2051 L1529,2054 L1526,2055 L1523,2056 L1522,2061 L1520,2064 L1519,2066 L1519,2071 L1520,2076 L1518,2081 L1515,2085 L1509,2089 L1505,2089 L1501,2089 L1497,2089 L1493,2088 L1490,2089 L1487,2091 L1485,2089 L1482,2087 L1478,2086 L1474,2087 L1470,2088 L1466,2089 L1461,2088 L1458,2086 L1454,2083 L1452,2080 L1452,2078 L1449,2076 L1444,2077 L1440,2077 L1436,2077 L1434,2075 L1430,2070 L1427,2066 L1427,2063 L1429,2060 L1430,2057 L1427,2051 L1423,2045 L1421,2041 L1421,2037 L1423,2032 L1424,2027 L1426,2024 L1427,2022 L1426,2020 L1423,2016 L1421,2012 L1419,2009 L1416,2007 L1414,2005 L1411,2003 L1409,2002 L1405,2002 L1400,2000 L1397,1998 L1394,1997 L1392,1996 L1389,1994 L1387,1993 L1383,1991 L1380,1989 L1375,1986 L1372,1985 L1368,1982 L1365,1981 L1361,1981 L1358,1981 L1354,1980 L1350,1979 L1346,1979 L1343,1983 L1342,1987 L1337,1990 L1334,1990 L1326,1988 L1323,1987 L1320,1985 L1316,1984 L1312,1984 L1309,1986 L1305,1990 L1304,1993 L1302,1994 L1299,1994 L1297,1992 L1296,1990 L1296,1987 L1296,1983 L1295,1980 L1294,1977 L1293,1974 L1292,1970 L1292,1967 L1292,1965 L1291,1962 L1289,1959 L1289,1957 L1289,1953 L1287,1950 L1284,1947 L1282,1943 L1281,1940 L1277,1937 L1275,1934 L1273,1932 L1271,1931 L1267,1930 L1264,1930 L1261,1927 L1255,1923 L1247,1924 L1243,1923 L1240,1919 L1223,1913 L1220,1911 L1215,1902 L1215,1898 L1212,1895 L1210,1893 L1208,1890 L1205,1886 L1204,1882 L1207,1869 L1207,1843 L1221,1815 L1233,1795 L1237,1782 L1222,1775 L1196,1767 L1193,1739 L1211,1714 L1215,1699 L1209,1684 L1200,1666 L1193,1650 L1183,1633 L1171,1619 L1162,1600 L1174,1583 L1195,1575 L1186,1572 L1177,1569 L1162,1563 L1147,1573 L1128,1567 L1141,1550 L1126,1544 L1113,1544 L1103,1543 L1093,1539 L1092,1525 L1102,1513 L1129,1500 L1139,1494 L1152,1479 L1158,1456 L1148,1433 L1145,1416 L1151,1394 L1146,1375 L1123,1363 L1106,1348 L1098,1332 L1086,1317 L1080,1305 L1069,1296 L1038,1280 L1012,1268 L981,1254 L954,1244 L922,1229 L895,1219 L865,1209 L800,1188 L764,1177 L750,1173 L734,1173 L699,1174 L660,1175 L637,1175 L624,1176 L617,1177 L613,1174 L613,1171 L616,1166 L624,1161 L635,1159 L653,1156 L679,1152 L690,1150 L699,1149 L710,1150 L720,1150 L729,1151 L747,1149 L765,1145 L780,1137 L800,1125 L811,1119 L813,1116 L815,1109 L817,1101 L822,1096 L828,1091 L838,1087 L847,1084 L850,1081 L855,1075 L855,1067 L855,1060 L857,1053 L862,1056 L867,1059 L873,1062 L882,1067 L890,1072 L896,1076 L903,1079 L907,1080 L911,1082 L922,1087 L944,1095 L948,1097 L958,1100 L967,1103 L978,1107 L982,1108 L986,1108 L990,1109 L994,1110 L998,1111 L1002,1112 L1012,1113 L1021,1114 L1041,1115 L1053,1115 L1058,1116 L1068,1124 L1072,1128 L1076,1133 L1080,1138 L1090,1140 L1106,1139 L1117,1139 L1142,1134 L1174,1127 L1207,1115 L1223,1107 L1238,1094 L1245,1084 L1252,1070 L1255,1065 L1261,1062 L1272,1058 L1283,1053 L1293,1048 L1310,1034 L1337,1012 L1348,1000 L1361,984 L1367,974 L1370,962 L1372,959 L1378,958 L1391,957 L1405,959 L1419,963 L1427,963 L1436,961 L1449,954 L1462,949 L1473,947 L1485,947 L1494,951 L1502,958 L1510,968 L1524,977 L1532,979 L1541,979 L1546,976 L1552,974 L1562,971 L1575,972 L1582,974 L1588,974 L1591,973 L1597,973 L1604,967 L1605,960 L1605,954 L1602,950 L1599,942 L1598,935 L1601,924 L1607,913 L1608,904 L1604,895 L1597,884 L1589,871 L1583,863 L1578,860 L1579,857 L1582,855 L1590,847 L1595,835 L1605,824z " class="polyStyle" id="220422" style="fill:#d4ecb2"/>
<polygon points="2920,6 2923,6 2940,15 2973,17 2974,24 2987,52 2996,55 3019,48 3032,47 3044,51 3047,59 3043,70 3050,76 3078,80 3097,96 3109,123 3115,141 3127,151 3144,152 3162,150 3170,152 3182,160 3200,162 3212,171 3226,190 3238,218 3250,238 3246,267 3230,298 3212,324 3194,352 3200,381 3196,406 3201,432 3220,460 3213,495 3238,533 3247,563 3250,595 3261,630 3287,663 3314,666 3343,670 3369,673 3395,680 3424,681 3450,674 3483,676 3509,680 3536,685 3564,693 3597,708 3628,733 3655,756 3688,771 3709,798 3739,812 3769,817 3805,818 3836,824 3865,826 3891,820 3917,814 3946,811 3972,811 3999,820 4030,839 4056,851 4089,868 4100,876 4107,878 4112,883 4116,885 4120,886 4129,892 4136,898 4138,901 4145,906 4148,909 4151,916 4153,919 4155,924 4159,929 4164,934 4168,939 4171,942 4174,944 4177,948 4181,951 4188,954 4192,955 4201,956 4205,957 4209,958 4215,959 4219,960 4223,961 4228,963 4233,966 4239,969 4244,974 4253,977 4258,980 4269,984 4272,985 4279,987 4283,988 4289,989 4293,990 4297,991 4304,992 4308,993 4311,994 4315,995 4319,996 4324,997 4328,998 4332,999 4339,1000 4348,1012 4352,1016 4354,1019 4357,1021 4360,1024 4366,1028 4373,1029 4380,1030 4387,1032 4405,1038 4413,1041 4419,1045 4427,1050 4431,1053 4434,1059 4436,1076 4434,1083 4439,1090 4435,1098 4435,1113 4439,1114 4449,1115 4456,1117 4462,1120 4473,1129 4481,1134 4485,1138 4472,1150 4487,1169 4493,1183 4496,1208 4500,1217 4512,1232 4518,1244 4522,1257 4526,1266 4539,1276 4542,1284 4541,1293 4545,1296 4552,1299 4557,1306 4556,1311 4550,1321 4548,1329 4551,1337 4560,1346 4569,1360 4575,1364 4577,1368 4585,1373 4589,1379 4588,1387 4576,1400 4578,1409 4586,1418 4590,1426 4592,1438 4599,1447 4599,1456 4591,1465 4583,1485 4577,1491 4572,1490 4559,1484 4550,1482 4541,1485 4533,1492 4531,1501 4527,1509 4529,1514 4519,1526 4519,1537 4528,1555 4522,1566 4513,1576 4500,1583 4510,1588 4511,1592 4510,1600 4510,1607 4518,1615 4518,1619 4512,1635 4503,1647 4499,1664 4493,1676 4496,1679 4508,1684 4504,1701 4500,1709 4487,1719 4483,1728 4485,1747 4485,1764 4489,1771 4491,1784 4490,1791 4493,1802 4491,1816 4492,1833 4496,1842 4498,1848 4499,1862 4502,1869 4513,1890 4513,1895 4511,1902 4512,1908 4516,1916 4516,1929 4516,1937 4529,1942 4546,1942 4552,1944 4563,1961 4575,1967 4586,1967 4590,1971 4597,1993 4596,2003 4591,2007 4578,2008 4571,2018 4568,2025 4569,2032 4578,2044 4583,2050 4584,2061 4590,2068 4604,2067 4611,2065 4616,2069 4622,2085 4632,2089 4654,2091 4660,2094 4666,2097 4673,2108 4686,2111 4700,2113 4713,2125 4726,2134 4741,2140 4746,2143 4753,2158 4771,2168 4781,2179 4796,2189 4808,2193 4813,2193 4823,2198 4832,2207 4851,2214 4860,2221 4866,2232 4876,2241 4889,2248 4921,2271 4924,2277 4945,2289 4969,2299 4973,2307 4986,2321 4993,2326 5008,2327 5017,2332 5020,2334 5023,2337 5020,2340 5018,2344 5011,2348 5004,2354 4995,2358 4987,2361 4974,2369 4968,2371 4963,2375 4958,2379 4954,2381 4951,2382 4947,2380 4939,2374 4934,2370 4930,2369 4925,2366 4920,2364 4918,2365 4913,2362 4906,2357 4902,2356 4896,2361 4890,2364 4885,2366 4882,2368 4881,2372 4877,2379 4872,2388 4864,2398 4861,2402 4859,2405 4861,2408 4867,2406 4872,2404 4875,2405 4875,2409 4873,2413 4868,2418 4864,2424 4862,2428 4860,2425 4858,2423 4854,2422 4852,2421 4850,2418 4846,2416 4842,2414 4837,2415 4833,2416 4830,2416 4827,2416 4824,2416 4822,2416 4819,2416 4815,2416 4812,2414 4808,2412 4806,2410 4803,2408 4799,2406 4797,2404 4793,2403 4791,2402 4788,2402 4785,2402 4782,2402 4778,2403 4775,2405 4770,2407 4765,2409 4761,2412 4757,2413 4757,2416 4755,2419 4750,2423 4748,2424 4741,2427 4738,2429 4735,2428 4733,2428 4730,2427 4727,2429 4723,2431 4721,2432 4719,2431 4716,2428 4712,2424 4709,2424 4706,2424 4703,2424 4700,2424 4697,2424 4694,2425 4691,2426 4686,2427 4682,2429 4679,2428 4676,2427 4674,2426 4671,2426 4668,2426 4664,2426 4660,2427 4658,2427 4654,2427 4649,2427 4645,2426 4639,2428 4636,2429 4634,2430 4631,2431 4629,2433 4626,2436 4622,2439 4619,2443 4617,2446 4615,2449 4611,2451 4607,2451 4602,2451 4599,2452 4595,2453 4593,2454 4589,2454 4584,2456 4579,2456 4576,2456 4574,2455 4571,2455 4567,2454 4563,2455 4561,2454 4558,2454 4556,2455 4553,2455 4550,2456 4547,2455 4544,2455 4540,2456 4536,2455 4533,2454 4530,2454 4527,2454 4525,2454 4522,2454 4519,2454 4516,2454 4513,2453 4509,2454 4505,2453 4500,2453 4497,2451 4495,2449 4492,2446 4490,2444 4487,2445 4485,2445 4482,2445 4477,2446 4472,2446 4469,2447 4466,2447 4464,2448 4461,2449 4458,2450 4455,2450 4453,2452 4450,2453 4445,2455 4441,2457 4437,2459 4434,2462 4432,2465 4429,2466 4426,2467 4423,2467 4419,2467 4415,2468 4412,2468 4409,2467 4406,2467 4403,2467 4399,2468 4395,2470 4392,2472 4388,2473 4384,2475 4381,2475 4377,2474 4375,2472 4371,2470 4368,2468 4366,2466 4363,2464 4359,2464 4355,2463 4350,2462 4347,2461 4345,2460 4342,2458 4338,2457 4334,2457 4331,2457 4328,2457 4325,2458 4322,2458 4320,2459 4316,2459 4314,2462 4312,2464 4309,2467 4309,2471 4308,2474 4305,2475 4302,2477 4299,2478 4295,2479 4292,2481 4289,2482 4286,2483 4283,2485 4281,2486 4278,2487 4275,2488 4270,2488 4266,2489 4263,2492 4259,2492 4255,2493 4253,2493 4250,2493 4246,2493 4244,2493 4240,2494 4237,2495 4234,2496 4231,2497 4228,2496 4225,2495 4222,2495 4219,2495 4216,2495 4213,2495 4209,2495 4206,2495 4203,2495 4200,2498 4197,2499 4193,2499 4189,2499 4185,2499 4181,2499 4178,2501 4175,2502 4170,2502 4165,2502 4161,2502 4158,2502 4154,2502 4151,2502 4148,2502 4144,2503 4139,2501 4134,2498 4130,2497 4127,2494 4123,2492 4119,2490 4116,2488 4113,2488 4109,2486 4105,2484 4103,2481 4101,2478 4098,2477 4096,2475 4093,2474 4089,2472 4086,2472 4082,2474 4077,2475 4074,2475 4072,2474 4068,2474 4064,2476 4060,2475 4051,2471 4047,2471 4044,2471 4039,2473 4038,2476 4037,2482 4036,2485 4034,2488 4031,2494 4024,2501 4023,2504 4025,2506 4033,2511 4036,2513 4037,2516 4040,2520 4043,2522 4046,2525 4049,2526 4051,2528 4054,2529 4057,2530 4060,2531 4062,2533 4065,2534 4068,2537 4071,2539 4073,2540 4075,2541 4078,2542 4082,2544 4084,2546 4084,2549 4085,2551 4089,2553 4093,2555 4096,2558 4103,2568 4106,2574 4109,2576 4116,2579 4119,2580 4123,2580 4131,2578 4138,2578 4145,2581 4157,2585 4162,2588 4166,2589 4170,2587 4171,2590 4170,2594 4170,2597 4171,2600 4171,2605 4173,2607 4175,2607 4177,2609 4178,2612 4178,2615 4178,2618 4177,2622 4175,2626 4174,2630 4174,2633 4175,2638 4171,2639 4168,2640 4165,2641 4163,2643 4161,2644 4157,2644 4153,2645 4151,2646 4147,2646 4144,2648 4144,2650 4141,2653 4138,2657 4136,2660 4135,2662 4131,2664 4127,2668 4124,2669 4122,2670 4120,2674 4117,2675 4115,2679 4113,2683 4109,2689 4107,2693 4104,2696 4102,2700 4101,2704 4099,2706 4096,2708 4098,2710 4101,2713 4103,2716 4105,2722 4106,2725 4106,2728 4106,2731 4109,2733 4112,2735 4116,2738 4119,2740 4121,2743 4120,2746 4119,2748 4117,2752 4114,2755 4111,2759 4110,2763 4110,2766 4106,2768 4103,2769 4101,2771 4099,2774 4099,2777 4100,2780 4100,2782 4098,2786 4099,2790 4100,2792 4101,2794 4102,2795 4107,2798 4110,2801 4113,2804 4114,2806 4116,2809 4115,2812 4114,2815 4112,2818 4108,2822 4107,2824 4105,2826 4102,2828 4099,2830 4099,2833 4096,2835 4096,2837 4096,2840 4096,2843 4096,2847 4096,2849 4096,2851 4097,2854 4096,2857 4098,2861 4099,2864 4102,2866 4106,2868 4109,2871 4110,2875 4110,2878 4111,2882 4113,2885 4112,2887 4109,2890 4106,2891 4103,2895 4099,2898 4097,2900 4096,2904 4092,2905 4090,2907 4091,2910 4093,2912 4096,2913 4099,2912 4102,2909 4106,2909 4109,2909 4112,2909 4116,2909 4119,2912 4122,2915 4123,2918 4124,2920 4126,2923 4129,2924 4130,2926 4130,2929 4130,2933 4128,2936 4126,2939 4124,2942 4121,2945 4120,2947 4122,2949 4124,2952 4126,2957 4126,2960 4126,2964 4130,2965 4133,2967 4135,2971 4139,2973 4143,2973 4147,2973 4151,2974 4153,2975 4157,2976 4159,2978 4161,2980 4162,2982 4165,2983 4167,2985 4169,2988 4171,2989 4173,2992 4176,2994 4180,2998 4183,3001 4186,3003 4187,3007 4187,3009 4187,3013 4192,3022 4197,3027 4198,3035 4200,3043 4202,3047 4204,3049 4203,3053 4205,3056 4216,3063 4226,3067 4237,3071 4241,3073 4241,3076 4240,3079 4238,3083 4239,3088 4240,3093 4239,3098 4235,3101 4230,3102 4224,3102 4219,3102 4214,3104 4210,3108 4207,3111 4203,3115 4205,3117 4210,3121 4211,3128 4213,3132 4216,3134 4219,3135 4222,3136 4224,3135 4227,3135 4231,3135 4234,3134 4252,3129 4258,3136 4260,3140 4265,3141 4271,3143 4274,3143 4279,3144 4286,3146 4289,3146 4292,3147 4295,3149 4299,3150 4303,3151 4306,3152 4310,3151 4310,3149 4309,3147 4308,3145 4306,3143 4304,3140 4301,3140 4300,3138 4302,3134 4300,3131 4303,3128 4306,3126 4307,3123 4308,3121 4313,3119 4342,3121 4344,3125 4347,3126 4356,3128 4357,3132 4358,3136 4361,3140 4363,3157 4364,3162 4366,3166 4368,3163 4370,3161 4373,3162 4375,3161 4378,3161 4381,3161 4386,3162 4389,3162 4389,3155 4386,3149 4383,3141 4381,3134 4382,3131 4386,3130 4403,3125 4410,3125 4419,3126 4423,3129 4430,3133 4438,3139 4439,3141 4437,3144 4433,3145 4429,3147 4427,3147 4424,3150 4423,3153 4420,3154 4416,3156 4410,3158 4405,3159 4401,3159 4395,3161 4389,3166 4384,3169 4380,3173 4374,3175 4371,3177 4368,3179 4365,3181 4360,3185 4356,3187 4351,3191 4348,3193 4346,3195 4344,3199 4342,3202 4339,3204 4338,3206 4332,3212 4330,3216 4329,3222 4330,3228 4331,3235 4333,3240 4332,3242 4332,3245 4330,3248 4329,3253 4328,3255 4326,3259 4325,3261 4323,3266 4322,3269 4320,3272 4318,3279 4316,3285 4310,3293 4308,3297 4306,3301 4291,3310 4289,3310 4287,3308 4284,3305 4282,3305 4278,3305 4270,3305 4265,3306 4261,3307 4258,3308 4251,3311 4246,3313 4241,3317 4237,3322 4233,3326 4230,3330 4227,3333 4220,3338 4213,3342 4201,3351 4196,3358 4192,3364 4187,3371 4182,3377 4178,3382 4178,3386 4178,3390 4177,3394 4183,3402 4185,3404 4185,3406 4183,3408 4178,3409 4175,3411 4168,3416 4163,3420 4154,3426 4158,3430 4157,3433 4153,3437 4146,3442 4139,3446 4134,3451 4132,3456 4131,3464 4130,3467 4127,3466 4123,3465 4115,3462 4108,3460 4104,3459 4101,3457 4098,3452 4096,3446 4093,3444 4089,3442 4086,3440 4082,3439 4079,3438 4076,3437 4073,3435 4070,3432 4068,3429 4065,3426 4063,3423 4058,3419 4054,3417 4050,3416 4046,3414 4043,3412 4040,3410 4037,3409 4033,3410 4029,3411 4026,3414 4023,3417 4020,3419 4018,3422 4015,3424 4009,3426 4005,3427 4002,3428 3997,3428 3992,3428 3989,3428 3985,3429 3982,3429 3975,3430 3973,3431 3973,3437 3971,3440 3970,3443 3969,3446 3968,3448 3966,3451 3964,3453 3962,3455 3961,3458 3964,3461 3965,3463 3967,3465 3970,3467 3972,3470 3974,3474 3972,3475 3970,3476 3967,3478 3964,3479 3962,3480 3960,3482 3957,3483 3955,3485 3954,3487 3953,3490 3950,3493 3947,3496 3944,3497 3940,3499 3937,3502 3935,3503 3932,3504 3931,3506 3933,3509 3931,3512 3929,3515 3927,3517 3925,3519 3924,3522 3923,3527 3920,3530 3921,3534 3917,3536 3913,3534 3911,3532 3909,3533 3905,3535 3901,3535 3896,3534 3892,3531 3889,3529 3884,3529 3879,3530 3876,3533 3875,3537 3872,3545 3877,3552 3880,3561 3884,3567 3884,3574 3882,3575 3879,3576 3871,3575 3864,3575 3856,3575 3848,3574 3820,3581 3789,3595 3757,3607 3732,3640 3731,3667 3734,3694 3733,3722 3727,3749 3707,3781 3691,3816 3681,3849 3678,3885 3667,3915 3644,3949 3630,3976 3598,3995 3572,4008 3545,4011 3517,4013 3486,4029 3454,4044 3423,4055 3390,4066 3364,4078 3334,4097 3306,4103 3277,4127 3251,4142 3226,4157 3195,4174 3169,4186 3135,4190 3098,4202 3071,4232 3039,4249 3007,4256 2981,4259 2954,4261 2926,4265 2896,4268 2867,4267 2841,4256 2814,4253 2787,4267 2758,4284 2729,4297 2702,4302 2675,4319 2650,4334 2623,4342 2597,4347 2567,4354 2539,4361 2523,4368 2500,4395 2492,4423 2478,4449 2485,4474 2455,4499 2428,4504 2400,4515 2370,4530 2337,4547 2306,4552 2276,4568 2248,4584 2221,4597 2193,4601 2153,4609 2116,4609 2110,4603 2104,4601 2084,4617 2068,4627 2008,4607 1986,4611 1962,4621 1948,4629 1938,4637 1912,4665 1894,4667 1822,4649 1796,4643 1758,4637 1744,4633 1732,4633 1698,4629 1690,4627 1684,4625 1674,4617 1672,4589 1676,4573 1692,4553 1694,4549 1700,4545 1708,4539 1712,4529 1712,4519 1706,4511 1692,4475 1686,4435 1654,4413 1642,4399 1640,4389 1644,4385 1648,4383 1658,4383 1688,4383 1716,4377 1772,4367 1778,4365 1804,4351 1818,4337 1822,4323 1820,4309 1812,4287 1804,4283 1788,4277 1738,4263 1736,4259 1732,4255 1732,4249 1732,4243 1732,4229 1734,4213 1738,4203 1744,4195 1780,4163 1790,4145 1792,4129 1788,4119 1734,4091 1740,4041 1734,4029 1728,4021 1722,4013 1714,4007 1704,4001 1688,3999 1668,3997 1658,3995 1638,3989 1564,3963 1544,3957 1508,3945 1504,3939 1506,3933 1514,3925 1532,3915 1544,3909 1550,3903 1554,3889 1554,3877 1550,3871 1504,3833 1456,3801 1422,3793 1396,3789 1368,3789 1358,3787 1346,3779 1350,3743 1344,3734 1336,3723 1308,3703 1260,3683 1234,3667 1222,3667 1154,3669 1146,3669 1138,3653 1172,3643 1194,3637 1194,3613 1214,3603 1228,3603 1242,3605 1250,3607 1258,3603 1260,3593 1248,3575 1238,3567 1226,3557 1218,3549 1180,3525 1162,3517 1148,3507 1140,3497 1138,3489 1142,3479 1184,3473 1188,3461 1184,3393 1190,3373 1200,3363 1206,3357 1216,3351 1228,3341 1236,3335 1244,3329 1250,3323 1256,3317 1258,3309 1256,3303 1252,3289 1240,3237 1214,3227 1216,3217 1226,3205 1256,3187 1294,3123 1302,3095 1300,3085 1294,3071 1284,3059 1264,3049 1242,3041 1208,3037 1190,3037 1174,3037 1154,3045 1126,3065 1079,3046 1080,3043 1083,3038 1085,3034 1087,3030 1088,3026 1089,3023 1089,3019 1088,3017 1091,3013 1092,3011 1096,3007 1099,3003 1102,2998 1101,2995 1098,2992 1099,2988 1103,2985 1106,2985 1110,2982 1115,2982 1118,2982 1121,2981 1124,2978 1127,2976 1131,2975 1134,2976 1138,2975 1141,2972 1139,2969 1136,2968 1134,2967 1133,2965 1133,2960 1135,2958 1138,2957 1140,2955 1143,2954 1146,2953 1149,2951 1151,2948 1155,2945 1158,2943 1161,2940 1163,2938 1164,2934 1163,2929 1162,2926 1166,2924 1171,2923 1175,2922 1178,2918 1179,2916 1182,2913 1185,2911 1183,2908 1182,2905 1181,2902 1179,2900 1177,2898 1175,2894 1172,2892 1171,2889 1173,2887 1175,2885 1176,2882 1177,2878 1182,2878 1186,2877 1190,2875 1193,2874 1196,2870 1199,2868 1194,2865 1191,2863 1189,2860 1187,2856 1184,2853 1182,2850 1178,2850 1175,2850 1167,2851 1164,2850 1163,2847 1162,2844 1162,2841 1165,2839 1165,2837 1163,2834 1166,2832 1170,2830 1173,2827 1175,2823 1179,2821 1182,2820 1186,2817 1190,2814 1192,2812 1194,2810 1196,2808 1199,2804 1196,2797 1187,2791 1185,2789 1183,2785 1182,2781 1182,2779 1182,2776 1183,2773 1184,2770 1186,2767 1185,2764 1185,2761 1188,2759 1190,2756 1194,2756 1196,2757 1199,2757 1203,2758 1206,2757 1211,2756 1217,2757 1220,2756 1223,2755 1226,2755 1229,2757 1231,2757 1234,2757 1236,2757 1239,2755 1239,2752 1242,2748 1245,2745 1246,2741 1246,2738 1247,2733 1248,2726 1247,2720 1244,2716 1243,2713 1244,2710 1243,2707 1243,2702 1253,2682 1282,2690 1308,2708 1334,2729 1360,2741 1387,2740 1415,2733 1445,2733 1470,2747 1491,2762 1495,2763 1501,2767 1505,2771 1510,2775 1513,2775 1515,2775 1518,2779 1517,2783 1515,2788 1512,2792 1512,2797 1513,2800 1517,2802 1520,2802 1523,2800 1528,2798 1535,2797 1539,2797 1543,2797 1547,2798 1551,2798 1554,2799 1558,2799 1560,2799 1563,2800 1565,2800 1568,2801 1571,2802 1575,2802 1578,2804 1579,2807 1581,2809 1607,2823 1634,2825 1662,2821 1690,2815 1717,2817 1743,2832 1785,2834 1799,2823 1827,2809 1856,2794 1859,2783 1841,2757 1869,2743 1896,2736 1927,2735 1955,2722 1980,2700 1996,2673 2026,2679 2052,2693 2077,2705 2088,2708 2091,2706 2095,2707 2100,2707 2104,2707 2107,2706 2109,2707 2113,2707 2117,2708 2119,2708 2122,2708 2127,2708 2130,2708 2135,2707 2138,2707 2140,2707 2143,2707 2146,2707 2150,2706 2152,2703 2151,2699 2147,2694 2144,2691 2142,2688 2141,2685 2141,2680 2143,2676 2146,2674 2151,2673 2154,2671 2157,2671 2159,2670 2161,2671 2164,2672 2168,2672 2171,2672 2174,2671 2177,2669 2181,2669 2184,2669 2187,2670 2191,2669 2195,2668 2197,2665 2198,2662 2197,2657 2197,2654 2200,2652 2206,2651 2213,2646 2242,2622 2268,2596 2295,2599 2326,2575 2340,2573 2343,2573 2347,2573 2349,2571 2356,2570 2363,2567 2367,2563 2369,2559 2369,2557 2368,2555 2371,2552 2375,2550 2379,2550 2382,2550 2385,2547 2385,2544 2387,2541 2387,2535 2384,2533 2382,2530 2381,2527 2386,2523 2392,2523 2396,2524 2402,2527 2410,2531 2415,2535 2423,2540 2427,2544 2430,2544 2434,2543 2437,2541 2440,2539 2442,2538 2444,2536 2446,2533 2446,2530 2447,2528 2449,2525 2450,2522 2450,2518 2448,2514 2444,2512 2441,2508 2440,2502 2438,2500 2433,2499 2429,2498 2426,2497 2421,2497 2416,2496 2413,2495 2409,2494 2410,2491 2412,2488 2412,2484 2409,2481 2404,2479 2401,2474 2403,2468 2403,2462 2403,2457 2406,2454 2405,2447 2403,2446 2403,2441 2404,2437 2403,2434 2406,2429 2409,2425 2412,2425 2418,2426 2422,2426 2429,2424 2433,2423 2437,2423 2439,2420 2442,2415 2446,2412 2447,2408 2448,2403 2448,2399 2451,2397 2458,2397 2464,2397 2471,2397 2476,2397 2478,2395 2481,2393 2484,2390 2489,2388 2493,2388 2495,2387 2499,2388 2505,2390 2512,2394 2536,2399 2568,2403 2579,2407 2586,2411 2589,2414 2603,2420 2609,2422 2619,2426 2626,2428 2638,2429 2643,2431 2646,2433 2652,2434 2655,2433 2658,2432 2661,2433 2664,2433 2667,2432 2670,2431 2674,2431 2677,2425 2681,2421 2684,2414 2686,2410 2686,2407 2685,2402 2685,2398 2685,2395 2689,2387 2691,2384 2692,2379 2692,2375 2692,2366 2695,2364 2699,2363 2702,2364 2701,2368 2701,2371 2704,2373 2708,2375 2709,2378 2710,2381 2711,2383 2715,2382 2716,2385 2718,2388 2721,2392 2724,2393 2727,2393 2730,2392 2734,2392 2737,2392 2745,2393 2751,2393 2758,2393 2766,2392 2772,2390 2778,2388 2784,2385 2788,2384 2790,2383 2794,2382 2796,2380 2798,2379 2801,2378 2804,2375 2806,2372 2809,2369 2812,2367 2815,2364 2817,2362 2820,2361 2822,2361 2826,2363 2829,2363 2831,2363 2857,2355 2883,2340 2916,2329 2942,2311 2968,2307 2995,2314 3024,2323 3050,2321 3079,2311 3115,2301 3134,2269 3136,2249 3140,2247 3143,2245 3146,2244 3143,2240 3141,2238 3138,2236 3135,2234 3133,2232 3130,2230 3125,2229 3122,2228 3120,2227 3117,2226 3114,2226 3112,2225 3109,2225 3106,2225 3102,2224 3099,2223 3098,2220 3100,2214 3102,2213 3103,2211 3104,2208 3105,2205 3107,2202 3109,2199 3111,2197 3113,2195 3116,2194 3120,2194 3124,2194 3127,2195 3130,2195 3134,2195 3138,2195 3141,2195 3145,2195 3149,2194 3153,2194 3156,2193 3161,2192 3165,2192 3168,2192 3171,2191 3174,2190 3177,2189 3180,2188 3182,2187 3187,2185 3190,2182 3193,2181 3225,2173 3253,2161 3259,2135 3272,2107 3293,2081 3292,2052 3265,2026 3291,2016 3320,2010 3348,2002 3378,1998 3414,1994 3447,1999 3478,2001 3511,1978 3543,1966 3517,1949 3486,1949 3457,1948 3430,1920 3437,1890 3454,1864 3451,1837 3477,1809 3462,1779 3461,1754 3441,1730 3440,1726 3440,1722 3439,1719 3437,1716 3435,1714 3436,1710 3433,1707 3431,1705 3427,1705 3423,1705 3421,1706 3418,1705 3415,1703 3412,1702 3409,1700 3407,1700 3402,1702 3396,1704 3392,1705 3386,1703 3382,1696 3378,1691 3375,1688 3371,1684 3375,1683 3392,1673 3393,1668 3395,1664 3396,1660 3396,1658 3396,1653 3396,1650 3394,1648 3392,1644 3389,1642 3386,1640 3381,1639 3378,1638 3375,1637 3371,1635 3371,1632 3375,1630 3379,1630 3382,1628 3386,1626 3389,1625 3392,1623 3393,1618 3393,1615 3394,1611 3394,1608 3395,1606 3397,1603 3397,1601 3400,1593 3404,1591 3409,1588 3412,1585 3412,1556 3397,1526 3388,1500 3411,1475 3441,1468 3475,1449 3505,1425 3533,1412 3563,1419 3588,1414 3620,1413 3649,1426 3673,1400 3703,1373 3729,1353 3769,1351 3759,1319 3730,1290 3700,1266 3702,1241 3701,1215 3699,1209 3702,1206 3703,1199 3703,1194 3701,1187 3703,1183 3706,1179 3710,1176 3715,1173 3720,1173 3723,1172 3725,1169 3723,1168 3719,1168 3715,1168 3710,1166 3706,1165 3700,1164 3697,1162 3693,1159 3690,1157 3686,1157 3677,1161 3673,1161 3669,1160 3665,1158 3661,1154 3658,1150 3660,1145 3662,1140 3663,1137 3662,1132 3660,1130 3655,1127 3649,1121 3645,1116 3643,1112 3638,1107 3638,1104 3636,1102 3632,1101 3630,1098 3628,1094 3623,1094 3618,1098 3615,1101 3613,1103 3610,1102 3606,1102 3603,1099 3599,1095 3596,1089 3594,1082 3592,1077 3592,1072 3594,1069 3599,1067 3603,1065 3606,1057 3606,1054 3603,1050 3606,1044 3606,1039 3604,1036 3601,1032 3598,1030 3592,1029 3582,1028 3575,1027 3566,1027 3562,1027 3559,1026 3553,1023 3551,1019 3550,1014 3547,1009 3541,1006 3538,1005 3531,1004 3523,1004 3512,1003 3506,1002 3501,1000 3499,995 3497,991 3495,984 3493,980 3488,974 3482,971 3478,971 3474,970 3469,968 3465,968 3461,968 3455,972 3450,976 3447,978 3443,980 3439,981 3437,980 3434,979 3430,979 3425,978 3421,979 3417,978 3414,978 3411,979 3408,982 3405,984 3400,986 3397,987 3392,988 3388,991 3381,995 3375,997 3370,1000 3364,1004 3359,1005 3353,1006 3350,1006 3343,1004 3339,1002 3336,1002 3331,1000 3327,996 3327,987 3326,983 3322,979 3320,977 3316,976 3312,977 3308,977 3306,975 3303,971 3302,964 3300,958 3299,955 3297,954 3294,953 3289,952 3285,953 3281,954 3277,954 3273,951 3271,948 3271,943 3272,939 3275,933 3275,930 3269,925 3266,924 3262,926 3259,928 3256,929 3251,929 3247,922 3245,919 3240,915 3234,912 3229,906 3230,903 3230,898 3230,895 3227,891 3224,889 3221,887 3216,881 3211,876 3206,872 3196,864 3192,861 3188,858 3187,853 3191,851 3194,851 3199,848 3204,845 3210,843 3215,841 3218,839 3221,836 3219,832 3216,828 3209,822 3205,817 3201,815 3198,814 3194,814 3189,813 3185,813 3183,811 3181,808 3181,805 3180,801 3177,799 3172,799 3168,799 3165,798 3161,796 3158,793 3155,788 3152,784 3148,782 3145,782 3141,782 3137,780 3134,779 3131,776 3126,776 3120,778 3116,779 3113,780 3110,781 3107,780 3102,779 3097,777 3095,774 3094,771 3095,768 3095,762 3095,756 3095,748 3097,743 3103,735 3108,731 3113,729 3117,727 3121,723 3124,720 3124,717 3123,712 3118,709 3115,707 3111,706 3105,705 3101,704 3092,704 3087,704 3084,703 3054,692 3021,676 2980,669 2958,633 2938,606 2926,575 2915,539 2908,507 2844,495 2815,493 2817,491 2816,486 2815,481 2816,478 2819,472 2820,467 2820,464 2816,460 2814,455 2811,449 2809,442 2807,439 2804,434 2799,430 2793,428 2789,427 2781,425 2778,425 2770,425 2755,423 2742,422 2736,422 2731,422 2728,422 2724,422 2721,420 2713,419 2703,418 2695,416 2691,414 2688,414 2684,414 2678,416 2674,417 2668,417 2663,416 2658,416 2647,420 2645,416 2642,409 2638,406 2633,403 2624,398 2618,392 2613,386 2611,382 2608,381 2604,380 2601,379 2599,376 2592,371 2585,367 2583,363 2585,358 2587,353 2589,349 2592,345 2597,339 2603,333 2608,329 2611,323 2611,321 2611,314 2610,308 2608,302 2606,299 2606,295 2608,292 2611,288 2614,284 2618,280 2621,278 2627,273 2633,270 2636,267 2640,263 2643,260 2646,259 2650,256 2654,253 2655,250 2656,247 2656,244 2655,241 2655,238 2655,235 2656,231 2658,228 2659,222 2657,218 2654,211 2654,204 2655,199 2656,195 2658,192 2660,190 2660,187 2660,184 2659,180 2659,175 2664,173 2669,171 2674,170 2676,168 2674,162 2673,157 2674,153 2675,149 2672,147 2667,147 2662,147 2658,144 2654,141 2651,138 2650,133 2649,129 2647,126 2643,122 2638,119 2637,115 2638,113 2640,109 2640,105 2640,102 2638,99 2634,90 2635,82 2635,75 2639,74 2645,73 2649,71 2653,68 2658,64 2661,60 2661,56 2664,52 2667,48 2672,46 2677,48 2683,50 2686,51 2690,53 2693,54 2698,57 2702,60 2707,61 2712,62 2722,62 2726,62 2729,63 2732,64 2735,65 2740,67 2746,69 2750,72 2752,75 2755,76 2759,76 2765,76 2771,76 2778,76 2782,76 2787,75 2790,74 2796,72 2800,71 2804,70 2807,69 2813,69 2817,68 2823,70 2828,70 2833,69 2837,70 2843,70 2848,70 2851,68 2851,65 2851,62 2851,59 2851,56 2851,52 2855,42 2858,38 2861,35 2870,28 2880,22 2890,16 2898,11 2904,8 2907,6 2911,4 2915,0 2918,3 " class="polyStyle" id="220421" style="fill:#fbe6ef"/>
<path d="" class="polyStyle" id="340721" style="fill:#f6f67b"/>
<path d="" class="polyStyle" id="510824" style="fill:#d4ecb2"/>
<path d="" class="polyStyle" id="610324" style="fill:#f6f67b"/>
<path d="" class="polyStyle" id="530722" style="fill:#ee8b94"/>
<path d="" class="polyStyle" id="340823" style="fill:#d4ecb2"/>
<path d="" class="polyStyle" id="620825" style="fill:#d4ecb2"/>
<path d="" class="polyStyle" id="421125" style="fill:#ee8b94"/>
<path d="" class="polyStyle" id="210281" style="fill:#ee8b94"/>
<path d="" class="polyStyle" id="440883" style="fill:#f6f67b"/>
<path d="" class="polyStyle" id="469006" style="fill:#d4ecb2"/>
<path d="" class="polyStyle" id="469002" style="fill:#ee8b94"/>
<path d="" class="polyStyle" id="469005" style="fill:#fbe6ef"/>
<path d="" class="polyStyle" id="440882" style="fill:#ee8b94"/>
<path d="" class="polyStyle" id="450681" style="fill:#ee8b94"/>
<path d="" class="polyStyle" id="441581" style="fill:#d4ecb2"/>
<path d="" class="polyStyle" id="421087" style="fill:#ee8b94"/>
<path d="" class="polyStyle" id="420984" style="fill:#fbe6ef"/>
<path d="" class="polyStyle" id="420582" style="fill:#ee8b94"/>
<path d="" class="polyStyle" id="370282" style="fill:#f6f67b"/>
<path d="" class="polyStyle" id="371083" style="fill:#f6f67b"/>
<path d="" class="polyStyle" id="371082" style="fill:#fbe6ef"/>
<path d="" class="polyStyle" id="652801" style="fill:#f8c67d"/>
<path d="" class="polyStyle" id="654301" style="fill:#ee8b94"/>
<path d="" class="polyStyle" id="370687" style="fill:#ee8b94"/>
<path d="" class="polyStyle" id="371482" style="fill:#d4ecb2"/>
<path d="" class="polyStyle" id="421081" style="fill:#fbe6ef"/>
<path d="" class="polyStyle" id="429006" style="fill:#f6f67b"/>
<path d="" class="polyStyle" id="440982" style="fill:#d4ecb2"/>
<path d="" class="polyStyle" id="421181" style="fill:#d4ecb2"/>
<path d="" class="polyStyle" id="321181" style="fill:#d4ecb2"/>
<path d="" class="polyStyle" id="659007" style="fill:#ee8b94"/>
<path d="" class="polyStyle" id="652701" style="fill:#fbe6ef"/>
<path d="" class="polyStyle" id="210781" style="fill:#fbe6ef"/>
<path d="" class="polyStyle" id="460204" style="fill:#f6f67b"/>
<path d="" class="polyStyle" id="210211" style="fill:#f6f67b"/>
<path d="" class="polyStyle" id="450512" style="fill:#ee8b94"/>
<path d="" class="polyStyle" id="450602" style="fill:#fbe6ef"/>
<path d="" class="polyStyle" id="440404" style="fill:#ee8b94"/>
<path d="" class="polyStyle" id="440403" style="fill:#f6f67b"/>
<path d="" class="polyStyle" id="441502" style="fill:#f6f67b"/>
<path d="" class="polyStyle" id="431002" style="fill:#d4ecb2"/>
<path d="" class="polyStyle" id="500107" style="fill:#fbe6ef"/>
<path d="" class="polyStyle" id="430611" style="fill:#d4ecb2"/>
<path d="" class="polyStyle" id="511304" style="fill:#fbe6ef"/>
<path d="" class="polyStyle" id="340711" style="fill:#ee8b94"/>
<path d="" class="polyStyle" id="320118" style="fill:#f6f67b"/>
<path d="" class="polyStyle" id="510704" style="fill:#f6f67b"/>
<path d="" class="polyStyle" id="411502" style="fill:#ee8b94"/>
<path d="" class="polyStyle" id="320302" style="fill:#d4ecb2"/>
<path d="" class="polyStyle" id="140311" style="fill:#ee8b94"/>
<path d="" class="polyStyle" id="610802" style="fill:#ee8b94"/>
<path d="" class="polyStyle" id="120116" style="fill:#f6f67b"/>
<path d="" class="polyStyle" id="130303" style="fill:#fbe6ef"/>
<path d="" class="polyStyle" id="140211" style="fill:#f6f67b"/>
<path d="" class="polyStyle" id="150207" style="fill:#fbe6ef"/>
<path d="" class="polyStyle" id="211403" style="fill:#f6f67b"/>
<path d="" class="polyStyle" id="150802" style="fill:#f8c67d"/>
<path d="" class="polyStyle" id="210112" style="fill:#ee8b94"/>
<polygon points="2054,1024 2057,1026 2060,1027 2061,1030 2061,1033 2060,1037 2059,1040 2060,1043 2064,1045 2068,1047 2071,1049 2073,1051 2074,1054 2075,1057 2076,1059 2078,1061 2082,1062 2086,1061 2089,1061 2093,1060 2097,1059 2099,1059 2103,1061 2106,1064 2110,1064 2115,1067 2120,1070 2129,1074 2134,1076 2140,1077 2151,1078 2150,1081 2142,1090 2141,1095 2146,1110 2151,1115 2156,1118 2163,1120 2176,1121 2180,1123 2184,1126 2189,1130 2193,1133 2193,1139 2192,1142 2193,1145 2199,1155 2203,1163 2209,1171 2217,1179 2223,1185 2226,1189 2231,1192 2234,1200 2229,1202 2226,1206 2224,1209 2222,1214 2219,1222 2212,1232 2207,1235 2198,1239 2188,1243 2197,1251 2205,1255 2213,1261 2215,1264 2217,1269 2219,1277 2223,1288 2225,1292 2239,1293 2244,1294 2250,1295 2257,1295 2261,1295 2266,1298 2269,1300 2269,1302 2266,1303 2263,1305 2259,1308 2256,1309 2254,1311 2252,1312 2261,1328 2266,1339 2265,1342 2260,1360 2254,1374 2256,1378 2258,1383 2261,1390 2262,1396 2262,1399 2264,1403 2271,1414 2274,1419 2269,1420 2257,1423 2252,1424 2249,1427 2250,1431 2253,1433 2258,1439 2263,1449 2264,1452 2271,1460 2285,1461 2288,1461 2291,1461 2296,1457 2304,1453 2314,1457 2330,1464 2335,1464 2338,1464 2342,1466 2345,1470 2352,1484 2354,1487 2363,1493 2361,1502 2360,1505 2357,1507 2354,1508 2351,1507 2348,1508 2345,1509 2342,1510 2338,1511 2334,1512 2331,1512 2330,1518 2332,1525 2335,1528 2339,1527 2345,1526 2348,1526 2353,1527 2356,1528 2357,1530 2357,1534 2356,1537 2354,1548 2352,1560 2352,1564 2349,1568 2346,1569 2335,1571 2330,1571 2322,1571 2323,1575 2325,1578 2326,1582 2327,1584 2330,1586 2331,1588 2334,1592 2336,1597 2337,1599 2339,1602 2345,1607 2349,1609 2358,1614 2363,1616 2367,1616 2373,1615 2374,1612 2375,1608 2378,1606 2382,1606 2384,1609 2388,1611 2392,1612 2395,1614 2399,1611 2403,1609 2405,1609 2407,1612 2409,1616 2411,1620 2413,1623 2415,1623 2417,1616 2420,1612 2418,1609 2419,1605 2423,1603 2428,1603 2433,1606 2437,1606 2443,1606 2446,1608 2441,1616 2437,1623 2439,1630 2444,1643 2443,1646 2444,1648 2444,1651 2444,1654 2444,1657 2443,1660 2442,1664 2441,1666 2440,1670 2439,1672 2437,1675 2434,1678 2430,1680 2425,1683 2422,1686 2411,1702 2413,1708 2416,1713 2419,1716 2421,1718 2424,1719 2428,1720 2430,1722 2431,1725 2431,1727 2432,1730 2434,1733 2436,1737 2438,1739 2440,1741 2442,1742 2443,1745 2443,1748 2443,1750 2443,1755 2444,1758 2444,1762 2441,1773 2441,1785 2448,1787 2454,1788 2457,1789 2459,1791 2458,1795 2447,1797 2441,1799 2434,1799 2429,1806 2427,1813 2424,1814 2420,1814 2413,1810 2409,1810 2399,1813 2391,1817 2387,1820 2382,1827 2378,1830 2368,1836 2360,1840 2354,1849 2348,1854 2345,1855 2341,1854 2338,1854 2335,1855 2330,1858 2326,1857 2322,1855 2320,1852 2317,1849 2311,1845 2308,1842 2300,1832 2291,1828 2291,1825 2278,1821 2272,1819 2268,1818 2258,1818 2253,1818 2250,1817 2244,1815 2240,1812 2237,1812 2234,1813 2230,1813 2227,1811 2223,1811 2216,1809 2211,1807 2205,1802 2203,1798 2199,1794 2195,1792 2193,1792 2189,1794 2185,1795 2182,1794 2178,1793 2175,1796 2168,1805 2161,1809 2155,1812 2149,1816 2142,1822 2139,1826 2133,1830 2128,1833 2124,1834 2117,1836 2110,1837 2103,1836 2099,1836 2099,1840 2098,1844 2096,1847 2092,1848 2089,1849 2086,1850 2083,1853 2079,1856 2075,1859 2072,1859 2068,1862 2061,1866 2047,1879 2034,1900 2052,1902 2056,1915 2035,1912 2008,1922 2009,1943 1992,1948 2000,1964 1978,1971 1955,1987 1932,1989 1907,2005 1887,1993 1886,1980 1866,1970 1862,1968 1860,1958 1857,1949 1845,1940 1835,1930 1831,1920 1833,1909 1831,1902 1821,1895 1820,1892 1808,1886 1775,1902 1747,1909 1714,1917 1691,1919 1663,1920 1646,1912 1637,1955 1617,1980 1604,1994 1573,1999 1547,2011 1541,2022 1541,2025 1540,2029 1543,2033 1541,2035 1538,2039 1537,2044 1535,2047 1533,2051 1529,2054 1526,2055 1523,2056 1522,2061 1520,2064 1519,2066 1519,2071 1520,2076 1518,2081 1515,2085 1509,2089 1505,2089 1501,2089 1497,2089 1493,2088 1490,2089 1487,2091 1485,2089 1482,2087 1478,2086 1474,2087 1470,2088 1466,2089 1461,2088 1458,2086 1454,2083 1452,2080 1452,2078 1449,2076 1444,2077 1440,2077 1436,2077 1434,2075 1430,2070 1427,2066 1427,2063 1429,2060 1430,2057 1427,2051 1423,2045 1421,2041 1421,2037 1423,2032 1424,2027 1426,2024 1427,2022 1426,2020 1423,2016 1421,2012 1419,2009 1416,2007 1414,2005 1411,2003 1409,2002 1405,2002 1400,2000 1397,1998 1394,1997 1392,1996 1389,1994 1387,1993 1383,1991 1380,1989 1375,1986 1372,1985 1368,1982 1365,1981 1361,1981 1358,1981 1354,1980 1350,1979 1346,1979 1343,1983 1342,1987 1337,1990 1334,1990 1326,1988 1323,1987 1320,1985 1316,1984 1312,1984 1309,1986 1305,1990 1304,1993 1302,1994 1299,1994 1297,1992 1296,1990 1296,1987 1296,1983 1295,1980 1294,1977 1293,1974 1292,1970 1292,1967 1292,1965 1291,1962 1289,1959 1289,1957 1289,1953 1287,1950 1284,1947 1282,1943 1281,1940 1277,1937 1275,1934 1273,1932 1271,1931 1267,1930 1264,1930 1261,1927 1255,1923 1247,1924 1243,1923 1240,1919 1223,1913 1220,1911 1215,1902 1215,1898 1212,1895 1210,1893 1208,1890 1205,1886 1204,1882 1207,1869 1207,1843 1221,1815 1233,1795 1237,1782 1222,1775 1196,1767 1193,1739 1211,1714 1215,1699 1209,1684 1200,1666 1193,1650 1183,1633 1171,1619 1162,1600 1174,1583 1195,1575 1219,1578 1237,1581 1247,1568 1257,1559 1269,1569 1282,1576 1294,1589 1304,1598 1319,1593 1334,1589 1342,1584 1351,1596 1366,1599 1381,1591 1396,1581 1411,1576 1424,1578 1436,1588 1452,1599 1467,1606 1481,1610 1488,1613 1491,1615 1493,1616 1499,1621 1503,1621 1510,1621 1516,1620 1522,1620 1526,1620 1530,1618 1534,1616 1538,1612 1540,1609 1541,1607 1542,1602 1543,1595 1543,1588 1542,1585 1548,1586 1557,1588 1566,1589 1570,1590 1575,1590 1578,1590 1583,1590 1587,1591 1592,1591 1596,1591 1603,1592 1610,1592 1617,1592 1628,1593 1631,1593 1634,1590 1637,1588 1639,1586 1642,1585 1644,1582 1647,1580 1650,1577 1652,1575 1653,1573 1653,1569 1653,1566 1654,1562 1655,1558 1655,1552 1654,1547 1652,1544 1651,1541 1649,1539 1649,1536 1649,1532 1647,1530 1645,1528 1645,1524 1643,1520 1642,1516 1641,1514 1642,1511 1642,1508 1643,1505 1644,1501 1645,1498 1647,1495 1648,1491 1649,1488 1649,1485 1651,1483 1653,1482 1654,1480 1658,1478 1661,1476 1664,1475 1667,1473 1671,1471 1689,1446 1701,1431 1711,1414 1726,1404 1737,1401 1734,1388 1742,1371 1741,1354 1752,1343 1754,1329 1764,1313 1759,1293 1746,1273 1731,1253 1741,1238 1759,1218 1772,1202 1768,1196 1773,1193 1775,1188 1776,1185 1776,1182 1775,1178 1776,1175 1782,1173 1785,1172 1789,1170 1792,1169 1795,1170 1798,1169 1800,1165 1806,1161 1809,1161 1814,1161 1818,1161 1822,1161 1825,1159 1827,1157 1825,1154 1825,1150 1825,1146 1827,1141 1825,1133 1828,1128 1831,1124 1839,1122 1847,1121 1861,1120 1865,1120 1868,1119 1870,1114 1873,1111 1877,1111 1880,1111 1883,1110 1887,1107 1892,1106 1895,1106 1898,1106 1904,1108 1906,1105 1907,1102 1909,1098 1909,1087 1910,1079 1912,1075 1915,1074 1918,1073 1922,1073 1926,1071 1929,1071 1934,1071 1937,1071 1941,1070 1945,1070 1949,1069 1954,1068 1958,1067 1961,1066 1965,1064 1972,1062 1975,1061 1979,1061 1982,1061 1985,1060 1988,1060 1991,1058 1993,1057 1996,1054 1999,1051 2004,1051 2008,1051 2013,1050 2015,1047 2018,1043 2021,1040 2024,1039 2026,1037 2029,1036 2031,1033 2033,1031 2037,1028 2041,1026 2047,1023 2050,1024 " class="polyStyle" id="220402" style="fill:#f6f67b"/>
<polygon points="1618,832 1622,835 1628,834 1642,831 1652,824 1660,824 1666,828 1669,834 1670,841 1671,851 1676,860 1683,866 1689,868 1698,868 1702,870 1708,875 1711,879 1717,882 1722,881 1726,883 1731,887 1735,892 1739,893 1743,889 1746,883 1755,882 1770,883 1787,878 1815,876 1834,878 1853,885 1864,889 1879,899 1890,902 1893,912 1893,931 1896,940 1904,943 1917,946 1930,956 1949,959 1960,966 1973,970 1984,974 1995,980 2004,983 2014,976 2024,974 2038,980 2047,987 2055,991 2059,997 2056,998 2054,1003 2053,1011 2047,1023 2041,1026 2037,1028 2033,1031 2031,1033 2029,1036 2026,1037 2024,1039 2021,1040 2018,1043 2015,1047 2013,1050 2008,1051 2004,1051 1999,1051 1996,1054 1993,1057 1991,1058 1988,1060 1985,1060 1982,1061 1979,1061 1975,1061 1972,1062 1965,1064 1961,1066 1958,1067 1954,1068 1949,1069 1945,1070 1941,1070 1937,1071 1934,1071 1929,1071 1926,1071 1922,1073 1918,1073 1915,1074 1912,1075 1910,1079 1909,1087 1909,1098 1907,1102 1906,1105 1904,1108 1898,1106 1895,1106 1892,1106 1887,1107 1883,1110 1880,1111 1877,1111 1873,1111 1870,1114 1868,1119 1865,1120 1861,1120 1847,1121 1839,1122 1831,1124 1828,1128 1825,1133 1827,1141 1825,1146 1825,1150 1825,1154 1827,1157 1825,1159 1822,1161 1818,1161 1814,1161 1809,1161 1806,1161 1800,1165 1798,1169 1795,1170 1792,1169 1789,1170 1785,1172 1782,1173 1776,1175 1775,1178 1776,1182 1776,1185 1775,1188 1773,1193 1768,1196 1772,1202 1759,1218 1741,1238 1731,1253 1746,1273 1759,1293 1764,1313 1754,1329 1752,1343 1741,1354 1742,1371 1734,1388 1737,1401 1726,1404 1711,1414 1701,1431 1689,1446 1671,1471 1667,1473 1664,1475 1661,1476 1658,1478 1654,1480 1653,1482 1651,1483 1649,1485 1649,1488 1648,1491 1647,1495 1645,1498 1644,1501 1643,1505 1642,1508 1642,1511 1641,1514 1642,1516 1643,1520 1645,1524 1645,1528 1647,1530 1649,1532 1649,1536 1649,1539 1651,1541 1652,1544 1654,1547 1655,1552 1655,1558 1654,1562 1653,1566 1653,1569 1653,1573 1652,1575 1650,1577 1647,1580 1644,1582 1642,1585 1639,1586 1637,1588 1634,1590 1631,1593 1628,1593 1617,1592 1610,1592 1603,1592 1596,1591 1592,1591 1587,1591 1583,1590 1578,1590 1575,1590 1570,1590 1566,1589 1557,1588 1548,1586 1542,1585 1543,1588 1543,1595 1542,1602 1541,1607 1540,1609 1538,1612 1534,1616 1530,1618 1526,1620 1522,1620 1516,1620 1510,1621 1503,1621 1499,1621 1493,1616 1491,1615 1488,1613 1481,1610 1467,1606 1452,1599 1436,1588 1424,1578 1411,1576 1396,1581 1381,1591 1366,1599 1351,1596 1342,1584 1334,1589 1319,1593 1304,1598 1294,1589 1282,1576 1269,1569 1257,1559 1247,1568 1237,1581 1219,1578 1195,1575 1186,1572 1177,1569 1162,1563 1147,1573 1128,1567 1141,1550 1126,1544 1113,1544 1103,1543 1093,1539 1092,1525 1102,1513 1129,1500 1139,1494 1152,1479 1158,1456 1148,1433 1145,1416 1151,1394 1146,1375 1123,1363 1106,1348 1098,1332 1086,1317 1080,1305 1069,1296 1038,1280 1012,1268 981,1254 954,1244 922,1229 895,1219 865,1209 800,1188 764,1177 750,1173 734,1173 699,1174 660,1175 637,1175 624,1176 617,1177 613,1174 613,1171 616,1166 624,1161 635,1159 653,1156 679,1152 690,1150 699,1149 710,1150 720,1150 729,1151 747,1149 765,1145 780,1137 800,1125 811,1119 813,1116 815,1109 817,1101 822,1096 828,1091 838,1087 847,1084 850,1081 855,1075 855,1067 855,1060 857,1053 862,1056 867,1059 873,1062 882,1067 890,1072 896,1076 903,1079 907,1080 911,1082 922,1087 944,1095 948,1097 958,1100 967,1103 978,1107 982,1108 986,1108 990,1109 994,1110 998,1111 1002,1112 1012,1113 1021,1114 1041,1115 1053,1115 1058,1116 1068,1124 1072,1128 1076,1133 1080,1138 1090,1140 1106,1139 1117,1139 1142,1134 1174,1127 1207,1115 1223,1107 1238,1094 1245,1084 1252,1070 1255,1065 1261,1062 1272,1058 1283,1053 1293,1048 1310,1034 1337,1012 1348,1000 1361,984 1367,974 1370,962 1372,959 1378,958 1391,957 1405,959 1419,963 1427,963 1436,961 1449,954 1462,949 1473,947 1485,947 1494,951 1502,958 1510,968 1524,977 1532,979 1541,979 1546,976 1552,974 1562,971 1575,972 1582,974 1588,974 1591,973 1597,973 1604,967 1605,960 1605,954 1602,950 1599,942 1598,935 1601,924 1607,913 1608,904 1604,895 1597,884 1589,871 1583,863 1578,860 1579,857 1582,855 1590,847 1595,835 1605,824 1611,822 1614,826 " class="polyStyle" id="220403" style="fill:#fbe6ef"/>
<path d="" class="polyStyle" id="230406" style="fill:#d4ecb2"/>
<path d="" class="polyStyle" id="110113" style="fill:#fbe6ef"/>
<path d="" class="polyStyle" id="341702" style="fill:#fbe6ef"/>
<path d="" class="polyStyle" id="420303" style="fill:#ee8b94"/>
<path d="" class="polyStyle" id="340702" style="fill:#d4ecb2"/>
<path d="" class="polyStyle" id="421002" style="fill:#f6f67b"/>
<path d="" class="polyStyle" id="420117" style="fill:#f6f67b"/>
<path d="" class="polyStyle" id="440904" style="fill:#f8c67d"/>
<path d="" class="polyStyle" id="460205" style="fill:#ee8b94"/>
<path d="" class="polyStyle" id="460202" style="fill:#f6f67b"/>
<path d="" class="polyStyle" id="460203" style="fill:#fbe6ef"/>
<path d="" class="polyStyle" id="420304" style="fill:#f6f67b"/>
<path d="" class="polyStyle" id="445302" style="fill:#ee8b94"/>
<path d="" class="polyStyle" id="410202" style="fill:#d4ecb2"/>
<path d="" class="polyStyle" id="440800" style="fill:#f6f67b"/>
<path d="" class="polyStyle" id="440900" style="fill:#ee8b94"/>
<path d="" class="polyStyle" id="340800" style="fill:#ee8b94"/>
<path d="" class="polyStyle" id="460200" style="fill:#f6f67b"/>
<path d="" class="polyStyle" id="460000" style="fill:#ee8b94"/>
<path d="" class="polyStyle" id="450500" style="fill:#ee8b94"/>
<path d="" class="polyStyle" id="450600" style="fill:#ee8b94"/>
<path d="" class="polyStyle" id="440400" style="fill:#f6f67b"/>
<path d="" class="polyStyle" id="441700" style="fill:#f6f67b"/>
<path d="" class="polyStyle" id="441500" style="fill:#f6f67b"/>
<path d="" class="polyStyle" id="350600" style="fill:#ee8b94"/>
<path d="" class="polyStyle" id="710000" style="fill:#f6f67b"/>
<path d="" class="polyStyle" id="510400" style="fill:#f6f67b"/>
<path d="" class="polyStyle" id="522600" style="fill:#fbe6ef"/>
<path d="" class="polyStyle" id="520500" style="fill:#ee8b94"/>
<path d="" class="polyStyle" id="431200" style="fill:#f6f67b"/>
<path d="" class="polyStyle" id="430600" style="fill:#f6f67b"/>
<path d="" class="polyStyle" id="511400" style="fill:#d4ecb2"/>
<path d="" class="polyStyle" id="421000" style="fill:#ee8b94"/>
<path d="" class="polyStyle" id="341700" style="fill:#f6f67b"/>
<path d="" class="polyStyle" id="420500" style="fill:#f6f67b"/>
<path d="" class="polyStyle" id="511300" style="fill:#f6f67b"/>
<path d="" class="polyStyle" id="420900" style="fill:#f6f67b"/>
<path d="" class="polyStyle" id="511700" style="fill:#ee8b94"/>
<path d="" class="polyStyle" id="420600" style="fill:#d4ecb2"/>
<path d="" class="polyStyle" id="411500" style="fill:#fbe6ef"/>
<path d="" class="polyStyle" id="510800" style="fill:#ee8b94"/>
<path d="" class="polyStyle" id="420300" style="fill:#fbe6ef"/>
<path d="" class="polyStyle" id="611000" style="fill:#ee8b94"/>
<path d="" class="polyStyle" id="620800" style="fill:#fbe6ef"/>
<path d="" class="polyStyle" id="370200" style="fill:#ee8b94"/>
<path d="" class="polyStyle" id="371000" style="fill:#f6f67b"/>
<path d="" class="polyStyle" id="370600" style="fill:#fbe6ef"/>
<path d="" class="polyStyle" id="120000" style="fill:#f6f67b"/>
<path d="" class="polyStyle" id="130200" style="fill:#ee8b94"/>
<path d="" class="polyStyle" id="130300" style="fill:#f6f67b"/>
<path d="" class="polyStyle" id="652900" style="fill:#fbe6ef"/>
<path d="" class="polyStyle" id="150500" style="fill:#d4ecb2"/>
<path d="" class="polyStyle" id="" style="fill:#d4ecb2"/>
<path d="" class="polyStyle" id="350500" style="fill:#fbe6ef"/>
<path d="" class="polyStyle" id="440400" style="fill:#f6f67b"/>
<path d="" class="polyStyle" id="421100" style="fill:#d4ecb2"/>
<path d="" class="polyStyle" id="420100" style="fill:#fbe6ef"/>
<path d="" class="polyStyle" id="532500" style="fill:#fbe6ef"/>
<path d="" class="polyStyle" id="654200" style="fill:#fbe6ef"/>
<path d="" class="polyStyle" id="210700" style="fill:#d4ecb2"/>
<path d="" class="polyStyle" id="522300" style="fill:#fbe6ef"/>
<path d="" class="polyStyle" id="" style="fill:#ee8b94"/>
<path d="" class="polyStyle" id="440400" style="fill:#f6f67b"/>
<path d="" class="polyStyle" id="620000" style="fill:#f6f67b"/>
<path d="" class="polyStyle" id="430000" style="fill:#fbe6ef"/>
<path d="" class="polyStyle" id="420000" style="fill:#ee8b94"/>
<path d="" class="polyStyle" id="410000" style="fill:#f6f67b"/>
<path d="" class="polyStyle" id="350000" style="fill:#fbe6ef"/>
<path d="" class="polyStyle" id="520000" style="fill:#f6f67b"/>
<path d="" class="polyStyle" id="" style="fill:#ee8b94"/>
</svg>
