<?xml version="1.0" encoding="UTF-8"?>
<!DOCTYPE svg PUBLIC "-//W3C//DTD SVG 1.1 Tiny//EN" "http://www.w3.org/Graphics/SVG/1.1/DTD/svg11-tiny.dtd">
<svg version="1.1" xmlns="http://www.w3.org/2000/svg" xmlns:xlink="http://www.w3.org/1999/xlink" width="100%" height="100%" viewBox="0,0,4405,6926">
<title>SVG</title>
<desc>Poligon Test</desc>
<style id="style_css_sheet" type="text/css">
.polyStyle{fill: #cccccc;stroke-width:0;fill-rule:evenodd;}
</style>
<circle cx="2662" cy="6439" r="200" stroke="black" stroke-width="1" fill="red" id="320118" name="高淳区"/>
<circle cx="3356" cy="4786" r="200" stroke="black" stroke-width="1" fill="red" id="320117" name="溧水区"/>
<circle cx="2427" cy="1347" r="200" stroke="black" stroke-width="1" fill="red" id="320116" name="六合区"/>
<circle cx="2051" cy="2736" r="200" stroke="black" stroke-width="1" fill="red" id="320106" name="鼓楼区"/>
<circle cx="2175" cy="2904" r="200" stroke="black" stroke-width="1" fill="red" id="320104" name="秦淮区"/>
<circle cx="2577" cy="2514" r="200" stroke="black" stroke-width="1" fill="red" id="320113" name="栖霞区"/>
<circle cx="1878" cy="3019" r="200" stroke="black" stroke-width="1" fill="red" id="320105" name="建邺区"/>
<circle cx="2189" cy="2822" r="200" stroke="black" stroke-width="1" fill="red" id="320102" position="3"name="玄武区"/>
<circle cx="1303" cy="2806" r="200" stroke="black" stroke-width="1" fill="red" id="320111" name="浦口区"/>
<circle cx="2435" cy="3302" r="200" stroke="black" stroke-width="1" fill="red" id="320115" name="江宁区"/>
<circle cx="2103" cy="3111" r="200" stroke="black" stroke-width="1" fill="red" id="320114" name="雨花台区"/>
<path d="" class="polyStyle" id="" style="fill:#ee8b94"/>
<path d="" class="polyStyle" id="623022" style="fill:#fbe6ef"/>
<path d="" class="polyStyle" id="211421" style="fill:#f6f67b"/>
<path d="" class="polyStyle" id="532524" style="fill:#ee8b94"/>
<path d="" class="polyStyle" id="440825" style="fill:#f6f67b"/>
<path d="" class="polyStyle" id="441721" style="fill:#f6f67b"/>
<path d="" class="polyStyle" id="450521" style="fill:#f6f67b"/>
<path d="" class="polyStyle" id="450123" style="fill:#fbe6ef"/>
<path d="" class="polyStyle" id="350624" style="fill:#f6f67b"/>
<path d="" class="polyStyle" id="" style="fill:#fbe6ef"/>
<path d="" class="polyStyle" id="451224" style="fill:#fbe6ef"/>
<path d="" class="polyStyle" id="350627" style="fill:#f6f67b"/>
<path d="" class="polyStyle" id="" style="fill:#f6f67b"/>
<path d="" class="polyStyle" id="350525" style="fill:#f6f67b"/>
<path d="" class="polyStyle" id="530124" style="fill:#ee8b94"/>
<path d="" class="polyStyle" id="522627" style="fill:#ee8b94"/>
<path d="" class="polyStyle" id="510421" style="fill:#fbe6ef"/>
<path d="" class="polyStyle" id="522623" style="fill:#d4ecb2"/>
<path d="" class="polyStyle" id="430321" style="fill:#d4ecb2"/>
<path d="" class="polyStyle" id="511129" style="fill:#d4ecb2"/>
<path d="" class="polyStyle" id="511423" style="fill:#ee8b94"/>
<path d="" class="polyStyle" id="421023" style="fill:#f6f67b"/>
<path d="" class="polyStyle" id="511724" style="fill:#f6f67b"/>
<path d="" class="polyStyle" id="420526" style="fill:#fbe6ef"/>
<path d="" class="polyStyle" id="511923" style="fill:#fbe6ef"/>
<path d="" class="polyStyle" id="420325" style="fill:#fbe6ef"/>
<path d="" class="polyStyle" id="511921" style="fill:#f6f67b"/>
<path d="" class="polyStyle" id="542525" style="fill:#f6f67b"/>
<path d="" class="polyStyle" id="611026" style="fill:#ee8b94"/>
<path d="" class="polyStyle" id="411023" style="fill:#fbe6ef"/>
<path d="" class="polyStyle" id="632323" style="fill:#f6f67b"/>
<path d="" class="polyStyle" id="140525" style="fill:#d4ecb2"/>
<path d="" class="polyStyle" id="410922" style="fill:#ee8b94"/>
<path d="" class="polyStyle" id="621027" style="fill:#ee8b94"/>
<path d="" class="polyStyle" id="130427" style="fill:#f6f67b"/>
<path d="" class="polyStyle" id="130121" style="fill:#ee8b94"/>
<path d="" class="polyStyle" id="610823" style="fill:#fbe6ef"/>
<path d="" class="polyStyle" id="130225" style="fill:#fbe6ef"/>
<path d="" class="polyStyle" id="130322" style="fill:#d4ecb2"/>
<path d="" class="polyStyle" id="653130" style="fill:#f6f67b"/>
<path d="" class="polyStyle" id="130822" style="fill:#fbe6ef"/>
<path d="" class="polyStyle" id="211221" style="fill:#f6f67b"/>
<path d="" class="polyStyle" id="210921" style="fill:#f6f67b"/>
<path d="" class="polyStyle" id="150223" style="fill:#f8c67d"/>
<path d="" class="polyStyle" id="220422" style="fill:#d4ecb2"/>
<path d="" class="polyStyle" id="340721" style="fill:#f6f67b"/>
<path d="" class="polyStyle" id="510824" style="fill:#d4ecb2"/>
<path d="" class="polyStyle" id="610324" style="fill:#f6f67b"/>
<path d="" class="polyStyle" id="530722" style="fill:#ee8b94"/>
<path d="" class="polyStyle" id="340823" style="fill:#d4ecb2"/>
<path d="" class="polyStyle" id="620825" style="fill:#d4ecb2"/>
<path d="" class="polyStyle" id="421125" style="fill:#ee8b94"/>
<path d="" class="polyStyle" id="210281" style="fill:#ee8b94"/>
<path d="" class="polyStyle" id="440883" style="fill:#f6f67b"/>
<path d="" class="polyStyle" id="469006" style="fill:#d4ecb2"/>
<path d="" class="polyStyle" id="469002" style="fill:#ee8b94"/>
<path d="" class="polyStyle" id="469005" style="fill:#fbe6ef"/>
<path d="" class="polyStyle" id="440882" style="fill:#ee8b94"/>
<path d="" class="polyStyle" id="450681" style="fill:#ee8b94"/>
<path d="" class="polyStyle" id="441581" style="fill:#d4ecb2"/>
<path d="" class="polyStyle" id="421087" style="fill:#ee8b94"/>
<path d="" class="polyStyle" id="420984" style="fill:#fbe6ef"/>
<path d="" class="polyStyle" id="420582" style="fill:#ee8b94"/>
<path d="" class="polyStyle" id="370282" style="fill:#f6f67b"/>
<path d="" class="polyStyle" id="371083" style="fill:#f6f67b"/>
<path d="" class="polyStyle" id="371082" style="fill:#fbe6ef"/>
<path d="" class="polyStyle" id="652801" style="fill:#f8c67d"/>
<path d="" class="polyStyle" id="654301" style="fill:#ee8b94"/>
<path d="" class="polyStyle" id="370687" style="fill:#ee8b94"/>
<path d="" class="polyStyle" id="371482" style="fill:#d4ecb2"/>
<path d="" class="polyStyle" id="421081" style="fill:#fbe6ef"/>
<path d="" class="polyStyle" id="429006" style="fill:#f6f67b"/>
<path d="" class="polyStyle" id="440982" style="fill:#d4ecb2"/>
<path d="" class="polyStyle" id="421181" style="fill:#d4ecb2"/>
<path d="" class="polyStyle" id="321181" style="fill:#d4ecb2"/>
<path d="" class="polyStyle" id="659007" style="fill:#ee8b94"/>
<path d="" class="polyStyle" id="652701" style="fill:#fbe6ef"/>
<path d="" class="polyStyle" id="210781" style="fill:#fbe6ef"/>
<path d="" class="polyStyle" id="460204" style="fill:#f6f67b"/>
<path d="" class="polyStyle" id="210211" style="fill:#f6f67b"/>
<path d="" class="polyStyle" id="450512" style="fill:#ee8b94"/>
<path d="" class="polyStyle" id="450602" style="fill:#fbe6ef"/>
<path d="" class="polyStyle" id="440404" style="fill:#ee8b94"/>
<path d="" class="polyStyle" id="440403" style="fill:#f6f67b"/>
<path d="" class="polyStyle" id="441502" style="fill:#f6f67b"/>
<path d="" class="polyStyle" id="431002" style="fill:#d4ecb2"/>
<path d="" class="polyStyle" id="500107" style="fill:#fbe6ef"/>
<path d="" class="polyStyle" id="430611" style="fill:#d4ecb2"/>
<path d="" class="polyStyle" id="511304" style="fill:#fbe6ef"/>
<path d="" class="polyStyle" id="340711" style="fill:#ee8b94"/>
<polygon points="3895,5894 3899,5894 3902,5898 3906,5900 3910,5903 3911,5909 3912,5912 3916,5917 3918,5927 3916,5929 3915,5931 3916,5940 3918,5941 3922,5941 3925,5942 3926,5947 3920,5948 3920,5951 3919,5955 3922,5955 3923,5952 3926,5951 3930,5958 3931,5962 3930,5965 3927,5967 3925,5971 3928,5971 3932,5969 3936,5971 3937,5975 3935,5977 3933,5983 3929,5984 3922,5985 3919,5986 3916,5986 3912,5986 3909,5987 3908,5991 3906,5993 3903,5992 3901,5990 3896,5990 3895,5987 3894,5984 3891,5984 3888,5984 3883,5984 3882,5981 3884,5980 3887,5980 3888,5973 3886,5971 3875,5971 3870,5970 3867,5970 3862,5970 3861,5974 3858,5974 3857,5977 3854,5976 3850,5973 3849,5969 3851,5966 3853,5960 3855,5953 3856,5949 3856,5946 3858,5939 3859,5935 3862,5931 3864,5927 3865,5922 3864,5919 3864,5915 3861,5914 3860,5910 3863,5906 3864,5903 3864,5900 3867,5897 3870,5894 3869,5891 3867,5888 3877,5889 3881,5888 3884,5888 " class="polyStyle" id="320117" style="fill:#ee8b94"/>
<path d="M2615,5635 L2622,5642 L2628,5649 L2635,5656 L2647,5670 L2661,5684 L2665,5690 L2672,5697 L2678,5704 L2691,5717 L2695,5723 L2709,5737 L2715,5744 L2722,5751 L2728,5758 L2735,5765 L2747,5779 L2753,5785 L2759,5792 L2764,5798 L2778,5812 L2784,5819 L2791,5826 L2803,5840 L2808,5846 L2812,5852 L2822,5866 L2827,5872 L2832,5879 L2836,5885 L2839,5892 L2842,5898 L2844,5905 L2847,5911 L2850,5918 L2852,5925 L2854,5931 L2857,5937 L2859,5943 L2861,5949 L2863,5955 L2865,5962 L2868,5968 L2873,5975 L2878,5981 L2884,5987 L2889,5993 L2895,5998 L2901,6004 L2905,6010 L2907,6017 L2909,6025 L2910,6031 L2912,6038 L2916,6044 L2919,6050 L2924,6057 L2928,6063 L2932,6069 L2938,6073 L2945,6077 L2951,6079 L2958,6080 L2966,6081 L2973,6083 L2979,6085 L2985,6088 L2991,6093 L2996,6099 L3002,6105 L3005,6112 L3005,6118 L3003,6124 L3005,6130 L3010,6136 L3016,6141 L3023,6146 L3030,6150 L3042,6156 L3048,6160 L3054,6163 L3060,6160 L3068,6157 L3075,6154 L3081,6150 L3088,6147 L3095,6146 L3102,6143 L3108,6136 L3112,6130 L3118,6124 L3130,6110 L3136,6105 L3141,6099 L3147,6097 L3153,6096 L3160,6094 L3168,6092 L3175,6091 L3183,6092 L3189,6098 L3186,6105 L3184,6112 L3181,6119 L3180,6126 L3185,6134 L3189,6140 L3193,6146 L3199,6151 L3212,6151 L3220,6152 L3241,6152 L3247,6150 L3254,6149 L3259,6143 L3261,6136 L3262,6130 L3264,6124 L3265,6118 L3267,6110 L3271,6104 L3275,6098 L3279,6092 L3285,6087 L3292,6083 L3299,6077 L3302,6069 L3304,6062 L3302,6056 L3299,6049 L3297,6043 L3295,6036 L3292,6029 L3290,6021 L3289,6015 L3289,6007 L3291,6001 L3295,5995 L3301,5990 L3306,5984 L3318,5974 L3324,5968 L3331,5961 L3337,5956 L3343,5950 L3350,5944 L3363,5931 L3369,5926 L3375,5922 L3383,5920 L3390,5919 L3397,5919 L3403,5918 L3409,5918 L3415,5920 L3421,5922 L3427,5927 L3433,5933 L3440,5939 L3446,5945 L3453,5949 L3459,5950 L3467,5946 L3473,5944 L3479,5941 L3486,5936 L3492,5931 L3499,5925 L3502,5919 L3506,5913 L3512,5910 L3518,5910 L3522,5917 L3526,5923 L3531,5930 L3538,5936 L3544,5939 L3550,5938 L3558,5937 L3564,5936 L3571,5933 L3577,5931 L3581,5925 L3587,5919 L3593,5913 L3599,5911 L3605,5907 L3612,5905 L3618,5908 L3619,5915 L3618,5922 L3617,5928 L3616,5935 L3615,5941 L3619,5947 L3625,5952 L3632,5955 L3638,5957 L3646,5956 L3652,5954 L3660,5953 L3667,5952 L3674,5951 L3681,5949 L3688,5948 L3694,5947 L3702,5945 L3708,5944 L3714,5945 L3721,5946 L3727,5951 L3728,5958 L3728,5964 L3733,5971 L3740,5970 L3752,5960 L3758,5954 L3764,5953 L3770,5954 L3776,5956 L3782,5958 L3788,5961 L3795,5963 L3802,5962 L3808,5956 L3811,5949 L3814,5943 L3817,5936 L3818,5929 L3819,5923 L3820,5917 L3823,5910 L3826,5903 L3829,5896 L3831,5889 L3834,5882 L3838,5876 L3842,5870 L3847,5863 L3853,5859 L3860,5856 L3867,5859 L3873,5861 L3886,5861 L3900,5852 L3906,5845 L3935,5850 L3949,5856 L3970,5872 L3976,5874 L3983,5875 L4001,5866 L4022,5863 L4035,5896 L4045,5929 L4049,5963 L4050,5994 L4049,6098 L4055,6111 L4061,6139 L4071,6159 L4075,6165 L4114,6160 L4126,6161 L4139,6164 L4154,6173 L4205,6225 L4217,6246 L4226,6279 L4240,6284 L4259,6284 L4277,6291 L4289,6304 L4298,6317 L4299,6325 L4267,6343 L4249,6357 L4230,6376 L4203,6409 L4199,6415 L4196,6436 L4186,6455 L4173,6473 L4171,6479 L4171,6485 L4184,6504 L4182,6517 L4176,6522 L4157,6524 L4150,6528 L4146,6540 L4147,6559 L4140,6563 L4128,6565 L4125,6565 L4123,6564 L4109,6566 L4104,6569 L4096,6575 L4094,6583 L4086,6595 L4072,6604 L4051,6607 L4011,6599 L3992,6592 L3982,6589 L3968,6602 L3952,6616 L3954,6620 L3958,6640 L3956,6650 L3950,6660 L3946,6670 L3914,6702 L3912,6706 L3878,6746 L3860,6760 L3850,6760 L3842,6762 L3828,6760 L3816,6756 L3806,6760 L3800,6760 L3790,6770 L3748,6800 L3732,6792 L3722,6796 L3720,6810 L3722,6826 L3722,6890 L3718,6900 L3712,6900 L3700,6896 L3668,6882 L3658,6876 L3646,6870 L3632,6866 L3626,6882 L3614,6910 L3582,6906 L3570,6892 L3556,6880 L3524,6876 L3494,6872 L3490,6882 L3488,6892 L3484,6900 L3472,6912 L3456,6910 L3450,6910 L3442,6902 L3418,6892 L3376,6882 L3366,6880 L3354,6876 L3296,6850 L3274,6850 L3258,6862 L3234,6886 L3222,6890 L3168,6916 L3158,6916 L3150,6912 L3136,6906 L3128,6900 L3126,6890 L3122,6876 L3108,6870 L3100,6872 L3082,6882 L3034,6882 L2960,6890 L2934,6890 L2916,6882 L2858,6870 L2840,6862 L2822,6856 L2811,6849 L2802,6848 L2794,6852 L2748,6890 L2744,6895 L2715,6908 L2690,6910 L2671,6914 L2646,6916 L2639,6912 L2628,6898 L2621,6886 L2615,6872 L2594,6872 L2576,6871 L2572,6871 L2558,6870 L2540,6866 L2498,6870 L2448,6880 L2404,6886 L2388,6896 L2374,6910 L2358,6920 L2348,6920 L2340,6920 L2330,6912 L2314,6896 L2308,6890 L2300,6886 L2276,6890 L2256,6896 L2232,6920 L2222,6926 L2218,6926 L2196,6920 L2184,6924 L2183,6921 L2175,6912 L2149,6898 L2140,6894 L2129,6885 L2112,6865 L2104,6847 L2105,6836 L2109,6810 L2113,6793 L2113,6786 L2105,6769 L2100,6758 L2085,6744 L2062,6726 L2058,6724 L2026,6690 L2023,6686 L2014,6678 L1991,6670 L1984,6668 L1933,6664 L1927,6663 L1911,6662 L1888,6657 L1879,6656 L1874,6657 L1855,6659 L1840,6653 L1797,6620 L1780,6607 L1758,6587 L1729,6571 L1710,6566 L1714,6552 L1720,6550 L1734,6552 L1748,6556 L1762,6570 L1780,6576 L1788,6576 L1802,6460 L1803,6456 L1804,6452 L1810,6442 L1818,6436 L1838,6406 L1876,6340 L1932,6200 L1978,6136 L2000,6130 L2020,6122 L2031,6120 L2033,6130 L2038,6154 L2047,6165 L2058,6179 L2057,6190 L2057,6202 L2050,6225 L2042,6237 L2042,6242 L2048,6246 L2060,6247 L2074,6244 L2106,6234 L2132,6225 L2154,6223 L2176,6221 L2220,6219 L2234,6217 L2249,6212 L2268,6205 L2301,6190 L2310,6186 L2318,6182 L2338,6180 L2346,6176 L2354,6170 L2358,6166 L2360,6160 L2364,6155 L2374,6150 L2382,6146 L2386,6140 L2392,6132 L2396,6120 L2402,6116 L2408,6110 L2418,6106 L2424,6100 L2436,6090 L2454,6076 L2466,6066 L2496,6026 L2504,6012 L2514,6000 L2532,5970 L2536,5966 L2542,5960 L2563,5928 L2576,5910 L2588,5886 L2598,5862 L2606,5840 L2610,5826 L2594,5670 L2596,5656 L2605,5625 L2615,5635z M3908,5991 L3906,5993 L3903,5992 L3901,5990 L3896,5990 L3895,5987 L3894,5984 L3891,5984 L3888,5984 L3883,5984 L3882,5981 L3884,5980 L3887,5980 L3888,5973 L3886,5971 L3875,5971 L3870,5970 L3867,5970 L3862,5970 L3861,5974 L3858,5974 L3857,5977 L3854,5976 L3850,5973 L3849,5969 L3851,5966 L3853,5960 L3855,5953 L3856,5949 L3856,5946 L3858,5939 L3859,5935 L3862,5931 L3864,5927 L3865,5922 L3864,5919 L3864,5915 L3861,5914 L3860,5910 L3863,5906 L3864,5903 L3864,5900 L3867,5897 L3870,5894 L3869,5891 L3867,5888 L3877,5889 L3881,5888 L3884,5888 L3895,5894 L3899,5894 L3902,5898 L3906,5900 L3910,5903 L3911,5909 L3912,5912 L3916,5917 L3918,5927 L3916,5929 L3915,5931 L3916,5940 L3918,5941 L3922,5941 L3925,5942 L3926,5947 L3920,5948 L3920,5951 L3919,5955 L3922,5955 L3923,5952 L3926,5951 L3930,5958 L3931,5962 L3930,5965 L3927,5967 L3925,5971 L3928,5971 L3932,5969 L3936,5971 L3937,5975 L3935,5977 L3933,5983 L3929,5984 L3922,5985 L3919,5986 L3916,5986 L3912,5986 L3909,5987 L3908,5991z " class="polyStyle" id="320118" style="fill:#f6f67b"/>
<path d="" class="polyStyle" id="510704" style="fill:#f6f67b"/>
<polygon points="3536,4160 3544,4160 3549,4154 3555,4150 3587,4149 3593,4163 3588,4190 3589,4196 3595,4200 3627,4199 3633,4201 3645,4213 3654,4225 3667,4258 3671,4286 3676,4292 3683,4297 3712,4308 3726,4311 3739,4310 3745,4308 3752,4309 3755,4316 3747,4335 3751,4341 3774,4368 3787,4373 3807,4377 3826,4389 3836,4410 3848,4448 3853,4455 3861,4458 3892,4457 3898,4461 3912,4480 3943,4508 3954,4527 3958,4541 3958,4554 3984,4548 3988,4567 3994,4572 4043,4573 4048,4580 4055,4578 4061,4579 4073,4586 4098,4587 4112,4592 4127,4593 4133,4597 4139,4604 4153,4629 4155,4635 4155,4642 4153,4655 4136,4680 4133,4710 4140,4735 4152,4747 4164,4767 4163,4773 4152,4793 4133,4813 4137,4819 4143,4823 4156,4824 4169,4828 4193,4832 4205,4832 4225,4835 4231,4839 4235,4846 4236,4853 4234,4879 4236,4885 4250,4896 4257,4899 4263,4905 4264,4911 4262,4924 4265,4930 4284,4930 4311,4918 4342,4917 4366,4907 4370,4926 4374,4934 4354,4971 4351,4997 4347,5011 4330,5049 4311,5098 4302,5111 4285,5142 4284,5167 4292,5185 4293,5191 4285,5211 4281,5217 4236,5253 4237,5274 4233,5280 4226,5286 4193,5309 4152,5310 4146,5312 4140,5317 4138,5325 4141,5338 4135,5350 4123,5361 4108,5379 4104,5431 4110,5436 4139,5445 4160,5447 4180,5453 4187,5456 4190,5463 4185,5470 4179,5474 4173,5481 4171,5488 4164,5500 4138,5522 4134,5548 4122,5567 4090,5568 4064,5578 4059,5584 4052,5597 4038,5601 3967,5603 3952,5622 3946,5634 3947,5647 3982,5667 3983,5680 3980,5700 3966,5744 3950,5776 3945,5782 3908,5813 3905,5826 3906,5839 3906,5845 3900,5852 3886,5861 3873,5861 3867,5859 3860,5856 3853,5859 3847,5863 3842,5870 3838,5876 3834,5882 3831,5889 3829,5896 3826,5903 3823,5910 3820,5917 3819,5923 3818,5929 3817,5936 3814,5943 3811,5949 3808,5956 3802,5962 3795,5963 3788,5961 3782,5958 3776,5956 3770,5954 3764,5953 3758,5954 3752,5960 3740,5970 3733,5971 3728,5964 3728,5958 3727,5951 3721,5946 3714,5945 3708,5944 3702,5945 3694,5947 3688,5948 3681,5949 3674,5951 3667,5952 3660,5953 3652,5954 3646,5956 3638,5957 3632,5955 3625,5952 3619,5947 3615,5941 3616,5935 3617,5928 3618,5922 3619,5915 3618,5908 3612,5905 3605,5907 3599,5911 3593,5913 3587,5919 3581,5925 3577,5931 3571,5933 3564,5936 3558,5937 3550,5938 3544,5939 3538,5936 3531,5930 3526,5923 3522,5917 3518,5910 3512,5910 3506,5913 3502,5919 3499,5925 3492,5931 3486,5936 3479,5941 3473,5944 3467,5946 3459,5950 3453,5949 3446,5945 3440,5939 3433,5933 3427,5927 3421,5922 3415,5920 3409,5918 3403,5918 3397,5919 3390,5919 3383,5920 3375,5922 3369,5926 3363,5931 3350,5944 3343,5950 3337,5956 3331,5961 3324,5968 3318,5974 3306,5984 3301,5990 3295,5995 3291,6001 3289,6007 3289,6015 3290,6021 3292,6029 3295,6036 3297,6043 3299,6049 3302,6056 3304,6062 3302,6069 3299,6077 3292,6083 3285,6087 3279,6092 3275,6098 3271,6104 3267,6110 3265,6118 3264,6124 3262,6130 3261,6136 3259,6143 3254,6149 3247,6150 3241,6152 3220,6152 3212,6151 3199,6151 3193,6146 3189,6140 3185,6134 3180,6126 3181,6119 3184,6112 3186,6105 3189,6098 3183,6092 3175,6091 3168,6092 3160,6094 3153,6096 3147,6097 3141,6099 3136,6105 3130,6110 3118,6124 3112,6130 3108,6136 3102,6143 3095,6146 3088,6147 3081,6150 3075,6154 3068,6157 3060,6160 3054,6163 3048,6160 3042,6156 3030,6150 3023,6146 3016,6141 3010,6136 3005,6130 3003,6124 3005,6118 3005,6112 3002,6105 2996,6099 2991,6093 2985,6088 2979,6085 2973,6083 2966,6081 2958,6080 2951,6079 2945,6077 2938,6073 2932,6069 2928,6063 2924,6057 2919,6050 2916,6044 2912,6038 2910,6031 2909,6025 2907,6017 2905,6010 2901,6004 2895,5998 2889,5993 2884,5987 2878,5981 2873,5975 2868,5968 2865,5962 2863,5955 2861,5949 2859,5943 2857,5937 2854,5931 2852,5925 2850,5918 2847,5911 2844,5905 2842,5898 2839,5892 2836,5885 2832,5879 2827,5872 2822,5866 2812,5852 2808,5846 2803,5840 2791,5826 2784,5819 2778,5812 2764,5798 2759,5792 2753,5785 2747,5779 2735,5765 2728,5758 2722,5751 2715,5744 2709,5737 2695,5723 2691,5717 2678,5704 2672,5697 2665,5690 2661,5684 2647,5670 2635,5656 2628,5649 2622,5642 2615,5635 2605,5625 2620,5576 2626,5524 2634,5458 2634,5424 2624,5402 2604,5374 2590,5358 2564,5322 2556,5302 2552,5296 2550,5288 2552,5284 2556,5278 2566,5272 2600,5258 2606,5250 2608,5240 2602,5230 2594,5226 2578,5224 2568,5224 2556,5224 2546,5216 2548,5208 2558,5196 2562,5190 2570,5170 2574,5154 2578,5138 2584,5126 2588,5122 2588,5116 2582,5108 2562,5106 2546,5108 2542,5108 2534,5108 2518,5104 2512,5098 2506,5088 2522,5084 2534,5086 2548,5082 2556,5074 2560,5062 2558,5042 2540,4990 2526,4982 2516,4990 2498,4958 2506,4948 2504,4936 2492,4934 2462,4932 2454,4934 2442,4942 2420,4934 2416,4922 2412,4902 2390,4902 2376,4899 2378,4895 2399,4870 2409,4863 2424,4863 2447,4878 2457,4873 2448,4858 2448,4853 2463,4844 2480,4844 2495,4838 2523,4834 2535,4834 2561,4840 2588,4850 2614,4854 2633,4851 2640,4832 2647,4813 2633,4810 2629,4806 2632,4799 2643,4794 2645,4780 2655,4754 2663,4746 2680,4750 2692,4752 2708,4746 2718,4742 2734,4721 2743,4696 2741,4678 2732,4666 2734,4650 2786,4629 2801,4628 2825,4628 2851,4644 2876,4667 2884,4687 2898,4696 2910,4698 2924,4696 2935,4687 2943,4672 2928,4661 2920,4654 2925,4636 2938,4610 2940,4584 2949,4569 2939,4559 2920,4532 2907,4512 2897,4506 2891,4501 2883,4487 2873,4479 2858,4468 2848,4463 2822,4451 2796,4440 2769,4428 2742,4417 2716,4404 2709,4389 2710,4377 2711,4351 2711,4326 2702,4303 2698,4299 2691,4287 2686,4261 2683,4244 2687,4236 2702,4210 2720,4184 2723,4179 2726,4158 2723,4133 2731,4125 2739,4127 2768,4142 2793,4163 2812,4178 2840,4192 2845,4190 2863,4187 2871,4192 2897,4203 2924,4215 2951,4226 2971,4234 2976,4233 3002,4228 3029,4223 3056,4221 3082,4233 3092,4238 3102,4234 3106,4245 3124,4248 3160,4240 3181,4225 3193,4225 3197,4231 3203,4228 3213,4215 3227,4183 3233,4177 3240,4174 3247,4174 3266,4184 3271,4190 3277,4194 3283,4189 3289,4176 3308,4176 3314,4173 3351,4145 3365,4149 3378,4150 3398,4136 3411,4129 3443,4125 3481,4124 3530,4159 " class="polyStyle" id="320117" style="fill:#ee8b94"/>
<polygon points="2024,3005 2025,3012 2026,3014 2033,3016 2039,3017 2042,3018 2047,3022 2050,3025 2053,3026 2056,3027 2071,3031 2079,3033 2088,3036 2094,3038 2098,3039 2105,3039 2109,3039 2113,3040 2112,3047 2117,3050 2120,3052 2122,3054 2126,3059 2130,3068 2131,3070 2136,3072 2140,3073 2140,3077 2143,3080 2150,3079 2154,3084 2157,3081 2168,3086 2183,3088 2183,3103 2182,3108 2189,3118 2199,3132 2201,3135 2205,3137 2207,3140 2209,3144 2209,3147 2216,3159 2220,3164 2225,3170 2227,3173 2232,3177 2241,3186 2244,3186 2247,3187 2253,3188 2241,3200 2222,3213 2202,3222 2168,3229 2143,3238 2117,3250 2112,3256 2108,3269 2108,3281 2101,3282 2078,3275 2066,3275 2053,3286 2049,3293 2048,3299 2051,3329 2049,3343 2050,3349 2054,3361 2073,3380 2087,3398 2082,3424 2081,3439 2087,3451 2093,3458 2093,3465 2087,3477 2081,3480 2061,3480 2049,3475 2043,3475 2037,3477 2017,3491 2011,3492 1984,3486 1978,3493 1971,3498 1964,3501 1946,3505 1933,3505 1913,3499 1909,3487 1903,3482 1895,3480 1882,3483 1868,3489 1861,3489 1841,3481 1837,3475 1836,3449 1822,3439 1821,3427 1830,3406 1806,3396 1800,3404 1799,3417 1788,3435 1769,3439 1768,3446 1756,3453 1748,3451 1740,3446 1734,3440 1726,3436 1712,3436 1685,3446 1665,3447 1659,3453 1645,3452 1638,3454 1606,3474 1599,3480 1590,3492 1586,3504 1590,3512 1605,3518 1616,3542 1633,3546 1643,3546 1657,3553 1660,3559 1658,3567 1650,3579 1643,3584 1630,3590 1618,3591 1608,3590 1594,3570 1584,3567 1535,3577 1526,3575 1513,3575 1503,3578 1487,3594 1483,3600 1479,3613 1475,3638 1479,3648 1479,3657 1478,3663 1472,3673 1428,3702 1385,3734 1365,3732 1349,3722 1331,3725 1312,3723 1299,3718 1277,3705 1303,3670 1305,3663 1279,3653 1272,3652 1264,3654 1237,3646 1217,3647 1211,3651 1204,3650 1173,3639 1174,3630 1164,3622 1176,3602 1169,3594 1172,3585 1186,3572 1186,3566 1141,3524 1152,3478 1157,3463 1156,3460 1181,3442 1188,3437 1214,3418 1239,3398 1265,3376 1292,3354 1318,3329 1342,3304 1367,3278 1391,3253 1417,3227 1436,3202 1478,3248 1520,3272 1655,3285 1728,3290 1762,3289 1763,3279 1767,3279 1771,3278 1774,3277 1778,3276 1780,3275 1783,3273 1786,3271 1789,3269 1792,3268 1794,3264 1799,3260 1802,3256 1804,3253 1805,3249 1807,3247 1809,3245 1811,3242 1812,3240 1814,3237 1817,3234 1819,3231 1826,3225 1830,3222 1836,3218 1842,3213 1846,3210 1850,3208 1856,3203 1860,3200 1864,3196 1869,3193 1874,3187 1878,3185 1881,3182 1885,3179 1888,3176 1894,3171 1900,3164 1905,3161 1908,3158 1912,3155 1916,3150 1919,3147 1923,3142 1926,3136 1928,3133 1930,3130 1933,3124 1935,3121 1939,3116 1951,3099 1962,3084 1975,3064 1976,3048 1991,3030 2002,2998 2026,2997 2025,3002 " class="polyStyle" id="320114" style="fill:#d4ecb2"/>
<polygon points="2099,2857 2124,2859 2133,2859 2150,2861 2218,2865 2266,2869 2295,2871 2300,2871 2318,2872 2340,2874 2337,2897 2342,2898 2346,2898 2349,2893 2353,2877 2354,2872 2357,2870 2365,2870 2382,2869 2387,2869 2392,2869 2398,2870 2399,2872 2398,2875 2395,2879 2392,2881 2390,2884 2389,2889 2402,2892 2400,2898 2395,2914 2395,2918 2395,2921 2399,2922 2409,2922 2419,2923 2425,2929 2426,2932 2425,2935 2423,2938 2423,2943 2423,2947 2427,2949 2447,2946 2443,2960 2443,2967 2444,2970 2447,2973 2452,2974 2456,2975 2460,2972 2467,2962 2471,2953 2475,2951 2480,2951 2488,2958 2491,2960 2496,2960 2499,2959 2507,2953 2513,2952 2527,2956 2533,2955 2540,2955 2545,2954 2553,2951 2558,2949 2563,2944 2567,2943 2571,2943 2574,2946 2579,2946 2581,2948 2582,2951 2582,2956 2584,2959 2587,2962 2586,2966 2585,2971 2585,2974 2585,2979 2588,2982 2593,2985 2597,2986 2602,2988 2607,2991 2598,2999 2582,3007 2578,3018 2563,3039 2529,3050 2509,3060 2500,3075 2475,3080 2417,3149 2416,3151 2413,3154 2410,3157 2408,3159 2404,3159 2399,3159 2395,3159 2391,3159 2387,3160 2384,3160 2379,3160 2375,3161 2371,3162 2366,3163 2364,3163 2361,3164 2357,3164 2353,3165 2350,3166 2347,3166 2344,3167 2341,3168 2338,3169 2334,3170 2330,3171 2325,3172 2323,3173 2319,3174 2316,3175 2313,3176 2309,3177 2305,3178 2300,3179 2298,3180 2294,3181 2291,3182 2287,3183 2284,3184 2282,3185 2279,3186 2275,3188 2273,3190 2270,3191 2267,3191 2263,3191 2261,3191 2257,3190 2253,3188 2247,3187 2244,3186 2241,3186 2232,3177 2227,3173 2225,3170 2220,3164 2216,3159 2209,3147 2209,3144 2207,3140 2205,3137 2201,3135 2199,3132 2189,3118 2182,3108 2183,3103 2183,3088 2168,3086 2157,3081 2154,3084 2150,3079 2143,3080 2140,3077 2140,3073 2136,3072 2131,3070 2130,3068 2126,3059 2122,3054 2120,3052 2117,3050 2112,3047 2113,3040 2109,3039 2105,3039 2098,3039 2094,3038 2088,3036 2079,3033 2071,3031 2056,3027 2053,3026 2050,3025 2047,3022 2042,3018 2039,3017 2033,3016 2026,3014 2025,3012 2024,3005 2025,3002 2026,2997 2026,2994 2030,2989 2039,2951 2043,2907 2041,2889 2032,2867 2024,2860 2026,2859 2034,2856 2037,2854 2041,2853 2061,2855 " class="polyStyle" id="320104" style="fill:#ee8b94"/>
<polygon points="1847,2651 1842,2733 1840,2758 1833,2774 1816,2818 1795,2853 1818,2867 1833,2873 1840,2870 1910,2870 1935,2875 1949,2874 1986,2881 1992,2880 2016,2865 2024,2860 2032,2867 2041,2889 2043,2907 2039,2951 2030,2989 2026,2994 2026,2997 2002,2998 1991,3030 1976,3048 1975,3064 1962,3084 1951,3099 1939,3116 1935,3121 1933,3124 1930,3130 1928,3133 1926,3136 1923,3142 1919,3147 1916,3150 1912,3155 1908,3158 1905,3161 1900,3164 1894,3171 1888,3176 1885,3179 1881,3182 1878,3185 1874,3187 1869,3193 1864,3196 1860,3200 1856,3203 1850,3208 1846,3210 1842,3213 1836,3218 1830,3222 1826,3225 1819,3231 1817,3234 1814,3237 1812,3240 1811,3242 1809,3245 1807,3247 1805,3249 1804,3253 1802,3256 1799,3260 1794,3264 1792,3268 1789,3269 1786,3271 1783,3273 1780,3275 1778,3276 1774,3277 1771,3278 1767,3279 1763,3279 1762,3289 1728,3290 1655,3285 1520,3272 1478,3248 1436,3202 1454,3176 1473,3150 1491,3124 1508,3097 1527,3077 1540,3052 1547,3025 1556,3000 1565,2974 1576,2947 1588,2921 1600,2895 1616,2869 1630,2843 1689,2740 1759,2668 1808,2632 1838,2592 1852,2614 " class="polyStyle" id="320105" style="fill:#f6f67b"/>
<polygon points="2388,2543 2390,2546 2391,2551 2395,2563 2394,2567 2392,2573 2388,2577 2382,2578 2374,2580 2371,2578 2366,2577 2361,2591 2361,2593 2367,2595 2371,2593 2373,2595 2375,2597 2381,2593 2393,2581 2402,2573 2414,2562 2417,2559 2419,2557 2422,2558 2425,2562 2428,2565 2429,2570 2426,2573 2423,2576 2419,2575 2417,2573 2413,2571 2415,2575 2416,2577 2415,2580 2418,2582 2422,2581 2428,2580 2435,2579 2443,2580 2449,2582 2452,2582 2456,2580 2459,2580 2462,2579 2467,2580 2471,2580 2474,2579 2477,2579 2481,2580 2485,2580 2490,2581 2495,2584 2498,2583 2505,2575 2511,2573 2515,2572 2519,2568 2522,2567 2527,2566 2534,2564 2539,2564 2542,2563 2543,2567 2546,2568 2551,2569 2554,2568 2559,2566 2562,2563 2570,2568 2575,2568 2578,2567 2581,2564 2583,2563 2589,2565 2591,2564 2592,2558 2593,2553 2594,2551 2597,2551 2601,2552 2604,2552 2607,2550 2611,2549 2616,2550 2619,2549 2623,2549 2627,2550 2630,2552 2636,2556 2642,2560 2661,2574 2665,2577 2673,2583 2680,2587 2689,2591 2699,2592 2708,2594 2715,2599 2724,2611 2736,2617 2752,2621 2757,2626 2767,2639 2768,2643 2767,2646 2765,2648 2761,2648 2755,2646 2753,2647 2751,2650 2749,2655 2743,2656 2738,2656 2731,2654 2725,2654 2720,2654 2717,2655 2712,2658 2708,2658 2705,2656 2697,2654 2694,2654 2690,2656 2687,2659 2681,2666 2674,2669 2670,2672 2669,2674 2673,2677 2673,2681 2672,2684 2670,2692 2668,2694 2666,2697 2661,2697 2651,2694 2647,2694 2646,2691 2643,2683 2640,2681 2634,2680 2632,2678 2629,2676 2626,2677 2624,2682 2619,2684 2616,2686 2609,2691 2608,2693 2611,2695 2613,2698 2617,2705 2622,2714 2616,2711 2612,2707 2611,2705 2611,2701 2611,2699 2608,2699 2605,2704 2603,2701 2600,2698 2595,2695 2593,2693 2591,2691 2588,2690 2585,2691 2584,2693 2585,2696 2587,2700 2588,2702 2585,2702 2585,2706 2588,2707 2590,2709 2593,2708 2595,2710 2598,2711 2601,2713 2608,2718 2612,2720 2616,2724 2617,2728 2621,2730 2626,2730 2628,2731 2630,2734 2631,2738 2633,2742 2636,2746 2637,2749 2637,2752 2633,2753 2635,2756 2638,2756 2640,2756 2643,2759 2644,2762 2641,2762 2637,2762 2633,2763 2635,2766 2638,2767 2640,2769 2638,2771 2641,2774 2644,2774 2646,2776 2644,2779 2643,2782 2642,2786 2641,2790 2638,2789 2637,2786 2635,2786 2632,2787 2633,2791 2635,2798 2637,2802 2638,2805 2637,2808 2633,2814 2630,2818 2627,2821 2622,2824 2619,2826 2612,2829 2608,2830 2602,2832 2595,2834 2590,2837 2592,2840 2595,2849 2598,2860 2605,2857 2612,2852 2618,2851 2623,2853 2626,2856 2624,2859 2618,2862 2615,2863 2612,2863 2610,2866 2612,2875 2612,2883 2615,2887 2619,2889 2632,2894 2637,2895 2650,2892 2658,2892 2664,2894 2670,2900 2676,2907 2679,2912 2680,2927 2677,2930 2671,2937 2675,2939 2679,2938 2681,2935 2683,2935 2687,2936 2691,2937 2688,2940 2686,2942 2684,2945 2681,2948 2678,2949 2676,2952 2674,2953 2670,2955 2667,2956 2664,2957 2661,2958 2658,2959 2655,2960 2652,2961 2648,2963 2643,2965 2639,2967 2634,2969 2631,2972 2627,2975 2622,2978 2617,2982 2614,2985 2612,2986 2609,2989 2607,2991 2602,2988 2597,2986 2593,2985 2588,2982 2585,2979 2585,2974 2585,2971 2586,2966 2587,2962 2584,2959 2582,2956 2582,2951 2581,2948 2579,2946 2574,2946 2571,2943 2567,2943 2563,2944 2558,2949 2553,2951 2545,2954 2540,2955 2533,2955 2527,2956 2513,2952 2507,2953 2499,2959 2496,2960 2491,2960 2488,2958 2480,2951 2475,2951 2471,2953 2467,2962 2460,2972 2456,2975 2452,2974 2447,2973 2444,2970 2443,2967 2443,2960 2447,2946 2427,2949 2423,2947 2423,2943 2423,2938 2425,2935 2426,2932 2425,2929 2419,2923 2409,2922 2399,2922 2395,2921 2395,2918 2395,2914 2400,2898 2402,2892 2389,2889 2390,2884 2392,2881 2395,2879 2398,2875 2399,2872 2398,2870 2392,2869 2387,2869 2382,2869 2365,2870 2357,2870 2354,2872 2353,2877 2349,2893 2346,2898 2342,2898 2337,2897 2340,2874 2318,2872 2300,2871 2295,2871 2266,2869 2218,2865 2150,2861 2133,2859 2124,2859 2124,2848 2124,2815 2123,2781 2123,2777 2125,2776 2125,2771 2124,2756 2124,2736 2124,2718 2124,2697 2123,2676 2123,2665 2124,2661 2123,2656 2123,2636 2123,2623 2123,2618 2123,2615 2122,2611 2123,2607 2135,2611 2148,2615 2163,2622 2172,2626 2180,2626 2188,2625 2192,2622 2187,2614 2187,2611 2188,2608 2192,2606 2196,2605 2199,2602 2199,2597 2198,2593 2202,2592 2204,2593 2207,2592 2210,2590 2217,2582 2222,2581 2229,2579 2234,2578 2239,2580 2246,2584 2254,2587 2259,2589 2262,2594 2266,2596 2276,2599 2281,2595 2287,2591 2294,2587 2295,2584 2296,2580 2297,2574 2298,2566 2300,2556 2299,2550 2302,2549 2319,2551 2327,2551 2334,2549 2336,2547 2337,2544 2340,2543 2350,2542 2353,2542 2358,2542 2366,2543 2372,2543 2375,2539 2379,2539 2383,2540 " class="polyStyle" id="320102" style="fill:#fbe6ef"/>
<polygon points="3296,2506 3322,2505 3348,2501 3373,2499 3399,2501 3410,2507 3409,2515 3404,2526 3427,2553 3437,2561 3453,2552 3464,2548 3478,2548 3488,2558 3504,2548 3530,2537 3555,2529 3581,2529 3603,2534 3606,2555 3615,2581 3633,2607 3649,2619 3658,2618 3683,2609 3692,2611 3701,2621 3702,2635 3701,2648 3698,2674 3695,2701 3693,2712 3686,2727 3673,2753 3655,2779 3634,2804 3639,2830 3648,2856 3665,2882 3663,2908 3676,2934 3673,2959 3685,2984 3690,3009 3687,3019 3672,3036 3663,3050 3667,3056 3698,3057 3706,3056 3715,3042 3724,3045 3750,3058 3766,3068 3773,3078 3772,3103 3773,3129 3778,3135 3800,3141 3810,3145 3809,3166 3806,3182 3796,3180 3783,3171 3774,3170 3765,3176 3760,3198 3756,3223 3745,3238 3730,3243 3719,3242 3704,3234 3677,3213 3652,3198 3626,3198 3600,3205 3574,3222 3549,3206 3521,3203 3494,3214 3467,3225 3442,3225 3429,3230 3412,3248 3402,3253 3376,3256 3350,3281 3348,3307 3349,3318 3358,3332 3378,3359 3391,3373 3403,3379 3419,3381 3428,3386 3434,3390 3453,3389 3465,3387 3478,3372 3504,3375 3530,3373 3545,3372 3556,3375 3592,3385 3626,3390 3648,3400 3651,3410 3662,3412 3688,3408 3708,3405 3713,3409 3731,3426 3735,3436 3740,3447 3745,3459 3746,3474 3749,3499 3752,3516 3757,3525 3766,3535 3762,3550 3758,3565 3787,3574 3797,3580 3799,3587 3800,3601 3799,3612 3796,3627 3791,3637 3784,3641 3759,3641 3747,3645 3740,3652 3723,3678 3716,3697 3715,3702 3712,3728 3706,3741 3680,3763 3662,3766 3617,3759 3578,3748 3561,3734 3548,3723 3540,3725 3522,3737 3497,3754 3470,3766 3444,3772 3433,3777 3419,3796 3412,3800 3392,3798 3366,3800 3342,3826 3331,3837 3316,3838 3291,3837 3265,3837 3238,3838 3212,3842 3186,3853 3181,3848 3161,3848 3134,3851 3108,3855 3100,3858 3100,3874 3097,3881 3089,3888 3071,3887 3064,3886 3052,3895 3057,3913 3068,3919 3061,3938 3062,3942 3069,3953 3088,3958 3114,3970 3141,3979 3146,3983 3148,3999 3163,4005 3176,4032 3197,4057 3223,4069 3237,4076 3237,4095 3242,4106 3234,4121 3220,4147 3194,4149 3167,4148 3141,4146 3124,4149 3116,4153 3113,4180 3118,4192 3114,4206 3108,4227 3102,4234 3092,4238 3082,4233 3056,4221 3029,4223 3002,4228 2976,4233 2971,4234 2951,4226 2924,4215 2897,4203 2871,4192 2863,4187 2845,4190 2840,4192 2812,4178 2793,4163 2768,4142 2739,4127 2731,4125 2723,4133 2726,4158 2723,4179 2720,4184 2702,4210 2687,4236 2683,4244 2686,4261 2691,4287 2698,4299 2702,4303 2711,4326 2711,4351 2710,4377 2709,4389 2716,4404 2742,4417 2769,4428 2796,4440 2822,4451 2848,4463 2858,4468 2873,4479 2883,4487 2891,4501 2897,4506 2907,4512 2920,4532 2939,4559 2949,4569 2940,4584 2938,4610 2925,4636 2920,4654 2928,4661 2943,4672 2935,4687 2924,4696 2910,4698 2898,4696 2884,4687 2876,4667 2851,4644 2825,4628 2801,4628 2786,4629 2734,4650 2732,4666 2741,4678 2743,4696 2734,4721 2718,4742 2708,4746 2692,4752 2680,4750 2663,4746 2655,4754 2645,4780 2643,4794 2632,4799 2629,4806 2633,4810 2647,4813 2640,4832 2633,4851 2614,4854 2588,4850 2561,4840 2535,4834 2523,4834 2495,4838 2480,4844 2463,4844 2448,4853 2448,4858 2457,4873 2447,4878 2424,4863 2409,4863 2399,4870 2378,4895 2376,4899 2372,4898 2368,4908 2354,4912 2336,4914 2322,4912 2296,4906 2290,4922 2302,4946 2298,4956 2278,4960 2250,4972 2244,4972 2232,4972 2220,4972 2204,4960 2200,4952 2192,4942 2174,4920 2152,4922 2150,4912 2154,4906 2162,4898 2162,4878 2146,4836 2142,4826 2136,4810 2130,4804 2118,4794 2116,4784 2128,4778 2150,4770 2172,4754 2176,4750 2190,4740 2176,4726 2170,4718 2156,4700 2092,4666 2072,4654 2048,4670 2026,4676 2010,4672 2000,4662 1990,4660 1978,4666 1964,4670 1954,4672 1946,4680 1936,4692 1926,4716 1926,4736 1926,4746 1924,4756 1937,4786 1937,4794 1935,4798 1933,4802 1930,4806 1926,4807 1922,4810 1919,4812 1914,4814 1911,4818 1912,4822 1915,4825 1918,4828 1918,4832 1915,4834 1910,4837 1907,4838 1904,4840 1904,4845 1907,4849 1911,4853 1914,4856 1913,4862 1908,4865 1905,4866 1903,4869 1900,4872 1896,4875 1892,4905 1894,4908 1891,4908 1882,4912 1872,4908 1863,4908 1854,4904 1848,4903 1844,4911 1841,4913 1828,4914 1827,4927 1818,4926 1802,4920 1786,4916 1776,4902 1776,4890 1780,4870 1766,4850 1750,4852 1746,4870 1708,4876 1692,4862 1662,4866 1662,4882 1650,4890 1644,4890 1618,4890 1610,4880 1594,4876 1530,4856 1496,4866 1478,4840 1448,4830 1436,4826 1422,4816 1422,4806 1432,4782 1438,4772 1442,4752 1440,4736 1438,4730 1424,4710 1426,4706 1432,4686 1430,4675 1430,4670 1450,4670 1455,4672 1484,4676 1510,4670 1526,4660 1540,4646 1546,4636 1548,4630 1554,4620 1558,4606 1558,4600 1558,4590 1556,4580 1594,4580 1614,4580 1624,4572 1642,4556 1648,4550 1658,4530 1662,4506 1660,4490 1654,4460 1646,4450 1638,4446 1606,4430 1570,4420 1528,4410 1514,4416 1502,4416 1488,4416 1471,4406 1438,4370 1418,4350 1408,4340 1408,4336 1416,4320 1426,4306 1424,4286 1420,4270 1414,4266 1396,4262 1382,4266 1376,4266 1364,4270 1358,4270 1339,4270 1324,4276 1302,4302 1286,4306 1276,4306 1260,4286 1246,4280 1230,4280 1220,4280 1198,4306 1190,4316 1176,4332 1160,4346 1154,4350 1124,4356 1106,4360 1080,4362 1072,4360 1068,4350 1064,4336 1062,4332 1054,4336 1044,4342 1034,4350 1018,4366 1010,4380 1000,4396 990,4410 980,4416 967,4419 955,4389 951,4385 947,4382 939,4385 930,4405 927,4408 923,4408 915,4397 907,4393 893,4383 890,4380 888,4377 883,4376 872,4382 861,4386 858,4384 854,4378 854,4357 850,4356 824,4357 814,4353 821,4342 824,4339 853,4325 896,4321 896,4316 890,4290 891,4287 901,4276 905,4274 936,4276 939,4274 941,4271 938,4264 933,4259 930,4256 915,4258 902,4260 898,4251 887,4237 884,4234 872,4232 860,4236 836,4254 820,4256 784,4250 748,4238 731,4221 726,4210 724,4204 722,4200 712,4192 696,4186 680,4186 658,4188 634,4182 629,4178 624,4174 616,4166 612,4154 610,4136 622,4104 650,4042 710,3908 720,3878 729,3863 722,3861 753,3817 772,3791 790,3766 808,3741 826,3715 850,3690 875,3665 901,3640 927,3622 952,3604 978,3586 1003,3568 1029,3550 1054,3532 1079,3514 1105,3496 1130,3478 1156,3460 1157,3463 1152,3478 1141,3524 1186,3566 1186,3572 1172,3585 1169,3594 1176,3602 1164,3622 1174,3630 1173,3639 1204,3650 1211,3651 1217,3647 1237,3646 1264,3654 1272,3652 1279,3653 1305,3663 1303,3670 1277,3705 1299,3718 1312,3723 1331,3725 1349,3722 1365,3732 1385,3734 1428,3702 1472,3673 1478,3663 1479,3657 1479,3648 1475,3638 1479,3613 1483,3600 1487,3594 1503,3578 1513,3575 1526,3575 1535,3577 1584,3567 1594,3570 1608,3590 1618,3591 1630,3590 1643,3584 1650,3579 1658,3567 1660,3559 1657,3553 1643,3546 1633,3546 1616,3542 1605,3518 1590,3512 1586,3504 1590,3492 1599,3480 1606,3474 1638,3454 1645,3452 1659,3453 1665,3447 1685,3446 1712,3436 1726,3436 1734,3440 1740,3446 1748,3451 1756,3453 1768,3446 1769,3439 1788,3435 1799,3417 1800,3404 1806,3396 1830,3406 1821,3427 1822,3439 1836,3449 1837,3475 1841,3481 1861,3489 1868,3489 1882,3483 1895,3480 1903,3482 1909,3487 1913,3499 1933,3505 1946,3505 1964,3501 1971,3498 1978,3493 1984,3486 2011,3492 2017,3491 2037,3477 2043,3475 2049,3475 2061,3480 2081,3480 2087,3477 2093,3465 2093,3458 2087,3451 2081,3439 2082,3424 2087,3398 2073,3380 2054,3361 2050,3349 2049,3343 2051,3329 2048,3299 2049,3293 2053,3286 2066,3275 2078,3275 2101,3282 2108,3281 2108,3269 2112,3256 2117,3250 2143,3238 2168,3229 2202,3222 2222,3213 2241,3200 2253,3188 2257,3190 2261,3191 2263,3191 2267,3191 2270,3191 2273,3190 2275,3188 2279,3186 2282,3185 2284,3184 2287,3183 2291,3182 2294,3181 2298,3180 2300,3179 2305,3178 2309,3177 2313,3176 2316,3175 2319,3174 2323,3173 2325,3172 2330,3171 2334,3170 2338,3169 2341,3168 2344,3167 2347,3166 2350,3166 2353,3165 2357,3164 2361,3164 2364,3163 2366,3163 2371,3162 2375,3161 2379,3160 2384,3160 2387,3160 2391,3159 2395,3159 2399,3159 2404,3159 2408,3159 2410,3157 2413,3154 2416,3151 2417,3149 2475,3080 2500,3075 2509,3060 2529,3050 2563,3039 2578,3018 2582,3007 2598,2999 2607,2991 2609,2989 2612,2986 2614,2985 2617,2982 2622,2978 2627,2975 2631,2972 2634,2969 2639,2967 2643,2965 2648,2963 2652,2961 2655,2960 2658,2959 2661,2958 2664,2957 2667,2956 2670,2955 2674,2953 2676,2952 2678,2949 2681,2948 2684,2945 2686,2942 2688,2940 2691,2937 2694,2932 2698,2929 2702,2927 2705,2925 2708,2925 2710,2923 2714,2922 2717,2919 2721,2918 2725,2915 2728,2914 2732,2912 2736,2908 2738,2907 2740,2905 2743,2903 2745,2901 2748,2898 2751,2897 2754,2893 2758,2890 2760,2889 2762,2885 2766,2882 2770,2878 2774,2874 2777,2872 2778,2870 2779,2866 2780,2863 2780,2860 2780,2856 2781,2854 2781,2851 2781,2848 2782,2844 2782,2842 2782,2839 2783,2835 2783,2832 2784,2829 2784,2826 2785,2823 2785,2821 2785,2817 2785,2814 2786,2811 2786,2807 2786,2804 2786,2801 2785,2798 2785,2796 2785,2793 2784,2791 2784,2787 2785,2785 2786,2782 2788,2779 2790,2778 2793,2774 2795,2770 2798,2767 2800,2763 2803,2759 2805,2755 2807,2753 2809,2750 2809,2745 2809,2742 2808,2738 2805,2735 2802,2732 2798,2729 2794,2726 2791,2724 2791,2721 2792,2717 2793,2714 2794,2711 2795,2708 2796,2705 2796,2702 2797,2699 2799,2697 2799,2694 2801,2691 2802,2689 2803,2686 2805,2681 2808,2680 2812,2680 2816,2680 2819,2680 2822,2682 2826,2684 2829,2685 2832,2686 2834,2687 2837,2689 2840,2690 2842,2691 2847,2692 2850,2694 2854,2693 2858,2693 2861,2693 2864,2692 2866,2690 2870,2688 2873,2685 2876,2683 2878,2680 2880,2677 2882,2674 2884,2671 2886,2668 2888,2665 2889,2661 2890,2657 2892,2654 2892,2650 2894,2646 2895,2643 2898,2642 2901,2639 2905,2637 2910,2634 2913,2633 2916,2634 2918,2634 2922,2633 2922,2630 2922,2626 2921,2623 2921,2618 2921,2613 2921,2610 2921,2608 2921,2605 2922,2601 2922,2598 2922,2594 2922,2591 2923,2588 2926,2587 2928,2586 2932,2584 2935,2583 2937,2581 2941,2579 2944,2578 2946,2576 2949,2575 2954,2574 2958,2573 2963,2572 2967,2571 2972,2570 2976,2569 2979,2568 2982,2567 2985,2567 2988,2566 2991,2565 2994,2565 2999,2565 3002,2565 3006,2565 3011,2563 3016,2561 3019,2560 3023,2558 3026,2555 3028,2553 3030,2550 3033,2548 3036,2545 3039,2542 3041,2540 3043,2538 3047,2535 3050,2532 3053,2531 3056,2529 3059,2528 3061,2526 3063,2525 3067,2522 3071,2522 3074,2519 3077,2518 3080,2518 3085,2519 3089,2519 3093,2520 3096,2521 3099,2523 3102,2525 3105,2528 3107,2530 3107,2536 3107,2538 3106,2542 3106,2545 3106,2549 3105,2552 3105,2556 3105,2560 3106,2563 3109,2567 3110,2572 3112,2574 3116,2577 3119,2580 3118,2582 3115,2584 3112,2586 3109,2588 3106,2590 3105,2593 3103,2596 3102,2599 3101,2602 3099,2606 3097,2608 3094,2610 3091,2613 3088,2616 3086,2618 3084,2621 3081,2622 3079,2625 3076,2626 3074,2629 3071,2631 3070,2633 3072,2635 3075,2638 3077,2639 3080,2642 3083,2646 3084,2648 3080,2650 3077,2652 3074,2653 3071,2653 3068,2653 3064,2654 3062,2657 3061,2660 3060,2663 3059,2665 3058,2669 3058,2673 3058,2676 3057,2679 3057,2683 3057,2686 3057,2689 3057,2691 3057,2694 3057,2697 3060,2700 3064,2702 3067,2705 3070,2706 3074,2707 3078,2708 3082,2708 3085,2708 3087,2707 3090,2706 3092,2704 3096,2702 3100,2700 3103,2697 3106,2695 3109,2693 3112,2691 3115,2688 3118,2685 3119,2681 3119,2677 3118,2674 3117,2670 3116,2666 3115,2662 3115,2660 3114,2656 3112,2653 3114,2649 3117,2645 3121,2645 3124,2644 3127,2643 3130,2643 3133,2642 3136,2641 3140,2640 3144,2639 3146,2638 3150,2637 3154,2636 3157,2635 3161,2633 3165,2631 3168,2628 3171,2627 3173,2625 3175,2623 3177,2621 3175,2619 3174,2617 3170,2617 3165,2618 3161,2618 3157,2618 3153,2619 3148,2620 3144,2621 3140,2621 3136,2621 3131,2620 3126,2620 3124,2619 3125,2616 3126,2613 3128,2610 3129,2607 3130,2605 3131,2602 3132,2599 3136,2596 3139,2594 3142,2592 3144,2590 3148,2587 3151,2587 3156,2586 3160,2586 3164,2586 3167,2585 3171,2585 3175,2585 3179,2584 3185,2582 3188,2581 3192,2580 3196,2579 3200,2577 3202,2574 3203,2571 3205,2568 3204,2566 3201,2565 3197,2563 3194,2562 3190,2560 3191,2557 3192,2554 3193,2550 3193,2547 3195,2545 3198,2542 3200,2539 3202,2538 3203,2535 3206,2531 3208,2527 3210,2523 3213,2520 3216,2517 3219,2515 3222,2513 3223,2511 3226,2510 3227,2508 3229,2506 3231,2505 3233,2503 3235,2501 3238,2498 3243,2497 3247,2497 3270,2504 " class="polyStyle" id="320115" style="fill:#f6f67b"/>
<polygon points="2128,2432 2133,2433 2137,2439 2126,2447 2120,2449 2116,2451 2112,2453 2117,2458 2125,2464 2132,2463 2139,2459 2143,2452 2150,2440 2156,2437 2160,2438 2164,2443 2165,2447 2168,2456 2173,2458 2182,2459 2194,2454 2197,2452 2200,2446 2202,2442 2206,2438 2209,2435 2213,2432 2217,2431 2221,2434 2220,2438 2219,2442 2220,2446 2224,2451 2228,2454 2231,2454 2233,2457 2233,2460 2227,2467 2219,2487 2212,2509 2207,2532 2206,2545 2205,2557 2206,2561 2213,2565 2216,2566 2219,2567 2223,2570 2217,2577 2210,2582 2205,2585 2200,2588 2202,2592 2198,2593 2199,2597 2199,2602 2196,2605 2192,2606 2188,2608 2187,2611 2187,2614 2192,2622 2188,2625 2180,2626 2172,2626 2163,2622 2148,2615 2135,2611 2123,2607 2122,2611 2123,2615 2123,2618 2123,2623 2123,2636 2123,2656 2124,2661 2123,2665 2123,2676 2124,2697 2124,2718 2124,2736 2124,2756 2125,2771 2125,2776 2123,2777 2123,2781 2124,2815 2124,2848 2124,2859 2099,2857 2061,2855 2041,2853 2037,2854 2034,2856 2026,2859 2024,2860 2016,2865 1992,2880 1986,2881 1949,2874 1935,2875 1910,2870 1840,2870 1833,2873 1818,2867 1795,2853 1816,2818 1833,2774 1840,2758 1842,2733 1847,2651 1852,2614 1838,2592 1893,2519 1933,2472 1969,2442 2004,2423 2032,2407 2086,2420 " class="polyStyle" id="320106" style="fill:#d4ecb2"/>
<polygon points="3966,1854 3993,1858 4018,1865 4043,1872 4069,1879 4095,1886 4120,1893 4146,1900 4171,1907 4197,1914 4222,1921 4248,1928 4273,1935 4300,1943 4327,1951 4352,1953 4377,1951 4379,1952 4405,1969 4404,1972 4403,1978 4391,2004 4378,2016 4365,2027 4339,2044 4310,2064 4304,2074 4294,2100 4289,2108 4284,2113 4277,2117 4244,2124 4225,2130 4199,2138 4173,2144 4167,2142 4147,2132 4131,2123 4122,2120 4116,2121 4095,2127 4069,2133 4042,2138 4022,2140 3983,2141 3965,2136 3938,2129 3913,2116 3902,2109 3886,2106 3877,2104 3861,2106 3847,2108 3834,2115 3810,2132 3800,2138 3776,2141 3758,2146 3733,2154 3705,2161 3679,2167 3652,2174 3626,2178 3613,2178 3587,2172 3580,2183 3578,2186 3597,2195 3590,2209 3584,2236 3582,2259 3574,2262 3549,2262 3522,2260 3496,2259 3470,2263 3444,2269 3419,2278 3392,2291 3367,2317 3362,2324 3367,2337 3362,2342 3337,2368 3324,2394 3309,2420 3302,2425 3284,2425 3262,2437 3258,2446 3257,2464 3254,2471 3247,2479 3243,2497 3238,2498 3235,2501 3233,2503 3231,2505 3229,2506 3227,2508 3226,2510 3223,2511 3222,2513 3219,2515 3216,2517 3213,2520 3210,2523 3208,2527 3206,2531 3203,2535 3202,2538 3200,2539 3198,2542 3195,2545 3193,2547 3193,2550 3192,2554 3191,2557 3190,2560 3194,2562 3197,2563 3201,2565 3204,2566 3205,2568 3203,2571 3202,2574 3200,2577 3196,2579 3192,2580 3188,2581 3185,2582 3179,2584 3175,2585 3171,2585 3167,2585 3164,2586 3160,2586 3156,2586 3151,2587 3148,2587 3144,2590 3142,2592 3139,2594 3136,2596 3132,2599 3131,2602 3130,2605 3129,2607 3128,2610 3126,2613 3125,2616 3124,2619 3126,2620 3131,2620 3136,2621 3140,2621 3144,2621 3148,2620 3153,2619 3157,2618 3161,2618 3165,2618 3170,2617 3174,2617 3175,2619 3177,2621 3175,2623 3173,2625 3171,2627 3168,2628 3165,2631 3161,2633 3157,2635 3154,2636 3150,2637 3146,2638 3144,2639 3140,2640 3136,2641 3133,2642 3130,2643 3127,2643 3124,2644 3121,2645 3117,2645 3114,2649 3112,2653 3114,2656 3115,2660 3115,2662 3116,2666 3117,2670 3118,2674 3119,2677 3119,2681 3118,2685 3115,2688 3112,2691 3109,2693 3106,2695 3103,2697 3100,2700 3096,2702 3092,2704 3090,2706 3087,2707 3085,2708 3082,2708 3078,2708 3074,2707 3070,2706 3067,2705 3064,2702 3060,2700 3057,2697 3057,2694 3057,2691 3057,2689 3057,2686 3057,2683 3057,2679 3058,2676 3058,2673 3058,2669 3059,2665 3060,2663 3061,2660 3062,2657 3064,2654 3068,2653 3071,2653 3074,2653 3077,2652 3080,2650 3084,2648 3083,2646 3080,2642 3077,2639 3075,2638 3072,2635 3070,2633 3071,2631 3074,2629 3076,2626 3079,2625 3081,2622 3084,2621 3086,2618 3088,2616 3091,2613 3094,2610 3097,2608 3099,2606 3101,2602 3102,2599 3103,2596 3105,2593 3106,2590 3109,2588 3112,2586 3115,2584 3118,2582 3119,2580 3116,2577 3112,2574 3110,2572 3109,2567 3106,2563 3105,2560 3105,2556 3105,2552 3106,2549 3106,2545 3106,2542 3107,2538 3107,2536 3107,2530 3105,2528 3102,2525 3099,2523 3096,2521 3093,2520 3089,2519 3085,2519 3080,2518 3077,2518 3074,2519 3071,2522 3067,2522 3063,2525 3061,2526 3059,2528 3056,2529 3053,2531 3050,2532 3047,2535 3043,2538 3041,2540 3039,2542 3036,2545 3033,2548 3030,2550 3028,2553 3026,2555 3023,2558 3019,2560 3016,2561 3011,2563 3006,2565 3002,2565 2999,2565 2994,2565 2991,2565 2988,2566 2985,2567 2982,2567 2979,2568 2976,2569 2972,2570 2967,2571 2963,2572 2958,2573 2954,2574 2949,2575 2946,2576 2944,2578 2941,2579 2937,2581 2935,2583 2932,2584 2928,2586 2926,2587 2923,2588 2922,2591 2922,2594 2922,2598 2922,2601 2921,2605 2921,2608 2921,2610 2921,2613 2921,2618 2921,2623 2922,2626 2922,2630 2922,2633 2918,2634 2916,2634 2913,2633 2910,2634 2905,2637 2901,2639 2898,2642 2895,2643 2894,2646 2892,2650 2892,2654 2890,2657 2889,2661 2888,2665 2886,2668 2884,2671 2882,2674 2880,2677 2878,2680 2876,2683 2873,2685 2870,2688 2866,2690 2864,2692 2861,2693 2858,2693 2854,2693 2850,2694 2847,2692 2842,2691 2840,2690 2837,2689 2834,2687 2832,2686 2829,2685 2826,2684 2822,2682 2819,2680 2816,2680 2812,2680 2808,2680 2805,2681 2803,2686 2802,2689 2801,2691 2799,2694 2799,2697 2797,2699 2796,2702 2796,2705 2795,2708 2794,2711 2793,2714 2792,2717 2791,2721 2791,2724 2794,2726 2798,2729 2802,2732 2805,2735 2808,2738 2809,2742 2809,2745 2809,2750 2807,2753 2805,2755 2803,2759 2800,2763 2798,2767 2795,2770 2793,2774 2790,2778 2788,2779 2786,2782 2785,2785 2784,2787 2784,2791 2785,2793 2785,2796 2785,2798 2786,2801 2786,2804 2786,2807 2786,2811 2785,2814 2785,2817 2785,2821 2785,2823 2784,2826 2784,2829 2783,2832 2783,2835 2782,2839 2782,2842 2782,2844 2781,2848 2781,2851 2781,2854 2780,2856 2780,2860 2780,2863 2779,2866 2778,2870 2777,2872 2774,2874 2770,2878 2766,2882 2762,2885 2760,2889 2758,2890 2754,2893 2751,2897 2748,2898 2745,2901 2743,2903 2740,2905 2738,2907 2736,2908 2732,2912 2728,2914 2725,2915 2721,2918 2717,2919 2714,2922 2710,2923 2708,2925 2705,2925 2702,2927 2698,2929 2694,2932 2691,2937 2687,2936 2683,2935 2681,2935 2679,2938 2675,2939 2671,2937 2677,2930 2680,2927 2679,2912 2676,2907 2670,2900 2664,2894 2658,2892 2650,2892 2637,2895 2632,2894 2619,2889 2615,2887 2612,2883 2612,2875 2610,2866 2612,2863 2615,2863 2618,2862 2624,2859 2626,2856 2623,2853 2618,2851 2612,2852 2605,2857 2598,2860 2595,2849 2592,2840 2590,2837 2595,2834 2602,2832 2608,2830 2612,2829 2619,2826 2622,2824 2627,2821 2630,2818 2633,2814 2637,2808 2638,2805 2637,2802 2635,2798 2633,2791 2632,2787 2635,2786 2637,2786 2638,2789 2641,2790 2642,2786 2643,2782 2644,2779 2646,2776 2644,2774 2641,2774 2638,2771 2640,2769 2638,2767 2635,2766 2633,2763 2637,2762 2641,2762 2644,2762 2643,2759 2640,2756 2638,2756 2635,2756 2633,2753 2637,2752 2637,2749 2636,2746 2633,2742 2631,2738 2630,2734 2628,2731 2626,2730 2621,2730 2617,2728 2616,2724 2612,2720 2608,2718 2601,2713 2598,2711 2595,2710 2593,2708 2590,2709 2588,2707 2585,2706 2585,2702 2588,2702 2587,2700 2585,2696 2584,2693 2585,2691 2588,2690 2591,2691 2593,2693 2595,2695 2600,2698 2603,2701 2605,2704 2608,2699 2611,2699 2611,2701 2611,2705 2612,2707 2616,2711 2622,2714 2617,2705 2613,2698 2611,2695 2608,2693 2609,2691 2616,2686 2619,2684 2624,2682 2626,2677 2629,2676 2632,2678 2634,2680 2640,2681 2643,2683 2646,2691 2647,2694 2651,2694 2661,2697 2666,2697 2668,2694 2670,2692 2672,2684 2673,2681 2673,2677 2669,2674 2670,2672 2674,2669 2681,2666 2687,2659 2690,2656 2694,2654 2697,2654 2705,2656 2708,2658 2712,2658 2717,2655 2720,2654 2725,2654 2731,2654 2738,2656 2743,2656 2749,2655 2751,2650 2753,2647 2755,2646 2761,2648 2765,2648 2767,2646 2768,2643 2767,2639 2757,2626 2752,2621 2736,2617 2724,2611 2715,2599 2708,2594 2699,2592 2689,2591 2680,2587 2673,2583 2665,2577 2661,2574 2642,2560 2636,2556 2630,2552 2627,2550 2623,2549 2619,2549 2616,2550 2611,2549 2607,2550 2604,2552 2601,2552 2597,2551 2594,2551 2593,2553 2592,2558 2591,2564 2589,2565 2583,2563 2581,2564 2578,2567 2575,2568 2570,2568 2562,2563 2559,2566 2554,2568 2551,2569 2546,2568 2543,2567 2542,2563 2539,2564 2534,2564 2527,2566 2522,2567 2519,2568 2515,2572 2511,2573 2505,2575 2498,2583 2495,2584 2490,2581 2485,2580 2481,2580 2477,2579 2474,2579 2471,2580 2467,2580 2462,2579 2459,2580 2456,2580 2452,2582 2449,2582 2443,2580 2435,2579 2428,2580 2422,2581 2418,2582 2415,2580 2416,2577 2415,2575 2413,2571 2417,2573 2419,2575 2423,2576 2426,2573 2429,2570 2428,2565 2425,2562 2422,2558 2419,2557 2417,2559 2414,2562 2402,2573 2393,2581 2381,2593 2375,2597 2373,2595 2371,2593 2367,2595 2361,2593 2361,2591 2366,2577 2371,2578 2374,2580 2382,2578 2388,2577 2392,2573 2394,2567 2395,2563 2391,2551 2390,2546 2388,2543 2383,2540 2379,2539 2375,2539 2372,2543 2366,2543 2358,2542 2353,2542 2350,2542 2340,2543 2337,2544 2336,2547 2334,2549 2327,2551 2319,2551 2302,2549 2299,2550 2300,2556 2298,2566 2297,2574 2296,2580 2295,2584 2294,2587 2287,2591 2281,2595 2276,2599 2266,2596 2262,2594 2259,2589 2254,2587 2246,2584 2239,2580 2234,2578 2229,2579 2222,2581 2217,2582 2210,2590 2207,2592 2204,2593 2202,2592 2200,2588 2205,2585 2210,2582 2217,2577 2223,2570 2219,2567 2216,2566 2213,2565 2206,2561 2205,2557 2206,2545 2207,2532 2212,2509 2219,2487 2227,2467 2233,2460 2233,2457 2231,2454 2228,2454 2224,2451 2220,2446 2219,2442 2220,2438 2221,2434 2217,2431 2213,2432 2209,2435 2206,2438 2202,2442 2200,2446 2197,2452 2194,2454 2182,2459 2173,2458 2168,2456 2165,2447 2164,2443 2160,2438 2156,2437 2150,2440 2143,2452 2139,2459 2132,2463 2125,2464 2117,2458 2112,2453 2116,2451 2120,2449 2126,2447 2137,2439 2133,2433 2128,2432 2086,2420 2032,2407 2056,2394 2080,2353 2092,2306 2090,2266 2080,2235 2071,2202 2057,2162 2043,2130 2027,2090 2026,2063 2045,2031 2062,2014 2163,1949 2238,1923 2299,1913 2321,1913 2354,1918 2379,1925 2406,1932 2432,1950 2457,1968 2483,1991 2500,2017 2515,2043 2527,2068 2539,2093 2545,2107 2556,2133 2567,2158 2593,2171 2619,2171 2645,2173 2671,2176 2696,2179 2723,2181 2748,2183 2775,2185 2800,2186 2825,2187 2851,2188 2876,2190 2902,2191 2927,2192 2953,2192 2978,2192 3003,2193 3028,2193 3053,2193 3079,2193 3104,2193 3130,2192 3151,2190 3176,2188 3202,2186 3228,2179 3255,2163 3280,2144 3305,2124 3331,2103 3356,2081 3382,2060 3407,2038 3432,2017 3458,1994 3484,1973 3510,1952 3536,1933 3562,1916 3588,1899 3614,1883 3639,1865 3657,1858 3683,1852 3710,1849 3735,1847 3760,1847 3785,1846 3811,1846 3836,1846 3861,1846 3886,1846 3912,1846 3938,1850 " class="polyStyle" id="320113" style="fill:#ee8b94"/>
<polygon points="1690,1824 1736,1824 1786,1820 1805,1817 1805,1825 1799,1836 1800,1843 1805,1851 1816,1862 1817,1868 1813,1877 1808,1903 1813,1918 1811,1926 1814,1932 1811,1941 1819,1946 1824,1953 1826,1959 1821,1965 1820,1971 1832,1979 1839,1991 1846,1996 1861,2003 1863,2013 1857,2029 1874,2043 1874,2051 1871,2059 1892,2071 1897,2078 1900,2091 1900,2115 1894,2120 1888,2119 1886,2126 1893,2133 1899,2136 1902,2154 1902,2167 1895,2179 1889,2184 1881,2186 1875,2179 1857,2179 1853,2189 1853,2198 1858,2231 1867,2229 1878,2220 1916,2170 1939,2146 1948,2146 1955,2150 1961,2151 1973,2138 1977,2131 2036,2130 2043,2130 2057,2162 2071,2202 2080,2235 2090,2266 2092,2306 2080,2353 2056,2394 2032,2407 2004,2423 1969,2442 1933,2472 1893,2519 1838,2592 1808,2632 1759,2668 1689,2740 1630,2843 1616,2869 1600,2895 1588,2921 1576,2947 1565,2974 1556,3000 1547,3025 1540,3052 1527,3077 1508,3097 1491,3124 1473,3150 1454,3176 1436,3202 1417,3227 1391,3253 1367,3278 1342,3304 1318,3329 1292,3354 1265,3376 1239,3398 1214,3418 1188,3437 1181,3442 1156,3460 1130,3478 1105,3496 1079,3514 1054,3532 1029,3550 1003,3568 978,3586 952,3604 927,3622 901,3640 875,3665 850,3690 826,3715 808,3741 790,3766 772,3791 753,3817 722,3861 666,3850 634,3839 616,3832 595,3822 579,3811 575,3808 561,3797 557,3793 550,3788 538,3772 534,3765 527,3757 525,3752 525,3746 525,3732 528,3724 542,3724 554,3726 562,3728 570,3726 580,3710 602,3696 590,3674 590,3656 586,3648 560,3644 544,3638 522,3642 518,3644 502,3646 474,3644 438,3636 418,3624 410,3616 374,3568 362,3574 362,3582 346,3588 318,3578 310,3576 304,3576 304,3582 322,3602 326,3606 326,3612 318,3634 310,3642 290,3642 273,3637 262,3622 254,3602 246,3568 244,3554 244,3542 246,3534 250,3516 236,3510 226,3506 208,3498 192,3492 168,3488 154,3494 136,3516 132,3520 126,3524 118,3526 108,3526 76,3512 66,3498 102,3478 88,3462 72,3440 62,3430 52,3418 18,3432 8,3426 0,3410 0,3392 26,3390 46,3356 32,3330 32,3300 34,3290 42,3238 50,3232 60,3234 70,3238 90,3238 108,3230 110,3222 60,3182 52,3172 58,3162 84,3162 112,3164 128,3154 142,3132 160,3106 166,3088 154,3076 148,3070 140,3048 136,3034 138,3024 146,3002 158,2992 170,2986 186,2986 192,2986 204,2988 208,2986 210,2974 206,2964 190,2946 178,2946 150,2952 140,2956 133,2953 128,2948 110,2914 112,2900 164,2840 168,2830 168,2820 166,2814 144,2800 126,2784 122,2782 120,2776 122,2773 127,2765 133,2757 137,2753 143,2753 147,2756 152,2758 157,2758 165,2754 172,2746 175,2739 181,2722 183,2715 184,2710 182,2704 178,2698 175,2693 175,2687 181,2683 187,2681 194,2680 201,2682 207,2685 214,2690 220,2691 226,2686 226,2681 224,2675 225,2669 230,2665 236,2664 243,2665 247,2664 254,2665 260,2662 267,2654 271,2645 274,2635 278,2629 283,2631 292,2637 304,2637 335,2637 345,2638 352,2638 361,2635 371,2632 372,2626 374,2620 376,2615 384,2621 389,2621 397,2619 401,2610 412,2601 423,2595 433,2594 439,2594 447,2579 451,2576 457,2580 464,2581 475,2579 477,2575 485,2565 492,2560 495,2559 501,2559 508,2561 514,2562 521,2558 529,2547 533,2541 537,2536 543,2532 549,2528 556,2524 564,2519 567,2510 568,2500 566,2489 570,2485 583,2478 595,2478 606,2481 616,2480 619,2477 638,2469 655,2460 659,2460 671,2458 681,2460 689,2462 695,2462 700,2462 705,2460 705,2454 699,2448 692,2442 686,2436 684,2427 679,2418 678,2412 678,2407 686,2402 694,2400 694,2392 690,2379 692,2372 695,2363 699,2360 712,2362 722,2371 734,2374 741,2382 718,2329 682,2229 672,2179 684,2167 700,2165 724,2169 742,2147 730,2117 740,2097 741,2094 750,2095 753,2096 774,2109 795,2121 809,2125 813,2125 824,2122 827,2121 834,2117 859,2089 865,2089 883,2100 897,2103 900,2102 918,2099 942,2092 947,2086 948,2079 955,2068 962,2066 971,2068 977,2071 982,2074 1000,2081 1006,2082 1030,2068 1033,2065 1041,2060 1056,2055 1071,2053 1078,2056 1093,2066 1106,2073 1123,2076 1137,2072 1144,2066 1159,2065 1164,2081 1166,2089 1173,2091 1195,2067 1247,2054 1282,2042 1296,2039 1310,2041 1340,2053 1346,2053 1349,2053 1360,2049 1365,2046 1389,2030 1403,2022 1425,2016 1432,2012 1440,2004 1448,1986 1463,1974 1536,1903 1544,1892 1551,1877 1567,1840 1571,1824 1573,1816 1580,1809 1592,1814 " class="polyStyle" id="320111" style="fill:#fbe6ef"/>
<path d="" class="polyStyle" id="411502" style="fill:#ee8b94"/>
<polygon points="1828,32 1830,52 1826,72 1828,84 1830,92 1834,94 1838,100 1842,104 1854,108 1862,112 1872,118 1888,122 1914,114 1950,88 1958,50 1962,48 1966,46 1978,42 2006,48 2012,50 2034,58 2040,60 2049,65 2064,72 2084,82 2082,94 2078,112 2082,120 2094,130 2102,136 2122,150 2136,152 2156,150 2194,154 2226,158 2226,146 2218,136 2220,128 2220,120 2216,112 2224,100 2230,100 2242,102 2252,96 2240,74 2254,62 2306,54 2328,58 2328,62 2312,78 2316,90 2320,98 2318,110 2320,114 2320,120 2316,124 2306,124 2294,128 2286,138 2282,144 2286,156 2308,160 2348,160 2356,184 2330,184 2340,204 2366,212 2374,212 2402,224 2420,232 2434,232 2442,228 2458,212 2472,198 2480,192 2494,192 2504,194 2512,190 2564,182 2556,148 2564,148 2572,150 2582,152 2588,164 2594,180 2600,186 2612,194 2622,188 2626,180 2622,168 2616,154 2610,126 2616,116 2622,114 2650,122 2670,130 2684,134 2704,130 2719,124 2730,117 2736,109 2740,108 2751,115 2753,119 2751,128 2744,139 2729,148 2714,156 2711,159 2707,166 2700,179 2697,181 2690,183 2679,189 2676,192 2672,220 2678,228 2694,232 2692,280 2678,268 2672,254 2664,254 2642,272 2636,276 2634,288 2640,304 2658,314 2675,321 2692,314 2704,304 2704,300 2726,274 2730,272 2750,270 2746,310 2746,322 2760,322 2778,322 2788,318 2794,312 2792,304 2790,300 2778,292 2770,272 2776,268 2788,264 2800,274 2808,280 2812,282 2822,286 2836,288 2852,288 2876,286 2896,314 2924,342 2962,372 2974,386 2984,398 2986,410 2988,416 2994,426 3004,430 3014,424 3020,420 3032,426 3048,446 3038,478 3046,494 3048,502 3070,538 3110,548 3118,548 3124,544 3134,544 3152,544 3170,560 3196,562 3204,534 3228,528 3232,510 3226,500 3232,492 3284,490 3274,458 3304,460 3312,484 3358,484 3372,484 3400,488 3404,506 3404,516 3408,532 3410,552 3424,548 3442,578 3420,586 3416,600 3430,606 3442,610 3456,616 3472,620 3508,638 3526,648 3526,660 3522,672 3480,668 3482,692 3530,698 3528,716 3524,730 3516,744 3514,752 3513,756 3510,756 3508,756 3505,755 3503,753 3500,751 3499,750 3495,748 3491,748 3488,747 3484,747 3481,747 3478,747 3475,747 3470,747 3467,748 3463,749 3458,750 3453,751 3449,752 3444,753 3440,753 3436,754 3433,757 3430,759 3427,761 3425,764 3422,765 3419,768 3416,770 3414,773 3412,775 3409,777 3407,780 3405,782 3403,784 3400,787 3398,789 3395,792 3392,795 3390,798 3388,799 3385,803 3382,805 3379,804 3377,802 3373,800 3371,798 3368,797 3364,794 3362,792 3358,790 3357,789 3354,787 3350,787 3346,786 3341,785 3337,785 3333,785 3329,785 3326,786 3324,787 3321,788 3319,790 3317,794 3318,799 3319,803 3319,806 3318,809 3318,812 3317,815 3317,818 3316,823 3316,827 3314,831 3313,836 3312,840 3312,843 3312,846 3312,849 3312,852 3312,857 3313,860 3314,864 3315,867 3319,871 3322,874 3325,877 3326,879 3329,882 3331,884 3334,887 3336,890 3339,892 3340,894 3341,895 3343,899 3345,902 3346,905 3347,908 3348,912 3350,916 3350,922 3348,925 3346,928 3344,932 3340,935 3336,938 3333,941 3331,943 3329,946 3328,949 3328,953 3327,956 3326,960 3323,963 3318,964 3315,965 3312,965 3309,967 3307,968 3304,970 3301,972 3299,973 3296,974 3293,976 3291,980 3290,984 3289,986 3288,990 3287,994 3286,997 3285,1000 3285,1002 3285,1005 3285,1008 3285,1011 3285,1015 3285,1017 3285,1020 3285,1025 3285,1028 3285,1032 3285,1035 3285,1038 3285,1042 3286,1045 3287,1048 3287,1051 3288,1053 3288,1056 3289,1058 3289,1061 3289,1065 3290,1069 3290,1072 3292,1073 3294,1075 3297,1077 3301,1080 3303,1081 3306,1083 3310,1084 3313,1086 3314,1088 3315,1091 3317,1094 3318,1098 3318,1101 3318,1103 3318,1106 3318,1111 3320,1114 3323,1116 3327,1118 3330,1121 3333,1123 3337,1124 3340,1127 3345,1129 3348,1131 3350,1132 3354,1131 3358,1131 3361,1130 3364,1128 3367,1126 3370,1124 3373,1123 3377,1121 3381,1120 3385,1122 3388,1122 3390,1125 3391,1129 3392,1131 3392,1134 3393,1137 3395,1141 3398,1144 3397,1147 3396,1150 3396,1153 3395,1155 3395,1159 3392,1161 3389,1162 3387,1164 3384,1165 3381,1166 3378,1167 3374,1167 3370,1167 3366,1167 3364,1166 3361,1166 3358,1166 3354,1166 3350,1166 3346,1166 3341,1166 3337,1166 3334,1166 3330,1166 3326,1166 3321,1166 3319,1166 3316,1166 3313,1167 3309,1169 3305,1171 3304,1174 3303,1177 3304,1180 3305,1184 3308,1187 3310,1190 3316,1192 3320,1194 3323,1195 3326,1196 3329,1197 3331,1198 3336,1199 3340,1201 3343,1201 3346,1202 3351,1204 3356,1206 3361,1208 3366,1209 3370,1211 3373,1212 3378,1214 3381,1215 3385,1218 3387,1219 3391,1221 3394,1224 3397,1226 3399,1228 3402,1229 3405,1231 3408,1234 3412,1236 3415,1238 3417,1239 3418,1240 3420,1243 3417,1246 3414,1248 3409,1250 3405,1253 3402,1255 3398,1259 3396,1262 3394,1264 3392,1267 3390,1270 3390,1273 3389,1276 3388,1280 3388,1283 3384,1287 3381,1290 3378,1291 3375,1293 3371,1294 3366,1295 3362,1296 3359,1297 3356,1298 3352,1299 3350,1300 3347,1303 3344,1306 3340,1310 3339,1314 3339,1318 3339,1321 3339,1325 3339,1328 3340,1331 3341,1335 3343,1339 3344,1342 3347,1345 3351,1349 3354,1351 3357,1354 3359,1356 3362,1359 3363,1360 3366,1363 3368,1364 3372,1367 3375,1370 3377,1371 3380,1374 3383,1377 3387,1380 3390,1383 3391,1384 3396,1388 3400,1391 3403,1394 3405,1395 3408,1398 3412,1402 3412,1406 3411,1408 3408,1411 3405,1414 3404,1416 3402,1417 3399,1419 3397,1422 3394,1425 3392,1428 3390,1431 3388,1433 3388,1436 3389,1439 3389,1442 3389,1445 3389,1447 3390,1451 3390,1454 3390,1456 3390,1459 3389,1462 3389,1464 3389,1468 3389,1472 3388,1477 3388,1480 3388,1485 3389,1490 3389,1494 3390,1497 3388,1501 3388,1505 3387,1508 3385,1511 3384,1515 3383,1518 3381,1521 3381,1525 3383,1528 3385,1532 3388,1535 3392,1539 3395,1542 3398,1545 3399,1547 3402,1550 3402,1553 3402,1555 3402,1558 3402,1562 3401,1565 3399,1566 3399,1569 3396,1570 3395,1573 3392,1577 3391,1580 3389,1583 3387,1586 3386,1589 3384,1592 3384,1595 3385,1598 3388,1602 3390,1605 3391,1607 3393,1611 3396,1614 3398,1618 3400,1620 3401,1623 3402,1626 3402,1629 3402,1632 3403,1634 3404,1637 3404,1640 3404,1643 3404,1646 3403,1649 3403,1652 3403,1655 3403,1658 3402,1663 3402,1667 3402,1670 3402,1672 3403,1676 3405,1680 3406,1685 3407,1687 3407,1691 3407,1694 3407,1698 3407,1701 3408,1704 3408,1709 3407,1714 3406,1717 3405,1722 3405,1725 3404,1728 3403,1731 3403,1734 3401,1737 3400,1740 3397,1743 3395,1746 3393,1748 3390,1752 3389,1755 3388,1757 3388,1760 3388,1764 3387,1768 3390,1770 3392,1773 3393,1774 3397,1777 3401,1780 3403,1782 3408,1783 3412,1784 3416,1786 3418,1786 3422,1787 3425,1788 3429,1789 3433,1791 3437,1792 3439,1793 3443,1794 3446,1794 3449,1795 3453,1797 3457,1798 3460,1799 3464,1800 3468,1802 3471,1803 3474,1804 3479,1805 3484,1806 3488,1808 3492,1808 3496,1809 3501,1810 3505,1811 3509,1811 3513,1812 3518,1813 3522,1813 3527,1814 3531,1815 3536,1815 3540,1816 3543,1816 3548,1817 3553,1818 3557,1818 3561,1819 3565,1819 3568,1820 3571,1820 3574,1821 3578,1824 3582,1828 3584,1829 3586,1832 3588,1835 3591,1838 3598,1843 3632,1863 3639,1865 3614,1883 3588,1899 3562,1916 3536,1933 3510,1952 3484,1973 3458,1994 3432,2017 3407,2038 3382,2060 3356,2081 3331,2103 3305,2124 3280,2144 3255,2163 3228,2179 3202,2186 3176,2188 3151,2190 3130,2192 3104,2193 3079,2193 3053,2193 3028,2193 3003,2193 2978,2192 2953,2192 2927,2192 2902,2191 2876,2190 2851,2188 2825,2187 2800,2186 2775,2185 2748,2183 2723,2181 2696,2179 2671,2176 2645,2173 2619,2171 2593,2171 2567,2158 2556,2133 2545,2107 2539,2093 2527,2068 2515,2043 2500,2017 2483,1991 2457,1968 2432,1950 2406,1932 2379,1925 2354,1918 2321,1913 2299,1913 2238,1923 2163,1949 2062,2014 2045,2031 2026,2063 2027,2090 2043,2130 2036,2130 1977,2131 1973,2138 1961,2151 1955,2150 1948,2146 1939,2146 1916,2170 1878,2220 1867,2229 1858,2231 1853,2198 1853,2189 1857,2179 1875,2179 1881,2186 1889,2184 1895,2179 1902,2167 1902,2154 1899,2136 1893,2133 1886,2126 1888,2119 1894,2120 1900,2115 1900,2091 1897,2078 1892,2071 1871,2059 1874,2051 1874,2043 1857,2029 1863,2013 1861,2003 1846,1996 1839,1991 1832,1979 1820,1971 1821,1965 1826,1959 1824,1953 1819,1946 1811,1941 1814,1932 1811,1926 1813,1918 1808,1903 1813,1877 1817,1868 1816,1862 1805,1851 1800,1843 1799,1836 1805,1825 1805,1817 1786,1820 1736,1824 1690,1824 1592,1814 1580,1809 1583,1802 1580,1792 1574,1788 1562,1785 1541,1779 1517,1763 1513,1757 1507,1750 1506,1740 1505,1735 1507,1724 1512,1716 1519,1702 1528,1690 1546,1666 1557,1642 1557,1638 1556,1615 1554,1601 1546,1591 1516,1588 1501,1583 1493,1571 1493,1566 1493,1561 1498,1550 1512,1538 1538,1529 1548,1524 1564,1514 1579,1498 1583,1495 1600,1485 1635,1480 1670,1483 1680,1481 1683,1480 1688,1475 1689,1470 1688,1466 1681,1461 1667,1458 1646,1455 1627,1449 1621,1441 1623,1433 1632,1425 1643,1422 1649,1420 1657,1419 1667,1420 1703,1422 1719,1420 1722,1417 1731,1410 1738,1403 1744,1389 1745,1382 1741,1375 1723,1364 1710,1362 1702,1360 1691,1354 1687,1345 1687,1337 1690,1330 1699,1319 1706,1314 1731,1299 1741,1296 1744,1293 1736,1285 1717,1274 1706,1259 1694,1243 1691,1239 1682,1225 1668,1205 1663,1189 1660,1181 1659,1178 1643,1144 1619,1128 1615,1125 1603,1118 1601,1108 1600,1100 1611,1082 1627,1085 1633,1084 1637,1083 1641,1081 1642,1076 1638,1063 1634,1057 1631,1057 1629,1054 1629,1051 1636,1030 1647,991 1647,974 1638,930 1639,913 1643,895 1647,871 1648,854 1651,833 1655,820 1661,804 1660,800 1660,794 1658,787 1657,780 1659,770 1663,760 1665,756 1667,740 1658,708 1657,705 1650,703 1630,703 1610,708 1606,709 1575,721 1566,720 1532,711 1513,704 1476,689 1440,680 1430,696 1417,716 1409,716 1375,711 1371,713 1365,719 1361,722 1345,729 1330,725 1312,715 1306,715 1268,715 1247,714 1244,687 1189,684 1173,674 1170,670 1169,667 1166,658 1168,622 1168,607 1166,567 1178,555 1182,553 1243,558 1246,557 1248,554 1260,542 1280,525 1282,521 1290,507 1291,503 1288,487 1281,473 1278,467 1274,464 1262,462 1241,462 1228,453 1231,435 1246,401 1248,391 1248,382 1233,366 1200,344 1161,329 1127,322 1091,302 1044,274 1029,257 1024,249 1023,246 1029,212 1037,166 1049,139 1052,136 1070,125 1110,94 1119,90 1130,87 1148,90 1152,90 1162,84 1193,61 1197,61 1208,67 1213,79 1228,85 1292,98 1321,104 1324,106 1338,116 1341,120 1347,133 1361,156 1368,173 1367,179 1372,178 1380,173 1399,165 1401,162 1402,156 1406,156 1409,156 1411,152 1412,148 1411,136 1440,117 1447,115 1452,114 1464,110 1465,101 1463,91 1470,83 1475,78 1489,78 1493,72 1502,79 1510,93 1513,97 1516,103 1523,100 1530,100 1546,100 1554,99 1563,101 1583,103 1586,105 1592,110 1595,111 1598,112 1616,114 1620,116 1645,129 1649,130 1686,134 1696,134 1702,130 1708,126 1706,114 1704,100 1696,88 1696,84 1708,72 1706,64 1698,62 1694,60 1682,58 1674,50 1674,44 1676,40 1684,38 1689,37 1696,36 1700,34 1712,32 1734,26 1748,24 1762,20 1792,4 1796,0 1804,0 1822,14 " class="polyStyle" id="320116" style="fill:#f6f67b"/>
<path d="" class="polyStyle" id="320302" style="fill:#d4ecb2"/>
<path d="" class="polyStyle" id="140311" style="fill:#ee8b94"/>
<path d="" class="polyStyle" id="610802" style="fill:#ee8b94"/>
<path d="" class="polyStyle" id="120116" style="fill:#f6f67b"/>
<path d="" class="polyStyle" id="130303" style="fill:#fbe6ef"/>
<path d="" class="polyStyle" id="140211" style="fill:#f6f67b"/>
<path d="" class="polyStyle" id="150207" style="fill:#fbe6ef"/>
<path d="" class="polyStyle" id="211403" style="fill:#f6f67b"/>
<path d="" class="polyStyle" id="150802" style="fill:#f8c67d"/>
<path d="" class="polyStyle" id="210112" style="fill:#ee8b94"/>
<path d="" class="polyStyle" id="230406" style="fill:#d4ecb2"/>
<path d="" class="polyStyle" id="110113" style="fill:#fbe6ef"/>
<path d="" class="polyStyle" id="341702" style="fill:#fbe6ef"/>
<path d="" class="polyStyle" id="420303" style="fill:#ee8b94"/>
<path d="" class="polyStyle" id="340702" style="fill:#d4ecb2"/>
<path d="" class="polyStyle" id="421002" style="fill:#f6f67b"/>
<path d="" class="polyStyle" id="420117" style="fill:#f6f67b"/>
<path d="" class="polyStyle" id="440904" style="fill:#f8c67d"/>
<path d="" class="polyStyle" id="460205" style="fill:#ee8b94"/>
<path d="" class="polyStyle" id="460202" style="fill:#f6f67b"/>
<path d="" class="polyStyle" id="460203" style="fill:#fbe6ef"/>
<path d="" class="polyStyle" id="420304" style="fill:#f6f67b"/>
<path d="" class="polyStyle" id="445302" style="fill:#ee8b94"/>
<path d="" class="polyStyle" id="410202" style="fill:#d4ecb2"/>
<path d="" class="polyStyle" id="440800" style="fill:#f6f67b"/>
<path d="" class="polyStyle" id="440900" style="fill:#ee8b94"/>
<path d="" class="polyStyle" id="340800" style="fill:#ee8b94"/>
<path d="" class="polyStyle" id="460200" style="fill:#f6f67b"/>
<path d="" class="polyStyle" id="460000" style="fill:#ee8b94"/>
<path d="" class="polyStyle" id="450500" style="fill:#ee8b94"/>
<path d="" class="polyStyle" id="450600" style="fill:#ee8b94"/>
<path d="" class="polyStyle" id="440400" style="fill:#f6f67b"/>
<path d="" class="polyStyle" id="441700" style="fill:#f6f67b"/>
<path d="" class="polyStyle" id="441500" style="fill:#f6f67b"/>
<path d="" class="polyStyle" id="350600" style="fill:#ee8b94"/>
<path d="" class="polyStyle" id="710000" style="fill:#f6f67b"/>
<path d="" class="polyStyle" id="510400" style="fill:#f6f67b"/>
<path d="" class="polyStyle" id="522600" style="fill:#fbe6ef"/>
<path d="" class="polyStyle" id="520500" style="fill:#ee8b94"/>
<path d="" class="polyStyle" id="431200" style="fill:#f6f67b"/>
<path d="" class="polyStyle" id="430600" style="fill:#f6f67b"/>
<path d="" class="polyStyle" id="511400" style="fill:#d4ecb2"/>
<path d="" class="polyStyle" id="421000" style="fill:#ee8b94"/>
<path d="" class="polyStyle" id="341700" style="fill:#f6f67b"/>
<path d="" class="polyStyle" id="420500" style="fill:#f6f67b"/>
<path d="" class="polyStyle" id="511300" style="fill:#f6f67b"/>
<path d="" class="polyStyle" id="420900" style="fill:#f6f67b"/>
<path d="" class="polyStyle" id="511700" style="fill:#ee8b94"/>
<path d="" class="polyStyle" id="420600" style="fill:#d4ecb2"/>
<path d="" class="polyStyle" id="411500" style="fill:#fbe6ef"/>
<path d="" class="polyStyle" id="510800" style="fill:#ee8b94"/>
<path d="" class="polyStyle" id="420300" style="fill:#fbe6ef"/>
<path d="" class="polyStyle" id="611000" style="fill:#ee8b94"/>
<path d="" class="polyStyle" id="620800" style="fill:#fbe6ef"/>
<path d="" class="polyStyle" id="370200" style="fill:#ee8b94"/>
<path d="" class="polyStyle" id="371000" style="fill:#f6f67b"/>
<path d="" class="polyStyle" id="370600" style="fill:#fbe6ef"/>
<path d="" class="polyStyle" id="120000" style="fill:#f6f67b"/>
<path d="" class="polyStyle" id="130200" style="fill:#ee8b94"/>
<path d="" class="polyStyle" id="130300" style="fill:#f6f67b"/>
<path d="" class="polyStyle" id="652900" style="fill:#fbe6ef"/>
<path d="" class="polyStyle" id="150500" style="fill:#d4ecb2"/>
<path d="" class="polyStyle" id="" style="fill:#d4ecb2"/>
<path d="" class="polyStyle" id="350500" style="fill:#fbe6ef"/>
<path d="" class="polyStyle" id="440400" style="fill:#f6f67b"/>
<path d="" class="polyStyle" id="421100" style="fill:#d4ecb2"/>
<path d="" class="polyStyle" id="420100" style="fill:#fbe6ef"/>
<path d="" class="polyStyle" id="532500" style="fill:#fbe6ef"/>
<path d="" class="polyStyle" id="654200" style="fill:#fbe6ef"/>
<path d="" class="polyStyle" id="210700" style="fill:#d4ecb2"/>
<path d="" class="polyStyle" id="522300" style="fill:#fbe6ef"/>
<path d="" class="polyStyle" id="" style="fill:#ee8b94"/>
<path d="" class="polyStyle" id="440400" style="fill:#f6f67b"/>
<path d="" class="polyStyle" id="620000" style="fill:#f6f67b"/>
<path d="" class="polyStyle" id="430000" style="fill:#fbe6ef"/>
<path d="" class="polyStyle" id="420000" style="fill:#ee8b94"/>
<path d="" class="polyStyle" id="410000" style="fill:#f6f67b"/>
<path d="" class="polyStyle" id="350000" style="fill:#fbe6ef"/>
<path d="" class="polyStyle" id="520000" style="fill:#f6f67b"/>
<path d="" class="polyStyle" id="" style="fill:#ee8b94"/>
</svg>
