<?xml version="1.0" encoding="UTF-8"?>
<!DOCTYPE svg PUBLIC "-//W3C//DTD SVG 1.1 Tiny//EN" "http://www.w3.org/Graphics/SVG/1.1/DTD/svg11-tiny.dtd">
<svg version="1.1" xmlns="http://www.w3.org/2000/svg" xmlns:xlink="http://www.w3.org/1999/xlink" width="100%" height="100%" viewBox="0,0,5310,4536">
<title>SVG</title>
<desc>Poligon Test</desc>
<style id="style_css_sheet" type="text/css">
.polyStyle{fill: #cccccc;stroke-width:0;fill-rule:evenodd;}
</style>
<circle cx="1746" cy="3155" r="200" stroke="black" stroke-width="1" fill="red" id="320481" name="溧阳市"/>
<circle cx="2175" cy="1581" r="200" stroke="black" stroke-width="1" fill="red" id="320413" name="金坛区"/>
<circle cx="4012" cy="1796" r="200" stroke="black" stroke-width="1" fill="red" id="320412" name="武进区"/>
<circle cx="4197" cy="1427" r="200" stroke="black" stroke-width="1" fill="red" id="320402" name="天宁区"/>
<circle cx="4162" cy="1146" r="200" stroke="black" stroke-width="1" fill="red" id="320411"position="4" name="新北区"/>
<circle cx="3825" cy="1286" r="200" stroke="black" stroke-width="1" fill="red" id="320404" position="4"name="钟楼区"/>
<path d="" class="polyStyle" id="" style="fill:#ee8b94"/>
<path d="" class="polyStyle" id="623022" style="fill:#fbe6ef"/>
<path d="" class="polyStyle" id="211421" style="fill:#f6f67b"/>
<path d="" class="polyStyle" id="532524" style="fill:#ee8b94"/>
<path d="" class="polyStyle" id="440825" style="fill:#f6f67b"/>
<path d="" class="polyStyle" id="441721" style="fill:#f6f67b"/>
<path d="" class="polyStyle" id="450521" style="fill:#f6f67b"/>
<path d="" class="polyStyle" id="450123" style="fill:#fbe6ef"/>
<path d="" class="polyStyle" id="350624" style="fill:#f6f67b"/>
<path d="" class="polyStyle" id="" style="fill:#fbe6ef"/>
<path d="" class="polyStyle" id="451224" style="fill:#fbe6ef"/>
<path d="" class="polyStyle" id="350627" style="fill:#f6f67b"/>
<path d="" class="polyStyle" id="" style="fill:#f6f67b"/>
<path d="" class="polyStyle" id="350525" style="fill:#f6f67b"/>
<path d="" class="polyStyle" id="530124" style="fill:#ee8b94"/>
<path d="" class="polyStyle" id="522627" style="fill:#ee8b94"/>
<path d="" class="polyStyle" id="510421" style="fill:#fbe6ef"/>
<path d="" class="polyStyle" id="522623" style="fill:#d4ecb2"/>
<path d="" class="polyStyle" id="430321" style="fill:#d4ecb2"/>
<path d="" class="polyStyle" id="511129" style="fill:#d4ecb2"/>
<path d="" class="polyStyle" id="511423" style="fill:#ee8b94"/>
<path d="" class="polyStyle" id="421023" style="fill:#f6f67b"/>
<path d="" class="polyStyle" id="511724" style="fill:#f6f67b"/>
<path d="" class="polyStyle" id="420526" style="fill:#fbe6ef"/>
<path d="" class="polyStyle" id="511923" style="fill:#fbe6ef"/>
<path d="" class="polyStyle" id="420325" style="fill:#fbe6ef"/>
<path d="" class="polyStyle" id="511921" style="fill:#f6f67b"/>
<path d="" class="polyStyle" id="542525" style="fill:#f6f67b"/>
<path d="" class="polyStyle" id="611026" style="fill:#ee8b94"/>
<path d="" class="polyStyle" id="411023" style="fill:#fbe6ef"/>
<path d="" class="polyStyle" id="632323" style="fill:#f6f67b"/>
<path d="" class="polyStyle" id="140525" style="fill:#d4ecb2"/>
<path d="" class="polyStyle" id="410922" style="fill:#ee8b94"/>
<path d="" class="polyStyle" id="621027" style="fill:#ee8b94"/>
<path d="" class="polyStyle" id="130427" style="fill:#f6f67b"/>
<path d="" class="polyStyle" id="130121" style="fill:#ee8b94"/>
<path d="" class="polyStyle" id="610823" style="fill:#fbe6ef"/>
<path d="" class="polyStyle" id="130225" style="fill:#fbe6ef"/>
<path d="" class="polyStyle" id="130322" style="fill:#d4ecb2"/>
<path d="" class="polyStyle" id="653130" style="fill:#f6f67b"/>
<path d="" class="polyStyle" id="130822" style="fill:#fbe6ef"/>
<path d="" class="polyStyle" id="211221" style="fill:#f6f67b"/>
<path d="" class="polyStyle" id="210921" style="fill:#f6f67b"/>
<path d="" class="polyStyle" id="150223" style="fill:#f8c67d"/>
<path d="" class="polyStyle" id="220422" style="fill:#d4ecb2"/>
<path d="" class="polyStyle" id="340721" style="fill:#f6f67b"/>
<path d="" class="polyStyle" id="510824" style="fill:#d4ecb2"/>
<path d="" class="polyStyle" id="610324" style="fill:#f6f67b"/>
<path d="" class="polyStyle" id="530722" style="fill:#ee8b94"/>
<path d="" class="polyStyle" id="340823" style="fill:#d4ecb2"/>
<path d="" class="polyStyle" id="620825" style="fill:#d4ecb2"/>
<path d="" class="polyStyle" id="421125" style="fill:#ee8b94"/>
<path d="" class="polyStyle" id="210281" style="fill:#ee8b94"/>
<path d="" class="polyStyle" id="440883" style="fill:#f6f67b"/>
<path d="" class="polyStyle" id="469006" style="fill:#d4ecb2"/>
<path d="" class="polyStyle" id="469002" style="fill:#ee8b94"/>
<path d="" class="polyStyle" id="469005" style="fill:#fbe6ef"/>
<path d="" class="polyStyle" id="440882" style="fill:#ee8b94"/>
<path d="" class="polyStyle" id="450681" style="fill:#ee8b94"/>
<path d="" class="polyStyle" id="441581" style="fill:#d4ecb2"/>
<path d="" class="polyStyle" id="421087" style="fill:#ee8b94"/>
<path d="" class="polyStyle" id="420984" style="fill:#fbe6ef"/>
<path d="" class="polyStyle" id="420582" style="fill:#ee8b94"/>
<polygon points="919,1883 932,1887 937,1890 938,1897 943,1903 951,1905 970,1909 991,1914 1005,1921 1021,1922 1062,1910 1069,1916 1066,1932 1063,1964 1070,1987 1062,1991 1043,1984 1004,1957 985,1948 964,1951 951,1962 952,1967 953,1970 955,1974 958,1978 960,1981 962,1985 966,1989 969,1994 971,1996 973,1999 975,2000 977,2003 979,2005 982,2008 985,2010 988,2013 990,2014 993,2017 995,2019 997,2021 1000,2023 1002,2024 1004,2027 1007,2029 1010,2032 1012,2036 1013,2038 1014,2042 1017,2045 1018,2048 1019,2052 1020,2056 1021,2059 1021,2063 1021,2066 1022,2068 1022,2071 1023,2075 1025,2079 1026,2081 1029,2083 1032,2085 1035,2087 1038,2089 1040,2090 1043,2092 1047,2095 1052,2098 1055,2101 1056,2104 1059,2108 1061,2111 1065,2113 1069,2117 1073,2120 1075,2122 1078,2124 1081,2127 1084,2129 1087,2132 1089,2134 1092,2137 1094,2138 1097,2141 1098,2143 1103,2145 1107,2146 1110,2147 1113,2148 1116,2149 1120,2150 1124,2152 1128,2153 1130,2154 1134,2155 1139,2157 1142,2159 1147,2160 1151,2162 1153,2163 1156,2165 1159,2166 1164,2164 1168,2163 1171,2162 1175,2161 1179,2160 1182,2159 1185,2158 1188,2157 1192,2154 1194,2152 1194,2148 1196,2145 1197,2142 1198,2138 1199,2134 1200,2130 1203,2127 1205,2124 1208,2124 1213,2125 1217,2126 1221,2126 1224,2128 1228,2129 1229,2131 1232,2133 1234,2135 1237,2138 1239,2142 1242,2145 1243,2148 1245,2151 1246,2153 1248,2156 1249,2159 1252,2161 1255,2162 1258,2163 1261,2163 1265,2165 1268,2165 1272,2166 1276,2166 1279,2167 1283,2167 1288,2168 1293,2168 1297,2169 1301,2170 1304,2173 1306,2174 1309,2176 1313,2180 1315,2183 1318,2186 1321,2189 1324,2193 1328,2197 1331,2200 1335,2204 1339,2206 1342,2208 1344,2212 1347,2216 1348,2220 1349,2223 1349,2225 1350,2228 1351,2231 1351,2234 1353,2237 1354,2240 1356,2244 1357,2247 1359,2250 1360,2252 1361,2255 1363,2258 1366,2260 1369,2262 1372,2266 1375,2269 1379,2272 1384,2274 1388,2276 1391,2279 1394,2280 1395,2282 1398,2286 1400,2290 1400,2293 1400,2297 1401,2300 1402,2303 1403,2305 1404,2309 1405,2313 1407,2317 1409,2320 1412,2323 1416,2326 1418,2328 1421,2331 1423,2334 1425,2336 1428,2339 1430,2341 1433,2344 1435,2347 1438,2350 1442,2352 1445,2353 1448,2354 1450,2354 1455,2354 1459,2354 1463,2354 1468,2354 1472,2354 1475,2354 1480,2354 1484,2354 1488,2354 1493,2354 1496,2354 1498,2354 1501,2355 1505,2356 1509,2358 1512,2359 1515,2361 1518,2364 1521,2368 1524,2370 1525,2372 1525,2375 1526,2378 1526,2380 1527,2383 1527,2387 1526,2390 1526,2393 1526,2398 1527,2401 1530,2403 1533,2406 1535,2408 1539,2410 1542,2412 1545,2413 1548,2414 1552,2414 1556,2414 1559,2414 1562,2414 1565,2413 1569,2412 1574,2411 1579,2410 1584,2408 1589,2407 1592,2406 1597,2405 1600,2404 1603,2404 1606,2403 1608,2402 1613,2401 1617,2400 1621,2400 1625,2400 1628,2400 1630,2400 1634,2400 1638,2400 1642,2400 1646,2400 1649,2400 1651,2399 1655,2399 1659,2399 1663,2399 1666,2399 1668,2399 1672,2399 1676,2399 1678,2400 1681,2404 1683,2408 1686,2411 1687,2414 1690,2418 1694,2420 1697,2423 1701,2425 1704,2426 1707,2428 1711,2429 1713,2429 1717,2430 1721,2431 1725,2431 1729,2431 1732,2432 1735,2432 1738,2432 1742,2433 1745,2433 1748,2434 1752,2434 1756,2434 1760,2434 1765,2435 1769,2435 1773,2435 1777,2435 1781,2435 1786,2433 1790,2431 1793,2430 1796,2429 1799,2428 1804,2428 1808,2427 1811,2426 1815,2424 1820,2422 1824,2421 1828,2423 1832,2423 1835,2424 1838,2424 1840,2425 1843,2425 1846,2426 1849,2427 1851,2427 1855,2428 1859,2428 1863,2429 1866,2430 1869,2430 1873,2431 1877,2432 1880,2432 1883,2433 1887,2434 1891,2435 1894,2435 1896,2435 1900,2436 1904,2437 1908,2438 1911,2438 1914,2439 1918,2439 1922,2440 1925,2441 1927,2441 1931,2442 1936,2443 1941,2444 1945,2445 1949,2445 1953,2446 1956,2447 1961,2447 1964,2447 1967,2448 1970,2448 1973,2448 1977,2448 1982,2449 1986,2449 1990,2450 1994,2450 1999,2451 2003,2451 2006,2452 2011,2452 2015,2452 2019,2452 2024,2452 2027,2452 2030,2452 2033,2453 2036,2453 2039,2454 2042,2454 2044,2455 2049,2455 2053,2456 2058,2457 2062,2459 2065,2460 2069,2462 2072,2464 2076,2466 2081,2468 2084,2471 2087,2472 2090,2473 2094,2475 2098,2478 2101,2479 2104,2480 2108,2482 2111,2482 2114,2483 2118,2484 2122,2484 2125,2484 2128,2485 2131,2485 2134,2485 2137,2486 2142,2485 2146,2484 2150,2483 2155,2482 2159,2481 2162,2481 2165,2480 2169,2479 2173,2479 2177,2478 2181,2477 2184,2476 2187,2476 2191,2475 2196,2474 2199,2473 2203,2474 2206,2474 2209,2475 2212,2475 2215,2476 2218,2476 2221,2476 2224,2477 2227,2479 2230,2480 2234,2483 2239,2485 2242,2488 2245,2489 2249,2488 2252,2487 2256,2486 2259,2484 2261,2483 2263,2481 2267,2479 2270,2476 2274,2475 2276,2473 2277,2470 2279,2465 2280,2461 2282,2457 2284,2453 2286,2449 2290,2447 2294,2447 2298,2448 2303,2448 2306,2448 2311,2448 2315,2449 2319,2449 2322,2448 2325,2448 2329,2448 2334,2447 2338,2447 2342,2448 2345,2449 2348,2450 2351,2451 2354,2452 2356,2454 2359,2457 2361,2459 2364,2462 2368,2466 2371,2470 2373,2474 2376,2477 2378,2480 2378,2483 2379,2486 2379,2488 2379,2492 2380,2496 2380,2499 2379,2502 2377,2504 2373,2505 2370,2506 2365,2507 2362,2510 2361,2513 2359,2514 2357,2517 2353,2520 2350,2523 2346,2527 2342,2530 2339,2534 2335,2537 2331,2540 2329,2543 2328,2546 2327,2549 2326,2552 2325,2555 2324,2558 2323,2561 2322,2563 2321,2566 2320,2570 2319,2573 2318,2577 2317,2579 2316,2582 2314,2585 2313,2590 2311,2593 2310,2596 2307,2599 2306,2602 2303,2604 2300,2607 2298,2610 2295,2612 2293,2614 2290,2617 2287,2620 2284,2621 2281,2624 2278,2627 2275,2631 2273,2635 2272,2637 2270,2640 2268,2645 2267,2648 2266,2651 2264,2654 2262,2657 2261,2661 2258,2666 2257,2670 2255,2673 2254,2676 2252,2679 2251,2683 2250,2685 2248,2689 2246,2692 2245,2696 2243,2699 2242,2703 2241,2705 2240,2708 2239,2710 2238,2713 2236,2716 2235,2720 2233,2724 2231,2729 2230,2733 2228,2738 2228,2741 2226,2744 2225,2748 2224,2752 2223,2754 2222,2758 2221,2760 2220,2763 2220,2766 2218,2768 2217,2772 2216,2775 2213,2777 2211,2779 2208,2779 2205,2781 2201,2782 2198,2782 2195,2781 2193,2780 2189,2778 2186,2777 2182,2776 2180,2775 2176,2773 2172,2771 2169,2770 2166,2769 2163,2768 2161,2767 2158,2766 2155,2766 2151,2765 2148,2764 2145,2764 2141,2766 2137,2769 2135,2772 2135,2775 2135,2779 2135,2782 2135,2785 2135,2790 2135,2794 2135,2798 2135,2802 2135,2807 2135,2810 2135,2814 2135,2817 2135,2820 2135,2824 2134,2827 2132,2830 2132,2835 2135,2839 2137,2841 2138,2844 2140,2845 2144,2847 2148,2849 2151,2851 2154,2852 2157,2854 2161,2863 2162,2872 2165,2882 2166,2885 2173,2889 2175,2892 2165,2938 2162,2940 2159,2941 2156,2942 2153,2941 2149,2941 2145,2941 2142,2941 2139,2941 2136,2941 2132,2941 2128,2941 2125,2941 2122,2944 2120,2947 2119,2951 2118,2954 2119,2959 2120,2961 2121,2965 2122,2969 2124,2973 2125,2975 2128,2976 2132,2975 2136,2975 2141,2974 2146,2974 2150,2974 2154,2973 2159,2973 2163,2973 2167,2973 2172,2972 2176,2972 2180,2972 2184,2971 2187,2971 2190,2971 2193,2971 2197,2970 2201,2970 2205,2969 2210,2969 2214,2969 2217,2969 2221,2968 2225,2967 2228,2967 2230,2966 2234,2966 2238,2965 2242,2964 2242,2966 2242,2970 2242,2974 2244,2975 2249,2976 2254,2978 2257,2981 2259,2983 2258,2986 2258,2990 2256,2994 2254,2997 2253,2999 2251,3000 2248,3005 2246,3008 2246,3011 2245,3014 2244,3017 2243,3020 2242,3023 2242,3025 2246,3029 2248,3033 2249,3035 2250,3038 2250,3041 2250,3044 2249,3049 2249,3053 2249,3056 2247,3060 2244,3063 2241,3066 2238,3069 2234,3067 2229,3066 2227,3066 2224,3066 2221,3067 2217,3067 2215,3069 2213,3072 2213,3077 2213,3081 2213,3086 2212,3090 2212,3093 2212,3096 2212,3100 2212,3103 2213,3107 2213,3109 2211,3112 2210,3115 2207,3117 2203,3117 2201,3117 2198,3118 2195,3119 2194,3122 2192,3123 2191,3127 2191,3131 2191,3134 2190,3138 2187,3142 2182,3143 2177,3142 2173,3142 2170,3141 2167,3141 2163,3140 2159,3140 2156,3139 2152,3138 2147,3138 2145,3137 2142,3136 2138,3136 2135,3135 2132,3135 2129,3135 2126,3134 2122,3133 2118,3133 2114,3132 2110,3132 2106,3131 2101,3130 2097,3130 2093,3129 2091,3129 2087,3128 2083,3128 2080,3128 2076,3128 2072,3128 2068,3130 2064,3133 2062,3135 2062,3138 2062,3140 2062,3144 2062,3148 2062,3151 2062,3155 2062,3157 2062,3160 2062,3163 2062,3166 2062,3169 2061,3172 2061,3176 2061,3179 2060,3181 2060,3185 2059,3190 2059,3193 2059,3196 2059,3200 2059,3203 2059,3207 2059,3210 2059,3215 2059,3219 2056,3221 2053,3222 2048,3224 2044,3226 2040,3228 2038,3229 2034,3231 2031,3232 2028,3233 2024,3235 2020,3237 2015,3238 2012,3240 2008,3242 2005,3244 2003,3245 1999,3246 1996,3248 1994,3250 1990,3251 1988,3253 1986,3254 1982,3256 1980,3260 1980,3264 1979,3268 1980,3271 1981,3275 1983,3280 1984,3283 1984,3285 1986,3290 1990,3292 1993,3293 1995,3293 1998,3295 2000,3298 2002,3301 2004,3304 2005,3306 2006,3311 2007,3313 2007,3316 2008,3322 2008,3326 2007,3329 2007,3332 2006,3335 2005,3338 2004,3341 2004,3344 2002,3348 2000,3351 1998,3354 1996,3357 1994,3361 1992,3365 1989,3369 1987,3372 1985,3376 1983,3379 1981,3383 1979,3386 1977,3390 1976,3393 1976,3397 1975,3400 1974,3403 1973,3408 1969,3411 1967,3414 1966,3417 1963,3420 1961,3423 1959,3428 1958,3431 1956,3434 1955,3436 1954,3439 1952,3441 1952,3444 1950,3447 1948,3451 1946,3455 1945,3459 1944,3461 1943,3464 1942,3467 1941,3470 1940,3472 1939,3475 1939,3478 1939,3481 1938,3484 1938,3487 1938,3490 1937,3493 1937,3497 1937,3500 1938,3504 1938,3507 1938,3509 1938,3513 1938,3518 1938,3522 1939,3525 1939,3528 1939,3531 1939,3533 1939,3536 1940,3540 1940,3544 1940,3547 1940,3552 1941,3555 1941,3559 1941,3563 1942,3566 1942,3569 1942,3573 1950,3593 1953,3601 1952,3620 1952,3643 1948,3650 1933,3662 1917,3684 1901,3703 1899,3707 1898,3728 1897,3731 1900,3734 1902,3737 1904,3738 1907,3740 1910,3741 1914,3744 1914,3748 1914,3752 1914,3755 1914,3758 1914,3762 1914,3766 1914,3769 1915,3771 1915,3775 1916,3779 1916,3782 1917,3785 1917,3789 1918,3792 1921,3795 1923,3797 1927,3801 1930,3804 1934,3807 1937,3809 1941,3811 1945,3814 1948,3815 1952,3817 1956,3819 1959,3821 1962,3823 1967,3825 1969,3828 1970,3831 1973,3836 1974,3839 1974,3843 1972,3845 1969,3847 1966,3850 1963,3852 1960,3855 1956,3858 1958,3861 1961,3864 1963,3868 1964,3871 1963,3874 1962,3876 1962,3879 1961,3883 1960,3885 1958,3889 1957,3892 1955,3895 1954,3898 1953,3901 1953,3905 1953,3908 1957,3910 1960,3911 1964,3913 1966,3914 1970,3915 1972,3916 1976,3917 1977,3918 1978,3921 1978,3924 1978,3927 1978,3931 1978,3934 1977,3937 1975,3938 1973,3939 1970,3941 1967,3944 1964,3947 1962,3948 1958,3950 1956,3952 1952,3952 1952,3955 1952,3958 1953,3962 1953,3965 1954,3969 1954,3971 1955,3974 1955,3977 1956,3980 1956,3983 1957,3986 1958,3989 1959,3993 1959,3995 1960,3999 1960,4004 1959,4007 1959,4010 1958,4014 1956,4016 1954,4018 1952,4020 1950,4022 1947,4024 1945,4026 1943,4028 1941,4031 1938,4032 1935,4035 1935,4038 1935,4041 1935,4044 1937,4046 1940,4050 1942,4053 1943,4057 1941,4060 1938,4063 1935,4066 1931,4070 1927,4073 1924,4076 1920,4079 1917,4082 1913,4086 1915,4088 1918,4090 1920,4091 1924,4092 1927,4093 1931,4095 1934,4096 1938,4098 1941,4099 1945,4102 1948,4105 1950,4107 1952,4110 1956,4111 1961,4112 1965,4113 1969,4113 1972,4115 1974,4118 1975,4121 1976,4124 1978,4127 1980,4130 1983,4132 1986,4135 1990,4138 1995,4142 1998,4145 2001,4147 2004,4149 2008,4153 2012,4156 2015,4159 2019,4162 2024,4164 2028,4164 2032,4165 2036,4166 2039,4167 2042,4168 2045,4169 2048,4170 2051,4171 2054,4172 2056,4173 2060,4176 2062,4181 2064,4184 2066,4187 2068,4190 2069,4192 2068,4195 2066,4198 2064,4201 2062,4204 2060,4207 2058,4210 2055,4213 2053,4217 2055,4219 2057,4223 2059,4226 2060,4230 2062,4234 2063,4238 2063,4240 2063,4244 2064,4248 2064,4251 2065,4255 2064,4260 2064,4264 2064,4268 2064,4271 2064,4275 2064,4279 2064,4283 2064,4286 2064,4290 2063,4292 2065,4296 2066,4299 2066,4303 2067,4306 2067,4309 2068,4313 2068,4316 2069,4319 2069,4322 2069,4326 2070,4330 2070,4334 2071,4337 2071,4339 2071,4342 2070,4345 2070,4348 2069,4350 2069,4354 2069,4358 2068,4361 2068,4365 2067,4367 2067,4370 2066,4373 2066,4376 2066,4380 2066,4383 2066,4387 2066,4391 2067,4394 2067,4397 2067,4400 2065,4403 2062,4406 2060,4407 2056,4407 2052,4407 2047,4407 2045,4407 2043,4408 2041,4409 2038,4411 2035,4414 2034,4416 2031,4416 2028,4418 2025,4418 2021,4419 2017,4419 2013,4421 2010,4425 2008,4428 2006,4430 2004,4433 2001,4435 1999,4438 1997,4440 1995,4443 1993,4445 1990,4447 1988,4450 1987,4453 1984,4455 1982,4458 1981,4461 1979,4464 1977,4468 1975,4473 1974,4476 1972,4480 1970,4484 1969,4487 1967,4491 1965,4496 1964,4498 1963,4500 1929,4492 1899,4500 1885,4520 1867,4520 1827,4514 1819,4500 1795,4482 1779,4472 1751,4472 1739,4486 1735,4516 1723,4536 1707,4536 1701,4520 1687,4506 1667,4506 1651,4510 1613,4514 1599,4516 1591,4502 1575,4466 1557,4436 1539,4422 1457,4420 1451,4412 1453,4406 1467,4376 1437,4372 1417,4406 1399,4426 1387,4432 1371,4430 1363,4416 1347,4386 1339,4386 1307,4392 1301,4396 1297,4420 1265,4446 1241,4456 1229,4450 1231,4440 1237,4430 1265,4386 1255,4370 1259,4362 1263,4356 1271,4350 1283,4342 1293,4340 1301,4340 1329,4340 1333,4332 1321,4320 1303,4310 1269,4302 1259,4306 1251,4316 1249,4320 1239,4330 1227,4340 1209,4346 1191,4350 1181,4346 1175,4346 1163,4346 1135,4330 1125,4320 1107,4302 1101,4282 1099,4266 1105,4226 1123,4216 1137,4182 1127,4176 1111,4166 1105,4116 1107,4110 1121,4100 1133,4090 1159,4060 1172,4041 1191,4002 1197,3976 1199,3952 1198,3948 1150,3951 1140,3943 1142,3923 1146,3903 1144,3895 1128,3859 1116,3829 1110,3815 1108,3795 1082,3787 1060,3785 1044,3791 1046,3805 1050,3829 1026,3829 1032,3849 1044,3853 1054,3879 1046,3891 1034,3909 1002,3915 994,3921 998,3929 1006,3947 1018,3967 1046,3985 1054,3993 1054,4001 1044,4009 1032,4009 1012,4005 996,3999 990,3995 972,3989 956,3981 926,3977 864,3963 856,3963 850,3961 834,3959 828,3959 796,3961 780,3967 776,3971 766,3983 764,3997 736,4005 728,4001 718,3995 708,3995 668,4025 650,4029 638,4029 626,4025 618,4007 618,3997 616,3987 594,3979 584,3977 574,3975 565,3980 519,4022 511,4026 505,4030 499,4026 493,4020 489,4016 448,3999 416,3983 418,3975 428,3957 380,3935 372,3928 355,3937 339,3945 326,3957 311,3982 289,3972 281,3952 279,3936 279,3910 279,3900 281,3896 313,3890 303,3836 301,3826 297,3826 281,3822 265,3820 257,3822 245,3820 237,3820 229,3800 223,3795 235,3793 242,3789 241,3770 245,3758 252,3754 271,3752 277,3747 279,3734 266,3715 266,3709 268,3703 281,3685 291,3666 294,3645 298,3639 325,3606 344,3587 362,3573 394,3555 393,3547 384,3534 372,3521 354,3514 335,3514 321,3509 312,3476 300,3455 249,3403 234,3394 221,3391 209,3390 170,3395 166,3389 156,3369 150,3341 144,3328 145,3224 144,3193 140,3159 130,3126 117,3093 96,3096 78,3105 71,3104 65,3102 44,3086 30,3080 1,3075 1,3069 0,3056 3,3043 40,3012 45,3006 61,2974 75,2930 78,2910 77,2897 42,2877 41,2864 47,2852 62,2833 133,2831 147,2827 154,2814 159,2808 185,2798 217,2797 229,2778 233,2752 259,2730 266,2718 268,2711 274,2704 280,2700 285,2693 282,2686 275,2683 255,2677 234,2675 205,2666 199,2661 203,2609 218,2591 230,2580 236,2568 233,2555 235,2547 241,2542 247,2540 288,2539 321,2516 328,2510 332,2504 331,2483 376,2447 380,2441 388,2421 387,2415 379,2397 380,2372 397,2341 406,2328 425,2279 442,2241 446,2227 449,2201 469,2164 484,2172 540,2149 600,2134 613,2128 626,2119 646,2114 678,2094 712,2084 724,2076 740,2057 746,2052 799,2024 832,1996 867,1959 882,1941 890,1915 907,1878 911,1880 " class="polyStyle" id="320481" style="fill:#fbe6ef"/>
<polygon points="1572,874 1575,876 1579,877 1583,879 1588,880 1591,882 1596,884 1600,886 1604,887 1608,889 1611,890 1615,891 1618,894 1620,897 1622,900 1623,904 1625,907 1626,910 1627,913 1627,918 1626,922 1626,925 1626,928 1628,931 1630,933 1633,936 1636,939 1638,940 1642,941 1644,940 1648,940 1652,939 1656,939 1660,938 1663,938 1666,938 1668,938 1671,938 1676,938 1680,938 1683,941 1686,945 1690,949 1693,952 1697,956 1700,959 1701,960 1705,963 1708,966 1711,968 1714,969 1719,970 1724,972 1729,973 1732,975 1735,977 1738,979 1741,981 1744,983 1747,985 1749,986 1752,988 1755,992 1757,995 1758,996 1761,999 1764,1003 1766,1006 1769,1008 1772,1009 1776,1011 1779,1012 1783,1014 1786,1015 1790,1016 1793,1016 1796,1016 1801,1017 1806,1018 1810,1019 1814,1021 1817,1022 1820,1023 1823,1025 1826,1027 1829,1030 1832,1033 1834,1036 1837,1039 1840,1039 1845,1039 1848,1039 1853,1038 1856,1038 1859,1038 1862,1038 1866,1038 1870,1037 1875,1037 1878,1037 1883,1036 1887,1036 1891,1035 1894,1035 1897,1035 1901,1034 1904,1033 1908,1033 1911,1032 1914,1031 1918,1031 1922,1030 1925,1030 1928,1029 1932,1029 1936,1029 1941,1030 1945,1030 1949,1030 1953,1030 1956,1030 1959,1030 1961,1030 1965,1030 1969,1030 1973,1030 1977,1030 1982,1030 1985,1028 1985,1024 1986,1021 1989,1021 1993,1020 1997,1020 1999,1019 2003,1018 2006,1018 2010,1018 2014,1017 2018,1017 2021,1017 2026,1017 2031,1017 2035,1016 2039,1016 2043,1016 2048,1015 2051,1014 2054,1012 2056,1009 2059,1006 2062,1003 2065,1000 2067,997 2070,995 2073,992 2075,989 2078,987 2080,985 2084,984 2087,984 2090,986 2092,988 2092,990 2092,993 2092,997 2091,1000 2091,1003 2091,1008 2094,1011 2096,1014 2099,1017 2103,1017 2106,1018 2110,1018 2115,1018 2119,1018 2123,1019 2127,1019 2132,1020 2137,1021 2141,1023 2144,1023 2146,1024 2150,1025 2154,1028 2156,1031 2158,1031 2161,1034 2164,1037 2165,1038 2168,1041 2172,1045 2176,1048 2179,1051 2182,1054 2185,1055 2188,1056 2191,1056 2194,1056 2198,1057 2203,1057 2207,1058 2211,1058 2215,1058 2219,1059 2223,1059 2227,1059 2230,1060 2233,1060 2235,1060 2238,1063 2241,1066 2244,1069 2245,1073 2246,1076 2247,1079 2248,1083 2249,1087 2249,1090 2250,1093 2250,1097 2251,1099 2251,1103 2252,1106 2252,1109 2253,1112 2255,1114 2259,1118 2260,1121 2259,1124 2258,1128 2257,1131 2256,1135 2256,1138 2255,1140 2254,1143 2252,1145 2252,1148 2251,1151 2250,1154 2249,1156 2248,1159 2247,1162 2249,1163 2253,1162 2257,1162 2262,1161 2266,1161 2270,1160 2275,1159 2279,1159 2283,1159 2287,1158 2288,1162 2289,1164 2290,1168 2291,1171 2292,1173 2292,1176 2293,1179 2297,1180 2300,1180 2304,1181 2306,1181 2310,1181 2313,1182 2318,1182 2321,1184 2324,1186 2326,1188 2325,1193 2325,1197 2325,1200 2325,1203 2325,1207 2325,1210 2325,1213 2326,1216 2326,1221 2327,1224 2327,1228 2328,1231 2328,1234 2329,1239 2329,1242 2330,1245 2330,1248 2331,1251 2331,1253 2331,1256 2330,1259 2329,1262 2329,1266 2333,1269 2337,1271 2341,1273 2345,1275 2349,1278 2352,1280 2353,1283 2355,1285 2357,1289 2358,1294 2359,1297 2360,1300 2360,1303 2361,1305 2362,1309 2365,1312 2368,1314 2372,1315 2375,1317 2380,1316 2384,1316 2388,1316 2392,1316 2396,1315 2400,1315 2404,1315 2408,1315 2412,1314 2417,1314 2421,1314 2425,1314 2429,1313 2432,1309 2436,1305 2439,1301 2441,1298 2445,1294 2448,1292 2452,1292 2455,1292 2459,1293 2462,1293 2465,1293 2467,1295 2469,1297 2472,1300 2475,1303 2477,1306 2481,1308 2485,1310 2490,1311 2494,1313 2496,1314 2500,1314 2503,1315 2506,1316 2510,1317 2514,1317 2518,1319 2521,1319 2523,1320 2524,1324 2525,1327 2525,1331 2525,1335 2525,1339 2524,1342 2524,1345 2524,1348 2523,1351 2524,1354 2527,1357 2530,1360 2531,1362 2534,1365 2537,1368 2540,1371 2543,1375 2545,1379 2546,1382 2546,1384 2548,1387 2548,1391 2549,1394 2550,1397 2551,1400 2552,1403 2553,1406 2554,1409 2557,1412 2560,1414 2563,1417 2565,1418 2568,1421 2571,1424 2573,1425 2576,1427 2579,1428 2584,1430 2589,1430 2593,1431 2597,1431 2601,1432 2606,1433 2610,1434 2615,1434 2620,1435 2624,1435 2627,1436 2630,1436 2633,1437 2636,1437 2639,1438 2642,1438 2644,1438 2648,1439 2651,1439 2653,1440 2658,1441 2662,1441 2666,1442 2670,1442 2674,1443 2677,1443 2680,1444 2683,1444 2687,1444 2690,1444 2693,1445 2697,1445 2700,1445 2704,1445 2708,1445 2711,1446 2714,1447 2716,1447 2721,1448 2725,1448 2728,1449 2731,1449 2734,1450 2739,1451 2743,1453 2747,1457 2748,1458 2751,1461 2755,1466 2758,1469 2759,1472 2761,1475 2761,1478 2762,1480 2762,1483 2763,1486 2764,1491 2765,1494 2766,1497 2767,1500 2767,1504 2769,1508 2770,1511 2771,1514 2772,1518 2774,1521 2777,1524 2780,1527 2782,1528 2786,1531 2790,1533 2793,1535 2796,1538 2800,1541 2803,1542 2805,1544 2808,1545 2811,1546 2813,1548 2817,1549 2821,1552 2824,1553 2826,1556 2829,1559 2831,1560 2833,1563 2833,1566 2833,1569 2834,1573 2834,1576 2834,1578 2834,1582 2835,1585 2835,1589 2835,1592 2835,1595 2836,1598 2838,1601 2838,1604 2841,1608 2845,1609 2849,1609 2853,1610 2857,1610 2862,1610 2866,1610 2870,1611 2874,1611 2879,1612 2884,1613 2887,1615 2890,1617 2893,1619 2896,1620 2900,1623 2903,1626 2907,1628 2910,1629 2915,1631 2918,1633 2921,1634 2924,1635 2928,1635 2932,1636 2935,1636 2937,1637 2941,1637 2945,1638 2949,1638 2952,1638 2956,1638 2958,1639 2962,1639 2965,1639 2970,1640 2974,1640 2978,1641 2981,1641 2986,1641 2990,1642 2993,1642 2998,1641 2999,1643 3001,1642 3004,1643 3007,1644 3011,1645 3014,1646 3017,1648 3020,1651 3022,1652 3025,1654 3027,1657 3028,1659 3031,1661 3033,1664 3035,1666 3038,1668 3041,1669 3044,1670 3046,1671 3050,1672 3053,1673 3056,1675 3061,1678 3065,1682 3067,1684 3066,1688 3064,1692 3062,1696 3061,1700 3059,1704 3058,1707 3056,1710 3055,1713 3052,1717 3050,1720 3049,1723 3048,1726 3046,1728 3045,1730 3044,1733 3042,1735 3040,1738 3039,1741 3037,1743 3037,1746 3038,1749 3038,1753 3039,1756 3039,1758 3040,1762 3039,1765 3037,1768 3035,1771 3034,1775 3031,1779 3028,1783 3026,1786 3022,1789 3018,1792 3015,1796 3011,1798 3009,1801 3006,1803 3003,1806 2999,1809 2997,1811 2995,1813 2991,1816 2987,1819 2983,1818 2980,1817 2977,1817 2973,1816 2970,1815 2967,1815 2963,1815 2959,1816 2955,1816 2951,1816 2946,1817 2942,1817 2939,1817 2936,1814 2932,1814 2929,1811 2925,1809 2922,1807 2917,1805 2914,1804 2910,1803 2906,1802 2904,1801 2900,1800 2897,1798 2893,1797 2889,1796 2886,1795 2882,1793 2880,1793 2876,1792 2872,1791 2869,1790 2866,1790 2862,1789 2858,1788 2856,1788 2853,1787 2849,1786 2845,1786 2842,1785 2838,1784 2834,1783 2830,1783 2826,1783 2823,1783 2820,1783 2817,1783 2814,1783 2809,1783 2806,1783 2804,1787 2800,1791 2797,1794 2796,1798 2795,1802 2795,1804 2794,1807 2794,1811 2793,1814 2792,1817 2789,1819 2785,1822 2782,1825 2779,1828 2776,1830 2773,1833 2769,1836 2766,1839 2764,1841 2763,1844 2761,1847 2762,1850 2764,1852 2766,1854 2769,1857 2772,1860 2775,1862 2776,1864 2779,1867 2782,1870 2785,1873 2788,1876 2791,1878 2794,1882 2794,1884 2792,1887 2791,1890 2791,1892 2790,1895 2789,1897 2787,1900 2786,1905 2784,1909 2783,1913 2783,1916 2783,1919 2784,1922 2785,1925 2787,1929 2789,1933 2791,1937 2794,1941 2796,1944 2797,1947 2799,1951 2801,1956 2803,1959 2806,1961 2811,1964 2813,1966 2816,1967 2820,1970 2825,1975 2827,1979 2826,1983 2825,1985 2822,1989 2819,1993 2816,1995 2813,1998 2810,2000 2808,2002 2806,2004 2803,2007 2800,2010 2798,2013 2798,2016 2798,2018 2797,2021 2793,2022 2788,2022 2785,2023 2782,2023 2778,2024 2776,2025 2773,2026 2768,2028 2763,2029 2758,2031 2755,2032 2754,2035 2752,2037 2750,2041 2748,2045 2747,2048 2745,2052 2745,2055 2746,2058 2747,2062 2747,2065 2748,2068 2749,2072 2749,2075 2750,2080 2751,2083 2751,2086 2751,2088 2751,2092 2752,2096 2752,2100 2752,2104 2752,2106 2752,2110 2752,2114 2752,2118 2752,2121 2752,2123 2752,2127 2752,2130 2750,2133 2749,2137 2747,2140 2743,2144 2739,2146 2736,2148 2732,2150 2729,2151 2724,2153 2719,2155 2716,2156 2712,2158 2708,2159 2705,2160 2703,2162 2700,2163 2697,2165 2692,2168 2689,2172 2685,2175 2682,2178 2680,2181 2676,2184 2673,2189 2671,2194 2669,2198 2667,2202 2665,2206 2664,2211 2664,2214 2663,2217 2662,2221 2662,2224 2661,2228 2660,2231 2659,2234 2660,2239 2661,2242 2662,2245 2663,2248 2664,2250 2662,2251 2658,2249 2653,2248 2649,2248 2646,2248 2643,2247 2639,2245 2634,2245 2631,2245 2627,2245 2622,2245 2618,2246 2614,2246 2610,2246 2606,2247 2603,2248 2599,2248 2595,2249 2592,2250 2590,2251 2587,2252 2585,2253 2582,2255 2578,2258 2575,2260 2573,2261 2570,2262 2566,2264 2563,2266 2560,2267 2555,2269 2551,2271 2548,2272 2545,2273 2541,2273 2537,2273 2533,2273 2530,2273 2527,2273 2524,2273 2521,2274 2519,2276 2516,2277 2514,2280 2512,2282 2509,2285 2507,2286 2504,2289 2501,2291 2500,2294 2497,2297 2498,2300 2500,2304 2501,2306 2503,2310 2505,2314 2506,2318 2506,2321 2506,2324 2506,2329 2506,2332 2504,2335 2504,2338 2501,2340 2500,2344 2502,2345 2506,2348 2509,2351 2512,2354 2513,2359 2513,2361 2513,2364 2513,2366 2513,2369 2513,2373 2513,2375 2513,2378 2513,2383 2514,2386 2517,2390 2520,2391 2523,2393 2526,2397 2528,2401 2531,2405 2533,2408 2532,2411 2531,2414 2530,2417 2529,2420 2527,2422 2526,2425 2525,2428 2523,2430 2522,2433 2520,2435 2517,2438 2515,2439 2514,2441 2512,2443 2508,2447 2503,2451 2500,2453 2497,2454 2493,2455 2491,2456 2488,2456 2485,2458 2482,2460 2479,2462 2475,2465 2471,2467 2469,2469 2466,2471 2462,2473 2457,2476 2453,2479 2450,2483 2449,2486 2446,2489 2443,2493 2441,2495 2439,2498 2436,2500 2432,2500 2427,2500 2424,2500 2419,2500 2415,2500 2411,2500 2409,2500 2406,2500 2403,2501 2400,2501 2396,2502 2391,2503 2387,2503 2383,2504 2377,2504 2379,2502 2380,2499 2380,2496 2379,2492 2379,2488 2379,2486 2378,2483 2378,2480 2376,2477 2373,2474 2371,2470 2368,2466 2364,2462 2361,2459 2359,2457 2356,2454 2354,2452 2351,2451 2348,2450 2345,2449 2342,2448 2338,2447 2334,2447 2329,2448 2325,2448 2322,2448 2319,2449 2315,2449 2311,2448 2306,2448 2303,2448 2298,2448 2294,2447 2290,2447 2286,2449 2284,2453 2282,2457 2280,2461 2279,2465 2277,2470 2276,2473 2274,2475 2270,2476 2267,2479 2263,2481 2261,2483 2259,2484 2256,2486 2252,2487 2249,2488 2245,2489 2242,2488 2239,2485 2234,2483 2230,2480 2227,2479 2224,2477 2221,2476 2218,2476 2215,2476 2212,2475 2209,2475 2206,2474 2203,2474 2199,2473 2196,2474 2191,2475 2187,2476 2184,2476 2181,2477 2177,2478 2173,2479 2169,2479 2165,2480 2162,2481 2159,2481 2155,2482 2150,2483 2146,2484 2142,2485 2137,2486 2134,2485 2131,2485 2128,2485 2125,2484 2122,2484 2118,2484 2114,2483 2111,2482 2108,2482 2104,2480 2101,2479 2098,2478 2094,2475 2090,2473 2087,2472 2084,2471 2081,2468 2076,2466 2072,2464 2069,2462 2065,2460 2062,2459 2058,2457 2053,2456 2049,2455 2044,2455 2042,2454 2039,2454 2036,2453 2033,2453 2030,2452 2027,2452 2024,2452 2019,2452 2015,2452 2011,2452 2006,2452 2003,2451 1999,2451 1994,2450 1990,2450 1986,2449 1982,2449 1977,2448 1973,2448 1970,2448 1967,2448 1964,2447 1961,2447 1956,2447 1953,2446 1949,2445 1945,2445 1941,2444 1936,2443 1931,2442 1927,2441 1925,2441 1922,2440 1918,2439 1914,2439 1911,2438 1908,2438 1904,2437 1900,2436 1896,2435 1894,2435 1891,2435 1887,2434 1883,2433 1880,2432 1877,2432 1873,2431 1869,2430 1866,2430 1863,2429 1859,2428 1855,2428 1851,2427 1849,2427 1846,2426 1843,2425 1840,2425 1838,2424 1835,2424 1832,2423 1828,2423 1824,2421 1820,2422 1815,2424 1811,2426 1808,2427 1804,2428 1799,2428 1796,2429 1793,2430 1790,2431 1786,2433 1781,2435 1777,2435 1773,2435 1769,2435 1765,2435 1760,2434 1756,2434 1752,2434 1748,2434 1745,2433 1742,2433 1738,2432 1735,2432 1732,2432 1729,2431 1725,2431 1721,2431 1717,2430 1713,2429 1711,2429 1707,2428 1704,2426 1701,2425 1697,2423 1694,2420 1690,2418 1687,2414 1686,2411 1683,2408 1681,2404 1678,2400 1676,2399 1672,2399 1668,2399 1666,2399 1663,2399 1659,2399 1655,2399 1651,2399 1649,2400 1646,2400 1642,2400 1638,2400 1634,2400 1630,2400 1628,2400 1625,2400 1621,2400 1617,2400 1613,2401 1608,2402 1606,2403 1603,2404 1600,2404 1597,2405 1592,2406 1589,2407 1584,2408 1579,2410 1574,2411 1569,2412 1565,2413 1562,2414 1559,2414 1556,2414 1552,2414 1548,2414 1545,2413 1542,2412 1539,2410 1535,2408 1533,2406 1530,2403 1527,2401 1526,2398 1526,2393 1526,2390 1527,2387 1527,2383 1526,2380 1526,2378 1525,2375 1525,2372 1524,2370 1521,2368 1518,2364 1515,2361 1512,2359 1509,2358 1505,2356 1501,2355 1498,2354 1496,2354 1493,2354 1488,2354 1484,2354 1480,2354 1475,2354 1472,2354 1468,2354 1463,2354 1459,2354 1455,2354 1450,2354 1448,2354 1445,2353 1442,2352 1438,2350 1435,2347 1433,2344 1430,2341 1428,2339 1425,2336 1423,2334 1421,2331 1418,2328 1416,2326 1412,2323 1409,2320 1407,2317 1405,2313 1404,2309 1403,2305 1402,2303 1401,2300 1400,2297 1400,2293 1400,2290 1398,2286 1395,2282 1394,2280 1391,2279 1388,2276 1384,2274 1379,2272 1375,2269 1372,2266 1369,2262 1366,2260 1363,2258 1361,2255 1360,2252 1359,2250 1357,2247 1356,2244 1354,2240 1353,2237 1351,2234 1351,2231 1350,2228 1349,2225 1349,2223 1348,2220 1347,2216 1344,2212 1342,2208 1339,2206 1335,2204 1331,2200 1328,2197 1324,2193 1321,2189 1318,2186 1315,2183 1313,2180 1309,2176 1306,2174 1304,2173 1301,2170 1297,2169 1293,2168 1288,2168 1283,2167 1279,2167 1276,2166 1272,2166 1268,2165 1265,2165 1261,2163 1258,2163 1255,2162 1252,2161 1249,2159 1248,2156 1246,2153 1245,2151 1243,2148 1242,2145 1239,2142 1237,2138 1234,2135 1232,2133 1229,2131 1228,2129 1224,2128 1221,2126 1217,2126 1213,2125 1208,2124 1205,2124 1203,2127 1200,2130 1199,2134 1198,2138 1197,2142 1196,2145 1194,2148 1194,2152 1192,2154 1188,2157 1185,2158 1182,2159 1179,2160 1175,2161 1171,2162 1168,2163 1164,2164 1159,2166 1156,2165 1153,2163 1151,2162 1147,2160 1142,2159 1139,2157 1134,2155 1130,2154 1128,2153 1124,2152 1120,2150 1116,2149 1113,2148 1110,2147 1107,2146 1103,2145 1098,2143 1097,2141 1094,2138 1092,2137 1089,2134 1087,2132 1084,2129 1081,2127 1078,2124 1075,2122 1073,2120 1069,2117 1065,2113 1061,2111 1059,2108 1056,2104 1055,2101 1052,2098 1047,2095 1043,2092 1040,2090 1038,2089 1035,2087 1032,2085 1029,2083 1026,2081 1025,2079 1023,2075 1022,2071 1022,2068 1021,2066 1021,2063 1021,2059 1020,2056 1019,2052 1018,2048 1017,2045 1014,2042 1013,2038 1012,2036 1010,2032 1007,2029 1004,2027 1002,2024 1000,2023 997,2021 995,2019 993,2017 990,2014 988,2013 985,2010 982,2008 979,2005 977,2003 975,2000 973,1999 971,1996 969,1994 966,1989 962,1985 960,1981 958,1978 955,1974 953,1970 952,1967 951,1962 964,1951 985,1948 1004,1957 1043,1984 1062,1991 1070,1987 1063,1964 1066,1932 1069,1916 1062,1910 1021,1922 1005,1921 991,1914 970,1909 951,1905 943,1903 938,1897 937,1890 932,1887 919,1883 911,1880 907,1878 915,1863 941,1797 942,1784 938,1777 925,1772 904,1761 909,1755 922,1748 916,1742 912,1735 906,1720 915,1702 921,1697 942,1685 946,1679 947,1671 935,1661 925,1649 913,1638 906,1636 879,1639 846,1640 826,1633 830,1596 829,1558 831,1545 822,1496 821,1476 822,1469 828,1457 858,1421 867,1408 873,1396 884,1383 897,1375 889,1362 894,1330 891,1324 878,1319 871,1314 867,1308 866,1290 872,1278 881,1253 882,1246 880,1240 875,1234 869,1231 868,1225 895,1180 897,1173 901,1167 919,1149 951,1128 962,1115 969,1096 947,1074 945,1068 947,1055 950,1049 966,1030 990,1008 994,1006 997,1005 1000,1004 1002,1003 1006,1002 1008,1001 1011,1004 1015,1008 1017,1011 1021,1013 1025,1014 1030,1014 1032,1011 1034,1010 1036,1008 1039,1007 1042,1007 1046,1007 1049,1007 1052,1009 1055,1010 1059,1010 1063,1010 1068,1010 1071,1010 1074,1009 1079,1008 1083,1008 1087,1008 1092,1009 1097,1009 1101,1008 1105,1008 1108,1008 1112,1008 1116,1008 1118,1009 1122,1012 1125,1015 1126,1017 1128,1019 1131,1021 1134,1025 1136,1028 1138,1031 1139,1034 1140,1037 1142,1040 1142,1042 1143,1045 1144,1049 1146,1052 1149,1055 1151,1057 1152,1059 1154,1062 1156,1065 1158,1069 1162,1071 1166,1071 1169,1072 1173,1073 1177,1074 1180,1075 1183,1075 1185,1073 1189,1072 1192,1071 1195,1070 1199,1069 1202,1068 1206,1067 1209,1067 1214,1066 1219,1066 1223,1065 1226,1065 1231,1066 1234,1067 1238,1070 1242,1073 1246,1075 1249,1078 1252,1080 1253,1083 1256,1087 1259,1090 1260,1092 1263,1096 1265,1099 1269,1104 1273,1107 1276,1109 1280,1111 1283,1113 1286,1115 1289,1117 1293,1120 1296,1125 1297,1129 1300,1131 1304,1133 1307,1134 1312,1136 1316,1138 1318,1138 1321,1139 1323,1139 1328,1140 1332,1141 1335,1141 1338,1141 1342,1141 1346,1141 1349,1141 1353,1141 1357,1141 1361,1141 1365,1143 1369,1144 1373,1145 1375,1146 1378,1147 1382,1148 1386,1149 1389,1149 1392,1150 1396,1151 1399,1151 1401,1152 1405,1152 1410,1152 1414,1149 1417,1148 1420,1146 1422,1145 1425,1142 1430,1138 1434,1136 1438,1136 1442,1137 1445,1138 1448,1141 1451,1145 1456,1149 1459,1152 1459,1155 1459,1158 1460,1162 1461,1165 1462,1168 1465,1170 1469,1170 1473,1170 1477,1169 1482,1169 1486,1169 1490,1169 1494,1169 1497,1169 1499,1168 1502,1167 1505,1165 1511,1162 1513,1160 1514,1155 1512,1152 1509,1149 1506,1147 1503,1144 1500,1141 1497,1139 1496,1137 1494,1135 1492,1133 1489,1130 1486,1127 1482,1123 1478,1119 1475,1116 1472,1112 1469,1109 1467,1107 1464,1104 1462,1102 1459,1099 1457,1096 1454,1092 1452,1088 1450,1083 1448,1079 1447,1076 1446,1073 1445,1071 1444,1068 1443,1066 1442,1063 1441,1060 1440,1056 1438,1053 1435,1049 1433,1046 1431,1043 1428,1040 1425,1037 1423,1037 1420,1038 1416,1038 1413,1039 1409,1040 1405,1040 1401,1041 1399,1041 1396,1038 1393,1035 1390,1032 1387,1029 1387,1025 1387,1020 1387,1016 1387,1012 1389,1008 1391,1004 1393,1001 1396,998 1399,996 1402,993 1406,990 1409,987 1412,984 1415,981 1419,979 1423,976 1426,973 1427,970 1430,968 1432,964 1432,960 1432,956 1429,952 1425,951 1423,948 1421,947 1418,945 1416,943 1418,942 1420,940 1424,939 1426,938 1429,937 1432,935 1435,934 1438,933 1442,931 1445,930 1447,928 1450,928 1453,926 1456,925 1459,924 1462,921 1464,920 1465,918 1466,915 1470,913 1473,914 1476,915 1479,915 1484,916 1487,916 1491,913 1496,909 1499,906 1503,903 1507,900 1510,897 1513,895 1516,892 1519,890 1522,887 1525,884 1528,882 1531,879 1534,878 1536,876 1539,873 1542,872 1545,872 1549,872 1553,872 1557,872 1562,872 1565,872 1568,873 " class="polyStyle" id="320413" style="fill:#f6f67b"/>
<path d="" class="polyStyle" id="370282" style="fill:#f6f67b"/>
<path d="" class="polyStyle" id="371083" style="fill:#f6f67b"/>
<path d="" class="polyStyle" id="371082" style="fill:#fbe6ef"/>
<path d="" class="polyStyle" id="652801" style="fill:#f8c67d"/>
<path d="" class="polyStyle" id="654301" style="fill:#ee8b94"/>
<path d="" class="polyStyle" id="370687" style="fill:#ee8b94"/>
<path d="" class="polyStyle" id="371482" style="fill:#d4ecb2"/>
<path d="" class="polyStyle" id="421081" style="fill:#fbe6ef"/>
<path d="" class="polyStyle" id="429006" style="fill:#f6f67b"/>
<path d="" class="polyStyle" id="440982" style="fill:#d4ecb2"/>
<path d="" class="polyStyle" id="421181" style="fill:#d4ecb2"/>
<path d="" class="polyStyle" id="321181" style="fill:#d4ecb2"/>
<path d="" class="polyStyle" id="659007" style="fill:#ee8b94"/>
<path d="" class="polyStyle" id="652701" style="fill:#fbe6ef"/>
<path d="" class="polyStyle" id="210781" style="fill:#fbe6ef"/>
<path d="" class="polyStyle" id="460204" style="fill:#f6f67b"/>
<path d="" class="polyStyle" id="210211" style="fill:#f6f67b"/>
<path d="" class="polyStyle" id="450512" style="fill:#ee8b94"/>
<path d="" class="polyStyle" id="450602" style="fill:#fbe6ef"/>
<path d="" class="polyStyle" id="440404" style="fill:#ee8b94"/>
<path d="" class="polyStyle" id="440403" style="fill:#f6f67b"/>
<path d="" class="polyStyle" id="441502" style="fill:#f6f67b"/>
<path d="" class="polyStyle" id="431002" style="fill:#d4ecb2"/>
<path d="" class="polyStyle" id="500107" style="fill:#fbe6ef"/>
<path d="" class="polyStyle" id="430611" style="fill:#d4ecb2"/>
<path d="" class="polyStyle" id="511304" style="fill:#fbe6ef"/>
<path d="" class="polyStyle" id="340711" style="fill:#ee8b94"/>
<path d="" class="polyStyle" id="320118" style="fill:#f6f67b"/>
<path d="" class="polyStyle" id="510704" style="fill:#f6f67b"/>
<polygon points="4703,1438 4707,1447 4717,1460 4716,1464 4711,1468 4691,1484 4684,1487 4682,1490 4685,1494 4694,1514 4698,1542 4695,1554 4690,1559 4685,1561 4681,1562 4670,1561 4667,1561 4663,1562 4646,1607 4647,1613 4658,1622 4653,1640 4645,1666 4656,1676 4700,1679 4717,1685 4716,1696 4712,1711 4690,1747 4649,1739 4613,1733 4602,1727 4588,1704 4567,1687 4553,1679 4521,1685 4513,1687 4488,1680 4488,1670 4487,1667 4489,1666 4489,1663 4483,1661 4484,1655 4487,1655 4490,1650 4493,1651 4496,1648 4498,1647 4498,1643 4500,1638 4502,1634 4486,1624 4467,1614 4456,1608 4440,1600 4433,1596 4420,1588 4409,1582 4399,1577 4369,1561 4336,1542 4328,1537 4320,1534 4328,1517 4328,1514 4332,1504 4331,1500 4335,1496 4335,1493 4334,1489 4333,1485 4337,1484 4341,1483 4347,1483 4350,1483 4353,1482 4364,1477 4377,1472 4396,1470 4404,1470 4414,1470 4421,1469 4430,1464 4435,1459 4438,1453 4441,1447 4442,1444 4445,1439 4449,1435 4450,1433 4455,1432 4458,1432 4463,1432 4468,1433 4477,1435 4497,1435 4500,1434 4508,1431 4511,1431 4514,1430 4516,1426 4516,1421 4517,1416 4518,1412 4521,1410 4527,1408 4533,1408 4543,1414 4564,1421 4583,1424 4598,1427 4610,1428 4614,1427 4638,1405 4652,1396 4666,1395 4687,1417 " class="polyStyle" id="320405" style="fill:#f6f67b"/>
<polygon points="4459,1159 4460,1168 4528,1191 4528,1202 4495,1248 4468,1263 4456,1264 4453,1283 4457,1299 4482,1330 4467,1424 4468,1433 4463,1432 4458,1432 4455,1432 4450,1433 4449,1435 4445,1439 4442,1444 4441,1447 4438,1453 4435,1459 4430,1464 4421,1469 4414,1470 4404,1470 4396,1470 4377,1472 4364,1477 4353,1482 4350,1483 4347,1483 4341,1483 4337,1484 4333,1485 4334,1489 4335,1493 4335,1496 4331,1500 4332,1504 4328,1514 4328,1517 4320,1534 4328,1537 4336,1542 4369,1561 4399,1577 4409,1582 4420,1588 4433,1596 4440,1600 4456,1608 4467,1614 4486,1624 4502,1634 4500,1638 4498,1643 4498,1647 4496,1648 4493,1651 4490,1650 4487,1655 4484,1655 4483,1661 4489,1663 4489,1666 4487,1667 4488,1670 4488,1680 4479,1677 4466,1665 4442,1659 4392,1659 4372,1653 4359,1649 4350,1639 4341,1639 4328,1648 4325,1649 4323,1651 4320,1653 4317,1655 4315,1656 4313,1657 4310,1660 4307,1663 4305,1666 4303,1665 4300,1663 4297,1660 4297,1658 4297,1655 4296,1652 4296,1647 4295,1643 4294,1639 4292,1635 4291,1633 4289,1630 4286,1627 4283,1626 4279,1624 4276,1624 4272,1624 4267,1624 4263,1624 4258,1624 4255,1624 4252,1624 4248,1624 4245,1624 4241,1624 4238,1624 4235,1623 4232,1623 4229,1623 4226,1622 4222,1622 4218,1622 4214,1621 4210,1621 4208,1621 4204,1621 4200,1620 4197,1620 4194,1619 4191,1619 4187,1618 4183,1618 4180,1617 4177,1617 4173,1616 4169,1614 4166,1614 4163,1612 4159,1610 4156,1609 4154,1607 4151,1606 4148,1604 4144,1602 4142,1601 4139,1600 4136,1597 4132,1595 4126,1593 4122,1591 4119,1590 4116,1588 4112,1586 4109,1585 4106,1585 4103,1585 4100,1586 4096,1586 4092,1587 4088,1589 4086,1590 4081,1590 4079,1587 4076,1585 4073,1583 4069,1581 4065,1579 4062,1578 4061,1575 4060,1572 4059,1569 4059,1566 4058,1563 4056,1562 4052,1561 4049,1562 4046,1563 4043,1565 4039,1566 4036,1568 4032,1569 4030,1571 4027,1570 4025,1569 4022,1568 4018,1565 4014,1561 4012,1560 4010,1557 4007,1556 4004,1555 3999,1553 3994,1552 3991,1551 3987,1551 3983,1550 3979,1549 3974,1548 3970,1547 3967,1547 3963,1547 3959,1547 3954,1546 3950,1546 3946,1546 3942,1546 3938,1546 3934,1545 3930,1545 3925,1544 3922,1540 3920,1536 3919,1534 3917,1531 3914,1528 3912,1526 3908,1525 3908,1511 3916,1512 3941,1512 3947,1510 3954,1509 3960,1508 3971,1507 3980,1502 3983,1496 3986,1489 3991,1483 3997,1481 4006,1478 4010,1470 4016,1466 4024,1463 4031,1462 4045,1462 4057,1456 4063,1454 4071,1459 4077,1461 4080,1453 4083,1442 4086,1434 4087,1427 4089,1421 4090,1415 4088,1406 4085,1399 4086,1393 4086,1380 4087,1374 4089,1367 4090,1360 4087,1353 4081,1353 4075,1352 4068,1351 4056,1341 4061,1335 4067,1331 4083,1323 4079,1314 4073,1306 4071,1300 4068,1294 4062,1292 4054,1289 4048,1287 4037,1283 4039,1276 4041,1273 4049,1276 4053,1277 4054,1274 4054,1269 4054,1264 4053,1260 4052,1256 4052,1253 4056,1252 4061,1251 4068,1249 4072,1248 4080,1251 4089,1253 4108,1256 4122,1253 4129,1254 4145,1261 4151,1271 4152,1276 4169,1279 4172,1281 4176,1301 4183,1309 4198,1314 4205,1314 4225,1292 4236,1281 4243,1276 4249,1273 4256,1268 4261,1266 4265,1263 4268,1262 4271,1261 4274,1261 4278,1260 4281,1259 4287,1259 4294,1259 4300,1257 4303,1256 4306,1256 4310,1255 4316,1254 4319,1254 4327,1253 4333,1252 4338,1252 4344,1252 4345,1248 4358,1236 4362,1231 4362,1221 4361,1215 4359,1208 4353,1205 4347,1204 4343,1203 4340,1200 4340,1196 4340,1193 4336,1185 4334,1183 4331,1180 4328,1174 4331,1172 4339,1167 4345,1163 4348,1163 4353,1169 4355,1172 4356,1177 4358,1179 4361,1177 4367,1174 4372,1174 4380,1176 4393,1183 4397,1184 4399,1184 4400,1182 4403,1175 4410,1168 4411,1165 4414,1155 4427,1140 4444,1138 4451,1142 " class="polyStyle" id="320402" style="fill:#d4ecb2"/>
<polygon points="3760,1073 3766,1077 3792,1080 3804,1080 3817,1076 3831,1079 3840,1083 3845,1089 3847,1101 3856,1114 3858,1122 3854,1129 3857,1136 3864,1140 3871,1141 3878,1140 3889,1143 3900,1152 3909,1162 3917,1166 3923,1166 3929,1168 3932,1174 3935,1181 3933,1189 3930,1195 3930,1202 3928,1210 3927,1216 3927,1222 3925,1228 3922,1234 3921,1240 3927,1245 3933,1247 3941,1249 3947,1252 3954,1254 3962,1257 3969,1259 3977,1262 3991,1267 3997,1269 4004,1272 4011,1274 4018,1277 4037,1283 4048,1287 4054,1289 4062,1292 4068,1294 4071,1300 4073,1306 4079,1314 4083,1323 4067,1331 4061,1335 4056,1341 4068,1351 4075,1352 4081,1353 4087,1353 4090,1360 4089,1367 4087,1374 4086,1380 4086,1393 4085,1399 4088,1406 4090,1415 4089,1421 4087,1427 4086,1434 4083,1442 4080,1453 4077,1461 4071,1459 4063,1454 4057,1456 4045,1462 4031,1462 4024,1463 4016,1466 4010,1470 4006,1478 3997,1481 3991,1483 3986,1489 3983,1496 3980,1502 3971,1507 3960,1508 3954,1509 3947,1510 3941,1512 3916,1512 3908,1511 3908,1525 3902,1523 3894,1524 3887,1522 3881,1522 3873,1521 3867,1520 3861,1518 3855,1524 3849,1531 3843,1537 3838,1543 3832,1549 3827,1555 3820,1562 3808,1572 3802,1576 3788,1586 3780,1591 3774,1587 3762,1581 3756,1576 3749,1570 3742,1565 3736,1559 3730,1554 3725,1548 3718,1542 3712,1536 3706,1530 3701,1524 3695,1518 3688,1512 3680,1506 3673,1501 3666,1498 3659,1494 3652,1491 3645,1488 3638,1485 3631,1482 3624,1479 3620,1473 3617,1466 3614,1459 3611,1453 3610,1447 3610,1441 3609,1435 3608,1429 3608,1423 3626,1414 3634,1409 3640,1404 3646,1397 3645,1390 3642,1383 3639,1376 3637,1370 3634,1363 3631,1356 3628,1350 3624,1343 3622,1337 3622,1331 3623,1324 3624,1318 3625,1312 3629,1298 3625,1292 3619,1288 3604,1288 3604,1281 3610,1269 3614,1262 3618,1255 3622,1249 3626,1242 3630,1236 3634,1229 3638,1223 3641,1217 3645,1210 3649,1204 3652,1197 3656,1191 3660,1182 3677,1152 3687,1135 3693,1125 3714,1094 3731,1067 3737,1057 3740,1056 3756,1057 " class="polyStyle" id="320404" style="fill:#f6f67b"/>
<polygon points="3246,803 3255,807 3267,810 3275,821 3282,848 3279,861 3271,877 3278,885 3296,893 3313,875 3319,876 3322,887 3325,896 3331,903 3342,910 3356,910 3371,897 3387,891 3398,896 3408,897 3409,902 3476,907 3483,915 3538,928 3546,939 3544,950 3546,963 3552,970 3564,972 3579,986 3586,1005 3558,1084 3553,1100 3541,1115 3569,1129 3660,1182 3656,1191 3652,1197 3649,1204 3645,1210 3641,1217 3638,1223 3634,1229 3630,1236 3626,1242 3622,1249 3618,1255 3614,1262 3610,1269 3604,1281 3604,1288 3619,1288 3625,1292 3629,1298 3625,1312 3624,1318 3623,1324 3622,1331 3622,1337 3624,1343 3628,1350 3631,1356 3634,1363 3637,1370 3639,1376 3642,1383 3645,1390 3646,1397 3640,1404 3634,1409 3626,1414 3608,1423 3608,1429 3609,1435 3610,1441 3610,1447 3611,1453 3614,1459 3617,1466 3620,1473 3624,1479 3631,1482 3638,1485 3645,1488 3652,1491 3659,1494 3666,1498 3673,1501 3680,1506 3688,1512 3695,1518 3701,1524 3706,1530 3712,1536 3718,1542 3725,1548 3730,1554 3736,1559 3742,1565 3749,1570 3756,1576 3762,1581 3774,1587 3780,1591 3788,1586 3802,1576 3808,1572 3820,1562 3827,1555 3832,1549 3838,1543 3843,1537 3849,1531 3855,1524 3861,1518 3867,1520 3873,1521 3881,1522 3887,1522 3894,1524 3902,1523 3908,1525 3912,1526 3914,1528 3917,1531 3919,1534 3920,1536 3922,1540 3925,1544 3930,1545 3934,1545 3938,1546 3942,1546 3946,1546 3950,1546 3954,1546 3959,1547 3963,1547 3967,1547 3970,1547 3974,1548 3979,1549 3983,1550 3987,1551 3991,1551 3994,1552 3999,1553 4004,1555 4007,1556 4010,1557 4012,1560 4014,1561 4018,1565 4022,1568 4025,1569 4027,1570 4030,1571 4032,1569 4036,1568 4039,1566 4043,1565 4046,1563 4049,1562 4052,1561 4056,1562 4058,1563 4059,1566 4059,1569 4060,1572 4061,1575 4062,1578 4065,1579 4069,1581 4073,1583 4076,1585 4079,1587 4081,1590 4086,1590 4088,1589 4092,1587 4096,1586 4100,1586 4103,1585 4106,1585 4109,1585 4112,1586 4116,1588 4119,1590 4122,1591 4126,1593 4132,1595 4136,1597 4139,1600 4142,1601 4144,1602 4148,1604 4151,1606 4154,1607 4156,1609 4159,1610 4163,1612 4166,1614 4169,1614 4173,1616 4177,1617 4180,1617 4183,1618 4187,1618 4191,1619 4194,1619 4197,1620 4200,1620 4204,1621 4208,1621 4210,1621 4214,1621 4218,1622 4222,1622 4226,1622 4229,1623 4232,1623 4235,1623 4238,1624 4241,1624 4245,1624 4248,1624 4252,1624 4255,1624 4258,1624 4263,1624 4267,1624 4272,1624 4276,1624 4279,1624 4283,1626 4286,1627 4289,1630 4291,1633 4292,1635 4294,1639 4295,1643 4296,1647 4296,1652 4297,1655 4297,1658 4297,1660 4300,1663 4303,1665 4305,1666 4307,1663 4310,1660 4313,1657 4315,1656 4317,1655 4320,1653 4323,1651 4325,1649 4328,1648 4341,1639 4350,1639 4359,1649 4372,1653 4392,1659 4442,1659 4466,1665 4479,1677 4488,1680 4513,1687 4521,1685 4553,1679 4567,1687 4588,1704 4602,1727 4613,1733 4649,1739 4690,1747 4712,1711 4716,1696 4717,1685 4700,1679 4656,1676 4645,1666 4653,1640 4658,1622 4647,1613 4646,1607 4663,1562 4667,1561 4670,1561 4681,1562 4685,1561 4690,1559 4695,1554 4698,1542 4694,1514 4685,1494 4682,1490 4684,1487 4691,1484 4711,1468 4716,1464 4717,1460 4707,1447 4703,1438 4687,1417 4666,1395 4652,1396 4638,1405 4614,1427 4610,1428 4598,1427 4583,1424 4564,1421 4543,1414 4533,1408 4527,1408 4521,1410 4518,1412 4517,1416 4516,1421 4516,1426 4514,1430 4511,1431 4508,1431 4500,1434 4497,1435 4477,1435 4468,1433 4467,1424 4482,1330 4457,1299 4453,1283 4456,1264 4468,1263 4495,1248 4528,1202 4528,1191 4536,1181 4541,1173 4550,1159 4555,1155 4559,1150 4566,1145 4577,1139 4580,1138 4582,1132 4602,1126 4701,1062 4727,1034 4793,1021 4870,1022 4887,1024 4914,1002 5021,1004 5031,986 5059,978 5091,960 5145,948 5149,949 5175,946 5180,948 5214,974 5227,997 5222,1018 5203,1054 5184,1076 5163,1094 5166,1105 5150,1118 5136,1121 5121,1135 5120,1138 5120,1148 5121,1152 5122,1158 5124,1163 5125,1167 5128,1171 5154,1181 5161,1185 5161,1190 5153,1213 5154,1220 5162,1224 5173,1225 5182,1226 5190,1228 5197,1232 5197,1235 5188,1250 5182,1262 5177,1289 5183,1304 5187,1306 5190,1309 5211,1329 5214,1334 5217,1338 5220,1342 5222,1345 5224,1349 5225,1352 5235,1373 5235,1376 5243,1397 5244,1400 5245,1403 5246,1407 5247,1411 5253,1430 5254,1433 5256,1437 5257,1441 5259,1444 5260,1448 5270,1463 5272,1465 5276,1468 5291,1486 5291,1489 5294,1492 5296,1496 5297,1499 5299,1503 5302,1509 5303,1512 5305,1517 5307,1523 5310,1532 5287,1533 5232,1547 5221,1549 5218,1531 5200,1513 5199,1505 5162,1509 5145,1494 5119,1501 5101,1502 5094,1509 5073,1518 5069,1538 5069,1579 5083,1665 5081,1682 5083,1713 5076,1726 5080,1736 5084,1780 5080,1783 5066,1788 5068,1804 5059,1804 5038,1808 5027,1814 5023,1827 5021,1841 5019,1849 5015,1858 5047,1868 5063,1881 5024,1914 5017,1919 4952,1883 4942,1878 4934,1906 4930,1930 4929,2010 4922,2058 4911,2095 4905,2109 4897,2145 4882,2149 4844,2153 4812,2190 4771,2214 4745,2228 4723,2248 4676,2269 4676,2285 4674,2322 4657,2338 4653,2345 4642,2348 4623,2364 4609,2384 4592,2397 4584,2417 4594,2429 4602,2446 4585,2489 4589,2497 4618,2521 4647,2537 4659,2527 4671,2526 4684,2527 4697,2537 4719,2552 4743,2550 4749,2550 4796,2558 4795,2578 4811,2588 4806,2646 4818,2656 4822,2683 4827,2690 4828,2699 4815,2720 4815,2729 4836,2734 4849,2735 4870,2721 4903,2718 4898,2758 4908,2769 4916,2770 4924,2764 4931,2766 4942,2772 4930,2791 4888,2833 4856,2873 4844,2894 4828,2947 4832,2956 4850,2992 4757,3033 4750,3025 4747,3025 4739,3032 4694,3049 4605,3097 4574,3128 4523,3268 4499,3408 4501,3476 4510,3493 4525,3505 4586,3518 4768,3533 4780,3537 4802,3602 4799,3622 4748,3637 4644,3614 4603,3603 4509,3569 4461,3531 4419,3474 4405,3428 4406,3383 4439,3253 4473,3206 4488,3169 4495,3124 4521,2950 4531,2900 4522,2880 4517,2869 4529,2859 4528,2844 4487,2821 4481,2809 4455,2798 4426,2793 4411,2790 4393,2775 4380,2771 4327,2781 4325,2780 4322,2779 4320,2777 4317,2776 4314,2774 4311,2773 4309,2772 4306,2769 4302,2768 4300,2767 4297,2765 4295,2764 4292,2761 4288,2758 4286,2761 4285,2764 4285,2766 4285,2769 4285,2771 4285,2775 4285,2779 4285,2792 4281,2811 4267,2799 4250,2779 4208,2741 4204,2738 4169,2719 4170,2683 4169,2655 4168,2652 4167,2648 4166,2645 4165,2642 4165,2640 4163,2637 4163,2635 4162,2631 4161,2628 4160,2624 4160,2621 4158,2617 4155,2616 4151,2615 4146,2615 4142,2614 4137,2613 4135,2613 4132,2612 4129,2610 4124,2608 4121,2607 4117,2605 4112,2603 4109,2602 4105,2600 4100,2598 4096,2597 4093,2596 4089,2595 4087,2594 4084,2593 4080,2592 4075,2590 4070,2589 4065,2587 4062,2586 4059,2586 4055,2584 4052,2583 4048,2582 4043,2581 4041,2580 4038,2579 4035,2576 4030,2574 4026,2572 4023,2571 4019,2568 4016,2567 4013,2565 4011,2563 4009,2560 4006,2557 4004,2554 4002,2552 3999,2550 3998,2549 3996,2548 3993,2545 3990,2543 3987,2540 3984,2538 3982,2536 3979,2534 3976,2535 3971,2535 3967,2536 3963,2537 3959,2538 3956,2539 3953,2539 3949,2540 3945,2541 3941,2541 3939,2542 3936,2542 3933,2543 3930,2544 3926,2545 3921,2545 3917,2546 3914,2547 3911,2548 3907,2548 3903,2549 3899,2549 3897,2550 3894,2550 3890,2551 3886,2552 3882,2552 3879,2553 3876,2553 3872,2554 3868,2554 3863,2555 3859,2556 3855,2556 3850,2557 3845,2558 3843,2558 3839,2559 3835,2559 3831,2559 3827,2559 3822,2559 3818,2560 3814,2560 3810,2560 3805,2561 3800,2561 3796,2561 3793,2561 3789,2560 3786,2560 3783,2562 3780,2563 3777,2564 3774,2564 3771,2565 3768,2565 3765,2565 3761,2565 3757,2565 3753,2565 3748,2565 3744,2565 3742,2564 3739,2564 3735,2564 3731,2564 3727,2564 3722,2564 3718,2564 3714,2563 3710,2563 3706,2563 3701,2563 3697,2563 3693,2563 3688,2563 3684,2564 3680,2564 3676,2565 3672,2565 3667,2565 3663,2566 3659,2566 3655,2566 3650,2566 3646,2566 3642,2566 3638,2567 3634,2567 3630,2566 3625,2566 3621,2567 3617,2567 3612,2566 3610,2566 3608,2569 3607,2573 3605,2575 3604,2579 3602,2581 3600,2583 3598,2585 3597,2588 3594,2590 3592,2593 3589,2596 3586,2599 3582,2603 3579,2606 3577,2610 3574,2613 3572,2617 3569,2621 3566,2625 3562,2629 3559,2631 3556,2634 3552,2638 3549,2641 3546,2642 3544,2645 3541,2647 3538,2649 3535,2651 3531,2652 3528,2652 3525,2653 3522,2653 3518,2654 3514,2655 3510,2655 3507,2655 3503,2655 3499,2655 3494,2655 3490,2654 3486,2654 3482,2654 3477,2653 3473,2653 3469,2653 3464,2652 3461,2651 3457,2648 3455,2647 3452,2644 3448,2642 3444,2640 3441,2637 3437,2635 3434,2632 3430,2630 3426,2627 3424,2626 3421,2623 3417,2621 3414,2619 3410,2616 3406,2613 3403,2611 3399,2608 3396,2606 3394,2604 3392,2601 3389,2599 3386,2597 3383,2594 3380,2592 3378,2590 3376,2588 3373,2585 3369,2583 3366,2580 3363,2578 3361,2575 3358,2573 3354,2570 3351,2567 3349,2565 3345,2563 3344,2561 3341,2558 3337,2555 3334,2554 3330,2553 3328,2552 3325,2551 3322,2549 3318,2548 3314,2547 3311,2546 3307,2545 3305,2545 3302,2543 3298,2542 3293,2541 3289,2540 3286,2538 3283,2538 3280,2537 3277,2536 3272,2535 3268,2534 3266,2533 3263,2532 3261,2531 3257,2531 3253,2530 3248,2530 3244,2530 3241,2529 3237,2529 3235,2529 3231,2528 3228,2528 3224,2528 3221,2528 3218,2527 3215,2527 3211,2527 3207,2526 3203,2526 3199,2525 3194,2525 3192,2525 3189,2525 3186,2526 3183,2526 3179,2526 3174,2527 3170,2527 3166,2527 3163,2528 3160,2528 3156,2528 3153,2528 3149,2529 3146,2529 3143,2529 3140,2530 3136,2530 3132,2529 3128,2529 3124,2529 3120,2528 3117,2528 3113,2527 3110,2526 3107,2525 3104,2524 3100,2522 3095,2521 3093,2520 3090,2519 3087,2518 3083,2517 3079,2517 3076,2516 3073,2516 3070,2515 3066,2514 3063,2513 3060,2512 3055,2510 3051,2509 3047,2508 3044,2507 3041,2507 3037,2505 3034,2504 3030,2503 3025,2501 3023,2501 3019,2499 3014,2498 3010,2497 3006,2497 3003,2496 3000,2496 2996,2495 2993,2494 2990,2493 2986,2493 2982,2492 2980,2492 2976,2491 2973,2490 2970,2490 2966,2490 2962,2490 2958,2490 2956,2490 2953,2490 2950,2490 2947,2490 2944,2491 2941,2492 2938,2492 2935,2493 2932,2493 2929,2494 2926,2497 2922,2500 2919,2502 2916,2504 2913,2506 2909,2509 2906,2512 2903,2513 2899,2516 2897,2518 2893,2518 2888,2519 2885,2519 2882,2520 2878,2519 2876,2518 2873,2517 2870,2516 2867,2514 2864,2511 2864,2509 2864,2506 2864,2504 2863,2500 2862,2496 2861,2492 2860,2488 2859,2486 2858,2482 2857,2479 2856,2476 2855,2473 2854,2470 2853,2466 2852,2463 2850,2459 2850,2454 2850,2449 2849,2444 2849,2441 2849,2438 2849,2434 2849,2431 2849,2426 2849,2422 2849,2418 2846,2416 2843,2414 2839,2413 2836,2411 2834,2411 2831,2411 2828,2412 2825,2412 2822,2413 2818,2413 2814,2414 2810,2414 2806,2414 2801,2415 2797,2414 2796,2410 2796,2407 2794,2404 2793,2400 2792,2397 2790,2393 2789,2390 2786,2388 2783,2385 2779,2382 2775,2379 2772,2376 2772,2372 2773,2369 2772,2366 2772,2363 2771,2360 2769,2357 2769,2355 2767,2353 2766,2350 2764,2347 2762,2343 2761,2341 2759,2338 2758,2334 2756,2331 2754,2327 2751,2323 2750,2320 2748,2317 2747,2315 2745,2312 2743,2309 2741,2305 2740,2303 2738,2300 2737,2298 2735,2295 2734,2293 2732,2290 2731,2288 2729,2286 2728,2283 2726,2281 2725,2278 2722,2278 2718,2278 2714,2279 2710,2279 2705,2279 2701,2280 2697,2281 2693,2281 2689,2281 2686,2281 2683,2280 2680,2279 2676,2277 2673,2274 2673,2272 2671,2269 2670,2265 2669,2262 2669,2259 2667,2256 2666,2254 2664,2250 2663,2248 2662,2245 2661,2242 2660,2239 2659,2234 2660,2231 2661,2228 2662,2224 2662,2221 2663,2217 2664,2214 2664,2211 2665,2206 2667,2202 2669,2198 2671,2194 2673,2189 2676,2184 2680,2181 2682,2178 2685,2175 2689,2172 2692,2168 2697,2165 2700,2163 2703,2162 2705,2160 2708,2159 2712,2158 2716,2156 2719,2155 2724,2153 2729,2151 2732,2150 2736,2148 2739,2146 2743,2144 2747,2140 2749,2137 2750,2133 2752,2130 2752,2127 2752,2123 2752,2121 2752,2118 2752,2114 2752,2110 2752,2106 2752,2104 2752,2100 2752,2096 2751,2092 2751,2088 2751,2086 2751,2083 2750,2080 2749,2075 2749,2072 2748,2068 2747,2065 2747,2062 2746,2058 2745,2055 2745,2052 2747,2048 2748,2045 2750,2041 2752,2037 2754,2035 2755,2032 2758,2031 2763,2029 2768,2028 2773,2026 2776,2025 2778,2024 2782,2023 2785,2023 2788,2022 2793,2022 2797,2021 2798,2018 2798,2016 2798,2013 2800,2010 2803,2007 2806,2004 2808,2002 2810,2000 2813,1998 2816,1995 2819,1993 2822,1989 2825,1985 2826,1983 2827,1979 2825,1975 2820,1970 2816,1967 2813,1966 2811,1964 2806,1961 2803,1959 2801,1956 2799,1951 2797,1947 2796,1944 2794,1941 2791,1937 2789,1933 2787,1929 2785,1925 2784,1922 2783,1919 2783,1916 2783,1913 2784,1909 2786,1905 2787,1900 2789,1897 2790,1895 2791,1892 2791,1890 2792,1887 2794,1884 2794,1882 2791,1878 2788,1876 2785,1873 2782,1870 2779,1867 2776,1864 2775,1862 2772,1860 2769,1857 2766,1854 2764,1852 2762,1850 2761,1847 2763,1844 2764,1841 2766,1839 2769,1836 2773,1833 2776,1830 2779,1828 2782,1825 2785,1822 2789,1819 2792,1817 2793,1814 2794,1811 2794,1807 2795,1804 2795,1802 2796,1798 2797,1794 2800,1791 2804,1787 2806,1783 2809,1783 2814,1783 2817,1783 2820,1783 2823,1783 2826,1783 2830,1783 2834,1783 2838,1784 2842,1785 2845,1786 2849,1786 2853,1787 2856,1788 2858,1788 2862,1789 2866,1790 2869,1790 2872,1791 2876,1792 2880,1793 2882,1793 2886,1795 2889,1796 2893,1797 2897,1798 2900,1800 2904,1801 2906,1802 2910,1803 2914,1804 2917,1805 2922,1807 2925,1809 2929,1811 2932,1814 2936,1814 2939,1817 2942,1817 2946,1817 2951,1816 2955,1816 2959,1816 2963,1815 2967,1815 2970,1815 2973,1816 2977,1817 2980,1817 2983,1818 2987,1819 2991,1816 2995,1813 2997,1811 2999,1809 3003,1806 3006,1803 3009,1801 3011,1798 3015,1796 3018,1792 3022,1789 3026,1786 3028,1783 3031,1779 3034,1775 3035,1771 3037,1768 3039,1765 3040,1762 3039,1758 3039,1756 3038,1753 3038,1749 3037,1746 3037,1743 3039,1741 3040,1738 3042,1735 3044,1733 3045,1730 3046,1728 3048,1726 3049,1723 3050,1720 3052,1717 3055,1713 3056,1710 3058,1707 3059,1704 3061,1700 3062,1696 3064,1692 3066,1688 3067,1684 3065,1682 3061,1678 3056,1675 3053,1673 3050,1672 3046,1671 3044,1670 3041,1669 3038,1668 3035,1666 3033,1664 3031,1661 3028,1659 3027,1657 3025,1654 3022,1652 3020,1651 3017,1648 3014,1646 3011,1645 3007,1644 3004,1643 3001,1642 3001,1628 2989,1603 2972,1576 2978,1550 2985,1524 2981,1498 2990,1472 3007,1446 3029,1421 3042,1395 3039,1370 3064,1368 3090,1365 3098,1339 3108,1313 3112,1308 3115,1283 3128,1258 3155,1259 3180,1261 3205,1261 3231,1258 3258,1257 3233,1233 3230,1207 3252,1181 3265,1156 3291,1140 3312,1113 3328,1087 3343,1062 3348,1036 3320,1034 3293,1031 3265,1033 3238,1035 3210,1038 3185,1053 3158,1060 3132,1038 3115,1012 3119,987 3120,961 3119,935 3095,914 3072,889 3070,862 3097,865 3120,840 3140,814 3166,793 3192,791 3207,792 3210,787 3234,795 " class="polyStyle" id="320412" style="fill:#fbe6ef"/>
<polygon points="3601,38 3626,20 3653,14 3668,40 3683,66 3705,93 3732,92 3756,65 3780,68 3785,69 3782,86 3783,110 3797,139 3808,170 3818,198 3833,229 3844,244 3867,266 3885,278 3904,281 3949,279 3990,282 4008,281 4028,282 4059,288 4083,275 4103,269 4131,265 4156,265 4181,263 4207,261 4230,287 4251,307 4277,333 4297,358 4305,368 4380,446 4411,460 4369,531 4351,536 4344,541 4338,572 4339,583 4341,597 4337,613 4337,618 4343,631 4352,646 4357,652 4372,663 4387,676 4394,684 4412,700 4375,724 4328,741 4325,744 4322,748 4320,751 4317,754 4314,757 4312,761 4310,764 4308,765 4306,769 4306,773 4308,776 4310,779 4310,782 4311,786 4311,788 4310,791 4308,794 4306,798 4304,802 4302,806 4300,810 4299,812 4296,815 4294,819 4292,822 4290,825 4292,828 4294,829 4297,832 4300,835 4303,837 4305,841 4307,845 4308,848 4310,850 4312,852 4317,853 4321,852 4324,852 4328,851 4332,852 4343,871 4345,884 4363,886 4374,890 4368,897 4351,925 4341,944 4341,952 4341,970 4328,981 4325,986 4323,990 4320,995 4317,1000 4316,1003 4311,1004 4309,1005 4306,1006 4303,1007 4300,1008 4297,1009 4294,1010 4291,1011 4289,1013 4286,1014 4282,1015 4279,1017 4276,1018 4272,1019 4268,1020 4265,1021 4261,1021 4258,1022 4255,1023 4251,1025 4251,1028 4251,1030 4251,1034 4253,1038 4255,1041 4256,1044 4259,1046 4262,1048 4266,1051 4270,1054 4273,1057 4276,1058 4280,1061 4283,1064 4286,1066 4290,1069 4293,1073 4297,1076 4299,1079 4299,1083 4299,1086 4299,1090 4299,1093 4299,1097 4299,1100 4299,1103 4299,1106 4300,1110 4303,1109 4306,1108 4310,1107 4313,1106 4318,1104 4319,1107 4319,1111 4318,1114 4318,1118 4318,1121 4318,1124 4318,1128 4318,1131 4318,1136 4318,1140 4318,1145 4318,1149 4317,1152 4317,1156 4318,1159 4319,1162 4321,1165 4325,1168 4328,1168 4331,1172 4328,1174 4331,1180 4334,1183 4336,1185 4340,1193 4340,1196 4340,1200 4343,1203 4347,1204 4353,1205 4359,1208 4361,1215 4362,1221 4362,1231 4358,1236 4345,1248 4344,1252 4338,1252 4333,1252 4327,1253 4319,1254 4316,1254 4310,1255 4306,1256 4303,1256 4300,1257 4294,1259 4287,1259 4281,1259 4278,1260 4274,1261 4271,1261 4268,1262 4265,1263 4261,1266 4256,1268 4249,1273 4243,1276 4236,1281 4225,1292 4205,1314 4198,1314 4183,1309 4176,1301 4172,1281 4169,1279 4152,1276 4151,1271 4145,1261 4129,1254 4122,1253 4108,1256 4089,1253 4080,1251 4072,1248 4068,1249 4061,1251 4056,1252 4052,1253 4052,1256 4053,1260 4054,1264 4054,1269 4054,1274 4053,1277 4049,1276 4041,1273 4039,1276 4037,1283 4018,1277 4011,1274 4004,1272 3997,1269 3991,1267 3977,1262 3969,1259 3962,1257 3954,1254 3947,1252 3941,1249 3933,1247 3927,1245 3921,1240 3922,1234 3925,1228 3927,1222 3927,1216 3928,1210 3930,1202 3930,1195 3933,1189 3935,1181 3932,1174 3929,1168 3923,1166 3917,1166 3909,1162 3900,1152 3889,1143 3878,1140 3871,1141 3864,1140 3857,1136 3854,1129 3858,1122 3856,1114 3847,1101 3845,1089 3840,1083 3831,1079 3817,1076 3804,1080 3792,1080 3766,1077 3760,1073 3756,1057 3740,1056 3737,1057 3731,1067 3714,1094 3693,1125 3687,1135 3677,1152 3660,1182 3569,1129 3541,1115 3553,1100 3558,1084 3586,1005 3579,986 3564,972 3552,970 3546,963 3544,950 3546,939 3538,928 3483,915 3476,907 3409,902 3408,897 3398,896 3387,891 3371,897 3356,910 3342,910 3331,903 3325,896 3322,887 3319,876 3313,875 3296,893 3278,885 3271,877 3279,861 3282,848 3275,821 3267,810 3255,807 3246,803 3234,795 3210,787 3211,785 3206,778 3203,766 3202,759 3210,742 3209,738 3211,733 3212,713 3226,689 3246,675 3247,663 3224,640 3213,625 3195,589 3185,575 3169,570 3142,562 3138,554 3141,537 3149,512 3157,486 3164,460 3172,435 3180,410 3187,385 3189,377 3178,367 3178,358 3182,340 3191,333 3196,308 3204,292 3199,286 3202,260 3222,239 3215,234 3189,228 3190,220 3203,195 3214,169 3229,143 3245,117 3260,90 3274,64 3292,39 3318,18 3344,20 3369,22 3395,19 3420,26 3446,38 3474,33 3499,25 3522,0 3549,0 3576,14 " class="polyStyle" id="320411" style="fill:#ee8b94"/>
<path d="" class="polyStyle" id="411502" style="fill:#ee8b94"/>
<path d="" class="polyStyle" id="320302" style="fill:#d4ecb2"/>
<path d="" class="polyStyle" id="140311" style="fill:#ee8b94"/>
<path d="" class="polyStyle" id="610802" style="fill:#ee8b94"/>
<path d="" class="polyStyle" id="120116" style="fill:#f6f67b"/>
<path d="" class="polyStyle" id="130303" style="fill:#fbe6ef"/>
<path d="" class="polyStyle" id="140211" style="fill:#f6f67b"/>
<path d="" class="polyStyle" id="150207" style="fill:#fbe6ef"/>
<path d="" class="polyStyle" id="211403" style="fill:#f6f67b"/>
<path d="" class="polyStyle" id="150802" style="fill:#f8c67d"/>
<path d="" class="polyStyle" id="210112" style="fill:#ee8b94"/>
<path d="" class="polyStyle" id="230406" style="fill:#d4ecb2"/>
<path d="" class="polyStyle" id="110113" style="fill:#fbe6ef"/>
<path d="" class="polyStyle" id="341702" style="fill:#fbe6ef"/>
<path d="" class="polyStyle" id="420303" style="fill:#ee8b94"/>
<path d="" class="polyStyle" id="340702" style="fill:#d4ecb2"/>
<path d="" class="polyStyle" id="421002" style="fill:#f6f67b"/>
<path d="" class="polyStyle" id="420117" style="fill:#f6f67b"/>
<path d="" class="polyStyle" id="440904" style="fill:#f8c67d"/>
<path d="" class="polyStyle" id="460205" style="fill:#ee8b94"/>
<path d="" class="polyStyle" id="460202" style="fill:#f6f67b"/>
<path d="" class="polyStyle" id="460203" style="fill:#fbe6ef"/>
<path d="" class="polyStyle" id="420304" style="fill:#f6f67b"/>
<path d="" class="polyStyle" id="445302" style="fill:#ee8b94"/>
<path d="" class="polyStyle" id="410202" style="fill:#d4ecb2"/>
<path d="" class="polyStyle" id="440800" style="fill:#f6f67b"/>
<path d="" class="polyStyle" id="440900" style="fill:#ee8b94"/>
<path d="" class="polyStyle" id="340800" style="fill:#ee8b94"/>
<path d="" class="polyStyle" id="460200" style="fill:#f6f67b"/>
<path d="" class="polyStyle" id="460000" style="fill:#ee8b94"/>
<path d="" class="polyStyle" id="450500" style="fill:#ee8b94"/>
<path d="" class="polyStyle" id="450600" style="fill:#ee8b94"/>
<path d="" class="polyStyle" id="440400" style="fill:#f6f67b"/>
<path d="" class="polyStyle" id="441700" style="fill:#f6f67b"/>
<path d="" class="polyStyle" id="441500" style="fill:#f6f67b"/>
<path d="" class="polyStyle" id="350600" style="fill:#ee8b94"/>
<path d="" class="polyStyle" id="710000" style="fill:#f6f67b"/>
<path d="" class="polyStyle" id="510400" style="fill:#f6f67b"/>
<path d="" class="polyStyle" id="522600" style="fill:#fbe6ef"/>
<path d="" class="polyStyle" id="520500" style="fill:#ee8b94"/>
<path d="" class="polyStyle" id="431200" style="fill:#f6f67b"/>
<path d="" class="polyStyle" id="430600" style="fill:#f6f67b"/>
<path d="" class="polyStyle" id="511400" style="fill:#d4ecb2"/>
<path d="" class="polyStyle" id="421000" style="fill:#ee8b94"/>
<path d="" class="polyStyle" id="341700" style="fill:#f6f67b"/>
<path d="" class="polyStyle" id="420500" style="fill:#f6f67b"/>
<path d="" class="polyStyle" id="511300" style="fill:#f6f67b"/>
<path d="" class="polyStyle" id="420900" style="fill:#f6f67b"/>
<path d="" class="polyStyle" id="511700" style="fill:#ee8b94"/>
<path d="" class="polyStyle" id="420600" style="fill:#d4ecb2"/>
<path d="" class="polyStyle" id="411500" style="fill:#fbe6ef"/>
<path d="" class="polyStyle" id="510800" style="fill:#ee8b94"/>
<path d="" class="polyStyle" id="420300" style="fill:#fbe6ef"/>
<path d="" class="polyStyle" id="611000" style="fill:#ee8b94"/>
<path d="" class="polyStyle" id="620800" style="fill:#fbe6ef"/>
<path d="" class="polyStyle" id="370200" style="fill:#ee8b94"/>
<path d="" class="polyStyle" id="371000" style="fill:#f6f67b"/>
<path d="" class="polyStyle" id="370600" style="fill:#fbe6ef"/>
<path d="" class="polyStyle" id="120000" style="fill:#f6f67b"/>
<path d="" class="polyStyle" id="130200" style="fill:#ee8b94"/>
<path d="" class="polyStyle" id="130300" style="fill:#f6f67b"/>
<path d="" class="polyStyle" id="652900" style="fill:#fbe6ef"/>
<path d="" class="polyStyle" id="150500" style="fill:#d4ecb2"/>
<path d="" class="polyStyle" id="" style="fill:#d4ecb2"/>
<path d="" class="polyStyle" id="350500" style="fill:#fbe6ef"/>
<path d="" class="polyStyle" id="440400" style="fill:#f6f67b"/>
<path d="" class="polyStyle" id="421100" style="fill:#d4ecb2"/>
<path d="" class="polyStyle" id="420100" style="fill:#fbe6ef"/>
<path d="" class="polyStyle" id="532500" style="fill:#fbe6ef"/>
<path d="" class="polyStyle" id="654200" style="fill:#fbe6ef"/>
<path d="" class="polyStyle" id="210700" style="fill:#d4ecb2"/>
<path d="" class="polyStyle" id="522300" style="fill:#fbe6ef"/>
<path d="" class="polyStyle" id="" style="fill:#ee8b94"/>
<path d="" class="polyStyle" id="440400" style="fill:#f6f67b"/>
<path d="" class="polyStyle" id="620000" style="fill:#f6f67b"/>
<path d="" class="polyStyle" id="430000" style="fill:#fbe6ef"/>
<path d="" class="polyStyle" id="420000" style="fill:#ee8b94"/>
<path d="" class="polyStyle" id="410000" style="fill:#f6f67b"/>
<path d="" class="polyStyle" id="350000" style="fill:#fbe6ef"/>
<path d="" class="polyStyle" id="520000" style="fill:#f6f67b"/>
<path d="" class="polyStyle" id="" style="fill:#ee8b94"/>
</svg>
