<?xml version="1.0" encoding="UTF-8"?>
<!DOCTYPE svg PUBLIC "-//W3C//DTD SVG 1.1 Tiny//EN" "http://www.w3.org/Graphics/SVG/1.1/DTD/svg11-tiny.dtd">
<svg version="1.1" xmlns="http://www.w3.org/2000/svg" xmlns:xlink="http://www.w3.org/1999/xlink" width="100%" height="100%" viewBox="0,0,6968,5727">
<title>SVG</title>
<desc>Poligon Test</desc>
<style id="style_css_sheet" type="text/css">
.polyStyle{fill: #cccccc;stroke-width:0;fill-rule:evenodd;}
</style>
<circle cx="4647" cy="5173" r="200" stroke="black" stroke-width="1" fill="red" id="320724" name="灌南县"/>
<circle cx="4233" cy="4191" r="200" stroke="black" stroke-width="1" fill="red" id="320723" name="灌云县"/>
<circle cx="1860" cy="2995" r="200" stroke="black" stroke-width="1" fill="red" id="320722" name="东海县"/>
<circle cx="3839" cy="2605" r="200" stroke="black" stroke-width="1" fill="red" id="320706" name="海州区"/>
<circle cx="4786" cy="1927" r="200" stroke="black" stroke-width="1" fill="red" id="320703" name="连云区"/>
<circle cx="3582" cy="1424" r="200" stroke="black" stroke-width="1" fill="red" id="320707" name="赣榆区"/>
<path d="" class="polyStyle" id="" style="fill:#ee8b94"/>
<path d="" class="polyStyle" id="623022" style="fill:#fbe6ef"/>
<path d="" class="polyStyle" id="211421" style="fill:#f6f67b"/>
<path d="" class="polyStyle" id="532524" style="fill:#ee8b94"/>
<path d="" class="polyStyle" id="440825" style="fill:#f6f67b"/>
<path d="" class="polyStyle" id="441721" style="fill:#f6f67b"/>
<path d="" class="polyStyle" id="450521" style="fill:#f6f67b"/>
<path d="" class="polyStyle" id="450123" style="fill:#fbe6ef"/>
<path d="" class="polyStyle" id="350624" style="fill:#f6f67b"/>
<path d="" class="polyStyle" id="" style="fill:#fbe6ef"/>
<path d="" class="polyStyle" id="451224" style="fill:#fbe6ef"/>
<path d="" class="polyStyle" id="350627" style="fill:#f6f67b"/>
<path d="" class="polyStyle" id="" style="fill:#f6f67b"/>
<path d="" class="polyStyle" id="350525" style="fill:#f6f67b"/>
<path d="" class="polyStyle" id="530124" style="fill:#ee8b94"/>
<path d="" class="polyStyle" id="522627" style="fill:#ee8b94"/>
<path d="" class="polyStyle" id="510421" style="fill:#fbe6ef"/>
<path d="" class="polyStyle" id="522623" style="fill:#d4ecb2"/>
<path d="" class="polyStyle" id="430321" style="fill:#d4ecb2"/>
<path d="" class="polyStyle" id="511129" style="fill:#d4ecb2"/>
<path d="" class="polyStyle" id="511423" style="fill:#ee8b94"/>
<path d="" class="polyStyle" id="421023" style="fill:#f6f67b"/>
<path d="" class="polyStyle" id="511724" style="fill:#f6f67b"/>
<path d="" class="polyStyle" id="420526" style="fill:#fbe6ef"/>
<path d="" class="polyStyle" id="511923" style="fill:#fbe6ef"/>
<path d="" class="polyStyle" id="420325" style="fill:#fbe6ef"/>
<path d="" class="polyStyle" id="511921" style="fill:#f6f67b"/>
<path d="" class="polyStyle" id="542525" style="fill:#f6f67b"/>
<path d="" class="polyStyle" id="611026" style="fill:#ee8b94"/>
<path d="" class="polyStyle" id="411023" style="fill:#fbe6ef"/>
<polygon points="6941,3416 6947,3441 6947,3467 6940,3493 6926,3520 6907,3547 6900,3558 6893,3584 6896,3611 6914,3636 6939,3663 6959,3689 6968,3714 6959,3740 6932,3753 6905,3764 6879,3773 6853,3797 6841,3822 6830,3848 6804,3862 6777,3872 6750,3880 6725,3898 6722,3925 6728,3952 6731,3961 6733,3986 6707,4008 6682,4019 6669,4045 6662,4071 6639,4097 6614,4107 6588,4117 6562,4140 6542,4167 6517,4186 6490,4205 6464,4223 6439,4237 6413,4252 6388,4269 6362,4287 6337,4306 6310,4325 6282,4344 6256,4357 6229,4368 6202,4376 6177,4383 6149,4393 6123,4407 6096,4424 6069,4441 6043,4458 6017,4475 5991,4489 5965,4499 5939,4511 5913,4527 5886,4549 5861,4571 5835,4583 5810,4591 5784,4600 5758,4603 5738,4599 5713,4598 5687,4622 5660,4647 5635,4672 5610,4693 5584,4707 5559,4723 5533,4737 5508,4750 5482,4764 5485,4789 5498,4814 5523,4826 5549,4816 5575,4805 5601,4798 5607,4824 5611,4840 5611,4851 5610,4876 5611,4884 5620,4902 5593,4914 5593,4940 5566,4954 5580,4980 5594,5005 5609,5031 5623,5056 5646,5083 5673,5070 5698,5057 5723,5067 5736,5093 5758,5118 5784,5108 5810,5105 5836,5129 5861,5146 5864,5148 5890,5167 5881,5192 5884,5218 5876,5244 5853,5270 5828,5280 5802,5278 5776,5282 5751,5304 5725,5329 5740,5355 5756,5382 5771,5408 5786,5434 5801,5461 5798,5487 5809,5512 5805,5537 5801,5547 5796,5563 5770,5576 5752,5551 5727,5536 5701,5539 5675,5544 5649,5537 5648,5511 5642,5485 5615,5470 5589,5465 5564,5466 5549,5492 5524,5514 5502,5541 5477,5551 5451,5555 5425,5571 5404,5586 5378,5601 5352,5617 5324,5634 5317,5635 5291,5652 5264,5667 5238,5682 5211,5697 5186,5712 5159,5727 5134,5705 5109,5704 5098,5679 5093,5653 5092,5635 5066,5611 5041,5613 5014,5616 4989,5614 4970,5589 4974,5580 4987,5568 4987,5562 4985,5558 4980,5553 4979,5547 4981,5543 4981,5537 4979,5526 4973,5520 4954,5512 4948,5507 4939,5487 4928,5461 4902,5443 4877,5444 4853,5469 4828,5472 4802,5466 4776,5467 4750,5470 4723,5474 4698,5476 4673,5479 4647,5481 4638,5481 4606,5494 4579,5502 4553,5491 4547,5465 4520,5462 4495,5460 4469,5451 4461,5426 4436,5422 4410,5421 4383,5418 4357,5417 4331,5421 4303,5418 4303,5433 4293,5458 4268,5459 4241,5459 4215,5460 4190,5455 4165,5452 4140,5450 4136,5425 4112,5399 4096,5373 4069,5357 4044,5353 4018,5351 3993,5340 3968,5313 3944,5287 3919,5262 3902,5235 3892,5210 3880,5191 3854,5167 3829,5164 3825,5158 3810,5133 3785,5107 3798,5081 3823,5056 3824,5029 3805,5003 3784,4977 3773,4973 3746,4965 3721,4955 3696,4935 3671,4957 3644,4942 3618,4920 3623,4895 3648,4877 3672,4851 3665,4826 3667,4800 3678,4773 3663,4747 3637,4734 3637,4708 3626,4683 3625,4657 3651,4651 3677,4647 3702,4644 3727,4644 3754,4642 3780,4641 3806,4636 3834,4630 3859,4625 3885,4626 3911,4627 3937,4623 3962,4618 3990,4614 4015,4612 4041,4610 4068,4609 4094,4608 4120,4605 4147,4600 4173,4593 4200,4585 4226,4577 4251,4566 4271,4559 4296,4551 4322,4545 4348,4538 4376,4531 4401,4524 4427,4517 4453,4509 4479,4504 4504,4500 4530,4502 4557,4506 4582,4505 4607,4502 4634,4499 4659,4495 4684,4491 4710,4486 4736,4482 4761,4479 4787,4474 4812,4469 4838,4465 4864,4467 4891,4474 4918,4477 4946,4476 4971,4472 4998,4467 5023,4465 5050,4461 5077,4446 5104,4438 5129,4435 5156,4431 5184,4428 5210,4430 5235,4434 5262,4437 5288,4435 5313,4431 5319,4406 5321,4380 5346,4367 5372,4359 5398,4350 5425,4339 5452,4325 5470,4305 5486,4280 5513,4275 5538,4267 5564,4259 5589,4246 5614,4226 5634,4200 5660,4185 5686,4171 5713,4153 5739,4143 5766,4139 5781,4114 5805,4088 5831,4071 5858,4058 5884,4046 5910,4036 5936,4011 5945,4007 5971,3997 5996,3985 6021,3967 6047,3955 6073,3947 6100,3938 6126,3934 6143,3908 6142,3883 6169,3871 6194,3876 6220,3868 6246,3850 6272,3834 6269,3808 6295,3785 6321,3776 6348,3777 6375,3779 6402,3781 6411,3783 6436,3787 6462,3780 6487,3763 6513,3745 6538,3726 6565,3707 6592,3716 6619,3703 6644,3684 6669,3665 6694,3646 6719,3627 6744,3608 6769,3589 6794,3570 6820,3585 6834,3600 6845,3609 6855,3605 6860,3597 6867,3586 6867,3579 6861,3569 6836,3545 6815,3518 6817,3493 6831,3468 6858,3449 6884,3431 6910,3409 6936,3392 6938,3395 " class="polyStyle" id="320724" style="fill:#fbe6ef"/>
<polygon points="5095,2459 5115,2473 5137,2502 5187,2568 5187,2585 5187,2589 5175,2620 5171,2642 5172,2645 5173,2651 5195,2684 5208,2696 5214,2703 5252,2735 5303,2778 5315,2788 5357,2820 5400,2840 5472,2864 5508,2873 5548,2878 5574,2886 5586,2893 5604,2911 5616,2928 5630,2959 5632,2964 5641,2985 5615,2991 5548,2995 5524,2998 5516,2999 5521,3056 5551,3056 5569,3055 5576,3079 5584,3102 5600,3120 5616,3129 5636,3136 5652,3146 5662,3153 5688,3166 5706,3183 5718,3187 5795,3178 5817,3179 5889,3188 5913,3188 5936,3182 5970,3161 5989,3157 5995,3158 6002,3162 6019,3179 6029,3185 6038,3185 6050,3179 6060,3156 6070,3137 6071,3144 6086,3133 6155,3096 6162,3092 6175,3093 6182,3082 6198,3063 6212,3052 6235,3039 6246,3036 6299,3032 6341,3031 6363,3031 6374,3025 6420,3012 6447,2996 6464,2987 6485,2987 6557,3001 6560,3003 6564,3001 6568,3003 6582,3005 6598,3031 6610,3033 6692,3065 6710,3053 6720,3051 6736,3053 6775,3073 6776,3080 6787,3085 6797,3087 6801,3097 6806,3101 6814,3101 6831,3100 6838,3100 6843,3106 6849,3117 6867,3122 6884,3123 6889,3129 6890,3145 6894,3149 6905,3143 6914,3142 6917,3145 6917,3152 6912,3159 6912,3166 6915,3169 6924,3165 6932,3166 6937,3173 6938,3177 6935,3190 6932,3194 6923,3197 6895,3198 6888,3202 6887,3207 6881,3214 6907,3232 6914,3238 6913,3245 6925,3263 6908,3289 6908,3316 6914,3342 6924,3368 6936,3392 6910,3409 6884,3431 6858,3449 6831,3468 6817,3493 6815,3518 6836,3545 6861,3569 6867,3579 6867,3586 6860,3597 6855,3605 6845,3609 6834,3600 6820,3585 6794,3570 6769,3589 6744,3608 6719,3627 6694,3646 6669,3665 6644,3684 6619,3703 6592,3716 6565,3707 6538,3726 6513,3745 6487,3763 6462,3780 6436,3787 6411,3783 6402,3781 6375,3779 6348,3777 6321,3776 6295,3785 6269,3808 6272,3834 6246,3850 6220,3868 6194,3876 6169,3871 6142,3883 6143,3908 6126,3934 6100,3938 6073,3947 6047,3955 6021,3967 5996,3985 5971,3997 5945,4007 5936,4011 5910,4036 5884,4046 5858,4058 5831,4071 5805,4088 5781,4114 5766,4139 5739,4143 5713,4153 5686,4171 5660,4185 5634,4200 5614,4226 5589,4246 5564,4259 5538,4267 5513,4275 5486,4280 5470,4305 5452,4325 5425,4339 5398,4350 5372,4359 5346,4367 5321,4380 5319,4406 5313,4431 5288,4435 5262,4437 5235,4434 5210,4430 5184,4428 5156,4431 5129,4435 5104,4438 5077,4446 5050,4461 5023,4465 4998,4467 4971,4472 4946,4476 4918,4477 4891,4474 4864,4467 4838,4465 4812,4469 4787,4474 4761,4479 4736,4482 4710,4486 4684,4491 4659,4495 4634,4499 4607,4502 4582,4505 4557,4506 4530,4502 4504,4500 4479,4504 4453,4509 4427,4517 4401,4524 4376,4531 4348,4538 4322,4545 4296,4551 4271,4559 4251,4566 4226,4577 4200,4585 4173,4593 4147,4600 4120,4605 4094,4608 4068,4609 4041,4610 4015,4612 3990,4614 3962,4618 3937,4623 3911,4627 3885,4626 3859,4625 3834,4630 3806,4636 3780,4641 3754,4642 3727,4644 3702,4644 3677,4647 3651,4651 3625,4657 3625,4655 3625,4628 3605,4603 3580,4602 3554,4601 3528,4599 3504,4607 3468,4607 3431,4601 3444,4558 3439,4532 3436,4505 3438,4480 3428,4454 3411,4448 3409,4422 3403,4392 3410,4370 3411,4344 3403,4318 3376,4315 3351,4312 3328,4296 3309,4291 3304,4284 3307,4259 3314,4233 3317,4209 3320,4190 3307,4169 3304,4150 3313,4139 3328,4131 3335,4117 3357,4115 3362,4102 3366,4076 3360,4050 3337,4025 3325,3998 3318,3974 3322,3948 3315,3922 3289,3930 3262,3929 3255,3902 3248,3877 3238,3851 3235,3826 3233,3799 3230,3772 3230,3746 3234,3720 3243,3694 3255,3667 3268,3642 3269,3617 3264,3591 3267,3583 3273,3580 3292,3576 3320,3573 3354,3576 3383,3573 3394,3561 3398,3533 3394,3522 3364,3521 3325,3521 3262,3519 3256,3519 3256,3488 3263,3462 3273,3436 3300,3431 3326,3433 3347,3423 3353,3421 3361,3416 3388,3403 3415,3394 3440,3397 3466,3403 3492,3411 3517,3420 3524,3428 3536,3443 3541,3465 3552,3482 3565,3483 3581,3479 3600,3481 3628,3485 3659,3490 3677,3488 3727,3482 3766,3479 3764,3469 3763,3456 3773,3446 3789,3446 3815,3448 3842,3451 3867,3453 3893,3456 3919,3452 3928,3444 3950,3418 3974,3393 3980,3393 3991,3383 3997,3387 4001,3391 4007,3397 4026,3397 4034,3392 4035,3385 4034,3377 4031,3366 4032,3358 4037,3354 4043,3347 4080,3336 4159,3325 4156,3299 4139,3290 4135,3267 4137,3256 4156,3251 4214,3278 4200,3299 4202,3309 4209,3320 4238,3317 4360,3310 4568,3297 4732,3287 4837,3286 4969,3286 4929,3250 4911,3245 4903,3242 4883,3237 4809,3222 4726,3204 4723,3200 4719,3189 4724,3146 4717,3134 4699,3121 4612,3096 4552,3071 4505,3041 4434,2977 4447,2909 4463,2823 4464,2819 4473,2818 4501,2815 4533,2813 4556,2810 4594,2781 4656,2726 4680,2695 4689,2694 4701,2694 4721,2696 4736,2705 4745,2714 4750,2725 4759,2727 4768,2721 4784,2716 4789,2706 4773,2687 4773,2669 4766,2651 4745,2620 4755,2614 4837,2581 4841,2559 4868,2541 5020,2456 5061,2437 5063,2436 5068,2439 " class="polyStyle" id="320723" style="fill:#f6f67b"/>
<polygon points="1820,1708 1820,1734 1820,1760 1819,1785 1816,1812 1843,1815 1868,1809 1893,1804 1919,1800 1945,1797 1971,1794 1997,1791 2023,1786 2049,1785 2075,1782 2102,1784 2127,1785 2154,1787 2179,1786 2204,1786 2230,1794 2253,1800 2279,1807 2304,1813 2330,1826 2355,1843 2378,1868 2399,1894 2421,1919 2445,1946 2465,1971 2490,1989 2516,2003 2542,2016 2567,2028 2594,2041 2620,2059 2645,2079 2672,2097 2697,2115 2723,2135 2744,2150 2770,2162 2798,2170 2823,2178 2848,2184 2874,2186 2899,2181 2927,2171 2947,2164 2969,2203 3016,2205 3018,2368 3052,2376 3052,2426 3080,2443 3074,2514 2981,2492 2964,2563 2930,2565 2904,2657 2936,2662 2936,2684 2908,2708 2883,2780 2855,2783 2825,2851 2835,2912 2863,2932 2867,3026 2858,3098 2910,3120 3003,3118 3069,3112 3109,3097 3135,3068 3148,3014 3180,2993 3212,2983 3223,2915 3259,2872 3295,2866 3316,2864 3309,2717 3464,2697 3521,2695 3521,2698 3534,2706 3557,2717 3559,2729 3553,2736 3539,2739 3526,2741 3520,2748 3499,2745 3477,2743 3469,2746 3467,2757 3478,2761 3490,2761 3502,2760 3529,2762 3552,2763 3541,2787 3527,2813 3515,2839 3520,2865 3528,2891 3532,2917 3510,2933 3486,2944 3460,2955 3465,2964 3463,2979 3454,2990 3444,2998 3437,3003 3438,3015 3447,3018 3470,3024 3479,3024 3481,3032 3484,3048 3486,3060 3485,3086 3483,3112 3481,3138 3479,3164 3477,3190 3475,3215 3456,3241 3454,3268 3460,3294 3463,3319 3458,3332 3452,3343 3437,3346 3410,3346 3384,3340 3360,3337 3352,3364 3349,3390 3347,3423 3326,3433 3300,3431 3273,3436 3263,3462 3256,3488 3256,3519 3237,3521 3212,3525 3186,3522 3160,3522 3150,3547 3148,3573 3147,3599 3125,3626 3083,3626 3056,3627 3033,3613 3023,3599 3014,3605 2988,3608 2961,3608 2934,3609 2926,3635 2903,3652 2921,3661 2921,3687 2906,3697 2880,3718 2863,3729 2856,3743 2842,3768 2816,3793 2802,3807 2785,3822 2766,3846 2770,3860 2767,3879 2748,3890 2713,3884 2708,3878 2713,3870 2726,3813 2725,3799 2705,3773 2681,3747 2655,3741 2630,3762 2603,3774 2578,3778 2551,3782 2524,3784 2499,3786 2473,3788 2446,3790 2426,3791 2400,3793 2374,3794 2349,3793 2322,3795 2297,3799 2270,3800 2243,3797 2217,3793 2191,3788 2165,3786 2138,3787 2112,3798 2086,3816 2059,3832 2032,3832 2011,3857 2006,3882 2007,3909 2000,3934 1974,3950 1957,3976 1941,4000 1918,4026 1899,4051 1873,4073 1847,4074 1820,4083 1795,4086 1768,4077 1746,4051 1754,4026 1728,4004 1701,3982 1676,3991 1650,4005 1625,4007 1603,3981 1575,3976 1549,3973 1524,3957 1499,3950 1493,3946 1471,3921 1445,3909 1418,3900 1391,3901 1365,3904 1338,3903 1342,3928 1316,3928 1290,3919 1264,3905 1239,3884 1214,3864 1188,3845 1177,3835 1174,3827 1173,3796 1177,3759 1180,3745 1185,3738 1197,3728 1203,3726 1224,3726 1245,3722 1252,3720 1271,3710 1315,3668 1325,3656 1327,3644 1327,3631 1323,3625 1309,3611 1301,3597 1300,3590 1301,3572 1311,3539 1308,3533 1287,3534 1245,3528 1239,3522 1235,3503 1230,3496 1199,3494 1200,3474 1196,3467 1184,3465 1188,3445 1188,3432 1182,3429 1169,3425 1149,3428 1124,3429 1089,3421 1058,3416 1004,3397 991,3395 978,3397 972,3400 944,3403 932,3413 921,3444 908,3451 904,3475 900,3488 888,3514 885,3528 881,3535 861,3540 847,3547 834,3546 827,3543 824,3536 822,3522 817,3515 810,3511 791,3505 778,3496 759,3487 752,3486 746,3483 738,3483 731,3481 719,3474 699,3466 661,3456 641,3452 617,3452 611,3449 593,3434 579,3429 545,3442 539,3443 490,3469 482,3475 476,3476 469,3480 445,3501 407,3527 403,3533 403,3545 400,3551 309,3590 290,3596 269,3597 263,3594 245,3580 237,3576 221,3572 206,3576 182,3579 154,3573 127,3565 121,3562 116,3549 102,3530 66,3515 60,3518 42,3534 36,3534 30,3528 29,3498 19,3473 9,3460 0,3456 5,3434 7,3420 23,3362 25,3354 25,3342 21,3316 19,3292 21,3272 33,3250 49,3234 61,3220 99,3150 103,3142 109,3134 122,3110 143,3062 145,3050 147,3024 147,3008 141,2998 133,2986 120,2969 115,2920 109,2848 107,2838 71,2812 65,2786 69,2766 71,2736 83,2712 83,2692 77,2662 67,2637 63,2602 67,2583 77,2574 97,2560 113,2544 115,2538 129,2514 140,2491 167,2514 173,2519 200,2535 220,2543 231,2545 246,2540 259,2523 269,2511 277,2502 297,2508 331,2516 343,2488 345,2468 319,2412 317,2408 305,2412 293,2416 279,2419 261,2353 257,2322 263,2298 271,2285 287,2268 298,2262 317,2252 328,2252 376,2286 386,2302 392,2310 400,2314 414,2318 428,2318 438,2318 448,2314 454,2306 462,2294 468,2278 472,2266 472,2258 474,2242 490,2190 502,2182 520,2182 542,2184 584,2192 592,2194 609,2203 632,2168 632,2163 610,2152 576,2128 578,2116 587,2071 588,2068 590,2064 594,2062 640,2054 666,2056 672,2040 688,2038 700,2050 694,2066 728,2072 740,2106 762,2074 812,2064 830,2064 880,2062 893,2059 902,2056 906,2052 908,2042 914,2038 922,2030 932,2030 940,2046 958,2058 962,2064 972,2064 972,2060 980,2060 984,2060 988,2078 998,2080 990,2091 984,2102 974,2124 974,2134 976,2146 978,2176 980,2184 996,2184 1032,2172 1052,2168 1094,2186 1098,2188 1108,2196 1122,2224 1126,2228 1133,2225 1154,2186 1192,2146 1216,2140 1246,2136 1301,2133 1308,2134 1314,2134 1322,2134 1334,2140 1340,2162 1340,2180 1340,2196 1344,2210 1350,2228 1358,2234 1366,2238 1392,2238 1410,2230 1422,2224 1452,2212 1468,2206 1478,2200 1488,2188 1500,2178 1522,2166 1542,2160 1576,2160 1602,2162 1616,2162 1642,2152 1676,2140 1692,2130 1704,2122 1716,2114 1734,2106 1764,2106 1774,2102 1768,2084 1768,2076 1802,2044 1814,2040 1834,2034 1838,2032 1848,2012 1848,2008 1844,1998 1834,1982 1820,1964 1818,1960 1776,1920 1772,1914 1764,1902 1759,1901 1744,1914 1734,1932 1726,1942 1716,1946 1668,1960 1659,1962 1640,1962 1636,1960 1624,1954 1606,1938 1602,1928 1604,1920 1606,1916 1612,1900 1608,1888 1596,1888 1588,1896 1570,1902 1548,1902 1538,1900 1528,1896 1520,1892 1512,1890 1506,1888 1506,1880 1534,1870 1536,1860 1530,1834 1530,1815 1536,1814 1568,1798 1593,1788 1609,1787 1623,1789 1638,1795 1645,1800 1664,1724 1658,1722 1646,1724 1634,1724 1618,1712 1612,1709 1596,1694 1610,1678 1634,1672 1672,1664 1677,1664 1694,1668 1720,1680 1738,1690 1742,1690 1750,1690 1770,1688 1784,1682 1802,1666 1816,1653 1821,1683 " class="polyStyle" id="320722" style="fill:#d4ecb2"/>
<path d="" class="polyStyle" id="632323" style="fill:#f6f67b"/>
<path d="" class="polyStyle" id="140525" style="fill:#d4ecb2"/>
<path d="" class="polyStyle" id="410922" style="fill:#ee8b94"/>
<path d="" class="polyStyle" id="621027" style="fill:#ee8b94"/>
<path d="" class="polyStyle" id="130427" style="fill:#f6f67b"/>
<path d="" class="polyStyle" id="130121" style="fill:#ee8b94"/>
<path d="" class="polyStyle" id="610823" style="fill:#fbe6ef"/>
<path d="" class="polyStyle" id="130225" style="fill:#fbe6ef"/>
<path d="" class="polyStyle" id="130322" style="fill:#d4ecb2"/>
<path d="" class="polyStyle" id="653130" style="fill:#f6f67b"/>
<path d="" class="polyStyle" id="130822" style="fill:#fbe6ef"/>
<path d="" class="polyStyle" id="211221" style="fill:#f6f67b"/>
<path d="" class="polyStyle" id="210921" style="fill:#f6f67b"/>
<path d="" class="polyStyle" id="150223" style="fill:#f8c67d"/>
<path d="" class="polyStyle" id="220422" style="fill:#d4ecb2"/>
<path d="" class="polyStyle" id="340721" style="fill:#f6f67b"/>
<path d="" class="polyStyle" id="510824" style="fill:#d4ecb2"/>
<path d="" class="polyStyle" id="610324" style="fill:#f6f67b"/>
<path d="" class="polyStyle" id="530722" style="fill:#ee8b94"/>
<path d="" class="polyStyle" id="340823" style="fill:#d4ecb2"/>
<path d="" class="polyStyle" id="620825" style="fill:#d4ecb2"/>
<path d="" class="polyStyle" id="421125" style="fill:#ee8b94"/>
<path d="" class="polyStyle" id="210281" style="fill:#ee8b94"/>
<path d="" class="polyStyle" id="440883" style="fill:#f6f67b"/>
<path d="" class="polyStyle" id="469006" style="fill:#d4ecb2"/>
<path d="" class="polyStyle" id="469002" style="fill:#ee8b94"/>
<path d="" class="polyStyle" id="469005" style="fill:#fbe6ef"/>
<path d="" class="polyStyle" id="440882" style="fill:#ee8b94"/>
<path d="" class="polyStyle" id="450681" style="fill:#ee8b94"/>
<path d="" class="polyStyle" id="441581" style="fill:#d4ecb2"/>
<path d="" class="polyStyle" id="421087" style="fill:#ee8b94"/>
<path d="" class="polyStyle" id="420984" style="fill:#fbe6ef"/>
<path d="" class="polyStyle" id="420582" style="fill:#ee8b94"/>
<path d="" class="polyStyle" id="370282" style="fill:#f6f67b"/>
<path d="" class="polyStyle" id="371083" style="fill:#f6f67b"/>
<path d="" class="polyStyle" id="371082" style="fill:#fbe6ef"/>
<path d="" class="polyStyle" id="652801" style="fill:#f8c67d"/>
<path d="" class="polyStyle" id="654301" style="fill:#ee8b94"/>
<path d="" class="polyStyle" id="370687" style="fill:#ee8b94"/>
<path d="" class="polyStyle" id="371482" style="fill:#d4ecb2"/>
<path d="" class="polyStyle" id="421081" style="fill:#fbe6ef"/>
<path d="" class="polyStyle" id="429006" style="fill:#f6f67b"/>
<path d="" class="polyStyle" id="440982" style="fill:#d4ecb2"/>
<path d="" class="polyStyle" id="421181" style="fill:#d4ecb2"/>
<path d="" class="polyStyle" id="321181" style="fill:#d4ecb2"/>
<path d="" class="polyStyle" id="659007" style="fill:#ee8b94"/>
<path d="" class="polyStyle" id="652701" style="fill:#fbe6ef"/>
<path d="" class="polyStyle" id="210781" style="fill:#fbe6ef"/>
<polygon points="4463,2823 4447,2909 4434,2977 4505,3041 4552,3071 4612,3096 4699,3121 4717,3134 4724,3146 4719,3189 4723,3200 4726,3204 4809,3222 4883,3237 4903,3242 4911,3245 4929,3250 4969,3286 4837,3286 4732,3287 4568,3297 4360,3310 4238,3317 4209,3320 4202,3309 4200,3299 4214,3278 4156,3251 4137,3256 4135,3267 4139,3290 4156,3299 4159,3325 4080,3336 4043,3347 4037,3354 4032,3358 4031,3366 4034,3377 4035,3385 4034,3392 4026,3397 4007,3397 4001,3391 3997,3387 3991,3383 3980,3393 3974,3393 3950,3418 3928,3444 3919,3452 3893,3456 3867,3453 3842,3451 3815,3448 3789,3446 3773,3446 3763,3456 3764,3469 3766,3479 3727,3482 3677,3488 3659,3490 3628,3485 3600,3481 3581,3479 3565,3483 3552,3482 3541,3465 3536,3443 3524,3428 3517,3420 3492,3411 3466,3403 3440,3397 3415,3394 3388,3403 3361,3416 3353,3421 3347,3423 3349,3390 3352,3364 3360,3337 3384,3340 3410,3346 3437,3346 3452,3343 3458,3332 3463,3319 3460,3294 3454,3268 3456,3241 3475,3215 3477,3190 3479,3164 3481,3138 3483,3112 3485,3086 3486,3060 3484,3048 3481,3032 3479,3024 3470,3024 3447,3018 3438,3015 3437,3003 3444,2998 3454,2990 3463,2979 3465,2964 3460,2955 3486,2944 3510,2933 3532,2917 3528,2891 3520,2865 3515,2839 3527,2813 3541,2787 3552,2763 3529,2762 3502,2760 3490,2761 3478,2761 3467,2757 3469,2746 3477,2743 3499,2745 3520,2748 3526,2741 3539,2739 3553,2736 3559,2729 3557,2717 3534,2706 3521,2698 3521,2695 3464,2697 3309,2717 3316,2864 3295,2866 3259,2872 3223,2915 3212,2983 3180,2993 3148,3014 3135,3068 3109,3097 3069,3112 3003,3118 2910,3120 2858,3098 2867,3026 2863,2932 2835,2912 2825,2851 2855,2783 2883,2780 2908,2708 2936,2684 2936,2662 2904,2657 2930,2565 2964,2563 2981,2492 3074,2514 3080,2443 3052,2426 3052,2376 3018,2368 3016,2205 2969,2203 2947,2164 2952,2163 2977,2154 3003,2145 3028,2139 3054,2136 3079,2135 3105,2139 3131,2148 3157,2157 3184,2166 3210,2177 3236,2203 3258,2229 3284,2246 3309,2255 3323,2258 3350,2262 3377,2262 3402,2260 3429,2257 3456,2254 3481,2249 3508,2242 3534,2235 3560,2226 3586,2217 3613,2215 3640,2215 3667,2217 3694,2219 3721,2221 3747,2222 3772,2220 3798,2216 3825,2213 3850,2217 3867,2226 3904,2256 3920,2274 3932,2296 3877,2316 3872,2321 3874,2330 3885,2337 3901,2348 3912,2358 3922,2375 3932,2379 3972,2382 3979,2378 3983,2355 4007,2348 4082,2315 4090,2316 4108,2330 4134,2308 4175,2274 4191,2275 4215,2284 4222,2288 4229,2281 4235,2283 4252,2289 4277,2298 4322,2326 4344,2342 4370,2351 4394,2353 4418,2366 4438,2383 4454,2381 4496,2371 4550,2367 4562,2359 4571,2341 4587,2307 4607,2322 4648,2350 4677,2358 4703,2360 4715,2365 4727,2360 4765,2339 4783,2330 4798,2340 4799,2345 4803,2352 4795,2359 4792,2371 4801,2377 4813,2384 4829,2403 4844,2423 4859,2436 4893,2414 4817,2337 4880,2297 4938,2349 4911,2367 4963,2427 5010,2408 5023,2411 5029,2413 5035,2415 5047,2424 5061,2437 5020,2456 4868,2541 4841,2559 4837,2581 4755,2614 4745,2620 4766,2651 4773,2669 4773,2687 4789,2706 4784,2716 4768,2721 4759,2727 4750,2725 4745,2714 4736,2705 4721,2696 4701,2694 4689,2694 4680,2695 4656,2726 4594,2781 4556,2810 4533,2813 4501,2815 4473,2818 4464,2819 " class="polyStyle" id="320706" style="fill:#ee8b94"/>
<path d="" class="polyStyle" id="460204" style="fill:#f6f67b"/>
<path d="" class="polyStyle" id="210211" style="fill:#f6f67b"/>
<path d="" class="polyStyle" id="450512" style="fill:#ee8b94"/>
<path d="" class="polyStyle" id="450602" style="fill:#fbe6ef"/>
<path d="" class="polyStyle" id="440404" style="fill:#ee8b94"/>
<path d="" class="polyStyle" id="440403" style="fill:#f6f67b"/>
<path d="" class="polyStyle" id="441502" style="fill:#f6f67b"/>
<path d="" class="polyStyle" id="431002" style="fill:#d4ecb2"/>
<path d="" class="polyStyle" id="500107" style="fill:#fbe6ef"/>
<path d="" class="polyStyle" id="430611" style="fill:#d4ecb2"/>
<path d="" class="polyStyle" id="511304" style="fill:#fbe6ef"/>
<path d="" class="polyStyle" id="340711" style="fill:#ee8b94"/>
<path d="" class="polyStyle" id="320118" style="fill:#f6f67b"/>
<path d="" class="polyStyle" id="510704" style="fill:#f6f67b"/>
<path d="" class="polyStyle" id="411502" style="fill:#ee8b94"/>
<path d="" class="polyStyle" id="320302" style="fill:#d4ecb2"/>
<polygon points="4107,1766 4115,1766 4122,1766 4126,1767 4131,1767 4136,1768 4142,1769 4146,1770 4151,1771 4156,1772 4162,1773 4167,1776 4173,1778 4178,1781 4184,1784 4189,1787 4194,1788 4198,1791 4204,1794 4210,1796 4215,1799 4218,1801 4222,1803 4226,1806 4229,1807 4234,1810 4257,1824 4287,1845 4349,1870 4393,1896 4436,1917 4437,1922 4434,1931 4435,1934 4439,1935 4455,1938 4477,1939 4557,1931 4609,1918 4625,1907 4634,1896 4639,1882 4643,1866 4642,1846 4617,1821 4617,1818 4625,1814 4623,1811 4624,1806 4629,1808 4640,1818 4646,1822 4652,1823 4666,1814 4699,1810 4706,1807 4717,1798 4727,1796 4734,1797 4757,1807 4784,1807 4805,1811 4815,1821 4805,1828 4803,1832 4804,1835 4814,1843 4831,1850 4836,1856 4835,1860 4830,1863 4816,1864 4814,1868 4820,1876 4849,1898 4902,1920 4922,1924 4955,1927 4984,1936 5016,1942 5029,1941 5038,1938 5046,1932 5052,1924 5058,1922 5074,1927 5092,1928 5146,1929 5183,1938 5188,1940 5200,1926 5205,1928 5197,1939 5216,1950 5229,1935 5237,1939 5227,1954 5238,1960 5253,1945 5263,1950 5251,1968 5266,1977 5283,1983 5320,1987 5335,1950 5386,1970 5358,2015 5345,2039 5345,2044 5347,2050 5361,2061 5382,2088 5383,2096 5377,2103 5376,2108 5383,2112 5386,2119 5385,2124 5380,2125 5380,2130 5379,2134 5373,2137 5350,2137 5321,2145 5309,2155 5301,2176 5304,2194 5273,2229 5235,2234 5230,2252 5223,2259 5215,2259 5219,2265 5226,2268 5232,2269 5235,2269 5238,2262 5246,2264 5255,2273 5260,2280 5259,2287 5270,2291 5314,2314 5369,2348 5386,2360 5463,2434 5468,2438 5767,2659 5825,2684 6167,2822 6182,2833 6193,2845 6202,2856 6204,2861 6206,2866 6208,2876 6208,2895 6203,2906 6196,2918 6202,2925 6205,2936 6192,2984 6192,2989 6199,2998 6174,3036 6157,3059 6147,3070 6115,3097 6110,3100 6089,3115 6074,3123 6068,3128 6070,3137 6060,3156 6050,3179 6038,3185 6029,3185 6019,3179 6002,3162 5995,3158 5989,3157 5970,3161 5936,3182 5913,3188 5889,3188 5817,3179 5795,3178 5718,3187 5706,3183 5688,3166 5662,3153 5652,3146 5636,3136 5616,3129 5600,3120 5584,3102 5576,3079 5569,3055 5551,3056 5521,3056 5516,2999 5524,2998 5548,2995 5615,2991 5641,2985 5632,2964 5630,2959 5616,2928 5604,2911 5586,2893 5574,2886 5548,2878 5508,2873 5472,2864 5400,2840 5357,2820 5315,2788 5303,2778 5252,2735 5214,2703 5208,2696 5195,2684 5173,2651 5172,2645 5171,2642 5175,2620 5187,2589 5187,2585 5187,2568 5137,2502 5115,2473 5095,2459 5068,2439 5063,2436 5061,2437 5047,2424 5035,2415 5029,2413 5023,2411 5010,2408 4963,2427 4911,2367 4938,2349 4880,2297 4817,2337 4893,2414 4859,2436 4844,2423 4829,2403 4813,2384 4801,2377 4792,2371 4795,2359 4803,2352 4799,2345 4798,2340 4783,2330 4765,2339 4727,2360 4715,2365 4703,2360 4677,2358 4648,2350 4607,2322 4587,2307 4571,2341 4562,2359 4550,2367 4496,2371 4454,2381 4438,2383 4418,2366 4394,2353 4370,2351 4344,2342 4322,2326 4277,2298 4252,2289 4235,2283 4229,2281 4222,2288 4215,2284 4191,2275 4175,2274 4134,2308 4108,2330 4090,2316 4082,2315 4007,2348 3983,2355 3979,2378 3972,2382 3932,2379 3922,2375 3912,2358 3901,2348 3885,2337 3874,2330 3872,2321 3877,2316 3932,2296 3920,2274 3904,2256 3867,2226 3883,2198 3909,2188 3935,2173 3948,2146 3961,2123 3975,2098 3992,2065 3992,2042 3967,2018 3954,2004 3955,1982 3955,1966 3962,1939 3971,1913 3982,1888 4005,1862 4030,1837 4042,1827 4056,1790 4070,1749 4075,1738 4097,1758 " class="polyStyle" id="320703" style="fill:#d4ecb2"/>
<path d="" class="polyStyle" id="140311" style="fill:#ee8b94"/>
<path d="" class="polyStyle" id="610802" style="fill:#ee8b94"/>
<path d="" class="polyStyle" id="120116" style="fill:#f6f67b"/>
<path d="" class="polyStyle" id="130303" style="fill:#fbe6ef"/>
<path d="" class="polyStyle" id="140211" style="fill:#f6f67b"/>
<path d="" class="polyStyle" id="150207" style="fill:#fbe6ef"/>
<path d="" class="polyStyle" id="211403" style="fill:#f6f67b"/>
<path d="" class="polyStyle" id="150802" style="fill:#f8c67d"/>
<path d="" class="polyStyle" id="210112" style="fill:#ee8b94"/>
<path d="" class="polyStyle" id="230406" style="fill:#d4ecb2"/>
<path d="" class="polyStyle" id="110113" style="fill:#fbe6ef"/>
<path d="" class="polyStyle" id="341702" style="fill:#fbe6ef"/>
<path d="" class="polyStyle" id="420303" style="fill:#ee8b94"/>
<path d="" class="polyStyle" id="340702" style="fill:#d4ecb2"/>
<path d="" class="polyStyle" id="421002" style="fill:#f6f67b"/>
<path d="" class="polyStyle" id="420117" style="fill:#f6f67b"/>
<polygon points="5355,1894 5314,1881 5299,1884 5291,1883 5284,1879 5270,1854 5258,1838 5250,1832 5243,1825 5235,1821 5218,1820 5204,1819 5198,1812 5195,1804 5187,1799 5183,1796 5182,1793 5182,1786 5190,1768 5190,1761 5185,1756 5185,1752 5191,1748 5203,1748 5205,1752 5212,1755 5217,1756 5222,1752 5229,1751 5232,1758 5235,1785 5238,1792 5243,1797 5287,1802 5313,1801 5339,1803 5342,1806 5341,1814 5344,1819 5352,1820 5368,1818 5390,1823 5420,1827 5426,1829 5453,1840 5460,1845 5462,1854 5461,1857 5455,1861 5431,1860 5422,1864 5404,1882 5389,1894 5384,1895 5379,1896 " class="polyStyle" id="320703" style="fill:#d4ecb2"/>
<path d="" class="polyStyle" id="440904" style="fill:#f8c67d"/>
<path d="" class="polyStyle" id="460205" style="fill:#ee8b94"/>
<path d="" class="polyStyle" id="460202" style="fill:#f6f67b"/>
<path d="" class="polyStyle" id="460203" style="fill:#fbe6ef"/>
<polygon points="4194,2 4198,4 4205,15 4215,22 4235,27 4240,30 4274,38 4287,48 4291,48 4296,50 4304,51 4318,55 4340,61 4355,59 4362,57 4384,58 4388,61 4392,61 4405,70 4412,78 4423,100 4425,106 4426,117 4425,126 4427,129 4433,135 4437,137 4446,139 4458,145 4460,164 4460,178 4460,180 4457,179 4454,179 4455,190 4454,205 4452,210 4443,210 4443,204 4441,200 4437,201 4433,211 4436,222 4437,230 4435,235 4395,249 4343,263 4338,262 4334,260 4329,262 4328,266 4274,285 4264,289 4270,320 4227,343 4205,351 4201,349 4191,329 4186,325 4181,325 4168,331 4167,338 4166,345 4152,350 4129,356 4114,351 4107,353 4106,356 4118,369 4118,373 4087,431 4084,435 4063,433 4058,434 4053,446 4041,482 4041,486 4030,515 4027,543 4017,575 4015,578 4009,593 4005,600 4001,628 3999,635 4000,645 3999,657 3985,731 3980,772 3977,792 3970,851 3967,896 3972,950 3974,965 3982,1001 3983,1031 3972,1068 3975,1075 3975,1082 3953,1143 3932,1177 3919,1191 3901,1207 3896,1212 3894,1220 3892,1257 3896,1259 3890,1309 3889,1316 3888,1331 3881,1380 3894,1380 3904,1406 3904,1411 3888,1412 3908,1465 3926,1464 3932,1468 3936,1486 3924,1497 3933,1504 4034,1666 4035,1679 4040,1683 4050,1702 4054,1715 4053,1721 4060,1726 4073,1737 4075,1738 4070,1749 4056,1790 4042,1827 4030,1837 4005,1862 3982,1888 3971,1913 3962,1939 3955,1966 3955,1982 3954,2004 3967,2018 3992,2042 3992,2065 3975,2098 3961,2123 3948,2146 3935,2173 3909,2188 3883,2198 3867,2226 3850,2217 3825,2213 3798,2216 3772,2220 3747,2222 3721,2221 3694,2219 3667,2217 3640,2215 3613,2215 3586,2217 3560,2226 3534,2235 3508,2242 3481,2249 3456,2254 3429,2257 3402,2260 3377,2262 3350,2262 3323,2258 3309,2255 3284,2246 3258,2229 3236,2203 3210,2177 3184,2166 3157,2157 3131,2148 3105,2139 3079,2135 3054,2136 3028,2139 3003,2145 2977,2154 2952,2163 2947,2164 2927,2171 2899,2181 2874,2186 2848,2184 2823,2178 2798,2170 2770,2162 2744,2150 2723,2135 2697,2115 2672,2097 2645,2079 2620,2059 2594,2041 2567,2028 2542,2016 2516,2003 2490,1989 2465,1971 2445,1946 2421,1919 2399,1894 2378,1868 2355,1843 2330,1826 2304,1813 2279,1807 2253,1800 2230,1794 2204,1786 2179,1786 2154,1787 2127,1785 2102,1784 2075,1782 2049,1785 2023,1786 1997,1791 1971,1794 1945,1797 1919,1800 1893,1804 1868,1809 1843,1815 1816,1812 1819,1785 1820,1760 1820,1734 1820,1708 1821,1683 1816,1653 1824,1646 1828,1634 1824,1596 1832,1572 1842,1528 1858,1518 1876,1516 1888,1492 1886,1476 1876,1468 1868,1464 1858,1458 1854,1458 1842,1464 1828,1480 1812,1484 1784,1486 1778,1480 1768,1464 1800,1456 1806,1430 1805,1424 1800,1420 1762,1424 1760,1420 1776,1402 1778,1386 1782,1378 1786,1374 1818,1396 1826,1400 1834,1402 1842,1404 1856,1410 1888,1414 1862,1376 1868,1358 1874,1348 1882,1336 1908,1388 1924,1414 1946,1416 1968,1406 1980,1398 1986,1386 1988,1380 1992,1362 1988,1360 1976,1358 1966,1356 1962,1354 1960,1350 1958,1332 1972,1332 1986,1308 2002,1284 1992,1278 1976,1276 1966,1272 1958,1264 1958,1250 1962,1242 1968,1232 1984,1204 1994,1196 2004,1190 2032,1190 2040,1182 2040,1168 2040,1160 2038,1152 2042,1132 2052,1116 2068,1094 2102,1060 2106,1058 2162,1008 2168,1006 2182,994 2214,972 2218,980 2208,1002 2228,1004 2248,1004 2258,1004 2262,1002 2266,994 2268,990 2266,980 2258,964 2248,944 2246,934 2250,916 2266,898 2274,886 2280,874 2282,870 2272,860 2268,858 2262,848 2234,808 2234,800 2236,796 2244,776 2252,756 2256,744 2264,710 2274,694 2290,682 2308,668 2314,655 2308,638 2296,620 2278,586 2274,576 2266,558 2258,522 2256,512 2268,490 2274,482 2282,476 2290,466 2298,462 2318,460 2351,460 2398,456 2406,452 2420,442 2446,418 2458,412 2470,408 2486,410 2502,422 2516,424 2530,424 2526,406 2506,388 2512,382 2526,380 2592,374 2604,382 2608,382 2628,396 2640,414 2644,416 2660,418 2704,416 2716,416 2736,416 2762,410 2770,404 2774,384 2790,380 2820,398 2838,392 2858,386 2894,374 2898,378 2900,384 2898,394 2900,406 2918,408 2940,396 2944,392 2948,382 2958,370 2962,368 3002,354 3028,358 3096,356 3114,362 3136,372 3144,378 3154,380 3160,384 3176,390 3182,390 3192,390 3204,386 3210,382 3214,372 3224,370 3232,368 3242,368 3258,372 3272,380 3282,382 3300,380 3304,362 3304,356 3312,348 3334,340 3338,340 3364,340 3390,340 3420,342 3428,342 3458,354 3464,366 3470,372 3478,386 3488,396 3494,398 3512,390 3534,382 3538,380 3548,374 3574,364 3588,360 3590,356 3584,346 3574,332 3568,324 3560,308 3556,278 3566,270 3582,268 3592,268 3604,260 3614,250 3602,242 3584,226 3588,222 3604,222 3620,224 3632,224 3638,216 3630,190 3626,178 3618,166 3618,156 3618,150 3626,142 3644,134 3686,126 3698,126 3706,128 3716,128 3756,132 3774,134 3782,130 3788,126 3802,98 3816,94 3834,94 3872,100 3904,86 3924,76 3938,72 3948,72 3952,72 3976,80 3988,84 4002,92 4018,98 4034,98 4078,96 4088,92 4086,64 4098,54 4112,44 4122,48 4136,48 4144,36 4156,4 4174,0 4182,2 " class="polyStyle" id="320707" style="fill:#fbe6ef"/>
<path d="" class="polyStyle" id="420304" style="fill:#f6f67b"/>
<path d="" class="polyStyle" id="445302" style="fill:#ee8b94"/>
<path d="" class="polyStyle" id="410202" style="fill:#d4ecb2"/>
<path d="" class="polyStyle" id="440800" style="fill:#f6f67b"/>
<path d="" class="polyStyle" id="440900" style="fill:#ee8b94"/>
<path d="" class="polyStyle" id="340800" style="fill:#ee8b94"/>
<path d="" class="polyStyle" id="460200" style="fill:#f6f67b"/>
<path d="" class="polyStyle" id="460000" style="fill:#ee8b94"/>
<path d="" class="polyStyle" id="450500" style="fill:#ee8b94"/>
<path d="" class="polyStyle" id="450600" style="fill:#ee8b94"/>
<path d="" class="polyStyle" id="440400" style="fill:#f6f67b"/>
<path d="" class="polyStyle" id="441700" style="fill:#f6f67b"/>
<path d="" class="polyStyle" id="441500" style="fill:#f6f67b"/>
<path d="" class="polyStyle" id="350600" style="fill:#ee8b94"/>
<path d="" class="polyStyle" id="710000" style="fill:#f6f67b"/>
<path d="" class="polyStyle" id="510400" style="fill:#f6f67b"/>
<path d="" class="polyStyle" id="522600" style="fill:#fbe6ef"/>
<path d="" class="polyStyle" id="520500" style="fill:#ee8b94"/>
<path d="" class="polyStyle" id="431200" style="fill:#f6f67b"/>
<path d="" class="polyStyle" id="430600" style="fill:#f6f67b"/>
<path d="" class="polyStyle" id="511400" style="fill:#d4ecb2"/>
<path d="" class="polyStyle" id="421000" style="fill:#ee8b94"/>
<path d="" class="polyStyle" id="341700" style="fill:#f6f67b"/>
<path d="" class="polyStyle" id="420500" style="fill:#f6f67b"/>
<path d="" class="polyStyle" id="511300" style="fill:#f6f67b"/>
<path d="" class="polyStyle" id="420900" style="fill:#f6f67b"/>
<path d="" class="polyStyle" id="511700" style="fill:#ee8b94"/>
<path d="" class="polyStyle" id="420600" style="fill:#d4ecb2"/>
<path d="" class="polyStyle" id="411500" style="fill:#fbe6ef"/>
<path d="" class="polyStyle" id="510800" style="fill:#ee8b94"/>
<path d="" class="polyStyle" id="420300" style="fill:#fbe6ef"/>
<path d="" class="polyStyle" id="611000" style="fill:#ee8b94"/>
<path d="" class="polyStyle" id="620800" style="fill:#fbe6ef"/>
<path d="" class="polyStyle" id="370200" style="fill:#ee8b94"/>
<path d="" class="polyStyle" id="371000" style="fill:#f6f67b"/>
<path d="" class="polyStyle" id="370600" style="fill:#fbe6ef"/>
<path d="" class="polyStyle" id="120000" style="fill:#f6f67b"/>
<path d="" class="polyStyle" id="130200" style="fill:#ee8b94"/>
<path d="" class="polyStyle" id="130300" style="fill:#f6f67b"/>
<path d="" class="polyStyle" id="652900" style="fill:#fbe6ef"/>
<path d="" class="polyStyle" id="150500" style="fill:#d4ecb2"/>
<path d="" class="polyStyle" id="" style="fill:#d4ecb2"/>
<path d="" class="polyStyle" id="350500" style="fill:#fbe6ef"/>
<path d="" class="polyStyle" id="440400" style="fill:#f6f67b"/>
<path d="" class="polyStyle" id="421100" style="fill:#d4ecb2"/>
<path d="" class="polyStyle" id="420100" style="fill:#fbe6ef"/>
<path d="" class="polyStyle" id="532500" style="fill:#fbe6ef"/>
<path d="" class="polyStyle" id="654200" style="fill:#fbe6ef"/>
<path d="" class="polyStyle" id="210700" style="fill:#d4ecb2"/>
<path d="" class="polyStyle" id="522300" style="fill:#fbe6ef"/>
<path d="" class="polyStyle" id="" style="fill:#ee8b94"/>
<path d="" class="polyStyle" id="440400" style="fill:#f6f67b"/>
<path d="" class="polyStyle" id="620000" style="fill:#f6f67b"/>
<path d="" class="polyStyle" id="430000" style="fill:#fbe6ef"/>
<path d="" class="polyStyle" id="420000" style="fill:#ee8b94"/>
<path d="" class="polyStyle" id="410000" style="fill:#f6f67b"/>
<path d="" class="polyStyle" id="350000" style="fill:#fbe6ef"/>
<path d="" class="polyStyle" id="520000" style="fill:#f6f67b"/>
<path d="" class="polyStyle" id="" style="fill:#ee8b94"/>
</svg>
