<?xml version="1.0" encoding="UTF-8"?>
<!DOCTYPE svg PUBLIC "-//W3C//DTD SVG 1.1 Tiny//EN" "http://www.w3.org/Graphics/SVG/1.1/DTD/svg11-tiny.dtd">
<svg version="1.1" xmlns="http://www.w3.org/2000/svg" xmlns:xlink="http://www.w3.org/1999/xlink" width="100%" height="100%" viewBox="0,0,7208,6881">
<title>SVG</title>
<desc>Poligon Test</desc>
<style id="style_css_sheet" type="text/css">
.polyStyle{fill: #cccccc;stroke-width:0;fill-rule:evenodd;}
</style>
<circle cx="4111" cy="5360" r="200" stroke="black" stroke-width="1" fill="red" id="320831" name="金湖县"/>
<circle cx="3335" cy="3980" r="200" stroke="black" stroke-width="1" fill="red" id="320813" name="洪泽区"/>
<circle cx="5351" cy="1608" r="200" stroke="black" stroke-width="1" fill="red" id="320826" name="涟水县"/>
<circle cx="1449" cy="5409" r="200" stroke="black" stroke-width="1" fill="red" id="320830" name="盱眙县"/>
<circle cx="4192" cy="2517" r="200" stroke="black" stroke-width="1" fill="red" id="320812" name="清江浦区"/>
<circle cx="4111" cy="2303" r="200" stroke="black" stroke-width="1" fill="red" id="320804" name="淮阴区"/>
<circle cx="4715" cy="2929" r="200" stroke="black" stroke-width="1" fill="red" id="320803" name="淮安区"/>
<path d="" class="polyStyle" id="" style="fill:#ee8b94"/>
<path d="" class="polyStyle" id="623022" style="fill:#fbe6ef"/>
<path d="" class="polyStyle" id="211421" style="fill:#f6f67b"/>
<path d="" class="polyStyle" id="532524" style="fill:#ee8b94"/>
<path d="" class="polyStyle" id="440825" style="fill:#f6f67b"/>
<path d="" class="polyStyle" id="441721" style="fill:#f6f67b"/>
<path d="" class="polyStyle" id="450521" style="fill:#f6f67b"/>
<path d="" class="polyStyle" id="450123" style="fill:#fbe6ef"/>
<path d="" class="polyStyle" id="350624" style="fill:#f6f67b"/>
<path d="" class="polyStyle" id="" style="fill:#fbe6ef"/>
<path d="" class="polyStyle" id="451224" style="fill:#fbe6ef"/>
<path d="" class="polyStyle" id="350627" style="fill:#f6f67b"/>
<path d="" class="polyStyle" id="" style="fill:#f6f67b"/>
<path d="" class="polyStyle" id="350525" style="fill:#f6f67b"/>
<path d="" class="polyStyle" id="530124" style="fill:#ee8b94"/>
<path d="" class="polyStyle" id="522627" style="fill:#ee8b94"/>
<path d="" class="polyStyle" id="510421" style="fill:#fbe6ef"/>
<path d="" class="polyStyle" id="522623" style="fill:#d4ecb2"/>
<path d="" class="polyStyle" id="430321" style="fill:#d4ecb2"/>
<path d="" class="polyStyle" id="511129" style="fill:#d4ecb2"/>
<path d="" class="polyStyle" id="511423" style="fill:#ee8b94"/>
<path d="" class="polyStyle" id="421023" style="fill:#f6f67b"/>
<path d="" class="polyStyle" id="511724" style="fill:#f6f67b"/>
<path d="" class="polyStyle" id="420526" style="fill:#fbe6ef"/>
<path d="" class="polyStyle" id="511923" style="fill:#fbe6ef"/>
<path d="" class="polyStyle" id="420325" style="fill:#fbe6ef"/>
<path d="" class="polyStyle" id="511921" style="fill:#f6f67b"/>
<polygon points="4768,4405 4794,4417 4821,4426 4846,4427 4871,4428 4898,4429 4924,4431 4949,4432 4976,4433 5002,4445 5027,4446 5053,4431 5080,4451 5085,4476 5091,4502 5097,4527 5103,4543 5112,4570 5121,4598 5131,4625 5112,4650 5112,4676 5123,4702 5148,4701 5175,4692 5200,4685 5226,4678 5252,4683 5278,4698 5303,4710 5329,4722 5355,4733 5381,4742 5407,4752 5434,4761 5460,4771 5486,4780 5511,4789 5534,4805 5557,4830 5564,4855 5570,4881 5577,4906 5585,4931 5594,4956 5615,4983 5634,5008 5654,5034 5666,5059 5676,5085 5689,5112 5702,5137 5727,5152 5753,5166 5778,5181 5804,5203 5805,5229 5806,5255 5806,5260 5797,5286 5783,5312 5761,5338 5738,5363 5715,5389 5690,5414 5664,5432 5638,5451 5611,5470 5590,5493 5576,5518 5575,5544 5574,5570 5573,5596 5572,5622 5572,5647 5571,5673 5571,5699 5570,5725 5570,5751 5569,5765 5569,5790 5568,5816 5568,5842 5567,5868 5567,5894 5566,5920 5565,5946 5565,5971 5565,5997 5565,6023 5565,6049 5565,6075 5565,6101 5565,6127 5565,6153 5565,6179 5566,6205 5568,6232 5569,6257 5570,6284 5571,6310 5566,6311 5540,6315 5514,6319 5489,6321 5463,6324 5438,6326 5412,6330 5385,6334 5358,6338 5332,6342 5306,6345 5280,6347 5253,6348 5227,6350 5200,6351 5173,6349 5148,6346 5121,6343 5096,6340 5070,6336 5043,6333 5018,6331 4992,6330 4967,6329 4942,6328 4906,6323 4894,6323 4824,6331 4696,6349 4664,6353 4580,6355 4534,6343 4500,6317 4466,6275 4410,6193 4370,6163 4330,6131 4294,6111 4248,6055 4214,5993 4208,5969 4208,5907 4200,5907 4180,5913 4162,5921 4128,5925 4080,5929 4058,5927 4060,5917 4058,5909 4058,5903 4072,5887 4080,5865 4072,5857 4070,5851 4068,5841 4068,5833 4074,5829 4078,5831 4088,5835 4098,5839 4116,5837 4124,5837 4132,5831 4134,5823 4130,5815 4118,5783 4116,5777 4112,5753 4088,5679 4056,5687 4020,5677 4028,5665 3992,5655 3946,5655 3934,5669 3882,5695 3828,5723 3804,5727 3794,5727 3772,5721 3726,5725 3695,5724 3678,5739 3652,5769 3642,5771 3600,5765 3562,5751 3508,5735 3504,5753 3472,5749 3456,5759 3442,5757 3438,5719 3441,5693 3450,5691 3460,5673 3472,5647 3479,5632 3491,5625 3497,5608 3495,5596 3503,5579 3513,5562 3509,5551 3510,5545 3513,5536 3509,5522 3509,5513 3514,5499 3512,5491 3498,5471 3481,5449 3466,5426 3459,5421 3447,5422 3408,5433 3390,5432 3385,5424 3376,5425 3368,5442 3355,5444 3334,5442 3309,5418 3302,5415 3294,5415 3277,5435 3263,5436 3245,5430 3226,5433 3212,5440 3184,5463 3174,5470 3154,5482 3148,5490 3139,5494 3129,5495 3127,5487 3122,5470 3073,5458 3063,5453 3058,5442 3067,5440 3075,5435 3076,5431 3085,5426 3102,5419 3114,5413 3118,5409 3132,5395 3144,5379 3153,5374 3162,5380 3171,5378 3174,5375 3178,5368 3185,5358 3197,5354 3203,5349 3210,5341 3218,5335 3223,5328 3234,5320 3245,5315 3262,5316 3279,5325 3291,5333 3299,5335 3305,5331 3317,5325 3327,5324 3360,5325 3391,5325 3415,5328 3467,5331 3479,5331 3483,5299 3501,5273 3527,5260 3552,5239 3523,5226 3550,5212 3577,5199 3604,5193 3631,5190 3656,5193 3683,5196 3708,5200 3734,5204 3760,5200 3786,5193 3813,5183 3840,5177 3856,5152 3846,5126 3830,5100 3805,5098 3780,5100 3753,5097 3728,5095 3703,5092 3682,5065 3690,5042 3704,5015 3718,4988 3728,4962 3715,4937 3701,4910 3699,4884 3725,4863 3779,4919 3796,4893 3790,4867 3790,4841 3786,4815 3761,4820 3735,4821 3715,4795 3725,4769 3722,4751 3728,4725 3755,4725 3782,4722 3807,4719 3814,4717 3822,4668 3824,4642 3823,4616 3824,4591 3825,4565 3828,4532 3853,4533 3857,4534 3866,4537 3881,4542 3900,4550 3926,4552 3946,4552 3960,4549 3970,4537 3984,4517 3994,4509 4012,4502 4030,4503 4037,4510 4057,4518 4070,4506 4079,4504 4092,4502 4117,4503 4143,4502 4168,4498 4195,4490 4221,4481 4247,4476 4272,4471 4298,4462 4324,4448 4349,4431 4375,4420 4401,4416 4428,4411 4454,4410 4480,4409 4507,4409 4532,4408 4559,4407 4586,4406 4611,4405 4638,4404 4665,4403 4690,4402 4717,4402 4738,4400 4742,4400 " class="polyStyle" id="320831" style="fill:#fbe6ef"/>
<polygon points="1430,4296 1431,4323 1431,4348 1431,4374 1432,4400 1432,4426 1433,4453 1433,4479 1433,4504 1434,4531 1434,4558 1435,4584 1436,4611 1436,4636 1432,4663 1430,4688 1448,4714 1473,4731 1498,4733 1507,4737 1508,4763 1508,4789 1506,4814 1486,4839 1471,4854 1455,4879 1443,4905 1436,4932 1441,4957 1466,4973 1479,4980 1445,5084 1454,5088 1467,5091 1497,5095 1528,5099 1549,5102 1569,5109 1595,5112 1621,5086 1635,5060 1643,5034 1647,5008 1650,4982 1653,4956 1656,4930 1659,4903 1679,4878 1705,4876 1732,4857 1736,4832 1724,4807 1741,4781 1766,4756 1791,4762 1819,4749 1832,4726 1844,4701 1857,4675 1878,4650 1904,4642 1929,4627 1955,4607 1981,4592 2007,4587 2032,4585 2064,4590 2089,4577 2117,4564 2144,4565 2170,4562 2195,4555 2222,4547 2248,4538 2274,4529 2301,4527 2327,4525 2334,4525 2361,4525 2386,4525 2413,4524 2438,4524 2464,4524 2489,4524 2515,4524 2540,4542 2541,4567 2541,4593 2542,4619 2542,4645 2543,4671 2543,4697 2544,4723 2544,4749 2544,4775 2544,4801 2543,4827 2543,4852 2543,4878 2543,4904 2543,4909 2543,4935 2543,4961 2543,4987 2564,5012 2591,5015 2617,5018 2644,5021 2671,5024 2697,5027 2724,5029 2750,5032 2777,5032 2803,5032 2828,5031 2854,5030 2880,5029 2906,5031 2934,5035 2960,5044 2987,5053 3013,5059 3039,5055 3064,5042 3070,5039 3097,5033 3124,5027 3151,5021 3177,5015 3203,5009 3229,5003 3255,4999 3281,4996 3306,4994 3332,4998 3358,5010 3385,5029 3400,5054 3415,5081 3427,5106 3428,5132 3430,5159 3434,5184 3444,5210 3470,5231 3496,5230 3523,5226 3552,5239 3527,5260 3501,5273 3483,5299 3479,5331 3467,5331 3415,5328 3391,5325 3360,5325 3327,5324 3317,5325 3305,5331 3299,5335 3291,5333 3279,5325 3262,5316 3245,5315 3234,5320 3223,5328 3218,5335 3210,5341 3203,5349 3197,5354 3185,5358 3178,5368 3174,5375 3171,5378 3162,5380 3153,5374 3144,5379 3132,5395 3118,5409 3114,5413 3102,5419 3085,5426 3076,5431 3075,5435 3067,5440 3058,5442 3063,5453 3073,5458 3122,5470 3127,5487 3129,5495 3139,5494 3148,5490 3154,5482 3174,5470 3184,5463 3212,5440 3226,5433 3245,5430 3263,5436 3277,5435 3294,5415 3302,5415 3309,5418 3334,5442 3355,5444 3368,5442 3376,5425 3385,5424 3390,5432 3408,5433 3447,5422 3459,5421 3466,5426 3481,5449 3498,5471 3512,5491 3514,5499 3509,5513 3509,5522 3513,5536 3510,5545 3509,5551 3513,5562 3503,5579 3495,5596 3497,5608 3491,5625 3479,5632 3472,5647 3460,5673 3450,5691 3441,5693 3442,5689 3446,5681 3450,5661 3440,5655 3418,5645 3406,5655 3402,5673 3388,5675 3358,5665 3330,5661 3322,5665 3320,5681 3310,5683 3300,5679 3282,5669 3268,5667 3258,5667 3230,5673 3222,5695 3238,5713 3236,5735 3228,5729 3210,5723 3188,5729 3186,5743 3198,5749 3202,5755 3206,5769 3216,5781 3224,5797 3230,5819 3222,5847 3216,5849 3208,5847 3186,5833 3172,5855 3180,5885 3176,5897 3168,5901 3160,5897 3152,5893 3106,5861 3088,5859 3068,5861 3026,5891 3024,5901 3024,5914 3030,5919 3040,5925 3048,5929 3050,5933 3054,5941 3052,5961 3044,5979 3044,5993 3052,6005 3056,6011 3056,6019 3054,6033 3048,6051 3044,6067 3040,6075 3034,6081 3022,6085 3006,6091 3006,6097 3008,6101 3014,6105 3022,6109 3032,6117 3036,6123 3044,6131 3046,6135 3050,6143 3054,6151 3054,6159 3052,6165 3052,6171 3046,6175 3034,6175 3012,6175 2990,6179 2966,6183 2958,6185 2952,6187 2942,6195 2938,6215 2936,6221 2925,6219 2911,6219 2891,6219 2883,6215 2877,6209 2866,6203 2851,6203 2845,6199 2836,6198 2828,6205 2823,6205 2821,6198 2819,6194 2814,6194 2810,6197 2806,6197 2795,6186 2792,6184 2784,6182 2757,6176 2742,6176 2730,6173 2715,6187 2702,6201 2697,6202 2693,6196 2687,6201 2680,6209 2688,6231 2690,6235 2700,6309 2704,6359 2712,6389 2708,6423 2704,6449 2688,6473 2672,6485 2668,6495 2674,6533 2676,6545 2674,6571 2664,6597 2660,6607 2667,6612 2678,6613 2677,6622 2686,6621 2689,6622 2690,6631 2693,6642 2705,6659 2723,6669 2735,6681 2738,6682 2743,6679 2747,6681 2757,6708 2763,6718 2766,6731 2773,6746 2771,6762 2775,6767 2781,6767 2776,6779 2742,6781 2696,6795 2656,6803 2652,6803 2628,6817 2620,6835 2618,6839 2612,6849 2606,6851 2588,6851 2566,6847 2552,6849 2532,6857 2516,6857 2502,6851 2474,6841 2439,6819 2391,6820 2382,6815 2274,6781 2254,6771 2252,6757 2250,6749 2210,6743 2178,6731 2162,6737 2154,6749 2154,6759 2154,6769 2132,6767 2130,6761 2128,6749 2114,6747 2104,6747 2088,6751 2068,6759 2046,6769 2036,6803 2026,6821 2008,6825 1896,6849 1870,6861 1852,6861 1840,6857 1830,6843 1780,6815 1752,6807 1732,6807 1696,6813 1678,6817 1662,6821 1650,6825 1636,6827 1598,6835 1574,6839 1514,6841 1498,6845 1480,6845 1460,6841 1448,6839 1428,6831 1423,6834 1420,6847 1418,6853 1406,6857 1372,6857 1344,6855 1334,6853 1312,6847 1290,6839 1276,6831 1270,6819 1262,6809 1256,6773 1252,6757 1244,6743 1238,6745 1228,6747 1220,6751 1210,6757 1206,6761 1198,6781 1146,6847 1134,6861 1118,6867 1108,6875 1096,6881 1038,6881 1022,6879 1004,6863 994,6861 982,6861 974,6867 966,6865 926,6869 902,6871 890,6871 874,6869 846,6867 834,6867 826,6859 818,6827 820,6815 822,6775 826,6765 838,6723 838,6685 818,6623 806,6611 798,6597 746,6595 712,6591 686,6601 658,6653 654,6653 618,6657 608,6657 596,6647 596,6643 600,6627 608,6609 608,6597 610,6587 584,6565 576,6561 564,6565 548,6569 538,6567 516,6561 502,6555 488,6535 474,6483 478,6453 490,6441 500,6437 506,6433 510,6425 512,6419 514,6406 512,6397 496,6327 470,6295 470,6281 472,6261 480,6255 488,6239 490,6231 494,6221 496,6211 498,6203 478,6195 472,6203 462,6227 458,6231 450,6235 442,6237 438,6237 434,6237 430,6239 416,6231 410,6205 414,6193 416,6175 402,6173 376,6175 356,6177 334,6173 316,6172 274,6205 271,6222 263,6236 250,6236 240,6229 240,6201 216,6203 210,6201 212,6171 216,6129 204,6089 194,6061 174,6011 158,5935 152,5885 130,5859 124,5843 132,5829 148,5811 182,5781 202,5771 226,5765 289,5759 327,5758 377,5747 408,5742 459,5723 509,5683 543,5663 543,5657 540,5648 534,5635 522,5629 492,5620 464,5614 427,5615 370,5618 339,5614 307,5605 274,5575 245,5545 214,5500 202,5473 202,5449 200,5401 196,5311 178,5219 162,5175 146,5145 118,5155 106,5161 40,5161 60,5101 72,5101 102,5105 123,5101 113,5074 106,5041 74,5039 6,5021 16,5001 82,5015 104,5022 100,5006 101,4966 84,4933 0,4941 6,4901 82,4889 82,4851 96,4692 91,4652 96,4585 90,4561 115,4551 143,4539 169,4528 194,4513 221,4498 248,4486 265,4477 292,4464 318,4462 344,4463 372,4465 397,4467 423,4469 448,4471 473,4473 498,4475 523,4477 548,4479 573,4481 598,4483 624,4485 649,4487 675,4490 700,4492 726,4494 751,4496 778,4499 804,4501 829,4503 854,4506 879,4508 905,4510 914,4511 939,4513 965,4516 990,4518 1016,4520 1041,4523 1067,4525 1092,4527 1117,4518 1143,4494 1170,4470 1195,4447 1221,4423 1248,4400 1273,4378 1300,4356 1326,4334 1352,4311 1377,4289 1403,4266 1426,4245 1430,4270 " class="polyStyle" id="320830" style="fill:#f6f67b"/>
<polygon points="4007,3518 4015,3543 4020,3546 4030,3559 4039,3569 4041,3582 4037,3594 4027,3606 4012,3621 4002,3626 3990,3626 3981,3627 3977,3629 3972,3635 3962,3639 3956,3640 3951,3643 3953,3647 3959,3656 3959,3666 3962,3672 3971,3683 3973,3702 3990,3700 3993,3709 4000,3708 4028,3705 4077,3740 4064,3768 4066,3776 4100,3778 4112,3763 4136,3779 4136,3768 4163,3773 4167,3803 4188,3817 4213,3836 4239,3854 4264,3873 4270,3878 4295,3896 4320,3916 4345,3928 4372,3936 4397,3943 4425,3950 4451,3954 4476,3958 4502,3965 4529,3975 4555,3985 4581,3992 4608,3996 4634,4000 4660,4003 4685,4010 4712,4017 4738,4029 4752,4037 4759,4058 4784,4077 4799,4102 4798,4127 4790,4153 4772,4178 4748,4204 4723,4218 4709,4244 4700,4271 4700,4297 4704,4322 4713,4348 4722,4374 4738,4400 4717,4402 4690,4402 4665,4403 4638,4404 4611,4405 4586,4406 4559,4407 4532,4408 4507,4409 4480,4409 4454,4410 4428,4411 4401,4416 4375,4420 4349,4431 4324,4448 4298,4462 4272,4471 4247,4476 4221,4481 4195,4490 4168,4498 4143,4502 4117,4503 4092,4502 4079,4504 4070,4506 4057,4518 4037,4510 4030,4503 4012,4502 3994,4509 3984,4517 3970,4537 3960,4549 3946,4552 3926,4552 3900,4550 3881,4542 3866,4537 3857,4534 3853,4533 3828,4532 3825,4565 3824,4591 3823,4616 3824,4642 3822,4668 3814,4717 3807,4719 3782,4722 3755,4725 3728,4725 3722,4751 3725,4769 3715,4795 3735,4821 3761,4820 3786,4815 3790,4841 3790,4867 3796,4893 3779,4919 3725,4863 3699,4884 3701,4910 3715,4937 3728,4962 3718,4988 3704,5015 3690,5042 3682,5065 3703,5092 3728,5095 3753,5097 3780,5100 3805,5098 3830,5100 3846,5126 3856,5152 3840,5177 3813,5183 3786,5193 3760,5200 3734,5204 3708,5200 3683,5196 3656,5193 3631,5190 3604,5193 3577,5199 3550,5212 3523,5226 3496,5230 3470,5231 3444,5210 3434,5184 3430,5159 3428,5132 3427,5106 3415,5081 3400,5054 3385,5029 3358,5010 3332,4998 3306,4994 3281,4996 3255,4999 3229,5003 3203,5009 3177,5015 3151,5021 3124,5027 3097,5033 3070,5039 3064,5042 3039,5055 3013,5059 2987,5053 2960,5044 2934,5035 2906,5031 2880,5029 2854,5030 2828,5031 2803,5032 2777,5032 2750,5032 2724,5029 2697,5027 2671,5024 2644,5021 2617,5018 2591,5015 2564,5012 2543,4987 2543,4961 2543,4935 2543,4909 2543,4904 2543,4878 2543,4852 2543,4827 2544,4801 2544,4775 2544,4749 2544,4723 2543,4697 2543,4671 2542,4645 2542,4619 2541,4593 2541,4567 2540,4542 2515,4524 2489,4524 2464,4524 2438,4524 2413,4524 2386,4525 2361,4525 2334,4525 2327,4525 2301,4527 2274,4529 2248,4538 2222,4547 2195,4555 2170,4562 2144,4565 2117,4564 2089,4577 2064,4590 2032,4585 2007,4587 1981,4592 1955,4607 1929,4627 1904,4642 1878,4650 1857,4675 1844,4701 1832,4726 1819,4749 1791,4762 1766,4756 1741,4781 1724,4807 1736,4832 1732,4857 1705,4876 1679,4878 1659,4903 1656,4930 1653,4956 1650,4982 1647,5008 1643,5034 1635,5060 1621,5086 1595,5112 1569,5109 1549,5102 1528,5099 1497,5095 1467,5091 1454,5088 1445,5084 1479,4980 1466,4973 1441,4957 1436,4932 1443,4905 1455,4879 1471,4854 1486,4839 1506,4814 1508,4789 1508,4763 1507,4737 1498,4733 1473,4731 1448,4714 1430,4688 1432,4663 1436,4636 1436,4611 1435,4584 1434,4558 1434,4531 1433,4504 1433,4479 1433,4453 1432,4426 1432,4400 1431,4374 1431,4348 1431,4323 1430,4296 1430,4270 1426,4245 1429,4243 1440,4234 1466,4212 1491,4191 1517,4167 1538,4146 1564,4136 1590,4128 1615,4120 1640,4112 1666,4104 1692,4095 1717,4088 1743,4080 1768,4073 1794,4066 1819,4059 1844,4051 1870,4044 1897,4036 1923,4028 1950,4020 1976,4012 2001,4005 2028,3997 2054,3989 2080,3980 2107,3972 2132,3964 2157,3956 2182,3949 2209,3940 2235,3932 2261,3924 2285,3917 2312,3908 2338,3900 2366,3891 2392,3882 2419,3873 2445,3864 2472,3855 2498,3846 2524,3839 2549,3831 2576,3824 2601,3816 2628,3809 2653,3801 2679,3794 2705,3787 2731,3779 2758,3772 2783,3764 2808,3757 2835,3749 2860,3742 2877,3737 2887,3734 2912,3727 2938,3719 2963,3712 2990,3704 3015,3696 3041,3688 3067,3681 3093,3673 3118,3665 3145,3657 3173,3649 3198,3642 3224,3635 3249,3620 3274,3602 3300,3580 3325,3561 3351,3541 3378,3522 3403,3524 3416,3530 3427,3521 3428,3512 3431,3499 3437,3494 3446,3493 3453,3496 3458,3507 3467,3522 3471,3531 3486,3520 3494,3509 3512,3509 3508,3518 3504,3527 3496,3553 3493,3579 3492,3605 3492,3631 3487,3657 3474,3682 3448,3707 3426,3734 3428,3759 3455,3766 3481,3748 3507,3732 3533,3716 3558,3697 3585,3679 3610,3663 3636,3647 3661,3633 3687,3618 3707,3606 3733,3591 3760,3576 3785,3564 3811,3551 3836,3539 3864,3526 3890,3515 3915,3504 3941,3494 3967,3483 3992,3471 4002,3466 4005,3492 " class="polyStyle" id="320829" style="fill:#ee8b94"/>
<path d="" class="polyStyle" id="542525" style="fill:#f6f67b"/>
<path d="" class="polyStyle" id="611026" style="fill:#ee8b94"/>
<polygon points="4912,26 4924,45 4934,70 4951,97 4976,122 5000,148 5025,175 5050,186 5076,188 5101,192 5128,208 5144,234 5168,260 5172,285 5197,287 5222,290 5247,295 5273,294 5300,294 5325,293 5335,268 5335,253 5363,256 5389,252 5415,253 5442,256 5468,257 5493,261 5501,286 5527,295 5552,297 5579,300 5585,326 5611,337 5638,329 5670,316 5679,316 5705,314 5730,311 5755,309 5782,305 5808,302 5834,301 5860,307 5885,304 5909,279 5934,278 5960,296 5971,322 5980,342 5986,347 6005,355 6011,361 6013,372 6013,378 6011,382 6012,388 6017,393 6019,397 6019,403 6006,415 6002,424 6021,449 6046,451 6073,448 6098,446 6124,470 6125,488 6130,514 6141,539 6166,540 6191,562 6218,547 6243,532 6270,517 6296,502 6323,487 6349,470 6356,469 6384,452 6410,436 6436,421 6457,406 6483,390 6509,386 6534,376 6556,349 6581,327 6596,301 6621,300 6647,305 6674,320 6680,346 6681,372 6707,379 6733,374 6759,371 6784,386 6802,411 6828,398 6833,382 6837,410 6852,424 6868,441 6884,466 6914,470 6928,483 6954,484 6979,487 6973,512 6985,538 6993,564 6976,582 6965,594 6970,606 6973,614 6970,624 6957,629 6930,630 6925,635 6923,646 6926,665 6936,670 6955,667 6976,661 6983,662 6992,670 6995,674 7001,669 6997,662 7007,654 7021,647 7042,669 7065,695 7081,721 7106,738 7132,720 7147,712 7159,707 7180,708 7207,733 7185,760 7182,786 7180,797 7187,816 7208,828 7208,831 7208,846 7205,863 7193,874 7163,885 7150,892 7155,904 7163,920 7180,927 7182,942 7178,952 7178,968 7176,980 7175,985 7171,993 7145,1020 7118,1035 7093,1058 7082,1066 7067,1071 7041,1077 7015,1083 6989,1092 6966,1105 6946,1131 6923,1158 6899,1182 6874,1199 6848,1214 6823,1231 6813,1237 6798,1249 6788,1259 6781,1276 6771,1302 6764,1324 6761,1329 6735,1354 6709,1377 6701,1392 6700,1407 6702,1415 6708,1425 6711,1432 6712,1439 6711,1446 6707,1450 6696,1458 6678,1465 6666,1476 6663,1485 6660,1499 6661,1525 6661,1535 6659,1548 6655,1561 6638,1587 6614,1611 6598,1631 6595,1638 6583,1664 6567,1701 6557,1715 6542,1738 6532,1767 6532,1793 6532,1819 6532,1845 6529,1860 6520,1870 6494,1887 6468,1911 6444,1937 6421,1962 6396,1978 6378,1980 6370,1981 6360,1982 6334,1985 6309,1990 6283,2001 6257,2016 6232,2025 6206,2029 6180,2030 6154,2031 6128,2031 6103,2033 6075,2038 6049,2044 6024,2047 5999,2051 5972,2052 5960,2053 5935,2050 5908,2048 5881,2045 5854,2043 5829,2037 5803,2035 5778,2029 5752,2016 5726,2000 5701,1984 5675,1967 5649,1953 5623,1938 5615,1913 5607,1888 5581,1866 5556,1840 5547,1815 5539,1789 5532,1763 5516,1737 5506,1725 5482,1700 5457,1684 5431,1673 5405,1668 5379,1669 5351,1678 5325,1687 5298,1696 5272,1703 5245,1707 5218,1712 5191,1720 5165,1728 5139,1736 5112,1747 5085,1763 5071,1783 5073,1812 5060,1841 5071,1866 5083,1893 5083,1896 5084,1921 5080,1948 5074,1974 5063,2001 5049,2026 5031,2053 5010,2076 4994,2096 4963,2124 4950,2141 4932,2161 4916,2177 4907,2187 4882,2213 4857,2228 4837,2232 4827,2245 4829,2266 4794,2296 4769,2316 4754,2323 4746,2328 4740,2318 4729,2304 4719,2296 4709,2290 4701,2288 4694,2281 4694,2276 4702,2271 4714,2258 4727,2242 4737,2231 4763,2212 4781,2187 4795,2161 4806,2134 4816,2107 4815,2081 4812,2054 4808,2028 4808,2003 4834,1980 4846,1954 4851,1939 4872,1937 4881,1931 4884,1912 4894,1886 4903,1860 4889,1857 4864,1834 4838,1838 4813,1851 4786,1851 4760,1834 4734,1832 4714,1805 4693,1779 4667,1758 4641,1760 4616,1760 4590,1775 4564,1779 4539,1778 4513,1777 4487,1767 4479,1760 4474,1752 4471,1741 4483,1716 4497,1690 4501,1680 4499,1671 4483,1652 4463,1626 4467,1601 4442,1598 4414,1595 4410,1595 4399,1591 4409,1583 4418,1573 4438,1553 4463,1527 4479,1508 4474,1501 4447,1497 4450,1470 4458,1445 4466,1419 4467,1394 4463,1368 4437,1354 4412,1347 4386,1340 4359,1331 4352,1328 4326,1316 4300,1298 4280,1271 4253,1254 4227,1244 4201,1233 4179,1208 4150,1204 4136,1205 4125,1201 4119,1193 4129,1181 4137,1165 4143,1151 4139,1131 4112,1122 4086,1113 4060,1105 4034,1102 4010,1077 4002,1055 3989,1051 4001,1025 3985,1000 3972,978 4000,983 4026,981 4051,955 4074,930 4100,917 4121,891 4123,864 4149,861 4163,835 4188,817 4214,816 4240,793 4253,767 4258,741 4255,716 4246,691 4221,674 4195,669 4198,647 4204,623 4222,604 4230,599 4256,597 4263,596 4270,591 4279,578 4300,565 4310,560 4322,558 4354,556 4377,545 4394,529 4404,489 4405,470 4407,463 4415,452 4467,412 4495,386 4511,380 4525,372 4535,359 4547,350 4559,345 4588,331 4623,323 4636,318 4642,311 4658,292 4682,269 4701,256 4735,226 4737,221 4751,202 4757,185 4758,168 4759,165 4756,152 4755,141 4768,99 4780,79 4800,65 4807,46 4818,29 4823,23 4837,12 4861,-1 4886,2 " class="polyStyle" id="320826" style="fill:#f6f67b"/>
<path d="" class="polyStyle" id="411023" style="fill:#fbe6ef"/>
<path d="" class="polyStyle" id="632323" style="fill:#f6f67b"/>
<path d="" class="polyStyle" id="140525" style="fill:#d4ecb2"/>
<path d="" class="polyStyle" id="410922" style="fill:#ee8b94"/>
<path d="" class="polyStyle" id="621027" style="fill:#ee8b94"/>
<path d="" class="polyStyle" id="130427" style="fill:#f6f67b"/>
<path d="" class="polyStyle" id="130121" style="fill:#ee8b94"/>
<path d="" class="polyStyle" id="610823" style="fill:#fbe6ef"/>
<path d="" class="polyStyle" id="130225" style="fill:#fbe6ef"/>
<path d="" class="polyStyle" id="130322" style="fill:#d4ecb2"/>
<path d="" class="polyStyle" id="653130" style="fill:#f6f67b"/>
<path d="" class="polyStyle" id="130822" style="fill:#fbe6ef"/>
<path d="" class="polyStyle" id="211221" style="fill:#f6f67b"/>
<path d="" class="polyStyle" id="210921" style="fill:#f6f67b"/>
<path d="" class="polyStyle" id="150223" style="fill:#f8c67d"/>
<path d="" class="polyStyle" id="220422" style="fill:#d4ecb2"/>
<path d="" class="polyStyle" id="340721" style="fill:#f6f67b"/>
<path d="" class="polyStyle" id="510824" style="fill:#d4ecb2"/>
<path d="" class="polyStyle" id="610324" style="fill:#f6f67b"/>
<path d="" class="polyStyle" id="530722" style="fill:#ee8b94"/>
<path d="" class="polyStyle" id="340823" style="fill:#d4ecb2"/>
<path d="" class="polyStyle" id="620825" style="fill:#d4ecb2"/>
<path d="" class="polyStyle" id="421125" style="fill:#ee8b94"/>
<path d="" class="polyStyle" id="210281" style="fill:#ee8b94"/>
<path d="" class="polyStyle" id="440883" style="fill:#f6f67b"/>
<path d="" class="polyStyle" id="469006" style="fill:#d4ecb2"/>
<path d="" class="polyStyle" id="469002" style="fill:#ee8b94"/>
<path d="" class="polyStyle" id="469005" style="fill:#fbe6ef"/>
<path d="" class="polyStyle" id="440882" style="fill:#ee8b94"/>
<path d="" class="polyStyle" id="450681" style="fill:#ee8b94"/>
<path d="" class="polyStyle" id="441581" style="fill:#d4ecb2"/>
<path d="" class="polyStyle" id="421087" style="fill:#ee8b94"/>
<path d="" class="polyStyle" id="420984" style="fill:#fbe6ef"/>
<path d="" class="polyStyle" id="420582" style="fill:#ee8b94"/>
<path d="" class="polyStyle" id="370282" style="fill:#f6f67b"/>
<path d="" class="polyStyle" id="371083" style="fill:#f6f67b"/>
<path d="" class="polyStyle" id="371082" style="fill:#fbe6ef"/>
<path d="" class="polyStyle" id="652801" style="fill:#f8c67d"/>
<path d="" class="polyStyle" id="654301" style="fill:#ee8b94"/>
<path d="" class="polyStyle" id="370687" style="fill:#ee8b94"/>
<path d="" class="polyStyle" id="371482" style="fill:#d4ecb2"/>
<path d="" class="polyStyle" id="421081" style="fill:#fbe6ef"/>
<path d="" class="polyStyle" id="429006" style="fill:#f6f67b"/>
<path d="" class="polyStyle" id="440982" style="fill:#d4ecb2"/>
<path d="" class="polyStyle" id="421181" style="fill:#d4ecb2"/>
<path d="" class="polyStyle" id="321181" style="fill:#d4ecb2"/>
<path d="" class="polyStyle" id="659007" style="fill:#ee8b94"/>
<path d="" class="polyStyle" id="652701" style="fill:#fbe6ef"/>
<path d="" class="polyStyle" id="210781" style="fill:#fbe6ef"/>
<path d="" class="polyStyle" id="460204" style="fill:#f6f67b"/>
<path d="" class="polyStyle" id="210211" style="fill:#f6f67b"/>
<path d="" class="polyStyle" id="450512" style="fill:#ee8b94"/>
<path d="" class="polyStyle" id="450602" style="fill:#fbe6ef"/>
<path d="" class="polyStyle" id="440404" style="fill:#ee8b94"/>
<path d="" class="polyStyle" id="440403" style="fill:#f6f67b"/>
<path d="" class="polyStyle" id="441502" style="fill:#f6f67b"/>
<path d="" class="polyStyle" id="431002" style="fill:#d4ecb2"/>
<path d="" class="polyStyle" id="500107" style="fill:#fbe6ef"/>
<path d="" class="polyStyle" id="430611" style="fill:#d4ecb2"/>
<path d="" class="polyStyle" id="511304" style="fill:#fbe6ef"/>
<path d="" class="polyStyle" id="340711" style="fill:#ee8b94"/>
<path d="" class="polyStyle" id="320118" style="fill:#f6f67b"/>
<path d="" class="polyStyle" id="510704" style="fill:#f6f67b"/>
<path d="" class="polyStyle" id="411502" style="fill:#ee8b94"/>
<polygon points="4272,2550 4339,2589 4369,2606 4413,2643 4411,2648 4404,2659 4406,2665 4425,2682 4466,2739 4475,2750 4495,2775 4515,2802 4533,2827 4550,2853 4568,2880 4584,2906 4597,2931 4605,2957 4614,2984 4624,3009 4634,3034 4650,3060 4676,3084 4700,3109 4674,3121 4648,3136 4623,3150 4596,3165 4571,3178 4546,3190 4520,3206 4494,3221 4469,3236 4444,3250 4418,3264 4393,3278 4367,3290 4340,3303 4315,3316 4290,3329 4263,3343 4238,3356 4212,3368 4186,3380 4160,3392 4133,3405 4107,3417 4080,3429 4055,3441 4027,3454 4002,3466 3992,3471 3967,3483 3941,3494 3915,3504 3890,3515 3864,3526 3836,3539 3811,3551 3785,3564 3760,3576 3733,3591 3707,3606 3687,3618 3661,3633 3636,3647 3610,3663 3585,3679 3558,3697 3533,3716 3507,3732 3481,3748 3455,3766 3428,3759 3426,3734 3448,3707 3474,3682 3487,3657 3492,3631 3492,3605 3493,3579 3496,3553 3504,3527 3508,3518 3512,3509 3523,3486 3537,3461 3554,3435 3571,3410 3588,3384 3605,3359 3623,3333 3640,3308 3657,3282 3659,3279 3676,3254 3694,3228 3711,3203 3728,3177 3746,3151 3763,3125 3780,3100 3798,3075 3819,3049 3843,3023 3859,2997 3872,2971 3885,2945 3883,2919 3879,2893 3862,2868 3844,2843 3827,2817 3808,2791 3806,2787 3788,2762 3771,2737 3753,2711 3735,2685 3717,2660 3700,2634 3682,2609 3676,2591 3677,2586 3680,2583 3706,2587 3731,2582 3793,2606 3836,2616 3852,2614 3890,2601 3941,2577 3980,2562 4059,2536 4130,2511 4154,2500 4182,2504 " class="polyStyle" id="320811" style="fill:#f6f67b"/>
<polygon points="4974,2208 5020,2205 5069,2200 5077,2205 5089,2243 5084,2253 5072,2262 5080,2275 5121,2315 5127,2324 5113,2329 5114,2358 5108,2369 5080,2378 5061,2382 5055,2384 4988,2493 4942,2547 4932,2548 4911,2573 4876,2585 4868,2589 4863,2608 4829,2638 4776,2670 4777,2685 4774,2689 4745,2718 4717,2733 4682,2733 4648,2739 4625,2752 4611,2746 4610,2731 4610,2714 4600,2679 4591,2674 4575,2681 4558,2699 4535,2707 4514,2692 4508,2689 4510,2682 4509,2668 4488,2666 4468,2686 4456,2677 4421,2650 4413,2643 4369,2606 4339,2589 4272,2550 4182,2504 4154,2500 4130,2511 4059,2536 3980,2562 3941,2577 3890,2601 3852,2614 3836,2616 3793,2606 3731,2582 3758,2576 3784,2562 3809,2542 3835,2521 3847,2495 3872,2476 3898,2465 3924,2445 3949,2425 3975,2403 3994,2377 4020,2367 4046,2368 4073,2374 4099,2382 4124,2390 4151,2400 4177,2412 4203,2434 4229,2442 4254,2443 4280,2438 4306,2428 4331,2415 4357,2400 4382,2397 4407,2393 4433,2377 4459,2355 4484,2344 4509,2335 4535,2336 4560,2341 4587,2344 4612,2346 4637,2349 4663,2351 4689,2356 4715,2349 4746,2328 4754,2323 4769,2316 4794,2296 4829,2266 4827,2245 4837,2232 4857,2228 4882,2213 4907,2187 4916,2177 4971,2176 4975,2182 " class="polyStyle" id="320802" style="fill:#ee8b94"/>
<polygon points="5457,1684 5482,1700 5506,1725 5516,1737 5532,1763 5539,1789 5547,1815 5556,1840 5581,1866 5607,1888 5615,1913 5623,1938 5649,1953 5675,1967 5701,1984 5726,2000 5752,2016 5778,2029 5803,2035 5829,2037 5854,2043 5881,2045 5908,2048 5935,2050 5960,2053 5972,2052 5999,2051 6024,2047 6049,2044 6075,2038 6103,2033 6128,2031 6154,2031 6180,2030 6206,2029 6232,2025 6257,2016 6283,2001 6309,1990 6334,1985 6360,1982 6370,1981 6382,2000 6396,2026 6406,2051 6432,2073 6448,2099 6423,2119 6409,2145 6427,2172 6452,2178 6452,2203 6426,2218 6399,2233 6372,2247 6345,2262 6318,2263 6297,2238 6270,2243 6273,2270 6289,2296 6302,2321 6313,2347 6321,2372 6330,2398 6337,2424 6341,2449 6340,2464 6350,2489 6370,2515 6381,2541 6388,2568 6397,2594 6412,2621 6417,2646 6409,2666 6404,2700 6404,2729 6402,2747 6383,2766 6373,2786 6398,2792 6412,2791 6437,2776 6442,2776 6449,2784 6466,2832 6468,2837 6477,2864 6486,2872 6495,2877 6502,2880 6510,2883 6520,2892 6526,2903 6530,2911 6545,2920 6570,2946 6580,2954 6589,2959 6597,2960 6603,2956 6613,2952 6629,2952 6650,2957 6653,2964 6667,2979 6672,2985 6675,2988 6690,2998 6698,3011 6710,3028 6729,3045 6741,3056 6756,3072 6774,3092 6800,3103 6825,3099 6850,3095 6876,3110 6886,3135 6912,3141 6938,3142 6964,3151 6989,3170 7011,3196 7028,3222 7053,3236 7078,3262 7069,3264 7058,3277 7048,3305 7056,3339 7031,3346 7005,3353 6980,3368 6953,3387 6928,3405 6902,3418 6875,3430 6850,3444 6836,3468 6823,3468 6822,3466 6808,3464 6782,3456 6765,3431 6741,3405 6716,3393 6690,3385 6662,3385 6635,3391 6610,3399 6598,3404 6591,3411 6587,3433 6571,3447 6551,3460 6533,3462 6521,3432 6507,3427 6482,3426 6456,3425 6431,3424 6405,3430 6379,3441 6352,3456 6325,3474 6299,3491 6273,3508 6247,3526 6221,3543 6205,3548 6180,3554 6153,3559 6127,3564 6101,3573 6076,3579 6049,3583 6022,3585 5996,3588 5970,3592 5943,3597 5916,3602 5889,3607 5863,3611 5836,3614 5810,3616 5784,3617 5757,3618 5730,3618 5703,3619 5677,3621 5652,3623 5625,3624 5599,3625 5573,3626 5565,3626 5539,3627 5511,3632 5486,3637 5459,3643 5433,3650 5407,3657 5380,3664 5355,3674 5329,3681 5302,3688 5276,3695 5251,3701 5225,3702 5199,3702 5173,3715 5173,3741 5190,3766 5208,3791 5215,3816 5223,3842 5237,3868 5258,3893 5262,3897 5288,3922 5296,3948 5271,3950 5244,3955 5219,3955 5193,3956 5168,3963 5143,3969 5116,3974 5090,3982 5064,3996 5039,4001 5012,4003 4987,4005 4961,4010 4936,4014 4910,4015 4884,4020 4857,4025 4829,4034 4804,4042 4778,4044 4752,4037 4738,4029 4712,4017 4685,4010 4660,4003 4634,4000 4608,3996 4581,3992 4555,3985 4529,3975 4502,3965 4476,3958 4451,3954 4425,3950 4397,3943 4372,3936 4345,3928 4320,3916 4295,3896 4270,3878 4264,3873 4239,3854 4213,3836 4188,3817 4167,3803 4163,3773 4136,3768 4136,3779 4112,3763 4100,3778 4066,3776 4064,3768 4077,3740 4028,3705 4000,3708 3993,3709 3990,3700 3973,3702 3971,3683 3962,3672 3959,3666 3959,3656 3953,3647 3951,3643 3956,3640 3962,3639 3972,3635 3977,3629 3981,3627 3990,3626 4002,3626 4012,3621 4027,3606 4037,3594 4041,3582 4039,3569 4030,3559 4020,3546 4015,3543 4007,3518 4005,3492 4002,3466 4027,3454 4055,3441 4080,3429 4107,3417 4133,3405 4160,3392 4186,3380 4212,3368 4238,3356 4263,3343 4290,3329 4315,3316 4340,3303 4367,3290 4393,3278 4418,3264 4444,3250 4469,3236 4494,3221 4520,3206 4546,3190 4571,3178 4596,3165 4623,3150 4648,3136 4674,3121 4700,3109 4676,3084 4650,3060 4634,3034 4624,3009 4614,2984 4605,2957 4597,2931 4584,2906 4568,2880 4550,2853 4533,2827 4515,2802 4495,2775 4475,2750 4466,2739 4425,2682 4406,2665 4404,2659 4411,2648 4413,2643 4421,2650 4456,2677 4468,2686 4488,2666 4509,2668 4510,2682 4508,2689 4514,2692 4535,2707 4558,2699 4575,2681 4591,2674 4600,2679 4610,2714 4610,2731 4611,2746 4625,2752 4648,2739 4682,2733 4717,2733 4745,2718 4774,2689 4777,2685 4776,2670 4829,2638 4863,2608 4868,2589 4876,2585 4911,2573 4932,2548 4942,2547 4988,2493 5055,2384 5061,2382 5080,2378 5108,2369 5114,2358 5113,2329 5127,2324 5121,2315 5080,2275 5072,2262 5084,2253 5089,2243 5077,2205 5069,2200 5020,2205 4974,2208 4975,2182 4971,2176 4916,2177 4932,2161 4950,2141 4963,2124 4994,2096 5010,2076 5031,2053 5049,2026 5063,2001 5074,1974 5080,1948 5084,1921 5083,1896 5083,1893 5071,1866 5060,1841 5073,1812 5071,1783 5085,1763 5112,1747 5139,1736 5165,1728 5191,1720 5218,1712 5245,1707 5272,1703 5298,1696 5325,1687 5351,1678 5379,1669 5405,1668 5431,1673 " class="polyStyle" id="320803" style="fill:#fbe6ef"/>
<polygon points="3873,885 3891,906 3900,913 3911,918 3921,916 3927,942 3952,939 3978,939 3976,965 3972,978 3985,1000 4001,1025 3989,1051 4002,1055 4010,1077 4034,1102 4060,1105 4086,1113 4112,1122 4139,1131 4143,1151 4137,1165 4129,1181 4119,1193 4125,1201 4136,1205 4150,1204 4179,1208 4201,1233 4227,1244 4253,1254 4280,1271 4300,1298 4326,1316 4352,1328 4359,1331 4386,1340 4412,1347 4437,1354 4463,1368 4467,1394 4466,1419 4458,1445 4450,1470 4447,1497 4474,1501 4479,1508 4463,1527 4438,1553 4418,1573 4409,1583 4399,1591 4410,1595 4414,1595 4442,1598 4467,1601 4463,1626 4483,1652 4499,1671 4501,1680 4497,1690 4483,1716 4471,1741 4474,1752 4479,1760 4487,1767 4513,1777 4539,1778 4564,1779 4590,1775 4616,1760 4641,1760 4667,1758 4693,1779 4714,1805 4734,1832 4760,1834 4786,1851 4813,1851 4838,1838 4864,1834 4889,1857 4903,1860 4894,1886 4884,1912 4881,1931 4872,1937 4851,1939 4846,1954 4834,1980 4808,2003 4808,2028 4812,2054 4815,2081 4816,2107 4806,2134 4795,2161 4781,2187 4763,2212 4737,2231 4727,2242 4714,2258 4702,2271 4694,2276 4694,2281 4701,2288 4709,2290 4719,2296 4729,2304 4740,2318 4746,2328 4715,2349 4689,2356 4663,2351 4637,2349 4612,2346 4587,2344 4560,2341 4535,2336 4509,2335 4484,2344 4459,2355 4433,2377 4407,2393 4382,2397 4357,2400 4331,2415 4306,2428 4280,2438 4254,2443 4229,2442 4203,2434 4177,2412 4151,2400 4124,2390 4099,2382 4073,2374 4046,2368 4020,2367 3994,2377 3975,2403 3949,2425 3924,2445 3898,2465 3872,2476 3847,2495 3835,2521 3809,2542 3784,2562 3758,2576 3731,2582 3706,2587 3680,2583 3677,2586 3676,2591 3682,2609 3700,2634 3717,2660 3735,2685 3753,2711 3771,2737 3788,2762 3806,2787 3808,2791 3827,2817 3844,2843 3862,2868 3879,2893 3883,2919 3885,2945 3872,2971 3859,2997 3843,3023 3819,3049 3798,3075 3780,3100 3763,3125 3746,3151 3728,3177 3711,3203 3694,3228 3676,3254 3659,3279 3657,3282 3640,3308 3623,3333 3605,3359 3588,3384 3571,3410 3554,3435 3537,3461 3523,3486 3512,3509 3494,3509 3486,3520 3471,3531 3467,3522 3458,3507 3453,3496 3446,3493 3437,3494 3431,3499 3428,3512 3427,3521 3416,3530 3403,3524 3378,3522 3351,3541 3325,3561 3300,3580 3274,3602 3249,3620 3224,3635 3198,3642 3173,3649 3145,3657 3118,3665 3093,3673 3067,3681 3041,3688 3015,3696 2990,3704 2963,3712 2938,3719 2912,3727 2887,3734 2867,3710 2847,3684 2828,3658 2807,3633 2785,3607 2764,3582 2742,3556 2727,3538 2721,3530 2738,3503 2754,3476 2771,3450 2788,3423 2803,3397 2819,3371 2834,3345 2849,3320 2865,3294 2881,3269 2900,3244 2902,3218 2894,3192 2893,3167 2891,3141 2890,3114 2888,3089 2887,3063 2886,3037 2895,3016 2917,2991 2925,2964 2932,2939 2936,2913 2937,2887 2937,2860 2935,2834 2933,2808 2935,2783 2939,2757 2944,2731 2956,2706 2966,2681 2986,2656 3011,2644 3017,2618 3006,2593 2979,2576 2952,2557 2927,2541 2902,2518 2885,2492 2869,2467 2849,2441 2831,2416 2817,2390 2805,2365 2795,2339 2785,2313 2776,2287 2801,2282 2827,2278 2855,2268 2880,2260 2907,2253 2934,2245 2959,2238 2986,2230 2985,2204 2975,2177 2965,2152 2957,2126 2964,2099 2974,2072 2982,2046 2987,2019 2997,1993 3023,1981 3048,1962 3056,1936 3048,1910 3033,1884 3056,1864 3043,1838 3056,1812 3030,1791 3005,1766 2991,1740 2994,1714 3002,1689 3017,1664 3000,1638 2974,1625 2965,1598 2981,1572 2986,1546 3006,1520 3014,1494 2995,1469 2992,1442 2990,1415 2988,1389 3013,1376 3035,1350 3044,1322 3063,1297 3075,1271 3087,1245 3110,1218 3129,1191 3145,1166 3170,1151 3195,1132 3220,1111 3247,1091 3272,1073 3299,1056 3315,1045 3313,1030 3312,1018 3316,1008 3330,1000 3336,1001 3354,1002 3359,1004 3379,1014 3382,1016 3396,1026 3409,1032 3421,1037 3433,1038 3445,1035 3454,1034 3473,1026 3486,1022 3520,1017 3537,1012 3547,1004 3555,998 3573,985 3575,982 3599,953 3616,950 3631,953 3641,958 3647,960 3665,958 3668,957 3677,953 3696,932 3706,926 3723,927 3735,927 3741,921 3741,903 3743,897 3755,886 3777,887 3795,887 3802,886 3828,871 3841,868 3846,868 3860,875 " class="polyStyle" id="320804" style="fill:#fbe6ef"/>
<path d="" class="polyStyle" id="320302" style="fill:#d4ecb2"/>
<path d="" class="polyStyle" id="140311" style="fill:#ee8b94"/>
<path d="" class="polyStyle" id="610802" style="fill:#ee8b94"/>
<path d="" class="polyStyle" id="120116" style="fill:#f6f67b"/>
<path d="" class="polyStyle" id="130303" style="fill:#fbe6ef"/>
<path d="" class="polyStyle" id="140211" style="fill:#f6f67b"/>
<path d="" class="polyStyle" id="150207" style="fill:#fbe6ef"/>
<path d="" class="polyStyle" id="211403" style="fill:#f6f67b"/>
<path d="" class="polyStyle" id="150802" style="fill:#f8c67d"/>
<path d="" class="polyStyle" id="210112" style="fill:#ee8b94"/>
<path d="" class="polyStyle" id="230406" style="fill:#d4ecb2"/>
<path d="" class="polyStyle" id="110113" style="fill:#fbe6ef"/>
<path d="" class="polyStyle" id="341702" style="fill:#fbe6ef"/>
<path d="" class="polyStyle" id="420303" style="fill:#ee8b94"/>
<path d="" class="polyStyle" id="340702" style="fill:#d4ecb2"/>
<path d="" class="polyStyle" id="421002" style="fill:#f6f67b"/>
<path d="" class="polyStyle" id="420117" style="fill:#f6f67b"/>
<path d="" class="polyStyle" id="440904" style="fill:#f8c67d"/>
<path d="" class="polyStyle" id="460205" style="fill:#ee8b94"/>
<path d="" class="polyStyle" id="460202" style="fill:#f6f67b"/>
<path d="" class="polyStyle" id="460203" style="fill:#fbe6ef"/>
<path d="" class="polyStyle" id="420304" style="fill:#f6f67b"/>
<path d="" class="polyStyle" id="445302" style="fill:#ee8b94"/>
<path d="" class="polyStyle" id="410202" style="fill:#d4ecb2"/>
<path d="" class="polyStyle" id="440800" style="fill:#f6f67b"/>
<path d="" class="polyStyle" id="440900" style="fill:#ee8b94"/>
<path d="" class="polyStyle" id="340800" style="fill:#ee8b94"/>
<path d="" class="polyStyle" id="460200" style="fill:#f6f67b"/>
<path d="" class="polyStyle" id="460000" style="fill:#ee8b94"/>
<path d="" class="polyStyle" id="450500" style="fill:#ee8b94"/>
<path d="" class="polyStyle" id="450600" style="fill:#ee8b94"/>
<path d="" class="polyStyle" id="440400" style="fill:#f6f67b"/>
<path d="" class="polyStyle" id="441700" style="fill:#f6f67b"/>
<path d="" class="polyStyle" id="441500" style="fill:#f6f67b"/>
<path d="" class="polyStyle" id="350600" style="fill:#ee8b94"/>
<path d="" class="polyStyle" id="710000" style="fill:#f6f67b"/>
<path d="" class="polyStyle" id="510400" style="fill:#f6f67b"/>
<path d="" class="polyStyle" id="522600" style="fill:#fbe6ef"/>
<path d="" class="polyStyle" id="520500" style="fill:#ee8b94"/>
<path d="" class="polyStyle" id="431200" style="fill:#f6f67b"/>
<path d="" class="polyStyle" id="430600" style="fill:#f6f67b"/>
<path d="" class="polyStyle" id="511400" style="fill:#d4ecb2"/>
<path d="" class="polyStyle" id="421000" style="fill:#ee8b94"/>
<path d="" class="polyStyle" id="341700" style="fill:#f6f67b"/>
<path d="" class="polyStyle" id="420500" style="fill:#f6f67b"/>
<path d="" class="polyStyle" id="511300" style="fill:#f6f67b"/>
<path d="" class="polyStyle" id="420900" style="fill:#f6f67b"/>
<path d="" class="polyStyle" id="511700" style="fill:#ee8b94"/>
<path d="" class="polyStyle" id="420600" style="fill:#d4ecb2"/>
<path d="" class="polyStyle" id="411500" style="fill:#fbe6ef"/>
<path d="" class="polyStyle" id="510800" style="fill:#ee8b94"/>
<path d="" class="polyStyle" id="420300" style="fill:#fbe6ef"/>
<path d="" class="polyStyle" id="611000" style="fill:#ee8b94"/>
<path d="" class="polyStyle" id="620800" style="fill:#fbe6ef"/>
<path d="" class="polyStyle" id="370200" style="fill:#ee8b94"/>
<path d="" class="polyStyle" id="371000" style="fill:#f6f67b"/>
<path d="" class="polyStyle" id="370600" style="fill:#fbe6ef"/>
<path d="" class="polyStyle" id="120000" style="fill:#f6f67b"/>
<path d="" class="polyStyle" id="130200" style="fill:#ee8b94"/>
<path d="" class="polyStyle" id="130300" style="fill:#f6f67b"/>
<path d="" class="polyStyle" id="652900" style="fill:#fbe6ef"/>
<path d="" class="polyStyle" id="150500" style="fill:#d4ecb2"/>
<path d="" class="polyStyle" id="" style="fill:#d4ecb2"/>
<path d="" class="polyStyle" id="350500" style="fill:#fbe6ef"/>
<path d="" class="polyStyle" id="440400" style="fill:#f6f67b"/>
<path d="" class="polyStyle" id="421100" style="fill:#d4ecb2"/>
<path d="" class="polyStyle" id="420100" style="fill:#fbe6ef"/>
<path d="" class="polyStyle" id="532500" style="fill:#fbe6ef"/>
<path d="" class="polyStyle" id="654200" style="fill:#fbe6ef"/>
<path d="" class="polyStyle" id="210700" style="fill:#d4ecb2"/>
<path d="" class="polyStyle" id="522300" style="fill:#fbe6ef"/>
<path d="" class="polyStyle" id="" style="fill:#ee8b94"/>
<path d="" class="polyStyle" id="440400" style="fill:#f6f67b"/>
<path d="" class="polyStyle" id="620000" style="fill:#f6f67b"/>
<path d="" class="polyStyle" id="430000" style="fill:#fbe6ef"/>
<path d="" class="polyStyle" id="420000" style="fill:#ee8b94"/>
<path d="" class="polyStyle" id="410000" style="fill:#f6f67b"/>
<path d="" class="polyStyle" id="350000" style="fill:#fbe6ef"/>
<path d="" class="polyStyle" id="520000" style="fill:#f6f67b"/>
<path d="" class="polyStyle" id="" style="fill:#ee8b94"/>
</svg>
