<?xml version="1.0" encoding="UTF-8"?>
<!DOCTYPE svg PUBLIC "-//W3C//DTD SVG 1.1 Tiny//EN" "http://www.w3.org/Graphics/SVG/1.1/DTD/svg11-tiny.dtd">
<svg version="1.1" xmlns="http://www.w3.org/2000/svg" xmlns:xlink="http://www.w3.org/1999/xlink" width="100%" height="100%" viewBox="0,0,5060,3464">
<title>SVG</title>
<desc>Poligon Test</desc>
<style id="style_css_sheet" type="text/css">
.polyStyle{fill: #cccccc;stroke-width:0;fill-rule:evenodd;}
</style>
<circle cx="4200" cy="424" r="200" stroke="black" stroke-width="1" fill="red" id="321182" name="扬中市"/>
<circle cx="994" cy="1865" r="200" stroke="black" stroke-width="1" fill="red" id="321183" name="句容市"/>
<circle cx="3027" cy="1622" r="200" stroke="black" stroke-width="1" fill="red" id="321181" name="丹阳市"/>
<circle cx="2500" cy="600" r="200" stroke="black" stroke-width="1" fill="red" id="321102" name="京口区"/>
<circle cx="2198" cy="612" r="200" stroke="black" stroke-width="1" fill="red" id="321111" name="润州区"/>
<circle cx="2330" cy="940" r="200" stroke="black" stroke-width="1" fill="red" id="321112" name="丹徒区"/>
<path d="" class="polyStyle" id="" style="fill:#ee8b94"/>
<path d="" class="polyStyle" id="623022" style="fill:#fbe6ef"/>
<path d="" class="polyStyle" id="211421" style="fill:#f6f67b"/>
<path d="" class="polyStyle" id="532524" style="fill:#ee8b94"/>
<path d="" class="polyStyle" id="440825" style="fill:#f6f67b"/>
<path d="" class="polyStyle" id="441721" style="fill:#f6f67b"/>
<path d="" class="polyStyle" id="450521" style="fill:#f6f67b"/>
<path d="" class="polyStyle" id="450123" style="fill:#fbe6ef"/>
<path d="" class="polyStyle" id="350624" style="fill:#f6f67b"/>
<path d="" class="polyStyle" id="" style="fill:#fbe6ef"/>
<path d="" class="polyStyle" id="451224" style="fill:#fbe6ef"/>
<path d="" class="polyStyle" id="350627" style="fill:#f6f67b"/>
<path d="" class="polyStyle" id="" style="fill:#f6f67b"/>
<path d="" class="polyStyle" id="350525" style="fill:#f6f67b"/>
<path d="" class="polyStyle" id="530124" style="fill:#ee8b94"/>
<path d="" class="polyStyle" id="522627" style="fill:#ee8b94"/>
<path d="" class="polyStyle" id="510421" style="fill:#fbe6ef"/>
<path d="" class="polyStyle" id="522623" style="fill:#d4ecb2"/>
<path d="" class="polyStyle" id="430321" style="fill:#d4ecb2"/>
<path d="" class="polyStyle" id="511129" style="fill:#d4ecb2"/>
<path d="" class="polyStyle" id="511423" style="fill:#ee8b94"/>
<path d="" class="polyStyle" id="421023" style="fill:#f6f67b"/>
<path d="" class="polyStyle" id="511724" style="fill:#f6f67b"/>
<path d="" class="polyStyle" id="420526" style="fill:#fbe6ef"/>
<path d="" class="polyStyle" id="511923" style="fill:#fbe6ef"/>
<path d="" class="polyStyle" id="420325" style="fill:#fbe6ef"/>
<path d="" class="polyStyle" id="511921" style="fill:#f6f67b"/>
<path d="" class="polyStyle" id="542525" style="fill:#f6f67b"/>
<path d="" class="polyStyle" id="611026" style="fill:#ee8b94"/>
<path d="" class="polyStyle" id="411023" style="fill:#fbe6ef"/>
<path d="" class="polyStyle" id="632323" style="fill:#f6f67b"/>
<path d="" class="polyStyle" id="140525" style="fill:#d4ecb2"/>
<path d="" class="polyStyle" id="410922" style="fill:#ee8b94"/>
<path d="" class="polyStyle" id="621027" style="fill:#ee8b94"/>
<path d="" class="polyStyle" id="130427" style="fill:#f6f67b"/>
<path d="" class="polyStyle" id="130121" style="fill:#ee8b94"/>
<path d="" class="polyStyle" id="610823" style="fill:#fbe6ef"/>
<path d="" class="polyStyle" id="130225" style="fill:#fbe6ef"/>
<path d="" class="polyStyle" id="130322" style="fill:#d4ecb2"/>
<path d="" class="polyStyle" id="653130" style="fill:#f6f67b"/>
<path d="" class="polyStyle" id="130822" style="fill:#fbe6ef"/>
<path d="" class="polyStyle" id="211221" style="fill:#f6f67b"/>
<path d="" class="polyStyle" id="210921" style="fill:#f6f67b"/>
<path d="" class="polyStyle" id="150223" style="fill:#f8c67d"/>
<path d="" class="polyStyle" id="220422" style="fill:#d4ecb2"/>
<path d="" class="polyStyle" id="340721" style="fill:#f6f67b"/>
<path d="" class="polyStyle" id="510824" style="fill:#d4ecb2"/>
<path d="" class="polyStyle" id="610324" style="fill:#f6f67b"/>
<path d="" class="polyStyle" id="530722" style="fill:#ee8b94"/>
<path d="" class="polyStyle" id="340823" style="fill:#d4ecb2"/>
<path d="" class="polyStyle" id="620825" style="fill:#d4ecb2"/>
<path d="" class="polyStyle" id="421125" style="fill:#ee8b94"/>
<path d="" class="polyStyle" id="210281" style="fill:#ee8b94"/>
<path d="" class="polyStyle" id="440883" style="fill:#f6f67b"/>
<path d="" class="polyStyle" id="469006" style="fill:#d4ecb2"/>
<path d="" class="polyStyle" id="469002" style="fill:#ee8b94"/>
<path d="" class="polyStyle" id="469005" style="fill:#fbe6ef"/>
<path d="" class="polyStyle" id="440882" style="fill:#ee8b94"/>
<path d="" class="polyStyle" id="450681" style="fill:#ee8b94"/>
<path d="" class="polyStyle" id="441581" style="fill:#d4ecb2"/>
<path d="" class="polyStyle" id="421087" style="fill:#ee8b94"/>
<path d="" class="polyStyle" id="420984" style="fill:#fbe6ef"/>
<path d="" class="polyStyle" id="420582" style="fill:#ee8b94"/>
<polygon points="1498,590 1505,602 1506,609 1506,621 1502,634 1497,640 1485,649 1479,657 1472,669 1468,683 1447,699 1422,704 1420,711 1421,717 1420,748 1393,792 1385,819 1380,854 1381,895 1388,907 1391,919 1403,943 1421,944 1460,931 1472,929 1478,934 1483,953 1491,966 1501,978 1520,992 1532,1025 1539,1053 1546,1059 1558,1064 1589,1082 1619,1095 1626,1098 1647,1123 1661,1117 1700,1106 1706,1108 1743,1132 1775,1141 1781,1144 1787,1149 1791,1152 1809,1175 1820,1194 1826,1209 1811,1233 1832,1247 1838,1249 1900,1259 1915,1278 1950,1303 1974,1325 1982,1338 1992,1369 1998,1382 2005,1420 2005,1426 1996,1454 1995,1468 2005,1480 2020,1506 2025,1531 2015,1550 1976,1579 1972,1586 1981,1599 2011,1629 2035,1665 2063,1672 2069,1678 2071,1692 2065,1713 2064,1726 2071,1740 2071,1747 2069,1753 2062,1757 2048,1763 2025,1768 2019,1769 1999,1768 1987,1763 1965,1761 1946,1770 1934,1771 1926,1776 1893,1805 1877,1825 1874,1831 1869,1851 1870,1858 1889,1872 1887,1878 1880,1882 1888,1896 1886,1902 1872,1905 1853,1916 1847,1923 1846,1929 1848,1936 1856,1941 1878,1945 1889,1958 1892,1964 1897,1976 1899,1988 1896,1994 1886,2006 1874,2030 1860,2042 1859,2048 1860,2061 1863,2067 1868,2086 1867,2118 1864,2126 1849,2146 1844,2159 1860,2181 1861,2193 1855,2205 1849,2211 1835,2231 1834,2237 1837,2275 1842,2289 1846,2295 1847,2298 1843,2300 1819,2322 1803,2341 1800,2347 1798,2360 1800,2366 1822,2388 1815,2407 1804,2420 1772,2441 1754,2459 1750,2465 1748,2472 1721,2517 1722,2523 1728,2526 1733,2532 1735,2538 1734,2545 1725,2570 1719,2582 1720,2600 1724,2606 1731,2611 1744,2616 1747,2622 1742,2654 1750,2667 1737,2675 1726,2688 1720,2700 1711,2713 1681,2749 1675,2761 1674,2768 1675,2788 1684,2837 1682,2850 1683,2888 1679,2925 1699,2932 1732,2931 1759,2928 1766,2930 1778,2941 1788,2953 1800,2963 1799,2971 1795,2977 1774,2989 1768,2994 1759,3012 1765,3027 1769,3034 1775,3040 1762,3047 1757,3053 1778,3064 1791,3069 1795,3076 1794,3089 1768,3155 1760,3170 1743,3207 1735,3233 1720,3251 1685,3288 1652,3316 1599,3344 1593,3349 1577,3368 1565,3376 1531,3386 1499,3406 1479,3411 1466,3420 1453,3426 1393,3441 1337,3464 1322,3456 1318,3448 1314,3429 1290,3439 1259,3440 1232,3452 1213,3452 1210,3446 1212,3433 1211,3427 1205,3421 1198,3418 1184,3407 1182,3401 1184,3375 1183,3368 1179,3361 1173,3357 1153,3354 1141,3354 1117,3350 1104,3346 1091,3345 1085,3341 1081,3335 1100,3315 1111,3295 1112,3289 1100,3269 1088,3257 1081,3232 1084,3202 1101,3177 1103,3164 1103,3157 1101,3151 1087,3126 1081,3119 1075,3115 1060,3114 1046,3109 1021,3108 1009,3101 1003,3100 996,3102 991,3095 942,3094 936,3089 932,3070 906,3076 906,3063 902,3049 891,3030 860,3002 846,2983 840,2979 809,2980 801,2977 796,2970 784,2932 774,2911 755,2899 735,2895 722,2890 699,2863 695,2857 703,2838 700,2831 693,2830 687,2832 674,2833 660,2830 631,2819 624,2814 619,2808 615,2780 602,2747 593,2735 581,2723 575,2721 543,2722 537,2718 536,2712 541,2685 535,2671 503,2672 497,2676 492,2682 484,2682 478,2681 429,2646 391,2647 359,2651 346,2658 326,2672 313,2671 299,2667 262,2695 256,2698 237,2698 231,2711 225,2716 219,2712 214,2706 195,2696 188,2696 181,2699 175,2705 161,2737 151,2750 145,2753 141,2747 129,2747 108,2762 72,2770 54,2767 50,2756 56,2749 62,2728 66,2714 61,2702 64,2675 72,2671 89,2668 115,2670 142,2671 168,2669 182,2643 190,2628 185,2617 185,2598 171,2591 145,2579 124,2554 111,2527 96,2521 94,2505 89,2501 62,2492 36,2480 17,2475 10,2464 9,2460 16,2441 5,2435 0,2417 12,2408 19,2409 37,2410 45,2403 48,2396 48,2380 56,2377 82,2373 109,2370 129,2370 134,2375 160,2364 186,2360 213,2359 239,2359 264,2360 279,2359 290,2348 314,2322 340,2320 360,2322 367,2318 381,2299 392,2294 418,2288 445,2276 470,2259 488,2247 496,2245 509,2256 526,2270 565,2281 610,2288 628,2285 654,2263 660,2250 663,2224 664,2219 671,2200 688,2174 695,2167 707,2163 732,2163 739,2159 744,2149 747,2134 748,2123 747,2109 745,2102 735,2096 706,2087 710,2072 714,2057 705,2047 700,2038 697,2021 694,1996 693,1981 688,1969 683,1958 679,1948 661,1931 656,1927 636,1930 610,1934 599,1932 596,1922 574,1912 540,1907 504,1897 493,1894 478,1895 452,1897 426,1894 413,1909 401,1911 382,1912 376,1908 367,1903 351,1901 339,1895 326,1881 306,1854 297,1840 296,1829 298,1803 324,1778 350,1775 360,1770 377,1752 390,1747 415,1747 442,1736 469,1725 497,1728 522,1744 548,1727 574,1720 600,1720 625,1735 652,1756 667,1764 678,1765 693,1760 704,1745 708,1720 713,1698 722,1692 731,1693 744,1702 754,1704 757,1688 758,1667 748,1663 726,1657 721,1651 720,1625 721,1600 714,1590 698,1580 672,1567 663,1564 654,1578 646,1579 615,1578 611,1572 620,1558 635,1541 638,1531 633,1506 621,1481 624,1456 611,1430 613,1404 596,1378 587,1352 582,1326 603,1301 621,1275 634,1249 641,1234 643,1223 646,1196 649,1170 650,1157 649,1143 640,1133 631,1131 606,1140 597,1141 581,1129 563,1103 554,1077 551,1056 529,1051 503,1051 478,1059 452,1070 436,1080 426,1070 412,1070 401,1074 385,1083 375,1075 352,1048 357,1037 358,1029 347,1023 321,1021 296,1023 270,1027 244,1028 218,1026 195,1019 191,1019 195,1001 202,993 205,986 206,968 210,959 232,947 250,947 257,942 272,916 285,890 310,864 315,859 310,846 315,839 340,813 367,800 392,791 418,785 444,781 470,782 497,784 522,784 530,781 532,758 538,731 545,717 526,708 528,705 535,694 561,700 574,700 600,696 627,689 653,683 681,676 706,668 724,663 748,660 758,654 782,637 795,630 809,628 825,626 834,628 850,631 861,638 886,651 913,658 931,663 970,662 990,660 1017,655 1043,649 1064,643 1070,642 1079,645 1095,654 1115,664 1121,666 1147,660 1173,652 1192,646 1225,639 1232,635 1237,630 1242,622 1252,596 1258,586 1287,566 1313,549 1326,538 1339,526 1351,500 1352,494 1403,529 " class="polyStyle" id="321183" style="fill:#d4ecb2"/>
<polygon points="4175,29 4219,52 4258,80 4263,83 4267,85 4294,99 4319,113 4346,128 4371,142 4397,157 4423,175 4449,192 4475,213 4501,239 4519,265 4530,291 4545,316 4554,342 4560,368 4570,393 4576,420 4583,446 4590,472 4597,497 4604,523 4612,550 4619,575 4626,600 4632,627 4639,653 4645,678 4650,705 4654,731 4659,756 4663,783 4668,808 4674,834 4679,855 4680,861 4690,886 4701,912 4710,938 4721,964 4736,990 4750,1017 4761,1042 4766,1062 4772,1087 4781,1113 4793,1139 4805,1166 4816,1191 4831,1218 4846,1243 4863,1270 4880,1297 4896,1323 4911,1348 4926,1373 4942,1398 4958,1425 4981,1451 5003,1477 5025,1504 5044,1530 5060,1553 5034,1555 5009,1557 4984,1557 4956,1561 4936,1567 4912,1580 4881,1574 4861,1573 4843,1574 4802,1571 4757,1573 4738,1570 4720,1558 4697,1536 4686,1521 4671,1490 4661,1462 4650,1431 4636,1402 4635,1378 4638,1361 4633,1360 4642,1334 4640,1307 4644,1280 4621,1255 4595,1231 4570,1207 4544,1184 4519,1167 4493,1151 4467,1136 4442,1123 4416,1111 4390,1098 4364,1087 4337,1077 4311,1067 4285,1057 4260,1048 4234,1046 4207,1047 4179,1051 4152,1043 4135,1027 4120,1001 4113,976 4113,950 4116,924 4122,898 4129,871 4138,846 4156,821 4163,793 4167,767 4144,720 4143,697 4159,676 4185,665 4220,661 4238,661 4260,658 4262,635 4261,613 4276,610 4303,607 4321,602 4295,578 4269,563 4244,555 4218,552 4191,548 4164,551 4138,559 4112,563 4087,564 4061,559 4035,547 4010,534 3984,520 3958,504 3932,488 3906,469 3881,451 3855,431 3829,410 3803,389 3778,370 3751,354 3724,339 3696,327 3670,316 3644,304 3644,278 3658,252 3670,227 3678,203 3682,195 3695,178 3712,151 3729,124 3744,101 3764,75 3790,54 3815,38 3841,25 3867,16 3892,9 3951,0 4012,0 4127,16 " class="polyStyle" id="321182" style="fill:#f6f67b"/>
<path d="" class="polyStyle" id="370282" style="fill:#f6f67b"/>
<path d="" class="polyStyle" id="371083" style="fill:#f6f67b"/>
<path d="" class="polyStyle" id="371082" style="fill:#fbe6ef"/>
<path d="" class="polyStyle" id="652801" style="fill:#f8c67d"/>
<path d="" class="polyStyle" id="654301" style="fill:#ee8b94"/>
<path d="" class="polyStyle" id="370687" style="fill:#ee8b94"/>
<path d="" class="polyStyle" id="371482" style="fill:#d4ecb2"/>
<path d="" class="polyStyle" id="421081" style="fill:#fbe6ef"/>
<path d="" class="polyStyle" id="429006" style="fill:#f6f67b"/>
<path d="" class="polyStyle" id="440982" style="fill:#d4ecb2"/>
<path d="" class="polyStyle" id="421181" style="fill:#d4ecb2"/>
<path d="M3721,930 L3740,934 L3747,943 L3755,968 L3756,995 L3757,1006 L3771,1021 L3796,1019 L3822,1017 L3823,1004 L3834,1004 L3848,1003 L3873,1005 L3899,1009 L3925,1014 L3951,1019 L3977,1022 L4005,1026 L4032,1026 L4057,1028 L4083,1031 L4108,1031 L4135,1027 L4152,1043 L4179,1051 L4207,1047 L4234,1046 L4260,1048 L4285,1057 L4311,1067 L4337,1077 L4364,1087 L4390,1098 L4416,1111 L4442,1123 L4467,1136 L4493,1151 L4519,1167 L4544,1184 L4570,1207 L4595,1231 L4621,1255 L4644,1280 L4640,1307 L4642,1334 L4633,1360 L4609,1357 L4585,1384 L4558,1385 L4536,1358 L4521,1332 L4506,1306 L4479,1312 L4454,1330 L4429,1306 L4402,1292 L4375,1292 L4352,1317 L4327,1325 L4299,1330 L4273,1318 L4248,1311 L4222,1314 L4197,1312 L4171,1310 L4145,1331 L4127,1356 L4113,1382 L4098,1409 L4082,1435 L4067,1461 L4056,1487 L4043,1512 L4042,1520 L4068,1526 L4075,1531 L4055,1552 L4052,1578 L4057,1584 L4049,1600 L4044,1625 L4035,1632 L4031,1650 L4031,1659 L4042,1669 L4040,1677 L4033,1702 L4025,1727 L4017,1752 L4010,1778 L4002,1804 L3994,1829 L3991,1846 L3995,1854 L4022,1862 L4038,1867 L4048,1881 L4066,1917 L4077,1932 L4100,1955 L4099,1967 L4079,1981 L4065,2005 L4064,2025 L4062,2030 L4063,2034 L4055,2051 L4056,2058 L4059,2070 L4064,2077 L4063,2079 L4060,2084 L4045,2083 L4019,2085 L3993,2106 L3973,2132 L3950,2157 L3923,2154 L3925,2181 L3948,2206 L3972,2227 L3973,2253 L3972,2279 L3968,2304 L3985,2330 L4011,2352 L4038,2345 L4063,2330 L4091,2327 L4118,2325 L4146,2323 L4173,2326 L4201,2328 L4196,2354 L4181,2379 L4165,2405 L4144,2432 L4118,2448 L4105,2473 L4083,2499 L4086,2525 L4111,2549 L4084,2550 L4058,2553 L4033,2553 L4008,2551 L3981,2550 L3968,2575 L3965,2600 L3961,2605 L3951,2631 L3943,2657 L3917,2660 L3892,2662 L3895,2687 L3882,2713 L3860,2738 L3843,2764 L3834,2790 L3838,2816 L3831,2842 L3825,2868 L3842,2895 L3854,2920 L3854,2934 L3852,2935 L3851,2933 L3846,2934 L3843,2934 L3839,2933 L3834,2933 L3831,2933 L3827,2932 L3823,2932 L3818,2931 L3815,2931 L3811,2931 L3809,2930 L3805,2930 L3802,2930 L3798,2930 L3794,2929 L3790,2929 L3788,2928 L3785,2928 L3781,2927 L3777,2927 L3774,2926 L3771,2925 L3768,2923 L3763,2921 L3760,2920 L3756,2918 L3753,2915 L3749,2912 L3746,2911 L3743,2909 L3740,2907 L3737,2905 L3732,2904 L3727,2903 L3723,2903 L3719,2902 L3715,2902 L3710,2902 L3706,2902 L3702,2901 L3698,2901 L3694,2900 L3691,2896 L3691,2893 L3689,2890 L3688,2887 L3688,2884 L3688,2881 L3688,2877 L3687,2874 L3687,2870 L3687,2868 L3687,2865 L3686,2861 L3686,2858 L3686,2855 L3684,2852 L3682,2851 L3679,2848 L3677,2845 L3674,2844 L3670,2841 L3666,2840 L3664,2838 L3661,2837 L3658,2836 L3656,2834 L3653,2833 L3649,2830 L3646,2827 L3643,2825 L3639,2823 L3635,2820 L3633,2819 L3630,2816 L3627,2813 L3625,2810 L3624,2806 L3623,2803 L3622,2800 L3620,2796 L3620,2792 L3619,2789 L3618,2786 L3617,2783 L3616,2778 L3615,2775 L3615,2772 L3614,2770 L3614,2767 L3612,2764 L3611,2761 L3608,2758 L3604,2753 L3601,2750 L3596,2745 L3592,2743 L3587,2742 L3584,2741 L3581,2741 L3578,2740 L3574,2740 L3569,2739 L3567,2739 L3564,2738 L3561,2737 L3557,2737 L3553,2737 L3550,2737 L3546,2737 L3543,2736 L3540,2736 L3536,2736 L3533,2736 L3530,2735 L3527,2735 L3523,2734 L3519,2734 L3515,2733 L3511,2733 L3506,2732 L3504,2731 L3501,2731 L3497,2730 L3495,2730 L3492,2730 L3489,2729 L3486,2729 L3483,2728 L3480,2728 L3477,2727 L3473,2727 L3468,2726 L3463,2726 L3459,2725 L3454,2724 L3450,2723 L3446,2723 L3442,2722 L3437,2722 L3432,2720 L3429,2719 L3426,2717 L3424,2716 L3421,2713 L3418,2710 L3416,2709 L3413,2706 L3410,2704 L3407,2701 L3406,2698 L3405,2695 L3404,2692 L3403,2689 L3402,2686 L3401,2683 L3401,2679 L3399,2676 L3399,2674 L3398,2671 L3396,2667 L3393,2663 L3390,2660 L3387,2657 L3384,2654 L3383,2652 L3380,2649 L3377,2646 L3376,2643 L3377,2640 L3377,2637 L3377,2634 L3378,2631 L3378,2627 L3378,2623 L3378,2619 L3377,2616 L3376,2612 L3374,2611 L3371,2611 L3367,2609 L3363,2609 L3359,2608 L3356,2607 L3353,2606 L3349,2606 L3347,2605 L3343,2603 L3338,2602 L3334,2600 L3330,2598 L3328,2595 L3325,2592 L3322,2589 L3320,2587 L3318,2585 L3315,2585 L3312,2585 L3308,2584 L3305,2584 L3301,2584 L3298,2586 L3294,2590 L3292,2593 L3289,2597 L3285,2601 L3282,2605 L3278,2606 L3274,2606 L3270,2606 L3265,2606 L3261,2607 L3257,2607 L3253,2607 L3249,2607 L3245,2608 L3241,2608 L3237,2608 L3233,2608 L3228,2609 L3225,2607 L3221,2606 L3218,2604 L3215,2601 L3214,2597 L3213,2595 L3213,2592 L3212,2589 L3211,2586 L3210,2581 L3208,2577 L3206,2575 L3205,2572 L3202,2570 L3198,2567 L3194,2565 L3190,2563 L3186,2561 L3182,2558 L3182,2554 L3183,2551 L3184,2548 L3184,2545 L3184,2543 L3183,2540 L3183,2537 L3182,2534 L3182,2531 L3181,2526 L3181,2523 L3180,2520 L3180,2516 L3179,2513 L3179,2508 L3178,2505 L3178,2502 L3178,2499 L3178,2495 L3178,2492 L3178,2489 L3178,2485 L3179,2480 L3177,2478 L3174,2476 L3171,2474 L3166,2474 L3163,2473 L3159,2473 L3157,2473 L3153,2472 L3150,2472 L3146,2471 L3145,2468 L3145,2465 L3144,2463 L3143,2460 L3142,2456 L3141,2454 L3140,2450 L3136,2451 L3132,2451 L3128,2451 L3123,2452 L3119,2453 L3115,2453 L3110,2454 L3106,2454 L3102,2455 L3100,2454 L3101,2451 L3102,2448 L3103,2446 L3104,2443 L3105,2440 L3105,2437 L3107,2435 L3108,2432 L3109,2430 L3109,2427 L3110,2423 L3111,2420 L3112,2416 L3113,2413 L3112,2410 L3108,2406 L3106,2404 L3105,2401 L3105,2398 L3104,2395 L3104,2391 L3103,2389 L3103,2385 L3102,2382 L3102,2379 L3101,2375 L3100,2371 L3099,2368 L3098,2365 L3097,2361 L3094,2358 L3091,2355 L3088,2352 L3086,2352 L3083,2352 L3080,2351 L3076,2351 L3072,2351 L3068,2350 L3064,2350 L3060,2350 L3056,2349 L3051,2349 L3047,2348 L3044,2348 L3041,2348 L3038,2347 L3035,2346 L3032,2343 L3029,2340 L3025,2337 L3021,2333 L3018,2330 L3014,2326 L3011,2323 L3009,2323 L3007,2320 L3003,2317 L2999,2316 L2997,2315 L2994,2315 L2990,2313 L2985,2312 L2980,2311 L2976,2311 L2972,2310 L2968,2310 L2963,2310 L2959,2310 L2956,2309 L2952,2309 L2949,2306 L2947,2303 L2944,2300 L2944,2295 L2944,2292 L2945,2289 L2945,2285 L2945,2282 L2945,2280 L2943,2278 L2940,2276 L2937,2276 L2933,2277 L2931,2279 L2928,2281 L2926,2284 L2923,2287 L2920,2289 L2918,2292 L2915,2295 L2912,2298 L2909,2301 L2907,2304 L2904,2306 L2901,2307 L2896,2308 L2892,2308 L2888,2308 L2884,2309 L2879,2309 L2874,2309 L2871,2309 L2867,2309 L2863,2310 L2859,2310 L2856,2310 L2852,2311 L2850,2312 L2846,2312 L2842,2313 L2839,2313 L2838,2316 L2838,2320 L2835,2322 L2830,2322 L2826,2322 L2822,2322 L2818,2322 L2814,2322 L2812,2322 L2809,2322 L2806,2322 L2802,2322 L2798,2322 L2794,2322 L2789,2321 L2785,2321 L2781,2321 L2778,2322 L2775,2322 L2771,2323 L2767,2323 L2764,2324 L2761,2325 L2757,2325 L2754,2326 L2750,2327 L2747,2327 L2744,2327 L2740,2328 L2736,2328 L2731,2329 L2728,2329 L2723,2329 L2719,2330 L2715,2330 L2712,2330 L2709,2330 L2706,2330 L2701,2331 L2698,2331 L2693,2331 L2690,2331 L2687,2328 L2685,2325 L2682,2322 L2679,2319 L2676,2317 L2673,2315 L2670,2314 L2667,2313 L2663,2311 L2659,2310 L2654,2309 L2649,2308 L2646,2308 L2643,2308 L2639,2307 L2636,2306 L2632,2304 L2629,2303 L2625,2301 L2622,2300 L2619,2298 L2617,2295 L2614,2291 L2611,2288 L2610,2287 L2608,2284 L2605,2280 L2602,2278 L2600,2277 L2597,2275 L2594,2273 L2591,2271 L2588,2269 L2585,2267 L2582,2265 L2577,2264 L2572,2262 L2567,2261 L2564,2260 L2561,2258 L2558,2255 L2554,2252 L2553,2251 L2550,2248 L2546,2244 L2543,2241 L2539,2237 L2536,2233 L2533,2230 L2529,2230 L2524,2230 L2521,2230 L2519,2230 L2516,2230 L2513,2230 L2509,2231 L2505,2231 L2501,2232 L2497,2232 L2495,2233 L2491,2232 L2489,2231 L2486,2228 L2483,2225 L2481,2223 L2479,2220 L2479,2217 L2479,2214 L2480,2210 L2480,2205 L2479,2202 L2478,2199 L2476,2196 L2475,2192 L2473,2189 L2471,2186 L2468,2183 L2464,2182 L2461,2181 L2457,2179 L2453,2178 L2449,2176 L2444,2174 L2441,2172 L2436,2171 L2432,2169 L2428,2168 L2425,2166 L2421,2165 L2418,2164 L2415,2164 L2410,2164 L2406,2164 L2402,2164 L2398,2164 L2395,2164 L2392,2165 L2389,2168 L2387,2170 L2384,2171 L2381,2174 L2378,2176 L2375,2179 L2372,2182 L2369,2184 L2366,2187 L2363,2189 L2360,2192 L2356,2195 L2352,2198 L2349,2201 L2344,2205 L2340,2208 L2337,2208 L2332,2207 L2329,2207 L2326,2206 L2323,2205 L2319,2207 L2318,2210 L2317,2212 L2315,2213 L2312,2216 L2309,2217 L2306,2218 L2303,2220 L2300,2220 L2298,2222 L2295,2223 L2291,2225 L2288,2226 L2285,2227 L2282,2229 L2279,2230 L2277,2231 L2273,2232 L2271,2234 L2269,2235 L2249,2225 L2228,2219 L2222,2210 L2217,2185 L2220,2165 L2216,2160 L2202,2150 L2191,2139 L2190,2127 L2199,2110 L2197,2098 L2186,2080 L2163,2055 L2158,2050 L2162,2041 L2181,2029 L2207,2008 L2216,1983 L2220,1969 L2232,1956 L2258,1933 L2260,1927 L2257,1915 L2241,1907 L2237,1901 L2234,1881 L2242,1863 L2241,1856 L2240,1842 L2244,1829 L2259,1804 L2274,1779 L2289,1754 L2295,1746 L2297,1728 L2299,1702 L2298,1676 L2299,1650 L2294,1625 L2300,1605 L2306,1599 L2311,1595 L2322,1570 L2331,1551 L2342,1544 L2368,1531 L2379,1527 L2388,1515 L2388,1506 L2372,1479 L2359,1454 L2346,1428 L2360,1402 L2386,1392 L2412,1395 L2438,1416 L2464,1396 L2474,1370 L2486,1345 L2513,1326 L2538,1305 L2536,1279 L2535,1254 L2551,1228 L2576,1203 L2601,1203 L2621,1200 L2621,1187 L2626,1179 L2652,1172 L2678,1177 L2703,1183 L2730,1197 L2755,1214 L2780,1230 L2805,1240 L2817,1238 L2831,1228 L2842,1229 L2868,1251 L2893,1256 L2920,1271 L2946,1272 L2973,1252 L2999,1239 L3017,1230 L3027,1225 L3037,1215 L3046,1201 L3079,1196 L3113,1223 L3144,1207 L3151,1225 L3154,1236 L3163,1250 L3182,1276 L3208,1264 L3233,1269 L3259,1256 L3276,1246 L3285,1231 L3301,1206 L3313,1188 L3326,1178 L3339,1171 L3369,1171 L3379,1153 L3379,1149 L3368,1140 L3372,1122 L3384,1096 L3389,1085 L3388,1079 L3391,1070 L3404,1067 L3418,1071 L3443,1077 L3454,1080 L3469,1094 L3486,1112 L3495,1116 L3505,1114 L3521,1101 L3531,1093 L3540,1075 L3546,1072 L3565,1072 L3583,1070 L3592,1064 L3617,1047 L3631,1033 L3626,1022 L3611,1008 L3612,996 L3621,970 L3642,948 L3653,932 L3668,926 L3695,925 L3721,930 L3721,930z M3018,2330 L3018,2330 L3018,2330z M3601,2750 L3601,2750 L3601,2750z " class="polyStyle" id="321181" style="fill:#d4ecb2"/>
<path d="" class="polyStyle" id="659007" style="fill:#ee8b94"/>
<path d="" class="polyStyle" id="652701" style="fill:#fbe6ef"/>
<path d="" class="polyStyle" id="210781" style="fill:#fbe6ef"/>
<path d="" class="polyStyle" id="460204" style="fill:#f6f67b"/>
<path d="" class="polyStyle" id="210211" style="fill:#f6f67b"/>
<path d="" class="polyStyle" id="450512" style="fill:#ee8b94"/>
<path d="" class="polyStyle" id="450602" style="fill:#fbe6ef"/>
<path d="" class="polyStyle" id="440404" style="fill:#ee8b94"/>
<path d="" class="polyStyle" id="440403" style="fill:#f6f67b"/>
<path d="" class="polyStyle" id="441502" style="fill:#f6f67b"/>
<path d="" class="polyStyle" id="431002" style="fill:#d4ecb2"/>
<path d="" class="polyStyle" id="500107" style="fill:#fbe6ef"/>
<path d="" class="polyStyle" id="430611" style="fill:#d4ecb2"/>
<path d="" class="polyStyle" id="511304" style="fill:#fbe6ef"/>
<path d="" class="polyStyle" id="340711" style="fill:#ee8b94"/>
<path d="" class="polyStyle" id="320118" style="fill:#f6f67b"/>
<path d="" class="polyStyle" id="510704" style="fill:#f6f67b"/>
<polygon points="1832,1058 1835,1059 1838,1059 1841,1060 1841,1064 1840,1067 1847,1069 1852,1068 1853,1064 1880,1061 1887,1061 1885,1065 1884,1068 1881,1071 1881,1075 1888,1089 1890,1094 1892,1097 1894,1101 1894,1105 1893,1107 1890,1109 1888,1111 1884,1112 1880,1112 1873,1116 1873,1120 1874,1123 1873,1127 1874,1130 1873,1134 1870,1133 1869,1131 1868,1129 1867,1126 1865,1125 1863,1126 1860,1126 1857,1126 1854,1125 1850,1124 1848,1124 1846,1127 1845,1129 1842,1130 1839,1132 1837,1134 1840,1137 1843,1139 1846,1143 1847,1145 1847,1147 1848,1151 1847,1154 1844,1155 1842,1152 1839,1150 1835,1148 1832,1148 1828,1147 1827,1149 1826,1151 1823,1153 1819,1151 1819,1147 1818,1144 1815,1142 1809,1141 1805,1142 1800,1142 1797,1146 1794,1148 1791,1152 1787,1149 1781,1144 1775,1141 1743,1132 1706,1108 1700,1106 1661,1117 1647,1123 1626,1098 1619,1095 1630,1088 1633,1085 1633,1080 1633,1076 1631,1072 1628,1071 1625,1070 1622,1070 1620,1072 1620,1076 1618,1078 1616,1076 1613,1070 1616,1065 1616,1061 1614,1057 1616,1054 1621,1053 1623,1051 1627,1050 1630,1049 1634,1049 1637,1051 1640,1052 1644,1052 1647,1055 1650,1058 1654,1062 1657,1061 1660,1060 1660,1057 1663,1054 1665,1053 1668,1052 1670,1052 1673,1053 1674,1056 1676,1059 1677,1061 1680,1061 1684,1061 1687,1062 1689,1060 1696,1061 1699,1061 1702,1060 1705,1057 1705,1054 1708,1054 1714,1053 1711,1049 1707,1044 1709,1041 1710,1038 1712,1033 1714,1029 1721,1029 1725,1030 1730,1031 1733,1031 1736,1030 1740,1030 1743,1029 1745,1027 1750,1025 1754,1023 1781,1019 1784,1018 1790,1016 1794,1015 1810,1014 1834,1044 " class="polyStyle" id="321111" style="fill:#d4ecb2"/>
<polygon points="1765,423 1791,432 1817,440 1844,443 1871,446 1899,450 1925,453 1951,455 1959,456 1985,460 2012,463 2037,462 2063,462 2077,459 2066,485 2041,511 2015,537 1990,557 1964,573 1939,583 1913,592 1888,602 1862,611 1837,618 1809,623 1782,628 1766,633 1747,647 1747,668 1751,669 1757,669 1764,670 1768,671 1771,672 1776,672 1780,673 1788,672 1791,672 1797,672 1801,672 1806,672 1810,672 1814,672 1819,673 1823,673 1826,674 1831,675 1835,675 1843,677 1846,677 1850,678 1855,678 1861,679 1863,678 1866,676 1870,674 1872,671 1877,668 1880,665 1883,665 1886,665 1887,669 1888,672 1890,675 1892,678 1894,679 1897,680 1905,682 1912,683 1924,684 1928,685 1936,685 1935,689 1935,693 1935,696 1938,696 1940,698 1944,700 1944,703 1945,706 1946,709 1945,711 1943,712 1944,717 1938,727 1934,736 1938,738 1941,740 1940,743 1938,744 1936,748 1932,748 1928,747 1925,751 1922,755 1920,756 1918,758 1916,759 1913,760 1917,765 1918,767 1921,770 1926,772 1929,775 1932,777 1934,781 1937,785 1941,783 1947,781 1950,778 1952,777 1955,777 1957,774 1960,772 1972,769 1981,766 1985,768 1989,767 1995,767 1998,771 2001,768 2003,770 2004,772 2008,774 2011,773 2013,775 2016,776 2026,777 2028,780 2028,785 2024,790 2019,792 2016,793 2012,793 2009,793 2006,795 2003,796 2000,797 1998,798 1994,797 1994,802 2003,804 2010,805 2012,806 2015,808 2018,809 2021,811 2021,813 2021,816 2021,819 2021,822 2021,828 2019,832 2015,832 2012,832 2009,831 2007,829 2004,826 2001,824 2000,821 1999,818 1997,814 1994,813 1992,814 1989,814 1986,814 1970,815 1965,816 1965,819 1968,823 1971,824 1970,828 1970,830 1970,833 1972,836 1975,840 1977,843 1979,845 1981,848 1978,851 1973,854 1981,859 1983,861 1986,869 1989,877 1985,878 1981,878 1978,879 1980,885 1981,890 1981,893 1981,901 1991,902 2007,900 2010,900 2012,901 2013,902 2016,905 2018,903 2019,901 2016,898 2015,894 2018,894 2021,894 2023,892 2026,892 2027,896 2029,897 2032,901 2033,898 2033,894 2034,890 2036,889 2040,889 2043,890 2042,894 2041,897 2043,900 2045,904 2048,902 2050,903 2053,904 2055,906 2059,904 2064,903 2068,902 2072,901 2076,901 2080,900 2083,901 2086,899 2084,894 2084,892 2087,890 2090,892 2096,893 2113,900 2134,905 2157,905 2158,901 2162,899 2165,896 2167,894 2169,891 2176,889 2183,887 2186,888 2189,890 2191,885 2194,885 2196,886 2199,886 2202,888 2204,891 2202,894 2204,898 2206,906 2213,906 2218,906 2222,906 2225,906 2227,906 2231,904 2234,899 2236,898 2237,895 2239,888 2239,884 2234,880 2232,877 2236,875 2239,873 2240,867 2241,864 2241,860 2244,853 2241,849 2238,846 2235,842 2232,842 2231,838 2221,838 2216,836 2213,835 2215,828 2215,825 2211,824 2210,820 2209,817 2208,815 2206,812 2203,805 2202,801 2203,798 2209,796 2208,791 2215,790 2212,781 2212,779 2220,776 2224,776 2226,775 2230,776 2233,777 2234,773 2238,774 2242,772 2244,770 2243,768 2253,767 2256,769 2257,770 2258,773 2264,774 2271,775 2274,776 2277,776 2281,775 2287,773 2292,771 2295,771 2297,771 2299,773 2301,775 2304,778 2304,781 2306,784 2309,787 2312,785 2312,782 2314,781 2317,780 2321,782 2323,785 2325,792 2326,795 2326,798 2322,800 2319,802 2316,803 2315,799 2315,795 2312,797 2309,798 2306,796 2300,797 2302,800 2304,801 2304,804 2303,807 2301,806 2299,808 2298,812 2296,816 2295,820 2296,822 2297,823 2295,830 2290,837 2286,842 2283,846 2280,848 2277,854 2280,857 2283,861 2286,859 2293,859 2299,859 2307,864 2310,862 2312,864 2322,863 2325,863 2328,863 2331,864 2337,864 2344,869 2368,880 2393,892 2398,891 2401,891 2414,884 2419,883 2424,882 2435,881 2440,879 2442,875 2440,871 2436,870 2438,868 2440,861 2444,859 2448,856 2455,852 2465,854 2470,854 2476,856 2477,860 2476,868 2474,876 2478,876 2480,875 2483,873 2487,872 2489,877 2491,880 2496,879 2496,883 2496,885 2493,888 2493,891 2495,892 2495,895 2497,898 2499,900 2500,901 2501,905 2503,908 2504,911 2507,914 2510,912 2514,910 2519,911 2519,913 2522,913 2525,911 2527,910 2530,908 2534,909 2536,911 2540,915 2547,919 2559,923 2571,925 2582,921 2594,919 2602,916 2606,915 2609,915 2612,916 2617,917 2628,918 2631,918 2635,919 2638,920 2641,919 2643,918 2645,914 2650,916 2650,912 2650,908 2648,906 2648,903 2657,896 2670,890 2677,874 2680,872 2678,867 2679,865 2680,862 2680,859 2682,856 2684,853 2691,855 2693,853 2695,848 2698,846 2701,847 2708,845 2712,844 2722,851 2733,854 2743,856 2747,856 2749,856 2752,856 2755,856 2757,855 2760,855 2764,855 2768,854 2774,850 2775,847 2777,845 2779,844 2789,822 2793,809 2791,806 2792,804 2796,804 2800,804 2802,802 2805,802 2802,800 2799,798 2798,796 2797,793 2800,789 2802,786 2807,785 2823,778 2831,776 2843,769 2844,766 2845,763 2847,762 2850,760 2853,761 2857,763 2860,763 2863,762 2867,762 2870,764 2868,767 2867,771 2868,773 2870,775 2869,778 2865,779 2861,780 2857,780 2854,779 2849,779 2846,782 2846,786 2851,788 2853,792 2855,795 2855,799 2857,803 2858,807 2859,810 2860,813 2860,816 2860,821 2863,821 2868,822 2869,826 2872,829 2872,831 2874,836 2877,839 2880,840 2884,843 2886,846 2889,851 2890,854 2893,858 2895,860 2898,863 2902,863 2905,863 2920,865 2922,868 2926,868 2930,869 2929,875 2926,881 2925,885 2925,888 2927,891 2931,894 2935,895 2938,896 2943,899 2945,902 2945,904 2949,906 2953,906 2958,905 2959,902 2969,902 2971,901 2970,898 2971,896 2974,889 2978,889 2979,885 2985,886 2990,886 2989,882 2993,880 2997,880 3001,879 3005,879 3009,879 3012,884 3018,883 3026,884 3030,883 3033,882 3038,880 3042,878 3040,871 3043,870 3046,870 3049,876 3052,877 3055,877 3060,876 3063,871 3070,871 3072,876 3074,877 3081,877 3089,882 3093,883 3095,888 3096,889 3099,891 3103,891 3106,891 3108,893 3108,899 3108,903 3108,907 3108,911 3108,915 3113,914 3118,913 3124,913 3127,913 3129,915 3132,917 3135,917 3138,915 3140,912 3142,909 3143,905 3146,904 3147,905 3150,907 3154,906 3156,905 3159,905 3163,905 3164,902 3167,900 3168,897 3174,896 3177,897 3198,913 3199,915 3203,917 3204,920 3209,922 3213,923 3217,924 3222,927 3225,929 3225,936 3229,934 3233,934 3236,936 3238,937 3240,940 3240,944 3240,946 3247,948 3251,948 3254,948 3260,947 3262,945 3258,940 3255,936 3252,929 3274,937 3284,942 3295,941 3299,933 3307,917 3322,907 3340,901 3350,900 3366,904 3383,921 3402,933 3409,939 3413,946 3413,953 3410,961 3396,976 3392,981 3391,988 3400,993 3419,999 3429,1011 3440,1051 3443,1077 3418,1071 3404,1067 3391,1070 3388,1079 3389,1085 3384,1096 3372,1122 3368,1140 3379,1149 3379,1153 3369,1171 3339,1171 3326,1178 3313,1188 3301,1206 3285,1231 3276,1246 3259,1256 3233,1269 3208,1264 3182,1276 3163,1250 3154,1236 3151,1225 3144,1207 3113,1223 3079,1196 3046,1201 3037,1215 3027,1225 3017,1230 2999,1239 2973,1252 2946,1272 2920,1271 2893,1256 2868,1251 2842,1229 2831,1228 2817,1238 2805,1240 2780,1230 2755,1214 2730,1197 2703,1183 2678,1177 2652,1172 2626,1179 2621,1187 2621,1200 2601,1203 2576,1203 2551,1228 2535,1254 2536,1279 2538,1305 2513,1326 2486,1345 2474,1370 2464,1396 2438,1416 2412,1395 2386,1392 2360,1402 2346,1428 2359,1454 2372,1479 2388,1506 2388,1515 2379,1527 2368,1531 2342,1544 2331,1551 2322,1570 2311,1595 2306,1599 2300,1605 2294,1625 2299,1650 2298,1676 2299,1702 2297,1728 2295,1746 2289,1754 2274,1779 2259,1804 2244,1829 2240,1842 2241,1856 2242,1863 2234,1881 2237,1901 2241,1907 2257,1915 2260,1927 2258,1933 2232,1956 2220,1969 2216,1983 2207,2008 2181,2029 2162,2041 2158,2050 2163,2055 2186,2080 2197,2098 2199,2110 2190,2127 2191,2139 2202,2150 2216,2160 2220,2165 2217,2185 2222,2210 2228,2219 2249,2225 2269,2235 2271,2237 2274,2239 2276,2240 2278,2243 2282,2244 2285,2248 2285,2252 2285,2256 2283,2260 2280,2262 2279,2265 2276,2268 2272,2271 2268,2273 2265,2276 2262,2279 2259,2282 2255,2285 2252,2288 2249,2290 2246,2293 2244,2296 2242,2300 2240,2304 2240,2308 2240,2312 2240,2317 2240,2321 2243,2324 2246,2327 2249,2330 2252,2333 2254,2333 2258,2332 2262,2332 2266,2331 2269,2330 2273,2330 2276,2329 2278,2329 2281,2332 2284,2335 2286,2338 2288,2341 2291,2345 2293,2348 2294,2352 2295,2355 2296,2358 2297,2360 2298,2363 2299,2365 2300,2368 2301,2371 2303,2375 2305,2380 2307,2384 2310,2388 2312,2391 2315,2394 2317,2396 2320,2399 2322,2401 2325,2404 2328,2408 2331,2411 2335,2415 2339,2419 2342,2422 2345,2425 2347,2427 2349,2429 2350,2431 2353,2433 2356,2436 2359,2439 2362,2441 2365,2444 2367,2447 2366,2452 2364,2454 2358,2457 2355,2459 2352,2460 2350,2461 2347,2461 2343,2461 2339,2461 2335,2461 2330,2461 2326,2462 2322,2462 2318,2462 2315,2460 2314,2457 2313,2454 2312,2450 2312,2447 2312,2444 2309,2441 2304,2437 2301,2433 2298,2430 2295,2429 2291,2428 2287,2428 2283,2430 2278,2434 2275,2437 2273,2438 2270,2440 2267,2441 2263,2444 2258,2444 2254,2444 2252,2443 2249,2443 2245,2442 2242,2441 2239,2441 2235,2440 2231,2439 2228,2438 2226,2437 2222,2436 2218,2435 2214,2433 2210,2433 2206,2433 2202,2433 2199,2433 2195,2433 2191,2433 2188,2433 2185,2433 2181,2432 2176,2431 2174,2431 2171,2430 2169,2430 2165,2428 2160,2426 2157,2425 2153,2423 2150,2421 2149,2417 2146,2412 2142,2409 2139,2407 2136,2405 2133,2403 2129,2401 2126,2399 2122,2396 2118,2391 2116,2388 2113,2384 2112,2382 2109,2379 2106,2375 2105,2372 2102,2370 2099,2367 2095,2365 2091,2362 2087,2359 2084,2358 2079,2357 2076,2357 2072,2358 2067,2358 2062,2359 2059,2359 2055,2360 2052,2361 2048,2362 2045,2363 2042,2364 2038,2365 2036,2367 2033,2367 2030,2366 2026,2365 2022,2364 2019,2363 2015,2363 2011,2361 2009,2357 2007,2354 2005,2351 2004,2349 2002,2347 1999,2344 1997,2341 1996,2337 1995,2334 1995,2332 1993,2329 1992,2326 1991,2323 1989,2320 1987,2317 1984,2313 1981,2311 1979,2309 1978,2307 1975,2304 1971,2301 1969,2300 1965,2300 1961,2300 1958,2300 1954,2300 1950,2301 1945,2301 1940,2300 1936,2300 1932,2300 1927,2301 1924,2302 1921,2302 1916,2302 1912,2302 1908,2302 1905,2301 1902,2299 1899,2299 1895,2299 1892,2299 1889,2300 1887,2302 1885,2303 1883,2306 1878,2306 1874,2305 1870,2303 1868,2300 1864,2296 1861,2293 1859,2294 1855,2295 1853,2296 1850,2297 1847,2298 1846,2295 1842,2289 1837,2275 1834,2237 1835,2231 1849,2211 1855,2205 1861,2193 1860,2181 1844,2159 1849,2146 1864,2126 1867,2118 1868,2086 1863,2067 1860,2061 1859,2048 1860,2042 1874,2030 1886,2006 1896,1994 1899,1988 1897,1976 1892,1964 1889,1958 1878,1945 1856,1941 1848,1936 1846,1929 1847,1923 1853,1916 1872,1905 1886,1902 1888,1896 1880,1882 1887,1878 1889,1872 1870,1858 1869,1851 1874,1831 1877,1825 1893,1805 1926,1776 1934,1771 1946,1770 1965,1761 1987,1763 1999,1768 2019,1769 2025,1768 2048,1763 2062,1757 2069,1753 2071,1747 2071,1740 2064,1726 2065,1713 2071,1692 2069,1678 2063,1672 2035,1665 2011,1629 1981,1599 1972,1586 1976,1579 2015,1550 2025,1531 2020,1506 2005,1480 1995,1468 1996,1454 2005,1426 2005,1420 1998,1382 1992,1369 1982,1338 1974,1325 1950,1303 1915,1278 1900,1259 1838,1249 1832,1247 1811,1233 1826,1209 1820,1194 1809,1175 1791,1152 1794,1148 1797,1146 1800,1142 1805,1142 1809,1141 1815,1142 1818,1144 1819,1147 1819,1151 1823,1153 1826,1151 1827,1149 1828,1147 1832,1148 1835,1148 1839,1150 1842,1152 1844,1155 1847,1154 1848,1151 1847,1147 1847,1145 1846,1143 1843,1139 1840,1137 1837,1134 1839,1132 1842,1130 1845,1129 1846,1127 1848,1124 1850,1124 1854,1125 1857,1126 1860,1126 1863,1126 1865,1125 1867,1126 1868,1129 1869,1131 1870,1133 1873,1134 1874,1130 1873,1127 1874,1123 1873,1120 1873,1116 1880,1112 1884,1112 1888,1111 1890,1109 1893,1107 1894,1105 1894,1101 1892,1097 1890,1094 1888,1089 1881,1075 1881,1071 1884,1068 1885,1065 1887,1061 1880,1061 1853,1064 1852,1068 1847,1069 1840,1067 1841,1064 1841,1060 1838,1059 1835,1059 1832,1058 1834,1044 1810,1014 1794,1015 1790,1016 1784,1018 1781,1019 1754,1023 1750,1025 1745,1027 1743,1029 1740,1030 1736,1030 1733,1031 1730,1031 1725,1030 1721,1029 1714,1029 1712,1033 1710,1038 1709,1041 1707,1044 1711,1049 1714,1053 1708,1054 1705,1054 1705,1057 1702,1060 1699,1061 1696,1061 1689,1060 1687,1062 1684,1061 1680,1061 1677,1061 1676,1059 1674,1056 1673,1053 1670,1052 1668,1052 1665,1053 1663,1054 1660,1057 1660,1060 1657,1061 1654,1062 1650,1058 1647,1055 1644,1052 1640,1052 1637,1051 1634,1049 1630,1049 1627,1050 1623,1051 1621,1053 1616,1054 1614,1057 1616,1061 1616,1065 1613,1070 1616,1076 1618,1078 1620,1076 1620,1072 1622,1070 1625,1070 1628,1071 1631,1072 1633,1076 1633,1080 1633,1085 1630,1088 1619,1095 1589,1082 1558,1064 1546,1059 1539,1053 1532,1025 1520,992 1501,978 1491,966 1483,953 1478,934 1472,929 1460,931 1421,944 1403,943 1391,919 1388,907 1381,895 1380,854 1385,819 1393,792 1420,748 1421,717 1420,711 1422,704 1447,699 1468,683 1472,669 1479,657 1485,649 1497,640 1502,634 1506,621 1506,609 1505,602 1498,590 1403,529 1352,494 1353,491 1327,474 1325,473 1352,457 1378,443 1404,431 1430,429 1456,426 1482,424 1508,422 1534,420 1560,419 1585,419 1610,419 1637,419 1662,419 1687,419 1712,419 1739,420 " class="polyStyle" id="321112" style="fill:#ee8b94"/>
<polygon points="2478,402 2482,411 2486,417 2490,424 2491,428 2489,431 2481,437 2456,447 2435,462 2420,477 2409,485 2397,489 2389,490 2370,492 2361,492 2357,494 2353,496 2351,498 2352,505 2352,509 2353,514 2356,518 2362,529 2368,529 2371,529 2374,529 2378,530 2380,533 2381,537 2380,540 2380,543 2382,547 2384,551 2386,556 2384,565 2383,575 2383,581 2382,584 2384,587 2389,591 2393,595 2395,598 2398,600 2402,601 2411,602 2414,603 2421,604 2426,605 2431,607 2435,609 2439,609 2442,609 2447,608 2450,608 2453,609 2458,612 2460,613 2463,612 2468,610 2473,608 2477,606 2480,607 2486,613 2488,616 2494,620 2498,623 2502,626 2506,629 2509,633 2509,637 2511,643 2512,647 2513,649 2516,651 2520,653 2518,656 2508,669 2506,670 2514,685 2517,687 2520,690 2528,699 2540,713 2564,745 2579,767 2584,773 2588,778 2592,784 2600,793 2621,820 2628,829 2641,845 2646,852 2669,861 2672,863 2675,864 2678,864 2679,865 2678,867 2680,872 2677,874 2670,890 2657,896 2648,903 2648,906 2650,908 2650,912 2650,916 2645,914 2643,918 2641,919 2638,920 2635,919 2631,918 2628,918 2617,917 2612,916 2609,915 2606,915 2602,916 2594,919 2582,921 2571,925 2559,923 2547,919 2540,915 2536,911 2534,909 2530,908 2527,910 2525,911 2522,913 2519,913 2519,911 2514,910 2510,912 2507,914 2504,911 2503,908 2501,905 2500,901 2499,900 2497,898 2495,895 2495,892 2493,891 2493,888 2496,885 2496,883 2496,879 2491,880 2489,877 2487,872 2483,873 2480,875 2478,876 2474,876 2476,868 2477,860 2476,856 2470,854 2465,854 2455,852 2448,856 2444,859 2440,861 2438,868 2436,870 2440,871 2442,875 2440,879 2435,881 2424,882 2419,883 2414,884 2401,891 2398,891 2393,892 2368,880 2344,869 2337,864 2331,864 2328,863 2325,863 2322,863 2312,864 2310,862 2307,864 2299,859 2293,859 2286,859 2283,861 2280,857 2277,854 2280,848 2283,846 2286,842 2290,837 2295,830 2297,823 2296,822 2295,820 2296,816 2298,812 2299,808 2301,806 2303,807 2304,804 2304,801 2302,800 2300,797 2306,796 2309,798 2312,797 2315,795 2315,799 2316,803 2319,802 2322,800 2326,798 2326,795 2325,792 2323,785 2321,782 2317,780 2314,781 2312,782 2312,785 2309,787 2306,784 2304,781 2304,778 2301,775 2299,773 2297,771 2295,771 2292,771 2287,773 2281,775 2277,776 2274,776 2271,775 2264,774 2258,773 2257,770 2256,769 2253,767 2243,768 2244,770 2242,772 2238,774 2234,773 2233,777 2230,776 2226,775 2224,776 2220,776 2212,779 2212,781 2215,790 2208,791 2209,796 2203,798 2202,801 2203,805 2206,812 2208,815 2209,817 2210,820 2211,824 2215,825 2215,828 2213,835 2216,836 2221,838 2231,838 2232,842 2235,842 2238,846 2241,849 2244,853 2241,860 2241,864 2240,867 2239,873 2236,875 2232,877 2234,880 2239,884 2239,888 2237,895 2236,898 2234,899 2231,904 2227,906 2225,906 2222,906 2218,906 2213,906 2206,906 2204,898 2202,894 2204,891 2202,888 2199,886 2196,886 2194,885 2191,885 2189,890 2186,888 2183,887 2176,889 2169,891 2167,894 2165,896 2162,899 2158,901 2157,905 2134,905 2113,900 2096,893 2090,892 2087,890 2084,892 2084,894 2086,899 2083,901 2080,900 2076,901 2072,901 2068,902 2064,903 2059,904 2055,906 2053,904 2050,903 2048,902 2045,904 2043,900 2041,897 2042,894 2043,890 2040,889 2036,889 2034,890 2033,894 2033,898 2032,901 2029,897 2027,896 2026,892 2023,892 2021,894 2018,894 2015,894 2016,898 2019,901 2018,903 2016,905 2013,902 2012,901 2010,900 2007,900 1991,902 1981,901 1981,893 1981,890 1980,885 1978,879 1981,878 1985,878 1989,877 1986,869 1983,861 1981,859 1973,854 1978,851 1981,848 1979,845 1977,843 1975,840 1972,836 1970,833 1970,830 1970,828 1971,824 1968,823 1965,819 1965,816 1970,815 1986,814 1989,814 1992,814 1994,813 1997,814 1999,818 2000,821 2001,824 2004,826 2007,829 2009,831 2012,832 2015,832 2019,832 2021,828 2021,822 2021,819 2021,816 2021,813 2021,811 2018,809 2015,808 2012,806 2010,805 2003,804 1994,802 1994,797 1998,798 2000,797 2003,796 2006,795 2009,793 2012,793 2016,793 2019,792 2024,790 2028,785 2028,780 2026,777 2016,776 2013,775 2011,773 2008,774 2004,772 2003,770 2001,768 1998,771 1995,767 1989,767 1985,768 1981,766 1972,769 1960,772 1957,774 1955,777 1952,777 1950,778 1947,781 1941,783 1937,785 1934,781 1932,777 1929,775 1926,772 1921,770 1918,767 1917,765 1913,760 1916,759 1918,758 1920,756 1922,755 1925,751 1928,747 1932,748 1936,748 1938,744 1940,743 1941,740 1938,738 1934,736 1938,727 1944,717 1943,712 1945,711 1946,709 1945,706 1944,703 1944,700 1940,698 1938,696 1935,696 1935,693 1935,689 1936,685 1928,685 1924,684 1912,683 1905,682 1897,680 1894,679 1892,678 1890,675 1888,672 1887,669 1886,665 1883,665 1880,665 1877,668 1872,671 1870,674 1866,676 1863,678 1861,679 1855,678 1850,678 1846,677 1843,677 1835,675 1831,675 1826,674 1823,673 1819,673 1814,672 1810,672 1806,672 1801,672 1797,672 1791,672 1788,672 1780,673 1776,672 1771,672 1768,671 1764,670 1757,669 1751,669 1747,668 1747,647 1766,633 1782,628 1809,623 1837,618 1862,611 1888,602 1913,592 1939,583 1964,573 1990,557 2015,537 2041,511 2066,485 2077,459 2103,444 2128,424 2154,398 2179,376 2205,359 2230,342 2256,331 2283,322 2308,314 2333,307 2359,300 2384,293 2410,285 2435,278 2441,277 2474,386 " class="polyStyle" id="321111" style="fill:#d4ecb2"/>
<polygon points="3651,195 3678,203 3670,227 3658,252 3644,278 3644,304 3608,333 3594,363 3578,396 3569,430 3558,465 3525,514 3441,575 3273,638 3153,651 3062,641 2967,625 2944,617 2931,608 2918,595 2909,581 2907,561 2897,460 2903,446 2910,443 2921,441 2969,439 3000,436 3005,359 3015,360 3041,350 3081,331 3125,322 3163,324 3175,328 3201,327 3228,335 3251,361 3259,388 3263,413 3263,439 3262,465 3261,491 3286,480 3299,454 3304,429 3306,420 3301,395 3296,368 3294,342 3303,317 3329,298 3354,285 3380,284 3407,279 3433,276 3459,270 3484,264 3509,256 3535,245 3562,226 3587,202 3599,177 3625,179 " class="polyStyle" id="321112" style="fill:#ee8b94"/>
<polygon points="3036,165 3045,168 3042,191 3041,217 3041,224 3016,224 3008,230 3006,249 3006,275 3006,301 3006,327 3005,350 3005,359 3000,436 2969,439 2921,441 2910,443 2903,446 2897,460 2907,561 2909,581 2918,595 2931,608 2944,617 2967,625 3062,641 3153,651 3273,638 3441,575 3525,514 3558,465 3569,430 3578,396 3594,363 3608,333 3644,304 3670,316 3696,327 3724,339 3751,354 3778,370 3803,389 3829,410 3855,431 3881,451 3906,469 3932,488 3958,504 3984,520 4010,534 4035,547 4061,559 4087,564 4112,563 4138,559 4164,551 4191,548 4218,552 4244,555 4269,563 4295,578 4321,602 4303,607 4276,610 4261,613 4262,635 4260,658 4238,661 4220,661 4185,665 4159,676 4143,697 4144,720 4167,767 4163,793 4156,821 4138,846 4129,871 4122,898 4116,924 4113,950 4113,976 4120,1001 4135,1027 4108,1031 4083,1031 4057,1028 4032,1026 4005,1026 3977,1022 3951,1019 3925,1014 3899,1009 3873,1005 3848,1003 3834,1004 3823,1004 3822,1017 3796,1019 3771,1021 3757,1006 3756,995 3755,968 3747,943 3740,934 3721,930 3695,925 3668,926 3653,932 3642,948 3621,970 3612,996 3611,1008 3626,1022 3631,1033 3617,1047 3592,1064 3583,1070 3565,1072 3546,1072 3540,1075 3531,1093 3521,1101 3505,1114 3495,1116 3486,1112 3469,1094 3454,1080 3443,1077 3440,1051 3429,1011 3419,999 3400,993 3391,988 3392,981 3396,976 3410,961 3413,953 3413,946 3409,939 3402,933 3383,921 3366,904 3350,900 3340,901 3322,907 3307,917 3299,933 3295,941 3284,942 3274,937 3252,929 3255,936 3258,940 3262,945 3260,947 3254,948 3251,948 3247,948 3240,946 3240,944 3240,940 3238,937 3236,936 3233,934 3229,934 3225,936 3225,929 3222,927 3217,924 3213,923 3209,922 3204,920 3203,917 3199,915 3198,913 3177,897 3174,896 3168,897 3167,900 3164,902 3163,905 3159,905 3156,905 3154,906 3150,907 3147,905 3146,904 3143,905 3142,909 3140,912 3138,915 3135,917 3132,917 3129,915 3127,913 3124,913 3118,913 3113,914 3108,915 3108,911 3108,907 3108,903 3108,899 3108,893 3106,891 3103,891 3099,891 3096,889 3095,888 3093,883 3089,882 3081,877 3074,877 3072,876 3070,871 3063,871 3060,876 3055,877 3052,877 3049,876 3046,870 3043,870 3040,871 3042,878 3038,880 3033,882 3030,883 3026,884 3018,883 3012,884 3009,879 3005,879 3001,879 2997,880 2993,880 2989,882 2990,886 2985,886 2979,885 2978,889 2974,889 2971,896 2970,898 2971,901 2969,902 2959,902 2958,905 2953,906 2949,906 2945,904 2945,902 2943,899 2938,896 2935,895 2931,894 2927,891 2925,888 2925,885 2926,881 2929,875 2930,869 2926,868 2922,868 2920,865 2905,863 2902,863 2898,863 2895,860 2893,858 2890,854 2889,851 2886,846 2884,843 2880,840 2877,839 2874,836 2872,831 2872,829 2869,826 2868,822 2863,821 2860,821 2860,816 2860,813 2859,810 2858,807 2857,803 2855,799 2855,795 2853,792 2851,788 2846,786 2846,782 2849,779 2854,779 2857,780 2861,780 2865,779 2869,778 2870,775 2868,773 2867,771 2868,767 2870,764 2867,762 2863,762 2860,763 2857,763 2853,761 2850,760 2847,762 2845,763 2844,766 2843,769 2831,776 2823,778 2807,785 2802,786 2800,789 2797,793 2798,796 2799,798 2802,800 2805,802 2802,802 2800,804 2796,804 2792,804 2791,806 2793,809 2789,822 2779,844 2777,845 2775,847 2774,850 2768,854 2764,855 2760,855 2757,855 2755,856 2752,856 2749,856 2747,856 2743,856 2733,854 2722,851 2712,844 2708,845 2701,847 2698,846 2695,848 2693,853 2691,855 2684,853 2682,856 2680,859 2680,862 2679,865 2678,864 2675,864 2672,863 2669,861 2646,852 2641,845 2628,829 2621,820 2600,793 2592,784 2588,778 2584,773 2579,767 2564,745 2540,713 2528,699 2520,690 2517,687 2514,685 2506,670 2508,669 2518,656 2520,653 2516,651 2513,649 2512,647 2511,643 2509,637 2509,633 2506,629 2502,626 2498,623 2494,620 2488,616 2486,613 2480,607 2477,606 2473,608 2468,610 2463,612 2460,613 2458,612 2453,609 2450,608 2447,608 2442,609 2439,609 2435,609 2431,607 2426,605 2421,604 2414,603 2411,602 2402,601 2398,600 2395,598 2393,595 2389,591 2384,587 2382,584 2383,581 2383,575 2384,565 2386,556 2384,551 2382,547 2380,543 2380,540 2381,537 2380,533 2378,530 2374,529 2371,529 2368,529 2362,529 2356,518 2353,514 2352,509 2352,505 2351,498 2353,496 2357,494 2361,492 2370,492 2389,490 2397,489 2409,485 2420,477 2435,462 2456,447 2481,437 2489,431 2491,428 2490,424 2486,417 2482,411 2478,402 2474,386 2441,277 2461,274 2487,275 2513,277 2539,283 2566,289 2591,295 2617,302 2642,308 2655,311 2680,318 2694,325 2706,341 2715,346 2725,345 2732,339 2758,316 2783,294 2810,271 2838,248 2831,234 2840,223 2866,206 2887,193 2880,174 2905,171 2919,166 2957,163 2982,163 3010,165 " class="polyStyle" id="321102" style="fill:#fbe6ef"/>
<path d="" class="polyStyle" id="411502" style="fill:#ee8b94"/>
<path d="" class="polyStyle" id="320302" style="fill:#d4ecb2"/>
<path d="" class="polyStyle" id="140311" style="fill:#ee8b94"/>
<path d="" class="polyStyle" id="610802" style="fill:#ee8b94"/>
<path d="" class="polyStyle" id="120116" style="fill:#f6f67b"/>
<path d="" class="polyStyle" id="130303" style="fill:#fbe6ef"/>
<path d="" class="polyStyle" id="140211" style="fill:#f6f67b"/>
<path d="" class="polyStyle" id="150207" style="fill:#fbe6ef"/>
<path d="" class="polyStyle" id="211403" style="fill:#f6f67b"/>
<path d="" class="polyStyle" id="150802" style="fill:#f8c67d"/>
<path d="" class="polyStyle" id="210112" style="fill:#ee8b94"/>
<path d="" class="polyStyle" id="230406" style="fill:#d4ecb2"/>
<path d="" class="polyStyle" id="110113" style="fill:#fbe6ef"/>
<path d="" class="polyStyle" id="341702" style="fill:#fbe6ef"/>
<path d="" class="polyStyle" id="420303" style="fill:#ee8b94"/>
<path d="" class="polyStyle" id="340702" style="fill:#d4ecb2"/>
<path d="" class="polyStyle" id="421002" style="fill:#f6f67b"/>
<path d="" class="polyStyle" id="420117" style="fill:#f6f67b"/>
<path d="" class="polyStyle" id="440904" style="fill:#f8c67d"/>
<path d="" class="polyStyle" id="460205" style="fill:#ee8b94"/>
<path d="" class="polyStyle" id="460202" style="fill:#f6f67b"/>
<path d="" class="polyStyle" id="460203" style="fill:#fbe6ef"/>
<path d="" class="polyStyle" id="420304" style="fill:#f6f67b"/>
<path d="" class="polyStyle" id="445302" style="fill:#ee8b94"/>
<path d="" class="polyStyle" id="410202" style="fill:#d4ecb2"/>
<path d="" class="polyStyle" id="440800" style="fill:#f6f67b"/>
<path d="" class="polyStyle" id="440900" style="fill:#ee8b94"/>
<path d="" class="polyStyle" id="340800" style="fill:#ee8b94"/>
<path d="" class="polyStyle" id="460200" style="fill:#f6f67b"/>
<path d="" class="polyStyle" id="460000" style="fill:#ee8b94"/>
<path d="" class="polyStyle" id="450500" style="fill:#ee8b94"/>
<path d="" class="polyStyle" id="450600" style="fill:#ee8b94"/>
<path d="" class="polyStyle" id="440400" style="fill:#f6f67b"/>
<path d="" class="polyStyle" id="441700" style="fill:#f6f67b"/>
<path d="" class="polyStyle" id="441500" style="fill:#f6f67b"/>
<path d="" class="polyStyle" id="350600" style="fill:#ee8b94"/>
<path d="" class="polyStyle" id="710000" style="fill:#f6f67b"/>
<path d="" class="polyStyle" id="510400" style="fill:#f6f67b"/>
<path d="" class="polyStyle" id="522600" style="fill:#fbe6ef"/>
<path d="" class="polyStyle" id="520500" style="fill:#ee8b94"/>
<path d="" class="polyStyle" id="431200" style="fill:#f6f67b"/>
<path d="" class="polyStyle" id="430600" style="fill:#f6f67b"/>
<path d="" class="polyStyle" id="511400" style="fill:#d4ecb2"/>
<path d="" class="polyStyle" id="421000" style="fill:#ee8b94"/>
<path d="" class="polyStyle" id="341700" style="fill:#f6f67b"/>
<path d="" class="polyStyle" id="420500" style="fill:#f6f67b"/>
<path d="" class="polyStyle" id="511300" style="fill:#f6f67b"/>
<path d="" class="polyStyle" id="420900" style="fill:#f6f67b"/>
<path d="" class="polyStyle" id="511700" style="fill:#ee8b94"/>
<path d="" class="polyStyle" id="420600" style="fill:#d4ecb2"/>
<path d="" class="polyStyle" id="411500" style="fill:#fbe6ef"/>
<path d="" class="polyStyle" id="510800" style="fill:#ee8b94"/>
<path d="" class="polyStyle" id="420300" style="fill:#fbe6ef"/>
<path d="" class="polyStyle" id="611000" style="fill:#ee8b94"/>
<path d="" class="polyStyle" id="620800" style="fill:#fbe6ef"/>
<path d="" class="polyStyle" id="370200" style="fill:#ee8b94"/>
<path d="" class="polyStyle" id="371000" style="fill:#f6f67b"/>
<path d="" class="polyStyle" id="370600" style="fill:#fbe6ef"/>
<path d="" class="polyStyle" id="120000" style="fill:#f6f67b"/>
<path d="" class="polyStyle" id="130200" style="fill:#ee8b94"/>
<path d="" class="polyStyle" id="130300" style="fill:#f6f67b"/>
<path d="" class="polyStyle" id="652900" style="fill:#fbe6ef"/>
<path d="" class="polyStyle" id="150500" style="fill:#d4ecb2"/>
<path d="" class="polyStyle" id="" style="fill:#d4ecb2"/>
<path d="" class="polyStyle" id="350500" style="fill:#fbe6ef"/>
<path d="" class="polyStyle" id="440400" style="fill:#f6f67b"/>
<path d="" class="polyStyle" id="421100" style="fill:#d4ecb2"/>
<path d="" class="polyStyle" id="420100" style="fill:#fbe6ef"/>
<path d="" class="polyStyle" id="532500" style="fill:#fbe6ef"/>
<path d="" class="polyStyle" id="654200" style="fill:#fbe6ef"/>
<path d="" class="polyStyle" id="210700" style="fill:#d4ecb2"/>
<path d="" class="polyStyle" id="522300" style="fill:#fbe6ef"/>
<path d="" class="polyStyle" id="" style="fill:#ee8b94"/>
<path d="" class="polyStyle" id="440400" style="fill:#f6f67b"/>
<path d="" class="polyStyle" id="620000" style="fill:#f6f67b"/>
<path d="" class="polyStyle" id="430000" style="fill:#fbe6ef"/>
<path d="" class="polyStyle" id="420000" style="fill:#ee8b94"/>
<path d="" class="polyStyle" id="410000" style="fill:#f6f67b"/>
<path d="" class="polyStyle" id="350000" style="fill:#fbe6ef"/>
<path d="" class="polyStyle" id="520000" style="fill:#f6f67b"/>
<path d="" class="polyStyle" id="" style="fill:#ee8b94"/>
</svg>
