<?xml version="1.0" encoding="UTF-8"?>
<!DOCTYPE svg PUBLIC "-//W3C//DTD SVG 1.1 Tiny//EN" "http://www.w3.org/Graphics/SVG/1.1/DTD/svg11-tiny.dtd">
<svg version="1.1" xmlns="http://www.w3.org/2000/svg" xmlns:xlink="http://www.w3.org/1999/xlink" width="100%" height="100%" viewBox="0,0,6183,6429">
<title>SVG</title>
<desc>Poligon Test</desc>
<style id="style_css_sheet" type="text/css">
.polyStyle{fill: #cccccc;stroke-width:0;fill-rule:evenodd;}
</style>
<circle cx="3717" cy="3551" r="200" stroke="black" stroke-width="1" fill="red" id="321323" name="泗阳县"/>
<circle cx="1403" cy="4806" r="200" stroke="black" stroke-width="1" fill="red" id="321324" name="泗洪县"/>
<circle cx="4149" cy="1536" r="200" stroke="black" stroke-width="1" fill="red" id="321322" name="沭阳县"/>
<circle cx="1955" cy="2349" r="200" stroke="black" stroke-width="1" fill="red" id="321311"position="2" name="宿豫区"/>
<circle cx="1522" cy="2287" r="200" stroke="black" stroke-width="1" fill="red" id="321302"position="44" name="宿城区"/>
<path d="" class="polyStyle" id="" style="fill:#ee8b94"/>
<path d="" class="polyStyle" id="623022" style="fill:#fbe6ef"/>
<path d="" class="polyStyle" id="211421" style="fill:#f6f67b"/>
<path d="" class="polyStyle" id="532524" style="fill:#ee8b94"/>
<path d="" class="polyStyle" id="440825" style="fill:#f6f67b"/>
<path d="" class="polyStyle" id="441721" style="fill:#f6f67b"/>
<path d="" class="polyStyle" id="450521" style="fill:#f6f67b"/>
<path d="" class="polyStyle" id="450123" style="fill:#fbe6ef"/>
<path d="" class="polyStyle" id="350624" style="fill:#f6f67b"/>
<path d="" class="polyStyle" id="" style="fill:#fbe6ef"/>
<path d="" class="polyStyle" id="451224" style="fill:#fbe6ef"/>
<path d="" class="polyStyle" id="350627" style="fill:#f6f67b"/>
<path d="" class="polyStyle" id="" style="fill:#f6f67b"/>
<path d="" class="polyStyle" id="350525" style="fill:#f6f67b"/>
<path d="" class="polyStyle" id="530124" style="fill:#ee8b94"/>
<path d="" class="polyStyle" id="522627" style="fill:#ee8b94"/>
<path d="" class="polyStyle" id="510421" style="fill:#fbe6ef"/>
<path d="" class="polyStyle" id="522623" style="fill:#d4ecb2"/>
<path d="" class="polyStyle" id="430321" style="fill:#d4ecb2"/>
<path d="" class="polyStyle" id="511129" style="fill:#d4ecb2"/>
<path d="" class="polyStyle" id="511423" style="fill:#ee8b94"/>
<path d="" class="polyStyle" id="421023" style="fill:#f6f67b"/>
<path d="" class="polyStyle" id="511724" style="fill:#f6f67b"/>
<path d="" class="polyStyle" id="420526" style="fill:#fbe6ef"/>
<path d="" class="polyStyle" id="511923" style="fill:#fbe6ef"/>
<path d="" class="polyStyle" id="420325" style="fill:#fbe6ef"/>
<path d="" class="polyStyle" id="511921" style="fill:#f6f67b"/>
<path d="" class="polyStyle" id="542525" style="fill:#f6f67b"/>
<polygon points="1291,3430 1286,3456 1279,3481 1269,3507 1258,3519 1263,3527 1271,3528 1284,3516 1295,3512 1305,3516 1321,3526 1347,3503 1373,3501 1398,3505 1424,3510 1449,3517 1475,3524 1501,3528 1527,3528 1553,3541 1580,3561 1606,3573 1631,3557 1657,3540 1673,3516 1697,3509 1710,3514 1721,3532 1725,3544 1726,3568 1727,3587 1737,3607 1755,3630 1761,3642 1762,3659 1760,3668 1746,3681 1729,3693 1718,3703 1713,3711 1713,3724 1721,3752 1722,3770 1716,3783 1712,3790 1724,3789 1754,3792 1806,3796 1873,3797 1914,3799 1973,3797 2073,3799 2091,3799 2113,3801 2125,3802 2131,3807 2135,3818 2152,3872 2158,3878 2167,3885 2172,3877 2173,3869 2178,3856 2186,3849 2200,3853 2226,3856 2261,3856 2273,3851 2274,3835 2273,3819 2281,3815 2303,3798 2319,3772 2336,3767 2351,3767 2359,3753 2365,3728 2376,3722 2406,3711 2432,3718 2453,3744 2478,3753 2504,3757 2530,3761 2556,3765 2582,3786 2608,3807 2626,3832 2640,3858 2655,3885 2669,3912 2683,3937 2697,3963 2710,3989 2723,4014 2734,4040 2741,4066 2761,4092 2765,4096 2790,4119 2817,4143 2839,4148 2865,4163 2876,4176 2990,4300 3024,4347 3036,4363 3071,4435 3096,4510 3127,4643 3157,4737 3198,4823 3240,4889 3294,4956 3350,5014 3411,5061 3478,5096 3675,5149 3845,5162 4049,5184 4064,5202 4086,5228 4107,5253 4129,5279 4150,5304 4169,5330 4189,5356 4209,5380 4199,5383 4182,5388 4157,5395 4130,5403 4105,5410 4080,5418 4053,5425 4027,5433 4001,5440 3975,5447 3950,5455 3923,5462 3898,5470 3871,5477 3846,5485 3820,5492 3794,5501 3767,5510 3741,5519 3714,5528 3688,5537 3660,5546 3634,5554 3607,5563 3583,5570 3557,5578 3531,5586 3504,5595 3479,5602 3454,5610 3429,5618 3402,5626 3376,5635 3350,5643 3323,5651 3298,5658 3272,5666 3245,5674 3219,5682 3192,5690 3166,5697 3141,5705 3116,5712 3090,5719 3065,5726 3039,5734 3014,5741 2988,5750 2962,5758 2937,5766 2912,5774 2886,5782 2860,5792 2839,5813 2813,5837 2788,5858 2762,5880 2751,5889 2748,5891 2725,5912 2699,5935 2674,5957 2648,5980 2622,6002 2595,6024 2570,6046 2543,6069 2517,6093 2492,6116 2465,6140 2439,6164 2414,6173 2389,6171 2363,6169 2338,6166 2312,6164 2287,6162 2261,6159 2236,6157 2227,6156 2201,6154 2176,6152 2151,6149 2126,6147 2100,6145 2073,6142 2048,6140 2022,6138 1997,6136 1971,6133 1946,6131 1920,6129 1895,6127 1870,6125 1845,6123 1820,6121 1795,6119 1770,6117 1745,6115 1719,6113 1694,6111 1666,6109 1640,6108 1614,6110 1587,6123 1570,6132 1543,6144 1516,6159 1491,6174 1465,6185 1437,6197 1412,6207 1408,6187 1390,6147 1352,6105 1320,6075 1292,6057 1269,6043 1226,6031 1210,6027 1184,6027 1157,6037 1137,6053 1113,6080 1090,6122 1087,6138 1091,6159 1102,6191 1103,6222 1079,6249 1069,6256 1051,6266 990,6279 893,6307 735,6359 713,6377 661,6404 656,6405 626,6412 624,6399 618,6371 598,6367 568,6359 532,6351 522,6349 526,6381 532,6417 526,6421 520,6425 506,6429 496,6429 494,6387 492,6377 492,6365 494,6341 488,6339 462,6337 426,6325 418,6317 404,6287 394,6281 354,6267 336,6259 328,6255 336,6225 336,6219 322,6217 290,6217 258,6217 250,6187 245,6168 242,6148 236,6129 214,6131 206,6099 224,6095 236,6017 198,5965 190,5959 176,5959 130,5985 114,5997 100,6001 88,5997 68,5991 44,5989 26,5985 16,5977 4,5959 0,5945 6,5921 28,5897 38,5885 46,5867 50,5849 46,5831 34,5817 28,5801 28,5797 34,5779 42,5775 76,5751 164,5717 168,5711 172,5707 174,5687 174,5681 178,5677 186,5671 214,5641 224,5617 224,5611 222,5597 216,5585 222,5565 222,5561 234,5511 238,5505 242,5497 246,5489 251,5480 254,5471 264,5439 220,5439 206,5435 180,5429 152,5391 152,5379 154,5369 158,5365 166,5359 180,5359 206,5359 226,5361 234,5365 242,5367 288,5371 320,5357 366,5337 416,5279 428,5257 456,5247 436,5209 440,5181 450,5167 446,5151 390,5091 420,4977 414,4931 424,4901 448,4817 456,4801 480,4799 502,4759 518,4751 532,4755 538,4755 544,4685 548,4653 574,4653 600,4659 828,4727 838,4731 838,4718 837,4601 840,4568 843,4561 847,4548 847,4526 846,4512 853,4455 862,4371 863,4363 878,4252 878,4248 889,4171 891,4152 891,4147 891,4136 888,4095 883,4077 876,4055 864,4028 863,4024 863,4015 892,4001 916,3987 992,3933 998,3933 1044,3943 1046,3931 1054,3911 1046,3905 1034,3899 1036,3891 1056,3869 1100,3825 1116,3811 1142,3789 1148,3785 1144,3775 1136,3741 1134,3699 1134,3687 1134,3679 1134,3671 1140,3581 1140,3559 1140,3537 1116,3525 1076,3505 1096,3473 1108,3457 1118,3451 1128,3447 1166,3449 1184,3453 1194,3450 1203,3442 1211,3431 1215,3410 1223,3401 1233,3394 1238,3386 1271,3403 " class="polyStyle" id="321324" style="fill:#d4ecb2"/>
<path d="" class="polyStyle" id="611026" style="fill:#ee8b94"/>
<polygon points="4562,2193 4552,2216 4541,2241 4530,2268 4527,2283 4542,2294 4567,2305 4577,2308 4574,2331 4570,2350 4600,2353 4608,2355 4614,2369 4623,2378 4650,2394 4663,2404 4669,2419 4671,2445 4697,2465 4722,2471 4737,2497 4744,2522 4748,2538 4734,2548 4707,2564 4681,2585 4672,2605 4684,2611 4682,2637 4681,2650 4676,2648 4658,2647 4652,2646 4638,2654 4634,2664 4635,2676 4637,2691 4621,2702 4594,2719 4569,2737 4542,2757 4517,2778 4492,2797 4467,2812 4451,2837 4432,2864 4409,2891 4397,2917 4385,2943 4366,2968 4357,2996 4335,3022 4310,3035 4312,3061 4314,3088 4317,3115 4336,3140 4328,3166 4308,3192 4303,3218 4287,3244 4296,3271 4322,3284 4339,3310 4324,3335 4316,3360 4313,3386 4327,3412 4352,3437 4378,3458 4365,3484 4378,3510 4355,3530 4370,3556 4378,3582 4370,3608 4345,3627 4319,3639 4309,3665 4304,3692 4296,3718 4286,3745 4279,3772 4287,3798 4297,3823 4307,3850 4308,3876 4281,3884 4256,3891 4229,3899 4202,3906 4177,3914 4149,3924 4123,3928 4098,3933 4107,3959 4117,3985 4127,4011 4139,4036 4153,4062 4171,4087 4191,4113 4207,4138 4224,4164 4249,4187 4274,4203 4301,4222 4328,4239 4339,4264 4333,4290 4308,4302 4288,4327 4278,4352 4266,4377 4261,4403 4257,4429 4255,4454 4257,4480 4259,4506 4259,4533 4258,4559 4254,4585 4247,4610 4239,4637 4217,4662 4208,4683 4209,4709 4210,4735 4212,4760 4213,4787 4215,4813 4216,4838 4224,4864 4222,4890 4203,4915 4187,4940 4171,4966 4156,4991 4141,5017 4125,5043 4110,5069 4093,5096 4076,5122 4060,5149 4043,5176 4049,5184 3845,5162 3675,5149 3478,5096 3411,5061 3350,5014 3294,4956 3240,4889 3198,4823 3157,4737 3127,4643 3096,4510 3071,4435 3036,4363 3024,4347 3132,4173 3244,3988 3230,3946 3230,3938 3233,3930 3248,3929 3260,3926 3280,3917 3294,3907 3300,3900 3307,3898 3327,3907 3359,3882 3356,3832 3328,3810 3303,3814 3256,3834 3236,3838 3226,3844 3220,3858 3207,3858 3186,3852 3194,3827 3205,3813 3208,3783 3209,3770 3214,3761 3202,3759 3190,3734 3160,3739 3145,3741 3124,3734 3126,3721 3104,3710 3095,3698 3095,3690 3107,3679 3125,3651 3122,3627 3095,3607 3074,3606 3054,3613 3045,3609 3006,3571 3004,3557 3012,3551 3006,3541 2970,3517 2965,3517 2945,3503 2944,3493 2921,3478 2848,3446 2841,3439 2847,3413 2850,3405 2873,3417 2884,3423 2898,3425 2912,3425 2928,3423 2933,3416 2933,3406 2939,3394 2942,3381 2943,3363 2940,3348 2926,3323 2913,3299 2911,3283 2916,3270 2929,3259 2938,3251 2959,3244 2974,3244 2994,3249 3026,3259 3059,3278 3080,3292 3085,3284 3110,3291 3130,3289 3130,3276 3131,3267 3139,3263 3137,3249 3146,3246 3172,3228 3180,3209 3206,3194 3198,3154 3159,3105 3143,3088 3124,3082 3116,3076 3132,3062 3141,3057 3167,3059 3174,3055 3177,3048 3168,3036 3181,3015 3201,2983 3218,2954 3206,2943 3181,2923 3177,2911 3191,2872 3212,2870 3213,2860 3226,2835 3245,2831 3265,2821 3271,2808 3274,2795 3270,2782 3267,2755 3275,2744 3292,2738 3304,2736 3304,2710 3302,2673 3280,2664 3255,2655 3249,2648 3229,2650 3210,2643 3212,2624 3229,2598 3233,2573 3238,2558 3230,2547 3218,2522 3226,2495 3237,2480 3237,2469 3248,2443 3253,2428 3266,2417 3282,2392 3294,2386 3295,2366 3296,2357 3308,2357 3333,2351 3358,2345 3379,2341 3398,2337 3424,2335 3451,2339 3471,2343 3513,2345 3519,2350 3529,2343 3570,2344 3580,2329 3592,2308 3613,2288 3628,2252 3635,2237 3652,2238 3672,2249 3678,2263 3702,2267 3732,2298 3758,2321 3779,2328 3798,2330 3809,2331 3815,2331 3819,2314 3811,2302 3807,2287 3804,2269 3815,2262 3834,2260 3850,2255 3877,2223 3905,2225 3981,2230 4049,2232 4099,2232 4120,2233 4147,2234 4162,2245 4183,2247 4226,2244 4251,2247 4278,2241 4302,2235 4309,2211 4314,2203 4324,2198 4351,2197 4378,2196 4405,2195 4432,2194 4459,2191 4486,2189 4512,2188 4537,2189 " class="polyStyle" id="321323" style="fill:#f6f67b"/>
<path d="" class="polyStyle" id="411023" style="fill:#fbe6ef"/>
<polygon points="5718,2 5748,3 5752,14 5748,42 5737,54 5708,57 5674,54 5646,57 5627,61 5621,64 5618,72 5623,98 5622,123 5609,148 5597,175 5588,201 5584,227 5584,253 5587,280 5589,307 5592,332 5602,358 5609,383 5616,410 5643,411 5669,403 5676,429 5672,455 5679,479 5691,506 5714,531 5720,557 5716,583 5711,596 5689,598 5682,612 5667,620 5658,631 5661,650 5674,671 5671,690 5668,714 5661,740 5658,765 5663,772 5682,777 5705,793 5730,796 5757,799 5765,825 5764,851 5757,873 5763,903 5765,929 5782,935 5792,961 5790,986 5793,1013 5798,1039 5785,1082 5822,1088 5858,1088 5882,1080 5908,1082 5934,1083 5959,1084 5979,1109 5979,1136 5979,1138 5980,1164 5991,1189 5991,1215 6017,1228 6032,1254 6021,1281 6019,1307 6026,1332 6002,1358 5977,1376 5972,1401 5998,1423 6025,1438 6050,1416 6075,1436 6100,1446 6127,1454 6138,1458 6159,1484 6178,1510 6177,1537 6152,1562 6139,1588 6164,1614 6179,1639 6183,1645 6159,1658 6145,1669 6140,1675 6129,1692 6122,1711 6102,1725 6090,1745 6077,1787 6078,1798 6081,1811 6080,1814 6079,1831 6073,1848 6059,1867 6057,1872 6023,1902 6004,1915 5980,1938 5964,1957 5958,1964 5945,1969 5910,1977 5881,1991 5869,1996 5857,2005 5847,2018 5833,2026 5817,2032 5789,2058 5737,2098 5729,2109 5727,2116 5726,2135 5716,2175 5699,2191 5676,2202 5644,2204 5632,2206 5622,2211 5601,2224 5592,2237 5585,2242 5578,2243 5552,2245 5544,2250 5526,2269 5520,2293 5517,2315 5543,2320 5568,2337 5577,2362 5580,2387 5575,2413 5562,2439 5536,2462 5510,2463 5485,2481 5471,2507 5445,2510 5443,2537 5422,2563 5396,2576 5373,2601 5348,2627 5322,2629 5294,2624 5298,2611 5300,2585 5274,2585 5249,2588 5243,2562 5233,2564 5222,2559 5213,2552 5195,2531 5182,2521 5168,2514 5163,2514 5150,2517 5124,2532 5117,2533 5099,2533 5077,2532 5065,2543 5063,2549 5063,2567 5057,2573 5045,2573 5028,2572 5018,2578 4999,2599 4990,2603 4987,2604 4969,2606 4963,2604 4953,2599 4938,2596 4921,2599 4897,2628 4895,2631 4877,2644 4869,2650 4859,2658 4842,2663 4808,2668 4795,2672 4776,2680 4767,2681 4755,2684 4743,2683 4731,2678 4718,2672 4704,2662 4701,2660 4681,2650 4682,2637 4684,2611 4672,2605 4681,2585 4707,2564 4734,2548 4748,2538 4744,2522 4737,2497 4722,2471 4697,2465 4671,2445 4669,2419 4663,2404 4650,2394 4623,2378 4614,2369 4608,2355 4600,2353 4570,2350 4574,2331 4577,2308 4567,2305 4542,2294 4527,2283 4530,2268 4541,2241 4552,2216 4562,2193 4537,2189 4512,2188 4486,2189 4459,2191 4432,2194 4405,2195 4378,2196 4351,2197 4324,2198 4314,2203 4309,2211 4302,2235 4278,2241 4251,2247 4226,2244 4183,2247 4162,2245 4147,2234 4120,2233 4099,2232 4049,2232 3981,2230 3905,2225 3877,2223 3850,2255 3834,2260 3815,2262 3804,2269 3807,2287 3811,2302 3819,2314 3815,2331 3809,2331 3798,2330 3779,2328 3758,2321 3732,2298 3702,2267 3678,2263 3672,2249 3652,2238 3635,2237 3628,2252 3613,2288 3592,2308 3580,2329 3570,2344 3529,2343 3519,2350 3513,2345 3471,2343 3451,2339 3424,2335 3398,2337 3379,2341 3358,2345 3333,2351 3308,2357 3296,2357 3286,2353 3270,2332 3263,2307 3257,2280 3249,2255 3241,2230 3233,2204 3226,2179 3218,2154 3211,2129 3206,2105 3197,2076 3185,2078 3152,2100 3124,2086 3109,2073 3118,2016 3123,2003 3155,1984 3180,1961 3198,1934 3204,1908 3191,1883 3179,1856 3177,1853 3161,1827 3162,1801 3162,1776 3140,1751 3115,1731 3088,1713 3062,1697 3037,1680 3025,1655 3017,1629 3009,1603 3011,1577 3020,1566 3028,1551 3021,1524 3007,1499 2982,1503 2955,1507 2929,1512 2903,1520 2898,1523 2887,1518 2878,1517 2868,1518 2840,1509 2833,1506 2825,1495 2823,1460 2827,1425 2847,1399 2854,1386 2857,1373 2856,1366 2840,1362 2833,1355 2830,1349 2829,1340 2833,1323 2848,1310 2858,1298 2871,1292 2903,1269 2916,1268 3097,1282 3112,1280 3112,1255 3108,1249 3109,1223 3112,1204 3108,1173 3112,1149 3123,1112 3135,1088 3147,1043 3154,1030 3168,1012 3170,999 3167,986 3177,947 3175,941 3141,928 3134,923 3129,916 3128,908 3119,882 3116,868 3117,844 3132,800 3136,781 3138,760 3144,739 3183,718 3171,682 3163,648 3163,636 3168,617 3174,611 3187,604 3200,605 3206,604 3212,598 3216,591 3228,586 3248,582 3260,572 3275,570 3326,570 3425,581 3431,580 3432,574 3437,568 3458,571 3474,569 3474,563 3485,509 3479,450 3474,430 3469,424 3461,423 3433,414 3420,405 3420,398 3423,392 3430,389 3471,387 3477,385 3483,364 3487,332 3492,326 3500,324 3519,323 3531,316 3542,326 3568,345 3593,365 3618,386 3644,400 3670,409 3696,409 3692,384 3719,385 3745,382 3772,381 3799,390 3825,402 3847,427 3853,431 3878,438 3903,454 3929,457 3957,462 3979,488 4004,486 4030,472 4055,463 4082,485 4108,507 4100,532 4122,558 4149,567 4174,564 4201,555 4227,554 4253,532 4272,507 4295,481 4311,457 4328,431 4354,415 4361,390 4360,363 4365,338 4386,313 4413,313 4440,297 4466,279 4492,268 4519,267 4545,269 4571,274 4597,278 4624,281 4651,280 4676,276 4703,274 4728,275 4754,274 4780,272 4800,271 4827,269 4853,267 4878,265 4905,263 4932,259 4957,255 4984,243 5009,222 5035,228 5059,254 5079,280 5080,294 5067,351 5062,359 5067,365 5102,371 5121,360 5124,341 5120,327 5139,303 5156,288 5170,274 5196,249 5210,224 5217,210 5234,199 5260,178 5275,168 5275,142 5257,133 5280,116 5288,90 5315,89 5342,89 5368,86 5377,80 5387,94 5410,108 5437,107 5479,107 5501,80 5502,54 5504,28 5514,3 5540,3 5566,6 5591,2 5610,0 5616,0 5679,2 " class="polyStyle" id="321322" style="fill:#ee8b94"/>
<path d="" class="polyStyle" id="632323" style="fill:#f6f67b"/>
<path d="" class="polyStyle" id="140525" style="fill:#d4ecb2"/>
<path d="" class="polyStyle" id="410922" style="fill:#ee8b94"/>
<path d="" class="polyStyle" id="621027" style="fill:#ee8b94"/>
<path d="" class="polyStyle" id="130427" style="fill:#f6f67b"/>
<path d="" class="polyStyle" id="130121" style="fill:#ee8b94"/>
<path d="" class="polyStyle" id="610823" style="fill:#fbe6ef"/>
<path d="" class="polyStyle" id="130225" style="fill:#fbe6ef"/>
<path d="" class="polyStyle" id="130322" style="fill:#d4ecb2"/>
<path d="" class="polyStyle" id="653130" style="fill:#f6f67b"/>
<path d="" class="polyStyle" id="130822" style="fill:#fbe6ef"/>
<path d="" class="polyStyle" id="211221" style="fill:#f6f67b"/>
<path d="" class="polyStyle" id="210921" style="fill:#f6f67b"/>
<path d="" class="polyStyle" id="150223" style="fill:#f8c67d"/>
<path d="" class="polyStyle" id="220422" style="fill:#d4ecb2"/>
<path d="" class="polyStyle" id="340721" style="fill:#f6f67b"/>
<path d="" class="polyStyle" id="510824" style="fill:#d4ecb2"/>
<path d="" class="polyStyle" id="610324" style="fill:#f6f67b"/>
<path d="" class="polyStyle" id="530722" style="fill:#ee8b94"/>
<path d="" class="polyStyle" id="340823" style="fill:#d4ecb2"/>
<path d="" class="polyStyle" id="620825" style="fill:#d4ecb2"/>
<path d="" class="polyStyle" id="421125" style="fill:#ee8b94"/>
<path d="" class="polyStyle" id="210281" style="fill:#ee8b94"/>
<path d="" class="polyStyle" id="440883" style="fill:#f6f67b"/>
<path d="" class="polyStyle" id="469006" style="fill:#d4ecb2"/>
<path d="" class="polyStyle" id="469002" style="fill:#ee8b94"/>
<path d="" class="polyStyle" id="469005" style="fill:#fbe6ef"/>
<path d="" class="polyStyle" id="440882" style="fill:#ee8b94"/>
<path d="" class="polyStyle" id="450681" style="fill:#ee8b94"/>
<path d="" class="polyStyle" id="441581" style="fill:#d4ecb2"/>
<path d="" class="polyStyle" id="421087" style="fill:#ee8b94"/>
<path d="" class="polyStyle" id="420984" style="fill:#fbe6ef"/>
<path d="" class="polyStyle" id="420582" style="fill:#ee8b94"/>
<path d="" class="polyStyle" id="370282" style="fill:#f6f67b"/>
<path d="" class="polyStyle" id="371083" style="fill:#f6f67b"/>
<path d="" class="polyStyle" id="371082" style="fill:#fbe6ef"/>
<path d="" class="polyStyle" id="652801" style="fill:#f8c67d"/>
<path d="" class="polyStyle" id="654301" style="fill:#ee8b94"/>
<path d="" class="polyStyle" id="370687" style="fill:#ee8b94"/>
<path d="" class="polyStyle" id="371482" style="fill:#d4ecb2"/>
<path d="" class="polyStyle" id="421081" style="fill:#fbe6ef"/>
<path d="" class="polyStyle" id="429006" style="fill:#f6f67b"/>
<path d="" class="polyStyle" id="440982" style="fill:#d4ecb2"/>
<path d="" class="polyStyle" id="421181" style="fill:#d4ecb2"/>
<path d="" class="polyStyle" id="321181" style="fill:#d4ecb2"/>
<path d="" class="polyStyle" id="659007" style="fill:#ee8b94"/>
<path d="" class="polyStyle" id="652701" style="fill:#fbe6ef"/>
<path d="" class="polyStyle" id="210781" style="fill:#fbe6ef"/>
<path d="" class="polyStyle" id="460204" style="fill:#f6f67b"/>
<path d="" class="polyStyle" id="210211" style="fill:#f6f67b"/>
<path d="" class="polyStyle" id="450512" style="fill:#ee8b94"/>
<path d="" class="polyStyle" id="450602" style="fill:#fbe6ef"/>
<path d="" class="polyStyle" id="440404" style="fill:#ee8b94"/>
<path d="" class="polyStyle" id="440403" style="fill:#f6f67b"/>
<path d="" class="polyStyle" id="441502" style="fill:#f6f67b"/>
<path d="" class="polyStyle" id="431002" style="fill:#d4ecb2"/>
<path d="" class="polyStyle" id="500107" style="fill:#fbe6ef"/>
<path d="" class="polyStyle" id="430611" style="fill:#d4ecb2"/>
<path d="" class="polyStyle" id="511304" style="fill:#fbe6ef"/>
<path d="" class="polyStyle" id="340711" style="fill:#ee8b94"/>
<path d="" class="polyStyle" id="320118" style="fill:#f6f67b"/>
<path d="" class="polyStyle" id="510704" style="fill:#f6f67b"/>
<path d="" class="polyStyle" id="411502" style="fill:#ee8b94"/>
<polygon points="1358,2126 1378,2127 1403,2131 1427,2126 1461,2135 1486,2147 1527,2118 1661,2166 1727,2185 1757,2195 1780,2193 1817,2201 1870,2211 1884,2225 1890,2256 1875,2325 1859,2382 1853,2443 1858,2504 1885,2555 1915,2631 1956,2739 1977,2772 2005,2775 2029,2786 2047,2824 2062,2839 2097,2851 2176,2880 2257,2904 2293,2903 2352,2889 2370,2888 2387,2896 2454,2949 2545,3000 2607,3026 2732,3094 2767,3111 2789,3108 2800,3101 2801,3084 2806,3068 2828,3064 2849,3056 2864,3046 2890,3033 2917,3021 2942,3014 2969,3010 2996,3016 3023,3021 3048,3026 3074,3043 3081,3049 3091,3057 3104,3068 3116,3076 3124,3082 3143,3088 3159,3105 3198,3154 3206,3194 3180,3209 3172,3228 3146,3246 3137,3249 3139,3263 3131,3267 3130,3276 3130,3289 3110,3291 3085,3284 3080,3292 3059,3278 3026,3259 2994,3249 2974,3244 2959,3244 2938,3251 2929,3259 2916,3270 2911,3283 2913,3299 2926,3323 2940,3348 2943,3363 2942,3381 2939,3394 2933,3406 2933,3416 2928,3423 2912,3425 2898,3425 2884,3423 2873,3417 2850,3405 2847,3413 2841,3439 2848,3446 2921,3478 2944,3493 2945,3503 2965,3517 2970,3517 3006,3541 3012,3551 3004,3557 3006,3571 3045,3609 3054,3613 3074,3606 3095,3607 3122,3627 3125,3651 3107,3679 3095,3690 3095,3698 3104,3710 3126,3721 3124,3734 3145,3741 3160,3739 3190,3734 3202,3759 3214,3761 3209,3770 3208,3783 3205,3813 3194,3827 3186,3852 3207,3858 3220,3858 3226,3844 3236,3838 3256,3834 3303,3814 3328,3810 3356,3832 3359,3882 3327,3907 3307,3898 3300,3900 3294,3907 3280,3917 3260,3926 3248,3929 3233,3930 3230,3938 3230,3946 3244,3988 3132,4173 3024,4347 2990,4300 2876,4176 2865,4163 2839,4148 2817,4143 2790,4119 2765,4096 2761,4092 2741,4066 2734,4040 2723,4014 2710,3989 2697,3963 2683,3937 2669,3912 2655,3885 2640,3858 2626,3832 2608,3807 2582,3786 2556,3765 2530,3761 2504,3757 2478,3753 2453,3744 2432,3718 2406,3711 2376,3722 2365,3728 2359,3753 2351,3767 2336,3767 2319,3772 2303,3798 2281,3815 2273,3819 2274,3835 2273,3851 2261,3856 2226,3856 2200,3853 2186,3849 2178,3856 2173,3869 2172,3877 2167,3885 2158,3878 2152,3872 2135,3818 2131,3807 2125,3802 2113,3801 2091,3799 2073,3799 1973,3797 1914,3799 1873,3797 1806,3796 1754,3792 1724,3789 1712,3790 1716,3783 1722,3770 1721,3752 1713,3724 1713,3711 1718,3703 1729,3693 1746,3681 1760,3668 1762,3659 1761,3642 1755,3630 1737,3607 1727,3587 1726,3568 1725,3544 1721,3532 1710,3514 1697,3509 1673,3516 1657,3540 1631,3557 1606,3573 1580,3561 1553,3541 1527,3528 1501,3528 1475,3524 1449,3517 1424,3510 1398,3505 1373,3501 1347,3503 1321,3526 1305,3516 1295,3512 1284,3516 1271,3528 1263,3527 1258,3519 1269,3507 1279,3481 1286,3456 1291,3430 1271,3403 1238,3386 1241,3383 1230,3381 1188,3375 1126,3357 1118,3353 1123,3353 1137,3356 1143,3359 1151,3357 1157,3322 1161,3315 1190,3305 1197,3299 1199,3292 1192,3278 1186,3272 1179,3260 1176,3234 1177,3220 1173,3213 1167,3209 1162,3202 1160,3182 1156,3175 1136,3164 1107,3151 1104,3138 1105,3132 1126,3100 1149,3076 1152,3070 1152,3010 1188,3020 1194,3023 1222,3029 1229,3025 1242,3011 1245,3005 1249,2986 1248,2963 1232,2914 1231,2892 1226,2886 1219,2885 1186,2889 1180,2853 1180,2790 1161,2757 1149,2708 1139,2695 1133,2690 1098,2669 1086,2657 1075,2643 1058,2616 1043,2580 1037,2561 1023,2493 1070,2485 1083,2476 1088,2460 1100,2445 1116,2441 1137,2432 1146,2424 1147,2410 1149,2399 1160,2389 1171,2385 1183,2390 1198,2395 1210,2392 1237,2387 1243,2367 1285,2375 1288,2370 1288,2350 1297,2349 1330,2352 1337,2349 1340,2331 1344,2321 1354,2320 1363,2322 1368,2289 1377,2264 1397,2238 1380,2224 1352,2210 1293,2194 1222,2182 1199,2171 1193,2151 1189,2129 1196,2107 1193,2090 1193,2065 1201,2060 1215,2041 1296,2071 " class="polyStyle" id="321302" style="fill:#fbe6ef"/>
<polygon points="700,1276 726,1286 740,1333 751,1344 795,1362 799,1368 798,1375 801,1399 807,1406 813,1410 820,1413 826,1413 840,1409 868,1396 913,1392 978,1418 1004,1430 1031,1434 1059,1426 1071,1415 1076,1402 1078,1394 1079,1370 1060,1344 1057,1331 1061,1319 1089,1306 1135,1319 1193,1329 1252,1301 1259,1301 1267,1316 1273,1322 1299,1340 1305,1346 1378,1401 1377,1475 1384,1492 1423,1576 1472,1609 1755,1598 1808,1566 1847,1549 1854,1549 1873,1544 1924,1537 1944,1535 2009,1534 2061,1527 2093,1521 2126,1520 2220,1528 2251,1527 2290,1540 2439,1568 2454,1573 2495,1591 2581,1584 2593,1586 2619,1592 2651,1615 2689,1630 2695,1627 2720,1620 2732,1614 2740,1595 2754,1584 2777,1576 2788,1576 2797,1574 2857,1541 2879,1530 2898,1523 2903,1520 2929,1512 2955,1507 2982,1503 3007,1499 3021,1524 3028,1551 3020,1566 3011,1577 3009,1603 3017,1629 3025,1655 3037,1680 3062,1697 3088,1713 3115,1731 3140,1751 3162,1776 3162,1801 3161,1827 3177,1853 3179,1856 3191,1883 3204,1908 3198,1934 3180,1961 3155,1984 3123,2003 3118,2016 3109,2073 3124,2086 3152,2100 3185,2078 3197,2076 3206,2105 3211,2129 3218,2154 3226,2179 3233,2204 3241,2230 3249,2255 3257,2280 3263,2307 3270,2332 3286,2353 3296,2357 3295,2366 3294,2386 3282,2392 3266,2417 3253,2428 3248,2443 3237,2469 3237,2480 3226,2495 3218,2522 3230,2547 3238,2558 3233,2573 3229,2598 3212,2624 3210,2643 3229,2650 3249,2648 3255,2655 3280,2664 3302,2673 3304,2710 3304,2736 3292,2738 3275,2744 3267,2755 3270,2782 3274,2795 3271,2808 3265,2821 3245,2831 3226,2835 3213,2860 3212,2870 3191,2872 3177,2911 3181,2923 3206,2943 3218,2954 3201,2983 3181,3015 3168,3036 3177,3048 3174,3055 3167,3059 3141,3057 3132,3062 3116,3076 3104,3068 3091,3057 3081,3049 3074,3043 3048,3026 3023,3021 2996,3016 2969,3010 2942,3014 2917,3021 2890,3033 2864,3046 2849,3056 2828,3064 2806,3068 2801,3084 2800,3101 2789,3108 2767,3111 2732,3094 2607,3026 2545,3000 2454,2949 2387,2896 2370,2888 2352,2889 2293,2903 2257,2904 2176,2880 2097,2851 2062,2839 2047,2824 2029,2786 2005,2775 1977,2772 1956,2739 1915,2631 1885,2555 1858,2504 1853,2443 1859,2382 1875,2325 1890,2256 1884,2225 1870,2211 1817,2201 1780,2193 1757,2195 1727,2185 1661,2166 1527,2118 1486,2147 1461,2135 1427,2126 1403,2131 1378,2127 1358,2126 1296,2071 1215,2041 1201,2060 1193,2065 1193,2090 1196,2107 1189,2129 1193,2151 1199,2171 1222,2182 1293,2194 1352,2210 1380,2224 1397,2238 1377,2264 1368,2289 1363,2322 1354,2320 1344,2321 1340,2331 1337,2349 1330,2352 1297,2349 1288,2350 1288,2370 1285,2375 1243,2367 1237,2387 1210,2392 1198,2395 1183,2390 1171,2385 1160,2389 1149,2399 1147,2410 1146,2424 1137,2432 1116,2441 1100,2445 1088,2460 1083,2476 1070,2485 1023,2493 1022,2486 1022,2479 1008,2427 965,2366 954,2353 942,2342 934,2337 894,2338 889,2397 877,2423 873,2429 853,2439 837,2436 822,2415 807,2406 760,2402 741,2402 734,2400 728,2392 727,2386 738,2363 744,2336 736,2302 735,2288 730,2282 723,2280 690,2288 678,2286 662,2281 617,2256 577,2252 571,2248 563,2227 550,2212 538,2203 498,2196 483,2195 475,2190 468,2171 453,2145 455,2130 451,2122 453,2116 467,2112 473,2093 474,2086 463,2068 470,2054 475,2048 481,2047 509,2047 529,2044 550,2044 556,2047 566,2059 578,2062 590,2054 605,2032 625,2008 616,1957 617,1950 633,1947 639,1944 640,1937 637,1931 631,1926 611,1915 604,1897 603,1890 605,1871 624,1856 625,1844 619,1819 595,1761 594,1755 572,1694 553,1655 548,1649 515,1654 451,1675 425,1681 377,1690 370,1688 347,1667 335,1653 332,1645 337,1638 344,1634 350,1628 352,1622 348,1609 322,1604 311,1591 305,1587 297,1585 290,1581 287,1568 281,1536 279,1492 300,1417 306,1411 316,1411 357,1414 363,1413 398,1395 427,1392 457,1382 477,1378 507,1374 579,1368 605,1359 619,1353 625,1347 611,1328 614,1321 629,1302 649,1288 648,1274 655,1262 662,1257 668,1257 675,1261 " class="polyStyle" id="321311" style="fill:#d4ecb2"/>
<path d="" class="polyStyle" id="320302" style="fill:#d4ecb2"/>
<path d="" class="polyStyle" id="140311" style="fill:#ee8b94"/>
<path d="" class="polyStyle" id="610802" style="fill:#ee8b94"/>
<path d="" class="polyStyle" id="120116" style="fill:#f6f67b"/>
<path d="" class="polyStyle" id="130303" style="fill:#fbe6ef"/>
<path d="" class="polyStyle" id="140211" style="fill:#f6f67b"/>
<path d="" class="polyStyle" id="150207" style="fill:#fbe6ef"/>
<path d="" class="polyStyle" id="211403" style="fill:#f6f67b"/>
<path d="" class="polyStyle" id="150802" style="fill:#f8c67d"/>
<path d="" class="polyStyle" id="210112" style="fill:#ee8b94"/>
<path d="" class="polyStyle" id="230406" style="fill:#d4ecb2"/>
<path d="" class="polyStyle" id="110113" style="fill:#fbe6ef"/>
<path d="" class="polyStyle" id="341702" style="fill:#fbe6ef"/>
<path d="" class="polyStyle" id="420303" style="fill:#ee8b94"/>
<path d="" class="polyStyle" id="340702" style="fill:#d4ecb2"/>
<path d="" class="polyStyle" id="421002" style="fill:#f6f67b"/>
<path d="" class="polyStyle" id="420117" style="fill:#f6f67b"/>
<path d="" class="polyStyle" id="440904" style="fill:#f8c67d"/>
<path d="" class="polyStyle" id="460205" style="fill:#ee8b94"/>
<path d="" class="polyStyle" id="460202" style="fill:#f6f67b"/>
<path d="" class="polyStyle" id="460203" style="fill:#fbe6ef"/>
<path d="" class="polyStyle" id="420304" style="fill:#f6f67b"/>
<path d="" class="polyStyle" id="445302" style="fill:#ee8b94"/>
<path d="" class="polyStyle" id="410202" style="fill:#d4ecb2"/>
<path d="" class="polyStyle" id="440800" style="fill:#f6f67b"/>
<path d="" class="polyStyle" id="440900" style="fill:#ee8b94"/>
<path d="" class="polyStyle" id="340800" style="fill:#ee8b94"/>
<path d="" class="polyStyle" id="460200" style="fill:#f6f67b"/>
<path d="" class="polyStyle" id="460000" style="fill:#ee8b94"/>
<path d="" class="polyStyle" id="450500" style="fill:#ee8b94"/>
<path d="" class="polyStyle" id="450600" style="fill:#ee8b94"/>
<path d="" class="polyStyle" id="440400" style="fill:#f6f67b"/>
<path d="" class="polyStyle" id="441700" style="fill:#f6f67b"/>
<path d="" class="polyStyle" id="441500" style="fill:#f6f67b"/>
<path d="" class="polyStyle" id="350600" style="fill:#ee8b94"/>
<path d="" class="polyStyle" id="710000" style="fill:#f6f67b"/>
<path d="" class="polyStyle" id="510400" style="fill:#f6f67b"/>
<path d="" class="polyStyle" id="522600" style="fill:#fbe6ef"/>
<path d="" class="polyStyle" id="520500" style="fill:#ee8b94"/>
<path d="" class="polyStyle" id="431200" style="fill:#f6f67b"/>
<path d="" class="polyStyle" id="430600" style="fill:#f6f67b"/>
<path d="" class="polyStyle" id="511400" style="fill:#d4ecb2"/>
<path d="" class="polyStyle" id="421000" style="fill:#ee8b94"/>
<path d="" class="polyStyle" id="341700" style="fill:#f6f67b"/>
<path d="" class="polyStyle" id="420500" style="fill:#f6f67b"/>
<path d="" class="polyStyle" id="511300" style="fill:#f6f67b"/>
<path d="" class="polyStyle" id="420900" style="fill:#f6f67b"/>
<path d="" class="polyStyle" id="511700" style="fill:#ee8b94"/>
<path d="" class="polyStyle" id="420600" style="fill:#d4ecb2"/>
<path d="" class="polyStyle" id="411500" style="fill:#fbe6ef"/>
<path d="" class="polyStyle" id="510800" style="fill:#ee8b94"/>
<path d="" class="polyStyle" id="420300" style="fill:#fbe6ef"/>
<path d="" class="polyStyle" id="611000" style="fill:#ee8b94"/>
<path d="" class="polyStyle" id="620800" style="fill:#fbe6ef"/>
<path d="" class="polyStyle" id="370200" style="fill:#ee8b94"/>
<path d="" class="polyStyle" id="371000" style="fill:#f6f67b"/>
<path d="" class="polyStyle" id="370600" style="fill:#fbe6ef"/>
<path d="" class="polyStyle" id="120000" style="fill:#f6f67b"/>
<path d="" class="polyStyle" id="130200" style="fill:#ee8b94"/>
<path d="" class="polyStyle" id="130300" style="fill:#f6f67b"/>
<path d="" class="polyStyle" id="652900" style="fill:#fbe6ef"/>
<path d="" class="polyStyle" id="150500" style="fill:#d4ecb2"/>
<path d="" class="polyStyle" id="" style="fill:#d4ecb2"/>
<path d="" class="polyStyle" id="350500" style="fill:#fbe6ef"/>
<path d="" class="polyStyle" id="440400" style="fill:#f6f67b"/>
<path d="" class="polyStyle" id="421100" style="fill:#d4ecb2"/>
<path d="" class="polyStyle" id="420100" style="fill:#fbe6ef"/>
<path d="" class="polyStyle" id="532500" style="fill:#fbe6ef"/>
<path d="" class="polyStyle" id="654200" style="fill:#fbe6ef"/>
<path d="" class="polyStyle" id="210700" style="fill:#d4ecb2"/>
<path d="" class="polyStyle" id="522300" style="fill:#fbe6ef"/>
<path d="" class="polyStyle" id="" style="fill:#ee8b94"/>
<path d="" class="polyStyle" id="440400" style="fill:#f6f67b"/>
<path d="" class="polyStyle" id="620000" style="fill:#f6f67b"/>
<path d="" class="polyStyle" id="430000" style="fill:#fbe6ef"/>
<path d="" class="polyStyle" id="420000" style="fill:#ee8b94"/>
<path d="" class="polyStyle" id="410000" style="fill:#f6f67b"/>
<path d="" class="polyStyle" id="350000" style="fill:#fbe6ef"/>
<path d="" class="polyStyle" id="520000" style="fill:#f6f67b"/>
<path d="" class="polyStyle" id="" style="fill:#ee8b94"/>
</svg>
