<?xml version="1.0" encoding="UTF-8"?>
<!DOCTYPE svg PUBLIC "-//W3C//DTD SVG 1.1 Tiny//EN" "http://www.w3.org/Graphics/SVG/1.1/DTD/svg11-tiny.dtd">
<svg version="1.1" xmlns="http://www.w3.org/2000/svg" xmlns:xlink="http://www.w3.org/1999/xlink" width="100%" height="100%" viewBox="0,0,6593,6297">
<title>SVG</title>
<desc>Poligon Test</desc>
<style id="style_css_sheet" type="text/css">
.polyStyle{fill: #cccccc;stroke-width:0;fill-rule:evenodd;}
</style>
<circle cx="3009" cy="3806" r="200" stroke="black" stroke-width="1" fill="red" id="330881" name="江山市"/>
<circle cx="5751" cy="2341" r="200" stroke="black" stroke-width="1" fill="red" id="330825" name="龙游县"/>
<circle cx="1931" cy="1796" r="200" stroke="black" stroke-width="1" fill="red" id="330824" name="开化县"/>
<circle cx="2450" cy="2983" r="200" stroke="black" stroke-width="1" fill="red" id="330822" name="常山县"/>
<circle cx="4564" cy="2597" r="200" stroke="black" stroke-width="1" fill="red" id="330803" position="2"name="衢江区"/>
<circle cx="4230" cy="2646" r="200" stroke="black" stroke-width="1" fill="red" id="330802" position="44"name="柯城区"/>
<path d="" class="polyStyle" id="" style="fill:#ee8b94"/>
<path d="" class="polyStyle" id="623022" style="fill:#fbe6ef"/>
<path d="" class="polyStyle" id="211421" style="fill:#f6f67b"/>
<path d="" class="polyStyle" id="532524" style="fill:#ee8b94"/>
<path d="" class="polyStyle" id="440825" style="fill:#f6f67b"/>
<path d="" class="polyStyle" id="441721" style="fill:#f6f67b"/>
<path d="" class="polyStyle" id="450521" style="fill:#f6f67b"/>
<path d="" class="polyStyle" id="450123" style="fill:#fbe6ef"/>
<path d="" class="polyStyle" id="350624" style="fill:#f6f67b"/>
<path d="" class="polyStyle" id="" style="fill:#fbe6ef"/>
<path d="" class="polyStyle" id="451224" style="fill:#fbe6ef"/>
<path d="" class="polyStyle" id="350627" style="fill:#f6f67b"/>
<path d="" class="polyStyle" id="" style="fill:#f6f67b"/>
<path d="" class="polyStyle" id="350525" style="fill:#f6f67b"/>
<path d="" class="polyStyle" id="530124" style="fill:#ee8b94"/>
<path d="" class="polyStyle" id="522627" style="fill:#ee8b94"/>
<path d="" class="polyStyle" id="510421" style="fill:#fbe6ef"/>
<path d="" class="polyStyle" id="522623" style="fill:#d4ecb2"/>
<path d="" class="polyStyle" id="430321" style="fill:#d4ecb2"/>
<polygon points="3643,1427 3649,1433 3650,1436 3650,1440 3647,1446 3642,1455 3641,1462 3644,1467 3651,1471 3657,1474 3662,1479 3671,1501 3680,1520 3683,1530 3683,1536 3681,1540 3679,1544 3675,1547 3671,1550 3667,1557 3664,1558 3652,1559 3648,1562 3647,1565 3648,1574 3653,1577 3651,1585 3652,1588 3659,1595 3660,1599 3659,1613 3660,1616 3660,1627 3658,1638 3653,1641 3645,1642 3637,1645 3632,1653 3626,1659 3615,1666 3600,1669 3594,1671 3591,1675 3589,1680 3589,1688 3589,1722 3590,1727 3588,1732 3577,1735 3567,1736 3560,1739 3557,1743 3558,1748 3560,1754 3558,1762 3555,1767 3556,1773 3557,1781 3557,1786 3554,1794 3564,1817 3568,1831 3565,1843 3550,1872 3545,1882 3540,1885 3508,1899 3503,1902 3501,1906 3501,1915 3497,1920 3492,1927 3492,1936 3481,1949 3475,1953 3470,1954 3461,1957 3449,1955 3445,1956 3437,1971 3430,1984 3414,1991 3402,2000 3401,2004 3406,2013 3404,2020 3402,2029 3405,2038 3405,2045 3401,2058 3397,2079 3396,2095 3391,2102 3387,2107 3386,2117 3384,2121 3378,2125 3360,2144 3356,2148 3354,2155 3359,2169 3364,2176 3363,2180 3360,2184 3359,2191 3362,2202 3369,2212 3366,2219 3370,2228 3371,2233 3366,2241 3367,2253 3358,2264 3356,2268 3356,2274 3354,2287 3350,2293 3345,2297 3343,2302 3343,2307 3346,2311 3354,2322 3358,2335 3357,2349 3354,2352 3350,2351 3345,2349 3341,2351 3339,2357 3338,2369 3334,2375 3328,2383 3324,2395 3322,2401 3315,2411 3306,2416 3305,2423 3306,2427 3302,2431 3301,2435 3303,2438 3307,2439 3311,2441 3308,2448 3311,2452 3315,2456 3327,2457 3335,2460 3335,2462 3328,2465 3330,2469 3333,2473 3326,2476 3319,2478 3321,2482 3323,2486 3325,2505 3329,2513 3333,2515 3338,2517 3340,2520 3339,2523 3331,2526 3334,2529 3347,2534 3351,2539 3350,2543 3344,2549 3336,2548 3332,2550 3330,2556 3331,2560 3334,2563 3333,2566 3329,2567 3326,2568 3324,2571 3327,2583 3332,2600 3330,2605 3328,2609 3331,2614 3336,2628 3342,2631 3351,2630 3355,2628 3360,2623 3362,2621 3367,2621 3373,2624 3377,2629 3385,2639 3387,2645 3391,2650 3400,2653 3406,2656 3409,2664 3411,2675 3418,2678 3428,2677 3432,2675 3435,2671 3439,2671 3440,2681 3439,2689 3441,2692 3445,2693 3450,2693 3451,2697 3453,2710 3460,2720 3468,2725 3471,2732 3480,2735 3487,2741 3487,2746 3481,2749 3475,2753 3471,2759 3470,2768 3470,2773 3472,2776 3472,2781 3469,2784 3454,2789 3448,2791 3445,2794 3429,2806 3426,2812 3428,2816 3432,2818 3438,2819 3445,2816 3456,2808 3463,2805 3472,2804 3483,2806 3485,2810 3483,2819 3470,2827 3461,2834 3460,2840 3459,2843 3448,2850 3451,2853 3450,2856 3445,2860 3438,2868 3434,2863 3430,2859 3427,2868 3429,2873 3435,2878 3442,2874 3455,2859 3458,2860 3458,2867 3454,2871 3449,2875 3452,2878 3460,2881 3464,2885 3459,2891 3455,2896 3452,2904 3449,2903 3445,2904 3449,2909 3449,2916 3445,2926 3440,2931 3436,2935 3434,2944 3425,2948 3422,2957 3417,2966 3402,2969 3392,2970 3385,2974 3379,2979 3373,2989 3365,3002 3358,3017 3349,3022 3294,3027 3289,3028 3286,3031 3288,3036 3294,3044 3296,3047 3291,3054 3282,3063 3270,3070 3266,3072 3264,3075 3267,3085 3255,3095 3256,3098 3262,3101 3264,3104 3266,3111 3265,3117 3259,3128 3251,3129 3230,3136 3201,3145 3188,3149 3183,3149 3171,3147 3163,3148 3142,3157 3119,3163 3115,3165 3112,3169 3110,3180 3104,3181 3095,3179 3081,3182 3078,3182 3069,3187 3065,3187 3056,3186 3048,3188 3043,3187 3034,3182 3009,3166 2997,3158 2990,3158 2983,3161 2979,3159 2969,3148 2964,3141 2954,3140 2949,3140 2945,3142 2931,3152 2924,3153 2921,3159 2922,3168 2930,3185 2944,3204 2941,3217 2950,3221 2948,3230 2944,3235 2934,3242 2927,3245 2923,3251 2924,3257 2915,3260 2904,3265 2899,3268 2896,3273 2893,3286 2892,3289 2889,3290 2876,3287 2860,3292 2851,3287 2835,3274 2832,3276 2829,3284 2825,3285 2820,3284 2816,3281 2812,3280 2804,3283 2795,3281 2781,3273 2769,3266 2759,3265 2747,3263 2732,3253 2723,3247 2718,3247 2703,3247 2701,3249 2701,3253 2705,3266 2706,3271 2700,3275 2687,3289 2676,3296 2667,3295 2657,3291 2649,3292 2641,3297 2633,3299 2625,3301 2615,3310 2607,3312 2605,3307 2601,3299 2584,3289 2575,3287 2565,3293 2542,3304 2533,3295 2526,3294 2529,3306 2529,3318 2526,3339 2515,3359 2511,3365 2502,3373 2490,3380 2481,3373 2468,3362 2465,3349 2462,3336 2455,3322 2448,3318 2444,3318 2439,3322 2436,3327 2431,3329 2416,3327 2409,3328 2405,3328 2399,3322 2389,3324 2385,3328 2382,3332 2376,3334 2353,3334 2350,3335 2348,3338 2344,3348 2348,3358 2348,3364 2349,3370 2358,3379 2358,3385 2360,3390 2362,3395 2357,3398 2355,3401 2357,3406 2354,3409 2346,3411 2342,3412 2341,3416 2340,3421 2336,3427 2335,3432 2339,3440 2327,3445 2324,3447 2321,3451 2320,3464 2313,3482 2289,3497 2291,3506 2289,3515 2284,3525 2276,3534 2280,3537 2281,3543 2280,3548 2274,3550 2267,3556 2264,3562 2263,3568 2258,3570 2254,3571 2253,3578 2237,3594 2226,3610 2228,3630 2228,3643 2235,3648 2236,3657 2232,3657 2222,3652 2218,3651 2217,3657 2213,3661 2209,3661 2201,3655 2198,3655 2194,3656 2192,3653 2185,3652 2173,3648 2160,3635 2158,3632 2159,3627 2169,3613 2169,3605 2164,3596 2163,3593 2166,3584 2165,3577 2163,3573 2160,3572 2150,3578 2148,3581 2156,3585 2151,3590 2146,3590 2142,3588 2137,3588 2130,3590 2125,3586 2119,3580 2113,3578 2109,3576 2099,3565 2097,3561 2101,3553 2097,3553 2091,3558 2082,3560 2076,3556 2063,3548 2059,3545 2047,3544 2036,3540 2017,3539 2011,3541 2009,3545 2006,3548 1998,3550 1981,3560 1977,3560 1969,3556 1957,3544 1954,3529 1953,3525 1955,3517 1947,3514 1943,3512 1934,3512 1918,3521 1904,3521 1900,3521 1897,3518 1894,3514 1890,3514 1886,3515 1882,3520 1875,3526 1869,3525 1853,3517 1849,3517 1846,3519 1838,3532 1839,3548 1834,3554 1838,3570 1837,3582 1833,3583 1828,3583 1828,3590 1825,3601 1822,3602 1818,3600 1814,3600 1811,3602 1803,3614 1798,3617 1790,3615 1781,3617 1777,3619 1775,3622 1772,3624 1767,3623 1764,3609 1762,3575 1770,3561 1776,3547 1774,3543 1770,3539 1750,3523 1740,3513 1732,3509 1724,3481 1724,3473 1714,3441 1702,3429 1692,3425 1584,3419 1530,3415 1522,3411 1500,3399 1488,3389 1478,3381 1460,3379 1448,3379 1424,3379 1406,3375 1390,3365 1382,3351 1368,3351 1360,3347 1350,3331 1342,3323 1338,3315 1336,3311 1348,3301 1372,3289 1388,3283 1386,3277 1380,3269 1370,3259 1352,3251 1346,3245 1346,3233 1348,3223 1336,3203 1328,3177 1318,3169 1296,3167 1284,3115 1278,3077 1258,3011 1236,2969 1234,2963 1220,2937 1212,2919 1202,2909 1196,2901 1192,2897 1180,2891 1168,2891 1160,2883 1144,2866 1153,2852 1158,2841 1165,2832 1177,2821 1181,2822 1184,2825 1196,2833 1202,2842 1209,2841 1212,2843 1214,2852 1220,2850 1222,2852 1224,2859 1228,2863 1233,2853 1241,2851 1257,2850 1270,2845 1277,2842 1284,2842 1289,2843 1293,2846 1308,2868 1311,2870 1317,2870 1324,2865 1327,2861 1336,2856 1341,2853 1349,2854 1353,2858 1356,2869 1371,2867 1383,2866 1385,2864 1392,2856 1396,2854 1399,2855 1424,2868 1430,2869 1452,2866 1467,2863 1473,2860 1475,2857 1477,2854 1480,2853 1488,2853 1497,2853 1503,2849 1505,2841 1509,2837 1514,2836 1531,2838 1540,2839 1546,2843 1552,2848 1560,2849 1570,2846 1579,2838 1589,2829 1594,2820 1602,2816 1612,2817 1625,2822 1632,2825 1636,2824 1651,2805 1660,2793 1662,2784 1661,2781 1641,2767 1629,2754 1624,2746 1629,2739 1639,2717 1640,2706 1642,2701 1652,2687 1657,2675 1661,2670 1672,2660 1673,2649 1676,2645 1697,2638 1715,2627 1725,2621 1725,2617 1727,2614 1738,2606 1752,2601 1766,2601 1769,2587 1774,2588 1786,2589 1807,2588 1823,2588 1833,2585 1837,2577 1842,2567 1855,2558 1865,2560 1873,2562 1886,2562 1894,2565 1902,2566 1912,2561 1915,2561 1919,2562 1923,2567 1930,2577 1937,2584 1941,2594 1950,2603 1956,2611 1964,2616 1969,2619 1974,2616 1979,2612 1994,2610 2003,2606 2007,2607 2015,2610 2022,2609 2039,2595 2037,2586 2035,2583 2035,2579 2041,2569 2045,2548 2054,2541 2063,2540 2071,2538 2078,2528 2089,2514 2097,2507 2102,2502 2108,2491 2111,2488 2109,2483 2095,2469 2091,2460 2088,2451 2089,2447 2099,2434 2102,2428 2111,2426 2117,2418 2124,2411 2127,2409 2127,2402 2122,2401 2116,2397 2115,2392 2118,2388 2119,2384 2116,2376 2115,2370 2119,2360 2126,2335 2131,2325 2137,2321 2150,2316 2157,2311 2161,2306 2167,2305 2173,2308 2174,2317 2172,2324 2173,2327 2175,2330 2180,2331 2213,2330 2229,2324 2237,2324 2242,2318 2244,2315 2247,2314 2264,2314 2284,2303 2287,2291 2291,2289 2298,2289 2306,2286 2313,2283 2317,2279 2326,2272 2327,2268 2327,2256 2329,2251 2335,2244 2339,2236 2340,2226 2343,2220 2362,2206 2377,2205 2384,2203 2397,2192 2401,2189 2405,2182 2427,2167 2440,2155 2439,2147 2444,2144 2454,2138 2459,2138 2462,2137 2465,2127 2473,2115 2481,2110 2507,2101 2513,2090 2517,2088 2518,2081 2516,2066 2523,2062 2525,2058 2522,2046 2524,2042 2533,2049 2539,2048 2551,2039 2558,2028 2564,2028 2569,2032 2576,2033 2586,2031 2589,2027 2591,2022 2599,2021 2605,2019 2611,2012 2630,1999 2644,1990 2650,1986 2652,1981 2656,1975 2662,1973 2671,1970 2676,1966 2680,1958 2684,1955 2689,1954 2710,1949 2720,1945 2730,1936 2734,1928 2737,1921 2744,1912 2753,1900 2764,1889 2770,1877 2772,1864 2764,1841 2755,1827 2756,1823 2760,1818 2759,1805 2760,1801 2766,1792 2785,1773 2788,1766 2794,1758 2803,1746 2814,1740 2825,1737 2829,1739 2831,1742 2834,1742 2844,1737 2863,1721 2870,1709 2876,1706 2886,1700 2897,1689 2896,1686 2898,1682 2910,1671 2917,1675 2927,1664 2933,1661 2938,1652 2943,1646 2950,1646 2955,1643 2959,1636 2964,1628 2968,1623 2969,1618 2951,1611 2945,1603 2946,1600 2950,1597 2965,1593 2968,1589 2970,1585 2976,1581 2977,1563 2974,1546 2969,1536 2971,1531 3011,1517 3034,1519 3049,1518 3079,1514 3096,1509 3116,1503 3129,1501 3159,1495 3179,1492 3192,1488 3214,1480 3231,1480 3247,1481 3265,1477 3279,1471 3283,1470 3288,1472 3304,1478 3325,1495 3340,1509 3348,1509 3354,1512 3371,1526 3380,1530 3396,1533 3408,1542 3422,1556 3425,1555 3428,1551 3435,1541 3449,1533 3464,1516 3468,1507 3469,1493 3501,1492 3518,1491 3522,1487 3523,1483 3527,1448 3536,1447 3549,1443 3558,1436 3567,1427 3577,1420 3588,1417 3597,1417 3616,1420 3627,1419 3640,1411 3640,1420 " class="polyStyle" id="330822" style="fill:#ee8b94"/>
<path d="" class="polyStyle" id="511129" style="fill:#d4ecb2"/>
<polygon points="5925,1006 5929,1005 5936,1002 5942,1004 5950,1006 5959,1005 5965,1006 5975,1015 5981,1010 5987,1008 5990,1010 5996,1018 6012,1023 6014,1027 6014,1033 6004,1040 6002,1045 6003,1052 6010,1052 6013,1053 6009,1060 6009,1068 6011,1074 6013,1078 6009,1085 6006,1090 6005,1096 6006,1111 6010,1120 6015,1119 6021,1117 6025,1118 6029,1121 6030,1127 6030,1132 6028,1136 6019,1142 6019,1146 6032,1165 6035,1172 6038,1182 6042,1185 6049,1185 6049,1189 6037,1209 6026,1204 6017,1204 6019,1213 6025,1219 6032,1230 6033,1237 6036,1241 6039,1240 6042,1235 6047,1230 6062,1225 6077,1226 6087,1231 6092,1231 6092,1227 6089,1225 6085,1222 6083,1219 6083,1215 6085,1212 6090,1212 6105,1219 6127,1235 6150,1244 6153,1247 6147,1250 6142,1255 6140,1261 6137,1278 6134,1279 6126,1283 6121,1292 6116,1302 6106,1313 6088,1323 6085,1326 6084,1330 6081,1341 6071,1349 6048,1362 6027,1367 6030,1388 6040,1400 6038,1406 6031,1413 6026,1415 6024,1417 6023,1431 6026,1443 6028,1446 6035,1450 6041,1455 6043,1461 6042,1471 6037,1479 6028,1483 6027,1487 6028,1499 6026,1502 6023,1503 6006,1503 6000,1505 5991,1504 5975,1501 5971,1503 5970,1506 5966,1518 5976,1521 5981,1524 5986,1528 5991,1526 6002,1523 6008,1529 6009,1533 6009,1537 6012,1540 6017,1541 6026,1539 6030,1538 6029,1533 6028,1527 6034,1523 6045,1529 6055,1534 6063,1535 6069,1538 6071,1546 6070,1551 6067,1555 6064,1559 6070,1564 6080,1571 6083,1579 6077,1600 6077,1627 6071,1627 6067,1629 6064,1636 6065,1646 6071,1654 6075,1659 6077,1665 6078,1673 6069,1679 6070,1682 6074,1685 6083,1692 6086,1702 6088,1708 6100,1715 6110,1718 6113,1720 6114,1723 6113,1727 6107,1732 6105,1737 6106,1743 6111,1757 6111,1762 6108,1766 6116,1777 6123,1790 6127,1805 6131,1805 6139,1797 6145,1795 6150,1797 6161,1801 6169,1800 6176,1798 6184,1798 6192,1800 6200,1806 6206,1813 6209,1822 6211,1828 6210,1834 6205,1844 6203,1857 6204,1866 6210,1874 6215,1878 6216,1892 6220,1892 6221,1886 6253,1887 6256,1889 6258,1895 6260,1902 6264,1904 6286,1902 6296,1905 6300,1908 6302,1912 6300,1918 6293,1933 6292,1938 6293,1941 6297,1944 6301,1941 6303,1938 6307,1937 6315,1945 6321,1964 6326,1965 6339,1963 6348,1966 6356,1971 6367,1981 6370,1987 6369,1996 6361,2006 6361,2011 6365,2018 6371,2023 6372,2030 6369,2033 6360,2037 6360,2040 6365,2044 6373,2043 6377,2033 6380,2032 6382,2035 6383,2041 6395,2041 6401,2044 6395,2052 6394,2056 6402,2056 6428,2052 6435,2051 6441,2045 6448,2036 6460,2025 6476,2015 6487,2016 6490,2018 6491,2024 6494,2043 6500,2054 6519,2080 6535,2091 6543,2112 6543,2122 6542,2125 6539,2127 6534,2131 6532,2137 6529,2139 6521,2140 6511,2140 6506,2142 6502,2146 6499,2154 6496,2171 6491,2181 6481,2200 6483,2203 6492,2213 6500,2218 6503,2220 6504,2223 6505,2241 6509,2247 6526,2261 6529,2266 6529,2270 6523,2279 6512,2286 6505,2290 6513,2294 6518,2297 6521,2301 6521,2316 6517,2326 6514,2327 6512,2324 6512,2316 6506,2314 6504,2311 6498,2296 6495,2293 6491,2293 6486,2295 6491,2304 6494,2309 6495,2315 6491,2327 6485,2341 6484,2355 6486,2367 6490,2371 6502,2371 6502,2374 6498,2380 6497,2385 6492,2390 6483,2393 6478,2395 6474,2399 6473,2416 6475,2432 6473,2438 6464,2441 6461,2444 6458,2448 6457,2455 6456,2471 6465,2475 6466,2479 6463,2483 6460,2488 6459,2494 6463,2499 6469,2501 6477,2503 6481,2506 6484,2515 6488,2517 6488,2522 6480,2519 6474,2522 6473,2532 6472,2538 6467,2542 6467,2545 6471,2550 6482,2550 6485,2557 6490,2557 6496,2556 6499,2558 6498,2567 6496,2584 6484,2603 6477,2617 6471,2624 6469,2630 6475,2650 6474,2657 6470,2660 6458,2664 6455,2666 6454,2670 6451,2680 6444,2687 6440,2690 6438,2694 6438,2706 6438,2710 6436,2713 6425,2724 6426,2733 6438,2753 6438,2757 6424,2769 6422,2773 6428,2776 6433,2771 6439,2769 6443,2771 6443,2774 6438,2780 6437,2784 6438,2794 6444,2797 6458,2796 6460,2799 6459,2804 6459,2808 6464,2812 6477,2816 6491,2818 6496,2820 6497,2826 6495,2849 6493,2871 6487,2874 6481,2876 6480,2880 6483,2883 6500,2887 6509,2893 6508,2896 6501,2901 6500,2904 6515,2913 6519,2921 6519,2932 6521,2941 6525,2946 6529,2948 6540,2950 6548,2950 6553,2952 6560,2957 6567,2965 6579,2985 6592,2989 6593,2992 6582,2996 6586,3013 6583,3025 6582,3038 6581,3045 6577,3048 6574,3046 6572,3040 6570,3036 6567,3034 6563,3034 6560,3037 6557,3041 6556,3046 6557,3057 6556,3065 6550,3077 6546,3087 6541,3085 6534,3079 6526,3076 6519,3075 6515,3076 6512,3081 6514,3085 6520,3086 6529,3086 6535,3089 6539,3094 6541,3102 6541,3121 6541,3126 6539,3130 6533,3136 6532,3139 6529,3147 6527,3158 6524,3160 6517,3160 6498,3160 6493,3154 6491,3151 6488,3150 6480,3153 6469,3157 6467,3160 6464,3164 6459,3159 6457,3151 6453,3148 6440,3156 6433,3166 6429,3163 6425,3156 6421,3152 6418,3153 6416,3159 6412,3169 6405,3174 6406,3177 6412,3179 6423,3180 6424,3187 6418,3211 6414,3213 6414,3217 6412,3231 6411,3259 6407,3271 6410,3277 6420,3276 6448,3264 6475,3258 6490,3255 6498,3257 6507,3264 6510,3264 6512,3260 6514,3254 6518,3258 6519,3263 6525,3263 6528,3265 6530,3278 6537,3281 6540,3283 6540,3287 6537,3289 6533,3289 6529,3290 6527,3295 6529,3302 6534,3312 6535,3315 6539,3318 6552,3329 6565,3332 6569,3336 6572,3344 6578,3349 6581,3352 6582,3356 6575,3366 6567,3371 6561,3371 6552,3374 6550,3378 6551,3385 6551,3396 6540,3407 6534,3423 6520,3427 6513,3428 6510,3430 6508,3433 6508,3438 6508,3451 6504,3451 6492,3447 6489,3449 6487,3453 6482,3461 6478,3465 6470,3468 6461,3470 6459,3467 6457,3452 6446,3435 6427,3430 6417,3430 6411,3433 6401,3445 6395,3452 6387,3452 6383,3454 6379,3462 6377,3466 6373,3469 6365,3474 6354,3473 6350,3472 6347,3469 6342,3465 6332,3462 6308,3458 6282,3461 6272,3458 6265,3463 6255,3472 6245,3474 6237,3472 6229,3467 6226,3462 6222,3459 6213,3460 6204,3466 6197,3467 6190,3474 6191,3481 6194,3485 6198,3487 6202,3485 6205,3480 6207,3476 6211,3473 6216,3472 6222,3476 6235,3494 6239,3506 6232,3520 6220,3529 6198,3521 6193,3522 6192,3529 6188,3534 6187,3538 6183,3546 6173,3550 6167,3551 6167,3558 6171,3563 6176,3566 6184,3564 6193,3563 6193,3566 6188,3570 6170,3581 6165,3577 6164,3585 6165,3592 6163,3595 6153,3596 6137,3599 6135,3603 6137,3607 6140,3612 6140,3616 6131,3627 6128,3630 6120,3633 6114,3641 6107,3655 6109,3661 6111,3664 6111,3669 6104,3674 6089,3677 6085,3679 6083,3682 6079,3688 6073,3685 6069,3683 6062,3683 6038,3685 6028,3675 6020,3671 5995,3666 5981,3665 5967,3664 5954,3645 5931,3627 5925,3623 5920,3622 5915,3623 5910,3627 5904,3637 5906,3640 5907,3645 5904,3648 5898,3650 5893,3648 5897,3635 5895,3630 5891,3634 5888,3648 5884,3649 5878,3647 5878,3633 5887,3611 5884,3608 5870,3604 5860,3599 5849,3597 5836,3594 5827,3604 5809,3607 5803,3611 5801,3620 5800,3631 5799,3634 5793,3636 5784,3641 5778,3651 5768,3665 5745,3665 5740,3667 5739,3670 5743,3686 5743,3694 5738,3702 5739,3707 5740,3716 5734,3717 5716,3716 5713,3718 5712,3722 5718,3737 5707,3737 5700,3728 5691,3722 5689,3726 5688,3748 5686,3752 5676,3746 5672,3743 5667,3744 5650,3757 5634,3768 5616,3774 5610,3778 5609,3785 5592,3786 5574,3788 5565,3794 5560,3799 5554,3797 5549,3797 5538,3802 5531,3800 5510,3798 5501,3801 5495,3801 5483,3798 5480,3796 5479,3793 5476,3790 5467,3795 5463,3800 5456,3797 5448,3792 5435,3787 5432,3785 5426,3785 5418,3785 5414,3784 5409,3780 5399,3774 5387,3771 5372,3771 5369,3767 5366,3761 5359,3754 5352,3749 5350,3754 5348,3765 5343,3771 5335,3779 5333,3785 5327,3794 5315,3804 5305,3811 5302,3811 5294,3802 5287,3797 5286,3789 5275,3785 5263,3782 5257,3792 5251,3798 5243,3806 5228,3813 5213,3816 5202,3819 5188,3821 5179,3820 5179,3806 5170,3788 5167,3781 5170,3768 5175,3752 5179,3740 5182,3738 5186,3738 5195,3741 5198,3738 5201,3735 5212,3731 5214,3727 5214,3716 5214,3712 5217,3707 5229,3700 5240,3694 5243,3691 5244,3687 5245,3680 5250,3675 5242,3668 5250,3662 5250,3656 5255,3651 5255,3642 5250,3636 5248,3629 5243,3610 5233,3602 5227,3591 5225,3588 5218,3584 5199,3574 5195,3572 5194,3569 5196,3563 5194,3542 5195,3519 5194,3514 5188,3503 5187,3494 5188,3472 5191,3468 5202,3461 5215,3448 5232,3444 5239,3440 5245,3439 5257,3438 5264,3438 5272,3434 5280,3430 5292,3413 5306,3390 5310,3386 5316,3384 5323,3382 5333,3382 5342,3380 5358,3372 5360,3367 5358,3361 5357,3348 5354,3333 5351,3325 5351,3315 5361,3305 5374,3298 5378,3294 5380,3283 5383,3267 5388,3256 5389,3246 5390,3238 5394,3233 5399,3219 5395,3215 5383,3213 5381,3209 5383,3201 5383,3189 5385,3179 5387,3162 5385,3148 5412,3131 5436,3107 5439,3095 5434,3082 5428,3070 5425,3059 5427,3025 5430,3014 5439,2996 5439,2990 5432,2986 5416,2980 5411,2974 5403,2972 5397,2970 5398,2966 5403,2964 5396,2957 5394,2954 5395,2951 5405,2942 5416,2934 5418,2923 5418,2917 5409,2911 5410,2908 5431,2905 5435,2903 5430,2896 5429,2892 5440,2882 5446,2874 5451,2862 5451,2854 5449,2851 5445,2851 5430,2851 5434,2844 5438,2835 5444,2828 5445,2822 5441,2817 5438,2817 5434,2814 5428,2810 5426,2806 5423,2799 5416,2796 5411,2794 5406,2788 5402,2784 5394,2783 5390,2782 5388,2774 5385,2767 5381,2766 5376,2768 5369,2765 5361,2748 5356,2744 5352,2736 5349,2732 5348,2736 5351,2747 5352,2755 5350,2758 5346,2765 5340,2767 5326,2767 5323,2766 5323,2762 5329,2749 5330,2727 5327,2721 5320,2720 5315,2725 5312,2734 5310,2741 5306,2737 5303,2726 5300,2725 5295,2730 5293,2733 5285,2732 5286,2729 5291,2718 5293,2696 5286,2686 5274,2676 5269,2673 5266,2673 5261,2679 5258,2682 5255,2682 5250,2681 5243,2677 5237,2672 5229,2673 5226,2673 5221,2670 5213,2669 5208,2668 5204,2664 5202,2657 5202,2649 5202,2645 5200,2642 5192,2636 5193,2631 5190,2628 5186,2625 5183,2619 5180,2604 5181,2598 5190,2598 5194,2597 5188,2593 5179,2589 5177,2586 5180,2583 5185,2583 5197,2590 5211,2605 5216,2607 5224,2605 5232,2595 5234,2591 5240,2586 5238,2583 5222,2572 5219,2569 5219,2566 5223,2564 5228,2564 5232,2564 5240,2555 5248,2551 5252,2548 5246,2541 5245,2537 5249,2535 5254,2540 5258,2540 5260,2534 5268,2531 5270,2532 5270,2536 5280,2534 5288,2533 5299,2531 5303,2533 5306,2535 5313,2535 5318,2550 5324,2559 5324,2564 5327,2567 5338,2570 5339,2556 5340,2544 5336,2537 5336,2534 5342,2527 5341,2522 5328,2519 5321,2515 5317,2512 5332,2492 5334,2485 5337,2487 5339,2491 5340,2497 5348,2500 5350,2497 5349,2492 5344,2487 5341,2484 5340,2480 5341,2475 5344,2471 5346,2466 5335,2466 5330,2462 5318,2457 5315,2455 5314,2452 5319,2442 5319,2439 5313,2440 5302,2441 5294,2441 5290,2441 5280,2436 5275,2435 5266,2439 5262,2434 5255,2417 5253,2414 5243,2407 5238,2404 5221,2402 5220,2399 5222,2392 5224,2384 5229,2380 5231,2376 5226,2373 5222,2371 5217,2362 5215,2351 5216,2333 5216,2319 5212,2318 5195,2319 5171,2315 5157,2304 5166,2300 5170,2298 5171,2282 5169,2276 5160,2269 5158,2265 5167,2259 5157,2259 5156,2255 5148,2253 5146,2257 5152,2266 5143,2284 5137,2290 5126,2289 5122,2297 5120,2307 5116,2307 5111,2296 5105,2298 5103,2303 5103,2309 5102,2317 5096,2318 5093,2312 5097,2296 5096,2288 5090,2285 5086,2284 5086,2278 5074,2274 5066,2275 5055,2282 5052,2282 5050,2276 5045,2268 5036,2260 5031,2225 5032,2214 5037,2214 5042,2231 5053,2233 5054,2239 5054,2250 5055,2254 5058,2257 5069,2262 5079,2262 5079,2260 5072,2253 5071,2249 5074,2234 5071,2227 5069,2224 5066,2223 5060,2221 5054,2216 5057,2210 5069,2205 5078,2198 5082,2198 5090,2205 5111,2210 5117,2210 5120,2209 5122,2206 5125,2203 5132,2200 5138,2192 5150,2174 5155,2160 5150,2162 5137,2169 5131,2169 5128,2171 5127,2180 5123,2182 5114,2181 5113,2174 5112,2171 5107,2169 5090,2168 5085,2167 5083,2162 5083,2154 5085,2151 5090,2150 5095,2150 5099,2152 5108,2155 5126,2157 5121,2133 5120,2127 5117,2122 5130,2104 5138,2101 5140,2103 5134,2128 5135,2140 5138,2146 5142,2148 5148,2144 5156,2138 5163,2137 5167,2131 5170,2122 5161,2118 5157,2113 5155,2099 5153,2095 5145,2086 5140,2074 5141,2069 5145,2062 5150,2062 5152,2076 5160,2083 5167,2073 5168,2068 5164,2058 5163,2054 5164,2048 5173,2045 5181,2047 5186,2052 5191,2058 5200,2062 5189,2063 5184,2064 5185,2075 5190,2077 5202,2077 5208,2077 5207,2084 5203,2091 5197,2089 5189,2094 5178,2095 5177,2099 5182,2106 5198,2106 5208,2100 5217,2098 5216,2091 5224,2088 5228,2082 5230,2073 5232,2071 5239,2074 5242,2072 5243,2067 5244,2064 5247,2062 5255,2061 5264,2060 5270,2057 5273,2056 5282,2061 5306,2059 5311,2056 5315,2049 5306,2043 5288,2036 5283,2033 5286,2031 5290,2031 5293,2030 5298,2023 5308,2021 5303,2014 5309,2013 5316,2015 5322,2016 5327,2012 5331,2001 5335,1997 5340,1993 5339,1985 5335,1979 5327,1978 5324,1977 5323,1974 5321,1963 5319,1959 5314,1958 5309,1958 5306,1960 5303,1966 5302,1969 5298,1969 5288,1958 5276,1934 5279,1931 5279,1926 5288,1923 5288,1917 5283,1915 5276,1915 5273,1914 5271,1911 5264,1900 5258,1893 5247,1888 5244,1883 5241,1869 5231,1854 5218,1841 5214,1835 5215,1829 5218,1825 5219,1821 5216,1815 5214,1810 5218,1802 5224,1796 5230,1797 5236,1799 5243,1792 5254,1787 5267,1768 5271,1759 5270,1740 5269,1729 5266,1721 5262,1716 5258,1715 5254,1715 5251,1713 5248,1706 5246,1702 5243,1701 5239,1703 5235,1704 5226,1701 5221,1701 5199,1709 5186,1708 5174,1699 5171,1696 5170,1692 5171,1681 5168,1678 5159,1677 5153,1673 5149,1666 5145,1654 5138,1645 5128,1634 5117,1628 5108,1622 5111,1617 5115,1615 5123,1618 5126,1617 5128,1612 5135,1605 5138,1607 5140,1609 5145,1605 5143,1599 5139,1595 5141,1593 5149,1585 5152,1580 5153,1573 5158,1563 5153,1563 5150,1567 5144,1567 5141,1567 5139,1570 5136,1572 5131,1568 5129,1561 5129,1549 5130,1546 5133,1545 5143,1545 5146,1545 5148,1541 5151,1525 5150,1520 5145,1516 5134,1507 5129,1481 5127,1475 5122,1471 5116,1469 5105,1469 5099,1466 5100,1459 5098,1453 5090,1448 5085,1444 5086,1442 5089,1440 5096,1440 5104,1439 5099,1435 5090,1420 5090,1416 5096,1410 5096,1406 5093,1402 5089,1389 5091,1383 5095,1377 5106,1375 5116,1375 5124,1373 5138,1367 5152,1355 5163,1348 5173,1344 5182,1344 5235,1356 5243,1361 5254,1357 5268,1350 5276,1344 5281,1340 5282,1336 5283,1332 5287,1329 5301,1331 5313,1332 5328,1325 5333,1328 5337,1337 5340,1341 5344,1342 5369,1340 5380,1342 5401,1348 5406,1346 5407,1341 5408,1335 5411,1332 5414,1329 5422,1326 5436,1326 5439,1325 5440,1321 5445,1313 5450,1310 5461,1307 5471,1300 5480,1301 5484,1300 5490,1294 5494,1294 5500,1298 5521,1312 5523,1316 5519,1321 5510,1331 5505,1342 5505,1352 5511,1359 5522,1366 5539,1373 5542,1378 5543,1381 5547,1382 5553,1382 5558,1379 5563,1368 5570,1365 5584,1367 5589,1362 5593,1361 5597,1364 5601,1359 5605,1354 5611,1350 5624,1348 5629,1352 5632,1357 5636,1362 5642,1365 5654,1378 5661,1389 5665,1400 5667,1412 5675,1409 5685,1403 5693,1392 5696,1390 5701,1390 5708,1395 5709,1405 5710,1411 5713,1416 5716,1418 5720,1417 5735,1413 5739,1415 5740,1420 5744,1441 5741,1445 5741,1448 5743,1456 5755,1465 5762,1466 5764,1463 5764,1455 5766,1451 5769,1450 5774,1453 5780,1456 5786,1455 5787,1460 5787,1464 5789,1467 5795,1465 5798,1461 5802,1460 5808,1457 5810,1453 5810,1445 5811,1428 5813,1425 5816,1426 5820,1426 5822,1415 5835,1399 5834,1391 5831,1384 5827,1381 5824,1382 5816,1382 5812,1370 5809,1353 5810,1348 5813,1344 5824,1337 5829,1337 5832,1339 5837,1345 5847,1343 5855,1342 5857,1345 5863,1339 5873,1337 5871,1343 5869,1348 5870,1353 5873,1357 5877,1359 5902,1369 5914,1367 5923,1369 5927,1368 5929,1364 5929,1354 5920,1349 5915,1344 5913,1338 5911,1327 5912,1317 5921,1303 5929,1299 5942,1301 5944,1298 5943,1295 5937,1287 5923,1270 5922,1261 5924,1255 5937,1246 5936,1243 5930,1242 5926,1241 5921,1237 5917,1236 5911,1238 5905,1243 5902,1238 5902,1227 5900,1221 5896,1217 5886,1213 5879,1207 5872,1198 5863,1188 5857,1188 5854,1193 5849,1197 5843,1199 5832,1195 5826,1191 5822,1183 5822,1177 5822,1174 5817,1165 5809,1155 5798,1142 5795,1136 5795,1131 5801,1127 5815,1122 5824,1122 5830,1121 5836,1116 5841,1108 5843,1101 5853,1063 5857,1051 5858,1039 5859,1033 5863,1028 5867,1026 5872,1026 5885,1032 5888,1030 5890,1025 5899,1029 5906,1031 5911,1029 5914,1023 5914,1014 5906,1000 5911,999 5915,1000 " class="polyStyle" id="330825" style="fill:#ee8b94"/>
<polygon points="1441,10 1447,12 1457,10 1483,4 1493,4 1501,6 1507,10 1515,20 1517,26 1527,48 1531,58 1537,66 1545,76 1565,86 1575,96 1583,106 1593,108 1595,130 1596,140 1600,148 1600,154 1596,159 1592,163 1591,169 1601,176 1617,184 1626,196 1631,216 1633,219 1637,221 1660,224 1672,224 1686,226 1692,230 1695,235 1701,248 1708,252 1718,258 1721,272 1723,283 1732,291 1755,313 1765,318 1783,317 1788,320 1791,324 1808,352 1820,365 1825,368 1828,368 1868,360 1897,367 1926,380 1940,388 1901,434 1897,454 1898,459 1901,463 1913,467 1926,468 1930,468 1946,468 1948,472 1948,479 1945,492 1939,501 1938,515 1941,519 1945,520 1951,519 1956,516 1962,520 1963,525 1956,533 1963,535 1978,538 1984,546 2001,564 2013,574 2044,594 2061,604 2071,606 2083,600 2087,600 2092,603 2109,614 2120,617 2140,622 2146,625 2148,629 2143,642 2145,647 2170,676 2176,684 2178,690 2182,691 2186,691 2193,688 2204,683 2213,682 2221,682 2228,680 2242,669 2253,660 2264,661 2270,660 2273,654 2277,648 2285,644 2292,643 2300,645 2313,653 2321,664 2327,677 2331,682 2336,685 2344,685 2360,682 2367,677 2370,674 2375,674 2381,675 2388,679 2397,685 2402,686 2405,685 2407,680 2409,674 2413,670 2418,668 2426,668 2442,666 2452,662 2456,658 2461,656 2466,658 2470,662 2476,678 2480,680 2492,681 2493,686 2491,693 2482,706 2484,715 2483,720 2478,729 2480,733 2497,736 2501,739 2508,754 2511,759 2514,760 2522,762 2527,765 2530,769 2539,779 2552,776 2562,772 2568,772 2571,776 2572,785 2571,797 2572,800 2575,802 2584,802 2605,798 2612,793 2614,788 2625,781 2637,780 2642,782 2645,791 2649,796 2653,799 2658,797 2671,788 2676,788 2680,790 2686,792 2704,793 2728,792 2734,796 2737,802 2742,811 2748,817 2756,822 2764,823 2777,816 2784,816 2789,818 2797,826 2794,838 2794,843 2798,846 2804,846 2807,845 2809,842 2812,838 2816,836 2826,832 2836,833 2843,837 2851,843 2868,851 2872,858 2877,904 2903,924 2917,938 2922,944 2927,947 2937,951 2943,958 2943,967 2941,975 2938,989 2938,1001 2940,1010 2944,1016 2965,1033 2975,1034 2978,1036 2981,1038 2982,1043 2984,1050 2994,1058 2995,1061 2994,1071 2996,1075 3001,1078 3008,1083 3016,1093 3029,1121 3046,1168 3047,1177 3038,1177 3032,1171 3025,1163 3015,1157 3006,1156 2999,1159 2994,1161 2988,1160 2981,1155 2975,1147 2967,1141 2962,1133 2959,1123 2958,1112 2956,1107 2950,1101 2937,1091 2929,1088 2921,1088 2916,1092 2915,1097 2916,1114 2914,1126 2910,1134 2904,1137 2897,1141 2896,1145 2897,1152 2898,1156 2902,1161 2925,1209 2934,1222 2940,1236 2940,1246 2935,1253 2921,1269 2907,1278 2902,1284 2901,1293 2904,1301 2922,1323 2944,1360 2951,1378 2959,1389 2966,1394 2974,1393 2983,1388 2993,1385 3010,1385 3026,1392 3029,1395 3025,1403 3023,1413 3023,1421 3026,1426 3031,1434 3033,1445 3032,1455 3029,1464 3023,1471 2998,1493 2996,1499 2999,1502 3009,1509 3011,1517 2971,1531 2969,1536 2974,1546 2977,1563 2976,1581 2970,1585 2968,1589 2965,1593 2950,1597 2946,1600 2945,1603 2951,1611 2969,1618 2968,1623 2964,1628 2959,1636 2955,1643 2950,1646 2943,1646 2938,1652 2933,1661 2927,1664 2917,1675 2910,1671 2898,1682 2896,1686 2897,1689 2886,1700 2876,1706 2870,1709 2863,1721 2844,1737 2834,1742 2831,1742 2829,1739 2825,1737 2814,1740 2803,1746 2794,1758 2788,1766 2785,1773 2766,1792 2760,1801 2759,1805 2760,1818 2756,1823 2755,1827 2764,1841 2772,1864 2770,1877 2764,1889 2753,1900 2744,1912 2737,1921 2734,1928 2730,1936 2720,1945 2710,1949 2689,1954 2684,1955 2680,1958 2676,1966 2671,1970 2662,1973 2656,1975 2652,1981 2650,1986 2644,1990 2630,1999 2611,2012 2605,2019 2599,2021 2591,2022 2589,2027 2586,2031 2576,2033 2569,2032 2564,2028 2558,2028 2551,2039 2539,2048 2533,2049 2524,2042 2522,2046 2525,2058 2523,2062 2516,2066 2518,2081 2517,2088 2513,2090 2507,2101 2481,2110 2473,2115 2465,2127 2462,2137 2459,2138 2454,2138 2444,2144 2439,2147 2440,2155 2427,2167 2405,2182 2401,2189 2397,2192 2384,2203 2377,2205 2362,2206 2343,2220 2340,2226 2339,2236 2335,2244 2329,2251 2327,2256 2327,2268 2326,2272 2317,2279 2313,2283 2306,2286 2298,2289 2291,2289 2287,2291 2284,2303 2264,2314 2247,2314 2244,2315 2242,2318 2237,2324 2229,2324 2213,2330 2180,2331 2175,2330 2173,2327 2172,2324 2174,2317 2173,2308 2167,2305 2161,2306 2157,2311 2150,2316 2137,2321 2131,2325 2126,2335 2119,2360 2115,2370 2116,2376 2119,2384 2118,2388 2115,2392 2116,2397 2122,2401 2127,2402 2127,2409 2124,2411 2117,2418 2111,2426 2102,2428 2099,2434 2089,2447 2088,2451 2091,2460 2095,2469 2109,2483 2111,2488 2108,2491 2102,2502 2097,2507 2089,2514 2078,2528 2071,2538 2063,2540 2054,2541 2045,2548 2041,2569 2035,2579 2035,2583 2037,2586 2039,2595 2022,2609 2015,2610 2007,2607 2003,2606 1994,2610 1979,2612 1974,2616 1969,2619 1964,2616 1956,2611 1950,2603 1941,2594 1937,2584 1930,2577 1923,2567 1919,2562 1915,2561 1912,2561 1902,2566 1894,2565 1886,2562 1873,2562 1865,2560 1855,2558 1842,2567 1837,2577 1833,2585 1823,2588 1807,2588 1786,2589 1774,2588 1769,2587 1766,2601 1752,2601 1738,2606 1727,2614 1725,2617 1725,2621 1715,2627 1697,2638 1676,2645 1673,2649 1672,2660 1661,2670 1657,2675 1652,2687 1642,2701 1640,2706 1639,2717 1629,2739 1624,2746 1629,2754 1641,2767 1661,2781 1662,2784 1660,2793 1651,2805 1636,2824 1632,2825 1625,2822 1612,2817 1602,2816 1594,2820 1589,2829 1579,2838 1570,2846 1560,2849 1552,2848 1546,2843 1540,2839 1531,2838 1514,2836 1509,2837 1505,2841 1503,2849 1497,2853 1488,2853 1480,2853 1477,2854 1475,2857 1473,2860 1467,2863 1452,2866 1430,2869 1424,2868 1399,2855 1396,2854 1392,2856 1385,2864 1383,2866 1371,2867 1356,2869 1353,2858 1349,2854 1341,2853 1336,2856 1327,2861 1324,2865 1317,2870 1311,2870 1308,2868 1293,2846 1289,2843 1284,2842 1277,2842 1270,2845 1257,2850 1241,2851 1233,2853 1228,2863 1224,2859 1222,2852 1220,2850 1214,2852 1212,2843 1209,2841 1202,2842 1196,2833 1184,2825 1181,2822 1177,2821 1165,2832 1158,2841 1153,2852 1144,2866 1130,2869 1126,2881 1114,2887 1098,2889 1090,2883 1068,2887 1038,2901 1002,2917 938,2945 910,2957 872,2969 858,2973 844,2969 836,2965 832,2945 830,2931 832,2923 838,2911 850,2903 864,2891 882,2881 902,2865 932,2841 976,2807 994,2785 1002,2773 1002,2763 998,2757 990,2751 980,2745 968,2743 956,2741 938,2747 918,2739 914,2723 916,2717 906,2711 898,2713 884,2723 868,2713 854,2713 856,2693 842,2657 826,2627 796,2599 782,2587 758,2573 708,2561 670,2557 634,2551 600,2557 594,2579 602,2599 594,2605 576,2603 550,2585 526,2561 502,2527 498,2525 488,2515 486,2507 506,2487 510,2477 518,2463 522,2449 522,2443 514,2427 504,2409 494,2407 472,2417 444,2431 430,2441 428,2467 426,2473 422,2479 422,2487 418,2495 416,2501 410,2521 412,2529 402,2531 374,2535 358,2535 378,2507 392,2477 396,2471 398,2465 400,2457 404,2443 398,2427 386,2431 382,2435 376,2447 353,2483 343,2497 340,2495 324,2471 322,2459 314,2441 302,2421 306,2407 304,2361 300,2325 284,2299 272,2295 238,2307 226,2305 192,2253 188,2229 196,2211 230,2185 248,2177 248,2171 230,2157 230,2143 238,2129 240,2117 238,2111 232,2105 214,2093 206,2083 162,2081 146,2063 118,2047 84,2047 74,2041 68,2035 50,2021 46,2011 44,1999 44,1987 52,1971 58,1959 62,1951 68,1941 78,1937 90,1933 118,1927 127,1922 128,1907 120,1897 112,1891 70,1871 55,1860 52,1847 56,1835 70,1813 74,1799 76,1781 78,1773 80,1747 84,1731 80,1705 78,1683 62,1667 38,1661 6,1653 0,1645 2,1637 4,1631 16,1617 26,1601 30,1577 42,1537 44,1533 46,1523 52,1505 60,1477 72,1435 86,1417 96,1407 112,1403 130,1411 138,1413 142,1415 204,1407 224,1405 234,1403 248,1401 280,1393 282,1377 274,1377 268,1373 262,1353 262,1329 268,1317 284,1299 258,1273 250,1267 242,1259 238,1254 238,1247 244,1233 260,1197 262,1177 258,1151 256,1125 254,1101 246,1091 242,1085 242,1071 242,1069 240,1065 234,1061 224,1059 218,1057 220,1047 224,1041 237,1033 248,1031 264,1033 272,1039 294,1049 312,1055 328,1059 344,1063 372,1067 380,1067 392,1063 396,1055 406,1041 414,1033 432,1023 440,1025 450,1031 468,1043 506,1057 516,1061 531,1065 544,1065 552,1063 566,1059 588,1053 606,1053 622,1055 654,1073 708,1079 714,1071 708,1055 704,1043 690,1031 708,1021 716,1027 750,1001 756,991 742,965 732,949 716,939 696,935 692,927 696,917 698,913 724,893 742,879 764,855 778,837 786,821 798,809 828,789 846,781 852,779 870,775 892,769 900,761 904,755 906,733 908,709 908,703 904,687 894,677 880,657 878,647 882,641 886,639 894,633 896,623 900,615 901,602 890,591 884,587 878,583 870,577 844,557 826,545 816,535 814,526 826,515 835,516 845,518 859,518 867,516 875,510 881,504 931,424 937,396 959,382 979,368 983,366 993,362 999,362 1019,366 1035,366 1047,362 1071,348 1091,340 1107,332 1113,334 1139,356 1157,360 1215,348 1223,356 1247,370 1255,368 1281,354 1299,358 1309,362 1315,370 1319,388 1351,398 1373,382 1413,386 1433,374 1441,362 1441,356 1437,336 1437,320 1437,298 1437,270 1447,256 1445,242 1441,234 1433,226 1425,208 1415,174 1413,156 1409,128 1403,110 1387,96 1395,76 1391,52 1382,37 1385,34 1399,14 1405,6 1409,2 1415,0 1423,0 1437,8 " class="polyStyle" id="330824" style="fill:#fbe6ef"/>
<path d="" class="polyStyle" id="511423" style="fill:#ee8b94"/>
<path d="" class="polyStyle" id="421023" style="fill:#f6f67b"/>
<path d="" class="polyStyle" id="511724" style="fill:#f6f67b"/>
<path d="" class="polyStyle" id="420526" style="fill:#fbe6ef"/>
<path d="" class="polyStyle" id="511923" style="fill:#fbe6ef"/>
<path d="" class="polyStyle" id="420325" style="fill:#fbe6ef"/>
<path d="" class="polyStyle" id="511921" style="fill:#f6f67b"/>
<path d="" class="polyStyle" id="542525" style="fill:#f6f67b"/>
<path d="" class="polyStyle" id="611026" style="fill:#ee8b94"/>
<path d="" class="polyStyle" id="411023" style="fill:#fbe6ef"/>
<path d="" class="polyStyle" id="632323" style="fill:#f6f67b"/>
<path d="" class="polyStyle" id="140525" style="fill:#d4ecb2"/>
<path d="" class="polyStyle" id="410922" style="fill:#ee8b94"/>
<path d="" class="polyStyle" id="621027" style="fill:#ee8b94"/>
<path d="" class="polyStyle" id="130427" style="fill:#f6f67b"/>
<path d="" class="polyStyle" id="130121" style="fill:#ee8b94"/>
<path d="" class="polyStyle" id="610823" style="fill:#fbe6ef"/>
<path d="" class="polyStyle" id="130225" style="fill:#fbe6ef"/>
<path d="" class="polyStyle" id="130322" style="fill:#d4ecb2"/>
<path d="" class="polyStyle" id="653130" style="fill:#f6f67b"/>
<path d="" class="polyStyle" id="130822" style="fill:#fbe6ef"/>
<path d="" class="polyStyle" id="211221" style="fill:#f6f67b"/>
<path d="" class="polyStyle" id="210921" style="fill:#f6f67b"/>
<path d="" class="polyStyle" id="150223" style="fill:#f8c67d"/>
<path d="" class="polyStyle" id="220422" style="fill:#d4ecb2"/>
<path d="" class="polyStyle" id="340721" style="fill:#f6f67b"/>
<path d="" class="polyStyle" id="510824" style="fill:#d4ecb2"/>
<path d="" class="polyStyle" id="610324" style="fill:#f6f67b"/>
<path d="" class="polyStyle" id="530722" style="fill:#ee8b94"/>
<path d="" class="polyStyle" id="340823" style="fill:#d4ecb2"/>
<path d="" class="polyStyle" id="620825" style="fill:#d4ecb2"/>
<path d="" class="polyStyle" id="421125" style="fill:#ee8b94"/>
<path d="" class="polyStyle" id="210281" style="fill:#ee8b94"/>
<path d="" class="polyStyle" id="440883" style="fill:#f6f67b"/>
<path d="" class="polyStyle" id="469006" style="fill:#d4ecb2"/>
<path d="" class="polyStyle" id="469002" style="fill:#ee8b94"/>
<path d="" class="polyStyle" id="469005" style="fill:#fbe6ef"/>
<path d="" class="polyStyle" id="440882" style="fill:#ee8b94"/>
<path d="" class="polyStyle" id="450681" style="fill:#ee8b94"/>
<path d="" class="polyStyle" id="441581" style="fill:#d4ecb2"/>
<polygon points="3347,3061 3349,3055 3353,3054 3360,3056 3386,3071 3386,3079 3392,3079 3395,3071 3397,3068 3400,3068 3406,3071 3412,3077 3407,3084 3401,3086 3392,3084 3390,3087 3389,3095 3388,3105 3385,3111 3391,3118 3423,3152 3435,3159 3435,3155 3434,3149 3443,3149 3448,3153 3458,3163 3454,3166 3451,3170 3452,3173 3455,3175 3467,3172 3470,3174 3472,3178 3475,3183 3481,3181 3489,3185 3491,3189 3491,3194 3487,3199 3499,3205 3512,3210 3523,3219 3530,3231 3534,3245 3533,3257 3536,3261 3539,3264 3539,3268 3536,3270 3531,3268 3526,3266 3523,3269 3524,3272 3527,3276 3545,3282 3550,3284 3551,3293 3545,3297 3550,3303 3550,3311 3550,3319 3553,3328 3556,3335 3556,3342 3558,3346 3565,3355 3565,3367 3571,3377 3576,3379 3579,3378 3592,3371 3590,3376 3585,3382 3583,3389 3583,3398 3585,3401 3610,3402 3614,3412 3619,3422 3616,3423 3611,3418 3608,3415 3604,3415 3598,3423 3598,3428 3593,3428 3583,3426 3577,3428 3575,3431 3575,3435 3577,3443 3584,3462 3586,3464 3593,3464 3594,3468 3595,3475 3602,3473 3607,3471 3610,3472 3614,3474 3623,3486 3627,3490 3626,3494 3621,3497 3617,3503 3617,3507 3623,3513 3634,3519 3649,3520 3653,3522 3655,3527 3655,3537 3659,3543 3670,3552 3680,3553 3689,3554 3697,3559 3701,3562 3701,3566 3695,3572 3694,3575 3699,3574 3705,3571 3712,3572 3714,3575 3713,3578 3709,3580 3704,3580 3694,3578 3691,3577 3687,3579 3680,3589 3682,3593 3689,3598 3699,3609 3708,3619 3713,3620 3713,3628 3714,3631 3719,3633 3719,3638 3718,3655 3719,3660 3721,3666 3726,3670 3742,3679 3759,3680 3764,3680 3768,3682 3789,3703 3795,3729 3799,3739 3803,3744 3804,3749 3799,3753 3795,3756 3793,3760 3790,3774 3788,3779 3789,3783 3805,3789 3809,3793 3809,3797 3799,3815 3794,3824 3792,3832 3796,3847 3805,3862 3805,3868 3802,3875 3794,3893 3795,3897 3798,3898 3804,3903 3806,3908 3806,3915 3807,3924 3813,3927 3816,3929 3810,3939 3812,3944 3818,3949 3820,3960 3841,3960 3845,3961 3846,3964 3839,3990 3828,3984 3825,3984 3833,3995 3835,4001 3834,4012 3831,4016 3821,4022 3812,4030 3807,4038 3806,4047 3805,4059 3800,4073 3804,4077 3805,4082 3799,4094 3798,4098 3805,4106 3810,4133 3807,4139 3810,4142 3818,4147 3820,4155 3819,4160 3822,4164 3828,4169 3829,4173 3827,4180 3828,4183 3829,4186 3834,4187 3842,4189 3843,4182 3848,4181 3855,4180 3865,4172 3870,4171 3876,4173 3886,4180 3886,4192 3880,4214 3882,4219 3888,4223 3904,4227 3915,4237 3927,4247 3941,4252 3948,4258 3947,4262 3944,4269 3945,4273 3951,4278 3947,4285 3944,4289 3944,4295 3949,4315 3957,4323 3957,4327 3954,4332 3939,4352 3934,4364 3928,4372 3905,4382 3896,4389 3890,4397 3888,4403 3892,4404 3907,4407 3917,4408 3920,4418 3905,4428 3903,4437 3904,4441 3915,4438 3922,4431 3930,4427 3935,4432 3936,4439 3934,4446 3929,4452 3921,4456 3907,4458 3904,4461 3903,4469 3904,4486 3907,4493 3908,4496 3906,4499 3896,4509 3885,4525 3881,4529 3879,4535 3878,4542 3872,4544 3865,4545 3860,4549 3857,4554 3857,4560 3857,4570 3852,4573 3844,4573 3840,4575 3837,4577 3836,4580 3836,4585 3833,4594 3828,4612 3825,4621 3826,4627 3836,4634 3835,4645 3839,4650 3851,4651 3839,4656 3817,4666 3810,4674 3809,4676 3841,4679 3839,4681 3831,4686 3824,4690 3822,4693 3822,4696 3825,4698 3847,4688 3853,4688 3857,4692 3851,4699 3850,4707 3832,4721 3830,4727 3833,4731 3844,4742 3844,4748 3841,4752 3838,4758 3844,4765 3845,4781 3849,4795 3858,4808 3829,4809 3824,4811 3821,4815 3818,4822 3810,4827 3807,4829 3803,4829 3788,4829 3770,4842 3765,4846 3762,4852 3754,4880 3751,4885 3747,4888 3739,4891 3730,4891 3719,4888 3707,4881 3684,4862 3665,4864 3643,4860 3631,4857 3620,4857 3613,4861 3610,4867 3587,4916 3582,4924 3573,4933 3561,4941 3549,4946 3541,4949 3535,4955 3529,4971 3527,4977 3522,4981 3515,4983 3507,4983 3499,4985 3496,4996 3495,5002 3489,5009 3486,5017 3485,5031 3486,5036 3489,5039 3494,5042 3501,5043 3504,5046 3506,5061 3508,5069 3514,5077 3514,5090 3497,5120 3494,5133 3493,5167 3494,5173 3499,5181 3519,5193 3520,5198 3517,5220 3514,5265 3505,5282 3485,5312 3484,5317 3486,5323 3491,5328 3498,5330 3506,5331 3509,5336 3508,5341 3506,5345 3503,5347 3497,5352 3491,5353 3486,5354 3486,5358 3489,5363 3490,5368 3487,5380 3474,5411 3475,5415 3479,5419 3488,5422 3503,5424 3515,5424 3524,5421 3530,5416 3532,5408 3533,5402 3536,5399 3542,5399 3548,5404 3552,5405 3567,5406 3581,5406 3590,5404 3626,5398 3637,5399 3638,5403 3634,5416 3630,5421 3619,5425 3613,5428 3612,5431 3614,5434 3621,5437 3632,5441 3635,5444 3638,5462 3640,5469 3649,5480 3651,5486 3647,5496 3640,5502 3622,5512 3615,5517 3609,5524 3604,5544 3597,5566 3579,5593 3572,5602 3570,5605 3570,5609 3570,5615 3561,5624 3558,5630 3560,5637 3564,5645 3574,5657 3574,5662 3570,5673 3542,5713 3528,5732 3523,5741 3522,5746 3519,5754 3510,5753 3506,5753 3501,5758 3484,5788 3477,5794 3470,5795 3453,5791 3443,5797 3429,5813 3426,5817 3423,5818 3413,5815 3404,5815 3401,5817 3400,5821 3396,5826 3377,5841 3371,5848 3369,5854 3372,5875 3372,5881 3368,5892 3367,5900 3365,5903 3360,5901 3345,5881 3342,5878 3339,5880 3338,5885 3339,5891 3342,5896 3346,5901 3351,5903 3355,5904 3357,5907 3363,5919 3364,5928 3360,5939 3354,5943 3338,5959 3332,5973 3334,5989 3338,6007 3334,6023 3326,6035 3312,6055 3290,6081 3284,6089 3272,6105 3258,6119 3254,6121 3250,6127 3244,6131 3234,6133 3212,6133 3186,6125 3176,6121 3158,6113 3137,6098 3126,6085 3112,6099 3100,6109 3088,6113 3068,6107 3054,6119 3042,6151 3038,6161 3028,6173 3020,6181 3008,6187 2992,6191 2970,6201 2956,6199 2952,6185 2952,6167 2950,6157 2952,6143 2946,6133 2940,6129 2930,6131 2920,6137 2916,6149 2910,6169 2902,6193 2888,6207 2874,6213 2854,6209 2838,6197 2834,6181 2844,6165 2852,6151 2852,6141 2852,6127 2842,6115 2820,6089 2812,6077 2794,6059 2756,6039 2724,6033 2714,6035 2700,6043 2676,6081 2660,6091 2634,6091 2612,6075 2598,6075 2596,6119 2564,6125 2556,6133 2548,6141 2542,6139 2526,6125 2490,6101 2464,6097 2456,6103 2464,6123 2456,6131 2438,6123 2414,6095 2386,6081 2368,6095 2346,6121 2328,6139 2326,6145 2326,6157 2342,6183 2364,6197 2380,6213 2388,6231 2384,6243 2378,6249 2348,6263 2338,6273 2328,6293 2320,6297 2308,6293 2298,6283 2286,6269 2274,6259 2260,6255 2242,6253 2220,6257 2207,6258 2190,6247 2164,6247 2142,6248 2122,6248 2115,6246 2108,6241 2102,6235 2094,6233 2084,6233 2077,6235 2066,6241 2070,6225 2080,6213 2090,6203 2095,6199 2111,6189 2105,6175 2062,6181 2054,6177 2069,6153 2063,6137 2035,6143 2027,6135 2021,6111 2017,6095 2013,6075 2015,6071 2029,6045 2029,6041 2046,6033 2054,6029 2080,6021 2090,6017 2104,6011 2112,6007 2130,5997 2144,5987 2158,5979 2168,5973 2180,5965 2220,5915 2208,5901 2226,5891 2260,5895 2270,5893 2298,5855 2300,5847 2300,5839 2298,5831 2294,5827 2286,5817 2278,5811 2270,5809 2262,5815 2264,5841 2258,5851 2242,5855 2220,5855 2214,5847 2212,5843 2218,5829 2226,5811 2232,5789 2230,5775 2228,5771 2224,5745 2218,5723 2208,5709 2196,5701 2184,5695 2174,5685 2170,5673 2168,5661 2170,5649 2170,5631 2164,5611 2156,5591 2130,5571 2078,5539 2070,5527 2062,5487 2058,5481 2050,5483 2036,5491 2028,5495 2020,5493 2014,5491 2012,5479 2022,5467 2044,5441 2056,5429 2062,5423 2082,5425 2104,5427 2116,5423 2130,5419 2146,5401 2108,5399 2122,5369 2144,5357 2152,5343 2148,5333 2150,5319 2154,5309 2166,5289 2184,5265 2202,5231 2202,5215 2190,5193 2200,5181 2218,5159 2230,5145 2242,5147 2252,5149 2262,5147 2268,5139 2276,5127 2262,5119 2240,5101 2236,5073 2222,5071 2200,5077 2160,5075 2154,5097 2140,5105 2122,5095 2114,5079 2108,5069 2098,5057 2086,5045 2066,5031 2060,5029 2052,5025 2044,5023 2032,5023 2020,5023 2002,5025 1984,5025 1964,5019 1945,5006 1940,5003 1934,4995 1936,4991 1940,4985 1948,4977 1956,4975 1972,4975 1982,4975 1998,4977 2012,4975 2030,4973 2048,4965 2062,4951 2088,4925 2092,4915 2086,4905 2068,4899 2060,4881 2056,4875 2052,4875 2046,4877 2030,4895 2022,4905 2016,4909 2008,4907 2004,4899 1996,4891 1996,4867 1996,4849 1994,4833 1992,4811 1984,4791 1970,4785 1966,4761 1988,4757 2002,4751 1998,4745 1978,4741 1956,4729 1946,4717 1916,4663 1912,4653 1908,4645 1912,4625 1952,4619 1944,4591 1940,4571 1956,4567 1980,4559 1990,4553 1990,4549 1980,4537 1970,4525 1968,4501 1962,4497 1956,4499 1952,4503 1950,4507 1940,4509 1930,4507 1928,4501 1928,4489 1934,4467 1926,4447 1934,4437 1942,4433 1954,4447 1980,4435 1970,4415 2000,4391 2010,4397 2026,4371 2030,4359 2032,4347 2024,4343 2008,4339 1992,4311 1978,4283 1974,4269 1974,4257 1978,4247 1986,4241 2012,4239 2016,4235 2018,4229 2020,4205 2020,4195 2016,4173 2014,4151 2012,4133 2022,4109 2024,4101 2024,4093 2022,4089 2012,4081 2004,4079 1996,4083 1986,4087 1974,4089 1964,4087 1954,4075 1938,4059 1938,4047 1950,4035 1958,4031 1956,4019 1934,4001 1916,3993 1894,3991 1886,3973 1874,3969 1848,3981 1834,3981 1818,3975 1814,3973 1814,3961 1814,3957 1822,3933 1828,3929 1837,3927 1844,3925 1854,3923 1860,3921 1866,3919 1870,3915 1870,3911 1868,3903 1866,3889 1868,3885 1868,3871 1866,3863 1860,3847 1842,3833 1820,3835 1828,3815 1864,3817 1864,3805 1854,3801 1822,3795 1820,3773 1824,3765 1800,3757 1798,3751 1826,3745 1832,3737 1842,3723 1842,3713 1836,3709 1826,3703 1792,3705 1782,3691 1776,3663 1767,3623 1772,3624 1775,3622 1777,3619 1781,3617 1790,3615 1798,3617 1803,3614 1811,3602 1814,3600 1818,3600 1822,3602 1825,3601 1828,3590 1828,3583 1833,3583 1837,3582 1838,3570 1834,3554 1839,3548 1838,3532 1846,3519 1849,3517 1853,3517 1869,3525 1875,3526 1882,3520 1886,3515 1890,3514 1894,3514 1897,3518 1900,3521 1904,3521 1918,3521 1934,3512 1943,3512 1947,3514 1955,3517 1953,3525 1954,3529 1957,3544 1969,3556 1977,3560 1981,3560 1998,3550 2006,3548 2009,3545 2011,3541 2017,3539 2036,3540 2047,3544 2059,3545 2063,3548 2076,3556 2082,3560 2091,3558 2097,3553 2101,3553 2097,3561 2099,3565 2109,3576 2113,3578 2119,3580 2125,3586 2130,3590 2137,3588 2142,3588 2146,3590 2151,3590 2156,3585 2148,3581 2150,3578 2160,3572 2163,3573 2165,3577 2166,3584 2163,3593 2164,3596 2169,3605 2169,3613 2159,3627 2158,3632 2160,3635 2173,3648 2185,3652 2192,3653 2194,3656 2198,3655 2201,3655 2209,3661 2213,3661 2217,3657 2218,3651 2222,3652 2232,3657 2236,3657 2235,3648 2228,3643 2228,3630 2226,3610 2237,3594 2253,3578 2254,3571 2258,3570 2263,3568 2264,3562 2267,3556 2274,3550 2280,3548 2281,3543 2280,3537 2276,3534 2284,3525 2289,3515 2291,3506 2289,3497 2313,3482 2320,3464 2321,3451 2324,3447 2327,3445 2339,3440 2335,3432 2336,3427 2340,3421 2341,3416 2342,3412 2346,3411 2354,3409 2357,3406 2355,3401 2357,3398 2362,3395 2360,3390 2358,3385 2358,3379 2349,3370 2348,3364 2348,3358 2344,3348 2348,3338 2350,3335 2353,3334 2376,3334 2382,3332 2385,3328 2389,3324 2399,3322 2405,3328 2409,3328 2416,3327 2431,3329 2436,3327 2439,3322 2444,3318 2448,3318 2455,3322 2462,3336 2465,3349 2468,3362 2481,3373 2490,3380 2502,3373 2511,3365 2515,3359 2526,3339 2529,3318 2529,3306 2526,3294 2533,3295 2542,3304 2565,3293 2575,3287 2584,3289 2601,3299 2605,3307 2607,3312 2615,3310 2625,3301 2633,3299 2641,3297 2649,3292 2657,3291 2667,3295 2676,3296 2687,3289 2700,3275 2706,3271 2705,3266 2701,3253 2701,3249 2703,3247 2718,3247 2723,3247 2732,3253 2747,3263 2759,3265 2769,3266 2781,3273 2795,3281 2804,3283 2812,3280 2816,3281 2820,3284 2825,3285 2829,3284 2832,3276 2835,3274 2851,3287 2860,3292 2876,3287 2889,3290 2892,3289 2893,3286 2896,3273 2899,3268 2904,3265 2915,3260 2924,3257 2923,3251 2927,3245 2934,3242 2944,3235 2948,3230 2950,3221 2941,3217 2944,3204 2930,3185 2922,3168 2921,3159 2924,3153 2931,3152 2945,3142 2949,3140 2954,3140 2964,3141 2969,3148 2979,3159 2983,3161 2990,3158 2997,3158 3009,3166 3034,3182 3043,3187 3048,3188 3056,3186 3065,3187 3069,3187 3078,3182 3081,3182 3095,3179 3104,3181 3110,3180 3112,3169 3115,3165 3119,3163 3142,3157 3163,3148 3171,3147 3183,3149 3188,3149 3201,3145 3230,3136 3251,3129 3259,3128 3265,3117 3266,3111 3264,3104 3262,3101 3256,3098 3255,3095 3267,3085 3264,3075 3266,3072 3270,3070 3282,3063 3291,3054 3296,3047 3294,3044 3302,3048 3313,3050 3324,3042 3342,3064 " class="polyStyle" id="330881" style="fill:#fbe6ef"/>
<path d="" class="polyStyle" id="421087" style="fill:#ee8b94"/>
<path d="" class="polyStyle" id="420984" style="fill:#fbe6ef"/>
<path d="" class="polyStyle" id="420582" style="fill:#ee8b94"/>
<path d="" class="polyStyle" id="370282" style="fill:#f6f67b"/>
<path d="" class="polyStyle" id="371083" style="fill:#f6f67b"/>
<path d="" class="polyStyle" id="371082" style="fill:#fbe6ef"/>
<path d="" class="polyStyle" id="652801" style="fill:#f8c67d"/>
<path d="" class="polyStyle" id="654301" style="fill:#ee8b94"/>
<path d="" class="polyStyle" id="370687" style="fill:#ee8b94"/>
<path d="" class="polyStyle" id="371482" style="fill:#d4ecb2"/>
<path d="" class="polyStyle" id="421081" style="fill:#fbe6ef"/>
<path d="" class="polyStyle" id="429006" style="fill:#f6f67b"/>
<path d="" class="polyStyle" id="440982" style="fill:#d4ecb2"/>
<path d="" class="polyStyle" id="421181" style="fill:#d4ecb2"/>
<path d="" class="polyStyle" id="321181" style="fill:#d4ecb2"/>
<path d="" class="polyStyle" id="659007" style="fill:#ee8b94"/>
<path d="" class="polyStyle" id="652701" style="fill:#fbe6ef"/>
<path d="" class="polyStyle" id="210781" style="fill:#fbe6ef"/>
<path d="" class="polyStyle" id="460204" style="fill:#f6f67b"/>
<path d="" class="polyStyle" id="210211" style="fill:#f6f67b"/>
<path d="" class="polyStyle" id="450512" style="fill:#ee8b94"/>
<path d="" class="polyStyle" id="450602" style="fill:#fbe6ef"/>
<path d="" class="polyStyle" id="440404" style="fill:#ee8b94"/>
<path d="" class="polyStyle" id="440403" style="fill:#f6f67b"/>
<path d="" class="polyStyle" id="441502" style="fill:#f6f67b"/>
<path d="" class="polyStyle" id="431002" style="fill:#d4ecb2"/>
<polygon points="3724,1535 3741,1551 3755,1559 3798,1566 3821,1570 3829,1570 3845,1558 3856,1554 3860,1557 3858,1564 3860,1567 3867,1570 3880,1570 3884,1572 3886,1596 3892,1605 3896,1607 3899,1595 3901,1592 3905,1590 3916,1588 3941,1593 3952,1586 3957,1586 3970,1596 3976,1598 3988,1589 3997,1585 4025,1587 4029,1590 4028,1594 4020,1604 4019,1608 4021,1621 4005,1641 4004,1651 4007,1658 4021,1667 4028,1672 4032,1678 4023,1688 4019,1690 4015,1695 4014,1700 4015,1703 4018,1712 4018,1728 4017,1742 4013,1756 4012,1767 4016,1778 4019,1784 4030,1785 4054,1783 4063,1780 4083,1763 4093,1755 4094,1762 4091,1791 4083,1817 4069,1836 4067,1840 4071,1848 4087,1866 4100,1885 4105,1890 4113,1892 4116,1893 4119,1897 4123,1904 4125,1912 4126,1915 4129,1916 4135,1919 4139,1924 4131,1935 4130,1947 4131,1953 4136,1982 4135,2001 4136,2004 4143,2015 4148,2018 4160,2024 4165,2027 4169,2032 4179,2049 4182,2057 4182,2076 4185,2082 4195,2083 4201,2084 4203,2087 4205,2096 4209,2097 4214,2082 4218,2085 4222,2091 4232,2094 4247,2098 4263,2106 4271,2113 4273,2124 4274,2135 4279,2141 4285,2145 4287,2151 4288,2157 4293,2157 4301,2158 4307,2162 4314,2167 4314,2171 4306,2172 4298,2174 4297,2176 4304,2184 4303,2187 4298,2191 4301,2193 4307,2196 4306,2202 4307,2207 4312,2215 4297,2215 4294,2228 4289,2238 4290,2241 4301,2257 4306,2263 4307,2268 4294,2275 4291,2279 4290,2291 4284,2297 4286,2301 4293,2309 4294,2315 4291,2325 4292,2328 4309,2329 4311,2334 4316,2336 4320,2340 4319,2350 4324,2349 4326,2345 4327,2339 4333,2336 4341,2336 4351,2342 4369,2348 4376,2357 4378,2363 4362,2366 4333,2375 4317,2380 4300,2383 4286,2389 4276,2397 4275,2404 4272,2413 4267,2418 4264,2419 4261,2423 4260,2428 4261,2431 4262,2436 4258,2443 4263,2446 4269,2447 4275,2449 4280,2457 4272,2468 4256,2473 4248,2482 4249,2486 4263,2487 4270,2490 4272,2497 4272,2503 4275,2508 4278,2512 4282,2513 4291,2515 4298,2520 4311,2536 4312,2541 4310,2544 4304,2547 4288,2551 4285,2555 4291,2581 4287,2589 4279,2595 4278,2599 4284,2606 4294,2614 4306,2620 4320,2622 4325,2620 4329,2612 4332,2608 4340,2603 4354,2596 4370,2591 4402,2564 4411,2558 4424,2553 4444,2553 4457,2557 4490,2576 4486,2597 4486,2608 4484,2615 4473,2627 4459,2632 4451,2637 4448,2647 4442,2653 4436,2657 4426,2664 4392,2685 4359,2706 4331,2724 4343,2729 4363,2736 4382,2740 4396,2743 4410,2747 4414,2751 4418,2757 4426,2761 4433,2768 4435,2774 4442,2776 4445,2779 4448,2783 4452,2783 4458,2779 4461,2780 4468,2782 4470,2776 4470,2760 4465,2750 4466,2745 4475,2740 4496,2733 4504,2731 4513,2751 4531,2781 4534,2793 4532,2798 4511,2820 4493,2835 4489,2840 4495,2847 4498,2855 4497,2863 4502,2867 4514,2869 4522,2866 4536,2859 4540,2859 4541,2862 4546,2872 4550,2872 4559,2866 4566,2865 4582,2875 4596,2885 4600,2885 4606,2882 4609,2884 4611,2888 4611,2901 4603,2901 4601,2902 4608,2913 4610,2920 4596,2939 4602,2941 4606,2937 4609,2932 4613,2931 4617,2931 4621,2934 4634,2950 4643,2955 4633,2962 4631,2966 4628,2980 4608,2993 4599,2997 4589,2999 4574,2999 4570,2996 4567,2991 4560,2991 4557,2995 4561,3007 4561,3011 4551,3021 4549,3025 4548,3032 4545,3034 4537,3043 4536,3049 4538,3053 4547,3061 4549,3068 4546,3077 4548,3081 4552,3081 4559,3078 4572,3078 4574,3080 4562,3087 4564,3090 4568,3096 4568,3103 4560,3107 4564,3114 4567,3115 4575,3108 4579,3107 4579,3134 4563,3149 4559,3155 4562,3167 4570,3182 4575,3204 4574,3214 4577,3216 4581,3216 4588,3216 4594,3218 4598,3221 4600,3226 4604,3256 4600,3263 4596,3265 4591,3269 4593,3273 4599,3280 4600,3285 4588,3289 4586,3293 4586,3299 4584,3304 4580,3308 4575,3310 4564,3314 4557,3313 4543,3315 4536,3310 4526,3307 4514,3306 4510,3307 4506,3310 4498,3309 4490,3305 4475,3308 4461,3313 4460,3318 4456,3322 4445,3322 4433,3319 4416,3310 4408,3307 4404,3308 4398,3308 4391,3300 4387,3292 4387,3287 4386,3284 4382,3284 4379,3287 4379,3292 4380,3304 4373,3318 4369,3326 4367,3335 4362,3363 4355,3370 4345,3373 4332,3373 4323,3377 4316,3384 4313,3395 4312,3425 4310,3437 4304,3447 4294,3455 4274,3462 4268,3461 4264,3456 4252,3438 4252,3434 4256,3434 4272,3440 4275,3437 4275,3432 4267,3429 4265,3423 4269,3421 4280,3419 4284,3416 4285,3411 4289,3408 4294,3403 4295,3393 4296,3380 4301,3371 4304,3363 4302,3351 4299,3341 4298,3329 4295,3307 4296,3292 4296,3283 4292,3277 4284,3274 4273,3275 4255,3272 4251,3269 4249,3265 4252,3255 4244,3253 4241,3246 4246,3241 4250,3233 4247,3229 4236,3228 4234,3226 4233,3211 4225,3208 4213,3191 4204,3173 4190,3171 4188,3167 4184,3164 4175,3160 4172,3155 4166,3144 4161,3142 4158,3143 4151,3146 4147,3145 4145,3142 4139,3139 4129,3138 4124,3131 4119,3131 4106,3136 4092,3138 4085,3137 4077,3133 4073,3129 4073,3124 4077,3113 4087,3100 4087,3096 4070,3100 4067,3099 4070,3090 4069,3086 4066,3083 4065,3079 4068,3067 4074,3049 4078,3028 4078,3014 4074,3005 4060,2992 4061,2984 4055,2981 4052,2978 4050,2974 4054,2973 4058,2971 4056,2968 4053,2968 4044,2967 4041,2962 4040,2958 4032,2954 4036,2944 4042,2929 4048,2922 4047,2909 4046,2900 4043,2897 4040,2899 4038,2906 4034,2906 4031,2904 4024,2898 4018,2897 4003,2898 3993,2903 3984,2912 3974,2927 3959,2939 3958,2943 3960,2950 3955,2943 3947,2949 3941,2960 3938,2965 3933,2969 3918,2972 3909,2969 3899,2970 3888,2973 3883,2976 3882,2981 3884,2988 3892,3017 3881,3024 3877,3023 3876,3018 3865,3017 3848,3028 3836,3031 3832,3044 3829,3045 3817,3043 3813,3044 3811,3052 3794,3051 3783,3055 3774,3063 3774,3073 3773,3082 3772,3085 3769,3087 3758,3079 3754,3079 3752,3082 3747,3087 3736,3088 3723,3098 3722,3102 3724,3106 3743,3127 3750,3137 3750,3143 3744,3148 3742,3152 3743,3157 3741,3160 3728,3164 3719,3171 3716,3179 3715,3189 3709,3197 3681,3210 3676,3214 3642,3236 3635,3243 3634,3248 3639,3259 3640,3265 3642,3270 3642,3277 3638,3288 3628,3299 3607,3307 3584,3306 3575,3304 3560,3304 3554,3307 3550,3311 3550,3303 3545,3297 3551,3293 3550,3284 3545,3282 3527,3276 3524,3272 3523,3269 3526,3266 3531,3268 3536,3270 3539,3268 3539,3264 3536,3261 3533,3257 3534,3245 3530,3231 3523,3219 3512,3210 3499,3205 3487,3199 3491,3194 3491,3189 3489,3185 3481,3181 3475,3183 3472,3178 3470,3174 3467,3172 3455,3175 3452,3173 3451,3170 3454,3166 3458,3163 3448,3153 3443,3149 3434,3149 3435,3155 3435,3159 3423,3152 3391,3118 3385,3111 3388,3105 3389,3095 3390,3087 3392,3084 3401,3086 3407,3084 3412,3077 3406,3071 3400,3068 3397,3068 3395,3071 3392,3079 3386,3079 3386,3071 3360,3056 3353,3054 3349,3055 3347,3061 3342,3064 3324,3042 3313,3050 3302,3048 3294,3044 3288,3036 3286,3031 3289,3028 3294,3027 3349,3022 3358,3017 3365,3002 3373,2989 3379,2979 3385,2974 3392,2970 3402,2969 3417,2966 3422,2957 3425,2948 3434,2944 3436,2935 3440,2931 3445,2926 3449,2916 3449,2909 3445,2904 3449,2903 3452,2904 3455,2896 3459,2891 3464,2885 3460,2881 3452,2878 3449,2875 3454,2871 3458,2867 3458,2860 3455,2859 3442,2874 3435,2878 3429,2873 3427,2868 3430,2859 3434,2863 3438,2868 3445,2860 3450,2856 3451,2853 3448,2850 3459,2843 3460,2840 3461,2834 3470,2827 3483,2819 3485,2810 3483,2806 3472,2804 3463,2805 3456,2808 3445,2816 3438,2819 3432,2818 3428,2816 3426,2812 3429,2806 3445,2794 3448,2791 3454,2789 3469,2784 3472,2781 3472,2776 3470,2773 3470,2768 3471,2759 3475,2753 3481,2749 3487,2746 3487,2741 3480,2735 3471,2732 3468,2725 3460,2720 3453,2710 3451,2697 3450,2693 3445,2693 3441,2692 3439,2689 3440,2681 3439,2671 3435,2671 3432,2675 3428,2677 3418,2678 3411,2675 3409,2664 3406,2656 3400,2653 3391,2650 3387,2645 3385,2639 3377,2629 3373,2624 3367,2621 3362,2621 3360,2623 3355,2628 3351,2630 3342,2631 3336,2628 3331,2614 3328,2609 3330,2605 3332,2600 3327,2583 3324,2571 3326,2568 3329,2567 3333,2566 3334,2563 3331,2560 3330,2556 3332,2550 3336,2548 3344,2549 3350,2543 3351,2539 3347,2534 3334,2529 3331,2526 3339,2523 3340,2520 3338,2517 3333,2515 3329,2513 3325,2505 3323,2486 3321,2482 3319,2478 3326,2476 3333,2473 3330,2469 3328,2465 3335,2462 3335,2460 3327,2457 3315,2456 3311,2452 3308,2448 3311,2441 3307,2439 3303,2438 3301,2435 3302,2431 3306,2427 3305,2423 3306,2416 3315,2411 3322,2401 3324,2395 3328,2383 3334,2375 3338,2369 3339,2357 3341,2351 3345,2349 3350,2351 3354,2352 3357,2349 3358,2335 3354,2322 3346,2311 3343,2307 3343,2302 3345,2297 3350,2293 3354,2287 3356,2274 3356,2268 3358,2264 3367,2253 3366,2241 3371,2233 3370,2228 3366,2219 3369,2212 3362,2202 3359,2191 3360,2184 3363,2180 3364,2176 3359,2169 3354,2155 3356,2148 3360,2144 3378,2125 3384,2121 3386,2117 3387,2107 3391,2102 3396,2095 3397,2079 3401,2058 3405,2045 3405,2038 3402,2029 3404,2020 3406,2013 3401,2004 3402,2000 3414,1991 3430,1984 3437,1971 3445,1956 3449,1955 3461,1957 3470,1954 3475,1953 3481,1949 3492,1936 3492,1927 3497,1920 3501,1915 3501,1906 3503,1902 3508,1899 3540,1885 3545,1882 3550,1872 3565,1843 3568,1831 3564,1817 3554,1794 3557,1786 3557,1781 3556,1773 3555,1767 3558,1762 3560,1754 3558,1748 3557,1743 3560,1739 3567,1736 3577,1735 3588,1732 3590,1727 3589,1722 3589,1688 3589,1680 3591,1675 3594,1671 3600,1669 3615,1666 3626,1659 3632,1653 3637,1645 3645,1642 3653,1641 3658,1638 3660,1627 3660,1616 3659,1613 3660,1599 3659,1595 3652,1588 3651,1585 3653,1577 3648,1574 3647,1565 3648,1562 3652,1559 3664,1558 3667,1557 3671,1550 3675,1547 3679,1544 3681,1540 3683,1536 3683,1530 3712,1532 " class="polyStyle" id="330802" style="fill:#f6f67b"/>
<polygon points="4380,822 4405,857 4417,857 4428,862 4433,867 4444,882 4453,889 4463,893 4483,910 4496,928 4500,932 4504,933 4529,935 4538,937 4544,941 4558,948 4572,949 4578,947 4581,948 4588,959 4602,975 4617,986 4635,989 4642,992 4645,998 4650,1001 4669,999 4676,999 4685,1009 4687,1014 4669,1027 4666,1033 4662,1036 4657,1040 4654,1050 4641,1052 4636,1054 4634,1059 4629,1077 4630,1082 4638,1082 4639,1078 4640,1073 4643,1069 4646,1068 4648,1071 4654,1089 4661,1099 4664,1104 4665,1110 4665,1122 4667,1126 4672,1133 4673,1139 4671,1144 4680,1145 4696,1139 4699,1139 4702,1142 4710,1156 4714,1159 4720,1159 4728,1161 4738,1171 4744,1171 4749,1172 4754,1179 4757,1185 4762,1186 4771,1186 4777,1189 4780,1183 4783,1187 4803,1240 4807,1261 4804,1270 4800,1273 4795,1274 4789,1277 4785,1283 4786,1291 4790,1293 4793,1293 4795,1296 4794,1305 4791,1313 4796,1321 4798,1329 4797,1336 4795,1339 4789,1343 4787,1348 4790,1351 4795,1351 4802,1351 4805,1354 4804,1359 4800,1363 4796,1368 4796,1373 4799,1374 4806,1370 4814,1365 4817,1366 4810,1380 4810,1384 4813,1387 4822,1386 4827,1393 4834,1388 4838,1391 4840,1398 4850,1396 4856,1398 4860,1404 4862,1412 4864,1419 4868,1424 4883,1429 4895,1437 4906,1436 4925,1425 4942,1421 4958,1419 4975,1414 4988,1408 4994,1402 5000,1389 5004,1384 5010,1382 5019,1385 5039,1388 5057,1387 5071,1384 5084,1379 5095,1377 5091,1383 5089,1389 5093,1402 5096,1406 5096,1410 5090,1416 5090,1420 5099,1435 5104,1439 5096,1440 5089,1440 5086,1442 5085,1444 5090,1448 5098,1453 5100,1459 5099,1466 5105,1469 5116,1469 5122,1471 5127,1475 5129,1481 5134,1507 5145,1516 5150,1520 5151,1525 5148,1541 5146,1545 5143,1545 5133,1545 5130,1546 5129,1549 5129,1561 5131,1568 5136,1572 5139,1570 5141,1567 5144,1567 5150,1567 5153,1563 5158,1563 5153,1573 5152,1580 5149,1585 5141,1593 5139,1595 5143,1599 5145,1605 5140,1609 5138,1607 5135,1605 5128,1612 5126,1617 5123,1618 5115,1615 5111,1617 5108,1622 5117,1628 5128,1634 5138,1645 5145,1654 5149,1666 5153,1673 5159,1677 5168,1678 5171,1681 5170,1692 5171,1696 5174,1699 5186,1708 5199,1709 5221,1701 5226,1701 5235,1704 5239,1703 5243,1701 5246,1702 5248,1706 5251,1713 5254,1715 5258,1715 5262,1716 5266,1721 5269,1729 5270,1740 5271,1759 5267,1768 5254,1787 5243,1792 5236,1799 5230,1797 5224,1796 5218,1802 5214,1810 5216,1815 5219,1821 5218,1825 5215,1829 5214,1835 5218,1841 5231,1854 5241,1869 5244,1883 5247,1888 5258,1893 5264,1900 5271,1911 5273,1914 5276,1915 5283,1915 5288,1917 5288,1923 5279,1926 5279,1931 5276,1934 5288,1958 5298,1969 5302,1969 5303,1966 5306,1960 5309,1958 5314,1958 5319,1959 5321,1963 5323,1974 5324,1977 5327,1978 5335,1979 5339,1985 5340,1993 5335,1997 5331,2001 5327,2012 5322,2016 5316,2015 5309,2013 5303,2014 5308,2021 5298,2023 5293,2030 5290,2031 5286,2031 5283,2033 5288,2036 5306,2043 5315,2049 5311,2056 5306,2059 5282,2061 5273,2056 5270,2057 5264,2060 5255,2061 5247,2062 5244,2064 5243,2067 5242,2072 5239,2074 5232,2071 5230,2073 5228,2082 5224,2088 5216,2091 5217,2098 5208,2100 5198,2106 5182,2106 5177,2099 5178,2095 5189,2094 5197,2089 5203,2091 5207,2084 5208,2077 5202,2077 5190,2077 5185,2075 5184,2064 5189,2063 5200,2062 5191,2058 5186,2052 5181,2047 5173,2045 5164,2048 5163,2054 5164,2058 5168,2068 5167,2073 5160,2083 5152,2076 5150,2062 5145,2062 5141,2069 5140,2074 5145,2086 5153,2095 5155,2099 5157,2113 5161,2118 5170,2122 5167,2131 5163,2137 5156,2138 5148,2144 5142,2148 5138,2146 5135,2140 5134,2128 5140,2103 5138,2101 5130,2104 5117,2122 5120,2127 5121,2133 5126,2157 5108,2155 5099,2152 5095,2150 5090,2150 5085,2151 5083,2154 5083,2162 5085,2167 5090,2168 5107,2169 5112,2171 5113,2174 5114,2181 5123,2182 5127,2180 5128,2171 5131,2169 5137,2169 5150,2162 5155,2160 5150,2174 5138,2192 5132,2200 5125,2203 5122,2206 5120,2209 5117,2210 5111,2210 5090,2205 5082,2198 5078,2198 5069,2205 5057,2210 5054,2216 5060,2221 5066,2223 5069,2224 5071,2227 5074,2234 5071,2249 5072,2253 5079,2260 5079,2262 5069,2262 5058,2257 5055,2254 5054,2250 5054,2239 5053,2233 5042,2231 5037,2214 5032,2214 5031,2225 5036,2260 5045,2268 5050,2276 5052,2282 5055,2282 5066,2275 5074,2274 5086,2278 5086,2284 5090,2285 5096,2288 5097,2296 5093,2312 5096,2318 5102,2317 5103,2309 5103,2303 5105,2298 5111,2296 5116,2307 5120,2307 5122,2297 5126,2289 5137,2290 5143,2284 5152,2266 5146,2257 5148,2253 5156,2255 5157,2259 5167,2259 5158,2265 5160,2269 5169,2276 5171,2282 5170,2298 5166,2300 5157,2304 5171,2315 5195,2319 5212,2318 5216,2319 5216,2333 5215,2351 5217,2362 5222,2371 5226,2373 5231,2376 5229,2380 5224,2384 5222,2392 5220,2399 5221,2402 5238,2404 5243,2407 5253,2414 5255,2417 5262,2434 5266,2439 5275,2435 5280,2436 5290,2441 5294,2441 5302,2441 5313,2440 5319,2439 5319,2442 5314,2452 5315,2455 5318,2457 5330,2462 5335,2466 5346,2466 5344,2471 5341,2475 5340,2480 5341,2484 5344,2487 5349,2492 5350,2497 5348,2500 5340,2497 5339,2491 5337,2487 5334,2485 5332,2492 5317,2512 5321,2515 5328,2519 5341,2522 5342,2527 5336,2534 5336,2537 5340,2544 5339,2556 5338,2570 5327,2567 5324,2564 5324,2559 5318,2550 5313,2535 5306,2535 5303,2533 5299,2531 5288,2533 5280,2534 5270,2536 5270,2532 5268,2531 5260,2534 5258,2540 5254,2540 5249,2535 5245,2537 5246,2541 5252,2548 5248,2551 5240,2555 5232,2564 5228,2564 5223,2564 5219,2566 5219,2569 5222,2572 5238,2583 5240,2586 5234,2591 5232,2595 5224,2605 5216,2607 5211,2605 5197,2590 5185,2583 5180,2583 5177,2586 5179,2589 5188,2593 5194,2597 5190,2598 5181,2598 5180,2604 5183,2619 5186,2625 5190,2628 5193,2631 5192,2636 5200,2642 5202,2645 5202,2649 5202,2657 5204,2664 5208,2668 5213,2669 5221,2670 5226,2673 5229,2673 5237,2672 5243,2677 5250,2681 5255,2682 5258,2682 5261,2679 5266,2673 5269,2673 5274,2676 5286,2686 5293,2696 5291,2718 5286,2729 5285,2732 5293,2733 5295,2730 5300,2725 5303,2726 5306,2737 5310,2741 5312,2734 5315,2725 5320,2720 5327,2721 5330,2727 5329,2749 5323,2762 5323,2766 5326,2767 5340,2767 5346,2765 5350,2758 5352,2755 5351,2747 5348,2736 5349,2732 5352,2736 5356,2744 5361,2748 5369,2765 5376,2768 5381,2766 5385,2767 5388,2774 5390,2782 5394,2783 5402,2784 5406,2788 5411,2794 5416,2796 5423,2799 5426,2806 5428,2810 5434,2814 5438,2817 5441,2817 5445,2822 5444,2828 5438,2835 5434,2844 5430,2851 5445,2851 5449,2851 5451,2854 5451,2862 5446,2874 5440,2882 5429,2892 5430,2896 5435,2903 5431,2905 5410,2908 5409,2911 5418,2917 5418,2923 5416,2934 5405,2942 5395,2951 5394,2954 5396,2957 5403,2964 5398,2966 5397,2970 5403,2972 5411,2974 5416,2980 5432,2986 5439,2990 5439,2996 5430,3014 5427,3025 5425,3059 5428,3070 5434,3082 5439,3095 5436,3107 5412,3131 5385,3148 5387,3162 5385,3179 5383,3189 5383,3201 5381,3209 5383,3213 5395,3215 5399,3219 5394,3233 5390,3238 5389,3246 5388,3256 5383,3267 5380,3283 5378,3294 5374,3298 5361,3305 5351,3315 5351,3325 5354,3333 5357,3348 5358,3361 5360,3367 5358,3372 5342,3380 5333,3382 5323,3382 5316,3384 5310,3386 5306,3390 5292,3413 5280,3430 5272,3434 5264,3438 5257,3438 5245,3439 5239,3440 5232,3444 5215,3448 5202,3461 5191,3468 5188,3472 5187,3494 5188,3503 5194,3514 5195,3519 5194,3542 5196,3563 5194,3569 5195,3572 5199,3574 5218,3584 5225,3588 5227,3591 5233,3602 5243,3610 5248,3629 5250,3636 5255,3642 5255,3651 5250,3656 5250,3662 5242,3668 5250,3675 5245,3680 5244,3687 5243,3691 5240,3694 5229,3700 5217,3707 5214,3712 5214,3716 5214,3727 5212,3731 5201,3735 5198,3738 5195,3741 5186,3738 5182,3738 5179,3740 5175,3752 5170,3768 5167,3781 5170,3788 5179,3806 5179,3820 5168,3832 5156,3841 5146,3847 5138,3848 5131,3848 5126,3851 5122,3857 5120,3866 5117,3871 5111,3874 5096,3877 5090,3881 5095,3888 5085,3917 5079,3926 5068,3932 5055,3937 5050,3942 5039,3945 5008,3942 4996,3943 4984,3949 4980,3954 4975,3967 4955,3973 4946,3978 4935,3993 4929,4011 4924,4019 4901,4026 4886,4035 4874,4051 4861,4074 4852,4081 4839,4080 4829,4086 4822,4092 4817,4099 4803,4120 4788,4142 4782,4154 4778,4163 4775,4166 4772,4168 4762,4170 4756,4172 4752,4176 4742,4192 4734,4201 4718,4213 4699,4231 4696,4235 4696,4241 4693,4246 4679,4254 4675,4257 4674,4260 4669,4272 4664,4272 4662,4269 4659,4262 4652,4255 4644,4248 4634,4243 4621,4240 4618,4243 4617,4247 4614,4251 4604,4254 4596,4257 4592,4262 4589,4265 4585,4265 4575,4261 4563,4253 4555,4255 4541,4266 4517,4277 4507,4284 4491,4303 4480,4321 4478,4327 4479,4330 4480,4333 4488,4340 4490,4345 4489,4358 4481,4375 4463,4393 4435,4414 4433,4420 4441,4431 4443,4473 4444,4484 4440,4489 4435,4492 4429,4495 4420,4496 4415,4498 4412,4502 4411,4507 4414,4511 4417,4514 4417,4517 4417,4520 4412,4528 4410,4536 4410,4558 4410,4577 4414,4590 4414,4597 4409,4604 4401,4608 4395,4611 4397,4615 4411,4621 4433,4635 4438,4642 4437,4646 4430,4656 4429,4670 4426,4681 4416,4687 4400,4694 4389,4703 4384,4714 4384,4732 4373,4743 4370,4748 4362,4768 4318,4784 4314,4786 4311,4790 4313,4803 4313,4815 4311,4818 4304,4822 4281,4829 4269,4835 4264,4845 4252,4873 4247,4881 4233,4891 4228,4899 4218,4909 4201,4919 4198,4916 4192,4904 4189,4892 4189,4875 4189,4855 4189,4849 4187,4844 4182,4840 4170,4838 4154,4837 4143,4839 4139,4842 4135,4852 4132,4853 4126,4817 4121,4813 4118,4808 4119,4794 4115,4784 4108,4781 4099,4780 4058,4788 4045,4788 4040,4781 4037,4775 4032,4771 4015,4759 4002,4752 3995,4750 3990,4748 3974,4746 3962,4747 3959,4751 3958,4758 3948,4765 3930,4770 3922,4773 3921,4783 3919,4790 3914,4798 3907,4805 3901,4808 3895,4810 3890,4818 3886,4822 3881,4822 3865,4811 3861,4808 3858,4808 3849,4795 3845,4781 3844,4765 3838,4758 3841,4752 3844,4748 3844,4742 3833,4731 3830,4727 3832,4721 3850,4707 3851,4699 3857,4692 3853,4688 3847,4688 3825,4698 3822,4696 3822,4693 3824,4690 3831,4686 3839,4681 3841,4679 3809,4676 3810,4674 3817,4666 3839,4656 3851,4651 3839,4650 3835,4645 3836,4634 3826,4627 3825,4621 3828,4612 3833,4594 3836,4585 3836,4580 3837,4577 3840,4575 3844,4573 3852,4573 3857,4570 3857,4560 3857,4554 3860,4549 3865,4545 3872,4544 3878,4542 3879,4535 3881,4529 3885,4525 3896,4509 3906,4499 3908,4496 3907,4493 3904,4486 3903,4469 3904,4461 3907,4458 3921,4456 3929,4452 3934,4446 3936,4439 3935,4432 3930,4427 3922,4431 3915,4438 3904,4441 3903,4437 3905,4428 3920,4418 3917,4408 3907,4407 3892,4404 3888,4403 3890,4397 3896,4389 3905,4382 3928,4372 3934,4364 3939,4352 3954,4332 3957,4327 3957,4323 3949,4315 3944,4295 3944,4289 3947,4285 3951,4278 3945,4273 3944,4269 3947,4262 3948,4258 3941,4252 3927,4247 3915,4237 3904,4227 3888,4223 3882,4219 3880,4214 3886,4192 3886,4180 3876,4173 3870,4171 3865,4172 3855,4180 3848,4181 3843,4182 3842,4189 3834,4187 3829,4186 3828,4183 3827,4180 3829,4173 3828,4169 3822,4164 3819,4160 3820,4155 3818,4147 3810,4142 3807,4139 3810,4133 3805,4106 3798,4098 3799,4094 3805,4082 3804,4077 3800,4073 3805,4059 3806,4047 3807,4038 3812,4030 3821,4022 3831,4016 3834,4012 3835,4001 3833,3995 3825,3984 3828,3984 3839,3990 3846,3964 3845,3961 3841,3960 3820,3960 3818,3949 3812,3944 3810,3939 3816,3929 3813,3927 3807,3924 3806,3915 3806,3908 3804,3903 3798,3898 3795,3897 3794,3893 3802,3875 3805,3868 3805,3862 3796,3847 3792,3832 3794,3824 3799,3815 3809,3797 3809,3793 3805,3789 3789,3783 3788,3779 3790,3774 3793,3760 3795,3756 3799,3753 3804,3749 3803,3744 3799,3739 3795,3729 3789,3703 3768,3682 3764,3680 3759,3680 3742,3679 3726,3670 3721,3666 3719,3660 3718,3655 3719,3638 3719,3633 3714,3631 3713,3628 3713,3620 3708,3619 3699,3609 3689,3598 3682,3593 3680,3589 3687,3579 3691,3577 3694,3578 3704,3580 3709,3580 3713,3578 3714,3575 3712,3572 3705,3571 3699,3574 3694,3575 3695,3572 3701,3566 3701,3562 3697,3559 3689,3554 3680,3553 3670,3552 3659,3543 3655,3537 3655,3527 3653,3522 3649,3520 3634,3519 3623,3513 3617,3507 3617,3503 3621,3497 3626,3494 3627,3490 3623,3486 3614,3474 3610,3472 3607,3471 3602,3473 3595,3475 3594,3468 3593,3464 3586,3464 3584,3462 3577,3443 3575,3435 3575,3431 3577,3428 3583,3426 3593,3428 3598,3428 3598,3423 3604,3415 3608,3415 3611,3418 3616,3423 3619,3422 3614,3412 3610,3402 3585,3401 3583,3398 3583,3389 3585,3382 3590,3376 3592,3371 3579,3378 3576,3379 3571,3377 3565,3367 3565,3355 3558,3346 3556,3342 3556,3335 3553,3328 3550,3319 3550,3311 3554,3307 3560,3304 3575,3304 3584,3306 3607,3307 3628,3299 3638,3288 3642,3277 3642,3270 3640,3265 3639,3259 3634,3248 3635,3243 3642,3236 3676,3214 3681,3210 3709,3197 3715,3189 3716,3179 3719,3171 3728,3164 3741,3160 3743,3157 3742,3152 3744,3148 3750,3143 3750,3137 3743,3127 3724,3106 3722,3102 3723,3098 3736,3088 3747,3087 3752,3082 3754,3079 3758,3079 3769,3087 3772,3085 3773,3082 3774,3073 3774,3063 3783,3055 3794,3051 3811,3052 3813,3044 3817,3043 3829,3045 3832,3044 3836,3031 3848,3028 3865,3017 3876,3018 3877,3023 3881,3024 3892,3017 3884,2988 3882,2981 3883,2976 3888,2973 3899,2970 3909,2969 3918,2972 3933,2969 3938,2965 3941,2960 3947,2949 3955,2943 3960,2950 3958,2943 3959,2939 3974,2927 3984,2912 3993,2903 4003,2898 4018,2897 4024,2898 4031,2904 4034,2906 4038,2906 4040,2899 4043,2897 4046,2900 4047,2909 4048,2922 4042,2929 4036,2944 4032,2954 4040,2958 4041,2962 4044,2967 4053,2968 4056,2968 4058,2971 4054,2973 4050,2974 4052,2978 4055,2981 4061,2984 4060,2992 4074,3005 4078,3014 4078,3028 4074,3049 4068,3067 4065,3079 4066,3083 4069,3086 4070,3090 4067,3099 4070,3100 4087,3096 4087,3100 4077,3113 4073,3124 4073,3129 4077,3133 4085,3137 4092,3138 4106,3136 4119,3131 4124,3131 4129,3138 4139,3139 4145,3142 4147,3145 4151,3146 4158,3143 4161,3142 4166,3144 4172,3155 4175,3160 4184,3164 4188,3167 4190,3171 4204,3173 4213,3191 4225,3208 4233,3211 4234,3226 4236,3228 4247,3229 4250,3233 4246,3241 4241,3246 4244,3253 4252,3255 4249,3265 4251,3269 4255,3272 4273,3275 4284,3274 4292,3277 4296,3283 4296,3292 4295,3307 4298,3329 4299,3341 4302,3351 4304,3363 4301,3371 4296,3380 4295,3393 4294,3403 4289,3408 4285,3411 4284,3416 4280,3419 4269,3421 4265,3423 4267,3429 4275,3432 4275,3437 4272,3440 4256,3434 4252,3434 4252,3438 4264,3456 4268,3461 4274,3462 4294,3455 4304,3447 4310,3437 4312,3425 4313,3395 4316,3384 4323,3377 4332,3373 4345,3373 4355,3370 4362,3363 4367,3335 4369,3326 4373,3318 4380,3304 4379,3292 4379,3287 4382,3284 4386,3284 4387,3287 4387,3292 4391,3300 4398,3308 4404,3308 4408,3307 4416,3310 4433,3319 4445,3322 4456,3322 4460,3318 4461,3313 4475,3308 4490,3305 4498,3309 4506,3310 4510,3307 4514,3306 4526,3307 4536,3310 4543,3315 4557,3313 4564,3314 4575,3310 4580,3308 4584,3304 4586,3299 4586,3293 4588,3289 4600,3285 4599,3280 4593,3273 4591,3269 4596,3265 4600,3263 4604,3256 4600,3226 4598,3221 4594,3218 4588,3216 4581,3216 4577,3216 4574,3214 4575,3204 4570,3182 4562,3167 4559,3155 4563,3149 4579,3134 4579,3107 4575,3108 4567,3115 4564,3114 4560,3107 4568,3103 4568,3096 4564,3090 4562,3087 4574,3080 4572,3078 4559,3078 4552,3081 4548,3081 4546,3077 4549,3068 4547,3061 4538,3053 4536,3049 4537,3043 4545,3034 4548,3032 4549,3025 4551,3021 4561,3011 4561,3007 4557,2995 4560,2991 4567,2991 4570,2996 4574,2999 4589,2999 4599,2997 4608,2993 4628,2980 4631,2966 4633,2962 4643,2955 4634,2950 4621,2934 4617,2931 4613,2931 4609,2932 4606,2937 4602,2941 4596,2939 4610,2920 4608,2913 4601,2902 4603,2901 4611,2901 4611,2888 4609,2884 4606,2882 4600,2885 4596,2885 4582,2875 4566,2865 4559,2866 4550,2872 4546,2872 4541,2862 4540,2859 4536,2859 4522,2866 4514,2869 4502,2867 4497,2863 4498,2855 4495,2847 4489,2840 4493,2835 4511,2820 4532,2798 4534,2793 4531,2781 4513,2751 4504,2731 4496,2733 4475,2740 4466,2745 4465,2750 4470,2760 4470,2776 4468,2782 4461,2780 4458,2779 4452,2783 4448,2783 4445,2779 4442,2776 4435,2774 4433,2768 4426,2761 4418,2757 4414,2751 4410,2747 4396,2743 4382,2740 4363,2736 4343,2729 4331,2724 4359,2706 4392,2685 4426,2664 4436,2657 4442,2653 4448,2647 4451,2637 4459,2632 4473,2627 4484,2615 4486,2608 4486,2597 4490,2576 4457,2557 4444,2553 4424,2553 4411,2558 4402,2564 4370,2591 4354,2596 4340,2603 4332,2608 4329,2612 4325,2620 4320,2622 4306,2620 4294,2614 4284,2606 4278,2599 4279,2595 4287,2589 4291,2581 4285,2555 4288,2551 4304,2547 4310,2544 4312,2541 4311,2536 4298,2520 4291,2515 4282,2513 4278,2512 4275,2508 4272,2503 4272,2497 4270,2490 4263,2487 4249,2486 4248,2482 4256,2473 4272,2468 4280,2457 4275,2449 4269,2447 4263,2446 4258,2443 4262,2436 4261,2431 4260,2428 4261,2423 4264,2419 4267,2418 4272,2413 4275,2404 4276,2397 4286,2389 4300,2383 4317,2380 4333,2375 4362,2366 4378,2363 4376,2357 4369,2348 4351,2342 4341,2336 4333,2336 4327,2339 4326,2345 4324,2349 4319,2350 4320,2340 4316,2336 4311,2334 4309,2329 4292,2328 4291,2325 4294,2315 4293,2309 4286,2301 4284,2297 4290,2291 4291,2279 4294,2275 4307,2268 4306,2263 4301,2257 4290,2241 4289,2238 4294,2228 4297,2215 4312,2215 4307,2207 4306,2202 4307,2196 4301,2193 4298,2191 4303,2187 4304,2184 4297,2176 4298,2174 4306,2172 4314,2171 4314,2167 4307,2162 4301,2158 4293,2157 4288,2157 4287,2151 4285,2145 4279,2141 4274,2135 4273,2124 4271,2113 4263,2106 4247,2098 4232,2094 4222,2091 4218,2085 4214,2082 4209,2097 4205,2096 4203,2087 4201,2084 4195,2083 4185,2082 4182,2076 4182,2057 4179,2049 4169,2032 4165,2027 4160,2024 4148,2018 4143,2015 4136,2004 4135,2001 4136,1982 4131,1953 4130,1947 4131,1935 4139,1924 4135,1919 4129,1916 4126,1915 4125,1912 4123,1904 4119,1897 4116,1893 4113,1892 4105,1890 4100,1885 4087,1866 4071,1848 4067,1840 4069,1836 4083,1817 4091,1791 4094,1762 4093,1755 4083,1763 4063,1780 4054,1783 4030,1785 4019,1784 4016,1778 4012,1767 4013,1756 4017,1742 4018,1728 4018,1712 4015,1703 4014,1700 4015,1695 4019,1690 4023,1688 4032,1678 4028,1672 4021,1667 4007,1658 4004,1651 4005,1641 4021,1621 4019,1608 4020,1604 4028,1594 4029,1590 4025,1587 3997,1585 3988,1589 3976,1598 3970,1596 3957,1586 3952,1586 3941,1593 3916,1588 3905,1590 3901,1592 3899,1595 3896,1607 3892,1605 3886,1596 3884,1572 3880,1570 3867,1570 3860,1567 3858,1564 3860,1557 3856,1554 3845,1558 3829,1570 3821,1570 3798,1566 3755,1559 3741,1551 3724,1535 3712,1532 3683,1530 3680,1520 3671,1501 3662,1479 3657,1474 3651,1471 3644,1467 3641,1462 3642,1455 3647,1446 3650,1440 3650,1436 3649,1433 3643,1427 3640,1420 3640,1411 3644,1409 3655,1399 3659,1391 3664,1384 3680,1380 3692,1377 3695,1372 3696,1364 3696,1317 3698,1300 3696,1296 3679,1285 3675,1280 3672,1273 3675,1267 3681,1257 3683,1241 3685,1236 3692,1229 3704,1219 3715,1221 3727,1223 3739,1222 3750,1218 3761,1210 3768,1202 3774,1186 3780,1186 3785,1186 3789,1182 3794,1156 3798,1148 3802,1144 3810,1142 3821,1142 3831,1142 3837,1140 3859,1120 3891,1098 3906,1092 3919,1090 3924,1081 3934,1076 3951,1072 3958,1073 3965,1077 3978,1083 3989,1083 3998,1078 4004,1068 4007,1041 4010,1038 4018,1036 4033,1032 4045,1023 4050,1022 4054,1019 4067,1003 4074,995 4082,990 4086,988 4093,988 4111,987 4121,984 4127,980 4128,973 4131,968 4143,962 4148,955 4150,943 4152,934 4158,921 4175,901 4206,871 4221,861 4233,854 4255,849 4270,849 4294,865 4300,867 4305,866 4320,861 4328,847 4332,835 4335,831 4340,829 4350,829 4365,820 4373,819 4375,820 " class="polyStyle" id="330803" style="fill:#d4ecb2"/>
<path d="" class="polyStyle" id="500107" style="fill:#fbe6ef"/>
<path d="" class="polyStyle" id="430611" style="fill:#d4ecb2"/>
<path d="" class="polyStyle" id="511304" style="fill:#fbe6ef"/>
<path d="" class="polyStyle" id="340711" style="fill:#ee8b94"/>
<path d="" class="polyStyle" id="320118" style="fill:#f6f67b"/>
<path d="" class="polyStyle" id="510704" style="fill:#f6f67b"/>
<path d="" class="polyStyle" id="411502" style="fill:#ee8b94"/>
<path d="" class="polyStyle" id="320302" style="fill:#d4ecb2"/>
<path d="" class="polyStyle" id="140311" style="fill:#ee8b94"/>
<path d="" class="polyStyle" id="610802" style="fill:#ee8b94"/>
<path d="" class="polyStyle" id="120116" style="fill:#f6f67b"/>
<path d="" class="polyStyle" id="130303" style="fill:#fbe6ef"/>
<path d="" class="polyStyle" id="140211" style="fill:#f6f67b"/>
<path d="" class="polyStyle" id="150207" style="fill:#fbe6ef"/>
<path d="" class="polyStyle" id="211403" style="fill:#f6f67b"/>
<path d="" class="polyStyle" id="150802" style="fill:#f8c67d"/>
<path d="" class="polyStyle" id="210112" style="fill:#ee8b94"/>
<path d="" class="polyStyle" id="230406" style="fill:#d4ecb2"/>
<path d="" class="polyStyle" id="110113" style="fill:#fbe6ef"/>
<path d="" class="polyStyle" id="341702" style="fill:#fbe6ef"/>
<path d="" class="polyStyle" id="420303" style="fill:#ee8b94"/>
<path d="" class="polyStyle" id="340702" style="fill:#d4ecb2"/>
<path d="" class="polyStyle" id="421002" style="fill:#f6f67b"/>
<path d="" class="polyStyle" id="420117" style="fill:#f6f67b"/>
<path d="" class="polyStyle" id="440904" style="fill:#f8c67d"/>
<path d="" class="polyStyle" id="460205" style="fill:#ee8b94"/>
<path d="" class="polyStyle" id="460202" style="fill:#f6f67b"/>
<path d="" class="polyStyle" id="460203" style="fill:#fbe6ef"/>
<path d="" class="polyStyle" id="420304" style="fill:#f6f67b"/>
<path d="" class="polyStyle" id="445302" style="fill:#ee8b94"/>
<path d="" class="polyStyle" id="410202" style="fill:#d4ecb2"/>
<path d="" class="polyStyle" id="440800" style="fill:#f6f67b"/>
<path d="" class="polyStyle" id="440900" style="fill:#ee8b94"/>
<path d="" class="polyStyle" id="340800" style="fill:#ee8b94"/>
<path d="" class="polyStyle" id="460200" style="fill:#f6f67b"/>
<path d="" class="polyStyle" id="460000" style="fill:#ee8b94"/>
<path d="" class="polyStyle" id="450500" style="fill:#ee8b94"/>
<path d="" class="polyStyle" id="450600" style="fill:#ee8b94"/>
<path d="" class="polyStyle" id="440400" style="fill:#f6f67b"/>
<path d="" class="polyStyle" id="441700" style="fill:#f6f67b"/>
<path d="" class="polyStyle" id="441500" style="fill:#f6f67b"/>
<path d="" class="polyStyle" id="350600" style="fill:#ee8b94"/>
<path d="" class="polyStyle" id="710000" style="fill:#f6f67b"/>
<path d="" class="polyStyle" id="510400" style="fill:#f6f67b"/>
<path d="" class="polyStyle" id="522600" style="fill:#fbe6ef"/>
<path d="" class="polyStyle" id="520500" style="fill:#ee8b94"/>
<path d="" class="polyStyle" id="431200" style="fill:#f6f67b"/>
<path d="" class="polyStyle" id="430600" style="fill:#f6f67b"/>
<path d="" class="polyStyle" id="511400" style="fill:#d4ecb2"/>
<path d="" class="polyStyle" id="421000" style="fill:#ee8b94"/>
<path d="" class="polyStyle" id="341700" style="fill:#f6f67b"/>
<path d="" class="polyStyle" id="420500" style="fill:#f6f67b"/>
<path d="" class="polyStyle" id="511300" style="fill:#f6f67b"/>
<path d="" class="polyStyle" id="420900" style="fill:#f6f67b"/>
<path d="" class="polyStyle" id="511700" style="fill:#ee8b94"/>
<path d="" class="polyStyle" id="420600" style="fill:#d4ecb2"/>
<path d="" class="polyStyle" id="411500" style="fill:#fbe6ef"/>
<path d="" class="polyStyle" id="510800" style="fill:#ee8b94"/>
<path d="" class="polyStyle" id="420300" style="fill:#fbe6ef"/>
<path d="" class="polyStyle" id="611000" style="fill:#ee8b94"/>
<path d="" class="polyStyle" id="620800" style="fill:#fbe6ef"/>
<path d="" class="polyStyle" id="370200" style="fill:#ee8b94"/>
<path d="" class="polyStyle" id="371000" style="fill:#f6f67b"/>
<path d="" class="polyStyle" id="370600" style="fill:#fbe6ef"/>
<path d="" class="polyStyle" id="120000" style="fill:#f6f67b"/>
<path d="" class="polyStyle" id="130200" style="fill:#ee8b94"/>
<path d="" class="polyStyle" id="130300" style="fill:#f6f67b"/>
<path d="" class="polyStyle" id="652900" style="fill:#fbe6ef"/>
<path d="" class="polyStyle" id="150500" style="fill:#d4ecb2"/>
<path d="" class="polyStyle" id="" style="fill:#d4ecb2"/>
<path d="" class="polyStyle" id="350500" style="fill:#fbe6ef"/>
<path d="" class="polyStyle" id="440400" style="fill:#f6f67b"/>
<path d="" class="polyStyle" id="421100" style="fill:#d4ecb2"/>
<path d="" class="polyStyle" id="420100" style="fill:#fbe6ef"/>
<path d="" class="polyStyle" id="532500" style="fill:#fbe6ef"/>
<path d="" class="polyStyle" id="654200" style="fill:#fbe6ef"/>
<path d="" class="polyStyle" id="210700" style="fill:#d4ecb2"/>
<path d="" class="polyStyle" id="522300" style="fill:#fbe6ef"/>
<path d="" class="polyStyle" id="" style="fill:#ee8b94"/>
<path d="" class="polyStyle" id="440400" style="fill:#f6f67b"/>
<path d="" class="polyStyle" id="620000" style="fill:#f6f67b"/>
<path d="" class="polyStyle" id="430000" style="fill:#fbe6ef"/>
<path d="" class="polyStyle" id="420000" style="fill:#ee8b94"/>
<path d="" class="polyStyle" id="410000" style="fill:#f6f67b"/>
<path d="" class="polyStyle" id="350000" style="fill:#fbe6ef"/>
<path d="" class="polyStyle" id="520000" style="fill:#f6f67b"/>
<path d="" class="polyStyle" id="" style="fill:#ee8b94"/>
</svg>
