<?xml version="1.0" encoding="UTF-8"?>
<!DOCTYPE svg PUBLIC "-//W3C//DTD SVG 1.1 Tiny//EN" "http://www.w3.org/Graphics/SVG/1.1/DTD/svg11-tiny.dtd">
<svg version="1.1" xmlns="http://www.w3.org/2000/svg" xmlns:xlink="http://www.w3.org/1999/xlink" width="100%" height="100%" viewBox="0,0,6391,7986">
<title>SVG</title>
<desc>Poligon Test</desc>
<style id="style_css_sheet" type="text/css">
.polyStyle{fill: #cccccc;stroke-width:0;fill-rule:evenodd;}
</style>
<circle cx="5849" cy="4693" r="200" stroke="black" stroke-width="1" fill="red" id="340181" name="巢湖市"/>
<circle cx="2400" cy="327" r="200" stroke="black" stroke-width="1" fill="red" id="340121"position="44" name="长丰县"/>
<circle cx="2371" cy="4131" r="200" stroke="black" stroke-width="1" fill="red" id="340123"position="44" name="肥西县"/>
<circle cx="3015" cy="6505" r="200" stroke="black" stroke-width="1" fill="red" id="340124" name="庐江县"/>
<circle cx="3890" cy="3308" r="200" stroke="black" stroke-width="1" fill="red" id="340122" name="肥东县"/>
<circle cx="3100" cy="3780" r="200" stroke="black" stroke-width="1" fill="red" id="340111" name="包河区"/>
<circle cx="2858" cy="3466" r="200" stroke="black" stroke-width="1" fill="red" id="340104" position="44"name="蜀山区"/>
<circle cx="3089" cy="3401" r="200" stroke="black" stroke-width="1" fill="red" id="340102" name="瑶海区"/>
<circle cx="2898" cy="3331" r="200" stroke="black" stroke-width="1" fill="red" id="340103" name="庐阳区"/>
<path d="" class="polyStyle" id="" style="fill:#ee8b94"/>
<path d="" class="polyStyle" id="623022" style="fill:#fbe6ef"/>
<path d="" class="polyStyle" id="211421" style="fill:#f6f67b"/>
<path d="" class="polyStyle" id="532524" style="fill:#ee8b94"/>
<path d="" class="polyStyle" id="440825" style="fill:#f6f67b"/>
<path d="" class="polyStyle" id="441721" style="fill:#f6f67b"/>
<path d="" class="polyStyle" id="450521" style="fill:#f6f67b"/>
<path d="" class="polyStyle" id="450123" style="fill:#fbe6ef"/>
<path d="" class="polyStyle" id="350624" style="fill:#f6f67b"/>
<path d="" class="polyStyle" id="" style="fill:#fbe6ef"/>
<path d="" class="polyStyle" id="451224" style="fill:#fbe6ef"/>
<path d="" class="polyStyle" id="350627" style="fill:#f6f67b"/>
<path d="" class="polyStyle" id="" style="fill:#f6f67b"/>
<path d="" class="polyStyle" id="350525" style="fill:#f6f67b"/>
<path d="" class="polyStyle" id="530124" style="fill:#ee8b94"/>
<path d="" class="polyStyle" id="522627" style="fill:#ee8b94"/>
<path d="" class="polyStyle" id="510421" style="fill:#fbe6ef"/>
<path d="" class="polyStyle" id="522623" style="fill:#d4ecb2"/>
<path d="" class="polyStyle" id="430321" style="fill:#d4ecb2"/>
<path d="" class="polyStyle" id="511129" style="fill:#d4ecb2"/>
<path d="" class="polyStyle" id="511423" style="fill:#ee8b94"/>
<path d="" class="polyStyle" id="421023" style="fill:#f6f67b"/>
<path d="" class="polyStyle" id="511724" style="fill:#f6f67b"/>
<polygon points="3857,4941 3883,4974 3902,5002 3918,5039 3938,5074 3961,5107 3991,5137 4007,5173 4018,5203 4027,5229 4056,5253 4081,5267 4118,5281 4151,5312 4188,5346 4223,5384 4255,5425 4285,5463 4307,5495 4325,5534 4334,5566 4332,5598 4329,5625 4329,5651 4329,5683 4328,5712 4317,5738 4294,5766 4271,5794 4250,5822 4233,5850 4211,5881 4183,5923 4161,5951 4152,5979 4152,6007 4152,6038 4149,6066 4149,6094 4147,6127 4147,6155 4144,6183 4143,6211 4141,6240 4142,6265 4193,6278 4246,6286 4310,6298 4354,6306 4380,6312 4405,6343 4421,6370 4425,6403 4424,6436 4419,6466 4406,6495 4377,6525 4367,6569 4361,6594 4343,6629 4309,6656 4276,6667 4254,6678 4220,6704 4225,6729 4230,6758 4232,6790 4233,6803 4260,6809 4272,6818 4246,6822 4247,6840 4260,6855 4258,6880 4299,6883 4311,6854 4321,6862 4328,6873 4336,6850 4348,6854 4354,6877 4359,6909 4363,6944 4352,6976 4325,6998 4292,7004 4260,7003 4229,7003 4201,7013 4209,7041 4224,7072 4201,7100 4209,7126 4210,7153 4181,7178 4152,7184 4172,7209 4202,7231 4217,7260 4208,7289 4204,7316 4207,7354 4200,7380 4179,7407 4167,7432 4155,7463 4128,7481 4102,7482 4069,7481 4041,7484 4008,7494 3974,7520 3994,7549 4025,7565 4045,7593 4057,7623 4079,7649 4087,7678 4094,7704 4081,7708 4072,7712 4057,7721 4046,7729 4043,7729 4040,7731 4037,7730 4034,7733 4031,7732 4028,7732 4024,7732 4022,7732 4023,7735 4025,7737 4022,7738 4019,7738 4019,7734 4016,7733 4015,7735 4014,7737 4012,7738 4007,7734 4003,7735 4001,7737 3998,7740 3996,7742 3994,7743 3992,7745 3988,7748 3984,7749 3981,7749 3978,7750 3976,7751 3973,7753 3970,7753 3969,7750 3970,7747 3972,7745 3970,7745 3967,7745 3965,7748 3966,7751 3965,7753 3962,7756 3960,7757 3958,7761 3958,7765 3959,7768 3955,7769 3952,7769 3949,7771 3944,7773 3941,7773 3938,7773 3934,7776 3931,7776 3928,7779 3925,7779 3922,7778 3919,7776 3917,7774 3919,7772 3920,7769 3919,7767 3921,7764 3923,7761 3920,7759 3917,7758 3914,7757 3911,7757 3908,7757 3907,7759 3905,7760 3902,7762 3900,7760 3899,7757 3897,7754 3893,7754 3890,7759 3889,7762 3889,7765 3889,7768 3883,7769 3884,7772 3884,7777 3879,7777 3879,7781 3877,7779 3874,7777 3872,7780 3873,7782 3870,7781 3870,7775 3868,7772 3865,7770 3861,7773 3857,7776 3855,7778 3851,7783 3848,7783 3846,7783 3841,7783 3836,7783 3833,7783 3832,7785 3829,7787 3825,7789 3824,7791 3823,7793 3821,7796 3818,7797 3815,7796 3812,7792 3806,7794 3805,7796 3805,7799 3804,7801 3802,7803 3800,7804 3799,7807 3799,7816 3799,7819 3798,7822 3797,7824 3794,7828 3792,7831 3790,7834 3791,7838 3789,7842 3785,7844 3782,7844 3779,7844 3776,7843 3774,7838 3771,7838 3767,7839 3763,7840 3760,7840 3756,7839 3753,7839 3753,7843 3750,7843 3744,7838 3739,7838 3735,7835 3731,7832 3727,7834 3725,7835 3722,7835 3718,7836 3716,7837 3714,7837 3710,7835 3706,7835 3703,7835 3699,7835 3695,7834 3693,7830 3690,7827 3687,7828 3684,7828 3683,7831 3680,7832 3677,7834 3674,7835 3671,7834 3669,7831 3666,7830 3663,7829 3658,7828 3656,7825 3653,7824 3650,7822 3647,7821 3644,7820 3640,7820 3638,7823 3636,7827 3634,7829 3633,7831 3630,7832 3627,7831 3624,7829 3621,7830 3624,7834 3625,7839 3625,7842 3622,7842 3619,7842 3615,7842 3612,7843 3609,7842 3606,7842 3602,7843 3598,7842 3596,7841 3593,7843 3591,7846 3588,7848 3588,7851 3588,7855 3587,7859 3584,7859 3581,7857 3577,7858 3574,7858 3570,7859 3567,7861 3564,7861 3561,7861 3559,7861 3555,7863 3552,7866 3550,7868 3548,7871 3546,7873 3543,7876 3542,7878 3539,7879 3535,7880 3532,7881 3529,7882 3523,7881 3522,7879 3521,7877 3519,7879 3516,7883 3512,7885 3512,7888 3514,7890 3512,7891 3509,7891 3504,7889 3501,7886 3499,7889 3497,7891 3493,7890 3491,7891 3488,7891 3486,7893 3485,7895 3483,7896 3480,7897 3478,7901 3480,7906 3478,7908 3477,7911 3477,7914 3474,7917 3472,7920 3473,7923 3475,7926 3476,7931 3478,7934 3481,7938 3479,7940 3478,7942 3480,7946 3483,7950 3483,7953 3485,7956 3488,7958 3488,7962 3488,7966 3487,7969 3484,7969 3481,7969 3482,7972 3484,7973 3480,7978 3477,7975 3476,7972 3473,7969 3469,7965 3466,7964 3463,7964 3460,7965 3457,7966 3454,7964 3448,7964 3449,7967 3445,7968 3443,7967 3442,7964 3438,7962 3435,7962 3432,7961 3428,7960 3425,7961 3422,7961 3419,7961 3417,7963 3414,7965 3411,7968 3406,7967 3402,7969 3399,7970 3396,7972 3393,7975 3391,7980 3389,7982 3384,7984 3381,7985 3382,7982 3383,7980 3385,7977 3387,7976 3388,7972 3390,7969 3392,7968 3395,7964 3398,7961 3398,7957 3399,7953 3397,7949 3395,7945 3394,7942 3390,7940 3388,7938 3386,7933 3384,7931 3380,7930 3381,7928 3384,7925 3387,7923 3387,7919 3387,7915 3390,7916 3393,7917 3396,7917 3398,7916 3399,7918 3402,7918 3404,7913 3405,7911 3407,7909 3407,7906 3407,7901 3405,7898 3402,7897 3399,7897 3400,7893 3399,7890 3399,7888 3398,7885 3399,7882 3400,7879 3402,7877 3403,7874 3402,7871 3402,7867 3403,7863 3400,7863 3397,7861 3395,7859 3392,7857 3391,7854 3388,7853 3384,7850 3384,7846 3381,7844 3380,7841 3377,7840 3376,7837 3373,7838 3370,7835 3366,7833 3363,7831 3362,7829 3361,7825 3359,7824 3356,7823 3353,7822 3353,7819 3350,7816 3350,7814 3350,7810 3352,7805 3354,7799 3355,7797 3355,7793 3355,7790 3353,7786 3353,7784 3352,7781 3350,7777 3345,7773 3342,7770 3339,7769 3338,7766 3337,7764 3334,7762 3328,7762 3324,7766 3321,7770 3317,7769 3314,7768 3312,7765 3312,7763 3311,7759 3308,7758 3304,7755 3300,7755 3297,7755 3294,7756 3290,7758 3287,7761 3284,7760 3284,7755 3282,7757 3277,7757 3275,7761 3272,7761 3270,7759 3267,7756 3265,7759 3266,7761 3269,7763 3269,7765 3264,7767 3263,7771 3263,7775 3259,7776 3257,7775 3255,7773 3252,7771 3249,7773 3246,7777 3242,7779 3239,7780 3237,7781 3232,7783 3229,7783 3226,7781 3222,7778 3218,7774 3215,7768 3211,7766 3208,7765 3205,7763 3203,7762 3201,7760 3198,7758 3194,7757 3191,7755 3188,7753 3185,7754 3182,7754 3180,7752 3177,7747 3177,7749 3175,7751 3173,7753 3171,7755 3168,7757 3160,7759 3156,7758 3154,7756 3153,7752 3150,7748 3146,7746 3145,7742 3145,7739 3142,7737 3139,7736 3136,7734 3134,7730 3138,7728 3131,7721 3117,7718 3101,7717 3092,7721 3086,7729 3085,7733 3083,7736 3080,7738 3078,7741 3077,7743 3073,7745 3069,7747 3066,7747 3062,7747 3061,7749 3061,7752 3062,7756 3064,7758 3065,7760 3065,7764 3067,7764 3066,7769 3066,7772 3064,7775 3062,7779 3060,7782 3057,7789 3055,7793 3053,7794 3050,7793 3047,7790 3045,7790 3044,7793 3042,7795 3039,7794 3036,7793 3034,7791 3032,7790 3030,7792 3028,7795 3025,7797 3023,7799 3019,7800 3014,7800 3010,7800 3007,7800 3005,7800 3001,7799 2997,7798 2994,7798 2990,7800 2983,7800 2976,7798 2970,7792 2963,7790 2957,7789 2950,7785 2944,7781 2937,7775 2933,7770 2929,7764 2925,7759 2918,7753 2912,7747 2905,7742 2899,7737 2892,7733 2889,7731 2885,7729 2871,7721 2865,7718 2859,7712 2855,7707 2853,7701 2850,7695 2847,7690 2843,7684 2837,7678 2830,7674 2824,7671 2817,7667 2811,7664 2804,7659 2796,7654 2780,7644 2776,7643 2770,7639 2763,7637 2750,7630 2744,7626 2737,7622 2730,7618 2724,7613 2717,7609 2711,7605 2705,7603 2700,7593 2698,7575 2697,7566 2696,7552 2692,7541 2684,7527 2679,7521 2672,7512 2656,7496 2646,7479 2638,7462 2633,7452 2626,7443 2620,7433 2604,7425 2589,7421 2581,7416 2569,7407 2559,7400 2551,7396 2542,7390 2530,7382 2513,7372 2506,7366 2499,7355 2494,7345 2488,7337 2483,7329 2478,7322 2471,7316 2464,7311 2457,7306 2449,7301 2441,7296 2425,7293 2416,7293 2396,7303 2390,7310 2384,7317 2377,7324 2372,7329 2363,7341 2357,7348 2346,7356 2342,7358 2305,7352 2268,7361 2239,7354 2205,7333 2174,7319 2147,7298 2151,7272 2155,7245 2174,7212 2171,7183 2163,7155 2147,7127 2147,7096 2169,7070 2157,7042 2167,7015 2172,6985 2151,6957 2141,6929 2123,6901 2106,6873 2102,6845 2081,6816 2076,6788 2057,6762 2036,6734 1960,6621 1956,6592 1979,6520 1976,6504 1959,6497 1949,6497 1937,6502 1901,6532 1887,6540 1867,6546 1850,6545 1822,6538 1792,6505 1780,6485 1751,6463 1721,6437 1738,6417 1764,6393 1793,6365 1788,6337 1788,6302 1823,6284 1870,6281 1896,6268 1909,6236 1916,6206 1911,6174 1900,6141 1901,6113 1911,6081 1914,6050 1939,6017 1964,5986 1958,5953 1969,5924 1959,5897 1938,5869 1947,5841 1972,5812 1989,5783 1997,5755 2001,5727 2004,5700 2019,5673 2030,5644 2049,5616 2068,5588 2094,5562 2111,5528 2140,5501 2145,5472 2170,5444 2202,5418 2229,5393 2251,5364 2273,5334 2305,5303 2335,5288 2416,5254 2476,5236 2490,5250 2500,5255 2517,5258 2531,5256 2560,5255 2570,5258 2578,5266 2595,5269 2655,5268 2665,5267 2672,5268 2679,5267 2694,5267 2705,5270 2726,5271 2744,5263 2754,5257 2768,5252 2770,5250 2807,5215 2819,5202 2842,5175 2868,5164 2905,5146 2934,5126 2965,5105 3002,5101 3030,5081 3074,5060 3119,5056 3147,5048 3189,5053 3218,5048 3255,5025 3283,5026 3310,5017 3336,5012 3357,4986 3383,4973 3411,4981 3436,4975 3466,4972 3491,4968 3579,4957 3614,4953 3640,4949 3672,4941 3700,4924 3702,4921 3714,4923 3748,4920 3787,4917 3826,4919 " class="polyStyle" id="340124" style="fill:#fbe6ef"/>
<path d="" class="polyStyle" id="420526" style="fill:#fbe6ef"/>
<path d="" class="polyStyle" id="511923" style="fill:#fbe6ef"/>
<path d="" class="polyStyle" id="420325" style="fill:#fbe6ef"/>
<path d="" class="polyStyle" id="511921" style="fill:#f6f67b"/>
<path d="" class="polyStyle" id="542525" style="fill:#f6f67b"/>
<path d="" class="polyStyle" id="611026" style="fill:#ee8b94"/>
<path d="" class="polyStyle" id="411023" style="fill:#fbe6ef"/>
<path d="" class="polyStyle" id="632323" style="fill:#f6f67b"/>
<path d="" class="polyStyle" id="140525" style="fill:#d4ecb2"/>
<path d="" class="polyStyle" id="410922" style="fill:#ee8b94"/>
<path d="" class="polyStyle" id="621027" style="fill:#ee8b94"/>
<path d="" class="polyStyle" id="130427" style="fill:#f6f67b"/>
<path d="" class="polyStyle" id="130121" style="fill:#ee8b94"/>
<path d="" class="polyStyle" id="610823" style="fill:#fbe6ef"/>
<path d="" class="polyStyle" id="130225" style="fill:#fbe6ef"/>
<path d="" class="polyStyle" id="130322" style="fill:#d4ecb2"/>
<path d="" class="polyStyle" id="653130" style="fill:#f6f67b"/>
<path d="" class="polyStyle" id="130822" style="fill:#fbe6ef"/>
<path d="" class="polyStyle" id="211221" style="fill:#f6f67b"/>
<path d="" class="polyStyle" id="210921" style="fill:#f6f67b"/>
<path d="" class="polyStyle" id="150223" style="fill:#f8c67d"/>
<path d="" class="polyStyle" id="220422" style="fill:#d4ecb2"/>
<path d="" class="polyStyle" id="340721" style="fill:#f6f67b"/>
<path d="" class="polyStyle" id="510824" style="fill:#d4ecb2"/>
<path d="" class="polyStyle" id="610324" style="fill:#f6f67b"/>
<path d="" class="polyStyle" id="530722" style="fill:#ee8b94"/>
<path d="" class="polyStyle" id="340823" style="fill:#d4ecb2"/>
<path d="" class="polyStyle" id="620825" style="fill:#d4ecb2"/>
<path d="" class="polyStyle" id="421125" style="fill:#ee8b94"/>
<polygon points="2569,31 2565,61 2579,92 2595,117 2617,150 2614,176 2622,181 2609,214 2604,229 2609,245 2614,273 2612,299 2620,330 2606,341 2608,353 2614,361 2631,370 2638,382 2640,393 2654,405 2687,434 2708,431 2718,416 2738,411 2757,414 2776,437 2779,429 2817,422 2834,433 2875,447 2899,454 2925,456 2933,470 2945,476 2960,491 2971,491 2978,501 3001,504 3027,497 3047,490 3080,482 3107,463 3135,453 3163,471 3161,502 3193,512 3224,511 3256,511 3282,490 3312,467 3338,450 3365,440 3397,431 3437,425 3475,423 3475,392 3493,360 3525,330 3549,317 3561,317 3566,323 3565,365 3579,388 3580,394 3576,406 3566,421 3566,435 3553,460 3524,455 3510,484 3494,512 3480,544 3487,574 3485,601 3505,633 3492,669 3479,698 3462,725 3432,754 3391,752 3355,770 3364,801 3391,829 3419,839 3446,814 3474,787 3512,763 3551,744 3579,742 3556,770 3584,789 3623,812 3654,830 3682,859 3712,875 3742,874 3774,899 3783,931 3786,975 3784,1006 3758,1015 3728,1023 3700,1032 3678,1059 3661,1094 3654,1120 3636,1149 3618,1180 3608,1212 3581,1239 3566,1265 3560,1294 3569,1329 3586,1357 3607,1384 3584,1410 3565,1440 3541,1467 3510,1489 3484,1495 3458,1499 3430,1500 3401,1495 3376,1506 3349,1527 3322,1533 3295,1535 3270,1552 3252,1578 3241,1603 3266,1629 3279,1654 3289,1680 3276,1709 3283,1737 3292,1764 3322,1783 3351,1792 3380,1784 3404,1811 3413,1836 3409,1863 3435,1883 3462,1890 3448,1918 3429,1944 3400,1962 3373,1979 3347,1979 3326,2005 3352,2011 3366,2039 3339,2053 3313,2047 3314,2074 3287,2088 3260,2098 3232,2096 3206,2086 3210,2112 3209,2140 3182,2163 3180,2191 3206,2218 3222,2243 3247,2237 3275,2236 3305,2238 3316,2263 3310,2289 3302,2315 3275,2326 3246,2333 3217,2352 3209,2366 3192,2368 3179,2372 3170,2377 3166,2385 3165,2394 3166,2397 3177,2406 3181,2412 3181,2417 3179,2422 3172,2429 3145,2450 3130,2473 3117,2508 3116,2555 3098,2555 3059,2586 3067,2634 3070,2662 3109,2709 3129,2735 3130,2741 3127,2748 3122,2754 3116,2760 3109,2766 3103,2770 3097,2776 3095,2782 3092,2787 3092,2793 3092,2798 3095,2804 3097,2810 3101,2815 3104,2821 3107,2827 3108,2832 3108,2838 3107,2843 3106,2849 3103,2855 3102,2860 3100,2866 3099,2872 3095,2881 3094,2885 3091,2891 3088,2896 3086,2902 3083,2908 3080,2912 3073,2918 3070,2919 3063,2924 3059,2929 3057,2935 3058,2940 3061,2946 3064,2952 3066,2957 3065,2963 3065,2969 3064,2974 3062,2980 3061,2986 3060,2991 3058,2997 3057,3002 3056,3008 3052,3014 3046,3019 3041,3025 3020,3030 2994,3024 2991,2990 2980,2963 2952,2939 2928,2940 2897,2949 2863,2964 2858,2977 2833,2976 2806,2962 2786,2993 2775,3023 2766,3034 2756,3045 2739,3042 2725,3037 2711,3017 2685,3007 2650,3013 2615,3025 2586,3008 2581,3009 2561,3010 2551,3022 2560,3040 2535,3045 2513,3074 2500,3085 2488,3088 2479,3081 2478,3061 2482,3023 2479,3014 2470,3002 2447,2992 2417,2981 2408,2954 2404,2933 2392,2926 2378,2928 2360,2952 2337,2966 2308,2980 2280,2984 2254,2980 2199,2958 2173,2946 2145,2934 2118,2924 2089,2914 2063,2902 2036,2911 2009,2936 1982,2928 1952,2926 1926,2912 1900,2901 1895,2899 1902,2869 1918,2834 1929,2803 1896,2783 1871,2771 1838,2755 1808,2745 1793,2728 1783,2719 1759,2709 1735,2707 1735,2704 1718,2693 1709,2668 1736,2649 1764,2625 1768,2596 1784,2567 1805,2540 1797,2512 1785,2483 1783,2458 1755,2432 1718,2413 1708,2395 1704,2378 1709,2366 1697,2343 1701,2327 1684,2311 1663,2284 1670,2255 1679,2223 1659,2201 1632,2184 1613,2179 1605,2159 1591,2133 1569,2136 1540,2137 1530,2125 1519,2099 1502,2070 1480,2040 1474,2010 1468,1976 1465,1950 1473,1926 1481,1923 1492,1919 1540,1950 1562,1944 1591,1930 1613,1916 1639,1898 1659,1917 1671,1912 1673,1892 1668,1878 1674,1862 1679,1850 1694,1834 1709,1806 1692,1779 1665,1758 1633,1744 1622,1730 1615,1712 1610,1695 1601,1685 1591,1682 1582,1667 1585,1645 1602,1633 1616,1617 1643,1619 1669,1617 1714,1606 1791,1586 1823,1585 1849,1557 1882,1548 1890,1520 1880,1494 1877,1466 1904,1438 1932,1405 1931,1373 1901,1352 1886,1321 1852,1308 1802,1335 1769,1343 1762,1316 1763,1284 1747,1259 1771,1232 1782,1201 1780,1163 1791,1130 1819,1107 1846,1077 1842,1046 1814,1041 1788,1060 1759,1034 1753,1002 1780,988 1779,944 1782,909 1792,871 1790,837 1788,801 1755,790 1721,791 1676,805 1648,812 1619,797 1606,791 1605,752 1628,702 1665,677 1696,664 1749,650 1766,632 1786,609 1800,585 1805,555 1808,532 1821,509 1874,455 1914,401 1911,360 1910,332 1918,314 1918,286 1930,269 1944,245 1939,222 1943,211 1951,205 1963,196 1968,180 1969,147 1959,139 1944,135 1938,125 1939,112 1944,97 1953,89 1971,82 1981,76 1986,71 1993,67 2000,65 2007,62 2033,60 2038,63 2045,67 2052,69 2058,69 2065,68 2072,72 2078,73 2085,70 2091,67 2098,68 2105,73 2111,78 2118,84 2125,89 2130,95 2135,101 2139,105 2146,104 2153,101 2159,101 2166,99 2173,98 2179,97 2186,97 2193,96 2199,96 2206,98 2213,102 2219,103 2233,105 2253,115 2260,115 2277,111 2295,102 2307,95 2308,92 2315,87 2320,81 2326,75 2330,70 2334,64 2336,58 2340,53 2344,47 2351,41 2358,39 2364,39 2371,39 2378,39 2384,42 2391,45 2398,46 2404,45 2410,39 2415,33 2420,28 2424,23 2431,19 2437,18 2444,14 2451,11 2455,5 2457,0 2520,25 " class="polyStyle" id="340121" style="fill:#f6f67b"/>
<polygon points="3646,1388 3670,1414 3700,1434 3689,1468 3703,1506 3730,1531 3760,1552 3788,1552 3823,1549 3850,1559 3883,1576 3912,1588 3929,1618 3959,1643 3995,1656 4027,1687 4056,1705 4091,1709 4124,1709 4150,1697 4183,1694 4208,1680 4244,1674 4282,1667 4316,1665 4347,1665 4372,1638 4388,1605 4421,1581 4450,1572 4485,1562 4514,1534 4547,1532 4567,1523 4606,1527 4610,1504 4618,1500 4630,1503 4637,1499 4642,1492 4644,1473 4646,1469 4669,1473 4698,1459 4737,1448 4752,1455 4775,1443 4786,1441 4793,1431 4813,1438 4821,1435 4831,1428 4838,1418 4854,1418 4866,1418 4878,1418 4893,1431 4930,1434 4936,1435 4933,1441 4945,1442 4946,1450 4935,1457 4940,1466 4955,1449 4966,1447 4995,1444 5024,1444 5037,1443 5052,1437 5078,1461 5111,1479 5122,1506 5125,1539 5162,1530 5182,1503 5222,1488 5259,1496 5292,1510 5324,1527 5353,1519 5381,1521 5415,1518 5450,1528 5479,1545 5509,1575 5517,1608 5546,1627 5575,1620 5604,1609 5629,1587 5660,1568 5698,1563 5719,1590 5746,1606 5766,1615 5795,1621 5822,1636 5851,1656 5853,1682 5863,1707 5893,1732 5894,1735 5892,1761 5912,1791 5916,1817 5911,1843 5909,1869 5923,1896 5940,1923 5936,1952 5939,1979 5939,2008 5925,2036 5900,2058 5875,2085 5850,2111 5844,2137 5841,2164 5840,2189 5867,2208 5874,2214 5879,2225 5868,2237 5850,2254 5851,2263 5880,2284 5888,2288 5899,2293 5913,2300 5908,2309 5908,2318 5913,2331 5925,2338 5934,2343 5941,2352 5939,2363 5937,2376 5942,2384 5953,2388 5963,2389 5974,2395 5980,2402 5982,2415 5974,2430 5964,2439 5954,2439 5948,2448 5930,2474 5904,2499 5881,2505 5875,2512 5862,2535 5850,2538 5822,2531 5795,2523 5768,2521 5738,2546 5728,2571 5733,2598 5756,2625 5763,2633 5762,2641 5756,2650 5743,2650 5715,2655 5689,2666 5663,2689 5640,2722 5622,2711 5596,2728 5569,2756 5539,2761 5509,2777 5494,2802 5450,2820 5418,2820 5384,2831 5343,2832 5329,2860 5306,2875 5265,2902 5242,2919 5228,2950 5212,2983 5202,3013 5175,3046 5159,3078 5142,3110 5127,3137 5120,3169 5066,3234 5035,3230 5028,3262 5000,3284 4986,3310 4974,3337 4962,3375 4936,3417 4906,3444 4854,3506 4837,3537 4829,3569 4811,3606 4785,3610 4755,3636 4747,3666 4742,3706 4738,3733 4741,3773 4728,3807 4695,3813 4671,3840 4654,3872 4629,3898 4602,3920 4567,3924 4540,3924 4490,3942 4489,3972 4473,3961 4463,3987 4444,4002 4449,4019 4430,4025 4426,4000 4405,3993 4401,4012 4389,4031 4406,4049 4427,4040 4452,4072 4429,4115 4405,4138 4398,4156 4418,4192 4426,4211 4417,4216 4394,4216 4358,4203 4335,4194 4325,4209 4327,4225 4327,4253 4314,4278 4269,4314 4261,4324 4283,4362 4256,4374 4230,4391 4222,4416 4196,4424 4166,4451 4142,4485 4129,4511 4101,4543 4072,4537 4046,4552 4035,4587 4032,4623 4012,4652 3987,4657 3955,4677 3945,4706 3928,4740 3905,4772 3875,4801 3834,4843 3802,4857 3772,4866 3723,4890 3702,4921 3677,4903 3659,4874 3648,4839 3643,4809 3638,4759 3621,4643 3613,4565 3611,4527 3608,4455 3603,4420 3604,4386 3604,4343 3603,4310 3603,4282 3609,4260 3608,4234 3620,4204 3607,4172 3592,4146 3561,4125 3567,4096 3583,4062 3593,4030 3608,4001 3627,3972 3648,3942 3679,3927 3708,3906 3715,3873 3695,3845 3687,3817 3665,3787 3638,3783 3613,3766 3588,3741 3560,3730 3534,3720 3507,3702 3481,3701 3455,3692 3441,3664 3445,3637 3447,3630 3465,3596 3485,3575 3492,3570 3505,3568 3521,3568 3548,3564 3563,3554 3576,3539 3579,3522 3571,3510 3555,3505 3549,3499 3547,3485 3532,3476 3515,3481 3499,3474 3496,3459 3497,3439 3504,3424 3512,3425 3532,3427 3546,3422 3556,3415 3566,3424 3578,3422 3586,3417 3591,3415 3591,3423 3581,3430 3582,3439 3588,3460 3596,3465 3603,3471 3615,3471 3630,3460 3644,3447 3655,3435 3657,3425 3661,3422 3674,3420 3681,3409 3686,3400 3696,3395 3704,3389 3704,3379 3699,3379 3690,3381 3685,3379 3683,3368 3673,3365 3647,3381 3611,3402 3607,3404 3599,3400 3596,3387 3609,3379 3632,3375 3631,3366 3618,3358 3595,3351 3593,3338 3602,3332 3602,3323 3599,3281 3596,3188 3584,3159 3569,3141 3579,3132 3600,3128 3657,3124 3687,3120 3697,3114 3698,3104 3688,3086 3672,3075 3652,3069 3643,3056 3645,3044 3651,2999 3649,2974 3640,2963 3606,2949 3581,2948 3561,2946 3549,2931 3549,2914 3538,2894 3530,2871 3515,2859 3502,2858 3471,2860 3468,2832 3452,2799 3432,2767 3423,2739 3422,2728 3420,2716 3425,2687 3428,2659 3436,2632 3440,2606 3454,2581 3475,2553 3503,2559 3531,2558 3532,2531 3506,2520 3493,2494 3470,2467 3440,2454 3413,2452 3386,2454 3360,2456 3333,2461 3304,2465 3276,2477 3247,2454 3242,2431 3217,2407 3201,2380 3209,2366 3217,2352 3246,2333 3275,2326 3302,2315 3310,2289 3316,2263 3305,2238 3275,2236 3247,2237 3222,2243 3206,2218 3180,2191 3182,2163 3209,2140 3210,2112 3206,2086 3232,2096 3260,2098 3287,2088 3314,2074 3313,2047 3339,2053 3366,2039 3352,2011 3326,2005 3347,1979 3373,1979 3400,1962 3429,1944 3448,1918 3462,1890 3435,1883 3409,1863 3413,1836 3404,1811 3380,1784 3351,1792 3322,1783 3292,1764 3283,1737 3276,1709 3289,1680 3279,1654 3266,1629 3241,1603 3252,1578 3270,1552 3295,1535 3322,1533 3349,1527 3376,1506 3401,1495 3430,1500 3458,1499 3484,1495 3510,1489 3541,1467 3565,1440 3584,1410 3607,1384 3612,1385 " class="polyStyle" id="340122" style="fill:#fbe6ef"/>
<polygon points="850,2943 849,2966 854,2978 863,2978 870,2983 869,3000 873,3006 918,3044 926,3056 940,3068 944,3074 939,3095 946,3108 973,3126 1045,3154 1049,3169 1042,3176 1025,3182 1025,3188 1040,3187 1048,3196 1044,3203 1046,3210 1065,3218 1065,3234 1074,3235 1080,3232 1077,3246 1089,3246 1090,3259 1098,3260 1107,3256 1120,3262 1131,3272 1139,3290 1152,3299 1167,3300 1178,3293 1178,3305 1198,3308 1205,3357 1205,3377 1183,3411 1179,3439 1186,3456 1206,3478 1217,3499 1217,3516 1177,3544 1157,3548 1124,3544 1080,3548 1067,3552 1050,3566 1048,3572 1052,3578 1072,3590 1076,3600 1073,3606 1077,3618 1074,3628 1081,3640 1148,3657 1152,3689 1177,3736 1183,3741 1199,3745 1199,3737 1213,3726 1208,3713 1236,3701 1243,3703 1269,3733 1289,3728 1298,3729 1329,3748 1343,3748 1349,3759 1345,3767 1346,3773 1358,3794 1348,3806 1359,3820 1356,3832 1360,3840 1373,3855 1341,3874 1337,3866 1325,3868 1330,3886 1328,3896 1322,3901 1329,3905 1341,3903 1392,3875 1406,3864 1450,3885 1477,3887 1493,3879 1519,3855 1530,3856 1551,3876 1575,3870 1596,3882 1606,3877 1614,3865 1614,3841 1635,3831 1653,3812 1666,3817 1682,3817 1707,3809 1758,3819 1768,3813 1781,3792 1789,3795 1825,3797 1843,3802 1861,3799 1869,3799 1877,3805 1877,3818 1881,3824 1895,3828 1937,3827 1946,3828 1960,3838 1966,3840 1989,3834 2006,3824 2024,3809 2049,3799 2072,3794 2084,3797 2098,3814 2111,3828 2119,3832 2127,3831 2131,3826 2130,3803 2135,3779 2146,3760 2165,3738 2216,3698 2294,3637 2298,3645 2312,3644 2319,3637 2327,3627 2339,3627 2359,3631 2377,3644 2379,3656 2380,3669 2395,3674 2415,3667 2433,3657 2450,3656 2477,3650 2488,3642 2497,3631 2509,3630 2523,3642 2544,3669 2584,3729 2578,3740 2573,3749 2572,3765 2578,3784 2577,3796 2574,3802 2564,3797 2547,3791 2532,3786 2523,3794 2513,3799 2493,3790 2470,3784 2459,3784 2447,3784 2440,3791 2438,3804 2443,3825 2444,3856 2435,3877 2429,3899 2430,3916 2438,3934 2458,3942 2479,3942 2505,3942 2522,3949 2527,3960 2524,3980 2525,3994 2535,4004 2543,4016 2540,4030 2535,4041 2538,4050 2548,4047 2557,4041 2574,4040 2589,4047 2590,4060 2595,4074 2605,4077 2618,4080 2619,4090 2619,4100 2627,4109 2664,4126 2689,4124 2691,4122 2695,4143 2697,4163 2697,4170 2693,4175 2674,4184 2664,4188 2653,4196 2650,4209 2653,4224 2662,4248 2676,4269 2684,4288 2687,4310 2694,4321 2702,4326 2709,4331 2720,4337 2726,4341 2737,4345 2748,4349 2757,4353 2764,4366 2773,4371 2798,4379 2806,4386 2817,4426 2826,4452 2839,4460 2845,4461 2859,4469 2871,4478 2884,4478 2914,4482 2932,4488 2947,4480 2947,4474 2949,4466 2953,4454 2965,4430 2976,4420 2994,4412 3011,4411 3019,4415 3031,4427 3040,4433 3051,4435 3065,4434 3194,4456 3611,4527 3613,4565 3621,4643 3638,4759 3643,4809 3648,4839 3659,4874 3677,4903 3702,4921 3700,4924 3672,4941 3640,4949 3614,4953 3579,4957 3491,4968 3466,4972 3436,4975 3411,4981 3383,4973 3357,4986 3336,5012 3310,5017 3283,5026 3255,5025 3218,5048 3189,5053 3147,5048 3119,5056 3074,5060 3030,5081 3002,5101 2965,5105 2934,5126 2905,5146 2868,5164 2842,5175 2819,5202 2807,5215 2770,5250 2768,5252 2760,5218 2743,5209 2746,5197 2762,5187 2771,5178 2767,5160 2757,5147 2729,5117 2743,5113 2753,5111 2756,5097 2752,5085 2745,5083 2739,5082 2732,5079 2727,5073 2723,5068 2721,5062 2721,5056 2720,5051 2720,5045 2717,5040 2716,5034 2713,5028 2711,5023 2709,5017 2707,5011 2704,5006 2701,5000 2699,4994 2695,4989 2688,4984 2681,4986 2674,4989 2669,4994 2663,4998 2656,5003 2649,5006 2643,5006 2636,5005 2630,5003 2623,4999 2616,4996 2610,4992 2603,4988 2597,4984 2590,4979 2583,4975 2577,4970 2571,4967 2565,4962 2558,4959 2552,4956 2545,4953 2538,4951 2532,4949 2525,4948 2519,4948 2512,4948 2505,4949 2499,4949 2492,4949 2486,4950 2479,4953 2473,4954 2466,4957 2453,4959 2446,4961 2440,4962 2433,4963 2426,4964 2420,4965 2412,4967 2405,4969 2399,4971 2392,4972 2386,4973 2378,4974 2368,4975 2362,4978 2355,4979 2349,4980 2342,4983 2336,4986 2329,4988 2322,4988 2318,4982 2318,4977 2317,4971 2316,4966 2313,4960 2308,4954 2301,4950 2294,4946 2288,4943 2281,4940 2275,4939 2268,4937 2261,4936 2254,4935 2247,4935 2244,4938 2238,4940 2232,4944 2227,4950 2223,4956 2219,4961 2218,4967 2217,4973 2214,4978 2213,4984 2209,4990 2202,4994 2196,4996 2189,4996 2183,4995 2169,4991 2163,4991 2156,4992 2150,4993 2144,4997 2138,5000 2134,5002 2124,5006 2119,5006 2111,5003 2101,4999 2081,4993 2063,4990 2048,4989 2028,4985 2018,4983 2007,4978 1992,4968 1984,4961 1973,4956 1963,4952 1949,4950 1937,4949 1921,4949 1908,4950 1897,4954 1888,4959 1879,4966 1869,4972 1860,4978 1849,4983 1843,4990 1839,4996 1828,5007 1822,5012 1818,5018 1815,5024 1812,5026 1810,5029 1806,5029 1799,5030 1793,5027 1786,5026 1779,5024 1773,5022 1766,5018 1764,5013 1761,5011 1758,5009 1745,5001 1739,5000 1733,4997 1727,4995 1720,4993 1713,4990 1707,4988 1700,4987 1695,4985 1691,4983 1688,4982 1674,4979 1667,4978 1660,4974 1654,4969 1650,4967 1647,4969 1643,4975 1638,4981 1632,4982 1625,4983 1618,4982 1612,4981 1605,4978 1591,4973 1589,4970 1571,4947 1577,4921 1548,4914 1523,4921 1513,4950 1514,4977 1521,4998 1523,5004 1523,5010 1520,5021 1517,5027 1511,5030 1504,5029 1497,5027 1491,5025 1487,5030 1487,5035 1491,5041 1496,5047 1496,5051 1494,5058 1488,5060 1483,5059 1479,5058 1475,5055 1475,5048 1475,5042 1468,5039 1462,5041 1455,5045 1448,5047 1446,5043 1453,5038 1455,5033 1453,5027 1446,5023 1440,5020 1434,5025 1428,5028 1421,5030 1414,5029 1408,5031 1412,5037 1417,5043 1412,5047 1405,5048 1398,5049 1392,5050 1387,5047 1385,5041 1385,5036 1380,5033 1374,5038 1367,5040 1360,5039 1354,5038 1347,5035 1341,5037 1342,5043 1347,5049 1350,5054 1351,5060 1347,5063 1343,5065 1340,5065 1336,5059 1335,5053 1333,5048 1322,5044 1309,5032 1304,5027 1297,5026 1291,5027 1284,5030 1277,5032 1271,5038 1261,5045 1255,5041 1251,5036 1248,5030 1246,5024 1239,5020 1233,5023 1229,5029 1223,5033 1217,5034 1211,5031 1204,5031 1198,5034 1188,5040 1181,5042 1175,5044 1168,5045 1161,5047 1155,5048 1148,5048 1142,5049 1135,5048 1128,5046 1122,5040 1117,5042 1115,5048 1113,5054 1106,5058 1099,5058 1086,5056 1080,5056 1073,5053 1072,5048 1073,5042 1073,5036 1068,5033 1061,5034 1055,5036 1047,5040 1044,5042 1036,5043 1026,5041 1013,5038 1002,5037 999,5039 993,5040 986,5041 980,5040 973,5037 967,5036 960,5038 953,5042 947,5046 940,5048 933,5051 920,5058 914,5061 910,5067 904,5071 898,5072 891,5070 885,5065 878,5064 871,5065 866,5071 861,5076 854,5080 847,5082 841,5085 834,5091 828,5093 821,5094 814,5093 801,5088 796,5092 793,5097 792,5103 785,5103 781,5097 779,5092 775,5086 767,5086 760,5089 754,5095 747,5100 741,5106 735,5112 730,5117 727,5121 720,5131 716,5127 712,5123 706,5116 700,5114 693,5112 686,5110 680,5104 673,5099 670,5093 664,5087 659,5082 654,5076 650,5070 646,5065 641,5059 634,5054 628,5052 621,5052 615,5053 608,5055 601,5053 599,5047 599,5036 595,5031 589,5025 586,5024 582,5018 576,5017 569,5017 562,5016 556,5012 549,5009 543,5007 536,5002 516,4975 491,4946 463,4929 437,4902 416,4875 398,4849 386,4822 384,4795 396,4766 390,4738 392,4708 391,4677 396,4649 386,4620 363,4595 375,4567 387,4538 362,4512 348,4484 354,4458 367,4432 396,4411 397,4379 377,4347 372,4322 373,4295 381,4252 388,4227 399,4195 402,4164 401,4155 393,4148 372,4151 356,4158 341,4159 314,4149 299,4133 306,4121 337,4091 362,4069 369,4044 343,4025 336,3995 353,3969 368,3939 384,3908 380,3880 354,3867 327,3884 311,3894 300,3890 274,3877 247,3897 234,3905 220,3903 219,3890 249,3877 269,3862 273,3849 255,3833 254,3822 251,3814 227,3798 199,3810 170,3823 144,3807 138,3778 124,3745 102,3720 72,3682 42,3661 16,3637 5,3632 0,3624 1,3618 5,3614 43,3621 52,3622 59,3619 62,3604 70,3599 101,3574 122,3545 131,3529 137,3524 149,3523 175,3530 204,3524 233,3499 257,3472 269,3446 270,3423 266,3414 243,3421 216,3422 187,3422 179,3408 183,3391 184,3375 168,3350 147,3317 144,3303 157,3297 173,3296 200,3310 210,3312 219,3304 209,3268 209,3258 222,3257 236,3254 252,3248 264,3250 290,3267 307,3275 316,3265 318,3239 347,3206 369,3190 378,3196 403,3208 422,3206 429,3200 424,3174 425,3159 432,3149 439,3145 444,3142 473,3148 505,3125 533,3115 562,3117 588,3122 613,3123 646,3123 666,3092 692,3068 721,3063 749,3047 779,3021 796,2985 821,2959 845,2933 846,2932 " class="polyStyle" id="340123" style="fill:#f6f67b"/>
<path d="" class="polyStyle" id="210281" style="fill:#ee8b94"/>
<path d="" class="polyStyle" id="440883" style="fill:#f6f67b"/>
<path d="" class="polyStyle" id="469006" style="fill:#d4ecb2"/>
<path d="" class="polyStyle" id="469002" style="fill:#ee8b94"/>
<path d="" class="polyStyle" id="469005" style="fill:#fbe6ef"/>
<path d="" class="polyStyle" id="440882" style="fill:#ee8b94"/>
<path d="" class="polyStyle" id="450681" style="fill:#ee8b94"/>
<path d="" class="polyStyle" id="441581" style="fill:#d4ecb2"/>
<path d="" class="polyStyle" id="421087" style="fill:#ee8b94"/>
<path d="" class="polyStyle" id="420984" style="fill:#fbe6ef"/>
<path d="" class="polyStyle" id="420582" style="fill:#ee8b94"/>
<polygon points="5647,2726 5655,2728 5681,2731 5687,2732 5694,2737 5701,2741 5708,2746 5712,2752 5714,2758 5718,2763 5723,2769 5729,2776 5733,2780 5735,2786 5738,2792 5737,2797 5734,2803 5733,2808 5737,2814 5742,2820 5747,2825 5754,2830 5760,2833 5767,2836 5774,2838 5780,2842 5780,2848 5779,2854 5779,2865 5780,2871 5781,2876 5784,2887 5787,2893 5788,2900 5796,2901 5800,2902 5807,2903 5813,2904 5820,2908 5826,2912 5830,2918 5834,2924 5840,2929 5846,2934 5853,2936 5859,2937 5866,2938 5870,2939 5875,2939 5880,2945 5883,2952 5886,2957 5888,2963 5890,2969 5891,2974 5892,2980 5895,2986 5896,2991 5895,2997 5894,3002 5892,3008 5891,3015 5895,3019 5896,3022 5900,3027 5902,3034 5905,3041 5907,3048 5907,3053 5907,3059 5907,3064 5911,3070 5917,3072 5924,3072 5930,3071 5937,3069 5944,3067 5950,3066 5957,3067 5964,3068 5970,3070 5975,3073 5983,3074 5993,3076 6001,3077 6007,3077 6014,3077 6017,3076 6027,3076 6032,3075 6039,3073 6046,3072 6052,3070 6059,3071 6065,3072 6072,3075 6079,3078 6094,3085 6113,3093 6129,3099 6142,3103 6149,3105 6155,3105 6162,3106 6168,3106 6175,3106 6182,3106 6188,3107 6195,3108 6201,3110 6208,3113 6215,3116 6221,3118 6230,3122 6235,3126 6241,3130 6248,3133 6254,3136 6260,3139 6275,3149 6293,3160 6299,3165 6314,3178 6323,3185 6308,3196 6306,3222 6314,3249 6310,3282 6297,3309 6278,3347 6269,3377 6264,3416 6250,3464 6221,3478 6190,3489 6149,3505 6122,3513 6108,3540 6124,3567 6117,3592 6088,3604 6081,3633 6080,3659 6081,3692 6091,3721 6116,3743 6127,3768 6133,3796 6106,3813 6093,3838 6092,3867 6117,3889 6144,3895 6177,3907 6166,3937 6141,3956 6137,3983 6152,4011 6178,4035 6211,4052 6238,4059 6219,4086 6191,4102 6161,4116 6133,4136 6101,4166 6074,4184 6071,4211 6102,4219 6130,4228 6165,4243 6184,4270 6210,4301 6242,4317 6270,4328 6262,4358 6241,4386 6230,4413 6213,4442 6209,4476 6212,4504 6230,4525 6290,4524 6295,4550 6276,4578 6251,4605 6234,4634 6243,4662 6217,4682 6225,4711 6230,4739 6234,4768 6208,4798 6234,4821 6231,4833 6216,4849 6207,4869 6195,4874 6170,4878 6153,4881 6138,4890 6129,4910 6107,4925 6100,4935 6103,4947 6105,4982 6142,4970 6168,4977 6184,5010 6209,5032 6239,5026 6267,5017 6294,5013 6310,5016 6321,5026 6319,5043 6303,5055 6277,5083 6267,5096 6280,5111 6307,5118 6334,5125 6340,5137 6340,5153 6347,5174 6356,5184 6374,5192 6384,5200 6391,5214 6390,5219 6388,5228 6354,5241 6319,5262 6288,5279 6256,5281 6219,5266 6197,5237 6171,5218 6143,5223 6116,5213 6079,5197 6053,5212 6011,5221 5983,5238 5953,5255 5927,5267 5898,5270 5870,5278 5837,5291 5806,5313 5780,5321 5749,5295 5720,5282 5689,5296 5661,5328 5630,5328 5603,5321 5578,5311 5542,5310 5509,5298 5472,5306 5441,5328 5432,5334 5430,5339 5430,5344 5433,5349 5440,5353 5445,5360 5443,5370 5432,5373 5422,5377 5416,5375 5415,5370 5416,5363 5421,5358 5421,5353 5409,5352 5363,5366 5329,5372 5311,5398 5268,5405 5235,5392 5216,5364 5174,5368 5146,5379 5109,5394 5082,5417 5075,5451 5068,5481 5062,5508 5055,5548 5039,5579 5029,5611 5023,5645 5018,5674 4995,5706 4963,5725 4939,5755 4924,5782 4901,5811 4884,5842 4872,5869 4853,5903 4837,5930 4839,5964 4841,5992 4836,6025 4824,6057 4795,6077 4768,6080 4757,6113 4759,6148 4751,6189 4741,6226 4714,6231 4689,6223 4652,6232 4633,6264 4634,6301 4610,6327 4569,6335 4543,6338 4504,6344 4454,6358 4421,6370 4405,6343 4380,6312 4354,6306 4310,6298 4246,6286 4193,6278 4142,6265 4141,6240 4143,6211 4144,6183 4147,6155 4147,6127 4149,6094 4149,6066 4152,6038 4152,6007 4152,5979 4161,5951 4183,5923 4211,5881 4233,5850 4250,5822 4271,5794 4294,5766 4317,5738 4328,5712 4329,5683 4329,5651 4329,5625 4332,5598 4334,5566 4325,5534 4307,5495 4285,5463 4255,5425 4223,5384 4188,5346 4151,5312 4118,5281 4081,5267 4056,5253 4027,5229 4018,5203 4007,5173 3991,5137 3961,5107 3938,5074 3918,5039 3902,5002 3883,4974 3857,4941 3826,4919 3787,4917 3748,4920 3714,4923 3702,4921 3723,4890 3772,4866 3802,4857 3834,4843 3875,4801 3905,4772 3928,4740 3945,4706 3955,4677 3987,4657 4012,4652 4032,4623 4035,4587 4046,4552 4072,4537 4101,4543 4129,4511 4142,4485 4166,4451 4196,4424 4222,4416 4230,4391 4256,4374 4283,4362 4261,4324 4269,4314 4314,4278 4327,4253 4327,4225 4325,4209 4335,4194 4358,4203 4394,4216 4417,4216 4426,4211 4418,4192 4398,4156 4405,4138 4429,4115 4452,4072 4427,4040 4406,4049 4389,4031 4401,4012 4405,3993 4426,4000 4430,4025 4449,4019 4444,4002 4463,3987 4473,3961 4489,3972 4490,3942 4540,3924 4567,3924 4602,3920 4629,3898 4654,3872 4671,3840 4695,3813 4728,3807 4741,3773 4738,3733 4742,3706 4747,3666 4755,3636 4785,3610 4811,3606 4829,3569 4837,3537 4854,3506 4906,3444 4936,3417 4962,3375 4974,3337 4986,3310 5000,3284 5028,3262 5035,3230 5066,3234 5120,3169 5127,3137 5142,3110 5159,3078 5175,3046 5202,3013 5212,2983 5228,2950 5242,2919 5265,2902 5306,2875 5329,2860 5343,2832 5384,2831 5418,2820 5450,2820 5494,2802 5509,2777 5539,2761 5569,2756 5596,2728 5622,2711 5640,2722 " class="polyStyle" id="340181" style="fill:#d4ecb2"/>
<path d="" class="polyStyle" id="370282" style="fill:#f6f67b"/>
<path d="" class="polyStyle" id="371083" style="fill:#f6f67b"/>
<path d="" class="polyStyle" id="371082" style="fill:#fbe6ef"/>
<path d="" class="polyStyle" id="652801" style="fill:#f8c67d"/>
<path d="" class="polyStyle" id="654301" style="fill:#ee8b94"/>
<path d="" class="polyStyle" id="370687" style="fill:#ee8b94"/>
<path d="" class="polyStyle" id="371482" style="fill:#d4ecb2"/>
<path d="" class="polyStyle" id="421081" style="fill:#fbe6ef"/>
<path d="" class="polyStyle" id="429006" style="fill:#f6f67b"/>
<path d="" class="polyStyle" id="440982" style="fill:#d4ecb2"/>
<path d="" class="polyStyle" id="421181" style="fill:#d4ecb2"/>
<path d="" class="polyStyle" id="321181" style="fill:#d4ecb2"/>
<path d="" class="polyStyle" id="659007" style="fill:#ee8b94"/>
<path d="" class="polyStyle" id="652701" style="fill:#fbe6ef"/>
<path d="" class="polyStyle" id="210781" style="fill:#fbe6ef"/>
<path d="" class="polyStyle" id="460204" style="fill:#f6f67b"/>
<path d="" class="polyStyle" id="210211" style="fill:#f6f67b"/>
<path d="" class="polyStyle" id="450512" style="fill:#ee8b94"/>
<path d="" class="polyStyle" id="450602" style="fill:#fbe6ef"/>
<path d="" class="polyStyle" id="440404" style="fill:#ee8b94"/>
<path d="" class="polyStyle" id="440403" style="fill:#f6f67b"/>
<path d="" class="polyStyle" id="441502" style="fill:#f6f67b"/>
<path d="" class="polyStyle" id="431002" style="fill:#d4ecb2"/>
<path d="" class="polyStyle" id="500107" style="fill:#fbe6ef"/>
<path d="" class="polyStyle" id="430611" style="fill:#d4ecb2"/>
<path d="" class="polyStyle" id="511304" style="fill:#fbe6ef"/>
<path d="" class="polyStyle" id="340711" style="fill:#ee8b94"/>
<path d="" class="polyStyle" id="320118" style="fill:#f6f67b"/>
<path d="" class="polyStyle" id="510704" style="fill:#f6f67b"/>
<path d="" class="polyStyle" id="411502" style="fill:#ee8b94"/>
<path d="" class="polyStyle" id="320302" style="fill:#d4ecb2"/>
<path d="" class="polyStyle" id="140311" style="fill:#ee8b94"/>
<path d="" class="polyStyle" id="610802" style="fill:#ee8b94"/>
<path d="" class="polyStyle" id="120116" style="fill:#f6f67b"/>
<path d="" class="polyStyle" id="130303" style="fill:#fbe6ef"/>
<path d="" class="polyStyle" id="140211" style="fill:#f6f67b"/>
<path d="" class="polyStyle" id="150207" style="fill:#fbe6ef"/>
<path d="" class="polyStyle" id="211403" style="fill:#f6f67b"/>
<path d="" class="polyStyle" id="150802" style="fill:#f8c67d"/>
<path d="" class="polyStyle" id="210112" style="fill:#ee8b94"/>
<path d="" class="polyStyle" id="230406" style="fill:#d4ecb2"/>
<path d="" class="polyStyle" id="110113" style="fill:#fbe6ef"/>
<path d="" class="polyStyle" id="341702" style="fill:#fbe6ef"/>
<path d="" class="polyStyle" id="420303" style="fill:#ee8b94"/>
<path d="" class="polyStyle" id="340702" style="fill:#d4ecb2"/>
<path d="" class="polyStyle" id="421002" style="fill:#f6f67b"/>
<path d="" class="polyStyle" id="420117" style="fill:#f6f67b"/>
<path d="" class="polyStyle" id="440904" style="fill:#f8c67d"/>
<path d="" class="polyStyle" id="460205" style="fill:#ee8b94"/>
<path d="" class="polyStyle" id="460202" style="fill:#f6f67b"/>
<path d="" class="polyStyle" id="460203" style="fill:#fbe6ef"/>
<polygon points="1926,2912 1952,2926 1982,2928 2009,2936 2036,2911 2063,2902 2089,2914 2118,2924 2145,2934 2173,2946 2199,2958 2254,2980 2280,2984 2308,2980 2337,2966 2360,2952 2378,2928 2392,2926 2404,2933 2408,2954 2417,2981 2447,2992 2470,3002 2479,3014 2482,3023 2478,3061 2479,3081 2488,3088 2500,3085 2513,3074 2535,3045 2560,3040 2551,3022 2561,3010 2581,3009 2586,3008 2615,3025 2650,3013 2685,3007 2711,3017 2725,3037 2739,3042 2756,3045 2766,3034 2775,3023 2786,2993 2806,2962 2833,2976 2858,2977 2863,2964 2897,2949 2928,2940 2952,2939 2980,2963 2991,2990 2994,3024 3020,3030 3041,3025 3036,3031 3032,3036 3029,3042 3029,3048 3031,3053 3033,3059 3036,3064 3037,3070 3040,3076 3041,3081 3039,3087 3039,3093 3041,3098 3047,3104 3051,3109 3052,3115 3052,3121 3052,3126 3051,3132 3050,3138 3048,3143 3046,3149 3040,3155 3036,3160 3034,3166 3032,3171 3034,3177 3036,3183 3040,3188 3046,3194 3050,3200 3050,3205 3047,3211 3041,3217 3034,3220 3027,3223 3021,3227 3014,3232 3009,3238 3004,3244 3002,3249 3002,3255 3004,3261 3005,3266 3006,3272 3008,3277 3008,3283 3009,3289 3009,3294 3008,3300 3008,3309 3008,3318 3013,3324 3020,3329 3025,3335 3029,3340 3034,3347 3034,3356 3043,3365 3054,3372 3060,3379 3060,3395 3059,3404 3056,3413 3050,3422 3046,3426 3026,3433 3001,3439 2978,3448 2956,3452 2941,3454 2934,3453 2929,3452 2918,3444 2908,3434 2902,3424 2902,3412 2911,3406 2907,3388 2909,3384 2910,3370 2911,3354 2908,3351 2905,3353 2900,3356 2896,3359 2893,3361 2888,3363 2883,3364 2865,3365 2848,3362 2818,3347 2797,3340 2782,3342 2768,3339 2756,3329 2732,3318 2720,3314 2717,3320 2701,3330 2693,3324 2695,3309 2698,3298 2692,3292 2671,3300 2636,3312 2608,3313 2606,3338 2587,3354 2579,3355 2578,3338 2575,3326 2563,3328 2553,3336 2548,3354 2548,3398 2532,3429 2524,3430 2522,3423 2520,3416 2513,3419 2501,3422 2493,3415 2485,3419 2482,3414 2496,3400 2507,3377 2508,3358 2498,3347 2487,3339 2491,3325 2506,3325 2514,3326 2513,3320 2501,3300 2486,3291 2463,3292 2453,3295 2450,3304 2440,3323 2432,3321 2431,3309 2431,3290 2430,3281 2422,3278 2396,3280 2385,3286 2376,3307 2363,3327 2355,3328 2350,3314 2350,3295 2358,3278 2361,3267 2337,3244 2317,3228 2301,3227 2281,3245 2258,3268 2251,3272 2250,3267 2251,3247 2250,3235 2242,3237 2234,3237 2230,3220 2222,3205 2203,3195 2194,3168 2163,3162 2138,3158 2112,3148 2082,3136 2055,3114 2053,3111 2047,3102 2040,3088 2016,3062 1988,3033 1960,3010 1932,3001 1912,2970 1901,2938 1896,2904 1895,2899 1900,2901 " class="polyStyle" id="340103" style="fill:#fbe6ef"/>
<polygon points="3217,2407 3242,2431 3247,2454 3276,2477 3304,2465 3333,2461 3360,2456 3386,2454 3413,2452 3440,2454 3470,2467 3493,2494 3506,2520 3532,2531 3531,2558 3503,2559 3475,2553 3454,2581 3440,2606 3436,2632 3428,2659 3425,2687 3420,2716 3422,2728 3423,2739 3432,2767 3452,2799 3468,2832 3471,2860 3502,2858 3515,2859 3530,2871 3538,2894 3549,2914 3549,2931 3561,2946 3581,2948 3606,2949 3640,2963 3649,2974 3651,2999 3645,3044 3643,3056 3652,3069 3672,3075 3688,3086 3698,3104 3697,3114 3687,3120 3657,3124 3600,3128 3579,3132 3569,3141 3584,3159 3596,3188 3599,3281 3602,3323 3602,3332 3593,3338 3595,3351 3618,3358 3631,3366 3632,3375 3609,3379 3596,3387 3599,3400 3607,3404 3611,3402 3647,3381 3673,3365 3683,3368 3685,3379 3690,3381 3699,3379 3704,3379 3704,3389 3696,3395 3686,3400 3681,3409 3674,3420 3661,3422 3657,3425 3655,3435 3644,3447 3630,3460 3615,3471 3603,3471 3596,3465 3588,3460 3582,3439 3581,3430 3591,3423 3591,3415 3586,3417 3578,3422 3566,3424 3556,3415 3546,3422 3532,3427 3512,3425 3504,3424 3497,3439 3496,3459 3499,3474 3515,3481 3532,3476 3547,3485 3549,3499 3555,3505 3571,3510 3579,3522 3576,3539 3563,3554 3548,3564 3521,3568 3505,3568 3492,3570 3485,3575 3465,3596 3447,3630 3445,3637 3426,3629 3416,3623 3411,3607 3401,3590 3391,3591 3386,3594 3376,3598 3364,3596 3359,3590 3350,3576 3341,3574 3330,3580 3323,3582 3317,3577 3307,3566 3295,3561 3282,3555 3271,3551 3260,3547 3254,3535 3252,3524 3244,3517 3235,3511 3221,3506 3206,3499 3199,3492 3190,3490 3177,3501 3165,3502 3155,3494 3142,3486 3133,3484 3120,3480 3109,3475 3101,3470 3088,3459 3082,3448 3086,3437 3087,3424 3083,3417 3075,3410 3063,3407 3059,3404 3060,3395 3060,3379 3054,3372 3043,3365 3034,3356 3034,3347 3029,3340 3025,3335 3020,3329 3013,3324 3008,3318 3008,3309 3008,3300 3009,3294 3009,3289 3008,3283 3008,3277 3006,3272 3005,3266 3004,3261 3002,3255 3002,3249 3004,3244 3009,3238 3014,3232 3021,3227 3027,3223 3034,3220 3041,3217 3047,3211 3050,3205 3050,3200 3046,3194 3040,3188 3036,3183 3034,3177 3032,3171 3034,3166 3036,3160 3040,3155 3046,3149 3048,3143 3050,3138 3051,3132 3052,3126 3052,3121 3052,3115 3051,3109 3047,3104 3041,3098 3039,3093 3039,3087 3041,3081 3040,3076 3037,3070 3036,3064 3033,3059 3031,3053 3029,3048 3029,3042 3032,3036 3036,3031 3041,3025 3046,3019 3052,3014 3056,3008 3057,3002 3058,2997 3060,2991 3061,2986 3062,2980 3064,2974 3065,2969 3065,2963 3066,2957 3064,2952 3061,2946 3058,2940 3057,2935 3059,2929 3063,2924 3070,2919 3073,2918 3080,2912 3083,2908 3086,2902 3088,2896 3091,2891 3094,2885 3095,2881 3099,2872 3100,2866 3102,2860 3103,2855 3106,2849 3107,2843 3108,2838 3108,2832 3107,2827 3104,2821 3101,2815 3097,2810 3095,2804 3092,2798 3092,2793 3092,2787 3095,2782 3097,2776 3103,2770 3109,2766 3116,2760 3122,2754 3127,2748 3130,2741 3129,2735 3109,2709 3070,2662 3067,2634 3059,2586 3098,2555 3116,2555 3117,2508 3130,2473 3145,2450 3172,2429 3179,2422 3181,2417 3181,2412 3177,2406 3166,2397 3165,2394 3166,2385 3170,2377 3179,2372 3192,2368 3209,2366 3201,2380 " class="polyStyle" id="340102" style="fill:#ee8b94"/>
<polygon points="3075,3410 3083,3417 3087,3424 3086,3437 3082,3448 3088,3459 3101,3470 3109,3475 3120,3480 3133,3484 3142,3486 3155,3494 3165,3502 3177,3501 3190,3490 3199,3492 3206,3499 3221,3506 3235,3511 3244,3517 3252,3524 3254,3535 3260,3547 3271,3551 3282,3555 3295,3561 3307,3566 3317,3577 3323,3582 3330,3580 3341,3574 3350,3576 3359,3590 3364,3596 3376,3598 3386,3594 3391,3591 3401,3590 3411,3607 3416,3623 3426,3629 3445,3637 3441,3664 3455,3692 3481,3701 3507,3702 3534,3720 3560,3730 3588,3741 3613,3766 3638,3783 3665,3787 3687,3817 3695,3845 3715,3873 3708,3906 3679,3927 3648,3942 3627,3972 3608,4001 3593,4030 3583,4062 3567,4096 3561,4125 3592,4146 3607,4172 3620,4204 3608,4234 3609,4260 3603,4282 3603,4310 3604,4343 3604,4386 3603,4420 3608,4455 3611,4527 3194,4456 3065,4434 3051,4435 3040,4433 3031,4427 3019,4415 3011,4411 2994,4412 2976,4420 2965,4430 2953,4454 2949,4466 2947,4474 2947,4480 2932,4488 2914,4482 2884,4478 2871,4478 2859,4469 2845,4461 2839,4460 2826,4452 2817,4426 2806,4386 2798,4379 2773,4371 2764,4366 2757,4353 2748,4349 2737,4345 2726,4341 2720,4337 2709,4331 2702,4326 2694,4321 2687,4310 2684,4288 2676,4269 2662,4248 2653,4224 2650,4209 2653,4196 2664,4188 2674,4184 2693,4175 2697,4170 2697,4163 2695,4143 2691,4122 2705,4110 2715,4091 2732,4077 2739,4065 2734,4057 2735,4050 2743,4045 2752,4046 2758,4052 2775,4055 2788,4044 2794,4030 2802,4016 2810,4010 2824,4011 2848,4024 2872,4034 2881,4032 2889,4027 2894,4010 2896,3987 2895,3974 2917,3962 2936,3949 2946,3937 2952,3925 2945,3916 2940,3913 2937,3912 2931,3912 2933,3896 2930,3885 2941,3880 2943,3873 2942,3865 2939,3852 2943,3839 2940,3832 2930,3832 2927,3825 2920,3826 2905,3818 2895,3815 2906,3811 2915,3808 2914,3802 2911,3789 2900,3779 2889,3769 2881,3763 2868,3768 2862,3769 2857,3769 2854,3773 2852,3778 2847,3779 2834,3770 2822,3767 2816,3777 2808,3779 2793,3783 2781,3774 2775,3772 2774,3768 2775,3765 2771,3762 2766,3753 2748,3742 2752,3736 2774,3709 2801,3674 2830,3640 2860,3602 2868,3591 2875,3582 2878,3578 2880,3569 2882,3549 2891,3529 2910,3506 2928,3478 2941,3454 2956,3452 2978,3448 3001,3439 3026,3433 3046,3426 3050,3422 3056,3413 3059,3404 3063,3407 " class="polyStyle" id="340111" style="fill:#d4ecb2"/>
<polygon points="876,2906 905,2891 930,2880 957,2870 988,2859 1017,2854 1048,2844 1076,2838 1102,2839 1131,2831 1161,2833 1188,2810 1209,2783 1237,2771 1263,2761 1293,2750 1321,2747 1347,2750 1385,2755 1422,2754 1456,2755 1482,2756 1513,2754 1542,2754 1568,2758 1591,2760 1595,2752 1623,2744 1650,2741 1683,2741 1709,2737 1735,2728 1735,2707 1759,2709 1783,2719 1793,2728 1808,2745 1838,2755 1871,2771 1896,2783 1929,2803 1918,2834 1902,2869 1895,2899 1896,2904 1901,2938 1912,2970 1932,3001 1960,3010 1988,3033 2016,3062 2040,3088 2047,3102 2053,3111 2055,3114 2082,3136 2112,3148 2138,3158 2163,3162 2194,3168 2203,3195 2222,3205 2230,3220 2234,3237 2242,3237 2250,3235 2251,3247 2250,3267 2251,3272 2258,3268 2281,3245 2301,3227 2317,3228 2337,3244 2361,3267 2358,3278 2350,3295 2350,3314 2355,3328 2363,3327 2376,3307 2385,3286 2396,3280 2422,3278 2430,3281 2431,3290 2431,3309 2432,3321 2440,3323 2450,3304 2453,3295 2463,3292 2486,3291 2501,3300 2513,3320 2514,3326 2506,3325 2491,3325 2487,3339 2498,3347 2508,3358 2507,3377 2496,3400 2482,3414 2485,3419 2493,3415 2501,3422 2513,3419 2520,3416 2522,3423 2524,3430 2532,3429 2548,3398 2548,3354 2553,3336 2563,3328 2575,3326 2578,3338 2579,3355 2587,3354 2606,3338 2608,3313 2636,3312 2671,3300 2692,3292 2698,3298 2695,3309 2693,3324 2701,3330 2717,3320 2720,3314 2732,3318 2756,3329 2768,3339 2782,3342 2797,3340 2818,3347 2848,3362 2865,3365 2883,3364 2888,3363 2893,3361 2896,3359 2900,3356 2905,3353 2908,3351 2911,3354 2910,3370 2909,3384 2907,3388 2911,3406 2902,3412 2902,3424 2908,3434 2918,3444 2929,3452 2934,3453 2941,3454 2928,3478 2910,3506 2891,3529 2882,3549 2880,3569 2878,3578 2875,3582 2868,3591 2860,3602 2830,3640 2801,3674 2774,3709 2752,3736 2748,3742 2766,3753 2771,3762 2775,3765 2774,3768 2775,3772 2781,3774 2793,3783 2808,3779 2816,3777 2822,3767 2834,3770 2847,3779 2852,3778 2854,3773 2857,3769 2862,3769 2868,3768 2881,3763 2889,3769 2900,3779 2911,3789 2914,3802 2915,3808 2906,3811 2895,3815 2905,3818 2920,3826 2927,3825 2930,3832 2940,3832 2943,3839 2939,3852 2942,3865 2943,3873 2941,3880 2930,3885 2933,3896 2931,3912 2937,3912 2940,3913 2945,3916 2952,3925 2946,3937 2936,3949 2917,3962 2895,3974 2896,3987 2894,4010 2889,4027 2881,4032 2872,4034 2848,4024 2824,4011 2810,4010 2802,4016 2794,4030 2788,4044 2775,4055 2758,4052 2752,4046 2743,4045 2735,4050 2734,4057 2739,4065 2732,4077 2715,4091 2705,4110 2691,4122 2689,4124 2664,4126 2627,4109 2619,4100 2619,4090 2618,4080 2605,4077 2595,4074 2590,4060 2589,4047 2574,4040 2557,4041 2548,4047 2538,4050 2535,4041 2540,4030 2543,4016 2535,4004 2525,3994 2524,3980 2527,3960 2522,3949 2505,3942 2479,3942 2458,3942 2438,3934 2430,3916 2429,3899 2435,3877 2444,3856 2443,3825 2438,3804 2440,3791 2447,3784 2459,3784 2470,3784 2493,3790 2513,3799 2523,3794 2532,3786 2547,3791 2564,3797 2574,3802 2577,3796 2578,3784 2572,3765 2573,3749 2578,3740 2584,3729 2544,3669 2523,3642 2509,3630 2497,3631 2488,3642 2477,3650 2450,3656 2433,3657 2415,3667 2395,3674 2380,3669 2379,3656 2377,3644 2359,3631 2339,3627 2327,3627 2319,3637 2312,3644 2298,3645 2294,3637 2216,3698 2165,3738 2146,3760 2135,3779 2130,3803 2131,3826 2127,3831 2119,3832 2111,3828 2098,3814 2084,3797 2072,3794 2049,3799 2024,3809 2006,3824 1989,3834 1966,3840 1960,3838 1946,3828 1937,3827 1895,3828 1881,3824 1877,3818 1877,3805 1869,3799 1861,3799 1843,3802 1825,3797 1789,3795 1765,3784 1781,3792 1768,3813 1758,3819 1707,3809 1682,3817 1666,3817 1653,3812 1635,3831 1614,3841 1614,3865 1606,3877 1596,3882 1575,3870 1551,3876 1530,3856 1519,3855 1493,3879 1477,3887 1450,3885 1406,3864 1392,3875 1341,3903 1329,3905 1322,3901 1328,3896 1330,3886 1325,3868 1337,3866 1341,3874 1373,3855 1360,3840 1356,3832 1359,3820 1348,3806 1358,3794 1346,3773 1345,3767 1349,3759 1343,3748 1329,3748 1298,3729 1289,3728 1269,3733 1243,3703 1236,3701 1208,3713 1213,3726 1199,3737 1199,3745 1183,3741 1177,3736 1152,3689 1148,3657 1081,3640 1074,3628 1077,3618 1073,3606 1076,3600 1072,3590 1052,3578 1048,3572 1050,3566 1067,3552 1080,3548 1124,3544 1157,3548 1177,3544 1217,3516 1217,3499 1206,3478 1186,3456 1179,3439 1183,3411 1205,3377 1205,3357 1198,3308 1178,3305 1178,3293 1167,3300 1152,3299 1139,3290 1131,3272 1120,3262 1107,3256 1098,3260 1090,3259 1089,3246 1077,3246 1080,3232 1074,3235 1065,3234 1065,3218 1046,3210 1044,3203 1048,3196 1040,3187 1025,3188 1025,3182 1042,3176 1049,3169 1045,3154 973,3126 946,3108 939,3095 944,3074 940,3068 926,3056 918,3044 873,3006 869,3000 870,2983 863,2978 854,2978 849,2966 850,2943 846,2932 " class="polyStyle" id="340104" style="fill:#ee8b94"/>
<path d="" class="polyStyle" id="420304" style="fill:#f6f67b"/>
<path d="" class="polyStyle" id="445302" style="fill:#ee8b94"/>
<path d="" class="polyStyle" id="410202" style="fill:#d4ecb2"/>
<path d="" class="polyStyle" id="440800" style="fill:#f6f67b"/>
<path d="" class="polyStyle" id="440900" style="fill:#ee8b94"/>
<path d="" class="polyStyle" id="340800" style="fill:#ee8b94"/>
<path d="" class="polyStyle" id="460200" style="fill:#f6f67b"/>
<path d="" class="polyStyle" id="460000" style="fill:#ee8b94"/>
<path d="" class="polyStyle" id="450500" style="fill:#ee8b94"/>
<path d="" class="polyStyle" id="450600" style="fill:#ee8b94"/>
<path d="" class="polyStyle" id="440400" style="fill:#f6f67b"/>
<path d="" class="polyStyle" id="441700" style="fill:#f6f67b"/>
<path d="" class="polyStyle" id="441500" style="fill:#f6f67b"/>
<path d="" class="polyStyle" id="350600" style="fill:#ee8b94"/>
<path d="" class="polyStyle" id="710000" style="fill:#f6f67b"/>
<path d="" class="polyStyle" id="510400" style="fill:#f6f67b"/>
<path d="" class="polyStyle" id="522600" style="fill:#fbe6ef"/>
<path d="" class="polyStyle" id="520500" style="fill:#ee8b94"/>
<path d="" class="polyStyle" id="431200" style="fill:#f6f67b"/>
<path d="" class="polyStyle" id="430600" style="fill:#f6f67b"/>
<path d="" class="polyStyle" id="511400" style="fill:#d4ecb2"/>
<path d="" class="polyStyle" id="421000" style="fill:#ee8b94"/>
<path d="" class="polyStyle" id="341700" style="fill:#f6f67b"/>
<path d="" class="polyStyle" id="420500" style="fill:#f6f67b"/>
<path d="" class="polyStyle" id="511300" style="fill:#f6f67b"/>
<path d="" class="polyStyle" id="420900" style="fill:#f6f67b"/>
<path d="" class="polyStyle" id="511700" style="fill:#ee8b94"/>
<path d="" class="polyStyle" id="420600" style="fill:#d4ecb2"/>
<path d="" class="polyStyle" id="411500" style="fill:#fbe6ef"/>
<path d="" class="polyStyle" id="510800" style="fill:#ee8b94"/>
<path d="" class="polyStyle" id="420300" style="fill:#fbe6ef"/>
<path d="" class="polyStyle" id="611000" style="fill:#ee8b94"/>
<path d="" class="polyStyle" id="620800" style="fill:#fbe6ef"/>
<path d="" class="polyStyle" id="370200" style="fill:#ee8b94"/>
<path d="" class="polyStyle" id="371000" style="fill:#f6f67b"/>
<path d="" class="polyStyle" id="370600" style="fill:#fbe6ef"/>
<path d="" class="polyStyle" id="120000" style="fill:#f6f67b"/>
<path d="" class="polyStyle" id="130200" style="fill:#ee8b94"/>
<path d="" class="polyStyle" id="130300" style="fill:#f6f67b"/>
<path d="" class="polyStyle" id="652900" style="fill:#fbe6ef"/>
<path d="" class="polyStyle" id="150500" style="fill:#d4ecb2"/>
<path d="" class="polyStyle" id="" style="fill:#d4ecb2"/>
<path d="" class="polyStyle" id="350500" style="fill:#fbe6ef"/>
<path d="" class="polyStyle" id="440400" style="fill:#f6f67b"/>
<path d="" class="polyStyle" id="421100" style="fill:#d4ecb2"/>
<path d="" class="polyStyle" id="420100" style="fill:#fbe6ef"/>
<path d="" class="polyStyle" id="532500" style="fill:#fbe6ef"/>
<path d="" class="polyStyle" id="654200" style="fill:#fbe6ef"/>
<path d="" class="polyStyle" id="210700" style="fill:#d4ecb2"/>
<path d="" class="polyStyle" id="522300" style="fill:#fbe6ef"/>
<path d="" class="polyStyle" id="" style="fill:#ee8b94"/>
<path d="" class="polyStyle" id="440400" style="fill:#f6f67b"/>
<path d="" class="polyStyle" id="620000" style="fill:#f6f67b"/>
<path d="" class="polyStyle" id="430000" style="fill:#fbe6ef"/>
<path d="" class="polyStyle" id="420000" style="fill:#ee8b94"/>
<path d="" class="polyStyle" id="410000" style="fill:#f6f67b"/>
<path d="" class="polyStyle" id="350000" style="fill:#fbe6ef"/>
<path d="" class="polyStyle" id="520000" style="fill:#f6f67b"/>
<path d="" class="polyStyle" id="" style="fill:#ee8b94"/>
</svg>
