<?xml version="1.0" encoding="UTF-8"?>
<!DOCTYPE svg PUBLIC "-//W3C//DTD SVG 1.1 Tiny//EN" "http://www.w3.org/Graphics/SVG/1.1/DTD/svg11-tiny.dtd">
<svg version="1.1" xmlns="http://www.w3.org/2000/svg" xmlns:xlink="http://www.w3.org/1999/xlink" width="100%" height="100%" viewBox="0,0,6252,4491">
<title>SVG</title>
<desc>Poligon Test</desc>
<style id="style_css_sheet" type="text/css">
.polyStyle{fill: #cccccc;stroke-width:0;fill-rule:evenodd;}
</style>
<circle cx="3577" cy="2275" r="200" stroke="black" stroke-width="1" fill="red" id="340222" name="繁昌县"/>
<circle cx="2176" cy="1127" r="200" stroke="black" stroke-width="1" fill="red" id="340225" name="无为县"/>
<circle cx="4266" cy="3081" r="200" stroke="black" stroke-width="1" fill="red" id="340223" name="南陵县"/>
<circle cx="5477" cy="2010" r="200" stroke="black" stroke-width="1" fill="red" id="340221" name="芜湖县"/>
<circle cx="3944" cy="1606" r="200" stroke="black" stroke-width="1" fill="red" id="340208" name="三山区"/>
<circle cx="4543" cy="831" r="200" stroke="black" stroke-width="1" fill="red" id="340207"position="112" name="鸠江区"/>
<circle cx="4507" cy="987" r="200" stroke="black" stroke-width="1" fill="red" id="340202" name="镜湖区"/>
<circle cx="4469" cy="1147" r="200" stroke="black" stroke-width="1" fill="red" id="340203" name="弋江区"/>
<path d="" class="polyStyle" id="" style="fill:#ee8b94"/>
<path d="" class="polyStyle" id="623022" style="fill:#fbe6ef"/>
<path d="" class="polyStyle" id="211421" style="fill:#f6f67b"/>
<path d="" class="polyStyle" id="532524" style="fill:#ee8b94"/>
<path d="" class="polyStyle" id="440825" style="fill:#f6f67b"/>
<path d="" class="polyStyle" id="441721" style="fill:#f6f67b"/>
<path d="" class="polyStyle" id="450521" style="fill:#f6f67b"/>
<path d="" class="polyStyle" id="450123" style="fill:#fbe6ef"/>
<path d="" class="polyStyle" id="350624" style="fill:#f6f67b"/>
<path d="" class="polyStyle" id="" style="fill:#fbe6ef"/>
<path d="" class="polyStyle" id="451224" style="fill:#fbe6ef"/>
<path d="" class="polyStyle" id="350627" style="fill:#f6f67b"/>
<path d="" class="polyStyle" id="" style="fill:#f6f67b"/>
<path d="" class="polyStyle" id="350525" style="fill:#f6f67b"/>
<path d="" class="polyStyle" id="530124" style="fill:#ee8b94"/>
<path d="" class="polyStyle" id="522627" style="fill:#ee8b94"/>
<path d="" class="polyStyle" id="510421" style="fill:#fbe6ef"/>
<path d="" class="polyStyle" id="522623" style="fill:#d4ecb2"/>
<path d="" class="polyStyle" id="430321" style="fill:#d4ecb2"/>
<path d="" class="polyStyle" id="511129" style="fill:#d4ecb2"/>
<path d="" class="polyStyle" id="511423" style="fill:#ee8b94"/>
<path d="" class="polyStyle" id="421023" style="fill:#f6f67b"/>
<path d="" class="polyStyle" id="511724" style="fill:#f6f67b"/>
<polygon points="4749,1810 4758,1813 4762,1817 4763,1824 4759,1834 4753,1841 4711,1877 4697,1897 4694,1905 4694,1911 4695,1917 4700,1922 4707,1926 4716,1928 4788,1937 4802,1942 4807,1945 4811,1950 4812,1952 4817,1962 4821,1964 4826,1964 4831,1964 4834,1965 4840,1968 4847,1973 4851,1979 4851,1985 4849,1990 4845,1996 4841,2002 4837,2007 4833,2013 4820,2018 4815,2021 4808,2023 4802,2026 4796,2031 4791,2035 4781,2046 4777,2052 4771,2058 4766,2063 4763,2069 4759,2074 4757,2080 4754,2086 4750,2091 4749,2097 4747,2103 4745,2108 4743,2114 4743,2119 4742,2125 4746,2131 4751,2136 4758,2140 4764,2144 4771,2147 4777,2148 4784,2148 4790,2148 4810,2145 4817,2144 4823,2147 4822,2153 4819,2158 4816,2164 4815,2170 4816,2175 4818,2181 4820,2186 4823,2192 4825,2198 4825,2203 4829,2209 4831,2215 4833,2220 4837,2226 4838,2232 4843,2237 4845,2243 4850,2257 4849,2261 4842,2267 4834,2281 4832,2298 4841,2315 4852,2325 4859,2327 4872,2327 4876,2326 4878,2320 4886,2314 4893,2308 4895,2302 4899,2296 4901,2291 4902,2285 4901,2280 4901,2274 4900,2268 4898,2263 4896,2257 4893,2251 4898,2248 4904,2245 4917,2242 4931,2244 4941,2261 4946,2278 4956,2295 4972,2312 4979,2316 4990,2321 5003,2321 5010,2318 5017,2308 4996,2273 4989,2257 4988,2246 4989,2240 4993,2234 5007,2224 5040,2213 5066,2206 5092,2202 5105,2202 5117,2214 5123,2214 5120,2224 5121,2239 5130,2249 5141,2266 5150,2286 5149,2305 5139,2317 5130,2320 5117,2322 5112,2328 5104,2336 5096,2348 5089,2370 5093,2398 5098,2410 5117,2422 5131,2429 5143,2433 5147,2435 5150,2441 5150,2463 5144,2502 5139,2515 5133,2525 5126,2535 5124,2542 5125,2577 5127,2607 5125,2620 5118,2631 5103,2646 5096,2653 5090,2662 5087,2676 5086,2699 5082,2705 5077,2709 5072,2709 5065,2711 5059,2711 5046,2713 5039,2714 5033,2716 5026,2719 5023,2721 5012,2729 5023,2755 5041,2785 5043,2795 5034,2820 5034,2830 5036,2838 5039,2849 5039,2861 5037,2906 5038,2924 5043,2945 5052,2965 5063,2981 5063,2986 5067,2991 5079,3004 5128,3039 5142,3049 5152,3061 5158,3073 5158,3085 5157,3098 5153,3107 5147,3114 5117,3134 5106,3138 5096,3142 5079,3149 5068,3158 5061,3166 5049,3174 5042,3182 5039,3191 5040,3200 5046,3210 5063,3228 5063,3232 5063,3237 5063,3243 5061,3249 5060,3254 5059,3260 5056,3266 5053,3271 5050,3277 5044,3282 5038,3288 5031,3290 5025,3292 5018,3294 5011,3294 5005,3292 4998,3291 4992,3288 4985,3284 4979,3282 4972,3280 4959,3282 4954,3287 4951,3292 4951,3298 4953,3303 4955,3309 4960,3315 4967,3319 4973,3323 4980,3326 4986,3327 4993,3328 5000,3331 5006,3334 5009,3340 5007,3345 5005,3351 5002,3357 4999,3362 4995,3368 4992,3372 4986,3379 4981,3390 4978,3395 4977,3400 4981,3401 4997,3395 5018,3365 5024,3364 5040,3367 5046,3374 5051,3390 5066,3392 5079,3391 5081,3399 5078,3405 5066,3415 5053,3420 5049,3426 5052,3432 5058,3433 5057,3440 5051,3439 5037,3447 5034,3460 5036,3472 5036,3476 5030,3483 5015,3486 5004,3492 4989,3506 4985,3519 4986,3537 4997,3559 5000,3576 5014,3573 5044,3576 5072,3591 5072,3600 5079,3606 5087,3618 5093,3624 5094,3630 5104,3639 5105,3649 5100,3660 5104,3665 5111,3653 5120,3648 5119,3655 5117,3662 5118,3668 5110,3670 5101,3677 5090,3678 5082,3680 5073,3689 5060,3698 5058,3702 5048,3712 5012,3734 4997,3764 4985,3803 4990,3866 4986,3867 4976,3869 4938,3881 4937,3874 4925,3879 4933,3869 4938,3853 4942,3846 4934,3849 4916,3849 4915,3837 4903,3838 4882,3816 4877,3808 4870,3811 4855,3804 4854,3797 4844,3795 4842,3788 4861,3760 4860,3753 4844,3748 4848,3739 4848,3732 4856,3724 4861,3711 4853,3698 4851,3691 4840,3691 4833,3689 4801,3700 4787,3698 4781,3695 4754,3713 4745,3712 4739,3699 4733,3693 4726,3692 4719,3688 4703,3676 4697,3669 4700,3662 4693,3656 4691,3649 4684,3645 4675,3634 4666,3631 4658,3623 4653,3615 4658,3605 4666,3609 4682,3602 4705,3602 4707,3615 4722,3619 4729,3612 4737,3611 4738,3604 4746,3605 4743,3596 4731,3586 4739,3566 4745,3562 4738,3556 4732,3555 4726,3557 4714,3553 4707,3557 4701,3556 4713,3529 4717,3516 4711,3509 4719,3504 4722,3498 4717,3491 4707,3489 4694,3494 4685,3492 4671,3484 4659,3481 4654,3475 4655,3464 4646,3464 4638,3458 4633,3464 4627,3464 4621,3467 4615,3461 4606,3467 4598,3470 4603,3476 4597,3482 4582,3477 4576,3481 4572,3487 4556,3499 4550,3498 4554,3491 4552,3473 4553,3464 4545,3457 4530,3456 4524,3444 4518,3441 4507,3440 4496,3436 4489,3441 4479,3443 4475,3450 4466,3452 4454,3459 4442,3457 4436,3459 4429,3464 4423,3472 4411,3467 4391,3464 4385,3461 4379,3465 4383,3471 4379,3477 4378,3484 4380,3492 4372,3494 4365,3500 4363,3507 4353,3511 4340,3512 4337,3528 4338,3534 4331,3538 4330,3546 4324,3557 4323,3566 4317,3562 4297,3560 4282,3554 4271,3560 4255,3581 4248,3577 4245,3569 4233,3566 4226,3574 4205,3581 4186,3578 4180,3579 4179,3587 4174,3595 4163,3607 4146,3630 4148,3636 4129,3641 4121,3654 4130,3662 4130,3670 4138,3679 4148,3686 4155,3698 4149,3712 4146,3706 4139,3702 4130,3693 4111,3683 4099,3688 4092,3695 4099,3710 4100,3719 4106,3719 4112,3723 4121,3726 4126,3735 4135,3740 4148,3745 4154,3743 4158,3751 4158,3757 4163,3768 4162,3774 4156,3768 4150,3770 4138,3762 4127,3751 4115,3749 4108,3750 4110,3756 4107,3773 4101,3782 4106,3793 4118,3800 4124,3807 4115,3812 4107,3814 4104,3820 4093,3826 4077,3826 4057,3823 4055,3838 4055,3855 4051,3866 4062,3875 4076,3879 4071,3904 4062,3917 4053,3914 4051,3908 4043,3906 4036,3911 4028,3919 4020,3936 4007,3947 4007,3960 4001,3967 3993,3973 3992,3980 3977,3981 3965,3990 3963,4000 3970,4014 3972,4026 3981,4034 3999,4040 3999,4050 4003,4057 4020,4054 4031,4054 4046,4049 4062,4062 4060,4088 4062,4095 4067,4103 4068,4110 4074,4112 4086,4110 4096,4111 4103,4109 4114,4109 4125,4106 4147,4117 4153,4123 4157,4130 4156,4137 4160,4144 4153,4150 4149,4163 4134,4189 4114,4187 4107,4188 4097,4194 4078,4181 4069,4185 4059,4183 4049,4188 4037,4186 4030,4179 4023,4167 4010,4163 4007,4156 3999,4147 3993,4143 3992,4134 3972,4129 3957,4133 3936,4128 3930,4124 3924,4124 3902,4139 3892,4132 3882,4140 3867,4154 3865,4160 3855,4171 3846,4178 3846,4187 3843,4194 3834,4204 3826,4197 3810,4193 3804,4188 3789,4194 3781,4178 3758,4175 3743,4170 3731,4163 3733,4157 3727,4149 3711,4137 3727,4134 3734,4129 3731,4123 3723,4126 3708,4127 3702,4126 3694,4120 3683,4116 3668,4114 3655,4126 3656,4132 3651,4146 3641,4158 3626,4165 3613,4179 3597,4179 3583,4167 3574,4164 3533,4196 3525,4198 3516,4206 3499,4216 3487,4209 3482,4215 3467,4222 3452,4234 3450,4249 3453,4257 3446,4261 3440,4264 3431,4260 3423,4259 3416,4264 3392,4268 3381,4308 3383,4327 3372,4348 3366,4354 3355,4359 3339,4364 3333,4361 3326,4367 3323,4373 3310,4387 3303,4391 3297,4391 3295,4400 3297,4407 3290,4412 3284,4413 3273,4424 3252,4435 3244,4448 3247,4454 3244,4460 3233,4466 3226,4474 3211,4478 3205,4475 3203,4461 3212,4449 3211,4442 3204,4442 3198,4440 3197,4431 3186,4431 3180,4438 3172,4439 3163,4443 3154,4452 3146,4456 3138,4453 3134,4462 3124,4470 3121,4479 3112,4486 3082,4490 3079,4482 3082,4461 3088,4446 3090,4439 3089,4436 3089,4429 3087,4425 3084,4419 3079,4414 3077,4411 3081,4405 3084,4403 3090,4401 3096,4400 3102,4397 3103,4391 3106,4389 3108,4383 3113,4378 3112,4371 3113,4368 3116,4364 3123,4364 3137,4355 3139,4349 3144,4345 3148,4335 3154,4332 3163,4330 3170,4326 3176,4318 3179,4315 3180,4312 3183,4310 3193,4301 3197,4295 3195,4286 3195,4277 3194,4272 3196,4268 3196,4265 3205,4246 3208,4244 3210,4239 3211,4236 3222,4230 3228,4222 3235,4220 3238,4218 3241,4217 3244,4207 3252,4203 3254,4198 3256,4195 3262,4193 3259,4186 3258,4183 3255,4181 3250,4182 3247,4186 3241,4181 3235,4180 3231,4181 3227,4178 3219,4168 3222,4161 3220,4143 3218,4140 3216,4131 3216,4123 3217,4120 3219,4117 3218,4113 3214,4111 3213,4108 3210,4106 3211,4102 3210,4097 3204,4090 3201,4087 3197,4085 3189,4087 3184,4090 3174,4088 3169,4088 3166,4089 3162,4088 3157,4088 3157,4085 3154,4084 3153,4076 3153,4072 3150,4068 3148,4063 3145,4060 3145,4057 3143,4050 3140,4051 3137,4052 3131,4048 3132,4045 3128,4043 3124,4043 3115,4036 3111,4035 3111,4032 3114,4026 3117,4023 3119,4021 3124,4021 3125,4018 3128,4017 3131,4014 3131,4011 3126,4005 3126,4000 3127,3993 3122,3989 3119,3990 3116,3988 3115,3991 3103,3989 3099,3985 3096,3987 3092,3985 3093,3977 3090,3978 3089,3973 3087,3970 3082,3966 3077,3966 3070,3967 3065,3969 3064,3972 3060,3975 3056,3974 3053,3970 3052,3973 3052,3977 3049,3985 3048,3991 3045,3991 3040,3994 3036,3995 3031,3993 3029,3988 3026,3989 3023,3989 3007,3974 3000,3975 2997,3976 2995,3979 2994,3982 2992,3985 2989,3984 2987,3988 2983,3988 2980,3987 2977,3983 2976,3977 2974,3974 2972,3969 2967,3974 2961,3973 2952,3975 2948,3969 2945,3966 2939,3964 2934,3965 2930,3965 2930,3962 2928,3959 2923,3960 2920,3959 2917,3956 2918,3953 2924,3942 2924,3939 2926,3936 2925,3932 2921,3929 2920,3926 2922,3923 2923,3920 2922,3914 2919,3912 2914,3903 2915,3900 2914,3893 2910,3884 2900,3881 2889,3881 2876,3878 2870,3876 2865,3872 2858,3868 2851,3862 2850,3859 2847,3857 2835,3848 2831,3846 2826,3846 2818,3850 2810,3850 2807,3849 2804,3846 2801,3845 2794,3839 2791,3834 2786,3822 2783,3818 2779,3816 2769,3815 2763,3818 2760,3817 2757,3813 2754,3814 2750,3814 2750,3811 2747,3808 2743,3805 2741,3801 2738,3800 2735,3798 2730,3800 2727,3800 2723,3802 2716,3802 2713,3803 2710,3804 2701,3806 2695,3806 2692,3805 2688,3805 2679,3805 2669,3806 2662,3805 2655,3801 2648,3795 2642,3788 2641,3782 2638,3777 2635,3776 2626,3782 2617,3784 2614,3786 2610,3786 2606,3788 2604,3791 2599,3797 2595,3798 2595,3805 2592,3809 2591,3812 2581,3814 2572,3809 2568,3806 2564,3803 2563,3798 2565,3794 2579,3780 2579,3777 2573,3768 2567,3763 2555,3758 2550,3748 2547,3744 2545,3739 2542,3737 2535,3719 2532,3715 2526,3709 2517,3705 2511,3704 2496,3704 2489,3706 2468,3719 2458,3724 2454,3723 2450,3719 2444,3723 2435,3719 2432,3717 2433,3714 2431,3707 2426,3706 2424,3703 2425,3698 2428,3692 2428,3683 2424,3671 2422,3665 2423,3662 2429,3653 2438,3643 2442,3640 2445,3639 2448,3636 2465,3630 2472,3627 2483,3616 2492,3612 2503,3600 2508,3598 2512,3596 2514,3580 2520,3574 2524,3571 2535,3572 2541,3570 2544,3567 2546,3564 2546,3560 2545,3551 2543,3541 2545,3530 2544,3526 2541,3522 2531,3521 2516,3514 2513,3507 2514,3501 2515,3498 2520,3493 2523,3487 2521,3483 2520,3480 2518,3476 2515,3473 2514,3470 2510,3470 2505,3468 2514,3461 2542,3435 2568,3422 2594,3409 2629,3399 2655,3392 2683,3400 2686,3408 2686,3411 2677,3431 2679,3436 2685,3442 2688,3447 2691,3450 2696,3450 2699,3452 2705,3455 2710,3459 2720,3464 2728,3465 2745,3465 2747,3468 2752,3465 2755,3467 2756,3470 2761,3470 2771,3466 2774,3466 2779,3467 2785,3464 2786,3467 2791,3473 2794,3471 2796,3463 2796,3460 2796,3457 2794,3453 2791,3451 2785,3450 2779,3450 2774,3451 2766,3446 2763,3440 2759,3438 2753,3437 2744,3439 2747,3428 2749,3426 2748,3423 2747,3420 2745,3417 2748,3417 2747,3414 2750,3415 2754,3417 2754,3414 2757,3413 2758,3420 2764,3422 2766,3429 2774,3439 2777,3441 2780,3440 2783,3441 2791,3445 2795,3444 2793,3436 2795,3428 2800,3431 2807,3429 2816,3429 2820,3421 2823,3419 2827,3412 2825,3409 2821,3408 2817,3409 2811,3406 2803,3410 2800,3407 2790,3401 2786,3400 2787,3395 2793,3391 2796,3387 2800,3384 2808,3384 2819,3380 2820,3374 2820,3371 2818,3366 2819,3360 2820,3357 2828,3359 2831,3356 2828,3348 2829,3345 2834,3340 2837,3341 2841,3338 2848,3335 2851,3336 2855,3342 2858,3343 2862,3343 2872,3333 2875,3332 2878,3330 2881,3330 2887,3326 2887,3323 2890,3322 2893,3324 2896,3329 2896,3339 2898,3342 2901,3343 2905,3344 2920,3339 2928,3342 2931,3340 2939,3338 2941,3341 2942,3345 2947,3349 2948,3353 2949,3358 2954,3363 2957,3364 2960,3364 2966,3369 2969,3373 2970,3377 2976,3380 2978,3383 2984,3379 2990,3372 2989,3366 2988,3363 2988,3357 2995,3350 3010,3342 3013,3339 3017,3333 3023,3329 3027,3328 3031,3330 3035,3330 3041,3327 3049,3318 3051,3314 3059,3310 3061,3307 3063,3305 3067,3305 3069,3302 3076,3293 3079,3293 3083,3292 3089,3288 3101,3287 3105,3287 3108,3284 3109,3280 3112,3279 3115,3277 3118,3272 3127,3269 3131,3265 3133,3262 3139,3260 3145,3255 3151,3252 3154,3253 3157,3252 3159,3246 3159,3243 3162,3242 3165,3240 3166,3237 3169,3236 3170,3233 3170,3230 3172,3227 3180,3221 3184,3215 3191,3214 3194,3215 3204,3213 3208,3204 3214,3200 3215,3197 3221,3195 3235,3191 3243,3186 3245,3183 3248,3179 3254,3176 3255,3173 3261,3173 3264,3174 3267,3177 3270,3182 3277,3185 3283,3191 3297,3195 3299,3198 3304,3195 3307,3192 3317,3189 3321,3187 3330,3183 3351,3181 3362,3176 3366,3173 3369,3170 3376,3165 3378,3159 3384,3155 3388,3154 3390,3151 3385,3146 3381,3140 3381,3137 3381,3133 3384,3122 3381,3115 3379,3109 3375,3105 3375,3101 3372,3099 3368,3094 3366,3086 3363,3085 3361,3081 3359,3079 3356,3073 3355,3069 3358,3068 3371,3074 3374,3074 3377,3075 3380,3074 3383,3071 3387,3065 3387,3057 3385,3053 3382,3053 3372,3052 3365,3052 3359,3051 3356,3050 3355,3046 3358,3032 3355,3030 3351,3028 3355,3021 3355,3018 3355,3015 3353,3009 3359,3003 3360,3000 3357,2997 3355,2994 3358,2994 3363,2990 3360,2988 3365,2981 3366,2978 3368,2975 3369,2972 3367,2967 3362,2965 3355,2956 3352,2952 3346,2948 3344,2945 3352,2942 3351,2939 3350,2936 3354,2935 3360,2934 3360,2924 3365,2919 3360,2915 3360,2907 3368,2899 3371,2896 3370,2893 3369,2890 3369,2887 3385,2873 3402,2877 3415,2877 3424,2874 3430,2868 3450,2841 3472,2813 3498,2787 3526,2767 3555,2751 3578,2719 3592,2698 3557,2675 3538,2648 3574,2588 3590,2556 3618,2530 3649,2533 3677,2547 3693,2579 3690,2606 3694,2633 3722,2643 3752,2648 3782,2655 3814,2664 3852,2675 3878,2676 3883,2649 3904,2621 3934,2633 3967,2649 3999,2654 4026,2681 4050,2698 4077,2726 4083,2729 4117,2741 4152,2750 4188,2757 4194,2760 4211,2760 4218,2758 4223,2756 4234,2753 4253,2744 4266,2743 4278,2746 4285,2746 4288,2746 4289,2742 4292,2738 4296,2732 4302,2727 4309,2723 4316,2721 4322,2721 4329,2720 4335,2721 4339,2722 4346,2725 4354,2729 4356,2732 4360,2731 4367,2726 4373,2716 4379,2713 4385,2699 4385,2693 4389,2688 4396,2683 4401,2677 4406,2671 4410,2666 4410,2660 4412,2655 4412,2649 4410,2643 4408,2638 4404,2632 4401,2626 4398,2621 4396,2615 4395,2609 4395,2604 4395,2598 4399,2592 4404,2587 4410,2583 4416,2579 4423,2573 4427,2568 4428,2562 4428,2556 4428,2551 4428,2545 4427,2540 4427,2534 4428,2528 4430,2523 4430,2517 4430,2511 4427,2506 4421,2500 4414,2497 4408,2493 4401,2489 4395,2484 4389,2478 4385,2473 4383,2467 4380,2461 4378,2456 4374,2451 4378,2427 4383,2404 4386,2374 4387,2333 4389,2307 4386,2289 4382,2268 4368,2230 4367,2219 4371,2207 4387,2180 4389,2172 4388,2154 4389,2138 4392,2128 4403,2107 4405,2097 4403,2086 4383,2045 4375,2024 4371,2000 4373,1980 4382,1962 4399,1940 4412,1928 4419,1922 4427,1918 4444,1910 4462,1905 4469,1915 4477,1923 4485,1928 4494,1930 4503,1928 4511,1923 4526,1904 4546,1867 4553,1858 4561,1851 4570,1848 4580,1848 4594,1851 4607,1854 4614,1853 4618,1847 4625,1826 4634,1814 4646,1809 4673,1807 4717,1808 " class="polyStyle" id="340223" style="fill:#ee8b94"/>
<polygon points="3533,1664 3538,1665 3557,1665 3561,1666 3563,1669 3564,1672 3568,1673 3573,1673 3579,1670 3595,1661 3605,1661 3607,1664 3605,1671 3616,1681 3621,1689 3621,1692 3616,1693 3615,1701 3616,1708 3623,1721 3624,1727 3623,1735 3618,1738 3614,1743 3615,1748 3654,1748 3661,1735 3666,1731 3686,1740 3690,1739 3694,1733 3698,1731 3699,1734 3697,1749 3699,1753 3702,1758 3701,1767 3698,1786 3697,1795 3699,1797 3701,1803 3700,1816 3701,1819 3705,1830 3729,1859 3731,1866 3729,1868 3712,1878 3706,1885 3704,1890 3704,1898 3707,1902 3713,1912 3717,1924 3717,1933 3715,1937 3705,1946 3703,1953 3706,1957 3706,1961 3700,1964 3689,1966 3689,1969 3693,1973 3700,1979 3699,1985 3701,2011 3700,2014 3687,2016 3671,2017 3669,2021 3671,2026 3678,2039 3678,2048 3675,2061 3675,2068 3677,2073 3681,2077 3692,2084 3697,2091 3701,2098 3703,2109 3705,2123 3711,2133 3719,2138 3731,2138 3759,2131 3783,2123 3804,2112 3823,2099 3840,2083 3849,2079 3855,2080 3860,2083 3867,2097 3871,2108 3877,2118 3886,2128 3893,2131 3907,2131 3910,2130 3910,2123 3913,2120 3917,2120 3922,2126 3940,2149 3947,2157 3946,2162 3940,2168 3941,2177 3947,2204 3953,2206 3959,2202 3966,2198 3969,2196 3979,2194 3984,2188 3988,2184 3994,2182 4003,2182 4012,2183 4016,2182 4019,2179 4023,2177 4035,2178 4048,2181 4052,2184 4053,2188 4056,2200 4059,2204 4062,2205 4068,2202 4068,2198 4065,2195 4064,2191 4067,2188 4079,2189 4087,2192 4098,2190 4109,2186 4125,2186 4141,2185 4144,2182 4150,2178 4156,2172 4163,2167 4165,2161 4167,2156 4192,2161 4218,2158 4233,2161 4237,2164 4240,2171 4242,2173 4252,2170 4269,2168 4275,2169 4281,2174 4290,2186 4301,2184 4311,2181 4315,2183 4327,2185 4330,2183 4331,2176 4335,2175 4347,2176 4354,2172 4357,2172 4359,2163 4369,2162 4378,2159 4388,2154 4389,2172 4387,2180 4371,2207 4367,2219 4368,2230 4382,2268 4386,2289 4389,2307 4387,2333 4386,2374 4383,2404 4378,2427 4374,2451 4378,2456 4380,2461 4383,2467 4385,2473 4389,2478 4395,2484 4401,2489 4408,2493 4414,2497 4421,2500 4427,2506 4430,2511 4430,2517 4430,2523 4428,2528 4427,2534 4427,2540 4428,2545 4428,2551 4428,2556 4428,2562 4427,2568 4423,2573 4416,2579 4410,2583 4404,2587 4399,2592 4395,2598 4395,2604 4395,2609 4396,2615 4398,2621 4401,2626 4404,2632 4408,2638 4410,2643 4412,2649 4412,2655 4410,2660 4410,2666 4406,2671 4401,2677 4396,2683 4389,2688 4385,2693 4385,2699 4379,2713 4373,2716 4367,2726 4360,2731 4356,2732 4354,2729 4346,2725 4339,2722 4335,2721 4329,2720 4322,2721 4316,2721 4309,2723 4302,2727 4296,2732 4292,2738 4289,2742 4288,2746 4285,2746 4278,2746 4266,2743 4253,2744 4234,2753 4223,2756 4218,2758 4211,2760 4194,2760 4188,2757 4152,2750 4117,2741 4083,2729 4077,2726 4050,2698 4026,2681 3999,2654 3967,2649 3934,2633 3904,2621 3883,2649 3878,2676 3852,2675 3814,2664 3782,2655 3752,2648 3722,2643 3694,2633 3690,2606 3693,2579 3677,2547 3649,2533 3618,2530 3590,2556 3574,2588 3538,2648 3557,2675 3592,2698 3578,2719 3555,2751 3526,2767 3498,2787 3472,2813 3450,2841 3430,2868 3424,2874 3415,2877 3402,2877 3385,2873 3386,2870 3385,2866 3387,2857 3389,2853 3390,2845 3389,2842 3387,2839 3380,2839 3375,2839 3372,2844 3366,2848 3362,2853 3356,2854 3353,2856 3349,2854 3342,2847 3339,2841 3333,2841 3326,2839 3314,2841 3311,2843 3300,2839 3293,2839 3290,2839 3287,2839 3284,2837 3286,2834 3282,2831 3276,2836 3273,2845 3256,2849 3248,2853 3245,2851 3234,2851 3227,2846 3224,2844 3211,2847 3211,2850 3207,2856 3204,2856 3198,2856 3194,2854 3189,2857 3186,2856 3179,2852 3170,2851 3164,2850 3158,2851 3151,2846 3148,2846 3131,2835 3124,2832 3121,2831 3118,2829 3116,2822 3113,2822 3107,2822 3097,2819 3094,2819 3086,2817 3083,2815 3074,2811 3074,2808 3075,2801 3073,2797 3073,2794 3072,2790 3066,2784 3063,2777 3057,2774 3058,2769 3061,2767 3065,2751 3062,2749 3059,2748 3052,2748 3048,2746 3044,2742 3043,2739 3037,2738 3034,2736 3032,2733 3028,2729 3026,2726 3027,2715 3030,2709 3030,2704 3026,2700 3022,2701 3008,2698 3005,2676 2980,2644 2951,2632 2919,2624 2892,2614 2883,2608 2877,2601 2871,2599 2864,2599 2838,2599 2811,2599 2801,2599 2792,2597 2783,2594 2772,2594 2759,2586 2744,2572 2734,2567 2733,2561 2738,2550 2738,2547 2738,2535 2730,2531 2717,2527 2704,2527 2697,2526 2678,2526 2667,2525 2656,2517 2650,2509 2649,2503 2647,2492 2647,2484 2641,2475 2627,2446 2642,2414 2662,2389 2679,2361 2660,2335 2632,2305 2601,2302 2573,2332 2552,2306 2521,2289 2493,2284 2458,2265 2486,2250 2499,2241 2513,2233 2530,2220 2554,2199 2573,2176 2585,2152 2591,2127 2594,2099 2596,2049 2590,1932 2593,1904 2600,1875 2607,1861 2616,1851 2627,1841 2647,1830 2687,1815 2807,1779 2844,1763 2872,1748 2888,1735 2919,1698 2970,1662 2982,1672 2986,1673 2986,1677 2989,1680 2993,1683 2994,1687 2994,1691 2996,1694 3003,1697 3017,1700 3021,1703 3022,1706 3023,1718 3029,1726 3055,1740 3072,1745 3080,1749 3114,1772 3123,1780 3126,1785 3130,1794 3134,1797 3142,1799 3163,1804 3166,1808 3167,1813 3165,1829 3166,1832 3171,1835 3173,1842 3176,1859 3178,1865 3182,1864 3185,1860 3189,1858 3196,1859 3204,1854 3207,1850 3210,1850 3214,1849 3213,1842 3214,1838 3220,1836 3221,1833 3226,1832 3231,1830 3233,1826 3238,1824 3256,1825 3274,1820 3281,1818 3291,1818 3307,1816 3315,1814 3318,1822 3322,1825 3325,1828 3324,1835 3319,1840 3318,1838 3316,1833 3313,1837 3309,1839 3304,1838 3303,1841 3307,1850 3310,1853 3325,1861 3331,1866 3335,1866 3346,1866 3347,1868 3343,1874 3344,1876 3356,1871 3359,1871 3363,1874 3369,1873 3379,1872 3389,1875 3399,1878 3414,1877 3424,1876 3435,1879 3441,1881 3444,1878 3452,1867 3455,1864 3459,1863 3479,1854 3493,1845 3505,1828 3506,1815 3503,1798 3497,1780 3495,1765 3491,1757 3484,1752 3477,1751 3469,1753 3463,1755 3463,1749 3461,1744 3453,1742 3438,1739 3438,1737 3440,1734 3441,1719 3444,1713 3449,1709 3453,1709 3467,1712 3471,1713 3477,1710 3483,1707 3483,1703 3478,1689 3469,1678 3464,1673 3462,1668 3461,1663 3464,1660 3470,1660 3486,1666 3492,1668 3493,1664 3495,1659 3504,1658 3524,1657 3530,1659 " class="polyStyle" id="340222" style="fill:#fbe6ef"/>
<polygon points="5032,1150 5076,1159 5105,1163 5124,1162 5139,1159 5150,1159 5160,1160 5170,1164 5189,1174 5197,1173 5206,1169 5231,1157 5237,1156 5240,1159 5243,1167 5240,1181 5237,1198 5240,1202 5244,1204 5254,1203 5261,1193 5265,1184 5270,1181 5276,1180 5286,1184 5307,1199 5318,1203 5337,1206 5386,1212 5424,1219 5442,1221 5464,1221 5468,1224 5473,1232 5483,1236 5497,1237 5515,1233 5535,1228 5576,1215 5643,1211 5666,1220 5678,1218 5699,1204 5703,1197 5762,1206 5780,1203 5800,1199 5810,1191 5822,1170 5826,1166 5829,1162 5868,1161 5883,1163 5883,1169 5890,1212 5891,1222 5893,1242 5893,1265 5892,1314 5891,1331 5883,1348 5862,1371 5844,1392 5842,1404 5842,1420 5838,1436 5835,1447 5832,1455 5864,1473 5887,1488 5906,1499 5911,1507 5917,1529 5932,1557 5955,1582 5998,1617 6009,1630 6016,1647 6027,1660 6032,1672 6034,1690 6040,1700 6071,1739 6105,1778 6135,1799 6190,1821 6196,1827 6214,1860 6228,1886 6228,1893 6232,1907 6249,1916 6252,1926 6225,1944 6198,1945 6173,1958 6147,1975 6121,1986 6098,2006 6072,2030 6046,2055 6021,2077 6000,2103 6001,2129 6009,2155 6022,2182 6014,2208 5988,2225 5967,2252 5967,2279 5993,2299 5992,2325 5973,2351 5906,2370 5890,2389 5896,2418 5884,2445 5861,2470 5833,2489 5810,2512 5784,2537 5758,2558 5731,2580 5721,2573 5718,2561 5706,2555 5680,2552 5648,2535 5641,2521 5638,2475 5617,2456 5580,2448 5554,2467 5539,2493 5521,2519 5512,2545 5493,2570 5466,2580 5440,2590 5436,2615 5452,2641 5466,2667 5480,2693 5482,2698 5502,2726 5526,2743 5488,2775 5463,2818 5447,2845 5412,2841 5377,2830 5342,2825 5309,2838 5282,2860 5266,2886 5251,2912 5221,2921 5194,2916 5167,2918 5139,2932 5150,2964 5167,2989 5162,2988 5139,2990 5122,2989 5117,2987 5097,2983 5075,2983 5063,2981 5052,2965 5043,2945 5038,2924 5037,2906 5039,2861 5039,2849 5036,2838 5034,2830 5034,2820 5043,2795 5041,2785 5023,2755 5012,2729 5023,2721 5026,2719 5033,2716 5039,2714 5046,2713 5059,2711 5065,2711 5072,2709 5077,2709 5082,2705 5086,2699 5087,2676 5090,2662 5096,2653 5103,2646 5118,2631 5125,2620 5127,2607 5125,2577 5124,2542 5126,2535 5133,2525 5139,2515 5144,2502 5150,2463 5150,2441 5147,2435 5143,2433 5131,2429 5117,2422 5098,2410 5093,2398 5089,2370 5096,2348 5104,2336 5112,2328 5117,2322 5130,2320 5139,2317 5149,2305 5150,2286 5141,2266 5130,2249 5121,2239 5120,2224 5123,2214 5117,2214 5105,2202 5092,2202 5066,2206 5040,2213 5007,2224 4993,2234 4989,2240 4988,2246 4989,2257 4996,2273 5017,2308 5010,2318 5003,2321 4990,2321 4979,2316 4972,2312 4956,2295 4946,2278 4941,2261 4931,2244 4917,2242 4904,2245 4898,2248 4893,2251 4896,2257 4898,2263 4900,2268 4901,2274 4901,2280 4902,2285 4901,2291 4899,2296 4895,2302 4893,2308 4886,2314 4878,2320 4876,2326 4872,2327 4859,2327 4852,2325 4841,2315 4832,2298 4834,2281 4842,2267 4849,2261 4850,2257 4845,2243 4843,2237 4838,2232 4837,2226 4833,2220 4831,2215 4829,2209 4825,2203 4825,2198 4823,2192 4820,2186 4818,2181 4816,2175 4815,2170 4816,2164 4819,2158 4822,2153 4823,2147 4817,2144 4810,2145 4790,2148 4784,2148 4777,2148 4771,2147 4764,2144 4758,2140 4751,2136 4746,2131 4742,2125 4743,2119 4743,2114 4745,2108 4747,2103 4749,2097 4750,2091 4754,2086 4757,2080 4759,2074 4763,2069 4766,2063 4771,2058 4777,2052 4781,2046 4791,2035 4796,2031 4802,2026 4808,2023 4815,2021 4820,2018 4833,2013 4837,2007 4841,2002 4845,1996 4849,1990 4851,1985 4851,1979 4847,1973 4840,1968 4834,1965 4831,1964 4826,1964 4821,1964 4817,1962 4812,1952 4829,1954 4838,1951 4845,1944 4854,1938 4860,1935 4863,1936 4877,1946 4884,1945 4889,1941 4887,1938 4886,1932 4865,1895 4862,1886 4861,1875 4864,1860 4867,1852 4867,1841 4860,1818 4857,1802 4858,1781 4863,1770 4869,1764 4882,1761 4902,1763 4938,1763 5004,1759 5032,1755 5039,1752 5044,1744 5046,1739 5046,1736 5045,1727 5045,1721 5053,1707 5053,1694 5053,1664 5057,1647 5059,1640 5062,1636 5083,1592 5085,1586 5084,1577 5083,1570 5079,1565 5077,1558 5077,1545 5079,1533 5083,1521 5081,1512 5072,1504 5057,1497 5037,1493 5024,1489 5014,1484 5007,1478 5004,1471 5000,1458 4998,1448 4994,1439 4978,1418 4974,1406 4975,1395 4978,1387 4989,1372 5020,1340 5028,1330 5032,1318 5034,1312 5034,1303 5032,1293 5024,1283 4997,1258 4991,1250 4989,1245 4989,1238 4995,1230 4998,1225 4998,1218 4997,1210 4994,1204 4989,1200 4980,1194 4979,1188 4980,1184 4991,1159 4993,1151 4996,1142 5001,1141 5008,1143 " class="polyStyle" id="340221" style="fill:#f6f67b"/>
<polygon points="2169,193 2197,188 2223,207 2245,236 2282,251 2314,249 2345,232 2380,211 2414,198 2405,219 2382,257 2381,272 2384,290 2410,296 2441,301 2468,312 2501,323 2513,336 2501,351 2473,355 2429,370 2435,397 2456,429 2467,438 2466,455 2457,481 2469,509 2500,526 2516,519 2527,505 2539,492 2560,497 2588,502 2621,512 2663,523 2698,531 2737,542 2771,547 2842,564 2877,572 2913,580 2966,592 3038,609 3138,630 3160,635 3149,663 3144,675 3140,692 3141,710 3147,722 3161,735 3145,771 3151,775 3156,783 3155,795 3153,820 3192,819 3202,821 3205,828 3201,839 3201,857 3201,875 3206,880 3210,884 3208,889 3199,897 3194,905 3192,915 3194,930 3197,940 3205,947 3218,952 3225,953 3239,950 3247,956 3245,964 3254,967 3262,974 3263,978 3256,982 3258,989 3258,994 3255,1008 3243,1018 3232,1024 3206,1024 3200,1041 3199,1065 3194,1095 3186,1114 3192,1118 3201,1121 3209,1122 3212,1123 3215,1124 3220,1123 3224,1123 3228,1122 3232,1121 3237,1122 3241,1122 3245,1122 3249,1122 3253,1121 3260,1121 3270,1121 3276,1121 3282,1120 3285,1119 3288,1117 3290,1112 3293,1106 3299,1104 3308,1103 3318,1103 3330,1103 3345,1099 3348,1098 3351,1097 3352,1091 3358,1088 3368,1085 3396,1075 3400,1078 3403,1078 3406,1078 3411,1082 3419,1087 3422,1095 3440,1093 3442,1088 3447,1086 3455,1085 3461,1084 3468,1084 3475,1084 3481,1085 3488,1088 3494,1091 3501,1094 3505,1096 3517,1103 3519,1107 3526,1110 3532,1116 3536,1121 3543,1127 3549,1133 3553,1138 3556,1144 3558,1150 3564,1161 3565,1167 3566,1172 3566,1183 3566,1195 3565,1200 3565,1206 3563,1212 3562,1217 3559,1223 3559,1229 3562,1239 3556,1242 3533,1257 3497,1287 3369,1411 3292,1481 3252,1515 3223,1537 3172,1571 3123,1593 3023,1632 2970,1662 2919,1698 2888,1735 2872,1748 2844,1763 2807,1779 2687,1815 2647,1830 2627,1841 2616,1851 2607,1861 2600,1875 2593,1904 2590,1932 2596,2049 2594,2099 2591,2127 2585,2152 2573,2176 2554,2199 2530,2220 2513,2233 2499,2241 2486,2250 2458,2265 2449,2270 2432,2279 2403,2297 2374,2311 2343,2327 2316,2338 2290,2345 2262,2351 2233,2353 2198,2353 2169,2348 2131,2331 2096,2309 2064,2289 2027,2254 2002,2223 1972,2189 1952,2158 1934,2123 1916,2089 1890,2064 1855,2045 1820,2043 1783,2045 1756,2047 1721,2053 1693,2056 1661,2058 1627,2063 1596,2072 1564,2084 1536,2101 1505,2118 1478,2138 1450,2162 1427,2191 1412,2227 1402,2268 1393,2304 1385,2340 1370,2368 1349,2397 1336,2423 1302,2498 1280,2559 1275,2594 1274,2629 1279,2705 1281,2773 1280,2799 1279,2829 1272,2829 1243,2832 1214,2836 1170,2838 1166,2784 1170,2721 1170,2693 1191,2643 1193,2639 1192,2635 1189,2632 1185,2631 1183,2622 1183,2592 1182,2587 1178,2588 1167,2591 1160,2595 1143,2612 1136,2621 1132,2622 1117,2622 1104,2620 1100,2622 1099,2626 1097,2629 1087,2631 1086,2636 1094,2654 1102,2668 1115,2668 1122,2666 1127,2662 1136,2654 1147,2649 1151,2649 1151,2658 1140,2685 1137,2693 1139,2699 1142,2702 1143,2711 1139,2715 1129,2719 1119,2750 1112,2773 1110,2782 1116,2791 1114,2799 1109,2803 1105,2810 1104,2817 1107,2821 1108,2834 1101,2845 1100,2852 1017,2853 1011,2864 1007,2876 1003,2876 986,2891 979,2895 966,2897 953,2900 950,2901 948,2904 951,2912 952,2915 949,2916 935,2915 928,2915 916,2935 913,2943 912,2947 904,2950 889,2955 888,2958 891,2962 901,2968 904,2970 900,2975 890,2987 883,2980 880,2977 869,2965 866,2961 853,2946 844,2935 845,2931 846,2927 847,2925 846,2921 844,2916 842,2913 843,2910 841,2909 838,2907 838,2905 839,2900 837,2898 834,2895 835,2891 829,2891 826,2890 822,2889 819,2889 814,2893 813,2890 806,2887 802,2884 801,2882 801,2877 799,2873 794,2871 790,2868 789,2866 788,2864 787,2859 783,2860 779,2858 775,2855 773,2853 770,2852 766,2849 762,2848 759,2846 757,2844 755,2842 752,2840 748,2837 745,2836 742,2835 738,2833 733,2830 729,2829 725,2828 722,2827 719,2826 714,2824 713,2823 710,2822 709,2820 706,2813 705,2809 702,2812 700,2815 699,2818 697,2821 693,2819 689,2819 686,2819 683,2821 680,2821 676,2819 674,2817 672,2819 665,2822 659,2823 656,2822 654,2821 650,2819 648,2818 647,2815 643,2814 639,2813 636,2811 633,2810 629,2808 625,2805 622,2801 618,2798 614,2798 611,2797 608,2797 603,2796 601,2795 596,2794 591,2795 589,2797 586,2798 584,2798 580,2798 576,2798 573,2798 568,2797 565,2796 561,2794 559,2794 555,2795 552,2795 548,2795 545,2794 544,2793 541,2794 538,2795 535,2797 533,2801 530,2803 526,2805 523,2805 520,2808 518,2812 516,2816 510,2821 507,2825 503,2829 499,2831 498,2835 495,2838 493,2840 490,2841 488,2841 485,2841 480,2841 477,2843 474,2843 472,2844 469,2845 466,2845 463,2844 459,2844 454,2845 450,2843 446,2844 444,2845 441,2846 438,2845 435,2845 433,2843 429,2843 424,2842 420,2841 418,2839 416,2835 415,2832 412,2829 410,2825 409,2822 406,2819 403,2817 399,2816 397,2816 393,2814 389,2814 386,2813 383,2812 378,2812 374,2811 371,2810 366,2810 360,2809 358,2809 354,2811 353,2814 352,2817 350,2821 351,2825 350,2828 348,2832 346,2834 344,2836 341,2839 338,2844 338,2847 331,2851 327,2853 321,2853 316,2853 313,2855 309,2855 306,2854 302,2852 299,2853 295,2853 294,2851 292,2847 289,2846 286,2846 283,2846 279,2846 276,2844 272,2843 269,2841 266,2839 261,2837 258,2835 255,2833 251,2832 249,2831 247,2830 246,2826 245,2823 245,2820 245,2818 243,2815 243,2812 247,2810 251,2808 253,2807 254,2805 252,2801 251,2798 254,2794 255,2791 254,2788 253,2784 251,2781 251,2778 254,2774 258,2772 262,2770 264,2769 267,2768 269,2765 269,2761 270,2759 272,2756 272,2753 272,2750 273,2748 276,2742 278,2737 280,2733 282,2731 280,2727 278,2726 275,2725 272,2724 268,2724 265,2725 261,2724 257,2725 255,2725 252,2724 249,2724 244,2724 241,2724 234,2723 231,2723 227,2723 223,2722 221,2722 220,2719 218,2717 215,2715 212,2714 209,2712 206,2710 202,2710 198,2709 195,2708 193,2707 191,2705 183,2700 177,2699 153,2687 146,2683 139,2678 127,2674 120,2674 113,2648 105,2619 83,2593 71,2563 51,2535 20,2519 0,2490 34,2464 67,2454 95,2451 128,2452 154,2451 181,2433 193,2402 205,2377 226,2350 233,2324 230,2286 234,2259 243,2230 228,2201 198,2179 178,2154 207,2148 236,2123 235,2096 227,2070 250,2042 235,2011 227,1983 255,1973 286,1973 318,1974 351,1968 378,1946 389,1914 385,1879 380,1847 374,1824 362,1820 354,1843 347,1832 337,1824 325,1853 284,1850 286,1825 273,1810 272,1792 298,1788 286,1779 259,1773 258,1760 256,1728 251,1699 246,1674 280,1648 302,1637 335,1626 369,1599 387,1564 393,1539 403,1495 432,1465 445,1436 450,1406 451,1373 447,1340 480,1328 530,1314 569,1308 595,1305 636,1297 660,1271 659,1234 678,1202 715,1193 740,1201 767,1196 777,1159 785,1118 783,1083 794,1050 821,1047 850,1027 862,995 867,962 865,934 863,900 879,873 898,839 910,812 927,781 950,752 965,725 989,695 1021,676 1044,644 1049,615 1055,581 1065,549 1081,518 1088,478 1094,451 1101,421 1108,387 1135,364 1172,349 1200,338 1242,334 1261,362 1294,375 1337,368 1355,342 1389,336 1435,322 1447,323 1447,328 1442,333 1441,340 1442,345 1448,347 1458,343 1469,340 1471,330 1466,323 1459,319 1456,314 1456,309 1458,304 1467,298 1498,276 1535,268 1568,280 1604,281 1629,291 1656,298 1687,298 1715,266 1746,252 1775,265 1806,291 1832,283 1863,261 1896,248 1924,240 1953,237 1979,225 2009,208 2037,191 2079,182 2105,167 2142,183 " class="polyStyle" id="340225" style="fill:#ee8b94"/>
<path d="" class="polyStyle" id="420526" style="fill:#fbe6ef"/>
<path d="" class="polyStyle" id="511923" style="fill:#fbe6ef"/>
<path d="" class="polyStyle" id="420325" style="fill:#fbe6ef"/>
<path d="" class="polyStyle" id="511921" style="fill:#f6f67b"/>
<path d="" class="polyStyle" id="542525" style="fill:#f6f67b"/>
<path d="" class="polyStyle" id="611026" style="fill:#ee8b94"/>
<path d="" class="polyStyle" id="411023" style="fill:#fbe6ef"/>
<path d="" class="polyStyle" id="632323" style="fill:#f6f67b"/>
<path d="" class="polyStyle" id="140525" style="fill:#d4ecb2"/>
<path d="" class="polyStyle" id="410922" style="fill:#ee8b94"/>
<path d="" class="polyStyle" id="621027" style="fill:#ee8b94"/>
<path d="" class="polyStyle" id="130427" style="fill:#f6f67b"/>
<path d="" class="polyStyle" id="130121" style="fill:#ee8b94"/>
<path d="" class="polyStyle" id="610823" style="fill:#fbe6ef"/>
<path d="" class="polyStyle" id="130225" style="fill:#fbe6ef"/>
<path d="" class="polyStyle" id="130322" style="fill:#d4ecb2"/>
<path d="" class="polyStyle" id="653130" style="fill:#f6f67b"/>
<path d="" class="polyStyle" id="130822" style="fill:#fbe6ef"/>
<path d="" class="polyStyle" id="211221" style="fill:#f6f67b"/>
<path d="" class="polyStyle" id="210921" style="fill:#f6f67b"/>
<path d="" class="polyStyle" id="150223" style="fill:#f8c67d"/>
<path d="" class="polyStyle" id="220422" style="fill:#d4ecb2"/>
<path d="" class="polyStyle" id="340721" style="fill:#f6f67b"/>
<path d="" class="polyStyle" id="510824" style="fill:#d4ecb2"/>
<path d="" class="polyStyle" id="610324" style="fill:#f6f67b"/>
<path d="" class="polyStyle" id="530722" style="fill:#ee8b94"/>
<path d="" class="polyStyle" id="340823" style="fill:#d4ecb2"/>
<path d="" class="polyStyle" id="620825" style="fill:#d4ecb2"/>
<path d="" class="polyStyle" id="421125" style="fill:#ee8b94"/>
<path d="" class="polyStyle" id="210281" style="fill:#ee8b94"/>
<path d="" class="polyStyle" id="440883" style="fill:#f6f67b"/>
<path d="" class="polyStyle" id="469006" style="fill:#d4ecb2"/>
<path d="" class="polyStyle" id="469002" style="fill:#ee8b94"/>
<path d="" class="polyStyle" id="469005" style="fill:#fbe6ef"/>
<path d="" class="polyStyle" id="440882" style="fill:#ee8b94"/>
<path d="" class="polyStyle" id="450681" style="fill:#ee8b94"/>
<path d="" class="polyStyle" id="441581" style="fill:#d4ecb2"/>
<path d="" class="polyStyle" id="421087" style="fill:#ee8b94"/>
<path d="" class="polyStyle" id="420984" style="fill:#fbe6ef"/>
<path d="" class="polyStyle" id="420582" style="fill:#ee8b94"/>
<path d="" class="polyStyle" id="370282" style="fill:#f6f67b"/>
<path d="" class="polyStyle" id="371083" style="fill:#f6f67b"/>
<path d="" class="polyStyle" id="371082" style="fill:#fbe6ef"/>
<path d="" class="polyStyle" id="652801" style="fill:#f8c67d"/>
<path d="" class="polyStyle" id="654301" style="fill:#ee8b94"/>
<path d="" class="polyStyle" id="370687" style="fill:#ee8b94"/>
<path d="" class="polyStyle" id="371482" style="fill:#d4ecb2"/>
<path d="" class="polyStyle" id="421081" style="fill:#fbe6ef"/>
<path d="" class="polyStyle" id="429006" style="fill:#f6f67b"/>
<path d="" class="polyStyle" id="440982" style="fill:#d4ecb2"/>
<path d="" class="polyStyle" id="421181" style="fill:#d4ecb2"/>
<path d="" class="polyStyle" id="321181" style="fill:#d4ecb2"/>
<path d="" class="polyStyle" id="659007" style="fill:#ee8b94"/>
<path d="" class="polyStyle" id="652701" style="fill:#fbe6ef"/>
<path d="" class="polyStyle" id="210781" style="fill:#fbe6ef"/>
<path d="" class="polyStyle" id="460204" style="fill:#f6f67b"/>
<path d="" class="polyStyle" id="210211" style="fill:#f6f67b"/>
<path d="" class="polyStyle" id="450512" style="fill:#ee8b94"/>
<path d="" class="polyStyle" id="450602" style="fill:#fbe6ef"/>
<path d="" class="polyStyle" id="440404" style="fill:#ee8b94"/>
<path d="" class="polyStyle" id="440403" style="fill:#f6f67b"/>
<path d="" class="polyStyle" id="441502" style="fill:#f6f67b"/>
<path d="" class="polyStyle" id="431002" style="fill:#d4ecb2"/>
<path d="" class="polyStyle" id="500107" style="fill:#fbe6ef"/>
<path d="" class="polyStyle" id="430611" style="fill:#d4ecb2"/>
<path d="" class="polyStyle" id="511304" style="fill:#fbe6ef"/>
<path d="" class="polyStyle" id="340711" style="fill:#ee8b94"/>
<polygon points="3812,1226 3856,1230 3915,1230 4095,1223 4140,1227 4193,1229 4213,1227 4251,1315 4262,1338 4270,1347 4289,1360 4296,1363 4302,1368 4309,1372 4315,1377 4322,1381 4328,1386 4335,1392 4338,1397 4336,1402 4340,1409 4339,1414 4336,1420 4333,1425 4328,1431 4323,1435 4316,1440 4310,1443 4303,1447 4296,1447 4290,1447 4283,1447 4277,1445 4270,1444 4264,1443 4257,1442 4250,1442 4244,1441 4237,1442 4231,1442 4224,1443 4218,1444 4211,1445 4207,1447 4194,1449 4191,1451 4178,1455 4172,1456 4158,1463 4152,1466 4147,1468 4140,1471 4133,1474 4127,1478 4122,1483 4118,1489 4116,1494 4115,1500 4115,1505 4113,1511 4113,1528 4113,1534 4115,1539 4115,1545 4116,1551 4116,1556 4118,1562 4125,1568 4131,1570 4138,1572 4145,1572 4151,1571 4158,1565 4163,1560 4170,1554 4175,1551 4183,1551 4196,1553 4202,1556 4209,1559 4217,1567 4228,1579 4238,1593 4245,1607 4248,1620 4253,1647 4252,1658 4251,1664 4247,1670 4234,1685 4192,1720 4132,1756 4107,1768 4080,1776 4038,1785 4033,1789 4031,1793 4030,1802 4037,1811 4050,1820 4103,1843 4119,1857 4132,1874 4140,1882 4152,1889 4164,1892 4173,1891 4178,1887 4182,1881 4188,1860 4192,1848 4198,1839 4207,1827 4215,1820 4241,1796 4274,1779 4299,1769 4326,1762 4351,1763 4372,1770 4384,1775 4399,1774 4427,1766 4435,1768 4439,1771 4444,1774 4449,1780 4456,1793 4461,1812 4465,1840 4472,1867 4472,1887 4468,1896 4462,1905 4444,1910 4427,1918 4419,1922 4412,1928 4399,1940 4382,1962 4373,1980 4371,2000 4375,2024 4383,2045 4403,2086 4405,2097 4403,2107 4392,2128 4389,2138 4388,2154 4378,2159 4369,2162 4359,2163 4357,2172 4354,2172 4347,2176 4335,2175 4331,2176 4330,2183 4327,2185 4315,2183 4311,2181 4301,2184 4290,2186 4281,2174 4275,2169 4269,2168 4252,2170 4242,2173 4240,2171 4237,2164 4233,2161 4218,2158 4192,2161 4167,2156 4165,2161 4163,2167 4156,2172 4150,2178 4144,2182 4141,2185 4125,2186 4109,2186 4098,2190 4087,2192 4079,2189 4067,2188 4064,2191 4065,2195 4068,2198 4068,2202 4062,2205 4059,2204 4056,2200 4053,2188 4052,2184 4048,2181 4035,2178 4023,2177 4019,2179 4016,2182 4012,2183 4003,2182 3994,2182 3988,2184 3984,2188 3979,2194 3969,2196 3966,2198 3959,2202 3953,2206 3947,2204 3941,2177 3940,2168 3946,2162 3947,2157 3940,2149 3922,2126 3917,2120 3913,2120 3910,2123 3910,2130 3907,2131 3893,2131 3886,2128 3877,2118 3871,2108 3867,2097 3860,2083 3855,2080 3849,2079 3840,2083 3823,2099 3804,2112 3783,2123 3759,2131 3731,2138 3719,2138 3711,2133 3705,2123 3703,2109 3701,2098 3697,2091 3692,2084 3681,2077 3677,2073 3675,2068 3675,2061 3678,2048 3678,2039 3671,2026 3669,2021 3671,2017 3687,2016 3700,2014 3701,2011 3699,1985 3700,1979 3693,1973 3689,1969 3689,1966 3700,1964 3706,1961 3706,1957 3703,1953 3705,1946 3715,1937 3717,1933 3717,1924 3713,1912 3707,1902 3704,1898 3704,1890 3706,1885 3712,1878 3729,1868 3731,1866 3729,1859 3705,1830 3701,1819 3700,1816 3701,1803 3699,1797 3697,1795 3698,1786 3701,1767 3702,1758 3699,1753 3697,1749 3699,1734 3698,1731 3694,1733 3690,1739 3686,1740 3666,1731 3661,1735 3654,1748 3615,1748 3614,1743 3618,1738 3623,1735 3624,1727 3623,1721 3616,1708 3615,1701 3616,1693 3621,1692 3621,1689 3616,1681 3605,1671 3607,1664 3605,1661 3595,1661 3579,1670 3573,1673 3568,1673 3564,1672 3563,1669 3561,1666 3557,1665 3538,1665 3533,1664 3530,1659 3524,1657 3504,1658 3495,1659 3493,1664 3492,1668 3486,1666 3470,1660 3464,1660 3461,1663 3462,1668 3464,1673 3469,1678 3478,1689 3483,1703 3483,1707 3477,1710 3471,1713 3467,1712 3453,1709 3449,1709 3444,1713 3441,1719 3440,1734 3438,1737 3438,1739 3453,1742 3461,1744 3463,1749 3463,1755 3469,1753 3477,1751 3484,1752 3491,1757 3495,1765 3497,1780 3503,1798 3506,1815 3505,1828 3493,1845 3479,1854 3459,1863 3455,1864 3452,1867 3444,1878 3441,1881 3435,1879 3424,1876 3414,1877 3399,1878 3389,1875 3379,1872 3369,1873 3363,1874 3359,1871 3356,1871 3344,1876 3343,1874 3347,1868 3346,1866 3335,1866 3331,1866 3325,1861 3310,1853 3307,1850 3303,1841 3304,1838 3309,1839 3313,1837 3316,1833 3318,1838 3319,1840 3324,1835 3325,1828 3322,1825 3318,1822 3315,1814 3307,1816 3291,1818 3281,1818 3274,1820 3256,1825 3238,1824 3233,1826 3231,1830 3226,1832 3221,1833 3220,1836 3214,1838 3213,1842 3214,1849 3210,1850 3207,1850 3204,1854 3196,1859 3189,1858 3185,1860 3182,1864 3178,1865 3176,1859 3173,1842 3171,1835 3166,1832 3165,1829 3167,1813 3166,1808 3163,1804 3142,1799 3134,1797 3130,1794 3126,1785 3123,1780 3114,1772 3080,1749 3072,1745 3055,1740 3029,1726 3023,1718 3022,1706 3021,1703 3017,1700 3003,1697 2996,1694 2994,1691 2994,1687 2993,1683 2989,1680 2986,1677 2986,1673 2982,1672 2970,1662 3023,1632 3123,1593 3172,1571 3223,1537 3252,1515 3292,1481 3369,1411 3497,1287 3533,1257 3556,1242 3562,1239 3570,1235 3579,1231 3603,1221 3626,1215 3649,1210 3674,1208 3698,1207 3731,1209 " class="polyStyle" id="340208" style="fill:#f6f67b"/>
<polygon points="4762,1054 4770,1056 4780,1057 4787,1061 4793,1063 4800,1064 4813,1069 4820,1071 4826,1072 4833,1074 4839,1080 4843,1086 4843,1091 4842,1097 4842,1103 4842,1108 4844,1110 4846,1114 4853,1116 4860,1119 4866,1120 4873,1121 4880,1122 4886,1122 4893,1123 4899,1124 4906,1127 4912,1127 4919,1128 4926,1129 4932,1129 4939,1130 4945,1130 4952,1129 4958,1128 4965,1127 4972,1126 4978,1125 4984,1120 4991,1115 4994,1118 4996,1121 4997,1133 4996,1142 4993,1151 4991,1159 4980,1184 4979,1188 4980,1194 4989,1200 4994,1204 4997,1210 4998,1218 4998,1225 4995,1230 4989,1238 4989,1245 4991,1250 4997,1258 5024,1283 5032,1293 5034,1303 5034,1312 5032,1318 5028,1330 5020,1340 4989,1372 4978,1387 4975,1395 4974,1406 4978,1418 4994,1439 4998,1448 5000,1458 5004,1471 5007,1478 5014,1484 5024,1489 5037,1493 5057,1497 5072,1504 5081,1512 5083,1521 5079,1533 5077,1545 5077,1558 5079,1565 5083,1570 5084,1577 5085,1586 5083,1592 5062,1636 5059,1640 5057,1647 5053,1664 5053,1694 5053,1707 5045,1721 5045,1727 5046,1736 5046,1739 5044,1744 5039,1752 5032,1755 5004,1759 4938,1763 4902,1763 4882,1761 4869,1764 4863,1770 4858,1781 4857,1802 4860,1818 4867,1841 4867,1852 4864,1860 4861,1875 4862,1886 4865,1895 4886,1932 4887,1938 4889,1941 4884,1945 4877,1946 4863,1936 4860,1935 4854,1938 4845,1944 4838,1951 4829,1954 4812,1952 4811,1950 4807,1945 4802,1942 4788,1937 4716,1928 4707,1926 4700,1922 4695,1917 4694,1911 4694,1905 4697,1897 4711,1877 4753,1841 4759,1834 4763,1824 4762,1817 4758,1813 4749,1810 4717,1808 4673,1807 4646,1809 4643,1801 4636,1783 4633,1766 4632,1756 4633,1727 4634,1714 4639,1706 4646,1702 4657,1704 4697,1706 4714,1703 4727,1697 4757,1679 4793,1658 4803,1649 4809,1637 4814,1623 4817,1604 4822,1497 4820,1486 4810,1458 4808,1447 4807,1433 4810,1418 4818,1401 4836,1372 4849,1344 4854,1330 4858,1312 4857,1298 4856,1291 4851,1278 4839,1256 4828,1243 4768,1177 4763,1172 4757,1165 4751,1157 4746,1149 4744,1140 4741,1135 4740,1130 4739,1127 4739,1123 4740,1117 4742,1110 4742,1102 4741,1094 4739,1086 4740,1078 4742,1068 4743,1063 4743,1059 4742,1051 4749,1051 4755,1054 " class="polyStyle" id="340202" style="fill:#d4ecb2"/>
<polygon points="4742,1051 4743,1059 4743,1063 4742,1068 4740,1078 4739,1086 4741,1094 4742,1102 4742,1110 4740,1117 4739,1123 4739,1127 4740,1130 4741,1135 4744,1140 4746,1149 4751,1157 4757,1165 4763,1172 4768,1177 4828,1243 4839,1256 4851,1278 4856,1291 4857,1298 4858,1312 4854,1330 4849,1344 4836,1372 4818,1401 4810,1418 4807,1433 4808,1447 4810,1458 4820,1486 4822,1497 4817,1604 4814,1623 4809,1637 4803,1649 4793,1658 4757,1679 4727,1697 4714,1703 4697,1706 4657,1704 4646,1702 4639,1706 4634,1714 4633,1727 4632,1756 4633,1766 4636,1783 4643,1801 4646,1809 4634,1814 4625,1826 4618,1847 4614,1853 4607,1854 4594,1851 4580,1848 4570,1848 4561,1851 4553,1858 4546,1867 4526,1904 4511,1923 4503,1928 4494,1930 4485,1928 4477,1923 4469,1915 4462,1905 4468,1896 4472,1887 4472,1867 4465,1840 4461,1812 4456,1793 4449,1780 4444,1774 4439,1771 4435,1768 4427,1766 4399,1774 4384,1775 4372,1770 4351,1763 4326,1762 4299,1769 4274,1779 4241,1796 4215,1820 4207,1827 4198,1839 4192,1848 4188,1860 4182,1881 4178,1887 4173,1891 4164,1892 4152,1889 4140,1882 4132,1874 4119,1857 4103,1843 4050,1820 4037,1811 4030,1802 4031,1793 4033,1789 4038,1785 4080,1776 4107,1768 4132,1756 4192,1720 4234,1685 4247,1670 4251,1664 4252,1658 4253,1647 4248,1620 4245,1607 4238,1593 4228,1579 4217,1567 4209,1559 4202,1556 4196,1553 4183,1551 4175,1551 4170,1554 4163,1560 4158,1565 4151,1571 4145,1572 4138,1572 4131,1570 4125,1568 4118,1562 4116,1556 4116,1551 4115,1545 4115,1539 4113,1534 4113,1528 4113,1511 4115,1505 4115,1500 4116,1494 4118,1489 4122,1483 4127,1478 4133,1474 4140,1471 4147,1468 4152,1466 4158,1463 4172,1456 4178,1455 4191,1451 4194,1449 4207,1447 4211,1445 4218,1444 4224,1443 4231,1442 4237,1442 4244,1441 4250,1442 4257,1442 4264,1443 4270,1444 4277,1445 4283,1447 4290,1447 4296,1447 4303,1447 4310,1443 4316,1440 4323,1435 4328,1431 4333,1425 4336,1420 4339,1414 4340,1409 4336,1402 4338,1397 4335,1392 4328,1386 4322,1381 4315,1377 4309,1372 4302,1368 4296,1363 4289,1360 4270,1347 4262,1338 4251,1315 4213,1227 4269,1224 4286,1220 4302,1214 4317,1206 4333,1194 4341,1188 4347,1181 4357,1166 4364,1148 4367,1126 4366,1103 4361,1074 4360,1070 4401,1066 4405,1066 4409,1066 4416,1066 4423,1066 4441,1075 4447,1079 4454,1082 4461,1086 4467,1088 4474,1090 4481,1094 4499,1103 4504,1105 4510,1108 4517,1111 4523,1113 4530,1115 4541,1118 4544,1118 4551,1115 4558,1114 4564,1111 4577,1107 4584,1102 4591,1100 4597,1095 4604,1092 4610,1089 4617,1087 4624,1085 4630,1084 4637,1084 4643,1083 4650,1082 4656,1080 4663,1078 4670,1072 4676,1067 4682,1062 4688,1057 4695,1052 4701,1050 4708,1049 4715,1048 4721,1048 4728,1048 4734,1049 " class="polyStyle" id="340203" style="fill:#f8c67d"/>
<polygon points="4378,748 4402,748 4412,744 4416,744 4447,749 4462,755 4473,755 4489,762 4491,767 4488,774 4489,778 4491,783 4489,793 4491,798 4497,801 4502,802 4504,805 4506,809 4509,811 4516,812 4528,810 4529,814 4524,835 4524,839 4543,843 4547,846 4547,850 4537,879 4543,880 4544,884 4543,895 4544,899 4547,908 4550,911 4562,917 4568,917 4573,913 4582,911 4588,917 4594,920 4616,926 4625,926 4632,922 4643,915 4651,914 4657,917 4656,923 4654,935 4655,939 4653,942 4634,952 4627,957 4624,963 4624,971 4622,973 4615,973 4611,975 4608,978 4607,982 4609,998 4607,1006 4602,1015 4606,1023 4616,1034 4620,1036 4623,1035 4640,1029 4661,1025 4675,1024 4678,1021 4683,1016 4690,1013 4697,1011 4704,1012 4708,1016 4715,1048 4708,1049 4701,1050 4695,1052 4688,1057 4682,1062 4676,1067 4670,1072 4663,1078 4656,1080 4650,1082 4643,1083 4637,1084 4630,1084 4624,1085 4617,1087 4610,1089 4604,1092 4597,1095 4591,1100 4584,1102 4577,1107 4564,1111 4558,1114 4551,1115 4544,1118 4541,1118 4530,1115 4523,1113 4517,1111 4510,1108 4504,1105 4499,1103 4481,1094 4474,1090 4467,1088 4461,1086 4454,1082 4447,1079 4441,1075 4423,1066 4416,1066 4409,1066 4405,1066 4401,1066 4360,1070 4353,1045 4342,1016 4293,777 4279,740 4305,745 " class="polyStyle" id="340202" style="fill:#d4ecb2"/>
<path d="" class="polyStyle" id="320118" style="fill:#f6f67b"/>
<polygon points="3540,3 3558,7 3570,10 3580,14 3585,20 3588,26 3589,31 3591,37 3591,40 3593,48 3595,54 3597,59 3604,58 3610,56 3623,54 3630,53 3637,53 3643,54 3650,54 3659,56 3672,56 3679,56 3685,56 3692,55 3699,54 3705,53 3712,52 3718,50 3725,49 3732,48 3738,45 3745,44 3751,43 3758,42 3764,40 3771,38 3778,36 3784,33 3791,31 3797,29 3804,26 3811,23 3817,21 3824,18 3830,15 3835,29 3842,34 3855,34 3858,37 3859,42 3863,56 3881,68 3906,88 3920,94 3930,98 3938,104 3941,111 3938,117 3926,124 3933,129 3945,129 3950,136 3951,140 3955,142 3963,141 3972,144 3981,150 3993,155 3999,155 4005,152 4012,149 4018,149 4024,153 4030,161 4034,168 4038,170 4050,168 4056,168 4060,169 4064,173 4064,178 4065,186 4074,189 4090,191 4110,189 4115,187 4117,184 4114,163 4111,147 4113,141 4124,139 4132,140 4137,141 4140,145 4145,153 4146,163 4143,175 4143,182 4144,188 4148,194 4161,206 4169,212 4176,215 4181,217 4183,221 4183,234 4171,267 4168,283 4167,303 4167,353 4161,422 4162,434 4175,476 4178,489 4182,494 4193,504 4203,508 4211,508 4216,503 4230,479 4239,467 4249,457 4260,451 4271,446 4281,437 4288,425 4290,414 4300,384 4315,351 4321,341 4343,300 4368,260 4413,188 4459,103 4464,94 4489,94 4497,96 4502,100 4520,121 4529,141 4537,142 4544,153 4549,162 4562,162 4576,167 4596,190 4606,208 4614,210 4618,213 4625,214 4631,213 4637,208 4641,203 4645,197 4649,192 4654,186 4655,180 4659,172 4668,186 4683,226 4694,262 4699,290 4734,316 4752,327 4753,332 4752,351 4752,354 4755,358 4753,363 4742,379 4738,389 4736,407 4709,398 4713,406 4714,412 4717,417 4718,423 4718,429 4720,434 4722,440 4724,452 4729,470 4732,475 4733,481 4735,486 4737,492 4737,498 4740,503 4741,509 4742,515 4745,520 4747,526 4750,531 4751,537 4755,543 4759,548 4762,554 4766,560 4768,565 4771,571 4773,577 4776,582 4778,588 4781,594 4782,599 4785,605 4786,611 4789,616 4790,622 4793,629 4797,638 4797,641 4798,647 4799,652 4800,655 4800,658 4802,664 4802,669 4803,675 4803,681 4804,686 4804,692 4805,698 4805,708 4806,713 4806,719 4806,725 4805,729 4817,723 4834,715 4855,708 4894,700 4900,697 4927,694 4926,706 4925,711 4927,713 4926,719 4926,722 4926,727 4930,733 4935,728 4937,724 4938,719 4945,713 4951,711 4953,713 4954,717 4957,719 4971,720 4997,720 5016,722 5021,721 5027,714 5032,717 5035,718 5039,714 5049,691 5056,676 5062,668 5064,665 5067,664 5072,664 5084,670 5099,682 5104,683 5115,678 5126,675 5156,667 5180,666 5196,669 5215,672 5217,675 5214,701 5210,727 5209,753 5202,778 5203,785 5207,790 5214,795 5223,798 5227,801 5232,806 5237,816 5240,819 5254,825 5277,836 5283,839 5296,852 5303,855 5315,858 5317,861 5316,864 5315,870 5310,883 5311,888 5315,892 5321,895 5338,898 5354,900 5359,906 5363,919 5375,946 5380,957 5378,962 5372,972 5350,997 5346,1001 5342,1007 5341,1020 5349,1032 5367,1051 5369,1057 5368,1063 5356,1074 5356,1082 5359,1088 5363,1093 5372,1095 5383,1100 5399,1127 5411,1132 5419,1140 5420,1146 5420,1152 5422,1167 5424,1174 5427,1178 5452,1180 5456,1184 5460,1205 5464,1221 5442,1221 5424,1219 5386,1212 5337,1206 5318,1203 5307,1199 5286,1184 5276,1180 5270,1181 5265,1184 5261,1193 5254,1203 5244,1204 5240,1202 5237,1198 5240,1181 5243,1167 5240,1159 5237,1156 5231,1157 5206,1169 5197,1173 5189,1174 5170,1164 5160,1160 5150,1159 5139,1159 5124,1162 5105,1163 5076,1159 5032,1150 5008,1143 5001,1141 4996,1142 4997,1133 4996,1121 4994,1118 4991,1115 4984,1120 4978,1125 4972,1126 4965,1127 4958,1128 4952,1129 4945,1130 4939,1130 4932,1129 4926,1129 4919,1128 4912,1127 4906,1127 4899,1124 4893,1123 4886,1122 4880,1122 4873,1121 4866,1120 4860,1119 4853,1116 4846,1114 4844,1110 4842,1108 4842,1103 4842,1097 4843,1091 4843,1086 4839,1080 4833,1074 4826,1072 4820,1071 4813,1069 4800,1064 4793,1063 4787,1061 4780,1057 4770,1056 4762,1054 4755,1054 4749,1051 4742,1051 4734,1049 4728,1048 4721,1048 4715,1048 4708,1016 4704,1012 4697,1011 4690,1013 4683,1016 4678,1021 4675,1024 4661,1025 4640,1029 4623,1035 4620,1036 4616,1034 4606,1023 4602,1015 4607,1006 4609,998 4607,982 4608,978 4611,975 4615,973 4622,973 4624,971 4624,963 4627,957 4634,952 4653,942 4655,939 4654,935 4656,923 4657,917 4651,914 4643,915 4632,922 4625,926 4616,926 4594,920 4588,917 4582,911 4573,913 4568,917 4562,917 4550,911 4547,908 4544,899 4543,895 4544,884 4543,880 4537,879 4547,850 4547,846 4543,843 4524,839 4524,835 4529,814 4528,810 4516,812 4509,811 4506,809 4504,805 4502,802 4497,801 4491,798 4489,793 4491,783 4489,778 4488,774 4491,767 4489,762 4473,755 4462,755 4447,749 4416,744 4412,744 4402,748 4378,748 4305,745 4279,740 4293,777 4342,1016 4353,1045 4360,1070 4361,1074 4366,1103 4367,1126 4364,1148 4357,1166 4347,1181 4341,1188 4333,1194 4317,1206 4302,1214 4286,1220 4269,1224 4213,1227 4193,1229 4140,1227 4095,1223 3915,1230 3856,1230 3812,1226 3731,1209 3698,1207 3674,1208 3649,1210 3626,1215 3603,1221 3579,1231 3570,1235 3562,1239 3559,1229 3559,1223 3562,1217 3563,1212 3565,1206 3565,1200 3566,1195 3566,1183 3566,1172 3565,1167 3564,1161 3558,1150 3556,1144 3553,1138 3549,1133 3543,1127 3536,1121 3532,1116 3526,1110 3519,1107 3517,1103 3505,1096 3501,1094 3494,1091 3488,1088 3481,1085 3475,1084 3468,1084 3461,1084 3455,1085 3447,1086 3442,1088 3440,1093 3422,1095 3419,1087 3411,1082 3406,1078 3403,1078 3400,1078 3396,1075 3368,1085 3358,1088 3352,1091 3351,1097 3348,1098 3345,1099 3330,1103 3318,1103 3308,1103 3299,1104 3293,1106 3290,1112 3288,1117 3285,1119 3282,1120 3276,1121 3270,1121 3260,1121 3253,1121 3249,1122 3245,1122 3241,1122 3237,1122 3232,1121 3228,1122 3224,1123 3220,1123 3215,1124 3212,1123 3209,1122 3201,1121 3192,1118 3186,1114 3194,1095 3199,1065 3200,1041 3206,1024 3232,1024 3243,1018 3255,1008 3258,994 3258,989 3256,982 3263,978 3262,974 3254,967 3245,964 3247,956 3239,950 3225,953 3218,952 3205,947 3197,940 3194,930 3192,915 3194,905 3199,897 3208,889 3210,884 3206,880 3201,875 3201,857 3201,839 3205,828 3202,821 3192,819 3153,820 3155,795 3156,783 3151,775 3145,771 3161,735 3147,722 3141,710 3140,692 3144,675 3149,663 3160,635 3199,644 3250,659 3308,673 3352,681 3415,694 3430,679 3432,676 3431,672 3416,657 3407,644 3402,633 3402,622 3418,594 3442,555 3445,551 3446,546 3443,541 3439,539 3430,538 3426,536 3418,530 3410,525 3398,525 3387,525 3376,523 3363,518 3349,513 3336,511 3272,509 3253,505 3238,496 3231,483 3230,478 3231,469 3235,459 3235,452 3234,445 3230,435 3224,417 3226,411 3231,406 3234,403 3234,399 3230,385 3231,380 3237,374 3246,367 3270,353 3281,344 3290,334 3308,304 3310,295 3309,285 3305,272 3298,258 3295,248 3295,242 3296,236 3295,231 3295,225 3292,219 3288,214 3284,208 3279,202 3274,196 3268,189 3267,185 3267,181 3265,175 3263,170 3261,164 3259,158 3258,153 3257,147 3257,141 3256,136 3254,130 3254,124 3253,119 3253,113 3254,108 3256,104 3256,101 3260,100 3266,94 3271,92 3277,93 3290,97 3293,96 3299,98 3306,98 3312,98 3319,97 3326,97 3332,94 3339,93 3345,91 3352,89 3359,85 3371,75 3377,71 3382,65 3386,60 3389,56 3392,56 3417,35 3423,33 3430,29 3437,26 3443,23 3450,19 3456,17 3463,13 3470,9 3476,6 3483,3 3503,0 3513,0 3526,1 " class="polyStyle" id="340207" style="fill:#fbe6ef"/>
<path d="" class="polyStyle" id="510704" style="fill:#f6f67b"/>
<path d="" class="polyStyle" id="411502" style="fill:#ee8b94"/>
<path d="" class="polyStyle" id="320302" style="fill:#d4ecb2"/>
<path d="" class="polyStyle" id="140311" style="fill:#ee8b94"/>
<path d="" class="polyStyle" id="610802" style="fill:#ee8b94"/>
<path d="" class="polyStyle" id="120116" style="fill:#f6f67b"/>
<path d="" class="polyStyle" id="130303" style="fill:#fbe6ef"/>
<path d="" class="polyStyle" id="140211" style="fill:#f6f67b"/>
<path d="" class="polyStyle" id="150207" style="fill:#fbe6ef"/>
<path d="" class="polyStyle" id="211403" style="fill:#f6f67b"/>
<path d="" class="polyStyle" id="150802" style="fill:#f8c67d"/>
<path d="" class="polyStyle" id="210112" style="fill:#ee8b94"/>
<path d="" class="polyStyle" id="230406" style="fill:#d4ecb2"/>
<path d="" class="polyStyle" id="110113" style="fill:#fbe6ef"/>
<path d="" class="polyStyle" id="341702" style="fill:#fbe6ef"/>
<path d="" class="polyStyle" id="420303" style="fill:#ee8b94"/>
<path d="" class="polyStyle" id="340702" style="fill:#d4ecb2"/>
<path d="" class="polyStyle" id="421002" style="fill:#f6f67b"/>
<path d="" class="polyStyle" id="420117" style="fill:#f6f67b"/>
<path d="" class="polyStyle" id="440904" style="fill:#f8c67d"/>
<path d="" class="polyStyle" id="460205" style="fill:#ee8b94"/>
<path d="" class="polyStyle" id="460202" style="fill:#f6f67b"/>
<path d="" class="polyStyle" id="460203" style="fill:#fbe6ef"/>
<path d="" class="polyStyle" id="420304" style="fill:#f6f67b"/>
<path d="" class="polyStyle" id="445302" style="fill:#ee8b94"/>
<path d="" class="polyStyle" id="410202" style="fill:#d4ecb2"/>
<path d="" class="polyStyle" id="440800" style="fill:#f6f67b"/>
<path d="" class="polyStyle" id="440900" style="fill:#ee8b94"/>
<path d="" class="polyStyle" id="340800" style="fill:#ee8b94"/>
<path d="" class="polyStyle" id="460200" style="fill:#f6f67b"/>
<path d="" class="polyStyle" id="460000" style="fill:#ee8b94"/>
<path d="" class="polyStyle" id="450500" style="fill:#ee8b94"/>
<path d="" class="polyStyle" id="450600" style="fill:#ee8b94"/>
<path d="" class="polyStyle" id="440400" style="fill:#f6f67b"/>
<path d="" class="polyStyle" id="441700" style="fill:#f6f67b"/>
<path d="" class="polyStyle" id="441500" style="fill:#f6f67b"/>
<path d="" class="polyStyle" id="350600" style="fill:#ee8b94"/>
<path d="" class="polyStyle" id="710000" style="fill:#f6f67b"/>
<path d="" class="polyStyle" id="510400" style="fill:#f6f67b"/>
<path d="" class="polyStyle" id="522600" style="fill:#fbe6ef"/>
<path d="" class="polyStyle" id="520500" style="fill:#ee8b94"/>
<path d="" class="polyStyle" id="431200" style="fill:#f6f67b"/>
<path d="" class="polyStyle" id="430600" style="fill:#f6f67b"/>
<path d="" class="polyStyle" id="511400" style="fill:#d4ecb2"/>
<path d="" class="polyStyle" id="421000" style="fill:#ee8b94"/>
<path d="" class="polyStyle" id="341700" style="fill:#f6f67b"/>
<path d="" class="polyStyle" id="420500" style="fill:#f6f67b"/>
<path d="" class="polyStyle" id="511300" style="fill:#f6f67b"/>
<path d="" class="polyStyle" id="420900" style="fill:#f6f67b"/>
<path d="" class="polyStyle" id="511700" style="fill:#ee8b94"/>
<path d="" class="polyStyle" id="420600" style="fill:#d4ecb2"/>
<path d="" class="polyStyle" id="411500" style="fill:#fbe6ef"/>
<path d="" class="polyStyle" id="510800" style="fill:#ee8b94"/>
<path d="" class="polyStyle" id="420300" style="fill:#fbe6ef"/>
<path d="" class="polyStyle" id="611000" style="fill:#ee8b94"/>
<path d="" class="polyStyle" id="620800" style="fill:#fbe6ef"/>
<path d="" class="polyStyle" id="370200" style="fill:#ee8b94"/>
<path d="" class="polyStyle" id="371000" style="fill:#f6f67b"/>
<path d="" class="polyStyle" id="370600" style="fill:#fbe6ef"/>
<path d="" class="polyStyle" id="120000" style="fill:#f6f67b"/>
<path d="" class="polyStyle" id="130200" style="fill:#ee8b94"/>
<path d="" class="polyStyle" id="130300" style="fill:#f6f67b"/>
<path d="" class="polyStyle" id="652900" style="fill:#fbe6ef"/>
<path d="" class="polyStyle" id="150500" style="fill:#d4ecb2"/>
<path d="" class="polyStyle" id="" style="fill:#d4ecb2"/>
<path d="" class="polyStyle" id="350500" style="fill:#fbe6ef"/>
<path d="" class="polyStyle" id="440400" style="fill:#f6f67b"/>
<path d="" class="polyStyle" id="421100" style="fill:#d4ecb2"/>
<path d="" class="polyStyle" id="420100" style="fill:#fbe6ef"/>
<path d="" class="polyStyle" id="532500" style="fill:#fbe6ef"/>
<path d="" class="polyStyle" id="654200" style="fill:#fbe6ef"/>
<path d="" class="polyStyle" id="210700" style="fill:#d4ecb2"/>
<path d="" class="polyStyle" id="522300" style="fill:#fbe6ef"/>
<path d="" class="polyStyle" id="" style="fill:#ee8b94"/>
<path d="" class="polyStyle" id="440400" style="fill:#f6f67b"/>
<path d="" class="polyStyle" id="620000" style="fill:#f6f67b"/>
<path d="" class="polyStyle" id="430000" style="fill:#fbe6ef"/>
<path d="" class="polyStyle" id="420000" style="fill:#ee8b94"/>
<path d="" class="polyStyle" id="410000" style="fill:#f6f67b"/>
<path d="" class="polyStyle" id="350000" style="fill:#fbe6ef"/>
<path d="" class="polyStyle" id="520000" style="fill:#f6f67b"/>
<path d="" class="polyStyle" id="" style="fill:#ee8b94"/>
</svg>
