<?xml version="1.0" encoding="UTF-8"?>
<!DOCTYPE svg PUBLIC "-//W3C//DTD SVG 1.1 Tiny//EN" "http://www.w3.org/Graphics/SVG/1.1/DTD/svg11-tiny.dtd">
<svg version="1.1" xmlns="http://www.w3.org/2000/svg" xmlns:xlink="http://www.w3.org/1999/xlink" width="100%" height="100%" viewBox="0,0,6694,3930">
<title>SVG</title>
<desc>Poligon Test</desc>
<style id="style_css_sheet" type="text/css">
.polyStyle{fill: #cccccc;stroke-width:0;fill-rule:evenodd;}
</style>
<circle cx="5785" cy="1802" r="200" stroke="black" stroke-width="1" fill="red" id="340322" name="五河县"/>
<circle cx="2897" cy="932" r="200" stroke="black" stroke-width="1" fill="red" id="340323" name="固镇县"/>
<circle cx="2301" cy="2723" r="200" stroke="black" stroke-width="1" fill="red" id="340321" name="怀远县"/>
<circle cx="3139" cy="2673" r="200" stroke="black" stroke-width="1" fill="red" id="340311" name="淮上区"/>
<circle cx="3082" cy="2835" r="200" stroke="black" stroke-width="1" fill="red" id="340304"position="442" name="禹会区"/>
<circle cx="3298" cy="2804" r="200" stroke="black" stroke-width="1" fill="red" id="340302"position="1" name="龙子湖区"/>
<circle cx="3162" cy="2790" r="200" stroke="black" stroke-width="1" fill="red" id="340303"position="14" name="蚌山区"/>
<path d="" class="polyStyle" id="" style="fill:#ee8b94"/>
<path d="" class="polyStyle" id="623022" style="fill:#fbe6ef"/>
<path d="" class="polyStyle" id="211421" style="fill:#f6f67b"/>
<path d="" class="polyStyle" id="532524" style="fill:#ee8b94"/>
<path d="" class="polyStyle" id="440825" style="fill:#f6f67b"/>
<path d="" class="polyStyle" id="441721" style="fill:#f6f67b"/>
<path d="" class="polyStyle" id="450521" style="fill:#f6f67b"/>
<path d="" class="polyStyle" id="450123" style="fill:#fbe6ef"/>
<path d="" class="polyStyle" id="350624" style="fill:#f6f67b"/>
<path d="" class="polyStyle" id="" style="fill:#fbe6ef"/>
<path d="" class="polyStyle" id="451224" style="fill:#fbe6ef"/>
<path d="" class="polyStyle" id="350627" style="fill:#f6f67b"/>
<path d="" class="polyStyle" id="" style="fill:#f6f67b"/>
<path d="" class="polyStyle" id="350525" style="fill:#f6f67b"/>
<path d="" class="polyStyle" id="530124" style="fill:#ee8b94"/>
<path d="" class="polyStyle" id="522627" style="fill:#ee8b94"/>
<path d="" class="polyStyle" id="510421" style="fill:#fbe6ef"/>
<path d="" class="polyStyle" id="522623" style="fill:#d4ecb2"/>
<path d="" class="polyStyle" id="430321" style="fill:#d4ecb2"/>
<path d="" class="polyStyle" id="511129" style="fill:#d4ecb2"/>
<path d="" class="polyStyle" id="511423" style="fill:#ee8b94"/>
<path d="" class="polyStyle" id="421023" style="fill:#f6f67b"/>
<path d="" class="polyStyle" id="511724" style="fill:#f6f67b"/>
<path d="" class="polyStyle" id="420526" style="fill:#fbe6ef"/>
<path d="" class="polyStyle" id="511923" style="fill:#fbe6ef"/>
<path d="" class="polyStyle" id="420325" style="fill:#fbe6ef"/>
<path d="" class="polyStyle" id="511921" style="fill:#f6f67b"/>
<polygon points="5893,829 5903,856 5929,859 5955,864 5981,863 6008,862 6033,867 6059,872 6084,873 6111,873 6138,868 6164,866 6190,860 6220,839 6234,843 6278,843 6268,875 6265,884 6260,893 6256,901 6252,909 6248,915 6236,965 6236,969 6230,989 6236,1001 6238,1015 6238,1021 6228,1045 6200,1075 6192,1081 6188,1085 6188,1091 6186,1111 6182,1115 6178,1121 6090,1155 6056,1179 6048,1183 6042,1201 6042,1205 6048,1221 6060,1235 6064,1253 6060,1271 6052,1289 6042,1301 6020,1325 6014,1349 6018,1363 6030,1381 6040,1389 6058,1393 6082,1395 6102,1401 6114,1405 6128,1401 6144,1389 6190,1363 6204,1363 6212,1369 6250,1421 6238,1499 6220,1503 6228,1535 6250,1533 6256,1552 6259,1572 6264,1591 6272,1621 6304,1621 6336,1621 6350,1623 6350,1629 6342,1659 6350,1663 6368,1671 6408,1685 6418,1691 6432,1721 6440,1729 6476,1741 6502,1743 6508,1745 6506,1769 6506,1781 6508,1791 6510,1833 6520,1833 6534,1829 6540,1825 6546,1821 6540,1785 6536,1753 6546,1755 6582,1763 6612,1771 6632,1775 6638,1803 6640,1816 6670,1809 6653,1837 6627,1833 6600,1836 6575,1843 6549,1864 6563,1890 6589,1882 6615,1868 6642,1854 6669,1845 6694,1848 6690,1875 6690,1902 6684,1927 6673,1952 6672,1979 6669,2005 6643,2023 6654,2050 6679,2067 6678,2093 6672,2120 6660,2146 6635,2156 6608,2163 6581,2172 6556,2169 6530,2146 6504,2139 6478,2156 6452,2180 6431,2203 6408,2228 6382,2233 6356,2235 6329,2254 6319,2280 6322,2305 6336,2332 6361,2357 6387,2359 6413,2345 6438,2334 6464,2331 6467,2357 6487,2382 6501,2409 6487,2436 6461,2448 6459,2474 6451,2483 6426,2495 6399,2501 6372,2504 6347,2501 6320,2494 6294,2468 6268,2457 6241,2444 6215,2468 6190,2494 6163,2498 6134,2491 6115,2465 6090,2440 6063,2441 6038,2460 6024,2487 5999,2505 5973,2520 5948,2538 5921,2563 5895,2584 5866,2585 5837,2561 5825,2550 5812,2560 5794,2558 5786,2549 5780,2538 5750,2518 5717,2502 5723,2490 5746,2491 5819,2454 5844,2435 5832,2423 5817,2429 5768,2351 5775,2325 5763,2300 5737,2293 5710,2304 5683,2312 5656,2320 5631,2327 5604,2331 5579,2333 5552,2336 5526,2344 5500,2351 5472,2357 5460,2359 5435,2365 5408,2368 5383,2371 5357,2372 5331,2364 5311,2339 5284,2313 5257,2292 5230,2279 5205,2276 5180,2278 5154,2292 5132,2320 5114,2348 5100,2374 5086,2399 5070,2426 5057,2451 5040,2478 5010,2492 5009,2496 4983,2494 4956,2485 4930,2475 4902,2476 4875,2485 4849,2506 4839,2520 4827,2548 4822,2576 4818,2604 4811,2633 4803,2659 4793,2688 4780,2716 4765,2745 4748,2771 4732,2799 4719,2828 4708,2854 4697,2881 4691,2907 4680,2932 4652,2947 4623,2957 4598,2960 4568,2961 4540,2954 4513,2927 4486,2903 4458,2887 4431,2888 4403,2896 4375,2901 4347,2901 4320,2887 4295,2867 4268,2841 4245,2814 4217,2787 4190,2769 4164,2753 4138,2726 4113,2699 4085,2675 4059,2654 4032,2635 4006,2618 3978,2608 3952,2597 3924,2596 3896,2611 3869,2632 3842,2642 3813,2648 3785,2650 3757,2632 3732,2611 3704,2610 3676,2617 3647,2630 3622,2647 3616,2643 3595,2628 3574,2601 3555,2573 3540,2544 3536,2523 3534,2477 3507,2485 3508,2459 3508,2433 3508,2406 3506,2380 3509,2354 3535,2333 3542,2330 3560,2325 3587,2319 3613,2325 3639,2342 3664,2338 3690,2331 3704,2304 3716,2278 3743,2251 3756,2224 3783,2205 3809,2199 3820,2173 3833,2158 3860,2161 3887,2164 3913,2167 3939,2171 3944,2144 3941,2119 3942,2093 3943,2066 3938,2041 3927,2015 3916,1989 3911,1964 3907,1939 3933,1920 3958,1908 3960,1883 3963,1856 3991,1841 4017,1842 4039,1816 4037,1802 4034,1777 4044,1751 4038,1726 4064,1702 4090,1697 4115,1697 4126,1671 4100,1655 4075,1643 4049,1626 4050,1599 4048,1573 4056,1547 4061,1520 4035,1501 4029,1475 4027,1450 4020,1425 4046,1422 4066,1422 4089,1397 4114,1382 4140,1381 4166,1385 4192,1389 4219,1389 4242,1364 4249,1338 4247,1311 4248,1286 4273,1265 4281,1240 4291,1214 4316,1222 4340,1196 4324,1169 4298,1152 4287,1126 4287,1113 4289,1086 4311,1060 4310,1033 4285,1020 4271,995 4267,969 4263,944 4260,918 4257,896 4283,881 4308,866 4334,850 4360,834 4387,822 4414,817 4439,813 4465,808 4478,809 4492,814 4499,817 4518,830 4531,840 4557,863 4570,871 4584,870 4597,870 4611,875 4621,878 4638,877 4654,879 4661,886 4663,890 4684,916 4690,930 4691,942 4693,967 4698,974 4707,980 4720,983 4746,984 4764,987 4769,997 4770,1010 4775,1024 4786,1036 4792,1052 4799,1059 4805,1061 4830,1067 4856,1077 4881,1092 4894,1101 4907,1104 4932,1110 4959,1109 4967,1115 4979,1134 4983,1139 5006,1143 5032,1141 5059,1139 5086,1138 5112,1135 5139,1124 5166,1111 5191,1108 5218,1110 5244,1115 5272,1121 5298,1123 5326,1139 5351,1135 5377,1109 5391,1082 5384,1057 5387,1032 5390,1006 5416,1026 5431,1027 5456,1030 5482,1033 5510,1036 5539,1038 5565,1041 5591,1039 5592,1014 5594,989 5611,962 5620,936 5622,911 5628,885 5655,881 5680,881 5707,881 5732,881 5758,879 5783,874 5810,850 5812,823 5839,801 5856,794 5882,804 " class="polyStyle" id="340322" style="fill:#ee8b94"/>
<polygon points="2614,18 2639,25 2666,30 2693,32 2703,33 2731,37 2757,40 2784,43 2811,47 2814,48 2841,51 2868,55 2891,81 2908,107 2925,134 2932,142 2977,140 3004,145 3029,149 3056,153 3083,158 3110,164 3136,171 3162,179 3188,188 3214,196 3240,206 3266,221 3290,246 3303,272 3317,298 3323,314 3324,322 3320,330 3312,339 3304,346 3307,357 3310,365 3309,384 3320,392 3324,395 3329,410 3338,417 3350,424 3364,443 3377,470 3381,476 3404,488 3430,508 3439,520 3444,534 3458,559 3464,568 3466,585 3472,611 3476,627 3483,637 3508,644 3524,649 3534,655 3560,677 3585,694 3601,699 3610,709 3636,731 3640,734 3661,757 3693,773 3721,781 3747,781 3773,781 3800,780 3826,779 3845,784 3852,795 3862,812 3878,817 3891,821 3903,822 3918,818 3929,820 3954,828 3964,833 3979,846 3990,856 4004,864 4030,868 4056,878 4065,883 4082,874 4094,862 4109,862 4137,872 4164,876 4171,877 4190,891 4200,898 4225,901 4239,901 4251,897 4257,896 4260,918 4263,944 4267,969 4271,995 4285,1020 4310,1033 4311,1060 4289,1086 4287,1113 4287,1126 4298,1152 4324,1169 4340,1196 4316,1222 4291,1214 4281,1240 4273,1265 4248,1286 4247,1311 4249,1338 4242,1364 4219,1389 4192,1389 4166,1385 4140,1381 4114,1382 4089,1397 4066,1422 4046,1422 4020,1425 4027,1450 4029,1475 4035,1501 4061,1520 4056,1547 4048,1573 4050,1599 4049,1626 4075,1643 4100,1655 4126,1671 4115,1697 4090,1697 4064,1702 4038,1726 4044,1751 4034,1777 4037,1802 4039,1816 4017,1842 3991,1841 3963,1856 3960,1883 3958,1908 3933,1920 3907,1939 3911,1964 3916,1989 3927,2015 3938,2041 3943,2066 3942,2093 3941,2119 3944,2144 3939,2171 3913,2167 3887,2164 3860,2161 3833,2158 3820,2173 3809,2199 3783,2205 3756,2224 3743,2251 3716,2278 3704,2304 3690,2331 3664,2338 3639,2342 3613,2325 3587,2319 3560,2325 3542,2330 3545,2317 3530,2289 3524,2258 3524,2208 3520,2148 3515,2136 3502,2137 3473,2142 3459,2146 3411,2088 3393,2076 3368,2075 3293,2091 3271,2090 3232,2068 3208,2065 3183,2082 3173,2086 3163,2072 3137,2069 3023,2069 2990,2066 2954,2053 2941,2053 2936,2064 2931,2061 2924,2048 2926,2031 2922,2020 2912,2012 2904,2005 2910,1980 2914,1954 2893,1927 2898,1902 2895,1876 2893,1850 2897,1824 2897,1797 2872,1802 2845,1802 2819,1797 2811,1796 2784,1802 2756,1794 2731,1787 2705,1784 2679,1780 2664,1754 2672,1729 2659,1702 2681,1677 2687,1652 2660,1631 2634,1626 2606,1609 2608,1584 2581,1574 2554,1564 2527,1553 2500,1539 2474,1526 2457,1522 2431,1516 2404,1538 2376,1548 2354,1575 2328,1551 2321,1526 2294,1506 2293,1478 2286,1450 2278,1425 2252,1402 2256,1376 2267,1350 2294,1356 2320,1350 2340,1324 2358,1299 2362,1271 2356,1244 2345,1219 2318,1205 2290,1198 2265,1192 2239,1185 2211,1178 2185,1172 2158,1163 2133,1152 2108,1153 2083,1153 2057,1145 2030,1140 2005,1139 1979,1135 1952,1131 1926,1129 1899,1120 1873,1112 1847,1112 1821,1101 1796,1091 1801,1066 1806,1039 1811,1012 1816,986 1806,959 1781,933 1755,927 1729,924 1704,922 1678,920 1652,910 1644,885 1643,859 1668,848 1695,844 1708,819 1721,794 1748,788 1775,783 1800,766 1797,739 1771,715 1749,690 1721,679 1696,667 1671,656 1644,647 1617,663 1592,659 1587,633 1599,607 1611,580 1623,555 1648,546 1672,521 1698,505 1724,486 1749,481 1775,508 1802,518 1813,518 1840,527 1859,554 1885,576 1911,588 1938,599 1964,601 1990,581 2006,555 2011,529 2024,502 2033,477 2025,451 2005,426 1978,409 1959,383 1963,357 1988,337 2003,330 2019,304 2044,306 2070,314 2095,316 2104,289 2111,262 2117,236 2123,209 2148,232 2175,256 2200,276 2225,296 2252,317 2279,338 2305,359 2332,379 2340,354 2346,328 2350,302 2352,292 2355,264 2383,250 2410,233 2436,238 2452,212 2454,186 2455,161 2481,140 2504,115 2515,90 2531,64 2536,37 2536,11 2562,0 2589,6 " class="polyStyle" id="340323" style="fill:#f6f67b"/>
<path d="" class="polyStyle" id="542525" style="fill:#f6f67b"/>
<path d="" class="polyStyle" id="611026" style="fill:#ee8b94"/>
<path d="" class="polyStyle" id="411023" style="fill:#fbe6ef"/>
<path d="" class="polyStyle" id="632323" style="fill:#f6f67b"/>
<path d="" class="polyStyle" id="140525" style="fill:#d4ecb2"/>
<path d="" class="polyStyle" id="410922" style="fill:#ee8b94"/>
<path d="" class="polyStyle" id="621027" style="fill:#ee8b94"/>
<path d="" class="polyStyle" id="130427" style="fill:#f6f67b"/>
<path d="" class="polyStyle" id="130121" style="fill:#ee8b94"/>
<path d="" class="polyStyle" id="610823" style="fill:#fbe6ef"/>
<path d="" class="polyStyle" id="130225" style="fill:#fbe6ef"/>
<path d="" class="polyStyle" id="130322" style="fill:#d4ecb2"/>
<path d="" class="polyStyle" id="653130" style="fill:#f6f67b"/>
<path d="" class="polyStyle" id="130822" style="fill:#fbe6ef"/>
<path d="" class="polyStyle" id="211221" style="fill:#f6f67b"/>
<path d="" class="polyStyle" id="210921" style="fill:#f6f67b"/>
<path d="" class="polyStyle" id="150223" style="fill:#f8c67d"/>
<path d="" class="polyStyle" id="220422" style="fill:#d4ecb2"/>
<path d="" class="polyStyle" id="340721" style="fill:#f6f67b"/>
<path d="" class="polyStyle" id="510824" style="fill:#d4ecb2"/>
<path d="" class="polyStyle" id="610324" style="fill:#f6f67b"/>
<path d="" class="polyStyle" id="530722" style="fill:#ee8b94"/>
<path d="" class="polyStyle" id="340823" style="fill:#d4ecb2"/>
<path d="" class="polyStyle" id="620825" style="fill:#d4ecb2"/>
<polygon points="1784,3887 1752,3908 1721,3915 1711,3924 1701,3918 1683,3897 1668,3890 1641,3895 1563,3930 1542,3907 1605,3879 1614,3864 1596,3859 1580,3853 1548,3850 1534,3833 1519,3803 1499,3771 1465,3773 1479,3736 1479,3729 1469,3718 1441,3728 1415,3724 1395,3697 1379,3669 1353,3641 1323,3612 1319,3612 1297,3597 1271,3590 1244,3583 1217,3575 1192,3569 1165,3562 1139,3554 1112,3539 1084,3520 1058,3503 1026,3483 995,3474 962,3472 938,3468 933,3463 946,3435 938,3425 907,3404 869,3379 844,3362 821,3350 829,3318 826,3293 802,3279 784,3276 774,3279 758,3284 732,3287 705,3267 679,3249 643,3224 616,3204 590,3186 563,3168 538,3151 511,3131 497,3126 517,3094 529,3068 514,3055 488,3053 460,3052 435,3050 424,3042 395,3030 354,3000 331,3007 311,3005 281,2993 269,2958 273,2948 248,2941 221,2934 194,2926 165,2905 158,2902 150,2918 142,2938 133,2934 120,2903 96,2887 70,2878 40,2870 11,2859 0,2859 11,2822 55,2803 73,2767 61,2754 33,2747 23,2729 19,2685 36,2652 52,2653 67,2624 83,2604 95,2586 97,2567 99,2538 101,2520 97,2498 131,2494 150,2481 162,2482 169,2491 165,2506 179,2511 194,2493 205,2493 213,2496 205,2518 210,2529 243,2525 273,2533 291,2535 311,2542 320,2536 321,2526 316,2515 326,2508 342,2516 350,2529 385,2537 396,2524 395,2510 402,2468 407,2442 401,2410 399,2390 378,2365 352,2348 326,2340 301,2334 266,2316 235,2302 208,2286 181,2282 152,2272 126,2254 100,2243 90,2216 84,2187 84,2160 88,2133 101,2104 129,2101 156,2075 169,2043 163,2016 173,1989 162,1945 156,1915 127,1875 123,1849 144,1817 155,1790 166,1764 196,1754 227,1727 249,1698 296,1656 312,1671 344,1702 363,1724 389,1731 411,1704 417,1675 420,1640 420,1611 426,1583 427,1558 441,1522 467,1502 466,1474 467,1443 479,1408 485,1382 454,1356 450,1329 421,1310 419,1284 423,1257 398,1239 384,1211 373,1185 374,1156 340,1138 327,1102 332,1062 335,1029 335,991 362,994 396,999 425,1007 452,1022 469,1038 484,1056 500,1068 514,1076 535,1087 541,1094 559,1099 585,1099 615,1119 642,1117 670,1093 690,1065 699,1028 750,1017 783,1022 808,1025 835,1010 864,1013 890,1004 920,979 952,970 962,969 971,981 1000,984 1028,1000 1035,1027 1064,1050 1084,1080 1110,1097 1138,1105 1174,1110 1200,1114 1230,1118 1257,1094 1285,1101 1327,1111 1353,1107 1405,1122 1417,1096 1422,1071 1438,1045 1464,1040 1490,1048 1517,1055 1544,1059 1569,1063 1596,1065 1623,1067 1648,1069 1675,1070 1701,1073 1727,1076 1753,1083 1780,1088 1786,1088 1796,1091 1821,1101 1847,1112 1873,1112 1899,1120 1926,1129 1952,1131 1979,1135 2005,1139 2030,1140 2057,1145 2083,1153 2108,1153 2133,1152 2158,1163 2185,1172 2211,1178 2239,1185 2265,1192 2290,1198 2318,1205 2345,1219 2356,1244 2362,1271 2358,1299 2340,1324 2320,1350 2294,1356 2267,1350 2256,1376 2252,1402 2278,1425 2286,1450 2293,1478 2294,1506 2321,1526 2328,1551 2354,1575 2376,1548 2404,1538 2431,1516 2457,1522 2474,1526 2500,1539 2527,1553 2554,1564 2581,1574 2608,1584 2606,1609 2634,1626 2660,1631 2687,1652 2681,1677 2659,1702 2672,1729 2664,1754 2679,1780 2705,1784 2731,1787 2756,1794 2784,1802 2811,1796 2819,1797 2845,1802 2872,1802 2897,1797 2897,1824 2893,1850 2895,1876 2898,1902 2893,1927 2914,1954 2910,1980 2904,2005 2912,2012 2922,2020 2926,2031 2924,2048 2931,2061 2936,2064 2944,2070 2944,2082 2939,2087 2931,2085 2917,2082 2908,2086 2904,2098 2894,2114 2881,2121 2864,2126 2856,2136 2849,2156 2833,2172 2819,2205 2799,2238 2789,2247 2768,2243 2733,2238 2687,2212 2657,2203 2615,2209 2603,2219 2608,2235 2611,2246 2601,2264 2582,2284 2574,2297 2557,2301 2547,2306 2546,2319 2540,2333 2522,2364 2504,2382 2495,2386 2494,2395 2498,2403 2509,2405 2516,2409 2518,2424 2522,2435 2533,2440 2579,2445 2597,2454 2601,2471 2593,2552 2627,2554 2626,2580 2657,2582 2645,2656 2625,2740 2622,2753 2590,2848 2596,2875 2610,2884 2660,2884 2676,2887 2679,2898 2674,2907 2637,2907 2628,2911 2627,2921 2642,2957 2644,2971 2636,2979 2584,2978 2572,2968 2561,2977 2511,2978 2474,2976 2457,2983 2443,2992 2438,2972 2458,2930 2459,2913 2444,2908 2418,2920 2407,2938 2412,2966 2422,3015 2418,3028 2392,3013 2337,2986 2316,2982 2314,3005 2311,3015 2298,3021 2258,3027 2233,3040 2219,3056 2221,3083 2231,3099 2237,3113 2219,3140 2206,3203 2181,3198 2172,3243 2168,3246 2099,3240 2051,3243 2014,3257 1967,3275 1930,3304 1913,3331 1893,3385 1875,3451 1865,3511 1863,3568 1835,3631 1785,3693 1754,3750 1746,3782 1742,3791 1728,3827 1732,3846 1759,3864 1787,3886 " class="polyStyle" id="340321" style="fill:#fbe6ef"/>
<path d="" class="polyStyle" id="421125" style="fill:#ee8b94"/>
<path d="" class="polyStyle" id="210281" style="fill:#ee8b94"/>
<path d="" class="polyStyle" id="440883" style="fill:#f6f67b"/>
<path d="" class="polyStyle" id="469006" style="fill:#d4ecb2"/>
<path d="" class="polyStyle" id="469002" style="fill:#ee8b94"/>
<path d="" class="polyStyle" id="469005" style="fill:#fbe6ef"/>
<path d="" class="polyStyle" id="440882" style="fill:#ee8b94"/>
<path d="" class="polyStyle" id="450681" style="fill:#ee8b94"/>
<path d="" class="polyStyle" id="441581" style="fill:#d4ecb2"/>
<path d="" class="polyStyle" id="421087" style="fill:#ee8b94"/>
<path d="" class="polyStyle" id="420984" style="fill:#fbe6ef"/>
<path d="" class="polyStyle" id="420582" style="fill:#ee8b94"/>
<path d="" class="polyStyle" id="370282" style="fill:#f6f67b"/>
<path d="" class="polyStyle" id="371083" style="fill:#f6f67b"/>
<path d="" class="polyStyle" id="371082" style="fill:#fbe6ef"/>
<path d="" class="polyStyle" id="652801" style="fill:#f8c67d"/>
<path d="" class="polyStyle" id="654301" style="fill:#ee8b94"/>
<path d="" class="polyStyle" id="370687" style="fill:#ee8b94"/>
<path d="" class="polyStyle" id="371482" style="fill:#d4ecb2"/>
<path d="" class="polyStyle" id="421081" style="fill:#fbe6ef"/>
<path d="" class="polyStyle" id="429006" style="fill:#f6f67b"/>
<path d="" class="polyStyle" id="440982" style="fill:#d4ecb2"/>
<path d="" class="polyStyle" id="421181" style="fill:#d4ecb2"/>
<path d="" class="polyStyle" id="321181" style="fill:#d4ecb2"/>
<path d="" class="polyStyle" id="659007" style="fill:#ee8b94"/>
<path d="" class="polyStyle" id="652701" style="fill:#fbe6ef"/>
<path d="" class="polyStyle" id="210781" style="fill:#fbe6ef"/>
<path d="" class="polyStyle" id="460204" style="fill:#f6f67b"/>
<path d="" class="polyStyle" id="210211" style="fill:#f6f67b"/>
<path d="" class="polyStyle" id="450512" style="fill:#ee8b94"/>
<path d="" class="polyStyle" id="450602" style="fill:#fbe6ef"/>
<path d="" class="polyStyle" id="440404" style="fill:#ee8b94"/>
<path d="" class="polyStyle" id="440403" style="fill:#f6f67b"/>
<path d="" class="polyStyle" id="441502" style="fill:#f6f67b"/>
<path d="" class="polyStyle" id="431002" style="fill:#d4ecb2"/>
<path d="" class="polyStyle" id="500107" style="fill:#fbe6ef"/>
<path d="" class="polyStyle" id="430611" style="fill:#d4ecb2"/>
<path d="" class="polyStyle" id="511304" style="fill:#fbe6ef"/>
<path d="" class="polyStyle" id="340711" style="fill:#ee8b94"/>
<path d="" class="polyStyle" id="320118" style="fill:#f6f67b"/>
<path d="" class="polyStyle" id="510704" style="fill:#f6f67b"/>
<path d="" class="polyStyle" id="411502" style="fill:#ee8b94"/>
<polygon points="3184,2817 3245,2816 3287,2821 3353,2840 3357,2851 3335,2878 3337,2931 3320,2983 3312,3018 3306,3031 3292,3037 3263,3018 3245,3026 3233,3046 3234,3066 3250,3064 3264,3065 3278,3076 3302,3087 3311,3089 3314,3097 3349,3123 3367,3140 3378,3162 3398,3186 3404,3202 3403,3236 3408,3260 3428,3290 3419,3294 3415,3323 3409,3350 3381,3350 3354,3344 3326,3341 3300,3329 3274,3329 3244,3323 3217,3318 3192,3325 3163,3322 3138,3311 3110,3323 3085,3344 3060,3370 3035,3372 3005,3375 2978,3379 2949,3382 2924,3380 2892,3375 2872,3385 2871,3388 2874,3403 2868,3421 2819,3432 2812,3432 2838,3382 2848,3334 2851,3269 2871,3224 2946,3087 2983,3030 3010,3004 3042,3000 3051,2997 3060,2982 3098,2892 3093,2834 3083,2774 3097,2774 3183,2783 " class="polyStyle" id="340303" style="fill:#d4ecb2"/>
<polygon points="2884,2761 3018,2774 3083,2774 3093,2834 3098,2892 3060,2982 3051,2997 3042,3000 3010,3004 2983,3030 2946,3087 2871,3224 2851,3269 2848,3334 2838,3382 2812,3432 2757,3436 2737,3417 2712,3411 2716,3445 2736,3459 2734,3471 2710,3489 2680,3505 2653,3507 2627,3499 2600,3483 2586,3487 2557,3515 2540,3547 2514,3579 2508,3611 2505,3640 2513,3668 2482,3685 2450,3718 2421,3746 2396,3754 2362,3777 2336,3806 2302,3838 2272,3830 2241,3833 2218,3806 2187,3809 2152,3816 2123,3812 2116,3778 2075,3754 2030,3748 2005,3735 1973,3727 1947,3723 1913,3738 1880,3749 1848,3759 1821,3770 1788,3776 1746,3782 1754,3750 1785,3693 1835,3631 1863,3568 1865,3511 1875,3451 1893,3385 1913,3331 1930,3304 1967,3275 2014,3257 2051,3243 2099,3240 2168,3246 2172,3243 2181,3198 2206,3203 2219,3140 2237,3113 2231,3099 2221,3083 2219,3056 2233,3040 2258,3027 2298,3021 2311,3015 2314,3005 2316,2982 2337,2986 2392,3013 2418,3028 2422,3015 2412,2966 2407,2938 2418,2920 2444,2908 2459,2913 2458,2930 2438,2972 2443,2992 2457,2983 2474,2976 2511,2978 2561,2977 2572,2968 2584,2978 2636,2979 2644,2971 2642,2957 2627,2921 2628,2911 2637,2907 2674,2907 2679,2898 2676,2887 2660,2884 2610,2884 2596,2875 2590,2848 2622,2753 2625,2740 2761,2755 " class="polyStyle" id="340304" style="fill:#ee8b94"/>
<polygon points="3978,2608 3976,2611 3968,2639 3963,2667 3964,2694 3966,2716 3972,2745 3969,2771 3965,2798 3941,2826 3914,2827 3888,2848 3876,2876 3864,2902 3861,2931 3851,2960 3846,2987 3827,3014 3835,3043 3861,3064 3889,3089 3894,3118 3886,3146 3858,3168 3828,3162 3799,3175 3774,3198 3755,3225 3738,3253 3729,3279 3709,3306 3684,3323 3656,3322 3627,3309 3601,3301 3575,3302 3546,3302 3520,3301 3495,3301 3470,3295 3444,3283 3428,3290 3408,3260 3403,3236 3404,3202 3398,3186 3378,3162 3367,3140 3349,3123 3314,3097 3311,3089 3302,3087 3278,3076 3264,3065 3250,3064 3234,3066 3233,3046 3245,3026 3263,3018 3292,3037 3306,3031 3312,3018 3320,2983 3337,2931 3335,2878 3357,2851 3353,2840 3287,2821 3245,2816 3184,2817 3183,2783 3097,2774 3083,2774 3192,2721 3254,2706 3334,2701 3468,2703 3575,2676 3616,2643 3622,2647 3647,2630 3676,2617 3704,2610 3732,2611 3757,2632 3785,2650 3813,2648 3842,2642 3869,2632 3896,2611 3924,2596 3952,2597 " class="polyStyle" id="340302" style="fill:#fbe6ef"/>
<polygon points="3023,2069 3137,2069 3163,2072 3173,2086 3183,2082 3208,2065 3232,2068 3271,2090 3293,2091 3368,2075 3393,2076 3411,2088 3459,2146 3473,2142 3502,2137 3515,2136 3520,2148 3524,2208 3524,2258 3530,2289 3545,2317 3542,2330 3535,2333 3509,2354 3506,2380 3508,2406 3508,2433 3508,2459 3507,2485 3534,2477 3536,2523 3540,2544 3555,2573 3574,2601 3595,2628 3616,2643 3575,2676 3468,2703 3334,2701 3254,2706 3192,2721 3083,2774 3018,2774 2884,2761 2761,2755 2625,2740 2645,2656 2657,2582 2626,2580 2627,2554 2593,2552 2601,2471 2597,2454 2579,2445 2533,2440 2522,2435 2518,2424 2516,2409 2509,2405 2498,2403 2494,2395 2495,2386 2504,2382 2522,2364 2540,2333 2546,2319 2547,2306 2557,2301 2574,2297 2582,2284 2601,2264 2611,2246 2608,2235 2603,2219 2615,2209 2657,2203 2687,2212 2733,2238 2768,2243 2789,2247 2799,2238 2819,2205 2833,2172 2849,2156 2856,2136 2864,2126 2881,2121 2894,2114 2904,2098 2908,2086 2917,2082 2931,2085 2939,2087 2944,2082 2944,2070 2936,2064 2941,2053 2954,2053 2990,2066 " class="polyStyle" id="340311" style="fill:#d4ecb2"/>
<path d="" class="polyStyle" id="320302" style="fill:#d4ecb2"/>
<path d="" class="polyStyle" id="140311" style="fill:#ee8b94"/>
<path d="" class="polyStyle" id="610802" style="fill:#ee8b94"/>
<path d="" class="polyStyle" id="120116" style="fill:#f6f67b"/>
<path d="" class="polyStyle" id="130303" style="fill:#fbe6ef"/>
<path d="" class="polyStyle" id="140211" style="fill:#f6f67b"/>
<path d="" class="polyStyle" id="150207" style="fill:#fbe6ef"/>
<path d="" class="polyStyle" id="211403" style="fill:#f6f67b"/>
<path d="" class="polyStyle" id="150802" style="fill:#f8c67d"/>
<path d="" class="polyStyle" id="210112" style="fill:#ee8b94"/>
<path d="" class="polyStyle" id="230406" style="fill:#d4ecb2"/>
<path d="" class="polyStyle" id="110113" style="fill:#fbe6ef"/>
<path d="" class="polyStyle" id="341702" style="fill:#fbe6ef"/>
<path d="" class="polyStyle" id="420303" style="fill:#ee8b94"/>
<path d="" class="polyStyle" id="340702" style="fill:#d4ecb2"/>
<path d="" class="polyStyle" id="421002" style="fill:#f6f67b"/>
<path d="" class="polyStyle" id="420117" style="fill:#f6f67b"/>
<path d="" class="polyStyle" id="440904" style="fill:#f8c67d"/>
<path d="" class="polyStyle" id="460205" style="fill:#ee8b94"/>
<path d="" class="polyStyle" id="460202" style="fill:#f6f67b"/>
<path d="" class="polyStyle" id="460203" style="fill:#fbe6ef"/>
<path d="" class="polyStyle" id="420304" style="fill:#f6f67b"/>
<path d="" class="polyStyle" id="445302" style="fill:#ee8b94"/>
<path d="" class="polyStyle" id="410202" style="fill:#d4ecb2"/>
<path d="" class="polyStyle" id="440800" style="fill:#f6f67b"/>
<path d="" class="polyStyle" id="440900" style="fill:#ee8b94"/>
<path d="" class="polyStyle" id="340800" style="fill:#ee8b94"/>
<path d="" class="polyStyle" id="460200" style="fill:#f6f67b"/>
<path d="" class="polyStyle" id="460000" style="fill:#ee8b94"/>
<path d="" class="polyStyle" id="450500" style="fill:#ee8b94"/>
<path d="" class="polyStyle" id="450600" style="fill:#ee8b94"/>
<path d="" class="polyStyle" id="440400" style="fill:#f6f67b"/>
<path d="" class="polyStyle" id="441700" style="fill:#f6f67b"/>
<path d="" class="polyStyle" id="441500" style="fill:#f6f67b"/>
<path d="" class="polyStyle" id="350600" style="fill:#ee8b94"/>
<path d="" class="polyStyle" id="710000" style="fill:#f6f67b"/>
<path d="" class="polyStyle" id="510400" style="fill:#f6f67b"/>
<path d="" class="polyStyle" id="522600" style="fill:#fbe6ef"/>
<path d="" class="polyStyle" id="520500" style="fill:#ee8b94"/>
<path d="" class="polyStyle" id="431200" style="fill:#f6f67b"/>
<path d="" class="polyStyle" id="430600" style="fill:#f6f67b"/>
<path d="" class="polyStyle" id="511400" style="fill:#d4ecb2"/>
<path d="" class="polyStyle" id="421000" style="fill:#ee8b94"/>
<path d="" class="polyStyle" id="341700" style="fill:#f6f67b"/>
<path d="" class="polyStyle" id="420500" style="fill:#f6f67b"/>
<path d="" class="polyStyle" id="511300" style="fill:#f6f67b"/>
<path d="" class="polyStyle" id="420900" style="fill:#f6f67b"/>
<path d="" class="polyStyle" id="511700" style="fill:#ee8b94"/>
<path d="" class="polyStyle" id="420600" style="fill:#d4ecb2"/>
<path d="" class="polyStyle" id="411500" style="fill:#fbe6ef"/>
<path d="" class="polyStyle" id="510800" style="fill:#ee8b94"/>
<path d="" class="polyStyle" id="420300" style="fill:#fbe6ef"/>
<path d="" class="polyStyle" id="611000" style="fill:#ee8b94"/>
<path d="" class="polyStyle" id="620800" style="fill:#fbe6ef"/>
<path d="" class="polyStyle" id="370200" style="fill:#ee8b94"/>
<path d="" class="polyStyle" id="371000" style="fill:#f6f67b"/>
<path d="" class="polyStyle" id="370600" style="fill:#fbe6ef"/>
<path d="" class="polyStyle" id="120000" style="fill:#f6f67b"/>
<path d="" class="polyStyle" id="130200" style="fill:#ee8b94"/>
<path d="" class="polyStyle" id="130300" style="fill:#f6f67b"/>
<path d="" class="polyStyle" id="652900" style="fill:#fbe6ef"/>
<path d="" class="polyStyle" id="150500" style="fill:#d4ecb2"/>
<path d="" class="polyStyle" id="" style="fill:#d4ecb2"/>
<path d="" class="polyStyle" id="350500" style="fill:#fbe6ef"/>
<path d="" class="polyStyle" id="440400" style="fill:#f6f67b"/>
<path d="" class="polyStyle" id="421100" style="fill:#d4ecb2"/>
<path d="" class="polyStyle" id="420100" style="fill:#fbe6ef"/>
<path d="" class="polyStyle" id="532500" style="fill:#fbe6ef"/>
<path d="" class="polyStyle" id="654200" style="fill:#fbe6ef"/>
<path d="" class="polyStyle" id="210700" style="fill:#d4ecb2"/>
<path d="" class="polyStyle" id="522300" style="fill:#fbe6ef"/>
<path d="" class="polyStyle" id="" style="fill:#ee8b94"/>
<path d="" class="polyStyle" id="440400" style="fill:#f6f67b"/>
<path d="" class="polyStyle" id="620000" style="fill:#f6f67b"/>
<path d="" class="polyStyle" id="430000" style="fill:#fbe6ef"/>
<path d="" class="polyStyle" id="420000" style="fill:#ee8b94"/>
<path d="" class="polyStyle" id="410000" style="fill:#f6f67b"/>
<path d="" class="polyStyle" id="350000" style="fill:#fbe6ef"/>
<path d="" class="polyStyle" id="520000" style="fill:#f6f67b"/>
<path d="" class="polyStyle" id="" style="fill:#ee8b94"/>
</svg>
