<?xml version="1.0" encoding="UTF-8"?>
<!DOCTYPE svg PUBLIC "-//W3C//DTD SVG 1.1 Tiny//EN" "http://www.w3.org/Graphics/SVG/1.1/DTD/svg11-tiny.dtd">
<svg version="1.1" xmlns="http://www.w3.org/2000/svg" xmlns:xlink="http://www.w3.org/1999/xlink" width="100%" height="100%" viewBox="0,0,424,551">
<title>SVG</title>
<desc>Poligon Test</desc>
<style id="style_css_sheet" type="text/css">
.polyStyle{fill: #cccccc;stroke-width:0;fill-rule:evenodd;}
</style>
<circle cx="182" cy="151" r="20" stroke="black" stroke-width="1" fill="red" id="340421" name="凤台县"/>
<circle cx="209" cy="213" r="20" stroke="black" stroke-width="1" fill="red" id="340422" name="寿县"/>
<circle cx="334" cy="174" r="20" stroke="black" stroke-width="1" fill="red" id="340403" position="44" name="田家庵区"/>
<circle cx="344" cy="187" r="20" stroke="black" stroke-width="1" fill="red" id="340402" name="大通区"/>
<circle cx="241" cy="188" r="20" stroke="black" stroke-width="1" fill="red" id="340405" name="八公山区"/>
<circle cx="227" cy="112" r="20" stroke="black" stroke-width="1" fill="red" id="340406" name="潘集区"/>
<circle cx="249" cy="205" r="20" stroke="black" stroke-width="1" fill="red" id="340404" name="谢家集区"/>
<path d="" class="polyStyle" id="451031" style="fill:#ee8b94"/>
<path d="" class="polyStyle" id="623022" style="fill:#fbe6ef"/>
<path d="" class="polyStyle" id="211421" style="fill:#f6f67b"/>
<path d="" class="polyStyle" id="532524" style="fill:#ee8b94"/>
<path d="" class="polyStyle" id="440825" style="fill:#f6f67b"/>
<path d="" class="polyStyle" id="441721" style="fill:#f6f67b"/>
<path d="" class="polyStyle" id="450521" style="fill:#f6f67b"/>
<path d="" class="polyStyle" id="450123" style="fill:#fbe6ef"/>
<path d="" class="polyStyle" id="350624" style="fill:#f6f67b"/>
<path d="" class="polyStyle" id="" style="fill:#fbe6ef"/>
<path d="" class="polyStyle" id="451224" style="fill:#fbe6ef"/>
<path d="" class="polyStyle" id="350627" style="fill:#f6f67b"/>
<path d="" class="polyStyle" id="" style="fill:#f6f67b"/>
<path d="" class="polyStyle" id="350525" style="fill:#f6f67b"/>
<path d="" class="polyStyle" id="530124" style="fill:#ee8b94"/>
<path d="" class="polyStyle" id="522627" style="fill:#ee8b94"/>
<path d="" class="polyStyle" id="510421" style="fill:#fbe6ef"/>
<path d="" class="polyStyle" id="522623" style="fill:#d4ecb2"/>
<path d="" class="polyStyle" id="430321" style="fill:#d4ecb2"/>
<path d="" class="polyStyle" id="511129" style="fill:#d4ecb2"/>
<path d="" class="polyStyle" id="511423" style="fill:#ee8b94"/>
<path d="" class="polyStyle" id="421023" style="fill:#f6f67b"/>
<path d="" class="polyStyle" id="511724" style="fill:#f6f67b"/>
<path d="" class="polyStyle" id="420526" style="fill:#fbe6ef"/>
<path d="" class="polyStyle" id="511923" style="fill:#fbe6ef"/>
<path d="" class="polyStyle" id="420325" style="fill:#fbe6ef"/>
<path d="" class="polyStyle" id="511921" style="fill:#f6f67b"/>
<path d="" class="polyStyle" id="542525" style="fill:#f6f67b"/>
<path d="" class="polyStyle" id="611026" style="fill:#ee8b94"/>
<path d="" class="polyStyle" id="411023" style="fill:#fbe6ef"/>
<path d="" class="polyStyle" id="632323" style="fill:#f6f67b"/>
<path d="" class="polyStyle" id="140525" style="fill:#d4ecb2"/>
<path d="" class="polyStyle" id="410922" style="fill:#ee8b94"/>
<path d="" class="polyStyle" id="621027" style="fill:#ee8b94"/>
<path d="" class="polyStyle" id="130427" style="fill:#f6f67b"/>
<path d="" class="polyStyle" id="130121" style="fill:#ee8b94"/>
<path d="" class="polyStyle" id="610803" style="fill:#fbe6ef"/>
<path d="" class="polyStyle" id="130225" style="fill:#fbe6ef"/>
<path d="" class="polyStyle" id="130322" style="fill:#d4ecb2"/>
<path d="" class="polyStyle" id="653130" style="fill:#f6f67b"/>
<path d="" class="polyStyle" id="130822" style="fill:#fbe6ef"/>
<path d="" class="polyStyle" id="211221" style="fill:#f6f67b"/>
<path d="" class="polyStyle" id="210921" style="fill:#f6f67b"/>
<path d="" class="polyStyle" id="150223" style="fill:#f8c67d"/>
<path d="" class="polyStyle" id="220422" style="fill:#d4ecb2"/>
<path d="" class="polyStyle" id="340706" style="fill:#f6f67b"/>
<path d="" class="polyStyle" id="510824" style="fill:#d4ecb2"/>
<path d="" class="polyStyle" id="610324" style="fill:#f6f67b"/>
<path d="" class="polyStyle" id="530722" style="fill:#ee8b94"/>
<path d="" class="polyStyle" id="340722" style="fill:#d4ecb2"/>
<path d="" class="polyStyle" id="620825" style="fill:#d4ecb2"/>
<polygon points="188.60,177.50 189.30,180.70 190.70,184.10 191.50,186.70 191.40,189.30 190.10,191.90 187.50,194.90 183.50,197.50 180.80,198.60 177.60,199.70 173.90,201.50 170.20,203.70 167.20,206.10 164.60,208.30 161.70,212.40 160.20,215.00 158.20,218.00 153.30,220.40 150.20,221.30 146.50,222.30 143.80,222.90 140.70,223.80 136.80,224.90 135.00,225.10 133.60,219.00 131.60,213.70 129.00,211.10 126.20,210.00 117.30,207.50 113.20,207.50 105.40,208.70 94.90,209.30 94.80,208.70 95.30,205.40 95.30,202.10 93.90,201.70 93.00,201.20 91.00,200.80 89.00,200.70 88.10,201.10 87.70,200.40 87.60,197.10 86.70,195.30 86.60,194.30 87.80,193.70 88.40,193.20 88.90,192.40 88.80,191.50 88.10,190.70 87.10,190.50 86.20,190.10 84.30,183.90 82.50,180.50 81.40,177.70 81.00,174.70 79.30,172.10 70.20,170.60 69.40,168.00 69.70,165.00 69.10,162.20 65.30,161.30 62.10,161.40 55.80,162.50 51.80,162.60 48.90,163.00 46.20,160.30 43.70,158.30 43.20,155.70 40.40,153.90 40.40,151.30 40.00,148.20 42.70,146.20 44.40,143.30 45.10,137.40 41.40,136.60 39.60,133.50 39.80,130.80 38.90,128.10 40.50,124.50 41.10,121.90 41.10,114.20 40.80,113.20 41.60,111.20 42.20,108.90 40.20,105.10 38.80,103.50 38.40,102.30 37.90,100.80 37.90,99.40 39.40,97.10 40.60,96.00 36.80,92.60 36.80,90.80 38.60,87.20 39.80,81.60 37.50,78.90 34.30,76.80 30.50,75.30 28.70,74.00 27.60,74.10 26.90,75.10 25.00,75.00 23.60,75.60 22.50,76.50 20.00,76.40 16.80,76.10 13.10,75.40 10.20,73.10 9.50,70.00 9.50,67.00 11.80,64.20 12.60,60.90 13.60,57.90 14.00,57.20 13.30,56.40 14.40,54.40 13.70,51.60 14.20,48.70 12.90,45.60 11.20,43.00 8.60,40.10 0.40,32.10 0.00,29.00 1.50,26.30 2.30,23.60 3.10,20.60 5.60,18.00 5.70,14.60 5.90,11.60 5.30,9.00 5.10,6.20 5.90,3.20 8.20,0.70 8.60,0.00 11.30,0.90 14.00,1.70 16.90,2.70 19.10,3.20 21.00,3.80 24.90,5.00 28.60,6.20 33.10,7.60 37.10,8.90 41.20,10.30 44.60,11.20 48.00,11.90 52.80,13.00 56.20,13.80 60.60,14.60 64.80,15.70 68.00,16.40 73.30,17.30 75.90,18.10 79.90,19.00 83.70,20.00 87.30,20.80 92.00,21.90 95.50,22.90 100.60,24.30 105.30,25.40 109.70,26.50 114.50,27.40 118.50,28.60 122.40,29.50 126.60,30.40 130.80,31.40 133.50,31.90 136.10,31.90 140.90,32.10 147.80,32.10 150.80,32.40 154.10,32.40 157.70,32.60 162.00,33.30 165.20,33.60 170.60,34.40 171.90,36.90 172.50,36.70 171.80,41.90 171.30,44.40 170.00,45.50 168.30,45.20 164.90,45.80 163.60,49.20 163.20,51.20 163.70,52.70 165.10,53.90 166.10,55.10 165.30,59.70 164.60,60.40 163.40,60.60 163.50,63.90 162.90,67.40 158.00,69.50 152.50,71.80 151.40,73.10 151.10,75.20 151.80,82.70 152.70,87.10 152.30,89.40 151.80,92.60 153.80,97.90 159.80,107.40 162.40,111.30 164.30,112.10 166.10,111.90 173.10,107.40 178.70,105.70 180.10,106.50 181.10,108.40 182.80,113.50 183.90,114.20 185.60,114.20 187.60,114.20 188.90,115.10 190.60,119.70 192.30,125.20 192.10,129.50 193.10,130.70 197.30,132.10 198.80,133.40 198.30,137.40 198.10,140.80 199.60,142.90 202.30,144.10 206.60,144.90 209.90,146.00 211.80,146.70 212.80,147.90 212.10,150.40 209.50,153.20 208.80,155.20 207.00,158.60 207.00,158.80 204.30,160.30 203.60,160.10 204.70,158.30 204.60,157.50 202.90,155.80 201.40,156.30 199.00,155.60 197.90,155.70 196.50,157.20 189.80,156.80 188.90,155.20 188.30,155.00 187.80,156.40 185.20,157.30 183.90,157.10 181.20,156.10 177.90,153.90 174.40,152.20 172.60,152.10 170.80,152.50 169.40,153.20 168.60,154.00 168.00,155.30 167.80,157.00 169.10,165.20 170.00,166.80 170.60,167.20 175.20,169.20 173.60,170.90 175.10,171.80 177.50,172.30 178.50,173.10 178.90,174.20 179.20,176.30 176.80,178.40 174.20,179.90 173.90,182.00 187.60,176.60 188.60,177.50 " class="polyStyle" id="340421" style="fill:#fbe6ef"/>
<path d="" class="polyStyle" id="421125" style="fill:#ee8b94"/>
<polygon points="200.50,175.00 203.90,176.20 204.10,177.90 206.40,180.80 209.70,181.30 212.70,183.90 213.20,186.60 213.80,189.60 215.40,192.30 218.00,193.90 218.90,194.70 221.10,196.50 223.40,199.40 223.70,202.30 222.90,205.10 222.80,208.40 225.60,208.80 228.60,211.30 230.30,213.90 231.00,216.50 232.20,220.20 234.60,223.00 237.20,222.70 239.80,224.50 242.40,226.90 245.20,228.80 248.60,230.10 252.00,231.20 252.90,234.30 254.60,238.50 257.70,240.20 260.30,243.10 261.80,246.10 263.00,248.70 264.60,252.00 265.80,255.00 265.60,257.60 263.00,260.70 260.30,262.10 261.90,264.90 264.60,266.00 267.80,267.30 270.40,269.20 267.60,271.90 264.80,273.40 263.00,275.90 263.40,278.80 263.00,283.40 262.50,287.30 262.50,292.20 263.20,295.50 264.40,299.40 265.60,302.50 266.70,305.20 268.00,307.70 270.90,308.40 274.30,308.40 283.30,308.20 289.20,308.30 299.10,308.90 302.90,309.00 305.80,308.90 307.40,308.90 308.50,308.90 311.10,309.00 314.60,309.10 317.40,309.20 320.50,308.80 322.00,309.50 323.30,310.10 326.20,311.60 329.00,310.90 333.50,309.50 336.90,309.40 340.20,310.50 340.40,314.10 340.60,317.50 339.60,321.30 339.30,324.80 339.40,329.20 336.70,330.60 337.30,333.80 340.20,336.40 342.80,334.50 345.60,335.00 346.00,338.10 343.30,341.10 340.50,343.40 339.40,346.70 339.60,350.50 338.50,353.60 336.10,356.30 337.70,358.80 337.60,362.00 338.30,364.70 341.60,363.90 346.60,361.20 350.00,362.50 351.50,365.60 354.50,367.70 354.60,370.90 351.80,374.20 349.10,377.00 349.40,379.80 350.40,382.40 349.60,385.20 346.30,386.10 343.70,388.90 340.50,389.00 332.80,391.00 328.30,392.10 325.70,392.30 323.00,392.10 321.60,393.70 319.90,394.90 319.60,397.10 320.50,398.60 321.50,398.90 322.40,399.90 322.90,401.60 323.60,403.40 324.70,404.80 327.90,406.20 330.60,408.30 332.30,411.00 330.80,413.80 329.30,415.40 328.80,416.60 328.20,418.20 328.70,419.60 328.50,421.60 327.30,422.10 325.30,420.20 322.70,422.00 320.50,423.40 317.60,424.80 315.40,425.40 310.60,422.30 309.50,422.70 308.70,423.00 307.90,425.40 308.20,428.00 308.80,431.40 309.40,434.40 311.60,437.40 313.30,440.30 314.40,442.90 315.40,444.10 318.30,444.00 320.50,443.70 321.90,446.30 322.70,448.30 324.60,448.80 327.30,450.50 329.30,452.70 328.40,455.90 327.70,458.80 329.80,461.50 331.50,463.10 331.10,464.70 332.30,467.00 331.80,468.20 332.20,469.90 333.20,471.70 336.90,473.60 339.70,476.20 339.90,478.70 341.10,481.60 341.90,484.40 339.80,487.10 338.20,490.00 337.80,492.90 335.00,495.30 332.30,497.20 333.20,499.70 334.90,500.80 334.90,501.10 334.90,503.20 332.30,504.10 329.70,504.50 326.40,504.50 323.70,504.80 320.90,505.60 320.50,506.40 318.20,506.20 315.60,505.80 312.70,505.80 309.60,506.00 307.00,505.90 303.60,505.80 299.90,505.90 296.10,505.40 293.50,505.10 290.70,505.40 287.70,506.50 285.10,507.50 282.30,508.70 280.20,511.40 277.50,513.70 274.50,513.50 271.60,514.30 269.00,514.20 266.20,514.80 263.10,515.80 260.20,516.30 257.10,517.40 254.40,518.40 251.90,519.50 249.00,521.00 245.90,523.70 243.50,526.30 241.00,528.90 239.30,532.50 236.30,535.10 233.50,536.70 230.60,537.20 228.00,539.60 226.00,542.70 222.70,542.70 220.20,542.60 217.60,542.10 214.70,541.90 211.90,542.90 208.70,545.20 205.80,544.60 205.30,544.90 202.60,544.90 199.80,545.00 197.10,544.90 193.90,544.80 190.80,545.10 188.10,545.10 185.30,544.30 182.70,543.60 180.00,543.00 177.30,543.20 177.30,544.30 175.90,545.90 175.60,547.10 174.40,547.00 174.20,548.00 172.90,548.00 172.60,550.20 170.80,550.60 166.40,551.40 163.50,551.30 161.20,548.80 160.60,546.00 161.40,543.20 161.10,540.00 160.50,537.40 160.40,534.90 159.50,531.90 159.70,529.30 159.60,526.30 159.80,523.40 159.90,520.80 159.50,518.00 157.70,515.20 155.10,512.70 152.30,512.40 149.60,512.80 146.90,512.40 144.10,510.80 141.70,508.00 139.10,505.40 136.30,505.30 133.50,505.10 130.90,504.60 128.00,503.20 124.70,502.70 121.70,500.80 118.90,499.00 116.30,496.70 113.30,494.10 110.30,493.30 107.70,492.90 105.00,492.30 101.20,491.80 97.80,490.00 93.90,489.90 91.20,489.80 89.30,489.40 89.90,488.60 91.60,487.90 92.30,487.20 93.60,485.00 94.00,483.60 93.90,481.00 93.80,479.90 93.10,478.70 92.50,477.80 91.10,476.70 90.20,475.70 90.00,474.80 90.20,472.90 90.70,471.20 91.40,470.10 91.70,469.50 91.70,468.90 91.20,467.60 91.10,466.80 91.20,466.00 91.50,465.50 92.20,464.80 92.30,463.90 92.30,462.80 89.80,459.20 88.80,458.00 88.10,456.50 87.10,455.20 86.30,454.60 84.60,454.20 83.90,453.90 83.20,453.20 82.90,452.60 82.80,452.10 82.80,450.40 82.70,449.80 82.20,448.40 81.50,447.40 80.90,446.20 80.80,445.20 81.10,444.50 82.10,443.20 83.00,440.60 83.60,439.20 83.60,438.90 83.90,437.30 83.80,436.00 83.60,434.70 84.10,434.60 84.30,433.90 84.80,433.00 85.00,432.40 85.00,431.50 83.40,429.00 81.10,426.00 80.10,425.30 79.00,425.00 78.40,424.60 78.00,424.10 77.10,421.70 76.50,420.80 75.30,419.40 74.30,418.30 73.90,417.00 74.20,415.70 74.10,414.40 72.90,412.40 73.30,409.80 74.00,408.40 74.70,407.40 76.00,406.00 77.30,405.10 78.40,404.00 78.70,403.30 78.60,402.30 78.30,401.50 77.70,400.90 76.50,400.10 75.20,399.80 70.80,398.30 69.20,396.90 69.20,396.00 69.80,394.90 70.70,394.20 72.70,393.10 74.60,392.40 75.70,392.20 76.30,392.20 77.20,391.90 78.40,391.20 79.50,390.20 80.40,388.40 80.90,387.90 81.40,387.00 82.60,385.30 83.70,383.20 83.90,382.00 83.90,381.10 83.00,378.90 82.50,377.60 82.00,376.80 81.20,376.10 79.50,373.60 79.40,372.30 79.80,371.50 80.20,371.10 81.10,370.70 82.00,370.10 82.50,369.00 82.80,366.80 82.70,365.60 82.10,364.10 82.00,362.70 81.60,361.80 80.40,359.90 79.40,357.70 79.10,356.30 79.10,350.40 79.30,347.70 79.60,346.30 79.00,344.90 78.40,344.30 77.20,342.80 74.00,339.80 73.30,337.80 72.70,333.90 71.00,331.00 69.30,329.00 67.80,327.80 65.00,326.60 63.50,326.10 62.40,325.50 61.20,323.80 60.60,322.70 60.20,321.50 59.90,319.80 59.10,317.40 58.90,314.20 59.10,312.60 59.20,311.40 59.60,310.70 60.40,309.70 65.40,306.20 66.50,305.20 67.50,304.00 68.00,303.40 68.10,302.80 68.10,302.30 67.90,301.70 67.50,301.20 64.80,299.90 64.20,299.40 61.90,299.80 61.60,299.60 61.10,299.40 60.80,299.50 60.50,299.40 56.40,297.40 59.00,294.90 59.50,294.30 59.80,293.70 60.20,292.60 60.40,292.20 60.80,291.50 61.30,291.00 61.50,290.70 61.40,290.40 61.60,289.20 61.60,288.80 61.20,287.70 60.10,287.00 59.40,286.40 59.00,286.10 58.80,285.80 57.60,284.80 56.60,284.30 57.00,283.40 57.60,283.60 60.10,283.50 61.80,282.40 62.80,280.50 63.80,277.90 64.70,271.40 65.10,270.10 65.70,269.50 67.40,270.50 70.40,273.10 71.80,273.80 73.60,273.70 75.30,272.70 76.50,271.00 77.50,267.00 77.60,263.30 78.30,261.40 82.60,259.20 82.90,258.10 82.40,256.10 80.70,252.60 81.90,249.10 83.70,246.00 87.20,243.70 90.30,241.00 92.50,238.20 98.20,232.10 101.00,230.40 105.00,229.60 120.10,230.00 123.10,229.70 126.10,228.30 135.00,225.10 136.80,224.90 140.70,223.80 143.80,222.90 146.50,222.30 150.20,221.30 153.30,220.40 158.20,218.00 160.20,215.00 161.70,212.40 164.60,208.30 167.20,206.10 170.20,203.70 173.90,201.50 177.60,199.70 180.80,198.60 183.50,197.50 187.50,194.90 190.10,191.90 191.40,189.30 191.50,186.70 190.70,184.10 189.30,180.70 188.60,177.20 191.50,175.80 195.00,173.70 197.70,173.10 200.50,175.00 " class="polyStyle" id="340422" style="fill:#d4ecb2"/>
<path d="" class="polyStyle" id="210281" style="fill:#ee8b94"/>
<path d="" class="polyStyle" id="440883" style="fill:#f6f67b"/>
<path d="" class="polyStyle" id="469006" style="fill:#d4ecb2"/>
<path d="" class="polyStyle" id="469002" style="fill:#ee8b94"/>
<path d="" class="polyStyle" id="469005" style="fill:#fbe6ef"/>
<path d="" class="polyStyle" id="440882" style="fill:#ee8b94"/>
<path d="" class="polyStyle" id="450681" style="fill:#ee8b94"/>
<path d="" class="polyStyle" id="441581" style="fill:#d4ecb2"/>
<path d="" class="polyStyle" id="421087" style="fill:#ee8b94"/>
<path d="" class="polyStyle" id="420984" style="fill:#fbe6ef"/>
<path d="" class="polyStyle" id="420582" style="fill:#ee8b94"/>
<path d="" class="polyStyle" id="370282" style="fill:#f6f67b"/>
<path d="" class="polyStyle" id="371083" style="fill:#f6f67b"/>
<path d="" class="polyStyle" id="371082" style="fill:#fbe6ef"/>
<path d="" class="polyStyle" id="652801" style="fill:#f8c67d"/>
<path d="" class="polyStyle" id="654301" style="fill:#ee8b94"/>
<path d="" class="polyStyle" id="370687" style="fill:#ee8b94"/>
<path d="" class="polyStyle" id="371482" style="fill:#d4ecb2"/>
<path d="" class="polyStyle" id="421081" style="fill:#fbe6ef"/>
<path d="" class="polyStyle" id="429006" style="fill:#f6f67b"/>
<path d="" class="polyStyle" id="440982" style="fill:#d4ecb2"/>
<path d="" class="polyStyle" id="421181" style="fill:#d4ecb2"/>
<path d="" class="polyStyle" id="321181" style="fill:#d4ecb2"/>
<path d="" class="polyStyle" id="659007" style="fill:#ee8b94"/>
<path d="" class="polyStyle" id="652701" style="fill:#fbe6ef"/>
<path d="" class="polyStyle" id="210781" style="fill:#fbe6ef"/>
<path d="" class="polyStyle" id="460204" style="fill:#f6f67b"/>
<path d="" class="polyStyle" id="210211" style="fill:#f6f67b"/>
<path d="" class="polyStyle" id="450512" style="fill:#ee8b94"/>
<path d="" class="polyStyle" id="450602" style="fill:#fbe6ef"/>
<path d="" class="polyStyle" id="440404" style="fill:#ee8b94"/>
<path d="" class="polyStyle" id="440403" style="fill:#f6f67b"/>
<path d="" class="polyStyle" id="441502" style="fill:#f6f67b"/>
<path d="" class="polyStyle" id="431002" style="fill:#d4ecb2"/>
<path d="" class="polyStyle" id="500107" style="fill:#fbe6ef"/>
<path d="" class="polyStyle" id="430611" style="fill:#d4ecb2"/>
<path d="" class="polyStyle" id="511304" style="fill:#fbe6ef"/>
<path d="" class="polyStyle" id="340711" style="fill:#ee8b94"/>
<path d="" class="polyStyle" id="320118" style="fill:#f6f67b"/>
<path d="" class="polyStyle" id="510704" style="fill:#f6f67b"/>
<path d="" class="polyStyle" id="411502" style="fill:#ee8b94"/>
<polygon points="252.80,168.40 257.40,173.20 259.10,176.90 259.90,177.70 261.00,177.50 267.30,174.00 273.30,172.70 274.10,172.40 273.10,176.20 272.80,179.10 272.80,182.30 271.90,183.80 271.60,184.30 272.70,186.80 274.80,193.30 275.80,196.60 278.30,199.60 281.30,200.60 286.90,200.10 289.40,200.10 290.80,201.30 290.50,203.40 288.50,205.30 287.20,206.90 287.50,210.30 288.30,214.40 288.30,215.60 287.40,216.20 284.80,218.20 284.00,220.70 284.90,223.20 286.90,223.60 290.30,223.50 293.20,224.80 304.50,229.40 306.00,229.80 307.40,231.30 312.50,237.20 313.60,238.90 313.30,240.10 312.50,241.80 313.40,243.40 314.60,245.00 314.00,248.10 312.20,254.40 312.60,256.10 313.90,257.10 315.80,257.90 317.00,259.30 319.10,260.80 321.00,260.30 322.90,259.00 324.70,259.20 326.40,261.10 326.80,263.70 325.90,267.40 324.20,268.10 321.70,268.60 319.90,270.10 317.80,271.90 315.20,272.70 311.70,271.80 310.80,273.90 309.90,279.70 309.30,281.10 309.40,282.00 308.70,284.00 309.00,285.80 309.50,289.40 309.60,291.10 309.50,292.50 311.40,295.00 310.50,297.70 309.30,299.50 308.10,301.40 307.80,304.20 307.40,308.90 305.80,308.90 302.90,309.00 299.10,308.90 289.20,308.30 283.30,308.20 274.30,308.40 270.90,308.40 268.00,307.70 266.70,305.20 265.60,302.50 264.40,299.40 263.20,295.50 262.50,292.20 262.50,287.30 263.00,283.40 263.40,278.80 263.00,275.90 264.80,273.40 267.60,271.90 270.40,269.20 267.80,267.30 264.60,266.00 261.90,264.90 260.30,262.10 263.00,260.70 265.60,257.60 265.80,255.00 264.60,252.00 263.00,248.70 261.80,246.10 260.30,243.10 257.70,240.20 254.60,238.50 252.90,234.30 252.00,231.20 248.60,230.10 245.20,228.80 242.40,226.90 239.80,224.50 237.20,222.70 234.60,223.00 232.20,220.20 231.00,216.50 230.30,213.90 228.60,211.30 225.60,208.80 222.80,208.40 222.90,205.10 223.70,202.30 223.40,199.40 221.10,196.50 218.90,194.70 219.20,194.40 219.30,194.00 219.50,193.70 219.90,193.50 220.40,193.40 221.00,193.30 221.40,193.00 221.50,192.70 221.50,192.40 222.00,191.90 221.80,191.10 221.20,190.80 220.80,190.50 221.10,189.30 221.00,188.60 221.20,188.30 221.70,188.30 222.80,188.20 223.20,188.20 223.90,188.40 224.70,188.50 226.00,188.70 229.30,188.80 230.00,189.20 230.30,189.60 230.50,190.10 231.50,191.30 232.20,191.60 231.90,192.20 231.20,193.60 231.00,194.70 231.20,196.20 232.90,198.00 233.20,198.00 233.90,197.80 234.20,197.70 234.50,197.50 235.10,197.40 235.00,197.70 235.00,198.00 235.30,198.80 236.00,199.90 236.20,200.30 236.00,201.50 236.60,202.50 238.50,202.50 239.00,202.50 240.40,203.10 241.40,203.80 241.70,203.90 242.70,203.90 243.90,203.30 244.10,203.00 243.70,202.80 243.40,202.50 241.70,199.90 242.30,199.50 243.10,200.10 243.90,198.60 244.20,197.90 244.20,197.30 243.60,195.60 243.30,195.20 245.80,195.30 246.40,195.60 247.70,196.70 248.00,196.50 249.00,195.40 249.80,196.40 250.40,196.90 251.40,197.60 252.00,197.80 252.50,197.70 253.00,197.30 253.30,197.20 253.90,197.20 255.00,197.50 255.30,197.40 255.60,196.80 255.70,196.20 255.50,195.60 256.10,194.60 256.00,194.30 256.30,193.70 256.00,193.10 255.40,192.80 255.10,192.50 256.60,191.50 256.90,191.10 257.20,190.30 257.90,188.70 254.70,188.40 253.60,189.00 252.70,189.50 251.60,189.90 251.40,189.60 251.30,189.20 251.30,188.80 251.40,188.50 252.60,187.80 253.60,187.30 254.20,186.80 255.90,183.60 256.90,182.00 257.50,181.00 250.20,176.50 250.40,176.00 250.50,175.20 249.90,174.90 243.60,171.60 248.10,165.40 252.80,168.40 " class="polyStyle" id="340404" style="fill:#fbe6ef"/>
<polygon points="341.10,166.80 344.70,166.80 344.80,172.50 344.90,173.90 344.20,174.50 340.20,175.80 337.80,176.50 337.00,177.10 337.20,178.00 340.70,182.00 340.10,183.40 338.50,184.60 338.10,186.30 338.60,189.40 337.60,192.00 334.70,197.80 333.90,203.10 333.70,207.40 334.10,210.50 335.30,213.40 338.20,217.10 338.10,218.50 337.40,219.10 334.60,218.80 333.20,218.50 332.10,219.00 331.20,221.80 331.80,222.40 332.70,224.80 333.40,225.70 333.40,227.00 335.10,228.30 337.10,229.80 339.70,230.30 341.00,230.30 343.40,231.30 343.50,233.00 341.70,234.80 341.70,236.10 343.10,236.90 347.60,237.10 349.80,236.20 350.90,235.90 352.10,236.50 355.30,238.70 356.70,239.30 355.80,240.10 355.30,241.60 355.20,242.90 355.80,243.90 357.30,244.30 358.30,245.10 358.20,248.40 357.70,250.00 356.50,250.90 355.70,251.50 355.30,252.60 355.80,254.90 354.40,257.30 353.20,259.00 353.20,261.80 352.40,263.60 352.50,266.40 352.80,270.50 348.80,275.90 343.50,281.30 342.20,283.60 341.90,285.90 341.40,288.90 340.00,291.30 338.00,293.60 336.30,295.40 331.00,296.80 327.90,298.10 324.20,300.60 321.90,305.60 322.00,309.50 320.50,308.80 317.40,309.20 314.60,309.10 311.10,309.00 308.50,308.90 307.40,308.90 307.80,304.20 308.10,301.40 309.30,299.50 310.50,297.70 311.40,295.00 309.50,292.50 309.60,291.10 309.50,289.40 309.00,285.80 308.70,284.00 309.40,282.00 309.30,281.10 309.90,279.70 310.80,273.90 311.70,271.80 315.20,272.70 317.80,271.90 319.90,270.10 321.70,268.60 324.20,268.10 325.90,267.40 326.80,263.70 326.40,261.10 324.70,259.20 322.90,259.00 321.00,260.30 319.10,260.80 317.00,259.30 315.80,257.90 313.90,257.10 312.60,256.10 312.20,254.40 314.00,248.10 314.60,245.00 313.40,243.40 312.50,241.80 313.30,240.10 313.60,238.90 312.50,237.20 307.40,231.30 306.00,229.80 304.50,229.40 293.20,224.80 290.30,223.50 286.90,223.60 284.90,223.20 284.00,220.70 284.80,218.20 287.40,216.20 288.30,215.60 288.30,214.40 287.50,210.30 287.20,206.90 288.50,205.30 290.50,203.40 290.80,201.30 289.40,200.10 286.90,200.10 281.30,200.60 278.30,199.60 275.80,196.60 274.80,193.30 272.70,186.80 271.60,184.30 271.90,183.80 272.80,182.30 272.80,179.10 273.10,176.20 274.10,172.40 274.80,172.30 279.50,168.80 289.60,165.30 305.00,163.90 310.30,164.30 314.60,166.30 318.30,168.20 323.00,168.50 325.70,168.20 329.10,166.30 337.70,160.80 338.00,160.60 341.10,166.80 " class="polyStyle" id="340403" style="fill:#ee8b94"/>
<polygon points="382.50,123.90 385.70,124.70 388.20,126.00 392.70,126.60 396.80,129.00 397.50,132.40 400.40,132.80 403.90,132.10 407.00,131.80 409.30,134.50 412.40,134.20 415.40,135.00 416.20,136.60 419.10,139.50 415.00,142.10 412.20,143.90 411.50,147.10 410.50,150.20 409.50,154.00 406.10,154.80 402.70,156.80 399.60,158.40 397.70,161.40 399.70,164.70 402.30,167.50 403.50,170.00 405.70,179.00 407.40,182.10 409.40,185.40 410.90,188.30 412.20,191.00 413.90,194.90 414.40,196.40 415.40,199.70 416.50,203.00 417.30,206.30 417.30,209.10 417.50,212.00 418.70,216.20 422.60,220.20 424.40,223.40 424.40,226.30 422.90,228.10 420.50,229.00 419.60,230.40 418.40,232.70 418.30,233.50 413.40,232.90 407.10,230.40 406.90,230.90 406.50,231.50 405.80,231.80 405.10,232.20 404.50,232.30 403.80,232.70 403.40,233.20 402.90,233.70 402.40,234.30 401.80,234.90 401.20,235.00 400.50,234.90 399.80,234.60 399.20,234.30 398.50,234.30 397.80,234.30 397.20,234.30 396.50,234.50 395.80,235.10 395.40,235.70 395.00,236.20 394.80,236.80 394.40,237.40 394.00,237.90 393.40,238.50 392.90,239.10 392.20,239.60 392.10,239.90 390.90,240.60 389.10,241.50 387.40,241.90 386.70,241.90 384.70,240.90 383.30,240.70 382.70,240.60 382.00,240.20 381.30,240.00 380.70,240.00 380.00,240.10 379.30,240.10 378.70,240.20 378.00,240.30 377.30,240.50 376.70,240.50 376.00,240.80 375.30,240.90 374.90,240.50 374.40,239.90 373.90,239.30 373.20,238.80 372.50,238.20 371.90,237.70 371.20,237.20 370.50,237.10 369.90,237.40 369.20,237.70 368.60,237.60 367.90,237.20 367.20,237.30 366.60,237.30 365.90,237.10 365.20,236.70 364.70,236.40 362.10,236.60 361.40,236.90 360.70,237.10 360.00,237.50 359.50,238.00 358.50,238.60 356.70,239.30 355.30,238.70 352.10,236.50 350.90,235.90 349.80,236.20 347.60,237.10 343.10,236.90 341.70,236.10 341.70,234.80 343.50,233.00 343.40,231.30 341.00,230.30 339.70,230.30 337.10,229.80 335.10,228.30 333.40,227.00 333.40,225.70 332.70,224.80 331.80,222.40 331.20,221.80 332.10,219.00 333.20,218.50 334.60,218.80 337.40,219.10 338.10,218.50 338.20,217.10 335.30,213.40 334.10,210.50 333.70,207.40 333.90,203.10 334.70,197.80 337.60,192.00 338.60,189.40 338.10,186.30 338.50,184.60 340.10,183.40 340.70,182.00 337.20,178.00 337.00,177.10 337.80,176.50 340.20,175.80 344.20,174.50 344.90,173.90 344.80,172.50 344.70,166.80 341.10,166.80 338.00,160.60 343.40,158.20 354.50,156.50 357.50,155.30 360.50,153.00 364.30,149.80 365.80,147.20 366.60,143.80 365.60,141.70 363.60,139.90 363.90,139.80 361.10,137.60 358.40,135.80 358.00,133.90 359.40,130.30 359.80,129.40 364.00,128.80 367.30,128.20 370.00,127.10 373.20,126.10 376.50,125.00 379.90,123.50 382.50,123.90 " class="polyStyle" id="340402" style="fill:#d4ecb2"/>
<polygon points="179.90,36.00 184.10,36.90 185.20,37.10 186.30,37.10 189.20,38.20 192.20,39.00 194.80,39.90 197.20,41.50 198.50,44.60 199.40,45.00 200.20,43.00 201.00,41.40 201.70,41.70 204.60,43.80 207.30,44.60 210.00,45.30 212.50,46.00 212.10,47.00 213.30,50.50 216.30,51.70 218.30,51.90 220.60,51.20 224.70,54.20 227.60,55.40 228.70,56.20 231.20,56.40 234.00,56.50 236.60,56.70 238.10,58.00 236.90,60.60 234.90,63.80 236.30,64.30 239.00,66.30 241.50,68.00 244.20,69.80 246.80,71.60 249.50,73.60 253.10,76.10 255.70,77.90 258.40,79.90 261.00,79.60 262.60,79.10 263.60,78.80 265.40,79.10 267.80,80.50 268.10,83.00 267.30,86.20 269.60,87.40 272.10,89.10 275.90,91.60 279.00,93.70 279.80,94.70 278.50,97.50 279.00,98.00 281.40,98.40 284.70,98.60 287.80,99.50 291.00,101.50 293.60,103.20 296.40,105.10 299.10,106.60 301.70,107.40 304.40,108.10 306.90,108.70 309.60,109.50 312.30,110.20 314.90,110.90 317.10,112.40 317.50,112.40 320.50,115.30 323.10,118.10 324.70,120.90 326.70,123.60 329.30,124.00 332.10,123.00 333.10,124.10 333.10,124.80 331.70,128.50 335.10,128.30 337.10,131.50 338.60,134.50 340.00,136.20 343.20,136.50 344.80,137.10 346.60,137.60 345.70,139.10 339.40,141.90 341.50,144.20 349.30,140.70 352.00,140.20 353.50,140.90 355.30,143.00 356.30,143.60 357.30,142.70 360.40,142.00 363.60,139.90 365.60,141.70 366.60,143.80 365.80,147.20 364.30,149.80 360.50,153.00 357.50,155.30 354.50,156.50 343.40,158.20 338.00,160.60 337.70,160.80 329.10,166.30 325.70,168.20 323.00,168.50 318.30,168.20 314.60,166.30 310.30,164.30 305.00,163.90 289.60,165.30 279.50,168.80 274.80,172.30 274.10,172.40 273.30,172.70 267.30,174.00 261.00,177.50 259.90,177.70 259.10,176.90 257.40,173.20 252.80,168.40 248.10,165.40 243.40,162.40 236.80,169.40 232.50,165.40 230.40,156.70 229.50,154.60 227.80,152.90 221.00,149.80 211.80,146.70 209.90,146.00 206.60,144.90 202.30,144.10 199.60,142.90 198.10,140.80 198.30,137.40 198.80,133.40 197.30,132.10 193.10,130.70 192.10,129.50 192.30,125.20 190.60,119.70 188.90,115.10 187.60,114.20 185.60,114.20 183.90,114.20 182.80,113.50 181.10,108.40 180.10,106.50 178.70,105.70 173.10,107.40 166.10,111.90 164.30,112.10 162.40,111.30 159.80,107.40 153.80,97.90 151.80,92.60 152.30,89.40 152.70,87.10 151.80,82.70 151.10,75.20 151.40,73.10 152.50,71.80 158.00,69.50 162.90,67.40 163.50,63.90 163.40,60.60 164.60,60.40 165.30,59.70 166.10,55.10 165.10,53.90 163.70,52.70 163.20,51.20 163.60,49.20 164.90,45.80 168.30,45.20 170.00,45.50 171.30,44.40 171.80,41.90 172.50,36.70 176.70,35.20 179.90,36.00 " class="polyStyle" id="340406" style="fill:#f6f67b"/>
<path d="" class="polyStyle" id="320302" style="fill:#d4ecb2"/>
<path d="" class="polyStyle" id="140311" style="fill:#ee8b94"/>
<path d="" class="polyStyle" id="610802" style="fill:#ee8b94"/>
<path d="" class="polyStyle" id="120116" style="fill:#f6f67b"/>
<path d="" class="polyStyle" id="130303" style="fill:#fbe6ef"/>
<path d="" class="polyStyle" id="140211" style="fill:#f6f67b"/>
<path d="" class="polyStyle" id="150207" style="fill:#fbe6ef"/>
<path d="" class="polyStyle" id="211403" style="fill:#f6f67b"/>
<path d="" class="polyStyle" id="150802" style="fill:#f8c67d"/>
<path d="" class="polyStyle" id="210112" style="fill:#ee8b94"/>
<path d="" class="polyStyle" id="230406" style="fill:#d4ecb2"/>
<path d="" class="polyStyle" id="110113" style="fill:#fbe6ef"/>
<path d="" class="polyStyle" id="341702" style="fill:#fbe6ef"/>
<path d="" class="polyStyle" id="420303" style="fill:#ee8b94"/>
<path d="" class="polyStyle" id="421002" style="fill:#f6f67b"/>
<path d="" class="polyStyle" id="420117" style="fill:#f6f67b"/>
<path d="" class="polyStyle" id="440904" style="fill:#f8c67d"/>
<polygon points="188.60,177.50 187.60,176.60 173.90,182.00 174.20,179.90 176.80,178.40 179.20,176.30 178.90,174.20 178.50,173.10 177.50,172.30 175.10,171.80 173.60,170.90 175.20,169.20 170.60,167.20 170.00,166.80 169.10,165.20 167.80,157.00 168.00,155.30 168.60,154.00 169.40,153.20 170.80,152.50 172.60,152.10 174.40,152.20 177.90,153.90 181.20,156.10 183.90,157.10 185.20,157.30 187.80,156.40 188.30,155.00 188.90,155.20 189.80,156.80 196.50,157.20 197.90,155.70 199.00,155.60 201.40,156.30 202.90,155.80 204.60,157.50 204.70,158.30 203.60,160.10 204.30,160.30 207.00,158.80 207.00,158.60 208.80,155.20 209.50,153.20 212.10,150.40 212.80,147.90 211.80,146.70 221.00,149.80 227.80,152.90 229.50,154.60 230.40,156.70 232.50,165.40 236.80,169.40 243.40,162.40 248.10,165.40 243.60,171.60 249.90,174.90 250.50,175.20 250.40,176.00 250.20,176.50 257.50,181.00 256.90,182.00 255.90,183.60 254.20,186.80 253.60,187.30 252.60,187.80 251.40,188.50 251.30,188.80 251.30,189.20 251.40,189.60 251.60,189.90 252.70,189.50 253.60,189.00 254.70,188.40 257.90,188.70 257.20,190.30 256.90,191.10 256.60,191.50 255.10,192.50 255.40,192.80 256.00,193.10 256.30,193.70 256.00,194.30 256.10,194.60 255.50,195.60 255.70,196.20 255.60,196.80 255.30,197.40 255.00,197.50 253.90,197.20 253.30,197.20 253.00,197.30 252.50,197.70 252.00,197.80 251.40,197.60 250.40,196.90 249.80,196.40 249.00,195.40 248.00,196.50 247.70,196.70 246.40,195.60 245.80,195.30 243.30,195.20 243.60,195.60 244.20,197.30 244.20,197.90 243.90,198.60 243.10,200.10 242.30,199.50 241.70,199.90 243.40,202.50 243.70,202.80 244.10,203.00 243.90,203.30 242.70,203.90 241.70,203.90 241.40,203.80 240.40,203.10 239.00,202.50 238.50,202.50 236.60,202.50 236.00,201.50 236.20,200.30 236.00,199.90 235.30,198.80 235.00,198.00 235.00,197.70 235.10,197.40 234.50,197.50 234.20,197.70 233.90,197.80 233.20,198.00 232.90,198.00 231.20,196.20 231.00,194.70 231.20,193.60 231.90,192.20 232.20,191.60 231.50,191.30 230.50,190.10 230.30,189.60 230.00,189.20 229.30,188.80 226.00,188.70 224.70,188.50 223.90,188.40 223.20,188.20 222.80,188.20 221.70,188.30 221.20,188.30 221.00,188.60 221.10,189.30 220.80,190.50 221.20,190.80 221.80,191.10 222.00,191.90 221.50,192.40 221.50,192.70 221.40,193.00 221.00,193.30 220.40,193.40 219.90,193.50 219.50,193.70 219.30,194.00 219.20,194.40 218.90,194.70 218.00,193.90 215.40,192.30 213.80,189.60 213.20,186.60 212.70,183.90 209.70,181.30 206.40,180.80 204.10,177.90 203.90,176.20 200.50,175.00 197.70,173.10 195.00,173.70 191.50,175.80 188.60,177.20 188.60,177.50 " class="polyStyle" id="340405" style="fill:#ee8b94"/>
<path d="" class="polyStyle" id="460205" style="fill:#ee8b94"/>
<path d="" class="polyStyle" id="460202" style="fill:#f6f67b"/>
<path d="" class="polyStyle" id="460203" style="fill:#fbe6ef"/>
<path d="" class="polyStyle" id="420304" style="fill:#f6f67b"/>
<path d="" class="polyStyle" id="445302" style="fill:#ee8b94"/>
<path d="" class="polyStyle" id="410202" style="fill:#d4ecb2"/>
<path d="" class="polyStyle" id="659008" style="fill:#f8c67d"/>
<path d="" class="polyStyle" id="340705" style="fill:#fbe6ef"/>
<path d="" class="polyStyle" id="340800" style="fill:#fbe6ef"/>
<path d="" class="polyStyle" id="440800" style="fill:#f6f67b"/>
<path d="" class="polyStyle" id="440900" style="fill:#ee8b94"/>
<path d="" class="polyStyle" id="460200" style="fill:#f6f67b"/>
<path d="" class="polyStyle" id="460000" style="fill:#ee8b94"/>
<path d="" class="polyStyle" id="450600" style="fill:#ee8b94"/>
<path d="" class="polyStyle" id="440400" style="fill:#f6f67b"/>
<path d="" class="polyStyle" id="441700" style="fill:#f6f67b"/>
<path d="" class="polyStyle" id="441500" style="fill:#f6f67b"/>
<path d="" class="polyStyle" id="350600" style="fill:#ee8b94"/>
<path d="" class="polyStyle" id="710000" style="fill:#f6f67b"/>
<path d="" class="polyStyle" id="510400" style="fill:#f6f67b"/>
<path d="" class="polyStyle" id="520500" style="fill:#ee8b94"/>
<path d="" class="polyStyle" id="431200" style="fill:#f6f67b"/>
<path d="" class="polyStyle" id="430600" style="fill:#f6f67b"/>
<path d="" class="polyStyle" id="511400" style="fill:#d4ecb2"/>
<path d="" class="polyStyle" id="421000" style="fill:#ee8b94"/>
<path d="" class="polyStyle" id="341700" style="fill:#f6f67b"/>
<path d="" class="polyStyle" id="420500" style="fill:#f6f67b"/>
<path d="" class="polyStyle" id="511300" style="fill:#f6f67b"/>
<path d="" class="polyStyle" id="420900" style="fill:#f6f67b"/>
<path d="" class="polyStyle" id="511700" style="fill:#ee8b94"/>
<path d="" class="polyStyle" id="420600" style="fill:#d4ecb2"/>
<path d="" class="polyStyle" id="411500" style="fill:#fbe6ef"/>
<path d="" class="polyStyle" id="510800" style="fill:#ee8b94"/>
<path d="" class="polyStyle" id="420300" style="fill:#fbe6ef"/>
<path d="" class="polyStyle" id="611000" style="fill:#ee8b94"/>
<path d="" class="polyStyle" id="620800" style="fill:#fbe6ef"/>
<path d="" class="polyStyle" id="370200" style="fill:#ee8b94"/>
<path d="" class="polyStyle" id="371000" style="fill:#f6f67b"/>
<path d="" class="polyStyle" id="370600" style="fill:#fbe6ef"/>
<path d="" class="polyStyle" id="120000" style="fill:#f6f67b"/>
<path d="" class="polyStyle" id="130200" style="fill:#ee8b94"/>
<path d="" class="polyStyle" id="130300" style="fill:#f6f67b"/>
<path d="" class="polyStyle" id="652900" style="fill:#fbe6ef"/>
<path d="" class="polyStyle" id="" style="fill:#d4ecb2"/>
<path d="" class="polyStyle" id="350500" style="fill:#fbe6ef"/>
<path d="" class="polyStyle" id="440400" style="fill:#f6f67b"/>
<path d="" class="polyStyle" id="421100" style="fill:#d4ecb2"/>
<path d="" class="polyStyle" id="420100" style="fill:#fbe6ef"/>
<path d="" class="polyStyle" id="532500" style="fill:#fbe6ef"/>
<path d="" class="polyStyle" id="654200" style="fill:#fbe6ef"/>
<path d="" class="polyStyle" id="210700" style="fill:#d4ecb2"/>
<path d="" class="polyStyle" id="451000" style="fill:#fbe6ef"/>
<path d="" class="polyStyle" id="653100" style="fill:#ee8b94"/>
<path d="" class="polyStyle" id="440400" style="fill:#f6f67b"/>
<path d="" class="polyStyle" id="522600" style="fill:#fbe6ef"/>
<path d="" class="polyStyle" id="520200" style="fill:#d5ecb2"/>
<path d="" class="polyStyle" id="522300" style="fill:#f6f67b"/>
<path d="" class="polyStyle" id="450500" style="fill:#ee8b94"/>
<path d="" class="polyStyle" id="620000" style="fill:#f6f67b"/>
<path d="" class="polyStyle" id="430000" style="fill:#fbe6ef"/>
<path d="" class="polyStyle" id="420000" style="fill:#ee8b94"/>
<path d="" class="polyStyle" id="410000" style="fill:#f6f67b"/>
<path d="" class="polyStyle" id="350000" style="fill:#fbe6ef"/>
<path d="" class="polyStyle" id="450000" style="fill:#f6f67b"/>
<path d="" class="polyStyle" id="520000" style="fill:#ee8b94"/>
</svg>
