<?xml version="1.0" encoding="UTF-8"?>
<!DOCTYPE svg PUBLIC "-//W3C//DTD SVG 1.1 Tiny//EN" "http://www.w3.org/Graphics/SVG/1.1/DTD/svg11-tiny.dtd">
<svg version="1.1" xmlns="http://www.w3.org/2000/svg" xmlns:xlink="http://www.w3.org/1999/xlink" width="100%" height="100%" viewBox="0,0,6204,3573">
<title>SVG</title>
<desc>Poligon Test</desc>
<style id="style_css_sheet" type="text/css">
.polyStyle{fill: #cccccc;stroke-width:0;fill-rule:evenodd;}
</style>
<circle cx="4361" cy="879" r="200" stroke="black" stroke-width="1" fill="red" id="340706" position="141" name="义安区"/>
<circle cx="4684" cy="966" r="200" stroke="black" stroke-width="1" fill="red" id="340705" name="铜官区"/>
<circle cx="4224" cy="1532" r="200" stroke="black" stroke-width="1" fill="red" id="340711"position="1412" name="郊区"/>
<circle cx="1444" cy="2166" r="200" stroke="black" stroke-width="1" fill="red" id="340722" name="枞阳县"/>
<path d="" class="polyStyle" id="" style="fill:#ee8b94"/>
<path d="" class="polyStyle" id="623022" style="fill:#fbe6ef"/>
<path d="" class="polyStyle" id="211421" style="fill:#f6f67b"/>
<path d="" class="polyStyle" id="532524" style="fill:#ee8b94"/>
<path d="" class="polyStyle" id="440825" style="fill:#f6f67b"/>
<path d="" class="polyStyle" id="441721" style="fill:#f6f67b"/>
<path d="" class="polyStyle" id="450521" style="fill:#f6f67b"/>
<path d="" class="polyStyle" id="450123" style="fill:#fbe6ef"/>
<path d="" class="polyStyle" id="350624" style="fill:#f6f67b"/>
<path d="" class="polyStyle" id="" style="fill:#fbe6ef"/>
<path d="" class="polyStyle" id="451224" style="fill:#fbe6ef"/>
<path d="" class="polyStyle" id="350627" style="fill:#f6f67b"/>
<path d="" class="polyStyle" id="" style="fill:#f6f67b"/>
<path d="" class="polyStyle" id="350525" style="fill:#f6f67b"/>
<path d="" class="polyStyle" id="530124" style="fill:#ee8b94"/>
<path d="" class="polyStyle" id="522627" style="fill:#ee8b94"/>
<path d="" class="polyStyle" id="510421" style="fill:#fbe6ef"/>
<path d="" class="polyStyle" id="522623" style="fill:#d4ecb2"/>
<path d="" class="polyStyle" id="430321" style="fill:#d4ecb2"/>
<path d="" class="polyStyle" id="511129" style="fill:#d4ecb2"/>
<path d="" class="polyStyle" id="511423" style="fill:#ee8b94"/>
<path d="" class="polyStyle" id="421023" style="fill:#f6f67b"/>
<path d="" class="polyStyle" id="511724" style="fill:#f6f67b"/>
<path d="" class="polyStyle" id="420526" style="fill:#fbe6ef"/>
<path d="" class="polyStyle" id="511923" style="fill:#fbe6ef"/>
<path d="" class="polyStyle" id="420325" style="fill:#fbe6ef"/>
<path d="" class="polyStyle" id="511921" style="fill:#f6f67b"/>
<path d="" class="polyStyle" id="542525" style="fill:#f6f67b"/>
<path d="" class="polyStyle" id="611026" style="fill:#ee8b94"/>
<path d="" class="polyStyle" id="411023" style="fill:#fbe6ef"/>
<path d="" class="polyStyle" id="632323" style="fill:#f6f67b"/>
<path d="" class="polyStyle" id="140525" style="fill:#d4ecb2"/>
<path d="" class="polyStyle" id="410922" style="fill:#ee8b94"/>
<path d="" class="polyStyle" id="621027" style="fill:#ee8b94"/>
<path d="" class="polyStyle" id="130427" style="fill:#f6f67b"/>
<path d="" class="polyStyle" id="130121" style="fill:#ee8b94"/>
<path d="" class="polyStyle" id="610823" style="fill:#fbe6ef"/>
<path d="" class="polyStyle" id="130225" style="fill:#fbe6ef"/>
<path d="" class="polyStyle" id="130322" style="fill:#d4ecb2"/>
<path d="" class="polyStyle" id="653130" style="fill:#f6f67b"/>
<path d="" class="polyStyle" id="130822" style="fill:#fbe6ef"/>
<path d="" class="polyStyle" id="211221" style="fill:#f6f67b"/>
<path d="" class="polyStyle" id="210921" style="fill:#f6f67b"/>
<path d="" class="polyStyle" id="150223" style="fill:#f8c67d"/>
<path d="" class="polyStyle" id="220422" style="fill:#d4ecb2"/>
<path d="M5446,1278 L5446,1278 L5441,1278 L5442,1275 L5445,1269 L5447,1267 L5451,1267 L5458,1268 L5465,1266 L5471,1260 L5477,1262 L5488,1268 L5491,1269 L5492,1265 L5492,1259 L5499,1259 L5502,1260 L5501,1263 L5491,1278 L5490,1287 L5492,1289 L5497,1286 L5504,1277 L5509,1269 L5510,1265 L5514,1263 L5519,1260 L5521,1262 L5520,1267 L5513,1274 L5512,1279 L5513,1284 L5516,1286 L5514,1289 L5510,1287 L5507,1286 L5502,1289 L5499,1294 L5500,1297 L5505,1299 L5511,1295 L5514,1293 L5523,1293 L5524,1289 L5522,1282 L5523,1279 L5530,1274 L5537,1267 L5541,1270 L5539,1272 L5531,1282 L5530,1287 L5533,1290 L5533,1293 L5531,1296 L5527,1297 L5519,1299 L5520,1304 L5523,1307 L5530,1308 L5533,1311 L5532,1315 L5532,1320 L5536,1323 L5539,1324 L5543,1329 L5545,1335 L5540,1335 L5528,1329 L5525,1326 L5520,1326 L5517,1326 L5518,1322 L5517,1319 L5512,1320 L5502,1323 L5498,1321 L5493,1316 L5486,1314 L5474,1313 L5476,1311 L5479,1308 L5480,1304 L5482,1301 L5479,1301 L5472,1303 L5466,1301 L5457,1295 L5455,1292 L5448,1284 L5453,1279 L5454,1275 L5451,1274 L5446,1278z M5880,741 L5886,747 L5887,751 L5887,754 L5889,758 L5888,765 L5888,768 L5897,772 L5900,774 L5908,776 L5911,776 L5921,779 L5927,779 L5930,779 L5932,786 L5935,788 L5938,789 L5945,792 L5962,803 L5965,803 L5972,808 L5978,807 L5984,808 L5993,809 L6000,813 L6003,814 L6008,811 L6012,813 L6018,813 L6021,813 L6025,807 L6025,804 L6038,801 L6041,803 L6048,808 L6059,808 L6062,810 L6070,806 L6087,802 L6090,793 L6096,788 L6100,791 L6098,794 L6101,796 L6104,796 L6107,796 L6114,796 L6125,800 L6128,798 L6140,796 L6147,798 L6153,798 L6156,804 L6163,811 L6167,813 L6170,811 L6176,810 L6180,805 L6186,801 L6189,796 L6194,796 L6201,796 L6203,799 L6204,802 L6203,810 L6201,814 L6199,823 L6200,827 L6199,830 L6183,844 L6183,847 L6184,850 L6185,853 L6182,856 L6174,864 L6174,872 L6179,876 L6174,881 L6174,891 L6168,892 L6164,893 L6165,896 L6166,899 L6158,902 L6160,905 L6166,909 L6169,913 L6176,922 L6181,924 L6183,929 L6182,932 L6180,935 L6179,938 L6174,945 L6177,947 L6172,951 L6169,951 L6171,954 L6174,957 L6173,960 L6167,966 L6169,972 L6169,975 L6169,978 L6165,985 L6169,987 L6172,989 L6169,1003 L6170,1007 L6173,1008 L6179,1009 L6186,1009 L6196,1010 L6199,1010 L6201,1014 L6201,1022 L6197,1028 L6194,1031 L6191,1032 L6188,1031 L6185,1031 L6172,1025 L6169,1026 L6170,1030 L6173,1036 L6175,1038 L6177,1042 L6180,1043 L6182,1051 L6186,1056 L6189,1058 L6189,1062 L6193,1066 L6195,1072 L6198,1079 L6195,1090 L6195,1094 L6195,1097 L6199,1103 L6204,1108 L6202,1111 L6198,1112 L6192,1116 L6190,1122 L6183,1127 L6180,1130 L6176,1133 L6165,1138 L6144,1140 L6135,1144 L6131,1146 L6121,1149 L6118,1152 L6113,1155 L6111,1152 L6097,1148 L6091,1142 L6084,1139 L6081,1134 L6078,1131 L6075,1130 L6069,1130 L6068,1133 L6062,1136 L6059,1140 L6057,1143 L6049,1148 L6035,1152 L6029,1154 L6028,1157 L6022,1161 L6018,1170 L6008,1172 L6005,1171 L5998,1172 L5994,1178 L5986,1184 L5984,1187 L5984,1190 L5983,1193 L5980,1194 L5979,1197 L5976,1199 L5973,1200 L5973,1203 L5971,1209 L5968,1210 L5965,1209 L5959,1212 L5953,1217 L5947,1219 L5945,1222 L5941,1226 L5932,1229 L5929,1234 L5926,1236 L5923,1237 L5922,1241 L5919,1244 L5915,1244 L5903,1245 L5897,1249 L5893,1250 L5890,1250 L5883,1259 L5881,1262 L5877,1262 L5875,1264 L5873,1267 L5865,1271 L5863,1275 L5855,1284 L5849,1287 L5845,1287 L5841,1285 L5837,1286 L5831,1290 L5827,1296 L5824,1299 L5809,1307 L5802,1314 L5802,1320 L5803,1323 L5804,1329 L5798,1336 L5792,1340 L5790,1337 L5784,1334 L5783,1330 L5780,1326 L5774,1321 L5771,1321 L5768,1320 L5763,1315 L5762,1310 L5761,1306 L5756,1302 L5755,1298 L5753,1295 L5745,1297 L5742,1299 L5734,1296 L5719,1301 L5715,1300 L5712,1299 L5710,1296 L5710,1286 L5707,1281 L5704,1279 L5701,1280 L5701,1283 L5695,1287 L5692,1287 L5689,1289 L5686,1290 L5676,1300 L5672,1300 L5669,1299 L5665,1293 L5662,1292 L5655,1295 L5651,1298 L5648,1297 L5643,1302 L5642,1305 L5645,1313 L5642,1316 L5634,1314 L5633,1317 L5632,1323 L5634,1328 L5634,1331 L5633,1337 L5622,1341 L5614,1341 L5610,1344 L5607,1348 L5601,1352 L5600,1357 L5604,1358 L5614,1364 L5617,1367 L5625,1363 L5631,1366 L5635,1365 L5639,1366 L5641,1369 L5637,1376 L5634,1378 L5630,1386 L5621,1386 L5614,1388 L5609,1385 L5607,1393 L5609,1401 L5605,1402 L5597,1398 L5594,1397 L5591,1398 L5588,1396 L5580,1386 L5578,1379 L5572,1377 L5571,1370 L5568,1371 L5568,1374 L5564,1372 L5561,1371 L5562,1374 L5559,1374 L5561,1377 L5562,1380 L5563,1383 L5561,1385 L5558,1396 L5567,1394 L5573,1395 L5577,1397 L5580,1403 L5588,1408 L5593,1407 L5599,1407 L5605,1408 L5608,1410 L5610,1414 L5610,1417 L5610,1420 L5608,1428 L5605,1430 L5600,1424 L5599,1421 L5593,1424 L5588,1423 L5585,1423 L5575,1427 L5570,1427 L5569,1424 L5566,1422 L5561,1425 L5559,1422 L5542,1422 L5534,1421 L5524,1416 L5519,1412 L5513,1409 L5510,1407 L5505,1407 L5502,1404 L5499,1399 L5493,1393 L5491,1388 L5500,1368 L5500,1365 L5497,1357 L5469,1349 L5443,1356 L5408,1366 L5382,1379 L5356,1392 L5328,1418 L5319,1425 L5315,1424 L5311,1423 L5307,1425 L5301,1424 L5298,1421 L5295,1421 L5297,1430 L5295,1441 L5290,1448 L5282,1453 L5277,1456 L5272,1462 L5271,1473 L5270,1476 L5264,1479 L5263,1483 L5259,1486 L5259,1490 L5262,1496 L5257,1497 L5254,1496 L5252,1499 L5252,1502 L5251,1505 L5241,1503 L5244,1511 L5240,1513 L5237,1514 L5233,1513 L5232,1517 L5230,1523 L5227,1526 L5224,1531 L5213,1543 L5209,1548 L5208,1552 L5208,1557 L5207,1560 L5204,1563 L5200,1562 L5198,1558 L5195,1558 L5190,1559 L5184,1559 L5179,1558 L5174,1554 L5171,1555 L5168,1557 L5164,1558 L5160,1556 L5158,1552 L5157,1549 L5159,1545 L5163,1544 L5167,1541 L5167,1535 L5169,1529 L5175,1519 L5177,1514 L5177,1510 L5175,1503 L5173,1500 L5169,1498 L5164,1491 L5154,1489 L5145,1492 L5142,1493 L5136,1495 L5131,1504 L5127,1506 L5124,1505 L5122,1502 L5122,1499 L5118,1492 L5118,1489 L5119,1486 L5124,1481 L5117,1472 L5116,1466 L5113,1461 L5106,1458 L5104,1455 L5106,1452 L5105,1449 L5100,1446 L5094,1439 L5075,1446 L5065,1454 L5056,1463 L5038,1483 L5034,1489 L5032,1496 L5030,1499 L5024,1507 L5022,1514 L5018,1519 L5017,1522 L5014,1524 L5008,1530 L4999,1538 L4997,1544 L4993,1547 L4983,1554 L4974,1561 L4968,1568 L4959,1575 L4949,1579 L4941,1584 L4934,1586 L4926,1590 L4919,1592 L4910,1595 L4902,1597 L4899,1597 L4893,1594 L4890,1593 L4887,1591 L4878,1588 L4870,1581 L4865,1575 L4851,1574 L4841,1576 L4825,1577 L4822,1583 L4821,1587 L4822,1592 L4817,1596 L4814,1595 L4807,1598 L4804,1598 L4800,1599 L4776,1619 L4774,1622 L4771,1625 L4766,1628 L4760,1630 L4756,1631 L4752,1631 L4746,1628 L4741,1627 L4724,1630 L4717,1632 L4714,1634 L4708,1634 L4697,1648 L4692,1655 L4690,1665 L4684,1676 L4683,1679 L4677,1683 L4676,1689 L4670,1692 L4668,1695 L4667,1698 L4657,1699 L4646,1704 L4634,1707 L4631,1710 L4628,1711 L4634,1716 L4645,1723 L4649,1731 L4647,1734 L4635,1741 L4632,1745 L4632,1754 L4637,1760 L4632,1764 L4627,1772 L4627,1778 L4630,1787 L4624,1796 L4623,1801 L4616,1806 L4609,1807 L4606,1809 L4603,1813 L4596,1811 L4591,1806 L4585,1803 L4580,1803 L4568,1806 L4561,1813 L4556,1812 L4553,1812 L4535,1821 L4532,1824 L4521,1838 L4511,1842 L4503,1845 L4502,1851 L4493,1851 L4489,1850 L4476,1842 L4468,1841 L4461,1843 L4450,1848 L4438,1852 L4435,1854 L4434,1858 L4430,1858 L4427,1857 L4416,1857 L4414,1861 L4409,1872 L4404,1867 L4397,1866 L4394,1870 L4392,1876 L4392,1881 L4388,1887 L4383,1892 L4377,1894 L4370,1895 L4364,1894 L4357,1893 L4351,1892 L4344,1890 L4337,1890 L4331,1889 L4324,1888 L4318,1886 L4314,1880 L4317,1875 L4319,1869 L4322,1863 L4323,1858 L4326,1852 L4326,1847 L4328,1841 L4328,1835 L4328,1830 L4326,1823 L4320,1821 L4314,1821 L4307,1820 L4301,1821 L4294,1822 L4288,1823 L4281,1824 L4275,1825 L4268,1826 L4261,1828 L4255,1829 L4248,1830 L4242,1831 L4235,1831 L4229,1832 L4222,1833 L4216,1834 L4209,1834 L4203,1833 L4196,1831 L4191,1827 L4191,1821 L4192,1815 L4193,1810 L4196,1804 L4199,1798 L4200,1792 L4224,1800 L4254,1798 L4263,1795 L4266,1792 L4264,1781 L4265,1775 L4271,1759 L4270,1750 L4266,1738 L4266,1725 L4267,1697 L4267,1691 L4271,1689 L4280,1685 L4289,1678 L4294,1670 L4296,1663 L4299,1647 L4299,1643 L4296,1636 L4285,1616 L4287,1608 L4314,1584 L4326,1576 L4344,1571 L4354,1570 L4360,1568 L4368,1562 L4376,1554 L4380,1547 L4384,1530 L4377,1528 L4376,1524 L4385,1504 L4397,1494 L4466,1458 L4474,1453 L4479,1454 L4484,1457 L4488,1456 L4492,1454 L4496,1449 L4504,1438 L4520,1421 L4531,1412 L4537,1410 L4565,1407 L4575,1404 L4579,1401 L4582,1396 L4593,1392 L4601,1385 L4603,1379 L4599,1377 L4597,1374 L4602,1370 L4623,1362 L4632,1357 L4636,1355 L4638,1352 L4639,1347 L4635,1339 L4635,1336 L4643,1324 L4657,1309 L4672,1298 L4677,1291 L4674,1286 L4662,1277 L4659,1272 L4659,1268 L4660,1260 L4663,1254 L4666,1253 L4671,1256 L4675,1256 L4679,1253 L4682,1247 L4690,1228 L4693,1224 L4695,1224 L4729,1231 L4738,1231 L4741,1229 L4740,1210 L4741,1205 L4745,1201 L4764,1186 L4770,1180 L4770,1176 L4766,1173 L4765,1170 L4768,1167 L4787,1158 L4791,1154 L4792,1150 L4783,1131 L4784,1124 L4793,1116 L4793,1110 L4793,1103 L4799,1101 L4817,1105 L4821,1104 L4828,1097 L4837,1092 L4853,1090 L4872,1095 L4875,1099 L4876,1104 L4877,1116 L4882,1122 L4891,1127 L4891,1132 L4884,1142 L4894,1147 L4916,1152 L4921,1152 L4923,1150 L4926,1150 L4938,1157 L4942,1156 L4951,1141 L4951,1135 L4948,1131 L4938,1123 L4933,1121 L4929,1122 L4926,1122 L4924,1114 L4919,1111 L4922,1108 L4939,1101 L4943,1098 L4950,1095 L4952,1089 L4952,1084 L4955,1078 L4960,1073 L4967,1072 L4972,1071 L4973,1067 L4978,1061 L4985,1061 L4990,1067 L4997,1068 L4999,1062 L5002,1056 L5008,1052 L5015,1049 L5001,1044 L4994,1041 L4988,1041 L4974,1056 L4970,1060 L4966,1060 L4963,1058 L4961,1053 L4959,1048 L4955,1046 L4949,1045 L4936,1038 L4932,1035 L4931,1030 L4930,1013 L4931,994 L4935,986 L4938,984 L4939,981 L4941,973 L4945,963 L4957,943 L4975,912 L4975,909 L4972,907 L4960,900 L4949,894 L4944,893 L4937,896 L4935,910 L4934,915 L4931,918 L4927,919 L4924,917 L4920,916 L4914,921 L4897,931 L4885,935 L4883,932 L4882,924 L4884,888 L4885,881 L4889,875 L4895,870 L4903,867 L4905,857 L4903,840 L4920,837 L4917,804 L4926,796 L4928,791 L4925,788 L4919,783 L4920,780 L4927,778 L4925,765 L4956,761 L4952,742 L4939,744 L4938,727 L4923,728 L4919,691 L4849,699 L4847,683 L4827,684 L4828,670 L4825,663 L4819,659 L4815,653 L4812,650 L4807,651 L4802,652 L4801,648 L4800,645 L4792,641 L4788,637 L4774,619 L4773,625 L4770,630 L4765,636 L4758,640 L4752,644 L4745,647 L4736,655 L4729,662 L4726,667 L4724,672 L4720,678 L4717,684 L4715,689 L4711,695 L4708,701 L4704,706 L4703,712 L4700,718 L4696,723 L4694,729 L4690,734 L4677,746 L4670,750 L4664,755 L4657,760 L4653,763 L4641,772 L4638,773 L4631,777 L4624,783 L4618,788 L4611,792 L4592,809 L4585,814 L4580,818 L4575,824 L4570,829 L4564,835 L4559,839 L4555,833 L4553,831 L4551,830 L4540,832 L4528,846 L4525,853 L4528,862 L4527,872 L4528,876 L4538,878 L4542,879 L4539,885 L4531,889 L4525,890 L4521,887 L4516,888 L4511,892 L4510,897 L4508,900 L4504,898 L4495,899 L4490,902 L4491,910 L4483,920 L4471,930 L4465,932 L4460,931 L4446,927 L4426,916 L4424,910 L4431,905 L4435,902 L4437,895 L4434,892 L4427,895 L4424,897 L4415,896 L4389,891 L4382,891 L4378,893 L4375,898 L4374,903 L4375,912 L4376,918 L4370,921 L4362,926 L4354,928 L4337,929 L4293,918 L4288,919 L4283,925 L4278,936 L4268,967 L4251,995 L4207,1045 L4199,1056 L4190,1065 L4173,1076 L4110,1109 L4111,1100 L4110,1079 L4109,1052 L4108,1017 L4108,988 L4106,961 L4106,930 L4103,901 L4098,869 L4095,843 L4094,815 L4093,786 L4094,756 L4095,730 L4093,662 L4088,586 L4089,551 L4094,516 L4116,455 L4150,380 L4163,354 L4184,325 L4199,297 L4207,261 L4216,225 L4226,184 L4241,148 L4264,119 L4292,95 L4319,75 L4350,58 L4378,41 L4410,29 L4441,20 L4475,15 L4507,13 L4535,10 L4570,4 L4597,2 L4634,0 L4669,2 L4704,21 L4730,46 L4748,80 L4766,115 L4786,146 L4816,180 L4841,211 L4878,246 L4910,266 L4945,288 L4983,305 L5012,310 L5047,310 L5076,308 L5104,302 L5130,295 L5157,284 L5188,268 L5217,254 L5246,236 L5263,227 L5272,222 L5307,241 L5335,246 L5366,263 L5387,289 L5415,259 L5446,262 L5474,292 L5493,318 L5476,346 L5456,371 L5441,403 L5455,432 L5461,441 L5461,449 L5463,460 L5464,466 L5470,474 L5481,482 L5492,483 L5511,483 L5518,484 L5531,484 L5544,488 L5552,492 L5552,504 L5552,507 L5547,518 L5548,524 L5558,529 L5573,543 L5586,551 L5597,551 L5606,554 L5615,556 L5625,556 L5652,556 L5678,556 L5685,556 L5691,558 L5697,565 L5706,571 L5733,581 L5765,589 L5794,601 L5819,633 L5822,655 L5836,658 L5840,657 L5844,661 L5844,666 L5841,672 L5840,683 L5842,686 L5846,690 L5848,693 L5851,695 L5857,696 L5858,699 L5862,703 L5866,705 L5873,705 L5876,706 L5879,708 L5875,724 L5872,726 L5871,731 L5877,734 L5880,741 L5880,741z M5362,1053 L5364,1047 L5357,1048 L5351,1048 L5343,1052 L5335,1054 L5328,1055 L5321,1056 L5314,1058 L5307,1059 L5300,1057 L5293,1058 L5287,1061 L5281,1065 L5277,1072 L5270,1077 L5263,1077 L5257,1076 L5258,1070 L5264,1065 L5257,1060 L5252,1054 L5259,1052 L5266,1052 L5272,1048 L5278,1045 L5284,1041 L5290,1041 L5290,1035 L5284,1036 L5278,1034 L5280,1028 L5286,1027 L5292,1029 L5295,1035 L5299,1029 L5305,1029 L5307,1023 L5306,1017 L5302,1010 L5296,1003 L5293,997 L5299,996 L5295,990 L5293,984 L5293,978 L5299,974 L5305,975 L5311,971 L5317,973 L5314,979 L5321,983 L5319,989 L5313,990 L5307,993 L5304,999 L5305,1005 L5311,1009 L5317,1010 L5335,1010 L5334,1004 L5341,1003 L5343,1009 L5346,1003 L5351,997 L5362,1000 L5369,1003 L5375,999 L5381,1002 L5387,1007 L5388,1014 L5402,1021 L5408,1022 L5415,1018 L5421,1021 L5428,1024 L5434,1028 L5434,1032 L5431,1038 L5424,1044 L5417,1047 L5411,1050 L5418,1056 L5418,1062 L5414,1069 L5408,1076 L5403,1083 L5402,1089 L5408,1094 L5411,1100 L5408,1107 L5406,1113 L5404,1119 L5403,1125 L5404,1132 L5405,1138 L5405,1144 L5404,1150 L5407,1156 L5404,1163 L5399,1169 L5398,1175 L5399,1181 L5393,1183 L5386,1181 L5384,1174 L5383,1168 L5381,1162 L5379,1156 L5377,1150 L5371,1146 L5372,1140 L5372,1126 L5373,1119 L5375,1113 L5377,1107 L5377,1101 L5375,1094 L5374,1087 L5369,1081 L5364,1072 L5363,1065 L5360,1059 L5362,1053 L5362,1053z M5480,1046 L5480,1046 L5494,1044 L5503,1050 L5509,1050 L5516,1046 L5519,1045 L5524,1048 L5528,1047 L5542,1037 L5546,1036 L5546,1032 L5544,1024 L5545,1019 L5552,1008 L5554,1003 L5557,1004 L5557,1012 L5551,1035 L5552,1038 L5559,1037 L5562,1039 L5568,1049 L5567,1054 L5565,1059 L5559,1063 L5549,1070 L5545,1070 L5534,1067 L5532,1069 L5533,1072 L5538,1074 L5535,1077 L5529,1077 L5526,1075 L5525,1070 L5522,1068 L5516,1065 L5512,1066 L5503,1067 L5500,1070 L5496,1076 L5490,1078 L5474,1072 L5471,1068 L5482,1064 L5489,1061 L5477,1055 L5473,1051 L5480,1046z M5272,920 L5272,920 L5272,928 L5278,932 L5278,938 L5286,941 L5289,951 L5283,951 L5272,951 L5270,945 L5263,943 L5266,936 L5258,932 L5259,924 L5265,920 L5272,920z " class="polyStyle" id="340721" style="fill:#f6f67b"/>
<path d="" class="polyStyle" id="510824" style="fill:#d4ecb2"/>
<path d="" class="polyStyle" id="610324" style="fill:#f6f67b"/>
<path d="" class="polyStyle" id="530722" style="fill:#ee8b94"/>
<path d="" class="polyStyle" id="340823" style="fill:#d4ecb2"/>
<path d="" class="polyStyle" id="620825" style="fill:#d4ecb2"/>
<path d="" class="polyStyle" id="421125" style="fill:#ee8b94"/>
<path d="" class="polyStyle" id="210281" style="fill:#ee8b94"/>
<path d="" class="polyStyle" id="440883" style="fill:#f6f67b"/>
<path d="" class="polyStyle" id="469006" style="fill:#d4ecb2"/>
<path d="" class="polyStyle" id="469002" style="fill:#ee8b94"/>
<path d="" class="polyStyle" id="469005" style="fill:#fbe6ef"/>
<path d="" class="polyStyle" id="440882" style="fill:#ee8b94"/>
<path d="" class="polyStyle" id="450681" style="fill:#ee8b94"/>
<path d="" class="polyStyle" id="441581" style="fill:#d4ecb2"/>
<path d="" class="polyStyle" id="421087" style="fill:#ee8b94"/>
<path d="" class="polyStyle" id="420984" style="fill:#fbe6ef"/>
<path d="" class="polyStyle" id="420582" style="fill:#ee8b94"/>
<path d="" class="polyStyle" id="370282" style="fill:#f6f67b"/>
<path d="" class="polyStyle" id="371083" style="fill:#f6f67b"/>
<path d="" class="polyStyle" id="371082" style="fill:#fbe6ef"/>
<path d="" class="polyStyle" id="652801" style="fill:#f8c67d"/>
<path d="" class="polyStyle" id="654301" style="fill:#ee8b94"/>
<path d="" class="polyStyle" id="370687" style="fill:#ee8b94"/>
<path d="" class="polyStyle" id="371482" style="fill:#d4ecb2"/>
<path d="" class="polyStyle" id="421081" style="fill:#fbe6ef"/>
<path d="" class="polyStyle" id="429006" style="fill:#f6f67b"/>
<path d="" class="polyStyle" id="440982" style="fill:#d4ecb2"/>
<path d="" class="polyStyle" id="421181" style="fill:#d4ecb2"/>
<path d="" class="polyStyle" id="321181" style="fill:#d4ecb2"/>
<path d="" class="polyStyle" id="659007" style="fill:#ee8b94"/>
<path d="" class="polyStyle" id="652701" style="fill:#fbe6ef"/>
<path d="" class="polyStyle" id="210781" style="fill:#fbe6ef"/>
<path d="" class="polyStyle" id="460204" style="fill:#f6f67b"/>
<path d="" class="polyStyle" id="210211" style="fill:#f6f67b"/>
<polygon points="4406,1028 4405,1032 4399,1036 4395,1036 4392,1034 4389,1028 4386,1024 4386,1021 4389,1019 4396,1022 4398,1019 4400,1015 4404,1018 " class="polyStyle" id="340702" style="fill:#d4ecb2"/>
<polygon points="3931,1326 3980,1342 3979,1346 3978,1351 3975,1357 3973,1363 3970,1368 3966,1374 3962,1380 3961,1385 3957,1391 3956,1394 3951,1400 3949,1402 3928,1394 3911,1386 3906,1384 " class="polyStyle" id="340711" style="fill:#ee8b94"/>
<path d="" class="polyStyle" id="450512" style="fill:#ee8b94"/>
<path d="" class="polyStyle" id="450602" style="fill:#fbe6ef"/>
<path d="" class="polyStyle" id="440404" style="fill:#ee8b94"/>
<path d="" class="polyStyle" id="440403" style="fill:#f6f67b"/>
<path d="" class="polyStyle" id="441502" style="fill:#f6f67b"/>
<path d="" class="polyStyle" id="431002" style="fill:#d4ecb2"/>
<path d="" class="polyStyle" id="500107" style="fill:#fbe6ef"/>
<path d="" class="polyStyle" id="430611" style="fill:#d4ecb2"/>
<polygon points="2025,3208 2036,3237 2040,3268 2027,3297 2018,3323 1990,3338 1961,3353 1946,3384 1928,3412 1898,3426 1869,3442 1865,3470 1886,3500 1885,3526 1858,3544 1828,3558 1799,3573 1771,3562 1745,3547 1714,3540 1687,3536 1660,3548 1651,3529 1677,3499 1703,3477 1723,3449 1731,3420 1703,3413 1674,3401 1673,3375 1695,3346 1722,3336 1749,3328 1781,3300 1807,3295 1835,3272 1861,3252 1884,3224 1902,3196 1928,3176 1956,3171 1986,3166 2011,3181 " class="polyStyle" id="340711" style="fill:#ee8b94"/>
<polygon points="112,2340 129,2346 143,2352 161,2364 172,2362 179,2357 195,2352 192,2367 209,2375 240,2386 258,2395 279,2406 300,2414 299,2424 288,2431 269,2438 245,2435 242,2445 240,2467 231,2482 219,2494 206,2502 185,2505 148,2502 123,2496 99,2493 81,2487 69,2479 58,2470 51,2457 52,2435 35,2432 19,2425 5,2413 0,2395 3,2386 11,2376 30,2361 50,2349 69,2339 85,2335 101,2336 " class="polyStyle" id="340711" style="fill:#ee8b94"/>
<polygon points="4145,1357 4150,1357 4156,1358 4159,1358 4163,1358 4167,1358 4172,1361 4178,1364 4181,1365 4183,1367 4186,1368 4196,1374 4197,1377 4196,1380 4186,1380 4185,1383 4183,1386 4182,1391 4180,1393 4179,1398 4177,1401 4174,1401 4172,1399 4168,1397 4163,1395 4159,1393 4145,1388 4140,1387 4136,1385 4133,1384 4130,1383 4127,1381 4125,1379 4126,1375 4127,1372 4127,1367 4129,1363 4131,1361 4133,1357 4137,1355 4141,1356 " class="polyStyle" id="340702" style="fill:#d4ecb2"/>
<polygon points="5501,1263 5491,1278 5490,1287 5492,1289 5497,1286 5504,1277 5509,1269 5510,1265 5514,1263 5519,1260 5521,1262 5520,1267 5513,1274 5512,1279 5513,1284 5516,1286 5514,1289 5510,1287 5507,1286 5502,1289 5499,1294 5500,1297 5505,1299 5511,1295 5514,1293 5523,1293 5524,1289 5522,1282 5523,1279 5530,1274 5537,1267 5541,1270 5539,1272 5531,1282 5530,1287 5533,1290 5533,1293 5531,1296 5527,1297 5519,1299 5520,1304 5523,1307 5530,1308 5533,1311 5532,1315 5532,1320 5536,1323 5539,1324 5543,1329 5545,1335 5540,1335 5528,1329 5525,1326 5520,1326 5517,1326 5518,1322 5517,1319 5512,1320 5502,1323 5498,1321 5493,1316 5486,1314 5474,1313 5476,1311 5479,1308 5480,1304 5482,1301 5479,1301 5472,1303 5466,1301 5457,1295 5455,1292 5448,1284 5453,1279 5454,1275 5451,1274 5446,1278 5441,1278 5442,1275 5445,1269 5447,1267 5451,1267 5458,1268 5465,1266 5471,1260 5477,1262 5488,1268 5491,1269 5492,1265 5492,1259 5499,1259 5502,1260 " class="polyStyle" id="340703" style="fill:#fbe6ef"/>
<polygon points="4265,1226 4261,1227 4263,1230 4272,1234 4281,1237 4278,1240 4275,1243 4272,1247 4287,1255 4285,1258 4282,1258 4279,1259 4273,1261 4269,1264 4266,1265 4263,1265 4261,1266 4258,1266 4255,1266 4252,1265 4250,1266 4249,1267 4245,1266 4242,1266 4241,1263 4238,1262 4233,1259 4229,1257 4225,1255 4227,1251 4209,1244 4206,1242 4208,1239 4212,1241 4215,1236 4226,1240 4224,1244 4227,1246 4232,1239 4231,1237 4232,1234 4236,1232 4240,1230 4241,1227 4248,1226 4250,1225 4253,1224 4255,1223 4257,1222 4262,1221 4264,1221 4268,1224 " class="polyStyle" id="340702" style="fill:#d4ecb2"/>
<path d="" class="polyStyle" id="511304" style="fill:#fbe6ef"/>
<polygon points="5557,1012 5551,1035 5552,1038 5559,1037 5562,1039 5568,1049 5567,1054 5565,1059 5559,1063 5549,1070 5545,1070 5534,1067 5532,1069 5533,1072 5538,1074 5535,1077 5529,1077 5526,1075 5525,1070 5522,1068 5516,1065 5512,1066 5503,1067 5500,1070 5496,1076 5490,1078 5474,1072 5471,1068 5482,1064 5489,1061 5477,1055 5473,1051 5480,1046 5494,1044 5503,1050 5509,1050 5516,1046 5519,1045 5524,1048 5528,1047 5542,1037 5546,1036 5546,1032 5544,1024 5545,1019 5552,1008 5554,1003 5557,1004 " class="polyStyle" id="340703" style="fill:#fbe6ef"/>
<polygon points="5314,979 5321,983 5319,989 5313,990 5307,993 5304,999 5305,1005 5311,1009 5317,1010 5335,1010 5334,1004 5341,1003 5343,1009 5346,1003 5351,997 5362,1000 5369,1003 5375,999 5381,1002 5387,1007 5388,1014 5402,1021 5408,1022 5415,1018 5421,1021 5428,1024 5434,1028 5434,1032 5431,1038 5424,1044 5417,1047 5411,1050 5418,1056 5418,1062 5414,1069 5408,1076 5403,1083 5402,1089 5408,1094 5411,1100 5408,1107 5406,1113 5404,1119 5403,1125 5404,1132 5405,1138 5405,1144 5404,1150 5407,1156 5404,1163 5399,1169 5398,1175 5399,1181 5393,1183 5386,1181 5384,1174 5383,1168 5381,1162 5379,1156 5377,1150 5371,1146 5372,1140 5372,1126 5373,1119 5375,1113 5377,1107 5377,1101 5375,1094 5374,1087 5369,1081 5364,1072 5363,1065 5360,1059 5362,1053 5364,1047 5357,1048 5351,1048 5343,1052 5335,1054 5328,1055 5321,1056 5314,1058 5307,1059 5300,1057 5293,1058 5287,1061 5281,1065 5277,1072 5270,1077 5263,1077 5257,1076 5258,1070 5264,1065 5257,1060 5252,1054 5259,1052 5266,1052 5272,1048 5278,1045 5284,1041 5290,1041 5290,1035 5284,1036 5278,1034 5280,1028 5286,1027 5292,1029 5295,1035 5299,1029 5305,1029 5307,1023 5306,1017 5302,1010 5296,1003 5293,997 5299,996 5295,990 5293,984 5293,978 5299,974 5305,975 5311,971 5317,973 " class="polyStyle" id="340703" style="fill:#fbe6ef"/>
<polygon points="4456,941 4457,945 4454,947 4449,945 4446,945 4441,951 4437,953 4431,953 4423,953 4420,961 4416,962 4415,954 4418,948 4422,944 4430,942 4435,938 4439,935 4443,935 4446,932 4452,936 " class="polyStyle" id="340711" style="fill:#ee8b94"/>
<polygon points="5278,932 5278,938 5286,941 5289,951 5283,951 5272,951 5270,945 5263,943 5266,936 5258,932 5259,924 5265,920 5272,920 5272,928 " class="polyStyle" id="340703" style="fill:#fbe6ef"/>
<path d="M4382,931 L4388,932 L4394,937 L4396,939 L4394,941 L4384,942 L4386,946 L4389,950 L4388,953 L4385,953 L4382,950 L4374,942 L4362,938 L4350,937 L4347,939 L4349,950 L4351,971 L4353,975 L4357,976 L4361,978 L4360,981 L4354,982 L4353,988 L4349,991 L4365,992 L4371,994 L4372,998 L4369,1000 L4361,1002 L4356,1000 L4354,1001 L4356,1009 L4349,1009 L4346,1004 L4342,1000 L4337,1004 L4334,1004 L4332,999 L4329,998 L4318,995 L4313,1000 L4314,1004 L4316,1007 L4315,1010 L4312,1011 L4309,1009 L4302,993 L4308,989 L4310,987 L4307,984 L4292,979 L4288,982 L4285,989 L4280,995 L4276,1001 L4271,1004 L4262,1014 L4251,1032 L4250,1036 L4252,1042 L4238,1057 L4204,1094 L4218,1105 L4197,1116 L4183,1127 L4180,1124 L4171,1148 L4129,1251 L4141,1257 L4154,1251 L4156,1247 L4151,1243 L4151,1236 L4153,1224 L4155,1223 L4164,1226 L4167,1224 L4168,1220 L4173,1218 L4187,1217 L4190,1216 L4191,1203 L4192,1197 L4198,1207 L4205,1207 L4209,1203 L4208,1200 L4205,1198 L4214,1191 L4223,1177 L4224,1172 L4222,1169 L4220,1166 L4225,1156 L4236,1143 L4236,1136 L4252,1143 L4257,1148 L4264,1150 L4275,1156 L4275,1148 L4268,1134 L4260,1128 L4244,1121 L4238,1121 L4230,1134 L4226,1143 L4215,1164 L4193,1194 L4198,1182 L4197,1179 L4193,1177 L4193,1172 L4196,1164 L4193,1161 L4180,1159 L4179,1155 L4185,1140 L4189,1137 L4207,1143 L4212,1142 L4215,1139 L4227,1113 L4228,1106 L4230,1104 L4235,1106 L4238,1112 L4240,1114 L4245,1113 L4253,1111 L4260,1115 L4274,1132 L4282,1136 L4289,1132 L4291,1126 L4283,1115 L4274,1106 L4271,1095 L4261,1090 L4244,1085 L4243,1080 L4245,1071 L4248,1066 L4256,1063 L4269,1063 L4273,1065 L4274,1069 L4276,1075 L4287,1078 L4307,1081 L4311,1082 L4313,1085 L4314,1088 L4319,1088 L4328,1087 L4335,1091 L4341,1094 L4345,1100 L4349,1100 L4364,1094 L4369,1089 L4354,1079 L4356,1078 L4362,1079 L4364,1077 L4360,1071 L4354,1063 L4347,1062 L4348,1056 L4342,1050 L4348,1050 L4354,1053 L4365,1063 L4368,1064 L4371,1062 L4381,1054 L4383,1054 L4385,1057 L4387,1064 L4392,1069 L4400,1068 L4404,1070 L4404,1073 L4399,1079 L4409,1087 L4408,1089 L4406,1091 L4406,1094 L4412,1096 L4430,1089 L4434,1085 L4437,1071 L4439,1071 L4443,1079 L4446,1081 L4449,1080 L4451,1075 L4456,1065 L4459,1065 L4465,1069 L4472,1078 L4473,1081 L4471,1086 L4469,1091 L4475,1098 L4486,1111 L4490,1120 L4494,1130 L4499,1132 L4505,1132 L4515,1134 L4523,1138 L4527,1140 L4529,1143 L4530,1146 L4520,1158 L4520,1163 L4522,1166 L4531,1170 L4545,1170 L4561,1172 L4571,1176 L4582,1182 L4587,1182 L4590,1180 L4601,1170 L4604,1164 L4602,1145 L4599,1135 L4591,1131 L4590,1128 L4591,1124 L4603,1120 L4610,1123 L4610,1126 L4607,1130 L4611,1134 L4617,1134 L4622,1132 L4629,1129 L4634,1131 L4644,1137 L4656,1133 L4662,1130 L4667,1130 L4677,1134 L4676,1141 L4675,1153 L4675,1158 L4674,1163 L4677,1165 L4688,1176 L4690,1181 L4689,1184 L4687,1189 L4688,1200 L4691,1217 L4693,1224 L4690,1228 L4682,1247 L4679,1253 L4675,1256 L4671,1256 L4666,1253 L4663,1254 L4660,1260 L4659,1268 L4659,1272 L4662,1277 L4674,1286 L4677,1291 L4672,1298 L4657,1309 L4643,1324 L4635,1336 L4635,1339 L4639,1347 L4638,1352 L4636,1355 L4632,1357 L4623,1362 L4602,1370 L4597,1374 L4599,1377 L4603,1379 L4601,1385 L4593,1392 L4582,1396 L4579,1401 L4575,1404 L4565,1407 L4537,1410 L4531,1412 L4520,1421 L4504,1438 L4496,1449 L4492,1454 L4488,1456 L4484,1457 L4479,1454 L4474,1453 L4466,1458 L4397,1494 L4385,1504 L4376,1524 L4377,1528 L4384,1530 L4380,1547 L4376,1554 L4368,1562 L4360,1568 L4354,1570 L4344,1571 L4326,1576 L4314,1584 L4287,1608 L4285,1616 L4296,1636 L4299,1643 L4299,1647 L4296,1663 L4294,1670 L4289,1678 L4280,1685 L4271,1689 L4267,1691 L4267,1697 L4266,1725 L4266,1738 L4270,1750 L4271,1759 L4265,1775 L4264,1781 L4266,1792 L4263,1795 L4254,1798 L4224,1800 L4200,1792 L4201,1787 L4201,1781 L4200,1775 L4197,1768 L4192,1763 L4186,1760 L4179,1758 L4172,1754 L4166,1751 L4161,1745 L4155,1740 L4155,1734 L4157,1729 L4161,1726 L4164,1723 L4167,1723 L4170,1720 L4178,1716 L4183,1712 L4189,1706 L4192,1700 L4194,1696 L4194,1689 L4194,1683 L4194,1678 L4194,1672 L4193,1666 L4192,1661 L4189,1655 L4187,1650 L4184,1644 L4181,1638 L4179,1633 L4175,1627 L4168,1623 L4162,1623 L4155,1621 L4149,1620 L4142,1618 L4135,1614 L4133,1610 L4109,1613 L4097,1626 L4057,1658 L4041,1668 L4017,1679 L3984,1690 L3952,1698 L3940,1698 L3927,1687 L3918,1676 L3909,1658 L3908,1651 L3908,1629 L3912,1627 L3932,1614 L3949,1599 L3959,1586 L3974,1559 L3993,1531 L4014,1501 L4034,1473 L4039,1458 L4046,1432 L4053,1404 L4060,1373 L4067,1346 L4071,1315 L4074,1283 L4080,1253 L4086,1225 L4096,1191 L4104,1158 L4110,1126 L4110,1109 L4173,1076 L4190,1065 L4199,1056 L4207,1045 L4251,995 L4268,967 L4278,936 L4283,925 L4288,919 L4293,918 L4337,929 L4354,928 L4362,926 L4370,921 L4376,918 L4382,931z M4229,1257 L4225,1255 L4227,1251 L4209,1244 L4206,1242 L4208,1239 L4212,1241 L4215,1236 L4226,1240 L4224,1244 L4227,1246 L4232,1239 L4231,1237 L4232,1234 L4236,1232 L4240,1230 L4241,1227 L4248,1226 L4250,1225 L4253,1224 L4255,1223 L4257,1222 L4262,1221 L4264,1221 L4268,1224 L4265,1226 L4261,1227 L4263,1230 L4272,1234 L4281,1237 L4278,1240 L4275,1243 L4272,1247 L4287,1255 L4285,1258 L4282,1258 L4279,1259 L4273,1261 L4269,1264 L4266,1265 L4263,1265 L4261,1266 L4258,1266 L4255,1266 L4252,1265 L4250,1266 L4249,1267 L4245,1266 L4242,1266 L4241,1263 L4238,1262 L4233,1259 L4229,1257z M4375,1221 L4372,1217 L4368,1215 L4361,1210 L4351,1205 L4347,1210 L4344,1214 L4341,1214 L4337,1212 L4333,1206 L4331,1204 L4329,1203 L4326,1203 L4323,1200 L4319,1200 L4316,1198 L4313,1196 L4309,1195 L4304,1192 L4308,1189 L4310,1185 L4313,1181 L4311,1178 L4310,1176 L4307,1172 L4303,1167 L4301,1165 L4302,1162 L4304,1164 L4307,1165 L4310,1165 L4313,1166 L4316,1169 L4319,1172 L4322,1173 L4324,1174 L4326,1176 L4328,1178 L4330,1178 L4334,1179 L4337,1179 L4339,1175 L4341,1173 L4342,1170 L4344,1167 L4347,1167 L4352,1167 L4356,1168 L4359,1168 L4362,1167 L4366,1165 L4368,1163 L4370,1162 L4371,1160 L4371,1157 L4369,1155 L4368,1152 L4365,1147 L4366,1144 L4368,1141 L4374,1142 L4383,1144 L4385,1146 L4389,1148 L4389,1144 L4389,1142 L4390,1137 L4388,1138 L4385,1138 L4385,1136 L4386,1134 L4387,1131 L4392,1130 L4392,1123 L4396,1123 L4399,1123 L4401,1125 L4399,1130 L4398,1133 L4397,1138 L4395,1140 L4395,1143 L4394,1145 L4393,1147 L4393,1151 L4389,1150 L4388,1154 L4387,1157 L4387,1159 L4388,1162 L4388,1165 L4391,1166 L4391,1169 L4390,1172 L4389,1174 L4390,1179 L4390,1182 L4391,1185 L4392,1188 L4392,1191 L4393,1194 L4396,1197 L4397,1199 L4400,1202 L4402,1204 L4405,1206 L4409,1209 L4412,1212 L4410,1215 L4408,1217 L4407,1220 L4406,1224 L4405,1226 L4402,1230 L4399,1231 L4397,1231 L4394,1231 L4390,1231 L4387,1231 L4386,1229 L4383,1227 L4379,1223 L4375,1221z M4133,1357 L4137,1355 L4141,1356 L4145,1357 L4150,1357 L4156,1358 L4159,1358 L4163,1358 L4167,1358 L4172,1361 L4178,1364 L4181,1365 L4183,1367 L4186,1368 L4196,1374 L4197,1377 L4196,1380 L4186,1380 L4185,1383 L4183,1386 L4182,1391 L4180,1393 L4179,1398 L4177,1401 L4174,1401 L4172,1399 L4168,1397 L4163,1395 L4159,1393 L4145,1388 L4140,1387 L4136,1385 L4133,1384 L4130,1383 L4127,1381 L4125,1379 L4126,1375 L4127,1372 L4127,1367 L4129,1363 L4131,1361 L4133,1357z " class="polyStyle" id="340711" style="fill:#ee8b94"/>
<polygon points="3825,834 3843,835 3846,837 3843,843 3823,863 3818,875 3818,884 3816,890 3814,894 3810,897 3798,907 3789,913 3783,919 3781,925 3781,932 3786,937 3787,940 3788,945 3782,949 3770,952 3758,958 3751,965 3744,972 3732,973 3722,972 3713,968 3707,963 3699,956 3698,951 3704,944 3714,932 3718,927 3715,925 3705,919 3702,915 3703,912 3718,907 3726,904 3727,900 3730,892 3742,872 3749,872 3763,873 3766,872 3765,869 3762,861 3764,858 3767,857 3780,854 3793,852 3800,848 3817,833 3821,833 " class="polyStyle" id="340711" style="fill:#ee8b94"/>
<polygon points="4555,833 4559,839 4566,851 4568,857 4572,859 4581,861 4587,867 4587,874 4584,881 4582,884 4585,887 4590,889 4593,886 4596,883 4601,886 4606,886 4609,883 4611,879 4615,876 4620,875 4627,877 4627,881 4625,884 4631,888 4641,892 4644,888 4649,888 4650,892 4649,896 4653,898 4660,899 4662,901 4667,908 4679,913 4685,915 4690,919 4692,922 4690,926 4688,929 4688,933 4695,943 4695,949 4692,954 4676,965 4669,972 4663,979 4659,980 4649,983 4646,985 4645,988 4644,995 4638,1002 4621,1015 4618,1018 4621,1019 4623,1023 4619,1025 4614,1027 4611,1031 4613,1033 4612,1036 4603,1033 4598,1037 4591,1036 4564,1033 4561,1025 4561,1002 4562,996 4566,998 4569,999 4579,994 4581,992 4575,988 4571,987 4566,981 4564,976 4568,976 4573,980 4576,981 4578,972 4579,967 4584,961 4581,953 4583,944 4584,940 4589,937 4611,938 4627,906 4627,902 4611,902 4608,900 4599,897 4603,894 4602,891 4595,894 4594,900 4591,910 4589,913 4584,912 4581,911 4581,908 4580,904 4574,902 4577,892 4575,890 4565,890 4557,891 4556,894 4560,894 4566,896 4565,901 4553,906 4552,910 4557,909 4560,909 4563,915 4564,919 4560,920 4555,923 4554,930 4553,935 4545,938 4541,942 4539,950 4537,956 4531,957 4524,957 4523,954 4524,945 4525,934 4530,926 4531,921 4537,910 4535,909 4527,914 4525,916 4518,914 4519,907 4517,905 4508,900 4510,897 4511,892 4516,888 4521,887 4525,890 4531,889 4539,885 4542,879 4538,878 4528,876 4527,872 4528,862 4525,853 4528,846 4540,832 4551,830 4553,831 " class="polyStyle" id="340711" style="fill:#ee8b94"/>
<polygon points="4792,641 4800,645 4801,648 4802,652 4807,651 4812,650 4815,653 4819,659 4825,663 4828,670 4827,684 4847,683 4849,699 4919,691 4923,728 4938,727 4939,744 4952,742 4956,761 4925,765 4927,778 4920,780 4919,783 4925,788 4928,791 4926,796 4917,804 4920,837 4903,840 4905,857 4903,867 4895,870 4889,875 4885,881 4884,888 4882,924 4883,932 4885,935 4897,931 4914,921 4920,916 4924,917 4927,919 4931,918 4934,915 4935,910 4937,896 4944,893 4949,894 4960,900 4972,907 4975,909 4975,912 4957,943 4945,963 4941,973 4939,981 4938,984 4935,986 4931,994 4930,1013 4931,1030 4932,1035 4936,1038 4949,1045 4955,1046 4959,1048 4961,1053 4963,1058 4966,1060 4970,1060 4974,1056 4988,1041 4994,1041 5001,1044 5015,1049 5008,1052 5002,1056 4999,1062 4997,1068 4990,1067 4985,1061 4978,1061 4973,1067 4972,1071 4967,1072 4960,1073 4955,1078 4952,1084 4952,1089 4950,1095 4943,1098 4939,1101 4922,1108 4919,1111 4924,1114 4926,1122 4929,1122 4933,1121 4938,1123 4948,1131 4951,1135 4951,1141 4942,1156 4938,1157 4926,1150 4923,1150 4921,1152 4916,1152 4894,1147 4884,1142 4891,1132 4891,1127 4882,1122 4877,1116 4876,1104 4875,1099 4872,1095 4853,1090 4837,1092 4828,1097 4821,1104 4817,1105 4799,1101 4793,1103 4793,1110 4793,1116 4784,1124 4783,1131 4792,1150 4791,1154 4787,1158 4768,1167 4765,1170 4766,1173 4770,1176 4770,1180 4764,1186 4745,1201 4741,1205 4740,1210 4741,1229 4738,1231 4729,1231 4695,1224 4693,1224 4691,1217 4688,1200 4687,1189 4689,1184 4690,1181 4688,1176 4677,1165 4674,1163 4675,1158 4675,1153 4676,1141 4677,1134 4667,1130 4662,1130 4656,1133 4644,1137 4634,1131 4629,1129 4622,1132 4617,1134 4611,1134 4607,1130 4610,1126 4610,1123 4603,1120 4601,1119 4601,1115 4603,1112 4606,1112 4610,1111 4609,1103 4612,1094 4617,1086 4624,1085 4632,1078 4633,1073 4632,1070 4629,1068 4626,1066 4629,1063 4633,1058 4634,1052 4633,1049 4629,1047 4615,1045 4609,1043 4602,1038 4598,1037 4603,1033 4612,1036 4613,1033 4611,1031 4614,1027 4619,1025 4623,1023 4621,1019 4618,1018 4621,1015 4638,1002 4644,995 4645,988 4646,985 4649,983 4659,980 4663,979 4669,972 4676,965 4692,954 4695,949 4695,943 4688,933 4688,929 4690,926 4692,922 4690,919 4685,915 4679,913 4667,908 4662,901 4660,899 4653,898 4649,896 4650,892 4649,888 4644,888 4641,892 4631,888 4625,884 4627,881 4627,877 4620,875 4615,876 4611,879 4609,883 4606,886 4601,886 4596,883 4593,886 4590,889 4585,887 4582,884 4584,881 4587,874 4587,867 4581,861 4572,859 4568,857 4566,851 4559,839 4564,835 4570,829 4575,824 4580,818 4585,814 4592,809 4611,792 4618,788 4624,783 4631,777 4638,773 4641,772 4653,763 4657,760 4664,755 4670,750 4677,746 4690,734 4694,729 4696,723 4700,718 4703,712 4704,706 4708,701 4711,695 4715,689 4717,684 4720,678 4724,672 4726,667 4729,662 4736,655 4745,647 4752,644 4758,640 4765,636 4770,630 4773,625 4774,619 4788,637 " class="polyStyle" id="340703" style="fill:#fbe6ef"/>
<polygon points="3997,579 3999,588 4003,589 4006,592 4007,596 4005,600 3984,650 3984,678 3980,741 3984,795 3985,809 3983,813 3917,815 3914,809 3915,802 3922,791 3921,778 3918,774 3919,767 3923,760 3928,756 3930,748 3924,739 3926,730 3933,707 3943,676 3953,672 3957,668 3956,659 3953,656 3951,650 3954,642 3965,615 3965,606 3961,606 3950,611 3941,619 3936,623 3929,625 3916,625 3908,611 3900,593 3901,588 3911,586 3913,583 3914,579 3918,577 3931,579 3946,579 3950,578 3957,569 3974,552 3981,548 3992,545 3996,544 3997,549 " class="polyStyle" id="340711" style="fill:#ee8b94"/>
<path d="" class="polyStyle" id="320118" style="fill:#f6f67b"/>
<path d="" class="polyStyle" id="510704" style="fill:#f6f67b"/>
<path d="" class="polyStyle" id="411502" style="fill:#ee8b94"/>
<path d="" class="polyStyle" id="320302" style="fill:#d4ecb2"/>
<path d="" class="polyStyle" id="140311" style="fill:#ee8b94"/>
<path d="" class="polyStyle" id="610802" style="fill:#ee8b94"/>
<path d="" class="polyStyle" id="120116" style="fill:#f6f67b"/>
<path d="" class="polyStyle" id="130303" style="fill:#fbe6ef"/>
<path d="" class="polyStyle" id="140211" style="fill:#f6f67b"/>
<path d="" class="polyStyle" id="150207" style="fill:#fbe6ef"/>
<path d="" class="polyStyle" id="211403" style="fill:#f6f67b"/>
<path d="" class="polyStyle" id="150802" style="fill:#f8c67d"/>
<path d="" class="polyStyle" id="210112" style="fill:#ee8b94"/>
<path d="" class="polyStyle" id="230406" style="fill:#d4ecb2"/>
<path d="" class="polyStyle" id="110113" style="fill:#fbe6ef"/>
<path d="" class="polyStyle" id="341702" style="fill:#fbe6ef"/>
<path d="" class="polyStyle" id="420303" style="fill:#ee8b94"/>
<polygon points="4383,1144 4385,1146 4389,1148 4389,1144 4389,1142 4390,1137 4388,1138 4385,1138 4385,1136 4386,1134 4387,1131 4392,1130 4392,1123 4396,1123 4399,1123 4401,1125 4399,1130 4398,1133 4397,1138 4395,1140 4395,1143 4394,1145 4393,1147 4393,1151 4389,1150 4388,1154 4387,1157 4387,1159 4388,1162 4388,1165 4391,1166 4391,1169 4390,1172 4389,1174 4390,1179 4390,1182 4391,1185 4392,1188 4392,1191 4393,1194 4396,1197 4397,1199 4400,1202 4402,1204 4405,1206 4409,1209 4412,1212 4410,1215 4408,1217 4407,1220 4406,1224 4405,1226 4402,1230 4399,1231 4397,1231 4394,1231 4390,1231 4387,1231 4386,1229 4383,1227 4379,1223 4375,1221 4372,1217 4368,1215 4361,1210 4351,1205 4347,1210 4344,1214 4341,1214 4337,1212 4333,1206 4331,1204 4329,1203 4326,1203 4323,1200 4319,1200 4316,1198 4313,1196 4309,1195 4304,1192 4308,1189 4310,1185 4313,1181 4311,1178 4310,1176 4307,1172 4303,1167 4301,1165 4302,1162 4304,1164 4307,1165 4310,1165 4313,1166 4316,1169 4319,1172 4322,1173 4324,1174 4326,1176 4328,1178 4330,1178 4334,1179 4337,1179 4339,1175 4341,1173 4342,1170 4344,1167 4347,1167 4352,1167 4356,1168 4359,1168 4362,1167 4366,1165 4368,1163 4370,1162 4371,1160 4371,1157 4369,1155 4368,1152 4365,1147 4366,1144 4368,1141 4374,1142 " class="polyStyle" id="340702" style="fill:#d4ecb2"/>
<path d="M4452,936 L4456,941 L4457,945 L4454,947 L4449,945 L4446,945 L4441,951 L4437,953 L4431,953 L4423,953 L4420,961 L4416,962 L4415,954 L4418,948 L4422,944 L4430,942 L4435,938 L4439,935 L4443,935 L4446,932 L4452,936z M4404,1018 L4406,1028 L4405,1032 L4399,1036 L4395,1036 L4392,1034 L4389,1028 L4386,1024 L4386,1021 L4389,1019 L4396,1022 L4398,1019 L4400,1015 L4404,1018z M4381,1054 L4371,1062 L4368,1064 L4365,1063 L4354,1053 L4348,1050 L4342,1050 L4348,1056 L4347,1062 L4354,1063 L4360,1071 L4364,1077 L4362,1079 L4356,1078 L4354,1079 L4369,1089 L4364,1094 L4349,1100 L4345,1100 L4341,1094 L4335,1091 L4328,1087 L4319,1088 L4314,1088 L4313,1085 L4311,1082 L4307,1081 L4287,1078 L4276,1075 L4274,1069 L4273,1065 L4269,1063 L4256,1063 L4248,1066 L4245,1071 L4243,1080 L4244,1085 L4261,1090 L4271,1095 L4274,1106 L4283,1115 L4291,1126 L4289,1132 L4282,1136 L4274,1132 L4260,1115 L4253,1111 L4245,1113 L4240,1114 L4238,1112 L4235,1106 L4230,1104 L4228,1106 L4227,1113 L4215,1139 L4212,1142 L4207,1143 L4189,1137 L4185,1140 L4179,1155 L4180,1159 L4193,1161 L4196,1164 L4193,1172 L4193,1177 L4197,1179 L4198,1182 L4193,1194 L4215,1164 L4226,1143 L4230,1134 L4238,1121 L4244,1121 L4260,1128 L4260,1128 L4268,1134 L4275,1148 L4275,1156 L4264,1150 L4257,1148 L4252,1143 L4236,1136 L4236,1143 L4225,1156 L4220,1166 L4222,1169 L4224,1172 L4223,1177 L4214,1191 L4205,1198 L4208,1200 L4209,1203 L4205,1207 L4198,1207 L4192,1197 L4191,1203 L4190,1216 L4187,1217 L4173,1218 L4168,1220 L4167,1224 L4164,1226 L4155,1223 L4153,1224 L4151,1236 L4151,1243 L4156,1247 L4154,1251 L4141,1257 L4129,1251 L4171,1148 L4180,1124 L4183,1127 L4197,1116 L4218,1105 L4204,1094 L4238,1057 L4252,1042 L4250,1036 L4251,1032 L4262,1014 L4271,1004 L4276,1001 L4280,995 L4285,989 L4288,982 L4292,979 L4307,984 L4310,987 L4308,989 L4302,993 L4309,1009 L4312,1011 L4315,1010 L4316,1007 L4314,1004 L4313,1000 L4318,995 L4329,998 L4332,999 L4334,1004 L4337,1004 L4342,1000 L4346,1004 L4349,1009 L4356,1009 L4354,1001 L4356,1000 L4361,1002 L4369,1000 L4372,998 L4371,994 L4365,992 L4349,991 L4353,988 L4354,982 L4360,981 L4361,978 L4357,976 L4353,975 L4351,971 L4349,950 L4347,939 L4350,937 L4362,938 L4374,942 L4382,950 L4385,953 L4388,953 L4389,950 L4386,946 L4384,942 L4394,941 L4396,939 L4396,939 L4394,937 L4388,932 L4382,931 L4376,918 L4375,912 L4374,903 L4375,898 L4378,893 L4382,891 L4389,891 L4415,896 L4424,897 L4427,895 L4434,892 L4437,895 L4435,902 L4431,905 L4424,910 L4426,916 L4446,927 L4460,931 L4465,932 L4471,930 L4483,920 L4491,910 L4490,902 L4495,899 L4504,898 L4508,900 L4517,905 L4519,907 L4518,914 L4525,916 L4527,914 L4535,909 L4537,910 L4531,921 L4530,926 L4525,934 L4524,945 L4523,954 L4524,957 L4531,957 L4537,956 L4539,950 L4541,942 L4545,938 L4553,935 L4554,930 L4555,923 L4560,920 L4564,919 L4563,915 L4560,909 L4557,909 L4552,910 L4553,906 L4565,901 L4566,896 L4560,894 L4556,894 L4557,891 L4565,890 L4575,890 L4577,892 L4574,902 L4580,904 L4581,908 L4581,911 L4584,912 L4589,913 L4591,910 L4594,900 L4595,894 L4602,891 L4603,894 L4599,897 L4608,900 L4611,902 L4627,902 L4627,906 L4611,938 L4589,937 L4584,940 L4583,944 L4581,953 L4584,961 L4579,967 L4578,972 L4576,981 L4573,980 L4568,976 L4564,976 L4566,981 L4571,987 L4575,988 L4581,992 L4579,994 L4569,999 L4566,998 L4562,996 L4561,1002 L4561,1025 L4564,1033 L4591,1036 L4598,1037 L4602,1038 L4609,1043 L4615,1045 L4629,1047 L4633,1049 L4634,1052 L4633,1058 L4629,1063 L4626,1066 L4629,1068 L4632,1070 L4633,1073 L4632,1078 L4624,1085 L4617,1086 L4612,1094 L4609,1103 L4610,1111 L4606,1112 L4603,1112 L4601,1115 L4601,1119 L4603,1120 L4591,1124 L4590,1128 L4591,1131 L4599,1135 L4602,1145 L4604,1164 L4601,1170 L4590,1180 L4587,1182 L4582,1182 L4571,1176 L4561,1172 L4545,1170 L4531,1170 L4522,1166 L4520,1163 L4520,1158 L4530,1146 L4529,1143 L4527,1140 L4523,1138 L4515,1134 L4505,1132 L4499,1132 L4494,1130 L4490,1120 L4486,1111 L4475,1098 L4469,1091 L4471,1086 L4473,1081 L4472,1078 L4465,1069 L4459,1065 L4456,1065 L4451,1075 L4449,1080 L4446,1081 L4443,1079 L4439,1071 L4437,1071 L4434,1085 L4430,1089 L4412,1096 L4406,1094 L4406,1091 L4408,1089 L4409,1087 L4399,1079 L4404,1073 L4404,1070 L4400,1068 L4392,1069 L4387,1064 L4385,1057 L4383,1054 L4381,1054z " class="polyStyle" id="340702" style="fill:#d4ecb2"/>
<path d="" class="polyStyle" id="421002" style="fill:#f6f67b"/>
<path d="" class="polyStyle" id="420117" style="fill:#f6f67b"/>
<path d="" class="polyStyle" id="440904" style="fill:#f8c67d"/>
<path d="" class="polyStyle" id="460205" style="fill:#ee8b94"/>
<path d="" class="polyStyle" id="460202" style="fill:#f6f67b"/>
<path d="" class="polyStyle" id="460203" style="fill:#fbe6ef"/>
<path d="" class="polyStyle" id="420304" style="fill:#f6f67b"/>
<path d="" class="polyStyle" id="445302" style="fill:#ee8b94"/>
<path d="" class="polyStyle" id="410202" style="fill:#d4ecb2"/>
<path d="" class="polyStyle" id="440800" style="fill:#f6f67b"/>
<path d="" class="polyStyle" id="440900" style="fill:#ee8b94"/>
<path d="" class="polyStyle" id="340800" style="fill:#ee8b94"/>
<path d="" class="polyStyle" id="460200" style="fill:#f6f67b"/>
<path d="" class="polyStyle" id="460000" style="fill:#ee8b94"/>
<path d="" class="polyStyle" id="450500" style="fill:#ee8b94"/>
<path d="" class="polyStyle" id="450600" style="fill:#ee8b94"/>
<path d="" class="polyStyle" id="440400" style="fill:#f6f67b"/>
<path d="" class="polyStyle" id="441700" style="fill:#f6f67b"/>
<path d="" class="polyStyle" id="441500" style="fill:#f6f67b"/>
<path d="" class="polyStyle" id="350600" style="fill:#ee8b94"/>
<path d="" class="polyStyle" id="710000" style="fill:#f6f67b"/>
<path d="" class="polyStyle" id="510400" style="fill:#f6f67b"/>
<path d="" class="polyStyle" id="522600" style="fill:#fbe6ef"/>
<path d="" class="polyStyle" id="520500" style="fill:#ee8b94"/>
<path d="" class="polyStyle" id="431200" style="fill:#f6f67b"/>
<path d="" class="polyStyle" id="430600" style="fill:#f6f67b"/>
<path d="" class="polyStyle" id="511400" style="fill:#d4ecb2"/>
<path d="" class="polyStyle" id="421000" style="fill:#ee8b94"/>
<path d="" class="polyStyle" id="341700" style="fill:#f6f67b"/>
<path d="" class="polyStyle" id="420500" style="fill:#f6f67b"/>
<path d="" class="polyStyle" id="511300" style="fill:#f6f67b"/>
<path d="" class="polyStyle" id="420900" style="fill:#f6f67b"/>
<path d="" class="polyStyle" id="511700" style="fill:#ee8b94"/>
<path d="" class="polyStyle" id="420600" style="fill:#d4ecb2"/>
<path d="" class="polyStyle" id="411500" style="fill:#fbe6ef"/>
<path d="" class="polyStyle" id="510800" style="fill:#ee8b94"/>
<path d="" class="polyStyle" id="420300" style="fill:#fbe6ef"/>
<path d="" class="polyStyle" id="611000" style="fill:#ee8b94"/>
<path d="" class="polyStyle" id="620800" style="fill:#fbe6ef"/>
<path d="" class="polyStyle" id="370200" style="fill:#ee8b94"/>
<path d="" class="polyStyle" id="371000" style="fill:#f6f67b"/>
<path d="" class="polyStyle" id="370600" style="fill:#fbe6ef"/>
<path d="" class="polyStyle" id="120000" style="fill:#f6f67b"/>
<path d="" class="polyStyle" id="130200" style="fill:#ee8b94"/>
<path d="" class="polyStyle" id="130300" style="fill:#f6f67b"/>
<path d="" class="polyStyle" id="652900" style="fill:#fbe6ef"/>
<path d="" class="polyStyle" id="150500" style="fill:#d4ecb2"/>
<path d="" class="polyStyle" id="" style="fill:#d4ecb2"/>
<path d="" class="polyStyle" id="350500" style="fill:#fbe6ef"/>
<path d="" class="polyStyle" id="440400" style="fill:#f6f67b"/>
<path d="" class="polyStyle" id="421100" style="fill:#d4ecb2"/>
<path d="" class="polyStyle" id="420100" style="fill:#fbe6ef"/>
<path d="" class="polyStyle" id="532500" style="fill:#fbe6ef"/>
<path d="" class="polyStyle" id="654200" style="fill:#fbe6ef"/>
<path d="" class="polyStyle" id="210700" style="fill:#d4ecb2"/>
<path d="" class="polyStyle" id="522300" style="fill:#fbe6ef"/>
<path d="" class="polyStyle" id="" style="fill:#ee8b94"/>
<path d="" class="polyStyle" id="440400" style="fill:#f6f67b"/>
<path d="" class="polyStyle" id="620000" style="fill:#f6f67b"/>
<path d="" class="polyStyle" id="430000" style="fill:#fbe6ef"/>
<path d="" class="polyStyle" id="420000" style="fill:#ee8b94"/>
<path d="" class="polyStyle" id="410000" style="fill:#f6f67b"/>
<path d="" class="polyStyle" id="350000" style="fill:#fbe6ef"/>
<path d="" class="polyStyle" id="520000" style="fill:#f6f67b"/>
<path d="" class="polyStyle" id="" style="fill:#ee8b94"/>
</svg>
