<?xml version="1.0" encoding="UTF-8"?>
<!DOCTYPE svg PUBLIC "-//W3C//DTD SVG 1.1 Tiny//EN" "http://www.w3.org/Graphics/SVG/1.1/DTD/svg11-tiny.dtd">
<svg version="1.1" xmlns="http://www.w3.org/2000/svg" xmlns:xlink="http://www.w3.org/1999/xlink" width="100%" height="100%" viewBox="0,0,10333,6826">
<title>SVG</title>
<desc>Poligon Test</desc>
<style id="style_css_sheet" type="text/css">
.polyStyle{fill: #cccccc;stroke-width:0;fill-rule:evenodd;}
</style>
<circle cx="9241" cy="2647" r="200" stroke="black" stroke-width="1" fill="red" id="341181" name="天长市"/>
<circle cx="4149" cy="2184" r="200" stroke="black" stroke-width="1" fill="red" id="341182" name="明光市"/>
<circle cx="2019" cy="1749" r="200" stroke="black" stroke-width="1" fill="red" id="341126" name="凤阳县"/>
<circle cx="2601" cy="3458" r="200" stroke="black" stroke-width="1" fill="red" id="341125" name="定远县"/>
<circle cx="6370" cy="3829" r="200" stroke="black" stroke-width="1" fill="red" id="341122" name="来安县"/>
<circle cx="5567" cy="5598" r="200" stroke="black" stroke-width="1" fill="red" id="341124" name="全椒县"/>
<circle cx="5769" cy="4486" r="200" stroke="black" stroke-width="1" fill="red" id="341103" name="南谯区"/>
<circle cx="5749" cy="4578" r="200" stroke="black" stroke-width="1" fill="red" id="341102" position="33"name="琅琊区"/>
<path d="" class="polyStyle" id="" style="fill:#ee8b94"/>
<path d="" class="polyStyle" id="623022" style="fill:#fbe6ef"/>
<path d="" class="polyStyle" id="211421" style="fill:#f6f67b"/>
<path d="" class="polyStyle" id="532524" style="fill:#ee8b94"/>
<path d="" class="polyStyle" id="440825" style="fill:#f6f67b"/>
<path d="" class="polyStyle" id="441721" style="fill:#f6f67b"/>
<path d="" class="polyStyle" id="450521" style="fill:#f6f67b"/>
<path d="" class="polyStyle" id="450123" style="fill:#fbe6ef"/>
<path d="" class="polyStyle" id="350624" style="fill:#f6f67b"/>
<path d="" class="polyStyle" id="" style="fill:#fbe6ef"/>
<path d="" class="polyStyle" id="451224" style="fill:#fbe6ef"/>
<path d="" class="polyStyle" id="350627" style="fill:#f6f67b"/>
<path d="" class="polyStyle" id="" style="fill:#f6f67b"/>
<path d="" class="polyStyle" id="350525" style="fill:#f6f67b"/>
<path d="" class="polyStyle" id="530124" style="fill:#ee8b94"/>
<path d="" class="polyStyle" id="522627" style="fill:#ee8b94"/>
<path d="" class="polyStyle" id="510421" style="fill:#fbe6ef"/>
<path d="" class="polyStyle" id="522623" style="fill:#d4ecb2"/>
<path d="" class="polyStyle" id="430321" style="fill:#d4ecb2"/>
<path d="" class="polyStyle" id="511129" style="fill:#d4ecb2"/>
<path d="" class="polyStyle" id="511423" style="fill:#ee8b94"/>
<path d="" class="polyStyle" id="421023" style="fill:#f6f67b"/>
<path d="" class="polyStyle" id="511724" style="fill:#f6f67b"/>
<path d="" class="polyStyle" id="420526" style="fill:#fbe6ef"/>
<path d="" class="polyStyle" id="511923" style="fill:#fbe6ef"/>
<polygon points="4255,4888 4281,4900 4313,4910 4342,4909 4375,4926 4402,4930 4412,4932 4415,4936 4423,4933 4430,4935 4430,4943 4432,4952 4443,4957 4453,4955 4457,4948 4455,4943 4452,4930 4455,4921 4463,4918 4486,4933 4511,4953 4528,4967 4537,4971 4564,4973 4593,4963 4632,4961 4669,4965 4695,4964 4734,4946 4751,4938 4761,4938 4771,4951 4776,4965 4780,4978 4790,4986 4808,4990 4821,5013 4828,5017 4837,5017 4859,5006 4874,5010 4907,5044 4931,5052 4946,5044 4958,5033 4987,5022 5018,5032 5051,5060 5081,5087 5108,5097 5146,5092 5178,5075 5198,5041 5219,5009 5224,4978 5252,4951 5279,4948 5289,4956 5298,4986 5325,5019 5355,5044 5385,5067 5400,5085 5419,5089 5457,5086 5464,5092 5469,5103 5482,5105 5496,5103 5519,5089 5531,5088 5557,5087 5596,5078 5632,5069 5655,5073 5661,5082 5668,5091 5675,5091 5715,5075 5787,5058 5806,5058 5811,5062 5816,5102 5827,5110 5850,5115 5941,5118 5981,5140 6003,5144 6013,5131 6025,5122 6034,5125 6041,5134 6044,5147 6039,5168 6025,5173 6008,5174 5994,5182 5991,5190 5994,5199 5998,5206 6007,5217 6014,5221 6030,5228 6040,5231 6059,5245 6079,5263 6089,5269 6100,5274 6107,5279 6114,5287 6122,5321 6131,5337 6133,5348 6129,5355 6120,5362 6108,5369 6097,5378 6099,5389 6106,5396 6115,5405 6122,5415 6125,5423 6123,5427 6128,5433 6132,5441 6156,5460 6164,5465 6172,5476 6204,5520 6224,5545 6275,5613 6286,5628 6299,5649 6287,5649 6278,5643 6273,5641 6269,5647 6266,5657 6262,5666 6255,5674 6249,5677 6242,5676 6238,5677 6231,5676 6225,5677 6220,5681 6219,5687 6221,5693 6221,5698 6215,5703 6209,5702 6202,5697 6196,5694 6189,5692 6182,5693 6176,5695 6170,5699 6170,5705 6173,5710 6177,5716 6179,5722 6178,5727 6176,5734 6170,5751 6167,5758 6160,5766 6152,5770 6147,5770 6142,5768 6138,5765 6132,5765 6128,5769 6122,5777 6117,5785 6110,5786 6095,5790 6082,5792 6075,5792 6070,5792 6067,5795 6066,5801 6067,5806 6068,5812 6068,5818 6068,5823 6068,5829 6067,5835 6064,5839 6055,5848 6043,5854 6025,5859 6017,5865 6007,5872 5992,5882 5988,5887 5977,5896 5969,5901 5952,5910 5929,5925 5916,5931 5911,5931 5899,5930 5888,5930 5882,5935 5875,5938 5868,5941 5862,5946 5856,5951 5850,5955 5843,5958 5836,5960 5830,5967 5826,5976 5823,5978 5810,5989 5795,6002 5783,6022 5779,6033 5775,6040 5763,6047 5753,6058 5745,6077 5737,6089 5737,6092 5739,6098 5741,6103 5744,6109 5748,6115 5752,6119 5745,6120 5738,6121 5732,6123 5725,6128 5718,6130 5712,6135 5705,6140 5701,6142 5693,6149 5687,6155 5681,6159 5675,6164 5668,6168 5661,6174 5655,6178 5636,6193 5631,6198 5625,6204 5619,6208 5612,6214 5607,6220 5601,6224 5596,6230 5589,6234 5584,6240 5579,6244 5572,6250 5566,6253 5559,6256 5552,6262 5546,6268 5539,6273 5527,6282 5520,6287 5500,6300 5484,6311 5475,6317 5454,6330 5446,6338 5437,6349 5423,6359 5418,6365 5413,6368 5398,6384 5389,6390 5383,6395 5377,6400 5371,6404 5365,6409 5358,6413 5352,6418 5345,6422 5342,6422 5338,6424 5333,6428 5326,6430 5320,6432 5315,6434 5311,6434 5307,6436 5300,6438 5293,6438 5287,6437 5280,6437 5273,6437 5269,6436 5260,6435 5256,6435 5250,6435 5243,6436 5236,6437 5230,6438 5223,6441 5217,6444 5210,6445 5203,6449 5197,6452 5194,6452 5183,6457 5178,6455 5175,6465 5169,6470 5162,6475 5156,6481 5150,6486 5145,6492 5140,6498 5137,6503 5136,6509 5132,6514 5129,6520 5124,6526 5117,6531 5112,6536 5105,6540 5098,6544 5092,6546 5085,6548 5078,6550 5072,6551 5065,6554 5059,6555 5052,6556 5045,6556 5039,6557 5032,6556 5026,6554 5019,6553 5012,6551 5006,6549 4993,6546 4986,6546 4979,6546 4973,6545 4966,6545 4960,6545 4957,6545 4945,6545 4938,6547 4932,6550 4925,6552 4918,6555 4912,6556 4905,6558 4899,6562 4892,6563 4885,6564 4879,6566 4872,6567 4859,6568 4851,6568 4846,6565 4839,6562 4833,6558 4826,6552 4819,6547 4815,6543 4813,6545 4806,6546 4800,6549 4793,6552 4780,6561 4773,6566 4768,6571 4762,6577 4760,6583 4756,6588 4753,6594 4748,6605 4753,6617 4746,6623 4740,6626 4733,6631 4726,6634 4720,6638 4713,6641 4707,6644 4700,6649 4693,6652 4687,6655 4668,6668 4648,6678 4642,6681 4634,6686 4624,6695 4633,6724 4632,6730 4629,6735 4624,6741 4619,6746 4616,6752 4616,6758 4617,6763 4620,6775 4620,6780 4620,6786 4620,6792 4620,6797 4619,6804 4615,6811 4612,6818 4593,6811 4587,6813 4580,6815 4574,6820 4567,6824 4560,6826 4554,6825 4550,6819 4548,6814 4547,6808 4545,6797 4542,6791 4539,6786 4537,6780 4537,6774 4534,6757 4529,6757 4522,6760 4516,6762 4509,6763 4502,6765 4496,6767 4489,6770 4483,6772 4476,6774 4469,6777 4463,6780 4456,6781 4449,6782 4443,6782 4436,6783 4429,6782 4424,6783 4420,6783 4414,6781 4407,6778 4401,6776 4394,6773 4387,6770 4374,6766 4368,6764 4361,6761 4354,6759 4348,6756 4341,6752 4335,6750 4328,6747 4321,6744 4315,6741 4308,6739 4304,6736 4288,6730 4278,6726 4271,6723 4265,6720 4258,6718 4252,6716 4244,6713 4226,6707 4209,6700 4206,6699 4201,6698 4195,6694 4188,6692 4182,6689 4175,6686 4168,6683 4162,6681 4155,6678 4149,6675 4141,6672 4135,6668 4122,6659 4116,6653 4110,6648 4104,6642 4100,6636 4096,6631 4092,6625 4089,6620 4085,6614 4083,6608 4080,6603 4077,6597 4075,6591 4068,6586 4062,6582 4051,6580 4035,6577 4029,6577 4022,6575 4015,6574 4009,6572 4002,6571 3994,6569 3985,6566 3981,6564 3974,6561 3968,6555 3964,6549 3960,6546 3951,6539 3936,6526 3930,6521 3912,6510 3897,6500 3891,6497 3885,6494 3878,6491 3872,6487 3867,6483 3858,6479 3852,6477 3845,6474 3838,6471 3832,6469 3825,6468 3819,6467 3812,6467 3805,6467 3799,6467 3792,6466 3786,6466 3779,6464 3766,6460 3750,6454 3731,6446 3716,6439 3709,6436 3702,6433 3696,6432 3689,6431 3683,6433 3676,6434 3669,6436 3664,6437 3654,6437 3651,6438 3644,6438 3638,6438 3630,6437 3620,6435 3612,6434 3607,6431 3601,6429 3594,6428 3587,6427 3581,6428 3574,6430 3567,6432 3561,6433 3554,6433 3548,6431 3544,6425 3544,6420 3544,6414 3544,6409 3542,6402 3539,6395 3537,6388 3533,6383 3532,6380 3528,6376 3529,6369 3531,6363 3532,6358 3533,6352 3532,6347 3529,6341 3528,6335 3527,6330 3525,6324 3523,6318 3520,6313 3517,6306 3512,6300 3507,6300 3503,6299 3496,6298 3490,6297 3483,6295 3477,6290 3471,6285 3467,6279 3463,6273 3457,6269 3450,6265 3444,6264 3437,6263 3433,6262 3425,6261 3424,6254 3421,6248 3418,6237 3417,6232 3416,6226 3416,6215 3417,6209 3417,6203 3411,6199 3404,6197 3397,6194 3391,6191 3384,6186 3379,6181 3374,6175 3370,6169 3371,6164 3374,6158 3375,6153 3372,6147 3370,6141 3366,6137 3360,6130 3355,6124 3351,6119 3349,6113 3345,6107 3338,6102 3331,6098 3324,6093 3318,6092 3292,6089 3284,6087 3277,6083 3300,6050 3326,6027 3352,6016 3380,6011 3393,6011 3399,6002 3400,5994 3393,5986 3370,5959 3365,5932 3375,5907 3405,5882 3432,5884 3459,5892 3487,5899 3499,5896 3512,5873 3518,5866 3541,5860 3567,5835 3585,5809 3591,5800 3601,5800 3611,5791 3619,5776 3617,5763 3611,5756 3600,5750 3590,5749 3579,5745 3574,5737 3576,5724 3578,5713 3571,5704 3562,5699 3550,5692 3545,5679 3545,5670 3550,5661 3536,5654 3525,5649 3517,5645 3488,5624 3487,5615 3505,5598 3516,5586 3511,5575 3504,5569 3477,5550 3478,5525 3481,5498 3487,5472 3512,5446 3537,5419 3562,5397 3576,5369 3576,5340 3573,5313 3577,5284 3560,5257 3546,5230 3548,5204 3553,5178 3549,5152 3529,5122 3531,5096 3530,5093 3558,5089 3590,5105 3626,5086 3655,5089 3683,5075 3714,5094 3749,5112 3776,5130 3817,5125 3851,5112 3893,5116 3918,5093 3882,5078 3862,5051 3881,5025 3894,4993 3888,4963 3917,4941 3920,4914 3947,4896 3978,4898 4007,4894 4043,4889 4072,4890 4108,4892 4138,4884 4167,4877 4196,4875 4226,4880 " class="polyStyle" id="341124" style="fill:#ee8b94"/>
<path d="" class="polyStyle" id="420325" style="fill:#fbe6ef"/>
<path d="" class="polyStyle" id="511921" style="fill:#f6f67b"/>
<polygon points="2900,2584 2912,2623 2928,2638 2924,2653 2924,2679 2929,2701 2921,2710 2913,2717 2915,2722 2908,2738 2912,2753 2923,2762 2951,2773 2977,2799 2956,2831 2978,2870 2993,2908 3022,2933 3036,2935 3045,2929 3048,2917 3065,2881 3098,2862 3127,2870 3139,2904 3170,2907 3196,2918 3223,2927 3239,2911 3239,2894 3242,2868 3269,2849 3299,2848 3333,2835 3367,2829 3402,2831 3437,2833 3465,2820 3496,2796 3526,2791 3553,2789 3585,2801 3615,2794 3652,2787 3683,2783 3712,2781 3741,2780 3775,2761 3806,2739 3835,2736 3866,2718 3893,2692 3906,2696 3915,2684 3924,2667 3938,2664 3969,2682 3967,2688 3945,2701 3931,2714 3922,2748 3932,2779 3929,2794 3914,2811 3915,2826 3916,2832 3928,2843 3931,2848 3927,2863 3951,2873 3962,2892 3978,2907 3995,2907 4011,2893 4024,2879 4036,2865 4050,2867 4070,2897 4084,2904 4114,2925 4140,2949 4173,2960 4207,2961 4237,2964 4259,2993 4285,3014 4317,3026 4349,3028 4381,3042 4406,3033 4437,3020 4467,3001 4493,3016 4527,3045 4555,3056 4582,3069 4612,3094 4584,3113 4553,3132 4560,3163 4590,3162 4607,3188 4575,3207 4589,3232 4558,3258 4555,3286 4554,3315 4581,3320 4615,3344 4625,3371 4648,3399 4643,3430 4615,3437 4613,3463 4621,3488 4639,3529 4671,3552 4688,3582 4718,3591 4752,3615 4759,3646 4777,3682 4768,3708 4741,3728 4708,3728 4655,3737 4628,3738 4598,3740 4551,3742 4517,3736 4471,3727 4433,3725 4415,3750 4414,3776 4411,3808 4392,3838 4414,3870 4409,3899 4401,3926 4393,3958 4372,3986 4346,4003 4321,4011 4288,4034 4258,4045 4237,4072 4212,4093 4190,4124 4165,4151 4135,4165 4113,4192 4103,4220 4087,4247 4059,4243 4027,4245 3994,4251 3961,4258 3935,4285 3908,4302 3890,4333 3874,4361 3873,4387 3851,4415 3843,4443 3825,4470 3829,4499 3813,4526 3796,4555 3770,4568 3743,4588 3754,4615 3731,4632 3720,4645 3680,4650 3650,4670 3629,4709 3615,4741 3623,4775 3630,4787 3626,4797 3616,4801 3603,4809 3596,4821 3606,4830 3631,4853 3646,4869 3653,4881 3652,4891 3646,4896 3627,4900 3599,4898 3562,4886 3530,4903 3499,4908 3466,4902 3432,4904 3411,4932 3393,4957 3383,4967 3356,4951 3335,4924 3297,4929 3266,4948 3241,4970 3212,4981 3183,4988 3154,4969 3146,4936 3116,4906 3087,4889 3052,4879 3018,4882 2990,4880 2961,4888 2929,4871 2896,4857 2859,4849 2819,4864 2799,4891 2762,4900 2759,4867 2748,4840 2715,4822 2689,4798 2674,4804 2661,4805 2632,4805 2603,4808 2592,4810 2577,4827 2572,4818 2583,4811 2582,4803 2570,4802 2573,4796 2567,4795 2530,4792 2515,4779 2503,4779 2491,4779 2475,4779 2468,4789 2458,4796 2450,4799 2430,4792 2423,4802 2412,4804 2389,4816 2374,4809 2335,4820 2306,4834 2283,4830 2281,4834 2279,4853 2274,4860 2267,4864 2255,4861 2247,4865 2243,4888 2204,4884 2184,4893 2151,4895 2122,4923 2087,4933 2058,4942 2025,4966 2009,4999 1984,5026 1953,5026 1919,5028 1881,5035 1845,5041 1820,5055 1787,5058 1761,5070 1728,5070 1693,5066 1664,5048 1632,5017 1596,5004 1566,4979 1549,4949 1520,4937 1487,4920 1460,4910 1425,4913 1397,4913 1367,4892 1340,4867 1326,4829 1337,4795 1307,4775 1283,4749 1249,4746 1244,4745 1223,4718 1206,4690 1197,4655 1203,4626 1218,4600 1245,4573 1255,4541 1273,4510 1291,4481 1298,4455 1315,4420 1337,4393 1365,4384 1395,4376 1421,4367 1423,4336 1420,4292 1411,4260 1379,4235 1349,4236 1319,4220 1291,4191 1260,4173 1221,4150 1193,4131 1216,4103 1188,4105 1149,4124 1111,4148 1083,4175 1056,4200 1028,4190 1001,4162 992,4131 1028,4113 1069,4115 1099,4086 1116,4059 1129,4030 1142,3994 1122,3962 1124,3935 1117,3905 1131,3873 1147,3845 1161,3816 1190,3821 1203,3796 1203,3782 1213,3767 1217,3755 1216,3749 1202,3726 1203,3684 1198,3678 1186,3678 1162,3691 1130,3721 1112,3753 1112,3784 1074,3786 1034,3792 1002,3801 975,3811 949,3828 919,3851 893,3872 861,3872 830,3873 798,3863 800,3832 772,3814 744,3824 717,3843 684,3851 664,3858 638,3865 615,3862 608,3852 597,3852 582,3837 570,3831 562,3817 536,3815 512,3808 471,3794 454,3783 416,3790 413,3798 394,3775 375,3772 355,3777 345,3792 324,3795 291,3766 277,3754 275,3743 268,3731 251,3722 245,3714 243,3702 257,3691 249,3660 251,3634 246,3606 241,3590 246,3575 259,3542 251,3537 254,3511 232,3478 216,3453 202,3422 206,3392 207,3384 219,3361 228,3347 252,3338 267,3320 267,3291 249,3259 210,3219 198,3177 196,3148 196,3120 188,3087 177,3054 167,3021 162,3006 187,2995 215,2988 243,2985 279,2984 315,2970 343,2958 372,2945 385,2942 421,2943 428,2944 438,2942 448,2950 462,2954 487,2954 512,2950 551,2956 579,2950 605,2941 637,2946 670,2938 706,2920 733,2899 767,2884 794,2871 823,2857 851,2830 878,2807 898,2801 922,2800 929,2804 928,2817 913,2835 899,2847 898,2852 909,2859 927,2851 942,2840 979,2805 999,2775 1017,2754 1037,2742 1059,2742 1109,2771 1137,2804 1162,2830 1194,2842 1243,2829 1273,2799 1339,2754 1357,2749 1395,2760 1418,2782 1432,2809 1444,2839 1465,2846 1497,2831 1524,2812 1558,2801 1599,2809 1624,2814 1649,2823 1692,2828 1730,2829 1762,2834 1787,2844 1818,2837 1847,2828 1879,2832 1909,2837 1942,2839 1967,2847 1978,2901 2011,2911 2039,2888 2065,2864 2091,2838 2116,2835 2155,2826 2186,2814 2213,2823 2234,2849 2262,2860 2299,2866 2332,2892 2341,2919 2373,2938 2404,2944 2431,2954 2444,2960 2471,2979 2505,2986 2538,2987 2564,2976 2554,2944 2540,2918 2554,2892 2573,2862 2606,2850 2634,2834 2653,2805 2669,2779 2685,2751 2706,2715 2728,2686 2738,2656 2733,2624 2731,2594 2757,2586 2795,2574 2829,2573 2857,2574 2867,2548 2887,2552 " class="polyStyle" id="341125" style="fill:#ee8b94"/>
<polygon points="7461,2368 7463,2376 7465,2390 7485,2400 7593,2434 7602,2439 7650,2438 7663,2456 7689,2466 7715,2477 7736,2503 7762,2528 7765,2554 7739,2571 7714,2573 7687,2586 7682,2613 7682,2639 7691,2664 7698,2689 7700,2715 7696,2742 7681,2768 7676,2777 7677,2803 7678,2829 7651,2826 7625,2830 7599,2841 7573,2840 7548,2853 7522,2870 7516,2895 7542,2897 7568,2920 7596,2912 7623,2912 7649,2924 7675,2931 7678,2956 7657,2982 7653,3008 7678,3023 7684,3049 7679,3050 7671,3052 7669,3056 7669,3062 7677,3070 7689,3072 7693,3074 7701,3076 7703,3084 7691,3096 7691,3100 7699,3112 7701,3126 7703,3138 7697,3142 7691,3146 7681,3146 7644,3142 7640,3141 7615,3128 7611,3126 7593,3124 7590,3123 7587,3122 7581,3117 7578,3115 7558,3113 7549,3111 7541,3112 7525,3112 7518,3112 7511,3115 7508,3109 7505,3105 7497,3091 7488,3084 7484,3090 7470,3090 7465,3095 7458,3103 7460,3113 7459,3122 7447,3126 7442,3127 7435,3129 7406,3148 7407,3160 7406,3164 7404,3168 7401,3168 7397,3168 7396,3174 7394,3177 7375,3185 7367,3190 7362,3191 7363,3185 7356,3168 7342,3145 7336,3132 7333,3128 7319,3118 7316,3116 7287,3110 7223,3097 7208,3091 7203,3079 7192,3073 7188,3073 7157,3096 7147,3102 7143,3102 7125,3099 7114,3102 7105,3106 7065,3137 7047,3148 7044,3151 7032,3178 7024,3224 7018,3258 7019,3261 7024,3269 7039,3286 7086,3314 7122,3334 7156,3341 7195,3356 7228,3378 7243,3394 7243,3403 7241,3413 7226,3447 7223,3465 7236,3474 7257,3474 7269,3476 7273,3479 7276,3485 7283,3499 7286,3515 7285,3519 7277,3533 7275,3537 7255,3554 7243,3566 7241,3569 7238,3570 7177,3565 7173,3567 7161,3579 7163,3619 7163,3634 7161,3670 7164,3679 7165,3682 7168,3686 7184,3696 7239,3699 7242,3726 7263,3727 7301,3727 7307,3727 7325,3737 7340,3741 7356,3734 7360,3731 7366,3725 7370,3723 7404,3728 7412,3728 7425,3708 7435,3692 7471,3701 7508,3716 7527,3723 7561,3732 7570,3733 7601,3721 7605,3720 7625,3715 7645,3715 7652,3717 7653,3720 7662,3752 7660,3768 7658,3772 7654,3782 7652,3792 7653,3799 7655,3806 7655,3812 7656,3816 7650,3832 7646,3845 7643,3866 7642,3883 7638,3907 7634,3925 7633,3942 7642,3986 7642,4003 7631,4042 7624,4063 7624,4066 7626,4069 7629,4069 7633,4075 7637,4088 7636,4093 7632,4095 7628,4096 7622,4097 7606,4094 7595,4112 7596,4120 7598,4130 7610,4137 7614,4140 7638,4156 7654,4190 7655,4193 7658,4201 7663,4217 7677,4237 7686,4251 7689,4255 7701,4271 7712,4286 7731,4297 7739,4305 7736,4308 7726,4311 7701,4326 7694,4331 7685,4342 7682,4349 7682,4357 7686,4366 7697,4372 7705,4374 7718,4376 7736,4387 7740,4394 7739,4401 7733,4415 7726,4422 7717,4429 7714,4432 7698,4434 7662,4432 7652,4431 7644,4432 7638,4434 7627,4437 7618,4445 7616,4453 7622,4461 7641,4467 7662,4470 7676,4473 7683,4478 7684,4482 7683,4487 7678,4492 7675,4493 7665,4495 7630,4492 7595,4497 7578,4507 7574,4510 7559,4526 7543,4536 7533,4541 7507,4550 7493,4562 7488,4573 7488,4578 7488,4583 7496,4595 7511,4600 7541,4603 7549,4613 7551,4627 7552,4650 7552,4654 7541,4678 7523,4702 7514,4714 7507,4728 7502,4736 7500,4747 7501,4752 7502,4762 7508,4769 7512,4775 7536,4791 7557,4797 7569,4800 7575,4804 7578,4814 7575,4821 7568,4828 7566,4836 7562,4852 7546,4889 7539,4904 7531,4915 7458,4986 7443,4998 7435,5016 7427,5024 7420,5028 7398,5034 7384,5042 7360,5058 7355,5061 7344,5065 7341,5065 7335,5065 7305,5053 7291,5051 7277,5054 7242,5066 7190,5079 7168,5103 7161,5101 7159,5093 7154,5077 7139,5078 7132,5084 7118,5088 7101,5085 7088,5078 7073,5068 7066,5065 7051,5067 7036,5072 7028,5077 7025,5080 7001,5094 6995,5093 6977,5086 6972,5083 6966,5080 6957,5078 6950,5080 6943,5091 6942,5098 6937,5104 6913,5111 6895,5114 6892,5115 6878,5112 6860,5101 6854,5101 6829,5129 6822,5133 6819,5134 6808,5137 6804,5137 6790,5133 6769,5121 6748,5108 6745,5107 6736,5106 6726,5104 6692,5098 6675,5097 6662,5091 6629,5089 6615,5089 6592,5083 6570,5086 6556,5076 6556,5061 6543,5055 6530,5057 6515,5067 6506,5066 6499,5058 6508,5041 6511,5029 6495,5023 6486,5039 6479,5042 6468,5041 6461,5040 6449,5035 6431,5051 6422,5057 6407,5042 6391,5027 6369,5021 6357,5017 6350,5009 6345,4996 6336,4972 6324,4967 6308,4935 6295,4927 6275,4923 6266,4918 6275,4891 6271,4876 6278,4870 6300,4869 6306,4868 6316,4856 6312,4841 6299,4836 6283,4841 6268,4837 6254,4819 6228,4812 6223,4801 6223,4784 6217,4774 6209,4771 6198,4779 6184,4784 6175,4768 6176,4752 6207,4728 6240,4740 6268,4751 6294,4755 6319,4725 6340,4687 6338,4654 6335,4621 6340,4587 6368,4551 6368,4525 6337,4521 6350,4492 6334,4466 6307,4435 6295,4402 6329,4387 6362,4382 6402,4376 6404,4347 6381,4318 6356,4309 6335,4284 6303,4270 6271,4254 6243,4226 6211,4239 6180,4234 6170,4226 6153,4213 6144,4176 6125,4156 6107,4150 6094,4151 6080,4139 6053,4122 6049,4113 6071,4094 6089,4079 6089,4067 6073,4041 6038,4025 6003,4043 5974,4045 5950,4013 5963,3982 5962,3947 5932,3916 5916,3888 5889,3876 5850,3876 5817,3856 5798,3844 5791,3831 5791,3801 5801,3792 5820,3794 5836,3781 5831,3765 5844,3733 5838,3705 5840,3688 5839,3679 5847,3670 5853,3669 5860,3664 5872,3664 5881,3671 5880,3681 5875,3694 5880,3704 5918,3722 5941,3714 5953,3703 5960,3686 5956,3670 5947,3643 5941,3620 5927,3587 5918,3579 5905,3572 5891,3579 5883,3580 5878,3571 5876,3550 5889,3516 5902,3487 5923,3462 5937,3436 5948,3400 5929,3375 5925,3349 5917,3319 5920,3288 5955,3267 5982,3251 6007,3224 6027,3190 6033,3162 6048,3137 6052,3105 6050,3093 6059,3093 6078,3093 6108,3098 6146,3094 6178,3096 6205,3109 6233,3103 6233,3077 6237,3048 6222,3020 6251,2988 6277,2965 6309,2958 6336,2938 6324,2903 6294,2894 6266,2871 6266,2842 6277,2811 6306,2795 6337,2795 6343,2767 6341,2739 6341,2699 6334,2671 6302,2648 6285,2618 6272,2590 6278,2557 6302,2521 6307,2500 6319,2494 6329,2486 6345,2480 6357,2466 6409,2400 6417,2380 6421,2376 6431,2370 6439,2366 6449,2364 6455,2362 6463,2376 6467,2392 6473,2428 6481,2438 6487,2450 6501,2458 6523,2466 6545,2472 6555,2474 6583,2476 6617,2476 6629,2472 6631,2466 6634,2453 6639,2450 6659,2458 6671,2460 6691,2464 6709,2464 6725,2460 6785,2458 6809,2454 6847,2446 6861,2444 6873,2440 6889,2436 6907,2432 6943,2426 6963,2426 6991,2434 7041,2462 7051,2476 7063,2480 7081,2480 7107,2468 7219,2444 7237,2440 7247,2422 7257,2388 7279,2378 7299,2370 7315,2366 7325,2366 7339,2368 7341,2380 7343,2386 7365,2388 7365,2378 7365,2368 7373,2356 7389,2350 7421,2362 " class="polyStyle" id="341122" style="fill:#ee8b94"/>
<polygon points="3132,861 3159,882 3186,908 3206,933 3232,941 3258,940 3283,937 3310,934 3335,928 3347,926 3375,920 3401,913 3427,905 3454,902 3479,900 3506,896 3531,889 3558,881 3585,873 3612,862 3638,869 3650,894 3643,920 3692,998 3707,992 3719,1004 3694,1023 3621,1060 3598,1059 3592,1066 3584,1072 3576,1074 3568,1075 3468,1079 3454,1089 3451,1093 3433,1118 3414,1143 3390,1170 3374,1197 3382,1226 3392,1252 3396,1265 3404,1291 3412,1318 3417,1344 3421,1373 3422,1401 3423,1428 3439,1453 3443,1469 3448,1503 3451,1535 3457,1561 3452,1575 3458,1588 3440,1592 3435,1601 3436,1612 3452,1638 3464,1651 3478,1656 3505,1664 3534,1675 3561,1683 3588,1688 3613,1686 3642,1682 3670,1681 3700,1687 3728,1692 3750,1718 3755,1746 3781,1773 3807,1800 3797,1826 3784,1851 3775,1880 3760,1905 3752,1932 3752,1959 3748,1985 3752,2014 3756,2041 3753,2066 3738,2093 3751,2121 3756,2147 3784,2160 3810,2179 3839,2184 3865,2193 3894,2206 3920,2216 3943,2225 3948,2236 3943,2251 3932,2262 3914,2290 3907,2318 3903,2333 3883,2355 3868,2370 3855,2390 3835,2415 3840,2444 3845,2472 3853,2498 3855,2526 3863,2553 3859,2573 3852,2606 3843,2632 3841,2642 3863,2667 3893,2692 3866,2718 3835,2736 3806,2739 3775,2761 3741,2780 3712,2781 3683,2783 3652,2787 3615,2794 3585,2801 3553,2789 3526,2791 3496,2796 3465,2820 3437,2833 3402,2831 3367,2829 3333,2835 3299,2848 3269,2849 3242,2868 3239,2894 3239,2911 3223,2927 3196,2918 3170,2907 3139,2904 3127,2870 3098,2862 3065,2881 3048,2917 3045,2929 3036,2935 3022,2933 2993,2908 2978,2870 2956,2831 2977,2799 2951,2773 2923,2762 2912,2753 2908,2738 2915,2722 2913,2717 2921,2710 2929,2701 2924,2679 2924,2653 2928,2638 2912,2623 2900,2584 2887,2552 2867,2548 2857,2574 2829,2573 2795,2574 2757,2586 2731,2594 2733,2624 2738,2656 2728,2686 2706,2715 2685,2751 2669,2779 2653,2805 2634,2834 2606,2850 2573,2862 2554,2892 2540,2918 2554,2944 2564,2976 2538,2987 2505,2986 2471,2979 2444,2960 2431,2954 2404,2944 2373,2938 2341,2919 2332,2892 2299,2866 2262,2860 2234,2849 2213,2823 2186,2814 2155,2826 2116,2835 2091,2838 2065,2864 2039,2888 2011,2911 1978,2901 1967,2847 1942,2839 1909,2837 1879,2832 1847,2828 1818,2837 1787,2844 1762,2834 1730,2829 1692,2828 1649,2823 1624,2814 1599,2809 1558,2801 1524,2812 1497,2831 1465,2846 1444,2839 1432,2809 1418,2782 1395,2760 1357,2749 1339,2754 1273,2799 1243,2829 1194,2842 1162,2830 1137,2804 1109,2771 1059,2742 1037,2742 1017,2754 999,2775 979,2805 942,2840 927,2851 909,2859 898,2852 899,2847 913,2835 928,2817 929,2804 922,2800 898,2801 878,2807 851,2830 823,2857 794,2871 767,2884 733,2899 706,2920 670,2938 637,2946 605,2941 579,2950 551,2956 512,2950 487,2954 462,2954 448,2950 438,2942 428,2944 421,2943 385,2942 372,2945 343,2958 315,2970 279,2984 243,2985 215,2988 187,2995 162,3006 145,2967 132,2940 117,2911 97,2878 80,2847 58,2757 46,2732 20,2704 0,2671 19,2641 50,2625 84,2605 118,2597 128,2559 138,2528 145,2496 173,2478 214,2452 185,2423 177,2407 211,2375 237,2346 271,2323 296,2315 325,2287 357,2254 388,2237 380,2209 383,2180 389,2148 415,2116 432,2084 461,2056 475,2052 502,2068 528,2076 555,2074 585,2058 609,2040 611,2028 591,2014 587,1980 612,1986 632,2005 687,2001 694,2001 743,1990 749,1972 746,1957 747,1954 767,1944 799,1949 824,1951 853,1948 880,1944 910,1941 935,1939 960,1913 985,1892 1013,1880 1038,1891 1067,1894 1092,1887 1119,1892 1149,1898 1175,1898 1201,1910 1229,1913 1256,1919 1284,1919 1290,1892 1294,1863 1303,1859 1319,1852 1345,1864 1370,1870 1395,1870 1421,1871 1450,1871 1476,1870 1502,1878 1531,1891 1559,1892 1584,1875 1604,1848 1613,1822 1630,1794 1649,1767 1674,1744 1703,1731 1733,1737 1761,1715 1769,1687 1764,1658 1736,1633 1710,1612 1702,1583 1721,1556 1726,1529 1736,1500 1739,1471 1751,1445 1763,1417 1789,1396 1816,1395 1840,1367 1844,1340 1847,1314 1841,1285 1839,1263 1838,1236 1843,1208 1851,1180 1853,1177 1881,1187 1907,1204 1934,1223 1960,1244 1988,1268 2013,1295 2039,1322 2065,1338 2092,1356 2120,1383 2143,1410 2170,1436 2195,1456 2222,1470 2250,1470 2278,1465 2306,1457 2333,1456 2361,1472 2388,1496 2415,1523 2443,1530 2473,1529 2498,1526 2527,1516 2555,1501 2566,1476 2572,1450 2583,1423 2594,1397 2607,1368 2623,1340 2640,1314 2655,1285 2668,1257 2678,1228 2686,1202 2693,1173 2697,1145 2702,1117 2714,1089 2724,1075 2750,1054 2777,1045 2805,1044 2831,1054 2858,1063 2884,1065 2885,1061 2915,1047 2932,1020 2945,995 2961,968 2975,943 2989,917 3007,889 3029,861 3055,847 3080,845 3105,848 " class="polyStyle" id="341126" style="fill:#f6f67b"/>
<path d="" class="polyStyle" id="542525" style="fill:#f6f67b"/>
<path d="" class="polyStyle" id="611026" style="fill:#ee8b94"/>
<path d="" class="polyStyle" id="411023" style="fill:#fbe6ef"/>
<path d="" class="polyStyle" id="632323" style="fill:#f6f67b"/>
<path d="" class="polyStyle" id="140525" style="fill:#d4ecb2"/>
<path d="" class="polyStyle" id="410922" style="fill:#ee8b94"/>
<path d="" class="polyStyle" id="621027" style="fill:#ee8b94"/>
<path d="" class="polyStyle" id="130427" style="fill:#f6f67b"/>
<path d="" class="polyStyle" id="130121" style="fill:#ee8b94"/>
<path d="" class="polyStyle" id="610823" style="fill:#fbe6ef"/>
<path d="" class="polyStyle" id="130225" style="fill:#fbe6ef"/>
<path d="" class="polyStyle" id="130322" style="fill:#d4ecb2"/>
<path d="" class="polyStyle" id="653130" style="fill:#f6f67b"/>
<path d="" class="polyStyle" id="130822" style="fill:#fbe6ef"/>
<path d="" class="polyStyle" id="211221" style="fill:#f6f67b"/>
<path d="" class="polyStyle" id="210921" style="fill:#f6f67b"/>
<path d="" class="polyStyle" id="150223" style="fill:#f8c67d"/>
<path d="" class="polyStyle" id="220422" style="fill:#d4ecb2"/>
<path d="" class="polyStyle" id="340721" style="fill:#f6f67b"/>
<path d="" class="polyStyle" id="510824" style="fill:#d4ecb2"/>
<path d="" class="polyStyle" id="610324" style="fill:#f6f67b"/>
<path d="" class="polyStyle" id="530722" style="fill:#ee8b94"/>
<path d="" class="polyStyle" id="340823" style="fill:#d4ecb2"/>
<path d="" class="polyStyle" id="620825" style="fill:#d4ecb2"/>
<path d="" class="polyStyle" id="421125" style="fill:#ee8b94"/>
<path d="" class="polyStyle" id="210281" style="fill:#ee8b94"/>
<path d="" class="polyStyle" id="440883" style="fill:#f6f67b"/>
<path d="" class="polyStyle" id="469006" style="fill:#d4ecb2"/>
<path d="" class="polyStyle" id="469002" style="fill:#ee8b94"/>
<path d="" class="polyStyle" id="469005" style="fill:#fbe6ef"/>
<path d="" class="polyStyle" id="440882" style="fill:#ee8b94"/>
<path d="" class="polyStyle" id="450681" style="fill:#ee8b94"/>
<path d="" class="polyStyle" id="441581" style="fill:#d4ecb2"/>
<path d="" class="polyStyle" id="421087" style="fill:#ee8b94"/>
<path d="" class="polyStyle" id="420984" style="fill:#fbe6ef"/>
<path d="" class="polyStyle" id="420582" style="fill:#ee8b94"/>
<polygon points="8661,1280 8657,1300 8653,1308 8652,1312 8649,1338 8653,1376 8667,1378 8683,1368 8715,1372 8719,1354 8773,1370 8811,1384 8853,1390 8863,1388 8889,1358 8906,1343 8937,1344 8983,1340 9005,1346 9015,1346 9039,1342 9093,1314 9145,1288 9157,1274 9203,1274 9239,1284 9231,1296 9267,1306 9299,1298 9323,1372 9327,1396 9329,1402 9341,1434 9345,1442 9343,1450 9335,1456 9327,1456 9309,1458 9299,1454 9289,1450 9285,1448 9279,1452 9279,1460 9281,1470 9283,1476 9291,1484 9283,1506 9269,1522 9269,1528 9271,1536 9269,1546 9291,1548 9339,1544 9373,1540 9391,1532 9411,1526 9419,1526 9419,1588 9425,1612 9459,1674 9505,1730 9541,1750 9581,1782 9621,1812 9677,1894 9711,1936 9745,1962 9791,1974 9875,1972 9907,1968 10035,1950 10105,1942 10117,1942 10137,2036 10157,2122 10243,2430 10248,2473 10249,2492 10253,2560 10251,2661 10248,2765 10245,2825 10244,2854 10244,2860 10245,2879 10248,2898 10250,2913 10256,2927 10269,2943 10273,2954 10274,2959 10271,2970 10263,2978 10243,2992 10234,2998 10219,3008 10229,3024 10263,3030 10279,3030 10317,3030 10333,3028 10333,3044 10333,3052 10331,3064 10330,3066 10329,3072 10311,3102 10309,3106 10297,3120 10287,3122 10273,3124 10275,3162 10277,3176 10299,3186 10303,3190 10299,3196 10273,3220 10269,3230 10261,3236 10253,3240 10249,3236 10241,3228 10233,3222 10225,3210 10211,3192 10199,3178 10195,3176 10175,3168 10161,3166 10157,3164 10147,3160 10140,3149 10140,3142 10139,3135 10150,3117 10150,3107 10139,3092 10131,3092 10109,3092 10091,3100 10077,3112 10071,3128 10071,3146 10077,3162 10081,3184 10073,3194 10067,3200 10061,3200 10055,3200 10047,3200 10039,3202 10013,3230 10001,3242 9975,3268 9949,3272 9947,3280 9945,3298 9959,3304 9973,3312 9985,3316 10001,3342 10017,3360 10023,3372 10027,3406 10021,3430 10017,3432 10013,3430 9993,3420 9991,3416 9993,3408 9990,3408 9981,3402 9967,3405 9960,3403 9950,3403 9945,3404 9947,3408 9959,3448 9943,3462 9959,3500 9967,3530 9963,3550 9921,3568 9903,3588 9927,3598 9925,3612 9905,3622 9875,3620 9849,3610 9843,3618 9819,3634 9807,3642 9815,3654 9803,3676 9787,3684 9765,3696 9737,3708 9725,3720 9707,3730 9699,3720 9693,3716 9687,3712 9669,3704 9665,3704 9661,3712 9647,3746 9649,3756 9651,3766 9653,3788 9651,3796 9625,3812 9589,3810 9569,3800 9561,3794 9555,3786 9537,3778 9528,3775 9519,3771 9508,3768 9509,3764 9511,3756 9519,3742 9523,3728 9525,3710 9477,3704 9475,3680 9517,3684 9521,3672 9521,3660 9503,3650 9467,3632 9451,3628 9437,3622 9425,3618 9411,3612 9415,3598 9437,3590 9419,3560 9405,3564 9403,3544 9399,3528 9399,3518 9395,3500 9367,3496 9353,3496 9307,3496 9299,3472 9269,3470 9279,3502 9227,3504 9221,3512 9227,3522 9223,3540 9199,3546 9191,3574 9165,3572 9147,3556 9129,3556 9119,3556 9113,3560 9105,3560 9065,3550 9043,3514 9041,3506 9033,3490 9043,3458 9027,3438 9015,3432 9009,3436 8999,3442 8989,3438 8983,3428 8981,3422 8979,3410 8969,3398 8957,3384 8919,3354 8891,3326 8871,3298 8847,3300 8831,3300 8817,3298 8807,3294 8803,3292 8795,3286 8783,3276 8771,3280 8765,3284 8773,3304 8785,3312 8787,3316 8789,3324 8783,3330 8773,3334 8755,3334 8741,3334 8741,3322 8745,3282 8725,3284 8721,3286 8699,3312 8699,3316 8687,3326 8670,3333 8653,3326 8635,3316 8629,3300 8631,3288 8637,3284 8659,3266 8667,3266 8673,3280 8687,3292 8689,3244 8673,3240 8667,3232 8671,3204 8674,3201 8685,3195 8692,3193 8695,3191 8702,3178 8706,3171 8709,3168 8724,3160 8739,3151 8746,3140 8748,3131 8746,3127 8735,3120 8731,3121 8725,3129 8714,3136 8699,3142 8679,3146 8665,3142 8645,3134 8617,3126 8611,3128 8605,3138 8611,3166 8617,3180 8621,3192 8617,3200 8607,3206 8595,3198 8589,3192 8583,3176 8577,3164 8567,3162 8559,3160 8551,3160 8559,3194 8507,3202 8499,3206 8489,3204 8475,3204 8467,3210 8453,3224 8437,3240 8429,3244 8415,3244 8397,3236 8369,3224 8361,3224 8335,3216 8325,3196 8351,3196 8343,3172 8303,3172 8281,3168 8277,3156 8281,3150 8289,3140 8301,3136 8311,3136 8315,3132 8315,3126 8313,3122 8315,3110 8311,3102 8307,3090 8323,3074 8323,3070 8301,3066 8249,3074 8235,3086 8247,3108 8237,3114 8225,3112 8219,3112 8211,3124 8215,3132 8215,3140 8213,3148 8221,3158 8221,3170 8189,3166 8151,3162 8131,3164 8117,3162 8097,3148 8089,3142 8077,3132 8073,3124 8077,3106 8079,3094 8059,3084 8044,3077 8035,3072 8029,3070 8007,3062 8001,3060 7973,3054 7961,3058 7957,3060 7953,3062 7945,3100 7909,3126 7883,3134 7867,3130 7857,3124 7849,3120 7837,3116 7833,3112 7829,3106 7825,3104 7823,3096 7821,3084 7825,3064 7823,3044 7817,3026 7799,3012 7791,3012 7787,3016 7757,3032 7743,3036 7729,3038 7707,3044 7695,3046 7691,3048 7684,3049 7678,3023 7653,3008 7657,2982 7678,2956 7675,2931 7649,2924 7623,2912 7596,2912 7568,2920 7542,2897 7516,2895 7522,2870 7548,2853 7573,2840 7599,2841 7625,2830 7651,2826 7678,2829 7677,2803 7676,2777 7681,2768 7696,2742 7700,2715 7698,2689 7691,2664 7682,2639 7682,2613 7687,2586 7714,2573 7739,2571 7765,2554 7762,2528 7736,2503 7715,2477 7689,2466 7663,2456 7650,2438 7685,2460 7713,2470 7727,2476 7743,2476 7763,2468 7777,2466 7799,2470 7817,2470 7823,2468 7829,2458 7831,2454 7839,2436 7863,2422 7867,2422 7907,2414 7953,2400 7987,2398 7992,2386 7986,2386 7982,2381 7984,2365 7977,2350 7974,2337 7968,2327 7958,2300 7954,2298 7949,2301 7946,2300 7934,2288 7916,2278 7904,2261 7901,2250 7900,2241 7897,2240 7888,2241 7889,2232 7878,2231 7871,2226 7875,2216 7885,2190 7887,2164 7885,2152 7879,2114 7883,2104 7899,2092 7915,2068 7919,2042 7923,2008 7915,1978 7911,1928 7901,1854 7899,1850 7891,1828 7898,1820 7904,1815 7908,1821 7913,1820 7926,1806 7941,1792 7953,1795 7968,1795 7995,1801 8003,1803 8006,1805 8017,1816 8021,1816 8025,1813 8030,1813 8032,1817 8034,1824 8039,1824 8047,1817 8056,1818 8062,1822 8077,1822 8088,1828 8094,1834 8102,1838 8122,1838 8136,1838 8147,1840 8149,1834 8153,1814 8163,1806 8169,1804 8177,1802 8201,1798 8223,1794 8245,1794 8257,1794 8263,1790 8263,1784 8265,1778 8265,1770 8261,1762 8257,1754 8255,1750 8247,1742 8243,1736 8233,1728 8225,1724 8219,1720 8217,1716 8217,1710 8233,1704 8245,1700 8251,1694 8255,1686 8259,1670 8265,1652 8267,1638 8267,1630 8263,1624 8255,1612 8255,1598 8263,1580 8265,1560 8261,1552 8259,1548 8251,1544 8241,1538 8235,1533 8235,1520 8237,1510 8279,1480 8299,1478 8317,1480 8363,1512 8371,1516 8379,1520 8387,1516 8391,1504 8383,1474 8397,1452 8419,1466 8427,1468 8433,1466 8441,1438 8435,1416 8427,1400 8417,1388 8413,1374 8409,1368 8397,1362 8399,1348 8421,1342 8439,1348 8447,1354 8449,1332 8433,1314 8441,1292 8469,1286 8479,1286 8493,1288 8511,1298 8521,1302 8531,1300 8533,1284 8541,1280 8569,1284 8599,1294 8613,1292 8617,1274 8629,1264 8651,1274 " class="polyStyle" id="341181" style="fill:#d4ecb2"/>
<polygon points="5158,16 5181,30 5209,48 5241,78 5279,120 5297,160 5301,180 5307,204 5302,271 5307,311 5293,470 5293,508 5217,520 5211,560 5295,552 5312,585 5311,625 5315,641 5293,634 5227,620 5217,640 5285,658 5317,660 5324,693 5334,720 5313,724 5283,720 5271,720 5251,780 5317,780 5329,774 5357,764 5373,794 5389,838 5407,930 5411,1020 5413,1068 5413,1092 5425,1119 5456,1164 5485,1194 5518,1224 5550,1233 5581,1237 5638,1234 5675,1233 5703,1239 5733,1248 5745,1254 5751,1267 5754,1276 5754,1282 5720,1302 5670,1342 5619,1361 5588,1366 5538,1377 5500,1378 5437,1384 5413,1390 5393,1400 5359,1430 5343,1448 5335,1462 5341,1478 5363,1504 5369,1554 5385,1630 5405,1680 5415,1708 5427,1748 5423,1790 5421,1820 5427,1822 5451,1820 5451,1848 5461,1855 5474,1855 5482,1841 5485,1824 5527,1791 5545,1792 5567,1796 5587,1794 5613,1792 5627,1794 5625,1812 5621,1824 5627,1850 5641,1858 5645,1856 5649,1856 5653,1856 5661,1854 5669,1850 5673,1846 5683,1822 5689,1814 5709,1822 5707,1830 5705,1840 5701,1850 5699,1858 5691,1874 5683,1880 5681,1900 5681,1914 5707,1946 5723,2016 5725,2025 5723,2038 5721,2044 5717,2052 5711,2056 5701,2060 5689,2072 5685,2102 5699,2154 5713,2174 5727,2180 5749,2186 5759,2188 5775,2184 5787,2180 5795,2184 5821,2206 5819,2216 5819,2228 5811,2246 5807,2262 5807,2266 5819,2276 5829,2276 5865,2272 5869,2272 5897,2220 5923,2210 5957,2214 6009,2216 6017,2230 6029,2242 6049,2304 6049,2342 6037,2384 6033,2394 6031,2434 6029,2446 6037,2478 6045,2486 6057,2486 6085,2488 6101,2490 6113,2490 6137,2488 6177,2484 6185,2486 6193,2480 6205,2480 6215,2482 6233,2498 6249,2500 6307,2500 6302,2521 6278,2557 6272,2590 6285,2618 6302,2648 6334,2671 6341,2699 6341,2739 6343,2767 6337,2795 6306,2795 6277,2811 6266,2842 6266,2871 6294,2894 6324,2903 6336,2938 6309,2958 6277,2965 6251,2988 6222,3020 6237,3048 6233,3077 6233,3103 6205,3109 6178,3096 6146,3094 6108,3098 6078,3093 6059,3093 6050,3093 6016,3095 5983,3096 5952,3078 5917,3068 5900,3042 5872,3048 5849,3079 5837,3107 5823,3144 5800,3175 5763,3215 5735,3247 5726,3257 5699,3264 5691,3274 5689,3292 5688,3302 5679,3319 5678,3346 5676,3368 5668,3390 5667,3423 5667,3433 5663,3443 5651,3450 5635,3451 5632,3460 5638,3468 5644,3479 5641,3486 5628,3488 5618,3495 5616,3507 5620,3521 5642,3530 5648,3541 5645,3550 5623,3564 5613,3566 5602,3570 5606,3576 5627,3588 5630,3597 5601,3617 5563,3619 5539,3617 5529,3620 5523,3628 5521,3638 5523,3644 5529,3649 5539,3650 5535,3661 5534,3680 5530,3699 5525,3710 5521,3717 5525,3736 5531,3740 5541,3748 5541,3754 5535,3762 5534,3770 5527,3785 5510,3763 5501,3757 5467,3756 5458,3756 5439,3749 5424,3754 5416,3763 5415,3779 5417,3811 5409,3822 5383,3831 5352,3825 5331,3824 5313,3830 5302,3836 5286,3837 5249,3811 5239,3798 5217,3789 5213,3778 5218,3764 5210,3762 5189,3770 5180,3772 5158,3756 5141,3739 5126,3729 5097,3715 5087,3709 5077,3710 5069,3722 5066,3751 5061,3762 5050,3760 5035,3751 5031,3738 5025,3738 5005,3745 5001,3742 4998,3737 4998,3730 4993,3726 4976,3727 4965,3728 4958,3725 4954,3719 4950,3716 4944,3720 4942,3726 4936,3727 4931,3721 4929,3715 4932,3709 4934,3705 4934,3699 4930,3698 4923,3695 4904,3691 4873,3690 4839,3692 4814,3694 4777,3682 4759,3646 4752,3615 4718,3591 4688,3582 4671,3552 4639,3529 4621,3488 4613,3463 4615,3437 4643,3430 4648,3399 4625,3371 4615,3344 4581,3320 4554,3315 4555,3286 4558,3258 4589,3232 4575,3207 4607,3188 4590,3162 4560,3163 4553,3132 4584,3113 4612,3094 4582,3069 4555,3056 4527,3045 4493,3016 4467,3001 4437,3020 4406,3033 4381,3042 4349,3028 4317,3026 4285,3014 4259,2993 4237,2964 4207,2961 4173,2960 4140,2949 4114,2925 4084,2904 4070,2897 4050,2867 4036,2865 4024,2879 4011,2893 3995,2907 3978,2907 3962,2892 3951,2873 3927,2863 3931,2848 3928,2843 3916,2832 3915,2826 3914,2811 3929,2794 3932,2779 3922,2748 3931,2714 3945,2701 3967,2688 3969,2682 3938,2664 3924,2667 3915,2684 3906,2696 3893,2692 3863,2667 3841,2642 3843,2632 3852,2606 3859,2573 3863,2553 3855,2526 3853,2498 3845,2472 3840,2444 3835,2415 3855,2390 3868,2370 3883,2355 3903,2333 3907,2318 3914,2290 3932,2262 3943,2251 3948,2236 3943,2225 3920,2216 3894,2206 3865,2193 3839,2184 3810,2179 3784,2160 3756,2147 3751,2121 3738,2093 3753,2066 3756,2041 3752,2014 3748,1985 3752,1959 3752,1932 3760,1905 3775,1880 3784,1851 3797,1826 3807,1800 3781,1773 3755,1746 3750,1718 3728,1692 3700,1687 3670,1681 3642,1682 3613,1686 3588,1688 3561,1683 3534,1675 3505,1664 3478,1656 3464,1651 3452,1638 3436,1612 3435,1601 3440,1592 3458,1588 3452,1575 3457,1561 3451,1535 3448,1503 3443,1469 3439,1453 3423,1428 3422,1401 3421,1373 3417,1344 3412,1318 3404,1291 3396,1265 3392,1252 3382,1226 3374,1197 3390,1170 3414,1143 3433,1118 3451,1093 3454,1089 3468,1079 3568,1075 3576,1074 3584,1072 3592,1066 3598,1059 3592,1071 3625,1087 3655,1107 3661,1118 3669,1127 3687,1129 3700,1119 3712,1130 3741,1154 3770,1153 3796,1132 3823,1107 3848,1089 3874,1074 3899,1056 3913,1029 3938,1010 3965,1009 3990,1034 4009,1060 4038,1067 4065,1063 4090,1037 4116,1013 4143,1026 4169,1037 4195,1063 4222,1070 4247,1073 4274,1070 4301,1064 4326,1052 4334,1043 4336,1017 4362,1005 4376,978 4362,951 4342,926 4339,900 4313,903 4288,914 4262,928 4236,926 4211,901 4197,874 4194,849 4204,823 4231,804 4257,802 4283,797 4306,772 4327,749 4353,725 4379,708 4405,715 4431,738 4456,741 4483,732 4510,725 4535,715 4547,689 4553,662 4554,636 4529,619 4518,592 4544,574 4547,548 4548,521 4559,496 4565,471 4565,444 4569,417 4544,414 4517,423 4490,437 4464,451 4438,459 4424,433 4450,412 4475,405 4502,402 4528,406 4545,378 4550,377 4602,350 4624,332 4782,280 4879,252 4940,239 4958,229 4968,222 4992,195 4991,164 4980,132 4976,111 4979,95 5002,53 5026,26 5046,10 5073,0 5099,0 5115,4 " class="polyStyle" id="341182" style="fill:#fbe6ef"/>
<path d="" class="polyStyle" id="370282" style="fill:#f6f67b"/>
<path d="" class="polyStyle" id="371083" style="fill:#f6f67b"/>
<path d="" class="polyStyle" id="371082" style="fill:#fbe6ef"/>
<path d="" class="polyStyle" id="652801" style="fill:#f8c67d"/>
<path d="" class="polyStyle" id="654301" style="fill:#ee8b94"/>
<path d="" class="polyStyle" id="370687" style="fill:#ee8b94"/>
<path d="" class="polyStyle" id="371482" style="fill:#d4ecb2"/>
<path d="" class="polyStyle" id="421081" style="fill:#fbe6ef"/>
<path d="" class="polyStyle" id="429006" style="fill:#f6f67b"/>
<path d="" class="polyStyle" id="440982" style="fill:#d4ecb2"/>
<path d="" class="polyStyle" id="421181" style="fill:#d4ecb2"/>
<path d="" class="polyStyle" id="321181" style="fill:#d4ecb2"/>
<path d="" class="polyStyle" id="659007" style="fill:#ee8b94"/>
<path d="" class="polyStyle" id="652701" style="fill:#fbe6ef"/>
<path d="" class="polyStyle" id="210781" style="fill:#fbe6ef"/>
<path d="" class="polyStyle" id="460204" style="fill:#f6f67b"/>
<path d="" class="polyStyle" id="210211" style="fill:#f6f67b"/>
<path d="" class="polyStyle" id="450512" style="fill:#ee8b94"/>
<path d="" class="polyStyle" id="450602" style="fill:#fbe6ef"/>
<path d="" class="polyStyle" id="440404" style="fill:#ee8b94"/>
<path d="" class="polyStyle" id="440403" style="fill:#f6f67b"/>
<path d="" class="polyStyle" id="441502" style="fill:#f6f67b"/>
<path d="" class="polyStyle" id="431002" style="fill:#d4ecb2"/>
<path d="" class="polyStyle" id="500107" style="fill:#fbe6ef"/>
<path d="" class="polyStyle" id="430611" style="fill:#d4ecb2"/>
<path d="" class="polyStyle" id="511304" style="fill:#fbe6ef"/>
<path d="" class="polyStyle" id="340711" style="fill:#ee8b94"/>
<path d="" class="polyStyle" id="320118" style="fill:#f6f67b"/>
<path d="" class="polyStyle" id="510704" style="fill:#f6f67b"/>
<path d="" class="polyStyle" id="411502" style="fill:#ee8b94"/>
<polygon points="6089,4067 6089,4079 6071,4094 6049,4113 6053,4122 6080,4139 6094,4151 6107,4150 6125,4156 6144,4176 6153,4213 6170,4226 6168,4233 6169,4241 6166,4247 6163,4248 6153,4247 6150,4248 6123,4262 6118,4263 6105,4262 6097,4257 6093,4256 6087,4258 6077,4268 6070,4281 6074,4288 6087,4294 6090,4296 6092,4299 6094,4303 6094,4306 6092,4313 6097,4334 6101,4342 6105,4345 6113,4355 6110,4364 6098,4379 6098,4382 6101,4384 6104,4382 6107,4382 6111,4382 6114,4384 6119,4390 6132,4394 6134,4399 6129,4407 6128,4412 6125,4418 6124,4435 6122,4441 6115,4452 6120,4456 6128,4455 6133,4456 6137,4461 6141,4478 6138,4494 6140,4503 6140,4506 6141,4517 6140,4524 6131,4536 6117,4545 6110,4561 6090,4578 6084,4589 6079,4595 6078,4599 6080,4605 6085,4607 6094,4605 6098,4606 6104,4614 6106,4617 6108,4624 6105,4647 6104,4651 6099,4655 6098,4662 6100,4665 6105,4670 6107,4673 6107,4677 6113,4684 6118,4687 6135,4700 6147,4712 6150,4714 6156,4715 6153,4719 6149,4720 6134,4728 6123,4727 6116,4727 6112,4727 6107,4723 6096,4711 6091,4698 6086,4691 6079,4687 6068,4687 6063,4689 6057,4696 6054,4697 6043,4698 6034,4696 6029,4692 6021,4693 6015,4695 6011,4703 6006,4709 5999,4714 5978,4719 6018,4769 6028,4778 6026,4784 6019,4787 6017,4792 6000,4787 5990,4782 5981,4774 5975,4772 5966,4784 5960,4791 5951,4797 5957,4803 5960,4805 5962,4808 5962,4816 5962,4823 5959,4823 5950,4818 5947,4820 5946,4823 5952,4828 5945,4832 5938,4834 5932,4834 5929,4835 5929,4838 5931,4844 5931,4848 5928,4852 5920,4851 5916,4856 5917,4860 5923,4864 5926,4870 5928,4877 5935,4894 5935,4900 5935,4903 5931,4908 5918,4916 5899,4919 5882,4925 5879,4927 5876,4928 5871,4928 5861,4925 5849,4923 5839,4919 5826,4917 5815,4917 5809,4915 5808,4906 5808,4903 5803,4894 5793,4891 5791,4885 5786,4887 5784,4890 5784,4893 5779,4894 5776,4893 5774,4889 5770,4889 5767,4893 5764,4893 5760,4890 5750,4876 5743,4868 5735,4861 5715,4853 5707,4846 5703,4847 5699,4848 5691,4854 5683,4855 5680,4853 5677,4848 5674,4835 5672,4832 5671,4829 5669,4819 5667,4816 5663,4815 5657,4809 5656,4806 5658,4798 5666,4778 5670,4773 5673,4771 5676,4770 5687,4761 5702,4748 5704,4744 5713,4728 5714,4724 5714,4718 5717,4712 5716,4704 5714,4693 5719,4689 5722,4682 5721,4678 5724,4676 5732,4673 5736,4668 5731,4664 5720,4656 5716,4655 5711,4655 5698,4657 5695,4655 5691,4650 5682,4648 5676,4650 5673,4651 5673,4648 5673,4639 5684,4633 5682,4625 5674,4623 5667,4620 5663,4615 5657,4611 5649,4608 5646,4605 5647,4589 5645,4585 5641,4573 5643,4567 5642,4550 5645,4532 5641,4524 5638,4521 5634,4520 5631,4526 5622,4533 5621,4530 5621,4526 5623,4519 5619,4516 5614,4515 5610,4516 5600,4520 5592,4528 5582,4531 5585,4520 5580,4516 5577,4514 5580,4506 5577,4504 5573,4507 5569,4500 5559,4502 5551,4507 5548,4503 5551,4498 5559,4493 5562,4486 5556,4485 5547,4486 5547,4483 5551,4479 5548,4476 5541,4477 5523,4479 5516,4478 5516,4474 5519,4470 5529,4468 5532,4464 5528,4461 5523,4459 5523,4455 5547,4455 5549,4449 5551,4444 5562,4442 5568,4441 5572,4440 5570,4434 5560,4430 5553,4423 5552,4419 5557,4413 5561,4406 5560,4399 5564,4386 5563,4382 5559,4381 5541,4386 5538,4388 5528,4403 5525,4406 5518,4407 5504,4406 5484,4398 5482,4395 5482,4385 5486,4380 5490,4379 5523,4379 5527,4378 5543,4370 5560,4368 5563,4365 5563,4362 5556,4350 5552,4347 5543,4341 5527,4340 5520,4334 5517,4328 5517,4324 5518,4316 5514,4306 5511,4302 5508,4300 5501,4298 5499,4295 5504,4294 5511,4296 5522,4304 5526,4312 5532,4314 5538,4315 5543,4314 5549,4316 5560,4315 5565,4317 5577,4324 5579,4328 5580,4331 5581,4335 5583,4339 5587,4341 5596,4349 5597,4358 5603,4373 5602,4381 5606,4387 5613,4387 5616,4392 5612,4403 5612,4409 5617,4417 5626,4426 5624,4429 5616,4425 5610,4423 5614,4433 5622,4437 5629,4435 5632,4438 5628,4445 5623,4446 5615,4446 5611,4452 5618,4456 5623,4461 5628,4463 5633,4464 5638,4459 5634,4455 5635,4451 5639,4448 5650,4451 5653,4451 5657,4452 5662,4452 5666,4452 5669,4452 5672,4454 5681,4458 5700,4442 5703,4441 5707,4440 5714,4441 5756,4455 5776,4463 5780,4465 5785,4469 5796,4476 5799,4478 5804,4478 5818,4471 5821,4471 5844,4475 5847,4477 5849,4482 5848,4486 5835,4491 5831,4490 5815,4485 5811,4487 5814,4493 5830,4498 5845,4500 5857,4506 5876,4499 5880,4497 5880,4494 5873,4471 5871,4468 5862,4461 5843,4455 5834,4450 5831,4447 5821,4431 5818,4428 5810,4422 5773,4398 5761,4386 5760,4381 5759,4370 5772,4327 5776,4310 5775,4294 5773,4289 5770,4285 5767,4282 5758,4275 5754,4274 5738,4272 5734,4271 5730,4263 5724,4250 5723,4244 5722,4240 5721,4234 5721,4231 5720,4223 5717,4218 5714,4214 5711,4208 5698,4200 5686,4184 5687,4178 5699,4166 5705,4164 5711,4165 5714,4166 5718,4171 5724,4175 5729,4177 5734,4175 5741,4172 5749,4167 5755,4167 5758,4168 5762,4176 5767,4180 5771,4180 5778,4176 5783,4171 5787,4169 5794,4169 5800,4171 5807,4174 5825,4190 5834,4190 5841,4187 5849,4180 5866,4151 5876,4141 5878,4138 5900,4115 5911,4101 5938,4078 5950,4056 5953,4053 5965,4043 5974,4045 6003,4043 6038,4025 6073,4041 " class="polyStyle" id="341102" style="fill:#fbe6ef"/>
<polygon points="5952,3078 5983,3096 6016,3095 6050,3093 6052,3105 6048,3137 6033,3162 6027,3190 6007,3224 5982,3251 5955,3267 5920,3288 5917,3319 5925,3349 5929,3375 5948,3400 5937,3436 5923,3462 5902,3487 5889,3516 5876,3550 5878,3571 5883,3580 5891,3579 5905,3572 5918,3579 5927,3587 5941,3620 5947,3643 5956,3670 5960,3686 5953,3703 5941,3714 5918,3722 5880,3704 5875,3694 5880,3681 5881,3671 5872,3664 5860,3664 5853,3669 5847,3670 5839,3679 5840,3688 5838,3705 5844,3733 5831,3765 5836,3781 5820,3794 5801,3792 5791,3801 5791,3831 5798,3844 5817,3856 5850,3876 5889,3876 5916,3888 5932,3916 5962,3947 5963,3982 5950,4013 5974,4045 5965,4043 5953,4053 5950,4056 5938,4078 5911,4101 5900,4115 5878,4138 5876,4141 5866,4151 5849,4180 5841,4187 5834,4190 5825,4190 5807,4174 5800,4171 5794,4169 5787,4169 5783,4171 5778,4176 5771,4180 5767,4180 5762,4176 5758,4168 5755,4167 5749,4167 5741,4172 5734,4175 5729,4177 5724,4175 5718,4171 5714,4166 5711,4165 5705,4164 5699,4166 5687,4178 5686,4184 5698,4200 5711,4208 5714,4214 5717,4218 5720,4223 5721,4231 5721,4234 5722,4240 5723,4244 5724,4250 5730,4263 5734,4271 5738,4272 5754,4274 5758,4275 5767,4282 5770,4285 5773,4289 5775,4294 5776,4310 5772,4327 5759,4370 5760,4381 5761,4386 5773,4398 5810,4422 5818,4428 5821,4431 5831,4447 5834,4450 5843,4455 5862,4461 5871,4468 5873,4471 5880,4494 5880,4497 5876,4499 5857,4506 5845,4500 5830,4498 5814,4493 5811,4487 5815,4485 5831,4490 5835,4491 5848,4486 5849,4482 5847,4477 5844,4475 5821,4471 5818,4471 5804,4478 5799,4478 5796,4476 5785,4469 5780,4465 5776,4463 5756,4455 5714,4441 5707,4440 5703,4441 5700,4442 5681,4458 5672,4454 5669,4452 5666,4452 5662,4452 5657,4452 5653,4451 5650,4451 5639,4448 5635,4451 5634,4455 5638,4459 5633,4464 5628,4463 5623,4461 5618,4456 5611,4452 5615,4446 5623,4446 5628,4445 5632,4438 5629,4435 5622,4437 5614,4433 5610,4423 5616,4425 5624,4429 5626,4426 5617,4417 5612,4409 5612,4403 5616,4392 5613,4387 5606,4387 5602,4381 5603,4373 5597,4358 5596,4349 5587,4341 5583,4339 5581,4335 5580,4331 5579,4328 5577,4324 5565,4317 5560,4315 5549,4316 5543,4314 5538,4315 5532,4314 5526,4312 5522,4304 5511,4296 5504,4294 5499,4295 5501,4298 5508,4300 5511,4302 5514,4306 5518,4316 5517,4324 5517,4328 5520,4334 5527,4340 5543,4341 5552,4347 5556,4350 5563,4362 5563,4365 5560,4368 5543,4370 5527,4378 5523,4379 5490,4379 5486,4380 5482,4385 5482,4395 5484,4398 5504,4406 5518,4407 5525,4406 5528,4403 5538,4388 5541,4386 5559,4381 5563,4382 5564,4386 5560,4399 5561,4406 5557,4413 5552,4419 5553,4423 5560,4430 5570,4434 5572,4440 5568,4441 5562,4442 5551,4444 5549,4449 5547,4455 5523,4455 5523,4459 5528,4461 5532,4464 5529,4468 5519,4470 5516,4474 5516,4478 5523,4479 5541,4477 5548,4476 5551,4479 5547,4483 5547,4486 5556,4485 5562,4486 5559,4493 5551,4498 5548,4503 5551,4507 5559,4502 5569,4500 5573,4507 5577,4504 5580,4506 5577,4514 5580,4516 5585,4520 5582,4531 5592,4528 5600,4520 5610,4516 5614,4515 5619,4516 5623,4519 5621,4526 5621,4530 5622,4533 5631,4526 5634,4520 5638,4521 5641,4524 5645,4532 5642,4550 5643,4567 5641,4573 5645,4585 5647,4589 5646,4605 5649,4608 5657,4611 5663,4615 5667,4620 5674,4623 5682,4625 5684,4633 5673,4639 5673,4648 5673,4651 5676,4650 5682,4648 5691,4650 5695,4655 5698,4657 5711,4655 5716,4655 5720,4656 5731,4664 5736,4668 5732,4673 5724,4676 5721,4678 5722,4682 5719,4689 5714,4693 5716,4704 5717,4712 5714,4718 5714,4724 5713,4728 5704,4744 5702,4748 5687,4761 5676,4770 5673,4771 5670,4773 5666,4778 5658,4798 5656,4806 5657,4809 5663,4815 5667,4816 5669,4819 5671,4829 5672,4832 5674,4835 5677,4848 5680,4853 5683,4855 5691,4854 5699,4848 5703,4847 5707,4846 5715,4853 5735,4861 5743,4868 5750,4876 5760,4890 5764,4893 5767,4893 5770,4889 5774,4889 5776,4893 5779,4894 5784,4893 5784,4890 5786,4887 5791,4885 5793,4891 5803,4894 5808,4903 5808,4906 5809,4915 5815,4917 5826,4917 5839,4919 5849,4923 5861,4925 5871,4928 5876,4928 5879,4927 5882,4925 5899,4919 5918,4916 5931,4908 5935,4903 5935,4900 5935,4894 5928,4877 5926,4870 5923,4864 5917,4860 5916,4856 5920,4851 5928,4852 5931,4848 5931,4844 5929,4838 5929,4835 5932,4834 5938,4834 5945,4832 5952,4828 5946,4823 5947,4820 5950,4818 5959,4823 5962,4823 5962,4816 5962,4808 5960,4805 5957,4803 5951,4797 5960,4791 5966,4784 5975,4772 5981,4774 5990,4782 6000,4787 6017,4792 6019,4787 6026,4784 6028,4778 6018,4769 5978,4719 5999,4714 6006,4709 6011,4703 6015,4695 6021,4693 6029,4692 6034,4696 6043,4698 6054,4697 6057,4696 6063,4689 6068,4687 6079,4687 6086,4691 6091,4698 6096,4711 6107,4723 6112,4727 6116,4727 6123,4727 6134,4728 6149,4720 6153,4719 6156,4715 6150,4714 6147,4712 6135,4700 6118,4687 6113,4684 6107,4677 6107,4673 6105,4670 6100,4665 6098,4662 6099,4655 6104,4651 6105,4647 6108,4624 6106,4617 6104,4614 6098,4606 6094,4605 6085,4607 6080,4605 6078,4599 6079,4595 6084,4589 6090,4578 6110,4561 6117,4545 6131,4536 6140,4524 6141,4517 6140,4506 6140,4503 6138,4494 6141,4478 6137,4461 6133,4456 6128,4455 6120,4456 6115,4452 6122,4441 6124,4435 6125,4418 6128,4412 6129,4407 6134,4399 6132,4394 6119,4390 6114,4384 6111,4382 6107,4382 6104,4382 6101,4384 6098,4382 6098,4379 6110,4364 6113,4355 6105,4345 6101,4342 6097,4334 6092,4313 6094,4306 6094,4303 6092,4299 6090,4296 6087,4294 6074,4288 6070,4281 6077,4268 6087,4258 6093,4256 6097,4257 6105,4262 6118,4263 6123,4262 6150,4248 6153,4247 6163,4248 6166,4247 6169,4241 6168,4233 6170,4226 6180,4234 6211,4239 6243,4226 6271,4254 6303,4270 6335,4284 6356,4309 6381,4318 6404,4347 6402,4376 6362,4382 6329,4387 6295,4402 6307,4435 6334,4466 6350,4492 6337,4521 6368,4525 6368,4551 6340,4587 6335,4621 6338,4654 6340,4687 6319,4725 6294,4755 6268,4751 6240,4740 6207,4728 6176,4752 6175,4768 6184,4784 6198,4779 6209,4771 6217,4774 6223,4784 6223,4801 6228,4812 6254,4819 6268,4837 6283,4841 6299,4836 6312,4841 6316,4856 6306,4868 6300,4869 6278,4870 6271,4876 6275,4891 6266,4918 6275,4923 6295,4927 6308,4935 6324,4967 6336,4972 6345,4996 6350,5009 6357,5017 6369,5021 6391,5027 6407,5042 6422,5057 6431,5051 6449,5035 6461,5040 6468,5041 6479,5042 6486,5039 6495,5023 6511,5029 6508,5041 6499,5058 6506,5066 6515,5067 6530,5057 6543,5055 6556,5061 6556,5076 6570,5086 6592,5083 6615,5089 6629,5089 6662,5091 6675,5097 6692,5098 6726,5104 6736,5106 6735,5109 6725,5129 6737,5159 6719,5181 6695,5177 6679,5179 6667,5191 6677,5241 6713,5341 6736,5394 6729,5386 6717,5383 6707,5374 6694,5372 6690,5375 6687,5384 6685,5391 6689,5404 6689,5412 6681,5414 6673,5419 6673,5424 6674,5430 6679,5439 6681,5448 6687,5454 6694,5460 6700,5466 6700,5472 6695,5474 6690,5474 6684,5474 6676,5472 6666,5470 6654,5472 6650,5472 6633,5481 6614,5489 6611,5492 6601,5493 6590,5490 6578,5490 6565,5497 6561,5501 6563,5512 6562,5522 6559,5531 6551,5536 6544,5540 6538,5544 6532,5548 6528,5553 6524,5559 6516,5570 6509,5574 6503,5573 6496,5571 6490,5571 6487,5572 6480,5577 6472,5587 6470,5591 6459,5593 6452,5592 6446,5588 6442,5591 6434,5606 6428,5606 6418,5607 6407,5613 6396,5622 6392,5631 6384,5633 6379,5633 6371,5627 6369,5632 6367,5638 6366,5644 6356,5647 6347,5650 6340,5650 6330,5649 6299,5649 6286,5628 6275,5613 6224,5545 6204,5520 6172,5476 6164,5465 6156,5460 6132,5441 6128,5433 6123,5427 6125,5423 6122,5415 6115,5405 6106,5396 6099,5389 6097,5378 6108,5369 6120,5362 6129,5355 6133,5348 6131,5337 6122,5321 6114,5287 6107,5279 6100,5274 6089,5269 6079,5263 6059,5245 6040,5231 6030,5228 6014,5221 6007,5217 5998,5206 5994,5199 5991,5190 5994,5182 6008,5174 6025,5173 6039,5168 6044,5147 6041,5134 6034,5125 6025,5122 6013,5131 6003,5144 5981,5140 5941,5118 5850,5115 5827,5110 5816,5102 5811,5062 5806,5058 5787,5058 5715,5075 5675,5091 5668,5091 5661,5082 5655,5073 5632,5069 5596,5078 5557,5087 5531,5088 5519,5089 5496,5103 5482,5105 5469,5103 5464,5092 5457,5086 5419,5089 5400,5085 5385,5067 5355,5044 5325,5019 5298,4986 5289,4956 5279,4948 5252,4951 5224,4978 5219,5009 5198,5041 5178,5075 5146,5092 5108,5097 5081,5087 5051,5060 5018,5032 4987,5022 4958,5033 4946,5044 4931,5052 4907,5044 4874,5010 4859,5006 4837,5017 4828,5017 4821,5013 4808,4990 4790,4986 4780,4978 4776,4965 4771,4951 4761,4938 4751,4938 4734,4946 4695,4964 4669,4965 4632,4961 4593,4963 4564,4973 4537,4971 4528,4967 4511,4953 4486,4933 4463,4918 4455,4921 4452,4930 4455,4943 4457,4948 4453,4955 4443,4957 4432,4952 4430,4943 4430,4935 4423,4933 4415,4936 4412,4932 4402,4930 4375,4926 4342,4909 4313,4910 4281,4900 4255,4888 4226,4880 4196,4875 4167,4877 4138,4884 4108,4892 4072,4890 4043,4889 4007,4894 3978,4898 3947,4896 3920,4914 3917,4941 3888,4963 3894,4993 3881,5025 3862,5051 3882,5078 3918,5093 3893,5116 3851,5112 3817,5125 3776,5130 3749,5112 3714,5094 3683,5075 3655,5089 3626,5086 3590,5105 3558,5089 3530,5093 3500,5068 3490,5043 3488,5017 3459,4997 3432,4982 3403,4976 3383,4967 3393,4957 3411,4932 3432,4904 3466,4902 3499,4908 3530,4903 3562,4886 3599,4898 3627,4900 3646,4896 3652,4891 3653,4881 3646,4869 3631,4853 3606,4830 3596,4821 3603,4809 3616,4801 3626,4797 3630,4787 3623,4775 3615,4741 3629,4709 3650,4670 3680,4650 3720,4645 3731,4632 3754,4615 3743,4588 3770,4568 3796,4555 3813,4526 3829,4499 3825,4470 3843,4443 3851,4415 3873,4387 3874,4361 3890,4333 3908,4302 3935,4285 3961,4258 3994,4251 4027,4245 4059,4243 4087,4247 4103,4220 4113,4192 4135,4165 4165,4151 4190,4124 4212,4093 4237,4072 4258,4045 4288,4034 4321,4011 4346,4003 4372,3986 4393,3958 4401,3926 4409,3899 4414,3870 4392,3838 4411,3808 4414,3776 4415,3750 4433,3725 4471,3727 4517,3736 4551,3742 4598,3740 4628,3738 4655,3737 4708,3728 4741,3728 4768,3708 4777,3682 4814,3694 4839,3692 4873,3690 4904,3691 4923,3695 4930,3698 4934,3699 4934,3705 4932,3709 4929,3715 4931,3721 4936,3727 4942,3726 4944,3720 4950,3716 4954,3719 4958,3725 4965,3728 4976,3727 4993,3726 4998,3730 4998,3737 5001,3742 5005,3745 5025,3738 5031,3738 5035,3751 5050,3760 5061,3762 5066,3751 5069,3722 5077,3710 5087,3709 5097,3715 5126,3729 5141,3739 5158,3756 5180,3772 5189,3770 5210,3762 5218,3764 5213,3778 5217,3789 5239,3798 5249,3811 5286,3837 5302,3836 5313,3830 5331,3824 5352,3825 5383,3831 5409,3822 5417,3811 5415,3779 5416,3763 5424,3754 5439,3749 5458,3756 5467,3756 5501,3757 5510,3763 5527,3785 5534,3770 5535,3762 5541,3754 5541,3748 5531,3740 5525,3736 5521,3717 5525,3710 5530,3699 5534,3680 5535,3661 5539,3650 5529,3649 5523,3644 5521,3638 5523,3628 5529,3620 5539,3617 5563,3619 5601,3617 5630,3597 5627,3588 5606,3576 5602,3570 5613,3566 5623,3564 5645,3550 5648,3541 5642,3530 5620,3521 5616,3507 5618,3495 5628,3488 5641,3486 5644,3479 5638,3468 5632,3460 5635,3451 5651,3450 5663,3443 5667,3433 5667,3423 5668,3390 5676,3368 5678,3346 5679,3319 5688,3302 5689,3292 5691,3274 5699,3264 5726,3257 5735,3247 5763,3215 5800,3175 5823,3144 5837,3107 5849,3079 5872,3048 5900,3042 5917,3068 " class="polyStyle" id="341103" style="fill:#f6f67b"/>
<path d="" class="polyStyle" id="320302" style="fill:#d4ecb2"/>
<path d="" class="polyStyle" id="140311" style="fill:#ee8b94"/>
<path d="" class="polyStyle" id="610802" style="fill:#ee8b94"/>
<path d="" class="polyStyle" id="120116" style="fill:#f6f67b"/>
<path d="" class="polyStyle" id="130303" style="fill:#fbe6ef"/>
<path d="" class="polyStyle" id="140211" style="fill:#f6f67b"/>
<path d="" class="polyStyle" id="150207" style="fill:#fbe6ef"/>
<path d="" class="polyStyle" id="211403" style="fill:#f6f67b"/>
<path d="" class="polyStyle" id="150802" style="fill:#f8c67d"/>
<path d="" class="polyStyle" id="210112" style="fill:#ee8b94"/>
<path d="" class="polyStyle" id="230406" style="fill:#d4ecb2"/>
<path d="" class="polyStyle" id="110113" style="fill:#fbe6ef"/>
<path d="" class="polyStyle" id="341702" style="fill:#fbe6ef"/>
<path d="" class="polyStyle" id="420303" style="fill:#ee8b94"/>
<path d="" class="polyStyle" id="340702" style="fill:#d4ecb2"/>
<path d="" class="polyStyle" id="421002" style="fill:#f6f67b"/>
<path d="" class="polyStyle" id="420117" style="fill:#f6f67b"/>
<path d="" class="polyStyle" id="440904" style="fill:#f8c67d"/>
<path d="" class="polyStyle" id="460205" style="fill:#ee8b94"/>
<path d="" class="polyStyle" id="460202" style="fill:#f6f67b"/>
<path d="" class="polyStyle" id="460203" style="fill:#fbe6ef"/>
<path d="" class="polyStyle" id="420304" style="fill:#f6f67b"/>
<path d="" class="polyStyle" id="445302" style="fill:#ee8b94"/>
<path d="" class="polyStyle" id="410202" style="fill:#d4ecb2"/>
<path d="" class="polyStyle" id="440800" style="fill:#f6f67b"/>
<path d="" class="polyStyle" id="440900" style="fill:#ee8b94"/>
<path d="" class="polyStyle" id="340800" style="fill:#ee8b94"/>
<path d="" class="polyStyle" id="460200" style="fill:#f6f67b"/>
<path d="" class="polyStyle" id="460000" style="fill:#ee8b94"/>
<path d="" class="polyStyle" id="450500" style="fill:#ee8b94"/>
<path d="" class="polyStyle" id="450600" style="fill:#ee8b94"/>
<path d="" class="polyStyle" id="440400" style="fill:#f6f67b"/>
<path d="" class="polyStyle" id="441700" style="fill:#f6f67b"/>
<path d="" class="polyStyle" id="441500" style="fill:#f6f67b"/>
<path d="" class="polyStyle" id="350600" style="fill:#ee8b94"/>
<path d="" class="polyStyle" id="710000" style="fill:#f6f67b"/>
<path d="" class="polyStyle" id="510400" style="fill:#f6f67b"/>
<path d="" class="polyStyle" id="522600" style="fill:#fbe6ef"/>
<path d="" class="polyStyle" id="520500" style="fill:#ee8b94"/>
<path d="" class="polyStyle" id="431200" style="fill:#f6f67b"/>
<path d="" class="polyStyle" id="430600" style="fill:#f6f67b"/>
<path d="" class="polyStyle" id="511400" style="fill:#d4ecb2"/>
<path d="" class="polyStyle" id="421000" style="fill:#ee8b94"/>
<path d="" class="polyStyle" id="341700" style="fill:#f6f67b"/>
<path d="" class="polyStyle" id="420500" style="fill:#f6f67b"/>
<path d="" class="polyStyle" id="511300" style="fill:#f6f67b"/>
<path d="" class="polyStyle" id="420900" style="fill:#f6f67b"/>
<path d="" class="polyStyle" id="511700" style="fill:#ee8b94"/>
<path d="" class="polyStyle" id="420600" style="fill:#d4ecb2"/>
<path d="" class="polyStyle" id="411500" style="fill:#fbe6ef"/>
<path d="" class="polyStyle" id="510800" style="fill:#ee8b94"/>
<path d="" class="polyStyle" id="420300" style="fill:#fbe6ef"/>
<path d="" class="polyStyle" id="611000" style="fill:#ee8b94"/>
<path d="" class="polyStyle" id="620800" style="fill:#fbe6ef"/>
<path d="" class="polyStyle" id="370200" style="fill:#ee8b94"/>
<path d="" class="polyStyle" id="371000" style="fill:#f6f67b"/>
<path d="" class="polyStyle" id="370600" style="fill:#fbe6ef"/>
<path d="" class="polyStyle" id="120000" style="fill:#f6f67b"/>
<path d="" class="polyStyle" id="130200" style="fill:#ee8b94"/>
<path d="" class="polyStyle" id="130300" style="fill:#f6f67b"/>
<path d="" class="polyStyle" id="652900" style="fill:#fbe6ef"/>
<path d="" class="polyStyle" id="150500" style="fill:#d4ecb2"/>
<path d="" class="polyStyle" id="" style="fill:#d4ecb2"/>
<path d="" class="polyStyle" id="350500" style="fill:#fbe6ef"/>
<path d="" class="polyStyle" id="440400" style="fill:#f6f67b"/>
<path d="" class="polyStyle" id="421100" style="fill:#d4ecb2"/>
<path d="" class="polyStyle" id="420100" style="fill:#fbe6ef"/>
<path d="" class="polyStyle" id="532500" style="fill:#fbe6ef"/>
<path d="" class="polyStyle" id="654200" style="fill:#fbe6ef"/>
<path d="" class="polyStyle" id="210700" style="fill:#d4ecb2"/>
<path d="" class="polyStyle" id="522300" style="fill:#fbe6ef"/>
<path d="" class="polyStyle" id="" style="fill:#ee8b94"/>
<path d="" class="polyStyle" id="440400" style="fill:#f6f67b"/>
<path d="" class="polyStyle" id="620000" style="fill:#f6f67b"/>
<path d="" class="polyStyle" id="430000" style="fill:#fbe6ef"/>
<path d="" class="polyStyle" id="420000" style="fill:#ee8b94"/>
<path d="" class="polyStyle" id="410000" style="fill:#f6f67b"/>
<path d="" class="polyStyle" id="350000" style="fill:#fbe6ef"/>
<path d="" class="polyStyle" id="520000" style="fill:#f6f67b"/>
<path d="" class="polyStyle" id="" style="fill:#ee8b94"/>
</svg>
