<?xml version="1.0" encoding="UTF-8"?>
<!DOCTYPE svg PUBLIC "-//W3C//DTD SVG 1.1 Tiny//EN" "http://www.w3.org/Graphics/SVG/1.1/DTD/svg11-tiny.dtd">
<svg version="1.1" xmlns="http://www.w3.org/2000/svg" xmlns:xlink="http://www.w3.org/1999/xlink" width="100%" height="100%" viewBox="0,0,6438,6099">
<title>SVG</title>
<desc>Poligon Test</desc>
<style id="style_css_sheet" type="text/css">
.polyStyle{fill: #cccccc;stroke-width:0;fill-rule:evenodd;}
</style>
<circle cx="3309" cy="4698" r="200" stroke="black" stroke-width="1" fill="red" id="341623" name="利辛县"/>
<circle cx="5068" cy="4066" r="200" stroke="black" stroke-width="1" fill="red" id="341622" name="蒙城县"/>
<circle cx="3368" cy="2854" r="200" stroke="black" stroke-width="1" fill="red" id="341621" name="涡阳县"/>
<circle cx="1181" cy="1011" r="200" stroke="black" stroke-width="1" fill="red" id="341602" name="谯城区"/>
<path d="" class="polyStyle" id="" style="fill:#ee8b94"/>
<path d="" class="polyStyle" id="623022" style="fill:#fbe6ef"/>
<path d="" class="polyStyle" id="211421" style="fill:#f6f67b"/>
<path d="" class="polyStyle" id="532524" style="fill:#ee8b94"/>
<path d="" class="polyStyle" id="440825" style="fill:#f6f67b"/>
<path d="" class="polyStyle" id="441721" style="fill:#f6f67b"/>
<path d="" class="polyStyle" id="450521" style="fill:#f6f67b"/>
<path d="" class="polyStyle" id="450123" style="fill:#fbe6ef"/>
<path d="" class="polyStyle" id="350624" style="fill:#f6f67b"/>
<path d="" class="polyStyle" id="" style="fill:#fbe6ef"/>
<path d="" class="polyStyle" id="451224" style="fill:#fbe6ef"/>
<path d="" class="polyStyle" id="350627" style="fill:#f6f67b"/>
<path d="" class="polyStyle" id="" style="fill:#f6f67b"/>
<path d="" class="polyStyle" id="350525" style="fill:#f6f67b"/>
<path d="" class="polyStyle" id="530124" style="fill:#ee8b94"/>
<path d="" class="polyStyle" id="522627" style="fill:#ee8b94"/>
<path d="" class="polyStyle" id="510421" style="fill:#fbe6ef"/>
<path d="" class="polyStyle" id="522623" style="fill:#d4ecb2"/>
<path d="" class="polyStyle" id="430321" style="fill:#d4ecb2"/>
<path d="" class="polyStyle" id="511129" style="fill:#d4ecb2"/>
<path d="" class="polyStyle" id="511423" style="fill:#ee8b94"/>
<path d="" class="polyStyle" id="421023" style="fill:#f6f67b"/>
<path d="" class="polyStyle" id="511724" style="fill:#f6f67b"/>
<path d="" class="polyStyle" id="420526" style="fill:#fbe6ef"/>
<path d="" class="polyStyle" id="511923" style="fill:#fbe6ef"/>
<path d="" class="polyStyle" id="420325" style="fill:#fbe6ef"/>
<path d="" class="polyStyle" id="511921" style="fill:#f6f67b"/>
<polygon points="3564,3529 3593,3530 3620,3531 3622,3548 3621,3576 3618,3606 3615,3631 3643,3632 3673,3653 3700,3675 3702,3701 3677,3702 3677,3734 3677,3770 3709,3776 3736,3784 3761,3796 3780,3822 3799,3847 3825,3867 3849,3898 3849,3923 3872,3950 3904,3952 3937,3960 3963,3971 3991,3974 4005,4001 4037,4008 4064,4012 4092,4020 4121,4042 4148,4046 4175,4038 4213,4040 4243,4044 4275,4052 4290,4079 4285,4105 4280,4136 4289,4168 4309,4196 4361,4175 4403,4158 4432,4158 4424,4190 4423,4216 4406,4246 4400,4275 4391,4302 4397,4328 4428,4327 4453,4314 4485,4306 4511,4315 4517,4344 4515,4369 4514,4411 4509,4442 4476,4449 4501,4476 4525,4501 4500,4505 4486,4531 4491,4561 4497,4587 4471,4604 4440,4606 4439,4633 4458,4658 4446,4685 4417,4700 4413,4727 4406,4753 4380,4757 4345,4743 4311,4738 4285,4733 4258,4726 4228,4710 4181,4684 4150,4696 4154,4723 4159,4751 4162,4777 4161,4809 4156,4835 4138,4865 4097,4867 4072,4886 4043,4889 4012,4895 4002,4920 3969,4930 3966,4957 3995,4971 4020,4988 4029,5014 4043,5043 4070,5068 4079,5096 4089,5124 4111,5152 4121,5180 4137,5209 4151,5235 4169,5263 4191,5289 4187,5315 4186,5342 4187,5372 4183,5379 4160,5404 4152,5434 4154,5462 4160,5488 4158,5518 4157,5552 4132,5578 4124,5608 4116,5635 4101,5662 4105,5693 4187,5773 4213,5802 4230,5828 4243,5859 4238,5888 4245,5916 4234,5936 4215,5916 4185,5911 4158,5909 4126,5899 4108,5920 4101,5926 4083,5928 4081,5937 4082,5955 4080,5972 4072,5980 4045,5995 4030,6009 4007,6024 3948,6032 3936,6036 3884,6050 3848,6062 3819,6065 3783,6078 3756,6092 3730,6099 3699,6093 3662,6096 3615,6087 3592,6074 3591,6056 3582,6050 3545,6041 3531,6056 3500,6048 3493,6036 3502,6012 3527,5990 3539,5978 3544,5966 3540,5963 3524,5955 3507,5949 3498,5951 3483,5951 3477,5958 3467,5962 3453,5954 3444,5945 3429,5944 3412,5943 3370,5932 3328,5930 3259,5930 3261,5921 3268,5899 3241,5832 3209,5812 3182,5801 3149,5775 3133,5748 3118,5717 3091,5690 3108,5664 3101,5607 3115,5579 3107,5550 3051,5519 3021,5523 3001,5494 2968,5491 2939,5495 2909,5513 2894,5484 2798,5471 2772,5470 2746,5476 2712,5460 2679,5457 2645,5456 2628,5486 2602,5475 2541,5437 2559,5376 2577,5342 2574,5317 2547,5310 2541,5279 2550,5245 2553,5219 2527,5166 2498,5157 2471,5158 2436,5167 2409,5168 2382,5175 2353,5187 2334,5161 2362,5140 2366,5114 2339,5097 2328,5071 2316,5098 2291,5095 2266,5086 2231,5084 2206,5055 2195,5022 2161,5028 2146,5051 2119,5060 2100,5028 2098,4988 2063,4966 2035,4963 1965,4964 1965,4944 1970,4916 1950,4902 1933,4910 1920,4924 1904,4930 1894,4934 1886,4960 1854,4960 1827,4954 1798,4933 1771,4927 1744,4925 1708,4931 1679,4927 1620,4924 1609,4923 1609,4893 1610,4885 1636,4880 1637,4857 1644,4856 1645,4843 1652,4826 1659,4823 1663,4802 1660,4786 1655,4782 1615,4783 1604,4767 1585,4768 1557,4770 1502,4769 1488,4766 1486,4738 1473,4729 1474,4719 1488,4717 1514,4715 1531,4717 1534,4706 1535,4685 1529,4656 1536,4624 1440,4611 1410,4630 1402,4635 1403,4600 1406,4574 1441,4522 1467,4507 1504,4499 1526,4434 1538,4405 1512,4387 1457,4344 1453,4306 1457,4277 1466,4252 1461,4223 1448,4196 1452,4168 1453,4135 1458,4110 1468,4081 1526,4095 1553,4107 1606,4142 1661,4155 1688,4169 1713,4188 1739,4215 1797,4264 1856,4318 1868,4289 1895,4265 1895,4239 1878,4212 1866,4185 1832,4172 1822,4144 1821,4119 1815,4092 1837,4065 1826,4036 1843,4008 1857,3980 1856,3953 1839,3926 1883,3911 1912,3899 1909,3881 1900,3870 1904,3859 1906,3842 1901,3834 1894,3832 1881,3832 1875,3825 1879,3816 1881,3805 1879,3799 1879,3788 1883,3780 1879,3770 1875,3763 1868,3758 1862,3755 1855,3755 1848,3752 1845,3746 1847,3735 1843,3726 1832,3716 1832,3693 1828,3684 1822,3680 1842,3679 1868,3675 1894,3665 1923,3638 1949,3622 1976,3619 2001,3633 2032,3649 2071,3671 2102,3674 2113,3648 2103,3609 2177,3606 2194,3580 2223,3580 2252,3564 2275,3535 2306,3551 2332,3565 2364,3582 2358,3617 2358,3650 2390,3656 2415,3659 2456,3665 2481,3671 2507,3672 2518,3647 2528,3618 2555,3600 2595,3612 2622,3619 2652,3605 2667,3580 2665,3545 2696,3546 2745,3545 2775,3527 2803,3527 2813,3558 2841,3571 2866,3564 2896,3558 2926,3556 2953,3551 2979,3527 3015,3525 3040,3542 3064,3570 3090,3586 3117,3584 3146,3581 3158,3608 3182,3634 3208,3629 3242,3614 3267,3589 3297,3594 3323,3593 3366,3591 3393,3586 3409,3561 3428,3533 3455,3535 3483,3523 3509,3522 3539,3526 " class="polyStyle" id="341623" style="fill:#f6f67b"/>
<polygon points="5498,2987 5514,2997 5527,3005 5541,3007 5568,3010 5595,3012 5631,3017 5658,3019 5685,3022 5710,3025 5745,3026 5761,3051 5788,3042 5816,3046 5846,3051 5875,3059 5872,3089 5887,3118 5914,3133 5954,3128 5989,3133 6021,3138 6022,3168 6049,3180 6051,3207 6080,3209 6108,3217 6135,3238 6168,3236 6196,3260 6223,3262 6253,3273 6281,3279 6302,3280 6311,3281 6306,3289 6285,3303 6278,3329 6275,3356 6258,3382 6266,3411 6268,3441 6280,3467 6270,3499 6259,3539 6240,3564 6232,3591 6247,3617 6235,3645 6210,3679 6215,3706 6228,3732 6219,3762 6220,3792 6230,3821 6256,3838 6288,3871 6288,3875 6288,3913 6285,3946 6280,3986 6293,4022 6327,4040 6326,4069 6337,4095 6351,4123 6376,4141 6372,4168 6374,4194 6403,4213 6407,4240 6438,4266 6432,4292 6420,4327 6419,4358 6420,4386 6394,4406 6380,4442 6379,4467 6373,4495 6373,4524 6370,4559 6364,4588 6342,4615 6316,4608 6297,4586 6265,4555 6249,4540 6202,4582 6180,4611 6149,4638 6119,4648 6108,4674 6097,4701 6076,4733 6080,4759 6109,4799 6115,4829 6126,4873 6116,4900 6122,4927 6109,4959 6082,4985 6054,4988 6041,5017 6037,5044 6037,5071 6043,5100 6053,5127 6079,5138 6105,5156 6134,5166 6161,5170 6188,5186 6219,5200 6254,5218 6279,5224 6305,5232 6331,5249 6352,5274 6354,5294 6360,5326 6355,5352 6348,5394 6349,5408 6338,5421 6303,5413 6295,5400 6279,5392 6269,5399 6274,5410 6273,5420 6264,5426 6244,5419 6226,5417 6196,5409 6163,5413 6158,5402 6166,5380 6158,5377 6147,5377 6132,5395 6118,5390 6122,5375 6115,5366 6103,5365 6084,5378 6050,5382 6054,5404 6052,5422 6050,5451 6048,5470 6036,5488 6020,5508 6005,5537 5989,5536 5972,5569 5976,5613 5986,5631 6014,5638 6026,5651 6008,5687 5964,5706 5953,5743 5942,5741 5900,5732 5868,5724 5826,5739 5820,5741 5807,5716 5753,5708 5721,5705 5678,5698 5642,5696 5609,5696 5579,5693 5510,5693 5462,5691 5436,5691 5409,5686 5367,5676 5325,5667 5286,5658 5246,5646 5198,5637 5154,5626 5107,5615 5056,5601 5021,5591 4974,5580 4938,5572 4900,5562 4860,5553 4834,5545 4781,5536 4749,5529 4707,5518 4663,5510 4629,5502 4581,5491 4547,5484 4513,5475 4472,5461 4432,5448 4387,5434 4350,5422 4311,5410 4292,5404 4270,5399 4241,5389 4214,5381 4187,5372 4186,5342 4187,5315 4191,5289 4169,5263 4151,5235 4137,5209 4121,5180 4111,5152 4089,5124 4079,5096 4070,5068 4043,5043 4029,5014 4020,4988 3995,4971 3966,4957 3969,4930 4002,4920 4012,4895 4043,4889 4072,4886 4097,4867 4138,4865 4156,4835 4161,4809 4162,4777 4159,4751 4154,4723 4150,4696 4181,4684 4228,4710 4258,4726 4285,4733 4311,4738 4345,4743 4380,4757 4406,4753 4413,4727 4417,4700 4446,4685 4458,4658 4439,4633 4440,4606 4471,4604 4497,4587 4491,4561 4486,4531 4500,4505 4525,4501 4501,4476 4476,4449 4509,4442 4514,4411 4515,4369 4517,4344 4511,4315 4485,4306 4453,4314 4428,4327 4397,4328 4391,4302 4400,4275 4406,4246 4423,4216 4424,4190 4432,4158 4403,4158 4361,4175 4309,4196 4289,4168 4280,4136 4285,4105 4290,4079 4275,4052 4243,4044 4213,4040 4175,4038 4148,4046 4121,4042 4092,4020 4064,4012 4037,4008 4005,4001 3991,3974 3963,3971 3937,3960 3904,3952 3872,3950 3849,3923 3849,3898 3825,3867 3799,3847 3780,3822 3761,3796 3736,3784 3709,3776 3677,3770 3677,3734 3677,3702 3702,3701 3700,3675 3673,3653 3643,3632 3615,3631 3618,3606 3621,3576 3622,3548 3620,3531 3650,3526 3677,3521 3710,3514 3740,3501 3768,3480 3797,3467 3833,3466 3863,3476 3885,3507 3913,3504 3941,3480 3967,3474 3995,3476 4025,3473 4053,3471 4082,3478 4118,3504 4151,3483 4174,3452 4199,3414 4235,3408 4258,3411 4256,3374 4263,3344 4270,3314 4270,3287 4289,3249 4317,3248 4351,3249 4380,3240 4405,3224 4420,3198 4407,3169 4382,3149 4384,3121 4411,3096 4437,3108 4458,3100 4466,3115 4491,3127 4518,3131 4551,3132 4579,3131 4605,3137 4625,3164 4653,3171 4685,3174 4716,3179 4746,3171 4775,3176 4789,3142 4806,3133 4823,3124 4850,3105 4881,3092 4911,3082 4936,3065 4961,3045 4968,3049 4980,3050 4996,3054 5009,3058 5016,3066 5019,3072 5052,3070 5088,3069 5126,3066 5184,3062 5211,3054 5202,3011 5242,3006 5270,3002 5297,2999 5324,2996 5351,2992 5379,2990 5405,2987 5432,2984 5459,2981 5486,2984 " class="polyStyle" id="341622" style="fill:#ee8b94"/>
<path d="" class="polyStyle" id="542525" style="fill:#f6f67b"/>
<polygon points="4270,1508 4298,1523 4314,1552 4309,1587 4335,1588 4363,1591 4389,1593 4419,1592 4453,1588 4453,1615 4452,1648 4445,1675 4462,1702 4494,1708 4521,1715 4552,1724 4580,1742 4591,1767 4610,1810 4645,1837 4670,1871 4668,1909 4699,1914 4701,1945 4722,1972 4745,2003 4742,2030 4739,2058 4705,2067 4692,2093 4681,2131 4708,2157 4734,2182 4765,2206 4791,2232 4794,2262 4799,2291 4827,2308 4878,2314 4925,2322 4958,2350 4982,2376 4995,2408 5032,2414 5034,2454 5009,2454 4979,2459 4983,2500 5012,2524 5012,2549 4982,2557 4952,2565 4920,2589 4913,2618 4905,2644 4905,2650 4903,2655 4905,2661 4912,2666 4916,2672 4918,2677 4918,2690 4917,2694 4917,2717 4918,2725 4918,2729 4919,2735 4919,2741 4921,2746 4923,2757 4925,2764 4926,2771 4930,2786 4938,2798 4945,2804 4953,2815 4954,2821 4957,2826 4958,2832 4960,2836 4960,2883 4961,2887 4961,2893 4962,2903 4961,2909 4961,2914 4958,2925 4958,2932 4963,2949 4963,2953 4965,2958 4962,2970 4959,2977 4958,2981 4952,2994 4952,2999 4951,3011 4952,3017 4954,3023 4954,3029 4956,3041 4961,3045 4936,3065 4911,3082 4881,3092 4850,3105 4823,3124 4806,3133 4789,3142 4775,3176 4746,3171 4716,3179 4685,3174 4653,3171 4625,3164 4605,3137 4579,3131 4551,3132 4518,3131 4491,3127 4466,3115 4458,3100 4437,3108 4411,3096 4384,3121 4382,3149 4407,3169 4420,3198 4405,3224 4380,3240 4351,3249 4317,3248 4289,3249 4270,3287 4270,3314 4263,3344 4256,3374 4258,3411 4235,3408 4199,3414 4174,3452 4151,3483 4118,3504 4082,3478 4053,3471 4025,3473 3995,3476 3967,3474 3941,3480 3913,3504 3885,3507 3863,3476 3833,3466 3797,3467 3768,3480 3740,3501 3710,3514 3677,3521 3650,3526 3620,3531 3593,3530 3564,3529 3539,3526 3509,3522 3483,3523 3455,3535 3428,3533 3409,3561 3393,3586 3366,3591 3323,3593 3297,3594 3267,3589 3242,3614 3208,3629 3182,3634 3158,3608 3146,3581 3117,3584 3090,3586 3064,3570 3040,3542 3015,3525 2979,3527 2953,3551 2926,3556 2896,3558 2866,3564 2841,3571 2813,3558 2803,3527 2775,3527 2745,3545 2696,3546 2665,3545 2667,3580 2652,3605 2622,3619 2595,3612 2555,3600 2528,3618 2518,3647 2507,3672 2481,3671 2456,3665 2415,3659 2390,3656 2358,3650 2358,3617 2364,3582 2332,3565 2306,3551 2275,3535 2252,3564 2223,3580 2194,3580 2177,3606 2103,3609 2113,3648 2102,3674 2071,3671 2032,3649 2001,3633 1976,3619 1949,3622 1923,3638 1894,3665 1868,3675 1842,3679 1822,3680 1809,3661 1795,3651 1790,3645 1774,3622 1765,3601 1758,3562 1765,3528 1764,3505 1759,3490 1753,3484 1753,3473 1765,3456 1769,3445 1767,3428 1768,3411 1763,3394 1758,3388 1751,3384 1744,3383 1737,3378 1737,3360 1734,3353 1736,3322 1731,3291 1734,3255 1737,3229 1745,3196 1751,3168 1754,3139 1759,3111 1787,3103 1819,3098 1846,3080 1856,3050 1859,3024 1865,2993 1874,2962 1882,2928 1888,2893 1894,2865 1899,2834 1864,2815 1830,2804 1831,2776 1819,2748 1809,2722 1808,2695 1780,2685 1762,2646 1750,2628 1730,2639 1697,2631 1693,2599 1740,2598 1747,2571 1759,2546 1766,2516 1764,2491 1770,2465 1775,2440 1781,2410 1787,2378 1819,2371 1829,2338 1867,2371 1898,2388 1931,2411 1965,2428 1989,2438 2018,2451 2055,2454 2082,2473 2107,2490 2121,2495 2134,2496 2160,2488 2185,2487 2212,2497 2246,2513 2265,2517 2281,2517 2303,2515 2334,2517 2347,2517 2366,2506 2396,2501 2382,2460 2370,2432 2356,2403 2350,2376 2351,2351 2355,2322 2376,2293 2388,2267 2394,2239 2397,2211 2413,2184 2387,2161 2356,2172 2330,2155 2312,2128 2282,2121 2260,2095 2237,2066 2251,2041 2265,2014 2281,1989 2315,1955 2332,1925 2346,1900 2357,1873 2366,1842 2392,1822 2408,1796 2447,1788 2474,1787 2501,1792 2538,1780 2566,1784 2597,1761 2634,1757 2666,1746 2669,1717 2654,1689 2646,1662 2634,1635 2632,1607 2619,1582 2608,1553 2588,1527 2600,1501 2628,1486 2632,1492 2648,1498 2670,1498 2698,1496 2742,1486 2748,1486 2752,1492 2756,1544 2766,1570 2780,1592 2794,1598 2840,1612 2920,1634 2936,1642 2962,1650 2968,1676 2980,1708 2972,1748 2986,1776 3020,1776 3044,1802 3046,1820 3058,1866 3064,1866 3092,1844 3176,1858 3198,1856 3218,1852 3226,1846 3230,1840 3232,1826 3236,1806 3254,1784 3260,1788 3266,1790 3284,1786 3330,1784 3356,1788 3368,1788 3388,1786 3402,1774 3416,1752 3418,1744 3414,1738 3410,1734 3404,1730 3394,1724 3386,1718 3384,1710 3386,1704 3400,1692 3422,1680 3444,1672 3468,1666 3474,1668 3478,1672 3478,1710 3478,1720 3484,1730 3492,1738 3508,1748 3594,1780 3604,1782 3614,1780 3618,1778 3618,1774 3616,1764 3602,1746 3596,1732 3596,1726 3602,1712 3632,1714 3638,1654 3660,1660 3666,1650 3672,1626 3696,1626 3712,1624 3726,1624 3748,1626 3778,1638 3795,1634 3806,1618 3818,1602 3824,1596 3832,1585 3835,1583 3840,1576 3844,1572 3847,1566 3850,1552 3855,1542 3857,1537 3865,1544 3876,1551 3886,1561 3893,1566 3906,1565 3917,1566 3922,1554 3928,1530 3936,1516 3946,1506 3962,1500 3988,1498 3998,1500 4008,1504 4018,1514 4024,1516 4132,1516 4148,1514 4166,1510 4220,1490 4230,1486 4235,1479 4245,1487 " class="polyStyle" id="341621" style="fill:#fbe6ef"/>
<path d="" class="polyStyle" id="611026" style="fill:#ee8b94"/>
<path d="" class="polyStyle" id="411023" style="fill:#fbe6ef"/>
<path d="" class="polyStyle" id="632323" style="fill:#f6f67b"/>
<path d="" class="polyStyle" id="140525" style="fill:#d4ecb2"/>
<path d="" class="polyStyle" id="410922" style="fill:#ee8b94"/>
<path d="" class="polyStyle" id="621027" style="fill:#ee8b94"/>
<path d="" class="polyStyle" id="130427" style="fill:#f6f67b"/>
<path d="" class="polyStyle" id="130121" style="fill:#ee8b94"/>
<path d="" class="polyStyle" id="610823" style="fill:#fbe6ef"/>
<path d="" class="polyStyle" id="130225" style="fill:#fbe6ef"/>
<path d="" class="polyStyle" id="130322" style="fill:#d4ecb2"/>
<path d="" class="polyStyle" id="653130" style="fill:#f6f67b"/>
<path d="" class="polyStyle" id="130822" style="fill:#fbe6ef"/>
<path d="" class="polyStyle" id="211221" style="fill:#f6f67b"/>
<path d="" class="polyStyle" id="210921" style="fill:#f6f67b"/>
<path d="" class="polyStyle" id="150223" style="fill:#f8c67d"/>
<path d="" class="polyStyle" id="220422" style="fill:#d4ecb2"/>
<path d="" class="polyStyle" id="340721" style="fill:#f6f67b"/>
<path d="" class="polyStyle" id="510824" style="fill:#d4ecb2"/>
<path d="" class="polyStyle" id="610324" style="fill:#f6f67b"/>
<path d="" class="polyStyle" id="530722" style="fill:#ee8b94"/>
<path d="" class="polyStyle" id="340823" style="fill:#d4ecb2"/>
<path d="" class="polyStyle" id="620825" style="fill:#d4ecb2"/>
<path d="" class="polyStyle" id="421125" style="fill:#ee8b94"/>
<path d="" class="polyStyle" id="210281" style="fill:#ee8b94"/>
<path d="" class="polyStyle" id="440883" style="fill:#f6f67b"/>
<path d="" class="polyStyle" id="469006" style="fill:#d4ecb2"/>
<path d="" class="polyStyle" id="469002" style="fill:#ee8b94"/>
<path d="" class="polyStyle" id="469005" style="fill:#fbe6ef"/>
<path d="" class="polyStyle" id="440882" style="fill:#ee8b94"/>
<path d="" class="polyStyle" id="450681" style="fill:#ee8b94"/>
<path d="" class="polyStyle" id="441581" style="fill:#d4ecb2"/>
<path d="" class="polyStyle" id="421087" style="fill:#ee8b94"/>
<path d="" class="polyStyle" id="420984" style="fill:#fbe6ef"/>
<path d="" class="polyStyle" id="420582" style="fill:#ee8b94"/>
<path d="" class="polyStyle" id="370282" style="fill:#f6f67b"/>
<path d="" class="polyStyle" id="371083" style="fill:#f6f67b"/>
<path d="" class="polyStyle" id="371082" style="fill:#fbe6ef"/>
<path d="" class="polyStyle" id="652801" style="fill:#f8c67d"/>
<path d="" class="polyStyle" id="654301" style="fill:#ee8b94"/>
<path d="" class="polyStyle" id="370687" style="fill:#ee8b94"/>
<path d="" class="polyStyle" id="371482" style="fill:#d4ecb2"/>
<path d="" class="polyStyle" id="421081" style="fill:#fbe6ef"/>
<path d="" class="polyStyle" id="429006" style="fill:#f6f67b"/>
<path d="" class="polyStyle" id="440982" style="fill:#d4ecb2"/>
<path d="" class="polyStyle" id="421181" style="fill:#d4ecb2"/>
<path d="" class="polyStyle" id="321181" style="fill:#d4ecb2"/>
<path d="" class="polyStyle" id="659007" style="fill:#ee8b94"/>
<path d="" class="polyStyle" id="652701" style="fill:#fbe6ef"/>
<path d="" class="polyStyle" id="210781" style="fill:#fbe6ef"/>
<path d="" class="polyStyle" id="460204" style="fill:#f6f67b"/>
<path d="" class="polyStyle" id="210211" style="fill:#f6f67b"/>
<path d="" class="polyStyle" id="450512" style="fill:#ee8b94"/>
<path d="" class="polyStyle" id="450602" style="fill:#fbe6ef"/>
<path d="" class="polyStyle" id="440404" style="fill:#ee8b94"/>
<path d="" class="polyStyle" id="440403" style="fill:#f6f67b"/>
<path d="" class="polyStyle" id="441502" style="fill:#f6f67b"/>
<path d="" class="polyStyle" id="431002" style="fill:#d4ecb2"/>
<path d="" class="polyStyle" id="500107" style="fill:#fbe6ef"/>
<path d="" class="polyStyle" id="430611" style="fill:#d4ecb2"/>
<path d="" class="polyStyle" id="511304" style="fill:#fbe6ef"/>
<path d="" class="polyStyle" id="340711" style="fill:#ee8b94"/>
<path d="" class="polyStyle" id="320118" style="fill:#f6f67b"/>
<path d="" class="polyStyle" id="510704" style="fill:#f6f67b"/>
<path d="" class="polyStyle" id="411502" style="fill:#ee8b94"/>
<polygon points="980,10 982,32 988,42 1004,40 1016,32 1032,36 1046,46 1070,58 1066,74 1066,86 1066,96 1084,98 1124,96 1156,96 1178,88 1182,72 1180,56 1184,50 1190,44 1204,46 1207,47 1244,64 1266,70 1292,72 1316,74 1342,74 1352,76 1360,80 1368,86 1370,100 1366,112 1354,122 1350,134 1352,142 1358,148 1368,162 1380,176 1398,186 1412,198 1432,212 1458,234 1474,236 1496,240 1512,240 1524,246 1536,260 1544,278 1546,294 1544,324 1536,352 1536,364 1538,378 1542,382 1548,386 1556,386 1564,386 1662,382 1660,366 1656,336 1657,317 1662,306 1675,281 1669,262 1686,258 1694,258 1748,256 1756,256 1766,260 1776,268 1782,280 1784,288 1782,292 1748,290 1738,312 1744,330 1790,338 1794,348 1790,368 1792,374 1798,384 1812,392 1826,396 1834,396 1840,394 1896,358 1906,352 1916,350 1928,350 1940,352 1970,354 1960,370 1958,384 1994,386 2014,394 2054,364 2066,366 2175,424 2194,434 2204,444 2208,462 2214,482 2226,508 2238,522 2264,538 2276,552 2284,574 2292,606 2284,636 2242,710 2236,724 2230,732 2222,738 2212,742 2166,750 2158,754 2154,760 2152,772 2156,798 2158,808 2162,822 2168,824 2216,836 2206,860 2194,886 2191,894 2208,894 2214,895 2226,894 2249,891 2240,944 2268,948 2281,892 2289,893 2296,893 2303,895 2308,896 2316,897 2323,899 2331,905 2333,909 2337,917 2339,926 2340,934 2340,956 2342,973 2344,976 2384,970 2460,986 2480,992 2506,1016 2514,1052 2522,1068 2524,1098 2522,1114 2522,1128 2530,1138 2536,1138 2562,1134 2586,1138 2598,1142 2604,1148 2606,1156 2602,1176 2604,1188 2606,1258 2606,1280 2608,1294 2614,1320 2578,1314 2584,1290 2584,1274 2568,1274 2564,1256 2558,1252 2548,1248 2528,1244 2506,1244 2500,1246 2494,1252 2490,1266 2490,1296 2502,1302 2520,1304 2536,1294 2556,1298 2552,1314 2546,1324 2572,1328 2568,1336 2566,1344 2546,1346 2542,1354 2544,1364 2552,1372 2584,1382 2612,1394 2632,1406 2644,1418 2650,1430 2648,1450 2644,1454 2626,1460 2624,1466 2626,1484 2628,1486 2600,1501 2588,1527 2608,1553 2619,1582 2632,1607 2634,1635 2646,1662 2654,1689 2669,1717 2666,1746 2634,1757 2597,1761 2566,1784 2538,1780 2501,1792 2474,1787 2447,1788 2408,1796 2392,1822 2366,1842 2357,1873 2346,1900 2332,1925 2315,1955 2281,1989 2265,2014 2251,2041 2237,2066 2260,2095 2282,2121 2312,2128 2330,2155 2356,2172 2387,2161 2413,2184 2397,2211 2394,2239 2388,2267 2376,2293 2355,2322 2351,2351 2350,2376 2356,2403 2370,2432 2382,2460 2396,2501 2366,2506 2347,2517 2334,2517 2303,2515 2281,2517 2265,2517 2246,2513 2212,2497 2185,2487 2160,2488 2134,2496 2121,2495 2107,2490 2082,2473 2055,2454 2018,2451 1989,2438 1965,2428 1931,2411 1898,2388 1867,2371 1829,2338 1819,2371 1787,2378 1781,2410 1775,2440 1770,2465 1764,2491 1766,2516 1759,2546 1747,2571 1740,2598 1693,2599 1697,2631 1730,2639 1750,2628 1762,2646 1780,2685 1808,2695 1809,2722 1819,2748 1831,2776 1830,2804 1864,2815 1899,2834 1894,2865 1888,2893 1882,2928 1874,2962 1865,2993 1859,3024 1856,3050 1846,3080 1819,3098 1787,3103 1759,3111 1754,3139 1751,3168 1745,3196 1737,3229 1734,3255 1731,3291 1736,3322 1734,3353 1732,3350 1726,3344 1712,3335 1702,3331 1691,3329 1682,3320 1670,3303 1660,3292 1626,3265 1590,3226 1571,3203 1548,3181 1526,3148 1513,3140 1486,3135 1455,3132 1436,3136 1422,3133 1382,3100 1356,3085 1350,3079 1336,3070 1309,3060 1262,3052 1250,3044 1239,3028 1210,2995 1189,2981 1175,2976 1148,2972 1142,2969 1124,2952 1121,2946 1108,2936 1067,2923 1033,2916 1027,2911 1021,2899 994,2887 981,2879 927,2860 902,2854 875,2845 862,2844 848,2846 803,2858 796,2858 783,2853 769,2851 722,2863 709,2865 682,2866 668,2862 641,2834 613,2795 606,2783 600,2778 572,2733 563,2722 558,2710 533,2672 531,2661 522,2633 517,2602 510,2592 504,2577 492,2532 489,2526 485,2509 482,2504 481,2498 477,2487 477,2482 473,2473 471,2470 469,2464 468,2459 467,2453 466,2447 463,2442 461,2435 460,2430 457,2425 456,2419 453,2414 452,2408 449,2402 448,2397 445,2391 443,2385 442,2380 439,2374 438,2371 430,2352 428,2345 426,2339 424,2334 421,2328 419,2323 417,2317 415,2311 413,2306 410,2300 409,2294 406,2289 405,2283 402,2278 401,2272 398,2266 393,2261 387,2255 380,2250 374,2244 368,2238 361,2233 356,2227 352,2222 346,2216 338,2200 333,2195 329,2189 326,2183 322,2178 315,2169 313,2163 308,2152 305,2146 301,2141 298,2135 296,2130 292,2124 286,2113 283,2107 290,2097 286,2092 282,2090 281,2071 261,2029 257,2007 257,1989 263,1971 267,1969 277,1967 289,1963 295,1961 297,1955 299,1951 299,1940 288,1923 275,1913 253,1905 249,1895 251,1885 263,1841 267,1833 271,1827 287,1817 291,1809 291,1789 286,1765 283,1749 227,1695 177,1647 167,1635 157,1621 143,1597 127,1581 103,1567 97,1561 91,1553 87,1543 89,1531 91,1521 109,1501 119,1493 131,1491 141,1489 149,1489 149,1465 155,1455 170,1444 201,1463 228,1474 251,1481 281,1493 309,1503 322,1510 333,1513 351,1515 379,1431 353,1427 357,1395 377,1395 381,1367 383,1355 383,1347 385,1331 379,1327 353,1305 341,1295 337,1291 355,1289 371,1287 393,1283 407,1281 413,1205 451,1201 447,1121 417,1111 417,1083 445,1071 447,1065 441,1053 427,1035 402,1001 394,1006 387,1009 382,1014 376,1019 371,1025 367,1031 362,1036 355,1039 348,1040 341,1041 335,1041 328,1042 321,1045 314,1050 308,1053 301,1058 294,1060 286,1060 281,1060 274,1060 267,1059 260,1058 254,1056 247,1055 240,1054 233,1054 226,1052 220,1048 213,1043 206,1036 202,1031 197,1027 190,1023 182,1019 178,1017 173,1016 168,1015 163,1014 151,1015 142,1015 134,1012 122,1018 116,1020 109,1027 95,1038 88,1040 82,1041 75,1040 68,1035 64,1030 61,1024 60,1018 50,1014 38,1015 27,1017 21,1018 14,1021 7,1022 3,1023 0,1018 2,996 4,964 6,940 58,950 72,922 36,906 38,878 44,874 48,874 86,878 102,876 112,870 124,849 115,849 100,844 93,840 75,826 64,821 72,800 92,746 118,744 126,738 130,732 130,722 122,696 122,664 128,654 146,650 152,646 156,642 160,636 162,624 160,598 160,556 162,544 162,536 164,528 232,506 236,462 186,452 190,442 192,432 206,416 214,396 214,376 218,352 220,342 228,336 234,336 264,334 276,338 282,346 312,364 324,362 330,356 330,353 324,348 311,331 289,326 282,322 264,310 274,292 278,282 286,254 292,242 300,234 306,230 314,228 342,228 352,228 365,231 370,244 394,256 401,263 406,228 432,224 452,242 530,242 532,238 534,232 532,216 526,196 518,180 516,168 522,157 532,157 537,146 554,150 562,148 570,138 570,127 568,116 562,110 557,104 545,103 545,94 552,90 562,88 574,86 590,86 606,108 622,112 642,112 676,84 702,66 773,65 791,68 801,78 810,98 816,104 824,106 838,106 846,104 854,98 852,82 854,74 856,68 862,60 948,4 954,2 962,0 972,4 " class="polyStyle" id="341602" style="fill:#ee8b94"/>
<path d="" class="polyStyle" id="320302" style="fill:#d4ecb2"/>
<path d="" class="polyStyle" id="140311" style="fill:#ee8b94"/>
<path d="" class="polyStyle" id="610802" style="fill:#ee8b94"/>
<path d="" class="polyStyle" id="120116" style="fill:#f6f67b"/>
<path d="" class="polyStyle" id="130303" style="fill:#fbe6ef"/>
<path d="" class="polyStyle" id="140211" style="fill:#f6f67b"/>
<path d="" class="polyStyle" id="150207" style="fill:#fbe6ef"/>
<path d="" class="polyStyle" id="211403" style="fill:#f6f67b"/>
<path d="" class="polyStyle" id="150802" style="fill:#f8c67d"/>
<path d="" class="polyStyle" id="210112" style="fill:#ee8b94"/>
<path d="" class="polyStyle" id="230406" style="fill:#d4ecb2"/>
<path d="" class="polyStyle" id="110113" style="fill:#fbe6ef"/>
<path d="" class="polyStyle" id="341702" style="fill:#fbe6ef"/>
<path d="" class="polyStyle" id="420303" style="fill:#ee8b94"/>
<path d="" class="polyStyle" id="340702" style="fill:#d4ecb2"/>
<path d="" class="polyStyle" id="421002" style="fill:#f6f67b"/>
<path d="" class="polyStyle" id="420117" style="fill:#f6f67b"/>
<path d="" class="polyStyle" id="440904" style="fill:#f8c67d"/>
<path d="" class="polyStyle" id="460205" style="fill:#ee8b94"/>
<path d="" class="polyStyle" id="460202" style="fill:#f6f67b"/>
<path d="" class="polyStyle" id="460203" style="fill:#fbe6ef"/>
<path d="" class="polyStyle" id="420304" style="fill:#f6f67b"/>
<path d="" class="polyStyle" id="445302" style="fill:#ee8b94"/>
<path d="" class="polyStyle" id="410202" style="fill:#d4ecb2"/>
<path d="" class="polyStyle" id="440800" style="fill:#f6f67b"/>
<path d="" class="polyStyle" id="440900" style="fill:#ee8b94"/>
<path d="" class="polyStyle" id="340800" style="fill:#ee8b94"/>
<path d="" class="polyStyle" id="460200" style="fill:#f6f67b"/>
<path d="" class="polyStyle" id="460000" style="fill:#ee8b94"/>
<path d="" class="polyStyle" id="450500" style="fill:#ee8b94"/>
<path d="" class="polyStyle" id="450600" style="fill:#ee8b94"/>
<path d="" class="polyStyle" id="440400" style="fill:#f6f67b"/>
<path d="" class="polyStyle" id="441700" style="fill:#f6f67b"/>
<path d="" class="polyStyle" id="441500" style="fill:#f6f67b"/>
<path d="" class="polyStyle" id="350600" style="fill:#ee8b94"/>
<path d="" class="polyStyle" id="710000" style="fill:#f6f67b"/>
<path d="" class="polyStyle" id="510400" style="fill:#f6f67b"/>
<path d="" class="polyStyle" id="522600" style="fill:#fbe6ef"/>
<path d="" class="polyStyle" id="520500" style="fill:#ee8b94"/>
<path d="" class="polyStyle" id="431200" style="fill:#f6f67b"/>
<path d="" class="polyStyle" id="430600" style="fill:#f6f67b"/>
<path d="" class="polyStyle" id="511400" style="fill:#d4ecb2"/>
<path d="" class="polyStyle" id="421000" style="fill:#ee8b94"/>
<path d="" class="polyStyle" id="341700" style="fill:#f6f67b"/>
<path d="" class="polyStyle" id="420500" style="fill:#f6f67b"/>
<path d="" class="polyStyle" id="511300" style="fill:#f6f67b"/>
<path d="" class="polyStyle" id="420900" style="fill:#f6f67b"/>
<path d="" class="polyStyle" id="511700" style="fill:#ee8b94"/>
<path d="" class="polyStyle" id="420600" style="fill:#d4ecb2"/>
<path d="" class="polyStyle" id="411500" style="fill:#fbe6ef"/>
<path d="" class="polyStyle" id="510800" style="fill:#ee8b94"/>
<path d="" class="polyStyle" id="420300" style="fill:#fbe6ef"/>
<path d="" class="polyStyle" id="611000" style="fill:#ee8b94"/>
<path d="" class="polyStyle" id="620800" style="fill:#fbe6ef"/>
<path d="" class="polyStyle" id="370200" style="fill:#ee8b94"/>
<path d="" class="polyStyle" id="371000" style="fill:#f6f67b"/>
<path d="" class="polyStyle" id="370600" style="fill:#fbe6ef"/>
<path d="" class="polyStyle" id="120000" style="fill:#f6f67b"/>
<path d="" class="polyStyle" id="130200" style="fill:#ee8b94"/>
<path d="" class="polyStyle" id="130300" style="fill:#f6f67b"/>
<path d="" class="polyStyle" id="652900" style="fill:#fbe6ef"/>
<path d="" class="polyStyle" id="150500" style="fill:#d4ecb2"/>
<path d="" class="polyStyle" id="" style="fill:#d4ecb2"/>
<path d="" class="polyStyle" id="350500" style="fill:#fbe6ef"/>
<path d="" class="polyStyle" id="440400" style="fill:#f6f67b"/>
<path d="" class="polyStyle" id="421100" style="fill:#d4ecb2"/>
<path d="" class="polyStyle" id="420100" style="fill:#fbe6ef"/>
<path d="" class="polyStyle" id="532500" style="fill:#fbe6ef"/>
<path d="" class="polyStyle" id="654200" style="fill:#fbe6ef"/>
<path d="" class="polyStyle" id="210700" style="fill:#d4ecb2"/>
<path d="" class="polyStyle" id="522300" style="fill:#fbe6ef"/>
<path d="" class="polyStyle" id="" style="fill:#ee8b94"/>
<path d="" class="polyStyle" id="440400" style="fill:#f6f67b"/>
<path d="" class="polyStyle" id="620000" style="fill:#f6f67b"/>
<path d="" class="polyStyle" id="430000" style="fill:#fbe6ef"/>
<path d="" class="polyStyle" id="420000" style="fill:#ee8b94"/>
<path d="" class="polyStyle" id="410000" style="fill:#f6f67b"/>
<path d="" class="polyStyle" id="350000" style="fill:#fbe6ef"/>
<path d="" class="polyStyle" id="520000" style="fill:#f6f67b"/>
<path d="" class="polyStyle" id="" style="fill:#ee8b94"/>
</svg>
