<?xml version="1.0" encoding="UTF-8"?>
<!DOCTYPE svg PUBLIC "-//W3C//DTD SVG 1.1 Tiny//EN" "http://www.w3.org/Graphics/SVG/1.1/DTD/svg11-tiny.dtd">
<svg version="1.1" xmlns="http://www.w3.org/2000/svg" xmlns:xlink="http://www.w3.org/1999/xlink" width="100%" height="100%" viewBox="0,0,5632,4813">
<title>SVG</title>
<desc>Poligon Test</desc>
<style id="style_css_sheet" type="text/css">
.polyStyle{fill: #cccccc;stroke-width:0;fill-rule:evenodd;}
</style>
<circle cx="4157" cy="3783" r="200" stroke="black" stroke-width="1" fill="red" id="360124" name="进贤县"/>
<circle cx="2532" cy="2863" r="200" stroke="black" stroke-width="1" fill="red" id="360121" name="南昌县"/>
<circle cx="1925" cy="2199" r="200" stroke="black" stroke-width="1" fill="red" id="360112"position="4433" name="新建区"/>
<circle cx="564" cy="1400" r="200" stroke="black" stroke-width="1" fill="red" id="360123" name="安义县"/>
<circle cx="2629" cy="2198" r="200" stroke="black" stroke-width="1" fill="red" id="360111" name="青山湖区"/>
<circle cx="2412" cy="2450" r="200" stroke="black" stroke-width="1" fill="red" id="360104" name="青云谱区"/>
<circle cx="2326" cy="2177" r="200" stroke="black" stroke-width="1" fill="red" id="360102" name="东湖区"/>
<circle cx="1474" cy="2016" r="200" stroke="black" stroke-width="1" fill="red" id="360105" position="44"name="湾里区"/>
<circle cx="2195" cy="2318" r="200" stroke="black" stroke-width="1" fill="red" id="360103" name="西湖区"/>
<path d="" class="polyStyle" id="" style="fill:#ee8b94"/>
<path d="" class="polyStyle" id="623022" style="fill:#fbe6ef"/>
<path d="" class="polyStyle" id="211421" style="fill:#f6f67b"/>
<path d="" class="polyStyle" id="532524" style="fill:#ee8b94"/>
<path d="" class="polyStyle" id="440825" style="fill:#f6f67b"/>
<path d="" class="polyStyle" id="441721" style="fill:#f6f67b"/>
<path d="" class="polyStyle" id="450521" style="fill:#f6f67b"/>
<path d="" class="polyStyle" id="450123" style="fill:#fbe6ef"/>
<path d="" class="polyStyle" id="350624" style="fill:#f6f67b"/>
<path d="" class="polyStyle" id="" style="fill:#fbe6ef"/>
<path d="" class="polyStyle" id="451224" style="fill:#fbe6ef"/>
<path d="" class="polyStyle" id="350627" style="fill:#f6f67b"/>
<path d="" class="polyStyle" id="" style="fill:#f6f67b"/>
<path d="" class="polyStyle" id="350525" style="fill:#f6f67b"/>
<path d="" class="polyStyle" id="530124" style="fill:#ee8b94"/>
<path d="" class="polyStyle" id="522627" style="fill:#ee8b94"/>
<path d="" class="polyStyle" id="510421" style="fill:#fbe6ef"/>
<path d="" class="polyStyle" id="522623" style="fill:#d4ecb2"/>
<path d="" class="polyStyle" id="430321" style="fill:#d4ecb2"/>
<polygon points="4637,1846 4665,1845 4694,1845 4709,1877 4712,1907 4736,1935 4754,1966 4787,1975 4817,1979 4846,1984 4874,1992 4902,2005 4931,2018 4956,2027 4988,2049 5016,2081 5033,2111 5041,2136 5025,2169 5025,2176 5025,2183 5030,2189 5031,2195 5030,2200 5030,2205 5027,2211 5023,2217 5019,2222 5016,2228 5012,2233 5008,2239 5004,2245 5003,2250 5000,2256 5000,2262 5000,2268 5000,2270 5004,2274 5009,2273 5016,2272 5022,2270 5028,2268 5035,2270 5041,2271 5046,2275 5051,2281 5053,2286 5053,2292 5051,2298 5050,2303 5049,2309 5050,2315 5050,2320 5051,2326 5051,2330 5051,2338 5049,2343 5045,2350 5044,2355 5040,2361 5036,2367 5031,2372 5025,2378 5019,2383 5017,2389 5014,2396 5014,2413 5020,2424 5026,2435 5028,2441 5026,2446 5026,2451 5027,2457 5028,2462 5031,2468 5035,2474 5040,2479 5046,2483 5057,2490 5067,2495 5075,2503 5097,2514 5114,2525 5125,2537 5134,2555 5134,2581 5134,2609 5151,2635 5166,2671 5185,2700 5206,2729 5235,2755 5268,2782 5296,2807 5307,2835 5335,2864 5361,2872 5391,2884 5419,2911 5443,2941 5466,2970 5489,2999 5516,3022 5546,3033 5580,3039 5577,3068 5589,3095 5611,3120 5606,3135 5602,3151 5588,3178 5589,3205 5582,3232 5602,3260 5604,3289 5604,3322 5595,3348 5603,3375 5632,3383 5632,3412 5618,3439 5629,3467 5606,3496 5599,3526 5592,3556 5584,3582 5559,3594 5527,3613 5501,3630 5468,3659 5436,3689 5405,3720 5392,3747 5394,3775 5373,3803 5350,3831 5346,3857 5345,3890 5351,3918 5352,3944 5349,3977 5350,4002 5352,4037 5332,4065 5301,4085 5271,4103 5245,4114 5203,4141 5214,4166 5210,4197 5195,4228 5178,4264 5155,4303 5145,4340 5113,4370 5086,4346 5060,4356 5020,4372 4987,4373 4953,4368 4925,4360 4893,4356 4859,4372 4832,4381 4805,4390 4776,4407 4748,4394 4720,4403 4692,4436 4692,4463 4673,4503 4644,4511 4662,4538 4649,4563 4620,4579 4591,4561 4591,4555 4602,4522 4605,4514 4602,4469 4576,4447 4531,4427 4509,4407 4505,4387 4485,4380 4469,4394 4446,4407 4434,4398 4431,4377 4431,4350 4409,4344 4394,4347 4371,4368 4362,4394 4377,4418 4365,4448 4369,4467 4376,4502 4375,4532 4362,4535 4340,4522 4321,4504 4290,4485 4260,4484 4225,4510 4195,4521 4161,4531 4129,4544 4098,4555 4067,4574 4045,4600 4017,4631 3986,4660 3970,4690 3982,4723 3966,4753 3957,4783 3938,4813 3913,4787 3893,4759 3867,4733 3839,4719 3809,4713 3778,4703 3747,4699 3717,4704 3690,4698 3660,4671 3630,4645 3625,4617 3630,4591 3624,4565 3599,4531 3567,4508 3512,4479 3464,4453 3420,4435 3388,4416 3377,4386 3347,4367 3319,4356 3309,4325 3304,4294 3290,4262 3310,4233 3307,4205 3282,4173 3262,4144 3260,4115 3287,4092 3317,4066 3307,4035 3279,4027 3250,4033 3220,4035 3194,4024 3180,3993 3182,3966 3149,3962 3121,3964 3102,3937 3107,3911 3108,3877 3073,3862 3046,3853 3018,3841 2996,3813 2970,3786 2942,3759 2938,3732 2945,3698 2952,3672 2962,3644 2974,3616 2975,3588 2974,3558 2972,3533 2969,3502 2959,3471 2944,3435 2940,3403 2964,3372 2998,3337 3015,3296 3033,3260 3077,3260 3108,3271 3139,3258 3172,3238 3197,3238 3205,3263 3233,3277 3266,3286 3297,3302 3325,3309 3353,3325 3380,3342 3407,3355 3436,3348 3469,3312 3483,3284 3498,3253 3520,3222 3531,3189 3537,3160 3543,3129 3543,3102 3542,3072 3546,3041 3547,3016 3572,2989 3598,2958 3603,2929 3635,2898 3666,2876 3700,2858 3735,2841 3774,2827 3802,2812 3830,2793 3860,2772 3890,2744 3910,2710 3942,2668 3960,2630 3967,2602 3997,2589 4007,2575 4017,2562 4024,2555 4026,2539 4037,2530 4062,2523 4091,2515 4120,2523 4159,2530 4179,2527 4210,2511 4226,2509 4274,2493 4278,2478 4279,2452 4277,2437 4271,2419 4252,2405 4229,2394 4202,2375 4184,2355 4162,2320 4159,2285 4161,2255 4163,2242 4198,2227 4221,2199 4247,2164 4259,2140 4268,2126 4293,2094 4296,2062 4274,2030 4266,2005 4298,1972 4364,1933 4396,1917 4404,1913 4426,1905 4454,1890 4479,1874 4512,1855 4546,1841 4574,1833 4602,1840 " class="polyStyle" id="360124" style="fill:#f6f67b"/>
<polygon points="1716,1795 1741,1817 1759,1834 1764,1849 1766,1853 1766,1863 1761,1875 1752,1890 1742,1919 1744,1952 1749,1973 1772,1998 1799,2020 1820,2045 1845,2058 1863,2065 1878,2073 1896,2081 1947,2109 1958,2112 1969,2112 1977,2110 1986,2110 1996,2112 2004,2115 2009,2116 2012,2119 2014,2122 2008,2132 2006,2136 2004,2142 2003,2145 2003,2148 2007,2152 2012,2155 2017,2154 2023,2151 2048,2139 2063,2132 2087,2122 2100,2119 2111,2119 2119,2122 2130,2123 2133,2126 2126,2131 2108,2137 2093,2146 2087,2152 2081,2163 2070,2190 2065,2201 2064,2204 2081,2209 2109,2214 2115,2216 2147,2223 2163,2230 2164,2234 2164,2238 2164,2244 2154,2270 2142,2296 2136,2306 2129,2316 2114,2334 2074,2372 2038,2402 2013,2428 1998,2447 1986,2468 1972,2495 1967,2501 1961,2511 1950,2523 1937,2535 1928,2548 1927,2557 1928,2566 1929,2578 1932,2591 1937,2612 1938,2625 1937,2635 1935,2645 1931,2656 1924,2676 1923,2697 1907,2728 1899,2754 1899,2781 1898,2812 1892,2840 1886,2870 1881,2898 1867,2929 1842,2959 1822,2988 1805,3020 1807,3046 1823,3072 1849,3098 1876,3114 1901,3126 1926,3142 1952,3154 1983,3177 2007,3206 2015,3232 2020,3266 2025,3301 2023,3328 2010,3359 1992,3388 1978,3421 1970,3447 1962,3473 1954,3501 1948,3529 1947,3554 1944,3580 1935,3611 1909,3594 1879,3587 1845,3601 1811,3609 1812,3637 1818,3674 1815,3700 1781,3712 1753,3728 1724,3758 1698,3787 1667,3801 1641,3793 1614,3771 1576,3764 1538,3790 1504,3814 1472,3840 1440,3843 1429,3817 1398,3791 1364,3771 1331,3775 1295,3774 1264,3774 1248,3774 1223,3752 1211,3728 1200,3699 1173,3687 1154,3701 1159,3733 1159,3756 1145,3778 1153,3801 1170,3811 1186,3802 1199,3782 1215,3783 1260,3796 1280,3819 1280,3834 1258,3852 1236,3858 1219,3874 1210,3898 1203,3914 1171,3916 1163,3897 1165,3873 1155,3873 1138,3881 1114,3879 1114,3892 1099,3919 1064,3933 1035,3921 1005,3912 968,3897 938,3889 910,3876 938,3868 966,3847 971,3821 991,3789 1019,3758 1047,3741 1076,3713 1080,3688 1058,3654 1033,3624 1005,3616 973,3618 944,3618 911,3603 896,3575 895,3543 904,3524 887,3525 848,3521 813,3531 799,3544 782,3554 764,3582 735,3609 703,3616 668,3613 631,3618 614,3644 584,3665 549,3657 511,3635 485,3624 481,3592 502,3564 530,3561 556,3559 572,3529 578,3498 576,3472 566,3437 545,3410 523,3378 552,3354 567,3324 564,3298 566,3271 576,3246 584,3221 592,3188 619,3156 644,3143 647,3112 616,3092 603,3063 612,3033 639,3030 671,3029 668,2997 658,2966 650,2940 656,2907 653,2880 644,2848 629,2816 624,2783 650,2772 679,2767 709,2763 735,2751 735,2722 721,2695 705,2667 674,2651 647,2675 621,2681 594,2676 580,2645 571,2613 579,2588 606,2565 638,2549 671,2553 692,2525 706,2500 725,2470 750,2445 772,2418 780,2393 802,2366 830,2342 862,2323 888,2314 916,2312 932,2286 933,2253 935,2228 953,2200 985,2178 996,2170 1023,2166 1050,2177 1075,2199 1105,2201 1097,2168 1070,2144 1088,2112 1097,2080 1122,2077 1153,2105 1184,2111 1216,2103 1242,2108 1276,2092 1308,2070 1340,2080 1358,2111 1360,2137 1354,2163 1360,2196 1381,2227 1406,2225 1434,2206 1464,2228 1498,2243 1513,2276 1544,2272 1573,2265 1600,2243 1617,2213 1621,2187 1616,2161 1616,2131 1645,2111 1669,2083 1698,2061 1680,2033 1669,2006 1644,1978 1618,1957 1590,1930 1583,1897 1575,1860 1570,1847 1574,1835 1590,1819 1611,1807 1632,1797 1657,1784 1674,1779 1694,1782 " class="polyStyle" id="360122" style="fill:#f6f67b"/>
<polygon points="4098,808 4115,840 4139,868 4146,902 4151,927 4167,956 4187,991 4170,1021 4140,1044 4121,1071 4154,1084 4180,1091 4212,1081 4241,1061 4250,1092 4272,1123 4283,1152 4311,1176 4289,1203 4298,1236 4295,1265 4268,1265 4238,1263 4207,1255 4178,1251 4148,1255 4116,1254 4088,1253 4058,1240 4032,1269 4007,1295 3988,1325 4007,1350 4034,1361 4057,1393 4063,1421 4072,1447 4047,1469 4032,1495 4016,1526 4014,1557 4038,1584 4066,1589 4093,1602 4124,1605 4152,1599 4182,1595 4207,1612 4215,1638 4244,1664 4271,1663 4298,1664 4325,1682 4341,1707 4371,1732 4399,1754 4413,1785 4423,1817 4429,1844 4418,1876 4401,1906 4396,1917 4364,1933 4298,1972 4266,2005 4274,2030 4296,2062 4293,2094 4268,2126 4259,2140 4247,2164 4221,2199 4198,2227 4163,2242 4161,2255 4159,2285 4162,2320 4184,2355 4202,2375 4229,2394 4252,2405 4271,2419 4277,2437 4279,2452 4278,2478 4274,2493 4226,2509 4210,2511 4179,2527 4159,2530 4120,2523 4091,2515 4062,2523 4037,2530 4026,2539 4024,2555 4017,2562 4007,2575 3997,2589 3967,2602 3960,2630 3942,2668 3910,2710 3890,2744 3860,2772 3830,2793 3802,2812 3774,2827 3735,2841 3700,2858 3666,2876 3635,2898 3603,2929 3598,2958 3572,2989 3547,3016 3546,3041 3542,3072 3543,3102 3543,3129 3537,3160 3531,3189 3520,3222 3498,3253 3483,3284 3469,3312 3436,3348 3407,3355 3380,3342 3353,3325 3325,3309 3297,3302 3266,3286 3233,3277 3205,3263 3197,3238 3172,3238 3139,3258 3108,3271 3077,3260 3033,3260 3015,3296 2998,3337 2964,3372 2940,3403 2944,3435 2959,3471 2969,3502 2972,3533 2974,3558 2975,3588 2974,3616 2962,3644 2952,3672 2945,3698 2938,3732 2942,3759 2970,3786 2996,3813 3018,3841 3046,3853 3073,3862 3108,3877 3107,3911 3102,3937 3121,3964 3149,3962 3182,3966 3180,3993 3194,4024 3220,4035 3250,4033 3279,4027 3307,4035 3317,4066 3287,4092 3260,4115 3262,4144 3282,4173 3307,4205 3310,4233 3290,4262 3286,4261 3258,4238 3226,4224 3203,4196 3178,4167 3147,4151 3121,4145 3094,4141 3067,4133 3037,4126 3004,4134 2973,4153 2943,4170 2914,4183 2872,4186 2841,4207 2816,4204 2788,4180 2763,4149 2733,4138 2703,4163 2688,4196 2659,4212 2633,4218 2608,4211 2582,4207 2557,4193 2578,4166 2605,4149 2603,4121 2578,4095 2548,4076 2518,4068 2491,4067 2466,4050 2445,4023 2420,4027 2397,4054 2397,4082 2369,4082 2358,4054 2353,4026 2325,4035 2312,4061 2285,4083 2264,4113 2244,4143 2218,4166 2191,4148 2182,4121 2166,4096 2137,4067 2112,4045 2102,4018 2107,3986 2119,3956 2126,3929 2125,3896 2120,3868 2104,3837 2090,3808 2083,3783 2071,3751 2066,3723 2049,3692 2027,3660 1995,3641 1964,3630 1935,3611 1944,3580 1947,3554 1948,3529 1954,3501 1962,3473 1970,3447 1978,3421 1992,3388 2010,3359 2023,3328 2025,3301 2020,3266 2015,3232 2007,3206 1983,3177 1952,3154 1926,3142 1901,3126 1876,3114 1849,3098 1823,3072 1807,3046 1805,3020 1822,2988 1842,2959 1867,2929 1881,2898 1886,2870 1892,2840 1898,2812 1899,2781 1899,2754 1907,2728 1923,2697 1924,2676 1931,2656 1935,2645 1937,2635 1938,2625 1937,2612 1932,2591 1929,2578 1928,2566 1927,2557 1928,2548 1937,2535 1950,2523 1961,2511 1967,2501 1973,2503 1998,2516 2009,2523 2015,2524 2019,2524 2025,2524 2028,2527 2033,2534 2036,2538 2036,2543 2035,2548 2033,2551 2035,2556 2043,2558 2050,2558 2054,2557 2062,2553 2070,2543 2078,2535 2082,2531 2090,2527 2099,2525 2106,2524 2111,2525 2133,2537 2138,2541 2145,2544 2156,2548 2162,2547 2169,2550 2173,2551 2176,2552 2193,2557 2201,2556 2208,2562 2214,2561 2220,2563 2229,2565 2231,2571 2235,2571 2239,2575 2242,2581 2245,2587 2247,2590 2248,2594 2248,2598 2251,2603 2258,2602 2262,2606 2267,2609 2280,2616 2291,2624 2300,2634 2307,2636 2311,2638 2321,2638 2329,2639 2337,2641 2345,2644 2350,2651 2354,2660 2355,2667 2358,2669 2362,2671 2366,2670 2372,2667 2379,2661 2386,2656 2393,2651 2407,2639 2449,2623 2474,2624 2497,2622 2506,2624 2516,2621 2546,2627 2576,2631 2624,2633 2657,2639 2674,2652 2706,2656 2743,2658 2769,2663 2794,2667 2836,2679 2876,2681 2907,2666 2939,2641 2978,2609 3019,2583 3048,2546 3071,2504 3084,2479 3074,2459 3049,2426 3022,2399 3008,2393 2987,2391 2954,2397 2933,2397 2922,2393 2913,2379 2879,2361 2857,2334 2834,2305 2804,2283 2776,2280 2747,2285 2717,2273 2738,2247 2728,2215 2746,2187 2754,2161 2763,2131 2789,2122 2815,2095 2841,2072 2861,2041 2857,2014 2855,1984 2842,1976 2822,1976 2792,1972 2768,1968 2736,1957 2686,1938 2658,1929 2625,1929 2588,1937 2558,1946 2536,1932 2516,1927 2501,1934 2489,1939 2474,1934 2477,1921 2488,1901 2503,1882 2524,1860 2547,1842 2577,1827 2611,1815 2640,1789 2675,1757 2699,1734 2722,1702 2705,1672 2675,1670 2649,1654 2602,1645 2591,1614 2596,1584 2612,1555 2637,1528 2665,1508 2697,1489 2721,1482 2734,1476 2758,1466 2784,1451 2808,1435 2827,1425 2849,1423 2874,1425 2903,1438 2931,1448 2956,1452 2974,1443 2980,1427 2981,1405 2979,1373 2978,1353 2985,1321 2987,1300 3001,1267 3028,1241 3056,1224 3085,1210 3098,1194 3108,1176 3119,1162 3139,1158 3160,1167 3188,1178 3219,1198 3241,1212 3268,1227 3295,1236 3318,1232 3335,1220 3359,1202 3390,1186 3425,1170 3459,1155 3475,1147 3486,1147 3507,1165 3521,1170 3547,1183 3563,1184 3586,1180 3604,1174 3622,1149 3641,1118 3654,1092 3656,1077 3661,1063 3673,1061 3685,1036 3685,999 3692,972 3717,946 3748,927 3778,920 3807,920 3835,914 3863,907 3890,902 3920,896 3948,889 3974,881 4002,861 4017,830 4043,806 4070,807 " class="polyStyle" id="360121" style="fill:#d4ecb2"/>
<polygon points="417,535 448,548 481,566 513,597 520,618 529,645 551,674 579,702 608,727 636,740 667,748 699,748 724,751 754,759 782,749 808,763 821,790 850,796 881,791 907,796 931,826 954,853 987,856 1012,856 1045,854 1076,855 1103,854 1135,861 1165,872 1198,867 1226,879 1201,903 1173,920 1169,947 1185,973 1217,984 1248,984 1275,987 1304,996 1336,997 1366,1006 1394,1020 1425,1015 1439,990 1439,961 1471,950 1499,961 1505,988 1515,1015 1543,1035 1570,1061 1583,1087 1586,1115 1614,1141 1618,1141 1619,1152 1620,1177 1616,1200 1597,1220 1584,1234 1579,1254 1585,1275 1615,1308 1625,1319 1620,1325 1605,1330 1591,1333 1576,1338 1554,1359 1541,1371 1538,1382 1542,1398 1539,1412 1534,1431 1534,1454 1533,1466 1517,1471 1496,1474 1471,1473 1454,1478 1444,1483 1433,1477 1432,1458 1434,1446 1426,1438 1404,1431 1401,1427 1373,1420 1348,1402 1335,1398 1322,1407 1315,1424 1324,1445 1332,1473 1332,1495 1319,1504 1297,1499 1276,1494 1266,1494 1260,1500 1234,1531 1205,1554 1181,1585 1172,1593 1159,1603 1155,1615 1146,1628 1141,1640 1135,1648 1125,1645 1121,1635 1125,1618 1141,1574 1152,1560 1152,1545 1145,1540 1119,1533 1109,1544 1106,1563 1098,1589 1093,1622 1089,1647 1087,1672 1071,1704 1050,1733 1031,1765 1013,1795 996,1825 999,1851 1000,1883 1003,1910 1017,1925 1052,1959 1051,1996 1048,2036 1031,2068 1002,2089 991,2111 991,2136 996,2170 985,2178 953,2200 935,2228 933,2253 932,2286 916,2312 888,2314 862,2323 830,2342 802,2366 780,2393 772,2418 750,2445 725,2470 706,2500 692,2525 671,2553 638,2549 606,2565 579,2588 571,2613 580,2645 594,2676 585,2676 558,2702 533,2716 501,2721 473,2705 440,2696 420,2668 441,2638 438,2626 448,2597 476,2566 506,2539 534,2509 542,2480 534,2451 508,2422 502,2393 518,2366 520,2337 522,2305 529,2276 534,2247 554,2214 570,2187 572,2159 565,2131 543,2102 530,2072 543,2045 569,2018 582,1993 597,1966 567,1956 538,1946 503,1950 470,1945 439,1920 408,1920 384,1948 354,1959 337,1944 309,1934 274,1927 237,1942 211,1955 181,1952 174,1980 143,1990 115,1963 108,1937 82,1942 49,1930 52,1904 35,1874 24,1844 0,1804 37,1790 11,1768 14,1740 42,1745 71,1732 84,1760 105,1733 119,1696 116,1668 141,1658 147,1628 193,1619 229,1595 226,1566 221,1534 241,1502 249,1474 250,1444 265,1416 276,1383 279,1385 284,1388 305,1407 337,1440 348,1425 375,1411 401,1398 404,1369 419,1341 449,1315 460,1287 447,1261 435,1235 424,1207 422,1176 423,1149 397,1124 371,1111 363,1082 337,1048 327,1021 337,997 310,964 298,927 272,906 260,877 234,845 206,799 167,772 152,737 134,707 130,676 147,645 178,637 179,618 175,589 185,573 213,557 240,554 265,563 290,559 318,533 337,530 362,527 390,534 " class="polyStyle" id="360123" style="fill:#ee8b94"/>
<polygon points="3607,8 3652,15 3660,30 3651,37 3615,65 3565,93 3542,125 3517,153 3512,180 3527,210 3550,228 3585,248 3607,290 3645,353 3690,385 3717,398 3772,415 3837,420 3915,425 3962,448 3982,475 3990,518 3980,575 3975,608 3985,640 4002,655 4027,638 4050,623 4100,605 4150,598 4175,568 4197,518 4195,488 4110,193 4125,143 4162,85 4200,65 4247,65 4362,138 4660,335 4705,342 4790,332 4823,329 4815,340 4813,343 4828,390 4843,438 4838,488 4833,543 4840,693 4848,763 4833,818 4808,843 4770,868 4730,893 4683,930 4628,995 4568,1120 4535,1198 4450,1245 4388,1268 4343,1266 4295,1265 4298,1236 4289,1203 4311,1176 4283,1152 4272,1123 4250,1092 4241,1061 4212,1081 4180,1091 4154,1084 4121,1071 4140,1044 4170,1021 4187,991 4167,956 4151,927 4146,902 4139,868 4115,840 4098,808 4070,807 4043,806 4017,830 4002,861 3974,881 3948,889 3920,896 3890,902 3863,907 3835,914 3807,920 3778,920 3748,927 3717,946 3692,972 3685,999 3685,1036 3673,1061 3661,1063 3656,1077 3654,1092 3641,1118 3622,1149 3604,1174 3586,1180 3563,1184 3547,1183 3521,1170 3507,1165 3486,1147 3475,1147 3459,1155 3425,1170 3390,1186 3359,1202 3335,1220 3318,1232 3295,1236 3268,1227 3241,1212 3219,1198 3188,1178 3160,1167 3139,1158 3119,1162 3108,1176 3098,1194 3085,1210 3056,1224 3028,1241 3001,1267 2987,1300 2985,1321 2978,1353 2979,1373 2981,1405 2980,1427 2974,1443 2956,1452 2931,1448 2903,1438 2874,1425 2849,1423 2827,1425 2808,1435 2784,1451 2758,1466 2734,1476 2721,1482 2697,1489 2665,1508 2637,1528 2612,1555 2596,1584 2591,1614 2602,1645 2611,1667 2615,1693 2605,1718 2578,1734 2550,1737 2516,1742 2485,1745 2460,1752 2422,1762 2403,1762 2385,1745 2371,1722 2363,1695 2361,1680 2362,1663 2361,1647 2357,1638 2330,1625 2300,1602 2246,1570 2225,1560 2203,1565 2186,1582 2180,1608 2176,1635 2160,1650 2136,1653 2123,1632 2113,1614 2087,1612 2040,1617 2010,1613 1971,1595 1956,1591 1954,1583 1982,1566 1978,1539 1968,1508 1940,1504 1919,1532 1892,1545 1861,1540 1861,1511 1862,1484 1837,1498 1819,1529 1789,1525 1792,1498 1805,1473 1812,1448 1819,1419 1820,1387 1837,1361 1865,1357 1883,1326 1909,1297 1908,1271 1898,1245 1894,1219 1905,1186 1902,1152 1910,1126 1914,1095 1886,1085 1881,1059 1890,1027 1885,1000 1885,971 1914,945 1936,918 1939,889 1933,858 1925,827 1918,797 1902,767 1895,740 1899,711 1921,740 1952,758 1983,767 2012,746 2040,756 2068,755 2099,760 2116,730 2132,704 2151,679 2177,687 2201,655 2224,625 2227,619 2224,589 2220,558 2255,555 2265,523 2269,485 2301,461 2328,436 2354,434 2374,409 2387,379 2401,366 2416,319 2421,296 2397,261 2387,238 2400,211 2454,154 2480,143 2520,146 2564,139 2595,127 2625,117 2670,113 2702,117 2720,139 2730,161 2751,161 2764,147 2784,114 2805,99 2822,93 2845,102 2866,121 2890,142 2912,154 2937,147 2944,143 2980,121 3017,98 3052,87 3091,57 3119,27 3150,19 3182,25 3237,35 3285,30 3320,13 3377,18 3427,5 3480,0 3540,5 " class="polyStyle" id="360122" style="fill:#f6f67b"/>
<path d="" class="polyStyle" id="511129" style="fill:#d4ecb2"/>
<path d="" class="polyStyle" id="511423" style="fill:#ee8b94"/>
<path d="" class="polyStyle" id="421023" style="fill:#f6f67b"/>
<path d="" class="polyStyle" id="511724" style="fill:#f6f67b"/>
<path d="" class="polyStyle" id="420526" style="fill:#fbe6ef"/>
<path d="" class="polyStyle" id="511923" style="fill:#fbe6ef"/>
<path d="" class="polyStyle" id="420325" style="fill:#fbe6ef"/>
<path d="" class="polyStyle" id="511921" style="fill:#f6f67b"/>
<path d="" class="polyStyle" id="542525" style="fill:#f6f67b"/>
<path d="" class="polyStyle" id="611026" style="fill:#ee8b94"/>
<path d="" class="polyStyle" id="411023" style="fill:#fbe6ef"/>
<path d="" class="polyStyle" id="632323" style="fill:#f6f67b"/>
<path d="" class="polyStyle" id="140525" style="fill:#d4ecb2"/>
<path d="" class="polyStyle" id="410922" style="fill:#ee8b94"/>
<path d="" class="polyStyle" id="621027" style="fill:#ee8b94"/>
<path d="" class="polyStyle" id="130427" style="fill:#f6f67b"/>
<path d="" class="polyStyle" id="130121" style="fill:#ee8b94"/>
<path d="" class="polyStyle" id="610823" style="fill:#fbe6ef"/>
<path d="" class="polyStyle" id="130225" style="fill:#fbe6ef"/>
<path d="" class="polyStyle" id="130322" style="fill:#d4ecb2"/>
<path d="" class="polyStyle" id="653130" style="fill:#f6f67b"/>
<path d="" class="polyStyle" id="130822" style="fill:#fbe6ef"/>
<path d="" class="polyStyle" id="211221" style="fill:#f6f67b"/>
<path d="" class="polyStyle" id="210921" style="fill:#f6f67b"/>
<path d="" class="polyStyle" id="150223" style="fill:#f8c67d"/>
<path d="" class="polyStyle" id="220422" style="fill:#d4ecb2"/>
<path d="" class="polyStyle" id="340721" style="fill:#f6f67b"/>
<path d="" class="polyStyle" id="510824" style="fill:#d4ecb2"/>
<path d="" class="polyStyle" id="610324" style="fill:#f6f67b"/>
<path d="" class="polyStyle" id="530722" style="fill:#ee8b94"/>
<path d="" class="polyStyle" id="340823" style="fill:#d4ecb2"/>
<path d="" class="polyStyle" id="620825" style="fill:#d4ecb2"/>
<path d="" class="polyStyle" id="421125" style="fill:#ee8b94"/>
<path d="" class="polyStyle" id="210281" style="fill:#ee8b94"/>
<path d="" class="polyStyle" id="440883" style="fill:#f6f67b"/>
<path d="" class="polyStyle" id="469006" style="fill:#d4ecb2"/>
<path d="" class="polyStyle" id="469002" style="fill:#ee8b94"/>
<path d="" class="polyStyle" id="469005" style="fill:#fbe6ef"/>
<path d="" class="polyStyle" id="440882" style="fill:#ee8b94"/>
<path d="" class="polyStyle" id="450681" style="fill:#ee8b94"/>
<path d="" class="polyStyle" id="441581" style="fill:#d4ecb2"/>
<path d="" class="polyStyle" id="421087" style="fill:#ee8b94"/>
<path d="" class="polyStyle" id="420984" style="fill:#fbe6ef"/>
<path d="" class="polyStyle" id="420582" style="fill:#ee8b94"/>
<path d="" class="polyStyle" id="370282" style="fill:#f6f67b"/>
<path d="" class="polyStyle" id="371083" style="fill:#f6f67b"/>
<path d="" class="polyStyle" id="371082" style="fill:#fbe6ef"/>
<path d="" class="polyStyle" id="652801" style="fill:#f8c67d"/>
<path d="" class="polyStyle" id="654301" style="fill:#ee8b94"/>
<path d="" class="polyStyle" id="370687" style="fill:#ee8b94"/>
<path d="" class="polyStyle" id="371482" style="fill:#d4ecb2"/>
<path d="" class="polyStyle" id="421081" style="fill:#fbe6ef"/>
<path d="" class="polyStyle" id="429006" style="fill:#f6f67b"/>
<path d="" class="polyStyle" id="440982" style="fill:#d4ecb2"/>
<path d="" class="polyStyle" id="421181" style="fill:#d4ecb2"/>
<path d="" class="polyStyle" id="321181" style="fill:#d4ecb2"/>
<path d="" class="polyStyle" id="659007" style="fill:#ee8b94"/>
<path d="" class="polyStyle" id="652701" style="fill:#fbe6ef"/>
<path d="" class="polyStyle" id="210781" style="fill:#fbe6ef"/>
<path d="" class="polyStyle" id="460204" style="fill:#f6f67b"/>
<path d="" class="polyStyle" id="210211" style="fill:#f6f67b"/>
<path d="" class="polyStyle" id="450512" style="fill:#ee8b94"/>
<path d="" class="polyStyle" id="450602" style="fill:#fbe6ef"/>
<path d="" class="polyStyle" id="440404" style="fill:#ee8b94"/>
<path d="" class="polyStyle" id="440403" style="fill:#f6f67b"/>
<path d="" class="polyStyle" id="441502" style="fill:#f6f67b"/>
<path d="" class="polyStyle" id="431002" style="fill:#d4ecb2"/>
<polygon points="2404,2328 2418,2329 2436,2330 2447,2329 2454,2328 2464,2330 2474,2332 2490,2335 2496,2337 2503,2340 2508,2342 2526,2350 2533,2354 2544,2359 2556,2364 2560,2365 2562,2369 2564,2376 2566,2384 2569,2394 2571,2399 2574,2404 2578,2408 2579,2411 2579,2415 2578,2418 2578,2420 2580,2423 2584,2426 2586,2428 2588,2433 2589,2440 2588,2462 2588,2469 2587,2476 2587,2485 2586,2498 2587,2511 2587,2519 2586,2523 2586,2527 2586,2530 2585,2534 2583,2538 2571,2541 2557,2543 2543,2543 2532,2545 2532,2551 2535,2554 2540,2558 2542,2562 2543,2565 2542,2569 2541,2573 2538,2577 2534,2582 2530,2586 2524,2591 2517,2594 2512,2595 2508,2595 2504,2596 2500,2598 2497,2602 2496,2606 2497,2611 2501,2616 2504,2622 2506,2624 2497,2622 2474,2624 2449,2623 2407,2639 2393,2651 2386,2656 2379,2661 2372,2667 2366,2670 2362,2671 2358,2669 2355,2667 2354,2660 2350,2651 2345,2644 2337,2641 2329,2639 2321,2638 2311,2638 2307,2636 2300,2634 2291,2624 2280,2616 2267,2609 2262,2606 2258,2602 2251,2603 2248,2598 2248,2594 2247,2590 2245,2587 2242,2581 2239,2575 2235,2571 2231,2571 2229,2565 2220,2563 2214,2561 2208,2562 2201,2556 2193,2557 2176,2552 2179,2546 2190,2517 2220,2476 2226,2470 2233,2466 2241,2463 2254,2461 2268,2456 2280,2445 2288,2431 2294,2406 2301,2355 2303,2330 2312,2328 2335,2328 2363,2328 2378,2327 2384,2327 2393,2327 2401,2328 " class="polyStyle" id="360104" style="fill:#f6f67b"/>
<polygon points="2289,2226 2294,2227 2297,2228 2300,2229 2309,2226 2322,2226 2326,2226 2326,2243 2329,2242 2334,2242 2337,2242 2337,2234 2361,2233 2378,2233 2386,2233 2391,2233 2401,2233 2406,2233 2406,2254 2406,2271 2405,2280 2405,2292 2406,2305 2404,2328 2401,2328 2393,2327 2384,2327 2378,2327 2363,2328 2335,2328 2312,2328 2303,2330 2301,2355 2294,2406 2288,2431 2280,2445 2268,2456 2254,2461 2241,2463 2233,2466 2226,2470 2220,2476 2190,2517 2179,2546 2176,2552 2173,2551 2169,2550 2162,2547 2156,2548 2145,2544 2138,2541 2133,2537 2111,2525 2106,2524 2099,2525 2090,2527 2082,2531 2078,2535 2070,2543 2062,2553 2054,2557 2050,2558 2043,2558 2035,2556 2033,2551 2035,2548 2036,2543 2036,2538 2033,2534 2028,2527 2025,2524 2019,2524 2015,2524 2009,2523 1998,2516 1973,2503 1967,2501 1972,2495 1986,2468 1998,2447 2013,2428 2038,2402 2074,2372 2114,2334 2129,2316 2136,2306 2142,2296 2154,2270 2164,2244 2164,2238 2167,2237 2171,2237 2175,2238 2183,2243 2190,2242 2195,2239 2199,2237 2204,2236 2208,2235 2214,2234 2225,2230 2234,2228 2240,2228 2243,2228 2249,2228 2254,2228 2258,2227 2267,2225 2271,2225 2276,2224 2282,2225 " class="polyStyle" id="360103" style="fill:#fbe6ef"/>
<polygon points="2482,2005 2486,2007 2476,2024 2468,2034 2468,2037 2469,2040 2469,2051 2474,2066 2478,2076 2480,2084 2481,2091 2473,2095 2462,2101 2458,2104 2450,2106 2444,2111 2444,2124 2439,2134 2437,2142 2440,2144 2449,2144 2459,2136 2463,2133 2467,2136 2463,2148 2462,2156 2458,2159 2449,2164 2448,2167 2445,2170 2443,2175 2441,2181 2441,2185 2444,2209 2446,2225 2447,2230 2447,2233 2438,2233 2414,2233 2406,2233 2401,2233 2391,2233 2386,2233 2378,2233 2361,2233 2337,2234 2337,2242 2334,2242 2329,2242 2326,2243 2326,2226 2322,2226 2309,2226 2300,2229 2297,2228 2294,2227 2289,2226 2282,2225 2276,2224 2271,2225 2267,2225 2258,2227 2254,2228 2249,2228 2243,2228 2240,2228 2234,2228 2225,2230 2214,2234 2208,2235 2204,2236 2199,2237 2195,2239 2190,2242 2183,2243 2175,2238 2171,2237 2167,2237 2164,2238 2164,2234 2163,2230 2147,2223 2115,2216 2109,2214 2081,2209 2064,2204 2065,2201 2070,2190 2081,2163 2087,2152 2093,2146 2108,2137 2126,2131 2133,2126 2153,2111 2178,2127 2183,2130 2188,2134 2198,2141 2225,2116 2244,2100 2253,2093 2258,2091 2288,2082 2299,2078 2310,2073 2322,2068 2335,2060 2374,2037 2405,2017 2423,2009 2436,2004 2448,2001 2459,2000 2471,2000 2477,2003 " class="polyStyle" id="360102" style="fill:#d4ecb2"/>
<polygon points="2300,1602 2330,1625 2357,1638 2361,1647 2362,1663 2361,1680 2363,1695 2371,1722 2385,1745 2403,1762 2422,1762 2460,1752 2485,1745 2516,1742 2550,1737 2578,1734 2605,1718 2615,1693 2611,1667 2602,1645 2649,1654 2675,1670 2705,1672 2722,1702 2699,1734 2675,1757 2640,1789 2611,1815 2577,1827 2547,1842 2524,1860 2503,1882 2488,1901 2477,1921 2474,1934 2489,1939 2501,1934 2516,1927 2536,1932 2558,1946 2588,1937 2625,1929 2658,1929 2686,1938 2736,1957 2768,1968 2792,1972 2822,1976 2842,1976 2855,1984 2857,2014 2861,2041 2841,2072 2815,2095 2789,2122 2763,2131 2754,2161 2746,2187 2728,2215 2738,2247 2717,2273 2747,2285 2776,2280 2804,2283 2834,2305 2857,2334 2879,2361 2913,2379 2922,2393 2933,2397 2954,2397 2987,2391 3008,2393 3022,2399 3049,2426 3074,2459 3084,2479 3071,2504 3048,2546 3019,2583 2978,2609 2939,2641 2907,2666 2876,2681 2836,2679 2794,2667 2769,2663 2743,2658 2706,2656 2674,2652 2657,2639 2624,2633 2576,2631 2546,2627 2516,2621 2506,2624 2504,2622 2501,2616 2497,2611 2496,2606 2497,2602 2500,2598 2504,2596 2508,2595 2512,2595 2517,2594 2524,2591 2530,2586 2534,2582 2538,2577 2541,2573 2542,2569 2543,2565 2542,2562 2540,2558 2535,2554 2532,2551 2532,2545 2543,2543 2557,2543 2571,2541 2583,2538 2585,2534 2586,2530 2586,2527 2586,2523 2587,2519 2587,2511 2586,2498 2587,2485 2587,2476 2588,2469 2588,2462 2589,2440 2588,2433 2586,2428 2584,2426 2580,2423 2578,2420 2578,2418 2579,2415 2579,2411 2578,2408 2574,2404 2571,2399 2569,2394 2566,2384 2564,2376 2562,2369 2560,2365 2556,2364 2544,2359 2533,2354 2526,2350 2508,2342 2503,2340 2496,2337 2490,2335 2474,2332 2464,2330 2454,2328 2447,2329 2436,2330 2418,2329 2404,2328 2406,2305 2405,2292 2405,2280 2406,2271 2406,2254 2406,2233 2414,2233 2438,2233 2447,2233 2447,2230 2446,2225 2444,2209 2441,2185 2441,2181 2443,2175 2445,2170 2448,2167 2449,2164 2458,2159 2462,2156 2463,2148 2467,2136 2463,2133 2459,2136 2449,2144 2440,2144 2437,2142 2439,2134 2444,2124 2444,2111 2450,2106 2458,2104 2462,2101 2473,2095 2481,2091 2480,2084 2478,2076 2474,2066 2469,2051 2469,2040 2468,2037 2468,2034 2476,2024 2486,2007 2482,2005 2477,2003 2471,2000 2459,2000 2448,2001 2436,2004 2423,2009 2405,2017 2374,2037 2335,2060 2322,2068 2310,2073 2299,2078 2288,2082 2258,2091 2253,2093 2244,2100 2225,2116 2198,2141 2188,2134 2183,2130 2178,2127 2153,2111 2133,2126 2130,2123 2119,2122 2111,2119 2100,2119 2087,2122 2063,2132 2048,2139 2023,2151 2017,2154 2012,2155 2007,2152 2003,2148 2003,2145 2004,2142 2006,2136 2008,2132 2014,2122 2012,2119 2009,2116 2004,2115 1996,2112 1986,2110 1977,2110 1969,2112 1958,2112 1947,2109 1896,2081 1878,2073 1863,2065 1845,2058 1820,2045 1799,2020 1772,1998 1749,1973 1744,1952 1742,1919 1752,1890 1761,1875 1766,1863 1766,1853 1764,1849 1796,1839 1816,1837 1855,1842 1873,1842 1897,1831 1906,1822 1909,1816 1908,1808 1903,1796 1883,1773 1871,1761 1863,1749 1861,1737 1863,1728 1876,1706 1893,1682 1900,1669 1904,1656 1906,1646 1904,1634 1901,1624 1901,1613 1905,1603 1911,1597 1922,1591 1954,1583 1956,1591 1971,1595 2010,1613 2040,1617 2087,1612 2113,1614 2123,1632 2136,1653 2160,1650 2176,1635 2180,1608 2186,1582 2203,1565 2225,1560 2246,1570 " class="polyStyle" id="360111" style="fill:#ee8b94"/>
<polygon points="1914,1095 1910,1126 1902,1152 1905,1186 1894,1219 1898,1245 1908,1271 1909,1297 1883,1326 1865,1357 1837,1361 1820,1387 1819,1419 1812,1448 1805,1473 1792,1498 1789,1525 1819,1529 1837,1498 1862,1484 1861,1511 1861,1540 1892,1545 1919,1532 1940,1504 1968,1508 1978,1539 1982,1566 1954,1583 1922,1591 1911,1597 1905,1603 1901,1613 1901,1624 1904,1634 1906,1646 1904,1656 1900,1669 1893,1682 1876,1706 1863,1728 1861,1737 1863,1749 1871,1761 1883,1773 1903,1796 1908,1808 1909,1816 1906,1822 1897,1831 1873,1842 1855,1842 1816,1837 1796,1839 1764,1849 1759,1834 1741,1817 1716,1795 1694,1782 1674,1779 1657,1784 1632,1797 1611,1807 1590,1819 1574,1835 1570,1847 1575,1860 1583,1897 1590,1930 1618,1957 1644,1978 1669,2006 1680,2033 1698,2061 1669,2083 1645,2111 1616,2131 1616,2161 1621,2187 1617,2213 1600,2243 1573,2265 1544,2272 1513,2276 1498,2243 1464,2228 1434,2206 1406,2225 1381,2227 1360,2196 1354,2163 1360,2137 1358,2111 1340,2080 1308,2070 1276,2092 1242,2108 1216,2103 1184,2111 1153,2105 1122,2077 1097,2080 1088,2112 1070,2144 1097,2168 1105,2201 1075,2199 1050,2177 1023,2166 996,2170 991,2136 991,2111 1002,2089 1031,2068 1048,2036 1051,1996 1052,1959 1017,1925 1003,1910 1000,1883 999,1851 996,1825 1013,1795 1031,1765 1050,1733 1071,1704 1087,1672 1089,1647 1093,1622 1098,1589 1106,1563 1109,1544 1119,1533 1145,1540 1152,1545 1152,1560 1141,1574 1125,1618 1121,1635 1125,1645 1135,1648 1141,1640 1146,1628 1155,1615 1159,1603 1172,1593 1181,1585 1205,1554 1234,1531 1260,1500 1266,1494 1276,1494 1297,1499 1319,1504 1332,1495 1332,1473 1324,1445 1315,1424 1322,1407 1335,1398 1348,1402 1373,1420 1401,1427 1404,1431 1426,1438 1434,1446 1432,1458 1433,1477 1444,1483 1454,1478 1471,1473 1496,1474 1517,1471 1533,1466 1534,1454 1534,1431 1539,1412 1542,1398 1538,1382 1541,1371 1554,1359 1576,1338 1591,1333 1605,1330 1620,1325 1625,1319 1615,1308 1585,1275 1579,1254 1584,1234 1597,1220 1616,1200 1620,1177 1619,1152 1618,1141 1629,1141 1660,1115 1692,1106 1725,1112 1755,1103 1787,1107 1818,1100 1845,1074 1874,1062 1881,1059 1886,1085 " class="polyStyle" id="360105" style="fill:#fbe6ef"/>
<path d="" class="polyStyle" id="500107" style="fill:#fbe6ef"/>
<path d="" class="polyStyle" id="430611" style="fill:#d4ecb2"/>
<path d="" class="polyStyle" id="511304" style="fill:#fbe6ef"/>
<path d="" class="polyStyle" id="340711" style="fill:#ee8b94"/>
<path d="" class="polyStyle" id="320118" style="fill:#f6f67b"/>
<path d="" class="polyStyle" id="510704" style="fill:#f6f67b"/>
<path d="" class="polyStyle" id="411502" style="fill:#ee8b94"/>
<path d="" class="polyStyle" id="320302" style="fill:#d4ecb2"/>
<path d="" class="polyStyle" id="140311" style="fill:#ee8b94"/>
<path d="" class="polyStyle" id="610802" style="fill:#ee8b94"/>
<path d="" class="polyStyle" id="120116" style="fill:#f6f67b"/>
<path d="" class="polyStyle" id="130303" style="fill:#fbe6ef"/>
<path d="" class="polyStyle" id="140211" style="fill:#f6f67b"/>
<path d="" class="polyStyle" id="150207" style="fill:#fbe6ef"/>
<path d="" class="polyStyle" id="211403" style="fill:#f6f67b"/>
<path d="" class="polyStyle" id="150802" style="fill:#f8c67d"/>
<path d="" class="polyStyle" id="210112" style="fill:#ee8b94"/>
<path d="" class="polyStyle" id="230406" style="fill:#d4ecb2"/>
<path d="" class="polyStyle" id="110113" style="fill:#fbe6ef"/>
<path d="" class="polyStyle" id="341702" style="fill:#fbe6ef"/>
<path d="" class="polyStyle" id="420303" style="fill:#ee8b94"/>
<path d="" class="polyStyle" id="340702" style="fill:#d4ecb2"/>
<path d="" class="polyStyle" id="421002" style="fill:#f6f67b"/>
<path d="" class="polyStyle" id="420117" style="fill:#f6f67b"/>
<path d="" class="polyStyle" id="440904" style="fill:#f8c67d"/>
<path d="" class="polyStyle" id="460205" style="fill:#ee8b94"/>
<path d="" class="polyStyle" id="460202" style="fill:#f6f67b"/>
<path d="" class="polyStyle" id="460203" style="fill:#fbe6ef"/>
<path d="" class="polyStyle" id="420304" style="fill:#f6f67b"/>
<path d="" class="polyStyle" id="445302" style="fill:#ee8b94"/>
<path d="" class="polyStyle" id="410202" style="fill:#d4ecb2"/>
<path d="" class="polyStyle" id="440800" style="fill:#f6f67b"/>
<path d="" class="polyStyle" id="440900" style="fill:#ee8b94"/>
<path d="" class="polyStyle" id="340800" style="fill:#ee8b94"/>
<path d="" class="polyStyle" id="460200" style="fill:#f6f67b"/>
<path d="" class="polyStyle" id="460000" style="fill:#ee8b94"/>
<path d="" class="polyStyle" id="450500" style="fill:#ee8b94"/>
<path d="" class="polyStyle" id="450600" style="fill:#ee8b94"/>
<path d="" class="polyStyle" id="440400" style="fill:#f6f67b"/>
<path d="" class="polyStyle" id="441700" style="fill:#f6f67b"/>
<path d="" class="polyStyle" id="441500" style="fill:#f6f67b"/>
<path d="" class="polyStyle" id="350600" style="fill:#ee8b94"/>
<path d="" class="polyStyle" id="710000" style="fill:#f6f67b"/>
<path d="" class="polyStyle" id="510400" style="fill:#f6f67b"/>
<path d="" class="polyStyle" id="522600" style="fill:#fbe6ef"/>
<path d="" class="polyStyle" id="520500" style="fill:#ee8b94"/>
<path d="" class="polyStyle" id="431200" style="fill:#f6f67b"/>
<path d="" class="polyStyle" id="430600" style="fill:#f6f67b"/>
<path d="" class="polyStyle" id="511400" style="fill:#d4ecb2"/>
<path d="" class="polyStyle" id="421000" style="fill:#ee8b94"/>
<path d="" class="polyStyle" id="341700" style="fill:#f6f67b"/>
<path d="" class="polyStyle" id="420500" style="fill:#f6f67b"/>
<path d="" class="polyStyle" id="511300" style="fill:#f6f67b"/>
<path d="" class="polyStyle" id="420900" style="fill:#f6f67b"/>
<path d="" class="polyStyle" id="511700" style="fill:#ee8b94"/>
<path d="" class="polyStyle" id="420600" style="fill:#d4ecb2"/>
<path d="" class="polyStyle" id="411500" style="fill:#fbe6ef"/>
<path d="" class="polyStyle" id="510800" style="fill:#ee8b94"/>
<path d="" class="polyStyle" id="420300" style="fill:#fbe6ef"/>
<path d="" class="polyStyle" id="611000" style="fill:#ee8b94"/>
<path d="" class="polyStyle" id="620800" style="fill:#fbe6ef"/>
<path d="" class="polyStyle" id="370200" style="fill:#ee8b94"/>
<path d="" class="polyStyle" id="371000" style="fill:#f6f67b"/>
<path d="" class="polyStyle" id="370600" style="fill:#fbe6ef"/>
<path d="" class="polyStyle" id="120000" style="fill:#f6f67b"/>
<path d="" class="polyStyle" id="130200" style="fill:#ee8b94"/>
<path d="" class="polyStyle" id="130300" style="fill:#f6f67b"/>
<path d="" class="polyStyle" id="652900" style="fill:#fbe6ef"/>
<path d="" class="polyStyle" id="150500" style="fill:#d4ecb2"/>
<path d="" class="polyStyle" id="" style="fill:#d4ecb2"/>
<path d="" class="polyStyle" id="350500" style="fill:#fbe6ef"/>
<path d="" class="polyStyle" id="440400" style="fill:#f6f67b"/>
<path d="" class="polyStyle" id="421100" style="fill:#d4ecb2"/>
<path d="" class="polyStyle" id="420100" style="fill:#fbe6ef"/>
<path d="" class="polyStyle" id="532500" style="fill:#fbe6ef"/>
<path d="" class="polyStyle" id="654200" style="fill:#fbe6ef"/>
<path d="" class="polyStyle" id="210700" style="fill:#d4ecb2"/>
<path d="" class="polyStyle" id="522300" style="fill:#fbe6ef"/>
<path d="" class="polyStyle" id="" style="fill:#ee8b94"/>
<path d="" class="polyStyle" id="440400" style="fill:#f6f67b"/>
<path d="" class="polyStyle" id="620000" style="fill:#f6f67b"/>
<path d="" class="polyStyle" id="430000" style="fill:#fbe6ef"/>
<path d="" class="polyStyle" id="420000" style="fill:#ee8b94"/>
<path d="" class="polyStyle" id="410000" style="fill:#f6f67b"/>
<path d="" class="polyStyle" id="350000" style="fill:#fbe6ef"/>
<path d="" class="polyStyle" id="520000" style="fill:#f6f67b"/>
<path d="" class="polyStyle" id="" style="fill:#ee8b94"/>
</svg>
