<?xml version="1.0" encoding="UTF-8"?>
<!DOCTYPE svg PUBLIC "-//W3C//DTD SVG 1.1 Tiny//EN" "http://www.w3.org/Graphics/SVG/1.1/DTD/svg11-tiny.dtd">
<svg version="1.1" xmlns="http://www.w3.org/2000/svg" xmlns:xlink="http://www.w3.org/1999/xlink" width="100%" height="100%" viewBox="0,0,14796,6953">
<title>SVG</title>
<desc>Poligon Test</desc>
<style id="style_css_sheet" type="text/css">
.polyStyle{fill: #cccccc;stroke-width:0;fill-rule:evenodd;}
</style>
<circle cx="8689" cy="2011" r="200" stroke="black" stroke-width="1" fill="red" id="360481"position="441" name="瑞昌市"/>
<circle cx="9366" cy="4135" r="200" stroke="black" stroke-width="1" fill="red" id="360482" name="共青城市"/>
<circle cx="9332" cy="5256" r="200" stroke="black" stroke-width="1" fill="red" id="360425" name="永修县"/>
<circle cx="11242" cy="4065" r="200" stroke="black" stroke-width="1" fill="red" id="360428" name="都昌县"/>
<circle cx="9098" cy="3738" r="200" stroke="black" stroke-width="1" fill="red" id="360426" name="德安县"/>
<circle cx="10498" cy="3117" r="200" stroke="black" stroke-width="1" fill="red" id="360483" position="4"name="庐山市"/>
<circle cx="9823" cy="2344" r="200" stroke="black" stroke-width="1" fill="red" id="360404"position="4414" name="柴桑区"/>
<circle cx="11395" cy="1673" r="200" stroke="black" stroke-width="1" fill="red" id="360429" name="湖口县"/>
<circle cx="13024" cy="897" r="200" stroke="black" stroke-width="1" fill="red" id="360430" name="彭泽县"/>
<circle cx="2999" cy="5243" r="200" stroke="black" stroke-width="1" fill="red" id="360424" name="修水县"/>
<circle cx="5787" cy="4082" r="200" stroke="black" stroke-width="1" fill="red" id="360423" name="武宁县"/>
<circle cx="10243" cy="1771" r="200" stroke="black" stroke-width="1" fill="red" id="360403"position="1" name="浔阳区"/>
<circle cx="10240" cy="1989" r="200" stroke="black" stroke-width="1" fill="red" id="360402" name="濂溪区"/>
<path d="" class="polyStyle" id="" style="fill:#ee8b94"/>
<path d="" class="polyStyle" id="623022" style="fill:#fbe6ef"/>
<path d="" class="polyStyle" id="211421" style="fill:#f6f67b"/>
<path d="" class="polyStyle" id="532524" style="fill:#ee8b94"/>
<path d="" class="polyStyle" id="440825" style="fill:#f6f67b"/>
<path d="" class="polyStyle" id="441721" style="fill:#f6f67b"/>
<path d="" class="polyStyle" id="450521" style="fill:#f6f67b"/>
<path d="" class="polyStyle" id="450123" style="fill:#fbe6ef"/>
<path d="" class="polyStyle" id="350624" style="fill:#f6f67b"/>
<path d="" class="polyStyle" id="" style="fill:#fbe6ef"/>
<path d="" class="polyStyle" id="451224" style="fill:#fbe6ef"/>
<path d="" class="polyStyle" id="350627" style="fill:#f6f67b"/>
<path d="" class="polyStyle" id="" style="fill:#f6f67b"/>
<path d="" class="polyStyle" id="350525" style="fill:#f6f67b"/>
<path d="" class="polyStyle" id="530124" style="fill:#ee8b94"/>
<path d="" class="polyStyle" id="522627" style="fill:#ee8b94"/>
<path d="" class="polyStyle" id="510421" style="fill:#fbe6ef"/>
<path d="" class="polyStyle" id="522623" style="fill:#d4ecb2"/>
<path d="" class="polyStyle" id="430321" style="fill:#d4ecb2"/>
<path d="" class="polyStyle" id="511129" style="fill:#d4ecb2"/>
<polygon points="7288,3643 7317,3644 7353,3642 7383,3652 7416,3659 7445,3658 7472,3659 7504,3684 7535,3698 7566,3720 7564,3747 7558,3773 7591,3773 7631,3744 7669,3749 7705,3770 7736,3791 7765,3798 7808,3820 7842,3823 7872,3815 7909,3814 7937,3828 7963,3829 7989,3839 8025,3843 8058,3849 8086,3842 8112,3845 8144,3827 8173,3829 8214,3835 8240,3839 8267,3829 8295,3819 8321,3828 8350,3835 8377,3812 8412,3807 8445,3804 8471,3816 8498,3839 8508,3865 8514,3898 8546,3905 8574,3919 8601,3933 8627,3924 8665,3921 8692,3935 8721,3943 8725,3976 8734,4008 8748,4038 8779,4049 8806,4050 8833,4048 8858,4038 8856,4010 8906,4024 8910,4026 8875,4068 8862,4097 8860,4110 8864,4127 8884,4153 8916,4167 8957,4193 8999,4224 9019,4251 9020,4264 9011,4295 9022,4318 9027,4342 9031,4366 9038,4374 9078,4383 9099,4403 9113,4425 9120,4473 9125,4483 9136,4489 9164,4498 9185,4503 9227,4548 9237,4560 9245,4579 9289,4611 9323,4632 9354,4640 9377,4638 9413,4623 9429,4613 9429,4573 9429,4534 9435,4525 9446,4528 9466,4544 9484,4542 9492,4529 9489,4493 9486,4465 9489,4441 9499,4433 9510,4436 9517,4462 9520,4486 9526,4509 9537,4522 9555,4527 9574,4535 9575,4549 9583,4569 9607,4583 9645,4596 9653,4596 9660,4626 9690,4639 9715,4640 9727,4627 9743,4622 9768,4626 9817,4626 9853,4629 9880,4608 9896,4590 9905,4551 9927,4512 9960,4488 9983,4485 9993,4503 9993,4526 9977,4547 9976,4568 9985,4575 10011,4598 10042,4569 10079,4533 10099,4499 10128,4471 10179,4461 10205,4464 10237,4483 10270,4490 10300,4479 10332,4456 10360,4434 10381,4407 10407,4401 10441,4403 10459,4370 10446,4342 10427,4316 10415,4280 10405,4254 10409,4227 10383,4213 10344,4207 10307,4179 10277,4151 10260,4123 10244,4085 10246,4051 10268,4015 10320,3987 10366,3963 10393,3948 10437,3915 10470,3889 10497,3869 10510,3863 10521,3889 10534,3921 10533,3950 10544,3981 10573,4014 10600,4040 10622,4071 10663,4116 10705,4148 10732,4160 10778,4172 10832,4180 10888,4191 10947,4204 10988,4212 11014,4215 11041,4219 11074,4231 11106,4238 11175,4231 11220,4228 11248,4226 11293,4225 11329,4229 11358,4233 11393,4237 11430,4256 11464,4274 11496,4331 11511,4419 11536,4529 11531,4564 11441,4649 11323,4736 11241,4764 11122,4813 11131,4806 11123,4791 11078,4784 11011,4781 10951,4776 10898,4781 10848,4794 10791,4789 10756,4806 10708,4811 10653,4801 10621,4795 10590,4803 10562,4833 10523,4863 10488,4874 10451,4897 10415,4919 10408,4923 10383,4930 10361,4918 10337,4897 10316,4878 10293,4869 10276,4875 10255,4890 10235,4923 10222,4937 10201,4937 10191,4915 10173,4893 10141,4889 10096,4893 10066,4903 10035,4915 9991,4922 9951,4919 9925,4930 9871,4987 9858,5014 9868,5037 9892,5072 9887,5095 9872,5142 9858,5155 9845,5185 9825,5210 9799,5212 9772,5237 9740,5261 9736,5299 9726,5331 9691,5334 9695,5365 9698,5395 9695,5401 9672,5431 9648,5463 9622,5455 9603,5480 9587,5506 9570,5536 9539,5531 9511,5532 9483,5522 9454,5543 9423,5534 9392,5516 9370,5487 9366,5516 9373,5543 9389,5573 9396,5603 9404,5634 9410,5665 9407,5694 9385,5721 9356,5747 9356,5776 9361,5803 9352,5835 9345,5838 9316,5850 9289,5876 9258,5883 9226,5879 9196,5888 9163,5882 9131,5891 9100,5917 9089,5917 9085,5917 9057,5891 9054,5863 9041,5837 9014,5811 8986,5791 8976,5764 8970,5737 8942,5726 8910,5737 8910,5766 8896,5791 8865,5796 8837,5782 8807,5773 8775,5772 8746,5763 8719,5760 8688,5760 8656,5749 8640,5723 8644,5696 8672,5679 8697,5655 8669,5643 8636,5648 8606,5637 8574,5630 8547,5631 8516,5630 8483,5632 8458,5632 8425,5629 8402,5602 8378,5572 8352,5567 8321,5572 8292,5566 8279,5539 8253,5525 8225,5535 8195,5527 8170,5524 8138,5524 8107,5516 8079,5503 8050,5478 8022,5450 8000,5421 7991,5394 7984,5373 7952,5342 7919,5324 7888,5311 7861,5310 7833,5303 7808,5306 7789,5309 7761,5335 7736,5339 7711,5330 7684,5333 7656,5349 7643,5334 7628,5308 7635,5282 7616,5254 7590,5247 7564,5234 7537,5231 7507,5216 7486,5187 7469,5159 7485,5133 7514,5105 7506,5077 7478,5066 7451,5059 7424,5052 7426,5048 7410,5009 7423,4979 7424,4952 7448,4924 7466,4899 7498,4886 7511,4831 7525,4793 7520,4766 7489,4760 7455,4750 7457,4724 7467,4697 7463,4671 7456,4642 7435,4615 7405,4581 7399,4553 7416,4520 7410,4490 7388,4440 7367,4409 7356,4379 7340,4325 7333,4295 7350,4264 7355,4238 7355,4209 7345,4182 7323,4128 7318,4097 7307,4072 7288,4032 7288,4005 7268,3974 7270,3947 7290,3909 7288,3880 7279,3854 7261,3784 7289,3757 7258,3745 7226,3732 7219,3705 7201,3676 7202,3641 7207,3612 7242,3638 " class="polyStyle" id="360425" style="fill:#d4ecb2"/>
<polygon points="1862,3569 1864,3570 1874,3573 1882,3579 1888,3583 1892,3585 1896,3585 1902,3589 1908,3601 1910,3617 1918,3629 1928,3643 1934,3653 1938,3667 1942,3679 1946,3685 1950,3711 1954,3717 1966,3719 1978,3723 1982,3727 1984,3737 1986,3743 2002,3749 2022,3757 2026,3769 2032,3773 2042,3773 2056,3767 2082,3753 2098,3755 2114,3763 2134,3773 2150,3773 2162,3761 2178,3751 2188,3743 2206,3727 2216,3717 2224,3711 2246,3707 2258,3703 2278,3689 2282,3689 2290,3697 2318,3697 2332,3693 2340,3691 2344,3693 2350,3701 2356,3709 2378,3707 2398,3699 2424,3691 2444,3685 2468,3675 2478,3667 2482,3651 2484,3645 2486,3641 2488,3637 2494,3631 2500,3631 2506,3631 2514,3643 2530,3655 2528,3663 2502,3671 2494,3677 2496,3685 2508,3691 2520,3697 2532,3705 2552,3699 2559,3699 2558,3713 2556,3729 2558,3741 2568,3755 2580,3761 2590,3771 2596,3771 2606,3771 2622,3761 2646,3749 2674,3733 2686,3731 2700,3739 2710,3747 2734,3749 2744,3745 2750,3737 2758,3731 2768,3733 2774,3731 2784,3755 2786,3759 2794,3765 2804,3765 2820,3761 2836,3761 2844,3761 2852,3761 2866,3755 2875,3753 2870,3774 2870,3803 2876,3829 2885,3858 2892,3884 2893,3910 2919,3911 2946,3919 2962,3946 2976,3972 2990,4001 2993,4029 2965,4046 2938,4059 2911,4070 2896,4097 2880,4124 2855,4144 2828,4158 2798,4172 2771,4183 2745,4196 2717,4210 2704,4237 2701,4264 2686,4289 2669,4316 2698,4320 2718,4348 2744,4368 2770,4387 2800,4402 2828,4416 2857,4424 2883,4428 2909,4440 2923,4468 2939,4494 2966,4483 2996,4464 3025,4453 3054,4452 3082,4461 3111,4473 3136,4476 3162,4476 3189,4471 3217,4467 3240,4492 3268,4501 3295,4494 3317,4468 3331,4443 3357,4420 3383,4411 3408,4408 3434,4403 3459,4402 3486,4397 3513,4395 3543,4379 3571,4381 3599,4396 3627,4403 3653,4396 3680,4396 3696,4401 3725,4404 3751,4412 3781,4415 3810,4424 3837,4434 3866,4444 3895,4453 3922,4461 3948,4478 3972,4504 4000,4514 4029,4523 4056,4536 4083,4559 4110,4560 4136,4558 4166,4549 4195,4566 4205,4593 4210,4618 4215,4645 4216,4670 4210,4697 4208,4724 4208,4750 4205,4777 4203,4804 4229,4802 4256,4796 4275,4768 4278,4743 4304,4729 4332,4738 4352,4766 4363,4793 4376,4821 4398,4847 4413,4873 4399,4899 4393,4926 4390,4952 4402,4980 4427,4993 4436,5019 4431,5046 4428,5072 4433,5099 4444,5125 4463,5152 4457,5177 4466,5203 4482,5231 4470,5257 4444,5282 4432,5310 4423,5336 4412,5363 4397,5393 4396,5425 4407,5464 4438,5480 4467,5508 4482,5550 4493,5578 4521,5606 4536,5635 4565,5662 4596,5672 4630,5693 4642,5728 4662,5759 4695,5783 4721,5785 4747,5789 4775,5782 4802,5804 4830,5795 4864,5795 4902,5820 4911,5852 4941,5887 4957,5915 4967,5947 4980,5974 5005,6012 4974,6024 4947,6036 4910,6036 4876,6047 4862,6074 4827,6108 4828,6135 4833,6163 4824,6193 4822,6221 4823,6255 4838,6282 4846,6295 4861,6323 4872,6352 4855,6388 4817,6425 4784,6454 4765,6490 4761,6521 4742,6547 4719,6573 4693,6604 4661,6616 4635,6616 4609,6601 4577,6613 4559,6644 4534,6653 4504,6662 4471,6664 4449,6636 4422,6607 4410,6573 4378,6541 4348,6528 4316,6566 4289,6592 4262,6602 4278,6643 4294,6682 4300,6716 4283,6744 4256,6756 4222,6764 4195,6783 4168,6804 4128,6818 4100,6808 4070,6841 4039,6864 4000,6879 3986,6889 3973,6930 3964,6943 3932,6943 3895,6936 3869,6923 3836,6943 3808,6953 3774,6945 3733,6934 3692,6926 3653,6922 3627,6927 3595,6943 3554,6940 3521,6948 3489,6917 3453,6917 3422,6905 3388,6895 3365,6860 3354,6824 3322,6811 3274,6781 3246,6764 3221,6739 3196,6705 3190,6680 3193,6653 3185,6609 3179,6568 3154,6540 3125,6521 3112,6547 3085,6554 3051,6540 3020,6543 2997,6577 2961,6586 2933,6578 2902,6587 2868,6607 2840,6592 2804,6600 2772,6610 2746,6607 2713,6605 2681,6635 2649,6691 2607,6725 2577,6744 2585,6775 2589,6810 2608,6846 2616,6878 2579,6888 2554,6876 2519,6857 2488,6846 2458,6827 2412,6802 2376,6808 2344,6842 2313,6851 2281,6854 2243,6858 2217,6853 2174,6824 2138,6812 2114,6852 2068,6866 2026,6859 1998,6842 1984,6814 1957,6802 1931,6784 1904,6766 1870,6752 1843,6724 1833,6691 1805,6664 1775,6640 1741,6606 1702,6589 1671,6582 1641,6553 1626,6523 1622,6474 1613,6440 1591,6404 1580,6367 1565,6341 1522,6332 1495,6353 1462,6373 1431,6373 1404,6336 1398,6303 1401,6270 1370,6236 1341,6232 1331,6261 1300,6277 1276,6319 1258,6348 1233,6361 1191,6383 1160,6403 1131,6424 1103,6441 1092,6467 1099,6493 1068,6507 1048,6523 1021,6513 981,6499 973,6487 967,6481 967,6477 971,6455 985,6429 1009,6401 1023,6383 1035,6347 1051,6293 1037,6281 1045,6231 1045,6219 1043,6213 1041,6207 1033,6199 1029,6199 1009,6217 995,6231 977,6245 963,6249 951,6245 933,6223 917,6203 919,6169 897,6159 891,6161 855,6179 717,6217 689,6217 661,6209 645,6195 635,6179 631,6159 623,6143 593,6151 583,6147 575,6131 579,6115 595,6095 589,6081 585,6071 571,6045 571,6023 593,5979 605,5941 601,5905 585,5887 551,5862 544,5857 541,5854 536,5849 529,5845 524,5844 519,5844 507,5840 502,5841 492,5847 488,5850 476,5861 468,5875 454,5886 443,5896 440,5903 436,5909 432,5919 427,5925 421,5929 416,5931 409,5922 407,5884 397,5838 375,5812 361,5800 353,5796 325,5792 313,5792 305,5794 297,5786 293,5781 293,5772 297,5748 305,5722 307,5714 317,5695 321,5686 323,5674 327,5662 325,5646 323,5626 321,5610 319,5606 314,5604 307,5604 285,5608 237,5626 227,5630 217,5634 211,5640 197,5648 191,5656 153,5698 147,5696 143,5676 137,5668 113,5672 101,5672 97,5662 93,5646 87,5626 83,5592 81,5572 81,5560 75,5534 59,5508 55,5494 57,5468 61,5462 65,5452 73,5434 79,5424 77,5402 67,5386 57,5372 57,5362 61,5352 65,5336 57,5324 29,5316 19,5308 15,5288 7,5254 17,5238 21,5220 25,5202 19,5186 15,5170 11,5164 2,5152 4,5125 0,5111 0,5099 2,5083 8,5075 48,5027 24,5007 24,4997 28,4991 40,4983 42,4963 44,4945 42,4915 44,4895 44,4889 50,4877 56,4873 64,4873 78,4877 86,4881 110,4885 120,4889 126,4885 144,4871 156,4857 168,4837 182,4821 196,4799 200,4791 202,4773 204,4765 202,4759 202,4751 208,4745 216,4743 236,4739 272,4735 302,4713 302,4695 308,4687 318,4679 334,4671 348,4665 378,4661 400,4649 406,4627 414,4623 434,4599 448,4583 458,4571 482,4567 484,4557 482,4549 476,4537 476,4527 478,4523 486,4517 508,4513 528,4509 548,4493 554,4491 562,4487 564,4479 566,4465 570,4449 578,4439 584,4427 600,4407 624,4385 650,4369 638,4351 640,4347 644,4345 662,4339 706,4333 756,4315 776,4317 790,4327 846,4309 862,4321 896,4325 904,4317 914,4303 922,4299 934,4301 948,4309 960,4313 970,4319 982,4323 988,4327 998,4325 1022,4313 1050,4315 1070,4299 1086,4295 1108,4293 1126,4295 1138,4297 1150,4303 1168,4315 1178,4309 1198,4291 1218,4279 1244,4257 1252,4253 1302,4259 1318,4251 1336,4243 1352,4235 1362,4231 1362,4225 1354,4215 1354,4211 1362,4205 1380,4203 1398,4201 1416,4197 1434,4193 1444,4191 1448,4205 1454,4211 1458,4215 1468,4221 1480,4229 1484,4231 1496,4229 1508,4225 1516,4213 1518,4209 1524,4207 1540,4209 1554,4203 1556,4189 1556,4171 1554,4145 1552,4131 1538,4107 1520,4083 1516,4073 1518,4065 1514,4049 1512,4039 1518,4037 1542,4039 1556,4027 1560,4017 1558,4001 1544,3989 1552,3967 1556,3959 1568,3943 1584,3925 1586,3921 1582,3911 1582,3905 1580,3895 1572,3889 1566,3889 1560,3885 1550,3879 1542,3867 1536,3863 1536,3849 1538,3835 1540,3831 1542,3819 1546,3817 1558,3809 1564,3793 1574,3787 1584,3785 1588,3783 1592,3775 1586,3767 1582,3761 1580,3749 1578,3731 1578,3707 1576,3693 1572,3679 1566,3669 1566,3665 1570,3659 1592,3645 1608,3635 1618,3631 1630,3619 1644,3605 1652,3603 1676,3623 1680,3623 1686,3617 1700,3605 1716,3595 1728,3593 1742,3587 1762,3583 1776,3575 1812,3553 1822,3549 1830,3549 1840,3553 " class="polyStyle" id="360424" style="fill:#ee8b94"/>
<polygon points="8789,2684 8834,2682 8863,2689 8880,2714 8885,2744 8878,2782 8872,2800 8866,2816 8881,2841 8908,2875 8938,2862 8964,2856 9002,2857 9018,2886 9040,2916 9068,2937 9097,2946 9104,2974 9130,3001 9137,3029 9148,3057 9170,3086 9138,3100 9166,3133 9189,3159 9223,3169 9254,3189 9270,3222 9260,3240 9260,3253 9259,3282 9264,3316 9277,3343 9265,3372 9288,3406 9309,3433 9344,3464 9376,3478 9382,3505 9374,3534 9340,3554 9354,3591 9348,3620 9347,3656 9350,3707 9357,3751 9349,3792 9354,3796 9316,3839 9292,3862 9257,3886 9226,3916 9210,3921 9199,3923 9180,3916 9169,3919 9147,3932 9134,3935 9123,3931 9089,3902 9070,3901 9038,3910 8995,3910 8960,3915 8952,3926 8952,3962 8949,3989 8935,4007 8910,4026 8906,4024 8856,4010 8858,4038 8833,4048 8806,4050 8779,4049 8748,4038 8734,4008 8725,3976 8721,3943 8692,3935 8665,3921 8627,3924 8601,3933 8574,3919 8546,3905 8514,3898 8508,3865 8498,3839 8471,3816 8445,3804 8412,3807 8377,3812 8350,3835 8321,3828 8295,3819 8267,3829 8240,3839 8214,3835 8173,3829 8144,3827 8112,3845 8086,3842 8058,3849 8025,3843 7989,3839 7963,3829 7937,3828 7909,3814 7872,3815 7842,3823 7808,3820 7765,3798 7736,3791 7705,3770 7669,3749 7631,3744 7591,3773 7558,3773 7564,3747 7566,3720 7535,3698 7504,3684 7472,3659 7445,3658 7416,3659 7383,3652 7353,3642 7317,3644 7288,3643 7242,3638 7207,3612 7215,3604 7241,3591 7270,3573 7262,3543 7236,3535 7222,3501 7204,3471 7194,3443 7196,3419 7202,3389 7204,3345 7192,3315 7191,3288 7212,3261 7238,3229 7258,3190 7268,3158 7299,3142 7332,3153 7359,3162 7394,3168 7425,3183 7456,3189 7461,3160 7452,3100 7478,3083 7507,3044 7534,3027 7569,3020 7584,2991 7598,2956 7621,2913 7650,2886 7696,2863 7722,2865 7749,2859 7778,2857 7808,2864 7850,2857 7898,2836 7928,2824 7959,2811 7971,2844 7999,2858 8023,2891 8054,2920 8085,2917 8113,2898 8099,2867 8092,2834 8102,2807 8095,2781 8132,2766 8158,2762 8183,2758 8212,2748 8212,2777 8250,2779 8280,2764 8319,2753 8351,2753 8392,2735 8429,2718 8472,2709 8511,2712 8548,2714 8578,2693 8615,2685 8659,2675 8697,2673 8725,2673 8758,2680 " class="polyStyle" id="360426" style="fill:#ee8b94"/>
<polygon points="10376,2668 10405,2689 10457,2719 10508,2742 10541,2747 10558,2755 10568,2765 10583,2762 10611,2763 10657,2769 10683,2768 10693,2758 10706,2758 10723,2764 10751,2774 10777,2767 10798,2764 10812,2770 10823,2771 10839,2768 10854,2757 10876,2750 10897,2746 10924,2746 10957,2745 10967,2745 10976,2765 10986,2798 10977,2847 10966,2878 10951,2914 10920,2958 10885,2993 10833,3025 10806,3037 10771,3062 10742,3097 10698,3131 10653,3145 10610,3158 10568,3176 10536,3192 10509,3211 10483,3245 10455,3290 10443,3322 10437,3349 10440,3388 10449,3420 10465,3455 10499,3488 10531,3502 10575,3533 10615,3576 10630,3609 10637,3651 10635,3679 10625,3705 10611,3732 10599,3765 10577,3803 10540,3843 10510,3863 10497,3869 10470,3889 10437,3915 10393,3948 10366,3963 10320,3987 10268,4015 10246,4051 10244,4085 10260,4123 10277,4151 10307,4179 10344,4207 10383,4213 10409,4227 10405,4254 10415,4280 10427,4316 10446,4342 10459,4370 10441,4403 10407,4401 10381,4407 10360,4434 10332,4456 10300,4479 10270,4490 10237,4483 10205,4464 10179,4461 10128,4471 10099,4499 10079,4533 10042,4569 10011,4598 9985,4575 9976,4568 9977,4547 9993,4526 9993,4503 9983,4485 9960,4488 9927,4512 9905,4551 9896,4590 9880,4608 9853,4629 9817,4626 9768,4626 9743,4622 9727,4627 9715,4640 9690,4639 9660,4626 9653,4596 9676,4569 9685,4538 9702,4507 9708,4472 9708,4462 9703,4436 9712,4418 9730,4420 9752,4423 9777,4416 9803,4393 9822,4382 9850,4377 9875,4375 9883,4365 9890,4345 9896,4321 9897,4291 9905,4252 9904,4228 9884,4220 9868,4205 9854,4177 9861,4161 9890,4157 9897,4138 9882,4104 9870,4080 9875,4060 9889,4033 9886,4007 9875,3979 9875,3933 9877,3897 9887,3874 9905,3847 9919,3831 9916,3816 9899,3788 9889,3777 9857,3776 9825,3766 9811,3771 9753,3804 9721,3818 9711,3817 9701,3809 9700,3795 9702,3777 9716,3755 9717,3745 9714,3728 9700,3714 9657,3679 9649,3665 9643,3642 9630,3629 9612,3629 9603,3630 9597,3626 9576,3633 9583,3628 9604,3594 9608,3569 9607,3546 9597,3516 9590,3496 9571,3467 9559,3440 9546,3414 9545,3398 9541,3382 9565,3347 9564,3321 9587,3291 9593,3253 9611,3224 9618,3208 9661,3216 9690,3198 9693,3188 9707,3162 9711,3126 9720,3100 9745,3077 9771,3070 9796,3040 9803,3006 9824,2974 9840,2943 9849,2927 9857,2912 9875,2870 9878,2866 9905,2836 9948,2809 9967,2791 9986,2787 10006,2802 10010,2819 10006,2846 10006,2861 10025,2874 10051,2892 10071,2901 10081,2897 10087,2891 10083,2890 10092,2875 10094,2832 10111,2805 10139,2787 10162,2770 10181,2761 10202,2751 10212,2739 10218,2724 10202,2707 10205,2696 10213,2696 10230,2700 10248,2691 10260,2667 10280,2661 10298,2658 10327,2655 10358,2657 " class="polyStyle" id="360427" style="fill:#f6f67b"/>
<polygon points="5292,2523 5296,2535 5302,2543 5312,2547 5318,2551 5322,2551 5344,2553 5348,2559 5360,2585 5374,2599 5382,2605 5392,2601 5400,2601 5430,2621 5434,2631 5440,2641 5446,2647 5456,2647 5462,2641 5468,2635 5480,2629 5490,2631 5500,2637 5506,2631 5510,2623 5514,2619 5524,2619 5552,2625 5564,2625 5584,2613 5624,2593 5632,2589 5648,2591 5660,2599 5672,2601 5678,2599 5688,2595 5700,2583 5702,2579 5714,2577 5718,2579 5740,2597 5770,2617 5776,2627 5776,2641 5762,2659 5762,2667 5774,2675 5774,2685 5768,2693 5750,2691 5740,2695 5738,2709 5738,2713 5736,2721 5730,2731 5718,2735 5704,2745 5705,2756 5710,2767 5722,2781 5730,2785 5736,2785 5742,2783 5756,2775 5764,2775 5788,2779 5820,2793 5912,2835 5924,2837 5948,2819 5976,2827 6004,2837 6036,2845 6050,2849 6058,2849 6070,2849 6074,2847 6098,2867 6128,2888 6160,2894 6189,2895 6224,2913 6254,2936 6273,2962 6312,2983 6345,2991 6367,2964 6372,2937 6399,2910 6432,2921 6460,2940 6451,2911 6484,2891 6542,2891 6581,2889 6616,2891 6645,2876 6681,2863 6707,2862 6734,2864 6767,2851 6793,2856 6823,2879 6834,2908 6811,2935 6786,2958 6775,2988 6771,3017 6801,3033 6838,3035 6868,3068 6875,3102 6870,3140 6864,3171 6864,3197 6863,3238 6861,3265 6852,3296 6861,3338 6895,3365 6922,3375 6948,3369 6976,3375 7003,3407 7030,3426 7063,3410 7109,3417 7140,3423 7169,3444 7194,3443 7204,3471 7222,3501 7236,3535 7262,3543 7270,3573 7241,3591 7215,3604 7207,3612 7202,3641 7201,3676 7219,3705 7226,3732 7258,3745 7289,3757 7261,3784 7279,3854 7288,3880 7290,3909 7270,3947 7268,3974 7288,4005 7288,4032 7307,4072 7318,4097 7323,4128 7345,4182 7355,4209 7355,4238 7350,4264 7333,4295 7340,4325 7356,4379 7367,4409 7388,4440 7410,4490 7416,4520 7399,4553 7405,4581 7435,4615 7456,4642 7463,4671 7467,4697 7457,4724 7455,4750 7489,4760 7520,4766 7525,4793 7511,4831 7498,4886 7466,4899 7448,4924 7424,4952 7423,4979 7410,5009 7426,5048 7424,5052 7410,5050 7383,5054 7358,5064 7331,5063 7302,5049 7273,5044 7247,5024 7233,4996 7207,4988 7179,4982 7151,4974 7125,4961 7099,4956 7073,4953 7053,4949 7024,4938 6998,4924 6971,4910 6945,4900 6918,4894 6891,4888 6863,4885 6834,4884 6809,4885 6779,4892 6753,4902 6725,4883 6699,4885 6672,4894 6644,4896 6616,4901 6589,4912 6561,4920 6531,4928 6503,4930 6477,4927 6451,4923 6425,4915 6399,4907 6373,4907 6347,4914 6319,4933 6293,4949 6267,4957 6242,4961 6213,4963 6187,4966 6161,4978 6135,4983 6106,4993 6079,4997 6053,4998 6027,5005 5999,5021 5973,5036 5947,5055 5921,5071 5895,5075 5869,5096 5843,5116 5814,5124 5787,5125 5762,5131 5733,5142 5708,5157 5683,5168 5655,5185 5642,5212 5613,5213 5585,5209 5560,5215 5531,5228 5531,5253 5522,5279 5504,5305 5476,5317 5448,5321 5422,5330 5396,5333 5368,5327 5340,5333 5310,5331 5284,5333 5259,5342 5236,5368 5211,5394 5182,5408 5184,5438 5184,5473 5149,5487 5104,5525 5110,5559 5119,5585 5122,5619 5136,5653 5124,5679 5097,5704 5067,5715 5047,5743 5038,5788 5038,5815 5026,5844 5030,5871 5043,5904 5071,5931 5066,5961 5048,5992 5020,6008 5005,6012 4980,5974 4967,5947 4957,5915 4941,5887 4911,5852 4902,5820 4864,5795 4830,5795 4802,5804 4775,5782 4747,5789 4721,5785 4695,5783 4662,5759 4642,5728 4630,5693 4596,5672 4565,5662 4536,5635 4521,5606 4493,5578 4482,5550 4467,5508 4438,5480 4407,5464 4396,5425 4397,5393 4412,5363 4423,5336 4432,5310 4444,5282 4470,5257 4482,5231 4466,5203 4457,5177 4463,5152 4444,5125 4433,5099 4428,5072 4431,5046 4436,5019 4427,4993 4402,4980 4390,4952 4393,4926 4399,4899 4413,4873 4398,4847 4376,4821 4363,4793 4352,4766 4332,4738 4304,4729 4278,4743 4275,4768 4256,4796 4229,4802 4203,4804 4205,4777 4208,4750 4208,4724 4210,4697 4216,4670 4215,4645 4210,4618 4205,4593 4195,4566 4166,4549 4136,4558 4110,4560 4083,4559 4056,4536 4029,4523 4000,4514 3972,4504 3948,4478 3922,4461 3895,4453 3866,4444 3837,4434 3810,4424 3781,4415 3751,4412 3725,4404 3696,4401 3680,4396 3653,4396 3627,4403 3599,4396 3571,4381 3543,4379 3513,4395 3486,4397 3459,4402 3434,4403 3408,4408 3383,4411 3357,4420 3331,4443 3317,4468 3295,4494 3268,4501 3240,4492 3217,4467 3189,4471 3162,4476 3136,4476 3111,4473 3082,4461 3054,4452 3025,4453 2996,4464 2966,4483 2939,4494 2923,4468 2909,4440 2883,4428 2857,4424 2828,4416 2800,4402 2770,4387 2744,4368 2718,4348 2698,4320 2669,4316 2686,4289 2701,4264 2704,4237 2717,4210 2745,4196 2771,4183 2798,4172 2828,4158 2855,4144 2880,4124 2896,4097 2911,4070 2938,4059 2965,4046 2993,4029 2990,4001 2976,3972 2962,3946 2946,3919 2919,3911 2893,3910 2892,3884 2885,3858 2876,3829 2870,3803 2870,3774 2875,3753 2882,3751 2908,3743 2922,3737 2940,3723 2958,3719 2970,3721 2980,3721 2992,3721 3006,3715 3016,3709 3024,3705 3038,3693 3044,3681 3050,3671 3058,3659 3062,3651 3068,3653 3076,3659 3086,3661 3100,3659 3114,3661 3118,3655 3132,3649 3152,3641 3180,3631 3206,3623 3220,3619 3234,3613 3244,3601 3262,3591 3272,3589 3284,3589 3310,3565 3318,3553 3322,3543 3344,3509 3358,3493 3372,3483 3382,3477 3394,3473 3406,3469 3424,3479 3440,3481 3464,3479 3486,3475 3506,3471 3530,3453 3548,3439 3558,3427 3574,3425 3590,3427 3598,3431 3608,3429 3616,3425 3624,3415 3634,3407 3644,3407 3654,3413 3668,3425 3682,3437 3684,3441 3690,3443 3700,3443 3714,3439 3738,3439 3754,3437 3770,3425 3780,3425 3798,3427 3804,3421 3818,3409 3828,3407 3840,3403 3854,3405 3874,3405 3908,3409 3934,3407 3956,3409 3964,3415 3976,3433 3988,3445 4000,3453 3990,3463 3982,3483 3982,3523 3984,3543 3984,3551 3990,3557 4002,3555 4022,3557 4036,3559 4046,3559 4056,3563 4066,3565 4070,3567 4078,3565 4082,3563 4088,3553 4094,3539 4098,3523 4104,3509 4112,3503 4116,3503 4134,3505 4154,3501 4162,3493 4164,3483 4166,3477 4180,3469 4198,3457 4214,3455 4230,3459 4262,3467 4292,3475 4302,3487 4308,3491 4316,3489 4332,3479 4340,3471 4358,3461 4394,3437 4414,3419 4426,3413 4448,3411 4462,3409 4504,3399 4514,3395 4518,3385 4522,3381 4530,3371 4540,3367 4566,3361 4598,3355 4618,3351 4634,3349 4642,3349 4648,3351 4656,3353 4662,3359 4664,3363 4668,3367 4672,3375 4670,3385 4660,3403 4663,3416 4672,3423 4678,3423 4684,3423 4702,3409 4714,3399 4732,3397 4751,3391 4768,3375 4784,3359 4794,3345 4806,3315 4814,3295 4828,3289 4834,3279 4842,3273 4852,3271 4860,3273 4866,3275 4878,3285 4896,3297 4906,3297 4916,3295 4920,3287 4926,3279 4936,3269 4936,3253 4936,3239 4940,3227 4942,3211 4934,3197 4928,3191 4920,3177 4914,3161 4916,3147 4928,3149 4942,3153 4948,3153 4976,3129 4998,3111 4980,3095 4984,3079 4994,3073 5014,3073 5028,3067 5022,3055 5008,3041 5002,3035 4992,3033 4982,3041 4962,3049 4957,3044 4956,3041 4968,3029 4970,3021 4956,3013 4948,3003 4946,2999 4944,2995 4966,2991 4978,2969 4976,2961 4972,2953 4964,2945 4954,2941 4938,2935 4921,2939 4908,2941 4888,2951 4864,2965 4856,2995 4828,3005 4818,3017 4808,3027 4808,3033 4810,3037 4818,3043 4840,3047 4868,3049 4880,3053 4886,3057 4894,3061 4896,3069 4892,3081 4874,3093 4864,3111 4856,3123 4822,3139 4806,3135 4796,3137 4784,3149 4770,3165 4752,3171 4744,3181 4722,3193 4712,3197 4706,3199 4704,3195 4702,3189 4696,3173 4694,3147 4692,3125 4692,3113 4684,3105 4676,3093 4670,3055 4664,3041 4658,3033 4654,3031 4642,3035 4632,3043 4622,3051 4608,3047 4596,3043 4592,3021 4588,3017 4578,3015 4570,3005 4576,2995 4588,2987 4604,2983 4618,2981 4640,2977 4646,2961 4654,2941 4656,2923 4662,2913 4680,2909 4688,2909 4692,2905 4684,2877 4684,2865 4694,2869 4702,2875 4720,2873 4730,2869 4732,2861 4742,2843 4748,2821 4760,2759 4758,2741 4764,2729 4774,2725 4784,2725 4792,2731 4802,2741 4810,2755 4814,2761 4822,2775 4822,2779 4812,2783 4798,2791 4794,2799 4790,2815 4788,2823 4780,2833 4778,2843 4778,2849 4786,2851 4798,2845 4812,2841 4828,2843 4838,2839 4866,2833 4870,2823 4880,2799 4880,2785 4888,2773 4896,2767 4904,2767 4908,2769 4912,2771 4916,2783 4914,2805 4906,2829 4898,2853 4898,2869 4912,2885 4916,2885 4920,2881 4926,2879 4942,2877 4952,2885 4954,2895 4970,2903 4984,2905 5000,2905 5024,2897 5046,2889 5060,2871 5062,2865 5068,2863 5080,2865 5092,2861 5098,2853 5092,2845 5094,2831 5100,2823 5130,2813 5136,2807 5140,2799 5144,2791 5146,2779 5142,2775 5130,2765 5100,2749 5088,2751 5074,2755 5066,2755 5054,2755 5038,2751 5028,2749 5018,2743 5014,2737 5012,2723 5012,2703 5020,2663 5026,2659 5040,2659 5048,2653 5056,2635 5065,2614 5069,2608 5098,2613 5110,2613 5126,2613 5142,2615 5152,2609 5164,2589 5164,2581 5164,2575 5172,2561 5182,2555 5188,2557 5202,2567 5210,2569 5228,2569 5236,2565 5250,2565 5260,2559 5266,2549 5268,2543 5270,2525 5272,2519 5278,2515 5286,2517 " class="polyStyle" id="360423" style="fill:#f6f67b"/>
<polygon points="12848,2245 12860,2264 12867,2293 12868,2318 12862,2327 12858,2335 12845,2363 12834,2406 12827,2431 12801,2466 12764,2494 12747,2526 12775,2539 12793,2568 12819,2592 12844,2593 12875,2604 12911,2611 12941,2629 12944,2660 12957,2695 12960,2732 12952,2765 12945,2800 12936,2828 12917,2857 12886,2885 12871,2913 12887,2938 12912,2955 12949,2966 12978,2994 12988,3023 12971,3057 12958,3085 12933,3083 12900,3095 12891,3128 12885,3155 12889,3186 12865,3226 12874,3255 12906,3271 12941,3269 12971,3279 12982,3305 12976,3333 12975,3364 12995,3401 13021,3436 13038,3478 13020,3510 13028,3540 13061,3578 13038,3603 13007,3590 12976,3605 12983,3634 12976,3665 12996,3700 13010,3728 13038,3765 13074,3788 13080,3819 13105,3857 13111,3889 13123,3919 13156,3957 13182,3970 13194,4008 13221,4042 13230,4079 13238,4112 13252,4134 13319,4156 13398,4188 13429,4202 13455,4216 13474,4229 13480,4233 13484,4238 13489,4246 13489,4250 13487,4253 13470,4273 13452,4290 13434,4308 13402,4336 13374,4359 13353,4374 13309,4403 13285,4418 13252,4442 13129,4544 13108,4560 13097,4566 13059,4580 13010,4594 12959,4604 12916,4609 12869,4612 12825,4611 12782,4608 12736,4600 12694,4595 12656,4600 12640,4605 12622,4613 12606,4624 12591,4637 12577,4653 12565,4671 12545,4713 12537,4738 12532,4763 12529,4788 12529,4808 12525,4833 12508,4865 12492,4886 12478,4901 12462,4918 12440,4943 12414,4978 12374,5015 12331,5046 12313,5081 12294,5105 12261,5108 12176,5118 12131,5111 11833,4914 11718,4841 11671,4841 11633,4861 11596,4919 11581,4969 11666,5264 11668,5294 11646,5344 11621,5374 11571,5381 11521,5399 11498,5414 11473,5431 11456,5416 11446,5384 11451,5351 11461,5294 11453,5251 11433,5224 11386,5201 11308,5196 11243,5191 11188,5174 11161,5161 11116,5129 11078,5066 11056,5024 11021,5004 10998,4986 10983,4956 10988,4929 11013,4901 11036,4869 11086,4841 11122,4813 11241,4764 11323,4736 11441,4649 11531,4564 11536,4529 11511,4419 11496,4331 11464,4274 11430,4256 11393,4237 11358,4233 11329,4229 11293,4225 11248,4226 11220,4228 11175,4231 11106,4238 11074,4231 11041,4219 11014,4215 10988,4212 10947,4204 10888,4191 10832,4180 10778,4172 10732,4160 10705,4148 10663,4116 10622,4071 10600,4040 10573,4014 10544,3981 10533,3950 10534,3921 10521,3889 10510,3863 10540,3843 10577,3803 10599,3765 10611,3732 10625,3705 10635,3679 10637,3651 10630,3609 10615,3576 10575,3533 10531,3502 10499,3488 10465,3455 10449,3420 10440,3388 10437,3349 10443,3322 10455,3290 10483,3245 10509,3211 10536,3192 10568,3176 10610,3158 10653,3145 10698,3131 10742,3097 10771,3062 10806,3037 10833,3025 10885,2993 10920,2958 10951,2914 10966,2878 10977,2847 10986,2798 10976,2765 10967,2745 11013,2771 11048,2792 11086,2813 11119,2842 11147,2856 11173,2859 11200,2831 11233,2812 11267,2790 11295,2766 11322,2771 11348,2749 11377,2741 11408,2718 11447,2731 11480,2740 11518,2773 11520,2808 11506,2837 11537,2825 11567,2836 11603,2853 11636,2860 11668,2859 11688,2832 11720,2865 11745,2893 11757,2867 11745,2842 11716,2827 11748,2815 11778,2787 11785,2760 11750,2733 11724,2735 11696,2738 11671,2710 11679,2680 11689,2653 11699,2627 11677,2594 11684,2567 11692,2536 11707,2510 11734,2485 11766,2473 11800,2461 11825,2485 11833,2518 11823,2549 11822,2579 11807,2610 11836,2615 11851,2583 11879,2568 11927,2566 11950,2591 11982,2620 12011,2639 12037,2663 12063,2670 12095,2668 12128,2650 12159,2636 12189,2622 12192,2620 12214,2592 12238,2564 12263,2533 12297,2513 12309,2486 12329,2432 12338,2418 12342,2412 12366,2380 12408,2360 12456,2344 12502,2333 12531,2327 12565,2319 12597,2309 12623,2303 12663,2295 12680,2283 12696,2262 12721,2241 12753,2228 12784,2217 12814,2223 " class="polyStyle" id="360428" style="fill:#fbe6ef"/>
<polygon points="11322,1233 11360,1249 11380,1257 11396,1269 11408,1277 11430,1303 11450,1331 11466,1349 11494,1409 11502,1419 11520,1436 11558,1466 11576,1473 11588,1475 11594,1475 11566,1497 11527,1532 11497,1552 11470,1583 11438,1607 11427,1611 11419,1616 11405,1614 11366,1606 11334,1601 11300,1591 11267,1583 11242,1578 11216,1576 11173,1577 11129,1571 11093,1558 11062,1554 11029,1552 10992,1555 10954,1557 10924,1558 10893,1562 10850,1567 10811,1568 10772,1571 10729,1574 10699,1575 10686,1576 10652,1577 10620,1575 10594,1570 10561,1563 10588,1529 10618,1489 10654,1447 10708,1405 10774,1361 10806,1343 10871,1312 10951,1274 10960,1270 10985,1256 11010,1249 11048,1239 11098,1235 11210,1221 11264,1219 11292,1225 " class="polyStyle" id="360421" style="fill:#d4ecb2"/>
<polygon points="8737,1149 8769,1161 8799,1185 8908,1266 8948,1297 9123,1421 9167,1451 9405,1607 9500,1655 9589,1686 9671,1708 9735,1729 9803,1749 9921,1771 9930,1771 9900,1877 9894,1905 9890,1921 9889,1967 9901,1994 9911,2026 9901,2059 9881,2105 9876,2133 9881,2151 9895,2163 9906,2183 9906,2220 9915,2248 9933,2274 9954,2311 9940,2351 9908,2372 9877,2391 9874,2418 9884,2446 9878,2481 9859,2508 9821,2507 9787,2513 9762,2545 9737,2555 9703,2571 9701,2601 9699,2634 9694,2667 9668,2699 9652,2730 9671,2757 9669,2788 9661,2816 9639,2834 9697,2846 9720,2847 9746,2834 9767,2825 9784,2830 9824,2844 9849,2844 9860,2860 9878,2866 9875,2870 9857,2912 9849,2927 9840,2943 9824,2974 9803,3006 9796,3040 9771,3070 9745,3077 9720,3100 9711,3126 9707,3162 9693,3188 9690,3198 9661,3216 9618,3208 9611,3224 9593,3253 9587,3291 9564,3321 9565,3347 9541,3382 9545,3398 9546,3414 9559,3440 9571,3467 9590,3496 9597,3516 9607,3546 9608,3569 9604,3594 9583,3628 9576,3633 9554,3654 9523,3665 9483,3646 9455,3615 9443,3588 9434,3561 9414,3532 9404,3503 9376,3478 9344,3464 9309,3433 9288,3406 9265,3372 9277,3343 9264,3316 9259,3282 9260,3253 9260,3240 9270,3222 9254,3189 9223,3169 9189,3159 9166,3133 9138,3100 9170,3086 9148,3057 9137,3029 9130,3001 9104,2974 9097,2946 9068,2937 9040,2916 9018,2886 9002,2857 8964,2856 8938,2862 8908,2875 8881,2841 8866,2816 8872,2800 8878,2782 8885,2744 8880,2714 8863,2689 8834,2682 8789,2684 8758,2680 8725,2673 8697,2673 8659,2675 8653,2655 8642,2638 8617,2601 8597,2567 8575,2537 8560,2504 8546,2473 8528,2434 8501,2411 8464,2376 8449,2351 8416,2336 8391,2331 8382,2300 8397,2264 8428,2257 8477,2252 8516,2245 8553,2236 8581,2232 8609,2227 8640,2225 8644,2197 8638,2167 8653,2140 8684,2141 8716,2126 8715,2096 8733,2057 8762,2044 8793,2036 8832,2026 8879,2019 8909,2017 8935,2016 8969,2007 8966,2033 8992,2029 9027,2019 9052,2003 9087,1993 9094,1991 9111,1983 9126,1971 9106,1963 9071,1955 9066,1946 9076,1938 9104,1936 9131,1933 9146,1921 9144,1900 9119,1892 9079,1900 9043,1906 9011,1910 8979,1915 8930,1917 8904,1917 8877,1917 8830,1909 8800,1893 8784,1873 8796,1856 8809,1821 8829,1791 8839,1751 8819,1736 8794,1733 8766,1731 8776,1714 8775,1697 8805,1665 8831,1635 8861,1603 8871,1583 8871,1558 8856,1538 8826,1523 8779,1501 8749,1481 8721,1453 8693,1416 8661,1378 8628,1344 8599,1306 8574,1266 8549,1216 8537,1167 8563,1161 8597,1151 8619,1147 8637,1143 8665,1143 8705,1143 8725,1147 " class="polyStyle" id="360421" style="fill:#d4ecb2"/>
<polygon points="12257,1140 12262,1165 12259,1187 12244,1205 12221,1217 12222,1231 12229,1235 12250,1242 12267,1246 12289,1246 12312,1255 12317,1267 12314,1295 12301,1308 12275,1326 12281,1363 12310,1358 12309,1386 12302,1415 12322,1445 12339,1472 12313,1482 12289,1516 12298,1556 12330,1566 12342,1593 12345,1621 12363,1657 12355,1682 12355,1703 12357,1738 12357,1763 12363,1785 12376,1797 12398,1809 12407,1827 12405,1834 12404,1856 12392,1883 12375,1911 12383,1951 12378,1979 12346,1985 12340,1979 12315,1962 12287,1958 12258,1954 12242,1981 12223,2006 12192,2028 12181,2056 12163,2084 12135,2110 12153,2135 12197,2164 12227,2188 12234,2204 12241,2215 12284,2229 12302,2243 12299,2254 12285,2269 12264,2292 12262,2307 12272,2323 12297,2352 12326,2393 12338,2418 12329,2432 12309,2486 12297,2513 12263,2533 12238,2564 12214,2592 12192,2620 12189,2622 12159,2636 12128,2650 12095,2668 12063,2670 12037,2663 12011,2639 11982,2620 11950,2591 11927,2566 11879,2568 11851,2583 11836,2615 11807,2610 11822,2579 11823,2549 11833,2518 11825,2485 11800,2461 11766,2473 11734,2485 11707,2510 11692,2536 11684,2567 11677,2594 11699,2627 11689,2653 11679,2680 11671,2710 11696,2738 11724,2735 11750,2733 11785,2760 11778,2787 11748,2815 11716,2827 11745,2842 11757,2867 11745,2893 11720,2865 11688,2832 11668,2859 11636,2860 11603,2853 11567,2836 11537,2825 11506,2837 11520,2808 11518,2773 11480,2740 11447,2731 11408,2718 11377,2741 11348,2749 11322,2771 11295,2766 11267,2790 11233,2812 11200,2831 11173,2859 11147,2856 11119,2842 11086,2813 11048,2792 11013,2771 10967,2745 10966,2743 10966,2710 10962,2667 10952,2622 10936,2594 10922,2567 10917,2539 10910,2494 10915,2464 10923,2437 10930,2409 10940,2381 10964,2348 10987,2314 11010,2281 11032,2241 11045,2212 11063,2167 11072,2138 11088,2107 11114,2073 11145,2032 11164,2000 11182,1973 11211,1919 11233,1878 11251,1842 11265,1805 11276,1768 11287,1742 11300,1716 11323,1684 11353,1663 11388,1637 11419,1616 11427,1611 11438,1607 11470,1583 11497,1552 11527,1532 11566,1497 11594,1475 11604,1469 11658,1441 11720,1403 11810,1345 11846,1319 11888,1285 11920,1255 11976,1213 12040,1173 12184,1113 12231,1094 12247,1122 " class="polyStyle" id="360429" style="fill:#f6f67b"/>
<path d="" class="polyStyle" id="511423" style="fill:#ee8b94"/>
<polygon points="13659,14 13776,65 13860,109 13888,119 13922,123 13956,119 13984,111 14008,99 14012,99 14018,101 14052,133 14092,141 14116,157 14132,165 14148,183 14176,221 14192,249 14206,269 14216,279 14228,291 14234,305 14234,321 14226,351 14226,357 14230,365 14258,359 14272,383 14272,395 14280,399 14286,401 14296,399 14316,387 14324,381 14378,369 14386,363 14398,333 14404,331 14412,329 14418,329 14426,331 14426,347 14420,395 14418,409 14420,437 14418,463 14412,485 14412,501 14410,521 14412,561 14424,583 14432,591 14438,595 14446,597 14452,595 14456,591 14460,585 14458,575 14452,565 14452,541 14454,531 14464,525 14478,523 14514,519 14558,505 14590,489 14608,477 14619,475 14632,477 14646,485 14654,495 14668,511 14676,515 14700,507 14706,521 14710,539 14720,543 14748,537 14760,539 14764,543 14768,549 14772,565 14772,575 14772,585 14774,593 14780,605 14784,615 14790,625 14796,649 14796,657 14794,663 14778,671 14760,677 14752,681 14748,691 14748,733 14746,751 14736,771 14744,779 14756,787 14762,793 14766,801 14766,809 14764,823 14764,831 14746,831 14726,833 14718,843 14704,857 14712,873 14710,895 14704,915 14692,919 14684,917 14682,923 14654,963 14616,983 14608,993 14606,1015 14574,1051 14550,1063 14538,1075 14530,1097 14524,1109 14506,1129 14488,1147 14472,1163 14464,1169 14454,1175 14442,1183 14430,1189 14422,1193 14408,1197 14396,1201 14388,1207 14386,1215 14390,1223 14396,1230 14410,1251 14418,1265 14420,1273 14410,1285 14392,1289 14380,1303 14360,1303 14344,1297 14330,1295 14320,1299 14316,1301 14306,1323 14290,1343 14290,1355 14298,1371 14292,1379 14260,1375 14254,1379 14224,1409 14212,1421 14198,1423 14184,1421 14174,1411 14154,1397 14132,1381 14102,1355 14092,1355 14084,1357 14076,1371 14072,1377 14062,1387 14046,1391 14028,1397 13998,1423 13986,1433 13990,1447 13990,1451 13986,1469 13968,1477 13960,1513 13940,1517 13916,1517 13904,1521 13890,1549 13872,1567 13858,1577 13842,1585 13840,1593 13836,1603 13834,1631 13832,1649 13824,1667 13806,1671 13784,1673 13768,1677 13730,1677 13720,1679 13704,1689 13690,1703 13674,1749 13656,1749 13658,1811 13626,1875 13619,1886 13610,1887 13596,1883 13584,1875 13572,1871 13556,1873 13542,1889 13522,1901 13522,1911 13524,1927 13534,1941 13550,1943 13568,1943 13602,1941 13622,1939 13650,1945 13668,1951 13678,1961 13710,1995 13718,2005 13720,2013 13715,2020 13686,2027 13638,2045 13582,2081 13566,2095 13544,2121 13540,2143 13528,2165 13528,2175 13530,2181 13550,2199 13592,2221 13598,2225 13676,2277 13692,2287 13692,2303 13692,2319 13696,2349 13672,2365 13670,2375 13674,2387 13676,2388 13645,2396 13611,2375 13584,2345 13558,2334 13525,2350 13523,2375 13523,2404 13516,2435 13502,2462 13469,2474 13437,2485 13409,2497 13375,2522 13347,2525 13306,2514 13278,2496 13241,2494 13214,2491 13181,2466 13169,2431 13156,2405 13119,2397 13090,2407 13059,2403 13025,2379 12993,2379 12965,2370 12933,2359 12896,2346 12862,2327 12868,2318 12867,2293 12860,2264 12848,2245 12814,2223 12784,2217 12753,2228 12721,2241 12696,2262 12680,2283 12663,2295 12623,2303 12597,2309 12565,2319 12531,2327 12502,2333 12456,2344 12408,2360 12366,2380 12342,2412 12338,2418 12326,2393 12297,2352 12272,2323 12262,2307 12264,2292 12285,2269 12299,2254 12302,2243 12284,2229 12241,2215 12234,2204 12227,2188 12197,2164 12153,2135 12135,2110 12163,2084 12181,2056 12192,2028 12223,2006 12242,1981 12258,1954 12287,1958 12315,1962 12340,1979 12346,1985 12378,1979 12383,1951 12375,1911 12392,1883 12404,1856 12405,1834 12407,1827 12398,1809 12376,1797 12363,1785 12357,1763 12357,1738 12355,1703 12355,1682 12363,1657 12345,1621 12342,1593 12330,1566 12298,1556 12289,1516 12313,1482 12339,1472 12322,1445 12302,1415 12309,1386 12310,1358 12281,1363 12275,1326 12301,1308 12314,1295 12317,1267 12312,1255 12289,1246 12267,1246 12250,1242 12229,1235 12222,1231 12221,1217 12244,1205 12259,1187 12262,1165 12257,1140 12247,1122 12231,1094 12410,1023 12458,997 12540,943 12594,903 12634,885 12664,879 12680,877 12736,873 12768,879 12788,887 12804,891 12842,897 12920,903 12938,901 12972,890 12998,872 13010,862 13037,817 13068,737 13104,561 13110,531 13139,400 13152,334 13174,275 13213,199 13229,170 13243,147 13281,100 13320,66 13368,39 13426,19 13471,8 13543,0 13600,2 " class="polyStyle" id="360430" style="fill:#d4ecb2"/>
<path d="" class="polyStyle" id="421023" style="fill:#f6f67b"/>
<path d="" class="polyStyle" id="511724" style="fill:#f6f67b"/>
<path d="" class="polyStyle" id="420526" style="fill:#fbe6ef"/>
<path d="" class="polyStyle" id="511923" style="fill:#fbe6ef"/>
<path d="" class="polyStyle" id="420325" style="fill:#fbe6ef"/>
<path d="" class="polyStyle" id="511921" style="fill:#f6f67b"/>
<path d="" class="polyStyle" id="542525" style="fill:#f6f67b"/>
<path d="" class="polyStyle" id="611026" style="fill:#ee8b94"/>
<path d="" class="polyStyle" id="411023" style="fill:#fbe6ef"/>
<path d="" class="polyStyle" id="632323" style="fill:#f6f67b"/>
<path d="" class="polyStyle" id="140525" style="fill:#d4ecb2"/>
<path d="" class="polyStyle" id="410922" style="fill:#ee8b94"/>
<path d="" class="polyStyle" id="621027" style="fill:#ee8b94"/>
<path d="" class="polyStyle" id="130427" style="fill:#f6f67b"/>
<path d="" class="polyStyle" id="130121" style="fill:#ee8b94"/>
<path d="" class="polyStyle" id="610823" style="fill:#fbe6ef"/>
<path d="" class="polyStyle" id="130225" style="fill:#fbe6ef"/>
<path d="" class="polyStyle" id="130322" style="fill:#d4ecb2"/>
<path d="" class="polyStyle" id="653130" style="fill:#f6f67b"/>
<path d="" class="polyStyle" id="130822" style="fill:#fbe6ef"/>
<path d="" class="polyStyle" id="211221" style="fill:#f6f67b"/>
<path d="" class="polyStyle" id="210921" style="fill:#f6f67b"/>
<path d="" class="polyStyle" id="150223" style="fill:#f8c67d"/>
<path d="" class="polyStyle" id="220422" style="fill:#d4ecb2"/>
<path d="" class="polyStyle" id="340721" style="fill:#f6f67b"/>
<path d="" class="polyStyle" id="510824" style="fill:#d4ecb2"/>
<path d="" class="polyStyle" id="610324" style="fill:#f6f67b"/>
<path d="" class="polyStyle" id="530722" style="fill:#ee8b94"/>
<path d="" class="polyStyle" id="340823" style="fill:#d4ecb2"/>
<path d="" class="polyStyle" id="620825" style="fill:#d4ecb2"/>
<path d="" class="polyStyle" id="421125" style="fill:#ee8b94"/>
<path d="" class="polyStyle" id="210281" style="fill:#ee8b94"/>
<path d="" class="polyStyle" id="440883" style="fill:#f6f67b"/>
<path d="" class="polyStyle" id="469006" style="fill:#d4ecb2"/>
<path d="" class="polyStyle" id="469002" style="fill:#ee8b94"/>
<path d="" class="polyStyle" id="469005" style="fill:#fbe6ef"/>
<path d="" class="polyStyle" id="440882" style="fill:#ee8b94"/>
<path d="" class="polyStyle" id="450681" style="fill:#ee8b94"/>
<path d="" class="polyStyle" id="441581" style="fill:#d4ecb2"/>
<polygon points="9414,3532 9434,3561 9443,3588 9455,3615 9483,3646 9523,3665 9554,3654 9576,3633 9597,3626 9603,3630 9612,3629 9630,3629 9643,3642 9649,3665 9657,3679 9700,3714 9714,3728 9717,3745 9716,3755 9702,3777 9700,3795 9701,3809 9711,3817 9721,3818 9753,3804 9811,3771 9825,3766 9857,3776 9889,3777 9899,3788 9916,3816 9919,3831 9905,3847 9887,3874 9877,3897 9875,3933 9875,3979 9886,4007 9889,4033 9875,4060 9870,4080 9882,4104 9897,4138 9890,4157 9861,4161 9854,4177 9868,4205 9884,4220 9904,4228 9905,4252 9897,4291 9896,4321 9890,4345 9883,4365 9875,4375 9850,4377 9822,4382 9803,4393 9777,4416 9752,4423 9730,4420 9712,4418 9703,4436 9708,4462 9708,4472 9702,4507 9685,4538 9676,4569 9653,4596 9645,4596 9607,4583 9583,4569 9575,4549 9574,4535 9555,4527 9537,4522 9526,4509 9520,4486 9517,4462 9510,4436 9499,4433 9489,4441 9486,4465 9489,4493 9492,4529 9484,4542 9466,4544 9446,4528 9435,4525 9429,4534 9429,4573 9429,4613 9413,4623 9377,4638 9354,4640 9323,4632 9289,4611 9245,4579 9237,4560 9227,4548 9185,4503 9164,4498 9136,4489 9125,4483 9120,4473 9113,4425 9099,4403 9078,4383 9038,4374 9031,4366 9027,4342 9022,4318 9011,4295 9020,4264 9019,4251 8999,4224 8957,4193 8916,4167 8884,4153 8864,4127 8860,4110 8862,4097 8875,4068 8910,4026 8935,4007 8949,3989 8952,3962 8952,3926 8960,3915 8995,3910 9038,3910 9070,3901 9089,3902 9123,3931 9134,3935 9147,3932 9169,3919 9180,3916 9199,3923 9210,3921 9226,3916 9257,3886 9292,3862 9316,3839 9354,3796 9349,3792 9357,3751 9350,3707 9347,3656 9348,3620 9354,3591 9340,3554 9374,3534 9382,3505 9376,3478 9404,3503 " class="polyStyle" id="360482" style="fill:#fbe6ef"/>
<polygon points="8574,1266 8599,1306 8628,1344 8661,1378 8693,1416 8721,1453 8749,1481 8779,1501 8826,1523 8856,1538 8871,1558 8871,1583 8861,1603 8831,1635 8805,1665 8775,1697 8776,1714 8766,1731 8794,1733 8819,1736 8839,1751 8829,1791 8809,1821 8796,1856 8784,1873 8800,1893 8830,1909 8877,1917 8904,1917 8930,1917 8979,1915 9011,1910 9043,1906 9079,1900 9119,1892 9144,1900 9146,1921 9131,1933 9104,1936 9076,1938 9066,1946 9071,1955 9106,1963 9126,1971 9111,1983 9094,1991 9087,1993 9052,2003 9027,2019 8992,2029 8966,2033 8969,2007 8935,2016 8909,2017 8879,2019 8832,2026 8793,2036 8762,2044 8733,2057 8715,2096 8716,2126 8684,2141 8653,2140 8638,2167 8644,2197 8640,2225 8609,2227 8581,2232 8553,2236 8516,2245 8477,2252 8428,2257 8397,2264 8382,2300 8391,2331 8416,2336 8449,2351 8464,2376 8501,2411 8528,2434 8546,2473 8560,2504 8575,2537 8597,2567 8617,2601 8642,2638 8653,2655 8659,2675 8615,2685 8578,2693 8548,2714 8511,2712 8472,2709 8429,2718 8392,2735 8351,2753 8319,2753 8280,2764 8250,2779 8212,2777 8212,2748 8183,2758 8158,2762 8132,2766 8095,2781 8102,2807 8092,2834 8099,2867 8113,2898 8085,2917 8054,2920 8023,2891 7999,2858 7971,2844 7959,2811 7928,2824 7898,2836 7850,2857 7808,2864 7778,2857 7749,2859 7722,2865 7696,2863 7650,2886 7621,2913 7598,2956 7584,2991 7569,3020 7534,3027 7507,3044 7478,3083 7452,3100 7461,3160 7456,3189 7425,3183 7394,3168 7359,3162 7332,3153 7299,3142 7268,3158 7258,3190 7238,3229 7212,3261 7191,3288 7192,3315 7204,3345 7202,3389 7196,3419 7194,3443 7169,3444 7140,3423 7109,3417 7063,3410 7030,3426 7003,3407 6976,3375 6948,3369 6922,3375 6895,3365 6861,3338 6852,3296 6861,3265 6863,3238 6864,3197 6864,3171 6870,3140 6875,3102 6868,3068 6838,3035 6801,3033 6771,3017 6775,2988 6786,2958 6811,2935 6834,2908 6823,2879 6793,2856 6767,2851 6734,2864 6707,2862 6681,2863 6645,2876 6616,2891 6581,2889 6542,2891 6484,2891 6451,2911 6460,2940 6432,2921 6399,2910 6372,2937 6367,2964 6345,2991 6312,2983 6273,2962 6254,2936 6224,2913 6189,2895 6160,2894 6128,2888 6098,2867 6074,2847 6080,2843 6084,2837 6080,2827 6066,2815 6062,2803 6070,2801 6078,2803 6080,2795 6068,2779 6064,2773 6062,2767 6054,2753 6052,2749 6048,2745 6042,2739 6036,2733 6028,2729 6014,2719 6011,2716 6036,2707 6050,2673 6038,2657 6036,2643 6046,2631 6048,2625 6052,2611 6046,2601 6044,2591 6064,2567 6067,2556 6063,2546 6055,2529 6051,2515 6044,2503 6066,2458 6070,2456 6093,2451 6123,2443 6155,2435 6169,2429 6169,2418 6157,2393 6067,2369 6059,2375 6057,2387 6047,2393 6034,2393 6007,2399 5991,2401 5981,2409 5970,2422 5960,2431 5939,2448 5932,2448 5917,2450 5912,2451 5902,2448 5899,2446 5902,2440 5905,2436 5909,2433 5913,2430 5917,2428 5921,2424 5924,2420 5927,2417 5929,2413 5930,2410 5931,2406 5932,2402 5931,2399 5930,2395 5929,2392 5927,2388 5927,2384 5927,2381 5927,2377 5931,2374 5931,2370 5930,2367 5928,2363 5926,2359 5925,2356 5925,2352 5925,2349 5926,2345 5927,2341 5928,2338 5930,2334 5932,2331 5934,2327 5937,2323 5941,2320 5944,2316 5948,2313 5951,2309 5954,2302 5954,2299 5953,2293 5949,2289 5941,2284 5948,2273 5943,2263 5937,2231 5939,2221 5947,2211 5965,2207 5983,2203 5997,2201 6007,2197 6011,2193 6009,2187 6001,2171 5993,2153 5989,2141 5985,2133 5981,2127 5975,2125 5963,2127 5945,2131 5921,2139 5911,2139 5893,2129 5875,2115 5857,2105 5835,2097 5823,2089 5819,2081 5815,2065 5825,2053 5831,2037 5827,2011 5827,2001 5833,1991 5847,1975 5853,1969 5861,1967 5869,1969 5875,1975 5891,1983 5911,1983 5925,1979 5933,1977 5941,1979 5959,1981 5967,1989 5963,1993 5951,2001 5951,2007 5971,2037 5991,2059 6003,2069 6013,2077 6021,2089 6033,2097 6047,2099 6063,2099 6091,2107 6099,2107 6111,2101 6123,2099 6143,2099 6171,2101 6189,2103 6237,2107 6291,2113 6345,2125 6365,2123 6381,2119 6395,2121 6417,2127 6433,2127 6457,2113 6471,2111 6509,2113 6519,2109 6533,2097 6545,2093 6561,2093 6569,2093 6599,2095 6619,2105 6631,2111 6645,2125 6651,2137 6645,2147 6637,2149 6631,2151 6601,2159 6565,2177 6565,2193 6565,2203 6585,2201 6595,2205 6633,2273 6641,2275 6669,2267 6683,2273 6705,2289 6711,2293 6719,2293 6723,2287 6725,2275 6737,2257 6761,2243 6773,2237 6795,2205 6805,2193 6815,2193 6839,2205 6851,2205 6867,2201 6895,2185 6915,2151 6961,2133 6971,2129 6999,2147 7007,2145 7013,2131 7017,2125 7037,2131 7069,2151 7079,2153 7095,2133 7091,2111 7097,2109 7153,2067 7227,2013 7239,2009 7255,2015 7265,2011 7279,1979 7283,1975 7291,1977 7321,1993 7339,1995 7351,1991 7355,1985 7361,1973 7367,1949 7369,1923 7373,1893 7381,1885 7395,1877 7405,1871 7399,1853 7399,1841 7423,1825 7433,1835 7451,1827 7473,1811 7475,1799 7481,1791 7501,1761 7509,1757 7515,1757 7531,1771 7543,1773 7549,1771 7551,1761 7553,1747 7559,1727 7569,1721 7585,1721 7603,1723 7617,1713 7631,1695 7639,1683 7653,1661 7659,1637 7663,1627 7663,1615 7655,1601 7649,1593 7633,1587 7627,1587 7623,1591 7623,1597 7615,1609 7605,1617 7605,1601 7603,1589 7601,1569 7599,1555 7599,1539 7601,1531 7607,1525 7615,1523 7619,1523 7629,1523 7637,1519 7641,1519 7645,1513 7655,1483 7655,1479 7643,1471 7645,1459 7647,1445 7659,1433 7661,1409 7661,1389 7655,1379 7639,1365 7631,1363 7625,1353 7631,1345 7641,1339 7665,1335 7711,1295 7745,1283 7781,1275 7811,1283 7824,1284 7805,1249 7791,1225 7793,1219 7795,1215 7824,1188 7830,1190 7857,1203 7902,1208 7974,1204 8061,1208 8146,1210 8218,1205 8259,1205 8319,1207 8349,1205 8369,1205 8537,1167 8549,1216 " class="polyStyle" id="360481" style="fill:#fbe6ef"/>
<path d="" class="polyStyle" id="421087" style="fill:#ee8b94"/>
<path d="" class="polyStyle" id="420984" style="fill:#fbe6ef"/>
<path d="" class="polyStyle" id="420582" style="fill:#ee8b94"/>
<path d="" class="polyStyle" id="370282" style="fill:#f6f67b"/>
<path d="" class="polyStyle" id="371083" style="fill:#f6f67b"/>
<path d="" class="polyStyle" id="371082" style="fill:#fbe6ef"/>
<path d="" class="polyStyle" id="652801" style="fill:#f8c67d"/>
<path d="" class="polyStyle" id="654301" style="fill:#ee8b94"/>
<path d="" class="polyStyle" id="370687" style="fill:#ee8b94"/>
<path d="" class="polyStyle" id="371482" style="fill:#d4ecb2"/>
<path d="" class="polyStyle" id="421081" style="fill:#fbe6ef"/>
<path d="" class="polyStyle" id="429006" style="fill:#f6f67b"/>
<path d="" class="polyStyle" id="440982" style="fill:#d4ecb2"/>
<path d="" class="polyStyle" id="421181" style="fill:#d4ecb2"/>
<path d="" class="polyStyle" id="321181" style="fill:#d4ecb2"/>
<path d="" class="polyStyle" id="659007" style="fill:#ee8b94"/>
<path d="" class="polyStyle" id="652701" style="fill:#fbe6ef"/>
<path d="" class="polyStyle" id="210781" style="fill:#fbe6ef"/>
<path d="" class="polyStyle" id="460204" style="fill:#f6f67b"/>
<path d="" class="polyStyle" id="210211" style="fill:#f6f67b"/>
<path d="" class="polyStyle" id="450512" style="fill:#ee8b94"/>
<path d="" class="polyStyle" id="450602" style="fill:#fbe6ef"/>
<path d="" class="polyStyle" id="440404" style="fill:#ee8b94"/>
<path d="" class="polyStyle" id="440403" style="fill:#f6f67b"/>
<path d="" class="polyStyle" id="441502" style="fill:#f6f67b"/>
<path d="" class="polyStyle" id="431002" style="fill:#d4ecb2"/>
<path d="" class="polyStyle" id="500107" style="fill:#fbe6ef"/>
<path d="" class="polyStyle" id="430611" style="fill:#d4ecb2"/>
<polygon points="10620,1575 10652,1577 10686,1576 10699,1575 10701,1633 10700,1645 10697,1648 10693,1649 10666,1653 10659,1655 10656,1659 10657,1666 10673,1679 10695,1696 10699,1701 10699,1704 10699,1708 10695,1714 10679,1730 10658,1746 10606,1774 10593,1779 10585,1777 10583,1771 10584,1760 10577,1739 10564,1710 10557,1702 10551,1698 10542,1695 10536,1695 10529,1697 10523,1703 10488,1739 10453,1768 10447,1771 10441,1771 10436,1768 10432,1761 10424,1750 10420,1752 10415,1758 10410,1766 10406,1780 10390,1792 10372,1802 10325,1838 10267,1885 10237,1910 10226,1917 10216,1920 10166,1929 10153,1930 10146,1934 10143,1939 10143,1944 10147,1950 10173,1974 10179,1988 10178,1994 10166,1999 10155,2000 10147,2000 10141,1998 10135,1993 10130,1986 10117,1968 10105,1961 10089,1952 10086,1946 10087,1940 10086,1932 10077,1921 10075,1916 10074,1908 10075,1902 10086,1890 10099,1878 10103,1873 10105,1866 10108,1853 10116,1845 10126,1841 10142,1844 10153,1846 10155,1844 10153,1839 10138,1826 10129,1816 10126,1810 10123,1801 10130,1795 10137,1791 10145,1790 10152,1791 10157,1795 10171,1809 10177,1811 10181,1810 10184,1808 10185,1804 10185,1791 10180,1780 10150,1729 10193,1713 10251,1689 10291,1673 10385,1637 10441,1617 10505,1597 10545,1577 10559,1565 10561,1563 10594,1570 " class="polyStyle" id="360403" style="fill:#fbe6ef"/>
<polygon points="11093,1558 11129,1571 11173,1577 11216,1576 11242,1578 11267,1583 11300,1591 11334,1601 11366,1606 11405,1614 11419,1616 11388,1637 11353,1663 11323,1684 11300,1716 11287,1742 11276,1768 11265,1805 11251,1842 11233,1878 11211,1919 11182,1973 11164,2000 11145,2032 11114,2073 11088,2107 11072,2138 11063,2167 11045,2212 11032,2241 11010,2281 10987,2314 10964,2348 10940,2381 10930,2409 10923,2437 10915,2464 10910,2494 10917,2539 10922,2567 10936,2594 10952,2622 10962,2667 10966,2710 10966,2743 10967,2745 10957,2745 10924,2746 10897,2746 10876,2750 10854,2757 10839,2768 10823,2771 10812,2770 10798,2764 10777,2767 10751,2774 10723,2764 10706,2758 10693,2758 10683,2768 10657,2769 10611,2763 10583,2762 10568,2765 10558,2755 10541,2747 10508,2742 10457,2719 10405,2689 10376,2668 10358,2657 10327,2655 10298,2658 10280,2661 10260,2667 10248,2691 10230,2700 10213,2696 10205,2696 10202,2707 10218,2724 10212,2739 10202,2751 10181,2761 10162,2770 10139,2787 10111,2805 10094,2832 10092,2875 10083,2890 10087,2891 10081,2897 10071,2901 10051,2892 10025,2874 10006,2861 10006,2846 10010,2819 10006,2802 9986,2787 9967,2791 9948,2809 9905,2836 9878,2866 9860,2860 9849,2844 9824,2844 9784,2830 9767,2825 9746,2834 9720,2847 9697,2846 9639,2834 9661,2816 9669,2788 9671,2757 9652,2730 9668,2699 9694,2667 9699,2634 9701,2601 9703,2571 9737,2555 9762,2545 9787,2513 9821,2507 9859,2508 9878,2481 9884,2446 9874,2418 9877,2391 9908,2372 9940,2351 9954,2311 9933,2274 9915,2248 9906,2220 9906,2183 9895,2163 9881,2151 9876,2133 9881,2105 9901,2059 9911,2026 9901,1994 9889,1967 9890,1921 9894,1905 9900,1877 9930,1771 9949,1773 9985,1773 10067,1759 10111,1745 10145,1731 10150,1729 10180,1780 10185,1791 10185,1804 10184,1808 10181,1810 10177,1811 10171,1809 10157,1795 10152,1791 10145,1790 10137,1791 10130,1795 10123,1801 10126,1810 10129,1816 10138,1826 10153,1839 10155,1844 10153,1846 10142,1844 10126,1841 10116,1845 10108,1853 10105,1866 10103,1873 10099,1878 10086,1890 10075,1902 10074,1908 10075,1916 10077,1921 10086,1932 10087,1940 10086,1946 10089,1952 10105,1961 10117,1968 10130,1986 10135,1993 10141,1998 10147,2000 10155,2000 10166,1999 10178,1994 10179,1988 10173,1974 10147,1950 10143,1944 10143,1939 10146,1934 10153,1930 10166,1929 10216,1920 10226,1917 10237,1910 10267,1885 10325,1838 10372,1802 10390,1792 10406,1780 10410,1766 10415,1758 10420,1752 10424,1750 10432,1761 10436,1768 10441,1771 10447,1771 10453,1768 10488,1739 10523,1703 10529,1697 10536,1695 10542,1695 10551,1698 10557,1702 10564,1710 10577,1739 10584,1760 10583,1771 10585,1777 10593,1779 10606,1774 10658,1746 10679,1730 10695,1714 10699,1708 10699,1704 10699,1701 10695,1696 10673,1679 10657,1666 10656,1659 10659,1655 10666,1653 10693,1649 10697,1648 10700,1645 10701,1633 10699,1575 10729,1574 10772,1571 10811,1568 10850,1567 10893,1562 10924,1558 10954,1557 10992,1555 11029,1552 11062,1554 " class="polyStyle" id="360402" style="fill:#ee8b94"/>
<path d="" class="polyStyle" id="511304" style="fill:#fbe6ef"/>
<path d="" class="polyStyle" id="340711" style="fill:#ee8b94"/>
<path d="" class="polyStyle" id="320118" style="fill:#f6f67b"/>
<path d="" class="polyStyle" id="510704" style="fill:#f6f67b"/>
<path d="" class="polyStyle" id="411502" style="fill:#ee8b94"/>
<path d="" class="polyStyle" id="320302" style="fill:#d4ecb2"/>
<path d="" class="polyStyle" id="140311" style="fill:#ee8b94"/>
<path d="" class="polyStyle" id="610802" style="fill:#ee8b94"/>
<path d="" class="polyStyle" id="120116" style="fill:#f6f67b"/>
<path d="" class="polyStyle" id="130303" style="fill:#fbe6ef"/>
<path d="" class="polyStyle" id="140211" style="fill:#f6f67b"/>
<path d="" class="polyStyle" id="150207" style="fill:#fbe6ef"/>
<path d="" class="polyStyle" id="211403" style="fill:#f6f67b"/>
<path d="" class="polyStyle" id="150802" style="fill:#f8c67d"/>
<path d="" class="polyStyle" id="210112" style="fill:#ee8b94"/>
<path d="" class="polyStyle" id="230406" style="fill:#d4ecb2"/>
<path d="" class="polyStyle" id="110113" style="fill:#fbe6ef"/>
<path d="" class="polyStyle" id="341702" style="fill:#fbe6ef"/>
<path d="" class="polyStyle" id="420303" style="fill:#ee8b94"/>
<path d="" class="polyStyle" id="340702" style="fill:#d4ecb2"/>
<path d="" class="polyStyle" id="421002" style="fill:#f6f67b"/>
<path d="" class="polyStyle" id="420117" style="fill:#f6f67b"/>
<path d="" class="polyStyle" id="440904" style="fill:#f8c67d"/>
<path d="" class="polyStyle" id="460205" style="fill:#ee8b94"/>
<path d="" class="polyStyle" id="460202" style="fill:#f6f67b"/>
<path d="" class="polyStyle" id="460203" style="fill:#fbe6ef"/>
<path d="" class="polyStyle" id="420304" style="fill:#f6f67b"/>
<path d="" class="polyStyle" id="445302" style="fill:#ee8b94"/>
<path d="" class="polyStyle" id="410202" style="fill:#d4ecb2"/>
<path d="" class="polyStyle" id="440800" style="fill:#f6f67b"/>
<path d="" class="polyStyle" id="440900" style="fill:#ee8b94"/>
<path d="" class="polyStyle" id="340800" style="fill:#ee8b94"/>
<path d="" class="polyStyle" id="460200" style="fill:#f6f67b"/>
<path d="" class="polyStyle" id="460000" style="fill:#ee8b94"/>
<path d="" class="polyStyle" id="450500" style="fill:#ee8b94"/>
<path d="" class="polyStyle" id="450600" style="fill:#ee8b94"/>
<path d="" class="polyStyle" id="440400" style="fill:#f6f67b"/>
<path d="" class="polyStyle" id="441700" style="fill:#f6f67b"/>
<path d="" class="polyStyle" id="441500" style="fill:#f6f67b"/>
<path d="" class="polyStyle" id="350600" style="fill:#ee8b94"/>
<path d="" class="polyStyle" id="710000" style="fill:#f6f67b"/>
<path d="" class="polyStyle" id="510400" style="fill:#f6f67b"/>
<path d="" class="polyStyle" id="522600" style="fill:#fbe6ef"/>
<path d="" class="polyStyle" id="520500" style="fill:#ee8b94"/>
<path d="" class="polyStyle" id="431200" style="fill:#f6f67b"/>
<path d="" class="polyStyle" id="430600" style="fill:#f6f67b"/>
<path d="" class="polyStyle" id="511400" style="fill:#d4ecb2"/>
<path d="" class="polyStyle" id="421000" style="fill:#ee8b94"/>
<path d="" class="polyStyle" id="341700" style="fill:#f6f67b"/>
<path d="" class="polyStyle" id="420500" style="fill:#f6f67b"/>
<path d="" class="polyStyle" id="511300" style="fill:#f6f67b"/>
<path d="" class="polyStyle" id="420900" style="fill:#f6f67b"/>
<path d="" class="polyStyle" id="511700" style="fill:#ee8b94"/>
<path d="" class="polyStyle" id="420600" style="fill:#d4ecb2"/>
<path d="" class="polyStyle" id="411500" style="fill:#fbe6ef"/>
<path d="" class="polyStyle" id="510800" style="fill:#ee8b94"/>
<path d="" class="polyStyle" id="420300" style="fill:#fbe6ef"/>
<path d="" class="polyStyle" id="611000" style="fill:#ee8b94"/>
<path d="" class="polyStyle" id="620800" style="fill:#fbe6ef"/>
<path d="" class="polyStyle" id="370200" style="fill:#ee8b94"/>
<path d="" class="polyStyle" id="371000" style="fill:#f6f67b"/>
<path d="" class="polyStyle" id="370600" style="fill:#fbe6ef"/>
<path d="" class="polyStyle" id="120000" style="fill:#f6f67b"/>
<path d="" class="polyStyle" id="130200" style="fill:#ee8b94"/>
<path d="" class="polyStyle" id="130300" style="fill:#f6f67b"/>
<path d="" class="polyStyle" id="652900" style="fill:#fbe6ef"/>
<path d="" class="polyStyle" id="150500" style="fill:#d4ecb2"/>
<path d="" class="polyStyle" id="" style="fill:#d4ecb2"/>
<path d="" class="polyStyle" id="350500" style="fill:#fbe6ef"/>
<path d="" class="polyStyle" id="440400" style="fill:#f6f67b"/>
<path d="" class="polyStyle" id="421100" style="fill:#d4ecb2"/>
<path d="" class="polyStyle" id="420100" style="fill:#fbe6ef"/>
<path d="" class="polyStyle" id="532500" style="fill:#fbe6ef"/>
<path d="" class="polyStyle" id="654200" style="fill:#fbe6ef"/>
<path d="" class="polyStyle" id="210700" style="fill:#d4ecb2"/>
<path d="" class="polyStyle" id="522300" style="fill:#fbe6ef"/>
<path d="" class="polyStyle" id="" style="fill:#ee8b94"/>
<path d="" class="polyStyle" id="440400" style="fill:#f6f67b"/>
<path d="" class="polyStyle" id="620000" style="fill:#f6f67b"/>
<path d="" class="polyStyle" id="430000" style="fill:#fbe6ef"/>
<path d="" class="polyStyle" id="420000" style="fill:#ee8b94"/>
<path d="" class="polyStyle" id="410000" style="fill:#f6f67b"/>
<path d="" class="polyStyle" id="350000" style="fill:#fbe6ef"/>
<path d="" class="polyStyle" id="520000" style="fill:#f6f67b"/>
<path d="" class="polyStyle" id="" style="fill:#ee8b94"/>
</svg>
