<?xml version="1.0" encoding="UTF-8"?>
<!DOCTYPE svg PUBLIC "-//W3C//DTD SVG 1.1 Tiny//EN" "http://www.w3.org/Graphics/SVG/1.1/DTD/svg11-tiny.dtd">
<svg version="1.1" xmlns="http://www.w3.org/2000/svg" xmlns:xlink="http://www.w3.org/1999/xlink" width="100%" height="100%" viewBox="0,0,3900,3906">
<title>SVG</title>
<desc>Poligon Test</desc>
<style id="style_css_sheet" type="text/css">
.polyStyle{fill: #cccccc;stroke-width:0;fill-rule:evenodd;}
</style>
<circle cx="2761" cy="1656" r="200" stroke="black" stroke-width="1" fill="red" id="360681"position="4" name="贵溪市"/>
<circle cx="655" cy="2114" r="200" stroke="black" stroke-width="1" fill="red" id="360622" name="余江县"/>
<circle cx="1744" cy="1958" r="200" stroke="black" stroke-width="1" fill="red" id="360602"position="4" name="月湖区"/>
<path d="" class="polyStyle" id="" style="fill:#ee8b94"/>
<path d="" class="polyStyle" id="623022" style="fill:#fbe6ef"/>
<path d="" class="polyStyle" id="211421" style="fill:#f6f67b"/>
<path d="" class="polyStyle" id="532524" style="fill:#ee8b94"/>
<path d="" class="polyStyle" id="440825" style="fill:#f6f67b"/>
<path d="" class="polyStyle" id="441721" style="fill:#f6f67b"/>
<path d="" class="polyStyle" id="450521" style="fill:#f6f67b"/>
<path d="" class="polyStyle" id="450123" style="fill:#fbe6ef"/>
<path d="" class="polyStyle" id="350624" style="fill:#f6f67b"/>
<path d="" class="polyStyle" id="" style="fill:#fbe6ef"/>
<path d="" class="polyStyle" id="451224" style="fill:#fbe6ef"/>
<path d="" class="polyStyle" id="350627" style="fill:#f6f67b"/>
<path d="" class="polyStyle" id="" style="fill:#f6f67b"/>
<path d="" class="polyStyle" id="350525" style="fill:#f6f67b"/>
<path d="" class="polyStyle" id="530124" style="fill:#ee8b94"/>
<path d="" class="polyStyle" id="522627" style="fill:#ee8b94"/>
<path d="" class="polyStyle" id="510421" style="fill:#fbe6ef"/>
<path d="" class="polyStyle" id="522623" style="fill:#d4ecb2"/>
<path d="" class="polyStyle" id="430321" style="fill:#d4ecb2"/>
<polygon points="1920,111 1949,150 1974,173 2005,169 2039,165 2101,196 2163,250 2196,306 2235,331 2258,328 2257,358 2272,366 2277,376 2274,392 2261,426 2245,452 2222,470 2182,485 2164,490 2153,502 2138,531 2127,548 2123,578 2121,640 2117,658 2106,667 2049,680 2025,690 2013,708 2004,738 1991,740 1987,757 1978,778 1926,776 1864,776 1855,771 1856,765 1861,742 1854,735 1831,743 1808,760 1782,738 1746,717 1701,708 1673,706 1654,703 1647,741 1627,781 1595,787 1564,798 1552,810 1533,844 1520,875 1516,912 1509,953 1481,960 1455,989 1452,1016 1480,1031 1503,1056 1520,1086 1526,1114 1532,1139 1532,1161 1522,1167 1507,1171 1501,1188 1508,1219 1519,1239 1532,1248 1536,1263 1534,1304 1535,1332 1516,1363 1473,1386 1440,1425 1413,1422 1385,1420 1391,1451 1407,1482 1410,1514 1418,1546 1428,1572 1440,1600 1450,1626 1478,1653 1509,1655 1539,1655 1567,1661 1589,1694 1596,1727 1601,1745 1596,1776 1583,1800 1567,1805 1535,1806 1497,1787 1472,1771 1458,1769 1441,1780 1446,1805 1467,1829 1466,1850 1428,1852 1415,1857 1422,1872 1429,1902 1437,1928 1451,1960 1455,1990 1454,2020 1449,2046 1447,2072 1438,2104 1450,2133 1459,2159 1466,2189 1477,2217 1488,2244 1495,2271 1492,2280 1489,2306 1487,2336 1489,2356 1481,2365 1465,2366 1445,2366 1434,2368 1436,2380 1441,2387 1458,2386 1470,2392 1465,2413 1453,2422 1448,2438 1446,2451 1454,2455 1470,2447 1485,2453 1484,2480 1475,2500 1459,2517 1446,2537 1434,2533 1421,2546 1411,2565 1391,2566 1369,2561 1354,2540 1340,2521 1320,2525 1314,2548 1304,2567 1276,2583 1253,2606 1241,2610 1233,2601 1219,2602 1182,2620 1168,2652 1160,2649 1132,2673 1119,2701 1106,2727 1111,2758 1111,2783 1083,2793 1055,2795 1015,2799 984,2781 966,2754 947,2728 920,2723 895,2723 864,2708 834,2711 830,2709 805,2679 776,2674 749,2652 725,2626 698,2618 671,2610 644,2624 618,2632 591,2662 566,2660 544,2634 547,2606 560,2581 531,2566 517,2532 518,2500 528,2469 533,2441 542,2416 564,2391 600,2364 606,2335 584,2304 556,2299 528,2288 497,2265 465,2246 436,2257 409,2271 380,2279 346,2288 318,2300 292,2301 282,2270 270,2239 242,2240 210,2250 183,2243 168,2213 186,2182 206,2154 215,2125 186,2111 153,2107 124,2117 94,2133 68,2127 42,2112 16,2085 3,2055 0,2027 11,1996 24,1967 44,1939 69,1915 98,1893 129,1883 161,1860 198,1833 223,1824 250,1819 286,1822 318,1846 348,1861 382,1870 410,1860 436,1849 463,1859 497,1876 529,1888 558,1870 559,1842 588,1833 588,1806 590,1781 619,1759 612,1732 636,1701 627,1672 608,1638 596,1611 567,1600 535,1600 531,1574 540,1546 543,1515 533,1489 517,1461 491,1442 491,1414 499,1403 508,1377 526,1344 553,1348 585,1337 591,1310 618,1284 645,1260 678,1243 705,1251 735,1259 762,1260 792,1259 827,1254 860,1247 889,1240 914,1214 917,1183 919,1155 920,1130 910,1104 884,1075 864,1045 864,1019 885,987 910,977 937,962 966,936 992,909 1018,880 1034,853 1037,823 1009,795 980,768 973,738 967,713 955,686 933,658 931,632 953,606 984,602 1009,616 1042,614 1071,588 1076,556 1096,545 1122,537 1153,517 1181,521 1216,519 1244,517 1270,500 1302,499 1328,510 1341,517 1391,540 1420,560 1445,568 1468,560 1488,534 1515,491 1534,490 1549,506 1554,525 1553,558 1558,588 1571,601 1588,599 1623,579 1672,540 1707,512 1724,476 1742,447 1761,420 1790,394 1809,369 1818,332 1820,307 1816,278 1801,245 1769,223 1777,215 1751,197 1750,171 1773,150 1768,140 1794,118 1838,104 1869,86 1895,88 " class="polyStyle" id="360622" style="fill:#d4ecb2"/>
<path d="" class="polyStyle" id="511129" style="fill:#d4ecb2"/>
<path d="" class="polyStyle" id="511423" style="fill:#ee8b94"/>
<path d="" class="polyStyle" id="421023" style="fill:#f6f67b"/>
<path d="" class="polyStyle" id="511724" style="fill:#f6f67b"/>
<path d="" class="polyStyle" id="420526" style="fill:#fbe6ef"/>
<path d="" class="polyStyle" id="511923" style="fill:#fbe6ef"/>
<path d="" class="polyStyle" id="420325" style="fill:#fbe6ef"/>
<path d="" class="polyStyle" id="511921" style="fill:#f6f67b"/>
<path d="" class="polyStyle" id="542525" style="fill:#f6f67b"/>
<path d="" class="polyStyle" id="611026" style="fill:#ee8b94"/>
<path d="" class="polyStyle" id="411023" style="fill:#fbe6ef"/>
<path d="" class="polyStyle" id="632323" style="fill:#f6f67b"/>
<path d="" class="polyStyle" id="140525" style="fill:#d4ecb2"/>
<path d="" class="polyStyle" id="410922" style="fill:#ee8b94"/>
<path d="" class="polyStyle" id="621027" style="fill:#ee8b94"/>
<path d="" class="polyStyle" id="130427" style="fill:#f6f67b"/>
<path d="" class="polyStyle" id="130121" style="fill:#ee8b94"/>
<path d="" class="polyStyle" id="610823" style="fill:#fbe6ef"/>
<path d="" class="polyStyle" id="130225" style="fill:#fbe6ef"/>
<path d="" class="polyStyle" id="130322" style="fill:#d4ecb2"/>
<path d="" class="polyStyle" id="653130" style="fill:#f6f67b"/>
<path d="" class="polyStyle" id="130822" style="fill:#fbe6ef"/>
<path d="" class="polyStyle" id="211221" style="fill:#f6f67b"/>
<path d="" class="polyStyle" id="210921" style="fill:#f6f67b"/>
<path d="" class="polyStyle" id="150223" style="fill:#f8c67d"/>
<path d="" class="polyStyle" id="220422" style="fill:#d4ecb2"/>
<path d="" class="polyStyle" id="340721" style="fill:#f6f67b"/>
<path d="" class="polyStyle" id="510824" style="fill:#d4ecb2"/>
<path d="" class="polyStyle" id="610324" style="fill:#f6f67b"/>
<path d="" class="polyStyle" id="530722" style="fill:#ee8b94"/>
<path d="" class="polyStyle" id="340823" style="fill:#d4ecb2"/>
<path d="" class="polyStyle" id="620825" style="fill:#d4ecb2"/>
<path d="" class="polyStyle" id="421125" style="fill:#ee8b94"/>
<path d="" class="polyStyle" id="210281" style="fill:#ee8b94"/>
<path d="" class="polyStyle" id="440883" style="fill:#f6f67b"/>
<path d="" class="polyStyle" id="469006" style="fill:#d4ecb2"/>
<path d="" class="polyStyle" id="469002" style="fill:#ee8b94"/>
<path d="" class="polyStyle" id="469005" style="fill:#fbe6ef"/>
<path d="" class="polyStyle" id="440882" style="fill:#ee8b94"/>
<path d="" class="polyStyle" id="450681" style="fill:#ee8b94"/>
<path d="" class="polyStyle" id="441581" style="fill:#d4ecb2"/>
<polygon points="2741,14 2767,47 2795,68 2825,72 2855,85 2883,118 2919,121 2932,149 2932,180 2945,206 2941,237 2966,270 2992,281 3010,311 3013,348 3034,382 3068,417 3094,438 3091,466 3103,492 3130,505 3125,539 3122,576 3116,604 3133,630 3155,658 3153,691 3142,725 3144,754 3151,795 3152,833 3153,863 3165,889 3199,906 3197,932 3187,967 3175,1006 3154,1038 3136,1064 3122,1095 3101,1131 3093,1159 3120,1168 3154,1182 3181,1183 3188,1211 3183,1246 3165,1282 3162,1310 3158,1352 3150,1380 3145,1415 3112,1416 3086,1428 3057,1447 3003,1473 2974,1489 2968,1532 2976,1564 2955,1601 2921,1601 2877,1594 2833,1584 2827,1611 2841,1639 2852,1671 2857,1703 2845,1729 2870,1756 2898,1749 2924,1753 2951,1751 2967,1777 2990,1803 2994,1832 3006,1861 3034,1885 3052,1916 3047,1943 3024,1969 3019,1994 2988,2001 2961,2018 2936,2049 2914,2083 2923,2117 2932,2154 2915,2185 2911,2210 2918,2247 2931,2273 2916,2301 2907,2341 2907,2381 2937,2401 2970,2398 3000,2412 3032,2404 3064,2413 3109,2424 3142,2435 3151,2467 3171,2498 3201,2499 3238,2497 3287,2483 3315,2453 3349,2478 3382,2496 3414,2513 3461,2542 3492,2553 3523,2552 3550,2565 3596,2578 3628,2583 3662,2562 3688,2572 3706,2601 3753,2621 3750,2647 3757,2675 3774,2701 3812,2753 3840,2799 3857,2831 3857,2866 3853,2894 3860,2923 3885,2947 3890,2978 3891,3014 3900,3039 3882,3069 3867,3098 3833,3128 3808,3155 3802,3192 3778,3223 3772,3253 3769,3280 3767,3305 3786,3337 3754,3365 3726,3390 3731,3419 3748,3449 3772,3478 3744,3516 3724,3530 3710,3534 3696,3546 3696,3550 3690,3564 3684,3584 3664,3598 3656,3606 3644,3616 3622,3636 3610,3654 3604,3658 3598,3662 3592,3664 3554,3672 3520,3686 3488,3700 3468,3706 3456,3706 3432,3704 3410,3704 3394,3710 3384,3714 3376,3718 3368,3724 3346,3748 3344,3752 3316,3790 3306,3826 3306,3842 3304,3848 3300,3850 3278,3856 3244,3862 3240,3858 3210,3830 3204,3826 3202,3822 3200,3812 3221,3753 3210,3698 3208,3694 3190,3680 3162,3660 3148,3660 3132,3662 3124,3668 3118,3680 3106,3696 3098,3706 3092,3720 3082,3736 3064,3766 3056,3774 3032,3782 3010,3788 2978,3796 2970,3798 2966,3798 2960,3796 2957,3789 2940,3784 2936,3784 2934,3788 2934,3794 2936,3806 2932,3842 2930,3850 2928,3868 2917,3885 2868,3828 2830,3788 2804,3782 2777,3761 2749,3721 2727,3710 2697,3692 2672,3684 2636,3669 2604,3675 2578,3705 2552,3723 2527,3735 2493,3716 2464,3685 2430,3684 2399,3679 2378,3647 2347,3636 2327,3662 2296,3686 2263,3688 2232,3659 2200,3623 2169,3586 2135,3591 2116,3618 2083,3647 2085,3675 2082,3705 2078,3734 2046,3750 2017,3725 1993,3698 1964,3671 1948,3700 1929,3737 1896,3755 1875,3784 1848,3810 1815,3836 1800,3867 1785,3900 1753,3906 1723,3904 1676,3897 1645,3877 1642,3847 1647,3820 1651,3793 1625,3769 1589,3746 1596,3733 1595,3705 1586,3669 1610,3638 1620,3600 1648,3582 1665,3550 1686,3518 1700,3483 1729,3483 1763,3474 1773,3447 1774,3417 1759,3388 1761,3359 1782,3328 1789,3294 1764,3279 1724,3257 1697,3255 1653,3233 1627,3220 1599,3202 1567,3184 1531,3125 1503,3105 1476,3086 1440,3060 1421,3023 1398,2999 1385,2974 1380,2938 1370,2907 1343,2898 1298,2907 1255,2927 1227,2931 1207,2919 1211,2906 1226,2893 1228,2883 1226,2872 1223,2865 1217,2830 1205,2800 1207,2774 1207,2748 1204,2715 1212,2683 1181,2658 1168,2652 1182,2620 1219,2602 1233,2601 1241,2610 1253,2606 1276,2583 1304,2567 1314,2548 1320,2525 1340,2521 1354,2540 1369,2561 1391,2566 1411,2565 1421,2546 1434,2533 1446,2537 1459,2517 1475,2500 1484,2480 1485,2453 1470,2447 1454,2455 1446,2451 1448,2438 1453,2422 1465,2413 1470,2392 1458,2386 1441,2387 1436,2380 1434,2368 1445,2366 1465,2366 1481,2365 1489,2356 1487,2336 1489,2306 1520,2317 1530,2319 1553,2310 1566,2286 1567,2264 1574,2260 1606,2249 1637,2245 1670,2227 1703,2209 1733,2212 1760,2202 1766,2200 1813,2201 1861,2187 1915,2154 1928,2130 1951,2106 1981,2092 2000,2069 1999,2037 1989,2022 1985,2014 1988,2000 2011,1991 2034,1982 2068,1987 2094,2001 2128,2005 2151,1992 2164,1969 2168,1940 2160,1936 2131,1939 2113,1951 2089,1931 2093,1910 2095,1892 2124,1877 2156,1864 2185,1853 2217,1835 2247,1824 2244,1793 2225,1763 2185,1746 2177,1720 2170,1686 2152,1658 2119,1646 2094,1642 2059,1640 2027,1632 1996,1629 1922,1633 1893,1648 1863,1676 1853,1721 1859,1746 1857,1781 1830,1779 1801,1764 1761,1745 1734,1729 1709,1739 1676,1717 1651,1709 1635,1735 1601,1745 1596,1727 1589,1694 1567,1661 1539,1655 1509,1655 1478,1653 1450,1626 1440,1600 1428,1572 1418,1546 1410,1514 1407,1482 1391,1451 1385,1420 1413,1422 1440,1425 1473,1386 1516,1363 1535,1332 1534,1304 1536,1263 1532,1248 1519,1239 1508,1219 1501,1188 1507,1171 1522,1167 1532,1161 1532,1139 1526,1114 1520,1086 1503,1056 1480,1031 1452,1016 1455,989 1481,960 1509,953 1516,912 1520,875 1533,844 1552,810 1564,798 1595,787 1627,781 1647,741 1654,703 1673,706 1701,708 1746,717 1782,738 1808,760 1831,743 1854,735 1861,742 1856,765 1855,771 1864,776 1926,776 1978,778 1987,757 1991,740 2004,738 2013,708 2025,690 2049,680 2106,667 2117,658 2121,640 2123,578 2127,548 2138,531 2153,502 2164,490 2182,485 2222,470 2245,452 2261,426 2274,392 2277,376 2272,366 2257,358 2258,328 2273,326 2311,321 2339,312 2366,293 2392,280 2422,270 2451,256 2471,229 2498,208 2528,202 2560,189 2588,178 2618,165 2645,139 2658,111 2668,81 2672,46 2657,17 2691,4 2720,0 2731,1 " class="polyStyle" id="360681" style="fill:#fbe6ef"/>
<path d="" class="polyStyle" id="421087" style="fill:#ee8b94"/>
<path d="" class="polyStyle" id="420984" style="fill:#fbe6ef"/>
<path d="" class="polyStyle" id="420582" style="fill:#ee8b94"/>
<path d="" class="polyStyle" id="370282" style="fill:#f6f67b"/>
<path d="" class="polyStyle" id="371083" style="fill:#f6f67b"/>
<path d="" class="polyStyle" id="371082" style="fill:#fbe6ef"/>
<path d="" class="polyStyle" id="652801" style="fill:#f8c67d"/>
<path d="" class="polyStyle" id="654301" style="fill:#ee8b94"/>
<path d="" class="polyStyle" id="370687" style="fill:#ee8b94"/>
<path d="" class="polyStyle" id="371482" style="fill:#d4ecb2"/>
<path d="" class="polyStyle" id="421081" style="fill:#fbe6ef"/>
<path d="" class="polyStyle" id="429006" style="fill:#f6f67b"/>
<path d="" class="polyStyle" id="440982" style="fill:#d4ecb2"/>
<path d="" class="polyStyle" id="421181" style="fill:#d4ecb2"/>
<path d="" class="polyStyle" id="321181" style="fill:#d4ecb2"/>
<path d="" class="polyStyle" id="659007" style="fill:#ee8b94"/>
<path d="" class="polyStyle" id="652701" style="fill:#fbe6ef"/>
<path d="" class="polyStyle" id="210781" style="fill:#fbe6ef"/>
<path d="" class="polyStyle" id="460204" style="fill:#f6f67b"/>
<path d="" class="polyStyle" id="210211" style="fill:#f6f67b"/>
<path d="" class="polyStyle" id="450512" style="fill:#ee8b94"/>
<path d="" class="polyStyle" id="450602" style="fill:#fbe6ef"/>
<path d="" class="polyStyle" id="440404" style="fill:#ee8b94"/>
<path d="" class="polyStyle" id="440403" style="fill:#f6f67b"/>
<path d="" class="polyStyle" id="441502" style="fill:#f6f67b"/>
<path d="" class="polyStyle" id="431002" style="fill:#d4ecb2"/>
<polygon points="2059,1640 2094,1642 2119,1646 2152,1658 2170,1686 2177,1720 2185,1746 2225,1763 2244,1793 2247,1824 2217,1835 2185,1853 2156,1864 2124,1877 2095,1892 2093,1910 2089,1931 2113,1951 2131,1939 2160,1936 2168,1940 2164,1969 2151,1992 2128,2005 2094,2001 2068,1987 2034,1982 2011,1991 1988,2000 1985,2014 1989,2022 1999,2037 2000,2069 1981,2092 1951,2106 1928,2130 1915,2154 1861,2187 1813,2201 1766,2200 1760,2202 1733,2212 1703,2209 1670,2227 1637,2245 1606,2249 1574,2260 1567,2264 1566,2286 1553,2310 1530,2319 1520,2317 1489,2306 1492,2280 1495,2271 1488,2244 1477,2217 1466,2189 1459,2159 1450,2133 1438,2104 1447,2072 1449,2046 1454,2020 1455,1990 1451,1960 1437,1928 1429,1902 1422,1872 1415,1857 1428,1852 1466,1850 1467,1829 1446,1805 1441,1780 1458,1769 1472,1771 1497,1787 1535,1806 1567,1805 1583,1800 1596,1776 1601,1745 1635,1735 1651,1709 1676,1717 1709,1739 1734,1729 1761,1745 1801,1764 1830,1779 1857,1781 1859,1746 1853,1721 1863,1676 1893,1648 1922,1633 1996,1629 2027,1632 " class="polyStyle" id="360602" style="fill:#f6f67b"/>
<path d="" class="polyStyle" id="500107" style="fill:#fbe6ef"/>
<path d="" class="polyStyle" id="430611" style="fill:#d4ecb2"/>
<path d="" class="polyStyle" id="511304" style="fill:#fbe6ef"/>
<path d="" class="polyStyle" id="340711" style="fill:#ee8b94"/>
<path d="" class="polyStyle" id="320118" style="fill:#f6f67b"/>
<path d="" class="polyStyle" id="510704" style="fill:#f6f67b"/>
<path d="" class="polyStyle" id="411502" style="fill:#ee8b94"/>
<path d="" class="polyStyle" id="320302" style="fill:#d4ecb2"/>
<path d="" class="polyStyle" id="140311" style="fill:#ee8b94"/>
<path d="" class="polyStyle" id="610802" style="fill:#ee8b94"/>
<path d="" class="polyStyle" id="120116" style="fill:#f6f67b"/>
<path d="" class="polyStyle" id="130303" style="fill:#fbe6ef"/>
<path d="" class="polyStyle" id="140211" style="fill:#f6f67b"/>
<path d="" class="polyStyle" id="150207" style="fill:#fbe6ef"/>
<path d="" class="polyStyle" id="211403" style="fill:#f6f67b"/>
<path d="" class="polyStyle" id="150802" style="fill:#f8c67d"/>
<path d="" class="polyStyle" id="210112" style="fill:#ee8b94"/>
<path d="" class="polyStyle" id="230406" style="fill:#d4ecb2"/>
<path d="" class="polyStyle" id="110113" style="fill:#fbe6ef"/>
<path d="" class="polyStyle" id="341702" style="fill:#fbe6ef"/>
<path d="" class="polyStyle" id="420303" style="fill:#ee8b94"/>
<path d="" class="polyStyle" id="340702" style="fill:#d4ecb2"/>
<path d="" class="polyStyle" id="421002" style="fill:#f6f67b"/>
<path d="" class="polyStyle" id="420117" style="fill:#f6f67b"/>
<path d="" class="polyStyle" id="440904" style="fill:#f8c67d"/>
<path d="" class="polyStyle" id="460205" style="fill:#ee8b94"/>
<path d="" class="polyStyle" id="460202" style="fill:#f6f67b"/>
<path d="" class="polyStyle" id="460203" style="fill:#fbe6ef"/>
<path d="" class="polyStyle" id="420304" style="fill:#f6f67b"/>
<path d="" class="polyStyle" id="445302" style="fill:#ee8b94"/>
<path d="" class="polyStyle" id="410202" style="fill:#d4ecb2"/>
<path d="" class="polyStyle" id="440800" style="fill:#f6f67b"/>
<path d="" class="polyStyle" id="440900" style="fill:#ee8b94"/>
<path d="" class="polyStyle" id="340800" style="fill:#ee8b94"/>
<path d="" class="polyStyle" id="460200" style="fill:#f6f67b"/>
<path d="" class="polyStyle" id="460000" style="fill:#ee8b94"/>
<path d="" class="polyStyle" id="450500" style="fill:#ee8b94"/>
<path d="" class="polyStyle" id="450600" style="fill:#ee8b94"/>
<path d="" class="polyStyle" id="440400" style="fill:#f6f67b"/>
<path d="" class="polyStyle" id="441700" style="fill:#f6f67b"/>
<path d="" class="polyStyle" id="441500" style="fill:#f6f67b"/>
<path d="" class="polyStyle" id="350600" style="fill:#ee8b94"/>
<path d="" class="polyStyle" id="710000" style="fill:#f6f67b"/>
<path d="" class="polyStyle" id="510400" style="fill:#f6f67b"/>
<path d="" class="polyStyle" id="522600" style="fill:#fbe6ef"/>
<path d="" class="polyStyle" id="520500" style="fill:#ee8b94"/>
<path d="" class="polyStyle" id="431200" style="fill:#f6f67b"/>
<path d="" class="polyStyle" id="430600" style="fill:#f6f67b"/>
<path d="" class="polyStyle" id="511400" style="fill:#d4ecb2"/>
<path d="" class="polyStyle" id="421000" style="fill:#ee8b94"/>
<path d="" class="polyStyle" id="341700" style="fill:#f6f67b"/>
<path d="" class="polyStyle" id="420500" style="fill:#f6f67b"/>
<path d="" class="polyStyle" id="511300" style="fill:#f6f67b"/>
<path d="" class="polyStyle" id="420900" style="fill:#f6f67b"/>
<path d="" class="polyStyle" id="511700" style="fill:#ee8b94"/>
<path d="" class="polyStyle" id="420600" style="fill:#d4ecb2"/>
<path d="" class="polyStyle" id="411500" style="fill:#fbe6ef"/>
<path d="" class="polyStyle" id="510800" style="fill:#ee8b94"/>
<path d="" class="polyStyle" id="420300" style="fill:#fbe6ef"/>
<path d="" class="polyStyle" id="611000" style="fill:#ee8b94"/>
<path d="" class="polyStyle" id="620800" style="fill:#fbe6ef"/>
<path d="" class="polyStyle" id="370200" style="fill:#ee8b94"/>
<path d="" class="polyStyle" id="371000" style="fill:#f6f67b"/>
<path d="" class="polyStyle" id="370600" style="fill:#fbe6ef"/>
<path d="" class="polyStyle" id="120000" style="fill:#f6f67b"/>
<path d="" class="polyStyle" id="130200" style="fill:#ee8b94"/>
<path d="" class="polyStyle" id="130300" style="fill:#f6f67b"/>
<path d="" class="polyStyle" id="652900" style="fill:#fbe6ef"/>
<path d="" class="polyStyle" id="150500" style="fill:#d4ecb2"/>
<path d="" class="polyStyle" id="" style="fill:#d4ecb2"/>
<path d="" class="polyStyle" id="350500" style="fill:#fbe6ef"/>
<path d="" class="polyStyle" id="440400" style="fill:#f6f67b"/>
<path d="" class="polyStyle" id="421100" style="fill:#d4ecb2"/>
<path d="" class="polyStyle" id="420100" style="fill:#fbe6ef"/>
<path d="" class="polyStyle" id="532500" style="fill:#fbe6ef"/>
<path d="" class="polyStyle" id="654200" style="fill:#fbe6ef"/>
<path d="" class="polyStyle" id="210700" style="fill:#d4ecb2"/>
<path d="" class="polyStyle" id="522300" style="fill:#fbe6ef"/>
<path d="" class="polyStyle" id="" style="fill:#ee8b94"/>
<path d="" class="polyStyle" id="440400" style="fill:#f6f67b"/>
<path d="" class="polyStyle" id="620000" style="fill:#f6f67b"/>
<path d="" class="polyStyle" id="430000" style="fill:#fbe6ef"/>
<path d="" class="polyStyle" id="420000" style="fill:#ee8b94"/>
<path d="" class="polyStyle" id="410000" style="fill:#f6f67b"/>
<path d="" class="polyStyle" id="350000" style="fill:#fbe6ef"/>
<path d="" class="polyStyle" id="520000" style="fill:#f6f67b"/>
<path d="" class="polyStyle" id="" style="fill:#ee8b94"/>
</svg>
