<?xml version="1.0" encoding="UTF-8"?>
<!DOCTYPE svg PUBLIC "-//W3C//DTD SVG 1.1 Tiny//EN" "http://www.w3.org/Graphics/SVG/1.1/DTD/svg11-tiny.dtd">
<svg version="1.1" xmlns="http://www.w3.org/2000/svg" xmlns:xlink="http://www.w3.org/1999/xlink" width="100%" height="100%" viewBox="0,0,10505,9942">
<title>SVG</title>
<desc>Poligon Test</desc>
<style id="style_css_sheet" type="text/css">
.polyStyle{fill: #cccccc;stroke-width:0;fill-rule:evenodd;}
</style>
<circle cx="2166" cy="6183" r="200" stroke="black" stroke-width="1" fill="red" id="360881"position="44" name="井冈山市"/>
<circle cx="5339" cy="4588" r="200" stroke="black" stroke-width="1" fill="red" id="360821" position="33"name="吉安县"/>
<circle cx="6490" cy="3744" r="200" stroke="black" stroke-width="1" fill="red" id="360822" name="吉水县"/>
<circle cx="8004" cy="3211" r="200" stroke="black" stroke-width="1" fill="red" id="360825" name="永丰县"/>
<circle cx="3908" cy="2888" r="200" stroke="black" stroke-width="1" fill="red" id="360829" name="安福县"/>
<circle cx="7489" cy="1779" r="200" stroke="black" stroke-width="1" fill="red" id="360823" name="峡江县"/>
<circle cx="7800" cy="1018" r="200" stroke="black" stroke-width="1" fill="red" id="360824" name="新干县"/>
<circle cx="5315" cy="5856" r="200" stroke="black" stroke-width="1" fill="red" id="360826" name="泰和县"/>
<circle cx="4791" cy="7519" r="200" stroke="black" stroke-width="1" fill="red" id="360828" name="万安县"/>
<circle cx="2043" cy="5048" r="200" stroke="black" stroke-width="1" fill="red" id="360830" name="永新县"/>
<circle cx="3415" cy="8212" r="200" stroke="black" stroke-width="1" fill="red" id="360827" name="遂川县"/>
<circle cx="5754" cy="4234" r="200" stroke="black" stroke-width="1" fill="red" id="360802" name="吉州区"/>
<circle cx="5892" cy="4366" r="200" stroke="black" stroke-width="1" fill="red" id="360803" name="青原区"/>
<path d="" class="polyStyle" id="" style="fill:#ee8b94"/>
<path d="" class="polyStyle" id="623022" style="fill:#fbe6ef"/>
<path d="" class="polyStyle" id="211421" style="fill:#f6f67b"/>
<path d="" class="polyStyle" id="532524" style="fill:#ee8b94"/>
<path d="" class="polyStyle" id="440825" style="fill:#f6f67b"/>
<path d="" class="polyStyle" id="441721" style="fill:#f6f67b"/>
<path d="" class="polyStyle" id="450521" style="fill:#f6f67b"/>
<path d="" class="polyStyle" id="450123" style="fill:#fbe6ef"/>
<path d="" class="polyStyle" id="350624" style="fill:#f6f67b"/>
<path d="" class="polyStyle" id="" style="fill:#fbe6ef"/>
<path d="" class="polyStyle" id="451224" style="fill:#fbe6ef"/>
<path d="" class="polyStyle" id="350627" style="fill:#f6f67b"/>
<path d="" class="polyStyle" id="" style="fill:#f6f67b"/>
<path d="" class="polyStyle" id="350525" style="fill:#f6f67b"/>
<path d="" class="polyStyle" id="530124" style="fill:#ee8b94"/>
<polygon points="3406,6288 3407,6315 3418,6345 3413,6370 3422,6400 3431,6426 3464,6448 3491,6470 3519,6494 3548,6513 3568,6542 3596,6560 3622,6568 3649,6573 3675,6580 3704,6598 3676,6617 3673,6646 3685,6675 3686,6705 3688,6737 3670,6765 3672,6790 3647,6823 3660,6852 3642,6880 3638,6905 3631,6931 3600,6947 3566,6962 3543,6992 3524,7025 3499,7056 3466,7070 3437,7094 3435,7125 3420,7153 3433,7183 3460,7185 3484,7212 3510,7212 3536,7207 3530,7232 3529,7257 3545,7288 3533,7319 3529,7348 3555,7346 3589,7348 3617,7348 3645,7371 3669,7397 3691,7424 3720,7442 3753,7430 3780,7423 3807,7414 3834,7411 3861,7413 3887,7422 3915,7428 3940,7439 3967,7437 3994,7432 4022,7441 4053,7442 4065,7473 4094,7470 4112,7499 4099,7530 4116,7559 4143,7554 4170,7576 4180,7608 4158,7635 4154,7660 4128,7670 4100,7677 4091,7706 4085,7739 4112,7756 4139,7765 4165,7787 4194,7785 4221,7781 4254,7797 4282,7808 4307,7835 4339,7866 4373,7882 4400,7887 4427,7880 4455,7858 4484,7854 4512,7852 4546,7835 4572,7832 4599,7828 4624,7830 4656,7849 4682,7873 4671,7902 4648,7933 4650,7959 4654,7991 4640,8025 4633,8050 4621,8082 4636,8117 4653,8147 4631,8178 4600,8202 4572,8231 4568,8257 4567,8283 4538,8262 4513,8289 4491,8315 4477,8347 4485,8375 4457,8398 4431,8418 4406,8445 4380,8472 4372,8498 4378,8529 4366,8557 4337,8577 4311,8582 4295,8588 4263,8603 4262,8637 4256,8667 4263,8693 4234,8709 4216,8735 4205,8765 4178,8786 4181,8819 4172,8831 4153,8824 4120,8823 4080,8828 4047,8827 4007,8809 3980,8794 3949,8792 3907,8803 3860,8788 3866,8752 3878,8721 3856,8680 3818,8670 3800,8641 3765,8640 3730,8621 3694,8631 3654,8657 3620,8662 3583,8689 3568,8722 3543,8735 3510,8719 3482,8711 3451,8740 3442,8772 3429,8808 3427,8839 3402,8865 3383,8892 3354,8918 3326,8947 3294,8962 3271,8980 3248,9010 3230,9043 3204,9060 3172,9070 3144,9082 3105,9074 3098,9108 3103,9141 3109,9174 3111,9203 3109,9232 3072,9245 3037,9270 3023,9296 3007,9325 2992,9358 2963,9386 2965,9353 2950,9323 2952,9286 2937,9260 2906,9266 2870,9263 2835,9236 2808,9242 2773,9241 2743,9223 2717,9223 2687,9233 2659,9267 2650,9293 2631,9319 2611,9350 2576,9358 2549,9362 2522,9383 2500,9416 2473,9423 2444,9443 2416,9458 2387,9467 2369,9495 2343,9517 2315,9532 2286,9561 2294,9591 2299,9619 2267,9630 2235,9644 2203,9634 2175,9656 2140,9662 2106,9672 2067,9672 2039,9675 2009,9665 1973,9677 1941,9702 1914,9705 1881,9692 1835,9675 1804,9667 1766,9660 1734,9667 1706,9662 1676,9672 1643,9676 1618,9684 1592,9702 1581,9732 1561,9758 1536,9771 1504,9787 1470,9796 1436,9782 1410,9804 1379,9819 1353,9846 1317,9838 1284,9843 1256,9844 1223,9851 1197,9871 1166,9852 1137,9845 1100,9849 1061,9858 1020,9870 985,9904 949,9937 935,9942 936,9940 948,9918 954,9910 962,9892 966,9876 964,9862 960,9852 948,9844 926,9838 904,9826 882,9798 870,9770 864,9748 866,9738 870,9728 910,9704 914,9682 924,9670 936,9656 974,9624 990,9608 1002,9592 1012,9576 1014,9560 1012,9540 1006,9520 1006,9504 1012,9494 1030,9478 1048,9460 1056,9440 1052,9412 1060,9408 1072,9408 1100,9412 1124,9412 1170,9406 1180,9408 1204,9430 1218,9452 1228,9458 1248,9464 1278,9460 1360,9440 1386,9432 1412,9406 1426,9378 1426,9360 1412,9352 1394,9346 1378,9336 1366,9328 1356,9316 1354,9312 1354,9304 1358,9300 1384,9290 1422,9278 1476,9266 1516,9254 1532,9246 1564,9232 1616,9206 1650,9194 1674,9186 1684,9184 1698,9184 1722,9186 1752,9188 1784,9176 1836,9144 1982,9052 2016,9034 2012,9017 2008,9012 2004,9008 1996,9004 1964,9006 1948,9008 1932,9004 1930,9000 1926,8990 1923,8981 1918,8962 1922,8948 1936,8934 1972,8910 1984,8898 1982,8884 1968,8876 1950,8864 1930,8852 1928,8830 1922,8800 1914,8790 1906,8784 1880,8786 1872,8786 1798,8808 1784,8812 1754,8814 1750,8808 1738,8752 1732,8734 1720,8734 1704,8736 1616,8766 1562,8792 1500,8808 1470,8818 1452,8808 1416,8836 1376,8854 1336,8868 1328,8882 1326,8908 1288,8924 1280,8944 1266,8956 1226,8956 1196,8944 1184,8944 1164,8952 1132,8974 1126,8976 1118,8974 1114,8956 1114,8936 1116,8914 1106,8902 1068,8914 1044,8918 1032,8914 1032,8892 1038,8872 1012,8864 994,8860 960,8900 950,8900 924,8890 912,8886 892,8884 864,8892 838,8912 802,8952 774,8962 750,8972 726,8986 712,8998 700,9012 674,9026 656,9036 644,9044 636,9046 632,9046 539,8978 540,8974 546,8968 562,8962 588,8952 592,8950 598,8942 600,8934 600,8930 596,8906 594,8900 578,8894 570,8892 562,8888 558,8884 558,8880 558,8874 562,8864 564,8852 568,8842 574,8838 586,8828 612,8818 652,8808 670,8798 680,8784 690,8754 688,8732 688,8716 702,8698 720,8676 726,8646 716,8616 736,8598 784,8566 818,8556 876,8516 910,8518 940,8486 970,8472 958,8450 940,8430 928,8390 926,8384 930,8356 952,8318 966,8306 1030,8258 1032,8238 1020,8220 1006,8194 1004,8166 1020,8144 1042,8126 1056,8114 1058,8104 1040,8086 1024,8062 1020,8038 1018,8010 1014,7994 1004,7978 978,7950 972,7936 978,7924 1020,7900 1032,7884 1046,7852 1056,7842 1086,7840 1098,7824 1104,7820 1130,7788 1138,7776 1142,7772 1148,7768 1154,7762 1172,7756 1178,7754 1188,7764 1196,7774 1200,7778 1218,7784 1238,7778 1254,7766 1266,7744 1272,7730 1272,7724 1323,7704 1347,7700 1374,7697 1402,7694 1430,7686 1456,7680 1484,7676 1513,7674 1543,7672 1565,7677 1590,7691 1614,7723 1627,7768 1628,7811 1620,7843 1633,7861 1665,7875 1847,7940 1937,7955 1997,7962 2035,7952 2089,7935 2140,7913 2175,7890 2222,7841 2250,7813 2293,7777 2333,7752 2344,7746 2357,7736 2371,7709 2364,7677 2349,7668 2289,7635 2235,7620 2155,7608 2130,7604 2114,7582 2110,7555 2129,7535 2165,7514 2195,7495 2204,7464 2206,7448 2234,7425 2269,7405 2305,7397 2337,7378 2354,7353 2356,7330 2342,7318 2324,7318 2309,7297 2292,7275 2252,7230 2199,7192 2145,7165 2128,7158 2101,7146 2075,7136 2047,7125 2021,7114 1993,7109 1967,7114 1939,7111 1929,7083 1927,7058 1932,7025 1963,6997 1991,6996 2019,6990 2049,6972 2075,6947 2094,6918 2121,6911 2149,6904 2177,6900 2203,6898 2226,6871 2248,6844 2244,6814 2268,6786 2262,6755 2253,6728 2224,6705 2213,6679 2190,6650 2172,6620 2150,6593 2159,6561 2170,6529 2185,6487 2193,6465 2222,6400 2250,6375 2262,6371 2288,6362 2316,6365 2362,6382 2371,6386 2396,6393 2410,6410 2442,6426 2457,6435 2486,6448 2513,6442 2542,6422 2568,6410 2597,6389 2618,6361 2641,6333 2668,6327 2696,6329 2721,6339 2749,6343 2777,6339 2805,6347 2838,6363 2865,6363 2893,6359 2921,6352 2948,6340 2980,6321 3006,6311 3032,6299 3060,6293 3088,6289 3116,6293 3143,6301 3174,6318 3191,6348 3223,6360 3252,6381 3263,6412 3294,6428 3320,6429 3326,6398 3316,6366 3300,6336 3290,6305 3320,6287 3345,6260 3377,6248 3409,6255 " class="polyStyle" id="360827" style="fill:#d4ecb2"/>
<polygon points="3912,6212 3938,6223 3953,6251 3974,6279 3999,6303 4026,6332 4042,6361 4059,6394 4078,6406 4101,6429 4122,6457 4147,6482 4170,6507 4198,6516 4225,6515 4253,6518 4280,6516 4316,6513 4320,6493 4325,6462 4356,6439 4381,6413 4406,6386 4435,6360 4453,6334 4481,6272 4514,6244 4540,6250 4550,6281 4555,6311 4582,6295 4609,6273 4635,6262 4663,6255 4664,6285 4662,6318 4664,6352 4686,6377 4712,6382 4740,6391 4763,6417 4763,6444 4779,6475 4791,6501 4824,6518 4858,6533 4885,6524 4904,6494 4930,6464 4950,6433 4969,6402 4984,6371 4986,6345 4977,6313 4993,6287 5022,6288 5053,6292 5082,6293 5107,6306 5136,6332 5148,6363 5156,6396 5181,6416 5210,6422 5236,6433 5261,6458 5244,6487 5218,6494 5214,6520 5199,6550 5198,6583 5219,6611 5235,6637 5241,6663 5252,6697 5279,6716 5309,6721 5337,6733 5363,6745 5390,6758 5416,6784 5420,6808 5408,6840 5425,6871 5433,6900 5421,6931 5446,6952 5452,6985 5446,7017 5468,7050 5503,7053 5531,7064 5561,7092 5584,7121 5594,7148 5622,7148 5654,7144 5691,7125 5724,7108 5752,7124 5763,7154 5765,7185 5800,7186 5832,7192 5858,7209 5882,7241 5913,7258 5936,7285 5962,7307 5949,7339 5924,7364 5898,7365 5901,7391 5921,7420 5936,7447 5963,7471 5985,7499 6017,7527 6046,7531 6075,7530 6105,7549 6135,7563 6130,7569 6121,7597 6117,7626 6096,7657 6094,7685 6089,7715 6067,7743 6064,7774 6058,7803 6029,7828 6022,7858 6028,7887 6041,7912 6023,7938 6012,7963 5986,7991 5979,8019 6010,8044 6034,8075 6060,8101 6086,8115 6115,8141 6137,8168 6164,8183 6165,8212 6194,8235 6198,8262 6178,8294 6175,8323 6179,8354 6191,8383 6219,8398 6239,8423 6266,8450 6280,8476 6276,8485 6247,8507 6219,8529 6223,8558 6246,8587 6220,8602 6190,8625 6162,8656 6133,8664 6101,8689 6076,8718 6062,8745 6085,8773 6073,8798 6056,8824 6088,8829 6119,8836 6152,8837 6178,8863 6210,8862 6241,8881 6253,8907 6284,8915 6311,8932 6329,8958 6330,8986 6303,9012 6290,9043 6262,9056 6231,9073 6202,9082 6171,9084 6145,9087 6112,9066 6081,9048 6058,9017 6029,9004 5996,9008 5967,8994 5953,8968 5953,8940 5926,8928 5902,8955 5877,8945 5878,8916 5872,8887 5869,8858 5845,8831 5813,8812 5783,8817 5751,8823 5718,8816 5690,8796 5662,8810 5631,8812 5600,8804 5568,8795 5537,8798 5509,8797 5502,8771 5473,8760 5440,8759 5408,8755 5380,8742 5353,8767 5334,8792 5302,8788 5269,8785 5247,8811 5224,8840 5223,8868 5197,8877 5165,8871 5137,8856 5133,8831 5098,8813 5065,8810 5041,8838 5016,8833 4985,8855 4953,8858 4930,8883 4895,8887 4862,8891 4820,8886 4794,8874 4765,8860 4731,8861 4702,8840 4670,8864 4656,8892 4642,8925 4610,8908 4574,8895 4541,8878 4501,8877 4466,8890 4462,8921 4437,8951 4408,8980 4373,8982 4375,8975 4347,8948 4320,8946 4289,8928 4255,8893 4228,8895 4199,8889 4160,8865 4172,8831 4181,8819 4178,8786 4205,8765 4216,8735 4234,8709 4263,8693 4256,8667 4262,8637 4263,8603 4295,8588 4311,8582 4337,8577 4366,8557 4378,8529 4372,8498 4380,8472 4406,8445 4431,8418 4457,8398 4485,8375 4477,8347 4491,8315 4513,8289 4538,8262 4567,8283 4568,8257 4572,8231 4600,8202 4631,8178 4653,8147 4636,8117 4621,8082 4633,8050 4640,8025 4654,7991 4650,7959 4648,7933 4671,7902 4682,7873 4656,7849 4624,7830 4599,7828 4572,7832 4546,7835 4512,7852 4484,7854 4455,7858 4427,7880 4400,7887 4373,7882 4339,7866 4307,7835 4282,7808 4254,7797 4221,7781 4194,7785 4165,7787 4139,7765 4112,7756 4085,7739 4091,7706 4100,7677 4128,7670 4154,7660 4158,7635 4180,7608 4170,7576 4143,7554 4116,7559 4099,7530 4112,7499 4094,7470 4065,7473 4053,7442 4022,7441 3994,7432 3967,7437 3940,7439 3915,7428 3887,7422 3861,7413 3834,7411 3807,7414 3780,7423 3753,7430 3720,7442 3691,7424 3669,7397 3645,7371 3617,7348 3589,7348 3555,7346 3529,7348 3533,7319 3545,7288 3529,7257 3530,7232 3536,7207 3510,7212 3484,7212 3460,7185 3433,7183 3420,7153 3435,7125 3437,7094 3466,7070 3499,7056 3524,7025 3543,6992 3566,6962 3600,6947 3631,6931 3638,6905 3642,6880 3660,6852 3647,6823 3672,6790 3670,6765 3688,6737 3686,6705 3685,6675 3673,6646 3676,6617 3704,6598 3675,6580 3649,6573 3622,6568 3596,6560 3568,6542 3548,6513 3519,6494 3491,6470 3464,6448 3431,6426 3422,6400 3413,6370 3418,6345 3407,6315 3440,6329 3466,6337 3493,6331 3521,6339 3547,6363 3580,6383 3593,6351 3607,6321 3618,6289 3630,6267 3652,6255 3664,6239 3675,6233 3704,6229 3732,6220 3758,6214 3791,6194 3823,6176 3854,6155 3881,6153 3895,6183 " class="polyStyle" id="360828" style="fill:#f6f67b"/>
<polygon points="6074,5022 6104,5052 6118,5084 6145,5108 6172,5119 6205,5136 6231,5148 6260,5173 6266,5205 6293,5215 6300,5247 6294,5273 6288,5298 6288,5325 6267,5353 6268,5378 6287,5408 6306,5451 6329,5478 6335,5503 6337,5530 6370,5545 6382,5551 6395,5553 6425,5544 6454,5540 6482,5547 6504,5576 6535,5603 6562,5612 6590,5616 6618,5621 6647,5626 6675,5625 6681,5636 6692,5651 6709,5662 6718,5665 6732,5671 6760,5689 6792,5705 6824,5721 6851,5733 6864,5765 6887,5791 6905,5822 6901,5850 6938,5867 6965,5872 6992,5884 7022,5884 7053,5881 7084,5897 7100,5924 7106,5950 7140,5972 7165,5989 7191,6002 7218,6017 7245,6027 7272,6052 7286,6084 7313,6106 7342,6115 7341,6148 7335,6173 7348,6205 7373,6232 7401,6236 7428,6262 7438,6289 7464,6312 7446,6342 7478,6369 7489,6394 7488,6421 7500,6441 7492,6456 7476,6483 7446,6492 7421,6494 7393,6508 7366,6523 7339,6544 7347,6573 7353,6602 7351,6630 7325,6658 7296,6674 7266,6685 7259,6714 7248,6744 7221,6771 7190,6782 7161,6797 7150,6825 7137,6851 7123,6877 7115,6906 7091,6938 7059,6960 7031,6980 7003,7008 6991,7035 6969,7066 6953,7092 6949,7123 6972,7152 6982,7180 6973,7208 6945,7224 6919,7231 6890,7228 6859,7218 6827,7210 6797,7202 6767,7196 6737,7195 6705,7197 6673,7193 6647,7192 6619,7204 6589,7219 6557,7230 6525,7239 6493,7243 6460,7265 6431,7274 6400,7283 6371,7307 6344,7335 6319,7355 6291,7382 6266,7412 6249,7437 6234,7464 6205,7490 6194,7517 6166,7543 6135,7563 6105,7549 6075,7530 6046,7531 6017,7527 5985,7499 5963,7471 5936,7447 5921,7420 5901,7391 5898,7365 5924,7364 5949,7339 5962,7307 5936,7285 5913,7258 5882,7241 5858,7209 5832,7192 5800,7186 5765,7185 5763,7154 5752,7124 5724,7108 5691,7125 5654,7144 5622,7148 5594,7148 5584,7121 5561,7092 5531,7064 5503,7053 5468,7050 5446,7017 5452,6985 5446,6952 5421,6931 5433,6900 5425,6871 5408,6840 5420,6808 5416,6784 5390,6758 5363,6745 5337,6733 5309,6721 5279,6716 5252,6697 5241,6663 5235,6637 5219,6611 5198,6583 5199,6550 5214,6520 5218,6494 5244,6487 5261,6458 5236,6433 5210,6422 5181,6416 5156,6396 5148,6363 5136,6332 5107,6306 5082,6293 5053,6292 5022,6288 4993,6287 4977,6313 4986,6345 4984,6371 4969,6402 4950,6433 4930,6464 4904,6494 4885,6524 4858,6533 4824,6518 4791,6501 4779,6475 4763,6444 4763,6417 4740,6391 4712,6382 4686,6377 4664,6352 4662,6318 4664,6285 4663,6255 4635,6262 4609,6273 4582,6295 4555,6311 4550,6281 4540,6250 4514,6244 4481,6272 4453,6334 4435,6360 4406,6386 4381,6413 4356,6439 4325,6462 4320,6493 4316,6513 4280,6516 4253,6518 4225,6515 4198,6516 4170,6507 4147,6482 4122,6457 4101,6429 4078,6406 4059,6394 4042,6361 4026,6332 3999,6303 3974,6279 3953,6251 3938,6223 3912,6212 3895,6183 3881,6153 3854,6155 3823,6176 3791,6194 3758,6214 3732,6220 3704,6229 3675,6233 3664,6239 3652,6255 3630,6267 3618,6289 3607,6321 3593,6351 3580,6383 3547,6363 3521,6339 3493,6331 3466,6337 3440,6329 3407,6315 3406,6288 3409,6255 3377,6248 3345,6260 3320,6287 3290,6305 3300,6336 3316,6366 3326,6398 3320,6429 3294,6428 3263,6412 3252,6381 3223,6360 3191,6348 3174,6318 3143,6301 3116,6293 3088,6289 3060,6293 3032,6299 3006,6311 2980,6321 2948,6340 2921,6352 2893,6359 2865,6363 2838,6363 2805,6347 2777,6339 2749,6343 2721,6339 2696,6329 2668,6327 2641,6333 2618,6361 2597,6389 2568,6410 2542,6422 2513,6442 2486,6448 2457,6435 2442,6426 2410,6410 2396,6393 2371,6386 2362,6382 2391,6323 2409,6292 2438,6261 2457,6218 2470,6197 2477,6186 2502,6160 2533,6129 2535,6097 2549,6066 2559,6035 2559,6003 2571,5972 2573,5940 2590,5910 2600,5880 2591,5849 2556,5825 2563,5823 2590,5817 2599,5815 2627,5799 2654,5783 2663,5775 2680,5749 2706,5724 2733,5719 2760,5712 2782,5686 2810,5665 2837,5655 2864,5652 2894,5637 2925,5655 2956,5650 2988,5665 3016,5681 3042,5691 3069,5700 3110,5704 3139,5698 3156,5702 3187,5699 3214,5688 3244,5668 3235,5636 3226,5603 3259,5590 3285,5566 3313,5547 3339,5545 3374,5548 3399,5551 3423,5551 3451,5554 3485,5556 3518,5572 3546,5584 3573,5589 3607,5607 3635,5610 3668,5617 3698,5619 3716,5629 3742,5644 3769,5647 3796,5650 3822,5657 3850,5662 3871,5667 3902,5671 3930,5667 3957,5637 3987,5606 4003,5577 4033,5548 4048,5533 4070,5485 4087,5452 4095,5427 4100,5402 4115,5373 4148,5363 4195,5354 4240,5354 4287,5358 4312,5355 4329,5338 4354,5297 4380,5258 4410,5227 4433,5217 4453,5217 4466,5218 4492,5219 4518,5210 4546,5188 4573,5186 4600,5191 4631,5191 4656,5181 4683,5172 4711,5180 4741,5198 4770,5211 4774,5177 4792,5152 4824,5135 4840,5105 4825,5073 4843,5048 4873,5029 4898,5010 4927,4999 4947,4991 4975,4986 5003,4981 5030,4989 5058,5010 5080,5042 5110,5061 5189,5123 5200,5140 5202,5161 5182,5217 5170,5264 5178,5286 5195,5288 5215,5279 5232,5254 5243,5236 5257,5219 5285,5224 5328,5236 5350,5237 5397,5239 5442,5245 5463,5241 5478,5234 5485,5228 5505,5211 5530,5185 5527,5155 5519,5132 5520,5123 5537,5116 5551,5141 5562,5140 5568,5123 5563,5094 5575,5080 5602,5076 5635,5079 5669,5065 5697,5075 5723,5083 5753,5105 5783,5109 5813,5087 5837,5060 5869,5043 5898,5033 5925,5018 5952,5006 5979,4993 6011,4973 6034,4965 6043,4962 6064,4989 " class="polyStyle" id="360826" style="fill:#ee8b94"/>
<path d="" class="polyStyle" id="522627" style="fill:#ee8b94"/>
<polygon points="1438,3712 1463,3694 1491,3724 1514,3757 1542,3772 1541,3802 1546,3828 1574,3831 1602,3835 1635,3832 1661,3815 1688,3802 1713,3809 1744,3809 1768,3783 1793,3762 1819,3742 1847,3725 1872,3723 1900,3734 1933,3761 1960,3749 1994,3751 2030,3765 2056,3772 2083,3780 2110,3781 2139,3781 2172,3781 2205,3778 2234,3780 2247,3753 2250,3728 2256,3714 2286,3707 2296,3736 2313,3768 2340,3780 2372,3781 2401,3771 2419,3757 2445,3761 2473,3778 2490,3815 2504,3842 2513,3868 2515,3899 2524,3927 2534,3961 2553,3991 2574,4021 2600,4044 2626,4053 2654,4086 2673,4112 2699,4138 2727,4160 2759,4171 2786,4172 2815,4185 2815,4217 2812,4254 2822,4282 2848,4312 2877,4322 2896,4352 2912,4378 2927,4406 2944,4442 2961,4470 2995,4470 3022,4462 3056,4456 3090,4459 3101,4458 3095,4487 3089,4513 3073,4538 3063,4566 3075,4593 3089,4619 3095,4644 3120,4668 3146,4680 3173,4697 3198,4717 3206,4745 3233,4769 3208,4790 3186,4819 3172,4848 3145,4872 3120,4897 3107,4928 3104,4959 3079,4984 3047,4995 3019,4992 2992,4995 2966,5002 2939,5004 2944,5032 2973,5052 2981,5083 2990,5113 2996,5145 2970,5164 2939,5181 2930,5213 2928,5246 2941,5275 2970,5298 2978,5329 2983,5360 2993,5391 3019,5415 3038,5443 3052,5474 3058,5500 3064,5528 3090,5538 3114,5564 3142,5569 3169,5573 3195,5583 3223,5602 3226,5603 3235,5636 3244,5668 3214,5688 3187,5699 3156,5702 3139,5698 3110,5704 3069,5700 3042,5691 3016,5681 2988,5665 2956,5650 2925,5655 2894,5637 2864,5652 2837,5655 2810,5665 2782,5686 2760,5712 2733,5719 2706,5724 2680,5749 2663,5775 2654,5783 2627,5799 2599,5815 2590,5817 2563,5823 2556,5825 2536,5832 2509,5839 2476,5854 2450,5863 2424,5869 2397,5872 2363,5887 2336,5887 2310,5893 2281,5902 2261,5914 2240,5918 2227,5919 2197,5924 2159,5921 2133,5916 2107,5920 2073,5911 2045,5913 2015,5916 1990,5946 1962,5952 1932,5971 1915,6000 1918,6032 1932,6062 1936,6088 1924,6115 1898,6126 1870,6156 1853,6187 1826,6200 1799,6194 1769,6177 1736,6168 1706,6149 1677,6129 1655,6103 1645,6073 1619,6073 1592,6061 1568,6033 1541,6025 1516,6015 1485,5996 1452,5980 1439,5952 1444,5920 1418,5896 1393,5884 1370,5881 1348,5862 1298,5824 1282,5815 1229,5807 1182,5800 1149,5794 1109,5778 1081,5779 1053,5800 1011,5829 966,5852 909,5884 877,5902 852,5914 808,5909 774,5888 756,5872 707,5880 653,5888 604,5889 564,5878 522,5843 506,5822 473,5783 453,5767 423,5770 387,5790 343,5805 308,5818 272,5809 217,5807 167,5800 148,5770 130,5750 112,5752 97,5770 70,5798 40,5827 15,5841 4,5824 2,5816 0,5784 8,5768 14,5760 26,5750 40,5734 78,5698 108,5668 118,5638 130,5614 158,5572 204,5508 212,5502 234,5498 268,5500 290,5498 294,5486 302,5414 274,5390 276,5366 288,5336 316,5298 336,5250 338,5212 338,5190 344,5172 352,5154 368,5138 390,5122 460,5072 434,5008 431,5007 449,4970 466,4942 478,4908 509,4877 523,4849 562,4819 583,4810 612,4812 640,4788 622,4757 619,4732 625,4695 641,4662 658,4634 687,4634 717,4625 730,4599 751,4570 770,4544 801,4529 817,4503 809,4476 805,4444 799,4419 801,4391 814,4353 845,4329 855,4293 862,4275 867,4244 886,4216 892,4190 915,4162 941,4136 970,4100 995,4069 1023,4046 1050,4028 1077,4011 1102,4013 1129,4018 1158,4027 1184,4035 1209,4018 1222,3987 1250,3965 1261,3935 1270,3898 1275,3870 1286,3843 1316,3814 1302,3788 1301,3759 1329,3733 1359,3707 1386,3687 1413,3694 " class="polyStyle" id="360830" style="fill:#fbe6ef"/>
<path d="" class="polyStyle" id="510421" style="fill:#fbe6ef"/>
<path d="" class="polyStyle" id="522623" style="fill:#d4ecb2"/>
<polygon points="8828,2225 8858,2233 8869,2262 8882,2311 8908,2338 8924,2365 8930,2394 8956,2414 8965,2442 8992,2463 9022,2480 9055,2518 9082,2546 9109,2557 9136,2560 9166,2571 9191,2577 9219,2577 9251,2573 9283,2551 9310,2540 9340,2527 9370,2529 9398,2551 9425,2580 9453,2599 9444,2625 9428,2652 9425,2678 9405,2708 9367,2738 9340,2755 9313,2783 9300,2808 9295,2837 9302,2865 9319,2891 9329,2916 9334,2944 9319,2974 9294,2976 9268,2978 9241,2990 9229,3019 9227,3046 9225,3076 9215,3106 9210,3118 9221,3152 9235,3177 9238,3203 9233,3233 9231,3260 9237,3301 9248,3328 9263,3356 9290,3373 9290,3399 9300,3424 9295,3451 9269,3454 9240,3452 9212,3449 9183,3460 9159,3487 9133,3496 9088,3504 9062,3513 9031,3530 9002,3548 8977,3560 8958,3589 8966,3616 8965,3645 8969,3670 8977,3696 8977,3724 8985,3751 9003,3778 9012,3808 9022,3834 9038,3864 9064,3857 9095,3848 9121,3871 9137,3897 9146,3928 9152,3956 9180,3982 9195,4009 9204,4036 9208,4063 9212,4089 9231,4119 9256,4146 9284,4159 9314,4179 9322,4210 9339,4239 9355,4265 9383,4288 9411,4299 9439,4300 9481,4295 9508,4287 9534,4282 9581,4259 9609,4251 9639,4252 9664,4252 9695,4252 9728,4239 9753,4232 9779,4228 9806,4233 9835,4242 9862,4244 9901,4251 9926,4278 9929,4304 9938,4332 9952,4358 9954,4387 9979,4405 10017,4428 10042,4437 10068,4464 10068,4492 10056,4517 10054,4543 10057,4569 10075,4597 10087,4624 10106,4660 10131,4686 10145,4712 10142,4740 10133,4767 10154,4794 10181,4807 10210,4820 10246,4848 10269,4888 10301,4905 10331,4889 10369,4878 10397,4878 10435,4910 10463,4927 10491,4956 10505,4976 10478,5016 10435,5026 10405,5020 10369,5037 10342,5059 10323,5085 10294,5110 10264,5145 10240,5178 10212,5203 10178,5224 10150,5253 10113,5271 10078,5293 10042,5303 10014,5309 10003,5342 9995,5373 9977,5414 9960,5458 9957,5495 9932,5507 9898,5511 9862,5513 9840,5548 9829,5576 9821,5604 9800,5651 9776,5680 9770,5716 9765,5761 9725,5771 9678,5750 9652,5744 9612,5716 9595,5677 9584,5649 9529,5632 9487,5612 9459,5596 9435,5561 9394,5542 9367,5539 9353,5577 9342,5609 9297,5650 9267,5687 9278,5717 9272,5748 9258,5774 9293,5794 9276,5827 9260,5854 9265,5889 9226,5914 9208,5952 9243,5978 9284,5987 9316,6009 9353,6031 9389,6028 9417,6005 9449,6009 9448,6044 9467,6075 9468,6114 9470,6161 9474,6197 9481,6225 9482,6257 9449,6272 9423,6271 9386,6262 9348,6273 9335,6298 9368,6319 9398,6341 9366,6371 9332,6390 9321,6428 9306,6450 9278,6463 9265,6504 9242,6531 9212,6536 9170,6559 9140,6549 9096,6538 9062,6516 9024,6495 8991,6494 8952,6490 8919,6490 8875,6493 8842,6499 8798,6500 8773,6537 8741,6546 8694,6573 8654,6580 8616,6575 8587,6566 8561,6557 8523,6531 8505,6479 8500,6442 8505,6414 8502,6377 8492,6351 8460,6325 8430,6332 8404,6344 8376,6347 8355,6394 8328,6416 8297,6409 8269,6393 8261,6362 8274,6334 8303,6308 8313,6280 8338,6252 8355,6250 8367,6237 8367,6227 8352,6207 8355,6185 8331,6159 8322,6130 8295,6104 8286,6079 8259,6057 8231,6051 8202,6030 8176,6014 8146,6009 8120,6006 8085,5989 8073,5958 8048,5932 8021,5918 7993,5902 7987,5867 7977,5835 7953,5809 7928,5807 7897,5826 7871,5825 7842,5826 7812,5844 7786,5840 7780,5809 7769,5778 7735,5750 7730,5722 7756,5713 7765,5685 7744,5658 7757,5628 7760,5596 7759,5570 7744,5539 7728,5509 7739,5478 7748,5446 7770,5419 7778,5387 7803,5369 7830,5370 7858,5372 7886,5375 7914,5375 7947,5368 7974,5360 8006,5373 8034,5378 8063,5381 8089,5373 8116,5366 8121,5341 8116,5316 8104,5283 8105,5258 8131,5234 8162,5262 8188,5270 8201,5300 8232,5316 8264,5333 8268,5363 8279,5394 8299,5421 8325,5447 8355,5454 8395,5471 8444,5465 8475,5443 8515,5421 8522,5389 8562,5363 8589,5359 8617,5376 8648,5375 8676,5370 8702,5338 8715,5312 8712,5282 8668,5282 8650,5254 8671,5218 8665,5190 8693,5172 8733,5174 8762,5161 8795,5142 8822,5120 8850,5114 8902,5079 8918,5050 8932,5024 8957,5000 8958,4966 8956,4936 8940,4906 8933,4879 8915,4840 8887,4820 8858,4792 8849,4791 8843,4763 8842,4741 8847,4699 8853,4656 8855,4600 8843,4564 8790,4518 8762,4504 8737,4485 8713,4460 8688,4446 8662,4445 8634,4438 8609,4417 8591,4390 8571,4361 8545,4357 8519,4384 8493,4392 8461,4376 8450,4347 8466,4318 8463,4301 8448,4278 8418,4271 8399,4274 8380,4274 8358,4257 8335,4244 8328,4229 8326,4214 8337,4204 8333,4191 8313,4148 8296,4096 8288,4058 8283,4051 8243,4056 8213,4081 8182,4097 8148,4088 8133,4058 8114,4051 8077,4064 8032,4069 7998,4069 7995,4065 7944,4073 7946,4059 7973,4018 7967,3995 7964,3983 7934,3978 7910,3977 7866,3974 7838,3981 7824,3984 7799,3988 7769,3998 7739,4013 7710,4021 7674,4034 7643,4008 7620,3986 7600,3958 7591,3930 7586,3899 7578,3871 7570,3839 7563,3811 7529,3786 7502,3783 7474,3777 7459,3749 7454,3714 7446,3684 7449,3653 7448,3626 7418,3606 7397,3581 7396,3555 7401,3526 7395,3495 7381,3468 7381,3440 7373,3413 7342,3383 7329,3347 7339,3318 7313,3295 7290,3283 7267,3271 7264,3256 7265,3230 7255,3205 7257,3179 7259,3152 7254,3124 7243,3093 7232,3071 7224,3052 7224,3027 7227,3000 7231,2971 7261,2952 7289,2946 7315,2940 7347,2922 7381,2904 7407,2901 7445,2911 7470,2915 7502,2881 7521,2850 7549,2816 7569,2787 7582,2772 7615,2749 7647,2732 7676,2712 7700,2682 7711,2653 7743,2639 7774,2612 7823,2596 7859,2584 7895,2576 7910,2592 7930,2617 7959,2615 7989,2591 8018,2568 8039,2540 8066,2523 8093,2504 8123,2510 8150,2501 8181,2474 8218,2458 8247,2437 8274,2461 8306,2465 8326,2439 8355,2427 8378,2426 8404,2425 8431,2412 8467,2386 8493,2359 8505,2333 8517,2307 8539,2299 8566,2287 8591,2276 8622,2266 8652,2270 8680,2269 8708,2248 8739,2241 8764,2226 8794,2210 8803,2215 " class="polyStyle" id="360825" style="fill:#ee8b94"/>
<polygon points="5596,2033 5627,2042 5657,2045 5698,2059 5714,2088 5715,2113 5712,2141 5714,2171 5733,2204 5752,2214 5767,2222 5777,2240 5780,2269 5789,2295 5809,2317 5839,2340 5878,2345 5934,2354 5988,2365 6023,2380 6044,2392 6082,2421 6112,2425 6273,2417 6282,2422 6292,2437 6295,2462 6302,2485 6329,2515 6387,2507 6414,2500 6435,2491 6449,2472 6458,2446 6491,2414 6529,2382 6553,2352 6561,2327 6548,2294 6520,2271 6506,2244 6522,2210 6549,2214 6579,2225 6612,2219 6641,2200 6670,2219 6684,2249 6715,2273 6739,2301 6769,2313 6794,2307 6821,2312 6849,2315 6879,2326 6906,2318 6937,2315 6965,2312 6990,2296 7020,2263 7050,2228 7076,2223 7102,2231 7128,2237 7154,2247 7186,2243 7211,2244 7231,2270 7231,2295 7239,2327 7253,2360 7263,2388 7273,2423 7297,2457 7329,2476 7362,2497 7387,2509 7422,2531 7434,2558 7460,2572 7486,2599 7515,2621 7530,2655 7546,2687 7566,2716 7575,2743 7582,2772 7569,2787 7549,2816 7521,2850 7502,2881 7470,2915 7445,2911 7407,2901 7381,2904 7347,2922 7315,2940 7289,2946 7261,2952 7231,2971 7227,3000 7224,3027 7224,3052 7232,3071 7243,3093 7254,3124 7259,3152 7257,3179 7255,3205 7265,3230 7264,3256 7267,3271 7290,3283 7313,3295 7339,3318 7329,3347 7342,3383 7373,3413 7381,3440 7381,3468 7395,3495 7401,3526 7396,3555 7397,3581 7418,3606 7448,3626 7449,3653 7446,3684 7454,3714 7459,3749 7474,3777 7502,3783 7529,3786 7563,3811 7570,3839 7578,3871 7586,3899 7591,3930 7600,3958 7620,3986 7643,4008 7674,4034 7710,4021 7739,4013 7769,3998 7799,3988 7824,3984 7838,3981 7866,3974 7910,3977 7934,3978 7964,3983 7967,3995 7973,4018 7946,4059 7944,4073 7995,4065 7998,4069 8032,4069 8077,4064 8114,4051 8133,4058 8148,4088 8182,4097 8213,4081 8243,4056 8283,4051 8288,4058 8296,4096 8313,4148 8333,4191 8337,4204 8326,4214 8328,4229 8335,4244 8358,4257 8380,4274 8399,4274 8418,4271 8448,4278 8463,4301 8466,4318 8450,4347 8461,4376 8493,4392 8519,4384 8545,4357 8571,4361 8591,4390 8609,4417 8634,4438 8662,4445 8688,4446 8713,4460 8737,4485 8762,4504 8790,4518 8843,4564 8855,4600 8853,4656 8847,4699 8842,4741 8843,4763 8849,4791 8858,4792 8887,4820 8915,4840 8933,4879 8940,4906 8956,4936 8958,4966 8957,5000 8932,5024 8918,5050 8902,5079 8850,5114 8822,5120 8795,5142 8762,5161 8733,5174 8693,5172 8665,5190 8671,5218 8650,5254 8668,5282 8712,5282 8715,5312 8702,5338 8676,5370 8648,5375 8617,5376 8589,5359 8562,5363 8522,5389 8515,5421 8475,5443 8444,5465 8395,5471 8355,5454 8325,5447 8299,5421 8279,5394 8268,5363 8264,5333 8232,5316 8201,5300 8188,5270 8162,5262 8131,5234 8105,5258 8104,5283 8116,5316 8121,5341 8116,5366 8089,5373 8063,5381 8034,5378 8006,5373 7974,5360 7947,5368 7914,5375 7886,5375 7858,5372 7830,5370 7803,5369 7778,5387 7770,5419 7748,5446 7739,5478 7728,5509 7744,5539 7759,5570 7760,5596 7757,5628 7729,5631 7701,5628 7675,5621 7646,5638 7615,5660 7584,5657 7556,5634 7537,5606 7554,5577 7554,5544 7536,5516 7519,5488 7499,5462 7466,5469 7441,5477 7410,5486 7388,5502 7359,5521 7333,5529 7307,5545 7280,5523 7263,5513 7227,5497 7195,5474 7168,5456 7156,5428 7141,5418 7126,5388 7108,5360 7096,5328 7080,5298 7074,5265 7069,5240 7058,5208 7028,5189 6997,5171 6966,5164 6932,5158 6914,5145 6902,5116 6895,5072 6903,5056 6927,5025 6956,5001 6993,4995 7021,4977 7022,4945 6993,4925 6968,4918 6961,4912 6964,4899 6967,4893 6976,4877 6983,4824 6975,4768 6968,4748 6971,4717 6982,4676 7000,4662 7036,4651 7049,4635 7050,4620 7038,4609 6997,4558 6926,4488 6906,4458 6910,4417 6922,4363 6924,4348 6917,4336 6898,4327 6876,4328 6834,4332 6800,4338 6780,4349 6770,4356 6759,4353 6757,4336 6721,4321 6671,4321 6627,4340 6580,4349 6567,4346 6550,4331 6512,4288 6481,4268 6442,4273 6384,4306 6377,4323 6390,4341 6409,4372 6414,4398 6416,4423 6402,4432 6374,4428 6332,4420 6308,4417 6287,4422 6248,4437 6227,4440 6214,4432 6212,4420 6227,4413 6247,4404 6260,4391 6288,4385 6317,4376 6307,4362 6277,4364 6263,4367 6258,4361 6264,4350 6283,4344 6292,4335 6292,4319 6287,4305 6276,4301 6265,4295 6255,4276 6241,4248 6225,4236 6199,4231 6173,4229 6166,4216 6171,4201 6183,4178 6204,4124 6206,4091 6193,4053 6157,3997 6187,3984 6215,3970 6241,3953 6287,3932 6314,3927 6363,3901 6390,3871 6392,3845 6386,3818 6374,3787 6349,3789 6321,3794 6294,3786 6267,3768 6232,3778 6233,3804 6206,3787 6173,3794 6147,3783 6133,3755 6111,3729 6081,3734 6050,3727 6035,3701 6049,3672 6022,3646 6019,3614 5998,3586 5995,3558 5970,3550 5955,3523 5950,3497 5941,3471 5948,3444 5941,3418 5942,3389 5920,3361 5894,3351 5864,3354 5836,3363 5804,3385 5784,3411 5757,3420 5729,3442 5741,3475 5745,3501 5740,3528 5734,3554 5735,3583 5707,3588 5679,3573 5671,3547 5666,3519 5650,3494 5625,3479 5608,3454 5603,3425 5606,3400 5611,3370 5620,3337 5618,3304 5612,3276 5617,3250 5619,3223 5586,3209 5553,3204 5522,3206 5506,3207 5489,3208 5477,3209 5468,3196 5463,3188 5478,3160 5500,3132 5510,3101 5519,3076 5532,3041 5540,3012 5541,2982 5530,2956 5523,2929 5511,2897 5487,2868 5481,2840 5476,2811 5474,2779 5470,2753 5453,2715 5428,2710 5417,2685 5435,2657 5442,2631 5422,2601 5397,2595 5371,2597 5362,2592 5348,2560 5343,2532 5305,2534 5281,2550 5247,2565 5208,2567 5195,2560 5189,2535 5195,2481 5204,2444 5193,2408 5172,2395 5168,2376 5182,2370 5204,2380 5232,2391 5253,2389 5262,2369 5242,2342 5221,2320 5199,2311 5195,2282 5204,2255 5229,2223 5237,2192 5228,2164 5215,2135 5232,2105 5267,2092 5277,2100 5302,2094 5330,2098 5360,2096 5386,2069 5413,2065 5439,2053 5464,2046 5497,2020 5514,1994 5543,1986 5574,2007 " class="polyStyle" id="360822" style="fill:#fbe6ef"/>
<polygon points="3479,1852 3502,1878 3498,1911 3511,1941 3544,1975 3576,1980 3613,1984 3642,1982 3668,1980 3701,1978 3730,1979 3763,1980 3791,1984 3798,2013 3816,2047 3842,2054 3870,2028 3899,2022 3928,2055 3924,2084 3941,2109 3974,2140 4001,2151 4031,2131 4061,2110 4086,2091 4097,2058 4105,2032 4125,2006 4137,1978 4162,1964 4165,1929 4177,1903 4209,1876 4241,1856 4272,1861 4306,1847 4335,1848 4365,1822 4393,1826 4429,1810 4455,1806 4484,1806 4489,1832 4505,1849 4512,1856 4529,1878 4540,1912 4539,1944 4550,1970 4564,1996 4558,2023 4534,2055 4544,2084 4548,2109 4538,2137 4533,2167 4514,2197 4485,2212 4477,2237 4503,2266 4504,2293 4509,2322 4526,2349 4548,2381 4577,2409 4587,2435 4601,2463 4627,2491 4625,2517 4633,2544 4664,2555 4691,2580 4722,2605 4735,2631 4734,2663 4730,2694 4730,2719 4740,2751 4745,2780 4758,2812 4776,2844 4770,2874 4740,2894 4750,2923 4768,2956 4818,2973 4825,2994 4793,3042 4787,3069 4772,3095 4768,3123 4787,3150 4783,3177 4758,3198 4729,3207 4695,3235 4675,3261 4644,3281 4614,3297 4592,3328 4589,3357 4567,3383 4555,3408 4567,3436 4559,3463 4531,3476 4514,3505 4509,3532 4492,3559 4459,3559 4429,3567 4401,3586 4370,3613 4341,3635 4317,3666 4281,3682 4254,3688 4226,3677 4237,3703 4231,3730 4206,3724 4177,3728 4152,3715 4126,3721 4100,3713 4078,3727 4049,3707 4023,3686 3994,3708 3969,3712 3941,3723 3913,3752 3914,3779 3917,3805 3907,3835 3902,3865 3925,3893 3953,3920 3980,3949 3987,3976 3989,4008 3992,4036 4013,4062 3994,4090 3978,4118 4004,4140 4000,4168 3968,4174 3966,4201 3945,4229 3913,4245 3880,4255 3853,4271 3827,4290 3798,4277 3772,4250 3742,4229 3713,4214 3695,4239 3674,4267 3653,4292 3626,4324 3600,4351 3572,4345 3544,4357 3518,4369 3493,4376 3466,4387 3434,4407 3408,4414 3380,4424 3346,4430 3310,4442 3276,4456 3245,4444 3214,4439 3186,4438 3159,4457 3128,4464 3101,4458 3090,4459 3056,4456 3022,4462 2995,4470 2961,4470 2944,4442 2927,4406 2912,4378 2896,4352 2877,4322 2848,4312 2822,4282 2812,4254 2815,4217 2815,4185 2786,4172 2759,4171 2727,4160 2699,4138 2673,4112 2654,4086 2626,4053 2600,4044 2574,4021 2553,3991 2534,3961 2524,3927 2515,3899 2513,3868 2504,3842 2490,3815 2473,3778 2445,3761 2419,3757 2401,3771 2372,3781 2340,3780 2313,3768 2296,3736 2286,3707 2256,3714 2250,3728 2247,3753 2234,3780 2205,3778 2172,3781 2139,3781 2110,3781 2083,3780 2056,3772 2030,3765 1994,3751 1960,3749 1933,3761 1900,3734 1872,3723 1847,3725 1819,3742 1793,3762 1768,3783 1744,3809 1713,3809 1688,3802 1661,3815 1635,3832 1602,3835 1574,3831 1546,3828 1541,3802 1542,3772 1514,3757 1491,3724 1463,3694 1485,3680 1515,3660 1548,3640 1573,3623 1601,3600 1615,3573 1614,3542 1597,3514 1567,3477 1567,3447 1564,3422 1556,3393 1551,3365 1535,3339 1519,3304 1521,3278 1529,3242 1500,3249 1472,3271 1441,3271 1411,3261 1380,3246 1374,3219 1393,3190 1394,3165 1368,3157 1335,3158 1299,3144 1266,3140 1238,3141 1211,3128 1186,3118 1181,3093 1179,3063 1180,3038 1154,3022 1128,3006 1092,2982 1072,2957 1087,2928 1060,2920 1035,2904 1005,2897 985,2889 985,2875 965,2871 947,2856 930,2849 956,2823 942,2798 962,2770 969,2737 981,2702 983,2672 1005,2650 1032,2635 1061,2639 1088,2634 1113,2643 1143,2644 1170,2637 1200,2644 1229,2661 1254,2662 1288,2643 1317,2636 1356,2626 1389,2622 1416,2634 1444,2656 1470,2654 1507,2649 1543,2651 1574,2639 1600,2613 1627,2606 1659,2604 1687,2585 1714,2556 1723,2530 1731,2498 1762,2469 1789,2448 1804,2421 1812,2388 1832,2361 1847,2334 1845,2305 1821,2274 1825,2248 1831,2217 1848,2184 1876,2186 1903,2183 1933,2156 1946,2129 1954,2095 1955,2065 1981,2040 2007,2030 2042,2014 2079,2000 2109,1992 2141,1969 2170,1945 2202,1928 2210,1924 2231,1916 2257,1909 2283,1915 2313,1913 2348,1918 2379,1931 2411,1950 2438,1972 2468,1991 2495,2013 2527,2021 2547,1995 2574,1987 2601,2004 2612,2031 2637,2060 2665,2076 2693,2066 2702,2054 2715,2018 2742,2013 2758,2029 2764,2053 2790,2056 2826,2055 2853,2051 2882,2059 2910,2063 2935,2034 2949,2008 2986,1992 3016,1986 3048,1988 3080,1987 3109,1993 3136,1994 3164,2008 3192,1971 3222,1952 3245,1925 3277,1909 3304,1899 3331,1897 3346,1867 3339,1825 3344,1801 3364,1781 3398,1776 3451,1771 3480,1822 " class="polyStyle" id="360829" style="fill:#f6f67b"/>
<polygon points="4801,1729 4826,1731 4861,1747 4896,1756 4919,1764 4926,1797 4937,1823 4961,1849 4989,1851 5024,1852 5058,1868 5092,1878 5125,1864 5154,1843 5189,1843 5220,1846 5232,1840 5260,1866 5282,1897 5283,1924 5281,1960 5288,1996 5300,2023 5287,2048 5268,2082 5267,2092 5232,2105 5215,2135 5228,2164 5237,2192 5229,2223 5204,2255 5195,2282 5199,2311 5221,2320 5242,2342 5262,2369 5253,2389 5232,2391 5204,2380 5182,2370 5168,2376 5172,2395 5193,2408 5204,2444 5195,2481 5189,2535 5195,2560 5208,2567 5247,2565 5281,2550 5305,2534 5343,2532 5348,2560 5362,2592 5371,2597 5397,2595 5422,2601 5442,2631 5435,2657 5417,2685 5428,2710 5453,2715 5470,2753 5474,2779 5476,2811 5481,2840 5487,2868 5511,2897 5523,2929 5530,2956 5541,2982 5540,3012 5532,3041 5519,3076 5510,3101 5500,3132 5478,3160 5463,3188 5468,3196 5477,3209 5489,3208 5506,3207 5522,3206 5553,3204 5586,3209 5619,3223 5617,3250 5612,3276 5618,3304 5620,3337 5611,3370 5606,3400 5603,3425 5608,3454 5625,3479 5650,3494 5666,3519 5671,3547 5679,3573 5680,3576 5671,3598 5647,3620 5633,3630 5617,3627 5587,3622 5548,3636 5509,3667 5496,3685 5491,3705 5481,3727 5439,3745 5386,3761 5355,3773 5340,3790 5328,3806 5305,3821 5257,3814 5187,3786 5152,3773 5099,3776 5029,3828 5015,3842 5014,3857 4996,3891 4979,3907 4948,3919 4902,3940 4869,3975 4844,4006 4841,4021 4841,4033 4855,4059 4859,4080 4850,4097 4849,4119 4870,4152 4880,4202 4905,4229 4910,4279 5000,4347 5020,4404 5021,4418 5022,4438 5020,4465 5029,4486 5024,4504 5014,4521 5007,4554 4997,4589 4984,4620 4992,4627 5008,4627 5062,4626 5128,4624 5173,4618 5191,4613 5203,4605 5202,4579 5228,4563 5267,4554 5335,4542 5350,4538 5365,4524 5374,4496 5390,4479 5410,4475 5432,4484 5461,4495 5487,4499 5512,4495 5541,4479 5571,4475 5599,4483 5620,4509 5611,4538 5583,4540 5589,4568 5604,4594 5631,4622 5658,4612 5685,4589 5703,4562 5725,4536 5752,4520 5778,4512 5784,4516 5805,4528 5829,4555 5855,4583 5878,4609 5905,4629 5933,4641 5960,4648 5988,4654 6013,4659 6041,4667 6067,4684 6092,4705 6119,4732 6133,4760 6134,4788 6130,4814 6105,4849 6080,4889 6055,4931 6034,4965 6011,4973 5979,4993 5952,5006 5925,5018 5898,5033 5869,5043 5837,5060 5813,5087 5783,5109 5753,5105 5723,5083 5697,5075 5669,5065 5635,5079 5602,5076 5575,5080 5563,5094 5568,5123 5562,5140 5551,5141 5537,5116 5520,5123 5519,5132 5527,5155 5530,5185 5505,5211 5485,5228 5478,5234 5463,5241 5442,5245 5397,5239 5350,5237 5328,5236 5285,5224 5257,5219 5243,5236 5232,5254 5215,5279 5195,5288 5178,5286 5170,5264 5182,5217 5202,5161 5200,5140 5189,5123 5110,5061 5080,5042 5058,5010 5030,4989 5003,4981 4975,4986 4947,4991 4927,4999 4898,5010 4873,5029 4843,5048 4825,5073 4840,5105 4824,5135 4792,5152 4774,5177 4770,5211 4741,5198 4711,5180 4683,5172 4656,5181 4631,5191 4600,5191 4573,5186 4546,5188 4518,5210 4492,5219 4466,5218 4453,5217 4433,5217 4410,5227 4380,5258 4354,5297 4329,5338 4312,5355 4287,5358 4240,5354 4195,5354 4148,5363 4115,5373 4100,5402 4095,5427 4087,5452 4070,5485 4048,5533 4033,5548 4003,5577 3987,5606 3957,5637 3930,5667 3902,5671 3871,5667 3850,5662 3822,5657 3796,5650 3769,5647 3742,5644 3716,5629 3698,5619 3668,5617 3635,5610 3607,5607 3573,5589 3546,5584 3518,5572 3485,5556 3451,5554 3423,5551 3399,5551 3374,5548 3339,5545 3313,5547 3285,5566 3259,5590 3226,5603 3223,5602 3195,5583 3169,5573 3142,5569 3114,5564 3090,5538 3064,5528 3058,5500 3052,5474 3038,5443 3019,5415 2993,5391 2983,5360 2978,5329 2970,5298 2941,5275 2928,5246 2930,5213 2939,5181 2970,5164 2996,5145 2990,5113 2981,5083 2973,5052 2944,5032 2939,5004 2966,5002 2992,4995 3019,4992 3047,4995 3079,4984 3104,4959 3107,4928 3120,4897 3145,4872 3172,4848 3186,4819 3208,4790 3233,4769 3206,4745 3198,4717 3173,4697 3146,4680 3120,4668 3095,4644 3089,4619 3075,4593 3063,4566 3073,4538 3089,4513 3095,4487 3101,4458 3128,4464 3159,4457 3186,4438 3214,4439 3245,4444 3276,4456 3310,4442 3346,4430 3380,4424 3408,4414 3434,4407 3466,4387 3493,4376 3518,4369 3544,4357 3572,4345 3600,4351 3626,4324 3653,4292 3674,4267 3695,4239 3713,4214 3742,4229 3772,4250 3798,4277 3827,4290 3853,4271 3880,4255 3913,4245 3945,4229 3966,4201 3968,4174 4000,4168 4004,4140 3978,4118 3994,4090 4013,4062 3992,4036 3989,4008 3987,3976 3980,3949 3953,3920 3925,3893 3902,3865 3907,3835 3917,3805 3914,3779 3913,3752 3941,3723 3969,3712 3994,3708 4023,3686 4049,3707 4078,3727 4100,3713 4126,3721 4152,3715 4177,3728 4206,3724 4231,3730 4237,3703 4226,3677 4254,3688 4281,3682 4317,3666 4341,3635 4370,3613 4401,3586 4429,3567 4459,3559 4492,3559 4509,3532 4514,3505 4531,3476 4559,3463 4567,3436 4555,3408 4567,3383 4589,3357 4592,3328 4614,3297 4644,3281 4675,3261 4695,3235 4729,3207 4758,3198 4783,3177 4787,3150 4768,3123 4772,3095 4787,3069 4793,3042 4825,2994 4818,2973 4768,2956 4750,2923 4740,2894 4770,2874 4776,2844 4758,2812 4745,2780 4740,2751 4730,2719 4730,2694 4734,2663 4735,2631 4722,2605 4691,2580 4664,2555 4633,2544 4625,2517 4627,2491 4601,2463 4587,2435 4577,2409 4548,2381 4526,2349 4509,2322 4504,2293 4503,2266 4477,2237 4485,2212 4514,2197 4533,2167 4538,2137 4548,2109 4544,2084 4534,2055 4558,2023 4564,1996 4550,1970 4539,1944 4540,1912 4529,1878 4512,1856 4539,1823 4534,1795 4561,1779 4592,1768 4619,1773 4648,1762 4670,1736 4696,1709 4719,1657 4764,1672 " class="polyStyle" id="360821" style="fill:#d4ecb2"/>
<polygon points="7096,1060 7101,1092 7106,1123 7142,1143 7172,1143 7198,1169 7235,1189 7271,1192 7306,1195 7338,1219 7364,1248 7390,1280 7427,1297 7464,1318 7492,1338 7495,1373 7474,1401 7460,1426 7436,1455 7402,1481 7388,1509 7389,1539 7399,1568 7410,1600 7419,1628 7429,1654 7465,1669 7493,1659 7525,1658 7557,1678 7589,1680 7623,1691 7648,1701 7676,1670 7701,1649 7728,1631 7768,1622 7793,1625 7829,1633 7859,1663 7872,1693 7894,1728 7919,1759 7948,1769 7980,1759 8011,1764 8039,1792 8054,1823 8073,1841 8113,1866 8143,1858 8171,1851 8223,1861 8266,1873 8273,1906 8273,1941 8266,1963 8291,2028 8305,2059 8313,2085 8337,2116 8348,2148 8355,2167 8369,2181 8395,2208 8422,2202 8450,2207 8478,2196 8508,2210 8498,2238 8479,2269 8490,2295 8517,2307 8505,2333 8493,2359 8467,2386 8431,2412 8404,2425 8378,2426 8355,2427 8326,2439 8306,2465 8274,2461 8247,2437 8218,2458 8181,2474 8150,2501 8123,2510 8093,2504 8066,2523 8039,2540 8018,2568 7989,2591 7959,2615 7930,2617 7910,2592 7895,2576 7859,2584 7823,2596 7774,2612 7743,2639 7711,2653 7700,2682 7676,2712 7647,2732 7615,2749 7582,2772 7575,2743 7566,2716 7546,2687 7530,2655 7515,2621 7486,2599 7460,2572 7434,2558 7422,2531 7387,2509 7362,2497 7329,2476 7297,2457 7273,2423 7263,2388 7253,2360 7239,2327 7231,2295 7231,2270 7211,2244 7186,2243 7154,2247 7128,2237 7102,2231 7076,2223 7050,2228 7020,2263 6990,2296 6965,2312 6937,2315 6906,2318 6879,2326 6849,2315 6821,2312 6794,2307 6769,2313 6739,2301 6715,2273 6684,2249 6670,2219 6641,2200 6612,2219 6579,2225 6549,2214 6522,2210 6506,2244 6520,2271 6548,2294 6561,2327 6553,2352 6529,2382 6491,2414 6458,2446 6449,2472 6435,2491 6414,2500 6387,2507 6329,2515 6302,2485 6295,2462 6292,2437 6282,2422 6273,2417 6112,2425 6082,2421 6044,2392 6023,2380 5988,2365 5934,2354 5878,2345 5839,2340 5809,2317 5789,2295 5780,2269 5777,2240 5767,2222 5752,2214 5733,2204 5714,2171 5712,2141 5715,2113 5714,2088 5698,2059 5657,2045 5627,2042 5596,2033 5574,2007 5543,1986 5514,1994 5497,2020 5464,2046 5439,2053 5413,2065 5386,2069 5360,2096 5330,2098 5302,2094 5277,2100 5267,2092 5268,2082 5287,2048 5300,2023 5288,1996 5281,1960 5283,1924 5282,1897 5260,1866 5232,1840 5240,1814 5267,1788 5270,1760 5298,1749 5323,1739 5357,1738 5393,1726 5420,1705 5449,1686 5456,1659 5487,1630 5516,1617 5546,1603 5571,1600 5597,1605 5630,1581 5659,1561 5685,1539 5668,1514 5641,1511 5651,1484 5675,1458 5701,1435 5728,1431 5750,1457 5775,1484 5795,1511 5823,1527 5853,1540 5884,1545 5910,1540 5924,1514 5927,1484 5904,1456 5907,1430 5911,1395 5905,1364 5930,1336 5958,1317 5950,1287 5941,1262 5975,1239 6010,1219 6039,1207 6065,1198 6069,1198 6093,1199 6095,1165 6095,1137 6119,1142 6143,1150 6172,1178 6200,1199 6226,1232 6228,1251 6234,1278 6272,1281 6301,1264 6335,1247 6366,1226 6387,1197 6385,1169 6413,1139 6428,1118 6431,1099 6452,1078 6482,1087 6519,1141 6510,1191 6505,1222 6504,1250 6536,1253 6569,1250 6603,1240 6625,1234 6635,1217 6646,1200 6655,1163 6676,1140 6704,1131 6736,1110 6772,1096 6802,1079 6837,1059 6871,1043 6897,1041 6931,1035 6959,1026 6999,1008 7026,999 7054,999 7090,994 7093,1035 " class="polyStyle" id="360823" style="fill:#f6f67b"/>
<polygon points="8023,5 8038,49 8024,93 8021,121 8038,154 8067,167 8094,177 8124,200 8154,193 8181,172 8196,136 8179,108 8149,83 8182,69 8214,55 8239,25 8272,23 8308,33 8335,38 8355,49 8360,47 8389,61 8418,62 8443,68 8470,62 8507,71 8513,98 8501,127 8484,155 8462,181 8432,190 8402,215 8401,244 8404,273 8378,302 8397,333 8426,359 8453,377 8480,378 8506,403 8529,433 8557,460 8584,476 8612,489 8638,499 8672,503 8698,496 8723,496 8726,522 8747,551 8765,586 8791,597 8820,608 8848,625 8876,652 8904,666 8933,678 8964,688 8993,688 9021,685 9048,698 9075,680 9101,660 9126,675 9151,701 9163,727 9190,750 9200,777 9208,804 9216,837 9241,863 9273,872 9284,899 9296,928 9319,953 9345,966 9373,972 9402,983 9432,998 9457,991 9478,1018 9468,1044 9483,1069 9488,1095 9497,1126 9502,1154 9484,1179 9474,1206 9464,1234 9446,1263 9425,1289 9408,1315 9382,1344 9357,1357 9341,1384 9312,1403 9291,1435 9266,1466 9244,1492 9232,1520 9204,1548 9176,1547 9144,1564 9129,1591 9101,1608 9073,1633 9051,1662 9027,1694 9002,1719 8977,1730 8950,1742 8931,1773 8915,1798 8916,1826 8904,1857 8885,1888 8861,1922 8846,1947 8867,1975 8860,2004 8859,2035 8858,2070 8858,2101 8842,2134 8818,2159 8787,2184 8794,2210 8764,2226 8739,2241 8708,2248 8680,2269 8652,2270 8622,2266 8591,2276 8566,2287 8539,2299 8517,2307 8490,2295 8479,2269 8498,2238 8508,2210 8478,2196 8450,2207 8422,2202 8395,2208 8369,2181 8355,2167 8348,2148 8337,2116 8313,2085 8305,2059 8291,2028 8266,1963 8273,1941 8273,1906 8266,1873 8223,1861 8171,1851 8143,1858 8113,1866 8073,1841 8054,1823 8039,1792 8011,1764 7980,1759 7948,1769 7919,1759 7894,1728 7872,1693 7859,1663 7829,1633 7793,1625 7768,1622 7728,1631 7701,1649 7676,1670 7648,1701 7623,1691 7589,1680 7557,1678 7525,1658 7493,1659 7465,1669 7429,1654 7419,1628 7410,1600 7399,1568 7389,1539 7388,1509 7402,1481 7436,1455 7460,1426 7474,1401 7495,1373 7492,1338 7464,1318 7427,1297 7390,1280 7364,1248 7338,1219 7306,1195 7271,1192 7235,1189 7198,1169 7172,1143 7142,1143 7106,1123 7101,1092 7096,1060 7093,1035 7090,994 7122,984 7153,981 7187,973 7216,967 7244,959 7273,944 7300,926 7326,897 7354,875 7381,856 7405,830 7431,798 7451,771 7462,744 7482,711 7513,688 7546,667 7572,644 7591,617 7608,591 7629,557 7626,525 7630,496 7661,486 7689,483 7719,478 7746,485 7772,459 7800,447 7830,449 7856,441 7866,414 7838,397 7806,395 7779,380 7747,352 7735,324 7758,298 7797,273 7828,260 7848,234 7853,203 7866,169 7845,141 7807,133 7792,99 7803,69 7842,54 7878,35 7907,37 7934,59 7960,61 7958,29 7968,0 7997,2 " class="polyStyle" id="360824" style="fill:#d4ecb2"/>
<path d="" class="polyStyle" id="430321" style="fill:#d4ecb2"/>
<path d="" class="polyStyle" id="511129" style="fill:#d4ecb2"/>
<path d="" class="polyStyle" id="511423" style="fill:#ee8b94"/>
<path d="" class="polyStyle" id="421023" style="fill:#f6f67b"/>
<path d="" class="polyStyle" id="511724" style="fill:#f6f67b"/>
<path d="" class="polyStyle" id="420526" style="fill:#fbe6ef"/>
<path d="" class="polyStyle" id="511923" style="fill:#fbe6ef"/>
<path d="" class="polyStyle" id="420325" style="fill:#fbe6ef"/>
<path d="" class="polyStyle" id="511921" style="fill:#f6f67b"/>
<path d="" class="polyStyle" id="542525" style="fill:#f6f67b"/>
<path d="" class="polyStyle" id="611026" style="fill:#ee8b94"/>
<path d="" class="polyStyle" id="411023" style="fill:#fbe6ef"/>
<path d="" class="polyStyle" id="632323" style="fill:#f6f67b"/>
<path d="" class="polyStyle" id="140525" style="fill:#d4ecb2"/>
<path d="" class="polyStyle" id="410922" style="fill:#ee8b94"/>
<path d="" class="polyStyle" id="621027" style="fill:#ee8b94"/>
<path d="" class="polyStyle" id="130427" style="fill:#f6f67b"/>
<path d="" class="polyStyle" id="130121" style="fill:#ee8b94"/>
<path d="" class="polyStyle" id="610823" style="fill:#fbe6ef"/>
<path d="" class="polyStyle" id="130225" style="fill:#fbe6ef"/>
<path d="" class="polyStyle" id="130322" style="fill:#d4ecb2"/>
<path d="" class="polyStyle" id="653130" style="fill:#f6f67b"/>
<path d="" class="polyStyle" id="130822" style="fill:#fbe6ef"/>
<path d="" class="polyStyle" id="211221" style="fill:#f6f67b"/>
<path d="" class="polyStyle" id="210921" style="fill:#f6f67b"/>
<path d="" class="polyStyle" id="150223" style="fill:#f8c67d"/>
<path d="" class="polyStyle" id="220422" style="fill:#d4ecb2"/>
<path d="" class="polyStyle" id="340721" style="fill:#f6f67b"/>
<path d="" class="polyStyle" id="510824" style="fill:#d4ecb2"/>
<path d="" class="polyStyle" id="610324" style="fill:#f6f67b"/>
<path d="" class="polyStyle" id="530722" style="fill:#ee8b94"/>
<path d="" class="polyStyle" id="340823" style="fill:#d4ecb2"/>
<path d="" class="polyStyle" id="620825" style="fill:#d4ecb2"/>
<path d="" class="polyStyle" id="421125" style="fill:#ee8b94"/>
<path d="" class="polyStyle" id="210281" style="fill:#ee8b94"/>
<path d="" class="polyStyle" id="440883" style="fill:#f6f67b"/>
<path d="" class="polyStyle" id="469006" style="fill:#d4ecb2"/>
<path d="" class="polyStyle" id="469002" style="fill:#ee8b94"/>
<path d="" class="polyStyle" id="469005" style="fill:#fbe6ef"/>
<path d="" class="polyStyle" id="440882" style="fill:#ee8b94"/>
<path d="" class="polyStyle" id="450681" style="fill:#ee8b94"/>
<path d="" class="polyStyle" id="441581" style="fill:#d4ecb2"/>
<polygon points="167,5800 217,5807 272,5809 308,5818 343,5805 387,5790 423,5770 453,5767 473,5783 506,5822 522,5843 564,5878 604,5889 653,5888 707,5880 756,5872 774,5888 808,5909 852,5914 877,5902 909,5884 966,5852 1011,5829 1053,5800 1081,5779 1109,5778 1149,5794 1182,5800 1229,5807 1282,5815 1298,5824 1348,5862 1370,5881 1393,5884 1418,5896 1444,5920 1439,5952 1452,5980 1485,5996 1516,6015 1541,6025 1568,6033 1592,6061 1619,6073 1645,6073 1655,6103 1677,6129 1706,6149 1736,6168 1769,6177 1799,6194 1826,6200 1853,6187 1870,6156 1898,6126 1924,6115 1936,6088 1932,6062 1918,6032 1915,6000 1932,5971 1962,5952 1990,5946 2015,5916 2045,5913 2073,5911 2107,5920 2133,5916 2159,5921 2197,5924 2227,5919 2240,5918 2261,5914 2281,5902 2310,5893 2336,5887 2363,5887 2397,5872 2424,5869 2450,5863 2476,5854 2509,5839 2536,5832 2556,5825 2591,5849 2600,5880 2590,5910 2573,5940 2571,5972 2559,6003 2559,6035 2549,6066 2535,6097 2533,6129 2502,6160 2477,6186 2470,6197 2457,6218 2438,6261 2409,6292 2391,6323 2362,6382 2316,6365 2288,6362 2262,6371 2250,6375 2222,6400 2193,6465 2185,6487 2170,6529 2159,6561 2150,6593 2172,6620 2190,6650 2213,6679 2224,6705 2253,6728 2262,6755 2268,6786 2244,6814 2248,6844 2226,6871 2203,6898 2177,6900 2149,6904 2121,6911 2094,6918 2075,6947 2049,6972 2019,6990 1991,6996 1963,6997 1932,7025 1927,7058 1929,7083 1939,7111 1967,7114 1993,7109 2021,7114 2047,7125 2075,7136 2101,7146 2128,7158 2145,7165 2199,7192 2252,7230 2292,7275 2309,7297 2324,7318 2342,7318 2356,7330 2354,7353 2337,7378 2305,7397 2269,7405 2234,7425 2206,7448 2204,7464 2195,7495 2165,7514 2129,7535 2110,7555 2114,7582 2130,7604 2155,7608 2235,7620 2289,7635 2349,7668 2364,7677 2371,7709 2357,7736 2344,7746 2333,7752 2293,7777 2250,7813 2222,7841 2175,7890 2140,7913 2089,7935 2035,7952 1997,7962 1937,7955 1847,7940 1665,7875 1633,7861 1620,7843 1628,7811 1627,7768 1614,7723 1590,7691 1565,7677 1543,7672 1513,7674 1484,7676 1456,7680 1430,7686 1402,7694 1374,7697 1347,7700 1323,7704 1272,7724 1274,7712 1274,7704 1264,7686 1256,7658 1260,7612 1266,7578 1278,7536 1282,7522 1296,7508 1318,7486 1320,7456 1330,7440 1374,7393 1373,7387 1350,7378 1328,7376 1300,7390 1268,7404 1242,7406 1224,7404 1214,7404 1198,7400 1194,7398 1186,7386 1184,7374 1188,7364 1206,7334 1248,7294 1252,7278 1240,7248 1238,7232 1254,7184 1292,7126 1310,7096 1302,7056 1350,7010 1354,6978 1374,6960 1358,6928 1348,6922 1324,6918 1298,6916 1236,6926 1206,6926 1178,6922 1154,6912 1130,6898 1104,6894 1066,6902 1038,6898 1008,6880 934,6870 916,6862 912,6860 908,6854 910,6846 918,6806 910,6792 886,6774 858,6756 836,6740 816,6728 796,6722 748,6716 718,6720 702,6728 688,6740 660,6712 640,6706 620,6706 592,6728 576,6730 554,6722 538,6722 514,6726 496,6734 470,6734 446,6722 420,6720 394,6734 362,6732 356,6728 344,6714 340,6706 336,6690 334,6684 320,6654 308,6642 278,6634 268,6632 252,6624 244,6614 240,6608 240,6586 232,6542 230,6526 228,6508 216,6508 198,6510 180,6534 168,6542 160,6540 154,6536 130,6500 128,6488 128,6472 138,6348 132,6298 120,6262 118,6250 108,6202 102,6124 98,6074 100,6040 108,5996 104,5978 94,5958 84,5940 60,5904 58,5880 56,5862 36,5858 15,5841 40,5827 70,5798 97,5770 112,5752 130,5750 148,5770 " class="polyStyle" id="360881" style="fill:#f6f67b"/>
<path d="" class="polyStyle" id="421087" style="fill:#ee8b94"/>
<path d="" class="polyStyle" id="420984" style="fill:#fbe6ef"/>
<path d="" class="polyStyle" id="420582" style="fill:#ee8b94"/>
<path d="" class="polyStyle" id="370282" style="fill:#f6f67b"/>
<path d="" class="polyStyle" id="371083" style="fill:#f6f67b"/>
<path d="" class="polyStyle" id="371082" style="fill:#fbe6ef"/>
<path d="" class="polyStyle" id="652801" style="fill:#f8c67d"/>
<path d="" class="polyStyle" id="654301" style="fill:#ee8b94"/>
<path d="" class="polyStyle" id="370687" style="fill:#ee8b94"/>
<path d="" class="polyStyle" id="371482" style="fill:#d4ecb2"/>
<path d="" class="polyStyle" id="421081" style="fill:#fbe6ef"/>
<path d="" class="polyStyle" id="429006" style="fill:#f6f67b"/>
<path d="" class="polyStyle" id="440982" style="fill:#d4ecb2"/>
<path d="" class="polyStyle" id="421181" style="fill:#d4ecb2"/>
<path d="" class="polyStyle" id="321181" style="fill:#d4ecb2"/>
<path d="" class="polyStyle" id="659007" style="fill:#ee8b94"/>
<path d="" class="polyStyle" id="652701" style="fill:#fbe6ef"/>
<path d="" class="polyStyle" id="210781" style="fill:#fbe6ef"/>
<path d="" class="polyStyle" id="460204" style="fill:#f6f67b"/>
<path d="" class="polyStyle" id="210211" style="fill:#f6f67b"/>
<path d="" class="polyStyle" id="450512" style="fill:#ee8b94"/>
<path d="" class="polyStyle" id="450602" style="fill:#fbe6ef"/>
<path d="" class="polyStyle" id="440404" style="fill:#ee8b94"/>
<path d="" class="polyStyle" id="440403" style="fill:#f6f67b"/>
<path d="" class="polyStyle" id="441502" style="fill:#f6f67b"/>
<path d="" class="polyStyle" id="431002" style="fill:#d4ecb2"/>
<polygon points="6206,4091 6204,4124 6183,4178 6171,4201 6166,4216 6173,4229 6199,4231 6225,4236 6241,4248 6255,4276 6265,4295 6276,4301 6287,4305 6292,4319 6292,4335 6283,4344 6264,4350 6258,4361 6263,4367 6277,4364 6307,4362 6317,4376 6288,4385 6260,4391 6247,4404 6227,4413 6212,4420 6214,4432 6227,4440 6248,4437 6287,4422 6308,4417 6332,4420 6374,4428 6402,4432 6416,4423 6414,4398 6409,4372 6390,4341 6377,4323 6384,4306 6442,4273 6481,4268 6512,4288 6550,4331 6567,4346 6580,4349 6627,4340 6671,4321 6721,4321 6757,4336 6759,4353 6770,4356 6780,4349 6800,4338 6834,4332 6876,4328 6898,4327 6917,4336 6924,4348 6922,4363 6910,4417 6906,4458 6926,4488 6997,4558 7038,4609 7050,4620 7049,4635 7036,4651 7000,4662 6982,4676 6971,4717 6968,4748 6975,4768 6983,4824 6976,4877 6967,4893 6964,4899 6961,4912 6968,4918 6993,4925 7022,4945 7021,4977 6993,4995 6956,5001 6927,5025 6903,5056 6895,5072 6902,5116 6914,5145 6932,5158 6966,5164 6997,5171 7028,5189 7058,5208 7069,5240 7074,5265 7080,5298 7096,5328 7108,5360 7126,5388 7141,5418 7156,5428 7168,5456 7195,5474 7227,5497 7263,5513 7280,5523 7307,5545 7333,5529 7359,5521 7388,5502 7410,5486 7441,5477 7466,5469 7499,5462 7519,5488 7536,5516 7554,5544 7554,5577 7537,5606 7556,5634 7584,5657 7615,5660 7646,5638 7675,5621 7701,5628 7729,5631 7757,5628 7744,5658 7765,5685 7756,5713 7730,5722 7735,5750 7769,5778 7780,5809 7786,5840 7812,5844 7842,5826 7871,5825 7897,5826 7928,5807 7953,5809 7977,5835 7987,5867 7993,5902 8021,5918 8048,5932 8073,5958 8085,5989 8120,6006 8146,6009 8176,6014 8202,6030 8231,6051 8259,6057 8286,6079 8295,6104 8322,6130 8331,6159 8355,6185 8352,6207 8367,6227 8367,6237 8355,6250 8338,6252 8313,6280 8303,6308 8274,6334 8261,6362 8269,6393 8265,6395 8236,6407 8205,6432 8175,6439 8142,6435 8131,6409 8103,6381 8073,6364 8042,6376 8013,6388 7985,6406 7959,6427 7953,6456 7923,6481 7898,6500 7865,6503 7833,6499 7802,6513 7770,6542 7740,6551 7709,6551 7677,6542 7645,6521 7614,6500 7593,6475 7579,6449 7554,6434 7528,6432 7500,6441 7488,6421 7489,6394 7478,6369 7446,6342 7464,6312 7438,6289 7428,6262 7401,6236 7373,6232 7348,6205 7335,6173 7341,6148 7342,6115 7313,6106 7286,6084 7272,6052 7245,6027 7218,6017 7191,6002 7165,5989 7140,5972 7106,5950 7100,5924 7084,5897 7053,5881 7022,5884 6992,5884 6965,5872 6938,5867 6901,5850 6905,5822 6887,5791 6864,5765 6851,5733 6824,5721 6792,5705 6760,5689 6732,5671 6718,5665 6709,5662 6692,5651 6681,5636 6675,5625 6647,5626 6618,5621 6590,5616 6562,5612 6535,5603 6504,5576 6482,5547 6454,5540 6425,5544 6395,5553 6382,5551 6370,5545 6337,5530 6335,5503 6329,5478 6306,5451 6287,5408 6268,5378 6267,5353 6288,5325 6288,5298 6294,5273 6300,5247 6293,5215 6266,5205 6260,5173 6231,5148 6205,5136 6172,5119 6145,5108 6118,5084 6104,5052 6074,5022 6064,4989 6043,4962 6034,4965 6055,4931 6080,4889 6105,4849 6130,4814 6134,4788 6133,4760 6119,4732 6092,4705 6067,4684 6041,4667 6013,4659 5988,4654 5960,4648 5933,4641 5905,4629 5878,4609 5855,4583 5829,4555 5805,4528 5784,4516 5790,4419 5776,4388 5772,4347 5790,4299 5835,4249 5932,4132 5962,4097 5995,4079 6067,4053 6091,4033 6120,4018 6152,3998 6157,3997 6193,4053 " class="polyStyle" id="360803" style="fill:#f6f67b"/>
<polygon points="5942,3389 5941,3418 5948,3444 5941,3471 5950,3497 5955,3523 5970,3550 5995,3558 5998,3586 6019,3614 6022,3646 6049,3672 6035,3701 6050,3727 6081,3734 6111,3729 6133,3755 6147,3783 6173,3794 6206,3787 6233,3804 6232,3778 6267,3768 6294,3786 6321,3794 6349,3789 6374,3787 6386,3818 6392,3845 6390,3871 6363,3901 6314,3927 6287,3932 6241,3953 6215,3970 6187,3984 6157,3997 6152,3998 6120,4018 6091,4033 6067,4053 5995,4079 5962,4097 5932,4132 5835,4249 5790,4299 5772,4347 5776,4388 5790,4419 5784,4516 5778,4512 5752,4520 5725,4536 5703,4562 5685,4589 5658,4612 5631,4622 5604,4594 5589,4568 5583,4540 5611,4538 5620,4509 5599,4483 5571,4475 5541,4479 5512,4495 5487,4499 5461,4495 5432,4484 5410,4475 5390,4479 5374,4496 5365,4524 5350,4538 5335,4542 5267,4554 5228,4563 5202,4579 5203,4605 5191,4613 5173,4618 5128,4624 5062,4626 5008,4627 4992,4627 4984,4620 4997,4589 5007,4554 5014,4521 5024,4504 5029,4486 5020,4465 5022,4438 5021,4418 5020,4404 5000,4347 4910,4279 4905,4229 4880,4202 4870,4152 4849,4119 4850,4097 4859,4080 4855,4059 4841,4033 4841,4021 4844,4006 4869,3975 4902,3940 4948,3919 4979,3907 4996,3891 5014,3857 5015,3842 5029,3828 5099,3776 5152,3773 5187,3786 5257,3814 5305,3821 5328,3806 5340,3790 5355,3773 5386,3761 5439,3745 5481,3727 5491,3705 5496,3685 5509,3667 5548,3636 5587,3622 5617,3627 5633,3630 5647,3620 5671,3598 5680,3576 5679,3573 5707,3588 5735,3583 5734,3554 5740,3528 5745,3501 5741,3475 5729,3442 5757,3420 5784,3411 5804,3385 5836,3363 5864,3354 5894,3351 5920,3361 " class="polyStyle" id="360802" style="fill:#ee8b94"/>
<path d="" class="polyStyle" id="500107" style="fill:#fbe6ef"/>
<path d="" class="polyStyle" id="430611" style="fill:#d4ecb2"/>
<path d="" class="polyStyle" id="511304" style="fill:#fbe6ef"/>
<path d="" class="polyStyle" id="340711" style="fill:#ee8b94"/>
<path d="" class="polyStyle" id="320118" style="fill:#f6f67b"/>
<path d="" class="polyStyle" id="510704" style="fill:#f6f67b"/>
<path d="" class="polyStyle" id="411502" style="fill:#ee8b94"/>
<path d="" class="polyStyle" id="320302" style="fill:#d4ecb2"/>
<path d="" class="polyStyle" id="140311" style="fill:#ee8b94"/>
<path d="" class="polyStyle" id="610802" style="fill:#ee8b94"/>
<path d="" class="polyStyle" id="120116" style="fill:#f6f67b"/>
<path d="" class="polyStyle" id="130303" style="fill:#fbe6ef"/>
<path d="" class="polyStyle" id="140211" style="fill:#f6f67b"/>
<path d="" class="polyStyle" id="150207" style="fill:#fbe6ef"/>
<path d="" class="polyStyle" id="211403" style="fill:#f6f67b"/>
<path d="" class="polyStyle" id="150802" style="fill:#f8c67d"/>
<path d="" class="polyStyle" id="210112" style="fill:#ee8b94"/>
<path d="" class="polyStyle" id="230406" style="fill:#d4ecb2"/>
<path d="" class="polyStyle" id="110113" style="fill:#fbe6ef"/>
<path d="" class="polyStyle" id="341702" style="fill:#fbe6ef"/>
<path d="" class="polyStyle" id="420303" style="fill:#ee8b94"/>
<path d="" class="polyStyle" id="340702" style="fill:#d4ecb2"/>
<path d="" class="polyStyle" id="421002" style="fill:#f6f67b"/>
<path d="" class="polyStyle" id="420117" style="fill:#f6f67b"/>
<path d="" class="polyStyle" id="440904" style="fill:#f8c67d"/>
<path d="" class="polyStyle" id="460205" style="fill:#ee8b94"/>
<path d="" class="polyStyle" id="460202" style="fill:#f6f67b"/>
<path d="" class="polyStyle" id="460203" style="fill:#fbe6ef"/>
<path d="" class="polyStyle" id="420304" style="fill:#f6f67b"/>
<path d="" class="polyStyle" id="445302" style="fill:#ee8b94"/>
<path d="" class="polyStyle" id="410202" style="fill:#d4ecb2"/>
<path d="" class="polyStyle" id="440800" style="fill:#f6f67b"/>
<path d="" class="polyStyle" id="440900" style="fill:#ee8b94"/>
<path d="" class="polyStyle" id="340800" style="fill:#ee8b94"/>
<path d="" class="polyStyle" id="460200" style="fill:#f6f67b"/>
<path d="" class="polyStyle" id="460000" style="fill:#ee8b94"/>
<path d="" class="polyStyle" id="450500" style="fill:#ee8b94"/>
<path d="" class="polyStyle" id="450600" style="fill:#ee8b94"/>
<path d="" class="polyStyle" id="440400" style="fill:#f6f67b"/>
<path d="" class="polyStyle" id="441700" style="fill:#f6f67b"/>
<path d="" class="polyStyle" id="441500" style="fill:#f6f67b"/>
<path d="" class="polyStyle" id="350600" style="fill:#ee8b94"/>
<path d="" class="polyStyle" id="710000" style="fill:#f6f67b"/>
<path d="" class="polyStyle" id="510400" style="fill:#f6f67b"/>
<path d="" class="polyStyle" id="522600" style="fill:#fbe6ef"/>
<path d="" class="polyStyle" id="520500" style="fill:#ee8b94"/>
<path d="" class="polyStyle" id="431200" style="fill:#f6f67b"/>
<path d="" class="polyStyle" id="430600" style="fill:#f6f67b"/>
<path d="" class="polyStyle" id="511400" style="fill:#d4ecb2"/>
<path d="" class="polyStyle" id="421000" style="fill:#ee8b94"/>
<path d="" class="polyStyle" id="341700" style="fill:#f6f67b"/>
<path d="" class="polyStyle" id="420500" style="fill:#f6f67b"/>
<path d="" class="polyStyle" id="511300" style="fill:#f6f67b"/>
<path d="" class="polyStyle" id="420900" style="fill:#f6f67b"/>
<path d="" class="polyStyle" id="511700" style="fill:#ee8b94"/>
<path d="" class="polyStyle" id="420600" style="fill:#d4ecb2"/>
<path d="" class="polyStyle" id="411500" style="fill:#fbe6ef"/>
<path d="" class="polyStyle" id="510800" style="fill:#ee8b94"/>
<path d="" class="polyStyle" id="420300" style="fill:#fbe6ef"/>
<path d="" class="polyStyle" id="611000" style="fill:#ee8b94"/>
<path d="" class="polyStyle" id="620800" style="fill:#fbe6ef"/>
<path d="" class="polyStyle" id="370200" style="fill:#ee8b94"/>
<path d="" class="polyStyle" id="371000" style="fill:#f6f67b"/>
<path d="" class="polyStyle" id="370600" style="fill:#fbe6ef"/>
<path d="" class="polyStyle" id="120000" style="fill:#f6f67b"/>
<path d="" class="polyStyle" id="130200" style="fill:#ee8b94"/>
<path d="" class="polyStyle" id="130300" style="fill:#f6f67b"/>
<path d="" class="polyStyle" id="652900" style="fill:#fbe6ef"/>
<path d="" class="polyStyle" id="150500" style="fill:#d4ecb2"/>
<path d="" class="polyStyle" id="" style="fill:#d4ecb2"/>
<path d="" class="polyStyle" id="350500" style="fill:#fbe6ef"/>
<path d="" class="polyStyle" id="440400" style="fill:#f6f67b"/>
<path d="" class="polyStyle" id="421100" style="fill:#d4ecb2"/>
<path d="" class="polyStyle" id="420100" style="fill:#fbe6ef"/>
<path d="" class="polyStyle" id="532500" style="fill:#fbe6ef"/>
<path d="" class="polyStyle" id="654200" style="fill:#fbe6ef"/>
<path d="" class="polyStyle" id="210700" style="fill:#d4ecb2"/>
<path d="" class="polyStyle" id="522300" style="fill:#fbe6ef"/>
<path d="" class="polyStyle" id="" style="fill:#ee8b94"/>
<path d="" class="polyStyle" id="440400" style="fill:#f6f67b"/>
<path d="" class="polyStyle" id="620000" style="fill:#f6f67b"/>
<path d="" class="polyStyle" id="430000" style="fill:#fbe6ef"/>
<path d="" class="polyStyle" id="420000" style="fill:#ee8b94"/>
<path d="" class="polyStyle" id="410000" style="fill:#f6f67b"/>
<path d="" class="polyStyle" id="350000" style="fill:#fbe6ef"/>
<path d="" class="polyStyle" id="520000" style="fill:#f6f67b"/>
<path d="" class="polyStyle" id="" style="fill:#ee8b94"/>
</svg>
