<?xml version="1.0" encoding="UTF-8"?>
<!DOCTYPE svg PUBLIC "-//W3C//DTD SVG 1.1 Tiny//EN" "http://www.w3.org/Graphics/SVG/1.1/DTD/svg11-tiny.dtd">
<svg version="1.1" xmlns="http://www.w3.org/2000/svg" xmlns:xlink="http://www.w3.org/1999/xlink" width="100%" height="100%" viewBox="0,0,8569,9991">
<title>SVG</title>
<desc>Poligon Test</desc>
<style id="style_css_sheet" type="text/css">
.polyStyle{fill: #cccccc;stroke-width:0;fill-rule:evenodd;}
</style>
<circle cx="5155" cy="1303" r="200" stroke="black" stroke-width="1" fill="red" id="361003" name="东乡区"/>
<circle cx="7372" cy="3939" r="200" stroke="black" stroke-width="1" fill="red" id="361028" position="144"name="资溪县"/>
<circle cx="5949" cy="2927" r="200" stroke="black" stroke-width="1" fill="red" id="361027"position="4" name="金溪县"/>
<circle cx="4718" cy="6420" r="200" stroke="black" stroke-width="1" fill="red" id="361023" name="南丰县"/>
<circle cx="6635" cy="6022" r="200" stroke="black" stroke-width="1" fill="red" id="361022" name="黎川县"/>
<circle cx="1252" cy="5353" r="200" stroke="black" stroke-width="1" fill="red" id="361025" name="乐安县"/>
<circle cx="5245" cy="4697" r="200" stroke="black" stroke-width="1" fill="red" id="361021" name="南城县"/>
<circle cx="3144" cy="4754" r="200" stroke="black" stroke-width="1" fill="red" id="361026" name="宜黄县"/>
<circle cx="2326" cy="3671" r="200" stroke="black" stroke-width="1" fill="red" id="361024" name="崇仁县"/>
<circle cx="3668" cy="8285" r="200" stroke="black" stroke-width="1" fill="red" id="361030" name="广昌县"/>
<circle cx="3805" cy="2587" r="200" stroke="black" stroke-width="1" fill="red" id="361002"position="4" name="临川区"/>
<path d="" class="polyStyle" id="" style="fill:#ee8b94"/>
<path d="" class="polyStyle" id="623022" style="fill:#fbe6ef"/>
<path d="" class="polyStyle" id="211421" style="fill:#f6f67b"/>
<path d="" class="polyStyle" id="532524" style="fill:#ee8b94"/>
<path d="" class="polyStyle" id="440825" style="fill:#f6f67b"/>
<path d="" class="polyStyle" id="441721" style="fill:#f6f67b"/>
<path d="" class="polyStyle" id="450521" style="fill:#f6f67b"/>
<path d="" class="polyStyle" id="450123" style="fill:#fbe6ef"/>
<path d="" class="polyStyle" id="350624" style="fill:#f6f67b"/>
<path d="" class="polyStyle" id="" style="fill:#fbe6ef"/>
<path d="" class="polyStyle" id="451224" style="fill:#fbe6ef"/>
<path d="" class="polyStyle" id="350627" style="fill:#f6f67b"/>
<path d="" class="polyStyle" id="" style="fill:#f6f67b"/>
<path d="" class="polyStyle" id="350525" style="fill:#f6f67b"/>
<path d="" class="polyStyle" id="530124" style="fill:#ee8b94"/>
<polygon points="3913,7659 3923,7684 3952,7710 3987,7716 4019,7718 4063,7707 4110,7702 4156,7708 4192,7702 4217,7706 4251,7701 4281,7687 4305,7679 4338,7668 4374,7646 4412,7642 4447,7645 4477,7633 4508,7634 4535,7614 4576,7605 4612,7612 4616,7638 4610,7679 4592,7710 4572,7749 4601,7784 4605,7818 4618,7849 4602,7886 4581,7923 4584,7966 4618,7979 4625,8005 4602,8032 4629,8063 4674,8084 4703,8094 4728,8120 4760,8154 4788,8166 4816,8174 4849,8198 4847,8203 4843,8215 4835,8239 4829,8249 4827,8253 4817,8253 4811,8255 4797,8267 4791,8273 4789,8281 4777,8311 4767,8335 4759,8355 4753,8389 4751,8419 4755,8445 4757,8471 4767,8495 4777,8507 4783,8519 4799,8543 4819,8571 4823,8577 4835,8599 4839,8607 4849,8623 4859,8639 4861,8643 4863,8647 4861,8659 4857,8669 4851,8681 4833,8695 4821,8705 4785,8727 4777,8731 4759,8741 4739,8749 4723,8757 4715,8765 4715,8769 4713,8773 4711,8783 4703,8799 4697,8809 4681,8819 4661,8827 4651,8833 4641,8841 4627,8855 4617,8867 4609,8877 4599,8887 4592,8894 4591,8907 4607,8917 4617,8917 4635,8911 4635,8919 4621,8943 4601,8975 4607,9009 4609,9015 4625,9035 4639,9045 4653,9053 4665,9061 4703,9105 4701,9125 4705,9135 4727,9139 4743,9147 4797,9177 4805,9185 4791,9203 4785,9221 4785,9225 4791,9235 4801,9241 4811,9245 4821,9247 4833,9245 4849,9239 4859,9225 4873,9209 4891,9205 4905,9207 4907,9221 4905,9227 4887,9239 4873,9249 4863,9267 4853,9311 4851,9345 4855,9371 4855,9381 4855,9387 4859,9415 4857,9429 4851,9459 4843,9475 4827,9495 4825,9549 4813,9559 4787,9571 4783,9583 4779,9599 4777,9611 4761,9617 4745,9625 4741,9639 4739,9651 4739,9655 4739,9659 4707,9666 4679,9679 4630,9711 4597,9722 4557,9716 4555,9682 4544,9654 4532,9622 4500,9602 4472,9587 4447,9565 4409,9548 4401,9510 4373,9489 4342,9473 4299,9471 4303,9501 4289,9528 4272,9564 4255,9596 4225,9643 4191,9672 4158,9668 4130,9689 4101,9708 4076,9705 4041,9701 4010,9712 3975,9730 3933,9768 3924,9794 3951,9825 3963,9854 3952,9882 3924,9910 3895,9930 3845,9914 3814,9921 3783,9920 3735,9912 3710,9917 3669,9929 3630,9948 3596,9956 3575,9991 3544,9954 3509,9915 3478,9886 3448,9862 3408,9839 3406,9814 3372,9804 3344,9778 3314,9765 3284,9755 3245,9734 3236,9722 3257,9687 3297,9657 3332,9637 3363,9628 3378,9591 3388,9556 3369,9506 3346,9466 3314,9433 3288,9421 3241,9394 3226,9363 3258,9337 3292,9327 3322,9305 3365,9276 3403,9264 3424,9231 3407,9202 3388,9177 3355,9182 3323,9170 3288,9191 3251,9196 3207,9199 3177,9200 3151,9170 3138,9127 3095,9137 3056,9134 3020,9134 3036,9105 3027,9077 2994,9047 2987,9018 2979,8991 2948,8974 2899,8959 2854,8976 2821,8980 2798,8954 2792,8922 2758,8897 2730,8916 2702,8912 2680,8884 2639,8845 2640,8810 2660,8780 2698,8745 2717,8697 2735,8663 2744,8637 2754,8608 2755,8583 2766,8546 2754,8514 2778,8480 2805,8451 2800,8418 2776,8378 2734,8359 2738,8324 2738,8290 2767,8268 2781,8242 2790,8207 2817,8170 2829,8134 2859,8126 2886,8101 2861,8069 2872,8039 2890,8008 2898,7981 2868,7977 2832,7953 2820,7924 2795,7875 2793,7834 2799,7793 2784,7764 2785,7735 2795,7715 2853,7717 2902,7721 2939,7737 2968,7727 2992,7706 3008,7676 3030,7655 3062,7650 3079,7656 3104,7672 3143,7675 3177,7673 3245,7668 3299,7663 3317,7673 3312,7686 3287,7700 3265,7713 3239,7733 3238,7755 3244,7772 3259,7790 3279,7826 3292,7870 3299,7907 3312,7922 3349,7928 3373,7922 3394,7912 3398,7892 3387,7865 3389,7850 3414,7827 3448,7812 3488,7797 3543,7766 3593,7735 3617,7721 3640,7716 3678,7693 3710,7677 3754,7663 3778,7646 3794,7621 3817,7596 3853,7590 3878,7628 " class="polyStyle" id="361030" style="fill:#ee8b94"/>
<path d="" class="polyStyle" id="522627" style="fill:#ee8b94"/>
<path d="" class="polyStyle" id="510421" style="fill:#fbe6ef"/>
<path d="" class="polyStyle" id="522623" style="fill:#d4ecb2"/>
<polygon points="5517,5715 5544,5722 5570,5739 5599,5762 5627,5762 5665,5781 5685,5808 5716,5819 5715,5822 5707,5829 5690,5848 5663,5877 5675,5906 5698,5932 5728,5924 5758,5946 5744,5975 5718,6004 5703,6035 5722,6062 5737,6093 5761,6120 5790,6142 5775,6170 5766,6197 5783,6223 5798,6253 5792,6283 5797,6309 5801,6338 5788,6367 5763,6355 5733,6349 5704,6368 5676,6377 5650,6378 5623,6368 5595,6382 5589,6409 5608,6439 5597,6467 5581,6494 5580,6521 5592,6549 5619,6578 5624,6609 5601,6637 5606,6663 5632,6669 5642,6695 5623,6724 5609,6751 5635,6767 5656,6797 5681,6813 5700,6840 5725,6860 5745,6867 5737,6879 5720,6890 5720,6925 5725,6952 5712,6981 5708,7011 5708,7037 5706,7068 5696,7097 5668,7095 5642,7093 5644,7119 5644,7146 5651,7174 5647,7201 5655,7230 5660,7259 5643,7286 5646,7371 5636,7401 5627,7427 5622,7454 5607,7482 5594,7516 5585,7517 5575,7519 5553,7519 5535,7525 5523,7533 5509,7541 5501,7547 5485,7559 5471,7569 5413,7579 5409,7581 5425,7603 5421,7611 5413,7625 5407,7629 5401,7633 5393,7637 5387,7639 5371,7645 5357,7647 5345,7649 5315,7659 5315,7663 5311,7671 5305,7695 5303,7711 5303,7729 5309,7741 5285,7749 5267,7755 5235,7783 5213,7803 5195,7819 5185,7825 5165,7839 5153,7843 5147,7851 5145,7855 5149,7875 5147,7885 5143,7897 5137,7909 5127,7921 5117,7937 5085,7983 5081,7991 5067,8009 5061,8011 5049,8009 5045,8005 5035,7997 5027,7995 5023,7999 5015,8015 5005,8023 5001,8027 4983,8041 4971,8053 4972,8060 4979,8063 4987,8065 4993,8074 4979,8095 4967,8119 4949,8137 4946,8137 4933,8133 4917,8127 4905,8121 4881,8125 4873,8131 4871,8135 4855,8181 4849,8198 4816,8174 4788,8166 4760,8154 4728,8120 4703,8094 4674,8084 4629,8063 4602,8032 4625,8005 4618,7979 4584,7966 4581,7923 4602,7886 4618,7849 4605,7818 4601,7784 4572,7749 4592,7710 4610,7679 4616,7638 4612,7612 4576,7605 4535,7614 4508,7634 4477,7633 4447,7645 4412,7642 4374,7646 4338,7668 4305,7679 4281,7687 4251,7701 4217,7706 4192,7702 4156,7708 4110,7702 4063,7707 4019,7718 3987,7716 3952,7710 3923,7684 3913,7659 3878,7628 3853,7590 3817,7596 3794,7621 3778,7646 3754,7663 3710,7677 3678,7693 3640,7716 3617,7721 3593,7735 3543,7766 3488,7797 3448,7812 3414,7827 3389,7850 3387,7865 3398,7892 3394,7912 3373,7922 3349,7928 3312,7922 3299,7907 3292,7870 3279,7826 3259,7790 3244,7772 3238,7755 3239,7733 3265,7713 3287,7700 3312,7686 3317,7673 3299,7663 3245,7668 3177,7673 3143,7675 3104,7672 3079,7656 3062,7650 3030,7655 3008,7676 2992,7706 2968,7727 2939,7737 2902,7721 2853,7717 2795,7715 2800,7705 2807,7660 2831,7606 2875,7582 2904,7556 2904,7530 2921,7501 2951,7482 2951,7478 2967,7451 2976,7422 2981,7393 2986,7366 2982,7333 2969,7303 2977,7274 2973,7248 2945,7217 2972,7203 3000,7198 3025,7185 3051,7169 3077,7150 3089,7125 3116,7106 3141,7091 3168,7085 3189,7059 3193,7034 3211,7008 3215,6981 3209,6951 3239,6936 3267,6931 3295,6923 3296,6896 3322,6879 3332,6854 3340,6829 3324,6800 3316,6773 3345,6752 3359,6725 3364,6698 3370,6673 3386,6645 3415,6628 3437,6600 3463,6577 3492,6571 3518,6543 3546,6520 3559,6494 3578,6469 3604,6449 3631,6431 3658,6420 3684,6425 3718,6424 3745,6426 3775,6424 3805,6419 3832,6412 3857,6385 3869,6354 3877,6329 3871,6303 3853,6275 3847,6247 3860,6221 3870,6193 3879,6164 3901,6137 3922,6112 3953,6094 3958,6065 3953,6037 3954,6009 3957,5983 3955,5957 3961,5929 3987,5927 4016,5927 4034,5905 4045,5898 4072,5888 4101,5886 4127,5885 4153,5883 4179,5886 4206,5899 4235,5926 4263,5939 4291,5961 4320,5967 4365,5981 4390,5987 4416,5999 4428,6024 4453,6049 4483,6052 4510,6050 4541,6032 4552,6002 4583,5987 4613,5984 4638,5982 4665,5969 4690,5955 4720,5964 4747,5964 4778,5960 4806,5959 4825,5932 4852,5912 4838,5885 4810,5863 4784,5833 4775,5803 4800,5783 4820,5755 4842,5727 4872,5729 4899,5753 4912,5780 4934,5807 4960,5836 4986,5833 5012,5859 5035,5887 5051,5915 5076,5932 5102,5947 5132,5950 5163,5932 5188,5908 5217,5894 5229,5867 5254,5838 5284,5840 5313,5846 5339,5828 5368,5811 5385,5783 5410,5756 5435,5735 5461,5712 5490,5713 " class="polyStyle" id="361023" style="fill:#d4ecb2"/>
<polygon points="7461,4645 7473,4665 7481,4681 7485,4689 7487,4703 7491,4715 7493,4725 7497,4731 7505,4735 7537,4747 7553,4763 7555,4797 7555,4811 7549,4877 7549,4887 7549,4901 7579,4955 7583,4965 7591,4971 7599,4975 7604,4986 7595,4995 7587,4999 7567,5017 7563,5023 7559,5031 7559,5037 7559,5049 7569,5065 7579,5073 7591,5075 7595,5081 7595,5089 7587,5095 7579,5111 7577,5121 7583,5141 7585,5163 7623,5207 7627,5209 7631,5209 7655,5201 7659,5201 7661,5205 7663,5211 7665,5225 7665,5263 7679,5305 7693,5331 7699,5337 7697,5345 7697,5353 7695,5365 7677,5409 7673,5423 7665,5435 7659,5443 7651,5451 7639,5463 7615,5477 7591,5487 7579,5495 7569,5507 7559,5525 7541,5557 7537,5567 7535,5581 7537,5589 7541,5597 7547,5603 7551,5609 7555,5617 7557,5627 7557,5631 7553,5663 7551,5683 7551,5701 7551,5713 7549,5725 7545,5745 7535,5769 7535,5775 7539,5781 7549,5793 7553,5801 7561,5811 7571,5821 7591,5839 7603,5837 7617,5829 7631,5831 7641,5833 7653,5843 7661,5849 7669,5851 7679,5855 7683,5855 7691,5855 7705,5855 7717,5853 7721,5853 7735,5849 7739,5851 7747,5867 7747,5887 7745,5899 7741,5905 7735,5913 7735,5917 7725,5925 7721,5929 7719,5937 7723,5951 7727,5955 7737,5959 7759,5963 7767,5963 7789,5953 7811,5957 7818,5958 7827,5959 7833,5971 7833,5991 7841,5999 7859,6005 7883,6007 7891,6005 7899,6009 7905,6023 7879,6061 7871,6091 7875,6121 7867,6135 7863,6137 7857,6141 7851,6141 7831,6139 7827,6141 7817,6155 7807,6171 7801,6183 7799,6187 7773,6215 7771,6227 7771,6231 7783,6247 7783,6259 7783,6265 7769,6283 7725,6321 7673,6357 7651,6371 7641,6377 7637,6380 7635,6395 7641,6407 7635,6415 7613,6427 7599,6433 7577,6445 7561,6449 7554,6446 7547,6431 7543,6421 7531,6427 7509,6455 7499,6471 7497,6477 7487,6489 7469,6533 7463,6545 7455,6555 7443,6561 7433,6565 7417,6571 7407,6573 7391,6575 7387,6577 7357,6605 7325,6659 7321,6667 7313,6681 7303,6691 7281,6705 7261,6735 7259,6749 7253,6781 7251,6803 7253,6809 7259,6821 7271,6837 7277,6853 7283,6869 7287,6883 7287,6895 7285,6911 7287,6931 7291,6945 7297,6957 7297,6961 7277,6975 7265,6981 7249,6991 7223,7011 7215,7021 7211,7025 7199,7029 7181,7033 7171,7037 7157,7039 7151,7037 7141,7035 7129,7033 7117,7029 7111,7029 7105,7033 7095,7035 7087,7039 7079,7043 7071,7045 7057,7055 7029,7073 6995,7101 6975,7121 6935,7157 6907,7177 6901,7177 6885,7171 6879,7173 6875,7175 6859,7185 6841,7207 6819,7225 6807,7239 6807,7255 6805,7275 6789,7291 6773,7303 6765,7313 6763,7317 6749,7327 6747,7347 6741,7365 6739,7369 6735,7371 6729,7367 6719,7363 6713,7361 6703,7359 6691,7357 6681,7353 6671,7351 6661,7345 6655,7335 6653,7317 6651,7307 6649,7303 6641,7295 6631,7291 6627,7291 6621,7293 6613,7297 6607,7303 6593,7303 6583,7301 6571,7299 6557,7293 6549,7289 6541,7281 6535,7279 6515,7281 6433,7339 6413,7345 6389,7355 6377,7369 6369,7381 6365,7393 6359,7403 6355,7415 6353,7419 6347,7423 6337,7425 6313,7427 6303,7429 6289,7429 6281,7429 6267,7429 6255,7429 6246,7427 6239,7417 6239,7406 6233,7397 6233,7393 6223,7387 6167,7363 6161,7367 6155,7371 6151,7381 6145,7387 6135,7395 6125,7403 6115,7411 6103,7419 6091,7423 6077,7423 6059,7421 6047,7415 6039,7411 6031,7413 6013,7415 5987,7423 5927,7447 5891,7459 5879,7467 5869,7475 5871,7479 5861,7485 5855,7507 5851,7515 5849,7525 5847,7539 5845,7553 5835,7575 5829,7573 5801,7577 5775,7563 5769,7551 5765,7537 5763,7531 5761,7519 5759,7509 5753,7497 5745,7489 5723,7487 5707,7487 5691,7485 5681,7491 5665,7499 5651,7505 5629,7511 5621,7513 5594,7516 5607,7482 5622,7454 5627,7427 5636,7401 5646,7371 5643,7286 5660,7259 5655,7230 5647,7201 5651,7174 5644,7146 5644,7119 5642,7093 5668,7095 5696,7097 5706,7068 5708,7037 5708,7011 5712,6981 5725,6952 5720,6925 5720,6890 5737,6879 5745,6867 5725,6860 5700,6840 5681,6813 5656,6797 5635,6767 5609,6751 5623,6724 5642,6695 5632,6669 5606,6663 5601,6637 5624,6609 5619,6578 5592,6549 5580,6521 5581,6494 5597,6467 5608,6439 5589,6409 5595,6382 5623,6368 5650,6378 5676,6377 5704,6368 5733,6349 5763,6355 5788,6367 5801,6338 5797,6309 5792,6283 5798,6253 5783,6223 5766,6197 5775,6170 5790,6142 5761,6120 5737,6093 5722,6062 5703,6035 5718,6004 5744,5975 5758,5946 5728,5924 5698,5932 5675,5906 5663,5877 5690,5848 5707,5829 5715,5822 5716,5819 5742,5799 5781,5775 5794,5752 5770,5705 5749,5677 5744,5657 5742,5648 5724,5643 5712,5629 5715,5623 5710,5618 5677,5588 5675,5572 5690,5562 5739,5547 5790,5518 5795,5505 5786,5483 5782,5471 5787,5463 5796,5445 5810,5434 5842,5429 5882,5457 5902,5468 5930,5465 5946,5456 5957,5434 5965,5411 5974,5404 6009,5389 6022,5380 6015,5365 6007,5342 6030,5332 6041,5334 6060,5352 6073,5361 6084,5360 6125,5340 6171,5337 6249,5379 6310,5433 6376,5457 6405,5471 6442,5503 6492,5537 6551,5668 6568,5687 6587,5688 6636,5683 6658,5671 6670,5648 6711,5594 6774,5553 6781,5530 6779,5503 6751,5445 6725,5424 6716,5385 6713,5275 6703,5199 6719,5154 6773,5117 6858,5092 6868,5085 6885,5081 6909,5050 6921,5036 6954,5013 6994,4995 7021,4980 7038,4951 7051,4920 7065,4891 7068,4884 7092,4864 7136,4855 7177,4833 7197,4798 7211,4763 7216,4736 7223,4730 7238,4722 7251,4727 7257,4725 7271,4719 7281,4713 7289,4713 7299,4725 7303,4735 7303,4743 7311,4747 7319,4747 7325,4747 7331,4745 7343,4731 7351,4723 7355,4715 7361,4707 7365,4703 7395,4677 7403,4663 7411,4651 7425,4633 7429,4633 7449,4637 " class="polyStyle" id="361022" style="fill:#f6f67b"/>
<polygon points="3491,3913 3500,3943 3522,3970 3549,3958 3579,3962 3619,3986 3649,3981 3679,3974 3705,3991 3692,4020 3707,4051 3710,4078 3721,4103 3747,4109 3774,4125 3803,4113 3833,4100 3863,4109 3888,4096 3919,4092 3944,4113 3959,4144 3984,4158 4014,4181 4041,4183 4073,4190 4099,4205 4128,4224 4153,4252 4178,4272 4209,4294 4210,4321 4224,4353 4245,4382 4255,4409 4280,4440 4302,4468 4328,4496 4354,4483 4380,4489 4407,4506 4415,4532 4417,4558 4407,4587 4380,4617 4354,4619 4328,4610 4298,4604 4272,4626 4258,4653 4244,4681 4244,4706 4262,4735 4289,4757 4316,4764 4346,4770 4372,4771 4398,4787 4394,4814 4395,4844 4397,4870 4389,4898 4405,4927 4436,4929 4469,4941 4462,4954 4447,4979 4447,5005 4437,5031 4408,5054 4393,5083 4383,5110 4358,5139 4327,5151 4297,5151 4270,5155 4239,5169 4219,5195 4198,5224 4181,5249 4198,5277 4192,5306 4165,5322 4164,5351 4146,5383 4136,5410 4127,5439 4134,5467 4126,5495 4158,5515 4161,5542 4160,5569 4163,5599 4148,5626 4128,5656 4141,5684 4123,5711 4106,5743 4114,5770 4093,5800 4075,5826 4053,5853 4038,5880 4034,5905 4016,5927 3987,5927 3961,5929 3955,5957 3957,5983 3954,6009 3953,6037 3958,6065 3953,6094 3922,6112 3901,6137 3879,6164 3870,6193 3860,6221 3847,6247 3853,6275 3871,6303 3877,6329 3869,6354 3857,6385 3832,6412 3805,6419 3775,6424 3745,6426 3718,6424 3684,6425 3658,6420 3631,6431 3604,6449 3578,6469 3559,6494 3546,6520 3518,6543 3492,6571 3463,6577 3437,6600 3415,6628 3386,6645 3370,6673 3364,6698 3359,6725 3345,6752 3316,6773 3324,6800 3340,6829 3332,6854 3322,6879 3296,6896 3295,6923 3267,6931 3239,6936 3209,6951 3215,6981 3211,7008 3193,7034 3189,7059 3168,7085 3141,7091 3116,7106 3089,7125 3077,7150 3051,7169 3025,7185 3000,7198 2972,7203 2945,7217 2938,7215 2908,7217 2876,7232 2840,7233 2815,7237 2789,7220 2781,7194 2771,7167 2758,7142 2746,7115 2745,7086 2755,7058 2763,7031 2740,7006 2708,7005 2682,6986 2659,6960 2647,6931 2659,6906 2664,6878 2661,6850 2662,6819 2649,6791 2619,6807 2593,6807 2561,6792 2536,6766 2510,6764 2484,6774 2458,6769 2431,6756 2397,6748 2365,6768 2338,6794 2311,6794 2281,6798 2267,6802 2253,6806 2224,6812 2192,6823 2196,6797 2205,6768 2204,6741 2186,6712 2182,6681 2190,6651 2195,6620 2187,6594 2169,6568 2153,6542 2146,6514 2150,6479 2156,6449 2183,6441 2210,6410 2191,6382 2179,6353 2183,6318 2190,6291 2199,6263 2214,6233 2224,6204 2225,6175 2217,6143 2210,6115 2214,6090 2214,6064 2212,6038 2186,6015 2175,5988 2177,5958 2161,5933 2156,5902 2183,5877 2220,5865 2246,5847 2273,5827 2300,5818 2323,5790 2324,5763 2320,5736 2341,5711 2353,5680 2350,5651 2351,5624 2374,5597 2384,5571 2403,5543 2409,5512 2415,5488 2416,5468 2402,5437 2390,5411 2388,5378 2421,5367 2454,5346 2500,5301 2537,5290 2565,5281 2572,5256 2574,5148 2579,5081 2595,5058 2640,5028 2656,4998 2662,4958 2690,4942 2721,4940 2760,4957 2796,4951 2811,4928 2806,4910 2781,4891 2772,4879 2744,4849 2724,4823 2707,4795 2682,4777 2655,4767 2624,4765 2594,4761 2564,4757 2534,4758 2504,4760 2487,4731 2489,4701 2492,4674 2524,4651 2552,4646 2579,4630 2606,4615 2632,4607 2658,4593 2686,4581 2711,4568 2738,4553 2760,4524 2787,4505 2814,4479 2831,4448 2834,4428 2841,4417 2859,4402 2887,4398 2903,4400 2906,4414 2937,4426 2964,4432 2987,4461 3031,4481 3061,4493 3093,4503 3120,4501 3148,4502 3182,4504 3202,4501 3225,4475 3245,4449 3253,4422 3279,4396 3291,4367 3265,4340 3246,4313 3219,4311 3198,4280 3196,4249 3222,4231 3252,4218 3277,4209 3302,4179 3296,4153 3299,4128 3271,4126 3246,4099 3245,4067 3247,4039 3277,4012 3308,4003 3328,3978 3338,3978 3367,3958 3393,3944 3400,3917 3425,3891 3454,3879 3484,3888 " class="polyStyle" id="361026" style="fill:#ee8b94"/>
<polygon points="994,3789 1026,3803 1053,3812 1082,3826 1107,3821 1138,3827 1164,3827 1193,3826 1218,3837 1222,3838 1220,3855 1208,3886 1181,3907 1193,3935 1219,3948 1249,3976 1254,4002 1264,4032 1269,4058 1295,4086 1315,4112 1342,4138 1370,4145 1397,4136 1409,4111 1431,4082 1441,4050 1452,4024 1472,3985 1473,3957 1499,3952 1528,3941 1554,3928 1585,3948 1594,3977 1613,4003 1609,4031 1618,4058 1639,4090 1650,4117 1661,4144 1703,4179 1731,4177 1761,4200 1788,4227 1815,4230 1868,4251 1872,4280 1867,4307 1866,4338 1882,4364 1874,4391 1863,4421 1855,4446 1826,4454 1817,4479 1821,4508 1826,4538 1826,4568 1816,4597 1825,4625 1828,4652 1840,4680 1846,4708 1837,4734 1836,4760 1820,4786 1790,4799 1763,4824 1744,4854 1718,4879 1689,4902 1660,4911 1651,4940 1662,4969 1674,5001 1681,5028 1686,5054 1697,5079 1715,5105 1724,5134 1723,5164 1739,5189 1767,5208 1794,5226 1823,5239 1856,5229 1863,5197 1892,5208 1923,5232 1947,5264 1972,5283 2000,5308 2027,5317 2056,5320 2088,5308 2114,5316 2140,5322 2166,5312 2193,5301 2219,5318 2248,5323 2278,5312 2305,5314 2338,5320 2379,5338 2387,5370 2388,5378 2390,5411 2402,5437 2416,5468 2415,5488 2409,5512 2403,5543 2384,5571 2374,5597 2351,5624 2350,5651 2353,5680 2341,5711 2320,5736 2324,5763 2323,5790 2300,5818 2273,5827 2246,5847 2220,5865 2183,5877 2156,5902 2161,5933 2177,5958 2175,5988 2186,6015 2212,6038 2214,6064 2214,6090 2210,6115 2217,6143 2225,6175 2224,6204 2214,6233 2199,6263 2190,6291 2183,6318 2179,6353 2191,6382 2210,6410 2183,6441 2156,6449 2150,6479 2146,6514 2153,6542 2169,6568 2187,6594 2195,6620 2190,6651 2182,6681 2186,6712 2204,6741 2205,6768 2196,6797 2192,6823 2180,6830 2154,6837 2152,6864 2130,6894 2104,6899 2077,6909 2095,6939 2086,6964 2071,6990 2068,7017 2062,7047 2060,7079 2088,7104 2110,7133 2084,7159 2072,7187 2057,7215 2044,7242 2016,7266 1995,7294 1967,7307 1954,7335 1936,7365 1923,7393 1912,7419 1886,7441 1867,7470 1840,7482 1825,7516 1785,7531 1763,7561 1760,7604 1718,7639 1704,7619 1676,7590 1648,7573 1610,7541 1582,7541 1544,7552 1514,7568 1482,7551 1459,7511 1423,7483 1394,7470 1367,7457 1346,7430 1355,7403 1358,7375 1344,7349 1319,7323 1300,7287 1288,7260 1270,7232 1267,7206 1269,7180 1281,7155 1281,7127 1255,7100 1230,7091 1192,7068 1167,7050 1165,7021 1151,6995 1142,6967 1139,6941 1114,6914 1075,6907 1048,6905 1019,6896 992,6891 966,6895 941,6902 908,6915 877,6915 852,6915 822,6914 794,6922 747,6945 721,6950 694,6958 652,6963 624,6962 596,6951 568,6928 552,6902 535,6873 527,6842 497,6822 469,6809 444,6782 425,6752 421,6726 417,6699 408,6672 393,6645 365,6619 359,6591 350,6560 334,6534 308,6511 277,6520 251,6527 235,6497 225,6471 216,6441 198,6414 190,6387 190,6359 182,6333 178,6308 179,6279 171,6252 190,6223 215,6211 244,6193 275,6176 301,6167 346,6159 372,6150 396,6123 425,6112 453,6115 482,6117 508,6114 513,6087 503,6062 503,6036 476,6019 461,5991 450,5964 444,5923 446,5896 451,5866 448,5840 434,5815 423,5781 428,5769 438,5739 440,5709 442,5682 454,5653 481,5641 507,5639 532,5637 547,5607 542,5579 532,5554 515,5528 508,5500 513,5471 526,5446 553,5418 580,5401 618,5371 638,5341 641,5315 657,5288 666,5262 638,5243 611,5214 583,5192 553,5190 523,5203 496,5214 464,5236 432,5240 404,5240 379,5234 349,5223 322,5220 295,5209 268,5181 235,5143 205,5126 178,5105 169,5077 143,5057 137,5028 121,5001 95,4974 82,4925 71,4896 41,4888 16,4878 7,4873 0,4847 31,4822 55,4797 71,4764 71,4733 72,4698 73,4667 80,4638 59,4610 74,4585 98,4551 117,4520 129,4489 128,4461 144,4436 163,4405 190,4393 215,4382 240,4357 264,4325 286,4296 314,4271 342,4254 357,4227 389,4210 417,4211 445,4183 457,4155 479,4129 504,4098 525,4066 554,4047 570,4020 595,4007 621,3978 638,3952 659,3926 677,3897 687,3869 697,3842 715,3817 754,3801 771,3796 798,3784 836,3775 867,3775 904,3775 935,3773 965,3775 " class="polyStyle" id="361025" style="fill:#fbe6ef"/>
<polygon points="6024,3566 6039,3597 6063,3624 6089,3624 6121,3615 6148,3625 6156,3653 6158,3683 6131,3709 6132,3736 6157,3754 6188,3764 6203,3789 6231,3800 6257,3793 6285,3784 6311,3793 6340,3823 6339,3851 6361,3879 6387,3888 6413,3897 6440,3916 6449,3942 6449,3973 6440,4003 6433,4032 6440,4063 6414,4073 6388,4065 6362,4059 6334,4056 6307,4053 6281,4054 6252,4070 6234,4099 6223,4127 6229,4156 6243,4182 6262,4208 6269,4236 6249,4265 6234,4293 6243,4322 6266,4348 6254,4378 6242,4409 6226,4434 6231,4453 6251,4454 6279,4443 6304,4423 6329,4403 6356,4381 6387,4362 6415,4368 6418,4395 6416,4424 6429,4451 6457,4469 6484,4482 6509,4494 6548,4511 6575,4524 6585,4549 6581,4577 6584,4601 6576,4621 6555,4643 6539,4678 6493,4680 6447,4681 6421,4685 6393,4702 6399,4729 6393,4760 6394,4790 6403,4800 6411,4804 6431,4824 6449,4844 6478,4865 6508,4879 6535,4871 6560,4862 6588,4852 6616,4843 6643,4841 6669,4841 6702,4834 6732,4824 6741,4850 6733,4877 6750,4902 6724,4929 6723,4958 6755,4984 6770,5011 6796,5030 6822,5036 6859,5064 6868,5085 6858,5092 6773,5117 6719,5154 6703,5199 6713,5275 6716,5385 6725,5424 6751,5445 6779,5503 6781,5530 6774,5553 6711,5594 6670,5648 6658,5671 6636,5683 6587,5688 6568,5687 6551,5668 6492,5537 6442,5503 6405,5471 6376,5457 6310,5433 6249,5379 6171,5337 6125,5340 6084,5360 6073,5361 6060,5352 6041,5334 6030,5332 6007,5342 6015,5365 6022,5380 6009,5389 5974,5404 5965,5411 5957,5434 5946,5456 5930,5465 5902,5468 5882,5457 5842,5429 5810,5434 5796,5445 5787,5463 5782,5471 5786,5483 5795,5505 5790,5518 5739,5547 5690,5562 5675,5572 5677,5588 5710,5618 5715,5623 5712,5629 5724,5643 5742,5648 5744,5657 5749,5677 5770,5705 5794,5752 5781,5775 5742,5799 5716,5819 5685,5808 5665,5781 5627,5762 5599,5762 5570,5739 5544,5722 5517,5715 5490,5713 5461,5712 5435,5735 5410,5756 5385,5783 5368,5811 5339,5828 5313,5846 5284,5840 5254,5838 5229,5867 5217,5894 5188,5908 5163,5932 5132,5950 5102,5947 5076,5932 5051,5915 5035,5887 5012,5859 4986,5833 4960,5836 4934,5807 4912,5780 4899,5753 4872,5729 4842,5727 4820,5755 4800,5783 4775,5803 4784,5833 4810,5863 4838,5885 4852,5912 4825,5932 4806,5959 4778,5960 4747,5964 4720,5964 4690,5955 4665,5969 4638,5982 4613,5984 4583,5987 4552,6002 4541,6032 4510,6050 4483,6052 4453,6049 4428,6024 4416,5999 4390,5987 4365,5981 4320,5967 4291,5961 4263,5939 4235,5926 4206,5899 4179,5886 4153,5883 4127,5885 4101,5886 4072,5888 4045,5898 4034,5905 4038,5880 4053,5853 4075,5826 4093,5800 4114,5770 4106,5743 4123,5711 4141,5684 4128,5656 4148,5626 4163,5599 4160,5569 4161,5542 4158,5515 4126,5495 4134,5467 4127,5439 4136,5410 4146,5383 4164,5351 4165,5322 4192,5306 4198,5277 4181,5249 4198,5224 4219,5195 4239,5169 4270,5155 4297,5151 4327,5151 4358,5139 4383,5110 4393,5083 4408,5054 4437,5031 4447,5005 4447,4979 4462,4954 4469,4941 4515,4926 4541,4909 4554,4879 4568,4852 4554,4822 4559,4797 4555,4762 4561,4729 4573,4701 4591,4674 4597,4648 4607,4621 4631,4595 4655,4567 4645,4534 4618,4512 4606,4483 4630,4454 4647,4427 4664,4399 4690,4373 4709,4342 4693,4312 4665,4296 4637,4274 4627,4248 4601,4228 4571,4214 4541,4205 4530,4178 4523,4149 4529,4118 4544,4089 4529,4063 4537,4038 4557,4009 4586,3997 4614,3987 4639,3970 4667,3950 4680,3920 4684,3894 4711,3891 4738,3903 4768,3906 4795,3902 4823,3887 4849,3889 4876,3872 4907,3864 4935,3860 4955,3856 4970,3862 4961,3881 4987,3895 5018,3898 5043,3905 5073,3913 5102,3906 5131,3921 5136,3948 5123,3958 5125,3984 5119,4010 5138,4039 5165,4049 5193,4047 5220,4029 5253,4027 5283,4027 5311,4030 5375,4022 5397,4027 5411,4024 5420,4025 5436,4029 5456,4053 5470,4066 5482,4066 5485,4056 5486,4038 5491,4016 5511,3996 5530,3978 5545,3964 5547,3945 5542,3928 5546,3913 5560,3905 5577,3911 5597,3916 5617,3914 5642,3908 5657,3915 5663,3929 5662,3946 5643,3970 5646,3988 5658,3995 5682,3994 5721,3983 5738,3975 5755,3970 5781,3959 5806,3932 5823,3903 5849,3878 5871,3845 5871,3823 5875,3768 5881,3746 5886,3726 5903,3696 5916,3665 5932,3652 5940,3637 5967,3615 5986,3587 6011,3556 6019,3562 " class="polyStyle" id="361021" style="fill:#fbe6ef"/>
<polygon points="7733,2986 7764,3015 7797,3013 7828,2989 7848,2963 7879,2974 7900,3006 7931,3011 7965,3012 7994,3043 8028,3062 8053,3050 8079,3032 8105,3002 8137,2996 8173,3011 8198,3019 8228,3037 8250,3048 8278,3088 8305,3109 8331,3115 8369,3155 8418,3212 8417,3215 8417,3223 8421,3227 8435,3237 8456,3250 8465,3251 8503,3245 8507,3245 8517,3253 8545,3283 8547,3287 8553,3303 8555,3315 8553,3333 8545,3361 8533,3407 8529,3439 8526,3464 8531,3479 8539,3501 8553,3523 8565,3553 8569,3577 8567,3587 8563,3593 8543,3615 8527,3643 8521,3649 8507,3651 8477,3645 8431,3629 8419,3639 8417,3645 8419,3685 8425,3695 8439,3713 8439,3719 8419,3739 8411,3741 8399,3749 8379,3763 8367,3771 8365,3777 8365,3789 8358,3824 8345,3837 8341,3837 8337,3835 8316,3821 8311,3821 8299,3829 8281,3843 8273,3853 8259,3875 8245,3881 8237,3877 8221,3873 8197,3877 8177,3873 8169,3867 8161,3865 8147,3879 8137,3889 8113,3889 8085,3883 8079,3883 8075,3883 8071,3891 8057,3917 8057,3921 8059,3959 8065,3985 8065,3991 8061,4017 8063,4033 8061,4043 8059,4047 8053,4047 8005,4047 7987,4047 7973,4051 7969,4053 7957,4061 7949,4067 7939,4073 7927,4075 7923,4075 7889,4069 7871,4063 7865,4061 7853,4053 7835,4049 7803,4039 7739,4027 7725,4023 7675,4009 7659,4003 7649,3997 7635,3997 7623,3999 7607,4011 7569,4061 7537,4081 7521,4117 7519,4127 7523,4133 7545,4149 7555,4155 7565,4173 7571,4185 7575,4197 7587,4217 7593,4235 7591,4245 7583,4253 7568,4254 7565,4261 7579,4295 7583,4299 7583,4303 7573,4315 7559,4325 7539,4329 7529,4329 7517,4327 7505,4321 7491,4311 7485,4309 7473,4295 7447,4273 7441,4267 7439,4261 7433,4249 7435,4223 7431,4211 7403,4189 7365,4151 7361,4145 7355,4137 7337,4127 7315,4121 7295,4113 7257,4121 7233,4123 7209,4143 7189,4155 7175,4165 7157,4183 7139,4201 7137,4205 7135,4219 7141,4241 7145,4249 7145,4263 7137,4283 7125,4301 7115,4311 7107,4315 7103,4311 7089,4297 7083,4298 7069,4313 7067,4317 7059,4327 7055,4333 7063,4349 7071,4365 7077,4375 7083,4381 7107,4391 7123,4405 7121,4417 7117,4425 7099,4433 7099,4441 7117,4451 7133,4449 7143,4463 7149,4477 7155,4491 7159,4503 7159,4513 7157,4529 7151,4553 7147,4571 7137,4589 7133,4605 7133,4611 7127,4637 7125,4655 7125,4665 7129,4671 7137,4683 7147,4689 7157,4695 7179,4701 7195,4707 7207,4709 7213,4711 7227,4717 7238,4722 7223,4730 7216,4736 7211,4763 7197,4798 7177,4833 7136,4855 7092,4864 7068,4884 7065,4891 7051,4920 7038,4951 7021,4980 6994,4995 6954,5013 6921,5036 6909,5050 6885,5081 6868,5085 6859,5064 6822,5036 6796,5030 6770,5011 6755,4984 6723,4958 6724,4929 6750,4902 6733,4877 6741,4850 6732,4824 6702,4834 6669,4841 6643,4841 6616,4843 6588,4852 6560,4862 6535,4871 6508,4879 6478,4865 6449,4844 6431,4824 6411,4804 6403,4800 6394,4790 6393,4760 6399,4729 6393,4702 6421,4685 6447,4681 6493,4680 6539,4678 6555,4643 6576,4621 6584,4601 6581,4577 6585,4549 6575,4524 6548,4511 6509,4494 6484,4482 6457,4469 6429,4451 6416,4424 6418,4395 6415,4368 6387,4362 6356,4381 6329,4403 6304,4423 6279,4443 6251,4454 6231,4453 6226,4434 6242,4409 6254,4378 6266,4348 6243,4322 6234,4293 6249,4265 6269,4236 6262,4208 6243,4182 6229,4156 6223,4127 6234,4099 6252,4070 6281,4054 6307,4053 6334,4056 6362,4059 6388,4065 6414,4073 6440,4063 6433,4032 6440,4003 6449,3973 6449,3942 6440,3916 6413,3897 6387,3888 6361,3879 6339,3851 6340,3823 6311,3793 6285,3784 6257,3793 6231,3800 6203,3789 6188,3764 6157,3754 6132,3736 6131,3709 6158,3683 6156,3653 6148,3625 6121,3615 6089,3624 6063,3624 6039,3597 6024,3566 6019,3562 6011,3556 5996,3546 5969,3531 5966,3502 5969,3473 5971,3444 5975,3415 5978,3386 5985,3358 5996,3335 6019,3306 6047,3280 6062,3261 6090,3232 6103,3225 6131,3204 6161,3177 6176,3167 6205,3145 6237,3136 6270,3130 6293,3120 6329,3117 6354,3126 6383,3134 6408,3133 6440,3122 6470,3131 6479,3159 6481,3185 6480,3213 6505,3199 6533,3192 6563,3187 6592,3188 6620,3198 6646,3210 6672,3216 6697,3191 6713,3171 6717,3143 6719,3123 6723,3113 6755,3114 6769,3136 6803,3176 6835,3206 6862,3211 6887,3199 6912,3168 6937,3140 6955,3106 6974,3088 7007,3081 7069,3069 7097,3060 7090,3073 7126,3096 7152,3120 7148,3147 7143,3174 7146,3204 7177,3224 7224,3231 7254,3233 7286,3227 7301,3194 7316,3163 7349,3137 7376,3111 7397,3082 7430,3064 7449,3027 7465,2998 7494,3025 7518,3052 7547,3077 7579,3061 7583,3032 7586,3002 7584,2974 7617,2945 7636,2918 7670,2913 7701,2950 " class="polyStyle" id="361028" style="fill:#ee8b94"/>
<polygon points="2431,2793 2480,2825 2517,2872 2542,2925 2544,2996 2531,3017 2492,3018 2457,3000 2455,3026 2500,3058 2564,3106 2569,3143 2571,3185 2579,3205 2610,3206 2631,3201 2637,3180 2666,3122 2679,3087 2677,3057 2691,3025 2726,2973 2781,2936 2831,2931 2865,2910 2887,2878 2917,2855 2927,2831 2934,2793 2955,2780 2980,2782 3004,2793 3025,2793 3054,2781 3085,2772 3105,2780 3119,2791 3132,2813 3133,2834 3139,2871 3137,2898 3135,2926 3144,2952 3170,2957 3196,2955 3224,2958 3253,2973 3263,2978 3300,3011 3313,3036 3310,3060 3291,3105 3276,3141 3286,3180 3318,3202 3361,3212 3378,3218 3386,3227 3382,3247 3375,3262 3368,3280 3368,3308 3373,3334 3352,3366 3348,3391 3362,3399 3390,3424 3410,3438 3435,3462 3417,3489 3410,3495 3396,3503 3370,3508 3339,3507 3317,3487 3296,3477 3272,3479 3247,3493 3246,3517 3261,3547 3275,3580 3267,3615 3224,3672 3205,3738 3207,3746 3207,3775 3203,3805 3208,3832 3218,3860 3231,3888 3257,3912 3275,3941 3298,3968 3328,3978 3308,4003 3277,4012 3247,4039 3245,4067 3246,4099 3271,4126 3299,4128 3296,4153 3302,4179 3277,4209 3252,4218 3222,4231 3196,4249 3198,4280 3219,4311 3246,4313 3265,4340 3291,4367 3279,4396 3253,4422 3245,4449 3225,4475 3202,4501 3182,4504 3148,4502 3120,4501 3093,4503 3061,4493 3031,4481 2987,4461 2964,4432 2937,4426 2906,4414 2903,4400 2887,4398 2859,4402 2841,4417 2834,4428 2831,4448 2814,4479 2787,4505 2760,4524 2738,4553 2711,4568 2686,4581 2658,4593 2632,4607 2606,4615 2579,4630 2552,4646 2524,4651 2492,4674 2489,4701 2487,4731 2504,4760 2534,4758 2564,4757 2594,4761 2624,4765 2655,4767 2682,4777 2707,4795 2724,4823 2744,4849 2772,4879 2781,4891 2806,4910 2811,4928 2796,4951 2760,4957 2721,4940 2690,4942 2662,4958 2656,4998 2640,5028 2595,5058 2579,5081 2574,5148 2572,5256 2565,5281 2537,5290 2500,5301 2454,5346 2421,5367 2388,5378 2387,5370 2379,5338 2338,5320 2305,5314 2278,5312 2248,5323 2219,5318 2193,5301 2166,5312 2140,5322 2114,5316 2088,5308 2056,5320 2027,5317 2000,5308 1972,5283 1947,5264 1923,5232 1892,5208 1863,5197 1856,5229 1823,5239 1794,5226 1767,5208 1739,5189 1723,5164 1724,5134 1715,5105 1697,5079 1686,5054 1681,5028 1674,5001 1662,4969 1651,4940 1660,4911 1689,4902 1718,4879 1744,4854 1763,4824 1790,4799 1820,4786 1836,4760 1837,4734 1846,4708 1840,4680 1828,4652 1825,4625 1816,4597 1826,4568 1826,4538 1821,4508 1817,4479 1826,4454 1855,4446 1863,4421 1874,4391 1882,4364 1866,4338 1867,4307 1872,4280 1868,4251 1815,4230 1788,4227 1761,4200 1731,4177 1703,4179 1661,4144 1650,4117 1639,4090 1618,4058 1609,4031 1613,4003 1594,3977 1585,3948 1554,3928 1528,3941 1499,3952 1473,3957 1472,3985 1452,4024 1441,4050 1431,4082 1409,4111 1397,4136 1370,4145 1342,4138 1315,4112 1295,4086 1269,4058 1264,4032 1254,4002 1249,3976 1219,3948 1193,3935 1181,3907 1208,3886 1220,3855 1222,3838 1253,3814 1257,3786 1277,3760 1286,3732 1299,3701 1298,3674 1280,3648 1303,3619 1313,3591 1332,3562 1340,3535 1348,3505 1337,3478 1359,3453 1366,3427 1367,3400 1358,3374 1348,3344 1339,3317 1339,3290 1349,3262 1358,3235 1361,3210 1392,3188 1422,3189 1449,3196 1476,3188 1504,3167 1535,3146 1555,3119 1565,3091 1573,3066 1601,3052 1626,3050 1654,3045 1687,3031 1717,3026 1744,3009 1772,2993 1800,2997 1826,3007 1856,3003 1887,2984 1932,2986 1961,2981 1989,2972 2015,2963 2041,2974 2067,2973 2095,2960 2128,2949 2162,2931 2189,2908 2210,2875 2225,2842 2249,2822 2286,2810 2347,2765 2369,2755 2400,2783 " class="polyStyle" id="361024" style="fill:#f6f67b"/>
<path d="" class="polyStyle" id="430321" style="fill:#d4ecb2"/>
<polygon points="5719,2018 5736,2052 5744,2085 5747,2106 5764,2142 5792,2145 5826,2151 5839,2178 5866,2251 5857,2268 5835,2300 5837,2317 5848,2321 5877,2320 5912,2309 5927,2293 5933,2276 5947,2252 5962,2236 5985,2238 6017,2258 6057,2290 6081,2304 6115,2308 6137,2309 6143,2307 6161,2303 6189,2285 6214,2278 6233,2248 6240,2223 6266,2224 6300,2210 6307,2175 6304,2145 6297,2119 6326,2085 6333,2057 6335,2038 6365,2035 6396,2050 6421,2050 6448,2055 6467,2081 6485,2108 6516,2126 6556,2122 6584,2120 6612,2110 6612,2085 6607,2054 6620,2028 6633,2000 6661,1976 6669,1979 6682,1985 6713,2010 6705,2042 6708,2075 6708,2101 6706,2127 6718,2157 6724,2192 6727,2199 6729,2210 6727,2220 6712,2233 6708,2246 6728,2258 6756,2254 6799,2234 6844,2225 6871,2234 6881,2265 6886,2301 6899,2326 6922,2350 6941,2387 6977,2413 7004,2432 7032,2452 7068,2511 7100,2529 7128,2547 7154,2560 7198,2582 7225,2584 7265,2606 7290,2621 7283,2655 7262,2686 7260,2715 7275,2744 7274,2774 7264,2801 7230,2810 7201,2810 7187,2845 7166,2877 7149,2909 7121,2927 7111,2965 7087,2996 7096,3032 7097,3060 7069,3069 7007,3081 6974,3088 6955,3106 6937,3140 6912,3168 6887,3199 6862,3211 6835,3206 6803,3176 6769,3136 6755,3114 6723,3113 6719,3123 6717,3143 6713,3171 6697,3191 6672,3216 6646,3210 6620,3198 6592,3188 6563,3187 6533,3192 6505,3199 6480,3213 6481,3185 6479,3159 6470,3131 6440,3122 6408,3133 6383,3134 6354,3126 6329,3117 6293,3120 6270,3130 6237,3136 6205,3145 6176,3167 6161,3177 6131,3204 6103,3225 6090,3232 6062,3261 6047,3280 6019,3306 5996,3335 5985,3358 5978,3386 5975,3415 5971,3444 5969,3473 5966,3502 5969,3531 5996,3546 6011,3556 5986,3587 5967,3615 5940,3637 5932,3652 5916,3665 5903,3696 5886,3726 5881,3746 5875,3768 5871,3823 5871,3845 5849,3878 5823,3903 5806,3932 5781,3959 5755,3970 5738,3975 5721,3983 5682,3994 5658,3995 5646,3988 5643,3970 5662,3946 5663,3929 5657,3915 5642,3908 5617,3914 5597,3916 5577,3911 5560,3905 5546,3913 5542,3928 5547,3945 5545,3964 5530,3978 5511,3996 5491,4016 5486,4038 5485,4056 5482,4066 5470,4066 5456,4053 5436,4029 5420,4025 5411,4024 5397,4027 5375,4022 5311,4030 5283,4027 5253,4027 5220,4029 5193,4047 5165,4049 5138,4039 5119,4010 5125,3984 5123,3958 5136,3948 5167,3954 5199,3951 5225,3928 5240,3901 5250,3888 5253,3846 5256,3814 5248,3776 5235,3749 5238,3736 5253,3722 5282,3711 5309,3690 5321,3663 5327,3632 5323,3603 5309,3577 5290,3549 5262,3534 5236,3523 5207,3515 5179,3504 5157,3475 5152,3449 5138,3423 5132,3397 5124,3366 5122,3337 5142,3311 5150,3285 5140,3259 5112,3229 5084,3200 5049,3175 5018,3156 4983,3137 4956,3126 4923,3116 4894,3104 4870,3074 4876,3046 4877,3020 4869,2992 4839,2974 4809,2961 4789,2928 4752,2903 4716,2897 4690,2898 4658,2901 4628,2899 4603,2887 4571,2888 4537,2897 4503,2906 4473,2912 4445,2906 4405,2874 4377,2849 4370,2820 4412,2787 4440,2770 4470,2745 4498,2716 4525,2690 4539,2663 4535,2631 4535,2601 4525,2574 4528,2544 4541,2514 4529,2488 4525,2463 4539,2443 4564,2440 4588,2443 4603,2434 4612,2416 4613,2398 4600,2376 4569,2371 4538,2359 4531,2332 4546,2305 4560,2279 4578,2253 4603,2226 4633,2222 4659,2208 4663,2178 4672,2184 4681,2185 4686,2181 4691,2178 4702,2172 4709,2170 4708,2132 4759,2128 4765,2087 4823,2086 4858,2089 4863,2097 4864,2107 4868,2113 4879,2123 4886,2129 4888,2143 4890,2157 4894,2162 4904,2161 4915,2156 4925,2155 4944,2164 4959,2172 4971,2184 4982,2196 4991,2198 4997,2202 5014,2209 5029,2211 5025,2204 5029,2196 5034,2191 5045,2183 5051,2184 5057,2183 5061,2189 5072,2192 5096,2197 5104,2229 5132,2254 5157,2251 5190,2221 5222,2189 5254,2172 5278,2200 5293,2232 5324,2262 5359,2290 5395,2299 5426,2273 5466,2239 5487,2211 5481,2180 5475,2166 5454,2153 5424,2148 5426,2110 5427,2088 5463,2093 5495,2104 5536,2100 5562,2090 5574,2058 5589,2039 5607,2006 5643,1969 5676,1968 5701,1978 " class="polyStyle" id="361027" style="fill:#f6f67b"/>
<polygon points="4899,10 4935,44 4955,77 4979,109 4996,145 4988,176 4996,203 4982,231 4976,259 4968,286 4958,323 4949,356 4922,384 4902,419 4889,451 4916,481 4950,511 4967,538 4995,545 5033,520 5063,510 5091,520 5120,530 5149,525 5175,528 5207,540 5239,561 5255,587 5295,596 5328,590 5356,581 5388,561 5414,546 5447,553 5473,567 5500,571 5526,556 5551,548 5585,549 5613,541 5642,509 5660,476 5676,448 5706,427 5735,425 5760,448 5781,476 5791,506 5799,534 5808,562 5818,587 5847,617 5875,623 5906,621 5932,621 5944,646 5943,673 5951,699 5978,733 5992,741 5992,769 6018,788 6034,816 6044,842 6041,873 6032,901 6036,927 6068,927 6097,938 6109,965 6128,999 6137,1028 6113,1059 6120,1086 6091,1108 6089,1133 6089,1160 6060,1169 6059,1197 6030,1215 5998,1203 5964,1186 5937,1176 5911,1187 5883,1197 5849,1188 5819,1173 5787,1149 5751,1146 5724,1151 5699,1160 5662,1187 5630,1210 5599,1220 5570,1242 5545,1266 5525,1294 5512,1323 5501,1354 5504,1382 5517,1412 5543,1439 5569,1454 5595,1460 5625,1444 5654,1434 5687,1438 5716,1452 5707,1481 5687,1509 5669,1540 5684,1570 5711,1577 5743,1567 5771,1566 5783,1597 5793,1628 5819,1627 5847,1615 5881,1606 5910,1598 5937,1584 5966,1573 5998,1592 6029,1615 6057,1626 6085,1631 6107,1662 6101,1691 6065,1718 6043,1743 6034,1768 6029,1796 6019,1827 6018,1859 6032,1893 6061,1908 6048,1933 6045,1961 6067,1987 6092,1989 6119,1959 6145,1951 6172,1937 6199,1945 6226,1953 6250,1979 6277,2001 6306,2006 6331,2036 6335,2038 6333,2057 6326,2085 6297,2119 6304,2145 6307,2175 6300,2210 6266,2224 6240,2223 6233,2248 6214,2278 6189,2285 6161,2303 6143,2307 6137,2309 6115,2308 6081,2304 6057,2290 6017,2258 5985,2238 5962,2236 5947,2252 5933,2276 5927,2293 5912,2309 5877,2320 5848,2321 5837,2317 5835,2300 5857,2268 5866,2251 5839,2178 5826,2151 5792,2145 5764,2142 5747,2106 5744,2085 5736,2052 5719,2018 5701,1978 5676,1968 5643,1969 5607,2006 5589,2039 5574,2058 5562,2090 5536,2100 5495,2104 5463,2093 5427,2088 5426,2110 5424,2148 5454,2153 5475,2166 5481,2180 5487,2211 5466,2239 5426,2273 5395,2299 5359,2290 5324,2262 5293,2232 5278,2200 5254,2172 5222,2189 5190,2221 5157,2251 5132,2254 5104,2229 5096,2197 5072,2192 5061,2189 5057,2183 5051,2184 5045,2183 5034,2191 5029,2196 5025,2204 5029,2211 5014,2209 4997,2202 4991,2198 4982,2196 4971,2184 4959,2172 4944,2164 4925,2155 4915,2156 4904,2161 4894,2162 4890,2157 4888,2143 4886,2129 4879,2123 4868,2113 4864,2107 4863,2097 4858,2089 4823,2086 4765,2087 4759,2128 4708,2132 4709,2170 4702,2172 4691,2178 4686,2181 4681,2185 4672,2184 4663,2178 4659,2175 4655,2172 4643,2162 4628,2153 4606,2151 4586,2148 4570,2143 4561,2139 4554,2131 4554,2124 4561,2119 4569,2106 4576,2086 4569,2071 4551,2071 4523,2080 4506,2091 4486,2087 4476,2058 4446,2031 4423,1991 4411,1960 4403,1932 4376,1926 4342,1931 4318,1953 4313,1986 4312,2028 4298,2034 4286,2037 4268,2034 4239,2027 4221,2029 4218,2045 4210,2057 4190,2048 4164,2027 4145,2005 4143,1984 4140,1972 4119,1960 4098,1961 4085,1960 4067,1953 4058,1951 4055,1956 4057,1962 4063,1969 4068,1976 4059,1980 4047,1978 4034,1972 4024,1972 4021,1979 4019,1987 4012,1992 4003,1996 3987,1986 3980,1991 3969,1994 3973,1977 3980,1959 3989,1936 3986,1916 3957,1897 3939,1875 3944,1869 3957,1873 3977,1869 3984,1854 3980,1825 3963,1804 3950,1791 3947,1775 3934,1761 3915,1749 3919,1739 3930,1729 3940,1725 3950,1734 3956,1754 3964,1762 3974,1759 3977,1743 3974,1727 3966,1709 3946,1692 3920,1669 3894,1646 3874,1608 3855,1568 3837,1541 3810,1513 3786,1494 3772,1470 3780,1438 3822,1425 3851,1443 3880,1427 3893,1402 3875,1375 3904,1367 3923,1327 3923,1300 3951,1267 3979,1258 4007,1271 4036,1254 4063,1245 4090,1236 4124,1220 4156,1224 4184,1232 4218,1237 4251,1236 4291,1220 4317,1210 4344,1234 4376,1204 4386,1167 4409,1128 4426,1092 4441,1061 4445,1030 4434,1005 4476,978 4502,967 4532,949 4563,929 4583,901 4581,866 4580,841 4583,808 4582,782 4576,754 4577,721 4581,695 4604,667 4625,639 4623,611 4636,584 4667,553 4699,523 4732,494 4758,477 4790,458 4815,446 4823,420 4830,390 4837,360 4860,331 4849,303 4863,276 4863,247 4834,239 4826,212 4835,186 4835,153 4833,124 4813,96 4820,69 4819,42 4833,15 4837,-1 4863,3 " class="polyStyle" id="361029" style="fill:#ee8b94"/>
<path d="" class="polyStyle" id="511129" style="fill:#d4ecb2"/>
<path d="" class="polyStyle" id="511423" style="fill:#ee8b94"/>
<path d="" class="polyStyle" id="421023" style="fill:#f6f67b"/>
<path d="" class="polyStyle" id="511724" style="fill:#f6f67b"/>
<path d="" class="polyStyle" id="420526" style="fill:#fbe6ef"/>
<path d="" class="polyStyle" id="511923" style="fill:#fbe6ef"/>
<path d="" class="polyStyle" id="420325" style="fill:#fbe6ef"/>
<path d="" class="polyStyle" id="511921" style="fill:#f6f67b"/>
<path d="" class="polyStyle" id="542525" style="fill:#f6f67b"/>
<path d="" class="polyStyle" id="611026" style="fill:#ee8b94"/>
<path d="" class="polyStyle" id="411023" style="fill:#fbe6ef"/>
<path d="" class="polyStyle" id="632323" style="fill:#f6f67b"/>
<path d="" class="polyStyle" id="140525" style="fill:#d4ecb2"/>
<path d="" class="polyStyle" id="410922" style="fill:#ee8b94"/>
<path d="" class="polyStyle" id="621027" style="fill:#ee8b94"/>
<path d="" class="polyStyle" id="130427" style="fill:#f6f67b"/>
<path d="" class="polyStyle" id="130121" style="fill:#ee8b94"/>
<path d="" class="polyStyle" id="610823" style="fill:#fbe6ef"/>
<path d="" class="polyStyle" id="130225" style="fill:#fbe6ef"/>
<path d="" class="polyStyle" id="130322" style="fill:#d4ecb2"/>
<path d="" class="polyStyle" id="653130" style="fill:#f6f67b"/>
<path d="" class="polyStyle" id="130822" style="fill:#fbe6ef"/>
<path d="" class="polyStyle" id="211221" style="fill:#f6f67b"/>
<path d="" class="polyStyle" id="210921" style="fill:#f6f67b"/>
<path d="" class="polyStyle" id="150223" style="fill:#f8c67d"/>
<path d="" class="polyStyle" id="220422" style="fill:#d4ecb2"/>
<path d="" class="polyStyle" id="340721" style="fill:#f6f67b"/>
<path d="" class="polyStyle" id="510824" style="fill:#d4ecb2"/>
<path d="" class="polyStyle" id="610324" style="fill:#f6f67b"/>
<path d="" class="polyStyle" id="530722" style="fill:#ee8b94"/>
<path d="" class="polyStyle" id="340823" style="fill:#d4ecb2"/>
<path d="" class="polyStyle" id="620825" style="fill:#d4ecb2"/>
<path d="" class="polyStyle" id="421125" style="fill:#ee8b94"/>
<path d="" class="polyStyle" id="210281" style="fill:#ee8b94"/>
<path d="" class="polyStyle" id="440883" style="fill:#f6f67b"/>
<path d="" class="polyStyle" id="469006" style="fill:#d4ecb2"/>
<path d="" class="polyStyle" id="469002" style="fill:#ee8b94"/>
<path d="" class="polyStyle" id="469005" style="fill:#fbe6ef"/>
<path d="" class="polyStyle" id="440882" style="fill:#ee8b94"/>
<path d="" class="polyStyle" id="450681" style="fill:#ee8b94"/>
<path d="" class="polyStyle" id="441581" style="fill:#d4ecb2"/>
<path d="" class="polyStyle" id="421087" style="fill:#ee8b94"/>
<path d="" class="polyStyle" id="420984" style="fill:#fbe6ef"/>
<path d="" class="polyStyle" id="420582" style="fill:#ee8b94"/>
<path d="" class="polyStyle" id="370282" style="fill:#f6f67b"/>
<path d="" class="polyStyle" id="371083" style="fill:#f6f67b"/>
<path d="" class="polyStyle" id="371082" style="fill:#fbe6ef"/>
<path d="" class="polyStyle" id="652801" style="fill:#f8c67d"/>
<path d="" class="polyStyle" id="654301" style="fill:#ee8b94"/>
<path d="" class="polyStyle" id="370687" style="fill:#ee8b94"/>
<path d="" class="polyStyle" id="371482" style="fill:#d4ecb2"/>
<path d="" class="polyStyle" id="421081" style="fill:#fbe6ef"/>
<path d="" class="polyStyle" id="429006" style="fill:#f6f67b"/>
<path d="" class="polyStyle" id="440982" style="fill:#d4ecb2"/>
<path d="" class="polyStyle" id="421181" style="fill:#d4ecb2"/>
<path d="" class="polyStyle" id="321181" style="fill:#d4ecb2"/>
<path d="" class="polyStyle" id="659007" style="fill:#ee8b94"/>
<path d="" class="polyStyle" id="652701" style="fill:#fbe6ef"/>
<path d="" class="polyStyle" id="210781" style="fill:#fbe6ef"/>
<path d="" class="polyStyle" id="460204" style="fill:#f6f67b"/>
<path d="" class="polyStyle" id="210211" style="fill:#f6f67b"/>
<path d="" class="polyStyle" id="450512" style="fill:#ee8b94"/>
<path d="" class="polyStyle" id="450602" style="fill:#fbe6ef"/>
<path d="" class="polyStyle" id="440404" style="fill:#ee8b94"/>
<path d="" class="polyStyle" id="440403" style="fill:#f6f67b"/>
<path d="" class="polyStyle" id="441502" style="fill:#f6f67b"/>
<path d="" class="polyStyle" id="431002" style="fill:#d4ecb2"/>
<polygon points="3662,1241 3665,1262 3677,1271 3700,1258 3716,1244 3736,1251 3740,1271 3762,1291 3807,1311 3833,1333 3836,1378 3833,1386 3822,1419 3822,1425 3780,1438 3772,1470 3786,1494 3810,1513 3837,1541 3855,1568 3874,1608 3894,1646 3920,1669 3946,1692 3966,1709 3974,1727 3977,1743 3974,1759 3964,1762 3956,1754 3950,1734 3940,1725 3930,1729 3919,1739 3915,1749 3934,1761 3947,1775 3950,1791 3963,1804 3980,1825 3984,1854 3977,1869 3957,1873 3944,1869 3939,1875 3957,1897 3986,1916 3989,1936 3980,1959 3973,1977 3969,1994 3980,1991 3987,1986 4003,1996 4012,1992 4019,1987 4021,1979 4024,1972 4034,1972 4047,1978 4059,1980 4068,1976 4063,1969 4057,1962 4055,1956 4058,1951 4067,1953 4085,1960 4098,1961 4119,1960 4140,1972 4143,1984 4145,2005 4164,2027 4190,2048 4210,2057 4218,2045 4221,2029 4239,2027 4268,2034 4286,2037 4298,2034 4312,2028 4313,1986 4318,1953 4342,1931 4376,1926 4403,1932 4411,1960 4423,1991 4446,2031 4476,2058 4486,2087 4506,2091 4523,2080 4551,2071 4569,2071 4576,2086 4569,2106 4561,2119 4554,2124 4554,2131 4561,2139 4570,2143 4586,2148 4606,2151 4628,2153 4643,2162 4655,2172 4659,2175 4663,2178 4659,2208 4633,2222 4603,2226 4578,2253 4560,2279 4546,2305 4531,2332 4538,2359 4569,2371 4600,2376 4613,2398 4612,2416 4603,2434 4588,2443 4564,2440 4539,2443 4525,2463 4529,2488 4541,2514 4528,2544 4525,2574 4535,2601 4535,2631 4539,2663 4525,2690 4498,2716 4470,2745 4440,2770 4412,2787 4370,2820 4377,2849 4405,2874 4445,2906 4473,2912 4503,2906 4537,2897 4571,2888 4603,2887 4628,2899 4658,2901 4690,2898 4716,2897 4752,2903 4789,2928 4809,2961 4839,2974 4869,2992 4877,3020 4876,3046 4870,3074 4894,3104 4923,3116 4956,3126 4983,3137 5018,3156 5049,3175 5084,3200 5112,3229 5140,3259 5150,3285 5142,3311 5122,3337 5124,3366 5132,3397 5138,3423 5152,3449 5157,3475 5179,3504 5207,3515 5236,3523 5262,3534 5290,3549 5309,3577 5323,3603 5327,3632 5321,3663 5309,3690 5282,3711 5253,3722 5238,3736 5235,3749 5248,3776 5256,3814 5253,3846 5250,3888 5240,3901 5225,3928 5199,3951 5167,3954 5136,3948 5131,3921 5102,3906 5073,3913 5043,3905 5018,3898 4987,3895 4961,3881 4970,3862 4955,3856 4935,3860 4907,3864 4876,3872 4849,3889 4823,3887 4795,3902 4768,3906 4738,3903 4711,3891 4684,3894 4680,3920 4667,3950 4639,3970 4614,3987 4586,3997 4557,4009 4537,4038 4529,4063 4544,4089 4529,4118 4523,4149 4530,4178 4541,4205 4571,4214 4601,4228 4627,4248 4637,4274 4665,4296 4693,4312 4709,4342 4690,4373 4664,4399 4647,4427 4630,4454 4606,4483 4618,4512 4645,4534 4655,4567 4631,4595 4607,4621 4597,4648 4591,4674 4573,4701 4561,4729 4555,4762 4559,4797 4554,4822 4568,4852 4554,4879 4541,4909 4515,4926 4469,4941 4436,4929 4405,4927 4389,4898 4397,4870 4395,4844 4394,4814 4398,4787 4372,4771 4346,4770 4316,4764 4289,4757 4262,4735 4244,4706 4244,4681 4258,4653 4272,4626 4298,4604 4328,4610 4354,4619 4380,4617 4407,4587 4417,4558 4415,4532 4407,4506 4380,4489 4354,4483 4328,4496 4302,4468 4280,4440 4255,4409 4245,4382 4224,4353 4210,4321 4209,4294 4178,4272 4153,4252 4128,4224 4099,4205 4073,4190 4041,4183 4014,4181 3984,4158 3959,4144 3944,4113 3919,4092 3888,4096 3863,4109 3833,4100 3803,4113 3774,4125 3747,4109 3721,4103 3710,4078 3707,4051 3692,4020 3705,3991 3679,3974 3649,3981 3619,3986 3579,3962 3549,3958 3522,3970 3500,3943 3491,3913 3484,3888 3454,3879 3425,3891 3400,3917 3393,3944 3367,3958 3338,3978 3328,3978 3298,3968 3275,3941 3257,3912 3231,3888 3218,3860 3208,3832 3203,3805 3207,3775 3207,3746 3205,3738 3224,3672 3267,3615 3275,3580 3261,3547 3246,3517 3247,3493 3272,3479 3296,3477 3317,3487 3339,3507 3370,3508 3396,3503 3410,3495 3417,3489 3435,3462 3410,3438 3390,3424 3362,3399 3348,3391 3352,3366 3373,3334 3368,3308 3368,3280 3375,3262 3382,3247 3386,3227 3378,3218 3361,3212 3318,3202 3286,3180 3276,3141 3291,3105 3310,3060 3313,3036 3300,3011 3263,2978 3253,2973 3224,2958 3196,2955 3170,2957 3144,2952 3135,2926 3137,2898 3139,2871 3133,2834 3132,2813 3119,2791 3105,2780 3085,2772 3054,2781 3025,2793 3004,2793 2980,2782 2955,2780 2934,2793 2927,2831 2917,2855 2887,2878 2865,2910 2831,2931 2781,2936 2726,2973 2691,3025 2677,3057 2679,3087 2666,3122 2637,3180 2631,3201 2610,3206 2579,3205 2571,3185 2569,3143 2564,3106 2500,3058 2455,3026 2457,3000 2492,3018 2531,3017 2544,2996 2542,2925 2517,2872 2480,2825 2431,2793 2400,2783 2369,2755 2390,2746 2397,2736 2429,2733 2437,2703 2436,2677 2461,2666 2471,2635 2474,2607 2488,2578 2515,2568 2541,2558 2572,2520 2574,2482 2584,2473 2609,2450 2637,2423 2638,2394 2642,2361 2629,2333 2628,2307 2635,2281 2655,2255 2687,2262 2716,2251 2733,2224 2734,2195 2724,2163 2709,2136 2720,2100 2747,2113 2773,2104 2765,2074 2741,2046 2727,2018 2724,2006 2722,1974 2732,1958 2769,1928 2819,1896 2844,1864 2845,1828 2834,1804 2807,1796 2760,1794 2708,1803 2659,1802 2622,1790 2609,1758 2573,1748 2536,1743 2505,1730 2468,1726 2442,1707 2423,1674 2436,1646 2459,1614 2464,1589 2462,1557 2478,1531 2492,1505 2506,1479 2530,1447 2540,1415 2541,1390 2571,1368 2589,1338 2609,1306 2619,1280 2651,1299 2695,1317 2743,1343 2798,1372 2830,1395 2855,1429 2861,1455 2856,1481 2861,1509 2891,1535 2921,1562 2948,1568 2978,1563 3009,1567 3040,1577 3070,1583 3098,1597 3124,1623 3144,1651 3169,1677 3188,1647 3197,1617 3213,1587 3201,1554 3217,1524 3248,1495 3276,1464 3298,1438 3329,1419 3360,1408 3392,1395 3426,1385 3456,1374 3491,1348 3521,1349 3552,1368 3571,1386 3593,1399 3606,1396 3607,1366 3600,1331 3596,1312 3608,1282 3593,1258 3602,1232 3625,1211 3640,1208 3662,1214 " class="polyStyle" id="361002" style="fill:#d4ecb2"/>
<path d="" class="polyStyle" id="500107" style="fill:#fbe6ef"/>
<path d="" class="polyStyle" id="430611" style="fill:#d4ecb2"/>
<path d="" class="polyStyle" id="511304" style="fill:#fbe6ef"/>
<path d="" class="polyStyle" id="340711" style="fill:#ee8b94"/>
<path d="" class="polyStyle" id="320118" style="fill:#f6f67b"/>
<path d="" class="polyStyle" id="510704" style="fill:#f6f67b"/>
<path d="" class="polyStyle" id="411502" style="fill:#ee8b94"/>
<path d="" class="polyStyle" id="320302" style="fill:#d4ecb2"/>
<path d="" class="polyStyle" id="140311" style="fill:#ee8b94"/>
<path d="" class="polyStyle" id="610802" style="fill:#ee8b94"/>
<path d="" class="polyStyle" id="120116" style="fill:#f6f67b"/>
<path d="" class="polyStyle" id="130303" style="fill:#fbe6ef"/>
<path d="" class="polyStyle" id="140211" style="fill:#f6f67b"/>
<path d="" class="polyStyle" id="150207" style="fill:#fbe6ef"/>
<path d="" class="polyStyle" id="211403" style="fill:#f6f67b"/>
<path d="" class="polyStyle" id="150802" style="fill:#f8c67d"/>
<path d="" class="polyStyle" id="210112" style="fill:#ee8b94"/>
<path d="" class="polyStyle" id="230406" style="fill:#d4ecb2"/>
<path d="" class="polyStyle" id="110113" style="fill:#fbe6ef"/>
<path d="" class="polyStyle" id="341702" style="fill:#fbe6ef"/>
<path d="" class="polyStyle" id="420303" style="fill:#ee8b94"/>
<path d="" class="polyStyle" id="340702" style="fill:#d4ecb2"/>
<path d="" class="polyStyle" id="421002" style="fill:#f6f67b"/>
<path d="" class="polyStyle" id="420117" style="fill:#f6f67b"/>
<path d="" class="polyStyle" id="440904" style="fill:#f8c67d"/>
<path d="" class="polyStyle" id="460205" style="fill:#ee8b94"/>
<path d="" class="polyStyle" id="460202" style="fill:#f6f67b"/>
<path d="" class="polyStyle" id="460203" style="fill:#fbe6ef"/>
<path d="" class="polyStyle" id="420304" style="fill:#f6f67b"/>
<path d="" class="polyStyle" id="445302" style="fill:#ee8b94"/>
<path d="" class="polyStyle" id="410202" style="fill:#d4ecb2"/>
<path d="" class="polyStyle" id="440800" style="fill:#f6f67b"/>
<path d="" class="polyStyle" id="440900" style="fill:#ee8b94"/>
<path d="" class="polyStyle" id="340800" style="fill:#ee8b94"/>
<path d="" class="polyStyle" id="460200" style="fill:#f6f67b"/>
<path d="" class="polyStyle" id="460000" style="fill:#ee8b94"/>
<path d="" class="polyStyle" id="450500" style="fill:#ee8b94"/>
<path d="" class="polyStyle" id="450600" style="fill:#ee8b94"/>
<path d="" class="polyStyle" id="440400" style="fill:#f6f67b"/>
<path d="" class="polyStyle" id="441700" style="fill:#f6f67b"/>
<path d="" class="polyStyle" id="441500" style="fill:#f6f67b"/>
<path d="" class="polyStyle" id="350600" style="fill:#ee8b94"/>
<path d="" class="polyStyle" id="710000" style="fill:#f6f67b"/>
<path d="" class="polyStyle" id="510400" style="fill:#f6f67b"/>
<path d="" class="polyStyle" id="522600" style="fill:#fbe6ef"/>
<path d="" class="polyStyle" id="520500" style="fill:#ee8b94"/>
<path d="" class="polyStyle" id="431200" style="fill:#f6f67b"/>
<path d="" class="polyStyle" id="430600" style="fill:#f6f67b"/>
<path d="" class="polyStyle" id="511400" style="fill:#d4ecb2"/>
<path d="" class="polyStyle" id="421000" style="fill:#ee8b94"/>
<path d="" class="polyStyle" id="341700" style="fill:#f6f67b"/>
<path d="" class="polyStyle" id="420500" style="fill:#f6f67b"/>
<path d="" class="polyStyle" id="511300" style="fill:#f6f67b"/>
<path d="" class="polyStyle" id="420900" style="fill:#f6f67b"/>
<path d="" class="polyStyle" id="511700" style="fill:#ee8b94"/>
<path d="" class="polyStyle" id="420600" style="fill:#d4ecb2"/>
<path d="" class="polyStyle" id="411500" style="fill:#fbe6ef"/>
<path d="" class="polyStyle" id="510800" style="fill:#ee8b94"/>
<path d="" class="polyStyle" id="420300" style="fill:#fbe6ef"/>
<path d="" class="polyStyle" id="611000" style="fill:#ee8b94"/>
<path d="" class="polyStyle" id="620800" style="fill:#fbe6ef"/>
<path d="" class="polyStyle" id="370200" style="fill:#ee8b94"/>
<path d="" class="polyStyle" id="371000" style="fill:#f6f67b"/>
<path d="" class="polyStyle" id="370600" style="fill:#fbe6ef"/>
<path d="" class="polyStyle" id="120000" style="fill:#f6f67b"/>
<path d="" class="polyStyle" id="130200" style="fill:#ee8b94"/>
<path d="" class="polyStyle" id="130300" style="fill:#f6f67b"/>
<path d="" class="polyStyle" id="652900" style="fill:#fbe6ef"/>
<path d="" class="polyStyle" id="150500" style="fill:#d4ecb2"/>
<path d="" class="polyStyle" id="" style="fill:#d4ecb2"/>
<path d="" class="polyStyle" id="350500" style="fill:#fbe6ef"/>
<path d="" class="polyStyle" id="440400" style="fill:#f6f67b"/>
<path d="" class="polyStyle" id="421100" style="fill:#d4ecb2"/>
<path d="" class="polyStyle" id="420100" style="fill:#fbe6ef"/>
<path d="" class="polyStyle" id="532500" style="fill:#fbe6ef"/>
<path d="" class="polyStyle" id="654200" style="fill:#fbe6ef"/>
<path d="" class="polyStyle" id="210700" style="fill:#d4ecb2"/>
<path d="" class="polyStyle" id="522300" style="fill:#fbe6ef"/>
<path d="" class="polyStyle" id="" style="fill:#ee8b94"/>
<path d="" class="polyStyle" id="440400" style="fill:#f6f67b"/>
<path d="" class="polyStyle" id="620000" style="fill:#f6f67b"/>
<path d="" class="polyStyle" id="430000" style="fill:#fbe6ef"/>
<path d="" class="polyStyle" id="420000" style="fill:#ee8b94"/>
<path d="" class="polyStyle" id="410000" style="fill:#f6f67b"/>
<path d="" class="polyStyle" id="350000" style="fill:#fbe6ef"/>
<path d="" class="polyStyle" id="520000" style="fill:#f6f67b"/>
<path d="" class="polyStyle" id="" style="fill:#ee8b94"/>
</svg>
