<?xml version="1.0" encoding="UTF-8"?>
<!DOCTYPE svg PUBLIC "-//W3C//DTD SVG 1.1 Tiny//EN" "http://www.w3.org/Graphics/SVG/1.1/DTD/svg11-tiny.dtd">
<svg version="1.1" xmlns="http://www.w3.org/2000/svg" xmlns:xlink="http://www.w3.org/1999/xlink" width="100%" height="100%" viewBox="0,0,4870,6783">
<title>SVG</title>
<desc>Poligon Test</desc>
<style id="style_css_sheet" type="text/css">
.polyStyle{fill: #cccccc;stroke-width:0;fill-rule:evenodd;}
</style>
<circle cx="1402" cy="550" r="200" stroke="black" stroke-width="1" fill="red" id="370322" name="高青县"/>
<circle cx="3103" cy="5494" r="200" stroke="black" stroke-width="1" fill="red" id="370323" name="沂源县"/>
<circle cx="2806" cy="1626" r="200" stroke="black" stroke-width="1" fill="red" id="370321" name="桓台县"/>
<circle cx="2085" cy="3174" r="200" stroke="black" stroke-width="1" fill="red" id="370302" name="淄川区"/>
<circle cx="2512" cy="2421" r="200" stroke="black" stroke-width="1" fill="red" id="370303" name="张店区"/>
<circle cx="1490" cy="2400" r="200" stroke="black" stroke-width="1" fill="red" id="370306" position="2"name="周村区"/>
<circle cx="3747" cy="2351" r="200" stroke="black" stroke-width="1" fill="red" id="370305" name="临淄区"/>
<circle cx="1548" cy="3904" r="200" stroke="black" stroke-width="1" fill="red" id="370304" name="博山区"/>
<path d="" class="polyStyle" id="" style="fill:#ee8b94"/>
<path d="" class="polyStyle" id="623022" style="fill:#fbe6ef"/>
<path d="" class="polyStyle" id="211421" style="fill:#f6f67b"/>
<path d="" class="polyStyle" id="532524" style="fill:#ee8b94"/>
<path d="" class="polyStyle" id="440825" style="fill:#f6f67b"/>
<path d="" class="polyStyle" id="441721" style="fill:#f6f67b"/>
<path d="" class="polyStyle" id="450521" style="fill:#f6f67b"/>
<path d="" class="polyStyle" id="450123" style="fill:#fbe6ef"/>
<path d="" class="polyStyle" id="350624" style="fill:#f6f67b"/>
<path d="" class="polyStyle" id="" style="fill:#fbe6ef"/>
<path d="" class="polyStyle" id="451224" style="fill:#fbe6ef"/>
<path d="" class="polyStyle" id="350627" style="fill:#f6f67b"/>
<path d="" class="polyStyle" id="" style="fill:#f6f67b"/>
<path d="" class="polyStyle" id="350525" style="fill:#f6f67b"/>
<path d="" class="polyStyle" id="530124" style="fill:#ee8b94"/>
<path d="" class="polyStyle" id="522627" style="fill:#ee8b94"/>
<path d="" class="polyStyle" id="510421" style="fill:#fbe6ef"/>
<path d="" class="polyStyle" id="522623" style="fill:#d4ecb2"/>
<path d="" class="polyStyle" id="430321" style="fill:#d4ecb2"/>
<path d="" class="polyStyle" id="511129" style="fill:#d4ecb2"/>
<path d="" class="polyStyle" id="511423" style="fill:#ee8b94"/>
<path d="" class="polyStyle" id="421023" style="fill:#f6f67b"/>
<path d="" class="polyStyle" id="511724" style="fill:#f6f67b"/>
<path d="" class="polyStyle" id="420526" style="fill:#fbe6ef"/>
<path d="" class="polyStyle" id="511923" style="fill:#fbe6ef"/>
<path d="" class="polyStyle" id="420325" style="fill:#fbe6ef"/>
<path d="" class="polyStyle" id="511921" style="fill:#f6f67b"/>
<path d="" class="polyStyle" id="542525" style="fill:#f6f67b"/>
<path d="" class="polyStyle" id="611026" style="fill:#ee8b94"/>
<path d="" class="polyStyle" id="411023" style="fill:#fbe6ef"/>
<path d="" class="polyStyle" id="632323" style="fill:#f6f67b"/>
<path d="" class="polyStyle" id="140525" style="fill:#d4ecb2"/>
<path d="" class="polyStyle" id="410922" style="fill:#ee8b94"/>
<path d="" class="polyStyle" id="621027" style="fill:#ee8b94"/>
<path d="" class="polyStyle" id="130427" style="fill:#f6f67b"/>
<polygon points="2463,900 2471,901 2476,907 2477,915 2483,914 2496,915 2505,913 2507,916 2507,924 2518,940 2530,939 2534,941 2540,956 2534,959 2536,968 2549,988 2561,985 2565,984 2565,988 2565,992 2568,994 2584,988 2607,982 2607,972 2606,964 2610,962 2618,963 2623,967 2621,977 2654,967 2678,952 2715,954 2738,950 2750,946 2801,936 2807,931 2808,913 2810,907 2820,903 2829,905 2831,908 2831,912 2822,923 2839,923 2842,927 2840,936 2843,937 2863,935 2871,936 2872,939 2868,944 2868,948 2873,950 2901,951 2905,953 2906,957 2905,973 2903,989 2923,1016 2925,1023 2916,1046 2923,1062 2929,1079 2939,1087 2955,1093 2963,1092 2964,1089 2966,1085 2991,1087 3034,1087 3038,1088 3041,1091 3042,1098 3038,1109 3039,1120 3036,1122 3029,1121 3021,1117 3004,1136 3002,1145 3005,1152 3009,1166 3009,1174 3007,1178 2999,1183 2988,1186 2959,1188 2951,1189 2948,1190 2946,1193 2945,1239 2944,1247 2938,1249 2934,1250 2930,1255 2932,1271 2922,1275 2918,1281 2921,1287 2929,1290 2931,1296 2932,1316 2931,1328 2933,1331 2944,1339 2942,1363 2942,1383 2967,1385 2970,1387 2972,1397 2977,1401 2979,1406 3015,1408 3015,1435 3004,1443 3005,1459 3007,1466 3014,1468 3029,1468 3057,1469 3059,1478 3059,1501 3106,1499 3123,1502 3131,1503 3146,1501 3150,1501 3152,1504 3153,1511 3154,1515 3164,1520 3163,1549 3163,1556 3168,1557 3175,1558 3176,1564 3178,1568 3185,1569 3189,1571 3188,1579 3185,1584 3179,1584 3174,1586 3173,1593 3168,1609 3163,1617 3155,1619 3149,1623 3146,1642 3139,1665 3139,1670 3145,1675 3147,1679 3147,1682 3144,1684 3135,1685 3134,1695 3127,1695 3123,1698 3121,1704 3122,1710 3131,1711 3132,1722 3135,1727 3136,1743 3143,1754 3135,1759 3123,1760 3123,1764 3096,1766 3095,1779 3090,1804 3080,1806 3072,1828 3067,1849 3039,1849 3024,1848 3015,1851 3010,1856 3011,1861 3013,1890 3019,1891 3019,1908 3019,1923 3039,1927 3039,1919 3041,1915 3049,1913 3051,1911 3050,1907 3051,1902 3057,1900 3070,1907 3087,1905 3088,1895 3101,1895 3105,1906 3116,1906 3119,1907 3119,1911 3114,1916 3114,1931 3105,1932 3100,1934 3098,1938 3099,1955 3091,1958 3087,1967 3079,1963 3062,1963 3041,1965 3020,1964 3018,1947 3015,1944 3007,1943 3003,1953 2977,1952 2978,1943 2959,1940 2947,1944 2941,1942 2941,1938 2938,1935 2929,1934 2925,1940 2907,1940 2905,1953 2891,1960 2883,1962 2874,1965 2863,1977 2824,1976 2821,1986 2807,1987 2799,1985 2797,1979 2799,1963 2795,1960 2781,1961 2780,1974 2776,1981 2767,1984 2749,1983 2747,1986 2748,1993 2743,2000 2734,2003 2730,2004 2727,2011 2724,2012 2714,2011 2710,2012 2708,2018 2696,2019 2687,2017 2651,2012 2643,2009 2642,2006 2646,2000 2647,1995 2646,1992 2643,1990 2634,1989 2630,1984 2627,1971 2584,1969 2567,1966 2571,1933 2561,1932 2563,1878 2548,1878 2507,1864 2501,1858 2499,1846 2493,1843 2476,1843 2470,1857 2424,1851 2422,1847 2422,1838 2421,1835 2417,1833 2404,1830 2401,1829 2400,1823 2393,1821 2382,1822 2375,1824 2371,1826 2369,1829 2366,1842 2366,1867 2365,1870 2362,1872 2348,1871 2302,1866 2289,1858 2285,1858 2282,1861 2282,1872 2281,1882 2277,1896 2257,1894 2256,1909 2233,1909 2233,1900 2223,1898 2222,1910 2208,1909 2208,1949 2222,1950 2222,1989 2212,1991 2211,1995 2210,2001 2206,2003 2182,2003 2181,2019 2169,2021 2171,2025 2170,2046 2169,2051 2166,2054 2158,2061 2158,2072 2145,2072 2142,2080 2141,2094 2135,2097 2119,2097 2116,2094 2115,2083 2112,2080 2105,2079 2100,2073 2087,2070 2086,2055 2073,2050 2047,2048 2039,2047 2037,2044 2037,2040 2039,2015 2038,2006 2032,2002 2020,2002 2015,2003 2013,2007 2001,2006 1990,2002 1986,1999 1984,1995 1977,1980 1972,1949 1967,1945 1955,1942 1956,1938 1955,1912 1949,1906 1949,1902 1953,1899 1958,1899 1989,1900 1997,1899 2002,1896 2004,1888 2003,1879 2024,1879 2034,1874 2038,1868 2038,1857 2040,1853 2050,1854 2054,1853 2055,1849 2055,1809 2056,1792 2033,1792 2032,1796 2028,1797 2014,1797 2013,1807 2001,1807 2001,1813 1998,1816 1993,1815 1992,1808 1990,1804 1984,1804 1978,1814 1974,1816 1970,1814 1969,1811 1968,1808 1970,1803 1978,1795 1979,1791 1978,1781 1975,1777 1970,1774 1968,1770 1968,1765 1966,1759 1961,1758 1956,1762 1951,1769 1948,1777 1946,1791 1950,1813 1949,1816 1946,1817 1935,1818 1936,1837 1934,1839 1927,1839 1917,1836 1914,1831 1915,1827 1921,1826 1927,1826 1927,1804 1932,1793 1935,1785 1934,1782 1931,1780 1924,1777 1923,1774 1931,1766 1928,1742 1923,1729 1922,1720 1921,1712 1920,1709 1914,1704 1907,1697 1901,1695 1885,1690 1883,1682 1874,1679 1870,1674 1868,1665 1857,1663 1857,1655 1845,1653 1844,1644 1840,1641 1827,1637 1821,1631 1820,1622 1822,1609 1821,1601 1820,1598 1817,1596 1807,1593 1806,1590 1813,1540 1812,1534 1808,1531 1797,1529 1795,1526 1795,1508 1794,1504 1791,1501 1775,1497 1741,1493 1704,1492 1687,1490 1681,1491 1676,1491 1673,1488 1671,1483 1667,1482 1607,1480 1605,1477 1605,1471 1604,1468 1599,1466 1595,1464 1595,1458 1595,1450 1591,1446 1586,1443 1586,1438 1587,1426 1585,1419 1582,1412 1582,1405 1587,1373 1597,1366 1605,1363 1607,1359 1605,1356 1597,1356 1590,1357 1590,1344 1596,1344 1601,1341 1605,1339 1607,1335 1606,1325 1599,1325 1599,1311 1596,1309 1592,1309 1585,1310 1582,1308 1583,1288 1552,1285 1545,1288 1545,1294 1538,1297 1533,1297 1531,1293 1532,1289 1535,1285 1532,1283 1512,1283 1507,1287 1504,1286 1502,1281 1498,1280 1480,1279 1473,1275 1468,1274 1464,1274 1462,1269 1457,1253 1453,1248 1443,1249 1440,1241 1441,1233 1451,1228 1456,1214 1459,1210 1464,1203 1467,1193 1467,1162 1463,1135 1470,1134 1473,1131 1473,1127 1472,1114 1473,1110 1480,1105 1481,1101 1478,1074 1489,1077 1494,1080 1517,1085 1548,1094 1566,1095 1587,1095 1612,1094 1629,1091 1654,1089 1675,1086 1682,1086 1689,1085 1731,1081 1741,1079 1759,1077 1780,1071 1801,1068 1828,1061 1856,1051 1865,1048 1912,1039 1986,1021 2065,1004 2107,997 2110,996 2127,995 2137,994 2136,985 2137,982 2148,984 2159,984 2169,982 2189,978 2195,975 2193,965 2194,961 2204,960 2218,956 2224,951 2226,947 2227,944 2230,943 2241,943 2249,942 2251,946 2252,952 2256,954 2271,953 2295,952 2326,945 2338,939 2349,931 2362,922 2390,914 2420,908 2433,911 2436,906 2436,901 2442,898 2443,890 2459,883 2462,885 " class="polyStyle" id="370321" style="fill:#ee8b94"/>
<polygon points="1495,2 1546,8 1562,13 1601,31 1632,47 1659,68 1690,94 1693,97 1700,97 1711,97 1724,96 1752,92 1762,91 1767,90 1797,83 1805,80 1816,76 1823,72 1850,58 1897,38 1957,6 1967,18 1966,25 1974,30 1976,34 1976,42 1979,45 1987,48 1991,52 1988,64 1990,71 1988,77 1985,88 1985,93 1987,96 1991,96 1995,92 2007,91 2009,89 2011,81 2017,78 2021,75 2023,71 2030,70 2043,70 2055,67 2060,59 2066,55 2078,53 2094,55 2103,60 2106,64 2112,66 2120,70 2123,78 2125,88 2129,88 2135,81 2145,80 2156,83 2162,88 2164,92 2168,96 2174,95 2174,90 2171,85 2169,81 2173,77 2176,77 2181,80 2188,90 2190,95 2195,98 2202,101 2205,106 2206,117 2209,122 2214,131 2214,139 2209,141 2200,141 2201,161 2215,161 2223,163 2228,170 2229,178 2225,186 2223,193 2220,194 2212,195 2207,200 2205,203 2196,202 2191,204 2186,208 2184,213 2179,214 2164,213 2159,218 2162,221 2162,224 2156,231 2155,235 2155,238 2152,238 2145,240 2142,244 2141,275 2133,291 2132,299 2118,299 2115,302 2115,307 2118,322 2124,329 2131,331 2137,330 2141,329 2142,326 2141,318 2145,317 2154,319 2155,323 2155,334 2157,344 2164,355 2176,356 2189,345 2212,343 2219,345 2222,348 2225,360 2231,363 2259,361 2285,361 2300,368 2310,370 2322,368 2337,363 2348,359 2351,357 2352,354 2351,341 2353,337 2360,334 2362,330 2358,316 2358,311 2360,302 2367,300 2409,302 2431,305 2441,311 2450,321 2454,324 2460,324 2468,320 2473,321 2480,330 2483,343 2483,362 2485,372 2487,376 2491,378 2502,380 2510,379 2512,374 2516,371 2526,372 2534,377 2544,376 2547,373 2548,366 2552,363 2564,362 2571,364 2574,371 2577,373 2595,374 2594,387 2602,389 2622,390 2622,406 2614,408 2614,417 2617,417 2619,421 2620,429 2623,430 2628,430 2631,432 2636,440 2638,458 2640,461 2655,463 2663,483 2657,484 2630,504 2606,522 2612,529 2602,539 2605,543 2609,544 2615,544 2620,547 2623,557 2603,574 2578,592 2568,597 2560,601 2560,609 2558,613 2545,617 2545,639 2562,641 2563,646 2559,653 2553,655 2549,655 2548,658 2549,669 2550,673 2559,672 2561,669 2561,665 2564,663 2570,663 2573,666 2573,671 2570,674 2567,676 2566,679 2567,702 2567,708 2572,710 2580,711 2582,713 2583,721 2587,724 2593,724 2594,729 2596,740 2605,743 2606,753 2613,759 2618,758 2621,760 2627,776 2631,782 2648,803 2648,806 2644,807 2633,807 2629,811 2629,815 2627,818 2601,827 2593,832 2591,843 2588,848 2584,851 2560,863 2539,877 2535,876 2531,868 2527,859 2524,857 2500,865 2486,871 2478,872 2475,875 2476,907 2471,901 2463,900 2462,885 2459,883 2443,890 2442,898 2436,901 2436,906 2433,911 2420,908 2390,914 2362,922 2349,931 2338,939 2326,945 2295,952 2271,953 2256,954 2252,952 2251,946 2249,942 2241,943 2230,943 2227,944 2226,947 2224,951 2218,956 2204,960 2194,961 2193,965 2195,975 2189,978 2169,982 2159,984 2148,984 2137,982 2136,985 2137,994 2127,995 2110,996 2107,997 2065,1004 1986,1021 1912,1039 1865,1048 1856,1051 1828,1061 1801,1068 1780,1071 1759,1077 1741,1079 1731,1081 1689,1085 1682,1086 1675,1086 1654,1089 1629,1091 1612,1094 1587,1095 1566,1095 1548,1094 1517,1085 1494,1080 1489,1077 1478,1074 1462,1071 1444,1070 1396,1070 1379,1069 1371,1068 1364,1068 1312,1061 1295,1057 1281,1054 1270,1054 1210,1055 1200,1056 1161,1058 1147,1060 1119,1061 1103,1065 1083,1076 1055,1077 948,1083 938,1083 927,1081 889,1068 871,1063 857,1062 839,1064 836,1064 822,1066 758,1066 751,1063 744,1062 730,1061 706,1058 691,1056 688,1056 663,1051 660,1051 656,1049 651,1049 619,1042 615,1041 612,1040 580,1030 573,1027 569,1025 562,1023 530,1012 516,1007 509,1004 485,997 477,994 446,988 427,982 424,981 381,969 378,968 367,966 364,964 357,963 336,959 332,959 325,958 304,958 297,959 294,958 280,961 266,967 263,967 256,969 221,979 208,977 200,974 187,966 169,969 166,974 163,975 147,969 139,962 133,960 126,959 120,955 120,926 116,904 107,901 105,899 107,891 106,888 103,888 96,887 92,884 89,872 89,861 93,854 103,851 124,847 128,845 128,839 129,834 132,833 135,830 134,824 130,820 121,817 123,804 78,783 69,787 52,788 38,786 35,783 33,774 22,759 22,746 14,746 11,730 19,726 18,715 15,711 9,713 2,712 0,706 2,702 11,697 11,689 7,674 83,659 122,651 139,643 151,635 183,607 198,587 211,560 214,535 231,442 239,400 242,393 252,383 262,377 303,359 327,336 348,315 371,292 386,268 392,245 394,217 398,187 403,172 407,159 431,126 471,84 489,66 509,56 548,38 557,36 564,36 575,37 607,46 630,58 695,105 720,114 745,121 777,129 873,151 981,173 1000,175 1051,184 1087,186 1118,184 1139,177 1160,166 1258,105 1331,51 1386,10 1389,8 1418,0 1443,1 " class="polyStyle" id="370322" style="fill:#fbe6ef"/>
<path d="" class="polyStyle" id="130121" style="fill:#ee8b94"/>
<path d="" class="polyStyle" id="610823" style="fill:#fbe6ef"/>
<path d="" class="polyStyle" id="130225" style="fill:#fbe6ef"/>
<path d="" class="polyStyle" id="130322" style="fill:#d4ecb2"/>
<path d="" class="polyStyle" id="653130" style="fill:#f6f67b"/>
<path d="" class="polyStyle" id="130822" style="fill:#fbe6ef"/>
<path d="" class="polyStyle" id="211221" style="fill:#f6f67b"/>
<path d="" class="polyStyle" id="210921" style="fill:#f6f67b"/>
<path d="" class="polyStyle" id="150223" style="fill:#f8c67d"/>
<path d="" class="polyStyle" id="220422" style="fill:#d4ecb2"/>
<polygon points="4791,6034 4793,6031 4797,6031 4802,6036 4809,6033 4814,6033 4817,6035 4818,6038 4817,6052 4818,6055 4830,6067 4832,6072 4828,6087 4831,6095 4858,6113 4862,6123 4864,6141 4862,6146 4858,6148 4853,6150 4856,6154 4854,6157 4852,6162 4852,6174 4856,6182 4862,6186 4870,6187 4870,6191 4867,6195 4863,6195 4856,6194 4853,6197 4853,6202 4856,6206 4860,6211 4859,6217 4852,6229 4849,6253 4844,6268 4838,6275 4829,6272 4813,6262 4802,6258 4796,6254 4789,6254 4785,6255 4782,6258 4777,6268 4773,6277 4768,6279 4703,6276 4683,6272 4677,6270 4674,6266 4669,6256 4664,6251 4649,6248 4642,6248 4637,6250 4626,6266 4624,6279 4620,6284 4608,6289 4607,6294 4608,6297 4612,6301 4627,6310 4637,6322 4644,6334 4640,6338 4639,6343 4644,6351 4650,6353 4662,6354 4689,6375 4693,6381 4694,6387 4689,6410 4694,6411 4695,6414 4684,6433 4688,6439 4697,6440 4703,6435 4703,6427 4702,6422 4705,6417 4714,6414 4722,6416 4728,6423 4728,6427 4700,6445 4693,6462 4692,6473 4694,6478 4699,6483 4717,6495 4742,6512 4755,6523 4777,6561 4787,6579 4786,6583 4781,6588 4766,6597 4737,6594 4723,6595 4708,6600 4694,6599 4684,6593 4679,6592 4672,6593 4661,6600 4646,6604 4631,6605 4619,6604 4611,6608 4605,6614 4601,6623 4599,6628 4596,6630 4590,6630 4583,6627 4578,6628 4573,6632 4568,6639 4561,6645 4553,6647 4546,6645 4539,6639 4534,6634 4531,6628 4527,6625 4525,6622 4521,6619 4514,6614 4509,6611 4503,6608 4500,6607 4475,6596 4464,6592 4442,6583 4434,6580 4428,6576 4424,6574 4421,6571 4418,6568 4414,6564 4411,6561 4408,6559 4407,6556 4402,6547 4397,6538 4395,6532 4393,6529 4389,6525 4379,6509 4367,6495 4360,6485 4350,6471 4342,6464 4337,6451 4332,6445 4321,6444 4299,6449 4275,6457 4248,6457 4231,6461 4211,6459 4193,6461 4187,6465 4186,6482 4176,6496 4173,6504 4175,6508 4180,6513 4182,6521 4181,6526 4177,6529 4173,6529 4167,6531 4169,6534 4170,6538 4166,6540 4154,6534 4144,6529 4139,6530 4135,6532 4121,6534 4117,6537 4118,6541 4121,6542 4122,6546 4121,6549 4117,6551 4102,6555 4094,6553 4093,6548 4092,6545 4088,6543 4080,6543 4076,6543 4071,6536 4068,6527 4069,6516 4068,6508 4066,6505 4063,6504 4056,6505 4057,6510 4059,6519 4058,6539 4056,6546 4050,6550 4045,6545 4040,6561 4041,6565 4045,6568 4047,6574 4048,6587 4036,6597 4034,6611 4033,6614 4027,6618 4018,6622 4010,6623 4004,6622 4003,6616 4002,6612 3994,6611 3991,6611 3990,6608 3987,6607 3981,6607 3980,6611 3978,6614 3967,6609 3964,6612 3963,6618 3965,6630 3961,6636 3957,6637 3950,6633 3946,6633 3946,6641 3944,6646 3938,6647 3932,6648 3909,6646 3905,6648 3903,6655 3900,6657 3892,6656 3888,6651 3884,6650 3880,6653 3879,6660 3879,6668 3875,6670 3869,6663 3866,6663 3862,6667 3862,6675 3859,6676 3849,6675 3841,6680 3836,6679 3833,6675 3836,6671 3836,6665 3825,6659 3815,6655 3809,6659 3805,6659 3793,6662 3790,6659 3791,6650 3786,6646 3777,6645 3772,6648 3769,6657 3762,6674 3756,6682 3748,6686 3741,6687 3729,6689 3723,6694 3722,6698 3723,6703 3724,6706 3727,6708 3734,6713 3734,6719 3729,6720 3723,6715 3717,6711 3706,6711 3698,6713 3693,6718 3681,6722 3671,6715 3663,6713 3657,6715 3655,6724 3654,6729 3648,6733 3633,6742 3617,6753 3616,6757 3613,6760 3598,6766 3593,6765 3592,6768 3585,6774 3569,6774 3560,6775 3555,6780 3547,6783 3541,6782 3538,6779 3536,6757 3532,6753 3522,6752 3508,6749 3493,6746 3474,6748 3465,6747 3455,6743 3438,6728 3431,6719 3431,6716 3432,6712 3438,6708 3440,6702 3443,6695 3447,6692 3458,6688 3463,6684 3464,6679 3460,6675 3460,6667 3459,6663 3453,6660 3431,6657 3428,6655 3427,6648 3425,6645 3421,6648 3419,6653 3420,6662 3420,6666 3417,6671 3408,6678 3395,6680 3387,6678 3385,6673 3387,6663 3373,6656 3367,6645 3361,6646 3360,6650 3354,6655 3351,6660 3349,6663 3344,6666 3331,6665 3329,6657 3324,6655 3310,6654 3306,6652 3305,6647 3307,6645 3311,6637 3312,6630 3309,6627 3301,6627 3302,6618 3301,6615 3298,6613 3289,6615 3285,6615 3283,6611 3284,6607 3289,6599 3291,6591 3287,6582 3285,6576 3272,6572 3260,6576 3254,6574 3254,6571 3261,6565 3253,6558 3238,6558 3234,6557 3231,6554 3227,6546 3237,6536 3236,6532 3232,6527 3231,6521 3233,6512 3236,6510 3243,6511 3244,6524 3249,6528 3253,6525 3254,6508 3257,6505 3261,6506 3265,6509 3271,6510 3281,6514 3285,6515 3290,6513 3297,6511 3303,6507 3302,6504 3296,6503 3289,6502 3283,6498 3282,6494 3285,6481 3283,6475 3278,6471 3264,6456 3258,6453 3256,6449 3257,6446 3264,6441 3267,6432 3265,6424 3261,6420 3248,6418 3243,6415 3238,6407 3236,6402 3238,6398 3242,6393 3243,6384 3242,6381 3239,6380 3230,6382 3223,6382 3218,6379 3214,6363 3210,6359 3208,6354 3203,6351 3190,6351 3166,6330 3159,6325 3150,6322 3133,6318 3115,6319 3102,6318 3099,6316 3099,6313 3102,6302 3106,6295 3105,6292 3095,6288 3079,6286 3080,6292 3078,6296 3059,6300 3050,6304 3046,6304 3032,6303 3008,6298 2992,6298 2984,6303 2982,6307 2979,6308 2976,6308 2974,6305 2974,6301 2978,6293 2972,6292 2956,6294 2948,6294 2941,6291 2936,6288 2928,6286 2924,6282 2921,6272 2914,6257 2910,6251 2899,6249 2893,6250 2887,6255 2871,6255 2866,6253 2854,6244 2847,6243 2841,6246 2832,6249 2816,6252 2810,6255 2803,6255 2795,6255 2791,6258 2778,6270 2767,6274 2759,6279 2750,6282 2746,6281 2741,6277 2738,6278 2732,6284 2734,6295 2737,6301 2748,6311 2746,6315 2741,6316 2728,6319 2713,6314 2707,6314 2704,6319 2706,6323 2709,6325 2715,6329 2714,6332 2693,6339 2680,6342 2673,6342 2670,6340 2667,6332 2647,6319 2640,6315 2634,6318 2625,6330 2623,6338 2627,6340 2640,6338 2642,6342 2638,6353 2634,6357 2626,6358 2617,6363 2612,6363 2597,6362 2583,6359 2567,6379 2564,6390 2553,6401 2552,6406 2554,6416 2553,6425 2547,6439 2543,6442 2536,6440 2507,6440 2500,6443 2493,6452 2485,6461 2477,6463 2468,6463 2464,6464 2461,6467 2446,6487 2432,6499 2424,6509 2418,6521 2413,6541 2414,6551 2416,6556 2420,6559 2422,6563 2422,6575 2421,6581 2417,6584 2414,6586 2412,6594 2407,6598 2403,6596 2400,6593 2396,6592 2385,6589 2371,6590 2371,6597 2369,6602 2364,6615 2348,6630 2352,6634 2363,6633 2365,6635 2366,6644 2362,6660 2356,6666 2350,6667 2341,6661 2323,6661 2315,6658 2310,6658 2302,6658 2298,6655 2292,6650 2285,6650 2279,6651 2276,6654 2277,6662 2271,6667 2262,6669 2255,6668 2245,6665 2236,6660 2231,6659 2222,6663 2207,6664 2194,6668 2192,6656 2181,6631 2182,6620 2180,6616 2178,6612 2180,6608 2180,6599 2182,6595 2189,6589 2193,6584 2193,6578 2193,6573 2197,6569 2199,6566 2198,6558 2200,6555 2205,6553 2218,6549 2224,6548 2223,6544 2220,6541 2214,6539 2200,6536 2192,6538 2181,6544 2165,6561 2150,6557 2139,6555 2128,6557 2121,6558 2109,6556 2102,6558 2096,6565 2083,6573 2074,6579 2061,6589 2058,6591 2046,6593 2045,6597 2044,6602 2035,6610 2035,6616 2040,6620 2033,6624 2026,6626 2017,6629 2013,6628 2008,6625 2000,6624 1996,6623 1995,6619 1996,6613 1994,6607 1986,6590 1985,6565 1984,6541 1965,6541 1961,6537 1962,6529 1961,6523 1956,6519 1952,6517 1949,6513 1946,6506 1945,6496 1947,6491 1950,6486 1947,6484 1944,6481 1943,6476 1959,6465 1961,6461 1956,6458 1955,6448 1949,6433 1950,6427 1952,6423 1961,6421 1967,6422 1976,6425 1985,6422 1995,6415 1998,6409 2000,6402 2006,6396 2006,6392 1999,6386 1994,6380 1992,6371 1992,6359 1988,6349 1982,6336 1979,6333 1974,6325 1973,6316 1991,6310 2006,6310 2008,6301 2007,6295 1994,6282 1982,6280 1981,6277 1986,6271 1990,6260 1987,6251 1959,6251 1958,6247 1960,6242 1963,6235 1969,6229 1975,6225 1983,6225 1988,6224 1990,6217 1988,6210 1983,6206 1982,6202 1989,6195 1990,6191 1984,6188 1968,6187 1958,6184 1941,6173 1935,6165 1929,6152 1921,6144 1909,6137 1911,6135 1918,6130 1919,6124 1926,6110 1931,6097 1961,6094 1972,6091 1979,6091 1991,6090 1994,6087 1995,6082 1991,6068 1987,6063 1983,6061 1978,6060 1975,6057 1962,6043 1967,6035 1972,6031 1976,6029 1980,6030 1978,6020 1982,6013 1982,6007 1982,5999 1988,5996 2020,5998 2020,5987 2018,5981 2014,5979 2017,5975 2028,5964 2031,5958 2026,5952 2015,5947 2012,5946 2005,5939 2001,5938 1993,5935 1990,5930 1994,5920 2000,5914 2002,5912 1996,5910 1988,5903 1981,5907 1985,5912 1986,5916 1981,5918 1969,5918 1961,5920 1958,5926 1957,5930 1954,5933 1936,5934 1929,5931 1923,5931 1909,5937 1905,5936 1901,5929 1897,5927 1894,5925 1890,5918 1893,5916 1909,5912 1907,5905 1903,5903 1888,5909 1884,5909 1877,5898 1874,5890 1877,5876 1869,5864 1866,5860 1861,5857 1859,5854 1863,5846 1866,5831 1864,5827 1861,5825 1855,5823 1850,5819 1848,5814 1849,5811 1856,5811 1860,5813 1864,5818 1868,5821 1872,5820 1866,5808 1857,5801 1849,5799 1842,5795 1838,5792 1836,5788 1836,5767 1838,5760 1836,5759 1824,5760 1822,5758 1820,5751 1814,5743 1810,5734 1811,5728 1814,5721 1811,5715 1808,5713 1806,5709 1809,5705 1818,5703 1820,5695 1820,5691 1818,5688 1812,5686 1810,5682 1809,5667 1804,5665 1793,5664 1784,5646 1784,5641 1787,5638 1804,5638 1804,5634 1800,5631 1797,5629 1797,5626 1799,5623 1804,5622 1821,5620 1825,5612 1826,5606 1821,5597 1820,5593 1823,5591 1826,5591 1835,5596 1838,5592 1839,5587 1838,5584 1835,5582 1826,5577 1825,5565 1813,5551 1805,5538 1798,5533 1788,5533 1784,5537 1782,5541 1775,5542 1763,5540 1762,5536 1765,5531 1774,5528 1780,5521 1784,5503 1788,5489 1788,5480 1807,5480 1809,5459 1823,5451 1825,5440 1822,5434 1822,5429 1824,5415 1823,5406 1822,5399 1827,5396 1830,5395 1832,5392 1835,5385 1839,5383 1849,5382 1857,5385 1864,5395 1869,5398 1879,5399 1883,5406 1888,5409 1894,5411 1889,5417 1893,5420 1904,5420 1910,5419 1911,5414 1911,5409 1913,5406 1918,5405 1923,5404 1921,5400 1917,5395 1919,5389 1942,5373 1951,5374 1954,5368 1958,5365 1977,5363 2002,5363 2021,5367 2032,5375 2038,5381 2045,5383 2051,5382 2055,5378 2061,5360 2064,5357 2065,5353 2063,5345 2065,5342 2073,5341 2083,5336 2085,5332 2081,5327 2077,5319 2073,5302 2067,5291 2066,5277 2074,5271 2077,5263 2076,5251 2073,5246 2070,5239 2071,5229 2073,5223 2073,5213 2076,5190 2081,5181 2087,5165 2101,5151 2105,5143 2104,5135 2105,5131 2111,5128 2116,5113 2119,5106 2124,5101 2127,5097 2128,5090 2126,5087 2118,5084 2114,5081 2113,5077 2118,5074 2119,5070 2117,5066 2120,5055 2121,5045 2125,5042 2132,5039 2136,5035 2142,5027 2143,5007 2146,4999 2152,4996 2160,4996 2168,4996 2175,4999 2187,5006 2191,5007 2195,5005 2203,4998 2210,4999 2218,5005 2219,5008 2209,5011 2207,5015 2208,5023 2211,5025 2218,5025 2225,5022 2228,5018 2233,5002 2238,4993 2242,4988 2246,4986 2259,4978 2272,4970 2274,4962 2272,4955 2277,4951 2291,4950 2294,4948 2307,4931 2321,4926 2324,4921 2333,4920 2335,4924 2342,4924 2344,4920 2346,4918 2358,4917 2386,4920 2404,4920 2414,4916 2418,4909 2419,4902 2422,4897 2432,4895 2445,4897 2452,4903 2459,4911 2470,4913 2479,4914 2487,4918 2509,4931 2516,4930 2526,4924 2537,4921 2550,4923 2569,4925 2588,4923 2602,4919 2608,4919 2626,4923 2659,4926 2681,4937 2694,4944 2703,4946 2729,4945 2738,4946 2742,4944 2751,4941 2759,4943 2775,4953 2786,4953 2790,4956 2793,4960 2800,4962 2814,4965 2818,4966 2820,4969 2824,4980 2831,4985 2843,4987 2846,4985 2848,4980 2852,4974 2865,4971 2891,4969 2897,4960 2951,4945 2964,4944 2974,4948 2980,4951 2985,4944 2986,4940 2991,4935 2994,4931 2995,4925 2997,4915 3003,4907 3008,4905 3018,4905 3042,4911 3057,4915 3065,4915 3071,4913 3097,4905 3118,4913 3134,4915 3144,4914 3165,4908 3177,4904 3184,4897 3186,4885 3185,4879 3181,4874 3171,4862 3168,4858 3167,4853 3170,4810 3160,4799 3157,4793 3158,4780 3156,4774 3151,4767 3153,4761 3159,4752 3160,4744 3160,4740 3162,4737 3171,4732 3180,4732 3191,4736 3196,4736 3205,4733 3211,4722 3216,4717 3223,4716 3233,4720 3238,4722 3244,4722 3253,4719 3253,4715 3251,4712 3243,4706 3232,4702 3230,4699 3233,4693 3240,4686 3254,4675 3263,4672 3266,4662 3267,4656 3270,4651 3274,4647 3283,4643 3297,4639 3323,4636 3335,4637 3364,4643 3371,4643 3375,4641 3378,4639 3378,4635 3376,4629 3373,4626 3365,4621 3348,4620 3344,4618 3342,4615 3338,4599 3330,4591 3313,4581 3309,4574 3314,4554 3313,4546 3306,4546 3298,4549 3295,4546 3296,4535 3299,4528 3303,4525 3302,4521 3290,4512 3288,4506 3291,4501 3300,4493 3312,4488 3319,4487 3325,4490 3328,4496 3335,4500 3344,4497 3351,4489 3350,4483 3349,4480 3351,4476 3360,4472 3373,4475 3378,4474 3381,4469 3381,4460 3391,4454 3397,4453 3404,4453 3408,4450 3411,4448 3415,4448 3420,4449 3423,4452 3437,4457 3435,4458 3433,4461 3434,4468 3433,4474 3434,4478 3437,4482 3460,4503 3458,4519 3458,4523 3461,4526 3484,4538 3492,4546 3496,4556 3497,4567 3512,4580 3517,4583 3520,4583 3529,4583 3534,4591 3535,4602 3535,4614 3539,4624 3545,4631 3561,4640 3567,4650 3566,4662 3563,4672 3564,4678 3576,4690 3587,4700 3587,4707 3590,4709 3599,4708 3605,4702 3608,4689 3612,4686 3619,4686 3624,4689 3625,4696 3623,4705 3626,4706 3633,4705 3634,4702 3635,4698 3640,4697 3647,4699 3650,4698 3656,4699 3657,4703 3652,4708 3653,4711 3660,4712 3684,4714 3697,4713 3739,4709 3748,4710 3755,4716 3759,4724 3759,4729 3757,4733 3720,4762 3711,4772 3709,4777 3710,4780 3714,4782 3730,4783 3745,4785 3753,4787 3760,4791 3771,4800 3777,4809 3775,4825 3778,4829 3790,4835 3793,4853 3796,4863 3799,4867 3803,4869 3827,4880 3830,4884 3831,4890 3829,4899 3825,4906 3806,4919 3802,4927 3806,4931 3817,4933 3827,4943 3829,4950 3833,4954 3842,4961 3845,4968 3849,4979 3852,4987 3852,4991 3850,4994 3841,5007 3835,5010 3826,5011 3822,5020 3832,5024 3834,5027 3834,5033 3829,5046 3835,5056 3835,5061 3814,5087 3804,5100 3797,5110 3794,5119 3792,5134 3791,5148 3796,5151 3809,5152 3817,5151 3823,5153 3838,5156 3849,5153 3854,5147 3858,5147 3863,5147 3868,5144 3880,5135 3875,5123 3873,5115 3878,5111 3885,5112 3889,5120 3891,5126 3897,5129 3909,5127 3927,5121 3949,5109 3962,5100 3973,5094 3990,5090 4004,5088 4013,5089 4016,5091 4021,5100 4030,5101 4034,5103 4038,5108 4043,5108 4049,5110 4050,5116 4052,5118 4060,5119 4064,5120 4067,5127 4066,5139 4067,5142 4073,5148 4079,5150 4093,5148 4096,5149 4095,5156 4095,5162 4100,5163 4116,5164 4125,5167 4131,5173 4136,5176 4145,5176 4152,5177 4158,5180 4182,5200 4185,5204 4185,5214 4184,5219 4180,5226 4170,5239 4153,5255 4153,5261 4158,5266 4157,5273 4156,5277 4161,5281 4166,5284 4167,5290 4167,5305 4168,5317 4163,5325 4152,5335 4151,5339 4158,5350 4160,5356 4158,5366 4151,5375 4126,5388 4120,5390 4115,5397 4114,5403 4124,5408 4133,5412 4138,5419 4139,5438 4145,5443 4148,5449 4147,5459 4150,5465 4153,5468 4160,5472 4165,5479 4172,5502 4184,5523 4191,5532 4198,5533 4209,5531 4218,5533 4223,5537 4224,5543 4219,5557 4222,5568 4225,5572 4229,5574 4238,5577 4242,5582 4247,5586 4255,5585 4262,5587 4265,5591 4262,5598 4263,5601 4267,5606 4268,5610 4270,5618 4273,5623 4275,5628 4275,5635 4270,5651 4270,5659 4282,5672 4281,5689 4278,5695 4261,5700 4253,5705 4251,5711 4252,5716 4256,5726 4262,5728 4267,5724 4271,5722 4275,5724 4276,5727 4274,5730 4268,5734 4262,5737 4261,5744 4266,5751 4269,5751 4270,5748 4272,5743 4275,5741 4280,5741 4289,5744 4297,5751 4314,5765 4328,5773 4332,5772 4335,5765 4349,5761 4363,5762 4367,5766 4361,5778 4367,5781 4381,5776 4387,5760 4389,5745 4391,5741 4395,5739 4398,5740 4400,5743 4405,5744 4417,5740 4434,5741 4450,5745 4460,5743 4462,5738 4457,5734 4453,5730 4452,5722 4457,5716 4465,5712 4472,5711 4477,5707 4484,5700 4495,5696 4505,5698 4518,5707 4525,5712 4526,5720 4526,5732 4540,5738 4544,5739 4549,5735 4553,5731 4554,5726 4558,5710 4564,5706 4575,5705 4581,5707 4591,5714 4602,5725 4604,5732 4620,5730 4631,5731 4638,5734 4640,5740 4636,5749 4640,5752 4644,5751 4650,5745 4658,5743 4680,5742 4688,5742 4691,5744 4692,5747 4682,5756 4688,5760 4694,5759 4698,5752 4700,5749 4705,5748 4708,5749 4710,5752 4718,5765 4719,5768 4717,5772 4709,5777 4704,5778 4697,5786 4691,5790 4677,5793 4651,5811 4650,5821 4651,5825 4658,5835 4657,5841 4653,5847 4654,5851 4659,5853 4664,5856 4666,5862 4667,5866 4671,5868 4677,5873 4676,5883 4671,5892 4666,5896 4654,5899 4649,5904 4647,5912 4649,5918 4660,5938 4663,5948 4665,5958 4663,5965 4658,5974 4658,5979 4666,5986 4666,5991 4662,5997 4658,6009 4658,6014 4653,6017 4657,6021 4660,6024 4659,6029 4657,6036 4658,6039 4668,6042 4677,6042 4679,6046 4680,6052 4684,6053 4691,6055 4694,6060 4696,6063 4706,6066 4718,6063 4725,6067 4736,6067 4744,6064 4750,6060 4756,6059 4771,6067 4783,6068 4792,6072 4794,6068 4792,6064 4779,6062 4772,6058 4770,6055 4773,6050 4778,6046 4788,6048 4791,6047 4792,6040 " class="polyStyle" id="370323" style="fill:#d4ecb2"/>
<path d="" class="polyStyle" id="340721" style="fill:#f6f67b"/>
<path d="" class="polyStyle" id="510824" style="fill:#d4ecb2"/>
<path d="" class="polyStyle" id="610324" style="fill:#f6f67b"/>
<path d="" class="polyStyle" id="530722" style="fill:#ee8b94"/>
<path d="" class="polyStyle" id="340823" style="fill:#d4ecb2"/>
<path d="" class="polyStyle" id="620825" style="fill:#d4ecb2"/>
<path d="" class="polyStyle" id="421125" style="fill:#ee8b94"/>
<path d="" class="polyStyle" id="210281" style="fill:#ee8b94"/>
<path d="" class="polyStyle" id="440883" style="fill:#f6f67b"/>
<path d="" class="polyStyle" id="469006" style="fill:#d4ecb2"/>
<path d="" class="polyStyle" id="469002" style="fill:#ee8b94"/>
<path d="" class="polyStyle" id="469005" style="fill:#fbe6ef"/>
<path d="" class="polyStyle" id="440882" style="fill:#ee8b94"/>
<path d="" class="polyStyle" id="450681" style="fill:#ee8b94"/>
<path d="" class="polyStyle" id="441581" style="fill:#d4ecb2"/>
<path d="" class="polyStyle" id="421087" style="fill:#ee8b94"/>
<path d="" class="polyStyle" id="420984" style="fill:#fbe6ef"/>
<path d="" class="polyStyle" id="420582" style="fill:#ee8b94"/>
<path d="" class="polyStyle" id="370282" style="fill:#f6f67b"/>
<path d="" class="polyStyle" id="371083" style="fill:#f6f67b"/>
<path d="" class="polyStyle" id="371082" style="fill:#fbe6ef"/>
<path d="" class="polyStyle" id="652801" style="fill:#f8c67d"/>
<path d="" class="polyStyle" id="654301" style="fill:#ee8b94"/>
<path d="" class="polyStyle" id="370687" style="fill:#ee8b94"/>
<path d="" class="polyStyle" id="371482" style="fill:#d4ecb2"/>
<path d="" class="polyStyle" id="421081" style="fill:#fbe6ef"/>
<path d="" class="polyStyle" id="429006" style="fill:#f6f67b"/>
<path d="" class="polyStyle" id="440982" style="fill:#d4ecb2"/>
<path d="" class="polyStyle" id="421181" style="fill:#d4ecb2"/>
<path d="" class="polyStyle" id="321181" style="fill:#d4ecb2"/>
<path d="" class="polyStyle" id="659007" style="fill:#ee8b94"/>
<path d="" class="polyStyle" id="652701" style="fill:#fbe6ef"/>
<path d="" class="polyStyle" id="210781" style="fill:#fbe6ef"/>
<path d="" class="polyStyle" id="460204" style="fill:#f6f67b"/>
<path d="" class="polyStyle" id="210211" style="fill:#f6f67b"/>
<path d="" class="polyStyle" id="450512" style="fill:#ee8b94"/>
<path d="" class="polyStyle" id="450602" style="fill:#fbe6ef"/>
<path d="" class="polyStyle" id="440404" style="fill:#ee8b94"/>
<path d="" class="polyStyle" id="440403" style="fill:#f6f67b"/>
<path d="" class="polyStyle" id="441502" style="fill:#f6f67b"/>
<path d="" class="polyStyle" id="431002" style="fill:#d4ecb2"/>
<path d="" class="polyStyle" id="500107" style="fill:#fbe6ef"/>
<path d="" class="polyStyle" id="430611" style="fill:#d4ecb2"/>
<path d="" class="polyStyle" id="511304" style="fill:#fbe6ef"/>
<path d="" class="polyStyle" id="340711" style="fill:#ee8b94"/>
<path d="" class="polyStyle" id="320118" style="fill:#f6f67b"/>
<path d="" class="polyStyle" id="510704" style="fill:#f6f67b"/>
<path d="" class="polyStyle" id="411502" style="fill:#ee8b94"/>
<path d="" class="polyStyle" id="320302" style="fill:#d4ecb2"/>
<polygon points="1512,3427 1516,3426 1522,3426 1523,3430 1522,3450 1528,3451 1538,3463 1554,3467 1560,3467 1563,3464 1566,3457 1571,3455 1580,3457 1583,3458 1585,3461 1590,3465 1602,3469 1626,3477 1633,3481 1635,3484 1636,3493 1640,3499 1651,3506 1663,3506 1681,3505 1687,3504 1692,3500 1700,3494 1705,3495 1709,3497 1719,3493 1723,3494 1730,3504 1733,3505 1739,3506 1744,3509 1751,3515 1751,3521 1747,3527 1744,3534 1748,3539 1763,3543 1768,3548 1769,3552 1767,3562 1770,3565 1775,3568 1775,3576 1777,3579 1790,3585 1816,3593 1827,3598 1836,3605 1838,3613 1836,3619 1830,3621 1820,3623 1816,3626 1815,3633 1821,3641 1852,3659 1861,3663 1865,3663 1868,3660 1874,3655 1878,3659 1879,3665 1884,3666 1895,3666 1900,3662 1905,3661 1909,3661 1912,3663 1914,3673 1919,3678 1942,3686 1943,3689 1940,3697 1937,3703 1938,3709 1942,3714 1951,3714 1964,3714 1970,3716 1971,3720 1964,3726 1961,3730 1964,3738 1966,3741 1970,3743 1980,3744 1987,3744 1991,3748 1992,3757 1986,3765 1984,3769 1982,3781 1977,3789 1974,3793 1970,3795 1944,3804 1933,3807 1928,3812 1921,3819 1907,3827 1882,3836 1874,3837 1870,3832 1865,3832 1863,3842 1856,3844 1849,3842 1844,3844 1842,3849 1839,3856 1830,3859 1818,3856 1813,3859 1811,3865 1810,3870 1805,3871 1798,3871 1793,3874 1789,3877 1784,3877 1780,3878 1781,3883 1794,3892 1804,3900 1818,3902 1844,3905 1855,3910 1860,3919 1864,3927 1871,3927 1879,3924 1884,3926 1884,3930 1878,3935 1875,3938 1875,3941 1875,3944 1878,3949 1878,3963 1882,3971 1891,3980 1901,3984 1907,3986 1910,3989 1913,3992 1916,3999 1919,4007 1924,4008 1933,4006 1934,4009 1933,4015 1938,4018 1952,4020 1959,4024 1963,4026 1968,4026 1973,4025 1977,4022 1984,4016 1993,4015 2020,4026 2030,4025 2033,4023 2035,4019 2037,4016 2041,4015 2050,4020 2054,4028 2058,4032 2065,4038 2064,4043 2054,4038 2049,4038 2044,4043 2042,4054 2059,4054 2065,4058 2070,4055 2075,4047 2082,4046 2103,4047 2111,4050 2114,4060 2119,4063 2136,4061 2140,4063 2140,4072 2145,4074 2147,4080 2147,4089 2152,4089 2166,4082 2173,4083 2173,4088 2167,4102 2167,4106 2177,4110 2180,4117 2181,4137 2184,4143 2195,4146 2223,4149 2233,4153 2243,4160 2253,4167 2265,4172 2271,4172 2283,4168 2292,4170 2304,4179 2310,4184 2321,4188 2329,4191 2339,4191 2354,4189 2361,4190 2374,4192 2385,4188 2389,4181 2395,4180 2410,4177 2415,4175 2419,4171 2434,4160 2442,4151 2449,4146 2467,4138 2478,4138 2510,4156 2539,4153 2561,4157 2575,4162 2585,4163 2600,4161 2606,4158 2608,4152 2609,4149 2612,4148 2617,4149 2621,4152 2629,4155 2641,4156 2650,4158 2656,4163 2661,4166 2673,4166 2688,4167 2699,4172 2719,4185 2732,4190 2746,4193 2750,4196 2753,4201 2753,4224 2761,4239 2760,4248 2756,4249 2751,4250 2747,4254 2741,4262 2739,4268 2733,4270 2725,4272 2721,4277 2720,4284 2723,4290 2729,4306 2733,4311 2741,4316 2743,4321 2745,4327 2751,4331 2761,4337 2765,4344 2772,4361 2774,4364 2774,4369 2770,4380 2764,4388 2764,4392 2766,4395 2772,4402 2773,4410 2775,4421 2780,4427 2791,4437 2797,4446 2802,4454 2810,4455 2834,4454 2842,4450 2841,4436 2844,4429 2852,4422 2861,4421 2872,4421 2880,4417 2912,4401 2923,4399 2928,4396 2937,4394 2943,4381 2954,4374 2957,4369 2952,4359 2951,4352 2954,4340 2959,4333 2968,4331 2988,4330 3000,4322 3006,4316 3009,4313 3013,4312 3028,4310 3038,4313 3041,4316 3041,4319 3045,4331 3045,4336 3043,4344 3044,4352 3047,4357 3056,4361 3059,4364 3061,4370 3059,4389 3061,4433 3067,4446 3071,4450 3075,4451 3097,4451 3108,4448 3127,4433 3144,4432 3149,4429 3156,4425 3168,4426 3185,4426 3196,4424 3221,4419 3230,4419 3239,4422 3249,4426 3256,4431 3260,4439 3257,4445 3249,4454 3246,4461 3243,4470 3236,4479 3230,4488 3229,4496 3233,4511 3238,4518 3251,4525 3261,4524 3268,4521 3275,4523 3293,4528 3299,4528 3296,4535 3295,4546 3298,4549 3306,4546 3313,4546 3314,4554 3309,4574 3313,4581 3330,4591 3338,4599 3342,4615 3344,4618 3348,4620 3365,4621 3373,4626 3376,4629 3378,4635 3378,4639 3375,4641 3371,4643 3364,4643 3335,4637 3323,4636 3297,4639 3283,4643 3274,4647 3270,4651 3267,4656 3266,4662 3263,4672 3254,4675 3240,4686 3233,4693 3230,4699 3232,4702 3243,4706 3251,4712 3253,4715 3253,4719 3244,4722 3238,4722 3233,4720 3223,4716 3216,4717 3211,4722 3205,4733 3196,4736 3191,4736 3180,4732 3171,4732 3162,4737 3160,4740 3160,4744 3159,4752 3153,4761 3151,4767 3156,4774 3158,4780 3157,4793 3160,4799 3170,4810 3167,4853 3168,4858 3171,4862 3181,4874 3185,4879 3186,4885 3184,4897 3177,4904 3165,4908 3144,4914 3134,4915 3118,4913 3097,4905 3071,4913 3065,4915 3057,4915 3042,4911 3018,4905 3008,4905 3003,4907 2997,4915 2995,4925 2994,4931 2991,4935 2986,4940 2985,4944 2980,4951 2974,4948 2964,4944 2951,4945 2897,4960 2891,4969 2865,4971 2852,4974 2848,4980 2846,4985 2843,4987 2831,4985 2824,4980 2820,4969 2818,4966 2814,4965 2800,4962 2793,4960 2790,4956 2786,4953 2775,4953 2759,4943 2751,4941 2742,4944 2738,4946 2729,4945 2703,4946 2694,4944 2681,4937 2659,4926 2626,4923 2608,4919 2602,4919 2588,4923 2569,4925 2550,4923 2537,4921 2526,4924 2516,4930 2509,4931 2487,4918 2479,4914 2470,4913 2459,4911 2452,4903 2445,4897 2432,4895 2422,4897 2419,4902 2418,4909 2414,4916 2404,4920 2386,4920 2358,4917 2346,4918 2344,4920 2342,4924 2335,4924 2333,4920 2324,4921 2321,4926 2307,4931 2294,4948 2291,4950 2277,4951 2272,4955 2274,4962 2272,4970 2259,4978 2246,4986 2242,4988 2238,4993 2233,5002 2228,5018 2225,5022 2218,5025 2211,5025 2208,5023 2207,5015 2209,5011 2219,5008 2218,5005 2210,4999 2203,4998 2195,5005 2191,5007 2187,5006 2175,4999 2168,4996 2160,4996 2152,4996 2146,4999 2143,5007 2142,5027 2136,5035 2132,5039 2125,5042 2121,5045 2120,5055 2117,5066 2109,5062 2089,5062 2085,5061 2081,5055 2067,5052 2060,5051 2056,5048 2052,5045 2048,5047 2031,5053 2025,5053 2020,5051 2008,5045 1991,5040 1968,5037 1953,5049 1945,5051 1925,5050 1919,5049 1911,5045 1896,5034 1890,5024 1889,5012 1894,5002 1903,4992 1906,4986 1905,4974 1902,4956 1899,4948 1881,4943 1864,4906 1864,4903 1869,4898 1869,4893 1865,4886 1864,4882 1866,4876 1859,4869 1863,4867 1873,4865 1874,4856 1877,4842 1877,4832 1863,4827 1859,4823 1858,4817 1861,4810 1859,4805 1856,4805 1855,4810 1852,4817 1845,4817 1844,4813 1846,4808 1847,4786 1860,4773 1866,4769 1873,4767 1891,4759 1893,4752 1892,4734 1893,4730 1900,4727 1903,4728 1900,4734 1905,4734 1914,4730 1920,4724 1921,4720 1919,4717 1912,4718 1905,4714 1901,4709 1900,4705 1903,4702 1913,4701 1918,4699 1919,4694 1916,4691 1909,4691 1898,4693 1892,4692 1891,4687 1904,4688 1907,4686 1904,4681 1896,4675 1884,4665 1878,4664 1873,4660 1874,4657 1883,4657 1887,4657 1893,4652 1896,4653 1896,4658 1906,4675 1910,4679 1918,4682 1926,4681 1928,4678 1927,4674 1924,4669 1913,4663 1909,4657 1909,4649 1908,4642 1902,4636 1889,4630 1878,4629 1873,4632 1875,4636 1881,4648 1879,4650 1869,4651 1858,4652 1853,4650 1844,4643 1835,4640 1830,4641 1827,4648 1824,4650 1817,4651 1801,4649 1793,4646 1789,4640 1783,4634 1779,4634 1774,4637 1768,4643 1767,4653 1768,4659 1774,4670 1773,4675 1769,4676 1755,4674 1746,4676 1744,4680 1740,4683 1732,4697 1730,4701 1721,4710 1721,4713 1726,4723 1724,4729 1718,4731 1715,4729 1715,4722 1706,4716 1703,4711 1704,4700 1709,4686 1721,4669 1725,4665 1722,4658 1719,4654 1712,4652 1713,4645 1717,4643 1723,4640 1727,4631 1732,4609 1732,4603 1727,4603 1720,4602 1717,4596 1718,4590 1722,4584 1721,4579 1714,4576 1709,4577 1700,4582 1693,4587 1691,4595 1691,4604 1688,4607 1686,4610 1685,4621 1683,4625 1678,4627 1670,4626 1665,4623 1666,4615 1672,4606 1662,4601 1661,4595 1664,4587 1666,4583 1662,4582 1648,4584 1644,4581 1648,4577 1662,4570 1665,4564 1666,4554 1664,4551 1655,4552 1651,4551 1650,4547 1645,4538 1645,4532 1644,4527 1637,4526 1634,4525 1632,4522 1628,4512 1626,4504 1619,4503 1615,4500 1612,4497 1606,4496 1595,4498 1590,4496 1587,4491 1590,4487 1594,4483 1594,4478 1591,4474 1584,4473 1576,4472 1574,4470 1568,4464 1560,4459 1550,4458 1553,4447 1551,4442 1546,4441 1539,4443 1535,4444 1532,4442 1529,4432 1531,4427 1539,4422 1542,4418 1543,4408 1546,4404 1544,4400 1542,4397 1542,4392 1545,4378 1544,4363 1539,4348 1530,4343 1516,4342 1504,4343 1499,4340 1495,4338 1484,4337 1478,4334 1471,4327 1467,4325 1462,4325 1441,4326 1432,4325 1429,4318 1426,4314 1418,4314 1410,4319 1404,4318 1401,4316 1399,4312 1398,4298 1388,4270 1389,4264 1399,4248 1401,4222 1403,4220 1413,4218 1421,4213 1425,4203 1418,4193 1414,4190 1409,4189 1378,4193 1372,4191 1363,4180 1359,4177 1352,4175 1342,4178 1338,4185 1340,4193 1342,4199 1341,4205 1340,4220 1339,4227 1334,4230 1330,4229 1327,4226 1321,4219 1319,4213 1315,4212 1312,4214 1311,4222 1306,4226 1293,4227 1268,4243 1262,4246 1255,4246 1250,4246 1248,4243 1249,4232 1247,4221 1245,4217 1242,4215 1234,4209 1224,4204 1215,4202 1200,4203 1197,4205 1196,4208 1196,4216 1192,4219 1188,4223 1186,4232 1188,4235 1197,4235 1205,4236 1206,4240 1201,4245 1197,4245 1191,4239 1187,4240 1188,4244 1195,4250 1195,4257 1188,4260 1181,4255 1177,4241 1174,4233 1164,4221 1156,4207 1152,4203 1146,4202 1133,4204 1129,4204 1126,4202 1114,4193 1102,4190 1086,4190 1077,4192 1073,4198 1065,4203 1051,4204 1042,4197 1032,4181 1034,4176 1044,4166 1069,4146 1068,4141 1063,4140 1055,4141 1048,4139 1045,4137 1044,4133 1043,4127 1053,4119 1054,4115 1049,4110 1036,4110 1024,4109 1021,4106 1020,4101 1021,4097 1024,4094 1036,4091 1057,4096 1064,4095 1067,4093 1068,4090 1068,4087 1065,4083 1083,4082 1085,4080 1083,4076 1081,4073 1082,4067 1080,4059 1065,4061 1054,4061 1051,4059 1050,4056 1048,4038 1043,4032 1038,4032 1035,4036 1029,4037 1025,4035 1024,4029 1022,4026 1017,4025 1008,4025 1001,4028 997,4027 994,4016 995,4011 1034,3986 1039,3977 1037,3960 1036,3951 1038,3940 1037,3936 1032,3930 1027,3929 1006,3928 1003,3926 1003,3918 964,3918 960,3914 960,3906 959,3901 953,3896 951,3892 950,3882 943,3885 932,3887 928,3883 931,3878 939,3877 944,3876 948,3873 952,3871 965,3870 969,3870 972,3872 976,3882 982,3878 995,3866 1011,3856 1039,3853 1046,3856 1048,3861 1042,3865 1033,3865 1027,3866 1025,3869 1026,3872 1035,3876 1044,3874 1068,3865 1076,3860 1079,3854 1076,3849 1067,3844 1057,3826 1048,3817 1037,3811 1013,3802 1005,3790 994,3784 990,3782 986,3783 973,3784 961,3777 961,3768 959,3760 949,3735 947,3728 948,3717 948,3712 946,3709 939,3703 924,3699 920,3696 915,3691 908,3689 904,3688 902,3681 897,3676 890,3674 876,3673 868,3670 864,3664 865,3655 866,3639 860,3627 882,3617 888,3614 890,3609 889,3592 894,3584 929,3565 943,3565 951,3568 958,3573 966,3582 970,3583 976,3580 978,3574 980,3570 983,3569 987,3568 992,3570 1008,3576 1016,3574 1019,3568 1011,3561 1010,3556 1015,3550 1021,3547 1023,3544 1023,3540 1017,3527 1018,3522 1038,3517 1061,3508 1069,3509 1077,3513 1084,3518 1086,3523 1087,3536 1089,3540 1092,3542 1099,3543 1105,3539 1114,3538 1126,3541 1140,3551 1152,3552 1157,3555 1160,3559 1171,3575 1178,3579 1196,3576 1209,3575 1214,3572 1223,3566 1229,3567 1236,3573 1242,3572 1258,3563 1267,3560 1280,3559 1285,3563 1290,3568 1300,3569 1320,3572 1323,3574 1330,3575 1342,3575 1343,3572 1339,3568 1327,3564 1324,3561 1333,3548 1338,3545 1348,3544 1355,3543 1361,3539 1370,3526 1373,3518 1373,3505 1376,3498 1384,3481 1388,3476 1391,3471 1387,3463 1386,3458 1391,3449 1396,3439 1400,3436 1409,3435 1414,3431 1418,3427 1423,3425 1432,3425 1440,3431 1446,3432 1460,3433 1461,3427 1477,3424 1498,3423 1505,3423 1509,3425 " class="polyStyle" id="370304" style="fill:#fbe6ef"/>
<polygon points="2129,2623 2133,2629 2134,2641 2138,2645 2149,2648 2150,2651 2152,2655 2159,2657 2162,2659 2164,2666 2167,2667 2179,2668 2186,2671 2191,2673 2198,2672 2212,2671 2218,2665 2223,2663 2232,2662 2236,2658 2239,2653 2245,2651 2259,2648 2271,2654 2274,2659 2271,2664 2264,2672 2257,2695 2253,2700 2246,2702 2240,2704 2236,2711 2235,2720 2236,2725 2242,2733 2246,2739 2251,2741 2260,2742 2269,2746 2287,2749 2302,2764 2301,2786 2299,2795 2296,2798 2296,2804 2299,2810 2307,2814 2331,2817 2353,2817 2361,2813 2368,2805 2379,2783 2386,2773 2396,2768 2414,2772 2436,2782 2443,2786 2448,2784 2452,2781 2458,2780 2469,2785 2483,2795 2486,2797 2489,2796 2496,2788 2502,2786 2507,2787 2507,2794 2505,2804 2507,2809 2509,2816 2508,2822 2505,2829 2509,2833 2517,2834 2530,2829 2541,2828 2544,2822 2545,2819 2548,2817 2558,2820 2560,2829 2563,2837 2571,2847 2581,2853 2596,2855 2612,2854 2634,2834 2651,2826 2657,2821 2663,2816 2671,2815 2685,2815 2692,2813 2697,2808 2697,2801 2698,2796 2707,2793 2715,2794 2720,2801 2727,2808 2737,2810 2753,2802 2775,2810 2786,2816 2792,2824 2797,2826 2806,2829 2807,2833 2804,2847 2808,2848 2818,2843 2822,2842 2827,2844 2833,2848 2838,2854 2838,2878 2840,2891 2845,2904 2846,2914 2849,2927 2857,2941 2865,2948 2874,2950 2881,2951 2882,2955 2881,2971 2889,2972 2893,2976 2898,2984 2908,2986 2923,2987 2927,2990 2929,2994 2932,3006 2939,3011 2949,3013 2951,3017 2950,3023 2946,3029 2959,3039 2962,3046 2962,3053 2961,3060 2965,3061 2972,3060 2981,3056 2989,3055 2992,3059 2995,3067 3002,3071 3011,3076 3016,3086 3021,3105 3028,3114 3037,3119 3039,3115 3038,3108 3033,3096 3036,3092 3041,3094 3061,3105 3074,3107 3089,3105 3112,3094 3136,3092 3145,3089 3150,3090 3158,3104 3173,3116 3177,3122 3182,3125 3199,3127 3204,3129 3206,3132 3206,3142 3201,3151 3199,3157 3202,3161 3212,3165 3215,3169 3214,3176 3213,3179 3208,3183 3201,3189 3200,3193 3204,3197 3213,3199 3218,3202 3217,3207 3209,3216 3202,3218 3199,3218 3191,3222 3173,3222 3169,3222 3166,3228 3166,3232 3172,3233 3178,3234 3180,3240 3181,3247 3186,3247 3192,3245 3195,3239 3198,3232 3205,3227 3217,3221 3223,3216 3230,3205 3233,3197 3236,3192 3241,3194 3248,3198 3253,3197 3259,3194 3262,3196 3260,3197 3251,3210 3252,3215 3260,3220 3263,3224 3269,3224 3277,3219 3282,3218 3288,3219 3286,3224 3285,3227 3291,3227 3295,3229 3296,3236 3302,3239 3303,3242 3298,3263 3304,3273 3315,3284 3322,3292 3325,3299 3311,3321 3287,3334 3269,3339 3259,3343 3252,3348 3244,3357 3240,3382 3231,3390 3214,3399 3187,3418 3157,3438 3142,3466 3137,3479 3139,3486 3144,3492 3145,3497 3148,3500 3152,3499 3155,3496 3161,3494 3169,3498 3176,3501 3186,3502 3185,3510 3176,3512 3168,3517 3159,3529 3157,3547 3156,3567 3158,3576 3160,3592 3160,3602 3163,3607 3175,3603 3185,3605 3186,3609 3183,3614 3183,3618 3186,3622 3198,3626 3201,3630 3202,3640 3205,3643 3211,3648 3213,3656 3214,3673 3217,3677 3222,3679 3264,3685 3305,3701 3331,3711 3349,3709 3352,3713 3353,3714 3356,3713 3358,3708 3361,3705 3369,3705 3373,3707 3370,3713 3364,3722 3362,3728 3362,3744 3360,3754 3357,3758 3351,3761 3329,3768 3312,3777 3304,3786 3300,3800 3299,3805 3301,3809 3305,3811 3310,3814 3309,3821 3308,3828 3312,3830 3317,3831 3321,3837 3324,3842 3321,3845 3309,3850 3303,3856 3307,3861 3305,3867 3301,3871 3289,3872 3291,3874 3299,3876 3309,3878 3311,3883 3311,3890 3315,3893 3323,3906 3340,3912 3344,3914 3346,3917 3347,3924 3339,3929 3333,3931 3333,3934 3332,3937 3328,3938 3325,3953 3321,3960 3323,3964 3334,3972 3336,3975 3336,3979 3333,3992 3337,4000 3344,4009 3343,4013 3341,4017 3343,4020 3353,4031 3358,4040 3363,4042 3369,4041 3372,4038 3375,4039 3376,4042 3375,4045 3369,4049 3368,4052 3377,4061 3387,4066 3400,4065 3408,4069 3415,4075 3418,4080 3421,4084 3420,4087 3410,4092 3408,4095 3410,4099 3421,4106 3423,4117 3425,4120 3425,4126 3423,4131 3420,4133 3394,4147 3393,4152 3400,4162 3407,4171 3411,4183 3419,4210 3421,4215 3421,4221 3419,4227 3416,4230 3421,4236 3423,4240 3421,4243 3418,4244 3406,4248 3401,4255 3397,4287 3394,4297 3390,4301 3389,4305 3387,4309 3386,4318 3383,4333 3384,4340 3390,4355 3392,4360 3396,4363 3400,4365 3406,4365 3427,4355 3440,4354 3448,4357 3453,4359 3460,4355 3469,4346 3471,4342 3470,4339 3469,4336 3471,4333 3479,4332 3490,4333 3501,4339 3512,4348 3512,4353 3505,4358 3501,4364 3502,4368 3511,4368 3510,4373 3509,4376 3510,4379 3516,4388 3518,4394 3514,4397 3500,4398 3492,4403 3477,4419 3472,4426 3468,4440 3464,4447 3456,4450 3437,4457 3423,4452 3420,4449 3415,4448 3411,4448 3408,4450 3404,4453 3397,4453 3391,4454 3381,4460 3381,4469 3378,4474 3373,4475 3360,4472 3351,4476 3349,4480 3350,4483 3351,4489 3344,4497 3335,4500 3328,4496 3325,4490 3319,4487 3312,4488 3300,4493 3291,4501 3288,4506 3290,4512 3302,4521 3303,4525 3299,4528 3293,4528 3275,4523 3268,4521 3261,4524 3251,4525 3238,4518 3233,4511 3229,4496 3230,4488 3236,4479 3243,4470 3246,4461 3249,4454 3257,4445 3260,4439 3256,4431 3249,4426 3239,4422 3230,4419 3221,4419 3196,4424 3185,4426 3168,4426 3156,4425 3149,4429 3144,4432 3127,4433 3108,4448 3097,4451 3075,4451 3071,4450 3067,4446 3061,4433 3059,4389 3061,4370 3059,4364 3056,4361 3047,4357 3044,4352 3043,4344 3045,4336 3045,4331 3041,4319 3041,4316 3038,4313 3028,4310 3013,4312 3009,4313 3006,4316 3000,4322 2988,4330 2968,4331 2959,4333 2954,4340 2951,4352 2952,4359 2957,4369 2954,4374 2943,4381 2937,4394 2928,4396 2923,4399 2912,4401 2880,4417 2872,4421 2861,4421 2852,4422 2844,4429 2841,4436 2842,4450 2834,4454 2810,4455 2802,4454 2797,4446 2791,4437 2780,4427 2775,4421 2773,4410 2772,4402 2766,4395 2764,4392 2764,4388 2770,4380 2774,4369 2774,4364 2772,4361 2765,4344 2761,4337 2751,4331 2745,4327 2743,4321 2741,4316 2733,4311 2729,4306 2723,4290 2720,4284 2721,4277 2725,4272 2733,4270 2739,4268 2741,4262 2747,4254 2751,4250 2756,4249 2760,4248 2761,4239 2753,4224 2753,4201 2750,4196 2746,4193 2732,4190 2719,4185 2699,4172 2688,4167 2673,4166 2661,4166 2656,4163 2650,4158 2641,4156 2629,4155 2621,4152 2617,4149 2612,4148 2609,4149 2608,4152 2606,4158 2600,4161 2585,4163 2575,4162 2561,4157 2539,4153 2510,4156 2478,4138 2467,4138 2449,4146 2442,4151 2434,4160 2419,4171 2415,4175 2410,4177 2395,4180 2389,4181 2385,4188 2374,4192 2361,4190 2354,4189 2339,4191 2329,4191 2321,4188 2310,4184 2304,4179 2292,4170 2283,4168 2271,4172 2265,4172 2253,4167 2243,4160 2233,4153 2223,4149 2195,4146 2184,4143 2181,4137 2180,4117 2177,4110 2167,4106 2167,4102 2173,4088 2173,4083 2166,4082 2152,4089 2147,4089 2147,4080 2145,4074 2140,4072 2140,4063 2136,4061 2119,4063 2114,4060 2111,4050 2103,4047 2082,4046 2075,4047 2070,4055 2065,4058 2059,4054 2042,4054 2044,4043 2049,4038 2054,4038 2064,4043 2065,4038 2058,4032 2054,4028 2050,4020 2041,4015 2037,4016 2035,4019 2033,4023 2030,4025 2020,4026 1993,4015 1984,4016 1977,4022 1973,4025 1968,4026 1963,4026 1959,4024 1952,4020 1938,4018 1933,4015 1934,4009 1933,4006 1924,4008 1919,4007 1916,3999 1913,3992 1910,3989 1907,3986 1901,3984 1891,3980 1882,3971 1878,3963 1878,3949 1875,3944 1875,3941 1875,3938 1878,3935 1884,3930 1884,3926 1879,3924 1871,3927 1864,3927 1860,3919 1855,3910 1844,3905 1818,3902 1804,3900 1794,3892 1781,3883 1780,3878 1784,3877 1789,3877 1793,3874 1798,3871 1805,3871 1810,3870 1811,3865 1813,3859 1818,3856 1830,3859 1839,3856 1842,3849 1844,3844 1849,3842 1856,3844 1863,3842 1865,3832 1870,3832 1874,3837 1882,3836 1907,3827 1921,3819 1928,3812 1933,3807 1944,3804 1970,3795 1974,3793 1977,3789 1982,3781 1984,3769 1986,3765 1992,3757 1991,3748 1987,3744 1980,3744 1970,3743 1966,3741 1964,3738 1961,3730 1964,3726 1971,3720 1970,3716 1964,3714 1951,3714 1942,3714 1938,3709 1937,3703 1940,3697 1943,3689 1942,3686 1919,3678 1914,3673 1912,3663 1909,3661 1905,3661 1900,3662 1895,3666 1884,3666 1879,3665 1878,3659 1874,3655 1868,3660 1865,3663 1861,3663 1852,3659 1821,3641 1815,3633 1816,3626 1820,3623 1830,3621 1836,3619 1838,3613 1836,3605 1827,3598 1816,3593 1790,3585 1777,3579 1775,3576 1775,3568 1770,3565 1767,3562 1769,3552 1768,3548 1763,3543 1748,3539 1744,3534 1747,3527 1751,3521 1751,3515 1744,3509 1739,3506 1733,3505 1730,3504 1723,3494 1719,3493 1709,3497 1705,3495 1700,3494 1692,3500 1687,3504 1681,3505 1663,3506 1651,3506 1640,3499 1636,3493 1635,3484 1633,3481 1626,3477 1602,3469 1590,3465 1585,3461 1583,3458 1580,3457 1571,3455 1566,3457 1563,3464 1560,3467 1554,3467 1538,3463 1528,3451 1522,3450 1523,3430 1522,3426 1516,3426 1512,3427 1509,3425 1505,3423 1498,3423 1477,3424 1461,3427 1460,3433 1446,3432 1440,3431 1432,3425 1423,3425 1418,3427 1414,3431 1409,3435 1400,3436 1396,3439 1391,3449 1386,3458 1387,3463 1391,3471 1388,3476 1384,3481 1376,3498 1373,3505 1373,3518 1370,3526 1361,3539 1355,3543 1348,3544 1338,3545 1333,3548 1324,3561 1327,3564 1339,3568 1343,3572 1342,3575 1330,3575 1323,3574 1320,3572 1300,3569 1290,3568 1285,3563 1280,3559 1267,3560 1258,3563 1242,3572 1236,3573 1229,3567 1223,3566 1214,3572 1209,3575 1196,3576 1178,3579 1171,3575 1160,3559 1157,3555 1152,3552 1140,3551 1126,3541 1114,3538 1105,3539 1099,3543 1092,3542 1089,3540 1087,3536 1086,3523 1084,3518 1077,3513 1069,3509 1061,3508 1038,3517 1018,3522 1017,3527 1023,3540 1023,3544 1021,3547 1015,3550 1010,3556 1011,3561 1019,3568 1016,3574 1008,3576 992,3570 987,3568 983,3569 980,3570 978,3574 976,3580 970,3583 966,3582 958,3573 951,3568 943,3565 929,3565 894,3584 889,3592 890,3609 888,3614 882,3617 860,3627 859,3624 854,3617 849,3613 834,3607 835,3604 809,3598 801,3593 788,3583 774,3581 762,3581 754,3576 748,3571 739,3569 727,3566 721,3561 719,3552 723,3546 730,3541 733,3535 736,3529 743,3529 755,3531 761,3527 768,3517 770,3514 773,3513 777,3511 780,3506 783,3504 789,3507 799,3510 804,3514 807,3515 808,3519 811,3521 817,3521 822,3521 824,3518 824,3513 820,3508 814,3502 806,3501 794,3500 791,3497 792,3494 798,3493 808,3494 811,3490 809,3484 801,3479 795,3476 795,3472 796,3466 792,3462 786,3458 781,3452 782,3446 785,3443 790,3442 800,3440 809,3434 827,3414 825,3408 821,3406 817,3407 810,3408 806,3407 803,3404 793,3401 780,3400 772,3405 767,3406 735,3411 726,3410 721,3404 715,3395 711,3394 703,3391 702,3385 708,3382 726,3383 749,3380 756,3378 766,3378 772,3361 778,3355 786,3352 811,3347 820,3354 826,3356 829,3355 831,3352 832,3346 820,3339 817,3336 816,3331 816,3317 819,3299 821,3279 819,3269 812,3260 804,3257 798,3256 798,3252 801,3249 811,3246 809,3239 805,3238 795,3236 792,3232 796,3219 802,3209 806,3199 802,3194 792,3188 790,3180 791,3153 799,3142 806,3140 818,3143 828,3142 845,3137 860,3132 871,3131 876,3132 885,3138 889,3139 915,3140 926,3138 939,3135 952,3136 971,3141 977,3142 981,3140 986,3134 988,3125 990,3116 1010,3120 1010,3114 1009,3105 1010,3101 1029,3101 1040,3095 1047,3094 1065,3101 1069,3101 1070,3106 1081,3117 1092,3123 1102,3119 1107,3116 1109,3112 1106,3086 1109,3081 1116,3078 1124,3078 1127,3075 1131,3072 1140,3072 1147,3079 1149,3084 1151,3088 1151,3094 1145,3112 1143,3124 1141,3136 1136,3146 1135,3150 1137,3153 1140,3156 1144,3157 1153,3154 1156,3154 1161,3157 1172,3161 1203,3153 1231,3146 1238,3145 1243,3147 1256,3158 1261,3159 1266,3157 1273,3153 1279,3153 1301,3158 1327,3165 1331,3172 1343,3173 1352,3169 1360,3166 1367,3166 1378,3164 1387,3153 1399,3149 1405,3150 1409,3154 1416,3155 1420,3155 1423,3157 1425,3163 1424,3171 1434,3170 1445,3165 1454,3165 1482,3167 1500,3168 1508,3170 1510,3168 1514,3164 1518,3163 1523,3163 1530,3166 1537,3169 1540,3172 1550,3180 1555,3182 1569,3183 1579,3188 1586,3193 1594,3194 1604,3193 1607,3188 1615,3161 1628,3141 1653,3120 1662,3111 1665,3105 1664,3096 1662,3092 1652,3087 1634,3084 1610,3077 1600,3073 1596,3068 1594,3060 1597,3050 1600,3035 1600,3015 1598,3006 1593,2995 1592,2983 1600,2966 1614,2952 1621,2947 1629,2944 1653,2955 1662,2963 1666,2966 1671,2967 1681,2968 1684,2965 1687,2959 1692,2958 1705,2960 1717,2965 1725,2969 1734,2968 1752,2965 1764,2957 1765,2953 1769,2949 1777,2947 1781,2949 1783,2952 1785,2955 1789,2955 1793,2955 1795,2952 1796,2946 1800,2944 1815,2945 1838,2937 1846,2933 1854,2935 1860,2936 1863,2935 1865,2930 1868,2923 1876,2922 1892,2932 1900,2933 1912,2930 1916,2922 1915,2912 1919,2909 1925,2910 1926,2917 1927,2925 1931,2927 1935,2926 1938,2918 1935,2909 1938,2907 1943,2907 1953,2914 1957,2914 1961,2911 1964,2911 1969,2913 1975,2915 1985,2913 1996,2908 2001,2904 2003,2899 2012,2899 2016,2893 2015,2889 2008,2884 2008,2881 2018,2876 2021,2871 2021,2852 2020,2845 2017,2841 2004,2836 2001,2835 1998,2831 1997,2813 1996,2810 1992,2808 1985,2807 1972,2812 1966,2811 1959,2801 1953,2795 1951,2789 1950,2784 1952,2777 1955,2773 1959,2771 1971,2771 1975,2770 1974,2766 1953,2750 1951,2742 1952,2738 1963,2739 1965,2737 1962,2717 1958,2705 1959,2699 1969,2688 1982,2673 1991,2666 1995,2660 1997,2653 2001,2649 2005,2649 2008,2653 2012,2657 2018,2659 2039,2657 2046,2654 2051,2647 2056,2637 2064,2632 2071,2632 2083,2638 2097,2638 2101,2634 2101,2631 2092,2618 2092,2614 2095,2611 2106,2605 2124,2619 " class="polyStyle" id="370302" style="fill:#f6f67b"/>
<polygon points="1972,1949 1977,1980 1984,1995 1986,1999 1985,2022 1983,2026 1973,2026 1970,2028 1968,2033 1966,2053 1967,2060 1973,2062 1980,2064 1986,2069 1984,2103 1994,2108 1997,2112 1992,2149 1993,2153 1998,2155 2001,2158 2000,2166 1995,2176 1979,2175 1978,2186 1968,2185 1966,2195 1957,2197 1956,2205 1938,2205 1939,2224 1928,2225 1929,2251 1934,2256 1940,2259 1945,2264 1947,2275 1949,2279 1954,2281 1959,2283 1961,2289 1972,2292 1979,2298 2002,2297 2002,2311 2003,2317 2006,2319 2006,2325 1996,2325 1988,2326 1985,2327 1983,2330 1980,2345 1968,2345 1961,2349 1959,2353 1959,2358 1959,2373 1963,2376 1968,2377 1976,2381 1993,2388 2007,2391 2007,2414 2010,2423 2012,2428 2012,2439 2012,2444 2014,2447 2022,2449 2027,2448 2028,2438 2029,2429 2036,2427 2041,2428 2046,2432 2046,2448 2083,2449 2085,2447 2087,2444 2091,2442 2095,2440 2100,2440 2106,2439 2107,2432 2109,2424 2113,2418 2118,2414 2133,2408 2142,2409 2146,2419 2154,2429 2152,2444 2148,2464 2140,2473 2128,2483 2128,2493 2125,2517 2123,2531 2126,2537 2130,2544 2129,2557 2125,2570 2121,2575 2112,2578 2106,2584 2105,2589 2112,2596 2113,2599 2110,2604 2106,2605 2095,2611 2092,2614 2092,2618 2101,2631 2101,2634 2097,2638 2083,2638 2071,2632 2064,2632 2056,2637 2051,2647 2046,2654 2039,2657 2018,2659 2012,2657 2008,2653 2005,2649 2001,2649 1997,2653 1995,2660 1991,2666 1982,2673 1969,2688 1959,2699 1958,2705 1962,2717 1965,2737 1963,2739 1952,2738 1951,2742 1953,2750 1974,2766 1975,2770 1971,2771 1959,2771 1955,2773 1952,2777 1950,2784 1951,2789 1953,2795 1959,2801 1966,2811 1972,2812 1985,2807 1992,2808 1996,2810 1997,2813 1998,2831 2001,2835 2004,2836 2017,2841 2020,2845 2021,2852 2021,2871 2018,2876 2008,2881 2008,2884 2015,2889 2016,2893 2012,2899 2003,2899 2001,2904 1996,2908 1985,2913 1975,2915 1969,2913 1964,2911 1961,2911 1957,2914 1953,2914 1943,2907 1938,2907 1935,2909 1938,2918 1935,2926 1931,2927 1927,2925 1926,2917 1925,2910 1919,2909 1915,2912 1916,2922 1912,2930 1900,2933 1892,2932 1876,2922 1868,2923 1865,2930 1863,2935 1860,2936 1854,2935 1846,2933 1838,2937 1815,2945 1800,2944 1796,2946 1795,2952 1793,2955 1789,2955 1785,2955 1783,2952 1781,2949 1777,2947 1769,2949 1765,2953 1764,2957 1752,2965 1734,2968 1725,2969 1717,2965 1705,2960 1692,2958 1687,2959 1684,2965 1681,2968 1671,2967 1666,2966 1662,2963 1653,2955 1629,2944 1621,2947 1614,2952 1600,2966 1592,2983 1593,2995 1598,3006 1600,3015 1600,3035 1597,3050 1594,3060 1596,3068 1600,3073 1610,3077 1634,3084 1652,3087 1662,3092 1664,3096 1665,3105 1662,3111 1653,3120 1628,3141 1615,3161 1607,3188 1604,3193 1594,3194 1586,3193 1579,3188 1569,3183 1555,3182 1550,3180 1540,3172 1537,3169 1530,3166 1523,3163 1518,3163 1514,3164 1510,3168 1508,3170 1500,3168 1482,3167 1454,3165 1445,3165 1434,3170 1424,3171 1425,3163 1423,3157 1420,3155 1416,3155 1409,3154 1405,3150 1399,3149 1387,3153 1378,3164 1367,3166 1360,3166 1352,3169 1343,3173 1331,3172 1327,3165 1301,3158 1279,3153 1273,3153 1266,3157 1261,3159 1256,3158 1243,3147 1238,3145 1231,3146 1203,3153 1172,3161 1161,3157 1156,3154 1153,3154 1144,3157 1140,3156 1137,3153 1135,3150 1136,3146 1141,3136 1143,3124 1145,3112 1151,3094 1151,3088 1149,3084 1147,3079 1140,3072 1131,3072 1127,3075 1124,3078 1116,3078 1109,3081 1106,3086 1109,3112 1107,3116 1102,3119 1092,3123 1081,3117 1070,3106 1069,3101 1065,3101 1047,3094 1040,3095 1029,3101 1010,3101 1009,3105 1010,3114 1010,3120 990,3116 988,3125 986,3134 981,3140 977,3142 971,3141 952,3136 939,3135 926,3138 915,3140 889,3139 885,3138 876,3132 871,3131 860,3132 845,3137 828,3142 818,3143 806,3140 799,3142 791,3153 776,3149 757,3146 744,3144 736,3139 729,3126 725,3122 721,3119 719,3115 717,3111 718,3108 720,3105 718,3101 712,3089 712,3084 714,3081 726,3073 734,3065 737,3062 738,3058 738,3039 733,3026 733,3017 735,3013 738,3012 741,3010 747,3010 749,2981 750,2974 774,2973 778,2972 780,2967 780,2957 783,2956 810,2960 812,2944 822,2944 826,2942 831,2930 835,2922 833,2912 842,2923 846,2926 851,2927 867,2929 873,2937 874,2956 879,2958 894,2954 913,2946 910,2928 910,2924 912,2921 923,2918 937,2919 947,2924 953,2929 955,2933 960,2935 967,2935 975,2930 979,2926 984,2929 989,2932 993,2929 995,2925 994,2917 1001,2914 1003,2909 1002,2900 1002,2896 1009,2895 1013,2896 1013,2901 1014,2907 1017,2910 1020,2913 1021,2918 1025,2921 1035,2920 1038,2914 1044,2915 1051,2920 1056,2924 1063,2925 1083,2923 1085,2931 1088,2932 1113,2925 1134,2928 1144,2927 1152,2922 1154,2919 1154,2915 1154,2900 1152,2894 1143,2893 1141,2890 1143,2887 1150,2886 1157,2886 1159,2881 1161,2877 1168,2877 1179,2877 1186,2879 1189,2879 1191,2872 1195,2870 1205,2869 1216,2869 1219,2867 1220,2864 1222,2854 1232,2852 1231,2821 1225,2804 1226,2801 1232,2799 1240,2792 1243,2787 1246,2780 1253,2772 1267,2767 1270,2764 1274,2745 1279,2737 1286,2734 1294,2733 1299,2732 1302,2726 1318,2704 1323,2697 1326,2695 1330,2695 1337,2697 1340,2699 1341,2702 1344,2702 1346,2696 1345,2684 1343,2679 1339,2675 1330,2665 1327,2656 1331,2649 1344,2643 1352,2639 1354,2636 1354,2632 1354,2627 1352,2623 1345,2620 1337,2619 1335,2613 1338,2609 1355,2601 1363,2594 1373,2590 1383,2597 1397,2615 1419,2646 1417,2655 1410,2660 1402,2665 1399,2670 1399,2673 1412,2674 1416,2677 1419,2682 1423,2679 1428,2676 1438,2677 1452,2670 1470,2671 1477,2669 1482,2664 1491,2664 1501,2665 1503,2661 1503,2653 1506,2651 1512,2650 1514,2642 1512,2634 1502,2627 1499,2623 1497,2615 1497,2597 1498,2584 1494,2577 1492,2573 1490,2562 1483,2543 1461,2532 1446,2517 1435,2512 1424,2510 1417,2512 1415,2523 1412,2526 1409,2527 1407,2531 1406,2535 1403,2537 1388,2526 1377,2526 1374,2524 1373,2521 1373,2516 1375,2512 1381,2506 1385,2500 1384,2496 1381,2493 1377,2489 1374,2478 1372,2473 1368,2469 1357,2466 1335,2463 1326,2457 1324,2451 1321,2449 1318,2443 1319,2432 1319,2424 1321,2421 1333,2415 1337,2408 1340,2380 1339,2366 1338,2362 1329,2359 1330,2349 1334,2348 1347,2345 1349,2342 1351,2308 1355,2287 1358,2281 1362,2279 1367,2282 1374,2281 1379,2277 1382,2262 1385,2260 1394,2261 1403,2238 1411,2196 1412,2188 1407,2187 1396,2187 1393,2182 1387,2135 1386,2126 1389,2124 1400,2122 1400,2112 1441,2110 1483,2102 1549,2097 1575,2098 1576,2075 1587,2072 1596,2072 1605,2075 1607,2081 1607,2095 1611,2101 1619,2103 1647,2104 1659,2104 1662,2103 1663,2100 1662,2091 1667,2088 1685,2089 1688,2082 1687,2073 1689,2070 1702,2066 1707,2062 1710,2055 1709,2050 1704,2040 1707,2037 1714,2038 1726,2049 1746,2058 1760,2062 1773,2062 1797,2060 1822,2064 1827,2058 1831,2057 1840,2057 1841,2041 1851,2013 1854,2001 1854,1996 1858,1994 1863,1991 1863,1984 1863,1978 1869,1976 1900,1977 1905,1973 1905,1969 1900,1958 1899,1953 1904,1950 1911,1950 1924,1944 1952,1944 1955,1942 1967,1945 " class="polyStyle" id="370306" style="fill:#fbe6ef"/>
<polygon points="2401,1829 2404,1830 2417,1833 2421,1835 2422,1838 2422,1847 2424,1851 2470,1857 2476,1843 2493,1843 2499,1846 2501,1858 2507,1864 2548,1878 2563,1878 2561,1932 2571,1933 2567,1966 2584,1969 2627,1971 2630,1984 2634,1989 2643,1990 2646,1992 2647,1995 2646,2000 2642,2006 2643,2009 2651,2012 2687,2017 2696,2019 2708,2018 2710,2012 2714,2011 2724,2012 2727,2011 2730,2004 2734,2003 2743,2000 2748,1993 2747,1986 2749,1983 2767,1984 2776,1981 2780,1974 2781,1961 2795,1960 2799,1963 2797,1979 2799,1985 2807,1987 2821,1986 2824,1976 2863,1977 2874,1965 2883,1962 2891,1960 2905,1953 2907,1940 2925,1940 2929,1934 2938,1935 2941,1938 2941,1942 2947,1944 2959,1940 2978,1943 2977,1952 3003,1953 3007,1943 3015,1944 3018,1947 3020,1964 3041,1965 3062,1963 3079,1963 3087,1967 3089,1972 3092,1974 3104,1976 3104,1984 3112,1987 3113,1998 3118,1999 3121,2002 3127,2012 3127,2034 3129,2040 3132,2042 3138,2042 3141,2044 3144,2045 3145,2049 3147,2060 3182,2062 3192,2066 3204,2074 3215,2083 3225,2086 3252,2086 3255,2082 3259,2081 3264,2083 3266,2088 3267,2091 3272,2092 3279,2092 3281,2095 3283,2102 3288,2103 3288,2106 3288,2113 3291,2114 3298,2115 3302,2119 3303,2122 3301,2126 3293,2133 3291,2138 3290,2149 3288,2197 3272,2231 3258,2232 3252,2239 3248,2256 3246,2263 3238,2264 3236,2268 3237,2307 3215,2309 3204,2313 3197,2314 3196,2317 3193,2318 3167,2319 3154,2319 3146,2321 3135,2323 3126,2319 3124,2308 3101,2308 3095,2309 3092,2307 3089,2303 3083,2302 3066,2303 3060,2301 3054,2295 3042,2292 3032,2292 3024,2294 3010,2301 3008,2311 3011,2315 3015,2317 3025,2319 3036,2318 3044,2322 3047,2328 3047,2346 3050,2352 3066,2352 3071,2355 3080,2364 3087,2367 3091,2368 3092,2372 3092,2386 3098,2387 3101,2392 3100,2414 3093,2418 3098,2434 3104,2441 3129,2438 3135,2439 3138,2442 3142,2445 3149,2445 3152,2448 3153,2455 3151,2458 3141,2460 3140,2477 3123,2488 3085,2494 3087,2525 3088,2532 3092,2533 3095,2534 3097,2538 3104,2540 3116,2540 3115,2559 3107,2560 3093,2580 3084,2585 3075,2587 3071,2587 3070,2591 3070,2597 3068,2599 3064,2598 3063,2593 3061,2588 3033,2590 3011,2590 2998,2611 2996,2627 3005,2627 3012,2631 3015,2636 3016,2642 3019,2668 3020,2681 3033,2681 3037,2682 3037,2687 3028,2689 3025,2692 3028,2695 3036,2703 3031,2715 3032,2723 3035,2729 3042,2739 3051,2744 3053,2748 3050,2753 3045,2756 3027,2767 3021,2769 3002,2772 2997,2781 2995,2784 2992,2785 2987,2785 2978,2778 2973,2775 2970,2775 2964,2776 2963,2780 2966,2786 2962,2791 2955,2794 2939,2791 2937,2805 2927,2807 2921,2803 2914,2796 2910,2794 2904,2794 2884,2794 2879,2795 2868,2823 2861,2834 2838,2854 2833,2848 2827,2844 2822,2842 2818,2843 2808,2848 2804,2847 2807,2833 2806,2829 2797,2826 2792,2824 2786,2816 2775,2810 2753,2802 2737,2810 2727,2808 2720,2801 2715,2794 2707,2793 2698,2796 2697,2801 2697,2808 2692,2813 2685,2815 2671,2815 2663,2816 2657,2821 2651,2826 2634,2834 2612,2854 2596,2855 2581,2853 2571,2847 2563,2837 2560,2829 2558,2820 2548,2817 2545,2819 2544,2822 2541,2828 2530,2829 2517,2834 2509,2833 2505,2829 2508,2822 2509,2816 2507,2809 2505,2804 2507,2794 2507,2787 2502,2786 2496,2788 2489,2796 2486,2797 2483,2795 2469,2785 2458,2780 2452,2781 2448,2784 2443,2786 2436,2782 2414,2772 2396,2768 2386,2773 2379,2783 2368,2805 2361,2813 2353,2817 2331,2817 2307,2814 2299,2810 2296,2804 2296,2798 2299,2795 2301,2786 2302,2764 2287,2749 2269,2746 2260,2742 2251,2741 2246,2739 2242,2733 2236,2725 2235,2720 2236,2711 2240,2704 2246,2702 2253,2700 2257,2695 2264,2672 2271,2664 2274,2659 2271,2654 2259,2648 2245,2651 2239,2653 2236,2658 2232,2662 2223,2663 2218,2665 2212,2671 2198,2672 2191,2673 2186,2671 2179,2668 2167,2667 2164,2666 2162,2659 2159,2657 2152,2655 2150,2651 2149,2648 2138,2645 2134,2641 2133,2629 2129,2623 2124,2619 2106,2605 2110,2604 2113,2599 2112,2596 2105,2589 2106,2584 2112,2578 2121,2575 2125,2570 2129,2557 2130,2544 2126,2537 2123,2531 2125,2517 2128,2493 2128,2483 2140,2473 2148,2464 2152,2444 2154,2429 2146,2419 2142,2409 2133,2408 2118,2414 2113,2418 2109,2424 2107,2432 2106,2439 2100,2440 2095,2440 2091,2442 2087,2444 2085,2447 2083,2449 2046,2448 2046,2432 2041,2428 2036,2427 2029,2429 2028,2438 2027,2448 2022,2449 2014,2447 2012,2444 2012,2439 2012,2428 2010,2423 2007,2414 2007,2391 1993,2388 1976,2381 1968,2377 1963,2376 1959,2373 1959,2358 1959,2353 1961,2349 1968,2345 1980,2345 1983,2330 1985,2327 1988,2326 1996,2325 2006,2325 2006,2319 2003,2317 2002,2311 2002,2297 1979,2298 1972,2292 1961,2289 1959,2283 1954,2281 1949,2279 1947,2275 1945,2264 1940,2259 1934,2256 1929,2251 1928,2225 1939,2224 1938,2205 1956,2205 1957,2197 1966,2195 1968,2185 1978,2186 1979,2175 1995,2176 2000,2166 2001,2158 1998,2155 1993,2153 1992,2149 1997,2112 1994,2108 1984,2103 1986,2069 1980,2064 1973,2062 1967,2060 1966,2053 1968,2033 1970,2028 1973,2026 1983,2026 1985,2022 1986,1999 1990,2002 2001,2006 2013,2007 2015,2003 2020,2002 2032,2002 2038,2006 2039,2015 2037,2040 2037,2044 2039,2047 2047,2048 2073,2050 2086,2055 2087,2070 2100,2073 2105,2079 2112,2080 2115,2083 2116,2094 2119,2097 2135,2097 2141,2094 2142,2080 2145,2072 2158,2072 2158,2061 2166,2054 2169,2051 2170,2046 2171,2025 2169,2021 2181,2019 2182,2003 2206,2003 2210,2001 2211,1995 2212,1991 2222,1989 2222,1950 2208,1949 2208,1909 2222,1910 2223,1898 2233,1900 2233,1909 2256,1909 2257,1894 2277,1896 2281,1882 2282,1872 2282,1861 2285,1858 2289,1858 2302,1866 2348,1871 2362,1872 2365,1870 2366,1867 2366,1842 2369,1829 2371,1826 2375,1824 2382,1822 2393,1821 2400,1823 " class="polyStyle" id="370303" style="fill:#d4ecb2"/>
<polygon points="3621,1386 3639,1391 3660,1395 3662,1383 3666,1382 3675,1386 3692,1397 3692,1405 3693,1416 3698,1422 3701,1430 3716,1509 3716,1531 3702,1529 3701,1549 3705,1558 3718,1569 3733,1572 3749,1572 3754,1568 3758,1559 3799,1555 3832,1546 3840,1536 3846,1535 3858,1537 3861,1568 3887,1591 3939,1603 3968,1605 3972,1595 4005,1571 4006,1539 4030,1537 4075,1543 4111,1541 4165,1537 4173,1540 4175,1544 4175,1550 4177,1562 4182,1574 4189,1590 4182,1625 4182,1628 4185,1633 4195,1642 4181,1653 4213,1675 4243,1662 4255,1660 4258,1664 4261,1679 4269,1691 4277,1697 4286,1701 4345,1702 4351,1701 4354,1697 4358,1692 4365,1688 4432,1687 4483,1695 4516,1698 4530,1697 4539,1693 4544,1683 4547,1679 4551,1677 4557,1677 4562,1679 4564,1683 4559,1697 4564,1700 4578,1700 4581,1696 4582,1685 4606,1689 4609,1691 4615,1688 4624,1687 4649,1690 4679,1694 4690,1695 4695,1693 4696,1690 4700,1688 4704,1688 4707,1690 4715,1698 4716,1704 4712,1707 4711,1714 4713,1724 4717,1726 4732,1727 4733,1730 4731,1733 4728,1733 4722,1733 4712,1738 4708,1744 4713,1751 4721,1755 4725,1760 4730,1782 4724,1796 4703,1828 4697,1838 4695,1841 4661,1840 4658,1841 4656,1844 4653,1854 4651,1857 4640,1856 4635,1858 4624,1873 4621,1877 4621,1881 4628,1886 4644,1892 4649,1909 4662,1909 4665,2013 4649,2021 4644,2025 4638,2026 4632,2028 4615,2056 4611,2059 4600,2060 4597,2064 4597,2073 4591,2075 4581,2087 4576,2090 4572,2095 4570,2101 4594,2105 4646,2106 4649,2109 4647,2116 4646,2130 4648,2135 4655,2137 4657,2139 4657,2145 4631,2150 4614,2154 4613,2165 4599,2165 4586,2167 4571,2173 4564,2179 4559,2182 4550,2182 4548,2174 4554,2140 4534,2136 4536,2116 4518,2115 4517,2131 4515,2136 4508,2141 4506,2145 4506,2156 4505,2161 4500,2164 4497,2169 4497,2183 4502,2209 4500,2217 4494,2220 4473,2223 4458,2223 4444,2219 4436,2217 4425,2217 4423,2231 4436,2230 4437,2238 4447,2239 4445,2265 4455,2269 4451,2289 4444,2298 4441,2306 4440,2327 4451,2329 4445,2350 4442,2355 4436,2357 4432,2359 4430,2365 4426,2370 4420,2371 4417,2371 4414,2377 4409,2381 4394,2381 4391,2382 4390,2385 4388,2394 4371,2392 4372,2398 4369,2402 4360,2408 4352,2409 4347,2409 4345,2411 4348,2413 4349,2416 4347,2423 4345,2426 4342,2427 4330,2424 4324,2424 4317,2430 4314,2432 4307,2433 4295,2429 4286,2426 4278,2430 4272,2441 4264,2441 4259,2444 4253,2446 4248,2442 4246,2440 4233,2440 4230,2443 4229,2448 4230,2452 4191,2453 4165,2479 4132,2486 4107,2502 4082,2517 4068,2527 4059,2538 4050,2545 4036,2550 4030,2550 4027,2548 4020,2545 4011,2546 4008,2549 4008,2560 4006,2563 4003,2564 3992,2563 3958,2560 3931,2562 3905,2561 3896,2560 3888,2556 3869,2556 3852,2546 3852,2531 3840,2531 3841,2511 3840,2507 3830,2508 3792,2524 3784,2526 3777,2524 3769,2514 3763,2511 3759,2512 3758,2517 3748,2519 3737,2521 3730,2536 3728,2546 3731,2562 3736,2564 3755,2565 3765,2568 3756,2570 3752,2573 3741,2593 3746,2607 3745,2612 3742,2616 3740,2624 3740,2637 3738,2645 3735,2647 3728,2647 3706,2644 3707,2633 3676,2632 3659,2636 3645,2648 3630,2665 3615,2681 3612,2701 3613,2705 3620,2710 3613,2712 3621,2723 3629,2737 3633,2741 3642,2746 3662,2748 3662,2774 3670,2787 3669,2793 3663,2805 3656,2804 3638,2806 3632,2805 3616,2796 3608,2794 3596,2794 3592,2789 3585,2787 3573,2786 3566,2781 3548,2765 3535,2755 3521,2748 3511,2750 3494,2758 3477,2764 3458,2772 3448,2777 3439,2778 3411,2776 3382,2816 3407,2821 3404,2835 3433,2838 3437,2840 3440,2846 3439,2862 3433,2868 3414,2873 3404,2879 3398,2891 3399,2896 3404,2898 3414,2901 3416,2905 3416,2910 3423,2912 3472,2928 3461,2935 3461,2942 3466,2945 3473,2947 3474,2951 3468,2954 3458,2951 3445,2944 3443,2945 3440,2953 3435,2952 3426,2943 3420,2941 3414,2941 3412,2938 3409,2939 3405,2941 3399,2938 3392,2934 3365,2971 3350,2987 3335,3001 3332,3012 3334,3020 3336,3025 3333,3035 3334,3046 3332,3050 3330,3055 3333,3058 3352,3065 3356,3063 3357,3056 3360,3052 3363,3056 3365,3061 3369,3060 3377,3058 3381,3060 3384,3065 3380,3068 3373,3072 3372,3075 3376,3077 3386,3075 3399,3076 3409,3079 3412,3085 3412,3088 3408,3096 3407,3100 3401,3101 3394,3101 3389,3104 3384,3103 3371,3101 3371,3087 3366,3082 3360,3083 3357,3088 3357,3099 3355,3116 3352,3122 3341,3123 3338,3127 3339,3138 3336,3141 3332,3142 3331,3149 3331,3160 3328,3165 3320,3171 3313,3173 3301,3176 3297,3175 3293,3173 3287,3173 3281,3175 3282,3186 3280,3192 3273,3195 3262,3196 3259,3194 3253,3197 3248,3198 3241,3194 3236,3192 3233,3197 3230,3205 3223,3216 3217,3221 3205,3227 3198,3232 3195,3239 3192,3245 3186,3247 3181,3247 3180,3240 3178,3234 3172,3233 3166,3232 3166,3228 3169,3222 3173,3222 3191,3222 3199,3218 3202,3218 3209,3216 3217,3207 3218,3202 3213,3199 3204,3197 3200,3193 3201,3189 3208,3183 3213,3179 3214,3176 3215,3169 3212,3165 3202,3161 3199,3157 3201,3151 3206,3142 3206,3132 3204,3129 3199,3127 3182,3125 3177,3122 3173,3116 3158,3104 3150,3090 3145,3089 3136,3092 3112,3094 3089,3105 3074,3107 3061,3105 3041,3094 3036,3092 3033,3096 3038,3108 3039,3115 3037,3119 3028,3114 3021,3105 3016,3086 3011,3076 3002,3071 2995,3067 2992,3059 2989,3055 2981,3056 2972,3060 2965,3061 2961,3060 2962,3053 2962,3046 2959,3039 2946,3029 2950,3023 2951,3017 2949,3013 2939,3011 2932,3006 2929,2994 2927,2990 2923,2987 2908,2986 2898,2984 2893,2976 2889,2972 2881,2971 2882,2955 2881,2951 2874,2950 2865,2948 2857,2941 2849,2927 2846,2914 2845,2904 2840,2891 2838,2878 2838,2854 2861,2834 2868,2823 2879,2795 2884,2794 2904,2794 2910,2794 2914,2796 2921,2803 2927,2807 2937,2805 2939,2791 2955,2794 2962,2791 2966,2786 2963,2780 2964,2776 2970,2775 2973,2775 2978,2778 2987,2785 2992,2785 2995,2784 2997,2781 3002,2772 3021,2769 3027,2767 3045,2756 3050,2753 3053,2748 3051,2744 3042,2739 3035,2729 3032,2723 3031,2715 3036,2703 3028,2695 3025,2692 3028,2689 3037,2687 3037,2682 3033,2681 3020,2681 3019,2668 3016,2642 3015,2636 3012,2631 3005,2627 2996,2627 2998,2611 3011,2590 3033,2590 3061,2588 3063,2593 3064,2598 3068,2599 3070,2597 3070,2591 3071,2587 3075,2587 3084,2585 3093,2580 3107,2560 3115,2559 3116,2540 3104,2540 3097,2538 3095,2534 3092,2533 3088,2532 3087,2525 3085,2494 3123,2488 3140,2477 3141,2460 3151,2458 3153,2455 3152,2448 3149,2445 3142,2445 3138,2442 3135,2439 3129,2438 3104,2441 3098,2434 3093,2418 3100,2414 3101,2392 3098,2387 3092,2386 3092,2372 3091,2368 3087,2367 3080,2364 3071,2355 3066,2352 3050,2352 3047,2346 3047,2328 3044,2322 3036,2318 3025,2319 3015,2317 3011,2315 3008,2311 3010,2301 3024,2294 3032,2292 3042,2292 3054,2295 3060,2301 3066,2303 3083,2302 3089,2303 3092,2307 3095,2309 3101,2308 3124,2308 3126,2319 3135,2323 3146,2321 3154,2319 3167,2319 3193,2318 3196,2317 3197,2314 3204,2313 3215,2309 3237,2307 3236,2268 3238,2264 3246,2263 3248,2256 3252,2239 3258,2232 3272,2231 3288,2197 3290,2149 3291,2138 3293,2133 3301,2126 3303,2122 3302,2119 3298,2115 3291,2114 3288,2113 3288,2106 3288,2103 3283,2102 3281,2095 3279,2092 3272,2092 3267,2091 3266,2088 3264,2083 3259,2081 3255,2082 3252,2086 3225,2086 3215,2083 3204,2074 3192,2066 3182,2062 3147,2060 3145,2049 3144,2045 3141,2044 3138,2042 3132,2042 3129,2040 3127,2034 3127,2012 3121,2002 3118,1999 3113,1998 3112,1987 3104,1984 3104,1976 3092,1974 3089,1972 3087,1967 3091,1958 3099,1955 3098,1938 3100,1934 3105,1932 3114,1931 3114,1916 3119,1911 3119,1907 3116,1906 3105,1906 3101,1895 3088,1895 3087,1905 3070,1907 3057,1900 3051,1902 3050,1907 3051,1911 3049,1913 3041,1915 3039,1919 3039,1927 3019,1923 3019,1908 3019,1891 3013,1890 3011,1861 3010,1856 3015,1851 3024,1848 3039,1849 3067,1849 3072,1828 3080,1806 3090,1804 3095,1779 3096,1766 3123,1764 3123,1760 3135,1759 3143,1754 3136,1743 3135,1727 3132,1722 3131,1711 3122,1710 3121,1704 3123,1698 3127,1695 3134,1695 3135,1685 3144,1684 3147,1682 3147,1679 3145,1675 3139,1670 3139,1665 3146,1642 3149,1623 3155,1619 3163,1617 3168,1609 3173,1593 3174,1586 3179,1584 3185,1584 3188,1579 3189,1571 3185,1569 3178,1568 3176,1564 3175,1558 3168,1557 3163,1556 3163,1549 3164,1520 3208,1521 3215,1524 3216,1530 3211,1551 3230,1553 3231,1558 3228,1560 3226,1564 3227,1570 3232,1572 3245,1571 3247,1574 3247,1581 3262,1580 3266,1582 3270,1591 3276,1593 3293,1592 3298,1591 3301,1586 3304,1582 3311,1582 3314,1580 3314,1573 3320,1567 3332,1565 3347,1572 3363,1572 3364,1561 3368,1554 3376,1550 3383,1547 3386,1542 3390,1539 3397,1539 3400,1539 3404,1535 3407,1522 3408,1503 3409,1498 3419,1496 3422,1493 3426,1482 3430,1481 3441,1480 3467,1482 3470,1476 3472,1474 3477,1476 3486,1478 3488,1456 3482,1454 3483,1415 3502,1418 3502,1403 3506,1394 3511,1393 3561,1393 3565,1392 3566,1386 3573,1380 3594,1373 3614,1375 " class="polyStyle" id="370305" style="fill:#fbe6ef"/>
<path d="" class="polyStyle" id="140311" style="fill:#ee8b94"/>
<path d="" class="polyStyle" id="610802" style="fill:#ee8b94"/>
<path d="" class="polyStyle" id="120116" style="fill:#f6f67b"/>
<path d="" class="polyStyle" id="130303" style="fill:#fbe6ef"/>
<path d="" class="polyStyle" id="140211" style="fill:#f6f67b"/>
<path d="" class="polyStyle" id="150207" style="fill:#fbe6ef"/>
<path d="" class="polyStyle" id="211403" style="fill:#f6f67b"/>
<path d="" class="polyStyle" id="150802" style="fill:#f8c67d"/>
<path d="" class="polyStyle" id="210112" style="fill:#ee8b94"/>
<path d="" class="polyStyle" id="230406" style="fill:#d4ecb2"/>
<path d="" class="polyStyle" id="110113" style="fill:#fbe6ef"/>
<path d="" class="polyStyle" id="341702" style="fill:#fbe6ef"/>
<path d="" class="polyStyle" id="420303" style="fill:#ee8b94"/>
<path d="" class="polyStyle" id="340702" style="fill:#d4ecb2"/>
<path d="" class="polyStyle" id="421002" style="fill:#f6f67b"/>
<path d="" class="polyStyle" id="420117" style="fill:#f6f67b"/>
<path d="" class="polyStyle" id="440904" style="fill:#f8c67d"/>
<path d="" class="polyStyle" id="460205" style="fill:#ee8b94"/>
<path d="" class="polyStyle" id="460202" style="fill:#f6f67b"/>
<path d="" class="polyStyle" id="460203" style="fill:#fbe6ef"/>
<path d="" class="polyStyle" id="420304" style="fill:#f6f67b"/>
<path d="" class="polyStyle" id="445302" style="fill:#ee8b94"/>
<path d="" class="polyStyle" id="410202" style="fill:#d4ecb2"/>
<path d="" class="polyStyle" id="440800" style="fill:#f6f67b"/>
<path d="" class="polyStyle" id="440900" style="fill:#ee8b94"/>
<path d="" class="polyStyle" id="340800" style="fill:#ee8b94"/>
<path d="" class="polyStyle" id="460200" style="fill:#f6f67b"/>
<path d="" class="polyStyle" id="460000" style="fill:#ee8b94"/>
<path d="" class="polyStyle" id="450500" style="fill:#ee8b94"/>
<path d="" class="polyStyle" id="450600" style="fill:#ee8b94"/>
<path d="" class="polyStyle" id="440400" style="fill:#f6f67b"/>
<path d="" class="polyStyle" id="441700" style="fill:#f6f67b"/>
<path d="" class="polyStyle" id="441500" style="fill:#f6f67b"/>
<path d="" class="polyStyle" id="350600" style="fill:#ee8b94"/>
<path d="" class="polyStyle" id="710000" style="fill:#f6f67b"/>
<path d="" class="polyStyle" id="510400" style="fill:#f6f67b"/>
<path d="" class="polyStyle" id="522600" style="fill:#fbe6ef"/>
<path d="" class="polyStyle" id="520500" style="fill:#ee8b94"/>
<path d="" class="polyStyle" id="431200" style="fill:#f6f67b"/>
<path d="" class="polyStyle" id="430600" style="fill:#f6f67b"/>
<path d="" class="polyStyle" id="511400" style="fill:#d4ecb2"/>
<path d="" class="polyStyle" id="421000" style="fill:#ee8b94"/>
<path d="" class="polyStyle" id="341700" style="fill:#f6f67b"/>
<path d="" class="polyStyle" id="420500" style="fill:#f6f67b"/>
<path d="" class="polyStyle" id="511300" style="fill:#f6f67b"/>
<path d="" class="polyStyle" id="420900" style="fill:#f6f67b"/>
<path d="" class="polyStyle" id="511700" style="fill:#ee8b94"/>
<path d="" class="polyStyle" id="420600" style="fill:#d4ecb2"/>
<path d="" class="polyStyle" id="411500" style="fill:#fbe6ef"/>
<path d="" class="polyStyle" id="510800" style="fill:#ee8b94"/>
<path d="" class="polyStyle" id="420300" style="fill:#fbe6ef"/>
<path d="" class="polyStyle" id="611000" style="fill:#ee8b94"/>
<path d="" class="polyStyle" id="620800" style="fill:#fbe6ef"/>
<path d="" class="polyStyle" id="370200" style="fill:#ee8b94"/>
<path d="" class="polyStyle" id="371000" style="fill:#f6f67b"/>
<path d="" class="polyStyle" id="370600" style="fill:#fbe6ef"/>
<path d="" class="polyStyle" id="120000" style="fill:#f6f67b"/>
<path d="" class="polyStyle" id="130200" style="fill:#ee8b94"/>
<path d="" class="polyStyle" id="130300" style="fill:#f6f67b"/>
<path d="" class="polyStyle" id="652900" style="fill:#fbe6ef"/>
<path d="" class="polyStyle" id="150500" style="fill:#d4ecb2"/>
<path d="" class="polyStyle" id="" style="fill:#d4ecb2"/>
<path d="" class="polyStyle" id="350500" style="fill:#fbe6ef"/>
<path d="" class="polyStyle" id="440400" style="fill:#f6f67b"/>
<path d="" class="polyStyle" id="421100" style="fill:#d4ecb2"/>
<path d="" class="polyStyle" id="420100" style="fill:#fbe6ef"/>
<path d="" class="polyStyle" id="532500" style="fill:#fbe6ef"/>
<path d="" class="polyStyle" id="654200" style="fill:#fbe6ef"/>
<path d="" class="polyStyle" id="210700" style="fill:#d4ecb2"/>
<path d="" class="polyStyle" id="522300" style="fill:#fbe6ef"/>
<path d="" class="polyStyle" id="" style="fill:#ee8b94"/>
<path d="" class="polyStyle" id="440400" style="fill:#f6f67b"/>
<path d="" class="polyStyle" id="620000" style="fill:#f6f67b"/>
<path d="" class="polyStyle" id="430000" style="fill:#fbe6ef"/>
<path d="" class="polyStyle" id="420000" style="fill:#ee8b94"/>
<path d="" class="polyStyle" id="410000" style="fill:#f6f67b"/>
<path d="" class="polyStyle" id="350000" style="fill:#fbe6ef"/>
<path d="" class="polyStyle" id="520000" style="fill:#f6f67b"/>
<path d="" class="polyStyle" id="" style="fill:#ee8b94"/>
</svg>
