<?xml version="1.0" encoding="UTF-8"?>
<!DOCTYPE svg PUBLIC "-//W3C//DTD SVG 1.1 Tiny//EN" "http://www.w3.org/Graphics/SVG/1.1/DTD/svg11-tiny.dtd">
<svg version="1.1" xmlns="http://www.w3.org/2000/svg" xmlns:xlink="http://www.w3.org/1999/xlink" width="100%" height="100%" viewBox="0,0,6058,6057">
<title>SVG</title>
<desc>Poligon Test</desc>
<style id="style_css_sheet" type="text/css">
.polyStyle{fill: #cccccc;stroke-width:0;fill-rule:evenodd;}
</style>
<circle cx="2184" cy="2797" r="200" stroke="black" stroke-width="1" fill="red" id="370505" position="3"name="垦利区"/>
<circle cx="1470" cy="5481" r="200" stroke="black" stroke-width="1" fill="red" id="370523" name="广饶县"/>
<circle cx="744" cy="3265" r="200" stroke="black" stroke-width="1" fill="red" id="370522" position="44" name="利津县"/>
<circle cx="2126" cy="1288" r="200" stroke="black" stroke-width="1" fill="red" id="370503" name="河口区"/>
<circle cx="2359" cy="3490" r="200" stroke="black" stroke-width="1" fill="red" id="370502" name="东营区"/>
<path d="" class="polyStyle" id="" style="fill:#ee8b94"/>
<path d="" class="polyStyle" id="623022" style="fill:#fbe6ef"/>
<path d="" class="polyStyle" id="211421" style="fill:#f6f67b"/>
<path d="" class="polyStyle" id="532524" style="fill:#ee8b94"/>
<path d="" class="polyStyle" id="440825" style="fill:#f6f67b"/>
<path d="" class="polyStyle" id="441721" style="fill:#f6f67b"/>
<path d="" class="polyStyle" id="450521" style="fill:#f6f67b"/>
<path d="" class="polyStyle" id="450123" style="fill:#fbe6ef"/>
<path d="" class="polyStyle" id="350624" style="fill:#f6f67b"/>
<path d="" class="polyStyle" id="" style="fill:#fbe6ef"/>
<path d="" class="polyStyle" id="451224" style="fill:#fbe6ef"/>
<path d="" class="polyStyle" id="350627" style="fill:#f6f67b"/>
<path d="" class="polyStyle" id="" style="fill:#f6f67b"/>
<path d="" class="polyStyle" id="350525" style="fill:#f6f67b"/>
<path d="" class="polyStyle" id="530124" style="fill:#ee8b94"/>
<path d="" class="polyStyle" id="522627" style="fill:#ee8b94"/>
<path d="" class="polyStyle" id="510421" style="fill:#fbe6ef"/>
<path d="" class="polyStyle" id="522623" style="fill:#d4ecb2"/>
<path d="" class="polyStyle" id="430321" style="fill:#d4ecb2"/>
<path d="" class="polyStyle" id="511129" style="fill:#d4ecb2"/>
<path d="" class="polyStyle" id="511423" style="fill:#ee8b94"/>
<path d="" class="polyStyle" id="421023" style="fill:#f6f67b"/>
<path d="" class="polyStyle" id="511724" style="fill:#f6f67b"/>
<path d="" class="polyStyle" id="420526" style="fill:#fbe6ef"/>
<path d="" class="polyStyle" id="511923" style="fill:#fbe6ef"/>
<path d="" class="polyStyle" id="420325" style="fill:#fbe6ef"/>
<path d="" class="polyStyle" id="511921" style="fill:#f6f67b"/>
<path d="" class="polyStyle" id="542525" style="fill:#f6f67b"/>
<path d="" class="polyStyle" id="611026" style="fill:#ee8b94"/>
<path d="" class="polyStyle" id="411023" style="fill:#fbe6ef"/>
<path d="" class="polyStyle" id="632323" style="fill:#f6f67b"/>
<path d="" class="polyStyle" id="140525" style="fill:#d4ecb2"/>
<path d="" class="polyStyle" id="410922" style="fill:#ee8b94"/>
<path d="" class="polyStyle" id="621027" style="fill:#ee8b94"/>
<path d="" class="polyStyle" id="130427" style="fill:#f6f67b"/>
<polygon points="3985,3954 4014,3966 4026,3972 4054,3983 4076,3989 4087,3990 4104,3991 4127,3991 4144,3987 4164,3982 4193,3973 4236,3963 4261,3957 4277,3956 4274,3962 4266,3965 4199,3984 4182,3989 4210,4011 4222,4019 4251,4037 4284,4035 4303,4047 4307,4055 4309,4060 4313,4065 4317,4070 4325,4072 4330,4072 4333,4075 4332,4083 4332,4089 4338,4090 4343,4091 4345,4094 4342,4099 4345,4106 4352,4111 4367,4126 4373,4140 4371,4148 4258,4175 4072,4221 3969,4245 3927,4256 3897,4264 3868,4273 3855,4284 3843,4289 3837,4292 3829,4299 3822,4303 3816,4304 3813,4302 3814,4295 3811,4290 3805,4287 3785,4293 3775,4296 3767,4296 3733,4287 3720,4287 3715,4288 3711,4291 3702,4295 3695,4297 3688,4299 3685,4302 3679,4306 3667,4307 3658,4307 3652,4305 3643,4305 3628,4310 3612,4315 3595,4318 3562,4320 3533,4321 3530,4324 3529,4333 3528,4341 3509,4338 3486,4337 3435,4341 3391,4343 3355,4339 3340,4340 3331,4342 3297,4358 3273,4373 3239,4391 3214,4405 3159,4435 3124,4456 3117,4459 3083,4478 3063,4486 3059,4488 3056,4489 3052,4491 3049,4492 3045,4494 3042,4495 3039,4496 3034,4498 3021,4506 3013,4514 3007,4518 2997,4530 2976,4541 2962,4547 2942,4552 2926,4559 2921,4560 2918,4561 2914,4563 2911,4565 2907,4566 2904,4567 2901,4568 2898,4569 2894,4570 2891,4571 2887,4572 2884,4573 2880,4574 2877,4575 2873,4578 2870,4579 2866,4581 2863,4584 2859,4586 2856,4588 2852,4589 2849,4591 2846,4592 2827,4596 2822,4597 2818,4596 2815,4600 2815,4605 2818,4612 2830,4623 2833,4628 2831,4636 2821,4644 2812,4653 2806,4667 2803,4694 2801,4713 2803,4720 2806,4725 2804,4727 2786,4728 2779,4733 2778,4738 2782,4746 2781,4751 2766,4764 2748,4776 2745,4782 2744,4792 2742,4799 2738,4800 2718,4791 2714,4792 2713,4795 2711,4803 2698,4796 2690,4797 2687,4800 2673,4840 2663,4855 2656,4869 2641,4869 2634,4877 2631,4883 2621,4887 2614,4889 2611,4890 2611,4895 2612,4906 2623,4932 2631,4938 2644,4943 2658,4945 2667,4943 2674,4938 2676,4930 2678,4924 2685,4922 2693,4922 2698,4925 2696,4945 2704,4949 2705,4952 2704,4965 2701,4974 2697,4979 2697,4985 2699,4989 2769,5021 2774,5021 2778,5018 2780,5014 2788,5013 2799,5016 2803,5019 2805,5023 2805,5032 2797,5061 2792,5093 2789,5120 2794,5130 2803,5132 2806,5135 2804,5150 2800,5159 2776,5177 2775,5185 2777,5199 2782,5218 2782,5227 2778,5234 2773,5235 2764,5233 2760,5235 2757,5240 2757,5250 2759,5268 2764,5280 2780,5284 2783,5286 2783,5297 2777,5308 2773,5321 2767,5329 2737,5328 2727,5329 2721,5332 2717,5347 2712,5352 2702,5354 2688,5353 2685,5356 2685,5360 2686,5366 2682,5371 2676,5374 2667,5375 2654,5377 2649,5379 2650,5389 2618,5386 2609,5389 2606,5391 2604,5395 2600,5409 2579,5408 2527,5416 2521,5424 2503,5431 2497,5430 2491,5424 2486,5421 2478,5420 2465,5420 2460,5422 2451,5426 2446,5425 2438,5411 2433,5405 2408,5400 2370,5403 2362,5404 2351,5409 2342,5417 2336,5420 2319,5421 2301,5419 2273,5416 2268,5416 2264,5418 2259,5419 2250,5424 2247,5439 2244,5446 2235,5458 2232,5466 2237,5495 2248,5517 2246,5536 2244,5545 2241,5546 2227,5537 2215,5534 2207,5536 2204,5540 2203,5545 2186,5544 2175,5546 2172,5557 2176,5573 2168,5593 2167,5599 2168,5611 2175,5618 2187,5619 2211,5617 2218,5617 2295,5630 2311,5638 2333,5639 2354,5650 2374,5650 2371,5672 2369,5684 2370,5695 2375,5704 2385,5711 2393,5717 2398,5723 2395,5732 2370,5730 2338,5721 2323,5716 2308,5716 2292,5704 2285,5704 2282,5706 2278,5726 2275,5733 2276,5739 2285,5746 2309,5755 2317,5752 2318,5748 2321,5745 2328,5744 2341,5747 2345,5749 2347,5752 2349,5756 2348,5760 2343,5764 2337,5765 2293,5766 2271,5765 2259,5764 2254,5764 2250,5760 2236,5738 2231,5734 2222,5735 2212,5738 2210,5743 2207,5768 2203,5835 2213,5841 2230,5842 2235,5843 2238,5847 2238,5861 2232,5886 2228,5904 2224,5912 2220,5915 2217,5920 2230,5928 2234,5933 2234,5952 2243,5958 2248,5964 2250,5976 2249,5979 2249,5987 2245,6003 2233,6002 2224,6007 2220,6016 2213,6017 2211,6020 2212,6025 2215,6028 2218,6034 2217,6046 2194,6047 2183,6051 2180,6053 2171,6054 2157,6053 2136,6057 2127,6054 2119,6048 2089,6047 2080,6039 2075,6031 2073,6023 2072,6018 2067,6015 2057,6013 2051,6014 2043,6018 2018,6021 2011,6023 2000,6023 1971,6018 1959,6017 1959,5980 1927,5978 1925,5972 1908,5967 1890,5967 1876,5957 1844,5954 1826,5956 1814,5964 1799,5987 1780,6003 1772,6018 1771,6029 1768,6033 1754,6033 1749,6030 1754,6016 1752,6012 1747,6010 1741,6010 1737,6012 1734,6016 1729,6026 1720,6030 1706,6031 1673,6028 1622,6020 1555,6021 1548,6025 1544,6030 1541,6034 1535,6035 1476,6034 1467,6030 1459,6024 1451,6012 1448,5997 1445,5993 1433,5995 1403,6008 1371,5986 1385,5975 1375,5966 1372,5961 1372,5958 1379,5923 1372,5907 1367,5895 1365,5883 1365,5877 1363,5873 1355,5870 1301,5874 1265,5876 1220,5870 1196,5872 1195,5904 1162,5928 1158,5938 1129,5936 1077,5924 1051,5901 1048,5870 1036,5868 1030,5869 1022,5879 989,5888 948,5892 944,5901 939,5905 923,5905 908,5902 895,5891 891,5882 892,5862 906,5864 906,5842 891,5763 888,5755 883,5749 882,5738 891,5706 893,5701 897,5697 912,5695 914,5689 919,5683 927,5677 938,5658 942,5657 944,5654 945,5651 950,5651 969,5651 979,5646 988,5626 994,5607 995,5603 999,5601 1005,5599 1012,5600 1020,5600 1032,5596 1053,5584 1078,5554 1076,5548 1068,5537 1065,5528 1067,5514 1074,5507 1093,5495 1107,5495 1115,5483 1130,5475 1130,5464 1128,5456 1120,5444 1119,5438 1120,5435 1126,5429 1128,5406 1128,5374 1125,5365 1115,5355 1111,5347 1110,5334 1111,5328 1119,5323 1125,5317 1126,5307 1130,5300 1134,5299 1151,5297 1154,5295 1156,5291 1158,5278 1140,5273 1141,5261 1132,5255 1131,5239 1127,5236 1114,5235 1114,5223 1135,5222 1142,5225 1146,5232 1150,5236 1153,5236 1155,5233 1157,5230 1161,5230 1178,5234 1186,5234 1191,5225 1190,5213 1186,5206 1173,5195 1171,5189 1171,5185 1173,5182 1175,5168 1159,5154 1147,5155 1136,5141 1134,5133 1138,5128 1145,5128 1158,5129 1169,5127 1174,5124 1175,5117 1174,5112 1171,5112 1156,5114 1148,5085 1159,5079 1173,5072 1174,5062 1179,5053 1187,5047 1196,5047 1219,5050 1225,5049 1226,5042 1231,5026 1239,5018 1260,5004 1281,5012 1283,5000 1288,4995 1294,4996 1299,4998 1304,4997 1308,4972 1336,4971 1336,4912 1340,4896 1349,4875 1353,4872 1360,4872 1361,4864 1362,4859 1366,4856 1380,4857 1380,4842 1377,4835 1368,4832 1363,4828 1361,4822 1361,4800 1356,4793 1346,4789 1347,4762 1345,4757 1335,4761 1330,4761 1328,4752 1328,4733 1326,4722 1322,4716 1312,4714 1304,4712 1299,4708 1283,4700 1259,4688 1251,4636 1249,4633 1245,4633 1236,4640 1230,4643 1221,4642 1191,4601 1212,4586 1205,4581 1189,4586 1184,4587 1180,4585 1177,4583 1176,4579 1192,4536 1196,4529 1202,4526 1231,4525 1237,4523 1243,4518 1248,4511 1251,4503 1265,4470 1282,4469 1283,4454 1319,4456 1318,4436 1392,4434 1397,4421 1399,4385 1429,4385 1434,4380 1431,4372 1431,4365 1432,4360 1450,4360 1455,4355 1457,4349 1458,4336 1468,4334 1476,4334 1480,4329 1473,4322 1470,4316 1469,4308 1475,4295 1479,4289 1484,4285 1488,4282 1493,4282 1494,4286 1493,4297 1503,4297 1510,4283 1526,4268 1541,4260 1558,4254 1557,4260 1554,4265 1551,4270 1552,4277 1555,4280 1559,4280 1561,4277 1569,4268 1583,4270 1589,4264 1598,4247 1621,4246 1640,4244 1658,4241 1675,4236 1654,4285 1661,4290 1703,4289 1730,4228 1749,4229 1764,4230 1792,4230 1788,4249 1798,4251 1829,4250 1837,4241 1841,4240 1870,4242 1989,4263 1991,4261 1992,4254 1993,4229 1994,4218 1997,4214 2033,4217 2048,4216 2056,4218 2059,4223 2060,4232 2060,4269 2071,4271 2113,4269 2136,4272 2155,4281 2168,4293 2184,4316 2193,4327 2198,4281 2206,4278 2209,4276 2210,4273 2215,4245 2253,4217 2255,4212 2255,4203 2255,4166 2276,4164 2279,4159 2279,4154 2278,4130 2307,4134 2339,4144 2339,4184 2340,4207 2343,4216 2360,4218 2383,4218 2422,4215 2421,4160 2442,4163 2456,4167 2457,4186 2615,4185 2628,4182 2632,4158 2641,4135 2737,4088 2752,4091 2759,4093 2766,4100 2771,4108 2774,4110 2777,4113 2781,4114 2818,4115 2835,4113 2830,4103 2822,4095 2808,4094 2805,4093 2803,4090 2807,4084 2814,4082 2822,4082 2841,4081 2829,4065 2853,4067 2869,4057 2908,4059 2919,4057 2924,4054 2934,4051 2944,4052 2951,4057 2958,4058 3026,4056 3050,4093 3084,4129 3087,4129 3114,4128 3142,4125 3173,4107 3190,4101 3205,4101 3216,4102 3226,4102 3235,4101 3244,4100 3257,4099 3285,4095 3308,4093 3329,4093 3348,4095 3367,4097 3388,4100 3401,4101 3413,4100 3434,4096 3457,4092 3478,4092 3505,4093 3512,4092 3523,4088 3539,4083 3551,4081 3570,4079 3601,4079 3618,4078 3693,4075 3701,4078 3721,4084 3729,4085 3741,4087 3746,4087 3754,4087 3765,4085 3776,4082 3790,4083 3798,4084 3810,4088 3821,4094 3827,4097 3832,4097 3837,4097 3842,4095 3849,4091 3854,4083 3865,4064 3871,4053 3877,4047 3885,4042 3897,4038 3918,4030 3929,4025 3937,4020 3944,4013 3951,3999 3955,3992 3956,3985 3957,3971 3957,3964 3957,3960 3959,3956 3966,3950 3972,3946 3976,3950 " class="polyStyle" id="370523" style="fill:#d4ecb2"/>
<polygon points="1883,1516 1887,1521 1889,1527 1892,1534 1900,1539 1910,1540 1921,1538 1948,1533 1955,1535 1964,1541 1965,1550 1974,1558 1975,1567 2002,1636 1994,1645 1991,1652 1990,1661 1991,1664 1996,1670 2013,1681 2013,1684 2007,1684 1996,1683 1992,1685 1990,1688 1988,1694 1989,1699 1991,1703 1995,1705 2003,1706 2009,1709 2012,1711 2013,1714 2008,1715 1994,1715 1991,1717 1990,1720 1991,1729 1988,1733 1974,1735 1970,1741 1968,1750 1962,1753 1947,1750 1943,1753 1941,1757 1943,1761 1947,1764 1959,1766 1968,1765 1971,1767 1967,1775 1972,1782 1977,1785 1988,1782 1993,1779 1994,1776 1991,1767 1994,1763 2006,1760 2013,1765 2018,1787 2026,1797 2033,1801 2047,1799 2054,1793 2051,1782 2060,1777 2068,1777 2079,1783 2086,1785 2103,1784 2110,1782 2114,1779 2121,1773 2126,1773 2134,1774 2141,1769 2157,1757 2168,1754 2181,1740 2192,1738 2208,1739 2218,1734 2232,1733 2248,1735 2263,1741 2271,1747 2271,1750 2263,1758 2268,1763 2280,1766 2286,1764 2293,1757 2301,1753 2312,1752 2320,1754 2327,1753 2340,1753 2347,1758 2349,1769 2352,1772 2357,1773 2362,1771 2379,1764 2394,1761 2392,1779 2393,1787 2405,1789 2434,1788 2438,1763 2437,1756 2432,1755 2415,1760 2409,1760 2407,1732 2408,1728 2413,1727 2459,1729 2470,1730 2475,1726 2478,1716 2478,1704 2478,1695 2481,1685 2508,1618 2514,1609 2520,1607 2529,1608 2534,1615 2541,1633 2548,1644 2558,1652 2574,1657 2586,1660 2595,1667 2604,1676 2611,1686 2618,1688 2629,1687 2638,1681 2645,1671 2644,1668 2638,1664 2633,1657 2629,1646 2630,1613 2631,1609 2634,1606 2643,1600 2671,1600 2703,1605 2743,1629 2762,1643 2769,1653 2767,1661 2760,1673 2764,1678 2769,1681 2827,1695 2872,1711 2872,1715 2872,1718 2869,1722 2867,1726 2866,1729 2864,1732 2860,1739 2858,1742 2856,1746 2847,1754 2838,1766 2831,1785 2830,1789 2829,1792 2827,1796 2826,1800 2825,1803 2825,1806 2825,1809 2823,1813 2822,1817 2821,1820 2820,1823 2847,1840 2942,1900 2949,1905 2888,1941 2891,1943 2914,1958 2942,1977 2946,1976 2955,1970 2959,1971 2977,1974 2980,1975 2983,1989 2989,1989 2999,1988 3001,1998 2999,2019 2994,2039 2970,2039 2955,2041 2943,2044 2925,2052 2875,2083 2859,2094 2847,2107 2814,2155 2764,2234 2730,2296 2696,2346 2639,2426 2619,2448 2597,2467 2566,2485 2481,2522 2395,2557 2355,2577 2244,2643 2166,2692 2123,2715 2095,2731 2082,2735 2057,2734 1973,2717 1841,2695 1791,2682 1725,2675 1689,2671 1645,2671 1593,2675 1508,2686 1441,2703 1398,2711 1367,2716 1347,2721 1308,2730 1292,2731 1207,2747 1158,2757 1140,2764 1129,2772 1122,2785 1098,2845 1073,2926 1047,2994 1028,3033 1018,3049 1012,3072 998,3167 995,3196 984,3209 981,3210 935,3230 909,3246 866,3268 859,3272 830,3290 800,3320 792,3331 762,3383 718,3455 710,3472 702,3484 701,3487 647,3604 637,3637 634,3657 632,3678 630,3691 644,3744 645,3748 647,3760 647,3770 645,3778 640,3783 628,3789 611,3794 580,3804 548,3811 525,3816 521,3812 515,3812 507,3815 418,3845 340,3880 244,3930 235,3916 224,3917 219,3914 216,3907 218,3903 225,3899 222,3887 223,3882 232,3881 234,3878 231,3875 224,3875 220,3868 218,3860 218,3854 221,3851 218,3846 210,3849 201,3852 181,3855 163,3855 150,3858 141,3857 132,3836 120,3834 118,3821 123,3810 135,3796 139,3791 141,3795 144,3799 149,3800 148,3788 151,3782 157,3780 161,3784 166,3795 177,3796 178,3781 206,3781 216,3779 225,3780 229,3783 234,3791 246,3792 246,3774 247,3753 246,3729 249,3725 254,3727 257,3727 261,3723 264,3711 269,3709 271,3705 271,3700 268,3699 264,3698 261,3691 257,3682 258,3677 264,3671 263,3664 264,3660 268,3655 275,3653 286,3653 284,3640 264,3645 257,3646 247,3644 244,3643 243,3638 241,3629 238,3624 234,3618 235,3614 238,3611 239,3604 250,3601 254,3597 253,3593 246,3590 238,3588 229,3590 222,3590 218,3583 214,3577 206,3575 201,3573 201,3563 200,3557 194,3555 181,3549 176,3545 166,3544 152,3542 146,3538 140,3537 123,3537 117,3539 113,3547 110,3548 103,3546 101,3543 93,3544 82,3548 74,3549 57,3548 50,3545 43,3543 33,3543 22,3548 19,3548 17,3545 17,3540 21,3531 21,3526 19,3520 11,3512 12,3509 20,3500 20,3497 15,3495 28,3478 29,3466 45,3465 55,3469 63,3446 40,3438 12,3430 1,3423 0,3410 3,3394 8,3390 28,3387 33,3383 34,3373 35,3355 38,3344 46,3340 64,3336 64,3325 79,3325 78,3317 63,3316 59,3313 63,3310 73,3310 83,3307 84,3300 82,3284 100,3278 107,3269 113,3257 107,3245 108,3239 113,3236 119,3234 120,3229 115,3216 116,3209 118,3205 121,3203 133,3200 136,3189 135,3176 132,3173 123,3171 122,3167 124,3161 128,3161 133,3160 138,3155 148,3147 163,3135 179,3111 190,3102 199,3095 202,3093 209,3094 219,3094 229,3091 233,3088 234,3080 236,3072 237,3069 240,3067 244,3063 246,3054 250,3046 256,3042 262,3040 265,3034 267,3029 272,3026 286,3027 290,3025 293,3018 296,3015 302,3014 309,3012 310,3008 309,3005 304,3002 299,2998 298,2995 297,2987 300,2981 305,2978 312,2979 318,2977 320,2973 318,2968 320,2961 324,2954 324,2949 314,2932 308,2927 299,2928 278,2935 262,2948 257,2949 253,2946 252,2943 250,2935 250,2930 248,2927 242,2924 236,2925 223,2935 218,2938 215,2942 209,2951 176,2951 169,2960 162,2964 153,2963 149,2957 144,2950 135,2950 124,2957 114,2954 112,2951 112,2946 114,2919 117,2906 121,2901 131,2902 137,2899 140,2893 140,2889 137,2885 110,2888 95,2886 89,2881 86,2876 83,2860 84,2838 86,2830 91,2820 96,2816 101,2810 119,2795 124,2794 145,2793 177,2784 182,2781 185,2775 185,2765 181,2754 180,2742 183,2734 188,2731 195,2734 199,2734 209,2726 221,2710 228,2699 230,2692 227,2642 228,2630 232,2625 237,2625 247,2630 250,2629 251,2625 248,2621 241,2617 231,2617 223,2614 222,2611 223,2606 227,2603 239,2603 247,2600 262,2589 269,2583 271,2580 271,2575 272,2568 276,2562 280,2553 279,2545 276,2537 276,2528 278,2524 282,2523 298,2522 315,2516 320,2499 326,2463 330,2459 343,2460 348,2459 351,2451 354,2446 365,2440 373,2439 388,2443 399,2443 418,2437 432,2429 437,2419 442,2415 447,2413 450,2414 453,2415 457,2420 471,2430 480,2435 488,2437 492,2436 494,2433 495,2424 496,2420 499,2418 510,2415 514,2415 517,2417 519,2420 519,2424 520,2429 525,2430 533,2439 539,2441 562,2431 567,2431 571,2433 576,2436 582,2443 590,2449 602,2450 617,2443 626,2445 630,2449 631,2456 633,2459 637,2461 643,2463 647,2462 659,2458 667,2456 683,2456 687,2458 691,2467 695,2470 703,2472 730,2475 748,2472 767,2464 794,2450 812,2444 825,2443 844,2446 855,2443 866,2432 886,2406 890,2403 903,2403 909,2401 919,2389 922,2384 923,2378 922,2375 916,2369 915,2363 918,2357 923,2354 936,2353 939,2343 944,2337 951,2333 965,2330 974,2324 977,2321 977,2316 972,2306 971,2299 973,2294 983,2292 991,2287 996,2277 995,2269 989,2259 986,2248 986,2240 989,2232 996,2225 1008,2223 1015,2218 1020,2202 1021,2194 1019,2185 1020,2180 1024,2174 1030,2174 1035,2179 1040,2179 1043,2177 1045,2173 1044,2166 1041,2160 1033,2140 1032,2118 1032,2109 1034,2102 1040,2099 1050,2101 1073,2101 1101,2098 1119,2099 1123,2098 1127,2090 1128,2069 1130,2038 1133,2035 1145,2034 1149,2033 1153,2029 1154,2020 1150,2011 1145,2007 1141,2003 1143,1997 1147,1990 1147,1983 1147,1977 1149,1972 1151,1967 1155,1963 1163,1960 1170,1964 1170,1971 1161,1985 1157,1993 1156,2003 1158,2006 1165,2008 1182,2007 1212,1985 1215,1980 1215,1974 1211,1953 1208,1946 1205,1944 1192,1943 1179,1942 1168,1938 1159,1930 1148,1912 1146,1904 1149,1888 1153,1884 1164,1881 1171,1878 1172,1872 1169,1868 1161,1865 1154,1861 1153,1853 1155,1846 1160,1841 1168,1827 1179,1800 1186,1790 1201,1780 1221,1773 1229,1779 1231,1788 1231,1791 1234,1792 1240,1786 1241,1782 1246,1781 1248,1778 1250,1767 1246,1747 1334,1746 1353,1746 1363,1749 1363,1758 1366,1761 1423,1763 1470,1761 1495,1760 1506,1758 1510,1744 1516,1731 1517,1713 1519,1706 1523,1702 1528,1700 1543,1694 1547,1691 1548,1687 1548,1677 1550,1675 1565,1671 1570,1669 1572,1666 1574,1660 1578,1659 1586,1659 1591,1656 1595,1652 1596,1643 1593,1617 1586,1607 1584,1601 1589,1594 1605,1585 1627,1584 1637,1580 1646,1579 1661,1582 1675,1588 1679,1591 1676,1595 1671,1602 1671,1609 1679,1612 1692,1610 1703,1603 1706,1598 1704,1592 1698,1591 1697,1589 1702,1583 1721,1563 1752,1537 1765,1531 1778,1532 1804,1534 1838,1509 1851,1516 " class="polyStyle" id="370522" style="fill:#ee8b94"/>
<polygon points="4489,985 4577,987 4626,988 4627,995 4627,998 4662,1014 4686,1026 4771,1070 4773,1073 4773,1093 4807,1106 4808,1109 4841,1121 4859,1130 4874,1139 4877,1140 4905,1167 4913,1174 4914,1176 4916,1188 4917,1196 4919,1213 4920,1216 4921,1231 4924,1245 4925,1258 4927,1271 4927,1278 4928,1283 4929,1289 4930,1299 4933,1301 4931,1303 4934,1320 4934,1330 4937,1340 4937,1344 4938,1365 4942,1393 4943,1402 4950,1455 4950,1458 4953,1477 4937,1509 4934,1512 4922,1522 4913,1529 4891,1547 4889,1549 4893,1552 4889,1554 4887,1556 4887,1559 4890,1561 4894,1561 4900,1561 4909,1557 4917,1553 4925,1552 4934,1551 4942,1550 4946,1551 4950,1555 4951,1559 4949,1563 4949,1566 4951,1570 4955,1576 4955,1580 4955,1584 4955,1588 4956,1596 4957,1599 4959,1602 4964,1603 4965,1599 4967,1592 4971,1585 4973,1581 4978,1579 4987,1576 4993,1573 4997,1574 5008,1581 5023,1593 5028,1596 5043,1607 5050,1620 5052,1624 5059,1629 5070,1637 5084,1647 5101,1651 5120,1661 5142,1674 5172,1689 5184,1694 5180,1698 5149,1700 5125,1703 5115,1708 5121,1708 5143,1706 5164,1707 5189,1715 5204,1722 5244,1731 5262,1731 5286,1734 5294,1734 5299,1740 5306,1739 5310,1737 5317,1729 5323,1726 5348,1724 5354,1722 5367,1700 5382,1678 5387,1665 5386,1655 5379,1648 5372,1642 5363,1635 5358,1626 5366,1625 5371,1624 5387,1631 5397,1644 5406,1650 5417,1647 5440,1636 5458,1631 5476,1626 5487,1623 5503,1618 5507,1617 5518,1614 5537,1609 5550,1613 5558,1622 5568,1634 5571,1643 5578,1637 5581,1624 5588,1617 5594,1617 5599,1619 5600,1628 5605,1634 5616,1630 5639,1620 5642,1620 5654,1620 5661,1622 5677,1624 5690,1629 5701,1632 5705,1636 5708,1639 5722,1662 5728,1670 5720,1684 5706,1698 5692,1714 5681,1727 5682,1735 5700,1723 5729,1714 5742,1714 5763,1713 5790,1707 5835,1705 5871,1709 5915,1715 5938,1718 5950,1724 5962,1734 5972,1739 5984,1737 5994,1730 6005,1734 6024,1744 6038,1754 6046,1769 6050,1796 6055,1821 6058,1837 6045,1851 6025,1863 6023,1870 6018,1881 5997,1884 5978,1896 5956,1901 5936,1905 5899,1907 5886,1913 5864,1930 5849,1938 5827,1947 5810,1946 5811,1949 5817,1960 5808,1976 5780,1997 5764,2003 5754,2005 5728,2005 5700,2007 5697,2010 5694,2016 5693,2022 5696,2026 5700,2027 5704,2027 5711,2029 5712,2032 5709,2038 5713,2043 5730,2047 5750,2050 5748,2053 5740,2055 5722,2055 5720,2060 5717,2070 5728,2089 5743,2103 5747,2105 5755,2108 5777,2132 5781,2136 5815,2178 5848,2221 5873,2265 5883,2288 5889,2299 5893,2308 5891,2315 5887,2320 5891,2325 5895,2333 5896,2345 5896,2365 5895,2376 5893,2396 5891,2414 5890,2420 5889,2440 5885,2460 5882,2466 5880,2469 5877,2476 5872,2482 5869,2486 5862,2492 5844,2509 5841,2511 5837,2513 5824,2519 5814,2521 5808,2521 5795,2522 5777,2520 5752,2512 5735,2503 5697,2493 5672,2487 5634,2485 5621,2484 5598,2483 5593,2483 5568,2481 5526,2483 5496,2485 5481,2487 5476,2492 5474,2495 5470,2503 5465,2506 5457,2505 5453,2503 5446,2505 5443,2503 5439,2499 5437,2493 5433,2494 5429,2497 5422,2504 5412,2511 5401,2516 5393,2516 5385,2512 5379,2508 5375,2505 5373,2499 5370,2493 5366,2489 5359,2484 5353,2480 5349,2482 5344,2484 5347,2490 5348,2494 5348,2498 5348,2503 5346,2509 5342,2515 5337,2518 5326,2521 5316,2523 5298,2520 5280,2517 5269,2515 5250,2516 5228,2516 5204,2524 5183,2530 5155,2533 5138,2534 5125,2536 5111,2539 5092,2547 5053,2561 5010,2573 4987,2578 4972,2578 4963,2575 4957,2569 4944,2556 4919,2522 4898,2497 4893,2475 4894,2464 4901,2448 4900,2443 4900,2440 4899,2437 4892,2437 4872,2438 4862,2440 4859,2440 4855,2446 4859,2500 4865,2517 4868,2535 4863,2544 4857,2549 4845,2549 4833,2546 4824,2548 4806,2556 4782,2566 4762,2571 4744,2568 4737,2562 4724,2549 4718,2538 4713,2521 4712,2503 4706,2497 4698,2488 4687,2489 4664,2509 4643,2526 4613,2542 4593,2554 4569,2571 4541,2590 4519,2608 4503,2623 4486,2637 4472,2647 4445,2680 4443,2685 4382,2793 4362,2828 4341,2836 4331,2840 4325,2845 4313,2854 4279,2938 4240,3034 4220,3064 4210,3072 4200,3081 4198,3092 4196,3101 4201,3139 4196,3192 4194,3213 4196,3238 4202,3270 4187,3282 4162,3295 4135,3290 4120,3290 4109,3281 4103,3283 4088,3282 4080,3287 4070,3295 4061,3291 4047,3287 4033,3287 3988,3282 3969,3285 3953,3290 3946,3295 3924,3302 3883,3299 3867,3301 3854,3307 3830,3314 3816,3322 3804,3324 3799,3323 3804,3365 3789,3366 3789,3383 3782,3386 3767,3386 3724,3374 3676,3364 3604,3349 3560,3340 3508,3327 3467,3320 3426,3320 3401,3320 3394,3320 3388,3318 3383,3313 3380,3304 3377,3297 3371,3294 3314,3274 3283,3275 3246,3275 3219,3268 3203,3265 3194,3268 3184,3279 3175,3295 3170,3302 3164,3304 3156,3302 3138,3294 3112,3277 3091,3265 3054,3253 3035,3248 3026,3242 3022,3235 3020,3223 3013,3212 3006,3207 2997,3204 2982,3203 2966,3207 2947,3207 2901,3258 2887,3270 2881,3273 2856,3257 2847,3254 2843,3254 2836,3257 2813,3277 2802,3282 2797,3282 2793,3280 2788,3273 2787,3269 2789,3265 2793,3263 2802,3264 2808,3261 2809,3255 2804,3248 2795,3245 2766,3248 2761,3247 2760,3240 2759,3229 2756,3220 2748,3215 2732,3212 2708,3204 2709,3176 2654,3176 2401,3177 2275,3177 2128,3178 2128,3172 2126,3167 2120,3160 2123,3156 2131,3154 2145,3156 2154,3159 2158,3160 2161,3158 2159,3139 2143,3133 2136,3128 2123,3132 2117,3128 2110,3120 2092,3119 2086,3117 2084,3114 2083,3108 2087,3096 2086,3093 2082,3090 2077,3087 2072,3087 2065,3092 2055,3103 2052,3106 2049,3106 2015,3089 1996,3083 1983,3078 1975,3073 1962,3066 1949,3067 1942,3062 1930,3061 1916,3073 1905,3065 1897,3063 1888,3066 1886,3070 1888,3084 1880,3093 1872,3098 1860,3099 1850,3102 1834,3110 1825,3118 1822,3130 1821,3152 1818,3166 1812,3180 1807,3184 1799,3187 1790,3188 1785,3191 1783,3199 1785,3219 1785,3222 1782,3226 1777,3230 1773,3231 1763,3229 1760,3222 1757,3217 1749,3216 1716,3215 1710,3217 1701,3224 1696,3225 1689,3220 1684,3221 1682,3226 1685,3235 1682,3239 1667,3244 1664,3246 1663,3249 1665,3256 1666,3260 1663,3263 1623,3283 1611,3294 1605,3302 1607,3317 1606,3325 1608,3331 1612,3334 1621,3337 1642,3341 1670,3342 1673,3342 1676,3345 1678,3350 1678,3357 1679,3372 1682,3381 1676,3392 1674,3416 1662,3423 1660,3441 1655,3447 1647,3450 1633,3459 1633,3489 1611,3502 1610,3509 1602,3518 1601,3522 1604,3534 1603,3537 1596,3537 1594,3540 1595,3551 1600,3556 1611,3561 1632,3570 1636,3575 1637,3582 1628,3612 1634,3619 1644,3624 1647,3626 1648,3629 1648,3633 1643,3639 1640,3647 1635,3655 1631,3658 1628,3658 1618,3652 1607,3642 1597,3635 1582,3630 1569,3624 1564,3615 1562,3609 1557,3609 1516,3609 1513,3597 1511,3589 1508,3585 1484,3585 1484,3606 1465,3606 1446,3598 1410,3591 1402,3589 1401,3582 1400,3569 1393,3560 1384,3557 1372,3556 1360,3581 1355,3594 1340,3594 1337,3605 1303,3605 1278,3606 1270,3610 1268,3614 1272,3639 1258,3649 1249,3650 1208,3653 1196,3653 1187,3651 1182,3649 1178,3650 1147,3651 1139,3652 1136,3654 1128,3663 1122,3666 1115,3667 1100,3664 1079,3658 1060,3652 1044,3649 1006,3648 998,3647 992,3644 981,3633 949,3601 943,3597 935,3596 932,3586 927,3580 921,3578 917,3577 918,3573 917,3567 911,3565 901,3567 879,3560 876,3557 876,3552 876,3544 869,3544 867,3547 864,3553 860,3555 848,3554 837,3550 834,3546 837,3542 839,3540 839,3533 803,3523 802,3510 798,3498 794,3492 789,3489 773,3488 769,3487 766,3484 755,3472 747,3463 740,3459 735,3459 732,3464 729,3469 725,3471 710,3472 718,3455 762,3383 792,3331 800,3320 830,3290 859,3272 866,3268 909,3246 935,3230 981,3210 984,3209 995,3196 998,3167 1012,3072 1018,3049 1028,3033 1047,2994 1073,2926 1098,2845 1122,2785 1129,2772 1140,2764 1158,2757 1207,2747 1292,2731 1308,2730 1347,2721 1367,2716 1398,2711 1441,2703 1508,2686 1593,2675 1645,2671 1689,2671 1725,2675 1791,2682 1841,2695 1973,2717 2057,2734 2082,2735 2095,2731 2123,2715 2166,2692 2244,2643 2355,2577 2395,2557 2481,2522 2566,2485 2597,2467 2619,2448 2639,2426 2696,2346 2730,2296 2764,2234 2814,2155 2847,2107 2859,2094 2875,2083 2925,2052 2943,2044 2955,2041 2970,2039 2994,2039 2999,2019 3001,1998 2999,1988 2989,1989 2983,1989 2980,1975 2977,1974 2959,1971 2955,1970 2946,1976 2942,1977 2914,1958 2891,1943 2888,1941 2949,1905 2956,1901 3055,1847 3065,1840 3156,1800 3211,1780 3282,1749 3317,1738 3378,1714 3418,1690 3476,1646 3634,1532 3722,1467 3903,1424 3918,1417 3963,1391 3995,1371 4062,1300 4157,1200 4233,1122 4353,1004 4365,995 4378,988 4389,985 4411,984 4481,985 " class="polyStyle" id="370521" style="fill:#f6f67b"/>
<path d="" class="polyStyle" id="130121" style="fill:#ee8b94"/>
<path d="" class="polyStyle" id="610823" style="fill:#fbe6ef"/>
<path d="" class="polyStyle" id="130225" style="fill:#fbe6ef"/>
<path d="" class="polyStyle" id="130322" style="fill:#d4ecb2"/>
<path d="" class="polyStyle" id="653130" style="fill:#f6f67b"/>
<path d="" class="polyStyle" id="130822" style="fill:#fbe6ef"/>
<path d="" class="polyStyle" id="211221" style="fill:#f6f67b"/>
<path d="" class="polyStyle" id="210921" style="fill:#f6f67b"/>
<path d="" class="polyStyle" id="150223" style="fill:#f8c67d"/>
<path d="" class="polyStyle" id="220422" style="fill:#d4ecb2"/>
<path d="" class="polyStyle" id="340721" style="fill:#f6f67b"/>
<path d="" class="polyStyle" id="510824" style="fill:#d4ecb2"/>
<path d="" class="polyStyle" id="610324" style="fill:#f6f67b"/>
<path d="" class="polyStyle" id="530722" style="fill:#ee8b94"/>
<path d="" class="polyStyle" id="340823" style="fill:#d4ecb2"/>
<path d="" class="polyStyle" id="620825" style="fill:#d4ecb2"/>
<path d="" class="polyStyle" id="421125" style="fill:#ee8b94"/>
<path d="" class="polyStyle" id="210281" style="fill:#ee8b94"/>
<path d="" class="polyStyle" id="440883" style="fill:#f6f67b"/>
<path d="" class="polyStyle" id="469006" style="fill:#d4ecb2"/>
<path d="" class="polyStyle" id="469002" style="fill:#ee8b94"/>
<path d="" class="polyStyle" id="469005" style="fill:#fbe6ef"/>
<path d="" class="polyStyle" id="440882" style="fill:#ee8b94"/>
<path d="" class="polyStyle" id="450681" style="fill:#ee8b94"/>
<path d="" class="polyStyle" id="441581" style="fill:#d4ecb2"/>
<path d="" class="polyStyle" id="421087" style="fill:#ee8b94"/>
<path d="" class="polyStyle" id="420984" style="fill:#fbe6ef"/>
<path d="" class="polyStyle" id="420582" style="fill:#ee8b94"/>
<path d="" class="polyStyle" id="370282" style="fill:#f6f67b"/>
<path d="" class="polyStyle" id="371083" style="fill:#f6f67b"/>
<path d="" class="polyStyle" id="371082" style="fill:#fbe6ef"/>
<path d="" class="polyStyle" id="652801" style="fill:#f8c67d"/>
<path d="" class="polyStyle" id="654301" style="fill:#ee8b94"/>
<path d="" class="polyStyle" id="370687" style="fill:#ee8b94"/>
<path d="" class="polyStyle" id="371482" style="fill:#d4ecb2"/>
<path d="" class="polyStyle" id="421081" style="fill:#fbe6ef"/>
<path d="" class="polyStyle" id="429006" style="fill:#f6f67b"/>
<path d="" class="polyStyle" id="440982" style="fill:#d4ecb2"/>
<path d="" class="polyStyle" id="421181" style="fill:#d4ecb2"/>
<path d="" class="polyStyle" id="321181" style="fill:#d4ecb2"/>
<path d="" class="polyStyle" id="659007" style="fill:#ee8b94"/>
<path d="" class="polyStyle" id="652701" style="fill:#fbe6ef"/>
<path d="" class="polyStyle" id="210781" style="fill:#fbe6ef"/>
<path d="" class="polyStyle" id="460204" style="fill:#f6f67b"/>
<path d="" class="polyStyle" id="210211" style="fill:#f6f67b"/>
<path d="" class="polyStyle" id="450512" style="fill:#ee8b94"/>
<path d="" class="polyStyle" id="450602" style="fill:#fbe6ef"/>
<path d="" class="polyStyle" id="440404" style="fill:#ee8b94"/>
<path d="" class="polyStyle" id="440403" style="fill:#f6f67b"/>
<path d="" class="polyStyle" id="441502" style="fill:#f6f67b"/>
<path d="" class="polyStyle" id="431002" style="fill:#d4ecb2"/>
<path d="" class="polyStyle" id="500107" style="fill:#fbe6ef"/>
<path d="" class="polyStyle" id="430611" style="fill:#d4ecb2"/>
<path d="" class="polyStyle" id="511304" style="fill:#fbe6ef"/>
<path d="" class="polyStyle" id="340711" style="fill:#ee8b94"/>
<path d="" class="polyStyle" id="320118" style="fill:#f6f67b"/>
<path d="" class="polyStyle" id="510704" style="fill:#f6f67b"/>
<path d="" class="polyStyle" id="411502" style="fill:#ee8b94"/>
<path d="" class="polyStyle" id="320302" style="fill:#d4ecb2"/>
<polygon points="1949,3067 1962,3066 1975,3073 1983,3078 1996,3083 2015,3089 2049,3106 2052,3106 2055,3103 2065,3092 2072,3087 2077,3087 2082,3090 2086,3093 2087,3096 2083,3108 2084,3114 2086,3117 2092,3119 2110,3120 2117,3128 2123,3132 2136,3128 2143,3133 2159,3139 2161,3158 2158,3160 2154,3159 2145,3156 2131,3154 2123,3156 2120,3160 2126,3167 2128,3172 2128,3178 2275,3177 2401,3177 2654,3176 2709,3176 2708,3204 2732,3212 2748,3215 2756,3220 2759,3229 2760,3240 2761,3247 2766,3248 2795,3245 2804,3248 2809,3255 2808,3261 2802,3264 2793,3263 2789,3265 2787,3269 2788,3273 2793,3280 2797,3282 2802,3282 2813,3277 2836,3257 2843,3254 2847,3254 2856,3257 2881,3273 2887,3270 2901,3258 2947,3207 2966,3207 2982,3203 2997,3204 3006,3207 3013,3212 3020,3223 3022,3235 3026,3242 3035,3248 3054,3253 3091,3265 3112,3277 3138,3294 3156,3302 3164,3304 3170,3302 3175,3295 3184,3279 3194,3268 3203,3265 3219,3268 3246,3275 3283,3275 3314,3274 3371,3294 3377,3297 3380,3304 3383,3313 3388,3318 3394,3320 3401,3320 3426,3320 3467,3320 3508,3327 3560,3340 3604,3349 3676,3364 3724,3374 3767,3386 3782,3386 3789,3383 3789,3366 3804,3365 3799,3323 3804,3324 3816,3322 3830,3314 3854,3307 3867,3301 3883,3299 3924,3302 3946,3295 3953,3290 3969,3285 3988,3282 4033,3287 4047,3287 4061,3291 4070,3295 4080,3287 4088,3282 4103,3283 4109,3281 4120,3290 4135,3290 4162,3295 4187,3282 4202,3270 4207,3297 4223,3334 4228,3428 4217,3437 4202,3438 4194,3447 4217,3467 4236,3488 4228,3505 4209,3516 4206,3527 4205,3551 4216,3565 4243,3582 4248,3616 4262,3671 4272,3710 4322,3893 4329,3923 4324,3937 4301,3940 4279,3944 4275,3947 4279,3954 4277,3956 4261,3957 4236,3963 4193,3973 4164,3982 4144,3987 4127,3991 4104,3991 4087,3990 4076,3989 4054,3983 4026,3972 4014,3966 3985,3954 3976,3950 3972,3946 3966,3950 3959,3956 3957,3960 3957,3964 3957,3971 3956,3985 3955,3992 3951,3999 3944,4013 3937,4020 3929,4025 3918,4030 3897,4038 3885,4042 3877,4047 3871,4053 3865,4064 3854,4083 3849,4091 3842,4095 3837,4097 3832,4097 3827,4097 3821,4094 3810,4088 3798,4084 3790,4083 3776,4082 3765,4085 3754,4087 3746,4087 3741,4087 3729,4085 3721,4084 3701,4078 3693,4075 3618,4078 3601,4079 3570,4079 3551,4081 3539,4083 3523,4088 3512,4092 3505,4093 3478,4092 3457,4092 3434,4096 3413,4100 3401,4101 3388,4100 3367,4097 3348,4095 3329,4093 3308,4093 3285,4095 3257,4099 3244,4100 3235,4101 3226,4102 3216,4102 3205,4101 3190,4101 3173,4107 3142,4125 3114,4128 3087,4129 3084,4129 3050,4093 3026,4056 2958,4058 2951,4057 2944,4052 2934,4051 2924,4054 2919,4057 2908,4059 2869,4057 2853,4067 2829,4065 2841,4081 2822,4082 2814,4082 2807,4084 2803,4090 2805,4093 2808,4094 2822,4095 2830,4103 2835,4113 2818,4115 2781,4114 2777,4113 2774,4110 2771,4108 2766,4100 2759,4093 2752,4091 2737,4088 2641,4135 2632,4158 2628,4182 2615,4185 2457,4186 2456,4167 2442,4163 2421,4160 2422,4215 2383,4218 2360,4218 2343,4216 2340,4207 2339,4184 2339,4144 2307,4134 2278,4130 2279,4154 2279,4159 2276,4164 2255,4166 2255,4203 2255,4212 2253,4217 2215,4245 2210,4273 2209,4276 2206,4278 2198,4281 2193,4327 2184,4316 2168,4293 2155,4281 2136,4272 2113,4269 2071,4271 2060,4269 2060,4232 2059,4223 2056,4218 2048,4216 2033,4217 1997,4214 1994,4218 1993,4229 1992,4254 1991,4261 1989,4263 1870,4242 1841,4240 1837,4241 1829,4250 1798,4251 1788,4249 1792,4230 1764,4230 1749,4229 1730,4228 1703,4289 1661,4290 1654,4285 1675,4236 1658,4241 1640,4244 1621,4246 1598,4247 1589,4264 1583,4270 1569,4268 1561,4277 1559,4280 1555,4280 1552,4277 1551,4270 1554,4265 1557,4260 1558,4254 1541,4260 1526,4268 1510,4283 1503,4297 1493,4297 1494,4286 1493,4282 1488,4282 1484,4285 1479,4289 1475,4295 1469,4308 1470,4316 1473,4322 1480,4329 1476,4334 1468,4334 1458,4336 1457,4349 1455,4355 1450,4360 1432,4360 1431,4365 1431,4372 1434,4380 1429,4385 1399,4385 1397,4421 1392,4434 1318,4436 1317,4408 1303,4408 1301,4376 1258,4376 1252,4373 1251,4365 1255,4362 1267,4364 1275,4366 1280,4365 1281,4359 1279,4346 1239,4346 1234,4342 1233,4328 1228,4318 1218,4311 1198,4309 1173,4309 1164,4309 1158,4307 1154,4305 1152,4301 1155,4288 1174,4287 1179,4285 1179,4280 1173,4278 1154,4279 1150,4278 1150,4273 1114,4273 1078,4273 1076,4270 1075,4263 1074,4224 1069,4208 1030,4206 1028,4170 1025,4168 1018,4170 1017,3985 1015,3980 877,3980 874,3978 880,3971 895,3956 900,3949 886,3946 882,3940 883,3933 883,3929 879,3926 819,3933 808,3942 798,3937 781,3938 779,3930 774,3924 759,3923 752,3920 749,3911 747,3889 744,3875 736,3851 727,3843 707,3842 700,3845 699,3854 694,3857 681,3857 676,3857 672,3859 680,3884 666,3902 617,3903 612,3893 563,3902 557,3899 558,3894 558,3889 554,3885 542,3886 535,3884 532,3875 533,3855 527,3822 525,3816 548,3811 580,3804 611,3794 628,3789 640,3783 645,3778 647,3770 647,3760 645,3748 644,3744 630,3691 632,3678 634,3657 637,3637 647,3604 701,3487 702,3484 710,3472 725,3471 729,3469 732,3464 735,3459 740,3459 747,3463 755,3472 766,3484 769,3487 773,3488 789,3489 794,3492 798,3498 802,3510 803,3523 839,3533 839,3540 837,3542 834,3546 837,3550 848,3554 860,3555 864,3553 867,3547 869,3544 876,3544 876,3552 876,3557 879,3560 901,3567 911,3565 917,3567 918,3573 917,3577 921,3578 927,3580 932,3586 935,3596 943,3597 949,3601 981,3633 992,3644 998,3647 1006,3648 1044,3649 1060,3652 1079,3658 1100,3664 1115,3667 1122,3666 1128,3663 1136,3654 1139,3652 1147,3651 1178,3650 1182,3649 1187,3651 1196,3653 1208,3653 1249,3650 1258,3649 1272,3639 1268,3614 1270,3610 1278,3606 1303,3605 1337,3605 1340,3594 1355,3594 1360,3581 1372,3556 1384,3557 1393,3560 1400,3569 1401,3582 1402,3589 1410,3591 1446,3598 1465,3606 1484,3606 1484,3585 1508,3585 1511,3589 1513,3597 1516,3609 1557,3609 1562,3609 1564,3615 1569,3624 1582,3630 1597,3635 1607,3642 1618,3652 1628,3658 1631,3658 1635,3655 1640,3647 1643,3639 1648,3633 1648,3629 1647,3626 1644,3624 1634,3619 1628,3612 1637,3582 1636,3575 1632,3570 1611,3561 1600,3556 1595,3551 1594,3540 1596,3537 1603,3537 1604,3534 1601,3522 1602,3518 1610,3509 1611,3502 1633,3489 1633,3459 1647,3450 1655,3447 1660,3441 1662,3423 1674,3416 1676,3392 1682,3381 1679,3372 1678,3357 1678,3350 1676,3345 1673,3342 1670,3342 1642,3341 1621,3337 1612,3334 1608,3331 1606,3325 1607,3317 1605,3302 1611,3294 1623,3283 1663,3263 1666,3260 1665,3256 1663,3249 1664,3246 1667,3244 1682,3239 1685,3235 1682,3226 1684,3221 1689,3220 1696,3225 1701,3224 1710,3217 1716,3215 1749,3216 1757,3217 1760,3222 1763,3229 1773,3231 1777,3230 1782,3226 1785,3222 1785,3219 1783,3199 1785,3191 1790,3188 1799,3187 1807,3184 1812,3180 1818,3166 1821,3152 1822,3130 1825,3118 1834,3110 1850,3102 1860,3099 1872,3098 1880,3093 1888,3084 1886,3070 1888,3066 1897,3063 1905,3065 1916,3073 1930,3061 1942,3062 " class="polyStyle" id="370502" style="fill:#fbe6ef"/>
<path d="" class="polyStyle" id="140311" style="fill:#ee8b94"/>
<polygon points="3657,10 3687,14 3704,16 3706,21 3704,62 3707,63 3712,63 3733,63 3720,65 3720,71 3720,75 3722,83 3727,92 3733,97 3738,102 3745,107 3751,111 3759,114 3769,118 3774,119 3782,120 3787,119 3791,118 3795,115 3798,111 3799,103 3805,103 3809,123 3833,119 3836,121 3846,127 3849,127 3852,127 3855,125 3857,121 3862,123 3897,77 3894,75 3897,71 3902,71 3916,54 3921,56 3929,61 3927,64 3924,65 3916,61 3907,70 3909,74 3923,83 3951,99 3994,123 4045,151 4054,156 4058,158 4092,177 4123,195 4139,203 4184,229 4213,245 4217,251 4234,278 4238,277 4265,266 4272,262 4286,255 4302,246 4329,230 4334,227 4345,232 4342,233 4335,230 4328,234 4314,243 4305,248 4274,265 4267,269 4236,281 4239,285 4251,304 4249,305 4246,303 4243,303 4243,300 4240,293 4196,310 4193,311 4167,321 4151,327 4149,323 4145,324 4145,329 4140,331 4134,334 4123,338 4117,340 4122,349 4126,356 4178,339 4184,341 4207,333 4225,325 4234,323 4243,319 4248,316 4252,314 4252,309 4259,319 4217,336 4227,352 4231,351 4258,340 4262,343 4262,341 4263,338 4265,334 4269,334 4271,338 4276,348 4277,351 4255,359 4231,368 4189,384 4177,389 4179,398 4184,404 4188,411 4191,413 4191,416 4187,416 4186,413 4182,405 4178,401 4175,401 4172,399 4165,399 4161,399 4158,402 4155,406 4153,412 4153,420 4151,428 4147,440 4143,445 4136,450 4129,455 4133,458 4138,459 4141,457 4148,457 4155,457 4161,456 4171,454 4175,453 4179,454 4190,454 4176,457 4171,469 4177,470 4176,474 4178,476 4180,479 4183,481 4183,484 4185,487 4184,489 4185,492 4180,494 4181,497 4185,498 4188,499 4192,500 4194,502 4196,506 4200,508 4202,511 4201,514 4203,517 4206,516 4209,522 4213,526 4217,529 4220,530 4224,534 4223,536 4226,538 4230,540 4233,543 4238,551 4241,556 4246,560 4248,564 4252,567 4257,569 4263,574 4269,578 4275,585 4288,570 4280,586 4278,590 4276,595 4279,598 4288,603 4291,605 4297,609 4312,605 4300,611 4313,618 4317,620 4319,618 4322,621 4319,622 4319,627 4320,632 4361,633 4361,637 4357,638 4356,636 4344,636 4328,637 4333,639 4334,643 4331,649 4330,653 4329,658 4331,662 4330,665 4332,668 4332,671 4334,678 4336,681 4337,684 4336,689 4337,695 4339,699 4338,702 4340,706 4340,711 4344,714 4345,718 4345,724 4348,733 4347,737 4344,741 4348,747 4369,772 4394,805 4414,831 4420,839 4427,848 4431,856 4432,859 4434,865 4449,903 4459,929 4472,964 4480,983 4481,985 4411,984 4389,985 4378,988 4365,995 4353,1004 4233,1122 4157,1200 4062,1300 3995,1371 3963,1391 3918,1417 3903,1424 3722,1467 3634,1532 3476,1646 3418,1690 3378,1714 3317,1738 3282,1749 3211,1780 3156,1800 3065,1840 3055,1847 2956,1901 2949,1905 2942,1900 2847,1840 2820,1823 2821,1820 2822,1817 2823,1813 2825,1809 2825,1806 2825,1803 2826,1800 2827,1796 2829,1792 2830,1789 2831,1785 2838,1766 2847,1754 2856,1746 2858,1742 2860,1739 2864,1732 2866,1729 2867,1726 2869,1722 2872,1718 2872,1715 2872,1711 2827,1695 2769,1681 2764,1678 2760,1673 2767,1661 2769,1653 2762,1643 2743,1629 2703,1605 2671,1600 2643,1600 2634,1606 2631,1609 2630,1613 2629,1646 2633,1657 2638,1664 2644,1668 2645,1671 2638,1681 2629,1687 2618,1688 2611,1686 2604,1676 2595,1667 2586,1660 2574,1657 2558,1652 2548,1644 2541,1633 2534,1615 2529,1608 2520,1607 2514,1609 2508,1618 2481,1685 2478,1695 2478,1704 2478,1716 2475,1726 2470,1730 2459,1729 2413,1727 2408,1728 2407,1732 2409,1760 2415,1760 2432,1755 2437,1756 2438,1763 2434,1788 2405,1789 2393,1787 2392,1779 2394,1761 2379,1764 2362,1771 2357,1773 2352,1772 2349,1769 2347,1758 2340,1753 2327,1753 2320,1754 2312,1752 2301,1753 2293,1757 2286,1764 2280,1766 2268,1763 2263,1758 2271,1750 2271,1747 2263,1741 2248,1735 2232,1733 2218,1734 2208,1739 2192,1738 2181,1740 2168,1754 2157,1757 2141,1769 2134,1774 2126,1773 2121,1773 2114,1779 2110,1782 2103,1784 2086,1785 2079,1783 2068,1777 2060,1777 2051,1782 2054,1793 2047,1799 2033,1801 2026,1797 2018,1787 2013,1765 2006,1760 1994,1763 1991,1767 1994,1776 1993,1779 1988,1782 1977,1785 1972,1782 1967,1775 1971,1767 1968,1765 1959,1766 1947,1764 1943,1761 1941,1757 1943,1753 1947,1750 1962,1753 1968,1750 1970,1741 1974,1735 1988,1733 1991,1729 1990,1720 1991,1717 1994,1715 2008,1715 2013,1714 2012,1711 2009,1709 2003,1706 1995,1705 1991,1703 1989,1699 1988,1694 1990,1688 1992,1685 1996,1683 2007,1684 2013,1684 2013,1681 1996,1670 1991,1664 1990,1661 1991,1652 1994,1645 2002,1636 1975,1567 1974,1558 1965,1550 1964,1541 1955,1535 1948,1533 1921,1538 1910,1540 1900,1539 1892,1534 1889,1527 1887,1521 1883,1516 1851,1516 1838,1509 1804,1534 1778,1532 1765,1531 1752,1537 1721,1563 1702,1583 1697,1589 1698,1591 1704,1592 1706,1598 1703,1603 1692,1610 1679,1612 1671,1609 1671,1602 1676,1595 1679,1591 1675,1588 1661,1582 1646,1579 1637,1580 1627,1584 1605,1585 1589,1594 1584,1601 1586,1607 1593,1617 1596,1643 1595,1652 1591,1656 1586,1659 1578,1659 1574,1660 1572,1666 1570,1669 1565,1671 1550,1675 1548,1677 1548,1687 1547,1691 1543,1694 1528,1700 1523,1702 1519,1706 1517,1713 1516,1731 1510,1744 1506,1758 1495,1760 1470,1761 1423,1763 1366,1761 1363,1758 1363,1749 1353,1746 1334,1746 1246,1747 1240,1735 1237,1732 1233,1721 1230,1718 1224,1716 1204,1714 1196,1709 1195,1698 1199,1694 1218,1688 1220,1682 1214,1674 1209,1668 1208,1662 1210,1659 1222,1651 1225,1647 1225,1643 1223,1640 1215,1637 1208,1634 1205,1632 1201,1625 1195,1620 1185,1620 1176,1619 1168,1614 1166,1607 1166,1582 1163,1578 1157,1577 1148,1571 1140,1567 1133,1569 1130,1572 1130,1578 1122,1579 1116,1577 1110,1572 1109,1569 1108,1566 1110,1562 1116,1558 1128,1558 1134,1557 1138,1553 1141,1549 1141,1544 1128,1524 1104,1473 1095,1449 1082,1419 1074,1413 1062,1412 1049,1414 1041,1413 1032,1412 1022,1414 1018,1417 1012,1427 1004,1430 998,1428 992,1423 982,1419 972,1414 961,1404 946,1389 939,1388 929,1390 921,1393 918,1396 917,1405 913,1410 909,1414 911,1421 910,1424 900,1427 898,1435 893,1438 873,1441 869,1444 867,1455 859,1460 840,1464 814,1468 795,1473 785,1480 778,1491 769,1501 752,1514 741,1519 732,1517 731,1513 732,1496 731,1466 728,1449 720,1435 712,1428 701,1427 697,1425 695,1416 697,1405 700,1402 707,1405 712,1406 715,1401 715,1391 713,1387 703,1385 697,1382 690,1379 686,1380 683,1383 680,1391 681,1411 684,1449 682,1458 676,1462 673,1461 672,1458 669,1445 664,1424 659,1412 637,1395 633,1385 635,1370 638,1358 639,1345 637,1337 630,1332 620,1326 619,1323 621,1320 628,1316 636,1318 644,1318 648,1317 650,1313 649,1307 644,1299 642,1293 647,1290 651,1288 652,1284 647,1276 647,1272 655,1261 643,1237 639,1229 636,1216 632,1211 623,1210 617,1206 616,1194 615,1186 610,1177 597,1162 598,1159 605,1156 608,1153 608,1144 599,1131 592,1127 576,1125 571,1123 569,1119 573,1062 568,1014 562,999 558,994 552,991 540,991 525,994 516,992 509,985 508,975 510,968 518,965 539,964 542,962 543,959 544,947 555,943 555,927 547,869 544,830 547,826 569,820 575,818 580,814 583,809 583,804 580,799 570,794 566,789 568,777 569,766 569,763 565,759 552,752 553,737 566,662 569,640 575,588 580,553 581,535 582,531 586,506 591,481 593,468 593,459 592,441 590,428 590,420 589,411 589,404 589,392 587,382 585,373 576,361 572,354 571,351 572,346 580,343 594,340 605,336 612,332 617,328 621,319 626,303 633,287 635,275 637,262 639,258 645,252 655,246 664,240 667,237 669,234 667,226 660,204 654,193 646,182 641,178 637,175 626,173 612,172 590,169 580,165 575,158 576,150 578,146 596,134 605,129 614,121 621,113 625,106 627,94 632,96 638,98 648,91 654,87 664,83 672,87 690,85 694,85 701,84 709,86 712,88 715,90 718,90 720,88 723,83 726,82 727,79 731,75 742,74 748,74 759,74 769,75 790,78 806,82 809,83 811,87 811,95 809,101 806,106 806,111 806,115 811,115 813,111 816,109 821,106 827,102 842,96 855,99 864,103 867,105 873,106 879,105 883,104 886,106 886,112 881,116 881,120 885,120 894,116 897,119 900,126 905,125 907,121 912,120 926,119 931,119 939,122 939,126 940,130 941,139 943,144 944,148 952,152 961,157 965,163 964,168 959,171 948,177 934,175 930,175 927,175 918,177 916,181 917,188 921,198 923,201 927,201 935,197 943,197 947,193 949,186 951,182 962,178 976,172 981,169 982,159 977,150 966,142 964,137 967,132 976,127 983,130 998,127 1015,127 1031,125 1044,128 1060,138 1073,145 1083,151 1096,163 1101,172 1100,176 1097,183 1097,187 1096,199 1097,206 1096,216 1116,215 1119,204 1137,192 1145,186 1144,183 1149,182 1157,177 1165,174 1170,165 1174,151 1186,145 1193,142 1200,132 1207,126 1214,128 1232,135 1248,146 1263,144 1288,161 1297,163 1313,158 1332,162 1347,175 1347,186 1342,201 1348,217 1365,225 1377,227 1385,226 1406,213 1421,209 1434,206 1451,194 1467,184 1478,177 1494,173 1516,181 1531,186 1548,199 1554,204 1564,206 1573,207 1583,206 1587,198 1591,189 1602,186 1611,190 1624,197 1640,203 1655,209 1669,213 1684,216 1715,219 1744,220 1766,222 1769,222 1786,226 1791,227 1800,230 1819,227 1835,232 1854,237 1879,240 1896,247 1902,249 1930,257 1949,271 1954,275 1960,282 1969,291 1971,294 1974,299 1975,303 1974,307 1972,309 1975,311 1982,305 1986,302 1990,302 2000,304 2013,304 2019,306 2035,336 2038,342 2048,361 2074,382 2086,388 2091,401 2098,419 2114,456 2119,475 2125,497 2127,504 2133,506 2138,507 2145,508 2158,502 2161,497 2170,482 2185,471 2202,468 2227,468 2244,463 2254,454 2254,442 2253,434 2253,431 2253,426 2256,420 2261,413 2274,401 2286,398 2296,401 2304,401 2306,402 2318,397 2325,386 2325,375 2323,359 2324,349 2346,324 2375,302 2384,298 2411,285 2444,278 2471,282 2482,286 2498,285 2508,274 2511,269 2514,265 2516,260 2516,254 2515,251 2514,246 2515,239 2516,236 2517,228 2522,223 2527,219 2530,217 2533,216 2536,213 2538,210 2539,203 2541,197 2543,194 2549,191 2555,190 2560,183 2563,174 2569,163 2572,156 2575,151 2582,148 2601,134 2646,106 2666,105 2681,106 2692,106 2710,106 2729,105 2734,103 2739,101 2746,101 2748,100 2746,96 2748,94 2751,92 2767,91 2781,92 2786,96 2789,99 2794,100 2800,96 2806,96 2811,96 2820,102 2827,109 2829,115 2830,123 2830,138 2835,140 2841,139 2849,134 2856,130 2861,128 2864,126 2869,121 2870,118 2872,112 2876,95 2879,84 2883,75 2890,72 2899,70 2904,69 2912,72 2920,72 2925,70 2931,71 2939,76 2944,76 2957,68 2965,63 2969,58 2969,54 2975,50 2983,51 2983,60 2979,64 2974,67 2972,71 2977,74 2983,75 2989,78 2996,80 2996,75 2994,72 2992,68 2998,67 3002,68 3008,71 3010,76 3013,80 3016,82 3019,84 3027,83 3033,83 3038,84 3043,80 3042,70 3046,69 3049,89 3053,115 3045,116 3042,120 3044,124 3049,124 3054,124 3059,126 3062,129 3064,134 3064,138 3062,147 3062,160 3062,165 3061,171 3056,184 3049,195 3048,206 3047,215 3046,220 3050,224 3054,224 3062,227 3066,230 3067,242 3070,250 3077,254 3085,255 3092,254 3102,251 3109,247 3112,244 3116,246 3117,250 3113,260 3111,266 3107,268 3094,272 3091,275 3091,283 3097,284 3098,281 3103,281 3106,285 3112,289 3117,289 3123,283 3130,278 3132,271 3134,262 3141,257 3146,252 3147,247 3145,239 3143,228 3146,219 3149,214 3152,214 3154,219 3156,233 3159,237 3162,239 3164,243 3166,254 3168,263 3163,269 3160,273 3153,271 3147,271 3141,276 3137,278 3133,280 3126,292 3124,299 3120,300 3117,300 3105,321 3108,323 3113,323 3118,323 3123,324 3127,323 3131,317 3134,312 3138,306 3144,303 3154,303 3162,303 3166,302 3167,297 3167,292 3167,288 3166,285 3169,283 3176,285 3181,283 3185,277 3183,272 3180,262 3181,254 3189,251 3193,252 3200,256 3212,253 3227,248 3245,240 3261,232 3268,227 3269,219 3269,216 3267,203 3272,202 3277,199 3281,196 3282,193 3282,178 3279,169 3277,162 3278,154 3281,145 3291,129 3295,120 3300,114 3305,104 3305,90 3305,81 3306,76 3309,77 3311,80 3314,80 3316,77 3318,74 3318,69 3320,67 3331,75 3342,76 3345,74 3348,68 3347,65 3353,65 3362,63 3366,60 3365,58 3366,54 3374,58 3377,50 3379,39 3381,31 3385,16 3387,7 3370,6 3348,5 3273,12 3267,11 3268,8 3273,8 3341,3 3342,1 3345,0 3349,2 3372,3 3382,4 3386,3 3389,2 3392,3 3391,6 3382,35 3381,42 3380,48 3380,51 3376,60 3377,63 3375,65 3374,69 3375,72 3376,74 3379,74 3382,73 3384,74 3387,75 3389,74 3391,72 3391,69 3392,66 3412,67 3413,61 3416,60 3419,55 3437,60 3458,59 3462,59 3459,54 3456,48 3451,40 3464,36 3464,25 3461,23 3456,20 3452,19 3449,16 3478,6 3486,5 3556,0 3565,0 3576,1 " class="polyStyle" id="370503" style="fill:#d4ecb2"/>
<path d="" class="polyStyle" id="610802" style="fill:#ee8b94"/>
<path d="" class="polyStyle" id="120116" style="fill:#f6f67b"/>
<path d="" class="polyStyle" id="130303" style="fill:#fbe6ef"/>
<path d="" class="polyStyle" id="140211" style="fill:#f6f67b"/>
<path d="" class="polyStyle" id="150207" style="fill:#fbe6ef"/>
<path d="" class="polyStyle" id="211403" style="fill:#f6f67b"/>
<path d="" class="polyStyle" id="150802" style="fill:#f8c67d"/>
<path d="" class="polyStyle" id="210112" style="fill:#ee8b94"/>
<path d="" class="polyStyle" id="230406" style="fill:#d4ecb2"/>
<path d="" class="polyStyle" id="110113" style="fill:#fbe6ef"/>
<path d="" class="polyStyle" id="341702" style="fill:#fbe6ef"/>
<path d="" class="polyStyle" id="420303" style="fill:#ee8b94"/>
<path d="" class="polyStyle" id="340702" style="fill:#d4ecb2"/>
<path d="" class="polyStyle" id="421002" style="fill:#f6f67b"/>
<path d="" class="polyStyle" id="420117" style="fill:#f6f67b"/>
<path d="" class="polyStyle" id="440904" style="fill:#f8c67d"/>
<path d="" class="polyStyle" id="460205" style="fill:#ee8b94"/>
<path d="" class="polyStyle" id="460202" style="fill:#f6f67b"/>
<path d="" class="polyStyle" id="460203" style="fill:#fbe6ef"/>
<path d="" class="polyStyle" id="420304" style="fill:#f6f67b"/>
<path d="" class="polyStyle" id="445302" style="fill:#ee8b94"/>
<path d="" class="polyStyle" id="410202" style="fill:#d4ecb2"/>
<path d="" class="polyStyle" id="440800" style="fill:#f6f67b"/>
<path d="" class="polyStyle" id="440900" style="fill:#ee8b94"/>
<path d="" class="polyStyle" id="340800" style="fill:#ee8b94"/>
<path d="" class="polyStyle" id="460200" style="fill:#f6f67b"/>
<path d="" class="polyStyle" id="460000" style="fill:#ee8b94"/>
<path d="" class="polyStyle" id="450500" style="fill:#ee8b94"/>
<path d="" class="polyStyle" id="450600" style="fill:#ee8b94"/>
<path d="" class="polyStyle" id="440400" style="fill:#f6f67b"/>
<path d="" class="polyStyle" id="441700" style="fill:#f6f67b"/>
<path d="" class="polyStyle" id="441500" style="fill:#f6f67b"/>
<path d="" class="polyStyle" id="350600" style="fill:#ee8b94"/>
<path d="" class="polyStyle" id="710000" style="fill:#f6f67b"/>
<path d="" class="polyStyle" id="510400" style="fill:#f6f67b"/>
<path d="" class="polyStyle" id="522600" style="fill:#fbe6ef"/>
<path d="" class="polyStyle" id="520500" style="fill:#ee8b94"/>
<path d="" class="polyStyle" id="431200" style="fill:#f6f67b"/>
<path d="" class="polyStyle" id="430600" style="fill:#f6f67b"/>
<path d="" class="polyStyle" id="511400" style="fill:#d4ecb2"/>
<path d="" class="polyStyle" id="421000" style="fill:#ee8b94"/>
<path d="" class="polyStyle" id="341700" style="fill:#f6f67b"/>
<path d="" class="polyStyle" id="420500" style="fill:#f6f67b"/>
<path d="" class="polyStyle" id="511300" style="fill:#f6f67b"/>
<path d="" class="polyStyle" id="420900" style="fill:#f6f67b"/>
<path d="" class="polyStyle" id="511700" style="fill:#ee8b94"/>
<path d="" class="polyStyle" id="420600" style="fill:#d4ecb2"/>
<path d="" class="polyStyle" id="411500" style="fill:#fbe6ef"/>
<path d="" class="polyStyle" id="510800" style="fill:#ee8b94"/>
<path d="" class="polyStyle" id="420300" style="fill:#fbe6ef"/>
<path d="" class="polyStyle" id="611000" style="fill:#ee8b94"/>
<path d="" class="polyStyle" id="620800" style="fill:#fbe6ef"/>
<path d="" class="polyStyle" id="370200" style="fill:#ee8b94"/>
<path d="" class="polyStyle" id="371000" style="fill:#f6f67b"/>
<path d="" class="polyStyle" id="370600" style="fill:#fbe6ef"/>
<path d="" class="polyStyle" id="120000" style="fill:#f6f67b"/>
<path d="" class="polyStyle" id="130200" style="fill:#ee8b94"/>
<path d="" class="polyStyle" id="130300" style="fill:#f6f67b"/>
<path d="" class="polyStyle" id="652900" style="fill:#fbe6ef"/>
<path d="" class="polyStyle" id="150500" style="fill:#d4ecb2"/>
<path d="" class="polyStyle" id="" style="fill:#d4ecb2"/>
<path d="" class="polyStyle" id="350500" style="fill:#fbe6ef"/>
<path d="" class="polyStyle" id="440400" style="fill:#f6f67b"/>
<path d="" class="polyStyle" id="421100" style="fill:#d4ecb2"/>
<path d="" class="polyStyle" id="420100" style="fill:#fbe6ef"/>
<path d="" class="polyStyle" id="532500" style="fill:#fbe6ef"/>
<path d="" class="polyStyle" id="654200" style="fill:#fbe6ef"/>
<path d="" class="polyStyle" id="210700" style="fill:#d4ecb2"/>
<path d="" class="polyStyle" id="522300" style="fill:#fbe6ef"/>
<path d="" class="polyStyle" id="" style="fill:#ee8b94"/>
<path d="" class="polyStyle" id="440400" style="fill:#f6f67b"/>
<path d="" class="polyStyle" id="620000" style="fill:#f6f67b"/>
<path d="" class="polyStyle" id="430000" style="fill:#fbe6ef"/>
<path d="" class="polyStyle" id="420000" style="fill:#ee8b94"/>
<path d="" class="polyStyle" id="410000" style="fill:#f6f67b"/>
<path d="" class="polyStyle" id="350000" style="fill:#fbe6ef"/>
<path d="" class="polyStyle" id="520000" style="fill:#f6f67b"/>
<path d="" class="polyStyle" id="" style="fill:#ee8b94"/>
</svg>
