<?xml version="1.0" encoding="UTF-8"?>
<!DOCTYPE svg PUBLIC "-//W3C//DTD SVG 1.1 Tiny//EN" "http://www.w3.org/Graphics/SVG/1.1/DTD/svg11-tiny.dtd">
<svg version="1.1" xmlns="http://www.w3.org/2000/svg" xmlns:xlink="http://www.w3.org/1999/xlink" width="100%" height="100%" viewBox="0,0,9789,4222">
<title>SVG</title>
<desc>Poligon Test</desc>
<style id="style_css_sheet" type="text/css">
.polyStyle{fill: #cccccc;stroke-width:0;fill-rule:evenodd;}
</style>
<circle cx="3629" cy="1456" r="200" stroke="black" stroke-width="1" fill="red" id="370983" name="肥城市"/>
<circle cx="8591" cy="2835" r="200" stroke="black" stroke-width="1" fill="red" id="370982" name="新泰市"/>
<circle cx="3746" cy="3560" r="200" stroke="black" stroke-width="1" fill="red" id="370921" name="宁阳县"/>
<circle cx="2106" cy="2730" r="200" stroke="black" stroke-width="1" fill="red" id="370923" name="东平县"/>
<circle cx="5006" cy="1443" r="200" stroke="black" stroke-width="1" fill="red" id="370911" position="44"name="岱岳区"/>
<circle cx="5439" cy="1444" r="200" stroke="black" stroke-width="1" fill="red" id="370902" position="4"name="泰山区"/>
<path d="" class="polyStyle" id="" style="fill:#ee8b94"/>
<path d="" class="polyStyle" id="623022" style="fill:#fbe6ef"/>
<path d="" class="polyStyle" id="211421" style="fill:#f6f67b"/>
<path d="" class="polyStyle" id="532524" style="fill:#ee8b94"/>
<path d="" class="polyStyle" id="440825" style="fill:#f6f67b"/>
<path d="" class="polyStyle" id="441721" style="fill:#f6f67b"/>
<path d="" class="polyStyle" id="450521" style="fill:#f6f67b"/>
<path d="" class="polyStyle" id="450123" style="fill:#fbe6ef"/>
<path d="" class="polyStyle" id="350624" style="fill:#f6f67b"/>
<path d="" class="polyStyle" id="" style="fill:#fbe6ef"/>
<path d="" class="polyStyle" id="451224" style="fill:#fbe6ef"/>
<path d="" class="polyStyle" id="350627" style="fill:#f6f67b"/>
<path d="" class="polyStyle" id="" style="fill:#f6f67b"/>
<path d="" class="polyStyle" id="350525" style="fill:#f6f67b"/>
<path d="" class="polyStyle" id="530124" style="fill:#ee8b94"/>
<path d="" class="polyStyle" id="522627" style="fill:#ee8b94"/>
<path d="" class="polyStyle" id="510421" style="fill:#fbe6ef"/>
<path d="" class="polyStyle" id="522623" style="fill:#d4ecb2"/>
<path d="" class="polyStyle" id="430321" style="fill:#d4ecb2"/>
<path d="" class="polyStyle" id="511129" style="fill:#d4ecb2"/>
<path d="" class="polyStyle" id="511423" style="fill:#ee8b94"/>
<path d="" class="polyStyle" id="421023" style="fill:#f6f67b"/>
<path d="" class="polyStyle" id="511724" style="fill:#f6f67b"/>
<path d="" class="polyStyle" id="420526" style="fill:#fbe6ef"/>
<path d="" class="polyStyle" id="511923" style="fill:#fbe6ef"/>
<path d="" class="polyStyle" id="420325" style="fill:#fbe6ef"/>
<path d="" class="polyStyle" id="511921" style="fill:#f6f67b"/>
<path d="" class="polyStyle" id="542525" style="fill:#f6f67b"/>
<path d="" class="polyStyle" id="611026" style="fill:#ee8b94"/>
<path d="" class="polyStyle" id="411023" style="fill:#fbe6ef"/>
<path d="" class="polyStyle" id="632323" style="fill:#f6f67b"/>
<path d="" class="polyStyle" id="140525" style="fill:#d4ecb2"/>
<path d="" class="polyStyle" id="410922" style="fill:#ee8b94"/>
<path d="" class="polyStyle" id="621027" style="fill:#ee8b94"/>
<path d="" class="polyStyle" id="130427" style="fill:#f6f67b"/>
<path d="" class="polyStyle" id="130121" style="fill:#ee8b94"/>
<path d="" class="polyStyle" id="610823" style="fill:#fbe6ef"/>
<path d="" class="polyStyle" id="130225" style="fill:#fbe6ef"/>
<path d="" class="polyStyle" id="130322" style="fill:#d4ecb2"/>
<path d="" class="polyStyle" id="653130" style="fill:#f6f67b"/>
<path d="" class="polyStyle" id="130822" style="fill:#fbe6ef"/>
<path d="" class="polyStyle" id="211221" style="fill:#f6f67b"/>
<path d="" class="polyStyle" id="210921" style="fill:#f6f67b"/>
<path d="" class="polyStyle" id="150223" style="fill:#f8c67d"/>
<path d="" class="polyStyle" id="220422" style="fill:#d4ecb2"/>
<polygon points="4149,3968 4147,3972 4142,3972 4139,3969 4137,3968 4133,3965 4127,3966 4116,3976 4110,3978 4092,3984 4083,3985 4081,3981 4079,3972 4075,3969 4072,3969 4055,3973 4051,3972 4050,3969 4048,3962 4042,3961 4039,3961 4035,3955 4023,3952 4022,3946 4020,3938 4010,3937 3999,3940 3997,3937 3994,3931 3987,3925 3977,3922 3974,3918 3974,3913 3974,3909 3972,3906 3963,3903 3956,3903 3954,3900 3955,3897 3952,3893 3940,3892 3892,3892 3885,3889 3886,3885 3888,3882 3885,3876 3882,3857 3878,3854 3871,3852 3847,3852 3841,3852 3837,3855 3840,3863 3837,3867 3824,3868 3820,3872 3819,3886 3817,3901 3813,3906 3812,3910 3818,3917 3825,3919 3829,3919 3830,3922 3836,3946 3835,3951 3830,3955 3825,3964 3803,3965 3780,3960 3774,3961 3773,3965 3777,3968 3784,3968 3788,3969 3791,3978 3787,3984 3779,3984 3769,3981 3758,3982 3750,3987 3748,3995 3747,3998 3744,4000 3732,4000 3712,3998 3698,3999 3687,3997 3675,3991 3668,3991 3664,3988 3663,3982 3666,3969 3665,3964 3659,3964 3655,3964 3653,3958 3647,3955 3644,3950 3645,3944 3644,3939 3639,3937 3636,3936 3638,3931 3639,3928 3637,3922 3638,3918 3643,3917 3647,3916 3650,3913 3650,3889 3648,3875 3642,3867 3630,3863 3590,3854 3578,3851 3572,3853 3570,3857 3570,3863 3563,3862 3558,3864 3553,3871 3551,3882 3549,3887 3540,3889 3539,3896 3538,3900 3533,3906 3528,3906 3524,3908 3523,3911 3526,3917 3525,3921 3517,3922 3510,3918 3498,3904 3490,3902 3474,3903 3471,3903 3469,3900 3465,3896 3457,3895 3453,3894 3449,3889 3445,3886 3440,3885 3428,3887 3419,3889 3401,3889 3395,3888 3394,3883 3390,3878 3380,3876 3368,3882 3350,3879 3337,3876 3332,3872 3328,3869 3320,3870 3317,3868 3315,3862 3304,3860 3299,3860 3293,3863 3290,3865 3286,3865 3276,3864 3266,3860 3262,3855 3258,3849 3253,3846 3248,3842 3248,3835 3252,3829 3259,3826 3263,3825 3263,3822 3262,3817 3265,3815 3268,3812 3267,3801 3268,3792 3273,3783 3274,3773 3271,3768 3267,3766 3255,3764 3235,3766 3229,3769 3228,3774 3227,3778 3223,3779 3219,3777 3214,3777 3208,3779 3207,3782 3201,3788 3193,3787 3186,3796 3178,3799 3165,3797 3159,3797 3158,3801 3156,3805 3151,3803 3142,3798 3131,3797 3123,3800 3120,3802 3118,3807 3115,3816 3106,3819 3107,3825 3072,3827 3038,3820 3030,3820 3029,3824 3028,3827 3024,3825 3020,3823 3015,3823 3010,3826 3007,3832 3001,3841 2994,3845 2991,3843 2990,3839 2989,3836 2986,3835 2980,3835 2976,3838 2972,3841 2964,3842 2957,3842 2955,3844 2952,3852 2936,3855 2934,3847 2920,3844 2912,3844 2886,3857 2875,3860 2845,3862 2842,3862 2840,3859 2840,3853 2830,3850 2830,3843 2817,3830 2815,3819 2817,3795 2825,3781 2825,3776 2821,3767 2822,3761 2830,3755 2834,3751 2834,3744 2828,3739 2826,3733 2829,3726 2838,3717 2842,3712 2844,3705 2853,3694 2857,3686 2856,3679 2854,3676 2849,3674 2846,3672 2845,3669 2845,3666 2848,3663 2851,3661 2852,3657 2855,3654 2863,3651 2865,3647 2867,3641 2877,3631 2877,3626 2872,3611 2872,3607 2875,3604 2894,3601 2897,3594 2900,3592 2904,3593 2904,3597 2910,3600 2931,3602 2940,3602 2950,3598 2972,3568 2977,3565 2982,3565 3000,3568 3012,3572 3019,3579 3026,3583 3039,3586 3045,3588 3054,3590 3069,3590 3072,3592 3072,3597 3100,3597 3105,3595 3108,3586 3112,3583 3122,3583 3125,3581 3126,3574 3127,3570 3133,3571 3137,3571 3142,3567 3144,3561 3143,3549 3144,3545 3155,3544 3158,3540 3158,3532 3159,3517 3162,3515 3173,3518 3179,3512 3182,3511 3186,3510 3187,3505 3189,3503 3196,3501 3200,3498 3201,3489 3203,3478 3205,3474 3208,3472 3211,3469 3213,3460 3217,3457 3224,3459 3228,3459 3232,3456 3234,3444 3221,3440 3217,3434 3214,3421 3212,3417 3199,3415 3193,3408 3189,3392 3187,3389 3183,3388 3167,3387 3162,3383 3160,3377 3160,3355 3158,3351 3152,3348 3151,3345 3154,3341 3163,3340 3167,3339 3169,3332 3172,3327 3177,3325 3184,3324 3189,3321 3192,3314 3194,3301 3194,3283 3185,3274 3171,3272 3169,3265 3162,3262 3151,3261 3146,3261 3142,3259 3135,3254 3130,3251 3125,3252 3125,3255 3128,3260 3124,3262 3095,3277 3090,3275 3087,3272 3087,3266 3093,3254 3094,3249 3086,3245 3083,3241 3085,3236 3090,3227 3089,3224 3085,3225 3079,3231 3066,3234 3060,3233 3057,3230 3054,3227 3049,3227 3043,3228 3040,3231 3039,3234 3036,3235 2981,3240 2965,3235 2958,3231 2955,3225 2956,3221 2957,3217 2953,3213 2942,3209 2930,3198 2916,3187 2901,3187 2900,3180 2897,3171 2894,3168 2890,3167 2886,3168 2887,3175 2885,3179 2876,3177 2875,3173 2874,3158 2872,3152 2868,3148 2864,3143 2857,3138 2832,3127 2816,3116 2817,3110 2821,3102 2827,3098 2831,3095 2829,3091 2830,3086 2835,3082 2845,3080 2855,3080 2857,3073 2855,3066 2848,3057 2847,3048 2851,3033 2859,3019 2861,3015 2859,3011 2860,3008 2868,3006 2880,3006 2880,2995 2881,2991 2884,2989 2888,2987 2898,2986 2908,2986 2919,2990 2932,2995 2944,2991 2949,2991 2960,2992 2967,2990 2972,2983 2975,2979 2979,2979 2984,2982 2987,2982 2996,2972 2990,2966 2998,2960 3018,2946 3017,2922 3019,2918 3024,2916 3045,2919 3052,2922 3060,2923 3072,2918 3084,2916 3092,2910 3096,2903 3099,2897 3107,2891 3109,2888 3110,2881 3107,2868 3101,2864 3086,2861 3084,2854 3069,2842 3063,2835 3066,2827 3074,2819 3081,2817 3090,2818 3100,2817 3103,2815 3103,2811 3102,2801 3103,2789 3107,2782 3116,2775 3116,2758 3118,2755 3123,2755 3147,2758 3153,2757 3154,2751 3154,2746 3151,2739 3156,2734 3158,2739 3163,2747 3175,2757 3183,2763 3194,2770 3206,2776 3213,2779 3224,2776 3233,2776 3242,2776 3252,2777 3266,2781 3278,2783 3290,2789 3296,2788 3304,2785 3310,2782 3315,2790 3326,2793 3354,2789 3360,2784 3388,2785 3408,2788 3424,2797 3438,2799 3453,2811 3462,2823 3462,2833 3456,2844 3454,2850 3456,2872 3457,2890 3470,2916 3476,2925 3491,2936 3517,2951 3552,2955 3588,2951 3619,2944 3655,2929 3684,2908 3709,2881 3723,2868 3740,2881 3770,2886 3798,2894 3831,2897 3859,2911 3891,2926 3918,2927 3945,2924 3974,2917 4000,2900 4026,2882 4036,2855 4045,2830 4067,2800 4094,2795 4125,2793 4158,2777 4184,2763 4209,2754 4243,2743 4264,2725 4271,2714 4282,2688 4293,2674 4313,2665 4343,2664 4374,2657 4401,2646 4434,2641 4465,2639 4490,2633 4522,2629 4558,2629 4605,2629 4630,2628 4661,2627 4676,2624 4695,2624 4724,2621 4758,2615 4802,2611 4806,2614 4809,2616 4812,2617 4815,2618 4819,2619 4825,2620 4842,2621 4859,2621 4863,2621 4868,2622 4872,2622 4877,2623 4880,2624 4886,2627 4891,2628 4903,2635 4907,2638 4911,2639 4914,2641 4918,2642 4924,2642 4931,2643 4946,2644 4960,2644 4969,2644 4972,2645 4981,2646 4989,2648 4995,2649 4999,2649 5004,2649 5011,2650 5023,2650 5027,2650 5032,2650 5038,2650 5044,2651 5048,2652 5051,2652 5054,2653 5057,2655 5064,2657 5071,2660 5080,2666 5085,2668 5092,2671 5101,2674 5113,2679 5120,2681 5133,2687 5137,2688 5140,2688 5158,2687 5170,2685 5173,2685 5176,2684 5181,2682 5193,2673 5197,2672 5200,2671 5221,2669 5236,2667 5243,2665 5249,2663 5255,2660 5270,2654 5289,2643 5296,2638 5301,2635 5304,2633 5309,2632 5315,2629 5318,2628 5322,2625 5326,2621 5329,2617 5336,2608 5347,2609 5352,2610 5356,2611 5361,2612 5369,2615 5381,2619 5393,2624 5400,2625 5410,2628 5420,2631 5426,2632 5430,2632 5435,2632 5443,2631 5455,2630 5458,2630 5461,2630 5466,2631 5483,2640 5493,2646 5497,2648 5500,2649 5503,2649 5509,2649 5521,2648 5524,2648 5529,2648 5531,2648 5535,2649 5543,2655 5551,2660 5557,2664 5562,2666 5576,2673 5581,2676 5587,2681 5597,2690 5600,2697 5601,2701 5601,2704 5601,2708 5597,2718 5590,2742 5578,2777 5574,2791 5572,2798 5572,2803 5575,2807 5582,2816 5594,2826 5607,2839 5608,2850 5606,2856 5605,2860 5607,2867 5613,2875 5629,2874 5647,2887 5658,2890 5663,2894 5668,2902 5677,2906 5685,2911 5690,2921 5692,2925 5700,2933 5701,2942 5744,2960 5761,2958 5776,2943 5777,2918 5795,2929 5798,2930 5802,2931 5805,2932 5813,2936 5831,2943 5837,2946 5861,2955 5876,2963 5880,2965 5883,2966 5887,2968 5890,2969 5896,2970 5910,2972 5914,2973 5918,2974 5922,2977 5934,2985 5940,2988 5949,2994 5955,2997 5964,3000 5973,3002 5981,3003 5988,3004 6000,3004 6005,3003 6008,3002 6011,3001 6013,2999 6016,2998 6020,3019 6019,3029 6015,3038 6014,3042 6015,3045 6027,3048 6039,3058 6049,3063 6067,3067 6071,3070 6071,3085 6074,3089 6079,3091 6087,3091 6113,3091 6117,3092 6120,3096 6125,3102 6128,3104 6134,3104 6147,3106 6152,3113 6155,3118 6160,3119 6163,3121 6164,3125 6162,3130 6154,3131 6147,3132 6145,3136 6153,3145 6155,3148 6151,3149 6145,3150 6144,3153 6149,3158 6150,3161 6148,3167 6143,3172 6131,3180 6127,3188 6129,3194 6135,3196 6136,3201 6127,3200 6124,3202 6120,3210 6119,3216 6115,3225 6116,3230 6120,3238 6119,3242 6118,3247 6127,3253 6137,3259 6139,3262 6139,3266 6134,3277 6135,3280 6138,3282 6142,3282 6145,3281 6147,3278 6150,3276 6155,3277 6160,3280 6161,3283 6158,3287 6158,3290 6163,3291 6174,3291 6175,3296 6176,3306 6180,3304 6186,3299 6188,3303 6191,3312 6198,3312 6206,3310 6207,3315 6208,3320 6212,3323 6209,3328 6206,3331 6209,3336 6219,3343 6221,3348 6220,3362 6223,3370 6227,3374 6235,3372 6239,3373 6245,3377 6250,3378 6254,3378 6255,3375 6256,3371 6262,3376 6278,3390 6277,3397 6269,3402 6264,3409 6257,3414 6253,3414 6252,3411 6251,3405 6248,3403 6242,3407 6240,3415 6238,3429 6239,3435 6239,3442 6232,3444 6221,3447 6220,3451 6218,3456 6211,3460 6204,3466 6202,3471 6205,3477 6201,3480 6190,3482 6182,3480 6174,3478 6167,3483 6160,3494 6156,3497 6148,3498 6143,3503 6138,3510 6131,3510 6116,3508 6112,3509 6110,3512 6112,3528 6110,3538 6105,3545 6096,3548 6091,3548 6087,3546 6077,3540 6066,3538 6052,3537 6041,3532 6027,3527 6011,3526 5997,3526 5986,3523 5980,3521 5960,3521 5934,3513 5921,3513 5913,3515 5905,3515 5894,3508 5862,3486 5848,3485 5840,3485 5833,3487 5812,3490 5803,3493 5787,3502 5774,3506 5753,3508 5736,3506 5705,3503 5695,3500 5662,3485 5645,3487 5601,3498 5596,3502 5592,3509 5588,3510 5554,3514 5536,3518 5527,3523 5517,3527 5508,3525 5503,3523 5496,3523 5485,3529 5480,3536 5475,3539 5470,3542 5463,3543 5440,3541 5436,3542 5432,3552 5426,3552 5418,3550 5410,3553 5405,3554 5400,3554 5396,3552 5398,3549 5406,3546 5409,3537 5412,3535 5421,3532 5425,3527 5433,3519 5446,3512 5469,3494 5469,3487 5463,3479 5459,3473 5457,3462 5439,3452 5423,3449 5389,3446 5340,3442 5319,3442 5311,3444 5306,3448 5302,3448 5296,3448 5292,3452 5286,3454 5275,3453 5269,3449 5272,3446 5281,3442 5283,3438 5282,3434 5277,3432 5273,3428 5274,3424 5286,3413 5287,3410 5281,3404 5280,3401 5278,3398 5271,3397 5267,3390 5264,3386 5260,3386 5256,3385 5259,3379 5262,3374 5257,3369 5252,3368 5242,3370 5233,3366 5228,3366 5214,3371 5206,3371 5203,3368 5203,3364 5199,3360 5191,3361 5184,3372 5175,3373 5173,3377 5172,3382 5168,3385 5161,3388 5159,3394 5156,3400 5153,3401 5149,3399 5144,3396 5139,3399 5129,3400 5126,3404 5125,3410 5130,3415 5137,3422 5137,3427 5133,3431 5126,3432 5098,3429 5090,3426 5087,3422 5084,3411 5079,3410 5072,3407 5062,3393 5053,3387 5041,3387 5023,3389 5018,3389 5014,3387 5007,3384 5000,3384 4994,3385 4990,3388 4982,3398 4979,3400 4976,3399 4969,3393 4964,3394 4960,3395 4956,3390 4951,3383 4943,3384 4912,3397 4907,3399 4899,3399 4892,3398 4888,3395 4881,3389 4871,3387 4867,3385 4865,3381 4864,3377 4867,3373 4876,3367 4877,3362 4873,3356 4862,3353 4851,3349 4841,3342 4829,3337 4811,3336 4793,3340 4773,3348 4754,3361 4749,3367 4747,3374 4741,3397 4737,3407 4741,3411 4752,3416 4755,3420 4756,3425 4756,3430 4753,3434 4742,3442 4738,3446 4740,3450 4755,3455 4758,3459 4758,3463 4756,3466 4748,3469 4734,3472 4728,3476 4727,3481 4733,3486 4734,3490 4730,3490 4719,3485 4719,3492 4715,3495 4712,3498 4717,3501 4723,3502 4723,3506 4719,3508 4708,3509 4700,3510 4694,3515 4684,3530 4678,3535 4677,3540 4678,3555 4675,3562 4667,3569 4665,3574 4666,3580 4662,3582 4655,3583 4656,3586 4658,3592 4655,3596 4647,3597 4644,3599 4633,3605 4627,3604 4622,3595 4616,3593 4597,3599 4581,3601 4573,3605 4564,3612 4557,3614 4547,3616 4546,3620 4543,3623 4539,3625 4530,3626 4515,3627 4507,3630 4498,3643 4493,3647 4494,3653 4496,3666 4494,3674 4485,3686 4482,3690 4485,3694 4491,3697 4492,3701 4495,3705 4502,3704 4510,3704 4518,3708 4520,3712 4521,3727 4524,3733 4532,3737 4545,3737 4548,3738 4549,3742 4549,3752 4553,3758 4560,3766 4560,3773 4557,3776 4547,3778 4546,3781 4544,3787 4535,3791 4524,3792 4522,3799 4521,3807 4515,3810 4508,3809 4494,3803 4490,3805 4482,3812 4477,3815 4471,3816 4459,3810 4444,3814 4431,3814 4428,3815 4426,3818 4424,3829 4422,3832 4419,3837 4416,3837 4412,3837 4409,3839 4406,3842 4402,3842 4397,3843 4394,3847 4391,3850 4384,3850 4371,3851 4363,3854 4355,3860 4346,3862 4336,3862 4333,3865 4332,3869 4334,3872 4330,3874 4324,3875 4321,3879 4318,3880 4309,3880 4269,3874 4247,3874 4241,3878 4238,3876 4234,3872 4228,3873 4221,3878 4217,3878 4213,3881 4207,3884 4195,3884 4190,3889 4188,3897 4188,3903 4186,3908 4180,3916 4175,3920 4175,3924 4174,3927 4167,3931 4167,3950 4159,3954 4145,3953 4142,3955 4141,3958 4142,3963 4144,3963 4147,3964 " class="polyStyle" id="370921" style="fill:#ee8b94"/>
<path d="" class="polyStyle" id="340721" style="fill:#f6f67b"/>
<path d="" class="polyStyle" id="510824" style="fill:#d4ecb2"/>
<path d="" class="polyStyle" id="610324" style="fill:#f6f67b"/>
<path d="" class="polyStyle" id="530722" style="fill:#ee8b94"/>
<polygon points="603,1525 621,1519 675,1518 706,1522 752,1527 787,1529 820,1534 824,1534 867,1534 887,1526 897,1526 927,1530 939,1534 943,1540 944,1546 947,1538 952,1539 955,1542 954,1548 957,1549 971,1551 978,1549 985,1547 987,1551 986,1558 990,1562 997,1567 997,1572 994,1575 987,1572 978,1568 975,1566 975,1572 977,1577 983,1581 985,1588 984,1604 987,1605 990,1603 993,1601 995,1605 995,1614 998,1615 1004,1606 1008,1609 1009,1616 1010,1636 1013,1645 1013,1654 1018,1657 1027,1660 1032,1665 1041,1674 1041,1684 1036,1685 1033,1688 1035,1692 1046,1695 1054,1698 1057,1702 1059,1713 1065,1718 1074,1722 1092,1726 1097,1729 1099,1736 1101,1752 1106,1760 1114,1764 1124,1765 1130,1766 1133,1773 1133,1793 1128,1808 1116,1817 1112,1823 1109,1836 1105,1845 1092,1851 1089,1854 1087,1864 1084,1870 1081,1878 1082,1886 1090,1899 1091,1902 1088,1909 1081,1920 1080,1930 1081,1940 1088,1946 1096,1952 1100,1962 1099,1971 1091,1988 1084,1998 1083,2004 1084,2013 1087,2017 1088,2020 1084,2028 1081,2035 1080,2046 1081,2055 1082,2058 1087,2062 1104,2072 1108,2076 1113,2089 1118,2095 1133,2106 1136,2107 1137,2111 1136,2124 1134,2127 1130,2129 1111,2128 1099,2123 1095,2120 1091,2120 1086,2121 1080,2125 1069,2134 1067,2139 1069,2143 1072,2145 1083,2153 1101,2162 1115,2167 1139,2168 1147,2170 1150,2175 1152,2183 1157,2186 1176,2187 1189,2193 1197,2194 1209,2194 1218,2200 1237,2222 1246,2215 1254,2215 1259,2217 1264,2222 1265,2227 1256,2228 1260,2237 1271,2244 1278,2244 1283,2241 1286,2238 1286,2234 1279,2213 1295,2205 1307,2197 1312,2195 1311,2193 1305,2192 1301,2192 1301,2187 1304,2180 1304,2175 1302,2158 1299,2154 1301,2150 1312,2142 1312,2130 1303,2123 1302,2120 1305,2117 1312,2114 1325,2115 1346,2119 1364,2119 1377,2112 1382,2108 1385,2102 1387,2098 1391,2095 1405,2090 1417,2089 1434,2091 1441,2091 1447,2088 1471,2088 1475,2087 1478,2084 1479,2078 1477,2067 1482,2060 1493,2051 1501,2047 1519,2038 1532,2034 1543,2028 1554,2019 1555,2009 1554,1997 1557,1989 1559,1985 1554,1979 1553,1974 1559,1966 1577,1951 1582,1946 1591,1943 1599,1944 1604,1952 1608,1953 1620,1947 1628,1943 1637,1945 1649,1948 1660,1945 1669,1941 1676,1942 1697,1940 1721,1940 1747,1942 1751,1943 1756,1947 1764,1953 1765,1961 1766,1971 1767,1974 1772,1979 1780,1988 1786,1992 1791,1995 1794,1999 1795,2030 1798,2036 1812,2037 1829,2035 1856,2028 1867,2029 1875,2033 1880,2039 1885,2040 1893,2040 1898,2045 1905,2050 1915,2052 1922,2053 1925,2057 1924,2070 1929,2076 1929,2081 1928,2086 1932,2088 1937,2089 1937,2092 1930,2093 1926,2097 1921,2109 1918,2123 1921,2129 1929,2136 1939,2141 1940,2145 1938,2151 1942,2153 1949,2155 1952,2161 1952,2171 1948,2178 1945,2182 1945,2190 1947,2196 1954,2198 1962,2196 1961,2193 1956,2186 1959,2183 1969,2179 1983,2170 1984,2164 1997,2158 2006,2152 2018,2142 2022,2132 2026,2113 2030,2103 2036,2099 2047,2098 2055,2095 2058,2088 2059,2082 2068,2079 2083,2077 2087,2079 2089,2082 2091,2089 2095,2091 2098,2090 2105,2080 2117,2079 2120,2076 2122,2074 2135,2075 2141,2070 2143,2066 2146,2062 2157,2062 2173,2061 2176,2059 2181,2057 2182,2054 2185,2052 2197,2051 2217,2052 2224,2050 2231,2037 2236,2033 2278,2032 2333,2033 2347,2033 2351,2031 2355,2025 2361,2027 2364,2029 2370,2028 2384,2028 2388,2030 2393,2036 2400,2036 2407,2031 2408,2028 2414,2029 2416,2032 2416,2036 2416,2045 2421,2049 2428,2052 2441,2054 2452,2053 2457,2051 2464,2042 2468,2041 2487,2051 2492,2052 2503,2051 2511,2047 2516,2045 2522,2046 2537,2050 2541,2054 2543,2063 2544,2068 2550,2070 2558,2070 2564,2066 2568,2062 2577,2092 2581,2104 2593,2105 2596,2107 2598,2111 2599,2123 2603,2125 2612,2124 2613,2120 2614,2114 2619,2112 2623,2114 2624,2120 2624,2124 2630,2124 2646,2126 2651,2130 2654,2135 2656,2142 2656,2153 2651,2175 2642,2201 2640,2212 2638,2236 2638,2241 2640,2244 2647,2248 2657,2249 2669,2248 2670,2245 2670,2237 2673,2234 2676,2234 2677,2239 2680,2242 2687,2242 2691,2240 2692,2234 2693,2230 2700,2229 2701,2235 2703,2238 2710,2239 2720,2234 2727,2231 2737,2230 2738,2225 2742,2222 2759,2218 2770,2216 2775,2217 2778,2220 2781,2226 2786,2227 2824,2227 2832,2226 2835,2222 2827,2211 2831,2207 2842,2207 2847,2206 2855,2197 2865,2186 2870,2186 2871,2190 2875,2193 2881,2192 2887,2188 2892,2188 2905,2191 2909,2192 2914,2199 2919,2206 2924,2209 2932,2214 2933,2218 2936,2222 2946,2221 2950,2219 2964,2204 2978,2200 2984,2199 2989,2201 2995,2208 3000,2210 3020,2211 3030,2214 3036,2223 3040,2236 3041,2243 3046,2244 3054,2241 3062,2233 3071,2224 3086,2215 3099,2213 3112,2217 3115,2220 3116,2224 3116,2238 3113,2251 3106,2263 3088,2279 3092,2287 3091,2290 3079,2302 3068,2308 3046,2315 3039,2319 3037,2322 3030,2334 3022,2339 3012,2343 3009,2351 3014,2364 3009,2367 3008,2370 3007,2378 3000,2382 2984,2385 2976,2390 2962,2401 2957,2410 2955,2418 2955,2431 2953,2437 2951,2440 2943,2444 2941,2447 2942,2450 2945,2452 2957,2458 2961,2461 2962,2469 2965,2477 2972,2482 2978,2488 2979,2497 2967,2527 2964,2531 2952,2538 2950,2546 2947,2551 2945,2556 2946,2564 2945,2569 2940,2575 2916,2584 2906,2590 2918,2600 2927,2603 2937,2605 2945,2612 2957,2629 2965,2635 2976,2635 2995,2632 2992,2688 2973,2696 2951,2695 2919,2693 2877,2700 2853,2723 2814,2747 2789,2766 2774,2794 2767,2816 2757,2845 2746,2863 2722,2867 2686,2869 2641,2878 2613,2884 2579,2899 2561,2914 2546,2935 2542,2965 2542,2968 2538,2991 2532,3016 2530,3034 2536,3061 2534,3074 2524,3077 2512,3084 2501,3091 2497,3100 2497,3115 2490,3129 2474,3141 2454,3145 2442,3146 2430,3146 2417,3156 2406,3162 2395,3169 2387,3163 2382,3153 2385,3146 2388,3138 2387,3133 2376,3134 2365,3141 2360,3147 2364,3164 2364,3170 2357,3180 2342,3188 2324,3195 2309,3192 2302,3187 2302,3180 2305,3173 2303,3168 2297,3165 2284,3171 2275,3177 2262,3189 2251,3196 2236,3199 2224,3194 2210,3190 2203,3189 2190,3194 2179,3196 2167,3194 2163,3190 2157,3190 2156,3196 2162,3208 2163,3219 2157,3225 2143,3228 2131,3225 2130,3221 2129,3213 2126,3207 2123,3201 2115,3200 2098,3207 2087,3214 2075,3223 2083,3230 2088,3237 2093,3245 2089,3250 2080,3248 2070,3245 2058,3246 2050,3252 2050,3262 2054,3283 2056,3297 2061,3303 2062,3309 2052,3314 2041,3312 2035,3314 2027,3315 2017,3315 2006,3317 1995,3313 1992,3314 1990,3318 1990,3330 1990,3334 1988,3337 1980,3339 1963,3333 1946,3333 1925,3337 1918,3342 1917,3356 1921,3364 1925,3366 1928,3374 1931,3380 1940,3384 1942,3390 1941,3395 1938,3399 1931,3402 1920,3403 1903,3400 1899,3392 1900,3377 1900,3369 1897,3362 1889,3357 1889,3339 1886,3330 1881,3329 1876,3332 1875,3361 1866,3372 1865,3375 1867,3386 1863,3392 1854,3392 1852,3383 1848,3387 1847,3391 1837,3390 1833,3392 1835,3398 1842,3409 1842,3415 1832,3422 1830,3425 1836,3431 1837,3434 1834,3437 1829,3440 1822,3441 1809,3439 1800,3432 1796,3428 1788,3424 1774,3423 1761,3427 1751,3428 1729,3425 1711,3426 1707,3426 1704,3423 1705,3419 1711,3418 1718,3418 1719,3415 1719,3412 1723,3411 1734,3408 1738,3404 1739,3400 1739,3389 1732,3376 1728,3371 1723,3369 1713,3371 1708,3373 1703,3372 1699,3370 1697,3367 1690,3362 1685,3360 1678,3360 1674,3361 1672,3364 1671,3371 1671,3385 1669,3398 1667,3401 1663,3403 1648,3404 1642,3407 1636,3414 1633,3416 1626,3417 1616,3412 1613,3409 1609,3408 1598,3409 1590,3409 1584,3407 1576,3402 1572,3349 1569,3327 1565,3324 1557,3323 1538,3325 1522,3332 1517,3337 1511,3337 1505,3338 1504,3345 1502,3349 1495,3350 1490,3353 1487,3360 1501,3375 1485,3393 1492,3402 1476,3416 1468,3407 1473,3399 1429,3397 1420,3400 1421,3427 1439,3429 1428,3442 1427,3454 1431,3468 1432,3472 1430,3475 1418,3479 1413,3478 1410,3472 1391,3473 1389,3469 1388,3454 1384,3451 1378,3453 1377,3458 1378,3473 1378,3477 1375,3480 1369,3480 1364,3477 1355,3477 1352,3485 1349,3488 1343,3488 1332,3482 1323,3482 1318,3486 1315,3491 1310,3494 1296,3493 1291,3498 1286,3500 1281,3499 1277,3496 1270,3486 1270,3476 1275,3460 1277,3453 1275,3451 1268,3450 1264,3445 1263,3438 1266,3431 1267,3426 1262,3424 1260,3419 1262,3412 1276,3403 1283,3394 1283,3377 1284,3373 1287,3371 1296,3373 1303,3375 1308,3372 1311,3361 1315,3353 1316,3347 1305,3338 1293,3333 1287,3334 1276,3340 1270,3341 1259,3338 1252,3338 1250,3342 1249,3348 1246,3352 1238,3364 1230,3368 1219,3367 1209,3364 1207,3358 1208,3348 1206,3345 1203,3344 1197,3343 1190,3350 1186,3353 1183,3346 1175,3343 1160,3343 1157,3348 1157,3359 1146,3361 1140,3361 1135,3358 1131,3354 1129,3348 1126,3331 1078,3300 1071,3293 1069,3283 1067,3278 1063,3277 1053,3272 1045,3263 1041,3256 1035,3250 1025,3243 1009,3238 1007,3225 1004,3219 992,3214 984,3210 979,3204 974,3197 967,3191 964,3188 963,3184 962,3169 959,3163 947,3152 940,3142 941,3131 944,3119 943,3113 927,3094 925,3090 926,3086 931,3076 936,3069 937,3062 936,3049 932,3040 930,3036 930,3030 933,3021 938,3014 939,3009 941,2987 937,2950 938,2942 944,2932 947,2921 945,2910 941,2902 936,2901 934,2903 937,2910 941,2917 940,2921 934,2923 918,2923 911,2922 905,2918 898,2914 890,2915 882,2921 873,2932 866,2943 867,2947 871,2951 874,2961 874,2979 871,2991 866,2995 860,2997 844,2997 839,2994 837,2989 835,2983 835,2971 836,2966 840,2960 853,2943 853,2938 846,2931 838,2927 831,2928 825,2935 824,2947 823,2951 817,2954 797,2955 789,2952 786,2943 785,2935 780,2932 724,2915 713,2912 702,2905 696,2879 687,2873 648,2872 629,2870 623,2867 623,2859 622,2855 614,2854 604,2852 597,2858 586,2873 553,2922 537,2961 532,2967 524,2968 509,2964 497,2958 494,2950 493,2947 494,2934 483,2923 475,2918 469,2918 465,2925 461,2928 454,2925 447,2924 441,2928 438,2930 427,2930 422,2932 418,2938 414,2939 399,2940 399,2948 398,2951 394,2953 383,2952 378,2949 375,2942 372,2938 365,2937 356,2936 351,2932 350,2929 352,2922 350,2920 343,2920 335,2917 330,2909 327,2903 321,2901 320,2897 321,2889 319,2888 310,2888 306,2888 303,2885 298,2873 296,2869 291,2869 289,2864 292,2853 300,2850 303,2847 301,2842 297,2840 290,2842 280,2849 273,2855 254,2863 244,2867 233,2865 217,2859 214,2858 213,2855 215,2851 221,2849 224,2845 224,2838 220,2836 217,2838 214,2840 202,2842 188,2842 179,2836 175,2826 173,2809 176,2804 186,2795 194,2783 196,2777 195,2773 189,2766 177,2764 170,2763 165,2760 147,2751 136,2743 132,2736 132,2728 136,2721 137,2715 133,2706 128,2685 110,2679 81,2680 71,2687 66,2688 63,2683 63,2672 59,2668 50,2668 18,2675 7,2675 1,2671 0,2663 1,2625 4,2616 12,2611 24,2611 43,2614 57,2615 67,2611 70,2604 70,2592 89,2577 94,2572 95,2564 99,2563 110,2568 114,2568 114,2565 115,2562 118,2560 124,2559 126,2557 123,2553 116,2551 110,2549 109,2545 108,2539 104,2541 102,2547 99,2549 95,2548 95,2537 92,2534 90,2532 90,2528 93,2522 93,2516 89,2511 81,2510 77,2509 76,2506 75,2501 72,2499 72,2494 72,2483 68,2476 61,2473 51,2472 12,2465 33,2387 49,2331 74,2244 87,2241 123,2249 131,2251 135,2249 145,2227 157,2183 161,2173 161,2153 155,2133 137,2101 171,2111 185,2115 193,2105 209,2093 169,2091 167,2088 211,2049 207,2029 209,1983 248,1918 259,1883 265,1869 269,1849 277,1817 294,1811 314,1803 314,1797 303,1794 293,1788 289,1781 302,1767 305,1757 305,1743 313,1733 345,1737 347,1732 356,1714 367,1704 390,1699 430,1683 462,1670 497,1670 518,1665 535,1666 544,1617 550,1585 554,1580 584,1575 603,1576 606,1572 594,1537 599,1530 602,1528 " class="polyStyle" id="370923" style="fill:#d4ecb2"/>
<path d="" class="polyStyle" id="340823" style="fill:#d4ecb2"/>
<path d="" class="polyStyle" id="620825" style="fill:#d4ecb2"/>
<path d="" class="polyStyle" id="421125" style="fill:#ee8b94"/>
<path d="" class="polyStyle" id="210281" style="fill:#ee8b94"/>
<path d="" class="polyStyle" id="440883" style="fill:#f6f67b"/>
<path d="" class="polyStyle" id="469006" style="fill:#d4ecb2"/>
<path d="" class="polyStyle" id="469002" style="fill:#ee8b94"/>
<path d="" class="polyStyle" id="469005" style="fill:#fbe6ef"/>
<path d="" class="polyStyle" id="440882" style="fill:#ee8b94"/>
<path d="" class="polyStyle" id="450681" style="fill:#ee8b94"/>
<path d="" class="polyStyle" id="441581" style="fill:#d4ecb2"/>
<path d="" class="polyStyle" id="421087" style="fill:#ee8b94"/>
<path d="" class="polyStyle" id="420984" style="fill:#fbe6ef"/>
<path d="" class="polyStyle" id="420582" style="fill:#ee8b94"/>
<polygon points="7481,1832 7484,1833 7485,1836 7487,1840 7496,1842 7498,1855 7505,1866 7506,1871 7504,1893 7507,1900 7512,1905 7516,1909 7516,1916 7515,1931 7520,1941 7529,1949 7538,1952 7547,1957 7566,1972 7574,1976 7585,1973 7591,1972 7598,1974 7606,1978 7614,1985 7622,1991 7630,1992 7634,1993 7647,2002 7655,2002 7664,1996 7684,1986 7690,1985 7702,1991 7711,1996 7714,1996 7717,1996 7721,1993 7728,1986 7734,1983 7739,1980 7747,1979 7754,1980 7760,1983 7788,1997 7800,2006 7804,2011 7807,2019 7811,2026 7815,2029 7820,2031 7827,2031 7849,2028 7854,2026 7859,2022 7865,2020 7872,2022 7879,2028 7884,2033 7892,2034 7904,2037 7912,2045 7915,2050 7920,2054 7929,2057 7936,2058 7949,2063 7971,2067 7983,2068 7986,2070 7986,2075 7979,2089 7979,2092 7986,2097 8003,2100 8015,2104 8019,2107 8022,2112 8027,2123 8037,2127 8050,2127 8069,2122 8080,2123 8096,2131 8113,2138 8132,2142 8149,2145 8162,2145 8180,2137 8189,2130 8192,2125 8195,2119 8204,2115 8209,2114 8216,2116 8233,2129 8254,2141 8260,2143 8272,2154 8280,2157 8295,2159 8314,2169 8319,2172 8323,2172 8337,2173 8345,2176 8351,2184 8358,2193 8371,2193 8384,2195 8391,2200 8396,2206 8395,2210 8386,2217 8388,2220 8397,2222 8399,2231 8405,2233 8425,2231 8440,2231 8447,2230 8452,2227 8468,2206 8480,2201 8484,2201 8487,2205 8492,2216 8497,2219 8501,2222 8503,2232 8507,2238 8513,2239 8518,2239 8522,2241 8529,2248 8558,2284 8555,2291 8544,2305 8529,2319 8526,2325 8527,2331 8530,2336 8533,2340 8537,2341 8543,2343 8547,2350 8556,2366 8556,2375 8553,2387 8567,2417 8572,2424 8580,2429 8587,2432 8591,2431 8593,2428 8596,2427 8605,2425 8616,2422 8620,2418 8624,2413 8634,2411 8654,2405 8670,2406 8680,2403 8686,2397 8686,2387 8702,2373 8702,2360 8700,2354 8697,2352 8685,2347 8685,2345 8701,2330 8721,2322 8742,2308 8759,2305 8766,2307 8770,2310 8777,2316 8787,2317 8819,2312 8830,2313 8833,2315 8835,2319 8837,2326 8841,2328 8844,2325 8844,2315 8846,2312 8855,2310 8865,2311 8871,2318 8873,2321 8877,2323 8888,2321 8896,2317 8902,2316 8906,2317 8909,2320 8915,2337 8920,2341 8929,2339 8936,2332 8944,2326 8956,2327 8986,2343 8994,2345 8997,2344 8998,2341 8994,2334 8982,2323 8986,2318 8991,2316 8995,2317 9002,2324 9007,2326 9018,2327 9021,2329 9035,2348 9044,2348 9053,2342 9064,2334 9078,2332 9089,2335 9100,2344 9116,2343 9121,2341 9123,2338 9126,2328 9130,2325 9141,2325 9144,2322 9145,2318 9145,2300 9148,2296 9153,2296 9160,2300 9173,2300 9179,2299 9184,2296 9199,2283 9214,2287 9223,2287 9226,2290 9228,2293 9231,2294 9234,2293 9236,2290 9239,2286 9246,2282 9247,2279 9248,2271 9252,2269 9261,2268 9267,2264 9273,2262 9279,2269 9282,2275 9285,2277 9293,2280 9353,2280 9357,2282 9361,2288 9365,2289 9373,2292 9379,2298 9381,2301 9384,2302 9391,2303 9394,2306 9396,2316 9398,2322 9403,2329 9408,2335 9409,2341 9406,2350 9408,2355 9412,2357 9423,2358 9445,2356 9451,2356 9455,2364 9458,2371 9465,2374 9469,2377 9471,2387 9471,2399 9469,2403 9468,2409 9474,2424 9475,2434 9480,2437 9478,2441 9462,2452 9463,2457 9466,2460 9469,2462 9466,2467 9464,2472 9465,2482 9468,2489 9471,2493 9475,2495 9480,2499 9481,2505 9480,2513 9484,2517 9503,2517 9504,2541 9505,2566 9513,2583 9515,2589 9514,2595 9515,2599 9519,2600 9527,2601 9532,2604 9536,2605 9545,2602 9552,2600 9559,2596 9554,2592 9554,2586 9563,2578 9564,2573 9565,2569 9577,2567 9580,2565 9593,2555 9602,2549 9615,2541 9621,2534 9628,2532 9640,2534 9647,2533 9658,2531 9669,2533 9684,2537 9700,2520 9711,2514 9719,2512 9733,2515 9739,2517 9742,2520 9743,2524 9737,2525 9724,2529 9719,2531 9717,2534 9718,2542 9716,2545 9712,2549 9712,2554 9712,2560 9708,2565 9701,2571 9699,2575 9699,2584 9697,2588 9699,2592 9701,2596 9700,2607 9711,2632 9713,2644 9715,2657 9712,2670 9707,2679 9708,2683 9711,2682 9717,2679 9726,2678 9741,2680 9748,2685 9749,2698 9751,2700 9757,2701 9765,2699 9769,2699 9771,2702 9771,2705 9768,2707 9764,2709 9759,2709 9748,2704 9739,2704 9739,2710 9736,2712 9727,2716 9723,2721 9722,2725 9728,2728 9736,2734 9739,2737 9743,2738 9753,2736 9765,2734 9770,2735 9772,2738 9781,2738 9787,2738 9788,2745 9789,2760 9785,2765 9770,2767 9766,2770 9765,2788 9764,2794 9763,2797 9759,2800 9758,2805 9762,2812 9761,2819 9756,2824 9741,2829 9737,2830 9734,2834 9731,2837 9723,2838 9702,2847 9683,2854 9675,2860 9670,2877 9669,2888 9672,2901 9676,2932 9674,2938 9667,2941 9649,2945 9636,2947 9629,2951 9618,2959 9612,2964 9610,2968 9610,2973 9608,2977 9604,2980 9603,2984 9599,2986 9593,2987 9593,2991 9600,2993 9599,3001 9597,3007 9591,3005 9585,3008 9581,3013 9579,3019 9582,3025 9587,3029 9581,3030 9579,3034 9579,3038 9576,3039 9558,3037 9548,3032 9537,3032 9523,3027 9518,3028 9514,3031 9504,3026 9502,3014 9480,3000 9471,2999 9464,3001 9453,3003 9446,3001 9445,2996 9440,2995 9434,2998 9429,2998 9423,2995 9422,2990 9422,2986 9419,2982 9401,2974 9391,2976 9386,2969 9390,2961 9386,2957 9381,2955 9373,2956 9372,2960 9375,2963 9381,2963 9379,2969 9368,2968 9362,2970 9356,2974 9348,2975 9333,2973 9325,2970 9319,2962 9311,2964 9305,2969 9301,2968 9295,2965 9286,2965 9268,2967 9255,2970 9248,2970 9230,2970 9203,2977 9189,2975 9186,2971 9180,2968 9174,2968 9172,2971 9178,2978 9178,2982 9171,2989 9160,2999 9154,3008 9152,3014 9147,3018 9135,3030 9132,3037 9130,3039 9126,3040 9124,3043 9119,3048 9114,3048 9108,3046 9103,3047 9099,3051 9095,3051 9088,3052 9085,3060 9086,3066 9092,3069 9092,3073 9082,3074 9071,3086 9075,3092 9075,3097 9071,3097 9065,3096 9061,3098 9060,3102 9068,3111 9075,3120 9078,3127 9076,3131 9071,3135 9065,3143 9064,3150 9067,3156 9065,3160 9059,3162 9057,3157 9056,3151 9050,3149 9043,3150 9041,3152 9049,3160 9050,3182 9044,3189 9039,3189 9034,3186 9028,3187 9016,3188 9012,3187 9011,3184 9013,3176 9008,3169 8990,3164 8982,3165 8982,3171 8968,3174 8966,3181 8964,3186 8960,3188 8956,3189 8955,3193 8953,3197 8949,3199 8939,3201 8932,3220 8927,3231 8929,3236 8954,3247 8942,3259 8942,3265 8931,3267 8928,3271 8915,3272 8912,3276 8911,3283 8914,3290 8919,3293 8923,3300 8923,3304 8921,3308 8925,3310 8930,3313 8931,3319 8933,3323 8938,3317 8944,3311 8948,3309 8953,3309 8957,3311 8958,3316 8973,3318 8981,3317 8984,3319 8982,3325 8975,3335 8974,3343 8977,3354 8979,3362 8977,3376 8976,3387 8979,3392 8987,3388 8988,3393 8991,3396 8994,3399 8991,3402 8983,3402 8980,3405 8976,3411 8973,3411 8970,3406 8967,3408 8956,3422 8959,3440 8953,3442 8947,3441 8943,3438 8944,3434 8944,3431 8939,3431 8930,3436 8929,3444 8927,3447 8917,3453 8912,3460 8912,3467 8909,3467 8895,3467 8881,3470 8877,3473 8878,3477 8885,3482 8894,3482 8898,3483 8899,3485 8897,3488 8897,3491 8901,3496 8917,3503 8922,3508 8924,3513 8923,3516 8919,3522 8914,3526 8915,3531 8918,3533 8925,3532 8924,3539 8925,3542 8929,3545 8936,3547 8935,3558 8936,3562 8939,3564 8950,3566 8951,3570 8949,3586 8950,3600 8967,3606 8976,3614 8977,3617 8975,3621 8971,3631 8973,3638 8977,3641 8982,3642 8981,3647 8971,3650 8969,3653 8971,3656 8980,3659 8995,3656 9000,3660 9000,3663 8989,3666 8981,3670 8980,3675 8979,3681 8970,3681 8963,3681 8955,3686 8938,3690 8930,3697 8927,3705 8925,3709 8922,3711 8912,3712 8895,3704 8886,3707 8874,3717 8866,3717 8862,3714 8860,3710 8855,3708 8853,3710 8855,3720 8854,3729 8850,3734 8846,3736 8834,3741 8824,3743 8817,3744 8812,3742 8802,3734 8798,3728 8793,3722 8783,3719 8771,3720 8768,3721 8767,3724 8764,3733 8762,3736 8758,3738 8747,3738 8738,3743 8726,3743 8720,3746 8719,3750 8726,3757 8724,3760 8718,3760 8710,3759 8707,3762 8706,3772 8704,3775 8701,3776 8695,3774 8692,3770 8693,3766 8696,3758 8696,3752 8686,3748 8674,3746 8656,3750 8639,3751 8618,3757 8608,3767 8604,3768 8600,3765 8594,3763 8589,3765 8585,3774 8572,3790 8565,3793 8558,3792 8552,3792 8547,3800 8544,3825 8532,3838 8523,3840 8515,3839 8501,3832 8474,3826 8461,3825 8449,3827 8425,3827 8418,3817 8411,3813 8398,3812 8392,3809 8386,3802 8378,3797 8369,3794 8364,3790 8360,3784 8354,3780 8333,3775 8324,3767 8320,3766 8312,3767 8307,3770 8305,3773 8301,3773 8276,3775 8261,3777 8253,3776 8233,3771 8217,3778 8195,3779 8188,3780 8186,3785 8189,3790 8202,3795 8217,3800 8221,3803 8221,3806 8218,3810 8211,3816 8205,3817 8190,3812 8185,3812 8173,3817 8168,3819 8164,3823 8154,3838 8148,3839 8124,3848 8100,3847 8089,3849 8081,3847 8078,3845 8074,3847 8069,3847 8051,3845 8040,3849 8027,3866 8022,3870 8010,3868 8004,3865 8001,3861 7995,3851 7989,3847 7974,3846 7965,3850 7952,3859 7940,3862 7904,3864 7899,3865 7897,3869 7890,3869 7882,3863 7879,3865 7877,3870 7887,3874 7889,3878 7886,3884 7883,3889 7884,3895 7883,3900 7876,3900 7871,3900 7864,3906 7863,3910 7871,3918 7870,3924 7867,3927 7851,3933 7835,3946 7830,3953 7827,3974 7829,3984 7826,3987 7813,3992 7810,3994 7809,3997 7810,4000 7813,4002 7822,4005 7826,4006 7828,4009 7823,4014 7815,4015 7803,4010 7800,4013 7798,4022 7788,4047 7787,4060 7783,4068 7771,4077 7768,4081 7769,4088 7774,4090 7783,4092 7785,4096 7783,4113 7786,4130 7786,4139 7783,4146 7775,4157 7773,4169 7777,4181 7781,4184 7785,4185 7786,4189 7783,4198 7782,4203 7777,4204 7754,4207 7747,4212 7739,4222 7738,4215 7730,4207 7716,4198 7697,4190 7682,4183 7679,4180 7678,4176 7677,4166 7672,4160 7663,4148 7656,4144 7648,4141 7641,4133 7635,4129 7630,4128 7616,4127 7603,4133 7596,4132 7589,4127 7586,4121 7576,4109 7574,4106 7573,4095 7567,4085 7558,4077 7526,4069 7520,4065 7517,4057 7515,4054 7507,4050 7503,4047 7502,4041 7499,4031 7492,4023 7479,4012 7475,4006 7476,3998 7481,3990 7489,3984 7489,3980 7478,3977 7477,3973 7478,3968 7476,3964 7473,3961 7469,3961 7460,3965 7452,3972 7443,3977 7432,3977 7421,3964 7417,3963 7403,3971 7395,3972 7382,3969 7380,3966 7380,3962 7379,3951 7372,3941 7366,3936 7364,3926 7365,3911 7371,3902 7383,3893 7387,3889 7391,3890 7398,3890 7402,3886 7404,3880 7409,3876 7421,3874 7424,3873 7427,3869 7431,3858 7431,3846 7423,3835 7408,3826 7385,3826 7364,3821 7356,3819 7346,3821 7327,3821 7322,3824 7318,3833 7314,3835 7309,3830 7304,3829 7285,3835 7264,3833 7255,3833 7254,3837 7253,3841 7247,3843 7231,3844 7224,3840 7226,3828 7225,3825 7213,3812 7203,3800 7201,3796 7202,3793 7210,3786 7211,3782 7208,3772 7208,3767 7203,3766 7193,3765 7186,3759 7166,3733 7140,3742 7137,3741 7136,3737 7135,3732 7130,3731 7123,3727 7120,3719 7120,3714 7123,3710 7124,3705 7119,3701 7112,3698 7112,3692 7109,3689 7107,3685 7107,3676 7107,3672 7102,3669 7092,3665 7090,3661 7089,3654 7084,3654 7077,3661 7078,3665 7088,3672 7090,3676 7091,3683 7094,3687 7099,3693 7097,3694 7091,3692 7086,3688 7079,3676 7065,3673 7052,3675 7045,3684 7041,3685 7016,3683 7002,3680 6981,3672 6974,3667 6968,3663 6960,3662 6957,3661 6955,3657 6956,3650 6964,3642 6964,3639 6958,3635 6944,3633 6940,3631 6936,3625 6936,3614 6932,3601 6931,3596 6934,3586 6932,3580 6929,3577 6925,3576 6909,3584 6904,3587 6900,3584 6896,3579 6889,3577 6880,3577 6879,3555 6881,3550 6885,3548 6897,3546 6903,3543 6903,3536 6901,3532 6896,3529 6879,3525 6862,3512 6853,3508 6851,3503 6849,3496 6845,3495 6833,3497 6819,3496 6817,3500 6820,3516 6820,3522 6817,3525 6813,3526 6808,3524 6807,3516 6803,3514 6800,3515 6798,3518 6797,3523 6794,3526 6790,3527 6777,3526 6771,3529 6766,3539 6761,3541 6749,3539 6742,3541 6727,3551 6707,3548 6693,3545 6689,3542 6688,3539 6691,3529 6687,3523 6671,3520 6668,3517 6673,3513 6673,3510 6668,3509 6656,3502 6646,3502 6645,3506 6647,3511 6650,3512 6650,3516 6645,3517 6638,3514 6634,3514 6629,3517 6624,3515 6620,3516 6611,3522 6607,3521 6602,3515 6601,3508 6604,3497 6600,3496 6579,3501 6574,3503 6572,3508 6570,3511 6566,3513 6557,3510 6556,3504 6560,3498 6567,3491 6566,3484 6559,3473 6552,3473 6549,3477 6552,3483 6553,3488 6547,3489 6538,3485 6528,3477 6517,3469 6508,3468 6490,3475 6487,3477 6482,3477 6477,3476 6476,3473 6480,3466 6479,3462 6468,3451 6457,3443 6450,3438 6449,3432 6454,3425 6455,3421 6452,3416 6442,3413 6434,3410 6435,3407 6435,3401 6430,3400 6424,3401 6419,3397 6414,3391 6408,3391 6396,3394 6392,3400 6392,3406 6386,3407 6379,3405 6371,3398 6365,3398 6362,3404 6363,3410 6368,3412 6371,3415 6370,3419 6364,3420 6355,3414 6349,3412 6340,3405 6316,3386 6304,3379 6300,3379 6297,3382 6289,3390 6277,3397 6278,3390 6262,3376 6256,3371 6255,3375 6254,3378 6250,3378 6245,3377 6239,3373 6235,3372 6227,3374 6223,3370 6220,3362 6221,3348 6219,3343 6209,3336 6206,3331 6209,3328 6212,3323 6208,3320 6207,3315 6206,3310 6198,3312 6191,3312 6188,3303 6186,3299 6180,3304 6176,3306 6175,3296 6174,3291 6163,3291 6158,3290 6158,3287 6161,3283 6160,3280 6155,3277 6150,3276 6147,3278 6145,3281 6142,3282 6138,3282 6135,3280 6134,3277 6139,3266 6139,3262 6137,3259 6127,3253 6118,3247 6119,3242 6120,3238 6116,3230 6115,3225 6119,3216 6120,3210 6124,3202 6127,3200 6136,3201 6135,3196 6129,3194 6127,3188 6131,3180 6143,3172 6148,3167 6150,3161 6149,3158 6144,3153 6145,3150 6151,3149 6155,3148 6153,3145 6145,3136 6147,3132 6154,3131 6162,3130 6164,3125 6163,3121 6160,3119 6155,3118 6152,3113 6147,3106 6134,3104 6128,3104 6125,3102 6120,3096 6117,3092 6113,3091 6087,3091 6079,3091 6074,3089 6071,3085 6071,3070 6067,3067 6049,3063 6039,3058 6027,3048 6015,3045 6014,3042 6015,3038 6019,3029 6020,3019 6016,2998 6022,2993 6027,2990 6030,2986 6036,2977 6041,2967 6044,2963 6049,2957 6055,2954 6058,2953 6062,2952 6065,2952 6068,2952 6071,2952 6083,2954 6087,2955 6092,2956 6097,2959 6104,2963 6117,2973 6123,2977 6128,2979 6134,2980 6143,2983 6150,2984 6157,2984 6166,2984 6181,2983 6191,2983 6198,2982 6201,2981 6205,2980 6208,2978 6213,2974 6216,2972 6216,2969 6217,2966 6218,2963 6218,2959 6218,2954 6217,2946 6216,2939 6216,2935 6216,2930 6219,2920 6224,2911 6231,2899 6234,2894 6235,2890 6236,2883 6239,2868 6242,2859 6245,2851 6250,2842 6256,2834 6263,2826 6268,2822 6273,2818 6279,2815 6291,2810 6306,2802 6315,2798 6321,2794 6333,2786 6331,2769 6327,2764 6322,2765 6315,2765 6314,2762 6315,2759 6320,2748 6319,2743 6317,2737 6320,2730 6334,2720 6339,2717 6351,2715 6355,2713 6357,2710 6360,2706 6362,2699 6365,2673 6368,2663 6371,2654 6378,2653 6389,2652 6392,2647 6393,2643 6398,2642 6401,2640 6402,2633 6412,2625 6416,2605 6419,2600 6418,2596 6412,2586 6412,2580 6414,2572 6412,2567 6402,2560 6398,2555 6397,2548 6401,2547 6408,2546 6410,2542 6412,2532 6412,2526 6408,2526 6402,2531 6400,2523 6397,2519 6393,2518 6387,2520 6378,2516 6372,2511 6360,2502 6355,2502 6356,2498 6356,2493 6349,2491 6335,2496 6320,2497 6315,2495 6313,2489 6317,2485 6331,2483 6333,2462 6330,2459 6325,2459 6316,2463 6312,2469 6308,2475 6303,2474 6301,2471 6302,2468 6306,2463 6316,2459 6318,2457 6319,2452 6322,2448 6321,2446 6315,2444 6301,2451 6298,2448 6301,2444 6315,2440 6315,2431 6312,2428 6305,2426 6304,2422 6309,2416 6315,2413 6323,2409 6328,2404 6332,2400 6337,2398 6342,2396 6348,2396 6356,2396 6363,2394 6380,2382 6379,2374 6381,2370 6398,2361 6403,2357 6405,2349 6406,2339 6409,2334 6415,2329 6417,2325 6417,2319 6421,2314 6429,2308 6438,2305 6448,2303 6450,2297 6451,2290 6455,2282 6459,2272 6456,2267 6450,2262 6449,2257 6450,2254 6456,2246 6468,2235 6477,2230 6488,2227 6515,2222 6541,2222 6546,2220 6548,2217 6558,2212 6565,2211 6575,2216 6582,2219 6591,2218 6600,2217 6606,2219 6642,2224 6652,2212 6661,2210 6667,2214 6676,2217 6693,2216 6728,2206 6739,2205 6744,2202 6745,2199 6748,2197 6758,2194 6762,2194 6767,2197 6777,2209 6781,2218 6780,2229 6788,2237 6802,2244 6807,2246 6811,2250 6815,2260 6815,2276 6818,2281 6831,2288 6850,2279 6854,2273 6850,2264 6852,2260 6859,2253 6870,2247 6887,2242 6896,2236 6900,2231 6903,2226 6907,2223 6921,2223 6926,2220 6930,2213 6938,2208 6960,2206 6963,2204 6962,2195 6964,2191 6966,2187 6971,2185 6983,2183 6987,2180 6992,2174 6998,2172 7013,2179 7027,2179 7037,2175 7054,2165 7059,2164 7061,2159 7059,2146 7052,2135 7046,2131 7043,2129 7039,2129 7032,2129 7025,2133 7015,2137 7012,2136 7012,2132 7017,2127 7039,2114 7048,2109 7067,2105 7088,2099 7095,2097 7102,2092 7108,2087 7111,2082 7109,2076 7100,2071 7098,2068 7100,2064 7106,2062 7108,2056 7106,2050 7098,2046 7096,2042 7095,2032 7086,2023 7072,2012 7064,2001 7060,1994 7054,1993 7047,1990 7047,1986 7050,1981 7047,1975 7041,1965 7040,1953 7042,1947 7057,1940 7066,1935 7072,1936 7086,1940 7099,1941 7109,1937 7114,1931 7121,1934 7125,1934 7126,1931 7132,1928 7137,1929 7142,1933 7146,1934 7154,1930 7160,1935 7164,1931 7164,1927 7166,1923 7175,1919 7179,1913 7179,1909 7177,1906 7176,1902 7179,1895 7192,1881 7202,1877 7215,1876 7224,1879 7229,1888 7231,1894 7241,1895 7247,1893 7251,1887 7254,1884 7262,1882 7282,1880 7296,1884 7310,1893 7321,1897 7329,1904 7334,1909 7340,1912 7345,1912 7348,1909 7348,1901 7347,1897 7344,1894 7344,1889 7348,1884 7361,1869 7370,1862 7376,1860 7387,1857 7394,1852 7414,1838 7416,1825 7424,1829 7429,1835 7433,1837 7443,1837 7443,1833 7443,1826 7448,1825 7470,1831 " class="polyStyle" id="370982" style="fill:#fbe6ef"/>
<polygon points="3675,797 3676,803 3676,812 3680,815 3708,815 3720,817 3728,821 3734,824 3744,824 3752,824 3757,829 3762,830 3766,830 3771,827 3779,828 3783,830 3785,833 3788,838 3791,836 3795,836 3801,843 3806,850 3807,858 3808,871 3813,879 3832,896 3833,904 3835,907 3842,906 3848,900 3851,897 3858,895 3864,895 3869,897 3879,901 3893,902 3920,905 3927,905 3939,900 3965,897 3982,896 3991,893 4006,876 4014,871 4027,870 4045,870 4049,872 4051,875 4051,879 4048,882 4035,889 4033,891 4038,896 4042,899 4046,909 4049,929 4055,942 4068,951 4082,954 4088,957 4100,969 4094,974 4093,977 4095,985 4097,988 4100,989 4110,990 4112,996 4113,1026 4121,1029 4124,1031 4125,1034 4126,1051 4128,1059 4135,1064 4153,1066 4177,1070 4189,1074 4194,1083 4197,1099 4204,1102 4223,1104 4228,1103 4239,1132 4256,1161 4225,1192 4227,1199 4225,1205 4215,1210 4213,1215 4209,1217 4202,1217 4201,1222 4205,1247 4205,1263 4204,1268 4201,1271 4196,1273 4190,1273 4172,1272 4165,1277 4162,1282 4161,1289 4154,1294 4137,1303 4133,1307 4132,1312 4133,1321 4138,1328 4139,1332 4135,1334 4129,1335 4125,1339 4121,1345 4117,1345 4107,1339 4101,1338 4098,1339 4095,1343 4081,1342 4077,1342 4074,1344 4063,1353 4053,1358 4050,1362 4048,1365 4044,1366 4034,1367 4032,1369 4037,1384 4036,1388 4033,1390 4026,1392 4007,1395 4001,1398 3999,1402 4000,1408 4010,1418 4010,1421 4006,1427 4001,1434 4000,1441 3998,1450 3991,1455 3982,1457 3979,1462 3983,1471 3986,1470 3990,1463 3993,1464 4002,1473 4006,1475 4007,1479 4014,1480 4021,1475 4025,1474 4032,1479 4035,1480 4039,1473 4041,1470 4045,1471 4048,1473 4048,1477 4047,1481 4044,1484 4042,1490 4044,1493 4048,1494 4052,1495 4055,1498 4058,1506 4058,1515 4056,1519 4051,1529 4050,1541 4052,1549 4062,1549 4076,1545 4082,1546 4075,1554 4070,1561 4064,1565 4055,1566 4053,1569 4051,1574 4045,1579 4044,1581 4050,1584 4058,1585 4058,1589 4051,1593 4050,1597 4051,1601 4061,1602 4068,1603 4073,1606 4081,1617 4085,1634 4085,1649 4079,1665 4078,1670 4073,1675 4071,1680 4072,1687 4072,1700 4080,1696 4083,1695 4085,1691 4089,1685 4095,1682 4100,1683 4102,1688 4117,1689 4115,1702 4118,1705 4123,1704 4128,1702 4130,1697 4131,1694 4134,1692 4139,1690 4148,1690 4160,1690 4168,1687 4180,1681 4191,1679 4199,1682 4201,1686 4201,1691 4197,1697 4188,1700 4187,1706 4189,1709 4193,1713 4194,1718 4190,1721 4181,1719 4172,1718 4161,1721 4150,1729 4145,1730 4142,1727 4141,1723 4137,1718 4132,1720 4128,1725 4127,1730 4125,1734 4117,1737 4108,1736 4103,1739 4091,1748 4089,1751 4089,1755 4091,1760 4097,1765 4116,1775 4184,1778 4191,1779 4194,1781 4197,1783 4198,1788 4200,1797 4204,1800 4204,1806 4197,1809 4196,1815 4192,1820 4191,1824 4195,1830 4202,1837 4204,1843 4207,1847 4217,1849 4223,1867 4222,1883 4223,1886 4228,1887 4229,1891 4228,1900 4232,1904 4239,1905 4246,1900 4250,1898 4253,1903 4253,1916 4257,1922 4263,1925 4263,1932 4259,1941 4248,1952 4246,1959 4246,1968 4247,1981 4258,1987 4262,1989 4264,1992 4262,1996 4256,1996 4245,1995 4241,1998 4235,2006 4232,2009 4228,2010 4209,2009 4202,2011 4198,2014 4195,2020 4194,2028 4191,2030 4163,2032 4154,2032 4147,2028 4142,2027 4140,2029 4137,2049 4134,2059 4129,2066 4117,2078 4114,2086 4115,2090 4119,2091 4124,2091 4132,2088 4161,2075 4173,2077 4179,2075 4187,2074 4201,2076 4229,2072 4233,2071 4237,2073 4252,2085 4277,2088 4290,2088 4296,2073 4293,2068 4293,2065 4296,2059 4300,2057 4309,2057 4311,2053 4314,2050 4323,2053 4332,2055 4343,2055 4352,2056 4355,2061 4356,2068 4361,2067 4364,2061 4369,2064 4372,2070 4374,2076 4381,2076 4396,2077 4401,2081 4403,2085 4407,2085 4410,2087 4408,2094 4407,2099 4413,2107 4414,2116 4416,2118 4427,2118 4431,2122 4431,2136 4443,2145 4461,2144 4463,2139 4469,2137 4487,2137 4495,2136 4495,2127 4499,2123 4498,2117 4498,2114 4501,2112 4506,2112 4509,2118 4513,2120 4517,2114 4522,2112 4563,2113 4565,2108 4569,2107 4588,2107 4596,2111 4602,2119 4609,2120 4617,2119 4621,2123 4625,2127 4632,2127 4641,2127 4644,2132 4643,2136 4636,2138 4632,2141 4631,2148 4632,2165 4635,2172 4642,2174 4657,2173 4659,2180 4659,2190 4661,2192 4671,2183 4689,2182 4693,2184 4693,2195 4695,2197 4705,2196 4706,2200 4706,2213 4707,2216 4710,2217 4729,2214 4731,2218 4730,2223 4725,2233 4718,2237 4714,2239 4714,2245 4712,2255 4708,2258 4694,2260 4690,2261 4688,2264 4685,2288 4683,2291 4679,2293 4671,2294 4654,2294 4644,2297 4637,2307 4634,2317 4633,2335 4631,2342 4628,2361 4619,2359 4618,2365 4607,2370 4601,2375 4599,2382 4599,2391 4591,2397 4584,2398 4568,2394 4553,2394 4547,2398 4547,2404 4544,2407 4540,2412 4542,2419 4547,2429 4546,2434 4522,2442 4518,2444 4516,2447 4517,2450 4520,2452 4525,2454 4535,2454 4561,2454 4571,2452 4574,2447 4577,2446 4585,2450 4589,2448 4596,2441 4602,2438 4612,2449 4617,2450 4618,2455 4621,2466 4622,2470 4618,2473 4614,2475 4613,2480 4615,2484 4621,2486 4621,2489 4617,2490 4611,2491 4608,2492 4606,2495 4608,2501 4599,2509 4591,2514 4589,2516 4589,2524 4589,2532 4586,2536 4580,2539 4578,2546 4577,2555 4579,2559 4579,2576 4580,2579 4583,2581 4594,2586 4595,2588 4591,2591 4584,2592 4582,2596 4588,2607 4605,2629 4558,2629 4522,2629 4490,2633 4465,2639 4434,2641 4401,2646 4374,2657 4343,2664 4313,2665 4293,2674 4282,2688 4271,2714 4264,2725 4243,2743 4209,2754 4184,2763 4158,2777 4125,2793 4094,2795 4067,2800 4045,2830 4036,2855 4026,2882 4000,2900 3974,2917 3945,2924 3918,2927 3891,2926 3859,2911 3831,2897 3798,2894 3770,2886 3740,2881 3723,2868 3709,2881 3684,2908 3655,2929 3619,2944 3588,2951 3552,2955 3517,2951 3491,2936 3476,2925 3470,2916 3457,2890 3456,2872 3454,2850 3456,2844 3462,2833 3462,2823 3453,2811 3438,2799 3424,2797 3408,2788 3388,2785 3360,2784 3354,2789 3326,2793 3315,2790 3310,2782 3304,2785 3296,2788 3290,2789 3278,2783 3266,2781 3252,2777 3242,2776 3233,2776 3224,2776 3213,2779 3206,2776 3194,2770 3183,2763 3175,2757 3163,2747 3158,2739 3156,2734 3162,2729 3144,2727 3140,2724 3130,2718 3126,2714 3123,2707 3119,2695 3113,2687 3107,2682 3101,2680 3088,2679 3078,2679 3062,2677 3043,2676 3029,2676 3017,2677 3009,2681 2992,2688 2995,2632 2976,2635 2965,2635 2957,2629 2945,2612 2937,2605 2927,2603 2918,2600 2906,2590 2916,2584 2940,2575 2945,2569 2946,2564 2945,2556 2947,2551 2950,2546 2952,2538 2964,2531 2967,2527 2979,2497 2978,2488 2972,2482 2965,2477 2962,2469 2961,2461 2957,2458 2945,2452 2942,2450 2941,2447 2943,2444 2951,2440 2953,2437 2955,2431 2955,2418 2957,2410 2962,2401 2976,2390 2984,2385 3000,2382 3007,2378 3008,2370 3009,2367 3014,2364 3009,2351 3012,2343 3022,2339 3030,2334 3037,2322 3039,2319 3046,2315 3068,2308 3079,2302 3091,2290 3092,2287 3088,2279 3106,2263 3113,2251 3116,2238 3116,2224 3115,2220 3112,2217 3099,2213 3086,2215 3071,2224 3062,2233 3054,2241 3046,2244 3041,2243 3040,2236 3036,2223 3030,2214 3020,2211 3000,2210 2995,2208 2989,2201 2984,2199 2978,2200 2964,2204 2950,2219 2946,2221 2936,2222 2933,2218 2932,2214 2924,2209 2919,2206 2914,2199 2909,2192 2905,2191 2892,2188 2887,2188 2881,2192 2875,2193 2871,2190 2870,2186 2865,2186 2855,2197 2847,2206 2842,2207 2831,2207 2827,2211 2835,2222 2832,2226 2824,2227 2786,2227 2781,2226 2778,2220 2775,2217 2770,2216 2759,2218 2742,2222 2738,2225 2737,2230 2727,2231 2720,2234 2710,2239 2703,2238 2701,2235 2700,2229 2693,2230 2692,2234 2691,2240 2687,2242 2680,2242 2677,2239 2676,2234 2673,2234 2670,2237 2670,2245 2669,2248 2657,2249 2647,2248 2640,2244 2638,2241 2638,2236 2640,2212 2642,2201 2651,2175 2656,2153 2656,2142 2654,2135 2651,2130 2646,2126 2630,2124 2624,2124 2624,2120 2623,2114 2619,2112 2614,2114 2613,2120 2612,2124 2603,2125 2599,2123 2598,2111 2596,2107 2593,2105 2581,2104 2577,2092 2568,2062 2564,2066 2558,2070 2550,2070 2544,2068 2543,2063 2541,2054 2537,2050 2522,2046 2516,2045 2511,2047 2503,2051 2492,2052 2487,2051 2468,2041 2464,2042 2457,2051 2452,2053 2441,2054 2428,2052 2421,2049 2416,2045 2416,2036 2416,2032 2414,2029 2408,2028 2409,2024 2410,2016 2414,2012 2432,2008 2438,2004 2444,1996 2454,1993 2466,1990 2471,1987 2475,1982 2480,1963 2491,1957 2498,1950 2502,1941 2504,1931 2508,1927 2509,1924 2506,1920 2496,1917 2493,1913 2491,1910 2481,1904 2478,1897 2474,1897 2468,1896 2469,1890 2472,1887 2478,1887 2480,1882 2483,1881 2488,1879 2489,1872 2491,1868 2496,1868 2501,1868 2505,1865 2509,1861 2513,1861 2517,1860 2522,1854 2530,1851 2535,1843 2540,1840 2551,1844 2578,1845 2586,1849 2591,1847 2593,1841 2593,1837 2597,1837 2601,1836 2604,1833 2608,1823 2611,1802 2609,1794 2588,1783 2579,1776 2577,1772 2577,1768 2579,1765 2585,1765 2591,1767 2594,1766 2597,1765 2599,1762 2597,1757 2589,1754 2586,1753 2584,1748 2581,1734 2584,1728 2589,1719 2587,1709 2584,1705 2580,1703 2571,1702 2567,1701 2565,1696 2576,1693 2579,1690 2579,1686 2577,1683 2574,1680 2570,1680 2554,1680 2549,1680 2546,1677 2543,1663 2539,1659 2528,1657 2523,1659 2521,1665 2515,1668 2506,1669 2505,1672 2504,1676 2490,1675 2489,1686 2480,1686 2472,1691 2456,1692 2451,1707 2405,1710 2401,1709 2398,1706 2396,1698 2397,1693 2404,1692 2409,1690 2410,1681 2412,1676 2415,1674 2416,1666 2413,1657 2405,1653 2399,1656 2394,1661 2389,1661 2381,1661 2375,1666 2371,1677 2355,1677 2340,1682 2324,1681 2317,1678 2313,1670 2314,1662 2319,1647 2324,1642 2337,1635 2349,1628 2352,1626 2353,1623 2354,1617 2359,1615 2366,1614 2366,1608 2361,1599 2365,1595 2373,1592 2381,1592 2396,1563 2400,1552 2400,1529 2401,1524 2404,1521 2409,1513 2409,1508 2407,1504 2398,1500 2380,1500 2369,1498 2364,1495 2362,1498 2362,1510 2357,1510 2355,1507 2354,1491 2352,1487 2349,1485 2327,1481 2322,1480 2319,1477 2316,1469 2317,1455 2303,1447 2291,1443 2284,1438 2282,1433 2282,1427 2280,1421 2276,1420 2263,1423 2259,1420 2256,1410 2250,1404 2235,1395 2224,1391 2209,1390 2203,1388 2197,1387 2193,1391 2189,1395 2184,1394 2172,1377 2156,1363 2155,1358 2159,1355 2166,1350 2165,1345 2153,1338 2152,1334 2152,1321 2151,1318 2148,1316 2141,1311 2141,1307 2155,1298 2157,1284 2159,1281 2163,1279 2187,1272 2196,1264 2201,1257 2209,1242 2210,1237 2206,1235 2196,1235 2194,1233 2200,1226 2201,1221 2203,1208 2207,1200 2214,1198 2224,1199 2231,1197 2234,1194 2238,1192 2243,1194 2249,1194 2254,1191 2257,1186 2263,1185 2274,1184 2278,1181 2276,1171 2283,1171 2289,1177 2296,1183 2306,1186 2309,1184 2310,1179 2311,1173 2315,1171 2325,1163 2329,1158 2330,1148 2335,1115 2336,1104 2339,1101 2347,1102 2355,1106 2364,1109 2384,1109 2391,1109 2394,1109 2397,1106 2400,1103 2405,1103 2411,1109 2410,1113 2407,1117 2403,1119 2395,1121 2391,1125 2392,1131 2395,1133 2400,1133 2408,1131 2419,1125 2433,1125 2441,1127 2448,1133 2452,1142 2455,1149 2460,1153 2468,1152 2484,1146 2501,1145 2510,1146 2515,1142 2520,1135 2525,1135 2536,1140 2540,1139 2540,1132 2538,1128 2534,1125 2526,1120 2523,1116 2527,1113 2533,1112 2540,1109 2542,1101 2542,1095 2546,1094 2550,1102 2553,1102 2563,1094 2567,1088 2566,1082 2561,1078 2558,1075 2559,1072 2565,1069 2578,1073 2582,1072 2590,1067 2597,1068 2605,1071 2608,1068 2610,1063 2618,1063 2640,1062 2648,1064 2650,1069 2648,1080 2647,1088 2650,1094 2670,1096 2683,1102 2687,1099 2689,1095 2691,1091 2695,1089 2695,1084 2690,1076 2689,1073 2692,1068 2697,1055 2705,1048 2710,1041 2714,1034 2724,1029 2737,1025 2750,1024 2760,1021 2769,1015 2785,999 2789,994 2790,990 2789,978 2791,974 2797,968 2800,961 2802,952 2803,949 2807,946 2819,940 2824,928 2827,922 2836,919 2846,918 2858,920 2865,919 2868,917 2869,914 2872,909 2873,907 2881,909 2892,912 2903,908 2912,902 2920,900 2926,901 2935,907 2939,908 2947,907 2955,902 2961,899 2971,897 2978,896 2981,893 2985,890 2993,891 3004,892 3012,888 3020,884 3030,884 3038,888 3050,897 3058,900 3067,900 3077,898 3081,901 3067,919 3066,924 3079,932 3095,940 3099,944 3104,949 3112,950 3118,951 3121,956 3124,973 3126,977 3144,980 3147,985 3155,987 3178,988 3187,991 3198,1002 3202,1004 3210,1003 3222,994 3247,967 3253,960 3261,958 3272,957 3277,955 3281,953 3285,956 3290,958 3303,959 3346,961 3370,985 3391,976 3407,973 3412,966 3412,957 3407,942 3408,938 3420,918 3421,914 3417,909 3416,906 3418,903 3426,901 3437,902 3443,899 3473,880 3489,864 3493,862 3497,864 3504,865 3517,861 3535,863 3548,861 3560,854 3566,844 3567,833 3567,830 3570,827 3580,824 3605,825 3617,823 3641,809 3654,795 3658,792 3667,794 " class="polyStyle" id="370983" style="fill:#f6f67b"/>
<path d="" class="polyStyle" id="370282" style="fill:#f6f67b"/>
<path d="" class="polyStyle" id="371083" style="fill:#f6f67b"/>
<path d="" class="polyStyle" id="371082" style="fill:#fbe6ef"/>
<path d="" class="polyStyle" id="652801" style="fill:#f8c67d"/>
<path d="" class="polyStyle" id="654301" style="fill:#ee8b94"/>
<path d="" class="polyStyle" id="370687" style="fill:#ee8b94"/>
<path d="" class="polyStyle" id="371482" style="fill:#d4ecb2"/>
<path d="" class="polyStyle" id="421081" style="fill:#fbe6ef"/>
<path d="" class="polyStyle" id="429006" style="fill:#f6f67b"/>
<path d="" class="polyStyle" id="440982" style="fill:#d4ecb2"/>
<path d="" class="polyStyle" id="421181" style="fill:#d4ecb2"/>
<path d="" class="polyStyle" id="321181" style="fill:#d4ecb2"/>
<path d="" class="polyStyle" id="659007" style="fill:#ee8b94"/>
<path d="" class="polyStyle" id="652701" style="fill:#fbe6ef"/>
<path d="" class="polyStyle" id="210781" style="fill:#fbe6ef"/>
<path d="" class="polyStyle" id="460204" style="fill:#f6f67b"/>
<path d="" class="polyStyle" id="210211" style="fill:#f6f67b"/>
<path d="" class="polyStyle" id="450512" style="fill:#ee8b94"/>
<path d="" class="polyStyle" id="450602" style="fill:#fbe6ef"/>
<path d="" class="polyStyle" id="440404" style="fill:#ee8b94"/>
<path d="" class="polyStyle" id="440403" style="fill:#f6f67b"/>
<path d="" class="polyStyle" id="441502" style="fill:#f6f67b"/>
<path d="" class="polyStyle" id="431002" style="fill:#d4ecb2"/>
<path d="" class="polyStyle" id="500107" style="fill:#fbe6ef"/>
<path d="" class="polyStyle" id="430611" style="fill:#d4ecb2"/>
<path d="" class="polyStyle" id="511304" style="fill:#fbe6ef"/>
<path d="" class="polyStyle" id="340711" style="fill:#ee8b94"/>
<path d="" class="polyStyle" id="320118" style="fill:#f6f67b"/>
<path d="" class="polyStyle" id="510704" style="fill:#f6f67b"/>
<path d="" class="polyStyle" id="411502" style="fill:#ee8b94"/>
<path d="" class="polyStyle" id="320302" style="fill:#d4ecb2"/>
<polygon points="5265,669 5298,680 5308,688 5322,683 5340,684 5363,688 5397,692 5408,696 5420,706 5433,710 5460,708 5474,717 5496,735 5503,740 5510,741 5513,742 5522,751 5529,758 5531,765 5532,770 5538,775 5544,780 5546,793 5565,816 5569,819 5575,820 5594,820 5596,824 5598,834 5601,846 5601,856 5600,867 5602,875 5608,884 5609,890 5613,904 5613,910 5610,921 5610,927 5612,932 5622,939 5626,944 5632,945 5637,945 5640,948 5646,953 5656,954 5663,955 5666,958 5679,971 5690,976 5708,978 5732,980 5738,984 5742,994 5744,997 5748,997 5753,992 5757,993 5770,998 5783,998 5790,998 5794,1003 5817,1021 5829,1030 5833,1036 5836,1056 5839,1063 5845,1068 5854,1070 5874,1069 5876,1078 5878,1081 5885,1085 5896,1086 5904,1087 5906,1093 5908,1096 5921,1100 5925,1104 5924,1108 5918,1108 5912,1111 5909,1113 5908,1116 5908,1130 5906,1139 5900,1144 5893,1151 5892,1156 5896,1162 5897,1167 5894,1182 5897,1184 5904,1183 5908,1183 5911,1186 5908,1204 5919,1216 5928,1226 5930,1233 5932,1244 5935,1251 5950,1276 5951,1279 5948,1283 5946,1286 5946,1290 5952,1297 5956,1299 5961,1298 5978,1289 5985,1289 5996,1294 5998,1303 6015,1311 6021,1315 6025,1320 6035,1342 6040,1343 6045,1347 6051,1352 6056,1359 6078,1346 6084,1345 6094,1350 6097,1349 6100,1336 6101,1331 6107,1330 6108,1326 6110,1323 6113,1326 6116,1329 6120,1330 6125,1327 6129,1327 6139,1330 6145,1330 6171,1325 6178,1326 6184,1335 6189,1339 6204,1341 6208,1345 6210,1350 6214,1364 6216,1374 6220,1378 6224,1382 6225,1393 6227,1397 6230,1399 6245,1400 6296,1401 6302,1401 6306,1395 6311,1392 6319,1390 6354,1387 6378,1384 6382,1383 6386,1379 6398,1378 6403,1385 6409,1392 6412,1396 6417,1402 6421,1408 6424,1413 6430,1425 6430,1436 6430,1451 6430,1456 6431,1461 6431,1467 6431,1472 6433,1481 6433,1488 6435,1515 6436,1521 6434,1528 6427,1537 6406,1549 6392,1560 6376,1568 6349,1585 6324,1619 6313,1636 6303,1654 6297,1666 6289,1679 6276,1694 6273,1694 6266,1696 6255,1697 6239,1694 6213,1685 6202,1674 6188,1658 6176,1646 6149,1636 6130,1638 6105,1651 6101,1667 6104,1675 6104,1685 6108,1697 6107,1717 6100,1736 6086,1752 6082,1757 6069,1767 6036,1794 5998,1815 5971,1840 5902,1857 5856,1864 5775,1906 5765,1915 5760,1914 5754,1911 5746,1909 5738,1908 5737,1903 5736,1882 5734,1878 5729,1877 5727,1874 5724,1868 5719,1865 5716,1863 5717,1855 5717,1848 5711,1842 5707,1837 5706,1833 5707,1826 5717,1794 5708,1785 5700,1790 5694,1792 5685,1789 5664,1789 5659,1788 5649,1790 5635,1786 5624,1778 5616,1764 5613,1747 5613,1741 5615,1737 5622,1729 5628,1722 5628,1711 5629,1703 5634,1693 5633,1686 5623,1682 5621,1678 5630,1669 5629,1661 5621,1644 5604,1642 5596,1643 5591,1645 5585,1645 5571,1646 5561,1650 5553,1654 5537,1654 5531,1655 5526,1658 5522,1660 5511,1672 5497,1678 5469,1678 5454,1681 5442,1691 5435,1696 5429,1698 5423,1701 5409,1704 5391,1705 5377,1702 5366,1693 5350,1674 5331,1675 5325,1678 5324,1682 5320,1683 5314,1682 5311,1674 5307,1673 5304,1682 5298,1682 5296,1676 5296,1672 5293,1670 5291,1674 5290,1677 5282,1678 5277,1680 5278,1685 5271,1686 5268,1691 5266,1694 5262,1696 5242,1695 5236,1695 5233,1697 5230,1704 5225,1707 5218,1702 5210,1700 5189,1701 5157,1700 5145,1702 5137,1708 5133,1704 5129,1699 5115,1692 5111,1686 5109,1677 5108,1669 5109,1654 5116,1641 5127,1629 5138,1627 5155,1628 5163,1630 5168,1629 5171,1627 5177,1627 5183,1623 5188,1612 5192,1608 5204,1611 5207,1610 5209,1607 5212,1597 5215,1594 5229,1595 5235,1594 5238,1589 5242,1579 5253,1579 5256,1576 5257,1573 5262,1571 5265,1568 5262,1562 5260,1556 5264,1557 5277,1558 5284,1557 5289,1554 5290,1551 5285,1539 5283,1529 5282,1525 5279,1522 5277,1519 5278,1513 5278,1481 5253,1491 5245,1485 5239,1483 5222,1481 5218,1484 5215,1492 5194,1492 5181,1489 5172,1483 5165,1481 5161,1477 5158,1472 5149,1469 5143,1462 5137,1448 5137,1398 5135,1388 5127,1383 5125,1378 5126,1365 5125,1360 5122,1357 5137,1346 5140,1343 5141,1339 5140,1326 5140,1321 5143,1317 5148,1314 5154,1313 5162,1310 5175,1300 5194,1284 5201,1278 5205,1272 5210,1257 5210,1249 5208,1242 5201,1235 5189,1234 5187,1232 5192,1218 5193,1212 5188,1207 5184,1202 5183,1198 5188,1183 5193,1175 5197,1172 5210,1161 5225,1151 5235,1148 5247,1146 5257,1140 5267,1134 5275,1135 5278,1136 5281,1134 5283,1129 5283,1123 5281,1113 5273,1101 5251,1078 5241,1060 5237,1031 5232,1024 5221,1023 5214,1023 5211,1021 5204,1014 5198,1009 5183,1005 5173,1001 5170,995 5168,991 5160,986 5159,979 5167,969 5170,964 5171,958 5146,935 5138,936 5132,942 5132,945 5138,950 5138,953 5132,952 5114,952 5104,951 5092,947 5079,939 5064,926 5079,914 5083,912 5092,912 5105,906 5111,901 5119,901 5145,901 5149,897 5151,887 5150,875 5152,870 5161,858 5162,854 5160,850 5149,836 5147,828 5149,814 5152,807 5158,801 5158,797 5154,788 5155,781 5169,759 5173,747 5175,735 5176,732 5181,725 5188,717 5190,711 5192,706 5198,704 5207,699 5211,691 5212,683 5216,677 5221,672 5221,666 5216,656 5218,652 5228,652 5243,656 " class="polyStyle" id="370902" style="fill:#fbe6ef"/>
<path d="" class="polyStyle" id="140311" style="fill:#ee8b94"/>
<path d="" class="polyStyle" id="610802" style="fill:#ee8b94"/>
<path d="" class="polyStyle" id="120116" style="fill:#f6f67b"/>
<path d="" class="polyStyle" id="130303" style="fill:#fbe6ef"/>
<path d="" class="polyStyle" id="140211" style="fill:#f6f67b"/>
<path d="" class="polyStyle" id="150207" style="fill:#fbe6ef"/>
<path d="" class="polyStyle" id="211403" style="fill:#f6f67b"/>
<path d="" class="polyStyle" id="150802" style="fill:#f8c67d"/>
<path d="" class="polyStyle" id="210112" style="fill:#ee8b94"/>
<path d="" class="polyStyle" id="230406" style="fill:#d4ecb2"/>
<path d="" class="polyStyle" id="110113" style="fill:#fbe6ef"/>
<polygon points="6300,43 6300,46 6302,52 6309,55 6324,52 6331,50 6335,47 6341,45 6359,44 6382,44 6392,47 6400,47 6417,44 6427,46 6440,54 6444,54 6450,41 6454,37 6464,33 6475,33 6492,39 6510,51 6521,62 6524,67 6528,70 6532,77 6533,91 6522,85 6513,82 6502,82 6493,84 6486,87 6483,91 6478,118 6475,124 6471,127 6456,131 6453,132 6450,136 6441,156 6436,164 6435,173 6433,207 6434,218 6440,235 6445,242 6450,246 6463,257 6468,267 6467,276 6461,288 6459,304 6461,312 6468,325 6471,337 6471,344 6465,349 6461,356 6462,360 6466,365 6470,368 6477,370 6479,373 6481,378 6485,381 6499,384 6525,387 6532,389 6537,393 6540,406 6533,424 6529,430 6523,434 6506,443 6491,451 6485,458 6503,473 6510,490 6510,513 6509,525 6517,529 6524,531 6528,534 6529,543 6528,551 6534,559 6553,580 6564,587 6587,589 6595,594 6601,603 6604,606 6610,608 6626,613 6630,616 6632,620 6640,638 6643,647 6646,651 6648,654 6652,655 6663,659 6671,669 6676,679 6683,683 6706,694 6700,697 6697,702 6702,705 6712,708 6713,712 6713,721 6716,724 6725,727 6728,732 6727,736 6720,741 6721,744 6735,757 6735,761 6731,762 6717,751 6712,750 6690,767 6686,771 6683,778 6681,791 6679,794 6674,799 6668,801 6666,807 6667,810 6674,835 6679,846 6694,863 6705,878 6709,894 6693,922 6699,927 6706,928 6716,928 6716,935 6709,946 6711,952 6715,954 6725,956 6729,963 6735,959 6738,957 6743,957 6759,964 6762,972 6761,986 6757,993 6751,994 6747,995 6748,1005 6751,1013 6757,1021 6762,1028 6767,1032 6785,1043 6794,1045 6838,1043 6838,1104 6844,1113 6847,1117 6846,1122 6843,1138 6853,1147 6853,1155 6849,1163 6817,1166 6810,1164 6807,1168 6805,1173 6799,1176 6775,1187 6757,1189 6750,1192 6746,1195 6737,1197 6734,1200 6734,1205 6739,1215 6739,1222 6736,1233 6730,1240 6725,1243 6712,1244 6704,1242 6701,1241 6698,1243 6697,1248 6710,1259 6720,1263 6733,1265 6737,1267 6738,1270 6739,1279 6745,1281 6753,1284 6758,1293 6769,1305 6784,1316 6808,1319 6820,1319 6829,1317 6854,1309 6863,1301 6868,1287 6871,1283 6877,1281 6920,1273 6934,1273 6942,1275 6963,1290 6972,1293 6996,1289 7005,1290 7008,1292 7010,1296 7009,1304 7007,1310 7010,1312 7012,1314 7013,1320 7012,1333 7010,1336 7006,1337 6992,1336 6986,1340 6984,1348 6987,1351 6991,1352 6997,1348 7000,1348 7004,1352 7003,1360 7004,1364 7011,1365 7023,1362 7012,1378 6986,1403 6976,1413 6974,1421 6979,1429 6988,1429 6998,1429 7003,1431 7006,1435 7007,1447 7012,1451 7015,1453 7016,1456 7017,1470 7025,1476 7028,1478 7033,1478 7040,1478 7041,1481 7036,1488 7036,1491 7042,1494 7044,1497 7047,1503 7054,1505 7058,1506 7059,1511 7060,1519 7064,1520 7073,1519 7076,1525 7078,1528 7082,1529 7097,1520 7104,1520 7112,1525 7116,1528 7120,1528 7123,1527 7125,1523 7126,1519 7129,1517 7138,1513 7146,1515 7151,1518 7158,1526 7164,1531 7168,1532 7172,1534 7177,1534 7187,1532 7192,1528 7196,1525 7202,1526 7208,1529 7211,1533 7208,1538 7200,1539 7190,1543 7195,1553 7195,1562 7197,1568 7208,1578 7211,1585 7210,1598 7208,1603 7205,1605 7187,1608 7170,1623 7157,1630 7133,1631 7126,1630 7123,1627 7123,1614 7122,1611 7119,1610 7108,1610 7103,1611 7098,1615 7088,1625 7080,1629 7070,1633 7067,1635 7065,1640 7059,1651 7052,1657 7048,1661 7046,1671 7043,1688 7038,1701 7029,1715 7027,1722 7026,1728 7022,1736 7008,1761 7001,1779 7002,1784 7010,1791 7021,1797 7057,1797 7084,1795 7091,1796 7095,1799 7099,1806 7096,1812 7086,1819 7071,1823 7051,1826 7047,1827 7045,1829 7050,1837 7048,1842 7044,1850 7048,1853 7053,1857 7052,1866 7044,1885 7035,1896 7028,1898 7021,1895 7016,1894 7014,1899 7016,1905 7023,1909 7026,1913 7020,1917 7009,1920 7007,1925 7008,1929 7013,1934 7032,1946 7042,1947 7040,1953 7041,1965 7047,1975 7050,1981 7047,1986 7047,1990 7054,1993 7060,1994 7064,2001 7072,2012 7086,2023 7095,2032 7096,2042 7098,2046 7106,2050 7108,2056 7106,2062 7100,2064 7098,2068 7100,2071 7109,2076 7111,2082 7108,2087 7102,2092 7095,2097 7088,2099 7067,2105 7048,2109 7039,2114 7017,2127 7012,2132 7012,2136 7015,2137 7025,2133 7032,2129 7039,2129 7043,2129 7046,2131 7052,2135 7059,2146 7061,2159 7059,2164 7054,2165 7037,2175 7027,2179 7013,2179 6998,2172 6992,2174 6987,2180 6983,2183 6971,2185 6966,2187 6964,2191 6962,2195 6963,2204 6960,2206 6938,2208 6930,2213 6926,2220 6921,2223 6907,2223 6903,2226 6900,2231 6896,2236 6887,2242 6870,2247 6859,2253 6852,2260 6850,2264 6854,2273 6850,2279 6831,2288 6818,2281 6815,2276 6815,2260 6811,2250 6807,2246 6802,2244 6788,2237 6780,2229 6781,2218 6777,2209 6767,2197 6762,2194 6758,2194 6748,2197 6745,2199 6744,2202 6739,2205 6728,2206 6693,2216 6676,2217 6667,2214 6661,2210 6652,2212 6642,2224 6606,2219 6600,2217 6591,2218 6582,2219 6575,2216 6565,2211 6558,2212 6548,2217 6546,2220 6541,2222 6515,2222 6488,2227 6477,2230 6468,2235 6456,2246 6450,2254 6449,2257 6450,2262 6456,2267 6459,2272 6455,2282 6451,2290 6450,2297 6448,2303 6438,2305 6429,2308 6421,2314 6417,2319 6417,2325 6415,2329 6409,2334 6406,2339 6405,2349 6403,2357 6398,2361 6381,2370 6379,2374 6380,2382 6363,2394 6356,2396 6348,2396 6342,2396 6337,2398 6332,2400 6328,2404 6323,2409 6315,2413 6309,2416 6304,2422 6305,2426 6312,2428 6315,2431 6315,2440 6301,2444 6298,2448 6301,2451 6315,2444 6321,2446 6322,2448 6319,2452 6318,2457 6316,2459 6306,2463 6302,2468 6301,2471 6303,2474 6308,2475 6312,2469 6316,2463 6325,2459 6330,2459 6333,2462 6331,2483 6317,2485 6313,2489 6315,2495 6320,2497 6335,2496 6349,2491 6356,2493 6356,2498 6355,2502 6360,2502 6372,2511 6378,2516 6387,2520 6393,2518 6397,2519 6400,2523 6402,2531 6408,2526 6412,2526 6412,2532 6410,2542 6408,2546 6401,2547 6397,2548 6398,2555 6402,2560 6412,2567 6414,2572 6412,2580 6412,2586 6418,2596 6419,2600 6416,2605 6412,2625 6402,2633 6401,2640 6398,2642 6393,2643 6392,2647 6389,2652 6378,2653 6371,2654 6368,2663 6365,2673 6362,2699 6360,2706 6357,2710 6355,2713 6351,2715 6339,2717 6334,2720 6320,2730 6317,2737 6319,2743 6320,2748 6315,2759 6314,2762 6315,2765 6322,2765 6327,2764 6331,2769 6333,2786 6321,2794 6315,2798 6306,2802 6291,2810 6279,2815 6273,2818 6268,2822 6263,2826 6256,2834 6250,2842 6245,2851 6242,2859 6239,2868 6236,2883 6235,2890 6234,2894 6231,2899 6224,2911 6219,2920 6216,2930 6216,2935 6216,2939 6217,2946 6218,2954 6218,2959 6218,2963 6217,2966 6216,2969 6216,2972 6213,2974 6208,2978 6205,2980 6201,2981 6198,2982 6191,2983 6181,2983 6166,2984 6157,2984 6150,2984 6143,2983 6134,2980 6128,2979 6123,2977 6117,2973 6104,2963 6097,2959 6092,2956 6087,2955 6083,2954 6071,2952 6068,2952 6065,2952 6062,2952 6058,2953 6055,2954 6049,2957 6044,2963 6041,2967 6036,2977 6030,2986 6027,2990 6022,2993 6016,2998 6013,2999 6011,3001 6008,3002 6005,3003 6000,3004 5988,3004 5981,3003 5973,3002 5964,3000 5955,2997 5949,2994 5940,2988 5934,2985 5922,2977 5918,2974 5914,2973 5910,2972 5896,2970 5890,2969 5887,2968 5883,2966 5880,2965 5876,2963 5861,2955 5837,2946 5831,2943 5813,2936 5805,2932 5802,2931 5798,2930 5795,2929 5777,2918 5776,2943 5761,2958 5744,2960 5701,2942 5700,2933 5692,2925 5690,2921 5685,2911 5677,2906 5668,2902 5663,2894 5658,2890 5647,2887 5629,2874 5613,2875 5607,2867 5605,2860 5606,2856 5608,2850 5607,2839 5594,2826 5582,2816 5575,2807 5572,2803 5572,2798 5574,2791 5578,2777 5590,2742 5597,2718 5601,2708 5601,2704 5601,2701 5600,2697 5597,2690 5587,2681 5581,2676 5576,2673 5562,2666 5557,2664 5551,2660 5543,2655 5535,2649 5531,2648 5529,2648 5524,2648 5521,2648 5509,2649 5503,2649 5500,2649 5497,2648 5493,2646 5483,2640 5466,2631 5461,2630 5458,2630 5455,2630 5443,2631 5435,2632 5430,2632 5426,2632 5420,2631 5410,2628 5400,2625 5393,2624 5381,2619 5369,2615 5361,2612 5356,2611 5352,2610 5347,2609 5336,2608 5329,2617 5326,2621 5322,2625 5318,2628 5315,2629 5309,2632 5304,2633 5301,2635 5296,2638 5289,2643 5270,2654 5255,2660 5249,2663 5243,2665 5236,2667 5221,2669 5200,2671 5197,2672 5193,2673 5181,2682 5176,2684 5173,2685 5170,2685 5158,2687 5140,2688 5137,2688 5133,2687 5120,2681 5113,2679 5101,2674 5092,2671 5085,2668 5080,2666 5071,2660 5064,2657 5057,2655 5054,2653 5051,2652 5048,2652 5044,2651 5038,2650 5032,2650 5027,2650 5023,2650 5011,2650 5004,2649 4999,2649 4995,2649 4989,2648 4981,2646 4972,2645 4969,2644 4960,2644 4946,2644 4931,2643 4924,2642 4918,2642 4914,2641 4911,2639 4907,2638 4903,2635 4891,2628 4886,2627 4880,2624 4877,2623 4872,2622 4868,2622 4863,2621 4859,2621 4842,2621 4825,2620 4819,2619 4815,2618 4812,2617 4809,2616 4806,2614 4802,2611 4758,2615 4724,2621 4695,2624 4676,2624 4661,2627 4630,2628 4605,2629 4588,2607 4582,2596 4584,2592 4591,2591 4595,2588 4594,2586 4583,2581 4580,2579 4579,2576 4579,2559 4577,2555 4578,2546 4580,2539 4586,2536 4589,2532 4589,2524 4589,2516 4591,2514 4599,2509 4608,2501 4606,2495 4608,2492 4611,2491 4617,2490 4621,2489 4621,2486 4615,2484 4613,2480 4614,2475 4618,2473 4622,2470 4621,2466 4618,2455 4617,2450 4612,2449 4602,2438 4596,2441 4589,2448 4585,2450 4577,2446 4574,2447 4571,2452 4561,2454 4535,2454 4525,2454 4520,2452 4517,2450 4516,2447 4518,2444 4522,2442 4546,2434 4547,2429 4542,2419 4540,2412 4544,2407 4547,2404 4547,2398 4553,2394 4568,2394 4584,2398 4591,2397 4599,2391 4599,2382 4601,2375 4607,2370 4618,2365 4619,2359 4628,2361 4631,2342 4633,2335 4634,2317 4637,2307 4644,2297 4654,2294 4671,2294 4679,2293 4683,2291 4685,2288 4688,2264 4690,2261 4694,2260 4708,2258 4712,2255 4714,2245 4714,2239 4718,2237 4725,2233 4730,2223 4731,2218 4729,2214 4710,2217 4707,2216 4706,2213 4706,2200 4705,2196 4695,2197 4693,2195 4693,2184 4689,2182 4671,2183 4661,2192 4659,2190 4659,2180 4657,2173 4642,2174 4635,2172 4632,2165 4631,2148 4632,2141 4636,2138 4643,2136 4644,2132 4641,2127 4632,2127 4625,2127 4621,2123 4617,2119 4609,2120 4602,2119 4596,2111 4588,2107 4569,2107 4565,2108 4563,2113 4522,2112 4517,2114 4513,2120 4509,2118 4506,2112 4501,2112 4498,2114 4498,2117 4499,2123 4495,2127 4495,2136 4487,2137 4469,2137 4463,2139 4461,2144 4443,2145 4431,2136 4431,2122 4427,2118 4416,2118 4414,2116 4413,2107 4407,2099 4408,2094 4410,2087 4407,2085 4403,2085 4401,2081 4396,2077 4381,2076 4374,2076 4372,2070 4369,2064 4364,2061 4361,2067 4356,2068 4355,2061 4352,2056 4343,2055 4332,2055 4323,2053 4314,2050 4311,2053 4309,2057 4300,2057 4296,2059 4293,2065 4293,2068 4296,2073 4290,2088 4277,2088 4252,2085 4237,2073 4233,2071 4229,2072 4201,2076 4187,2074 4179,2075 4173,2077 4161,2075 4132,2088 4124,2091 4119,2091 4115,2090 4114,2086 4117,2078 4129,2066 4134,2059 4137,2049 4140,2029 4142,2027 4147,2028 4154,2032 4163,2032 4191,2030 4194,2028 4195,2020 4198,2014 4202,2011 4209,2009 4228,2010 4232,2009 4235,2006 4241,1998 4245,1995 4256,1996 4262,1996 4264,1992 4262,1989 4258,1987 4247,1981 4246,1968 4246,1959 4248,1952 4259,1941 4263,1932 4263,1925 4257,1922 4253,1916 4253,1903 4250,1898 4246,1900 4239,1905 4232,1904 4228,1900 4229,1891 4228,1887 4223,1886 4222,1883 4223,1867 4217,1849 4207,1847 4204,1843 4202,1837 4195,1830 4191,1824 4192,1820 4196,1815 4197,1809 4204,1806 4204,1800 4200,1797 4198,1788 4197,1783 4194,1781 4191,1779 4184,1778 4116,1775 4097,1765 4091,1760 4089,1755 4089,1751 4091,1748 4103,1739 4108,1736 4117,1737 4125,1734 4127,1730 4128,1725 4132,1720 4137,1718 4141,1723 4142,1727 4145,1730 4150,1729 4161,1721 4172,1718 4181,1719 4190,1721 4194,1718 4193,1713 4189,1709 4187,1706 4188,1700 4197,1697 4201,1691 4201,1686 4199,1682 4191,1679 4180,1681 4168,1687 4160,1690 4148,1690 4139,1690 4134,1692 4131,1694 4130,1697 4128,1702 4123,1704 4118,1705 4115,1702 4117,1689 4102,1688 4100,1683 4095,1682 4089,1685 4085,1691 4083,1695 4080,1696 4072,1700 4072,1687 4071,1680 4073,1675 4078,1670 4079,1665 4085,1649 4085,1634 4081,1617 4073,1606 4068,1603 4061,1602 4051,1601 4050,1597 4051,1593 4058,1589 4058,1585 4050,1584 4044,1581 4045,1579 4051,1574 4053,1569 4055,1566 4064,1565 4070,1561 4075,1554 4082,1546 4076,1545 4062,1549 4052,1549 4050,1541 4051,1529 4056,1519 4058,1515 4058,1506 4055,1498 4052,1495 4048,1494 4044,1493 4042,1490 4044,1484 4047,1481 4048,1477 4048,1473 4045,1471 4041,1470 4039,1473 4035,1480 4032,1479 4025,1474 4021,1475 4014,1480 4007,1479 4006,1475 4002,1473 3993,1464 3990,1463 3986,1470 3983,1471 3979,1462 3982,1457 3991,1455 3998,1450 4000,1441 4001,1434 4006,1427 4010,1421 4010,1418 4000,1408 3999,1402 4001,1398 4007,1395 4026,1392 4033,1390 4036,1388 4037,1384 4032,1369 4034,1367 4044,1366 4048,1365 4050,1362 4053,1358 4063,1353 4074,1344 4077,1342 4081,1342 4095,1343 4098,1339 4101,1338 4107,1339 4117,1345 4121,1345 4125,1339 4129,1335 4135,1334 4139,1332 4138,1328 4133,1321 4132,1312 4133,1307 4137,1303 4154,1294 4161,1289 4162,1282 4165,1277 4172,1272 4190,1273 4196,1273 4201,1271 4204,1268 4205,1263 4205,1247 4201,1222 4202,1217 4209,1217 4213,1215 4215,1210 4225,1205 4227,1199 4225,1192 4256,1161 4239,1132 4228,1103 4245,1100 4256,1099 4266,1096 4296,1083 4314,1074 4327,1066 4337,1058 4353,1047 4362,1043 4377,1039 4384,1033 4388,1025 4391,1022 4395,1021 4411,1022 4418,1024 4417,1038 4420,1045 4427,1050 4431,1053 4433,1062 4435,1070 4439,1075 4442,1077 4447,1077 4463,1074 4477,1080 4484,1083 4492,1084 4497,1089 4500,1089 4502,1085 4504,1082 4507,1087 4513,1094 4516,1096 4520,1096 4545,1087 4554,1086 4561,1094 4583,1122 4592,1132 4602,1138 4629,1146 4633,1149 4637,1157 4642,1166 4649,1169 4662,1166 4675,1159 4690,1143 4696,1139 4703,1138 4712,1132 4716,1131 4744,1132 4766,1115 4776,1110 4781,1110 4784,1112 4786,1122 4789,1126 4797,1126 4801,1120 4801,1117 4798,1112 4788,1102 4790,1099 4795,1094 4801,1089 4801,1086 4797,1084 4798,1080 4798,1074 4792,1068 4788,1060 4792,1057 4802,1060 4808,1059 4817,1056 4828,1055 4845,1052 4856,1046 4862,1042 4870,1042 4897,1044 4908,1038 4912,1035 4914,1031 4916,1023 4920,1016 4921,1004 4923,996 4928,990 4936,988 4941,991 4943,995 4947,994 4949,992 4950,984 4954,980 4961,979 4966,978 4972,970 4977,971 4980,976 4993,972 5010,968 5012,960 5015,955 5028,945 5031,940 5035,938 5064,926 5079,939 5092,947 5104,951 5114,952 5132,952 5138,953 5138,950 5132,945 5132,942 5138,936 5146,935 5171,958 5170,964 5167,969 5159,979 5160,986 5168,991 5170,995 5173,1001 5183,1005 5198,1009 5204,1014 5211,1021 5214,1023 5221,1023 5232,1024 5237,1031 5241,1060 5251,1078 5273,1101 5281,1113 5283,1123 5283,1129 5281,1134 5278,1136 5275,1135 5267,1134 5257,1140 5247,1146 5235,1148 5225,1151 5210,1161 5197,1172 5193,1175 5188,1183 5183,1198 5184,1202 5188,1207 5193,1212 5192,1218 5187,1232 5189,1234 5201,1235 5208,1242 5210,1249 5210,1257 5205,1272 5201,1278 5194,1284 5175,1300 5162,1310 5154,1313 5148,1314 5143,1317 5140,1321 5140,1326 5141,1339 5140,1343 5137,1346 5122,1357 5125,1360 5126,1365 5125,1378 5127,1383 5135,1388 5137,1398 5137,1448 5143,1462 5149,1469 5158,1472 5161,1477 5165,1481 5172,1483 5181,1489 5194,1492 5215,1492 5218,1484 5222,1481 5239,1483 5245,1485 5253,1491 5278,1481 5278,1513 5277,1519 5279,1522 5282,1525 5283,1529 5285,1539 5290,1551 5289,1554 5284,1557 5277,1558 5264,1557 5260,1556 5262,1562 5265,1568 5262,1571 5257,1573 5256,1576 5253,1579 5242,1579 5238,1589 5235,1594 5229,1595 5215,1594 5212,1597 5209,1607 5207,1610 5204,1611 5192,1608 5188,1612 5183,1623 5177,1627 5171,1627 5168,1629 5163,1630 5155,1628 5138,1627 5127,1629 5116,1641 5109,1654 5108,1669 5109,1677 5111,1686 5115,1692 5129,1699 5133,1704 5137,1708 5145,1702 5157,1700 5189,1701 5210,1700 5218,1702 5225,1707 5230,1704 5233,1697 5236,1695 5242,1695 5262,1696 5266,1694 5268,1691 5271,1686 5278,1685 5277,1680 5282,1678 5290,1677 5291,1674 5293,1670 5296,1672 5296,1676 5298,1682 5304,1682 5307,1673 5311,1674 5314,1682 5320,1683 5324,1682 5325,1678 5331,1675 5350,1674 5366,1693 5377,1702 5391,1705 5409,1704 5423,1701 5429,1698 5435,1696 5442,1691 5454,1681 5469,1678 5497,1678 5511,1672 5522,1660 5526,1658 5531,1655 5537,1654 5553,1654 5561,1650 5571,1646 5585,1645 5591,1645 5596,1643 5604,1642 5621,1644 5629,1661 5630,1669 5621,1678 5623,1682 5633,1686 5634,1693 5629,1703 5628,1711 5628,1722 5622,1729 5615,1737 5613,1741 5613,1747 5616,1764 5624,1778 5635,1786 5649,1790 5659,1788 5664,1789 5685,1789 5694,1792 5700,1790 5708,1785 5717,1794 5707,1826 5706,1833 5707,1837 5711,1842 5717,1848 5717,1855 5716,1863 5719,1865 5724,1868 5727,1874 5729,1877 5734,1878 5736,1882 5737,1903 5738,1908 5746,1909 5754,1911 5760,1914 5765,1915 5775,1906 5856,1864 5902,1857 5971,1840 5998,1815 6036,1794 6069,1767 6082,1757 6086,1752 6100,1736 6107,1717 6108,1697 6104,1685 6104,1675 6101,1667 6105,1651 6130,1638 6149,1636 6176,1646 6188,1658 6202,1674 6213,1685 6239,1694 6255,1697 6266,1696 6273,1694 6276,1694 6289,1679 6297,1666 6303,1654 6313,1636 6324,1619 6349,1585 6376,1568 6392,1560 6406,1549 6427,1537 6434,1528 6436,1521 6435,1515 6433,1488 6433,1481 6431,1472 6431,1467 6431,1461 6430,1456 6430,1451 6430,1436 6430,1425 6424,1413 6421,1408 6417,1402 6412,1396 6409,1392 6403,1385 6398,1378 6386,1379 6382,1383 6378,1384 6354,1387 6319,1390 6311,1392 6306,1395 6302,1401 6296,1401 6245,1400 6230,1399 6227,1397 6225,1393 6224,1382 6220,1378 6216,1374 6214,1364 6210,1350 6208,1345 6204,1341 6189,1339 6184,1335 6178,1326 6171,1325 6145,1330 6139,1330 6129,1327 6125,1327 6120,1330 6116,1329 6113,1326 6110,1323 6108,1326 6107,1330 6101,1331 6100,1336 6097,1349 6094,1350 6084,1345 6078,1346 6056,1359 6051,1352 6045,1347 6040,1343 6035,1342 6025,1320 6021,1315 6015,1311 5998,1303 5996,1294 5985,1289 5978,1289 5961,1298 5956,1299 5952,1297 5946,1290 5946,1286 5948,1283 5951,1279 5950,1276 5935,1251 5932,1244 5930,1233 5928,1226 5919,1216 5908,1204 5911,1186 5908,1183 5904,1183 5897,1184 5894,1182 5897,1167 5896,1162 5892,1156 5893,1151 5900,1144 5906,1139 5908,1130 5908,1116 5909,1113 5912,1111 5918,1108 5924,1108 5925,1104 5921,1100 5908,1096 5906,1093 5904,1087 5896,1086 5885,1085 5878,1081 5876,1078 5874,1069 5854,1070 5845,1068 5839,1063 5836,1056 5833,1036 5829,1030 5817,1021 5794,1003 5790,998 5783,998 5770,998 5757,993 5753,992 5748,997 5744,997 5742,994 5738,984 5732,980 5708,978 5690,976 5679,971 5666,958 5663,955 5656,954 5646,953 5640,948 5637,945 5632,945 5626,944 5622,939 5612,932 5610,927 5610,921 5613,910 5613,904 5609,890 5608,884 5602,875 5600,867 5601,856 5601,846 5598,834 5596,824 5594,820 5575,820 5569,819 5565,816 5546,793 5544,780 5538,775 5532,770 5531,765 5529,758 5522,751 5513,742 5510,741 5503,740 5496,735 5474,717 5460,708 5464,708 5456,690 5456,681 5462,679 5470,675 5478,664 5484,656 5489,654 5512,654 5532,642 5539,640 5555,637 5567,630 5574,626 5583,624 5606,626 5617,625 5640,622 5654,618 5658,621 5665,621 5669,619 5670,616 5670,606 5675,601 5682,594 5687,583 5688,575 5685,571 5676,566 5668,558 5664,548 5667,537 5676,528 5677,525 5679,521 5682,522 5685,523 5686,519 5688,513 5692,512 5701,512 5706,508 5709,498 5715,493 5723,487 5727,478 5731,470 5736,469 5742,468 5749,461 5755,454 5756,449 5757,445 5763,440 5772,433 5778,432 5785,430 5789,426 5788,423 5779,414 5779,410 5783,405 5784,394 5788,391 5799,388 5799,383 5802,379 5807,376 5812,376 5813,366 5817,361 5835,357 5859,355 5874,349 5902,332 5915,326 5933,320 5941,319 5952,322 5959,326 5964,326 5971,320 5981,310 5984,304 5985,295 5989,287 5999,270 6009,247 6015,216 6016,207 6021,199 6045,182 6050,177 6072,162 6080,153 6082,147 6083,143 6091,139 6123,130 6139,129 6146,127 6149,125 6151,120 6154,112 6159,107 6173,92 6176,89 6178,79 6185,74 6198,64 6211,45 6217,31 6216,16 6212,4 6217,0 6232,0 6241,3 6247,8 6256,14 6263,16 6271,16 6278,16 6288,19 6296,23 6302,31 6303,37 " class="polyStyle" id="370911" style="fill:#d4ecb2"/>
<path d="" class="polyStyle" id="341702" style="fill:#fbe6ef"/>
<path d="" class="polyStyle" id="420303" style="fill:#ee8b94"/>
<path d="" class="polyStyle" id="340702" style="fill:#d4ecb2"/>
<path d="" class="polyStyle" id="421002" style="fill:#f6f67b"/>
<path d="" class="polyStyle" id="420117" style="fill:#f6f67b"/>
<path d="" class="polyStyle" id="440904" style="fill:#f8c67d"/>
<path d="" class="polyStyle" id="460205" style="fill:#ee8b94"/>
<path d="" class="polyStyle" id="460202" style="fill:#f6f67b"/>
<path d="" class="polyStyle" id="460203" style="fill:#fbe6ef"/>
<path d="" class="polyStyle" id="420304" style="fill:#f6f67b"/>
<path d="" class="polyStyle" id="445302" style="fill:#ee8b94"/>
<path d="" class="polyStyle" id="410202" style="fill:#d4ecb2"/>
<path d="" class="polyStyle" id="440800" style="fill:#f6f67b"/>
<path d="" class="polyStyle" id="440900" style="fill:#ee8b94"/>
<path d="" class="polyStyle" id="340800" style="fill:#ee8b94"/>
<path d="" class="polyStyle" id="460200" style="fill:#f6f67b"/>
<path d="" class="polyStyle" id="460000" style="fill:#ee8b94"/>
<path d="" class="polyStyle" id="450500" style="fill:#ee8b94"/>
<path d="" class="polyStyle" id="450600" style="fill:#ee8b94"/>
<path d="" class="polyStyle" id="440400" style="fill:#f6f67b"/>
<path d="" class="polyStyle" id="441700" style="fill:#f6f67b"/>
<path d="" class="polyStyle" id="441500" style="fill:#f6f67b"/>
<path d="" class="polyStyle" id="350600" style="fill:#ee8b94"/>
<path d="" class="polyStyle" id="710000" style="fill:#f6f67b"/>
<path d="" class="polyStyle" id="510400" style="fill:#f6f67b"/>
<path d="" class="polyStyle" id="522600" style="fill:#fbe6ef"/>
<path d="" class="polyStyle" id="520500" style="fill:#ee8b94"/>
<path d="" class="polyStyle" id="431200" style="fill:#f6f67b"/>
<path d="" class="polyStyle" id="430600" style="fill:#f6f67b"/>
<path d="" class="polyStyle" id="511400" style="fill:#d4ecb2"/>
<path d="" class="polyStyle" id="421000" style="fill:#ee8b94"/>
<path d="" class="polyStyle" id="341700" style="fill:#f6f67b"/>
<path d="" class="polyStyle" id="420500" style="fill:#f6f67b"/>
<path d="" class="polyStyle" id="511300" style="fill:#f6f67b"/>
<path d="" class="polyStyle" id="420900" style="fill:#f6f67b"/>
<path d="" class="polyStyle" id="511700" style="fill:#ee8b94"/>
<path d="" class="polyStyle" id="420600" style="fill:#d4ecb2"/>
<path d="" class="polyStyle" id="411500" style="fill:#fbe6ef"/>
<path d="" class="polyStyle" id="510800" style="fill:#ee8b94"/>
<path d="" class="polyStyle" id="420300" style="fill:#fbe6ef"/>
<path d="" class="polyStyle" id="611000" style="fill:#ee8b94"/>
<path d="" class="polyStyle" id="620800" style="fill:#fbe6ef"/>
<path d="" class="polyStyle" id="370200" style="fill:#ee8b94"/>
<path d="" class="polyStyle" id="371000" style="fill:#f6f67b"/>
<path d="" class="polyStyle" id="370600" style="fill:#fbe6ef"/>
<path d="" class="polyStyle" id="120000" style="fill:#f6f67b"/>
<path d="" class="polyStyle" id="130200" style="fill:#ee8b94"/>
<path d="" class="polyStyle" id="130300" style="fill:#f6f67b"/>
<path d="" class="polyStyle" id="652900" style="fill:#fbe6ef"/>
<path d="" class="polyStyle" id="150500" style="fill:#d4ecb2"/>
<path d="" class="polyStyle" id="" style="fill:#d4ecb2"/>
<path d="" class="polyStyle" id="350500" style="fill:#fbe6ef"/>
<path d="" class="polyStyle" id="440400" style="fill:#f6f67b"/>
<path d="" class="polyStyle" id="421100" style="fill:#d4ecb2"/>
<path d="" class="polyStyle" id="420100" style="fill:#fbe6ef"/>
<path d="" class="polyStyle" id="532500" style="fill:#fbe6ef"/>
<path d="" class="polyStyle" id="654200" style="fill:#fbe6ef"/>
<path d="" class="polyStyle" id="210700" style="fill:#d4ecb2"/>
<path d="" class="polyStyle" id="522300" style="fill:#fbe6ef"/>
<path d="" class="polyStyle" id="" style="fill:#ee8b94"/>
<path d="" class="polyStyle" id="440400" style="fill:#f6f67b"/>
<path d="" class="polyStyle" id="620000" style="fill:#f6f67b"/>
<path d="" class="polyStyle" id="430000" style="fill:#fbe6ef"/>
<path d="" class="polyStyle" id="420000" style="fill:#ee8b94"/>
<path d="" class="polyStyle" id="410000" style="fill:#f6f67b"/>
<path d="" class="polyStyle" id="350000" style="fill:#fbe6ef"/>
<path d="" class="polyStyle" id="520000" style="fill:#f6f67b"/>
<path d="" class="polyStyle" id="" style="fill:#ee8b94"/>
</svg>
