<?xml version="1.0" encoding="UTF-8"?>
<!DOCTYPE svg PUBLIC "-//W3C//DTD SVG 1.1 Tiny//EN" "http://www.w3.org/Graphics/SVG/1.1/DTD/svg11-tiny.dtd">
<svg version="1.1" xmlns="http://www.w3.org/2000/svg" xmlns:xlink="http://www.w3.org/1999/xlink" width="100%" height="100%" viewBox="0,0,3214,2821">
<title>SVG</title>
<desc>Poligon Test</desc>
<style id="style_css_sheet" type="text/css">
.polyStyle{fill: #cccccc;stroke-width:0;fill-rule:evenodd;}
</style>
<circle cx="1674" cy="1757" r="200" stroke="black" stroke-width="1" fill="red" id="371202" name="莱城区"/>
<circle cx="2380" cy="2417" r="200" stroke="black" stroke-width="1" fill="red" id="371203" name="钢城区"/>
<path d="" class="polyStyle" id="" style="fill:#ee8b94"/>
<path d="" class="polyStyle" id="623022" style="fill:#fbe6ef"/>
<path d="" class="polyStyle" id="211421" style="fill:#f6f67b"/>
<path d="" class="polyStyle" id="532524" style="fill:#ee8b94"/>
<path d="" class="polyStyle" id="440825" style="fill:#f6f67b"/>
<path d="" class="polyStyle" id="441721" style="fill:#f6f67b"/>
<path d="" class="polyStyle" id="450521" style="fill:#f6f67b"/>
<path d="" class="polyStyle" id="450123" style="fill:#fbe6ef"/>
<path d="" class="polyStyle" id="350624" style="fill:#f6f67b"/>
<path d="" class="polyStyle" id="" style="fill:#fbe6ef"/>
<path d="" class="polyStyle" id="451224" style="fill:#fbe6ef"/>
<path d="" class="polyStyle" id="350627" style="fill:#f6f67b"/>
<path d="" class="polyStyle" id="" style="fill:#f6f67b"/>
<path d="" class="polyStyle" id="350525" style="fill:#f6f67b"/>
<path d="" class="polyStyle" id="530124" style="fill:#ee8b94"/>
<path d="" class="polyStyle" id="522627" style="fill:#ee8b94"/>
<path d="" class="polyStyle" id="510421" style="fill:#fbe6ef"/>
<path d="" class="polyStyle" id="522623" style="fill:#d4ecb2"/>
<path d="" class="polyStyle" id="430321" style="fill:#d4ecb2"/>
<path d="" class="polyStyle" id="511129" style="fill:#d4ecb2"/>
<path d="" class="polyStyle" id="511423" style="fill:#ee8b94"/>
<path d="" class="polyStyle" id="421023" style="fill:#f6f67b"/>
<path d="" class="polyStyle" id="511724" style="fill:#f6f67b"/>
<path d="" class="polyStyle" id="420526" style="fill:#fbe6ef"/>
<path d="" class="polyStyle" id="511923" style="fill:#fbe6ef"/>
<path d="" class="polyStyle" id="420325" style="fill:#fbe6ef"/>
<path d="" class="polyStyle" id="511921" style="fill:#f6f67b"/>
<path d="" class="polyStyle" id="542525" style="fill:#f6f67b"/>
<path d="" class="polyStyle" id="611026" style="fill:#ee8b94"/>
<path d="" class="polyStyle" id="411023" style="fill:#fbe6ef"/>
<path d="" class="polyStyle" id="632323" style="fill:#f6f67b"/>
<path d="" class="polyStyle" id="140525" style="fill:#d4ecb2"/>
<path d="" class="polyStyle" id="410922" style="fill:#ee8b94"/>
<path d="" class="polyStyle" id="621027" style="fill:#ee8b94"/>
<path d="" class="polyStyle" id="130427" style="fill:#f6f67b"/>
<path d="" class="polyStyle" id="130121" style="fill:#ee8b94"/>
<path d="" class="polyStyle" id="610823" style="fill:#fbe6ef"/>
<path d="" class="polyStyle" id="130225" style="fill:#fbe6ef"/>
<path d="" class="polyStyle" id="130322" style="fill:#d4ecb2"/>
<path d="" class="polyStyle" id="653130" style="fill:#f6f67b"/>
<path d="" class="polyStyle" id="130822" style="fill:#fbe6ef"/>
<path d="" class="polyStyle" id="211221" style="fill:#f6f67b"/>
<path d="" class="polyStyle" id="210921" style="fill:#f6f67b"/>
<path d="" class="polyStyle" id="150223" style="fill:#f8c67d"/>
<path d="" class="polyStyle" id="220422" style="fill:#d4ecb2"/>
<path d="" class="polyStyle" id="340721" style="fill:#f6f67b"/>
<path d="" class="polyStyle" id="510824" style="fill:#d4ecb2"/>
<path d="" class="polyStyle" id="610324" style="fill:#f6f67b"/>
<path d="" class="polyStyle" id="530722" style="fill:#ee8b94"/>
<path d="" class="polyStyle" id="340823" style="fill:#d4ecb2"/>
<path d="" class="polyStyle" id="620825" style="fill:#d4ecb2"/>
<path d="" class="polyStyle" id="421125" style="fill:#ee8b94"/>
<path d="" class="polyStyle" id="210281" style="fill:#ee8b94"/>
<path d="" class="polyStyle" id="440883" style="fill:#f6f67b"/>
<path d="" class="polyStyle" id="469006" style="fill:#d4ecb2"/>
<path d="" class="polyStyle" id="469002" style="fill:#ee8b94"/>
<path d="" class="polyStyle" id="469005" style="fill:#fbe6ef"/>
<path d="" class="polyStyle" id="440882" style="fill:#ee8b94"/>
<path d="" class="polyStyle" id="450681" style="fill:#ee8b94"/>
<path d="" class="polyStyle" id="441581" style="fill:#d4ecb2"/>
<path d="" class="polyStyle" id="421087" style="fill:#ee8b94"/>
<path d="" class="polyStyle" id="420984" style="fill:#fbe6ef"/>
<path d="" class="polyStyle" id="420582" style="fill:#ee8b94"/>
<path d="" class="polyStyle" id="370282" style="fill:#f6f67b"/>
<path d="" class="polyStyle" id="371083" style="fill:#f6f67b"/>
<path d="" class="polyStyle" id="371082" style="fill:#fbe6ef"/>
<path d="" class="polyStyle" id="652801" style="fill:#f8c67d"/>
<path d="" class="polyStyle" id="654301" style="fill:#ee8b94"/>
<path d="" class="polyStyle" id="370687" style="fill:#ee8b94"/>
<path d="" class="polyStyle" id="371482" style="fill:#d4ecb2"/>
<path d="" class="polyStyle" id="421081" style="fill:#fbe6ef"/>
<path d="" class="polyStyle" id="429006" style="fill:#f6f67b"/>
<path d="" class="polyStyle" id="440982" style="fill:#d4ecb2"/>
<path d="" class="polyStyle" id="421181" style="fill:#d4ecb2"/>
<path d="" class="polyStyle" id="321181" style="fill:#d4ecb2"/>
<path d="" class="polyStyle" id="659007" style="fill:#ee8b94"/>
<path d="" class="polyStyle" id="652701" style="fill:#fbe6ef"/>
<path d="" class="polyStyle" id="210781" style="fill:#fbe6ef"/>
<path d="" class="polyStyle" id="460204" style="fill:#f6f67b"/>
<path d="" class="polyStyle" id="210211" style="fill:#f6f67b"/>
<path d="" class="polyStyle" id="450512" style="fill:#ee8b94"/>
<path d="" class="polyStyle" id="450602" style="fill:#fbe6ef"/>
<path d="" class="polyStyle" id="440404" style="fill:#ee8b94"/>
<path d="" class="polyStyle" id="440403" style="fill:#f6f67b"/>
<path d="" class="polyStyle" id="441502" style="fill:#f6f67b"/>
<path d="" class="polyStyle" id="431002" style="fill:#d4ecb2"/>
<path d="" class="polyStyle" id="500107" style="fill:#fbe6ef"/>
<path d="" class="polyStyle" id="430611" style="fill:#d4ecb2"/>
<path d="" class="polyStyle" id="511304" style="fill:#fbe6ef"/>
<path d="" class="polyStyle" id="340711" style="fill:#ee8b94"/>
<path d="" class="polyStyle" id="320118" style="fill:#f6f67b"/>
<path d="" class="polyStyle" id="510704" style="fill:#f6f67b"/>
<path d="" class="polyStyle" id="411502" style="fill:#ee8b94"/>
<path d="" class="polyStyle" id="320302" style="fill:#d4ecb2"/>
<polygon points="1500,5 1497,26 1499,30 1502,32 1513,39 1523,44 1529,49 1540,61 1546,65 1555,70 1560,79 1563,85 1566,88 1573,90 1609,100 1619,103 1628,103 1634,102 1638,106 1644,108 1655,107 1659,110 1663,117 1664,121 1670,124 1683,128 1685,131 1688,135 1693,134 1697,133 1704,136 1712,141 1713,144 1715,149 1720,149 1725,143 1734,140 1750,137 1760,138 1788,148 1792,152 1793,159 1795,163 1801,167 1828,173 1839,173 1848,171 1857,170 1863,172 1866,175 1868,181 1873,183 1886,182 1898,177 1908,175 1916,171 1921,168 1928,168 1942,160 1959,160 1967,158 1974,153 1987,142 1993,139 2000,138 2019,137 2032,139 2047,142 2059,149 2072,148 2076,147 2080,149 2091,155 2099,167 2123,176 2134,182 2143,191 2153,209 2162,214 2165,219 2162,225 2154,230 2130,239 2121,241 2112,237 2111,234 2113,231 2119,230 2128,230 2134,226 2132,221 2125,218 2097,221 2081,231 2068,243 2062,247 2058,237 2055,235 2051,235 2038,236 2034,238 2030,241 2025,242 2017,243 2014,248 2018,252 2029,250 2036,247 2037,257 2039,261 2045,266 2046,271 2046,279 2050,283 2089,283 2089,291 2092,293 2113,294 2118,295 2123,301 2124,305 2122,316 2123,325 2125,342 2120,351 2081,376 2080,381 2083,392 2087,393 2094,390 2103,390 2108,391 2110,394 2111,400 2115,402 2121,401 2124,397 2129,397 2134,403 2136,421 2137,424 2140,426 2151,426 2166,424 2168,432 2167,438 2169,441 2171,445 2169,447 2151,448 2154,452 2154,455 2153,458 2150,460 2143,461 2122,456 2110,459 2107,462 2106,466 2107,471 2110,474 2122,475 2135,475 2140,480 2139,484 2129,492 2130,498 2131,502 2134,504 2141,506 2149,505 2154,506 2155,511 2130,531 2120,541 2118,546 2128,562 2137,569 2151,568 2159,563 2163,557 2172,555 2188,555 2200,558 2212,567 2215,569 2219,569 2232,567 2238,568 2242,572 2250,586 2260,598 2263,606 2267,620 2274,625 2281,622 2281,615 2274,609 2273,605 2277,604 2283,610 2287,610 2292,605 2291,601 2283,600 2274,600 2272,597 2274,588 2278,584 2282,581 2282,573 2283,570 2286,568 2301,567 2310,569 2320,574 2328,580 2331,582 2333,586 2335,597 2334,608 2336,611 2341,611 2348,611 2354,608 2379,592 2392,591 2397,587 2398,579 2401,577 2405,578 2407,584 2413,591 2416,594 2420,595 2425,592 2426,585 2427,570 2428,564 2426,558 2424,550 2428,543 2438,540 2445,542 2449,545 2458,556 2464,558 2495,554 2500,555 2504,558 2511,568 2507,578 2499,583 2489,585 2487,587 2485,613 2475,629 2474,635 2484,663 2485,677 2487,681 2490,683 2496,684 2504,679 2512,679 2515,683 2518,690 2527,691 2548,690 2553,690 2557,692 2564,699 2570,702 2581,703 2585,705 2590,708 2602,707 2616,708 2625,713 2630,728 2631,743 2628,757 2628,762 2630,765 2632,769 2629,773 2628,783 2625,787 2617,792 2615,797 2618,807 2621,809 2625,808 2632,806 2637,807 2639,812 2636,823 2646,824 2654,829 2660,835 2662,837 2670,838 2677,839 2680,843 2680,848 2676,852 2673,856 2676,861 2681,863 2692,861 2698,862 2701,865 2705,868 2712,869 2714,877 2718,887 2720,890 2723,891 2730,892 2731,897 2731,903 2736,912 2737,916 2741,917 2750,916 2752,919 2751,929 2748,935 2734,942 2730,946 2734,949 2748,947 2752,948 2750,952 2747,960 2748,966 2758,971 2752,980 2751,988 2756,991 2764,992 2769,990 2771,986 2772,975 2774,972 2777,969 2777,960 2779,952 2786,947 2795,942 2800,941 2807,944 2808,949 2804,955 2803,961 2806,967 2813,968 2818,968 2818,974 2813,996 2809,1005 2803,1008 2799,1010 2798,1017 2805,1019 2808,1023 2811,1030 2807,1034 2795,1051 2790,1065 2789,1076 2792,1081 2801,1087 2801,1094 2804,1096 2810,1094 2812,1088 2807,1078 2807,1075 2816,1066 2818,1062 2826,1048 2830,1045 2832,1041 2841,1039 2855,1041 2859,1040 2860,1035 2854,1024 2853,1018 2854,1008 2860,1002 2865,999 2869,999 2875,1005 2879,1011 2887,1014 2903,1016 2910,1015 2913,1013 2916,1006 2921,1005 2930,1008 2939,1015 2944,1017 2955,1016 2965,1015 2967,1013 2961,1001 2959,997 2964,994 2975,995 2988,1001 2994,1007 2995,1014 2995,1022 2999,1028 3010,1034 3013,1039 3014,1043 3012,1046 3004,1047 2996,1044 2992,1040 2982,1023 2982,1018 2979,1017 2973,1022 2969,1022 2960,1022 2959,1025 2964,1029 2970,1030 2982,1040 2990,1046 2993,1051 2990,1053 2977,1052 2978,1057 2984,1058 2995,1056 3002,1056 3005,1059 3004,1064 2999,1066 2989,1067 2986,1070 2987,1074 2991,1079 2998,1083 3005,1082 3007,1085 3006,1089 3000,1095 2991,1099 2986,1099 2989,1093 2986,1092 2979,1095 2978,1099 2979,1117 2977,1124 2959,1132 2952,1134 2946,1138 2933,1151 2932,1173 2930,1178 2931,1182 2938,1182 2941,1175 2942,1170 2945,1170 2947,1175 2944,1182 2945,1188 2949,1192 2963,1197 2963,1207 2960,1221 2959,1230 2949,1232 2945,1234 2952,1241 2950,1247 2951,1251 2955,1258 2955,1263 2950,1268 2950,1271 2967,1308 2985,1313 2988,1321 2991,1339 2992,1351 2989,1357 2980,1367 2975,1377 2968,1379 2966,1383 2968,1390 2967,1397 2963,1400 2956,1402 2941,1403 2932,1405 2922,1414 2915,1419 2908,1422 2902,1421 2895,1415 2891,1412 2880,1412 2867,1411 2855,1413 2838,1413 2822,1414 2816,1418 2806,1431 2799,1438 2793,1440 2788,1441 2783,1436 2777,1434 2769,1436 2759,1442 2751,1444 2741,1452 2732,1460 2725,1464 2705,1465 2693,1467 2686,1472 2684,1481 2680,1487 2664,1488 2657,1484 2654,1477 2652,1462 2646,1455 2638,1447 2638,1435 2635,1431 2624,1412 2616,1403 2616,1380 2618,1370 2631,1356 2639,1348 2638,1342 2631,1334 2622,1331 2606,1330 2581,1332 2567,1329 2558,1332 2557,1349 2555,1355 2547,1359 2540,1364 2519,1380 2508,1388 2497,1390 2481,1390 2462,1397 2458,1403 2455,1416 2455,1426 2452,1432 2429,1445 2417,1456 2411,1458 2388,1454 2374,1453 2368,1455 2369,1460 2376,1473 2375,1480 2375,1488 2377,1491 2379,1509 2379,1531 2374,1540 2349,1566 2325,1590 2306,1612 2270,1652 2243,1676 2237,1689 2230,1695 2226,1702 2216,1703 2196,1715 2189,1721 2189,1726 2193,1729 2197,1727 2207,1725 2216,1731 2221,1739 2221,1746 2207,1747 2194,1746 2182,1751 2168,1766 2162,1769 2152,1765 2143,1766 2138,1772 2138,1793 2139,1830 2130,1842 2129,1853 2135,1878 2136,1881 2141,1895 2141,1905 2138,1910 2134,1914 2125,1920 2122,1922 2091,1932 2072,1942 2063,1949 2046,1964 2024,1978 2011,1981 1989,1982 1950,1974 1944,1986 1941,1990 1934,1992 1920,1984 1899,1989 1900,2007 1899,2013 1895,2021 1881,2031 1865,2038 1854,2047 1850,2051 1848,2056 1844,2072 1835,2128 1810,2166 1807,2175 1806,2187 1806,2200 1808,2209 1811,2218 1811,2231 1812,2236 1815,2240 1830,2251 1840,2257 1855,2263 1864,2271 1868,2285 1865,2316 1871,2324 1871,2334 1868,2342 1862,2349 1851,2365 1849,2373 1862,2381 1866,2390 1865,2401 1866,2405 1870,2407 1877,2412 1890,2428 1897,2432 1910,2432 1919,2432 1922,2433 1923,2436 1922,2439 1907,2443 1900,2449 1899,2453 1900,2459 1906,2469 1898,2475 1896,2480 1896,2484 1892,2490 1879,2503 1875,2511 1868,2518 1855,2525 1841,2528 1833,2529 1827,2532 1821,2530 1800,2518 1783,2505 1776,2503 1771,2504 1762,2508 1759,2514 1756,2519 1747,2526 1729,2534 1716,2534 1699,2531 1680,2527 1663,2520 1647,2512 1636,2511 1617,2516 1604,2516 1594,2512 1589,2501 1586,2496 1582,2493 1570,2489 1553,2486 1546,2481 1546,2478 1553,2464 1553,2459 1550,2457 1538,2456 1516,2452 1503,2447 1496,2446 1487,2443 1482,2439 1479,2434 1471,2426 1459,2423 1451,2422 1446,2417 1439,2411 1432,2409 1426,2411 1421,2415 1416,2417 1394,2420 1387,2420 1382,2418 1378,2415 1374,2408 1371,2400 1367,2395 1355,2386 1327,2372 1321,2369 1314,2368 1306,2369 1301,2372 1295,2375 1288,2382 1284,2385 1281,2385 1278,2385 1269,2380 1257,2374 1251,2375 1231,2385 1222,2391 1214,2391 1201,2382 1197,2381 1189,2380 1181,2374 1173,2367 1165,2363 1158,2361 1152,2362 1141,2365 1133,2361 1114,2346 1105,2341 1096,2338 1087,2330 1082,2320 1083,2305 1083,2298 1079,2294 1074,2289 1071,2282 1073,2260 1072,2255 1065,2244 1063,2231 1054,2229 1052,2225 1051,2222 1048,2221 1037,2220 1015,2214 1010,2215 1010,2222 1010,2226 1000,2226 996,2224 991,2218 983,2214 981,2227 961,2241 954,2246 943,2249 937,2251 928,2258 915,2273 911,2278 911,2283 914,2286 915,2290 915,2298 912,2301 907,2301 901,2298 896,2293 888,2286 877,2282 863,2273 849,2269 829,2271 821,2273 818,2276 814,2282 808,2284 798,2283 796,2277 791,2268 782,2265 769,2266 759,2270 746,2284 743,2291 744,2295 746,2298 746,2302 742,2308 733,2312 731,2316 731,2320 727,2324 721,2319 713,2323 709,2322 704,2318 699,2317 693,2320 692,2323 688,2323 681,2320 676,2326 666,2330 653,2329 639,2325 633,2324 624,2329 609,2336 599,2335 580,2323 575,2318 574,2314 576,2309 587,2306 593,2302 590,2298 583,2294 581,2288 583,2283 588,2284 595,2287 602,2285 611,2274 619,2255 620,2246 615,2242 611,2239 615,2231 617,2226 612,2218 614,2216 618,2215 638,2212 653,2208 663,2201 666,2195 662,2188 658,2185 651,2184 624,2186 588,2186 577,2180 569,2173 568,2168 575,2150 589,2125 593,2117 594,2111 596,2104 605,2090 610,2077 613,2060 615,2050 619,2046 626,2040 632,2029 634,2024 637,2022 647,2018 655,2014 665,2004 670,2000 675,1999 686,1999 689,2000 690,2003 690,2016 693,2019 700,2020 724,2019 737,2012 754,1997 772,1994 775,1992 777,1987 778,1974 775,1967 764,1957 762,1951 762,1942 757,1932 767,1928 775,1927 778,1922 775,1918 769,1915 763,1914 759,1917 754,1921 744,1923 739,1923 735,1921 731,1920 725,1915 718,1907 713,1904 705,1902 696,1906 693,1908 692,1912 690,1916 687,1917 683,1917 679,1914 671,1909 664,1909 649,1918 645,1917 643,1914 640,1908 631,1909 627,1908 626,1900 625,1895 621,1894 614,1892 611,1886 609,1883 603,1880 603,1877 608,1870 607,1867 600,1867 595,1867 592,1865 584,1859 583,1845 582,1842 579,1840 574,1836 573,1824 570,1820 565,1818 555,1818 546,1818 541,1810 543,1802 553,1792 579,1767 590,1751 578,1754 571,1753 570,1749 571,1741 567,1737 564,1737 558,1741 554,1740 551,1737 553,1729 559,1725 573,1726 577,1725 579,1722 580,1709 579,1703 577,1701 574,1699 576,1693 577,1685 575,1681 572,1679 563,1678 539,1682 530,1679 509,1664 501,1662 487,1662 444,1670 438,1672 435,1676 430,1690 421,1698 396,1706 387,1708 375,1708 351,1705 336,1694 325,1682 320,1673 312,1670 306,1668 305,1659 304,1656 300,1654 287,1652 277,1648 264,1637 265,1632 268,1630 271,1631 279,1633 292,1632 297,1629 303,1622 306,1611 306,1604 301,1594 301,1589 304,1586 313,1584 317,1581 324,1578 342,1576 366,1565 372,1562 374,1557 377,1553 384,1555 416,1552 420,1544 420,1536 410,1527 413,1511 414,1506 411,1502 405,1493 405,1432 361,1434 352,1432 334,1421 329,1417 324,1410 318,1402 315,1394 314,1384 318,1383 324,1382 328,1375 329,1361 326,1353 310,1346 305,1346 302,1348 296,1352 292,1345 282,1343 278,1341 276,1335 283,1324 283,1317 273,1317 266,1316 260,1311 276,1283 272,1267 261,1252 246,1235 241,1224 234,1199 233,1196 235,1190 241,1188 246,1183 248,1180 250,1167 253,1160 257,1156 279,1139 284,1140 298,1151 302,1150 302,1146 288,1133 287,1130 294,1125 295,1121 292,1116 283,1113 280,1110 280,1101 279,1097 269,1094 264,1091 267,1086 273,1083 250,1072 243,1068 238,1058 230,1048 219,1044 215,1043 213,1040 210,1036 207,1027 199,1009 197,1005 193,1002 177,997 171,995 168,992 162,983 154,978 131,976 120,969 101,948 95,940 96,932 95,923 91,920 84,918 76,914 77,902 77,879 70,862 52,847 58,840 73,832 90,823 96,819 100,813 107,795 104,782 99,778 92,776 66,773 52,770 48,767 46,762 44,759 37,757 33,754 29,749 28,745 32,738 38,733 38,726 35,714 28,701 26,693 28,677 34,665 35,656 30,646 17,635 12,631 7,624 1,607 0,596 2,562 3,553 8,545 17,525 20,521 23,520 38,516 42,513 45,507 50,480 53,476 60,473 69,471 80,471 89,474 100,480 110,478 116,479 123,483 127,488 130,493 134,495 134,502 130,523 132,534 137,543 147,546 152,552 159,553 169,554 174,557 179,561 186,562 197,561 201,564 210,580 213,587 217,589 227,588 231,584 232,577 236,574 242,574 249,578 252,580 256,580 264,580 275,574 285,574 292,570 300,561 304,560 313,562 322,567 328,573 333,574 339,573 336,552 325,536 327,521 329,513 331,509 334,506 334,501 333,493 328,485 329,480 333,477 340,476 344,474 345,469 347,464 354,460 366,448 387,442 401,435 405,430 406,423 409,418 416,415 425,418 430,421 435,420 450,410 457,408 466,409 478,409 491,403 511,398 524,396 535,397 544,403 547,409 550,417 558,420 575,422 584,420 598,413 605,412 618,425 630,427 642,424 669,408 678,405 682,400 686,394 693,392 723,395 737,396 758,384 757,381 752,379 745,376 742,371 745,364 749,363 752,363 756,356 760,349 759,343 757,336 761,333 782,333 788,331 792,325 792,319 797,319 807,318 813,312 813,302 815,299 824,297 826,290 834,290 839,287 839,281 832,278 830,276 832,269 826,262 825,258 827,249 834,238 842,231 842,227 841,223 848,218 856,217 862,220 867,227 872,231 883,236 892,240 901,240 906,238 909,240 911,246 931,251 932,258 941,257 946,259 952,261 955,255 955,247 959,243 973,241 982,242 1000,246 1018,247 1030,244 1049,229 1056,223 1066,220 1086,213 1091,210 1090,206 1091,202 1099,200 1120,198 1141,200 1155,207 1162,206 1166,203 1169,198 1170,186 1171,177 1176,171 1203,170 1213,166 1220,160 1226,142 1233,135 1244,130 1253,130 1260,130 1265,124 1271,113 1277,109 1286,102 1294,91 1298,75 1301,63 1311,62 1326,64 1334,62 1342,58 1353,56 1370,56 1394,54 1407,54 1416,50 1427,42 1433,34 1437,27 1445,25 1454,23 1462,16 1475,5 1484,0 1495,1 " class="polyStyle" id="371202" style="fill:#f6f67b"/>
<path d="" class="polyStyle" id="140311" style="fill:#ee8b94"/>
<path d="" class="polyStyle" id="610802" style="fill:#ee8b94"/>
<path d="" class="polyStyle" id="120116" style="fill:#f6f67b"/>
<path d="" class="polyStyle" id="130303" style="fill:#fbe6ef"/>
<path d="" class="polyStyle" id="140211" style="fill:#f6f67b"/>
<path d="" class="polyStyle" id="150207" style="fill:#fbe6ef"/>
<path d="" class="polyStyle" id="211403" style="fill:#f6f67b"/>
<path d="" class="polyStyle" id="150802" style="fill:#f8c67d"/>
<path d="" class="polyStyle" id="210112" style="fill:#ee8b94"/>
<path d="" class="polyStyle" id="230406" style="fill:#d4ecb2"/>
<path d="" class="polyStyle" id="110113" style="fill:#fbe6ef"/>
<path d="" class="polyStyle" id="341702" style="fill:#fbe6ef"/>
<path d="" class="polyStyle" id="420303" style="fill:#ee8b94"/>
<path d="" class="polyStyle" id="340702" style="fill:#d4ecb2"/>
<path d="" class="polyStyle" id="421002" style="fill:#f6f67b"/>
<path d="" class="polyStyle" id="420117" style="fill:#f6f67b"/>
<polygon points="3204,1439 3199,1442 3200,1446 3204,1449 3212,1452 3214,1455 3213,1462 3210,1466 3205,1471 3202,1478 3197,1493 3191,1496 3190,1500 3191,1508 3187,1516 3173,1530 3167,1546 3162,1555 3159,1578 3159,1588 3157,1594 3156,1604 3159,1611 3162,1616 3163,1628 3160,1636 3152,1642 3153,1656 3159,1667 3163,1684 3167,1692 3171,1697 3169,1701 3159,1706 3151,1707 3149,1710 3151,1718 3150,1722 3147,1725 3141,1743 3137,1747 3131,1748 3124,1746 3118,1740 3107,1732 3088,1728 3063,1728 3044,1730 3040,1733 3037,1739 3028,1738 3005,1754 3003,1760 3007,1765 3009,1769 3004,1770 2999,1771 2997,1774 2997,1779 2996,1784 2990,1785 2979,1785 2975,1782 2980,1776 2974,1774 2969,1771 2965,1764 2955,1763 2950,1760 2943,1750 2935,1747 2925,1748 2921,1750 2918,1757 2916,1760 2913,1761 2908,1764 2909,1771 2910,1780 2908,1794 2908,1799 2911,1805 2909,1816 2895,1824 2893,1845 2874,1845 2874,1854 2870,1868 2866,1886 2860,1893 2851,1896 2848,1901 2849,1905 2861,1907 2868,1906 2870,1902 2874,1898 2884,1898 2891,1903 2899,1916 2911,1930 2912,1942 2921,1947 2924,1949 2925,1952 2924,1957 2921,1961 2912,1956 2909,1956 2906,1958 2907,1962 2912,1971 2911,1977 2907,1985 2890,1987 2885,1988 2883,1991 2883,1994 2886,1996 2890,1999 2890,2003 2873,2003 2870,2006 2870,2011 2879,2029 2890,2030 2895,2032 2896,2047 2898,2051 2904,2053 2906,2056 2906,2060 2904,2068 2895,2070 2892,2074 2894,2078 2897,2080 2900,2086 2897,2093 2896,2099 2900,2108 2906,2116 2908,2123 2910,2125 2922,2124 2924,2125 2922,2132 2922,2153 2924,2157 2928,2160 2935,2164 2943,2166 2952,2173 2958,2185 2954,2186 2950,2183 2946,2178 2942,2176 2935,2176 2934,2179 2936,2184 2941,2188 2947,2190 2950,2192 2952,2196 2949,2211 2945,2219 2947,2222 2952,2225 2955,2229 2963,2241 2960,2255 2963,2263 2970,2274 2974,2274 2989,2268 2993,2270 2995,2277 2979,2281 2976,2283 2980,2290 2983,2292 2987,2294 2991,2301 2995,2302 3009,2296 3015,2296 3022,2299 3040,2298 3043,2295 3044,2291 3047,2285 3055,2283 3067,2283 3072,2281 3071,2277 3067,2272 3074,2268 3082,2275 3088,2277 3086,2279 3080,2285 3076,2295 3079,2300 3087,2303 3091,2304 3098,2311 3101,2312 3112,2317 3117,2323 3114,2329 3103,2340 3100,2344 3104,2346 3106,2352 3106,2363 3074,2361 3068,2364 3068,2372 3068,2378 3064,2385 3066,2395 3062,2394 3058,2396 3053,2400 3048,2408 3061,2422 3064,2425 3069,2426 3073,2428 3077,2433 3081,2447 3080,2452 3077,2455 3065,2456 3058,2456 3047,2459 3017,2462 3012,2475 3005,2489 3004,2495 2997,2500 2995,2502 3007,2509 3015,2517 3021,2530 3027,2538 3044,2549 3054,2552 3070,2553 3076,2556 3075,2560 3068,2567 3069,2571 3074,2575 3076,2582 3074,2589 3069,2590 3061,2590 3055,2594 3049,2600 3046,2607 3044,2612 3045,2616 3073,2616 3076,2625 3072,2636 3067,2642 3068,2645 3080,2647 3093,2660 3094,2666 3092,2675 3077,2675 3059,2681 3060,2690 3065,2698 3068,2701 3074,2714 3078,2724 3078,2736 3080,2745 3085,2751 3092,2757 3092,2761 3086,2767 3084,2774 3081,2780 3071,2787 3062,2790 3053,2787 3047,2786 3038,2788 3038,2776 3036,2766 3032,2763 3025,2760 3022,2753 3018,2745 3012,2745 2990,2747 2979,2746 2975,2744 2973,2739 2976,2730 2975,2724 2970,2718 2965,2711 2963,2705 2961,2695 2958,2692 2951,2691 2948,2690 2946,2687 2940,2681 2932,2678 2928,2677 2924,2671 2920,2669 2860,2669 2852,2666 2849,2664 2846,2658 2840,2651 2834,2653 2828,2657 2819,2658 2815,2660 2814,2668 2813,2671 2806,2675 2803,2679 2801,2682 2798,2683 2795,2682 2793,2679 2790,2676 2781,2676 2766,2672 2751,2685 2746,2688 2740,2689 2727,2689 2720,2685 2715,2685 2712,2689 2712,2707 2711,2711 2708,2714 2697,2714 2693,2717 2690,2727 2688,2730 2683,2732 2667,2733 2656,2724 2645,2721 2631,2723 2620,2731 2611,2737 2602,2737 2588,2718 2585,2716 2574,2715 2569,2713 2562,2706 2558,2705 2553,2707 2549,2712 2561,2723 2565,2730 2564,2733 2561,2734 2553,2732 2523,2716 2511,2715 2503,2721 2496,2728 2487,2730 2482,2726 2476,2709 2473,2706 2469,2705 2463,2706 2455,2710 2444,2712 2440,2710 2438,2707 2432,2700 2422,2699 2413,2701 2411,2704 2411,2714 2408,2717 2404,2715 2402,2708 2400,2704 2397,2702 2386,2701 2354,2706 2344,2705 2337,2699 2333,2696 2326,2694 2309,2697 2288,2711 2268,2719 2252,2734 2252,2736 2264,2741 2267,2743 2269,2749 2269,2762 2253,2776 2253,2786 2247,2792 2237,2795 2221,2794 2201,2800 2191,2802 2187,2807 2183,2811 2172,2814 2163,2816 2160,2817 2158,2820 2154,2821 2147,2818 2139,2813 2134,2806 2120,2776 2123,2764 2123,2755 2114,2739 2110,2732 2104,2730 2100,2729 2097,2725 2094,2720 2093,2714 2096,2708 2111,2694 2122,2680 2125,2673 2096,2637 2089,2630 2085,2628 2080,2628 2074,2627 2070,2621 2068,2611 2064,2608 2059,2605 2054,2594 2051,2590 2047,2590 2035,2595 2019,2616 2014,2619 2007,2620 1992,2620 1972,2622 1966,2620 1964,2611 1955,2609 1953,2606 1962,2599 1963,2595 1958,2589 1951,2584 1938,2582 1925,2582 1918,2573 1912,2565 1904,2562 1890,2561 1886,2561 1881,2558 1862,2548 1847,2546 1839,2543 1827,2532 1833,2529 1841,2528 1855,2525 1868,2518 1875,2511 1879,2503 1892,2490 1896,2484 1896,2480 1898,2475 1906,2469 1900,2459 1899,2453 1900,2449 1907,2443 1922,2439 1923,2436 1922,2433 1919,2432 1910,2432 1897,2432 1890,2428 1877,2412 1870,2407 1866,2405 1865,2401 1866,2390 1862,2381 1849,2373 1851,2365 1862,2349 1868,2342 1871,2334 1871,2324 1865,2316 1868,2285 1864,2271 1855,2263 1840,2257 1830,2251 1815,2240 1812,2236 1811,2231 1811,2218 1808,2209 1806,2200 1806,2187 1807,2175 1810,2166 1835,2128 1844,2072 1848,2056 1850,2051 1854,2047 1865,2038 1881,2031 1895,2021 1899,2013 1900,2007 1899,1989 1920,1984 1934,1992 1941,1990 1944,1986 1950,1974 1989,1982 2011,1981 2024,1978 2046,1964 2063,1949 2072,1942 2091,1932 2122,1922 2125,1920 2134,1914 2138,1910 2141,1905 2141,1895 2136,1881 2135,1878 2129,1853 2130,1842 2139,1830 2138,1793 2138,1772 2143,1766 2152,1765 2162,1769 2168,1766 2182,1751 2194,1746 2207,1747 2221,1746 2221,1739 2216,1731 2207,1725 2197,1727 2193,1729 2189,1726 2189,1721 2196,1715 2216,1703 2226,1702 2230,1695 2237,1689 2243,1676 2270,1652 2306,1612 2325,1590 2349,1566 2374,1540 2379,1531 2379,1509 2377,1491 2375,1488 2375,1480 2376,1473 2369,1460 2368,1455 2374,1453 2388,1454 2411,1458 2417,1456 2429,1445 2452,1432 2455,1426 2455,1416 2458,1403 2462,1397 2481,1390 2497,1390 2508,1388 2519,1380 2540,1364 2547,1359 2555,1355 2557,1349 2558,1332 2567,1329 2581,1332 2606,1330 2622,1331 2631,1334 2638,1342 2639,1348 2631,1356 2618,1370 2616,1380 2616,1403 2624,1412 2635,1431 2638,1435 2638,1447 2646,1455 2652,1462 2654,1477 2657,1484 2664,1488 2680,1487 2684,1481 2686,1472 2693,1467 2705,1465 2725,1464 2732,1460 2741,1452 2751,1444 2759,1442 2769,1436 2777,1434 2783,1436 2788,1441 2793,1440 2799,1438 2806,1431 2816,1418 2822,1414 2838,1413 2855,1413 2867,1411 2880,1412 2891,1412 2895,1415 2902,1421 2908,1422 2915,1419 2922,1414 2932,1405 2941,1403 2956,1402 2963,1400 2967,1397 2968,1390 2966,1383 2968,1379 2975,1377 2976,1389 2982,1399 2997,1410 3005,1414 3011,1415 3031,1416 3039,1414 3054,1402 3077,1405 3094,1410 3106,1416 3111,1418 3117,1418 3134,1412 3138,1410 3142,1413 3146,1416 3153,1417 3167,1420 3171,1426 3175,1427 3195,1427 3203,1431 3205,1435 " class="polyStyle" id="371203" style="fill:#ee8b94"/>
<path d="" class="polyStyle" id="440904" style="fill:#f8c67d"/>
<path d="" class="polyStyle" id="460205" style="fill:#ee8b94"/>
<path d="" class="polyStyle" id="460202" style="fill:#f6f67b"/>
<path d="" class="polyStyle" id="460203" style="fill:#fbe6ef"/>
<path d="" class="polyStyle" id="420304" style="fill:#f6f67b"/>
<path d="" class="polyStyle" id="445302" style="fill:#ee8b94"/>
<path d="" class="polyStyle" id="410202" style="fill:#d4ecb2"/>
<path d="" class="polyStyle" id="440800" style="fill:#f6f67b"/>
<path d="" class="polyStyle" id="440900" style="fill:#ee8b94"/>
<path d="" class="polyStyle" id="340800" style="fill:#ee8b94"/>
<path d="" class="polyStyle" id="460200" style="fill:#f6f67b"/>
<path d="" class="polyStyle" id="460000" style="fill:#ee8b94"/>
<path d="" class="polyStyle" id="450500" style="fill:#ee8b94"/>
<path d="" class="polyStyle" id="450600" style="fill:#ee8b94"/>
<path d="" class="polyStyle" id="440400" style="fill:#f6f67b"/>
<path d="" class="polyStyle" id="441700" style="fill:#f6f67b"/>
<path d="" class="polyStyle" id="441500" style="fill:#f6f67b"/>
<path d="" class="polyStyle" id="350600" style="fill:#ee8b94"/>
<path d="" class="polyStyle" id="710000" style="fill:#f6f67b"/>
<path d="" class="polyStyle" id="510400" style="fill:#f6f67b"/>
<path d="" class="polyStyle" id="522600" style="fill:#fbe6ef"/>
<path d="" class="polyStyle" id="520500" style="fill:#ee8b94"/>
<path d="" class="polyStyle" id="431200" style="fill:#f6f67b"/>
<path d="" class="polyStyle" id="430600" style="fill:#f6f67b"/>
<path d="" class="polyStyle" id="511400" style="fill:#d4ecb2"/>
<path d="" class="polyStyle" id="421000" style="fill:#ee8b94"/>
<path d="" class="polyStyle" id="341700" style="fill:#f6f67b"/>
<path d="" class="polyStyle" id="420500" style="fill:#f6f67b"/>
<path d="" class="polyStyle" id="511300" style="fill:#f6f67b"/>
<path d="" class="polyStyle" id="420900" style="fill:#f6f67b"/>
<path d="" class="polyStyle" id="511700" style="fill:#ee8b94"/>
<path d="" class="polyStyle" id="420600" style="fill:#d4ecb2"/>
<path d="" class="polyStyle" id="411500" style="fill:#fbe6ef"/>
<path d="" class="polyStyle" id="510800" style="fill:#ee8b94"/>
<path d="" class="polyStyle" id="420300" style="fill:#fbe6ef"/>
<path d="" class="polyStyle" id="611000" style="fill:#ee8b94"/>
<path d="" class="polyStyle" id="620800" style="fill:#fbe6ef"/>
<path d="" class="polyStyle" id="370200" style="fill:#ee8b94"/>
<path d="" class="polyStyle" id="371000" style="fill:#f6f67b"/>
<path d="" class="polyStyle" id="370600" style="fill:#fbe6ef"/>
<path d="" class="polyStyle" id="120000" style="fill:#f6f67b"/>
<path d="" class="polyStyle" id="130200" style="fill:#ee8b94"/>
<path d="" class="polyStyle" id="130300" style="fill:#f6f67b"/>
<path d="" class="polyStyle" id="652900" style="fill:#fbe6ef"/>
<path d="" class="polyStyle" id="150500" style="fill:#d4ecb2"/>
<path d="" class="polyStyle" id="" style="fill:#d4ecb2"/>
<path d="" class="polyStyle" id="350500" style="fill:#fbe6ef"/>
<path d="" class="polyStyle" id="440400" style="fill:#f6f67b"/>
<path d="" class="polyStyle" id="421100" style="fill:#d4ecb2"/>
<path d="" class="polyStyle" id="420100" style="fill:#fbe6ef"/>
<path d="" class="polyStyle" id="532500" style="fill:#fbe6ef"/>
<path d="" class="polyStyle" id="654200" style="fill:#fbe6ef"/>
<path d="" class="polyStyle" id="210700" style="fill:#d4ecb2"/>
<path d="" class="polyStyle" id="522300" style="fill:#fbe6ef"/>
<path d="" class="polyStyle" id="" style="fill:#ee8b94"/>
<path d="" class="polyStyle" id="440400" style="fill:#f6f67b"/>
<path d="" class="polyStyle" id="620000" style="fill:#f6f67b"/>
<path d="" class="polyStyle" id="430000" style="fill:#fbe6ef"/>
<path d="" class="polyStyle" id="420000" style="fill:#ee8b94"/>
<path d="" class="polyStyle" id="410000" style="fill:#f6f67b"/>
<path d="" class="polyStyle" id="350000" style="fill:#fbe6ef"/>
<path d="" class="polyStyle" id="520000" style="fill:#f6f67b"/>
<path d="" class="polyStyle" id="" style="fill:#ee8b94"/>
</svg>
