<?xml version="1.0" encoding="UTF-8"?>
<!DOCTYPE svg PUBLIC "-//W3C//DTD SVG 1.1 Tiny//EN" "http://www.w3.org/Graphics/SVG/1.1/DTD/svg11-tiny.dtd">
<svg version="1.1" xmlns="http://www.w3.org/2000/svg" xmlns:xlink="http://www.w3.org/1999/xlink" width="100%" height="100%" viewBox="0,0,6980,4149">
<title>SVG</title>
<desc>Poligon Test</desc>
<style id="style_css_sheet" type="text/css">
.polyStyle{fill: #cccccc;stroke-width:0;fill-rule:evenodd;}
</style>
<circle cx="4728" cy="1018" r="200" stroke="black" stroke-width="1" fill="red" id="410225" name="兰考县"/>
<circle cx="2963" cy="2767" r="200" stroke="black" stroke-width="1" fill="red" id="410222" name="通许县"/>
<circle cx="1608" cy="3079" r="200" stroke="black" stroke-width="1" fill="red" id="410223" name="尉氏县"/>
<circle cx="4550" cy="2383" r="200" stroke="black" stroke-width="1" fill="red" id="410221" name="杞县"/>
<circle cx="2442" cy="1152" r="200" stroke="black" stroke-width="1" fill="red" id="410203" name="顺河回族区"/>
<circle cx="2407" cy="1150" r="200" stroke="black" stroke-width="1" fill="red" id="410204" position="44"name="鼓楼区"/>
<circle cx="2376" cy="1239" r="200" stroke="black" stroke-width="1" fill="red" id="410205" position="1"name="禹王台区"/>
<circle cx="2427" cy="1026" r="200" stroke="black" stroke-width="1" fill="red" id="410202" position="44"name="龙亭区"/>
<circle cx="2841" cy="1337" r="200" stroke="black" stroke-width="1" fill="red" id="410212" name="祥符区"/>
<path d="" class="polyStyle" id="" style="fill:#ee8b94"/>
<path d="" class="polyStyle" id="623022" style="fill:#fbe6ef"/>
<path d="" class="polyStyle" id="211421" style="fill:#f6f67b"/>
<path d="" class="polyStyle" id="532524" style="fill:#ee8b94"/>
<path d="" class="polyStyle" id="440825" style="fill:#f6f67b"/>
<path d="" class="polyStyle" id="441721" style="fill:#f6f67b"/>
<path d="" class="polyStyle" id="450521" style="fill:#f6f67b"/>
<path d="" class="polyStyle" id="450123" style="fill:#fbe6ef"/>
<path d="" class="polyStyle" id="350624" style="fill:#f6f67b"/>
<path d="" class="polyStyle" id="" style="fill:#fbe6ef"/>
<path d="" class="polyStyle" id="451224" style="fill:#fbe6ef"/>
<path d="" class="polyStyle" id="350627" style="fill:#f6f67b"/>
<path d="" class="polyStyle" id="" style="fill:#f6f67b"/>
<path d="" class="polyStyle" id="350525" style="fill:#f6f67b"/>
<path d="" class="polyStyle" id="530124" style="fill:#ee8b94"/>
<path d="" class="polyStyle" id="522627" style="fill:#ee8b94"/>
<path d="" class="polyStyle" id="510421" style="fill:#fbe6ef"/>
<path d="" class="polyStyle" id="522623" style="fill:#d4ecb2"/>
<path d="" class="polyStyle" id="430321" style="fill:#d4ecb2"/>
<path d="" class="polyStyle" id="511129" style="fill:#d4ecb2"/>
<path d="" class="polyStyle" id="511423" style="fill:#ee8b94"/>
<path d="" class="polyStyle" id="421023" style="fill:#f6f67b"/>
<path d="" class="polyStyle" id="511724" style="fill:#f6f67b"/>
<path d="" class="polyStyle" id="420526" style="fill:#fbe6ef"/>
<path d="" class="polyStyle" id="511923" style="fill:#fbe6ef"/>
<path d="" class="polyStyle" id="420325" style="fill:#fbe6ef"/>
<path d="" class="polyStyle" id="511921" style="fill:#f6f67b"/>
<path d="" class="polyStyle" id="542525" style="fill:#f6f67b"/>
<path d="" class="polyStyle" id="611026" style="fill:#ee8b94"/>
<path d="" class="polyStyle" id="411023" style="fill:#fbe6ef"/>
<polygon points="2999,2181 3008,2188 3008,2200 3008,2215 3005,2223 3002,2229 3002,2234 3012,2239 3025,2244 3033,2244 3038,2240 3036,2228 3040,2225 3049,2218 3062,2220 3081,2228 3094,2229 3104,2227 3114,2235 3124,2236 3129,2229 3130,2221 3137,2218 3159,2216 3169,2217 3181,2213 3198,2211 3218,2209 3233,2208 3250,2210 3269,2208 3280,2204 3294,2198 3308,2194 3327,2191 3340,2191 3347,2193 3349,2204 3346,2218 3348,2228 3354,2237 3362,2240 3383,2240 3396,2240 3403,2231 3413,2230 3426,2235 3433,2237 3435,2245 3441,2249 3445,2248 3447,2241 3454,2236 3462,2240 3474,2242 3477,2251 3474,2264 3475,2277 3476,2291 3481,2297 3487,2296 3489,2290 3490,2285 3496,2285 3503,2286 3507,2280 3515,2277 3531,2278 3544,2278 3557,2282 3578,2288 3589,2286 3595,2280 3612,2279 3626,2276 3640,2275 3657,2275 3676,2276 3688,2277 3700,2275 3708,2273 3711,2271 3725,2276 3746,2281 3754,2283 3760,2293 3758,2307 3756,2313 3758,2320 3760,2324 3764,2333 3763,2346 3760,2356 3755,2365 3750,2376 3745,2389 3743,2400 3735,2406 3721,2412 3717,2416 3716,2430 3715,2457 3715,2482 3710,2494 3704,2500 3695,2501 3689,2506 3687,2518 3690,2536 3695,2557 3699,2578 3700,2590 3695,2603 3686,2623 3680,2640 3681,2647 3686,2656 3697,2660 3715,2662 3726,2665 3732,2674 3736,2684 3743,2690 3747,2700 3749,2708 3755,2715 3762,2718 3772,2716 3785,2714 3796,2708 3808,2701 3819,2698 3827,2698 3835,2701 3845,2713 3855,2735 3860,2751 3865,2768 3868,2782 3869,2792 3866,2802 3856,2810 3843,2819 3832,2826 3816,2828 3804,2831 3798,2836 3798,2847 3807,2855 3818,2861 3832,2863 3843,2868 3844,2878 3843,2888 3834,2904 3822,2918 3812,2926 3802,2941 3795,2948 3793,2958 3801,2968 3808,2974 3809,2981 3800,2990 3795,3001 3796,3007 3801,3014 3819,3016 3835,3020 3850,3019 3869,3023 3880,3031 3886,3041 3893,3063 3895,3089 3900,3110 3898,3126 3889,3134 3880,3136 3864,3137 3858,3146 3857,3158 3863,3173 3869,3183 3876,3186 3888,3194 3899,3202 3903,3212 3905,3226 3902,3232 3892,3231 3883,3231 3878,3239 3873,3255 3874,3266 3875,3277 3878,3284 3879,3295 3876,3303 3871,3305 3861,3305 3846,3304 3837,3303 3820,3304 3803,3305 3792,3305 3784,3306 3778,3311 3774,3318 3773,3324 3775,3334 3776,3346 3779,3355 3782,3357 3786,3358 3797,3359 3807,3364 3814,3370 3818,3378 3820,3388 3817,3399 3811,3409 3807,3420 3805,3429 3808,3439 3816,3444 3825,3449 3829,3452 3832,3459 3831,3466 3827,3469 3820,3470 3812,3470 3803,3472 3796,3477 3791,3482 3790,3489 3794,3496 3800,3502 3806,3508 3811,3516 3817,3528 3820,3543 3822,3549 3823,3556 3821,3559 3816,3558 3812,3556 3806,3553 3800,3554 3793,3556 3788,3558 3784,3562 3782,3570 3780,3581 3780,3591 3781,3598 3784,3601 3791,3601 3797,3601 3800,3603 3803,3609 3806,3620 3807,3629 3807,3633 3803,3638 3795,3646 3790,3655 3786,3663 3784,3670 3781,3676 3776,3679 3772,3679 3765,3678 3762,3679 3760,3682 3759,3687 3758,3697 3754,3709 3748,3717 3745,3726 3745,3733 3749,3739 3759,3744 3769,3748 3776,3751 3778,3757 3779,3770 3784,3789 3788,3808 3785,3810 3777,3820 3770,3827 3750,3830 3733,3827 3713,3814 3684,3790 3657,3768 3640,3762 3611,3756 3580,3759 3525,3770 3488,3769 3474,3775 3446,3778 3429,3766 3425,3751 3424,3734 3427,3708 3439,3694 3437,3684 3422,3683 3410,3682 3384,3688 3360,3707 3338,3704 3320,3706 3301,3704 3294,3695 3294,3676 3299,3664 3297,3646 3285,3635 3281,3612 3280,3601 3290,3600 3314,3601 3327,3603 3333,3599 3325,3594 3306,3587 3300,3583 3295,3574 3286,3573 3281,3581 3276,3584 3266,3582 3263,3574 3269,3563 3258,3556 3242,3546 3232,3544 3223,3549 3222,3562 3222,3575 3216,3578 3178,3581 3149,3574 3135,3564 3124,3543 3114,3522 3096,3521 3082,3516 3074,3499 3062,3478 3043,3470 3014,3469 2982,3468 2966,3475 2952,3491 2966,3508 2966,3520 2947,3523 2925,3523 2908,3521 2889,3506 2878,3493 2858,3492 2843,3482 2843,3468 2849,3445 2838,3440 2821,3440 2806,3438 2790,3441 2788,3444 2789,3458 2811,3465 2828,3481 2835,3488 2827,3505 2813,3517 2810,3529 2819,3544 2816,3557 2801,3566 2773,3570 2761,3574 2756,3575 2740,3575 2723,3577 2715,3580 2711,3586 2715,3590 2698,3587 2687,3582 2679,3571 2668,3561 2657,3552 2648,3543 2641,3529 2642,3515 2648,3504 2657,3494 2669,3491 2680,3488 2683,3480 2680,3467 2678,3443 2667,3420 2652,3414 2632,3411 2612,3412 2585,3414 2569,3412 2556,3410 2545,3406 2528,3403 2511,3404 2500,3408 2490,3417 2483,3425 2475,3428 2462,3427 2444,3423 2437,3418 2434,3408 2435,3402 2440,3392 2441,3387 2439,3378 2433,3375 2424,3375 2411,3375 2399,3372 2394,3369 2389,3364 2379,3358 2374,3356 2362,3353 2350,3352 2342,3354 2335,3358 2331,3361 2323,3361 2314,3357 2313,3352 2317,3345 2326,3337 2341,3329 2347,3324 2352,3318 2353,3311 2357,3306 2362,3301 2368,3297 2374,3294 2379,3288 2385,3279 2388,3270 2390,3261 2394,3254 2401,3251 2409,3250 2417,3250 2422,3249 2427,3247 2430,3243 2434,3238 2441,3233 2453,3228 2466,3227 2472,3226 2476,3224 2479,3219 2480,3209 2477,3202 2469,3196 2461,3190 2450,3183 2433,3175 2423,3172 2417,3169 2415,3166 2416,3156 2419,3152 2425,3151 2432,3146 2435,3143 2436,3136 2435,3127 2435,3119 2431,3115 2425,3116 2416,3116 2414,3112 2413,3105 2415,3093 2418,3082 2419,3072 2423,3067 2432,3064 2435,3061 2435,3055 2433,3051 2424,3046 2411,3048 2397,3049 2389,3050 2375,3051 2361,3046 2345,3038 2339,3031 2333,3021 2324,3009 2316,3003 2309,3003 2305,3001 2301,2998 2297,2991 2297,2986 2303,2982 2307,2980 2310,2972 2308,2964 2305,2953 2299,2942 2295,2933 2291,2919 2283,2918 2268,2919 2246,2917 2222,2916 2207,2916 2194,2918 2189,2913 2190,2903 2193,2894 2194,2882 2193,2871 2193,2862 2193,2847 2194,2836 2195,2822 2198,2806 2207,2792 2213,2782 2216,2774 2224,2762 2230,2753 2231,2746 2228,2738 2217,2724 2207,2715 2196,2708 2190,2701 2188,2693 2188,2683 2190,2674 2195,2669 2201,2665 2210,2663 2216,2660 2218,2655 2218,2643 2215,2626 2212,2617 2211,2609 2210,2598 2211,2590 2206,2581 2206,2574 2213,2570 2222,2568 2233,2569 2245,2571 2257,2568 2259,2562 2259,2551 2257,2544 2255,2534 2256,2524 2262,2519 2275,2515 2285,2510 2295,2499 2306,2491 2318,2485 2329,2481 2339,2482 2346,2486 2351,2494 2352,2500 2351,2509 2349,2517 2348,2522 2350,2534 2353,2546 2356,2550 2362,2553 2371,2555 2385,2555 2399,2556 2409,2555 2421,2553 2426,2548 2431,2540 2436,2530 2441,2523 2450,2514 2457,2511 2460,2509 2461,2505 2463,2495 2462,2479 2462,2468 2462,2460 2466,2452 2474,2441 2480,2429 2482,2416 2481,2404 2477,2395 2470,2388 2466,2381 2465,2376 2468,2372 2478,2372 2483,2370 2485,2365 2486,2356 2489,2351 2495,2348 2509,2348 2521,2347 2533,2347 2555,2346 2572,2348 2585,2350 2598,2351 2612,2356 2619,2360 2622,2370 2622,2379 2616,2388 2612,2395 2612,2406 2613,2416 2618,2427 2625,2433 2634,2436 2642,2436 2650,2434 2664,2432 2676,2432 2692,2436 2704,2438 2718,2440 2737,2448 2758,2461 2779,2464 2795,2463 2813,2458 2832,2451 2852,2444 2868,2443 2882,2442 2888,2438 2890,2431 2890,2422 2890,2412 2891,2405 2887,2401 2881,2399 2876,2392 2874,2378 2873,2363 2875,2351 2878,2330 2880,2312 2879,2305 2869,2303 2857,2304 2844,2304 2830,2298 2829,2293 2830,2275 2837,2256 2847,2251 2865,2250 2883,2251 2895,2250 2904,2245 2906,2236 2911,2221 2920,2208 2934,2206 2948,2208 2952,2202 2952,2191 2952,2183 2959,2176 2969,2176 2983,2177 " class="polyStyle" id="410222" style="fill:#ee8b94"/>
<polygon points="1359,2051 1374,2072 1375,2088 1377,2101 1398,2102 1410,2096 1423,2087 1432,2091 1438,2096 1443,2110 1447,2123 1455,2131 1463,2135 1474,2141 1489,2147 1506,2155 1520,2154 1534,2146 1546,2146 1560,2147 1574,2148 1585,2155 1593,2160 1601,2168 1603,2178 1607,2187 1614,2193 1634,2199 1645,2200 1667,2210 1684,2220 1693,2229 1696,2240 1700,2252 1712,2256 1723,2263 1735,2264 1746,2251 1752,2246 1761,2240 1772,2243 1788,2256 1797,2257 1810,2255 1810,2246 1815,2241 1827,2244 1837,2252 1841,2266 1841,2281 1842,2288 1849,2290 1867,2291 1878,2291 1894,2297 1898,2306 1897,2318 1893,2325 1899,2332 1909,2340 1933,2341 1955,2338 1968,2328 1990,2321 2005,2318 2022,2320 2032,2326 2041,2343 2043,2347 2053,2348 2065,2349 2083,2350 2096,2360 2100,2369 2101,2374 2095,2374 2089,2375 2089,2390 2090,2405 2088,2415 2085,2429 2081,2442 2082,2450 2092,2461 2102,2473 2106,2484 2118,2500 2129,2514 2145,2518 2151,2521 2155,2535 2164,2548 2186,2565 2206,2574 2206,2581 2211,2590 2210,2598 2211,2609 2212,2617 2215,2626 2218,2643 2218,2655 2216,2660 2210,2663 2201,2665 2195,2669 2190,2674 2188,2683 2188,2693 2190,2701 2196,2708 2207,2715 2217,2724 2228,2738 2231,2746 2230,2753 2224,2762 2216,2774 2213,2782 2207,2792 2198,2806 2195,2822 2194,2836 2193,2847 2193,2862 2193,2871 2194,2882 2193,2894 2190,2903 2189,2913 2194,2918 2207,2916 2222,2916 2246,2917 2268,2919 2283,2918 2291,2919 2295,2933 2299,2942 2305,2953 2308,2964 2310,2972 2307,2980 2303,2982 2297,2986 2297,2991 2301,2998 2305,3001 2309,3003 2316,3003 2324,3009 2333,3021 2339,3031 2345,3038 2361,3046 2375,3051 2389,3050 2397,3049 2411,3048 2424,3046 2433,3051 2435,3055 2435,3061 2432,3064 2423,3067 2419,3072 2418,3082 2415,3093 2413,3105 2414,3112 2416,3116 2425,3116 2431,3115 2435,3119 2435,3127 2436,3136 2435,3143 2432,3146 2425,3151 2419,3152 2416,3156 2415,3166 2417,3169 2423,3172 2433,3175 2450,3183 2461,3190 2469,3196 2477,3202 2480,3209 2479,3219 2476,3224 2472,3226 2466,3227 2453,3228 2441,3233 2434,3238 2430,3243 2427,3247 2422,3249 2417,3250 2409,3250 2401,3251 2394,3254 2390,3261 2388,3270 2385,3279 2379,3288 2374,3294 2368,3297 2362,3301 2357,3306 2353,3311 2352,3318 2347,3324 2341,3329 2326,3337 2317,3345 2313,3352 2314,3357 2323,3361 2331,3361 2335,3358 2342,3354 2350,3352 2362,3353 2374,3356 2379,3358 2389,3364 2394,3369 2399,3372 2411,3375 2424,3375 2433,3375 2439,3378 2441,3387 2440,3392 2435,3402 2434,3408 2437,3418 2444,3423 2462,3427 2475,3428 2483,3425 2490,3417 2500,3408 2511,3404 2528,3403 2545,3406 2556,3410 2569,3412 2585,3414 2612,3412 2632,3411 2652,3414 2667,3420 2678,3443 2680,3467 2683,3480 2680,3488 2669,3491 2657,3494 2648,3504 2642,3515 2641,3529 2648,3543 2657,3552 2668,3561 2679,3571 2687,3582 2698,3587 2715,3590 2721,3595 2740,3597 2752,3597 2767,3595 2780,3607 2794,3628 2819,3643 2843,3650 2857,3661 2865,3677 2865,3689 2866,3706 2865,3736 2858,3745 2843,3743 2831,3749 2833,3755 2844,3766 2829,3776 2804,3795 2782,3797 2746,3788 2731,3789 2719,3805 2715,3826 2711,3854 2702,3880 2689,3891 2662,3894 2620,3892 2585,3904 2545,3903 2509,3897 2454,3886 2418,3882 2384,3870 2357,3855 2336,3837 2310,3819 2282,3806 2266,3804 2254,3804 2230,3806 2214,3802 2201,3790 2169,3774 2119,3772 2105,3762 2084,3754 2077,3756 2076,3765 2057,3764 2037,3767 2026,3784 2006,3799 2001,3827 1974,3844 1948,3857 1941,3860 1937,3869 1944,3873 1931,3885 1909,3885 1896,3891 1884,3909 1873,3934 1860,3939 1843,3935 1827,3924 1811,3919 1795,3925 1786,3935 1759,3970 1736,3977 1723,3969 1721,3946 1714,3921 1706,3913 1687,3911 1672,3920 1658,3923 1651,3940 1641,3959 1643,3963 1657,3967 1653,3983 1645,4007 1640,4024 1629,4027 1583,4018 1564,4019 1495,4037 1437,4046 1421,4051 1410,4058 1411,4071 1422,4082 1437,4097 1419,4100 1397,4098 1379,4097 1375,4111 1361,4120 1343,4132 1331,4143 1324,4144 1317,4147 1311,4149 1304,4147 1298,4142 1293,4137 1286,4132 1279,4130 1273,4127 1267,4115 1267,4110 1261,4105 1255,4104 1248,4103 1241,4103 1234,4102 1228,4102 1221,4102 1214,4102 1207,4102 1200,4101 1194,4099 1188,4093 1185,4088 1183,4082 1181,4077 1180,4071 1180,4065 1185,4054 1188,4048 1189,4043 1188,4037 1182,4032 1177,4028 1165,4022 1158,4018 1151,4014 1145,4008 1147,4002 1153,3999 1160,3997 1167,3994 1174,3992 1181,3989 1181,3983 1176,3978 1170,3973 1163,3969 1157,3964 1155,3959 1153,3953 1152,3947 1148,3942 1142,3936 1138,3930 1133,3919 1130,3914 1123,3909 1116,3908 1109,3908 1103,3909 1096,3909 1089,3909 1082,3909 1075,3905 1078,3899 1079,3894 1082,3888 1082,3882 1078,3877 1071,3875 1064,3874 1058,3872 1051,3874 1044,3875 1037,3876 1030,3878 1024,3882 1020,3883 1003,3894 997,3899 994,3898 990,3892 988,3886 986,3881 980,3876 973,3874 967,3876 961,3882 959,3888 955,3893 949,3899 942,3902 936,3902 929,3901 922,3899 915,3896 908,3894 902,3890 896,3890 885,3887 877,3890 873,3896 873,3902 875,3907 876,3913 876,3919 876,3924 874,3930 867,3934 860,3937 853,3938 846,3938 833,3936 826,3934 819,3932 812,3931 806,3929 799,3928 792,3927 785,3925 779,3923 772,3921 765,3918 758,3917 751,3916 745,3916 738,3916 731,3915 724,3915 717,3915 711,3915 704,3915 697,3915 690,3912 690,3898 685,3892 679,3885 672,3882 668,3879 661,3875 654,3869 650,3863 647,3852 648,3846 648,3841 649,3835 650,3829 649,3824 646,3818 641,3813 634,3810 627,3810 621,3812 614,3815 607,3817 600,3819 593,3819 588,3813 588,3808 588,3802 588,3797 588,3791 590,3785 591,3780 594,3774 599,3768 603,3763 603,3757 601,3753 591,3748 585,3747 578,3747 548,3748 528,3747 521,3742 517,3737 516,3731 514,3725 509,3714 504,3708 497,3704 490,3704 483,3704 476,3706 470,3708 463,3708 459,3704 459,3698 460,3692 464,3687 468,3681 471,3676 473,3670 470,3664 463,3660 456,3657 450,3655 443,3653 435,3650 429,3648 423,3646 416,3643 409,3639 402,3637 396,3635 389,3633 382,3631 375,3630 368,3628 362,3628 355,3627 348,3627 341,3625 335,3624 328,3620 328,3614 331,3608 331,3603 327,3597 323,3594 308,3590 300,3591 297,3594 293,3600 293,3606 293,3610 263,3617 247,3615 228,3614 215,3615 204,3623 196,3642 184,3649 173,3656 157,3653 153,3638 133,3616 120,3600 124,3584 131,3556 132,3540 111,3525 102,3517 102,3496 98,3491 80,3484 86,3471 83,3459 80,3442 80,3422 88,3387 62,3359 40,3343 39,3326 45,3302 54,3290 73,3289 83,3277 84,3258 67,3254 59,3241 61,3227 52,3222 37,3217 17,3221 5,3219 0,3210 8,3198 34,3194 35,3182 39,3159 35,3116 31,3091 50,3062 56,3046 54,3025 59,3007 77,2981 95,2939 107,2933 123,2933 131,2926 135,2908 140,2877 146,2848 146,2836 169,2834 182,2840 188,2851 204,2868 201,2882 204,2902 221,2927 231,2935 251,2939 266,2944 281,2939 285,2908 304,2881 302,2854 328,2852 341,2846 351,2845 355,2849 359,2862 369,2864 391,2867 386,2891 375,2923 369,2936 372,2949 381,2957 399,2957 411,2953 403,2939 406,2931 456,2931 486,2926 502,2921 500,2906 504,2900 521,2903 534,2913 540,2932 541,2943 550,2957 580,2959 586,2948 595,2924 625,2923 632,2934 650,2947 671,2945 668,2928 674,2919 682,2912 715,2909 741,2895 752,2876 747,2854 747,2830 743,2803 730,2794 703,2787 684,2777 669,2779 663,2787 660,2805 649,2813 636,2814 630,2807 630,2774 624,2767 621,2740 624,2716 632,2701 644,2701 660,2711 688,2716 722,2704 742,2685 761,2656 759,2644 747,2621 752,2609 766,2608 775,2629 787,2630 797,2625 808,2606 859,2601 892,2595 910,2626 951,2651 968,2670 980,2676 999,2676 1004,2680 1002,2717 1014,2729 1042,2731 1084,2725 1097,2726 1100,2736 1105,2746 1113,2745 1117,2733 1123,2725 1135,2720 1145,2725 1155,2725 1155,2716 1148,2707 1142,2694 1142,2670 1130,2632 1108,2623 1097,2608 1093,2590 1091,2564 1098,2557 1118,2556 1122,2551 1122,2527 1130,2518 1162,2509 1172,2484 1162,2479 1145,2478 1140,2469 1156,2459 1165,2444 1164,2411 1158,2395 1156,2380 1172,2342 1176,2312 1183,2296 1195,2287 1221,2296 1234,2289 1244,2274 1254,2265 1281,2252 1300,2239 1301,2226 1299,2215 1286,2189 1283,2178 1283,2151 1284,2129 1291,2119 1304,2119 1307,2131 1302,2142 1293,2156 1297,2165 1310,2166 1316,2160 1318,2135 1326,2105 1324,2092 1306,2087 1273,2083 1269,2077 1271,2059 1277,2042 1293,2033 1310,2032 1329,2029 1348,2042 " class="polyStyle" id="410223" style="fill:#f6f67b"/>
<polygon points="4592,1309 4603,1317 4608,1324 4608,1335 4608,1348 4608,1358 4615,1367 4626,1376 4641,1381 4653,1386 4675,1391 4691,1390 4705,1388 4715,1389 4746,1393 4784,1397 4811,1397 4825,1396 4829,1401 4839,1403 4853,1401 4864,1390 4877,1380 4899,1375 4909,1374 4927,1381 4937,1393 4940,1411 4944,1418 4962,1424 4975,1422 4989,1426 4985,1441 4984,1451 4967,1455 4930,1450 4921,1456 4916,1468 4890,1483 4877,1497 4869,1515 4866,1527 4858,1535 4843,1542 4840,1554 4846,1564 4857,1571 4871,1567 4890,1557 4907,1550 4929,1557 4942,1574 4946,1611 4947,1625 4940,1656 4944,1683 4963,1696 4990,1695 5017,1687 5040,1683 5049,1673 5050,1645 5051,1620 5054,1607 5079,1613 5106,1616 5136,1610 5154,1617 5163,1630 5171,1641 5198,1649 5238,1668 5270,1680 5297,1681 5312,1691 5325,1720 5333,1751 5333,1774 5327,1793 5305,1803 5291,1798 5284,1780 5268,1778 5239,1774 5204,1772 5199,1762 5198,1738 5191,1733 5180,1733 5172,1741 5171,1762 5164,1776 5148,1789 5123,1798 5102,1820 5076,1858 5082,1868 5103,1865 5115,1869 5115,1880 5120,1891 5133,1896 5145,1902 5147,1914 5140,1936 5132,1947 5133,1961 5142,1999 5148,2025 5149,2068 5155,2109 5159,2131 5160,2159 5163,2176 5171,2182 5188,2180 5197,2183 5201,2197 5198,2212 5186,2232 5187,2258 5183,2268 5177,2286 5178,2302 5181,2316 5189,2326 5191,2338 5185,2351 5178,2360 5178,2371 5183,2375 5199,2373 5219,2372 5230,2378 5235,2388 5237,2397 5231,2403 5211,2406 5204,2416 5204,2435 5212,2458 5224,2463 5235,2464 5244,2458 5252,2457 5256,2465 5234,2491 5225,2507 5225,2526 5227,2544 5232,2558 5232,2571 5226,2582 5213,2594 5204,2597 5202,2605 5204,2614 5191,2625 5183,2634 5187,2641 5198,2644 5204,2640 5213,2629 5234,2621 5248,2620 5255,2625 5256,2637 5249,2650 5246,2669 5242,2691 5233,2698 5204,2708 5193,2729 5180,2762 5150,2801 5136,2812 5120,2816 5105,2815 5093,2812 5080,2817 5071,2825 5066,2839 5061,2855 5052,2867 5028,2857 5003,2845 4994,2836 4990,2828 4997,2815 4992,2806 4980,2804 4974,2807 4972,2827 4968,2836 4959,2847 4944,2861 4937,2876 4946,2881 4952,2890 4951,2900 4946,2908 4932,2907 4922,2907 4917,2917 4917,2927 4923,2935 4932,2939 4943,2937 4954,2938 4966,2944 4967,2952 4959,2958 4945,2964 4943,2973 4937,2977 4919,2977 4907,2980 4902,2984 4897,2994 4899,3007 4903,3014 4916,3031 4927,3039 4929,3046 4928,3055 4922,3065 4915,3068 4904,3071 4897,3072 4894,3076 4893,3084 4894,3090 4901,3096 4910,3101 4910,3108 4909,3116 4909,3122 4914,3125 4931,3127 4949,3130 4967,3133 4994,3136 5012,3137 5020,3140 5027,3147 5030,3161 5034,3169 5044,3179 5056,3181 5065,3187 5068,3194 5074,3201 5083,3203 5090,3201 5098,3196 5103,3200 5105,3207 5104,3213 5100,3220 5093,3227 5067,3230 5056,3239 5047,3256 5039,3264 4984,3273 4954,3285 4946,3300 4946,3315 4955,3325 4962,3329 4965,3344 4951,3353 4929,3352 4924,3361 4924,3371 4938,3389 4940,3410 4933,3425 4927,3442 4928,3453 4921,3456 4913,3457 4907,3463 4905,3469 4912,3475 4932,3482 4946,3508 4956,3519 4973,3526 5001,3525 5029,3522 5041,3523 5044,3544 5043,3572 5033,3581 5025,3582 5002,3582 4994,3593 4993,3608 4992,3616 5000,3621 5056,3631 5096,3633 5105,3649 5113,3661 5132,3684 5154,3695 5154,3701 5154,3713 5151,3732 5152,3745 5157,3776 5154,3792 5138,3796 5126,3797 5111,3798 5090,3793 5071,3778 5026,3766 5008,3769 4986,3769 4967,3756 4944,3745 4939,3735 4942,3720 4931,3714 4896,3719 4885,3704 4867,3697 4844,3694 4844,3682 4822,3675 4809,3677 4806,3689 4804,3701 4800,3718 4803,3730 4809,3741 4820,3747 4820,3764 4812,3774 4790,3781 4774,3792 4758,3808 4743,3818 4726,3826 4695,3821 4667,3821 4638,3821 4607,3816 4583,3818 4547,3845 4518,3847 4495,3854 4472,3849 4449,3853 4443,3869 4436,3882 4426,3883 4415,3887 4414,3898 4420,3902 4426,3903 4442,3901 4459,3903 4467,3914 4462,3929 4450,3937 4431,3946 4405,3954 4378,3958 4343,3958 4328,3965 4314,3968 4310,3980 4300,4006 4271,4003 4253,4005 4226,3998 4209,3989 4197,3960 4204,3954 4212,3954 4225,3969 4237,3971 4245,3962 4243,3947 4239,3931 4233,3919 4216,3916 4205,3928 4201,3933 4193,3931 4188,3919 4167,3909 4141,3901 4109,3895 4070,3893 4068,3911 4043,3916 4015,3915 4013,3901 4011,3890 4007,3880 3996,3873 3974,3868 3954,3871 3936,3878 3917,3884 3894,3882 3881,3873 3856,3854 3845,3837 3834,3825 3816,3811 3797,3805 3788,3808 3784,3789 3779,3770 3778,3757 3776,3751 3769,3748 3759,3744 3749,3739 3745,3733 3745,3726 3748,3717 3754,3709 3758,3697 3759,3687 3760,3682 3762,3679 3765,3678 3772,3679 3776,3679 3781,3676 3784,3670 3786,3663 3790,3655 3795,3646 3803,3638 3807,3633 3807,3629 3806,3620 3803,3609 3800,3603 3797,3601 3791,3601 3784,3601 3781,3598 3780,3591 3780,3581 3782,3570 3784,3562 3788,3558 3793,3556 3800,3554 3806,3553 3812,3556 3816,3558 3821,3559 3823,3556 3822,3549 3820,3543 3817,3528 3811,3516 3806,3508 3800,3502 3794,3496 3790,3489 3791,3482 3796,3477 3803,3472 3812,3470 3820,3470 3827,3469 3831,3466 3832,3459 3829,3452 3825,3449 3816,3444 3808,3439 3805,3429 3807,3420 3811,3409 3817,3399 3820,3388 3818,3378 3814,3370 3807,3364 3797,3359 3786,3358 3782,3357 3779,3355 3776,3346 3775,3334 3773,3324 3774,3318 3778,3311 3784,3306 3792,3305 3803,3305 3820,3304 3837,3303 3846,3304 3861,3305 3871,3305 3876,3303 3879,3295 3878,3284 3875,3277 3874,3266 3873,3255 3878,3239 3883,3231 3892,3231 3902,3232 3905,3226 3903,3212 3899,3202 3888,3194 3876,3186 3869,3183 3863,3173 3857,3158 3858,3146 3864,3137 3880,3136 3889,3134 3898,3126 3900,3110 3895,3089 3893,3063 3886,3041 3880,3031 3869,3023 3850,3019 3835,3020 3819,3016 3801,3014 3796,3007 3795,3001 3800,2990 3809,2981 3808,2974 3801,2968 3793,2958 3795,2948 3802,2941 3812,2926 3822,2918 3834,2904 3843,2888 3844,2878 3843,2868 3832,2863 3818,2861 3807,2855 3798,2847 3798,2836 3804,2831 3816,2828 3832,2826 3843,2819 3856,2810 3866,2802 3869,2792 3868,2782 3865,2768 3860,2751 3855,2735 3845,2713 3835,2701 3827,2698 3819,2698 3808,2701 3796,2708 3785,2714 3772,2716 3762,2718 3755,2715 3749,2708 3747,2700 3743,2690 3736,2684 3732,2674 3726,2665 3715,2662 3697,2660 3686,2656 3681,2647 3680,2640 3686,2623 3695,2603 3700,2590 3699,2578 3695,2557 3690,2536 3687,2518 3689,2506 3695,2501 3704,2500 3710,2494 3715,2482 3715,2457 3716,2430 3717,2416 3721,2412 3735,2406 3743,2400 3745,2389 3750,2376 3755,2365 3760,2356 3763,2346 3764,2333 3760,2324 3758,2320 3756,2313 3758,2307 3760,2293 3754,2283 3746,2281 3725,2276 3711,2271 3703,2266 3703,2256 3709,2247 3718,2239 3723,2229 3728,2213 3732,2201 3730,2188 3730,2172 3739,2157 3748,2152 3765,2146 3777,2146 3794,2147 3812,2144 3828,2134 3836,2123 3841,2112 3842,2097 3840,2084 3833,2066 3831,2041 3835,2028 3836,2016 3847,2011 3865,2006 3885,1994 3894,1990 3904,1988 3910,1980 3910,1971 3908,1959 3912,1947 3924,1936 3930,1927 3935,1914 3930,1904 3924,1895 3916,1887 3912,1880 3910,1861 3909,1848 3908,1836 3909,1826 3914,1818 3922,1809 3922,1800 3915,1792 3902,1792 3882,1793 3866,1792 3853,1786 3849,1773 3846,1757 3842,1740 3838,1724 3835,1707 3837,1693 3845,1678 3853,1666 3855,1656 3850,1646 3837,1636 3830,1627 3827,1620 3831,1609 3834,1595 3835,1582 3842,1569 3851,1561 3866,1555 3884,1553 3897,1550 3913,1546 3925,1538 3935,1536 3961,1538 3986,1539 4004,1539 4019,1545 4029,1552 4035,1552 4037,1543 4035,1538 4042,1532 4059,1527 4087,1520 4113,1517 4130,1510 4141,1498 4150,1485 4162,1468 4162,1456 4164,1442 4170,1431 4186,1423 4201,1414 4210,1410 4213,1399 4210,1394 4220,1394 4233,1395 4240,1389 4246,1387 4257,1387 4276,1392 4288,1397 4303,1400 4316,1400 4333,1396 4339,1387 4347,1381 4365,1380 4385,1377 4407,1371 4418,1366 4431,1357 4441,1350 4454,1344 4470,1331 4480,1321 4500,1312 4525,1304 4554,1303 4579,1306 " class="polyStyle" id="410221" style="fill:#d4ecb2"/>
<polygon points="5045,12 5053,18 5055,22 5059,40 5059,58 5057,64 5053,70 5041,96 5039,104 5039,120 5045,132 5045,136 5055,150 5073,162 5165,178 5171,184 5165,214 5171,240 5179,246 5231,268 5271,276 5281,264 5303,228 5343,196 5359,190 5379,184 5419,180 5413,150 5435,148 5443,166 5465,158 5475,156 5493,158 5515,164 5531,182 5535,184 5555,186 5571,182 5589,178 5611,174 5615,174 5641,176 5667,182 5675,186 5687,214 5694,225 5705,240 5715,254 5723,260 5773,288 5781,286 5793,284 5797,284 5805,286 5807,276 5807,248 5805,230 5807,224 5815,218 5867,216 5895,204 5909,188 5928,168 5965,152 5987,146 6011,144 6027,144 6065,146 6089,154 6095,124 6115,122 6139,134 6143,154 6175,152 6193,142 6199,132 6207,112 6207,102 6215,96 6239,94 6253,94 6259,94 6278,93 6291,108 6301,119 6297,124 6295,130 6289,159 6281,200 6289,218 6349,242 6391,274 6409,290 6417,304 6429,320 6449,328 6459,330 6468,334 6497,324 6507,322 6525,322 6571,328 6587,342 6601,368 6625,368 6645,354 6657,330 6667,330 6685,328 6699,328 6707,326 6713,328 6723,328 6753,358 6757,362 6755,372 6745,390 6727,422 6691,410 6647,496 6631,492 6623,488 6607,492 6595,500 6585,534 6579,548 6579,552 6595,562 6663,576 6655,598 6669,600 6697,604 6701,604 6709,604 6713,604 6719,598 6723,564 6765,568 6771,556 6779,550 6795,544 6817,542 6849,552 6875,566 6891,572 6903,578 6909,580 6915,612 6915,616 6907,624 6897,632 6873,654 6865,662 6846,671 6813,666 6809,668 6807,674 6807,698 6811,750 6815,788 6817,804 6825,838 6839,874 6843,892 6847,900 6895,924 6899,926 6923,936 6933,936 6941,933 6956,946 6969,952 6980,967 6971,985 6963,993 6961,1018 6955,1037 6945,1053 6934,1060 6908,1059 6888,1052 6866,1050 6859,1056 6854,1068 6857,1075 6867,1080 6888,1081 6907,1084 6918,1091 6919,1104 6893,1111 6895,1123 6891,1131 6876,1137 6858,1135 6850,1129 6827,1120 6797,1113 6760,1110 6722,1103 6686,1095 6665,1094 6659,1103 6651,1126 6642,1148 6636,1159 6623,1162 6609,1162 6603,1156 6609,1136 6597,1127 6565,1125 6538,1126 6537,1141 6532,1157 6520,1168 6498,1171 6490,1179 6484,1191 6481,1208 6484,1223 6480,1234 6472,1236 6449,1232 6401,1246 6388,1239 6378,1225 6377,1208 6369,1182 6337,1178 6300,1177 6249,1179 6226,1184 6225,1210 6223,1223 6215,1236 6194,1247 6167,1253 6139,1263 6108,1268 6046,1262 5998,1262 5981,1265 5964,1278 5952,1287 5911,1284 5882,1283 5860,1276 5847,1256 5835,1249 5814,1255 5802,1262 5786,1273 5775,1270 5769,1252 5759,1246 5744,1246 5723,1257 5711,1259 5689,1251 5675,1259 5665,1274 5660,1293 5660,1313 5657,1329 5646,1338 5627,1345 5618,1346 5608,1343 5603,1334 5602,1323 5610,1309 5603,1299 5590,1298 5582,1301 5579,1308 5580,1323 5579,1335 5576,1343 5568,1348 5555,1350 5537,1337 5510,1330 5480,1333 5452,1341 5435,1347 5399,1350 5393,1358 5388,1378 5376,1386 5358,1385 5322,1383 5288,1386 5265,1392 5251,1385 5243,1369 5234,1360 5223,1354 5196,1348 5163,1343 5133,1328 5120,1312 5115,1289 5112,1269 5109,1254 5102,1239 5091,1233 5065,1235 5022,1232 5001,1237 4981,1250 4976,1267 4972,1287 4957,1292 4915,1289 4891,1284 4853,1284 4818,1289 4800,1295 4789,1310 4785,1333 4786,1346 4798,1354 4816,1360 4822,1365 4825,1371 4827,1382 4825,1396 4811,1397 4784,1397 4746,1393 4715,1389 4705,1388 4691,1390 4675,1391 4653,1386 4641,1381 4626,1376 4615,1367 4608,1358 4608,1348 4608,1335 4608,1324 4603,1317 4592,1309 4579,1306 4554,1303 4525,1304 4500,1312 4480,1321 4470,1331 4454,1344 4441,1350 4431,1357 4418,1366 4407,1371 4385,1377 4365,1380 4347,1381 4339,1387 4333,1396 4316,1400 4303,1400 4288,1397 4276,1392 4257,1387 4246,1387 4240,1389 4233,1395 4220,1394 4210,1394 4209,1391 4201,1386 4191,1382 4171,1381 4155,1376 4141,1362 4132,1351 4129,1337 4130,1328 4138,1321 4151,1320 4172,1310 4183,1302 4193,1289 4202,1275 4210,1256 4214,1241 4220,1232 4227,1230 4243,1231 4260,1233 4275,1231 4281,1227 4291,1221 4299,1212 4300,1200 4302,1187 4298,1183 4287,1177 4275,1176 4267,1175 4257,1175 4251,1174 4246,1172 4245,1168 4245,1155 4248,1139 4250,1123 4256,1105 4262,1091 4267,1086 4267,1075 4261,1066 4258,1057 4257,1045 4260,1036 4266,1035 4279,1034 4287,1031 4292,1025 4295,1018 4292,1009 4285,999 4280,988 4283,976 4287,961 4290,949 4290,939 4292,932 4300,924 4306,916 4306,908 4301,897 4296,891 4289,886 4282,879 4281,871 4282,859 4283,846 4278,840 4270,834 4253,829 4239,826 4229,819 4227,815 4228,801 4228,787 4220,776 4210,773 4193,769 4179,766 4169,761 4167,755 4167,749 4157,744 4140,742 4117,737 4102,730 4097,718 4098,706 4102,693 4108,670 4115,644 4118,622 4125,621 4153,609 4179,604 4198,611 4232,624 4267,648 4303,671 4354,688 4404,696 4438,694 4472,682 4509,651 4534,619 4541,591 4549,560 4549,534 4541,517 4526,497 4509,487 4477,469 4451,452 4432,441 4410,427 4404,407 4410,382 4424,343 4436,317 4453,281 4464,247 4479,219 4517,182 4544,161 4554,154 4584,129 4622,107 4657,88 4684,75 4709,66 4706,73 4717,76 4751,82 4881,112 4923,124 4946,128 4963,128 4971,128 4971,122 4963,116 4937,98 4927,84 4925,74 4933,62 4935,56 4943,48 4953,36 4961,26 4973,16 4981,8 4995,0 5005,0 5033,4 " class="polyStyle" id="410225" style="fill:#ee8b94"/>
<path d="" class="polyStyle" id="632323" style="fill:#f6f67b"/>
<path d="" class="polyStyle" id="140525" style="fill:#d4ecb2"/>
<path d="" class="polyStyle" id="410922" style="fill:#ee8b94"/>
<path d="" class="polyStyle" id="621027" style="fill:#ee8b94"/>
<path d="" class="polyStyle" id="130427" style="fill:#f6f67b"/>
<path d="" class="polyStyle" id="130121" style="fill:#ee8b94"/>
<path d="" class="polyStyle" id="610823" style="fill:#fbe6ef"/>
<path d="" class="polyStyle" id="130225" style="fill:#fbe6ef"/>
<path d="" class="polyStyle" id="130322" style="fill:#d4ecb2"/>
<path d="" class="polyStyle" id="653130" style="fill:#f6f67b"/>
<path d="" class="polyStyle" id="130822" style="fill:#fbe6ef"/>
<path d="" class="polyStyle" id="211221" style="fill:#f6f67b"/>
<path d="" class="polyStyle" id="210921" style="fill:#f6f67b"/>
<path d="" class="polyStyle" id="150223" style="fill:#f8c67d"/>
<path d="" class="polyStyle" id="220422" style="fill:#d4ecb2"/>
<path d="" class="polyStyle" id="340721" style="fill:#f6f67b"/>
<path d="" class="polyStyle" id="510824" style="fill:#d4ecb2"/>
<path d="" class="polyStyle" id="610324" style="fill:#f6f67b"/>
<path d="" class="polyStyle" id="530722" style="fill:#ee8b94"/>
<path d="" class="polyStyle" id="340823" style="fill:#d4ecb2"/>
<path d="" class="polyStyle" id="620825" style="fill:#d4ecb2"/>
<path d="" class="polyStyle" id="421125" style="fill:#ee8b94"/>
<path d="" class="polyStyle" id="210281" style="fill:#ee8b94"/>
<path d="" class="polyStyle" id="440883" style="fill:#f6f67b"/>
<path d="" class="polyStyle" id="469006" style="fill:#d4ecb2"/>
<path d="" class="polyStyle" id="469002" style="fill:#ee8b94"/>
<path d="" class="polyStyle" id="469005" style="fill:#fbe6ef"/>
<path d="" class="polyStyle" id="440882" style="fill:#ee8b94"/>
<path d="" class="polyStyle" id="450681" style="fill:#ee8b94"/>
<path d="" class="polyStyle" id="441581" style="fill:#d4ecb2"/>
<path d="" class="polyStyle" id="421087" style="fill:#ee8b94"/>
<path d="" class="polyStyle" id="420984" style="fill:#fbe6ef"/>
<path d="" class="polyStyle" id="420582" style="fill:#ee8b94"/>
<path d="" class="polyStyle" id="370282" style="fill:#f6f67b"/>
<path d="" class="polyStyle" id="371083" style="fill:#f6f67b"/>
<path d="" class="polyStyle" id="371082" style="fill:#fbe6ef"/>
<path d="" class="polyStyle" id="652801" style="fill:#f8c67d"/>
<path d="" class="polyStyle" id="654301" style="fill:#ee8b94"/>
<path d="" class="polyStyle" id="370687" style="fill:#ee8b94"/>
<path d="" class="polyStyle" id="371482" style="fill:#d4ecb2"/>
<path d="" class="polyStyle" id="421081" style="fill:#fbe6ef"/>
<path d="" class="polyStyle" id="429006" style="fill:#f6f67b"/>
<path d="" class="polyStyle" id="440982" style="fill:#d4ecb2"/>
<path d="" class="polyStyle" id="421181" style="fill:#d4ecb2"/>
<path d="" class="polyStyle" id="321181" style="fill:#d4ecb2"/>
<path d="" class="polyStyle" id="659007" style="fill:#ee8b94"/>
<path d="" class="polyStyle" id="652701" style="fill:#fbe6ef"/>
<path d="" class="polyStyle" id="210781" style="fill:#fbe6ef"/>
<path d="" class="polyStyle" id="460204" style="fill:#f6f67b"/>
<path d="" class="polyStyle" id="210211" style="fill:#f6f67b"/>
<path d="" class="polyStyle" id="450512" style="fill:#ee8b94"/>
<path d="" class="polyStyle" id="450602" style="fill:#fbe6ef"/>
<path d="" class="polyStyle" id="440404" style="fill:#ee8b94"/>
<path d="" class="polyStyle" id="440403" style="fill:#f6f67b"/>
<path d="" class="polyStyle" id="441502" style="fill:#f6f67b"/>
<path d="" class="polyStyle" id="431002" style="fill:#d4ecb2"/>
<path d="" class="polyStyle" id="500107" style="fill:#fbe6ef"/>
<path d="" class="polyStyle" id="430611" style="fill:#d4ecb2"/>
<path d="" class="polyStyle" id="511304" style="fill:#fbe6ef"/>
<path d="" class="polyStyle" id="340711" style="fill:#ee8b94"/>
<path d="" class="polyStyle" id="320118" style="fill:#f6f67b"/>
<path d="" class="polyStyle" id="510704" style="fill:#f6f67b"/>
<path d="" class="polyStyle" id="411502" style="fill:#ee8b94"/>
<path d="" class="polyStyle" id="320302" style="fill:#d4ecb2"/>
<polygon points="2311,1109 2324,1118 2336,1123 2357,1125 2374,1125 2390,1126 2401,1131 2414,1139 2429,1138 2440,1139 2435,1146 2431,1154 2431,1165 2436,1173 2451,1178 2469,1181 2479,1190 2479,1201 2475,1214 2471,1222 2462,1220 2451,1219 2432,1218 2410,1216 2392,1214 2370,1210 2349,1206 2332,1204 2315,1204 2301,1206 2297,1203 2286,1199 2262,1196 2240,1193 2222,1191 2204,1190 2189,1191 2176,1191 2170,1185 2166,1170 2164,1158 2164,1148 2163,1139 2164,1136 2164,1125 2164,1115 2169,1110 2190,1111 2214,1108 2230,1104 2249,1104 2265,1101 2277,1101 2284,1098 2290,1092 2299,1100 " class="polyStyle" id="410204" style="fill:#d4ecb2"/>
<polygon points="2496,1031 2512,1036 2526,1044 2531,1053 2531,1061 2531,1069 2537,1073 2547,1071 2556,1071 2562,1076 2559,1083 2561,1091 2570,1093 2577,1098 2579,1105 2586,1106 2606,1105 2629,1105 2647,1105 2660,1105 2669,1109 2670,1120 2670,1133 2672,1144 2674,1150 2682,1150 2687,1156 2687,1166 2686,1183 2687,1196 2692,1211 2696,1226 2700,1236 2694,1240 2677,1244 2655,1245 2636,1246 2616,1249 2596,1251 2572,1254 2556,1255 2539,1256 2522,1259 2510,1260 2509,1263 2507,1270 2507,1253 2500,1243 2490,1238 2482,1230 2475,1223 2471,1222 2475,1214 2479,1201 2479,1190 2469,1181 2451,1178 2436,1173 2431,1165 2431,1154 2435,1146 2440,1139 2444,1131 2444,1121 2445,1113 2447,1099 2450,1083 2451,1070 2446,1061 2444,1048 2446,1039 2455,1031 2471,1020 2484,1024 " class="polyStyle" id="410203" style="fill:#f6f67b"/>
<path d="" class="polyStyle" id="140311" style="fill:#ee8b94"/>
<path d="" class="polyStyle" id="610802" style="fill:#ee8b94"/>
<path d="" class="polyStyle" id="120116" style="fill:#f6f67b"/>
<path d="" class="polyStyle" id="130303" style="fill:#fbe6ef"/>
<path d="" class="polyStyle" id="140211" style="fill:#f6f67b"/>
<path d="" class="polyStyle" id="150207" style="fill:#fbe6ef"/>
<path d="" class="polyStyle" id="211403" style="fill:#f6f67b"/>
<path d="" class="polyStyle" id="150802" style="fill:#f8c67d"/>
<path d="" class="polyStyle" id="210112" style="fill:#ee8b94"/>
<path d="" class="polyStyle" id="230406" style="fill:#d4ecb2"/>
<path d="" class="polyStyle" id="110113" style="fill:#fbe6ef"/>
<path d="" class="polyStyle" id="341702" style="fill:#fbe6ef"/>
<path d="" class="polyStyle" id="420303" style="fill:#ee8b94"/>
<path d="" class="polyStyle" id="340702" style="fill:#d4ecb2"/>
<polygon points="2370,1210 2392,1214 2410,1216 2432,1218 2451,1219 2462,1220 2471,1222 2475,1223 2482,1230 2490,1238 2500,1243 2507,1253 2507,1270 2508,1273 2515,1283 2527,1291 2540,1299 2550,1306 2554,1314 2555,1326 2556,1343 2556,1354 2551,1364 2537,1366 2525,1369 2511,1368 2500,1364 2490,1358 2474,1350 2462,1343 2450,1334 2434,1331 2415,1329 2394,1328 2372,1328 2350,1326 2332,1324 2315,1324 2299,1321 2282,1321 2266,1324 2251,1323 2239,1323 2234,1316 2234,1300 2236,1289 2244,1285 2262,1284 2279,1283 2292,1281 2301,1276 2301,1264 2300,1241 2299,1218 2301,1206 2315,1204 2332,1204 2349,1206 " class="polyStyle" id="410205" style="fill:#ee8b94"/>
<path d="" class="polyStyle" id="421002" style="fill:#f6f67b"/>
<path d="" class="polyStyle" id="420117" style="fill:#f6f67b"/>
<path d="" class="polyStyle" id="440904" style="fill:#f8c67d"/>
<path d="" class="polyStyle" id="460205" style="fill:#ee8b94"/>
<path d="" class="polyStyle" id="460202" style="fill:#f6f67b"/>
<path d="" class="polyStyle" id="460203" style="fill:#fbe6ef"/>
<path d="" class="polyStyle" id="420304" style="fill:#f6f67b"/>
<path d="" class="polyStyle" id="445302" style="fill:#ee8b94"/>
<path d="M2471,1020 L2471,1020 L2484,1024 L2496,1031 L2512,1036 L2526,1044 L2531,1053 L2531,1061 L2531,1069 L2537,1073 L2547,1071 L2556,1071 L2562,1076 L2559,1083 L2561,1091 L2570,1093 L2577,1098 L2579,1105 L2586,1106 L2606,1105 L2629,1105 L2647,1105 L2660,1105 L2669,1109 L2670,1120 L2670,1133 L2672,1144 L2674,1150 L2682,1150 L2687,1156 L2687,1166 L2686,1183 L2687,1196 L2692,1211 L2696,1226 L2700,1236 L2694,1240 L2677,1244 L2655,1245 L2636,1246 L2616,1249 L2596,1251 L2572,1254 L2556,1255 L2539,1256 L2522,1259 L2510,1260 L2509,1263 L2507,1270 L2508,1273 L2515,1283 L2527,1291 L2540,1299 L2550,1306 L2554,1314 L2555,1326 L2556,1343 L2556,1354 L2551,1364 L2537,1366 L2525,1369 L2511,1368 L2500,1364 L2490,1358 L2474,1350 L2462,1343 L2450,1334 L2434,1331 L2415,1329 L2394,1328 L2372,1328 L2350,1326 L2332,1324 L2315,1324 L2299,1321 L2282,1321 L2266,1324 L2251,1323 L2239,1323 L2234,1316 L2234,1300 L2236,1289 L2244,1285 L2262,1284 L2279,1283 L2292,1281 L2301,1276 L2301,1264 L2300,1241 L2299,1218 L2301,1206 L2297,1203 L2286,1199 L2262,1196 L2240,1193 L2222,1191 L2204,1190 L2189,1191 L2176,1191 L2170,1185 L2166,1170 L2164,1158 L2164,1148 L2163,1139 L2164,1136 L2164,1125 L2164,1115 L2169,1110 L2190,1111 L2214,1108 L2230,1104 L2249,1104 L2265,1101 L2277,1101 L2284,1098 L2290,1092 L2299,1100 L2311,1109 L2324,1118 L2336,1123 L2357,1125 L2374,1125 L2390,1126 L2401,1131 L2414,1139 L2429,1138 L2440,1139 L2444,1131 L2444,1121 L2445,1113 L2447,1099 L2450,1083 L2451,1070 L2446,1061 L2444,1048 L2446,1039 L2455,1031 L2471,1020z M3048,1122 L3032,1122 L3016,1127 L3008,1132 L2998,1134 L2987,1135 L2983,1138 L2978,1148 L2973,1159 L2964,1163 L2946,1169 L2938,1175 L2928,1184 L2921,1195 L2918,1205 L2914,1215 L2907,1224 L2897,1226 L2884,1228 L2877,1230 L2870,1234 L2864,1246 L2860,1252 L2856,1253 L2845,1253 L2835,1250 L2815,1247 L2802,1247 L2789,1252 L2784,1259 L2781,1267 L2781,1281 L2777,1288 L2769,1295 L2759,1303 L2747,1309 L2733,1316 L2711,1325 L2699,1336 L2696,1344 L2698,1348 L2710,1353 L2727,1356 L2741,1362 L2751,1370 L2758,1374 L2769,1376 L2781,1379 L2792,1386 L2798,1397 L2805,1409 L2812,1421 L2826,1434 L2842,1457 L2854,1473 L2861,1483 L2867,1491 L2875,1500 L2881,1511 L2884,1529 L2884,1546 L2881,1556 L2874,1568 L2854,1583 L2832,1592 L2812,1599 L2799,1605 L2784,1613 L2774,1616 L2758,1616 L2733,1614 L2719,1610 L2698,1605 L2680,1603 L2661,1604 L2642,1604 L2625,1603 L2613,1600 L2605,1594 L2600,1586 L2596,1570 L2593,1557 L2590,1543 L2580,1539 L2574,1538 L2567,1539 L2561,1544 L2560,1552 L2560,1563 L2554,1573 L2545,1583 L2533,1588 L2514,1589 L2500,1589 L2490,1585 L2484,1577 L2480,1568 L2479,1560 L2479,1549 L2476,1539 L2466,1530 L2459,1523 L2456,1516 L2447,1511 L2438,1509 L2424,1506 L2413,1499 L2405,1488 L2401,1479 L2396,1464 L2386,1453 L2372,1449 L2350,1447 L2335,1447 L2317,1449 L2302,1457 L2294,1467 L2279,1483 L2270,1493 L2266,1496 L2262,1496 L2258,1497 L2255,1503 L2248,1515 L2240,1526 L2234,1538 L2230,1548 L2227,1563 L2226,1587 L2222,1608 L2215,1634 L2212,1654 L2206,1662 L2203,1662 L2196,1660 L2192,1659 L2189,1659 L2188,1664 L2188,1672 L2184,1674 L2177,1673 L2174,1675 L2170,1688 L2171,1698 L2168,1700 L2163,1698 L2155,1697 L2149,1700 L2148,1706 L2146,1716 L2142,1730 L2133,1741 L2119,1745 L2108,1744 L2095,1747 L2075,1747 L2058,1743 L2037,1731 L2019,1722 L1998,1712 L1976,1703 L1959,1699 L1942,1697 L1930,1695 L1922,1691 L1916,1679 L1916,1668 L1918,1660 L1923,1655 L1930,1652 L1935,1649 L1934,1642 L1933,1632 L1936,1625 L1939,1622 L1943,1616 L1942,1608 L1941,1599 L1937,1590 L1925,1587 L1914,1586 L1904,1586 L1892,1585 L1877,1584 L1865,1581 L1856,1583 L1841,1591 L1832,1596 L1821,1599 L1805,1600 L1788,1601 L1778,1603 L1768,1601 L1763,1599 L1756,1593 L1747,1587 L1727,1579 L1706,1573 L1690,1570 L1675,1564 L1664,1562 L1654,1561 L1639,1563 L1621,1560 L1609,1558 L1595,1554 L1579,1549 L1563,1547 L1549,1548 L1534,1550 L1521,1553 L1508,1554 L1495,1553 L1485,1551 L1478,1553 L1472,1549 L1443,1547 L1425,1551 L1413,1569 L1410,1592 L1395,1597 L1380,1590 L1368,1571 L1363,1543 L1350,1524 L1350,1498 L1347,1466 L1360,1438 L1393,1393 L1411,1383 L1412,1376 L1404,1335 L1405,1322 L1419,1313 L1458,1314 L1484,1317 L1507,1303 L1508,1287 L1499,1258 L1488,1233 L1466,1223 L1444,1220 L1420,1209 L1408,1198 L1391,1177 L1357,1151 L1329,1131 L1307,1116 L1282,1122 L1258,1123 L1248,1116 L1242,1107 L1240,1095 L1240,1077 L1233,1062 L1226,1048 L1231,1029 L1241,1016 L1250,1007 L1260,1014 L1278,1020 L1299,1017 L1307,1002 L1316,994 L1359,991 L1378,985 L1413,976 L1439,990 L1480,984 L1501,1024 L1513,1026 L1537,1016 L1573,1031 L1591,1032 L1613,1025 L1631,1021 L1639,989 L1648,962 L1656,938 L1663,923 L1666,906 L1664,900 L1655,895 L1657,878 L1666,851 L1686,830 L1693,810 L1697,783 L1675,767 L1667,757 L1668,737 L1677,714 L1684,675 L1689,638 L1696,593 L1701,571 L1705,528 L1703,512 L1693,489 L1697,490 L1740,507 L1764,524 L1782,543 L1804,572 L1829,598 L1848,620 L1869,644 L1877,654 L1886,665 L1899,666 L1913,655 L1933,642 L1966,632 L2015,623 L2066,616 L2117,613 L2142,611 L2170,602 L2197,587 L2231,568 L2254,562 L2285,565 L2312,565 L2335,554 L2353,548 L2380,542 L2397,531 L2422,510 L2441,490 L2465,469 L2486,463 L2514,461 L2539,468 L2555,475 L2576,497 L2604,522 L2626,538 L2650,557 L2674,569 L2700,587 L2722,604 L2744,610 L2762,609 L2776,600 L2774,616 L2758,645 L2753,665 L2742,691 L2724,705 L2695,713 L2666,725 L2650,728 L2641,733 L2631,743 L2629,753 L2630,766 L2635,775 L2646,781 L2657,781 L2674,781 L2682,779 L2694,779 L2706,782 L2720,793 L2726,806 L2726,815 L2721,828 L2710,846 L2703,856 L2698,866 L2698,874 L2702,882 L2708,888 L2718,897 L2729,905 L2742,917 L2750,924 L2762,924 L2770,922 L2776,916 L2780,908 L2781,897 L2782,885 L2782,874 L2777,869 L2770,866 L2769,860 L2770,855 L2776,849 L2783,845 L2800,844 L2817,843 L2826,842 L2837,841 L2845,839 L2853,836 L2866,834 L2874,835 L2880,840 L2883,845 L2888,849 L2895,850 L2905,851 L2911,853 L2912,862 L2907,870 L2900,873 L2895,875 L2891,880 L2890,884 L2894,890 L2907,898 L2918,904 L2938,915 L2954,927 L2971,938 L2983,943 L2998,945 L3013,950 L3025,958 L3037,969 L3045,977 L3057,980 L3070,980 L3077,977 L3084,969 L3095,952 L3101,946 L3109,942 L3118,942 L3136,951 L3140,961 L3149,966 L3163,973 L3170,989 L3174,1003 L3172,1015 L3167,1027 L3161,1033 L3150,1040 L3137,1045 L3123,1050 L3111,1060 L3099,1078 L3077,1101 L3061,1117 L3048,1122 L3048,1122z " class="polyStyle" id="410202" style="fill:#d4ecb2"/>
<polygon points="3568,591 3617,604 3660,602 3720,602 3755,609 3810,624 3872,636 3924,647 3975,647 4027,639 4082,630 4118,622 4115,644 4108,670 4102,693 4098,706 4097,718 4102,730 4117,737 4140,742 4157,744 4167,749 4167,755 4169,761 4179,766 4193,769 4210,773 4220,776 4228,787 4228,801 4227,815 4229,819 4239,826 4253,829 4270,834 4278,840 4283,846 4282,859 4281,871 4282,879 4289,886 4296,891 4301,897 4306,908 4306,916 4300,924 4292,932 4290,939 4290,949 4287,961 4283,976 4280,988 4285,999 4292,1009 4295,1018 4292,1025 4287,1031 4279,1034 4266,1035 4260,1036 4257,1045 4258,1057 4261,1066 4267,1075 4267,1086 4262,1091 4256,1105 4250,1123 4248,1139 4245,1155 4245,1168 4246,1172 4251,1174 4257,1175 4267,1175 4275,1176 4287,1177 4298,1183 4302,1187 4300,1200 4299,1212 4291,1221 4281,1227 4275,1231 4260,1233 4243,1231 4227,1230 4220,1232 4214,1241 4210,1256 4202,1275 4193,1289 4183,1302 4172,1310 4151,1320 4138,1321 4130,1328 4129,1337 4132,1351 4141,1362 4155,1376 4171,1381 4191,1382 4201,1386 4209,1391 4210,1394 4213,1399 4210,1410 4201,1414 4186,1423 4170,1431 4164,1442 4162,1456 4162,1468 4150,1485 4141,1498 4130,1510 4113,1517 4087,1520 4059,1527 4042,1532 4035,1538 4037,1543 4035,1552 4029,1552 4019,1545 4004,1539 3986,1539 3961,1538 3935,1536 3925,1538 3913,1546 3897,1550 3884,1553 3866,1555 3851,1561 3842,1569 3835,1582 3834,1595 3831,1609 3827,1620 3830,1627 3837,1636 3850,1646 3855,1656 3853,1666 3845,1678 3837,1693 3835,1707 3838,1724 3842,1740 3846,1757 3849,1773 3853,1786 3866,1792 3882,1793 3902,1792 3915,1792 3922,1800 3922,1809 3914,1818 3909,1826 3908,1836 3909,1848 3910,1861 3912,1880 3916,1887 3924,1895 3930,1904 3935,1914 3930,1927 3924,1936 3912,1947 3908,1959 3910,1971 3910,1980 3904,1988 3894,1990 3885,1994 3865,2006 3847,2011 3836,2016 3835,2028 3831,2041 3833,2066 3840,2084 3842,2097 3841,2112 3836,2123 3828,2134 3812,2144 3794,2147 3777,2146 3765,2146 3748,2152 3739,2157 3730,2172 3730,2188 3732,2201 3728,2213 3723,2229 3718,2239 3709,2247 3703,2256 3703,2266 3711,2271 3708,2273 3700,2275 3688,2277 3676,2276 3657,2275 3640,2275 3626,2276 3612,2279 3595,2280 3589,2286 3578,2288 3557,2282 3544,2278 3531,2278 3515,2277 3507,2280 3503,2286 3496,2285 3490,2285 3489,2290 3487,2296 3481,2297 3476,2291 3475,2277 3474,2264 3477,2251 3474,2242 3462,2240 3454,2236 3447,2241 3445,2248 3441,2249 3435,2245 3433,2237 3426,2235 3413,2230 3403,2231 3396,2240 3383,2240 3362,2240 3354,2237 3348,2228 3346,2218 3349,2204 3347,2193 3340,2191 3327,2191 3308,2194 3294,2198 3280,2204 3269,2208 3250,2210 3233,2208 3218,2209 3198,2211 3181,2213 3169,2217 3159,2216 3137,2218 3130,2221 3129,2229 3124,2236 3114,2235 3104,2227 3094,2229 3081,2228 3062,2220 3049,2218 3040,2225 3036,2228 3038,2240 3033,2244 3025,2244 3012,2239 3002,2234 3002,2229 3005,2223 3008,2215 3008,2200 3008,2188 2999,2181 2983,2177 2969,2176 2959,2176 2952,2183 2952,2191 2952,2202 2948,2208 2934,2206 2920,2208 2911,2221 2906,2236 2904,2245 2895,2250 2883,2251 2865,2250 2847,2251 2837,2256 2830,2275 2829,2293 2830,2298 2844,2304 2857,2304 2869,2303 2879,2305 2880,2312 2878,2330 2875,2351 2873,2363 2874,2378 2876,2392 2881,2399 2887,2401 2891,2405 2890,2412 2890,2422 2890,2431 2888,2438 2882,2442 2868,2443 2852,2444 2832,2451 2813,2458 2795,2463 2779,2464 2758,2461 2737,2448 2718,2440 2704,2438 2692,2436 2676,2432 2664,2432 2650,2434 2642,2436 2634,2436 2625,2433 2618,2427 2613,2416 2612,2406 2612,2395 2616,2388 2622,2379 2622,2370 2619,2360 2612,2356 2598,2351 2585,2350 2572,2348 2555,2346 2533,2347 2521,2347 2509,2348 2495,2348 2489,2351 2486,2356 2485,2365 2483,2370 2478,2372 2468,2372 2465,2376 2466,2381 2470,2388 2477,2395 2481,2404 2482,2416 2480,2429 2474,2441 2466,2452 2462,2460 2462,2468 2462,2479 2463,2495 2461,2505 2460,2509 2457,2511 2450,2514 2441,2523 2436,2530 2431,2540 2426,2548 2421,2553 2409,2555 2399,2556 2385,2555 2371,2555 2362,2553 2356,2550 2353,2546 2350,2534 2348,2522 2349,2517 2351,2509 2352,2500 2351,2494 2346,2486 2339,2482 2329,2481 2318,2485 2306,2491 2295,2499 2285,2510 2275,2515 2262,2519 2256,2524 2255,2534 2257,2544 2259,2551 2259,2562 2257,2568 2245,2571 2233,2569 2222,2568 2213,2570 2206,2574 2186,2565 2164,2548 2155,2535 2151,2521 2145,2518 2129,2514 2118,2500 2106,2484 2102,2473 2092,2461 2082,2450 2081,2442 2085,2429 2088,2415 2090,2405 2089,2390 2089,2375 2095,2374 2101,2374 2100,2369 2096,2360 2083,2350 2065,2349 2053,2348 2043,2347 2041,2343 2032,2326 2022,2320 2005,2318 1990,2321 1968,2328 1955,2338 1933,2341 1909,2340 1899,2332 1893,2325 1897,2318 1898,2306 1894,2297 1878,2291 1867,2291 1849,2290 1842,2288 1841,2281 1841,2266 1837,2252 1827,2244 1815,2241 1810,2246 1810,2255 1797,2257 1788,2256 1772,2243 1761,2240 1752,2246 1746,2251 1735,2264 1723,2263 1712,2256 1700,2252 1696,2240 1693,2229 1684,2220 1667,2210 1645,2200 1634,2199 1614,2193 1607,2187 1603,2178 1601,2168 1593,2160 1585,2155 1574,2148 1560,2147 1546,2146 1534,2146 1520,2154 1506,2155 1489,2147 1474,2141 1463,2135 1455,2131 1447,2123 1443,2110 1438,2096 1432,2091 1423,2087 1425,2085 1419,2082 1410,2080 1403,2071 1402,2064 1402,2047 1407,2034 1431,2030 1430,2023 1418,2016 1401,2002 1402,1988 1419,1972 1442,1945 1444,1929 1407,1884 1382,1863 1374,1849 1374,1833 1409,1823 1444,1801 1437,1780 1439,1759 1447,1729 1445,1714 1430,1702 1426,1692 1427,1680 1439,1646 1455,1620 1483,1584 1486,1558 1478,1553 1485,1551 1495,1553 1508,1554 1521,1553 1534,1550 1549,1548 1563,1547 1579,1549 1595,1554 1609,1558 1621,1560 1639,1563 1654,1561 1664,1562 1675,1564 1690,1570 1706,1573 1727,1579 1747,1587 1756,1593 1763,1599 1768,1601 1778,1603 1788,1601 1805,1600 1821,1599 1832,1596 1841,1591 1856,1583 1865,1581 1877,1584 1892,1585 1904,1586 1914,1586 1925,1587 1937,1590 1941,1599 1942,1608 1943,1616 1939,1622 1936,1625 1933,1632 1934,1642 1935,1649 1930,1652 1923,1655 1918,1660 1916,1668 1916,1679 1922,1691 1930,1695 1942,1697 1959,1699 1976,1703 1998,1712 2019,1722 2037,1731 2058,1743 2075,1747 2095,1747 2108,1744 2119,1745 2133,1741 2142,1730 2146,1716 2148,1706 2149,1700 2155,1697 2163,1698 2168,1700 2171,1698 2170,1688 2174,1675 2177,1673 2184,1674 2188,1672 2188,1664 2189,1659 2192,1659 2196,1660 2203,1662 2206,1662 2212,1654 2215,1634 2222,1608 2226,1587 2227,1563 2230,1548 2234,1538 2240,1526 2248,1515 2255,1503 2258,1497 2262,1496 2266,1496 2270,1493 2279,1483 2294,1467 2302,1457 2317,1449 2335,1447 2350,1447 2372,1449 2386,1453 2396,1464 2401,1479 2405,1488 2413,1499 2424,1506 2438,1509 2447,1511 2456,1516 2459,1523 2466,1530 2476,1539 2479,1549 2479,1560 2480,1568 2484,1577 2490,1585 2500,1589 2514,1589 2533,1588 2545,1583 2554,1573 2560,1563 2560,1552 2561,1544 2567,1539 2574,1538 2580,1539 2590,1543 2593,1557 2596,1570 2600,1586 2605,1594 2613,1600 2625,1603 2642,1604 2661,1604 2680,1603 2698,1605 2719,1610 2733,1614 2758,1616 2774,1616 2784,1613 2799,1605 2812,1599 2832,1592 2854,1583 2874,1568 2881,1556 2884,1546 2884,1529 2881,1511 2875,1500 2867,1491 2861,1483 2854,1473 2842,1457 2826,1434 2812,1421 2805,1409 2798,1397 2792,1386 2781,1379 2769,1376 2758,1374 2751,1370 2741,1362 2727,1356 2710,1353 2698,1348 2696,1344 2699,1336 2711,1325 2733,1316 2747,1309 2759,1303 2769,1295 2777,1288 2781,1281 2781,1267 2784,1259 2789,1252 2802,1247 2815,1247 2835,1250 2845,1253 2856,1253 2860,1252 2864,1246 2870,1234 2877,1230 2884,1228 2897,1226 2907,1224 2914,1215 2918,1205 2921,1195 2928,1184 2938,1175 2946,1169 2964,1163 2973,1159 2978,1148 2983,1138 2987,1135 2998,1134 3008,1132 3016,1127 3032,1122 3048,1122 3061,1117 3077,1101 3099,1078 3111,1060 3123,1050 3137,1045 3150,1040 3161,1033 3167,1027 3172,1015 3174,1003 3170,989 3163,973 3149,966 3140,961 3136,951 3118,942 3109,942 3101,946 3095,952 3084,969 3077,977 3070,980 3057,980 3045,977 3037,969 3025,958 3013,950 2998,945 2983,943 2971,938 2954,927 2938,915 2918,904 2907,898 2894,890 2890,884 2891,880 2895,875 2900,873 2907,870 2912,862 2911,853 2905,851 2895,850 2888,849 2883,845 2880,840 2874,835 2866,834 2853,836 2845,839 2837,841 2826,842 2817,843 2800,844 2783,845 2776,849 2770,855 2769,860 2770,866 2777,869 2782,874 2782,885 2781,897 2780,908 2776,916 2770,922 2762,924 2750,924 2742,917 2729,905 2718,897 2708,888 2702,882 2698,874 2698,866 2703,856 2710,846 2721,828 2726,815 2726,806 2720,793 2706,782 2694,779 2682,779 2674,781 2657,781 2646,781 2635,775 2630,766 2629,753 2631,743 2641,733 2650,728 2666,725 2695,713 2724,705 2742,691 2753,665 2758,645 2774,616 2776,600 2781,598 2805,585 2832,576 2862,571 2886,568 2910,570 2938,574 2967,577 2994,581 3030,586 3050,589 3079,595 3113,595 3140,592 3171,598 3215,622 3245,636 3294,636 3339,619 3388,596 3429,577 3459,561 3487,559 3519,564 " class="polyStyle" id="410212" style="fill:#fbe6ef"/>
<path d="" class="polyStyle" id="440800" style="fill:#f6f67b"/>
<path d="" class="polyStyle" id="440900" style="fill:#ee8b94"/>
<path d="" class="polyStyle" id="340800" style="fill:#ee8b94"/>
<path d="" class="polyStyle" id="460200" style="fill:#f6f67b"/>
<path d="" class="polyStyle" id="460000" style="fill:#ee8b94"/>
<path d="" class="polyStyle" id="450500" style="fill:#ee8b94"/>
<path d="" class="polyStyle" id="450600" style="fill:#ee8b94"/>
<path d="" class="polyStyle" id="440400" style="fill:#f6f67b"/>
<path d="" class="polyStyle" id="441700" style="fill:#f6f67b"/>
<path d="" class="polyStyle" id="441500" style="fill:#f6f67b"/>
<path d="" class="polyStyle" id="350600" style="fill:#ee8b94"/>
<path d="" class="polyStyle" id="710000" style="fill:#f6f67b"/>
<path d="" class="polyStyle" id="510400" style="fill:#f6f67b"/>
<path d="" class="polyStyle" id="522600" style="fill:#fbe6ef"/>
<path d="" class="polyStyle" id="520500" style="fill:#ee8b94"/>
<path d="" class="polyStyle" id="431200" style="fill:#f6f67b"/>
<path d="" class="polyStyle" id="430600" style="fill:#f6f67b"/>
<path d="" class="polyStyle" id="511400" style="fill:#d4ecb2"/>
<path d="" class="polyStyle" id="421000" style="fill:#ee8b94"/>
<path d="" class="polyStyle" id="341700" style="fill:#f6f67b"/>
<path d="" class="polyStyle" id="420500" style="fill:#f6f67b"/>
<path d="" class="polyStyle" id="511300" style="fill:#f6f67b"/>
<path d="" class="polyStyle" id="420900" style="fill:#f6f67b"/>
<path d="" class="polyStyle" id="511700" style="fill:#ee8b94"/>
<path d="" class="polyStyle" id="420600" style="fill:#d4ecb2"/>
<path d="" class="polyStyle" id="411500" style="fill:#fbe6ef"/>
<path d="" class="polyStyle" id="510800" style="fill:#ee8b94"/>
<path d="" class="polyStyle" id="420300" style="fill:#fbe6ef"/>
<path d="" class="polyStyle" id="611000" style="fill:#ee8b94"/>
<path d="" class="polyStyle" id="620800" style="fill:#fbe6ef"/>
<path d="" class="polyStyle" id="370200" style="fill:#ee8b94"/>
<path d="" class="polyStyle" id="371000" style="fill:#f6f67b"/>
<path d="" class="polyStyle" id="370600" style="fill:#fbe6ef"/>
<path d="" class="polyStyle" id="120000" style="fill:#f6f67b"/>
<path d="" class="polyStyle" id="130200" style="fill:#ee8b94"/>
<path d="" class="polyStyle" id="130300" style="fill:#f6f67b"/>
<path d="" class="polyStyle" id="652900" style="fill:#fbe6ef"/>
<path d="" class="polyStyle" id="150500" style="fill:#d4ecb2"/>
<path d="" class="polyStyle" id="" style="fill:#d4ecb2"/>
<path d="" class="polyStyle" id="350500" style="fill:#fbe6ef"/>
<path d="" class="polyStyle" id="440400" style="fill:#f6f67b"/>
<path d="" class="polyStyle" id="421100" style="fill:#d4ecb2"/>
<path d="" class="polyStyle" id="420100" style="fill:#fbe6ef"/>
<path d="" class="polyStyle" id="532500" style="fill:#fbe6ef"/>
<path d="" class="polyStyle" id="654200" style="fill:#fbe6ef"/>
<path d="" class="polyStyle" id="210700" style="fill:#d4ecb2"/>
<path d="" class="polyStyle" id="522300" style="fill:#fbe6ef"/>
<path d="" class="polyStyle" id="" style="fill:#ee8b94"/>
<path d="" class="polyStyle" id="440400" style="fill:#f6f67b"/>
<path d="" class="polyStyle" id="620000" style="fill:#f6f67b"/>
<path d="" class="polyStyle" id="430000" style="fill:#fbe6ef"/>
<path d="" class="polyStyle" id="420000" style="fill:#ee8b94"/>
<path d="" class="polyStyle" id="410000" style="fill:#f6f67b"/>
<path d="" class="polyStyle" id="350000" style="fill:#fbe6ef"/>
<path d="" class="polyStyle" id="520000" style="fill:#f6f67b"/>
<path d="" class="polyStyle" id="" style="fill:#ee8b94"/>
</svg>
