<?xml version="1.0" encoding="UTF-8"?>
<!DOCTYPE svg PUBLIC "-//W3C//DTD SVG 1.1 Tiny//EN" "http://www.w3.org/Graphics/SVG/1.1/DTD/svg11-tiny.dtd">
<svg version="1.1" xmlns="http://www.w3.org/2000/svg" xmlns:xlink="http://www.w3.org/1999/xlink" width="100%" height="100%" viewBox="0,0,6791,5807">
<title>SVG</title>
<desc>Poligon Test</desc>
<style id="style_css_sheet" type="text/css">
.polyStyle{fill: #cccccc;stroke-width:0;fill-rule:evenodd;}
</style>
<circle cx="949" cy="1518" r="200" stroke="black" stroke-width="1" fill="red" id="410581" name="林州市"/>
<circle cx="3633" cy="1298" r="200" stroke="black" stroke-width="1" fill="red" id="410522" position="4"name="安阳县"/>
<circle cx="3610" cy="2240" r="200" stroke="black" stroke-width="1" fill="red" id="410523" name="汤阴县"/>
<circle cx="6369" cy="2070" r="200" stroke="black" stroke-width="1" fill="red" id="410527" name="内黄县"/>
<circle cx="4441" cy="3931" r="200" stroke="black" stroke-width="1" fill="red" id="410526" name="滑县"/>
<circle cx="3632" cy="1231" r="200" stroke="black" stroke-width="1" fill="red" id="410503"position="3" name="北关区"/>
<circle cx="3626" cy="1369" r="200" stroke="black" stroke-width="1" fill="red" id="410502" name="文峰区"/>
<circle cx="3354" cy="1287" r="200" stroke="black" stroke-width="1" fill="red" id="410505"position="44" name="殷都区"/>
<circle cx="3332" cy="1440" r="200" stroke="black" stroke-width="1" fill="red" id="410506" name="龙安区"/>
<path d="" class="polyStyle" id="" style="fill:#ee8b94"/>
<path d="" class="polyStyle" id="623022" style="fill:#fbe6ef"/>
<path d="" class="polyStyle" id="211421" style="fill:#f6f67b"/>
<path d="" class="polyStyle" id="532524" style="fill:#ee8b94"/>
<path d="" class="polyStyle" id="440825" style="fill:#f6f67b"/>
<path d="" class="polyStyle" id="441721" style="fill:#f6f67b"/>
<path d="" class="polyStyle" id="450521" style="fill:#f6f67b"/>
<path d="" class="polyStyle" id="450123" style="fill:#fbe6ef"/>
<path d="" class="polyStyle" id="350624" style="fill:#f6f67b"/>
<path d="" class="polyStyle" id="" style="fill:#fbe6ef"/>
<path d="" class="polyStyle" id="451224" style="fill:#fbe6ef"/>
<path d="" class="polyStyle" id="350627" style="fill:#f6f67b"/>
<path d="" class="polyStyle" id="" style="fill:#f6f67b"/>
<path d="" class="polyStyle" id="350525" style="fill:#f6f67b"/>
<path d="" class="polyStyle" id="530124" style="fill:#ee8b94"/>
<path d="" class="polyStyle" id="522627" style="fill:#ee8b94"/>
<path d="" class="polyStyle" id="510421" style="fill:#fbe6ef"/>
<path d="" class="polyStyle" id="522623" style="fill:#d4ecb2"/>
<path d="" class="polyStyle" id="430321" style="fill:#d4ecb2"/>
<path d="" class="polyStyle" id="511129" style="fill:#d4ecb2"/>
<path d="" class="polyStyle" id="511423" style="fill:#ee8b94"/>
<path d="" class="polyStyle" id="421023" style="fill:#f6f67b"/>
<path d="" class="polyStyle" id="511724" style="fill:#f6f67b"/>
<path d="" class="polyStyle" id="420526" style="fill:#fbe6ef"/>
<path d="" class="polyStyle" id="511923" style="fill:#fbe6ef"/>
<path d="" class="polyStyle" id="420325" style="fill:#fbe6ef"/>
<path d="" class="polyStyle" id="511921" style="fill:#f6f67b"/>
<path d="" class="polyStyle" id="542525" style="fill:#f6f67b"/>
<path d="" class="polyStyle" id="611026" style="fill:#ee8b94"/>
<path d="" class="polyStyle" id="411023" style="fill:#fbe6ef"/>
<path d="" class="polyStyle" id="632323" style="fill:#f6f67b"/>
<polygon points="5518,3395 5525,3415 5534,3423 5552,3428 5573,3432 5586,3439 5610,3465 5626,3463 5649,3449 5675,3438 5698,3434 5717,3432 5735,3423 5757,3425 5786,3436 5797,3446 5812,3446 5839,3444 5862,3441 5893,3436 5923,3433 5951,3436 5989,3444 5996,3456 5986,3483 5979,3503 5983,3513 5999,3520 6012,3521 6027,3521 6038,3511 6060,3508 6067,3515 6071,3536 6083,3546 6110,3554 6134,3554 6151,3554 6176,3549 6211,3540 6227,3547 6251,3564 6274,3573 6286,3580 6301,3590 6317,3603 6334,3613 6326,3628 6320,3646 6311,3651 6287,3647 6271,3647 6250,3658 6225,3678 6219,3699 6228,3737 6218,3769 6204,3783 6202,3795 6209,3808 6230,3807 6248,3803 6283,3809 6318,3827 6338,3845 6361,3861 6388,3873 6421,3883 6445,3900 6454,3903 6469,3902 6485,3897 6495,3890 6512,3897 6555,3909 6585,3917 6609,3935 6631,3941 6639,3940 6643,3946 6646,3952 6650,3961 6653,3965 6654,3968 6656,3972 6658,3979 6661,3985 6662,3988 6664,3993 6666,3997 6668,4001 6669,4004 6671,4008 6673,4011 6674,4015 6675,4018 6677,4022 6679,4026 6680,4029 6681,4032 6682,4035 6683,4041 6684,4054 6683,4061 6682,4066 6681,4070 6680,4075 6679,4080 6678,4092 6679,4098 6680,4101 6681,4104 6682,4108 6685,4114 6689,4122 6694,4129 6694,4133 6694,4137 6695,4142 6696,4156 6695,4166 6694,4175 6693,4190 6694,4198 6695,4204 6696,4209 6696,4215 6697,4220 6698,4225 6699,4232 6698,4238 6696,4243 6695,4247 6693,4250 6692,4255 6690,4261 6689,4265 6688,4268 6687,4271 6686,4274 6685,4277 6684,4282 6683,4287 6682,4294 6681,4297 6680,4308 6660,4317 6626,4331 6606,4329 6579,4333 6564,4343 6555,4367 6544,4393 6538,4406 6540,4420 6551,4435 6570,4440 6595,4435 6621,4429 6637,4419 6661,4419 6687,4420 6700,4428 6704,4434 6701,4456 6694,4460 6686,4489 6683,4518 6690,4538 6692,4561 6678,4577 6665,4601 6663,4630 6683,4655 6717,4650 6729,4643 6745,4643 6754,4653 6758,4683 6777,4701 6771,4713 6770,4738 6774,4751 6791,4768 6768,4780 6753,4792 6742,4809 6715,4820 6699,4819 6685,4827 6681,4840 6683,4857 6647,4885 6622,4907 6601,4926 6576,4917 6549,4911 6522,4906 6497,4905 6468,4904 6440,4900 6413,4894 6388,4891 6362,4881 6335,4875 6312,4874 6292,4868 6251,4877 6225,4879 6196,4881 6169,4882 6146,4888 6102,4906 6091,4938 6066,4944 6036,4963 6014,4976 5980,4997 5968,5021 5944,5037 5922,5042 5897,5027 5886,5022 5877,5030 5879,5039 5884,5061 5881,5086 5862,5099 5823,5113 5791,5118 5759,5116 5732,5121 5695,5125 5677,5124 5663,5141 5631,5151 5594,5141 5570,5126 5539,5107 5513,5100 5485,5102 5457,5101 5425,5110 5420,5130 5410,5137 5376,5132 5352,5125 5338,5127 5332,5135 5332,5158 5335,5183 5335,5212 5340,5241 5343,5268 5341,5300 5332,5313 5313,5323 5280,5322 5250,5324 5246,5325 5245,5328 5256,5362 5254,5367 5240,5374 5225,5376 5196,5380 5154,5375 5128,5369 5101,5364 5074,5353 5048,5342 5021,5344 4994,5351 4962,5346 4936,5354 4910,5358 4881,5370 4873,5390 4830,5406 4803,5422 4771,5444 4756,5452 4729,5457 4701,5458 4656,5451 4640,5485 4632,5510 4614,5532 4593,5549 4588,5585 4577,5616 4550,5634 4514,5654 4503,5679 4489,5681 4479,5678 4459,5663 4437,5664 4422,5677 4389,5688 4352,5698 4333,5709 4316,5734 4301,5761 4295,5787 4286,5796 4263,5784 4237,5770 4212,5758 4187,5751 4161,5747 4134,5749 4108,5755 4081,5768 4060,5796 4035,5807 4009,5798 4004,5772 4012,5747 3994,5736 3968,5719 3946,5709 3920,5690 3893,5695 3865,5702 3838,5709 3817,5734 3804,5726 3802,5700 3827,5689 3850,5669 3879,5651 3895,5641 3898,5630 3884,5624 3831,5621 3823,5602 3816,5578 3796,5550 3799,5528 3811,5511 3846,5498 3874,5489 3883,5476 3882,5464 3867,5422 3850,5412 3827,5398 3806,5377 3806,5360 3822,5353 3842,5352 3883,5357 3895,5354 3900,5344 3929,5323 3934,5300 3934,5269 3906,5258 3875,5243 3865,5227 3855,5207 3858,5190 3902,5199 3967,5199 3973,5175 3996,5167 4035,5163 4040,5156 4035,5143 4014,5134 3978,5130 3964,5113 3961,5074 3922,5061 3872,5052 3868,5028 3889,4991 3918,4955 3948,4949 3962,4922 3964,4913 3956,4903 3919,4900 3911,4885 3928,4867 3925,4832 3924,4802 3922,4785 3903,4775 3869,4754 3855,4716 3864,4678 3879,4662 3912,4646 3927,4622 3936,4593 3945,4564 3954,4551 3977,4538 3980,4520 3984,4497 3976,4485 3966,4479 3936,4463 3936,4456 3932,4441 3936,4432 3940,4420 3940,4408 3922,4396 3896,4385 3876,4369 3867,4356 3867,4342 3858,4326 3846,4316 3823,4297 3810,4285 3809,4273 3817,4263 3838,4256 3849,4245 3853,4231 3861,4218 3873,4206 3885,4203 3906,4201 3924,4195 3954,4165 3984,4137 4024,4108 4068,4086 4096,4070 4140,4041 4170,4025 4203,4009 4223,3992 4243,3967 4249,3942 4255,3914 4260,3907 4269,3898 4272,3892 4278,3884 4283,3883 4285,3886 4285,3895 4290,3897 4301,3896 4309,3899 4324,3909 4335,3918 4343,3922 4350,3922 4353,3918 4351,3911 4346,3896 4341,3877 4334,3865 4320,3855 4311,3844 4313,3826 4315,3813 4326,3793 4349,3781 4358,3780 4379,3783 4390,3786 4404,3799 4418,3814 4442,3826 4455,3833 4470,3845 4483,3843 4491,3839 4492,3831 4492,3820 4499,3812 4500,3807 4499,3797 4505,3794 4512,3800 4524,3808 4542,3822 4550,3825 4560,3824 4571,3819 4580,3805 4579,3787 4579,3767 4588,3751 4593,3747 4605,3747 4625,3756 4645,3759 4662,3756 4666,3751 4664,3734 4663,3717 4667,3712 4682,3712 4685,3720 4685,3733 4684,3742 4690,3747 4711,3748 4726,3748 4732,3737 4736,3727 4744,3724 4754,3724 4755,3729 4756,3737 4757,3749 4760,3755 4766,3759 4779,3752 4799,3733 4820,3718 4841,3711 4866,3702 4891,3691 4902,3683 4917,3666 4921,3652 4919,3638 4916,3623 4920,3609 4929,3599 4950,3594 4980,3589 5000,3586 5017,3586 5040,3581 5055,3570 5067,3562 5082,3557 5091,3558 5111,3568 5134,3579 5160,3582 5190,3577 5212,3570 5221,3567 5225,3549 5234,3525 5247,3496 5259,3455 5268,3434 5283,3414 5297,3403 5312,3397 5340,3395 5368,3395 5377,3392 5382,3388 5385,3375 5391,3367 5403,3364 5433,3369 5450,3369 5463,3369 5473,3359 5498,3368 " class="polyStyle" id="410526" style="fill:#ee8b94"/>
<path d="" class="polyStyle" id="140525" style="fill:#d4ecb2"/>
<polygon points="5151,1799 5150,1816 5146,1840 5179,1845 5200,1823 5210,1819 5247,1825 5277,1830 5299,1834 5322,1838 5348,1844 5364,1853 5366,1859 5363,1867 5356,1875 5356,1885 5359,1899 5364,1913 5365,1928 5355,1946 5353,1954 5306,1981 5303,1998 5295,1998 5287,1998 5277,2001 5274,2010 5274,2018 5280,2032 5280,2039 5272,2053 5258,2076 5250,2086 5242,2099 5242,2109 5240,2112 5228,2120 5214,2128 5198,2141 5193,2157 5184,2170 5180,2188 5175,2204 5172,2212 5161,2212 5147,2216 5146,2220 5148,2228 5154,2238 5157,2249 5148,2265 5134,2279 5125,2293 5117,2307 5108,2308 5094,2310 5080,2318 5062,2325 5051,2338 5050,2353 5055,2366 5058,2374 5058,2386 5054,2394 5050,2400 5045,2403 5036,2402 5027,2402 5018,2407 5006,2416 5003,2426 4999,2434 4993,2439 4983,2448 4977,2456 4976,2464 4973,2474 4969,2479 4959,2481 4954,2486 4952,2493 4952,2502 4955,2507 4960,2512 4960,2522 4959,2530 4957,2535 4951,2537 4941,2534 4933,2534 4930,2537 4918,2544 4910,2549 4904,2546 4901,2540 4896,2534 4893,2530 4889,2528 4881,2529 4873,2535 4869,2542 4869,2548 4872,2553 4875,2557 4874,2562 4870,2564 4865,2566 4854,2563 4844,2560 4837,2559 4827,2562 4821,2566 4818,2577 4821,2586 4825,2589 4835,2590 4848,2587 4867,2582 4877,2578 4885,2572 4892,2569 4897,2569 4901,2571 4904,2576 4903,2584 4893,2595 4856,2603 4828,2607 4803,2609 4789,2605 4778,2602 4775,2604 4774,2608 4778,2617 4779,2621 4778,2625 4762,2624 4754,2626 4728,2632 4715,2635 4696,2627 4691,2628 4654,2652 4652,2656 4650,2671 4647,2677 4635,2685 4623,2689 4604,2694 4596,2696 4577,2692 4564,2683 4540,2675 4524,2670 4502,2666 4484,2653 4469,2642 4455,2634 4435,2633 4424,2636 4406,2636 4385,2631 4364,2623 4342,2623 4319,2623 4308,2624 4295,2630 4276,2632 4257,2633 4243,2636 4228,2644 4223,2652 4224,2666 4223,2679 4217,2688 4210,2689 4195,2688 4178,2690 4157,2696 4137,2696 4116,2696 4101,2691 4090,2687 4077,2688 4073,2692 4072,2706 4074,2716 4067,2726 4057,2734 4045,2738 4027,2736 3999,2728 3977,2712 3961,2698 3935,2698 3911,2698 3899,2703 3890,2714 3877,2717 3872,2721 3867,2734 3862,2743 3848,2751 3838,2758 3827,2758 3810,2756 3795,2757 3771,2758 3750,2756 3733,2743 3702,2744 3669,2749 3630,2747 3573,2742 3549,2743 3538,2772 3532,2800 3527,2839 3516,2853 3506,2859 3495,2862 3483,2862 3470,2852 3459,2853 3445,2858 3432,2863 3421,2862 3406,2862 3389,2860 3369,2855 3343,2850 3325,2851 3314,2856 3302,2870 3290,2887 3277,2904 3267,2908 3231,2917 3209,2929 3207,2938 3210,2943 3221,2945 3240,2950 3255,2953 3260,2958 3263,2967 3254,2981 3242,2993 3240,3009 3238,3012 3223,3014 3208,3026 3197,3028 3179,3025 3164,3020 3149,3014 3140,3005 3132,2998 3123,2994 3122,2981 3122,2969 3132,2966 3146,2965 3157,2963 3162,2956 3163,2948 3150,2938 3145,2928 3141,2915 3132,2911 3120,2903 3112,2890 3102,2873 3096,2863 3086,2864 3075,2866 3063,2860 3060,2850 3061,2828 3055,2803 3042,2790 3027,2774 3018,2752 3018,2730 3018,2698 3015,2681 3001,2663 3000,2653 3002,2644 3015,2625 3017,2613 3019,2604 3005,2587 2990,2572 2989,2564 3000,2555 3015,2547 3042,2530 3060,2522 3077,2518 3089,2507 3088,2494 3077,2481 3076,2474 3082,2467 3094,2460 3106,2458 3121,2464 3131,2470 3140,2475 3153,2472 3170,2458 3192,2451 3214,2438 3227,2422 3249,2401 3275,2383 3291,2371 3294,2362 3289,2356 3281,2355 3264,2353 3246,2355 3224,2358 3208,2352 3197,2338 3192,2317 3197,2283 3210,2266 3221,2259 3227,2246 3225,2230 3226,2216 3229,2207 3241,2204 3263,2201 3288,2196 3300,2195 3311,2200 3320,2207 3330,2207 3344,2200 3353,2187 3350,2170 3334,2156 3316,2145 3306,2137 3307,2131 3311,2129 3330,2127 3354,2115 3381,2089 3390,2065 3390,2044 3370,2035 3339,2030 3319,2032 3304,2038 3299,2049 3285,2061 3276,2076 3271,2089 3261,2098 3244,2098 3234,2098 3227,2093 3232,2081 3238,2070 3240,2047 3235,2035 3227,2016 3228,2008 3236,1998 3250,1977 3252,1969 3247,1959 3239,1953 3252,1954 3267,1953 3282,1955 3298,1955 3306,1957 3322,1960 3331,1963 3345,1969 3356,1975 3364,1975 3371,1969 3376,1959 3382,1957 3391,1960 3400,1960 3411,1961 3419,1965 3425,1973 3435,1970 3442,1971 3451,1971 3462,1975 3475,1975 3485,1975 3494,1974 3500,1976 3505,1979 3506,1989 3508,1994 3514,2001 3521,2008 3530,2014 3541,2025 3547,2029 3565,2037 3579,2039 3586,2038 3591,2038 3605,2036 3616,2033 3627,2027 3635,2020 3642,2012 3647,2000 3645,1988 3647,1980 3659,1979 3669,1979 3679,1978 3689,1979 3703,1982 3714,1987 3719,1986 3725,1980 3729,1978 3747,1976 3757,1979 3759,1990 3762,2000 3771,2002 3784,2005 3797,2007 3810,2005 3817,2004 3829,1999 3841,1994 3851,1993 3858,1995 3864,1995 3874,1997 3883,1997 3894,1997 3906,1996 3914,1993 3920,1990 3925,1987 3928,1981 3931,1978 3938,1971 3951,1958 3960,1954 3964,1945 3966,1938 3969,1930 3987,1926 3996,1922 4002,1917 4010,1922 4027,1929 4043,1930 4056,1931 4079,1927 4096,1920 4108,1912 4125,1901 4140,1896 4159,1889 4178,1887 4197,1884 4221,1884 4235,1880 4247,1879 4266,1878 4277,1875 4291,1872 4305,1869 4307,1860 4320,1862 4331,1869 4340,1874 4349,1881 4357,1885 4360,1888 4373,1892 4389,1893 4395,1890 4404,1884 4415,1883 4428,1883 4443,1885 4454,1888 4461,1882 4468,1872 4476,1865 4488,1851 4504,1855 4515,1857 4531,1858 4546,1860 4564,1862 4577,1862 4585,1862 4595,1863 4603,1863 4619,1868 4639,1878 4643,1877 4653,1872 4657,1870 4664,1867 4669,1864 4677,1861 4682,1859 4686,1858 4689,1857 4693,1857 4698,1856 4703,1855 4714,1854 4725,1854 4731,1853 4737,1852 4744,1852 4753,1851 4762,1850 4772,1850 4781,1849 4788,1848 4807,1849 4811,1850 4816,1850 4820,1851 4823,1852 4826,1852 4829,1853 4832,1854 4836,1855 4839,1855 4842,1856 4845,1857 4848,1858 4853,1861 4853,1872 4858,1874 4883,1875 4891,1870 4897,1862 4899,1851 4907,1848 4925,1848 4943,1850 4962,1849 4963,1843 4965,1836 4972,1831 4971,1823 4969,1804 4972,1799 4987,1798 5019,1799 5031,1798 5042,1799 5057,1801 5044,1826 5041,1835 5043,1843 5049,1845 5059,1850 5072,1851 5082,1848 5087,1838 5096,1811 5103,1796 5109,1784 5119,1779 5148,1787 " class="polyStyle" id="410523" style="fill:#d4ecb2"/>
<path d="" class="polyStyle" id="410922" style="fill:#ee8b94"/>
<polygon points="6227,1108 6301,1108 6305,1110 6301,1134 6331,1134 6369,1130 6385,1130 6397,1130 6395,1144 6391,1158 6383,1188 6369,1232 6365,1244 6385,1262 6399,1284 6405,1298 6413,1302 6427,1306 6457,1316 6469,1322 6475,1334 6479,1344 6479,1350 6467,1366 6459,1380 6453,1390 6459,1394 6469,1398 6467,1404 6453,1436 6427,1498 6417,1500 6405,1498 6393,1526 6417,1530 6415,1540 6413,1554 6417,1576 6416,1598 6419,1606 6423,1604 6434,1595 6438,1596 6441,1600 6444,1612 6448,1617 6453,1620 6460,1622 6470,1623 6490,1622 6495,1622 6501,1620 6507,1617 6522,1633 6535,1643 6560,1646 6589,1646 6614,1646 6644,1651 6670,1663 6696,1673 6723,1685 6743,1692 6763,1701 6761,1724 6739,1747 6726,1766 6716,1773 6707,1784 6699,1824 6704,1838 6712,1842 6727,1843 6740,1835 6743,1826 6751,1825 6760,1837 6768,1858 6768,1879 6763,1888 6753,1912 6754,1945 6777,1972 6780,2007 6773,2023 6763,2045 6759,2072 6752,2097 6740,2127 6718,2149 6707,2179 6705,2206 6711,2233 6726,2258 6738,2285 6730,2313 6717,2342 6703,2368 6696,2396 6694,2424 6675,2451 6660,2477 6655,2504 6647,2518 6641,2529 6615,2547 6582,2551 6550,2552 6517,2559 6496,2578 6504,2616 6512,2648 6505,2675 6498,2695 6517,2703 6533,2696 6555,2701 6585,2727 6585,2752 6583,2760 6565,2790 6563,2819 6557,2863 6550,2879 6549,2888 6528,2896 6489,2904 6465,2913 6447,2910 6418,2915 6416,2931 6403,2943 6381,2959 6361,2969 6356,2986 6341,2999 6329,3004 6323,3018 6313,3028 6286,3024 6274,3028 6267,3036 6267,3074 6276,3105 6287,3153 6298,3164 6339,3175 6361,3192 6383,3221 6400,3248 6412,3274 6416,3295 6403,3309 6388,3306 6366,3305 6358,3315 6358,3331 6361,3348 6380,3349 6410,3347 6424,3368 6434,3395 6436,3395 6447,3399 6451,3422 6447,3438 6436,3464 6431,3487 6423,3501 6378,3506 6371,3512 6368,3527 6384,3544 6371,3548 6359,3556 6355,3565 6367,3574 6366,3588 6361,3599 6334,3613 6317,3603 6301,3590 6286,3580 6274,3573 6251,3564 6227,3547 6211,3540 6176,3549 6151,3554 6134,3554 6110,3554 6083,3546 6071,3536 6067,3515 6060,3508 6038,3511 6027,3521 6012,3521 5999,3520 5983,3513 5979,3503 5986,3483 5996,3456 5989,3444 5951,3436 5923,3433 5893,3436 5862,3441 5839,3444 5812,3446 5797,3446 5786,3436 5757,3425 5735,3423 5717,3432 5698,3434 5675,3438 5649,3449 5626,3463 5610,3465 5586,3439 5573,3432 5552,3428 5534,3423 5525,3415 5518,3395 5498,3368 5473,3359 5475,3358 5484,3343 5497,3315 5507,3299 5524,3287 5544,3277 5559,3262 5566,3242 5571,3225 5579,3204 5594,3183 5608,3154 5611,3127 5611,3103 5609,3084 5609,3061 5598,3042 5575,3020 5555,3005 5538,2991 5524,2973 5516,2956 5509,2942 5494,2930 5476,2925 5445,2924 5419,2921 5405,2912 5399,2902 5388,2893 5371,2891 5344,2890 5329,2888 5311,2883 5293,2877 5285,2878 5277,2891 5269,2901 5260,2907 5234,2909 5211,2908 5191,2904 5180,2898 5158,2881 5133,2871 5107,2862 5083,2860 5055,2855 5023,2848 4997,2845 4975,2831 4929,2805 4900,2788 4885,2770 4884,2747 4889,2735 4883,2722 4866,2716 4848,2714 4831,2713 4820,2700 4815,2676 4807,2653 4795,2635 4778,2625 4779,2621 4778,2617 4774,2608 4775,2604 4778,2602 4789,2605 4803,2609 4828,2607 4856,2603 4893,2595 4903,2584 4904,2576 4901,2571 4897,2569 4892,2569 4885,2572 4877,2578 4867,2582 4848,2587 4835,2590 4825,2589 4821,2586 4818,2577 4821,2566 4827,2562 4837,2559 4844,2560 4854,2563 4865,2566 4870,2564 4874,2562 4875,2557 4872,2553 4869,2548 4869,2542 4873,2535 4881,2529 4889,2528 4893,2530 4896,2534 4901,2540 4904,2546 4910,2549 4918,2544 4930,2537 4933,2534 4941,2534 4951,2537 4957,2535 4959,2530 4960,2522 4960,2512 4955,2507 4952,2502 4952,2493 4954,2486 4959,2481 4969,2479 4973,2474 4976,2464 4977,2456 4983,2448 4993,2439 4999,2434 5003,2426 5006,2416 5018,2407 5027,2402 5036,2402 5045,2403 5050,2400 5054,2394 5058,2386 5058,2374 5055,2366 5050,2353 5051,2338 5062,2325 5080,2318 5094,2310 5108,2308 5117,2307 5125,2293 5134,2279 5148,2265 5157,2249 5154,2238 5148,2228 5146,2220 5147,2216 5161,2212 5172,2212 5175,2204 5180,2188 5184,2170 5193,2157 5198,2141 5214,2128 5228,2120 5240,2112 5242,2109 5242,2099 5250,2086 5258,2076 5272,2053 5280,2039 5280,2032 5274,2018 5274,2010 5277,2001 5287,1998 5295,1998 5303,1998 5306,1981 5353,1954 5355,1946 5365,1928 5364,1913 5359,1899 5356,1885 5356,1875 5363,1867 5366,1859 5364,1853 5363,1846 5362,1832 5368,1817 5375,1797 5383,1768 5383,1756 5385,1744 5393,1735 5408,1727 5415,1720 5420,1715 5418,1703 5418,1693 5423,1681 5434,1670 5448,1665 5455,1660 5470,1646 5478,1629 5483,1620 5488,1609 5486,1604 5484,1599 5480,1596 5476,1597 5472,1593 5471,1588 5473,1581 5475,1578 5481,1577 5482,1573 5482,1558 5483,1547 5487,1532 5490,1514 5493,1501 5496,1492 5499,1491 5506,1492 5512,1493 5513,1489 5517,1480 5527,1463 5534,1448 5538,1445 5548,1446 5554,1449 5565,1449 5574,1449 5579,1447 5581,1439 5584,1420 5586,1405 5586,1391 5585,1382 5578,1379 5567,1377 5554,1375 5547,1372 5542,1367 5543,1362 5549,1352 5550,1344 5541,1340 5538,1333 5540,1324 5548,1319 5558,1321 5566,1321 5566,1311 5571,1307 5586,1306 5598,1303 5608,1301 5612,1288 5615,1275 5621,1258 5629,1251 5637,1246 5644,1234 5653,1226 5658,1206 5661,1206 5693,1210 5697,1190 5719,1192 5723,1164 5737,1164 5755,1164 5785,1170 5789,1184 5813,1186 5821,1166 5845,1168 5875,1176 5875,1190 5945,1210 5963,1208 5991,1178 6025,1176 6061,1174 6069,1190 6093,1194 6115,1192 6117,1182 6117,1166 6117,1148 6121,1116 6123,1108 6195,1104 6199,1084 6223,1086 " class="polyStyle" id="410527" style="fill:#fbe6ef"/>
<path d="" class="polyStyle" id="621027" style="fill:#ee8b94"/>
<polygon points="1768,38 1776,40 1781,42 1790,47 1797,51 1814,62 1821,67 1842,80 1854,89 1864,95 1872,101 1877,111 1887,114 1899,112 1907,109 1913,100 1920,85 1924,75 1930,65 1938,60 1947,58 1959,57 1969,58 1975,60 1983,62 1995,69 2001,76 2007,88 2012,99 2013,104 2015,112 2014,116 2014,121 2008,134 1995,163 1993,171 1992,175 1991,180 1991,188 1994,192 2000,193 2012,194 2029,193 2045,191 2060,190 2088,186 2094,185 2100,185 2110,184 2120,184 2127,187 2132,192 2136,199 2138,204 2140,209 2147,228 2150,235 2155,239 2152,248 2084,280 2084,284 2090,304 2082,306 2048,306 2024,310 2020,320 2040,324 2064,330 2064,350 2064,364 2066,370 2076,374 2090,372 2098,374 2110,376 2116,382 2128,402 2134,416 2136,424 2138,428 2140,436 2142,444 2144,456 2151,463 2158,468 2178,476 2206,480 2252,484 2272,480 2290,472 2294,468 2294,464 2292,460 2292,452 2298,444 2306,444 2314,444 2326,448 2342,454 2356,458 2388,464 2446,470 2454,468 2462,466 2470,462 2478,450 2482,444 2486,434 2492,428 2496,424 2508,428 2526,434 2536,434 2546,438 2550,442 2550,452 2554,458 2586,472 2618,488 2642,500 2652,504 2656,502 2662,498 2668,488 2671,483 2676,482 2680,482 2686,486 2696,492 2714,504 2724,518 2714,542 2698,554 2698,558 2708,570 2704,582 2696,598 2686,608 2684,614 2694,616 2722,620 2740,622 2744,620 2754,608 2758,604 2762,598 2766,592 2771,589 2778,588 2792,592 2804,596 2826,604 2840,608 2856,606 2862,600 2868,588 2874,574 2878,564 2870,552 2849,544 2859,523 2876,487 2907,417 2924,434 2928,442 2942,449 2953,458 2959,464 2962,468 2974,486 2979,495 3001,516 3006,521 3015,532 3019,538 3026,553 3029,558 3041,569 3049,572 3059,573 3069,569 3081,561 3095,550 3112,539 3123,535 3130,533 3141,531 3151,531 3156,531 3160,533 3179,543 3186,546 3191,550 3213,559 3225,565 3226,567 3255,572 3283,582 3283,596 3305,600 3325,600 3353,600 3367,600 3379,599 3379,596 3379,588 3379,582 3381,578 3385,576 3391,572 3407,572 3433,576 3457,590 3473,590 3479,550 3505,550 3547,552 3553,556 3555,558 3557,576 3561,604 3567,608 3579,612 3587,614 3593,618 3599,626 3601,632 3605,646 3607,656 3607,664 3609,672 3611,680 3617,684 3629,690 3655,698 3669,704 3679,708 3697,712 3721,718 3743,722 3809,728 3819,726 3823,720 3825,694 3825,686 3825,682 3847,684 3861,686 3867,688 3875,694 3877,704 3889,716 3897,720 3893,746 3893,750 3891,768 3889,774 3885,800 3915,802 3961,806 3959,832 3985,844 3997,852 4005,854 4013,844 4019,838 4023,832 4031,816 4037,808 4063,812 4073,800 4077,788 4083,788 4093,790 4107,792 4119,796 4123,802 4123,822 4139,862 4146,877 4183,876 4189,878 4187,906 4223,940 4241,942 4253,908 4273,910 4277,940 4325,944 4329,944 4341,944 4349,946 4363,948 4371,952 4379,954 4389,958 4393,962 4397,970 4397,980 4385,986 4385,1000 4397,1000 4407,998 4421,976 4455,980 4465,962 4469,962 4483,968 4493,972 4497,976 4497,980 4495,990 4485,1020 4557,1024 4547,1056 4591,1060 4631,1064 4657,1066 4675,1068 4685,1088 4697,1106 4707,1118 4723,1120 4749,1122 4767,1124 4769,1130 4781,1156 4789,1174 4787,1178 4747,1208 4735,1218 4727,1224 4727,1228 4739,1240 4747,1248 4767,1246 4777,1244 4791,1224 4829,1224 4853,1222 4869,1222 4873,1200 4877,1192 4891,1192 4915,1194 4931,1196 4929,1216 4941,1216 4963,1216 4973,1214 4985,1210 4989,1192 5017,1186 5019,1148 5027,1146 5075,1138 5109,1128 5171,1132 5259,1140 5283,1140 5289,1140 5289,1124 5295,1096 5333,1098 5379,1100 5391,1102 5399,1106 5397,1124 5409,1126 5419,1128 5433,1126 5445,1126 5455,1088 5481,1090 5493,1076 5503,1050 5511,1050 5543,1056 5543,1072 5577,1078 5585,1102 5589,1128 5589,1136 5591,1140 5601,1144 5653,1158 5653,1206 5658,1206 5653,1226 5644,1234 5637,1246 5629,1251 5621,1258 5615,1275 5612,1288 5608,1301 5598,1303 5586,1306 5571,1307 5566,1311 5566,1321 5558,1321 5548,1319 5540,1324 5538,1333 5541,1340 5550,1344 5549,1352 5543,1362 5542,1367 5547,1372 5554,1375 5567,1377 5578,1379 5585,1382 5586,1391 5586,1405 5584,1420 5581,1439 5579,1447 5574,1449 5565,1449 5554,1449 5548,1446 5538,1445 5534,1448 5527,1463 5517,1480 5513,1489 5512,1493 5506,1492 5499,1491 5496,1492 5493,1501 5490,1514 5487,1532 5483,1547 5482,1558 5482,1573 5481,1577 5475,1578 5473,1581 5471,1588 5472,1593 5476,1597 5480,1596 5484,1599 5486,1604 5488,1609 5483,1620 5478,1629 5470,1646 5455,1660 5448,1665 5434,1670 5423,1681 5418,1693 5418,1703 5420,1715 5415,1720 5408,1727 5393,1735 5385,1744 5383,1756 5383,1768 5375,1797 5368,1817 5362,1832 5363,1846 5364,1853 5348,1844 5322,1838 5299,1834 5277,1830 5247,1825 5210,1819 5200,1823 5179,1845 5146,1840 5150,1816 5151,1799 5148,1787 5119,1779 5109,1784 5103,1796 5096,1811 5087,1838 5082,1848 5072,1851 5059,1850 5049,1845 5043,1843 5041,1835 5044,1826 5057,1801 5042,1799 5031,1798 5019,1799 4987,1798 4972,1799 4969,1804 4971,1823 4972,1831 4965,1836 4963,1843 4962,1849 4943,1850 4925,1848 4907,1848 4899,1851 4897,1862 4891,1870 4883,1875 4858,1874 4853,1872 4853,1861 4848,1858 4845,1857 4842,1856 4839,1855 4836,1855 4832,1854 4829,1853 4826,1852 4823,1852 4820,1851 4816,1850 4811,1850 4807,1849 4788,1848 4781,1849 4772,1850 4762,1850 4753,1851 4744,1852 4737,1852 4731,1853 4725,1854 4714,1854 4703,1855 4698,1856 4693,1857 4689,1857 4686,1858 4682,1859 4677,1861 4669,1864 4664,1867 4657,1870 4653,1872 4643,1877 4639,1878 4619,1868 4603,1863 4595,1863 4585,1862 4577,1862 4564,1862 4546,1860 4531,1858 4515,1857 4504,1855 4488,1851 4499,1843 4499,1835 4501,1820 4507,1811 4506,1795 4502,1779 4496,1764 4492,1750 4491,1729 4491,1716 4496,1705 4492,1696 4480,1684 4461,1671 4450,1665 4438,1658 4429,1658 4420,1660 4412,1663 4407,1670 4397,1669 4381,1668 4362,1664 4339,1660 4329,1654 4316,1647 4302,1636 4284,1623 4267,1611 4245,1595 4230,1586 4219,1580 4204,1572 4192,1567 4182,1562 4158,1552 4137,1544 4116,1537 4089,1531 4089,1524 4091,1516 4099,1513 4104,1510 4111,1497 4114,1487 4110,1474 4103,1454 4094,1448 4078,1449 4070,1447 4064,1446 4048,1440 4040,1438 4034,1441 4028,1448 4022,1451 4016,1452 4010,1440 4005,1433 3995,1428 3992,1416 3991,1404 3996,1383 3996,1366 4002,1355 4000,1346 3996,1338 3996,1324 3996,1310 3998,1306 4001,1300 4007,1295 4017,1286 4025,1277 4014,1275 4004,1268 4000,1265 3998,1261 3998,1258 4000,1250 4008,1240 4011,1235 4012,1230 4007,1225 4002,1224 3982,1223 3967,1217 3958,1204 3948,1183 3950,1171 3959,1158 3962,1151 3964,1140 3965,1130 3956,1122 3946,1125 3944,1134 3932,1141 3922,1148 3911,1152 3898,1150 3891,1147 3885,1138 3889,1123 3900,1110 3905,1092 3900,1071 3901,1050 3899,1038 3896,1030 3894,1019 3889,1009 3881,998 3874,986 3866,980 3853,977 3838,979 3820,984 3799,988 3767,992 3748,995 3735,996 3717,993 3691,989 3671,985 3655,986 3644,994 3635,1004 3626,1011 3617,1012 3602,1009 3598,999 3599,987 3593,978 3580,972 3564,969 3542,967 3526,967 3516,967 3504,966 3488,964 3479,964 3457,962 3417,953 3406,943 3393,940 3383,942 3380,955 3382,969 3370,983 3348,983 3327,979 3309,972 3300,959 3289,954 3277,952 3267,963 3256,981 3246,989 3237,995 3222,996 3208,1004 3196,1002 3189,1000 3176,996 3162,998 3153,1001 3141,1007 3135,1018 3127,1038 3125,1053 3121,1070 3117,1082 3109,1091 3099,1097 3087,1094 3082,1103 3082,1113 3070,1110 3049,1112 3032,1114 3013,1123 3005,1136 2999,1156 2999,1166 2987,1194 2976,1208 2971,1226 2970,1246 2972,1259 2972,1268 2974,1280 2976,1294 2979,1313 2978,1324 2977,1332 2964,1343 2959,1351 2939,1365 2930,1376 2917,1372 2906,1364 2895,1364 2882,1371 2880,1377 2875,1383 2874,1395 2870,1407 2863,1421 2851,1426 2827,1428 2809,1412 2794,1395 2783,1381 2766,1370 2749,1374 2731,1372 2688,1375 2676,1367 2675,1351 2676,1344 2684,1340 2700,1338 2702,1324 2697,1317 2686,1301 2668,1291 2666,1276 2655,1269 2639,1272 2630,1278 2625,1271 2612,1272 2603,1286 2598,1297 2593,1302 2581,1305 2571,1303 2555,1299 2536,1296 2520,1297 2511,1298 2499,1299 2495,1308 2498,1317 2490,1324 2476,1327 2463,1326 2450,1325 2429,1312 2420,1307 2399,1292 2384,1289 2368,1288 2357,1290 2355,1305 2353,1322 2354,1335 2355,1342 2368,1352 2368,1368 2366,1374 2363,1390 2368,1411 2383,1414 2398,1414 2421,1416 2437,1419 2446,1428 2440,1450 2466,1462 2478,1480 2486,1504 2492,1516 2521,1528 2535,1541 2546,1558 2562,1569 2590,1574 2599,1589 2597,1603 2590,1603 2588,1612 2584,1623 2578,1625 2571,1627 2572,1632 2569,1636 2571,1641 2567,1647 2563,1648 2561,1652 2564,1653 2567,1655 2568,1660 2565,1665 2561,1662 2557,1659 2549,1663 2542,1668 2535,1671 2532,1674 2533,1678 2535,1681 2529,1682 2519,1682 2512,1679 2503,1679 2496,1680 2490,1678 2487,1678 2485,1681 2485,1685 2481,1685 2475,1685 2472,1687 2468,1690 2462,1691 2457,1688 2452,1687 2452,1691 2452,1694 2449,1693 2444,1694 2440,1697 2440,1700 2440,1703 2437,1708 2436,1720 2436,1724 2433,1729 2424,1730 2416,1729 2413,1731 2418,1734 2415,1738 2410,1740 2404,1738 2398,1737 2395,1738 2395,1741 2393,1745 2388,1746 2385,1749 2383,1755 2383,1763 2385,1768 2392,1777 2395,1782 2395,1787 2390,1794 2388,1802 2386,1808 2384,1816 2382,1823 2380,1828 2375,1833 2372,1838 2367,1839 2361,1841 2358,1845 2358,1851 2360,1857 2361,1860 2360,1863 2358,1867 2358,1873 2361,1876 2365,1877 2369,1879 2369,1882 2369,1890 2373,1894 2380,1896 2384,1898 2386,1908 2386,1913 2384,1917 2376,1919 2365,1924 2357,1926 2352,1928 2347,1931 2342,1932 2334,1930 2323,1927 2312,1925 2306,1926 2302,1928 2302,1932 2302,1939 2299,1942 2295,1946 2291,1948 2283,1949 2277,1949 2274,1953 2273,1957 2269,1959 2266,1958 2262,1955 2259,1953 2251,1953 2245,1956 2242,1961 2242,1965 2242,1968 2238,1967 2233,1968 2227,1971 2226,1975 2223,1976 2219,1973 2214,1971 2214,1966 2214,1959 2209,1958 2205,1961 2201,1964 2200,1968 2203,1976 2204,1982 2198,1986 2193,1991 2190,1995 2191,1999 2194,2006 2193,2010 2192,2014 2193,2017 2194,2020 2195,2023 2191,2026 2190,2030 2186,2031 2178,2032 2169,2028 2160,2021 2153,2015 2147,2013 2142,2013 2135,2011 2128,2007 2128,2002 2127,1996 2120,1992 2111,1990 2106,1987 2105,1984 2106,1980 2106,1975 2102,1974 2099,1975 2097,1981 2096,1985 2094,1988 2091,1988 2087,1987 2081,1982 2075,1978 2069,1976 2063,1978 2061,1982 2056,1984 2057,1977 2053,1978 2048,1979 2034,1979 2030,1975 2037,1964 2032,1959 2024,1953 2019,1954 2017,1955 2018,1949 2015,1945 2009,1946 1997,1952 1984,1963 1978,1971 1965,1977 1954,1981 1937,1982 1925,1979 1915,1971 1915,1962 1920,1953 1935,1940 1943,1932 1943,1918 1927,1907 1896,1893 1875,1883 1861,1869 1852,1847 1844,1834 1844,1824 1852,1815 1867,1808 1881,1797 1893,1788 1903,1782 1905,1776 1904,1763 1896,1758 1890,1747 1888,1736 1885,1722 1879,1705 1863,1679 1858,1657 1851,1641 1844,1638 1832,1645 1824,1651 1815,1656 1802,1659 1794,1656 1791,1650 1795,1646 1802,1639 1812,1620 1828,1592 1838,1569 1845,1558 1843,1545 1835,1541 1820,1535 1816,1528 1814,1521 1815,1513 1817,1506 1810,1499 1806,1491 1806,1484 1811,1482 1823,1478 1834,1473 1845,1464 1857,1452 1867,1438 1876,1432 1889,1426 1902,1424 1907,1423 1907,1419 1911,1412 1916,1413 1922,1413 1931,1410 1934,1406 1935,1399 1931,1397 1917,1394 1906,1389 1905,1386 1909,1374 1917,1358 1920,1349 1927,1339 1934,1333 1963,1315 1972,1304 1978,1300 1979,1294 1977,1287 1971,1274 1963,1261 1952,1253 1939,1252 1920,1247 1903,1239 1888,1224 1872,1212 1858,1199 1848,1187 1835,1177 1828,1179 1823,1179 1814,1184 1806,1186 1794,1189 1788,1184 1790,1176 1791,1164 1787,1161 1768,1160 1756,1156 1745,1145 1719,1134 1691,1121 1670,1111 1662,1105 1656,1096 1668,1078 1676,1068 1691,1064 1700,1063 1713,1051 1723,1043 1737,1041 1740,1038 1740,1029 1741,1020 1746,1012 1753,1001 1764,973 1781,946 1798,915 1812,889 1816,882 1825,880 1833,879 1840,875 1846,868 1849,849 1854,832 1857,823 1857,816 1854,810 1844,807 1837,804 1834,794 1833,780 1831,771 1824,760 1818,748 1811,740 1808,724 1809,711 1816,706 1820,697 1825,688 1827,674 1826,666 1820,660 1809,656 1795,654 1781,649 1774,642 1769,634 1764,620 1761,612 1761,605 1762,602 1771,602 1780,604 1783,601 1785,597 1784,585 1785,576 1776,561 1767,545 1759,527 1745,509 1733,495 1732,484 1732,468 1727,458 1717,449 1704,435 1697,425 1699,412 1702,404 1708,397 1713,397 1717,404 1719,416 1725,426 1733,431 1742,435 1747,432 1748,427 1745,417 1745,408 1750,395 1757,378 1762,377 1770,380 1780,388 1794,395 1806,394 1818,388 1830,386 1844,381 1849,371 1852,350 1849,338 1842,327 1832,315 1824,299 1821,287 1807,279 1792,274 1784,275 1777,282 1772,286 1765,287 1753,285 1737,280 1725,270 1718,263 1714,253 1714,243 1719,235 1730,225 1735,222 1737,216 1735,213 1728,200 1721,189 1713,174 1706,172 1697,172 1691,175 1681,181 1677,188 1671,195 1668,199 1672,204 1680,207 1680,213 1676,218 1669,224 1658,231 1650,233 1639,233 1625,233 1617,234 1605,235 1600,238 1591,246 1585,250 1579,252 1571,250 1560,244 1552,242 1524,242 1510,230 1516,222 1518,214 1514,164 1519,158 1529,150 1534,149 1540,147 1546,147 1552,146 1560,147 1567,148 1572,149 1577,150 1580,151 1586,152 1592,152 1604,152 1609,152 1613,151 1620,149 1627,146 1632,140 1634,137 1635,132 1635,122 1634,118 1632,114 1629,109 1621,101 1611,94 1603,89 1588,79 1580,71 1578,66 1577,63 1578,60 1582,56 1588,51 1594,49 1598,47 1602,47 1606,46 1609,46 1615,45 1620,46 1625,47 1635,50 1639,51 1647,55 1656,61 1665,69 1674,78 1678,86 1681,92 1685,102 1688,107 1689,110 1692,115 1694,120 1697,127 1709,149 1718,163 1724,174 1737,195 1741,203 1745,208 1748,213 1751,218 1755,223 1761,233 1772,246 1781,251 1789,253 1793,254 1798,254 1804,251 1806,248 1805,237 1805,232 1804,227 1803,222 1803,216 1804,207 1805,200 1806,196 1808,192 1813,187 1818,183 1825,180 1835,177 1842,172 1843,169 1842,165 1824,146 1820,141 1819,138 1817,133 1817,130 1816,127 1814,122 1810,115 1808,112 1795,110 1788,109 1776,108 1773,107 1767,107 1763,106 1753,103 1747,100 1740,96 1731,86 1727,79 1725,72 1725,69 1726,65 1725,60 1725,57 1726,53 1730,46 1734,41 1740,39 1745,37 1748,37 1755,36 1762,37 " class="polyStyle" id="410522" style="fill:#ee8b94"/>
<path d="" class="polyStyle" id="130427" style="fill:#f6f67b"/>
<path d="" class="polyStyle" id="130121" style="fill:#ee8b94"/>
<path d="" class="polyStyle" id="610823" style="fill:#fbe6ef"/>
<path d="" class="polyStyle" id="130225" style="fill:#fbe6ef"/>
<path d="" class="polyStyle" id="130322" style="fill:#d4ecb2"/>
<path d="" class="polyStyle" id="653130" style="fill:#f6f67b"/>
<path d="" class="polyStyle" id="130822" style="fill:#fbe6ef"/>
<path d="" class="polyStyle" id="211221" style="fill:#f6f67b"/>
<path d="" class="polyStyle" id="210921" style="fill:#f6f67b"/>
<path d="" class="polyStyle" id="150223" style="fill:#f8c67d"/>
<path d="" class="polyStyle" id="220422" style="fill:#d4ecb2"/>
<path d="" class="polyStyle" id="340721" style="fill:#f6f67b"/>
<path d="" class="polyStyle" id="510824" style="fill:#d4ecb2"/>
<path d="" class="polyStyle" id="610324" style="fill:#f6f67b"/>
<path d="" class="polyStyle" id="530722" style="fill:#ee8b94"/>
<path d="" class="polyStyle" id="340823" style="fill:#d4ecb2"/>
<path d="" class="polyStyle" id="620825" style="fill:#d4ecb2"/>
<path d="" class="polyStyle" id="421125" style="fill:#ee8b94"/>
<path d="" class="polyStyle" id="210281" style="fill:#ee8b94"/>
<path d="" class="polyStyle" id="440883" style="fill:#f6f67b"/>
<path d="" class="polyStyle" id="469006" style="fill:#d4ecb2"/>
<path d="" class="polyStyle" id="469002" style="fill:#ee8b94"/>
<path d="" class="polyStyle" id="469005" style="fill:#fbe6ef"/>
<path d="" class="polyStyle" id="440882" style="fill:#ee8b94"/>
<path d="" class="polyStyle" id="450681" style="fill:#ee8b94"/>
<path d="" class="polyStyle" id="441581" style="fill:#d4ecb2"/>
<path d="" class="polyStyle" id="421087" style="fill:#ee8b94"/>
<path d="" class="polyStyle" id="420984" style="fill:#fbe6ef"/>
<path d="" class="polyStyle" id="420582" style="fill:#ee8b94"/>
<polygon points="618,3 622,7 627,13 633,21 649,40 663,51 670,54 676,56 682,56 689,56 692,55 706,51 717,45 727,41 731,40 737,41 741,45 743,50 741,62 742,75 743,79 749,83 761,86 764,87 768,87 771,88 775,89 784,91 792,92 797,93 801,94 805,95 808,96 818,100 824,103 835,112 841,120 850,131 858,137 863,138 866,139 870,140 879,141 883,142 890,145 897,148 908,158 925,173 930,175 936,177 951,176 956,176 959,175 970,173 979,171 987,169 991,168 995,167 999,166 1002,166 1008,165 1029,166 1035,167 1040,168 1044,169 1048,170 1051,171 1056,171 1059,172 1064,173 1067,174 1072,175 1075,176 1079,176 1082,177 1086,178 1091,179 1094,180 1098,181 1103,181 1110,182 1131,182 1135,179 1136,176 1134,172 1124,163 1111,150 1105,143 1099,134 1097,128 1095,123 1094,115 1095,106 1096,102 1097,98 1100,92 1104,88 1115,83 1125,80 1129,80 1132,79 1142,78 1149,77 1155,76 1162,76 1168,75 1175,75 1181,74 1185,73 1190,73 1194,72 1198,72 1205,71 1212,70 1216,69 1220,69 1229,67 1232,66 1236,66 1239,65 1246,64 1254,63 1257,63 1262,66 1280,79 1299,93 1312,103 1321,110 1336,119 1338,120 1339,133 1346,168 1352,184 1376,196 1376,210 1380,244 1388,258 1395,262 1400,262 1406,262 1420,262 1424,260 1428,252 1432,244 1440,238 1450,236 1460,236 1464,238 1482,238 1500,234 1510,230 1524,242 1552,242 1560,244 1571,250 1579,252 1585,250 1591,246 1600,238 1605,235 1617,234 1625,233 1639,233 1650,233 1658,231 1669,224 1676,218 1680,213 1680,207 1672,204 1668,199 1671,195 1677,188 1681,181 1691,175 1697,172 1706,172 1713,174 1721,189 1728,200 1735,213 1737,216 1735,222 1730,225 1719,235 1714,243 1714,253 1718,263 1725,270 1737,280 1753,285 1765,287 1772,286 1777,282 1784,275 1792,274 1807,279 1821,287 1824,299 1832,315 1842,327 1849,338 1852,350 1849,371 1844,381 1830,386 1818,388 1806,394 1794,395 1780,388 1770,380 1762,377 1757,378 1750,395 1745,408 1745,417 1748,427 1747,432 1742,435 1733,431 1725,426 1719,416 1717,404 1713,397 1708,397 1702,404 1699,412 1697,425 1704,435 1717,449 1727,458 1732,468 1732,484 1733,495 1745,509 1759,527 1767,545 1776,561 1785,576 1784,585 1785,597 1783,601 1780,604 1771,602 1762,602 1761,605 1761,612 1764,620 1769,634 1774,642 1781,649 1795,654 1809,656 1820,660 1826,666 1827,674 1825,688 1820,697 1816,706 1809,711 1808,724 1811,740 1818,748 1824,760 1831,771 1833,780 1834,794 1837,804 1844,807 1854,810 1857,816 1857,823 1854,832 1849,849 1846,868 1840,875 1833,879 1825,880 1816,882 1812,889 1798,915 1781,946 1764,973 1753,1001 1746,1012 1741,1020 1740,1029 1740,1038 1737,1041 1723,1043 1713,1051 1700,1063 1691,1064 1676,1068 1668,1078 1656,1096 1662,1105 1670,1111 1691,1121 1719,1134 1745,1145 1756,1156 1768,1160 1787,1161 1791,1164 1790,1176 1788,1184 1794,1189 1806,1186 1814,1184 1823,1179 1828,1179 1835,1177 1848,1187 1858,1199 1872,1212 1888,1224 1903,1239 1920,1247 1939,1252 1952,1253 1963,1261 1971,1274 1977,1287 1979,1294 1978,1300 1972,1304 1963,1315 1934,1333 1927,1339 1920,1349 1917,1358 1909,1374 1905,1386 1906,1389 1917,1394 1931,1397 1935,1399 1934,1406 1931,1410 1922,1413 1916,1413 1911,1412 1907,1419 1907,1423 1902,1424 1889,1426 1876,1432 1867,1438 1857,1452 1845,1464 1834,1473 1823,1478 1811,1482 1806,1484 1806,1491 1810,1499 1817,1506 1815,1513 1814,1521 1816,1528 1820,1535 1835,1541 1843,1545 1845,1558 1838,1569 1828,1592 1812,1620 1802,1639 1795,1646 1791,1650 1794,1656 1802,1659 1815,1656 1824,1651 1832,1645 1844,1638 1851,1641 1858,1657 1863,1679 1879,1705 1885,1722 1888,1736 1890,1747 1896,1758 1904,1763 1905,1776 1903,1782 1893,1788 1881,1797 1867,1808 1852,1815 1844,1824 1844,1834 1852,1847 1861,1869 1875,1883 1896,1893 1927,1907 1943,1918 1943,1932 1935,1940 1920,1953 1915,1962 1915,1971 1925,1979 1937,1982 1954,1981 1965,1977 1978,1971 1984,1963 1997,1952 2009,1946 2015,1945 2018,1949 2017,1955 2013,1958 2005,1959 1993,1970 1994,1980 1992,1987 1987,2000 1995,2022 1988,2057 1992,2066 1988,2073 1996,2086 1990,2103 2000,2125 2010,2131 2024,2135 2033,2142 2039,2150 2035,2156 2031,2161 2035,2165 2035,2170 2033,2180 2042,2178 2049,2179 2055,2175 2064,2176 2069,2181 2074,2177 2080,2176 2086,2183 2115,2183 2120,2193 2147,2207 2173,2215 2202,2229 2227,2244 2248,2258 2256,2272 2257,2279 2258,2285 2264,2289 2265,2297 2259,2306 2248,2314 2237,2317 2234,2321 2233,2327 2238,2332 2254,2329 2258,2335 2257,2341 2249,2350 2247,2362 2216,2371 2215,2379 2214,2390 2213,2400 2227,2403 2226,2408 2220,2409 2211,2406 2209,2409 2210,2415 2205,2423 2214,2435 2200,2449 2188,2465 2184,2476 2166,2480 2156,2478 2146,2480 2130,2486 2123,2489 2105,2488 2101,2480 2099,2476 2092,2472 2086,2474 2093,2478 2093,2482 2092,2487 2097,2496 2093,2506 2100,2514 2088,2518 2081,2534 2074,2539 2058,2532 2048,2535 2045,2539 2042,2546 2037,2549 2031,2540 2021,2541 2020,2534 2009,2535 1993,2546 1981,2545 1966,2547 1961,2537 1953,2533 1941,2535 1927,2542 1897,2536 1879,2537 1875,2541 1879,2543 1885,2542 1884,2547 1884,2551 1890,2557 1893,2566 1899,2576 1904,2582 1901,2588 1904,2592 1932,2603 1941,2604 1937,2611 1942,2617 1939,2629 1940,2632 1961,2640 1969,2651 1973,2665 1974,2679 1992,2687 1999,2701 2014,2704 2020,2709 2022,2715 2019,2719 2010,2722 1993,2719 1983,2716 1983,2706 1977,2702 1970,2714 1972,2718 1978,2725 1985,2731 1997,2735 2003,2736 2005,2739 2005,2745 1996,2754 1977,2774 1972,2790 1958,2800 1953,2821 1951,2834 1951,2841 1964,2849 1971,2847 1987,2848 2002,2853 2010,2848 2018,2847 2031,2844 2048,2847 2055,2845 2059,2842 2066,2841 2078,2849 2080,2846 2070,2834 2070,2830 2089,2826 2104,2821 2117,2822 2132,2820 2152,2811 2183,2804 2206,2802 2222,2803 2228,2798 2232,2805 2238,2807 2245,2808 2255,2810 2243,2811 2236,2813 2230,2819 2227,2829 2227,2837 2235,2841 2242,2844 2245,2847 2243,2853 2236,2852 2227,2850 2224,2854 2220,2863 2220,2868 2227,2868 2230,2865 2238,2868 2246,2870 2246,2874 2235,2875 2234,2880 2235,2886 2238,2892 2240,2899 2236,2906 2237,2911 2245,2912 2248,2916 2248,2921 2236,2922 2226,2916 2212,2912 2211,2916 2217,2919 2214,2922 2209,2923 2208,2927 2212,2929 2213,2933 2197,2933 2187,2935 2177,2943 2172,2955 2177,2964 2198,2994 2182,3014 2190,3029 2182,3045 2154,3052 2144,3060 2144,3071 2139,3080 2112,3089 2090,3089 2083,3096 2077,3093 2065,3100 2053,3107 2023,3125 2012,3133 2006,3143 1984,3155 1972,3156 1979,3166 1972,3172 1958,3180 1941,3200 1907,3197 1887,3194 1882,3202 1874,3205 1874,3214 1850,3212 1837,3213 1837,3228 1832,3238 1837,3253 1827,3261 1826,3282 1824,3304 1792,3321 1763,3335 1736,3345 1713,3369 1694,3385 1682,3398 1653,3386 1625,3379 1618,3359 1595,3341 1567,3325 1544,3314 1517,3310 1509,3316 1500,3337 1489,3356 1488,3365 1496,3385 1491,3399 1480,3406 1451,3420 1422,3426 1394,3426 1376,3418 1364,3420 1356,3435 1348,3444 1331,3441 1303,3422 1273,3397 1257,3393 1203,3412 1189,3423 1172,3422 1132,3419 1115,3426 1079,3438 1047,3445 1013,3443 990,3445 960,3449 934,3450 895,3452 881,3461 855,3466 828,3464 791,3463 769,3454 759,3446 748,3432 739,3413 735,3400 744,3392 764,3393 775,3382 790,3369 812,3360 814,3355 804,3330 817,3293 831,3270 841,3246 852,3217 858,3199 854,3174 856,3164 870,3153 884,3140 887,3129 885,3116 876,3115 855,3128 833,3130 809,3097 778,3071 763,3041 739,3019 712,3012 662,3003 644,2995 639,2986 645,2957 642,2936 637,2923 610,2910 606,2903 607,2893 626,2866 626,2858 615,2825 595,2803 577,2787 576,2749 567,2743 554,2740 536,2743 516,2741 495,2732 481,2717 459,2715 443,2730 429,2738 400,2736 380,2721 377,2693 389,2674 375,2653 345,2645 318,2648 290,2652 260,2655 233,2644 207,2638 178,2637 149,2644 141,2640 131,2634 127,2624 129,2612 129,2598 133,2584 149,2574 155,2562 151,2560 143,2558 133,2556 75,2562 71,2560 59,2556 55,2554 49,2548 45,2546 41,2542 31,2536 25,2528 23,2522 21,2515 23,2510 29,2508 35,2506 37,2502 35,2492 35,2484 37,2474 37,2462 31,2452 21,2445 25,2440 29,2436 41,2434 51,2432 55,2430 63,2426 89,2398 93,2376 79,2356 63,2334 59,2320 63,2312 71,2302 83,2300 93,2294 98,2288 100,2278 94,2262 84,2248 62,2228 62,2218 62,2208 78,2198 86,2194 100,2190 106,2186 118,2174 124,2160 126,2154 126,2142 126,2118 124,2108 120,2102 108,2090 100,2084 94,2072 92,2064 92,2060 94,2048 96,2040 102,2026 90,2020 86,2018 80,2016 69,2007 72,1998 74,1994 76,1982 72,1976 64,1972 34,1960 18,1952 16,1948 6,1924 4,1918 0,1908 2,1900 6,1896 24,1890 30,1892 42,1898 48,1898 62,1890 66,1868 74,1856 94,1850 102,1850 116,1856 130,1866 148,1880 158,1890 172,1908 178,1912 184,1914 200,1912 246,1902 286,1894 322,1884 348,1878 358,1872 358,1862 350,1838 348,1830 344,1820 322,1804 314,1800 296,1792 276,1782 256,1772 250,1762 244,1754 244,1748 250,1746 266,1746 290,1746 310,1744 358,1736 364,1732 368,1728 366,1724 358,1720 332,1708 326,1706 294,1700 264,1696 204,1696 170,1698 164,1696 154,1694 148,1692 142,1690 138,1688 134,1676 132,1656 138,1626 140,1622 142,1614 150,1604 164,1594 178,1582 186,1578 224,1568 244,1560 264,1554 270,1552 276,1540 282,1526 280,1516 270,1468 270,1460 238,1360 232,1338 222,1326 210,1318 194,1310 188,1304 188,1294 204,1274 206,1264 198,1252 152,1222 119,1207 118,1202 122,1196 130,1192 140,1188 146,1188 183,1180 196,1186 208,1202 262,1198 304,1198 372,1180 386,1168 384,1158 376,1154 364,1152 360,1144 356,1130 358,1118 370,1100 370,1088 362,1082 324,1066 306,1064 298,1064 280,1068 264,1074 256,1076 252,1078 245,1075 240,1062 240,1052 240,1042 237,1031 228,1028 220,1026 212,1024 206,1024 180,1018 156,1012 148,1012 140,1010 128,1004 122,998 98,970 93,959 100,956 106,954 120,956 146,962 158,958 164,940 176,942 184,944 200,958 212,958 236,954 260,946 276,942 300,932 318,926 330,920 342,911 338,906 318,888 292,872 274,858 270,856 270,852 274,844 282,838 300,834 322,832 360,834 368,832 366,828 351,790 344,774 340,766 328,758 324,756 300,754 282,752 256,752 244,754 238,758 222,774 212,780 204,780 199,777 198,770 200,764 206,760 214,746 218,736 220,730 228,722 237,718 272,710 276,708 286,704 296,702 306,698 316,692 356,664 366,654 366,648 350,614 338,592 334,582 332,574 334,564 338,554 344,544 350,538 360,538 368,538 389,548 404,546 414,536 422,522 422,518 418,486 416,480 402,454 398,444 398,438 396,432 397,425 396,414 400,402 400,398 400,390 404,382 404,378 402,370 384,354 378,344 378,332 386,328 402,318 406,316 422,316 428,318 436,324 446,322 454,320 464,314 470,310 476,306 480,304 486,290 492,282 500,270 510,258 518,250 536,238 548,220 546,212 538,200 532,196 524,194 514,192 506,188 486,176 466,152 464,146 468,138 486,124 512,102 540,68 554,50 556,42 552,40 556,32 560,24 562,21 567,15 574,9 581,6 587,4 592,2 598,1 602,1 605,0 611,1 " class="polyStyle" id="410581" style="fill:#f6f67b"/>
<path d="" class="polyStyle" id="370282" style="fill:#f6f67b"/>
<path d="" class="polyStyle" id="371083" style="fill:#f6f67b"/>
<path d="" class="polyStyle" id="371082" style="fill:#fbe6ef"/>
<path d="" class="polyStyle" id="652801" style="fill:#f8c67d"/>
<path d="" class="polyStyle" id="654301" style="fill:#ee8b94"/>
<path d="" class="polyStyle" id="370687" style="fill:#ee8b94"/>
<path d="" class="polyStyle" id="371482" style="fill:#d4ecb2"/>
<path d="" class="polyStyle" id="421081" style="fill:#fbe6ef"/>
<path d="" class="polyStyle" id="429006" style="fill:#f6f67b"/>
<path d="" class="polyStyle" id="440982" style="fill:#d4ecb2"/>
<path d="" class="polyStyle" id="421181" style="fill:#d4ecb2"/>
<path d="" class="polyStyle" id="321181" style="fill:#d4ecb2"/>
<path d="" class="polyStyle" id="659007" style="fill:#ee8b94"/>
<path d="" class="polyStyle" id="652701" style="fill:#fbe6ef"/>
<path d="" class="polyStyle" id="210781" style="fill:#fbe6ef"/>
<path d="" class="polyStyle" id="460204" style="fill:#f6f67b"/>
<path d="" class="polyStyle" id="210211" style="fill:#f6f67b"/>
<path d="" class="polyStyle" id="450512" style="fill:#ee8b94"/>
<path d="" class="polyStyle" id="450602" style="fill:#fbe6ef"/>
<path d="" class="polyStyle" id="440404" style="fill:#ee8b94"/>
<path d="" class="polyStyle" id="440403" style="fill:#f6f67b"/>
<path d="" class="polyStyle" id="441502" style="fill:#f6f67b"/>
<path d="" class="polyStyle" id="431002" style="fill:#d4ecb2"/>
<path d="" class="polyStyle" id="500107" style="fill:#fbe6ef"/>
<path d="" class="polyStyle" id="430611" style="fill:#d4ecb2"/>
<path d="" class="polyStyle" id="511304" style="fill:#fbe6ef"/>
<path d="" class="polyStyle" id="340711" style="fill:#ee8b94"/>
<path d="" class="polyStyle" id="320118" style="fill:#f6f67b"/>
<path d="" class="polyStyle" id="510704" style="fill:#f6f67b"/>
<path d="" class="polyStyle" id="411502" style="fill:#ee8b94"/>
<path d="" class="polyStyle" id="320302" style="fill:#d4ecb2"/>
<polygon points="3907,1275 3926,1276 3952,1278 3970,1279 3984,1280 3989,1288 3982,1303 3979,1320 3974,1330 3975,1339 3979,1351 3986,1358 3990,1351 3990,1344 3991,1334 3996,1310 3996,1324 3996,1338 4000,1346 4002,1355 3996,1366 3996,1383 3991,1404 3992,1416 3995,1428 4005,1433 4010,1440 4016,1452 4022,1451 4028,1448 4034,1441 4040,1438 4048,1440 4064,1446 4070,1447 4078,1449 4094,1448 4103,1454 4110,1474 4114,1487 4111,1497 4104,1510 4099,1513 4091,1516 4089,1524 4089,1531 4116,1537 4137,1544 4158,1552 4182,1562 4192,1567 4204,1572 4219,1580 4230,1586 4245,1595 4267,1611 4284,1623 4302,1636 4316,1647 4329,1654 4339,1660 4362,1664 4381,1668 4397,1669 4407,1670 4412,1663 4420,1660 4429,1658 4438,1658 4450,1665 4461,1671 4480,1684 4492,1696 4496,1705 4491,1716 4491,1729 4492,1750 4496,1764 4502,1779 4506,1795 4507,1811 4501,1820 4499,1835 4499,1843 4488,1851 4476,1865 4468,1872 4461,1882 4454,1888 4443,1885 4428,1883 4415,1883 4404,1884 4395,1890 4389,1893 4373,1892 4360,1888 4357,1885 4349,1881 4340,1874 4331,1869 4320,1862 4307,1860 4305,1869 4291,1872 4277,1875 4266,1878 4247,1879 4235,1880 4221,1884 4197,1884 4178,1887 4159,1889 4140,1896 4125,1901 4108,1912 4096,1920 4079,1927 4056,1931 4043,1930 4027,1929 4010,1922 4002,1917 3996,1922 3987,1926 3969,1930 3966,1938 3964,1945 3960,1954 3951,1958 3938,1971 3931,1978 3928,1981 3925,1987 3920,1990 3914,1993 3906,1996 3894,1997 3883,1997 3874,1997 3864,1995 3858,1995 3851,1993 3841,1994 3829,1999 3817,2004 3810,2005 3797,2007 3784,2005 3771,2002 3762,2000 3759,1990 3757,1979 3747,1976 3729,1978 3725,1980 3719,1986 3714,1987 3703,1982 3689,1979 3679,1978 3669,1979 3659,1979 3647,1980 3645,1988 3647,2000 3642,2012 3635,2020 3627,2027 3616,2033 3605,2036 3591,2038 3586,2038 3586,2020 3587,2000 3586,1973 3589,1949 3591,1926 3592,1905 3595,1884 3600,1863 3600,1839 3604,1825 3606,1806 3606,1786 3607,1765 3610,1744 3615,1724 3616,1708 3612,1695 3606,1679 3596,1656 3584,1631 3575,1620 3561,1604 3549,1584 3542,1568 3542,1550 3542,1533 3542,1516 3544,1495 3544,1474 3542,1456 3541,1428 3539,1406 3537,1389 3538,1377 3539,1373 3536,1373 3532,1364 3532,1349 3532,1339 3542,1339 3552,1340 3559,1336 3560,1321 3565,1311 3574,1308 3590,1308 3614,1308 3635,1308 3649,1308 3657,1303 3671,1298 3694,1298 3710,1298 3717,1295 3719,1288 3722,1278 3735,1276 3775,1273 3825,1273 3867,1275 " class="polyStyle" id="410502" style="fill:#f6f67b"/>
<polygon points="3526,967 3542,967 3564,969 3580,972 3593,978 3599,987 3598,999 3602,1009 3617,1012 3626,1011 3635,1004 3644,994 3655,986 3671,985 3691,989 3717,993 3735,996 3748,995 3767,992 3799,988 3820,984 3838,979 3853,977 3866,980 3874,986 3881,998 3889,1009 3894,1019 3896,1030 3899,1038 3901,1050 3900,1071 3905,1092 3900,1110 3889,1123 3885,1138 3891,1147 3898,1150 3911,1152 3922,1148 3932,1141 3944,1134 3946,1125 3956,1122 3965,1130 3964,1140 3962,1151 3959,1158 3950,1171 3948,1183 3958,1204 3967,1217 3982,1223 4002,1224 4007,1225 4012,1230 4011,1235 4008,1240 4000,1250 3998,1258 3998,1261 4000,1265 4004,1268 4014,1275 4025,1277 4017,1286 4007,1295 4001,1300 3998,1306 3996,1310 3991,1334 3990,1344 3990,1351 3986,1358 3979,1351 3975,1339 3974,1330 3979,1320 3982,1303 3989,1288 3984,1280 3970,1279 3952,1278 3926,1276 3907,1275 3867,1275 3825,1273 3775,1273 3735,1276 3722,1278 3719,1288 3717,1295 3710,1298 3694,1298 3671,1298 3657,1303 3649,1308 3635,1308 3614,1308 3590,1308 3574,1308 3565,1311 3560,1321 3559,1336 3552,1340 3542,1339 3532,1339 3532,1331 3531,1294 3531,1275 3529,1259 3529,1236 3529,1216 3525,1204 3520,1186 3511,1159 3506,1133 3502,1113 3500,1089 3500,1069 3500,1045 3501,1025 3502,1008 3505,994 3506,983 3504,966 3516,967 " class="polyStyle" id="410503" style="fill:#d4ecb2"/>
<polygon points="3417,953 3457,962 3479,964 3488,964 3504,966 3506,983 3505,994 3502,1008 3501,1025 3500,1045 3500,1069 3500,1089 3502,1113 3506,1133 3511,1159 3520,1186 3525,1204 3529,1216 3529,1236 3529,1259 3531,1275 3531,1294 3532,1331 3532,1339 3532,1349 3532,1364 3536,1373 3532,1373 3506,1371 3485,1371 3476,1370 3472,1364 3472,1349 3472,1329 3472,1315 3471,1306 3464,1304 3449,1303 3429,1303 3409,1303 3386,1303 3355,1305 3349,1310 3349,1320 3349,1333 3349,1346 3349,1360 3349,1371 3342,1374 3334,1370 3330,1360 3330,1344 3322,1338 3315,1335 3304,1333 3289,1331 3269,1330 3255,1328 3247,1318 3239,1306 3231,1304 3221,1308 3205,1305 3190,1300 3177,1300 3171,1309 3164,1315 3160,1310 3155,1305 3147,1310 3139,1313 3130,1315 3124,1321 3111,1318 3105,1321 3100,1310 3096,1301 3089,1294 3072,1293 3052,1289 3036,1289 3027,1298 3021,1304 3016,1308 3012,1314 3011,1319 3006,1325 2995,1325 2978,1324 2979,1313 2976,1294 2974,1280 2972,1268 2972,1259 2970,1246 2971,1226 2976,1208 2987,1194 2999,1166 2999,1156 3005,1136 3013,1123 3032,1114 3049,1112 3070,1110 3082,1113 3082,1103 3087,1094 3099,1097 3109,1091 3117,1082 3121,1070 3125,1053 3127,1038 3135,1018 3141,1007 3153,1001 3162,998 3176,996 3189,1000 3196,1002 3208,1004 3222,996 3237,995 3246,989 3256,981 3267,963 3277,952 3289,954 3300,959 3309,972 3327,979 3348,983 3370,983 3382,969 3380,955 3383,942 3393,940 3406,943 " class="polyStyle" id="410505" style="fill:#fbe6ef"/>
<path d="" class="polyStyle" id="140311" style="fill:#ee8b94"/>
<path d="" class="polyStyle" id="610802" style="fill:#ee8b94"/>
<path d="" class="polyStyle" id="120116" style="fill:#f6f67b"/>
<path d="" class="polyStyle" id="130303" style="fill:#fbe6ef"/>
<path d="" class="polyStyle" id="140211" style="fill:#f6f67b"/>
<path d="" class="polyStyle" id="150207" style="fill:#fbe6ef"/>
<path d="" class="polyStyle" id="211403" style="fill:#f6f67b"/>
<path d="" class="polyStyle" id="150802" style="fill:#f8c67d"/>
<path d="" class="polyStyle" id="210112" style="fill:#ee8b94"/>
<path d="" class="polyStyle" id="230406" style="fill:#d4ecb2"/>
<path d="" class="polyStyle" id="110113" style="fill:#fbe6ef"/>
<path d="" class="polyStyle" id="341702" style="fill:#fbe6ef"/>
<polygon points="3539,1373 3538,1377 3537,1389 3539,1406 3541,1428 3542,1456 3544,1474 3544,1495 3542,1516 3542,1533 3542,1550 3542,1568 3549,1584 3561,1604 3575,1620 3584,1631 3596,1656 3606,1679 3612,1695 3616,1708 3615,1724 3610,1744 3607,1765 3606,1786 3606,1806 3604,1825 3600,1839 3600,1863 3595,1884 3592,1905 3591,1926 3589,1949 3586,1973 3587,2000 3586,2020 3586,2038 3579,2039 3565,2037 3547,2029 3541,2025 3530,2014 3521,2008 3514,2001 3508,1994 3506,1989 3505,1979 3500,1976 3494,1974 3485,1975 3475,1975 3462,1975 3451,1971 3442,1971 3435,1970 3425,1973 3419,1965 3411,1961 3400,1960 3391,1960 3382,1957 3376,1959 3371,1969 3364,1975 3356,1975 3345,1969 3331,1963 3322,1960 3306,1957 3298,1955 3282,1955 3267,1953 3252,1954 3239,1953 3222,1957 3203,1962 3177,1972 3160,1976 3147,1979 3133,1979 3117,1970 3102,1963 3088,1964 3064,1966 3039,1963 3019,1952 2985,1930 2955,1906 2939,1876 2931,1854 2928,1846 2919,1847 2905,1855 2897,1863 2890,1868 2882,1870 2880,1873 2881,1878 2878,1882 2874,1884 2870,1885 2869,1889 2866,1888 2862,1886 2855,1884 2850,1879 2847,1875 2845,1880 2841,1881 2838,1881 2835,1884 2831,1883 2827,1884 2827,1887 2827,1890 2827,1893 2824,1898 2821,1901 2819,1905 2822,1908 2819,1912 2813,1915 2807,1916 2803,1919 2803,1923 2800,1927 2795,1929 2791,1929 2784,1930 2776,1929 2767,1923 2761,1922 2757,1924 2750,1923 2748,1919 2747,1915 2744,1912 2738,1912 2730,1908 2722,1902 2719,1896 2716,1895 2713,1894 2714,1890 2714,1884 2709,1874 2703,1871 2698,1865 2698,1862 2700,1857 2697,1845 2692,1843 2689,1840 2689,1834 2690,1829 2693,1827 2696,1822 2696,1816 2701,1809 2706,1807 2711,1803 2708,1795 2709,1784 2718,1776 2721,1773 2725,1774 2726,1777 2729,1781 2730,1772 2731,1767 2724,1762 2725,1753 2729,1744 2727,1732 2722,1723 2720,1716 2723,1711 2723,1707 2719,1705 2717,1701 2714,1687 2715,1680 2715,1677 2719,1674 2722,1674 2722,1671 2717,1666 2715,1657 2715,1654 2721,1654 2723,1658 2729,1660 2729,1656 2735,1653 2736,1646 2733,1636 2730,1630 2731,1623 2724,1622 2722,1618 2725,1614 2730,1605 2731,1599 2727,1599 2725,1596 2719,1585 2717,1581 2713,1577 2709,1579 2706,1584 2704,1589 2697,1588 2690,1585 2677,1585 2672,1585 2668,1591 2660,1596 2655,1599 2650,1603 2645,1605 2637,1607 2630,1607 2618,1608 2615,1608 2614,1604 2614,1598 2610,1599 2607,1604 2604,1607 2597,1603 2599,1589 2590,1574 2562,1569 2546,1558 2535,1541 2521,1528 2492,1516 2486,1504 2478,1480 2466,1462 2440,1450 2446,1428 2437,1419 2421,1416 2398,1414 2383,1414 2368,1411 2363,1390 2366,1374 2368,1368 2368,1352 2355,1342 2354,1335 2353,1322 2355,1305 2357,1290 2368,1288 2384,1289 2399,1292 2420,1307 2429,1312 2450,1325 2463,1326 2476,1327 2490,1324 2498,1317 2495,1308 2499,1299 2511,1298 2520,1297 2536,1296 2555,1299 2571,1303 2581,1305 2593,1302 2598,1297 2603,1286 2612,1272 2625,1271 2630,1278 2639,1272 2655,1269 2666,1276 2668,1291 2686,1301 2697,1317 2702,1324 2700,1338 2684,1340 2676,1344 2675,1351 2676,1367 2688,1375 2731,1372 2749,1374 2766,1370 2783,1381 2794,1395 2809,1412 2827,1428 2851,1426 2863,1421 2870,1407 2874,1395 2875,1383 2880,1377 2882,1371 2895,1364 2906,1364 2917,1372 2930,1376 2939,1365 2959,1351 2964,1343 2977,1332 2978,1324 2995,1325 3006,1325 3011,1319 3012,1314 3016,1308 3021,1304 3027,1298 3036,1289 3052,1289 3072,1293 3089,1294 3096,1301 3100,1310 3105,1321 3111,1318 3124,1321 3130,1315 3139,1313 3147,1310 3155,1305 3160,1310 3164,1315 3171,1309 3177,1300 3190,1300 3205,1305 3221,1308 3231,1304 3239,1306 3247,1318 3255,1328 3269,1330 3289,1331 3304,1333 3315,1335 3322,1338 3330,1344 3330,1360 3334,1370 3342,1374 3349,1371 3349,1360 3349,1346 3349,1333 3349,1320 3349,1310 3355,1305 3386,1303 3409,1303 3429,1303 3449,1303 3464,1304 3471,1306 3472,1315 3472,1329 3472,1349 3472,1364 3476,1370 3485,1371 3506,1371 3532,1373 3536,1373 " class="polyStyle" id="410506" style="fill:#f8c67d"/>
<path d="" class="polyStyle" id="420303" style="fill:#ee8b94"/>
<path d="" class="polyStyle" id="340702" style="fill:#d4ecb2"/>
<path d="" class="polyStyle" id="421002" style="fill:#f6f67b"/>
<path d="" class="polyStyle" id="420117" style="fill:#f6f67b"/>
<path d="" class="polyStyle" id="440904" style="fill:#f8c67d"/>
<path d="" class="polyStyle" id="460205" style="fill:#ee8b94"/>
<path d="" class="polyStyle" id="460202" style="fill:#f6f67b"/>
<path d="" class="polyStyle" id="460203" style="fill:#fbe6ef"/>
<path d="" class="polyStyle" id="420304" style="fill:#f6f67b"/>
<path d="" class="polyStyle" id="445302" style="fill:#ee8b94"/>
<path d="" class="polyStyle" id="410202" style="fill:#d4ecb2"/>
<path d="" class="polyStyle" id="440800" style="fill:#f6f67b"/>
<path d="" class="polyStyle" id="440900" style="fill:#ee8b94"/>
<path d="" class="polyStyle" id="340800" style="fill:#ee8b94"/>
<path d="" class="polyStyle" id="460200" style="fill:#f6f67b"/>
<path d="" class="polyStyle" id="460000" style="fill:#ee8b94"/>
<path d="" class="polyStyle" id="450500" style="fill:#ee8b94"/>
<path d="" class="polyStyle" id="450600" style="fill:#ee8b94"/>
<path d="" class="polyStyle" id="440400" style="fill:#f6f67b"/>
<path d="" class="polyStyle" id="441700" style="fill:#f6f67b"/>
<path d="" class="polyStyle" id="441500" style="fill:#f6f67b"/>
<path d="" class="polyStyle" id="350600" style="fill:#ee8b94"/>
<path d="" class="polyStyle" id="710000" style="fill:#f6f67b"/>
<path d="" class="polyStyle" id="510400" style="fill:#f6f67b"/>
<path d="" class="polyStyle" id="522600" style="fill:#fbe6ef"/>
<path d="" class="polyStyle" id="520500" style="fill:#ee8b94"/>
<path d="" class="polyStyle" id="431200" style="fill:#f6f67b"/>
<path d="" class="polyStyle" id="430600" style="fill:#f6f67b"/>
<path d="" class="polyStyle" id="511400" style="fill:#d4ecb2"/>
<path d="" class="polyStyle" id="421000" style="fill:#ee8b94"/>
<path d="" class="polyStyle" id="341700" style="fill:#f6f67b"/>
<path d="" class="polyStyle" id="420500" style="fill:#f6f67b"/>
<path d="" class="polyStyle" id="511300" style="fill:#f6f67b"/>
<path d="" class="polyStyle" id="420900" style="fill:#f6f67b"/>
<path d="" class="polyStyle" id="511700" style="fill:#ee8b94"/>
<path d="" class="polyStyle" id="420600" style="fill:#d4ecb2"/>
<path d="" class="polyStyle" id="411500" style="fill:#fbe6ef"/>
<path d="" class="polyStyle" id="510800" style="fill:#ee8b94"/>
<path d="" class="polyStyle" id="420300" style="fill:#fbe6ef"/>
<path d="" class="polyStyle" id="611000" style="fill:#ee8b94"/>
<path d="" class="polyStyle" id="620800" style="fill:#fbe6ef"/>
<path d="" class="polyStyle" id="370200" style="fill:#ee8b94"/>
<path d="" class="polyStyle" id="371000" style="fill:#f6f67b"/>
<path d="" class="polyStyle" id="370600" style="fill:#fbe6ef"/>
<path d="" class="polyStyle" id="120000" style="fill:#f6f67b"/>
<path d="" class="polyStyle" id="130200" style="fill:#ee8b94"/>
<path d="" class="polyStyle" id="130300" style="fill:#f6f67b"/>
<path d="" class="polyStyle" id="652900" style="fill:#fbe6ef"/>
<path d="" class="polyStyle" id="150500" style="fill:#d4ecb2"/>
<path d="" class="polyStyle" id="" style="fill:#d4ecb2"/>
<path d="" class="polyStyle" id="350500" style="fill:#fbe6ef"/>
<path d="" class="polyStyle" id="440400" style="fill:#f6f67b"/>
<path d="" class="polyStyle" id="421100" style="fill:#d4ecb2"/>
<path d="" class="polyStyle" id="420100" style="fill:#fbe6ef"/>
<path d="" class="polyStyle" id="532500" style="fill:#fbe6ef"/>
<path d="" class="polyStyle" id="654200" style="fill:#fbe6ef"/>
<path d="" class="polyStyle" id="210700" style="fill:#d4ecb2"/>
<path d="" class="polyStyle" id="522300" style="fill:#fbe6ef"/>
<path d="" class="polyStyle" id="" style="fill:#ee8b94"/>
<path d="" class="polyStyle" id="440400" style="fill:#f6f67b"/>
<path d="" class="polyStyle" id="620000" style="fill:#f6f67b"/>
<path d="" class="polyStyle" id="430000" style="fill:#fbe6ef"/>
<path d="" class="polyStyle" id="420000" style="fill:#ee8b94"/>
<path d="" class="polyStyle" id="410000" style="fill:#f6f67b"/>
<path d="" class="polyStyle" id="350000" style="fill:#fbe6ef"/>
<path d="" class="polyStyle" id="520000" style="fill:#f6f67b"/>
<path d="" class="polyStyle" id="" style="fill:#ee8b94"/>
</svg>
