<?xml version="1.0" encoding="UTF-8"?>
<!DOCTYPE svg PUBLIC "-//W3C//DTD SVG 1.1 Tiny//EN" "http://www.w3.org/Graphics/SVG/1.1/DTD/svg11-tiny.dtd">
<svg version="1.1" xmlns="http://www.w3.org/2000/svg" xmlns:xlink="http://www.w3.org/1999/xlink" width="100%" height="100%" viewBox="0,0,8214,4806">
<title>SVG</title>
<desc>Poligon Test</desc>
<style id="style_css_sheet" type="text/css">
.polyStyle{fill: #cccccc;stroke-width:0;fill-rule:evenodd;}
</style>
<circle cx="3472" cy="2114" r="200" stroke="black" stroke-width="1" fill="red" id="410781" name="卫辉市"/>
<circle cx="2113" cy="1897" r="200" stroke="black" stroke-width="1" fill="red" id="410782" name="辉县市"/>
<circle cx="5201" cy="3985" r="200" stroke="black" stroke-width="1" fill="red" id="410727" name="封丘县"/>
<circle cx="6564" cy="3208" r="200" stroke="black" stroke-width="1" fill="red" id="410728" name="长垣县"/>
<circle cx="4115" cy="3483" r="200" stroke="black" stroke-width="1" fill="red" id="410726" name="延津县"/>
<circle cx="2929" cy="3943" r="200" stroke="black" stroke-width="1" fill="red" id="410725" name="原阳县"/>
<circle cx="1390" cy="2893" r="200" stroke="black" stroke-width="1" fill="red" id="410724" name="获嘉县"/>
<circle cx="2114" cy="3251" r="200" stroke="black" stroke-width="1" fill="red" id="410721"position="3" name="新乡县"/>
<circle cx="2485" cy="2681" r="200" stroke="black" stroke-width="1" fill="red" id="410702" name="红旗区"/>
<circle cx="2435" cy="2702" r="200" stroke="black" stroke-width="1" fill="red" id="410703"position="4" name="卫滨区"/>
<circle cx="2655" cy="2616" r="200" stroke="black" stroke-width="1" fill="red" id="410711" name="牧野区"/>
<circle cx="2701" cy="2279" r="200" stroke="black" stroke-width="1" fill="red" id="410704" name="凤泉区"/>
<path d="" class="polyStyle" id="" style="fill:#ee8b94"/>
<path d="" class="polyStyle" id="623022" style="fill:#fbe6ef"/>
<path d="" class="polyStyle" id="211421" style="fill:#f6f67b"/>
<path d="" class="polyStyle" id="532524" style="fill:#ee8b94"/>
<path d="" class="polyStyle" id="440825" style="fill:#f6f67b"/>
<path d="" class="polyStyle" id="441721" style="fill:#f6f67b"/>
<path d="" class="polyStyle" id="450521" style="fill:#f6f67b"/>
<path d="" class="polyStyle" id="450123" style="fill:#fbe6ef"/>
<path d="" class="polyStyle" id="350624" style="fill:#f6f67b"/>
<path d="" class="polyStyle" id="" style="fill:#fbe6ef"/>
<path d="" class="polyStyle" id="451224" style="fill:#fbe6ef"/>
<path d="" class="polyStyle" id="350627" style="fill:#f6f67b"/>
<path d="" class="polyStyle" id="" style="fill:#f6f67b"/>
<path d="" class="polyStyle" id="350525" style="fill:#f6f67b"/>
<path d="" class="polyStyle" id="530124" style="fill:#ee8b94"/>
<path d="" class="polyStyle" id="522627" style="fill:#ee8b94"/>
<path d="" class="polyStyle" id="510421" style="fill:#fbe6ef"/>
<path d="" class="polyStyle" id="522623" style="fill:#d4ecb2"/>
<path d="" class="polyStyle" id="430321" style="fill:#d4ecb2"/>
<path d="" class="polyStyle" id="511129" style="fill:#d4ecb2"/>
<path d="" class="polyStyle" id="511423" style="fill:#ee8b94"/>
<path d="" class="polyStyle" id="421023" style="fill:#f6f67b"/>
<path d="" class="polyStyle" id="511724" style="fill:#f6f67b"/>
<path d="" class="polyStyle" id="420526" style="fill:#fbe6ef"/>
<path d="" class="polyStyle" id="511923" style="fill:#fbe6ef"/>
<path d="" class="polyStyle" id="420325" style="fill:#fbe6ef"/>
<path d="" class="polyStyle" id="511921" style="fill:#f6f67b"/>
<path d="" class="polyStyle" id="542525" style="fill:#f6f67b"/>
<path d="" class="polyStyle" id="611026" style="fill:#ee8b94"/>
<path d="" class="polyStyle" id="411023" style="fill:#fbe6ef"/>
<polygon points="3094,3273 3114,3295 3129,3305 3145,3315 3144,3331 3140,3347 3133,3366 3131,3377 3132,3390 3138,3396 3159,3396 3171,3399 3224,3407 3240,3387 3262,3377 3275,3367 3284,3348 3300,3338 3333,3333 3357,3339 3391,3375 3405,3393 3445,3407 3470,3406 3482,3387 3494,3379 3544,3364 3555,3366 3563,3395 3564,3406 3565,3431 3584,3439 3615,3434 3626,3434 3668,3436 3679,3466 3702,3466 3729,3467 3737,3481 3732,3506 3750,3527 3773,3538 3812,3551 3883,3573 3921,3586 3960,3586 3972,3587 3990,3595 4007,3619 4043,3624 4077,3625 4135,3621 4160,3595 4198,3603 4204,3618 4213,3617 4228,3618 4242,3614 4245,3604 4262,3603 4286,3612 4299,3620 4311,3632 4311,3641 4311,3648 4316,3653 4326,3660 4339,3660 4347,3660 4374,3655 4378,3656 4381,3657 4391,3661 4403,3679 4402,3693 4401,3721 4402,3742 4414,3754 4423,3757 4433,3758 4459,3756 4467,3755 4475,3763 4474,3782 4466,3789 4454,3792 4441,3797 4431,3800 4418,3813 4411,3826 4429,3835 4427,3852 4416,3876 4404,3909 4380,3906 4374,3921 4339,3921 4335,3933 4336,3982 4339,4010 4326,4021 4326,4075 4334,4107 4345,4135 4350,4154 4353,4177 4354,4195 4350,4223 4345,4250 4339,4276 4332,4309 4323,4351 4314,4390 4314,4422 4323,4428 4333,4431 4340,4457 4339,4508 4336,4541 4351,4563 4360,4610 4360,4627 4341,4652 4337,4660 4334,4719 4326,4709 4305,4685 4286,4663 4261,4637 4239,4608 4221,4589 4197,4572 4154,4555 4150,4554 4114,4550 4079,4544 4059,4535 4023,4522 3980,4507 3955,4493 3932,4475 3910,4453 3887,4439 3858,4423 3828,4422 3776,4427 3720,4428 3666,4427 3628,4425 3570,4425 3494,4427 3430,4432 3366,4444 3310,4457 3248,4472 3188,4489 3168,4491 3146,4500 3120,4509 3091,4534 3057,4568 3034,4593 3000,4632 2963,4672 2932,4702 2909,4728 2887,4748 2869,4762 2847,4767 2817,4769 2778,4775 2746,4780 2724,4782 2709,4777 2697,4768 2677,4756 2658,4747 2636,4746 2614,4745 2588,4745 2561,4749 2535,4761 2510,4768 2475,4774 2443,4777 2412,4779 2383,4792 2379,4792 2352,4798 2314,4802 2277,4804 2243,4801 2196,4806 2138,4802 2102,4796 2091,4794 2068,4789 2048,4781 2023,4757 1999,4734 1982,4713 1955,4694 1929,4668 1919,4659 1913,4657 1899,4664 1884,4672 1867,4677 1842,4687 1821,4692 1792,4690 1771,4688 1747,4686 1732,4676 1719,4663 1689,4660 1656,4658 1621,4661 1580,4659 1536,4658 1494,4657 1459,4654 1433,4652 1414,4647 1400,4625 1383,4600 1367,4575 1340,4545 1311,4513 1284,4494 1256,4478 1228,4475 1201,4482 1175,4492 1145,4500 1114,4511 1061,4524 1041,4525 1032,4453 1034,4442 1049,4407 1058,4382 1085,4350 1107,4315 1126,4285 1153,4245 1176,4219 1188,4213 1267,4195 1303,4192 1309,4181 1306,4163 1290,4144 1271,4124 1287,4098 1290,4090 1329,4077 1329,4054 1331,4048 1337,4040 1345,4033 1348,4026 1347,4017 1361,4017 1383,4003 1384,3984 1369,3961 1360,3936 1364,3911 1368,3886 1379,3868 1387,3862 1395,3863 1401,3869 1413,3874 1424,3871 1436,3863 1439,3848 1432,3826 1431,3816 1437,3810 1467,3812 1489,3811 1512,3818 1528,3826 1536,3839 1539,3854 1543,3869 1540,3877 1533,3879 1522,3886 1521,3899 1536,3915 1550,3929 1563,3942 1584,3945 1595,3943 1605,3934 1596,3906 1592,3885 1593,3871 1599,3862 1618,3862 1639,3856 1649,3850 1661,3850 1673,3856 1672,3869 1664,3893 1661,3925 1672,3934 1686,3932 1699,3927 1711,3915 1724,3901 1729,3896 1758,3894 1771,3882 1772,3863 1758,3848 1731,3836 1713,3818 1712,3807 1717,3795 1721,3787 1726,3782 1741,3787 1749,3792 1769,3787 1782,3781 1782,3753 1784,3741 1802,3740 1823,3736 1842,3724 1872,3722 1909,3718 1957,3713 1989,3717 2047,3724 2079,3725 2110,3719 2119,3724 2129,3744 2133,3750 2147,3751 2162,3745 2169,3742 2191,3749 2215,3753 2238,3756 2249,3751 2261,3743 2278,3724 2286,3716 2306,3720 2320,3729 2337,3728 2352,3723 2362,3719 2369,3718 2377,3722 2385,3717 2388,3708 2385,3696 2382,3685 2386,3676 2398,3661 2411,3646 2412,3638 2409,3631 2411,3627 2417,3623 2423,3620 2442,3627 2464,3632 2479,3632 2506,3621 2528,3609 2549,3599 2565,3584 2567,3575 2564,3570 2559,3570 2549,3574 2539,3576 2525,3576 2507,3576 2503,3571 2498,3567 2498,3557 2501,3539 2508,3525 2525,3519 2543,3520 2555,3528 2565,3532 2580,3532 2589,3530 2602,3520 2617,3505 2631,3493 2639,3479 2644,3462 2646,3435 2648,3414 2655,3403 2662,3400 2672,3396 2678,3390 2681,3381 2685,3367 2691,3347 2708,3340 2728,3331 2752,3328 2767,3321 2786,3320 2802,3322 2811,3328 2817,3336 2818,3347 2821,3357 2825,3361 2835,3361 2850,3362 2873,3364 2888,3367 2899,3368 2909,3367 2917,3367 2921,3366 2922,3363 2921,3358 2917,3355 2907,3353 2900,3351 2893,3347 2886,3342 2880,3338 2879,3331 2878,3321 2879,3312 2879,3306 2874,3301 2866,3292 2863,3285 2861,3280 2862,3274 2866,3269 2870,3265 2878,3264 2891,3265 2912,3267 2937,3275 2951,3280 2961,3283 2966,3287 2973,3297 2982,3313 2991,3318 2999,3319 3007,3317 3014,3315 3026,3309 3036,3301 3049,3291 3056,3286 3063,3280 3068,3271 3072,3264 3077,3257 3084,3263 " class="polyStyle" id="410725" style="fill:#fbe6ef"/>
<polygon points="5220,3082 5246,3099 5264,3110 5256,3135 5261,3161 5287,3170 5312,3159 5333,3131 5360,3118 5386,3112 5413,3110 5439,3114 5464,3121 5489,3133 5515,3147 5538,3159 5542,3186 5546,3212 5554,3237 5558,3274 5552,3315 5558,3335 5574,3345 5602,3346 5627,3341 5650,3332 5680,3323 5704,3313 5722,3301 5764,3300 5787,3304 5794,3310 5794,3335 5799,3346 5806,3347 5841,3345 5863,3348 5874,3352 5882,3358 5893,3373 5939,3437 5957,3470 5965,3479 5984,3486 6014,3493 6129,3507 6177,3517 6206,3526 6223,3533 6262,3551 6279,3561 6293,3572 6303,3583 6310,3597 6315,3613 6317,3631 6321,3666 6325,3684 6329,3694 6340,3718 6346,3727 6353,3733 6375,3739 6379,3744 6385,3764 6406,3783 6413,3794 6421,3814 6433,3855 6578,3947 6621,4006 6627,4012 6646,4021 6719,4072 6727,4085 6821,4153 6842,4164 6851,4167 6865,4179 6909,4189 6954,4206 6977,4221 7001,4226 6974,4247 6936,4284 6921,4312 6910,4346 6893,4382 6881,4408 6867,4447 6861,4472 6867,4492 6889,4506 6908,4517 6934,4534 6966,4552 6983,4562 6998,4582 7006,4599 7006,4625 6998,4656 6991,4684 6966,4716 6929,4747 6895,4759 6861,4761 6811,4753 6760,4736 6724,4713 6689,4689 6655,4676 6636,4669 6610,4674 6582,4686 6575,4687 6539,4695 6484,4704 6432,4712 6381,4712 6329,4701 6267,4689 6212,4674 6177,4667 6117,4667 6074,4669 6025,4656 5976,4629 5944,4624 5916,4626 5886,4642 5845,4661 5796,4684 5751,4701 5702,4701 5672,4687 5628,4663 5597,4657 5570,4660 5536,4660 5507,4654 5487,4651 5451,4646 5424,4642 5395,4639 5367,4635 5343,4633 5319,4636 5289,4641 5262,4650 5238,4663 5233,4665 5219,4674 5201,4675 5179,4669 5157,4652 5131,4634 5107,4622 5083,4603 5061,4587 5033,4562 5012,4540 4996,4533 4971,4526 4943,4528 4922,4534 4898,4555 4879,4575 4854,4596 4837,4607 4810,4613 4792,4619 4769,4630 4742,4630 4711,4627 4688,4633 4654,4652 4627,4667 4599,4676 4574,4678 4523,4681 4472,4688 4423,4697 4390,4707 4370,4720 4356,4731 4343,4730 4334,4719 4337,4660 4341,4652 4360,4627 4360,4610 4351,4563 4336,4541 4339,4508 4340,4457 4333,4431 4323,4428 4314,4422 4314,4390 4323,4351 4332,4309 4339,4276 4345,4250 4350,4223 4354,4195 4353,4177 4350,4154 4345,4135 4334,4107 4326,4075 4326,4021 4339,4010 4336,3982 4335,3933 4339,3921 4374,3921 4380,3906 4404,3909 4416,3876 4427,3852 4429,3835 4411,3826 4418,3813 4431,3800 4441,3797 4454,3792 4466,3789 4474,3782 4475,3763 4467,3755 4459,3756 4433,3758 4423,3757 4414,3754 4402,3742 4401,3721 4402,3693 4403,3679 4391,3661 4381,3657 4378,3656 4388,3630 4396,3613 4420,3596 4449,3548 4467,3505 4475,3476 4489,3450 4502,3439 4522,3432 4536,3425 4547,3411 4555,3384 4575,3357 4602,3326 4624,3324 4647,3328 4654,3305 4664,3272 4670,3257 4678,3247 4698,3249 4727,3257 4747,3256 4773,3260 4805,3272 4832,3289 4838,3307 4836,3321 4833,3332 4838,3338 4851,3337 4864,3326 4874,3319 4902,3314 4931,3320 4940,3336 4943,3356 4952,3369 4970,3378 4991,3379 4998,3376 5009,3363 5029,3317 5043,3313 5047,3308 5044,3290 5041,3286 5030,3282 5019,3273 5016,3262 5015,3244 5021,3232 5034,3218 5045,3192 5053,3158 5060,3139 5072,3137 5093,3146 5105,3148 5107,3134 5103,3122 5092,3119 5069,3114 5069,3097 5090,3072 5117,3065 5145,3058 5172,3053 5198,3072 " class="polyStyle" id="410727" style="fill:#f6f67b"/>
<polygon points="1680,2476 1679,2483 1665,2491 1649,2503 1642,2515 1637,2538 1633,2554 1630,2571 1635,2589 1639,2602 1650,2617 1658,2628 1671,2644 1677,2664 1685,2681 1696,2687 1713,2687 1732,2689 1761,2694 1771,2699 1792,2708 1806,2715 1810,2721 1811,2727 1806,2734 1798,2742 1795,2751 1796,2762 1804,2781 1811,2789 1812,2798 1810,2808 1803,2815 1794,2822 1783,2830 1775,2836 1767,2843 1764,2851 1763,2859 1743,2866 1736,2876 1718,2886 1707,2891 1702,2904 1705,2917 1715,2923 1732,2924 1749,2923 1763,2922 1768,2940 1777,2952 1780,2966 1781,2974 1797,2981 1808,2983 1824,2985 1840,2984 1845,2986 1847,2991 1846,2996 1830,3003 1825,3008 1824,3016 1825,3028 1826,3040 1827,3057 1824,3071 1812,3082 1801,3088 1781,3092 1769,3095 1762,3100 1766,3108 1768,3117 1773,3129 1782,3146 1790,3163 1797,3182 1799,3193 1793,3210 1785,3217 1777,3229 1775,3237 1768,3237 1758,3236 1747,3237 1740,3244 1736,3256 1734,3270 1732,3280 1740,3289 1753,3294 1772,3302 1780,3313 1783,3323 1780,3330 1778,3336 1774,3341 1769,3344 1762,3345 1755,3347 1747,3347 1737,3349 1735,3364 1735,3376 1741,3390 1762,3397 1779,3399 1790,3404 1799,3416 1800,3422 1797,3428 1785,3438 1777,3448 1775,3461 1776,3473 1782,3480 1794,3481 1803,3482 1808,3488 1807,3497 1797,3518 1788,3538 1796,3562 1820,3600 1818,3605 1812,3611 1807,3614 1805,3622 1798,3650 1821,3657 1836,3667 1841,3680 1837,3709 1842,3724 1823,3736 1802,3740 1784,3741 1782,3753 1782,3781 1769,3787 1749,3792 1741,3787 1726,3782 1721,3787 1717,3795 1712,3807 1713,3818 1731,3836 1758,3848 1772,3863 1771,3882 1758,3894 1729,3896 1724,3901 1711,3915 1699,3927 1686,3932 1672,3934 1661,3925 1664,3893 1672,3869 1673,3856 1661,3850 1649,3850 1639,3856 1618,3862 1599,3862 1593,3871 1592,3885 1596,3906 1605,3934 1595,3943 1584,3945 1563,3942 1550,3929 1536,3915 1521,3899 1522,3886 1533,3879 1540,3877 1543,3869 1539,3854 1536,3839 1528,3826 1512,3818 1489,3811 1467,3812 1437,3810 1431,3816 1432,3826 1439,3848 1436,3863 1424,3871 1413,3874 1401,3869 1395,3863 1387,3862 1379,3868 1368,3886 1364,3911 1360,3936 1369,3961 1384,3984 1383,4003 1361,4017 1347,4017 1339,4007 1325,3994 1300,3965 1269,3950 1250,3917 1242,3881 1232,3876 1211,3881 1199,3871 1174,3818 1160,3809 1132,3755 1121,3702 1114,3665 1109,3641 1113,3615 1121,3588 1128,3567 1123,3552 1118,3538 1108,3534 1034,3552 994,3559 995,3573 977,3575 946,3576 927,3566 920,3558 912,3525 923,3512 933,3500 932,3491 923,3483 908,3475 859,3478 849,3488 816,3485 808,3460 793,3451 765,3442 750,3430 749,3388 761,3370 766,3345 765,3318 753,3304 739,3300 725,3290 709,3293 697,3293 687,3288 678,3276 673,3266 673,3259 676,3257 690,3245 693,3227 693,3205 688,3172 690,3156 701,3136 704,3119 714,3095 765,3084 839,3073 844,3064 839,3049 825,3038 814,3014 803,3004 788,2981 783,2943 777,2929 687,2919 666,2911 661,2893 682,2866 698,2833 700,2805 702,2777 703,2748 698,2745 690,2744 683,2744 675,2742 693,2741 700,2740 706,2740 711,2739 718,2738 727,2738 736,2737 744,2736 755,2736 774,2736 778,2736 782,2735 822,2734 827,2735 834,2734 885,2734 891,2733 894,2732 898,2731 902,2730 908,2727 911,2727 919,2724 925,2722 929,2722 939,2721 943,2722 952,2721 961,2723 968,2722 976,2723 999,2723 1004,2723 1011,2723 1024,2724 1041,2725 1048,2726 1054,2726 1061,2726 1064,2727 1067,2728 1070,2729 1075,2729 1082,2730 1086,2732 1089,2730 1095,2729 1099,2728 1103,2727 1108,2724 1112,2722 1119,2717 1123,2713 1130,2707 1134,2703 1139,2698 1143,2693 1146,2690 1148,2687 1151,2684 1164,2664 1165,2660 1168,2658 1172,2656 1177,2652 1180,2650 1183,2649 1187,2647 1191,2645 1194,2643 1199,2640 1203,2638 1208,2635 1211,2633 1216,2630 1226,2621 1233,2618 1237,2616 1240,2613 1245,2610 1261,2604 1265,2603 1268,2602 1282,2596 1286,2593 1292,2591 1296,2589 1301,2586 1306,2584 1316,2580 1322,2578 1325,2577 1328,2576 1334,2574 1339,2572 1343,2571 1346,2570 1350,2569 1355,2567 1359,2566 1363,2565 1369,2561 1373,2560 1376,2560 1382,2559 1387,2558 1404,2559 1410,2560 1420,2569 1427,2578 1446,2581 1455,2573 1461,2566 1479,2561 1505,2552 1530,2538 1542,2515 1566,2515 1580,2493 1604,2471 1649,2463 1678,2465 " class="polyStyle" id="410724" style="fill:#ee8b94"/>
<polygon points="1794,2375 1805,2378 1809,2388 1816,2406 1824,2416 1838,2421 1860,2422 1876,2422 1876,2415 1876,2406 1878,2393 1889,2389 1897,2391 1906,2400 1921,2405 1939,2409 1959,2419 1966,2425 1977,2433 1981,2438 1988,2444 1993,2450 1996,2457 1996,2469 1992,2470 1980,2472 1974,2478 1979,2488 1987,2500 1999,2509 2012,2515 2017,2516 2033,2521 2039,2529 2037,2533 2025,2532 2015,2537 2011,2550 2014,2563 2031,2563 2051,2566 2062,2570 2064,2581 2065,2586 2058,2593 2047,2598 2035,2608 2028,2620 2027,2632 2024,2647 2020,2655 2024,2667 2036,2672 2039,2689 2036,2694 2038,2705 2042,2715 2042,2727 2048,2738 2049,2752 2057,2764 2068,2775 2076,2779 2076,2785 2087,2793 2093,2802 2092,2810 2091,2818 2089,2830 2092,2838 2104,2853 2120,2861 2140,2867 2159,2873 2174,2877 2189,2880 2217,2880 2228,2880 2248,2880 2270,2882 2278,2882 2282,2887 2282,2897 2273,2914 2268,2924 2267,2932 2269,2940 2277,2948 2283,2955 2287,2965 2293,2991 2305,3010 2316,3020 2326,3030 2326,3039 2331,3054 2337,3061 2347,3065 2360,3065 2392,3063 2414,3060 2428,3058 2441,3059 2451,3059 2468,3062 2492,3059 2512,3048 2532,3039 2550,3034 2566,3025 2576,3020 2581,3019 2588,3018 2600,3020 2611,3043 2622,3067 2636,3092 2654,3115 2670,3127 2686,3133 2701,3142 2720,3145 2742,3143 2762,3137 2782,3129 2798,3124 2817,3124 2827,3131 2832,3144 2835,3154 2840,3165 2856,3172 2872,3178 2893,3177 2910,3171 2922,3165 2939,3147 2948,3140 2956,3138 2968,3143 2980,3141 2986,3137 2990,3129 2994,3121 3000,3117 3009,3110 3020,3107 3023,3102 3025,3097 3022,3091 3022,3086 3009,3079 3003,3071 3003,3063 3007,3049 3016,3029 3019,3016 3030,2986 3037,2971 3046,2956 3049,2945 3048,2931 3041,2912 3032,2895 3028,2872 3027,2856 3027,2844 3032,2837 3053,2836 3077,2836 3104,2836 3128,2842 3154,2845 3178,2851 3197,2857 3214,2866 3231,2878 3243,2892 3251,2904 3260,2907 3270,2907 3279,2903 3289,2896 3294,2892 3298,2894 3297,2921 3323,2924 3355,2923 3380,2922 3398,2925 3417,2939 3417,2947 3417,2963 3412,2985 3399,3014 3379,3040 3349,3063 3330,3075 3308,3084 3285,3101 3269,3120 3254,3148 3218,3133 3199,3134 3170,3144 3142,3145 3111,3158 3100,3171 3087,3203 3078,3228 3077,3257 3072,3264 3068,3271 3063,3280 3056,3286 3049,3291 3036,3301 3026,3309 3014,3315 3007,3317 2999,3319 2991,3318 2982,3313 2973,3297 2966,3287 2961,3283 2951,3280 2937,3275 2912,3267 2891,3265 2878,3264 2870,3265 2866,3269 2862,3274 2861,3280 2863,3285 2866,3292 2874,3301 2879,3306 2879,3312 2878,3321 2879,3331 2880,3338 2886,3342 2893,3347 2900,3351 2907,3353 2917,3355 2921,3358 2922,3363 2921,3366 2917,3367 2909,3367 2899,3368 2888,3367 2873,3364 2850,3362 2835,3361 2825,3361 2821,3357 2818,3347 2817,3336 2811,3328 2802,3322 2786,3320 2767,3321 2752,3328 2728,3331 2708,3340 2691,3347 2685,3367 2681,3381 2678,3390 2672,3396 2662,3400 2655,3403 2648,3414 2646,3435 2644,3462 2639,3479 2631,3493 2617,3505 2602,3520 2589,3530 2580,3532 2565,3532 2555,3528 2543,3520 2525,3519 2508,3525 2501,3539 2498,3557 2498,3567 2503,3571 2507,3576 2525,3576 2539,3576 2549,3574 2559,3570 2564,3570 2567,3575 2565,3584 2549,3599 2528,3609 2506,3621 2479,3632 2464,3632 2442,3627 2423,3620 2417,3623 2411,3627 2409,3631 2412,3638 2411,3646 2398,3661 2386,3676 2382,3685 2385,3696 2388,3708 2385,3717 2377,3722 2369,3718 2362,3719 2352,3723 2337,3728 2320,3729 2306,3720 2286,3716 2278,3724 2261,3743 2249,3751 2238,3756 2215,3753 2191,3749 2169,3742 2162,3745 2147,3751 2133,3750 2129,3744 2119,3724 2110,3719 2079,3725 2047,3724 1989,3717 1957,3713 1909,3718 1872,3722 1842,3724 1837,3709 1841,3680 1836,3667 1821,3657 1798,3650 1805,3622 1807,3614 1812,3611 1818,3605 1820,3600 1796,3562 1788,3538 1797,3518 1807,3497 1808,3488 1803,3482 1794,3481 1782,3480 1776,3473 1775,3461 1777,3448 1785,3438 1797,3428 1800,3422 1799,3416 1790,3404 1779,3399 1762,3397 1741,3390 1735,3376 1735,3364 1737,3349 1747,3347 1755,3347 1762,3345 1769,3344 1774,3341 1778,3336 1780,3330 1783,3323 1780,3313 1772,3302 1753,3294 1740,3289 1732,3280 1734,3270 1736,3256 1740,3244 1747,3237 1758,3236 1768,3237 1775,3237 1777,3229 1785,3217 1793,3210 1799,3193 1797,3182 1790,3163 1782,3146 1773,3129 1768,3117 1766,3108 1762,3100 1769,3095 1781,3092 1801,3088 1812,3082 1824,3071 1827,3057 1826,3040 1825,3028 1824,3016 1825,3008 1830,3003 1846,2996 1847,2991 1845,2986 1840,2984 1824,2985 1808,2983 1797,2981 1781,2974 1780,2966 1777,2952 1768,2940 1763,2922 1749,2923 1732,2924 1715,2923 1705,2917 1702,2904 1707,2891 1718,2886 1736,2876 1743,2866 1763,2859 1764,2851 1767,2843 1775,2836 1783,2830 1794,2822 1803,2815 1810,2808 1812,2798 1811,2789 1804,2781 1796,2762 1795,2751 1798,2742 1806,2734 1811,2727 1810,2721 1806,2715 1792,2708 1771,2699 1761,2694 1732,2689 1713,2687 1696,2687 1685,2681 1677,2664 1671,2644 1658,2628 1650,2617 1639,2602 1635,2589 1630,2571 1633,2554 1637,2538 1642,2515 1649,2503 1665,2491 1679,2483 1689,2477 1713,2472 1731,2461 1736,2447 1743,2428 1745,2418 1746,2402 1748,2393 1753,2391 1756,2385 1760,2379 1762,2373 1768,2372 1783,2374 " class="polyStyle" id="410721" style="fill:#f6f67b"/>
<polygon points="7587,2238 7614,2244 7640,2254 7665,2257 7692,2263 7720,2267 7749,2268 7774,2269 7801,2274 7828,2280 7853,2289 7895,2340 7908,2358 7921,2369 7926,2400 7929,2414 7944,2423 7970,2429 8000,2436 8026,2462 8053,2488 8081,2514 8106,2522 8124,2524 8163,2531 8186,2536 8197,2536 8214,2585 8184,2587 8178,2579 8157,2551 8122,2605 8104,2621 8028,2669 8024,2673 8024,2679 8008,2711 7994,2743 7978,2755 7970,2763 7966,2765 7946,2765 7936,2769 7928,2775 7920,2791 7922,2801 7926,2807 7928,2813 7930,2825 7926,2831 7847,2910 7836,2921 7830,2923 7790,2925 7776,2931 7764,2943 7752,2963 7748,3005 7746,3035 7754,3195 7752,3201 7750,3207 7742,3211 7716,3215 7600,3217 7586,3219 7558,3223 7514,3233 7472,3247 7424,3267 7394,3287 7358,3315 7344,3329 7334,3343 7328,3357 7324,3375 7324,3399 7328,3417 7350,3447 7424,3521 7444,3547 7476,3581 7494,3605 7502,3619 7512,3641 7516,3659 7516,3675 7504,3709 7484,3743 7472,3755 7462,3761 7448,3765 7430,3767 7226,3799 7206,3805 7198,3811 7188,3819 7178,3839 7178,3851 7182,3901 7186,3933 7190,3939 7200,3951 7206,3957 7214,3961 7248,3975 7262,3981 7290,3983 7324,3981 7350,3983 7356,3987 7364,3999 7366,4005 7366,4013 7360,4033 7354,4043 7348,4051 7312,4075 7280,4097 7248,4111 7212,4121 7190,4127 7178,4129 7166,4131 7141,4140 7114,4153 7079,4172 7041,4194 7011,4219 7001,4226 6977,4221 6954,4206 6909,4189 6865,4179 6851,4167 6842,4164 6821,4153 6727,4085 6719,4072 6646,4021 6627,4012 6621,4006 6578,3947 6433,3855 6421,3814 6413,3794 6406,3783 6385,3764 6379,3744 6375,3739 6353,3733 6346,3727 6340,3718 6329,3694 6325,3684 6321,3666 6317,3631 6315,3613 6310,3597 6303,3583 6293,3572 6279,3561 6262,3551 6223,3533 6206,3526 6177,3517 6129,3507 6014,3493 5984,3486 5965,3479 5957,3470 5939,3437 5893,3373 5882,3358 5874,3352 5863,3348 5841,3345 5806,3347 5799,3346 5794,3335 5794,3310 5787,3304 5764,3300 5722,3301 5704,3313 5680,3323 5650,3332 5627,3341 5602,3346 5574,3345 5558,3335 5552,3315 5558,3274 5554,3237 5546,3212 5542,3186 5538,3159 5547,3150 5553,3124 5568,3097 5585,3072 5604,3061 5641,3051 5674,3040 5689,3027 5711,3026 5731,3041 5741,3044 5755,3042 5766,3017 5802,2997 5829,2979 5840,2948 5845,2912 5866,2895 5884,2873 5892,2848 5908,2814 5953,2821 5981,2820 6008,2815 6023,2807 6055,2785 6082,2769 6125,2753 6133,2733 6162,2721 6188,2717 6214,2709 6246,2714 6273,2707 6300,2705 6326,2716 6353,2727 6380,2732 6406,2738 6448,2743 6477,2739 6492,2737 6506,2730 6508,2725 6497,2691 6498,2688 6502,2687 6532,2685 6565,2686 6584,2676 6593,2663 6595,2631 6592,2604 6587,2575 6587,2546 6584,2521 6584,2498 6590,2490 6604,2488 6628,2495 6662,2500 6672,2493 6677,2473 6709,2464 6737,2465 6765,2463 6791,2470 6822,2489 6846,2504 6883,2514 6915,2504 6929,2487 6947,2488 6984,2484 7011,2479 7043,2481 7075,2476 7114,2462 7133,2449 7136,2424 7131,2402 7129,2393 7138,2385 7149,2390 7174,2405 7196,2400 7220,2384 7232,2360 7266,2339 7288,2326 7318,2307 7343,2301 7354,2269 7398,2251 7421,2245 7448,2244 7477,2242 7503,2240 7544,2231 7564,2237 " class="polyStyle" id="410728" style="fill:#fbe6ef"/>
<polygon points="5080,1829 5116,1840 5126,1829 5130,1831 5134,1844 5139,1851 5144,1852 5147,1851 5148,1844 5153,1843 5159,1845 5165,1844 5173,1835 5184,1830 5188,1826 5218,1842 5228,1848 5236,1860 5232,1883 5229,1901 5206,1914 5197,1927 5188,1956 5179,1985 5164,2009 5131,2025 5116,2041 5107,2079 5121,2117 5155,2138 5174,2148 5176,2165 5177,2195 5180,2230 5163,2248 5171,2263 5208,2266 5216,2276 5214,2285 5200,2312 5170,2318 5141,2354 5120,2391 5124,2415 5174,2424 5213,2437 5216,2476 5230,2493 5266,2497 5287,2506 5292,2519 5287,2526 5248,2530 5225,2538 5219,2562 5154,2562 5110,2553 5107,2570 5117,2590 5127,2606 5158,2621 5186,2632 5186,2663 5181,2686 5152,2707 5147,2717 5135,2720 5094,2715 5074,2716 5058,2723 5058,2740 5079,2761 5102,2775 5119,2785 5134,2827 5135,2839 5126,2852 5098,2861 5063,2874 5051,2891 5048,2913 5068,2941 5075,2965 5083,2984 5136,2987 5150,2993 5147,3004 5131,3014 5102,3032 5079,3052 5054,3063 5056,3089 5069,3097 5069,3114 5092,3119 5103,3122 5107,3134 5105,3148 5093,3146 5072,3137 5060,3139 5053,3158 5045,3192 5034,3218 5021,3232 5015,3244 5016,3262 5019,3273 5030,3282 5041,3286 5044,3290 5047,3308 5043,3313 5029,3317 5009,3363 4998,3376 4991,3379 4970,3378 4952,3369 4943,3356 4940,3336 4931,3320 4902,3314 4874,3319 4864,3326 4851,3337 4838,3338 4833,3332 4836,3321 4838,3307 4832,3289 4805,3272 4773,3260 4747,3256 4727,3257 4698,3249 4678,3247 4670,3257 4664,3272 4654,3305 4647,3328 4624,3324 4602,3326 4575,3357 4555,3384 4547,3411 4536,3425 4522,3432 4502,3439 4489,3450 4475,3476 4467,3505 4449,3548 4420,3596 4396,3613 4388,3630 4378,3656 4374,3655 4347,3660 4339,3660 4326,3660 4316,3653 4311,3648 4311,3641 4311,3632 4299,3620 4286,3612 4262,3603 4245,3604 4242,3614 4228,3618 4213,3617 4204,3618 4198,3603 4160,3595 4135,3621 4077,3625 4043,3624 4007,3619 3990,3595 3972,3587 3960,3586 3921,3586 3883,3573 3812,3551 3773,3538 3750,3527 3732,3506 3737,3481 3729,3467 3702,3466 3679,3466 3668,3436 3626,3434 3615,3434 3584,3439 3565,3431 3564,3406 3563,3395 3555,3366 3544,3364 3494,3379 3482,3387 3470,3406 3445,3407 3405,3393 3391,3375 3357,3339 3333,3333 3300,3338 3284,3348 3275,3367 3262,3377 3240,3387 3224,3407 3171,3399 3159,3396 3138,3396 3132,3390 3131,3377 3133,3366 3140,3347 3144,3331 3145,3315 3129,3305 3114,3295 3094,3273 3084,3263 3077,3257 3078,3228 3087,3203 3100,3171 3111,3158 3142,3145 3170,3144 3199,3134 3218,3133 3254,3148 3269,3120 3285,3101 3308,3084 3330,3075 3349,3063 3379,3040 3399,3014 3412,2985 3417,2963 3417,2947 3417,2939 3398,2925 3380,2922 3355,2923 3323,2924 3297,2921 3298,2894 3299,2888 3302,2882 3306,2876 3306,2868 3305,2862 3301,2857 3302,2854 3304,2848 3307,2845 3315,2839 3322,2838 3334,2839 3340,2848 3347,2856 3355,2859 3363,2861 3373,2865 3383,2863 3389,2859 3395,2855 3401,2848 3408,2846 3422,2846 3431,2846 3444,2845 3453,2844 3470,2843 3482,2851 3492,2856 3499,2858 3504,2857 3508,2854 3512,2844 3516,2835 3520,2826 3526,2814 3533,2803 3536,2796 3536,2784 3535,2779 3530,2776 3519,2772 3509,2767 3503,2764 3497,2759 3496,2754 3496,2747 3500,2741 3506,2739 3517,2741 3530,2742 3539,2742 3553,2740 3562,2738 3565,2735 3566,2730 3568,2724 3572,2716 3575,2708 3577,2701 3577,2695 3572,2690 3568,2688 3559,2688 3548,2689 3536,2691 3521,2693 3504,2693 3486,2694 3472,2694 3454,2690 3440,2686 3429,2681 3419,2679 3413,2675 3410,2669 3409,2664 3407,2659 3404,2656 3397,2654 3386,2652 3376,2650 3368,2648 3362,2643 3356,2636 3356,2631 3356,2623 3352,2618 3345,2614 3338,2612 3330,2611 3326,2606 3321,2597 3315,2588 3314,2584 3306,2577 3299,2571 3294,2566 3294,2560 3298,2555 3304,2542 3305,2535 3313,2533 3322,2531 3329,2530 3333,2527 3336,2524 3339,2520 3343,2513 3345,2508 3346,2505 3350,2507 3356,2514 3363,2516 3374,2516 3378,2513 3381,2507 3385,2499 3388,2493 3389,2485 3392,2476 3397,2472 3407,2467 3420,2461 3432,2457 3454,2450 3470,2446 3481,2446 3492,2450 3501,2455 3504,2458 3504,2465 3503,2472 3502,2485 3505,2491 3510,2493 3517,2493 3526,2493 3533,2491 3541,2488 3547,2483 3554,2472 3558,2462 3562,2451 3562,2443 3562,2436 3561,2429 3561,2425 3568,2423 3577,2424 3589,2430 3597,2435 3604,2447 3608,2456 3614,2462 3622,2465 3631,2466 3638,2465 3646,2463 3651,2459 3657,2452 3659,2447 3662,2439 3663,2431 3663,2416 3664,2398 3663,2386 3663,2379 3663,2375 3666,2373 3671,2372 3681,2375 3689,2376 3701,2377 3713,2374 3724,2371 3731,2367 3737,2364 3743,2359 3746,2354 3750,2350 3755,2346 3757,2342 3761,2342 3768,2342 3776,2343 3790,2348 3805,2355 3808,2357 3836,2374 3863,2388 3924,2414 3954,2423 3982,2429 4010,2433 4035,2434 4062,2433 4089,2429 4118,2423 4150,2413 4185,2400 4215,2386 4245,2372 4283,2350 4501,2241 4657,2158 4693,2147 4756,2134 4761,2131 4764,2127 4762,2115 4736,2049 4731,2024 4730,2004 4733,1996 4740,1986 4742,1979 4741,1976 4728,1974 4737,1974 4755,1965 4774,1952 4802,1931 4797,1912 4803,1897 4812,1883 4847,1872 4850,1861 4862,1860 4865,1856 4878,1855 4888,1849 4904,1850 4909,1869 4932,1871 4937,1884 4945,1880 4953,1888 4982,1888 4991,1876 5002,1867 5012,1833 5012,1826 5018,1825 5021,1829 5027,1827 5028,1814 5038,1811 5065,1807 5085,1816 " class="polyStyle" id="410726" style="fill:#d4ecb2"/>
<path d="" class="polyStyle" id="632323" style="fill:#f6f67b"/>
<path d="" class="polyStyle" id="140525" style="fill:#d4ecb2"/>
<path d="" class="polyStyle" id="410922" style="fill:#ee8b94"/>
<path d="" class="polyStyle" id="621027" style="fill:#ee8b94"/>
<path d="" class="polyStyle" id="130427" style="fill:#f6f67b"/>
<path d="" class="polyStyle" id="130121" style="fill:#ee8b94"/>
<path d="" class="polyStyle" id="610823" style="fill:#fbe6ef"/>
<path d="" class="polyStyle" id="130225" style="fill:#fbe6ef"/>
<path d="" class="polyStyle" id="130322" style="fill:#d4ecb2"/>
<path d="" class="polyStyle" id="653130" style="fill:#f6f67b"/>
<path d="" class="polyStyle" id="130822" style="fill:#fbe6ef"/>
<path d="" class="polyStyle" id="211221" style="fill:#f6f67b"/>
<path d="" class="polyStyle" id="210921" style="fill:#f6f67b"/>
<path d="" class="polyStyle" id="150223" style="fill:#f8c67d"/>
<path d="" class="polyStyle" id="220422" style="fill:#d4ecb2"/>
<path d="" class="polyStyle" id="340721" style="fill:#f6f67b"/>
<path d="" class="polyStyle" id="510824" style="fill:#d4ecb2"/>
<path d="" class="polyStyle" id="610324" style="fill:#f6f67b"/>
<path d="" class="polyStyle" id="530722" style="fill:#ee8b94"/>
<path d="" class="polyStyle" id="340823" style="fill:#d4ecb2"/>
<path d="" class="polyStyle" id="620825" style="fill:#d4ecb2"/>
<path d="" class="polyStyle" id="421125" style="fill:#ee8b94"/>
<path d="" class="polyStyle" id="210281" style="fill:#ee8b94"/>
<path d="" class="polyStyle" id="440883" style="fill:#f6f67b"/>
<path d="" class="polyStyle" id="469006" style="fill:#d4ecb2"/>
<path d="" class="polyStyle" id="469002" style="fill:#ee8b94"/>
<path d="" class="polyStyle" id="469005" style="fill:#fbe6ef"/>
<path d="" class="polyStyle" id="440882" style="fill:#ee8b94"/>
<path d="" class="polyStyle" id="450681" style="fill:#ee8b94"/>
<path d="" class="polyStyle" id="441581" style="fill:#d4ecb2"/>
<path d="" class="polyStyle" id="421087" style="fill:#ee8b94"/>
<path d="" class="polyStyle" id="420984" style="fill:#fbe6ef"/>
<path d="" class="polyStyle" id="420582" style="fill:#ee8b94"/>
<polygon points="3093,693 3109,703 3147,711 3185,718 3219,725 3237,730 3239,738 3234,755 3226,775 3228,782 3267,793 3293,791 3302,801 3314,809 3332,808 3344,817 3354,844 3359,874 3377,897 3380,913 3373,928 3355,950 3349,964 3350,975 3360,986 3394,1001 3411,1010 3412,1025 3402,1045 3393,1056 3375,1064 3372,1104 3380,1118 3383,1147 3376,1163 3359,1182 3355,1193 3359,1201 3379,1208 3399,1211 3423,1225 3440,1241 3441,1272 3449,1299 3470,1333 3481,1349 3512,1375 3540,1390 3569,1402 3595,1421 3622,1425 3650,1427 3679,1433 3707,1449 3734,1469 3760,1485 3782,1495 3804,1503 3831,1506 3844,1516 3852,1527 3859,1544 3874,1558 3899,1557 3909,1550 3915,1549 3922,1550 3930,1557 3934,1564 3942,1574 3961,1579 3991,1586 3999,1581 4005,1580 4031,1586 4040,1587 4043,1581 4044,1571 4052,1569 4060,1570 4065,1568 4080,1570 4111,1579 4115,1567 4120,1559 4126,1558 4140,1559 4157,1563 4161,1576 4165,1588 4171,1592 4184,1594 4185,1584 4188,1578 4204,1580 4211,1585 4214,1590 4213,1601 4215,1606 4243,1616 4274,1633 4304,1644 4313,1649 4315,1662 4324,1670 4330,1684 4335,1682 4335,1668 4343,1669 4349,1676 4351,1692 4378,1692 4382,1713 4407,1711 4409,1706 4422,1695 4428,1688 4433,1686 4438,1686 4474,1693 4507,1694 4531,1692 4539,1694 4538,1697 4535,1703 4532,1708 4517,1715 4516,1720 4517,1733 4517,1743 4513,1747 4500,1749 4487,1749 4470,1747 4466,1757 4467,1765 4480,1778 4479,1784 4472,1789 4463,1790 4453,1786 4450,1789 4449,1805 4443,1836 4439,1867 4518,1896 4543,1895 4572,1896 4589,1897 4604,1904 4619,1946 4624,1949 4634,1945 4653,1957 4665,1967 4714,1975 4725,1974 4728,1974 4741,1976 4742,1979 4740,1986 4733,1996 4730,2004 4731,2024 4736,2049 4762,2115 4764,2127 4761,2131 4756,2134 4693,2147 4657,2158 4501,2241 4283,2350 4245,2372 4215,2386 4185,2400 4150,2413 4118,2423 4089,2429 4062,2433 4035,2434 4010,2433 3982,2429 3954,2423 3924,2414 3863,2388 3836,2374 3808,2357 3805,2355 3790,2348 3776,2343 3768,2342 3761,2342 3757,2342 3755,2346 3750,2350 3746,2354 3743,2359 3737,2364 3731,2367 3724,2371 3713,2374 3701,2377 3689,2376 3681,2375 3671,2372 3666,2373 3663,2375 3663,2379 3663,2386 3664,2398 3663,2416 3663,2431 3662,2439 3659,2447 3657,2452 3651,2459 3646,2463 3638,2465 3631,2466 3622,2465 3614,2462 3608,2456 3604,2447 3597,2435 3589,2430 3577,2424 3568,2423 3561,2425 3561,2429 3562,2436 3562,2443 3562,2451 3558,2462 3554,2472 3547,2483 3541,2488 3533,2491 3526,2493 3517,2493 3510,2493 3505,2491 3502,2485 3503,2472 3504,2465 3504,2458 3501,2455 3492,2450 3481,2446 3470,2446 3454,2450 3432,2457 3420,2461 3407,2467 3397,2472 3392,2476 3389,2485 3388,2493 3385,2499 3381,2507 3378,2513 3374,2516 3363,2516 3356,2514 3350,2507 3346,2505 3345,2508 3342,2496 3335,2476 3320,2466 3300,2461 3277,2464 3232,2474 3205,2483 3184,2494 3153,2497 3144,2501 3140,2503 3137,2507 3131,2515 3128,2525 3126,2531 3115,2537 3095,2548 3085,2556 3072,2566 3054,2571 3040,2571 3021,2569 2991,2566 2969,2564 2956,2558 2908,2528 2902,2523 2901,2517 2904,2509 2911,2501 2914,2498 2915,2494 2915,2479 2918,2424 2914,2408 2908,2401 2902,2398 2898,2396 2888,2386 2875,2381 2842,2369 2843,2364 2844,2360 2845,2357 2846,2352 2846,2348 2847,2344 2849,2339 2852,2335 2857,2327 2860,2323 2862,2320 2865,2317 2868,2310 2870,2306 2870,2302 2872,2297 2873,2294 2874,2290 2877,2286 2885,2273 2888,2267 2900,2239 2918,2223 2931,2212 2932,2185 2930,2177 2915,2174 2895,2167 2876,2160 2867,2152 2863,2140 2857,2114 2852,2099 2849,2070 2842,2058 2827,2051 2820,2048 2820,2040 2825,2035 2839,2027 2850,2024 2853,2011 2851,2000 2839,1985 2824,1977 2810,1976 2795,1976 2780,1968 2766,1958 2756,1946 2752,1944 2755,1939 2762,1924 2773,1905 2785,1889 2784,1864 2789,1837 2797,1820 2803,1812 2811,1810 2817,1815 2820,1821 2826,1824 2835,1824 2846,1822 2865,1817 2872,1812 2872,1807 2866,1801 2855,1796 2838,1792 2820,1786 2805,1777 2801,1769 2802,1762 2808,1752 2818,1742 2826,1740 2832,1743 2838,1752 2845,1754 2852,1748 2857,1740 2862,1733 2865,1727 2867,1721 2868,1716 2866,1713 2854,1711 2850,1708 2844,1700 2835,1692 2830,1688 2822,1685 2814,1685 2816,1674 2816,1650 2821,1630 2820,1619 2815,1609 2786,1583 2775,1570 2774,1562 2776,1552 2790,1545 2805,1544 2817,1544 2827,1540 2836,1535 2839,1525 2840,1516 2843,1513 2852,1510 2862,1505 2864,1502 2863,1495 2862,1492 2856,1482 2852,1478 2844,1473 2838,1474 2833,1477 2820,1483 2813,1485 2804,1484 2797,1483 2789,1479 2787,1476 2786,1472 2789,1468 2795,1459 2797,1452 2797,1444 2797,1432 2797,1425 2792,1420 2785,1411 2776,1400 2775,1389 2771,1374 2762,1364 2749,1354 2738,1347 2728,1343 2709,1339 2690,1340 2678,1341 2666,1342 2658,1341 2655,1337 2656,1330 2660,1323 2666,1315 2669,1307 2668,1298 2664,1287 2657,1280 2647,1275 2639,1273 2631,1274 2614,1273 2603,1271 2596,1267 2591,1258 2584,1249 2576,1243 2565,1240 2557,1236 2554,1232 2554,1226 2557,1218 2561,1209 2563,1201 2564,1190 2564,1182 2564,1174 2567,1165 2569,1154 2568,1148 2565,1141 2563,1135 2563,1128 2565,1120 2568,1113 2573,1106 2581,1098 2587,1094 2595,1086 2598,1079 2601,1073 2602,1064 2601,1051 2597,1042 2592,1033 2584,1021 2574,1012 2568,1006 2560,1003 2549,1003 2536,1002 2520,997 2503,994 2497,990 2492,986 2486,979 2481,969 2473,960 2467,955 2461,951 2455,948 2450,946 2447,942 2444,936 2442,930 2440,919 2441,911 2444,904 2449,898 2454,893 2457,889 2457,886 2456,881 2452,874 2446,864 2441,851 2438,838 2435,828 2433,818 2434,809 2439,799 2442,790 2441,786 2455,775 2509,756 2525,760 2555,785 2583,804 2600,807 2608,798 2616,783 2628,781 2646,789 2674,789 2703,783 2732,769 2743,762 2748,748 2740,728 2741,719 2752,700 2761,679 2769,673 2796,677 2819,688 2847,704 2870,722 2877,742 2905,749 2934,761 2946,748 2965,732 2988,708 3015,698 3044,684 3076,667 3085,682 " class="polyStyle" id="410781" style="fill:#ee8b94"/>
<polygon points="1485,7 1512,18 1542,15 1570,11 1597,8 1627,16 1641,37 1629,56 1632,84 1652,99 1681,101 1695,93 1711,78 1733,80 1747,95 1768,104 1788,106 1806,103 1819,106 1828,112 1829,150 1847,166 1867,188 1878,221 1878,229 1859,256 1858,266 1862,273 1889,286 1894,299 1897,320 1891,349 1896,358 1914,366 1964,375 1991,382 2015,404 2030,434 2061,460 2085,493 2107,491 2128,478 2137,479 2139,492 2136,503 2122,516 2108,527 2106,537 2110,562 2104,580 2093,609 2083,633 2069,656 2056,693 2066,718 2064,723 2042,732 2027,745 2016,756 1996,755 1987,763 1991,776 2000,795 2011,809 2021,817 2043,826 2080,827 2107,829 2133,824 2147,815 2186,813 2212,812 2242,808 2265,806 2299,808 2331,801 2367,789 2384,782 2424,785 2441,786 2442,790 2439,799 2434,809 2433,818 2435,828 2438,838 2441,851 2446,864 2452,874 2456,881 2457,886 2457,889 2454,893 2449,898 2444,904 2441,911 2440,919 2442,930 2444,936 2447,942 2450,946 2455,948 2461,951 2467,955 2473,960 2481,969 2486,979 2492,986 2497,990 2503,994 2520,997 2536,1002 2549,1003 2560,1003 2568,1006 2574,1012 2584,1021 2592,1033 2597,1042 2601,1051 2602,1064 2601,1073 2598,1079 2595,1086 2587,1094 2581,1098 2573,1106 2568,1113 2565,1120 2563,1128 2563,1135 2565,1141 2568,1148 2569,1154 2567,1165 2564,1174 2564,1182 2564,1190 2563,1201 2561,1209 2557,1218 2554,1226 2554,1232 2557,1236 2565,1240 2576,1243 2584,1249 2591,1258 2596,1267 2603,1271 2614,1273 2631,1274 2639,1273 2647,1275 2657,1280 2664,1287 2668,1298 2669,1307 2666,1315 2660,1323 2656,1330 2655,1337 2658,1341 2666,1342 2678,1341 2690,1340 2709,1339 2728,1343 2738,1347 2749,1354 2762,1364 2771,1374 2775,1389 2776,1400 2785,1411 2792,1420 2797,1425 2797,1432 2797,1444 2797,1452 2795,1459 2789,1468 2786,1472 2787,1476 2789,1479 2797,1483 2804,1484 2813,1485 2820,1483 2833,1477 2838,1474 2844,1473 2852,1478 2856,1482 2862,1492 2863,1495 2864,1502 2862,1505 2852,1510 2843,1513 2840,1516 2839,1525 2836,1535 2827,1540 2817,1544 2805,1544 2790,1545 2776,1552 2774,1562 2775,1570 2786,1583 2815,1609 2820,1619 2821,1630 2816,1650 2816,1674 2814,1685 2822,1685 2830,1688 2835,1692 2844,1700 2850,1708 2854,1711 2866,1713 2868,1716 2867,1721 2865,1727 2862,1733 2857,1740 2852,1748 2845,1754 2838,1752 2832,1743 2826,1740 2818,1742 2808,1752 2802,1762 2801,1769 2805,1777 2820,1786 2838,1792 2855,1796 2866,1801 2872,1807 2872,1812 2865,1817 2846,1822 2835,1824 2826,1824 2820,1821 2817,1815 2811,1810 2803,1812 2797,1820 2789,1837 2784,1864 2785,1889 2773,1905 2762,1924 2755,1939 2752,1944 2741,1940 2723,1936 2702,1935 2694,1937 2686,1940 2676,1944 2671,1953 2669,1962 2671,1970 2679,1979 2686,1988 2687,1994 2678,1999 2666,2003 2656,2009 2648,2015 2646,2019 2644,2023 2638,2028 2629,2035 2624,2050 2623,2056 2621,2061 2609,2063 2598,2064 2594,2063 2586,2058 2579,2052 2572,2050 2553,2045 2541,2042 2523,2038 2514,2037 2500,2036 2494,2044 2490,2054 2487,2074 2480,2090 2472,2110 2473,2118 2475,2125 2476,2132 2478,2140 2480,2150 2480,2158 2477,2167 2474,2173 2469,2180 2459,2182 2449,2178 2444,2170 2437,2163 2426,2162 2419,2167 2412,2174 2407,2180 2401,2190 2397,2197 2393,2204 2390,2210 2383,2220 2380,2228 2378,2235 2378,2244 2368,2253 2360,2262 2353,2268 2338,2274 2328,2275 2319,2277 2302,2279 2273,2277 2243,2272 2217,2265 2208,2258 2202,2250 2184,2240 2176,2237 2158,2232 2144,2230 2123,2229 2101,2231 2084,2230 2066,2228 2036,2223 2012,2220 2001,2220 1989,2217 1969,2216 1948,2213 1932,2211 1923,2215 1921,2221 1919,2227 1913,2226 1902,2226 1893,2222 1889,2213 1884,2208 1875,2204 1869,2204 1863,2207 1864,2215 1864,2229 1865,2240 1867,2248 1863,2256 1853,2257 1832,2258 1821,2259 1810,2263 1803,2274 1802,2282 1802,2292 1800,2296 1792,2301 1782,2305 1777,2307 1773,2311 1772,2317 1766,2328 1762,2335 1760,2340 1754,2352 1749,2354 1741,2362 1738,2369 1740,2376 1748,2393 1746,2402 1745,2418 1743,2428 1736,2447 1731,2461 1713,2472 1689,2477 1679,2483 1680,2476 1678,2465 1649,2463 1604,2471 1580,2493 1566,2515 1542,2515 1530,2538 1505,2552 1479,2561 1461,2566 1455,2573 1446,2581 1427,2578 1420,2569 1410,2560 1404,2559 1387,2558 1382,2559 1376,2560 1373,2560 1369,2561 1363,2565 1359,2566 1355,2567 1350,2569 1346,2570 1343,2571 1339,2572 1334,2574 1328,2576 1325,2577 1322,2578 1316,2580 1306,2584 1301,2586 1296,2589 1292,2591 1286,2593 1282,2596 1268,2602 1265,2603 1261,2604 1245,2610 1240,2613 1237,2616 1233,2618 1226,2621 1216,2630 1211,2633 1208,2635 1203,2638 1199,2640 1194,2643 1191,2645 1187,2647 1183,2649 1180,2650 1177,2652 1172,2656 1168,2658 1165,2660 1164,2664 1151,2684 1148,2687 1146,2690 1143,2693 1139,2698 1134,2703 1130,2707 1123,2713 1119,2717 1112,2722 1108,2724 1103,2727 1099,2728 1095,2729 1089,2730 1086,2732 1082,2730 1075,2729 1070,2729 1067,2728 1064,2727 1061,2726 1054,2726 1048,2726 1041,2725 1024,2724 1011,2723 1004,2723 999,2723 976,2723 968,2722 961,2723 952,2721 943,2722 939,2721 929,2722 925,2722 919,2724 911,2727 908,2727 902,2730 898,2731 894,2732 891,2733 885,2734 834,2734 827,2735 822,2734 782,2735 778,2736 774,2736 755,2736 744,2736 736,2737 727,2738 718,2738 711,2739 706,2740 700,2740 693,2741 675,2742 671,2741 668,2739 656,2715 645,2708 626,2706 596,2715 571,2718 536,2716 517,2696 514,2683 523,2670 516,2650 515,2633 527,2623 531,2612 526,2604 497,2595 492,2588 485,2579 484,2562 495,2544 512,2522 510,2509 503,2500 490,2487 473,2476 441,2470 430,2444 425,2406 416,2372 420,2363 461,2369 488,2379 496,2370 502,2349 504,2327 486,2302 475,2291 446,2274 429,2265 395,2252 388,2248 391,2238 448,2221 449,2210 446,2182 440,2175 422,2145 397,2112 376,2083 353,2062 310,2030 289,2006 277,1978 253,1966 219,1942 196,1928 166,1921 131,1907 97,1906 83,1900 89,1872 58,1842 54,1815 51,1789 48,1763 32,1737 6,1722 0,1722 1,1715 9,1693 11,1689 21,1681 25,1679 43,1675 61,1677 73,1671 85,1659 93,1649 101,1637 111,1625 117,1621 124,1623 129,1635 135,1649 142,1670 147,1675 155,1677 167,1677 177,1677 203,1673 209,1669 213,1649 285,1641 359,1637 381,1631 391,1629 401,1627 413,1629 431,1635 455,1645 467,1647 475,1641 483,1633 483,1621 481,1607 483,1601 493,1591 509,1585 519,1585 527,1587 543,1594 539,1603 535,1609 535,1621 537,1627 545,1629 591,1613 603,1613 629,1621 633,1617 641,1605 641,1601 643,1577 641,1571 629,1565 605,1557 589,1551 585,1549 577,1539 577,1527 581,1517 597,1509 615,1501 615,1493 609,1491 589,1489 581,1485 579,1477 579,1467 583,1459 597,1449 605,1439 613,1435 635,1419 641,1413 643,1408 641,1401 637,1395 627,1375 613,1351 609,1343 611,1331 615,1323 619,1319 633,1317 645,1315 657,1311 673,1305 679,1301 683,1289 687,1279 693,1269 725,1237 738,1229 755,1225 801,1217 809,1213 811,1207 809,1195 809,1181 811,1169 821,1131 823,1121 825,1113 829,1109 835,1107 845,1105 851,1105 861,1101 867,1097 873,1095 875,1091 877,1085 877,1077 875,1071 863,1057 859,1053 851,1045 849,1029 857,1013 855,1003 853,989 843,975 835,965 837,957 845,939 845,921 841,915 842,907 869,899 877,899 881,901 883,907 891,929 895,947 909,971 913,975 927,971 941,953 951,951 959,953 961,957 965,965 967,973 971,1015 973,1043 983,1059 993,1061 999,1059 1003,1039 1015,1031 1035,1031 1043,1035 1089,1033 1165,1029 1187,1033 1211,1037 1219,1029 1221,1021 1219,975 1217,969 1219,957 1221,943 1223,931 1223,923 1221,917 1213,907 1199,895 1191,889 1187,883 1187,871 1189,861 1193,857 1213,843 1219,835 1221,827 1181,775 1167,767 1147,775 1133,771 1129,765 1123,753 1115,743 1105,741 1091,745 1075,739 1061,733 1059,729 1059,725 1061,721 1079,717 1093,709 1099,705 1105,697 1107,683 1111,655 1105,645 1093,635 1095,627 1109,621 1123,617 1123,611 1119,599 1101,573 1079,557 1057,527 1053,519 1047,505 1045,493 1043,481 1039,461 1040,440 1055,437 1067,433 1109,405 1119,397 1121,389 1127,371 1128,344 1117,327 1109,319 1079,297 1065,289 1059,283 1061,265 1055,261 1023,277 1015,279 1011,275 1003,263 1001,259 1001,253 1006,243 1027,239 1045,232 1102,229 1111,211 1129,191 1105,181 1083,175 1041,169 1031,167 1029,163 1025,153 1043,129 1043,119 1029,113 1011,101 1011,89 1023,66 1027,63 1031,63 1037,63 1045,67 1051,73 1055,75 1059,77 1063,79 1085,81 1103,85 1117,83 1137,75 1149,67 1161,57 1177,47 1191,33 1199,25 1203,21 1209,21 1225,21 1235,23 1257,25 1263,29 1267,37 1271,53 1273,69 1273,73 1277,75 1291,81 1303,85 1313,83 1343,71 1365,61 1379,49 1401,25 1407,17 1401,7 1430,0 1459,1 " class="polyStyle" id="410782" style="fill:#d4ecb2"/>
<path d="" class="polyStyle" id="370282" style="fill:#f6f67b"/>
<path d="" class="polyStyle" id="371083" style="fill:#f6f67b"/>
<path d="" class="polyStyle" id="371082" style="fill:#fbe6ef"/>
<path d="" class="polyStyle" id="652801" style="fill:#f8c67d"/>
<path d="" class="polyStyle" id="654301" style="fill:#ee8b94"/>
<path d="" class="polyStyle" id="370687" style="fill:#ee8b94"/>
<path d="" class="polyStyle" id="371482" style="fill:#d4ecb2"/>
<path d="" class="polyStyle" id="421081" style="fill:#fbe6ef"/>
<path d="" class="polyStyle" id="429006" style="fill:#f6f67b"/>
<path d="" class="polyStyle" id="440982" style="fill:#d4ecb2"/>
<path d="" class="polyStyle" id="421181" style="fill:#d4ecb2"/>
<path d="" class="polyStyle" id="321181" style="fill:#d4ecb2"/>
<path d="" class="polyStyle" id="659007" style="fill:#ee8b94"/>
<path d="" class="polyStyle" id="652701" style="fill:#fbe6ef"/>
<path d="" class="polyStyle" id="210781" style="fill:#fbe6ef"/>
<path d="" class="polyStyle" id="460204" style="fill:#f6f67b"/>
<path d="" class="polyStyle" id="210211" style="fill:#f6f67b"/>
<path d="" class="polyStyle" id="450512" style="fill:#ee8b94"/>
<path d="" class="polyStyle" id="450602" style="fill:#fbe6ef"/>
<path d="" class="polyStyle" id="440404" style="fill:#ee8b94"/>
<path d="" class="polyStyle" id="440403" style="fill:#f6f67b"/>
<path d="" class="polyStyle" id="441502" style="fill:#f6f67b"/>
<path d="" class="polyStyle" id="431002" style="fill:#d4ecb2"/>
<path d="" class="polyStyle" id="500107" style="fill:#fbe6ef"/>
<path d="" class="polyStyle" id="430611" style="fill:#d4ecb2"/>
<path d="" class="polyStyle" id="511304" style="fill:#fbe6ef"/>
<path d="" class="polyStyle" id="340711" style="fill:#ee8b94"/>
<path d="" class="polyStyle" id="320118" style="fill:#f6f67b"/>
<path d="" class="polyStyle" id="510704" style="fill:#f6f67b"/>
<path d="" class="polyStyle" id="411502" style="fill:#ee8b94"/>
<path d="" class="polyStyle" id="320302" style="fill:#d4ecb2"/>
<polygon points="2205,2573 2210,2578 2212,2583 2212,2599 2212,2603 2213,2606 2216,2610 2218,2612 2223,2615 2227,2616 2231,2618 2235,2619 2300,2618 2307,2619 2318,2614 2323,2613 2329,2611 2333,2609 2354,2610 2362,2611 2367,2612 2374,2616 2380,2620 2384,2620 2389,2618 2394,2616 2401,2612 2406,2612 2410,2614 2416,2620 2422,2625 2425,2625 2428,2626 2432,2627 2456,2628 2459,2630 2460,2634 2461,2650 2458,2668 2458,2687 2454,2709 2454,2732 2456,2754 2453,2773 2452,2793 2453,2807 2456,2815 2468,2819 2487,2817 2513,2818 2527,2818 2538,2820 2538,2832 2539,2854 2541,2873 2539,2889 2544,2897 2558,2897 2566,2897 2574,2907 2576,2919 2571,2938 2568,2949 2568,2959 2571,2975 2571,2989 2573,2998 2578,3008 2581,3019 2576,3020 2566,3025 2550,3034 2532,3039 2512,3048 2492,3059 2468,3062 2451,3059 2441,3059 2428,3058 2414,3060 2392,3063 2360,3065 2347,3065 2337,3061 2331,3054 2326,3039 2326,3030 2316,3020 2305,3010 2293,2991 2287,2965 2283,2955 2277,2948 2269,2940 2267,2932 2268,2924 2273,2914 2282,2897 2282,2887 2278,2882 2270,2882 2248,2880 2228,2880 2217,2880 2189,2880 2174,2877 2159,2873 2140,2867 2120,2861 2104,2853 2092,2838 2089,2830 2091,2818 2092,2810 2093,2802 2087,2793 2076,2785 2076,2779 2068,2775 2057,2764 2049,2752 2048,2738 2042,2727 2042,2715 2038,2705 2036,2694 2039,2689 2036,2672 2024,2667 2020,2655 2024,2647 2027,2632 2028,2620 2035,2608 2047,2598 2058,2593 2065,2586 2064,2581 2070,2581 2075,2589 2078,2592 2081,2593 2085,2595 2090,2594 2093,2593 2096,2588 2097,2585 2098,2580 2099,2575 2104,2572 2109,2573 2115,2574 2124,2574 2145,2575 2149,2576 2152,2577 2155,2577 2168,2577 2172,2575 2176,2575 2180,2573 2187,2571 2191,2570 2201,2571 " class="polyStyle" id="410703" style="fill:#ee8b94"/>
<polygon points="3335,2476 3342,2496 3345,2508 3343,2513 3339,2520 3336,2524 3333,2527 3329,2530 3322,2531 3313,2533 3305,2535 3304,2542 3298,2555 3294,2560 3294,2566 3299,2571 3306,2577 3314,2584 3315,2588 3321,2597 3326,2606 3330,2611 3338,2612 3345,2614 3352,2618 3356,2623 3356,2631 3356,2636 3362,2643 3368,2648 3376,2650 3386,2652 3397,2654 3404,2656 3407,2659 3409,2664 3410,2669 3413,2675 3419,2679 3429,2681 3440,2686 3454,2690 3472,2694 3486,2694 3504,2693 3521,2693 3536,2691 3548,2689 3559,2688 3568,2688 3572,2690 3577,2695 3577,2701 3575,2708 3572,2716 3568,2724 3566,2730 3565,2735 3562,2738 3553,2740 3539,2742 3530,2742 3517,2741 3506,2739 3500,2741 3496,2747 3496,2754 3497,2759 3503,2764 3509,2767 3519,2772 3530,2776 3535,2779 3536,2784 3536,2796 3533,2803 3526,2814 3520,2826 3516,2835 3512,2844 3508,2854 3504,2857 3499,2858 3492,2856 3482,2851 3470,2843 3453,2844 3444,2845 3431,2846 3422,2846 3408,2846 3401,2848 3395,2855 3389,2859 3383,2863 3373,2865 3363,2861 3355,2859 3347,2856 3340,2848 3334,2839 3322,2838 3315,2839 3307,2845 3304,2848 3302,2854 3301,2857 3305,2862 3306,2868 3306,2876 3302,2882 3299,2888 3298,2894 3294,2892 3289,2896 3279,2903 3270,2907 3260,2907 3251,2904 3243,2892 3231,2878 3214,2866 3197,2857 3178,2851 3154,2845 3128,2842 3104,2836 3077,2836 3053,2836 3032,2837 3027,2844 3027,2856 3028,2872 3032,2895 3041,2912 3048,2931 3049,2945 3046,2956 3037,2971 3030,2986 3019,3016 3016,3029 3007,3049 3003,3063 3003,3071 3009,3079 3022,3086 3022,3091 3025,3097 3023,3102 3020,3107 3009,3110 3000,3117 2994,3121 2990,3129 2986,3137 2980,3141 2968,3143 2956,3138 2948,3140 2939,3147 2922,3165 2910,3171 2893,3177 2872,3178 2856,3172 2840,3165 2835,3154 2832,3144 2827,3131 2817,3124 2798,3124 2782,3129 2762,3137 2742,3143 2720,3145 2701,3142 2686,3133 2670,3127 2654,3115 2636,3092 2622,3067 2611,3043 2600,3020 2588,3018 2581,3019 2578,3008 2573,2998 2571,2989 2571,2975 2568,2959 2568,2949 2571,2938 2576,2919 2574,2907 2566,2897 2558,2897 2544,2897 2539,2889 2541,2873 2539,2854 2538,2832 2538,2820 2527,2818 2513,2818 2487,2817 2468,2819 2456,2815 2453,2807 2452,2793 2453,2773 2456,2754 2454,2732 2454,2709 2458,2687 2458,2668 2461,2650 2460,2634 2465,2641 2469,2643 2473,2646 2481,2649 2492,2648 2495,2647 2499,2646 2504,2646 2511,2647 2514,2647 2517,2648 2522,2649 2526,2652 2536,2655 2539,2656 2545,2657 2548,2656 2552,2655 2555,2655 2564,2650 2568,2649 2573,2650 2576,2650 2579,2651 2583,2653 2586,2653 2590,2654 2596,2653 2599,2653 2605,2651 2609,2650 2613,2651 2617,2653 2623,2657 2627,2659 2636,2658 2640,2656 2644,2652 2649,2649 2652,2647 2676,2645 2694,2644 2716,2645 2736,2645 2748,2645 2756,2653 2757,2662 2766,2670 2788,2672 2826,2669 2852,2672 2876,2672 2896,2673 2907,2674 2923,2662 2945,2660 2962,2654 2970,2643 2975,2621 2985,2606 3003,2594 3021,2569 3040,2571 3054,2571 3072,2566 3085,2556 3095,2548 3115,2537 3126,2531 3128,2525 3131,2515 3137,2507 3140,2503 3144,2501 3153,2497 3184,2494 3205,2483 3232,2474 3277,2464 3300,2461 3320,2466 " class="polyStyle" id="410702" style="fill:#fbe6ef"/>
<polygon points="2877,2286 2874,2290 2873,2294 2872,2297 2870,2302 2870,2306 2868,2310 2865,2317 2862,2320 2860,2323 2857,2327 2852,2335 2849,2339 2847,2344 2846,2348 2846,2352 2845,2357 2844,2360 2843,2364 2842,2369 2875,2381 2888,2386 2898,2396 2902,2398 2908,2401 2914,2408 2918,2424 2915,2479 2915,2494 2914,2498 2911,2501 2904,2509 2901,2517 2902,2523 2908,2528 2956,2558 2969,2564 2991,2566 3021,2569 3003,2594 2985,2606 2975,2621 2970,2643 2962,2654 2945,2660 2923,2662 2907,2674 2896,2673 2876,2672 2852,2672 2826,2669 2788,2672 2766,2670 2757,2662 2756,2653 2748,2645 2736,2645 2716,2645 2694,2644 2676,2645 2652,2647 2649,2649 2644,2652 2640,2656 2636,2658 2627,2659 2623,2657 2617,2653 2613,2651 2609,2650 2605,2651 2599,2653 2596,2653 2590,2654 2586,2653 2583,2653 2579,2651 2576,2650 2573,2650 2568,2649 2564,2650 2555,2655 2552,2655 2548,2656 2545,2657 2539,2656 2536,2655 2526,2652 2522,2649 2517,2648 2514,2647 2511,2647 2504,2646 2499,2646 2495,2647 2492,2648 2481,2649 2473,2646 2469,2643 2465,2641 2460,2634 2459,2630 2456,2628 2432,2627 2428,2626 2425,2625 2422,2625 2416,2620 2410,2614 2406,2612 2401,2612 2394,2616 2389,2618 2384,2620 2380,2620 2374,2616 2367,2612 2362,2611 2354,2610 2333,2609 2329,2611 2323,2613 2318,2614 2307,2619 2300,2618 2235,2619 2231,2618 2227,2616 2223,2615 2218,2612 2216,2610 2213,2606 2212,2603 2212,2599 2212,2583 2210,2578 2205,2573 2201,2571 2191,2570 2187,2571 2180,2573 2176,2575 2172,2575 2168,2577 2155,2577 2152,2577 2149,2576 2145,2575 2124,2574 2115,2574 2109,2573 2104,2572 2099,2575 2098,2580 2097,2585 2096,2588 2093,2593 2090,2594 2085,2595 2081,2593 2078,2592 2075,2589 2070,2581 2064,2581 2062,2570 2051,2566 2031,2563 2014,2563 2011,2550 2015,2537 2025,2532 2037,2533 2039,2529 2033,2521 2017,2516 2019,2509 2030,2504 2056,2501 2114,2498 2143,2496 2161,2497 2178,2499 2181,2498 2183,2494 2186,2483 2190,2481 2225,2476 2244,2475 2249,2473 2252,2469 2261,2459 2265,2454 2265,2443 2265,2415 2270,2388 2274,2384 2286,2383 2330,2387 2364,2390 2399,2393 2402,2394 2405,2399 2409,2412 2413,2418 2419,2423 2427,2426 2464,2429 2471,2431 2473,2435 2466,2444 2462,2451 2465,2455 2469,2456 2482,2457 2527,2457 2532,2456 2533,2453 2525,2444 2524,2437 2525,2432 2528,2417 2533,2408 2540,2403 2549,2400 2595,2397 2604,2394 2606,2389 2603,2385 2601,2380 2602,2377 2612,2371 2675,2337 2701,2326 2721,2322 2751,2316 2806,2298 2837,2288 2879,2271 2888,2267 2885,2273 " class="polyStyle" id="410711" style="fill:#d4ecb2"/>
<polygon points="2741,1940 2752,1944 2756,1946 2766,1958 2780,1968 2795,1976 2810,1976 2824,1977 2839,1985 2851,2000 2853,2011 2850,2024 2839,2027 2825,2035 2820,2040 2820,2048 2827,2051 2842,2058 2849,2070 2852,2099 2857,2114 2863,2140 2867,2152 2876,2160 2895,2167 2915,2174 2930,2177 2932,2185 2931,2212 2918,2223 2900,2239 2888,2267 2879,2271 2837,2288 2806,2298 2751,2316 2721,2322 2701,2326 2675,2337 2612,2371 2602,2377 2601,2380 2603,2385 2606,2389 2604,2394 2595,2397 2549,2400 2540,2403 2533,2408 2528,2417 2525,2432 2524,2437 2525,2444 2533,2453 2532,2456 2527,2457 2482,2457 2469,2456 2465,2455 2462,2451 2466,2444 2473,2435 2471,2431 2464,2429 2427,2426 2419,2423 2413,2418 2409,2412 2405,2399 2402,2394 2399,2393 2364,2390 2330,2387 2286,2383 2274,2384 2270,2388 2265,2415 2265,2443 2265,2454 2261,2459 2252,2469 2249,2473 2244,2475 2225,2476 2190,2481 2186,2483 2183,2494 2181,2498 2178,2499 2161,2497 2143,2496 2114,2498 2056,2501 2030,2504 2019,2509 2017,2516 2012,2515 1999,2509 1987,2500 1979,2488 1974,2478 1980,2472 1992,2470 1996,2469 1996,2457 1993,2450 1988,2444 1981,2438 1977,2433 1966,2425 1959,2419 1939,2409 1921,2405 1906,2400 1897,2391 1889,2389 1878,2393 1876,2406 1876,2415 1876,2422 1860,2422 1838,2421 1824,2416 1816,2406 1809,2388 1805,2378 1794,2375 1783,2374 1768,2372 1762,2373 1760,2379 1756,2385 1753,2391 1748,2393 1740,2376 1738,2369 1741,2362 1749,2354 1754,2352 1760,2340 1762,2335 1766,2328 1772,2317 1773,2311 1777,2307 1782,2305 1792,2301 1800,2296 1802,2292 1802,2282 1803,2274 1810,2263 1821,2259 1832,2258 1853,2257 1863,2256 1867,2248 1865,2240 1864,2229 1864,2215 1863,2207 1869,2204 1875,2204 1884,2208 1889,2213 1893,2222 1902,2226 1913,2226 1919,2227 1921,2221 1923,2215 1932,2211 1948,2213 1969,2216 1989,2217 2001,2220 2012,2220 2036,2223 2066,2228 2084,2230 2101,2231 2123,2229 2144,2230 2158,2232 2176,2237 2184,2240 2202,2250 2208,2258 2217,2265 2243,2272 2273,2277 2302,2279 2319,2277 2328,2275 2338,2274 2353,2268 2360,2262 2368,2253 2378,2244 2378,2235 2380,2228 2383,2220 2390,2210 2393,2204 2397,2197 2401,2190 2407,2180 2412,2174 2419,2167 2426,2162 2437,2163 2444,2170 2449,2178 2459,2182 2469,2180 2474,2173 2477,2167 2480,2158 2480,2150 2478,2140 2476,2132 2475,2125 2473,2118 2472,2110 2480,2090 2487,2074 2490,2054 2494,2044 2500,2036 2514,2037 2523,2038 2541,2042 2553,2045 2572,2050 2579,2052 2586,2058 2594,2063 2598,2064 2609,2063 2621,2061 2623,2056 2624,2050 2629,2035 2638,2028 2644,2023 2646,2019 2648,2015 2656,2009 2666,2003 2678,1999 2687,1994 2686,1988 2679,1979 2671,1970 2669,1962 2671,1953 2676,1944 2686,1940 2694,1937 2702,1935 2723,1936 " class="polyStyle" id="410704" style="fill:#fbe6ef"/>
<path d="" class="polyStyle" id="140311" style="fill:#ee8b94"/>
<path d="" class="polyStyle" id="610802" style="fill:#ee8b94"/>
<path d="" class="polyStyle" id="120116" style="fill:#f6f67b"/>
<path d="" class="polyStyle" id="130303" style="fill:#fbe6ef"/>
<path d="" class="polyStyle" id="140211" style="fill:#f6f67b"/>
<path d="" class="polyStyle" id="150207" style="fill:#fbe6ef"/>
<path d="" class="polyStyle" id="211403" style="fill:#f6f67b"/>
<path d="" class="polyStyle" id="150802" style="fill:#f8c67d"/>
<path d="" class="polyStyle" id="210112" style="fill:#ee8b94"/>
<path d="" class="polyStyle" id="230406" style="fill:#d4ecb2"/>
<path d="" class="polyStyle" id="110113" style="fill:#fbe6ef"/>
<path d="" class="polyStyle" id="341702" style="fill:#fbe6ef"/>
<path d="" class="polyStyle" id="420303" style="fill:#ee8b94"/>
<path d="" class="polyStyle" id="340702" style="fill:#d4ecb2"/>
<path d="" class="polyStyle" id="421002" style="fill:#f6f67b"/>
<path d="" class="polyStyle" id="420117" style="fill:#f6f67b"/>
<path d="" class="polyStyle" id="440904" style="fill:#f8c67d"/>
<path d="" class="polyStyle" id="460205" style="fill:#ee8b94"/>
<path d="" class="polyStyle" id="460202" style="fill:#f6f67b"/>
<path d="" class="polyStyle" id="460203" style="fill:#fbe6ef"/>
<path d="" class="polyStyle" id="420304" style="fill:#f6f67b"/>
<path d="" class="polyStyle" id="445302" style="fill:#ee8b94"/>
<path d="" class="polyStyle" id="410202" style="fill:#d4ecb2"/>
<path d="" class="polyStyle" id="440800" style="fill:#f6f67b"/>
<path d="" class="polyStyle" id="440900" style="fill:#ee8b94"/>
<path d="" class="polyStyle" id="340800" style="fill:#ee8b94"/>
<path d="" class="polyStyle" id="460200" style="fill:#f6f67b"/>
<path d="" class="polyStyle" id="460000" style="fill:#ee8b94"/>
<path d="" class="polyStyle" id="450500" style="fill:#ee8b94"/>
<path d="" class="polyStyle" id="450600" style="fill:#ee8b94"/>
<path d="" class="polyStyle" id="440400" style="fill:#f6f67b"/>
<path d="" class="polyStyle" id="441700" style="fill:#f6f67b"/>
<path d="" class="polyStyle" id="441500" style="fill:#f6f67b"/>
<path d="" class="polyStyle" id="350600" style="fill:#ee8b94"/>
<path d="" class="polyStyle" id="710000" style="fill:#f6f67b"/>
<path d="" class="polyStyle" id="510400" style="fill:#f6f67b"/>
<path d="" class="polyStyle" id="522600" style="fill:#fbe6ef"/>
<path d="" class="polyStyle" id="520500" style="fill:#ee8b94"/>
<path d="" class="polyStyle" id="431200" style="fill:#f6f67b"/>
<path d="" class="polyStyle" id="430600" style="fill:#f6f67b"/>
<path d="" class="polyStyle" id="511400" style="fill:#d4ecb2"/>
<path d="" class="polyStyle" id="421000" style="fill:#ee8b94"/>
<path d="" class="polyStyle" id="341700" style="fill:#f6f67b"/>
<path d="" class="polyStyle" id="420500" style="fill:#f6f67b"/>
<path d="" class="polyStyle" id="511300" style="fill:#f6f67b"/>
<path d="" class="polyStyle" id="420900" style="fill:#f6f67b"/>
<path d="" class="polyStyle" id="511700" style="fill:#ee8b94"/>
<path d="" class="polyStyle" id="420600" style="fill:#d4ecb2"/>
<path d="" class="polyStyle" id="411500" style="fill:#fbe6ef"/>
<path d="" class="polyStyle" id="510800" style="fill:#ee8b94"/>
<path d="" class="polyStyle" id="420300" style="fill:#fbe6ef"/>
<path d="" class="polyStyle" id="611000" style="fill:#ee8b94"/>
<path d="" class="polyStyle" id="620800" style="fill:#fbe6ef"/>
<path d="" class="polyStyle" id="370200" style="fill:#ee8b94"/>
<path d="" class="polyStyle" id="371000" style="fill:#f6f67b"/>
<path d="" class="polyStyle" id="370600" style="fill:#fbe6ef"/>
<path d="" class="polyStyle" id="120000" style="fill:#f6f67b"/>
<path d="" class="polyStyle" id="130200" style="fill:#ee8b94"/>
<path d="" class="polyStyle" id="130300" style="fill:#f6f67b"/>
<path d="" class="polyStyle" id="652900" style="fill:#fbe6ef"/>
<path d="" class="polyStyle" id="150500" style="fill:#d4ecb2"/>
<path d="" class="polyStyle" id="" style="fill:#d4ecb2"/>
<path d="" class="polyStyle" id="350500" style="fill:#fbe6ef"/>
<path d="" class="polyStyle" id="440400" style="fill:#f6f67b"/>
<path d="" class="polyStyle" id="421100" style="fill:#d4ecb2"/>
<path d="" class="polyStyle" id="420100" style="fill:#fbe6ef"/>
<path d="" class="polyStyle" id="532500" style="fill:#fbe6ef"/>
<path d="" class="polyStyle" id="654200" style="fill:#fbe6ef"/>
<path d="" class="polyStyle" id="210700" style="fill:#d4ecb2"/>
<path d="" class="polyStyle" id="522300" style="fill:#fbe6ef"/>
<path d="" class="polyStyle" id="" style="fill:#ee8b94"/>
<path d="" class="polyStyle" id="440400" style="fill:#f6f67b"/>
<path d="" class="polyStyle" id="620000" style="fill:#f6f67b"/>
<path d="" class="polyStyle" id="430000" style="fill:#fbe6ef"/>
<path d="" class="polyStyle" id="420000" style="fill:#ee8b94"/>
<path d="" class="polyStyle" id="410000" style="fill:#f6f67b"/>
<path d="" class="polyStyle" id="350000" style="fill:#fbe6ef"/>
<path d="" class="polyStyle" id="520000" style="fill:#f6f67b"/>
<path d="" class="polyStyle" id="" style="fill:#ee8b94"/>
</svg>
