<?xml version="1.0" encoding="UTF-8"?>
<!DOCTYPE svg PUBLIC "-//W3C//DTD SVG 1.1 Tiny//EN" "http://www.w3.org/Graphics/SVG/1.1/DTD/svg11-tiny.dtd">
<svg version="1.1" xmlns="http://www.w3.org/2000/svg" xmlns:xlink="http://www.w3.org/1999/xlink" width="100%" height="100%" viewBox="0,0,6150,4403">
<title>SVG</title>
<desc>Poligon Test</desc>
<style id="style_css_sheet" type="text/css">
.polyStyle{fill: #cccccc;stroke-width:0;fill-rule:evenodd;}
</style>
<circle cx="1674" cy="690" r="200" stroke="black" stroke-width="1" fill="red" id="410923" name="南乐县"/>
<circle cx="4922" cy="1091" r="200" stroke="black" stroke-width="1" fill="red" id="410927" name="台前县"/>
<circle cx="738" cy="2533" r="200" stroke="black" stroke-width="1" fill="red" id="410928" name="濮阳县"/>
<circle cx="1212" cy="1531" r="200" stroke="black" stroke-width="1" fill="red" id="410922" name="清丰县"/>
<circle cx="3181" cy="1792" r="200" stroke="black" stroke-width="1" fill="red" id="410926" name="范县"/>
<circle cx="1012" cy="2166" r="200" stroke="black" stroke-width="1" fill="red" id="410902" name="华龙区"/>
<path d="" class="polyStyle" id="" style="fill:#ee8b94"/>
<path d="" class="polyStyle" id="623022" style="fill:#fbe6ef"/>
<path d="" class="polyStyle" id="211421" style="fill:#f6f67b"/>
<path d="" class="polyStyle" id="532524" style="fill:#ee8b94"/>
<path d="" class="polyStyle" id="440825" style="fill:#f6f67b"/>
<path d="" class="polyStyle" id="441721" style="fill:#f6f67b"/>
<path d="" class="polyStyle" id="450521" style="fill:#f6f67b"/>
<path d="" class="polyStyle" id="450123" style="fill:#fbe6ef"/>
<path d="" class="polyStyle" id="350624" style="fill:#f6f67b"/>
<path d="" class="polyStyle" id="" style="fill:#fbe6ef"/>
<path d="" class="polyStyle" id="451224" style="fill:#fbe6ef"/>
<path d="" class="polyStyle" id="350627" style="fill:#f6f67b"/>
<path d="" class="polyStyle" id="" style="fill:#f6f67b"/>
<path d="" class="polyStyle" id="350525" style="fill:#f6f67b"/>
<path d="" class="polyStyle" id="530124" style="fill:#ee8b94"/>
<path d="" class="polyStyle" id="522627" style="fill:#ee8b94"/>
<path d="" class="polyStyle" id="510421" style="fill:#fbe6ef"/>
<path d="" class="polyStyle" id="522623" style="fill:#d4ecb2"/>
<path d="" class="polyStyle" id="430321" style="fill:#d4ecb2"/>
<path d="" class="polyStyle" id="511129" style="fill:#d4ecb2"/>
<path d="" class="polyStyle" id="511423" style="fill:#ee8b94"/>
<path d="" class="polyStyle" id="421023" style="fill:#f6f67b"/>
<path d="" class="polyStyle" id="511724" style="fill:#f6f67b"/>
<path d="" class="polyStyle" id="420526" style="fill:#fbe6ef"/>
<path d="" class="polyStyle" id="511923" style="fill:#fbe6ef"/>
<path d="" class="polyStyle" id="420325" style="fill:#fbe6ef"/>
<path d="" class="polyStyle" id="511921" style="fill:#f6f67b"/>
<path d="" class="polyStyle" id="542525" style="fill:#f6f67b"/>
<path d="" class="polyStyle" id="611026" style="fill:#ee8b94"/>
<path d="" class="polyStyle" id="411023" style="fill:#fbe6ef"/>
<path d="" class="polyStyle" id="632323" style="fill:#f6f67b"/>
<path d="" class="polyStyle" id="140525" style="fill:#d4ecb2"/>
<polygon points="2137,2115 2137,2143 2130,2172 2136,2181 2157,2179 2214,2168 2230,2160 2245,2142 2272,2121 2290,2090 2302,2090 2304,2092 2312,2097 2316,2101 2352,2107 2358,2107 2378,2117 2390,2135 2424,2141 2451,2127 2437,2188 2417,2214 2401,2228 2393,2242 2391,2259 2405,2288 2409,2300 2395,2353 2396,2375 2395,2417 2394,2450 2393,2466 2399,2490 2426,2515 2431,2563 2449,2572 2491,2582 2522,2585 2571,2599 2583,2606 2595,2608 2597,2617 2590,2638 2572,2650 2542,2658 2528,2677 2509,2676 2495,2644 2488,2626 2468,2617 2437,2610 2423,2612 2408,2635 2410,2657 2415,2664 2427,2666 2439,2671 2443,2684 2453,2692 2469,2700 2473,2710 2472,2728 2462,2745 2442,2761 2440,2769 2443,2778 2454,2786 2458,2797 2462,2812 2459,2830 2461,2847 2463,2858 2473,2866 2482,2869 2493,2863 2498,2854 2510,2841 2541,2818 2568,2802 2598,2786 2607,2785 2619,2794 2625,2806 2627,2815 2620,2828 2614,2843 2614,2855 2619,2866 2635,2868 2663,2878 2674,2889 2678,2893 2727,2923 2747,2935 2755,2948 2736,2940 2712,2938 2708,2938 2702,2948 2692,2990 2675,3085 2670,3088 2652,3090 2632,3094 2626,3096 2600,3128 2594,3134 2556,3178 2552,3188 2553,3194 2552,3208 2548,3216 2508,3210 2494,3210 2476,3216 2456,3226 2442,3232 2428,3250 2426,3286 2410,3294 2394,3302 2372,3298 2366,3306 2364,3310 2368,3326 2380,3328 2392,3332 2396,3332 2408,3332 2420,3334 2434,3338 2452,3348 2459,3361 2454,3366 2448,3368 2424,3370 2408,3374 2398,3380 2380,3392 2378,3396 2376,3408 2402,3484 2418,3530 2424,3548 2424,3560 2420,3572 2416,3580 2410,3588 2404,3592 2390,3598 2368,3607 2348,3615 2306,3637 2283,3654 2262,3670 2252,3677 2249,3680 2242,3685 2235,3688 2224,3686 2212,3678 2195,3670 2132,3717 2096,3740 2048,3734 2032,3738 1986,3762 1974,3772 1982,3790 1986,3810 1984,3820 1980,3824 1916,3884 1894,3902 1856,3934 1844,3942 1776,3958 1748,3956 1696,3946 1678,3946 1626,3954 1616,3958 1614,3974 1612,3978 1608,3978 1603,3976 1556,3958 1516,3946 1496,3940 1450,3930 1420,3926 1392,3926 1362,3928 1330,3934 1312,3940 1272,3958 1260,3966 1260,4022 1242,4062 1224,4064 1218,4062 1226,4042 1222,3966 1188,3984 1196,4042 1190,4044 1172,4044 1154,4042 1128,4012 1120,4004 1112,3992 1108,3986 1102,3984 1096,3984 1083,3987 1054,4006 1054,4018 1058,4032 1068,4056 1070,4102 1040,4142 1028,4164 1008,4182 992,4186 976,4186 878,4184 828,4184 800,4186 766,4196 758,4202 748,4210 734,4226 722,4252 720,4262 722,4294 726,4328 732,4356 742,4400 743,4403 732,4403 709,4398 670,4391 652,4389 627,4381 599,4355 572,4329 546,4303 516,4296 490,4290 475,4281 472,4267 467,4236 454,4225 441,4207 399,4156 420,4137 445,4115 481,4087 479,4070 483,4057 497,4049 513,4050 540,4039 551,4022 566,4010 589,3998 572,3981 568,3968 569,3943 575,3931 556,3913 552,3883 543,3873 527,3873 515,3880 481,3885 461,3860 463,3831 476,3807 490,3791 488,3768 481,3748 484,3719 492,3690 499,3686 502,3664 498,3658 485,3650 459,3649 435,3649 419,3659 393,3665 368,3670 349,3665 338,3650 336,3636 342,3623 353,3597 362,3573 377,3563 404,3559 424,3561 458,3547 478,3538 479,3527 480,3524 481,3517 482,3512 483,3507 484,3504 485,3501 486,3498 487,3495 488,3491 490,3485 491,3480 493,3477 494,3473 496,3468 497,3462 496,3455 495,3450 494,3445 494,3439 493,3434 492,3428 491,3420 492,3405 493,3396 494,3386 493,3372 492,3367 492,3363 492,3359 487,3352 483,3344 480,3338 479,3334 478,3331 477,3328 476,3322 477,3310 478,3305 479,3300 480,3296 481,3291 482,3284 481,3271 480,3265 479,3262 478,3259 477,3256 475,3252 473,3248 472,3245 471,3241 469,3238 467,3234 466,3231 464,3227 462,3223 460,3218 459,3215 456,3209 454,3202 452,3198 451,3195 448,3191 444,3182 441,3176 437,3170 429,3171 407,3165 383,3147 353,3139 310,3127 293,3120 283,3127 267,3132 252,3133 243,3130 219,3113 186,3103 159,3091 136,3075 116,3057 81,3039 46,3033 28,3037 7,3038 0,3025 2,3013 16,2999 26,2967 17,2929 23,2908 48,2888 69,2877 85,2877 109,2881 118,2876 124,2858 132,2843 159,2829 164,2818 165,2804 153,2795 157,2786 169,2778 182,2774 166,2757 169,2742 176,2736 221,2731 229,2717 234,2694 245,2668 249,2652 245,2629 254,2633 261,2633 267,2630 271,2624 277,2609 282,2605 297,2600 326,2593 362,2588 388,2584 396,2582 400,2587 405,2609 407,2614 410,2616 432,2621 446,2631 462,2632 470,2631 484,2633 491,2633 506,2629 543,2624 607,2625 612,2625 623,2618 633,2614 641,2608 644,2600 675,2573 684,2569 687,2566 684,2562 673,2559 652,2557 581,2552 526,2549 528,2538 590,2537 595,2537 598,2535 599,2528 594,2488 583,2481 568,2478 560,2476 556,2473 554,2467 556,2459 561,2454 568,2451 572,2451 587,2448 616,2446 685,2444 712,2439 722,2432 731,2423 739,2413 746,2407 761,2397 778,2393 797,2394 863,2404 926,2413 968,2421 995,2422 1044,2426 1059,2423 1070,2417 1079,2408 1085,2396 1089,2381 1091,2364 1093,2355 1099,2345 1106,2338 1115,2333 1165,2329 1181,2322 1198,2301 1216,2269 1219,2266 1223,2265 1253,2267 1262,2262 1268,2255 1271,2253 1281,2251 1307,2250 1336,2249 1370,2251 1387,2254 1399,2258 1409,2263 1416,2270 1426,2284 1434,2291 1443,2295 1460,2296 1522,2310 1557,2315 1592,2314 1625,2309 1665,2291 1688,2278 1706,2266 1717,2253 1739,2217 1748,2211 1752,2209 1757,2209 1776,2210 1791,2207 1805,2198 1817,2186 1829,2174 1840,2170 1850,2174 1859,2187 1863,2192 1869,2196 1876,2196 1898,2211 1930,2215 1956,2211 1975,2189 2000,2183 2029,2175 2029,2172 2030,2165 2029,2160 2030,2145 2030,2135 2033,2127 2034,2124 2043,2115 2047,2112 2050,2109 2053,2108 2057,2105 2060,2103 2063,2103 2072,2097 2082,2092 2095,2086 2098,2084 2104,2082 2111,2079 2132,2087 " class="polyStyle" id="410928" style="fill:#d4ecb2"/>
<polygon points="3939,1430 3956,1441 3978,1452 4006,1456 4027,1460 4046,1462 4053,1488 4061,1519 4074,1538 4086,1540 4128,1519 4140,1523 4149,1539 4157,1564 4161,1573 4176,1581 4178,1586 4175,1596 4161,1601 4132,1606 4123,1619 4126,1625 4146,1639 4154,1667 4201,1697 4229,1724 4234,1730 4235,1742 4225,1747 4208,1748 4189,1781 4174,1800 4167,1808 4139,1814 4123,1819 4117,1830 4120,1841 4134,1848 4160,1844 4181,1846 4185,1851 4180,1859 4190,1867 4210,1873 4238,1882 4267,1889 4294,1891 4299,1902 4308,1906 4300,1928 4282,1972 4278,1980 4274,1984 4234,1982 4230,2022 4226,2042 4222,2044 4218,2044 4168,2030 4164,2054 4120,2242 4112,2292 3974,2300 3954,2305 3910,2316 3848,2332 3798,2346 3760,2354 3732,2362 3706,2364 3678,2368 3620,2372 3604,2372 3600,2374 3598,2378 3598,2418 3597,2422 3586,2422 3456,2386 3451,2409 3434,2418 3416,2418 3336,2414 3290,2410 3272,2414 3236,2424 3200,2434 3194,2440 3180,2456 3176,2464 3176,2470 3178,2474 3178,2482 3172,2486 3142,2504 3138,2506 3126,2512 3108,2516 3096,2518 3086,2524 3058,2542 3052,2550 3046,2568 3042,2582 3036,2604 3032,2612 3024,2618 3014,2626 2988,2642 2976,2656 2998,2666 2994,2684 2970,2696 2912,2684 2906,2692 2904,2700 2986,2726 2992,2730 2966,2748 2938,2760 2920,2768 2878,2776 2852,2778 2772,2786 2886,2820 2878,2826 2802,2822 2796,2830 2772,2888 2766,2912 2768,2916 2780,2922 2796,2922 2810,2920 2816,2922 2820,2928 2826,2942 2828,2946 2826,2950 2822,2950 2812,2958 2796,2960 2776,2956 2764,2952 2755,2948 2747,2935 2727,2923 2678,2893 2674,2889 2663,2878 2635,2868 2619,2866 2614,2855 2614,2843 2620,2828 2627,2815 2625,2806 2619,2794 2607,2785 2598,2786 2568,2802 2541,2818 2510,2841 2498,2854 2493,2863 2482,2869 2473,2866 2463,2858 2461,2847 2459,2830 2462,2812 2458,2797 2454,2786 2443,2778 2440,2769 2442,2761 2462,2745 2472,2728 2473,2710 2469,2700 2453,2692 2443,2684 2439,2671 2427,2666 2415,2664 2410,2657 2408,2635 2423,2612 2437,2610 2468,2617 2488,2626 2495,2644 2509,2676 2528,2677 2542,2658 2572,2650 2590,2638 2597,2617 2595,2608 2583,2606 2571,2599 2522,2585 2491,2582 2449,2572 2431,2563 2426,2515 2399,2490 2393,2466 2394,2450 2395,2417 2396,2375 2395,2353 2409,2300 2405,2288 2391,2259 2393,2242 2401,2228 2417,2214 2437,2188 2451,2127 2462,2121 2488,2101 2506,2089 2606,2035 2666,1995 2758,1871 2780,1835 2796,1817 2894,1733 2918,1719 3008,1673 3050,1660 3068,1651 3168,1615 3228,1599 3304,1585 3348,1577 3362,1573 3374,1565 3426,1525 3484,1485 3542,1449 3600,1423 3616,1421 3646,1423 3706,1423 3754,1425 3788,1431 3826,1443 3832,1443 3856,1437 3886,1423 3895,1421 3915,1424 " class="polyStyle" id="410926" style="fill:#ee8b94"/>
<polygon points="1700,1025 1706,1031 1710,1050 1725,1066 1743,1074 1755,1080 1765,1081 1778,1082 1780,1089 1776,1105 1776,1113 1782,1125 1792,1136 1793,1148 1793,1159 1781,1166 1756,1179 1743,1176 1734,1169 1718,1161 1693,1154 1681,1151 1672,1151 1662,1156 1652,1161 1646,1157 1643,1151 1645,1143 1646,1134 1645,1125 1640,1112 1638,1104 1641,1094 1644,1090 1645,1085 1644,1064 1640,1053 1639,1043 1648,1028 1658,1021 1678,1022 " class="polyStyle" id="410923" style="fill:#fbe6ef"/>
<path d="M689,666 L716,679 L736,698 L759,716 L778,738 L792,781 L801,799 L801,807 L792,824 L786,849 L793,855 L804,855 L820,841 L855,833 L882,833 L888,822 L896,817 L924,827 L959,828 L974,828 L991,834 L992,849 L1002,856 L1018,851 L1050,839 L1085,829 L1120,825 L1142,835 L1157,860 L1174,883 L1194,908 L1212,919 L1216,928 L1207,960 L1217,965 L1235,959 L1265,922 L1293,906 L1326,895 L1347,902 L1366,876 L1380,873 L1410,883 L1446,891 L1449,914 L1432,956 L1439,970 L1467,983 L1479,996 L1515,1014 L1522,1023 L1520,1040 L1527,1044 L1541,1044 L1552,1039 L1571,1038 L1582,1034 L1589,1013 L1604,1000 L1625,989 L1648,980 L1666,981 L1687,994 L1691,1014 L1716,1019 L1728,1021 L1768,1020 L1801,1035 L1830,1038 L1838,1043 L1853,1052 L1867,1056 L1875,1046 L1883,1018 L1929,1028 L1948,1039 L1947,1071 L1983,1079 L2008,1088 L2034,1089 L2062,1088 L2090,1092 L2124,1101 L2136,1100 L2140,1090 L2150,1052 L2169,1034 L2181,1008 L2195,986 L2207,981 L2249,992 L2260,1001 L2263,1030 L2278,1036 L2297,1035 L2326,1021 L2339,1013 L2366,1018 L2421,1037 L2462,1051 L2495,1049 L2538,1056 L2572,1063 L2586,1072 L2604,1086 L2626,1093 L2618,1107 L2608,1131 L2604,1139 L2602,1145 L2592,1173 L2588,1177 L2574,1195 L2568,1197 L2562,1199 L2540,1195 L2536,1193 L2506,1185 L2492,1183 L2448,1177 L2442,1179 L2434,1185 L2428,1199 L2420,1217 L2420,1223 L2420,1233 L2428,1257 L2430,1277 L2431,1297 L2416,1317 L2398,1335 L2398,1351 L2400,1355 L2404,1357 L2416,1371 L2438,1395 L2444,1397 L2452,1403 L2456,1411 L2460,1445 L2462,1469 L2466,1493 L2472,1521 L2472,1539 L2474,1567 L2474,1571 L2468,1603 L2456,1633 L2436,1689 L2426,1703 L2424,1711 L2414,1717 L2398,1715 L2366,1705 L2358,1703 L2338,1711 L2334,1715 L2332,1733 L2335,1740 L2342,1745 L2354,1751 L2374,1757 L2382,1759 L2386,1763 L2386,1773 L2380,1799 L2378,1810 L2352,1849 L2340,1871 L2316,1883 L2322,1903 L2332,1911 L2338,1919 L2346,1931 L2340,1951 L2320,1971 L2312,1983 L2302,2013 L2300,2021 L2302,2073 L2300,2081 L2302,2090 L2290,2090 L2272,2121 L2245,2142 L2230,2160 L2214,2168 L2157,2179 L2136,2181 L2130,2172 L2137,2143 L2137,2115 L2132,2087 L2111,2079 L2104,2082 L2098,2084 L2095,2086 L2082,2092 L2072,2097 L2063,2103 L2060,2103 L2057,2105 L2053,2108 L2050,2109 L2047,2112 L2043,2115 L2034,2124 L2033,2127 L2030,2135 L2030,2145 L2029,2160 L2030,2165 L2029,2172 L2029,2175 L2000,2183 L1975,2189 L1956,2211 L1930,2215 L1898,2211 L1876,2196 L1880,2194 L1869,2184 L1868,2179 L1870,2173 L1900,2126 L1905,2120 L1907,2114 L1905,2109 L1900,2105 L1883,2096 L1872,2094 L1795,2091 L1768,2095 L1753,2097 L1742,2094 L1734,2087 L1728,2074 L1721,2048 L1698,2042 L1685,2038 L1669,2029 L1644,2027 L1614,2029 L1559,2040 L1537,2039 L1525,2037 L1513,2038 L1484,2046 L1441,2046 L1425,2050 L1415,2055 L1399,2063 L1376,2066 L1354,2062 L1337,2053 L1326,2041 L1306,2008 L1298,1998 L1290,1990 L1280,1987 L1182,1984 L1154,1986 L1141,1990 L1131,2004 L1126,2007 L1120,2009 L1113,2009 L1091,2009 L973,1994 L906,1991 L906,1943 L909,1916 L911,1892 L897,1882 L894,1871 L896,1856 L908,1839 L919,1830 L929,1821 L917,1817 L911,1808 L882,1812 L849,1808 L806,1806 L795,1801 L791,1789 L786,1774 L780,1767 L765,1765 L753,1766 L725,1764 L708,1767 L696,1780 L681,1785 L652,1786 L630,1790 L617,1788 L608,1777 L595,1772 L578,1775 L561,1792 L548,1783 L532,1774 L502,1770 L474,1767 L462,1761 L456,1755 L445,1748 L453,1734 L458,1707 L473,1681 L492,1654 L494,1626 L501,1598 L515,1572 L528,1543 L536,1515 L524,1488 L509,1463 L503,1436 L505,1409 L516,1379 L538,1357 L550,1327 L557,1302 L561,1275 L571,1253 L578,1237 L575,1202 L552,1175 L551,1142 L561,1118 L566,1109 L566,1088 L558,1067 L549,1055 L541,1056 L538,1065 L525,1073 L510,1072 L502,1068 L497,1054 L505,1014 L514,1003 L524,996 L537,977 L559,954 L561,931 L541,922 L521,915 L494,903 L468,893 L442,881 L412,876 L387,876 L358,876 L333,873 L320,863 L305,847 L308,845 L307,840 L301,836 L292,833 L286,832 L264,825 L258,822 L254,817 L256,814 L260,814 L267,815 L281,817 L288,817 L292,816 L297,811 L305,798 L310,792 L324,782 L333,776 L339,770 L349,757 L355,755 L362,752 L371,751 L377,750 L385,747 L392,743 L408,730 L412,730 L415,732 L429,746 L437,751 L442,752 L448,751 L456,746 L459,740 L462,728 L464,722 L467,718 L472,715 L476,715 L488,728 L496,736 L502,738 L507,738 L518,733 L527,731 L534,733 L548,740 L555,743 L563,746 L569,746 L574,745 L603,731 L619,722 L627,720 L630,720 L639,721 L645,721 L659,721 L666,719 L676,717 L681,716 L686,714 L704,705 L707,701 L707,698 L705,693 L700,689 L692,688 L681,687 L677,686 L675,681 L673,676 L669,668 L666,661 L665,657 L669,653 L689,666z M1640,1053 L1639,1043 L1648,1028 L1658,1021 L1678,1022 L1700,1025 L1706,1031 L1710,1050 L1725,1066 L1743,1074 L1755,1080 L1765,1081 L1778,1082 L1780,1089 L1776,1105 L1776,1113 L1782,1125 L1792,1136 L1793,1148 L1793,1159 L1781,1166 L1756,1179 L1743,1176 L1734,1169 L1718,1161 L1693,1154 L1681,1151 L1672,1151 L1662,1156 L1652,1161 L1646,1157 L1643,1151 L1645,1143 L1646,1134 L1645,1125 L1640,1112 L1638,1104 L1641,1094 L1644,1090 L1645,1085 L1644,1064 L1640,1053z " class="polyStyle" id="410922" style="fill:#ee8b94"/>
<polygon points="6150,498 6142,530 6138,550 6132,564 6121,599 6082,664 6080,710 6084,730 6040,769 6042,772 6082,774 6066,786 6058,796 6044,792 6010,782 6028,814 6034,834 6034,854 6030,864 6018,908 6008,930 6004,932 5996,930 5960,922 5947,925 5922,1012 5906,1068 5885,1146 5884,1152 5874,1206 5868,1212 5858,1218 5844,1222 5840,1222 5808,1222 5742,1208 5684,1196 5654,1188 5622,1188 5598,1188 5562,1192 5540,1194 5506,1200 5346,1230 5201,1261 5194,1276 5184,1326 5180,1334 5188,1398 5188,1406 5182,1412 5160,1432 5142,1440 5128,1444 5082,1446 5066,1450 5016,1470 4994,1480 4990,1482 4992,1486 5002,1506 5004,1510 5008,1512 5018,1514 5056,1516 5064,1518 5082,1570 5078,1576 5062,1582 5056,1588 5052,1656 5050,1660 5040,1708 5026,1746 5020,1760 5014,1766 5008,1768 4997,1767 5002,1708 4997,1699 4992,1698 4986,1700 4980,1702 4974,1708 4964,1742 4958,1776 4872,1774 4854,1776 4848,1778 4844,1782 4844,1807 4844,1810 4836,1822 4798,1812 4748,1796 4744,1800 4738,1828 4720,1838 4700,1838 4692,1838 4674,1826 4658,1820 4522,1796 4506,1794 4500,1796 4472,1836 4458,1864 4452,1868 4444,1870 4410,1870 4406,1872 4356,1886 4320,1898 4312,1900 4310,1904 4308,1906 4299,1902 4294,1891 4267,1889 4238,1882 4210,1873 4190,1867 4180,1859 4185,1851 4181,1846 4160,1844 4134,1848 4120,1841 4117,1830 4123,1819 4139,1814 4167,1808 4174,1800 4189,1781 4208,1748 4225,1747 4235,1742 4234,1730 4229,1724 4201,1697 4154,1667 4146,1639 4126,1625 4123,1619 4132,1606 4161,1601 4175,1596 4178,1586 4176,1581 4161,1573 4157,1564 4149,1539 4140,1523 4128,1519 4086,1540 4074,1538 4061,1519 4053,1488 4046,1462 4027,1460 4006,1456 3978,1452 3956,1441 3939,1430 3915,1424 3895,1421 3962,1379 4037,1341 4050,1305 4060,1283 4072,1265 4090,1243 4114,1231 4194,1205 4216,1199 4242,1197 4346,1213 4420,1197 4476,1187 4498,1180 4510,1173 4520,1164 4536,1136 4539,1119 4541,1101 4543,1085 4578,1063 4601,1049 4623,1028 4696,1004 4758,991 4778,1012 4789,1008 4802,989 4825,986 4847,995 4865,1021 4898,1041 4930,1049 4964,1041 4976,1023 4980,1004 4978,991 4990,972 5002,967 5091,938 5111,928 5129,924 5158,928 5177,936 5201,943 5221,943 5244,933 5270,919 5338,875 5366,859 5400,847 5508,825 5590,801 5630,785 5688,755 5726,733 5736,725 5872,573 5900,543 5922,527 5946,515 5974,505 5993,501 6007,502 6048,506 6072,506 6130,496 6142,492 6150,496 " class="polyStyle" id="410927" style="fill:#f6f67b"/>
<polygon points="1660,44 1674,44 1690,34 1702,36 1748,78 1766,82 1772,78 1778,68 1784,62 1796,62 1806,64 1822,74 1830,78 1852,96 1860,100 1866,102 1892,114 1896,120 1896,132 1892,142 1888,160 1892,166 1912,164 1922,160 1928,160 1938,180 1954,204 1952,216 1952,228 1948,238 1950,260 1954,290 1962,298 1990,300 1984,325 1988,334 2004,354 2018,370 2030,380 2044,390 2060,396 2070,396 2107,392 2124,396 2140,398 2146,402 2154,412 2156,424 2158,442 2164,452 2160,466 2154,480 2136,500 2122,514 2122,528 2118,546 2120,556 2136,564 2154,584 2158,598 2174,594 2184,602 2198,614 2192,632 2214,634 2242,636 2258,636 2280,632 2288,622 2302,608 2312,604 2322,610 2336,628 2344,628 2366,622 2384,614 2408,606 2422,598 2446,584 2474,568 2488,554 2486,548 2474,544 2494,502 2510,504 2516,494 2515,483 2490,470 2486,468 2488,462 2504,426 2510,420 2520,414 2530,410 2538,404 2552,408 2568,412 2578,414 2588,418 2602,420 2606,412 2614,388 2618,382 2624,372 2632,356 2638,340 2638,336 2622,327 2640,306 2652,278 2662,266 2674,282 2678,296 2684,312 2666,342 2670,350 2682,364 2696,376 2708,382 2716,386 2734,390 2738,380 2746,370 2752,368 2768,372 2772,368 2800,326 2808,322 2822,316 2834,318 2846,320 2872,328 2884,326 2890,316 2896,304 2904,288 2902,278 2882,232 2886,228 2894,220 2894,206 2892,192 2904,186 2918,182 2924,188 2940,198 2954,208 2964,218 2976,224 2992,230 2994,238 2988,254 2980,282 2980,300 2986,306 3002,312 3052,318 3056,331 3060,349 3060,381 3068,426 3055,440 3049,451 3037,474 3027,504 3020,507 2984,505 2984,523 3026,537 3010,575 2998,597 2988,623 2978,645 2970,663 2966,667 2956,669 2952,667 2942,665 2920,707 2940,721 2934,755 2882,769 2850,787 2846,793 2846,799 2858,819 2860,827 2864,827 2873,827 2873,867 2878,890 2878,911 2874,936 2871,961 2870,971 2869,987 2872,1007 2875,1017 2862,1021 2830,1039 2818,1037 2804,1035 2794,1029 2772,1023 2728,1029 2698,1041 2696,1079 2666,1105 2626,1093 2604,1086 2586,1072 2572,1063 2538,1056 2495,1049 2462,1051 2421,1037 2366,1018 2339,1013 2326,1021 2297,1035 2278,1036 2263,1030 2260,1001 2249,992 2207,981 2195,986 2181,1008 2169,1034 2150,1052 2140,1090 2136,1100 2124,1101 2090,1092 2062,1088 2034,1089 2008,1088 1983,1079 1947,1071 1948,1039 1929,1028 1883,1018 1875,1046 1867,1056 1853,1052 1838,1043 1830,1038 1801,1035 1768,1020 1728,1021 1716,1019 1691,1014 1687,994 1666,981 1648,980 1625,989 1604,1000 1589,1013 1582,1034 1571,1038 1552,1039 1541,1044 1527,1044 1520,1040 1522,1023 1515,1014 1479,996 1467,983 1439,970 1432,956 1449,914 1446,891 1410,883 1380,873 1366,876 1347,902 1326,895 1293,906 1265,922 1235,959 1217,965 1207,960 1216,928 1212,919 1194,908 1174,883 1157,860 1142,835 1120,825 1085,829 1050,839 1018,851 1002,856 992,849 991,834 974,828 959,828 924,827 896,817 888,822 882,833 855,833 820,841 804,855 793,855 786,849 792,824 801,807 801,799 792,781 778,738 759,716 736,698 716,679 689,666 669,653 679,647 688,639 691,635 692,629 694,619 696,615 706,608 711,608 716,609 722,611 728,612 733,613 739,612 745,611 755,609 763,612 769,615 776,614 782,608 784,597 783,592 778,585 770,577 766,569 766,564 769,561 781,564 803,570 813,572 820,571 826,568 829,564 831,559 833,552 834,544 833,537 830,530 827,521 828,516 833,512 837,511 844,509 850,507 858,506 865,504 880,503 881,501 886,480 890,464 874,450 852,432 856,402 858,396 878,396 884,378 896,338 894,330 880,312 873,301 868,296 866,292 862,286 860,282 864,266 880,244 900,252 914,248 924,240 928,226 930,186 934,164 940,154 948,156 970,166 988,168 1014,176 1026,180 1094,202 1112,206 1118,206 1134,206 1160,198 1165,185 1166,174 1160,170 1134,158 1126,154 1130,136 1146,92 1152,86 1166,84 1186,82 1194,50 1200,40 1240,30 1262,22 1262,11 1262,8 1280,6 1296,6 1298,18 1334,18 1360,20 1376,22 1390,24 1400,28 1420,34 1436,38 1446,46 1456,52 1456,62 1438,92 1440,98 1478,114 1492,116 1494,90 1498,82 1506,84 1520,106 1528,110 1536,108 1596,70 1604,58 1614,46 1616,34 1616,24 1620,8 1626,4 1630,0 1642,0 1648,0 1652,32 " class="polyStyle" id="410923" style="fill:#fbe6ef"/>
<path d="" class="polyStyle" id="621027" style="fill:#ee8b94"/>
<path d="" class="polyStyle" id="130427" style="fill:#f6f67b"/>
<path d="" class="polyStyle" id="130121" style="fill:#ee8b94"/>
<path d="" class="polyStyle" id="610823" style="fill:#fbe6ef"/>
<path d="" class="polyStyle" id="130225" style="fill:#fbe6ef"/>
<path d="" class="polyStyle" id="130322" style="fill:#d4ecb2"/>
<path d="" class="polyStyle" id="653130" style="fill:#f6f67b"/>
<path d="" class="polyStyle" id="130822" style="fill:#fbe6ef"/>
<path d="" class="polyStyle" id="211221" style="fill:#f6f67b"/>
<path d="" class="polyStyle" id="210921" style="fill:#f6f67b"/>
<path d="" class="polyStyle" id="150223" style="fill:#f8c67d"/>
<path d="" class="polyStyle" id="220422" style="fill:#d4ecb2"/>
<path d="" class="polyStyle" id="340721" style="fill:#f6f67b"/>
<path d="" class="polyStyle" id="510824" style="fill:#d4ecb2"/>
<path d="" class="polyStyle" id="610324" style="fill:#f6f67b"/>
<path d="" class="polyStyle" id="530722" style="fill:#ee8b94"/>
<path d="" class="polyStyle" id="340823" style="fill:#d4ecb2"/>
<path d="" class="polyStyle" id="620825" style="fill:#d4ecb2"/>
<path d="" class="polyStyle" id="421125" style="fill:#ee8b94"/>
<path d="" class="polyStyle" id="210281" style="fill:#ee8b94"/>
<path d="" class="polyStyle" id="440883" style="fill:#f6f67b"/>
<path d="" class="polyStyle" id="469006" style="fill:#d4ecb2"/>
<path d="" class="polyStyle" id="469002" style="fill:#ee8b94"/>
<path d="" class="polyStyle" id="469005" style="fill:#fbe6ef"/>
<path d="" class="polyStyle" id="440882" style="fill:#ee8b94"/>
<path d="" class="polyStyle" id="450681" style="fill:#ee8b94"/>
<path d="" class="polyStyle" id="441581" style="fill:#d4ecb2"/>
<path d="" class="polyStyle" id="421087" style="fill:#ee8b94"/>
<path d="" class="polyStyle" id="420984" style="fill:#fbe6ef"/>
<path d="" class="polyStyle" id="420582" style="fill:#ee8b94"/>
<path d="" class="polyStyle" id="370282" style="fill:#f6f67b"/>
<path d="" class="polyStyle" id="371083" style="fill:#f6f67b"/>
<path d="" class="polyStyle" id="371082" style="fill:#fbe6ef"/>
<path d="" class="polyStyle" id="652801" style="fill:#f8c67d"/>
<path d="" class="polyStyle" id="654301" style="fill:#ee8b94"/>
<path d="" class="polyStyle" id="370687" style="fill:#ee8b94"/>
<path d="" class="polyStyle" id="371482" style="fill:#d4ecb2"/>
<path d="" class="polyStyle" id="421081" style="fill:#fbe6ef"/>
<path d="" class="polyStyle" id="429006" style="fill:#f6f67b"/>
<path d="" class="polyStyle" id="440982" style="fill:#d4ecb2"/>
<path d="" class="polyStyle" id="421181" style="fill:#d4ecb2"/>
<path d="" class="polyStyle" id="321181" style="fill:#d4ecb2"/>
<path d="" class="polyStyle" id="659007" style="fill:#ee8b94"/>
<path d="" class="polyStyle" id="652701" style="fill:#fbe6ef"/>
<path d="" class="polyStyle" id="210781" style="fill:#fbe6ef"/>
<path d="" class="polyStyle" id="460204" style="fill:#f6f67b"/>
<path d="" class="polyStyle" id="210211" style="fill:#f6f67b"/>
<path d="" class="polyStyle" id="450512" style="fill:#ee8b94"/>
<path d="" class="polyStyle" id="450602" style="fill:#fbe6ef"/>
<path d="" class="polyStyle" id="440404" style="fill:#ee8b94"/>
<path d="" class="polyStyle" id="440403" style="fill:#f6f67b"/>
<path d="" class="polyStyle" id="441502" style="fill:#f6f67b"/>
<path d="" class="polyStyle" id="431002" style="fill:#d4ecb2"/>
<path d="" class="polyStyle" id="500107" style="fill:#fbe6ef"/>
<path d="" class="polyStyle" id="430611" style="fill:#d4ecb2"/>
<path d="" class="polyStyle" id="511304" style="fill:#fbe6ef"/>
<path d="" class="polyStyle" id="340711" style="fill:#ee8b94"/>
<path d="" class="polyStyle" id="320118" style="fill:#f6f67b"/>
<path d="" class="polyStyle" id="510704" style="fill:#f6f67b"/>
<path d="" class="polyStyle" id="411502" style="fill:#ee8b94"/>
<path d="" class="polyStyle" id="320302" style="fill:#d4ecb2"/>
<polygon points="462,1761 474,1767 502,1770 532,1774 548,1783 561,1792 578,1775 595,1772 608,1777 617,1788 630,1790 652,1786 681,1785 696,1780 708,1767 725,1764 753,1766 765,1765 780,1767 786,1774 791,1789 795,1801 806,1806 849,1808 882,1812 911,1808 917,1817 929,1821 919,1830 908,1839 896,1856 894,1871 897,1882 911,1892 909,1916 906,1943 906,1991 973,1994 1091,2009 1113,2009 1120,2009 1126,2007 1131,2004 1141,1990 1154,1986 1182,1984 1280,1987 1290,1990 1298,1998 1306,2008 1326,2041 1337,2053 1354,2062 1376,2066 1399,2063 1415,2055 1425,2050 1441,2046 1484,2046 1513,2038 1525,2037 1537,2039 1559,2040 1614,2029 1644,2027 1669,2029 1685,2038 1698,2042 1721,2048 1728,2074 1734,2087 1742,2094 1753,2097 1768,2095 1795,2091 1872,2094 1883,2096 1900,2105 1905,2109 1907,2114 1905,2120 1900,2126 1870,2173 1868,2179 1869,2184 1880,2194 1876,2196 1869,2196 1863,2192 1859,2187 1850,2174 1840,2170 1829,2174 1817,2186 1805,2198 1791,2207 1776,2210 1757,2209 1752,2209 1748,2211 1739,2217 1717,2253 1706,2266 1688,2278 1665,2291 1625,2309 1592,2314 1557,2315 1522,2310 1460,2296 1443,2295 1434,2291 1426,2284 1416,2270 1409,2263 1399,2258 1387,2254 1370,2251 1336,2249 1307,2250 1281,2251 1271,2253 1268,2255 1262,2262 1253,2267 1223,2265 1219,2266 1216,2269 1198,2301 1181,2322 1165,2329 1115,2333 1106,2338 1099,2345 1093,2355 1091,2364 1089,2381 1085,2396 1079,2408 1070,2417 1059,2423 1044,2426 995,2422 968,2421 926,2413 863,2404 797,2394 778,2393 761,2397 746,2407 739,2413 731,2423 722,2432 712,2439 685,2444 616,2446 587,2448 572,2451 568,2451 561,2454 556,2459 554,2467 556,2473 560,2476 568,2478 583,2481 594,2488 599,2528 598,2535 595,2537 590,2537 528,2538 526,2549 581,2552 652,2557 673,2559 684,2562 687,2566 684,2569 675,2573 644,2600 641,2608 633,2614 623,2618 612,2625 607,2625 543,2624 506,2629 491,2633 484,2633 470,2631 462,2632 446,2631 432,2621 410,2616 407,2614 405,2609 400,2587 396,2582 388,2584 362,2588 326,2593 297,2600 282,2605 277,2609 271,2624 267,2630 261,2633 254,2633 245,2629 234,2625 232,2625 222,2598 208,2577 178,2579 159,2578 156,2561 156,2545 164,2535 186,2536 201,2539 214,2525 210,2504 198,2478 181,2451 159,2422 137,2405 96,2394 85,2383 74,2335 65,2304 65,2266 72,2258 84,2254 111,2258 121,2248 127,2234 139,2229 154,2216 159,2199 179,2189 201,2173 214,2161 216,2145 245,2140 263,2143 287,2134 326,2126 347,2118 348,2109 355,2093 361,2049 363,2020 381,1990 383,1982 383,1957 353,1931 331,1926 315,1933 296,1925 303,1905 310,1878 302,1846 294,1808 315,1789 348,1782 380,1781 413,1777 439,1759 445,1748 456,1755 " class="polyStyle" id="410902" style="fill:#f6f67b"/>
<path d="" class="polyStyle" id="140311" style="fill:#ee8b94"/>
<path d="" class="polyStyle" id="610802" style="fill:#ee8b94"/>
<path d="" class="polyStyle" id="120116" style="fill:#f6f67b"/>
<path d="" class="polyStyle" id="130303" style="fill:#fbe6ef"/>
<path d="" class="polyStyle" id="140211" style="fill:#f6f67b"/>
<path d="" class="polyStyle" id="150207" style="fill:#fbe6ef"/>
<path d="" class="polyStyle" id="211403" style="fill:#f6f67b"/>
<path d="" class="polyStyle" id="150802" style="fill:#f8c67d"/>
<path d="" class="polyStyle" id="210112" style="fill:#ee8b94"/>
<path d="" class="polyStyle" id="230406" style="fill:#d4ecb2"/>
<path d="" class="polyStyle" id="110113" style="fill:#fbe6ef"/>
<path d="" class="polyStyle" id="341702" style="fill:#fbe6ef"/>
<path d="" class="polyStyle" id="420303" style="fill:#ee8b94"/>
<path d="" class="polyStyle" id="340702" style="fill:#d4ecb2"/>
<path d="" class="polyStyle" id="421002" style="fill:#f6f67b"/>
<path d="" class="polyStyle" id="420117" style="fill:#f6f67b"/>
<path d="" class="polyStyle" id="440904" style="fill:#f8c67d"/>
<path d="" class="polyStyle" id="460205" style="fill:#ee8b94"/>
<path d="" class="polyStyle" id="460202" style="fill:#f6f67b"/>
<path d="" class="polyStyle" id="460203" style="fill:#fbe6ef"/>
<path d="" class="polyStyle" id="420304" style="fill:#f6f67b"/>
<path d="" class="polyStyle" id="445302" style="fill:#ee8b94"/>
<path d="" class="polyStyle" id="410202" style="fill:#d4ecb2"/>
<path d="" class="polyStyle" id="440800" style="fill:#f6f67b"/>
<path d="" class="polyStyle" id="440900" style="fill:#ee8b94"/>
<path d="" class="polyStyle" id="340800" style="fill:#ee8b94"/>
<path d="" class="polyStyle" id="460200" style="fill:#f6f67b"/>
<path d="" class="polyStyle" id="460000" style="fill:#ee8b94"/>
<path d="" class="polyStyle" id="450500" style="fill:#ee8b94"/>
<path d="" class="polyStyle" id="450600" style="fill:#ee8b94"/>
<path d="" class="polyStyle" id="440400" style="fill:#f6f67b"/>
<path d="" class="polyStyle" id="441700" style="fill:#f6f67b"/>
<path d="" class="polyStyle" id="441500" style="fill:#f6f67b"/>
<path d="" class="polyStyle" id="350600" style="fill:#ee8b94"/>
<path d="" class="polyStyle" id="710000" style="fill:#f6f67b"/>
<path d="" class="polyStyle" id="510400" style="fill:#f6f67b"/>
<path d="" class="polyStyle" id="522600" style="fill:#fbe6ef"/>
<path d="" class="polyStyle" id="520500" style="fill:#ee8b94"/>
<path d="" class="polyStyle" id="431200" style="fill:#f6f67b"/>
<path d="" class="polyStyle" id="430600" style="fill:#f6f67b"/>
<path d="" class="polyStyle" id="511400" style="fill:#d4ecb2"/>
<path d="" class="polyStyle" id="421000" style="fill:#ee8b94"/>
<path d="" class="polyStyle" id="341700" style="fill:#f6f67b"/>
<path d="" class="polyStyle" id="420500" style="fill:#f6f67b"/>
<path d="" class="polyStyle" id="511300" style="fill:#f6f67b"/>
<path d="" class="polyStyle" id="420900" style="fill:#f6f67b"/>
<path d="" class="polyStyle" id="511700" style="fill:#ee8b94"/>
<path d="" class="polyStyle" id="420600" style="fill:#d4ecb2"/>
<path d="" class="polyStyle" id="411500" style="fill:#fbe6ef"/>
<path d="" class="polyStyle" id="510800" style="fill:#ee8b94"/>
<path d="" class="polyStyle" id="420300" style="fill:#fbe6ef"/>
<path d="" class="polyStyle" id="611000" style="fill:#ee8b94"/>
<path d="" class="polyStyle" id="620800" style="fill:#fbe6ef"/>
<path d="" class="polyStyle" id="370200" style="fill:#ee8b94"/>
<path d="" class="polyStyle" id="371000" style="fill:#f6f67b"/>
<path d="" class="polyStyle" id="370600" style="fill:#fbe6ef"/>
<path d="" class="polyStyle" id="120000" style="fill:#f6f67b"/>
<path d="" class="polyStyle" id="130200" style="fill:#ee8b94"/>
<path d="" class="polyStyle" id="130300" style="fill:#f6f67b"/>
<path d="" class="polyStyle" id="652900" style="fill:#fbe6ef"/>
<path d="" class="polyStyle" id="150500" style="fill:#d4ecb2"/>
<path d="" class="polyStyle" id="" style="fill:#d4ecb2"/>
<path d="" class="polyStyle" id="350500" style="fill:#fbe6ef"/>
<path d="" class="polyStyle" id="440400" style="fill:#f6f67b"/>
<path d="" class="polyStyle" id="421100" style="fill:#d4ecb2"/>
<path d="" class="polyStyle" id="420100" style="fill:#fbe6ef"/>
<path d="" class="polyStyle" id="532500" style="fill:#fbe6ef"/>
<path d="" class="polyStyle" id="654200" style="fill:#fbe6ef"/>
<path d="" class="polyStyle" id="210700" style="fill:#d4ecb2"/>
<path d="" class="polyStyle" id="522300" style="fill:#fbe6ef"/>
<path d="" class="polyStyle" id="" style="fill:#ee8b94"/>
<path d="" class="polyStyle" id="440400" style="fill:#f6f67b"/>
<path d="" class="polyStyle" id="620000" style="fill:#f6f67b"/>
<path d="" class="polyStyle" id="430000" style="fill:#fbe6ef"/>
<path d="" class="polyStyle" id="420000" style="fill:#ee8b94"/>
<path d="" class="polyStyle" id="410000" style="fill:#f6f67b"/>
<path d="" class="polyStyle" id="350000" style="fill:#fbe6ef"/>
<path d="" class="polyStyle" id="520000" style="fill:#f6f67b"/>
<path d="" class="polyStyle" id="" style="fill:#ee8b94"/>
</svg>
