<?xml version="1.0" encoding="UTF-8"?>
<!DOCTYPE svg PUBLIC "-//W3C//DTD SVG 1.1 Tiny//EN" "http://www.w3.org/Graphics/SVG/1.1/DTD/svg11-tiny.dtd">
<svg version="1.1" xmlns="http://www.w3.org/2000/svg" xmlns:xlink="http://www.w3.org/1999/xlink" width="100%" height="100%" viewBox="0,0,8354,7674">
<title>SVG</title>
<desc>Poligon Test</desc>
<style id="style_css_sheet" type="text/css">
.polyStyle{fill: #cccccc;stroke-width:0;fill-rule:evenodd;}
</style>
<circle cx="7567" cy="1692" r="200" stroke="black" stroke-width="1" fill="red" id="411281" name="义马市"/>
<circle cx="2572" cy="2827" r="200" stroke="black" stroke-width="1" fill="red" id="411282" name="灵宝市"/>
<circle cx="3443" cy="5160" r="200" stroke="black" stroke-width="1" fill="red" id="411224" name="卢氏县"/>
<circle cx="7106" cy="1650" r="200" stroke="black" stroke-width="1" fill="red" id="411221"position="44" name="渑池县"/>
<circle cx="3716" cy="1834" r="200" stroke="black" stroke-width="1" fill="red" id="411203" name="陕州区"/>
<circle cx="4204" cy="1532" r="200" stroke="black" stroke-width="1" fill="red" id="411202" name="湖滨区"/>
<path d="" class="polyStyle" id="" style="fill:#ee8b94"/>
<path d="" class="polyStyle" id="623022" style="fill:#fbe6ef"/>
<path d="" class="polyStyle" id="211421" style="fill:#f6f67b"/>
<path d="" class="polyStyle" id="532524" style="fill:#ee8b94"/>
<path d="" class="polyStyle" id="440825" style="fill:#f6f67b"/>
<path d="" class="polyStyle" id="441721" style="fill:#f6f67b"/>
<path d="" class="polyStyle" id="450521" style="fill:#f6f67b"/>
<path d="" class="polyStyle" id="450123" style="fill:#fbe6ef"/>
<path d="" class="polyStyle" id="350624" style="fill:#f6f67b"/>
<path d="" class="polyStyle" id="" style="fill:#fbe6ef"/>
<path d="" class="polyStyle" id="451224" style="fill:#fbe6ef"/>
<path d="" class="polyStyle" id="350627" style="fill:#f6f67b"/>
<path d="" class="polyStyle" id="" style="fill:#f6f67b"/>
<path d="" class="polyStyle" id="350525" style="fill:#f6f67b"/>
<path d="" class="polyStyle" id="530124" style="fill:#ee8b94"/>
<path d="" class="polyStyle" id="522627" style="fill:#ee8b94"/>
<path d="" class="polyStyle" id="510421" style="fill:#fbe6ef"/>
<path d="" class="polyStyle" id="522623" style="fill:#d4ecb2"/>
<path d="" class="polyStyle" id="430321" style="fill:#d4ecb2"/>
<path d="" class="polyStyle" id="511129" style="fill:#d4ecb2"/>
<path d="" class="polyStyle" id="511423" style="fill:#ee8b94"/>
<path d="" class="polyStyle" id="421023" style="fill:#f6f67b"/>
<path d="" class="polyStyle" id="511724" style="fill:#f6f67b"/>
<path d="" class="polyStyle" id="420526" style="fill:#fbe6ef"/>
<path d="" class="polyStyle" id="511923" style="fill:#fbe6ef"/>
<path d="" class="polyStyle" id="420325" style="fill:#fbe6ef"/>
<path d="" class="polyStyle" id="511921" style="fill:#f6f67b"/>
<path d="" class="polyStyle" id="542525" style="fill:#f6f67b"/>
<path d="" class="polyStyle" id="611026" style="fill:#ee8b94"/>
<path d="" class="polyStyle" id="411023" style="fill:#fbe6ef"/>
<polygon points="3621,3508 3656,3516 3697,3546 3719,3571 3728,3609 3738,3637 3769,3646 3794,3641 3831,3632 3862,3625 3885,3621 3891,3635 3894,3658 3910,3660 3934,3655 3970,3664 4006,3677 4009,3739 4025,3741 4040,3736 4045,3761 4059,3772 4087,3780 4127,3820 4140,3852 4143,3875 4149,3885 4153,3901 4157,3910 4173,3918 4192,3920 4202,3926 4205,3938 4199,3947 4188,3950 4159,3948 4149,3975 4138,3979 4120,3973 4106,3973 4103,3998 4120,4028 4137,4033 4137,4047 4112,4052 4110,4069 4114,4082 4117,4091 4112,4109 4101,4133 4105,4143 4133,4177 4135,4194 4121,4232 4115,4271 4102,4286 4077,4288 4055,4288 4038,4284 4019,4284 4004,4296 4002,4311 4030,4333 4070,4359 4118,4384 4165,4410 4203,4419 4229,4433 4248,4449 4250,4464 4249,4484 4249,4507 4257,4528 4272,4535 4300,4539 4323,4545 4353,4547 4364,4549 4369,4565 4389,4588 4403,4611 4432,4614 4452,4622 4459,4625 4467,4648 4487,4659 4491,4673 4493,4689 4532,4716 4544,4714 4550,4705 4567,4689 4583,4687 4594,4695 4594,4726 4601,4736 4632,4718 4642,4711 4659,4700 4679,4704 4699,4707 4711,4712 4723,4726 4736,4744 4734,4783 4740,4821 4766,4843 4818,4847 4868,4845 4905,4867 4921,4881 4972,4881 5003,4899 5011,4929 5033,4947 5039,4958 5041,4962 5043,4966 5043,4974 5022,4984 4995,4996 4971,5009 4970,5042 4962,5074 4942,5096 4918,5122 4919,5144 4921,5177 4922,5206 4921,5252 4940,5281 4962,5313 4973,5357 4971,5408 4966,5435 4968,5456 4988,5480 4984,5501 4964,5507 4939,5544 4922,5561 4900,5575 4872,5584 4852,5595 4825,5606 4808,5625 4792,5651 4769,5668 4741,5689 4734,5708 4732,5736 4726,5767 4725,5776 4716,5783 4700,5777 4675,5778 4654,5788 4640,5788 4623,5789 4615,5778 4624,5753 4617,5747 4607,5750 4592,5750 4576,5744 4548,5763 4523,5773 4501,5777 4486,5763 4452,5748 4429,5748 4392,5755 4358,5775 4338,5794 4328,5811 4330,5839 4340,5869 4360,5901 4377,5926 4387,5944 4369,5963 4352,5979 4334,5982 4327,5970 4325,5947 4316,5943 4306,5945 4304,5958 4303,5977 4290,5986 4279,5984 4266,5979 4257,5970 4235,5969 4218,5979 4223,5995 4223,6010 4248,6034 4282,6056 4292,6073 4286,6094 4279,6109 4301,6119 4351,6137 4378,6145 4381,6180 4394,6206 4422,6238 4456,6261 4499,6293 4500,6319 4499,6362 4502,6408 4502,6442 4467,6436 4442,6440 4401,6432 4375,6421 4341,6420 4312,6421 4299,6439 4296,6467 4268,6495 4238,6521 4227,6554 4215,6582 4196,6610 4179,6636 4177,6663 4170,6693 4176,6728 4184,6759 4178,6792 4182,6827 4176,6857 4151,6887 4125,6910 4114,6946 4108,6970 4088,6990 4055,7006 4014,7003 3985,6995 3952,7002 3923,7010 3890,7018 3863,7027 3859,7056 3884,7085 3910,7110 3937,7134 3963,7161 3966,7196 3952,7222 3921,7256 3884,7278 3883,7313 3892,7354 3875,7385 3846,7420 3829,7444 3812,7478 3800,7508 3771,7534 3749,7553 3726,7568 3701,7580 3670,7597 3624,7608 3598,7599 3563,7591 3530,7608 3508,7637 3483,7652 3451,7658 3418,7658 3377,7669 3347,7674 3314,7671 3286,7653 3268,7644 3249,7625 3236,7563 3230,7551 3224,7543 3218,7537 3210,7531 3174,7495 3162,7487 3154,7479 3098,7429 3074,7405 3068,7401 3060,7397 3054,7393 3046,7387 3040,7383 3030,7379 3018,7377 3012,7375 3006,7377 3000,7377 2988,7379 2982,7381 2974,7381 2962,7385 2954,7385 2948,7385 2942,7385 2934,7375 2932,7365 2926,7345 2916,7331 2900,7323 2894,7321 2882,7317 2838,7303 2768,7287 2730,7289 2714,7273 2702,7265 2686,7259 2656,7249 2620,7259 2610,7267 2600,7265 2596,7261 2594,7257 2584,7245 2562,7213 2556,7195 2548,7189 2530,7183 2522,7181 2504,7163 2490,7135 2478,7133 2466,7127 2448,7123 2416,7113 2410,7111 2406,7111 2402,7109 2396,7105 2390,7103 2384,7095 2376,7085 2378,7069 2378,7045 2378,7033 2372,7025 2354,7019 2338,7015 2322,7001 2318,6991 2316,6981 2316,6969 2320,6955 2322,6947 2362,6881 2366,6865 2366,6849 2358,6839 2348,6835 2342,6829 2332,6823 2328,6819 2318,6803 2312,6791 2310,6785 2306,6779 2300,6767 2296,6759 2288,6749 2281,6738 2272,6723 2272,6717 2276,6707 2290,6681 2288,6677 2286,6671 2278,6661 2262,6651 2250,6647 2240,6633 2214,6593 2202,6549 2188,6545 2162,6543 2142,6535 2120,6515 2116,6475 2118,6455 2113,6448 2102,6443 2092,6439 2081,6438 2076,6439 2066,6441 2060,6443 2058,6447 2053,6448 2046,6451 2038,6453 2028,6455 2012,6453 1968,6431 1948,6445 1930,6441 1914,6437 1904,6435 1900,6433 1892,6429 1876,6421 1836,6391 1830,6385 1824,6373 1820,6363 1820,6353 1816,6339 1812,6325 1806,6311 1799,6302 1764,6261 1760,6255 1752,6249 1742,6247 1732,6245 1724,6247 1712,6249 1698,6249 1678,6243 1664,6233 1654,6233 1640,6239 1630,6239 1604,6209 1598,6205 1594,6203 1586,6199 1556,6177 1541,6166 1536,6163 1530,6161 1526,6159 1522,6159 1516,6159 1512,6159 1490,6165 1474,6173 1466,6177 1450,6193 1426,6199 1396,6193 1382,6191 1364,6191 1340,6199 1326,6183 1292,6177 1282,6177 1272,6175 1260,6171 1256,6165 1256,6161 1256,6155 1258,6149 1266,6137 1268,6131 1266,6123 1266,6117 1266,6107 1266,6097 1264,6089 1260,6083 1256,6079 1252,6077 1246,6075 1228,6071 1200,6073 1174,6027 1166,6021 1154,6013 1150,6011 1146,6007 1138,5999 1136,5991 1140,5963 1144,5949 1144,5935 1154,5927 1158,5923 1172,5915 1212,5899 1220,5897 1242,5889 1274,5887 1290,5885 1304,5889 1342,5889 1344,5885 1344,5875 1342,5855 1334,5849 1320,5843 1316,5837 1316,5833 1322,5819 1326,5811 1330,5799 1334,5797 1344,5795 1360,5799 1370,5801 1374,5799 1378,5793 1380,5783 1384,5775 1392,5769 1406,5763 1416,5753 1422,5745 1428,5719 1430,5711 1430,5705 1444,5703 1464,5709 1484,5719 1494,5731 1506,5737 1516,5735 1528,5735 1538,5733 1544,5731 1548,5729 1558,5721 1560,5717 1566,5711 1578,5701 1580,5695 1582,5685 1586,5675 1576,5657 1572,5643 1568,5625 1568,5607 1560,5601 1554,5597 1550,5593 1534,5589 1492,5577 1478,5575 1464,5575 1458,5573 1450,5567 1448,5557 1454,5545 1458,5529 1456,5517 1456,5497 1454,5489 1450,5471 1450,5465 1448,5447 1448,5435 1444,5423 1439,5412 1430,5407 1418,5403 1395,5390 1394,5379 1395,5375 1394,5371 1394,5368 1393,5365 1392,5362 1390,5358 1386,5351 1383,5348 1381,5345 1372,5337 1366,5335 1353,5331 1344,5330 1343,5325 1342,5321 1342,5318 1342,5315 1343,5312 1346,5309 1349,5307 1353,5304 1356,5303 1360,5301 1364,5297 1364,5293 1364,5290 1361,5288 1358,5285 1354,5283 1351,5281 1344,5277 1341,5274 1338,5271 1336,5268 1334,5263 1332,5258 1324,5249 1315,5245 1303,5245 1300,5245 1296,5246 1293,5248 1290,5249 1286,5252 1283,5254 1280,5257 1277,5260 1282,5279 1280,5287 1276,5297 1272,5303 1266,5309 1254,5311 1240,5313 1206,5311 1186,5311 1164,5311 1146,5311 1132,5309 1128,5307 1124,5295 1126,5283 1132,5267 1138,5247 1134,5233 1124,5227 1108,5219 1109,5209 1113,5202 1117,5201 1120,5202 1124,5203 1130,5203 1138,5202 1151,5196 1154,5195 1152,5192 1149,5190 1147,5186 1148,5182 1149,5179 1151,5176 1151,5173 1150,5170 1147,5168 1144,5166 1141,5164 1138,5161 1137,5158 1139,5155 1143,5153 1146,5151 1150,5150 1153,5147 1156,5146 1159,5143 1159,5140 1159,5137 1156,5133 1151,5129 1148,5127 1144,5125 1142,5121 1144,5117 1147,5116 1151,5116 1154,5115 1157,5113 1160,5111 1162,5108 1162,5105 1162,5102 1162,5099 1165,5097 1169,5096 1172,5081 1172,5061 1170,5051 1174,5027 1174,5009 1174,5003 1174,4999 1166,4961 1162,4951 1154,4943 1152,4935 1150,4929 1152,4923 1156,4917 1160,4913 1162,4909 1164,4903 1176,4895 1194,4889 1204,4889 1218,4889 1222,4889 1228,4889 1252,4879 1266,4867 1294,4803 1310,4791 1326,4779 1346,4775 1348,4771 1344,4765 1320,4751 1318,4743 1322,4733 1332,4719 1364,4697 1372,4689 1396,4671 1404,4657 1406,4651 1408,4641 1414,4627 1414,4621 1442,4638 1465,4656 1499,4671 1518,4675 1544,4679 1571,4701 1599,4723 1626,4736 1655,4734 1681,4727 1713,4725 1740,4728 1770,4718 1802,4710 1827,4717 1855,4732 1885,4743 1911,4741 1940,4754 1961,4770 1989,4783 2014,4807 2033,4819 2052,4825 2080,4820 2110,4817 2139,4816 2152,4788 2161,4761 2183,4735 2209,4728 2235,4726 2262,4723 2281,4710 2287,4699 2296,4671 2318,4645 2331,4618 2362,4600 2387,4591 2413,4587 2442,4580 2469,4573 2487,4558 2498,4549 2526,4525 2556,4500 2587,4478 2609,4459 2617,4444 2616,4428 2595,4418 2566,4410 2540,4407 2525,4399 2511,4384 2494,4357 2465,4329 2450,4299 2447,4274 2459,4246 2464,4219 2490,4196 2499,4163 2505,4118 2505,4086 2509,4058 2516,4030 2530,4000 2511,3973 2498,3944 2489,3910 2503,3884 2502,3851 2496,3825 2503,3803 2514,3791 2542,3793 2568,3806 2584,3833 2592,3856 2611,3891 2620,3920 2631,3943 2655,3975 2687,3991 2713,4007 2743,4001 2770,3997 2777,4014 2765,4041 2765,4064 2776,4097 2787,4121 2779,4146 2774,4164 2786,4184 2811,4179 2832,4160 2849,4139 2878,4117 2908,4113 2932,4117 2961,4115 2987,4116 3023,4121 3043,4101 3071,4092 3117,4085 3141,4061 3166,4054 3186,4042 3213,4038 3231,4033 3256,4031 3286,4019 3311,4011 3339,4010 3368,4036 3387,4044 3400,4038 3406,4030 3382,3999 3379,3971 3401,3936 3427,3897 3456,3857 3471,3816 3471,3779 3464,3743 3466,3708 3463,3681 3459,3638 3467,3609 3489,3579 3499,3543 3500,3512 3531,3498 3577,3503 " class="polyStyle" id="411224" style="fill:#fbe6ef"/>
<polygon points="5981,1173 5994,1181 6003,1198 6006,1201 6009,1206 6012,1208 5999,1243 6008,1270 5999,1285 5987,1301 5970,1313 5976,1342 6002,1360 6020,1346 6034,1343 6048,1354 6058,1375 6083,1392 6086,1404 6085,1431 6085,1463 6102,1469 6115,1481 6111,1492 6089,1519 6073,1533 6061,1551 6063,1601 6070,1627 6083,1668 6110,1695 6138,1709 6149,1736 6160,1771 6183,1801 6193,1831 6177,1858 6162,1870 6156,1885 6171,1900 6187,1910 6213,1931 6217,1965 6235,1993 6276,2006 6313,1997 6347,1978 6388,1963 6415,1960 6437,1962 6465,1999 6476,2027 6502,2054 6524,2072 6560,2071 6590,2051 6610,2055 6627,2070 6635,2085 6647,2095 6661,2097 6683,2094 6710,2094 6755,2094 6790,2103 6812,2133 6826,2159 6834,2190 6838,2217 6844,2250 6842,2276 6829,2287 6810,2296 6783,2316 6782,2345 6800,2369 6832,2386 6865,2399 6893,2408 6880,2415 6858,2443 6834,2458 6800,2466 6774,2466 6747,2479 6725,2496 6708,2509 6699,2537 6682,2552 6652,2556 6620,2559 6590,2561 6567,2561 6562,2574 6569,2593 6584,2614 6597,2638 6624,2655 6646,2676 6672,2711 6682,2736 6676,2753 6667,2760 6637,2762 6605,2756 6577,2743 6556,2726 6505,2704 6447,2683 6378,2661 6329,2646 6294,2646 6271,2638 6252,2610 6241,2591 6215,2580 6190,2574 6160,2584 6140,2595 6142,2618 6153,2640 6164,2651 6159,2666 6132,2663 6115,2649 6100,2619 6087,2606 6063,2597 6046,2599 6035,2608 6016,2627 6003,2649 5990,2670 5971,2693 5950,2704 5932,2708 5902,2691 5879,2685 5855,2689 5834,2702 5819,2702 5800,2685 5780,2685 5757,2698 5740,2721 5718,2747 5690,2779 5649,2807 5602,2833 5568,2841 5544,2843 5523,2859 5508,2878 5489,2901 5457,2910 5418,2933 5386,2940 5337,2970 5290,2987 5253,2993 5223,2996 5206,3009 5191,3023 5169,3039 5139,3053 5088,3054 5062,3041 5058,3024 5032,3023 4996,3038 4957,3053 4908,3066 4872,3064 4840,3064 4808,3064 4773,3064 4739,3053 4728,3034 4726,3008 4730,2985 4713,2978 4692,2978 4662,2991 4630,3011 4613,3028 4593,3043 4576,3064 4568,3081 4572,3111 4576,3137 4582,3167 4574,3186 4548,3189 4497,3180 4430,3163 4368,3144 4332,3126 4300,3128 4276,3143 4270,3173 4274,3210 4263,3237 4272,3274 4266,3293 4227,3316 4197,3334 4163,3339 4155,3345 4153,3324 4149,3299 4150,3276 4165,3255 4172,3228 4142,3203 4112,3182 4071,3180 4043,3182 4015,3180 3985,3158 3975,3145 3974,3114 4000,3091 4039,3072 4066,3066 4087,3047 4061,3030 4026,3010 3992,2997 3968,2983 3942,2963 3920,2949 3892,2929 3865,2916 3840,2904 3834,2868 3810,2837 3797,2795 3798,2750 3800,2708 3788,2675 3796,2648 3821,2617 3821,2584 3794,2551 3762,2513 3749,2478 3747,2445 3743,2406 3733,2367 3715,2329 3681,2303 3636,2283 3612,2253 3596,2199 3576,2175 3528,2156 3490,2137 3453,2137 3420,2129 3387,2120 3377,2098 3379,2069 3372,2038 3370,1999 3394,1970 3404,1936 3399,1897 3394,1862 3365,1832 3361,1804 3343,1772 3348,1736 3375,1723 3435,1696 3483,1681 3563,1665 3639,1660 3723,1656 3774,1648 3797,1640 3811,1625 3823,1592 3842,1540 3877,1477 3880,1472 3911,1486 3925,1504 3937,1514 3958,1519 3969,1525 3985,1540 3998,1563 4001,1597 4019,1634 4058,1655 4093,1660 4122,1667 4148,1703 4165,1729 4190,1752 4217,1770 4247,1773 4289,1782 4319,1808 4336,1836 4367,1863 4375,1888 4393,1903 4420,1903 4427,1890 4457,1893 4482,1901 4492,1912 4491,1923 4483,1928 4458,1925 4447,1929 4430,1940 4412,1950 4412,1959 4438,1967 4513,2035 4491,2049 4490,2059 4487,2074 4495,2077 4511,2068 4526,2072 4540,2072 4545,2083 4552,2076 4565,2063 4581,2051 4577,2042 4565,2034 4569,2015 4579,2014 4587,2024 4594,2013 4587,1989 4591,1975 4601,1967 4631,1962 4641,1945 4635,1927 4622,1921 4612,1903 4632,1884 4654,1878 4681,1884 4716,1886 4756,1888 4795,1883 4833,1880 4869,1879 4886,1847 4918,1844 4941,1825 4957,1813 4950,1795 4930,1792 4912,1791 4871,1788 4857,1773 4847,1747 4867,1730 4912,1734 4930,1717 4933,1700 4914,1688 4873,1671 4831,1660 4804,1648 4778,1641 4754,1626 4765,1603 4788,1593 4801,1599 4815,1604 4829,1610 4842,1615 4856,1618 4870,1618 4883,1619 4897,1619 4911,1620 4924,1616 4938,1614 4952,1612 4965,1609 4979,1608 4993,1608 5006,1609 5020,1613 5026,1613 5061,1621 5094,1630 5137,1630 5163,1635 5194,1622 5208,1602 5196,1588 5178,1589 5161,1587 5144,1577 5142,1558 5158,1544 5168,1518 5179,1486 5188,1446 5200,1418 5207,1395 5202,1373 5197,1345 5215,1334 5234,1314 5251,1303 5264,1296 5278,1292 5293,1290 5311,1291 5333,1286 5350,1278 5366,1266 5377,1251 5386,1244 5396,1240 5411,1243 5431,1246 5453,1247 5465,1252 5499,1282 5509,1289 5520,1296 5529,1297 5556,1298 5593,1301 5620,1296 5642,1288 5657,1287 5675,1287 5688,1285 5704,1277 5722,1264 5730,1256 5737,1245 5741,1237 5746,1233 5768,1232 5781,1226 5796,1213 5810,1197 5824,1187 5843,1180 5880,1173 5913,1166 5944,1163 5969,1168 " class="polyStyle" id="411222" style="fill:#ee8b94"/>
<polygon points="7981,10 7999,15 8038,39 8051,47 8059,50 8073,56 8028,90 8009,110 8000,129 7999,157 7994,194 7984,215 7968,214 7952,206 7934,212 7907,228 7889,244 7876,254 7875,261 7882,267 7901,267 7919,272 7939,289 7971,326 8042,364 8118,402 8141,417 8134,425 8121,425 8115,435 8118,448 8112,453 8114,463 8123,468 8118,475 8104,478 8092,472 8086,458 8081,456 8074,471 8063,479 8039,489 8013,491 8004,499 7981,502 7945,499 7925,510 7909,516 7909,522 7926,522 7949,523 7997,524 8006,538 8018,552 8033,557 8058,549 8073,551 8079,560 8075,568 8082,572 8103,572 8122,566 8129,567 8132,573 8126,585 8118,591 8112,603 8115,614 8132,629 8114,636 8099,646 8066,659 8018,668 7983,688 7940,688 7908,682 7881,680 7854,695 7848,718 7841,738 7809,763 7756,776 7736,770 7703,784 7658,800 7629,825 7614,847 7607,866 7591,873 7581,883 7586,887 7610,901 7611,912 7597,930 7605,947 7634,947 7651,958 7681,968 7689,981 7695,991 7743,996 7784,996 7807,1007 7840,1036 7891,1067 7921,1091 7947,1112 7953,1127 7930,1164 7931,1173 7943,1178 8022,1157 8081,1142 8100,1134 8122,1134 8142,1133 8155,1142 8159,1166 8148,1178 8133,1191 8127,1208 8137,1228 8174,1254 8193,1279 8229,1307 8259,1318 8285,1343 8305,1363 8305,1393 8292,1414 8283,1429 8289,1444 8326,1453 8349,1470 8354,1498 8345,1528 8320,1538 8300,1560 8287,1584 8283,1594 8285,1613 8285,1635 8274,1656 8259,1667 8242,1678 8217,1674 8199,1684 8202,1703 8195,1721 8187,1740 8193,1753 8229,1766 8247,1776 8249,1789 8247,1806 8230,1815 8212,1823 8191,1838 8184,1858 8180,1884 8180,1889 8163,1865 8153,1850 8133,1833 8112,1826 8075,1820 8047,1811 8031,1807 8017,1802 8003,1794 7990,1781 7999,1763 8006,1738 7997,1719 7968,1716 7939,1727 7924,1744 7905,1755 7878,1749 7859,1734 7849,1720 7847,1706 7851,1688 7841,1663 7832,1642 7842,1605 7853,1576 7841,1548 7815,1527 7760,1495 7731,1479 7674,1456 7647,1446 7618,1437 7568,1429 7525,1422 7493,1417 7454,1419 7418,1433 7397,1470 7407,1504 7422,1525 7435,1543 7441,1564 7430,1583 7406,1599 7380,1616 7357,1641 7343,1669 7333,1693 7328,1731 7337,1756 7356,1780 7386,1797 7425,1809 7472,1819 7503,1828 7532,1837 7577,1845 7605,1846 7618,1853 7631,1866 7646,1875 7667,1883 7700,1894 7718,1905 7740,1917 7788,1927 7818,1920 7836,1913 7851,1913 7872,1916 7885,1930 7910,1945 7944,1955 7976,1966 8005,1967 8027,1965 8058,1951 8085,1951 8116,1961 8110,1961 8092,1974 8084,2001 8080,2025 8086,2059 8075,2091 8082,2115 8099,2134 8107,2151 8110,2164 8088,2183 8067,2198 8041,2220 8005,2228 7979,2226 7957,2231 7945,2250 7945,2271 7949,2295 7944,2308 7923,2325 7900,2338 7880,2361 7872,2383 7863,2400 7852,2398 7831,2389 7820,2370 7799,2349 7784,2331 7760,2312 7735,2308 7717,2314 7702,2321 7683,2319 7655,2308 7634,2291 7599,2265 7570,2244 7548,2211 7518,2181 7479,2173 7435,2166 7392,2168 7360,2173 7334,2186 7319,2199 7323,2214 7329,2233 7329,2256 7314,2263 7284,2258 7257,2248 7233,2248 7212,2252 7195,2256 7184,2259 7164,2280 7143,2299 7141,2321 7141,2351 7132,2372 7117,2376 7094,2378 7072,2366 7047,2372 7032,2385 7030,2408 7029,2426 7021,2451 6999,2454 6972,2454 6957,2443 6939,2421 6916,2409 6897,2406 6893,2408 6865,2399 6832,2386 6800,2369 6782,2345 6783,2316 6810,2296 6829,2287 6842,2276 6844,2250 6838,2217 6834,2190 6826,2159 6812,2133 6790,2103 6755,2094 6710,2094 6683,2094 6661,2097 6647,2095 6635,2085 6627,2070 6610,2055 6590,2051 6560,2071 6524,2072 6502,2054 6476,2027 6465,1999 6437,1962 6415,1960 6388,1963 6347,1978 6313,1997 6276,2006 6235,1993 6217,1965 6213,1931 6187,1910 6171,1900 6156,1885 6162,1870 6177,1858 6193,1831 6183,1801 6160,1771 6149,1736 6138,1709 6110,1695 6083,1668 6070,1627 6063,1601 6061,1551 6073,1533 6089,1519 6111,1492 6115,1481 6102,1469 6085,1463 6085,1431 6086,1404 6083,1392 6058,1375 6048,1354 6034,1343 6020,1346 6002,1360 5976,1342 5970,1313 5987,1301 5999,1285 6008,1270 5999,1243 6012,1208 6016,1211 6023,1214 6030,1214 6037,1214 6047,1211 6060,1204 6077,1190 6100,1173 6109,1164 6119,1144 6122,1140 6137,1130 6147,1113 6154,1097 6156,1088 6158,1075 6158,1053 6160,1021 6164,1003 6169,993 6181,980 6189,974 6199,968 6213,963 6241,953 6251,952 6266,952 6277,950 6285,946 6289,940 6300,898 6307,880 6310,858 6312,844 6316,834 6322,828 6335,821 6346,814 6352,807 6359,794 6362,789 6374,778 6385,771 6411,744 6432,725 6443,720 6457,718 6491,719 6510,716 6532,709 6548,700 6557,695 6583,685 6591,682 6598,677 6605,667 6608,655 6604,641 6584,563 6579,555 6569,544 6544,524 6535,517 6529,509 6526,501 6526,493 6529,486 6536,480 6541,478 6546,476 6557,475 6599,473 6613,472 6629,468 6641,463 6648,458 6651,456 6653,452 6655,445 6659,433 6664,428 6670,425 6683,420 6726,411 6770,398 6790,395 6806,395 6855,400 6881,399 6900,392 6906,387 6910,379 6920,357 6935,342 6956,334 6983,331 7029,336 7042,331 7059,321 7067,314 7073,306 7076,296 7078,280 7083,273 7099,270 7127,273 7150,276 7172,276 7191,273 7206,267 7213,264 7219,259 7231,247 7239,232 7243,217 7250,154 7257,122 7263,108 7270,97 7278,89 7288,84 7357,59 7390,50 7411,46 7436,42 7459,41 7499,45 7534,51 7566,51 7592,46 7658,29 7684,25 7701,25 7709,26 7731,36 7746,39 7774,40 7793,37 7813,29 7837,13 7848,7 7862,3 7899,0 7949,4 " class="polyStyle" id="411221" style="fill:#d4ecb2"/>
<path d="" class="polyStyle" id="632323" style="fill:#f6f67b"/>
<path d="" class="polyStyle" id="140525" style="fill:#d4ecb2"/>
<path d="" class="polyStyle" id="410922" style="fill:#ee8b94"/>
<path d="" class="polyStyle" id="621027" style="fill:#ee8b94"/>
<path d="" class="polyStyle" id="130427" style="fill:#f6f67b"/>
<path d="" class="polyStyle" id="130121" style="fill:#ee8b94"/>
<path d="" class="polyStyle" id="610823" style="fill:#fbe6ef"/>
<path d="" class="polyStyle" id="130225" style="fill:#fbe6ef"/>
<path d="" class="polyStyle" id="130322" style="fill:#d4ecb2"/>
<path d="" class="polyStyle" id="653130" style="fill:#f6f67b"/>
<path d="" class="polyStyle" id="130822" style="fill:#fbe6ef"/>
<path d="" class="polyStyle" id="211221" style="fill:#f6f67b"/>
<path d="" class="polyStyle" id="210921" style="fill:#f6f67b"/>
<path d="" class="polyStyle" id="150223" style="fill:#f8c67d"/>
<path d="" class="polyStyle" id="220422" style="fill:#d4ecb2"/>
<path d="" class="polyStyle" id="340721" style="fill:#f6f67b"/>
<path d="" class="polyStyle" id="510824" style="fill:#d4ecb2"/>
<path d="" class="polyStyle" id="610324" style="fill:#f6f67b"/>
<path d="" class="polyStyle" id="530722" style="fill:#ee8b94"/>
<path d="" class="polyStyle" id="340823" style="fill:#d4ecb2"/>
<path d="" class="polyStyle" id="620825" style="fill:#d4ecb2"/>
<path d="" class="polyStyle" id="421125" style="fill:#ee8b94"/>
<path d="" class="polyStyle" id="210281" style="fill:#ee8b94"/>
<path d="" class="polyStyle" id="440883" style="fill:#f6f67b"/>
<path d="" class="polyStyle" id="469006" style="fill:#d4ecb2"/>
<path d="" class="polyStyle" id="469002" style="fill:#ee8b94"/>
<path d="" class="polyStyle" id="469005" style="fill:#fbe6ef"/>
<path d="" class="polyStyle" id="440882" style="fill:#ee8b94"/>
<path d="" class="polyStyle" id="450681" style="fill:#ee8b94"/>
<path d="" class="polyStyle" id="441581" style="fill:#d4ecb2"/>
<path d="" class="polyStyle" id="421087" style="fill:#ee8b94"/>
<path d="" class="polyStyle" id="420984" style="fill:#fbe6ef"/>
<path d="" class="polyStyle" id="420582" style="fill:#ee8b94"/>
<polygon points="3361,1804 3365,1832 3394,1862 3399,1897 3404,1936 3394,1970 3370,1999 3372,2038 3379,2069 3377,2098 3387,2120 3420,2129 3453,2137 3490,2137 3528,2156 3576,2175 3596,2199 3612,2253 3636,2283 3681,2303 3715,2329 3733,2367 3743,2406 3747,2445 3749,2478 3762,2513 3794,2551 3821,2584 3821,2617 3796,2648 3788,2675 3800,2708 3798,2750 3797,2795 3810,2837 3834,2868 3840,2904 3865,2916 3892,2929 3920,2949 3942,2963 3968,2983 3992,2997 4026,3010 4061,3030 4087,3047 4066,3066 4039,3072 4000,3091 3974,3114 3975,3145 3985,3158 4015,3180 4043,3182 4071,3180 4112,3182 4142,3203 4172,3228 4165,3255 4150,3276 4149,3299 4153,3324 4155,3345 4148,3351 4140,3373 4150,3401 4169,3422 4167,3433 4126,3437 4092,3439 4060,3448 4038,3456 4002,3450 3976,3450 3957,3465 3941,3484 3919,3494 3920,3517 3921,3540 3916,3551 3896,3568 3905,3594 3897,3606 3884,3618 3885,3621 3862,3625 3831,3632 3794,3641 3769,3646 3738,3637 3728,3609 3719,3571 3697,3546 3656,3516 3621,3508 3577,3503 3531,3498 3500,3512 3499,3543 3489,3579 3467,3609 3459,3638 3463,3681 3466,3708 3464,3743 3471,3779 3471,3816 3456,3857 3427,3897 3401,3936 3379,3971 3382,3999 3406,4030 3400,4038 3387,4044 3368,4036 3339,4010 3311,4011 3286,4019 3256,4031 3231,4033 3213,4038 3186,4042 3166,4054 3141,4061 3117,4085 3071,4092 3043,4101 3023,4121 2987,4116 2961,4115 2932,4117 2908,4113 2878,4117 2849,4139 2832,4160 2811,4179 2786,4184 2774,4164 2779,4146 2787,4121 2776,4097 2765,4064 2765,4041 2777,4014 2770,3997 2743,4001 2713,4007 2687,3991 2655,3975 2631,3943 2620,3920 2611,3891 2592,3856 2584,3833 2568,3806 2542,3793 2514,3791 2503,3803 2496,3825 2502,3851 2503,3884 2489,3910 2498,3944 2511,3973 2530,4000 2516,4030 2509,4058 2505,4086 2505,4118 2499,4163 2490,4196 2464,4219 2459,4246 2447,4274 2450,4299 2465,4329 2494,4357 2511,4384 2525,4399 2540,4407 2566,4410 2595,4418 2616,4428 2617,4444 2609,4459 2587,4478 2556,4500 2526,4525 2498,4549 2487,4558 2469,4573 2442,4580 2413,4587 2387,4591 2362,4600 2331,4618 2318,4645 2296,4671 2287,4699 2281,4710 2262,4723 2235,4726 2209,4728 2183,4735 2161,4761 2152,4788 2139,4816 2110,4817 2080,4820 2052,4825 2033,4819 2014,4807 1989,4783 1961,4770 1940,4754 1911,4741 1885,4743 1855,4732 1827,4717 1802,4710 1770,4718 1740,4728 1713,4725 1681,4727 1655,4734 1626,4736 1599,4723 1571,4701 1544,4679 1518,4675 1499,4671 1465,4656 1442,4638 1414,4621 1414,4619 1410,4615 1398,4599 1388,4591 1383,4588 1374,4581 1364,4573 1332,4551 1320,4543 1314,4541 1304,4539 1280,4545 1272,4547 1262,4551 1238,4549 1226,4547 1216,4547 1202,4547 1166,4539 1146,4533 1142,4531 1140,4527 1142,4511 1148,4503 1152,4497 1158,4491 1158,4487 1158,4483 1152,4479 1138,4475 1126,4471 1118,4469 1102,4465 1094,4467 1086,4465 1076,4471 1064,4475 1054,4477 1040,4479 1024,4479 1002,4473 990,4469 982,4463 972,4439 970,4435 970,4429 968,4425 968,4419 968,4413 968,4409 962,4375 952,4357 947,4352 920,4341 906,4337 900,4335 856,4333 822,4337 792,4347 780,4351 766,4351 762,4351 754,4349 748,4347 742,4343 736,4339 732,4337 720,4327 702,4315 680,4299 666,4287 662,4271 644,4259 626,4265 592,4259 566,4257 552,4245 534,4237 520,4231 512,4231 496,4235 468,4225 440,4225 416,4225 408,4225 402,4221 398,4217 394,4205 394,4193 396,4181 402,4173 406,4165 414,4157 414,4149 410,4139 404,4129 396,4125 384,4121 376,4109 374,4093 364,4079 354,4069 338,4059 326,4043 326,4037 326,4023 332,4009 336,3999 344,3983 350,3979 370,3969 376,3969 380,3969 386,3973 398,3977 424,3979 444,3983 462,3983 458,3965 474,3949 486,3933 492,3921 502,3907 508,3905 538,3907 546,3875 550,3861 554,3849 556,3831 556,3821 560,3813 566,3811 572,3811 580,3813 590,3817 602,3827 618,3831 632,3831 642,3833 650,3831 660,3831 680,3829 694,3827 704,3823 718,3791 722,3767 720,3735 716,3705 710,3687 706,3681 690,3673 670,3667 658,3661 646,3657 638,3651 622,3635 614,3621 610,3607 606,3585 608,3555 604,3547 600,3537 598,3531 594,3521 584,3487 574,3465 572,3451 572,3439 578,3425 582,3413 586,3395 584,3387 582,3383 572,3379 562,3379 540,3379 524,3383 514,3391 502,3409 498,3413 494,3415 456,3419 446,3417 430,3411 408,3401 356,3379 352,3377 340,3369 330,3365 310,3353 296,3347 286,3345 276,3341 266,3333 256,3325 248,3315 250,3299 250,3285 238,3265 228,3255 218,3241 212,3223 212,3195 212,3181 202,3163 182,3135 178,3129 162,3109 160,3103 154,3095 120,3053 110,3043 106,3039 98,3033 90,3025 84,3011 74,2977 70,2967 60,2951 46,2937 40,2929 24,2899 24,2889 20,2885 18,2879 18,2863 16,2857 14,2851 12,2843 12,2839 12,2831 14,2821 16,2811 14,2801 12,2793 8,2783 6,2779 0,2759 2,2749 10,2745 22,2741 28,2739 36,2733 54,2721 58,2719 66,2713 72,2711 80,2705 92,2699 98,2695 102,2691 102,2687 99,2672 108,2665 112,2665 124,2663 134,2661 142,2661 158,2661 168,2663 186,2661 204,2657 210,2655 216,2649 222,2639 226,2629 228,2621 228,2615 230,2599 228,2596 225,2595 218,2597 210,2603 196,2611 176,2617 162,2619 128,2617 106,2615 62,2607 38,2599 32,2599 28,2593 22,2585 26,2575 34,2571 40,2567 46,2563 50,2556 58,2539 58,2533 58,2527 50,2503 46,2491 46,2485 86,2429 115,2426 127,2426 135,2428 141,2430 151,2438 181,2456 205,2466 217,2468 259,2480 301,2486 339,2478 371,2460 399,2440 429,2422 453,2408 481,2386 509,2358 521,2350 533,2342 543,2338 555,2338 571,2342 591,2346 605,2354 639,2370 691,2400 715,2416 737,2428 753,2442 769,2454 787,2468 801,2476 823,2488 843,2500 861,2508 887,2514 895,2514 911,2512 975,2496 1027,2480 1077,2472 1097,2468 1123,2460 1143,2450 1153,2444 1181,2418 1213,2390 1221,2386 1245,2372 1263,2370 1287,2378 1309,2392 1331,2400 1353,2410 1397,2424 1425,2436 1433,2442 1453,2458 1471,2468 1503,2480 1513,2482 1525,2484 1545,2482 1579,2470 1601,2460 1607,2454 1621,2420 1633,2402 1651,2380 1661,2374 1667,2370 1673,2370 1681,2372 1685,2376 1697,2390 1711,2402 1719,2404 1725,2408 1737,2406 1749,2400 1757,2392 1765,2376 1769,2358 1781,2330 1795,2294 1817,2278 1865,2260 1893,2244 1909,2220 1921,2206 1935,2178 1947,2168 1971,2160 2009,2160 2055,2170 2077,2170 2091,2172 2127,2184 2151,2200 2165,2210 2189,2232 2233,2264 2255,2278 2289,2294 2301,2300 2313,2302 2325,2302 2347,2288 2355,2280 2373,2268 2397,2244 2411,2236 2439,2224 2451,2222 2465,2224 2481,2230 2487,2230 2501,2236 2543,2248 2555,2248 2563,2246 2599,2224 2609,2216 2625,2202 2641,2184 2649,2172 2691,2124 2707,2108 2717,2092 2743,2038 2753,2010 2765,1976 2771,1950 2773,1938 2775,1910 2777,1878 2781,1830 2793,1790 2801,1778 2825,1768 2839,1766 2869,1770 2887,1776 2899,1782 2915,1789 2929,1796 2955,1812 2969,1820 2995,1840 3005,1852 3013,1862 3019,1872 3027,1882 3035,1900 3041,1906 3047,1910 3055,1912 3071,1908 3095,1892 3113,1880 3125,1870 3141,1862 3195,1820 3225,1802 3243,1792 3250,1788 3269,1777 3286,1767 3310,1754 3348,1736 3343,1772 " class="polyStyle" id="411282" style="fill:#d4ecb2"/>
<polygon points="7568,1429 7618,1437 7647,1446 7674,1456 7731,1479 7760,1495 7815,1527 7841,1548 7853,1576 7842,1605 7832,1642 7841,1663 7851,1688 7847,1706 7849,1720 7859,1734 7878,1749 7905,1755 7924,1744 7939,1727 7968,1716 7997,1719 8006,1738 7999,1763 7990,1781 8003,1794 8017,1802 8031,1807 8047,1811 8075,1820 8112,1826 8133,1833 8153,1850 8163,1865 8180,1889 8180,1911 8184,1933 8182,1944 8179,1951 8176,1961 8152,1961 8129,1961 8116,1961 8085,1951 8058,1951 8027,1965 8005,1967 7976,1966 7944,1955 7910,1945 7885,1930 7872,1916 7851,1913 7836,1913 7818,1920 7788,1927 7740,1917 7718,1905 7700,1894 7667,1883 7646,1875 7631,1866 7618,1853 7605,1846 7577,1845 7532,1837 7503,1828 7472,1819 7425,1809 7386,1797 7356,1780 7337,1756 7328,1731 7333,1693 7343,1669 7357,1641 7380,1616 7406,1599 7430,1583 7441,1564 7435,1543 7422,1525 7407,1504 7397,1470 7418,1433 7454,1419 7493,1417 7525,1422 " class="polyStyle" id="411281" style="fill:#f6f67b"/>
<path d="" class="polyStyle" id="370282" style="fill:#f6f67b"/>
<path d="" class="polyStyle" id="371083" style="fill:#f6f67b"/>
<path d="" class="polyStyle" id="371082" style="fill:#fbe6ef"/>
<path d="" class="polyStyle" id="652801" style="fill:#f8c67d"/>
<path d="" class="polyStyle" id="654301" style="fill:#ee8b94"/>
<path d="" class="polyStyle" id="370687" style="fill:#ee8b94"/>
<path d="" class="polyStyle" id="371482" style="fill:#d4ecb2"/>
<path d="" class="polyStyle" id="421081" style="fill:#fbe6ef"/>
<path d="" class="polyStyle" id="429006" style="fill:#f6f67b"/>
<path d="" class="polyStyle" id="440982" style="fill:#d4ecb2"/>
<path d="" class="polyStyle" id="421181" style="fill:#d4ecb2"/>
<path d="" class="polyStyle" id="321181" style="fill:#d4ecb2"/>
<path d="" class="polyStyle" id="659007" style="fill:#ee8b94"/>
<path d="" class="polyStyle" id="652701" style="fill:#fbe6ef"/>
<path d="" class="polyStyle" id="210781" style="fill:#fbe6ef"/>
<path d="" class="polyStyle" id="460204" style="fill:#f6f67b"/>
<path d="" class="polyStyle" id="210211" style="fill:#f6f67b"/>
<path d="" class="polyStyle" id="450512" style="fill:#ee8b94"/>
<path d="" class="polyStyle" id="450602" style="fill:#fbe6ef"/>
<path d="" class="polyStyle" id="440404" style="fill:#ee8b94"/>
<path d="" class="polyStyle" id="440403" style="fill:#f6f67b"/>
<path d="" class="polyStyle" id="441502" style="fill:#f6f67b"/>
<path d="" class="polyStyle" id="431002" style="fill:#d4ecb2"/>
<path d="" class="polyStyle" id="500107" style="fill:#fbe6ef"/>
<path d="" class="polyStyle" id="430611" style="fill:#d4ecb2"/>
<path d="" class="polyStyle" id="511304" style="fill:#fbe6ef"/>
<path d="" class="polyStyle" id="340711" style="fill:#ee8b94"/>
<path d="" class="polyStyle" id="320118" style="fill:#f6f67b"/>
<path d="" class="polyStyle" id="510704" style="fill:#f6f67b"/>
<path d="" class="polyStyle" id="411502" style="fill:#ee8b94"/>
<path d="" class="polyStyle" id="320302" style="fill:#d4ecb2"/>
<polygon points="4939,1276 4949,1283 4957,1297 4968,1309 4976,1314 4999,1322 5025,1327 5083,1335 5126,1346 5156,1354 5177,1354 5195,1347 5197,1345 5202,1373 5207,1395 5200,1418 5188,1446 5179,1486 5168,1518 5158,1544 5142,1558 5144,1577 5161,1587 5178,1589 5196,1588 5208,1602 5194,1622 5163,1635 5137,1630 5094,1630 5061,1621 5026,1613 5020,1613 5006,1609 4993,1608 4979,1608 4965,1609 4952,1612 4938,1614 4924,1616 4911,1620 4897,1619 4883,1619 4870,1618 4856,1618 4842,1615 4829,1610 4815,1604 4801,1599 4788,1593 4765,1603 4754,1626 4778,1641 4804,1648 4831,1660 4873,1671 4914,1688 4933,1700 4930,1717 4912,1734 4867,1730 4847,1747 4857,1773 4871,1788 4912,1791 4930,1792 4950,1795 4957,1813 4941,1825 4918,1844 4886,1847 4869,1879 4833,1880 4795,1883 4756,1888 4716,1886 4681,1884 4654,1878 4632,1884 4612,1903 4622,1921 4635,1927 4641,1945 4631,1962 4601,1967 4591,1975 4587,1989 4594,2013 4587,2024 4579,2014 4569,2015 4565,2034 4577,2042 4581,2051 4565,2063 4552,2076 4545,2083 4540,2072 4526,2072 4511,2068 4495,2077 4487,2074 4490,2059 4491,2049 4513,2035 4438,1967 4412,1959 4412,1950 4430,1940 4447,1929 4458,1925 4483,1928 4491,1923 4492,1912 4482,1901 4457,1893 4427,1890 4420,1903 4393,1903 4375,1888 4367,1863 4336,1836 4319,1808 4289,1782 4247,1773 4217,1770 4190,1752 4165,1729 4148,1703 4122,1667 4093,1660 4058,1655 4019,1634 4001,1597 3998,1563 3985,1540 3969,1525 3958,1519 3937,1514 3925,1504 3911,1486 3880,1472 3909,1425 3947,1382 3969,1365 3992,1355 4011,1352 4028,1355 4054,1379 4087,1410 4105,1417 4125,1418 4154,1414 4184,1412 4232,1419 4253,1427 4270,1438 4277,1451 4283,1464 4297,1476 4317,1482 4341,1483 4363,1477 4386,1464 4405,1445 4419,1410 4452,1351 4473,1331 4489,1325 4509,1332 4529,1342 4555,1353 4582,1370 4607,1379 4627,1391 4642,1395 4659,1393 4686,1377 4720,1356 4754,1336 4772,1333 4798,1330 4827,1324 4852,1310 4877,1289 4892,1274 4909,1270 4928,1272 " class="polyStyle" id="411202" style="fill:#fbe6ef"/>
<path d="" class="polyStyle" id="140311" style="fill:#ee8b94"/>
<path d="" class="polyStyle" id="610802" style="fill:#ee8b94"/>
<path d="" class="polyStyle" id="120116" style="fill:#f6f67b"/>
<path d="" class="polyStyle" id="130303" style="fill:#fbe6ef"/>
<path d="" class="polyStyle" id="140211" style="fill:#f6f67b"/>
<path d="" class="polyStyle" id="150207" style="fill:#fbe6ef"/>
<path d="" class="polyStyle" id="211403" style="fill:#f6f67b"/>
<path d="" class="polyStyle" id="150802" style="fill:#f8c67d"/>
<path d="" class="polyStyle" id="210112" style="fill:#ee8b94"/>
<path d="" class="polyStyle" id="230406" style="fill:#d4ecb2"/>
<path d="" class="polyStyle" id="110113" style="fill:#fbe6ef"/>
<path d="" class="polyStyle" id="341702" style="fill:#fbe6ef"/>
<path d="" class="polyStyle" id="420303" style="fill:#ee8b94"/>
<path d="" class="polyStyle" id="340702" style="fill:#d4ecb2"/>
<path d="" class="polyStyle" id="421002" style="fill:#f6f67b"/>
<path d="" class="polyStyle" id="420117" style="fill:#f6f67b"/>
<path d="" class="polyStyle" id="440904" style="fill:#f8c67d"/>
<path d="" class="polyStyle" id="460205" style="fill:#ee8b94"/>
<path d="" class="polyStyle" id="460202" style="fill:#f6f67b"/>
<path d="" class="polyStyle" id="460203" style="fill:#fbe6ef"/>
<path d="" class="polyStyle" id="420304" style="fill:#f6f67b"/>
<path d="" class="polyStyle" id="445302" style="fill:#ee8b94"/>
<path d="" class="polyStyle" id="410202" style="fill:#d4ecb2"/>
<path d="" class="polyStyle" id="440800" style="fill:#f6f67b"/>
<path d="" class="polyStyle" id="440900" style="fill:#ee8b94"/>
<path d="" class="polyStyle" id="340800" style="fill:#ee8b94"/>
<path d="" class="polyStyle" id="460200" style="fill:#f6f67b"/>
<path d="" class="polyStyle" id="460000" style="fill:#ee8b94"/>
<path d="" class="polyStyle" id="450500" style="fill:#ee8b94"/>
<path d="" class="polyStyle" id="450600" style="fill:#ee8b94"/>
<path d="" class="polyStyle" id="440400" style="fill:#f6f67b"/>
<path d="" class="polyStyle" id="441700" style="fill:#f6f67b"/>
<path d="" class="polyStyle" id="441500" style="fill:#f6f67b"/>
<path d="" class="polyStyle" id="350600" style="fill:#ee8b94"/>
<path d="" class="polyStyle" id="710000" style="fill:#f6f67b"/>
<path d="" class="polyStyle" id="510400" style="fill:#f6f67b"/>
<path d="" class="polyStyle" id="522600" style="fill:#fbe6ef"/>
<path d="" class="polyStyle" id="520500" style="fill:#ee8b94"/>
<path d="" class="polyStyle" id="431200" style="fill:#f6f67b"/>
<path d="" class="polyStyle" id="430600" style="fill:#f6f67b"/>
<path d="" class="polyStyle" id="511400" style="fill:#d4ecb2"/>
<path d="" class="polyStyle" id="421000" style="fill:#ee8b94"/>
<path d="" class="polyStyle" id="341700" style="fill:#f6f67b"/>
<path d="" class="polyStyle" id="420500" style="fill:#f6f67b"/>
<path d="" class="polyStyle" id="511300" style="fill:#f6f67b"/>
<path d="" class="polyStyle" id="420900" style="fill:#f6f67b"/>
<path d="" class="polyStyle" id="511700" style="fill:#ee8b94"/>
<path d="" class="polyStyle" id="420600" style="fill:#d4ecb2"/>
<path d="" class="polyStyle" id="411500" style="fill:#fbe6ef"/>
<path d="" class="polyStyle" id="510800" style="fill:#ee8b94"/>
<path d="" class="polyStyle" id="420300" style="fill:#fbe6ef"/>
<path d="" class="polyStyle" id="611000" style="fill:#ee8b94"/>
<path d="" class="polyStyle" id="620800" style="fill:#fbe6ef"/>
<path d="" class="polyStyle" id="370200" style="fill:#ee8b94"/>
<path d="" class="polyStyle" id="371000" style="fill:#f6f67b"/>
<path d="" class="polyStyle" id="370600" style="fill:#fbe6ef"/>
<path d="" class="polyStyle" id="120000" style="fill:#f6f67b"/>
<path d="" class="polyStyle" id="130200" style="fill:#ee8b94"/>
<path d="" class="polyStyle" id="130300" style="fill:#f6f67b"/>
<path d="" class="polyStyle" id="652900" style="fill:#fbe6ef"/>
<path d="" class="polyStyle" id="150500" style="fill:#d4ecb2"/>
<path d="" class="polyStyle" id="" style="fill:#d4ecb2"/>
<path d="" class="polyStyle" id="350500" style="fill:#fbe6ef"/>
<path d="" class="polyStyle" id="440400" style="fill:#f6f67b"/>
<path d="" class="polyStyle" id="421100" style="fill:#d4ecb2"/>
<path d="" class="polyStyle" id="420100" style="fill:#fbe6ef"/>
<path d="" class="polyStyle" id="532500" style="fill:#fbe6ef"/>
<path d="" class="polyStyle" id="654200" style="fill:#fbe6ef"/>
<path d="" class="polyStyle" id="210700" style="fill:#d4ecb2"/>
<path d="" class="polyStyle" id="522300" style="fill:#fbe6ef"/>
<path d="" class="polyStyle" id="" style="fill:#ee8b94"/>
<path d="" class="polyStyle" id="440400" style="fill:#f6f67b"/>
<path d="" class="polyStyle" id="620000" style="fill:#f6f67b"/>
<path d="" class="polyStyle" id="430000" style="fill:#fbe6ef"/>
<path d="" class="polyStyle" id="420000" style="fill:#ee8b94"/>
<path d="" class="polyStyle" id="410000" style="fill:#f6f67b"/>
<path d="" class="polyStyle" id="350000" style="fill:#fbe6ef"/>
<path d="" class="polyStyle" id="520000" style="fill:#f6f67b"/>
<path d="" class="polyStyle" id="" style="fill:#ee8b94"/>
</svg>
