<?xml version="1.0" encoding="UTF-8"?>
<!DOCTYPE svg PUBLIC "-//W3C//DTD SVG 1.1 Tiny//EN" "http://www.w3.org/Graphics/SVG/1.1/DTD/svg11-tiny.dtd">
<svg version="1.1" xmlns="http://www.w3.org/2000/svg" xmlns:xlink="http://www.w3.org/1999/xlink" width="100%" height="100%" viewBox="0,0,4898,4097">
<title>SVG</title>
<desc>Poligon Test</desc>
<style id="style_css_sheet" type="text/css">
.polyStyle{fill: #cccccc;stroke-width:0;fill-rule:evenodd;}
</style>
<circle cx="2207" cy="1165" r="200" stroke="black" stroke-width="1" fill="red" id="420281" name="大冶市"/>
<circle cx="3394" cy="2401" r="200" stroke="black" stroke-width="1" fill="red" id="420222" name="阳新县"/>
<circle cx="1845" cy="603" r="200" stroke="black" stroke-width="1" fill="red" id="420205" name="铁山区"/>
<circle cx="2065" cy="770" r="200" stroke="black" stroke-width="1" fill="red" id="420204" name="下陆区"/>
<circle cx="2887" cy="606" r="200" stroke="black" stroke-width="1" fill="red" id="420203"position="1" name="西塞山区"/>
<circle cx="2662" cy="515" r="200" stroke="black" stroke-width="1" fill="red" id="420202" name="黄石港区"/>
<path d="" class="polyStyle" id="" style="fill:#ee8b94"/>
<path d="" class="polyStyle" id="623022" style="fill:#fbe6ef"/>
<path d="" class="polyStyle" id="211421" style="fill:#f6f67b"/>
<path d="" class="polyStyle" id="532524" style="fill:#ee8b94"/>
<path d="" class="polyStyle" id="440825" style="fill:#f6f67b"/>
<path d="" class="polyStyle" id="441721" style="fill:#f6f67b"/>
<path d="" class="polyStyle" id="450521" style="fill:#f6f67b"/>
<path d="" class="polyStyle" id="450123" style="fill:#fbe6ef"/>
<path d="" class="polyStyle" id="350624" style="fill:#f6f67b"/>
<path d="" class="polyStyle" id="" style="fill:#fbe6ef"/>
<path d="" class="polyStyle" id="451224" style="fill:#fbe6ef"/>
<path d="" class="polyStyle" id="350627" style="fill:#f6f67b"/>
<path d="" class="polyStyle" id="" style="fill:#f6f67b"/>
<path d="" class="polyStyle" id="350525" style="fill:#f6f67b"/>
<path d="" class="polyStyle" id="530124" style="fill:#ee8b94"/>
<path d="" class="polyStyle" id="522627" style="fill:#ee8b94"/>
<path d="" class="polyStyle" id="510421" style="fill:#fbe6ef"/>
<path d="" class="polyStyle" id="522623" style="fill:#d4ecb2"/>
<path d="" class="polyStyle" id="430321" style="fill:#d4ecb2"/>
<path d="" class="polyStyle" id="511129" style="fill:#d4ecb2"/>
<path d="" class="polyStyle" id="511423" style="fill:#ee8b94"/>
<polygon points="3643,860 3654,865 3661,867 3670,870 3679,872 3688,873 3696,875 3704,875 3706,876 3796,980 3829,1017 3845,1034 3892,1114 3932,1175 3960,1241 3979,1283 3981,1343 3972,1387 3972,1440 3993,1484 4001,1492 4061,1552 4120,1604 4156,1642 4190,1687 4203,1704 4213,1719 4241,1766 4258,1785 4274,1804 4303,1830 4309,1835 4324,1848 4343,1865 4375,1895 4389,1910 4391,1917 4391,1928 4392,1934 4389,1951 4377,1979 4375,2000 4374,2010 4375,2026 4375,2029 4384,2052 4419,2093 4427,2102 4445,2113 4467,2122 4501,2143 4511,2150 4534,2178 4553,2207 4565,2223 4585,2251 4589,2258 4624,2307 4645,2325 4682,2356 4775,2401 4782,2404 4871,2421 4898,2428 4894,2438 4888,2436 4859,2463 4857,2467 4855,2473 4869,2497 4888,2532 4875,2531 4845,2523 4809,2531 4775,2543 4729,2583 4705,2587 4695,2593 4689,2601 4695,2611 4703,2613 4719,2627 4725,2637 4725,2657 4723,2681 4711,2693 4709,2707 4707,2719 4719,2727 4719,2731 4709,2761 4705,2767 4701,2767 4693,2771 4683,2771 4679,2771 4671,2773 4665,2779 4663,2787 4663,2803 4665,2817 4667,2837 4669,2849 4669,2865 4679,2857 4687,2845 4687,2839 4691,2835 4697,2835 4713,2841 4719,2849 4727,2863 4727,2875 4723,2885 4717,2909 4703,2931 4695,2943 4681,2961 4667,2971 4649,2969 4633,2969 4623,2975 4617,2995 4615,3009 4613,3019 4607,3021 4595,3019 4579,3005 4573,3005 4565,3009 4545,3039 4539,3047 4537,3059 4515,3075 4497,3083 4487,3073 4463,3089 4463,3101 4469,3119 4459,3125 4445,3133 4437,3141 4433,3171 4431,3197 4425,3221 4419,3233 4415,3239 4403,3243 4385,3241 4355,3225 4347,3223 4343,3227 4329,3259 4319,3263 4303,3257 4291,3261 4217,3315 4161,3357 4155,3359 4159,3381 4143,3401 4133,3399 4101,3379 4081,3373 4077,3379 4071,3393 4063,3395 4035,3377 4025,3381 3979,3399 3959,3433 3931,3449 3915,3453 3903,3453 3879,3441 3869,3441 3859,3453 3837,3485 3825,3491 3801,3505 3789,3523 3787,3535 3783,3541 3775,3541 3769,3537 3747,3521 3733,3515 3705,3523 3697,3521 3659,3453 3649,3449 3629,3451 3629,3441 3629,3425 3665,3407 3695,3399 3701,3397 3709,3395 3715,3385 3709,3373 3695,3359 3683,3353 3663,3343 3633,3341 3625,3341 3609,3341 3597,3345 3583,3357 3573,3361 3535,3359 3521,3361 3497,3375 3481,3375 3459,3369 3445,3367 3429,3371 3409,3373 3355,3361 3301,3355 3253,3351 3235,3349 3207,3347 3187,3347 3175,3349 3163,3355 3155,3355 3127,3347 3111,3347 3097,3345 3085,3337 3077,3325 3067,3317 3055,3307 3035,3285 3015,3255 3015,3249 3027,3241 3031,3237 3023,3229 3005,3227 2997,3225 2989,3227 2975,3231 2955,3231 2939,3223 2933,3217 2925,3215 2917,3217 2911,3223 2897,3239 2891,3249 2891,3259 2895,3285 2889,3301 2879,3313 2883,3329 2887,3337 2899,3345 2921,3353 2939,3363 2957,3377 2975,3387 2985,3387 3009,3379 3027,3375 3039,3373 3045,3375 3049,3381 3053,3389 3057,3401 3065,3419 3073,3435 3075,3441 3071,3445 3061,3449 3047,3451 3029,3455 3011,3459 3003,3469 3001,3479 3007,3511 3012,3521 3005,3532 3013,3537 3017,3541 3018,3547 3018,3550 3015,3557 3012,3561 3008,3564 3005,3568 3001,3571 2998,3575 2996,3579 2994,3582 2992,3586 2991,3589 2990,3593 2989,3597 2989,3600 2989,3604 2990,3607 2992,3611 2994,3615 2995,3618 2995,3622 2991,3625 2991,3629 2991,3632 2991,3636 2993,3640 2994,3643 2995,3647 2996,3650 2995,3654 2994,3658 2993,3661 2991,3665 2988,3668 2985,3672 2981,3676 2977,3678 2973,3681 2969,3684 2966,3688 2963,3694 2966,3696 2976,3699 2981,3698 2996,3696 3003,3696 3024,3679 3034,3670 3045,3657 3055,3649 3071,3647 3098,3641 3111,3641 3121,3635 3123,3623 3131,3617 3221,3641 3233,3666 3233,3677 3219,3683 3187,3691 3157,3699 3134,3704 3130,3706 3108,3751 3115,3763 3119,3777 3127,3794 3131,3804 3128,3815 3108,3839 3110,3849 3116,3859 3112,3873 3110,3879 3100,3891 3102,3905 3114,3921 3100,3955 3075,3964 3078,3967 3092,3977 3100,3981 3106,3987 3112,3993 3116,3997 3118,4001 3126,4015 3128,4021 3132,4027 3144,4043 3142,4051 3134,4049 3126,4051 3130,4063 3144,4075 3148,4085 3144,4091 3138,4095 3134,4097 3122,4097 3114,4097 3100,4093 3068,4085 3040,4075 3012,4067 2988,4085 2976,4083 2884,4041 2852,4027 2828,4023 2820,4023 2806,4031 2800,4033 2794,4033 2786,4029 2774,4015 2769,4004 2768,3993 2782,3983 2794,3979 2800,3969 2802,3961 2802,3957 2804,3943 2814,3939 2832,3941 2838,3933 2838,3923 2826,3915 2826,3907 2840,3889 2840,3875 2834,3865 2804,3845 2782,3827 2778,3825 2766,3827 2764,3831 2752,3843 2742,3847 2736,3849 2724,3847 2712,3839 2696,3837 2688,3841 2648,3861 2628,3873 2616,3873 2588,3867 2578,3867 2574,3871 2570,3879 2564,3885 2554,3879 2544,3877 2532,3883 2526,3889 2520,3895 2510,3895 2504,3889 2498,3879 2494,3869 2464,3849 2456,3849 2446,3853 2438,3847 2424,3833 2412,3807 2408,3801 2386,3799 2382,3799 2376,3795 2366,3791 2360,3783 2356,3771 2350,3765 2342,3763 2336,3767 2334,3773 2332,3791 2330,3797 2324,3807 2314,3813 2300,3813 2292,3817 2274,3817 2266,3815 2252,3805 2246,3803 2236,3809 2228,3823 2228,3829 2228,3837 2216,3857 2206,3863 2190,3861 2174,3861 2162,3861 2133,3856 2129,3862 2122,3858 2108,3856 2071,3856 2063,3853 2054,3843 2047,3831 2036,3822 2029,3813 2020,3806 2016,3798 2023,3785 2027,3779 2028,3771 2024,3765 2018,3755 2013,3744 2007,3739 2000,3735 1999,3728 2005,3723 2005,3717 1999,3711 1995,3704 1986,3701 1980,3700 1972,3701 1962,3702 1947,3699 1938,3696 1929,3698 1920,3704 1914,3712 1910,3719 1904,3725 1896,3722 1884,3709 1875,3701 1874,3695 1874,3687 1873,3681 1882,3663 1884,3656 1881,3649 1878,3642 1875,3634 1874,3627 1867,3618 1859,3612 1852,3607 1844,3598 1831,3586 1821,3576 1812,3566 1807,3560 1803,3552 1799,3540 1798,3533 1797,3526 1796,3517 1796,3511 1801,3490 1805,3483 1811,3477 1813,3465 1812,3459 1811,3449 1810,3442 1805,3433 1795,3417 1787,3407 1782,3398 1776,3391 1766,3374 1744,3337 1744,3319 1746,3312 1751,3300 1753,3291 1756,3282 1756,3270 1755,3258 1748,3245 1741,3237 1727,3218 1721,3211 1717,3200 1715,3192 1710,3186 1703,3183 1697,3176 1694,3166 1694,3158 1688,3151 1669,3146 1654,3144 1644,3143 1629,3142 1619,3140 1612,3139 1605,3138 1597,3137 1582,3136 1572,3135 1566,3128 1566,3117 1568,3110 1570,3102 1571,3095 1569,3083 1567,3077 1554,3072 1548,3071 1541,3072 1537,3066 1541,3060 1543,3052 1547,3046 1552,3027 1547,3008 1534,2985 1525,2971 1521,2962 1515,2955 1509,2954 1503,2955 1492,2953 1485,2951 1478,2950 1463,2951 1448,2949 1438,2947 1427,2942 1420,2939 1410,2935 1388,2935 1377,2936 1358,2939 1339,2939 1327,2938 1315,2939 1304,2935 1292,2936 1292,2949 1284,2952 1259,2952 1251,2945 1245,2939 1231,2937 1218,2936 1204,2935 1197,2934 1199,2952 1201,2959 1196,2968 1190,2977 1184,2975 1182,2966 1177,2959 1169,2954 1169,2946 1173,2940 1170,2933 1163,2931 1158,2925 1151,2921 1144,2919 1138,2914 1131,2918 1125,2919 1121,2913 1114,2914 1104,2914 1098,2913 1094,2919 1094,2927 1085,2933 1076,2934 1069,2926 1058,2916 1049,2907 1044,2900 1038,2897 1020,2887 1007,2879 998,2875 988,2875 979,2874 975,2880 968,2882 960,2883 954,2882 946,2878 934,2871 930,2860 934,2853 940,2849 946,2839 951,2828 960,2814 970,2797 980,2780 986,2772 992,2762 993,2756 993,2750 992,2740 993,2732 996,2722 1000,2713 1000,2705 998,2695 998,2688 1008,2670 1013,2662 1013,2646 1014,2628 1015,2612 1013,2597 1010,2588 1010,2577 1013,2569 1014,2562 1017,2555 1021,2549 1022,2541 1018,2531 1020,2518 1020,2505 1024,2497 1024,2489 1019,2478 1016,2470 1017,2463 1024,2454 1024,2448 1022,2440 1010,2438 985,2434 962,2432 931,2431 918,2427 916,2427 909,2427 907,2421 907,2411 908,2398 907,2390 907,2378 909,2372 909,2362 910,2347 910,2339 913,2333 917,2327 926,2311 928,2305 929,2294 934,2276 939,2255 941,2242 940,2231 945,2218 951,2214 959,2208 962,2201 965,2190 965,2184 967,2178 971,2167 966,2160 963,2157 972,2146 980,2145 999,2149 1007,2151 1025,2155 1037,2157 1055,2161 1068,2161 1077,2161 1093,2159 1100,2159 1110,2162 1114,2164 1115,2173 1116,2196 1119,2206 1127,2216 1130,2222 1138,2227 1154,2230 1162,2230 1177,2229 1186,2225 1195,2218 1202,2209 1203,2206 1203,2201 1203,2196 1203,2193 1205,2191 1209,2192 1221,2196 1237,2200 1247,2201 1251,2203 1272,2207 1292,2210 1306,2214 1315,2216 1332,2220 1348,2225 1357,2228 1360,2229 1362,2237 1362,2247 1364,2253 1369,2258 1375,2260 1381,2260 1396,2258 1402,2258 1422,2262 1428,2263 1439,2270 1467,2285 1469,2286 1473,2286 1476,2289 1479,2293 1481,2294 1485,2294 1490,2294 1492,2294 1495,2294 1496,2296 1497,2299 1498,2304 1502,2308 1506,2308 1510,2306 1516,2304 1520,2301 1525,2299 1530,2298 1534,2298 1541,2297 1544,2296 1548,2294 1554,2290 1559,2285 1565,2281 1572,2281 1576,2281 1581,2283 1586,2285 1596,2287 1606,2289 1616,2294 1621,2302 1631,2307 1644,2308 1651,2310 1657,2310 1666,2312 1675,2316 1679,2326 1685,2333 1688,2336 1693,2337 1700,2339 1706,2339 1713,2339 1718,2339 1721,2339 1727,2338 1731,2337 1735,2337 1738,2338 1741,2339 1746,2341 1753,2347 1755,2348 1757,2349 1760,2349 1764,2348 1769,2348 1776,2348 1783,2350 1792,2354 1806,2359 1821,2364 1829,2364 1841,2364 1851,2364 1861,2365 1873,2368 1877,2369 1884,2369 1889,2369 1893,2367 1902,2365 1909,2363 1917,2358 1921,2357 1926,2357 1937,2357 1945,2357 1956,2355 1962,2354 1975,2349 1983,2346 1984,2342 1987,2340 1990,2338 1993,2337 1996,2335 1999,2334 2002,2333 2007,2332 2012,2330 2024,2323 2042,2312 2048,2308 2053,2295 2053,2288 2051,2277 2050,2271 2048,2259 2042,2231 2042,2223 2042,2218 2044,2211 2043,2208 2044,2201 2045,2198 2050,2194 2054,2190 2057,2188 2059,2185 2062,2182 2070,2176 2073,2173 2073,2167 2066,2165 2070,2163 2072,2161 2073,2156 2072,2150 2068,2146 2065,2145 2061,2143 2058,2141 2058,2137 2058,2134 2060,2131 2057,2116 2056,2096 2057,2090 2059,2087 2061,2082 2062,2078 2062,2074 2060,2069 2059,2064 2060,2056 2065,2049 2068,2039 2068,2026 2074,2019 2084,2017 2092,2017 2095,2018 2099,2016 2102,2014 2106,2011 2112,2008 2115,2006 2118,2006 2122,2006 2126,2007 2129,2005 2131,2004 2130,1997 2130,1994 2133,1995 2138,1998 2143,2003 2146,2004 2148,2003 2152,1996 2155,1983 2161,1976 2168,1970 2182,1962 2201,1954 2213,1951 2220,1949 2228,1945 2234,1939 2238,1935 2238,1931 2238,1927 2238,1922 2237,1918 2227,1912 2225,1909 2225,1903 2225,1897 2225,1893 2226,1888 2227,1881 2230,1876 2233,1870 2238,1861 2240,1856 2242,1845 2242,1838 2242,1832 2241,1826 2236,1820 2216,1816 2212,1812 2211,1807 2211,1800 2215,1797 2220,1796 2228,1796 2236,1796 2254,1796 2258,1796 2270,1794 2279,1793 2285,1791 2297,1793 2306,1795 2326,1802 2333,1804 2344,1804 2351,1801 2362,1797 2382,1790 2399,1787 2406,1786 2409,1785 2414,1783 2417,1780 2420,1778 2424,1777 2428,1778 2436,1780 2444,1783 2450,1785 2459,1787 2465,1788 2472,1787 2476,1786 2480,1783 2486,1775 2492,1770 2502,1758 2507,1749 2511,1746 2514,1745 2518,1742 2519,1738 2517,1735 2512,1735 2506,1736 2504,1732 2506,1727 2506,1723 2506,1718 2505,1714 2505,1708 2505,1703 2504,1698 2502,1694 2500,1690 2500,1686 2499,1680 2499,1676 2501,1674 2505,1671 2507,1667 2509,1661 2510,1652 2512,1649 2515,1646 2520,1645 2524,1645 2527,1645 2533,1648 2550,1659 2556,1663 2562,1666 2566,1668 2570,1671 2575,1674 2578,1676 2581,1676 2584,1675 2587,1676 2600,1676 2606,1674 2612,1670 2613,1666 2614,1662 2614,1659 2616,1655 2620,1651 2625,1650 2634,1649 2642,1646 2651,1643 2656,1634 2660,1625 2665,1617 2674,1619 2684,1623 2696,1622 2708,1615 2722,1601 2727,1593 2734,1580 2750,1567 2759,1561 2765,1551 2767,1543 2767,1535 2761,1533 2747,1532 2734,1526 2722,1519 2708,1510 2699,1501 2696,1485 2693,1475 2688,1465 2679,1459 2669,1451 2658,1445 2648,1435 2645,1428 2635,1420 2624,1414 2615,1408 2600,1385 2591,1351 2586,1321 2579,1286 2572,1257 2558,1226 2558,1207 2565,1183 2565,1174 2564,1165 2570,1154 2580,1142 2596,1132 2615,1122 2632,1116 2647,1115 2674,1114 2691,1114 2710,1115 2729,1117 2751,1117 2772,1121 2811,1138 2849,1166 2892,1187 2945,1204 3001,1214 3022,1218 3047,1214 3073,1204 3103,1183 3124,1166 3143,1148 3157,1131 3170,1115 3197,1087 3203,1075 3211,1064 3218,1053 3219,1045 3210,1030 3208,1018 3210,1010 3218,999 3226,994 3235,992 3250,990 3255,984 3263,986 3269,987 3275,985 3283,984 3294,983 3311,983 3318,985 3327,988 3334,992 3341,996 3348,998 3360,989 3366,986 3374,987 3381,988 3389,989 3395,990 3398,983 3399,976 3406,974 3423,972 3432,971 3438,972 3443,979 3443,986 3448,997 3451,1008 3455,1016 3462,1018 3470,1018 3476,1014 3479,1008 3475,998 3482,988 3491,981 3495,975 3498,967 3507,962 3513,956 3515,949 3524,940 3530,935 3534,929 3541,922 3547,921 3554,923 3562,926 3584,926 3592,925 3600,926 3613,929 3619,928 3615,918 3608,913 3601,911 3595,907 3593,899 3600,894 3606,891 3613,878 3615,868 3617,860 3621,851 3631,856 " class="polyStyle" id="420222" style="fill:#d4ecb2"/>
<path d="" class="polyStyle" id="421023" style="fill:#f6f67b"/>
<path d="" class="polyStyle" id="511724" style="fill:#f6f67b"/>
<path d="" class="polyStyle" id="420526" style="fill:#fbe6ef"/>
<path d="" class="polyStyle" id="511923" style="fill:#fbe6ef"/>
<path d="" class="polyStyle" id="420325" style="fill:#fbe6ef"/>
<path d="" class="polyStyle" id="511921" style="fill:#f6f67b"/>
<path d="" class="polyStyle" id="542525" style="fill:#f6f67b"/>
<path d="" class="polyStyle" id="611026" style="fill:#ee8b94"/>
<path d="" class="polyStyle" id="411023" style="fill:#fbe6ef"/>
<path d="" class="polyStyle" id="632323" style="fill:#f6f67b"/>
<path d="" class="polyStyle" id="140525" style="fill:#d4ecb2"/>
<path d="" class="polyStyle" id="410922" style="fill:#ee8b94"/>
<path d="" class="polyStyle" id="621027" style="fill:#ee8b94"/>
<path d="" class="polyStyle" id="130427" style="fill:#f6f67b"/>
<path d="" class="polyStyle" id="130121" style="fill:#ee8b94"/>
<path d="" class="polyStyle" id="610823" style="fill:#fbe6ef"/>
<path d="" class="polyStyle" id="130225" style="fill:#fbe6ef"/>
<path d="" class="polyStyle" id="130322" style="fill:#d4ecb2"/>
<path d="" class="polyStyle" id="653130" style="fill:#f6f67b"/>
<path d="" class="polyStyle" id="130822" style="fill:#fbe6ef"/>
<path d="" class="polyStyle" id="211221" style="fill:#f6f67b"/>
<path d="" class="polyStyle" id="210921" style="fill:#f6f67b"/>
<path d="" class="polyStyle" id="150223" style="fill:#f8c67d"/>
<path d="" class="polyStyle" id="220422" style="fill:#d4ecb2"/>
<path d="" class="polyStyle" id="340721" style="fill:#f6f67b"/>
<path d="" class="polyStyle" id="510824" style="fill:#d4ecb2"/>
<path d="" class="polyStyle" id="610324" style="fill:#f6f67b"/>
<path d="" class="polyStyle" id="530722" style="fill:#ee8b94"/>
<path d="" class="polyStyle" id="340823" style="fill:#d4ecb2"/>
<path d="" class="polyStyle" id="620825" style="fill:#d4ecb2"/>
<path d="" class="polyStyle" id="421125" style="fill:#ee8b94"/>
<path d="" class="polyStyle" id="210281" style="fill:#ee8b94"/>
<path d="" class="polyStyle" id="440883" style="fill:#f6f67b"/>
<path d="" class="polyStyle" id="469006" style="fill:#d4ecb2"/>
<path d="" class="polyStyle" id="469002" style="fill:#ee8b94"/>
<path d="" class="polyStyle" id="469005" style="fill:#fbe6ef"/>
<path d="" class="polyStyle" id="440882" style="fill:#ee8b94"/>
<path d="" class="polyStyle" id="450681" style="fill:#ee8b94"/>
<path d="" class="polyStyle" id="441581" style="fill:#d4ecb2"/>
<polygon points="969,2 974,3 975,10 975,20 975,32 978,40 979,44 979,53 987,65 992,68 1000,71 1006,75 1009,79 1008,83 1008,90 1003,103 1006,109 1011,114 1023,122 1030,125 1042,130 1053,131 1065,130 1076,129 1081,128 1086,131 1091,135 1099,144 1103,149 1106,150 1111,150 1118,150 1124,150 1128,152 1138,156 1169,167 1194,173 1214,176 1244,176 1262,177 1269,173 1274,170 1267,148 1262,129 1263,118 1263,112 1282,86 1321,81 1351,78 1381,71 1410,70 1442,69 1459,70 1481,71 1493,71 1501,79 1513,93 1526,103 1532,110 1532,117 1528,132 1525,146 1524,157 1524,171 1530,185 1541,195 1558,208 1573,216 1587,224 1602,227 1618,227 1635,225 1649,221 1659,225 1669,232 1679,240 1683,249 1686,260 1695,264 1703,272 1701,282 1699,288 1694,295 1689,297 1678,303 1665,312 1656,319 1652,322 1648,331 1648,341 1657,352 1665,362 1673,371 1674,379 1673,387 1674,402 1679,417 1683,423 1674,424 1667,425 1651,425 1647,432 1649,440 1647,447 1639,455 1632,459 1628,469 1628,476 1630,483 1632,489 1640,496 1643,502 1641,510 1641,516 1643,525 1647,531 1654,536 1661,542 1668,549 1683,559 1693,563 1700,566 1707,570 1717,576 1723,582 1730,591 1735,597 1729,605 1721,611 1715,616 1715,624 1717,630 1726,640 1737,644 1747,644 1755,645 1767,650 1774,649 1781,646 1788,649 1794,650 1800,650 1805,658 1806,664 1806,670 1808,676 1824,694 1832,699 1839,701 1845,702 1853,704 1868,710 1875,714 1883,715 1889,712 1896,709 1891,717 1886,723 1885,737 1902,756 1925,775 1933,780 1953,791 1960,804 1970,814 1982,822 1994,821 2001,822 2041,820 2063,819 2094,824 2118,827 2134,831 2150,831 2175,828 2194,822 2211,818 2223,815 2235,810 2244,796 2250,784 2253,773 2258,763 2264,756 2293,752 2304,753 2355,750 2386,749 2411,749 2425,753 2431,757 2436,757 2439,758 2451,759 2458,765 2468,768 2479,771 2491,778 2503,783 2510,783 2517,782 2527,781 2538,779 2544,777 2555,776 2570,776 2588,775 2605,774 2616,777 2630,783 2637,787 2642,793 2644,802 2644,809 2647,816 2655,820 2664,823 2670,824 2684,824 2693,820 2700,815 2702,809 2703,803 2704,796 2706,784 2709,773 2714,767 2717,761 2723,756 2736,736 2748,728 2756,726 2763,726 2771,727 2787,733 2796,740 2806,743 2819,744 2836,741 2843,738 2846,730 2850,724 2858,719 2869,718 2885,713 2891,713 2897,717 2903,718 2911,715 2917,704 2924,698 2932,698 2942,707 2949,713 2960,721 2968,726 2979,729 2986,728 2995,727 3002,725 3009,721 3016,714 3027,711 3041,706 3050,702 3057,699 3067,701 3075,701 3083,698 3089,694 3096,693 3105,693 3111,694 3117,698 3117,713 3120,719 3119,728 3120,735 3123,744 3125,753 3127,761 3132,768 3136,775 3138,781 3136,790 3137,797 3137,808 3139,814 3141,821 3141,828 3136,839 3133,846 3134,852 3138,862 3141,869 3135,883 3134,891 3131,900 3128,906 3121,908 3117,918 3118,926 3120,932 3124,941 3131,947 3141,952 3148,955 3157,950 3163,950 3171,949 3189,952 3197,957 3206,963 3219,969 3234,976 3245,981 3255,984 3250,990 3235,992 3226,994 3218,999 3210,1010 3208,1018 3210,1030 3219,1045 3218,1053 3211,1064 3203,1075 3197,1087 3170,1115 3157,1131 3143,1148 3124,1166 3103,1183 3073,1204 3047,1214 3022,1218 3001,1214 2945,1204 2892,1187 2849,1166 2811,1138 2772,1121 2751,1117 2729,1117 2710,1115 2691,1114 2674,1114 2647,1115 2632,1116 2615,1122 2596,1132 2580,1142 2570,1154 2564,1165 2565,1174 2565,1183 2558,1207 2558,1226 2572,1257 2579,1286 2586,1321 2591,1351 2600,1385 2615,1408 2624,1414 2635,1420 2645,1428 2648,1435 2658,1445 2669,1451 2679,1459 2688,1465 2693,1475 2696,1485 2699,1501 2708,1510 2722,1519 2734,1526 2747,1532 2761,1533 2767,1535 2767,1543 2765,1551 2759,1561 2750,1567 2734,1580 2727,1593 2722,1601 2708,1615 2696,1622 2684,1623 2674,1619 2665,1617 2660,1625 2656,1634 2651,1643 2642,1646 2634,1649 2625,1650 2620,1651 2616,1655 2614,1659 2614,1662 2613,1666 2612,1670 2606,1674 2600,1676 2587,1676 2584,1675 2581,1676 2578,1676 2575,1674 2570,1671 2566,1668 2562,1666 2556,1663 2550,1659 2533,1648 2527,1645 2524,1645 2520,1645 2515,1646 2512,1649 2510,1652 2509,1661 2507,1667 2505,1671 2501,1674 2499,1676 2499,1680 2500,1686 2500,1690 2502,1694 2504,1698 2505,1703 2505,1708 2505,1714 2506,1718 2506,1723 2506,1727 2504,1732 2506,1736 2512,1735 2517,1735 2519,1738 2518,1742 2514,1745 2511,1746 2507,1749 2502,1758 2492,1770 2486,1775 2480,1783 2476,1786 2472,1787 2465,1788 2459,1787 2450,1785 2444,1783 2436,1780 2428,1778 2424,1777 2420,1778 2417,1780 2414,1783 2409,1785 2406,1786 2399,1787 2382,1790 2362,1797 2351,1801 2344,1804 2333,1804 2326,1802 2306,1795 2297,1793 2285,1791 2279,1793 2270,1794 2258,1796 2254,1796 2236,1796 2228,1796 2220,1796 2215,1797 2211,1800 2211,1807 2212,1812 2216,1816 2236,1820 2241,1826 2242,1832 2242,1838 2242,1845 2240,1856 2238,1861 2233,1870 2230,1876 2227,1881 2226,1888 2225,1893 2225,1897 2225,1903 2225,1909 2227,1912 2237,1918 2238,1922 2238,1927 2238,1931 2238,1935 2234,1939 2228,1945 2220,1949 2213,1951 2201,1954 2182,1962 2168,1970 2161,1976 2155,1983 2152,1996 2148,2003 2146,2004 2143,2003 2138,1998 2133,1995 2130,1994 2130,1997 2131,2004 2129,2005 2126,2007 2122,2006 2118,2006 2115,2006 2112,2008 2106,2011 2102,2014 2099,2016 2095,2018 2092,2017 2084,2017 2074,2019 2068,2026 2068,2039 2065,2049 2060,2056 2059,2064 2060,2069 2062,2074 2062,2078 2061,2082 2059,2087 2057,2090 2056,2096 2057,2116 2060,2131 2058,2134 2058,2137 2058,2141 2061,2143 2065,2145 2068,2146 2072,2150 2073,2156 2072,2161 2070,2163 2066,2165 2073,2167 2073,2173 2070,2176 2062,2182 2059,2185 2057,2188 2054,2190 2050,2194 2045,2198 2044,2201 2043,2208 2044,2211 2042,2218 2042,2223 2042,2231 2048,2259 2050,2271 2051,2277 2053,2288 2053,2295 2048,2308 2042,2312 2024,2323 2012,2330 2007,2332 2002,2333 1999,2334 1996,2335 1993,2337 1990,2338 1987,2340 1984,2342 1983,2346 1975,2349 1962,2354 1956,2355 1945,2357 1937,2357 1926,2357 1921,2357 1917,2358 1909,2363 1902,2365 1893,2367 1889,2369 1884,2369 1877,2369 1873,2368 1861,2365 1851,2364 1841,2364 1829,2364 1821,2364 1806,2359 1792,2354 1783,2350 1776,2348 1769,2348 1764,2348 1760,2349 1757,2349 1755,2348 1753,2347 1746,2341 1741,2339 1738,2338 1735,2337 1731,2337 1727,2338 1721,2339 1718,2339 1713,2339 1706,2339 1700,2339 1693,2337 1688,2336 1685,2333 1679,2326 1675,2316 1666,2312 1657,2310 1651,2310 1644,2308 1631,2307 1621,2302 1616,2294 1606,2289 1596,2287 1586,2285 1581,2283 1576,2281 1572,2281 1565,2281 1559,2285 1554,2290 1548,2294 1544,2296 1541,2297 1534,2298 1530,2298 1525,2299 1520,2301 1516,2304 1510,2306 1506,2308 1502,2308 1498,2304 1497,2299 1496,2296 1495,2294 1492,2294 1490,2294 1485,2294 1481,2294 1479,2293 1476,2289 1473,2286 1469,2286 1467,2285 1439,2270 1428,2263 1422,2262 1402,2258 1396,2258 1381,2260 1375,2260 1369,2258 1364,2253 1362,2247 1362,2237 1360,2229 1357,2228 1348,2225 1332,2220 1315,2216 1306,2214 1292,2210 1272,2207 1251,2203 1247,2201 1237,2200 1221,2196 1209,2192 1205,2191 1203,2193 1203,2196 1203,2201 1203,2206 1202,2209 1195,2218 1186,2225 1177,2229 1162,2230 1154,2230 1138,2227 1130,2222 1127,2216 1119,2206 1116,2196 1115,2173 1114,2164 1110,2162 1100,2159 1093,2159 1077,2161 1068,2161 1055,2161 1037,2157 1025,2155 1007,2151 999,2149 980,2145 972,2146 963,2157 959,2158 949,2156 936,2152 924,2146 917,2142 910,2141 907,2141 903,2142 899,2145 896,2150 892,2155 889,2158 885,2160 879,2163 869,2164 862,2164 806,2145 789,2139 776,2133 768,2131 757,2129 751,2126 746,2121 741,2118 736,2117 723,2116 707,2114 701,2114 682,2109 679,2106 676,2097 674,2081 674,2070 672,2057 670,2052 661,2049 653,2047 643,2047 637,2049 626,2053 619,2064 614,2068 608,2072 596,2073 586,2073 576,2071 564,2067 555,2063 551,2059 544,2056 538,2056 527,2055 511,2050 428,2024 407,2018 388,2011 373,2005 366,2000 366,1996 371,1989 374,1980 374,1973 375,1967 375,1960 369,1953 355,1939 343,1934 334,1931 324,1928 316,1925 309,1925 297,1928 266,1940 244,1944 229,1945 214,1949 196,1955 185,1956 162,1955 144,1946 141,1944 139,1936 139,1930 148,1916 146,1910 133,1901 122,1897 117,1897 111,1897 106,1905 86,1916 66,1923 55,1927 45,1931 39,1932 31,1932 28,1925 31,1907 43,1893 54,1883 63,1873 69,1870 79,1867 88,1868 96,1866 103,1863 106,1859 100,1845 80,1821 72,1816 55,1816 36,1814 27,1813 4,1799 0,1792 2,1786 3,1782 14,1783 29,1771 50,1748 49,1740 47,1733 41,1729 34,1723 27,1713 18,1712 15,1706 21,1704 27,1698 33,1696 36,1690 39,1682 38,1676 28,1669 21,1670 14,1668 17,1662 24,1656 25,1649 28,1643 35,1635 35,1628 41,1623 42,1616 48,1614 56,1615 63,1614 68,1608 68,1602 66,1596 58,1587 52,1579 45,1573 37,1563 33,1557 33,1549 40,1540 38,1530 31,1528 21,1525 14,1520 15,1512 24,1494 30,1494 36,1499 46,1508 55,1514 60,1523 70,1526 79,1525 89,1521 93,1512 94,1506 93,1500 89,1494 85,1486 89,1480 95,1472 104,1476 113,1481 119,1483 133,1487 140,1492 148,1495 154,1495 162,1494 172,1485 169,1479 161,1475 147,1464 144,1457 141,1445 134,1443 121,1442 110,1439 101,1421 92,1404 81,1389 75,1372 68,1359 68,1338 71,1326 74,1316 70,1308 81,1315 93,1325 103,1330 115,1335 127,1338 140,1342 150,1352 156,1359 167,1372 181,1379 193,1387 205,1393 210,1401 203,1408 195,1414 185,1417 179,1426 179,1435 186,1447 195,1456 213,1457 220,1449 224,1448 228,1445 232,1444 237,1442 241,1442 244,1442 249,1443 253,1444 257,1445 261,1445 265,1442 266,1438 267,1435 268,1431 269,1428 271,1424 274,1420 279,1419 282,1417 286,1415 291,1413 293,1410 294,1406 294,1402 295,1397 295,1393 298,1389 302,1386 306,1385 310,1385 314,1385 319,1386 323,1387 327,1390 331,1391 335,1394 339,1395 343,1396 348,1396 351,1394 356,1392 360,1389 379,1383 401,1380 426,1374 441,1368 448,1366 456,1363 464,1363 470,1369 486,1382 499,1401 510,1408 525,1416 536,1433 544,1446 548,1471 545,1482 542,1498 545,1511 554,1526 554,1533 554,1538 554,1543 555,1546 561,1551 564,1552 569,1552 575,1550 584,1546 599,1542 610,1538 616,1534 619,1533 636,1531 652,1537 660,1545 672,1547 685,1536 697,1525 717,1514 738,1517 753,1521 770,1522 780,1518 783,1503 787,1486 794,1470 800,1457 800,1445 788,1438 774,1429 768,1418 774,1407 786,1395 804,1387 816,1382 831,1379 843,1394 847,1407 851,1418 858,1429 876,1432 893,1431 908,1426 923,1421 932,1408 934,1400 943,1391 956,1382 973,1376 986,1368 993,1357 999,1344 1001,1335 994,1326 979,1320 967,1312 960,1300 956,1285 951,1269 945,1259 939,1245 940,1231 952,1219 965,1207 975,1197 987,1188 1002,1180 1016,1180 1027,1184 1035,1190 1045,1197 1057,1200 1057,1188 1053,1177 1043,1167 1031,1156 1023,1147 1018,1135 1014,1123 1006,1115 1000,1108 1000,1098 997,1066 988,1032 976,1016 964,1010 952,1005 943,1001 931,998 927,986 924,974 923,966 923,958 920,949 907,943 896,938 885,932 873,926 863,920 852,911 842,902 840,888 843,874 850,860 856,847 867,835 880,826 893,823 905,820 914,821 922,820 925,817 918,813 910,804 903,794 903,783 911,773 926,768 940,762 953,756 960,750 961,736 947,726 933,715 923,710 911,706 900,703 886,704 875,704 867,704 857,701 847,686 837,675 822,662 806,653 789,644 775,635 761,624 746,614 736,596 732,583 726,571 715,563 699,552 685,546 672,540 667,522 665,504 665,488 665,475 669,458 667,440 661,422 651,403 647,382 650,371 654,358 672,354 686,352 702,345 702,331 701,314 708,302 715,294 732,287 755,275 781,263 806,251 817,239 823,225 820,223 808,214 803,206 796,199 793,194 789,187 788,181 796,170 801,159 804,144 810,130 817,115 826,103 835,84 855,63 882,38 919,13 926,7 935,4 943,2 951,0 965,1 " class="polyStyle" id="420281" style="fill:#ee8b94"/>
<path d="" class="polyStyle" id="421087" style="fill:#ee8b94"/>
<path d="" class="polyStyle" id="420984" style="fill:#fbe6ef"/>
<path d="" class="polyStyle" id="420582" style="fill:#ee8b94"/>
<path d="" class="polyStyle" id="370282" style="fill:#f6f67b"/>
<path d="" class="polyStyle" id="371083" style="fill:#f6f67b"/>
<path d="" class="polyStyle" id="371082" style="fill:#fbe6ef"/>
<path d="" class="polyStyle" id="652801" style="fill:#f8c67d"/>
<path d="" class="polyStyle" id="654301" style="fill:#ee8b94"/>
<path d="" class="polyStyle" id="370687" style="fill:#ee8b94"/>
<path d="" class="polyStyle" id="371482" style="fill:#d4ecb2"/>
<path d="" class="polyStyle" id="421081" style="fill:#fbe6ef"/>
<path d="" class="polyStyle" id="429006" style="fill:#f6f67b"/>
<path d="" class="polyStyle" id="440982" style="fill:#d4ecb2"/>
<path d="" class="polyStyle" id="421181" style="fill:#d4ecb2"/>
<path d="" class="polyStyle" id="321181" style="fill:#d4ecb2"/>
<path d="" class="polyStyle" id="659007" style="fill:#ee8b94"/>
<path d="" class="polyStyle" id="652701" style="fill:#fbe6ef"/>
<path d="" class="polyStyle" id="210781" style="fill:#fbe6ef"/>
<path d="" class="polyStyle" id="460204" style="fill:#f6f67b"/>
<path d="" class="polyStyle" id="210211" style="fill:#f6f67b"/>
<path d="" class="polyStyle" id="450512" style="fill:#ee8b94"/>
<path d="" class="polyStyle" id="450602" style="fill:#fbe6ef"/>
<path d="" class="polyStyle" id="440404" style="fill:#ee8b94"/>
<path d="" class="polyStyle" id="440403" style="fill:#f6f67b"/>
<path d="" class="polyStyle" id="441502" style="fill:#f6f67b"/>
<path d="" class="polyStyle" id="431002" style="fill:#d4ecb2"/>
<path d="" class="polyStyle" id="500107" style="fill:#fbe6ef"/>
<path d="" class="polyStyle" id="430611" style="fill:#d4ecb2"/>
<polygon points="2902,566 2946,582 2972,586 3014,596 3054,600 3103,591 3144,572 3170,557 3207,550 3250,552 3293,552 3319,554 3347,559 3386,567 3413,578 3439,591 3471,617 3503,651 3514,663 3544,701 3572,732 3603,763 3639,797 3670,833 3702,873 3704,875 3696,875 3688,873 3679,872 3670,870 3661,867 3654,865 3643,860 3631,856 3621,851 3617,860 3615,868 3613,878 3606,891 3600,894 3593,899 3595,907 3601,911 3608,913 3615,918 3619,928 3613,929 3600,926 3592,925 3584,926 3562,926 3554,923 3547,921 3541,922 3534,929 3530,935 3524,940 3515,949 3513,956 3507,962 3498,967 3495,975 3491,981 3482,988 3475,998 3479,1008 3476,1014 3470,1018 3462,1018 3455,1016 3451,1008 3448,997 3443,986 3443,979 3438,972 3432,971 3423,972 3406,974 3399,976 3398,983 3395,990 3389,989 3381,988 3374,987 3366,986 3360,989 3348,998 3341,996 3334,992 3327,988 3318,985 3311,983 3294,983 3283,984 3275,985 3269,987 3263,986 3255,984 3245,981 3234,976 3219,969 3206,963 3197,957 3189,952 3171,949 3163,950 3157,950 3148,955 3141,952 3131,947 3124,941 3120,932 3118,926 3117,918 3121,908 3128,906 3131,900 3134,891 3135,883 3141,869 3138,862 3134,852 3133,846 3136,839 3141,828 3141,821 3139,814 3137,808 3137,797 3136,790 3138,781 3136,775 3132,768 3127,761 3125,753 3123,744 3120,735 3119,728 3120,719 3117,713 3117,698 3111,694 3105,693 3096,693 3089,694 3083,698 3075,701 3067,701 3057,699 3050,702 3041,706 3027,711 3016,714 3009,721 3002,725 2995,727 2986,728 2979,729 2968,726 2960,721 2949,713 2942,707 2932,698 2924,698 2917,704 2911,715 2903,718 2897,717 2891,713 2885,713 2869,718 2858,719 2850,724 2846,730 2843,738 2836,741 2819,744 2806,743 2796,740 2787,733 2771,727 2763,726 2756,726 2748,728 2736,736 2723,756 2717,761 2714,767 2709,773 2706,784 2704,796 2703,803 2702,809 2700,815 2693,820 2684,824 2670,824 2664,823 2655,820 2647,816 2644,809 2644,802 2642,793 2637,787 2630,783 2616,777 2605,774 2588,775 2570,776 2555,776 2544,777 2538,779 2527,781 2517,782 2510,783 2503,783 2491,778 2479,771 2468,768 2458,765 2451,759 2439,758 2436,757 2436,750 2426,735 2425,729 2430,718 2431,713 2434,711 2446,710 2460,714 2480,723 2500,731 2513,732 2534,727 2542,723 2546,719 2590,661 2602,646 2613,636 2625,628 2640,621 2665,611 2672,607 2676,602 2684,593 2742,594 2748,593 2752,589 2756,585 2763,584 2777,585 2787,589 2800,603 2813,604 2837,596 2842,592 2845,587 2844,582 2840,579 2825,569 2851,537 2875,552 " class="polyStyle" id="420203" style="fill:#f6f67b"/>
<polygon points="2419,480 2429,482 2435,480 2442,475 2450,473 2455,480 2455,488 2464,488 2495,487 2509,487 2512,492 2512,498 2514,503 2514,509 2505,529 2504,536 2506,543 2519,554 2563,563 2625,566 2657,570 2673,577 2680,583 2684,593 2676,602 2672,607 2665,611 2640,621 2625,628 2613,636 2602,646 2590,661 2546,719 2542,723 2534,727 2513,732 2500,731 2480,723 2460,714 2446,710 2434,711 2431,713 2430,718 2425,729 2426,735 2436,750 2436,757 2431,757 2425,753 2411,749 2386,749 2355,750 2304,753 2293,752 2264,756 2258,763 2253,773 2250,784 2244,796 2235,810 2223,815 2211,818 2194,822 2175,828 2150,831 2134,831 2118,827 2094,824 2063,819 2041,820 2001,822 1994,821 1982,822 1970,814 1960,804 1953,791 1933,780 1925,775 1902,756 1885,737 1886,723 1891,717 1896,709 1899,708 1933,693 1948,696 1963,706 1970,705 1975,696 1981,683 1994,671 2005,663 2013,641 2020,624 2020,609 2031,600 2040,585 2049,575 2055,569 2061,568 2065,566 2067,566 2072,568 2078,571 2081,574 2086,578 2090,583 2096,591 2100,597 2103,601 2106,605 2115,610 2123,611 2128,612 2138,613 2145,613 2152,612 2158,609 2161,606 2167,603 2170,601 2172,598 2173,594 2174,590 2174,586 2174,581 2174,577 2177,572 2185,568 2190,568 2197,566 2201,563 2206,556 2210,553 2213,552 2216,552 2219,552 2224,554 2227,555 2230,555 2237,554 2244,549 2254,542 2257,539 2265,538 2275,537 2286,538 2293,541 2299,551 2306,554 2316,561 2320,563 2323,566 2326,567 2329,566 2333,563 2334,560 2338,557 2340,553 2341,549 2342,545 2344,542 2345,535 2348,534 2351,534 2356,533 2360,532 2372,525 2375,523 2379,520 2382,518 2385,518 2390,518 2395,518 2397,515 2395,508 2394,503 2393,497 2393,490 2390,488 2384,485 2379,483 2376,483 2371,482 2370,479 2371,476 2375,475 2378,474 2382,473 2386,470 2388,469 2393,466 2395,463 2399,466 " class="polyStyle" id="420204" style="fill:#d4ecb2"/>
<polygon points="1703,442 1713,446 1720,450 1746,453 1765,456 1783,458 1800,467 1810,476 1818,479 1837,483 1856,489 1904,502 1908,504 1926,512 1944,519 1962,522 1980,526 1993,529 2008,535 2013,537 2018,539 2023,542 2027,547 2034,558 2039,563 2045,570 2050,570 2055,569 2049,575 2040,585 2031,600 2020,609 2020,624 2013,641 2005,663 1994,671 1981,683 1975,696 1970,705 1963,706 1948,696 1933,693 1899,708 1896,709 1889,712 1883,715 1875,714 1868,710 1853,704 1845,702 1839,701 1832,699 1824,694 1808,676 1806,670 1806,664 1805,658 1800,650 1794,650 1788,649 1781,646 1774,649 1767,650 1755,645 1747,644 1737,644 1726,640 1717,630 1715,624 1715,616 1721,611 1729,605 1735,597 1730,591 1723,582 1717,576 1707,570 1700,566 1693,563 1683,559 1668,549 1661,542 1654,536 1647,531 1643,525 1641,516 1641,510 1643,502 1640,496 1632,489 1630,483 1628,476 1628,469 1632,459 1639,455 1647,447 1649,440 1647,432 1651,425 1667,425 1674,424 1683,423 1688,429 " class="polyStyle" id="420205" style="fill:#f6f67b"/>
<polygon points="2708,328 2714,330 2740,337 2738,369 2735,396 2740,429 2763,465 2793,497 2830,524 2851,537 2825,569 2840,579 2844,582 2845,587 2842,592 2837,596 2813,604 2800,603 2787,589 2777,585 2763,584 2756,585 2752,589 2748,593 2742,594 2684,593 2680,583 2673,577 2657,570 2625,566 2563,563 2519,554 2506,543 2504,536 2505,529 2514,509 2514,503 2512,498 2512,492 2509,487 2495,487 2464,488 2455,488 2455,480 2450,473 2442,475 2435,480 2429,482 2419,480 2399,466 2395,463 2397,461 2401,458 2403,456 2404,449 2407,445 2413,445 2422,443 2430,442 2435,442 2444,424 2448,410 2455,404 2464,394 2466,386 2473,368 2475,365 2479,361 2484,359 2495,359 2503,359 2509,359 2537,363 2542,365 2554,366 2557,364 2557,359 2556,352 2556,347 2560,343 2565,343 2574,348 2589,356 2608,363 2618,364 2625,363 2631,361 2632,357 2631,349 2639,334 2646,326 2650,325 2666,324 2682,323 2695,325 " class="polyStyle" id="420202" style="fill:#f8c67d"/>
<path d="" class="polyStyle" id="511304" style="fill:#fbe6ef"/>
<path d="" class="polyStyle" id="340711" style="fill:#ee8b94"/>
<path d="" class="polyStyle" id="320118" style="fill:#f6f67b"/>
<path d="" class="polyStyle" id="510704" style="fill:#f6f67b"/>
<path d="" class="polyStyle" id="411502" style="fill:#ee8b94"/>
<path d="" class="polyStyle" id="320302" style="fill:#d4ecb2"/>
<path d="" class="polyStyle" id="140311" style="fill:#ee8b94"/>
<path d="" class="polyStyle" id="610802" style="fill:#ee8b94"/>
<path d="" class="polyStyle" id="120116" style="fill:#f6f67b"/>
<path d="" class="polyStyle" id="130303" style="fill:#fbe6ef"/>
<path d="" class="polyStyle" id="140211" style="fill:#f6f67b"/>
<path d="" class="polyStyle" id="150207" style="fill:#fbe6ef"/>
<path d="" class="polyStyle" id="211403" style="fill:#f6f67b"/>
<path d="" class="polyStyle" id="150802" style="fill:#f8c67d"/>
<path d="" class="polyStyle" id="210112" style="fill:#ee8b94"/>
<path d="" class="polyStyle" id="230406" style="fill:#d4ecb2"/>
<path d="" class="polyStyle" id="110113" style="fill:#fbe6ef"/>
<path d="" class="polyStyle" id="341702" style="fill:#fbe6ef"/>
<path d="" class="polyStyle" id="420303" style="fill:#ee8b94"/>
<path d="" class="polyStyle" id="340702" style="fill:#d4ecb2"/>
<path d="" class="polyStyle" id="421002" style="fill:#f6f67b"/>
<path d="" class="polyStyle" id="420117" style="fill:#f6f67b"/>
<path d="" class="polyStyle" id="440904" style="fill:#f8c67d"/>
<path d="" class="polyStyle" id="460205" style="fill:#ee8b94"/>
<path d="" class="polyStyle" id="460202" style="fill:#f6f67b"/>
<path d="" class="polyStyle" id="460203" style="fill:#fbe6ef"/>
<polygon points="3073,459 3047,442 3042,440 3037,443 3031,440 3023,431 3011,424 3010,423 3011,418 3010,416 3012,413 3018,411 3018,408 3002,396 2999,393 2999,386 3003,385 3016,393 3027,405 3032,406 3042,404 3046,403 3048,405 3050,407 3060,408 3069,411 3072,414 3074,415 3077,412 3080,409 3083,411 3108,423 3111,424 3114,421 3119,422 3125,421 3128,424 3134,436 3140,443 3148,449 3181,463 3187,462 3190,462 3191,466 3189,475 3184,481 3176,483 3154,483 3118,487 3110,488 3104,486 3103,485 3104,482 3109,473 3108,471 3104,470 3088,466 " class="polyStyle" id="420203" style="fill:#f6f67b"/>
<path d="" class="polyStyle" id="420304" style="fill:#f6f67b"/>
<path d="" class="polyStyle" id="445302" style="fill:#ee8b94"/>
<path d="" class="polyStyle" id="410202" style="fill:#d4ecb2"/>
<path d="" class="polyStyle" id="440800" style="fill:#f6f67b"/>
<path d="" class="polyStyle" id="440900" style="fill:#ee8b94"/>
<path d="" class="polyStyle" id="340800" style="fill:#ee8b94"/>
<path d="" class="polyStyle" id="460200" style="fill:#f6f67b"/>
<path d="" class="polyStyle" id="460000" style="fill:#ee8b94"/>
<path d="" class="polyStyle" id="450500" style="fill:#ee8b94"/>
<path d="" class="polyStyle" id="450600" style="fill:#ee8b94"/>
<path d="" class="polyStyle" id="440400" style="fill:#f6f67b"/>
<path d="" class="polyStyle" id="441700" style="fill:#f6f67b"/>
<path d="" class="polyStyle" id="441500" style="fill:#f6f67b"/>
<path d="" class="polyStyle" id="350600" style="fill:#ee8b94"/>
<path d="" class="polyStyle" id="710000" style="fill:#f6f67b"/>
<path d="" class="polyStyle" id="510400" style="fill:#f6f67b"/>
<path d="" class="polyStyle" id="522600" style="fill:#fbe6ef"/>
<path d="" class="polyStyle" id="520500" style="fill:#ee8b94"/>
<path d="" class="polyStyle" id="431200" style="fill:#f6f67b"/>
<path d="" class="polyStyle" id="430600" style="fill:#f6f67b"/>
<path d="" class="polyStyle" id="511400" style="fill:#d4ecb2"/>
<path d="" class="polyStyle" id="421000" style="fill:#ee8b94"/>
<path d="" class="polyStyle" id="341700" style="fill:#f6f67b"/>
<path d="" class="polyStyle" id="420500" style="fill:#f6f67b"/>
<path d="" class="polyStyle" id="511300" style="fill:#f6f67b"/>
<path d="" class="polyStyle" id="420900" style="fill:#f6f67b"/>
<path d="" class="polyStyle" id="511700" style="fill:#ee8b94"/>
<path d="" class="polyStyle" id="420600" style="fill:#d4ecb2"/>
<path d="" class="polyStyle" id="411500" style="fill:#fbe6ef"/>
<path d="" class="polyStyle" id="510800" style="fill:#ee8b94"/>
<path d="" class="polyStyle" id="420300" style="fill:#fbe6ef"/>
<path d="" class="polyStyle" id="611000" style="fill:#ee8b94"/>
<path d="" class="polyStyle" id="620800" style="fill:#fbe6ef"/>
<path d="" class="polyStyle" id="370200" style="fill:#ee8b94"/>
<path d="" class="polyStyle" id="371000" style="fill:#f6f67b"/>
<path d="" class="polyStyle" id="370600" style="fill:#fbe6ef"/>
<path d="" class="polyStyle" id="120000" style="fill:#f6f67b"/>
<path d="" class="polyStyle" id="130200" style="fill:#ee8b94"/>
<path d="" class="polyStyle" id="130300" style="fill:#f6f67b"/>
<path d="" class="polyStyle" id="652900" style="fill:#fbe6ef"/>
<path d="" class="polyStyle" id="150500" style="fill:#d4ecb2"/>
<path d="" class="polyStyle" id="" style="fill:#d4ecb2"/>
<path d="" class="polyStyle" id="350500" style="fill:#fbe6ef"/>
<path d="" class="polyStyle" id="440400" style="fill:#f6f67b"/>
<path d="" class="polyStyle" id="421100" style="fill:#d4ecb2"/>
<path d="" class="polyStyle" id="420100" style="fill:#fbe6ef"/>
<path d="" class="polyStyle" id="532500" style="fill:#fbe6ef"/>
<path d="" class="polyStyle" id="654200" style="fill:#fbe6ef"/>
<path d="" class="polyStyle" id="210700" style="fill:#d4ecb2"/>
<path d="" class="polyStyle" id="522300" style="fill:#fbe6ef"/>
<path d="" class="polyStyle" id="" style="fill:#ee8b94"/>
<path d="" class="polyStyle" id="440400" style="fill:#f6f67b"/>
<path d="" class="polyStyle" id="620000" style="fill:#f6f67b"/>
<path d="" class="polyStyle" id="430000" style="fill:#fbe6ef"/>
<path d="" class="polyStyle" id="420000" style="fill:#ee8b94"/>
<path d="" class="polyStyle" id="410000" style="fill:#f6f67b"/>
<path d="" class="polyStyle" id="350000" style="fill:#fbe6ef"/>
<path d="" class="polyStyle" id="520000" style="fill:#f6f67b"/>
<path d="" class="polyStyle" id="" style="fill:#ee8b94"/>
</svg>
