<?xml version="1.0" encoding="UTF-8"?>
<!DOCTYPE svg PUBLIC "-//W3C//DTD SVG 1.1 Tiny//EN" "http://www.w3.org/Graphics/SVG/1.1/DTD/svg11-tiny.dtd">
<svg version="1.1" xmlns="http://www.w3.org/2000/svg" xmlns:xlink="http://www.w3.org/1999/xlink" width="100%" height="100%" viewBox="0,0,2935,3000">
<title>SVG</title>
<desc>Poligon Test</desc>
<style id="style_css_sheet" type="text/css">
.polyStyle{fill: #cccccc;stroke-width:0;fill-rule:evenodd;}
</style>
<circle cx="1134" cy="406" r="200" stroke="black" stroke-width="1" fill="red" id="420703" name="华容区"/>
<circle cx="1934" cy="1078" r="200" stroke="black" stroke-width="1" fill="red" id="420704" name="鄂城区"/>
<circle cx="870" cy="2614" r="200" stroke="black" stroke-width="1" fill="red" id="420702" name="梁子湖区"/>
<path d="" class="polyStyle" id="" style="fill:#ee8b94"/>
<path d="" class="polyStyle" id="623022" style="fill:#fbe6ef"/>
<path d="" class="polyStyle" id="211421" style="fill:#f6f67b"/>
<path d="" class="polyStyle" id="532524" style="fill:#ee8b94"/>
<path d="" class="polyStyle" id="440825" style="fill:#f6f67b"/>
<path d="" class="polyStyle" id="441721" style="fill:#f6f67b"/>
<path d="" class="polyStyle" id="450521" style="fill:#f6f67b"/>
<path d="" class="polyStyle" id="450123" style="fill:#fbe6ef"/>
<path d="" class="polyStyle" id="350624" style="fill:#f6f67b"/>
<path d="" class="polyStyle" id="" style="fill:#fbe6ef"/>
<path d="" class="polyStyle" id="451224" style="fill:#fbe6ef"/>
<path d="" class="polyStyle" id="350627" style="fill:#f6f67b"/>
<path d="" class="polyStyle" id="" style="fill:#f6f67b"/>
<path d="" class="polyStyle" id="350525" style="fill:#f6f67b"/>
<path d="" class="polyStyle" id="530124" style="fill:#ee8b94"/>
<path d="" class="polyStyle" id="522627" style="fill:#ee8b94"/>
<path d="" class="polyStyle" id="510421" style="fill:#fbe6ef"/>
<path d="" class="polyStyle" id="522623" style="fill:#d4ecb2"/>
<path d="" class="polyStyle" id="430321" style="fill:#d4ecb2"/>
<path d="" class="polyStyle" id="511129" style="fill:#d4ecb2"/>
<path d="" class="polyStyle" id="511423" style="fill:#ee8b94"/>
<path d="" class="polyStyle" id="421023" style="fill:#f6f67b"/>
<path d="" class="polyStyle" id="511724" style="fill:#f6f67b"/>
<path d="" class="polyStyle" id="420526" style="fill:#fbe6ef"/>
<path d="" class="polyStyle" id="511923" style="fill:#fbe6ef"/>
<path d="" class="polyStyle" id="420325" style="fill:#fbe6ef"/>
<path d="" class="polyStyle" id="511921" style="fill:#f6f67b"/>
<path d="" class="polyStyle" id="542525" style="fill:#f6f67b"/>
<path d="" class="polyStyle" id="611026" style="fill:#ee8b94"/>
<path d="" class="polyStyle" id="411023" style="fill:#fbe6ef"/>
<path d="" class="polyStyle" id="632323" style="fill:#f6f67b"/>
<path d="" class="polyStyle" id="140525" style="fill:#d4ecb2"/>
<path d="" class="polyStyle" id="410922" style="fill:#ee8b94"/>
<path d="" class="polyStyle" id="621027" style="fill:#ee8b94"/>
<path d="" class="polyStyle" id="130427" style="fill:#f6f67b"/>
<path d="" class="polyStyle" id="130121" style="fill:#ee8b94"/>
<path d="" class="polyStyle" id="610823" style="fill:#fbe6ef"/>
<path d="" class="polyStyle" id="130225" style="fill:#fbe6ef"/>
<path d="" class="polyStyle" id="130322" style="fill:#d4ecb2"/>
<path d="" class="polyStyle" id="653130" style="fill:#f6f67b"/>
<path d="" class="polyStyle" id="130822" style="fill:#fbe6ef"/>
<path d="" class="polyStyle" id="211221" style="fill:#f6f67b"/>
<path d="" class="polyStyle" id="210921" style="fill:#f6f67b"/>
<path d="" class="polyStyle" id="150223" style="fill:#f8c67d"/>
<path d="" class="polyStyle" id="220422" style="fill:#d4ecb2"/>
<path d="" class="polyStyle" id="340721" style="fill:#f6f67b"/>
<path d="" class="polyStyle" id="510824" style="fill:#d4ecb2"/>
<path d="" class="polyStyle" id="610324" style="fill:#f6f67b"/>
<path d="" class="polyStyle" id="530722" style="fill:#ee8b94"/>
<path d="" class="polyStyle" id="340823" style="fill:#d4ecb2"/>
<path d="" class="polyStyle" id="620825" style="fill:#d4ecb2"/>
<path d="" class="polyStyle" id="421125" style="fill:#ee8b94"/>
<path d="" class="polyStyle" id="210281" style="fill:#ee8b94"/>
<path d="" class="polyStyle" id="440883" style="fill:#f6f67b"/>
<path d="" class="polyStyle" id="469006" style="fill:#d4ecb2"/>
<path d="" class="polyStyle" id="469002" style="fill:#ee8b94"/>
<path d="" class="polyStyle" id="469005" style="fill:#fbe6ef"/>
<path d="" class="polyStyle" id="440882" style="fill:#ee8b94"/>
<path d="" class="polyStyle" id="450681" style="fill:#ee8b94"/>
<path d="" class="polyStyle" id="441581" style="fill:#d4ecb2"/>
<path d="" class="polyStyle" id="421087" style="fill:#ee8b94"/>
<path d="" class="polyStyle" id="420984" style="fill:#fbe6ef"/>
<path d="" class="polyStyle" id="420582" style="fill:#ee8b94"/>
<path d="" class="polyStyle" id="370282" style="fill:#f6f67b"/>
<path d="" class="polyStyle" id="371083" style="fill:#f6f67b"/>
<path d="" class="polyStyle" id="371082" style="fill:#fbe6ef"/>
<path d="" class="polyStyle" id="652801" style="fill:#f8c67d"/>
<path d="" class="polyStyle" id="654301" style="fill:#ee8b94"/>
<path d="" class="polyStyle" id="370687" style="fill:#ee8b94"/>
<path d="" class="polyStyle" id="371482" style="fill:#d4ecb2"/>
<path d="" class="polyStyle" id="421081" style="fill:#fbe6ef"/>
<path d="" class="polyStyle" id="429006" style="fill:#f6f67b"/>
<path d="" class="polyStyle" id="440982" style="fill:#d4ecb2"/>
<path d="" class="polyStyle" id="421181" style="fill:#d4ecb2"/>
<path d="" class="polyStyle" id="321181" style="fill:#d4ecb2"/>
<path d="" class="polyStyle" id="659007" style="fill:#ee8b94"/>
<path d="" class="polyStyle" id="652701" style="fill:#fbe6ef"/>
<path d="" class="polyStyle" id="210781" style="fill:#fbe6ef"/>
<path d="" class="polyStyle" id="460204" style="fill:#f6f67b"/>
<path d="" class="polyStyle" id="210211" style="fill:#f6f67b"/>
<path d="" class="polyStyle" id="450512" style="fill:#ee8b94"/>
<path d="" class="polyStyle" id="450602" style="fill:#fbe6ef"/>
<path d="" class="polyStyle" id="440404" style="fill:#ee8b94"/>
<path d="" class="polyStyle" id="440403" style="fill:#f6f67b"/>
<path d="" class="polyStyle" id="441502" style="fill:#f6f67b"/>
<path d="" class="polyStyle" id="431002" style="fill:#d4ecb2"/>
<path d="" class="polyStyle" id="500107" style="fill:#fbe6ef"/>
<path d="" class="polyStyle" id="430611" style="fill:#d4ecb2"/>
<polygon points="745,1260 748,1263 771,1291 778,1299 782,1298 797,1293 806,1299 827,1335 827,1386 827,1410 846,1429 883,1438 949,1444 973,1532 964,1551 955,1563 948,1578 942,1592 939,1607 934,1618 926,1629 927,1635 931,1642 934,1647 941,1654 946,1662 958,1671 961,1673 955,1687 944,1699 919,1711 893,1723 870,1735 853,1742 846,1750 839,1762 840,1779 840,1793 824,1800 810,1802 792,1806 788,1819 785,1830 789,1851 799,1870 805,1888 807,1906 803,1923 803,1936 803,1952 805,1970 810,1988 823,1994 837,2000 853,2011 864,2019 870,2031 874,2044 884,2062 899,2072 913,2083 927,2092 944,2101 960,2110 975,2123 985,2134 995,2149 1005,2152 1013,2152 1024,2152 1038,2151 1049,2154 1061,2158 1071,2163 1085,2174 1099,2184 1098,2198 1091,2204 1078,2210 1064,2216 1049,2221 1041,2231 1041,2242 1048,2252 1056,2261 1063,2265 1060,2268 1052,2269 1043,2268 1031,2271 1018,2274 1005,2283 994,2295 988,2308 981,2322 978,2336 980,2350 990,2359 1001,2368 1011,2374 1023,2380 1034,2386 1045,2391 1058,2397 1061,2406 1061,2414 1062,2422 1065,2434 1069,2446 1081,2449 1090,2453 1102,2458 1114,2464 1126,2480 1135,2514 1138,2546 1138,2556 1144,2563 1152,2571 1156,2583 1161,2595 1169,2604 1181,2615 1191,2625 1195,2636 1195,2648 1183,2645 1173,2638 1165,2632 1154,2628 1140,2628 1125,2636 1113,2645 1103,2655 1090,2667 1078,2679 1077,2693 1083,2707 1089,2717 1094,2733 1098,2748 1105,2760 1117,2768 1132,2774 1139,2783 1137,2792 1131,2805 1124,2816 1111,2824 1094,2830 1081,2839 1072,2848 1070,2856 1061,2869 1046,2874 1031,2879 1014,2880 996,2877 989,2866 985,2855 981,2842 969,2827 954,2830 942,2835 924,2843 912,2855 906,2866 912,2877 926,2886 938,2893 938,2905 932,2918 925,2934 921,2951 918,2966 908,2970 891,2969 876,2965 855,2962 835,2973 823,2984 810,2995 798,2993 790,2985 774,2979 757,2981 754,2982 748,2986 737,2990 722,2994 713,2998 707,3000 702,3000 699,2999 693,2994 692,2991 692,2986 692,2981 692,2974 683,2959 680,2946 683,2930 686,2919 682,2894 674,2881 663,2864 648,2856 637,2849 624,2830 608,2817 602,2811 594,2811 586,2814 579,2816 564,2822 539,2828 517,2831 498,2837 494,2840 489,2842 486,2844 481,2844 477,2843 473,2842 469,2839 465,2838 461,2835 457,2834 452,2833 448,2833 444,2833 440,2834 436,2837 433,2841 433,2845 432,2850 432,2854 431,2858 429,2861 424,2863 420,2865 417,2867 412,2868 409,2872 407,2876 406,2879 405,2883 404,2886 403,2890 399,2893 395,2893 391,2892 387,2891 382,2890 379,2890 375,2890 370,2892 366,2893 362,2896 358,2897 351,2905 333,2904 324,2895 317,2883 317,2874 323,2865 333,2862 341,2856 348,2849 343,2841 331,2835 319,2827 305,2820 294,2807 288,2800 278,2790 265,2786 253,2783 241,2778 231,2773 219,2763 208,2756 199,2747 195,2741 200,2731 206,2723 209,2715 207,2709 205,2700 196,2689 184,2682 174,2676 163,2668 158,2658 153,2645 155,2637 155,2629 153,2620 151,2614 150,2605 142,2601 125,2593 105,2583 98,2585 89,2582 81,2575 74,2569 74,2561 78,2548 80,2542 76,2535 70,2529 65,2520 55,2509 48,2498 41,2493 25,2476 7,2459 5,2449 5,2443 6,2435 3,2426 0,2418 0,2411 4,2401 13,2393 21,2387 23,2381 23,2355 21,2347 13,2336 16,2324 27,2314 34,2303 44,2293 57,2275 60,2264 55,2245 47,2235 44,2224 46,2216 55,2212 69,2207 80,2197 79,2181 75,2165 74,2151 77,2145 78,2133 80,2126 85,2118 93,2114 101,2116 120,2119 137,2117 155,2105 172,2086 184,2065 188,2045 193,2024 200,2008 203,1985 199,1963 199,1943 200,1921 203,1905 220,1890 244,1876 260,1861 276,1849 296,1836 309,1824 320,1807 320,1787 321,1768 321,1751 324,1735 327,1724 333,1711 349,1700 368,1696 386,1685 400,1676 420,1665 435,1656 448,1636 455,1619 457,1596 454,1576 451,1558 448,1539 447,1524 446,1508 449,1492 452,1479 458,1462 463,1441 469,1418 473,1399 475,1382 473,1361 468,1342 470,1343 474,1344 478,1345 482,1345 488,1346 496,1347 507,1348 513,1348 523,1349 531,1349 548,1349 569,1350 576,1351 585,1351 593,1349 599,1346 602,1341 604,1335 605,1328 605,1322 607,1318 609,1311 610,1308 613,1305 619,1301 626,1299 636,1294 643,1291 648,1287 657,1282 668,1273 671,1273 678,1274 681,1277 681,1281 682,1285 687,1291 694,1293 697,1294 704,1297 710,1298 720,1295 725,1292 728,1290 731,1285 732,1282 733,1279 733,1274 731,1269 731,1265 732,1260 736,1259 739,1258 742,1258 " class="polyStyle" id="420702" style="fill:#f6f67b"/>
<polygon points="1807,944 1835,965 1869,988 1902,1005 1934,1019 1986,1032 2030,1035 2072,1037 2102,1038 2154,1046 2181,1050 2211,1053 2241,1056 2273,1056 2306,1058 2332,1056 2371,1053 2415,1053 2463,1051 2514,1049 2543,1049 2561,1053 2573,1056 2613,1067 2656,1080 2697,1097 2729,1112 2760,1136 2791,1165 2825,1200 2842,1230 2856,1258 2868,1279 2879,1303 2894,1352 2903,1410 2913,1470 2916,1482 2920,1522 2931,1559 2935,1602 2931,1639 2919,1674 2904,1703 2888,1740 2879,1775 2878,1785 2852,1778 2846,1776 2833,1773 2820,1771 2804,1772 2788,1773 2784,1774 2777,1782 2769,1797 2770,1805 2769,1809 2763,1811 2756,1812 2746,1811 2727,1804 2712,1796 2703,1791 2698,1791 2694,1795 2694,1800 2695,1807 2695,1812 2692,1814 2680,1813 2675,1811 2647,1807 2641,1807 2633,1807 2622,1807 2617,1809 2613,1813 2611,1816 2604,1834 2602,1842 2593,1852 2586,1858 2582,1872 2573,1890 2568,1890 2560,1891 2551,1893 2545,1893 2542,1897 2541,1904 2539,1906 2535,1909 2533,1911 2531,1914 2526,1917 2524,1918 2520,1921 2516,1922 2513,1923 2509,1924 2508,1927 2509,1930 2514,1931 2517,1931 2522,1933 2528,1936 2531,1938 2531,1945 2532,1951 2533,1956 2535,1963 2533,1966 2528,1966 2523,1966 2520,1966 2517,1968 2513,1971 2510,1973 2498,1980 2494,1981 2489,1982 2486,1982 2483,1983 2482,1990 2480,1993 2479,1997 2478,2001 2476,2005 2472,2008 2471,2011 2467,2014 2464,2015 2461,2014 2458,2011 2454,2009 2444,2002 2437,1999 2431,1989 2424,1986 2413,1985 2403,1986 2395,1987 2392,1990 2382,1997 2375,2002 2368,2003 2365,2003 2362,2002 2357,2000 2354,2000 2351,2000 2348,2001 2344,2004 2339,2011 2335,2014 2328,2016 2323,2016 2315,2020 2312,2025 2312,2029 2312,2034 2312,2038 2311,2042 2310,2046 2308,2049 2305,2051 2299,2054 2296,2057 2290,2060 2283,2061 2276,2061 2266,2060 2261,2059 2253,2058 2244,2053 2241,2049 2238,2045 2234,2039 2228,2031 2224,2026 2219,2022 2216,2019 2210,2016 2205,2014 2203,2014 2199,2016 2193,2017 2188,2018 2183,2018 2177,2011 2172,2006 2165,1995 2161,1990 2156,1987 2151,1985 2146,1983 2131,1977 2118,1974 2100,1970 2082,1967 2064,1960 2046,1952 2042,1950 1994,1937 1975,1931 1956,1927 1948,1924 1938,1915 1921,1906 1903,1904 1884,1901 1858,1898 1851,1894 1841,1890 1826,1877 1821,1871 1817,1865 1812,1850 1811,1835 1812,1827 1811,1819 1803,1810 1795,1800 1786,1789 1786,1779 1790,1770 1794,1767 1803,1760 1816,1751 1827,1745 1832,1743 1837,1736 1839,1730 1841,1720 1833,1712 1824,1708 1821,1697 1817,1688 1807,1680 1797,1673 1787,1669 1773,1673 1756,1675 1740,1675 1725,1672 1711,1664 1696,1656 1679,1643 1668,1633 1662,1619 1662,1605 1663,1594 1666,1580 1670,1565 1670,1558 1664,1551 1651,1541 1639,1527 1631,1519 1619,1519 1597,1518 1580,1517 1548,1518 1519,1519 1489,1526 1459,1529 1420,1534 1401,1560 1401,1566 1400,1577 1405,1596 1412,1618 1407,1621 1400,1625 1382,1624 1352,1624 1332,1621 1307,1615 1276,1604 1266,1600 1262,1598 1256,1598 1249,1598 1244,1598 1241,1597 1237,1592 1229,1583 1224,1579 1219,1576 1214,1577 1203,1578 1191,1579 1180,1578 1168,1573 1161,1570 1149,1562 1144,1557 1141,1551 1146,1538 1146,1531 1147,1527 1144,1523 1138,1519 1130,1516 1125,1513 1117,1501 1117,1492 1116,1488 1113,1480 1113,1468 1113,1458 1112,1451 1107,1450 1103,1449 1089,1448 1081,1450 1073,1452 1064,1455 1057,1461 1020,1486 993,1511 973,1532 949,1444 883,1438 846,1429 827,1410 827,1386 827,1335 806,1299 797,1293 796,1289 810,1269 812,1264 813,1261 813,1257 813,1251 811,1244 810,1240 809,1236 808,1231 805,1225 804,1218 803,1211 802,1208 798,1201 793,1192 792,1184 791,1182 789,1179 789,1176 786,1173 786,1171 786,1164 788,1159 790,1153 793,1148 800,1144 814,1138 838,1129 841,1127 844,1126 848,1125 850,1125 853,1125 859,1128 864,1130 869,1131 872,1132 875,1133 881,1134 883,1139 886,1152 890,1161 892,1166 906,1183 922,1194 948,1203 969,1207 996,1213 1010,1218 1031,1227 1035,1228 1038,1228 1041,1228 1048,1229 1055,1228 1062,1226 1069,1223 1070,1221 1072,1213 1069,1209 1067,1205 1066,1202 1066,1198 1066,1189 1067,1186 1068,1183 1069,1179 1069,1176 1068,1173 1067,1169 1066,1163 1065,1160 1066,1156 1069,1150 1073,1147 1077,1143 1078,1139 1080,1136 1083,1135 1087,1134 1090,1134 1094,1134 1097,1134 1100,1135 1106,1140 1114,1142 1122,1141 1131,1139 1139,1137 1142,1136 1147,1135 1151,1135 1155,1137 1157,1138 1160,1138 1166,1138 1176,1141 1187,1146 1194,1150 1195,1157 1196,1164 1196,1168 1198,1171 1205,1173 1212,1173 1217,1173 1220,1169 1224,1166 1230,1163 1234,1163 1237,1163 1241,1164 1244,1163 1249,1162 1255,1160 1258,1159 1262,1158 1266,1157 1270,1156 1271,1153 1273,1152 1275,1150 1278,1146 1280,1141 1283,1136 1282,1133 1279,1130 1276,1127 1276,1123 1277,1119 1280,1117 1284,1112 1295,1101 1305,1098 1319,1097 1324,1098 1330,1099 1335,1100 1337,1104 1340,1107 1343,1111 1349,1119 1351,1120 1360,1121 1369,1122 1373,1123 1376,1123 1379,1123 1383,1122 1387,1121 1390,1119 1393,1117 1396,1116 1399,1114 1402,1113 1405,1111 1407,1110 1413,1107 1417,1106 1421,1106 1427,1105 1431,1105 1442,1105 1452,1105 1459,1105 1465,1104 1469,1104 1472,1100 1471,1095 1467,1090 1465,1088 1462,1084 1460,1079 1460,1073 1463,1068 1469,1063 1478,1059 1487,1056 1500,1052 1505,1049 1508,1047 1512,1044 1516,1042 1520,1038 1523,1034 1526,1031 1528,1027 1530,1023 1531,1020 1535,1014 1539,1011 1544,1008 1549,1007 1556,1007 1564,1007 1571,1006 1576,1004 1580,1004 1582,1004 1586,1004 1591,1003 1609,999 1631,998 1637,996 1643,993 1649,993 1656,991 1662,991 1669,991 1679,988 1686,986 1689,983 1693,980 1694,977 1696,972 1699,966 1700,961 1700,957 1699,953 1700,950 1704,947 1717,937 1734,924 1739,921 1743,917 1759,907 1764,903 1773,912 " class="polyStyle" id="420704" style="fill:#fbe6ef"/>
<polygon points="1464,34 1502,57 1540,81 1571,112 1604,145 1626,178 1628,201 1633,217 1646,246 1665,259 1677,278 1682,309 1681,349 1682,375 1676,413 1666,456 1660,490 1656,523 1652,555 1649,591 1648,622 1647,648 1648,686 1654,711 1662,754 1674,786 1693,817 1715,850 1742,881 1764,903 1759,907 1743,917 1739,921 1734,924 1717,937 1704,947 1700,950 1699,953 1700,957 1700,961 1699,966 1696,972 1694,977 1693,980 1689,983 1686,986 1679,988 1669,991 1662,991 1656,991 1649,993 1643,993 1637,996 1631,998 1609,999 1591,1003 1586,1004 1582,1004 1580,1004 1576,1004 1571,1006 1564,1007 1556,1007 1549,1007 1544,1008 1539,1011 1535,1014 1531,1020 1530,1023 1528,1027 1526,1031 1523,1034 1520,1038 1516,1042 1512,1044 1508,1047 1505,1049 1500,1052 1487,1056 1478,1059 1469,1063 1463,1068 1460,1073 1460,1079 1462,1084 1465,1088 1467,1090 1471,1095 1472,1100 1469,1104 1465,1104 1459,1105 1452,1105 1442,1105 1431,1105 1427,1105 1421,1106 1417,1106 1413,1107 1407,1110 1405,1111 1402,1113 1399,1114 1396,1116 1393,1117 1390,1119 1387,1121 1383,1122 1379,1123 1376,1123 1373,1123 1369,1122 1360,1121 1351,1120 1349,1119 1343,1111 1340,1107 1337,1104 1335,1100 1330,1099 1324,1098 1319,1097 1305,1098 1295,1101 1284,1112 1280,1117 1277,1119 1276,1123 1276,1127 1279,1130 1282,1133 1283,1136 1280,1141 1278,1146 1275,1150 1273,1152 1271,1153 1270,1156 1266,1157 1262,1158 1258,1159 1255,1160 1249,1162 1244,1163 1241,1164 1237,1163 1234,1163 1230,1163 1224,1166 1220,1169 1217,1173 1212,1173 1205,1173 1198,1171 1196,1168 1196,1164 1195,1157 1194,1150 1187,1146 1176,1141 1166,1138 1160,1138 1157,1138 1155,1137 1151,1135 1147,1135 1142,1136 1139,1137 1131,1139 1122,1141 1114,1142 1106,1140 1100,1135 1097,1134 1094,1134 1090,1134 1087,1134 1083,1135 1080,1136 1078,1139 1077,1143 1073,1147 1069,1150 1066,1156 1065,1160 1066,1163 1067,1169 1068,1173 1069,1176 1069,1179 1068,1183 1067,1186 1066,1189 1066,1198 1066,1202 1067,1205 1069,1209 1072,1213 1070,1221 1069,1223 1062,1226 1055,1228 1048,1229 1041,1228 1038,1228 1035,1228 1031,1227 1010,1218 996,1213 969,1207 948,1203 922,1194 906,1183 892,1166 890,1161 886,1152 883,1139 881,1134 875,1133 872,1132 869,1131 864,1130 859,1128 853,1125 850,1125 848,1125 844,1126 841,1127 838,1129 814,1138 800,1144 793,1148 790,1153 788,1159 786,1164 786,1171 786,1173 789,1176 789,1179 791,1182 792,1184 793,1192 798,1201 802,1208 803,1211 804,1218 805,1225 808,1231 809,1236 810,1240 811,1244 813,1251 813,1257 813,1261 812,1264 810,1269 796,1289 797,1293 782,1298 778,1299 771,1291 748,1263 745,1260 742,1258 739,1258 736,1259 732,1260 731,1265 731,1269 733,1274 733,1279 732,1282 731,1285 728,1290 725,1292 720,1295 710,1298 704,1297 697,1294 694,1293 687,1291 682,1285 681,1281 681,1277 678,1274 671,1273 668,1273 657,1282 648,1287 643,1291 636,1294 626,1299 619,1301 613,1305 610,1308 609,1311 607,1318 605,1322 605,1328 604,1335 602,1341 599,1346 593,1349 585,1351 576,1351 569,1350 548,1349 531,1349 523,1349 513,1348 507,1348 496,1347 488,1346 482,1345 478,1345 474,1344 470,1343 468,1342 449,1329 427,1300 414,1262 414,1236 427,1205 432,1160 431,1128 438,1083 444,1072 446,1026 434,1013 436,989 438,971 432,954 427,939 419,924 409,914 400,900 397,890 401,882 418,865 425,861 431,858 437,852 438,844 436,834 431,828 424,824 423,816 424,804 431,790 439,791 445,788 459,787 479,797 507,799 529,804 560,811 570,814 582,821 595,822 603,821 610,814 605,808 597,798 593,779 593,772 595,766 601,748 604,739 614,729 620,729 632,728 646,728 661,724 671,713 682,705 686,693 684,684 682,678 675,671 667,659 664,652 665,642 667,631 667,624 666,615 661,601 653,591 648,578 650,567 664,554 668,547 668,541 660,522 659,508 652,478 649,451 648,445 644,438 638,430 632,427 621,428 612,433 603,429 603,419 615,404 635,400 638,394 636,385 624,379 611,371 606,358 606,337 597,318 587,294 596,294 632,296 678,277 742,245 781,231 813,219 945,193 1013,175 1077,159 1131,135 1176,114 1234,63 1241,58 1280,33 1391,-1 1424,10 " class="polyStyle" id="420703" style="fill:#d4ecb2"/>
<path d="" class="polyStyle" id="511304" style="fill:#fbe6ef"/>
<path d="" class="polyStyle" id="340711" style="fill:#ee8b94"/>
<path d="" class="polyStyle" id="320118" style="fill:#f6f67b"/>
<path d="" class="polyStyle" id="510704" style="fill:#f6f67b"/>
<path d="" class="polyStyle" id="411502" style="fill:#ee8b94"/>
<path d="" class="polyStyle" id="320302" style="fill:#d4ecb2"/>
<path d="" class="polyStyle" id="140311" style="fill:#ee8b94"/>
<path d="" class="polyStyle" id="610802" style="fill:#ee8b94"/>
<path d="" class="polyStyle" id="120116" style="fill:#f6f67b"/>
<path d="" class="polyStyle" id="130303" style="fill:#fbe6ef"/>
<path d="" class="polyStyle" id="140211" style="fill:#f6f67b"/>
<path d="" class="polyStyle" id="150207" style="fill:#fbe6ef"/>
<path d="" class="polyStyle" id="211403" style="fill:#f6f67b"/>
<path d="" class="polyStyle" id="150802" style="fill:#f8c67d"/>
<path d="" class="polyStyle" id="210112" style="fill:#ee8b94"/>
<path d="" class="polyStyle" id="230406" style="fill:#d4ecb2"/>
<path d="" class="polyStyle" id="110113" style="fill:#fbe6ef"/>
<path d="" class="polyStyle" id="341702" style="fill:#fbe6ef"/>
<path d="" class="polyStyle" id="420303" style="fill:#ee8b94"/>
<path d="" class="polyStyle" id="340702" style="fill:#d4ecb2"/>
<path d="" class="polyStyle" id="421002" style="fill:#f6f67b"/>
<path d="" class="polyStyle" id="420117" style="fill:#f6f67b"/>
<path d="" class="polyStyle" id="440904" style="fill:#f8c67d"/>
<path d="" class="polyStyle" id="460205" style="fill:#ee8b94"/>
<path d="" class="polyStyle" id="460202" style="fill:#f6f67b"/>
<path d="" class="polyStyle" id="460203" style="fill:#fbe6ef"/>
<path d="" class="polyStyle" id="420304" style="fill:#f6f67b"/>
<path d="" class="polyStyle" id="445302" style="fill:#ee8b94"/>
<path d="" class="polyStyle" id="410202" style="fill:#d4ecb2"/>
<path d="" class="polyStyle" id="440800" style="fill:#f6f67b"/>
<path d="" class="polyStyle" id="440900" style="fill:#ee8b94"/>
<path d="" class="polyStyle" id="340800" style="fill:#ee8b94"/>
<path d="" class="polyStyle" id="460200" style="fill:#f6f67b"/>
<path d="" class="polyStyle" id="460000" style="fill:#ee8b94"/>
<path d="" class="polyStyle" id="450500" style="fill:#ee8b94"/>
<path d="" class="polyStyle" id="450600" style="fill:#ee8b94"/>
<path d="" class="polyStyle" id="440400" style="fill:#f6f67b"/>
<path d="" class="polyStyle" id="441700" style="fill:#f6f67b"/>
<path d="" class="polyStyle" id="441500" style="fill:#f6f67b"/>
<path d="" class="polyStyle" id="350600" style="fill:#ee8b94"/>
<path d="" class="polyStyle" id="710000" style="fill:#f6f67b"/>
<path d="" class="polyStyle" id="510400" style="fill:#f6f67b"/>
<path d="" class="polyStyle" id="522600" style="fill:#fbe6ef"/>
<path d="" class="polyStyle" id="520500" style="fill:#ee8b94"/>
<path d="" class="polyStyle" id="431200" style="fill:#f6f67b"/>
<path d="" class="polyStyle" id="430600" style="fill:#f6f67b"/>
<path d="" class="polyStyle" id="511400" style="fill:#d4ecb2"/>
<path d="" class="polyStyle" id="421000" style="fill:#ee8b94"/>
<path d="" class="polyStyle" id="341700" style="fill:#f6f67b"/>
<path d="" class="polyStyle" id="420500" style="fill:#f6f67b"/>
<path d="" class="polyStyle" id="511300" style="fill:#f6f67b"/>
<path d="" class="polyStyle" id="420900" style="fill:#f6f67b"/>
<path d="" class="polyStyle" id="511700" style="fill:#ee8b94"/>
<path d="" class="polyStyle" id="420600" style="fill:#d4ecb2"/>
<path d="" class="polyStyle" id="411500" style="fill:#fbe6ef"/>
<path d="" class="polyStyle" id="510800" style="fill:#ee8b94"/>
<path d="" class="polyStyle" id="420300" style="fill:#fbe6ef"/>
<path d="" class="polyStyle" id="611000" style="fill:#ee8b94"/>
<path d="" class="polyStyle" id="620800" style="fill:#fbe6ef"/>
<path d="" class="polyStyle" id="370200" style="fill:#ee8b94"/>
<path d="" class="polyStyle" id="371000" style="fill:#f6f67b"/>
<path d="" class="polyStyle" id="370600" style="fill:#fbe6ef"/>
<path d="" class="polyStyle" id="120000" style="fill:#f6f67b"/>
<path d="" class="polyStyle" id="130200" style="fill:#ee8b94"/>
<path d="" class="polyStyle" id="130300" style="fill:#f6f67b"/>
<path d="" class="polyStyle" id="652900" style="fill:#fbe6ef"/>
<path d="" class="polyStyle" id="150500" style="fill:#d4ecb2"/>
<path d="" class="polyStyle" id="" style="fill:#d4ecb2"/>
<path d="" class="polyStyle" id="350500" style="fill:#fbe6ef"/>
<path d="" class="polyStyle" id="440400" style="fill:#f6f67b"/>
<path d="" class="polyStyle" id="421100" style="fill:#d4ecb2"/>
<path d="" class="polyStyle" id="420100" style="fill:#fbe6ef"/>
<path d="" class="polyStyle" id="532500" style="fill:#fbe6ef"/>
<path d="" class="polyStyle" id="654200" style="fill:#fbe6ef"/>
<path d="" class="polyStyle" id="210700" style="fill:#d4ecb2"/>
<path d="" class="polyStyle" id="522300" style="fill:#fbe6ef"/>
<path d="" class="polyStyle" id="" style="fill:#ee8b94"/>
<path d="" class="polyStyle" id="440400" style="fill:#f6f67b"/>
<path d="" class="polyStyle" id="620000" style="fill:#f6f67b"/>
<path d="" class="polyStyle" id="430000" style="fill:#fbe6ef"/>
<path d="" class="polyStyle" id="420000" style="fill:#ee8b94"/>
<path d="" class="polyStyle" id="410000" style="fill:#f6f67b"/>
<path d="" class="polyStyle" id="350000" style="fill:#fbe6ef"/>
<path d="" class="polyStyle" id="520000" style="fill:#f6f67b"/>
<path d="" class="polyStyle" id="" style="fill:#ee8b94"/>
</svg>
