<?xml version="1.0" encoding="UTF-8"?>
<!DOCTYPE svg PUBLIC "-//W3C//DTD SVG 1.1 Tiny//EN" "http://www.w3.org/Graphics/SVG/1.1/DTD/svg11-tiny.dtd">
<svg version="1.1" xmlns="http://www.w3.org/2000/svg" xmlns:xlink="http://www.w3.org/1999/xlink" width="100%" height="100%" viewBox="0,0,8681,9414">
<title>SVG</title>
<desc>Poligon Test</desc>
<style id="style_css_sheet" type="text/css">
.polyStyle{fill: #cccccc;stroke-width:0;fill-rule:evenodd;}
</style>
<circle cx="3008" cy="2167" r="200" stroke="black" stroke-width="1" fill="red" id="421181" name="麻城市"/>
<circle cx="5804" cy="8794" r="200" stroke="black" stroke-width="1" fill="red" id="421182" name="武穴市"/>
<circle cx="1088" cy="1592" r="200" stroke="black" stroke-width="1" fill="red" id="421122" name="红安县"/>
<circle cx="7734" cy="7662" r="200" stroke="black" stroke-width="1" fill="red" id="421127" name="黄梅县"/>
<circle cx="6382" cy="4336" r="200" stroke="black" stroke-width="1" fill="red" id="421124" name="英山县"/>
<circle cx="2347" cy="4803" r="200" stroke="black" stroke-width="1" fill="red" id="421121" name="团风县"/>
<circle cx="4986" cy="4111" r="200" stroke="black" stroke-width="1" fill="red" id="421123" name="罗田县"/>
<circle cx="5173" cy="6890" r="200" stroke="black" stroke-width="1" fill="red" id="421126" name="蕲春县"/>
<circle cx="4303" cy="5751" r="200" stroke="black" stroke-width="1" fill="red" id="421125" name="浠水县"/>
<circle cx="2462" cy="5889" r="200" stroke="black" stroke-width="1" fill="red" id="421102"position="4" name="黄州区"/>
<path d="" class="polyStyle" id="" style="fill:#ee8b94"/>
<path d="" class="polyStyle" id="623022" style="fill:#fbe6ef"/>
<path d="" class="polyStyle" id="211421" style="fill:#f6f67b"/>
<path d="" class="polyStyle" id="532524" style="fill:#ee8b94"/>
<path d="" class="polyStyle" id="440825" style="fill:#f6f67b"/>
<path d="" class="polyStyle" id="441721" style="fill:#f6f67b"/>
<path d="" class="polyStyle" id="450521" style="fill:#f6f67b"/>
<path d="" class="polyStyle" id="450123" style="fill:#fbe6ef"/>
<path d="" class="polyStyle" id="350624" style="fill:#f6f67b"/>
<path d="" class="polyStyle" id="" style="fill:#fbe6ef"/>
<path d="" class="polyStyle" id="451224" style="fill:#fbe6ef"/>
<path d="" class="polyStyle" id="350627" style="fill:#f6f67b"/>
<path d="" class="polyStyle" id="" style="fill:#f6f67b"/>
<path d="" class="polyStyle" id="350525" style="fill:#f6f67b"/>
<path d="" class="polyStyle" id="530124" style="fill:#ee8b94"/>
<path d="" class="polyStyle" id="522627" style="fill:#ee8b94"/>
<path d="" class="polyStyle" id="510421" style="fill:#fbe6ef"/>
<path d="" class="polyStyle" id="522623" style="fill:#d4ecb2"/>
<path d="" class="polyStyle" id="430321" style="fill:#d4ecb2"/>
<path d="" class="polyStyle" id="511129" style="fill:#d4ecb2"/>
<path d="" class="polyStyle" id="511423" style="fill:#ee8b94"/>
<path d="" class="polyStyle" id="421023" style="fill:#f6f67b"/>
<polygon points="7697,6488 7699,6496 7705,6496 7725,6490 7751,6486 7761,6490 7775,6508 7791,6518 7805,6522 7819,6526 7837,6518 7849,6518 7859,6524 7873,6542 7881,6550 7899,6560 7919,6578 7931,6582 7943,6586 7939,6592 7935,6596 7923,6614 7915,6638 7915,6642 7925,6646 7939,6656 7947,6662 7951,6672 7951,6679 7929,6694 7925,6699 7928,6707 7931,6712 7933,6716 7939,6718 7953,6720 7967,6732 7981,6746 7995,6758 8001,6758 8019,6752 8029,6746 8037,6744 8043,6746 8045,6754 8049,6762 8051,6774 8057,6784 8073,6794 8073,6801 8061,6808 8055,6816 8059,6822 8067,6824 8087,6824 8111,6816 8123,6818 8127,6820 8133,6824 8135,6832 8137,6836 8135,6840 8129,6848 8135,6850 8153,6868 8169,6880 8183,6884 8187,6884 8188,6889 8183,6892 8171,6894 8169,6898 8165,6902 8167,6908 8171,6910 8183,6912 8191,6910 8203,6904 8217,6898 8225,6898 8231,6906 8239,6930 8247,6938 8249,6944 8255,6944 8263,6940 8273,6938 8279,6942 8287,6960 8291,6964 8301,6974 8309,6976 8318,6974 8321,6978 8321,6986 8323,6996 8320,6999 8305,7010 8303,7020 8307,7032 8315,7038 8325,7044 8329,7048 8329,7056 8311,7072 8301,7084 8293,7094 8279,7098 8271,7100 8269,7104 8279,7132 8281,7140 8281,7166 8291,7176 8299,7196 8301,7220 8299,7238 8295,7242 8291,7248 8291,7252 8299,7256 8305,7260 8313,7268 8317,7276 8321,7284 8321,7290 8315,7297 8321,7308 8345,7328 8349,7338 8349,7354 8351,7365 8363,7362 8371,7358 8381,7354 8395,7362 8417,7378 8433,7390 8435,7394 8427,7406 8415,7422 8411,7442 8413,7458 8417,7470 8433,7478 8439,7484 8441,7490 8437,7508 8423,7518 8415,7522 8403,7526 8399,7532 8399,7554 8399,7566 8395,7576 8409,7602 8413,7610 8417,7614 8425,7616 8431,7620 8433,7626 8431,7634 8429,7640 8421,7652 8411,7664 8401,7674 8393,7678 8381,7684 8375,7692 8377,7714 8379,7730 8381,7744 8391,7744 8399,7744 8407,7752 8415,7760 8413,7782 8415,7810 8425,7822 8431,7822 8441,7820 8443,7826 8443,7838 8443,7856 8449,7864 8451,7870 8435,7884 8427,7884 8417,7882 8407,7886 8405,7892 8403,7900 8405,7922 8417,7924 8427,7929 8395,7970 8393,7984 8393,7998 8391,8020 8393,8042 8389,8068 8387,8080 8397,8104 8399,8116 8391,8124 8387,8132 8383,8138 8361,8192 8361,8202 8361,8212 8375,8214 8389,8218 8391,8222 8389,8232 8627,8548 8633,8548 8637,8540 8641,8532 8663,8520 8651,8570 8631,8572 8630,8579 8626,8587 8624,8598 8623,8604 8627,8608 8655,8620 8663,8628 8671,8652 8673,8668 8673,8684 8669,8688 8655,8698 8645,8706 8637,8710 8627,8716 8623,8718 8631,8728 8641,8744 8653,8770 8657,8782 8665,8804 8653,8820 8641,8834 8637,8842 8639,8850 8651,8850 8657,8846 8673,8848 8681,8854 8681,8862 8671,8911 8662,8915 8582,8953 8517,8984 8485,9002 8419,9046 8365,9088 8329,9130 8299,9170 8272,9204 8270,9206 8256,9218 8216,9238 8152,9258 8096,9278 8002,9314 7962,9330 7904,9354 7861,9370 7856,9372 7822,9386 7778,9400 7696,9414 7660,9414 7641,9412 7632,9412 7514,9390 7446,9370 7382,9349 7300,9327 7211,9296 7116,9248 6878,9092 6834,9062 6659,8938 6619,8907 6622,8906 6634,8892 6642,8883 6649,8877 6671,8866 6678,8857 6688,8849 6696,8845 6704,8844 6714,8843 6725,8845 6733,8845 6738,8838 6746,8829 6740,8827 6733,8825 6723,8821 6721,8812 6718,8803 6709,8791 6703,8787 6705,8781 6699,8772 6686,8762 6680,8756 6681,8750 6678,8742 6673,8734 6667,8727 6659,8718 6647,8707 6643,8697 6639,8683 6635,8672 6627,8669 6626,8663 6620,8654 6619,8647 6619,8640 6628,8622 6633,8615 6640,8607 6647,8602 6653,8600 6660,8599 6667,8604 6673,8604 6680,8600 6688,8604 6694,8603 6701,8602 6711,8603 6717,8608 6728,8611 6737,8620 6743,8618 6748,8612 6756,8605 6760,8599 6764,8591 6770,8592 6776,8591 6782,8593 6790,8590 6792,8597 6793,8605 6801,8606 6808,8606 6818,8602 6821,8596 6819,8589 6822,8582 6830,8580 6829,8574 6826,8566 6827,8557 6830,8549 6829,8543 6826,8534 6823,8527 6822,8521 6819,8515 6816,8507 6814,8501 6812,8495 6805,8487 6804,8480 6808,8469 6817,8465 6824,8465 6833,8464 6839,8461 6849,8452 6856,8445 6872,8431 6880,8425 6892,8418 6904,8411 6916,8407 6922,8399 6926,8393 6933,8382 6944,8372 6950,8365 6957,8359 6964,8351 6971,8345 6979,8338 6986,8330 6997,8318 7010,8305 7021,8295 7031,8286 7038,8279 7046,8271 7053,8263 7061,8253 7072,8241 7080,8230 7088,8222 7095,8213 7102,8204 7111,8195 7120,8186 7132,8172 7152,8152 7161,8142 7162,8136 7154,8127 7132,8105 7122,8097 7113,8089 7105,8083 7091,8071 7081,8063 7071,8054 7060,8042 7054,8036 7044,8020 7017,7992 6997,7971 6971,7951 6960,7949 6941,7954 6926,7962 6918,7958 6915,7947 6918,7940 6926,7921 6938,7897 6940,7888 6947,7883 6960,7881 6984,7875 6988,7863 6988,7829 6985,7814 6981,7794 6987,7780 6997,7771 7016,7757 7033,7742 7040,7735 7050,7720 7053,7704 7056,7692 7063,7688 7081,7684 7095,7682 7113,7675 7119,7669 7119,7636 7125,7628 7130,7622 7130,7612 7121,7595 7108,7582 7087,7566 7067,7556 7042,7549 7017,7544 6998,7544 6985,7546 6978,7542 6972,7530 6960,7518 6946,7513 6933,7504 6917,7485 6903,7465 6880,7428 6864,7407 6851,7381 6841,7372 6836,7364 6832,7352 6829,7338 6826,7311 6835,7293 6835,7276 6830,7269 6815,7261 6799,7250 6787,7242 6783,7232 6781,7224 6781,7215 6774,7209 6763,7204 6755,7201 6754,7194 6753,7186 6755,7176 6762,7165 6770,7154 6775,7140 6770,7131 6763,7123 6756,7113 6752,7101 6741,7098 6727,7095 6748,7080 6778,7066 6806,7054 6820,7048 6846,7047 6872,7049 6892,7048 6914,7048 6931,7042 6945,7036 6962,7022 6973,7005 6987,6983 6996,6970 7008,6960 7022,6955 7035,6952 7047,6946 7050,6937 7048,6927 7054,6916 7065,6908 7080,6904 7104,6901 7124,6903 7133,6899 7139,6878 7147,6857 7160,6844 7172,6832 7181,6820 7182,6809 7178,6794 7168,6770 7162,6748 7160,6732 7164,6725 7179,6713 7201,6712 7228,6712 7247,6707 7267,6702 7282,6697 7297,6697 7307,6684 7317,6664 7332,6648 7351,6634 7371,6622 7387,6617 7407,6613 7424,6607 7436,6600 7452,6592 7476,6590 7501,6587 7519,6583 7537,6576 7557,6573 7575,6569 7595,6566 7607,6563 7613,6558 7611,6550 7606,6543 7605,6534 7612,6528 7617,6524 7655,6520 7659,6520 7663,6514 7671,6494 7677,6476 7683,6470 7687,6468 7693,6482 " class="polyStyle" id="421127" style="fill:#f6f67b"/>
<polygon points="6861,4683 6871,4685 6903,4690 6923,4704 6955,4714 6965,4716 6973,4722 6979,4734 6981,4766 6989,4786 6991,4804 7001,4814 7017,4822 7043,4822 7063,4842 7071,4850 7067,4858 7053,4870 7071,4910 7043,4928 7027,4940 7029,4956 7039,4982 7061,5004 7073,5024 7081,5042 7089,5046 7099,5048 7109,5046 7113,5038 7113,5012 7121,4998 7131,4996 7137,4996 7143,5002 7151,5012 7193,5026 7203,5028 7221,5020 7227,5016 7233,5014 7239,5016 7245,5026 7259,5052 7263,5066 7267,5074 7277,5076 7311,5080 7325,5082 7347,5094 7365,5106 7377,5112 7385,5116 7385,5124 7387,5134 7391,5142 7371,5166 7365,5176 7373,5188 7385,5200 7393,5208 7405,5222 7411,5232 7403,5250 7409,5260 7415,5278 7421,5298 7423,5304 7445,5314 7469,5316 7477,5320 7499,5348 7507,5372 7515,5384 7513,5396 7509,5408 7509,5414 7513,5416 7527,5420 7549,5430 7555,5434 7563,5434 7569,5436 7579,5436 7589,5434 7597,5432 7605,5436 7603,5444 7589,5454 7583,5462 7573,5470 7563,5478 7551,5484 7543,5488 7537,5494 7533,5506 7521,5524 7527,5536 7523,5542 7507,5550 7505,5554 7503,5560 7503,5580 7497,5592 7491,5602 7483,5604 7477,5604 7469,5608 7469,5612 7473,5618 7477,5626 7481,5644 7491,5662 7495,5676 7489,5702 7475,5706 7467,5714 7463,5742 7461,5758 7461,5766 7467,5770 7499,5774 7509,5774 7515,5776 7517,5782 7527,5792 7547,5802 7561,5800 7575,5806 7579,5810 7583,5830 7589,5854 7589,5866 7587,5872 7589,5876 7595,5880 7615,5884 7655,5882 7681,5884 7701,5888 7717,5892 7717,5898 7717,5904 7711,5918 7707,5922 7695,5928 7685,5936 7677,5936 7671,5934 7663,5928 7653,5922 7623,5926 7617,5928 7605,5936 7595,5950 7583,5978 7563,6002 7553,6012 7543,6028 7531,6034 7521,6036 7501,6032 7487,6032 7485,6036 7487,6044 7487,6060 7483,6068 7469,6076 7461,6080 7455,6084 7439,6088 7425,6094 7423,6100 7419,6106 7415,6114 7411,6118 7413,6126 7421,6134 7439,6170 7449,6180 7459,6188 7461,6198 7465,6212 7467,6220 7469,6232 7469,6240 7463,6244 7459,6248 7461,6252 7463,6256 7467,6260 7473,6262 7491,6258 7503,6266 7507,6278 7513,6284 7513,6296 7509,6308 7509,6312 7525,6318 7541,6316 7565,6318 7571,6320 7577,6332 7581,6342 7585,6352 7585,6360 7587,6380 7583,6394 7569,6400 7561,6402 7549,6402 7541,6406 7531,6422 7531,6430 7539,6438 7539,6452 7531,6468 7515,6474 7513,6478 7517,6482 7537,6494 7549,6498 7579,6504 7617,6524 7612,6528 7605,6534 7606,6543 7611,6550 7613,6558 7607,6563 7595,6566 7575,6569 7557,6573 7537,6576 7519,6583 7501,6587 7476,6590 7452,6592 7436,6600 7424,6607 7407,6613 7387,6617 7371,6622 7351,6634 7332,6648 7317,6664 7307,6684 7297,6697 7282,6697 7267,6702 7247,6707 7228,6712 7201,6712 7179,6713 7164,6725 7160,6732 7162,6748 7168,6770 7178,6794 7182,6809 7181,6820 7172,6832 7160,6844 7147,6857 7139,6878 7133,6899 7124,6903 7104,6901 7080,6904 7065,6908 7054,6916 7048,6927 7050,6937 7047,6946 7035,6952 7022,6955 7008,6960 6996,6970 6987,6983 6973,7005 6962,7022 6945,7036 6931,7042 6914,7048 6892,7048 6872,7049 6846,7047 6820,7048 6806,7054 6778,7066 6748,7080 6727,7095 6703,7096 6683,7101 6665,7105 6652,7109 6646,7115 6634,7117 6623,7116 6605,7114 6593,7114 6585,7117 6574,7123 6556,7128 6543,7126 6530,7122 6518,7123 6510,7130 6498,7138 6487,7140 6474,7136 6462,7127 6438,7116 6422,7114 6409,7116 6361,7118 6349,7114 6336,7104 6322,7086 6313,7076 6295,7064 6278,7050 6267,7035 6246,7023 6220,7007 6195,6994 6180,6988 6160,6988 6146,6985 6135,6975 6123,6964 6112,6957 6095,6949 6078,6941 6061,6935 6051,6936 6035,6938 6010,6939 5987,6943 5965,6947 5952,6953 5950,6960 5949,6972 5928,6980 5923,6986 5922,6997 5926,7011 5922,7028 5911,7035 5899,7038 5884,7038 5872,7040 5859,7043 5843,7038 5819,7028 5806,7021 5791,7011 5772,6996 5759,6987 5743,6989 5727,6992 5712,6989 5697,6980 5674,6985 5664,6999 5647,7011 5626,7021 5602,7039 5602,7058 5593,7067 5580,7075 5565,7083 5551,7084 5543,7088 5541,7099 5541,7116 5536,7133 5527,7150 5528,7158 5531,7171 5534,7187 5552,7209 5563,7224 5567,7236 5566,7243 5560,7257 5547,7270 5528,7288 5515,7303 5506,7307 5500,7317 5495,7323 5492,7330 5490,7336 5489,7342 5489,7358 5484,7369 5484,7378 5481,7386 5475,7391 5475,7397 5481,7399 5492,7400 5494,7407 5500,7410 5507,7416 5508,7422 5509,7428 5511,7436 5511,7450 5510,7456 5508,7463 5502,7467 5501,7474 5499,7482 5495,7488 5491,7494 5490,7501 5488,7507 5482,7510 5475,7509 5468,7511 5464,7521 5470,7527 5466,7533 5462,7539 5458,7546 5461,7553 5460,7559 5457,7565 5453,7572 5445,7575 5438,7582 5441,7589 5447,7592 5456,7592 5462,7596 5463,7602 5461,7609 5463,7617 5457,7623 5448,7628 5449,7635 5453,7641 5450,7650 5446,7656 5439,7662 5433,7669 5433,7676 5431,7683 5428,7690 5429,7697 5423,7694 5417,7697 5418,7705 5416,7711 5410,7717 5406,7723 5407,7730 5411,7737 5417,7745 5421,7755 5422,7764 5416,7767 5422,7770 5427,7776 5429,7784 5427,7791 5419,7790 5412,7792 5413,7799 5411,7809 5405,7813 5397,7818 5395,7825 5396,7833 5394,7839 5388,7841 5380,7846 5375,7853 5374,7859 5373,7868 5371,7874 5368,7881 5359,7887 5352,7889 5352,7901 5353,7909 5360,7917 5366,7926 5367,7932 5366,7942 5360,7952 5359,7961 5361,7969 5362,7977 5359,7983 5358,7989 5355,7995 5353,8001 5351,8007 5349,8013 5338,8025 5330,8033 5324,8028 5318,8021 5309,8015 5302,8010 5296,8006 5286,8001 5279,7996 5264,7986 5257,7981 5250,7974 5244,7970 5234,7963 5227,7960 5216,7953 5209,7949 5202,7946 5194,7942 5188,7941 5181,7940 5175,7938 5167,7935 5160,7933 5152,7932 5140,7934 5135,7942 5129,7944 5122,7943 5116,7944 5108,7950 5102,7954 5095,7959 5088,7963 5084,7969 5080,7976 5074,7982 5071,7988 5066,7995 5066,8002 5067,8010 5067,8017 5060,8023 5053,8024 5054,8030 5050,8036 5047,8048 5033,8066 5016,8071 5000,8072 4985,8075 4965,8071 4954,8061 4940,8052 4930,8041 4923,8043 4922,8049 4925,8057 4919,8058 4913,8060 4910,8066 4904,8066 4893,8069 4884,8073 4884,8079 4877,8083 4871,8085 4864,8090 4850,8097 4837,8080 4803,8035 4767,7997 4708,7945 4648,7885 4640,7877 4619,7833 4619,7780 4628,7736 4626,7676 4607,7634 4579,7568 4539,7507 4492,7427 4476,7410 4443,7373 4353,7269 4351,7268 4349,7266 4317,7226 4286,7190 4250,7156 4219,7125 4191,7094 4161,7056 4150,7044 4118,7010 4086,6984 4060,6971 4033,6960 4046,6938 4052,6931 4057,6919 4059,6894 4060,6882 4063,6879 4066,6874 4071,6867 4078,6856 4081,6850 4085,6844 4088,6838 4090,6832 4090,6825 4093,6816 4097,6811 4102,6807 4107,6801 4112,6789 4131,6764 4140,6751 4151,6735 4163,6725 4178,6720 4186,6711 4187,6701 4188,6687 4203,6673 4213,6660 4219,6641 4222,6627 4225,6616 4229,6600 4233,6579 4240,6561 4254,6556 4264,6550 4269,6546 4269,6535 4272,6526 4279,6521 4287,6519 4293,6518 4316,6536 4323,6535 4338,6531 4353,6518 4363,6504 4370,6492 4365,6480 4353,6470 4338,6459 4321,6455 4308,6447 4295,6438 4291,6421 4297,6407 4326,6404 4338,6397 4359,6384 4365,6380 4381,6386 4403,6393 4419,6404 4428,6401 4433,6390 4428,6378 4444,6366 4464,6358 4483,6346 4497,6338 4512,6338 4543,6343 4566,6343 4579,6343 4589,6343 4598,6338 4606,6337 4611,6336 4621,6340 4639,6347 4649,6354 4659,6360 4668,6361 4676,6360 4687,6359 4698,6352 4707,6344 4718,6332 4728,6320 4736,6314 4745,6310 4749,6308 4763,6301 4771,6297 4782,6287 4791,6275 4799,6263 4808,6254 4819,6245 4822,6244 4832,6241 4843,6237 4849,6229 4848,6225 4848,6221 4845,6217 4841,6207 4849,6197 4857,6188 4867,6171 4876,6163 4885,6161 4895,6157 4906,6151 4917,6142 4929,6135 4937,6129 4943,6127 4948,6128 4954,6128 4960,6125 4967,6120 4972,6116 4978,6108 4980,6101 4979,6091 4980,6087 4982,6083 4986,6082 4996,6090 5011,6087 5038,6074 5054,6077 5069,6069 5080,6069 5090,6064 5100,6058 5109,6052 5116,6046 5123,6042 5127,6035 5138,6032 5155,6032 5175,6034 5187,6037 5192,6039 5198,6041 5202,6043 5209,6044 5220,6044 5226,6046 5237,6050 5242,6054 5244,6059 5248,6072 5253,6081 5257,6086 5262,6087 5269,6087 5274,6086 5278,6083 5282,6079 5288,6076 5298,6069 5309,6065 5316,6059 5319,6053 5322,6047 5328,6043 5333,6042 5334,6038 5335,6032 5339,6024 5343,6014 5343,6008 5348,5998 5356,5990 5367,5975 5371,5972 5374,5968 5375,5963 5370,5950 5365,5932 5362,5923 5368,5913 5370,5901 5371,5889 5373,5886 5378,5877 5385,5869 5394,5865 5407,5862 5411,5856 5413,5849 5413,5841 5413,5828 5414,5810 5419,5793 5429,5780 5439,5769 5447,5753 5453,5743 5462,5731 5466,5721 5463,5716 5454,5706 5446,5699 5440,5691 5436,5676 5445,5663 5451,5646 5461,5633 5475,5625 5492,5616 5494,5613 5499,5606 5503,5599 5505,5592 5509,5584 5509,5573 5505,5566 5505,5562 5507,5559 5512,5556 5518,5550 5536,5556 5560,5547 5579,5546 5591,5556 5607,5573 5630,5600 5644,5611 5660,5614 5685,5619 5707,5629 5727,5642 5740,5655 5750,5658 5770,5654 5785,5649 5798,5648 5816,5637 5829,5625 5844,5611 5857,5617 5872,5626 5887,5632 5916,5626 5935,5621 5942,5607 5946,5595 5953,5580 5960,5566 5958,5553 5952,5532 5945,5514 5930,5501 5917,5483 5929,5469 5933,5460 5933,5449 5938,5438 5947,5427 5960,5408 5958,5393 5955,5381 5963,5369 5972,5376 5988,5391 5995,5404 6006,5428 6026,5450 6041,5445 6055,5440 6077,5437 6090,5437 6110,5442 6130,5453 6149,5458 6163,5457 6171,5442 6178,5444 6196,5441 6219,5437 6236,5431 6253,5420 6266,5408 6283,5390 6305,5372 6332,5353 6348,5345 6362,5341 6384,5338 6403,5332 6423,5323 6439,5319 6455,5316 6468,5309 6480,5301 6484,5286 6485,5266 6485,5248 6481,5233 6480,5223 6488,5215 6498,5205 6504,5190 6512,5166 6510,5149 6501,5145 6491,5140 6485,5133 6488,5125 6498,5118 6507,5111 6517,5100 6523,5090 6536,5077 6532,5066 6524,5054 6518,5043 6522,5034 6534,5024 6557,5011 6579,4999 6589,4989 6588,4980 6575,4968 6567,4957 6564,4938 6575,4941 6585,4942 6599,4943 6609,4938 6619,4925 6630,4910 6640,4890 6646,4868 6647,4849 6656,4827 6664,4809 6674,4801 6689,4799 6708,4798 6721,4790 6735,4782 6746,4774 6761,4775 6771,4779 6782,4781 6791,4776 6798,4768 6804,4755 6816,4740 6821,4730 6815,4721 6809,4704 6810,4686 6816,4679 6828,4676 6844,4678 " class="polyStyle" id="421126" style="fill:#fbe6ef"/>
<polygon points="3401,3549 3403,3556 3405,3563 3412,3568 3421,3572 3430,3577 3439,3588 3448,3604 3457,3617 3466,3629 3476,3638 3487,3648 3497,3655 3507,3662 3517,3669 3529,3677 3539,3685 3547,3690 3551,3694 3555,3695 3553,3698 3551,3712 3548,3718 3544,3721 3543,3725 3551,3729 3565,3732 3577,3736 3590,3742 3600,3745 3610,3749 3621,3757 3636,3767 3653,3784 3672,3802 3685,3814 3689,3818 3690,3832 3682,3845 3675,3856 3670,3866 3665,3874 3662,3881 3655,3892 3652,3898 3653,3906 3653,3911 3655,3916 3655,3919 3656,3922 3658,3925 3659,3928 3670,3937 3681,3943 3695,3949 3710,3954 3727,3960 3740,3964 3755,3969 3771,3976 3786,3985 3793,3990 3816,3985 3833,3974 3846,3960 3859,3950 3872,3945 3882,3944 3885,3953 3888,3964 3902,3969 3911,3968 3922,3968 3930,3966 3935,3968 3942,3974 3943,3985 3942,3998 3941,4034 3947,4041 3960,4037 3972,4027 3981,4023 3991,4025 4000,4028 4009,4033 4026,4044 4033,4056 4043,4066 4050,4074 4069,4096 4076,4103 4081,4111 4085,4114 4091,4115 4095,4111 4103,4107 4109,4104 4121,4103 4125,4101 4133,4097 4137,4092 4145,4086 4149,4083 4154,4082 4157,4083 4166,4090 4177,4100 4173,4106 4171,4109 4167,4128 4166,4171 4164,4188 4154,4218 4140,4250 4137,4258 4126,4274 4109,4297 4085,4328 4064,4353 4053,4361 4043,4365 4039,4368 4027,4370 4015,4367 3999,4355 3974,4327 3954,4304 3938,4299 3917,4296 3900,4297 3897,4297 3878,4302 3865,4320 3860,4342 3862,4362 3865,4373 3876,4391 3878,4404 3878,4418 3876,4429 3868,4439 3857,4445 3834,4456 3816,4469 3794,4483 3785,4494 3776,4518 3765,4551 3761,4564 3753,4592 3745,4619 3743,4624 3739,4640 3740,4675 3740,4684 3741,4695 3741,4709 3740,4718 3735,4726 3732,4735 3729,4752 3729,4760 3726,4775 3714,4786 3708,4795 3704,4805 3695,4811 3678,4821 3665,4832 3661,4836 3653,4845 3641,4854 3625,4860 3615,4864 3602,4865 3585,4856 3553,4833 3542,4830 3535,4828 3530,4827 3516,4827 3505,4829 3495,4836 3480,4854 3465,4880 3447,4906 3435,4924 3429,4950 3421,4965 3401,4985 3391,4993 3384,4990 3365,4994 3345,4984 3337,4977 3336,4969 3333,4963 3336,4956 3342,4952 3344,4945 3343,4936 3342,4922 3333,4906 3320,4890 3317,4880 3307,4865 3298,4856 3286,4841 3269,4832 3255,4818 3243,4805 3236,4804 3225,4805 3214,4813 3203,4824 3194,4841 3185,4862 3173,4880 3164,4899 3143,4966 3143,4976 3134,4983 3108,4979 3095,4978 3082,4983 3086,4993 3091,5003 3089,5011 3083,5023 3087,5035 3084,5042 3080,5053 3078,5060 3073,5066 3069,5073 3056,5081 3047,5082 3039,5082 3033,5080 3023,5076 2999,5078 2976,5094 2954,5116 2937,5132 2913,5151 2889,5166 2871,5183 2868,5195 2863,5202 2853,5209 2839,5215 2792,5232 2759,5238 2747,5240 2735,5241 2728,5241 2720,5240 2711,5237 2701,5232 2695,5231 2684,5236 2672,5242 2664,5239 2654,5233 2643,5224 2634,5210 2625,5206 2611,5209 2598,5211 2588,5205 2586,5199 2590,5189 2588,5180 2587,5168 2586,5152 2577,5121 2576,5094 2571,5072 2556,5056 2535,5047 2514,5047 2501,5042 2492,5034 2488,5028 2480,5021 2472,5007 2459,5007 2432,5002 2417,5011 2398,5013 2372,5013 2357,5022 2342,5041 2319,5059 2293,5069 2267,5076 2244,5076 2220,5086 2211,5108 2197,5142 2182,5179 2174,5204 2155,5191 2142,5162 2137,5146 2135,5123 2113,5090 2080,5057 2049,5026 2011,5002 1973,4979 1933,4955 1900,4944 1914,4940 1948,4940 1960,4932 2005,4917 2052,4908 2114,4898 2181,4891 2216,4888 2245,4883 2255,4871 2259,4860 2267,4857 2275,4859 2287,4853 2283,4838 2280,4831 2276,4823 2272,4816 2265,4810 2257,4808 2248,4813 2240,4817 2232,4818 2225,4816 2228,4808 2226,4795 2224,4786 2217,4776 2210,4769 2204,4760 2199,4752 2195,4743 2190,4732 2186,4726 2175,4708 2161,4699 2153,4692 2147,4685 2140,4678 2132,4674 2120,4671 2112,4673 2109,4680 2109,4688 2107,4695 2099,4702 2091,4707 2083,4710 2074,4715 2066,4721 2058,4721 2050,4716 2043,4709 2038,4702 2035,4695 2032,4688 2029,4680 2025,4673 2020,4666 2019,4659 2019,4652 2020,4645 2023,4638 2027,4630 2033,4623 2039,4617 2047,4610 2053,4603 2052,4596 2047,4589 2043,4582 2036,4575 2028,4569 2020,4562 2015,4554 2012,4547 2005,4542 1998,4526 1961,4461 1949,4431 1946,4418 1948,4409 1958,4404 1966,4394 1974,4375 1983,4364 1995,4359 2003,4360 2020,4374 2044,4393 2053,4387 2069,4374 2078,4370 2096,4363 2112,4358 2121,4355 2136,4348 2153,4344 2172,4340 2188,4338 2203,4332 2215,4327 2231,4315 2248,4299 2262,4286 2278,4269 2291,4257 2309,4243 2323,4237 2336,4233 2349,4225 2359,4214 2368,4201 2378,4172 2377,4158 2381,4138 2382,4125 2383,4110 2382,4094 2377,4081 2376,4073 2376,4060 2379,4048 2390,4042 2400,4039 2407,4037 2422,4038 2435,4039 2448,4044 2463,4050 2476,4046 2484,4047 2491,4054 2492,4065 2499,4086 2506,4087 2515,4091 2522,4092 2533,4093 2540,4095 2550,4100 2559,4103 2568,4106 2578,4106 2585,4103 2593,4094 2617,4066 2645,4058 2660,4059 2673,4070 2688,4093 2702,4101 2709,4104 2715,4111 2726,4119 2736,4133 2745,4146 2751,4152 2759,4149 2765,4146 2774,4134 2781,4122 2783,4111 2784,4101 2784,4091 2781,4081 2771,4073 2766,4066 2762,4060 2757,4054 2751,4049 2744,4048 2736,4046 2725,4038 2725,4018 2736,4010 2749,4005 2765,4005 2778,4003 2789,3998 2797,3994 2808,3989 2818,3983 2825,3974 2833,3968 2840,3970 2847,3982 2845,3989 2850,3996 2857,3993 2867,3991 2878,3987 2886,3975 2885,3967 2888,3954 2891,3946 2901,3945 2909,3945 2909,3951 2908,3959 2907,3974 2915,3987 2923,3985 2929,3984 2938,3980 2941,3974 2940,3963 2937,3952 2938,3942 2941,3930 2948,3911 2961,3898 2969,3895 2977,3894 2987,3892 2996,3880 2999,3872 2998,3862 2994,3852 2988,3843 2977,3830 2971,3825 2964,3820 2959,3812 2953,3807 2951,3801 2953,3794 2957,3787 2960,3776 2955,3767 2971,3750 2986,3737 3002,3734 3011,3736 3023,3756 3036,3762 3045,3762 3049,3756 3048,3750 3047,3741 3045,3732 3072,3728 3092,3732 3111,3739 3120,3739 3129,3737 3138,3737 3146,3744 3150,3754 3145,3760 3136,3768 3131,3774 3141,3783 3152,3788 3160,3791 3171,3790 3187,3787 3193,3782 3198,3776 3206,3766 3212,3763 3226,3757 3234,3757 3243,3758 3250,3759 3258,3755 3267,3749 3271,3742 3271,3735 3264,3731 3255,3730 3247,3725 3247,3719 3248,3710 3254,3704 3269,3705 3281,3692 3293,3685 3299,3680 3305,3678 3314,3673 3321,3669 3329,3666 3336,3662 3343,3659 3367,3655 3379,3648 3400,3630 3400,3614 3392,3607 3390,3600 3388,3591 3388,3580 3385,3571 3374,3563 3365,3561 3357,3560 3342,3557 3363,3554 3379,3546 3389,3544 3397,3541 3400,3544 " class="polyStyle" id="421121" style="fill:#fbe6ef"/>
<path d="" class="polyStyle" id="511724" style="fill:#f6f67b"/>
<polygon points="5577,1694 5595,1706 5599,1724 5605,1732 5625,1754 5629,1784 5633,1790 5645,1806 5660,1825 5671,1828 5675,1830 5685,1848 5699,1872 5701,1880 5703,1890 5703,1898 5693,1912 5679,1920 5681,1926 5695,1938 5697,1950 5689,1974 5685,1994 5661,2008 5657,2014 5659,2024 5671,2040 5677,2048 5685,2060 5695,2066 5703,2066 5717,2060 5725,2054 5727,2064 5727,2072 5731,2082 5735,2090 5725,2102 5721,2110 5737,2118 5751,2134 5767,2152 5783,2158 5780,2172 5777,2178 5773,2186 5763,2204 5771,2214 5781,2218 5793,2220 5817,2226 5831,2236 5843,2252 5855,2262 5881,2258 5881,2280 5905,2296 5909,2312 5919,2316 5925,2316 5935,2312 5943,2302 5963,2284 5973,2276 5977,2272 5983,2258 5977,2244 5971,2230 5973,2214 5979,2216 5985,2222 5993,2230 6009,2234 6015,2222 6017,2204 6017,2194 6009,2182 6013,2178 6033,2166 6061,2142 6088,2119 6105,2116 6119,2114 6149,2112 6159,2106 6173,2088 6181,2070 6187,2050 6195,2030 6203,2014 6205,1996 6207,1962 6211,1932 6215,1928 6217,1924 6227,1924 6243,1922 6249,1926 6263,1944 6297,1936 6301,1940 6301,1946 6301,1958 6307,1982 6317,1984 6335,1982 6351,1978 6367,1976 6387,1990 6403,2000 6419,2006 6449,2020 6461,2016 6469,2010 6475,2006 6485,2006 6493,2010 6505,2020 6531,2020 6539,2024 6547,2024 6553,2026 6557,2036 6557,2050 6555,2066 6553,2076 6551,2086 6551,2104 6555,2114 6559,2118 6569,2120 6577,2118 6597,2120 6617,2130 6631,2136 6643,2140 6653,2142 6657,2146 6659,2152 6657,2162 6659,2170 6669,2196 6673,2202 6667,2214 6663,2224 6661,2244 6664,2249 6673,2250 6677,2250 6687,2248 6699,2250 6713,2252 6725,2256 6729,2262 6735,2268 6745,2280 6749,2290 6761,2308 6785,2342 6801,2356 6809,2364 6815,2380 6823,2408 6827,2428 6837,2444 6837,2454 6833,2468 6835,2480 6849,2496 6865,2505 6865,2512 6865,2518 6865,2521 6864,2528 6863,2536 6861,2542 6861,2549 6861,2553 6861,2560 6862,2564 6863,2568 6863,2573 6864,2578 6866,2583 6868,2589 6872,2594 6874,2599 6876,2603 6880,2608 6882,2611 6884,2614 6886,2621 6887,2625 6885,2630 6880,2634 6875,2637 6870,2640 6864,2643 6860,2645 6854,2649 6851,2651 6847,2655 6841,2660 6835,2665 6830,2669 6825,2673 6820,2677 6815,2681 6812,2683 6809,2685 6804,2687 6800,2688 6795,2688 6792,2687 6788,2687 6781,2686 6776,2684 6772,2683 6767,2682 6762,2682 6757,2683 6752,2684 6748,2686 6743,2689 6737,2694 6732,2700 6726,2706 6722,2708 6717,2712 6713,2714 6710,2715 6706,2715 6701,2715 6697,2714 6693,2711 6688,2708 6685,2705 6681,2704 6676,2701 6671,2700 6666,2699 6658,2698 6653,2697 6647,2696 6641,2695 6636,2694 6633,2692 6627,2690 6619,2688 6611,2686 6603,2685 6583,2680 6578,2679 6573,2679 6569,2680 6566,2684 6565,2687 6564,2694 6564,2701 6564,2707 6566,2713 6568,2719 6570,2725 6571,2731 6573,2736 6573,2743 6573,2751 6573,2760 6571,2767 6569,2772 6566,2777 6563,2781 6559,2787 6554,2792 6552,2797 6549,2802 6547,2805 6544,2808 6540,2811 6536,2814 6533,2817 6530,2820 6526,2822 6522,2825 6518,2827 6515,2829 6515,2832 6516,2837 6517,2840 6518,2845 6519,2850 6521,2855 6522,2861 6523,2866 6522,2870 6522,2874 6522,2876 6526,2880 6529,2882 6532,2883 6537,2885 6544,2884 6550,2884 6556,2883 6561,2880 6567,2878 6574,2877 6581,2878 6586,2878 6591,2879 6595,2881 6601,2884 6605,2887 6609,2890 6613,2892 6618,2893 6621,2894 6622,2900 6620,2902 6616,2905 6615,2911 6613,2920 6609,2944 6613,2951 6615,2956 6614,2962 6613,2967 6612,2976 6612,2980 6612,2986 6609,2989 6607,2994 6603,2998 6602,3001 6598,3006 6595,3011 6592,3015 6589,3020 6585,3022 6582,3026 6575,3028 6568,3032 6563,3034 6559,3036 6556,3040 6548,3047 6536,3047 6512,3047 6498,3050 6494,3060 6488,3077 6480,3090 6468,3099 6453,3114 6440,3125 6424,3132 6395,3146 6370,3157 6356,3166 6349,3182 6343,3193 6330,3200 6307,3207 6278,3213 6254,3225 6227,3245 6208,3260 6193,3269 6164,3271 6128,3277 6111,3282 6102,3291 6091,3304 6080,3319 6080,3330 6086,3340 6091,3350 6063,3358 6039,3367 6020,3378 6002,3395 5987,3414 5981,3438 5978,3456 5971,3471 5960,3496 5948,3518 5939,3545 5932,3570 5936,3581 5957,3607 5956,3617 5951,3623 5933,3636 5914,3648 5904,3658 5891,3665 5875,3677 5878,3687 5894,3707 5895,3717 5888,3728 5874,3748 5868,3766 5859,3784 5846,3793 5823,3805 5801,3814 5795,3824 5784,3836 5767,3847 5748,3857 5731,3865 5730,3879 5735,3901 5733,3921 5734,3930 5738,3952 5719,3961 5689,3971 5673,3982 5677,3997 5685,4019 5698,4035 5710,4041 5734,4039 5767,4037 5795,4032 5821,4025 5835,4013 5848,3996 5859,3968 5871,3945 5886,3922 5899,3905 5916,3895 5940,3890 5961,3889 5982,3890 5996,3896 6005,3903 6008,3921 6018,3940 6033,3936 6045,3933 6070,3951 6069,3967 6068,3990 6065,4017 6072,4037 6073,4047 6071,4059 6071,4064 6071,4069 6070,4076 6057,4083 6049,4088 6044,4096 6042,4105 6043,4115 6044,4118 6045,4122 6050,4128 6057,4131 6067,4133 6081,4130 6097,4128 6107,4129 6111,4133 6111,4140 6104,4150 6088,4160 6075,4163 6068,4166 6063,4172 6060,4179 6061,4185 6068,4192 6083,4197 6098,4199 6105,4205 6114,4225 6116,4232 6114,4238 6118,4249 6123,4259 6135,4271 6140,4278 6145,4284 6146,4287 6159,4297 6161,4308 6159,4316 6151,4324 6142,4332 6137,4339 6138,4354 6136,4369 6134,4380 6123,4388 6107,4389 6095,4390 6084,4395 6078,4403 6068,4413 6053,4422 6051,4431 6055,4439 6067,4449 6081,4456 6093,4455 6107,4459 6119,4469 6116,4479 6106,4512 6089,4545 6070,4571 6043,4588 5999,4611 5974,4619 5942,4627 5906,4644 5901,4657 5899,4669 5900,4709 5912,4772 5906,4798 5891,4814 5854,4803 5816,4798 5806,4825 5818,4851 5817,4884 5788,4914 5748,4944 5717,4936 5672,4928 5639,4919 5598,4909 5565,4872 5539,4874 5519,4903 5500,4938 5487,4964 5475,4994 5471,5028 5471,5063 5444,5077 5388,5068 5362,5079 5352,5080 5339,5072 5330,5074 5310,5089 5296,5097 5282,5097 5267,5093 5255,5073 5258,5041 5252,5034 5221,5050 5193,5061 5176,5052 5171,5050 5171,5038 5169,5026 5158,5017 5138,4998 5124,4980 5119,4959 5126,4935 5130,4921 5129,4911 5132,4888 5123,4882 5101,4886 5096,4886 5087,4881 5084,4877 5078,4861 5079,4856 5079,4844 5075,4830 5069,4819 5055,4806 5053,4802 5048,4798 5045,4783 5041,4773 5034,4765 5025,4759 5019,4762 5012,4765 5005,4772 4995,4774 4985,4774 4977,4772 4969,4769 4962,4769 4958,4774 4955,4781 4947,4790 4942,4800 4933,4806 4930,4812 4929,4819 4928,4825 4927,4829 4923,4832 4916,4831 4905,4825 4896,4821 4881,4821 4869,4821 4862,4817 4864,4810 4871,4800 4874,4787 4873,4773 4875,4763 4868,4746 4854,4731 4836,4716 4819,4707 4803,4700 4792,4695 4787,4695 4780,4697 4771,4708 4758,4716 4740,4715 4726,4715 4705,4714 4681,4709 4665,4704 4657,4701 4648,4698 4640,4693 4632,4687 4633,4677 4633,4667 4633,4658 4625,4648 4609,4640 4597,4639 4585,4640 4577,4641 4571,4640 4566,4638 4564,4631 4567,4619 4570,4609 4574,4596 4577,4581 4581,4565 4587,4554 4592,4544 4598,4533 4609,4519 4621,4508 4632,4499 4643,4480 4649,4466 4660,4458 4675,4447 4682,4434 4682,4426 4682,4416 4682,4408 4681,4393 4678,4376 4677,4365 4681,4347 4689,4331 4696,4318 4702,4308 4708,4300 4707,4294 4712,4288 4719,4278 4729,4270 4739,4265 4744,4265 4750,4265 4759,4265 4769,4260 4763,4247 4760,4242 4751,4236 4725,4211 4711,4199 4697,4192 4690,4187 4671,4182 4659,4179 4649,4170 4654,4154 4654,4142 4658,4126 4662,4116 4664,4101 4664,4093 4656,4083 4648,4080 4636,4079 4627,4079 4617,4075 4609,4065 4601,4054 4589,4045 4586,4037 4591,4029 4612,4013 4618,4009 4620,4000 4613,3994 4598,3992 4581,3985 4555,3970 4549,3968 4543,3968 4529,3974 4521,3981 4510,3995 4501,3996 4474,3995 4467,3997 4459,4002 4453,4012 4453,4021 4454,4031 4448,4041 4436,4040 4425,4035 4414,4030 4380,4026 4366,4014 4352,4013 4330,4026 4299,4045 4274,4064 4226,4065 4206,4069 4191,4080 4177,4100 4166,4090 4157,4083 4154,4082 4149,4083 4145,4086 4137,4092 4133,4097 4125,4101 4121,4103 4109,4104 4103,4107 4095,4111 4091,4115 4085,4114 4081,4111 4076,4103 4069,4096 4050,4074 4043,4066 4033,4056 4026,4044 4009,4033 4000,4028 3991,4025 3981,4023 3972,4027 3960,4037 3947,4041 3941,4034 3942,3998 3943,3985 3942,3974 3935,3968 3930,3966 3922,3968 3911,3968 3902,3969 3888,3964 3885,3953 3882,3944 3872,3945 3859,3950 3846,3960 3833,3974 3816,3985 3793,3990 3786,3985 3771,3976 3755,3969 3740,3964 3727,3960 3710,3954 3695,3949 3681,3943 3670,3937 3659,3928 3658,3925 3656,3922 3655,3919 3655,3916 3653,3911 3653,3906 3652,3898 3655,3892 3662,3881 3665,3874 3670,3866 3675,3856 3682,3845 3690,3832 3689,3818 3685,3814 3672,3802 3653,3784 3636,3767 3621,3757 3610,3749 3600,3745 3590,3742 3577,3736 3565,3732 3551,3729 3543,3725 3544,3721 3548,3718 3551,3712 3553,3698 3555,3695 3557,3692 3561,3686 3570,3679 3586,3663 3599,3648 3607,3638 3623,3617 3636,3609 3656,3599 3684,3589 3710,3580 3722,3577 3732,3571 3737,3564 3740,3556 3740,3543 3731,3528 3719,3514 3713,3502 3704,3491 3701,3486 3699,3481 3701,3474 3701,3467 3705,3462 3716,3454 3726,3449 3740,3432 3746,3420 3752,3416 3763,3413 3777,3411 3789,3409 3805,3408 3814,3410 3820,3415 3823,3422 3826,3425 3833,3426 3840,3426 3850,3426 3858,3425 3868,3421 3871,3420 3874,3414 3875,3408 3875,3403 3873,3400 3872,3391 3873,3379 3875,3372 3886,3365 3896,3351 3899,3342 3909,3334 3918,3335 3927,3342 3936,3358 3947,3382 3960,3397 3971,3408 3980,3411 3988,3413 3995,3413 3998,3412 4001,3412 4004,3412 4015,3405 4018,3403 4021,3401 4022,3398 4022,3393 4023,3390 4026,3386 4027,3383 4035,3365 4034,3352 4029,3335 4033,3333 4040,3331 4051,3331 4055,3331 4061,3331 4066,3328 4071,3325 4074,3325 4079,3326 4085,3330 4090,3335 4091,3339 4090,3345 4085,3357 4086,3363 4091,3367 4092,3370 4096,3377 4100,3385 4106,3395 4118,3406 4127,3411 4133,3418 4136,3424 4143,3435 4148,3443 4159,3451 4178,3456 4181,3455 4184,3451 4187,3443 4190,3438 4194,3435 4198,3432 4206,3430 4213,3428 4216,3426 4221,3427 4225,3431 4234,3438 4240,3440 4245,3440 4248,3439 4251,3437 4255,3435 4259,3432 4267,3421 4275,3415 4282,3409 4284,3405 4284,3401 4278,3383 4278,3376 4282,3366 4281,3352 4276,3344 4267,3338 4260,3329 4260,3325 4261,3321 4261,3311 4261,3299 4261,3289 4262,3280 4264,3272 4268,3267 4274,3263 4277,3259 4278,3256 4278,3250 4279,3241 4283,3227 4290,3213 4306,3193 4312,3188 4319,3187 4332,3186 4356,3184 4369,3184 4376,3186 4381,3191 4385,3203 4388,3209 4392,3223 4395,3228 4398,3234 4408,3249 4412,3252 4416,3253 4421,3253 4429,3252 4440,3248 4451,3242 4457,3241 4461,3238 4464,3238 4476,3241 4486,3245 4489,3247 4490,3256 4491,3264 4495,3266 4510,3267 4517,3263 4524,3262 4529,3261 4532,3267 4541,3274 4552,3278 4560,3278 4568,3276 4572,3273 4575,3269 4575,3263 4575,3256 4568,3244 4570,3235 4573,3232 4579,3231 4586,3231 4593,3232 4600,3232 4604,3232 4610,3229 4616,3228 4623,3228 4631,3232 4642,3238 4650,3241 4658,3245 4665,3245 4667,3242 4667,3236 4664,3224 4666,3219 4668,3215 4673,3211 4683,3201 4705,3186 4717,3175 4715,3159 4717,3135 4713,3124 4708,3084 4715,3053 4717,3036 4726,3021 4730,3011 4735,3003 4740,2996 4743,2987 4746,2979 4747,2973 4748,2963 4750,2949 4754,2938 4756,2932 4760,2921 4763,2911 4765,2901 4768,2893 4772,2884 4775,2876 4778,2872 4787,2859 4794,2850 4798,2840 4800,2830 4800,2816 4805,2807 4810,2797 4818,2789 4826,2780 4835,2771 4846,2751 4849,2741 4850,2736 4853,2730 4856,2725 4858,2720 4863,2715 4867,2710 4872,2705 4875,2700 4878,2695 4880,2690 4881,2685 4882,2680 4884,2675 4885,2670 4888,2665 4891,2660 4894,2655 4897,2650 4900,2645 4903,2640 4908,2635 4913,2630 4919,2625 4925,2623 4931,2620 4937,2617 4943,2614 4949,2611 4954,2607 4960,2603 4966,2599 4972,2594 4977,2590 4983,2586 4989,2582 4995,2578 5001,2573 5006,2568 5012,2563 5015,2558 5017,2553 5019,2548 5020,2543 5021,2538 5022,2533 5024,2528 5028,2523 5031,2518 5033,2513 5035,2508 5037,2503 5037,2498 5038,2493 5037,2488 5036,2483 5036,2478 5035,2473 5035,2468 5036,2463 5039,2460 5006,2465 4981,2478 4969,2475 4955,2469 4942,2460 4940,2442 4944,2427 4955,2413 4969,2401 4983,2388 4992,2378 5004,2364 5023,2343 5041,2325 5057,2311 5057,2302 5057,2291 5057,2271 5061,2256 5069,2247 5083,2231 5095,2199 5096,2181 5090,2174 5074,2166 5054,2158 5040,2156 5027,2152 5015,2143 5010,2128 5027,2101 5039,2094 5060,2082 5084,2069 5106,2052 5124,2038 5130,2021 5136,2004 5145,1996 5155,1990 5168,1983 5190,1980 5212,1975 5241,1968 5258,1960 5261,1953 5257,1948 5247,1937 5251,1923 5262,1912 5281,1896 5288,1880 5288,1867 5287,1854 5294,1841 5303,1835 5313,1818 5322,1806 5329,1797 5333,1782 5337,1768 5344,1758 5352,1751 5357,1741 5362,1725 5362,1711 5365,1712 5377,1704 5403,1700 5415,1684 5437,1690 5481,1698 5497,1726 5517,1712 5529,1692 5525,1676 5525,1670 5537,1664 5557,1682 " class="polyStyle" id="421123" style="fill:#f6f67b"/>
<path d="" class="polyStyle" id="420526" style="fill:#fbe6ef"/>
<polygon points="1163,110 1195,118 1217,118 1211,144 1213,154 1225,160 1259,168 1277,194 1293,230 1341,294 1363,308 1371,310 1439,304 1471,294 1477,294 1483,300 1489,312 1493,334 1487,340 1475,354 1463,370 1463,378 1463,394 1471,402 1475,406 1485,406 1533,398 1567,394 1579,402 1587,426 1591,442 1603,440 1617,428 1651,410 1687,396 1707,398 1743,420 1755,418 1751,398 1755,392 1763,388 1781,390 1829,428 1835,428 1853,428 1865,422 1885,406 1897,398 1903,396 1907,398 1923,414 1925,422 1923,428 1891,452 1861,456 1857,464 1859,470 1859,510 1861,520 1865,522 1871,524 1879,524 1891,522 1897,523 1901,528 1909,546 1909,552 1901,582 1905,598 1921,618 1951,632 1955,634 1973,634 1995,628 2005,626 2031,626 2071,640 2103,664 2127,710 2139,731 2133,738 2122,750 2112,779 2102,807 2096,828 2090,838 2086,845 2083,855 2084,869 2091,887 2102,918 2111,942 2113,963 2115,978 2116,991 2113,1006 2102,1016 2085,1030 2079,1041 2079,1056 2085,1072 2090,1084 2093,1094 2074,1113 2060,1127 2046,1143 2034,1158 2022,1169 2014,1183 2014,1192 2016,1209 2011,1223 1991,1244 1967,1251 1948,1259 1924,1272 1891,1295 1876,1309 1864,1324 1860,1334 1864,1345 1875,1362 1880,1370 1881,1383 1876,1411 1873,1434 1873,1468 1873,1477 1902,1545 1898,1552 1903,1569 1921,1580 1944,1591 1968,1598 1983,1615 1991,1637 1999,1654 2009,1664 2021,1673 2029,1681 2026,1694 2013,1711 1997,1728 1974,1750 1951,1771 1940,1785 1933,1802 1930,1815 1921,1828 1911,1837 1905,1846 1909,1856 1909,1868 1901,1873 1878,1880 1847,1893 1822,1911 1826,1919 1830,1926 1833,1932 1836,1940 1838,1945 1836,1957 1830,1966 1822,1977 1813,1987 1807,1998 1802,2005 1795,2011 1784,2015 1774,2019 1764,2021 1755,2027 1749,2034 1741,2050 1735,2057 1729,2065 1724,2073 1722,2082 1720,2097 1715,2107 1700,2125 1696,2141 1692,2163 1692,2171 1690,2183 1685,2194 1684,2198 1677,2211 1675,2215 1674,2218 1673,2222 1671,2226 1668,2229 1664,2233 1664,2236 1664,2240 1664,2243 1665,2247 1669,2251 1671,2254 1674,2258 1677,2262 1681,2265 1685,2269 1687,2272 1690,2276 1694,2280 1695,2283 1698,2287 1700,2290 1701,2294 1699,2297 1695,2301 1691,2303 1687,2304 1683,2305 1678,2309 1677,2312 1677,2316 1678,2319 1681,2323 1689,2328 1696,2332 1683,2352 1684,2367 1691,2378 1710,2388 1726,2409 1729,2423 1738,2435 1749,2446 1736,2484 1736,2487 1743,2497 1746,2500 1749,2504 1752,2507 1756,2510 1760,2512 1764,2514 1769,2518 1772,2520 1777,2524 1780,2528 1783,2531 1785,2535 1787,2538 1791,2542 1793,2545 1796,2549 1799,2552 1803,2555 1807,2554 1791,2566 1781,2565 1767,2568 1753,2578 1737,2590 1720,2604 1709,2607 1698,2604 1685,2599 1676,2599 1667,2606 1660,2618 1651,2628 1639,2631 1626,2633 1615,2634 1604,2638 1589,2649 1578,2656 1565,2661 1556,2663 1549,2658 1545,2648 1536,2643 1526,2639 1512,2635 1494,2630 1483,2629 1465,2641 1455,2654 1440,2663 1429,2673 1420,2683 1416,2699 1420,2708 1430,2715 1439,2720 1439,2728 1430,2737 1423,2749 1420,2764 1425,2782 1431,2790 1448,2803 1461,2805 1481,2805 1495,2810 1505,2823 1512,2836 1515,2851 1504,2871 1486,2883 1472,2895 1453,2910 1430,2920 1417,2925 1400,2934 1387,2939 1382,2949 1384,2958 1396,2952 1407,2944 1416,2947 1416,2958 1420,2971 1429,2983 1437,2989 1448,3000 1453,3010 1450,3016 1446,3036 1447,3044 1446,3054 1449,3062 1454,3063 1457,3061 1461,3058 1464,3057 1468,3058 1471,3059 1473,3062 1473,3069 1476,3072 1482,3075 1487,3077 1490,3081 1490,3086 1489,3094 1498,3105 1502,3113 1513,3119 1521,3124 1526,3127 1529,3123 1534,3120 1539,3120 1543,3119 1549,3120 1551,3123 1549,3132 1540,3146 1534,3148 1528,3149 1521,3148 1509,3152 1502,3156 1499,3165 1502,3172 1509,3177 1512,3188 1511,3197 1504,3210 1504,3225 1505,3232 1510,3238 1508,3246 1501,3255 1495,3259 1500,3269 1509,3276 1514,3283 1515,3290 1517,3296 1523,3297 1529,3298 1537,3301 1547,3307 1548,3313 1546,3319 1533,3325 1519,3326 1506,3326 1495,3322 1478,3311 1475,3301 1476,3292 1484,3273 1483,3267 1474,3268 1470,3276 1465,3283 1458,3287 1450,3286 1437,3284 1431,3284 1422,3283 1414,3282 1405,3281 1398,3284 1392,3290 1386,3293 1378,3295 1361,3308 1360,3314 1360,3321 1359,3333 1352,3335 1339,3335 1331,3332 1323,3333 1317,3334 1310,3338 1303,3345 1295,3352 1288,3359 1274,3364 1267,3363 1263,3356 1257,3349 1250,3338 1247,3326 1246,3319 1238,3312 1230,3314 1228,3323 1229,3329 1220,3342 1209,3350 1205,3357 1199,3359 1185,3363 1168,3367 1155,3374 1145,3380 1133,3384 1121,3387 1110,3389 1087,3389 1070,3396 1070,3387 1065,3381 1061,3372 1063,3358 1065,3344 1066,3338 1064,3328 1057,3320 1050,3318 1041,3311 1033,3303 1031,3297 1028,3287 1024,3273 1021,3260 1020,3250 1017,3241 1015,3235 1013,3226 1010,3219 1003,3214 995,3213 958,3204 905,3190 880,3180 870,3173 842,3149 818,3127 789,3101 769,3068 763,3061 760,3051 760,3044 757,3038 748,3036 740,3041 726,3045 722,3056 716,3059 710,3064 705,3058 705,3042 702,3036 695,3024 681,3011 664,2995 650,2980 633,2968 616,2962 599,2961 584,2960 564,2958 550,2958 542,2954 543,2946 542,2936 536,2921 526,2907 512,2892 502,2877 491,2858 490,2843 492,2833 498,2828 507,2824 508,2811 513,2800 523,2794 534,2787 555,2778 567,2771 560,2762 557,2747 561,2724 567,2707 582,2694 595,2676 602,2657 611,2630 626,2599 641,2579 660,2553 657,2538 639,2522 632,2501 632,2484 638,2473 648,2460 662,2448 662,2440 650,2431 639,2425 627,2413 622,2402 618,2384 617,2371 620,2359 618,2348 605,2344 599,2336 600,2325 597,2314 587,2305 580,2301 562,2297 543,2294 522,2293 501,2292 482,2289 457,2280 447,2266 441,2252 433,2238 421,2227 407,2219 388,2210 367,2201 356,2190 344,2175 332,2174 321,2178 310,2183 296,2183 288,2173 286,2157 278,2145 278,2134 279,2122 284,2111 293,2109 306,2109 318,2111 332,2112 350,2107 355,2099 358,2092 357,2081 350,2071 336,2066 304,2055 284,2052 266,2049 241,2045 236,2038 246,2028 257,2016 256,2008 247,2007 237,2005 230,2000 217,1993 203,1991 183,1993 162,1997 141,1989 139,1980 131,1974 120,1972 110,1968 102,1963 96,1951 91,1945 80,1937 70,1928 61,1917 49,1902 33,1889 22,1885 17,1879 12,1854 9,1837 0,1806 0,1780 12,1759 33,1738 46,1728 57,1718 65,1704 74,1686 79,1670 87,1649 97,1629 107,1616 122,1603 129,1595 134,1582 136,1563 149,1543 161,1533 176,1520 178,1509 184,1496 188,1487 191,1473 191,1447 192,1429 195,1414 195,1403 195,1400 194,1390 189,1374 186,1370 184,1366 183,1363 181,1355 175,1345 174,1334 176,1324 188,1318 204,1311 190,1299 173,1289 159,1286 147,1285 133,1286 123,1282 117,1274 107,1260 98,1242 104,1235 115,1229 128,1219 135,1199 134,1184 131,1157 135,1131 147,1116 163,1111 180,1107 201,1109 220,1116 232,1111 237,1098 249,1070 253,1041 243,1022 236,1003 234,984 238,962 243,953 255,954 268,959 279,965 296,977 291,983 289,990 294,996 310,1004 329,1000 350,999 384,999 396,981 401,964 402,942 402,937 402,933 393,928 383,926 371,921 364,908 364,893 367,873 371,852 374,835 378,817 383,798 391,783 405,759 419,747 431,734 430,723 422,711 420,704 422,697 428,690 443,688 457,689 467,692 478,705 485,722 494,736 509,732 536,724 553,716 556,704 546,687 539,669 533,644 527,621 521,601 511,587 497,574 489,559 485,540 487,524 491,511 497,489 501,466 508,449 515,432 517,421 525,412 535,410 545,404 544,390 550,362 559,346 569,336 595,320 599,298 591,281 585,263 586,246 596,234 609,235 614,249 616,264 626,275 643,277 674,281 708,283 746,263 763,232 769,201 775,193 783,212 801,234 819,246 841,250 857,250 859,228 867,222 905,222 925,222 947,214 959,192 965,168 975,142 981,140 999,144 1033,140 1067,114 1085,92 1125,102 " class="polyStyle" id="421122" style="fill:#ee8b94"/>
<path d="" class="polyStyle" id="511923" style="fill:#fbe6ef"/>
<path d="" class="polyStyle" id="420325" style="fill:#fbe6ef"/>
<path d="" class="polyStyle" id="511921" style="fill:#f6f67b"/>
<path d="" class="polyStyle" id="542525" style="fill:#f6f67b"/>
<path d="" class="polyStyle" id="611026" style="fill:#ee8b94"/>
<path d="" class="polyStyle" id="411023" style="fill:#fbe6ef"/>
<path d="" class="polyStyle" id="632323" style="fill:#f6f67b"/>
<path d="" class="polyStyle" id="140525" style="fill:#d4ecb2"/>
<path d="" class="polyStyle" id="410922" style="fill:#ee8b94"/>
<path d="" class="polyStyle" id="621027" style="fill:#ee8b94"/>
<path d="" class="polyStyle" id="130427" style="fill:#f6f67b"/>
<path d="" class="polyStyle" id="130121" style="fill:#ee8b94"/>
<path d="" class="polyStyle" id="610823" style="fill:#fbe6ef"/>
<path d="" class="polyStyle" id="130225" style="fill:#fbe6ef"/>
<path d="" class="polyStyle" id="130322" style="fill:#d4ecb2"/>
<path d="" class="polyStyle" id="653130" style="fill:#f6f67b"/>
<path d="" class="polyStyle" id="130822" style="fill:#fbe6ef"/>
<path d="" class="polyStyle" id="211221" style="fill:#f6f67b"/>
<path d="" class="polyStyle" id="210921" style="fill:#f6f67b"/>
<path d="" class="polyStyle" id="150223" style="fill:#f8c67d"/>
<path d="" class="polyStyle" id="220422" style="fill:#d4ecb2"/>
<polygon points="7443,2420 7436,2427 7433,2430 7437,2438 7451,2452 7455,2474 7445,2498 7463,2530 7471,2554 7495,2566 7501,2572 7507,2580 7515,2580 7525,2580 7533,2580 7545,2572 7559,2570 7605,2596 7599,2616 7603,2626 7607,2632 7621,2640 7627,2650 7637,2656 7645,2662 7661,2670 7681,2678 7695,2678 7713,2678 7719,2694 7725,2714 7723,2728 7717,2744 7703,2760 7699,2770 7695,2790 7695,2808 7693,2818 7697,2826 7709,2830 7719,2828 7733,2820 7749,2814 7761,2808 7771,2816 7781,2824 7803,2836 7813,2834 7833,2836 7857,2832 7883,2820 7897,2808 7913,2828 7929,2846 7953,2852 7993,2870 8003,2860 8011,2852 8017,2856 8021,2862 8023,2868 8031,2880 8041,2890 8029,2914 8031,2934 8047,2952 8065,2966 8069,2966 8075,2958 8085,2956 8103,2956 8117,2962 8121,2974 8131,2978 8149,2980 8173,2958 8186,2946 8199,2948 8219,2953 8241,2956 8269,2958 8273,2958 8277,2958 8283,2968 8281,2986 8279,2994 8279,3008 8279,3026 8281,3052 8287,3056 8296,3058 8303,3058 8305,3066 8307,3082 8307,3096 8309,3102 8319,3114 8327,3118 8333,3122 8333,3128 8329,3134 8325,3156 8323,3166 8325,3172 8335,3176 8341,3176 8347,3178 8345,3184 8345,3188 8347,3194 8355,3238 8357,3247 8349,3248 8327,3240 8305,3238 8289,3242 8275,3248 8263,3248 8235,3236 8215,3234 8197,3236 8183,3240 8169,3268 8163,3272 8155,3270 8129,3260 8111,3258 8105,3260 8097,3266 8091,3270 8073,3278 8059,3278 8047,3276 8041,3278 8015,3300 8003,3302 7991,3300 7987,3300 7973,3318 7967,3330 7955,3340 7939,3350 7927,3358 7913,3352 7907,3350 7883,3352 7877,3356 7871,3364 7861,3372 7847,3380 7843,3382 7847,3392 7855,3402 7855,3408 7849,3416 7847,3420 7841,3428 7835,3436 7825,3436 7819,3436 7809,3440 7797,3444 7789,3448 7779,3454 7761,3462 7751,3468 7745,3476 7743,3484 7747,3500 7743,3504 7733,3508 7727,3512 7721,3518 7715,3518 7685,3512 7679,3502 7673,3500 7669,3502 7665,3510 7661,3522 7661,3538 7659,3550 7655,3572 7647,3578 7643,3588 7637,3596 7626,3600 7617,3600 7609,3600 7601,3600 7591,3604 7581,3598 7583,3580 7579,3578 7563,3584 7555,3586 7521,3580 7513,3586 7517,3592 7535,3602 7537,3608 7537,3616 7527,3618 7503,3608 7483,3608 7453,3620 7441,3624 7428,3632 7423,3634 7413,3642 7397,3660 7379,3684 7369,3688 7343,3678 7335,3680 7319,3700 7311,3724 7309,3736 7309,3746 7307,3756 7301,3762 7287,3768 7275,3778 7271,3788 7261,3802 7255,3804 7243,3796 7235,3798 7229,3804 7229,3822 7231,3830 7227,3840 7229,3848 7227,3858 7223,3870 7237,3894 7251,3910 7271,3918 7283,3928 7305,3938 7313,3942 7307,3956 7303,3972 7303,3982 7307,3998 7311,4010 7325,4010 7323,4020 7313,4040 7309,4044 7297,4046 7273,4046 7269,4048 7269,4054 7275,4066 7287,4070 7287,4078 7275,4090 7273,4094 7279,4102 7287,4108 7307,4112 7313,4120 7319,4122 7339,4112 7345,4112 7349,4116 7345,4128 7339,4148 7333,4158 7329,4166 7319,4170 7297,4178 7271,4186 7263,4190 7257,4192 7253,4198 7251,4212 7251,4224 7251,4234 7245,4241 7243,4244 7225,4252 7213,4258 7195,4250 7187,4242 7181,4236 7175,4238 7157,4240 7147,4250 7141,4256 7135,4260 7119,4264 7101,4270 7091,4270 7083,4270 7071,4260 7065,4246 7055,4228 7048,4226 7045,4228 7045,4240 7043,4244 7033,4248 7021,4240 7005,4228 6999,4228 6995,4228 6959,4232 6951,4232 6943,4232 6935,4234 6919,4244 6913,4250 6895,4268 6877,4286 6875,4290 6885,4298 6891,4308 6877,4364 6873,4386 6871,4392 6863,4404 6849,4416 6835,4424 6833,4436 6835,4442 6831,4464 6821,4476 6819,4480 6821,4484 6823,4520 6823,4554 6819,4562 6815,4568 6797,4586 6799,4598 6805,4608 6833,4618 6839,4620 6847,4624 6857,4644 6869,4666 6861,4683 6844,4678 6828,4676 6816,4679 6810,4686 6809,4704 6815,4721 6821,4730 6816,4740 6804,4755 6798,4768 6791,4776 6782,4781 6771,4779 6761,4775 6746,4774 6735,4782 6721,4790 6708,4798 6689,4799 6674,4801 6664,4809 6656,4827 6647,4849 6646,4868 6640,4890 6630,4910 6619,4925 6609,4938 6599,4943 6585,4942 6575,4941 6564,4938 6567,4957 6575,4968 6588,4980 6589,4989 6579,4999 6557,5011 6534,5024 6522,5034 6518,5043 6524,5054 6532,5066 6536,5077 6523,5090 6517,5100 6507,5111 6498,5118 6488,5125 6485,5133 6491,5140 6501,5145 6510,5149 6512,5166 6504,5190 6498,5205 6488,5215 6480,5223 6481,5233 6485,5248 6485,5266 6484,5286 6480,5301 6468,5309 6455,5316 6439,5319 6423,5323 6403,5332 6384,5338 6362,5341 6348,5345 6332,5353 6305,5372 6283,5390 6266,5408 6253,5420 6236,5431 6219,5437 6196,5441 6178,5444 6171,5442 6168,5430 6167,5421 6164,5410 6156,5398 6145,5383 6129,5363 6119,5349 6125,5342 6141,5334 6143,5322 6136,5306 6119,5289 6107,5269 6100,5249 6097,5238 6100,5224 6107,5207 6116,5190 6117,5174 6114,5173 6110,5167 6106,5161 6104,5158 6093,5150 6085,5143 6078,5142 6071,5138 6067,5131 6066,5124 6066,5118 6066,5114 6074,5109 6081,5106 6087,5104 6088,5101 6082,5096 6071,5089 6057,5087 6041,5094 6010,5115 5984,5105 5953,5101 5921,5109 5895,5104 5863,5091 5831,5078 5795,5057 5793,5042 5804,5009 5792,4983 5767,4959 5748,4944 5788,4914 5817,4884 5818,4851 5806,4825 5816,4798 5854,4803 5891,4814 5906,4798 5912,4772 5900,4709 5899,4669 5901,4657 5906,4644 5942,4627 5974,4619 5999,4611 6043,4588 6070,4571 6089,4545 6106,4512 6116,4479 6119,4469 6107,4459 6093,4455 6081,4456 6067,4449 6055,4439 6051,4431 6053,4422 6068,4413 6078,4403 6084,4395 6095,4390 6107,4389 6123,4388 6134,4380 6136,4369 6138,4354 6137,4339 6142,4332 6151,4324 6159,4316 6161,4308 6159,4297 6146,4287 6145,4284 6140,4278 6135,4271 6123,4259 6118,4249 6114,4238 6116,4232 6114,4225 6105,4205 6098,4199 6083,4197 6068,4192 6061,4185 6060,4179 6063,4172 6068,4166 6075,4163 6088,4160 6104,4150 6111,4140 6111,4133 6107,4129 6097,4128 6081,4130 6067,4133 6057,4131 6050,4128 6045,4122 6044,4118 6043,4115 6042,4105 6044,4096 6049,4088 6057,4083 6070,4076 6071,4069 6071,4064 6071,4059 6073,4047 6072,4037 6065,4017 6068,3990 6069,3967 6070,3951 6045,3933 6033,3936 6018,3940 6008,3921 6005,3903 5996,3896 5982,3890 5961,3889 5940,3890 5916,3895 5899,3905 5886,3922 5871,3945 5859,3968 5848,3996 5835,4013 5821,4025 5795,4032 5767,4037 5734,4039 5710,4041 5698,4035 5685,4019 5677,3997 5673,3982 5689,3971 5719,3961 5738,3952 5734,3930 5733,3921 5735,3901 5730,3879 5731,3865 5748,3857 5767,3847 5784,3836 5795,3824 5801,3814 5823,3805 5846,3793 5859,3784 5868,3766 5874,3748 5888,3728 5895,3717 5894,3707 5878,3687 5875,3677 5891,3665 5904,3658 5914,3648 5933,3636 5951,3623 5956,3617 5957,3607 5936,3581 5932,3570 5939,3545 5948,3518 5960,3496 5971,3471 5978,3456 5981,3438 5987,3414 6002,3395 6020,3378 6039,3367 6063,3358 6091,3350 6086,3340 6080,3330 6080,3319 6091,3304 6102,3291 6111,3282 6128,3277 6164,3271 6193,3269 6208,3260 6227,3245 6254,3225 6278,3213 6307,3207 6330,3200 6343,3193 6349,3182 6356,3166 6370,3157 6395,3146 6424,3132 6440,3125 6453,3114 6468,3099 6480,3090 6488,3077 6494,3060 6498,3050 6512,3047 6536,3047 6548,3047 6556,3040 6559,3036 6563,3034 6568,3032 6575,3028 6582,3026 6585,3022 6589,3020 6592,3015 6595,3011 6598,3006 6602,3001 6603,2998 6607,2994 6609,2989 6612,2986 6612,2980 6612,2976 6613,2967 6614,2962 6615,2956 6613,2951 6609,2944 6613,2920 6615,2911 6616,2905 6620,2902 6622,2900 6621,2894 6618,2893 6613,2892 6609,2890 6605,2887 6601,2884 6595,2881 6591,2879 6586,2878 6581,2878 6574,2877 6567,2878 6561,2880 6556,2883 6550,2884 6544,2884 6537,2885 6532,2883 6529,2882 6526,2880 6522,2876 6522,2874 6522,2870 6523,2866 6522,2861 6521,2855 6519,2850 6518,2845 6517,2840 6516,2837 6515,2832 6515,2829 6518,2827 6522,2825 6526,2822 6530,2820 6533,2817 6536,2814 6540,2811 6544,2808 6547,2805 6549,2802 6552,2797 6554,2792 6559,2787 6563,2781 6566,2777 6569,2772 6571,2767 6573,2760 6573,2751 6573,2743 6573,2736 6571,2731 6570,2725 6568,2719 6566,2713 6564,2707 6564,2701 6564,2694 6565,2687 6566,2684 6569,2680 6573,2679 6578,2679 6583,2680 6603,2685 6611,2686 6619,2688 6627,2690 6633,2692 6636,2694 6641,2695 6647,2696 6653,2697 6658,2698 6666,2699 6671,2700 6676,2701 6681,2704 6685,2705 6688,2708 6693,2711 6697,2714 6701,2715 6706,2715 6710,2715 6713,2714 6717,2712 6722,2708 6726,2706 6732,2700 6737,2694 6743,2689 6748,2686 6752,2684 6757,2683 6762,2682 6767,2682 6772,2683 6776,2684 6781,2686 6788,2687 6792,2687 6795,2688 6800,2688 6804,2687 6809,2685 6812,2683 6815,2681 6820,2677 6825,2673 6830,2669 6835,2665 6841,2660 6847,2655 6851,2651 6854,2649 6860,2645 6864,2643 6870,2640 6875,2637 6880,2634 6885,2630 6887,2625 6886,2621 6884,2614 6882,2611 6880,2608 6876,2603 6874,2599 6872,2594 6868,2589 6866,2583 6864,2578 6863,2573 6863,2568 6862,2564 6861,2560 6861,2553 6861,2549 6861,2542 6863,2536 6864,2528 6865,2521 6865,2518 6865,2512 6865,2505 6867,2506 6879,2508 6899,2502 6901,2488 6905,2478 6923,2462 6927,2448 6929,2426 6943,2412 6959,2400 6971,2396 6993,2392 7033,2396 7059,2392 7073,2402 7087,2408 7101,2410 7121,2406 7137,2404 7163,2398 7183,2390 7223,2382 7229,2358 7235,2348 7243,2340 7251,2332 7261,2312 7287,2308 7303,2304 7321,2296 7355,2282 7369,2284 7391,2288 7399,2294 7417,2316 7441,2384 7449,2392 7463,2394 7463,2399 7463,2402 " class="polyStyle" id="421124" style="fill:#d4ecb2"/>
<path d="" class="polyStyle" id="340721" style="fill:#f6f67b"/>
<path d="" class="polyStyle" id="510824" style="fill:#d4ecb2"/>
<path d="" class="polyStyle" id="610324" style="fill:#f6f67b"/>
<path d="" class="polyStyle" id="530722" style="fill:#ee8b94"/>
<path d="" class="polyStyle" id="340823" style="fill:#d4ecb2"/>
<path d="" class="polyStyle" id="620825" style="fill:#d4ecb2"/>
<path d="M4555,3970 L4581,3985 L4598,3992 L4613,3994 L4620,4000 L4618,4009 L4612,4013 L4591,4029 L4586,4037 L4589,4045 L4601,4054 L4609,4065 L4617,4075 L4627,4079 L4636,4079 L4648,4080 L4656,4083 L4664,4093 L4664,4101 L4662,4116 L4658,4126 L4654,4142 L4654,4154 L4649,4170 L4659,4179 L4671,4182 L4690,4187 L4697,4192 L4711,4199 L4725,4211 L4751,4236 L4760,4242 L4763,4247 L4769,4260 L4759,4265 L4750,4265 L4744,4265 L4739,4265 L4729,4270 L4719,4278 L4712,4288 L4707,4294 L4708,4300 L4702,4308 L4696,4318 L4689,4331 L4681,4347 L4677,4365 L4678,4376 L4681,4393 L4682,4408 L4682,4416 L4682,4426 L4682,4434 L4675,4447 L4660,4458 L4649,4466 L4643,4480 L4632,4499 L4621,4508 L4609,4519 L4598,4533 L4592,4544 L4587,4554 L4581,4565 L4577,4581 L4574,4596 L4570,4609 L4567,4619 L4564,4631 L4566,4638 L4571,4640 L4577,4641 L4585,4640 L4597,4639 L4609,4640 L4625,4648 L4633,4658 L4633,4667 L4633,4677 L4632,4687 L4640,4693 L4648,4698 L4657,4701 L4665,4704 L4681,4709 L4705,4714 L4726,4715 L4740,4715 L4758,4716 L4771,4708 L4780,4697 L4787,4695 L4792,4695 L4803,4700 L4819,4707 L4836,4716 L4854,4731 L4868,4746 L4875,4763 L4873,4773 L4874,4787 L4871,4800 L4864,4810 L4862,4817 L4869,4821 L4881,4821 L4896,4821 L4905,4825 L4916,4831 L4923,4832 L4927,4829 L4928,4825 L4929,4819 L4930,4812 L4933,4806 L4942,4800 L4947,4790 L4955,4781 L4958,4774 L4962,4769 L4969,4769 L4977,4772 L4985,4774 L4995,4774 L5005,4772 L5012,4765 L5019,4762 L5025,4759 L5034,4765 L5041,4773 L5045,4783 L5048,4798 L5053,4802 L5055,4806 L5069,4819 L5075,4830 L5079,4844 L5079,4856 L5078,4861 L5084,4877 L5087,4881 L5096,4886 L5101,4886 L5123,4882 L5132,4888 L5129,4911 L5130,4921 L5126,4935 L5119,4959 L5124,4980 L5138,4998 L5158,5017 L5169,5026 L5171,5038 L5171,5050 L5176,5052 L5193,5061 L5221,5050 L5252,5034 L5258,5041 L5255,5073 L5267,5093 L5282,5097 L5296,5097 L5310,5089 L5330,5074 L5339,5072 L5352,5080 L5362,5079 L5388,5068 L5444,5077 L5471,5063 L5471,5028 L5475,4994 L5487,4964 L5500,4938 L5519,4903 L5539,4874 L5565,4872 L5598,4909 L5639,4919 L5672,4928 L5717,4936 L5748,4944 L5767,4959 L5792,4983 L5804,5009 L5793,5042 L5795,5057 L5831,5078 L5863,5091 L5895,5104 L5921,5109 L5953,5101 L5984,5105 L6010,5115 L6041,5094 L6057,5087 L6071,5089 L6082,5096 L6088,5101 L6087,5104 L6081,5106 L6074,5109 L6066,5114 L6066,5118 L6066,5124 L6067,5131 L6071,5138 L6078,5142 L6085,5143 L6093,5150 L6104,5158 L6106,5161 L6110,5167 L6114,5173 L6117,5174 L6116,5190 L6107,5207 L6100,5224 L6097,5238 L6100,5249 L6107,5269 L6119,5289 L6136,5306 L6143,5322 L6141,5334 L6125,5342 L6119,5349 L6129,5363 L6145,5383 L6156,5398 L6164,5410 L6167,5421 L6168,5430 L6171,5442 L6163,5457 L6149,5458 L6130,5453 L6110,5442 L6090,5437 L6077,5437 L6055,5440 L6041,5445 L6026,5450 L6006,5428 L5995,5404 L5988,5391 L5972,5376 L5963,5369 L5955,5381 L5958,5393 L5960,5408 L5947,5427 L5938,5438 L5933,5449 L5933,5460 L5929,5469 L5917,5483 L5930,5501 L5945,5514 L5952,5532 L5958,5553 L5960,5566 L5953,5580 L5946,5595 L5942,5607 L5935,5621 L5916,5626 L5887,5632 L5872,5626 L5857,5617 L5844,5611 L5829,5625 L5816,5637 L5798,5648 L5785,5649 L5770,5654 L5750,5658 L5740,5655 L5727,5642 L5707,5629 L5685,5619 L5660,5614 L5644,5611 L5630,5600 L5607,5573 L5591,5556 L5579,5546 L5560,5547 L5536,5556 L5518,5550 L5512,5556 L5507,5559 L5505,5562 L5505,5566 L5509,5573 L5509,5584 L5505,5592 L5503,5599 L5499,5606 L5494,5613 L5492,5616 L5475,5625 L5461,5633 L5451,5646 L5445,5663 L5436,5676 L5440,5691 L5446,5699 L5454,5706 L5463,5716 L5466,5721 L5462,5731 L5453,5743 L5447,5753 L5439,5769 L5429,5780 L5419,5793 L5414,5810 L5413,5828 L5413,5841 L5413,5849 L5411,5856 L5407,5862 L5394,5865 L5385,5869 L5378,5877 L5373,5886 L5371,5889 L5370,5901 L5368,5913 L5362,5923 L5365,5932 L5370,5950 L5375,5963 L5374,5968 L5371,5972 L5367,5975 L5356,5990 L5348,5998 L5343,6008 L5343,6014 L5339,6024 L5335,6032 L5334,6038 L5333,6042 L5328,6043 L5322,6047 L5319,6053 L5316,6059 L5309,6065 L5298,6069 L5288,6076 L5282,6079 L5278,6083 L5274,6086 L5269,6087 L5262,6087 L5257,6086 L5253,6081 L5248,6072 L5244,6059 L5242,6054 L5237,6050 L5226,6046 L5220,6044 L5209,6044 L5202,6043 L5198,6041 L5192,6039 L5187,6037 L5175,6034 L5155,6032 L5138,6032 L5127,6035 L5123,6042 L5116,6046 L5109,6052 L5100,6058 L5090,6064 L5080,6069 L5069,6069 L5054,6077 L5038,6074 L5011,6087 L4996,6090 L4986,6082 L4982,6083 L4980,6087 L4979,6091 L4980,6101 L4978,6108 L4972,6116 L4967,6120 L4960,6125 L4954,6128 L4948,6128 L4943,6127 L4937,6129 L4929,6135 L4917,6142 L4906,6151 L4895,6157 L4885,6161 L4876,6163 L4867,6171 L4857,6188 L4849,6197 L4841,6207 L4845,6217 L4848,6221 L4848,6225 L4849,6229 L4843,6237 L4832,6241 L4822,6244 L4819,6245 L4808,6254 L4799,6263 L4791,6275 L4782,6287 L4771,6297 L4763,6301 L4749,6308 L4745,6310 L4736,6314 L4728,6320 L4718,6332 L4707,6344 L4698,6352 L4687,6359 L4676,6360 L4668,6361 L4659,6360 L4649,6354 L4639,6347 L4621,6340 L4611,6336 L4606,6337 L4598,6338 L4589,6343 L4579,6343 L4566,6343 L4543,6343 L4512,6338 L4497,6338 L4483,6346 L4464,6358 L4444,6366 L4428,6378 L4433,6390 L4428,6401 L4419,6404 L4403,6393 L4381,6386 L4365,6380 L4359,6384 L4338,6397 L4326,6404 L4297,6407 L4291,6421 L4295,6438 L4308,6447 L4321,6455 L4338,6459 L4353,6470 L4365,6480 L4370,6492 L4363,6504 L4353,6518 L4338,6531 L4323,6535 L4316,6536 L4293,6518 L4287,6519 L4279,6521 L4272,6526 L4269,6535 L4269,6546 L4264,6550 L4254,6556 L4240,6561 L4233,6579 L4229,6600 L4225,6616 L4222,6627 L4219,6641 L4213,6660 L4203,6673 L4188,6687 L4187,6701 L4186,6711 L4178,6720 L4163,6725 L4151,6735 L4140,6751 L4131,6764 L4112,6789 L4107,6801 L4102,6807 L4097,6811 L4093,6816 L4090,6825 L4090,6832 L4088,6838 L4085,6844 L4081,6850 L4078,6856 L4071,6867 L4066,6874 L4063,6879 L4060,6882 L4059,6894 L4057,6919 L4052,6931 L4046,6938 L4033,6960 L3994,6952 L3966,6947 L3940,6945 L3897,6945 L3854,6943 L3817,6950 L3791,6965 L3750,6984 L3701,6993 L3661,6989 L3619,6979 L3593,6975 L3549,6959 L3522,6945 L3498,6930 L3477,6917 L3440,6890 L3410,6858 L3387,6822 L3382,6789 L3385,6762 L3387,6730 L3388,6720 L3397,6685 L3413,6648 L3428,6619 L3440,6584 L3444,6547 L3440,6504 L3429,6467 L3425,6427 L3422,6415 L3412,6355 L3403,6297 L3388,6248 L3377,6224 L3365,6203 L3351,6175 L3334,6145 L3300,6110 L3269,6081 L3238,6057 L3206,6042 L3165,6025 L3122,6012 L3082,6001 L3070,5998 L3052,5947 L3046,5900 L3037,5881 L3026,5861 L3019,5849 L3019,5836 L3025,5822 L3035,5808 L3038,5796 L3038,5788 L3033,5780 L3026,5769 L3012,5754 L2999,5735 L2996,5729 L2995,5717 L2999,5711 L3002,5704 L3003,5688 L3004,5681 L3009,5665 L3015,5660 L3031,5653 L3044,5646 L3051,5638 L3068,5616 L3070,5603 L3072,5597 L3082,5564 L3088,5535 L3098,5494 L3105,5481 L3110,5468 L3110,5452 L3106,5433 L3104,5421 L3104,5410 L3097,5392 L3097,5374 L3099,5368 L3103,5358 L3107,5348 L3114,5338 L3121,5334 L3141,5315 L3152,5303 L3163,5297 L3188,5297 L3202,5303 L3229,5318 L3249,5326 L3263,5332 L3271,5334 L3282,5336 L3288,5336 L3294,5335 L3305,5329 L3311,5318 L3313,5305 L3315,5299 L3315,5281 L3312,5256 L3312,5242 L3311,5226 L3316,5211 L3319,5201 L3320,5165 L3320,5155 L3317,5120 L3323,5091 L3328,5072 L3329,5052 L3336,5043 L3343,5033 L3367,5015 L3383,5000 L3391,4993 L3401,4985 L3421,4965 L3429,4950 L3435,4924 L3447,4906 L3465,4880 L3480,4854 L3495,4836 L3505,4829 L3516,4827 L3530,4827 L3535,4828 L3542,4830 L3553,4833 L3585,4856 L3602,4865 L3615,4864 L3625,4860 L3641,4854 L3653,4845 L3661,4836 L3665,4832 L3678,4821 L3695,4811 L3704,4805 L3708,4795 L3714,4786 L3726,4775 L3729,4760 L3729,4752 L3732,4735 L3735,4726 L3740,4718 L3741,4709 L3741,4695 L3740,4684 L3740,4675 L3739,4640 L3743,4624 L3745,4619 L3753,4592 L3761,4564 L3765,4551 L3776,4518 L3785,4494 L3794,4483 L3816,4469 L3834,4456 L3857,4445 L3868,4439 L3876,4429 L3878,4418 L3878,4404 L3876,4391 L3865,4373 L3862,4362 L3860,4342 L3865,4320 L3878,4302 L3897,4297 L3900,4297 L3917,4296 L3938,4299 L3954,4304 L3974,4327 L3999,4355 L4015,4367 L4027,4370 L4039,4368 L4043,4365 L4053,4361 L4064,4353 L4085,4328 L4109,4297 L4126,4274 L4137,4258 L4140,4250 L4154,4218 L4164,4188 L4166,4171 L4167,4128 L4171,4109 L4173,4106 L4177,4100 L4191,4080 L4206,4069 L4226,4065 L4274,4064 L4299,4045 L4330,4026 L4352,4013 L4366,4014 L4380,4026 L4414,4030 L4425,4035 L4436,4040 L4448,4041 L4454,4031 L4453,4021 L4453,4012 L4459,4002 L4467,3997 L4474,3995 L4501,3996 L4510,3995 L4521,3981 L4529,3974 L4543,3968 L4549,3968 L4555,3970z M3644,6936 L3654,6920 L3661,6924 L3652,6941 L3648,6939 L3644,6936z M3657,6911 L3664,6905 L3669,6910 L3662,6916 L3657,6911z M3735,6859 L3720,6852 L3694,6835 L3689,6833 L3684,6836 L3678,6833 L3670,6824 L3658,6817 L3657,6816 L3658,6811 L3657,6809 L3659,6806 L3665,6804 L3665,6801 L3649,6789 L3646,6786 L3646,6779 L3650,6778 L3663,6786 L3674,6798 L3679,6799 L3689,6797 L3693,6796 L3695,6798 L3697,6800 L3707,6801 L3716,6804 L3719,6807 L3721,6808 L3724,6805 L3727,6802 L3730,6804 L3755,6816 L3758,6817 L3761,6814 L3766,6815 L3772,6814 L3775,6817 L3781,6829 L3787,6836 L3795,6842 L3828,6856 L3834,6855 L3837,6855 L3838,6859 L3836,6868 L3831,6874 L3823,6876 L3801,6876 L3765,6880 L3757,6881 L3751,6879 L3750,6878 L3751,6875 L3756,6866 L3755,6864 L3751,6863 L3735,6859z " class="polyStyle" id="421125" style="fill:#ee8b94"/>
<path d="" class="polyStyle" id="210281" style="fill:#ee8b94"/>
<polygon points="2916,3049 2920,3056 2919,3066 2909,3074 2903,3076 2896,3076 2887,3075 2881,3071 2876,3063 2878,3054 2878,3045 2881,3039 2882,3033 2888,3031 2895,3030 2899,3036 " class="polyStyle" id="421181" style="fill:#d4ecb2"/>
<path d="" class="polyStyle" id="440883" style="fill:#f6f67b"/>
<path d="" class="polyStyle" id="469006" style="fill:#d4ecb2"/>
<path d="" class="polyStyle" id="469002" style="fill:#ee8b94"/>
<path d="" class="polyStyle" id="469005" style="fill:#fbe6ef"/>
<path d="" class="polyStyle" id="440882" style="fill:#ee8b94"/>
<path d="" class="polyStyle" id="450681" style="fill:#ee8b94"/>
<path d="" class="polyStyle" id="441581" style="fill:#d4ecb2"/>
<polygon points="6095,6949 6112,6957 6123,6964 6135,6975 6146,6985 6160,6988 6180,6988 6195,6994 6220,7007 6246,7023 6267,7035 6278,7050 6295,7064 6313,7076 6322,7086 6336,7104 6349,7114 6361,7118 6409,7116 6422,7114 6438,7116 6462,7127 6474,7136 6487,7140 6498,7138 6510,7130 6518,7123 6530,7122 6543,7126 6556,7128 6574,7123 6585,7117 6593,7114 6605,7114 6623,7116 6634,7117 6646,7115 6652,7109 6665,7105 6683,7101 6703,7096 6727,7095 6741,7098 6752,7101 6756,7113 6763,7123 6770,7131 6775,7140 6770,7154 6762,7165 6755,7176 6753,7186 6754,7194 6755,7201 6763,7204 6774,7209 6781,7215 6781,7224 6783,7232 6787,7242 6799,7250 6815,7261 6830,7269 6835,7276 6835,7293 6826,7311 6829,7338 6832,7352 6836,7364 6841,7372 6851,7381 6864,7407 6880,7428 6903,7465 6917,7485 6933,7504 6946,7513 6960,7518 6972,7530 6978,7542 6985,7546 6998,7544 7017,7544 7042,7549 7067,7556 7087,7566 7108,7582 7121,7595 7130,7612 7130,7622 7125,7628 7119,7636 7119,7669 7113,7675 7095,7682 7081,7684 7063,7688 7056,7692 7053,7704 7050,7720 7040,7735 7033,7742 7016,7757 6997,7771 6987,7780 6981,7794 6985,7814 6988,7829 6988,7863 6984,7875 6960,7881 6947,7883 6940,7888 6938,7897 6926,7921 6918,7940 6915,7947 6918,7958 6926,7962 6941,7954 6960,7949 6971,7951 6997,7971 7017,7992 7044,8020 7054,8036 7060,8042 7071,8054 7081,8063 7091,8071 7105,8083 7113,8089 7122,8097 7132,8105 7154,8127 7162,8136 7161,8142 7152,8152 7132,8172 7120,8186 7111,8195 7102,8204 7095,8213 7088,8222 7080,8230 7072,8241 7061,8253 7053,8263 7046,8271 7038,8279 7031,8286 7021,8295 7010,8305 6997,8318 6986,8330 6979,8338 6971,8345 6964,8351 6957,8359 6950,8365 6944,8372 6933,8382 6926,8393 6922,8399 6916,8407 6904,8411 6892,8418 6880,8425 6872,8431 6856,8445 6849,8452 6839,8461 6833,8464 6824,8465 6817,8465 6808,8469 6804,8480 6805,8487 6812,8495 6814,8501 6816,8507 6819,8515 6822,8521 6823,8527 6826,8534 6829,8543 6830,8549 6827,8557 6826,8566 6829,8574 6830,8580 6822,8582 6819,8589 6821,8596 6818,8602 6808,8606 6801,8606 6793,8605 6792,8597 6790,8590 6782,8593 6776,8591 6770,8592 6764,8591 6760,8599 6756,8605 6748,8612 6743,8618 6737,8620 6728,8611 6717,8608 6711,8603 6701,8602 6694,8603 6688,8604 6680,8600 6673,8604 6667,8604 6660,8599 6653,8600 6647,8602 6640,8607 6633,8615 6628,8622 6619,8640 6619,8647 6620,8654 6626,8663 6627,8669 6635,8672 6639,8683 6643,8697 6647,8707 6659,8718 6667,8727 6673,8734 6678,8742 6681,8750 6680,8756 6686,8762 6699,8772 6705,8781 6703,8787 6709,8791 6718,8803 6721,8812 6723,8821 6733,8825 6740,8827 6746,8829 6738,8838 6733,8845 6725,8845 6714,8843 6704,8844 6696,8845 6688,8849 6678,8857 6671,8866 6649,8877 6642,8883 6634,8892 6622,8906 6619,8907 6510,8826 6480,8802 6448,8790 6436,8788 6416,8784 6376,8784 6348,8784 6330,8788 6308,8792 6274,8802 6248,8808 6080,8846 6060,8846 6030,8848 5970,8846 5929,8846 5857,8851 5772,8849 5685,8845 5613,8849 5568,8844 5541,8831 5545,8821 5518,8814 5429,8797 5422,8794 5329,8749 5292,8718 5271,8700 5236,8651 5232,8644 5212,8616 5200,8600 5181,8571 5158,8543 5148,8536 5114,8515 5092,8506 5074,8495 5066,8486 5031,8445 5022,8422 5022,8419 5021,8403 5022,8393 5024,8372 5036,8344 5039,8327 5038,8321 5038,8310 5036,8303 5022,8288 4990,8258 4971,8241 4956,8228 4950,8223 4921,8197 4905,8178 4888,8159 4860,8112 4850,8097 4864,8090 4871,8085 4877,8083 4884,8079 4884,8073 4893,8069 4904,8066 4910,8066 4913,8060 4919,8058 4925,8057 4922,8049 4923,8043 4930,8041 4940,8052 4954,8061 4965,8071 4985,8075 5000,8072 5016,8071 5033,8066 5047,8048 5050,8036 5054,8030 5053,8024 5060,8023 5067,8017 5067,8010 5066,8002 5066,7995 5071,7988 5074,7982 5080,7976 5084,7969 5088,7963 5095,7959 5102,7954 5108,7950 5116,7944 5122,7943 5129,7944 5135,7942 5140,7934 5152,7932 5160,7933 5167,7935 5175,7938 5181,7940 5188,7941 5194,7942 5202,7946 5209,7949 5216,7953 5227,7960 5234,7963 5244,7970 5250,7974 5257,7981 5264,7986 5279,7996 5286,8001 5296,8006 5302,8010 5309,8015 5318,8021 5324,8028 5330,8033 5338,8025 5349,8013 5351,8007 5353,8001 5355,7995 5358,7989 5359,7983 5362,7977 5361,7969 5359,7961 5360,7952 5366,7942 5367,7932 5366,7926 5360,7917 5353,7909 5352,7901 5352,7889 5359,7887 5368,7881 5371,7874 5373,7868 5374,7859 5375,7853 5380,7846 5388,7841 5394,7839 5396,7833 5395,7825 5397,7818 5405,7813 5411,7809 5413,7799 5412,7792 5419,7790 5427,7791 5429,7784 5427,7776 5422,7770 5416,7767 5422,7764 5421,7755 5417,7745 5411,7737 5407,7730 5406,7723 5410,7717 5416,7711 5418,7705 5417,7697 5423,7694 5429,7697 5428,7690 5431,7683 5433,7676 5433,7669 5439,7662 5446,7656 5450,7650 5453,7641 5449,7635 5448,7628 5457,7623 5463,7617 5461,7609 5463,7602 5462,7596 5456,7592 5447,7592 5441,7589 5438,7582 5445,7575 5453,7572 5457,7565 5460,7559 5461,7553 5458,7546 5462,7539 5466,7533 5470,7527 5464,7521 5468,7511 5475,7509 5482,7510 5488,7507 5490,7501 5491,7494 5495,7488 5499,7482 5501,7474 5502,7467 5508,7463 5510,7456 5511,7450 5511,7436 5509,7428 5508,7422 5507,7416 5500,7410 5494,7407 5492,7400 5481,7399 5475,7397 5475,7391 5481,7386 5484,7378 5484,7369 5489,7358 5489,7342 5490,7336 5492,7330 5495,7323 5500,7317 5506,7307 5515,7303 5528,7288 5547,7270 5560,7257 5566,7243 5567,7236 5563,7224 5552,7209 5534,7187 5531,7171 5528,7158 5527,7150 5536,7133 5541,7116 5541,7099 5543,7088 5551,7084 5565,7083 5580,7075 5593,7067 5602,7058 5602,7039 5626,7021 5647,7011 5664,6999 5674,6985 5697,6980 5712,6989 5727,6992 5743,6989 5759,6987 5772,6996 5791,7011 5806,7021 5819,7028 5843,7038 5859,7043 5872,7040 5884,7038 5899,7038 5911,7035 5922,7028 5926,7011 5922,6997 5923,6986 5928,6980 5949,6972 5950,6960 5952,6953 5965,6947 5987,6943 6010,6939 6035,6938 6051,6936 6061,6935 6078,6941 " class="polyStyle" id="421182" style="fill:#ee8b94"/>
<path d="" class="polyStyle" id="421087" style="fill:#ee8b94"/>
<path d="" class="polyStyle" id="420984" style="fill:#fbe6ef"/>
<path d="" class="polyStyle" id="420582" style="fill:#ee8b94"/>
<path d="" class="polyStyle" id="370282" style="fill:#f6f67b"/>
<path d="" class="polyStyle" id="371083" style="fill:#f6f67b"/>
<path d="" class="polyStyle" id="371082" style="fill:#fbe6ef"/>
<path d="" class="polyStyle" id="652801" style="fill:#f8c67d"/>
<path d="" class="polyStyle" id="654301" style="fill:#ee8b94"/>
<path d="" class="polyStyle" id="370687" style="fill:#ee8b94"/>
<path d="" class="polyStyle" id="371482" style="fill:#d4ecb2"/>
<path d="" class="polyStyle" id="421081" style="fill:#fbe6ef"/>
<path d="" class="polyStyle" id="429006" style="fill:#f6f67b"/>
<path d="" class="polyStyle" id="440982" style="fill:#d4ecb2"/>
<path d="M2716,2845 L2719,2852 L2722,2859 L2725,2868 L2719,2873 L2713,2879 L2712,2885 L2716,2891 L2716,2898 L2724,2905 L2726,2912 L2720,2912 L2714,2908 L2707,2912 L2699,2912 L2685,2926 L2679,2927 L2675,2921 L2669,2922 L2670,2916 L2676,2912 L2670,2908 L2664,2912 L2658,2911 L2651,2907 L2645,2904 L2638,2904 L2633,2897 L2632,2891 L2629,2885 L2624,2879 L2621,2873 L2623,2867 L2623,2859 L2629,2863 L2635,2863 L2641,2860 L2648,2859 L2653,2852 L2656,2841 L2664,2840 L2671,2847 L2677,2849 L2677,2852 L2685,2848 L2693,2847 L2699,2845 L2705,2840 L2711,2842 L2719,2839 L2716,2845z M3805,8 L3815,6 L3849,14 L3857,18 L3862,23 L3865,26 L3869,34 L3871,52 L3869,76 L3871,98 L3875,104 L3879,120 L3907,146 L3929,160 L3955,170 L3945,208 L3969,214 L4003,208 L4023,204 L4039,212 L4045,252 L4073,254 L4123,248 L4151,238 L4163,236 L4169,238 L4173,242 L4173,252 L4153,278 L4143,304 L4135,348 L4123,370 L4105,400 L4079,448 L4081,500 L4073,522 L4051,568 L4057,596 L4077,642 L4083,666 L4083,670 L4073,710 L4055,740 L4037,782 L4037,802 L4039,830 L4045,846 L4053,850 L4071,848 L4075,854 L4083,894 L4093,906 L4099,908 L4117,908 L4139,896 L4153,892 L4205,908 L4227,914 L4251,918 L4249,928 L4251,946 L4263,946 L4271,944 L4277,946 L4293,968 L4279,980 L4245,1046 L4247,1062 L4257,1070 L4275,1068 L4285,1092 L4303,1088 L4309,1086 L4313,1082 L4329,1064 L4355,1040 L4387,1030 L4395,1028 L4431,1032 L4467,1052 L4477,1062 L4485,1092 L4489,1102 L4499,1108 L4521,1114 L4529,1114 L4537,1114 L4551,1114 L4567,1106 L4593,1090 L4633,1060 L4657,1036 L4673,1022 L4697,1022 L4727,1032 L4761,1034 L4767,1032 L4785,1024 L4821,1012 L4861,1004 L4887,1030 L4897,1040 L4917,1050 L4947,1070 L4951,1078 L4951,1090 L4947,1096 L4925,1116 L4917,1130 L4911,1142 L4901,1162 L4895,1164 L4873,1164 L4863,1166 L4895,1198 L4895,1220 L4891,1244 L4891,1262 L4881,1260 L4859,1268 L4847,1278 L4849,1282 L4857,1292 L4877,1290 L4935,1328 L4945,1316 L4961,1308 L4981,1312 L5017,1342 L5037,1336 L5055,1332 L5069,1326 L5073,1320 L5077,1312 L5081,1286 L5087,1278 L5097,1278 L5103,1284 L5111,1288 L5131,1296 L5141,1288 L5143,1280 L5151,1278 L5163,1284 L5181,1296 L5203,1300 L5209,1306 L5213,1314 L5217,1324 L5219,1368 L5219,1374 L5221,1396 L5223,1414 L5229,1436 L5233,1446 L5239,1452 L5253,1466 L5267,1468 L5275,1464 L5285,1444 L5291,1434 L5295,1430 L5303,1432 L5307,1440 L5311,1448 L5317,1458 L5319,1472 L5313,1488 L5295,1500 L5293,1504 L5289,1556 L5283,1570 L5277,1584 L5273,1594 L5273,1602 L5273,1610 L5277,1626 L5315,1638 L5329,1650 L5337,1670 L5343,1690 L5359,1710 L5362,1711 L5362,1725 L5357,1741 L5352,1751 L5344,1758 L5337,1768 L5333,1782 L5329,1797 L5322,1806 L5313,1818 L5303,1835 L5294,1841 L5287,1854 L5288,1867 L5288,1880 L5281,1896 L5262,1912 L5251,1923 L5247,1937 L5257,1948 L5261,1953 L5258,1960 L5241,1968 L5212,1975 L5190,1980 L5168,1983 L5155,1990 L5145,1996 L5136,2004 L5130,2021 L5124,2038 L5106,2052 L5084,2069 L5060,2082 L5039,2094 L5027,2101 L5010,2128 L5015,2143 L5027,2152 L5040,2156 L5054,2158 L5074,2166 L5090,2174 L5096,2181 L5095,2199 L5083,2231 L5069,2247 L5061,2256 L5057,2271 L5057,2291 L5057,2302 L5057,2311 L5041,2325 L5023,2343 L5004,2364 L4992,2378 L4983,2388 L4969,2401 L4955,2413 L4944,2427 L4940,2442 L4942,2460 L4955,2469 L4969,2475 L4981,2478 L5006,2465 L5039,2460 L5036,2463 L5035,2468 L5035,2473 L5036,2478 L5036,2483 L5037,2488 L5038,2493 L5037,2498 L5037,2503 L5035,2508 L5033,2513 L5031,2518 L5028,2523 L5024,2528 L5022,2533 L5021,2538 L5020,2543 L5019,2548 L5017,2553 L5015,2558 L5012,2563 L5006,2568 L5001,2573 L4995,2578 L4989,2582 L4983,2586 L4977,2590 L4972,2594 L4966,2599 L4960,2603 L4954,2607 L4949,2611 L4943,2614 L4937,2617 L4931,2620 L4925,2623 L4919,2625 L4913,2630 L4908,2635 L4903,2640 L4900,2645 L4897,2650 L4894,2655 L4891,2660 L4888,2665 L4885,2670 L4884,2675 L4882,2680 L4881,2685 L4880,2690 L4878,2695 L4875,2700 L4872,2705 L4867,2710 L4863,2715 L4858,2720 L4856,2725 L4853,2730 L4850,2736 L4849,2741 L4846,2751 L4835,2771 L4826,2780 L4818,2789 L4810,2797 L4805,2807 L4800,2816 L4800,2830 L4798,2840 L4794,2850 L4787,2859 L4778,2872 L4775,2876 L4772,2884 L4768,2893 L4765,2901 L4763,2911 L4760,2921 L4756,2932 L4754,2938 L4750,2949 L4748,2963 L4747,2973 L4746,2979 L4743,2987 L4740,2996 L4735,3003 L4730,3011 L4726,3021 L4717,3036 L4715,3053 L4708,3084 L4713,3124 L4717,3135 L4715,3159 L4717,3175 L4705,3186 L4683,3201 L4673,3211 L4668,3215 L4666,3219 L4664,3224 L4667,3236 L4667,3242 L4665,3245 L4658,3245 L4650,3241 L4642,3238 L4631,3232 L4623,3228 L4616,3228 L4610,3229 L4604,3232 L4600,3232 L4593,3232 L4586,3231 L4579,3231 L4573,3232 L4570,3235 L4568,3244 L4575,3256 L4575,3263 L4575,3269 L4572,3273 L4568,3276 L4560,3278 L4552,3278 L4541,3274 L4532,3267 L4529,3261 L4524,3262 L4517,3263 L4510,3267 L4495,3266 L4491,3264 L4490,3256 L4489,3247 L4486,3245 L4476,3241 L4464,3238 L4461,3238 L4457,3241 L4451,3242 L4440,3248 L4429,3252 L4421,3253 L4416,3253 L4412,3252 L4408,3249 L4398,3234 L4395,3228 L4392,3223 L4388,3209 L4385,3203 L4381,3191 L4376,3186 L4369,3184 L4356,3184 L4332,3186 L4319,3187 L4312,3188 L4306,3193 L4290,3213 L4283,3227 L4279,3241 L4278,3250 L4278,3256 L4277,3259 L4274,3263 L4268,3267 L4264,3272 L4262,3280 L4261,3289 L4261,3299 L4261,3311 L4261,3321 L4260,3325 L4260,3329 L4267,3338 L4276,3344 L4281,3352 L4282,3366 L4278,3376 L4278,3383 L4284,3401 L4284,3405 L4282,3409 L4275,3415 L4267,3421 L4259,3432 L4255,3435 L4251,3437 L4248,3439 L4245,3440 L4240,3440 L4234,3438 L4225,3431 L4221,3427 L4216,3426 L4213,3428 L4206,3430 L4198,3432 L4194,3435 L4190,3438 L4187,3443 L4184,3451 L4181,3455 L4178,3456 L4159,3451 L4148,3443 L4143,3435 L4136,3424 L4133,3418 L4127,3411 L4118,3406 L4106,3395 L4100,3385 L4096,3377 L4092,3370 L4091,3367 L4086,3363 L4085,3357 L4090,3345 L4091,3339 L4090,3335 L4085,3330 L4079,3326 L4074,3325 L4071,3325 L4066,3328 L4061,3331 L4055,3331 L4051,3331 L4040,3331 L4033,3333 L4029,3335 L4034,3352 L4035,3365 L4027,3383 L4026,3386 L4023,3390 L4022,3393 L4022,3398 L4021,3401 L4018,3403 L4015,3405 L4004,3412 L4001,3412 L3998,3412 L3995,3413 L3988,3413 L3980,3411 L3971,3408 L3960,3397 L3947,3382 L3936,3358 L3927,3342 L3918,3335 L3909,3334 L3899,3342 L3896,3351 L3886,3365 L3875,3372 L3873,3379 L3872,3391 L3873,3400 L3875,3403 L3875,3408 L3874,3414 L3871,3420 L3868,3421 L3858,3425 L3850,3426 L3840,3426 L3833,3426 L3826,3425 L3823,3422 L3820,3415 L3814,3410 L3805,3408 L3789,3409 L3777,3411 L3763,3413 L3752,3416 L3746,3420 L3740,3432 L3726,3449 L3716,3454 L3705,3462 L3701,3467 L3701,3474 L3699,3481 L3701,3486 L3704,3491 L3713,3502 L3719,3514 L3731,3528 L3740,3543 L3740,3556 L3737,3564 L3732,3571 L3722,3577 L3710,3580 L3684,3589 L3656,3599 L3636,3609 L3623,3617 L3607,3638 L3599,3648 L3586,3663 L3570,3679 L3561,3686 L3557,3692 L3555,3695 L3551,3694 L3547,3690 L3539,3685 L3529,3677 L3517,3669 L3507,3662 L3497,3655 L3487,3648 L3476,3638 L3466,3629 L3457,3617 L3448,3604 L3439,3588 L3430,3577 L3421,3572 L3412,3568 L3405,3563 L3403,3556 L3401,3549 L3400,3544 L3397,3541 L3389,3544 L3379,3546 L3363,3554 L3342,3557 L3332,3559 L3321,3557 L3305,3553 L3285,3550 L3274,3545 L3269,3535 L3260,3527 L3259,3521 L3265,3520 L3273,3522 L3280,3523 L3285,3517 L3287,3509 L3286,3502 L3280,3498 L3272,3491 L3265,3485 L3256,3480 L3250,3480 L3244,3481 L3236,3482 L3230,3482 L3225,3475 L3216,3469 L3209,3472 L3202,3480 L3195,3483 L3189,3485 L3172,3478 L3160,3470 L3149,3461 L3140,3451 L3129,3439 L3131,3432 L3138,3428 L3145,3425 L3150,3419 L3156,3411 L3162,3404 L3167,3395 L3163,3388 L3143,3380 L3133,3376 L3126,3376 L3116,3378 L3115,3384 L3107,3395 L3097,3390 L3091,3389 L3085,3388 L3078,3387 L3068,3389 L3059,3393 L3050,3396 L3040,3396 L3035,3389 L3030,3383 L3022,3378 L3015,3377 L3008,3376 L2997,3360 L2985,3352 L2974,3343 L2960,3322 L2951,3311 L2942,3299 L2935,3297 L2929,3292 L2930,3284 L2937,3280 L2936,3274 L2932,3262 L2928,3252 L2926,3246 L2926,3235 L2933,3232 L2939,3229 L2937,3223 L2938,3217 L2945,3209 L2951,3206 L2960,3200 L2969,3197 L2976,3199 L2976,3193 L2965,3177 L2959,3177 L2951,3179 L2945,3185 L2937,3189 L2931,3183 L2920,3173 L2911,3168 L2904,3166 L2901,3157 L2900,3145 L2899,3139 L2904,3132 L2909,3126 L2921,3124 L2927,3124 L2933,3122 L2945,3115 L2950,3107 L2950,3098 L2942,3093 L2936,3089 L2939,3081 L2948,3075 L2947,3069 L2942,3063 L2943,3056 L2945,3050 L2938,3045 L2929,3039 L2922,3035 L2920,3036 L2916,3038 L2910,3036 L2904,3013 L2908,2995 L2911,2971 L2918,2952 L2916,2937 L2910,2922 L2905,2912 L2895,2897 L2878,2889 L2864,2893 L2858,2899 L2851,2910 L2847,2919 L2852,2925 L2857,2933 L2866,2945 L2870,2959 L2871,2968 L2874,2982 L2879,2994 L2874,3005 L2865,3016 L2857,3027 L2854,3036 L2856,3042 L2850,3045 L2840,3048 L2834,3053 L2836,3060 L2839,3066 L2836,3073 L2828,3083 L2819,3093 L2813,3095 L2803,3095 L2792,3094 L2782,3092 L2770,3086 L2766,3078 L2762,3072 L2767,3064 L2767,3050 L2774,3042 L2774,3034 L2771,3028 L2764,3034 L2758,3038 L2750,3038 L2735,3037 L2724,3040 L2722,3046 L2714,3049 L2708,3050 L2709,3056 L2702,3055 L2698,3049 L2698,3041 L2687,3036 L2689,3027 L2678,3013 L2660,3025 L2655,3036 L2650,3043 L2647,3049 L2644,3043 L2638,3042 L2638,3036 L2629,3017 L2619,3001 L2616,2991 L2611,2983 L2610,2975 L2608,2968 L2605,2962 L2601,2956 L2595,2951 L2588,2956 L2579,2961 L2567,2969 L2556,2975 L2543,2982 L2535,2987 L2519,2996 L2497,2994 L2479,2992 L2463,2986 L2449,2983 L2433,2987 L2416,2990 L2408,2992 L2399,3000 L2381,3014 L2362,3026 L2340,3036 L2333,3044 L2333,3050 L2328,3057 L2322,3063 L2316,3066 L2305,3069 L2298,3069 L2288,3068 L2282,3069 L2271,3067 L2264,3071 L2258,3081 L2260,3092 L2263,3098 L2267,3104 L2273,3106 L2286,3107 L2295,3108 L2306,3107 L2315,3108 L2329,3115 L2336,3120 L2345,3129 L2349,3136 L2347,3144 L2345,3153 L2350,3159 L2359,3165 L2364,3173 L2371,3180 L2378,3196 L2371,3212 L2356,3223 L2344,3229 L2331,3249 L2322,3266 L2318,3280 L2306,3293 L2298,3297 L2289,3299 L2277,3299 L2271,3300 L2265,3301 L2258,3301 L2252,3300 L2244,3299 L2237,3299 L2224,3300 L2218,3301 L2212,3301 L2203,3297 L2198,3279 L2191,3275 L2183,3275 L2173,3276 L2164,3274 L2157,3273 L2151,3275 L2147,3283 L2136,3283 L2122,3282 L2112,3279 L2106,3269 L2099,3261 L2093,3254 L2084,3251 L2077,3246 L2068,3233 L2067,3226 L2062,3218 L2055,3216 L2052,3207 L2049,3198 L2041,3193 L2027,3187 L2020,3183 L2018,3175 L2020,3167 L2028,3159 L2038,3135 L2039,3128 L2039,3114 L2037,3107 L2028,3101 L2024,3093 L2027,3080 L2027,3070 L2026,3063 L2025,3057 L2019,3053 L2011,3052 L2005,3053 L1999,3056 L1985,3068 L1979,3073 L1973,3076 L1966,3080 L1960,3079 L1954,3073 L1955,3067 L1961,3066 L1967,3062 L1970,3056 L1971,3050 L1978,3049 L1988,3040 L1987,3033 L1984,3027 L1979,3021 L1976,3027 L1966,3028 L1964,3035 L1958,3034 L1951,3036 L1942,3041 L1933,3050 L1927,3056 L1920,3063 L1914,3068 L1905,3075 L1899,3080 L1890,3087 L1883,3092 L1885,3100 L1884,3113 L1879,3132 L1874,3143 L1868,3151 L1862,3161 L1859,3169 L1851,3192 L1847,3201 L1844,3207 L1837,3213 L1833,3219 L1826,3225 L1819,3221 L1816,3214 L1810,3205 L1804,3196 L1804,3190 L1812,3183 L1822,3174 L1826,3166 L1825,3160 L1819,3152 L1817,3144 L1814,3135 L1812,3129 L1811,3121 L1816,3111 L1822,3110 L1829,3112 L1836,3110 L1840,3104 L1842,3098 L1836,3091 L1826,3090 L1816,3094 L1806,3096 L1798,3094 L1791,3091 L1797,3077 L1799,3071 L1795,3062 L1788,3053 L1773,3050 L1764,3051 L1754,3052 L1742,3055 L1731,3059 L1720,3065 L1712,3070 L1702,3078 L1688,3090 L1685,3107 L1675,3108 L1665,3110 L1651,3118 L1642,3125 L1597,3125 L1589,3126 L1581,3129 L1571,3135 L1565,3135 L1562,3128 L1557,3122 L1551,3123 L1549,3120 L1543,3119 L1539,3120 L1534,3120 L1529,3123 L1526,3127 L1521,3124 L1513,3119 L1502,3113 L1498,3105 L1489,3094 L1490,3086 L1490,3081 L1487,3077 L1482,3075 L1476,3072 L1473,3069 L1473,3062 L1471,3059 L1468,3058 L1464,3057 L1461,3058 L1457,3061 L1454,3063 L1449,3062 L1446,3054 L1447,3044 L1446,3036 L1450,3016 L1453,3010 L1448,3000 L1437,2989 L1429,2983 L1420,2971 L1416,2958 L1416,2947 L1407,2944 L1396,2952 L1384,2958 L1382,2949 L1387,2939 L1400,2934 L1417,2925 L1430,2920 L1453,2910 L1472,2895 L1486,2883 L1504,2871 L1515,2851 L1512,2836 L1505,2823 L1495,2810 L1481,2805 L1461,2805 L1448,2803 L1431,2790 L1425,2782 L1420,2764 L1423,2749 L1430,2737 L1439,2728 L1439,2720 L1430,2715 L1420,2708 L1416,2699 L1420,2683 L1429,2673 L1440,2663 L1455,2654 L1465,2641 L1483,2629 L1494,2630 L1512,2635 L1526,2639 L1536,2643 L1545,2648 L1549,2658 L1556,2663 L1565,2661 L1578,2656 L1589,2649 L1604,2638 L1615,2634 L1626,2633 L1639,2631 L1651,2628 L1660,2618 L1667,2606 L1676,2599 L1685,2599 L1698,2604 L1709,2607 L1720,2604 L1737,2590 L1753,2578 L1767,2568 L1781,2565 L1791,2566 L1807,2554 L1803,2555 L1799,2552 L1796,2549 L1793,2545 L1791,2542 L1787,2538 L1785,2535 L1783,2531 L1780,2528 L1777,2524 L1772,2520 L1769,2518 L1764,2514 L1760,2512 L1756,2510 L1752,2507 L1749,2504 L1746,2500 L1743,2497 L1736,2487 L1736,2484 L1749,2446 L1738,2435 L1729,2423 L1726,2409 L1710,2388 L1691,2378 L1684,2367 L1683,2352 L1696,2332 L1689,2328 L1681,2323 L1678,2319 L1677,2316 L1677,2312 L1678,2309 L1683,2305 L1687,2304 L1691,2303 L1695,2301 L1699,2297 L1701,2294 L1700,2290 L1698,2287 L1695,2283 L1694,2280 L1690,2276 L1687,2272 L1685,2269 L1681,2265 L1677,2262 L1674,2258 L1671,2254 L1669,2251 L1665,2247 L1664,2243 L1664,2240 L1664,2236 L1664,2233 L1668,2229 L1671,2226 L1673,2222 L1674,2218 L1675,2215 L1677,2211 L1684,2198 L1685,2194 L1690,2183 L1692,2171 L1692,2163 L1696,2141 L1700,2125 L1715,2107 L1720,2097 L1722,2082 L1724,2073 L1729,2065 L1735,2057 L1741,2050 L1749,2034 L1755,2027 L1764,2021 L1774,2019 L1784,2015 L1795,2011 L1802,2005 L1807,1998 L1813,1987 L1822,1977 L1830,1966 L1836,1957 L1838,1945 L1836,1940 L1833,1932 L1830,1926 L1826,1919 L1822,1911 L1847,1893 L1878,1880 L1901,1873 L1909,1868 L1909,1856 L1905,1846 L1911,1837 L1921,1828 L1930,1815 L1933,1802 L1940,1785 L1951,1771 L1974,1750 L1997,1728 L2013,1711 L2026,1694 L2029,1681 L2021,1673 L2009,1664 L1999,1654 L1991,1637 L1983,1615 L1968,1598 L1944,1591 L1921,1580 L1903,1569 L1898,1552 L1902,1545 L1873,1477 L1873,1468 L1873,1434 L1876,1411 L1881,1383 L1880,1370 L1875,1362 L1864,1345 L1860,1334 L1864,1324 L1876,1309 L1891,1295 L1924,1272 L1948,1259 L1967,1251 L1991,1244 L2011,1223 L2016,1209 L2014,1192 L2014,1183 L2022,1169 L2034,1158 L2046,1143 L2060,1127 L2074,1113 L2093,1094 L2090,1084 L2085,1072 L2079,1056 L2079,1041 L2085,1030 L2102,1016 L2113,1006 L2116,991 L2115,978 L2113,963 L2111,942 L2102,918 L2091,887 L2084,869 L2083,855 L2086,845 L2090,838 L2096,828 L2102,807 L2112,779 L2122,750 L2133,738 L2139,731 L2141,734 L2143,740 L2151,738 L2169,740 L2173,738 L2185,732 L2189,732 L2209,716 L2219,696 L2237,652 L2241,646 L2245,642 L2269,632 L2297,630 L2303,630 L2355,636 L2371,646 L2371,670 L2371,676 L2379,680 L2383,680 L2403,682 L2419,684 L2437,670 L2453,660 L2479,656 L2523,650 L2549,644 L2565,640 L2575,622 L2595,618 L2608,619 L2611,636 L2631,646 L2659,666 L2683,686 L2688,688 L2691,676 L2697,656 L2701,642 L2709,630 L2753,592 L2765,582 L2771,580 L2805,550 L2825,538 L2857,530 L2877,538 L2889,552 L2893,574 L2891,586 L2891,596 L2891,606 L2893,616 L2899,636 L2907,644 L2943,634 L2947,638 L2961,678 L2965,680 L2971,680 L2979,676 L2983,674 L2993,640 L2997,606 L3023,600 L3041,592 L3043,588 L3043,580 L3039,574 L3015,550 L3009,544 L3007,540 L3013,518 L3041,502 L3055,488 L3103,390 L3113,388 L3135,388 L3141,398 L3139,410 L3139,424 L3149,438 L3173,456 L3187,468 L3199,466 L3227,444 L3233,440 L3241,444 L3265,458 L3287,470 L3309,478 L3409,488 L3467,484 L3471,480 L3473,452 L3471,432 L3473,428 L3495,424 L3513,418 L3529,412 L3549,400 L3561,384 L3565,372 L3561,366 L3553,356 L3547,352 L3541,348 L3525,346 L3515,336 L3515,300 L3547,270 L3511,254 L3503,230 L3505,222 L3509,206 L3515,196 L3531,180 L3569,162 L3635,124 L3645,112 L3621,82 L3609,62 L3607,48 L3615,38 L3621,34 L3649,22 L3723,2 L3751,0 L3805,8z " class="polyStyle" id="421181" style="fill:#d4ecb2"/>
<path d="" class="polyStyle" id="321181" style="fill:#d4ecb2"/>
<path d="" class="polyStyle" id="659007" style="fill:#ee8b94"/>
<path d="" class="polyStyle" id="652701" style="fill:#fbe6ef"/>
<path d="" class="polyStyle" id="210781" style="fill:#fbe6ef"/>
<path d="" class="polyStyle" id="460204" style="fill:#f6f67b"/>
<path d="" class="polyStyle" id="210211" style="fill:#f6f67b"/>
<path d="" class="polyStyle" id="450512" style="fill:#ee8b94"/>
<path d="" class="polyStyle" id="450602" style="fill:#fbe6ef"/>
<path d="" class="polyStyle" id="440404" style="fill:#ee8b94"/>
<path d="" class="polyStyle" id="440403" style="fill:#f6f67b"/>
<path d="" class="polyStyle" id="441502" style="fill:#f6f67b"/>
<path d="" class="polyStyle" id="431002" style="fill:#d4ecb2"/>
<path d="" class="polyStyle" id="500107" style="fill:#fbe6ef"/>
<path d="" class="polyStyle" id="430611" style="fill:#d4ecb2"/>
<polygon points="3255,4818 3269,4832 3286,4841 3298,4856 3307,4865 3317,4880 3320,4890 3333,4906 3342,4922 3343,4936 3344,4945 3342,4952 3336,4956 3333,4963 3336,4969 3337,4977 3345,4984 3365,4994 3384,4990 3391,4993 3383,5000 3367,5015 3343,5033 3336,5043 3329,5052 3328,5072 3323,5091 3317,5120 3320,5155 3320,5165 3319,5201 3316,5211 3311,5226 3312,5242 3312,5256 3315,5281 3315,5299 3313,5305 3311,5318 3305,5329 3294,5335 3288,5336 3282,5336 3271,5334 3263,5332 3249,5326 3229,5318 3202,5303 3188,5297 3163,5297 3152,5303 3141,5315 3121,5334 3114,5338 3107,5348 3103,5358 3099,5368 3097,5374 3097,5392 3104,5410 3104,5421 3106,5433 3110,5452 3110,5468 3105,5481 3098,5494 3088,5535 3082,5564 3072,5597 3070,5603 3068,5616 3051,5638 3044,5646 3031,5653 3015,5660 3009,5665 3004,5681 3003,5688 3002,5704 2999,5711 2995,5717 2996,5729 2999,5735 3012,5754 3026,5769 3033,5780 3038,5788 3038,5796 3035,5808 3025,5822 3019,5836 3019,5849 3026,5861 3037,5881 3046,5900 3052,5947 3070,5998 3052,5994 3023,5994 2972,5996 2924,5998 2880,5998 2841,6001 2815,6003 2782,6001 2750,6001 2720,5998 2690,5995 2663,5991 2611,5983 2581,5982 2539,5980 2495,5977 2443,5964 2411,5950 2378,5933 2344,5910 2316,5889 2282,5857 2273,5848 2251,5826 2224,5795 2202,5762 2183,5731 2171,5699 2163,5656 2157,5631 2156,5593 2157,5567 2158,5536 2161,5500 2165,5468 2169,5435 2175,5401 2185,5358 2191,5320 2190,5294 2191,5254 2186,5223 2174,5204 2182,5179 2197,5142 2211,5108 2220,5086 2244,5076 2267,5076 2293,5069 2319,5059 2342,5041 2357,5022 2372,5013 2398,5013 2417,5011 2432,5002 2459,5007 2472,5007 2480,5021 2488,5028 2492,5034 2501,5042 2514,5047 2535,5047 2556,5056 2571,5072 2576,5094 2577,5121 2586,5152 2587,5168 2588,5180 2590,5189 2586,5199 2588,5205 2598,5211 2611,5209 2625,5206 2634,5210 2643,5224 2654,5233 2664,5239 2672,5242 2684,5236 2695,5231 2701,5232 2711,5237 2720,5240 2728,5241 2735,5241 2747,5240 2759,5238 2792,5232 2839,5215 2853,5209 2863,5202 2868,5195 2871,5183 2889,5166 2913,5151 2937,5132 2954,5116 2976,5094 2999,5078 3023,5076 3033,5080 3039,5082 3047,5082 3056,5081 3069,5073 3073,5066 3078,5060 3080,5053 3084,5042 3087,5035 3083,5023 3089,5011 3091,5003 3086,4993 3082,4983 3095,4978 3108,4979 3134,4983 3143,4976 3143,4966 3164,4899 3173,4880 3185,4862 3194,4841 3203,4824 3214,4813 3225,4805 3236,4804 3243,4805 " class="polyStyle" id="421102" style="fill:#f6f67b"/>
<path d="" class="polyStyle" id="511304" style="fill:#fbe6ef"/>
<path d="" class="polyStyle" id="340711" style="fill:#ee8b94"/>
<path d="" class="polyStyle" id="320118" style="fill:#f6f67b"/>
<path d="" class="polyStyle" id="510704" style="fill:#f6f67b"/>
<path d="" class="polyStyle" id="411502" style="fill:#ee8b94"/>
<path d="" class="polyStyle" id="320302" style="fill:#d4ecb2"/>
<path d="" class="polyStyle" id="140311" style="fill:#ee8b94"/>
<path d="" class="polyStyle" id="610802" style="fill:#ee8b94"/>
<path d="" class="polyStyle" id="120116" style="fill:#f6f67b"/>
<path d="" class="polyStyle" id="130303" style="fill:#fbe6ef"/>
<path d="" class="polyStyle" id="140211" style="fill:#f6f67b"/>
<path d="" class="polyStyle" id="150207" style="fill:#fbe6ef"/>
<path d="" class="polyStyle" id="211403" style="fill:#f6f67b"/>
<path d="" class="polyStyle" id="150802" style="fill:#f8c67d"/>
<path d="" class="polyStyle" id="210112" style="fill:#ee8b94"/>
<path d="" class="polyStyle" id="230406" style="fill:#d4ecb2"/>
<path d="" class="polyStyle" id="110113" style="fill:#fbe6ef"/>
<path d="" class="polyStyle" id="341702" style="fill:#fbe6ef"/>
<path d="" class="polyStyle" id="420303" style="fill:#ee8b94"/>
<path d="" class="polyStyle" id="340702" style="fill:#d4ecb2"/>
<path d="" class="polyStyle" id="421002" style="fill:#f6f67b"/>
<path d="" class="polyStyle" id="420117" style="fill:#f6f67b"/>
<path d="" class="polyStyle" id="440904" style="fill:#f8c67d"/>
<path d="" class="polyStyle" id="460205" style="fill:#ee8b94"/>
<path d="" class="polyStyle" id="460202" style="fill:#f6f67b"/>
<path d="" class="polyStyle" id="460203" style="fill:#fbe6ef"/>
<path d="" class="polyStyle" id="420304" style="fill:#f6f67b"/>
<path d="" class="polyStyle" id="445302" style="fill:#ee8b94"/>
<path d="" class="polyStyle" id="410202" style="fill:#d4ecb2"/>
<path d="" class="polyStyle" id="440800" style="fill:#f6f67b"/>
<path d="" class="polyStyle" id="440900" style="fill:#ee8b94"/>
<path d="" class="polyStyle" id="340800" style="fill:#ee8b94"/>
<path d="" class="polyStyle" id="460200" style="fill:#f6f67b"/>
<path d="" class="polyStyle" id="460000" style="fill:#ee8b94"/>
<path d="" class="polyStyle" id="450500" style="fill:#ee8b94"/>
<path d="" class="polyStyle" id="450600" style="fill:#ee8b94"/>
<path d="" class="polyStyle" id="440400" style="fill:#f6f67b"/>
<path d="" class="polyStyle" id="441700" style="fill:#f6f67b"/>
<path d="" class="polyStyle" id="441500" style="fill:#f6f67b"/>
<path d="" class="polyStyle" id="350600" style="fill:#ee8b94"/>
<path d="" class="polyStyle" id="710000" style="fill:#f6f67b"/>
<path d="" class="polyStyle" id="510400" style="fill:#f6f67b"/>
<path d="" class="polyStyle" id="522600" style="fill:#fbe6ef"/>
<path d="" class="polyStyle" id="520500" style="fill:#ee8b94"/>
<path d="" class="polyStyle" id="431200" style="fill:#f6f67b"/>
<path d="" class="polyStyle" id="430600" style="fill:#f6f67b"/>
<path d="" class="polyStyle" id="511400" style="fill:#d4ecb2"/>
<path d="" class="polyStyle" id="421000" style="fill:#ee8b94"/>
<path d="" class="polyStyle" id="341700" style="fill:#f6f67b"/>
<path d="" class="polyStyle" id="420500" style="fill:#f6f67b"/>
<path d="" class="polyStyle" id="511300" style="fill:#f6f67b"/>
<path d="" class="polyStyle" id="420900" style="fill:#f6f67b"/>
<path d="" class="polyStyle" id="511700" style="fill:#ee8b94"/>
<path d="" class="polyStyle" id="420600" style="fill:#d4ecb2"/>
<path d="" class="polyStyle" id="411500" style="fill:#fbe6ef"/>
<path d="" class="polyStyle" id="510800" style="fill:#ee8b94"/>
<path d="" class="polyStyle" id="420300" style="fill:#fbe6ef"/>
<path d="" class="polyStyle" id="611000" style="fill:#ee8b94"/>
<path d="" class="polyStyle" id="620800" style="fill:#fbe6ef"/>
<path d="" class="polyStyle" id="370200" style="fill:#ee8b94"/>
<path d="" class="polyStyle" id="371000" style="fill:#f6f67b"/>
<path d="" class="polyStyle" id="370600" style="fill:#fbe6ef"/>
<path d="" class="polyStyle" id="120000" style="fill:#f6f67b"/>
<path d="" class="polyStyle" id="130200" style="fill:#ee8b94"/>
<path d="" class="polyStyle" id="130300" style="fill:#f6f67b"/>
<path d="" class="polyStyle" id="652900" style="fill:#fbe6ef"/>
<path d="" class="polyStyle" id="150500" style="fill:#d4ecb2"/>
<path d="" class="polyStyle" id="" style="fill:#d4ecb2"/>
<path d="" class="polyStyle" id="350500" style="fill:#fbe6ef"/>
<path d="" class="polyStyle" id="440400" style="fill:#f6f67b"/>
<path d="" class="polyStyle" id="421100" style="fill:#d4ecb2"/>
<path d="" class="polyStyle" id="420100" style="fill:#fbe6ef"/>
<path d="" class="polyStyle" id="532500" style="fill:#fbe6ef"/>
<path d="" class="polyStyle" id="654200" style="fill:#fbe6ef"/>
<path d="" class="polyStyle" id="210700" style="fill:#d4ecb2"/>
<path d="" class="polyStyle" id="522300" style="fill:#fbe6ef"/>
<path d="" class="polyStyle" id="" style="fill:#ee8b94"/>
<path d="" class="polyStyle" id="440400" style="fill:#f6f67b"/>
<path d="" class="polyStyle" id="620000" style="fill:#f6f67b"/>
<path d="" class="polyStyle" id="430000" style="fill:#fbe6ef"/>
<path d="" class="polyStyle" id="420000" style="fill:#ee8b94"/>
<path d="" class="polyStyle" id="410000" style="fill:#f6f67b"/>
<path d="" class="polyStyle" id="350000" style="fill:#fbe6ef"/>
<path d="" class="polyStyle" id="520000" style="fill:#f6f67b"/>
<path d="" class="polyStyle" id="" style="fill:#ee8b94"/>
</svg>
