<?xml version="1.0" encoding="UTF-8"?>
<!DOCTYPE svg PUBLIC "-//W3C//DTD SVG 1.1 Tiny//EN" "http://www.w3.org/Graphics/SVG/1.1/DTD/svg11-tiny.dtd">
<svg version="1.1" xmlns="http://www.w3.org/2000/svg" xmlns:xlink="http://www.w3.org/1999/xlink" width="100%" height="100%" viewBox="0,0,7181,6331">
<title>SVG</title>
<desc>Poligon Test</desc>
<style id="style_css_sheet" type="text/css">
.polyStyle{fill: #cccccc;stroke-width:0;fill-rule:evenodd;}
</style>
<circle cx="1785" cy="2885" r="200" stroke="black" stroke-width="1" fill="red" id="421281" name="赤壁市"/>
<circle cx="2545" cy="3772" r="200" stroke="black" stroke-width="1" fill="red" id="421223" name="崇阳县"/>
<circle cx="4894" cy="3475" r="200" stroke="black" stroke-width="1" fill="red" id="421224" name="通山县"/>
<circle cx="1364" cy="5227" r="200" stroke="black" stroke-width="1" fill="red" id="421222" name="通城县"/>
<circle cx="1839" cy="1607" r="200" stroke="black" stroke-width="1" fill="red" id="421221" name="嘉鱼县"/>
<circle cx="3822" cy="2224" r="200" stroke="black" stroke-width="1" fill="red" id="421202" name="咸安区"/>
<path d="" class="polyStyle" id="" style="fill:#ee8b94"/>
<path d="" class="polyStyle" id="623022" style="fill:#fbe6ef"/>
<path d="" class="polyStyle" id="211421" style="fill:#f6f67b"/>
<path d="" class="polyStyle" id="532524" style="fill:#ee8b94"/>
<path d="" class="polyStyle" id="440825" style="fill:#f6f67b"/>
<path d="" class="polyStyle" id="441721" style="fill:#f6f67b"/>
<path d="" class="polyStyle" id="450521" style="fill:#f6f67b"/>
<path d="" class="polyStyle" id="450123" style="fill:#fbe6ef"/>
<path d="" class="polyStyle" id="350624" style="fill:#f6f67b"/>
<path d="" class="polyStyle" id="" style="fill:#fbe6ef"/>
<path d="" class="polyStyle" id="451224" style="fill:#fbe6ef"/>
<path d="" class="polyStyle" id="350627" style="fill:#f6f67b"/>
<path d="" class="polyStyle" id="" style="fill:#f6f67b"/>
<path d="" class="polyStyle" id="350525" style="fill:#f6f67b"/>
<path d="" class="polyStyle" id="530124" style="fill:#ee8b94"/>
<path d="" class="polyStyle" id="522627" style="fill:#ee8b94"/>
<path d="" class="polyStyle" id="510421" style="fill:#fbe6ef"/>
<path d="" class="polyStyle" id="522623" style="fill:#d4ecb2"/>
<path d="" class="polyStyle" id="430321" style="fill:#d4ecb2"/>
<path d="" class="polyStyle" id="511129" style="fill:#d4ecb2"/>
<polygon points="977,4517 985,4524 994,4532 1000,4554 1002,4561 1013,4573 1025,4583 1040,4593 1051,4597 1067,4607 1080,4616 1088,4624 1103,4638 1107,4647 1112,4659 1117,4665 1125,4672 1146,4676 1176,4681 1187,4686 1205,4703 1218,4716 1226,4732 1230,4745 1231,4753 1231,4763 1227,4773 1222,4791 1219,4801 1219,4809 1221,4823 1227,4838 1244,4849 1251,4853 1261,4857 1273,4862 1282,4871 1297,4882 1307,4894 1315,4904 1321,4914 1322,4927 1323,4934 1324,4944 1324,4955 1325,4964 1328,4976 1330,4986 1332,4996 1343,5008 1350,5011 1362,5014 1373,5012 1382,5009 1391,5004 1401,5001 1414,5001 1423,5004 1440,5005 1463,5006 1472,5007 1499,5016 1508,5021 1516,5026 1526,5030 1534,5034 1544,5033 1552,5032 1560,5031 1570,5031 1583,5034 1591,5040 1605,5046 1621,5051 1633,5055 1646,5056 1655,5055 1667,5052 1675,5049 1682,5043 1692,5036 1703,5026 1732,4990 1733,4981 1733,4974 1736,4963 1736,4927 1735,4915 1737,4907 1739,4898 1744,4890 1754,4884 1765,4883 1776,4881 1787,4880 1797,4877 1807,4876 1816,4872 1828,4869 1837,4861 1839,4844 1833,4834 1828,4826 1824,4814 1824,4805 1827,4792 1834,4785 1842,4784 1850,4783 1858,4780 1861,4769 1855,4763 1847,4757 1839,4752 1828,4748 1811,4745 1792,4735 1777,4723 1771,4711 1772,4699 1774,4689 1780,4678 1786,4669 1794,4663 1805,4655 1816,4652 1829,4651 1840,4651 1849,4650 1858,4650 1871,4648 1879,4648 1892,4647 1906,4650 1916,4653 1921,4659 1922,4666 1918,4674 1927,4681 1937,4685 1948,4688 1959,4687 1986,4676 2004,4663 2011,4655 2017,4653 2026,4652 2034,4649 2038,4640 2038,4631 2035,4622 2036,4604 2044,4597 2066,4587 2076,4583 2088,4581 2103,4582 2111,4587 2119,4588 2128,4589 2137,4590 2146,4590 2160,4592 2177,4592 2189,4589 2199,4584 2209,4578 2218,4573 2229,4568 2239,4567 2247,4572 2259,4577 2269,4581 2280,4584 2290,4582 2304,4576 2314,4571 2327,4566 2335,4563 2341,4561 2347,4558 2355,4555 2365,4557 2376,4560 2396,4567 2406,4571 2416,4576 2428,4590 2435,4598 2450,4604 2461,4606 2470,4608 2476,4618 2480,4624 2486,4624 2492,4623 2501,4620 2508,4616 2517,4610 2521,4603 2525,4594 2535,4586 2543,4583 2549,4583 2558,4587 2570,4594 2577,4600 2598,4634 2600,4641 2601,4648 2604,4656 2606,4663 2607,4672 2606,4679 2605,4686 2601,4693 2589,4704 2583,4713 2576,4724 2577,4730 2590,4742 2617,4765 2621,4773 2620,4780 2603,4789 2592,4792 2577,4793 2567,4792 2543,4792 2522,4796 2515,4798 2509,4802 2493,4811 2483,4818 2477,4821 2466,4832 2452,4835 2442,4839 2435,4842 2429,4843 2422,4845 2415,4849 2408,4852 2401,4857 2401,4880 2402,4887 2402,4893 2399,4900 2394,4906 2390,4912 2389,4918 2389,4924 2398,4929 2405,4936 2406,4942 2401,4949 2397,4955 2393,4964 2390,4970 2390,4977 2392,4987 2393,4993 2393,4999 2391,5006 2391,5014 2392,5021 2391,5030 2394,5036 2401,5041 2407,5042 2415,5045 2420,5051 2429,5057 2434,5064 2438,5071 2441,5079 2443,5087 2446,5095 2456,5097 2463,5097 2469,5096 2487,5091 2518,5086 2533,5084 2540,5087 2544,5095 2549,5104 2548,5111 2545,5120 2545,5128 2548,5138 2548,5147 2547,5156 2543,5165 2542,5171 2544,5178 2545,5184 2542,5190 2528,5200 2523,5208 2524,5221 2526,5227 2526,5233 2528,5239 2532,5245 2538,5251 2544,5258 2544,5264 2542,5271 2538,5277 2539,5285 2547,5298 2551,5305 2552,5313 2552,5324 2554,5335 2555,5342 2556,5349 2559,5355 2572,5367 2579,5375 2602,5393 2608,5395 2615,5397 2624,5401 2633,5405 2641,5409 2645,5417 2646,5430 2646,5448 2655,5455 2664,5456 2671,5455 2673,5454 2685,5472 2659,5488 2635,5510 2619,5530 2613,5542 2605,5552 2601,5568 2599,5582 2597,5590 2589,5594 2583,5596 2563,5612 2543,5616 2521,5620 2513,5626 2511,5630 2511,5640 2517,5652 2519,5660 2517,5670 2493,5674 2483,5686 2469,5702 2449,5726 2441,5730 2435,5752 2413,5764 2383,5768 2369,5774 2353,5782 2343,5790 2337,5798 2337,5816 2307,5838 2271,5842 2251,5846 2243,5848 2237,5854 2237,5862 2239,5868 2237,5876 2235,5894 2231,5902 2217,5924 2203,5940 2191,5960 2179,5974 2161,5988 2155,5992 2145,5988 2121,5984 2113,5980 2099,5976 2091,5976 2085,5980 2079,5992 2079,5998 2077,6018 2079,6048 2077,6066 2075,6086 2063,6094 2059,6100 2059,6110 2083,6130 2043,6178 2037,6186 2035,6202 2035,6214 2039,6228 2037,6255 2021,6243 2013,6243 1993,6251 1941,6277 1911,6297 1872,6328 1845,6331 1783,6319 1735,6311 1701,6311 1691,6307 1691,6273 1691,6259 1687,6231 1691,6211 1699,6197 1709,6173 1703,6163 1691,6157 1673,6157 1649,6159 1629,6169 1593,6191 1587,6193 1583,6189 1491,6143 1483,6139 1473,6133 1477,6123 1479,6117 1491,6087 1503,6051 1505,6039 1499,6027 1487,6013 1467,5999 1417,5961 1405,5957 1383,5959 1365,5965 1347,5975 1333,5991 1307,5999 1291,5997 1287,5977 1269,5977 1243,6005 1223,6013 1177,6017 1162,6028 1153,6039 1149,6055 1143,6069 1135,6097 1129,6111 1031,6215 997,6183 977,6181 968,6180 953,6125 971,6103 941,6069 941,6053 951,6021 971,5975 963,5967 945,5961 927,5959 923,5961 905,5969 883,5995 855,6047 853,6053 845,6061 837,6067 799,6087 775,6095 769,6095 755,6091 741,6079 737,6071 741,6045 745,6029 757,5953 759,5929 753,5879 735,5875 721,5869 717,5857 727,5827 719,5813 679,5801 657,5773 653,5749 653,5729 673,5705 649,5691 623,5683 621,5679 637,5651 641,5631 653,5611 657,5607 663,5603 685,5595 719,5559 747,5537 771,5503 777,5493 781,5479 781,5449 773,5421 765,5401 767,5387 775,5355 769,5341 751,5317 741,5307 727,5305 711,5305 699,5311 675,5319 653,5337 639,5383 623,5377 603,5369 589,5363 537,5341 559,5327 549,5285 525,5283 511,5257 483,5229 463,5221 457,5225 447,5255 437,5261 425,5257 411,5247 397,5225 399,5203 347,5203 343,5197 339,5187 348,5146 381,5117 387,5107 385,5081 385,5069 407,5049 429,5027 433,5015 445,4999 451,4985 453,4975 453,4949 453,4941 455,4933 461,4921 469,4903 481,4883 491,4869 503,4857 539,4841 545,4839 561,4833 577,4829 611,4817 627,4801 637,4769 647,4757 641,4745 621,4725 619,4719 625,4675 619,4637 641,4581 655,4565 663,4555 703,4527 745,4519 785,4519 811,4517 839,4511 877,4509 913,4529 923,4529 939,4519 959,4503 967,4509 " class="polyStyle" id="421222" style="fill:#f6f67b"/>
<polygon points="4067,3118 4068,3124 4069,3134 4069,3143 4068,3163 4068,3179 4065,3190 4064,3197 4050,3206 4043,3218 4042,3232 4040,3240 4039,3249 4038,3261 4036,3269 4035,3279 4029,3290 4018,3302 4012,3308 3998,3323 3987,3334 3977,3345 3959,3363 3947,3382 3945,3387 3921,3426 3917,3432 3911,3441 3875,3444 3861,3447 3854,3449 3849,3449 3840,3456 3833,3467 3832,3482 3835,3504 3840,3512 3844,3535 3828,3572 3827,3575 3825,3578 3811,3588 3802,3593 3793,3600 3792,3602 3788,3605 3786,3613 3786,3618 3788,3626 3790,3629 3797,3642 3796,3649 3789,3659 3781,3663 3772,3667 3766,3669 3757,3673 3753,3675 3743,3693 3740,3699 3736,3703 3730,3707 3725,3709 3719,3711 3716,3712 3710,3714 3699,3724 3696,3740 3698,3760 3699,3766 3700,3777 3700,3790 3693,3814 3691,3822 3688,3828 3684,3833 3683,3837 3681,3841 3680,3846 3680,3849 3682,3854 3685,3858 3689,3862 3703,3873 3727,3884 3729,3885 3736,3898 3741,3911 3746,3918 3748,3922 3746,3925 3738,3928 3733,3931 3729,3931 3726,3932 3723,3932 3718,3931 3699,3934 3691,3939 3677,3947 3669,3951 3657,3957 3646,3962 3630,3967 3622,3969 3577,3984 3546,3995 3544,3998 3536,4009 3536,4018 3536,4021 3546,4031 3551,4034 3555,4035 3574,4038 3602,4044 3612,4055 3615,4059 3619,4070 3622,4076 3626,4080 3635,4086 3641,4088 3648,4092 3657,4098 3665,4104 3678,4116 3688,4123 3696,4128 3733,4151 3778,4178 3784,4183 3789,4189 3795,4195 3808,4200 3821,4202 3833,4206 3846,4218 3864,4231 3884,4236 3888,4239 3895,4244 3901,4247 3922,4259 3936,4275 3941,4280 3948,4289 3947,4292 3947,4298 3943,4310 3940,4315 3939,4317 3937,4323 3937,4335 3938,4345 3940,4354 3943,4373 3943,4390 3941,4414 3939,4439 3935,4449 3933,4455 3931,4457 3929,4459 3930,4461 3933,4464 3944,4471 3953,4478 3957,4482 3961,4484 3966,4482 3972,4479 3975,4478 3986,4468 3990,4465 4007,4453 4019,4444 4023,4441 4033,4440 4048,4444 4059,4452 4068,4466 4087,4501 4091,4521 4093,4527 4095,4533 4097,4535 4098,4539 4096,4546 4093,4552 4091,4556 4088,4559 4084,4565 4081,4567 4078,4570 4075,4573 4071,4576 4067,4579 4063,4580 4059,4583 4053,4585 4048,4586 4042,4588 4038,4590 4035,4594 4033,4601 4030,4609 4002,4631 3987,4644 3984,4645 3981,4645 3958,4649 3928,4656 3925,4657 3922,4658 3919,4659 3913,4662 3909,4664 3905,4667 3903,4670 3899,4673 3897,4672 3875,4656 3865,4652 3857,4652 3847,4656 3811,4678 3797,4686 3777,4690 3763,4696 3751,4698 3735,4708 3721,4720 3715,4726 3711,4726 3687,4706 3679,4708 3665,4722 3653,4734 3643,4738 3627,4748 3605,4762 3601,4768 3601,4772 3607,4782 3611,4796 3613,4810 3613,4834 3615,4852 3617,4864 3621,4870 3627,4878 3623,4886 3619,4888 3609,4890 3599,4896 3593,4912 3581,4920 3577,4922 3575,4934 3573,4938 3571,4952 3571,4966 3577,4970 3585,4982 3595,4988 3601,4992 3607,4992 3615,4998 3617,5008 3617,5014 3621,5024 3619,5028 3603,5046 3591,5062 3587,5070 3579,5092 3593,5104 3595,5120 3591,5130 3577,5142 3553,5140 3547,5142 3549,5152 3553,5168 3551,5176 3555,5186 3573,5210 3587,5234 3589,5248 3591,5274 3591,5292 3589,5306 3575,5312 3559,5310 3553,5312 3551,5316 3543,5328 3531,5332 3519,5334 3515,5332 3503,5324 3493,5318 3489,5314 3483,5308 3479,5294 3469,5296 3451,5300 3433,5304 3415,5306 3397,5308 3389,5314 3389,5318 3397,5328 3397,5334 3387,5338 3371,5346 3353,5354 3337,5362 3287,5356 3279,5360 3253,5382 3233,5394 3213,5412 3203,5418 3185,5406 3173,5400 3161,5398 3143,5396 3121,5398 3105,5402 3085,5418 3057,5416 3033,5428 3023,5430 3017,5426 3005,5422 2995,5416 2983,5412 2969,5404 2957,5402 2949,5406 2939,5420 2931,5428 2897,5424 2881,5412 2825,5430 2811,5420 2791,5418 2741,5436 2697,5442 2679,5448 2675,5450 2673,5454 2671,5455 2664,5456 2655,5455 2646,5448 2646,5430 2645,5417 2641,5409 2633,5405 2624,5401 2615,5397 2608,5395 2602,5393 2579,5375 2572,5367 2559,5355 2556,5349 2555,5342 2554,5335 2552,5324 2552,5313 2551,5305 2547,5298 2539,5285 2538,5277 2542,5271 2544,5264 2544,5258 2538,5251 2532,5245 2528,5239 2526,5233 2526,5227 2524,5221 2523,5208 2528,5200 2542,5190 2545,5184 2544,5178 2542,5171 2543,5165 2547,5156 2548,5147 2548,5138 2545,5128 2545,5120 2548,5111 2549,5104 2544,5095 2540,5087 2533,5084 2518,5086 2487,5091 2469,5096 2463,5097 2456,5097 2446,5095 2443,5087 2441,5079 2438,5071 2434,5064 2429,5057 2420,5051 2415,5045 2407,5042 2401,5041 2394,5036 2391,5030 2392,5021 2391,5014 2391,5006 2393,4999 2393,4993 2392,4987 2390,4977 2390,4970 2393,4964 2397,4955 2401,4949 2406,4942 2405,4936 2398,4929 2389,4924 2389,4918 2390,4912 2394,4906 2399,4900 2402,4893 2402,4887 2401,4880 2401,4857 2408,4852 2415,4849 2422,4845 2429,4843 2435,4842 2442,4839 2452,4835 2466,4832 2477,4821 2483,4818 2493,4811 2509,4802 2515,4798 2522,4796 2543,4792 2567,4792 2577,4793 2592,4792 2603,4789 2620,4780 2621,4773 2617,4765 2590,4742 2577,4730 2576,4724 2583,4713 2589,4704 2601,4693 2605,4686 2606,4679 2607,4672 2606,4663 2604,4656 2601,4648 2600,4641 2598,4634 2577,4600 2570,4594 2558,4587 2549,4583 2543,4583 2535,4586 2525,4594 2521,4603 2517,4610 2508,4616 2501,4620 2492,4623 2486,4624 2480,4624 2476,4618 2470,4608 2461,4606 2450,4604 2435,4598 2428,4590 2416,4576 2406,4571 2396,4567 2376,4560 2365,4557 2355,4555 2347,4558 2341,4561 2335,4563 2327,4566 2314,4571 2304,4576 2290,4582 2280,4584 2269,4581 2259,4577 2247,4572 2239,4567 2229,4568 2218,4573 2209,4578 2199,4584 2189,4589 2177,4592 2160,4592 2146,4590 2137,4590 2128,4589 2119,4588 2111,4587 2103,4582 2088,4581 2076,4583 2066,4587 2044,4597 2036,4604 2035,4622 2038,4631 2038,4640 2034,4649 2026,4652 2017,4653 2011,4655 2004,4663 1986,4676 1959,4687 1948,4688 1937,4685 1927,4681 1918,4674 1922,4666 1921,4659 1916,4653 1906,4650 1892,4647 1879,4648 1871,4648 1858,4650 1849,4650 1840,4651 1829,4651 1816,4652 1805,4655 1794,4663 1786,4669 1780,4678 1774,4689 1772,4699 1771,4711 1777,4723 1792,4735 1811,4745 1828,4748 1839,4752 1847,4757 1855,4763 1861,4769 1858,4780 1850,4783 1842,4784 1834,4785 1827,4792 1824,4805 1824,4814 1828,4826 1833,4834 1839,4844 1837,4861 1828,4869 1816,4872 1807,4876 1797,4877 1787,4880 1776,4881 1765,4883 1754,4884 1744,4890 1739,4898 1737,4907 1735,4915 1736,4927 1736,4963 1733,4974 1733,4981 1732,4990 1703,5026 1692,5036 1682,5043 1675,5049 1667,5052 1655,5055 1646,5056 1633,5055 1621,5051 1605,5046 1591,5040 1583,5034 1570,5031 1560,5031 1552,5032 1544,5033 1534,5034 1526,5030 1516,5026 1508,5021 1499,5016 1472,5007 1463,5006 1440,5005 1423,5004 1414,5001 1401,5001 1391,5004 1382,5009 1373,5012 1362,5014 1350,5011 1343,5008 1332,4996 1330,4986 1328,4976 1325,4964 1324,4955 1324,4944 1323,4934 1322,4927 1321,4914 1315,4904 1307,4894 1297,4882 1282,4871 1273,4862 1261,4857 1251,4853 1244,4849 1227,4838 1221,4823 1219,4809 1219,4801 1222,4791 1227,4773 1231,4763 1231,4753 1230,4745 1226,4732 1218,4716 1205,4703 1187,4686 1176,4681 1146,4676 1125,4672 1117,4665 1112,4659 1107,4647 1103,4638 1088,4624 1080,4616 1067,4607 1051,4597 1040,4593 1025,4583 1013,4573 1002,4561 1000,4554 994,4532 985,4524 977,4517 967,4509 959,4503 969,4495 993,4467 1023,4405 1021,4393 1009,4369 995,4351 995,4343 1003,4335 1009,4333 1019,4325 1065,4291 1075,4281 1083,4261 1087,4249 1083,4235 1037,4177 1027,4161 1035,4145 1029,4135 1017,4134 1041,4119 1058,4084 1058,4062 1046,4032 1046,4007 1073,3989 1106,3972 1138,3954 1148,3942 1143,3922 1133,3902 1138,3879 1153,3862 1168,3849 1171,3832 1176,3811 1206,3799 1241,3792 1269,3782 1301,3781 1330,3778 1369,3776 1405,3766 1433,3761 1459,3755 1497,3754 1524,3756 1558,3752 1568,3725 1548,3693 1522,3663 1501,3637 1506,3608 1490,3577 1483,3551 1503,3518 1533,3508 1559,3504 1590,3492 1617,3470 1649,3449 1677,3437 1709,3424 1736,3433 1763,3418 1789,3424 1819,3425 1846,3418 1875,3421 1902,3432 1930,3434 1960,3421 1987,3405 2014,3399 2045,3387 2059,3358 2070,3327 2080,3294 2097,3264 2124,3256 2162,3251 2192,3238 2226,3211 2252,3205 2285,3213 2290,3241 2315,3272 2343,3297 2369,3312 2396,3306 2433,3297 2467,3310 2493,3301 2562,3291 2593,3307 2622,3324 2677,3316 2702,3304 2735,3300 2780,3269 2817,3256 2863,3242 2891,3237 2936,3233 2973,3233 3005,3234 3032,3237 3061,3240 3117,3250 3148,3249 3167,3215 3178,3163 3210,3154 3253,3160 3301,3156 3328,3152 3360,3140 3395,3142 3423,3136 3462,3131 3465,3130 3493,3140 3523,3141 3546,3177 3574,3185 3655,3189 3686,3186 3712,3189 3744,3200 3771,3200 3800,3193 3828,3194 3855,3189 3888,3150 3918,3131 3945,3146 3988,3148 4028,3129 4058,3107 4071,3103 4067,3108 " class="polyStyle" id="421223" style="fill:#d4ecb2"/>
<polygon points="5652,2263 5657,2263 5660,2262 5665,2262 5673,2262 5685,2265 5722,2267 5746,2268 5758,2268 5782,2270 5793,2272 5802,2272 5808,2271 5817,2269 5826,2268 5831,2268 5838,2271 5853,2276 5864,2279 5869,2280 5875,2282 5880,2282 5887,2282 5889,2282 5902,2286 5933,2287 5956,2289 5981,2293 5993,2295 5995,2303 5995,2309 5988,2318 5987,2325 5990,2333 5995,2344 5995,2352 5991,2360 5991,2373 5989,2386 5993,2396 5992,2404 5988,2410 5985,2417 5984,2424 5981,2432 5981,2443 5984,2452 5986,2467 5985,2483 5984,2501 5984,2517 5979,2525 5969,2543 5969,2550 5971,2560 5971,2568 5967,2577 5964,2587 5963,2595 5964,2605 5964,2611 5963,2617 5957,2627 5951,2635 5941,2652 5931,2669 5922,2683 5917,2694 5911,2704 5905,2708 5901,2715 5905,2726 5917,2733 5925,2737 5931,2738 5939,2737 5946,2735 5950,2729 5959,2730 5969,2730 5978,2734 5991,2742 6009,2752 6015,2755 6020,2762 6029,2771 6040,2781 6047,2789 6056,2788 6065,2782 6065,2774 6069,2768 6075,2769 6085,2769 6092,2768 6096,2774 6102,2773 6109,2769 6115,2774 6122,2776 6129,2780 6134,2786 6141,2788 6144,2795 6140,2801 6140,2809 6148,2814 6153,2821 6155,2830 6161,2832 6167,2823 6172,2814 6170,2807 6168,2789 6175,2790 6189,2791 6202,2792 6216,2794 6222,2800 6230,2807 6255,2807 6263,2804 6263,2791 6275,2790 6286,2794 6298,2793 6310,2794 6329,2794 6348,2791 6359,2790 6381,2790 6391,2794 6398,2797 6409,2802 6419,2804 6434,2806 6449,2805 6456,2806 6463,2808 6474,2810 6480,2809 6486,2810 6492,2817 6496,2826 6505,2840 6518,2863 6523,2882 6518,2901 6514,2907 6512,2915 6508,2921 6512,2927 6519,2926 6525,2927 6538,2932 6540,2938 6542,2950 6541,2957 6539,2965 6537,2972 6537,2983 6543,2990 6553,2991 6568,2992 6576,2993 6583,2994 6590,2995 6600,2997 6615,2998 6625,2999 6640,3001 6659,3006 6665,3013 6665,3021 6668,3031 6674,3038 6681,3041 6686,3047 6688,3055 6692,3066 6698,3073 6712,3092 6719,3100 6726,3113 6727,3125 6727,3137 6724,3146 6722,3155 6717,3167 6715,3174 6715,3192 6737,3229 6747,3246 6753,3253 6758,3262 6766,3272 6776,3288 6781,3297 6782,3304 6783,3314 6784,3320 6782,3332 6776,3338 6772,3345 6767,3366 6767,3372 6768,3381 6769,3388 6770,3395 6774,3407 6778,3415 6783,3421 6792,3431 6802,3441 6815,3453 6823,3462 6830,3467 6838,3473 6845,3482 6846,3489 6849,3497 6852,3504 6855,3511 6853,3518 6844,3536 6845,3542 6845,3550 6846,3556 6855,3564 6867,3577 6875,3580 6881,3574 6885,3567 6891,3559 6900,3553 6909,3551 6918,3554 6933,3557 6943,3556 6951,3555 6957,3556 6966,3559 6970,3566 6976,3572 6976,3578 6970,3583 6971,3590 6978,3594 6984,3599 6989,3610 6995,3620 6999,3626 6998,3634 6994,3640 6987,3653 6991,3661 7000,3668 7007,3677 7018,3686 7025,3698 7034,3708 7042,3711 7079,3711 7093,3713 7100,3717 7091,3738 7083,3756 7075,3762 7061,3762 7055,3766 7047,3806 7047,3826 7049,3840 7053,3846 7063,3852 7073,3854 7089,3858 7101,3858 7109,3858 7123,3854 7135,3852 7165,3868 7177,3878 7181,3882 7179,3894 7175,3902 7171,3910 7165,3916 7135,3926 7129,3934 7127,3948 7133,3956 7127,3964 7115,3968 7103,3966 7097,3968 7095,3974 7081,3992 7059,4000 7035,4008 7019,4008 7005,4006 6989,3998 6987,3988 6977,3980 6961,3982 6955,3984 6951,3988 6947,3988 6933,3972 6933,3956 6941,3932 6949,3908 6951,3886 6947,3874 6943,3872 6939,3870 6931,3870 6923,3876 6915,3888 6915,3902 6905,3926 6901,3936 6873,3942 6863,3946 6847,3944 6833,3948 6821,3954 6813,3952 6813,3946 6815,3936 6823,3926 6825,3918 6829,3902 6833,3894 6847,3886 6857,3882 6857,3878 6849,3864 6845,3858 6837,3844 6827,3834 6819,3828 6809,3828 6799,3832 6793,3844 6795,3862 6783,3924 6777,3946 6767,3964 6765,3972 6755,3976 6737,3978 6729,3972 6719,3968 6719,3980 6727,4008 6723,4012 6715,4012 6697,4016 6691,4026 6689,4044 6681,4064 6675,4080 6653,4084 6639,4086 6623,4090 6611,4098 6605,4108 6613,4118 6623,4120 6627,4124 6631,4146 6643,4150 6657,4154 6667,4146 6677,4138 6689,4134 6693,4136 6699,4144 6705,4158 6711,4196 6719,4208 6727,4216 6727,4228 6729,4250 6731,4276 6737,4292 6739,4298 6741,4302 6747,4300 6757,4296 6779,4284 6787,4274 6805,4268 6819,4252 6831,4240 6841,4238 6857,4242 6891,4226 6899,4214 6909,4196 6927,4184 6931,4172 6929,4164 6921,4160 6915,4156 6903,4152 6875,4150 6853,4146 6845,4140 6843,4136 6843,4130 6853,4120 6863,4108 6891,4098 6899,4068 6923,4054 6943,4044 6956,4042 6973,4038 6989,4044 6999,4048 7007,4056 7011,4064 7013,4072 7001,4094 6979,4098 6981,4102 6983,4106 6991,4116 7005,4124 7003,4132 6991,4144 6992,4147 6997,4152 7017,4144 7027,4136 7037,4138 7043,4144 7057,4158 7063,4170 7049,4176 7029,4176 7019,4182 7015,4198 7033,4214 7011,4232 6983,4256 6977,4256 6963,4252 6951,4250 6949,4264 6955,4280 6963,4294 6969,4300 6977,4314 6975,4330 6971,4342 6971,4356 6971,4372 6961,4382 6955,4390 6951,4398 6941,4400 6931,4400 6913,4388 6901,4378 6895,4376 6887,4374 6877,4376 6869,4382 6863,4392 6849,4398 6841,4418 6829,4448 6819,4462 6803,4478 6786,4494 6767,4500 6749,4502 6737,4512 6719,4526 6713,4526 6707,4526 6698,4519 6695,4506 6705,4488 6707,4478 6703,4470 6699,4466 6697,4462 6691,4456 6683,4454 6677,4452 6669,4452 6653,4454 6633,4458 6601,4464 6575,4470 6565,4474 6557,4484 6553,4488 6549,4498 6539,4502 6497,4512 6483,4514 6461,4516 6449,4522 6429,4540 6393,4564 6375,4574 6367,4582 6351,4592 6343,4594 6337,4590 6327,4578 6297,4570 6265,4562 6249,4558 6233,4560 6215,4572 6201,4580 6199,4586 6197,4596 6189,4604 6169,4608 6151,4606 6147,4606 6139,4612 6133,4626 6129,4642 6123,4656 6117,4666 6113,4668 6105,4670 6101,4668 6091,4666 6081,4662 6071,4662 6057,4660 6037,4658 6025,4660 6019,4654 6019,4646 6017,4626 6017,4586 6025,4566 6035,4556 6023,4548 6011,4536 5999,4518 5991,4512 5969,4510 5943,4512 5909,4508 5889,4508 5875,4506 5863,4510 5853,4512 5839,4524 5833,4530 5815,4528 5805,4528 5789,4540 5773,4542 5749,4542 5735,4546 5725,4546 5719,4544 5717,4540 5703,4528 5689,4516 5679,4510 5669,4510 5659,4518 5651,4528 5643,4532 5633,4534 5625,4530 5609,4528 5593,4530 5583,4542 5565,4556 5541,4574 5521,4578 5499,4582 5475,4584 5459,4582 5441,4572 5429,4576 5417,4580 5407,4586 5393,4596 5379,4612 5357,4646 5353,4656 5345,4668 5319,4692 5307,4692 5297,4694 5279,4704 5269,4716 5255,4722 5241,4726 5215,4734 5187,4744 5167,4752 5153,4758 5149,4764 5135,4762 5121,4764 5111,4762 5103,4756 5097,4754 5093,4762 5085,4774 5079,4784 5073,4796 5059,4808 5051,4812 5041,4818 5027,4824 5015,4824 5005,4824 4993,4822 4975,4826 4957,4840 4943,4846 4917,4854 4910,4856 4901,4858 4887,4864 4879,4864 4871,4864 4855,4864 4839,4868 4829,4868 4821,4862 4819,4858 4809,4834 4803,4836 4793,4834 4785,4840 4779,4848 4769,4852 4745,4850 4735,4842 4721,4834 4709,4836 4681,4852 4657,4864 4641,4874 4631,4874 4625,4874 4615,4864 4603,4858 4593,4844 4591,4832 4593,4816 4594,4802 4587,4802 4567,4808 4555,4800 4543,4794 4531,4788 4529,4780 4537,4774 4563,4766 4565,4758 4549,4746 4541,4734 4535,4734 4529,4734 4523,4740 4521,4744 4519,4748 4517,4754 4513,4770 4503,4778 4479,4788 4459,4794 4433,4802 4413,4810 4391,4812 4385,4804 4379,4796 4375,4794 4367,4796 4353,4800 4325,4800 4317,4792 4313,4792 4293,4806 4281,4810 4259,4814 4251,4820 4241,4830 4223,4846 4213,4854 4197,4864 4185,4876 4169,4876 4149,4866 4133,4858 4117,4856 4091,4870 4077,4876 4067,4876 4061,4872 4057,4860 4037,4852 4021,4846 4019,4840 4017,4830 4013,4826 4001,4822 3989,4820 3985,4814 3981,4788 3977,4782 3973,4770 3969,4756 3963,4746 3953,4732 3945,4720 3943,4704 3937,4692 3931,4688 3927,4688 3923,4686 3917,4682 3909,4676 3899,4673 3903,4670 3905,4667 3909,4664 3913,4662 3919,4659 3922,4658 3925,4657 3928,4656 3958,4649 3981,4645 3984,4645 3987,4644 4002,4631 4030,4609 4033,4601 4035,4594 4038,4590 4042,4588 4048,4586 4053,4585 4059,4583 4063,4580 4067,4579 4071,4576 4075,4573 4078,4570 4081,4567 4084,4565 4088,4559 4091,4556 4093,4552 4096,4546 4098,4539 4097,4535 4095,4533 4093,4527 4091,4521 4087,4501 4068,4466 4059,4452 4048,4444 4033,4440 4023,4441 4019,4444 4007,4453 3990,4465 3986,4468 3975,4478 3972,4479 3966,4482 3961,4484 3957,4482 3953,4478 3944,4471 3933,4464 3930,4461 3929,4459 3931,4457 3933,4455 3935,4449 3939,4439 3941,4414 3943,4390 3943,4373 3940,4354 3938,4345 3937,4335 3937,4323 3939,4317 3940,4315 3943,4310 3947,4298 3947,4292 3948,4289 3941,4280 3936,4275 3922,4259 3901,4247 3895,4244 3888,4239 3884,4236 3864,4231 3846,4218 3833,4206 3821,4202 3808,4200 3795,4195 3789,4189 3784,4183 3778,4178 3733,4151 3696,4128 3688,4123 3678,4116 3665,4104 3657,4098 3648,4092 3641,4088 3635,4086 3626,4080 3622,4076 3619,4070 3615,4059 3612,4055 3602,4044 3574,4038 3555,4035 3551,4034 3546,4031 3536,4021 3536,4018 3536,4009 3544,3998 3546,3995 3577,3984 3622,3969 3630,3967 3646,3962 3657,3957 3669,3951 3677,3947 3691,3939 3699,3934 3718,3931 3723,3932 3726,3932 3729,3931 3733,3931 3738,3928 3746,3925 3748,3922 3746,3918 3741,3911 3736,3898 3729,3885 3727,3884 3703,3873 3689,3862 3685,3858 3682,3854 3680,3849 3680,3846 3681,3841 3683,3837 3684,3833 3688,3828 3691,3822 3693,3814 3700,3790 3700,3777 3699,3766 3698,3760 3696,3740 3699,3724 3710,3714 3716,3712 3719,3711 3725,3709 3730,3707 3736,3703 3740,3699 3743,3693 3753,3675 3757,3673 3766,3669 3772,3667 3781,3663 3789,3659 3796,3649 3797,3642 3790,3629 3788,3626 3786,3618 3786,3613 3788,3605 3792,3602 3793,3600 3802,3593 3811,3588 3825,3578 3827,3575 3828,3572 3844,3535 3840,3512 3835,3504 3832,3482 3833,3467 3840,3456 3849,3449 3854,3449 3861,3447 3875,3444 3911,3441 3917,3432 3921,3426 3945,3387 3947,3382 3959,3363 3977,3345 3987,3334 3998,3323 4012,3308 4018,3302 4029,3290 4035,3279 4036,3269 4038,3261 4039,3249 4040,3240 4042,3232 4043,3218 4050,3206 4064,3197 4065,3190 4068,3179 4068,3163 4069,3143 4069,3134 4068,3124 4067,3118 4067,3108 4071,3103 4074,3101 4086,3096 4107,3087 4121,3081 4127,3082 4133,3086 4143,3095 4149,3101 4159,3118 4163,3125 4165,3129 4166,3132 4167,3137 4166,3140 4164,3145 4162,3147 4161,3152 4161,3156 4161,3160 4161,3163 4162,3166 4160,3170 4157,3173 4155,3177 4154,3184 4154,3188 4156,3191 4159,3193 4161,3197 4164,3202 4167,3205 4170,3207 4173,3207 4181,3209 4188,3210 4197,3213 4202,3213 4206,3212 4210,3210 4214,3207 4215,3204 4216,3200 4218,3195 4219,3193 4223,3192 4226,3193 4232,3194 4239,3194 4244,3194 4253,3192 4260,3189 4268,3186 4280,3185 4290,3186 4298,3189 4302,3190 4307,3190 4312,3191 4316,3193 4321,3195 4327,3197 4331,3197 4336,3195 4342,3195 4349,3194 4356,3193 4360,3190 4362,3185 4364,3180 4365,3175 4368,3173 4371,3171 4377,3169 4384,3169 4390,3169 4397,3168 4400,3165 4400,3162 4397,3160 4392,3157 4386,3153 4379,3146 4377,3142 4376,3138 4374,3129 4373,3125 4374,3120 4377,3113 4381,3112 4385,3110 4388,3110 4392,3109 4399,3107 4405,3105 4411,3101 4421,3096 4424,3091 4432,3086 4442,3078 4447,3076 4451,3073 4452,3070 4449,3063 4447,3051 4445,3045 4442,3042 4439,3041 4435,3039 4434,3030 4439,3025 4444,3020 4467,3014 4489,3011 4529,3010 4535,3008 4536,3006 4537,3001 4537,2985 4538,2980 4539,2976 4542,2973 4545,2970 4549,2969 4555,2968 4564,2966 4571,2966 4577,2967 4582,2966 4586,2967 4591,2969 4599,2972 4608,2973 4615,2973 4625,2973 4642,2971 4657,2970 4670,2972 4684,2971 4699,2969 4710,2964 4716,2958 4721,2952 4721,2945 4723,2943 4728,2942 4736,2942 4742,2942 4751,2942 4758,2942 4767,2944 4772,2943 4775,2941 4781,2938 4786,2935 4788,2932 4789,2929 4794,2920 4797,2914 4798,2907 4802,2895 4810,2890 4817,2880 4822,2865 4824,2855 4831,2836 4837,2826 4841,2823 4856,2820 4863,2819 4871,2819 4887,2813 4890,2808 4892,2805 4896,2798 4899,2797 4903,2796 4907,2798 4911,2799 4917,2798 4921,2797 4926,2796 4929,2794 4931,2793 4935,2792 4938,2790 4940,2787 4941,2782 4942,2778 4943,2771 4943,2767 4942,2764 4943,2760 4943,2756 4946,2754 4949,2752 4953,2752 4957,2751 4970,2749 4977,2748 4981,2745 4984,2743 4987,2741 4991,2735 4997,2731 5005,2729 5015,2728 5024,2728 5035,2730 5040,2731 5043,2732 5046,2733 5058,2736 5065,2738 5090,2742 5102,2742 5106,2742 5110,2741 5118,2737 5126,2734 5140,2728 5155,2721 5161,2717 5166,2714 5171,2713 5179,2713 5188,2711 5201,2707 5206,2705 5217,2702 5222,2700 5226,2699 5239,2693 5246,2684 5253,2679 5260,2676 5271,2676 5296,2675 5306,2675 5313,2673 5323,2666 5326,2664 5328,2659 5331,2656 5335,2654 5340,2651 5343,2650 5347,2648 5366,2635 5369,2633 5372,2631 5375,2628 5377,2625 5376,2622 5374,2619 5369,2615 5364,2608 5364,2605 5362,2599 5360,2596 5358,2593 5355,2590 5351,2587 5346,2585 5342,2583 5337,2580 5333,2578 5326,2574 5322,2571 5319,2567 5317,2564 5316,2560 5317,2556 5318,2552 5319,2549 5318,2545 5314,2545 5310,2545 5306,2545 5300,2544 5289,2544 5282,2544 5277,2543 5271,2541 5275,2538 5281,2534 5284,2531 5284,2528 5283,2524 5279,2520 5276,2517 5276,2514 5279,2514 5282,2514 5287,2514 5292,2514 5294,2511 5292,2509 5283,2492 5271,2471 5269,2466 5270,2462 5277,2463 5290,2466 5295,2467 5312,2466 5316,2466 5332,2466 5359,2463 5373,2463 5384,2464 5393,2467 5401,2470 5404,2470 5412,2470 5421,2468 5431,2466 5446,2466 5454,2467 5472,2466 5485,2465 5497,2466 5500,2466 5511,2464 5522,2459 5536,2446 5541,2441 5544,2438 5546,2435 5548,2430 5549,2425 5547,2418 5542,2408 5538,2402 5537,2398 5540,2392 5545,2388 5548,2386 5550,2384 5551,2379 5550,2374 5553,2367 5557,2360 5558,2355 5560,2349 5561,2345 5563,2345 5565,2344 5568,2344 5574,2346 5578,2347 5580,2346 5583,2344 5585,2342 5585,2339 5584,2335 5584,2331 5584,2328 5587,2327 5588,2325 5587,2322 5585,2320 5585,2317 5587,2314 5591,2314 5595,2314 5599,2316 5603,2319 5607,2321 5611,2320 5614,2318 5615,2314 5611,2304 5608,2278 5608,2269 5611,2263 5616,2259 5638,2259 5646,2261 " class="polyStyle" id="421224" style="fill:#fbe6ef"/>
<path d="" class="polyStyle" id="511423" style="fill:#ee8b94"/>
<path d="" class="polyStyle" id="421023" style="fill:#f6f67b"/>
<polygon points="2191,9 2245,42 2312,91 2343,116 2343,122 2384,149 2418,207 2449,265 2463,297 2467,307 2484,345 2489,359 2536,386 2552,389 2550,406 2547,414 2535,435 2520,431 2506,429 2497,438 2495,445 2496,453 2497,463 2497,471 2499,479 2505,489 2504,499 2512,505 2524,505 2543,501 2555,495 2561,490 2566,484 2570,474 2581,466 2591,459 2605,456 2612,457 2618,459 2626,458 2643,454 2656,451 2672,447 2688,444 2700,443 2706,444 2715,449 2750,460 2757,462 2779,470 2822,470 2841,475 2869,498 2877,504 2888,514 2905,539 2905,546 2906,561 2915,578 2924,592 2939,614 2950,628 2958,643 2980,665 2993,682 3002,695 3009,704 3017,714 3030,718 3038,725 3045,738 3051,752 3059,759 3068,767 3076,775 3086,795 3088,805 3091,822 3092,829 3092,844 3091,852 3076,883 3064,900 3081,907 3110,919 3123,936 3127,957 3129,976 3130,990 3133,1003 3136,1015 3141,1023 3151,1033 3166,1035 3195,1041 3223,1043 3262,1049 3281,1057 3286,1067 3290,1080 3293,1093 3295,1105 3297,1117 3299,1130 3300,1143 3300,1168 3298,1180 3296,1192 3294,1205 3291,1216 3290,1225 3290,1238 3291,1248 3294,1259 3299,1270 3307,1283 3316,1292 3332,1306 3345,1316 3357,1327 3367,1341 3374,1353 3380,1369 3383,1382 3383,1395 3380,1408 3379,1424 3375,1437 3374,1445 3373,1469 3330,1491 3319,1520 3295,1561 3278,1577 3245,1608 3210,1637 3196,1645 3178,1649 3163,1647 3147,1639 3120,1624 3098,1629 3090,1648 3062,1650 3041,1644 3019,1642 2990,1642 2944,1643 2909,1644 2887,1644 2884,1640 2871,1596 2839,1560 2814,1556 2789,1551 2760,1551 2735,1551 2709,1553 2679,1562 2648,1587 2637,1622 2633,1648 2625,1675 2619,1713 2607,1765 2593,1802 2565,1845 2545,1897 2552,1926 2566,1965 2536,1988 2509,1984 2467,1952 2442,1944 2399,1988 2373,2005 2342,2026 2335,2011 2331,2008 2327,2009 2321,2027 2314,2034 2307,2039 2301,2041 2297,2043 2286,2044 2282,2043 2279,2042 2269,2038 2259,2034 2253,2032 2246,2031 2231,2024 2217,2019 2207,2013 2201,2009 2195,2004 2187,2002 2177,2001 2166,2003 2153,2012 2149,2021 2147,2027 2146,2034 2146,2044 2144,2053 2144,2060 2145,2068 2151,2081 2157,2089 2161,2102 2160,2115 2159,2121 2152,2125 2141,2131 2129,2136 2121,2138 2098,2141 2078,2142 2069,2142 2059,2142 2049,2141 2039,2137 2030,2128 2027,2121 2019,2114 2008,2107 1997,2107 1985,2107 1975,2110 1967,2113 1960,2117 1952,2123 1945,2131 1939,2137 1929,2142 1921,2146 1912,2152 1905,2160 1898,2168 1894,2179 1893,2186 1894,2197 1895,2208 1899,2212 1905,2218 1914,2221 1924,2226 1936,2232 1942,2240 1948,2249 1953,2258 1959,2267 1963,2275 1964,2283 1960,2292 1954,2294 1948,2294 1938,2295 1933,2296 1928,2297 1924,2303 1923,2310 1922,2318 1928,2323 1935,2328 1943,2334 1951,2340 1953,2347 1950,2350 1942,2355 1934,2359 1924,2362 1918,2362 1900,2354 1893,2349 1880,2342 1873,2340 1864,2344 1857,2353 1852,2366 1848,2370 1831,2375 1823,2380 1812,2389 1806,2392 1796,2394 1788,2397 1776,2401 1766,2407 1760,2415 1751,2424 1743,2434 1738,2440 1730,2448 1718,2455 1706,2462 1692,2467 1685,2469 1678,2475 1666,2474 1657,2472 1638,2468 1624,2469 1604,2476 1592,2482 1580,2489 1568,2492 1559,2494 1543,2501 1542,2508 1543,2517 1543,2523 1537,2528 1516,2532 1504,2534 1495,2536 1485,2538 1473,2538 1465,2535 1461,2529 1458,2523 1457,2518 1456,2509 1457,2501 1455,2490 1451,2487 1441,2487 1433,2488 1418,2493 1403,2507 1400,2515 1397,2525 1392,2532 1388,2535 1381,2537 1372,2538 1354,2538 1345,2535 1332,2527 1328,2518 1322,2508 1316,2502 1310,2498 1299,2490 1293,2486 1284,2480 1272,2462 1270,2453 1268,2443 1266,2436 1267,2432 1266,2422 1264,2416 1259,2411 1250,2406 1244,2404 1229,2402 1219,2402 1205,2404 1177,2407 1171,2407 1163,2403 1159,2394 1153,2387 1148,2387 1141,2389 1135,2394 1126,2401 1119,2406 1109,2410 1102,2411 1096,2411 1084,2413 1075,2416 1066,2421 1057,2425 1053,2431 1050,2441 1046,2449 1042,2457 1036,2462 1030,2465 1018,2468 1009,2465 983,2451 967,2440 953,2416 921,2388 902,2369 882,2341 882,2330 883,2313 873,2302 853,2290 834,2282 796,2273 767,2255 749,2246 729,2240 699,2230 669,2202 657,2165 650,2129 636,2104 634,2089 637,2078 649,2064 656,2038 641,2020 617,2000 616,1985 623,1976 641,1968 671,1947 668,1920 662,1894 696,1884 730,1874 762,1868 791,1866 821,1869 863,1876 890,1880 919,1883 967,1887 1004,1888 1040,1889 1073,1887 1105,1886 1133,1883 1160,1879 1192,1878 1223,1874 1257,1871 1292,1867 1320,1858 1350,1850 1387,1838 1414,1826 1440,1816 1481,1784 1509,1751 1527,1725 1547,1696 1579,1659 1599,1630 1625,1595 1653,1574 1690,1544 1716,1529 1745,1514 1766,1498 1923,1384 2107,1276 2369,1180 2669,1075 2748,1019 2772,966 2776,916 2757,874 2720,850 2549,769 2390,651 2281,567 2197,499 2124,468 2058,458 1987,481 1814,559 1726,571 1674,559 1643,537 1633,518 1630,503 1630,496 1629,485 1648,437 1700,369 1736,315 1750,300 1755,293 1826,174 1872,111 1910,76 1960,39 2080,3 2112,0 2155,2 " class="polyStyle" id="421221" style="fill:#ee8b94"/>
<path d="" class="polyStyle" id="511724" style="fill:#f6f67b"/>
<path d="" class="polyStyle" id="420526" style="fill:#fbe6ef"/>
<path d="" class="polyStyle" id="511923" style="fill:#fbe6ef"/>
<path d="" class="polyStyle" id="420325" style="fill:#fbe6ef"/>
<path d="" class="polyStyle" id="511921" style="fill:#f6f67b"/>
<path d="" class="polyStyle" id="542525" style="fill:#f6f67b"/>
<path d="" class="polyStyle" id="611026" style="fill:#ee8b94"/>
<path d="" class="polyStyle" id="411023" style="fill:#fbe6ef"/>
<path d="" class="polyStyle" id="632323" style="fill:#f6f67b"/>
<path d="" class="polyStyle" id="140525" style="fill:#d4ecb2"/>
<path d="" class="polyStyle" id="410922" style="fill:#ee8b94"/>
<path d="" class="polyStyle" id="621027" style="fill:#ee8b94"/>
<path d="" class="polyStyle" id="130427" style="fill:#f6f67b"/>
<path d="" class="polyStyle" id="130121" style="fill:#ee8b94"/>
<path d="" class="polyStyle" id="610823" style="fill:#fbe6ef"/>
<path d="" class="polyStyle" id="130225" style="fill:#fbe6ef"/>
<path d="" class="polyStyle" id="130322" style="fill:#d4ecb2"/>
<path d="" class="polyStyle" id="653130" style="fill:#f6f67b"/>
<path d="" class="polyStyle" id="130822" style="fill:#fbe6ef"/>
<path d="" class="polyStyle" id="211221" style="fill:#f6f67b"/>
<path d="" class="polyStyle" id="210921" style="fill:#f6f67b"/>
<path d="" class="polyStyle" id="150223" style="fill:#f8c67d"/>
<path d="" class="polyStyle" id="220422" style="fill:#d4ecb2"/>
<path d="" class="polyStyle" id="340721" style="fill:#f6f67b"/>
<path d="" class="polyStyle" id="510824" style="fill:#d4ecb2"/>
<path d="" class="polyStyle" id="610324" style="fill:#f6f67b"/>
<path d="" class="polyStyle" id="530722" style="fill:#ee8b94"/>
<path d="" class="polyStyle" id="340823" style="fill:#d4ecb2"/>
<path d="" class="polyStyle" id="620825" style="fill:#d4ecb2"/>
<path d="" class="polyStyle" id="421125" style="fill:#ee8b94"/>
<path d="" class="polyStyle" id="210281" style="fill:#ee8b94"/>
<path d="" class="polyStyle" id="440883" style="fill:#f6f67b"/>
<path d="" class="polyStyle" id="469006" style="fill:#d4ecb2"/>
<path d="" class="polyStyle" id="469002" style="fill:#ee8b94"/>
<path d="" class="polyStyle" id="469005" style="fill:#fbe6ef"/>
<path d="" class="polyStyle" id="440882" style="fill:#ee8b94"/>
<path d="" class="polyStyle" id="450681" style="fill:#ee8b94"/>
<path d="" class="polyStyle" id="441581" style="fill:#d4ecb2"/>
<polygon points="2839,1560 2871,1596 2884,1640 2887,1644 2886,1657 2894,1692 2921,1718 2931,1744 2938,1773 2960,1804 2979,1837 2998,1871 3026,1886 3049,1912 3051,1993 3052,2026 3073,2053 3100,2071 3128,2086 3153,2115 3153,2143 3181,2147 3199,2173 3187,2202 3182,2228 3183,2255 3186,2283 3203,2308 3176,2324 3150,2335 3165,2362 3170,2387 3146,2417 3127,2449 3152,2472 3171,2497 3177,2523 3186,2548 3182,2574 3187,2600 3191,2626 3175,2652 3164,2679 3180,2709 3175,2738 3148,2745 3119,2766 3121,2816 3098,2842 3108,2870 3138,2886 3166,2893 3221,2925 3250,2920 3311,2914 3354,2897 3383,2888 3413,2889 3439,2921 3470,2926 3480,2951 3470,2980 3460,3013 3453,3040 3449,3072 3462,3103 3465,3130 3462,3131 3423,3136 3395,3142 3360,3140 3328,3152 3301,3156 3253,3160 3210,3154 3178,3163 3167,3215 3148,3249 3117,3250 3061,3240 3032,3237 3005,3234 2973,3233 2936,3233 2891,3237 2863,3242 2817,3256 2780,3269 2735,3300 2702,3304 2677,3316 2622,3324 2593,3307 2562,3291 2493,3301 2467,3310 2433,3297 2396,3306 2369,3312 2343,3297 2315,3272 2290,3241 2285,3213 2252,3205 2226,3211 2192,3238 2162,3251 2124,3256 2097,3264 2080,3294 2070,3327 2059,3358 2045,3387 2014,3399 1987,3405 1960,3421 1930,3434 1902,3432 1875,3421 1846,3418 1819,3425 1789,3424 1763,3418 1736,3433 1709,3424 1677,3437 1649,3449 1617,3470 1590,3492 1559,3504 1533,3508 1503,3518 1483,3551 1490,3577 1506,3608 1501,3637 1522,3663 1548,3693 1568,3725 1558,3752 1524,3756 1497,3754 1459,3755 1433,3761 1405,3766 1369,3776 1330,3778 1301,3781 1269,3782 1241,3792 1206,3799 1176,3811 1171,3832 1168,3849 1153,3862 1138,3879 1133,3902 1143,3922 1148,3942 1138,3954 1106,3972 1073,3989 1046,4007 1046,4032 1058,4062 1058,4084 1041,4119 1017,4134 998,4132 994,4132 986,4131 974,4130 961,4126 950,4123 940,4120 932,4117 926,4115 919,4110 915,4104 912,4099 906,4094 900,4090 890,4086 883,4081 875,4076 867,4071 860,4064 855,4057 845,4051 837,4046 827,4042 821,4038 816,4034 812,4029 809,4024 805,4016 798,4011 794,4002 794,3995 793,3985 790,3975 787,3971 779,3966 772,3961 765,3954 758,3945 752,3936 743,3929 733,3925 726,3924 719,3923 708,3923 703,3923 698,3925 695,3926 690,3930 685,3932 682,3933 679,3933 676,3932 674,3929 671,3927 667,3927 663,3929 656,3932 650,3935 643,3937 638,3938 632,3937 626,3937 623,3939 618,3941 612,3942 609,3941 605,3938 601,3936 597,3935 594,3935 590,3935 586,3936 583,3939 581,3943 577,3946 572,3947 568,3949 563,3950 557,3950 550,3950 543,3949 535,3948 527,3946 516,3944 506,3941 494,3941 481,3943 481,3937 481,3929 482,3925 482,3920 483,3917 483,3912 481,3907 478,3904 475,3900 471,3897 469,3893 468,3888 468,3884 468,3879 469,3875 471,3872 475,3869 478,3866 484,3864 490,3861 495,3859 500,3858 506,3857 512,3855 517,3854 520,3852 522,3847 525,3842 528,3839 532,3837 536,3838 544,3839 549,3839 559,3839 565,3839 572,3836 579,3833 585,3828 588,3823 590,3817 592,3812 594,3809 598,3806 602,3804 608,3802 616,3803 624,3803 629,3804 638,3805 645,3805 650,3805 657,3804 666,3802 673,3798 680,3794 687,3791 694,3790 703,3790 707,3789 711,3787 711,3781 710,3773 707,3765 705,3753 706,3750 710,3747 717,3745 724,3744 740,3745 748,3745 760,3742 769,3737 777,3733 785,3731 792,3730 796,3728 801,3723 803,3717 806,3709 812,3706 817,3705 820,3708 820,3714 822,3721 830,3721 841,3718 847,3715 856,3709 860,3701 862,3696 864,3688 864,3682 864,3676 865,3671 871,3666 876,3663 880,3662 884,3658 885,3645 891,3637 912,3628 930,3617 948,3609 951,3610 956,3609 964,3608 973,3606 982,3602 989,3598 995,3592 998,3587 1000,3583 1001,3576 1002,3571 1002,3563 1004,3555 1006,3548 1009,3543 1010,3538 1010,3533 1010,3526 1009,3521 1006,3516 1002,3514 996,3514 985,3519 979,3519 974,3517 968,3513 961,3507 956,3501 950,3493 945,3488 940,3480 938,3473 935,3466 933,3458 929,3450 925,3442 920,3434 913,3429 903,3428 894,3429 884,3431 878,3434 868,3440 859,3443 855,3442 852,3439 845,3431 841,3426 837,3418 837,3409 837,3399 835,3392 833,3383 832,3374 832,3368 832,3361 832,3347 833,3341 835,3333 834,3326 833,3323 829,3317 822,3317 816,3317 808,3320 797,3323 790,3324 782,3325 776,3323 775,3319 774,3315 777,3309 785,3302 785,3296 780,3293 771,3293 764,3291 759,3289 753,3286 748,3285 736,3294 729,3300 725,3303 720,3307 713,3308 707,3308 699,3308 693,3305 689,3304 680,3301 674,3298 667,3291 665,3287 666,3283 674,3279 678,3278 689,3278 696,3281 704,3282 711,3277 711,3273 709,3263 706,3259 699,3255 692,3249 687,3244 684,3238 676,3218 673,3205 668,3196 663,3186 656,3177 651,3169 650,3161 653,3152 656,3145 658,3138 655,3130 648,3120 644,3114 640,3111 635,3103 631,3096 630,3090 631,3083 633,3069 629,3063 619,3065 610,3067 601,3069 591,3068 584,3068 578,3067 571,3069 565,3074 556,3084 549,3089 544,3096 539,3103 536,3111 532,3117 527,3122 521,3124 511,3124 503,3128 498,3131 492,3133 484,3135 474,3135 464,3133 454,3132 446,3132 436,3132 428,3133 421,3135 415,3136 409,3136 390,3134 377,3135 361,3144 350,3147 334,3144 316,3132 283,3128 250,3124 226,3121 202,3113 184,3111 156,3121 144,3125 126,3125 114,3123 92,3115 58,3095 44,3083 28,3065 4,3025 0,3007 0,2997 2,2989 14,2971 24,2939 40,2875 60,2807 72,2777 84,2748 86,2737 85,2733 83,2721 84,2703 90,2678 90,2672 88,2664 86,2660 80,2655 77,2647 76,2641 80,2630 85,2619 90,2615 98,2607 102,2600 105,2593 108,2586 114,2576 120,2569 129,2563 140,2559 148,2555 150,2552 150,2546 146,2542 141,2540 129,2533 126,2527 129,2520 134,2508 138,2497 141,2492 147,2484 153,2475 162,2464 167,2459 174,2455 183,2450 187,2447 187,2442 184,2438 178,2436 168,2437 157,2440 149,2440 143,2438 141,2435 140,2430 141,2424 148,2421 156,2419 167,2417 174,2414 180,2410 190,2401 195,2396 199,2390 199,2386 200,2381 197,2373 197,2366 198,2359 200,2352 204,2345 209,2337 215,2330 219,2323 223,2314 204,2293 170,2252 208,2225 249,2204 290,2183 322,2158 351,2135 380,2112 399,2085 423,2053 447,2023 482,1987 525,1954 580,1921 623,1905 659,1894 662,1894 668,1920 671,1947 641,1968 623,1976 616,1985 617,2000 641,2020 656,2038 649,2064 637,2078 634,2089 636,2104 650,2129 657,2165 669,2202 699,2230 729,2240 749,2246 767,2255 796,2273 834,2282 853,2290 873,2302 883,2313 882,2330 882,2341 902,2369 921,2388 953,2416 967,2440 983,2451 1009,2465 1018,2468 1030,2465 1036,2462 1042,2457 1046,2449 1050,2441 1053,2431 1057,2425 1066,2421 1075,2416 1084,2413 1096,2411 1102,2411 1109,2410 1119,2406 1126,2401 1135,2394 1141,2389 1148,2387 1153,2387 1159,2394 1163,2403 1171,2407 1177,2407 1205,2404 1219,2402 1229,2402 1244,2404 1250,2406 1259,2411 1264,2416 1266,2422 1267,2432 1266,2436 1268,2443 1270,2453 1272,2462 1284,2480 1293,2486 1299,2490 1310,2498 1316,2502 1322,2508 1328,2518 1332,2527 1345,2535 1354,2538 1372,2538 1381,2537 1388,2535 1392,2532 1397,2525 1400,2515 1403,2507 1418,2493 1433,2488 1441,2487 1451,2487 1455,2490 1457,2501 1456,2509 1457,2518 1458,2523 1461,2529 1465,2535 1473,2538 1485,2538 1495,2536 1504,2534 1516,2532 1537,2528 1543,2523 1543,2517 1542,2508 1543,2501 1559,2494 1568,2492 1580,2489 1592,2482 1604,2476 1624,2469 1638,2468 1657,2472 1666,2474 1678,2475 1685,2469 1692,2467 1706,2462 1718,2455 1730,2448 1738,2440 1743,2434 1751,2424 1760,2415 1766,2407 1776,2401 1788,2397 1796,2394 1806,2392 1812,2389 1823,2380 1831,2375 1848,2370 1852,2366 1857,2353 1864,2344 1873,2340 1880,2342 1893,2349 1900,2354 1918,2362 1924,2362 1934,2359 1942,2355 1950,2350 1953,2347 1951,2340 1943,2334 1935,2328 1928,2323 1922,2318 1923,2310 1924,2303 1928,2297 1933,2296 1938,2295 1948,2294 1954,2294 1960,2292 1964,2283 1963,2275 1959,2267 1953,2258 1948,2249 1942,2240 1936,2232 1924,2226 1914,2221 1905,2218 1899,2212 1895,2208 1894,2197 1893,2186 1894,2179 1898,2168 1905,2160 1912,2152 1921,2146 1929,2142 1939,2137 1945,2131 1952,2123 1960,2117 1967,2113 1975,2110 1985,2107 1997,2107 2008,2107 2019,2114 2027,2121 2030,2128 2039,2137 2049,2141 2059,2142 2069,2142 2078,2142 2098,2141 2121,2138 2129,2136 2141,2131 2152,2125 2159,2121 2160,2115 2161,2102 2157,2089 2151,2081 2145,2068 2144,2060 2144,2053 2146,2044 2146,2034 2147,2027 2149,2021 2153,2012 2166,2003 2177,2001 2187,2002 2195,2004 2201,2009 2207,2013 2217,2019 2231,2024 2246,2031 2253,2032 2259,2034 2269,2038 2279,2042 2282,2043 2286,2044 2297,2043 2301,2041 2307,2039 2314,2034 2321,2027 2327,2009 2331,2008 2335,2011 2342,2026 2373,2005 2399,1988 2442,1944 2467,1952 2509,1984 2536,1988 2566,1965 2552,1926 2545,1897 2565,1845 2593,1802 2607,1765 2619,1713 2625,1675 2633,1648 2637,1622 2648,1587 2679,1562 2709,1553 2735,1551 2760,1551 2789,1551 2814,1556 " class="polyStyle" id="421281" style="fill:#fbe6ef"/>
<path d="" class="polyStyle" id="421087" style="fill:#ee8b94"/>
<path d="" class="polyStyle" id="420984" style="fill:#fbe6ef"/>
<path d="" class="polyStyle" id="420582" style="fill:#ee8b94"/>
<path d="" class="polyStyle" id="370282" style="fill:#f6f67b"/>
<path d="" class="polyStyle" id="371083" style="fill:#f6f67b"/>
<path d="" class="polyStyle" id="371082" style="fill:#fbe6ef"/>
<path d="" class="polyStyle" id="652801" style="fill:#f8c67d"/>
<path d="" class="polyStyle" id="654301" style="fill:#ee8b94"/>
<path d="" class="polyStyle" id="370687" style="fill:#ee8b94"/>
<path d="" class="polyStyle" id="371482" style="fill:#d4ecb2"/>
<path d="" class="polyStyle" id="421081" style="fill:#fbe6ef"/>
<path d="" class="polyStyle" id="429006" style="fill:#f6f67b"/>
<path d="" class="polyStyle" id="440982" style="fill:#d4ecb2"/>
<path d="" class="polyStyle" id="421181" style="fill:#d4ecb2"/>
<path d="" class="polyStyle" id="321181" style="fill:#d4ecb2"/>
<path d="" class="polyStyle" id="659007" style="fill:#ee8b94"/>
<path d="" class="polyStyle" id="652701" style="fill:#fbe6ef"/>
<path d="" class="polyStyle" id="210781" style="fill:#fbe6ef"/>
<path d="" class="polyStyle" id="460204" style="fill:#f6f67b"/>
<path d="" class="polyStyle" id="210211" style="fill:#f6f67b"/>
<path d="" class="polyStyle" id="450512" style="fill:#ee8b94"/>
<path d="" class="polyStyle" id="450602" style="fill:#fbe6ef"/>
<path d="" class="polyStyle" id="440404" style="fill:#ee8b94"/>
<path d="" class="polyStyle" id="440403" style="fill:#f6f67b"/>
<path d="" class="polyStyle" id="441502" style="fill:#f6f67b"/>
<path d="" class="polyStyle" id="431002" style="fill:#d4ecb2"/>
<path d="" class="polyStyle" id="500107" style="fill:#fbe6ef"/>
<path d="" class="polyStyle" id="430611" style="fill:#d4ecb2"/>
<polygon points="4157,1338 4175,1346 4191,1351 4211,1355 4229,1360 4246,1363 4277,1363 4293,1366 4309,1373 4345,1382 4365,1394 4391,1404 4407,1411 4419,1420 4428,1431 4441,1438 4449,1439 4461,1446 4467,1448 4497,1458 4512,1462 4529,1462 4543,1461 4552,1461 4567,1462 4578,1468 4594,1475 4604,1484 4601,1493 4608,1497 4612,1500 4618,1507 4625,1508 4631,1507 4637,1507 4643,1511 4650,1513 4656,1513 4665,1512 4671,1515 4681,1522 4693,1529 4705,1537 4709,1543 4716,1544 4719,1538 4713,1531 4716,1525 4722,1524 4733,1522 4739,1522 4745,1519 4753,1514 4759,1515 4765,1519 4774,1523 4783,1524 4791,1525 4798,1525 4805,1528 4806,1534 4802,1540 4796,1546 4796,1558 4800,1566 4809,1567 4819,1566 4825,1565 4834,1568 4834,1575 4839,1581 4845,1580 4854,1586 4874,1595 4878,1601 4889,1610 4905,1602 4915,1603 4923,1604 4935,1603 4943,1609 4954,1627 4962,1632 4969,1633 4974,1637 4973,1641 4971,1647 4975,1654 4998,1668 5007,1669 5026,1671 5043,1671 5051,1676 5071,1700 5077,1714 5074,1718 5067,1721 5059,1723 5050,1722 5040,1725 5034,1728 5025,1738 5014,1748 5002,1762 4999,1780 5002,1787 5010,1787 5016,1786 5026,1782 5037,1778 5057,1771 5077,1760 5082,1752 5088,1752 5093,1752 5104,1756 5117,1765 5119,1771 5110,1785 5110,1791 5112,1799 5115,1801 5133,1810 5156,1811 5167,1810 5185,1804 5200,1800 5215,1799 5237,1795 5268,1783 5280,1780 5287,1780 5295,1783 5305,1786 5314,1789 5326,1794 5340,1808 5346,1815 5346,1822 5345,1828 5345,1835 5342,1844 5337,1851 5337,1855 5344,1860 5359,1866 5378,1873 5399,1879 5482,1905 5498,1910 5509,1911 5515,1911 5522,1914 5526,1918 5535,1922 5547,1926 5557,1928 5567,1928 5579,1927 5585,1923 5590,1919 5597,1908 5608,1904 5614,1902 5624,1902 5632,1904 5641,1907 5643,1912 5645,1925 5645,1936 5647,1952 5650,1961 5653,1964 5672,1969 5678,1969 5694,1971 5707,1972 5712,1973 5717,1976 5722,1981 5728,1984 5739,1986 5747,1988 5760,1994 5777,2000 5833,2019 5840,2019 5850,2018 5856,2015 5860,2013 5863,2010 5867,2005 5870,2000 5874,1997 5878,1996 5881,1996 5888,1997 5895,2001 5907,2007 5920,2011 5930,2013 5934,2012 5937,2015 5942,2022 5938,2033 5936,2039 5936,2045 5933,2056 5930,2063 5922,2069 5916,2073 5911,2086 5912,2097 5910,2110 5905,2131 5900,2149 5899,2160 5897,2166 5888,2182 5884,2188 5881,2194 5881,2202 5880,2217 5880,2227 5878,2233 5878,2245 5879,2253 5878,2266 5878,2276 5880,2282 5875,2282 5869,2280 5864,2279 5853,2276 5838,2271 5831,2268 5826,2268 5817,2269 5808,2271 5802,2272 5793,2272 5782,2270 5758,2268 5746,2268 5722,2267 5685,2265 5673,2262 5665,2262 5660,2262 5657,2263 5652,2263 5646,2261 5638,2259 5616,2259 5611,2263 5608,2269 5608,2278 5611,2304 5615,2314 5614,2318 5611,2320 5607,2321 5603,2319 5599,2316 5595,2314 5591,2314 5587,2314 5585,2317 5585,2320 5587,2322 5588,2325 5587,2327 5584,2328 5584,2331 5584,2335 5585,2339 5585,2342 5583,2344 5580,2346 5578,2347 5574,2346 5568,2344 5565,2344 5563,2345 5561,2345 5560,2349 5558,2355 5557,2360 5553,2367 5550,2374 5551,2379 5550,2384 5548,2386 5545,2388 5540,2392 5537,2398 5538,2402 5542,2408 5547,2418 5549,2425 5548,2430 5546,2435 5544,2438 5541,2441 5536,2446 5522,2459 5511,2464 5500,2466 5497,2466 5485,2465 5472,2466 5454,2467 5446,2466 5431,2466 5421,2468 5412,2470 5404,2470 5401,2470 5393,2467 5384,2464 5373,2463 5359,2463 5332,2466 5316,2466 5312,2466 5295,2467 5290,2466 5277,2463 5270,2462 5269,2466 5271,2471 5283,2492 5292,2509 5294,2511 5292,2514 5287,2514 5282,2514 5279,2514 5276,2514 5276,2517 5279,2520 5283,2524 5284,2528 5284,2531 5281,2534 5275,2538 5271,2541 5277,2543 5282,2544 5289,2544 5300,2544 5306,2545 5310,2545 5314,2545 5318,2545 5319,2549 5318,2552 5317,2556 5316,2560 5317,2564 5319,2567 5322,2571 5326,2574 5333,2578 5337,2580 5342,2583 5346,2585 5351,2587 5355,2590 5358,2593 5360,2596 5362,2599 5364,2605 5364,2608 5369,2615 5374,2619 5376,2622 5377,2625 5375,2628 5372,2631 5369,2633 5366,2635 5347,2648 5343,2650 5340,2651 5335,2654 5331,2656 5328,2659 5326,2664 5323,2666 5313,2673 5306,2675 5296,2675 5271,2676 5260,2676 5253,2679 5246,2684 5239,2693 5226,2699 5222,2700 5217,2702 5206,2705 5201,2707 5188,2711 5179,2713 5171,2713 5166,2714 5161,2717 5155,2721 5140,2728 5126,2734 5118,2737 5110,2741 5106,2742 5102,2742 5090,2742 5065,2738 5058,2736 5046,2733 5043,2732 5040,2731 5035,2730 5024,2728 5015,2728 5005,2729 4997,2731 4991,2735 4987,2741 4984,2743 4981,2745 4977,2748 4970,2749 4957,2751 4953,2752 4949,2752 4946,2754 4943,2756 4943,2760 4942,2764 4943,2767 4943,2771 4942,2778 4941,2782 4940,2787 4938,2790 4935,2792 4931,2793 4929,2794 4926,2796 4921,2797 4917,2798 4911,2799 4907,2798 4903,2796 4899,2797 4896,2798 4892,2805 4890,2808 4887,2813 4871,2819 4863,2819 4856,2820 4841,2823 4837,2826 4831,2836 4824,2855 4822,2865 4817,2880 4810,2890 4802,2895 4798,2907 4797,2914 4794,2920 4789,2929 4788,2932 4786,2935 4781,2938 4775,2941 4772,2943 4767,2944 4758,2942 4751,2942 4742,2942 4736,2942 4728,2942 4723,2943 4721,2945 4721,2952 4716,2958 4710,2964 4699,2969 4684,2971 4670,2972 4657,2970 4642,2971 4625,2973 4615,2973 4608,2973 4599,2972 4591,2969 4586,2967 4582,2966 4577,2967 4571,2966 4564,2966 4555,2968 4549,2969 4545,2970 4542,2973 4539,2976 4538,2980 4537,2985 4537,3001 4536,3006 4535,3008 4529,3010 4489,3011 4467,3014 4444,3020 4439,3025 4434,3030 4435,3039 4439,3041 4442,3042 4445,3045 4447,3051 4449,3063 4452,3070 4451,3073 4447,3076 4442,3078 4432,3086 4424,3091 4421,3096 4411,3101 4405,3105 4399,3107 4392,3109 4388,3110 4385,3110 4381,3112 4377,3113 4374,3120 4373,3125 4374,3129 4376,3138 4377,3142 4379,3146 4386,3153 4392,3157 4397,3160 4400,3162 4400,3165 4397,3168 4390,3169 4384,3169 4377,3169 4371,3171 4368,3173 4365,3175 4364,3180 4362,3185 4360,3190 4356,3193 4349,3194 4342,3195 4336,3195 4331,3197 4327,3197 4321,3195 4316,3193 4312,3191 4307,3190 4302,3190 4298,3189 4290,3186 4280,3185 4268,3186 4260,3189 4253,3192 4244,3194 4239,3194 4232,3194 4226,3193 4223,3192 4219,3193 4218,3195 4216,3200 4215,3204 4214,3207 4210,3210 4206,3212 4202,3213 4197,3213 4188,3210 4181,3209 4173,3207 4170,3207 4167,3205 4164,3202 4161,3197 4159,3193 4156,3191 4154,3188 4154,3184 4155,3177 4157,3173 4160,3170 4162,3166 4161,3163 4161,3160 4161,3156 4161,3152 4162,3147 4164,3145 4166,3140 4167,3137 4166,3132 4165,3129 4163,3125 4159,3118 4149,3101 4143,3095 4133,3086 4127,3082 4121,3081 4107,3087 4086,3096 4074,3101 4071,3103 4058,3107 4028,3129 3988,3148 3945,3146 3918,3131 3888,3150 3855,3189 3828,3194 3800,3193 3771,3200 3744,3200 3712,3189 3686,3186 3655,3189 3574,3185 3546,3177 3523,3141 3493,3140 3465,3130 3462,3103 3449,3072 3453,3040 3460,3013 3470,2980 3480,2951 3470,2926 3439,2921 3413,2889 3383,2888 3354,2897 3311,2914 3250,2920 3221,2925 3166,2893 3138,2886 3108,2870 3098,2842 3121,2816 3119,2766 3148,2745 3175,2738 3180,2709 3164,2679 3175,2652 3191,2626 3187,2600 3182,2574 3186,2548 3177,2523 3171,2497 3152,2472 3127,2449 3146,2417 3170,2387 3165,2362 3150,2335 3176,2324 3203,2308 3186,2283 3183,2255 3182,2228 3187,2202 3199,2173 3181,2147 3153,2143 3153,2115 3128,2086 3100,2071 3073,2053 3052,2026 3051,1993 3049,1912 3026,1886 2998,1871 2979,1837 2960,1804 2938,1773 2931,1744 2921,1718 2894,1692 2886,1657 2887,1644 2909,1644 2944,1643 2990,1642 3019,1642 3041,1644 3062,1650 3090,1648 3098,1629 3120,1624 3147,1639 3163,1647 3178,1649 3196,1645 3210,1637 3245,1608 3278,1577 3295,1561 3319,1520 3330,1491 3373,1469 3488,1498 3519,1499 3573,1498 3583,1495 3601,1494 3619,1491 3640,1488 3660,1484 3672,1480 3690,1477 3705,1472 3722,1468 3740,1465 3756,1463 3771,1459 3790,1455 3802,1454 3820,1441 3837,1431 3846,1426 3887,1416 3898,1414 3916,1406 3929,1400 3953,1381 3963,1367 3973,1355 3985,1349 4009,1349 4021,1353 4033,1356 4048,1355 4069,1345 4077,1339 4084,1338 4098,1336 4106,1325 4114,1321 4122,1321 4141,1330 " class="polyStyle" id="421202" style="fill:#f6f67b"/>
<path d="" class="polyStyle" id="511304" style="fill:#fbe6ef"/>
<path d="" class="polyStyle" id="340711" style="fill:#ee8b94"/>
<path d="" class="polyStyle" id="320118" style="fill:#f6f67b"/>
<path d="" class="polyStyle" id="510704" style="fill:#f6f67b"/>
<path d="" class="polyStyle" id="411502" style="fill:#ee8b94"/>
<path d="" class="polyStyle" id="320302" style="fill:#d4ecb2"/>
<path d="" class="polyStyle" id="140311" style="fill:#ee8b94"/>
<path d="" class="polyStyle" id="610802" style="fill:#ee8b94"/>
<path d="" class="polyStyle" id="120116" style="fill:#f6f67b"/>
<path d="" class="polyStyle" id="130303" style="fill:#fbe6ef"/>
<path d="" class="polyStyle" id="140211" style="fill:#f6f67b"/>
<path d="" class="polyStyle" id="150207" style="fill:#fbe6ef"/>
<path d="" class="polyStyle" id="211403" style="fill:#f6f67b"/>
<path d="" class="polyStyle" id="150802" style="fill:#f8c67d"/>
<path d="" class="polyStyle" id="210112" style="fill:#ee8b94"/>
<path d="" class="polyStyle" id="230406" style="fill:#d4ecb2"/>
<path d="" class="polyStyle" id="110113" style="fill:#fbe6ef"/>
<path d="" class="polyStyle" id="341702" style="fill:#fbe6ef"/>
<path d="" class="polyStyle" id="420303" style="fill:#ee8b94"/>
<path d="" class="polyStyle" id="340702" style="fill:#d4ecb2"/>
<path d="" class="polyStyle" id="421002" style="fill:#f6f67b"/>
<path d="" class="polyStyle" id="420117" style="fill:#f6f67b"/>
<path d="" class="polyStyle" id="440904" style="fill:#f8c67d"/>
<path d="" class="polyStyle" id="460205" style="fill:#ee8b94"/>
<path d="" class="polyStyle" id="460202" style="fill:#f6f67b"/>
<path d="" class="polyStyle" id="460203" style="fill:#fbe6ef"/>
<path d="" class="polyStyle" id="420304" style="fill:#f6f67b"/>
<path d="" class="polyStyle" id="445302" style="fill:#ee8b94"/>
<path d="" class="polyStyle" id="410202" style="fill:#d4ecb2"/>
<path d="" class="polyStyle" id="440800" style="fill:#f6f67b"/>
<path d="" class="polyStyle" id="440900" style="fill:#ee8b94"/>
<path d="" class="polyStyle" id="340800" style="fill:#ee8b94"/>
<path d="" class="polyStyle" id="460200" style="fill:#f6f67b"/>
<path d="" class="polyStyle" id="460000" style="fill:#ee8b94"/>
<path d="" class="polyStyle" id="450500" style="fill:#ee8b94"/>
<path d="" class="polyStyle" id="450600" style="fill:#ee8b94"/>
<path d="" class="polyStyle" id="440400" style="fill:#f6f67b"/>
<path d="" class="polyStyle" id="441700" style="fill:#f6f67b"/>
<path d="" class="polyStyle" id="441500" style="fill:#f6f67b"/>
<path d="" class="polyStyle" id="350600" style="fill:#ee8b94"/>
<path d="" class="polyStyle" id="710000" style="fill:#f6f67b"/>
<path d="" class="polyStyle" id="510400" style="fill:#f6f67b"/>
<path d="" class="polyStyle" id="522600" style="fill:#fbe6ef"/>
<path d="" class="polyStyle" id="520500" style="fill:#ee8b94"/>
<path d="" class="polyStyle" id="431200" style="fill:#f6f67b"/>
<path d="" class="polyStyle" id="430600" style="fill:#f6f67b"/>
<path d="" class="polyStyle" id="511400" style="fill:#d4ecb2"/>
<path d="" class="polyStyle" id="421000" style="fill:#ee8b94"/>
<path d="" class="polyStyle" id="341700" style="fill:#f6f67b"/>
<path d="" class="polyStyle" id="420500" style="fill:#f6f67b"/>
<path d="" class="polyStyle" id="511300" style="fill:#f6f67b"/>
<path d="" class="polyStyle" id="420900" style="fill:#f6f67b"/>
<path d="" class="polyStyle" id="511700" style="fill:#ee8b94"/>
<path d="" class="polyStyle" id="420600" style="fill:#d4ecb2"/>
<path d="" class="polyStyle" id="411500" style="fill:#fbe6ef"/>
<path d="" class="polyStyle" id="510800" style="fill:#ee8b94"/>
<path d="" class="polyStyle" id="420300" style="fill:#fbe6ef"/>
<path d="" class="polyStyle" id="611000" style="fill:#ee8b94"/>
<path d="" class="polyStyle" id="620800" style="fill:#fbe6ef"/>
<path d="" class="polyStyle" id="370200" style="fill:#ee8b94"/>
<path d="" class="polyStyle" id="371000" style="fill:#f6f67b"/>
<path d="" class="polyStyle" id="370600" style="fill:#fbe6ef"/>
<path d="" class="polyStyle" id="120000" style="fill:#f6f67b"/>
<path d="" class="polyStyle" id="130200" style="fill:#ee8b94"/>
<path d="" class="polyStyle" id="130300" style="fill:#f6f67b"/>
<path d="" class="polyStyle" id="652900" style="fill:#fbe6ef"/>
<path d="" class="polyStyle" id="150500" style="fill:#d4ecb2"/>
<path d="" class="polyStyle" id="" style="fill:#d4ecb2"/>
<path d="" class="polyStyle" id="350500" style="fill:#fbe6ef"/>
<path d="" class="polyStyle" id="440400" style="fill:#f6f67b"/>
<path d="" class="polyStyle" id="421100" style="fill:#d4ecb2"/>
<path d="" class="polyStyle" id="420100" style="fill:#fbe6ef"/>
<path d="" class="polyStyle" id="532500" style="fill:#fbe6ef"/>
<path d="" class="polyStyle" id="654200" style="fill:#fbe6ef"/>
<path d="" class="polyStyle" id="210700" style="fill:#d4ecb2"/>
<path d="" class="polyStyle" id="522300" style="fill:#fbe6ef"/>
<path d="" class="polyStyle" id="" style="fill:#ee8b94"/>
<path d="" class="polyStyle" id="440400" style="fill:#f6f67b"/>
<path d="" class="polyStyle" id="620000" style="fill:#f6f67b"/>
<path d="" class="polyStyle" id="430000" style="fill:#fbe6ef"/>
<path d="" class="polyStyle" id="420000" style="fill:#ee8b94"/>
<path d="" class="polyStyle" id="410000" style="fill:#f6f67b"/>
<path d="" class="polyStyle" id="350000" style="fill:#fbe6ef"/>
<path d="" class="polyStyle" id="520000" style="fill:#f6f67b"/>
<path d="" class="polyStyle" id="" style="fill:#ee8b94"/>
</svg>
