<?xml version="1.0" encoding="UTF-8"?>
<!DOCTYPE svg PUBLIC "-//W3C//DTD SVG 1.1 Tiny//EN" "http://www.w3.org/Graphics/SVG/1.1/DTD/svg11-tiny.dtd">
<svg version="1.1" xmlns="http://www.w3.org/2000/svg" xmlns:xlink="http://www.w3.org/1999/xlink" width="100%" height="100%" viewBox="0,0,11332,8505">
<title>SVG</title>
<desc>Poligon Test</desc>
<style id="style_css_sheet" type="text/css">
.polyStyle{fill: #cccccc;stroke-width:0;fill-rule:evenodd;}
</style>
<circle cx="4054" cy="4672" r="200" stroke="black" stroke-width="1" fill="red" id="430581" name="武冈市"/>
<circle cx="9618" cy="2079" r="200" stroke="black" stroke-width="1" fill="red" id="430521" name="邵东县"/>
<circle cx="8203" cy="1701" r="200" stroke="black" stroke-width="1" fill="red" id="430522" name="新邵县"/>
<circle cx="3778" cy="3008" r="200" stroke="black" stroke-width="1" fill="red" id="430525" name="洞口县"/>
<circle cx="7248" cy="3359" r="200" stroke="black" stroke-width="1" fill="red" id="430523" name="邵阳县"/>
<circle cx="2441" cy="6525" r="200" stroke="black" stroke-width="1" fill="red" id="430529" name="城步苗族自治县"/>
<circle cx="5196" cy="6124" r="200" stroke="black" stroke-width="1" fill="red" id="430528" name="新宁县"/>
<circle cx="1665" cy="5406" r="200" stroke="black" stroke-width="1" fill="red" id="430527" name="绥宁县"/>
<circle cx="6041" cy="2752" r="200" stroke="black" stroke-width="1" fill="red" id="430524" name="隆回县"/>
<circle cx="8150" cy="2073" r="200" stroke="black" stroke-width="1" fill="red" id="430511"position="14" name="北塔区"/>
<circle cx="8318" cy="2160" r="200" stroke="black" stroke-width="1" fill="red" id="430502" name="双清区"/>
<circle cx="8143" cy="2148" r="200" stroke="black" stroke-width="1" fill="red" id="430503"position="3" name="大祥区"/>
<path d="" class="polyStyle" id="" style="fill:#ee8b94"/>
<path d="" class="polyStyle" id="623022" style="fill:#fbe6ef"/>
<path d="" class="polyStyle" id="211421" style="fill:#f6f67b"/>
<path d="" class="polyStyle" id="532524" style="fill:#ee8b94"/>
<path d="" class="polyStyle" id="440825" style="fill:#f6f67b"/>
<path d="" class="polyStyle" id="441721" style="fill:#f6f67b"/>
<path d="" class="polyStyle" id="450521" style="fill:#f6f67b"/>
<path d="" class="polyStyle" id="450123" style="fill:#fbe6ef"/>
<path d="" class="polyStyle" id="350624" style="fill:#f6f67b"/>
<path d="" class="polyStyle" id="" style="fill:#fbe6ef"/>
<path d="" class="polyStyle" id="451224" style="fill:#fbe6ef"/>
<path d="" class="polyStyle" id="350627" style="fill:#f6f67b"/>
<path d="" class="polyStyle" id="" style="fill:#f6f67b"/>
<path d="" class="polyStyle" id="350525" style="fill:#f6f67b"/>
<path d="" class="polyStyle" id="530124" style="fill:#ee8b94"/>
<polygon points="3128,4823 3149,4841 3159,4866 3174,4867 3177,4851 3179,4837 3197,4836 3224,4848 3268,4866 3310,4872 3325,4885 3373,4915 3408,4916 3422,4932 3425,4958 3429,4987 3410,5006 3438,5025 3457,5055 3462,5100 3449,5127 3454,5147 3474,5152 3487,5125 3520,5105 3559,5098 3587,5090 3598,5075 3599,5050 3594,5036 3579,5045 3564,5061 3535,5068 3519,5045 3524,5026 3549,5013 3584,5006 3618,5006 3648,5020 3650,5033 3638,5050 3639,5063 3655,5081 3669,5075 3684,5076 3692,5090 3703,5110 3709,5128 3714,5138 3730,5133 3738,5132 3759,5121 3782,5117 3792,5105 3805,5091 3834,5091 3872,5092 3889,5085 3890,5062 3883,5046 3889,5027 3905,5010 3915,5006 3923,5004 3947,5030 3954,5065 3976,5098 3995,5127 3970,5156 3978,5188 3984,5214 3976,5240 3994,5269 3992,5305 3999,5331 3976,5357 3958,5391 3955,5425 3968,5450 3954,5477 3953,5508 3955,5511 3963,5542 3955,5573 3964,5598 3943,5626 3912,5632 3879,5606 3847,5578 3816,5564 3784,5574 3776,5600 3768,5636 3754,5673 3739,5704 3722,5732 3704,5760 3682,5789 3665,5818 3642,5846 3612,5863 3595,5892 3613,5923 3600,5949 3580,5977 3583,6013 3555,6044 3523,6072 3498,6097 3476,6131 3445,6144 3416,6130 3384,6121 3359,6131 3353,6157 3329,6192 3335,6223 3333,6253 3333,6285 3345,6316 3336,6346 3320,6378 3347,6396 3374,6412 3402,6429 3403,6472 3395,6498 3411,6530 3413,6557 3440,6576 3440,6603 3429,6630 3426,6660 3424,6697 3455,6709 3483,6703 3498,6736 3524,6749 3557,6743 3600,6761 3635,6758 3664,6745 3690,6744 3722,6757 3750,6766 3782,6774 3813,6779 3836,6783 3831,6795 3821,6811 3803,6827 3769,6837 3741,6859 3719,6867 3669,6873 3665,6875 3661,6877 3647,6903 3629,6923 3625,6931 3635,6957 3631,6973 3621,6991 3623,6999 3627,7011 3629,7015 3633,7019 3651,7029 3651,7057 3667,7067 3655,7113 3655,7119 3653,7125 3651,7133 3647,7143 3645,7155 3621,7171 3611,7187 3609,7205 3599,7217 3593,7221 3569,7227 3559,7245 3549,7255 3543,7267 3541,7275 3541,7289 3541,7295 3537,7301 3531,7309 3521,7317 3509,7325 3497,7331 3489,7337 3485,7345 3483,7353 3481,7359 3477,7369 3474,7378 3467,7385 3431,7413 3405,7415 3401,7423 3401,7455 3379,7481 3371,7483 3361,7481 3341,7463 3323,7437 3311,7405 3305,7395 3301,7395 3289,7395 3245,7435 3241,7439 3233,7441 3205,7455 3179,7475 3143,7481 3121,7507 3095,7535 3065,7555 3035,7581 3023,7589 3007,7613 3011,7627 3007,7643 2991,7651 2973,7661 2967,7675 2955,7687 2929,7713 2905,7731 2881,7729 2835,7761 2819,7773 2809,7801 2779,7809 2775,7817 2771,7849 2761,7877 2767,7899 2767,7907 2765,7939 2763,7945 2760,7948 2749,7949 2733,7941 2713,7943 2695,7965 2673,7989 2663,8001 2665,8017 2683,8065 2687,8075 2689,8079 2689,8087 2683,8115 2643,8147 2651,8169 2643,8189 2621,8211 2617,8243 2607,8277 2597,8299 2591,8313 2581,8331 2557,8353 2547,8387 2529,8407 2491,8399 2487,8407 2507,8429 2505,8437 2465,8461 2431,8473 2405,8477 2395,8469 2390,8468 2387,8467 2381,8464 2376,8467 2372,8478 2366,8483 2349,8486 2337,8483 2309,8471 2295,8473 2276,8474 2249,8477 2239,8483 2229,8499 2218,8505 2207,8503 2199,8497 2181,8491 2167,8481 2131,8463 2131,8445 2137,8403 2139,8395 2143,8387 2147,8383 2169,8375 2179,8377 2185,8375 2187,8369 2189,8357 2187,8349 2173,8345 2143,8334 2137,8315 2117,8319 2109,8301 2107,8287 2115,8275 2129,8269 2127,8253 2115,8255 2105,8255 2095,8243 2103,8239 2113,8235 2115,8223 2109,8211 2085,8201 2073,8191 2071,8187 2087,8147 2083,8133 2069,8139 2045,8157 2029,8147 2037,8123 1961,8097 1946,8086 1941,8075 1937,8065 1935,8053 1929,8039 1927,8021 1907,8021 1863,7997 1855,7991 1855,7973 1847,7967 1833,7971 1809,8007 1807,8029 1789,8029 1783,8037 1767,8053 1751,8069 1739,8085 1731,8101 1729,8113 1735,8129 1707,8179 1702,8218 1690,8222 1629,8225 1607,8217 1597,8211 1589,8201 1569,8181 1559,8161 1511,8127 1497,8123 1489,8123 1485,8129 1471,8141 1461,8155 1451,8167 1445,8177 1437,8191 1425,8211 1419,8213 1411,8215 1405,8211 1395,8199 1389,8191 1375,8173 1371,8161 1367,8151 1355,8123 1333,8127 1317,8123 1307,8103 1279,8101 1235,8105 1197,8119 1195,8115 1205,8097 1223,8073 1243,8051 1253,8035 1255,8025 1255,8013 1255,7983 1253,7971 1253,7959 1251,7947 1250,7931 1253,7926 1259,7906 1270,7881 1281,7852 1299,7835 1300,7832 1293,7826 1291,7821 1319,7780 1323,7771 1337,7749 1344,7736 1354,7714 1365,7693 1371,7674 1371,7669 1377,7664 1383,7666 1387,7670 1392,7674 1397,7671 1401,7661 1399,7656 1397,7653 1391,7649 1390,7645 1373,7619 1347,7567 1341,7553 1343,7547 1359,7507 1367,7485 1373,7469 1373,7465 1365,7461 1347,7455 1305,7451 1291,7455 1267,7477 1241,7485 1209,7483 1181,7457 1149,7451 1129,7457 1113,7493 1101,7499 1085,7497 1075,7497 1055,7497 1023,7483 1009,7439 995,7421 985,7409 975,7395 967,7391 959,7387 951,7385 945,7381 937,7381 931,7381 922,7381 917,7381 911,7381 905,7381 897,7387 879,7395 865,7403 857,7405 839,7405 809,7397 803,7395 801,7391 801,7379 801,7369 799,7365 795,7359 787,7345 773,7331 751,7313 735,7307 740,7287 759,7255 783,7220 799,7193 816,7163 844,7140 846,7113 830,7085 841,7053 859,7022 851,6996 844,6968 855,6968 892,6960 926,6968 955,6978 986,6996 1011,6971 1026,6945 1031,6905 1002,6884 998,6854 997,6837 1018,6829 1019,6812 1020,6788 1019,6757 1025,6740 1035,6725 1058,6727 1066,6709 1087,6679 1112,6651 1142,6640 1168,6643 1203,6620 1223,6593 1254,6594 1287,6572 1318,6548 1349,6552 1380,6540 1406,6512 1437,6510 1463,6518 1498,6550 1509,6576 1540,6580 1568,6581 1603,6579 1635,6579 1665,6585 1702,6588 1706,6559 1721,6525 1729,6500 1701,6468 1700,6435 1706,6393 1714,6354 1722,6323 1741,6293 1739,6266 1715,6239 1710,6209 1717,6183 1709,6155 1698,6126 1694,6088 1716,6061 1747,6031 1729,6006 1736,5969 1751,5943 1783,5916 1794,5889 1793,5858 1774,5826 1798,5787 1804,5762 1798,5732 1816,5694 1846,5696 1870,5666 1899,5682 1931,5691 1961,5701 1988,5727 2010,5755 2001,5780 2023,5806 2054,5802 2062,5777 2089,5769 2115,5753 2146,5735 2180,5719 2199,5744 2193,5776 2182,5812 2190,5839 2199,5870 2213,5903 2205,5931 2199,5965 2204,5996 2230,6019 2260,6024 2287,6027 2316,6025 2358,6019 2383,5989 2399,5953 2410,5925 2420,5897 2397,5871 2412,5845 2420,5812 2419,5786 2447,5762 2431,5731 2424,5705 2434,5677 2461,5653 2480,5622 2505,5589 2527,5549 2520,5521 2520,5491 2549,5473 2564,5447 2573,5421 2608,5394 2641,5379 2669,5356 2683,5318 2715,5298 2751,5271 2783,5268 2779,5240 2782,5212 2810,5197 2835,5175 2856,5147 2877,5122 2908,5085 2911,5056 2910,5028 2931,4996 2936,4964 2949,4935 2980,4908 3000,4877 3026,4844 3034,4817 3040,4808 3085,4812 " class="polyStyle" id="430529" style="fill:#fbe6ef"/>
<polygon points="5904,3738 5921,3727 5923,3733 5929,3745 5966,3766 5997,3780 6021,3770 6038,3781 6046,3808 6052,3835 6069,3846 6095,3855 6122,3872 6156,3872 6182,3902 6209,3906 6242,3891 6275,3901 6301,3926 6275,3946 6261,3973 6254,4001 6244,4030 6255,4055 6242,4081 6281,4098 6313,4108 6322,4136 6308,4161 6269,4172 6241,4181 6219,4211 6232,4236 6261,4245 6287,4250 6321,4235 6348,4238 6378,4229 6412,4261 6439,4268 6445,4299 6474,4318 6502,4322 6522,4351 6548,4359 6556,4330 6589,4307 6620,4311 6648,4312 6672,4340 6701,4348 6731,4357 6766,4365 6797,4360 6829,4373 6854,4386 6890,4391 6911,4416 6894,4445 6884,4478 6898,4508 6923,4521 6929,4553 6934,4589 6939,4615 6950,4648 6953,4675 6948,4709 6949,4740 6984,4749 7011,4745 7038,4742 7069,4748 7104,4739 7130,4724 7142,4730 7149,4756 7183,4758 7190,4750 7197,4742 7230,4740 7235,4753 7227,4802 7231,4830 7253,4861 7263,4867 7261,4875 7284,4905 7302,4933 7329,4937 7355,4951 7368,4977 7377,5003 7378,5031 7387,5061 7388,5092 7413,5105 7445,5126 7453,5156 7448,5183 7416,5203 7408,5236 7403,5274 7403,5311 7406,5341 7409,5367 7398,5403 7372,5418 7372,5448 7358,5477 7330,5499 7327,5537 7335,5563 7340,5592 7343,5617 7349,5647 7362,5681 7364,5716 7367,5754 7349,5784 7331,5814 7324,5849 7294,5863 7266,5856 7248,5828 7222,5814 7203,5840 7187,5877 7170,5906 7144,5893 7115,5896 7081,5902 7047,5897 7014,5924 6987,5945 6959,5958 6932,5979 6904,5994 6888,6026 6858,6014 6825,6010 6791,5987 6793,5955 6760,5938 6733,5946 6706,5921 6677,5912 6656,5885 6672,5852 6664,5823 6674,5798 6699,5789 6713,5757 6687,5738 6663,5711 6653,5680 6629,5647 6599,5614 6570,5590 6542,5566 6517,5549 6515,5517 6518,5485 6525,5423 6541,5395 6548,5369 6550,5335 6549,5308 6567,5277 6559,5244 6552,5218 6527,5199 6501,5199 6465,5214 6431,5222 6441,5249 6449,5279 6444,5308 6429,5344 6417,5377 6388,5382 6360,5378 6318,5367 6286,5378 6257,5372 6231,5388 6219,5419 6224,5446 6213,5473 6203,5510 6204,5546 6210,5583 6215,5612 6214,5646 6201,5673 6213,5700 6214,5733 6218,5765 6202,5797 6195,5827 6189,5855 6165,5882 6184,5912 6184,5944 6170,5973 6152,6014 6125,6038 6100,6058 6101,6085 6097,6115 6068,6136 6031,6160 6029,6188 6012,6214 6004,6247 5998,6276 5978,6311 5975,6339 5989,6370 6009,6396 5977,6432 5973,6466 5944,6497 5919,6520 5911,6513 5863,6505 5849,6501 5833,6497 5827,6487 5819,6479 5811,6467 5795,6455 5795,6451 5803,6433 5804,6426 5783,6411 5771,6401 5761,6389 5755,6385 5747,6385 5721,6399 5683,6399 5625,6431 5613,6439 5609,6446 5609,6455 5621,6475 5627,6491 5631,6519 5621,6525 5601,6553 5621,6565 5613,6637 5613,6661 5611,6665 5603,6679 5597,6687 5589,6691 5581,6695 5567,6699 5527,6705 5515,6711 5511,6719 5515,6727 5531,6741 5537,6749 5563,6785 5565,6813 5559,6839 5561,6845 5567,6851 5576,6858 5579,6865 5579,6873 5577,6889 5573,6899 5569,6905 5563,6919 5537,6979 5535,6993 5535,7017 5527,7037 5522,7044 5515,7047 5501,7043 5495,7041 5490,7036 5489,7027 5491,7021 5505,7007 5485,6979 5471,6957 5465,6937 5459,6935 5449,6935 5435,6933 5427,6933 5419,6931 5383,6933 5359,6921 5347,6943 5291,6949 5247,6961 5213,6953 5193,6955 5179,6961 5169,6969 5155,6979 5143,6991 5123,7005 5089,7031 5069,7037 5023,7035 4993,7013 4969,7013 4935,7025 4925,7021 4915,7017 4909,7013 4907,7009 4893,6995 4891,6983 4891,6969 4877,6965 4865,6967 4869,6979 4865,6989 4843,7013 4831,7013 4827,6995 4817,6983 4805,6991 4799,6997 4799,7019 4795,7037 4779,7043 4761,7041 4773,7003 4755,7011 4743,7023 4725,7053 4703,7079 4683,7083 4677,7067 4679,7029 4653,7027 4635,7019 4627,6995 4597,6995 4583,6977 4573,6960 4573,6953 4573,6947 4591,6931 4599,6913 4633,6855 4637,6817 4641,6807 4657,6799 4661,6787 4627,6769 4619,6757 4620,6728 4599,6717 4584,6715 4575,6729 4569,6741 4559,6765 4515,6767 4513,6773 4539,6813 4533,6823 4529,6827 4523,6833 4515,6835 4511,6835 4475,6837 4447,6831 4423,6819 4419,6797 4409,6773 4385,6769 4361,6761 4323,6739 4295,6725 4289,6725 4283,6723 4257,6717 4249,6717 4239,6715 4225,6715 4219,6719 4207,6729 4189,6751 4185,6751 4181,6753 4173,6755 4161,6759 4151,6763 4145,6765 4141,6767 4133,6769 4125,6771 4109,6773 4101,6771 4097,6763 4081,6741 4063,6729 4047,6721 4029,6715 3997,6705 3995,6695 3999,6675 4003,6659 4005,6651 4005,6641 4003,6633 3997,6629 3991,6627 3984,6627 3975,6633 3965,6639 3941,6667 3927,6677 3907,6685 3903,6689 3901,6693 3899,6699 3897,6703 3895,6707 3893,6713 3891,6723 3881,6739 3867,6751 3841,6771 3836,6783 3813,6779 3782,6774 3750,6766 3722,6757 3690,6744 3664,6745 3635,6758 3600,6761 3557,6743 3524,6749 3498,6736 3483,6703 3455,6709 3424,6697 3426,6660 3429,6630 3440,6603 3440,6576 3413,6557 3411,6530 3395,6498 3403,6472 3402,6429 3374,6412 3347,6396 3320,6378 3336,6346 3345,6316 3333,6285 3333,6253 3335,6223 3329,6192 3353,6157 3359,6131 3384,6121 3416,6130 3445,6144 3476,6131 3498,6097 3523,6072 3555,6044 3583,6013 3580,5977 3600,5949 3613,5923 3595,5892 3612,5863 3642,5846 3665,5818 3682,5789 3704,5760 3722,5732 3739,5704 3754,5673 3768,5636 3776,5600 3784,5574 3816,5564 3847,5578 3879,5606 3912,5632 3943,5626 3964,5598 3955,5573 3963,5542 3955,5511 3985,5517 4017,5528 4056,5531 4088,5502 4122,5492 4147,5507 4180,5526 4210,5539 4237,5521 4268,5514 4296,5499 4329,5497 4358,5506 4374,5523 4383,5538 4390,5572 4400,5590 4420,5592 4434,5588 4439,5576 4438,5557 4428,5547 4419,5540 4425,5526 4434,5523 4448,5516 4449,5505 4454,5483 4463,5470 4488,5471 4520,5481 4546,5487 4574,5478 4607,5475 4636,5478 4639,5502 4650,5505 4689,5508 4707,5484 4730,5474 4752,5465 4765,5454 4759,5444 4742,5429 4739,5415 4754,5409 4774,5406 4781,5387 4809,5379 4822,5382 4834,5396 4854,5412 4854,5431 4875,5440 4897,5438 4906,5457 4938,5432 4966,5421 4993,5409 4976,5382 4973,5345 4966,5318 4962,5278 4964,5249 4953,5223 4962,5192 4960,5164 4977,5133 4992,5104 4979,5064 4959,5035 4959,5009 4968,4989 4972,4972 4997,4948 5026,4935 5045,4922 5069,4907 5090,4893 5108,4899 5113,4933 5110,4972 5130,4987 5148,4987 5185,4974 5193,4935 5207,4908 5224,4877 5221,4845 5225,4819 5226,4816 5228,4804 5241,4786 5256,4768 5251,4756 5236,4742 5232,4714 5226,4698 5211,4704 5195,4706 5176,4706 5156,4706 5131,4690 5123,4659 5141,4621 5170,4615 5204,4614 5237,4608 5264,4602 5296,4586 5321,4575 5351,4578 5359,4624 5372,4635 5388,4639 5421,4625 5451,4601 5480,4578 5493,4562 5504,4556 5522,4560 5546,4565 5559,4558 5563,4532 5571,4508 5570,4488 5581,4473 5599,4477 5623,4479 5630,4465 5631,4452 5600,4423 5610,4397 5591,4364 5603,4330 5599,4305 5572,4287 5577,4258 5548,4246 5564,4218 5575,4190 5581,4165 5549,4161 5532,4156 5529,4135 5537,4111 5544,4097 5540,4060 5559,4050 5605,4041 5612,4071 5626,4092 5647,4107 5659,4108 5674,4097 5686,4084 5699,4078 5716,4084 5730,4101 5761,4105 5800,4073 5807,4047 5799,4011 5788,3984 5788,3951 5801,3919 5797,3887 5800,3854 5799,3822 5817,3801 5822,3787 5808,3756 5821,3734 5829,3726 5848,3712 5867,3709 5882,3738 " class="polyStyle" id="430528" style="fill:#ee8b94"/>
<polygon points="2800,2621 2809,2638 2824,2652 2878,2693 2907,2717 2908,2743 2903,2768 2888,2795 2856,2836 2813,2859 2784,2873 2756,2876 2722,2859 2681,2876 2685,2906 2719,2885 2753,2883 2761,2910 2734,2921 2734,2959 2764,2982 2790,3004 2794,3035 2795,3077 2790,3110 2817,3100 2845,3114 2874,3130 2904,3117 2930,3095 2965,3087 2975,3087 3000,3092 3030,3098 3046,3104 3071,3104 3075,3128 3074,3155 3071,3190 3063,3200 3046,3193 3034,3190 3026,3208 3024,3227 3006,3229 2995,3222 2986,3223 2988,3235 3006,3247 3025,3253 3053,3285 3083,3340 3090,3370 3094,3388 3110,3393 3123,3404 3134,3413 3160,3415 3169,3430 3161,3447 3158,3472 3160,3499 3194,3527 3219,3528 3230,3537 3230,3558 3244,3567 3265,3564 3288,3568 3300,3588 3315,3598 3318,3612 3305,3637 3286,3664 3286,3684 3320,3719 3350,3742 3370,3735 3376,3719 3373,3680 3381,3672 3394,3672 3398,3684 3400,3705 3405,3727 3416,3750 3435,3760 3446,3773 3449,3787 3449,3793 3474,3810 3504,3841 3516,3866 3519,3893 3486,3924 3468,3955 3458,3981 3483,3990 3508,3987 3537,3987 3565,4010 3587,4030 3578,4069 3572,4110 3557,4150 3542,4176 3532,4209 3511,4245 3479,4283 3452,4314 3428,4349 3405,4391 3378,4437 3363,4465 3344,4495 3329,4525 3300,4569 3267,4598 3226,4629 3189,4659 3146,4699 3113,4728 3081,4759 3067,4776 3040,4808 3034,4817 3026,4844 3000,4877 2980,4908 2949,4935 2936,4964 2931,4996 2910,5028 2911,5056 2908,5085 2877,5122 2856,5147 2835,5175 2810,5197 2782,5212 2779,5240 2783,5268 2751,5271 2715,5298 2683,5318 2669,5356 2641,5379 2608,5394 2573,5421 2564,5447 2549,5473 2520,5491 2520,5521 2527,5549 2505,5589 2480,5622 2461,5653 2434,5677 2424,5705 2431,5731 2447,5762 2419,5786 2420,5812 2412,5845 2397,5871 2420,5897 2410,5925 2399,5953 2383,5989 2358,6019 2316,6025 2287,6027 2260,6024 2230,6019 2204,5996 2199,5965 2205,5931 2213,5903 2199,5870 2190,5839 2182,5812 2193,5776 2199,5744 2180,5719 2146,5735 2115,5753 2089,5769 2062,5777 2054,5802 2023,5806 2001,5780 2010,5755 1988,5727 1961,5701 1931,5691 1899,5682 1870,5666 1846,5696 1816,5694 1798,5732 1804,5762 1798,5787 1774,5826 1793,5858 1794,5889 1783,5916 1751,5943 1736,5969 1729,6006 1747,6031 1716,6061 1694,6088 1698,6126 1709,6155 1717,6183 1710,6209 1715,6239 1739,6266 1741,6293 1722,6323 1714,6354 1706,6393 1700,6435 1701,6468 1729,6500 1721,6525 1706,6559 1702,6588 1665,6585 1635,6579 1603,6579 1568,6581 1540,6580 1509,6576 1498,6550 1463,6518 1437,6510 1406,6512 1380,6540 1349,6552 1318,6548 1287,6572 1254,6594 1223,6593 1203,6620 1168,6643 1142,6640 1112,6651 1087,6679 1066,6709 1058,6727 1035,6725 1025,6740 1019,6757 1020,6788 1019,6812 1018,6829 997,6837 998,6854 1002,6884 1031,6905 1026,6945 1011,6971 986,6996 955,6978 926,6968 892,6960 855,6968 844,6968 831,6942 807,6915 830,6885 853,6852 878,6823 909,6807 935,6788 936,6761 937,6731 930,6704 928,6674 945,6641 962,6611 977,6581 975,6552 967,6523 955,6494 940,6462 929,6436 895,6414 870,6404 839,6406 803,6385 780,6356 771,6326 775,6297 787,6265 783,6237 804,6212 826,6185 817,6159 791,6176 765,6169 736,6161 703,6159 668,6142 661,6113 667,6085 671,6059 659,6031 633,6040 607,6035 578,6018 549,5998 556,5970 568,5941 561,5910 534,5895 502,5896 474,5925 448,5956 419,5969 393,5990 366,6001 339,5987 308,5959 282,5968 251,5985 222,5985 189,5971 187,5960 198,5930 202,5903 207,5866 221,5834 253,5826 281,5809 282,5780 304,5753 284,5724 292,5697 308,5670 324,5681 364,5674 361,5649 341,5639 311,5634 279,5611 239,5601 214,5551 214,5496 242,5472 240,5445 210,5415 181,5396 154,5404 160,5375 145,5347 120,5321 85,5310 57,5283 51,5254 25,5269 0,5252 10,5221 39,5226 40,5198 69,5182 98,5188 125,5189 157,5167 172,5138 178,5111 183,5085 214,5079 243,5056 275,5042 306,5030 332,5030 360,5039 389,5016 397,4987 393,4962 406,4930 434,4902 460,4897 467,4923 493,4956 526,4946 541,4916 569,4906 602,4908 631,4913 625,4885 631,4856 634,4851 665,4831 695,4839 726,4852 754,4872 779,4892 809,4908 843,4906 870,4926 878,4959 905,4988 933,4986 960,4995 988,4982 1011,4952 1039,4925 1069,4901 1082,4874 1091,4844 1117,4823 1146,4828 1177,4829 1204,4835 1233,4815 1244,4807 1245,4801 1247,4793 1248,4783 1247,4772 1245,4766 1242,4761 1235,4757 1228,4750 1225,4740 1223,4730 1221,4719 1218,4711 1215,4710 1212,4709 1207,4716 1205,4720 1201,4724 1197,4725 1188,4723 1184,4721 1170,4715 1160,4711 1156,4709 1148,4699 1140,4693 1132,4690 1125,4688 1125,4671 1130,4644 1157,4621 1156,4595 1139,4567 1170,4574 1200,4564 1203,4533 1198,4503 1225,4513 1225,4484 1203,4456 1212,4423 1225,4393 1209,4366 1191,4338 1188,4306 1174,4281 1165,4249 1173,4220 1156,4194 1128,4186 1107,4159 1096,4128 1113,4101 1141,4068 1147,4033 1154,4002 1158,3973 1157,3945 1164,3915 1191,3906 1219,3907 1239,3879 1268,3873 1296,3890 1324,3892 1335,3866 1362,3841 1390,3827 1413,3799 1387,3785 1353,3765 1349,3738 1338,3712 1309,3683 1281,3656 1285,3624 1305,3593 1336,3582 1358,3556 1385,3568 1417,3561 1424,3528 1436,3498 1449,3472 1465,3442 1483,3411 1512,3387 1538,3381 1569,3378 1598,3372 1619,3354 1644,3389 1684,3403 1717,3406 1748,3417 1777,3439 1813,3464 1841,3460 1871,3450 1896,3441 1928,3424 1955,3426 1981,3419 2002,3449 2006,3476 2008,3502 2036,3509 2057,3527 2080,3526 2110,3531 2140,3529 2161,3518 2178,3511 2185,3515 2192,3526 2205,3531 2221,3526 2238,3500 2244,3482 2247,3466 2256,3457 2273,3454 2290,3452 2308,3443 2323,3431 2353,3419 2363,3409 2357,3402 2342,3397 2326,3401 2318,3411 2302,3426 2295,3431 2279,3440 2269,3443 2260,3441 2250,3429 2255,3416 2271,3404 2279,3384 2282,3372 2288,3359 2314,3328 2314,3324 2344,3297 2343,3265 2326,3218 2330,3186 2348,3159 2380,3146 2420,3129 2439,3110 2454,3094 2456,3079 2451,3067 2436,3058 2430,3043 2435,3029 2449,3003 2454,2980 2450,2957 2441,2937 2431,2912 2426,2883 2435,2853 2441,2830 2437,2817 2432,2792 2461,2729 2495,2718 2519,2720 2567,2736 2607,2723 2648,2696 2672,2691 2689,2680 2698,2658 2695,2644 2704,2629 2739,2619 2750,2609 2752,2588 2772,2583 2788,2600 " class="polyStyle" id="430527" style="fill:#ee8b94"/>
<path d="" class="polyStyle" id="522627" style="fill:#ee8b94"/>
<path d="" class="polyStyle" id="510421" style="fill:#fbe6ef"/>
<polygon points="7131,1996 7164,1988 7197,1992 7229,1983 7245,2010 7270,2036 7267,2062 7299,2079 7327,2067 7357,2059 7376,2086 7403,2096 7438,2073 7462,2047 7491,2041 7516,2048 7547,2047 7577,2042 7610,2040 7634,2039 7669,2023 7682,2035 7693,2036 7698,2048 7692,2054 7677,2054 7676,2063 7682,2074 7686,2075 7693,2096 7704,2123 7706,2149 7703,2175 7670,2193 7653,2225 7664,2257 7659,2287 7648,2314 7674,2321 7699,2317 7725,2328 7753,2307 7761,2333 7788,2345 7778,2372 7781,2403 7789,2430 7795,2455 7809,2482 7819,2508 7847,2499 7872,2524 7897,2555 7904,2585 7876,2616 7906,2627 7937,2629 7964,2654 7990,2677 7991,2704 7975,2733 7972,2762 7977,2789 7965,2817 7932,2837 7928,2864 7943,2891 7969,2904 7988,2930 8014,2943 8018,2915 8047,2897 8079,2881 8108,2879 8138,2872 8169,2847 8210,2825 8207,2797 8232,2795 8250,2821 8282,2830 8313,2811 8330,2779 8337,2750 8327,2720 8317,2683 8312,2653 8301,2627 8328,2611 8335,2610 8347,2610 8354,2609 8361,2602 8364,2592 8383,2588 8402,2587 8413,2583 8429,2579 8445,2581 8457,2581 8462,2589 8461,2593 8463,2625 8479,2652 8515,2667 8546,2683 8568,2714 8587,2744 8596,2771 8590,2804 8570,2833 8590,2858 8618,2869 8653,2867 8678,2859 8694,2833 8725,2823 8751,2807 8779,2811 8805,2803 8831,2782 8861,2815 8890,2833 8919,2855 8905,2881 8891,2919 8886,2952 8905,2977 8932,2973 8966,2952 8976,2932 8994,2927 8999,2881 9017,2884 9050,2882 9063,2915 9072,2921 9086,2916 9096,2901 9110,2890 9118,2903 9124,2902 9146,2904 9155,2913 9175,2918 9183,2931 9195,2961 9210,2988 9231,2982 9246,2987 9241,3002 9234,3019 9226,3059 9205,3075 9217,3094 9224,3119 9218,3138 9205,3142 9196,3172 9179,3205 9170,3233 9157,3268 9144,3295 9152,3328 9146,3355 9160,3391 9152,3427 9123,3462 9132,3490 9102,3488 9066,3488 9041,3513 9013,3533 8981,3535 8950,3511 8921,3515 8892,3514 8857,3502 8836,3475 8805,3489 8783,3526 8775,3558 8760,3587 8733,3612 8727,3640 8747,3666 8774,3675 8801,3690 8782,3727 8792,3757 8813,3790 8823,3819 8812,3845 8780,3867 8774,3898 8744,3887 8715,3900 8710,3931 8704,3961 8676,3983 8645,3993 8634,4021 8642,4051 8630,4083 8602,4104 8599,4105 8579,4089 8550,4064 8545,4032 8538,4005 8510,3983 8476,3984 8449,3995 8415,4016 8382,4009 8347,4009 8319,4018 8284,4024 8257,4018 8228,4003 8191,4007 8173,3976 8134,3975 8108,3974 8078,3994 8053,4002 8027,3972 8001,3973 7966,3986 7947,4017 7911,4021 7886,4009 7850,3997 7823,4002 7797,4003 7767,4016 7738,4015 7706,3984 7676,3995 7639,4003 7632,4031 7628,4057 7600,4080 7571,4099 7540,4119 7522,4148 7509,4181 7489,4214 7496,4241 7477,4268 7457,4296 7476,4322 7494,4349 7500,4377 7488,4404 7503,4435 7529,4450 7516,4477 7524,4510 7523,4540 7517,4571 7505,4600 7482,4628 7468,4654 7465,4689 7492,4715 7484,4745 7455,4758 7420,4763 7408,4788 7384,4817 7349,4832 7317,4846 7289,4858 7263,4867 7253,4861 7231,4830 7227,4802 7235,4753 7230,4740 7197,4742 7190,4750 7183,4758 7149,4756 7142,4730 7130,4724 7104,4739 7069,4748 7038,4742 7011,4745 6984,4749 6949,4740 6948,4709 6953,4675 6950,4648 6939,4615 6934,4589 6929,4553 6923,4521 6898,4508 6884,4478 6894,4445 6911,4416 6890,4391 6854,4386 6829,4373 6797,4360 6766,4365 6731,4357 6701,4348 6672,4340 6648,4312 6620,4311 6589,4307 6556,4330 6548,4359 6522,4351 6502,4322 6474,4318 6445,4299 6439,4268 6412,4261 6378,4229 6348,4238 6321,4235 6287,4250 6261,4245 6232,4236 6219,4211 6241,4181 6269,4172 6308,4161 6322,4136 6313,4108 6281,4098 6242,4081 6255,4055 6244,4030 6254,4001 6261,3973 6275,3946 6301,3926 6275,3901 6242,3891 6209,3906 6182,3902 6156,3872 6122,3872 6095,3855 6069,3846 6052,3835 6046,3808 6038,3781 6021,3770 5997,3780 5966,3766 5929,3745 5923,3733 5921,3727 5911,3701 5904,3675 5912,3651 5941,3663 5968,3674 5997,3672 6029,3665 6043,3637 6033,3607 6033,3581 6061,3571 6064,3542 6046,3512 6042,3480 6041,3452 6033,3425 6023,3400 6016,3372 6001,3340 5989,3341 6000,3318 6030,3300 6085,3290 6142,3253 6172,3221 6188,3198 6208,3195 6233,3176 6240,3154 6249,3145 6253,3124 6254,3103 6260,3080 6274,3071 6289,3070 6303,3079 6316,3106 6330,3149 6344,3180 6365,3180 6385,3171 6403,3160 6415,3160 6449,3185 6475,3211 6495,3221 6516,3239 6536,3270 6546,3283 6563,3293 6574,3294 6579,3286 6573,3271 6575,3254 6579,3226 6580,3210 6545,3189 6528,3168 6529,3164 6520,3157 6513,3141 6523,3130 6557,3124 6563,3098 6552,3066 6578,3037 6585,3018 6597,3005 6610,3001 6621,3019 6641,3022 6667,3003 6682,2991 6697,2994 6726,2994 6746,2971 6766,2970 6789,2981 6820,2971 6839,2973 6857,2976 6877,2975 6906,2975 6922,2963 6935,2961 6955,2930 6962,2899 6955,2871 6952,2843 6974,2814 6977,2789 6972,2771 6959,2763 6941,2726 6943,2693 6972,2666 6998,2654 7030,2640 7055,2608 7059,2581 7062,2585 7065,2550 7057,2528 7050,2508 7035,2488 7014,2493 6995,2487 6995,2463 7012,2453 7027,2435 7023,2418 7002,2415 6999,2398 7004,2378 6993,2368 6993,2358 6999,2345 7004,2328 7013,2315 7023,2320 7034,2337 7057,2338 7058,2318 7033,2299 7025,2285 7029,2260 7038,2253 7040,2227 7038,2197 7022,2189 7015,2154 6993,2123 6982,2095 6971,2067 6992,2055 7010,2049 7020,2028 7036,2003 7043,1988 7065,1998 7095,1973 7126,1992 " class="polyStyle" id="430523" style="fill:#f6f67b"/>
<path d="" class="polyStyle" id="522623" style="fill:#d4ecb2"/>
<polygon points="4290,1494 4283,1527 4281,1555 4291,1582 4320,1590 4354,1593 4383,1598 4409,1598 4414,1633 4444,1639 4472,1624 4502,1632 4534,1633 4562,1634 4572,1608 4625,1596 4659,1581 4693,1545 4720,1524 4749,1507 4780,1535 4808,1545 4798,1582 4804,1615 4809,1649 4797,1680 4806,1710 4826,1748 4810,1785 4795,1826 4781,1863 4780,1903 4790,1929 4821,1936 4848,1947 4868,1976 4879,2006 4874,2040 4864,2075 4875,2111 4892,2138 4905,2186 4929,2213 4971,2245 4992,2283 4989,2314 5028,2312 5024,2344 5023,2374 5018,2399 4973,2415 4946,2422 4914,2408 4883,2392 4851,2402 4819,2424 4786,2436 4774,2468 4776,2497 4777,2523 4775,2552 4811,2545 4846,2554 4874,2560 4905,2573 4930,2591 4943,2623 4962,2655 4957,2681 4957,2707 5003,2706 5040,2706 5068,2699 5105,2682 5126,2712 5157,2718 5176,2755 5204,2786 5210,2825 5220,2844 5225,2867 5223,2896 5229,2909 5236,2897 5244,2892 5293,2896 5321,2928 5347,2930 5351,2955 5322,2965 5320,2987 5317,3017 5330,3034 5350,3038 5350,3061 5377,3075 5402,3096 5428,3121 5476,3122 5503,3124 5514,3143 5516,3161 5514,3176 5505,3178 5485,3183 5469,3200 5481,3223 5508,3230 5519,3265 5533,3308 5545,3330 5551,3349 5556,3383 5563,3416 5580,3449 5605,3473 5640,3484 5663,3491 5674,3492 5688,3501 5696,3534 5643,3549 5638,3581 5604,3607 5575,3620 5545,3618 5520,3627 5489,3620 5460,3612 5435,3621 5428,3654 5431,3688 5435,3713 5431,3742 5400,3749 5371,3750 5342,3754 5312,3752 5281,3732 5252,3705 5247,3676 5272,3672 5272,3659 5277,3638 5277,3619 5258,3608 5232,3616 5187,3603 5162,3584 5152,3560 5140,3533 5119,3513 5098,3506 5092,3514 5089,3526 5075,3533 5063,3521 5044,3508 5027,3503 5002,3496 4982,3500 4965,3506 4939,3505 4914,3503 4895,3494 4899,3474 4890,3461 4879,3465 4858,3470 4834,3481 4802,3499 4788,3514 4789,3529 4795,3541 4790,3550 4769,3563 4743,3566 4715,3560 4702,3592 4671,3612 4645,3626 4645,3659 4646,3691 4619,3696 4591,3694 4596,3722 4594,3748 4565,3740 4537,3751 4509,3752 4483,3759 4452,3770 4426,3772 4405,3772 4386,3771 4374,3768 4368,3780 4375,3806 4380,3836 4378,3867 4361,3899 4329,3895 4296,3872 4267,3872 4241,3849 4223,3821 4186,3801 4152,3803 4140,3775 4114,3769 4093,3765 4084,3771 4054,3771 4053,3727 4043,3720 4033,3722 4027,3741 4014,3743 3981,3759 3951,3773 3917,3764 3886,3779 3891,3812 3880,3839 3846,3855 3814,3865 3779,3858 3744,3868 3712,3882 3683,3870 3658,3895 3647,3928 3619,3951 3609,3977 3602,3997 3587,4030 3565,4010 3537,3987 3508,3987 3483,3990 3458,3981 3468,3955 3486,3924 3519,3893 3516,3866 3504,3841 3474,3810 3449,3793 3449,3787 3446,3773 3435,3760 3416,3750 3405,3727 3400,3705 3398,3684 3394,3672 3381,3672 3373,3680 3376,3719 3370,3735 3350,3742 3320,3719 3286,3684 3286,3664 3305,3637 3318,3612 3315,3598 3300,3588 3288,3568 3265,3564 3244,3567 3230,3558 3230,3537 3219,3528 3194,3527 3160,3499 3158,3472 3161,3447 3169,3430 3160,3415 3134,3413 3123,3404 3110,3393 3094,3388 3090,3370 3083,3340 3053,3285 3025,3253 3006,3247 2988,3235 2986,3223 2995,3222 3006,3229 3024,3227 3026,3208 3034,3190 3046,3193 3063,3200 3071,3190 3074,3155 3075,3128 3071,3104 3046,3104 3030,3098 3000,3092 2975,3087 2965,3087 2930,3095 2904,3117 2874,3130 2845,3114 2817,3100 2790,3110 2795,3077 2794,3035 2790,3004 2764,2982 2734,2959 2734,2921 2761,2910 2753,2883 2719,2885 2685,2906 2681,2876 2722,2859 2756,2876 2784,2873 2813,2859 2856,2836 2888,2795 2903,2768 2908,2743 2907,2717 2878,2693 2824,2652 2809,2638 2800,2621 2788,2600 2772,2583 2752,2588 2750,2609 2739,2619 2704,2629 2695,2644 2698,2658 2689,2680 2672,2691 2648,2696 2607,2723 2567,2736 2519,2720 2495,2718 2461,2729 2432,2792 2437,2817 2441,2830 2435,2853 2426,2883 2431,2912 2441,2937 2450,2957 2454,2980 2449,3003 2435,3029 2430,3043 2436,3058 2451,3067 2456,3079 2454,3094 2439,3110 2420,3129 2380,3146 2348,3159 2330,3186 2326,3218 2343,3265 2344,3297 2314,3324 2314,3328 2288,3359 2282,3372 2279,3384 2271,3404 2255,3416 2250,3429 2260,3441 2269,3443 2279,3440 2295,3431 2302,3426 2318,3411 2326,3401 2342,3397 2357,3402 2363,3409 2353,3419 2323,3431 2308,3443 2290,3452 2273,3454 2256,3457 2247,3466 2244,3482 2238,3500 2221,3526 2205,3531 2192,3526 2185,3515 2178,3511 2161,3518 2140,3529 2110,3531 2080,3526 2057,3527 2036,3509 2008,3502 2006,3476 2002,3449 1981,3419 1955,3426 1928,3424 1896,3441 1871,3450 1841,3460 1813,3464 1777,3439 1748,3417 1717,3406 1684,3403 1644,3389 1619,3354 1649,3328 1653,3298 1654,3264 1640,3231 1636,3197 1644,3158 1659,3124 1669,3093 1688,3063 1717,3033 1747,3041 1778,3039 1807,3019 1838,3028 1873,3024 1906,2993 1905,2964 1920,2934 1928,2907 1941,2881 1928,2844 1902,2834 1885,2808 1881,2774 1857,2743 1877,2714 1906,2701 1956,2689 1989,2670 2022,2664 2056,2637 2078,2609 2106,2578 2145,2561 2172,2552 2201,2548 2234,2541 2268,2529 2317,2509 2351,2500 2385,2496 2418,2478 2440,2505 2448,2521 2541,2518 2535,2551 2548,2574 2581,2569 2611,2549 2627,2514 2642,2481 2658,2451 2667,2419 2666,2389 2644,2332 2651,2299 2682,2263 2712,2253 2738,2240 2752,2213 2786,2198 2817,2216 2852,2242 2881,2263 2921,2279 2952,2296 2985,2311 3022,2295 3056,2304 3086,2294 3120,2282 3153,2267 3167,2239 3192,2211 3167,2196 3164,2164 3174,2138 3193,2102 3189,2066 3212,2034 3244,2024 3276,2007 3303,2004 3329,1993 3362,1969 3393,1978 3421,1952 3456,1928 3482,1918 3512,1882 3528,1852 3544,1826 3548,1820 3555,1817 3592,1798 3620,1775 3648,1747 3674,1764 3683,1804 3707,1845 3742,1841 3763,1867 3778,1898 3812,1919 3850,1909 3888,1900 3913,1886 3936,1853 3934,1821 3928,1788 3938,1758 3919,1724 3940,1696 3968,1683 3998,1659 4021,1628 4056,1606 4084,1569 4106,1540 4141,1509 4170,1480 4198,1473 4227,1464 4262,1483 " class="polyStyle" id="430525" style="fill:#f6f67b"/>
<polygon points="10216,1044 10234,1060 10266,1088 10292,1098 10322,1132 10345,1163 10355,1188 10365,1216 10387,1247 10414,1262 10426,1291 10405,1318 10415,1345 10448,1356 10474,1374 10501,1405 10515,1431 10551,1458 10586,1473 10613,1493 10641,1496 10670,1499 10702,1512 10729,1517 10751,1543 10769,1568 10802,1586 10836,1593 10826,1628 10816,1661 10855,1701 10888,1720 10915,1726 10944,1726 10976,1723 10989,1755 10990,1783 10998,1810 11026,1833 11052,1829 11074,1855 11113,1854 11144,1851 11174,1867 11200,1886 11197,1915 11198,1941 11201,1969 11207,2002 11209,2032 11215,2059 11218,2084 11208,2113 11188,2139 11201,2166 11224,2192 11224,2218 11252,2242 11259,2271 11289,2285 11314,2285 11332,2282 11324,2310 11330,2336 11305,2351 11330,2375 11299,2383 11267,2383 11241,2382 11208,2387 11186,2413 11161,2447 11147,2477 11137,2506 11130,2537 11118,2564 11138,2596 11128,2628 11117,2658 11121,2691 11136,2717 11158,2743 11141,2771 11129,2798 11131,2826 11143,2853 11157,2884 11141,2909 11099,2925 11112,2945 11154,2955 11176,2967 11210,2986 11244,3000 11257,3033 11258,3061 11264,3092 11282,3123 11301,3159 11304,3185 11321,3219 11291,3241 11254,3250 11219,3255 11187,3247 11159,3236 11144,3263 11123,3297 11103,3325 11096,3327 11079,3341 11116,3373 11119,3406 11107,3443 11076,3468 11050,3472 11032,3501 11006,3483 10980,3493 10976,3521 10948,3553 10919,3559 10889,3589 10884,3592 10834,3604 10800,3608 10789,3579 10813,3552 10800,3519 10768,3515 10734,3539 10707,3555 10678,3553 10643,3526 10616,3539 10589,3540 10562,3552 10543,3580 10534,3607 10529,3637 10495,3627 10461,3639 10431,3672 10402,3692 10374,3676 10377,3641 10374,3613 10372,3578 10371,3547 10377,3519 10377,3485 10368,3458 10353,3418 10373,3385 10357,3359 10321,3327 10313,3314 10297,3281 10269,3252 10240,3235 10213,3242 10187,3258 10160,3252 10126,3249 10097,3263 10069,3251 10043,3240 10016,3216 9984,3195 9975,3165 9998,3139 9982,3110 9955,3086 9927,3110 9905,3137 9878,3125 9847,3122 9821,3105 9794,3091 9764,3081 9749,3053 9739,3023 9710,3016 9685,3020 9655,3000 9619,3001 9589,2997 9555,2985 9523,2972 9492,2957 9485,2986 9470,3014 9443,3041 9417,3056 9385,3074 9364,3103 9334,3126 9306,3147 9275,3140 9248,3139 9218,3138 9224,3119 9217,3094 9205,3075 9226,3059 9234,3019 9241,3002 9246,2987 9231,2982 9210,2988 9195,2961 9183,2931 9175,2918 9155,2913 9146,2904 9124,2902 9118,2903 9110,2890 9096,2901 9086,2916 9072,2921 9063,2915 9050,2882 9017,2884 8999,2881 8994,2927 8976,2932 8966,2952 8932,2973 8905,2977 8886,2952 8891,2919 8905,2881 8919,2855 8890,2833 8861,2815 8831,2782 8817,2772 8831,2742 8842,2716 8836,2684 8802,2653 8801,2631 8790,2611 8761,2592 8759,2565 8771,2536 8788,2506 8805,2475 8806,2444 8824,2413 8838,2388 8851,2356 8879,2346 8910,2355 8936,2338 8963,2313 8983,2279 8984,2250 8963,2219 8985,2184 9000,2152 8993,2122 8999,2094 9009,2068 9004,2039 8973,2050 8945,2035 8933,2000 8924,1969 8911,1943 8902,1917 8907,1891 8881,1876 8889,1859 8907,1840 8914,1833 8893,1806 8881,1779 8848,1757 8838,1749 8819,1734 8811,1723 8812,1716 8822,1711 8831,1715 8842,1719 8856,1723 8865,1721 8870,1716 8870,1705 8878,1695 8886,1695 8895,1697 8902,1704 8919,1704 8938,1703 8952,1696 8966,1689 8976,1690 8980,1697 8975,1701 8970,1706 8965,1714 8967,1719 8973,1727 8982,1737 8983,1751 8981,1765 8989,1792 9016,1809 9045,1806 9071,1797 9096,1789 9126,1767 9136,1732 9165,1743 9163,1779 9164,1804 9198,1786 9223,1781 9244,1810 9272,1834 9300,1834 9333,1831 9331,1804 9329,1778 9330,1747 9337,1717 9325,1690 9297,1684 9306,1653 9297,1617 9319,1587 9350,1600 9376,1602 9409,1597 9435,1593 9471,1573 9487,1545 9502,1520 9518,1492 9516,1465 9502,1451 9530,1435 9552,1407 9581,1387 9607,1377 9640,1389 9671,1374 9700,1349 9726,1366 9754,1370 9779,1389 9805,1375 9834,1360 9844,1330 9849,1300 9856,1287 9885,1279 9910,1277 9909,1330 9944,1331 9979,1340 10004,1327 10029,1336 10063,1319 10061,1282 10035,1256 10006,1247 9980,1221 9955,1193 9959,1167 9974,1131 9988,1104 10005,1072 10040,1070 10067,1068 10091,1040 10120,1021 10152,1016 10183,1031 " class="polyStyle" id="430521" style="fill:#fbe6ef"/>
<polygon points="8723,190 8730,215 8734,241 8730,269 8756,284 8793,276 8820,280 8825,308 8836,341 8844,368 8856,395 8882,429 8916,451 8942,471 8971,467 8977,442 8947,421 8972,413 8999,427 9025,420 9052,409 9049,434 9064,435 9089,465 9076,490 9041,505 9015,524 9047,536 9080,516 9109,549 9108,575 9125,601 9140,628 9113,636 9086,629 9088,664 9085,696 9106,723 9135,732 9168,703 9193,678 9216,647 9246,619 9267,623 9300,693 9327,710 9331,655 9359,660 9390,687 9425,718 9456,738 9485,739 9512,729 9540,747 9574,769 9588,802 9613,830 9641,840 9667,840 9694,834 9727,857 9754,859 9782,835 9809,835 9831,867 9847,893 9837,922 9834,947 9844,974 9887,952 9931,918 9958,907 9946,933 9942,963 9948,990 9975,1008 9973,1039 9995,1069 10005,1072 9988,1104 9974,1131 9959,1167 9955,1193 9980,1221 10006,1247 10035,1256 10061,1282 10063,1319 10029,1336 10004,1327 9979,1340 9944,1331 9909,1330 9910,1277 9885,1279 9856,1287 9849,1300 9844,1330 9834,1360 9805,1375 9779,1389 9754,1370 9726,1366 9700,1349 9671,1374 9640,1389 9607,1377 9581,1387 9552,1407 9530,1435 9502,1451 9516,1465 9518,1492 9502,1520 9487,1545 9471,1573 9435,1593 9409,1597 9376,1602 9350,1600 9319,1587 9297,1617 9306,1653 9297,1684 9325,1690 9337,1717 9330,1747 9329,1778 9331,1804 9333,1831 9300,1834 9272,1834 9244,1810 9223,1781 9198,1786 9164,1804 9163,1779 9165,1743 9136,1732 9126,1767 9096,1789 9071,1797 9045,1806 9016,1809 8989,1792 8981,1765 8983,1751 8982,1737 8973,1727 8967,1719 8965,1714 8970,1706 8975,1701 8980,1697 8976,1690 8966,1689 8952,1696 8938,1703 8919,1704 8902,1704 8895,1697 8886,1695 8878,1695 8870,1705 8870,1716 8865,1721 8856,1723 8842,1719 8831,1715 8822,1711 8812,1716 8811,1723 8819,1734 8838,1749 8848,1757 8881,1779 8893,1806 8914,1833 8907,1840 8903,1839 8883,1848 8852,1851 8833,1848 8827,1854 8821,1883 8810,1914 8783,1931 8745,1918 8725,1907 8708,1919 8682,1925 8660,1919 8647,1908 8636,1885 8634,1858 8629,1846 8616,1841 8611,1858 8605,1873 8604,1886 8600,1901 8600,1916 8592,1929 8582,1925 8564,1918 8541,1917 8530,1914 8523,1909 8515,1906 8513,1895 8517,1874 8536,1848 8544,1835 8542,1818 8538,1807 8528,1807 8516,1806 8508,1798 8496,1793 8481,1798 8454,1803 8429,1808 8400,1805 8374,1806 8374,1792 8365,1783 8338,1794 8333,1820 8327,1838 8310,1862 8301,1857 8294,1855 8271,1840 8259,1817 8237,1820 8204,1827 8194,1836 8191,1854 8170,1874 8156,1877 8144,1868 8133,1862 8121,1869 8105,1868 8083,1840 8068,1833 8047,1837 8028,1841 8013,1847 8009,1860 8017,1877 8018,1901 7992,1914 7974,1919 7965,1929 7956,1938 7941,1938 7929,1938 7924,1950 7907,1960 7894,1951 7891,1947 7879,1953 7854,1959 7830,1974 7819,1981 7806,1974 7786,1974 7762,1991 7743,2020 7717,2035 7696,2037 7693,2036 7682,2035 7669,2023 7634,2039 7610,2040 7577,2042 7547,2047 7516,2048 7491,2041 7462,2047 7438,2073 7403,2096 7376,2086 7357,2059 7327,2067 7299,2079 7267,2062 7270,2036 7245,2010 7229,1983 7197,1992 7164,1988 7131,1996 7126,1992 7095,1973 7065,1998 7043,1988 7045,1985 7043,1976 7026,1950 7017,1926 7035,1921 7041,1903 7032,1886 7012,1875 7002,1858 6981,1843 6963,1833 6961,1811 6960,1791 6950,1780 6928,1784 6907,1783 6897,1765 6898,1753 6906,1740 6898,1725 6865,1723 6832,1719 6828,1703 6842,1694 6853,1676 6855,1653 6847,1641 6831,1639 6819,1634 6807,1620 6769,1629 6744,1640 6712,1646 6681,1648 6649,1640 6631,1609 6630,1580 6648,1545 6673,1532 6703,1535 6732,1540 6758,1534 6773,1507 6766,1471 6740,1454 6721,1423 6690,1410 6663,1383 6630,1380 6620,1355 6615,1326 6631,1293 6660,1272 6692,1255 6696,1229 6728,1218 6722,1191 6693,1186 6661,1177 6654,1150 6667,1121 6665,1094 6694,1072 6719,1045 6749,1045 6776,1041 6798,1014 6823,991 6828,962 6796,940 6806,910 6810,879 6819,851 6846,823 6873,814 6888,786 6878,754 6866,721 6886,692 6886,659 6874,625 6870,594 6866,564 6894,553 6928,553 6956,557 6984,555 7002,587 6995,617 7008,643 7024,670 7051,690 7079,706 7107,697 7127,669 7137,640 7163,617 7193,598 7219,597 7248,581 7264,555 7280,526 7309,513 7336,496 7367,477 7396,478 7422,495 7447,519 7478,541 7483,546 7498,567 7524,584 7556,605 7587,620 7612,633 7642,658 7674,685 7703,683 7736,680 7744,649 7743,622 7754,591 7781,591 7807,596 7833,571 7863,542 7894,530 7914,494 7954,454 7962,448 7987,441 8013,413 8038,384 8057,353 8093,336 8125,329 8152,351 8162,379 8185,406 8226,419 8262,435 8288,406 8301,370 8315,342 8343,342 8370,324 8402,321 8430,323 8457,320 8494,296 8524,275 8552,275 8577,272 8603,255 8632,221 8646,189 8666,163 8697,168 " class="polyStyle" id="430522" style="fill:#d4ecb2"/>
<polygon points="5837,15 5870,14 5900,41 5900,75 5900,112 5892,147 5882,175 5911,178 5940,183 5965,180 5993,163 6019,135 6047,133 6065,160 6098,152 6130,133 6156,140 6187,145 6209,172 6217,204 6235,230 6262,247 6266,279 6284,305 6275,339 6262,366 6294,382 6324,387 6356,370 6382,360 6414,368 6440,372 6465,383 6465,415 6492,430 6521,425 6555,420 6572,416 6612,408 6643,410 6644,435 6670,455 6684,436 6699,414 6719,414 6722,426 6705,440 6702,460 6712,471 6713,483 6711,493 6743,511 6777,523 6809,544 6838,556 6866,564 6870,594 6874,625 6886,659 6886,692 6866,721 6878,754 6888,786 6873,814 6846,823 6819,851 6810,879 6806,910 6796,940 6828,962 6823,991 6798,1014 6776,1041 6749,1045 6719,1045 6694,1072 6665,1094 6667,1121 6654,1150 6661,1177 6693,1186 6722,1191 6728,1218 6696,1229 6692,1255 6660,1272 6631,1293 6615,1326 6620,1355 6630,1380 6663,1383 6690,1410 6721,1423 6740,1454 6766,1471 6773,1507 6758,1534 6732,1540 6703,1535 6673,1532 6648,1545 6630,1580 6631,1609 6649,1640 6681,1648 6712,1646 6744,1640 6769,1629 6807,1620 6819,1634 6831,1639 6847,1641 6855,1653 6853,1676 6842,1694 6828,1703 6832,1719 6865,1723 6898,1725 6906,1740 6898,1753 6897,1765 6907,1783 6928,1784 6950,1780 6960,1791 6961,1811 6963,1833 6981,1843 7002,1858 7012,1875 7032,1886 7041,1903 7035,1921 7017,1926 7026,1950 7043,1976 7045,1985 7043,1988 7036,2003 7020,2028 7010,2049 6992,2055 6971,2067 6982,2095 6993,2123 7015,2154 7022,2189 7038,2197 7040,2227 7038,2253 7029,2260 7025,2285 7033,2299 7058,2318 7057,2338 7034,2337 7023,2320 7013,2315 7004,2328 6999,2345 6993,2358 6993,2368 7004,2378 6999,2398 7002,2415 7023,2418 7027,2435 7012,2453 6995,2463 6995,2487 7014,2493 7035,2488 7050,2508 7057,2528 7065,2550 7062,2585 7059,2581 7055,2608 7030,2640 6998,2654 6972,2666 6943,2693 6941,2726 6959,2763 6972,2771 6977,2789 6974,2814 6952,2843 6955,2871 6962,2899 6955,2930 6935,2961 6922,2963 6906,2975 6877,2975 6857,2976 6839,2973 6820,2971 6789,2981 6766,2970 6746,2971 6726,2994 6697,2994 6682,2991 6667,3003 6641,3022 6621,3019 6610,3001 6597,3005 6585,3018 6578,3037 6552,3066 6563,3098 6557,3124 6523,3130 6513,3141 6520,3157 6529,3164 6528,3168 6545,3189 6580,3210 6579,3226 6575,3254 6573,3271 6579,3286 6574,3294 6563,3293 6546,3283 6536,3270 6516,3239 6495,3221 6475,3211 6449,3185 6415,3160 6403,3160 6385,3171 6365,3180 6344,3180 6330,3149 6316,3106 6303,3079 6289,3070 6274,3071 6260,3080 6254,3103 6253,3124 6249,3145 6240,3154 6233,3176 6208,3195 6188,3198 6172,3221 6142,3253 6085,3290 6030,3300 6000,3318 5989,3341 5958,3328 5941,3306 5925,3275 5920,3277 5911,3277 5898,3273 5897,3252 5888,3242 5882,3222 5882,3208 5902,3207 5905,3198 5902,3187 5886,3177 5849,3161 5813,3165 5785,3153 5748,3145 5702,3161 5660,3181 5635,3168 5598,3181 5569,3184 5537,3178 5505,3178 5514,3176 5516,3161 5514,3143 5503,3124 5476,3122 5428,3121 5402,3096 5377,3075 5350,3061 5350,3038 5330,3034 5317,3017 5320,2987 5322,2965 5351,2955 5347,2930 5321,2928 5293,2896 5244,2892 5236,2897 5229,2909 5223,2896 5225,2867 5220,2844 5210,2825 5204,2786 5176,2755 5157,2718 5126,2712 5105,2682 5068,2699 5040,2706 5003,2706 4957,2707 4957,2681 4962,2655 4943,2623 4930,2591 4905,2573 4874,2560 4846,2554 4811,2545 4775,2552 4777,2523 4776,2497 4774,2468 4786,2436 4819,2424 4851,2402 4883,2392 4914,2408 4946,2422 4973,2415 5018,2399 5023,2374 5024,2344 5028,2312 4989,2314 4992,2283 4971,2245 4929,2213 4905,2186 4892,2138 4875,2111 4864,2075 4874,2040 4879,2006 4868,1976 4848,1947 4821,1936 4790,1929 4780,1903 4781,1863 4795,1826 4810,1785 4826,1748 4806,1710 4797,1680 4809,1649 4804,1615 4798,1582 4808,1545 4780,1535 4749,1507 4720,1524 4693,1545 4659,1581 4625,1596 4572,1608 4562,1634 4534,1633 4502,1632 4472,1624 4444,1639 4414,1633 4409,1598 4383,1598 4354,1593 4320,1590 4291,1582 4281,1555 4283,1527 4290,1494 4262,1483 4227,1464 4198,1473 4170,1480 4153,1469 4120,1447 4148,1425 4166,1391 4185,1358 4197,1317 4211,1275 4225,1245 4230,1211 4232,1182 4240,1155 4266,1127 4295,1128 4324,1110 4346,1081 4378,1060 4380,1026 4383,1000 4356,969 4330,959 4299,948 4329,924 4339,890 4328,865 4297,841 4271,832 4256,800 4260,766 4241,735 4211,718 4181,692 4160,664 4141,637 4115,622 4083,640 4054,621 4058,595 4084,568 4093,529 4121,504 4158,482 4184,452 4219,417 4239,390 4249,358 4251,323 4284,292 4295,266 4322,270 4352,291 4381,283 4416,289 4449,266 4460,268 4471,259 4480,244 4509,241 4548,242 4563,224 4574,192 4591,193 4609,201 4616,224 4614,243 4606,261 4581,282 4575,294 4579,309 4580,323 4596,318 4611,307 4636,307 4661,312 4685,306 4701,313 4709,337 4716,379 4723,398 4754,417 4768,445 4800,456 4833,468 4852,496 4871,532 4903,510 4934,503 4967,485 4998,466 5009,435 5024,406 5058,390 5097,368 5132,360 5163,346 5173,338 5179,329 5182,319 5183,307 5181,291 5176,270 5171,252 5168,233 5167,205 5169,198 5173,193 5185,188 5219,207 5225,209 5228,208 5231,203 5231,200 5218,183 5203,167 5189,153 5180,147 5178,144 5179,132 5171,109 5169,103 5169,96 5178,72 5185,53 5187,37 5190,30 5193,26 5197,24 5208,19 5226,15 5233,16 5236,17 5232,23 5247,29 5280,43 5314,57 5343,49 5373,50 5419,34 5451,24 5482,48 5514,38 5540,31 5586,42 5623,49 5663,32 5696,20 5724,21 5756,21 5785,0 5810,7 " class="polyStyle" id="430524" style="fill:#ee8b94"/>
<path d="" class="polyStyle" id="430321" style="fill:#d4ecb2"/>
<path d="" class="polyStyle" id="511129" style="fill:#d4ecb2"/>
<path d="" class="polyStyle" id="511423" style="fill:#ee8b94"/>
<path d="" class="polyStyle" id="421023" style="fill:#f6f67b"/>
<path d="" class="polyStyle" id="511724" style="fill:#f6f67b"/>
<path d="" class="polyStyle" id="420526" style="fill:#fbe6ef"/>
<path d="" class="polyStyle" id="511923" style="fill:#fbe6ef"/>
<path d="" class="polyStyle" id="420325" style="fill:#fbe6ef"/>
<path d="" class="polyStyle" id="511921" style="fill:#f6f67b"/>
<path d="" class="polyStyle" id="542525" style="fill:#f6f67b"/>
<path d="" class="polyStyle" id="611026" style="fill:#ee8b94"/>
<path d="" class="polyStyle" id="411023" style="fill:#fbe6ef"/>
<path d="" class="polyStyle" id="632323" style="fill:#f6f67b"/>
<path d="" class="polyStyle" id="140525" style="fill:#d4ecb2"/>
<path d="" class="polyStyle" id="410922" style="fill:#ee8b94"/>
<path d="" class="polyStyle" id="621027" style="fill:#ee8b94"/>
<path d="" class="polyStyle" id="130427" style="fill:#f6f67b"/>
<path d="" class="polyStyle" id="130121" style="fill:#ee8b94"/>
<path d="" class="polyStyle" id="610823" style="fill:#fbe6ef"/>
<path d="" class="polyStyle" id="130225" style="fill:#fbe6ef"/>
<path d="" class="polyStyle" id="130322" style="fill:#d4ecb2"/>
<path d="" class="polyStyle" id="653130" style="fill:#f6f67b"/>
<path d="" class="polyStyle" id="130822" style="fill:#fbe6ef"/>
<path d="" class="polyStyle" id="211221" style="fill:#f6f67b"/>
<path d="" class="polyStyle" id="210921" style="fill:#f6f67b"/>
<path d="" class="polyStyle" id="150223" style="fill:#f8c67d"/>
<path d="" class="polyStyle" id="220422" style="fill:#d4ecb2"/>
<path d="" class="polyStyle" id="340721" style="fill:#f6f67b"/>
<path d="" class="polyStyle" id="510824" style="fill:#d4ecb2"/>
<path d="" class="polyStyle" id="610324" style="fill:#f6f67b"/>
<path d="" class="polyStyle" id="530722" style="fill:#ee8b94"/>
<path d="" class="polyStyle" id="340823" style="fill:#d4ecb2"/>
<path d="" class="polyStyle" id="620825" style="fill:#d4ecb2"/>
<path d="" class="polyStyle" id="421125" style="fill:#ee8b94"/>
<path d="" class="polyStyle" id="210281" style="fill:#ee8b94"/>
<path d="" class="polyStyle" id="440883" style="fill:#f6f67b"/>
<path d="" class="polyStyle" id="469006" style="fill:#d4ecb2"/>
<path d="" class="polyStyle" id="469002" style="fill:#ee8b94"/>
<path d="" class="polyStyle" id="469005" style="fill:#fbe6ef"/>
<path d="" class="polyStyle" id="440882" style="fill:#ee8b94"/>
<path d="" class="polyStyle" id="450681" style="fill:#ee8b94"/>
<path d="" class="polyStyle" id="441581" style="fill:#d4ecb2"/>
<polygon points="5813,3165 5849,3161 5886,3177 5902,3187 5905,3198 5902,3207 5882,3208 5882,3222 5888,3242 5897,3252 5898,3273 5911,3277 5920,3277 5925,3275 5941,3306 5958,3328 5989,3341 6001,3340 6016,3372 6023,3400 6033,3425 6041,3452 6042,3480 6046,3512 6064,3542 6061,3571 6033,3581 6033,3607 6043,3637 6029,3665 5997,3672 5968,3674 5941,3663 5912,3651 5904,3675 5911,3701 5921,3727 5904,3738 5882,3738 5867,3709 5848,3712 5829,3726 5821,3734 5808,3756 5822,3787 5817,3801 5799,3822 5800,3854 5797,3887 5801,3919 5788,3951 5788,3984 5799,4011 5807,4047 5800,4073 5761,4105 5730,4101 5716,4084 5699,4078 5686,4084 5674,4097 5659,4108 5647,4107 5626,4092 5612,4071 5605,4041 5559,4050 5540,4060 5544,4097 5537,4111 5529,4135 5532,4156 5549,4161 5581,4165 5575,4190 5564,4218 5548,4246 5577,4258 5572,4287 5599,4305 5603,4330 5591,4364 5610,4397 5600,4423 5631,4452 5630,4465 5623,4479 5599,4477 5581,4473 5570,4488 5571,4508 5563,4532 5559,4558 5546,4565 5522,4560 5504,4556 5493,4562 5480,4578 5451,4601 5421,4625 5388,4639 5372,4635 5359,4624 5351,4578 5321,4575 5296,4586 5264,4602 5237,4608 5204,4614 5170,4615 5141,4621 5123,4659 5131,4690 5156,4706 5176,4706 5195,4706 5211,4704 5226,4698 5232,4714 5236,4742 5251,4756 5256,4768 5241,4786 5228,4804 5226,4816 5225,4819 5221,4845 5224,4877 5207,4908 5193,4935 5185,4974 5148,4987 5130,4987 5110,4972 5113,4933 5108,4899 5090,4893 5069,4907 5045,4922 5026,4935 4997,4948 4972,4972 4968,4989 4959,5009 4959,5035 4979,5064 4992,5104 4977,5133 4960,5164 4962,5192 4953,5223 4964,5249 4962,5278 4966,5318 4973,5345 4976,5382 4993,5409 4966,5421 4938,5432 4906,5457 4897,5438 4875,5440 4854,5431 4854,5412 4834,5396 4822,5382 4809,5379 4781,5387 4774,5406 4754,5409 4739,5415 4742,5429 4759,5444 4765,5454 4752,5465 4730,5474 4707,5484 4689,5508 4650,5505 4639,5502 4636,5478 4607,5475 4574,5478 4546,5487 4520,5481 4488,5471 4463,5470 4454,5483 4449,5505 4448,5516 4434,5523 4425,5526 4419,5540 4428,5547 4438,5557 4439,5576 4434,5588 4420,5592 4400,5590 4390,5572 4383,5538 4374,5523 4358,5506 4329,5497 4296,5499 4268,5514 4237,5521 4210,5539 4180,5526 4147,5507 4122,5492 4088,5502 4056,5531 4017,5528 3985,5517 3955,5511 3953,5508 3954,5477 3968,5450 3955,5425 3958,5391 3976,5357 3999,5331 3992,5305 3994,5269 3976,5240 3984,5214 3978,5188 3970,5156 3995,5127 3976,5098 3954,5065 3947,5030 3923,5004 3915,5006 3905,5010 3889,5027 3883,5046 3890,5062 3889,5085 3872,5092 3834,5091 3805,5091 3792,5105 3782,5117 3759,5121 3738,5132 3730,5133 3714,5138 3709,5128 3703,5110 3692,5090 3684,5076 3669,5075 3655,5081 3639,5063 3638,5050 3650,5033 3648,5020 3618,5006 3584,5006 3549,5013 3524,5026 3519,5045 3535,5068 3564,5061 3579,5045 3594,5036 3599,5050 3598,5075 3587,5090 3559,5098 3520,5105 3487,5125 3474,5152 3454,5147 3449,5127 3462,5100 3457,5055 3438,5025 3410,5006 3429,4987 3425,4958 3422,4932 3408,4916 3373,4915 3325,4885 3310,4872 3268,4866 3224,4848 3197,4836 3179,4837 3177,4851 3174,4867 3159,4866 3149,4841 3128,4823 3085,4812 3040,4808 3067,4776 3081,4759 3113,4728 3146,4699 3189,4659 3226,4629 3267,4598 3300,4569 3329,4525 3344,4495 3363,4465 3378,4437 3405,4391 3428,4349 3452,4314 3479,4283 3511,4245 3532,4209 3542,4176 3557,4150 3572,4110 3578,4069 3587,4030 3602,3997 3609,3977 3619,3951 3647,3928 3658,3895 3683,3870 3712,3882 3744,3868 3779,3858 3814,3865 3846,3855 3880,3839 3891,3812 3886,3779 3917,3764 3951,3773 3981,3759 4014,3743 4027,3741 4033,3722 4043,3720 4053,3727 4054,3771 4084,3771 4093,3765 4114,3769 4140,3775 4152,3803 4186,3801 4223,3821 4241,3849 4267,3872 4296,3872 4329,3895 4361,3899 4378,3867 4380,3836 4375,3806 4368,3780 4374,3768 4386,3771 4405,3772 4426,3772 4452,3770 4483,3759 4509,3752 4537,3751 4565,3740 4594,3748 4596,3722 4591,3694 4619,3696 4646,3691 4645,3659 4645,3626 4671,3612 4702,3592 4715,3560 4743,3566 4769,3563 4790,3550 4795,3541 4789,3529 4788,3514 4802,3499 4834,3481 4858,3470 4879,3465 4890,3461 4899,3474 4895,3494 4914,3503 4939,3505 4965,3506 4982,3500 5002,3496 5027,3503 5044,3508 5063,3521 5075,3533 5089,3526 5092,3514 5098,3506 5119,3513 5140,3533 5152,3560 5162,3584 5187,3603 5232,3616 5258,3608 5277,3619 5277,3638 5272,3659 5272,3672 5247,3676 5252,3705 5281,3732 5312,3752 5342,3754 5371,3750 5400,3749 5431,3742 5435,3713 5431,3688 5428,3654 5435,3621 5460,3612 5489,3620 5520,3627 5545,3618 5575,3620 5604,3607 5638,3581 5643,3549 5696,3534 5688,3501 5674,3492 5663,3491 5640,3484 5605,3473 5580,3449 5563,3416 5556,3383 5551,3349 5545,3330 5533,3308 5519,3265 5508,3230 5481,3223 5469,3200 5485,3183 5505,3178 5537,3178 5569,3184 5598,3181 5635,3168 5660,3181 5702,3161 5748,3145 5785,3153 " class="polyStyle" id="430581" style="fill:#d4ecb2"/>
<path d="" class="polyStyle" id="421087" style="fill:#ee8b94"/>
<path d="" class="polyStyle" id="420984" style="fill:#fbe6ef"/>
<path d="" class="polyStyle" id="420582" style="fill:#ee8b94"/>
<path d="" class="polyStyle" id="370282" style="fill:#f6f67b"/>
<path d="" class="polyStyle" id="371083" style="fill:#f6f67b"/>
<path d="" class="polyStyle" id="371082" style="fill:#fbe6ef"/>
<path d="" class="polyStyle" id="652801" style="fill:#f8c67d"/>
<path d="" class="polyStyle" id="654301" style="fill:#ee8b94"/>
<path d="" class="polyStyle" id="370687" style="fill:#ee8b94"/>
<path d="" class="polyStyle" id="371482" style="fill:#d4ecb2"/>
<path d="" class="polyStyle" id="421081" style="fill:#fbe6ef"/>
<path d="" class="polyStyle" id="429006" style="fill:#f6f67b"/>
<path d="" class="polyStyle" id="440982" style="fill:#d4ecb2"/>
<path d="" class="polyStyle" id="421181" style="fill:#d4ecb2"/>
<path d="" class="polyStyle" id="321181" style="fill:#d4ecb2"/>
<path d="" class="polyStyle" id="659007" style="fill:#ee8b94"/>
<path d="" class="polyStyle" id="652701" style="fill:#fbe6ef"/>
<path d="" class="polyStyle" id="210781" style="fill:#fbe6ef"/>
<path d="" class="polyStyle" id="460204" style="fill:#f6f67b"/>
<path d="" class="polyStyle" id="210211" style="fill:#f6f67b"/>
<path d="" class="polyStyle" id="450512" style="fill:#ee8b94"/>
<path d="" class="polyStyle" id="450602" style="fill:#fbe6ef"/>
<path d="" class="polyStyle" id="440404" style="fill:#ee8b94"/>
<path d="" class="polyStyle" id="440403" style="fill:#f6f67b"/>
<path d="" class="polyStyle" id="441502" style="fill:#f6f67b"/>
<path d="" class="polyStyle" id="431002" style="fill:#d4ecb2"/>
<polygon points="8234,2121 8238,2125 8243,2130 8248,2138 8250,2143 8254,2154 8255,2157 8258,2163 8261,2165 8266,2165 8270,2165 8274,2166 8279,2166 8282,2167 8285,2170 8286,2173 8283,2179 8276,2186 8263,2193 8252,2205 8248,2210 8249,2217 8252,2220 8258,2222 8261,2222 8264,2224 8264,2226 8260,2232 8256,2237 8255,2241 8260,2248 8272,2259 8294,2277 8303,2287 8308,2297 8312,2307 8315,2321 8317,2327 8320,2331 8325,2335 8331,2337 8333,2337 8343,2335 8346,2333 8350,2330 8355,2327 8360,2323 8369,2313 8378,2304 8386,2292 8393,2281 8400,2279 8405,2280 8413,2286 8424,2293 8438,2301 8450,2306 8456,2309 8468,2314 8478,2318 8486,2321 8489,2324 8488,2330 8482,2344 8481,2347 8482,2350 8490,2350 8502,2341 8516,2327 8519,2325 8524,2315 8535,2303 8542,2297 8547,2295 8552,2297 8562,2303 8571,2311 8575,2312 8580,2311 8595,2305 8605,2301 8611,2302 8617,2306 8623,2314 8624,2318 8626,2326 8628,2342 8630,2351 8634,2355 8638,2358 8646,2359 8650,2359 8659,2356 8669,2350 8691,2334 8702,2328 8711,2324 8726,2320 8729,2320 8734,2320 8744,2320 8757,2321 8767,2321 8779,2320 8791,2316 8802,2311 8808,2309 8818,2307 8830,2307 8836,2307 8839,2306 8842,2307 8848,2307 8857,2308 8870,2311 8879,2314 8887,2319 8888,2322 8903,2333 8910,2355 8879,2346 8851,2356 8838,2388 8824,2413 8806,2444 8805,2475 8788,2506 8771,2536 8759,2565 8761,2592 8790,2611 8801,2631 8802,2653 8836,2684 8842,2716 8831,2742 8817,2772 8831,2782 8805,2803 8779,2811 8751,2807 8725,2823 8694,2833 8678,2859 8653,2867 8618,2869 8590,2858 8570,2833 8590,2804 8596,2771 8587,2744 8568,2714 8546,2683 8515,2667 8479,2652 8463,2625 8461,2593 8462,2589 8457,2581 8445,2581 8429,2579 8413,2583 8402,2587 8383,2588 8364,2592 8361,2602 8354,2609 8347,2610 8335,2610 8328,2611 8301,2627 8312,2653 8317,2683 8327,2720 8337,2750 8330,2779 8313,2811 8282,2830 8250,2821 8232,2795 8207,2797 8210,2825 8169,2847 8138,2872 8108,2879 8079,2881 8047,2897 8018,2915 8014,2943 7988,2930 7969,2904 7943,2891 7928,2864 7932,2837 7965,2817 7977,2789 7972,2762 7975,2733 7991,2704 7990,2677 7964,2654 7937,2629 7906,2627 7876,2616 7904,2585 7897,2555 7872,2524 7847,2499 7819,2508 7809,2482 7795,2455 7789,2430 7781,2403 7778,2372 7788,2345 7797,2333 7808,2322 7833,2305 7841,2297 7854,2283 7867,2273 7880,2266 7894,2263 7905,2265 7914,2271 7919,2281 7920,2294 7920,2302 7922,2309 7930,2322 7945,2332 7963,2338 7973,2340 7982,2339 7991,2337 7999,2333 8014,2320 8026,2306 8032,2295 8035,2284 8035,2274 8035,2270 8032,2263 8010,2231 7999,2216 7992,2200 7989,2185 7989,2170 7993,2156 8001,2143 8013,2131 8027,2122 8046,2114 8066,2110 8086,2111 8106,2116 8129,2117 8169,2114 8218,2105 8220,2104 8225,2109 " class="polyStyle" id="430503" style="fill:#ee8b94"/>
<polygon points="8294,1855 8301,1857 8310,1862 8328,1873 8338,1883 8345,1892 8346,1903 8335,1940 8336,1949 8342,1957 8353,1968 8359,1977 8359,1988 8354,2001 8348,2013 8334,2028 8327,2038 8320,2044 8311,2047 8301,2047 8291,2044 8282,2039 8274,2031 8268,2020 8253,1991 8244,1980 8229,1977 8222,1977 8217,1979 8208,1985 8203,1997 8201,2008 8202,2021 8210,2044 8215,2053 8223,2062 8231,2067 8240,2070 8246,2071 8251,2074 8255,2082 8254,2087 8251,2090 8241,2098 8220,2104 8218,2105 8169,2114 8129,2117 8106,2116 8086,2111 8066,2110 8046,2114 8027,2122 8013,2131 8001,2143 7993,2156 7989,2170 7989,2185 7992,2200 7999,2216 8010,2231 8032,2263 8035,2270 8035,2274 8035,2284 8032,2295 8026,2306 8014,2320 7999,2333 7991,2337 7982,2339 7973,2340 7963,2338 7945,2332 7930,2322 7922,2309 7920,2302 7920,2294 7919,2281 7914,2271 7905,2265 7894,2263 7880,2266 7867,2273 7854,2283 7841,2297 7833,2305 7808,2322 7797,2333 7788,2345 7761,2333 7753,2307 7725,2328 7699,2317 7674,2321 7648,2314 7659,2287 7664,2257 7653,2225 7670,2193 7703,2175 7706,2149 7704,2123 7693,2096 7686,2075 7682,2074 7676,2063 7677,2054 7692,2054 7698,2048 7693,2036 7696,2037 7717,2035 7743,2020 7762,1991 7786,1974 7806,1974 7819,1981 7830,1974 7854,1959 7879,1953 7891,1947 7894,1951 7907,1960 7924,1950 7929,1938 7941,1938 7956,1938 7965,1929 7974,1919 7992,1914 8018,1901 8017,1877 8009,1860 8013,1847 8028,1841 8047,1837 8068,1833 8083,1840 8105,1868 8121,1869 8133,1862 8144,1868 8156,1877 8170,1874 8191,1854 8194,1836 8204,1827 8237,1820 8259,1817 8271,1840 " class="polyStyle" id="430511" style="fill:#fbe6ef"/>
<polygon points="8374,1806 8400,1805 8429,1808 8454,1803 8481,1798 8496,1793 8508,1798 8516,1806 8528,1807 8538,1807 8542,1818 8544,1835 8536,1848 8517,1874 8513,1895 8515,1906 8523,1909 8530,1914 8541,1917 8564,1918 8582,1925 8592,1929 8600,1916 8600,1901 8604,1886 8605,1873 8611,1858 8616,1841 8629,1846 8634,1858 8636,1885 8647,1908 8660,1919 8682,1925 8708,1919 8725,1907 8745,1918 8783,1931 8810,1914 8821,1883 8827,1854 8833,1848 8852,1851 8883,1848 8903,1839 8907,1840 8889,1859 8881,1876 8907,1891 8902,1917 8911,1943 8924,1969 8933,2000 8945,2035 8973,2050 9004,2039 9009,2068 8999,2094 8993,2122 9000,2152 8985,2184 8963,2219 8984,2250 8983,2279 8963,2313 8936,2338 8910,2355 8903,2333 8888,2322 8887,2319 8879,2314 8870,2311 8857,2308 8848,2307 8842,2307 8839,2306 8836,2307 8830,2307 8818,2307 8808,2309 8802,2311 8791,2316 8779,2320 8767,2321 8757,2321 8744,2320 8734,2320 8729,2320 8726,2320 8711,2324 8702,2328 8691,2334 8669,2350 8659,2356 8650,2359 8646,2359 8638,2358 8634,2355 8630,2351 8628,2342 8626,2326 8624,2318 8623,2314 8617,2306 8611,2302 8605,2301 8595,2305 8580,2311 8575,2312 8571,2311 8562,2303 8552,2297 8547,2295 8542,2297 8535,2303 8524,2315 8519,2325 8516,2327 8502,2341 8490,2350 8482,2350 8481,2347 8482,2344 8488,2330 8489,2324 8486,2321 8478,2318 8468,2314 8456,2309 8450,2306 8438,2301 8424,2293 8413,2286 8405,2280 8400,2279 8393,2281 8386,2292 8378,2304 8369,2313 8360,2323 8355,2327 8350,2330 8346,2333 8343,2335 8333,2337 8331,2337 8325,2335 8320,2331 8317,2327 8315,2321 8312,2307 8308,2297 8303,2287 8294,2277 8272,2259 8260,2248 8255,2241 8256,2237 8260,2232 8264,2226 8264,2224 8261,2222 8258,2222 8252,2220 8249,2217 8248,2210 8252,2205 8263,2193 8276,2186 8283,2179 8286,2173 8285,2170 8282,2167 8279,2166 8274,2166 8270,2165 8266,2165 8261,2165 8258,2163 8255,2157 8254,2154 8250,2143 8248,2138 8243,2130 8238,2125 8234,2121 8225,2109 8220,2104 8241,2098 8251,2090 8254,2087 8255,2082 8251,2074 8246,2071 8240,2070 8231,2067 8223,2062 8215,2053 8210,2044 8202,2021 8201,2008 8203,1997 8208,1985 8217,1979 8222,1977 8229,1977 8244,1980 8253,1991 8268,2020 8274,2031 8282,2039 8291,2044 8301,2047 8311,2047 8320,2044 8327,2038 8334,2028 8348,2013 8354,2001 8359,1988 8359,1977 8353,1968 8342,1957 8336,1949 8335,1940 8346,1903 8345,1892 8338,1883 8328,1873 8310,1862 8327,1838 8333,1820 8338,1794 8365,1783 8374,1792 " class="polyStyle" id="430502" style="fill:#f6f67b"/>
<path d="" class="polyStyle" id="500107" style="fill:#fbe6ef"/>
<path d="" class="polyStyle" id="430611" style="fill:#d4ecb2"/>
<path d="" class="polyStyle" id="511304" style="fill:#fbe6ef"/>
<path d="" class="polyStyle" id="340711" style="fill:#ee8b94"/>
<path d="" class="polyStyle" id="320118" style="fill:#f6f67b"/>
<path d="" class="polyStyle" id="510704" style="fill:#f6f67b"/>
<path d="" class="polyStyle" id="411502" style="fill:#ee8b94"/>
<path d="" class="polyStyle" id="320302" style="fill:#d4ecb2"/>
<path d="" class="polyStyle" id="140311" style="fill:#ee8b94"/>
<path d="" class="polyStyle" id="610802" style="fill:#ee8b94"/>
<path d="" class="polyStyle" id="120116" style="fill:#f6f67b"/>
<path d="" class="polyStyle" id="130303" style="fill:#fbe6ef"/>
<path d="" class="polyStyle" id="140211" style="fill:#f6f67b"/>
<path d="" class="polyStyle" id="150207" style="fill:#fbe6ef"/>
<path d="" class="polyStyle" id="211403" style="fill:#f6f67b"/>
<path d="" class="polyStyle" id="150802" style="fill:#f8c67d"/>
<path d="" class="polyStyle" id="210112" style="fill:#ee8b94"/>
<path d="" class="polyStyle" id="230406" style="fill:#d4ecb2"/>
<path d="" class="polyStyle" id="110113" style="fill:#fbe6ef"/>
<path d="" class="polyStyle" id="341702" style="fill:#fbe6ef"/>
<path d="" class="polyStyle" id="420303" style="fill:#ee8b94"/>
<path d="" class="polyStyle" id="340702" style="fill:#d4ecb2"/>
<path d="" class="polyStyle" id="421002" style="fill:#f6f67b"/>
<path d="" class="polyStyle" id="420117" style="fill:#f6f67b"/>
<path d="" class="polyStyle" id="440904" style="fill:#f8c67d"/>
<path d="" class="polyStyle" id="460205" style="fill:#ee8b94"/>
<path d="" class="polyStyle" id="460202" style="fill:#f6f67b"/>
<path d="" class="polyStyle" id="460203" style="fill:#fbe6ef"/>
<path d="" class="polyStyle" id="420304" style="fill:#f6f67b"/>
<path d="" class="polyStyle" id="445302" style="fill:#ee8b94"/>
<path d="" class="polyStyle" id="410202" style="fill:#d4ecb2"/>
<path d="" class="polyStyle" id="440800" style="fill:#f6f67b"/>
<path d="" class="polyStyle" id="440900" style="fill:#ee8b94"/>
<path d="" class="polyStyle" id="340800" style="fill:#ee8b94"/>
<path d="" class="polyStyle" id="460200" style="fill:#f6f67b"/>
<path d="" class="polyStyle" id="460000" style="fill:#ee8b94"/>
<path d="" class="polyStyle" id="450500" style="fill:#ee8b94"/>
<path d="" class="polyStyle" id="450600" style="fill:#ee8b94"/>
<path d="" class="polyStyle" id="440400" style="fill:#f6f67b"/>
<path d="" class="polyStyle" id="441700" style="fill:#f6f67b"/>
<path d="" class="polyStyle" id="441500" style="fill:#f6f67b"/>
<path d="" class="polyStyle" id="350600" style="fill:#ee8b94"/>
<path d="" class="polyStyle" id="710000" style="fill:#f6f67b"/>
<path d="" class="polyStyle" id="510400" style="fill:#f6f67b"/>
<path d="" class="polyStyle" id="522600" style="fill:#fbe6ef"/>
<path d="" class="polyStyle" id="520500" style="fill:#ee8b94"/>
<path d="" class="polyStyle" id="431200" style="fill:#f6f67b"/>
<path d="" class="polyStyle" id="430600" style="fill:#f6f67b"/>
<path d="" class="polyStyle" id="511400" style="fill:#d4ecb2"/>
<path d="" class="polyStyle" id="421000" style="fill:#ee8b94"/>
<path d="" class="polyStyle" id="341700" style="fill:#f6f67b"/>
<path d="" class="polyStyle" id="420500" style="fill:#f6f67b"/>
<path d="" class="polyStyle" id="511300" style="fill:#f6f67b"/>
<path d="" class="polyStyle" id="420900" style="fill:#f6f67b"/>
<path d="" class="polyStyle" id="511700" style="fill:#ee8b94"/>
<path d="" class="polyStyle" id="420600" style="fill:#d4ecb2"/>
<path d="" class="polyStyle" id="411500" style="fill:#fbe6ef"/>
<path d="" class="polyStyle" id="510800" style="fill:#ee8b94"/>
<path d="" class="polyStyle" id="420300" style="fill:#fbe6ef"/>
<path d="" class="polyStyle" id="611000" style="fill:#ee8b94"/>
<path d="" class="polyStyle" id="620800" style="fill:#fbe6ef"/>
<path d="" class="polyStyle" id="370200" style="fill:#ee8b94"/>
<path d="" class="polyStyle" id="371000" style="fill:#f6f67b"/>
<path d="" class="polyStyle" id="370600" style="fill:#fbe6ef"/>
<path d="" class="polyStyle" id="120000" style="fill:#f6f67b"/>
<path d="" class="polyStyle" id="130200" style="fill:#ee8b94"/>
<path d="" class="polyStyle" id="130300" style="fill:#f6f67b"/>
<path d="" class="polyStyle" id="652900" style="fill:#fbe6ef"/>
<path d="" class="polyStyle" id="150500" style="fill:#d4ecb2"/>
<path d="" class="polyStyle" id="" style="fill:#d4ecb2"/>
<path d="" class="polyStyle" id="350500" style="fill:#fbe6ef"/>
<path d="" class="polyStyle" id="440400" style="fill:#f6f67b"/>
<path d="" class="polyStyle" id="421100" style="fill:#d4ecb2"/>
<path d="" class="polyStyle" id="420100" style="fill:#fbe6ef"/>
<path d="" class="polyStyle" id="532500" style="fill:#fbe6ef"/>
<path d="" class="polyStyle" id="654200" style="fill:#fbe6ef"/>
<path d="" class="polyStyle" id="210700" style="fill:#d4ecb2"/>
<path d="" class="polyStyle" id="522300" style="fill:#fbe6ef"/>
<path d="" class="polyStyle" id="" style="fill:#ee8b94"/>
<path d="" class="polyStyle" id="440400" style="fill:#f6f67b"/>
<path d="" class="polyStyle" id="620000" style="fill:#f6f67b"/>
<path d="" class="polyStyle" id="430000" style="fill:#fbe6ef"/>
<path d="" class="polyStyle" id="420000" style="fill:#ee8b94"/>
<path d="" class="polyStyle" id="410000" style="fill:#f6f67b"/>
<path d="" class="polyStyle" id="350000" style="fill:#fbe6ef"/>
<path d="" class="polyStyle" id="520000" style="fill:#f6f67b"/>
<path d="" class="polyStyle" id="" style="fill:#ee8b94"/>
</svg>
