<?xml version="1.0" encoding="UTF-8"?>
<!DOCTYPE svg PUBLIC "-//W3C//DTD SVG 1.1 Tiny//EN" "http://www.w3.org/Graphics/SVG/1.1/DTD/svg11-tiny.dtd">
<svg version="1.1" xmlns="http://www.w3.org/2000/svg" xmlns:xlink="http://www.w3.org/1999/xlink" width="100%" height="100%" viewBox="0,0,9210,7118">
<title>SVG</title>
<desc>Poligon Test</desc>
<style id="style_css_sheet" type="text/css">
.polyStyle{fill: #cccccc;stroke-width:0;fill-rule:evenodd;}
</style>
<circle cx="5761" cy="1867" r="200" stroke="black" stroke-width="1" fill="red" id="430682" name="临湘市"/>
<circle cx="3830" cy="5208" r="200" stroke="black" stroke-width="1" fill="red" id="430681"position="44" name="汨罗市"/>
<circle cx="4027" cy="3535" r="200" stroke="black" stroke-width="1" fill="red" id="430621" name="岳阳县"/>
<circle cx="1259" cy="1614" r="200" stroke="black" stroke-width="1" fill="red" id="430623"position="444" name="华容县"/>
<circle cx="6335" cy="5721" r="200" stroke="black" stroke-width="1" fill="red" id="430626" name="平江县"/>
<circle cx="2819" cy="5867" r="200" stroke="black" stroke-width="1" fill="red" id="430624" name="湘阴县"/>
<circle cx="3440" cy="2047" r="200" stroke="black" stroke-width="1" fill="red" id="430611"position="3" name="君山区"/>
<circle cx="4018" cy="2374" r="200" stroke="black" stroke-width="1" fill="red" id="430602" name="岳阳楼区"/>
<circle cx="4753" cy="1861" r="200" stroke="black" stroke-width="1" fill="red" id="430603"position="4" name="云溪区"/>
<path d="" class="polyStyle" id="" style="fill:#ee8b94"/>
<path d="" class="polyStyle" id="623022" style="fill:#fbe6ef"/>
<path d="" class="polyStyle" id="211421" style="fill:#f6f67b"/>
<path d="" class="polyStyle" id="532524" style="fill:#ee8b94"/>
<path d="" class="polyStyle" id="440825" style="fill:#f6f67b"/>
<path d="" class="polyStyle" id="441721" style="fill:#f6f67b"/>
<path d="" class="polyStyle" id="450521" style="fill:#f6f67b"/>
<path d="" class="polyStyle" id="450123" style="fill:#fbe6ef"/>
<path d="" class="polyStyle" id="350624" style="fill:#f6f67b"/>
<path d="" class="polyStyle" id="" style="fill:#fbe6ef"/>
<path d="" class="polyStyle" id="451224" style="fill:#fbe6ef"/>
<path d="" class="polyStyle" id="350627" style="fill:#f6f67b"/>
<path d="" class="polyStyle" id="" style="fill:#f6f67b"/>
<path d="" class="polyStyle" id="350525" style="fill:#f6f67b"/>
<path d="" class="polyStyle" id="530124" style="fill:#ee8b94"/>
<path d="" class="polyStyle" id="522627" style="fill:#ee8b94"/>
<path d="" class="polyStyle" id="510421" style="fill:#fbe6ef"/>
<path d="" class="polyStyle" id="522623" style="fill:#d4ecb2"/>
<path d="" class="polyStyle" id="430321" style="fill:#d4ecb2"/>
<polygon points="3229,3985 3206,4018 3187,4047 3172,4077 3158,4102 3147,4139 3148,4164 3153,4197 3156,4233 3158,4245 3114,4287 3071,4308 3040,4316 3012,4322 2978,4327 2945,4337 2922,4363 2905,4397 2896,4437 2869,4488 2838,4540 2817,4603 2801,4650 2792,4685 2790,4716 2811,4761 2842,4810 2870,4849 2884,4880 2893,4909 2896,4940 2898,4970 2888,5010 2883,5040 2895,5076 2928,5066 2953,5054 2980,5046 3010,5066 3036,5082 3065,5083 3101,5066 3128,5063 3162,5079 3190,5095 3221,5112 3250,5122 3279,5125 3313,5121 3346,5124 3373,5135 3401,5159 3429,5179 3450,5214 3463,5242 3503,5268 3536,5286 3547,5320 3516,5342 3507,5386 3491,5425 3480,5457 3490,5490 3500,5520 3506,5553 3525,5583 3541,5613 3544,5640 3521,5671 3491,5702 3465,5725 3437,5725 3414,5697 3384,5691 3358,5719 3322,5727 3289,5724 3260,5734 3222,5747 3189,5766 3220,5789 3223,5814 3244,5843 3261,5875 3291,5891 3355,5922 3385,5930 3418,5926 3449,5924 3478,5953 3514,5962 3545,5968 3574,5975 3604,5990 3602,6018 3573,6024 3547,6036 3522,6059 3506,6110 3500,6146 3485,6177 3477,6205 3448,6227 3419,6258 3409,6286 3415,6318 3433,6350 3440,6382 3426,6409 3405,6440 3407,6468 3407,6497 3401,6526 3392,6552 3369,6584 3336,6603 3317,6611 3307,6615 3288,6625 3263,6623 3230,6630 3201,6648 3169,6654 3141,6674 3110,6681 3087,6655 3058,6635 3031,6626 3004,6635 2975,6641 2945,6644 2918,6640 2891,6611 2863,6616 2835,6626 2809,6628 2782,6632 2780,6662 2793,6699 2786,6724 2760,6717 2747,6691 2713,6676 2687,6665 2651,6674 2623,6678 2592,6670 2565,6670 2539,6668 2536,6640 2546,6613 2540,6588 2512,6587 2486,6621 2459,6632 2429,6635 2404,6629 2377,6601 2369,6571 2370,6542 2409,6504 2439,6471 2463,6438 2464,6428 2439,6431 2413,6444 2357,6469 2331,6483 2284,6516 2236,6555 2204,6595 2199,6602 2183,6646 2173,6664 2165,6674 2139,6681 2103,6688 2077,6689 2060,6687 2028,6676 2019,6674 2009,6674 1988,6670 1966,6657 1946,6641 1928,6629 1912,6621 1897,6616 1871,6608 1859,6603 1848,6594 1854,6572 1858,6559 1857,6544 1856,6534 1857,6522 1859,6514 1863,6507 1877,6498 1901,6489 1937,6469 1968,6466 1979,6462 1995,6454 2003,6451 2015,6450 2036,6447 2056,6439 2070,6429 2087,6407 2096,6394 2098,6385 2084,6354 2069,6332 2060,6322 2056,6319 2051,6318 2042,6319 2028,6326 2017,6331 2010,6330 2004,6324 1998,6312 1992,6295 1991,6292 1992,6287 1993,6284 1996,6283 2005,6282 2013,6282 2018,6280 2021,6264 2021,6257 2017,6251 2008,6248 1996,6247 1981,6245 1961,6235 1950,6231 1939,6231 1927,6232 1910,6236 1883,6244 1860,6244 1854,6244 1849,6246 1839,6253 1814,6300 1805,6313 1797,6317 1792,6316 1773,6306 1764,6306 1750,6309 1734,6316 1722,6324 1710,6335 1700,6350 1670,6398 1645,6411 1620,6423 1609,6429 1602,6436 1595,6454 1583,6477 1574,6484 1558,6493 1535,6503 1507,6512 1457,6524 1422,6526 1406,6521 1390,6509 1378,6490 1371,6470 1358,6455 1339,6441 1254,6420 1242,6413 1236,6403 1237,6390 1242,6373 1256,6347 1270,6327 1286,6309 1292,6304 1302,6298 1310,6292 1319,6285 1330,6280 1335,6279 1339,6277 1341,6273 1341,6266 1341,6261 1342,6257 1348,6253 1355,6252 1358,6250 1360,6242 1362,6239 1364,6236 1370,6230 1374,6227 1376,6223 1377,6217 1373,6213 1364,6209 1356,6206 1352,6204 1352,6201 1354,6197 1358,6190 1366,6182 1368,6178 1368,6174 1364,6171 1353,6159 1350,6154 1351,6147 1353,6131 1355,6119 1357,6111 1363,6099 1369,6090 1370,6084 1356,6076 1338,6073 1323,6076 1320,6080 1317,6089 1313,6096 1304,6102 1288,6100 1254,6086 1246,6077 1239,6055 1233,6046 1204,6016 1198,6011 1190,6010 1181,6013 1167,6021 1150,6026 1119,6026 1108,6025 1080,6018 1068,6013 1065,6009 1066,6004 1066,5999 1062,5995 1044,5986 1038,5983 1023,5971 991,5958 988,5955 991,5944 999,5935 1023,5905 1031,5893 1037,5880 1050,5845 1053,5827 1050,5764 1055,5736 1065,5711 1072,5701 1079,5695 1086,5690 1095,5688 1117,5685 1134,5681 1159,5669 1184,5655 1193,5647 1201,5636 1203,5620 1202,5614 1199,5609 1188,5594 1181,5578 1182,5575 1189,5572 1219,5568 1224,5568 1239,5573 1248,5574 1259,5571 1273,5560 1303,5539 1337,5520 1353,5516 1362,5516 1368,5514 1374,5511 1382,5511 1424,5515 1436,5506 1426,5492 1428,5479 1428,5451 1484,5399 1498,5375 1507,5352 1511,5337 1516,5330 1520,5329 1524,5334 1533,5344 1540,5345 1550,5343 1559,5340 1567,5334 1583,5319 1608,5308 1614,5300 1614,5288 1616,5284 1623,5281 1643,5281 1659,5282 1670,5279 1679,5269 1684,5267 1714,5278 1744,5274 1759,5270 1781,5263 1788,5258 1794,5249 1796,5242 1796,5237 1792,5233 1787,5229 1784,5222 1784,5212 1786,5203 1789,5189 1789,5165 1782,5156 1762,5138 1753,5128 1743,5092 1741,5066 1726,5041 1740,5015 1763,4988 1769,4961 1775,4935 1800,4896 1823,4859 1854,4833 1884,4832 1912,4826 1941,4822 1968,4817 1997,4814 2027,4812 2059,4808 2084,4802 2111,4794 2137,4779 2165,4761 2198,4748 2237,4738 2270,4723 2294,4693 2339,4666 2382,4657 2410,4656 2446,4633 2492,4622 2556,4600 2592,4584 2630,4564 2673,4538 2716,4503 2748,4472 2769,4433 2785,4395 2802,4352 2814,4326 2837,4291 2860,4258 2878,4244 2894,4218 2928,4191 2965,4174 2991,4158 3019,4135 3045,4117 3069,4091 3085,4065 3102,4028 3123,4001 3147,3969 3175,3931 3247,3924 3241,3960 " class="polyStyle" id="430624" style="fill:#ee8b94"/>
<polygon points="7579,3746 7599,3760 7611,3774 7617,3786 7615,3798 7603,3834 7591,3864 7589,3870 7585,3880 7595,3886 7603,3890 7695,3936 7699,3940 7705,3938 7741,3916 7761,3906 7785,3904 7803,3904 7815,3910 7821,3920 7811,3944 7803,3958 7799,3978 7803,4006 7803,4020 7803,4054 7813,4058 7847,4058 7895,4066 7957,4078 7984,4075 8023,4044 8053,4024 8105,3998 8125,3990 8133,3990 8149,4002 8158,4014 8162,4020 8166,4036 8172,4052 8168,4070 8164,4088 8154,4104 8162,4138 8166,4158 8176,4166 8204,4174 8212,4186 8208,4202 8204,4212 8204,4222 8214,4236 8224,4252 8226,4274 8220,4284 8212,4302 8208,4312 8204,4318 8202,4344 8206,4358 8222,4384 8228,4410 8228,4422 8230,4442 8234,4476 8240,4496 8244,4512 8248,4522 8260,4522 8284,4518 8290,4526 8294,4546 8300,4548 8338,4506 8344,4498 8358,4490 8364,4484 8374,4480 8384,4476 8432,4458 8454,4454 8461,4454 8466,4456 8468,4460 8470,4476 8472,4496 8474,4512 8470,4524 8468,4536 8464,4545 8454,4564 8452,4572 8444,4598 8440,4622 8440,4631 8444,4636 8452,4644 8460,4642 8472,4642 8500,4646 8508,4650 8522,4662 8544,4688 8554,4734 8556,4772 8563,4781 8568,4779 8574,4775 8579,4769 8583,4759 8587,4753 8590,4746 8601,4736 8615,4725 8623,4711 8635,4700 8639,4697 8649,4691 8654,4690 8666,4694 8671,4694 8676,4695 8683,4699 8688,4704 8691,4707 8698,4712 8732,4737 8748,4755 8752,4791 8740,4829 8718,4873 8718,4895 8732,4921 8736,4931 8742,4945 8726,4965 8722,4981 8730,4997 8740,5001 8770,4993 8778,5009 8782,5029 8792,5045 8808,5059 8836,5067 8864,5067 9002,5029 9038,5011 9044,5009 9066,5019 9064,5053 9080,5073 9098,5095 9110,5099 9124,5095 9142,5081 9156,5067 9176,5049 9180,5049 9188,5057 9190,5063 9192,5069 9192,5081 9184,5131 9198,5143 9182,5197 9170,5233 9156,5251 9132,5279 9118,5305 9114,5327 9114,5331 9120,5337 9128,5349 9168,5363 9195,5373 9198,5375 9210,5401 9210,5431 9194,5461 9186,5483 9194,5521 9172,5535 9162,5545 9158,5559 9166,5575 9174,5583 9166,5633 9138,5653 9134,5663 9140,5703 9134,5719 9120,5719 9098,5715 9068,5729 9048,5743 9042,5751 9050,5777 9046,5793 9032,5807 9034,5821 9050,5841 9074,5859 9084,5867 9088,5877 9088,5883 9064,5969 9064,5981 9074,5999 9082,6005 9088,6013 9088,6021 9086,6035 9076,6049 9062,6069 9040,6095 9036,6117 9054,6149 9066,6163 9082,6183 9082,6193 9078,6211 9066,6223 9044,6233 9038,6245 9036,6279 9026,6293 9012,6299 8974,6301 8958,6309 8928,6329 8910,6355 8902,6379 8908,6411 8888,6421 8870,6431 8862,6445 8861,6452 8831,6455 8803,6452 8773,6470 8735,6498 8701,6505 8666,6496 8639,6479 8610,6478 8585,6490 8551,6514 8522,6514 8498,6478 8487,6450 8456,6434 8420,6411 8391,6404 8362,6414 8330,6408 8305,6404 8278,6434 8264,6461 8249,6489 8218,6524 8160,6572 8131,6596 8106,6574 8064,6583 8014,6600 7981,6597 7953,6588 7925,6591 7902,6616 7873,6649 7837,6646 7807,6633 7768,6607 7735,6581 7704,6568 7669,6590 7641,6618 7628,6653 7600,6712 7586,6738 7590,6766 7567,6798 7541,6823 7525,6857 7512,6884 7488,6916 7460,6938 7432,6944 7395,6941 7369,6939 7334,6956 7302,6974 7274,6980 7247,6978 7217,6978 7183,6982 7142,6999 7108,7004 7078,7016 7053,7042 7035,7070 7023,7098 6994,7118 6964,7115 6937,7109 6908,7089 6880,7064 6847,7040 6819,7024 6790,7008 6753,6999 6723,6994 6719,6966 6724,6935 6698,6918 6680,6892 6660,6863 6634,6845 6607,6817 6577,6815 6559,6788 6528,6765 6501,6748 6461,6712 6431,6682 6398,6646 6366,6610 6340,6575 6312,6548 6272,6556 6244,6563 6214,6562 6187,6589 6160,6602 6130,6593 6099,6589 6065,6586 6038,6567 6012,6546 5981,6546 5960,6543 5943,6515 5936,6488 5931,6453 5925,6426 5909,6399 5880,6376 5853,6363 5817,6348 5795,6320 5784,6293 5758,6267 5732,6244 5707,6260 5676,6275 5648,6260 5612,6278 5574,6278 5554,6314 5527,6294 5500,6291 5498,6249 5504,6216 5523,6188 5513,6160 5512,6135 5538,6128 5549,6088 5555,6056 5528,6056 5491,6067 5466,6064 5428,6044 5395,6021 5363,6007 5331,6004 5301,6013 5270,6029 5243,6052 5227,6091 5214,6120 5185,6141 5154,6144 5127,6138 5093,6135 5067,6136 5042,6148 5013,6144 5000,6115 4996,6085 4968,6069 4931,6062 4903,6053 4878,6045 4851,6036 4824,6038 4801,6066 4769,6071 4744,6073 4717,6090 4691,6083 4672,6050 4653,6022 4661,5997 4646,5970 4632,5940 4599,5921 4591,5920 4566,5897 4539,5883 4511,5853 4483,5836 4455,5839 4425,5834 4396,5822 4370,5816 4347,5785 4360,5759 4362,5733 4360,5704 4366,5671 4374,5642 4372,5614 4382,5587 4369,5557 4402,5529 4384,5504 4371,5479 4377,5449 4352,5422 4359,5397 4333,5375 4319,5348 4312,5321 4335,5295 4336,5266 4340,5240 4341,5213 4352,5184 4395,5182 4433,5190 4460,5215 4478,5252 4505,5269 4544,5303 4579,5314 4613,5314 4657,5305 4694,5292 4728,5305 4755,5317 4782,5297 4798,5254 4821,5213 4849,5179 4882,5133 4878,5103 4854,5076 4846,5050 4861,5020 4888,5014 4917,5024 4961,5028 4998,5023 5028,5026 5056,5038 5101,5022 5130,4999 5158,4967 5188,4962 5212,4990 5258,5058 5280,5090 5307,5088 5357,5048 5390,5016 5429,4987 5466,4968 5494,4982 5529,4958 5555,4926 5582,4912 5601,4943 5636,4954 5658,4922 5640,4878 5623,4851 5595,4828 5555,4806 5522,4793 5490,4780 5460,4772 5432,4752 5421,4722 5439,4688 5445,4659 5467,4622 5434,4607 5404,4580 5395,4549 5401,4518 5393,4488 5423,4487 5453,4449 5451,4417 5484,4399 5509,4368 5539,4367 5576,4358 5602,4347 5628,4343 5637,4369 5678,4376 5709,4371 5736,4364 5759,4403 5789,4416 5831,4437 5882,4421 5912,4421 5949,4427 5977,4458 6014,4445 6046,4422 6075,4407 6115,4408 6149,4415 6189,4402 6218,4378 6230,4352 6232,4325 6258,4305 6291,4312 6312,4338 6274,4375 6307,4389 6332,4384 6331,4347 6359,4339 6366,4376 6395,4378 6432,4372 6466,4383 6483,4349 6484,4304 6483,4271 6485,4245 6490,4236 6526,4197 6535,4169 6542,4138 6572,4122 6601,4111 6634,4092 6661,4076 6668,4103 6672,4138 6700,4124 6712,4086 6737,4066 6771,4051 6802,4033 6835,4019 6866,4031 6901,4032 6927,4036 6955,4022 6969,3997 6997,3979 7006,3952 7013,3927 7045,3927 7080,3927 7089,3928 7109,3930 7143,3962 7241,3858 7247,3844 7255,3816 7261,3802 7265,3786 7274,3775 7289,3764 7335,3760 7355,3752 7381,3724 7399,3724 7403,3744 7419,3746 7445,3738 7459,3722 7477,3712 7495,3706 7517,3704 7529,3708 " class="polyStyle" id="430626" style="fill:#d4ecb2"/>
<path d="" class="polyStyle" id="511129" style="fill:#d4ecb2"/>
<polygon points="2596,1719 2699,1812 2759,1849 2814,1872 2856,1880 2886,1886 2913,1908 3027,2014 3102,2058 3121,2068 3138,2069 3177,2069 3204,2096 3247,2153 3278,2183 3343,2237 3374,2262 3387,2269 3393,2284 3404,2316 3411,2323 3406,2334 3399,2356 3406,2373 3419,2389 3419,2398 3408,2427 3407,2485 3410,2510 3420,2518 3433,2516 3462,2493 3488,2471 3488,2452 3491,2435 3497,2435 3502,2446 3506,2476 3511,2497 3526,2496 3548,2470 3547,2440 3535,2389 3533,2364 3545,2346 3568,2331 3617,2310 3734,2267 3791,2234 3827,2227 3867,2224 3913,2207 3995,2163 4097,2095 4119,2033 4130,1979 4142,1984 4148,1984 4151,1983 4160,2056 4123,2124 4065,2176 3945,2251 3860,2286 3858,2344 3833,2426 3803,2506 3780,2576 3765,2604 3758,2631 3790,2661 3815,2691 3830,2736 3838,2761 3841,2777 3865,2781 3897,2775 3910,2771 3914,2823 3914,2872 3919,2887 3934,2895 3961,2889 3993,2876 4005,2881 4013,2901 4000,2911 4000,2924 4010,2929 4028,2939 4038,2964 4070,3011 4088,3036 4104,3036 4113,3034 4130,3027 4159,3026 4186,3042 4210,3053 4220,3053 4227,3043 4218,3020 4220,2987 4225,2976 4200,2941 4178,2919 4170,2896 4193,2886 4193,2866 4185,2849 4193,2831 4220,2836 4238,2851 4270,2854 4290,2843 4330,2850 4508,2930 4531,2936 4598,2936 4664,2936 4692,2947 4778,2994 4838,3028 4896,3035 4943,3024 4996,3024 5022,3028 5015,3032 5037,3058 5076,3074 5103,3095 5122,3121 5112,3174 5109,3218 5140,3230 5165,3225 5196,3214 5243,3207 5276,3187 5322,3208 5361,3208 5391,3223 5429,3249 5474,3251 5500,3235 5530,3209 5556,3187 5584,3158 5607,3130 5629,3098 5659,3084 5707,3067 5734,3053 5760,3026 5794,2996 5806,2963 5784,2931 5803,2897 5833,2878 5862,2860 5888,2858 5925,2884 5952,2923 5991,2926 6017,2925 6051,2909 6083,2887 6104,2860 6130,2846 6162,2834 6190,2841 6214,2874 6249,2888 6279,2879 6319,2875 6346,2870 6381,2878 6412,2900 6437,2942 6459,2950 6511,2950 6509,2972 6523,2994 6537,3004 6549,3008 6559,3002 6569,2972 6575,2968 6595,2976 6623,3004 6637,3030 6661,3032 6671,3074 6649,3088 6701,3110 6715,3116 6735,3124 6751,3130 6765,3084 6787,3066 6811,3058 6823,3052 6839,3052 6853,3054 6863,3064 6881,3088 6887,3102 6879,3134 6877,3148 6885,3168 6893,3196 6893,3226 6889,3240 6883,3250 6859,3284 6831,3306 6797,3342 6775,3350 6769,3354 6765,3358 6753,3378 6749,3398 6733,3426 6735,3430 6761,3438 6785,3452 6765,3476 6765,3496 6769,3520 6791,3548 6831,3560 6839,3574 6829,3604 6833,3616 6847,3622 6865,3626 6871,3676 6869,3700 6857,3776 6853,3792 6849,3818 6853,3826 6867,3838 6881,3842 6887,3842 6911,3834 6949,3814 6957,3808 6965,3800 6967,3794 6995,3742 7017,3716 7035,3708 7039,3706 7057,3708 7075,3714 7083,3722 7063,3768 7053,3800 7053,3816 7083,3850 7065,3872 7080,3927 7045,3927 7013,3927 7006,3952 6997,3979 6969,3997 6955,4022 6927,4036 6901,4032 6866,4031 6835,4019 6802,4033 6771,4051 6737,4066 6712,4086 6700,4124 6672,4138 6668,4103 6661,4076 6634,4092 6601,4111 6572,4122 6542,4138 6535,4169 6526,4197 6490,4236 6485,4245 6483,4271 6484,4304 6483,4349 6466,4383 6432,4372 6395,4378 6366,4376 6359,4339 6331,4347 6332,4384 6307,4389 6274,4375 6312,4338 6291,4312 6258,4305 6232,4325 6230,4352 6218,4378 6189,4402 6149,4415 6115,4408 6075,4407 6046,4422 6014,4445 5977,4458 5949,4427 5912,4421 5882,4421 5831,4437 5789,4416 5759,4403 5736,4364 5709,4371 5678,4376 5637,4369 5628,4343 5602,4347 5576,4358 5539,4367 5509,4368 5484,4399 5451,4417 5453,4449 5423,4487 5393,4488 5392,4485 5371,4455 5358,4440 5344,4409 5313,4412 5287,4407 5253,4381 5227,4359 5176,4367 5147,4372 5120,4371 5086,4366 5072,4338 5064,4304 5028,4278 5001,4265 4976,4262 4949,4290 4923,4300 4890,4303 4863,4302 4838,4289 4806,4273 4779,4271 4747,4291 4721,4300 4688,4286 4662,4287 4635,4296 4634,4328 4639,4357 4606,4385 4577,4407 4549,4425 4521,4429 4490,4449 4455,4467 4425,4451 4398,4448 4372,4471 4359,4439 4355,4410 4326,4405 4300,4424 4273,4445 4244,4442 4216,4433 4190,4436 4166,4405 4125,4393 4094,4392 4062,4369 4022,4337 3995,4316 3966,4308 3939,4306 3910,4299 3872,4278 3839,4251 3832,4244 3807,4221 3785,4193 3752,4195 3720,4186 3691,4203 3661,4203 3635,4188 3605,4155 3577,4158 3544,4149 3513,4152 3485,4132 3456,4130 3427,4137 3392,4130 3370,4105 3358,4074 3354,4046 3351,4017 3346,3981 3342,3952 3317,3934 3286,3923 3261,3923 3247,3924 3175,3931 3154,3921 3117,3908 3114,3865 3097,3833 3073,3794 3066,3767 3056,3707 3061,3678 3060,3646 3057,3610 3058,3571 3051,3521 3055,3489 3046,3445 3003,3436 2974,3432 2941,3435 2893,3427 2859,3398 2833,3395 2801,3396 2772,3400 2745,3403 2699,3404 2666,3414 2616,3425 2587,3431 2552,3427 2518,3434 2485,3437 2437,3444 2427,3443 2421,3443 2413,3440 2412,3434 2417,3423 2443,3390 2488,3341 2514,3316 2524,3306 2531,3296 2537,3272 2535,3264 2530,3258 2521,3253 2508,3251 2469,3248 2430,3248 2412,3251 2405,3252 2397,3256 2384,3264 2379,3269 2373,3276 2371,3279 2337,3309 2350,3289 2358,3259 2370,3222 2375,3193 2385,3157 2395,3127 2401,3096 2406,3065 2413,3035 2418,3005 2426,2978 2433,2951 2441,2926 2451,2897 2456,2862 2461,2835 2473,2800 2475,2771 2479,2740 2491,2707 2503,2669 2511,2633 2526,2602 2543,2565 2553,2539 2565,2499 2580,2464 2600,2428 2618,2400 2629,2371 2638,2333 2643,2307 2643,2279 2632,2247 2629,2215 2621,2188 2616,2161 2607,2128 2600,2103 2593,2068 2607,2034 2594,2008 2578,2008 2563,2006 2526,2009 2511,2022 2491,2054 2476,2069 2466,2073 2456,2066 2448,2059 2444,2042 2413,2011 2410,1985 2383,1980 2351,1992 2315,1997 2283,1966 2298,1939 2327,1918 2333,1893 2328,1860 2345,1821 2381,1797 2409,1784 2439,1760 2469,1732 2503,1705 2538,1684 2561,1689 " class="polyStyle" id="430621" style="fill:#fbe6ef"/>
<polygon points="2890,310 2920,324 2958,344 2974,356 3010,380 3042,398 3048,406 3056,414 3074,454 3078,474 3078,488 3068,538 3058,576 3048,622 3038,686 3048,756 3078,806 3099,825 3121,826 3142,822 3169,798 3218,759 3228,725 3248,677 3260,652 3278,622 3289,586 3294,572 3306,557 3353,522 3438,468 3480,402 3488,394 3498,386 3522,374 3542,376 3556,378 3558,382 3566,386 3572,394 3576,402 3578,412 3574,438 3566,472 3551,518 3539,563 3519,660 3490,713 3454,759 3425,790 3393,818 3336,864 3305,885 3277,907 3202,970 3147,995 3132,1010 3092,1050 3029,1095 2998,1112 2990,1121 2960,1100 2927,1071 2896,1048 2867,1029 2828,1030 2799,1041 2766,1038 2739,1049 2710,1071 2680,1085 2663,1120 2652,1151 2633,1182 2607,1197 2574,1207 2547,1217 2516,1232 2487,1214 2458,1218 2428,1228 2410,1258 2392,1283 2361,1306 2328,1316 2301,1305 2272,1311 2266,1344 2255,1370 2238,1405 2205,1421 2173,1433 2158,1463 2144,1489 2138,1517 2151,1543 2178,1548 2192,1557 2215,1584 2240,1611 2233,1622 2223,1630 2195,1638 2185,1642 2164,1650 2140,1655 2059,1678 2020,1686 1910,1714 1890,1714 1890,1729 1905,1749 1910,1761 1913,1776 1905,1789 1888,1781 1875,1791 1868,1806 1878,1824 1853,1844 1830,1856 1783,1871 1758,1896 1755,1916 1770,1934 1778,1956 1766,1964 1747,1970 1732,1971 1717,1965 1709,1960 1695,1946 1673,1936 1660,1913 1628,1901 1600,1903 1598,1933 1600,1968 1585,1986 1598,2016 1620,2046 1643,2048 1658,2063 1668,2081 1675,2108 1705,2123 1708,2158 1723,2173 1758,2168 1798,2166 1843,2178 1850,2203 1840,2226 1840,2236 1860,2238 1883,2236 1923,2236 1950,2251 1965,2266 1983,2283 2005,2301 2025,2328 2038,2358 2035,2386 2018,2411 2010,2433 2025,2476 2045,2488 2065,2498 2090,2531 2078,2573 2058,2618 2055,2663 2110,2658 2173,2643 2235,2638 2250,2591 2270,2568 2318,2526 2338,2491 2328,2433 2313,2393 2313,2361 2330,2343 2355,2341 2380,2338 2403,2311 2435,2218 2455,2143 2460,2113 2448,2059 2456,2066 2466,2073 2476,2069 2491,2054 2511,2022 2526,2009 2563,2006 2578,2008 2594,2008 2607,2034 2593,2068 2600,2103 2607,2128 2616,2161 2621,2188 2629,2215 2632,2247 2643,2279 2643,2307 2638,2333 2629,2371 2618,2400 2600,2428 2580,2464 2565,2499 2553,2539 2543,2565 2526,2602 2511,2633 2503,2669 2491,2707 2479,2740 2475,2771 2473,2800 2461,2835 2456,2862 2451,2897 2441,2926 2433,2951 2426,2978 2418,3005 2413,3035 2406,3065 2401,3096 2395,3127 2385,3157 2375,3193 2370,3222 2358,3259 2350,3289 2337,3309 2312,3331 2282,3354 2257,3361 2226,3373 2195,3384 2161,3389 2130,3388 2105,3377 2073,3351 2047,3342 2032,3316 2003,3294 1972,3303 1946,3295 1918,3280 1890,3267 1857,3264 1826,3259 1813,3232 1812,3203 1825,3177 1823,3149 1806,3122 1816,3092 1837,3061 1815,3034 1830,3001 1867,2980 1897,2944 1872,2918 1846,2899 1835,2869 1860,2844 1901,2818 1914,2790 1881,2768 1854,2757 1828,2756 1809,2724 1793,2700 1778,2716 1763,2726 1758,2729 1749,2730 1736,2718 1723,2693 1706,2662 1687,2622 1655,2587 1617,2560 1590,2549 1554,2547 1524,2551 1490,2562 1462,2579 1433,2600 1396,2630 1355,2670 1331,2704 1302,2718 1262,2719 1215,2708 1179,2723 1151,2721 1115,2703 1084,2692 1056,2681 1011,2676 985,2678 955,2679 934,2666 906,2631 895,2598 890,2568 874,2528 845,2507 819,2497 770,2475 735,2461 692,2446 666,2436 640,2429 609,2420 584,2405 550,2379 509,2345 473,2316 439,2291 403,2265 374,2234 359,2203 359,2177 367,2150 370,2118 366,2105 345,2090 310,2065 267,2042 259,2031 256,2014 257,1986 255,1958 246,1952 222,1946 201,1956 171,1971 141,1993 115,2009 85,1993 60,1969 59,1940 60,1910 55,1879 46,1851 42,1831 48,1818 63,1782 67,1754 78,1727 79,1700 77,1681 66,1673 41,1658 25,1651 13,1636 5,1624 0,1610 1,1605 4,1602 7,1578 6,1567 15,1543 22,1532 34,1528 88,1518 126,1518 214,1528 252,1532 266,1532 294,1494 308,1474 325,1454 334,1439 342,1433 353,1425 369,1408 381,1414 394,1424 402,1433 414,1428 422,1408 426,1386 492,1306 552,1246 558,1222 560,1178 552,1142 580,1118 634,1082 684,1090 748,1080 780,1074 802,1070 830,1070 858,1078 888,1086 924,1090 930,1094 932,1126 932,1138 934,1146 944,1170 948,1174 956,1182 966,1188 1000,1202 1032,1218 1056,1230 1078,1238 1118,1248 1142,1246 1156,1206 1178,1190 1220,1158 1227,1150 1232,1143 1236,1140 1245,1133 1252,1126 1264,1123 1282,1120 1314,1114 1336,1118 1364,1132 1434,1174 1470,1192 1480,1196 1484,1196 1506,1182 1544,1154 1556,1148 1568,1150 1618,1198 1644,1230 1658,1260 1672,1268 1678,1272 1686,1270 1706,1252 1766,1230 1794,1246 1808,1266 1817,1283 1822,1286 1828,1286 1846,1276 1878,1232 1886,1210 1884,1188 1922,1182 1922,1162 1910,1144 1964,1092 2012,1008 2008,1002 1994,992 1998,978 2006,968 2026,956 2054,946 2066,956 2068,976 2070,990 2078,994 2086,1002 2096,1006 2130,994 2160,970 2170,956 2182,932 2192,926 2200,932 2202,946 2222,942 2228,928 2238,884 2238,880 2248,868 2256,862 2268,852 2302,840 2308,838 2324,836 2340,842 2350,844 2368,844 2372,842 2374,830 2354,806 2346,766 2368,758 2400,752 2410,726 2398,702 2390,676 2390,664 2392,656 2400,648 2450,622 2464,610 2464,598 2450,590 2438,592 2422,600 2398,566 2398,562 2396,553 2405,550 2416,547 2440,535 2485,509 2522,482 2547,463 2584,434 2615,411 2646,386 2656,372 2682,352 2728,322 2750,310 2760,306 2784,296 2828,294 2866,302 " class="polyStyle" id="430623" style="fill:#ee8b94"/>
<polygon points="3030,270 3048,280 3080,314 3088,330 3092,346 3088,356 3084,360 3078,364 3074,370 3044,366 3022,360 2986,334 2968,320 2954,312 2908,292 2884,286 2864,280 2840,276 2837,272 2839,263 2842,256 2854,248 2884,242 2928,234 2940,234 2946,234 2986,250 " class="polyStyle" id="430623" style="fill:#ee8b94"/>
<path d="" class="polyStyle" id="511423" style="fill:#ee8b94"/>
<path d="" class="polyStyle" id="421023" style="fill:#f6f67b"/>
<path d="" class="polyStyle" id="511724" style="fill:#f6f67b"/>
<path d="" class="polyStyle" id="420526" style="fill:#fbe6ef"/>
<path d="" class="polyStyle" id="511923" style="fill:#fbe6ef"/>
<path d="" class="polyStyle" id="420325" style="fill:#fbe6ef"/>
<path d="" class="polyStyle" id="511921" style="fill:#f6f67b"/>
<path d="" class="polyStyle" id="542525" style="fill:#f6f67b"/>
<path d="" class="polyStyle" id="611026" style="fill:#ee8b94"/>
<path d="" class="polyStyle" id="411023" style="fill:#fbe6ef"/>
<path d="" class="polyStyle" id="632323" style="fill:#f6f67b"/>
<path d="" class="polyStyle" id="140525" style="fill:#d4ecb2"/>
<path d="" class="polyStyle" id="410922" style="fill:#ee8b94"/>
<path d="" class="polyStyle" id="621027" style="fill:#ee8b94"/>
<path d="" class="polyStyle" id="130427" style="fill:#f6f67b"/>
<path d="" class="polyStyle" id="130121" style="fill:#ee8b94"/>
<path d="" class="polyStyle" id="610823" style="fill:#fbe6ef"/>
<path d="" class="polyStyle" id="130225" style="fill:#fbe6ef"/>
<path d="" class="polyStyle" id="130322" style="fill:#d4ecb2"/>
<path d="" class="polyStyle" id="653130" style="fill:#f6f67b"/>
<path d="" class="polyStyle" id="130822" style="fill:#fbe6ef"/>
<path d="" class="polyStyle" id="211221" style="fill:#f6f67b"/>
<path d="" class="polyStyle" id="210921" style="fill:#f6f67b"/>
<path d="" class="polyStyle" id="150223" style="fill:#f8c67d"/>
<path d="" class="polyStyle" id="220422" style="fill:#d4ecb2"/>
<path d="" class="polyStyle" id="340721" style="fill:#f6f67b"/>
<path d="" class="polyStyle" id="510824" style="fill:#d4ecb2"/>
<path d="" class="polyStyle" id="610324" style="fill:#f6f67b"/>
<path d="" class="polyStyle" id="530722" style="fill:#ee8b94"/>
<path d="" class="polyStyle" id="340823" style="fill:#d4ecb2"/>
<path d="" class="polyStyle" id="620825" style="fill:#d4ecb2"/>
<path d="" class="polyStyle" id="421125" style="fill:#ee8b94"/>
<path d="" class="polyStyle" id="210281" style="fill:#ee8b94"/>
<path d="" class="polyStyle" id="440883" style="fill:#f6f67b"/>
<path d="" class="polyStyle" id="469006" style="fill:#d4ecb2"/>
<path d="" class="polyStyle" id="469002" style="fill:#ee8b94"/>
<path d="" class="polyStyle" id="469005" style="fill:#fbe6ef"/>
<path d="" class="polyStyle" id="440882" style="fill:#ee8b94"/>
<path d="" class="polyStyle" id="450681" style="fill:#ee8b94"/>
<path d="" class="polyStyle" id="441581" style="fill:#d4ecb2"/>
<polygon points="3342,3952 3346,3981 3351,4017 3354,4046 3358,4074 3370,4105 3392,4130 3427,4137 3456,4130 3485,4132 3513,4152 3544,4149 3577,4158 3605,4155 3635,4188 3661,4203 3691,4203 3720,4186 3752,4195 3785,4193 3807,4221 3832,4244 3839,4251 3872,4278 3910,4299 3939,4306 3966,4308 3995,4316 4022,4337 4062,4369 4094,4392 4125,4393 4166,4405 4190,4436 4216,4433 4244,4442 4273,4445 4300,4424 4326,4405 4355,4410 4359,4439 4372,4471 4398,4448 4425,4451 4455,4467 4490,4449 4521,4429 4549,4425 4577,4407 4606,4385 4639,4357 4634,4328 4635,4296 4662,4287 4688,4286 4721,4300 4747,4291 4779,4271 4806,4273 4838,4289 4863,4302 4890,4303 4923,4300 4949,4290 4976,4262 5001,4265 5028,4278 5064,4304 5072,4338 5086,4366 5120,4371 5147,4372 5176,4367 5227,4359 5253,4381 5287,4407 5313,4412 5344,4409 5358,4440 5371,4455 5392,4485 5393,4488 5401,4518 5395,4549 5404,4580 5434,4607 5467,4622 5445,4659 5439,4688 5421,4722 5432,4752 5460,4772 5490,4780 5522,4793 5555,4806 5595,4828 5623,4851 5640,4878 5658,4922 5636,4954 5601,4943 5582,4912 5555,4926 5529,4958 5494,4982 5466,4968 5429,4987 5390,5016 5357,5048 5307,5088 5280,5090 5258,5058 5212,4990 5188,4962 5158,4967 5130,4999 5101,5022 5056,5038 5028,5026 4998,5023 4961,5028 4917,5024 4888,5014 4861,5020 4846,5050 4854,5076 4878,5103 4882,5133 4849,5179 4821,5213 4798,5254 4782,5297 4755,5317 4728,5305 4694,5292 4657,5305 4613,5314 4579,5314 4544,5303 4505,5269 4478,5252 4460,5215 4433,5190 4395,5182 4352,5184 4341,5213 4340,5240 4336,5266 4335,5295 4312,5321 4319,5348 4333,5375 4359,5397 4352,5422 4377,5449 4371,5479 4384,5504 4402,5529 4369,5557 4382,5587 4372,5614 4374,5642 4366,5671 4360,5704 4362,5733 4360,5759 4347,5785 4370,5816 4396,5822 4425,5834 4455,5839 4483,5836 4511,5853 4539,5883 4566,5897 4591,5920 4591,5948 4597,5973 4592,6002 4562,6015 4530,6028 4505,6038 4488,6065 4494,6092 4500,6124 4465,6153 4438,6180 4409,6191 4377,6214 4349,6222 4342,6250 4358,6292 4371,6318 4356,6349 4344,6375 4381,6391 4406,6414 4422,6443 4401,6471 4390,6497 4392,6528 4366,6559 4350,6593 4344,6631 4339,6666 4348,6694 4335,6721 4308,6737 4294,6763 4276,6790 4277,6816 4251,6839 4222,6855 4194,6874 4162,6873 4134,6866 4105,6869 4078,6872 4066,6847 4073,6817 4081,6786 4081,6754 4053,6730 4019,6727 3982,6732 3949,6720 3919,6693 3891,6692 3858,6698 3848,6669 3829,6636 3796,6609 3767,6625 3756,6655 3746,6687 3727,6718 3699,6732 3672,6767 3646,6793 3630,6804 3605,6798 3601,6797 3573,6806 3545,6826 3521,6857 3490,6882 3465,6891 3439,6900 3414,6909 3383,6923 3354,6923 3328,6903 3294,6901 3262,6878 3236,6852 3242,6824 3267,6791 3283,6765 3310,6745 3305,6719 3298,6693 3316,6664 3318,6635 3317,6611 3336,6603 3369,6584 3392,6552 3401,6526 3407,6497 3407,6468 3405,6440 3426,6409 3440,6382 3433,6350 3415,6318 3409,6286 3419,6258 3448,6227 3477,6205 3485,6177 3500,6146 3506,6110 3522,6059 3547,6036 3573,6024 3602,6018 3604,5990 3574,5975 3545,5968 3514,5962 3478,5953 3449,5924 3418,5926 3385,5930 3355,5922 3291,5891 3261,5875 3244,5843 3223,5814 3220,5789 3189,5766 3222,5747 3260,5734 3289,5724 3322,5727 3358,5719 3384,5691 3414,5697 3437,5725 3465,5725 3491,5702 3521,5671 3544,5640 3541,5613 3525,5583 3506,5553 3500,5520 3490,5490 3480,5457 3491,5425 3507,5386 3516,5342 3547,5320 3536,5286 3503,5268 3463,5242 3450,5214 3429,5179 3401,5159 3373,5135 3346,5124 3313,5121 3279,5125 3250,5122 3221,5112 3190,5095 3162,5079 3128,5063 3101,5066 3065,5083 3036,5082 3010,5066 2980,5046 2953,5054 2928,5066 2895,5076 2883,5040 2888,5010 2898,4970 2896,4940 2893,4909 2884,4880 2870,4849 2842,4810 2811,4761 2790,4716 2792,4685 2801,4650 2817,4603 2838,4540 2869,4488 2896,4437 2905,4397 2922,4363 2945,4337 2978,4327 3012,4322 3040,4316 3071,4308 3114,4287 3158,4245 3156,4233 3153,4197 3148,4164 3147,4139 3158,4102 3172,4077 3187,4047 3206,4018 3229,3985 3241,3960 3247,3924 3261,3923 3286,3923 3317,3934 " class="polyStyle" id="430681" style="fill:#f6f67b"/>
<polygon points="6335,61 6331,70 6327,77 6321,84 6316,92 6312,99 6310,106 6309,113 6309,120 6312,128 6311,133 6311,137 6307,143 6302,148 6292,157 6286,161 6279,164 6268,166 6260,168 6253,171 6252,177 6253,182 6255,185 6261,187 6269,187 6280,184 6290,183 6296,185 6299,189 6299,194 6295,197 6286,202 6279,206 6274,211 6265,222 6259,231 6253,239 6250,244 6246,255 6241,267 6238,274 6241,280 6253,287 6258,289 6262,293 6262,299 6260,302 6252,306 6241,310 6232,316 6226,323 6220,333 6217,340 6214,347 6210,354 6202,362 6197,366 6192,377 6188,388 6189,394 6192,402 6198,407 6200,411 6202,419 6202,425 6196,450 6195,468 6197,480 6198,484 6196,495 6184,524 6172,554 6152,622 6136,686 6126,718 6114,736 6112,744 6112,754 6116,772 6140,812 6156,830 6170,842 6204,862 6226,870 6238,872 6256,872 6268,868 6296,858 6314,860 6338,868 6362,871 6395,875 6428,879 6446,891 6462,894 6473,891 6489,882 6502,881 6521,883 6527,883 6533,882 6540,880 6548,879 6558,879 6566,879 6576,880 6586,882 6596,882 6604,880 6610,878 6615,875 6623,871 6633,871 6639,869 6644,864 6648,858 6651,850 6656,843 6661,836 6668,831 6677,821 6683,816 6690,814 6696,815 6703,815 6713,816 6722,814 6731,812 6741,810 6745,816 6743,830 6742,837 6743,843 6747,850 6752,858 6756,861 6760,867 6767,877 6770,885 6768,892 6765,899 6762,908 6763,916 6768,924 6775,933 6780,943 6785,952 6788,965 6796,985 6799,991 6804,996 6811,1002 6818,1006 6821,1010 6823,1020 6823,1024 6816,1029 6808,1028 6801,1025 6790,1025 6786,1026 6778,1030 6777,1034 6779,1038 6786,1045 6792,1048 6801,1051 6805,1052 6811,1055 6819,1055 6825,1055 6832,1054 6837,1050 6841,1047 6848,1041 6860,1032 6865,1033 6871,1036 6876,1038 6883,1040 6892,1040 6897,1043 6897,1049 6889,1056 6886,1062 6887,1066 6888,1070 6894,1072 6902,1071 6909,1070 6920,1067 6928,1064 6934,1064 6941,1064 6945,1070 6946,1073 6947,1080 6945,1088 6944,1094 6944,1108 6944,1115 6944,1121 6945,1130 6947,1139 6949,1146 6949,1156 6949,1165 6953,1173 6957,1178 6964,1186 6967,1189 6971,1190 6980,1187 6990,1181 6996,1178 7006,1176 7015,1175 7025,1176 7032,1181 7037,1189 7041,1197 7045,1205 7047,1213 7050,1220 7052,1227 7057,1235 7062,1240 7068,1248 7073,1254 7080,1260 7086,1264 7091,1266 7097,1266 7108,1261 7114,1261 7118,1263 7121,1268 7122,1273 7122,1280 7122,1285 7121,1290 7118,1295 7116,1302 7114,1310 7114,1318 7113,1323 7112,1330 7110,1334 7107,1339 7101,1345 7094,1349 7085,1353 7076,1355 7068,1356 7063,1357 7060,1356 7042,1364 7024,1375 7003,1384 6997,1392 6996,1405 6992,1409 6988,1410 6983,1413 6977,1418 6976,1423 6976,1429 6976,1435 6974,1443 6972,1448 6968,1456 6959,1462 6953,1465 6942,1468 6934,1468 6932,1461 6932,1455 6929,1452 6924,1453 6918,1456 6915,1464 6913,1470 6908,1475 6904,1477 6897,1478 6889,1480 6881,1484 6872,1489 6860,1492 6852,1492 6836,1491 6829,1492 6822,1494 6818,1497 6817,1500 6819,1512 6822,1520 6823,1528 6823,1534 6819,1536 6815,1537 6806,1537 6799,1538 6792,1541 6785,1545 6778,1549 6769,1551 6762,1552 6757,1552 6750,1552 6741,1551 6736,1550 6728,1550 6720,1549 6714,1551 6710,1553 6706,1556 6704,1559 6702,1564 6700,1570 6697,1575 6691,1580 6684,1583 6677,1586 6671,1586 6661,1586 6656,1586 6648,1585 6644,1584 6640,1586 6637,1589 6634,1594 6632,1599 6629,1601 6624,1602 6618,1604 6612,1605 6607,1606 6602,1608 6596,1611 6590,1613 6587,1616 6583,1619 6581,1622 6580,1626 6580,1631 6580,1635 6581,1640 6583,1644 6587,1647 6590,1651 6593,1654 6595,1659 6595,1664 6594,1667 6594,1672 6593,1676 6593,1684 6593,1690 6606,1688 6618,1688 6628,1691 6639,1693 6647,1695 6655,1696 6662,1697 6669,1697 6675,1697 6680,1696 6684,1694 6689,1693 6693,1690 6695,1686 6698,1683 6702,1682 6706,1682 6709,1682 6713,1683 6717,1685 6721,1688 6724,1689 6730,1688 6735,1686 6738,1684 6744,1684 6750,1685 6755,1684 6762,1682 6768,1679 6775,1676 6779,1674 6783,1674 6786,1676 6788,1679 6791,1680 6794,1680 6797,1679 6802,1677 6807,1673 6810,1672 6815,1670 6820,1670 6831,1670 6838,1671 6845,1672 6855,1676 6864,1683 6870,1692 6877,1701 6884,1708 6891,1713 6899,1718 6902,1722 6905,1732 6906,1742 6906,1749 6910,1758 6917,1763 6921,1771 6924,1776 6928,1781 6933,1785 6939,1789 6949,1793 6957,1798 6967,1804 6972,1811 6979,1818 6987,1823 6995,1828 7002,1833 7012,1837 7018,1841 7024,1846 7027,1851 7031,1857 7038,1862 7044,1864 7052,1867 7062,1870 7073,1873 7086,1877 7098,1878 7106,1879 7110,1879 7129,1881 7141,1882 7147,1892 7139,1908 7149,1924 7195,1982 7199,1996 7195,2008 7187,2028 7177,2038 7131,2072 7121,2080 7115,2082 7107,2090 7107,2098 7121,2116 7133,2140 7135,2152 7105,2214 7081,2242 7071,2250 7051,2266 7035,2276 7025,2276 6989,2256 6951,2258 6923,2264 6897,2266 6857,2266 6815,2274 6775,2302 6767,2312 6753,2328 6731,2384 6737,2422 6731,2466 6733,2472 6753,2492 6759,2504 6749,2516 6739,2548 6723,2564 6689,2576 6673,2580 6657,2586 6651,2588 6615,2604 6603,2616 6593,2630 6581,2650 6573,2668 6567,2680 6565,2688 6565,2696 6565,2722 6563,2732 6557,2746 6545,2762 6541,2774 6519,2796 6497,2816 6497,2828 6499,2854 6493,2864 6460,2893 6451,2934 6455,2944 6459,2950 6437,2942 6412,2900 6381,2878 6346,2870 6319,2875 6279,2879 6249,2888 6214,2874 6190,2841 6162,2834 6130,2846 6104,2860 6083,2887 6051,2909 6017,2925 5991,2926 5952,2923 5925,2884 5888,2858 5862,2860 5833,2878 5803,2897 5784,2931 5806,2963 5794,2996 5760,3026 5734,3053 5707,3067 5659,3084 5629,3098 5607,3130 5584,3158 5556,3187 5530,3209 5500,3235 5474,3251 5429,3249 5391,3223 5361,3208 5322,3208 5276,3187 5243,3207 5196,3214 5165,3225 5140,3230 5109,3218 5112,3174 5122,3121 5103,3095 5076,3074 5037,3058 5015,3032 5022,3028 5040,3020 5081,2996 5086,2966 5088,2933 5114,2912 5133,2881 5153,2856 5173,2836 5193,2819 5183,2769 5161,2719 5156,2699 5121,2684 5111,2659 5091,2646 5061,2649 5043,2636 5018,2629 4991,2621 4981,2611 4986,2584 4991,2551 4983,2524 4996,2506 5000,2502 5008,2497 5038,2489 5053,2477 5066,2453 5076,2439 5087,2444 5098,2451 5112,2442 5116,2431 5111,2418 5091,2340 5062,2277 5056,2258 5068,2236 5077,2222 5070,2205 5063,2194 5050,2193 5021,2191 5009,2180 5000,2157 5018,2141 5030,2136 5035,2141 5042,2153 5055,2159 5090,2159 5123,2114 5131,2096 5130,2076 5128,2056 5138,2046 5168,2064 5203,2091 5228,2074 5245,2054 5250,2045 5263,2051 5308,2076 5335,2069 5370,2039 5355,2009 5328,1969 5317,1945 5300,1939 5278,1949 5220,1949 5212,1930 5218,1911 5240,1881 5244,1857 5230,1846 5214,1839 5210,1821 5195,1813 5166,1814 5146,1818 5112,1818 5093,1813 5080,1799 5085,1789 5118,1791 5160,1789 5180,1784 5235,1776 5254,1769 5260,1744 5270,1696 5293,1669 5303,1655 5323,1649 5340,1664 5353,1660 5370,1641 5387,1626 5413,1619 5438,1599 5446,1584 5463,1586 5506,1603 5532,1606 5567,1608 5586,1607 5593,1598 5587,1577 5584,1566 5591,1547 5588,1533 5577,1527 5557,1522 5520,1501 5480,1486 5433,1464 5409,1451 5393,1454 5379,1457 5360,1444 5349,1426 5360,1414 5390,1415 5398,1409 5403,1384 5425,1394 5450,1390 5463,1364 5468,1331 5495,1301 5528,1271 5535,1241 5537,1235 5548,1246 5554,1249 5570,1236 5582,1223 5583,1209 5575,1186 5558,1179 5533,1186 5520,1196 5510,1194 5508,1169 5505,1134 5490,1123 5475,1129 5457,1138 5438,1129 5408,1114 5408,1136 5415,1156 5413,1186 5405,1210 5393,1224 5368,1223 5358,1231 5347,1241 5328,1224 5278,1171 5240,1136 5222,1135 5208,1146 5185,1171 5175,1138 5175,1091 5168,1061 5147,1065 5133,1081 5112,1107 5088,1136 5043,1141 4995,1111 4964,1101 4966,1098 4980,1080 5004,1052 5018,1034 5021,1030 5034,1016 5054,990 5094,944 5118,916 5126,904 5166,854 5210,812 5276,754 5354,688 5436,612 5486,572 5506,544 5545,517 5572,504 5616,478 5624,476 5634,472 5668,460 5690,446 5756,398 5826,350 5884,306 5938,260 5966,228 5992,196 6012,170 6038,136 6070,114 6114,94 6144,78 6176,56 6198,38 6254,10 6282,-1 6316,40 " class="polyStyle" id="430682" style="fill:#ee8b94"/>
<path d="" class="polyStyle" id="421087" style="fill:#ee8b94"/>
<path d="" class="polyStyle" id="420984" style="fill:#fbe6ef"/>
<path d="" class="polyStyle" id="420582" style="fill:#ee8b94"/>
<path d="" class="polyStyle" id="370282" style="fill:#f6f67b"/>
<path d="" class="polyStyle" id="371083" style="fill:#f6f67b"/>
<path d="" class="polyStyle" id="371082" style="fill:#fbe6ef"/>
<path d="" class="polyStyle" id="652801" style="fill:#f8c67d"/>
<path d="" class="polyStyle" id="654301" style="fill:#ee8b94"/>
<path d="" class="polyStyle" id="370687" style="fill:#ee8b94"/>
<path d="" class="polyStyle" id="371482" style="fill:#d4ecb2"/>
<path d="" class="polyStyle" id="421081" style="fill:#fbe6ef"/>
<path d="" class="polyStyle" id="429006" style="fill:#f6f67b"/>
<path d="" class="polyStyle" id="440982" style="fill:#d4ecb2"/>
<path d="" class="polyStyle" id="421181" style="fill:#d4ecb2"/>
<path d="" class="polyStyle" id="321181" style="fill:#d4ecb2"/>
<path d="" class="polyStyle" id="659007" style="fill:#ee8b94"/>
<path d="" class="polyStyle" id="652701" style="fill:#fbe6ef"/>
<path d="" class="polyStyle" id="210781" style="fill:#fbe6ef"/>
<path d="" class="polyStyle" id="460204" style="fill:#f6f67b"/>
<path d="" class="polyStyle" id="210211" style="fill:#f6f67b"/>
<path d="" class="polyStyle" id="450512" style="fill:#ee8b94"/>
<path d="" class="polyStyle" id="450602" style="fill:#fbe6ef"/>
<path d="" class="polyStyle" id="440404" style="fill:#ee8b94"/>
<path d="" class="polyStyle" id="440403" style="fill:#f6f67b"/>
<path d="" class="polyStyle" id="441502" style="fill:#f6f67b"/>
<path d="" class="polyStyle" id="431002" style="fill:#d4ecb2"/>
<polygon points="4278,2034 4293,2049 4345,2056 4410,2074 4425,2076 4423,2104 4423,2136 4438,2174 4425,2191 4445,2209 4455,2241 4488,2264 4538,2264 4607,2250 4618,2247 4623,2234 4630,2228 4640,2236 4652,2245 4668,2244 4692,2245 4703,2259 4713,2291 4735,2284 4743,2264 4763,2259 4775,2244 4786,2240 4800,2249 4815,2259 4818,2231 4828,2213 4845,2206 4915,2194 4988,2169 5000,2157 5009,2180 5021,2191 5050,2193 5063,2194 5070,2205 5077,2222 5068,2236 5056,2258 5062,2277 5091,2340 5111,2418 5116,2431 5112,2442 5098,2451 5087,2444 5076,2439 5066,2453 5053,2477 5038,2489 5008,2497 5000,2502 4996,2506 4983,2524 4991,2551 4986,2584 4981,2611 4991,2621 5018,2629 5043,2636 5061,2649 5091,2646 5111,2659 5121,2684 5156,2699 5161,2719 5183,2769 5193,2819 5173,2836 5153,2856 5133,2881 5114,2912 5088,2933 5086,2966 5081,2996 5040,3020 5022,3028 4996,3024 4943,3024 4896,3035 4838,3028 4778,2994 4692,2947 4664,2936 4598,2936 4531,2936 4508,2930 4330,2850 4290,2843 4270,2854 4238,2851 4220,2836 4193,2831 4185,2849 4193,2866 4193,2886 4170,2896 4178,2919 4200,2941 4225,2976 4220,2987 4218,3020 4227,3043 4220,3053 4210,3053 4186,3042 4159,3026 4130,3027 4113,3034 4104,3036 4088,3036 4070,3011 4038,2964 4028,2939 4010,2929 4000,2924 4000,2911 4013,2901 4005,2881 3993,2876 3961,2889 3934,2895 3919,2887 3914,2872 3914,2823 3910,2771 3897,2775 3865,2781 3841,2777 3838,2761 3830,2736 3815,2691 3790,2661 3758,2631 3765,2604 3780,2576 3803,2506 3833,2426 3858,2344 3860,2286 3945,2251 4065,2176 4123,2124 4160,2056 4151,1983 4166,1980 4178,1972 4192,1957 4250,2009 " class="polyStyle" id="430602" style="fill:#d4ecb2"/>
<path d="" class="polyStyle" id="500107" style="fill:#fbe6ef"/>
<polygon points="5175,1138 5185,1171 5208,1146 5222,1135 5240,1136 5278,1171 5328,1224 5347,1241 5358,1231 5368,1223 5393,1224 5405,1210 5413,1186 5415,1156 5408,1136 5408,1114 5438,1129 5457,1138 5475,1129 5490,1123 5505,1134 5508,1169 5510,1194 5520,1196 5533,1186 5558,1179 5575,1186 5583,1209 5582,1223 5570,1236 5554,1249 5548,1246 5537,1235 5535,1241 5528,1271 5495,1301 5468,1331 5463,1364 5450,1390 5425,1394 5403,1384 5398,1409 5390,1415 5360,1414 5349,1426 5360,1444 5379,1457 5393,1454 5409,1451 5433,1464 5480,1486 5520,1501 5557,1522 5577,1527 5588,1533 5591,1547 5584,1566 5587,1577 5593,1598 5586,1607 5567,1608 5532,1606 5506,1603 5463,1586 5446,1584 5438,1599 5413,1619 5387,1626 5370,1641 5353,1660 5340,1664 5323,1649 5303,1655 5293,1669 5270,1696 5260,1744 5254,1769 5235,1776 5180,1784 5160,1789 5118,1791 5085,1789 5080,1799 5093,1813 5112,1818 5146,1818 5166,1814 5195,1813 5210,1821 5214,1839 5230,1846 5244,1857 5240,1881 5218,1911 5212,1930 5220,1949 5278,1949 5300,1939 5317,1945 5328,1969 5355,2009 5370,2039 5335,2069 5308,2076 5263,2051 5250,2045 5245,2054 5228,2074 5203,2091 5168,2064 5138,2046 5128,2056 5130,2076 5131,2096 5123,2114 5090,2159 5055,2159 5042,2153 5035,2141 5030,2136 5018,2141 5000,2157 4988,2169 4915,2194 4845,2206 4828,2213 4818,2231 4815,2259 4800,2249 4786,2240 4775,2244 4763,2259 4743,2264 4735,2284 4713,2291 4703,2259 4692,2245 4668,2244 4652,2245 4640,2236 4630,2228 4623,2234 4618,2247 4607,2250 4538,2264 4488,2264 4455,2241 4445,2209 4425,2191 4438,2174 4423,2136 4423,2104 4425,2076 4410,2074 4345,2056 4293,2049 4278,2034 4250,2009 4192,1957 4198,1952 4234,1918 4270,1878 4312,1838 4324,1824 4362,1772 4380,1744 4394,1720 4408,1702 4438,1678 4470,1640 4530,1548 4560,1516 4598,1482 4648,1444 4664,1434 4702,1416 4720,1402 4752,1376 4768,1358 4776,1348 4787,1313 4804,1272 4848,1232 4902,1194 4934,1156 4950,1126 4962,1104 4964,1101 4995,1111 5043,1141 5088,1136 5112,1107 5133,1081 5147,1065 5168,1061 5175,1091 " class="polyStyle" id="430603" style="fill:#fbe6ef"/>
<path d="M2896,1048 L2927,1071 L2960,1100 L2990,1121 L2986,1128 L2983,1152 L2987,1175 L2998,1222 L3023,1313 L3041,1364 L3074,1491 L3108,1591 L3122,1686 L3126,1780 L3133,1821 L3149,1852 L3164,1875 L3191,1899 L3214,1909 L3246,1907 L3271,1896 L3311,1808 L3324,1788 L3353,1764 L3457,1678 L3548,1630 L3639,1607 L3705,1618 L3738,1642 L3749,1679 L3754,1702 L3768,1752 L3784,1803 L3793,1836 L3793,1907 L3794,1982 L3806,2038 L3820,2057 L3842,2079 L3879,2075 L3910,2060 L3922,2024 L3920,1993 L3907,1951 L3899,1935 L3928,1934 L3956,1938 L3966,1944 L3974,1948 L3996,1954 L4020,1954 L4070,1948 L4078,1948 L4082,1950 L4126,1978 L4130,1979 L4119,2033 L4097,2095 L3995,2163 L3913,2207 L3867,2224 L3827,2227 L3791,2234 L3734,2267 L3617,2310 L3568,2331 L3545,2346 L3533,2364 L3535,2389 L3547,2440 L3548,2470 L3526,2496 L3511,2497 L3506,2476 L3502,2446 L3497,2435 L3491,2435 L3488,2452 L3488,2471 L3462,2493 L3433,2516 L3420,2518 L3410,2510 L3407,2485 L3408,2427 L3419,2398 L3419,2389 L3406,2373 L3399,2356 L3406,2334 L3411,2323 L3404,2316 L3393,2284 L3387,2269 L3374,2262 L3343,2237 L3278,2183 L3247,2153 L3204,2096 L3177,2069 L3138,2069 L3121,2068 L3102,2058 L3027,2014 L2913,1908 L2886,1886 L2856,1880 L2814,1872 L2759,1849 L2699,1812 L2596,1719 L2561,1689 L2538,1684 L2503,1705 L2469,1732 L2439,1760 L2409,1784 L2381,1797 L2345,1821 L2328,1860 L2333,1893 L2327,1918 L2298,1939 L2283,1966 L2315,1997 L2351,1992 L2383,1980 L2410,1985 L2413,2011 L2444,2042 L2448,2059 L2460,2113 L2455,2143 L2435,2218 L2403,2311 L2380,2338 L2355,2341 L2330,2343 L2313,2361 L2313,2393 L2328,2433 L2338,2491 L2318,2526 L2270,2568 L2250,2591 L2235,2638 L2173,2643 L2110,2658 L2055,2663 L2058,2618 L2078,2573 L2090,2531 L2065,2498 L2045,2488 L2025,2476 L2010,2433 L2018,2411 L2035,2386 L2038,2358 L2025,2328 L2005,2301 L1983,2283 L1965,2266 L1950,2251 L1923,2236 L1883,2236 L1860,2238 L1840,2236 L1840,2226 L1850,2203 L1843,2178 L1798,2166 L1758,2168 L1723,2173 L1708,2158 L1705,2123 L1675,2108 L1668,2081 L1658,2063 L1643,2048 L1620,2046 L1598,2016 L1585,1986 L1600,1968 L1598,1933 L1600,1903 L1628,1901 L1660,1913 L1673,1936 L1695,1946 L1709,1960 L1717,1965 L1732,1971 L1747,1970 L1766,1964 L1778,1956 L1770,1934 L1755,1916 L1758,1896 L1783,1871 L1830,1856 L1853,1844 L1878,1824 L1868,1806 L1875,1791 L1888,1781 L1905,1789 L1913,1776 L1910,1761 L1905,1749 L1890,1729 L1890,1714 L1910,1714 L2020,1686 L2059,1678 L2140,1655 L2164,1650 L2185,1642 L2195,1638 L2223,1630 L2233,1622 L2240,1611 L2215,1584 L2192,1557 L2178,1548 L2151,1543 L2138,1517 L2144,1489 L2158,1463 L2173,1433 L2205,1421 L2238,1405 L2255,1370 L2266,1344 L2272,1311 L2301,1305 L2328,1316 L2361,1306 L2392,1283 L2410,1258 L2428,1228 L2458,1218 L2487,1214 L2516,1232 L2547,1217 L2574,1207 L2607,1197 L2633,1182 L2652,1151 L2663,1120 L2680,1085 L2710,1071 L2739,1049 L2766,1038 L2799,1041 L2828,1030 L2867,1029 L2896,1048z M3944,2094 L3976,2094 L4000,2100 L4008,2104 L4039,2122 L4031,2127 L4004,2144 L3989,2156 L3976,2145 L3959,2135 L3956,2130 L3944,2098 L3944,2094z " class="polyStyle" id="430611" style="fill:#d4ecb2"/>
<path d="" class="polyStyle" id="511304" style="fill:#fbe6ef"/>
<path d="" class="polyStyle" id="340711" style="fill:#ee8b94"/>
<path d="" class="polyStyle" id="320118" style="fill:#f6f67b"/>
<path d="" class="polyStyle" id="510704" style="fill:#f6f67b"/>
<path d="" class="polyStyle" id="411502" style="fill:#ee8b94"/>
<path d="" class="polyStyle" id="320302" style="fill:#d4ecb2"/>
<path d="" class="polyStyle" id="140311" style="fill:#ee8b94"/>
<path d="" class="polyStyle" id="610802" style="fill:#ee8b94"/>
<path d="" class="polyStyle" id="120116" style="fill:#f6f67b"/>
<path d="" class="polyStyle" id="130303" style="fill:#fbe6ef"/>
<path d="" class="polyStyle" id="140211" style="fill:#f6f67b"/>
<path d="" class="polyStyle" id="150207" style="fill:#fbe6ef"/>
<path d="" class="polyStyle" id="211403" style="fill:#f6f67b"/>
<path d="" class="polyStyle" id="150802" style="fill:#f8c67d"/>
<path d="" class="polyStyle" id="210112" style="fill:#ee8b94"/>
<path d="" class="polyStyle" id="230406" style="fill:#d4ecb2"/>
<path d="" class="polyStyle" id="110113" style="fill:#fbe6ef"/>
<path d="" class="polyStyle" id="341702" style="fill:#fbe6ef"/>
<path d="" class="polyStyle" id="420303" style="fill:#ee8b94"/>
<path d="" class="polyStyle" id="340702" style="fill:#d4ecb2"/>
<path d="" class="polyStyle" id="421002" style="fill:#f6f67b"/>
<path d="" class="polyStyle" id="420117" style="fill:#f6f67b"/>
<path d="" class="polyStyle" id="440904" style="fill:#f8c67d"/>
<path d="" class="polyStyle" id="460205" style="fill:#ee8b94"/>
<path d="" class="polyStyle" id="460202" style="fill:#f6f67b"/>
<path d="" class="polyStyle" id="460203" style="fill:#fbe6ef"/>
<path d="" class="polyStyle" id="420304" style="fill:#f6f67b"/>
<path d="" class="polyStyle" id="445302" style="fill:#ee8b94"/>
<path d="" class="polyStyle" id="410202" style="fill:#d4ecb2"/>
<path d="" class="polyStyle" id="440800" style="fill:#f6f67b"/>
<path d="" class="polyStyle" id="440900" style="fill:#ee8b94"/>
<path d="" class="polyStyle" id="340800" style="fill:#ee8b94"/>
<path d="" class="polyStyle" id="460200" style="fill:#f6f67b"/>
<path d="" class="polyStyle" id="460000" style="fill:#ee8b94"/>
<path d="" class="polyStyle" id="450500" style="fill:#ee8b94"/>
<path d="" class="polyStyle" id="450600" style="fill:#ee8b94"/>
<path d="" class="polyStyle" id="440400" style="fill:#f6f67b"/>
<path d="" class="polyStyle" id="441700" style="fill:#f6f67b"/>
<path d="" class="polyStyle" id="441500" style="fill:#f6f67b"/>
<path d="" class="polyStyle" id="350600" style="fill:#ee8b94"/>
<path d="" class="polyStyle" id="710000" style="fill:#f6f67b"/>
<path d="" class="polyStyle" id="510400" style="fill:#f6f67b"/>
<path d="" class="polyStyle" id="522600" style="fill:#fbe6ef"/>
<path d="" class="polyStyle" id="520500" style="fill:#ee8b94"/>
<path d="" class="polyStyle" id="431200" style="fill:#f6f67b"/>
<path d="" class="polyStyle" id="430600" style="fill:#f6f67b"/>
<path d="" class="polyStyle" id="511400" style="fill:#d4ecb2"/>
<path d="" class="polyStyle" id="421000" style="fill:#ee8b94"/>
<path d="" class="polyStyle" id="341700" style="fill:#f6f67b"/>
<path d="" class="polyStyle" id="420500" style="fill:#f6f67b"/>
<path d="" class="polyStyle" id="511300" style="fill:#f6f67b"/>
<path d="" class="polyStyle" id="420900" style="fill:#f6f67b"/>
<path d="" class="polyStyle" id="511700" style="fill:#ee8b94"/>
<path d="" class="polyStyle" id="420600" style="fill:#d4ecb2"/>
<path d="" class="polyStyle" id="411500" style="fill:#fbe6ef"/>
<path d="" class="polyStyle" id="510800" style="fill:#ee8b94"/>
<path d="" class="polyStyle" id="420300" style="fill:#fbe6ef"/>
<path d="" class="polyStyle" id="611000" style="fill:#ee8b94"/>
<path d="" class="polyStyle" id="620800" style="fill:#fbe6ef"/>
<path d="" class="polyStyle" id="370200" style="fill:#ee8b94"/>
<path d="" class="polyStyle" id="371000" style="fill:#f6f67b"/>
<path d="" class="polyStyle" id="370600" style="fill:#fbe6ef"/>
<path d="" class="polyStyle" id="120000" style="fill:#f6f67b"/>
<path d="" class="polyStyle" id="130200" style="fill:#ee8b94"/>
<path d="" class="polyStyle" id="130300" style="fill:#f6f67b"/>
<path d="" class="polyStyle" id="652900" style="fill:#fbe6ef"/>
<path d="" class="polyStyle" id="150500" style="fill:#d4ecb2"/>
<path d="" class="polyStyle" id="" style="fill:#d4ecb2"/>
<path d="" class="polyStyle" id="350500" style="fill:#fbe6ef"/>
<path d="" class="polyStyle" id="440400" style="fill:#f6f67b"/>
<path d="" class="polyStyle" id="421100" style="fill:#d4ecb2"/>
<path d="" class="polyStyle" id="420100" style="fill:#fbe6ef"/>
<path d="" class="polyStyle" id="532500" style="fill:#fbe6ef"/>
<path d="" class="polyStyle" id="654200" style="fill:#fbe6ef"/>
<path d="" class="polyStyle" id="210700" style="fill:#d4ecb2"/>
<path d="" class="polyStyle" id="522300" style="fill:#fbe6ef"/>
<path d="" class="polyStyle" id="" style="fill:#ee8b94"/>
<path d="" class="polyStyle" id="440400" style="fill:#f6f67b"/>
<path d="" class="polyStyle" id="620000" style="fill:#f6f67b"/>
<path d="" class="polyStyle" id="430000" style="fill:#fbe6ef"/>
<path d="" class="polyStyle" id="420000" style="fill:#ee8b94"/>
<path d="" class="polyStyle" id="410000" style="fill:#f6f67b"/>
<path d="" class="polyStyle" id="350000" style="fill:#fbe6ef"/>
<path d="" class="polyStyle" id="520000" style="fill:#f6f67b"/>
<path d="" class="polyStyle" id="" style="fill:#ee8b94"/>
</svg>
