<?xml version="1.0" encoding="UTF-8"?>
<!DOCTYPE svg PUBLIC "-//W3C//DTD SVG 1.1 Tiny//EN" "http://www.w3.org/Graphics/SVG/1.1/DTD/svg11-tiny.dtd">
<svg version="1.1" xmlns="http://www.w3.org/2000/svg" xmlns:xlink="http://www.w3.org/1999/xlink" width="100%" height="100%" viewBox="0,0,8181,4609">
<title>SVG</title>
<desc>Poligon Test</desc>
<style id="style_css_sheet" type="text/css">
.polyStyle{fill: #cccccc;stroke-width:0;fill-rule:evenodd;}
</style>
<circle cx="7159" cy="1810" r="200" stroke="black" stroke-width="1" fill="red" id="430821" name="慈利县"/>
<circle cx="2321" cy="1965" r="200" stroke="black" stroke-width="1" fill="red" id="430822" name="桑植县"/>
<circle cx="3945" cy="3319" r="200" stroke="black" stroke-width="1" fill="red" id="430802" name="永定区"/>
<circle cx="4251" cy="2222" r="200" stroke="black" stroke-width="1" fill="red" id="430811"position="14" name="武陵源区"/>
<path d="" class="polyStyle" id="" style="fill:#ee8b94"/>
<path d="" class="polyStyle" id="623022" style="fill:#fbe6ef"/>
<path d="" class="polyStyle" id="211421" style="fill:#f6f67b"/>
<path d="" class="polyStyle" id="532524" style="fill:#ee8b94"/>
<path d="" class="polyStyle" id="440825" style="fill:#f6f67b"/>
<path d="" class="polyStyle" id="441721" style="fill:#f6f67b"/>
<path d="" class="polyStyle" id="450521" style="fill:#f6f67b"/>
<path d="" class="polyStyle" id="450123" style="fill:#fbe6ef"/>
<path d="" class="polyStyle" id="350624" style="fill:#f6f67b"/>
<path d="" class="polyStyle" id="" style="fill:#fbe6ef"/>
<path d="" class="polyStyle" id="451224" style="fill:#fbe6ef"/>
<path d="" class="polyStyle" id="350627" style="fill:#f6f67b"/>
<path d="" class="polyStyle" id="" style="fill:#f6f67b"/>
<path d="" class="polyStyle" id="350525" style="fill:#f6f67b"/>
<path d="" class="polyStyle" id="530124" style="fill:#ee8b94"/>
<path d="" class="polyStyle" id="522627" style="fill:#ee8b94"/>
<path d="" class="polyStyle" id="510421" style="fill:#fbe6ef"/>
<path d="" class="polyStyle" id="522623" style="fill:#d4ecb2"/>
<path d="" class="polyStyle" id="430321" style="fill:#d4ecb2"/>
<path d="" class="polyStyle" id="511129" style="fill:#d4ecb2"/>
<polygon points="5833,512 5874,528 5913,524 5945,519 5983,524 6023,530 6067,534 6106,545 6134,563 6136,590 6167,599 6200,608 6230,608 6253,583 6279,576 6314,567 6363,567 6391,572 6419,572 6445,584 6477,613 6520,613 6527,612 6556,612 6583,606 6613,605 6640,607 6666,613 6682,642 6693,672 6687,699 6662,713 6670,739 6699,740 6728,754 6751,781 6755,811 6757,842 6777,867 6812,862 6844,859 6873,858 6906,863 6934,869 6962,875 6998,879 7027,882 7056,888 7084,898 7111,916 7143,912 7172,909 7198,914 7225,924 7249,953 7268,981 7308,973 7340,959 7369,951 7403,951 7439,957 7473,960 7499,958 7526,949 7552,951 7586,954 7614,942 7641,940 7669,942 7694,946 7720,951 7751,951 7777,960 7780,989 7769,1016 7795,1024 7823,1050 7852,1049 7878,1070 7894,1095 7906,1121 7917,1150 7928,1176 7956,1170 7984,1181 8012,1205 8011,1235 8001,1262 8041,1280 8069,1274 8094,1294 8098,1323 8098,1350 8117,1377 8141,1404 8145,1432 8153,1458 8181,1481 8162,1507 8134,1534 8113,1564 8097,1596 8085,1624 8089,1654 8116,1685 8127,1712 8142,1742 8131,1770 8103,1784 8087,1811 8061,1831 8052,1861 8043,1890 8052,1919 8068,1944 8087,1959 8056,1966 8029,1973 7991,1974 7956,1970 7928,1972 7895,1971 7868,1966 7838,1965 7811,1981 7800,2015 7793,2050 7777,2081 7760,2118 7747,2144 7729,2178 7713,2204 7705,2236 7692,2261 7670,2287 7689,2312 7717,2335 7729,2364 7734,2391 7744,2417 7756,2457 7748,2487 7731,2516 7708,2548 7680,2578 7651,2594 7623,2618 7600,2651 7598,2683 7605,2713 7635,2733 7660,2753 7656,2785 7652,2817 7635,2849 7601,2862 7563,2870 7532,2893 7507,2911 7473,2919 7439,2922 7412,2901 7398,2875 7386,2841 7376,2809 7346,2788 7313,2777 7284,2778 7254,2797 7227,2802 7198,2811 7164,2827 7133,2865 7105,2882 7072,2891 7046,2900 7018,2919 6994,2945 6967,2965 6944,2993 6920,3023 6894,3050 6869,3079 6845,3104 6870,3126 6868,3155 6852,3187 6842,3216 6811,3254 6785,3263 6756,3246 6726,3252 6701,3250 6671,3234 6642,3242 6624,3274 6619,3299 6620,3328 6590,3354 6559,3357 6527,3359 6516,3361 6489,3370 6463,3385 6435,3396 6400,3388 6366,3357 6344,3324 6309,3297 6272,3278 6241,3299 6200,3326 6175,3342 6132,3370 6087,3398 6050,3405 6024,3397 5996,3406 5967,3433 5930,3449 5902,3456 5875,3464 5842,3468 5814,3472 5780,3463 5763,3455 5734,3413 5705,3390 5673,3376 5646,3399 5623,3429 5586,3446 5546,3462 5517,3463 5492,3445 5462,3427 5434,3429 5402,3410 5373,3408 5347,3427 5317,3454 5284,3459 5251,3470 5194,3490 5163,3503 5139,3531 5152,3560 5126,3575 5097,3583 5071,3578 5043,3588 5015,3597 4988,3623 4961,3623 4931,3630 4901,3629 4875,3624 4839,3603 4805,3581 4778,3562 4746,3554 4713,3541 4680,3514 4649,3497 4622,3473 4611,3438 4608,3408 4619,3381 4631,3356 4665,3344 4694,3323 4726,3298 4731,3268 4698,3257 4671,3225 4668,3191 4663,3161 4633,3161 4663,3127 4692,3105 4725,3077 4753,3049 4774,3022 4796,2988 4822,2968 4857,2950 4832,2931 4804,2935 4776,2926 4762,2893 4737,2867 4708,2866 4680,2853 4661,2821 4653,2792 4620,2761 4595,2743 4565,2729 4537,2712 4513,2685 4499,2659 4486,2629 4480,2603 4439,2580 4414,2556 4384,2490 4368,2466 4355,2459 4423,2440 4498,2433 4543,2430 4588,2408 4645,2375 4698,2343 4750,2328 4803,2330 4855,2303 4885,2280 4888,2263 4898,2243 4945,2208 4963,2170 4943,2138 4893,2123 4855,2093 4838,2063 4785,2065 4728,2078 4675,2060 4623,2038 4585,2040 4535,2040 4475,2010 4448,1988 4440,1968 4445,1920 4455,1898 4405,1885 4375,1880 4355,1874 4365,1865 4440,1785 4478,1723 4500,1620 4510,1573 4530,1550 4560,1508 4572,1476 4582,1443 4590,1411 4606,1376 4614,1348 4615,1313 4613,1283 4622,1256 4632,1231 4624,1199 4618,1169 4624,1141 4636,1114 4663,1090 4688,1074 4733,1051 4768,1036 4804,1016 4830,997 4839,971 4865,952 4890,949 4918,943 4962,924 4989,912 5035,895 5074,884 5105,884 5135,885 5161,884 5196,893 5226,896 5258,892 5280,865 5290,838 5297,812 5282,779 5261,753 5271,724 5298,703 5323,669 5328,640 5319,605 5328,575 5331,551 5358,545 5394,538 5429,544 5457,559 5491,568 5520,568 5552,555 5589,533 5636,506 5669,490 5696,494 5727,494 5755,477 5783,472 5813,486 " class="polyStyle" id="430821" style="fill:#d4ecb2"/>
<polygon points="2066,36 2088,32 2116,22 2146,10 2158,26 2196,68 2256,136 2256,162 2286,164 2300,180 2334,204 2338,206 2344,204 2382,170 2404,176 2406,150 2430,150 2468,154 2468,182 2502,192 2518,170 2540,172 2552,178 2572,216 2594,220 2614,218 2622,264 2626,266 2652,274 2696,284 2748,302 2772,314 2758,338 2780,356 2798,366 2830,364 2852,378 2864,412 2876,424 2910,430 2918,452 2940,484 2952,504 2950,532 2954,564 2976,602 2992,622 3012,642 3034,640 3074,630 3102,618 3142,608 3166,610 3210,616 3219,617 3218,622 3219,629 3220,634 3223,640 3228,648 3233,656 3244,667 3263,684 3268,692 3271,700 3270,705 3269,710 3262,720 3259,728 3259,734 3268,747 3281,760 3292,767 3310,774 3323,779 3335,782 3347,785 3357,787 3360,788 3366,787 3374,783 3386,775 3395,769 3400,766 3406,762 3422,753 3436,746 3448,739 3467,731 3481,725 3486,722 3491,721 3495,719 3508,713 3518,709 3530,703 3542,698 3550,694 3557,691 3564,683 3567,677 3568,670 3568,666 3569,662 3571,657 3574,651 3577,648 3583,646 3591,645 3597,644 3600,644 3605,644 3617,644 3621,644 3625,645 3640,644 3658,645 3676,646 3691,645 3705,643 3716,640 3724,636 3729,631 3736,621 3740,610 3741,607 3742,604 3743,599 3745,588 3747,577 3747,567 3748,561 3748,541 3747,533 3747,524 3748,512 3749,507 3749,503 3751,493 3755,484 3756,481 3764,469 3773,459 3787,444 3792,435 3796,425 3797,420 3801,413 3804,406 3812,397 3823,389 3829,385 3836,385 3840,386 3845,393 3848,396 3860,413 3863,420 3866,428 3874,426 3914,428 3924,428 3930,428 3954,440 3976,460 3992,476 4026,488 4046,494 4062,492 4038,460 4048,454 4064,454 4084,470 4096,488 4108,494 4124,492 4142,484 4176,462 4202,448 4220,422 4234,400 4248,400 4274,400 4300,396 4344,380 4358,368 4364,350 4372,334 4382,320 4394,312 4408,312 4422,310 4432,308 4448,298 4468,276 4492,256 4532,232 4566,226 4584,222 4596,206 4610,180 4630,178 4650,172 4659,167 4673,205 4701,221 4735,225 4774,234 4801,264 4806,296 4800,329 4808,364 4829,395 4862,419 4891,426 4928,437 4965,447 4996,455 5029,474 5061,491 5094,509 5129,517 5158,502 5183,476 5209,457 5230,427 5257,401 5286,383 5313,376 5324,404 5323,431 5328,459 5330,493 5327,523 5331,551 5328,575 5319,605 5328,640 5323,669 5298,703 5271,724 5261,753 5282,779 5297,812 5290,838 5280,865 5258,892 5226,896 5196,893 5161,884 5135,885 5105,884 5074,884 5035,895 4989,912 4962,924 4918,943 4890,949 4865,952 4839,971 4830,997 4804,1016 4768,1036 4733,1051 4688,1074 4663,1090 4636,1114 4624,1141 4618,1169 4624,1199 4632,1231 4622,1256 4613,1283 4615,1313 4614,1348 4606,1376 4590,1411 4582,1443 4572,1476 4560,1508 4530,1550 4510,1573 4500,1620 4478,1723 4440,1785 4365,1865 4355,1874 4310,1915 4223,1993 4188,2025 4153,2010 4123,1985 4098,1970 4103,1955 4115,1945 4120,1918 4103,1895 4095,1878 4095,1863 4103,1845 4125,1810 4113,1790 4083,1790 4038,1798 3985,1803 3945,1818 3900,1843 3865,1860 3830,1870 3800,1865 3780,1863 3745,1870 3633,1903 3583,1915 3547,1915 3501,1927 3451,1937 3406,1948 3372,1953 3342,1956 3313,1959 3265,1962 3220,1966 3186,1974 3150,1989 3119,1999 3093,2017 3075,2048 3060,2069 3053,2080 3028,2106 2999,2122 2965,2127 2931,2120 2893,2117 2858,2134 2832,2162 2806,2155 2776,2158 2748,2184 2714,2221 2683,2227 2651,2241 2646,2268 2611,2305 2579,2334 2554,2323 2536,2290 2508,2268 2480,2265 2458,2235 2426,2217 2399,2217 2363,2222 2338,2223 2305,2233 2271,2261 2242,2290 2213,2304 2157,2312 2130,2347 2103,2367 2093,2401 2099,2435 2116,2461 2102,2489 2074,2507 2060,2521 2052,2506 2017,2481 2000,2438 1967,2423 1922,2398 1890,2363 1852,2353 1808,2343 1772,2351 1762,2377 1733,2398 1704,2416 1676,2435 1650,2456 1620,2473 1597,2498 1571,2520 1542,2501 1510,2478 1478,2470 1450,2467 1420,2466 1391,2460 1355,2446 1323,2421 1294,2391 1257,2366 1225,2381 1172,2381 1142,2378 1150,2358 1162,2333 1177,2311 1222,2296 1245,2301 1257,2318 1287,2321 1302,2291 1292,2271 1280,2246 1285,2208 1277,2183 1262,2176 1237,2178 1210,2186 1205,2158 1227,2141 1227,2111 1212,2098 1222,2071 1240,2046 1270,2026 1265,1993 1247,1991 1225,1968 1215,1938 1211,1900 1206,1869 1198,1837 1186,1811 1166,1785 1155,1754 1126,1739 1088,1734 1057,1743 1031,1767 1000,1800 972,1825 946,1845 908,1875 868,1903 834,1929 797,1963 756,1981 715,2004 682,2011 673,2062 653,2080 646,2086 641,2075 621,2040 589,1999 561,1976 523,1929 491,1898 463,1879 489,1857 513,1829 543,1810 538,1779 512,1753 516,1728 501,1701 475,1674 443,1636 421,1603 398,1566 397,1539 374,1504 346,1493 340,1467 314,1442 287,1428 259,1396 238,1348 222,1316 207,1285 186,1259 186,1227 213,1208 241,1211 255,1183 283,1160 309,1140 343,1119 382,1093 412,1065 389,1039 362,1029 337,1004 325,978 332,948 347,921 338,895 309,879 270,879 237,879 207,883 180,900 140,914 111,911 77,889 82,884 86,876 84,870 82,866 62,826 36,804 0,790 6,760 18,764 40,760 86,716 96,696 92,668 82,644 74,628 70,598 70,592 74,590 90,580 168,576 204,566 242,536 276,520 318,498 324,492 330,482 328,478 324,468 316,456 306,438 294,418 282,402 282,398 304,382 316,372 322,366 344,348 358,332 356,322 348,310 336,302 326,300 314,296 303,296 297,283 294,281 287,285 281,286 277,285 272,281 264,273 264,267 262,264 263,254 304,240 356,210 372,192 408,156 446,142 473,132 490,126 528,110 558,100 590,90 636,90 676,90 708,92 724,98 736,106 748,110 768,106 788,96 804,84 814,76 834,66 864,62 892,68 946,118 952,122 970,124 1006,118 1014,136 1060,112 1090,96 1144,66 1160,64 1172,72 1174,76 1180,82 1202,78 1230,72 1328,52 1346,48 1364,80 1374,94 1388,106 1408,114 1434,112 1472,94 1486,86 1496,84 1522,84 1546,88 1598,92 1612,90 1644,72 1676,56 1702,50 1724,62 1736,56 1756,36 1786,24 1850,8 1880,6 1936,4 1944,4 1988,2 2010,0 2034,4 " class="polyStyle" id="430822" style="fill:#f6f67b"/>
<path d="" class="polyStyle" id="511423" style="fill:#ee8b94"/>
<path d="" class="polyStyle" id="421023" style="fill:#f6f67b"/>
<path d="" class="polyStyle" id="511724" style="fill:#f6f67b"/>
<path d="" class="polyStyle" id="420526" style="fill:#fbe6ef"/>
<path d="" class="polyStyle" id="511923" style="fill:#fbe6ef"/>
<path d="" class="polyStyle" id="420325" style="fill:#fbe6ef"/>
<path d="" class="polyStyle" id="511921" style="fill:#f6f67b"/>
<path d="" class="polyStyle" id="542525" style="fill:#f6f67b"/>
<path d="" class="polyStyle" id="611026" style="fill:#ee8b94"/>
<path d="" class="polyStyle" id="411023" style="fill:#fbe6ef"/>
<path d="" class="polyStyle" id="632323" style="fill:#f6f67b"/>
<path d="" class="polyStyle" id="140525" style="fill:#d4ecb2"/>
<path d="" class="polyStyle" id="410922" style="fill:#ee8b94"/>
<path d="" class="polyStyle" id="621027" style="fill:#ee8b94"/>
<path d="" class="polyStyle" id="130427" style="fill:#f6f67b"/>
<path d="" class="polyStyle" id="130121" style="fill:#ee8b94"/>
<path d="" class="polyStyle" id="610823" style="fill:#fbe6ef"/>
<path d="" class="polyStyle" id="130225" style="fill:#fbe6ef"/>
<path d="" class="polyStyle" id="130322" style="fill:#d4ecb2"/>
<path d="" class="polyStyle" id="653130" style="fill:#f6f67b"/>
<path d="" class="polyStyle" id="130822" style="fill:#fbe6ef"/>
<path d="" class="polyStyle" id="211221" style="fill:#f6f67b"/>
<path d="" class="polyStyle" id="210921" style="fill:#f6f67b"/>
<path d="" class="polyStyle" id="150223" style="fill:#f8c67d"/>
<path d="" class="polyStyle" id="220422" style="fill:#d4ecb2"/>
<path d="" class="polyStyle" id="340721" style="fill:#f6f67b"/>
<path d="" class="polyStyle" id="510824" style="fill:#d4ecb2"/>
<path d="" class="polyStyle" id="610324" style="fill:#f6f67b"/>
<path d="" class="polyStyle" id="530722" style="fill:#ee8b94"/>
<path d="" class="polyStyle" id="340823" style="fill:#d4ecb2"/>
<path d="" class="polyStyle" id="620825" style="fill:#d4ecb2"/>
<path d="" class="polyStyle" id="421125" style="fill:#ee8b94"/>
<path d="" class="polyStyle" id="210281" style="fill:#ee8b94"/>
<path d="" class="polyStyle" id="440883" style="fill:#f6f67b"/>
<path d="" class="polyStyle" id="469006" style="fill:#d4ecb2"/>
<path d="" class="polyStyle" id="469002" style="fill:#ee8b94"/>
<path d="" class="polyStyle" id="469005" style="fill:#fbe6ef"/>
<path d="" class="polyStyle" id="440882" style="fill:#ee8b94"/>
<path d="" class="polyStyle" id="450681" style="fill:#ee8b94"/>
<path d="" class="polyStyle" id="441581" style="fill:#d4ecb2"/>
<path d="" class="polyStyle" id="421087" style="fill:#ee8b94"/>
<path d="" class="polyStyle" id="420984" style="fill:#fbe6ef"/>
<path d="" class="polyStyle" id="420582" style="fill:#ee8b94"/>
<path d="" class="polyStyle" id="370282" style="fill:#f6f67b"/>
<path d="" class="polyStyle" id="371083" style="fill:#f6f67b"/>
<path d="" class="polyStyle" id="371082" style="fill:#fbe6ef"/>
<path d="" class="polyStyle" id="652801" style="fill:#f8c67d"/>
<path d="" class="polyStyle" id="654301" style="fill:#ee8b94"/>
<path d="" class="polyStyle" id="370687" style="fill:#ee8b94"/>
<path d="" class="polyStyle" id="371482" style="fill:#d4ecb2"/>
<path d="" class="polyStyle" id="421081" style="fill:#fbe6ef"/>
<path d="" class="polyStyle" id="429006" style="fill:#f6f67b"/>
<path d="" class="polyStyle" id="440982" style="fill:#d4ecb2"/>
<path d="" class="polyStyle" id="421181" style="fill:#d4ecb2"/>
<path d="" class="polyStyle" id="321181" style="fill:#d4ecb2"/>
<path d="" class="polyStyle" id="659007" style="fill:#ee8b94"/>
<path d="" class="polyStyle" id="652701" style="fill:#fbe6ef"/>
<path d="" class="polyStyle" id="210781" style="fill:#fbe6ef"/>
<path d="" class="polyStyle" id="460204" style="fill:#f6f67b"/>
<path d="" class="polyStyle" id="210211" style="fill:#f6f67b"/>
<path d="" class="polyStyle" id="450512" style="fill:#ee8b94"/>
<path d="" class="polyStyle" id="450602" style="fill:#fbe6ef"/>
<path d="" class="polyStyle" id="440404" style="fill:#ee8b94"/>
<path d="" class="polyStyle" id="440403" style="fill:#f6f67b"/>
<path d="" class="polyStyle" id="441502" style="fill:#f6f67b"/>
<path d="" class="polyStyle" id="431002" style="fill:#d4ecb2"/>
<polygon points="3080,2125 3063,2178 3078,2223 3100,2240 3118,2240 3128,2230 3146,2207 3150,2188 3157,2155 3180,2145 3205,2152 3228,2180 3249,2216 3268,2218 3325,2203 3357,2191 3383,2195 3394,2201 3410,2198 3424,2204 3425,2225 3421,2255 3440,2278 3505,2328 3526,2355 3533,2383 3537,2432 3550,2460 3575,2482 3575,2503 3545,2563 3530,2620 3544,2641 3588,2663 3693,2680 3755,2640 3790,2588 3809,2569 3816,2560 3836,2559 3935,2634 4023,2696 4074,2772 4119,2816 4179,2846 4256,2871 4286,2874 4314,2867 4291,2806 4179,2649 4155,2612 4148,2597 4151,2584 4158,2555 4150,2531 4145,2516 4158,2505 4204,2515 4254,2509 4284,2486 4312,2452 4340,2450 4355,2459 4368,2466 4384,2490 4414,2556 4439,2580 4480,2603 4486,2629 4499,2659 4513,2685 4537,2712 4565,2729 4595,2743 4620,2761 4653,2792 4661,2821 4680,2853 4708,2866 4737,2867 4762,2893 4776,2926 4804,2935 4832,2931 4857,2950 4822,2968 4796,2988 4774,3022 4753,3049 4725,3077 4692,3105 4663,3127 4633,3161 4663,3161 4668,3191 4671,3225 4698,3257 4731,3268 4726,3298 4694,3323 4665,3344 4631,3356 4619,3381 4608,3408 4611,3438 4622,3473 4649,3497 4680,3514 4713,3541 4746,3554 4778,3562 4805,3581 4839,3603 4875,3624 4901,3629 4931,3630 4961,3623 4988,3623 5015,3597 5043,3588 5071,3578 5097,3583 5126,3575 5152,3560 5139,3531 5163,3503 5194,3490 5251,3470 5284,3459 5317,3454 5347,3427 5373,3408 5402,3410 5434,3429 5462,3427 5492,3445 5517,3463 5546,3462 5586,3446 5623,3429 5646,3399 5673,3376 5705,3390 5734,3413 5763,3455 5764,3461 5765,3469 5765,3473 5765,3481 5764,3484 5764,3492 5764,3495 5764,3508 5767,3519 5770,3528 5775,3538 5781,3547 5786,3552 5797,3562 5800,3566 5806,3575 5808,3583 5809,3594 5810,3599 5811,3607 5811,3616 5813,3625 5816,3625 5820,3625 5825,3620 5830,3618 5835,3618 5838,3619 5840,3622 5844,3632 5850,3640 5854,3639 5856,3635 5858,3628 5857,3623 5858,3617 5860,3614 5865,3615 5868,3617 5870,3621 5873,3628 5878,3637 5883,3644 5891,3656 5897,3663 5905,3670 5910,3671 5924,3670 5927,3670 5932,3671 5939,3677 5946,3685 5951,3690 5955,3694 5965,3700 5974,3701 5986,3698 5993,3696 5997,3696 6000,3696 6012,3696 6024,3697 6031,3698 6033,3698 6044,3702 6054,3709 6059,3719 6061,3730 6061,3743 6063,3751 6066,3758 6070,3768 6071,3774 6071,3781 6072,3790 6074,3797 6080,3809 6084,3813 6092,3824 6100,3834 6097,3854 6086,3885 6080,3919 6071,3966 6057,3974 6029,3978 6003,3972 5976,3974 5949,3966 5938,3956 5909,3953 5883,3953 5854,3952 5809,3954 5775,3954 5743,3960 5716,3966 5707,3987 5710,4012 5713,4046 5728,4078 5738,4105 5745,4138 5754,4174 5738,4205 5709,4223 5678,4204 5652,4210 5621,4207 5596,4199 5565,4166 5538,4145 5506,4159 5476,4178 5489,4210 5494,4244 5497,4274 5477,4305 5449,4345 5434,4375 5404,4389 5381,4421 5350,4415 5319,4421 5287,4411 5271,4384 5244,4351 5208,4329 5191,4301 5159,4298 5125,4293 5119,4320 5117,4351 5126,4380 5097,4384 5060,4387 5026,4369 5000,4348 4988,4321 4962,4323 4931,4339 4944,4365 4952,4392 4939,4417 4912,4410 4884,4420 4851,4394 4829,4364 4833,4334 4827,4297 4798,4279 4767,4262 4738,4244 4704,4212 4672,4183 4644,4159 4627,4133 4605,4095 4576,4122 4545,4118 4512,4117 4484,4108 4460,4077 4431,4040 4407,4004 4379,3966 4371,3958 4338,3932 4306,3934 4280,3947 4238,3966 4228,3969 4199,3995 4195,4025 4207,4053 4229,4079 4246,4107 4260,4138 4250,4169 4215,4187 4182,4189 4147,4213 4113,4247 4097,4282 4120,4313 4129,4339 4157,4364 4183,4388 4218,4423 4224,4458 4229,4493 4212,4529 4181,4561 4166,4592 4139,4609 4137,4578 4133,4545 4121,4519 4093,4484 4063,4467 4028,4438 3996,4421 3971,4404 3936,4382 3909,4412 3895,4437 3896,4465 3917,4496 3890,4508 3858,4521 3847,4546 3819,4552 3792,4545 3753,4533 3751,4506 3725,4504 3688,4504 3656,4493 3628,4464 3601,4444 3572,4456 3546,4466 3513,4470 3482,4487 3456,4511 3451,4548 3441,4538 3411,4521 3378,4516 3342,4508 3312,4503 3292,4476 3302,4446 3321,4421 3323,4389 3328,4363 3317,4334 3287,4304 3250,4284 3213,4268 3185,4255 3160,4247 3127,4248 3098,4260 3072,4259 3045,4236 3035,4205 3033,4179 3042,4150 3073,4135 3096,4109 3113,4080 3144,4059 3147,4026 3169,3997 3181,3967 3197,3937 3205,3905 3163,3874 3132,3851 3106,3830 3064,3799 3034,3776 3007,3751 3023,3719 3052,3689 3083,3668 3109,3646 3076,3619 3047,3619 3029,3584 3024,3549 3024,3514 2998,3499 2986,3504 2981,3508 2978,3512 2969,3517 2961,3519 2950,3518 2942,3517 2930,3519 2922,3522 2910,3528 2901,3535 2893,3542 2884,3553 2875,3567 2868,3576 2857,3585 2847,3590 2840,3593 2826,3596 2818,3597 2811,3598 2803,3597 2791,3593 2785,3587 2781,3583 2767,3574 2756,3568 2749,3562 2746,3556 2745,3553 2745,3546 2745,3540 2746,3537 2745,3533 2745,3526 2746,3520 2746,3514 2746,3509 2747,3503 2749,3496 2750,3493 2751,3489 2754,3480 2761,3466 2765,3462 2785,3446 2799,3432 2806,3424 2807,3421 2812,3418 2815,3411 2818,3402 2820,3396 2821,3382 2820,3376 2818,3368 2812,3359 2810,3355 2798,3347 2787,3342 2768,3339 2757,3337 2751,3336 2748,3337 2708,3337 2700,3336 2697,3335 2693,3334 2684,3329 2672,3325 2660,3321 2645,3318 2630,3317 2622,3319 2610,3321 2594,3323 2589,3322 2585,3319 2584,3316 2586,3305 2589,3301 2594,3296 2604,3287 2617,3274 2619,3271 2622,3266 2621,3262 2616,3260 2611,3260 2604,3260 2596,3263 2592,3266 2586,3267 2581,3265 2577,3261 2572,3252 2568,3246 2562,3235 2559,3231 2557,3228 2553,3222 2544,3212 2531,3201 2530,3197 2529,3187 2529,3184 2528,3176 2527,3170 2524,3162 2519,3152 2516,3147 2511,3143 2504,3139 2497,3137 2487,3136 2472,3142 2450,3151 2410,3178 2390,3206 2360,3206 2340,3193 2350,3186 2363,3168 2338,3151 2290,3151 2273,3146 2253,3153 2268,3156 2263,3180 2251,3208 2226,3218 2195,3212 2170,3207 2140,3211 2110,3222 2080,3231 2051,3242 2024,3242 1998,3255 1971,3240 1950,3206 1935,3181 1929,3151 1918,3111 1911,3076 1895,3031 1887,3023 1880,3001 1845,2976 1835,2938 1862,2908 1842,2886 1832,2858 1852,2831 1892,2811 1900,2778 1907,2765 1898,2736 1904,2708 1972,2744 1998,2748 1997,2698 2000,2667 2017,2643 2032,2621 2047,2588 2055,2561 2065,2528 2060,2521 2074,2507 2102,2489 2116,2461 2099,2435 2093,2401 2103,2367 2130,2347 2157,2312 2213,2304 2242,2290 2271,2261 2305,2233 2338,2223 2363,2222 2399,2217 2426,2217 2458,2235 2480,2265 2508,2268 2536,2290 2554,2323 2579,2334 2611,2305 2646,2268 2651,2241 2683,2227 2714,2221 2748,2184 2776,2158 2806,2155 2832,2162 2858,2134 2893,2117 2931,2120 2965,2127 2999,2122 3028,2106 3053,2080 3060,2069 3077,2100 " class="polyStyle" id="430802" style="fill:#fbe6ef"/>
<polygon points="4103,1845 4095,1863 4095,1878 4103,1895 4120,1918 4115,1945 4103,1955 4098,1970 4123,1985 4153,2010 4188,2025 4223,1993 4310,1915 4355,1874 4375,1880 4405,1885 4455,1898 4445,1920 4440,1968 4448,1988 4475,2010 4535,2040 4585,2040 4623,2038 4675,2060 4728,2078 4785,2065 4838,2063 4855,2093 4893,2123 4943,2138 4963,2170 4945,2208 4898,2243 4888,2263 4885,2280 4855,2303 4803,2330 4750,2328 4698,2343 4645,2375 4588,2408 4543,2430 4498,2433 4423,2440 4355,2459 4340,2450 4312,2452 4284,2486 4254,2509 4204,2515 4158,2505 4145,2516 4150,2531 4158,2555 4151,2584 4148,2597 4155,2612 4179,2649 4291,2806 4314,2867 4286,2874 4256,2871 4179,2846 4119,2816 4074,2772 4023,2696 3935,2634 3836,2559 3816,2560 3809,2569 3790,2588 3755,2640 3693,2680 3588,2663 3544,2641 3530,2620 3545,2563 3575,2503 3575,2482 3550,2460 3537,2432 3533,2383 3526,2355 3505,2328 3440,2278 3421,2255 3425,2225 3424,2204 3410,2198 3394,2201 3383,2195 3357,2191 3325,2203 3268,2218 3249,2216 3228,2180 3205,2152 3180,2145 3157,2155 3150,2188 3146,2207 3128,2230 3118,2240 3100,2240 3078,2223 3063,2178 3080,2125 3077,2100 3060,2069 3075,2048 3093,2017 3119,1999 3150,1989 3186,1974 3220,1966 3265,1962 3313,1959 3342,1956 3372,1953 3406,1948 3451,1937 3501,1927 3547,1915 3583,1915 3633,1903 3745,1870 3780,1863 3800,1865 3830,1870 3865,1860 3900,1843 3945,1818 3985,1803 4038,1798 4083,1790 4113,1790 4125,1810 " class="polyStyle" id="430811" style="fill:#ee8b94"/>
<path d="" class="polyStyle" id="500107" style="fill:#fbe6ef"/>
<path d="" class="polyStyle" id="430611" style="fill:#d4ecb2"/>
<path d="" class="polyStyle" id="511304" style="fill:#fbe6ef"/>
<path d="" class="polyStyle" id="340711" style="fill:#ee8b94"/>
<path d="" class="polyStyle" id="320118" style="fill:#f6f67b"/>
<path d="" class="polyStyle" id="510704" style="fill:#f6f67b"/>
<path d="" class="polyStyle" id="411502" style="fill:#ee8b94"/>
<path d="" class="polyStyle" id="320302" style="fill:#d4ecb2"/>
<path d="" class="polyStyle" id="140311" style="fill:#ee8b94"/>
<path d="" class="polyStyle" id="610802" style="fill:#ee8b94"/>
<path d="" class="polyStyle" id="120116" style="fill:#f6f67b"/>
<path d="" class="polyStyle" id="130303" style="fill:#fbe6ef"/>
<path d="" class="polyStyle" id="140211" style="fill:#f6f67b"/>
<path d="" class="polyStyle" id="150207" style="fill:#fbe6ef"/>
<path d="" class="polyStyle" id="211403" style="fill:#f6f67b"/>
<path d="" class="polyStyle" id="150802" style="fill:#f8c67d"/>
<path d="" class="polyStyle" id="210112" style="fill:#ee8b94"/>
<path d="" class="polyStyle" id="230406" style="fill:#d4ecb2"/>
<path d="" class="polyStyle" id="110113" style="fill:#fbe6ef"/>
<path d="" class="polyStyle" id="341702" style="fill:#fbe6ef"/>
<path d="" class="polyStyle" id="420303" style="fill:#ee8b94"/>
<path d="" class="polyStyle" id="340702" style="fill:#d4ecb2"/>
<path d="" class="polyStyle" id="421002" style="fill:#f6f67b"/>
<path d="" class="polyStyle" id="420117" style="fill:#f6f67b"/>
<path d="" class="polyStyle" id="440904" style="fill:#f8c67d"/>
<path d="" class="polyStyle" id="460205" style="fill:#ee8b94"/>
<path d="" class="polyStyle" id="460202" style="fill:#f6f67b"/>
<path d="" class="polyStyle" id="460203" style="fill:#fbe6ef"/>
<path d="" class="polyStyle" id="420304" style="fill:#f6f67b"/>
<path d="" class="polyStyle" id="445302" style="fill:#ee8b94"/>
<path d="" class="polyStyle" id="410202" style="fill:#d4ecb2"/>
<path d="" class="polyStyle" id="440800" style="fill:#f6f67b"/>
<path d="" class="polyStyle" id="440900" style="fill:#ee8b94"/>
<path d="" class="polyStyle" id="340800" style="fill:#ee8b94"/>
<path d="" class="polyStyle" id="460200" style="fill:#f6f67b"/>
<path d="" class="polyStyle" id="460000" style="fill:#ee8b94"/>
<path d="" class="polyStyle" id="450500" style="fill:#ee8b94"/>
<path d="" class="polyStyle" id="450600" style="fill:#ee8b94"/>
<path d="" class="polyStyle" id="440400" style="fill:#f6f67b"/>
<path d="" class="polyStyle" id="441700" style="fill:#f6f67b"/>
<path d="" class="polyStyle" id="441500" style="fill:#f6f67b"/>
<path d="" class="polyStyle" id="350600" style="fill:#ee8b94"/>
<path d="" class="polyStyle" id="710000" style="fill:#f6f67b"/>
<path d="" class="polyStyle" id="510400" style="fill:#f6f67b"/>
<path d="" class="polyStyle" id="522600" style="fill:#fbe6ef"/>
<path d="" class="polyStyle" id="520500" style="fill:#ee8b94"/>
<path d="" class="polyStyle" id="431200" style="fill:#f6f67b"/>
<path d="" class="polyStyle" id="430600" style="fill:#f6f67b"/>
<path d="" class="polyStyle" id="511400" style="fill:#d4ecb2"/>
<path d="" class="polyStyle" id="421000" style="fill:#ee8b94"/>
<path d="" class="polyStyle" id="341700" style="fill:#f6f67b"/>
<path d="" class="polyStyle" id="420500" style="fill:#f6f67b"/>
<path d="" class="polyStyle" id="511300" style="fill:#f6f67b"/>
<path d="" class="polyStyle" id="420900" style="fill:#f6f67b"/>
<path d="" class="polyStyle" id="511700" style="fill:#ee8b94"/>
<path d="" class="polyStyle" id="420600" style="fill:#d4ecb2"/>
<path d="" class="polyStyle" id="411500" style="fill:#fbe6ef"/>
<path d="" class="polyStyle" id="510800" style="fill:#ee8b94"/>
<path d="" class="polyStyle" id="420300" style="fill:#fbe6ef"/>
<path d="" class="polyStyle" id="611000" style="fill:#ee8b94"/>
<path d="" class="polyStyle" id="620800" style="fill:#fbe6ef"/>
<path d="" class="polyStyle" id="370200" style="fill:#ee8b94"/>
<path d="" class="polyStyle" id="371000" style="fill:#f6f67b"/>
<path d="" class="polyStyle" id="370600" style="fill:#fbe6ef"/>
<path d="" class="polyStyle" id="120000" style="fill:#f6f67b"/>
<path d="" class="polyStyle" id="130200" style="fill:#ee8b94"/>
<path d="" class="polyStyle" id="130300" style="fill:#f6f67b"/>
<path d="" class="polyStyle" id="652900" style="fill:#fbe6ef"/>
<path d="" class="polyStyle" id="150500" style="fill:#d4ecb2"/>
<path d="" class="polyStyle" id="" style="fill:#d4ecb2"/>
<path d="" class="polyStyle" id="350500" style="fill:#fbe6ef"/>
<path d="" class="polyStyle" id="440400" style="fill:#f6f67b"/>
<path d="" class="polyStyle" id="421100" style="fill:#d4ecb2"/>
<path d="" class="polyStyle" id="420100" style="fill:#fbe6ef"/>
<path d="" class="polyStyle" id="532500" style="fill:#fbe6ef"/>
<path d="" class="polyStyle" id="654200" style="fill:#fbe6ef"/>
<path d="" class="polyStyle" id="210700" style="fill:#d4ecb2"/>
<path d="" class="polyStyle" id="522300" style="fill:#fbe6ef"/>
<path d="" class="polyStyle" id="" style="fill:#ee8b94"/>
<path d="" class="polyStyle" id="440400" style="fill:#f6f67b"/>
<path d="" class="polyStyle" id="620000" style="fill:#f6f67b"/>
<path d="" class="polyStyle" id="430000" style="fill:#fbe6ef"/>
<path d="" class="polyStyle" id="420000" style="fill:#ee8b94"/>
<path d="" class="polyStyle" id="410000" style="fill:#f6f67b"/>
<path d="" class="polyStyle" id="350000" style="fill:#fbe6ef"/>
<path d="" class="polyStyle" id="520000" style="fill:#f6f67b"/>
<path d="" class="polyStyle" id="" style="fill:#ee8b94"/>
</svg>
