<?xml version="1.0" encoding="UTF-8"?>
<!DOCTYPE svg PUBLIC "-//W3C//DTD SVG 1.1 Tiny//EN" "http://www.w3.org/Graphics/SVG/1.1/DTD/svg11-tiny.dtd">
<svg version="1.1" xmlns="http://www.w3.org/2000/svg" xmlns:xlink="http://www.w3.org/1999/xlink" width="100%" height="100%" viewBox="0,0,7528,11159">
<title>SVG</title>
<desc>Poligon Test</desc>
<style id="style_css_sheet" type="text/css">
.polyStyle{fill: #cccccc;stroke-width:0;fill-rule:evenodd;}
</style>
<circle cx="1718" cy="2345" r="200" stroke="black" stroke-width="1" fill="red" id="431122" name="东安县"/>
<circle cx="4557" cy="1411" r="200" stroke="black" stroke-width="1" fill="red" id="431121" name="祁阳县"/>
<circle cx="3188" cy="8407" r="200" stroke="black" stroke-width="1" fill="red" id="431129"position="4" name="江华瑶族自治县"/>
<circle cx="6197" cy="7492" r="200" stroke="black" stroke-width="1" fill="red" id="431127" name="蓝山县"/>
<circle cx="3244" cy="6701" r="200" stroke="black" stroke-width="1" fill="red" id="431124" name="道县"/>
<circle cx="4951" cy="6383" r="200" stroke="black" stroke-width="1" fill="red" id="431126" name="宁远县"/>
<circle cx="1975" cy="7987" r="200" stroke="black" stroke-width="1" fill="red" id="431125" name="江永县"/>
<circle cx="6352" cy="4817" r="200" stroke="black" stroke-width="1" fill="red" id="431128"position="4" name="新田县"/>
<circle cx="3543" cy="4541" r="200" stroke="black" stroke-width="1" fill="red" id="431123" name="双牌县"/>
<circle cx="3202" cy="2149" r="200" stroke="black" stroke-width="1" fill="red" id="431103"position="4" name="冷水滩区"/>
<circle cx="3341" cy="3223" r="200" stroke="black" stroke-width="1" fill="red" id="431102" name="零陵区"/>
<path d="" class="polyStyle" id="" style="fill:#ee8b94"/>
<path d="" class="polyStyle" id="623022" style="fill:#fbe6ef"/>
<path d="" class="polyStyle" id="211421" style="fill:#f6f67b"/>
<path d="" class="polyStyle" id="532524" style="fill:#ee8b94"/>
<path d="" class="polyStyle" id="440825" style="fill:#f6f67b"/>
<path d="" class="polyStyle" id="441721" style="fill:#f6f67b"/>
<path d="" class="polyStyle" id="450521" style="fill:#f6f67b"/>
<path d="" class="polyStyle" id="450123" style="fill:#fbe6ef"/>
<path d="" class="polyStyle" id="350624" style="fill:#f6f67b"/>
<path d="" class="polyStyle" id="" style="fill:#fbe6ef"/>
<path d="" class="polyStyle" id="451224" style="fill:#fbe6ef"/>
<path d="" class="polyStyle" id="350627" style="fill:#f6f67b"/>
<path d="" class="polyStyle" id="" style="fill:#f6f67b"/>
<polygon points="3356,7724 3358,7749 3371,7772 3361,7782 3338,7799 3336,7832 3351,7842 3383,7844 3413,7844 3433,7850 3462,7848 3490,7850 3527,7860 3553,7891 3567,7917 3600,7942 3626,7957 3648,7985 3660,8002 3687,8016 3713,8031 3733,8057 3740,8082 3746,8114 3765,8142 3787,8174 3815,8201 3827,8227 3858,8241 3890,8246 3923,8247 3931,8273 3934,8301 3947,8334 3976,8356 4006,8360 4037,8373 4063,8398 4093,8405 4122,8424 4149,8441 4177,8457 4203,8471 4229,8496 4234,8529 4237,8556 4270,8569 4302,8558 4335,8541 4362,8521 4391,8506 4404,8478 4434,8456 4461,8441 4493,8446 4521,8457 4548,8470 4575,8457 4591,8430 4610,8402 4677,8367 4720,8365 4750,8341 4776,8327 4804,8307 4828,8280 4859,8257 4854,8241 4848,8218 4866,8210 4872,8208 4882,8213 4888,8228 4912,8234 4921,8238 4938,8262 4979,8267 5013,8274 5039,8267 5044,8248 5052,8237 5099,8253 5126,8273 5124,8302 5114,8325 5096,8355 5106,8370 5126,8375 5119,8410 5119,8440 5106,8462 5114,8489 5131,8518 5097,8550 5062,8559 5029,8570 5017,8600 5022,8626 5006,8655 4979,8672 4969,8701 4934,8699 4895,8703 4871,8747 4867,8784 4861,8819 4847,8850 4838,8878 4835,8908 4820,8933 4808,8963 4805,8989 4833,9016 4845,9055 4848,9092 4851,9120 4883,9147 4909,9149 4925,9176 4935,9208 4942,9239 4963,9272 4990,9281 5025,9290 5050,9282 5086,9293 5114,9266 5120,9224 5138,9196 5144,9168 5144,9129 5177,9104 5204,9094 5242,9100 5273,9131 5303,9137 5340,9133 5367,9139 5384,9169 5389,9219 5389,9244 5435,9232 5472,9237 5504,9256 5534,9272 5559,9270 5579,9285 5604,9285 5619,9262 5641,9227 5658,9198 5692,9177 5723,9202 5751,9201 5747,9170 5774,9145 5795,9108 5823,9111 5825,9084 5830,9079 5846,9089 5853,9115 5881,9111 5915,9121 5945,9104 5970,9075 6000,9074 5999,9101 5987,9139 5987,9157 6013,9201 6009,9215 5951,9295 5923,9329 5903,9359 5875,9373 5863,9377 5853,9381 5849,9387 5847,9399 5857,9467 5855,9489 5837,9507 5843,9523 5853,9539 5859,9553 5877,9571 5887,9587 5913,9595 5937,9613 5949,9651 5993,9659 6027,9673 6049,9685 6071,9691 6081,9693 6095,9695 6109,9701 6115,9709 6119,9719 6119,9731 6115,9759 6111,9777 6087,9841 6081,9857 6079,9869 6077,9883 6075,9899 6069,9919 6075,9963 6055,9989 6055,9999 6089,10019 6093,10029 6079,10049 6075,10057 6071,10081 6045,10091 6049,10097 6057,10109 6049,10119 6017,10137 6015,10155 5995,10155 5983,10151 5967,10137 5955,10121 5941,10117 5913,10129 5873,10133 5857,10151 5819,10181 5767,10205 5773,10221 5759,10221 5741,10213 5723,10219 5717,10225 5725,10241 5727,10253 5717,10263 5689,10293 5673,10307 5653,10323 5637,10321 5611,10323 5597,10323 5583,10325 5565,10339 5557,10343 5531,10365 5541,10387 5537,10395 5495,10409 5485,10419 5481,10445 5461,10439 5445,10457 5419,10467 5413,10475 5411,10511 5413,10525 5409,10559 5403,10589 5395,10613 5389,10625 5385,10631 5371,10637 5353,10641 5343,10631 5333,10625 5317,10613 5279,10583 5267,10559 5255,10547 5251,10545 5243,10543 5223,10539 5191,10531 5175,10519 5169,10517 5165,10517 5147,10519 5143,10521 5123,10525 5103,10519 5083,10509 5077,10501 5071,10495 5065,10483 5065,10479 5061,10475 5055,10471 5051,10473 5041,10477 5011,10477 4999,10477 4988,10479 4983,10481 4979,10485 4979,10495 4977,10511 4971,10519 4965,10529 4955,10533 4949,10535 4945,10535 4933,10537 4927,10537 4921,10539 4907,10537 4879,10529 4871,10519 4861,10509 4849,10501 4841,10499 4835,10497 4829,10497 4823,10497 4787,10501 4773,10499 4751,10493 4729,10499 4707,10501 4693,10519 4687,10525 4679,10531 4663,10545 4643,10555 4621,10525 4611,10507 4587,10455 4577,10451 4525,10461 4489,10467 4487,10457 4483,10437 4459,10435 4425,10437 4357,10461 4349,10463 4319,10465 4303,10463 4289,10459 4283,10459 4279,10457 4235,10435 4207,10425 4199,10423 4185,10417 4177,10383 4173,10373 4171,10365 4163,10363 4137,10377 4107,10389 4083,10409 4053,10433 4049,10435 4035,10439 3999,10427 3969,10445 3939,10451 3921,10449 3911,10447 3899,10441 3883,10433 3869,10423 3817,10401 3799,10395 3789,10391 3783,10393 3779,10397 3767,10445 3763,10447 3759,10449 3755,10449 3745,10447 3731,10425 3717,10411 3705,10411 3701,10415 3687,10439 3645,10447 3633,10457 3619,10493 3559,10553 3539,10577 3527,10597 3511,10623 3519,10655 3507,10657 3495,10669 3473,10705 3467,10713 3461,10715 3457,10717 3443,10721 3439,10723 3431,10751 3427,10775 3432,10782 3441,10781 3449,10783 3455,10785 3461,10789 3467,10797 3471,10805 3477,10815 3479,10830 3465,10857 3459,10873 3459,10897 3455,10903 3451,10907 3445,10907 3435,10907 3415,10903 3395,10899 3379,10895 3367,10875 3339,10883 3325,10881 3283,10865 3271,10859 3253,10853 3243,10851 3227,10849 3209,10849 3209,10871 3211,10891 3203,10905 3171,10913 3143,11001 3137,11029 3113,11067 3115,11101 3111,11109 3103,11115 3097,11119 3091,11121 3085,11127 3059,11141 3048,11145 3041,11139 3033,11125 3023,11115 3003,11093 2997,11091 2993,11091 2987,11091 2975,11093 2955,11107 2929,11117 2927,11127 2931,11139 2929,11146 2921,11159 2901,11159 2883,11153 2871,11137 2863,11131 2841,11129 2832,11122 2836,11112 2833,11099 2825,11071 2795,11039 2789,11031 2781,11023 2771,11015 2762,11015 2753,11015 2735,11005 2693,10985 2675,10981 2659,10979 2635,10977 2605,10969 2601,10997 2595,11001 2569,11011 2543,11017 2525,11023 2513,11025 2505,11023 2503,11019 2485,10969 2497,10947 2481,10935 2469,10937 2449,10941 2437,10945 2413,10929 2401,10919 2399,10913 2399,10907 2401,10897 2407,10887 2415,10871 2421,10859 2453,10827 2489,10777 2493,10745 2510,10709 2519,10705 2537,10703 2553,10701 2567,10701 2567,10689 2569,10673 2569,10655 2541,10621 2541,10613 2542,10600 2545,10593 2573,10571 2607,10557 2615,10551 2595,10503 2605,10491 2619,10479 2645,10467 2639,10431 2653,10411 2663,10387 2669,10367 2669,10349 2669,10327 2655,10279 2645,10251 2643,10235 2639,10213 2623,10213 2603,10205 2587,10195 2571,10185 2553,10173 2541,10163 2549,10121 2539,10101 2519,10093 2519,10065 2525,10023 2535,9997 2521,9959 2523,9951 2541,9943 2559,9933 2575,9927 2577,9917 2573,9903 2555,9897 2541,9891 2519,9871 2511,9864 2503,9851 2505,9833 2533,9819 2535,9797 2527,9773 2533,9761 2545,9753 2573,9755 2591,9753 2587,9745 2569,9725 2545,9721 2547,9705 2555,9691 2579,9685 2563,9659 2557,9643 2551,9627 2547,9623 2537,9617 2517,9611 2503,9603 2489,9595 2475,9585 2421,9519 2413,9509 2413,9505 2417,9491 2431,9461 2441,9449 2455,9437 2459,9425 2461,9409 2467,9393 2485,9371 2494,9371 2509,9371 2537,9373 2544,9371 2557,9365 2561,9331 2571,9309 2577,9299 2591,9283 2597,9275 2605,9267 2611,9257 2611,9250 2581,9227 2597,9189 2587,9181 2604,9163 2614,9133 2631,9102 2660,9097 2681,9112 2696,9114 2729,9112 2764,9114 2776,9097 2769,9084 2769,9069 2774,9049 2784,9037 2796,9029 2801,9004 2794,8992 2768,8983 2746,8958 2746,8924 2762,8896 2802,8884 2830,8886 2875,8881 2908,8871 2945,8841 2966,8815 2979,8775 2985,8736 2974,8713 2947,8705 2920,8707 2894,8698 2867,8700 2836,8729 2803,8755 2774,8769 2754,8749 2729,8719 2709,8692 2714,8659 2724,8642 2734,8631 2755,8606 2778,8571 2785,8533 2774,8508 2758,8478 2745,8449 2723,8414 2736,8397 2716,8384 2689,8397 2654,8397 2614,8392 2594,8382 2579,8377 2561,8379 2554,8392 2549,8409 2529,8412 2501,8384 2476,8334 2461,8297 2469,8282 2486,8277 2516,8267 2551,8239 2556,8217 2569,8202 2576,8182 2559,8154 2559,8134 2559,8109 2549,8092 2541,8072 2561,8044 2580,8028 2601,8034 2639,8024 2669,7994 2666,7932 2676,7894 2704,7849 2746,7822 2784,7824 2824,7834 2849,7847 2877,7833 2905,7818 2929,7788 2961,7757 2988,7743 3014,7741 3063,7785 3069,7811 3097,7811 3111,7839 3149,7851 3176,7853 3202,7847 3227,7874 3257,7876 3240,7848 3216,7817 3212,7783 3221,7757 3242,7731 3269,7723 3305,7713 3338,7721 " class="polyStyle" id="431129" style="fill:#d4ecb2"/>
<polygon points="1821,6992 1850,7018 1876,7039 1908,7065 1934,7083 1954,7111 1980,7139 2008,7165 2019,7190 2022,7216 2038,7244 2045,7272 2057,7299 2082,7313 2092,7343 2088,7369 2122,7377 2147,7375 2175,7366 2190,7340 2222,7328 2248,7325 2273,7326 2300,7346 2325,7371 2352,7383 2379,7383 2404,7376 2431,7381 2439,7410 2463,7436 2479,7464 2511,7485 2522,7512 2547,7534 2553,7560 2579,7586 2607,7596 2621,7622 2626,7651 2608,7677 2582,7700 2570,7731 2574,7760 2575,7792 2575,7819 2606,7859 2609,7862 2616,7877 2601,7904 2586,7917 2596,7939 2596,7949 2581,7969 2576,7994 2580,8028 2561,8044 2541,8072 2549,8092 2559,8109 2559,8134 2559,8154 2576,8182 2569,8202 2556,8217 2551,8239 2516,8267 2486,8277 2469,8282 2461,8297 2476,8334 2501,8384 2529,8412 2549,8409 2554,8392 2561,8379 2579,8377 2594,8382 2614,8392 2654,8397 2689,8397 2716,8384 2736,8397 2723,8414 2745,8449 2758,8478 2774,8508 2785,8533 2778,8571 2755,8606 2734,8631 2724,8642 2714,8659 2709,8692 2729,8719 2754,8749 2774,8769 2803,8755 2836,8729 2867,8700 2894,8698 2920,8707 2947,8705 2974,8713 2985,8736 2979,8775 2966,8815 2945,8841 2908,8871 2875,8881 2830,8886 2802,8884 2762,8896 2746,8924 2746,8958 2768,8983 2794,8992 2801,9004 2796,9029 2784,9037 2774,9049 2769,9069 2769,9084 2776,9097 2764,9114 2729,9112 2696,9114 2681,9112 2660,9097 2631,9102 2614,9133 2604,9163 2587,9181 2583,9177 2569,9161 2563,9161 2557,9161 2539,9165 2531,9169 2521,9173 2507,9177 2457,9183 2451,9183 2441,9183 2417,9177 2395,9157 2367,9161 2355,9159 2341,9151 2335,9141 2335,9136 2335,9131 2335,9125 2335,9115 2341,9093 2343,9089 2353,9069 2353,9057 2359,9035 2363,9007 2381,8981 2359,8967 2363,8919 2383,8899 2389,8875 2371,8867 2375,8849 2389,8823 2393,8813 2385,8809 2361,8823 2337,8831 2329,8831 2313,8827 2279,8807 2273,8803 2268,8794 2269,8783 2265,8755 2263,8737 2269,8709 2267,8703 2235,8711 2203,8695 2187,8693 2181,8695 2177,8725 2145,8733 2115,8745 2111,8753 2127,8765 2113,8777 2089,8799 2071,8813 2037,8835 2027,8839 2020,8840 1983,8821 1961,8831 1939,8841 1917,8837 1869,8825 1853,8821 1841,8813 1831,8795 1857,8783 1819,8773 1793,8767 1773,8759 1763,8753 1699,8721 1695,8713 1691,8647 1691,8633 1683,8623 1665,8617 1647,8613 1635,8607 1621,8601 1615,8597 1607,8595 1601,8597 1595,8601 1591,8603 1579,8619 1555,8635 1565,8657 1543,8695 1517,8703 1511,8705 1487,8709 1483,8709 1475,8709 1467,8711 1459,8713 1447,8717 1437,8723 1425,8729 1399,8747 1385,8759 1373,8785 1371,8831 1359,8839 1339,8849 1323,8859 1309,8869 1295,8881 1279,8901 1269,8955 1265,8969 1263,8975 1259,8983 1255,8987 1247,8991 1231,8995 1217,8997 1193,9001 1139,9019 1107,9029 1091,9035 1065,9049 1029,9063 1005,9077 1001,9081 995,9085 990,9092 983,9103 977,9113 971,9123 967,9127 963,9129 959,9131 943,9135 889,9133 849,9135 837,9123 823,9125 807,9139 783,9143 783,9163 779,9175 757,9193 755,9197 757,9203 763,9215 773,9231 789,9261 793,9275 795,9285 791,9291 767,9307 763,9325 761,9341 755,9359 767,9387 785,9383 791,9401 789,9417 739,9441 729,9459 729,9479 741,9535 739,9545 749,9589 745,9639 733,9645 731,9647 721,9645 697,9635 687,9633 677,9631 673,9631 667,9631 657,9633 645,9641 635,9645 625,9651 607,9657 591,9665 573,9673 549,9679 525,9691 505,9699 483,9709 471,9711 443,9695 421,9685 403,9681 385,9683 373,9685 359,9685 347,9687 343,9689 333,9695 327,9701 309,9725 299,9735 281,9745 263,9729 251,9715 237,9707 229,9715 207,9737 167,9765 149,9771 139,9767 137,9755 157,9729 169,9713 195,9713 209,9701 217,9683 209,9679 187,9675 179,9655 175,9629 187,9601 189,9593 207,9555 207,9547 199,9535 191,9529 173,9509 145,9513 135,9513 113,9509 101,9505 92,9499 93,9493 91,9479 81,9466 81,9461 85,9459 95,9455 117,9447 129,9425 133,9408 131,9401 117,9389 65,9347 59,9343 53,9337 45,9331 41,9325 31,9299 25,9277 23,9257 21,9241 29,9221 29,9217 29,9203 25,9163 7,9145 1,9137 0,9128 1,9113 3,9101 9,9087 25,9061 41,9031 43,9027 43,9021 41,9017 35,9009 35,9001 41,8995 51,8995 61,8995 65,8993 81,8959 69,8943 61,8925 83,8907 129,8877 157,8841 165,8829 161,8819 135,8799 133,8794 137,8779 147,8769 157,8757 167,8737 157,8719 159,8707 205,8633 221,8607 251,8593 247,8563 235,8533 239,8525 251,8513 263,8507 275,8499 289,8495 309,8491 317,8491 347,8487 355,8485 363,8481 369,8477 415,8449 421,8445 439,8441 465,8461 473,8427 489,8417 543,8395 559,8393 583,8413 587,8377 621,8349 649,8335 663,8341 687,8327 693,8305 739,8293 779,8277 789,8275 801,8269 805,8265 807,8261 803,8245 805,8219 811,8197 819,8185 825,8179 829,8173 829,8165 829,8161 805,8121 795,8107 787,8091 783,8075 779,8063 785,8049 785,8027 759,7955 755,7943 755,7923 757,7919 765,7907 787,7895 810,7881 833,7897 865,7869 875,7863 907,7849 921,7837 967,7793 997,7753 1025,7705 1059,7635 1085,7617 1087,7585 1091,7573 1101,7563 1107,7559 1123,7543 1153,7507 1159,7501 1173,7499 1209,7509 1231,7513 1271,7519 1287,7521 1293,7523 1297,7523 1311,7517 1319,7509 1335,7493 1371,7471 1415,7455 1445,7405 1467,7391 1501,7363 1505,7361 1527,7369 1543,7357 1519,7327 1527,7305 1549,7269 1559,7241 1561,7229 1565,7209 1593,7209 1633,7231 1647,7223 1639,7195 1651,7189 1669,7187 1675,7189 1679,7187 1687,7183 1717,7141 1747,7095 1753,7087 1755,7075 1753,7069 1755,7065 1753,7061 1743,7047 1741,7043 1739,7035 1737,7027 1737,7017 1745,6997 1757,6969 1767,6958 1793,6968 " class="polyStyle" id="431125" style="fill:#f6f67b"/>
<path d="" class="polyStyle" id="350525" style="fill:#f6f67b"/>
<path d="" class="polyStyle" id="530124" style="fill:#ee8b94"/>
<polygon points="6420,6280 6433,6280 6425,6289 6432,6298 6440,6316 6454,6325 6459,6353 6472,6384 6488,6411 6516,6424 6541,6431 6543,6462 6516,6489 6499,6515 6531,6538 6560,6549 6591,6542 6616,6531 6644,6548 6674,6573 6694,6577 6713,6595 6729,6603 6753,6606 6761,6608 6785,6633 6813,6646 6828,6659 6837,6673 6864,6695 6887,6705 6890,6702 6898,6698 6906,6697 6926,6698 6945,6692 6952,6685 6953,6681 6957,6673 6958,6670 6957,6662 6957,6659 6963,6652 6975,6645 6999,6638 7030,6633 7046,6631 7070,6632 7090,6646 7097,6649 7106,6650 7107,6670 7104,6691 7097,6713 7093,6731 7081,6747 7063,6764 7056,6784 7068,6804 7093,6799 7117,6795 7136,6811 7146,6829 7146,6833 7168,6853 7199,6869 7210,6903 7215,6930 7234,6965 7240,6994 7244,7026 7241,7052 7270,7082 7286,7110 7312,7138 7340,7154 7348,7160 7360,7188 7379,7214 7412,7232 7438,7244 7442,7278 7449,7306 7453,7334 7420,7347 7393,7348 7367,7353 7382,7413 7411,7438 7440,7441 7466,7455 7494,7439 7520,7430 7528,7458 7502,7481 7493,7507 7468,7519 7442,7510 7416,7506 7403,7531 7399,7558 7382,7587 7362,7619 7349,7650 7325,7678 7295,7708 7277,7740 7248,7763 7220,7759 7192,7764 7164,7765 7151,7792 7125,7814 7096,7811 7072,7838 7044,7852 7013,7869 6982,7892 6984,7921 7003,7949 7009,7977 7032,8003 7060,8024 7042,8051 7030,8079 7028,8110 7056,8126 7082,8133 7109,8151 7114,8183 7106,8209 7089,8239 7064,8258 7047,8285 7057,8315 7067,8344 7064,8381 7057,8377 7033,8391 7005,8395 6979,8409 6977,8417 6975,8427 6967,8435 6939,8447 6909,8457 6877,8465 6849,8475 6833,8461 6815,8461 6797,8477 6783,8493 6773,8521 6783,8533 6787,8535 6783,8545 6775,8555 6769,8563 6751,8557 6733,8553 6715,8551 6685,8547 6661,8547 6661,8525 6655,8513 6643,8513 6629,8517 6615,8529 6609,8523 6589,8515 6583,8513 6563,8523 6541,8535 6527,8539 6513,8511 6515,8471 6497,8443 6489,8427 6483,8419 6473,8413 6437,8417 6423,8411 6401,8403 6387,8401 6373,8405 6361,8415 6351,8421 6345,8423 6329,8423 6319,8423 6307,8419 6303,8409 6303,8401 6301,8387 6295,8383 6287,8387 6271,8415 6247,8427 6235,8407 6231,8399 6223,8401 6211,8407 6193,8411 6179,8417 6169,8419 6167,8425 6187,8445 6197,8461 6211,8491 6179,8525 6175,8563 6157,8601 6167,8621 6125,8669 6107,8687 6107,8699 6125,8721 6115,8751 6113,8783 6125,8805 6123,8817 6103,8823 6091,8851 6077,8893 6063,8953 6053,8979 6057,9007 6037,9007 6015,9021 6005,9033 6003,9037 6001,9047 6000,9074 5970,9075 5945,9104 5915,9121 5881,9111 5853,9115 5846,9089 5830,9079 5825,9084 5823,9111 5795,9108 5774,9145 5747,9170 5751,9201 5723,9202 5692,9177 5658,9198 5641,9227 5619,9262 5604,9285 5579,9285 5559,9270 5534,9272 5504,9256 5472,9237 5435,9232 5389,9244 5389,9219 5384,9169 5367,9139 5340,9133 5303,9137 5273,9131 5242,9100 5204,9094 5177,9104 5144,9129 5144,9168 5138,9196 5120,9224 5114,9266 5086,9293 5050,9282 5025,9290 4990,9281 4963,9272 4942,9239 4935,9208 4925,9176 4909,9149 4883,9147 4851,9120 4848,9092 4845,9055 4833,9016 4805,8989 4808,8963 4820,8933 4835,8908 4838,8878 4847,8850 4861,8819 4867,8784 4871,8747 4895,8703 4934,8699 4969,8701 4979,8672 5006,8655 5022,8626 5017,8600 5029,8570 5062,8559 5097,8550 5131,8518 5114,8489 5106,8462 5119,8440 5119,8410 5126,8375 5106,8370 5096,8355 5114,8325 5124,8302 5126,8273 5126,8294 5143,8289 5188,8313 5189,8324 5186,8341 5192,8348 5199,8357 5223,8353 5239,8341 5276,8311 5321,8297 5334,8295 5326,8262 5337,8233 5341,8207 5374,8189 5399,8188 5427,8188 5454,8172 5482,8181 5507,8191 5534,8168 5549,8140 5562,8111 5566,8084 5566,8058 5596,8031 5621,8027 5651,8021 5684,8007 5710,7979 5705,7950 5703,7921 5686,7892 5669,7856 5666,7821 5670,7792 5679,7762 5684,7735 5689,7708 5689,7684 5690,7650 5694,7621 5701,7594 5681,7564 5667,7528 5665,7502 5647,7472 5620,7455 5617,7426 5616,7393 5622,7367 5658,7375 5696,7385 5713,7359 5701,7332 5675,7319 5663,7293 5617,7252 5583,7225 5601,7200 5631,7191 5654,7178 5654,7157 5635,7138 5609,7137 5582,7142 5555,7136 5521,7114 5506,7088 5541,7060 5568,7056 5606,7056 5632,7052 5615,7021 5586,7008 5560,7014 5533,7011 5503,6992 5473,7002 5449,7027 5447,7055 5420,7049 5401,7023 5403,6991 5403,6960 5398,6935 5431,6927 5453,6933 5459,6934 5478,6936 5490,6932 5509,6929 5530,6924 5530,6912 5509,6897 5485,6886 5496,6877 5506,6867 5533,6856 5560,6858 5586,6846 5614,6830 5652,6811 5680,6794 5686,6762 5684,6731 5678,6703 5688,6677 5718,6675 5746,6668 5766,6640 5738,6620 5708,6614 5679,6620 5641,6624 5616,6588 5618,6553 5648,6563 5675,6585 5715,6592 5741,6604 5766,6603 5795,6589 5810,6563 5840,6559 5865,6562 5897,6552 5922,6546 5957,6526 5969,6530 5988,6532 6010,6527 6035,6502 6054,6481 6077,6459 6082,6441 6083,6415 6077,6402 6078,6390 6097,6367 6113,6357 6127,6367 6144,6370 6158,6360 6165,6350 6175,6334 6198,6332 6225,6331 6250,6326 6259,6317 6274,6315 6293,6327 6307,6329 6308,6314 6319,6281 6334,6261 6353,6255 6374,6255 6394,6270 " class="polyStyle" id="431127" style="fill:#ee8b94"/>
<polygon points="2525,5104 2531,5111 2533,5110 2554,5127 2581,5143 2608,5155 2637,5159 2666,5181 2691,5187 2717,5205 2729,5236 2758,5263 2791,5280 2817,5285 2844,5284 2871,5275 2897,5247 2928,5238 2929,5268 2922,5300 2947,5323 2972,5345 2972,5372 2986,5398 3021,5408 3051,5411 3079,5406 3097,5398 3112,5386 3124,5372 3132,5373 3136,5383 3132,5399 3117,5419 3099,5437 3101,5457 3111,5469 3121,5483 3139,5508 3121,5536 3110,5566 3092,5592 3094,5635 3098,5668 3114,5700 3119,5713 3139,5725 3152,5740 3170,5738 3190,5730 3197,5739 3191,5756 3185,5770 3180,5790 3180,5814 3179,5846 3187,5873 3193,5901 3221,5926 3234,5923 3260,5901 3272,5869 3282,5861 3292,5868 3291,5880 3289,5900 3289,5921 3287,5948 3313,5974 3341,5975 3372,5996 3403,6001 3431,6027 3445,6065 3464,6084 3491,6096 3507,6105 3523,6107 3535,6107 3537,6124 3535,6143 3541,6154 3560,6152 3574,6147 3591,6151 3594,6169 3582,6190 3577,6201 3584,6219 3597,6229 3608,6239 3618,6258 3623,6276 3639,6292 3644,6318 3658,6328 3697,6332 3716,6323 3723,6303 3722,6277 3716,6244 3716,6222 3730,6201 3751,6174 3783,6154 3815,6148 3854,6149 3891,6139 3901,6129 3905,6129 3925,6106 3925,6142 3910,6179 3906,6203 3924,6206 3952,6215 3979,6228 4009,6231 4018,6245 4013,6264 3991,6281 3986,6294 3993,6303 4004,6308 4012,6318 4008,6328 3997,6356 3999,6385 4016,6398 4029,6388 4053,6385 4067,6375 4073,6358 4084,6329 4098,6301 4112,6288 4124,6275 4142,6244 4176,6224 4201,6199 4213,6180 4215,6152 4212,6126 4249,6130 4278,6137 4304,6136 4317,6179 4327,6207 4368,6230 4393,6240 4391,6267 4376,6298 4384,6332 4410,6347 4438,6352 4448,6382 4469,6412 4484,6452 4483,6482 4490,6520 4497,6555 4478,6598 4471,6638 4457,6667 4429,6671 4408,6698 4376,6722 4343,6730 4310,6760 4285,6761 4247,6767 4237,6802 4263,6824 4229,6865 4203,6894 4177,6914 4151,6938 4120,6968 4090,7009 4072,7042 4054,7065 4047,7090 4039,7111 4046,7131 4069,7171 4079,7197 4089,7202 4135,7189 4170,7171 4202,7155 4241,7135 4279,7113 4326,7078 4353,7061 4393,7073 4415,7110 4420,7138 4420,7163 4440,7194 4450,7232 4460,7275 4459,7303 4470,7342 4466,7378 4466,7410 4491,7437 4518,7462 4514,7499 4517,7519 4512,7525 4504,7530 4484,7536 4467,7546 4466,7564 4480,7572 4500,7574 4517,7571 4536,7570 4571,7597 4571,7631 4589,7658 4589,7685 4592,7711 4611,7738 4631,7770 4634,7805 4646,7830 4675,7838 4715,7812 4741,7810 4749,7838 4774,7873 4799,7891 4773,7943 4765,7984 4778,8023 4804,8043 4830,8056 4846,8092 4864,8125 4839,8155 4841,8181 4866,8210 4848,8218 4854,8241 4859,8257 4828,8280 4804,8307 4776,8327 4750,8341 4720,8365 4677,8367 4610,8402 4591,8430 4575,8457 4548,8470 4521,8457 4493,8446 4461,8441 4434,8456 4404,8478 4391,8506 4362,8521 4335,8541 4302,8558 4270,8569 4237,8556 4234,8529 4229,8496 4203,8471 4177,8457 4149,8441 4122,8424 4093,8405 4063,8398 4037,8373 4006,8360 3976,8356 3947,8334 3934,8301 3931,8273 3923,8247 3890,8246 3858,8241 3827,8227 3815,8201 3787,8174 3765,8142 3746,8114 3740,8082 3733,8057 3713,8031 3687,8016 3660,8002 3648,7985 3626,7957 3600,7942 3567,7917 3553,7891 3527,7860 3490,7850 3462,7848 3433,7850 3413,7844 3383,7844 3351,7842 3336,7832 3338,7799 3361,7782 3371,7772 3358,7749 3356,7724 3338,7721 3305,7713 3269,7723 3242,7731 3221,7757 3212,7783 3216,7817 3240,7848 3257,7876 3227,7874 3202,7847 3176,7853 3149,7851 3111,7839 3097,7811 3069,7811 3063,7785 3014,7741 2988,7743 2961,7757 2929,7788 2905,7818 2877,7833 2849,7847 2824,7834 2784,7824 2746,7822 2704,7849 2676,7894 2666,7932 2669,7994 2639,8024 2601,8034 2580,8028 2576,7994 2581,7969 2596,7949 2596,7939 2586,7917 2601,7904 2616,7877 2609,7862 2606,7859 2575,7819 2575,7792 2574,7760 2570,7731 2582,7700 2608,7677 2626,7651 2621,7622 2607,7596 2579,7586 2553,7560 2547,7534 2522,7512 2511,7485 2479,7464 2463,7436 2439,7410 2431,7381 2404,7376 2379,7383 2352,7383 2325,7371 2300,7346 2273,7326 2248,7325 2222,7328 2190,7340 2175,7366 2147,7375 2122,7377 2088,7369 2092,7343 2082,7313 2057,7299 2045,7272 2038,7244 2022,7216 2019,7190 2008,7165 1980,7139 1954,7111 1934,7083 1908,7065 1876,7039 1850,7018 1821,6992 1793,6968 1767,6958 1773,6951 1783,6933 1801,6907 1835,6897 1825,6877 1837,6843 1851,6827 1857,6813 1863,6789 1869,6765 1885,6749 1891,6745 1893,6733 1877,6731 1879,6707 1881,6679 1877,6649 1849,6599 1849,6579 1853,6561 1861,6535 1869,6513 1887,6455 1903,6429 1891,6417 1921,6387 1913,6373 1919,6367 1935,6349 1949,6341 1955,6331 1959,6319 1957,6309 1955,6301 1949,6293 1945,6287 1941,6277 1939,6273 1929,6265 1915,6251 1901,6243 1889,6237 1869,6223 1865,6215 1857,6205 1845,6191 1831,6173 1825,6131 1805,6131 1799,6123 1797,6115 1793,6099 1799,6053 1803,6031 1805,6027 1809,6011 1813,6003 1825,5993 1827,5989 1831,5983 1833,5975 1835,5971 1835,5917 1831,5907 1827,5901 1813,5895 1803,5895 1797,5895 1792,5890 1787,5867 1787,5861 1783,5804 1783,5793 1783,5773 1783,5763 1785,5757 1785,5749 1791,5737 1819,5731 1821,5707 1865,5669 1887,5655 1897,5655 1899,5658 1901,5669 1903,5673 1909,5685 1917,5689 1927,5691 1939,5691 1959,5691 1969,5691 2051,5681 2053,5663 2079,5655 2093,5669 2111,5667 2129,5659 2117,5633 2137,5623 2163,5653 2179,5655 2177,5643 2183,5631 2221,5629 2251,5625 2265,5617 2267,5613 2267,5601 2263,5579 2261,5555 2261,5543 2263,5539 2291,5545 2299,5529 2305,5497 2317,5495 2335,5493 2381,5493 2405,5491 2423,5493 2435,5493 2461,5481 2467,5463 2447,5447 2459,5421 2437,5393 2425,5331 2425,5319 2445,5303 2431,5283 2427,5275 2435,5251 2435,5239 2389,5253 2377,5247 2377,5243 2369,5233 2367,5215 2365,5201 2369,5187 2375,5163 2395,5141 2411,5129 2417,5125 2437,5135 2449,5113 2473,5107 2489,5103 2507,5099 2521,5101 " class="polyStyle" id="431124" style="fill:#fbe6ef"/>
<polygon points="6389,3790 6393,3794 6403,3825 6405,3841 6426,3875 6450,3895 6487,3893 6495,3908 6497,3924 6504,3936 6521,3970 6537,3965 6539,3939 6529,3916 6534,3901 6547,3884 6564,3876 6586,3880 6592,3895 6605,3910 6627,3906 6642,3889 6647,3856 6656,3831 6686,3830 6708,3857 6732,3889 6758,3875 6790,3846 6818,3846 6844,3859 6862,3885 6882,3912 6908,3939 6932,3965 6917,3996 6901,4018 6868,4054 6893,4055 6905,4061 6934,4079 6911,4110 6901,4139 6881,4171 6852,4198 6832,4221 6821,4231 6806,4241 6789,4236 6777,4225 6766,4230 6751,4244 6742,4251 6757,4266 6749,4282 6737,4295 6730,4301 6732,4319 6731,4337 6717,4356 6711,4371 6715,4382 6731,4394 6749,4410 6751,4430 6744,4451 6734,4457 6721,4462 6714,4479 6716,4499 6724,4512 6749,4521 6772,4530 6784,4536 6784,4545 6759,4544 6734,4539 6726,4549 6740,4569 6765,4572 6791,4567 6811,4567 6827,4584 6821,4611 6791,4637 6763,4644 6731,4668 6718,4693 6713,4719 6687,4725 6688,4752 6677,4778 6647,4784 6621,4808 6589,4839 6575,4865 6606,4871 6635,4873 6665,4881 6694,4899 6724,4892 6753,4874 6778,4879 6848,4885 6860,4911 6851,4939 6883,4939 6910,4907 6935,4902 6949,4874 6961,4846 6987,4819 7023,4798 7049,4810 7050,4837 7057,4865 7066,4893 7060,4924 7090,4940 7111,4966 7112,4997 7125,5024 7141,5039 7149,5053 7154,5068 7158,5095 7158,5117 7157,5140 7155,5146 7150,5149 7127,5155 7106,5155 7098,5155 7092,5159 7083,5182 7078,5189 7054,5211 7049,5220 7047,5223 7047,5228 7048,5258 7050,5269 7053,5276 7056,5280 7062,5283 7097,5293 7107,5299 7115,5312 7122,5333 7125,5335 7131,5334 7172,5318 7177,5319 7179,5324 7182,5362 7186,5387 7198,5416 7198,5424 7193,5428 7167,5447 7159,5456 7155,5463 7150,5473 7148,5486 7147,5499 7149,5516 7151,5530 7151,5547 7147,5566 7148,5576 7150,5579 7163,5588 7168,5595 7182,5607 7186,5613 7198,5627 7202,5639 7200,5658 7198,5672 7195,5679 7188,5683 7166,5691 7127,5703 7108,5708 7078,5714 7045,5730 7019,5755 7004,5784 6995,5810 6985,5838 6966,5867 6937,5876 6908,5870 6869,5834 6842,5804 6837,5776 6834,5741 6816,5711 6751,5689 6725,5687 6698,5700 6675,5717 6627,5742 6624,5767 6595,5776 6562,5784 6535,5770 6507,5775 6465,5793 6437,5805 6432,5812 6413,5840 6389,5872 6358,5885 6324,5884 6318,5889 6313,5880 6311,5867 6305,5866 6290,5875 6282,5887 6273,5892 6266,5890 6272,5881 6282,5870 6272,5859 6263,5850 6252,5845 6243,5852 6247,5867 6243,5875 6233,5877 6225,5895 6237,5912 6228,5922 6197,5965 6184,5971 6168,5978 6162,5990 6159,6011 6152,6037 6142,6048 6123,6050 6113,6047 6111,6035 6123,6017 6131,6005 6123,5990 6096,5975 6081,5972 6076,5962 6092,5956 6091,5938 6061,5921 6049,5906 6042,5892 6014,5887 5979,5883 5958,5886 5944,5893 5936,5906 5938,5915 5934,5923 5917,5923 5902,5916 5899,5905 5911,5897 5904,5882 5897,5865 5909,5853 5929,5847 5949,5861 5971,5860 5992,5819 6001,5801 5989,5788 5957,5772 5953,5758 5953,5736 5957,5713 5971,5695 5995,5685 6007,5671 6002,5660 6003,5648 6008,5637 6026,5635 6036,5625 6036,5606 6022,5587 6005,5581 5995,5592 5987,5611 5978,5623 5968,5625 5966,5612 5971,5591 5973,5572 5965,5561 5952,5555 5943,5567 5937,5580 5930,5587 5916,5587 5903,5592 5893,5606 5887,5623 5861,5640 5835,5652 5825,5667 5818,5682 5808,5686 5792,5676 5767,5677 5762,5660 5747,5645 5727,5645 5716,5646 5701,5636 5698,5625 5708,5623 5728,5620 5732,5603 5723,5591 5713,5587 5708,5575 5707,5548 5705,5527 5691,5521 5681,5503 5677,5479 5679,5453 5685,5415 5700,5379 5710,5335 5720,5325 5730,5317 5763,5314 5794,5288 5804,5253 5803,5226 5811,5196 5812,5147 5812,5114 5811,5087 5779,5079 5747,5095 5721,5091 5714,5060 5726,5031 5750,4996 5782,4966 5797,4937 5795,4905 5808,4876 5807,4838 5811,4811 5817,4783 5838,4736 5841,4705 5840,4696 5837,4682 5820,4674 5771,4676 5748,4679 5742,4697 5730,4717 5713,4727 5703,4722 5700,4709 5707,4697 5713,4687 5717,4668 5717,4652 5722,4641 5735,4641 5751,4643 5765,4638 5775,4628 5778,4604 5781,4577 5792,4553 5780,4524 5791,4488 5813,4459 5818,4432 5798,4406 5778,4380 5773,4355 5776,4346 5765,4318 5736,4288 5729,4256 5725,4228 5717,4203 5716,4179 5741,4179 5782,4164 5816,4140 5833,4123 5835,4095 5827,4078 5833,4071 5846,4073 5857,4085 5872,4095 5887,4084 5887,4066 5896,4048 5915,4035 5913,4019 5900,3998 5905,3984 5922,3978 5946,3975 5958,3983 5967,4008 5981,4008 5985,3993 5991,3970 6002,3955 6023,3955 6060,3949 6082,3925 6096,3909 6108,3895 6115,3876 6127,3860 6158,3856 6195,3853 6208,3834 6222,3814 6241,3804 6248,3814 6261,3831 6266,3841 6255,3846 6250,3856 6266,3864 6278,3859 6296,3846 6328,3819 6357,3794 6384,3782 6390,3783 " class="polyStyle" id="431128" style="fill:#ee8b94"/>
<polygon points="5577,3701 5600,3727 5622,3739 5609,3760 5595,3761 5571,3754 5537,3760 5515,3776 5506,3795 5509,3811 5520,3825 5520,3835 5505,3850 5491,3860 5480,3865 5477,3877 5479,3890 5471,3904 5469,3917 5485,3925 5492,3911 5492,3895 5502,3884 5512,3894 5516,3926 5524,3945 5547,3947 5580,3949 5599,3964 5624,3970 5634,3960 5649,3947 5656,3955 5649,3972 5635,3985 5640,4007 5637,4026 5632,4052 5626,4062 5634,4071 5666,4074 5702,4076 5711,4079 5725,4094 5735,4110 5731,4117 5711,4126 5699,4129 5689,4139 5697,4155 5716,4167 5716,4179 5717,4203 5725,4228 5729,4256 5736,4288 5765,4318 5776,4346 5773,4355 5778,4380 5798,4406 5818,4432 5813,4459 5791,4488 5780,4524 5792,4553 5781,4577 5778,4604 5775,4628 5765,4638 5751,4643 5735,4641 5722,4641 5717,4652 5717,4668 5713,4687 5707,4697 5700,4709 5703,4722 5713,4727 5730,4717 5742,4697 5748,4679 5771,4676 5820,4674 5837,4682 5840,4696 5841,4705 5838,4736 5817,4783 5811,4811 5807,4838 5808,4876 5795,4905 5797,4937 5782,4966 5750,4996 5726,5031 5714,5060 5721,5091 5747,5095 5779,5079 5811,5087 5812,5114 5812,5147 5811,5196 5803,5226 5804,5253 5794,5288 5763,5314 5730,5317 5720,5325 5710,5335 5700,5379 5685,5415 5679,5453 5677,5479 5681,5503 5691,5521 5705,5527 5707,5548 5708,5575 5713,5587 5723,5591 5732,5603 5728,5620 5708,5623 5698,5625 5701,5636 5716,5646 5727,5645 5747,5645 5762,5660 5767,5677 5792,5676 5808,5686 5818,5682 5825,5667 5835,5652 5861,5640 5887,5623 5893,5606 5903,5592 5916,5587 5930,5587 5937,5580 5943,5567 5952,5555 5965,5561 5973,5572 5971,5591 5966,5612 5968,5625 5978,5623 5987,5611 5995,5592 6005,5581 6022,5587 6036,5606 6036,5625 6026,5635 6008,5637 6003,5648 6002,5660 6007,5671 5995,5685 5971,5695 5957,5713 5953,5736 5953,5758 5957,5772 5989,5788 6001,5801 5992,5819 5971,5860 5949,5861 5929,5847 5909,5853 5897,5865 5904,5882 5911,5897 5899,5905 5902,5916 5917,5923 5934,5923 5938,5915 5936,5906 5944,5893 5958,5886 5979,5883 6014,5887 6042,5892 6049,5906 6061,5921 6091,5938 6092,5956 6076,5962 6081,5972 6096,5975 6123,5990 6131,6005 6123,6017 6111,6035 6113,6047 6123,6050 6142,6048 6152,6037 6159,6011 6162,5990 6168,5978 6184,5971 6197,5965 6228,5922 6237,5912 6225,5895 6233,5877 6243,5875 6247,5867 6243,5852 6252,5845 6263,5850 6272,5859 6282,5870 6272,5881 6266,5890 6273,5892 6282,5887 6290,5875 6305,5866 6311,5867 6313,5880 6318,5889 6324,5884 6358,5885 6389,5872 6413,5840 6432,5812 6438,5838 6471,5846 6504,5852 6491,5881 6467,5919 6467,5946 6471,5976 6511,6044 6527,6070 6528,6100 6526,6129 6533,6159 6517,6185 6491,6193 6480,6225 6472,6251 6450,6262 6433,6280 6420,6280 6394,6270 6374,6255 6353,6255 6334,6261 6319,6281 6308,6314 6307,6329 6293,6327 6274,6315 6259,6317 6250,6326 6225,6331 6198,6332 6175,6334 6165,6350 6158,6360 6144,6370 6127,6367 6113,6357 6097,6367 6078,6390 6077,6402 6083,6415 6082,6441 6077,6459 6054,6481 6035,6502 6010,6527 5988,6532 5969,6530 5957,6526 5922,6546 5897,6552 5865,6562 5840,6559 5810,6563 5795,6589 5766,6603 5741,6604 5715,6592 5675,6585 5648,6563 5618,6553 5616,6588 5641,6624 5679,6620 5708,6614 5738,6620 5766,6640 5746,6668 5718,6675 5688,6677 5678,6703 5684,6731 5686,6762 5680,6794 5652,6811 5614,6830 5586,6846 5560,6858 5533,6856 5506,6867 5496,6877 5485,6886 5509,6897 5530,6912 5530,6924 5509,6929 5490,6932 5478,6936 5459,6934 5453,6933 5431,6927 5398,6935 5403,6960 5403,6991 5401,7023 5420,7049 5447,7055 5449,7027 5473,7002 5503,6992 5533,7011 5560,7014 5586,7008 5615,7021 5632,7052 5606,7056 5568,7056 5541,7060 5506,7088 5521,7114 5555,7136 5582,7142 5609,7137 5635,7138 5654,7157 5654,7178 5631,7191 5601,7200 5583,7225 5617,7252 5663,7293 5675,7319 5701,7332 5713,7359 5696,7385 5658,7375 5622,7367 5616,7393 5617,7426 5620,7455 5647,7472 5665,7502 5667,7528 5681,7564 5701,7594 5694,7621 5690,7650 5689,7684 5689,7708 5684,7735 5679,7762 5670,7792 5666,7821 5669,7856 5686,7892 5703,7921 5705,7950 5710,7979 5684,8007 5651,8021 5621,8027 5596,8031 5566,8058 5566,8084 5562,8111 5549,8140 5534,8168 5507,8191 5482,8181 5454,8172 5427,8188 5399,8188 5374,8189 5341,8207 5337,8233 5326,8262 5334,8295 5321,8297 5276,8311 5239,8341 5223,8353 5199,8357 5192,8348 5186,8341 5189,8324 5188,8313 5143,8289 5126,8294 5126,8273 5099,8253 5052,8237 5044,8248 5039,8267 5013,8274 4979,8267 4938,8262 4921,8238 4912,8234 4888,8228 4882,8213 4872,8208 4866,8210 4841,8181 4839,8155 4864,8125 4846,8092 4830,8056 4804,8043 4778,8023 4765,7984 4773,7943 4799,7891 4774,7873 4749,7838 4741,7810 4715,7812 4675,7838 4646,7830 4634,7805 4631,7770 4611,7738 4592,7711 4589,7685 4589,7658 4571,7631 4571,7597 4536,7570 4517,7571 4500,7574 4480,7572 4466,7564 4467,7546 4484,7536 4504,7530 4512,7525 4517,7519 4514,7499 4518,7462 4491,7437 4466,7410 4466,7378 4470,7342 4459,7303 4460,7275 4450,7232 4440,7194 4420,7163 4420,7138 4415,7110 4393,7073 4353,7061 4326,7078 4279,7113 4241,7135 4202,7155 4170,7171 4135,7189 4089,7202 4079,7197 4069,7171 4046,7131 4039,7111 4047,7090 4054,7065 4072,7042 4090,7009 4120,6968 4151,6938 4177,6914 4203,6894 4229,6865 4263,6824 4237,6802 4247,6767 4285,6761 4310,6760 4343,6730 4376,6722 4408,6698 4429,6671 4457,6667 4471,6638 4478,6598 4497,6555 4490,6520 4483,6482 4484,6452 4469,6412 4448,6382 4438,6352 4410,6347 4384,6332 4376,6298 4391,6267 4393,6240 4368,6230 4327,6207 4317,6179 4304,6136 4278,6137 4249,6130 4212,6126 4215,6152 4213,6180 4201,6199 4176,6224 4142,6244 4124,6275 4112,6288 4098,6301 4084,6329 4073,6358 4067,6375 4053,6385 4029,6388 4016,6398 3999,6385 3997,6356 4008,6328 4012,6318 4004,6308 3993,6303 3986,6294 3991,6281 4013,6264 4018,6245 4009,6231 3979,6228 3952,6215 3924,6206 3906,6203 3910,6179 3925,6142 3925,6106 3930,6098 3946,6076 3971,6047 3997,6025 4009,5995 4019,5969 4037,5944 4045,5917 4054,5883 4051,5857 4069,5798 4098,5786 4120,5760 4148,5744 4160,5716 4186,5695 4188,5672 4190,5657 4192,5642 4177,5624 4169,5611 4180,5599 4194,5598 4202,5603 4210,5626 4227,5636 4241,5636 4272,5605 4302,5578 4328,5567 4355,5539 4363,5513 4370,5478 4385,5449 4387,5420 4404,5387 4415,5348 4431,5319 4449,5292 4458,5262 4484,5251 4515,5237 4539,5205 4551,5173 4585,5131 4653,5089 4651,5061 4640,5040 4632,5029 4617,5014 4603,5021 4587,5021 4578,5002 4595,4986 4615,4975 4628,4964 4628,4940 4619,4908 4624,4879 4633,4847 4639,4814 4640,4756 4645,4714 4671,4687 4698,4678 4725,4682 4759,4693 4770,4667 4774,4640 4771,4611 4788,4579 4792,4553 4799,4497 4818,4469 4847,4440 4860,4410 4849,4382 4852,4355 4879,4334 4881,4301 4870,4276 4881,4246 4910,4238 4944,4253 4970,4230 4998,4218 5032,4234 5060,4247 5093,4236 5111,4210 5139,4180 5142,4155 5135,4124 5138,4094 5139,4059 5149,4031 5147,4001 5156,3972 5136,3945 5136,3916 5150,3883 5167,3854 5171,3844 5200,3851 5232,3864 5263,3890 5297,3886 5323,3865 5356,3870 5391,3873 5418,3859 5389,3830 5424,3810 5457,3804 5457,3786 5452,3776 5429,3779 5422,3771 5427,3755 5446,3740 5459,3722 5462,3696 5479,3679 5504,3665 5541,3677 " class="polyStyle" id="431126" style="fill:#f6f67b"/>
<polygon points="4485,3561 4504,3590 4523,3627 4543,3652 4578,3668 4612,3689 4646,3714 4673,3731 4703,3753 4734,3766 4763,3779 4797,3797 4822,3776 4850,3790 4882,3797 4909,3797 4939,3790 4964,3789 4993,3765 5022,3745 5048,3730 5070,3741 5099,3759 5134,3788 5166,3811 5171,3844 5167,3854 5150,3883 5136,3916 5136,3945 5156,3972 5147,4001 5149,4031 5139,4059 5138,4094 5135,4124 5142,4155 5139,4180 5111,4210 5093,4236 5060,4247 5032,4234 4998,4218 4970,4230 4944,4253 4910,4238 4881,4246 4870,4276 4881,4301 4879,4334 4852,4355 4849,4382 4860,4410 4847,4440 4818,4469 4799,4497 4792,4553 4788,4579 4771,4611 4774,4640 4770,4667 4759,4693 4725,4682 4698,4678 4671,4687 4645,4714 4640,4756 4639,4814 4633,4847 4624,4879 4619,4908 4628,4940 4628,4964 4615,4975 4595,4986 4578,5002 4587,5021 4603,5021 4617,5014 4632,5029 4640,5040 4651,5061 4653,5089 4585,5131 4551,5173 4539,5205 4515,5237 4484,5251 4458,5262 4449,5292 4431,5319 4415,5348 4404,5387 4387,5420 4385,5449 4370,5478 4363,5513 4355,5539 4328,5567 4302,5578 4272,5605 4241,5636 4227,5636 4210,5626 4202,5603 4194,5598 4180,5599 4169,5611 4177,5624 4192,5642 4190,5657 4188,5672 4186,5695 4160,5716 4148,5744 4120,5760 4098,5786 4069,5798 4051,5857 4054,5883 4045,5917 4037,5944 4019,5969 4009,5995 3997,6025 3971,6047 3946,6076 3930,6098 3925,6106 3905,6129 3901,6129 3891,6139 3854,6149 3815,6148 3783,6154 3751,6174 3730,6201 3716,6222 3716,6244 3722,6277 3723,6303 3716,6323 3697,6332 3658,6328 3644,6318 3639,6292 3623,6276 3618,6258 3608,6239 3597,6229 3584,6219 3577,6201 3582,6190 3594,6169 3591,6151 3574,6147 3560,6152 3541,6154 3535,6143 3537,6124 3535,6107 3523,6107 3507,6105 3491,6096 3464,6084 3445,6065 3431,6027 3403,6001 3372,5996 3341,5975 3313,5974 3287,5948 3289,5921 3289,5900 3291,5880 3292,5868 3282,5861 3272,5869 3260,5901 3234,5923 3221,5926 3193,5901 3187,5873 3179,5846 3180,5814 3180,5790 3185,5770 3191,5756 3197,5739 3190,5730 3170,5738 3152,5740 3139,5725 3119,5713 3114,5700 3098,5668 3094,5635 3092,5592 3110,5566 3121,5536 3139,5508 3121,5483 3111,5469 3101,5457 3099,5437 3117,5419 3132,5399 3136,5383 3132,5373 3124,5372 3112,5386 3097,5398 3079,5406 3051,5411 3021,5408 2986,5398 2972,5372 2972,5345 2947,5323 2922,5300 2929,5268 2928,5238 2897,5247 2871,5275 2844,5284 2817,5285 2791,5280 2758,5263 2729,5236 2717,5205 2691,5187 2666,5181 2637,5159 2608,5155 2581,5143 2554,5127 2533,5110 2541,5107 2551,5093 2555,5065 2563,5053 2583,5051 2617,5067 2655,5047 2679,5049 2689,5035 2697,5025 2711,5005 2715,4997 2713,4994 2699,4985 2679,4983 2623,4953 2611,4953 2607,4953 2601,4957 2568,4981 2557,4983 2546,4976 2535,4967 2535,4951 2527,4937 2527,4929 2549,4921 2551,4915 2541,4907 2527,4903 2511,4905 2483,4931 2467,4933 2441,4911 2413,4903 2401,4901 2381,4899 2369,4901 2365,4907 2359,4921 2341,4947 2331,4955 2317,4957 2307,4951 2301,4941 2293,4929 2287,4921 2271,4911 2259,4911 2255,4914 2259,4885 2271,4854 2263,4820 2253,4794 2273,4765 2290,4739 2280,4711 2278,4680 2275,4652 2305,4638 2327,4605 2336,4596 2345,4584 2357,4574 2375,4576 2382,4586 2397,4583 2412,4571 2420,4561 2415,4543 2392,4536 2381,4529 2385,4510 2395,4509 2411,4515 2422,4513 2426,4501 2424,4480 2417,4456 2421,4439 2430,4416 2447,4394 2462,4385 2495,4393 2519,4420 2539,4450 2565,4455 2593,4445 2618,4429 2645,4426 2678,4445 2706,4450 2735,4479 2741,4493 2734,4518 2725,4531 2712,4541 2709,4552 2720,4558 2732,4552 2752,4561 2771,4567 2792,4564 2806,4559 2821,4558 2831,4566 2835,4576 2830,4592 2832,4597 2849,4591 2865,4574 2881,4561 2889,4553 2916,4557 2925,4567 2922,4583 2924,4591 2926,4620 2937,4653 2964,4657 2990,4641 3023,4613 3045,4586 3075,4576 3086,4566 3099,4567 3104,4585 3132,4606 3150,4635 3166,4664 3195,4686 3228,4683 3256,4662 3290,4609 3302,4581 3297,4555 3270,4535 3251,4509 3220,4492 3193,4482 3181,4469 3172,4464 3159,4457 3147,4434 3162,4422 3162,4399 3147,4369 3125,4359 3097,4369 3085,4381 3067,4391 3009,4361 3006,4356 3002,4328 2997,4295 3007,4265 3033,4242 3064,4233 3087,4201 3115,4187 3143,4173 3171,4148 3196,4152 3214,4132 3221,4114 3226,4082 3229,4050 3230,4025 3249,3990 3269,3960 3287,3932 3318,3912 3353,3911 3382,3901 3414,3907 3454,3908 3481,3884 3512,3900 3521,3934 3494,3948 3465,3962 3459,3988 3461,4024 3494,4050 3527,4052 3561,4044 3595,4009 3627,3982 3653,3975 3681,3952 3708,3930 3741,3917 3777,3900 3803,3886 3831,3880 3856,3916 3872,3944 3903,3958 3930,3955 3951,3930 3958,3903 3951,3877 3943,3850 3970,3823 3977,3795 4009,3788 4039,3793 4071,3798 4102,3796 4131,3766 4151,3738 4183,3726 4200,3701 4173,3691 4147,3673 4178,3659 4176,3629 4172,3600 4141,3574 4176,3562 4212,3561 4239,3551 4269,3551 4295,3549 4317,3520 4355,3513 4391,3512 4421,3517 4446,3511 4476,3523 " class="polyStyle" id="431123" style="fill:#ee8b94"/>
<polygon points="3852,146 3870,171 3899,181 3924,185 3955,159 3983,151 3999,179 3992,205 3964,225 3958,256 3976,282 4011,303 4041,294 4070,292 4103,294 4101,339 4130,363 4141,372 4171,391 4205,387 4239,367 4251,336 4288,321 4333,316 4359,324 4360,360 4335,383 4328,408 4357,426 4387,425 4413,403 4451,404 4484,394 4517,358 4549,337 4575,335 4601,355 4617,390 4620,416 4648,436 4673,465 4682,493 4712,520 4732,557 4760,578 4792,584 4819,589 4831,618 4828,649 4828,679 4845,714 4866,749 4879,782 4906,807 4931,825 4951,854 4960,888 4982,917 4993,944 5001,971 5001,998 5007,1024 5033,1048 5049,1080 5048,1111 5074,1136 5102,1167 5124,1196 5158,1200 5189,1209 5197,1238 5215,1267 5227,1296 5236,1328 5265,1350 5294,1345 5306,1318 5324,1291 5331,1265 5338,1232 5310,1223 5281,1218 5267,1188 5237,1164 5220,1133 5248,1105 5278,1097 5309,1091 5334,1098 5373,1095 5411,1101 5438,1107 5466,1113 5497,1110 5524,1099 5565,1109 5593,1114 5621,1117 5651,1138 5680,1157 5710,1157 5713,1126 5743,1114 5757,1077 5786,1069 5814,1085 5824,1112 5851,1131 5878,1155 5906,1168 5941,1184 5969,1199 5991,1227 5989,1259 5960,1269 5969,1296 5962,1324 5949,1354 5983,1379 6011,1375 6038,1380 6069,1399 6102,1422 6101,1452 6118,1479 6113,1511 6088,1534 6085,1561 6056,1571 6028,1564 6010,1590 6009,1619 6045,1631 6060,1661 6031,1665 6006,1678 5977,1706 5986,1739 5981,1774 5966,1810 5992,1824 6027,1808 6062,1770 6113,1718 6152,1690 6195,1654 6244,1626 6282,1606 6308,1596 6354,1596 6382,1606 6421,1633 6456,1663 6465,1723 6459,1768 6444,1794 6403,1822 6359,1821 6333,1817 6301,1826 6260,1860 6238,1887 6223,1922 6223,1943 6213,1925 6205,1909 6179,1885 6149,1861 6121,1838 6092,1859 6060,1860 6037,1887 6050,1917 6076,1948 6048,1960 6015,1983 6032,2014 6028,2040 6055,2056 6052,2085 6025,2111 5991,2117 5963,2125 5963,2156 5986,2182 6008,2208 6015,2236 6004,2261 6006,2288 5981,2314 5948,2304 5951,2331 5949,2362 5952,2397 5981,2430 5995,2459 5997,2491 5992,2516 5989,2548 5997,2584 6033,2583 6060,2581 6089,2606 6122,2598 6150,2622 6151,2656 6143,2681 6131,2709 6129,2740 6131,2778 6132,2810 6160,2796 6195,2778 6221,2799 6248,2789 6277,2766 6304,2800 6297,2828 6293,2857 6281,2892 6258,2923 6229,2952 6234,2983 6239,3010 6243,3036 6235,3061 6234,3097 6235,3129 6228,3163 6223,3190 6196,3215 6196,3250 6204,3280 6218,3315 6218,3340 6207,3370 6173,3391 6162,3408 6169,3425 6176,3437 6171,3450 6158,3453 6146,3460 6157,3477 6177,3476 6188,3463 6199,3460 6220,3479 6255,3501 6290,3511 6321,3500 6317,3534 6303,3567 6321,3592 6338,3593 6353,3587 6357,3601 6357,3631 6358,3656 6373,3670 6389,3675 6396,3701 6397,3740 6395,3749 6392,3767 6390,3783 6384,3782 6357,3794 6328,3819 6296,3846 6278,3859 6266,3864 6250,3856 6255,3846 6266,3841 6261,3831 6248,3814 6241,3804 6222,3814 6208,3834 6195,3853 6158,3856 6127,3860 6115,3876 6108,3895 6096,3909 6082,3925 6060,3949 6023,3955 6002,3955 5991,3970 5985,3993 5981,4008 5967,4008 5958,3983 5946,3975 5922,3978 5905,3984 5900,3998 5913,4019 5915,4035 5896,4048 5887,4066 5887,4084 5872,4095 5857,4085 5846,4073 5833,4071 5827,4078 5835,4095 5833,4123 5816,4140 5782,4164 5741,4179 5716,4179 5716,4167 5697,4155 5689,4139 5699,4129 5711,4126 5731,4117 5735,4110 5725,4094 5711,4079 5702,4076 5666,4074 5634,4071 5626,4062 5632,4052 5637,4026 5640,4007 5635,3985 5649,3972 5656,3955 5649,3947 5634,3960 5624,3970 5599,3964 5580,3949 5547,3947 5524,3945 5516,3926 5512,3894 5502,3884 5492,3895 5492,3911 5485,3925 5469,3917 5471,3904 5479,3890 5477,3877 5480,3865 5491,3860 5505,3850 5520,3835 5520,3825 5509,3811 5506,3795 5515,3776 5537,3760 5571,3754 5595,3761 5609,3760 5622,3739 5600,3727 5577,3701 5541,3677 5504,3665 5479,3679 5462,3696 5459,3722 5446,3740 5427,3755 5422,3771 5429,3779 5452,3776 5457,3786 5457,3804 5424,3810 5389,3830 5418,3859 5391,3873 5356,3870 5323,3865 5297,3886 5263,3890 5232,3864 5200,3851 5171,3844 5166,3811 5134,3788 5099,3759 5070,3741 5048,3730 5046,3690 5037,3675 5008,3678 4983,3681 4953,3680 4924,3655 4906,3624 4893,3595 4878,3559 4869,3533 4869,3504 4871,3478 4871,3449 4905,3439 4924,3419 4920,3395 4908,3366 4909,3337 4893,3309 4864,3288 4831,3274 4797,3288 4779,3271 4778,3241 4794,3214 4826,3195 4839,3167 4833,3138 4833,3110 4828,3082 4809,3053 4792,3019 4792,2992 4803,2962 4795,2928 4772,2890 4758,2854 4750,2829 4738,2801 4705,2798 4674,2800 4662,2774 4649,2748 4624,2736 4608,2707 4618,2676 4624,2650 4594,2640 4589,2612 4563,2610 4545,2583 4519,2580 4493,2580 4460,2566 4430,2553 4403,2564 4392,2569 4393,2592 4382,2593 4363,2575 4330,2563 4320,2557 4314,2539 4311,2530 4308,2494 4312,2462 4297,2436 4266,2411 4240,2379 4239,2347 4250,2321 4224,2292 4232,2257 4247,2225 4236,2200 4204,2193 4197,2165 4167,2171 4171,2144 4189,2118 4187,2092 4177,2058 4172,2032 4161,1999 4162,1973 4167,1942 4162,1909 4159,1873 4147,1846 4136,1818 4112,1793 4084,1781 4050,1792 4025,1776 4034,1745 4023,1706 4009,1672 4018,1641 4037,1611 4037,1574 4037,1548 4028,1518 4014,1490 4022,1461 4005,1436 4000,1405 4005,1375 3986,1349 3993,1324 4013,1296 4025,1270 4016,1242 3990,1222 3964,1211 3934,1189 3902,1181 3876,1167 3898,1139 3884,1113 3901,1085 3931,1080 3912,1055 3893,1022 3919,1001 3932,974 3921,948 3945,911 3919,894 3890,894 3861,897 3835,881 3805,855 3775,849 3760,823 3776,791 3803,763 3792,738 3763,750 3732,759 3706,734 3713,705 3702,672 3668,658 3641,666 3613,658 3587,659 3561,663 3534,655 3503,647 3482,621 3453,609 3428,603 3403,587 3380,568 3370,549 3366,533 3355,519 3338,521 3330,532 3326,549 3318,554 3306,541 3298,527 3295,519 3281,506 3240,471 3218,441 3193,405 3204,376 3234,393 3265,408 3293,393 3322,380 3349,384 3382,392 3399,367 3429,352 3433,326 3466,321 3459,288 3456,262 3464,234 3469,202 3484,173 3487,146 3513,132 3538,132 3566,124 3596,128 3625,151 3651,163 3679,173 3706,157 3733,159 3746,131 3775,114 3801,98 3828,97 3855,113 " class="polyStyle" id="431121" style="fill:#fbe6ef"/>
<polygon points="2440,22 2470,2 2496,3 2535,4 2553,35 2590,31 2619,46 2646,52 2681,46 2709,37 2744,37 2777,44 2811,23 2838,12 2872,11 2900,33 2907,60 2912,92 2941,117 2961,133 2978,161 2990,188 2992,219 2991,250 2974,246 2946,268 2916,290 2907,298 2896,308 2881,315 2863,321 2863,338 2879,347 2897,350 2902,357 2909,364 2917,399 2901,436 2873,455 2868,472 2858,488 2861,503 2872,512 2864,522 2846,525 2829,511 2803,499 2771,466 2738,458 2696,463 2672,494 2654,496 2635,483 2617,437 2604,430 2593,434 2587,447 2589,476 2577,486 2590,504 2606,513 2613,527 2610,548 2612,563 2625,563 2635,548 2636,530 2650,526 2663,535 2662,552 2651,567 2642,582 2637,593 2638,606 2651,607 2670,606 2681,615 2680,631 2651,646 2626,647 2616,654 2596,683 2592,709 2608,743 2635,756 2667,778 2645,810 2646,840 2668,869 2696,871 2723,901 2722,928 2720,954 2690,963 2651,967 2622,974 2590,1003 2615,1017 2629,1044 2631,1078 2661,1075 2692,1073 2717,1071 2748,1049 2778,1026 2813,1040 2842,1063 2857,1091 2881,1123 2913,1150 2943,1159 2971,1179 2968,1209 2939,1201 2903,1192 2870,1206 2836,1238 2805,1248 2803,1274 2820,1303 2835,1334 2845,1365 2866,1395 2892,1426 2900,1451 2911,1485 2937,1509 2950,1538 2975,1545 3001,1539 3030,1537 3059,1516 3085,1525 3107,1554 3120,1583 3126,1612 3112,1640 3118,1669 3114,1704 3123,1730 3107,1764 3079,1768 3062,1798 3035,1817 3054,1844 3056,1870 3047,1896 3032,1922 3032,1953 3001,1945 2972,1943 2943,1954 2910,1968 2895,1999 2865,2007 2858,2032 2845,2063 2822,2088 2819,2115 2845,2122 2873,2099 2878,2126 2848,2151 2815,2172 2787,2187 2761,2196 2727,2184 2721,2210 2721,2240 2718,2275 2723,2301 2717,2332 2734,2359 2752,2388 2779,2401 2807,2406 2836,2421 2848,2454 2865,2481 2857,2509 2865,2535 2859,2565 2862,2593 2867,2619 2882,2645 2900,2676 2929,2700 2929,2725 2917,2760 2922,2787 2947,2801 2955,2830 2928,2856 2925,2857 2898,2866 2893,2878 2897,2894 2910,2911 2909,2927 2898,2937 2868,2938 2835,2925 2805,2899 2782,2873 2746,2841 2720,2839 2705,2854 2685,2893 2684,2918 2683,2946 2667,2969 2647,2972 2619,2972 2615,2977 2605,3006 2589,3001 2571,3008 2557,3022 2546,3037 2518,3054 2491,3074 2465,3086 2432,3093 2404,3101 2372,3117 2363,3142 2350,3169 2337,3188 2317,3232 2315,3258 2305,3285 2276,3316 2250,3337 2222,3335 2196,3326 2174,3297 2147,3299 2113,3319 2093,3347 2087,3367 2085,3386 2083,3398 2067,3400 2055,3384 2033,3397 2002,3408 1971,3394 1963,3386 1951,3384 1941,3397 1930,3404 1915,3406 1913,3421 1908,3429 1891,3423 1883,3401 1868,3394 1837,3406 1828,3432 1830,3467 1828,3493 1830,3516 1842,3536 1857,3549 1858,3572 1853,3587 1843,3583 1840,3569 1823,3573 1811,3581 1800,3582 1778,3563 1763,3542 1750,3528 1726,3536 1717,3559 1702,3579 1706,3609 1713,3652 1730,3674 1746,3678 1768,3679 1775,3691 1762,3699 1742,3701 1716,3714 1705,3734 1681,3753 1633,3757 1596,3753 1599,3749 1569,3721 1587,3697 1565,3665 1553,3659 1529,3637 1523,3627 1529,3601 1533,3593 1539,3575 1545,3557 1553,3539 1567,3523 1595,3507 1613,3505 1611,3475 1605,3459 1611,3447 1619,3427 1609,3409 1603,3409 1593,3407 1585,3405 1581,3401 1587,3379 1601,3355 1597,3329 1603,3305 1609,3297 1639,3301 1645,3295 1627,3277 1605,3277 1591,3269 1589,3257 1599,3253 1609,3251 1625,3253 1649,3257 1673,3241 1689,3247 1701,3251 1707,3253 1709,3245 1709,3237 1685,3225 1683,3173 1701,3149 1699,3105 1705,3079 1695,3059 1689,3043 1695,3037 1699,3029 1695,3021 1679,3023 1669,3025 1665,3023 1661,2995 1635,2983 1621,2991 1607,2995 1599,2985 1589,2959 1585,2955 1575,2963 1567,2967 1557,2965 1543,2957 1539,2965 1537,2983 1509,2993 1495,3015 1417,3013 1405,3043 1393,3043 1389,3003 1353,2995 1347,2999 1343,3029 1327,3027 1303,3031 1311,3001 1305,2991 1279,2975 1245,2939 1281,2921 1283,2907 1263,2881 1275,2853 1279,2823 1281,2807 1267,2803 1259,2801 1243,2805 1233,2809 1229,2811 1201,2829 1197,2829 1191,2829 1181,2827 1157,2819 1135,2807 1097,2771 1085,2783 1075,2797 1047,2803 1007,2805 973,2809 939,2811 913,2807 905,2807 899,2801 897,2797 889,2785 875,2785 865,2813 845,2811 835,2793 815,2793 801,2805 771,2817 747,2821 723,2817 677,2787 637,2751 595,2725 587,2725 571,2739 565,2735 559,2713 549,2711 533,2713 519,2719 517,2747 481,2731 469,2729 451,2737 439,2735 441,2723 457,2705 455,2687 459,2667 445,2671 425,2673 413,2675 397,2655 365,2653 347,2655 305,2655 295,2655 285,2651 269,2645 261,2641 257,2639 253,2631 251,2623 253,2619 277,2561 283,2553 281,2548 306,2525 335,2494 339,2460 371,2424 351,2398 337,2367 340,2339 360,2304 366,2275 374,2242 391,2216 393,2188 430,2164 459,2143 463,2113 462,2086 487,2066 514,2042 532,2001 546,1972 546,1940 527,1910 551,1883 557,1855 564,1825 580,1793 576,1761 575,1728 563,1701 576,1674 577,1640 572,1611 566,1574 565,1538 575,1501 586,1474 581,1447 593,1416 619,1400 648,1406 680,1395 722,1406 750,1410 779,1405 791,1372 806,1336 811,1307 803,1277 793,1250 827,1242 863,1227 889,1227 914,1246 921,1272 929,1305 911,1336 912,1363 910,1397 903,1423 887,1451 880,1513 877,1545 879,1577 904,1594 932,1618 961,1642 991,1675 1015,1708 1025,1739 1049,1766 1075,1785 1061,1817 1036,1826 1026,1851 1034,1880 1018,1913 1039,1940 1068,1949 1095,1974 1122,1966 1155,1983 1153,2015 1187,2038 1220,2042 1250,2054 1266,2022 1294,2007 1321,1986 1349,1973 1376,1952 1409,1925 1443,1930 1477,1924 1506,1921 1532,1934 1549,1905 1565,1868 1584,1842 1610,1856 1628,1884 1656,1891 1686,1877 1693,1842 1711,1812 1729,1782 1726,1744 1724,1709 1711,1675 1705,1645 1702,1620 1697,1591 1689,1565 1692,1527 1720,1505 1734,1476 1734,1446 1760,1431 1771,1395 1768,1369 1765,1339 1765,1302 1770,1264 1778,1231 1810,1211 1815,1184 1807,1154 1775,1133 1750,1120 1749,1089 1740,1059 1739,1031 1730,1005 1717,979 1691,965 1664,961 1646,933 1623,903 1625,895 1651,886 1679,874 1711,860 1746,845 1770,816 1782,791 1817,786 1846,773 1854,743 1827,717 1830,682 1844,656 1867,628 1879,599 1885,568 1886,538 1878,505 1891,478 1865,463 1850,432 1862,405 1856,377 1838,350 1819,324 1839,296 1858,269 1851,242 1871,209 1884,176 1902,147 1933,127 1962,108 1990,85 1994,59 2001,31 2038,23 2068,12 2100,43 2129,44 2159,31 2185,30 2212,25 2248,37 2273,49 2309,45 2328,14 2363,1 2389,0 2415,30 " class="polyStyle" id="431122" style="fill:#fbe6ef"/>
<path d="" class="polyStyle" id="522627" style="fill:#ee8b94"/>
<path d="" class="polyStyle" id="510421" style="fill:#fbe6ef"/>
<path d="" class="polyStyle" id="522623" style="fill:#d4ecb2"/>
<path d="" class="polyStyle" id="430321" style="fill:#d4ecb2"/>
<path d="" class="polyStyle" id="511129" style="fill:#d4ecb2"/>
<path d="" class="polyStyle" id="511423" style="fill:#ee8b94"/>
<path d="" class="polyStyle" id="421023" style="fill:#f6f67b"/>
<path d="" class="polyStyle" id="511724" style="fill:#f6f67b"/>
<path d="" class="polyStyle" id="420526" style="fill:#fbe6ef"/>
<path d="" class="polyStyle" id="511923" style="fill:#fbe6ef"/>
<path d="" class="polyStyle" id="420325" style="fill:#fbe6ef"/>
<path d="" class="polyStyle" id="511921" style="fill:#f6f67b"/>
<path d="" class="polyStyle" id="542525" style="fill:#f6f67b"/>
<path d="" class="polyStyle" id="611026" style="fill:#ee8b94"/>
<path d="" class="polyStyle" id="411023" style="fill:#fbe6ef"/>
<path d="" class="polyStyle" id="632323" style="fill:#f6f67b"/>
<path d="" class="polyStyle" id="140525" style="fill:#d4ecb2"/>
<path d="" class="polyStyle" id="410922" style="fill:#ee8b94"/>
<path d="" class="polyStyle" id="621027" style="fill:#ee8b94"/>
<path d="" class="polyStyle" id="130427" style="fill:#f6f67b"/>
<path d="" class="polyStyle" id="130121" style="fill:#ee8b94"/>
<path d="" class="polyStyle" id="610823" style="fill:#fbe6ef"/>
<path d="" class="polyStyle" id="130225" style="fill:#fbe6ef"/>
<path d="" class="polyStyle" id="130322" style="fill:#d4ecb2"/>
<path d="" class="polyStyle" id="653130" style="fill:#f6f67b"/>
<path d="" class="polyStyle" id="130822" style="fill:#fbe6ef"/>
<path d="" class="polyStyle" id="211221" style="fill:#f6f67b"/>
<path d="" class="polyStyle" id="210921" style="fill:#f6f67b"/>
<path d="" class="polyStyle" id="150223" style="fill:#f8c67d"/>
<path d="" class="polyStyle" id="220422" style="fill:#d4ecb2"/>
<path d="" class="polyStyle" id="340721" style="fill:#f6f67b"/>
<path d="" class="polyStyle" id="510824" style="fill:#d4ecb2"/>
<path d="" class="polyStyle" id="610324" style="fill:#f6f67b"/>
<path d="" class="polyStyle" id="530722" style="fill:#ee8b94"/>
<path d="" class="polyStyle" id="340823" style="fill:#d4ecb2"/>
<path d="" class="polyStyle" id="620825" style="fill:#d4ecb2"/>
<path d="" class="polyStyle" id="421125" style="fill:#ee8b94"/>
<path d="" class="polyStyle" id="210281" style="fill:#ee8b94"/>
<path d="" class="polyStyle" id="440883" style="fill:#f6f67b"/>
<path d="" class="polyStyle" id="469006" style="fill:#d4ecb2"/>
<path d="" class="polyStyle" id="469002" style="fill:#ee8b94"/>
<path d="" class="polyStyle" id="469005" style="fill:#fbe6ef"/>
<path d="" class="polyStyle" id="440882" style="fill:#ee8b94"/>
<path d="" class="polyStyle" id="450681" style="fill:#ee8b94"/>
<path d="" class="polyStyle" id="441581" style="fill:#d4ecb2"/>
<path d="" class="polyStyle" id="421087" style="fill:#ee8b94"/>
<path d="" class="polyStyle" id="420984" style="fill:#fbe6ef"/>
<path d="" class="polyStyle" id="420582" style="fill:#ee8b94"/>
<path d="" class="polyStyle" id="370282" style="fill:#f6f67b"/>
<path d="" class="polyStyle" id="371083" style="fill:#f6f67b"/>
<path d="" class="polyStyle" id="371082" style="fill:#fbe6ef"/>
<path d="" class="polyStyle" id="652801" style="fill:#f8c67d"/>
<path d="" class="polyStyle" id="654301" style="fill:#ee8b94"/>
<path d="" class="polyStyle" id="370687" style="fill:#ee8b94"/>
<path d="" class="polyStyle" id="371482" style="fill:#d4ecb2"/>
<path d="" class="polyStyle" id="421081" style="fill:#fbe6ef"/>
<path d="" class="polyStyle" id="429006" style="fill:#f6f67b"/>
<path d="" class="polyStyle" id="440982" style="fill:#d4ecb2"/>
<path d="" class="polyStyle" id="421181" style="fill:#d4ecb2"/>
<path d="" class="polyStyle" id="321181" style="fill:#d4ecb2"/>
<path d="" class="polyStyle" id="659007" style="fill:#ee8b94"/>
<path d="" class="polyStyle" id="652701" style="fill:#fbe6ef"/>
<path d="" class="polyStyle" id="210781" style="fill:#fbe6ef"/>
<path d="" class="polyStyle" id="460204" style="fill:#f6f67b"/>
<path d="" class="polyStyle" id="210211" style="fill:#f6f67b"/>
<path d="" class="polyStyle" id="450512" style="fill:#ee8b94"/>
<path d="" class="polyStyle" id="450602" style="fill:#fbe6ef"/>
<path d="" class="polyStyle" id="440404" style="fill:#ee8b94"/>
<path d="" class="polyStyle" id="440403" style="fill:#f6f67b"/>
<path d="" class="polyStyle" id="441502" style="fill:#f6f67b"/>
<path d="" class="polyStyle" id="431002" style="fill:#d4ecb2"/>
<polygon points="4330,2563 4363,2575 4382,2593 4393,2592 4392,2569 4403,2564 4430,2553 4460,2566 4493,2580 4519,2580 4545,2583 4563,2610 4589,2612 4594,2640 4624,2650 4618,2676 4608,2707 4624,2736 4649,2748 4662,2774 4674,2800 4705,2798 4738,2801 4750,2829 4758,2854 4772,2890 4795,2928 4803,2962 4792,2992 4792,3019 4809,3053 4828,3082 4833,3110 4833,3138 4839,3167 4826,3195 4794,3214 4778,3241 4779,3271 4797,3288 4831,3274 4864,3288 4893,3309 4909,3337 4908,3366 4920,3395 4924,3419 4905,3439 4871,3449 4871,3478 4869,3504 4869,3533 4878,3559 4893,3595 4906,3624 4924,3655 4953,3680 4983,3681 5008,3678 5037,3675 5046,3690 5048,3730 5022,3745 4993,3765 4964,3789 4939,3790 4909,3797 4882,3797 4850,3790 4822,3776 4797,3797 4763,3779 4734,3766 4703,3753 4673,3731 4646,3714 4612,3689 4578,3668 4543,3652 4523,3627 4504,3590 4485,3561 4476,3523 4446,3511 4421,3517 4391,3512 4355,3513 4317,3520 4295,3549 4269,3551 4239,3551 4212,3561 4176,3562 4141,3574 4172,3600 4176,3629 4178,3659 4147,3673 4173,3691 4200,3701 4183,3726 4151,3738 4131,3766 4102,3796 4071,3798 4039,3793 4009,3788 3977,3795 3970,3823 3943,3850 3951,3877 3958,3903 3951,3930 3930,3955 3903,3958 3872,3944 3856,3916 3831,3880 3803,3886 3777,3900 3741,3917 3708,3930 3681,3952 3653,3975 3627,3982 3595,4009 3561,4044 3527,4052 3494,4050 3461,4024 3459,3988 3465,3962 3494,3948 3521,3934 3512,3900 3481,3884 3454,3908 3414,3907 3382,3901 3353,3911 3318,3912 3287,3932 3269,3960 3249,3990 3230,4025 3229,4050 3226,4082 3221,4114 3214,4132 3196,4152 3171,4148 3143,4173 3115,4187 3087,4201 3064,4233 3033,4242 3007,4265 2997,4295 3002,4328 3006,4356 3009,4361 3067,4391 3085,4381 3097,4369 3125,4359 3147,4369 3162,4399 3162,4422 3147,4434 3159,4457 3172,4464 3181,4469 3193,4482 3220,4492 3251,4509 3270,4535 3297,4555 3302,4581 3290,4609 3256,4662 3228,4683 3195,4686 3166,4664 3150,4635 3132,4606 3104,4585 3099,4567 3086,4566 3075,4576 3045,4586 3023,4613 2990,4641 2964,4657 2937,4653 2926,4620 2924,4591 2922,4583 2925,4567 2916,4557 2889,4553 2881,4561 2865,4574 2849,4591 2832,4597 2830,4592 2835,4576 2831,4566 2821,4558 2806,4559 2792,4564 2771,4567 2752,4561 2732,4552 2720,4558 2709,4552 2712,4541 2725,4531 2734,4518 2741,4493 2735,4479 2706,4450 2678,4445 2645,4426 2618,4429 2593,4445 2565,4455 2539,4450 2519,4420 2495,4393 2462,4385 2447,4394 2430,4416 2421,4439 2417,4456 2424,4480 2426,4501 2422,4513 2411,4515 2395,4509 2385,4510 2381,4529 2392,4536 2415,4543 2420,4561 2412,4571 2397,4583 2382,4586 2375,4576 2357,4574 2345,4584 2336,4596 2327,4605 2305,4638 2275,4652 2278,4680 2280,4711 2290,4739 2273,4765 2253,4794 2263,4820 2271,4854 2259,4885 2255,4914 2243,4923 2215,4909 2201,4913 2182,4928 2175,4931 2165,4929 2159,4925 2155,4921 2167,4901 2141,4891 2131,4873 2143,4851 2137,4829 2119,4805 2105,4819 2097,4827 2075,4839 2079,4871 2059,4867 2037,4869 2035,4843 2027,4831 2021,4839 2009,4869 1989,4869 1987,4863 1987,4851 1979,4829 1975,4821 1969,4811 1949,4801 1921,4815 1903,4825 1899,4803 1893,4803 1883,4815 1869,4833 1869,4837 1875,4847 1875,4855 1871,4863 1867,4871 1863,4881 1815,4887 1789,4893 1765,4925 1739,4931 1745,4947 1739,4963 1701,5003 1695,5025 1709,5037 1709,5061 1695,5063 1679,5063 1677,5059 1673,5055 1657,5033 1647,5029 1629,5029 1605,5027 1593,5003 1587,4999 1551,5021 1537,5021 1507,5015 1489,5011 1485,5003 1479,4991 1483,4969 1483,4943 1467,4923 1459,4913 1457,4905 1459,4887 1455,4877 1451,4873 1443,4873 1433,4873 1425,4871 1413,4865 1401,4857 1391,4849 1381,4837 1373,4827 1369,4815 1367,4811 1365,4797 1385,4787 1407,4787 1415,4773 1423,4763 1407,4759 1373,4753 1361,4725 1329,4709 1327,4697 1349,4691 1359,4667 1353,4659 1303,4631 1283,4611 1289,4597 1291,4589 1287,4583 1269,4577 1257,4567 1223,4563 1211,4563 1217,4549 1223,4533 1223,4509 1225,4489 1233,4479 1267,4449 1277,4435 1271,4405 1271,4397 1277,4387 1309,4341 1313,4329 1305,4321 1295,4311 1293,4305 1317,4283 1315,4251 1343,4221 1359,4203 1373,4181 1367,4155 1371,4149 1383,4139 1415,4129 1403,4095 1415,4087 1443,4089 1517,4067 1539,4073 1535,4101 1547,4111 1555,4113 1563,4113 1567,4103 1565,4087 1569,4069 1575,4055 1573,4035 1569,4033 1565,4031 1545,4029 1531,4019 1527,4017 1513,4003 1505,3997 1497,3979 1511,3965 1505,3953 1484,3956 1483,3951 1487,3937 1513,3905 1521,3881 1579,3853 1575,3833 1527,3855 1517,3843 1535,3813 1521,3801 1539,3785 1555,3793 1591,3759 1596,3753 1633,3757 1681,3753 1705,3734 1716,3714 1742,3701 1762,3699 1775,3691 1768,3679 1746,3678 1730,3674 1713,3652 1706,3609 1702,3579 1717,3559 1726,3536 1750,3528 1763,3542 1778,3563 1800,3582 1811,3581 1823,3573 1840,3569 1843,3583 1853,3587 1858,3572 1857,3549 1842,3536 1830,3516 1828,3493 1830,3467 1828,3432 1837,3406 1868,3394 1883,3401 1891,3423 1908,3429 1913,3421 1915,3406 1930,3404 1941,3397 1951,3384 1963,3386 1971,3394 2002,3408 2033,3397 2055,3384 2067,3400 2083,3398 2085,3386 2087,3367 2093,3347 2113,3319 2147,3299 2174,3297 2196,3326 2222,3335 2250,3337 2276,3316 2305,3285 2315,3258 2317,3232 2337,3188 2350,3169 2363,3142 2372,3117 2404,3101 2432,3093 2465,3086 2491,3074 2518,3054 2546,3037 2557,3022 2571,3008 2589,3001 2605,3006 2615,2977 2619,2972 2647,2972 2667,2969 2683,2946 2684,2918 2685,2893 2705,2854 2720,2839 2746,2841 2782,2873 2805,2899 2835,2925 2868,2938 2898,2937 2909,2927 2910,2911 2897,2894 2893,2878 2898,2866 2925,2857 2959,2874 2974,2899 2987,2925 2991,2951 3021,2980 3050,3000 3078,2998 3110,2993 3134,2995 3143,3001 3145,3012 3132,3029 3120,3047 3125,3062 3134,3071 3146,3075 3156,3072 3187,3049 3203,3048 3220,3058 3228,3066 3227,3090 3226,3109 3241,3112 3247,3107 3253,3096 3267,3071 3271,3052 3286,3016 3308,2991 3324,2980 3349,2955 3364,2920 3363,2893 3358,2855 3377,2822 3405,2807 3431,2800 3457,2787 3490,2787 3518,2791 3545,2782 3572,2759 3579,2732 3560,2701 3553,2674 3579,2659 3617,2643 3644,2646 3671,2656 3690,2626 3724,2615 3753,2597 3783,2596 3816,2592 3847,2593 3881,2578 3910,2587 3940,2577 3966,2587 3969,2624 3973,2656 3986,2686 4019,2673 4048,2659 4081,2666 4108,2636 4134,2651 4161,2631 4158,2592 4163,2585 4186,2574 4212,2575 4242,2572 4268,2592 4291,2566 4314,2539 4320,2557 " class="polyStyle" id="431102" style="fill:#d4ecb2"/>
<polygon points="2988,259 2999,281 3019,302 3040,301 3062,294 3097,287 3117,282 3129,307 3133,339 3145,359 3180,364 3204,376 3193,405 3218,441 3240,471 3281,506 3295,519 3298,527 3306,541 3318,554 3326,549 3330,532 3338,521 3355,519 3366,533 3370,549 3380,568 3403,587 3428,603 3453,609 3482,621 3503,647 3534,655 3561,663 3587,659 3613,658 3641,666 3668,658 3702,672 3713,705 3706,734 3732,759 3763,750 3792,738 3803,763 3776,791 3760,823 3775,849 3805,855 3835,881 3861,897 3890,894 3919,894 3945,911 3921,948 3932,974 3919,1001 3893,1022 3912,1055 3931,1080 3901,1085 3884,1113 3898,1139 3876,1167 3902,1181 3934,1189 3964,1211 3990,1222 4016,1242 4025,1270 4013,1296 3993,1324 3986,1349 4005,1375 4000,1405 4005,1436 4022,1461 4014,1490 4028,1518 4037,1548 4037,1574 4037,1611 4018,1641 4009,1672 4023,1706 4034,1745 4025,1776 4050,1792 4084,1781 4112,1793 4136,1818 4147,1846 4159,1873 4162,1909 4167,1942 4162,1973 4161,1999 4172,2032 4177,2058 4187,2092 4189,2118 4171,2144 4167,2171 4197,2165 4204,2193 4236,2200 4247,2225 4232,2257 4224,2292 4250,2321 4239,2347 4240,2379 4266,2411 4297,2436 4312,2462 4308,2494 4311,2530 4314,2539 4291,2566 4268,2592 4242,2572 4212,2575 4186,2574 4163,2585 4158,2592 4161,2631 4134,2651 4108,2636 4081,2666 4048,2659 4019,2673 3986,2686 3973,2656 3969,2624 3966,2587 3940,2577 3910,2587 3881,2578 3847,2593 3816,2592 3783,2596 3753,2597 3724,2615 3690,2626 3671,2656 3644,2646 3617,2643 3579,2659 3553,2674 3560,2701 3579,2732 3572,2759 3545,2782 3518,2791 3490,2787 3457,2787 3431,2800 3405,2807 3377,2822 3358,2855 3363,2893 3364,2920 3349,2955 3324,2980 3308,2991 3286,3016 3271,3052 3267,3071 3253,3096 3247,3107 3241,3112 3226,3109 3227,3090 3228,3066 3220,3058 3203,3048 3187,3049 3156,3072 3146,3075 3134,3071 3125,3062 3120,3047 3132,3029 3145,3012 3143,3001 3134,2995 3110,2993 3078,2998 3050,3000 3021,2980 2991,2951 2987,2925 2974,2899 2959,2874 2925,2857 2928,2856 2955,2830 2947,2801 2922,2787 2917,2760 2929,2725 2929,2700 2900,2676 2882,2645 2867,2619 2862,2593 2859,2565 2865,2535 2857,2509 2865,2481 2848,2454 2836,2421 2807,2406 2779,2401 2752,2388 2734,2359 2717,2332 2723,2301 2718,2275 2721,2240 2721,2210 2727,2184 2761,2196 2787,2187 2815,2172 2848,2151 2878,2126 2873,2099 2845,2122 2819,2115 2822,2088 2845,2063 2858,2032 2865,2007 2895,1999 2910,1968 2943,1954 2972,1943 3001,1945 3032,1953 3032,1922 3047,1896 3056,1870 3054,1844 3035,1817 3062,1798 3079,1768 3107,1764 3123,1730 3114,1704 3118,1669 3112,1640 3126,1612 3120,1583 3107,1554 3085,1525 3059,1516 3030,1537 3001,1539 2975,1545 2950,1538 2937,1509 2911,1485 2900,1451 2892,1426 2866,1395 2845,1365 2835,1334 2820,1303 2803,1274 2805,1248 2836,1238 2870,1206 2903,1192 2939,1201 2968,1209 2971,1179 2943,1159 2913,1150 2881,1123 2857,1091 2842,1063 2813,1040 2778,1026 2748,1049 2717,1071 2692,1073 2661,1075 2631,1078 2629,1044 2615,1017 2590,1003 2622,974 2651,967 2690,963 2720,954 2722,928 2723,901 2696,871 2668,869 2646,840 2645,810 2667,778 2635,756 2608,743 2592,709 2596,683 2616,654 2626,647 2651,646 2680,631 2681,615 2670,606 2651,607 2638,606 2637,593 2642,582 2651,567 2662,552 2663,535 2650,526 2636,530 2635,548 2625,563 2612,563 2610,548 2613,527 2606,513 2590,504 2577,486 2589,476 2587,447 2593,434 2604,430 2617,437 2635,483 2654,496 2672,494 2696,463 2738,458 2771,466 2803,499 2829,511 2846,525 2864,522 2872,512 2861,503 2858,488 2868,472 2873,455 2901,436 2917,399 2909,364 2902,357 2897,350 2879,347 2863,338 2863,321 2881,315 2896,308 2907,298 2916,290 2946,268 2974,246 2991,250 " class="polyStyle" id="431103" style="fill:#f6f67b"/>
<path d="" class="polyStyle" id="500107" style="fill:#fbe6ef"/>
<path d="" class="polyStyle" id="430611" style="fill:#d4ecb2"/>
<path d="" class="polyStyle" id="511304" style="fill:#fbe6ef"/>
<path d="" class="polyStyle" id="340711" style="fill:#ee8b94"/>
<path d="" class="polyStyle" id="320118" style="fill:#f6f67b"/>
<path d="" class="polyStyle" id="510704" style="fill:#f6f67b"/>
<path d="" class="polyStyle" id="411502" style="fill:#ee8b94"/>
<path d="" class="polyStyle" id="320302" style="fill:#d4ecb2"/>
<path d="" class="polyStyle" id="140311" style="fill:#ee8b94"/>
<path d="" class="polyStyle" id="610802" style="fill:#ee8b94"/>
<path d="" class="polyStyle" id="120116" style="fill:#f6f67b"/>
<path d="" class="polyStyle" id="130303" style="fill:#fbe6ef"/>
<path d="" class="polyStyle" id="140211" style="fill:#f6f67b"/>
<path d="" class="polyStyle" id="150207" style="fill:#fbe6ef"/>
<path d="" class="polyStyle" id="211403" style="fill:#f6f67b"/>
<path d="" class="polyStyle" id="150802" style="fill:#f8c67d"/>
<path d="" class="polyStyle" id="210112" style="fill:#ee8b94"/>
<path d="" class="polyStyle" id="230406" style="fill:#d4ecb2"/>
<path d="" class="polyStyle" id="110113" style="fill:#fbe6ef"/>
<path d="" class="polyStyle" id="341702" style="fill:#fbe6ef"/>
<path d="" class="polyStyle" id="420303" style="fill:#ee8b94"/>
<path d="" class="polyStyle" id="340702" style="fill:#d4ecb2"/>
<path d="" class="polyStyle" id="421002" style="fill:#f6f67b"/>
<path d="" class="polyStyle" id="420117" style="fill:#f6f67b"/>
<path d="" class="polyStyle" id="440904" style="fill:#f8c67d"/>
<path d="" class="polyStyle" id="460205" style="fill:#ee8b94"/>
<path d="" class="polyStyle" id="460202" style="fill:#f6f67b"/>
<path d="" class="polyStyle" id="460203" style="fill:#fbe6ef"/>
<path d="" class="polyStyle" id="420304" style="fill:#f6f67b"/>
<path d="" class="polyStyle" id="445302" style="fill:#ee8b94"/>
<path d="" class="polyStyle" id="410202" style="fill:#d4ecb2"/>
<path d="" class="polyStyle" id="440800" style="fill:#f6f67b"/>
<path d="" class="polyStyle" id="440900" style="fill:#ee8b94"/>
<path d="" class="polyStyle" id="340800" style="fill:#ee8b94"/>
<path d="" class="polyStyle" id="460200" style="fill:#f6f67b"/>
<path d="" class="polyStyle" id="460000" style="fill:#ee8b94"/>
<path d="" class="polyStyle" id="450500" style="fill:#ee8b94"/>
<path d="" class="polyStyle" id="450600" style="fill:#ee8b94"/>
<path d="" class="polyStyle" id="440400" style="fill:#f6f67b"/>
<path d="" class="polyStyle" id="441700" style="fill:#f6f67b"/>
<path d="" class="polyStyle" id="441500" style="fill:#f6f67b"/>
<path d="" class="polyStyle" id="350600" style="fill:#ee8b94"/>
<path d="" class="polyStyle" id="710000" style="fill:#f6f67b"/>
<path d="" class="polyStyle" id="510400" style="fill:#f6f67b"/>
<path d="" class="polyStyle" id="522600" style="fill:#fbe6ef"/>
<path d="" class="polyStyle" id="520500" style="fill:#ee8b94"/>
<path d="" class="polyStyle" id="431200" style="fill:#f6f67b"/>
<path d="" class="polyStyle" id="430600" style="fill:#f6f67b"/>
<path d="" class="polyStyle" id="511400" style="fill:#d4ecb2"/>
<path d="" class="polyStyle" id="421000" style="fill:#ee8b94"/>
<path d="" class="polyStyle" id="341700" style="fill:#f6f67b"/>
<path d="" class="polyStyle" id="420500" style="fill:#f6f67b"/>
<path d="" class="polyStyle" id="511300" style="fill:#f6f67b"/>
<path d="" class="polyStyle" id="420900" style="fill:#f6f67b"/>
<path d="" class="polyStyle" id="511700" style="fill:#ee8b94"/>
<path d="" class="polyStyle" id="420600" style="fill:#d4ecb2"/>
<path d="" class="polyStyle" id="411500" style="fill:#fbe6ef"/>
<path d="" class="polyStyle" id="510800" style="fill:#ee8b94"/>
<path d="" class="polyStyle" id="420300" style="fill:#fbe6ef"/>
<path d="" class="polyStyle" id="611000" style="fill:#ee8b94"/>
<path d="" class="polyStyle" id="620800" style="fill:#fbe6ef"/>
<path d="" class="polyStyle" id="370200" style="fill:#ee8b94"/>
<path d="" class="polyStyle" id="371000" style="fill:#f6f67b"/>
<path d="" class="polyStyle" id="370600" style="fill:#fbe6ef"/>
<path d="" class="polyStyle" id="120000" style="fill:#f6f67b"/>
<path d="" class="polyStyle" id="130200" style="fill:#ee8b94"/>
<path d="" class="polyStyle" id="130300" style="fill:#f6f67b"/>
<path d="" class="polyStyle" id="652900" style="fill:#fbe6ef"/>
<path d="" class="polyStyle" id="150500" style="fill:#d4ecb2"/>
<path d="" class="polyStyle" id="" style="fill:#d4ecb2"/>
<path d="" class="polyStyle" id="350500" style="fill:#fbe6ef"/>
<path d="" class="polyStyle" id="440400" style="fill:#f6f67b"/>
<path d="" class="polyStyle" id="421100" style="fill:#d4ecb2"/>
<path d="" class="polyStyle" id="420100" style="fill:#fbe6ef"/>
<path d="" class="polyStyle" id="532500" style="fill:#fbe6ef"/>
<path d="" class="polyStyle" id="654200" style="fill:#fbe6ef"/>
<path d="" class="polyStyle" id="210700" style="fill:#d4ecb2"/>
<path d="" class="polyStyle" id="522300" style="fill:#fbe6ef"/>
<path d="" class="polyStyle" id="" style="fill:#ee8b94"/>
<path d="" class="polyStyle" id="440400" style="fill:#f6f67b"/>
<path d="" class="polyStyle" id="620000" style="fill:#f6f67b"/>
<path d="" class="polyStyle" id="430000" style="fill:#fbe6ef"/>
<path d="" class="polyStyle" id="420000" style="fill:#ee8b94"/>
<path d="" class="polyStyle" id="410000" style="fill:#f6f67b"/>
<path d="" class="polyStyle" id="350000" style="fill:#fbe6ef"/>
<path d="" class="polyStyle" id="520000" style="fill:#f6f67b"/>
<path d="" class="polyStyle" id="" style="fill:#ee8b94"/>
</svg>
