<?xml version="1.0" encoding="UTF-8"?>
<!DOCTYPE svg PUBLIC "-//W3C//DTD SVG 1.1 Tiny//EN" "http://www.w3.org/Graphics/SVG/1.1/DTD/svg11-tiny.dtd">
<svg version="1.1" xmlns="http://www.w3.org/2000/svg" xmlns:xlink="http://www.w3.org/1999/xlink" width="100%" height="100%" viewBox="0,0,11601,15785">
<title>SVG</title>
<desc>Poligon Test</desc>
<style id="style_css_sheet" type="text/css">
.polyStyle{fill: #cccccc;stroke-width:0;fill-rule:evenodd;}
</style>
<circle cx="5284" cy="9069" r="200" stroke="black" stroke-width="1" fill="red" id="431281"position="3" name="洪江市"/>
<circle cx="6981" cy="5092" r="200" stroke="black" stroke-width="1" fill="red" id="431223"position="4" name="辰溪县"/>
<circle cx="8050" cy="2860" r="200" stroke="black" stroke-width="1" fill="red" id="431222" name="沅陵县"/>
<circle cx="4487" cy="7921" r="200" stroke="black" stroke-width="1" fill="red" id="431228"position="4441" name="芷江侗族自治县"/>
<circle cx="9014" cy="5561" r="200" stroke="black" stroke-width="1" fill="red" id="431224"position="4" name="溆浦县"/>
<circle cx="5071" cy="5765" r="200" stroke="black" stroke-width="1" fill="red" id="431226"position="4444" name="麻阳苗族自治县"/>
<circle cx="5759" cy="7921" r="200" stroke="black" stroke-width="1" fill="red" id="431221"position="212" name="中方县"/>
<circle cx="1909" cy="8331" r="200" stroke="black" stroke-width="1" fill="red" id="431227"position="44" name="新晃侗族自治县"/>
<circle cx="4962" cy="14330" r="200" stroke="black" stroke-width="1" fill="red" id="431230"position="44" name="通道侗族自治县"/>
<circle cx="4517" cy="12238" r="200" stroke="black" stroke-width="1" fill="red" id="431229"position="1444" name="靖州苗族侗族自治县"/>
<circle cx="4648" cy="10759" r="200" stroke="black" stroke-width="1" fill="red" id="431225" name="会同县"/>
<circle cx="5851" cy="7375" r="200" stroke="black" stroke-width="1" fill="red" id="431202" name="鹤城区"/>
<path d="" class="polyStyle" id="" style="fill:#ee8b94"/>
<path d="" class="polyStyle" id="623022" style="fill:#fbe6ef"/>
<path d="" class="polyStyle" id="211421" style="fill:#f6f67b"/>
<path d="" class="polyStyle" id="532524" style="fill:#ee8b94"/>
<path d="" class="polyStyle" id="440825" style="fill:#f6f67b"/>
<path d="" class="polyStyle" id="441721" style="fill:#f6f67b"/>
<path d="" class="polyStyle" id="450521" style="fill:#f6f67b"/>
<path d="" class="polyStyle" id="450123" style="fill:#fbe6ef"/>
<path d="" class="polyStyle" id="350624" style="fill:#f6f67b"/>
<path d="" class="polyStyle" id="" style="fill:#fbe6ef"/>
<path d="" class="polyStyle" id="451224" style="fill:#fbe6ef"/>
<path d="" class="polyStyle" id="350627" style="fill:#f6f67b"/>
<path d="" class="polyStyle" id="" style="fill:#f6f67b"/>
<path d="" class="polyStyle" id="350525" style="fill:#f6f67b"/>
<path d="" class="polyStyle" id="530124" style="fill:#ee8b94"/>
<polygon points="5728,12745 5716,12774 5709,12802 5738,12822 5767,12839 5793,12844 5819,12835 5831,12863 5827,12889 5821,12917 5828,12946 5863,12963 5896,12965 5925,12973 5951,12980 5977,12963 5986,12989 5964,13016 5943,13041 5947,13069 5935,13101 5931,13130 5940,13160 5963,13189 5999,13210 6030,13208 6055,13218 6089,13240 6100,13266 6115,13298 6127,13327 6135,13356 6137,13385 6122,13415 6105,13445 6088,13478 6090,13508 6097,13535 6096,13565 6095,13592 6069,13611 6038,13627 6013,13656 5990,13689 5967,13719 5991,13746 6004,13772 6011,13800 6019,13826 6001,13857 5990,13889 6006,13917 6004,13944 5976,13967 5959,13997 5943,14024 5919,14059 5900,14091 5895,14111 5891,14111 5883,14115 5871,14123 5857,14147 5837,14175 5799,14219 5771,14239 5731,14271 5721,14305 5717,14317 5707,14313 5689,14303 5623,14333 5613,14343 5599,14391 5587,14411 5585,14463 5581,14479 5579,14485 5595,14501 5587,14519 5577,14531 5555,14567 5563,14589 5531,14619 5515,14649 5513,14655 5521,14685 5511,14709 5499,14749 5497,14775 5495,14781 5493,14829 5483,14871 5469,14887 5431,14915 5415,14945 5393,14971 5383,14975 5321,14969 5291,14957 5275,14975 5249,14957 5217,14951 5187,14943 5181,14941 5173,14939 5167,14933 5133,14895 5123,14891 5119,14891 5113,14891 5105,14893 5083,14921 5065,14935 5053,14961 5041,14989 5029,15029 5017,15035 4999,15041 4993,15057 4989,15083 4987,15105 4979,15133 4973,15149 4973,15163 4975,15169 4975,15175 4977,15179 5001,15187 5031,15199 5039,15199 5049,15197 5057,15199 5061,15201 5063,15205 5073,15219 5087,15227 5115,15229 5121,15237 5101,15277 5103,15293 5119,15309 5117,15315 5101,15327 5097,15337 5101,15353 5111,15387 5117,15411 5131,15431 5149,15435 5135,15463 5137,15477 5189,15523 5189,15541 5189,15555 5199,15577 5191,15581 5175,15589 5165,15595 5155,15605 5145,15617 5139,15629 5133,15643 5131,15653 5129,15665 5127,15675 5127,15691 5127,15699 5127,15707 5125,15713 5089,15721 5069,15705 5055,15737 5033,15739 5003,15735 4981,15741 4974,15743 4973,15755 4971,15773 4972,15782 4961,15781 4954,15783 4950,15785 4946,15783 4928,15765 4910,15751 4888,15739 4872,15731 4870,15717 4874,15689 4878,15679 4880,15663 4868,15665 4856,15667 4826,15669 4802,15665 4782,15667 4692,15687 4644,15691 4626,15691 4610,15675 4596,15675 4570,15699 4540,15711 4520,15719 4508,15721 4488,15717 4480,15713 4466,15693 4446,15673 4438,15651 4438,15637 4452,15611 4468,15603 4494,15603 4511,15606 4511,15595 4514,15588 4522,15583 4517,15576 4504,15565 4498,15561 4494,15557 4461,15532 4452,15523 4450,15519 4446,15512 4444,15505 4452,15471 4458,15443 4464,15431 4494,15427 4504,15421 4518,15385 4518,15373 4502,15337 4504,15319 4510,15311 4524,15319 4540,15339 4552,15343 4582,15355 4596,15343 4598,15303 4628,15297 4638,15255 4648,15225 4656,15211 4664,15203 4674,15191 4690,15179 4696,15171 4698,15163 4682,15143 4678,15133 4670,15105 4630,15091 4612,15077 4598,15059 4583,15048 4568,15065 4552,15073 4546,15081 4556,15105 4568,15121 4566,15129 4542,15135 4512,15095 4496,15073 4476,15055 4472,15047 4472,15037 4470,15031 4470,15025 4466,15023 4456,15025 4438,15023 4424,15035 4372,15049 4356,15049 4314,15041 4310,15035 4300,15021 4298,15013 4298,15009 4296,14991 4300,14967 4306,14947 4308,14937 4314,14919 4318,14901 4318,14891 4316,14885 4304,14875 4286,14869 4264,14861 4258,14861 4240,14857 4210,14857 4178,14861 4162,14889 4136,14889 4128,14907 4120,14931 4110,14943 4084,14969 4054,14991 4036,14997 3982,15007 3970,15015 3956,15043 3938,15063 3928,15063 3922,15059 3914,15049 3902,15027 3878,15007 3852,14991 3834,14987 3814,14995 3790,14999 3780,15005 3780,15017 3782,15039 3780,15061 3778,15105 3768,15117 3756,15127 3728,15143 3706,15115 3696,15107 3682,15109 3672,15115 3664,15121 3650,15123 3626,15119 3636,15105 3598,15093 3608,15059 3600,15049 3544,15019 3528,15001 3526,14979 3522,14965 3518,14959 3512,14957 3508,14957 3496,14959 3486,14959 3473,14961 3462,14962 3440,14951 3430,14943 3426,14937 3426,14933 3434,14919 3442,14901 3446,14895 3448,14889 3444,14881 3438,14879 3398,14877 3392,14875 3346,14867 3332,14863 3318,14853 3308,14833 3308,14799 3294,14781 3284,14767 3284,14755 3296,14739 3298,14725 3296,14685 3294,14671 3296,14637 3300,14607 3310,14615 3324,14625 3338,14639 3372,14665 3374,14643 3378,14639 3392,14629 3408,14619 3418,14615 3448,14617 3480,14619 3528,14625 3542,14627 3560,14635 3566,14635 3570,14613 3570,14587 3586,14559 3602,14549 3606,14529 3608,14499 3610,14483 3616,14469 3574,14445 3558,14427 3542,14385 3530,14361 3524,14351 3520,14353 3518,14367 3514,14387 3507,14393 3501,14389 3498,14385 3496,14379 3493,14377 3483,14379 3480,14376 3464,14375 3460,14381 3446,14391 3436,14387 3430,14375 3418,14367 3418,14363 3416,14341 3410,14329 3382,14305 3382,14295 3408,14267 3408,14259 3390,14217 3358,14195 3358,14159 3342,14143 3344,14139 3364,14139 3388,14143 3400,14133 3418,14115 3416,14105 3408,14095 3404,14089 3388,14073 3376,14067 3336,14081 3322,14077 3310,14051 3314,13995 3314,13983 3298,13951 3273,13924 3264,13917 3248,13909 3240,13905 3238,13899 3234,13897 3234,13891 3234,13887 3262,13869 3258,13847 3288,13837 3320,13789 3338,13763 3341,13762 3369,13763 3394,13758 3420,13759 3447,13764 3473,13783 3500,13779 3528,13779 3553,13758 3571,13732 3610,13726 3636,13718 3671,13694 3681,13680 3692,13673 3725,13669 3746,13660 3759,13645 3772,13634 3786,13620 3800,13599 3786,13575 3787,13549 3812,13518 3847,13463 3869,13437 3889,13414 3900,13389 3915,13372 3939,13379 3955,13385 3984,13368 3994,13342 4002,13313 4007,13288 4036,13263 4072,13240 4094,13222 4096,13209 4062,13183 4032,13163 4015,13148 4024,13125 4072,13084 4134,13055 4165,13055 4224,13073 4274,13097 4326,13110 4357,13112 4375,13117 4379,13132 4374,13145 4367,13153 4363,13157 4383,13183 4371,13213 4398,13232 4426,13239 4453,13208 4463,13199 4471,13189 4483,13176 4471,13165 4449,13159 4444,13146 4456,13129 4471,13114 4453,13105 4435,13095 4430,13071 4454,13049 4489,13039 4521,13047 4545,13034 4543,13015 4545,13005 4573,12982 4607,12961 4633,12946 4651,12921 4659,12896 4678,12864 4672,12835 4699,12803 4740,12789 4765,12795 4797,12786 4824,12784 4852,12799 4884,12818 4915,12834 4928,12846 4886,12886 4880,12911 4862,12919 4862,12934 4881,12935 4894,12945 4879,12975 4880,13003 4908,13010 4934,12991 4962,12978 4994,12966 5006,12921 5019,12895 5025,12885 5055,12876 5073,12874 5080,12888 5090,12893 5106,12895 5123,12879 5153,12866 5161,12850 5178,12845 5222,12851 5235,12853 5243,12844 5237,12819 5244,12800 5268,12772 5287,12768 5300,12774 5327,12776 5349,12775 5382,12789 5411,12789 5442,12772 5468,12763 5499,12791 5526,12805 5553,12794 5579,12773 5608,12760 5634,12729 5662,12700 5694,12699 5721,12714 " class="polyStyle" id="431230" style="fill:#f6f67b"/>
<polygon points="3744,11451 3773,11461 3800,11479 3768,11485 3768,11515 3778,11523 3782,11529 3758,11524 3723,11507 3712,11476 3694,11442 3687,11415 3710,11429 " class="polyStyle" id="431225" style="fill:#f6f67b"/>
<polygon points="5091,11201 5128,11222 5161,11255 5173,11282 5176,11308 5177,11335 5200,11360 5227,11378 5252,11394 5249,11425 5237,11462 5244,11499 5270,11521 5291,11495 5318,11510 5347,11537 5378,11542 5391,11515 5409,11484 5434,11473 5467,11475 5506,11498 5536,11502 5562,11531 5597,11547 5606,11574 5632,11579 5652,11548 5697,11521 5713,11534 5708,11582 5698,11608 5733,11635 5770,11651 5791,11660 5785,11689 5791,11717 5762,11712 5729,11710 5701,11720 5686,11750 5653,11760 5627,11727 5620,11701 5594,11706 5566,11734 5553,11766 5557,11791 5549,11820 5520,11843 5492,11834 5466,11834 5435,11846 5403,11860 5374,11883 5343,11889 5338,11915 5332,11942 5317,11971 5285,11993 5258,11992 5229,11986 5200,12002 5199,12030 5170,12025 5160,12056 5185,12073 5211,12058 5217,12087 5245,12114 5280,12125 5305,12151 5320,12179 5314,12208 5341,12200 5370,12219 5400,12249 5402,12276 5374,12300 5374,12355 5399,12405 5439,12415 5471,12438 5501,12443 5521,12453 5524,12478 5484,12485 5468,12474 5452,12501 5444,12528 5464,12557 5442,12584 5441,12613 5413,12630 5381,12638 5367,12670 5362,12707 5358,12734 5347,12764 5349,12775 5327,12776 5300,12774 5287,12768 5268,12772 5244,12800 5237,12819 5243,12844 5235,12853 5222,12851 5178,12845 5161,12850 5153,12866 5123,12879 5106,12895 5090,12893 5080,12888 5073,12874 5055,12876 5025,12885 5019,12895 5006,12921 4994,12966 4962,12978 4934,12991 4908,13010 4880,13003 4879,12975 4894,12945 4881,12935 4862,12934 4862,12919 4880,12911 4886,12886 4928,12846 4915,12834 4884,12818 4852,12799 4824,12784 4797,12786 4765,12795 4740,12789 4699,12803 4672,12835 4678,12864 4659,12896 4651,12921 4633,12946 4607,12961 4573,12982 4545,13005 4543,13015 4545,13034 4521,13047 4489,13039 4454,13049 4430,13071 4435,13095 4453,13105 4471,13114 4456,13129 4444,13146 4449,13159 4471,13165 4483,13176 4471,13189 4463,13199 4453,13208 4426,13239 4398,13232 4371,13213 4383,13183 4363,13157 4367,13153 4374,13145 4379,13132 4375,13117 4357,13112 4326,13110 4274,13097 4224,13073 4165,13055 4134,13055 4072,13084 4024,13125 4015,13148 4032,13163 4062,13183 4096,13209 4094,13222 4072,13240 4036,13263 4007,13288 4002,13313 3994,13342 3984,13368 3955,13385 3939,13379 3915,13372 3900,13389 3889,13414 3869,13437 3847,13463 3812,13518 3787,13549 3786,13575 3800,13599 3786,13620 3772,13634 3759,13645 3746,13660 3725,13669 3692,13673 3681,13680 3671,13694 3636,13718 3610,13726 3571,13732 3553,13758 3528,13779 3500,13779 3473,13783 3447,13764 3420,13759 3394,13758 3369,13763 3341,13762 3338,13763 3336,13713 3374,13665 3400,13633 3424,13629 3432,13629 3426,13603 3422,13589 3418,13583 3414,13579 3392,13563 3380,13545 3370,13543 3326,13561 3300,13573 3276,13595 3264,13609 3276,13623 3279,13637 3266,13641 3260,13653 3262,13667 3236,13667 3208,13689 3184,13679 3154,13669 3094,13683 3038,13685 3008,13695 2980,13705 2964,13697 2956,13695 2946,13697 2924,13713 2916,13725 2892,13729 2848,13757 2824,13779 2817,13793 2800,13793 2774,13793 2766,13797 2746,13796 2744,13785 2738,13761 2728,13741 2708,13727 2660,13701 2682,13675 2676,13665 2672,13663 2664,13661 2654,13659 2642,13659 2632,13661 2608,13661 2584,13661 2568,13647 2528,13627 2510,13631 2500,13649 2456,13635 2449,13628 2446,13623 2446,13619 2450,13609 2454,13565 2452,13559 2446,13543 2440,13535 2434,13527 2414,13509 2411,13505 2424,13499 2438,13493 2440,13487 2418,13471 2412,13449 2414,13445 2422,13439 2424,13433 2452,13403 2472,13387 2486,13379 2526,13397 2538,13399 2550,13399 2562,13373 2546,13343 2546,13327 2538,13293 2550,13277 2548,13269 2522,13249 2522,13239 2540,13217 2560,13189 2558,13171 2566,13167 2570,13163 2578,13165 2584,13165 2610,13171 2624,13173 2630,13141 2630,13083 2632,13071 2638,13059 2652,13035 2680,13007 2688,12991 2688,12984 2690,12963 2700,12949 2740,12941 2774,12911 2784,12897 2802,12887 2830,12879 2848,12873 2890,12853 2910,12837 2934,12827 2960,12815 2966,12811 2970,12807 2972,12803 2972,12797 2970,12793 2964,12787 2956,12781 2946,12779 2906,12777 2894,12775 2884,12769 2866,12755 2860,12745 2859,12739 2862,12736 2870,12726 2878,12718 2886,12712 2928,12672 2948,12670 2960,12664 2972,12652 2996,12628 3010,12618 3004,12596 3002,12588 2999,12583 2990,12580 2982,12578 2966,12576 2960,12572 2956,12570 2952,12562 2934,12521 2934,12514 2968,12504 2984,12498 3010,12482 3020,12474 3034,12454 3058,12460 3072,12460 3102,12424 3102,12414 3096,12404 3078,12394 3076,12358 3046,12348 3030,12324 3038,12304 3040,12268 3026,12254 3016,12256 3006,12260 2986,12260 2992,12222 2990,12198 2996,12150 3002,12136 3010,12108 2992,12104 2982,12100 2968,12076 2964,12038 2932,12016 2936,11990 2944,11970 2920,11956 2912,11970 2896,11962 2874,11938 2854,11910 2846,11892 2852,11830 2852,11824 2844,11820 2834,11818 2754,11874 2748,11878 2738,11880 2722,11876 2710,11860 2696,11846 2684,11838 2666,11834 2628,11838 2604,11810 2574,11808 2558,11804 2562,11784 2558,11756 2542,11718 2516,11694 2494,11660 2488,11642 2486,11620 2488,11614 2492,11610 2499,11605 2502,11604 2518,11606 2548,11620 2566,11614 2572,11594 2590,11564 2602,11554 2616,11562 2640,11576 2646,11580 2668,11592 2676,11596 2684,11598 2716,11590 2742,11612 2760,11616 2778,11614 2810,11590 2824,11588 2856,11590 2860,11598 2874,11616 2886,11618 2920,11576 2934,11566 2954,11564 2982,11558 3002,11546 3008,11540 3012,11534 3012,11528 3009,11521 2996,11512 2978,11504 2964,11500 2958,11492 2954,11484 2950,11476 2964,11472 3016,11470 3038,11468 3043,11469 3048,11472 3054,11480 3058,11484 3060,11488 3064,11494 3070,11500 3076,11506 3080,11512 3086,11514 3100,11514 3106,11512 3112,11510 3122,11506 3130,11502 3140,11498 3144,11494 3148,11486 3148,11476 3146,11464 3144,11456 3142,11452 3138,11446 3132,11442 3106,11438 3101,11437 3096,11428 3096,11419 3098,11414 3110,11410 3120,11404 3162,11388 3178,11378 3202,11374 3242,11382 3248,11380 3250,11368 3246,11356 3256,11348 3260,11340 3262,11328 3262,11318 3262,11312 3262,11306 3270,11302 3284,11304 3312,11308 3344,11312 3358,11308 3364,11284 3378,11276 3408,11268 3436,11276 3444,11282 3464,11316 3498,11310 3504,11310 3516,11286 3524,11280 3556,11280 3594,11276 3598,11282 3598,11288 3590,11302 3580,11314 3574,11328 3572,11364 3578,11376 3586,11380 3594,11380 3652,11374 3660,11372 3682,11387 3682,11393 3680,11396 3678,11401 3680,11411 3687,11415 3694,11442 3712,11476 3723,11507 3758,11524 3782,11529 3810,11545 3843,11566 3873,11586 3898,11604 3929,11622 3958,11639 3952,11667 3977,11682 4003,11666 4046,11668 4076,11665 4101,11668 4131,11658 4146,11620 4169,11598 4206,11600 4241,11618 4254,11613 4251,11600 4260,11576 4286,11570 4316,11580 4345,11567 4368,11540 4382,11514 4351,11485 4321,11473 4291,11459 4271,11427 4278,11401 4287,11376 4288,11344 4317,11329 4310,11296 4343,11273 4368,11262 4367,11231 4380,11204 4408,11227 4433,11224 4459,11218 4488,11197 4517,11206 4548,11228 4574,11228 4615,11231 4642,11239 4672,11256 4703,11282 4732,11293 4765,11301 4795,11292 4824,11281 4857,11307 4871,11275 4902,11248 4931,11217 4962,11197 4990,11200 5016,11193 5055,11197 " class="polyStyle" id="431229" style="fill:#fbe6ef"/>
<polygon points="3458,10936 3458,10941 3452,10951 3448,10955 3438,10965 3431,10969 3424,10971 3414,10973 3394,10973 3384,10975 3366,10979 3362,10977 3356,10968 3356,10963 3359,10958 3382,10955 3396,10947 3418,10941 3444,10927 3448,10927 3452,10927 3456,10929 " class="polyStyle" id="431225" style="fill:#f6f67b"/>
<path d="" class="polyStyle" id="522627" style="fill:#ee8b94"/>
<path d="" class="polyStyle" id="510421" style="fill:#fbe6ef"/>
<path d="" class="polyStyle" id="522623" style="fill:#d4ecb2"/>
<polygon points="2139,7857 2165,7869 2165,7883 2155,7927 2157,7937 2173,7941 2189,7937 2233,7947 2253,7959 2279,7949 2291,7953 2285,8007 2291,8021 2303,8025 2321,8019 2335,8001 2351,7987 2371,7983 2397,7981 2490,8005 2515,8011 2519,8011 2523,8011 2533,8005 2532,7999 2547,8022 2575,8035 2600,8028 2626,8031 2655,8045 2681,8066 2693,8092 2720,8117 2745,8119 2771,8114 2761,8140 2765,8165 2765,8192 2769,8217 2764,8242 2769,8269 2785,8294 2810,8301 2836,8308 2862,8318 2878,8343 2904,8365 2930,8373 2938,8398 2964,8408 2991,8402 3018,8417 3045,8425 3072,8422 3099,8417 3113,8442 3101,8469 3114,8490 3140,8477 3164,8469 3189,8480 3215,8496 3240,8522 3249,8547 3222,8557 3196,8573 3176,8600 3151,8613 3140,8641 3164,8666 3190,8679 3179,8705 3173,8730 3189,8756 3214,8766 3239,8771 3265,8754 3285,8784 3295,8810 3276,8835 3250,8854 3235,8880 3211,8906 3184,8932 3159,8954 3159,8981 3178,9007 3205,9018 3212,9044 3204,9071 3205,9098 3217,9125 3233,9151 3238,9180 3226,9208 3211,9231 3158,9258 3131,9261 3104,9264 3077,9289 3080,9316 3084,9342 3082,9354 3070,9356 3040,9352 3052,9320 3036,9318 3028,9320 3022,9326 3016,9334 3012,9342 3012,9350 3016,9376 3018,9384 3016,9390 2994,9390 2972,9398 2968,9378 2972,9368 2952,9358 2936,9342 2918,9378 2904,9384 2890,9378 2834,9350 2806,9360 2770,9368 2738,9368 2714,9364 2710,9372 2716,9398 2736,9430 2702,9432 2658,9440 2644,9440 2610,9426 2566,9426 2550,9436 2526,9460 2494,9454 2484,9454 2428,9464 2406,9468 2386,9470 2366,9482 2352,9470 2340,9458 2320,9438 2314,9428 2326,9388 2336,9370 2328,9368 2306,9362 2294,9358 2272,9372 2248,9374 2248,9382 2244,9394 2234,9416 2234,9436 2214,9450 2194,9446 2188,9456 2170,9496 2156,9514 2144,9520 2126,9528 2116,9544 2112,9560 2110,9584 2078,9632 2056,9662 2034,9684 2018,9692 1996,9700 1984,9706 1970,9708 1948,9704 1932,9680 1922,9686 1900,9728 1872,9790 1850,9792 1830,9784 1828,9776 1826,9756 1820,9758 1796,9762 1762,9760 1726,9762 1708,9762 1704,9764 1706,9772 1712,9784 1704,9790 1686,9790 1662,9786 1644,9780 1620,9776 1598,9770 1586,9770 1582,9776 1568,9778 1558,9776 1548,9774 1546,9766 1572,9720 1582,9710 1590,9684 1594,9658 1606,9638 1628,9610 1708,9550 1716,9540 1718,9530 1718,9516 1712,9504 1676,9496 1648,9510 1602,9502 1556,9508 1528,9536 1494,9526 1438,9544 1408,9566 1376,9600 1364,9602 1356,9578 1352,9570 1308,9624 1282,9630 1246,9632 1228,9628 1208,9614 1200,9592 1188,9592 1170,9594 1162,9608 1144,9640 1122,9660 1122,9676 1134,9686 1128,9692 1120,9694 1110,9700 1104,9706 1066,9744 1036,9734 1010,9742 972,9768 946,9788 904,9836 884,9860 874,9866 856,9870 810,9864 774,9866 764,9868 760,9870 754,9876 752,9880 748,9890 748,9896 752,9906 774,9930 808,9932 800,9960 816,10006 818,10012 814,10018 812,10022 801,10028 788,10036 744,10044 712,10054 694,10062 672,10072 666,10072 662,10072 658,10070 654,10068 652,10064 648,10060 648,10056 650,10050 654,10030 658,10006 658,9984 656,9974 650,9968 646,9966 618,9984 640,10018 630,10022 604,10010 594,10012 582,10014 566,10018 554,10026 520,10068 512,10076 486,10098 480,10104 460,10116 442,10128 425,10128 420,10126 414,10124 406,10118 402,10110 408,10098 416,10092 432,10092 442,10086 440,10072 438,10054 434,10036 432,10028 428,10000 426,9980 424,9966 419,9965 408,9962 400,9968 396,9998 384,10000 360,9982 344,9972 320,9954 332,9934 290,9924 284,9912 276,9876 276,9864 278,9856 276,9834 268,9818 263,9811 254,9806 247,9807 240,9816 236,9826 184,9816 190,9788 148,9784 126,9770 96,9750 70,9736 60,9732 58,9730 36,9714 5,9703 0,9698 8,9680 40,9666 72,9646 82,9626 86,9618 118,9638 142,9630 140,9658 154,9666 188,9674 202,9662 260,9628 278,9620 304,9634 328,9632 332,9624 326,9606 326,9590 330,9576 348,9548 362,9540 379,9538 394,9538 410,9542 418,9546 422,9550 444,9582 452,9586 460,9582 474,9568 484,9554 488,9536 489,9516 490,9510 492,9500 508,9488 522,9478 568,9446 592,9392 616,9358 610,9326 620,9318 648,9324 660,9324 680,9314 682,9304 682,9280 678,9268 676,9254 672,9238 672,9234 694,9222 682,9210 660,9184 644,9162 644,9148 656,9130 660,9118 630,9116 586,9096 578,9070 588,9066 622,9054 666,9014 688,9020 710,9022 718,9000 738,8996 760,9004 782,8984 806,8942 816,8934 846,8940 876,8934 888,8920 876,8886 890,8878 956,8852 976,8828 974,8810 964,8794 964,8774 976,8768 992,8764 1004,8768 1018,8780 1022,8800 1030,8812 1038,8806 1050,8794 1056,8786 1072,8778 1096,8766 1112,8754 1132,8742 1152,8734 1180,8726 1244,8736 1260,8738 1284,8692 1304,8682 1326,8660 1332,8644 1332,8614 1330,8582 1326,8566 1290,8538 1300,8510 1278,8448 1277,8444 1280,8441 1284,8440 1288,8440 1291,8439 1295,8438 1305,8437 1311,8437 1314,8440 1316,8440 1324,8446 1325,8449 1328,8454 1330,8459 1332,8462 1333,8466 1336,8472 1340,8476 1343,8479 1346,8483 1350,8486 1353,8487 1357,8489 1360,8491 1363,8492 1366,8493 1368,8494 1371,8496 1374,8497 1376,8498 1380,8499 1384,8501 1387,8502 1390,8503 1394,8504 1397,8503 1398,8500 1400,8499 1400,8496 1401,8491 1402,8488 1403,8484 1405,8478 1405,8475 1408,8473 1409,8470 1412,8467 1417,8461 1425,8452 1433,8446 1437,8444 1442,8443 1447,8444 1454,8447 1460,8450 1464,8455 1477,8462 1487,8461 1492,8459 1502,8453 1519,8440 1525,8436 1529,8435 1537,8434 1554,8433 1560,8433 1569,8434 1547,8377 1555,8361 1559,8351 1571,8333 1595,8353 1607,8357 1621,8359 1627,8339 1643,8297 1615,8285 1615,8261 1627,8237 1667,8179 1665,8169 1629,8125 1627,8115 1637,8109 1671,8101 1697,8067 1743,8041 1761,8017 1765,7999 1761,7987 1743,7973 1735,7969 1723,7967 1689,8007 1655,8055 1637,8059 1623,8055 1601,8049 1591,8039 1589,8025 1601,8001 1619,7995 1647,8027 1657,8027 1661,7971 1699,7953 1741,7889 1763,7871 1783,7869 1811,7883 1814,7886 1819,7891 1837,7913 1845,7921 1860,7937 1859,7940 1858,7943 1857,7955 1858,7960 1859,7963 1859,7974 1857,7977 1855,7980 1849,7986 1845,7991 1842,7995 1836,8000 1832,8005 1829,8009 1827,8011 1825,8014 1824,8018 1822,8023 1821,8026 1820,8031 1819,8036 1818,8045 1820,8049 1823,8052 1835,8053 1849,8051 1893,8009 1921,7981 1939,7961 1987,7949 2019,7945 2025,7931 2029,7911 2045,7903 2071,7895 2085,7885 2079,7857 2083,7835 2095,7833 2123,7849 " class="polyStyle" id="431227" style="fill:#f6f67b"/>
<polygon points="5385,6983 5409,7015 5422,7050 5449,7073 5475,7102 5488,7135 5457,7166 5444,7198 5451,7233 5484,7244 5501,7271 5536,7284 5569,7278 5606,7274 5616,7310 5617,7336 5635,7369 5631,7395 5617,7421 5580,7435 5552,7432 5530,7474 5521,7504 5518,7535 5517,7564 5489,7573 5483,7543 5493,7512 5458,7494 5423,7514 5390,7545 5351,7557 5327,7583 5330,7619 5335,7648 5340,7681 5322,7713 5310,7752 5300,7778 5337,7775 5365,7768 5388,7799 5408,7827 5416,7857 5434,7896 5438,7903 5431,7931 5420,7973 5416,8010 5405,8036 5428,8074 5441,8109 5458,8140 5453,8170 5420,8196 5399,8228 5399,8259 5359,8272 5334,8255 5322,8227 5278,8215 5267,8187 5226,8191 5195,8197 5166,8205 5134,8215 5144,8242 5123,8268 5088,8282 5050,8304 5008,8337 4977,8377 4941,8403 4915,8433 4906,8470 4901,8504 4876,8528 4846,8554 4851,8587 4886,8584 4913,8589 4949,8605 4975,8607 5008,8606 4997,8622 4999,8641 5000,8646 5003,8669 4994,8695 4969,8695 4943,8675 4914,8697 4879,8712 4850,8722 4816,8712 4797,8682 4769,8666 4742,8670 4738,8692 4728,8707 4710,8707 4695,8713 4664,8730 4654,8738 4650,8760 4653,8770 4647,8781 4624,8776 4595,8773 4568,8781 4556,8788 4536,8801 4545,8816 4567,8816 4586,8817 4602,8831 4585,8846 4597,8857 4600,8881 4596,8896 4606,8903 4622,8907 4631,8931 4620,8952 4608,8971 4606,8996 4580,9018 4545,9022 4533,9029 4518,9048 4493,9053 4473,9048 4456,9039 4442,9041 4426,9046 4413,9046 4413,9037 4417,9024 4410,9007 4397,9011 4381,9023 4373,9038 4375,9051 4392,9054 4395,9066 4383,9073 4362,9076 4351,9079 4347,9093 4343,9111 4336,9117 4326,9113 4317,9099 4312,9082 4306,9066 4295,9077 4273,9093 4286,9109 4305,9123 4306,9142 4310,9163 4322,9178 4317,9184 4297,9194 4275,9207 4253,9240 4269,9270 4276,9300 4277,9313 4273,9327 4252,9318 4237,9314 4223,9318 4215,9334 4204,9343 4190,9338 4178,9338 4170,9349 4168,9363 4153,9362 4138,9361 4133,9367 4136,9379 4139,9397 4129,9411 4122,9394 4117,9380 4106,9365 4094,9366 4088,9378 4082,9384 4068,9380 4049,9376 4039,9378 4037,9393 4061,9410 4060,9414 4045,9426 4028,9444 4018,9452 3995,9446 3979,9423 3967,9408 3957,9406 3949,9417 3939,9432 3929,9442 3909,9439 3892,9442 3877,9457 3860,9465 3837,9456 3822,9450 3814,9444 3800,9445 3784,9451 3778,9461 3786,9469 3793,9487 3785,9502 3778,9517 3782,9531 3781,9540 3756,9545 3734,9548 3723,9553 3720,9551 3717,9555 3712,9565 3715,9591 3724,9622 3732,9656 3726,9705 3721,9732 3696,9767 3661,9742 3662,9715 3650,9680 3622,9661 3602,9634 3569,9604 3559,9603 3536,9610 3524,9632 3511,9663 3499,9695 3491,9723 3475,9755 3456,9779 3427,9788 3401,9782 3372,9762 3396,9760 3442,9768 3456,9764 3454,9746 3454,9726 3450,9712 3434,9710 3352,9714 3342,9710 3338,9696 3342,9680 3384,9664 3380,9640 3338,9652 3334,9640 3340,9626 3350,9602 3348,9588 3336,9574 3338,9564 3370,9562 3408,9534 3394,9506 3418,9466 3420,9456 3404,9446 3388,9438 3378,9438 3364,9448 3350,9468 3336,9476 3306,9460 3304,9474 3298,9486 3272,9488 3248,9498 3212,9492 3190,9492 3178,9452 3158,9422 3136,9406 3126,9400 3136,9376 3134,9354 3130,9348 3118,9350 3082,9354 3084,9342 3080,9316 3077,9289 3104,9264 3131,9261 3158,9258 3211,9231 3226,9208 3238,9180 3233,9151 3217,9125 3205,9098 3204,9071 3212,9044 3205,9018 3178,9007 3159,8981 3159,8954 3184,8932 3211,8906 3235,8880 3250,8854 3276,8835 3295,8810 3285,8784 3265,8754 3239,8771 3214,8766 3189,8756 3173,8730 3179,8705 3190,8679 3164,8666 3140,8641 3151,8613 3176,8600 3196,8573 3222,8557 3249,8547 3240,8522 3215,8496 3189,8480 3164,8469 3140,8477 3114,8490 3101,8469 3113,8442 3099,8417 3072,8422 3045,8425 3018,8417 2991,8402 2964,8408 2938,8398 2930,8373 2904,8365 2878,8343 2862,8318 2836,8308 2810,8301 2785,8294 2769,8269 2764,8242 2769,8217 2765,8192 2765,8165 2761,8140 2771,8114 2745,8119 2720,8117 2693,8092 2681,8066 2655,8045 2626,8031 2600,8028 2575,8035 2547,8022 2532,7999 2531,7991 2535,7977 2549,7947 2559,7919 2565,7905 2583,7893 2595,7887 2607,7879 2609,7875 2611,7871 2583,7843 2567,7817 2557,7795 2563,7759 2537,7739 2527,7725 2529,7709 2567,7719 2599,7719 2633,7691 2645,7667 2659,7655 2695,7649 2721,7647 2731,7643 2751,7619 2767,7583 2771,7569 2781,7559 2789,7557 2821,7543 2847,7525 2873,7501 2893,7479 2905,7465 2917,7453 2937,7443 2953,7441 2979,7439 3023,7399 2989,7401 2995,7389 3005,7369 3025,7365 3045,7375 3065,7371 3091,7357 3127,7337 3149,7349 3165,7379 3177,7379 3195,7373 3221,7363 3223,7337 3243,7313 3257,7305 3287,7309 3333,7319 3349,7299 3363,7289 3358,7284 3379,7281 3405,7296 3431,7286 3458,7308 3483,7314 3511,7318 3528,7343 3553,7354 3571,7359 3598,7380 3626,7398 3670,7432 3691,7460 3729,7456 3755,7444 3788,7438 3824,7425 3856,7431 3888,7409 3895,7373 3864,7350 3864,7317 3835,7292 3846,7259 3884,7234 3916,7225 3948,7202 3981,7188 4024,7176 4056,7157 4103,7108 4131,7101 4158,7093 4195,7102 4242,7111 4273,7118 4307,7107 4333,7090 4365,7079 4403,7096 4431,7075 4464,7056 4510,7040 4540,7024 4556,6984 4589,6982 4627,6977 4658,6961 4690,6960 4728,6972 4753,6952 4780,6939 4828,6947 4854,6939 4884,6938 4911,6949 4940,6970 4966,6977 4991,6974 5007,7001 5032,7030 5064,7064 5094,7096 5131,7100 5164,7104 5201,7083 5229,7084 5249,7045 5271,7007 5272,6967 5281,6939 5308,6929 5340,6928 5375,6945 " class="polyStyle" id="431228" style="fill:#fbe6ef"/>
<polygon points="6453,6435 6486,6470 6517,6489 6540,6489 6579,6478 6605,6484 6638,6478 6669,6465 6710,6465 6732,6459 6764,6457 6803,6467 6829,6464 6838,6442 6845,6428 6867,6435 6864,6463 6879,6487 6904,6489 6925,6484 6934,6490 6960,6490 6988,6492 7013,6502 7059,6524 7081,6554 7113,6577 7164,6598 7195,6598 7221,6606 7231,6642 7263,6655 7289,6682 7323,6681 7353,6663 7380,6642 7410,6642 7458,6647 7493,6636 7531,6640 7559,6660 7593,6673 7620,6666 7647,6656 7676,6638 7709,6650 7725,6688 7741,6720 7729,6751 7721,6779 7717,6818 7725,6865 7727,6912 7733,6942 7766,6951 7781,6977 7791,7019 7797,7060 7769,7079 7769,7111 7777,7149 7803,7174 7837,7174 7867,7164 7905,7162 7930,7163 7971,7168 7986,7196 8020,7212 8061,7214 8096,7214 8124,7215 8152,7203 8166,7171 8196,7140 8236,7148 8233,7174 8226,7200 8256,7197 8285,7167 8301,7197 8326,7178 8347,7138 8363,7113 8395,7111 8437,7142 8411,7178 8437,7207 8464,7203 8486,7177 8518,7176 8518,7218 8521,7250 8532,7285 8522,7314 8518,7342 8517,7370 8492,7410 8477,7450 8447,7479 8421,7491 8392,7509 8366,7536 8374,7569 8350,7598 8341,7645 8345,7675 8321,7701 8322,7733 8343,7760 8339,7808 8339,7840 8367,7860 8349,7897 8368,7925 8395,7944 8390,7977 8360,7996 8326,8004 8323,8027 8259,8036 8245,8055 8210,8053 8220,8047 8221,8035 8189,8020 8167,8003 8144,7970 8124,7915 8091,7920 8064,7933 8056,7945 8069,7978 8046,8008 8021,8038 7994,8033 7964,8030 7950,8039 7941,8033 7926,8023 7914,8028 7889,8041 7874,8033 7857,8019 7824,8023 7796,8033 7774,8028 7751,8008 7716,8008 7679,7985 7666,7958 7639,7943 7609,7940 7596,7935 7594,7913 7576,7925 7571,7960 7559,7997 7545,8003 7529,8000 7449,7960 7431,7963 7426,7958 7418,7943 7401,7938 7380,7946 7374,7965 7376,7998 7349,8003 7319,8000 7306,7983 7291,7990 7266,7998 7261,7995 7223,7959 7214,7949 7205,7951 7192,7967 7179,7971 7136,7989 7114,8026 7108,8059 7095,8056 7089,8046 7085,8040 7071,8043 7056,8051 7054,8069 7021,8083 6968,8081 6938,8105 6913,8129 6889,8129 6890,8103 6890,8087 6878,8076 6869,8063 6880,8040 6895,8007 6895,7975 6875,7923 6826,7896 6786,7890 6778,7879 6777,7873 6763,7869 6754,7864 6751,7853 6766,7835 6804,7813 6794,7795 6787,7791 6784,7774 6780,7743 6774,7738 6756,7751 6733,7772 6720,7779 6694,7779 6676,7774 6666,7764 6684,7759 6693,7754 6688,7737 6668,7730 6650,7736 6631,7762 6609,7792 6595,7809 6596,7819 6610,7824 6629,7821 6639,7822 6639,7831 6635,7848 6640,7856 6633,7866 6593,7901 6559,7924 6540,7929 6506,7939 6465,7959 6468,7977 6465,7997 6450,8014 6410,8037 6389,8043 6381,8056 6370,8084 6340,8081 6303,8071 6281,8089 6263,8149 6264,8178 6271,8194 6293,8212 6296,8227 6288,8237 6274,8263 6295,8304 6306,8321 6306,8339 6300,8364 6293,8387 6268,8374 6251,8368 6228,8372 6201,8384 6169,8408 6157,8414 6152,8427 6128,8454 6098,8479 6059,8500 6035,8526 6010,8553 5986,8560 5980,8568 5979,8577 5977,8587 5997,8607 6037,8609 6056,8615 6057,8638 6064,8676 6059,8704 6032,8707 6006,8730 5977,8761 5951,8752 5913,8755 5876,8762 5840,8779 5807,8754 5765,8738 5759,8713 5729,8706 5717,8695 5718,8676 5701,8678 5693,8690 5682,8693 5656,8680 5635,8674 5609,8675 5576,8690 5551,8700 5558,8745 5532,8739 5494,8730 5457,8727 5412,8720 5373,8737 5348,8710 5316,8705 5290,8681 5275,8652 5263,8620 5245,8580 5213,8576 5182,8548 5166,8545 5152,8559 5134,8568 5117,8576 5114,8601 5110,8617 5096,8609 5075,8598 5055,8618 5027,8637 4999,8641 4997,8622 5008,8606 4975,8607 4949,8605 4913,8589 4886,8584 4851,8587 4846,8554 4876,8528 4901,8504 4906,8470 4915,8433 4941,8403 4977,8377 5008,8337 5050,8304 5088,8282 5123,8268 5144,8242 5134,8215 5166,8205 5195,8197 5226,8191 5267,8187 5278,8215 5322,8227 5334,8255 5359,8272 5399,8259 5399,8228 5420,8196 5453,8170 5458,8140 5441,8109 5428,8074 5405,8036 5416,8010 5420,7973 5431,7931 5438,7903 5434,7896 5472,7889 5497,7899 5507,7904 5523,7898 5558,7891 5571,7889 5578,7877 5586,7863 5596,7859 5625,7847 5630,7823 5644,7822 5658,7834 5676,7873 5705,7871 5728,7846 5778,7834 5806,7811 5832,7813 5885,7822 6007,7816 6095,7804 6145,7799 6164,7795 6173,7801 6188,7813 6213,7819 6241,7809 6256,7793 6270,7767 6288,7751 6318,7743 6334,7743 6346,7733 6340,7702 6356,7683 6371,7672 6373,7656 6377,7637 6393,7624 6422,7604 6426,7582 6443,7586 6471,7587 6476,7575 6455,7565 6451,7555 6455,7547 6482,7531 6492,7522 6492,7514 6480,7499 6463,7494 6438,7484 6458,7480 6483,7479 6487,7469 6478,7457 6446,7429 6437,7396 6443,7345 6458,7332 6466,7312 6471,7260 6465,7240 6451,7231 6398,7229 6381,7205 6360,7172 6328,7136 6290,7112 6286,7085 6291,7070 6285,7056 6275,7025 6280,7000 6276,6984 6253,6962 6236,6957 6226,6945 6202,6925 6172,6924 6130,6930 6107,6934 6102,6946 6088,6957 6068,6961 6030,6957 6006,6925 5998,6900 6003,6884 6071,6857 6128,6821 6168,6781 6176,6760 6182,6742 6193,6732 6223,6720 6245,6682 6271,6646 6297,6620 6311,6584 6303,6565 6270,6532 6277,6507 6285,6497 6303,6495 6318,6493 6325,6482 6322,6456 6303,6434 6333,6433 6348,6430 6370,6425 6397,6404 6430,6390 6445,6405 " class="polyStyle" id="431221" style="fill:#f6f67b"/>
<polygon points="4967,5025 4967,5054 4966,5084 4940,5108 4918,5131 4948,5149 4968,5179 4983,5206 4996,5240 5022,5244 5036,5216 5068,5219 5101,5215 5140,5208 5168,5187 5202,5190 5236,5188 5263,5201 5245,5227 5278,5248 5312,5252 5339,5269 5360,5297 5392,5308 5424,5324 5442,5357 5456,5384 5494,5383 5524,5400 5553,5418 5590,5429 5605,5398 5637,5377 5622,5350 5653,5332 5680,5339 5713,5318 5746,5324 5772,5333 5792,5372 5830,5362 5830,5326 5867,5310 5901,5325 5909,5359 5899,5395 5903,5423 5933,5412 5961,5389 5988,5383 6012,5417 6038,5428 6063,5462 6046,5489 6046,5516 6081,5536 6109,5565 6135,5578 6169,5569 6207,5555 6236,5545 6251,5516 6277,5512 6323,5506 6326,5470 6315,5449 6304,5420 6299,5391 6281,5359 6311,5338 6341,5331 6360,5311 6394,5323 6420,5343 6445,5369 6474,5387 6472,5416 6447,5452 6442,5488 6452,5515 6455,5557 6492,5572 6510,5599 6527,5636 6514,5662 6486,5689 6495,5721 6472,5747 6444,5739 6409,5722 6370,5705 6332,5707 6317,5707 6299,5721 6287,5732 6281,5736 6280,5746 6282,5767 6282,5789 6277,5800 6280,5812 6295,5817 6286,5830 6280,5845 6280,5854 6280,5858 6246,5888 6221,5921 6187,5943 6160,5951 6125,5948 6087,5960 6052,5966 6022,5993 5987,5978 5957,5980 5924,5994 5879,6018 5843,6015 5817,6016 5798,6029 5761,6046 5750,6047 5729,6049 5701,6059 5676,6051 5671,6029 5677,6010 5681,6000 5680,5986 5679,5970 5677,5951 5659,5944 5641,5949 5637,5956 5644,5972 5645,5984 5629,5990 5610,5999 5597,6007 5602,6022 5615,6035 5626,6050 5625,6069 5625,6089 5629,6111 5624,6128 5593,6154 5564,6173 5533,6162 5497,6184 5461,6178 5441,6208 5432,6244 5418,6271 5411,6300 5399,6330 5391,6358 5394,6389 5401,6415 5376,6427 5339,6450 5311,6456 5283,6462 5256,6453 5224,6448 5182,6454 5140,6469 5130,6500 5104,6526 5078,6536 5051,6536 5025,6558 5027,6605 5022,6638 5000,6668 5008,6697 5042,6730 5059,6757 5060,6794 5060,6822 5081,6852 5076,6884 5077,6914 5045,6941 5019,6949 4991,6974 4966,6977 4940,6970 4911,6949 4884,6938 4854,6939 4828,6947 4780,6939 4753,6952 4728,6972 4690,6960 4658,6961 4627,6977 4589,6982 4556,6984 4540,7024 4510,7040 4464,7056 4431,7075 4403,7096 4365,7079 4333,7090 4307,7107 4273,7118 4242,7111 4195,7102 4158,7093 4131,7101 4103,7108 4056,7157 4024,7176 3981,7188 3948,7202 3916,7225 3884,7234 3846,7259 3835,7292 3864,7317 3864,7350 3895,7373 3888,7409 3856,7431 3824,7425 3788,7438 3755,7444 3729,7456 3691,7460 3670,7432 3626,7398 3598,7380 3571,7359 3553,7354 3528,7343 3511,7318 3483,7314 3458,7308 3431,7286 3405,7296 3379,7281 3358,7284 3329,7253 3305,7209 3303,7191 3309,7173 3341,7113 3351,7105 3373,7099 3387,7059 3395,7039 3407,7013 3391,6995 3395,6979 3421,6941 3421,6929 3421,6915 3417,6909 3409,6903 3383,6893 3369,6873 3357,6855 3375,6839 3341,6823 3339,6807 3349,6753 3369,6739 3401,6733 3429,6727 3429,6715 3391,6703 3359,6679 3327,6646 3320,6644 3309,6641 3292,6634 3268,6627 3256,6624 3245,6622 3220,6622 3215,6621 3185,6609 3171,6565 3135,6549 3135,6539 3139,6511 3113,6495 3110,6494 3132,6477 3172,6459 3188,6425 3214,6404 3261,6368 3270,6342 3282,6315 3301,6289 3326,6272 3352,6249 3349,6223 3343,6196 3324,6170 3314,6145 3332,6119 3357,6097 3384,6095 3410,6094 3435,6102 3439,6128 3428,6153 3438,6180 3466,6179 3493,6155 3519,6128 3545,6111 3571,6091 3590,6117 3616,6111 3620,6079 3653,6053 3682,6066 3710,6058 3715,6093 3709,6128 3737,6150 3747,6183 3774,6191 3804,6177 3835,6139 3851,6113 3879,6112 3889,6086 3923,6070 3948,6086 3975,6101 4001,6092 4029,6093 4038,6118 4070,6119 4091,6094 4107,6058 4138,6053 4175,6034 4147,6007 4161,5977 4187,5966 4231,5971 4262,5957 4286,5925 4283,5899 4258,5865 4246,5834 4265,5804 4256,5774 4227,5758 4237,5731 4210,5732 4184,5729 4159,5724 4159,5692 4160,5657 4167,5626 4193,5604 4192,5572 4219,5568 4248,5582 4282,5589 4319,5594 4319,5568 4333,5537 4367,5514 4401,5506 4431,5474 4452,5447 4488,5426 4514,5426 4541,5414 4576,5394 4603,5365 4639,5353 4640,5317 4620,5289 4612,5264 4626,5230 4651,5203 4679,5202 4712,5175 4703,5145 4695,5131 4696,5102 4716,5072 4718,5043 4693,5025 4705,4997 4733,4996 4759,5003 4790,5004 4820,5006 4848,4999 4888,4990 4922,4985 4947,4986 4983,4973 5006,4967 4976,4995 " class="polyStyle" id="431226" style="fill:#ee8b94"/>
<path d="" class="polyStyle" id="430321" style="fill:#d4ecb2"/>
<polygon points="7371,4097 7399,4083 7432,4074 7460,4069 7496,4080 7534,4102 7567,4118 7581,4144 7609,4161 7642,4190 7632,4219 7618,4252 7599,4283 7615,4309 7634,4339 7660,4357 7685,4360 7698,4356 7689,4334 7668,4298 7665,4267 7671,4253 7683,4239 7695,4226 7716,4238 7735,4249 7751,4256 7771,4279 7786,4282 7820,4287 7815,4308 7819,4345 7795,4357 7800,4364 7829,4366 7847,4369 7865,4409 7865,4441 7833,4449 7801,4458 7797,4461 7792,4477 7782,4489 7789,4521 7790,4551 7793,4569 7787,4583 7798,4588 7813,4578 7838,4582 7870,4603 7895,4613 7914,4618 7927,4634 7928,4642 7946,4664 7973,4658 8002,4644 8031,4642 8059,4665 8084,4686 8119,4681 8145,4688 8170,4699 8194,4733 8220,4728 8249,4713 8280,4712 8314,4690 8341,4691 8375,4686 8407,4679 8436,4659 8464,4659 8490,4647 8521,4643 8550,4650 8549,4662 8545,4693 8522,4726 8517,4756 8506,4785 8489,4812 8479,4845 8464,4871 8446,4898 8419,4926 8411,4955 8401,4991 8408,5022 8404,5047 8389,5073 8387,5099 8379,5131 8401,5163 8427,5176 8440,5209 8460,5243 8439,5269 8415,5299 8401,5333 8375,5376 8345,5404 8328,5431 8326,5468 8316,5497 8286,5512 8251,5527 8211,5523 8183,5528 8157,5501 8128,5485 8098,5498 8073,5513 8054,5543 8029,5577 7994,5577 7963,5558 7935,5548 7922,5520 7890,5497 7854,5493 7822,5479 7784,5470 7751,5469 7719,5469 7684,5475 7630,5488 7606,5532 7596,5561 7616,5592 7615,5620 7621,5647 7646,5651 7652,5678 7659,5707 7635,5737 7644,5768 7629,5809 7599,5835 7571,5831 7525,5801 7494,5805 7482,5831 7457,5835 7441,5867 7430,5892 7399,5932 7435,5960 7465,5971 7494,5984 7521,5993 7554,5988 7585,5992 7600,6027 7624,6055 7649,6065 7685,6043 7720,6038 7752,6023 7787,6016 7813,6006 7823,5977 7851,5985 7884,6008 7912,6019 7937,6048 7933,6088 7912,6129 7895,6156 7930,6182 7956,6189 7986,6188 8027,6164 8055,6155 8093,6163 8125,6157 8137,6126 8177,6106 8207,6094 8220,6061 8264,6034 8292,6029 8321,6013 8353,5993 8379,6007 8398,6037 8428,6061 8459,6092 8501,6119 8536,6161 8559,6187 8583,6221 8595,6255 8581,6283 8552,6308 8560,6341 8585,6377 8606,6425 8639,6444 8667,6455 8676,6487 8685,6528 8727,6529 8709,6564 8669,6605 8660,6643 8633,6673 8606,6696 8588,6726 8575,6770 8547,6796 8553,6823 8543,6851 8500,6866 8479,6900 8459,6929 8437,6962 8411,6981 8385,7021 8385,7053 8368,7096 8363,7113 8347,7138 8326,7178 8301,7197 8285,7167 8256,7197 8226,7200 8233,7174 8236,7148 8196,7140 8166,7171 8152,7203 8124,7215 8096,7214 8061,7214 8020,7212 7986,7196 7971,7168 7930,7163 7905,7162 7867,7164 7837,7174 7803,7174 7777,7149 7769,7111 7769,7079 7797,7060 7791,7019 7781,6977 7766,6951 7733,6942 7727,6912 7725,6865 7717,6818 7721,6779 7729,6751 7741,6720 7725,6688 7709,6650 7676,6638 7647,6656 7620,6666 7593,6673 7559,6660 7531,6640 7493,6636 7458,6647 7410,6642 7380,6642 7353,6663 7323,6681 7289,6682 7263,6655 7231,6642 7221,6606 7195,6598 7164,6598 7113,6577 7081,6554 7059,6524 7013,6502 6988,6492 6960,6490 6934,6490 6925,6484 6904,6489 6879,6487 6864,6463 6867,6435 6845,6428 6838,6442 6829,6464 6803,6467 6764,6457 6732,6459 6710,6465 6669,6465 6638,6478 6605,6484 6579,6478 6540,6489 6517,6489 6486,6470 6453,6435 6445,6405 6430,6390 6397,6404 6370,6425 6348,6430 6333,6433 6303,6434 6300,6434 6274,6407 6246,6398 6220,6403 6194,6415 6165,6405 6140,6403 6101,6397 6070,6410 6044,6423 6017,6413 5985,6397 5957,6404 5931,6411 5896,6424 5869,6455 5833,6470 5804,6463 5762,6456 5745,6418 5739,6391 5731,6365 5702,6357 5691,6319 5681,6289 5653,6267 5653,6235 5664,6209 5646,6178 5628,6143 5624,6128 5629,6111 5625,6089 5625,6069 5626,6050 5615,6035 5602,6022 5597,6007 5610,5999 5629,5990 5645,5984 5644,5972 5637,5956 5641,5949 5659,5944 5677,5951 5679,5970 5680,5986 5681,6000 5677,6010 5671,6029 5676,6051 5701,6059 5729,6049 5750,6047 5761,6046 5798,6029 5817,6016 5843,6015 5879,6018 5924,5994 5957,5980 5987,5978 6022,5993 6052,5966 6087,5960 6125,5948 6160,5951 6187,5943 6221,5921 6246,5888 6280,5858 6280,5854 6280,5845 6286,5830 6295,5817 6280,5812 6277,5800 6282,5789 6282,5767 6280,5746 6281,5736 6287,5732 6299,5721 6317,5707 6332,5707 6370,5705 6409,5722 6444,5739 6472,5747 6495,5721 6486,5689 6514,5662 6527,5636 6510,5599 6492,5572 6455,5557 6452,5515 6442,5488 6447,5452 6472,5416 6474,5387 6445,5369 6420,5343 6394,5323 6360,5311 6368,5304 6392,5275 6427,5267 6456,5269 6471,5240 6508,5245 6534,5235 6546,5213 6540,5185 6588,5153 6593,5131 6597,5103 6609,5076 6623,5048 6650,5037 6678,5023 6688,4994 6674,4964 6652,4933 6683,4920 6698,4892 6724,4887 6721,4860 6731,4835 6697,4810 6660,4783 6636,4748 6616,4714 6602,4684 6603,4659 6644,4646 6698,4648 6733,4653 6768,4655 6799,4653 6837,4636 6864,4616 6885,4586 6869,4555 6828,4531 6799,4508 6798,4478 6825,4463 6868,4464 6898,4460 6925,4453 6955,4436 6966,4406 6953,4380 6920,4357 6892,4330 6907,4300 6943,4282 6973,4273 7000,4260 7030,4244 7058,4206 7057,4169 7027,4146 7001,4129 7025,4103 7066,4109 7099,4112 7127,4095 7155,4124 7186,4132 7217,4132 7244,4099 7264,4074 7265,4052 7297,4075 7324,4073 7337,4045 7363,4055 7397,4043 7379,4070 " class="polyStyle" id="431223" style="fill:#d4ecb2"/>
<polygon points="9646,3610 9649,3611 9677,3644 9703,3668 9722,3697 9758,3710 9786,3709 9814,3717 9839,3729 9866,3743 9895,3741 9927,3743 9952,3728 9984,3723 10018,3747 10045,3778 10063,3806 10064,3832 10073,3858 10046,3884 10020,3914 9990,3944 9991,3971 10021,3985 10047,4009 10056,4040 10087,4055 10113,4077 10146,4085 10173,4081 10207,4069 10233,4057 10268,4040 10279,4067 10296,4093 10322,4092 10348,4094 10344,4124 10318,4155 10307,4183 10300,4211 10301,4253 10269,4278 10240,4308 10222,4334 10212,4407 10198,4427 10206,4444 10204,4477 10207,4518 10232,4519 10259,4524 10276,4545 10278,4570 10255,4576 10216,4595 10189,4637 10162,4692 10193,4678 10229,4683 10263,4696 10302,4718 10329,4729 10360,4725 10390,4717 10408,4698 10415,4677 10448,4692 10462,4705 10441,4727 10474,4755 10507,4794 10524,4819 10491,4840 10466,4858 10456,4886 10431,4912 10405,4933 10392,4958 10377,4986 10377,5014 10372,5039 10403,5057 10431,5048 10466,5081 10491,5112 10522,5121 10550,5118 10578,5124 10603,5120 10632,5120 10644,5117 10649,5112 10651,5107 10640,5096 10635,5091 10631,5087 10629,5083 10628,5078 10631,5077 10641,5081 10647,5086 10654,5091 10661,5095 10665,5096 10668,5094 10672,5086 10671,5078 10668,5071 10661,5058 10656,5051 10653,5048 10655,5040 10667,5033 10674,5034 10679,5032 10683,5028 10711,5021 10727,5020 10736,5019 10740,5011 10745,4953 10754,4927 10760,4919 10762,4916 10771,4902 10783,4892 10804,4878 10818,4868 10822,4861 10821,4855 10814,4850 10806,4845 10802,4840 10804,4834 10810,4829 10819,4828 10828,4831 10836,4835 10841,4834 10855,4826 10861,4820 10861,4813 10861,4805 10866,4797 10879,4784 10886,4782 10889,4786 10896,4821 10918,4848 10946,4850 10979,4848 11011,4846 11047,4872 11071,4883 11096,4894 11123,4901 11153,4907 11120,4936 11106,4964 11109,4972 11101,4970 11071,4969 11039,4966 11006,4965 10970,4970 10943,4970 10929,5000 10926,5031 10915,5061 10889,5082 10921,5111 10952,5122 10972,5131 10988,5148 11021,5173 11012,5201 10993,5226 10977,5255 10949,5285 10911,5317 10893,5347 10880,5384 10900,5420 10895,5454 10910,5489 10939,5507 10936,5532 10911,5562 10885,5570 10858,5589 10831,5592 10827,5620 10801,5634 10766,5638 10738,5658 10713,5690 10699,5718 10725,5737 10696,5744 10671,5758 10669,5788 10635,5781 10606,5799 10592,5825 10560,5834 10519,5861 10486,5863 10449,5862 10415,5876 10389,5868 10361,5865 10326,5861 10272,5864 10235,5868 10204,5857 10175,5842 10149,5827 10109,5830 10079,5827 10054,5812 10026,5830 10003,5860 9990,5887 9995,5918 9992,5943 9980,5977 9972,6002 9935,6028 9927,6061 9931,6087 9922,6115 9903,6151 9939,6159 9966,6168 9979,6193 10007,6236 10031,6265 10034,6292 10035,6321 10076,6323 10104,6322 10130,6336 10160,6360 10174,6396 10192,6422 10191,6460 10219,6497 10217,6534 10232,6563 10234,6601 10240,6638 10237,6679 10266,6710 10307,6719 10341,6719 10380,6725 10417,6741 10414,6770 10413,6799 10396,6821 10393,6820 10386,6819 10368,6823 10357,6828 10353,6830 10350,6834 10347,6841 10345,6857 10338,6876 10329,6900 10329,6907 10331,6913 10339,6936 10338,6948 10340,6951 10349,6957 10363,6971 10378,6987 10391,7004 10391,7007 10388,7012 10385,7013 10379,7011 10345,6992 10333,6997 10329,7002 10327,7009 10328,7037 10331,7056 10336,7074 10341,7095 10343,7111 10342,7123 10339,7133 10333,7142 10323,7150 10292,7164 10257,7172 10218,7194 10184,7210 10169,7239 10158,7270 10127,7289 10094,7307 10063,7314 10031,7336 10012,7300 9993,7272 9960,7260 9928,7249 9914,7221 9883,7202 9876,7183 9869,7141 9861,7117 9845,7110 9821,7116 9796,7111 9771,7111 9756,7122 9740,7127 9739,7113 9735,7098 9741,7086 9766,7065 9774,7047 9776,7028 9769,7005 9751,6997 9734,6996 9723,7028 9708,7046 9669,7045 9640,7048 9631,7063 9620,7072 9609,7070 9576,7093 9541,7087 9512,7095 9482,7074 9455,7070 9444,7096 9411,7127 9409,7162 9399,7194 9379,7221 9344,7256 9318,7286 9281,7308 9253,7333 9244,7372 9218,7399 9214,7425 9243,7444 9275,7426 9301,7441 9320,7468 9341,7496 9371,7522 9401,7539 9420,7570 9416,7604 9431,7636 9457,7645 9488,7669 9499,7694 9489,7728 9459,7752 9490,7763 9516,7773 9543,7804 9540,7830 9538,7864 9506,7885 9484,7914 9455,7932 9426,7931 9400,7959 9392,7986 9390,8015 9385,8049 9371,8079 9357,8121 9345,8162 9326,8195 9308,8229 9280,8251 9313,8273 9330,8284 9301,8313 9266,8344 9244,8373 9216,8410 9181,8432 9158,8463 9128,8487 9100,8500 9079,8528 9098,8562 9088,8592 9094,8625 9096,8657 9073,8690 9048,8704 9010,8713 8972,8723 8938,8702 8923,8671 8902,8645 8867,8649 8843,8608 8834,8568 8808,8551 8780,8579 8752,8602 8715,8621 8708,8624 8704,8630 8679,8604 8655,8568 8646,8538 8649,8513 8676,8435 8672,8415 8631,8405 8464,8405 8379,8400 8311,8413 8271,8431 8239,8425 8121,8325 8114,8255 8124,8198 8174,8095 8201,8060 8210,8053 8245,8055 8259,8036 8323,8027 8326,8004 8360,7996 8390,7977 8395,7944 8368,7925 8349,7897 8367,7860 8339,7840 8339,7808 8343,7760 8322,7733 8321,7701 8345,7675 8341,7645 8350,7598 8374,7569 8366,7536 8392,7509 8421,7491 8447,7479 8477,7450 8492,7410 8517,7370 8518,7342 8522,7314 8532,7285 8521,7250 8518,7218 8518,7176 8486,7177 8464,7203 8437,7207 8411,7178 8437,7142 8395,7111 8363,7113 8368,7096 8385,7053 8385,7021 8411,6981 8437,6962 8459,6929 8479,6900 8500,6866 8543,6851 8553,6823 8547,6796 8575,6770 8588,6726 8606,6696 8633,6673 8660,6643 8669,6605 8709,6564 8727,6529 8685,6528 8676,6487 8667,6455 8639,6444 8606,6425 8585,6377 8560,6341 8552,6308 8581,6283 8595,6255 8583,6221 8559,6187 8536,6161 8501,6119 8459,6092 8428,6061 8398,6037 8379,6007 8353,5993 8321,6013 8292,6029 8264,6034 8220,6061 8207,6094 8177,6106 8137,6126 8125,6157 8093,6163 8055,6155 8027,6164 7986,6188 7956,6189 7930,6182 7895,6156 7912,6129 7933,6088 7937,6048 7912,6019 7884,6008 7851,5985 7823,5977 7813,6006 7787,6016 7752,6023 7720,6038 7685,6043 7649,6065 7624,6055 7600,6027 7585,5992 7554,5988 7521,5993 7494,5984 7465,5971 7435,5960 7399,5932 7430,5892 7441,5867 7457,5835 7482,5831 7494,5805 7525,5801 7571,5831 7599,5835 7629,5809 7644,5768 7635,5737 7659,5707 7652,5678 7646,5651 7621,5647 7615,5620 7616,5592 7596,5561 7606,5532 7630,5488 7684,5475 7719,5469 7751,5469 7784,5470 7822,5479 7854,5493 7890,5497 7922,5520 7935,5548 7963,5558 7994,5577 8029,5577 8054,5543 8073,5513 8098,5498 8128,5485 8157,5501 8183,5528 8211,5523 8251,5527 8286,5512 8316,5497 8326,5468 8328,5431 8345,5404 8375,5376 8401,5333 8415,5299 8439,5269 8460,5243 8440,5209 8427,5176 8401,5163 8379,5131 8387,5099 8389,5073 8404,5047 8408,5022 8401,4991 8411,4955 8419,4926 8446,4898 8464,4871 8479,4845 8489,4812 8506,4785 8517,4756 8522,4726 8545,4693 8549,4662 8550,4650 8577,4642 8592,4615 8610,4573 8639,4543 8676,4520 8703,4498 8744,4462 8771,4439 8781,4412 8787,4387 8817,4363 8847,4363 8866,4328 8877,4297 8903,4277 8935,4281 8968,4271 9003,4269 9037,4259 9062,4222 9085,4191 9114,4172 9147,4164 9173,4141 9200,4118 9227,4112 9252,4116 9257,4087 9249,4058 9265,4036 9294,4044 9315,4038 9338,4006 9378,3976 9406,3948 9413,3919 9388,3894 9362,3890 9337,3871 9335,3844 9341,3819 9349,3788 9352,3763 9369,3731 9372,3703 9373,3672 9391,3645 9427,3622 9465,3626 9490,3631 9518,3622 9553,3619 9573,3611 9577,3593 9580,3570 9618,3581 " class="polyStyle" id="431224" style="fill:#fbe6ef"/>
<polygon points="10661,13 10671,18 10686,24 10690,25 10702,31 10714,39 10729,48 10742,53 10753,55 10756,56 10763,57 10774,65 10779,70 10790,76 10808,83 10811,85 10818,91 10818,96 10816,99 10807,105 10795,111 10790,117 10784,128 10784,131 10788,133 10794,133 10797,131 10804,128 10809,126 10820,123 10831,122 10834,121 10838,121 10845,121 10849,122 10855,126 10858,132 10862,138 10865,141 10869,144 10873,145 10879,146 10884,148 10889,149 10891,153 10890,156 10886,159 10882,161 10877,163 10871,165 10868,168 10866,171 10866,175 10872,177 10878,177 10886,176 10895,172 10904,170 10907,168 10910,167 10914,167 10918,168 10920,171 10923,174 10927,177 10929,175 10930,171 10930,166 10929,163 10932,161 10937,161 10944,165 10946,170 10950,172 10955,175 10959,176 10963,176 10966,176 10970,179 10959,207 10929,220 10902,210 10885,245 10862,272 10832,299 10819,332 10827,361 10805,396 10794,429 10813,457 10823,485 10837,515 10822,543 10831,571 10858,594 10889,608 10923,602 10954,613 10985,625 10998,655 11011,684 11038,708 11048,735 11033,762 11061,780 11071,793 11085,820 11106,854 11150,886 11184,909 11199,946 11210,972 11235,999 11265,990 11297,980 11327,988 11368,1011 11397,1042 11407,1070 11437,1088 11436,1116 11431,1142 11448,1168 11474,1188 11495,1216 11531,1226 11530,1259 11546,1294 11573,1319 11575,1352 11601,1381 11597,1410 11565,1437 11558,1472 11548,1499 11544,1527 11525,1561 11511,1593 11488,1618 11461,1641 11430,1651 11403,1645 11377,1635 11350,1638 11308,1649 11281,1673 11277,1706 11293,1733 11336,1757 11353,1789 11366,1815 11344,1852 11309,1876 11272,1869 11235,1856 11205,1840 11171,1847 11137,1854 11104,1872 11078,1900 11071,1904 11038,1916 11015,1951 11015,1976 11005,2007 10978,2022 10944,2014 10909,2015 10871,2005 10843,2002 10810,2018 10784,2008 10755,2007 10729,2017 10722,2048 10753,2072 10773,2107 10764,2145 10768,2179 10786,2212 10793,2238 10794,2269 10824,2270 10849,2251 10880,2231 10906,2215 10934,2187 10964,2178 11006,2176 11043,2181 11071,2197 11092,2164 11082,2131 11117,2116 11121,2146 11149,2166 11165,2164 11172,2163 11176,2162 11179,2156 11183,2149 11185,2145 11188,2142 11193,2139 11197,2138 11200,2139 11203,2142 11210,2155 11213,2157 11217,2157 11219,2154 11222,2144 11223,2138 11225,2133 11230,2132 11233,2134 11241,2140 11246,2144 11249,2145 11252,2141 11252,2134 11250,2118 11250,2112 11252,2107 11255,2102 11258,2099 11262,2099 11266,2099 11270,2100 11277,2104 11287,2111 11291,2113 11295,2112 11296,2109 11293,2096 11290,2087 11289,2082 11289,2078 11292,2071 11297,2069 11303,2068 11311,2069 11320,2072 11326,2074 11329,2075 11326,2081 11324,2085 11321,2091 11316,2104 11317,2116 11319,2119 11324,2125 11327,2131 11327,2134 11325,2138 11321,2140 11315,2141 11313,2145 11317,2164 11345,2188 11365,2216 11351,2241 11324,2256 11310,2283 11343,2296 11373,2307 11380,2334 11392,2368 11421,2404 11439,2435 11420,2465 11378,2465 11347,2447 11318,2445 11287,2431 11251,2440 11217,2413 11190,2397 11161,2405 11132,2399 11101,2389 11075,2411 11071,2416 11040,2449 11023,2477 11008,2506 10982,2522 10954,2539 10923,2556 10892,2552 10869,2580 10860,2614 10846,2645 10815,2669 10790,2692 10770,2718 10738,2718 10709,2698 10678,2695 10662,2728 10654,2754 10625,2773 10588,2818 10561,2845 10523,2863 10490,2877 10486,2904 10472,2933 10432,2958 10403,2985 10378,3005 10351,3028 10346,3058 10346,3084 10325,3112 10289,3120 10245,3106 10184,3112 10181,3142 10176,3167 10203,3185 10208,3201 10200,3231 10177,3282 10133,3285 10103,3301 10076,3313 10051,3328 10016,3345 9984,3355 9955,3364 9925,3377 9888,3392 9851,3402 9825,3411 9808,3440 9776,3467 9749,3490 9728,3519 9725,3544 9699,3562 9670,3577 9652,3606 9649,3611 9646,3610 9618,3581 9580,3570 9577,3593 9573,3611 9553,3619 9518,3622 9490,3631 9465,3626 9427,3622 9391,3645 9373,3672 9372,3703 9369,3731 9352,3763 9349,3788 9341,3819 9335,3844 9337,3871 9362,3890 9388,3894 9413,3919 9406,3948 9378,3976 9338,4006 9315,4038 9294,4044 9265,4036 9249,4058 9257,4087 9252,4116 9227,4112 9200,4118 9173,4141 9147,4164 9114,4172 9085,4191 9062,4222 9037,4259 9003,4269 8968,4271 8935,4281 8903,4277 8877,4297 8866,4328 8847,4363 8817,4363 8787,4387 8781,4412 8771,4439 8744,4462 8703,4498 8676,4520 8639,4543 8610,4573 8592,4615 8577,4642 8550,4650 8521,4643 8490,4647 8464,4659 8436,4659 8407,4679 8375,4686 8341,4691 8314,4690 8280,4712 8249,4713 8220,4728 8194,4733 8170,4699 8145,4688 8119,4681 8084,4686 8059,4665 8031,4642 8002,4644 7973,4658 7946,4664 7928,4642 7927,4634 7914,4618 7895,4613 7870,4603 7838,4582 7813,4578 7798,4588 7787,4583 7793,4569 7790,4551 7789,4521 7782,4489 7792,4477 7797,4461 7801,4458 7833,4449 7865,4441 7865,4409 7847,4369 7829,4366 7800,4364 7795,4357 7819,4345 7815,4308 7820,4287 7786,4282 7771,4279 7751,4256 7735,4249 7716,4238 7695,4226 7683,4239 7671,4253 7665,4267 7668,4298 7689,4334 7698,4356 7685,4360 7660,4357 7634,4339 7615,4309 7599,4283 7618,4252 7632,4219 7642,4190 7609,4161 7581,4144 7567,4118 7534,4102 7496,4080 7460,4069 7432,4074 7399,4083 7371,4097 7379,4070 7397,4043 7363,4055 7337,4045 7324,4073 7297,4075 7265,4052 7260,4025 7246,3999 7232,3973 7236,3943 7209,3929 7180,3912 7150,3920 7124,3900 7097,3904 7076,3874 7046,3853 7010,3838 6982,3824 6956,3794 6961,3766 6935,3744 6919,3712 6949,3694 6974,3669 6953,3640 6936,3606 6936,3574 6935,3545 6954,3519 6962,3485 6967,3459 6995,3429 7034,3424 7065,3413 7097,3385 7105,3357 7088,3324 7054,3300 7024,3309 6994,3296 6964,3261 6940,3233 6910,3229 6880,3215 6857,3187 6832,3168 6800,3157 6776,3184 6749,3196 6721,3164 6700,3131 6697,3106 6665,3099 6630,3073 6604,3041 6599,3008 6598,2978 6612,2947 6620,2919 6604,2890 6579,2867 6559,2853 6569,2827 6583,2801 6614,2804 6646,2807 6679,2814 6684,2843 6673,2869 6700,2878 6726,2883 6738,2852 6764,2829 6791,2821 6820,2814 6847,2796 6854,2769 6824,2756 6802,2727 6791,2702 6789,2676 6799,2635 6793,2600 6792,2574 6796,2535 6800,2504 6797,2475 6836,2450 6868,2448 6879,2409 6869,2377 6877,2349 6877,2318 6871,2286 6898,2264 6884,2231 6906,2198 6927,2188 6943,2188 6965,2195 6969,2198 6980,2205 6981,2215 6985,2229 6991,2236 6998,2240 7022,2235 7043,2238 7046,2244 7070,2237 7097,2273 7122,2293 7153,2299 7178,2293 7208,2276 7227,2251 7210,2223 7204,2196 7195,2170 7193,2144 7177,2114 7169,2085 7166,2055 7195,2048 7173,2022 7135,2008 7110,2001 7109,1971 7130,1933 7137,1899 7155,1867 7188,1851 7216,1878 7243,1895 7260,1863 7261,1837 7289,1826 7311,1800 7326,1763 7367,1757 7396,1759 7398,1729 7404,1696 7410,1669 7406,1637 7403,1609 7413,1573 7418,1539 7437,1507 7442,1479 7460,1453 7469,1421 7470,1386 7458,1354 7460,1319 7468,1291 7495,1280 7525,1298 7561,1322 7587,1331 7615,1330 7649,1326 7681,1318 7709,1294 7731,1269 7745,1232 7754,1200 7742,1170 7727,1145 7721,1106 7726,1079 7744,1050 7766,1020 7791,987 7816,956 7848,918 7849,915 7861,898 7867,892 7875,888 7888,884 7900,882 7903,866 7914,852 7934,842 7957,838 7985,831 7998,823 7997,818 7994,776 7995,726 7995,713 8000,676 8026,652 8057,635 8090,631 8116,621 8145,609 8172,629 8200,658 8232,669 8269,669 8295,671 8297,698 8336,710 8363,717 8391,711 8402,686 8434,673 8461,661 8440,630 8439,602 8453,577 8480,547 8515,569 8540,586 8572,603 8607,632 8637,649 8665,684 8677,710 8681,743 8683,774 8710,757 8725,726 8756,694 8773,658 8768,623 8762,588 8727,553 8701,529 8673,504 8664,478 8641,447 8657,412 8691,378 8726,354 8759,352 8794,334 8804,303 8790,272 8773,244 8751,218 8739,190 8743,160 8772,134 8782,131 8824,112 8850,99 8882,97 8915,123 8923,131 8951,169 8975,205 9004,242 9028,273 9056,282 9089,283 9120,287 9149,260 9171,298 9188,324 9216,348 9248,377 9282,409 9311,427 9342,444 9371,462 9377,499 9373,529 9395,559 9428,585 9456,575 9483,582 9496,557 9488,530 9475,504 9506,488 9532,486 9544,513 9570,534 9604,552 9641,549 9670,545 9661,516 9663,485 9669,458 9703,463 9735,466 9752,494 9788,516 9815,549 9831,576 9863,586 9894,580 9925,586 9948,554 9978,540 9993,510 10021,470 10041,439 10038,409 10033,375 10020,343 10050,324 10082,310 10109,331 10140,364 10165,372 10196,375 10222,369 10253,388 10282,370 10298,339 10289,303 10282,270 10272,243 10257,211 10254,177 10251,152 10260,131 10287,125 10319,119 10353,119 10398,117 10427,118 10453,118 10482,121 10493,131 10520,139 10547,137 10573,143 10601,139 10615,131 10624,84 10630,50 10641,19 10644,-1 10649,3 " class="polyStyle" id="431222" style="fill:#f6f67b"/>
<path d="" class="polyStyle" id="511129" style="fill:#d4ecb2"/>
<path d="" class="polyStyle" id="511423" style="fill:#ee8b94"/>
<path d="" class="polyStyle" id="421023" style="fill:#f6f67b"/>
<path d="" class="polyStyle" id="511724" style="fill:#f6f67b"/>
<path d="" class="polyStyle" id="420526" style="fill:#fbe6ef"/>
<path d="" class="polyStyle" id="511923" style="fill:#fbe6ef"/>
<path d="" class="polyStyle" id="420325" style="fill:#fbe6ef"/>
<path d="" class="polyStyle" id="511921" style="fill:#f6f67b"/>
<path d="" class="polyStyle" id="542525" style="fill:#f6f67b"/>
<path d="" class="polyStyle" id="611026" style="fill:#ee8b94"/>
<path d="" class="polyStyle" id="411023" style="fill:#fbe6ef"/>
<path d="" class="polyStyle" id="632323" style="fill:#f6f67b"/>
<path d="" class="polyStyle" id="140525" style="fill:#d4ecb2"/>
<path d="" class="polyStyle" id="410922" style="fill:#ee8b94"/>
<path d="" class="polyStyle" id="621027" style="fill:#ee8b94"/>
<path d="" class="polyStyle" id="130427" style="fill:#f6f67b"/>
<path d="" class="polyStyle" id="130121" style="fill:#ee8b94"/>
<path d="" class="polyStyle" id="610823" style="fill:#fbe6ef"/>
<path d="" class="polyStyle" id="130225" style="fill:#fbe6ef"/>
<path d="" class="polyStyle" id="130322" style="fill:#d4ecb2"/>
<path d="" class="polyStyle" id="653130" style="fill:#f6f67b"/>
<path d="" class="polyStyle" id="130822" style="fill:#fbe6ef"/>
<path d="" class="polyStyle" id="211221" style="fill:#f6f67b"/>
<path d="" class="polyStyle" id="210921" style="fill:#f6f67b"/>
<path d="" class="polyStyle" id="150223" style="fill:#f8c67d"/>
<path d="" class="polyStyle" id="220422" style="fill:#d4ecb2"/>
<path d="" class="polyStyle" id="340721" style="fill:#f6f67b"/>
<path d="" class="polyStyle" id="510824" style="fill:#d4ecb2"/>
<polygon points="3720,9551 3723,9553 3756,9577 3799,9585 3833,9588 3862,9597 3903,9599 3933,9608 3972,9626 3999,9621 4030,9644 4048,9677 4033,9702 3996,9703 3967,9720 3951,9746 3940,9773 3912,9787 3882,9809 3852,9839 3880,9861 3920,9862 3951,9871 3982,9890 4012,9901 4043,9922 4083,9919 4116,9916 4152,9913 4185,9900 4225,9901 4253,9895 4279,9891 4308,9855 4333,9828 4341,9790 4340,9757 4370,9748 4408,9739 4438,9714 4455,9687 4493,9687 4527,9694 4554,9708 4581,9679 4614,9669 4665,9656 4694,9655 4709,9684 4734,9694 4762,9684 4781,9651 4808,9635 4834,9640 4866,9644 4894,9625 4920,9637 4951,9655 4981,9661 5021,9652 5054,9642 5060,9611 5087,9598 5117,9578 5148,9573 5174,9571 5176,9544 5193,9519 5202,9487 5188,9483 5197,9450 5226,9439 5245,9410 5275,9405 5303,9408 5330,9383 5357,9369 5389,9368 5409,9393 5394,9421 5380,9446 5408,9461 5381,9484 5361,9515 5390,9543 5424,9553 5457,9537 5484,9521 5513,9510 5547,9500 5575,9489 5601,9473 5627,9480 5638,9453 5669,9441 5695,9447 5723,9471 5737,9506 5739,9531 5766,9552 5783,9584 5783,9613 5792,9642 5802,9668 5781,9695 5810,9709 5835,9727 5864,9742 5893,9738 5924,9742 5953,9726 5980,9716 6007,9720 6038,9740 6029,9765 6068,9785 6100,9788 6126,9793 6156,9810 6182,9811 6190,9782 6193,9753 6192,9724 6205,9688 6224,9660 6250,9665 6280,9687 6309,9685 6315,9686 6337,9716 6360,9748 6355,9776 6384,9798 6413,9831 6430,9860 6466,9884 6494,9911 6522,9889 6535,9916 6550,9946 6535,9972 6523,9998 6531,10030 6550,10058 6554,10088 6584,10088 6615,10078 6642,10071 6670,10101 6703,10125 6779,10158 6758,10176 6729,10182 6698,10185 6672,10191 6643,10215 6625,10246 6609,10276 6596,10302 6584,10332 6577,10365 6545,10372 6518,10360 6496,10386 6465,10397 6445,10428 6441,10460 6469,10487 6498,10516 6509,10542 6513,10569 6547,10589 6573,10603 6550,10631 6522,10645 6495,10670 6484,10696 6456,10694 6428,10677 6399,10683 6379,10711 6351,10710 6324,10719 6317,10749 6318,10777 6314,10806 6307,10837 6301,10872 6273,10905 6256,10932 6267,10963 6288,10990 6316,10998 6333,11024 6325,11053 6334,11085 6348,11110 6351,11142 6369,11170 6385,11197 6372,11227 6363,11260 6385,11288 6385,11317 6358,11307 6363,11337 6360,11368 6330,11378 6299,11371 6316,11399 6317,11425 6290,11448 6285,11475 6285,11492 6292,11494 6300,11497 6308,11503 6316,11513 6320,11515 6330,11519 6344,11525 6348,11527 6357,11529 6361,11528 6365,11524 6367,11520 6372,11513 6375,11514 6378,11515 6381,11523 6383,11534 6385,11544 6388,11554 6395,11561 6402,11565 6405,11570 6407,11576 6408,11587 6407,11597 6405,11605 6404,11611 6393,11619 6364,11639 6337,11633 6306,11632 6277,11627 6251,11648 6242,11678 6229,11705 6199,11729 6171,11756 6148,11786 6120,11799 6093,11790 6065,11792 6038,11763 6030,11730 6003,11710 5969,11712 5939,11696 5914,11676 5886,11656 5855,11643 5825,11635 5794,11655 5791,11660 5770,11651 5733,11635 5698,11608 5708,11582 5713,11534 5697,11521 5652,11548 5632,11579 5606,11574 5597,11547 5562,11531 5536,11502 5506,11498 5467,11475 5434,11473 5409,11484 5391,11515 5378,11542 5347,11537 5318,11510 5291,11495 5270,11521 5244,11499 5237,11462 5249,11425 5252,11394 5227,11378 5200,11360 5177,11335 5176,11308 5173,11282 5161,11255 5128,11222 5091,11201 5055,11197 5016,11193 4990,11200 4962,11197 4931,11217 4902,11248 4871,11275 4857,11307 4824,11281 4795,11292 4765,11301 4732,11293 4703,11282 4672,11256 4642,11239 4615,11231 4574,11228 4548,11228 4517,11206 4488,11197 4459,11218 4433,11224 4408,11227 4380,11204 4367,11231 4368,11262 4343,11273 4310,11296 4317,11329 4288,11344 4287,11376 4278,11401 4271,11427 4291,11459 4321,11473 4351,11485 4382,11514 4368,11540 4345,11567 4316,11580 4286,11570 4260,11576 4251,11600 4254,11613 4241,11618 4206,11600 4169,11598 4146,11620 4131,11658 4101,11668 4076,11665 4046,11668 4003,11666 3977,11682 3952,11667 3958,11639 3929,11622 3898,11604 3873,11586 3843,11566 3810,11545 3782,11529 3786,11529 3802,11515 3814,11503 3818,11499 3824,11497 3852,11493 3888,11485 3904,11475 3922,11457 3938,11451 3940,11445 3942,11435 3936,11425 3934,11417 3932,11413 3936,11409 3974,11387 3974,11355 4034,11341 4040,11329 4032,11317 4030,11313 3984,11299 3972,11281 3956,11265 3948,11261 3937,11260 3934,11265 3934,11271 3936,11283 3940,11295 3946,11305 3952,11319 3952,11323 3952,11329 3944,11339 3938,11345 3928,11355 3916,11367 3906,11373 3900,11375 3894,11375 3888,11375 3880,11371 3866,11361 3854,11349 3839,11342 3832,11345 3832,11357 3846,11381 3868,11393 3876,11401 3884,11411 3856,11435 3852,11437 3846,11439 3838,11441 3826,11441 3812,11441 3804,11439 3794,11435 3766,11423 3754,11417 3748,11414 3740,11405 3730,11397 3724,11393 3704,11389 3692,11389 3682,11393 3682,11387 3660,11372 3664,11356 3662,11334 3628,11328 3646,11292 3642,11240 3676,11208 3666,11194 3652,11180 3622,11170 3626,11114 3580,11104 3578,11070 3574,11068 3554,11070 3540,11072 3534,11070 3532,11066 3548,11026 3566,11002 3554,10990 3540,10980 3550,10954 3572,10950 3598,10938 3606,10928 3614,10906 3622,10886 3638,10846 3630,10830 3616,10826 3608,10820 3608,10810 3610,10788 3602,10762 3626,10752 3642,10742 3636,10726 3604,10708 3566,10702 3536,10716 3508,10696 3488,10668 3504,10644 3468,10630 3438,10626 3414,10640 3404,10686 3378,10718 3346,10734 3326,10746 3334,10764 3338,10782 3324,10798 3316,10804 3298,10818 3286,10818 3268,10820 3254,10816 3226,10810 3230,10800 3262,10772 3264,10748 3236,10724 3242,10680 3242,10668 3236,10648 3264,10639 3275,10622 3286,10610 3313,10597 3318,10597 3325,10598 3334,10600 3341,10600 3350,10597 3369,10590 3377,10587 3389,10578 3398,10568 3403,10560 3426,10556 3452,10552 3468,10550 3500,10550 3506,10532 3506,10516 3528,10502 3558,10486 3584,10472 3624,10458 3640,10468 3650,10486 3660,10492 3704,10482 3726,10490 3748,10492 3750,10488 3722,10454 3720,10442 3750,10410 3768,10400 3794,10398 3824,10406 3846,10364 3848,10350 3816,10318 3812,10310 3798,10290 3782,10240 3782,10224 3802,10208 3794,10190 3782,10190 3776,10200 3744,10236 3734,10242 3708,10238 3684,10234 3680,10226 3696,10204 3692,10186 3690,10176 3692,10158 3710,10150 3734,10154 3760,10136 3760,10122 3748,10100 3746,10080 3756,10060 3752,10048 3726,10030 3690,10000 3668,9988 3666,9970 3680,9960 3676,9924 3636,9896 3634,9880 3636,9862 3648,9838 3652,9826 3604,9790 3596,9778 3604,9772 3642,9774 3672,9788 3676,9778 3652,9764 3606,9748 3558,9750 3546,9722 3528,9720 3498,9724 3492,9736 3482,9756 3478,9774 3482,9786 3494,9792 3526,9806 3520,9816 3504,9822 3490,9846 3470,9846 3456,9832 3438,9820 3416,9808 3382,9796 3352,9792 3336,9792 3320,9796 3320,9768 3342,9766 3372,9762 3401,9782 3427,9788 3456,9779 3475,9755 3491,9723 3499,9695 3511,9663 3524,9632 3536,9610 3559,9603 3569,9604 3602,9634 3622,9661 3650,9680 3662,9715 3661,9742 3696,9767 3721,9732 3726,9705 3732,9656 3724,9622 3715,9591 3712,9565 3717,9555 " class="polyStyle" id="431225" style="fill:#f6f67b"/>
<path d="" class="polyStyle" id="610324" style="fill:#f6f67b"/>
<path d="" class="polyStyle" id="530722" style="fill:#ee8b94"/>
<path d="" class="polyStyle" id="340823" style="fill:#d4ecb2"/>
<path d="" class="polyStyle" id="620825" style="fill:#d4ecb2"/>
<path d="" class="polyStyle" id="421125" style="fill:#ee8b94"/>
<path d="" class="polyStyle" id="210281" style="fill:#ee8b94"/>
<path d="" class="polyStyle" id="440883" style="fill:#f6f67b"/>
<path d="" class="polyStyle" id="469006" style="fill:#d4ecb2"/>
<path d="" class="polyStyle" id="469002" style="fill:#ee8b94"/>
<path d="" class="polyStyle" id="469005" style="fill:#fbe6ef"/>
<path d="" class="polyStyle" id="440882" style="fill:#ee8b94"/>
<path d="" class="polyStyle" id="450681" style="fill:#ee8b94"/>
<path d="" class="polyStyle" id="441581" style="fill:#d4ecb2"/>
<polygon points="6693,7754 6684,7759 6666,7764 6676,7774 6694,7779 6720,7779 6733,7772 6756,7751 6774,7738 6780,7743 6784,7774 6787,7791 6794,7795 6804,7813 6766,7835 6751,7853 6754,7864 6763,7869 6777,7873 6778,7879 6786,7890 6826,7896 6875,7923 6895,7975 6895,8007 6880,8040 6869,8063 6878,8076 6890,8087 6890,8103 6889,8129 6913,8129 6938,8105 6968,8081 7021,8083 7054,8069 7056,8051 7071,8043 7085,8040 7089,8046 7095,8056 7108,8059 7114,8026 7136,7989 7179,7971 7192,7967 7205,7951 7214,7949 7223,7959 7261,7995 7266,7998 7291,7990 7306,7983 7319,8000 7349,8003 7376,7998 7374,7965 7380,7946 7401,7938 7418,7943 7426,7958 7431,7963 7449,7960 7529,8000 7545,8003 7559,7997 7571,7960 7576,7925 7594,7913 7596,7935 7609,7940 7639,7943 7666,7958 7679,7985 7716,8008 7751,8008 7774,8028 7796,8033 7824,8023 7857,8019 7874,8033 7889,8041 7914,8028 7926,8023 7941,8033 7950,8039 7964,8030 7994,8033 8021,8038 8046,8008 8069,7978 8056,7945 8064,7933 8091,7920 8124,7915 8144,7970 8167,8003 8189,8020 8221,8035 8220,8047 8210,8053 8201,8060 8174,8095 8124,8198 8114,8255 8121,8325 8239,8425 8271,8431 8311,8413 8379,8400 8464,8405 8631,8405 8672,8415 8676,8435 8649,8513 8646,8538 8655,8568 8679,8604 8704,8630 8688,8656 8672,8686 8642,8722 8616,8732 8581,8756 8553,8782 8522,8773 8489,8797 8463,8808 8436,8811 8404,8828 8372,8838 8349,8870 8353,8906 8334,8942 8324,8968 8327,9000 8352,9015 8327,9043 8313,9071 8280,9086 8246,9098 8216,9108 8182,9099 8145,9115 8112,9100 8081,9083 8041,9067 8012,9046 7977,9020 7946,9002 7912,9017 7898,9044 7872,9057 7842,9067 7811,9103 7804,9136 7826,9193 7827,9223 7818,9255 7802,9285 7787,9318 7771,9353 7741,9373 7708,9378 7695,9355 7701,9322 7608,9325 7600,9309 7578,9282 7545,9300 7511,9304 7477,9313 7428,9333 7394,9345 7361,9352 7332,9356 7305,9365 7266,9382 7238,9413 7216,9441 7182,9468 7149,9474 7116,9493 7066,9505 7037,9518 7017,9547 7041,9578 7045,9612 7062,9638 7088,9648 7101,9685 7088,9711 7080,9738 7065,9768 7066,9797 7033,9828 6998,9832 6967,9823 6938,9843 6907,9845 6877,9837 6848,9867 6829,9897 6819,9928 6804,9962 6796,10001 6800,10035 6814,10068 6813,10102 6809,10132 6779,10158 6703,10125 6670,10101 6642,10071 6615,10078 6584,10088 6554,10088 6550,10058 6531,10030 6523,9998 6535,9972 6550,9946 6535,9916 6522,9889 6494,9911 6466,9884 6430,9860 6413,9831 6384,9798 6355,9776 6360,9748 6337,9716 6315,9686 6309,9685 6280,9687 6250,9665 6224,9660 6205,9688 6192,9724 6193,9753 6190,9782 6182,9811 6156,9810 6126,9793 6100,9788 6068,9785 6029,9765 6038,9740 6007,9720 5980,9716 5953,9726 5924,9742 5893,9738 5864,9742 5835,9727 5810,9709 5781,9695 5802,9668 5792,9642 5783,9613 5783,9584 5766,9552 5739,9531 5737,9506 5723,9471 5695,9447 5669,9441 5638,9453 5627,9480 5601,9473 5575,9489 5547,9500 5513,9510 5484,9521 5457,9537 5424,9553 5390,9543 5361,9515 5381,9484 5408,9461 5380,9446 5394,9421 5409,9393 5389,9368 5357,9369 5330,9383 5303,9408 5275,9405 5245,9410 5226,9439 5197,9450 5188,9483 5202,9487 5193,9519 5176,9544 5174,9571 5148,9573 5117,9578 5087,9598 5060,9611 5054,9642 5021,9652 4981,9661 4951,9655 4920,9637 4894,9625 4866,9644 4834,9640 4808,9635 4781,9651 4762,9684 4734,9694 4709,9684 4694,9655 4665,9656 4614,9669 4581,9679 4554,9708 4527,9694 4493,9687 4455,9687 4438,9714 4408,9739 4370,9748 4340,9757 4341,9790 4333,9828 4308,9855 4279,9891 4253,9895 4225,9901 4185,9900 4152,9913 4116,9916 4083,9919 4043,9922 4012,9901 3982,9890 3951,9871 3920,9862 3880,9861 3852,9839 3882,9809 3912,9787 3940,9773 3951,9746 3967,9720 3996,9703 4033,9702 4048,9677 4030,9644 3999,9621 3972,9626 3933,9608 3903,9599 3862,9597 3833,9588 3799,9585 3756,9577 3723,9553 3734,9548 3756,9545 3781,9540 3782,9531 3778,9517 3785,9502 3793,9487 3786,9469 3778,9461 3784,9451 3800,9445 3814,9444 3822,9450 3837,9456 3860,9465 3877,9457 3892,9442 3909,9439 3929,9442 3939,9432 3949,9417 3957,9406 3967,9408 3979,9423 3995,9446 4018,9452 4028,9444 4045,9426 4060,9414 4061,9410 4037,9393 4039,9378 4049,9376 4068,9380 4082,9384 4088,9378 4094,9366 4106,9365 4117,9380 4122,9394 4129,9411 4139,9397 4136,9379 4133,9367 4138,9361 4153,9362 4168,9363 4170,9349 4178,9338 4190,9338 4204,9343 4215,9334 4223,9318 4237,9314 4252,9318 4273,9327 4277,9313 4276,9300 4269,9270 4253,9240 4275,9207 4297,9194 4317,9184 4322,9178 4310,9163 4306,9142 4305,9123 4286,9109 4273,9093 4295,9077 4306,9066 4312,9082 4317,9099 4326,9113 4336,9117 4343,9111 4347,9093 4351,9079 4362,9076 4383,9073 4395,9066 4392,9054 4375,9051 4373,9038 4381,9023 4397,9011 4410,9007 4417,9024 4413,9037 4413,9046 4426,9046 4442,9041 4456,9039 4473,9048 4493,9053 4518,9048 4533,9029 4545,9022 4580,9018 4606,8996 4608,8971 4620,8952 4631,8931 4622,8907 4606,8903 4596,8896 4600,8881 4597,8857 4585,8846 4602,8831 4586,8817 4567,8816 4545,8816 4536,8801 4556,8788 4568,8781 4595,8773 4624,8776 4647,8781 4653,8770 4650,8760 4654,8738 4664,8730 4695,8713 4710,8707 4728,8707 4738,8692 4742,8670 4769,8666 4797,8682 4816,8712 4850,8722 4879,8712 4914,8697 4943,8675 4969,8695 4994,8695 5003,8669 5000,8646 4999,8641 5027,8637 5055,8618 5075,8598 5096,8609 5110,8617 5114,8601 5117,8576 5134,8568 5152,8559 5166,8545 5182,8548 5213,8576 5245,8580 5263,8620 5275,8652 5290,8681 5316,8705 5348,8710 5373,8737 5412,8720 5457,8727 5494,8730 5532,8739 5558,8745 5551,8700 5576,8690 5609,8675 5635,8674 5656,8680 5682,8693 5693,8690 5701,8678 5718,8676 5717,8695 5729,8706 5759,8713 5765,8738 5807,8754 5840,8779 5876,8762 5913,8755 5951,8752 5977,8761 6006,8730 6032,8707 6059,8704 6064,8676 6057,8638 6056,8615 6037,8609 5997,8607 5977,8587 5979,8577 5980,8568 5986,8560 6010,8553 6035,8526 6059,8500 6098,8479 6128,8454 6152,8427 6157,8414 6169,8408 6201,8384 6228,8372 6251,8368 6268,8374 6293,8387 6300,8364 6306,8339 6306,8321 6295,8304 6274,8263 6288,8237 6296,8227 6293,8212 6271,8194 6264,8178 6263,8149 6281,8089 6303,8071 6340,8081 6370,8084 6381,8056 6389,8043 6410,8037 6450,8014 6465,7997 6468,7977 6465,7959 6506,7939 6540,7929 6559,7924 6593,7901 6633,7866 6640,7856 6635,7848 6639,7831 6639,7822 6629,7821 6610,7824 6596,7819 6595,7809 6609,7792 6631,7762 6650,7736 6668,7730 6688,7737 " class="polyStyle" id="431281" style="fill:#ee8b94"/>
<path d="" class="polyStyle" id="421087" style="fill:#ee8b94"/>
<path d="" class="polyStyle" id="420984" style="fill:#fbe6ef"/>
<path d="" class="polyStyle" id="420582" style="fill:#ee8b94"/>
<path d="" class="polyStyle" id="370282" style="fill:#f6f67b"/>
<path d="" class="polyStyle" id="371083" style="fill:#f6f67b"/>
<path d="" class="polyStyle" id="371082" style="fill:#fbe6ef"/>
<path d="" class="polyStyle" id="652801" style="fill:#f8c67d"/>
<path d="" class="polyStyle" id="654301" style="fill:#ee8b94"/>
<path d="" class="polyStyle" id="370687" style="fill:#ee8b94"/>
<path d="" class="polyStyle" id="371482" style="fill:#d4ecb2"/>
<path d="" class="polyStyle" id="421081" style="fill:#fbe6ef"/>
<path d="" class="polyStyle" id="429006" style="fill:#f6f67b"/>
<path d="" class="polyStyle" id="440982" style="fill:#d4ecb2"/>
<path d="" class="polyStyle" id="421181" style="fill:#d4ecb2"/>
<path d="" class="polyStyle" id="321181" style="fill:#d4ecb2"/>
<path d="" class="polyStyle" id="659007" style="fill:#ee8b94"/>
<path d="" class="polyStyle" id="652701" style="fill:#fbe6ef"/>
<path d="" class="polyStyle" id="210781" style="fill:#fbe6ef"/>
<path d="" class="polyStyle" id="460204" style="fill:#f6f67b"/>
<path d="" class="polyStyle" id="210211" style="fill:#f6f67b"/>
<path d="" class="polyStyle" id="450512" style="fill:#ee8b94"/>
<path d="" class="polyStyle" id="450602" style="fill:#fbe6ef"/>
<path d="" class="polyStyle" id="440404" style="fill:#ee8b94"/>
<path d="" class="polyStyle" id="440403" style="fill:#f6f67b"/>
<path d="" class="polyStyle" id="441502" style="fill:#f6f67b"/>
<path d="" class="polyStyle" id="431002" style="fill:#d4ecb2"/>
<polygon points="5646,6178 5664,6209 5653,6235 5653,6267 5681,6289 5691,6319 5702,6357 5731,6365 5739,6391 5745,6418 5762,6456 5804,6463 5833,6470 5869,6455 5896,6424 5931,6411 5957,6404 5985,6397 6017,6413 6044,6423 6070,6410 6101,6397 6140,6403 6165,6405 6194,6415 6220,6403 6246,6398 6274,6407 6300,6434 6303,6434 6322,6456 6325,6482 6318,6493 6303,6495 6285,6497 6277,6507 6270,6532 6303,6565 6311,6584 6297,6620 6271,6646 6245,6682 6223,6720 6193,6732 6182,6742 6176,6760 6168,6781 6128,6821 6071,6857 6003,6884 5998,6900 6006,6925 6030,6957 6068,6961 6088,6957 6102,6946 6107,6934 6130,6930 6172,6924 6202,6925 6226,6945 6236,6957 6253,6962 6276,6984 6280,7000 6275,7025 6285,7056 6291,7070 6286,7085 6290,7112 6328,7136 6360,7172 6381,7205 6398,7229 6451,7231 6465,7240 6471,7260 6466,7312 6458,7332 6443,7345 6437,7396 6446,7429 6478,7457 6487,7469 6483,7479 6458,7480 6438,7484 6463,7494 6480,7499 6492,7514 6492,7522 6482,7531 6455,7547 6451,7555 6455,7565 6476,7575 6471,7587 6443,7586 6426,7582 6422,7604 6393,7624 6377,7637 6373,7656 6371,7672 6356,7683 6340,7702 6346,7733 6334,7743 6318,7743 6288,7751 6270,7767 6256,7793 6241,7809 6213,7819 6188,7813 6173,7801 6164,7795 6145,7799 6095,7804 6007,7816 5885,7822 5832,7813 5806,7811 5778,7834 5728,7846 5705,7871 5676,7873 5658,7834 5644,7822 5630,7823 5625,7847 5596,7859 5586,7863 5578,7877 5571,7889 5558,7891 5523,7898 5507,7904 5497,7899 5472,7889 5434,7896 5416,7857 5408,7827 5388,7799 5365,7768 5337,7775 5300,7778 5310,7752 5322,7713 5340,7681 5335,7648 5330,7619 5327,7583 5351,7557 5390,7545 5423,7514 5458,7494 5493,7512 5483,7543 5489,7573 5517,7564 5518,7535 5521,7504 5530,7474 5552,7432 5580,7435 5617,7421 5631,7395 5635,7369 5617,7336 5616,7310 5606,7274 5569,7278 5536,7284 5501,7271 5484,7244 5451,7233 5444,7198 5457,7166 5488,7135 5475,7102 5449,7073 5422,7050 5409,7015 5385,6983 5375,6945 5340,6928 5308,6929 5281,6939 5272,6967 5271,7007 5249,7045 5229,7084 5201,7083 5164,7104 5131,7100 5094,7096 5064,7064 5032,7030 5007,7001 4991,6974 5019,6949 5045,6941 5077,6914 5076,6884 5081,6852 5060,6822 5060,6794 5059,6757 5042,6730 5008,6697 5000,6668 5022,6638 5027,6605 5025,6558 5051,6536 5078,6536 5104,6526 5130,6500 5140,6469 5182,6454 5224,6448 5256,6453 5283,6462 5311,6456 5339,6450 5376,6427 5401,6415 5394,6389 5391,6358 5399,6330 5411,6300 5418,6271 5432,6244 5441,6208 5461,6178 5497,6184 5533,6162 5564,6173 5593,6154 5624,6128 5628,6143 " class="polyStyle" id="431202" style="fill:#f8c67d"/>
<path d="" class="polyStyle" id="500107" style="fill:#fbe6ef"/>
<path d="" class="polyStyle" id="430611" style="fill:#d4ecb2"/>
<path d="" class="polyStyle" id="511304" style="fill:#fbe6ef"/>
<path d="" class="polyStyle" id="340711" style="fill:#ee8b94"/>
<path d="" class="polyStyle" id="320118" style="fill:#f6f67b"/>
<path d="" class="polyStyle" id="510704" style="fill:#f6f67b"/>
<path d="" class="polyStyle" id="411502" style="fill:#ee8b94"/>
<path d="" class="polyStyle" id="320302" style="fill:#d4ecb2"/>
<path d="" class="polyStyle" id="140311" style="fill:#ee8b94"/>
<path d="" class="polyStyle" id="610802" style="fill:#ee8b94"/>
<path d="" class="polyStyle" id="120116" style="fill:#f6f67b"/>
<path d="" class="polyStyle" id="130303" style="fill:#fbe6ef"/>
<path d="" class="polyStyle" id="140211" style="fill:#f6f67b"/>
<path d="" class="polyStyle" id="150207" style="fill:#fbe6ef"/>
<path d="" class="polyStyle" id="211403" style="fill:#f6f67b"/>
<path d="" class="polyStyle" id="150802" style="fill:#f8c67d"/>
<path d="" class="polyStyle" id="210112" style="fill:#ee8b94"/>
<path d="" class="polyStyle" id="230406" style="fill:#d4ecb2"/>
<path d="" class="polyStyle" id="110113" style="fill:#fbe6ef"/>
<path d="" class="polyStyle" id="341702" style="fill:#fbe6ef"/>
<path d="" class="polyStyle" id="420303" style="fill:#ee8b94"/>
<path d="" class="polyStyle" id="340702" style="fill:#d4ecb2"/>
<path d="" class="polyStyle" id="421002" style="fill:#f6f67b"/>
<path d="" class="polyStyle" id="420117" style="fill:#f6f67b"/>
<path d="" class="polyStyle" id="440904" style="fill:#f8c67d"/>
<path d="" class="polyStyle" id="460205" style="fill:#ee8b94"/>
<path d="" class="polyStyle" id="460202" style="fill:#f6f67b"/>
<path d="" class="polyStyle" id="460203" style="fill:#fbe6ef"/>
<path d="" class="polyStyle" id="420304" style="fill:#f6f67b"/>
<path d="" class="polyStyle" id="445302" style="fill:#ee8b94"/>
<path d="" class="polyStyle" id="410202" style="fill:#d4ecb2"/>
<path d="" class="polyStyle" id="440800" style="fill:#f6f67b"/>
<path d="" class="polyStyle" id="440900" style="fill:#ee8b94"/>
<path d="" class="polyStyle" id="340800" style="fill:#ee8b94"/>
<path d="" class="polyStyle" id="460200" style="fill:#f6f67b"/>
<path d="" class="polyStyle" id="460000" style="fill:#ee8b94"/>
<path d="" class="polyStyle" id="450500" style="fill:#ee8b94"/>
<path d="" class="polyStyle" id="450600" style="fill:#ee8b94"/>
<path d="" class="polyStyle" id="440400" style="fill:#f6f67b"/>
<path d="" class="polyStyle" id="441700" style="fill:#f6f67b"/>
<path d="" class="polyStyle" id="441500" style="fill:#f6f67b"/>
<path d="" class="polyStyle" id="350600" style="fill:#ee8b94"/>
<path d="" class="polyStyle" id="710000" style="fill:#f6f67b"/>
<path d="" class="polyStyle" id="510400" style="fill:#f6f67b"/>
<path d="" class="polyStyle" id="522600" style="fill:#fbe6ef"/>
<path d="" class="polyStyle" id="520500" style="fill:#ee8b94"/>
<path d="" class="polyStyle" id="431200" style="fill:#f6f67b"/>
<path d="" class="polyStyle" id="430600" style="fill:#f6f67b"/>
<path d="" class="polyStyle" id="511400" style="fill:#d4ecb2"/>
<path d="" class="polyStyle" id="421000" style="fill:#ee8b94"/>
<path d="" class="polyStyle" id="341700" style="fill:#f6f67b"/>
<path d="" class="polyStyle" id="420500" style="fill:#f6f67b"/>
<path d="" class="polyStyle" id="511300" style="fill:#f6f67b"/>
<path d="" class="polyStyle" id="420900" style="fill:#f6f67b"/>
<path d="" class="polyStyle" id="511700" style="fill:#ee8b94"/>
<path d="" class="polyStyle" id="420600" style="fill:#d4ecb2"/>
<path d="" class="polyStyle" id="411500" style="fill:#fbe6ef"/>
<path d="" class="polyStyle" id="510800" style="fill:#ee8b94"/>
<path d="" class="polyStyle" id="420300" style="fill:#fbe6ef"/>
<path d="" class="polyStyle" id="611000" style="fill:#ee8b94"/>
<path d="" class="polyStyle" id="620800" style="fill:#fbe6ef"/>
<path d="" class="polyStyle" id="370200" style="fill:#ee8b94"/>
<path d="" class="polyStyle" id="371000" style="fill:#f6f67b"/>
<path d="" class="polyStyle" id="370600" style="fill:#fbe6ef"/>
<path d="" class="polyStyle" id="120000" style="fill:#f6f67b"/>
<path d="" class="polyStyle" id="130200" style="fill:#ee8b94"/>
<path d="" class="polyStyle" id="130300" style="fill:#f6f67b"/>
<path d="" class="polyStyle" id="652900" style="fill:#fbe6ef"/>
<path d="" class="polyStyle" id="150500" style="fill:#d4ecb2"/>
<path d="" class="polyStyle" id="" style="fill:#d4ecb2"/>
<path d="" class="polyStyle" id="350500" style="fill:#fbe6ef"/>
<path d="" class="polyStyle" id="440400" style="fill:#f6f67b"/>
<path d="" class="polyStyle" id="421100" style="fill:#d4ecb2"/>
<path d="" class="polyStyle" id="420100" style="fill:#fbe6ef"/>
<path d="" class="polyStyle" id="532500" style="fill:#fbe6ef"/>
<path d="" class="polyStyle" id="654200" style="fill:#fbe6ef"/>
<path d="" class="polyStyle" id="210700" style="fill:#d4ecb2"/>
<path d="" class="polyStyle" id="522300" style="fill:#fbe6ef"/>
<path d="" class="polyStyle" id="" style="fill:#ee8b94"/>
<path d="" class="polyStyle" id="440400" style="fill:#f6f67b"/>
<path d="" class="polyStyle" id="620000" style="fill:#f6f67b"/>
<path d="" class="polyStyle" id="430000" style="fill:#fbe6ef"/>
<path d="" class="polyStyle" id="420000" style="fill:#ee8b94"/>
<path d="" class="polyStyle" id="410000" style="fill:#f6f67b"/>
<path d="" class="polyStyle" id="350000" style="fill:#fbe6ef"/>
<path d="" class="polyStyle" id="520000" style="fill:#f6f67b"/>
<path d="" class="polyStyle" id="" style="fill:#ee8b94"/>
</svg>
