<?xml version="1.0" encoding="UTF-8"?>
<!DOCTYPE svg PUBLIC "-//W3C//DTD SVG 1.1 Tiny//EN" "http://www.w3.org/Graphics/SVG/1.1/DTD/svg11-tiny.dtd">
<svg version="1.1" xmlns="http://www.w3.org/2000/svg" xmlns:xlink="http://www.w3.org/1999/xlink" width="100%" height="100%" viewBox="0,0,6051,9560">
<title>SVG</title>
<desc>Poligon Test</desc>
<style id="style_css_sheet" type="text/css">
.polyStyle{fill: #cccccc;stroke-width:0;fill-rule:evenodd;}
</style>
<circle cx="2792" cy="6591" r="200" stroke="black" stroke-width="1" fill="red" id="433101"position="4" name="吉首市"/>
<circle cx="3365" cy="3155" r="200" stroke="black" stroke-width="1" fill="red" id="433127" name="永顺县"/>
<circle cx="1306" cy="875" r="200" stroke="black" stroke-width="1" fill="red" id="433130"position="33" name="龙山县"/>
<circle cx="3854" cy="5071" r="200" stroke="black" stroke-width="1" fill="red" id="433126" name="古丈县"/>
<circle cx="2335" cy="4602" r="200" stroke="black" stroke-width="1" fill="red" id="433125" name="保靖县"/>
<circle cx="5193" cy="7065" r="200" stroke="black" stroke-width="1" fill="red" id="433122"position="444" name="泸溪县"/>
<circle cx="1549" cy="5222" r="200" stroke="black" stroke-width="1" fill="red" id="433124"position="4433" name="花垣县"/>
<circle cx="2103" cy="8421" r="200" stroke="black" stroke-width="1" fill="red" id="433123" name="凤凰县"/>
<path d="" class="polyStyle" id="" style="fill:#ee8b94"/>
<path d="" class="polyStyle" id="623022" style="fill:#fbe6ef"/>
<path d="" class="polyStyle" id="211421" style="fill:#f6f67b"/>
<path d="" class="polyStyle" id="532524" style="fill:#ee8b94"/>
<path d="" class="polyStyle" id="440825" style="fill:#f6f67b"/>
<path d="" class="polyStyle" id="441721" style="fill:#f6f67b"/>
<path d="" class="polyStyle" id="450521" style="fill:#f6f67b"/>
<path d="" class="polyStyle" id="450123" style="fill:#fbe6ef"/>
<path d="" class="polyStyle" id="350624" style="fill:#f6f67b"/>
<path d="" class="polyStyle" id="" style="fill:#fbe6ef"/>
<path d="" class="polyStyle" id="451224" style="fill:#fbe6ef"/>
<path d="" class="polyStyle" id="350627" style="fill:#f6f67b"/>
<path d="" class="polyStyle" id="" style="fill:#f6f67b"/>
<path d="" class="polyStyle" id="350525" style="fill:#f6f67b"/>
<path d="" class="polyStyle" id="530124" style="fill:#ee8b94"/>
<path d="" class="polyStyle" id="522627" style="fill:#ee8b94"/>
<path d="" class="polyStyle" id="510421" style="fill:#fbe6ef"/>
<path d="" class="polyStyle" id="522623" style="fill:#d4ecb2"/>
<path d="" class="polyStyle" id="430321" style="fill:#d4ecb2"/>
<polygon points="1787,6567 1774,6575 1762,6584 1757,6600 1755,6631 1734,6660 1700,6680 1690,6724 1689,6751 1693,6779 1695,6806 1708,6832 1743,6850 1744,6879 1776,6889 1787,6916 1749,6947 1723,6959 1691,6972 1691,7010 1703,7039 1731,7059 1758,7075 1738,7103 1731,7142 1738,7175 1745,7200 1777,7224 1806,7226 1833,7210 1868,7196 1896,7193 1921,7198 1940,7227 1966,7217 1995,7204 2028,7178 2056,7156 2061,7127 2087,7113 2112,7113 2140,7113 2166,7094 2193,7094 2219,7070 2227,7044 2259,7037 2289,7008 2304,6981 2344,6961 2372,6953 2404,6946 2430,6955 2450,6982 2477,7013 2487,7039 2490,7064 2481,7090 2516,7104 2539,7138 2535,7164 2554,7193 2574,7222 2573,7254 2568,7284 2573,7310 2580,7338 2592,7355 2580,7356 2551,7348 2519,7357 2482,7378 2467,7404 2463,7418 2424,7448 2403,7494 2398,7530 2429,7548 2460,7565 2461,7591 2432,7622 2432,7667 2402,7677 2402,7697 2425,7702 2445,7702 2480,7702 2514,7698 2540,7690 2569,7676 2599,7664 2625,7662 2658,7681 2685,7688 2711,7671 2732,7645 2761,7643 2791,7657 2812,7640 2877,7652 2892,7674 2903,7676 2932,7693 2946,7725 2971,7736 2997,7743 3032,7746 3067,7762 3067,7788 3065,7815 3086,7845 3117,7877 3117,7912 3104,7937 3083,7972 3059,8008 3036,8014 3000,8027 2975,8026 2941,8031 2901,8040 2873,8047 2843,8045 2812,8044 2786,8037 2758,8038 2746,8066 2771,8084 2769,8113 2749,8143 2748,8172 2756,8186 2765,8216 2732,8243 2704,8244 2679,8271 2665,8305 2673,8330 2693,8358 2692,8394 2656,8406 2629,8435 2594,8455 2567,8467 2541,8467 2505,8488 2484,8515 2454,8547 2420,8555 2386,8578 2372,8609 2372,8635 2335,8630 2301,8623 2272,8609 2245,8613 2246,8645 2220,8667 2213,8698 2212,8733 2212,8765 2237,8770 2263,8773 2290,8772 2280,8799 2309,8815 2318,8845 2299,8875 2311,8906 2336,8940 2339,8966 2315,8998 2284,9012 2240,9007 2214,9018 2200,9048 2228,9075 2191,9094 2160,9099 2144,9135 2123,9160 2091,9159 2082,9134 2054,9133 2028,9142 2001,9127 1976,9111 1942,9127 1932,9153 1904,9154 1888,9180 1857,9218 1827,9232 1800,9224 1790,9191 1762,9169 1768,9134 1763,9099 1735,9107 1706,9094 1673,9120 1669,9152 1643,9158 1624,9132 1598,9152 1572,9169 1546,9196 1519,9220 1491,9221 1481,9194 1492,9169 1488,9143 1463,9135 1437,9136 1410,9138 1385,9160 1367,9186 1377,9211 1396,9237 1402,9264 1405,9290 1379,9313 1354,9330 1335,9356 1323,9383 1314,9409 1267,9445 1241,9466 1225,9500 1185,9518 1163,9535 1150,9532 1130,9530 1110,9532 1094,9558 1068,9560 1032,9536 1010,9530 934,9536 916,9548 912,9538 910,9516 960,9506 974,9488 978,9476 964,9452 906,9444 890,9436 910,9400 910,9380 876,9352 848,9288 796,9292 786,9290 778,9286 768,9272 762,9266 756,9250 754,9242 760,9234 774,9224 792,9212 790,9204 760,9204 792,9158 803,9137 810,9118 820,9084 798,9066 797,9054 797,9047 796,9043 795,9039 794,9033 795,9026 796,9022 798,9018 799,9016 803,9011 806,9007 808,9004 809,9000 811,8995 813,8992 815,8988 820,8985 828,8979 830,8975 832,8962 833,8959 840,8951 842,8949 840,8943 835,8938 832,8937 827,8934 822,8931 788,8919 788,8914 778,8908 748,8892 736,8884 706,8866 704,8862 704,8858 728,8846 746,8844 776,8844 780,8844 793,8834 792,8826 791,8824 789,8821 788,8817 787,8815 780,8810 776,8811 772,8811 769,8814 765,8814 761,8816 754,8814 751,8811 748,8808 746,8805 744,8802 742,8799 740,8796 739,8794 736,8790 730,8786 727,8785 724,8783 720,8784 717,8784 711,8782 704,8776 690,8770 688,8754 696,8710 692,8670 682,8650 640,8614 650,8604 664,8590 670,8574 672,8562 672,8544 650,8518 664,8504 666,8492 632,8416 602,8374 606,8360 630,8348 628,8316 660,8326 683,8314 687,8305 700,8302 706,8300 702,8283 704,8278 710,8275 711,8271 705,8227 709,8223 713,8222 722,8218 727,8210 730,8205 733,8201 735,8198 746,8188 744,8183 760,8174 776,8144 810,8122 820,8120 832,8128 846,8130 882,8128 894,8128 912,8128 913,8125 915,8121 917,8119 917,8116 919,8113 921,8110 922,8107 923,8103 925,8101 926,8098 928,8094 930,8091 931,8089 933,8087 935,8084 936,8081 939,8078 940,8074 942,8071 944,8069 944,8066 947,8063 949,8058 951,8054 953,8051 954,8048 957,8045 959,8042 961,8039 963,8037 966,8033 967,8029 969,8026 971,8023 973,8019 975,8016 976,8013 978,8008 980,8007 982,8003 993,7994 996,7993 998,7991 990,7981 964,7963 954,7943 898,7903 906,7887 898,7883 878,7887 846,7879 832,7859 804,7849 782,7845 774,7849 766,7861 730,7933 720,7953 704,7955 676,7959 646,7961 642,7973 638,8011 626,8015 606,8015 588,8015 584,8011 582,7997 588,7961 606,7895 598,7881 598,7867 618,7861 612,7835 624,7775 648,7757 664,7733 670,7721 652,7693 674,7641 730,7589 736,7577 740,7555 746,7523 750,7513 800,7457 804,7443 802,7425 778,7403 778,7387 782,7375 782,7369 790,7361 826,7343 836,7333 824,7319 806,7287 806,7262 828,7244 855,7231 882,7211 896,7215 914,7231 912,7259 934,7284 952,7296 959,7290 954,7263 964,7246 985,7231 1013,7236 1040,7232 1066,7226 1094,7224 1123,7219 1150,7228 1177,7232 1205,7218 1202,7206 1190,7190 1185,7178 1195,7153 1218,7152 1227,7141 1209,7118 1221,7091 1238,7060 1246,7034 1271,7015 1298,7008 1325,7000 1353,6976 1367,6948 1393,6956 1403,6930 1412,6904 1428,6878 1427,6853 1452,6854 1468,6828 1494,6812 1522,6808 1552,6786 1570,6761 1589,6735 1608,6710 1621,6683 1638,6663 1660,6645 1664,6620 1654,6605 1650,6582 1665,6568 1674,6561 1678,6562 1690,6567 1719,6562 1750,6552 1771,6545 1780,6560 " class="polyStyle" id="433123" style="fill:#d4ecb2"/>
<polygon points="4657,5931 4673,5960 4665,5988 4651,6019 4652,6049 4657,6082 4683,6114 4718,6140 4750,6147 4753,6172 4774,6205 4802,6237 4829,6225 4853,6198 4885,6209 4910,6228 4933,6256 4963,6270 4993,6274 5017,6302 5047,6337 5077,6350 5107,6341 5141,6365 5158,6398 5150,6426 5118,6454 5087,6465 5048,6470 5020,6500 5015,6526 5007,6560 4988,6586 4989,6615 4989,6647 5006,6681 5027,6710 5002,6735 4972,6753 4988,6785 5014,6807 5009,6835 5035,6865 5063,6879 5099,6894 5129,6915 5150,6945 5177,6941 5203,6961 5233,6953 5262,6970 5289,6984 5285,7014 5299,7040 5313,7066 5318,7093 5317,7115 5297,7140 5270,7173 5239,7173 5208,7165 5180,7136 5152,7153 5119,7150 5078,7144 5054,7170 5080,7187 5110,7210 5111,7247 5083,7285 5053,7301 5026,7314 4996,7323 4960,7341 4945,7371 4973,7398 5006,7421 5019,7447 5008,7477 4978,7494 4951,7501 4921,7505 4878,7504 4851,7519 4852,7549 4881,7572 4922,7596 4938,7627 4917,7657 4890,7677 4852,7694 4821,7696 4786,7694 4751,7689 4697,7687 4656,7700 4655,7725 4669,7755 4689,7789 4713,7824 4750,7851 4784,7876 4774,7901 4777,7928 4751,7933 4736,7961 4705,7974 4727,8005 4741,8035 4731,8064 4703,8078 4676,8089 4662,8117 4650,8144 4646,8172 4641,8194 4593,8226 4599,8254 4587,8276 4561,8286 4524,8281 4509,8310 4480,8308 4445,8316 4421,8345 4413,8352 4394,8372 4364,8379 4334,8400 4352,8432 4357,8461 4368,8490 4379,8511 4376,8547 4330,8553 4304,8557 4289,8586 4260,8596 4222,8610 4188,8619 4162,8606 4134,8577 4099,8557 4099,8530 4116,8503 4091,8469 4065,8458 4041,8424 4014,8430 3986,8453 3956,8464 3952,8436 3962,8400 3954,8366 3920,8351 3883,8367 3883,8403 3845,8413 3825,8374 3799,8365 3766,8359 3733,8380 3706,8373 3675,8391 3690,8418 3658,8439 3643,8470 3606,8459 3577,8441 3547,8424 3509,8425 3495,8398 3477,8365 3445,8349 3413,8338 3392,8310 3365,8293 3331,8289 3298,8268 3316,8242 3289,8229 3255,8231 3221,8228 3193,8249 3154,8256 3121,8260 3089,8257 3075,8285 3049,8281 3036,8247 3021,8220 3001,8190 2971,8172 2993,8149 3019,8125 3020,8095 3020,8066 3029,8036 3059,8008 3083,7972 3104,7937 3117,7912 3117,7877 3086,7845 3065,7815 3067,7788 3067,7762 3032,7746 2997,7743 2971,7736 2946,7725 2932,7693 2903,7676 2892,7674 2877,7652 2812,7640 2791,7657 2761,7643 2732,7645 2711,7671 2685,7688 2658,7681 2625,7662 2599,7664 2569,7676 2540,7690 2514,7698 2480,7702 2445,7702 2425,7702 2402,7697 2402,7677 2432,7667 2432,7622 2461,7591 2460,7565 2429,7548 2398,7530 2403,7494 2424,7448 2463,7418 2467,7404 2482,7378 2519,7357 2551,7348 2580,7356 2592,7355 2618,7377 2617,7411 2646,7425 2672,7398 2701,7384 2726,7410 2752,7429 2782,7420 2812,7434 2823,7471 2854,7480 2885,7471 2918,7444 2943,7417 2978,7415 3006,7407 3034,7407 3061,7416 3089,7423 3118,7409 3146,7418 3180,7412 3204,7381 3214,7352 3243,7340 3271,7349 3297,7352 3320,7325 3327,7296 3322,7269 3327,7244 3310,7217 3335,7182 3345,7155 3336,7130 3352,7102 3366,7073 3358,7043 3330,7012 3317,6979 3324,6943 3358,6901 3381,6869 3412,6853 3433,6815 3465,6794 3491,6779 3524,6796 3554,6792 3580,6802 3599,6792 3647,6792 3659,6772 3669,6742 3689,6764 3727,6782 3744,6767 3754,6734 3797,6732 3822,6722 3847,6704 3842,6669 3869,6669 3882,6687 3932,6702 3952,6694 3959,6724 3997,6717 4024,6732 4029,6754 4049,6782 4074,6784 4082,6769 4069,6754 4077,6734 4087,6722 4092,6669 4074,6647 4082,6634 4102,6619 4124,6609 4135,6598 4162,6589 4188,6587 4165,6559 4192,6526 4181,6500 4169,6489 4162,6484 4169,6472 4192,6467 4202,6452 4194,6427 4217,6397 4232,6382 4239,6359 4252,6354 4279,6352 4277,6334 4267,6314 4254,6314 4247,6312 4229,6327 4217,6352 4199,6364 4182,6382 4169,6377 4164,6364 4162,6344 4130,6320 4110,6292 4126,6259 4130,6208 4132,6174 4141,6144 4172,6126 4197,6099 4226,6097 4261,6095 4289,6078 4317,6089 4346,6085 4375,6083 4397,6057 4380,6030 4376,6027 4405,6025 4423,5986 4433,5946 4466,5918 4502,5910 4538,5899 4568,5900 4595,5897 4612,5894 4632,5908 " class="polyStyle" id="433122" style="fill:#fbe6ef"/>
<polygon points="2049,5093 2059,5100 2078,5106 2090,5122 2083,5146 2078,5162 2087,5180 2108,5192 2133,5216 2137,5231 2122,5255 2124,5267 2134,5286 2132,5301 2124,5326 2100,5318 2072,5312 2047,5321 2012,5322 2000,5318 1986,5317 1967,5340 1966,5365 1950,5372 1919,5377 1891,5405 1905,5435 1932,5461 1936,5489 1932,5515 1933,5553 1917,5589 1909,5619 1899,5648 1877,5681 1845,5696 1834,5722 1825,5752 1850,5784 1866,5815 1879,5846 1905,5857 1899,5885 1920,5920 1947,5920 1964,5891 1989,5906 2009,5926 2027,5921 2034,5904 2064,5914 2094,5954 2129,5974 2172,5964 2192,5959 2224,5964 2259,5961 2292,5996 2332,6006 2334,6026 2329,6054 2292,6074 2257,6104 2214,6121 2199,6131 2214,6144 2262,6139 2279,6144 2285,6180 2277,6210 2264,6221 2232,6231 2214,6242 2210,6256 2216,6267 2235,6270 2251,6274 2258,6286 2256,6323 2242,6355 2210,6360 2198,6367 2198,6383 2196,6399 2182,6411 2154,6427 2123,6429 2094,6421 2087,6403 2089,6392 2100,6389 2105,6383 2096,6371 2061,6361 2041,6371 2025,6400 2014,6417 1996,6415 1961,6400 1943,6395 1928,6381 1915,6377 1913,6370 1914,6360 1907,6354 1899,6353 1898,6365 1892,6373 1868,6376 1852,6370 1810,6335 1785,6317 1765,6313 1742,6314 1721,6330 1686,6350 1668,6353 1640,6343 1614,6337 1602,6345 1605,6369 1632,6383 1667,6400 1647,6416 1642,6423 1647,6434 1676,6435 1698,6443 1703,6474 1698,6520 1693,6538 1678,6562 1674,6561 1665,6568 1650,6582 1654,6605 1664,6620 1660,6645 1638,6663 1621,6683 1608,6710 1589,6735 1570,6761 1552,6786 1522,6808 1494,6812 1468,6828 1452,6854 1427,6853 1428,6878 1412,6904 1403,6930 1393,6956 1367,6948 1353,6976 1325,7000 1298,7008 1271,7015 1246,7034 1238,7060 1221,7091 1209,7118 1227,7141 1218,7152 1195,7153 1185,7178 1190,7190 1202,7206 1205,7218 1177,7232 1150,7228 1123,7219 1094,7224 1066,7226 1040,7232 1013,7236 985,7231 964,7246 954,7263 959,7290 952,7296 934,7284 912,7259 914,7231 896,7215 882,7211 855,7231 828,7244 806,7262 796,7217 798,7193 804,7177 806,7165 838,7115 856,7095 894,7059 902,7047 904,7033 900,7023 892,7011 892,6999 918,6981 934,6955 952,6907 950,6901 930,6891 938,6883 966,6867 1018,6841 1084,6819 1092,6807 1090,6799 1086,6797 1050,6805 1036,6797 1020,6791 1000,6793 982,6779 952,6771 950,6774 947,6777 945,6780 939,6785 932,6789 928,6791 908,6808 903,6812 899,6817 895,6821 891,6826 888,6831 885,6834 882,6837 880,6839 877,6840 874,6841 871,6842 854,6843 850,6842 856,6834 856,6828 858,6822 866,6808 870,6800 898,6764 908,6748 910,6738 902,6730 862,6714 816,6690 802,6688 776,6690 766,6702 746,6734 710,6762 638,6790 626,6790 596,6780 574,6768 574,6760 594,6720 598,6706 588,6688 562,6674 548,6674 536,6674 530,6670 530,6662 540,6638 534,6631 528,6632 524,6632 516,6631 515,6629 512,6625 508,6621 505,6620 501,6619 492,6618 488,6617 484,6616 480,6614 477,6613 474,6611 471,6609 471,6605 472,6602 474,6600 475,6596 474,6587 473,6582 471,6577 470,6574 469,6570 469,6565 470,6560 471,6556 475,6552 480,6547 478,6541 475,6540 472,6541 468,6542 462,6541 458,6539 456,6537 453,6533 453,6530 452,6524 450,6520 449,6515 447,6510 446,6503 447,6489 448,6483 449,6479 448,6474 451,6470 452,6467 453,6464 454,6460 456,6455 457,6450 459,6446 460,6443 461,6440 462,6438 463,6434 466,6429 468,6425 470,6422 473,6419 479,6412 486,6407 491,6402 493,6398 495,6395 498,6392 500,6390 517,6375 520,6372 522,6369 524,6366 526,6363 528,6360 530,6357 532,6354 533,6350 535,6347 537,6344 538,6339 540,6335 541,6331 540,6304 539,6298 539,6294 539,6287 533,6284 530,6282 527,6281 523,6280 520,6280 515,6279 511,6278 507,6277 503,6277 498,6276 494,6275 490,6274 487,6274 484,6272 481,6269 482,6263 483,6260 481,6257 481,6255 479,6252 475,6249 471,6246 468,6245 464,6243 461,6243 457,6241 452,6240 449,6238 446,6236 443,6232 439,6228 436,6223 433,6220 431,6216 429,6212 428,6207 428,6204 429,6185 429,6178 429,6174 427,6170 425,6166 423,6163 421,6160 421,6145 421,6142 419,6137 418,6133 416,6130 415,6128 412,6124 410,6120 408,6117 407,6115 406,6110 406,6104 405,6095 404,6087 403,6079 403,6070 402,6063 401,6051 401,6042 401,6037 400,6034 399,6026 400,6013 398,5998 397,5992 396,5988 395,5985 394,5981 394,5978 393,5972 392,5965 391,5957 391,5943 392,5933 392,5925 393,5921 395,5917 397,5909 398,5907 399,5904 401,5901 403,5897 406,5894 408,5890 411,5887 412,5884 414,5881 414,5875 412,5871 410,5867 407,5864 406,5862 404,5859 403,5857 401,5853 400,5848 400,5842 400,5826 401,5821 402,5818 403,5813 405,5809 406,5806 407,5803 409,5801 411,5798 413,5796 416,5791 417,5784 417,5780 418,5776 419,5769 420,5765 420,5761 422,5758 424,5753 425,5750 428,5747 437,5740 441,5738 444,5736 446,5734 451,5734 457,5734 461,5735 465,5736 468,5737 471,5738 477,5738 477,5735 476,5732 475,5730 471,5726 468,5723 468,5720 469,5717 469,5714 470,5709 472,5706 473,5702 474,5699 472,5695 472,5692 472,5685 472,5678 471,5674 471,5667 470,5661 469,5658 469,5653 470,5649 469,5638 468,5633 466,5628 465,5624 464,5621 463,5615 462,5612 463,5599 465,5597 465,5594 470,5590 472,5588 474,5587 478,5584 483,5581 488,5578 491,5575 496,5570 497,5567 499,5565 498,5560 497,5557 496,5554 494,5551 491,5549 485,5544 480,5540 476,5535 473,5531 469,5525 467,5521 465,5518 464,5514 463,5508 464,5501 465,5492 466,5487 468,5482 470,5479 471,5475 473,5472 476,5468 478,5466 480,5463 483,5461 486,5459 490,5456 493,5454 496,5452 500,5450 503,5449 505,5448 510,5445 516,5443 520,5441 523,5440 527,5439 533,5434 536,5431 537,5428 539,5425 541,5423 541,5420 542,5416 544,5414 545,5411 546,5408 547,5406 548,5403 550,5400 551,5396 554,5393 556,5388 559,5385 562,5383 563,5378 565,5375 567,5371 569,5369 569,5366 570,5363 571,5354 572,5338 573,5333 574,5330 575,5325 577,5320 579,5317 584,5312 585,5308 588,5307 595,5300 596,5297 597,5294 598,5288 599,5285 600,5281 602,5278 602,5275 603,5272 606,5269 609,5267 612,5265 618,5262 623,5261 627,5261 639,5261 648,5262 659,5263 665,5262 671,5261 674,5260 676,5259 680,5257 686,5255 691,5255 695,5256 698,5257 718,5284 739,5309 748,5334 730,5360 729,5371 739,5370 755,5358 780,5350 796,5376 811,5373 827,5358 846,5353 852,5369 860,5375 869,5376 877,5358 902,5350 926,5323 942,5304 940,5291 933,5266 925,5240 951,5234 978,5232 1004,5223 1018,5217 1019,5196 1032,5181 1046,5176 1072,5167 1102,5164 1128,5158 1154,5153 1179,5152 1204,5163 1226,5191 1252,5188 1294,5182 1321,5188 1346,5196 1375,5213 1401,5216 1428,5192 1454,5167 1481,5176 1487,5194 1499,5196 1506,5191 1533,5205 1561,5190 1586,5168 1611,5155 1625,5135 1636,5132 1667,5112 1697,5094 1727,5082 1759,5078 1790,5069 1825,5046 1851,5044 1857,5047 1888,5046 1919,5048 1958,5047 1985,5047 2007,5038 2030,5038 2042,5063 " class="polyStyle" id="433124" style="fill:#f6f67b"/>
<polygon points="3474,4339 3512,4363 3529,4394 3563,4426 3587,4451 3624,4463 3649,4458 3680,4442 3718,4423 3751,4416 3784,4435 3814,4463 3853,4489 3884,4503 3910,4515 3936,4543 3965,4569 3995,4595 4021,4606 4046,4612 4077,4610 4109,4600 4137,4587 4175,4583 4206,4562 4208,4530 4210,4504 4218,4472 4248,4458 4284,4462 4315,4458 4337,4430 4367,4403 4396,4393 4429,4380 4466,4370 4495,4374 4524,4386 4566,4401 4599,4414 4626,4430 4654,4446 4684,4466 4718,4490 4750,4519 4782,4541 4812,4552 4842,4560 4867,4564 4903,4567 4931,4566 4967,4561 5010,4550 5046,4543 5082,4547 5109,4556 5143,4574 5169,4590 5197,4609 5225,4623 5258,4635 5284,4637 5310,4631 5339,4617 5375,4597 5408,4587 5439,4587 5471,4580 5466,4614 5456,4650 5459,4678 5463,4710 5457,4737 5451,4770 5449,4800 5420,4798 5379,4804 5364,4841 5342,4867 5314,4878 5313,4904 5296,4936 5269,4919 5241,4892 5208,4908 5190,4940 5183,4974 5162,5012 5163,5042 5188,5049 5226,5063 5248,5089 5219,5096 5222,5126 5230,5155 5246,5185 5248,5211 5257,5237 5263,5264 5280,5292 5261,5317 5231,5334 5206,5340 5175,5334 5150,5314 5123,5278 5099,5285 5096,5279 5075,5276 5051,5281 5044,5277 5038,5270 5034,5256 5033,5246 5022,5239 5018,5236 4996,5229 4980,5229 4959,5239 4937,5272 4951,5305 4924,5327 4930,5359 4930,5390 4922,5418 4932,5450 4921,5489 4889,5491 4850,5516 4853,5545 4849,5576 4845,5615 4846,5641 4852,5676 4842,5717 4844,5743 4855,5768 4877,5797 4907,5810 4900,5837 4873,5855 4844,5862 4817,5870 4791,5893 4779,5924 4753,5919 4726,5910 4737,5884 4732,5855 4699,5848 4667,5845 4636,5842 4622,5868 4612,5894 4595,5897 4568,5900 4538,5899 4502,5910 4466,5918 4433,5946 4423,5986 4405,6025 4376,6027 4396,5998 4378,5962 4334,5942 4303,5941 4276,5951 4253,5978 4209,5979 4169,5982 4140,5987 4110,5988 4084,5981 4059,6012 4034,6020 4012,6047 4000,6073 3967,6098 3932,6112 3895,6136 3862,6142 3834,6133 3801,6151 3768,6164 3740,6168 3709,6170 3683,6162 3656,6170 3630,6139 3603,6126 3570,6138 3543,6127 3525,6099 3519,6072 3529,6045 3537,6018 3554,5989 3577,5974 3574,5947 3559,5932 3554,5909 3522,5917 3499,5934 3474,5957 3444,5969 3444,5944 3444,5909 3467,5902 3469,5892 3462,5859 3457,5834 3447,5817 3417,5832 3372,5837 3349,5827 3332,5832 3315,5843 3289,5847 3269,5815 3241,5802 3217,5791 3226,5761 3241,5733 3252,5705 3250,5673 3218,5661 3185,5657 3160,5666 3134,5666 3117,5640 3091,5638 3052,5608 3040,5582 3037,5554 3044,5528 3064,5502 3071,5474 3096,5452 3126,5414 3151,5385 3156,5358 3155,5319 3159,5289 3192,5262 3217,5243 3237,5217 3230,5184 3238,5152 3268,5126 3277,5114 3274,5096 3252,5071 3197,5041 3172,5031 3159,5014 3172,4994 3162,4964 3144,4941 3109,4919 3054,4921 3012,4944 2969,4964 2932,4964 2892,4911 2882,4889 2894,4876 2899,4844 2907,4821 2899,4806 2874,4796 2864,4789 2869,4771 2877,4756 2899,4734 2917,4709 2929,4689 2927,4674 2922,4649 2944,4624 2974,4599 2990,4588 3013,4560 2990,4530 2965,4517 2984,4512 3025,4484 3043,4457 3073,4441 3110,4424 3140,4413 3166,4402 3204,4380 3236,4362 3269,4342 3302,4336 3332,4342 3365,4337 3394,4328 3420,4328 3449,4331 " class="polyStyle" id="433126" style="fill:#d4ecb2"/>
<polygon points="2124,3619 2157,3638 2187,3641 2221,3639 2247,3648 2272,3660 2300,3671 2326,3669 2351,3695 2380,3703 2407,3710 2434,3699 2468,3694 2497,3687 2521,3712 2515,3741 2520,3769 2504,3796 2504,3824 2477,3842 2499,3869 2512,3887 2544,3904 2585,3944 2617,3942 2638,3954 2629,3995 2619,4021 2609,4040 2611,4073 2637,4102 2679,4137 2705,4141 2747,4144 2756,4190 2774,4227 2785,4256 2769,4284 2750,4318 2724,4330 2692,4337 2664,4348 2650,4376 2675,4399 2709,4431 2704,4463 2694,4496 2720,4496 2747,4489 2776,4504 2807,4523 2839,4533 2869,4532 2904,4525 2931,4520 2965,4517 2990,4530 3013,4560 2990,4588 2974,4599 2944,4624 2922,4649 2927,4674 2929,4689 2917,4709 2899,4734 2877,4756 2869,4771 2864,4789 2874,4796 2899,4806 2907,4821 2899,4844 2894,4876 2882,4889 2892,4911 2932,4964 2969,4964 3012,4944 3054,4921 3109,4919 3144,4941 3162,4964 3172,4994 3159,5014 3172,5031 3197,5041 3252,5071 3274,5096 3277,5114 3268,5126 3238,5152 3230,5184 3237,5217 3217,5243 3192,5262 3159,5289 3155,5319 3156,5358 3151,5385 3126,5414 3096,5452 3071,5474 3064,5502 3044,5528 3037,5554 3040,5582 3052,5608 3091,5638 3117,5640 3134,5666 3160,5666 3185,5657 3218,5661 3250,5673 3252,5705 3241,5733 3226,5761 3217,5791 3192,5801 3159,5809 3132,5819 3129,5845 3112,5877 3081,5899 3052,5929 3059,5964 3048,5983 3016,5989 2989,5977 2962,5980 2936,5985 2905,5988 2868,5985 2832,5977 2794,5986 2764,5991 2733,5996 2703,6017 2671,6021 2637,6010 2607,6019 2577,6047 2549,6060 2515,6072 2477,6085 2443,6094 2414,6105 2388,6108 2361,6129 2329,6154 2290,6165 2285,6180 2279,6144 2262,6139 2214,6144 2199,6131 2214,6121 2257,6104 2292,6074 2329,6054 2334,6026 2332,6006 2292,5996 2259,5961 2224,5964 2192,5959 2172,5964 2129,5974 2094,5954 2064,5914 2034,5904 2027,5921 2009,5926 1989,5906 1964,5891 1947,5920 1920,5920 1899,5885 1905,5857 1879,5846 1866,5815 1850,5784 1825,5752 1834,5722 1845,5696 1877,5681 1899,5648 1909,5619 1917,5589 1933,5553 1932,5515 1936,5489 1932,5461 1905,5435 1891,5405 1919,5377 1950,5372 1966,5365 1967,5340 1986,5317 2000,5318 2012,5322 2047,5321 2072,5312 2100,5318 2124,5326 2132,5301 2134,5286 2124,5267 2122,5255 2137,5231 2133,5216 2108,5192 2087,5180 2078,5162 2083,5146 2090,5122 2078,5106 2059,5100 2049,5093 2042,5063 2030,5038 2007,5038 1985,5047 1958,5047 1919,5048 1888,5046 1857,5047 1851,5044 1825,5046 1790,5069 1759,5078 1727,5082 1697,5094 1667,5112 1636,5132 1625,5135 1611,5155 1586,5168 1561,5190 1533,5205 1506,5191 1499,5196 1487,5194 1481,5176 1454,5167 1428,5192 1401,5216 1375,5213 1346,5196 1321,5188 1294,5182 1252,5188 1226,5191 1204,5163 1179,5152 1154,5153 1128,5158 1102,5164 1072,5167 1046,5176 1032,5181 1019,5196 1018,5217 1004,5223 978,5232 951,5234 925,5240 933,5266 940,5291 942,5304 926,5323 902,5350 877,5358 869,5376 860,5375 852,5369 846,5353 827,5358 811,5373 796,5376 780,5350 755,5358 739,5370 729,5371 730,5360 748,5334 739,5309 718,5284 698,5257 699,5247 698,5244 699,5236 700,5234 699,5230 696,5228 690,5227 686,5227 682,5226 678,5224 676,5224 669,5216 666,5214 664,5210 662,5208 661,5205 659,5202 658,5199 658,5196 657,5193 656,5189 655,5185 654,5181 653,5177 653,5172 648,5168 642,5163 639,5160 633,5155 630,5151 629,5149 627,5146 628,5137 629,5134 630,5131 631,5128 634,5126 635,5123 639,5118 641,5116 642,5113 644,5110 643,5098 641,5093 639,5089 637,5086 635,5083 632,5080 630,5076 628,5073 627,5070 626,5055 625,5050 623,5043 619,5039 616,5035 608,5030 603,5027 599,5026 596,5025 591,5025 581,5025 577,5024 573,5024 569,5019 561,5013 559,5012 556,5011 545,5010 538,5010 533,5023 520,5036 512,5050 488,5082 484,5090 476,5094 430,5108 416,5116 392,5126 382,5126 374,5126 353,5124 332,5104 308,5082 296,5068 288,5058 278,5052 270,5052 260,5054 249,5063 244,5068 238,5074 230,5082 210,5098 198,5102 190,5108 184,5110 165,5120 144,5134 134,5144 128,5152 110,5168 102,5169 96,5168 96,5164 92,5154 86,5138 80,5132 64,5126 48,5120 38,5106 40,5094 54,5084 54,5070 40,5066 24,5078 14,5078 4,5066 0,5056 1,5051 28,5034 38,5032 42,5028 50,5014 52,4998 60,4984 70,4972 86,4972 114,4982 174,4924 212,4904 230,4898 248,4898 272,4896 300,4882 320,4872 362,4852 386,4842 422,4832 444,4822 460,4806 460,4802 454,4780 440,4768 430,4760 416,4748 410,4746 390,4746 380,4742 372,4732 364,4710 362,4702 370,4694 396,4672 412,4658 424,4656 428,4656 448,4666 456,4664 462,4658 518,4598 540,4584 552,4578 566,4570 577,4561 582,4554 566,4548 546,4538 540,4526 542,4520 550,4508 568,4496 578,4486 598,4468 606,4462 604,4458 600,4446 590,4424 584,4418 580,4416 566,4414 556,4414 542,4416 524,4414 510,4412 490,4406 482,4398 480,4374 465,4359 458,4356 437,4349 417,4340 411,4340 403,4337 396,4335 374,4329 368,4323 372,4313 380,4307 390,4301 404,4291 406,4286 438,4307 446,4314 461,4313 471,4302 496,4276 527,4267 558,4278 585,4269 604,4244 618,4218 632,4193 658,4182 684,4184 709,4207 713,4223 720,4233 733,4241 748,4241 775,4240 810,4239 840,4241 866,4247 891,4251 927,4252 953,4238 980,4216 1005,4196 1013,4169 1007,4141 1011,4114 1038,4091 1057,4066 1070,4040 1082,4015 1099,3989 1114,3964 1142,3937 1171,3916 1200,3898 1228,3892 1250,3879 1275,3852 1304,3824 1335,3832 1345,3859 1366,3889 1392,3885 1422,3879 1448,3893 1475,3910 1501,3912 1505,3883 1481,3857 1509,3854 1535,3868 1560,3861 1585,3854 1606,3881 1624,3891 1650,3907 1682,3928 1702,3959 1734,3969 1764,3991 1798,4017 1824,4013 1842,3983 1851,3956 1858,3929 1876,3899 1889,3872 1903,3841 1914,3812 1924,3786 1932,3758 1958,3736 1978,3709 1989,3684 2006,3655 2035,3626 2054,3598 2060,3590 2098,3605 " class="polyStyle" id="433125" style="fill:#fbe6ef"/>
<path d="" class="polyStyle" id="511129" style="fill:#d4ecb2"/>
<polygon points="2195,6 2291,36 2323,44 2353,56 2365,62 2357,70 2349,88 2351,104 2395,162 2417,168 2435,160 2455,140 2473,140 2497,154 2517,154 2523,152 2527,150 2553,130 2577,128 2621,128 2657,114 2663,110 2674,95 2708,117 2737,120 2777,106 2804,89 2834,85 2867,85 2906,85 2935,101 2944,127 2929,154 2922,184 2934,210 2959,235 2986,245 3009,271 2979,299 2940,325 2906,346 2880,366 2852,389 2838,417 2810,414 2783,433 2783,465 2804,491 2819,522 2835,554 2856,602 2884,634 2911,648 2937,673 2943,699 2971,710 2994,745 2995,772 3018,809 3040,842 3072,880 3098,907 3113,934 3109,959 3135,985 3140,1016 3110,1035 3086,1063 3060,1085 3088,1104 3120,1135 3158,1182 3186,1205 3218,1246 3238,1281 3243,1292 3213,1311 3183,1334 3128,1370 3098,1389 3064,1414 3029,1444 2991,1475 2955,1503 2973,1535 3004,1563 3016,1588 3027,1617 2998,1645 2980,1678 2954,1701 2930,1730 2898,1763 2876,1792 2849,1815 2819,1836 2792,1847 2764,1863 2735,1865 2701,1865 2668,1857 2643,1874 2637,1903 2603,1916 2575,1898 2549,1908 2513,1939 2483,1969 2443,2009 2425,2035 2416,2067 2416,2099 2412,2133 2405,2159 2396,2196 2384,2237 2374,2267 2381,2302 2378,2332 2375,2366 2364,2393 2356,2441 2351,2468 2347,2498 2342,2538 2311,2567 2282,2597 2275,2626 2271,2655 2269,2683 2267,2710 2268,2741 2267,2772 2267,2803 2272,2838 2276,2864 2275,2894 2266,2923 2267,2954 2269,2980 2258,3012 2260,3042 2254,3072 2227,3107 2228,3132 2237,3164 2238,3172 2232,3198 2222,3227 2201,3260 2187,3292 2168,3317 2172,3344 2159,3373 2146,3406 2137,3432 2131,3459 2113,3493 2097,3526 2080,3558 2063,3586 2060,3590 2054,3598 2035,3626 2006,3655 1989,3684 1978,3709 1958,3736 1932,3758 1924,3786 1914,3812 1903,3841 1889,3872 1876,3899 1858,3929 1851,3956 1842,3983 1824,4013 1798,4017 1764,3991 1734,3969 1702,3959 1682,3928 1650,3907 1624,3891 1606,3881 1585,3854 1560,3861 1535,3868 1509,3854 1481,3857 1505,3883 1501,3912 1475,3910 1448,3893 1422,3879 1392,3885 1366,3889 1345,3859 1335,3832 1304,3824 1275,3852 1250,3879 1228,3892 1200,3898 1171,3916 1142,3937 1114,3964 1099,3989 1082,4015 1070,4040 1057,4066 1038,4091 1011,4114 1007,4141 1013,4169 1005,4196 980,4216 953,4238 927,4252 891,4251 866,4247 840,4241 810,4239 775,4240 748,4241 733,4241 720,4233 713,4223 709,4207 684,4184 658,4182 632,4193 618,4218 604,4244 585,4269 558,4278 527,4267 496,4276 471,4302 461,4313 446,4314 438,4307 406,4286 408,4281 396,4279 382,4276 370,4276 362,4278 346,4279 334,4279 320,4277 313,4276 306,4273 300,4267 296,4265 296,4259 294,4253 296,4245 296,4231 298,4223 300,4207 308,4187 326,4167 332,4159 334,4155 334,4141 330,4125 330,4105 328,4087 320,4079 314,4075 308,4067 306,4063 300,4053 296,4037 294,4027 294,4015 298,4007 302,3995 306,3975 304,3965 306,3947 308,3937 310,3925 314,3905 314,3893 316,3887 316,3877 298,3855 282,3843 276,3831 272,3819 272,3815 272,3803 272,3779 274,3763 275,3757 278,3744 278,3739 280,3735 286,3715 290,3711 296,3703 314,3689 336,3663 344,3653 352,3639 362,3631 378,3631 388,3629 386,3609 380,3583 380,3565 380,3557 378,3543 378,3535 378,3521 380,3497 384,3475 390,3451 398,3431 402,3407 406,3385 416,3361 422,3349 432,3337 444,3323 452,3315 476,3303 500,3291 506,3289 520,3289 532,3277 538,3265 540,3255 550,3239 554,3231 556,3215 560,3183 560,3177 556,3159 560,3131 560,3121 562,3095 566,3077 574,3069 580,3065 586,3063 608,3063 614,3061 630,3041 644,3021 656,2985 660,2981 672,2973 694,2963 704,2953 706,2941 698,2925 690,2907 684,2895 670,2869 658,2847 646,2825 628,2807 609,2806 592,2805 570,2815 560,2815 546,2811 530,2803 494,2787 450,2771 440,2769 414,2759 400,2753 396,2747 394,2737 394,2733 390,2729 384,2727 370,2723 362,2723 346,2727 332,2735 322,2737 302,2735 278,2729 272,2721 270,2711 260,2671 248,2645 242,2633 240,2621 228,2593 230,2587 240,2583 242,2583 254,2583 272,2589 285,2590 297,2590 331,2584 349,2570 365,2554 381,2548 401,2548 433,2556 449,2560 471,2558 477,2558 489,2554 489,2548 475,2524 473,2504 477,2488 477,2476 471,2474 465,2472 457,2468 445,2464 427,2454 413,2434 407,2414 407,2410 427,2402 433,2376 409,2362 413,2348 425,2330 439,2316 457,2300 475,2274 495,2226 469,2210 487,2180 473,2156 441,2130 429,2114 439,2074 433,2060 415,2046 425,2036 435,2024 443,2014 461,2022 469,2020 485,2010 507,2002 521,1992 523,1988 525,1978 527,1952 537,1942 563,1930 577,1926 591,1924 607,1930 623,1928 657,1912 669,1902 676,1893 685,1886 690,1882 703,1873 716,1866 720,1864 740,1847 748,1842 755,1835 762,1827 780,1813 786,1810 792,1805 807,1792 809,1788 815,1778 817,1776 823,1769 838,1759 845,1753 851,1746 854,1737 854,1733 855,1729 856,1724 872,1714 884,1700 884,1692 880,1680 870,1662 856,1638 846,1634 782,1602 780,1598 780,1586 784,1582 812,1574 820,1566 820,1560 822,1528 820,1524 814,1518 756,1492 746,1480 750,1470 796,1448 818,1432 820,1408 814,1388 800,1370 788,1352 784,1340 786,1334 790,1326 802,1316 836,1286 868,1268 940,1242 948,1246 966,1270 984,1284 1010,1292 1030,1294 1052,1294 1057,1293 1055,1288 1053,1283 1043,1273 1041,1270 1040,1267 1038,1263 1029,1256 1015,1251 1010,1246 1008,1242 1008,1237 1010,1233 1011,1229 1013,1228 1017,1218 1019,1214 1019,1210 1020,1203 1020,1199 1019,1192 1013,1181 1009,1177 1007,1173 997,1162 992,1155 991,1150 988,1144 979,1134 968,1122 957,1114 946,1109 943,1099 942,1092 943,1088 944,1083 945,1080 946,1076 947,1073 953,1059 957,1051 958,1047 962,1042 965,1038 967,1035 979,1026 982,1024 996,1017 1002,1015 1008,1011 1012,1010 1015,1008 1019,1006 1025,999 1030,989 1036,980 1038,977 1042,973 1046,971 1055,967 1064,964 1071,966 1081,970 1091,974 1097,978 1110,986 1116,989 1122,990 1125,987 1127,983 1128,980 1128,973 1129,970 1129,957 1126,953 1114,942 1113,934 1120,929 1132,924 1135,922 1147,912 1153,908 1156,908 1163,911 1175,919 1181,918 1187,912 1188,908 1189,902 1188,899 1187,896 1185,890 1179,884 1163,873 1156,869 1144,859 1139,852 1133,841 1129,832 1128,829 1126,823 1126,814 1127,811 1129,807 1135,798 1144,788 1150,781 1155,770 1157,765 1160,756 1161,748 1160,740 1155,729 1153,723 1152,720 1150,710 1152,706 1156,700 1158,697 1165,690 1168,686 1170,681 1172,680 1174,677 1180,672 1196,668 1199,669 1210,679 1219,684 1231,692 1247,701 1258,708 1271,712 1278,713 1284,712 1289,709 1296,703 1299,698 1300,692 1296,684 1289,676 1278,665 1261,647 1259,642 1258,635 1257,624 1256,616 1255,607 1256,601 1255,597 1255,589 1256,584 1257,581 1258,575 1257,570 1252,560 1248,550 1247,544 1246,541 1246,537 1246,534 1246,531 1247,527 1249,522 1252,519 1257,514 1265,510 1271,508 1278,509 1288,513 1298,515 1307,514 1314,513 1318,513 1325,514 1328,516 1330,521 1332,527 1334,531 1335,535 1338,546 1338,550 1340,557 1341,561 1346,565 1350,566 1357,567 1364,570 1376,580 1384,587 1393,594 1399,596 1407,598 1410,597 1413,596 1418,590 1420,582 1420,572 1414,559 1409,549 1402,536 1397,525 1395,518 1391,508 1390,497 1389,489 1388,473 1389,459 1390,453 1391,448 1392,443 1393,438 1394,435 1395,431 1396,425 1400,414 1402,406 1404,402 1405,400 1408,393 1410,388 1415,379 1424,371 1430,365 1436,363 1441,365 1447,373 1454,378 1465,380 1470,384 1473,386 1477,389 1483,395 1492,398 1499,399 1511,398 1518,398 1531,396 1542,393 1545,391 1549,387 1550,382 1552,377 1552,374 1555,344 1557,328 1597,320 1589,286 1605,260 1627,242 1631,232 1631,224 1575,172 1573,162 1573,152 1581,142 1589,138 1605,138 1615,142 1655,156 1671,160 1674,160 1681,159 1688,150 1692,141 1699,131 1700,128 1703,124 1714,117 1717,116 1722,110 1721,107 1714,103 1703,98 1693,92 1683,83 1675,73 1672,67 1670,62 1670,55 1669,52 1668,48 1669,45 1673,35 1682,32 1693,29 1701,27 1705,27 1712,28 1720,30 1724,27 1732,26 1735,29 1742,31 1748,36 1750,41 1757,64 1759,86 1795,90 1839,100 1879,104 1939,98 1955,66 1993,62 1969,34 1977,14 1991,8 2043,4 2069,2 2073,2 2109,0 2121,0 2159,2 " class="polyStyle" id="433130" style="fill:#ee8b94"/>
<path d="" class="polyStyle" id="511423" style="fill:#ee8b94"/>
<path d="" class="polyStyle" id="421023" style="fill:#f6f67b"/>
<path d="" class="polyStyle" id="511724" style="fill:#f6f67b"/>
<path d="" class="polyStyle" id="420526" style="fill:#fbe6ef"/>
<path d="" class="polyStyle" id="511923" style="fill:#fbe6ef"/>
<path d="" class="polyStyle" id="420325" style="fill:#fbe6ef"/>
<path d="" class="polyStyle" id="511921" style="fill:#f6f67b"/>
<path d="" class="polyStyle" id="542525" style="fill:#f6f67b"/>
<path d="" class="polyStyle" id="611026" style="fill:#ee8b94"/>
<path d="" class="polyStyle" id="411023" style="fill:#fbe6ef"/>
<path d="" class="polyStyle" id="632323" style="fill:#f6f67b"/>
<path d="" class="polyStyle" id="140525" style="fill:#d4ecb2"/>
<path d="" class="polyStyle" id="410922" style="fill:#ee8b94"/>
<path d="" class="polyStyle" id="621027" style="fill:#ee8b94"/>
<path d="" class="polyStyle" id="130427" style="fill:#f6f67b"/>
<path d="" class="polyStyle" id="130121" style="fill:#ee8b94"/>
<path d="" class="polyStyle" id="610823" style="fill:#fbe6ef"/>
<path d="" class="polyStyle" id="130225" style="fill:#fbe6ef"/>
<path d="" class="polyStyle" id="130322" style="fill:#d4ecb2"/>
<path d="" class="polyStyle" id="653130" style="fill:#f6f67b"/>
<path d="" class="polyStyle" id="130822" style="fill:#fbe6ef"/>
<path d="" class="polyStyle" id="211221" style="fill:#f6f67b"/>
<path d="" class="polyStyle" id="210921" style="fill:#f6f67b"/>
<path d="" class="polyStyle" id="150223" style="fill:#f8c67d"/>
<path d="" class="polyStyle" id="220422" style="fill:#d4ecb2"/>
<path d="" class="polyStyle" id="340721" style="fill:#f6f67b"/>
<path d="" class="polyStyle" id="510824" style="fill:#d4ecb2"/>
<path d="" class="polyStyle" id="610324" style="fill:#f6f67b"/>
<polygon points="4652,1767 4644,1794 4629,1827 4614,1849 4597,1873 4594,1904 4595,1954 4569,1950 4501,1914 4495,1942 4504,1971 4497,1984 4489,2017 4449,2037 4429,2064 4439,2092 4459,2114 4432,2144 4442,2182 4477,2207 4484,2229 4492,2237 4508,2282 4515,2317 4526,2357 4532,2387 4547,2412 4568,2446 4595,2461 4621,2448 4648,2448 4677,2437 4707,2428 4737,2417 4767,2413 4792,2418 4823,2424 4848,2414 4860,2386 4865,2362 4850,2359 4870,2352 4887,2357 4935,2357 4960,2374 4947,2392 4937,2399 4957,2412 4987,2412 5007,2384 5047,2357 5069,2348 5084,2342 5094,2343 5101,2345 5108,2349 5113,2353 5116,2358 5121,2368 5124,2376 5125,2382 5126,2390 5126,2393 5127,2403 5128,2407 5141,2418 5150,2428 5154,2434 5156,2437 5159,2441 5165,2452 5169,2458 5174,2467 5178,2471 5183,2473 5189,2472 5193,2469 5201,2466 5208,2466 5213,2466 5218,2468 5219,2472 5216,2477 5214,2480 5201,2493 5191,2502 5186,2507 5183,2511 5181,2522 5182,2525 5186,2528 5191,2529 5207,2527 5219,2525 5227,2523 5242,2524 5257,2527 5269,2531 5281,2535 5290,2540 5294,2541 5297,2542 5305,2543 5345,2543 5348,2542 5354,2543 5365,2545 5384,2548 5395,2553 5407,2561 5409,2565 5415,2574 5417,2582 5418,2588 5417,2602 5415,2608 5412,2617 5409,2624 5404,2627 5403,2630 5396,2638 5382,2652 5362,2668 5358,2672 5351,2686 5348,2695 5347,2699 5346,2702 5344,2709 5343,2715 5343,2720 5343,2726 5342,2732 5342,2739 5343,2743 5342,2746 5342,2752 5342,2759 5343,2762 5346,2768 5353,2774 5364,2780 5378,2789 5382,2793 5388,2799 5400,2803 5408,2804 5415,2803 5423,2802 5437,2799 5444,2796 5454,2791 5465,2782 5472,2773 5481,2759 5490,2748 5498,2741 5507,2734 5519,2728 5527,2725 5539,2723 5547,2724 5558,2725 5566,2723 5575,2718 5578,2714 5583,2710 5595,2705 5621,2720 5621,2755 5626,2790 5644,2825 5673,2825 5706,2852 5680,2874 5649,2895 5620,2925 5604,2957 5631,2982 5661,3005 5703,3036 5729,3057 5760,3080 5802,3111 5794,3143 5778,3173 5766,3203 5744,3232 5741,3265 5710,3286 5693,3315 5670,3341 5639,3356 5630,3385 5632,3411 5642,3442 5669,3465 5695,3466 5724,3454 5757,3453 5782,3461 5810,3474 5847,3490 5884,3510 5914,3540 5925,3569 5920,3595 5918,3627 5899,3652 5889,3682 5909,3709 5939,3714 5975,3722 6008,3727 6038,3744 6048,3754 6048,3767 6047,3817 6050,3859 6051,3864 6038,3872 6010,3879 5987,3883 5967,3893 5956,3907 5953,3923 5941,3925 5928,3929 5920,3933 5914,3939 5902,3956 5901,3959 5869,3997 5844,4028 5819,4061 5797,4091 5779,4120 5774,4147 5780,4186 5795,4211 5807,4241 5798,4273 5784,4310 5762,4335 5734,4359 5702,4367 5668,4371 5640,4372 5614,4363 5578,4339 5548,4321 5521,4332 5513,4360 5511,4395 5523,4427 5522,4462 5513,4494 5495,4520 5490,4548 5471,4580 5439,4587 5408,4587 5375,4597 5339,4617 5310,4631 5284,4637 5258,4635 5225,4623 5197,4609 5169,4590 5143,4574 5109,4556 5082,4547 5046,4543 5010,4550 4967,4561 4931,4566 4903,4567 4867,4564 4842,4560 4812,4552 4782,4541 4750,4519 4718,4490 4684,4466 4654,4446 4626,4430 4599,4414 4566,4401 4524,4386 4495,4374 4466,4370 4429,4380 4396,4393 4367,4403 4337,4430 4315,4458 4284,4462 4248,4458 4218,4472 4210,4504 4208,4530 4206,4562 4175,4583 4137,4587 4109,4600 4077,4610 4046,4612 4021,4606 3995,4595 3965,4569 3936,4543 3910,4515 3884,4503 3853,4489 3814,4463 3784,4435 3751,4416 3718,4423 3680,4442 3649,4458 3624,4463 3587,4451 3563,4426 3529,4394 3512,4363 3474,4339 3449,4331 3420,4328 3394,4328 3365,4337 3332,4342 3302,4336 3269,4342 3236,4362 3204,4380 3166,4402 3140,4413 3110,4424 3073,4441 3043,4457 3025,4484 2984,4512 2965,4517 2931,4520 2904,4525 2869,4532 2839,4533 2807,4523 2776,4504 2747,4489 2720,4496 2694,4496 2704,4463 2709,4431 2675,4399 2650,4376 2664,4348 2692,4337 2724,4330 2750,4318 2769,4284 2785,4256 2774,4227 2756,4190 2747,4144 2705,4141 2679,4137 2637,4102 2611,4073 2609,4040 2619,4021 2629,3995 2638,3954 2617,3942 2585,3944 2544,3904 2512,3887 2499,3869 2477,3842 2504,3824 2504,3796 2520,3769 2515,3741 2521,3712 2497,3687 2468,3694 2434,3699 2407,3710 2380,3703 2351,3695 2326,3669 2300,3671 2272,3660 2247,3648 2221,3639 2187,3641 2157,3638 2124,3619 2098,3605 2060,3590 2063,3586 2080,3558 2097,3526 2113,3493 2131,3459 2137,3432 2146,3406 2159,3373 2172,3344 2168,3317 2187,3292 2201,3260 2222,3227 2232,3198 2238,3172 2237,3164 2228,3132 2227,3107 2254,3072 2260,3042 2258,3012 2269,2980 2267,2954 2266,2923 2275,2894 2276,2864 2272,2838 2267,2803 2267,2772 2268,2741 2267,2710 2269,2683 2271,2655 2275,2626 2282,2597 2311,2567 2342,2538 2347,2498 2351,2468 2356,2441 2364,2393 2375,2366 2378,2332 2381,2302 2374,2267 2384,2237 2396,2196 2405,2159 2412,2133 2416,2099 2416,2067 2425,2035 2443,2009 2483,1969 2513,1939 2549,1908 2575,1898 2603,1916 2637,1903 2643,1874 2668,1857 2701,1865 2735,1865 2764,1863 2792,1847 2819,1836 2849,1815 2876,1792 2898,1763 2930,1730 2954,1701 2980,1678 2998,1645 3027,1617 3016,1588 3004,1563 2973,1535 2955,1503 2991,1475 3029,1444 3064,1414 3098,1389 3128,1370 3183,1334 3213,1311 3243,1292 3250,1286 3270,1268 3279,1217 3312,1210 3353,1187 3394,1169 3431,1135 3465,1109 3505,1081 3543,1051 3569,1031 3597,1006 3628,973 3654,949 3685,940 3723,945 3752,960 3763,991 3783,1017 3795,1043 3803,1075 3808,1106 3812,1144 3822,1174 3844,1197 3862,1199 3867,1232 3837,1252 3819,1277 3809,1304 3824,1317 3824,1347 3802,1364 3807,1392 3834,1384 3859,1382 3874,1389 3882,1414 3877,1452 3889,1477 3899,1497 3884,1527 3854,1524 3842,1507 3819,1502 3774,1517 3759,1539 3747,1564 3739,1584 3769,1587 3822,1587 3854,1572 3891,1597 3920,1627 3952,1652 3988,1666 4017,1672 4047,1673 4075,1676 4107,1684 4139,1707 4168,1726 4194,1704 4217,1679 4247,1662 4273,1641 4301,1622 4330,1604 4359,1583 4369,1557 4405,1549 4449,1559 4487,1569 4519,1604 4564,1629 4597,1644 4614,1687 4649,1712 4657,1727 4662,1734 " class="polyStyle" id="433127" style="fill:#f8c67d"/>
<path d="" class="polyStyle" id="530722" style="fill:#ee8b94"/>
<path d="" class="polyStyle" id="340823" style="fill:#d4ecb2"/>
<path d="" class="polyStyle" id="620825" style="fill:#d4ecb2"/>
<path d="" class="polyStyle" id="421125" style="fill:#ee8b94"/>
<path d="" class="polyStyle" id="210281" style="fill:#ee8b94"/>
<path d="" class="polyStyle" id="440883" style="fill:#f6f67b"/>
<path d="" class="polyStyle" id="469006" style="fill:#d4ecb2"/>
<path d="" class="polyStyle" id="469002" style="fill:#ee8b94"/>
<path d="" class="polyStyle" id="469005" style="fill:#fbe6ef"/>
<path d="" class="polyStyle" id="440882" style="fill:#ee8b94"/>
<path d="" class="polyStyle" id="450681" style="fill:#ee8b94"/>
<path d="" class="polyStyle" id="441581" style="fill:#d4ecb2"/>
<polygon points="3269,5815 3289,5847 3315,5843 3332,5832 3349,5827 3372,5837 3417,5832 3447,5817 3457,5834 3462,5859 3469,5892 3467,5902 3444,5909 3444,5944 3444,5969 3474,5957 3499,5934 3522,5917 3554,5909 3559,5932 3574,5947 3577,5974 3554,5989 3537,6018 3529,6045 3519,6072 3525,6099 3543,6127 3570,6138 3603,6126 3630,6139 3656,6170 3683,6162 3709,6170 3740,6168 3768,6164 3801,6151 3834,6133 3862,6142 3895,6136 3932,6112 3967,6098 4000,6073 4012,6047 4034,6020 4059,6012 4084,5981 4110,5988 4140,5987 4169,5982 4209,5979 4253,5978 4276,5951 4303,5941 4334,5942 4378,5962 4396,5998 4376,6027 4380,6030 4397,6057 4375,6083 4346,6085 4317,6089 4289,6078 4261,6095 4226,6097 4197,6099 4172,6126 4141,6144 4132,6174 4130,6208 4126,6259 4110,6292 4130,6320 4162,6344 4164,6364 4169,6377 4182,6382 4199,6364 4217,6352 4229,6327 4247,6312 4254,6314 4267,6314 4277,6334 4279,6352 4252,6354 4239,6359 4232,6382 4217,6397 4194,6427 4202,6452 4192,6467 4169,6472 4162,6484 4169,6489 4181,6500 4192,6526 4165,6559 4188,6587 4162,6589 4135,6598 4124,6609 4102,6619 4082,6634 4074,6647 4092,6669 4087,6722 4077,6734 4069,6754 4082,6769 4074,6784 4049,6782 4029,6754 4024,6732 3997,6717 3959,6724 3952,6694 3932,6702 3882,6687 3869,6669 3842,6669 3847,6704 3822,6722 3797,6732 3754,6734 3744,6767 3727,6782 3689,6764 3669,6742 3659,6772 3647,6792 3599,6792 3580,6802 3554,6792 3524,6796 3491,6779 3465,6794 3433,6815 3412,6853 3381,6869 3358,6901 3324,6943 3317,6979 3330,7012 3358,7043 3366,7073 3352,7102 3336,7130 3345,7155 3335,7182 3310,7217 3327,7244 3322,7269 3327,7296 3320,7325 3297,7352 3271,7349 3243,7340 3214,7352 3204,7381 3180,7412 3146,7418 3118,7409 3089,7423 3061,7416 3034,7407 3006,7407 2978,7415 2943,7417 2918,7444 2885,7471 2854,7480 2823,7471 2812,7434 2782,7420 2752,7429 2726,7410 2701,7384 2672,7398 2646,7425 2617,7411 2618,7377 2592,7355 2580,7338 2573,7310 2568,7284 2573,7254 2574,7222 2554,7193 2535,7164 2539,7138 2516,7104 2481,7090 2490,7064 2487,7039 2477,7013 2450,6982 2430,6955 2404,6946 2372,6953 2344,6961 2304,6981 2289,7008 2259,7037 2227,7044 2219,7070 2193,7094 2166,7094 2140,7113 2112,7113 2087,7113 2061,7127 2056,7156 2028,7178 1995,7204 1966,7217 1940,7227 1921,7198 1896,7193 1868,7196 1833,7210 1806,7226 1777,7224 1745,7200 1738,7175 1731,7142 1738,7103 1758,7075 1731,7059 1703,7039 1691,7010 1691,6972 1723,6959 1749,6947 1787,6916 1776,6889 1744,6879 1743,6850 1708,6832 1695,6806 1693,6779 1689,6751 1690,6724 1700,6680 1734,6660 1755,6631 1757,6600 1762,6584 1774,6575 1787,6567 1780,6560 1771,6545 1750,6552 1719,6562 1690,6567 1678,6562 1693,6538 1698,6520 1703,6474 1698,6443 1676,6435 1647,6434 1642,6423 1647,6416 1667,6400 1632,6383 1605,6369 1602,6345 1614,6337 1640,6343 1668,6353 1686,6350 1721,6330 1742,6314 1765,6313 1785,6317 1810,6335 1852,6370 1868,6376 1892,6373 1898,6365 1899,6353 1907,6354 1914,6360 1913,6370 1915,6377 1928,6381 1943,6395 1961,6400 1996,6415 2014,6417 2025,6400 2041,6371 2061,6361 2096,6371 2105,6383 2100,6389 2089,6392 2087,6403 2094,6421 2123,6429 2154,6427 2182,6411 2196,6399 2198,6383 2198,6367 2210,6360 2242,6355 2256,6323 2258,6286 2251,6274 2235,6270 2216,6267 2210,6256 2214,6242 2232,6231 2264,6221 2277,6210 2285,6180 2290,6165 2329,6154 2361,6129 2388,6108 2414,6105 2443,6094 2477,6085 2515,6072 2549,6060 2577,6047 2607,6019 2637,6010 2671,6021 2703,6017 2733,5996 2764,5991 2794,5986 2832,5977 2868,5985 2905,5988 2936,5985 2962,5980 2989,5977 3016,5989 3048,5983 3059,5964 3052,5929 3081,5899 3112,5877 3129,5845 3132,5819 3159,5809 3192,5801 3217,5791 3241,5802 " class="polyStyle" id="433101" style="fill:#ee8b94"/>
<path d="" class="polyStyle" id="421087" style="fill:#ee8b94"/>
<path d="" class="polyStyle" id="420984" style="fill:#fbe6ef"/>
<path d="" class="polyStyle" id="420582" style="fill:#ee8b94"/>
<path d="" class="polyStyle" id="370282" style="fill:#f6f67b"/>
<path d="" class="polyStyle" id="371083" style="fill:#f6f67b"/>
<path d="" class="polyStyle" id="371082" style="fill:#fbe6ef"/>
<path d="" class="polyStyle" id="652801" style="fill:#f8c67d"/>
<path d="" class="polyStyle" id="654301" style="fill:#ee8b94"/>
<path d="" class="polyStyle" id="370687" style="fill:#ee8b94"/>
<path d="" class="polyStyle" id="371482" style="fill:#d4ecb2"/>
<path d="" class="polyStyle" id="421081" style="fill:#fbe6ef"/>
<path d="" class="polyStyle" id="429006" style="fill:#f6f67b"/>
<path d="" class="polyStyle" id="440982" style="fill:#d4ecb2"/>
<path d="" class="polyStyle" id="421181" style="fill:#d4ecb2"/>
<path d="" class="polyStyle" id="321181" style="fill:#d4ecb2"/>
<path d="" class="polyStyle" id="659007" style="fill:#ee8b94"/>
<path d="" class="polyStyle" id="652701" style="fill:#fbe6ef"/>
<path d="" class="polyStyle" id="210781" style="fill:#fbe6ef"/>
<path d="" class="polyStyle" id="460204" style="fill:#f6f67b"/>
<path d="" class="polyStyle" id="210211" style="fill:#f6f67b"/>
<path d="" class="polyStyle" id="450512" style="fill:#ee8b94"/>
<path d="" class="polyStyle" id="450602" style="fill:#fbe6ef"/>
<path d="" class="polyStyle" id="440404" style="fill:#ee8b94"/>
<path d="" class="polyStyle" id="440403" style="fill:#f6f67b"/>
<path d="" class="polyStyle" id="441502" style="fill:#f6f67b"/>
<path d="" class="polyStyle" id="431002" style="fill:#d4ecb2"/>
<path d="" class="polyStyle" id="500107" style="fill:#fbe6ef"/>
<path d="" class="polyStyle" id="430611" style="fill:#d4ecb2"/>
<path d="" class="polyStyle" id="511304" style="fill:#fbe6ef"/>
<path d="" class="polyStyle" id="340711" style="fill:#ee8b94"/>
<path d="" class="polyStyle" id="320118" style="fill:#f6f67b"/>
<path d="" class="polyStyle" id="510704" style="fill:#f6f67b"/>
<path d="" class="polyStyle" id="411502" style="fill:#ee8b94"/>
<path d="" class="polyStyle" id="320302" style="fill:#d4ecb2"/>
<path d="" class="polyStyle" id="140311" style="fill:#ee8b94"/>
<path d="" class="polyStyle" id="610802" style="fill:#ee8b94"/>
<path d="" class="polyStyle" id="120116" style="fill:#f6f67b"/>
<path d="" class="polyStyle" id="130303" style="fill:#fbe6ef"/>
<path d="" class="polyStyle" id="140211" style="fill:#f6f67b"/>
<path d="" class="polyStyle" id="150207" style="fill:#fbe6ef"/>
<path d="" class="polyStyle" id="211403" style="fill:#f6f67b"/>
<path d="" class="polyStyle" id="150802" style="fill:#f8c67d"/>
<path d="" class="polyStyle" id="210112" style="fill:#ee8b94"/>
<path d="" class="polyStyle" id="230406" style="fill:#d4ecb2"/>
<path d="" class="polyStyle" id="110113" style="fill:#fbe6ef"/>
<path d="" class="polyStyle" id="341702" style="fill:#fbe6ef"/>
<path d="" class="polyStyle" id="420303" style="fill:#ee8b94"/>
<path d="" class="polyStyle" id="340702" style="fill:#d4ecb2"/>
<path d="" class="polyStyle" id="421002" style="fill:#f6f67b"/>
<path d="" class="polyStyle" id="420117" style="fill:#f6f67b"/>
<path d="" class="polyStyle" id="440904" style="fill:#f8c67d"/>
<path d="" class="polyStyle" id="460205" style="fill:#ee8b94"/>
<path d="" class="polyStyle" id="460202" style="fill:#f6f67b"/>
<path d="" class="polyStyle" id="460203" style="fill:#fbe6ef"/>
<path d="" class="polyStyle" id="420304" style="fill:#f6f67b"/>
<path d="" class="polyStyle" id="445302" style="fill:#ee8b94"/>
<path d="" class="polyStyle" id="410202" style="fill:#d4ecb2"/>
<path d="" class="polyStyle" id="440800" style="fill:#f6f67b"/>
<path d="" class="polyStyle" id="440900" style="fill:#ee8b94"/>
<path d="" class="polyStyle" id="340800" style="fill:#ee8b94"/>
<path d="" class="polyStyle" id="460200" style="fill:#f6f67b"/>
<path d="" class="polyStyle" id="460000" style="fill:#ee8b94"/>
<path d="" class="polyStyle" id="450500" style="fill:#ee8b94"/>
<path d="" class="polyStyle" id="450600" style="fill:#ee8b94"/>
<path d="" class="polyStyle" id="440400" style="fill:#f6f67b"/>
<path d="" class="polyStyle" id="441700" style="fill:#f6f67b"/>
<path d="" class="polyStyle" id="441500" style="fill:#f6f67b"/>
<path d="" class="polyStyle" id="350600" style="fill:#ee8b94"/>
<path d="" class="polyStyle" id="710000" style="fill:#f6f67b"/>
<path d="" class="polyStyle" id="510400" style="fill:#f6f67b"/>
<path d="" class="polyStyle" id="522600" style="fill:#fbe6ef"/>
<path d="" class="polyStyle" id="520500" style="fill:#ee8b94"/>
<path d="" class="polyStyle" id="431200" style="fill:#f6f67b"/>
<path d="" class="polyStyle" id="430600" style="fill:#f6f67b"/>
<path d="" class="polyStyle" id="511400" style="fill:#d4ecb2"/>
<path d="" class="polyStyle" id="421000" style="fill:#ee8b94"/>
<path d="" class="polyStyle" id="341700" style="fill:#f6f67b"/>
<path d="" class="polyStyle" id="420500" style="fill:#f6f67b"/>
<path d="" class="polyStyle" id="511300" style="fill:#f6f67b"/>
<path d="" class="polyStyle" id="420900" style="fill:#f6f67b"/>
<path d="" class="polyStyle" id="511700" style="fill:#ee8b94"/>
<path d="" class="polyStyle" id="420600" style="fill:#d4ecb2"/>
<path d="" class="polyStyle" id="411500" style="fill:#fbe6ef"/>
<path d="" class="polyStyle" id="510800" style="fill:#ee8b94"/>
<path d="" class="polyStyle" id="420300" style="fill:#fbe6ef"/>
<path d="" class="polyStyle" id="611000" style="fill:#ee8b94"/>
<path d="" class="polyStyle" id="620800" style="fill:#fbe6ef"/>
<path d="" class="polyStyle" id="370200" style="fill:#ee8b94"/>
<path d="" class="polyStyle" id="371000" style="fill:#f6f67b"/>
<path d="" class="polyStyle" id="370600" style="fill:#fbe6ef"/>
<path d="" class="polyStyle" id="120000" style="fill:#f6f67b"/>
<path d="" class="polyStyle" id="130200" style="fill:#ee8b94"/>
<path d="" class="polyStyle" id="130300" style="fill:#f6f67b"/>
<path d="" class="polyStyle" id="652900" style="fill:#fbe6ef"/>
<path d="" class="polyStyle" id="150500" style="fill:#d4ecb2"/>
<path d="" class="polyStyle" id="" style="fill:#d4ecb2"/>
<path d="" class="polyStyle" id="350500" style="fill:#fbe6ef"/>
<path d="" class="polyStyle" id="440400" style="fill:#f6f67b"/>
<path d="" class="polyStyle" id="421100" style="fill:#d4ecb2"/>
<path d="" class="polyStyle" id="420100" style="fill:#fbe6ef"/>
<path d="" class="polyStyle" id="532500" style="fill:#fbe6ef"/>
<path d="" class="polyStyle" id="654200" style="fill:#fbe6ef"/>
<path d="" class="polyStyle" id="210700" style="fill:#d4ecb2"/>
<path d="" class="polyStyle" id="522300" style="fill:#fbe6ef"/>
<path d="" class="polyStyle" id="" style="fill:#ee8b94"/>
<path d="" class="polyStyle" id="440400" style="fill:#f6f67b"/>
<path d="" class="polyStyle" id="620000" style="fill:#f6f67b"/>
<path d="" class="polyStyle" id="430000" style="fill:#fbe6ef"/>
<path d="" class="polyStyle" id="420000" style="fill:#ee8b94"/>
<path d="" class="polyStyle" id="410000" style="fill:#f6f67b"/>
<path d="" class="polyStyle" id="350000" style="fill:#fbe6ef"/>
<path d="" class="polyStyle" id="520000" style="fill:#f6f67b"/>
<path d="" class="polyStyle" id="" style="fill:#ee8b94"/>
</svg>
