<?xml version="1.0" encoding="UTF-8"?>
<!DOCTYPE svg PUBLIC "-//W3C//DTD SVG 1.1 Tiny//EN" "http://www.w3.org/Graphics/SVG/1.1/DTD/svg11-tiny.dtd">
<svg version="1.1" xmlns="http://www.w3.org/2000/svg" xmlns:xlink="http://www.w3.org/1999/xlink" width="100%" height="100%" viewBox="0,0,5507,6807">
<title>SVG</title>
<desc>Poligon Test</desc>
<style id="style_css_sheet" type="text/css">
.polyStyle{fill: #cccccc;stroke-width:0;fill-rule:evenodd;}
</style>
<circle cx="2612" cy="3760" r="200" stroke="black" stroke-width="1" fill="red" id="440112" name="黄埔区"/>
<circle cx="1797" cy="4251" r="200" stroke="black" stroke-width="1" fill="red" id="440105"position="14" name="海珠区"/>
<circle cx="2020" cy="4045" r="200" stroke="black" stroke-width="1" fill="red" id="440106"position="44" name="天河区"/>
<circle cx="1577" cy="3878" r="200" stroke="black" stroke-width="1" fill="red" id="440111"position="111" name="白云区"/>
<circle cx="1432" cy="4039" r="200" stroke="black" stroke-width="1" fill="red" id="440103"position="4" name="荔湾区"/>
<circle cx="1545" cy="4023" r="200" stroke="black" stroke-width="1" fill="red" id="440104"position="43" name="越秀区"/>
<circle cx="3199" cy="5785" r="200" stroke="black" stroke-width="1" fill="red" id="440115"position="444" name="南沙区"/>
<circle cx="1307" cy="2659" r="200" stroke="black" stroke-width="1" fill="red" id="440114" name="花都区"/>
<circle cx="2026" cy="4987" r="200" stroke="black" stroke-width="1" fill="red" id="440113" name="番禺区"/>
<circle cx="4393" cy="3149" r="200" stroke="black" stroke-width="1" fill="red" id="440118" name="增城区"/>
<circle cx="3149" cy="1918" r="200" stroke="black" stroke-width="1" fill="red" id="440117" name="从化区"/>
<path d="" class="polyStyle" id="" style="fill:#ee8b94"/>
<path d="" class="polyStyle" id="623022" style="fill:#fbe6ef"/>
<path d="" class="polyStyle" id="211421" style="fill:#f6f67b"/>
<path d="" class="polyStyle" id="532524" style="fill:#ee8b94"/>
<path d="" class="polyStyle" id="440825" style="fill:#f6f67b"/>
<path d="" class="polyStyle" id="441721" style="fill:#f6f67b"/>
<path d="" class="polyStyle" id="450521" style="fill:#f6f67b"/>
<path d="" class="polyStyle" id="450123" style="fill:#fbe6ef"/>
<path d="" class="polyStyle" id="350624" style="fill:#f6f67b"/>
<path d="" class="polyStyle" id="" style="fill:#fbe6ef"/>
<path d="" class="polyStyle" id="451224" style="fill:#fbe6ef"/>
<path d="" class="polyStyle" id="350627" style="fill:#f6f67b"/>
<path d="" class="polyStyle" id="" style="fill:#f6f67b"/>
<path d="" class="polyStyle" id="350525" style="fill:#f6f67b"/>
<path d="" class="polyStyle" id="530124" style="fill:#ee8b94"/>
<path d="" class="polyStyle" id="522627" style="fill:#ee8b94"/>
<path d="" class="polyStyle" id="510421" style="fill:#fbe6ef"/>
<path d="" class="polyStyle" id="522623" style="fill:#d4ecb2"/>
<path d="" class="polyStyle" id="430321" style="fill:#d4ecb2"/>
<path d="" class="polyStyle" id="511129" style="fill:#d4ecb2"/>
<path d="" class="polyStyle" id="511423" style="fill:#ee8b94"/>
<path d="" class="polyStyle" id="421023" style="fill:#f6f67b"/>
<path d="" class="polyStyle" id="511724" style="fill:#f6f67b"/>
<path d="" class="polyStyle" id="420526" style="fill:#fbe6ef"/>
<path d="" class="polyStyle" id="511923" style="fill:#fbe6ef"/>
<path d="" class="polyStyle" id="420325" style="fill:#fbe6ef"/>
<path d="" class="polyStyle" id="511921" style="fill:#f6f67b"/>
<path d="" class="polyStyle" id="542525" style="fill:#f6f67b"/>
<path d="" class="polyStyle" id="611026" style="fill:#ee8b94"/>
<path d="" class="polyStyle" id="411023" style="fill:#fbe6ef"/>
<path d="" class="polyStyle" id="632323" style="fill:#f6f67b"/>
<path d="" class="polyStyle" id="140525" style="fill:#d4ecb2"/>
<path d="" class="polyStyle" id="410922" style="fill:#ee8b94"/>
<path d="" class="polyStyle" id="621027" style="fill:#ee8b94"/>
<path d="" class="polyStyle" id="130427" style="fill:#f6f67b"/>
<path d="" class="polyStyle" id="130121" style="fill:#ee8b94"/>
<path d="" class="polyStyle" id="610823" style="fill:#fbe6ef"/>
<path d="" class="polyStyle" id="130225" style="fill:#fbe6ef"/>
<path d="" class="polyStyle" id="130322" style="fill:#d4ecb2"/>
<path d="" class="polyStyle" id="653130" style="fill:#f6f67b"/>
<path d="" class="polyStyle" id="130822" style="fill:#fbe6ef"/>
<path d="" class="polyStyle" id="211221" style="fill:#f6f67b"/>
<path d="" class="polyStyle" id="210921" style="fill:#f6f67b"/>
<path d="" class="polyStyle" id="150223" style="fill:#f8c67d"/>
<path d="" class="polyStyle" id="220422" style="fill:#d4ecb2"/>
<path d="" class="polyStyle" id="340721" style="fill:#f6f67b"/>
<path d="" class="polyStyle" id="510824" style="fill:#d4ecb2"/>
<path d="" class="polyStyle" id="610324" style="fill:#f6f67b"/>
<path d="" class="polyStyle" id="530722" style="fill:#ee8b94"/>
<path d="" class="polyStyle" id="340823" style="fill:#d4ecb2"/>
<path d="" class="polyStyle" id="620825" style="fill:#d4ecb2"/>
<path d="" class="polyStyle" id="421125" style="fill:#ee8b94"/>
<path d="" class="polyStyle" id="210281" style="fill:#ee8b94"/>
<path d="" class="polyStyle" id="440883" style="fill:#f6f67b"/>
<path d="" class="polyStyle" id="469006" style="fill:#d4ecb2"/>
<path d="" class="polyStyle" id="469002" style="fill:#ee8b94"/>
<path d="" class="polyStyle" id="469005" style="fill:#fbe6ef"/>
<path d="" class="polyStyle" id="440882" style="fill:#ee8b94"/>
<path d="" class="polyStyle" id="450681" style="fill:#ee8b94"/>
<path d="" class="polyStyle" id="441581" style="fill:#d4ecb2"/>
<path d="" class="polyStyle" id="421087" style="fill:#ee8b94"/>
<path d="" class="polyStyle" id="420984" style="fill:#fbe6ef"/>
<path d="" class="polyStyle" id="420582" style="fill:#ee8b94"/>
<path d="" class="polyStyle" id="370282" style="fill:#f6f67b"/>
<path d="" class="polyStyle" id="371083" style="fill:#f6f67b"/>
<path d="" class="polyStyle" id="371082" style="fill:#fbe6ef"/>
<path d="" class="polyStyle" id="652801" style="fill:#f8c67d"/>
<path d="" class="polyStyle" id="654301" style="fill:#ee8b94"/>
<path d="" class="polyStyle" id="370687" style="fill:#ee8b94"/>
<path d="" class="polyStyle" id="371482" style="fill:#d4ecb2"/>
<path d="" class="polyStyle" id="421081" style="fill:#fbe6ef"/>
<path d="" class="polyStyle" id="429006" style="fill:#f6f67b"/>
<path d="" class="polyStyle" id="440982" style="fill:#d4ecb2"/>
<path d="" class="polyStyle" id="421181" style="fill:#d4ecb2"/>
<path d="" class="polyStyle" id="321181" style="fill:#d4ecb2"/>
<path d="" class="polyStyle" id="659007" style="fill:#ee8b94"/>
<path d="" class="polyStyle" id="652701" style="fill:#fbe6ef"/>
<path d="" class="polyStyle" id="210781" style="fill:#fbe6ef"/>
<path d="" class="polyStyle" id="460204" style="fill:#f6f67b"/>
<path d="" class="polyStyle" id="210211" style="fill:#f6f67b"/>
<path d="" class="polyStyle" id="450512" style="fill:#ee8b94"/>
<path d="" class="polyStyle" id="450602" style="fill:#fbe6ef"/>
<path d="" class="polyStyle" id="440404" style="fill:#ee8b94"/>
<path d="" class="polyStyle" id="440403" style="fill:#f6f67b"/>
<polygon points="2433,5133 2503,5138 2544,5138 2630,5179 2695,5199 2759,5231 2811,5251 2861,5283 2951,5321 3013,5354 3067,5383 3067,5413 3103,5456 3142,5511 3191,5548 3219,5572 3235,5582 3252,5623 3263,5651 3306,5715 3350,5781 3377,5830 3394,5863 3399,5881 3329,5886 3329,5889 3325,5893 3320,5896 3314,5900 3304,5903 3294,5907 3289,5910 3288,5913 3288,5917 3288,5925 3289,5930 3290,5936 3296,5936 3298,5939 3291,5945 3288,5944 3282,5950 3275,5957 3272,5957 3267,5958 3261,5958 3249,5960 3246,5960 3240,5960 3224,5962 3221,5962 3201,5962 3193,5962 3188,5963 3179,5963 3173,5964 3170,5964 3158,5964 3155,5967 3145,5967 3134,5967 3131,5967 3122,5967 3102,5967 3097,5966 3093,5965 3088,5965 3072,5962 3069,5962 3065,5961 3062,5960 3059,5958 3055,5955 3052,5951 3049,5949 3046,5947 3042,5944 3036,5941 3032,5940 3028,5934 3023,5930 2998,5967 2991,5966 2988,5969 2985,5972 2989,5976 2996,5983 3002,5988 3009,5994 3015,5998 3018,6003 3020,6006 3024,6010 3029,6014 3036,6020 3034,6023 3040,6029 3046,6033 3073,6058 3077,6060 3100,6081 3109,6089 3112,6092 3117,6104 3123,6123 3125,6127 3132,6146 3132,6153 3147,6172 3153,6179 3163,6191 3160,6193 3155,6197 3151,6201 3144,6209 3146,6212 3164,6197 3180,6209 3204,6227 3208,6227 3213,6225 3216,6227 3219,6228 3225,6231 3232,6234 3240,6238 3243,6239 3246,6241 3255,6249 3258,6251 3262,6255 3265,6258 3291,6286 3295,6292 3321,6321 3324,6324 3334,6336 3337,6340 3342,6345 3344,6348 3348,6351 3364,6370 3367,6374 3373,6380 3386,6396 3388,6399 3391,6402 3398,6411 3402,6415 3409,6424 3413,6428 3417,6433 3421,6438 3425,6442 3427,6445 3430,6448 3442,6462 3455,6477 3458,6480 3460,6490 3462,6495 3464,6506 3465,6509 3467,6517 3469,6531 3472,6548 3473,6553 3468,6558 3462,6563 3442,6580 3420,6599 3405,6612 3407,6615 3413,6623 3420,6633 3428,6645 3439,6660 3442,6664 3445,6669 3454,6681 3467,6699 3472,6707 3477,6714 3477,6718 3473,6721 3466,6727 3459,6734 3451,6740 3444,6746 3437,6752 3430,6758 3424,6764 3417,6769 3410,6775 3403,6781 3400,6784 3393,6789 3377,6803 3371,6807 3368,6803 3367,6800 3364,6797 3361,6793 3359,6789 3356,6784 3353,6780 3351,6776 3349,6773 3346,6769 3343,6765 3342,6762 3339,6758 3336,6754 3334,6751 3332,6747 3329,6743 3326,6739 3323,6735 3321,6731 3318,6727 3315,6723 3312,6719 3310,6715 3307,6711 3303,6705 3301,6702 3298,6698 3279,6686 3275,6683 3259,6664 3214,6610 3180,6569 3131,6592 3144,6606 3160,6625 3172,6644 3169,6651 3158,6661 3151,6664 3144,6663 3136,6671 3115,6655 3104,6642 3097,6645 3084,6635 3068,6647 3044,6633 3033,6643 3009,6611 2993,6586 2970,6549 2956,6518 2925,6477 2894,6431 2886,6408 2875,6389 2877,6381 2904,6375 2910,6347 2911,6332 2894,6322 2857,6294 2820,6264 2773,6236 2728,6206 2692,6183 2637,6143 2603,6121 2573,6099 2544,6076 2504,6041 2487,6010 2451,5988 2423,5981 2395,5977 2364,5977 2334,5975 2306,5968 2280,5956 2229,5929 2185,5899 2135,5872 2098,5847 2064,5820 2030,5801 2019,5791 2002,5743 1987,5711 1998,5701 2012,5699 2023,5697 2039,5691 2047,5689 2055,5685 2065,5681 2072,5689 2079,5693 2087,5686 2102,5679 2122,5669 2150,5641 2158,5634 2165,5629 2172,5620 2165,5618 2145,5609 2118,5584 2096,5567 2079,5559 2068,5558 2049,5561 2037,5557 2028,5551 2019,5548 1993,5554 1977,5556 1970,5559 1971,5571 1958,5575 1951,5574 1951,5581 1939,5584 1933,5569 1926,5565 1911,5570 1897,5573 1881,5577 1864,5558 1829,5543 1792,5532 1777,5524 1765,5508 1759,5477 1757,5447 1756,5412 1731,5408 1721,5394 1710,5386 1705,5370 1693,5375 1689,5369 1692,5361 1690,5352 1712,5334 1697,5301 1711,5290 1709,5282 1751,5274 1824,5249 1902,5230 1979,5202 2039,5185 2091,5160 2111,5153 2153,5157 2217,5157 2241,5152 2287,5132 2309,5121 2361,5129 " class="polyStyle" id="440115" style="fill:#f6f67b"/>
<path d="" class="polyStyle" id="441502" style="fill:#f6f67b"/>
<polygon points="2213,4286 2211,4303 2210,4307 2206,4329 2218,4341 2240,4349 2271,4351 2300,4353 2337,4339 2365,4324 2395,4308 2428,4292 2464,4285 2502,4286 2535,4293 2561,4302 2590,4315 2622,4331 2658,4353 2683,4371 2698,4382 2727,4406 2757,4438 2779,4471 2807,4502 2815,4507 2809,4561 2811,4612 2820,4661 2828,4697 2837,4730 2851,4780 2867,4815 2890,4845 2912,4873 2921,4907 2938,4931 2957,4973 2972,4996 2988,5034 3003,5070 3018,5110 3045,5153 3057,5173 3083,5198 3083,5222 3071,5274 3067,5321 3068,5359 3067,5383 3013,5354 2951,5321 2861,5283 2811,5251 2759,5231 2695,5199 2630,5179 2544,5138 2503,5138 2433,5133 2361,5129 2309,5121 2287,5132 2241,5152 2217,5157 2153,5157 2111,5153 2091,5160 2039,5185 1979,5202 1902,5230 1824,5249 1751,5274 1709,5282 1708,5278 1672,5250 1635,5224 1600,5205 1593,5198 1593,5163 1615,5162 1626,5160 1633,5158 1635,5150 1626,5122 1626,5099 1623,5059 1618,5038 1616,5030 1626,5022 1632,5018 1639,5015 1645,5016 1645,5020 1650,5022 1656,5017 1658,5010 1684,5003 1697,4994 1689,4976 1682,4965 1673,4951 1671,4948 1665,4940 1653,4931 1646,4920 1638,4913 1633,4910 1620,4904 1615,4901 1589,4893 1580,4888 1571,4877 1566,4879 1558,4880 1547,4891 1542,4890 1545,4871 1541,4867 1527,4855 1511,4845 1496,4838 1493,4836 1483,4828 1468,4815 1456,4796 1453,4785 1456,4779 1459,4774 1461,4769 1463,4754 1462,4737 1461,4734 1462,4724 1466,4714 1473,4707 1480,4702 1484,4700 1490,4696 1492,4691 1489,4685 1467,4672 1461,4662 1459,4651 1460,4638 1461,4632 1467,4616 1469,4611 1477,4604 1477,4601 1473,4592 1471,4576 1471,4566 1495,4572 1499,4576 1506,4577 1513,4576 1518,4565 1523,4559 1517,4556 1512,4557 1504,4558 1500,4555 1499,4548 1492,4511 1483,4487 1481,4472 1481,4465 1488,4445 1496,4431 1523,4417 1552,4405 1581,4395 1607,4390 1635,4393 1663,4399 1692,4405 1730,4410 1768,4412 1794,4411 1822,4408 1863,4414 1898,4426 1927,4438 1962,4447 1998,4442 2035,4433 2052,4400 2074,4376 2101,4356 2133,4315 2157,4289 2183,4274 2200,4276 " class="polyStyle" id="440113" style="fill:#d4ecb2"/>
<polygon points="1601,4100 1621,4108 1648,4120 1673,4129 1696,4134 1714,4136 1761,4133 1791,4126 1809,4121 1821,4119 1841,4119 1875,4115 1905,4116 1974,4128 1993,4129 2055,4128 2080,4126 2111,4125 2154,4129 2183,4132 2213,4133 2229,4140 2261,4160 2281,4165 2284,4166 2293,4170 2296,4173 2297,4177 2291,4190 2287,4200 2287,4204 2290,4209 2297,4220 2298,4226 2294,4231 2274,4239 2264,4244 2249,4248 2232,4253 2220,4259 2216,4263 2214,4268 2219,4285 2219,4297 2215,4303 2210,4307 2211,4303 2213,4286 2200,4276 2183,4274 2157,4289 2133,4315 2101,4356 2074,4376 2052,4400 2035,4433 1998,4442 1962,4447 1927,4438 1898,4426 1863,4414 1822,4408 1794,4411 1768,4412 1730,4410 1692,4405 1663,4399 1635,4393 1607,4390 1564,4360 1534,4341 1518,4329 1505,4317 1495,4305 1472,4267 1466,4255 1461,4240 1452,4210 1439,4181 1424,4153 1423,4149 1426,4146 1457,4137 1477,4128 1550,4099 1563,4095 1581,4096 " class="polyStyle" id="440105" style="fill:#ee8b94"/>
<polygon points="1430,3905 1434,3924 1448,3927 1461,3923 1467,3935 1473,3939 1467,3944 1468,3954 1474,3958 1473,3968 1461,3975 1433,3976 1423,3982 1436,3991 1436,3997 1447,4008 1478,4021 1480,4034 1471,4071 1476,4122 1477,4128 1457,4137 1426,4146 1423,4149 1424,4153 1439,4181 1452,4210 1461,4240 1466,4255 1472,4267 1495,4305 1505,4317 1518,4329 1534,4341 1564,4360 1607,4390 1581,4395 1552,4405 1523,4417 1496,4431 1434,4448 1336,4456 1291,4450 1251,4437 1205,4398 1179,4383 1162,4377 1144,4376 1127,4366 1108,4350 1095,4323 1093,4300 1093,4278 1099,4275 1106,4274 1113,4275 1128,4272 1163,4252 1182,4244 1221,4239 1239,4242 1252,4244 1256,4245 1264,4229 1275,4215 1275,4200 1286,4188 1285,4175 1247,4167 1240,4127 1233,4118 1231,4101 1223,4066 1219,4060 1225,4056 1260,4049 1265,4021 1269,3984 1265,3957 1280,3930 1290,3925 1295,3927 1315,3947 1343,3973 1386,3929 1397,3882 1420,3869 1419,3887 " class="polyStyle" id="440103" style="fill:#f6f67b"/>
<polygon points="1451,3828 1475,3839 1478,3851 1483,3858 1489,3862 1499,3873 1507,3884 1504,3893 1492,3897 1486,3908 1505,3918 1518,3916 1534,3917 1540,3920 1540,3926 1546,3927 1557,3921 1563,3905 1568,3899 1574,3896 1592,3898 1605,3896 1616,3884 1622,3883 1628,3883 1633,3889 1645,3893 1652,3894 1672,3891 1678,3889 1683,3883 1689,3865 1699,3862 1704,3874 1710,3879 1726,3871 1735,3868 1742,3873 1750,3885 1744,3886 1725,3895 1713,3911 1714,3919 1720,3920 1732,3929 1744,3960 1748,3966 1754,3964 1764,3949 1770,3947 1776,3948 1780,3965 1783,3999 1782,4033 1784,4103 1802,4104 1821,4119 1809,4121 1791,4126 1761,4133 1714,4136 1696,4134 1673,4129 1648,4120 1621,4108 1601,4100 1581,4096 1563,4095 1550,4099 1477,4128 1476,4122 1471,4071 1480,4034 1478,4021 1447,4008 1436,3997 1436,3991 1423,3982 1433,3976 1461,3975 1473,3968 1474,3958 1468,3954 1467,3944 1473,3939 1467,3935 1461,3923 1448,3927 1434,3924 1430,3905 1419,3887 1420,3869 1421,3867 1417,3860 1409,3858 1411,3851 1416,3845 1418,3839 1416,3833 1410,3827 1410,3821 1423,3821 1443,3828 " class="polyStyle" id="440104" style="fill:#fbe6ef"/>
<polygon points="2220,3443 2231,3460 2232,3466 2229,3478 2235,3507 2218,3528 2214,3540 2216,3558 2209,3582 2204,3588 2198,3592 2199,3598 2214,3607 2243,3629 2243,3635 2248,3647 2293,3682 2315,3694 2326,3706 2311,3713 2308,3726 2302,3732 2303,3738 2315,3746 2313,3758 2297,3778 2291,3782 2285,3781 2282,3787 2288,3792 2294,3794 2306,3785 2312,3784 2318,3786 2327,3774 2339,3776 2350,3764 2354,3778 2342,3801 2320,3807 2306,3837 2292,3852 2281,3872 2283,3880 2340,3871 2361,3882 2369,3900 2375,3905 2381,3907 2387,3903 2392,3897 2396,3903 2395,3922 2390,3948 2432,3955 2442,3957 2423,4012 2411,4036 2409,4048 2406,4054 2399,4059 2385,4058 2377,4060 2362,4056 2361,4062 2351,4074 2330,4126 2314,4139 2293,4150 2284,4166 2281,4165 2261,4160 2229,4140 2213,4133 2183,4132 2154,4129 2111,4125 2080,4126 2055,4128 1993,4129 1974,4128 1905,4116 1875,4115 1841,4119 1821,4119 1802,4104 1784,4103 1782,4033 1783,3999 1780,3965 1776,3948 1770,3947 1764,3949 1754,3964 1748,3966 1744,3960 1732,3929 1720,3920 1714,3919 1713,3911 1725,3895 1744,3886 1750,3885 1742,3873 1735,3868 1738,3867 1756,3867 1757,3873 1761,3879 1767,3880 1768,3874 1766,3868 1760,3863 1766,3851 1754,3840 1754,3828 1752,3820 1758,3815 1767,3814 1774,3815 1781,3810 1788,3801 1789,3795 1793,3789 1799,3786 1810,3788 1816,3795 1822,3797 1834,3789 1840,3789 1846,3793 1850,3799 1864,3801 1875,3795 1888,3783 1898,3769 1901,3742 1907,3740 1920,3730 1933,3700 1951,3682 1958,3647 1957,3629 1960,3600 1956,3575 1961,3563 1977,3534 2007,3516 2013,3520 2025,3523 2031,3522 2049,3514 2076,3523 2088,3523 2094,3521 2130,3485 2137,3473 2160,3462 2196,3438 2202,3439 2208,3437 2214,3438 " class="polyStyle" id="440106" style="fill:#f8c67d"/>
<polygon points="2599,2536 2612,2544 2624,2547 2667,2565 2684,2593 2689,2593 2699,2607 2667,2606 2660,2610 2657,2616 2658,2622 2654,2628 2642,2635 2617,2638 2616,2651 2613,2658 2599,2665 2579,2666 2569,2662 2564,2655 2557,2653 2551,2655 2545,2661 2544,2669 2544,2685 2551,2700 2529,2708 2518,2706 2511,2707 2507,2715 2506,2732 2516,2734 2540,2720 2547,2720 2549,2731 2547,2755 2543,2766 2542,2777 2537,2785 2539,2793 2546,2799 2550,2807 2549,2836 2567,2855 2573,2865 2592,2888 2576,2912 2566,2912 2554,2908 2551,2916 2554,2922 2554,2930 2558,2939 2556,2951 2549,2957 2537,2961 2524,2978 2543,2986 2549,2987 2561,2985 2564,2997 2559,3026 2565,3032 2583,3039 2612,3040 2630,3032 2642,3031 2649,3037 2654,3051 2658,3057 2664,3061 2676,3054 2682,3055 2728,3072 2740,3081 2750,3099 2756,3127 2755,3149 2728,3168 2716,3179 2711,3185 2699,3212 2683,3229 2686,3235 2722,3251 2728,3251 2734,3256 2737,3268 2723,3277 2723,3283 2726,3289 2727,3308 2733,3310 2739,3302 2733,3300 2733,3293 2739,3288 2740,3280 2747,3284 2748,3291 2756,3293 2752,3300 2744,3302 2737,3331 2720,3338 2708,3346 2696,3348 2684,3353 2684,3365 2678,3369 2671,3378 2670,3389 2667,3397 2647,3402 2610,3404 2608,3410 2596,3420 2598,3426 2604,3425 2606,3431 2600,3435 2592,3437 2586,3443 2582,3437 2558,3439 2556,3445 2557,3451 2563,3453 2563,3459 2557,3461 2551,3455 2549,3449 2534,3450 2531,3444 2523,3440 2505,3444 2498,3441 2490,3441 2465,3447 2459,3446 2455,3440 2446,3433 2434,3437 2428,3442 2416,3448 2408,3441 2413,3435 2427,3434 2440,3431 2442,3425 2435,3426 2423,3424 2416,3420 2423,3413 2432,3409 2446,3408 2448,3400 2444,3394 2441,3381 2447,3379 2453,3374 2447,3368 2445,3362 2439,3358 2433,3346 2425,3339 2409,3329 2401,3327 2389,3334 2357,3334 2345,3338 2345,3345 2347,3351 2361,3376 2367,3378 2375,3386 2381,3398 2379,3404 2366,3412 2362,3418 2356,3418 2344,3412 2337,3411 2331,3420 2332,3427 2337,3434 2355,3435 2355,3457 2351,3463 2345,3468 2339,3466 2334,3460 2333,3453 2327,3453 2321,3458 2300,3441 2303,3427 2297,3422 2291,3422 2279,3431 2272,3430 2267,3424 2261,3436 2255,3437 2262,3479 2258,3485 2242,3496 2240,3500 2235,3507 2229,3478 2232,3466 2231,3460 2220,3443 2214,3438 2208,3437 2202,3439 2196,3438 2160,3462 2137,3473 2130,3485 2094,3521 2088,3523 2076,3523 2049,3514 2031,3522 2025,3523 2013,3520 2007,3516 1977,3534 1961,3563 1956,3575 1960,3600 1957,3629 1958,3647 1951,3682 1933,3700 1920,3730 1907,3740 1901,3742 1898,3769 1888,3783 1875,3795 1864,3801 1850,3799 1846,3793 1840,3789 1834,3789 1822,3797 1816,3795 1810,3788 1799,3786 1793,3789 1789,3795 1788,3801 1781,3810 1774,3815 1767,3814 1758,3815 1752,3820 1754,3828 1754,3840 1766,3851 1760,3863 1766,3868 1768,3874 1767,3880 1761,3879 1757,3873 1756,3867 1738,3867 1735,3868 1726,3871 1710,3879 1704,3874 1699,3862 1689,3865 1683,3883 1678,3889 1672,3891 1652,3894 1645,3893 1633,3889 1628,3883 1622,3883 1616,3884 1605,3896 1592,3898 1574,3896 1568,3899 1563,3905 1557,3921 1546,3927 1540,3926 1540,3920 1534,3917 1518,3916 1505,3918 1486,3908 1492,3897 1504,3893 1507,3884 1499,3873 1489,3862 1483,3858 1478,3851 1475,3839 1451,3828 1443,3828 1423,3821 1410,3821 1410,3827 1416,3833 1418,3839 1416,3845 1411,3851 1409,3858 1417,3860 1421,3867 1420,3869 1397,3882 1386,3929 1343,3973 1315,3947 1295,3927 1290,3925 1280,3930 1265,3957 1265,3952 1223,3948 1167,3948 1149,3940 1141,3924 1142,3879 1145,3870 1154,3856 1178,3832 1196,3817 1242,3798 1254,3780 1247,3748 1251,3732 1252,3704 1234,3669 1231,3660 1213,3642 1188,3625 1175,3611 1163,3593 1128,3589 1094,3562 1097,3525 1089,3491 1089,3483 1094,3475 1102,3468 1109,3451 1116,3409 1116,3395 1103,3337 1095,3309 1089,3298 1074,3281 1040,3275 1034,3273 1026,3267 1022,3254 1020,3239 1013,3234 974,3231 965,3225 959,3216 956,3203 956,3196 960,3176 956,3170 984,3164 991,3153 980,3131 978,3112 980,3096 994,3064 992,3044 983,3022 971,3001 975,2982 993,2952 1015,2925 1024,2903 1039,2878 1061,2865 1076,2864 1103,2873 1107,2880 1116,2889 1122,2891 1132,2884 1146,2881 1154,2878 1166,2870 1175,2868 1184,2874 1230,2871 1269,2881 1283,2907 1276,2935 1278,2954 1275,2979 1292,2989 1311,3010 1361,3004 1380,3008 1392,3007 1398,2993 1401,2967 1439,2959 1445,2959 1460,2949 1508,2947 1515,2941 1515,2935 1509,2917 1494,2904 1493,2879 1506,2854 1516,2860 1511,2873 1513,2884 1523,2886 1543,2881 1568,2865 1575,2837 1590,2830 1596,2823 1624,2821 1644,2802 1639,2787 1644,2780 1654,2777 1669,2768 1675,2760 1682,2745 1687,2739 1693,2736 1699,2738 1710,2755 1716,2755 1724,2751 1730,2745 1737,2741 1742,2718 1752,2697 1795,2694 1801,2710 1823,2710 1849,2717 1868,2727 1876,2728 1882,2731 1888,2731 1896,2727 1904,2719 1901,2701 1906,2686 1911,2679 1925,2669 1937,2665 1952,2664 1964,2663 1974,2661 1982,2657 1988,2651 1997,2637 2004,2617 2005,2607 2017,2600 2023,2597 2027,2598 2044,2606 2080,2603 2096,2593 2118,2562 2128,2567 2138,2577 2143,2594 2163,2600 2172,2600 2184,2605 2190,2616 2186,2645 2187,2680 2188,2695 2191,2703 2202,2711 2209,2713 2228,2697 2258,2682 2265,2678 2271,2672 2278,2669 2293,2653 2299,2652 2314,2661 2330,2669 2339,2670 2352,2662 2371,2648 2382,2638 2400,2648 2408,2648 2414,2632 2423,2626 2432,2622 2437,2610 2432,2593 2431,2582 2438,2575 2458,2572 2467,2572 2475,2575 2492,2572 2499,2569 2514,2561 2525,2550 2531,2545 2544,2539 2556,2535 2565,2529 2580,2533 " class="polyStyle" id="440111" style="fill:#d4ecb2"/>
<polygon points="1598,1595 1601,1609 1605,1619 1607,1621 1610,1623 1613,1623 1614,1621 1614,1618 1619,1619 1633,1640 1656,1656 1690,1655 1695,1658 1696,1662 1699,1666 1701,1669 1704,1671 1712,1674 1720,1676 1730,1677 1740,1677 1748,1677 1758,1677 1766,1677 1775,1678 1781,1683 1787,1689 1793,1695 1799,1702 1803,1707 1809,1711 1814,1715 1820,1717 1827,1719 1836,1719 1844,1719 1854,1718 1858,1717 1861,1717 1865,1717 1873,1721 1907,1748 1921,1758 1908,1773 1829,1782 1809,1803 1830,1825 1864,1824 1869,1825 1875,1827 1882,1829 1895,1839 1908,1848 1920,1858 1935,1866 1940,1869 1946,1871 1951,1874 1956,1877 1958,1884 1958,1891 1960,1899 1961,1907 1961,1915 1964,1922 1965,1925 1968,1935 1972,1963 1976,1966 1982,1972 1997,1969 2006,1965 2020,1963 2022,1958 2024,1952 2032,1947 2040,1944 2053,1948 2068,1954 2071,1953 2080,1952 2099,1957 2111,1959 2122,1968 2132,1975 2137,1974 2140,1969 2142,1963 2144,1954 2179,1943 2195,1949 2205,1956 2217,1956 2236,1955 2249,1954 2261,1943 2265,1943 2270,1941 2275,1939 2282,1936 2286,1934 2290,1933 2295,1935 2299,1938 2303,1941 2308,1944 2316,1948 2324,1951 2333,1955 2342,1956 2345,1958 2350,1958 2353,1962 2354,1966 2355,1970 2357,1975 2359,1979 2360,1982 2361,1987 2360,1991 2361,1995 2364,2000 2384,2023 2396,2021 2406,2018 2414,2024 2412,2034 2411,2040 2407,2044 2416,2047 2422,2047 2426,2044 2436,2041 2440,2041 2440,2048 2435,2055 2428,2061 2428,2065 2424,2067 2417,2063 2409,2056 2403,2058 2397,2059 2397,2062 2405,2071 2406,2079 2403,2090 2410,2099 2426,2104 2432,2108 2435,2119 2438,2131 2430,2136 2421,2145 2414,2155 2399,2171 2394,2177 2389,2187 2380,2198 2384,2215 2389,2246 2391,2249 2395,2253 2401,2255 2409,2258 2416,2259 2424,2259 2432,2259 2441,2260 2452,2260 2456,2260 2469,2248 2477,2251 2481,2253 2490,2257 2501,2262 2506,2275 2506,2287 2509,2308 2523,2319 2525,2324 2539,2326 2544,2332 2539,2349 2527,2361 2523,2367 2519,2371 2514,2376 2510,2379 2505,2384 2499,2388 2494,2392 2491,2396 2489,2400 2480,2416 2491,2428 2500,2431 2516,2434 2541,2445 2558,2458 2564,2467 2567,2473 2575,2480 2581,2486 2586,2493 2590,2504 2588,2510 2583,2516 2576,2522 2573,2524 2565,2529 2556,2535 2544,2539 2531,2545 2525,2550 2514,2561 2499,2569 2492,2572 2475,2575 2467,2572 2458,2572 2438,2575 2431,2582 2432,2593 2437,2610 2432,2622 2423,2626 2414,2632 2408,2648 2400,2648 2382,2638 2371,2648 2352,2662 2339,2670 2330,2669 2314,2661 2299,2652 2293,2653 2278,2669 2271,2672 2265,2678 2258,2682 2228,2697 2209,2713 2202,2711 2191,2703 2188,2695 2187,2680 2186,2645 2190,2616 2184,2605 2172,2600 2163,2600 2143,2594 2138,2577 2128,2567 2118,2562 2096,2593 2080,2603 2044,2606 2027,2598 2023,2597 2017,2600 2005,2607 2004,2617 1997,2637 1988,2651 1982,2657 1974,2661 1964,2663 1952,2664 1937,2665 1925,2669 1911,2679 1906,2686 1901,2701 1904,2719 1896,2727 1888,2731 1882,2731 1876,2728 1868,2727 1849,2717 1823,2710 1801,2710 1795,2694 1752,2697 1742,2718 1737,2741 1730,2745 1724,2751 1716,2755 1710,2755 1699,2738 1693,2736 1687,2739 1682,2745 1675,2760 1669,2768 1654,2777 1644,2780 1639,2787 1644,2802 1624,2821 1596,2823 1590,2830 1575,2837 1568,2865 1543,2881 1523,2886 1513,2884 1511,2873 1516,2860 1506,2854 1493,2879 1494,2904 1509,2917 1515,2935 1515,2941 1508,2947 1460,2949 1445,2959 1439,2959 1401,2967 1398,2993 1392,3007 1380,3008 1361,3004 1311,3010 1292,2989 1275,2979 1278,2954 1276,2935 1283,2907 1269,2881 1230,2871 1184,2874 1175,2868 1166,2870 1154,2878 1146,2881 1132,2884 1122,2891 1116,2889 1107,2880 1103,2873 1076,2864 1061,2865 1039,2878 1024,2903 1015,2925 993,2952 975,2982 971,3001 983,3022 992,3044 994,3064 980,3096 978,3112 980,3131 991,3153 984,3164 956,3170 950,3164 937,3151 911,3147 908,3146 880,3126 846,3093 831,3126 828,3133 778,3136 775,3129 772,3117 735,3153 735,3158 748,3159 750,3163 752,3169 755,3175 756,3180 757,3183 757,3186 753,3192 734,3215 701,3208 694,3207 687,3207 678,3209 671,3211 665,3213 659,3217 656,3220 654,3223 651,3227 649,3230 642,3234 635,3237 627,3239 620,3240 608,3241 596,3242 584,3242 573,3243 569,3244 565,3247 563,3252 564,3257 569,3266 574,3272 578,3278 583,3285 584,3292 586,3297 587,3304 589,3310 591,3316 594,3320 597,3325 601,3329 606,3337 609,3343 613,3351 616,3358 616,3365 616,3373 616,3380 616,3387 614,3395 614,3401 612,3407 610,3412 605,3416 600,3417 594,3418 587,3418 580,3420 574,3421 568,3422 561,3422 558,3422 553,3420 549,3418 546,3417 540,3413 534,3411 527,3408 522,3406 516,3407 510,3408 503,3410 498,3410 494,3410 491,3410 488,3410 485,3409 478,3408 470,3407 463,3406 457,3406 452,3407 449,3410 444,3412 441,3415 430,3411 431,3405 445,3389 460,3369 463,3335 463,3327 464,3318 466,3305 468,3298 469,3283 466,3272 455,3263 451,3263 447,3261 436,3258 420,3246 396,3218 382,3196 379,3184 371,3175 371,3160 372,3146 374,3134 379,3115 382,3100 387,3089 399,3085 399,3075 394,3065 386,3061 375,3058 362,3058 361,3065 357,3066 341,3063 336,3057 331,3050 324,3041 332,3028 333,3026 340,3008 344,2998 354,2987 365,2979 378,2968 386,2955 398,2943 423,2910 424,2907 422,2901 419,2895 415,2890 411,2886 403,2883 396,2880 388,2879 381,2879 375,2882 370,2885 365,2889 361,2893 349,2903 344,2907 339,2920 325,2934 311,2939 304,2945 299,2959 290,2961 283,2954 280,2944 279,2939 274,2931 271,2922 273,2904 268,2900 265,2898 261,2896 258,2895 254,2896 251,2900 247,2901 244,2903 240,2904 237,2903 232,2901 229,2900 224,2897 219,2895 213,2893 209,2890 204,2889 200,2889 196,2888 192,2888 184,2890 176,2892 169,2893 163,2893 157,2892 151,2889 147,2886 143,2881 140,2878 140,2873 140,2864 140,2855 140,2846 141,2837 140,2833 139,2829 137,2825 135,2819 131,2815 128,2812 124,2809 115,2808 109,2796 115,2790 123,2782 127,2776 120,2771 110,2769 113,2758 118,2752 129,2749 137,2748 137,2737 129,2733 127,2725 131,2717 140,2716 147,2713 153,2711 151,2703 151,2699 143,2689 135,2685 134,2682 137,2675 139,2671 142,2669 145,2665 148,2661 151,2658 154,2656 158,2656 172,2648 176,2645 184,2641 192,2638 200,2638 203,2638 209,2636 213,2634 207,2628 203,2626 198,2624 199,2616 195,2613 185,2610 177,2594 178,2589 177,2586 171,2578 161,2578 157,2575 154,2571 151,2566 149,2561 147,2555 146,2548 143,2541 140,2535 138,2527 135,2520 131,2517 127,2515 125,2512 121,2508 118,2504 116,2500 116,2495 120,2490 124,2487 150,2474 151,2465 153,2449 147,2445 140,2444 133,2448 120,2452 106,2456 101,2457 96,2469 88,2485 78,2495 67,2497 58,2496 47,2503 39,2513 30,2523 25,2533 9,2535 3,2527 0,2517 1,2502 4,2488 9,2476 14,2459 17,2443 26,2435 36,2432 42,2434 49,2436 55,2434 66,2424 72,2415 76,2403 78,2400 81,2393 86,2370 85,2357 83,2347 93,2348 101,2341 105,2339 110,2341 130,2341 145,2346 154,2342 164,2337 174,2331 182,2337 190,2344 197,2350 214,2356 230,2355 241,2351 266,2341 269,2345 287,2363 291,2357 278,2342 302,2336 306,2327 297,2326 297,2320 338,2302 344,2308 350,2314 395,2308 396,2304 400,2294 421,2296 451,2316 457,2314 460,2313 485,2307 508,2286 518,2260 533,2250 554,2245 582,2241 590,2220 611,2204 625,2194 641,2199 651,2201 671,2182 694,2186 702,2190 713,2189 721,2179 743,2172 751,2177 783,2159 796,2142 781,2126 775,2120 779,2117 786,2113 792,2112 803,2133 823,2124 839,2111 849,2103 866,2110 896,2120 943,2125 935,2134 952,2142 974,2152 991,2144 998,2141 1002,2131 1001,2124 1002,2121 1014,2116 1019,2115 1033,2122 1054,2101 1062,2108 1057,2083 1068,2065 1069,2070 1068,2095 1067,2104 1086,2100 1167,2092 1174,2086 1178,2082 1178,2076 1178,2070 1162,2050 1173,2043 1185,2034 1192,2013 1196,2010 1206,2006 1209,2003 1213,2000 1233,1980 1237,1972 1260,1980 1270,1964 1266,1946 1259,1941 1238,1926 1246,1914 1249,1910 1253,1907 1256,1904 1258,1901 1253,1894 1247,1887 1239,1879 1231,1873 1225,1869 1219,1864 1213,1859 1210,1857 1214,1834 1219,1820 1223,1803 1218,1783 1221,1781 1229,1776 1237,1769 1247,1762 1257,1756 1268,1749 1279,1745 1285,1745 1292,1745 1301,1746 1308,1746 1314,1745 1321,1741 1325,1740 1342,1737 1343,1713 1343,1702 1346,1693 1359,1695 1372,1699 1384,1709 1394,1713 1410,1715 1419,1727 1423,1732 1429,1731 1433,1724 1436,1724 1436,1715 1436,1706 1426,1682 1430,1675 1409,1634 1422,1631 1449,1658 1458,1651 1466,1644 1475,1638 1478,1635 1484,1632 1489,1629 1496,1627 1502,1627 1509,1627 1516,1627 1523,1626 1530,1624 1535,1622 1541,1619 1548,1613 1552,1607 1558,1600 1568,1596 1579,1594 1589,1586 1594,1591 " class="polyStyle" id="440114" style="fill:#f6f67b"/>
<polygon points="4376,1574 4379,1577 4383,1578 4387,1580 4394,1580 4399,1580 4405,1579 4410,1579 4416,1577 4421,1576 4426,1576 4438,1580 4452,1587 4464,1594 4478,1601 4485,1604 4493,1607 4500,1611 4506,1615 4510,1623 4510,1631 4514,1640 4517,1645 4515,1653 4513,1661 4508,1669 4505,1676 4503,1683 4500,1697 4502,1704 4505,1709 4509,1713 4514,1717 4520,1720 4523,1722 4526,1725 4528,1727 4527,1731 4523,1734 4519,1735 4516,1738 4510,1742 4503,1746 4498,1750 4494,1754 4489,1762 4485,1769 4482,1777 4479,1785 4477,1788 4475,1792 4474,1796 4473,1800 4471,1804 4471,1808 4472,1812 4475,1814 4478,1817 4484,1818 4490,1819 4496,1820 4503,1823 4510,1826 4515,1830 4521,1833 4524,1838 4526,1844 4528,1849 4530,1854 4530,1859 4531,1863 4531,1867 4533,1870 4534,1873 4537,1876 4541,1879 4544,1882 4545,1885 4547,1888 4548,1894 4548,1899 4547,1904 4548,1908 4549,1913 4551,1919 4553,1924 4555,1929 4555,1934 4555,1937 4556,1941 4557,1945 4559,1950 4562,1955 4565,1958 4571,1961 4577,1966 4583,1970 4590,1973 4599,1975 4605,1977 4613,1978 4620,1979 4628,1980 4635,1982 4643,1986 4650,1989 4657,1998 4659,2005 4655,2015 4654,2021 4654,2027 4655,2031 4656,2037 4658,2042 4661,2047 4665,2051 4671,2059 4675,2063 4696,2069 4705,2079 4710,2090 4713,2091 4721,2094 4727,2097 4731,2100 4736,2103 4741,2106 4744,2110 4747,2115 4750,2120 4753,2125 4754,2130 4756,2133 4759,2137 4762,2140 4766,2144 4771,2146 4778,2148 4784,2149 4788,2150 4792,2149 4797,2149 4802,2148 4811,2149 4823,2149 4842,2163 4847,2182 4859,2194 4876,2191 4907,2190 4911,2191 4936,2196 4940,2199 4947,2205 4935,2218 4923,2240 4907,2253 4900,2254 4878,2249 4868,2248 4880,2274 4894,2280 4909,2284 4939,2275 4947,2273 4957,2272 4969,2276 4984,2277 4995,2272 5010,2267 5018,2265 5027,2265 5041,2271 5049,2275 5057,2275 5066,2274 5078,2271 5081,2272 5084,2274 5088,2276 5092,2279 5095,2283 5117,2304 5111,2310 5090,2331 5081,2341 5058,2345 5030,2343 5014,2342 4985,2335 4982,2335 4979,2336 4977,2341 4976,2345 4976,2350 4976,2355 4975,2364 4974,2372 4974,2381 4975,2388 4975,2392 4977,2396 4978,2400 4980,2403 4980,2407 4981,2410 4981,2414 4982,2417 4973,2451 4979,2465 4984,2472 4990,2478 4996,2485 5003,2491 5006,2496 5009,2501 5013,2505 5018,2508 5024,2510 5032,2510 5040,2510 5048,2508 5062,2510 5085,2518 5109,2514 5131,2500 5139,2503 5144,2507 5148,2512 5149,2517 5149,2524 5147,2530 5144,2535 5140,2539 5137,2543 5133,2546 5131,2549 5130,2555 5130,2559 5132,2565 5134,2570 5136,2573 5138,2577 5140,2580 5141,2583 5139,2588 5137,2591 5134,2594 5132,2598 5130,2602 5129,2605 5128,2610 5129,2617 5130,2623 5133,2627 5137,2631 5142,2637 5147,2641 5154,2645 5161,2649 5169,2655 5178,2659 5186,2665 5195,2670 5199,2673 5202,2676 5204,2680 5208,2682 5209,2687 5209,2691 5211,2695 5210,2699 5208,2704 5206,2709 5204,2713 5200,2717 5197,2722 5195,2726 5192,2729 5188,2731 5184,2734 5180,2734 5176,2735 5172,2736 5160,2743 5147,2749 5136,2757 5124,2765 5119,2769 5114,2777 5119,2790 5130,2807 5138,2819 5143,2836 5154,2851 5160,2867 5161,2891 5171,2904 5202,2924 5213,2932 5216,2942 5216,2945 5215,2948 5214,2951 5211,2954 5206,2958 5194,2972 5193,2979 5187,2987 5178,3000 5158,2998 5157,3001 5155,3004 5152,3005 5147,3006 5142,3006 5138,3005 5134,3004 5131,3002 5128,3002 5127,3006 5127,3009 5130,3013 5133,3016 5137,3020 5142,3022 5146,3025 5151,3028 5152,3037 5153,3040 5151,3066 5169,3085 5173,3100 5189,3119 5189,3138 5188,3141 5187,3148 5188,3158 5189,3164 5192,3178 5187,3176 5182,3173 5175,3172 5170,3172 5161,3174 5153,3174 5134,3163 5120,3159 5100,3160 5096,3156 5096,3141 5086,3133 5052,3115 5020,3103 5012,3097 5001,3090 5006,3072 5015,3042 5010,3031 5009,3014 5008,3010 5006,3006 5003,3002 4996,2997 4988,2993 4979,2990 4971,2986 4963,2985 4955,2982 4947,2982 4942,2981 4918,2965 4905,2950 4887,2951 4860,2959 4846,2965 4824,2961 4794,2953 4767,2948 4764,2947 4758,2947 4755,2945 4749,2942 4744,2937 4739,2933 4734,2930 4725,2930 4716,2930 4708,2932 4700,2934 4694,2937 4689,2939 4685,2943 4682,2947 4677,2953 4675,2960 4673,2967 4671,2972 4667,2978 4663,2982 4659,2986 4657,2991 4656,2994 4655,2997 4655,3001 4655,3008 4656,3014 4657,3019 4660,3025 4671,3033 4675,3043 4674,3048 4676,3055 4680,3058 4685,3059 4690,3059 4694,3059 4696,3060 4699,3061 4698,3064 4695,3068 4692,3075 4688,3081 4686,3086 4684,3091 4682,3119 4676,3134 4669,3145 4665,3166 4665,3178 4660,3195 4651,3204 4651,3212 4663,3226 4665,3231 4660,3251 4656,3257 4652,3262 4647,3268 4644,3274 4641,3279 4638,3285 4636,3290 4633,3294 4627,3299 4623,3304 4618,3308 4614,3311 4609,3315 4606,3318 4603,3321 4599,3324 4596,3327 4594,3330 4592,3334 4592,3337 4592,3340 4595,3344 4599,3345 4603,3346 4606,3348 4609,3348 4614,3350 4620,3353 4626,3356 4631,3359 4634,3363 4637,3366 4641,3369 4645,3372 4651,3376 4657,3377 4663,3380 4670,3382 4675,3384 4678,3389 4683,3394 4685,3397 4679,3415 4673,3424 4662,3431 4659,3454 4675,3476 4685,3508 4691,3519 4703,3542 4713,3558 4728,3566 4731,3577 4728,3602 4721,3607 4700,3607 4679,3601 4677,3604 4668,3643 4650,3651 4647,3657 4644,3662 4640,3666 4640,3670 4637,3674 4637,3678 4635,3681 4635,3684 4635,3687 4635,3690 4633,3694 4630,3697 4628,3701 4628,3705 4629,3709 4631,3711 4632,3713 4634,3716 4637,3721 4636,3731 4636,3735 4646,3754 4654,3771 4675,3778 4699,3772 4718,3782 4720,3790 4712,3804 4705,3822 4701,3828 4700,3832 4688,3845 4673,3853 4661,3856 4635,3843 4622,3840 4614,3838 4590,3837 4583,3839 4576,3843 4566,3850 4560,3863 4547,3870 4543,3870 4520,3875 4506,3878 4495,3890 4490,3904 4479,3913 4458,3920 4455,3923 4453,3926 4452,3929 4449,3939 4449,3943 4454,3957 4451,3965 4443,3977 4437,3988 4437,3996 4441,4001 4454,4001 4456,4006 4451,4014 4453,4020 4445,4022 4438,4014 4435,4017 4437,4030 4430,4048 4422,4048 4421,4052 4419,4062 4414,4077 4403,4081 4375,4068 4343,4048 4304,4036 4279,4022 4252,4018 4227,4018 4197,4025 4165,4027 4153,4028 4132,4021 4101,4008 4065,4010 4020,4015 3991,4012 3961,4002 3931,3980 3902,3962 3873,3958 3844,3955 3818,3953 3803,3956 3779,3972 3771,3980 3715,4013 3660,4056 3622,4074 3557,4080 3519,4104 3509,4109 3506,4105 3515,4082 3509,4074 3496,4079 3481,4078 3472,4064 3464,4066 3459,4073 3451,4081 3431,4090 3423,4095 3421,4102 3430,4118 3425,4140 3410,4145 3359,4141 3322,4142 3287,4145 3257,4149 3231,4161 3199,4190 3171,4215 3152,4223 3127,4234 3110,4235 3085,4236 3058,4240 3058,4237 3056,4217 3042,4201 3032,4198 3030,4183 3026,4177 3019,4179 2998,4171 2972,4145 2971,4139 2973,4132 2968,4126 2956,4126 2956,4110 2962,4100 2968,4100 2979,4084 2989,4079 2996,4072 3001,4055 2995,4045 2996,4020 2985,3997 2965,3988 2959,3984 2967,3971 2967,3965 2971,3959 2972,3953 2978,3950 2981,3944 2969,3939 2965,3933 2953,3927 2952,3921 2969,3904 2957,3880 2957,3868 2954,3862 2947,3857 2942,3845 2949,3830 2969,3804 2985,3802 2996,3807 3005,3816 3024,3827 3032,3824 3048,3812 3055,3813 3061,3811 3098,3783 3114,3750 3102,3739 3098,3733 3108,3724 3109,3718 3106,3710 3092,3699 3087,3686 3092,3680 3103,3674 3110,3672 3116,3673 3122,3669 3123,3661 3111,3652 3111,3644 3114,3638 3125,3644 3125,3638 3130,3632 3123,3624 3125,3615 3147,3610 3143,3594 3137,3582 3120,3564 3130,3550 3106,3530 3100,3512 3109,3494 3158,3490 3183,3471 3190,3469 3202,3469 3208,3467 3214,3461 3216,3455 3222,3450 3220,3443 3208,3441 3200,3435 3209,3429 3215,3415 3207,3413 3195,3422 3192,3416 3186,3413 3186,3405 3189,3399 3196,3391 3203,3389 3209,3384 3209,3377 3213,3370 3206,3363 3192,3338 3194,3332 3197,3326 3212,3318 3228,3305 3232,3293 3232,3287 3229,3281 3223,3279 3217,3274 3216,3262 3203,3252 3201,3236 3185,3230 3170,3235 3149,3232 3148,3214 3155,3202 3184,3209 3190,3206 3194,3200 3191,3178 3185,3181 3183,3187 3176,3189 3171,3182 3173,3163 3169,3155 3171,3148 3178,3138 3167,3106 3165,3085 3194,3094 3201,3100 3204,3110 3210,3114 3200,3130 3200,3137 3212,3133 3226,3131 3247,3117 3246,3102 3240,3098 3227,3099 3213,3093 3206,3092 3184,3076 3176,3074 3171,3067 3160,3065 3157,3046 3152,3034 3155,3022 3154,3016 3150,3010 3144,3010 3130,2989 3128,2982 3134,2972 3162,2951 3164,2945 3150,2938 3154,2927 3148,2918 3132,2906 3117,2889 3094,2878 3076,2864 3076,2847 3059,2828 3045,2824 3031,2816 3027,2810 3030,2804 3034,2797 3036,2791 3035,2782 3038,2770 3037,2751 3045,2729 3048,2713 3064,2711 3089,2720 3092,2718 3094,2714 3093,2709 3092,2704 3089,2699 3086,2692 3084,2688 3083,2685 3083,2682 3083,2675 3085,2667 3089,2660 3092,2652 3100,2642 3108,2632 3118,2623 3129,2612 3133,2610 3137,2607 3137,2601 3137,2594 3139,2588 3140,2580 3140,2576 3143,2572 3145,2569 3149,2567 3154,2564 3160,2560 3166,2557 3171,2555 3176,2553 3182,2549 3187,2545 3195,2537 3203,2526 3209,2517 3217,2504 3220,2499 3222,2495 3225,2492 3233,2490 3253,2495 3276,2476 3293,2461 3293,2452 3317,2441 3323,2431 3324,2414 3330,2409 3353,2407 3356,2407 3378,2393 3385,2387 3389,2381 3393,2376 3398,2369 3405,2363 3412,2357 3419,2352 3427,2348 3435,2347 3443,2346 3451,2347 3461,2348 3468,2351 3475,2353 3481,2355 3505,2348 3520,2349 3535,2331 3537,2328 3540,2320 3545,2317 3550,2313 3555,2311 3561,2307 3564,2305 3568,2302 3570,2299 3573,2295 3574,2288 3575,2280 3575,2273 3576,2265 3576,2262 3578,2257 3578,2253 3581,2248 3583,2235 3595,2237 3612,2234 3625,2220 3631,2211 3627,2198 3631,2193 3635,2191 3639,2188 3644,2185 3647,2185 3651,2186 3655,2185 3660,2181 3665,2175 3671,2169 3676,2162 3676,2158 3678,2157 3681,2157 3684,2157 3689,2157 3692,2157 3695,2158 3719,2146 3735,2132 3740,2117 3752,2107 3767,2100 3771,2096 3776,2093 3782,2090 3785,2088 3800,2082 3804,2076 3792,2059 3780,2045 3780,2042 3781,2039 3783,2036 3785,2032 3789,2024 3795,2017 3801,2010 3806,2002 3811,1991 3817,1980 3823,1969 3830,1956 3834,1951 3837,1950 3841,1948 3845,1949 3849,1950 3853,1951 3858,1952 3863,1953 3868,1953 3872,1953 3878,1951 3882,1949 3882,1945 3882,1940 3882,1935 3882,1929 3882,1925 3882,1921 3882,1918 3881,1912 3879,1908 3877,1904 3875,1900 3874,1897 3874,1893 3874,1889 3874,1885 3874,1882 3874,1877 3872,1873 3868,1867 3864,1838 3865,1816 3871,1812 3878,1808 3886,1806 3890,1805 3896,1804 3899,1803 3905,1801 3908,1798 3912,1794 3914,1789 3917,1784 3919,1779 3919,1773 3920,1768 3922,1762 3928,1749 3934,1740 3939,1719 3954,1702 3957,1690 3957,1680 3958,1672 3955,1659 3959,1654 3989,1635 4034,1620 4064,1605 4075,1596 4106,1596 4134,1600 4147,1602 4164,1608 4177,1603 4189,1596 4196,1595 4200,1600 4209,1605 4222,1614 4234,1612 4272,1605 4286,1602 4302,1604 4309,1593 4323,1587 4350,1581 4357,1574 4370,1566 4373,1570 " class="polyStyle" id="440118" style="fill:#d4ecb2"/>
<polygon points="5258,17 5265,18 5271,16 5277,23 5283,24 5284,27 5285,31 5289,35 5296,36 5298,39 5298,47 5301,49 5305,44 5307,41 5319,42 5325,46 5332,47 5339,51 5343,51 5349,51 5353,54 5358,60 5365,61 5368,62 5372,64 5373,69 5377,71 5376,81 5373,84 5376,89 5376,92 5368,104 5364,114 5366,122 5365,134 5374,147 5380,150 5389,157 5390,176 5392,181 5389,186 5390,189 5394,192 5399,198 5399,206 5405,207 5412,213 5417,216 5421,217 5424,225 5422,230 5422,238 5426,241 5426,250 5423,257 5427,265 5423,269 5421,277 5413,289 5412,298 5417,308 5421,309 5433,312 5438,317 5440,323 5446,328 5445,337 5447,348 5452,357 5451,362 5452,372 5457,382 5461,382 5463,387 5460,392 5463,398 5475,411 5477,414 5482,414 5486,418 5488,422 5496,432 5492,438 5484,438 5481,443 5479,463 5471,466 5471,479 5468,482 5468,485 5467,503 5469,516 5448,522 5435,532 5409,544 5399,558 5392,572 5389,582 5385,599 5396,626 5423,631 5447,649 5423,666 5394,674 5392,688 5394,698 5403,704 5439,728 5477,735 5489,746 5505,782 5507,787 5498,783 5446,789 5428,794 5413,802 5400,810 5396,813 5394,817 5388,823 5386,839 5364,855 5345,865 5337,889 5332,903 5323,904 5314,885 5303,875 5304,863 5299,851 5291,853 5281,854 5258,851 5259,844 5260,840 5265,816 5287,805 5293,792 5296,774 5291,773 5274,776 5261,784 5255,799 5237,819 5234,821 5226,827 5221,833 5217,838 5213,843 5209,846 5202,850 5196,853 5190,855 5184,857 5176,859 5170,861 5164,862 5158,862 5148,862 5140,862 5132,862 5123,862 5113,865 5104,868 5095,872 5089,876 5087,881 5087,885 5087,891 5089,896 5090,904 5090,913 5091,921 5091,929 5089,936 5086,943 5085,947 5079,952 5073,969 5061,972 5039,966 5014,974 5010,978 4999,992 4988,1001 4972,996 4954,979 4945,978 4936,977 4929,976 4921,974 4916,974 4913,974 4909,974 4905,978 4903,983 4898,987 4898,999 4891,1004 4872,1002 4847,1010 4830,1018 4809,1017 4805,1021 4803,1025 4797,1038 4792,1049 4788,1056 4771,1082 4759,1086 4729,1086 4713,1087 4703,1105 4705,1127 4703,1137 4697,1164 4680,1182 4665,1208 4660,1213 4653,1219 4645,1224 4636,1230 4627,1234 4618,1239 4609,1242 4602,1245 4595,1245 4588,1247 4581,1247 4572,1248 4564,1248 4555,1248 4548,1248 4521,1259 4455,1266 4447,1268 4431,1291 4472,1313 4472,1326 4428,1317 4427,1326 4421,1343 4418,1362 4408,1388 4378,1391 4338,1385 4302,1384 4301,1386 4301,1395 4306,1402 4308,1410 4316,1419 4320,1421 4325,1422 4330,1423 4337,1423 4342,1424 4347,1425 4348,1429 4350,1434 4347,1439 4343,1444 4340,1451 4339,1456 4337,1461 4336,1466 4333,1469 4330,1472 4325,1475 4322,1476 4317,1478 4311,1478 4306,1479 4301,1479 4297,1482 4293,1485 4289,1489 4289,1492 4288,1495 4287,1499 4283,1506 4280,1512 4278,1517 4277,1520 4279,1522 4283,1525 4286,1526 4287,1531 4289,1537 4290,1541 4293,1545 4296,1548 4300,1550 4304,1550 4308,1549 4312,1546 4316,1543 4325,1541 4334,1542 4347,1543 4358,1544 4369,1544 4372,1547 4375,1550 4376,1555 4375,1559 4373,1563 4370,1566 4357,1574 4350,1581 4323,1587 4309,1593 4302,1604 4286,1602 4272,1605 4234,1612 4222,1614 4209,1605 4200,1600 4196,1595 4189,1596 4177,1603 4164,1608 4147,1602 4134,1600 4106,1596 4075,1596 4064,1605 4034,1620 3989,1635 3959,1654 3955,1659 3958,1672 3957,1680 3957,1690 3954,1702 3939,1719 3934,1740 3928,1749 3922,1762 3920,1768 3919,1773 3919,1779 3917,1784 3914,1789 3912,1794 3908,1798 3905,1801 3899,1803 3896,1804 3890,1805 3886,1806 3878,1808 3871,1812 3865,1816 3864,1838 3868,1867 3872,1873 3874,1877 3874,1882 3874,1885 3874,1889 3874,1893 3874,1897 3875,1900 3877,1904 3879,1908 3881,1912 3882,1918 3882,1921 3882,1925 3882,1929 3882,1935 3882,1940 3882,1945 3882,1949 3878,1951 3872,1953 3868,1953 3863,1953 3858,1952 3853,1951 3849,1950 3845,1949 3841,1948 3837,1950 3834,1951 3830,1956 3823,1969 3817,1980 3811,1991 3806,2002 3801,2010 3795,2017 3789,2024 3785,2032 3783,2036 3781,2039 3780,2042 3780,2045 3792,2059 3804,2076 3800,2082 3785,2088 3782,2090 3776,2093 3771,2096 3767,2100 3752,2107 3740,2117 3735,2132 3719,2146 3695,2158 3692,2157 3689,2157 3684,2157 3681,2157 3678,2157 3676,2158 3676,2162 3671,2169 3665,2175 3660,2181 3655,2185 3651,2186 3647,2185 3644,2185 3639,2188 3635,2191 3631,2193 3627,2198 3631,2211 3625,2220 3612,2234 3595,2237 3583,2235 3581,2248 3578,2253 3578,2257 3576,2262 3576,2265 3575,2273 3575,2280 3574,2288 3573,2295 3570,2299 3568,2302 3564,2305 3561,2307 3555,2311 3550,2313 3545,2317 3540,2320 3537,2328 3535,2331 3520,2349 3505,2348 3481,2355 3475,2353 3468,2351 3461,2348 3451,2347 3443,2346 3435,2347 3427,2348 3419,2352 3412,2357 3405,2363 3398,2369 3393,2376 3389,2381 3385,2387 3378,2393 3356,2407 3353,2407 3330,2409 3324,2414 3323,2431 3317,2441 3293,2452 3293,2461 3276,2476 3253,2495 3233,2490 3225,2492 3222,2495 3220,2499 3217,2504 3209,2517 3203,2526 3195,2537 3187,2545 3182,2549 3176,2553 3171,2555 3166,2557 3160,2560 3154,2564 3149,2567 3145,2569 3143,2572 3140,2576 3140,2580 3139,2588 3137,2594 3137,2601 3137,2607 3133,2610 3129,2612 3118,2623 3108,2632 3100,2642 3092,2652 3089,2660 3085,2667 3083,2675 3083,2682 3083,2685 3084,2688 3086,2692 3089,2699 3092,2704 3093,2709 3094,2714 3092,2718 3089,2720 3064,2711 3048,2713 3045,2729 3037,2751 3038,2770 3035,2782 3036,2791 3034,2797 3030,2804 3027,2810 2997,2826 2979,2825 2972,2810 2961,2802 2947,2787 2934,2778 2923,2761 2904,2748 2900,2731 2886,2740 2880,2740 2868,2736 2855,2728 2823,2715 2808,2698 2796,2691 2779,2689 2778,2677 2782,2641 2775,2625 2722,2615 2699,2607 2689,2593 2684,2593 2667,2565 2624,2547 2612,2544 2599,2536 2580,2533 2565,2529 2573,2524 2576,2522 2583,2516 2588,2510 2590,2504 2586,2493 2581,2486 2575,2480 2567,2473 2564,2467 2558,2458 2541,2445 2516,2434 2500,2431 2491,2428 2480,2416 2489,2400 2491,2396 2494,2392 2499,2388 2505,2384 2510,2379 2514,2376 2519,2371 2523,2367 2527,2361 2539,2349 2544,2332 2539,2326 2525,2324 2523,2319 2509,2308 2506,2287 2506,2275 2501,2262 2490,2257 2481,2253 2477,2251 2469,2248 2456,2260 2452,2260 2441,2260 2432,2259 2424,2259 2416,2259 2409,2258 2401,2255 2395,2253 2391,2249 2389,2246 2384,2215 2380,2198 2389,2187 2394,2177 2399,2171 2414,2155 2421,2145 2430,2136 2438,2131 2435,2119 2432,2108 2426,2104 2410,2099 2403,2090 2406,2079 2405,2071 2397,2062 2397,2059 2403,2058 2409,2056 2417,2063 2424,2067 2428,2065 2428,2061 2435,2055 2440,2048 2440,2041 2436,2041 2426,2044 2422,2047 2416,2047 2407,2044 2411,2040 2412,2034 2414,2024 2406,2018 2396,2021 2384,2023 2364,2000 2361,1995 2360,1991 2361,1987 2360,1982 2359,1979 2357,1975 2355,1970 2354,1966 2353,1962 2350,1958 2345,1958 2342,1956 2333,1955 2324,1951 2316,1948 2308,1944 2303,1941 2299,1938 2295,1935 2290,1933 2286,1934 2282,1936 2275,1939 2270,1941 2265,1943 2261,1943 2249,1954 2236,1955 2217,1956 2205,1956 2195,1949 2179,1943 2144,1954 2142,1963 2140,1969 2137,1974 2132,1975 2122,1968 2111,1959 2099,1957 2080,1952 2071,1953 2068,1954 2053,1948 2040,1944 2032,1947 2024,1952 2022,1958 2020,1963 2006,1965 1997,1969 1982,1972 1976,1966 1972,1963 1968,1935 1965,1925 1964,1922 1961,1915 1961,1907 1960,1899 1958,1891 1958,1884 1956,1877 1951,1874 1946,1871 1940,1869 1935,1866 1920,1858 1908,1848 1895,1839 1882,1829 1875,1827 1869,1825 1864,1824 1830,1825 1809,1803 1829,1782 1908,1773 1921,1758 1907,1748 1873,1721 1865,1717 1861,1717 1858,1717 1854,1718 1844,1719 1836,1719 1827,1719 1820,1717 1814,1715 1809,1711 1803,1707 1799,1702 1793,1695 1787,1689 1781,1683 1775,1678 1766,1677 1758,1677 1748,1677 1740,1677 1730,1677 1720,1676 1712,1674 1704,1671 1701,1669 1699,1666 1696,1662 1695,1658 1690,1655 1656,1656 1633,1640 1619,1619 1614,1618 1616,1613 1616,1610 1621,1605 1627,1601 1634,1597 1640,1593 1645,1589 1650,1587 1654,1584 1659,1580 1664,1576 1668,1570 1672,1563 1675,1556 1678,1544 1681,1531 1683,1518 1687,1505 1689,1501 1692,1497 1696,1493 1699,1490 1701,1487 1703,1484 1704,1480 1701,1476 1696,1475 1691,1474 1687,1472 1678,1470 1669,1467 1662,1464 1655,1460 1651,1458 1649,1455 1647,1452 1648,1447 1652,1445 1657,1443 1665,1442 1674,1441 1682,1440 1692,1439 1699,1438 1706,1437 1713,1435 1721,1436 1730,1438 1740,1442 1751,1446 1761,1449 1768,1450 1776,1450 1783,1450 1795,1447 1816,1448 1825,1449 1831,1448 1837,1447 1843,1444 1848,1439 1849,1435 1850,1431 1850,1425 1850,1419 1847,1411 1845,1403 1844,1395 1847,1388 1853,1387 1858,1387 1865,1387 1870,1387 1875,1385 1880,1384 1885,1380 1889,1376 1891,1367 1895,1353 1895,1344 1896,1341 1899,1338 1902,1335 1906,1333 1912,1332 1918,1331 1925,1331 1933,1330 1938,1330 1943,1330 1947,1329 1951,1326 1954,1320 1956,1314 1958,1307 1959,1299 1959,1296 1959,1292 1959,1289 1961,1286 1965,1280 1971,1274 1976,1267 1981,1261 1981,1257 1981,1252 1981,1248 1981,1243 1981,1240 1982,1237 1982,1234 1984,1231 1991,1220 1997,1208 2003,1197 2009,1185 2012,1175 2014,1165 2016,1154 2019,1144 2021,1137 2024,1131 2029,1125 2034,1118 2037,1115 2053,1121 2068,1117 2080,1105 2083,1101 2084,1096 2084,1093 2085,1089 2085,1085 2083,1066 2081,1051 2090,1034 2091,1017 2097,1010 2102,1010 2106,1012 2113,1015 2120,1017 2126,1018 2138,1018 2163,1020 2183,1017 2200,1025 2203,1030 2205,1035 2208,1040 2211,1044 2215,1046 2227,1049 2240,1048 2255,1047 2271,1045 2278,1045 2285,1045 2292,1045 2301,1044 2306,1042 2312,1039 2318,1035 2326,1032 2330,1032 2333,1033 2336,1034 2340,1038 2344,1041 2348,1046 2354,1049 2358,1051 2378,1040 2398,1031 2416,1031 2429,1041 2428,1048 2407,1054 2418,1065 2427,1065 2428,1079 2425,1087 2445,1092 2462,1104 2480,1117 2491,1115 2513,1122 2527,1126 2537,1139 2528,1151 2533,1160 2535,1165 2540,1169 2549,1178 2554,1183 2554,1201 2550,1211 2568,1223 2592,1240 2612,1246 2624,1232 2627,1233 2636,1237 2649,1241 2654,1241 2661,1241 2666,1239 2685,1254 2715,1251 2726,1246 2742,1244 2758,1253 2775,1255 2789,1250 2797,1238 2814,1234 2819,1236 2824,1237 2828,1238 2833,1237 2843,1234 2852,1229 2861,1223 2871,1217 2883,1211 2897,1204 2909,1198 2923,1190 2932,1185 2935,1183 2924,1169 2899,1169 2922,1156 2942,1152 2971,1158 2989,1158 3002,1162 3030,1187 3029,1193 3025,1208 3048,1213 3054,1221 3055,1226 3056,1231 3056,1234 3054,1239 3051,1242 3043,1248 3048,1268 3072,1260 3077,1261 3083,1266 3090,1271 3096,1276 3103,1279 3105,1282 3108,1284 3111,1286 3137,1288 3144,1289 3144,1312 3144,1320 3165,1328 3171,1331 3177,1333 3181,1335 3184,1336 3187,1336 3194,1340 3195,1346 3200,1351 3203,1350 3204,1345 3205,1337 3210,1333 3220,1319 3228,1312 3235,1304 3240,1298 3280,1270 3287,1264 3270,1248 3266,1234 3269,1227 3278,1227 3281,1217 3306,1208 3313,1205 3327,1191 3325,1182 3321,1168 3334,1158 3357,1152 3364,1151 3389,1156 3399,1142 3389,1134 3376,1124 3359,1120 3348,1106 3348,1082 3354,1079 3360,1076 3370,1074 3368,1062 3366,1051 3366,1025 3381,1012 3391,1009 3390,1005 3384,1001 3379,997 3361,970 3378,943 3390,913 3366,900 3363,890 3360,879 3357,868 3353,857 3349,848 3344,837 3338,827 3334,824 3329,821 3324,817 3319,813 3315,811 3306,808 3289,782 3284,765 3303,756 3312,745 3300,735 3285,738 3285,727 3292,725 3309,731 3347,702 3376,679 3371,662 3374,655 3380,640 3394,633 3396,626 3397,607 3402,601 3409,593 3418,587 3429,580 3440,575 3444,572 3466,564 3476,570 3476,575 3476,581 3483,578 3499,570 3504,577 3520,576 3532,589 3540,596 3559,592 3604,596 3607,598 3614,605 3629,600 3627,577 3644,536 3656,537 3670,553 3675,560 3684,560 3697,562 3710,568 3715,576 3720,584 3739,589 3774,567 3786,561 3800,562 3807,550 3808,540 3801,535 3792,529 3785,503 3782,490 3793,472 3798,446 3789,425 3775,394 3756,384 3758,372 3768,359 3775,353 3802,371 3809,361 3822,363 3835,376 3830,396 3848,389 3847,374 3851,374 3864,376 3869,386 3875,390 3892,389 3906,380 3919,369 3927,370 3935,374 3944,384 3953,393 3963,390 3984,378 3998,378 4006,366 4018,347 4021,338 4031,331 4043,308 4046,306 4052,302 4059,298 4066,295 4084,276 4097,247 4110,207 4112,203 4113,184 4120,178 4140,170 4144,158 4146,153 4165,145 4183,151 4194,152 4208,152 4217,149 4227,148 4234,152 4242,160 4244,163 4255,162 4262,159 4268,154 4275,151 4279,148 4282,142 4288,138 4294,134 4303,131 4314,126 4326,122 4336,117 4340,116 4346,113 4350,110 4355,107 4360,103 4364,98 4369,93 4375,89 4384,84 4393,79 4404,75 4416,71 4427,69 4440,68 4451,66 4464,63 4475,58 4486,52 4497,45 4508,37 4509,34 4513,31 4516,28 4520,26 4534,20 4577,19 4585,12 4594,12 4608,12 4611,21 4613,34 4622,39 4628,41 4638,46 4646,44 4654,34 4655,22 4665,15 4668,8 4671,6 4678,16 4683,21 4703,22 4712,17 4723,17 4730,19 4743,31 4748,41 4760,46 4782,43 4802,34 4815,26 4840,20 4854,25 4860,24 4876,18 4891,20 4889,30 4889,34 4900,38 4903,41 4905,45 4915,47 4921,38 4943,38 4972,16 5006,13 5017,19 5026,24 5034,19 5056,2 5064,11 5056,22 5076,20 5104,18 5119,16 5123,22 5131,34 5149,26 5178,13 5195,19 5220,17 5237,3 5242,5 5246,4 5250,0 5254,0 5252,7 " class="polyStyle" id="440117" style="fill:#ee8b94"/>
<path d="" class="polyStyle" id="431002" style="fill:#d4ecb2"/>
<path d="" class="polyStyle" id="500107" style="fill:#fbe6ef"/>
<path d="" class="polyStyle" id="430611" style="fill:#d4ecb2"/>
<path d="" class="polyStyle" id="511304" style="fill:#fbe6ef"/>
<path d="" class="polyStyle" id="340711" style="fill:#ee8b94"/>
<path d="" class="polyStyle" id="320118" style="fill:#f6f67b"/>
<path d="" class="polyStyle" id="510704" style="fill:#f6f67b"/>
<path d="" class="polyStyle" id="411502" style="fill:#ee8b94"/>
<path d="" class="polyStyle" id="320302" style="fill:#d4ecb2"/>
<path d="" class="polyStyle" id="140311" style="fill:#ee8b94"/>
<path d="" class="polyStyle" id="610802" style="fill:#ee8b94"/>
<path d="" class="polyStyle" id="120116" style="fill:#f6f67b"/>
<path d="" class="polyStyle" id="130303" style="fill:#fbe6ef"/>
<path d="" class="polyStyle" id="140211" style="fill:#f6f67b"/>
<path d="" class="polyStyle" id="150207" style="fill:#fbe6ef"/>
<path d="" class="polyStyle" id="211403" style="fill:#f6f67b"/>
<path d="" class="polyStyle" id="150802" style="fill:#f8c67d"/>
<path d="" class="polyStyle" id="210112" style="fill:#ee8b94"/>
<path d="" class="polyStyle" id="230406" style="fill:#d4ecb2"/>
<path d="" class="polyStyle" id="110113" style="fill:#fbe6ef"/>
<path d="" class="polyStyle" id="341702" style="fill:#fbe6ef"/>
<path d="" class="polyStyle" id="420303" style="fill:#ee8b94"/>
<path d="" class="polyStyle" id="340702" style="fill:#d4ecb2"/>
<path d="" class="polyStyle" id="421002" style="fill:#f6f67b"/>
<path d="" class="polyStyle" id="420117" style="fill:#f6f67b"/>
<polygon points="3354,6262 3349,6259 3346,6257 3343,6254 3339,6251 3334,6246 3326,6240 3318,6235 3307,6227 3304,6224 3301,6222 3286,6213 3278,6207 3272,6204 3253,6192 3249,6189 3242,6194 3236,6191 3230,6187 3227,6189 3222,6191 3219,6191 3211,6185 3204,6179 3199,6176 3197,6173 3192,6167 3189,6165 3184,6163 3175,6154 3173,6150 3167,6139 3165,6136 3163,6133 3162,6130 3158,6121 3155,6119 3153,6113 3151,6107 3149,6101 3152,6099 3156,6096 3159,6094 3162,6092 3160,6086 3154,6069 3167,6069 3170,6069 3178,6070 3181,6070 3188,6071 3191,6072 3195,6069 3208,6071 3233,6080 3238,6082 3242,6082 3246,6083 3251,6085 3256,6087 3261,6088 3269,6091 3277,6101 3280,6103 3296,6092 3301,6088 3316,6078 3324,6072 3358,6050 3361,6048 3370,6042 3374,6045 3378,6048 3387,6056 3400,6067 3408,6075 3411,6078 3422,6087 3434,6106 3442,6117 3439,6123 3437,6127 3434,6128 3393,6158 3379,6168 3400,6198 3399,6202 3394,6212 3375,6249 3371,6255 3368,6262 3364,6269 3362,6270 " class="polyStyle" id="440115" style="fill:#f6f67b"/>
<polygon points="3432,6236 3432,6233 3436,6221 3433,6225 3426,6236 3405,6220 3401,6217 3396,6214 3404,6200 3414,6180 3435,6187 3448,6192 3453,6193 3456,6193 3460,6193 3460,6199 3464,6203 3467,6206 3470,6207 3472,6214 3477,6217 3480,6219 3482,6221 3481,6224 3477,6225 3474,6222 3469,6218 3464,6219 3459,6221 3454,6224 3448,6227 3442,6231 3438,6232 3433,6236 " class="polyStyle" id="440115" style="fill:#f6f67b"/>
<polygon points="3429,6343 3411,6324 3416,6320 3419,6318 3423,6315 3426,6313 3431,6310 3434,6307 3445,6300 3449,6296 3453,6294 3456,6291 3460,6288 3464,6285 3468,6282 3472,6280 3476,6276 3480,6273 3487,6269 3505,6299 3522,6328 3524,6333 3532,6345 3542,6363 3537,6366 3534,6369 3530,6371 3520,6379 3513,6384 3509,6387 3502,6392 3495,6397 3487,6403 3484,6400 3467,6382 3463,6378 3474,6369 3472,6365 3468,6368 3460,6374 3446,6360 3440,6354 3432,6345 " class="polyStyle" id="440115" style="fill:#f6f67b"/>
<path d="" class="polyStyle" id="440904" style="fill:#f8c67d"/>
<polygon points="2941,4296 2928,4345 2908,4377 2892,4394 2847,4434 2831,4459 2819,4485 2815,4507 2807,4502 2779,4471 2757,4438 2727,4406 2698,4382 2683,4371 2658,4353 2622,4331 2590,4315 2561,4302 2535,4293 2502,4286 2464,4285 2428,4292 2395,4308 2365,4324 2337,4339 2300,4353 2271,4351 2240,4349 2218,4341 2206,4329 2210,4307 2215,4303 2219,4297 2219,4285 2214,4268 2216,4263 2220,4259 2232,4253 2249,4248 2264,4244 2274,4239 2294,4231 2298,4226 2297,4220 2290,4209 2287,4204 2287,4200 2291,4190 2297,4177 2296,4173 2293,4170 2284,4166 2293,4150 2314,4139 2330,4126 2351,4074 2361,4062 2362,4056 2377,4060 2385,4058 2399,4059 2406,4054 2409,4048 2411,4036 2423,4012 2442,3957 2432,3955 2390,3948 2395,3922 2396,3903 2392,3897 2387,3903 2381,3907 2375,3905 2369,3900 2361,3882 2340,3871 2283,3880 2281,3872 2292,3852 2306,3837 2320,3807 2342,3801 2354,3778 2350,3764 2339,3776 2327,3774 2318,3786 2312,3784 2306,3785 2294,3794 2288,3792 2282,3787 2285,3781 2291,3782 2297,3778 2313,3758 2315,3746 2303,3738 2302,3732 2308,3726 2311,3713 2326,3706 2315,3694 2293,3682 2248,3647 2243,3635 2243,3629 2214,3607 2199,3598 2198,3592 2204,3588 2209,3582 2216,3558 2214,3540 2218,3528 2235,3507 2240,3500 2242,3496 2258,3485 2262,3479 2255,3437 2261,3436 2267,3424 2272,3430 2279,3431 2291,3422 2297,3422 2303,3427 2300,3441 2321,3458 2327,3453 2333,3453 2334,3460 2339,3466 2345,3468 2351,3463 2355,3457 2355,3435 2337,3434 2332,3427 2331,3420 2337,3411 2344,3412 2356,3418 2362,3418 2366,3412 2379,3404 2381,3398 2375,3386 2367,3378 2361,3376 2347,3351 2345,3345 2345,3338 2357,3334 2389,3334 2401,3327 2409,3329 2425,3339 2433,3346 2439,3358 2445,3362 2447,3368 2453,3374 2447,3379 2441,3381 2444,3394 2448,3400 2446,3408 2432,3409 2423,3413 2416,3420 2423,3424 2435,3426 2442,3425 2440,3431 2427,3434 2413,3435 2408,3441 2416,3448 2428,3442 2434,3437 2446,3433 2455,3440 2459,3446 2465,3447 2490,3441 2498,3441 2505,3444 2523,3440 2531,3444 2534,3450 2549,3449 2551,3455 2557,3461 2563,3459 2563,3453 2557,3451 2556,3445 2558,3439 2582,3437 2586,3443 2592,3437 2600,3435 2606,3431 2604,3425 2598,3426 2596,3420 2608,3410 2610,3404 2647,3402 2667,3397 2670,3389 2671,3378 2678,3369 2684,3365 2684,3353 2696,3348 2708,3346 2720,3338 2737,3331 2744,3302 2752,3300 2756,3293 2748,3291 2747,3284 2740,3280 2739,3288 2733,3293 2733,3300 2739,3302 2733,3310 2727,3308 2726,3289 2723,3283 2723,3277 2737,3268 2734,3256 2728,3251 2722,3251 2686,3235 2683,3229 2699,3212 2711,3185 2716,3179 2728,3168 2755,3149 2756,3127 2750,3099 2740,3081 2728,3072 2682,3055 2676,3054 2664,3061 2658,3057 2654,3051 2649,3037 2642,3031 2630,3032 2612,3040 2583,3039 2565,3032 2559,3026 2564,2997 2561,2985 2549,2987 2543,2986 2524,2978 2537,2961 2549,2957 2556,2951 2558,2939 2554,2930 2554,2922 2551,2916 2554,2908 2566,2912 2576,2912 2592,2888 2573,2865 2567,2855 2549,2836 2550,2807 2546,2799 2539,2793 2537,2785 2542,2777 2543,2766 2547,2755 2549,2731 2547,2720 2540,2720 2516,2734 2506,2732 2507,2715 2511,2707 2518,2706 2529,2708 2551,2700 2544,2685 2544,2669 2545,2661 2551,2655 2557,2653 2564,2655 2569,2662 2579,2666 2599,2665 2613,2658 2616,2651 2617,2638 2642,2635 2654,2628 2658,2622 2657,2616 2660,2610 2667,2606 2699,2607 2722,2615 2775,2625 2782,2641 2778,2677 2779,2689 2796,2691 2808,2698 2823,2715 2855,2728 2868,2736 2880,2740 2886,2740 2900,2731 2904,2748 2923,2761 2934,2778 2947,2787 2961,2802 2972,2810 2979,2825 2997,2826 3027,2810 3031,2816 3045,2824 3059,2828 3076,2847 3076,2864 3094,2878 3117,2889 3132,2906 3148,2918 3154,2927 3150,2938 3164,2945 3162,2951 3134,2972 3128,2982 3130,2989 3144,3010 3150,3010 3154,3016 3155,3022 3152,3034 3157,3046 3160,3065 3171,3067 3176,3074 3184,3076 3206,3092 3213,3093 3227,3099 3240,3098 3246,3102 3247,3117 3226,3131 3212,3133 3200,3137 3200,3130 3210,3114 3204,3110 3201,3100 3194,3094 3165,3085 3167,3106 3178,3138 3171,3148 3169,3155 3173,3163 3171,3182 3176,3189 3183,3187 3185,3181 3191,3178 3194,3200 3190,3206 3184,3209 3155,3202 3148,3214 3149,3232 3170,3235 3185,3230 3201,3236 3203,3252 3216,3262 3217,3274 3223,3279 3229,3281 3232,3287 3232,3293 3228,3305 3212,3318 3197,3326 3194,3332 3192,3338 3206,3363 3213,3370 3209,3377 3209,3384 3203,3389 3196,3391 3189,3399 3186,3405 3186,3413 3192,3416 3195,3422 3207,3413 3215,3415 3209,3429 3200,3435 3208,3441 3220,3443 3222,3450 3216,3455 3214,3461 3208,3467 3202,3469 3190,3469 3183,3471 3158,3490 3109,3494 3100,3512 3106,3530 3130,3550 3120,3564 3137,3582 3143,3594 3147,3610 3125,3615 3123,3624 3130,3632 3125,3638 3125,3644 3114,3638 3111,3644 3111,3652 3123,3661 3122,3669 3116,3673 3110,3672 3103,3674 3092,3680 3087,3686 3092,3699 3106,3710 3109,3718 3108,3724 3098,3733 3102,3739 3114,3750 3098,3783 3061,3811 3055,3813 3048,3812 3032,3824 3024,3827 3005,3816 2996,3807 2985,3802 2969,3804 2949,3830 2942,3845 2947,3857 2954,3862 2957,3868 2957,3880 2969,3904 2952,3921 2953,3927 2965,3933 2969,3939 2981,3944 2978,3950 2972,3953 2971,3959 2967,3965 2967,3971 2959,3984 2965,3988 2985,3997 2996,4020 2995,4045 3001,4055 2996,4072 2989,4079 2979,4084 2968,4100 2962,4100 2956,4110 2956,4126 2968,4126 2973,4132 2971,4139 2972,4145 2998,4171 3019,4179 3026,4177 3030,4183 3032,4198 3042,4201 3056,4217 3058,4237 3058,4240 3053,4241 3040,4244 3013,4250 2988,4259 2959,4274 2956,4277 " class="polyStyle" id="440112" style="fill:#f6f67b"/>
<path d="" class="polyStyle" id="460205" style="fill:#ee8b94"/>
<path d="" class="polyStyle" id="460202" style="fill:#f6f67b"/>
<path d="" class="polyStyle" id="460203" style="fill:#fbe6ef"/>
<path d="" class="polyStyle" id="420304" style="fill:#f6f67b"/>
<path d="" class="polyStyle" id="445302" style="fill:#ee8b94"/>
<path d="" class="polyStyle" id="410202" style="fill:#d4ecb2"/>
<path d="" class="polyStyle" id="440800" style="fill:#f6f67b"/>
<path d="" class="polyStyle" id="440900" style="fill:#ee8b94"/>
<path d="" class="polyStyle" id="340800" style="fill:#ee8b94"/>
<path d="" class="polyStyle" id="460200" style="fill:#f6f67b"/>
<path d="" class="polyStyle" id="460000" style="fill:#ee8b94"/>
<path d="" class="polyStyle" id="450500" style="fill:#ee8b94"/>
<path d="" class="polyStyle" id="450600" style="fill:#ee8b94"/>
<path d="" class="polyStyle" id="440400" style="fill:#f6f67b"/>
<path d="" class="polyStyle" id="441700" style="fill:#f6f67b"/>
<path d="" class="polyStyle" id="441500" style="fill:#f6f67b"/>
<path d="" class="polyStyle" id="350600" style="fill:#ee8b94"/>
<path d="" class="polyStyle" id="710000" style="fill:#f6f67b"/>
<path d="" class="polyStyle" id="510400" style="fill:#f6f67b"/>
<path d="" class="polyStyle" id="522600" style="fill:#fbe6ef"/>
<path d="" class="polyStyle" id="520500" style="fill:#ee8b94"/>
<path d="" class="polyStyle" id="431200" style="fill:#f6f67b"/>
<path d="" class="polyStyle" id="430600" style="fill:#f6f67b"/>
<path d="" class="polyStyle" id="511400" style="fill:#d4ecb2"/>
<path d="" class="polyStyle" id="421000" style="fill:#ee8b94"/>
<path d="" class="polyStyle" id="341700" style="fill:#f6f67b"/>
<path d="" class="polyStyle" id="420500" style="fill:#f6f67b"/>
<path d="" class="polyStyle" id="511300" style="fill:#f6f67b"/>
<path d="" class="polyStyle" id="420900" style="fill:#f6f67b"/>
<path d="" class="polyStyle" id="511700" style="fill:#ee8b94"/>
<path d="" class="polyStyle" id="420600" style="fill:#d4ecb2"/>
<path d="" class="polyStyle" id="411500" style="fill:#fbe6ef"/>
<path d="" class="polyStyle" id="510800" style="fill:#ee8b94"/>
<path d="" class="polyStyle" id="420300" style="fill:#fbe6ef"/>
<path d="" class="polyStyle" id="611000" style="fill:#ee8b94"/>
<path d="" class="polyStyle" id="620800" style="fill:#fbe6ef"/>
<path d="" class="polyStyle" id="370200" style="fill:#ee8b94"/>
<path d="" class="polyStyle" id="371000" style="fill:#f6f67b"/>
<path d="" class="polyStyle" id="370600" style="fill:#fbe6ef"/>
<path d="" class="polyStyle" id="120000" style="fill:#f6f67b"/>
<path d="" class="polyStyle" id="130200" style="fill:#ee8b94"/>
<path d="" class="polyStyle" id="130300" style="fill:#f6f67b"/>
<path d="" class="polyStyle" id="652900" style="fill:#fbe6ef"/>
<path d="" class="polyStyle" id="150500" style="fill:#d4ecb2"/>
<path d="" class="polyStyle" id="" style="fill:#d4ecb2"/>
<path d="" class="polyStyle" id="350500" style="fill:#fbe6ef"/>
<path d="" class="polyStyle" id="440400" style="fill:#f6f67b"/>
<path d="" class="polyStyle" id="421100" style="fill:#d4ecb2"/>
<path d="" class="polyStyle" id="420100" style="fill:#fbe6ef"/>
<path d="" class="polyStyle" id="532500" style="fill:#fbe6ef"/>
<path d="" class="polyStyle" id="654200" style="fill:#fbe6ef"/>
<path d="" class="polyStyle" id="210700" style="fill:#d4ecb2"/>
<path d="" class="polyStyle" id="522300" style="fill:#fbe6ef"/>
<path d="" class="polyStyle" id="" style="fill:#ee8b94"/>
<path d="" class="polyStyle" id="440400" style="fill:#f6f67b"/>
<path d="" class="polyStyle" id="620000" style="fill:#f6f67b"/>
<path d="" class="polyStyle" id="430000" style="fill:#fbe6ef"/>
<path d="" class="polyStyle" id="420000" style="fill:#ee8b94"/>
<path d="" class="polyStyle" id="410000" style="fill:#f6f67b"/>
<path d="" class="polyStyle" id="350000" style="fill:#fbe6ef"/>
<path d="" class="polyStyle" id="520000" style="fill:#f6f67b"/>
<path d="" class="polyStyle" id="" style="fill:#ee8b94"/>
</svg>
