<?xml version="1.0" encoding="UTF-8"?>
<!DOCTYPE svg PUBLIC "-//W3C//DTD SVG 1.1 Tiny//EN" "http://www.w3.org/Graphics/SVG/1.1/DTD/svg11-tiny.dtd">
<svg version="1.1" xmlns="http://www.w3.org/2000/svg" xmlns:xlink="http://www.w3.org/1999/xlink" width="100%" height="100%" viewBox="0,0,7612,8100">
<title>SVG</title>
<desc>Poligon Test</desc>
<style id="style_css_sheet" type="text/css">
.polyStyle{fill: #cccccc;stroke-width:0;fill-rule:evenodd;}
</style>
<circle cx="6834" cy="5321" r="200" stroke="black" stroke-width="1" fill="red" id="441284" name="四会市"/>
<circle cx="5475" cy="6834" r="200" stroke="black" stroke-width="1" fill="red" id="441204"position="333" name="高要区"/>
<circle cx="2055" cy="6244" r="200" stroke="black" stroke-width="1" fill="red" id="441226" name="德庆县"/>
<circle cx="5377" cy="3779" r="200" stroke="black" stroke-width="1" fill="red" id="441223" name="广宁县"/>
<circle cx="706" cy="4768" r="200" stroke="black" stroke-width="1" fill="red" id="441225" name="封开县"/>
<circle cx="4115" cy="2371" r="200" stroke="black" stroke-width="1" fill="red" id="441224" name="怀集县"/>
<circle cx="6024" cy="6094" r="200" stroke="black" stroke-width="1" fill="red" id="441203" name="鼎湖区"/>
<circle cx="5616" cy="6695" r="200" stroke="black" stroke-width="1" fill="red" id="441202" name="端州区"/>
<path d="" class="polyStyle" id="" style="fill:#ee8b94"/>
<path d="" class="polyStyle" id="623022" style="fill:#fbe6ef"/>
<path d="" class="polyStyle" id="211421" style="fill:#f6f67b"/>
<path d="" class="polyStyle" id="532524" style="fill:#ee8b94"/>
<path d="" class="polyStyle" id="440825" style="fill:#f6f67b"/>
<path d="" class="polyStyle" id="441721" style="fill:#f6f67b"/>
<path d="" class="polyStyle" id="450521" style="fill:#f6f67b"/>
<path d="" class="polyStyle" id="450123" style="fill:#fbe6ef"/>
<polygon points="3963,4431 3975,4432 3996,4444 4004,4459 4008,4480 4013,4490 4031,4492 4042,4494 4046,4507 4059,4510 4072,4519 4097,4517 4113,4510 4136,4521 4152,4513 4159,4524 4163,4539 4186,4562 4210,4567 4226,4575 4234,4563 4248,4564 4279,4593 4299,4615 4313,4619 4333,4617 4347,4612 4362,4619 4379,4627 4412,4629 4423,4606 4433,4610 4456,4620 4470,4624 4480,4628 4486,4632 4498,4652 4504,4660 4517,4660 4527,4659 4534,4663 4537,4673 4541,4682 4542,4690 4544,4698 4542,4704 4541,4710 4537,4717 4536,4723 4535,4734 4537,4745 4537,4756 4538,4766 4537,4776 4537,4783 4534,4783 4519,4791 4506,4797 4487,4795 4470,4804 4430,4810 4416,4808 4403,4807 4393,4844 4377,4859 4361,4863 4344,4866 4323,4864 4330,4842 4318,4826 4304,4813 4274,4809 4266,4795 4249,4794 4236,4790 4223,4803 4220,4826 4198,4860 4179,4898 4166,4913 4165,4926 4145,4934 4135,4944 4137,4955 4150,4958 4158,4960 4163,4967 4178,4990 4220,5035 4256,5060 4269,5062 4269,5086 4276,5097 4313,5133 4295,5155 4280,5173 4269,5185 4282,5208 4281,5217 4280,5227 4256,5249 4244,5284 4232,5316 4240,5335 4243,5343 4256,5350 4283,5343 4282,5330 4297,5319 4306,5326 4309,5344 4330,5353 4344,5341 4342,5323 4337,5314 4337,5275 4352,5244 4371,5246 4385,5246 4391,5248 4413,5269 4419,5269 4431,5266 4442,5252 4463,5242 4468,5236 4469,5230 4463,5226 4469,5222 4475,5228 4482,5225 4488,5225 4482,5231 4484,5237 4490,5241 4500,5248 4503,5267 4490,5280 4499,5298 4487,5323 4494,5362 4490,5379 4479,5385 4485,5403 4471,5417 4469,5437 4456,5438 4465,5452 4470,5458 4457,5474 4462,5491 4455,5509 4462,5539 4438,5544 4430,5551 4435,5594 4442,5610 4475,5631 4476,5637 4462,5645 4450,5661 4441,5676 4424,5682 4418,5670 4417,5659 4402,5644 4395,5642 4363,5640 4341,5641 4312,5663 4296,5674 4272,5690 4254,5702 4220,5732 4199,5767 4189,5799 4206,5812 4201,5822 4191,5829 4172,5835 4153,5838 4149,5846 4144,5862 4169,5885 4179,5907 4166,5927 4157,5940 4182,5962 4223,5964 4272,5971 4281,5980 4295,5994 4310,6017 4317,6039 4307,6056 4320,6085 4329,6090 4330,6107 4320,6114 4327,6136 4325,6169 4310,6174 4299,6179 4279,6182 4261,6212 4293,6220 4292,6228 4283,6231 4270,6233 4257,6230 4224,6243 4223,6259 4214,6265 4183,6283 4160,6294 4147,6303 4118,6319 4124,6346 4137,6369 4149,6365 4180,6355 4186,6343 4230,6334 4248,6326 4263,6334 4272,6332 4331,6304 4341,6303 4353,6304 4361,6302 4375,6290 4394,6282 4413,6276 4425,6274 4433,6296 4438,6305 4439,6318 4449,6331 4458,6321 4464,6343 4470,6358 4437,6363 4407,6368 4380,6372 4350,6382 4319,6408 4283,6450 4258,6476 4222,6509 4191,6531 4166,6554 4132,6574 4103,6581 4075,6583 4048,6579 4018,6574 3992,6566 3966,6554 3939,6540 3913,6531 3872,6515 3843,6523 3817,6529 3784,6530 3748,6516 3717,6497 3687,6500 3649,6527 3616,6550 3589,6561 3585,6563 3554,6567 3517,6571 3490,6576 3464,6585 3425,6593 3394,6594 3355,6575 3333,6549 3306,6541 3277,6540 3241,6537 3208,6532 3174,6521 3148,6513 3120,6482 3110,6455 3098,6415 3093,6385 3087,6349 3062,6317 3033,6303 3001,6297 2970,6301 2928,6307 2893,6313 2860,6320 2828,6325 2802,6326 2768,6326 2735,6324 2708,6324 2698,6321 2684,6317 2668,6313 2636,6302 2603,6285 2569,6260 2542,6247 2513,6243 2481,6250 2453,6259 2420,6279 2387,6289 2354,6295 2310,6300 2261,6298 2236,6297 2202,6291 2162,6285 2133,6291 2097,6290 2047,6292 2012,6286 1964,6261 1938,6245 1898,6224 1860,6206 1826,6194 1783,6192 1745,6198 1704,6181 1665,6162 1631,6162 1587,6174 1530,6175 1492,6159 1456,6141 1426,6099 1404,6052 1381,6020 1336,6005 1300,5997 1263,6000 1231,6003 1204,6003 1177,6005 1150,6000 1118,5992 1085,5983 1050,5968 1018,5948 984,5933 940,5905 898,5886 860,5856 866,5821 882,5795 931,5767 943,5764 945,5786 940,5799 948,5806 956,5825 969,5814 973,5820 986,5828 987,5821 1011,5812 1023,5802 1047,5819 1058,5823 1062,5815 1073,5818 1081,5814 1090,5805 1102,5811 1112,5815 1128,5805 1148,5811 1156,5817 1165,5816 1176,5831 1188,5846 1203,5844 1221,5848 1229,5847 1255,5853 1252,5840 1254,5831 1257,5815 1265,5798 1278,5799 1272,5786 1287,5771 1302,5776 1298,5783 1305,5784 1320,5788 1327,5791 1334,5803 1345,5814 1335,5822 1331,5808 1328,5827 1334,5838 1327,5847 1347,5859 1348,5876 1359,5871 1371,5869 1370,5876 1377,5883 1377,5892 1394,5884 1403,5877 1409,5881 1427,5872 1434,5869 1441,5870 1451,5864 1444,5856 1433,5850 1425,5845 1417,5827 1423,5822 1423,5814 1420,5807 1423,5799 1417,5790 1413,5772 1422,5771 1429,5767 1425,5752 1427,5744 1428,5725 1430,5689 1416,5683 1395,5675 1378,5662 1381,5634 1383,5596 1378,5589 1380,5575 1393,5572 1397,5563 1403,5556 1430,5546 1438,5533 1439,5526 1435,5511 1444,5492 1452,5470 1462,5449 1466,5461 1465,5475 1476,5482 1490,5492 1499,5488 1520,5505 1530,5506 1545,5497 1558,5495 1563,5503 1583,5517 1597,5512 1611,5514 1628,5516 1648,5506 1655,5504 1680,5501 1704,5496 1744,5469 1769,5469 1793,5476 1819,5451 1842,5455 1856,5438 1866,5433 1870,5425 1870,5401 1891,5397 1899,5388 1887,5372 1894,5351 1893,5344 1891,5338 1886,5331 1882,5318 1882,5300 1880,5286 1880,5265 1881,5255 1881,5248 1880,5242 1876,5231 1864,5214 1868,5196 1901,5169 1914,5165 1941,5140 1953,5093 1970,5083 1976,5077 1982,5071 1996,5054 1995,5037 2014,5003 2013,4996 2012,4988 2013,4982 2016,4976 2022,4972 2027,4966 2034,4960 2040,4955 2046,4952 2055,4950 2062,4952 2069,4953 2102,4968 2110,4969 2116,4972 2125,4977 2130,4993 2148,4994 2156,4996 2165,4996 2174,5000 2183,5005 2189,5014 2197,5021 2205,5025 2219,5020 2227,5024 2233,5023 2244,5021 2250,5020 2274,5033 2279,5048 2305,5057 2314,5060 2331,5059 2339,5061 2349,5055 2367,5042 2379,5038 2382,5029 2388,5027 2402,5024 2416,5028 2423,5023 2429,5018 2439,4992 2448,4988 2451,4962 2459,4955 2470,4959 2490,4959 2510,4949 2522,4933 2519,4921 2522,4914 2533,4913 2550,4914 2564,4915 2582,4914 2597,4917 2613,4919 2620,4918 2633,4918 2637,4926 2668,4928 2674,4927 2682,4926 2711,4936 2724,4941 2746,4956 2764,4967 2790,4981 2803,4988 2813,5005 2838,5002 2847,5001 2857,4990 2864,4990 2879,4989 2917,4979 2930,4960 2938,4949 2948,4949 2957,4948 2967,4947 2982,4947 2994,4938 3003,4934 3013,4944 3024,4944 3032,4943 3043,4933 3063,4930 3096,4930 3107,4910 3103,4898 3105,4885 3108,4878 3111,4871 3119,4862 3116,4833 3141,4816 3143,4810 3141,4777 3157,4766 3167,4756 3181,4743 3195,4741 3207,4728 3222,4710 3235,4710 3242,4698 3257,4698 3265,4664 3268,4645 3280,4641 3286,4640 3289,4634 3311,4598 3317,4595 3337,4586 3358,4573 3366,4559 3376,4559 3399,4552 3424,4542 3433,4538 3437,4547 3455,4552 3468,4549 3488,4555 3497,4537 3505,4529 3517,4536 3528,4539 3550,4527 3578,4529 3593,4510 3607,4508 3633,4528 3642,4549 3657,4556 3682,4560 3697,4562 3716,4535 3740,4514 3755,4509 3787,4476 3803,4473 3810,4456 3810,4428 3816,4426 3830,4423 3864,4438 3863,4451 3879,4450 3896,4429 3909,4414 3916,4404 3951,4412 " class="polyStyle" id="441226" style="fill:#ee8b94"/>
<polygon points="5995,2059 5999,2060 6013,2061 6016,2068 6014,2076 6010,2090 6013,2097 6016,2104 6022,2117 6026,2123 6035,2121 6051,2121 6061,2110 6066,2110 6073,2114 6081,2116 6088,2120 6094,2124 6103,2133 6114,2141 6122,2151 6130,2160 6133,2164 6152,2172 6166,2176 6196,2183 6215,2181 6232,2184 6247,2191 6255,2195 6268,2202 6278,2208 6289,2219 6305,2229 6320,2229 6323,2229 6331,2226 6337,2226 6346,2226 6353,2227 6361,2229 6367,2233 6373,2235 6378,2239 6386,2242 6391,2244 6397,2245 6403,2245 6410,2244 6417,2242 6423,2238 6430,2234 6437,2229 6444,2225 6448,2222 6461,2206 6473,2202 6483,2200 6506,2200 6513,2200 6524,2206 6532,2216 6548,2226 6558,2232 6565,2241 6570,2248 6578,2250 6583,2252 6589,2252 6599,2252 6604,2252 6606,2260 6612,2269 6616,2289 6615,2303 6612,2313 6607,2328 6608,2334 6609,2337 6617,2345 6633,2355 6637,2363 6645,2369 6648,2372 6658,2384 6661,2393 6663,2399 6661,2409 6657,2421 6657,2427 6653,2434 6650,2437 6647,2445 6643,2451 6636,2452 6625,2456 6618,2464 6618,2471 6625,2479 6630,2482 6632,2485 6648,2493 6652,2500 6644,2507 6628,2514 6627,2517 6624,2530 6624,2537 6620,2540 6614,2548 6606,2547 6603,2548 6599,2552 6596,2556 6598,2564 6595,2570 6588,2575 6584,2576 6581,2580 6583,2585 6583,2592 6578,2596 6572,2598 6572,2601 6574,2608 6573,2613 6570,2615 6564,2614 6558,2615 6553,2619 6551,2624 6558,2630 6564,2638 6571,2639 6579,2641 6583,2644 6585,2654 6589,2662 6585,2668 6581,2673 6574,2676 6564,2685 6560,2686 6557,2688 6552,2690 6547,2697 6544,2705 6542,2709 6541,2713 6544,2717 6547,2720 6548,2727 6549,2734 6549,2740 6550,2745 6550,2750 6547,2754 6550,2766 6551,2769 6554,2770 6558,2772 6564,2781 6567,2792 6564,2800 6545,2816 6541,2820 6534,2822 6528,2825 6522,2827 6517,2829 6511,2832 6506,2834 6501,2837 6498,2839 6494,2844 6472,2870 6468,2885 6486,2889 6502,2888 6520,2887 6541,2876 6547,2875 6568,2872 6584,2878 6607,2895 6623,2911 6638,2916 6681,2914 6710,2914 6720,2916 6715,2926 6698,2959 6693,2972 6694,2982 6702,2988 6712,2995 6713,3005 6710,3027 6707,3047 6703,3063 6686,3083 6680,3091 6679,3120 6684,3126 6701,3139 6709,3151 6708,3165 6713,3176 6720,3184 6733,3186 6748,3184 6770,3175 6809,3166 6822,3162 6841,3156 6858,3158 6873,3165 6879,3172 6899,3175 6904,3177 6906,3186 6898,3194 6885,3202 6880,3208 6879,3231 6868,3248 6864,3261 6850,3272 6846,3280 6841,3291 6832,3306 6820,3319 6803,3323 6792,3331 6792,3347 6782,3359 6767,3378 6755,3385 6747,3388 6749,3395 6753,3406 6755,3409 6758,3414 6784,3404 6788,3403 6804,3399 6813,3397 6820,3399 6822,3402 6822,3407 6815,3424 6813,3428 6798,3456 6785,3469 6775,3478 6766,3490 6774,3497 6789,3504 6791,3512 6787,3521 6783,3529 6767,3538 6759,3538 6753,3528 6746,3510 6738,3498 6723,3488 6717,3487 6709,3489 6702,3493 6694,3499 6684,3517 6689,3524 6703,3535 6703,3554 6699,3564 6689,3573 6683,3582 6682,3590 6683,3596 6686,3603 6689,3610 6692,3616 6696,3623 6700,3630 6704,3643 6704,3658 6703,3666 6701,3672 6697,3683 6696,3693 6698,3701 6701,3708 6707,3714 6705,3721 6705,3729 6706,3738 6704,3748 6699,3757 6691,3764 6671,3769 6663,3772 6657,3779 6651,3789 6653,3800 6644,3804 6638,3802 6632,3796 6620,3791 6613,3791 6605,3790 6598,3791 6590,3795 6584,3799 6578,3805 6577,3811 6565,3820 6559,3821 6545,3828 6533,3827 6520,3825 6508,3829 6501,3831 6493,3836 6486,3842 6480,3851 6469,3865 6472,3875 6480,3887 6484,3901 6485,3910 6487,3925 6494,3935 6503,3938 6514,3951 6514,3962 6506,3981 6502,3993 6501,4003 6482,4006 6463,3997 6450,3992 6444,3992 6434,3991 6420,3999 6410,4004 6401,4019 6395,4021 6388,4017 6371,4015 6356,4016 6346,4021 6337,4027 6328,4022 6301,3996 6289,3985 6283,3985 6274,3997 6267,4003 6265,4013 6251,4019 6242,4018 6220,4025 6220,4032 6212,4044 6203,4061 6196,4076 6188,4077 6170,4068 6161,4070 6153,4072 6144,4073 6128,4073 6119,4075 6111,4076 6105,4081 6095,4091 6089,4095 6083,4098 6076,4101 6068,4107 6058,4111 6055,4121 6061,4128 6067,4144 6074,4155 6082,4161 6087,4176 6086,4188 6084,4200 6082,4211 6081,4233 6078,4248 6074,4265 6086,4278 6094,4283 6102,4289 6101,4303 6093,4320 6091,4328 6086,4336 6083,4343 6085,4351 6090,4357 6093,4364 6095,4371 6092,4379 6088,4386 6082,4395 6075,4403 6069,4412 6064,4420 6059,4431 6058,4439 6057,4455 6064,4464 6075,4473 6085,4486 6081,4500 6078,4508 6071,4527 6072,4540 6049,4549 6043,4554 6028,4565 6013,4565 5989,4567 5970,4572 5968,4581 5963,4595 5955,4611 5948,4618 5928,4624 5907,4626 5880,4631 5855,4634 5839,4634 5819,4642 5805,4648 5796,4656 5790,4653 5790,4635 5786,4623 5777,4609 5769,4594 5766,4587 5756,4587 5749,4590 5746,4597 5737,4601 5728,4596 5722,4586 5718,4580 5700,4579 5691,4585 5666,4603 5672,4647 5682,4661 5686,4678 5677,4683 5659,4689 5658,4698 5649,4723 5641,4728 5630,4728 5624,4717 5605,4717 5607,4707 5597,4699 5573,4704 5552,4710 5535,4723 5531,4737 5541,4767 5536,4777 5526,4789 5518,4796 5510,4808 5502,4824 5491,4831 5493,4848 5485,4857 5482,4864 5495,4872 5485,4887 5468,4895 5448,4910 5435,4914 5420,4927 5404,4939 5396,4955 5396,4980 5385,5000 5382,5009 5374,5016 5365,5027 5355,5038 5352,5044 5343,5046 5332,5057 5341,5066 5337,5101 5331,5101 5299,5119 5268,5127 5227,5120 5198,5120 5189,5123 5174,5127 5166,5132 5150,5140 5144,5134 5139,5121 5133,5095 5110,5058 5122,5036 5135,4995 5124,4972 5110,4959 5103,4928 5075,4924 5072,4882 5061,4874 5046,4872 5034,4868 5025,4844 5018,4834 5004,4837 4981,4837 4960,4819 4965,4807 4948,4803 4927,4797 4908,4799 4878,4793 4870,4801 4864,4806 4841,4802 4833,4806 4821,4816 4814,4831 4806,4835 4804,4851 4788,4856 4765,4856 4758,4843 4738,4842 4721,4824 4706,4811 4675,4797 4654,4784 4647,4798 4634,4805 4606,4799 4590,4777 4572,4782 4553,4782 4537,4783 4537,4776 4538,4766 4537,4756 4537,4745 4535,4734 4536,4723 4537,4717 4541,4710 4542,4704 4544,4698 4542,4690 4541,4682 4537,4673 4534,4663 4527,4659 4517,4660 4504,4660 4498,4652 4486,4632 4480,4628 4470,4624 4456,4620 4433,4610 4423,4606 4412,4629 4379,4627 4362,4619 4347,4612 4333,4617 4313,4619 4299,4615 4279,4593 4248,4564 4234,4563 4226,4575 4210,4567 4186,4562 4163,4539 4159,4524 4152,4513 4136,4521 4113,4510 4097,4517 4072,4519 4059,4510 4046,4507 4042,4494 4031,4492 4013,4490 4008,4480 4004,4459 3996,4444 3975,4432 3963,4431 3951,4412 3916,4404 3909,4414 3896,4429 3879,4450 3863,4451 3864,4438 3830,4423 3816,4426 3810,4428 3810,4456 3803,4473 3787,4476 3755,4509 3740,4514 3716,4535 3697,4562 3682,4560 3657,4556 3642,4549 3633,4528 3607,4508 3593,4510 3578,4529 3550,4527 3528,4539 3517,4536 3505,4529 3511,4523 3509,4511 3512,4504 3524,4485 3540,4481 3544,4474 3551,4467 3535,4455 3525,4457 3517,4455 3515,4448 3517,4440 3525,4427 3523,4418 3545,4403 3552,4390 3558,4386 3555,4372 3561,4369 3561,4362 3565,4352 3574,4347 3579,4338 3585,4333 3582,4317 3582,4305 3591,4303 3596,4318 3598,4329 3609,4335 3618,4342 3628,4336 3647,4321 3650,4312 3666,4317 3677,4313 3681,4322 3695,4330 3708,4326 3712,4341 3738,4317 3759,4309 3774,4292 3786,4284 3803,4274 3820,4262 3825,4239 3839,4221 3866,4204 3872,4184 3896,4172 3909,4172 3910,4149 3896,4135 3889,4126 3882,4119 3888,4098 3902,4090 3917,4082 3913,4076 3922,4065 3925,4058 3939,4076 3956,4075 3979,4078 3996,4068 3994,4055 3986,4030 3990,4023 3987,4016 3985,4003 3999,3981 4006,3977 4023,3978 4038,3944 4020,3940 3992,3935 3988,3922 3967,3917 3952,3906 3936,3893 3929,3884 3942,3866 3917,3850 3905,3853 3896,3856 3886,3807 3885,3780 3891,3770 3879,3759 3861,3727 3862,3706 3845,3695 3844,3685 3844,3677 3850,3672 3860,3672 3878,3670 3888,3666 3892,3653 3892,3640 3916,3631 3916,3622 3908,3612 3915,3604 3899,3548 3908,3520 3906,3472 3922,3466 3939,3451 3976,3454 3995,3452 4003,3451 4023,3423 4041,3397 4099,3382 4131,3366 4143,3365 4186,3376 4197,3371 4196,3356 4196,3333 4208,3340 4211,3296 4201,3265 4192,3253 4182,3238 4175,3222 4183,3210 4194,3193 4219,3188 4236,3171 4249,3149 4275,3154 4276,3145 4284,3128 4289,3116 4283,3112 4258,3073 4258,3056 4269,3052 4291,3043 4317,3031 4327,3035 4365,3043 4370,3078 4376,3082 4399,3080 4411,3079 4426,3085 4441,3092 4423,3102 4411,3096 4404,3107 4395,3129 4406,3151 4424,3161 4430,3167 4430,3186 4444,3197 4452,3222 4442,3242 4437,3266 4440,3289 4451,3282 4476,3289 4493,3296 4501,3301 4507,3300 4506,3281 4520,3273 4537,3253 4549,3253 4566,3235 4577,3201 4604,3173 4627,3175 4636,3169 4642,3158 4638,3136 4645,3130 4666,3107 4672,3102 4683,3095 4693,3095 4700,3100 4730,3138 4742,3135 4761,3131 4777,3144 4809,3172 4839,3152 4851,3155 4873,3176 4889,3177 4899,3172 4907,3160 4919,3157 4929,3154 4941,3147 4937,3105 4926,3061 4920,3040 4916,3025 4925,3026 4940,3017 4950,3010 4956,2997 4957,2985 4951,2969 4958,2955 4920,2884 4886,2870 4893,2854 4898,2808 4910,2802 4922,2802 4943,2800 4956,2800 4971,2793 4979,2780 4994,2766 5013,2760 5024,2757 5032,2747 5032,2736 5031,2717 5031,2698 5041,2676 5059,2650 5068,2634 5076,2620 5077,2609 5070,2592 5077,2583 5081,2563 5085,2552 5091,2539 5100,2519 5107,2510 5117,2496 5121,2490 5121,2469 5174,2460 5185,2459 5215,2453 5228,2444 5247,2431 5255,2422 5271,2415 5283,2410 5298,2409 5307,2411 5325,2430 5344,2430 5364,2410 5367,2402 5379,2393 5395,2390 5407,2383 5410,2369 5410,2353 5420,2345 5431,2338 5438,2337 5451,2338 5465,2339 5480,2335 5489,2327 5504,2306 5510,2294 5525,2283 5533,2283 5552,2291 5578,2288 5589,2274 5599,2259 5624,2240 5636,2230 5634,2220 5643,2207 5668,2191 5696,2166 5708,2149 5719,2137 5725,2128 5731,2121 5738,2114 5739,2107 5744,2095 5746,2088 5752,2083 5763,2074 5771,2063 5779,2068 5783,2070 5793,2072 5805,2073 5818,2077 5834,2081 5844,2084 5851,2088 5858,2093 5862,2094 5865,2094 5869,2094 5873,2093 5876,2092 5881,2091 5891,2088 5899,2086 5913,2088 5924,2086 5932,2086 5941,2083 5947,2077 5948,2074 5955,2070 5958,2063 5963,2061 5968,2058 5972,2057 5976,2057 5982,2057 5987,2057 5991,2058 " class="polyStyle" id="441223" style="fill:#d4ecb2"/>
<polygon points="3093,2059 3083,2064 3096,2070 3113,2083 3117,2094 3120,2103 3125,2111 3133,2127 3107,2168 3108,2200 3086,2207 3085,2215 3083,2226 3080,2234 3075,2254 3059,2266 3028,2289 3025,2297 3025,2305 3030,2316 3038,2325 3045,2333 3050,2351 3062,2352 3065,2360 3065,2366 3063,2375 3061,2381 3057,2390 3053,2396 3045,2412 3021,2444 3009,2452 2999,2460 2993,2476 3008,2496 3020,2524 3023,2537 3019,2577 3016,2587 3012,2598 3008,2607 3003,2617 2998,2631 2997,2639 2979,2659 2989,2681 2989,2700 2977,2731 2966,2755 2961,2770 2952,2785 2942,2803 2940,2822 2914,2834 2906,2837 2906,2851 2897,2865 2884,2868 2903,2882 2896,2897 2897,2911 2907,2924 2908,2935 2912,2942 2917,2952 2915,2960 2906,2963 2900,2965 2864,2974 2853,2983 2862,3007 2857,3018 2858,3039 2851,3047 2842,3053 2835,3060 2817,3081 2801,3081 2795,3098 2790,3124 2788,3137 2779,3138 2752,3145 2752,3187 2754,3204 2744,3219 2724,3217 2712,3230 2713,3245 2710,3252 2698,3258 2692,3274 2680,3280 2669,3283 2662,3286 2655,3288 2639,3304 2615,3312 2613,3319 2612,3327 2612,3342 2611,3348 2610,3358 2610,3367 2606,3380 2621,3414 2637,3425 2643,3427 2637,3443 2640,3455 2629,3464 2628,3472 2637,3490 2650,3496 2660,3510 2675,3504 2693,3498 2704,3494 2725,3485 2739,3499 2754,3502 2763,3507 2771,3510 2789,3525 2824,3531 2842,3540 2849,3546 2855,3552 2858,3558 2858,3564 2857,3572 2854,3585 2877,3606 2880,3612 2888,3622 2896,3630 2903,3635 2906,3643 2906,3650 2905,3656 2905,3662 2904,3672 2905,3680 2907,3686 2933,3687 2966,3693 2976,3696 2982,3697 2988,3698 2996,3697 3003,3696 3011,3695 3020,3688 3035,3688 3050,3698 3056,3712 3054,3727 3068,3744 3068,3752 3060,3763 3069,3774 3077,3783 3081,3790 3080,3807 3086,3818 3095,3828 3101,3832 3097,3842 3077,3844 3059,3855 3060,3869 3053,3878 3056,3895 3044,3898 3031,3931 3021,3942 3008,3945 2992,3964 2993,4001 3008,4013 3006,4034 2997,4034 2990,4025 2983,4039 2991,4051 2998,4083 2996,4092 2996,4105 2989,4112 3031,4142 3037,4144 3044,4147 3051,4149 3057,4153 3063,4159 3065,4165 3062,4171 3051,4175 3028,4201 3023,4207 3032,4266 3032,4280 3031,4286 3031,4292 3030,4303 3026,4309 3019,4314 3021,4327 3044,4346 3044,4359 3040,4381 3026,4405 3036,4408 3042,4413 3049,4418 3057,4422 3065,4428 3065,4441 3076,4450 3089,4472 3109,4484 3096,4507 3090,4521 3082,4530 3074,4525 3052,4532 3046,4556 3057,4561 3080,4560 3092,4555 3093,4545 3108,4539 3121,4548 3127,4559 3143,4565 3160,4563 3172,4559 3189,4564 3193,4578 3173,4602 3161,4611 3164,4623 3152,4629 3144,4631 3137,4638 3134,4656 3141,4666 3157,4667 3177,4663 3196,4646 3213,4627 3222,4627 3226,4635 3237,4620 3246,4604 3255,4595 3260,4583 3270,4569 3270,4558 3283,4547 3301,4538 3319,4531 3334,4544 3339,4550 3352,4553 3358,4573 3337,4586 3317,4595 3311,4598 3289,4634 3286,4640 3280,4641 3268,4645 3265,4664 3257,4698 3242,4698 3235,4710 3222,4710 3207,4728 3195,4741 3181,4743 3167,4756 3157,4766 3141,4777 3143,4810 3141,4816 3116,4833 3119,4862 3111,4871 3108,4878 3105,4885 3103,4898 3107,4910 3096,4930 3063,4930 3043,4933 3032,4943 3024,4944 3013,4944 3003,4934 2994,4938 2982,4947 2967,4947 2957,4948 2948,4949 2938,4949 2930,4960 2917,4979 2879,4989 2864,4990 2857,4990 2847,5001 2838,5002 2813,5005 2803,4988 2790,4981 2764,4967 2746,4956 2724,4941 2711,4936 2682,4926 2674,4927 2668,4928 2637,4926 2633,4918 2620,4918 2613,4919 2597,4917 2582,4914 2564,4915 2550,4914 2533,4913 2522,4914 2519,4921 2522,4933 2510,4949 2490,4959 2470,4959 2459,4955 2451,4962 2448,4988 2439,4992 2429,5018 2423,5023 2416,5028 2402,5024 2388,5027 2382,5029 2379,5038 2367,5042 2349,5055 2339,5061 2331,5059 2314,5060 2305,5057 2279,5048 2274,5033 2250,5020 2244,5021 2233,5023 2227,5024 2219,5020 2205,5025 2197,5021 2189,5014 2183,5005 2174,5000 2165,4996 2156,4996 2148,4994 2130,4993 2125,4977 2116,4972 2110,4969 2102,4968 2069,4953 2062,4952 2055,4950 2046,4952 2040,4955 2034,4960 2027,4966 2022,4972 2016,4976 2013,4982 2012,4988 2013,4996 2014,5003 1995,5037 1996,5054 1982,5071 1976,5077 1970,5083 1953,5093 1941,5140 1914,5165 1901,5169 1868,5196 1864,5214 1876,5231 1880,5242 1881,5248 1881,5255 1880,5265 1880,5286 1882,5300 1882,5318 1886,5331 1891,5338 1893,5344 1894,5351 1887,5372 1899,5388 1891,5397 1870,5401 1870,5425 1866,5433 1856,5438 1842,5455 1819,5451 1793,5476 1769,5469 1744,5469 1704,5496 1680,5501 1655,5504 1648,5506 1628,5516 1611,5514 1597,5512 1583,5517 1563,5503 1558,5495 1545,5497 1530,5506 1520,5505 1499,5488 1490,5492 1476,5482 1465,5475 1466,5461 1462,5449 1452,5470 1444,5492 1435,5511 1439,5526 1438,5533 1430,5546 1403,5556 1397,5563 1393,5572 1380,5575 1378,5589 1383,5596 1381,5634 1378,5662 1395,5675 1416,5683 1430,5689 1428,5725 1427,5744 1425,5752 1429,5767 1422,5771 1413,5772 1417,5790 1423,5799 1420,5807 1423,5814 1423,5822 1417,5827 1425,5845 1433,5850 1444,5856 1451,5864 1441,5870 1434,5869 1427,5872 1409,5881 1403,5877 1394,5884 1377,5892 1377,5883 1370,5876 1371,5869 1359,5871 1348,5876 1347,5859 1327,5847 1334,5838 1328,5827 1331,5808 1335,5822 1345,5814 1334,5803 1327,5791 1320,5788 1305,5784 1298,5783 1302,5776 1287,5771 1272,5786 1278,5799 1265,5798 1257,5815 1254,5831 1252,5840 1255,5853 1229,5847 1221,5848 1203,5844 1188,5846 1176,5831 1165,5816 1156,5817 1148,5811 1128,5805 1112,5815 1102,5811 1090,5805 1081,5814 1073,5818 1062,5815 1058,5823 1047,5819 1023,5802 1011,5812 987,5821 986,5828 973,5820 969,5814 956,5825 948,5806 940,5799 945,5786 943,5764 1003,5749 1038,5732 1066,5698 1075,5658 1070,5620 1058,5590 1038,5564 1012,5539 986,5508 948,5464 909,5423 886,5396 864,5359 841,5332 826,5331 820,5331 814,5334 815,5341 826,5361 835,5356 841,5372 828,5378 831,5396 810,5413 791,5421 786,5447 793,5463 791,5469 789,5478 779,5481 784,5495 781,5503 774,5506 772,5523 758,5524 752,5522 741,5519 722,5537 707,5536 709,5530 703,5522 694,5524 687,5536 663,5526 654,5526 643,5539 630,5533 624,5535 600,5544 576,5561 553,5574 547,5565 552,5558 544,5551 536,5559 523,5566 513,5569 521,5583 507,5577 499,5569 489,5558 483,5560 475,5562 463,5544 475,5540 473,5531 465,5517 457,5501 444,5498 431,5494 423,5498 414,5494 401,5489 392,5483 379,5484 379,5474 390,5471 390,5461 398,5453 401,5442 395,5440 382,5434 376,5423 358,5408 348,5406 333,5390 322,5397 312,5391 313,5382 295,5368 275,5361 276,5367 254,5368 233,5370 228,5362 211,5352 203,5344 182,5338 169,5323 153,5321 135,5326 112,5330 108,5322 106,5315 99,5307 85,5316 88,5332 96,5341 89,5342 82,5339 74,5343 68,5350 69,5364 66,5369 50,5361 14,5347 4,5333 0,5325 0,5311 2,5303 4,5289 12,5251 18,5229 28,5203 58,5171 66,5153 68,5119 74,5101 90,5091 122,5077 136,5067 144,5065 148,5033 154,5005 154,4989 144,4983 108,4955 102,4947 106,4933 118,4911 124,4901 148,4843 140,4811 142,4791 156,4773 174,4761 154,4731 146,4711 152,4703 186,4673 192,4667 178,4641 178,4627 184,4613 191,4599 334,4620 338,4605 344,4571 352,4563 356,4555 366,4549 384,4539 396,4531 424,4501 450,4463 482,4441 506,4431 510,4417 508,4397 514,4387 532,4373 544,4351 552,4331 562,4317 588,4295 592,4283 588,4267 578,4247 576,4231 592,4209 593,4202 598,4187 600,4163 604,4155 628,4141 634,4129 642,4107 644,4085 640,4075 636,4061 638,4027 636,3985 630,3959 608,3929 602,3913 618,3899 622,3873 626,3821 630,3813 650,3809 668,3811 686,3815 696,3811 704,3797 712,3793 738,3809 754,3823 772,3823 802,3815 828,3807 874,3799 896,3779 928,3757 944,3745 964,3745 980,3747 972,3789 1038,3773 1052,3761 1068,3747 1112,3721 1124,3757 1132,3763 1156,3739 1166,3735 1186,3739 1204,3749 1222,3761 1230,3765 1238,3765 1262,3757 1268,3755 1272,3751 1276,3741 1276,3731 1278,3721 1278,3703 1278,3693 1276,3673 1274,3661 1274,3637 1276,3617 1288,3599 1308,3581 1338,3573 1372,3573 1380,3569 1382,3561 1372,3541 1376,3523 1386,3497 1394,3475 1406,3467 1420,3463 1448,3459 1512,3453 1520,3447 1514,3433 1506,3419 1506,3409 1506,3397 1514,3385 1524,3371 1528,3361 1526,3355 1518,3351 1498,3349 1470,3347 1430,3341 1424,3345 1418,3365 1412,3379 1402,3381 1394,3377 1392,3371 1394,3355 1398,3347 1392,3339 1370,3335 1348,3335 1314,3327 1302,3321 1298,3315 1284,3295 1278,3287 1278,3281 1280,3273 1292,3263 1302,3263 1330,3269 1336,3271 1340,3271 1348,3265 1348,3255 1332,3223 1330,3195 1334,3155 1338,3119 1334,3071 1318,3055 1316,3037 1324,3013 1332,3003 1336,3001 1352,3001 1362,3003 1392,3021 1396,3009 1394,2987 1400,2965 1408,2941 1412,2923 1422,2895 1428,2875 1434,2857 1442,2843 1454,2835 1458,2821 1460,2799 1465,2784 1472,2779 1486,2777 1524,2785 1544,2797 1564,2807 1569,2810 1569,2817 1571,2824 1587,2835 1591,2836 1610,2835 1632,2855 1643,2867 1648,2871 1666,2849 1666,2839 1670,2827 1670,2805 1668,2777 1684,2765 1716,2761 1742,2757 1758,2759 1764,2763 1774,2785 1790,2809 1808,2829 1824,2837 1848,2843 1874,2845 1900,2843 1910,2843 1918,2845 1926,2851 1938,2867 1944,2875 1954,2885 1958,2885 1972,2885 1990,2881 2004,2879 2018,2879 2028,2883 2044,2887 2060,2893 2074,2899 2090,2903 2112,2909 2132,2911 2138,2909 2146,2903 2184,2881 2206,2867 2214,2876 2226,2890 2236,2906 2244,2908 2251,2900 2252,2896 2252,2889 2243,2864 2241,2849 2254,2825 2259,2807 2265,2800 2268,2798 2276,2801 2295,2817 2307,2816 2313,2812 2313,2805 2313,2797 2314,2775 2312,2743 2310,2723 2314,2717 2330,2709 2332,2703 2330,2697 2324,2689 2318,2687 2312,2689 2304,2699 2296,2697 2290,2693 2290,2683 2292,2661 2296,2647 2300,2631 2306,2619 2308,2611 2310,2593 2308,2589 2300,2577 2286,2573 2274,2571 2268,2569 2264,2565 2252,2517 2252,2503 2280,2459 2288,2433 2296,2411 2298,2405 2304,2393 2320,2387 2328,2385 2352,2391 2372,2397 2386,2403 2402,2413 2420,2423 2434,2423 2454,2403 2466,2377 2470,2341 2468,2315 2460,2299 2446,2275 2444,2269 2450,2249 2458,2219 2464,2207 2472,2199 2486,2199 2502,2199 2514,2203 2530,2229 2534,2245 2540,2251 2546,2255 2576,2253 2598,2245 2610,2239 2636,2225 2670,2215 2676,2213 2700,2215 2710,2221 2716,2225 2720,2227 2736,2229 2746,2229 2754,2219 2750,2207 2738,2187 2764,2185 2782,2185 2794,2179 2804,2169 2804,2163 2802,2111 2832,2109 2850,2089 2853,2086 2873,2089 2895,2096 2911,2084 2917,2080 2928,2083 2921,2097 2932,2093 2933,2099 2940,2099 2951,2096 2954,2102 2958,2114 2965,2113 2985,2131 2996,2124 3002,2113 3000,2103 3016,2096 3023,2103 3030,2098 3030,2087 3038,2072 3070,2065 3079,2052 3087,2053 " class="polyStyle" id="441225" style="fill:#fbe6ef"/>
<path d="" class="polyStyle" id="350624" style="fill:#f6f67b"/>
<polygon points="4670,10 4685,19 4700,35 4718,50 4726,55 4736,55 4754,52 4775,47 4781,46 4789,47 4797,53 4805,60 4814,70 4823,79 4828,91 4834,102 4844,110 4860,133 4900,180 4930,190 4979,194 4995,204 5010,209 5026,210 5044,208 5058,208 5067,216 5073,225 5075,247 5079,264 5087,279 5098,295 5113,307 5128,310 5145,312 5152,314 5159,315 5161,322 5161,352 5171,369 5185,385 5199,397 5215,407 5221,413 5230,416 5237,414 5246,413 5256,423 5264,435 5276,452 5286,467 5291,479 5295,491 5296,503 5298,514 5301,521 5308,524 5338,519 5370,510 5382,511 5397,512 5403,511 5411,510 5427,518 5434,530 5440,543 5444,579 5452,616 5461,672 5469,708 5478,732 5483,756 5482,787 5476,817 5473,837 5469,855 5463,869 5458,883 5456,893 5455,901 5441,904 5434,898 5426,894 5422,900 5423,912 5426,922 5430,934 5429,944 5421,953 5409,961 5401,973 5394,979 5389,987 5387,996 5386,1022 5385,1047 5380,1054 5372,1060 5364,1065 5357,1068 5350,1074 5347,1082 5347,1088 5351,1099 5358,1107 5361,1117 5364,1126 5363,1135 5357,1140 5348,1142 5342,1142 5340,1153 5345,1164 5357,1176 5363,1190 5364,1201 5363,1211 5354,1221 5345,1230 5336,1240 5332,1249 5330,1275 5336,1301 5338,1313 5347,1322 5358,1329 5372,1331 5400,1331 5413,1339 5424,1339 5441,1333 5456,1326 5466,1324 5468,1331 5465,1337 5460,1344 5454,1353 5451,1363 5452,1370 5459,1372 5467,1372 5477,1368 5492,1357 5509,1345 5516,1341 5525,1340 5536,1343 5548,1347 5558,1356 5569,1364 5575,1365 5591,1371 5609,1372 5620,1375 5633,1410 5652,1458 5658,1467 5652,1480 5644,1488 5637,1495 5636,1504 5638,1517 5645,1524 5662,1529 5676,1526 5686,1532 5690,1538 5694,1544 5695,1555 5696,1565 5690,1584 5690,1603 5682,1621 5680,1641 5681,1648 5690,1664 5719,1686 5726,1688 5728,1697 5728,1710 5729,1723 5729,1731 5731,1740 5733,1748 5736,1755 5741,1762 5747,1767 5751,1776 5755,1785 5758,1795 5760,1801 5761,1812 5762,1818 5762,1824 5765,1833 5772,1841 5777,1848 5782,1856 5783,1862 5780,1869 5772,1875 5765,1881 5760,1887 5754,1891 5735,1900 5726,1905 5723,1912 5721,1923 5722,1931 5727,1937 5734,1938 5743,1940 5747,1959 5740,1971 5743,1977 5754,1984 5763,1997 5762,2011 5761,2020 5759,2030 5760,2036 5764,2043 5766,2050 5769,2056 5771,2063 5763,2074 5752,2083 5746,2088 5744,2095 5739,2107 5738,2114 5731,2121 5725,2128 5719,2137 5708,2149 5696,2166 5668,2191 5643,2207 5634,2220 5636,2230 5624,2240 5599,2259 5589,2274 5578,2288 5552,2291 5533,2283 5525,2283 5510,2294 5504,2306 5489,2327 5480,2335 5465,2339 5451,2338 5438,2337 5431,2338 5420,2345 5410,2353 5410,2369 5407,2383 5395,2390 5379,2393 5367,2402 5364,2410 5344,2430 5325,2430 5307,2411 5298,2409 5283,2410 5271,2415 5255,2422 5247,2431 5228,2444 5215,2453 5185,2459 5174,2460 5121,2469 5121,2490 5117,2496 5107,2510 5100,2519 5091,2539 5085,2552 5081,2563 5077,2583 5070,2592 5077,2609 5076,2620 5068,2634 5059,2650 5041,2676 5031,2698 5031,2717 5032,2736 5032,2747 5024,2757 5013,2760 4994,2766 4979,2780 4971,2793 4956,2800 4943,2800 4922,2802 4910,2802 4898,2808 4893,2854 4886,2870 4920,2884 4958,2955 4951,2969 4957,2985 4956,2997 4950,3010 4940,3017 4925,3026 4916,3025 4920,3040 4926,3061 4937,3105 4941,3147 4929,3154 4919,3157 4907,3160 4899,3172 4889,3177 4873,3176 4851,3155 4839,3152 4809,3172 4777,3144 4761,3131 4742,3135 4730,3138 4700,3100 4693,3095 4683,3095 4672,3102 4666,3107 4645,3130 4638,3136 4642,3158 4636,3169 4627,3175 4604,3173 4577,3201 4566,3235 4549,3253 4537,3253 4520,3273 4506,3281 4507,3300 4501,3301 4493,3296 4476,3289 4451,3282 4440,3289 4437,3266 4442,3242 4452,3222 4444,3197 4430,3186 4430,3167 4424,3161 4406,3151 4395,3129 4404,3107 4411,3096 4423,3102 4441,3092 4426,3085 4411,3079 4399,3080 4376,3082 4370,3078 4365,3043 4327,3035 4317,3031 4291,3043 4269,3052 4258,3056 4258,3073 4283,3112 4289,3116 4284,3128 4276,3145 4275,3154 4249,3149 4236,3171 4219,3188 4194,3193 4183,3210 4175,3222 4182,3238 4192,3253 4201,3265 4211,3296 4208,3340 4196,3333 4196,3356 4197,3371 4186,3376 4143,3365 4131,3366 4099,3382 4041,3397 4023,3423 4003,3451 3995,3452 3976,3454 3939,3451 3922,3466 3906,3472 3908,3520 3899,3548 3915,3604 3908,3612 3916,3622 3916,3631 3892,3640 3892,3653 3888,3666 3878,3670 3860,3672 3850,3672 3844,3677 3844,3685 3845,3695 3862,3706 3861,3727 3879,3759 3891,3770 3885,3780 3886,3807 3896,3856 3905,3853 3917,3850 3942,3866 3929,3884 3936,3893 3952,3906 3967,3917 3988,3922 3992,3935 4020,3940 4038,3944 4023,3978 4006,3977 3999,3981 3985,4003 3987,4016 3990,4023 3986,4030 3994,4055 3996,4068 3979,4078 3956,4075 3939,4076 3925,4058 3922,4065 3913,4076 3917,4082 3902,4090 3888,4098 3882,4119 3889,4126 3896,4135 3910,4149 3909,4172 3896,4172 3872,4184 3866,4204 3839,4221 3825,4239 3820,4262 3803,4274 3786,4284 3774,4292 3759,4309 3738,4317 3712,4341 3708,4326 3695,4330 3681,4322 3677,4313 3666,4317 3650,4312 3647,4321 3628,4336 3618,4342 3609,4335 3598,4329 3596,4318 3591,4303 3582,4305 3582,4317 3585,4333 3579,4338 3574,4347 3565,4352 3561,4362 3561,4369 3555,4372 3558,4386 3552,4390 3545,4403 3523,4418 3525,4427 3517,4440 3515,4448 3517,4455 3525,4457 3535,4455 3551,4467 3544,4474 3540,4481 3524,4485 3512,4504 3509,4511 3511,4523 3505,4529 3497,4537 3488,4555 3468,4549 3455,4552 3437,4547 3433,4538 3424,4542 3399,4552 3376,4559 3366,4559 3358,4573 3352,4553 3339,4550 3334,4544 3319,4531 3301,4538 3283,4547 3270,4558 3270,4569 3260,4583 3255,4595 3246,4604 3237,4620 3226,4635 3222,4627 3213,4627 3196,4646 3177,4663 3157,4667 3141,4666 3134,4656 3137,4638 3144,4631 3152,4629 3164,4623 3161,4611 3173,4602 3193,4578 3189,4564 3172,4559 3160,4563 3143,4565 3127,4559 3121,4548 3108,4539 3093,4545 3092,4555 3080,4560 3057,4561 3046,4556 3052,4532 3074,4525 3082,4530 3090,4521 3096,4507 3109,4484 3089,4472 3076,4450 3065,4441 3065,4428 3057,4422 3049,4418 3042,4413 3036,4408 3026,4405 3040,4381 3044,4359 3044,4346 3021,4327 3019,4314 3026,4309 3030,4303 3031,4292 3031,4286 3032,4280 3032,4266 3023,4207 3028,4201 3051,4175 3062,4171 3065,4165 3063,4159 3057,4153 3051,4149 3044,4147 3037,4144 3031,4142 2989,4112 2996,4105 2996,4092 2998,4083 2991,4051 2983,4039 2990,4025 2997,4034 3006,4034 3008,4013 2993,4001 2992,3964 3008,3945 3021,3942 3031,3931 3044,3898 3056,3895 3053,3878 3060,3869 3059,3855 3077,3844 3097,3842 3101,3832 3095,3828 3086,3818 3080,3807 3081,3790 3077,3783 3069,3774 3060,3763 3068,3752 3068,3744 3054,3727 3056,3712 3050,3698 3035,3688 3020,3688 3011,3695 3003,3696 2996,3697 2988,3698 2982,3697 2976,3696 2966,3693 2933,3687 2907,3686 2905,3680 2904,3672 2905,3662 2905,3656 2906,3650 2906,3643 2903,3635 2896,3630 2888,3622 2880,3612 2877,3606 2854,3585 2857,3572 2858,3564 2858,3558 2855,3552 2849,3546 2842,3540 2824,3531 2789,3525 2771,3510 2763,3507 2754,3502 2739,3499 2725,3485 2704,3494 2693,3498 2675,3504 2660,3510 2650,3496 2637,3490 2628,3472 2629,3464 2640,3455 2637,3443 2643,3427 2637,3425 2621,3414 2606,3380 2610,3367 2610,3358 2611,3348 2612,3342 2612,3327 2613,3319 2615,3312 2639,3304 2655,3288 2662,3286 2669,3283 2680,3280 2692,3274 2698,3258 2710,3252 2713,3245 2712,3230 2724,3217 2744,3219 2754,3204 2752,3187 2752,3145 2779,3138 2788,3137 2790,3124 2795,3098 2801,3081 2817,3081 2835,3060 2842,3053 2851,3047 2858,3039 2857,3018 2862,3007 2853,2983 2864,2974 2900,2965 2906,2963 2915,2960 2917,2952 2912,2942 2908,2935 2907,2924 2897,2911 2896,2897 2903,2882 2884,2868 2897,2865 2906,2851 2906,2837 2914,2834 2940,2822 2942,2803 2952,2785 2961,2770 2966,2755 2977,2731 2989,2700 2989,2681 2979,2659 2997,2639 2998,2631 3003,2617 3008,2607 3012,2598 3016,2587 3019,2577 3023,2537 3020,2524 3008,2496 2993,2476 2999,2460 3009,2452 3021,2444 3045,2412 3053,2396 3057,2390 3061,2381 3063,2375 3065,2366 3065,2360 3062,2352 3050,2351 3045,2333 3038,2325 3030,2316 3025,2305 3025,2297 3028,2289 3059,2266 3075,2254 3080,2234 3083,2226 3085,2215 3086,2207 3108,2200 3107,2168 3133,2127 3125,2111 3120,2103 3117,2094 3113,2083 3096,2070 3083,2064 3093,2059 3087,2053 3079,2052 3070,2065 3038,2072 3030,2087 3030,2098 3023,2103 3016,2096 3000,2103 3002,2113 2996,2124 2985,2131 2965,2113 2958,2114 2954,2102 2951,2096 2940,2099 2933,2099 2932,2093 2921,2097 2928,2083 2917,2080 2911,2084 2895,2096 2873,2089 2853,2086 2870,2071 2890,2049 2898,2037 2898,2031 2890,2011 2836,1967 2814,1947 2804,1919 2798,1899 2796,1881 2796,1875 2798,1845 2798,1839 2798,1819 2796,1795 2796,1775 2792,1749 2776,1739 2728,1721 2718,1711 2710,1689 2686,1635 2670,1613 2656,1591 2650,1583 2630,1565 2626,1553 2632,1531 2642,1515 2634,1493 2622,1479 2606,1465 2592,1443 2576,1407 2572,1379 2576,1343 2584,1287 2604,1241 2616,1197 2626,1169 2628,1143 2618,1129 2596,1111 2586,1105 2556,1081 2548,1069 2548,1061 2552,1023 2554,1019 2560,975 2562,951 2560,927 2562,899 2566,861 2586,839 2574,825 2572,813 2588,805 2634,809 2678,821 2704,829 2766,841 2782,837 2790,825 2788,807 2784,775 2802,771 2862,771 2880,787 2892,793 2896,791 2900,773 2915,772 2925,771 2937,768 2948,764 2955,763 2962,762 2981,766 2999,773 3010,783 3021,792 3031,803 3044,813 3053,818 3063,822 3073,828 3081,834 3088,844 3094,855 3095,867 3098,879 3105,895 3114,908 3124,922 3137,934 3143,941 3150,946 3161,955 3168,967 3172,980 3172,997 3175,1006 3179,1013 3186,1018 3196,1022 3203,1022 3206,1010 3214,1003 3224,997 3233,996 3242,996 3261,1001 3281,1005 3314,1006 3349,1003 3375,1000 3399,990 3411,977 3420,960 3420,952 3418,941 3410,929 3403,915 3397,895 3396,873 3396,865 3403,857 3414,849 3428,841 3435,835 3441,827 3443,814 3443,801 3442,786 3442,771 3445,754 3451,736 3451,727 3455,718 3467,716 3481,713 3489,708 3495,700 3498,687 3503,674 3513,658 3529,645 3541,641 3554,641 3565,646 3577,651 3589,655 3603,658 3613,661 3623,664 3630,670 3637,677 3638,686 3639,694 3646,707 3655,718 3661,730 3669,741 3680,747 3690,753 3703,769 3713,785 3716,796 3720,806 3731,809 3765,803 3776,807 3788,813 3796,823 3802,833 3804,848 3806,861 3810,876 3817,889 3824,901 3836,911 3852,918 3871,923 3892,931 3912,941 3919,953 3924,966 3926,978 3928,988 3931,998 3948,1009 3968,1016 3977,1019 3998,1017 4010,1015 4023,1008 4033,994 4037,985 4032,972 4039,961 4047,959 4077,959 4095,955 4113,948 4118,942 4124,935 4135,933 4146,930 4160,930 4175,928 4188,921 4200,911 4202,905 4205,897 4216,879 4230,862 4241,852 4254,842 4266,831 4276,816 4279,807 4280,795 4276,779 4272,761 4270,746 4273,731 4282,726 4288,726 4296,725 4308,725 4320,724 4334,721 4351,717 4359,716 4369,717 4378,721 4388,724 4397,733 4407,740 4414,744 4423,744 4430,739 4437,731 4449,709 4460,684 4467,667 4472,649 4472,598 4469,576 4468,552 4472,534 4480,515 4491,506 4500,495 4499,479 4496,461 4492,434 4489,407 4482,395 4479,384 4475,365 4475,344 4478,332 4482,326 4527,335 4547,342 4562,344 4593,340 4622,325 4645,316 4659,310 4660,293 4658,225 4641,132 4621,89 4614,61 4618,34 4635,4 4643,0 4649,1 " class="polyStyle" id="441224" style="fill:#f6f67b"/>
<path d="" class="polyStyle" id="" style="fill:#fbe6ef"/>
<path d="" class="polyStyle" id="451224" style="fill:#fbe6ef"/>
<path d="" class="polyStyle" id="350627" style="fill:#f6f67b"/>
<path d="" class="polyStyle" id="" style="fill:#f6f67b"/>
<path d="" class="polyStyle" id="350525" style="fill:#f6f67b"/>
<path d="" class="polyStyle" id="530124" style="fill:#ee8b94"/>
<path d="" class="polyStyle" id="522627" style="fill:#ee8b94"/>
<path d="" class="polyStyle" id="510421" style="fill:#fbe6ef"/>
<path d="" class="polyStyle" id="522623" style="fill:#d4ecb2"/>
<path d="" class="polyStyle" id="430321" style="fill:#d4ecb2"/>
<path d="" class="polyStyle" id="511129" style="fill:#d4ecb2"/>
<path d="" class="polyStyle" id="511423" style="fill:#ee8b94"/>
<path d="" class="polyStyle" id="421023" style="fill:#f6f67b"/>
<path d="" class="polyStyle" id="511724" style="fill:#f6f67b"/>
<path d="" class="polyStyle" id="420526" style="fill:#fbe6ef"/>
<path d="" class="polyStyle" id="511923" style="fill:#fbe6ef"/>
<path d="" class="polyStyle" id="420325" style="fill:#fbe6ef"/>
<path d="" class="polyStyle" id="511921" style="fill:#f6f67b"/>
<path d="" class="polyStyle" id="542525" style="fill:#f6f67b"/>
<path d="" class="polyStyle" id="611026" style="fill:#ee8b94"/>
<path d="" class="polyStyle" id="411023" style="fill:#fbe6ef"/>
<path d="" class="polyStyle" id="632323" style="fill:#f6f67b"/>
<path d="" class="polyStyle" id="140525" style="fill:#d4ecb2"/>
<path d="" class="polyStyle" id="410922" style="fill:#ee8b94"/>
<path d="" class="polyStyle" id="621027" style="fill:#ee8b94"/>
<path d="" class="polyStyle" id="130427" style="fill:#f6f67b"/>
<path d="" class="polyStyle" id="130121" style="fill:#ee8b94"/>
<path d="" class="polyStyle" id="610823" style="fill:#fbe6ef"/>
<path d="" class="polyStyle" id="130225" style="fill:#fbe6ef"/>
<path d="" class="polyStyle" id="130322" style="fill:#d4ecb2"/>
<path d="" class="polyStyle" id="653130" style="fill:#f6f67b"/>
<path d="" class="polyStyle" id="130822" style="fill:#fbe6ef"/>
<path d="" class="polyStyle" id="211221" style="fill:#f6f67b"/>
<path d="" class="polyStyle" id="210921" style="fill:#f6f67b"/>
<path d="" class="polyStyle" id="150223" style="fill:#f8c67d"/>
<path d="" class="polyStyle" id="220422" style="fill:#d4ecb2"/>
<path d="" class="polyStyle" id="340721" style="fill:#f6f67b"/>
<path d="" class="polyStyle" id="510824" style="fill:#d4ecb2"/>
<path d="" class="polyStyle" id="610324" style="fill:#f6f67b"/>
<path d="" class="polyStyle" id="530722" style="fill:#ee8b94"/>
<path d="" class="polyStyle" id="340823" style="fill:#d4ecb2"/>
<path d="" class="polyStyle" id="620825" style="fill:#d4ecb2"/>
<path d="" class="polyStyle" id="421125" style="fill:#ee8b94"/>
<path d="" class="polyStyle" id="210281" style="fill:#ee8b94"/>
<path d="" class="polyStyle" id="440883" style="fill:#f6f67b"/>
<polygon points="4634,4805 4647,4798 4654,4784 4675,4797 4706,4811 4721,4824 4738,4842 4758,4843 4765,4856 4788,4856 4804,4851 4806,4835 4814,4831 4821,4816 4833,4806 4841,4802 4864,4806 4870,4801 4878,4793 4908,4799 4927,4797 4948,4803 4965,4807 4960,4819 4981,4837 5004,4837 5018,4834 5025,4844 5034,4868 5046,4872 5061,4874 5072,4882 5075,4924 5103,4928 5110,4959 5124,4972 5135,4995 5122,5036 5110,5058 5133,5095 5139,5121 5144,5134 5150,5140 5166,5132 5174,5127 5189,5123 5198,5120 5227,5120 5268,5127 5299,5119 5331,5101 5337,5101 5343,5100 5361,5109 5381,5110 5386,5117 5401,5126 5405,5138 5418,5159 5422,5186 5426,5217 5432,5230 5439,5229 5457,5236 5469,5264 5482,5276 5487,5284 5500,5285 5518,5287 5538,5292 5546,5297 5535,5306 5567,5331 5567,5338 5581,5340 5589,5338 5591,5352 5594,5361 5603,5363 5610,5347 5619,5350 5620,5363 5624,5376 5627,5386 5634,5390 5642,5397 5645,5404 5653,5404 5661,5408 5656,5419 5651,5437 5643,5441 5636,5442 5631,5450 5630,5455 5629,5462 5621,5469 5611,5472 5605,5475 5602,5478 5596,5476 5590,5476 5582,5473 5574,5476 5570,5484 5558,5494 5563,5496 5568,5503 5572,5514 5577,5523 5568,5527 5560,5534 5555,5529 5541,5536 5535,5545 5524,5549 5520,5547 5514,5547 5512,5553 5510,5562 5503,5563 5495,5570 5486,5572 5476,5572 5467,5566 5457,5567 5451,5571 5448,5576 5448,5581 5440,5584 5433,5589 5428,5592 5430,5600 5437,5607 5446,5614 5454,5620 5459,5629 5455,5635 5453,5642 5459,5651 5463,5656 5465,5662 5461,5670 5456,5672 5446,5673 5439,5676 5437,5680 5440,5689 5444,5696 5445,5707 5444,5713 5448,5720 5450,5729 5451,5736 5458,5739 5465,5745 5468,5755 5470,5762 5474,5766 5477,5766 5484,5765 5492,5770 5497,5783 5499,5796 5499,5807 5496,5819 5501,5819 5510,5819 5514,5820 5516,5825 5521,5825 5527,5823 5537,5827 5538,5839 5540,5851 5542,5860 5547,5864 5550,5866 5547,5873 5544,5887 5543,5891 5550,5902 5551,5907 5553,5915 5558,5920 5556,5930 5555,5934 5563,5945 5570,5948 5568,5954 5572,5960 5573,5968 5572,5972 5577,5979 5587,5987 5595,5994 5600,5996 5605,6004 5612,6009 5620,6014 5628,6012 5640,6011 5646,6016 5655,6018 5662,6018 5664,6024 5667,6029 5672,6035 5671,6042 5673,6046 5678,6052 5686,6053 5693,6065 5690,6079 5684,6086 5665,6092 5652,6100 5637,6125 5630,6137 5614,6142 5589,6153 5579,6160 5568,6162 5565,6171 5561,6182 5556,6190 5543,6194 5535,6196 5527,6195 5523,6199 5495,6197 5484,6194 5475,6196 5470,6191 5466,6185 5456,6180 5448,6185 5436,6186 5430,6183 5420,6183 5413,6187 5408,6194 5399,6194 5390,6195 5378,6200 5370,6200 5363,6203 5360,6202 5355,6196 5350,6195 5344,6199 5333,6196 5327,6195 5313,6197 5314,6206 5306,6220 5304,6232 5296,6237 5282,6242 5288,6247 5295,6246 5296,6252 5300,6250 5301,6258 5292,6265 5284,6262 5281,6265 5279,6272 5270,6272 5259,6274 5255,6278 5248,6276 5242,6275 5235,6279 5231,6284 5241,6284 5244,6290 5251,6290 5257,6298 5263,6301 5266,6312 5268,6325 5276,6341 5297,6358 5305,6357 5332,6361 5346,6366 5356,6372 5360,6377 5361,6394 5358,6412 5349,6416 5352,6433 5332,6445 5314,6439 5304,6419 5281,6419 5272,6407 5263,6404 5252,6410 5240,6404 5225,6413 5209,6447 5189,6525 5189,6563 5208,6622 5226,6658 5253,6701 5299,6729 5340,6741 5425,6749 5464,6754 5509,6755 5547,6758 5596,6759 5648,6760 5681,6754 5719,6738 5741,6714 5770,6692 5804,6661 5824,6635 5848,6604 5865,6571 5877,6541 5889,6514 5917,6482 5931,6472 5947,6462 5979,6434 5999,6405 6017,6373 6035,6345 6056,6317 6081,6287 6087,6267 6121,6273 6138,6282 6160,6289 6169,6298 6177,6307 6191,6316 6200,6324 6214,6326 6231,6325 6240,6324 6248,6344 6250,6355 6254,6376 6251,6390 6245,6412 6242,6435 6241,6445 6247,6450 6258,6455 6270,6458 6286,6457 6299,6452 6310,6439 6318,6431 6328,6422 6347,6423 6363,6422 6374,6423 6395,6430 6412,6441 6433,6451 6451,6457 6463,6461 6485,6461 6496,6470 6503,6479 6519,6486 6530,6491 6556,6491 6569,6492 6584,6497 6594,6497 6607,6493 6623,6496 6641,6490 6655,6489 6683,6481 6697,6472 6719,6456 6737,6444 6751,6436 6763,6427 6774,6421 6778,6412 6780,6405 6785,6398 6792,6389 6797,6376 6809,6369 6817,6366 6824,6362 6830,6350 6832,6343 6838,6338 6846,6338 6854,6337 6861,6329 6868,6317 6875,6305 6891,6303 6899,6296 6906,6287 6915,6280 6925,6278 6936,6275 6949,6277 6965,6278 6979,6276 6990,6270 7002,6263 7020,6255 7030,6251 7030,6237 7026,6218 7043,6203 7057,6182 7069,6166 7089,6136 7118,6158 7161,6198 7183,6255 7186,6331 7189,6398 7199,6440 7233,6514 7266,6554 7285,6585 7283,6634 7287,6688 7309,6741 7339,6806 7356,6840 7361,6874 7346,6877 7331,6881 7318,6886 7305,6891 7293,6896 7283,6903 7272,6910 7263,6917 7253,6924 7242,6932 7233,6939 7225,6947 7215,6955 7208,6962 7203,6966 7195,6966 7187,6969 7179,6973 7178,6977 7177,6980 7170,6990 7165,6996 7147,6995 7132,6988 7130,6979 7133,6971 7135,6961 7137,6954 7143,6953 7149,6955 7155,6957 7161,6955 7161,6949 7156,6943 7150,6941 7144,6944 7143,6937 7137,6932 7133,6926 7127,6928 7127,6934 7130,6943 7132,6949 7129,6956 7123,6956 7116,6955 7120,6962 7101,6966 7095,6966 7089,6963 7076,6965 7075,6977 7064,6976 7053,6977 7046,6989 7047,6997 7033,7014 7025,7025 7017,7034 7008,7039 7005,7050 6997,7054 6986,7051 6983,7045 6978,7029 6972,7031 6960,7024 6952,7014 6947,6999 6948,6993 6927,6993 6917,6996 6918,7008 6911,7014 6896,7016 6882,7025 6872,7034 6865,7041 6865,7050 6867,7060 6865,7070 6859,7078 6857,7088 6865,7091 6873,7108 6874,7117 6872,7125 6878,7130 6892,7132 6898,7133 6903,7145 6900,7152 6898,7159 6894,7168 6882,7179 6872,7190 6873,7206 6869,7220 6861,7234 6861,7244 6850,7257 6840,7267 6834,7268 6820,7262 6811,7260 6805,7265 6795,7280 6788,7289 6782,7289 6775,7285 6762,7292 6753,7297 6750,7310 6740,7310 6735,7302 6727,7294 6718,7282 6710,7269 6710,7260 6713,7246 6721,7241 6720,7235 6714,7227 6706,7222 6700,7221 6694,7216 6690,7206 6673,7208 6661,7203 6653,7204 6645,7211 6632,7203 6625,7205 6618,7213 6608,7223 6601,7228 6600,7220 6602,7211 6596,7216 6597,7231 6586,7233 6577,7227 6569,7226 6564,7237 6557,7244 6574,7244 6575,7256 6579,7264 6589,7274 6592,7280 6595,7290 6603,7297 6612,7306 6619,7306 6623,7295 6627,7291 6635,7296 6639,7295 6644,7288 6645,7283 6653,7279 6665,7282 6663,7288 6654,7290 6649,7298 6640,7304 6647,7309 6655,7310 6662,7309 6669,7305 6674,7295 6676,7288 6681,7281 6690,7281 6693,7283 6695,7286 6695,7291 6685,7292 6680,7306 6686,7312 6681,7316 6687,7322 6692,7323 6694,7330 6690,7332 6686,7332 6676,7324 6672,7319 6665,7319 6658,7323 6660,7329 6666,7333 6663,7338 6652,7331 6648,7328 6646,7321 6643,7316 6636,7314 6632,7320 6640,7324 6645,7330 6648,7339 6658,7353 6665,7356 6672,7359 6676,7367 6677,7373 6669,7374 6663,7372 6660,7378 6654,7383 6648,7383 6644,7377 6637,7376 6631,7376 6632,7382 6639,7393 6641,7399 6634,7407 6628,7407 6630,7414 6636,7419 6644,7422 6648,7429 6651,7435 6652,7441 6646,7442 6642,7448 6636,7449 6630,7447 6620,7453 6617,7459 6613,7453 6608,7447 6601,7439 6597,7431 6591,7431 6585,7434 6579,7434 6572,7441 6571,7447 6571,7453 6578,7455 6579,7461 6575,7467 6569,7472 6554,7480 6542,7481 6537,7488 6516,7498 6506,7493 6496,7492 6492,7504 6488,7511 6477,7511 6467,7510 6460,7507 6452,7507 6446,7511 6428,7515 6413,7516 6395,7522 6389,7526 6369,7528 6346,7543 6354,7560 6305,7572 6292,7575 6283,7581 6268,7582 6265,7572 6261,7564 6237,7572 6227,7577 6226,7588 6218,7593 6209,7586 6203,7580 6199,7596 6186,7603 6177,7600 6168,7593 6150,7597 6148,7607 6150,7619 6142,7625 6127,7632 6112,7626 6092,7626 6057,7613 6042,7602 6023,7588 6000,7580 5993,7585 5990,7599 5982,7608 5994,7617 5994,7623 5988,7626 5981,7630 5982,7639 5989,7647 5998,7642 6000,7653 6001,7660 6004,7671 6019,7687 6028,7688 6035,7685 6040,7696 6047,7700 6058,7708 6065,7721 6058,7725 6058,7733 6060,7744 6050,7746 6050,7752 6052,7760 6054,7766 6051,7781 6040,7776 6035,7769 6033,7777 6032,7785 6027,7797 6020,7796 6014,7792 6006,7785 5998,7794 5990,7807 5982,7808 5979,7816 5970,7815 5956,7815 5949,7819 5940,7821 5934,7821 5928,7819 5926,7825 5917,7828 5909,7831 5901,7831 5894,7827 5889,7833 5866,7836 5858,7831 5852,7837 5851,7845 5851,7853 5853,7864 5846,7869 5840,7870 5831,7872 5830,7864 5828,7857 5822,7859 5813,7845 5803,7849 5803,7842 5804,7831 5800,7822 5796,7814 5787,7810 5777,7814 5766,7818 5757,7822 5744,7832 5737,7833 5729,7829 5718,7825 5706,7817 5701,7810 5692,7810 5686,7813 5686,7821 5685,7832 5688,7844 5695,7849 5699,7855 5702,7857 5698,7867 5698,7872 5693,7885 5684,7889 5669,7893 5662,7897 5657,7902 5648,7901 5641,7902 5636,7909 5633,7914 5632,7923 5629,7933 5624,7945 5626,7954 5620,7957 5610,7969 5605,7973 5592,7973 5587,7972 5582,7972 5570,7977 5551,7979 5541,7986 5528,7996 5525,8000 5513,8000 5507,8002 5499,8000 5486,7993 5472,7992 5458,7988 5448,7991 5439,7994 5427,7993 5424,7984 5417,7984 5409,7990 5406,7999 5397,8010 5386,8015 5372,8021 5351,8033 5330,8038 5314,8049 5303,8056 5285,8057 5268,8061 5264,8065 5259,8075 5245,8079 5238,8078 5232,8086 5219,8091 5205,8091 5200,8092 5189,8098 5185,8098 5179,8093 5177,8084 5168,8083 5159,8083 5155,8093 5152,8100 5150,8090 5143,8082 5135,8080 5130,8074 5123,8063 5121,8055 5116,8052 5114,8045 5115,8040 5116,8035 5114,8031 5108,8028 5103,8025 5103,8020 5106,8015 5110,8013 5117,8009 5121,8007 5120,8000 5115,7997 5112,7992 5111,7987 5102,7980 5095,7980 5090,7976 5086,7972 5083,7972 5081,7969 5077,7968 5073,7964 5068,7962 5064,7965 5062,7972 5061,7976 5054,7980 5046,7980 5044,7983 5041,7985 5038,7986 5036,7989 5030,7992 5023,7995 5017,7998 5010,8000 5005,8002 5000,8003 4995,8003 4991,8003 4987,8003 4982,8008 4972,8008 4960,8003 4955,7993 4951,7992 4942,7994 4934,7996 4932,8000 4933,8004 4941,8013 4938,8020 4930,8018 4927,8015 4927,8010 4922,8008 4915,8009 4908,8016 4901,8017 4898,8016 4892,8012 4886,8011 4879,8008 4871,8002 4868,8003 4862,8005 4857,8010 4851,8012 4845,8013 4837,8014 4833,8014 4830,8010 4828,8007 4820,8007 4814,8007 4806,8011 4798,8011 4794,8008 4789,8004 4782,8002 4775,8002 4770,8002 4768,7998 4769,7991 4771,7987 4772,7982 4774,7976 4775,7971 4783,7970 4789,7969 4796,7961 4801,7958 4801,7952 4803,7941 4806,7935 4810,7934 4821,7934 4823,7937 4825,7940 4830,7937 4833,7935 4837,7935 4840,7937 4844,7936 4848,7937 4853,7939 4856,7939 4859,7935 4860,7930 4863,7925 4862,7921 4867,7916 4871,7916 4868,7912 4867,7909 4865,7905 4866,7900 4861,7892 4857,7893 4852,7893 4848,7888 4848,7882 4844,7877 4837,7875 4835,7869 4833,7858 4828,7853 4823,7852 4819,7848 4813,7846 4810,7844 4806,7843 4803,7840 4801,7836 4802,7828 4797,7824 4789,7821 4781,7821 4771,7822 4766,7826 4758,7827 4753,7827 4747,7826 4742,7824 4741,7819 4742,7813 4748,7809 4751,7801 4751,7797 4748,7789 4744,7786 4739,7780 4744,7777 4747,7776 4750,7774 4751,7764 4751,7745 4748,7736 4742,7729 4741,7724 4744,7718 4748,7718 4750,7713 4747,7709 4747,7704 4747,7700 4752,7695 4751,7689 4744,7685 4737,7683 4732,7682 4728,7680 4727,7676 4729,7672 4731,7666 4726,7662 4719,7652 4711,7645 4710,7638 4704,7632 4699,7632 4696,7626 4692,7624 4684,7622 4682,7614 4684,7603 4683,7596 4678,7591 4674,7586 4671,7581 4671,7576 4672,7571 4677,7555 4683,7552 4688,7548 4692,7548 4695,7544 4697,7540 4697,7535 4694,7531 4688,7526 4686,7521 4688,7515 4688,7504 4688,7495 4690,7489 4698,7486 4702,7480 4708,7475 4715,7471 4718,7467 4720,7462 4721,7452 4725,7448 4726,7437 4727,7431 4727,7422 4728,7410 4727,7404 4727,7400 4727,7392 4721,7387 4717,7385 4713,7386 4709,7389 4702,7389 4696,7386 4694,7379 4692,7374 4691,7370 4687,7369 4682,7370 4673,7372 4667,7370 4662,7372 4659,7376 4650,7378 4644,7377 4640,7380 4631,7382 4627,7386 4617,7391 4613,7392 4606,7390 4602,7387 4599,7382 4591,7377 4582,7374 4572,7375 4567,7379 4562,7385 4554,7389 4548,7390 4545,7393 4540,7400 4531,7405 4527,7407 4523,7411 4521,7414 4509,7409 4503,7409 4498,7405 4495,7400 4485,7399 4479,7395 4476,7390 4475,7385 4482,7383 4485,7380 4489,7376 4489,7370 4492,7365 4496,7361 4496,7354 4493,7349 4490,7341 4491,7336 4495,7333 4496,7329 4493,7324 4489,7326 4483,7326 4480,7320 4485,7319 4487,7315 4490,7310 4496,7309 4497,7294 4498,7274 4502,7273 4505,7272 4506,7267 4505,7259 4503,7252 4505,7248 4503,7244 4501,7243 4499,7241 4496,7241 4494,7239 4494,7235 4495,7231 4495,7226 4493,7223 4493,7220 4490,7217 4486,7216 4482,7216 4477,7216 4474,7216 4471,7215 4468,7214 4467,7211 4469,7207 4470,7202 4472,7197 4474,7193 4476,7190 4480,7188 4484,7188 4490,7188 4495,7188 4498,7191 4503,7195 4506,7197 4511,7196 4516,7198 4519,7199 4521,7204 4526,7204 4533,7204 4536,7206 4533,7211 4534,7216 4537,7219 4541,7220 4543,7224 4545,7229 4553,7231 4552,7225 4556,7219 4559,7215 4567,7213 4572,7214 4578,7217 4584,7216 4585,7212 4587,7206 4592,7203 4595,7206 4599,7211 4609,7225 4619,7226 4623,7223 4629,7212 4629,7206 4631,7198 4631,7194 4634,7190 4642,7185 4637,7179 4637,7176 4635,7168 4627,7167 4617,7164 4612,7161 4617,7154 4617,7144 4617,7136 4613,7128 4606,7124 4603,7118 4599,7117 4595,7117 4592,7116 4586,7112 4579,7112 4575,7107 4575,7101 4577,7095 4582,7093 4588,7091 4602,7084 4606,7078 4606,7074 4603,7075 4596,7076 4595,7070 4599,7067 4607,7068 4618,7066 4623,7061 4625,7058 4622,7055 4620,7050 4620,7038 4622,7028 4624,7023 4631,7023 4637,7024 4639,7021 4638,7015 4642,7012 4648,7007 4646,7000 4644,6993 4644,6985 4647,6976 4654,6962 4663,6959 4664,6954 4667,6944 4665,6938 4668,6935 4674,6930 4677,6923 4682,6910 4688,6905 4686,6896 4679,6898 4676,6900 4670,6900 4662,6898 4660,6891 4653,6880 4635,6875 4627,6868 4630,6862 4627,6858 4625,6848 4630,6838 4635,6833 4640,6827 4642,6820 4638,6817 4636,6812 4638,6802 4636,6786 4631,6785 4633,6765 4625,6749 4620,6749 4618,6735 4621,6726 4621,6714 4627,6698 4633,6694 4638,6682 4653,6673 4659,6665 4670,6644 4672,6635 4672,6628 4675,6612 4687,6589 4686,6572 4696,6550 4709,6547 4713,6554 4724,6557 4742,6565 4758,6560 4763,6553 4779,6547 4781,6542 4777,6538 4786,6531 4787,6525 4790,6518 4791,6515 4796,6510 4804,6501 4816,6498 4822,6480 4815,6471 4812,6455 4820,6445 4824,6441 4825,6437 4826,6432 4825,6427 4821,6424 4817,6422 4813,6419 4807,6414 4801,6409 4779,6393 4764,6380 4754,6372 4753,6367 4752,6364 4749,6341 4746,6338 4742,6338 4737,6337 4734,6335 4727,6336 4706,6333 4697,6337 4686,6327 4678,6320 4668,6317 4661,6312 4654,6312 4648,6311 4643,6301 4620,6305 4617,6306 4593,6317 4561,6331 4533,6344 4500,6355 4470,6358 4464,6343 4458,6321 4449,6331 4439,6318 4438,6305 4433,6296 4425,6274 4413,6276 4394,6282 4375,6290 4361,6302 4353,6304 4341,6303 4331,6304 4272,6332 4263,6334 4248,6326 4230,6334 4186,6343 4180,6355 4149,6365 4137,6369 4124,6346 4118,6319 4147,6303 4160,6294 4183,6283 4214,6265 4223,6259 4224,6243 4257,6230 4270,6233 4283,6231 4292,6228 4293,6220 4261,6212 4279,6182 4299,6179 4310,6174 4325,6169 4327,6136 4320,6114 4330,6107 4329,6090 4320,6085 4307,6056 4317,6039 4310,6017 4295,5994 4281,5980 4272,5971 4223,5964 4182,5962 4157,5940 4166,5927 4179,5907 4169,5885 4144,5862 4149,5846 4153,5838 4172,5835 4191,5829 4201,5822 4206,5812 4189,5799 4199,5767 4220,5732 4254,5702 4272,5690 4296,5674 4312,5663 4341,5641 4363,5640 4395,5642 4402,5644 4417,5659 4418,5670 4424,5682 4441,5676 4450,5661 4462,5645 4476,5637 4475,5631 4442,5610 4435,5594 4430,5551 4438,5544 4462,5539 4455,5509 4462,5491 4457,5474 4470,5458 4465,5452 4456,5438 4469,5437 4471,5417 4485,5403 4479,5385 4490,5379 4494,5362 4487,5323 4499,5298 4490,5280 4503,5267 4500,5248 4490,5241 4484,5237 4482,5231 4488,5225 4482,5225 4475,5228 4469,5222 4463,5226 4469,5230 4468,5236 4463,5242 4442,5252 4431,5266 4419,5269 4413,5269 4391,5248 4385,5246 4371,5246 4352,5244 4337,5275 4337,5314 4342,5323 4344,5341 4330,5353 4309,5344 4306,5326 4297,5319 4282,5330 4283,5343 4256,5350 4243,5343 4240,5335 4232,5316 4244,5284 4256,5249 4280,5227 4281,5217 4282,5208 4269,5185 4280,5173 4295,5155 4313,5133 4276,5097 4269,5086 4269,5062 4256,5060 4220,5035 4178,4990 4163,4967 4158,4960 4150,4958 4137,4955 4135,4944 4145,4934 4165,4926 4166,4913 4179,4898 4198,4860 4220,4826 4223,4803 4236,4790 4249,4794 4266,4795 4274,4809 4304,4813 4318,4826 4330,4842 4323,4864 4344,4866 4361,4863 4377,4859 4393,4844 4403,4807 4416,4808 4430,4810 4470,4804 4487,4795 4506,4797 4519,4791 4534,4783 4537,4783 4553,4782 4572,4782 4590,4777 4606,4799 " class="polyStyle" id="441204" style="fill:#fbe6ef"/>
<path d="" class="polyStyle" id="469006" style="fill:#d4ecb2"/>
<path d="" class="polyStyle" id="469002" style="fill:#ee8b94"/>
<path d="" class="polyStyle" id="469005" style="fill:#fbe6ef"/>
<path d="" class="polyStyle" id="440882" style="fill:#ee8b94"/>
<path d="" class="polyStyle" id="450681" style="fill:#ee8b94"/>
<path d="" class="polyStyle" id="441581" style="fill:#d4ecb2"/>
<polygon points="6738,3498 6746,3510 6753,3528 6759,3538 6767,3538 6783,3529 6787,3521 6791,3524 6796,3523 6814,3528 6823,3532 6830,3538 6836,3549 6839,3553 6843,3555 6850,3554 6860,3545 6866,3537 6876,3528 6888,3522 6897,3520 6915,3516 6920,3527 6911,3535 6903,3556 6896,3569 6893,3576 6890,3585 6894,3597 6899,3606 6913,3607 6923,3591 6928,3582 6938,3574 6947,3572 6955,3573 6964,3574 6975,3577 6986,3587 6998,3585 7006,3583 7011,3569 7017,3565 7024,3562 7034,3562 7044,3565 7055,3570 7077,3582 7086,3586 7095,3592 7097,3599 7098,3605 7099,3611 7100,3618 7101,3636 7101,3653 7110,3664 7114,3672 7113,3683 7104,3707 7104,3713 7098,3725 7093,3731 7082,3742 7074,3747 7066,3752 7058,3755 7048,3760 7042,3761 7036,3764 7010,3776 6994,3783 6981,3785 6965,3792 6958,3801 6951,3805 6948,3817 6944,3836 6946,3855 6944,3876 6944,3887 6943,3898 6951,3909 6968,3919 6972,3927 6978,3933 6985,3935 6992,3935 7000,3934 7010,3933 7020,3933 7030,3932 7051,3932 7059,3942 7062,3953 7057,3970 7062,3982 7072,3991 7085,3998 7099,4006 7132,4006 7149,4005 7163,4004 7173,4003 7182,4001 7189,4004 7192,4014 7184,4030 7180,4050 7181,4063 7188,4071 7191,4089 7181,4090 7169,4085 7158,4090 7156,4096 7158,4105 7165,4115 7171,4128 7174,4137 7176,4146 7179,4155 7179,4163 7177,4172 7177,4179 7175,4190 7183,4198 7191,4207 7201,4221 7221,4216 7258,4221 7276,4223 7294,4205 7308,4212 7324,4217 7343,4220 7348,4238 7349,4260 7363,4263 7381,4270 7395,4268 7413,4283 7436,4301 7443,4310 7439,4325 7434,4366 7427,4393 7423,4415 7417,4433 7417,4456 7415,4476 7417,4499 7420,4512 7398,4511 7382,4523 7371,4549 7365,4557 7362,4563 7362,4586 7355,4599 7346,4607 7327,4616 7306,4621 7287,4630 7270,4634 7250,4636 7248,4649 7242,4654 7227,4679 7214,4700 7204,4727 7206,4739 7208,4745 7208,4752 7209,4758 7209,4764 7207,4774 7203,4782 7196,4788 7189,4792 7181,4797 7172,4803 7168,4811 7168,4821 7169,4840 7168,4855 7168,4883 7166,4893 7164,4900 7161,4910 7141,4922 7130,4933 7133,4961 7119,4978 7120,4987 7120,5004 7119,5022 7120,5040 7120,5056 7119,5063 7118,5071 7119,5079 7124,5090 7160,5103 7192,5103 7211,5110 7223,5111 7236,5102 7241,5092 7236,5085 7223,5066 7227,5041 7222,5022 7220,5011 7231,5006 7246,4999 7261,4990 7344,5000 7383,5011 7430,5058 7489,5125 7511,5202 7569,5195 7612,5211 7596,5265 7567,5331 7548,5375 7537,5421 7534,5449 7530,5468 7526,5481 7523,5505 7524,5517 7519,5541 7502,5569 7467,5599 7416,5631 7399,5644 7371,5664 7349,5674 7343,5683 7337,5689 7323,5703 7318,5712 7319,5722 7329,5727 7348,5728 7367,5741 7392,5751 7400,5761 7408,5752 7427,5755 7425,5762 7413,5769 7415,5784 7422,5791 7434,5782 7433,5794 7430,5803 7423,5798 7415,5810 7406,5825 7394,5832 7387,5838 7370,5855 7364,5862 7351,5869 7326,5872 7317,5872 7310,5869 7298,5867 7266,5862 7263,5873 7260,5882 7245,5946 7195,5946 7199,5938 7202,5928 7201,5911 7207,5900 7218,5895 7223,5886 7219,5871 7200,5852 7206,5847 7209,5838 7203,5828 7195,5825 7192,5819 7190,5807 7182,5805 7167,5817 7175,5833 7169,5839 7164,5848 7164,5854 7165,5860 7165,5867 7166,5875 7166,5881 7162,5889 7166,5899 7158,5907 7146,5908 7135,5913 7128,5917 7122,5918 7112,5915 7111,5905 7113,5891 7107,5880 7096,5863 7096,5855 7106,5844 7117,5831 7105,5822 7098,5819 7090,5820 7078,5824 7065,5822 7052,5821 7044,5829 7038,5831 7028,5825 7019,5821 7001,5815 6989,5813 6981,5812 6973,5804 6967,5795 6958,5795 6957,5788 6957,5779 6954,5776 6948,5776 6944,5780 6941,5786 6941,5790 6942,5800 6945,5810 6937,5815 6930,5810 6925,5800 6911,5800 6900,5801 6889,5807 6886,5814 6885,5822 6884,5828 6874,5835 6856,5841 6846,5852 6833,5850 6818,5834 6813,5839 6811,5843 6808,5850 6799,5875 6777,5859 6764,5842 6761,5829 6760,5817 6761,5807 6751,5789 6752,5772 6765,5749 6775,5745 6785,5741 6800,5729 6799,5711 6806,5690 6801,5683 6792,5665 6780,5660 6767,5662 6758,5654 6754,5645 6751,5632 6752,5621 6758,5613 6764,5602 6754,5594 6757,5579 6762,5558 6754,5531 6744,5514 6732,5511 6697,5484 6681,5479 6655,5465 6634,5462 6618,5465 6607,5455 6602,5455 6593,5457 6585,5459 6564,5456 6541,5448 6523,5449 6503,5452 6482,5438 6476,5437 6471,5436 6462,5441 6458,5444 6450,5452 6440,5459 6426,5468 6415,5473 6404,5477 6392,5481 6387,5481 6373,5490 6366,5496 6349,5487 6340,5479 6337,5481 6328,5486 6319,5491 6310,5497 6301,5504 6292,5509 6282,5514 6273,5519 6260,5525 6246,5530 6233,5535 6220,5540 6211,5546 6203,5552 6196,5558 6187,5564 6178,5569 6168,5572 6160,5574 6151,5576 6146,5577 6140,5576 6107,5572 6079,5567 6060,5565 6058,5558 6063,5546 6060,5534 6053,5528 6048,5524 6032,5500 6029,5489 6007,5480 5999,5469 5992,5464 5989,5462 5986,5462 5970,5468 5960,5467 5937,5471 5912,5464 5895,5450 5880,5430 5871,5425 5868,5424 5835,5416 5823,5407 5799,5386 5793,5386 5789,5386 5759,5401 5740,5396 5736,5394 5731,5391 5722,5386 5719,5385 5717,5380 5710,5379 5704,5382 5696,5389 5693,5396 5689,5397 5685,5402 5680,5403 5671,5407 5661,5408 5653,5404 5645,5404 5642,5397 5634,5390 5627,5386 5624,5376 5620,5363 5619,5350 5610,5347 5603,5363 5594,5361 5591,5352 5589,5338 5581,5340 5567,5338 5567,5331 5535,5306 5546,5297 5538,5292 5518,5287 5500,5285 5487,5284 5482,5276 5469,5264 5457,5236 5439,5229 5432,5230 5426,5217 5422,5186 5418,5159 5405,5138 5401,5126 5386,5117 5381,5110 5361,5109 5343,5100 5337,5101 5341,5066 5332,5057 5343,5046 5352,5044 5355,5038 5365,5027 5374,5016 5382,5009 5385,5000 5396,4980 5396,4955 5404,4939 5420,4927 5435,4914 5448,4910 5468,4895 5485,4887 5495,4872 5482,4864 5485,4857 5493,4848 5491,4831 5502,4824 5510,4808 5518,4796 5526,4789 5536,4777 5541,4767 5531,4737 5535,4723 5552,4710 5573,4704 5597,4699 5607,4707 5605,4717 5624,4717 5630,4728 5641,4728 5649,4723 5658,4698 5659,4689 5677,4683 5686,4678 5682,4661 5672,4647 5666,4603 5691,4585 5700,4579 5718,4580 5722,4586 5728,4596 5737,4601 5746,4597 5749,4590 5756,4587 5766,4587 5769,4594 5777,4609 5786,4623 5790,4635 5790,4653 5796,4656 5805,4648 5819,4642 5839,4634 5855,4634 5880,4631 5907,4626 5928,4624 5948,4618 5955,4611 5963,4595 5968,4581 5970,4572 5989,4567 6013,4565 6028,4565 6043,4554 6049,4549 6072,4540 6071,4527 6078,4508 6081,4500 6085,4486 6075,4473 6064,4464 6057,4455 6058,4439 6059,4431 6064,4420 6069,4412 6075,4403 6082,4395 6088,4386 6092,4379 6095,4371 6093,4364 6090,4357 6085,4351 6083,4343 6086,4336 6091,4328 6093,4320 6101,4303 6102,4289 6094,4283 6086,4278 6074,4265 6078,4248 6081,4233 6082,4211 6084,4200 6086,4188 6087,4176 6082,4161 6074,4155 6067,4144 6061,4128 6055,4121 6058,4111 6068,4107 6076,4101 6083,4098 6089,4095 6095,4091 6105,4081 6111,4076 6119,4075 6128,4073 6144,4073 6153,4072 6161,4070 6170,4068 6188,4077 6196,4076 6203,4061 6212,4044 6220,4032 6220,4025 6242,4018 6251,4019 6265,4013 6267,4003 6274,3997 6283,3985 6289,3985 6301,3996 6328,4022 6337,4027 6346,4021 6356,4016 6371,4015 6388,4017 6395,4021 6401,4019 6410,4004 6420,3999 6434,3991 6444,3992 6450,3992 6463,3997 6482,4006 6501,4003 6502,3993 6506,3981 6514,3962 6514,3951 6503,3938 6494,3935 6487,3925 6485,3910 6484,3901 6480,3887 6472,3875 6469,3865 6480,3851 6486,3842 6493,3836 6501,3831 6508,3829 6520,3825 6533,3827 6545,3828 6559,3821 6565,3820 6577,3811 6578,3805 6584,3799 6590,3795 6598,3791 6605,3790 6613,3791 6620,3791 6632,3796 6638,3802 6644,3804 6653,3800 6651,3789 6657,3779 6663,3772 6671,3769 6691,3764 6699,3757 6704,3748 6706,3738 6705,3729 6705,3721 6707,3714 6701,3708 6698,3701 6696,3693 6697,3683 6701,3672 6703,3666 6704,3658 6704,3643 6700,3630 6696,3623 6692,3616 6689,3610 6686,3603 6683,3596 6682,3590 6683,3582 6689,3573 6699,3564 6703,3554 6703,3535 6689,3524 6684,3517 6694,3499 6702,3493 6709,3489 6717,3487 6723,3488 " class="polyStyle" id="441284" style="fill:#ee8b94"/>
<path d="" class="polyStyle" id="421087" style="fill:#ee8b94"/>
<path d="" class="polyStyle" id="420984" style="fill:#fbe6ef"/>
<path d="" class="polyStyle" id="420582" style="fill:#ee8b94"/>
<path d="" class="polyStyle" id="370282" style="fill:#f6f67b"/>
<path d="" class="polyStyle" id="371083" style="fill:#f6f67b"/>
<path d="" class="polyStyle" id="371082" style="fill:#fbe6ef"/>
<path d="" class="polyStyle" id="652801" style="fill:#f8c67d"/>
<path d="" class="polyStyle" id="654301" style="fill:#ee8b94"/>
<path d="" class="polyStyle" id="370687" style="fill:#ee8b94"/>
<path d="" class="polyStyle" id="371482" style="fill:#d4ecb2"/>
<path d="" class="polyStyle" id="421081" style="fill:#fbe6ef"/>
<path d="" class="polyStyle" id="429006" style="fill:#f6f67b"/>
<path d="" class="polyStyle" id="440982" style="fill:#d4ecb2"/>
<path d="" class="polyStyle" id="421181" style="fill:#d4ecb2"/>
<path d="" class="polyStyle" id="321181" style="fill:#d4ecb2"/>
<path d="" class="polyStyle" id="659007" style="fill:#ee8b94"/>
<path d="" class="polyStyle" id="652701" style="fill:#fbe6ef"/>
<path d="" class="polyStyle" id="210781" style="fill:#fbe6ef"/>
<path d="" class="polyStyle" id="460204" style="fill:#f6f67b"/>
<path d="" class="polyStyle" id="210211" style="fill:#f6f67b"/>
<path d="" class="polyStyle" id="450512" style="fill:#ee8b94"/>
<path d="" class="polyStyle" id="450602" style="fill:#fbe6ef"/>
<path d="" class="polyStyle" id="440404" style="fill:#ee8b94"/>
<path d="" class="polyStyle" id="440403" style="fill:#f6f67b"/>
<path d="" class="polyStyle" id="441502" style="fill:#f6f67b"/>
<polygon points="5694,6107 5696,6116 5695,6127 5698,6136 5706,6135 5713,6134 5719,6139 5725,6141 5731,6143 5743,6143 5752,6141 5759,6145 5758,6155 5756,6165 5759,6172 5769,6184 5781,6192 5791,6200 5792,6210 5790,6216 5784,6222 5778,6230 5769,6256 5773,6262 5779,6267 5789,6272 5810,6284 5784,6313 5799,6329 5791,6338 5797,6342 5803,6344 5809,6346 5815,6351 5821,6354 5827,6360 5833,6365 5837,6371 5843,6376 5849,6380 5861,6380 5867,6381 5873,6380 5879,6382 5885,6383 5896,6395 5899,6405 5906,6424 5906,6433 5918,6452 5921,6458 5927,6465 5931,6472 5917,6482 5889,6514 5877,6541 5865,6571 5848,6604 5824,6635 5804,6661 5770,6692 5741,6714 5719,6738 5681,6754 5648,6760 5596,6759 5547,6758 5509,6755 5464,6754 5425,6749 5340,6741 5299,6729 5253,6701 5226,6658 5208,6622 5189,6563 5189,6525 5209,6447 5225,6413 5240,6404 5252,6410 5263,6404 5272,6407 5281,6419 5304,6419 5314,6439 5332,6445 5352,6433 5349,6416 5358,6412 5361,6394 5360,6377 5356,6372 5346,6366 5332,6361 5305,6357 5297,6358 5276,6341 5268,6325 5266,6312 5263,6301 5257,6298 5251,6290 5244,6290 5241,6284 5231,6284 5235,6279 5242,6275 5248,6276 5255,6278 5259,6274 5270,6272 5279,6272 5281,6265 5284,6262 5292,6265 5301,6258 5300,6250 5296,6252 5295,6246 5288,6247 5282,6242 5296,6237 5304,6232 5306,6220 5314,6206 5313,6197 5327,6195 5333,6196 5344,6199 5350,6195 5355,6196 5360,6202 5363,6203 5370,6200 5378,6200 5390,6195 5399,6194 5408,6194 5413,6187 5420,6183 5430,6183 5436,6186 5448,6185 5456,6180 5466,6185 5470,6191 5475,6196 5484,6194 5495,6197 5523,6199 5527,6195 5535,6196 5543,6194 5556,6190 5561,6182 5565,6171 5568,6162 5579,6160 5589,6153 5614,6142 5630,6137 5637,6125 5652,6100 5665,6092 5684,6086 5690,6093 " class="polyStyle" id="441202" style="fill:#ee8b94"/>
<polygon points="5719,5385 5722,5386 5731,5391 5736,5394 5740,5396 5759,5401 5789,5386 5793,5386 5799,5386 5823,5407 5835,5416 5868,5424 5871,5425 5880,5430 5895,5450 5912,5464 5937,5471 5960,5467 5970,5468 5986,5462 5989,5462 5992,5464 5999,5469 6007,5480 6029,5489 6032,5500 6048,5524 6053,5528 6060,5534 6063,5546 6058,5558 6060,5565 6079,5567 6107,5572 6140,5576 6146,5577 6151,5576 6160,5574 6168,5572 6178,5569 6187,5564 6196,5558 6203,5552 6211,5546 6220,5540 6233,5535 6246,5530 6260,5525 6273,5519 6282,5514 6292,5509 6301,5504 6310,5497 6319,5491 6328,5486 6337,5481 6340,5479 6349,5487 6366,5496 6373,5490 6387,5481 6392,5481 6404,5477 6415,5473 6426,5468 6440,5459 6450,5452 6458,5444 6462,5441 6471,5436 6476,5437 6482,5438 6503,5452 6523,5449 6541,5448 6564,5456 6585,5459 6593,5457 6602,5455 6607,5455 6618,5465 6634,5462 6655,5465 6681,5479 6697,5484 6732,5511 6744,5514 6754,5531 6762,5558 6757,5579 6754,5594 6764,5602 6758,5613 6752,5621 6751,5632 6754,5645 6758,5654 6767,5662 6780,5660 6792,5665 6801,5683 6806,5690 6799,5711 6800,5729 6785,5741 6775,5745 6765,5749 6752,5772 6751,5789 6761,5807 6760,5817 6761,5829 6764,5842 6777,5859 6799,5875 6808,5850 6811,5843 6813,5839 6818,5834 6833,5850 6846,5852 6856,5841 6874,5835 6884,5828 6885,5822 6886,5814 6889,5807 6900,5801 6911,5800 6925,5800 6930,5810 6937,5815 6945,5810 6942,5800 6941,5790 6941,5786 6944,5780 6948,5776 6954,5776 6957,5779 6957,5788 6958,5795 6967,5795 6973,5804 6981,5812 6989,5813 7001,5815 7019,5821 7036,5840 7038,5853 7042,5856 7051,5856 7058,5861 7054,5870 7037,5879 7028,5887 7024,5895 7022,5907 7018,5919 7016,5926 7018,5940 7026,5946 7034,5948 7047,5950 7053,5953 7056,5959 7055,5964 7053,5971 7052,5975 7051,5990 7055,6004 7063,6018 7067,6029 7069,6047 7066,6080 7065,6099 7070,6114 7091,6134 7089,6136 7069,6166 7057,6182 7043,6203 7026,6218 7030,6237 7030,6251 7020,6255 7002,6263 6990,6270 6979,6276 6965,6278 6949,6277 6936,6275 6925,6278 6915,6280 6906,6287 6899,6296 6891,6303 6875,6305 6868,6317 6861,6329 6854,6337 6846,6338 6838,6338 6832,6343 6830,6350 6824,6362 6817,6366 6809,6369 6797,6376 6792,6389 6785,6398 6780,6405 6778,6412 6774,6421 6763,6427 6751,6436 6737,6444 6719,6456 6697,6472 6683,6481 6655,6489 6641,6490 6623,6496 6607,6493 6594,6497 6584,6497 6569,6492 6556,6491 6530,6491 6519,6486 6503,6479 6496,6470 6485,6461 6463,6461 6451,6457 6433,6451 6412,6441 6395,6430 6374,6423 6363,6422 6347,6423 6328,6422 6318,6431 6310,6439 6299,6452 6286,6457 6270,6458 6258,6455 6247,6450 6241,6445 6242,6435 6245,6412 6251,6390 6254,6376 6250,6355 6248,6344 6240,6324 6231,6325 6214,6326 6200,6324 6191,6316 6177,6307 6169,6298 6160,6289 6138,6282 6121,6273 6087,6267 6081,6287 6056,6317 6035,6345 6017,6373 5999,6405 5979,6434 5947,6462 5931,6472 5927,6465 5921,6458 5918,6452 5906,6433 5906,6424 5899,6405 5896,6395 5885,6383 5879,6382 5873,6380 5867,6381 5861,6380 5849,6380 5843,6376 5837,6371 5833,6365 5827,6360 5821,6354 5815,6351 5809,6346 5803,6344 5797,6342 5791,6338 5799,6329 5784,6313 5810,6284 5789,6272 5779,6267 5773,6262 5769,6256 5778,6230 5784,6222 5790,6216 5792,6210 5791,6200 5781,6192 5769,6184 5759,6172 5756,6165 5758,6155 5759,6145 5752,6141 5743,6143 5731,6143 5725,6141 5719,6139 5713,6134 5706,6135 5698,6136 5695,6127 5696,6116 5694,6107 5690,6093 5684,6086 5690,6079 5693,6065 5686,6053 5678,6052 5673,6046 5671,6042 5672,6035 5667,6029 5664,6024 5662,6018 5655,6018 5646,6016 5640,6011 5628,6012 5620,6014 5612,6009 5605,6004 5600,5996 5595,5994 5587,5987 5577,5979 5572,5972 5573,5968 5572,5960 5568,5954 5570,5948 5563,5945 5555,5934 5556,5930 5558,5920 5553,5915 5551,5907 5550,5902 5543,5891 5544,5887 5547,5873 5550,5866 5547,5864 5542,5860 5540,5851 5538,5839 5537,5827 5527,5823 5521,5825 5516,5825 5514,5820 5510,5819 5501,5819 5496,5819 5499,5807 5499,5796 5497,5783 5492,5770 5484,5765 5477,5766 5474,5766 5470,5762 5468,5755 5465,5745 5458,5739 5451,5736 5450,5729 5448,5720 5444,5713 5445,5707 5444,5696 5440,5689 5437,5680 5439,5676 5446,5673 5456,5672 5461,5670 5465,5662 5463,5656 5459,5651 5453,5642 5455,5635 5459,5629 5454,5620 5446,5614 5437,5607 5430,5600 5428,5592 5433,5589 5440,5584 5448,5581 5448,5576 5451,5571 5457,5567 5467,5566 5476,5572 5486,5572 5495,5570 5503,5563 5510,5562 5512,5553 5514,5547 5520,5547 5524,5549 5535,5545 5541,5536 5555,5529 5560,5534 5568,5527 5577,5523 5572,5514 5568,5503 5563,5496 5558,5494 5570,5484 5574,5476 5582,5473 5590,5476 5596,5476 5602,5478 5605,5475 5611,5472 5621,5469 5629,5462 5630,5455 5631,5450 5636,5442 5643,5441 5651,5437 5656,5419 5661,5408 5671,5407 5680,5403 5685,5402 5689,5397 5693,5396 5696,5389 5704,5382 5710,5379 5717,5380 " class="polyStyle" id="441203" style="fill:#f6f67b"/>
<path d="" class="polyStyle" id="431002" style="fill:#d4ecb2"/>
<path d="" class="polyStyle" id="500107" style="fill:#fbe6ef"/>
<path d="" class="polyStyle" id="430611" style="fill:#d4ecb2"/>
<path d="" class="polyStyle" id="511304" style="fill:#fbe6ef"/>
<path d="" class="polyStyle" id="340711" style="fill:#ee8b94"/>
<path d="" class="polyStyle" id="320118" style="fill:#f6f67b"/>
<path d="" class="polyStyle" id="510704" style="fill:#f6f67b"/>
<path d="" class="polyStyle" id="411502" style="fill:#ee8b94"/>
<path d="" class="polyStyle" id="320302" style="fill:#d4ecb2"/>
<path d="" class="polyStyle" id="140311" style="fill:#ee8b94"/>
<path d="" class="polyStyle" id="610802" style="fill:#ee8b94"/>
<path d="" class="polyStyle" id="120116" style="fill:#f6f67b"/>
<path d="" class="polyStyle" id="130303" style="fill:#fbe6ef"/>
<path d="" class="polyStyle" id="140211" style="fill:#f6f67b"/>
<path d="" class="polyStyle" id="150207" style="fill:#fbe6ef"/>
<path d="" class="polyStyle" id="211403" style="fill:#f6f67b"/>
<path d="" class="polyStyle" id="150802" style="fill:#f8c67d"/>
<path d="" class="polyStyle" id="210112" style="fill:#ee8b94"/>
<path d="" class="polyStyle" id="230406" style="fill:#d4ecb2"/>
<path d="" class="polyStyle" id="110113" style="fill:#fbe6ef"/>
<path d="" class="polyStyle" id="341702" style="fill:#fbe6ef"/>
<path d="" class="polyStyle" id="420303" style="fill:#ee8b94"/>
<path d="" class="polyStyle" id="340702" style="fill:#d4ecb2"/>
<path d="" class="polyStyle" id="421002" style="fill:#f6f67b"/>
<path d="" class="polyStyle" id="420117" style="fill:#f6f67b"/>
<path d="" class="polyStyle" id="440904" style="fill:#f8c67d"/>
<path d="" class="polyStyle" id="460205" style="fill:#ee8b94"/>
<path d="" class="polyStyle" id="460202" style="fill:#f6f67b"/>
<path d="" class="polyStyle" id="460203" style="fill:#fbe6ef"/>
<path d="" class="polyStyle" id="420304" style="fill:#f6f67b"/>
<path d="" class="polyStyle" id="445302" style="fill:#ee8b94"/>
<path d="" class="polyStyle" id="410202" style="fill:#d4ecb2"/>
<path d="" class="polyStyle" id="440800" style="fill:#f6f67b"/>
<path d="" class="polyStyle" id="440900" style="fill:#ee8b94"/>
<path d="" class="polyStyle" id="340800" style="fill:#ee8b94"/>
<path d="" class="polyStyle" id="460200" style="fill:#f6f67b"/>
<path d="" class="polyStyle" id="460000" style="fill:#ee8b94"/>
<path d="" class="polyStyle" id="450500" style="fill:#ee8b94"/>
<path d="" class="polyStyle" id="450600" style="fill:#ee8b94"/>
<path d="" class="polyStyle" id="440400" style="fill:#f6f67b"/>
<path d="" class="polyStyle" id="441700" style="fill:#f6f67b"/>
<path d="" class="polyStyle" id="441500" style="fill:#f6f67b"/>
<path d="" class="polyStyle" id="350600" style="fill:#ee8b94"/>
<path d="" class="polyStyle" id="710000" style="fill:#f6f67b"/>
<path d="" class="polyStyle" id="510400" style="fill:#f6f67b"/>
<path d="" class="polyStyle" id="522600" style="fill:#fbe6ef"/>
<path d="" class="polyStyle" id="520500" style="fill:#ee8b94"/>
<path d="" class="polyStyle" id="431200" style="fill:#f6f67b"/>
<path d="" class="polyStyle" id="430600" style="fill:#f6f67b"/>
<path d="" class="polyStyle" id="511400" style="fill:#d4ecb2"/>
<path d="" class="polyStyle" id="421000" style="fill:#ee8b94"/>
<path d="" class="polyStyle" id="341700" style="fill:#f6f67b"/>
<path d="" class="polyStyle" id="420500" style="fill:#f6f67b"/>
<path d="" class="polyStyle" id="511300" style="fill:#f6f67b"/>
<path d="" class="polyStyle" id="420900" style="fill:#f6f67b"/>
<path d="" class="polyStyle" id="511700" style="fill:#ee8b94"/>
<path d="" class="polyStyle" id="420600" style="fill:#d4ecb2"/>
<path d="" class="polyStyle" id="411500" style="fill:#fbe6ef"/>
<path d="" class="polyStyle" id="510800" style="fill:#ee8b94"/>
<path d="" class="polyStyle" id="420300" style="fill:#fbe6ef"/>
<path d="" class="polyStyle" id="611000" style="fill:#ee8b94"/>
<path d="" class="polyStyle" id="620800" style="fill:#fbe6ef"/>
<path d="" class="polyStyle" id="370200" style="fill:#ee8b94"/>
<path d="" class="polyStyle" id="371000" style="fill:#f6f67b"/>
<path d="" class="polyStyle" id="370600" style="fill:#fbe6ef"/>
<path d="" class="polyStyle" id="120000" style="fill:#f6f67b"/>
<path d="" class="polyStyle" id="130200" style="fill:#ee8b94"/>
<path d="" class="polyStyle" id="130300" style="fill:#f6f67b"/>
<path d="" class="polyStyle" id="652900" style="fill:#fbe6ef"/>
<path d="" class="polyStyle" id="150500" style="fill:#d4ecb2"/>
<path d="" class="polyStyle" id="" style="fill:#d4ecb2"/>
<path d="" class="polyStyle" id="350500" style="fill:#fbe6ef"/>
<path d="" class="polyStyle" id="440400" style="fill:#f6f67b"/>
<path d="" class="polyStyle" id="421100" style="fill:#d4ecb2"/>
<path d="" class="polyStyle" id="420100" style="fill:#fbe6ef"/>
<path d="" class="polyStyle" id="532500" style="fill:#fbe6ef"/>
<path d="" class="polyStyle" id="654200" style="fill:#fbe6ef"/>
<path d="" class="polyStyle" id="210700" style="fill:#d4ecb2"/>
<path d="" class="polyStyle" id="522300" style="fill:#fbe6ef"/>
<path d="" class="polyStyle" id="" style="fill:#ee8b94"/>
<path d="" class="polyStyle" id="440400" style="fill:#f6f67b"/>
<path d="" class="polyStyle" id="620000" style="fill:#f6f67b"/>
<path d="" class="polyStyle" id="430000" style="fill:#fbe6ef"/>
<path d="" class="polyStyle" id="420000" style="fill:#ee8b94"/>
<path d="" class="polyStyle" id="410000" style="fill:#f6f67b"/>
<path d="" class="polyStyle" id="350000" style="fill:#fbe6ef"/>
<path d="" class="polyStyle" id="520000" style="fill:#f6f67b"/>
<path d="" class="polyStyle" id="" style="fill:#ee8b94"/>
</svg>
