<?xml version="1.0" encoding="UTF-8"?>
<!DOCTYPE svg PUBLIC "-//W3C//DTD SVG 1.1 Tiny//EN" "http://www.w3.org/Graphics/SVG/1.1/DTD/svg11-tiny.dtd">
<svg version="1.1" xmlns="http://www.w3.org/2000/svg" xmlns:xlink="http://www.w3.org/1999/xlink" width="100%" height="100%" viewBox="0,0,7326,4818">
<title>SVG</title>
<desc>Poligon Test</desc>
<style id="style_css_sheet" type="text/css">
.polyStyle{fill: #cccccc;stroke-width:0;fill-rule:evenodd;}
</style>
<circle cx="2603" cy="2804" r="200" stroke="black" stroke-width="1" fill="red" id="445381" name="罗定市"/>
<circle cx="2368" cy="473" r="200" stroke="black" stroke-width="1" fill="red" id="445322"position="333" name="郁南县"/>
<circle cx="5866" cy="3168" r="200" stroke="black" stroke-width="1" fill="red" id="445321" name="新兴县"/>
<circle cx="4906" cy="1999" r="200" stroke="black" stroke-width="1" fill="red" id="445302" name="云城区"/>
<circle cx="4737" cy="1269" r="200" stroke="black" stroke-width="1" fill="red" id="445303" name="云安区"/>
<path d="" class="polyStyle" id="" style="fill:#ee8b94"/>
<path d="" class="polyStyle" id="623022" style="fill:#fbe6ef"/>
<path d="" class="polyStyle" id="211421" style="fill:#f6f67b"/>
<path d="" class="polyStyle" id="532524" style="fill:#ee8b94"/>
<path d="" class="polyStyle" id="440825" style="fill:#f6f67b"/>
<path d="" class="polyStyle" id="441721" style="fill:#f6f67b"/>
<path d="" class="polyStyle" id="450521" style="fill:#f6f67b"/>
<polygon points="5937,2453 5942,2450 5947,2449 5951,2451 5953,2454 5956,2455 5960,2455 5963,2455 5970,2460 5980,2465 5990,2468 5997,2470 6001,2475 6008,2480 6013,2488 6014,2492 6015,2496 6015,2501 6012,2505 6009,2506 6007,2510 6006,2515 6010,2519 6017,2521 6028,2517 6034,2515 6039,2514 6042,2516 6046,2515 6049,2515 6052,2518 6054,2521 6057,2524 6063,2524 6070,2524 6074,2522 6080,2522 6087,2521 6091,2521 6094,2520 6096,2517 6099,2513 6100,2509 6101,2505 6100,2501 6099,2498 6099,2495 6104,2494 6109,2493 6113,2493 6119,2494 6119,2499 6119,2502 6119,2508 6122,2511 6128,2515 6131,2517 6134,2518 6138,2518 6143,2517 6149,2518 6156,2519 6170,2520 6173,2518 6176,2512 6178,2506 6182,2502 6186,2503 6192,2507 6195,2509 6199,2509 6204,2506 6210,2499 6214,2497 6222,2494 6231,2490 6239,2486 6245,2485 6250,2483 6255,2479 6261,2475 6265,2473 6270,2479 6274,2482 6277,2490 6277,2494 6274,2502 6268,2506 6267,2512 6268,2517 6273,2519 6279,2520 6284,2520 6292,2519 6297,2515 6307,2514 6315,2514 6323,2517 6328,2521 6327,2529 6329,2533 6332,2536 6336,2537 6339,2539 6345,2541 6349,2545 6354,2546 6359,2551 6361,2562 6363,2568 6370,2570 6374,2575 6374,2581 6378,2586 6383,2586 6387,2585 6392,2593 6391,2598 6393,2602 6394,2605 6397,2609 6393,2609 6388,2614 6389,2618 6386,2623 6385,2628 6382,2632 6379,2632 6374,2630 6370,2629 6366,2630 6363,2628 6359,2628 6356,2630 6351,2633 6349,2630 6347,2627 6336,2627 6332,2628 6329,2634 6327,2645 6327,2651 6322,2654 6315,2662 6309,2663 6301,2664 6300,2669 6298,2675 6297,2680 6295,2684 6294,2691 6296,2695 6301,2695 6308,2695 6315,2697 6320,2701 6324,2704 6332,2704 6340,2700 6346,2700 6354,2700 6356,2703 6359,2707 6363,2707 6371,2706 6377,2705 6383,2703 6388,2698 6394,2696 6397,2695 6405,2701 6412,2704 6418,2705 6424,2709 6427,2710 6434,2709 6441,2702 6448,2701 6453,2703 6453,2708 6456,2711 6464,2713 6467,2706 6459,2697 6458,2693 6460,2689 6468,2687 6477,2685 6481,2686 6486,2696 6498,2701 6508,2701 6513,2696 6517,2696 6521,2696 6526,2696 6531,2695 6536,2693 6543,2691 6549,2688 6556,2685 6562,2682 6564,2679 6567,2678 6570,2676 6572,2673 6580,2673 6587,2669 6588,2665 6590,2658 6594,2655 6599,2657 6603,2661 6607,2662 6609,2665 6612,2665 6616,2669 6621,2673 6628,2673 6637,2680 6638,2685 6641,2690 6646,2693 6647,2700 6643,2702 6636,2706 6632,2708 6629,2713 6629,2718 6634,2721 6640,2724 6642,2728 6641,2733 6640,2738 6642,2745 6647,2748 6649,2756 6656,2767 6661,2773 6669,2775 6676,2783 6678,2793 6670,2800 6672,2811 6677,2824 6683,2828 6686,2841 6683,2845 6683,2855 6684,2866 6689,2880 6680,2888 6679,2901 6680,2919 6685,2938 6693,2955 6701,2974 6701,2980 6703,2990 6708,2998 6709,3004 6711,3009 6710,3018 6709,3027 6708,3032 6710,3035 6713,3039 6724,3041 6731,3042 6737,3045 6739,3052 6740,3061 6746,3066 6750,3073 6752,3077 6751,3084 6752,3088 6756,3089 6762,3089 6763,3094 6762,3103 6764,3109 6768,3114 6770,3119 6765,3121 6762,3128 6758,3134 6755,3133 6750,3131 6745,3133 6736,3136 6732,3140 6731,3146 6729,3155 6731,3165 6725,3177 6723,3188 6733,3199 6736,3206 6732,3211 6733,3224 6735,3228 6739,3227 6749,3225 6757,3227 6757,3232 6757,3237 6756,3248 6757,3254 6766,3261 6770,3267 6773,3277 6776,3285 6783,3286 6790,3285 6793,3281 6802,3284 6809,3287 6820,3291 6829,3291 6835,3289 6840,3289 6847,3287 6849,3279 6854,3271 6860,3265 6865,3256 6875,3250 6884,3243 6895,3236 6894,3229 6894,3221 6896,3213 6901,3208 6903,3202 6909,3193 6913,3188 6914,3179 6924,3172 6928,3164 6934,3159 6936,3152 6935,3146 6936,3141 6943,3138 6950,3132 6949,3124 6945,3120 6946,3116 6953,3110 6959,3109 6959,3104 6959,3099 6965,3099 6969,3099 6977,3102 6987,3103 6994,3103 7001,3100 7008,3094 7012,3091 7020,3091 7025,3090 7028,3088 7032,3083 7036,3083 7039,3090 7044,3092 7053,3095 7056,3099 7055,3109 7056,3115 7067,3117 7075,3120 7092,3119 7099,3121 7109,3134 7112,3140 7117,3145 7124,3148 7127,3153 7125,3158 7123,3161 7127,3163 7135,3162 7141,3163 7144,3169 7149,3177 7154,3183 7160,3193 7162,3197 7167,3196 7173,3194 7175,3197 7180,3206 7181,3214 7177,3217 7178,3233 7173,3236 7169,3240 7168,3247 7166,3250 7167,3259 7172,3270 7178,3276 7184,3279 7188,3284 7193,3286 7204,3289 7210,3293 7218,3297 7222,3304 7222,3314 7217,3320 7213,3321 7212,3324 7215,3329 7218,3334 7221,3336 7221,3332 7225,3331 7229,3332 7231,3337 7231,3341 7232,3344 7233,3347 7235,3351 7240,3350 7241,3347 7245,3349 7249,3352 7250,3354 7251,3357 7252,3360 7253,3362 7254,3370 7255,3373 7257,3377 7257,3379 7256,3382 7257,3385 7259,3387 7262,3389 7265,3391 7267,3394 7265,3396 7263,3398 7261,3400 7260,3402 7256,3407 7255,3410 7254,3412 7253,3415 7253,3417 7251,3421 7249,3425 7245,3429 7238,3442 7245,3449 7249,3451 7250,3453 7253,3455 7255,3456 7256,3459 7257,3462 7260,3465 7265,3467 7270,3468 7273,3469 7276,3472 7279,3475 7281,3477 7281,3482 7282,3485 7284,3487 7285,3491 7282,3491 7279,3491 7277,3490 7275,3489 7274,3491 7274,3495 7276,3496 7279,3498 7282,3499 7289,3504 7292,3505 7296,3507 7300,3514 7302,3517 7303,3520 7303,3522 7303,3525 7306,3526 7312,3531 7314,3532 7316,3534 7317,3538 7314,3541 7315,3545 7317,3553 7317,3555 7318,3562 7320,3564 7322,3565 7323,3569 7323,3572 7321,3575 7318,3576 7317,3580 7317,3582 7318,3587 7319,3590 7322,3593 7324,3595 7326,3597 7326,3600 7326,3602 7325,3606 7319,3612 7313,3615 7311,3622 7305,3624 7292,3625 7286,3624 7279,3624 7273,3629 7266,3634 7260,3635 7251,3645 7245,3651 7236,3650 7229,3652 7220,3655 7211,3655 7205,3659 7198,3666 7191,3668 7180,3667 7174,3670 7163,3677 7166,3685 7160,3689 7151,3696 7142,3690 7136,3683 7129,3678 7121,3683 7113,3686 7107,3689 7100,3694 7100,3701 7092,3713 7083,3711 7072,3712 7063,3714 7056,3714 7048,3709 7042,3717 7033,3712 7031,3705 7029,3699 7028,3685 7023,3679 7016,3672 7012,3665 7002,3654 6999,3644 6996,3635 6990,3634 6976,3635 6966,3632 6956,3623 6949,3619 6939,3619 6927,3617 6925,3611 6928,3603 6931,3594 6925,3593 6927,3584 6921,3577 6914,3566 6908,3559 6915,3557 6915,3548 6908,3547 6899,3545 6895,3538 6898,3531 6896,3523 6898,3517 6910,3511 6920,3503 6914,3501 6908,3495 6913,3486 6915,3474 6922,3471 6920,3462 6919,3456 6925,3447 6931,3439 6932,3430 6927,3421 6918,3415 6905,3414 6898,3401 6894,3393 6891,3384 6885,3374 6879,3369 6867,3366 6859,3362 6858,3355 6864,3349 6877,3352 6886,3341 6887,3331 6879,3331 6867,3324 6862,3311 6851,3318 6846,3326 6838,3331 6830,3328 6814,3320 6805,3330 6796,3333 6789,3341 6783,3347 6780,3357 6784,3364 6797,3371 6799,3383 6798,3393 6797,3400 6791,3404 6783,3406 6777,3410 6770,3420 6762,3426 6749,3434 6739,3441 6729,3450 6718,3462 6718,3483 6732,3495 6739,3499 6748,3499 6754,3503 6757,3509 6749,3512 6742,3522 6741,3530 6744,3536 6745,3548 6739,3550 6720,3544 6713,3542 6706,3543 6704,3550 6703,3556 6707,3565 6699,3567 6695,3575 6696,3581 6694,3591 6687,3594 6690,3603 6696,3611 6697,3622 6694,3631 6689,3637 6681,3652 6675,3653 6670,3662 6663,3671 6650,3665 6642,3665 6636,3671 6626,3672 6623,3665 6613,3669 6608,3679 6614,3683 6618,3691 6609,3700 6605,3707 6601,3715 6604,3721 6603,3730 6605,3736 6612,3740 6616,3748 6609,3752 6609,3760 6601,3763 6601,3769 6606,3776 6606,3782 6600,3790 6594,3799 6588,3807 6584,3814 6580,3824 6580,3832 6577,3841 6570,3845 6576,3852 6580,3859 6588,3864 6595,3874 6603,3879 6594,3880 6587,3886 6579,3892 6572,3894 6563,3895 6557,3894 6552,3888 6559,3883 6560,3877 6568,3876 6575,3874 6564,3872 6557,3868 6555,3862 6554,3853 6554,3843 6548,3842 6538,3848 6532,3848 6525,3845 6519,3840 6507,3837 6493,3836 6477,3833 6471,3828 6463,3826 6450,3822 6439,3819 6429,3818 6433,3824 6439,3824 6433,3831 6430,3837 6429,3843 6430,3850 6436,3855 6443,3855 6449,3854 6457,3858 6474,3858 6484,3857 6491,3860 6501,3867 6508,3876 6519,3885 6525,3894 6531,3894 6539,3893 6532,3901 6524,3903 6517,3907 6509,3913 6505,3905 6498,3902 6484,3896 6476,3898 6469,3899 6463,3899 6464,3893 6457,3893 6449,3889 6439,3888 6429,3887 6417,3890 6414,3899 6406,3910 6398,3914 6388,3903 6376,3898 6370,3894 6360,3889 6352,3882 6347,3875 6336,3868 6340,3862 6349,3852 6363,3840 6374,3821 6374,3803 6357,3791 6345,3789 6327,3787 6316,3781 6292,3775 6274,3777 6262,3778 6253,3788 6249,3799 6250,3808 6244,3812 6244,3831 6235,3840 6240,3848 6250,3852 6256,3856 6253,3862 6241,3872 6237,3882 6235,3891 6235,3900 6243,3903 6242,3911 6236,3913 6228,3916 6234,3925 6234,3934 6237,3954 6247,3958 6251,3965 6250,3973 6251,3986 6254,4001 6249,4013 6241,4029 6238,4038 6236,4045 6230,4050 6226,4057 6220,4065 6210,4069 6201,4069 6195,4072 6189,4074 6173,4072 6166,4067 6157,4069 6152,4076 6140,4084 6129,4083 6122,4082 6115,4081 6104,4081 6095,4087 6089,4093 6078,4103 6064,4112 6055,4117 6037,4125 6031,4123 6024,4118 6017,4120 6009,4127 6005,4133 6002,4139 6003,4145 6007,4154 6012,4166 6014,4174 6012,4183 6011,4189 6007,4199 6006,4208 6016,4216 6024,4225 6029,4236 6020,4253 6015,4263 6008,4271 5997,4291 5996,4302 5990,4308 5988,4317 5987,4324 5983,4330 5981,4337 5978,4348 5969,4348 5966,4354 5963,4362 5959,4368 5958,4374 5953,4388 5947,4395 5948,4401 5940,4412 5934,4415 5929,4421 5925,4427 5923,4440 5920,4446 5915,4455 5910,4462 5894,4476 5894,4486 5896,4497 5898,4509 5902,4515 5912,4519 5917,4530 5923,4541 5926,4551 5931,4559 5936,4569 5936,4583 5940,4592 5935,4599 5925,4600 5916,4602 5904,4607 5895,4605 5885,4601 5874,4598 5862,4600 5851,4600 5840,4609 5829,4616 5821,4623 5812,4631 5797,4636 5784,4640 5773,4645 5763,4644 5753,4638 5744,4632 5738,4627 5725,4624 5716,4624 5711,4618 5707,4612 5701,4619 5706,4630 5704,4640 5698,4647 5688,4647 5680,4653 5672,4655 5666,4653 5659,4650 5657,4656 5658,4663 5656,4673 5659,4681 5666,4680 5678,4685 5682,4693 5682,4709 5680,4718 5672,4727 5670,4743 5665,4750 5655,4754 5649,4753 5648,4760 5653,4774 5656,4786 5663,4802 5663,4810 5657,4818 5645,4813 5642,4805 5631,4799 5622,4794 5610,4790 5602,4794 5592,4791 5589,4780 5589,4771 5586,4762 5577,4752 5578,4742 5577,4732 5569,4727 5553,4718 5540,4721 5542,4714 5533,4703 5524,4698 5525,4691 5527,4683 5525,4674 5526,4658 5529,4648 5524,4638 5512,4633 5504,4626 5498,4623 5491,4616 5491,4608 5487,4602 5479,4600 5456,4600 5448,4593 5445,4583 5438,4579 5432,4574 5426,4564 5418,4566 5402,4577 5392,4591 5389,4599 5387,4605 5380,4612 5367,4604 5355,4606 5328,4602 5315,4598 5310,4592 5304,4588 5296,4586 5280,4588 5274,4590 5267,4583 5260,4574 5250,4573 5238,4572 5222,4567 5206,4565 5192,4563 5180,4564 5170,4563 5149,4560 5132,4552 5119,4544 5110,4543 5103,4537 5101,4528 5094,4517 5092,4503 5091,4496 5087,4489 5083,4477 5083,4469 5077,4467 5069,4467 5063,4464 5059,4457 5055,4445 5053,4437 5046,4428 5038,4421 5032,4414 5025,4410 5028,4400 5025,4392 5016,4386 5010,4385 5004,4390 4995,4392 4982,4398 4976,4396 4962,4389 4956,4384 4943,4376 4944,4370 4944,4363 4940,4352 4929,4355 4919,4348 4914,4340 4908,4335 4893,4321 4889,4309 4877,4305 4863,4297 4857,4296 4849,4296 4839,4293 4822,4288 4811,4280 4805,4278 4799,4278 4787,4279 4779,4277 4778,4270 4783,4264 4780,4251 4783,4239 4784,4232 4788,4224 4783,4216 4775,4220 4768,4217 4759,4211 4760,4203 4760,4195 4761,4185 4750,4183 4740,4180 4729,4181 4730,4187 4730,4195 4722,4195 4715,4190 4707,4183 4694,4178 4691,4170 4685,4165 4678,4161 4680,4151 4675,4145 4663,4147 4658,4137 4652,4132 4645,4124 4636,4113 4636,4107 4643,4102 4646,4095 4653,4085 4656,4074 4652,4068 4643,4066 4637,4063 4630,4049 4629,4037 4624,4030 4617,4024 4608,4019 4607,4009 4611,4003 4609,3997 4604,3989 4602,3983 4601,3977 4597,3970 4590,3966 4584,3960 4577,3956 4575,3944 4576,3933 4568,3921 4568,3913 4565,3907 4565,3900 4567,3893 4575,3882 4577,3875 4580,3869 4584,3862 4592,3853 4594,3835 4599,3825 4605,3824 4612,3825 4620,3827 4635,3828 4642,3825 4653,3821 4667,3815 4680,3805 4689,3793 4689,3783 4695,3778 4698,3772 4710,3763 4712,3755 4713,3746 4714,3729 4712,3721 4711,3713 4709,3707 4714,3700 4708,3694 4700,3692 4691,3690 4675,3683 4665,3678 4658,3683 4645,3675 4644,3667 4645,3657 4641,3651 4634,3644 4630,3636 4627,3628 4617,3622 4607,3618 4605,3612 4605,3602 4603,3593 4594,3583 4589,3573 4575,3569 4571,3563 4568,3554 4561,3537 4551,3528 4547,3521 4547,3502 4553,3492 4558,3483 4563,3477 4566,3471 4572,3469 4575,3464 4577,3455 4587,3449 4590,3445 4593,3439 4597,3432 4599,3428 4603,3417 4608,3414 4629,3411 4637,3410 4645,3407 4655,3404 4663,3401 4672,3397 4677,3395 4683,3397 4689,3406 4700,3403 4705,3399 4712,3397 4719,3396 4722,3386 4722,3377 4725,3376 4729,3373 4732,3372 4736,3370 4742,3370 4746,3376 4748,3382 4757,3392 4763,3396 4767,3396 4770,3392 4777,3382 4780,3378 4788,3378 4799,3379 4805,3380 4808,3375 4814,3368 4817,3367 4827,3371 4835,3373 4842,3375 4846,3379 4842,3385 4842,3395 4841,3401 4842,3411 4842,3426 4847,3429 4853,3423 4859,3423 4867,3425 4873,3427 4876,3427 4880,3427 4883,3421 4887,3412 4891,3403 4898,3397 4903,3392 4902,3386 4907,3383 4918,3383 4929,3387 4942,3392 4942,3389 4943,3384 4945,3379 4949,3373 4954,3370 4964,3368 4970,3363 4968,3353 4971,3348 4973,3341 4975,3335 4974,3331 4978,3327 4974,3322 4967,3321 4963,3319 4960,3318 4951,3320 4947,3312 4953,3301 4956,3288 4958,3271 4953,3262 4955,3257 4963,3255 4972,3251 4986,3248 4995,3248 5005,3244 5003,3234 4996,3231 4995,3224 5001,3217 5011,3211 5011,3200 5015,3196 5023,3192 5031,3185 5040,3181 5050,3175 5063,3170 5069,3161 5068,3152 5059,3146 5049,3148 5040,3141 5040,3133 5046,3126 5051,3117 5042,3110 5031,3103 5029,3094 5036,3089 5043,3084 5047,3083 5051,3079 5054,3077 5059,3072 5062,3067 5062,3063 5063,3059 5063,3056 5063,3052 5063,3048 5064,3043 5064,3037 5064,3029 5065,3022 5065,3015 5064,3011 5063,3006 5062,3001 5062,2995 5063,2991 5064,2988 5068,2984 5072,2984 5075,2984 5080,2983 5084,2983 5087,2983 5093,2982 5097,2980 5100,2979 5102,2975 5105,2971 5108,2966 5113,2962 5115,2958 5118,2954 5122,2949 5125,2944 5129,2937 5132,2933 5133,2930 5136,2927 5139,2926 5142,2925 5146,2924 5156,2929 5155,2941 5154,2953 5156,2966 5159,2982 5169,2986 5175,2981 5175,2971 5180,2965 5189,2962 5191,2950 5187,2936 5180,2922 5173,2917 5171,2909 5179,2895 5190,2874 5195,2867 5198,2862 5201,2858 5204,2852 5207,2846 5208,2839 5210,2833 5212,2826 5214,2820 5215,2808 5224,2800 5229,2796 5251,2796 5257,2794 5278,2795 5287,2789 5306,2777 5310,2773 5312,2769 5314,2765 5315,2760 5318,2754 5318,2749 5318,2744 5321,2739 5323,2733 5326,2728 5331,2724 5336,2721 5348,2719 5357,2712 5368,2711 5380,2712 5392,2713 5402,2715 5409,2719 5418,2717 5426,2715 5446,2725 5457,2726 5468,2727 5475,2727 5483,2729 5491,2729 5498,2727 5504,2725 5509,2721 5515,2717 5520,2712 5521,2709 5521,2704 5522,2700 5523,2696 5526,2689 5531,2682 5536,2676 5543,2669 5547,2665 5551,2662 5555,2658 5559,2653 5563,2648 5569,2642 5570,2638 5572,2634 5574,2631 5577,2627 5584,2622 5587,2621 5591,2620 5594,2621 5598,2624 5602,2627 5607,2630 5611,2633 5615,2635 5619,2636 5625,2637 5629,2638 5632,2638 5636,2637 5642,2636 5647,2634 5652,2634 5654,2631 5656,2626 5663,2620 5667,2615 5670,2613 5667,2603 5667,2595 5668,2589 5671,2584 5675,2579 5683,2579 5692,2579 5697,2579 5702,2577 5703,2570 5703,2563 5704,2558 5708,2555 5711,2555 5718,2560 5725,2564 5729,2565 5732,2559 5739,2557 5747,2553 5753,2552 5759,2554 5763,2551 5767,2550 5771,2548 5777,2547 5783,2542 5787,2539 5790,2538 5791,2534 5791,2530 5794,2531 5799,2533 5798,2530 5798,2526 5797,2523 5795,2524 5793,2522 5790,2518 5788,2514 5787,2507 5786,2499 5786,2493 5786,2487 5786,2482 5790,2477 5796,2475 5801,2475 5801,2479 5802,2484 5805,2489 5815,2489 5820,2490 5820,2494 5819,2498 5822,2500 5832,2500 5833,2496 5835,2493 5831,2492 5832,2489 5837,2489 5841,2485 5846,2480 5847,2477 5849,2472 5851,2467 5854,2463 5860,2464 5865,2458 5869,2454 5874,2452 5880,2455 5882,2460 5883,2467 5887,2470 5890,2467 5894,2463 5897,2463 5900,2462 5903,2456 5904,2452 5907,2450 5913,2449 5917,2452 5917,2455 5921,2454 5926,2446 5931,2446 5932,2451 " class="polyStyle" id="445321" style="fill:#f6f67b"/>
<polygon points="1634,15 1638,23 1661,19 1679,14 1695,16 1708,31 1729,37 1737,45 1754,55 1759,63 1780,61 1802,60 1801,54 1821,61 1839,75 1838,84 1848,90 1859,83 1874,99 1884,101 1902,116 1908,127 1921,133 1927,135 1924,146 1916,154 1916,164 1905,167 1905,177 1918,176 1927,182 1940,187 1949,191 1957,187 1970,191 1983,194 1991,210 1999,224 2001,233 1989,237 2001,255 2009,253 2015,251 2025,262 2033,270 2047,276 2039,262 2049,259 2062,252 2070,244 2078,251 2073,258 2079,267 2102,254 2126,237 2150,228 2156,226 2169,232 2180,219 2189,219 2213,229 2220,217 2229,215 2235,223 2233,229 2248,230 2267,212 2278,215 2284,217 2298,216 2300,199 2307,196 2310,188 2305,174 2315,171 2317,162 2319,156 2312,140 2317,114 2336,106 2357,89 2354,71 2367,65 2361,49 2352,54 2341,34 2340,27 2346,24 2352,24 2367,25 2390,52 2412,89 2435,116 2474,157 2512,201 2538,232 2564,257 2584,283 2596,313 2601,351 2592,391 2564,425 2529,442 2469,457 2457,460 2408,488 2392,514 2386,549 2424,579 2466,598 2510,626 2544,641 2576,661 2611,676 2644,685 2676,693 2703,698 2730,696 2757,696 2789,693 2826,690 2862,698 2907,713 2930,745 2952,792 2982,834 3018,852 3056,868 3113,867 3157,855 3191,855 3230,874 3271,891 3309,885 3352,887 3386,899 3424,917 3464,938 3490,954 3538,979 3573,985 3623,983 3659,984 3688,978 3728,984 3762,990 3787,991 3836,993 3880,988 3913,982 3946,972 3979,952 4007,943 4039,936 4068,940 4095,953 4129,978 4162,995 4194,1006 4210,1010 4210,1017 4202,1031 4195,1034 4191,1040 4192,1051 4195,1058 4202,1063 4198,1091 4195,1120 4198,1123 4202,1127 4201,1136 4208,1152 4212,1160 4210,1174 4209,1183 4204,1186 4200,1199 4186,1201 4184,1207 4176,1215 4163,1230 4149,1235 4142,1241 4159,1250 4161,1255 4170,1273 4197,1312 4201,1324 4210,1350 4225,1359 4245,1378 4245,1402 4259,1431 4260,1442 4261,1447 4245,1452 4229,1461 4218,1464 4207,1459 4194,1460 4195,1472 4192,1485 4196,1493 4194,1517 4187,1531 4180,1537 4166,1540 4160,1548 4144,1544 4127,1548 4121,1546 4092,1545 4087,1548 4083,1551 4072,1548 4061,1545 4045,1528 4025,1516 4008,1506 3995,1502 3987,1510 3970,1527 3955,1552 3961,1564 3960,1579 3974,1593 3983,1602 3987,1606 3980,1609 3975,1620 3983,1630 3993,1636 3993,1645 3979,1649 3967,1655 3968,1658 3970,1662 3972,1666 3974,1670 3977,1672 3979,1676 3981,1679 3983,1682 3986,1685 3987,1689 3989,1693 3989,1696 3990,1700 3988,1705 3986,1708 3991,1714 4001,1713 4011,1715 4008,1725 3996,1730 3988,1731 3978,1731 3971,1732 3967,1734 3971,1742 3979,1747 3979,1752 3981,1760 3984,1770 3987,1779 3987,1785 3983,1790 3983,1796 3985,1802 3989,1810 3992,1816 3991,1822 3987,1823 3982,1825 3974,1828 3971,1832 3964,1834 3958,1836 3953,1839 3949,1843 3940,1849 3938,1855 3932,1859 3925,1864 3919,1868 3912,1872 3897,1875 3892,1879 3880,1893 3872,1894 3858,1897 3852,1901 3856,1905 3862,1909 3870,1909 3876,1915 3876,1924 3872,1928 3877,1933 3885,1939 3882,1947 3874,1947 3868,1939 3864,1938 3858,1938 3854,1939 3855,1943 3863,1955 3861,1961 3859,1966 3856,1971 3854,1974 3852,1977 3850,1980 3848,1983 3847,1986 3846,1990 3840,2000 3840,2004 3843,2009 3852,2015 3849,2021 3850,2026 3859,2030 3867,2026 3874,2024 3881,2023 3885,2028 3895,2032 3898,2042 3902,2049 3913,2055 3918,2053 3924,2055 3928,2057 3931,2058 3935,2057 3938,2058 3944,2061 3947,2066 3949,2071 3948,2076 3946,2080 3943,2085 3941,2089 3940,2093 3941,2096 3943,2099 3946,2108 3951,2113 3954,2113 3959,2110 3966,2114 3968,2119 3973,2122 3977,2118 3984,2114 3989,2113 3997,2110 4004,2103 4009,2099 4012,2092 4015,2087 4022,2087 4027,2093 4031,2103 4036,2107 4041,2114 4041,2124 4042,2129 4046,2128 4051,2125 4054,2123 4064,2124 4064,2130 4068,2132 4072,2133 4075,2136 4076,2138 4080,2138 4084,2140 4100,2137 4104,2137 4113,2135 4125,2145 4128,2148 4132,2152 4136,2155 4138,2157 4147,2155 4150,2159 4150,2163 4150,2169 4153,2171 4159,2172 4160,2177 4164,2180 4166,2189 4171,2192 4177,2193 4181,2194 4186,2200 4191,2202 4196,2200 4203,2198 4207,2201 4208,2209 4202,2213 4194,2216 4186,2221 4181,2227 4177,2233 4177,2243 4175,2253 4174,2260 4174,2270 4173,2280 4166,2291 4154,2298 4143,2300 4143,2296 4143,2288 4139,2281 4138,2274 4142,2269 4140,2266 4134,2260 4131,2257 4125,2245 4123,2235 4129,2230 4132,2222 4132,2213 4127,2207 4118,2206 4111,2202 4105,2194 4103,2189 4097,2176 4094,2176 4085,2175 4076,2176 4067,2178 4058,2181 4050,2186 4043,2193 4036,2199 4032,2204 4029,2209 4027,2215 4025,2221 4022,2226 4012,2229 4009,2232 4006,2239 4003,2245 4001,2254 4000,2267 3995,2272 3993,2277 3996,2287 3996,2301 3994,2313 3989,2325 3983,2336 3979,2338 3972,2337 3966,2339 3960,2346 3956,2358 3953,2362 3948,2366 3939,2366 3933,2370 3926,2374 3916,2374 3913,2377 3913,2381 3916,2388 3914,2396 3910,2401 3912,2406 3912,2413 3912,2420 3906,2421 3900,2421 3889,2418 3882,2417 3878,2410 3874,2401 3856,2400 3853,2402 3848,2398 3844,2393 3836,2391 3829,2390 3816,2395 3808,2395 3799,2397 3791,2398 3781,2401 3773,2404 3766,2407 3762,2409 3755,2409 3749,2410 3746,2418 3747,2426 3743,2433 3740,2437 3736,2439 3730,2444 3725,2445 3720,2447 3718,2443 3716,2438 3712,2436 3701,2436 3697,2434 3689,2432 3683,2431 3677,2427 3674,2427 3668,2431 3662,2434 3653,2429 3649,2421 3645,2420 3639,2417 3632,2414 3627,2410 3622,2405 3616,2400 3618,2395 3617,2389 3613,2386 3605,2387 3599,2388 3596,2386 3585,2372 3582,2375 3580,2379 3579,2384 3579,2389 3579,2393 3580,2397 3581,2401 3582,2404 3581,2407 3579,2410 3578,2413 3574,2414 3570,2414 3565,2414 3561,2414 3556,2414 3552,2415 3548,2416 3545,2416 3542,2418 3539,2421 3536,2424 3534,2431 3533,2437 3532,2443 3531,2449 3530,2452 3529,2456 3527,2460 3526,2463 3523,2465 3518,2467 3515,2471 3514,2476 3512,2486 3508,2487 3503,2486 3495,2484 3491,2485 3489,2492 3492,2500 3495,2509 3499,2512 3499,2517 3498,2522 3494,2526 3488,2534 3480,2544 3472,2553 3474,2562 3481,2567 3487,2572 3493,2576 3493,2582 3491,2589 3487,2592 3483,2596 3481,2602 3480,2610 3475,2611 3469,2612 3462,2611 3456,2609 3450,2606 3445,2603 3425,2595 3421,2595 3420,2604 3418,2607 3415,2607 3410,2604 3404,2609 3398,2612 3390,2614 3380,2614 3375,2618 3370,2622 3363,2630 3352,2631 3344,2635 3336,2627 3329,2626 3320,2621 3312,2625 3308,2619 3305,2610 3299,2608 3290,2600 3292,2588 3293,2582 3286,2577 3275,2574 3268,2579 3261,2583 3250,2589 3240,2592 3246,2599 3244,2605 3236,2606 3229,2606 3220,2603 3214,2596 3206,2590 3199,2596 3192,2596 3190,2606 3189,2612 3182,2615 3175,2613 3168,2608 3160,2605 3150,2604 3150,2596 3152,2586 3154,2577 3162,2572 3170,2576 3177,2579 3194,2581 3203,2583 3207,2576 3208,2569 3215,2565 3213,2557 3209,2548 3199,2547 3191,2549 3180,2543 3170,2531 3169,2524 3170,2517 3168,2510 3161,2506 3147,2506 3139,2509 3133,2510 3119,2512 3112,2516 3103,2517 3108,2510 3110,2504 3114,2496 3108,2495 3101,2494 3092,2495 3086,2495 3079,2486 3073,2480 3067,2479 3059,2474 3052,2475 3043,2487 3038,2495 3037,2504 3043,2508 3049,2510 3054,2513 3058,2517 3053,2526 3049,2535 3042,2534 3041,2543 3038,2549 3029,2552 3025,2558 3021,2566 3019,2576 3015,2583 3012,2590 3016,2598 3014,2606 3008,2609 3013,2615 3011,2622 3004,2628 3005,2635 2998,2638 3000,2644 2994,2648 2986,2646 2985,2640 2974,2633 2968,2638 2960,2634 2954,2637 2950,2644 2953,2650 2946,2655 2949,2662 2944,2669 2946,2679 2946,2685 2940,2685 2936,2675 2930,2668 2924,2669 2924,2662 2918,2659 2912,2659 2906,2658 2905,2651 2898,2646 2891,2651 2884,2646 2884,2638 2877,2635 2870,2633 2867,2626 2863,2620 2856,2612 2848,2616 2849,2609 2857,2608 2865,2605 2865,2595 2872,2596 2882,2593 2892,2587 2898,2589 2892,2581 2888,2575 2887,2569 2894,2565 2895,2557 2888,2554 2877,2553 2871,2550 2863,2562 2858,2570 2855,2577 2851,2584 2846,2592 2841,2594 2833,2591 2821,2579 2806,2564 2796,2562 2780,2557 2765,2544 2757,2544 2753,2547 2754,2551 2759,2557 2777,2569 2781,2574 2782,2580 2777,2590 2770,2595 2764,2598 2757,2598 2752,2593 2749,2587 2742,2578 2735,2577 2732,2580 2732,2590 2734,2597 2735,2604 2734,2612 2732,2618 2724,2624 2719,2630 2711,2639 2702,2648 2695,2651 2688,2652 2680,2652 2670,2646 2665,2638 2659,2628 2650,2624 2639,2629 2633,2634 2629,2641 2627,2647 2624,2653 2619,2660 2612,2664 2607,2671 2600,2670 2591,2672 2592,2679 2586,2682 2580,2675 2571,2670 2563,2667 2566,2657 2566,2646 2558,2646 2551,2643 2549,2637 2546,2631 2535,2626 2522,2625 2518,2618 2514,2611 2507,2611 2499,2610 2494,2603 2497,2597 2509,2589 2515,2583 2523,2583 2531,2582 2539,2575 2545,2565 2540,2558 2530,2556 2519,2550 2515,2543 2512,2535 2509,2528 2506,2521 2502,2513 2495,2500 2491,2493 2485,2492 2480,2483 2480,2473 2470,2467 2462,2462 2465,2454 2459,2450 2459,2436 2453,2430 2446,2421 2432,2418 2422,2417 2410,2412 2398,2411 2385,2412 2373,2414 2360,2420 2351,2416 2339,2417 2326,2422 2318,2431 2313,2442 2302,2451 2296,2451 2291,2444 2284,2435 2278,2431 2271,2427 2260,2423 2253,2429 2249,2436 2240,2441 2225,2434 2225,2427 2227,2416 2230,2404 2230,2395 2221,2392 2215,2390 2215,2381 2219,2367 2222,2356 2221,2349 2215,2341 2208,2336 2212,2329 2216,2322 2219,2311 2222,2305 2222,2299 2227,2292 2235,2290 2230,2281 2222,2271 2219,2259 2213,2254 2206,2252 2198,2250 2187,2245 2182,2238 2181,2228 2181,2222 2182,2215 2183,2207 2185,2200 2185,2194 2183,2182 2188,2175 2188,2165 2185,2156 2181,2149 2173,2148 2167,2148 2160,2142 2155,2136 2150,2125 2143,2121 2136,2119 2129,2115 2123,2111 2113,2104 2105,2096 2101,2089 2099,2083 2095,2075 2089,2068 2082,2062 2074,2054 2065,2037 2056,2030 2056,2021 2058,2015 2069,2005 2070,1993 2068,1979 2067,1972 2053,1965 2039,1954 2028,1946 2020,1942 2008,1943 1997,1945 1989,1938 1989,1925 1999,1925 2007,1927 2013,1918 2006,1897 2002,1887 1990,1878 1982,1880 1978,1874 1965,1870 1963,1880 1956,1876 1950,1869 1944,1867 1942,1873 1940,1879 1932,1884 1925,1882 1919,1883 1912,1882 1901,1889 1888,1889 1877,1885 1867,1886 1856,1882 1849,1880 1839,1879 1833,1885 1826,1893 1824,1901 1823,1907 1820,1915 1813,1917 1806,1917 1793,1909 1784,1907 1776,1903 1769,1902 1763,1901 1756,1903 1746,1912 1743,1919 1729,1917 1719,1917 1708,1916 1702,1912 1695,1913 1689,1920 1684,1926 1675,1936 1669,1940 1651,1944 1639,1947 1628,1950 1615,1953 1600,1956 1593,1957 1586,1957 1586,1952 1584,1942 1574,1930 1560,1922 1546,1916 1540,1908 1540,1900 1558,1886 1558,1882 1540,1848 1530,1828 1528,1812 1533,1802 1534,1800 1536,1798 1576,1798 1596,1792 1614,1782 1640,1768 1660,1758 1696,1736 1704,1732 1732,1694 1734,1686 1730,1682 1716,1672 1698,1662 1672,1644 1664,1628 1664,1613 1672,1600 1690,1588 1718,1574 1756,1566 1790,1560 1796,1550 1794,1534 1800,1518 1824,1488 1842,1476 1868,1478 1892,1452 1896,1430 1886,1410 1864,1390 1858,1386 1854,1380 1854,1352 1864,1330 1882,1314 1890,1300 1892,1288 1886,1282 1880,1278 1866,1282 1842,1300 1826,1306 1798,1312 1764,1304 1716,1282 1670,1264 1632,1242 1612,1228 1596,1210 1586,1196 1586,1180 1592,1132 1600,1080 1602,1040 1608,1030 1626,1022 1630,1014 1626,1006 1614,1002 1604,996 1602,986 1594,940 1574,932 1538,932 1536,922 1558,906 1582,900 1618,888 1658,876 1688,864 1706,852 1708,828 1700,808 1686,802 1650,812 1636,808 1632,792 1632,738 1630,720 1630,706 1630,692 1642,656 1656,604 1658,590 1656,584 1644,576 1620,574 1604,564 1598,556 1600,540 1600,516 1590,500 1560,470 1544,450 1540,434 1546,416 1558,400 1570,376 1578,336 1578,330 1574,324 1566,316 1556,308 1548,302 1532,294 1518,298 1498,306 1480,310 1468,308 1460,296 1462,276 1472,258 1486,248 1498,242 1500,232 1494,222 1478,216 1478,204 1484,198 1496,200 1506,196 1518,186 1524,176 1530,164 1548,154 1566,144 1584,136 1600,122 1602,116 1610,90 1610,80 1608,72 1602,68 1592,62 1595,57 1594,43 1600,36 1608,32 1615,35 1622,34 1614,25 1611,9 1625,0 1632,8 " class="polyStyle" id="445322" style="fill:#f6f67b"/>
<path d="" class="polyStyle" id="450123" style="fill:#fbe6ef"/>
<path d="" class="polyStyle" id="350624" style="fill:#f6f67b"/>
<path d="" class="polyStyle" id="" style="fill:#fbe6ef"/>
<path d="" class="polyStyle" id="451224" style="fill:#fbe6ef"/>
<path d="" class="polyStyle" id="350627" style="fill:#f6f67b"/>
<path d="" class="polyStyle" id="" style="fill:#f6f67b"/>
<path d="" class="polyStyle" id="350525" style="fill:#f6f67b"/>
<path d="" class="polyStyle" id="530124" style="fill:#ee8b94"/>
<path d="" class="polyStyle" id="522627" style="fill:#ee8b94"/>
<path d="" class="polyStyle" id="510421" style="fill:#fbe6ef"/>
<path d="" class="polyStyle" id="522623" style="fill:#d4ecb2"/>
<path d="" class="polyStyle" id="430321" style="fill:#d4ecb2"/>
<path d="" class="polyStyle" id="511129" style="fill:#d4ecb2"/>
<path d="" class="polyStyle" id="511423" style="fill:#ee8b94"/>
<path d="" class="polyStyle" id="421023" style="fill:#f6f67b"/>
<path d="" class="polyStyle" id="511724" style="fill:#f6f67b"/>
<path d="" class="polyStyle" id="420526" style="fill:#fbe6ef"/>
<path d="" class="polyStyle" id="511923" style="fill:#fbe6ef"/>
<path d="" class="polyStyle" id="420325" style="fill:#fbe6ef"/>
<path d="" class="polyStyle" id="511921" style="fill:#f6f67b"/>
<path d="" class="polyStyle" id="542525" style="fill:#f6f67b"/>
<path d="" class="polyStyle" id="611026" style="fill:#ee8b94"/>
<path d="" class="polyStyle" id="411023" style="fill:#fbe6ef"/>
<path d="" class="polyStyle" id="632323" style="fill:#f6f67b"/>
<path d="" class="polyStyle" id="140525" style="fill:#d4ecb2"/>
<path d="" class="polyStyle" id="410922" style="fill:#ee8b94"/>
<path d="" class="polyStyle" id="621027" style="fill:#ee8b94"/>
<path d="" class="polyStyle" id="130427" style="fill:#f6f67b"/>
<path d="" class="polyStyle" id="130121" style="fill:#ee8b94"/>
<path d="" class="polyStyle" id="610823" style="fill:#fbe6ef"/>
<path d="" class="polyStyle" id="130225" style="fill:#fbe6ef"/>
<path d="" class="polyStyle" id="130322" style="fill:#d4ecb2"/>
<path d="" class="polyStyle" id="653130" style="fill:#f6f67b"/>
<path d="" class="polyStyle" id="130822" style="fill:#fbe6ef"/>
<path d="" class="polyStyle" id="211221" style="fill:#f6f67b"/>
<path d="" class="polyStyle" id="210921" style="fill:#f6f67b"/>
<path d="" class="polyStyle" id="150223" style="fill:#f8c67d"/>
<path d="" class="polyStyle" id="220422" style="fill:#d4ecb2"/>
<path d="" class="polyStyle" id="340721" style="fill:#f6f67b"/>
<path d="" class="polyStyle" id="510824" style="fill:#d4ecb2"/>
<path d="" class="polyStyle" id="610324" style="fill:#f6f67b"/>
<path d="" class="polyStyle" id="530722" style="fill:#ee8b94"/>
<path d="" class="polyStyle" id="340823" style="fill:#d4ecb2"/>
<path d="" class="polyStyle" id="620825" style="fill:#d4ecb2"/>
<path d="" class="polyStyle" id="421125" style="fill:#ee8b94"/>
<path d="" class="polyStyle" id="210281" style="fill:#ee8b94"/>
<path d="" class="polyStyle" id="440883" style="fill:#f6f67b"/>
<path d="" class="polyStyle" id="469006" style="fill:#d4ecb2"/>
<path d="" class="polyStyle" id="469002" style="fill:#ee8b94"/>
<path d="" class="polyStyle" id="469005" style="fill:#fbe6ef"/>
<path d="" class="polyStyle" id="440882" style="fill:#ee8b94"/>
<path d="" class="polyStyle" id="450681" style="fill:#ee8b94"/>
<polygon points="1956,1876 1963,1880 1965,1870 1978,1874 1982,1880 1990,1878 2002,1887 2006,1897 2013,1918 2007,1927 1999,1925 1989,1925 1989,1938 1997,1945 2008,1943 2020,1942 2028,1946 2039,1954 2053,1965 2067,1972 2068,1979 2070,1993 2069,2005 2058,2015 2056,2021 2056,2030 2065,2037 2074,2054 2082,2062 2089,2068 2095,2075 2099,2083 2101,2089 2105,2096 2113,2104 2123,2111 2129,2115 2136,2119 2143,2121 2150,2125 2155,2136 2160,2142 2167,2148 2173,2148 2181,2149 2185,2156 2188,2165 2188,2175 2183,2182 2185,2194 2185,2200 2183,2207 2182,2215 2181,2222 2181,2228 2182,2238 2187,2245 2198,2250 2206,2252 2213,2254 2219,2259 2222,2271 2230,2281 2235,2290 2227,2292 2222,2299 2222,2305 2219,2311 2216,2322 2212,2329 2208,2336 2215,2341 2221,2349 2222,2356 2219,2367 2215,2381 2215,2390 2221,2392 2230,2395 2230,2404 2227,2416 2225,2427 2225,2434 2240,2441 2249,2436 2253,2429 2260,2423 2271,2427 2278,2431 2284,2435 2291,2444 2296,2451 2302,2451 2313,2442 2318,2431 2326,2422 2339,2417 2351,2416 2360,2420 2373,2414 2385,2412 2398,2411 2410,2412 2422,2417 2432,2418 2446,2421 2453,2430 2459,2436 2459,2450 2465,2454 2462,2462 2470,2467 2480,2473 2480,2483 2485,2492 2491,2493 2495,2500 2502,2513 2506,2521 2509,2528 2512,2535 2515,2543 2519,2550 2530,2556 2540,2558 2545,2565 2539,2575 2531,2582 2523,2583 2515,2583 2509,2589 2497,2597 2494,2603 2499,2610 2507,2611 2514,2611 2518,2618 2522,2625 2535,2626 2546,2631 2549,2637 2551,2643 2558,2646 2566,2646 2566,2657 2563,2667 2571,2670 2580,2675 2586,2682 2592,2679 2591,2672 2600,2670 2607,2671 2612,2664 2619,2660 2624,2653 2627,2647 2629,2641 2633,2634 2639,2629 2650,2624 2659,2628 2665,2638 2670,2646 2680,2652 2688,2652 2695,2651 2702,2648 2711,2639 2719,2630 2724,2624 2732,2618 2734,2612 2735,2604 2734,2597 2732,2590 2732,2580 2735,2577 2742,2578 2749,2587 2752,2593 2757,2598 2764,2598 2770,2595 2777,2590 2782,2580 2781,2574 2777,2569 2759,2557 2754,2551 2753,2547 2757,2544 2765,2544 2780,2557 2796,2562 2806,2564 2821,2579 2833,2591 2841,2594 2846,2592 2851,2584 2855,2577 2858,2570 2863,2562 2871,2550 2877,2553 2888,2554 2895,2557 2894,2565 2887,2569 2888,2575 2892,2581 2898,2589 2892,2587 2882,2593 2872,2596 2865,2595 2865,2605 2857,2608 2849,2609 2848,2616 2856,2612 2863,2620 2867,2626 2870,2633 2877,2635 2884,2638 2884,2646 2891,2651 2898,2646 2905,2651 2906,2658 2912,2659 2918,2659 2924,2662 2924,2669 2930,2668 2936,2675 2940,2685 2946,2685 2946,2679 2944,2669 2949,2662 2946,2655 2953,2650 2950,2644 2954,2637 2960,2634 2968,2638 2974,2633 2985,2640 2986,2646 2994,2648 3000,2644 2998,2638 3005,2635 3004,2628 3011,2622 3013,2615 3008,2609 3014,2606 3016,2598 3012,2590 3015,2583 3019,2576 3021,2566 3025,2558 3029,2552 3038,2549 3041,2543 3042,2534 3049,2535 3053,2526 3058,2517 3054,2513 3049,2510 3043,2508 3037,2504 3038,2495 3043,2487 3052,2475 3059,2474 3067,2479 3073,2480 3079,2486 3086,2495 3092,2495 3101,2494 3108,2495 3114,2496 3110,2504 3108,2510 3103,2517 3112,2516 3119,2512 3133,2510 3139,2509 3147,2506 3161,2506 3168,2510 3170,2517 3169,2524 3170,2531 3180,2543 3191,2549 3199,2547 3209,2548 3213,2557 3215,2565 3208,2569 3207,2576 3203,2583 3194,2581 3177,2579 3170,2576 3162,2572 3154,2577 3152,2586 3150,2596 3150,2604 3160,2605 3168,2608 3175,2613 3182,2615 3189,2612 3190,2606 3192,2596 3199,2596 3206,2590 3214,2596 3220,2603 3229,2606 3236,2606 3244,2605 3246,2599 3240,2592 3250,2589 3261,2583 3268,2579 3275,2574 3286,2577 3293,2582 3292,2588 3290,2600 3299,2608 3305,2610 3308,2619 3312,2625 3320,2621 3329,2626 3336,2627 3344,2635 3352,2631 3363,2630 3370,2622 3370,2630 3366,2641 3366,2652 3369,2658 3375,2658 3383,2664 3385,2672 3394,2680 3401,2680 3407,2675 3419,2674 3431,2673 3437,2675 3439,2665 3449,2662 3447,2651 3447,2642 3455,2641 3463,2645 3470,2652 3472,2658 3475,2666 3474,2675 3474,2685 3478,2697 3485,2708 3491,2721 3498,2733 3503,2739 3513,2737 3513,2725 3508,2714 3510,2700 3514,2694 3519,2684 3522,2676 3524,2665 3531,2656 3521,2650 3526,2640 3535,2636 3541,2631 3553,2634 3555,2642 3561,2647 3570,2655 3574,2666 3576,2676 3576,2683 3578,2692 3579,2703 3583,2710 3597,2705 3605,2702 3618,2695 3624,2691 3648,2678 3668,2666 3696,2652 3705,2647 3713,2646 3728,2650 3742,2650 3748,2653 3747,2660 3736,2665 3722,2671 3713,2677 3705,2689 3692,2697 3684,2705 3676,2714 3667,2716 3671,2726 3680,2734 3691,2737 3692,2745 3688,2751 3681,2756 3674,2756 3670,2748 3664,2750 3655,2750 3645,2757 3633,2763 3622,2769 3618,2778 3626,2790 3631,2797 3629,2810 3637,2824 3649,2831 3656,2833 3665,2838 3669,2851 3680,2852 3686,2855 3698,2862 3707,2854 3707,2845 3720,2843 3722,2849 3729,2858 3737,2859 3746,2852 3750,2842 3743,2832 3744,2824 3748,2817 3755,2810 3756,2803 3757,2796 3756,2790 3769,2791 3779,2785 3789,2784 3798,2782 3801,2790 3804,2796 3811,2792 3817,2787 3826,2781 3834,2778 3837,2786 3843,2791 3849,2793 3858,2786 3884,2773 3895,2769 3901,2763 3908,2762 3917,2768 3928,2778 3931,2785 3936,2792 3937,2798 3931,2802 3931,2811 3929,2819 3928,2828 3932,2835 3941,2841 3945,2849 3938,2853 3929,2863 3918,2872 3912,2885 3905,2895 3894,2898 3896,2907 3908,2913 3915,2918 3922,2924 3925,2931 3933,2935 3942,2936 3947,2943 3956,2940 3962,2941 3966,2953 3972,2954 3975,2945 3975,2939 3989,2933 3998,2931 3991,2941 3997,2945 4003,2949 4012,2951 4018,2950 4024,2956 4032,2960 4039,2960 4052,2953 4063,2960 4071,2960 4081,2959 4090,2959 4091,2965 4092,2977 4097,2988 4088,2993 4083,3006 4086,3016 4087,3025 4100,3029 4106,3026 4113,3022 4124,3020 4132,3019 4144,3017 4153,3024 4157,3030 4161,3038 4148,3045 4149,3057 4145,3065 4157,3071 4167,3067 4177,3064 4187,3067 4198,3074 4204,3081 4202,3087 4196,3087 4186,3078 4175,3076 4167,3085 4158,3085 4151,3083 4138,3085 4129,3086 4135,3091 4138,3098 4128,3100 4125,3094 4122,3086 4122,3080 4112,3086 4112,3103 4125,3105 4123,3113 4116,3114 4108,3115 4109,3121 4112,3128 4118,3140 4106,3140 4099,3130 4091,3127 4084,3133 4086,3142 4093,3144 4090,3152 4080,3151 4070,3152 4060,3156 4050,3158 4041,3164 4034,3169 4021,3175 4015,3178 4002,3181 3982,3196 3975,3196 3963,3200 3960,3210 3951,3210 3947,3224 3945,3230 3943,3240 3930,3245 3924,3245 3922,3239 3923,3231 3922,3222 3925,3210 3926,3196 3918,3191 3910,3193 3901,3192 3894,3195 3892,3201 3889,3213 3888,3226 3882,3238 3876,3240 3870,3243 3861,3239 3855,3235 3846,3236 3837,3237 3834,3245 3832,3251 3826,3255 3818,3258 3822,3264 3822,3272 3816,3274 3813,3283 3813,3291 3821,3291 3821,3301 3818,3307 3812,3312 3805,3323 3793,3334 3786,3345 3776,3346 3772,3354 3767,3361 3769,3367 3762,3374 3756,3384 3756,3392 3759,3401 3752,3408 3755,3417 3762,3424 3771,3426 3772,3434 3774,3440 3775,3448 3783,3452 3790,3458 3792,3466 3790,3473 3783,3483 3777,3491 3766,3498 3759,3502 3740,3505 3729,3509 3721,3518 3718,3526 3714,3532 3702,3541 3694,3551 3687,3555 3686,3563 3684,3572 3678,3576 3672,3576 3664,3579 3662,3589 3653,3599 3647,3600 3639,3602 3629,3621 3623,3635 3619,3647 3618,3660 3612,3661 3599,3669 3590,3674 3584,3674 3578,3678 3570,3679 3563,3687 3553,3695 3546,3698 3537,3700 3535,3706 3535,3712 3536,3720 3533,3731 3525,3737 3520,3743 3510,3745 3503,3742 3491,3749 3474,3757 3454,3765 3442,3765 3437,3771 3427,3776 3421,3780 3413,3783 3405,3793 3399,3798 3388,3809 3379,3827 3379,3833 3372,3838 3368,3845 3369,3858 3360,3869 3358,3876 3351,3882 3345,3890 3343,3900 3343,3907 3346,3916 3338,3923 3329,3929 3322,3934 3315,3938 3321,3947 3322,3956 3321,3966 3319,3975 3319,3984 3322,3998 3324,4010 3317,4021 3317,4030 3320,4042 3312,4044 3306,4052 3301,4062 3291,4076 3288,4093 3284,4099 3283,4106 3284,4117 3278,4117 3268,4115 3265,4121 3262,4131 3259,4137 3241,4149 3235,4155 3229,4161 3225,4169 3217,4178 3214,4186 3208,4194 3203,4205 3190,4214 3186,4220 3173,4229 3158,4230 3143,4227 3130,4229 3118,4231 3115,4222 3107,4216 3110,4206 3113,4200 3107,4187 3105,4178 3108,4166 3109,4156 3100,4150 3092,4145 3086,4138 3079,4127 3072,4123 3061,4125 3055,4125 3049,4127 3039,4132 3030,4133 3023,4134 3007,4126 2999,4136 2993,4138 2984,4140 2974,4141 2963,4146 2953,4146 2946,4134 2936,4138 2929,4137 2923,4134 2916,4127 2904,4129 2882,4118 2878,4112 2877,4103 2878,4096 2868,4090 2857,4084 2845,4087 2843,4096 2843,4102 2837,4117 2828,4129 2827,4136 2825,4147 2815,4148 2812,4142 2808,4132 2804,4122 2803,4116 2796,4107 2798,4099 2814,4092 2815,4084 2818,4076 2818,4065 2821,4054 2825,4040 2824,4033 2818,4034 2810,4033 2801,4029 2808,4026 2812,4020 2806,4012 2801,4005 2803,3999 2805,3991 2803,3985 2799,3978 2803,3972 2804,3966 2797,3961 2791,3957 2783,3962 2774,3969 2768,3964 2769,3956 2774,3945 2774,3939 2778,3932 2778,3926 2775,3920 2774,3914 2767,3904 2758,3899 2752,3891 2741,3888 2731,3886 2723,3889 2714,3891 2706,3892 2704,3886 2694,3883 2687,3884 2676,3889 2670,3891 2650,3901 2643,3902 2628,3906 2619,3912 2606,3920 2597,3927 2590,3929 2576,3932 2561,3940 2566,3946 2560,3955 2554,3961 2547,3967 2539,3972 2533,3980 2529,3986 2522,3991 2512,4000 2514,4006 2520,4011 2522,4018 2519,4025 2508,4025 2501,4030 2482,4035 2470,4040 2459,4043 2451,4046 2445,4049 2440,4057 2446,4060 2443,4073 2439,4089 2438,4100 2440,4109 2439,4116 2440,4124 2446,4130 2448,4136 2445,4143 2435,4148 2427,4151 2421,4154 2420,4160 2416,4171 2408,4177 2402,4181 2394,4188 2396,4194 2391,4200 2385,4203 2381,4212 2371,4221 2364,4224 2356,4233 2349,4238 2343,4239 2335,4237 2326,4235 2315,4231 2308,4227 2305,4219 2304,4211 2300,4205 2290,4201 2283,4197 2276,4194 2267,4187 2261,4181 2256,4170 2247,4170 2239,4162 2233,4159 2222,4159 2212,4156 2207,4149 2200,4148 2194,4142 2188,4141 2180,4134 2174,4131 2170,4122 2161,4116 2151,4113 2145,4116 2135,4120 2125,4123 2123,4131 2121,4142 2115,4146 2109,4148 2102,4159 2095,4168 2087,4166 2083,4172 2073,4181 2063,4189 2064,4196 2064,4206 2073,4214 2086,4218 2087,4226 2095,4231 2101,4236 2096,4243 2090,4252 2088,4258 2084,4268 2087,4276 2087,4285 2084,4291 2084,4298 2090,4310 2091,4317 2094,4325 2098,4333 2109,4338 2115,4339 2120,4345 2118,4352 2114,4360 2107,4361 2102,4370 2099,4381 2090,4389 2084,4401 2080,4410 2075,4424 2073,4431 2064,4433 2051,4431 2037,4431 2034,4423 2022,4421 2012,4427 2002,4431 1984,4432 1968,4430 1961,4431 1946,4430 1939,4444 1936,4453 1928,4473 1918,4483 1911,4487 1914,4496 1909,4505 1897,4507 1890,4501 1883,4502 1877,4509 1871,4510 1863,4505 1857,4505 1848,4509 1843,4515 1834,4508 1820,4503 1819,4497 1813,4495 1801,4486 1798,4478 1803,4462 1812,4454 1812,4436 1818,4431 1820,4424 1820,4414 1826,4402 1822,4395 1816,4392 1808,4396 1799,4396 1786,4389 1780,4382 1775,4376 1772,4368 1774,4362 1767,4358 1764,4351 1763,4345 1763,4338 1771,4327 1768,4320 1761,4308 1761,4298 1763,4289 1755,4278 1752,4270 1760,4265 1756,4257 1749,4257 1740,4249 1733,4244 1731,4234 1735,4220 1750,4212 1753,4205 1758,4198 1761,4191 1769,4181 1771,4175 1773,4162 1776,4152 1779,4138 1778,4126 1786,4114 1786,4107 1785,4096 1787,4088 1783,4078 1773,4075 1761,4072 1751,4070 1745,4067 1739,4062 1729,4062 1722,4069 1715,4073 1706,4071 1697,4070 1691,4071 1683,4074 1676,4078 1668,4077 1662,4077 1655,4080 1643,4088 1634,4093 1626,4092 1620,4082 1612,4083 1602,4082 1600,4069 1591,4065 1584,4061 1566,4065 1546,4072 1530,4081 1522,4083 1514,4090 1505,4101 1498,4102 1491,4102 1477,4096 1470,4099 1463,4103 1456,4096 1449,4083 1444,4074 1437,4064 1432,4057 1429,4047 1419,4044 1412,4035 1410,4026 1399,4027 1391,4033 1387,4040 1370,4056 1362,4061 1354,4058 1346,4058 1337,4059 1329,4061 1322,4058 1314,4065 1305,4079 1299,4089 1293,4090 1286,4087 1278,4085 1271,4083 1263,4082 1256,4089 1249,4099 1239,4104 1221,4104 1214,4107 1204,4107 1190,4109 1184,4110 1177,4118 1177,4127 1174,4136 1170,4146 1164,4153 1157,4161 1149,4152 1145,4145 1138,4138 1131,4141 1123,4147 1120,4155 1118,4163 1115,4169 1102,4180 1096,4179 1088,4170 1087,4162 1079,4152 1078,4145 1079,4138 1075,4126 1075,4117 1078,4110 1084,4103 1087,4096 1094,4084 1097,4078 1100,4071 1102,4064 1103,4057 1104,4051 1115,4042 1125,4034 1127,4028 1136,4026 1143,4021 1145,4014 1149,4005 1153,3997 1155,3985 1161,3978 1167,3973 1169,3966 1170,3957 1169,3949 1173,3938 1175,3932 1178,3925 1179,3919 1183,3911 1187,3902 1193,3900 1199,3900 1208,3902 1219,3904 1234,3904 1249,3902 1257,3897 1267,3893 1279,3896 1289,3894 1297,3894 1303,3893 1310,3893 1320,3892 1331,3892 1339,3886 1346,3883 1352,3876 1350,3870 1351,3860 1350,3854 1341,3852 1332,3848 1323,3845 1314,3842 1303,3837 1293,3827 1281,3819 1269,3812 1260,3805 1253,3801 1242,3797 1232,3789 1227,3778 1228,3769 1235,3764 1235,3758 1231,3750 1233,3737 1226,3733 1220,3727 1212,3724 1201,3724 1192,3721 1186,3711 1178,3709 1172,3707 1163,3700 1160,3694 1154,3693 1142,3693 1130,3685 1122,3683 1114,3680 1101,3680 1091,3677 1080,3677 1070,3676 1064,3676 1053,3678 1046,3680 1033,3683 1025,3686 1015,3689 1006,3692 998,3692 992,3691 980,3699 974,3703 968,3710 963,3722 957,3723 946,3721 940,3716 934,3715 927,3717 919,3726 907,3726 900,3725 888,3722 877,3718 869,3716 863,3716 854,3715 846,3719 839,3719 829,3713 822,3711 813,3709 813,3693 810,3683 805,3676 796,3667 789,3665 777,3667 767,3662 756,3654 754,3647 753,3641 753,3631 747,3627 741,3625 737,3618 731,3609 724,3606 717,3597 708,3589 701,3589 698,3597 696,3603 687,3604 681,3603 672,3609 666,3611 657,3611 649,3615 641,3620 633,3617 627,3616 617,3616 607,3614 599,3613 591,3612 581,3605 568,3592 558,3576 548,3566 540,3555 532,3544 526,3540 520,3540 506,3537 498,3534 490,3528 478,3520 470,3517 461,3518 452,3516 446,3515 436,3508 439,3496 442,3487 442,3479 441,3471 437,3462 433,3448 421,3439 412,3433 405,3425 399,3419 402,3411 400,3402 396,3392 386,3382 383,3373 377,3354 377,3346 369,3339 370,3331 367,3323 360,3314 357,3307 365,3304 380,3290 392,3276 402,3269 402,3261 404,3252 403,3243 401,3234 400,3227 403,3217 396,3207 388,3203 379,3197 373,3192 367,3182 360,3180 356,3173 340,3159 339,3151 332,3147 335,3141 332,3130 323,3129 311,3127 304,3123 297,3121 289,3123 280,3124 272,3120 265,3120 255,3122 247,3128 240,3140 237,3147 239,3155 241,3161 241,3167 232,3167 219,3169 207,3173 201,3172 195,3173 174,3173 168,3172 164,3164 142,3152 132,3140 138,3112 136,3098 124,3088 70,3054 24,3034 16,3006 0,3006 2,3002 4,2996 10,2988 20,2984 72,2988 86,2978 89,2981 130,2990 144,2984 158,2982 180,2984 188,2980 190,2974 196,2944 202,2938 212,2936 238,2938 272,2938 288,2934 290,2918 298,2914 312,2928 326,2934 342,2940 352,2944 416,2956 428,2960 442,2956 454,2948 458,2944 460,2936 466,2930 470,2930 480,2930 495,2930 534,2932 574,2938 586,2944 594,2946 604,2956 620,2960 646,2960 714,2948 724,2940 728,2924 732,2898 732,2894 732,2890 738,2888 758,2892 768,2894 786,2898 808,2898 814,2896 834,2884 846,2874 866,2858 892,2820 902,2804 906,2768 922,2742 942,2722 974,2710 992,2698 998,2676 1006,2668 1016,2668 1028,2670 1040,2678 1048,2684 1062,2696 1076,2698 1080,2682 1082,2656 1088,2642 1118,2628 1134,2622 1156,2624 1170,2614 1174,2604 1174,2590 1170,2578 1166,2568 1162,2534 1158,2498 1166,2492 1186,2496 1208,2488 1226,2470 1234,2452 1228,2428 1232,2418 1240,2418 1258,2418 1270,2416 1286,2390 1300,2382 1316,2382 1340,2366 1350,2346 1348,2328 1342,2310 1348,2306 1398,2302 1412,2296 1424,2282 1456,2242 1470,2232 1484,2216 1512,2194 1518,2184 1520,2174 1516,2144 1516,2126 1518,2118 1520,2110 1524,2098 1536,2076 1546,2062 1556,2050 1578,2020 1586,2002 1588,1978 1586,1957 1593,1957 1600,1956 1615,1953 1628,1950 1639,1947 1651,1944 1669,1940 1675,1936 1684,1926 1689,1920 1695,1913 1702,1912 1708,1916 1719,1917 1729,1917 1743,1919 1746,1912 1756,1903 1763,1901 1769,1902 1776,1903 1784,1907 1793,1909 1806,1917 1813,1917 1820,1915 1823,1907 1824,1901 1826,1893 1833,1885 1839,1879 1849,1880 1856,1882 1867,1886 1877,1885 1888,1889 1901,1889 1912,1882 1919,1883 1925,1882 1932,1884 1940,1879 1942,1873 1944,1867 1950,1869 " class="polyStyle" id="445381" style="fill:#fbe6ef"/>
<path d="" class="polyStyle" id="441581" style="fill:#d4ecb2"/>
<path d="" class="polyStyle" id="421087" style="fill:#ee8b94"/>
<path d="" class="polyStyle" id="420984" style="fill:#fbe6ef"/>
<path d="" class="polyStyle" id="420582" style="fill:#ee8b94"/>
<path d="" class="polyStyle" id="370282" style="fill:#f6f67b"/>
<path d="" class="polyStyle" id="371083" style="fill:#f6f67b"/>
<path d="" class="polyStyle" id="371082" style="fill:#fbe6ef"/>
<path d="" class="polyStyle" id="652801" style="fill:#f8c67d"/>
<path d="" class="polyStyle" id="654301" style="fill:#ee8b94"/>
<path d="" class="polyStyle" id="370687" style="fill:#ee8b94"/>
<path d="" class="polyStyle" id="371482" style="fill:#d4ecb2"/>
<path d="" class="polyStyle" id="421081" style="fill:#fbe6ef"/>
<path d="" class="polyStyle" id="429006" style="fill:#f6f67b"/>
<path d="" class="polyStyle" id="440982" style="fill:#d4ecb2"/>
<path d="" class="polyStyle" id="421181" style="fill:#d4ecb2"/>
<path d="" class="polyStyle" id="321181" style="fill:#d4ecb2"/>
<path d="" class="polyStyle" id="659007" style="fill:#ee8b94"/>
<path d="" class="polyStyle" id="652701" style="fill:#fbe6ef"/>
<path d="" class="polyStyle" id="210781" style="fill:#fbe6ef"/>
<path d="" class="polyStyle" id="460204" style="fill:#f6f67b"/>
<path d="" class="polyStyle" id="210211" style="fill:#f6f67b"/>
<path d="" class="polyStyle" id="450512" style="fill:#ee8b94"/>
<path d="" class="polyStyle" id="450602" style="fill:#fbe6ef"/>
<path d="" class="polyStyle" id="440404" style="fill:#ee8b94"/>
<path d="" class="polyStyle" id="440403" style="fill:#f6f67b"/>
<path d="" class="polyStyle" id="441502" style="fill:#f6f67b"/>
<path d="" class="polyStyle" id="431002" style="fill:#d4ecb2"/>
<path d="" class="polyStyle" id="500107" style="fill:#fbe6ef"/>
<path d="" class="polyStyle" id="430611" style="fill:#d4ecb2"/>
<path d="" class="polyStyle" id="511304" style="fill:#fbe6ef"/>
<path d="" class="polyStyle" id="340711" style="fill:#ee8b94"/>
<path d="" class="polyStyle" id="320118" style="fill:#f6f67b"/>
<path d="" class="polyStyle" id="510704" style="fill:#f6f67b"/>
<path d="" class="polyStyle" id="411502" style="fill:#ee8b94"/>
<path d="" class="polyStyle" id="320302" style="fill:#d4ecb2"/>
<path d="" class="polyStyle" id="140311" style="fill:#ee8b94"/>
<path d="" class="polyStyle" id="610802" style="fill:#ee8b94"/>
<path d="" class="polyStyle" id="120116" style="fill:#f6f67b"/>
<path d="" class="polyStyle" id="130303" style="fill:#fbe6ef"/>
<path d="" class="polyStyle" id="140211" style="fill:#f6f67b"/>
<path d="" class="polyStyle" id="150207" style="fill:#fbe6ef"/>
<path d="" class="polyStyle" id="211403" style="fill:#f6f67b"/>
<path d="" class="polyStyle" id="150802" style="fill:#f8c67d"/>
<path d="" class="polyStyle" id="210112" style="fill:#ee8b94"/>
<path d="" class="polyStyle" id="230406" style="fill:#d4ecb2"/>
<path d="" class="polyStyle" id="110113" style="fill:#fbe6ef"/>
<path d="" class="polyStyle" id="341702" style="fill:#fbe6ef"/>
<path d="" class="polyStyle" id="420303" style="fill:#ee8b94"/>
<path d="" class="polyStyle" id="340702" style="fill:#d4ecb2"/>
<path d="" class="polyStyle" id="421002" style="fill:#f6f67b"/>
<path d="" class="polyStyle" id="420117" style="fill:#f6f67b"/>
<path d="" class="polyStyle" id="440904" style="fill:#f8c67d"/>
<path d="" class="polyStyle" id="460205" style="fill:#ee8b94"/>
<path d="" class="polyStyle" id="460202" style="fill:#f6f67b"/>
<path d="" class="polyStyle" id="460203" style="fill:#fbe6ef"/>
<path d="" class="polyStyle" id="420304" style="fill:#f6f67b"/>
<polygon points="5142,1243 5175,1220 5213,1193 5243,1190 5274,1209 5310,1223 5343,1222 5369,1216 5398,1208 5439,1224 5465,1233 5492,1247 5518,1259 5544,1267 5574,1272 5601,1276 5629,1274 5658,1267 5692,1247 5717,1224 5748,1202 5784,1169 5809,1143 5845,1101 5876,1075 5906,1065 5933,1061 5963,1056 5996,1051 6026,1048 6059,1037 6087,1024 6119,1010 6143,999 6146,998 6169,994 6174,1004 6180,1005 6187,1005 6194,1010 6204,1013 6212,1020 6223,1030 6232,1026 6253,1029 6260,1028 6263,1030 6268,1031 6272,1031 6275,1034 6278,1057 6279,1060 6280,1065 6290,1073 6305,1086 6327,1102 6333,1107 6339,1112 6343,1115 6347,1117 6351,1120 6352,1125 6351,1130 6350,1134 6346,1138 6338,1148 6341,1164 6348,1173 6342,1191 6330,1194 6322,1203 6317,1208 6316,1211 6313,1218 6312,1224 6303,1231 6307,1235 6305,1240 6289,1246 6284,1253 6268,1258 6250,1250 6239,1247 6235,1240 6222,1243 6212,1265 6213,1282 6201,1305 6198,1321 6198,1328 6196,1337 6185,1358 6179,1366 6164,1375 6162,1378 6161,1377 6130,1370 6088,1367 6070,1369 6041,1383 6010,1406 5986,1430 5952,1509 5928,1545 5899,1576 5883,1614 5864,1639 5829,1673 5820,1677 5812,1672 5806,1659 5800,1632 5788,1623 5770,1618 5753,1620 5733,1634 5661,1706 5642,1716 5623,1712 5616,1696 5612,1668 5606,1659 5597,1655 5546,1648 5458,1643 5417,1626 5359,1596 5341,1591 5282,1595 5223,1607 5201,1606 5139,1587 5079,1576 5058,1581 5064,1593 5080,1611 5118,1639 5119,1650 5108,1688 5139,1721 5140,1727 5119,1746 5094,1758 5091,1751 5087,1707 5048,1649 5011,1562 5009,1564 5008,1575 5005,1576 5002,1575 5006,1569 5006,1560 5001,1568 4995,1571 4987,1574 4981,1577 4980,1583 4975,1584 4973,1577 4971,1570 4971,1563 4973,1557 4971,1549 4970,1544 4968,1555 4963,1564 4956,1565 4952,1562 4954,1551 4957,1535 4968,1525 4956,1530 4944,1538 4941,1548 4934,1557 4926,1551 4916,1543 4917,1531 4914,1527 4912,1523 4900,1514 4895,1513 4891,1520 4883,1532 4879,1535 4874,1534 4869,1533 4868,1541 4870,1546 4870,1557 4868,1569 4864,1573 4860,1578 4850,1594 4845,1619 4834,1617 4830,1615 4817,1617 4811,1626 4806,1626 4799,1630 4794,1632 4791,1636 4790,1645 4794,1644 4796,1649 4793,1652 4784,1655 4785,1662 4784,1668 4783,1675 4779,1679 4763,1679 4754,1682 4746,1689 4734,1690 4723,1696 4707,1697 4691,1697 4686,1693 4683,1689 4674,1686 4667,1690 4660,1696 4650,1697 4640,1700 4630,1713 4628,1722 4618,1727 4602,1730 4601,1735 4606,1751 4608,1760 4616,1769 4623,1780 4629,1785 4630,1794 4636,1803 4630,1808 4631,1813 4629,1822 4627,1831 4630,1855 4626,1878 4618,1886 4613,1898 4608,1905 4601,1909 4595,1917 4592,1930 4593,1937 4601,1948 4606,1955 4618,1971 4627,1976 4637,1976 4646,1983 4651,1994 4650,2004 4646,2011 4646,2021 4647,2031 4653,2041 4648,2045 4638,2045 4626,2046 4622,2054 4615,2068 4611,2080 4617,2094 4613,2105 4612,2114 4614,2127 4617,2139 4614,2148 4601,2154 4596,2158 4591,2162 4581,2164 4577,2172 4574,2181 4570,2193 4559,2200 4549,2210 4542,2212 4536,2214 4528,2217 4524,2225 4517,2233 4512,2240 4512,2251 4518,2260 4521,2269 4532,2272 4544,2265 4551,2260 4563,2269 4569,2275 4570,2285 4579,2297 4592,2303 4605,2300 4618,2302 4629,2305 4640,2299 4653,2302 4662,2302 4671,2307 4691,2300 4708,2290 4726,2282 4737,2272 4752,2266 4762,2257 4772,2252 4783,2251 4792,2246 4803,2246 4812,2241 4815,2232 4819,2226 4829,2226 4836,2228 4844,2224 4849,2219 4854,2214 4865,2211 4872,2209 4877,2214 4884,2213 4890,2221 4894,2234 4896,2258 4902,2269 4902,2276 4911,2281 4916,2290 4918,2294 4928,2290 4939,2284 4943,2277 4949,2269 4959,2266 4963,2263 4964,2263 4961,2275 4938,2314 4896,2358 4879,2383 4864,2423 4851,2492 4842,2505 4807,2523 4795,2543 4799,2580 4820,2652 4819,2670 4791,2714 4778,2741 4764,2786 4755,2894 4753,2986 4748,3026 4733,3071 4715,3104 4716,3111 4723,3114 4827,3126 4854,3134 4861,3138 4868,3161 4865,3181 4858,3198 4825,3238 4796,3282 4762,3396 4757,3392 4748,3382 4746,3376 4742,3370 4736,3370 4732,3372 4729,3373 4725,3376 4722,3377 4722,3386 4719,3396 4712,3397 4705,3399 4700,3403 4689,3406 4683,3397 4677,3395 4672,3397 4663,3401 4655,3404 4645,3407 4637,3410 4629,3411 4608,3414 4603,3417 4599,3428 4597,3432 4593,3439 4590,3445 4587,3449 4577,3455 4575,3464 4572,3469 4566,3471 4563,3477 4558,3483 4553,3492 4547,3502 4539,3501 4532,3497 4523,3488 4520,3481 4507,3471 4500,3471 4488,3483 4483,3490 4474,3500 4463,3510 4455,3513 4446,3519 4438,3522 4431,3529 4418,3531 4412,3538 4407,3548 4401,3549 4394,3558 4386,3569 4379,3580 4378,3586 4380,3592 4377,3601 4374,3609 4363,3620 4359,3627 4347,3630 4341,3633 4337,3643 4335,3651 4328,3654 4320,3656 4318,3663 4318,3669 4313,3679 4304,3677 4295,3672 4289,3671 4277,3678 4267,3690 4267,3702 4263,3712 4255,3716 4248,3724 4236,3730 4229,3732 4229,3738 4224,3746 4223,3755 4225,3764 4219,3771 4217,3779 4219,3786 4211,3793 4204,3784 4198,3780 4194,3787 4186,3789 4179,3786 4171,3778 4164,3766 4159,3757 4149,3762 4141,3765 4129,3767 4120,3766 4106,3759 4098,3752 4096,3745 4087,3743 4087,3752 4089,3764 4090,3771 4084,3774 4079,3780 4072,3781 4060,3775 4053,3769 4041,3766 4035,3765 4026,3759 4024,3748 4019,3739 4015,3731 4003,3722 3995,3721 3985,3726 3974,3730 3965,3733 3959,3731 3950,3725 3950,3712 3946,3701 3937,3702 3931,3704 3924,3707 3929,3713 3923,3715 3913,3714 3905,3712 3896,3710 3892,3699 3887,3692 3887,3686 3894,3681 3896,3673 3893,3665 3887,3661 3877,3667 3871,3668 3859,3664 3844,3658 3838,3658 3826,3652 3828,3640 3832,3634 3838,3625 3849,3620 3858,3618 3864,3614 3866,3603 3877,3595 3883,3597 3895,3606 3901,3608 3907,3609 3915,3611 3923,3612 3931,3605 3931,3592 3935,3586 3942,3581 3952,3579 3959,3587 3967,3596 3975,3600 3990,3605 4000,3612 4014,3609 4016,3603 4024,3593 4024,3584 4021,3576 4021,3565 4020,3554 4017,3548 4009,3547 4002,3542 3997,3535 3991,3522 3985,3518 3994,3514 3997,3507 3989,3507 3995,3503 4003,3497 4002,3491 4001,3483 4008,3476 4029,3476 4040,3478 4046,3477 4058,3475 4065,3474 4074,3472 4066,3463 4065,3455 4071,3448 4071,3441 4074,3432 4083,3425 4080,3416 4081,3406 4075,3398 4076,3390 4082,3385 4080,3378 4075,3366 4074,3355 4073,3343 4067,3338 4061,3337 4049,3339 4038,3343 4030,3345 4020,3340 4001,3323 3999,3317 4005,3298 4004,3292 3994,3291 3985,3288 3982,3276 3980,3270 3974,3267 3970,3258 3963,3259 3956,3256 3951,3248 3943,3240 3945,3230 3947,3224 3951,3210 3960,3210 3963,3200 3975,3196 3982,3196 4002,3181 4015,3178 4021,3175 4034,3169 4041,3164 4050,3158 4060,3156 4070,3152 4080,3151 4090,3152 4093,3144 4086,3142 4084,3133 4091,3127 4099,3130 4106,3140 4118,3140 4112,3128 4109,3121 4108,3115 4116,3114 4123,3113 4125,3105 4112,3103 4112,3086 4122,3080 4122,3086 4125,3094 4128,3100 4138,3098 4135,3091 4129,3086 4138,3085 4151,3083 4158,3085 4167,3085 4175,3076 4186,3078 4196,3087 4202,3087 4204,3081 4198,3074 4187,3067 4177,3064 4167,3067 4157,3071 4145,3065 4149,3057 4148,3045 4161,3038 4157,3030 4153,3024 4144,3017 4132,3019 4124,3020 4113,3022 4106,3026 4100,3029 4087,3025 4086,3016 4083,3006 4088,2993 4097,2988 4092,2977 4091,2965 4090,2959 4081,2959 4071,2960 4063,2960 4052,2953 4039,2960 4032,2960 4024,2956 4018,2950 4012,2951 4003,2949 3997,2945 3991,2941 3998,2931 3989,2933 3975,2939 3975,2945 3972,2954 3966,2953 3962,2941 3956,2940 3947,2943 3942,2936 3933,2935 3925,2931 3922,2924 3915,2918 3908,2913 3896,2907 3894,2898 3905,2895 3912,2885 3918,2872 3929,2863 3938,2853 3945,2849 3941,2841 3932,2835 3928,2828 3929,2819 3931,2811 3931,2802 3937,2798 3936,2792 3931,2785 3928,2778 3917,2768 3908,2762 3901,2763 3895,2769 3884,2773 3858,2786 3849,2793 3843,2791 3837,2786 3834,2778 3826,2781 3817,2787 3811,2792 3804,2796 3801,2790 3798,2782 3789,2784 3779,2785 3769,2791 3756,2790 3757,2796 3756,2803 3755,2810 3748,2817 3744,2824 3743,2832 3750,2842 3746,2852 3737,2859 3729,2858 3722,2849 3720,2843 3707,2845 3707,2854 3698,2862 3686,2855 3680,2852 3669,2851 3665,2838 3656,2833 3649,2831 3637,2824 3629,2810 3631,2797 3626,2790 3618,2778 3622,2769 3633,2763 3645,2757 3655,2750 3664,2750 3670,2748 3674,2756 3681,2756 3688,2751 3692,2745 3691,2737 3680,2734 3671,2726 3667,2716 3676,2714 3684,2705 3692,2697 3705,2689 3713,2677 3722,2671 3736,2665 3747,2660 3748,2653 3742,2650 3728,2650 3713,2646 3705,2647 3696,2652 3668,2666 3648,2678 3624,2691 3618,2695 3605,2702 3597,2705 3583,2710 3579,2703 3578,2692 3576,2683 3576,2676 3574,2666 3570,2655 3561,2647 3555,2642 3553,2634 3541,2631 3535,2636 3526,2640 3521,2650 3531,2656 3524,2665 3522,2676 3519,2684 3514,2694 3510,2700 3508,2714 3513,2725 3513,2737 3503,2739 3498,2733 3491,2721 3485,2708 3478,2697 3474,2685 3474,2675 3475,2666 3472,2658 3470,2652 3463,2645 3455,2641 3447,2642 3447,2651 3449,2662 3439,2665 3437,2675 3431,2673 3419,2674 3407,2675 3401,2680 3394,2680 3385,2672 3383,2664 3375,2658 3369,2658 3366,2652 3366,2641 3370,2630 3370,2622 3375,2618 3380,2614 3390,2614 3398,2612 3404,2609 3410,2604 3415,2607 3418,2607 3420,2604 3421,2595 3425,2595 3445,2603 3450,2606 3456,2609 3462,2611 3469,2612 3475,2611 3480,2610 3481,2602 3483,2596 3487,2592 3491,2589 3493,2582 3493,2576 3487,2572 3481,2567 3474,2562 3472,2553 3480,2544 3488,2534 3494,2526 3498,2522 3499,2517 3499,2512 3495,2509 3492,2500 3489,2492 3491,2485 3495,2484 3503,2486 3508,2487 3512,2486 3514,2476 3515,2471 3518,2467 3523,2465 3526,2463 3527,2460 3529,2456 3530,2452 3531,2449 3532,2443 3533,2437 3534,2431 3536,2424 3539,2421 3542,2418 3545,2416 3548,2416 3552,2415 3556,2414 3561,2414 3565,2414 3570,2414 3574,2414 3578,2413 3579,2410 3581,2407 3582,2404 3581,2401 3580,2397 3579,2393 3579,2389 3579,2384 3580,2379 3582,2375 3585,2372 3596,2386 3599,2388 3605,2387 3613,2386 3617,2389 3618,2395 3616,2400 3622,2405 3627,2410 3632,2414 3639,2417 3645,2420 3649,2421 3653,2429 3662,2434 3668,2431 3674,2427 3677,2427 3683,2431 3689,2432 3697,2434 3701,2436 3712,2436 3716,2438 3718,2443 3720,2447 3725,2445 3730,2444 3736,2439 3740,2437 3743,2433 3747,2426 3746,2418 3749,2410 3755,2409 3762,2409 3766,2407 3773,2404 3781,2401 3791,2398 3799,2397 3808,2395 3816,2395 3829,2390 3836,2391 3844,2393 3848,2398 3853,2402 3856,2400 3874,2401 3878,2410 3882,2417 3889,2418 3900,2421 3906,2421 3912,2420 3912,2413 3912,2406 3910,2401 3914,2396 3916,2388 3913,2381 3913,2377 3916,2374 3926,2374 3933,2370 3939,2366 3948,2366 3953,2362 3956,2358 3960,2346 3966,2339 3972,2337 3979,2338 3983,2336 3989,2325 3994,2313 3996,2301 3996,2287 3993,2277 3995,2272 4000,2267 4001,2254 4003,2245 4006,2239 4009,2232 4012,2229 4022,2226 4025,2221 4027,2215 4029,2209 4032,2204 4036,2199 4043,2193 4050,2186 4058,2181 4067,2178 4076,2176 4085,2175 4094,2176 4097,2176 4103,2189 4105,2194 4111,2202 4118,2206 4127,2207 4132,2213 4132,2222 4129,2230 4123,2235 4125,2245 4131,2257 4134,2260 4140,2266 4142,2269 4138,2274 4139,2281 4143,2288 4143,2296 4143,2300 4154,2298 4166,2291 4173,2280 4174,2270 4174,2260 4175,2253 4177,2243 4177,2233 4181,2227 4186,2221 4194,2216 4202,2213 4208,2209 4207,2201 4203,2198 4196,2200 4191,2202 4186,2200 4181,2194 4177,2193 4171,2192 4166,2189 4164,2180 4160,2177 4159,2172 4153,2171 4150,2169 4150,2163 4150,2159 4147,2155 4138,2157 4136,2155 4132,2152 4128,2148 4125,2145 4113,2135 4104,2137 4100,2137 4084,2140 4080,2138 4076,2138 4075,2136 4072,2133 4068,2132 4064,2130 4064,2124 4054,2123 4051,2125 4046,2128 4042,2129 4041,2124 4041,2114 4036,2107 4031,2103 4027,2093 4022,2087 4015,2087 4012,2092 4009,2099 4004,2103 3997,2110 3989,2113 3984,2114 3977,2118 3973,2122 3968,2119 3966,2114 3959,2110 3954,2113 3951,2113 3946,2108 3943,2099 3941,2096 3940,2093 3941,2089 3943,2085 3946,2080 3948,2076 3949,2071 3947,2066 3944,2061 3938,2058 3935,2057 3931,2058 3928,2057 3924,2055 3918,2053 3913,2055 3902,2049 3898,2042 3895,2032 3885,2028 3881,2023 3874,2024 3867,2026 3859,2030 3850,2026 3849,2021 3852,2015 3843,2009 3840,2004 3840,2000 3846,1990 3847,1986 3848,1983 3850,1980 3852,1977 3854,1974 3856,1971 3859,1966 3861,1961 3863,1955 3855,1943 3854,1939 3858,1938 3864,1938 3868,1939 3874,1947 3882,1947 3885,1939 3877,1933 3872,1928 3876,1924 3876,1915 3870,1909 3862,1909 3856,1905 3852,1901 3858,1897 3872,1894 3880,1893 3892,1879 3897,1875 3912,1872 3919,1868 3925,1864 3932,1859 3938,1855 3940,1849 3949,1843 3953,1839 3958,1836 3964,1834 3971,1832 3974,1828 3982,1825 3987,1823 3991,1822 3992,1816 3989,1810 3985,1802 3983,1796 3983,1790 3987,1785 3987,1779 3984,1770 3981,1760 3979,1752 3979,1747 3971,1742 3967,1734 3971,1732 3978,1731 3988,1731 3996,1730 4008,1725 4011,1715 4001,1713 3991,1714 3986,1708 3988,1705 3990,1700 3989,1696 3989,1693 3987,1689 3986,1685 3983,1682 3981,1679 3979,1676 3977,1672 3974,1670 3972,1666 3970,1662 3968,1658 3967,1655 3979,1649 3993,1645 3993,1636 3983,1630 3975,1620 3980,1609 3987,1606 3983,1602 3974,1593 3960,1579 3961,1564 3955,1552 3970,1527 3987,1510 3995,1502 4008,1506 4025,1516 4045,1528 4061,1545 4072,1548 4083,1551 4087,1548 4092,1545 4121,1546 4127,1548 4144,1544 4160,1548 4166,1540 4180,1537 4187,1531 4194,1517 4196,1493 4192,1485 4195,1472 4194,1460 4207,1459 4218,1464 4229,1461 4245,1452 4261,1447 4260,1442 4259,1431 4245,1402 4245,1378 4225,1359 4210,1350 4201,1324 4197,1312 4170,1273 4161,1255 4159,1250 4142,1241 4149,1235 4163,1230 4176,1215 4184,1207 4186,1201 4200,1199 4204,1186 4209,1183 4210,1174 4212,1160 4208,1152 4201,1136 4202,1127 4198,1123 4195,1120 4198,1091 4202,1063 4195,1058 4192,1051 4191,1040 4195,1034 4202,1031 4210,1017 4210,1010 4224,1014 4234,1017 4261,1017 4294,1019 4328,1019 4354,1018 4386,1013 4419,1006 4454,1000 4496,994 4527,990 4559,996 4588,1010 4613,1042 4619,1078 4624,1108 4636,1148 4646,1175 4674,1206 4700,1214 4734,1225 4767,1230 4803,1233 4832,1234 4859,1242 4881,1268 4920,1287 4951,1286 4990,1278 5016,1269 5043,1264 5080,1260 5111,1256 5115,1254 " class="polyStyle" id="445303" style="fill:#f8c67d"/>
<path d="M5011,1561 L5048,1649 L5087,1707 L5091,1751 L5094,1758 L5119,1746 L5140,1727 L5139,1721 L5108,1688 L5119,1650 L5118,1639 L5080,1611 L5064,1593 L5058,1581 L5079,1576 L5139,1587 L5201,1606 L5223,1607 L5282,1595 L5341,1591 L5359,1596 L5417,1626 L5458,1643 L5546,1648 L5597,1655 L5606,1659 L5612,1668 L5616,1696 L5623,1712 L5642,1716 L5661,1706 L5733,1634 L5753,1620 L5770,1618 L5788,1623 L5800,1632 L5806,1659 L5812,1672 L5820,1677 L5829,1673 L5864,1639 L5883,1614 L5899,1576 L5928,1545 L5952,1509 L5986,1430 L6010,1406 L6041,1383 L6070,1369 L6088,1367 L6130,1370 L6161,1377 L6162,1378 L6159,1387 L6153,1391 L6147,1407 L6147,1419 L6144,1428 L6146,1442 L6151,1442 L6159,1458 L6157,1478 L6162,1479 L6164,1495 L6162,1505 L6164,1510 L6168,1513 L6166,1520 L6161,1526 L6156,1531 L6151,1541 L6153,1551 L6156,1555 L6153,1561 L6161,1568 L6179,1573 L6186,1584 L6188,1591 L6196,1593 L6202,1593 L6205,1591 L6212,1589 L6214,1598 L6208,1603 L6203,1616 L6200,1623 L6194,1628 L6191,1631 L6193,1637 L6190,1647 L6189,1652 L6180,1655 L6173,1669 L6170,1678 L6170,1686 L6172,1693 L6174,1700 L6168,1705 L6164,1708 L6165,1714 L6163,1717 L6157,1716 L6150,1716 L6148,1721 L6146,1731 L6146,1743 L6148,1748 L6151,1751 L6149,1754 L6144,1759 L6133,1761 L6125,1760 L6121,1763 L6122,1769 L6129,1768 L6132,1767 L6132,1771 L6128,1777 L6114,1784 L6108,1786 L6103,1788 L6101,1794 L6101,1800 L6105,1805 L6112,1805 L6118,1809 L6121,1810 L6125,1810 L6129,1811 L6132,1817 L6139,1821 L6143,1829 L6143,1837 L6143,1847 L6138,1854 L6143,1857 L6153,1860 L6161,1861 L6163,1869 L6163,1872 L6168,1878 L6160,1883 L6157,1887 L6157,1891 L6155,1899 L6155,1905 L6149,1916 L6145,1919 L6135,1918 L6125,1904 L6121,1899 L6118,1896 L6113,1899 L6111,1905 L6110,1909 L6104,1910 L6098,1907 L6093,1906 L6085,1908 L6082,1912 L6078,1918 L6079,1924 L6071,1922 L6069,1917 L6067,1913 L6063,1912 L6060,1909 L6059,1904 L6062,1899 L6059,1897 L6052,1897 L6047,1897 L6045,1892 L6042,1891 L6037,1889 L6032,1890 L6029,1888 L6024,1884 L6021,1881 L6016,1881 L6010,1881 L6006,1881 L6002,1883 L6000,1886 L5998,1890 L5996,1895 L5995,1900 L5993,1904 L5994,1907 L5997,1908 L6000,1909 L6003,1909 L6008,1909 L6012,1909 L6016,1910 L6019,1913 L6019,1916 L6021,1919 L6021,1924 L6020,1928 L6020,1932 L6022,1934 L6025,1934 L6027,1936 L6029,1937 L6031,1941 L6029,1945 L6031,1952 L6032,1960 L6031,1965 L6028,1966 L6024,1967 L6023,1987 L6022,2002 L6016,2003 L6013,2008 L6011,2012 L6006,2013 L6009,2019 L6015,2019 L6019,2017 L6022,2022 L6021,2026 L6017,2029 L6016,2034 L6019,2042 L6022,2047 L6022,2054 L6018,2058 L6015,2063 L6015,2069 L6011,2073 L6008,2076 L6001,2078 L6002,2083 L6005,2088 L6011,2092 L6021,2093 L6024,2098 L6029,2102 L6035,2102 L6047,2107 L6049,2104 L6053,2100 L6057,2098 L6066,2093 L6071,2086 L6074,2083 L6080,2082 L6088,2078 L6093,2072 L6098,2068 L6108,2067 L6117,2070 L6125,2075 L6128,2080 L6132,2083 L6139,2085 L6143,2084 L6153,2079 L6157,2075 L6166,2073 L6170,2070 L6176,2071 L6185,2069 L6188,2065 L6193,2063 L6199,2065 L6208,2063 L6213,2062 L6217,2063 L6218,2067 L6220,2072 L6222,2079 L6228,2082 L6235,2082 L6239,2079 L6243,2078 L6247,2080 L6253,2085 L6253,2093 L6253,2097 L6254,2103 L6253,2115 L6253,2124 L6252,2130 L6251,2141 L6247,2145 L6246,2155 L6244,2160 L6241,2164 L6234,2168 L6228,2173 L6224,2179 L6216,2182 L6214,2188 L6214,2197 L6214,2208 L6212,2214 L6214,2219 L6220,2224 L6223,2228 L6223,2233 L6221,2237 L6218,2241 L6214,2241 L6209,2245 L6203,2248 L6198,2264 L6197,2269 L6197,2274 L6200,2279 L6204,2284 L6209,2289 L6210,2296 L6208,2307 L6210,2315 L6218,2317 L6222,2319 L6225,2325 L6230,2325 L6236,2331 L6237,2338 L6245,2345 L6252,2355 L6257,2359 L6255,2365 L6253,2369 L6254,2373 L6258,2375 L6263,2376 L6270,2378 L6277,2382 L6278,2388 L6273,2393 L6273,2397 L6273,2402 L6276,2406 L6274,2411 L6270,2411 L6267,2417 L6268,2422 L6274,2429 L6277,2438 L6277,2457 L6276,2467 L6273,2469 L6270,2470 L6265,2473 L6261,2475 L6255,2479 L6250,2483 L6245,2485 L6239,2486 L6231,2490 L6222,2494 L6214,2497 L6210,2499 L6204,2506 L6199,2509 L6195,2509 L6192,2507 L6186,2503 L6182,2502 L6178,2506 L6176,2512 L6173,2518 L6170,2520 L6156,2519 L6149,2518 L6143,2517 L6138,2518 L6134,2518 L6131,2517 L6128,2515 L6122,2511 L6119,2508 L6119,2502 L6119,2499 L6119,2494 L6113,2493 L6109,2493 L6104,2494 L6099,2495 L6099,2498 L6100,2501 L6101,2505 L6100,2509 L6099,2513 L6096,2517 L6094,2520 L6091,2521 L6087,2521 L6080,2522 L6074,2522 L6070,2524 L6063,2524 L6057,2524 L6054,2521 L6052,2518 L6049,2515 L6046,2515 L6042,2516 L6039,2514 L6034,2515 L6028,2517 L6017,2521 L6010,2519 L6006,2515 L6007,2510 L6009,2506 L6012,2505 L6015,2501 L6015,2496 L6014,2492 L6013,2488 L6008,2480 L6001,2475 L5997,2470 L5990,2468 L5980,2465 L5970,2460 L5963,2455 L5960,2455 L5956,2455 L5953,2454 L5951,2451 L5947,2449 L5942,2450 L5937,2453 L5932,2451 L5931,2446 L5926,2446 L5921,2454 L5917,2455 L5917,2452 L5913,2449 L5907,2450 L5904,2452 L5903,2456 L5900,2462 L5897,2463 L5894,2463 L5890,2467 L5887,2470 L5883,2467 L5882,2460 L5880,2455 L5874,2452 L5869,2454 L5865,2458 L5860,2464 L5854,2463 L5851,2467 L5849,2472 L5847,2477 L5846,2480 L5841,2485 L5837,2489 L5832,2489 L5831,2492 L5835,2493 L5833,2496 L5832,2500 L5822,2500 L5819,2498 L5820,2494 L5820,2490 L5815,2489 L5805,2489 L5802,2484 L5801,2479 L5801,2475 L5796,2475 L5790,2477 L5786,2482 L5786,2487 L5786,2493 L5786,2499 L5787,2507 L5788,2514 L5790,2518 L5793,2522 L5795,2524 L5797,2523 L5798,2526 L5798,2530 L5799,2533 L5794,2531 L5791,2530 L5791,2534 L5790,2538 L5787,2539 L5783,2542 L5777,2547 L5771,2548 L5767,2550 L5763,2551 L5759,2554 L5753,2552 L5747,2553 L5739,2557 L5732,2559 L5729,2565 L5725,2564 L5718,2560 L5711,2555 L5708,2555 L5704,2558 L5703,2563 L5703,2570 L5702,2577 L5697,2579 L5692,2579 L5683,2579 L5675,2579 L5671,2584 L5668,2589 L5667,2595 L5667,2603 L5670,2613 L5667,2615 L5663,2620 L5656,2626 L5654,2631 L5652,2634 L5647,2634 L5642,2636 L5636,2637 L5632,2638 L5629,2638 L5625,2637 L5619,2636 L5615,2635 L5611,2633 L5607,2630 L5602,2627 L5598,2624 L5594,2621 L5591,2620 L5587,2621 L5584,2622 L5577,2627 L5574,2631 L5572,2634 L5570,2638 L5569,2642 L5563,2648 L5559,2653 L5555,2658 L5551,2662 L5547,2665 L5543,2669 L5536,2676 L5531,2682 L5526,2689 L5523,2696 L5522,2700 L5521,2704 L5521,2709 L5520,2712 L5515,2717 L5509,2721 L5504,2725 L5498,2727 L5491,2729 L5483,2729 L5475,2727 L5468,2727 L5457,2726 L5446,2725 L5426,2715 L5418,2717 L5409,2719 L5402,2715 L5392,2713 L5380,2712 L5368,2711 L5357,2712 L5348,2719 L5336,2721 L5331,2724 L5326,2728 L5323,2733 L5321,2739 L5318,2744 L5318,2749 L5318,2754 L5315,2760 L5314,2765 L5312,2769 L5310,2773 L5306,2777 L5287,2789 L5278,2795 L5257,2794 L5251,2796 L5229,2796 L5224,2800 L5215,2808 L5214,2820 L5212,2826 L5210,2833 L5208,2839 L5207,2846 L5204,2852 L5201,2858 L5198,2862 L5195,2867 L5190,2874 L5179,2895 L5171,2909 L5173,2917 L5180,2922 L5187,2936 L5191,2950 L5189,2962 L5180,2965 L5175,2971 L5175,2981 L5169,2986 L5159,2982 L5156,2966 L5154,2953 L5155,2941 L5156,2929 L5146,2924 L5142,2925 L5139,2926 L5136,2927 L5133,2930 L5132,2933 L5129,2937 L5125,2944 L5122,2949 L5118,2954 L5115,2958 L5113,2962 L5108,2966 L5105,2971 L5102,2975 L5100,2979 L5097,2980 L5093,2982 L5087,2983 L5084,2983 L5080,2983 L5075,2984 L5072,2984 L5068,2984 L5064,2988 L5063,2991 L5062,2995 L5062,3001 L5063,3006 L5064,3011 L5065,3015 L5065,3022 L5064,3029 L5064,3037 L5064,3043 L5063,3048 L5063,3052 L5063,3056 L5063,3059 L5062,3063 L5062,3067 L5059,3072 L5054,3077 L5051,3079 L5047,3083 L5043,3084 L5036,3089 L5029,3094 L5031,3103 L5042,3110 L5051,3117 L5046,3126 L5040,3133 L5040,3141 L5049,3148 L5059,3146 L5068,3152 L5069,3161 L5063,3170 L5050,3175 L5040,3181 L5031,3185 L5023,3192 L5015,3196 L5011,3200 L5011,3211 L5001,3217 L4995,3224 L4996,3231 L5003,3234 L5005,3244 L4995,3248 L4986,3248 L4972,3251 L4963,3255 L4955,3257 L4953,3262 L4958,3271 L4956,3288 L4953,3301 L4947,3312 L4951,3320 L4960,3318 L4963,3319 L4967,3321 L4974,3322 L4978,3327 L4974,3331 L4975,3335 L4973,3341 L4971,3348 L4968,3353 L4970,3363 L4964,3368 L4954,3370 L4949,3373 L4945,3379 L4943,3384 L4942,3389 L4942,3392 L4929,3387 L4918,3383 L4907,3383 L4902,3386 L4903,3392 L4898,3397 L4891,3403 L4887,3412 L4883,3421 L4880,3427 L4876,3427 L4873,3427 L4867,3425 L4859,3423 L4853,3423 L4847,3429 L4842,3426 L4842,3411 L4841,3401 L4842,3395 L4842,3385 L4846,3379 L4842,3375 L4835,3373 L4827,3371 L4817,3367 L4814,3368 L4808,3375 L4805,3380 L4799,3379 L4788,3378 L4780,3378 L4777,3382 L4770,3392 L4767,3396 L4763,3396 L4762,3396 L4796,3282 L4825,3238 L4858,3198 L4865,3181 L4868,3161 L4861,3138 L4854,3134 L4827,3126 L4723,3114 L4716,3111 L4715,3104 L4733,3071 L4748,3026 L4753,2986 L4755,2894 L4764,2786 L4778,2741 L4791,2714 L4819,2670 L4820,2652 L4799,2580 L4795,2543 L4807,2523 L4842,2505 L4851,2492 L4864,2423 L4879,2383 L4896,2358 L4938,2314 L4961,2275 L4964,2263 L4959,2266 L4949,2269 L4943,2277 L4939,2284 L4928,2290 L4918,2294 L4916,2290 L4911,2281 L4902,2276 L4902,2269 L4896,2258 L4894,2234 L4890,2221 L4884,2213 L4877,2214 L4872,2209 L4865,2211 L4854,2214 L4849,2219 L4844,2224 L4836,2228 L4829,2226 L4819,2226 L4815,2232 L4812,2241 L4803,2246 L4792,2246 L4783,2251 L4772,2252 L4762,2257 L4752,2266 L4737,2272 L4726,2282 L4708,2290 L4691,2300 L4671,2307 L4662,2302 L4653,2302 L4640,2299 L4629,2305 L4618,2302 L4605,2300 L4592,2303 L4579,2297 L4570,2285 L4569,2275 L4563,2269 L4551,2260 L4544,2265 L4532,2272 L4521,2269 L4518,2260 L4512,2251 L4512,2240 L4517,2233 L4524,2225 L4528,2217 L4536,2214 L4542,2212 L4549,2210 L4559,2200 L4570,2193 L4574,2181 L4577,2172 L4581,2164 L4591,2162 L4596,2158 L4601,2154 L4614,2148 L4617,2139 L4614,2127 L4612,2114 L4613,2105 L4617,2094 L4611,2080 L4615,2068 L4622,2054 L4626,2046 L4638,2045 L4648,2045 L4653,2041 L4647,2031 L4646,2021 L4646,2011 L4650,2004 L4651,1994 L4646,1983 L4637,1976 L4627,1976 L4618,1971 L4606,1955 L4601,1948 L4593,1937 L4592,1930 L4595,1917 L4601,1909 L4608,1905 L4613,1898 L4618,1886 L4626,1878 L4630,1855 L4627,1831 L4629,1822 L4631,1813 L4630,1808 L4636,1803 L4630,1794 L4629,1785 L4623,1780 L4616,1769 L4608,1760 L4606,1751 L4601,1735 L4602,1730 L4618,1727 L4628,1722 L4630,1713 L4640,1700 L4650,1697 L4660,1696 L4667,1690 L4674,1686 L4683,1689 L4686,1693 L4691,1697 L4707,1697 L4723,1696 L4734,1690 L4746,1689 L4754,1682 L4763,1679 L4779,1679 L4783,1675 L4784,1668 L4785,1662 L4784,1655 L4793,1652 L4796,1649 L4794,1644 L4790,1645 L4791,1636 L4794,1632 L4799,1630 L4806,1626 L4811,1626 L4817,1617 L4830,1615 L4834,1617 L4845,1619 L4850,1594 L4860,1578 L4864,1573 L4868,1569 L4870,1557 L4870,1546 L4868,1541 L4869,1533 L4874,1534 L4879,1535 L4883,1532 L4891,1520 L4895,1513 L4900,1514 L4912,1523 L4914,1527 L4917,1531 L4916,1543 L4926,1551 L4934,1557 L4941,1548 L4944,1538 L4956,1530 L4968,1525 L4957,1535 L4954,1551 L4952,1562 L4956,1565 L4963,1564 L4968,1555 L4970,1544 L4971,1549 L4973,1557 L4971,1563 L4971,1570 L4973,1577 L4975,1584 L4980,1583 L4981,1577 L4987,1574 L4995,1571 L5001,1568 L5006,1560 L5006,1569 L5002,1575 L5005,1576 L5008,1575 L5009,1564 L5011,1561 L5011,1561z M4964,2263 L4964,2263 L4964,2263z " class="polyStyle" id="445302" style="fill:#ee8b94"/>
<path d="" class="polyStyle" id="410202" style="fill:#d4ecb2"/>
<path d="" class="polyStyle" id="440800" style="fill:#f6f67b"/>
<path d="" class="polyStyle" id="440900" style="fill:#ee8b94"/>
<path d="" class="polyStyle" id="340800" style="fill:#ee8b94"/>
<path d="" class="polyStyle" id="460200" style="fill:#f6f67b"/>
<path d="" class="polyStyle" id="460000" style="fill:#ee8b94"/>
<path d="" class="polyStyle" id="450500" style="fill:#ee8b94"/>
<path d="" class="polyStyle" id="450600" style="fill:#ee8b94"/>
<path d="" class="polyStyle" id="440400" style="fill:#f6f67b"/>
<path d="" class="polyStyle" id="441700" style="fill:#f6f67b"/>
<path d="" class="polyStyle" id="441500" style="fill:#f6f67b"/>
<path d="" class="polyStyle" id="350600" style="fill:#ee8b94"/>
<path d="" class="polyStyle" id="710000" style="fill:#f6f67b"/>
<path d="" class="polyStyle" id="510400" style="fill:#f6f67b"/>
<path d="" class="polyStyle" id="522600" style="fill:#fbe6ef"/>
<path d="" class="polyStyle" id="520500" style="fill:#ee8b94"/>
<path d="" class="polyStyle" id="431200" style="fill:#f6f67b"/>
<path d="" class="polyStyle" id="430600" style="fill:#f6f67b"/>
<path d="" class="polyStyle" id="511400" style="fill:#d4ecb2"/>
<path d="" class="polyStyle" id="421000" style="fill:#ee8b94"/>
<path d="" class="polyStyle" id="341700" style="fill:#f6f67b"/>
<path d="" class="polyStyle" id="420500" style="fill:#f6f67b"/>
<path d="" class="polyStyle" id="511300" style="fill:#f6f67b"/>
<path d="" class="polyStyle" id="420900" style="fill:#f6f67b"/>
<path d="" class="polyStyle" id="511700" style="fill:#ee8b94"/>
<path d="" class="polyStyle" id="420600" style="fill:#d4ecb2"/>
<path d="" class="polyStyle" id="411500" style="fill:#fbe6ef"/>
<path d="" class="polyStyle" id="510800" style="fill:#ee8b94"/>
<path d="" class="polyStyle" id="420300" style="fill:#fbe6ef"/>
<path d="" class="polyStyle" id="611000" style="fill:#ee8b94"/>
<path d="" class="polyStyle" id="620800" style="fill:#fbe6ef"/>
<path d="" class="polyStyle" id="370200" style="fill:#ee8b94"/>
<path d="" class="polyStyle" id="371000" style="fill:#f6f67b"/>
<path d="" class="polyStyle" id="370600" style="fill:#fbe6ef"/>
<path d="" class="polyStyle" id="120000" style="fill:#f6f67b"/>
<path d="" class="polyStyle" id="130200" style="fill:#ee8b94"/>
<path d="" class="polyStyle" id="130300" style="fill:#f6f67b"/>
<path d="" class="polyStyle" id="652900" style="fill:#fbe6ef"/>
<path d="" class="polyStyle" id="150500" style="fill:#d4ecb2"/>
<path d="" class="polyStyle" id="" style="fill:#d4ecb2"/>
<path d="" class="polyStyle" id="350500" style="fill:#fbe6ef"/>
<path d="" class="polyStyle" id="440400" style="fill:#f6f67b"/>
<path d="" class="polyStyle" id="421100" style="fill:#d4ecb2"/>
<path d="" class="polyStyle" id="420100" style="fill:#fbe6ef"/>
<path d="" class="polyStyle" id="532500" style="fill:#fbe6ef"/>
<path d="" class="polyStyle" id="654200" style="fill:#fbe6ef"/>
<path d="" class="polyStyle" id="210700" style="fill:#d4ecb2"/>
<path d="" class="polyStyle" id="522300" style="fill:#fbe6ef"/>
<path d="" class="polyStyle" id="" style="fill:#ee8b94"/>
<path d="" class="polyStyle" id="440400" style="fill:#f6f67b"/>
<path d="" class="polyStyle" id="620000" style="fill:#f6f67b"/>
<path d="" class="polyStyle" id="430000" style="fill:#fbe6ef"/>
<path d="" class="polyStyle" id="420000" style="fill:#ee8b94"/>
<path d="" class="polyStyle" id="410000" style="fill:#f6f67b"/>
<path d="" class="polyStyle" id="350000" style="fill:#fbe6ef"/>
<path d="" class="polyStyle" id="520000" style="fill:#f6f67b"/>
<path d="" class="polyStyle" id="" style="fill:#ee8b94"/>
</svg>
