<?xml version="1.0" encoding="UTF-8"?>
<!DOCTYPE svg PUBLIC "-//W3C//DTD SVG 1.1 Tiny//EN" "http://www.w3.org/Graphics/SVG/1.1/DTD/svg11-tiny.dtd">
<svg version="1.1" xmlns="http://www.w3.org/2000/svg" xmlns:xlink="http://www.w3.org/1999/xlink" width="100%" height="100%" viewBox="0,0,6706,8987">
<title>SVG</title>
<desc>Poligon Test</desc>
<style id="style_css_sheet" type="text/css">
.polyStyle{fill: #cccccc;stroke-width:0;fill-rule:evenodd;}
</style>
<circle cx="3365" cy="7404" r="200" stroke="black" stroke-width="1" fill="red" id="450481" name="岑溪市"/>
<circle cx="984" cy="1029" r="200" stroke="black" stroke-width="1" fill="red" id="450423" name="蒙山县"/>
<circle cx="6086" cy="2791" r="200" stroke="black" stroke-width="1" fill="red" id="450421" name="苍梧县"/>
<circle cx="2930" cy="5160" r="200" stroke="black" stroke-width="1" fill="red" id="450422" name="藤县"/>
<circle cx="4967" cy="4621" r="200" stroke="black" stroke-width="1" fill="red" id="450403"position="4" name="万秀区"/>
<circle cx="4755" cy="4619" r="200" stroke="black" stroke-width="1" fill="red" id="450405"position="4441" name="长洲区"/>
<circle cx="4570" cy="4927" r="200" stroke="black" stroke-width="1" fill="red" id="450406"position="334" name="龙圩区"/>
<path d="" class="polyStyle" id="" style="fill:#ee8b94"/>
<path d="" class="polyStyle" id="623022" style="fill:#fbe6ef"/>
<path d="" class="polyStyle" id="211421" style="fill:#f6f67b"/>
<path d="" class="polyStyle" id="532524" style="fill:#ee8b94"/>
<path d="" class="polyStyle" id="440825" style="fill:#f6f67b"/>
<path d="" class="polyStyle" id="441721" style="fill:#f6f67b"/>
<path d="" class="polyStyle" id="450521" style="fill:#f6f67b"/>
<path d="" class="polyStyle" id="450123" style="fill:#fbe6ef"/>
<polygon points="829,1778 835,1781 837,1785 843,1798 845,1810 848,1830 850,1839 851,1842 856,1844 869,1846 878,1849 885,1855 892,1856 905,1856 925,1852 933,1847 942,1843 953,1846 967,1855 975,1856 984,1851 996,1843 1008,1842 1019,1843 1023,1847 1027,1856 1027,1870 1026,1876 1022,1894 1019,1910 1018,1923 1022,1936 1027,1948 1033,1953 1041,1956 1058,1960 1068,1962 1075,1969 1078,1978 1080,1989 1081,1999 1083,2004 1083,2008 1079,2013 1077,2020 1082,2027 1092,2034 1101,2040 1107,2047 1111,2054 1112,2061 1115,2066 1119,2074 1123,2080 1126,2091 1131,2101 1137,2113 1145,2123 1154,2139 1165,2155 1170,2166 1174,2172 1182,2178 1187,2181 1187,2186 1189,2199 1185,2209 1182,2214 1180,2222 1184,2229 1194,2238 1197,2243 1199,2247 1195,2254 1190,2258 1187,2262 1187,2266 1188,2270 1192,2276 1195,2283 1201,2292 1213,2297 1217,2300 1222,2308 1220,2312 1219,2318 1222,2322 1229,2322 1234,2324 1234,2327 1239,2329 1243,2326 1246,2326 1250,2326 1248,2333 1252,2339 1257,2347 1263,2349 1263,2353 1260,2360 1261,2366 1253,2369 1253,2374 1256,2378 1259,2382 1260,2385 1263,2392 1267,2402 1267,2408 1267,2412 1270,2412 1274,2412 1279,2411 1282,2413 1284,2419 1289,2423 1303,2433 1309,2439 1313,2443 1314,2449 1314,2457 1307,2471 1301,2480 1295,2488 1291,2506 1287,2513 1284,2516 1281,2519 1280,2523 1282,2528 1286,2535 1281,2546 1277,2554 1277,2563 1286,2573 1295,2578 1304,2586 1313,2594 1319,2600 1329,2603 1335,2606 1337,2609 1339,2612 1341,2619 1344,2626 1349,2633 1355,2636 1365,2637 1376,2635 1387,2634 1395,2640 1400,2648 1406,2652 1411,2659 1413,2665 1415,2675 1418,2683 1419,2687 1420,2696 1425,2699 1429,2698 1432,2700 1435,2705 1438,2710 1439,2718 1443,2722 1451,2726 1471,2726 1500,2723 1507,2724 1513,2728 1518,2727 1522,2731 1526,2737 1530,2742 1537,2747 1539,2741 1543,2734 1550,2726 1555,2721 1564,2716 1570,2713 1578,2710 1583,2706 1584,2703 1586,2699 1590,2690 1591,2685 1591,2678 1595,2675 1600,2677 1604,2675 1608,2670 1611,2657 1611,2649 1613,2638 1620,2628 1625,2625 1630,2626 1632,2631 1632,2639 1636,2645 1643,2647 1648,2641 1645,2634 1643,2628 1642,2623 1643,2618 1650,2619 1653,2627 1657,2632 1665,2631 1669,2633 1678,2635 1688,2632 1693,2632 1702,2633 1707,2635 1721,2632 1729,2628 1735,2624 1740,2620 1744,2620 1756,2622 1761,2627 1767,2631 1772,2627 1773,2620 1782,2609 1786,2603 1792,2598 1803,2595 1816,2595 1842,2595 1848,2592 1854,2592 1859,2592 1865,2592 1873,2596 1894,2599 1912,2604 1924,2609 1929,2612 1935,2611 1943,2615 1951,2618 1956,2625 1962,2632 1970,2631 1980,2630 1984,2632 1988,2632 1991,2624 1994,2620 1998,2618 2001,2615 2000,2607 2000,2600 1996,2588 1996,2584 2002,2580 2010,2578 2015,2571 2018,2567 2025,2558 2029,2557 2040,2552 2047,2548 2060,2546 2068,2542 2075,2539 2080,2533 2083,2521 2088,2505 2090,2499 2104,2483 2106,2479 2108,2473 2107,2468 2104,2465 2101,2462 2102,2450 2104,2438 2108,2428 2124,2408 2131,2403 2132,2399 2129,2392 2128,2386 2136,2382 2146,2378 2155,2370 2166,2368 2170,2364 2177,2358 2179,2350 2178,2345 2181,2340 2187,2337 2200,2331 2210,2318 2215,2306 2219,2302 2224,2302 2227,2298 2229,2292 2232,2290 2242,2287 2252,2285 2263,2283 2270,2283 2279,2287 2295,2295 2303,2299 2307,2302 2312,2306 2313,2311 2312,2315 2310,2320 2315,2326 2319,2327 2319,2334 2324,2340 2330,2343 2334,2350 2336,2359 2339,2364 2350,2367 2360,2374 2371,2380 2381,2392 2397,2402 2405,2409 2416,2421 2428,2426 2441,2437 2444,2442 2445,2448 2444,2454 2440,2457 2440,2461 2445,2463 2451,2464 2457,2467 2469,2472 2477,2474 2479,2479 2480,2484 2480,2488 2478,2494 2481,2499 2487,2499 2494,2501 2501,2505 2505,2509 2511,2512 2516,2514 2518,2518 2519,2524 2522,2528 2528,2533 2534,2541 2539,2547 2543,2550 2548,2550 2553,2547 2560,2546 2565,2546 2567,2549 2568,2554 2574,2559 2584,2562 2588,2563 2595,2561 2599,2560 2605,2561 2614,2562 2617,2562 2629,2558 2635,2556 2640,2557 2647,2555 2652,2555 2656,2555 2659,2556 2663,2560 2667,2563 2666,2567 2663,2571 2659,2574 2663,2579 2664,2586 2664,2595 2664,2598 2665,2602 2670,2605 2673,2612 2676,2613 2681,2614 2683,2617 2686,2618 2691,2619 2694,2625 2696,2630 2705,2633 2712,2641 2714,2656 2717,2662 2718,2666 2722,2671 2729,2676 2731,2680 2736,2690 2737,2699 2736,2708 2733,2713 2729,2716 2717,2725 2706,2733 2698,2745 2691,2756 2683,2768 2674,2778 2665,2785 2657,2792 2651,2799 2651,2806 2650,2812 2650,2815 2649,2819 2643,2819 2639,2816 2632,2812 2625,2809 2622,2809 2612,2816 2604,2822 2583,2831 2563,2840 2557,2842 2557,2846 2557,2850 2554,2852 2552,2856 2556,2860 2568,2867 2581,2873 2588,2879 2592,2884 2593,2889 2595,2892 2600,2890 2605,2888 2611,2886 2620,2883 2628,2888 2631,2894 2632,2901 2626,2909 2622,2918 2619,2925 2616,2930 2615,2934 2613,2940 2614,2944 2615,2947 2620,2947 2625,2948 2632,2954 2637,2958 2640,2963 2644,2966 2644,2970 2643,2974 2642,2978 2643,2984 2646,2989 2649,2992 2653,2994 2664,3001 2676,3000 2690,2995 2700,2994 2710,2990 2716,2982 2722,2974 2724,2970 2728,2968 2732,2969 2736,2971 2739,2968 2742,2966 2748,2966 2756,2966 2760,2964 2770,2960 2775,2957 2789,2950 2797,2953 2803,2957 2814,2959 2824,2963 2830,2965 2834,2967 2834,2971 2833,2977 2832,2982 2832,2985 2838,2995 2843,3010 2840,3024 2839,3040 2834,3059 2836,3066 2835,3071 2839,3075 2845,3079 2847,3085 2850,3090 2850,3095 2847,3100 2839,3100 2833,3104 2830,3108 2826,3109 2826,3112 2824,3115 2825,3119 2826,3123 2826,3126 2826,3132 2825,3137 2822,3140 2815,3142 2811,3148 2806,3151 2801,3151 2796,3151 2791,3152 2786,3157 2780,3159 2769,3165 2763,3176 2754,3192 2751,3206 2750,3210 2757,3214 2763,3216 2767,3218 2768,3222 2771,3228 2773,3233 2777,3236 2782,3239 2789,3242 2793,3243 2799,3244 2802,3243 2807,3246 2808,3250 2809,3254 2812,3258 2815,3259 2821,3261 2831,3270 2836,3277 2842,3282 2849,3283 2858,3284 2861,3285 2862,3289 2865,3291 2870,3293 2870,3298 2869,3303 2869,3308 2869,3311 2867,3314 2867,3318 2869,3326 2870,3333 2869,3339 2868,3342 2870,3348 2875,3351 2876,3358 2871,3361 2865,3363 2861,3365 2859,3371 2850,3374 2843,3382 2839,3390 2841,3398 2845,3406 2844,3413 2842,3419 2838,3425 2834,3430 2831,3437 2830,3440 2830,3443 2836,3447 2838,3458 2838,3474 2837,3488 2833,3498 2832,3506 2839,3516 2848,3525 2853,3536 2857,3545 2863,3551 2869,3556 2871,3562 2872,3567 2871,3573 2871,3582 2876,3590 2887,3597 2898,3604 2908,3609 2915,3609 2922,3607 2927,3603 2934,3601 2942,3601 2951,3609 2957,3624 2964,3639 2968,3647 2974,3654 2980,3657 2984,3663 2984,3672 2982,3681 2983,3694 2986,3706 2995,3718 3004,3723 3011,3724 3021,3725 3024,3726 3028,3723 3030,3713 3036,3706 3041,3702 3044,3699 3053,3695 3067,3692 3076,3688 3083,3682 3088,3678 3100,3678 3111,3680 3122,3685 3131,3688 3134,3695 3134,3706 3133,3716 3134,3725 3135,3733 3132,3740 3130,3750 3132,3756 3135,3764 3140,3767 3135,3769 3129,3774 3126,3779 3122,3785 3121,3792 3117,3797 3108,3799 3100,3806 3085,3817 3071,3827 3060,3837 3056,3846 3050,3856 3037,3868 3024,3877 3009,3885 3006,3890 3001,3893 2995,3894 2991,3895 2988,3898 2986,3906 2983,3912 2980,3917 2973,3918 2964,3920 2958,3924 2956,3928 2950,3932 2948,3938 2945,3946 2942,3949 2935,3952 2913,3952 2907,3950 2901,3947 2893,3946 2889,3947 2881,3943 2871,3938 2866,3938 2863,3937 2861,3940 2860,3944 2857,3946 2853,3947 2850,3950 2848,3954 2845,3958 2844,3964 2840,3972 2839,3978 2834,3986 2831,3986 2825,3990 2821,3995 2813,3998 2810,3999 2803,4002 2799,4011 2797,4020 2794,4026 2786,4038 2782,4040 2779,4046 2777,4051 2775,4058 2777,4068 2780,4078 2781,4087 2781,4097 2779,4105 2775,4111 2775,4122 2773,4128 2761,4129 2755,4130 2750,4130 2747,4130 2740,4136 2732,4146 2731,4151 2728,4158 2722,4161 2713,4163 2708,4168 2707,4173 2708,4178 2709,4183 2718,4186 2722,4189 2728,4195 2733,4206 2735,4210 2736,4215 2741,4217 2750,4222 2753,4224 2760,4230 2768,4240 2773,4248 2775,4254 2771,4262 2766,4264 2758,4265 2753,4266 2748,4269 2745,4272 2739,4276 2736,4276 2732,4278 2729,4282 2725,4291 2722,4301 2720,4306 2719,4312 2719,4316 2713,4319 2705,4321 2694,4333 2684,4341 2672,4347 2668,4349 2664,4348 2656,4349 2653,4354 2648,4357 2646,4357 2639,4360 2636,4363 2637,4368 2637,4371 2637,4378 2638,4384 2638,4388 2640,4392 2643,4395 2643,4399 2646,4406 2654,4416 2661,4418 2667,4417 2671,4417 2675,4417 2676,4421 2677,4425 2679,4431 2684,4432 2691,4434 2698,4436 2707,4432 2710,4430 2713,4430 2718,4437 2720,4445 2722,4452 2724,4463 2726,4466 2725,4469 2726,4473 2731,4476 2735,4481 2740,4484 2753,4488 2758,4494 2758,4497 2758,4502 2761,4508 2763,4511 2762,4518 2762,4522 2763,4525 2767,4524 2772,4522 2775,4522 2785,4524 2792,4526 2796,4528 2798,4535 2801,4544 2802,4552 2808,4555 2833,4567 2843,4577 2852,4584 2853,4590 2850,4595 2841,4598 2836,4599 2829,4605 2826,4609 2822,4619 2817,4626 2810,4628 2797,4630 2792,4630 2790,4633 2790,4639 2789,4646 2795,4650 2802,4653 2811,4657 2815,4657 2818,4657 2817,4661 2814,4666 2812,4670 2815,4674 2822,4675 2825,4676 2826,4680 2826,4685 2831,4688 2834,4692 2837,4694 2840,4692 2843,4690 2848,4684 2851,4677 2856,4674 2860,4671 2864,4674 2870,4674 2874,4673 2881,4678 2890,4683 2896,4685 2901,4685 2904,4685 2905,4681 2904,4676 2902,4670 2901,4664 2898,4660 2899,4655 2902,4647 2905,4642 2912,4637 2919,4634 2925,4628 2925,4621 2921,4613 2924,4607 2930,4596 2936,4586 2941,4578 2940,4567 2941,4556 2943,4545 2945,4539 2944,4530 2943,4526 2943,4521 2947,4515 2952,4508 2953,4499 2953,4491 2962,4475 2963,4471 2970,4468 2973,4466 2979,4463 2985,4458 2988,4454 2989,4448 2990,4441 2996,4436 3002,4432 3004,4429 3003,4424 3001,4420 3004,4416 3010,4409 3012,4405 3013,4401 3021,4399 3023,4394 3026,4392 3032,4391 3033,4395 3031,4399 3035,4400 3042,4398 3048,4398 3056,4401 3061,4401 3067,4401 3069,4407 3070,4415 3070,4420 3069,4428 3068,4434 3068,4437 3070,4443 3074,4445 3076,4448 3080,4452 3079,4456 3077,4461 3074,4468 3075,4478 3075,4492 3070,4499 3061,4503 3053,4504 3046,4506 3043,4510 3039,4516 3037,4523 3033,4526 3028,4530 3026,4535 3025,4540 3017,4542 3012,4546 3012,4554 3012,4566 3012,4576 3012,4582 3009,4587 3008,4590 3012,4591 3021,4594 3024,4599 3026,4603 3030,4605 3036,4601 3040,4596 3052,4596 3057,4593 3062,4591 3067,4590 3072,4590 3074,4592 3074,4594 3079,4596 3089,4600 3100,4604 3111,4612 3115,4616 3119,4616 3124,4618 3127,4620 3129,4627 3135,4634 3137,4644 3139,4648 3141,4654 3146,4659 3152,4662 3155,4667 3155,4674 3154,4680 3155,4687 3159,4694 3152,4707 3146,4720 3148,4726 3151,4730 3151,4737 3148,4739 3146,4743 3144,4747 3144,4751 3149,4754 3153,4755 3157,4761 3160,4772 3167,4780 3173,4783 3178,4784 3181,4790 3187,4790 3192,4789 3199,4789 3203,4792 3208,4799 3210,4807 3210,4810 3214,4816 3225,4828 3228,4837 3233,4843 3240,4845 3246,4853 3253,4855 3264,4859 3273,4864 3277,4867 3281,4868 3295,4864 3311,4861 3321,4859 3332,4860 3345,4858 3354,4857 3366,4859 3375,4863 3388,4868 3397,4870 3408,4872 3425,4879 3443,4881 3488,4875 3540,4866 3563,4858 3576,4846 3595,4837 3628,4802 3653,4791 3669,4784 3700,4782 3733,4792 3764,4801 3774,4804 3784,4804 3790,4804 3809,4794 3821,4785 3832,4781 3836,4780 3845,4774 3868,4771 3892,4776 3907,4778 3946,4795 3950,4798 3973,4812 3985,4819 4102,4867 4141,4886 4149,4890 4172,4901 4208,4915 4223,4922 4249,4929 4252,4942 4248,4949 4250,4956 4252,4959 4259,4968 4256,4982 4257,4988 4260,5002 4272,5014 4291,5025 4295,5035 4289,5036 4281,5043 4279,5047 4278,5076 4274,5085 4269,5093 4268,5098 4281,5113 4299,5112 4306,5117 4304,5126 4313,5135 4326,5131 4338,5130 4349,5144 4331,5150 4334,5167 4337,5175 4348,5182 4347,5213 4336,5249 4323,5263 4305,5251 4287,5249 4259,5248 4243,5243 4228,5240 4211,5235 4208,5227 4198,5221 4175,5227 4158,5239 4134,5244 4115,5258 4096,5285 4094,5297 4086,5323 4090,5345 4092,5369 4099,5381 4097,5389 4092,5409 4097,5416 4110,5422 4117,5433 4123,5443 4130,5474 4136,5488 4113,5546 4111,5553 4119,5595 4117,5605 4118,5630 4125,5654 4125,5663 4145,5670 4151,5681 4159,5704 4152,5726 4128,5726 4128,5740 4115,5759 4113,5773 4126,5774 4153,5821 4161,5831 4163,5834 4184,5848 4178,5855 4158,5850 4153,5857 4127,5869 4128,5883 4115,5894 4101,5908 4098,5919 4098,5928 4103,5951 4098,5957 4083,5961 4080,5967 4086,5984 4095,6010 4097,6025 4098,6034 4094,6043 4077,6050 4064,6052 4060,6058 4057,6063 4054,6081 4042,6075 4031,6067 4022,6069 4008,6096 4001,6108 3997,6120 4003,6151 4008,6172 4003,6195 3985,6219 3972,6249 3969,6256 3958,6257 3943,6257 3921,6262 3916,6263 3899,6271 3870,6273 3854,6269 3829,6264 3816,6261 3807,6255 3795,6254 3784,6254 3770,6254 3767,6254 3751,6258 3730,6256 3718,6246 3712,6227 3726,6212 3715,6206 3701,6211 3694,6199 3684,6186 3676,6174 3668,6174 3664,6172 3650,6171 3640,6174 3633,6183 3628,6189 3601,6220 3594,6236 3580,6246 3539,6263 3525,6270 3498,6270 3470,6271 3464,6272 3449,6273 3423,6284 3405,6295 3397,6303 3391,6302 3386,6297 3377,6292 3372,6291 3371,6288 3370,6285 3364,6278 3361,6277 3356,6276 3351,6277 3350,6281 3345,6285 3342,6285 3335,6285 3325,6285 3320,6283 3314,6280 3304,6280 3295,6278 3288,6272 3282,6271 3277,6271 3272,6268 3268,6264 3264,6260 3261,6256 3258,6253 3250,6248 3245,6242 3243,6232 3241,6228 3234,6224 3230,6223 3224,6220 3222,6214 3222,6211 3225,6208 3226,6204 3223,6200 3217,6195 3207,6190 3197,6186 3191,6181 3187,6177 3189,6172 3194,6169 3198,6168 3206,6161 3213,6157 3214,6153 3217,6150 3222,6146 3226,6143 3226,6139 3220,6136 3216,6131 3215,6127 3217,6120 3217,6117 3215,6103 3212,6105 3205,6107 3202,6104 3202,6095 3208,6090 3210,6086 3212,6081 3208,6075 3205,6069 3205,6065 3206,6060 3206,6053 3204,6045 3202,6040 3205,6037 3207,6034 3212,6033 3213,6027 3212,6022 3208,6012 3208,6008 3205,6006 3197,6007 3192,6007 3182,6006 3172,6009 3167,6016 3167,6019 3160,6020 3155,6018 3151,6016 3146,6016 3142,6014 3137,6013 3134,6014 3128,6011 3122,6006 3117,6002 3109,5999 3096,5994 3089,5993 3089,5999 3087,6003 3081,6004 3077,6004 3071,6004 3066,5999 3064,5994 3060,5993 3050,5993 3035,5993 3024,5993 3016,6001 3008,6006 2996,6009 2985,6010 2971,6011 2964,6013 2964,6020 2968,6020 2976,6019 2987,6019 2991,6022 2993,6026 2998,6028 3007,6033 3009,6036 3006,6040 3000,6040 2999,6044 2994,6050 2987,6058 2976,6065 2966,6067 2954,6071 2947,6076 2943,6076 2940,6076 2934,6078 2932,6081 2930,6085 2923,6090 2914,6091 2904,6090 2898,6090 2892,6089 2883,6083 2880,6078 2868,6073 2861,6066 2856,6062 2853,6064 2842,6071 2836,6072 2829,6074 2827,6080 2827,6083 2826,6088 2823,6092 2818,6094 2811,6097 2806,6102 2805,6105 2804,6109 2798,6112 2790,6112 2784,6112 2774,6109 2758,6102 2754,6100 2744,6093 2739,6092 2733,6093 2726,6096 2709,6096 2704,6098 2702,6107 2707,6117 2707,6124 2707,6135 2705,6145 2701,6148 2698,6148 2691,6148 2684,6151 2678,6156 2671,6161 2670,6167 2668,6175 2662,6183 2656,6187 2650,6192 2644,6194 2640,6196 2638,6202 2638,6205 2637,6209 2632,6213 2623,6220 2620,6227 2622,6234 2628,6240 2635,6246 2639,6253 2643,6260 2634,6269 2632,6274 2629,6279 2626,6282 2619,6285 2615,6292 2615,6299 2616,6304 2620,6307 2620,6310 2622,6316 2627,6320 2634,6322 2637,6323 2646,6323 2656,6326 2660,6329 2662,6333 2662,6340 2664,6346 2667,6353 2672,6361 2676,6368 2678,6372 2680,6378 2680,6388 2677,6393 2675,6396 2679,6399 2681,6402 2683,6409 2683,6416 2691,6423 2696,6428 2698,6432 2700,6441 2701,6449 2697,6454 2693,6461 2692,6468 2691,6474 2694,6479 2696,6487 2695,6494 2693,6500 2689,6504 2685,6509 2677,6504 2671,6498 2665,6492 2653,6482 2644,6474 2637,6468 2629,6469 2625,6473 2621,6476 2613,6481 2607,6481 2600,6477 2597,6471 2596,6465 2598,6461 2598,6455 2592,6450 2586,6443 2585,6438 2585,6431 2588,6423 2592,6418 2595,6412 2598,6405 2597,6399 2591,6398 2582,6398 2572,6392 2564,6390 2560,6387 2557,6382 2552,6379 2543,6381 2539,6383 2534,6387 2525,6388 2520,6388 2518,6391 2507,6395 2496,6395 2488,6392 2482,6390 2478,6389 2471,6391 2461,6399 2458,6405 2454,6410 2450,6412 2443,6416 2438,6415 2430,6417 2422,6412 2418,6409 2407,6403 2402,6403 2401,6406 2401,6411 2401,6420 2400,6429 2397,6434 2395,6445 2394,6451 2395,6456 2398,6463 2395,6467 2387,6465 2378,6463 2373,6463 2365,6464 2362,6461 2362,6457 2361,6453 2359,6450 2356,6449 2353,6451 2348,6458 2342,6464 2335,6463 2332,6464 2326,6468 2321,6468 2314,6471 2308,6468 2302,6468 2298,6467 2295,6466 2292,6468 2288,6476 2286,6484 2288,6488 2288,6495 2287,6503 2281,6513 2276,6520 2273,6526 2272,6532 2271,6539 2266,6547 2264,6550 2264,6554 2261,6558 2257,6558 2253,6559 2249,6561 2245,6564 2239,6569 2236,6568 2233,6567 2229,6565 2221,6569 2217,6567 2208,6567 2202,6567 2195,6568 2193,6571 2188,6575 2184,6578 2177,6583 2172,6587 2169,6592 2169,6598 2170,6602 2173,6605 2177,6612 2188,6620 2191,6624 2188,6630 2187,6634 2189,6638 2181,6642 2173,6642 2163,6647 2157,6647 2145,6649 2138,6652 2129,6657 2126,6660 2128,6663 2138,6671 2144,6678 2153,6688 2161,6697 2174,6706 2172,6716 2167,6719 2160,6727 2156,6725 2150,6720 2141,6716 2131,6716 2122,6716 2108,6714 2098,6719 2081,6727 2075,6730 2070,6734 2071,6740 2076,6743 2070,6743 2071,6748 2069,6751 2064,6753 2061,6755 2059,6758 2056,6761 2052,6761 2047,6763 2046,6768 2045,6771 2042,6773 2039,6773 2036,6773 2033,6776 2032,6781 2029,6785 2023,6790 2017,6795 2012,6799 2008,6800 2003,6807 2001,6811 2000,6817 1996,6820 1989,6822 1979,6825 1966,6825 1953,6822 1943,6816 1939,6815 1933,6815 1929,6815 1927,6811 1927,6806 1930,6802 1932,6798 1929,6791 1929,6787 1927,6781 1930,6778 1934,6775 1936,6771 1934,6766 1933,6759 1929,6751 1927,6743 1927,6735 1925,6729 1920,6729 1914,6730 1900,6729 1889,6729 1880,6729 1865,6727 1850,6723 1844,6720 1841,6720 1838,6720 1834,6719 1830,6714 1827,6711 1824,6709 1817,6708 1807,6708 1797,6704 1794,6697 1786,6690 1778,6683 1771,6678 1764,6669 1764,6662 1764,6656 1766,6651 1769,6646 1774,6636 1779,6630 1784,6626 1790,6621 1793,6611 1795,6607 1795,6597 1795,6590 1790,6585 1786,6584 1783,6583 1779,6584 1766,6588 1758,6593 1745,6597 1738,6597 1735,6597 1730,6594 1721,6588 1712,6580 1710,6573 1709,6566 1711,6559 1715,6553 1710,6550 1708,6543 1705,6537 1705,6533 1703,6527 1697,6524 1697,6520 1699,6515 1696,6508 1696,6501 1698,6493 1699,6487 1698,6480 1693,6477 1692,6469 1691,6457 1687,6451 1679,6447 1670,6452 1659,6454 1650,6455 1638,6456 1630,6455 1627,6451 1618,6446 1611,6440 1608,6434 1604,6434 1591,6438 1581,6441 1569,6443 1561,6442 1556,6437 1550,6428 1548,6425 1548,6418 1544,6415 1533,6413 1524,6412 1519,6415 1515,6417 1505,6417 1491,6418 1480,6421 1467,6422 1463,6426 1461,6429 1461,6436 1459,6441 1452,6441 1447,6440 1440,6440 1432,6440 1427,6443 1417,6443 1412,6448 1409,6453 1403,6457 1399,6463 1397,6469 1410,6470 1419,6472 1416,6476 1413,6481 1408,6488 1410,6495 1414,6498 1420,6498 1422,6505 1428,6510 1433,6508 1436,6510 1435,6516 1429,6519 1420,6515 1408,6512 1408,6519 1409,6525 1409,6531 1411,6540 1411,6546 1413,6551 1408,6554 1401,6556 1399,6550 1394,6549 1388,6550 1381,6548 1370,6561 1357,6572 1350,6575 1337,6577 1331,6574 1329,6568 1328,6562 1327,6554 1326,6544 1324,6540 1321,6540 1316,6542 1309,6539 1303,6535 1298,6528 1296,6524 1296,6516 1292,6510 1287,6502 1282,6503 1276,6504 1273,6500 1268,6493 1264,6481 1259,6479 1254,6479 1250,6481 1246,6485 1239,6488 1236,6486 1235,6482 1230,6477 1221,6473 1211,6474 1209,6477 1206,6481 1205,6487 1204,6494 1203,6498 1197,6498 1195,6493 1194,6489 1190,6484 1185,6480 1182,6478 1172,6477 1166,6476 1150,6477 1147,6475 1144,6471 1145,6465 1142,6456 1140,6451 1138,6445 1139,6441 1140,6438 1147,6434 1150,6431 1149,6426 1150,6419 1146,6412 1139,6406 1131,6401 1122,6396 1125,6391 1119,6385 1117,6381 1115,6376 1119,6372 1125,6369 1134,6382 1140,6384 1148,6381 1150,6370 1149,6361 1143,6350 1134,6343 1134,6339 1143,6333 1144,6326 1146,6322 1153,6317 1160,6312 1158,6302 1160,6295 1155,6284 1148,6278 1148,6273 1152,6269 1148,6263 1139,6253 1135,6249 1133,6246 1137,6244 1143,6244 1150,6247 1157,6246 1162,6247 1164,6250 1171,6252 1177,6252 1179,6248 1174,6243 1169,6237 1169,6227 1164,6223 1160,6221 1157,6214 1152,6209 1149,6203 1148,6197 1146,6189 1143,6187 1138,6185 1134,6185 1125,6182 1120,6180 1118,6176 1128,6175 1133,6173 1138,6171 1138,6165 1132,6159 1123,6157 1115,6155 1111,6150 1108,6143 1108,6137 1110,6131 1108,6125 1104,6118 1101,6114 1101,6104 1101,6099 1098,6090 1094,6084 1096,6077 1096,6068 1095,6063 1095,6057 1097,6047 1094,6043 1091,6039 1090,6035 1094,6033 1095,6030 1098,6023 1102,6017 1105,6010 1109,6006 1121,6003 1127,5999 1135,5999 1138,5998 1145,5993 1153,5988 1162,5987 1169,5985 1177,5977 1184,5970 1185,5964 1185,5957 1189,5950 1192,5943 1198,5938 1202,5931 1206,5926 1207,5921 1208,5915 1217,5915 1224,5914 1227,5911 1232,5907 1237,5903 1239,5896 1240,5893 1247,5894 1252,5894 1256,5894 1261,5895 1261,5903 1268,5909 1272,5917 1274,5920 1274,5927 1275,5931 1279,5931 1282,5931 1287,5930 1293,5933 1295,5937 1299,5943 1304,5951 1309,5962 1314,5970 1319,5973 1321,5978 1319,5984 1320,5990 1328,5994 1337,5986 1342,5979 1346,5968 1356,5958 1363,5954 1374,5950 1380,5944 1385,5939 1390,5940 1396,5942 1400,5941 1399,5937 1396,5933 1396,5930 1401,5923 1402,5919 1409,5915 1415,5910 1418,5904 1422,5898 1420,5895 1422,5890 1429,5886 1436,5885 1440,5881 1443,5879 1451,5881 1456,5886 1465,5887 1469,5883 1476,5881 1482,5876 1491,5874 1496,5874 1497,5868 1494,5867 1490,5866 1488,5862 1485,5857 1485,5854 1490,5852 1501,5850 1506,5849 1510,5849 1512,5844 1510,5841 1512,5838 1515,5837 1522,5838 1526,5836 1534,5830 1540,5833 1546,5828 1546,5816 1545,5809 1544,5806 1545,5801 1549,5800 1554,5802 1559,5806 1567,5807 1577,5807 1584,5804 1589,5804 1603,5802 1604,5797 1606,5794 1612,5790 1619,5788 1626,5788 1631,5788 1635,5788 1636,5784 1625,5771 1619,5764 1616,5756 1615,5746 1615,5737 1619,5725 1621,5721 1619,5715 1616,5706 1619,5701 1622,5699 1631,5692 1632,5688 1630,5684 1628,5680 1626,5675 1629,5669 1634,5668 1638,5676 1646,5682 1653,5682 1659,5684 1664,5689 1668,5694 1675,5693 1679,5688 1680,5683 1681,5677 1681,5672 1683,5664 1683,5656 1682,5650 1681,5644 1682,5639 1685,5629 1686,5624 1684,5618 1684,5612 1687,5605 1682,5597 1676,5588 1671,5580 1664,5577 1661,5572 1659,5562 1657,5553 1653,5546 1651,5543 1652,5540 1661,5531 1669,5523 1677,5515 1684,5506 1688,5502 1687,5498 1682,5496 1677,5495 1673,5494 1667,5495 1664,5495 1657,5491 1653,5487 1649,5484 1642,5483 1634,5485 1626,5482 1623,5481 1619,5482 1612,5482 1608,5481 1606,5477 1605,5473 1597,5472 1590,5468 1584,5464 1577,5459 1575,5454 1567,5450 1562,5453 1558,5456 1549,5455 1539,5453 1532,5448 1530,5440 1530,5435 1525,5430 1519,5428 1514,5423 1508,5416 1502,5411 1495,5411 1489,5412 1481,5410 1474,5406 1463,5401 1461,5398 1457,5393 1458,5389 1455,5385 1450,5381 1436,5381 1424,5384 1417,5385 1406,5393 1398,5401 1388,5406 1376,5408 1370,5411 1361,5411 1356,5408 1351,5405 1346,5405 1342,5408 1338,5411 1330,5411 1325,5410 1324,5407 1322,5400 1320,5394 1316,5386 1318,5381 1321,5374 1325,5368 1326,5363 1332,5358 1330,5350 1328,5345 1324,5345 1319,5347 1313,5341 1308,5330 1307,5327 1301,5324 1292,5320 1287,5315 1284,5307 1284,5302 1288,5300 1295,5299 1303,5296 1308,5295 1314,5288 1319,5275 1318,5267 1317,5260 1306,5250 1300,5248 1300,5245 1304,5242 1305,5238 1301,5235 1296,5230 1289,5225 1285,5219 1283,5214 1282,5210 1270,5206 1261,5209 1253,5212 1242,5213 1237,5214 1228,5219 1222,5223 1219,5226 1213,5228 1210,5223 1210,5217 1206,5210 1203,5213 1200,5212 1200,5207 1198,5199 1195,5188 1197,5180 1202,5178 1215,5176 1229,5173 1236,5172 1245,5171 1252,5167 1253,5161 1257,5155 1260,5154 1269,5155 1272,5158 1279,5157 1283,5152 1281,5148 1275,5144 1270,5138 1267,5128 1264,5123 1263,5118 1256,5116 1246,5117 1242,5119 1236,5120 1228,5119 1223,5113 1224,5109 1233,5106 1240,5105 1248,5103 1254,5103 1260,5103 1262,5098 1260,5094 1256,5089 1253,5083 1247,5081 1240,5077 1240,5071 1243,5065 1245,5057 1246,5052 1251,5048 1251,5044 1253,5034 1254,5027 1250,5020 1246,5017 1243,5011 1245,5007 1248,5006 1254,5008 1259,5006 1260,5002 1265,4999 1272,4997 1275,4993 1277,4989 1283,4987 1286,4978 1288,4971 1290,4967 1291,4960 1288,4954 1288,4947 1289,4940 1292,4935 1294,4930 1291,4926 1285,4924 1277,4922 1277,4918 1275,4913 1272,4909 1273,4905 1277,4901 1281,4895 1283,4888 1284,4883 1291,4876 1295,4870 1295,4861 1293,4850 1291,4846 1284,4833 1283,4826 1284,4819 1284,4812 1286,4806 1307,4790 1326,4775 1340,4765 1351,4757 1359,4750 1371,4746 1375,4745 1380,4745 1386,4745 1392,4746 1395,4750 1397,4756 1400,4764 1403,4769 1404,4775 1408,4784 1420,4793 1435,4796 1443,4796 1451,4795 1463,4784 1462,4771 1464,4763 1464,4756 1465,4752 1469,4751 1475,4750 1480,4752 1484,4753 1490,4752 1493,4747 1503,4740 1512,4730 1517,4730 1518,4725 1515,4717 1510,4709 1506,4703 1501,4701 1492,4701 1491,4697 1495,4693 1500,4690 1501,4687 1505,4681 1505,4673 1506,4660 1509,4652 1512,4646 1515,4642 1516,4637 1516,4630 1514,4623 1508,4617 1502,4607 1495,4599 1480,4591 1469,4584 1463,4584 1460,4581 1458,4575 1458,4569 1462,4558 1464,4552 1468,4549 1470,4544 1469,4537 1464,4524 1464,4513 1463,4477 1462,4440 1462,4419 1462,4410 1465,4399 1466,4393 1467,4387 1464,4381 1459,4378 1453,4368 1445,4355 1439,4343 1436,4331 1435,4326 1438,4314 1443,4309 1450,4305 1467,4299 1470,4294 1472,4288 1465,4271 1455,4253 1446,4242 1441,4235 1431,4230 1424,4228 1418,4226 1413,4223 1402,4223 1394,4221 1388,4218 1382,4219 1378,4214 1377,4208 1381,4202 1380,4196 1377,4190 1376,4186 1379,4182 1385,4178 1393,4172 1396,4169 1397,4166 1399,4160 1399,4152 1398,4146 1399,4140 1394,4133 1385,4127 1384,4124 1371,4112 1365,4099 1360,4086 1358,4080 1349,4076 1326,4077 1309,4077 1300,4079 1289,4079 1281,4081 1270,4081 1266,4077 1263,4073 1266,4069 1267,4064 1269,4059 1273,4054 1282,4048 1287,4045 1289,4040 1291,4037 1294,4030 1298,4027 1303,4026 1307,4026 1310,4020 1312,4015 1315,4008 1313,4001 1311,3996 1311,3991 1318,3988 1322,3983 1326,3980 1326,3974 1321,3972 1318,3971 1315,3964 1312,3961 1313,3957 1317,3954 1314,3943 1312,3936 1315,3926 1313,3922 1307,3918 1303,3915 1300,3911 1300,3901 1297,3895 1291,3891 1284,3888 1269,3885 1256,3881 1254,3876 1255,3870 1256,3862 1256,3854 1252,3849 1244,3845 1237,3844 1231,3843 1224,3840 1218,3837 1201,3825 1198,3822 1193,3817 1188,3818 1184,3819 1181,3819 1174,3823 1169,3824 1164,3824 1161,3823 1158,3817 1154,3813 1150,3810 1144,3807 1141,3804 1134,3799 1130,3796 1123,3795 1119,3798 1112,3794 1112,3788 1110,3784 1108,3778 1104,3775 1098,3771 1095,3769 1095,3764 1095,3755 1092,3752 1087,3750 1085,3747 1084,3742 1084,3739 1086,3733 1091,3729 1090,3723 1088,3712 1089,3702 1094,3692 1098,3689 1103,3688 1110,3688 1115,3684 1122,3685 1130,3687 1139,3688 1147,3688 1155,3686 1162,3685 1167,3686 1172,3684 1176,3679 1181,3678 1185,3676 1186,3673 1185,3669 1192,3666 1200,3662 1207,3661 1214,3664 1219,3666 1225,3658 1228,3650 1226,3643 1227,3641 1228,3637 1221,3632 1214,3630 1208,3624 1201,3619 1199,3613 1201,3610 1204,3607 1206,3599 1212,3595 1215,3592 1218,3585 1220,3581 1221,3577 1219,3573 1218,3568 1221,3563 1223,3553 1229,3546 1232,3543 1231,3539 1232,3533 1231,3520 1229,3515 1228,3509 1231,3502 1231,3493 1223,3491 1217,3488 1212,3490 1206,3491 1202,3491 1197,3489 1194,3491 1191,3499 1188,3503 1184,3506 1179,3507 1175,3511 1171,3515 1160,3512 1155,3510 1152,3509 1145,3510 1140,3514 1136,3516 1132,3512 1132,3507 1132,3496 1129,3478 1132,3471 1132,3468 1131,3462 1129,3454 1124,3449 1123,3444 1118,3443 1114,3439 1115,3433 1114,3422 1117,3416 1122,3406 1122,3396 1123,3385 1123,3377 1124,3371 1124,3365 1124,3358 1128,3352 1132,3346 1138,3339 1143,3336 1147,3333 1150,3332 1151,3326 1152,3316 1152,3312 1151,3308 1149,3302 1148,3296 1149,3288 1151,3283 1159,3280 1166,3281 1169,3281 1176,3278 1187,3269 1193,3264 1194,3257 1195,3248 1197,3242 1199,3232 1201,3223 1200,3218 1200,3210 1200,3198 1200,3190 1208,3180 1209,3177 1214,3177 1219,3176 1224,3177 1229,3178 1232,3178 1236,3169 1239,3168 1249,3164 1259,3160 1269,3154 1276,3145 1281,3143 1284,3137 1285,3130 1282,3127 1274,3124 1274,3119 1277,3112 1278,3105 1281,3102 1285,3100 1289,3097 1289,3091 1290,3088 1287,3085 1281,3085 1274,3085 1268,3086 1260,3086 1250,3090 1244,3093 1240,3092 1239,3087 1237,3081 1237,3078 1240,3072 1243,3068 1243,3062 1243,3056 1239,3051 1239,3040 1241,3023 1240,3006 1236,3002 1230,2999 1213,2992 1197,2983 1188,2977 1181,2968 1179,2961 1177,2953 1176,2947 1173,2942 1170,2938 1166,2935 1154,2930 1151,2928 1147,2923 1145,2920 1143,2917 1134,2916 1128,2914 1115,2916 1110,2919 1108,2925 1105,2924 1099,2926 1097,2929 1098,2933 1098,2938 1099,2943 1095,2946 1091,2949 1089,2953 1086,2956 1087,2960 1095,2960 1098,2960 1098,2963 1095,2967 1081,2977 1073,2980 1068,2984 1065,2987 1063,2990 1064,2995 1063,3000 1060,3005 1051,3011 1046,3016 1040,3018 1034,3018 1031,3016 1025,3017 1026,3022 1021,3026 1014,3030 1011,3031 1004,3036 993,3033 990,3036 987,3040 981,3038 977,3034 971,3033 964,3036 961,3037 955,3038 949,3041 941,3042 938,3039 936,3033 936,3026 933,3022 931,3016 929,3008 923,3006 919,3006 912,3009 905,3014 896,3019 891,3019 888,3023 883,3022 877,3020 874,3019 868,3009 869,3005 868,3001 865,3001 860,2999 854,2999 850,2996 846,2993 845,2989 842,2986 842,2982 844,2977 845,2972 846,2969 841,2964 836,2963 833,2960 829,2956 825,2950 825,2944 817,2936 816,2932 812,2930 801,2927 793,2926 786,2923 781,2917 780,2909 777,2896 774,2888 774,2885 775,2881 778,2877 784,2864 784,2858 786,2851 795,2844 798,2840 798,2836 798,2832 800,2826 801,2822 804,2817 810,2812 806,2806 804,2802 798,2798 787,2791 785,2787 784,2782 783,2779 781,2775 773,2774 767,2773 763,2768 759,2766 751,2769 748,2771 746,2776 745,2782 740,2791 736,2798 732,2800 726,2799 723,2795 724,2788 724,2783 725,2779 719,2779 714,2778 708,2775 703,2773 699,2772 695,2774 691,2777 689,2780 689,2786 684,2796 681,2806 676,2819 675,2826 668,2826 661,2826 654,2824 651,2821 652,2811 651,2801 648,2795 645,2790 640,2780 636,2768 633,2761 630,2753 630,2749 627,2747 619,2747 612,2746 608,2745 606,2741 605,2731 603,2728 595,2714 592,2707 592,2704 586,2701 581,2704 575,2704 572,2706 561,2710 556,2712 551,2711 543,2711 537,2711 528,2711 521,2712 516,2716 510,2718 494,2723 483,2725 478,2723 475,2723 468,2724 464,2729 455,2731 450,2733 446,2732 441,2733 436,2735 435,2738 431,2740 428,2740 424,2737 421,2733 415,2731 412,2731 405,2730 405,2724 407,2721 412,2718 418,2717 421,2716 427,2712 430,2705 429,2702 425,2699 419,2696 422,2685 422,2674 422,2668 419,2665 415,2665 404,2665 399,2666 398,2670 394,2671 391,2671 387,2667 381,2666 374,2668 370,2667 361,2659 353,2651 341,2642 337,2633 332,2630 328,2628 323,2630 319,2633 312,2635 309,2633 303,2631 298,2631 292,2635 288,2638 280,2638 270,2640 264,2646 248,2644 239,2640 236,2633 240,2629 239,2623 240,2616 239,2612 231,2610 226,2613 221,2615 216,2613 213,2612 208,2614 204,2619 196,2621 196,2625 193,2630 192,2635 188,2639 184,2639 180,2634 177,2628 168,2624 161,2615 154,2603 152,2589 153,2576 156,2563 159,2547 154,2532 152,2516 156,2509 162,2501 165,2495 168,2487 168,2478 168,2469 168,2460 168,2450 166,2441 165,2432 157,2411 154,2391 158,2382 167,2374 177,2370 188,2365 198,2365 212,2360 227,2354 234,2347 239,2342 244,2335 252,2327 262,2320 278,2317 295,2308 300,2305 308,2300 311,2294 312,2283 316,2277 321,2270 331,2257 343,2244 348,2243 355,2240 362,2237 367,2233 366,2227 364,2220 362,2210 360,2198 357,2186 355,2173 357,2169 359,2164 363,2157 363,2154 362,2148 359,2141 357,2134 359,2125 361,2114 360,2109 359,2103 353,2088 350,2074 350,2068 353,2061 353,2056 354,2050 356,2043 357,2040 353,2032 355,2025 359,2018 365,2011 368,1999 376,1985 381,1977 385,1967 388,1952 400,1954 412,1957 442,1971 451,1973 460,1975 471,1978 484,1981 499,1986 511,1988 529,1986 545,1981 557,1978 581,1978 595,1971 603,1966 604,1961 601,1955 596,1949 595,1943 599,1936 611,1930 626,1924 646,1917 655,1917 668,1915 680,1911 687,1907 700,1896 711,1887 722,1877 735,1861 741,1853 747,1844 753,1837 758,1829 762,1822 765,1813 764,1806 765,1800 768,1794 772,1791 779,1788 789,1783 796,1775 807,1774 819,1775 " class="polyStyle" id="450422" style="fill:#fbe6ef"/>
<polygon points="5937,1192 5943,1195 5947,1206 5952,1216 5960,1221 5972,1223 5985,1223 5996,1224 5996,1231 5996,1240 6003,1258 6017,1270 6035,1271 6046,1270 6055,1269 6065,1271 6073,1274 6081,1286 6090,1298 6100,1310 6114,1319 6132,1324 6152,1325 6173,1321 6194,1313 6207,1308 6220,1302 6226,1301 6232,1301 6239,1304 6245,1308 6247,1314 6250,1320 6251,1339 6253,1356 6253,1366 6251,1376 6245,1388 6239,1399 6235,1405 6235,1411 6241,1420 6251,1428 6257,1437 6261,1445 6261,1454 6247,1475 6236,1487 6236,1495 6241,1506 6245,1512 6273,1527 6284,1530 6295,1537 6306,1543 6313,1548 6319,1554 6322,1565 6322,1576 6319,1582 6314,1586 6302,1588 6291,1590 6281,1593 6273,1597 6266,1607 6260,1618 6248,1633 6236,1645 6225,1651 6213,1656 6203,1666 6195,1678 6184,1692 6174,1704 6164,1712 6153,1719 6140,1726 6129,1730 6114,1734 6101,1738 6094,1744 6090,1751 6086,1761 6082,1771 6073,1780 6063,1786 6056,1796 6051,1804 6047,1816 6048,1826 6056,1843 6066,1857 6074,1878 6081,1899 6085,1912 6090,1926 6089,1941 6088,1954 6094,1966 6102,1975 6108,1983 6115,1990 6119,1999 6122,2006 6122,2016 6122,2026 6145,2040 6129,2046 6135,2050 6142,2054 6151,2055 6161,2054 6165,2060 6173,2061 6175,2056 6179,2052 6178,2045 6180,2042 6188,2040 6201,2032 6227,2031 6249,2027 6260,2040 6265,2040 6270,2045 6276,2047 6281,2049 6286,2052 6288,2055 6291,2057 6295,2060 6298,2061 6299,2064 6304,2064 6308,2061 6311,2060 6314,2056 6318,2054 6322,2054 6327,2059 6332,2063 6338,2070 6343,2076 6346,2078 6348,2081 6370,2105 6385,2105 6388,2123 6373,2137 6358,2152 6359,2171 6398,2159 6403,2160 6468,2174 6481,2181 6493,2187 6501,2192 6511,2197 6519,2202 6529,2206 6535,2212 6543,2219 6549,2225 6554,2232 6556,2239 6557,2246 6560,2253 6563,2258 6566,2262 6571,2265 6576,2268 6581,2271 6588,2277 6594,2282 6599,2288 6605,2294 6608,2302 6611,2311 6614,2319 6617,2328 6619,2333 6619,2338 6622,2343 6624,2348 6628,2355 6633,2362 6637,2369 6643,2375 6645,2381 6646,2387 6646,2392 6647,2397 6646,2404 6620,2461 6616,2465 6613,2469 6612,2473 6611,2476 6612,2481 6615,2489 6615,2496 6618,2502 6620,2507 6622,2515 6625,2522 6628,2528 6632,2534 6635,2537 6637,2540 6640,2543 6642,2548 6642,2552 6643,2556 6643,2559 6642,2564 6641,2569 6641,2574 6641,2578 6642,2586 6644,2593 6646,2601 6651,2606 6653,2611 6657,2615 6660,2619 6664,2623 6667,2627 6670,2631 6672,2636 6674,2641 6674,2645 6674,2648 6670,2656 6665,2661 6660,2667 6657,2673 6653,2679 6651,2685 6649,2690 6648,2695 6644,2702 6640,2709 6632,2711 6626,2721 6630,2734 6637,2759 6640,2763 6646,2805 6645,2815 6644,2821 6645,2828 6645,2833 6645,2838 6644,2844 6644,2850 6643,2854 6643,2862 6638,2877 6636,2899 6632,2913 6620,2921 6612,2935 6606,2953 6600,2973 6590,3001 6586,3019 6578,3043 6572,3065 6574,3087 6570,3099 6540,3081 6530,3079 6514,3079 6510,3081 6502,3091 6494,3115 6496,3133 6512,3149 6516,3197 6512,3233 6508,3273 6510,3301 6526,3333 6526,3343 6518,3349 6514,3349 6508,3347 6480,3341 6470,3341 6458,3351 6456,3359 6456,3365 6462,3373 6476,3393 6480,3399 6492,3405 6526,3413 6548,3413 6570,3417 6576,3425 6572,3433 6570,3449 6572,3455 6580,3459 6590,3457 6596,3443 6602,3423 6608,3419 6648,3425 6676,3427 6696,3429 6704,3433 6706,3439 6702,3449 6692,3463 6684,3475 6684,3487 6684,3497 6692,3511 6698,3525 6690,3531 6626,3537 6598,3541 6584,3545 6572,3553 6564,3575 6554,3601 6550,3619 6560,3639 6558,3647 6550,3651 6516,3651 6486,3659 6466,3677 6454,3695 6452,3715 6452,3739 6454,3751 6456,3771 6456,3781 6456,3799 6454,3809 6454,3819 6450,3829 6446,3833 6440,3835 6416,3843 6408,3843 6400,3839 6382,3827 6364,3817 6344,3813 6334,3817 6310,3841 6302,3835 6290,3799 6246,3825 6230,3839 6216,3851 6150,3867 6158,3825 6142,3823 6122,3823 6106,3835 6074,3857 6052,3877 6006,3885 5980,3893 5950,3901 5932,3901 5916,3887 5890,3871 5882,3875 5874,3889 5864,3893 5846,3889 5828,3887 5808,3891 5804,3899 5800,3951 5796,3977 5780,3991 5786,4007 5808,4037 5814,4063 5816,4105 5814,4139 5818,4153 5822,4163 5820,4185 5812,4207 5806,4219 5782,4233 5778,4241 5776,4265 5771,4280 5748,4277 5724,4277 5696,4286 5663,4309 5640,4318 5602,4323 5574,4331 5535,4355 5516,4380 5477,4382 5420,4387 5339,4409 5324,4404 5278,4353 5260,4348 5234,4318 5207,4317 5107,4322 5087,4319 5063,4312 5056,4307 5051,4300 5049,4286 5046,4281 5041,4280 5037,4284 5036,4291 5040,4298 5041,4305 5034,4308 5027,4307 5018,4293 5011,4287 5002,4286 5012,4264 5013,4246 5021,4241 5021,4220 5040,4210 5053,4192 5054,4178 5048,4164 5052,4146 5035,4125 5042,4111 5037,4106 5039,4099 5048,4090 5050,4078 5059,4079 5066,4070 5058,4054 5065,4048 5059,4040 5067,4037 5068,4032 5054,4026 5056,4019 5050,4011 5050,3994 5043,3986 5026,3983 5029,3978 5029,3957 5039,3937 5047,3936 5047,3928 5051,3925 5044,3913 5062,3906 5057,3892 5046,3882 5044,3858 5057,3849 5048,3840 5041,3819 5041,3806 5026,3781 5034,3744 5031,3736 5020,3732 5017,3720 5019,3706 5018,3695 5003,3683 5000,3640 5007,3631 5027,3628 5038,3633 5048,3631 5051,3633 5063,3624 5085,3623 5091,3628 5108,3619 5108,3610 5115,3597 5106,3571 5113,3551 5105,3533 5107,3520 5094,3506 5093,3493 5068,3485 5060,3487 5047,3468 5019,3463 5013,3453 5029,3452 5035,3439 5036,3423 5025,3416 4992,3408 4991,3374 4981,3355 4965,3352 4948,3358 4928,3356 4912,3382 4911,3398 4898,3406 4893,3404 4892,3396 4875,3401 4838,3386 4816,3388 4791,3398 4765,3359 4759,3357 4739,3358 4697,3379 4650,3372 4646,3371 4639,3392 4608,3395 4605,3417 4593,3437 4549,3438 4543,3443 4508,3451 4493,3478 4488,3509 4459,3530 4455,3552 4446,3571 4446,3581 4474,3598 4482,3599 4484,3621 4480,3632 4489,3646 4487,3661 4467,3672 4460,3681 4464,3700 4463,3705 4456,3709 4451,3711 4429,3711 4413,3706 4381,3703 4350,3706 4335,3704 4310,3688 4284,3680 4260,3686 4239,3701 4218,3706 4208,3719 4210,3729 4188,3737 4161,3725 4129,3726 4103,3747 4091,3751 4066,3759 4041,3778 4022,3793 4018,3800 4023,3830 4035,3867 4057,3891 4047,3905 4035,3905 4019,3922 4008,3923 4004,3926 3999,3925 3990,3918 3993,3911 4000,3898 3991,3900 3990,3906 3989,3909 3981,3906 3978,3903 3980,3897 3984,3894 3995,3893 3998,3892 3993,3890 3980,3889 3974,3892 3967,3888 3949,3868 3944,3858 3947,3850 3949,3844 3946,3837 3942,3835 3930,3831 3923,3834 3908,3827 3910,3824 3912,3820 3903,3813 3895,3817 3882,3832 3874,3822 3865,3792 3857,3792 3851,3802 3836,3796 3837,3784 3819,3784 3798,3774 3780,3796 3770,3825 3762,3843 3735,3852 3705,3851 3692,3845 3668,3845 3670,3828 3663,3816 3657,3802 3643,3802 3639,3823 3627,3834 3615,3830 3591,3840 3560,3842 3557,3871 3553,3902 3544,3902 3492,3888 3476,3883 3479,3915 3484,3941 3503,3938 3531,3952 3522,3973 3508,3990 3512,4006 3525,4013 3531,4058 3532,4090 3540,4111 3557,4113 3583,4111 3587,4125 3590,4142 3617,4149 3617,4159 3634,4170 3641,4186 3650,4203 3670,4213 3677,4226 3690,4246 3722,4247 3729,4246 3732,4243 3741,4236 3749,4242 3746,4244 3741,4248 3748,4252 3751,4254 3769,4268 3763,4289 3768,4315 3786,4323 3802,4343 3806,4364 3818,4388 3837,4385 3842,4371 3851,4370 3874,4375 3898,4402 3921,4410 3939,4434 3959,4453 3988,4420 4004,4418 4028,4440 4046,4453 4073,4480 4076,4502 4081,4535 4097,4545 4139,4550 4156,4546 4171,4550 4189,4561 4219,4557 4237,4563 4258,4555 4278,4531 4288,4537 4294,4553 4302,4562 4320,4572 4334,4578 4352,4583 4357,4584 4367,4598 4373,4611 4381,4617 4368,4661 4346,4682 4326,4691 4303,4701 4295,4723 4295,4749 4279,4774 4258,4793 4245,4790 4224,4809 4207,4822 4213,4839 4222,4845 4213,4858 4189,4859 4177,4859 4141,4886 4102,4867 3985,4819 3973,4812 3950,4798 3946,4795 3907,4778 3892,4776 3868,4771 3845,4774 3836,4780 3832,4781 3821,4785 3809,4794 3790,4804 3784,4804 3774,4804 3764,4801 3733,4792 3700,4782 3669,4784 3653,4791 3628,4802 3595,4837 3576,4846 3563,4858 3540,4866 3488,4875 3443,4881 3425,4879 3408,4872 3397,4870 3388,4868 3375,4863 3366,4859 3354,4857 3345,4858 3332,4860 3321,4859 3311,4861 3295,4864 3281,4868 3277,4867 3273,4864 3264,4859 3253,4855 3246,4853 3240,4845 3233,4843 3228,4837 3225,4828 3214,4816 3210,4810 3210,4807 3208,4799 3203,4792 3199,4789 3192,4789 3187,4790 3181,4790 3178,4784 3173,4783 3167,4780 3160,4772 3157,4761 3153,4755 3149,4754 3144,4751 3144,4747 3146,4743 3148,4739 3151,4737 3151,4730 3148,4726 3146,4720 3152,4707 3159,4694 3155,4687 3154,4680 3155,4674 3155,4667 3152,4662 3146,4659 3141,4654 3139,4648 3137,4644 3135,4634 3129,4627 3127,4620 3124,4618 3119,4616 3115,4616 3111,4612 3100,4604 3089,4600 3079,4596 3074,4594 3074,4592 3072,4590 3067,4590 3062,4591 3057,4593 3052,4596 3040,4596 3036,4601 3030,4605 3026,4603 3024,4599 3021,4594 3012,4591 3008,4590 3009,4587 3012,4582 3012,4576 3012,4566 3012,4554 3012,4546 3017,4542 3025,4540 3026,4535 3028,4530 3033,4526 3037,4523 3039,4516 3043,4510 3046,4506 3053,4504 3061,4503 3070,4499 3075,4492 3075,4478 3074,4468 3077,4461 3079,4456 3080,4452 3076,4448 3074,4445 3070,4443 3068,4437 3068,4434 3069,4428 3070,4420 3070,4415 3069,4407 3067,4401 3061,4401 3056,4401 3048,4398 3042,4398 3035,4400 3031,4399 3033,4395 3032,4391 3026,4392 3023,4394 3021,4399 3013,4401 3012,4405 3010,4409 3004,4416 3001,4420 3003,4424 3004,4429 3002,4432 2996,4436 2990,4441 2989,4448 2988,4454 2985,4458 2979,4463 2973,4466 2970,4468 2963,4471 2962,4475 2953,4491 2953,4499 2952,4508 2947,4515 2943,4521 2943,4526 2944,4530 2945,4539 2943,4545 2941,4556 2940,4567 2941,4578 2936,4586 2930,4596 2924,4607 2921,4613 2925,4621 2925,4628 2919,4634 2912,4637 2905,4642 2902,4647 2899,4655 2898,4660 2901,4664 2902,4670 2904,4676 2905,4681 2904,4685 2901,4685 2896,4685 2890,4683 2881,4678 2874,4673 2870,4674 2864,4674 2860,4671 2856,4674 2851,4677 2848,4684 2843,4690 2840,4692 2837,4694 2834,4692 2831,4688 2826,4685 2826,4680 2825,4676 2822,4675 2815,4674 2812,4670 2814,4666 2817,4661 2818,4657 2815,4657 2811,4657 2802,4653 2795,4650 2789,4646 2790,4639 2790,4633 2792,4630 2797,4630 2810,4628 2817,4626 2822,4619 2826,4609 2829,4605 2836,4599 2841,4598 2850,4595 2853,4590 2852,4584 2843,4577 2833,4567 2808,4555 2802,4552 2801,4544 2798,4535 2796,4528 2792,4526 2785,4524 2775,4522 2772,4522 2767,4524 2763,4525 2762,4522 2762,4518 2763,4511 2761,4508 2758,4502 2758,4497 2758,4494 2753,4488 2740,4484 2735,4481 2731,4476 2726,4473 2725,4469 2726,4466 2724,4463 2722,4452 2720,4445 2718,4437 2713,4430 2710,4430 2707,4432 2698,4436 2691,4434 2684,4432 2679,4431 2677,4425 2676,4421 2675,4417 2671,4417 2667,4417 2661,4418 2654,4416 2646,4406 2643,4399 2643,4395 2640,4392 2638,4388 2638,4384 2637,4378 2637,4371 2637,4368 2636,4363 2639,4360 2646,4357 2648,4357 2653,4354 2656,4349 2664,4348 2668,4349 2672,4347 2684,4341 2694,4333 2705,4321 2713,4319 2719,4316 2719,4312 2720,4306 2722,4301 2725,4291 2729,4282 2732,4278 2736,4276 2739,4276 2745,4272 2748,4269 2753,4266 2758,4265 2766,4264 2771,4262 2775,4254 2773,4248 2768,4240 2760,4230 2753,4224 2750,4222 2741,4217 2736,4215 2735,4210 2733,4206 2728,4195 2722,4189 2718,4186 2709,4183 2708,4178 2707,4173 2708,4168 2713,4163 2722,4161 2728,4158 2731,4151 2732,4146 2740,4136 2747,4130 2750,4130 2755,4130 2761,4129 2773,4128 2775,4122 2775,4111 2779,4105 2781,4097 2781,4087 2780,4078 2777,4068 2775,4058 2777,4051 2779,4046 2782,4040 2786,4038 2794,4026 2797,4020 2799,4011 2803,4002 2810,3999 2813,3998 2821,3995 2825,3990 2831,3986 2834,3986 2839,3978 2840,3972 2844,3964 2845,3958 2848,3954 2850,3950 2853,3947 2857,3946 2860,3944 2861,3940 2863,3937 2866,3938 2871,3938 2881,3943 2889,3947 2893,3946 2901,3947 2907,3950 2913,3952 2935,3952 2942,3949 2945,3946 2948,3938 2950,3932 2956,3928 2958,3924 2964,3920 2973,3918 2980,3917 2983,3912 2986,3906 2988,3898 2991,3895 2995,3894 3001,3893 3006,3890 3009,3885 3024,3877 3037,3868 3050,3856 3056,3846 3060,3837 3071,3827 3085,3817 3100,3806 3108,3799 3117,3797 3121,3792 3122,3785 3126,3779 3129,3774 3135,3769 3140,3767 3154,3767 3166,3765 3177,3756 3186,3744 3200,3726 3212,3711 3215,3702 3215,3690 3213,3670 3210,3664 3199,3650 3193,3641 3191,3634 3186,3624 3186,3616 3184,3612 3181,3608 3171,3602 3167,3594 3164,3591 3157,3585 3157,3578 3155,3572 3155,3564 3159,3556 3165,3553 3168,3547 3170,3539 3173,3533 3171,3527 3165,3519 3160,3506 3162,3500 3160,3494 3155,3492 3150,3490 3146,3488 3146,3480 3150,3469 3152,3457 3154,3453 3152,3446 3152,3440 3152,3434 3153,3429 3155,3423 3158,3420 3167,3422 3171,3423 3176,3421 3176,3416 3174,3413 3176,3408 3179,3401 3183,3399 3199,3394 3203,3397 3206,3401 3208,3407 3212,3407 3215,3405 3223,3405 3227,3402 3231,3399 3236,3399 3248,3401 3252,3410 3259,3413 3268,3416 3276,3416 3282,3416 3286,3410 3283,3397 3276,3387 3266,3378 3261,3371 3251,3367 3249,3362 3248,3353 3250,3340 3256,3334 3260,3327 3266,3322 3264,3313 3257,3309 3257,3304 3261,3301 3267,3299 3268,3292 3265,3282 3261,3278 3260,3275 3263,3271 3267,3270 3269,3265 3268,3257 3262,3256 3259,3254 3261,3249 3265,3245 3267,3240 3270,3235 3267,3232 3263,3227 3264,3220 3267,3211 3270,3209 3274,3209 3281,3206 3281,3201 3287,3199 3294,3196 3295,3188 3297,3185 3301,3184 3311,3184 3315,3182 3322,3184 3322,3187 3321,3192 3328,3199 3335,3199 3348,3206 3362,3216 3375,3221 3376,3226 3374,3230 3374,3233 3379,3235 3387,3236 3391,3238 3397,3240 3422,3232 3429,3215 3442,3230 3453,3218 3451,3204 3461,3181 3477,3168 3484,3161 3498,3137 3493,3113 3489,3109 3463,3097 3453,3078 3449,3070 3446,3061 3446,3051 3444,3040 3444,3029 3445,3016 3447,3004 3443,2978 3436,2970 3440,2954 3459,2952 3474,2959 3494,2963 3506,2976 3512,2978 3519,2982 3525,2985 3531,2990 3538,2993 3543,2997 3551,2999 3556,2999 3570,2986 3601,2971 3606,2971 3611,2968 3618,2964 3626,2960 3632,2955 3639,2949 3643,2943 3647,2937 3651,2931 3654,2923 3655,2918 3656,2912 3658,2907 3659,2901 3659,2897 3660,2892 3663,2886 3667,2884 3670,2883 3674,2882 3678,2881 3681,2881 3685,2880 3693,2881 3701,2882 3710,2883 3719,2884 3726,2885 3732,2885 3739,2885 3746,2884 3756,2885 3766,2886 3775,2885 3790,2879 3794,2875 3798,2870 3804,2867 3807,2863 3810,2858 3813,2854 3818,2850 3822,2845 3826,2840 3830,2834 3832,2830 3834,2826 3836,2821 3838,2816 3839,2812 3840,2807 3841,2802 3843,2796 3846,2790 3851,2785 3855,2779 3859,2772 3860,2765 3861,2759 3861,2751 3863,2743 3864,2740 3867,2736 3870,2732 3871,2726 3872,2720 3873,2715 3875,2707 3879,2703 3884,2699 3888,2696 3891,2693 3894,2691 3897,2684 3900,2676 3903,2669 3905,2661 3905,2656 3905,2650 3904,2644 3902,2639 3899,2632 3896,2626 3894,2619 3894,2611 3896,2607 3899,2606 3902,2603 3905,2605 3909,2604 3914,2606 3919,2605 3925,2604 3931,2601 3937,2599 3945,2596 3950,2595 3956,2595 3962,2594 3969,2592 3975,2592 3981,2589 3987,2588 3995,2585 4002,2581 4010,2578 4017,2573 4023,2567 4025,2562 4039,2530 4049,2522 4070,2490 4068,2478 4071,2473 4089,2466 4103,2444 4112,2426 4119,2413 4133,2400 4141,2388 4144,2381 4148,2366 4152,2349 4156,2338 4159,2311 4168,2304 4172,2301 4177,2301 4188,2298 4198,2294 4210,2287 4222,2283 4231,2286 4247,2295 4262,2302 4277,2307 4284,2308 4295,2306 4308,2300 4319,2296 4324,2295 4336,2296 4342,2299 4355,2304 4364,2306 4377,2300 4384,2302 4391,2302 4396,2303 4401,2304 4408,2306 4411,2308 4414,2319 4427,2327 4424,2344 4433,2351 4438,2354 4442,2356 4446,2359 4447,2363 4449,2366 4451,2370 4453,2383 4472,2392 4476,2396 4480,2399 4486,2414 4505,2419 4506,2423 4510,2431 4505,2440 4502,2448 4499,2478 4510,2486 4526,2489 4533,2493 4540,2498 4542,2501 4546,2504 4548,2508 4550,2511 4551,2515 4552,2518 4552,2522 4552,2525 4546,2533 4554,2544 4565,2546 4574,2567 4581,2575 4591,2583 4579,2591 4572,2606 4574,2620 4596,2608 4610,2597 4628,2597 4633,2598 4635,2598 4640,2584 4646,2574 4652,2575 4663,2578 4674,2578 4679,2572 4694,2583 4708,2592 4709,2597 4714,2601 4728,2604 4767,2601 4795,2605 4827,2612 4831,2619 4834,2625 4835,2633 4857,2636 4875,2643 4883,2664 4892,2664 4895,2668 4899,2669 4903,2674 4905,2679 4908,2682 4913,2685 4917,2690 4921,2694 4926,2697 4933,2699 4936,2699 4939,2699 4943,2699 4947,2698 4956,2695 4964,2693 4972,2692 4981,2688 4986,2688 4992,2686 5009,2707 5022,2706 5041,2703 5042,2690 5058,2684 5070,2672 5077,2658 5082,2660 5093,2664 5104,2668 5115,2670 5127,2672 5136,2673 5145,2674 5154,2674 5164,2674 5170,2676 5176,2677 5182,2678 5189,2680 5194,2677 5211,2654 5208,2642 5203,2639 5188,2630 5186,2622 5177,2610 5173,2584 5181,2574 5194,2571 5204,2568 5213,2557 5216,2553 5222,2552 5265,2544 5270,2537 5276,2527 5301,2519 5319,2510 5327,2497 5351,2492 5334,2468 5334,2463 5336,2460 5342,2448 5360,2438 5360,2427 5359,2416 5362,2409 5367,2407 5377,2406 5393,2398 5400,2385 5401,2372 5408,2354 5422,2343 5432,2335 5436,2330 5449,2315 5452,2306 5452,2296 5446,2282 5448,2271 5446,2262 5433,2255 5422,2246 5419,2228 5422,2216 5432,2208 5434,2197 5433,2190 5428,2180 5412,2169 5403,2160 5400,2142 5399,2131 5392,2114 5386,2105 5373,2097 5367,2084 5373,2068 5373,2064 5374,2059 5376,2054 5378,2050 5381,2043 5381,2040 5371,2018 5361,1985 5356,1979 5353,1972 5348,1953 5347,1933 5347,1923 5351,1914 5361,1903 5373,1890 5376,1884 5381,1875 5389,1857 5397,1838 5403,1818 5413,1797 5424,1788 5431,1781 5422,1777 5408,1771 5398,1762 5394,1748 5391,1724 5391,1699 5385,1681 5382,1663 5383,1656 5388,1649 5398,1640 5413,1634 5430,1637 5448,1641 5455,1641 5462,1640 5477,1647 5491,1652 5502,1650 5512,1643 5525,1631 5539,1617 5551,1609 5567,1603 5587,1605 5603,1603 5606,1589 5608,1573 5612,1574 5617,1576 5627,1584 5639,1590 5656,1596 5674,1600 5691,1605 5708,1605 5725,1597 5741,1584 5753,1569 5766,1553 5775,1550 5786,1547 5793,1546 5800,1543 5801,1540 5801,1536 5799,1527 5798,1519 5788,1502 5778,1486 5771,1473 5768,1458 5770,1446 5775,1433 5780,1428 5785,1420 5785,1406 5787,1391 5794,1382 5803,1369 5807,1366 5817,1374 5829,1378 5845,1381 5863,1379 5875,1374 5880,1355 5879,1341 5877,1337 5868,1337 5832,1333 5822,1324 5824,1306 5826,1286 5833,1266 5846,1251 5861,1236 5866,1223 5872,1210 5886,1199 5904,1189 5918,1188 5932,1189 " class="polyStyle" id="450421" style="fill:#f6f67b"/>
<path d="" class="polyStyle" id="350624" style="fill:#f6f67b"/>
<polygon points="1139,9 1139,23 1137,43 1137,56 1143,73 1147,92 1148,104 1145,117 1139,132 1135,143 1133,152 1132,160 1133,167 1140,185 1149,194 1167,197 1180,196 1189,199 1200,205 1211,212 1218,216 1226,219 1232,234 1236,244 1240,251 1243,257 1248,263 1259,271 1267,279 1273,286 1276,296 1275,315 1268,334 1266,346 1255,379 1252,391 1250,397 1248,400 1248,403 1248,410 1254,415 1264,419 1275,419 1283,418 1292,419 1300,419 1314,420 1324,419 1330,421 1344,415 1369,404 1383,402 1398,402 1414,410 1445,422 1465,425 1474,430 1480,440 1492,462 1491,468 1485,475 1449,505 1443,515 1443,528 1443,539 1440,547 1434,552 1426,560 1417,563 1413,565 1415,568 1415,571 1417,579 1421,584 1422,590 1410,624 1407,633 1393,648 1390,653 1389,657 1391,661 1395,666 1397,670 1398,677 1396,681 1388,692 1386,698 1386,706 1386,711 1384,714 1379,717 1377,725 1378,729 1383,732 1387,732 1390,733 1393,735 1398,739 1401,742 1401,750 1401,755 1402,758 1405,761 1414,761 1426,767 1435,774 1443,777 1446,778 1453,778 1456,777 1466,778 1474,776 1481,776 1491,780 1495,785 1498,792 1495,798 1490,803 1483,808 1478,813 1476,820 1479,829 1485,840 1491,849 1501,857 1518,869 1522,875 1522,881 1522,888 1520,896 1519,901 1522,905 1528,913 1538,922 1546,920 1553,915 1565,912 1577,915 1585,919 1599,925 1611,934 1624,939 1642,939 1656,939 1669,943 1684,949 1694,953 1715,955 1733,957 1743,957 1753,961 1756,974 1755,988 1760,1000 1768,1009 1771,1013 1776,1017 1784,1025 1790,1033 1795,1039 1799,1040 1805,1039 1812,1035 1829,1028 1834,1027 1837,1028 1838,1033 1838,1038 1837,1043 1833,1047 1829,1052 1822,1055 1814,1058 1811,1063 1818,1073 1828,1088 1839,1096 1851,1099 1860,1099 1869,1100 1881,1099 1888,1094 1892,1092 1900,1094 1909,1105 1912,1115 1915,1123 1924,1126 1932,1128 1946,1131 1956,1133 1963,1137 1970,1148 1977,1157 1985,1164 1990,1171 1991,1178 1985,1185 1981,1187 1976,1194 1963,1206 1960,1209 1957,1215 1953,1247 1940,1274 1939,1278 1935,1278 1929,1278 1915,1274 1909,1275 1907,1280 1908,1295 1912,1304 1909,1322 1906,1327 1900,1332 1894,1333 1890,1337 1879,1341 1867,1343 1857,1349 1853,1351 1848,1354 1847,1358 1847,1361 1848,1365 1849,1369 1851,1374 1859,1392 1859,1395 1859,1398 1857,1402 1853,1406 1850,1409 1845,1407 1837,1407 1820,1409 1814,1414 1811,1418 1811,1435 1814,1451 1818,1471 1827,1484 1833,1494 1837,1505 1841,1516 1844,1525 1842,1533 1836,1538 1832,1546 1827,1558 1817,1568 1810,1580 1808,1592 1805,1611 1805,1623 1809,1635 1809,1646 1807,1651 1801,1658 1794,1661 1789,1667 1785,1676 1781,1682 1774,1690 1766,1697 1750,1709 1748,1713 1747,1720 1748,1726 1753,1735 1757,1740 1764,1750 1769,1755 1774,1759 1783,1764 1792,1771 1809,1783 1818,1799 1825,1809 1824,1817 1819,1830 1815,1838 1817,1841 1823,1843 1829,1841 1839,1838 1849,1836 1857,1839 1867,1848 1873,1855 1883,1867 1889,1869 1901,1869 1913,1873 1924,1879 1928,1882 1939,1882 1952,1883 1959,1887 1960,1892 1964,1894 1973,1894 1984,1894 1995,1899 1997,1903 1995,1907 1998,1911 2005,1916 2011,1916 2020,1913 2037,1916 2056,1919 2075,1922 2089,1926 2100,1929 2107,1936 2113,1944 2122,1955 2130,1958 2134,1966 2133,1972 2128,1977 2122,1981 2114,1984 2107,1983 2103,1981 2099,1983 2081,1991 2066,1999 2062,1999 2051,1997 2043,1998 2040,2001 2038,2008 2037,2014 2040,2021 2042,2023 2040,2036 2039,2040 2040,2046 2038,2050 2032,2054 2030,2059 2023,2062 2020,2064 2017,2069 2019,2074 2014,2081 2015,2087 2014,2093 2015,2097 2018,2100 2020,2109 2017,2111 2013,2112 2009,2112 2009,2119 2009,2122 2010,2127 2016,2137 2013,2148 2010,2149 2003,2148 2000,2149 1999,2156 1998,2164 2001,2167 2007,2169 2010,2171 2015,2172 2014,2176 2009,2178 2004,2176 2001,2179 1997,2179 1995,2182 1993,2188 1992,2194 1988,2197 1987,2209 1984,2212 1979,2217 1979,2222 1979,2225 1976,2227 1974,2232 1971,2234 1967,2237 1962,2239 1960,2243 1960,2248 1967,2250 1971,2251 1976,2254 1979,2261 1979,2273 1980,2280 1981,2288 1986,2295 1991,2298 1996,2297 2000,2300 2005,2298 2010,2293 2020,2287 2030,2284 2036,2273 2042,2271 2046,2271 2050,2274 2055,2276 2058,2274 2061,2270 2064,2268 2067,2272 2069,2276 2070,2280 2075,2281 2084,2280 2093,2279 2101,2280 2108,2279 2111,2285 2116,2292 2122,2303 2130,2307 2133,2300 2132,2292 2133,2288 2142,2288 2150,2289 2158,2288 2164,2285 2182,2284 2188,2284 2192,2284 2201,2284 2205,2288 2210,2290 2219,2302 2215,2306 2210,2318 2200,2331 2187,2337 2181,2340 2178,2345 2179,2350 2177,2358 2170,2364 2166,2368 2155,2370 2146,2378 2136,2382 2128,2386 2129,2392 2132,2399 2131,2403 2124,2408 2108,2428 2104,2438 2102,2450 2101,2462 2104,2465 2107,2468 2108,2473 2106,2479 2104,2483 2090,2499 2088,2505 2083,2521 2080,2533 2075,2539 2068,2542 2060,2546 2047,2548 2040,2552 2029,2557 2025,2558 2018,2567 2015,2571 2010,2578 2002,2580 1996,2584 1996,2588 2000,2600 2000,2607 2001,2615 1998,2618 1994,2620 1991,2624 1988,2632 1984,2632 1980,2630 1970,2631 1962,2632 1956,2625 1951,2618 1943,2615 1935,2611 1929,2612 1924,2609 1912,2604 1894,2599 1873,2596 1865,2592 1859,2592 1854,2592 1848,2592 1842,2595 1816,2595 1803,2595 1792,2598 1786,2603 1782,2609 1773,2620 1772,2627 1767,2631 1761,2627 1756,2622 1744,2620 1740,2620 1735,2624 1729,2628 1721,2632 1707,2635 1702,2633 1693,2632 1688,2632 1678,2635 1669,2633 1665,2631 1657,2632 1653,2627 1650,2619 1643,2618 1642,2623 1643,2628 1645,2634 1648,2641 1643,2647 1636,2645 1632,2639 1632,2631 1630,2626 1625,2625 1620,2628 1613,2638 1611,2649 1611,2657 1608,2670 1604,2675 1600,2677 1595,2675 1591,2678 1591,2685 1590,2690 1586,2699 1584,2703 1583,2706 1578,2710 1570,2713 1564,2716 1555,2721 1550,2726 1543,2734 1539,2741 1537,2747 1530,2742 1526,2737 1522,2731 1518,2727 1513,2728 1507,2724 1500,2723 1471,2726 1451,2726 1443,2722 1439,2718 1438,2710 1435,2705 1432,2700 1429,2698 1425,2699 1420,2696 1419,2687 1418,2683 1415,2675 1413,2665 1411,2659 1406,2652 1400,2648 1395,2640 1387,2634 1376,2635 1365,2637 1355,2636 1349,2633 1344,2626 1341,2619 1339,2612 1337,2609 1335,2606 1329,2603 1319,2600 1313,2594 1304,2586 1295,2578 1286,2573 1277,2563 1277,2554 1281,2546 1286,2535 1282,2528 1280,2523 1281,2519 1284,2516 1287,2513 1291,2506 1295,2488 1301,2480 1307,2471 1314,2457 1314,2449 1313,2443 1309,2439 1303,2433 1289,2423 1284,2419 1282,2413 1279,2411 1274,2412 1270,2412 1267,2412 1267,2408 1267,2402 1263,2392 1260,2385 1259,2382 1256,2378 1253,2374 1253,2369 1261,2366 1260,2360 1263,2353 1263,2349 1257,2347 1252,2339 1248,2333 1250,2326 1246,2326 1243,2326 1239,2329 1234,2327 1234,2324 1229,2322 1222,2322 1219,2318 1220,2312 1222,2308 1217,2300 1213,2297 1201,2292 1195,2283 1192,2276 1188,2270 1187,2266 1187,2262 1190,2258 1195,2254 1199,2247 1197,2243 1194,2238 1184,2229 1180,2222 1182,2214 1185,2209 1189,2199 1187,2186 1187,2181 1182,2178 1174,2172 1170,2166 1165,2155 1154,2139 1145,2123 1137,2113 1131,2101 1126,2091 1123,2080 1119,2074 1115,2066 1112,2061 1111,2054 1107,2047 1101,2040 1092,2034 1082,2027 1077,2020 1079,2013 1083,2008 1083,2004 1081,1999 1080,1989 1078,1978 1075,1969 1068,1962 1058,1960 1041,1956 1033,1953 1027,1948 1022,1936 1018,1923 1019,1910 1022,1894 1026,1876 1027,1870 1027,1856 1023,1847 1019,1843 1008,1842 996,1843 984,1851 975,1856 967,1855 953,1846 942,1843 933,1847 925,1852 905,1856 892,1856 885,1855 878,1849 869,1846 856,1844 851,1842 850,1839 848,1830 845,1810 843,1798 837,1785 835,1781 829,1778 819,1775 807,1774 796,1775 789,1783 779,1788 772,1791 768,1794 765,1800 764,1806 765,1813 762,1822 758,1829 753,1837 747,1844 741,1853 735,1861 722,1877 711,1887 700,1896 687,1907 680,1911 668,1915 655,1917 646,1917 626,1924 611,1930 599,1936 595,1943 596,1949 601,1955 604,1961 603,1966 595,1971 581,1978 557,1978 545,1981 529,1986 511,1988 499,1986 484,1981 471,1978 460,1975 451,1973 442,1971 412,1957 400,1954 388,1952 387,1939 387,1927 381,1913 376,1911 365,1905 361,1902 360,1897 360,1889 361,1877 372,1859 371,1854 367,1842 364,1838 357,1837 350,1838 345,1840 340,1839 337,1835 335,1827 332,1823 331,1816 339,1812 344,1810 360,1798 366,1793 371,1786 375,1779 378,1771 379,1763 378,1755 370,1746 360,1737 358,1736 338,1736 320,1737 311,1741 303,1746 284,1747 277,1753 275,1760 275,1771 278,1785 276,1798 270,1808 262,1814 253,1817 240,1816 231,1811 223,1802 216,1786 214,1781 207,1778 202,1775 193,1771 184,1769 173,1765 172,1762 171,1753 173,1742 177,1730 181,1717 179,1709 171,1709 161,1712 150,1717 138,1720 130,1718 123,1719 116,1719 104,1724 94,1726 89,1725 85,1720 85,1712 97,1698 119,1675 134,1654 146,1641 162,1631 175,1626 192,1623 216,1621 242,1618 249,1613 253,1605 252,1595 243,1581 229,1566 220,1559 200,1555 192,1554 185,1550 184,1542 184,1533 189,1516 195,1502 207,1484 219,1468 229,1458 240,1447 252,1442 260,1439 269,1435 278,1421 284,1412 291,1403 305,1395 319,1397 330,1406 345,1426 352,1441 357,1452 357,1476 355,1481 356,1484 363,1484 371,1483 379,1483 391,1482 396,1484 398,1489 398,1495 394,1501 391,1505 388,1507 381,1516 377,1522 378,1528 382,1537 388,1540 399,1535 410,1528 412,1525 415,1522 427,1505 433,1489 435,1484 435,1478 434,1468 430,1454 428,1449 427,1444 427,1438 431,1433 442,1433 450,1434 472,1439 491,1438 511,1436 523,1437 537,1438 543,1441 550,1442 563,1441 576,1439 593,1440 611,1445 628,1441 637,1437 648,1430 656,1416 660,1409 664,1402 662,1393 660,1381 653,1369 647,1360 646,1347 644,1339 644,1334 639,1325 632,1318 616,1312 613,1311 606,1314 595,1318 585,1326 574,1327 559,1330 540,1324 523,1319 523,1309 523,1300 520,1294 505,1291 494,1293 489,1305 487,1316 483,1317 476,1316 467,1309 458,1304 449,1304 440,1311 432,1320 428,1325 419,1321 412,1315 409,1308 414,1300 425,1291 440,1281 450,1271 454,1261 458,1250 464,1245 473,1242 488,1243 504,1247 516,1244 522,1233 522,1228 519,1223 509,1216 515,1206 521,1199 527,1192 535,1190 542,1195 550,1199 564,1209 576,1210 581,1210 586,1209 590,1207 593,1202 594,1194 595,1188 591,1178 591,1165 594,1157 601,1152 608,1150 622,1143 639,1128 648,1117 652,1106 648,1103 643,1097 634,1093 622,1087 613,1078 600,1064 586,1056 576,1055 568,1050 560,1043 544,1039 529,1038 513,1038 502,1034 494,1028 484,1026 475,1024 466,1021 461,1016 458,1008 456,996 454,985 450,974 443,961 438,955 431,951 421,946 415,941 406,932 396,926 384,922 372,920 358,921 355,922 350,921 336,924 330,931 326,934 321,941 312,945 307,946 298,954 287,957 265,950 260,944 259,936 260,921 259,912 257,909 251,904 240,902 226,899 214,892 206,888 199,890 195,894 187,901 180,910 172,925 168,930 163,931 160,930 154,924 155,919 162,911 164,907 164,899 165,895 165,887 171,877 174,875 175,872 176,865 180,854 190,838 195,824 198,806 199,775 201,752 201,725 199,715 201,708 207,706 223,709 232,710 239,708 246,705 243,700 239,689 237,685 234,674 233,666 238,653 238,649 235,645 230,642 228,645 215,646 205,638 194,630 182,627 176,622 169,619 161,619 155,620 144,620 135,622 125,625 122,629 118,622 110,616 103,615 88,618 75,623 63,623 50,628 27,636 19,640 11,640 5,641 5,634 6,630 9,624 11,620 9,613 1,606 3,601 7,594 7,590 1,583 0,578 1,575 5,572 8,571 11,566 18,561 21,554 24,543 26,538 32,532 36,528 48,522 58,515 74,501 81,491 84,481 87,474 94,467 105,462 109,461 112,457 121,456 128,450 129,440 132,429 135,424 142,425 153,434 159,434 165,434 177,438 188,437 191,433 199,410 205,397 208,393 213,395 221,401 226,408 229,409 233,403 239,400 246,396 258,396 276,394 294,392 302,391 313,385 320,383 333,386 338,393 344,402 357,409 374,412 384,415 392,422 404,424 410,419 411,409 412,400 413,393 419,385 428,378 436,371 444,365 451,358 464,353 470,348 473,341 474,333 482,331 496,333 508,337 525,341 532,344 534,351 537,360 544,368 557,374 576,378 593,379 601,381 608,384 612,388 613,395 613,401 611,409 607,417 597,428 600,437 609,439 613,439 623,440 630,443 635,451 642,455 650,458 662,459 668,456 670,451 671,444 671,433 675,426 686,421 700,419 710,413 716,404 718,396 719,383 717,377 707,368 701,360 700,352 701,347 711,345 740,347 757,348 765,346 767,343 766,336 762,331 755,323 741,302 731,294 719,283 712,274 710,265 711,256 712,251 714,242 719,236 726,230 739,227 750,228 764,231 773,240 784,259 795,275 805,286 815,290 819,292 835,294 858,298 882,301 895,301 903,302 909,300 912,294 913,285 913,278 909,274 902,271 897,269 895,264 895,258 898,254 905,251 909,250 911,240 912,233 911,228 909,224 911,217 915,212 929,208 936,206 942,200 944,193 943,185 946,175 949,165 951,155 955,146 962,140 970,134 982,129 997,121 1005,115 1011,112 1015,107 1026,83 1036,65 1040,57 1044,54 1050,54 1053,52 1057,41 1059,29 1063,21 1067,17 1074,16 1082,15 1096,10 1124,1 1132,0 1137,3 " class="polyStyle" id="450423" style="fill:#ee8b94"/>
<path d="" class="polyStyle" id="" style="fill:#fbe6ef"/>
<path d="" class="polyStyle" id="451224" style="fill:#fbe6ef"/>
<path d="" class="polyStyle" id="350627" style="fill:#f6f67b"/>
<path d="" class="polyStyle" id="" style="fill:#f6f67b"/>
<path d="" class="polyStyle" id="350525" style="fill:#f6f67b"/>
<path d="" class="polyStyle" id="530124" style="fill:#ee8b94"/>
<path d="" class="polyStyle" id="522627" style="fill:#ee8b94"/>
<path d="" class="polyStyle" id="510421" style="fill:#fbe6ef"/>
<path d="" class="polyStyle" id="522623" style="fill:#d4ecb2"/>
<path d="" class="polyStyle" id="430321" style="fill:#d4ecb2"/>
<path d="" class="polyStyle" id="511129" style="fill:#d4ecb2"/>
<path d="" class="polyStyle" id="511423" style="fill:#ee8b94"/>
<path d="" class="polyStyle" id="421023" style="fill:#f6f67b"/>
<path d="" class="polyStyle" id="511724" style="fill:#f6f67b"/>
<path d="" class="polyStyle" id="420526" style="fill:#fbe6ef"/>
<path d="" class="polyStyle" id="511923" style="fill:#fbe6ef"/>
<path d="" class="polyStyle" id="420325" style="fill:#fbe6ef"/>
<path d="" class="polyStyle" id="511921" style="fill:#f6f67b"/>
<path d="" class="polyStyle" id="542525" style="fill:#f6f67b"/>
<path d="" class="polyStyle" id="611026" style="fill:#ee8b94"/>
<path d="" class="polyStyle" id="411023" style="fill:#fbe6ef"/>
<path d="" class="polyStyle" id="632323" style="fill:#f6f67b"/>
<path d="" class="polyStyle" id="140525" style="fill:#d4ecb2"/>
<path d="" class="polyStyle" id="410922" style="fill:#ee8b94"/>
<path d="" class="polyStyle" id="621027" style="fill:#ee8b94"/>
<path d="" class="polyStyle" id="130427" style="fill:#f6f67b"/>
<path d="" class="polyStyle" id="130121" style="fill:#ee8b94"/>
<path d="" class="polyStyle" id="610823" style="fill:#fbe6ef"/>
<path d="" class="polyStyle" id="130225" style="fill:#fbe6ef"/>
<path d="" class="polyStyle" id="130322" style="fill:#d4ecb2"/>
<path d="" class="polyStyle" id="653130" style="fill:#f6f67b"/>
<path d="" class="polyStyle" id="130822" style="fill:#fbe6ef"/>
<path d="" class="polyStyle" id="211221" style="fill:#f6f67b"/>
<path d="" class="polyStyle" id="210921" style="fill:#f6f67b"/>
<path d="" class="polyStyle" id="150223" style="fill:#f8c67d"/>
<path d="" class="polyStyle" id="220422" style="fill:#d4ecb2"/>
<path d="" class="polyStyle" id="340721" style="fill:#f6f67b"/>
<path d="" class="polyStyle" id="510824" style="fill:#d4ecb2"/>
<path d="" class="polyStyle" id="610324" style="fill:#f6f67b"/>
<path d="" class="polyStyle" id="530722" style="fill:#ee8b94"/>
<path d="" class="polyStyle" id="340823" style="fill:#d4ecb2"/>
<path d="" class="polyStyle" id="620825" style="fill:#d4ecb2"/>
<path d="" class="polyStyle" id="421125" style="fill:#ee8b94"/>
<path d="" class="polyStyle" id="210281" style="fill:#ee8b94"/>
<path d="" class="polyStyle" id="440883" style="fill:#f6f67b"/>
<path d="" class="polyStyle" id="469006" style="fill:#d4ecb2"/>
<path d="" class="polyStyle" id="469002" style="fill:#ee8b94"/>
<path d="" class="polyStyle" id="469005" style="fill:#fbe6ef"/>
<path d="" class="polyStyle" id="440882" style="fill:#ee8b94"/>
<path d="" class="polyStyle" id="450681" style="fill:#ee8b94"/>
<path d="" class="polyStyle" id="441581" style="fill:#d4ecb2"/>
<polygon points="3109,5999 3117,6002 3122,6006 3128,6011 3134,6014 3137,6013 3142,6014 3146,6016 3151,6016 3155,6018 3160,6020 3167,6019 3167,6016 3172,6009 3182,6006 3192,6007 3197,6007 3205,6006 3208,6008 3208,6012 3212,6022 3213,6027 3212,6033 3207,6034 3205,6037 3202,6040 3204,6045 3206,6053 3206,6060 3205,6065 3205,6069 3208,6075 3212,6081 3210,6086 3208,6090 3202,6095 3202,6104 3205,6107 3212,6105 3215,6103 3217,6117 3217,6120 3215,6127 3216,6131 3220,6136 3226,6139 3226,6143 3222,6146 3217,6150 3214,6153 3213,6157 3206,6161 3198,6168 3194,6169 3189,6172 3187,6177 3191,6181 3197,6186 3207,6190 3217,6195 3223,6200 3226,6204 3225,6208 3222,6211 3222,6214 3224,6220 3230,6223 3234,6224 3241,6228 3243,6232 3245,6242 3250,6248 3258,6253 3261,6256 3264,6260 3268,6264 3272,6268 3277,6271 3282,6271 3288,6272 3295,6278 3304,6280 3314,6280 3320,6283 3325,6285 3335,6285 3342,6285 3345,6285 3350,6281 3351,6277 3356,6276 3361,6277 3364,6278 3370,6285 3371,6288 3372,6291 3377,6292 3386,6297 3391,6302 3397,6303 3405,6295 3423,6284 3449,6273 3464,6272 3470,6271 3498,6270 3525,6270 3539,6263 3580,6246 3594,6236 3601,6220 3628,6189 3633,6183 3640,6174 3650,6171 3664,6172 3668,6174 3676,6174 3684,6186 3694,6199 3701,6211 3715,6206 3726,6212 3712,6227 3718,6246 3730,6256 3751,6258 3767,6254 3770,6254 3784,6254 3795,6254 3807,6255 3816,6261 3829,6264 3854,6269 3870,6273 3899,6271 3916,6263 3921,6262 3943,6257 3958,6257 3969,6256 3966,6271 3967,6293 3976,6307 3981,6316 3981,6327 3983,6337 3981,6347 3976,6371 3982,6377 3988,6383 3989,6393 3981,6399 3981,6407 3995,6422 4008,6438 4058,6436 4064,6412 4062,6388 4078,6389 4086,6389 4096,6410 4113,6394 4134,6379 4148,6394 4162,6398 4166,6399 4171,6394 4197,6411 4206,6412 4217,6412 4233,6406 4240,6405 4266,6423 4291,6419 4288,6399 4289,6394 4300,6375 4329,6374 4335,6381 4343,6384 4365,6399 4390,6406 4399,6385 4405,6369 4416,6371 4425,6364 4437,6363 4442,6377 4436,6395 4451,6425 4477,6457 4474,6468 4464,6482 4467,6490 4486,6482 4498,6480 4535,6497 4556,6504 4587,6523 4614,6546 4615,6555 4612,6561 4595,6579 4591,6599 4595,6616 4595,6631 4592,6633 4589,6636 4576,6640 4550,6639 4543,6643 4533,6647 4533,6652 4534,6655 4540,6661 4548,6668 4548,6682 4547,6688 4541,6705 4546,6708 4566,6720 4582,6716 4589,6703 4594,6699 4602,6699 4610,6702 4632,6720 4645,6733 4661,6740 4684,6726 4708,6723 4721,6737 4733,6722 4736,6719 4739,6724 4747,6740 4755,6739 4764,6729 4774,6731 4793,6737 4799,6742 4799,6752 4800,6763 4800,6766 4801,6788 4810,6803 4829,6826 4833,6834 4844,6837 4843,6850 4842,6860 4841,6865 4827,6899 4822,6918 4814,6930 4820,6939 4854,6990 4898,6968 4929,6966 4933,6969 4949,6986 4963,6985 4991,6982 4997,7002 4995,7011 4992,7022 5019,7010 5026,6990 5024,6972 5025,6969 5055,6961 5077,6973 5089,6979 5101,6990 5104,6992 5116,7002 5124,7008 5131,7014 5150,7029 5155,7035 5158,7040 5163,7050 5168,7060 5173,7064 5177,7078 5176,7088 5167,7101 5160,7112 5145,7126 5132,7142 5133,7147 5150,7159 5157,7170 5158,7180 5163,7188 5177,7186 5185,7187 5180,7197 5182,7213 5192,7233 5210,7267 5210,7271 5192,7285 5192,7293 5198,7301 5212,7307 5226,7315 5236,7327 5238,7337 5238,7342 5240,7363 5238,7387 5230,7405 5208,7435 5198,7447 5188,7461 5176,7483 5172,7495 5170,7503 5168,7511 5168,7529 5172,7559 5170,7569 5164,7579 5136,7601 5122,7617 5108,7627 5076,7667 5064,7681 5050,7687 5000,7691 4994,7695 5000,7713 5002,7731 4992,7751 4968,7767 4952,7767 4938,7775 4922,7801 4910,7803 4892,7803 4884,7803 4880,7813 4886,7837 4878,7855 4860,7873 4838,7881 4818,7877 4810,7883 4814,7919 4818,7953 4822,7963 4826,7975 4826,7989 4822,7999 4808,8009 4786,8007 4770,8013 4740,8027 4734,8041 4732,8067 4728,8083 4714,8081 4700,8069 4692,8063 4680,8055 4668,8053 4658,8053 4650,8061 4644,8083 4626,8095 4594,8107 4574,8127 4558,8153 4554,8189 4544,8205 4518,8243 4498,8259 4486,8269 4466,8281 4460,8283 4438,8283 4420,8279 4410,8277 4390,8273 4384,8275 4384,8279 4384,8283 4380,8309 4376,8325 4366,8333 4298,8345 4272,8345 4256,8341 4246,8331 4238,8329 4226,8323 4186,8317 4147,8315 4132,8315 4122,8315 4118,8315 4112,8321 4110,8329 4106,8333 4094,8341 4080,8345 4068,8341 4004,8329 3994,8325 3978,8319 3964,8313 3950,8299 3942,8303 3940,8319 3924,8323 3890,8323 3864,8321 3854,8323 3848,8329 3842,8359 3840,8365 3832,8369 3810,8367 3796,8369 3782,8375 3741,8366 3738,8363 3724,8373 3672,8369 3662,8373 3656,8381 3654,8387 3652,8391 3668,8391 3676,8419 3722,8439 3776,8473 3788,8483 3790,8497 3784,8525 3794,8537 3816,8549 3820,8557 3820,8573 3816,8583 3802,8585 3796,8591 3772,8643 3762,8663 3752,8679 3740,8693 3726,8697 3688,8695 3680,8697 3674,8707 3672,8713 3662,8763 3658,8773 3650,8781 3636,8781 3624,8781 3610,8779 3592,8781 3578,8783 3568,8785 3560,8793 3544,8799 3526,8801 3512,8799 3505,8778 3489,8773 3474,8779 3456,8791 3418,8827 3394,8833 3382,8837 3372,8843 3366,8849 3358,8865 3350,8869 3338,8867 3330,8861 3318,8843 3309,8824 3298,8817 3288,8815 3276,8815 3266,8817 3246,8823 3222,8831 3196,8835 3162,8835 3156,8839 3164,8859 3168,8873 3172,8891 3170,8911 3162,8933 3140,8959 3132,8965 3120,8973 3094,8981 3080,8985 3056,8987 3018,8985 3002,8979 2984,8967 2976,8965 2962,8961 2898,8959 2854,8959 2852,8962 2848,8946 2842,8942 2826,8938 2807,8929 2805,8922 2803,8916 2798,8916 2793,8916 2788,8913 2783,8902 2781,8885 2781,8881 2784,8872 2792,8862 2806,8845 2812,8816 2807,8797 2803,8794 2788,8778 2770,8753 2757,8725 2754,8716 2754,8707 2750,8700 2744,8693 2736,8685 2728,8678 2722,8679 2717,8678 2705,8666 2697,8650 2692,8639 2688,8625 2676,8602 2662,8580 2654,8579 2647,8578 2635,8569 2626,8556 2621,8544 2617,8530 2610,8514 2604,8502 2601,8499 2589,8496 2570,8500 2560,8505 2546,8505 2530,8502 2510,8493 2491,8476 2493,8471 2491,8461 2489,8454 2480,8454 2464,8457 2451,8450 2438,8448 2424,8448 2406,8447 2392,8441 2381,8445 2374,8454 2351,8459 2332,8461 2329,8452 2333,8442 2335,8429 2334,8424 2326,8416 2314,8410 2306,8409 2300,8406 2296,8403 2294,8395 2295,8391 2299,8388 2305,8383 2309,8377 2314,8373 2313,8358 2320,8352 2324,8343 2327,8332 2326,8321 2321,8309 2314,8301 2305,8294 2291,8293 2278,8291 2267,8287 2259,8280 2257,8263 2252,8251 2243,8226 2241,8208 2249,8192 2256,8186 2260,8181 2262,8173 2264,8170 2263,8150 2263,8143 2269,8126 2273,8113 2283,8105 2287,8092 2286,8089 2291,8079 2290,8067 2298,8053 2306,8042 2305,8031 2294,8026 2292,8019 2295,8012 2294,8002 2301,7999 2316,8002 2322,7995 2322,7984 2317,7975 2320,7970 2333,7961 2337,7953 2338,7945 2340,7938 2343,7934 2352,7911 2355,7903 2354,7891 2353,7888 2353,7878 2355,7868 2356,7862 2357,7856 2358,7845 2358,7833 2364,7825 2368,7816 2375,7807 2377,7796 2371,7789 2365,7780 2360,7774 2360,7761 2352,7743 2337,7736 2329,7734 2321,7733 2311,7734 2301,7735 2287,7735 2281,7735 2274,7737 2270,7742 2263,7751 2252,7760 2244,7767 2232,7784 2230,7798 2227,7800 2208,7807 2184,7799 2167,7781 2154,7777 2146,7769 2143,7767 2137,7756 2131,7743 2120,7736 2110,7735 2095,7739 2087,7733 2083,7723 2086,7713 2089,7708 2092,7703 2086,7697 2064,7696 2057,7692 2053,7689 2053,7678 2059,7667 2060,7661 2062,7652 2056,7640 2057,7630 2053,7626 2041,7614 2033,7598 2014,7590 2012,7580 2010,7569 2018,7561 2018,7546 2022,7523 1996,7518 1993,7505 2000,7495 2014,7489 2028,7488 2037,7469 2038,7466 2036,7447 2031,7430 2024,7418 2002,7409 2002,7404 2002,7392 2010,7370 2029,7361 2056,7326 2064,7304 2079,7286 2098,7266 2118,7261 2137,7261 2159,7261 2178,7257 2196,7260 2212,7240 2206,7215 2205,7211 2181,7189 2178,7188 2160,7176 2142,7176 2134,7163 2130,7157 2139,7146 2138,7140 2135,7129 2127,7119 2122,7109 2121,7101 2121,7095 2121,7076 2139,7050 2152,7040 2154,7028 2155,7013 2148,7004 2136,6994 2129,6986 2127,6978 2131,6973 2139,6969 2148,6962 2157,6954 2160,6948 2162,6940 2163,6930 2163,6921 2160,6913 2157,6905 2151,6900 2142,6897 2136,6885 2127,6874 2116,6872 2113,6868 2110,6857 2105,6852 2098,6838 2097,6833 2101,6826 2106,6821 2112,6816 2115,6809 2123,6798 2119,6795 2115,6795 2111,6795 2105,6788 2102,6780 2102,6772 2102,6764 2097,6754 2092,6753 2081,6750 2076,6743 2071,6740 2070,6734 2075,6730 2081,6727 2098,6719 2108,6714 2122,6716 2131,6716 2141,6716 2150,6720 2156,6725 2160,6727 2167,6719 2172,6716 2174,6706 2161,6697 2153,6688 2144,6678 2138,6671 2128,6663 2126,6660 2129,6657 2138,6652 2145,6649 2157,6647 2163,6647 2173,6642 2181,6642 2189,6638 2187,6634 2188,6630 2191,6624 2188,6620 2177,6612 2173,6605 2170,6602 2169,6598 2169,6592 2172,6587 2177,6583 2184,6578 2188,6575 2193,6571 2195,6568 2202,6567 2208,6567 2217,6567 2221,6569 2229,6565 2233,6567 2236,6568 2239,6569 2245,6564 2249,6561 2253,6559 2257,6558 2261,6558 2264,6554 2264,6550 2266,6547 2271,6539 2272,6532 2273,6526 2276,6520 2281,6513 2287,6503 2288,6495 2288,6488 2286,6484 2288,6476 2292,6468 2295,6466 2298,6467 2302,6468 2308,6468 2314,6471 2321,6468 2326,6468 2332,6464 2335,6463 2342,6464 2348,6458 2353,6451 2356,6449 2359,6450 2361,6453 2362,6457 2362,6461 2365,6464 2373,6463 2378,6463 2387,6465 2395,6467 2398,6463 2395,6456 2394,6451 2395,6445 2397,6434 2400,6429 2401,6420 2401,6411 2401,6406 2402,6403 2407,6403 2418,6409 2422,6412 2430,6417 2438,6415 2443,6416 2450,6412 2454,6410 2458,6405 2461,6399 2471,6391 2478,6389 2482,6390 2488,6392 2496,6395 2507,6395 2518,6391 2520,6388 2525,6388 2534,6387 2539,6383 2543,6381 2552,6379 2557,6382 2560,6387 2564,6390 2572,6392 2582,6398 2591,6398 2597,6399 2598,6405 2595,6412 2592,6418 2588,6423 2585,6431 2585,6438 2586,6443 2592,6450 2598,6455 2598,6461 2596,6465 2597,6471 2600,6477 2607,6481 2613,6481 2621,6476 2625,6473 2629,6469 2637,6468 2644,6474 2653,6482 2665,6492 2671,6498 2677,6504 2685,6509 2689,6504 2693,6500 2695,6494 2696,6487 2694,6479 2691,6474 2692,6468 2693,6461 2697,6454 2701,6449 2700,6441 2698,6432 2696,6428 2691,6423 2683,6416 2683,6409 2681,6402 2679,6399 2675,6396 2677,6393 2680,6388 2680,6378 2678,6372 2676,6368 2672,6361 2667,6353 2664,6346 2662,6340 2662,6333 2660,6329 2656,6326 2646,6323 2637,6323 2634,6322 2627,6320 2622,6316 2620,6310 2620,6307 2616,6304 2615,6299 2615,6292 2619,6285 2626,6282 2629,6279 2632,6274 2634,6269 2643,6260 2639,6253 2635,6246 2628,6240 2622,6234 2620,6227 2623,6220 2632,6213 2637,6209 2638,6205 2638,6202 2640,6196 2644,6194 2650,6192 2656,6187 2662,6183 2668,6175 2670,6167 2671,6161 2678,6156 2684,6151 2691,6148 2698,6148 2701,6148 2705,6145 2707,6135 2707,6124 2707,6117 2702,6107 2704,6098 2709,6096 2726,6096 2733,6093 2739,6092 2744,6093 2754,6100 2758,6102 2774,6109 2784,6112 2790,6112 2798,6112 2804,6109 2805,6105 2806,6102 2811,6097 2818,6094 2823,6092 2826,6088 2827,6083 2827,6080 2829,6074 2836,6072 2842,6071 2853,6064 2856,6062 2861,6066 2868,6073 2880,6078 2883,6083 2892,6089 2898,6090 2904,6090 2914,6091 2923,6090 2930,6085 2932,6081 2934,6078 2940,6076 2943,6076 2947,6076 2954,6071 2966,6067 2976,6065 2987,6058 2994,6050 2999,6044 3000,6040 3006,6040 3009,6036 3007,6033 2998,6028 2993,6026 2991,6022 2987,6019 2976,6019 2968,6020 2964,6020 2964,6013 2971,6011 2985,6010 2996,6009 3008,6006 3016,6001 3024,5993 3035,5993 3050,5993 3060,5993 3064,5994 3066,5999 3071,6004 3077,6004 3081,6004 3087,6003 3089,5999 3089,5993 3096,5994 " class="polyStyle" id="450481" style="fill:#ee8b94"/>
<path d="" class="polyStyle" id="421087" style="fill:#ee8b94"/>
<path d="" class="polyStyle" id="420984" style="fill:#fbe6ef"/>
<path d="" class="polyStyle" id="420582" style="fill:#ee8b94"/>
<path d="" class="polyStyle" id="370282" style="fill:#f6f67b"/>
<path d="" class="polyStyle" id="371083" style="fill:#f6f67b"/>
<path d="" class="polyStyle" id="371082" style="fill:#fbe6ef"/>
<path d="" class="polyStyle" id="652801" style="fill:#f8c67d"/>
<path d="" class="polyStyle" id="654301" style="fill:#ee8b94"/>
<path d="" class="polyStyle" id="370687" style="fill:#ee8b94"/>
<path d="" class="polyStyle" id="371482" style="fill:#d4ecb2"/>
<path d="" class="polyStyle" id="421081" style="fill:#fbe6ef"/>
<path d="" class="polyStyle" id="429006" style="fill:#f6f67b"/>
<path d="" class="polyStyle" id="440982" style="fill:#d4ecb2"/>
<path d="" class="polyStyle" id="421181" style="fill:#d4ecb2"/>
<path d="" class="polyStyle" id="321181" style="fill:#d4ecb2"/>
<path d="" class="polyStyle" id="659007" style="fill:#ee8b94"/>
<path d="" class="polyStyle" id="652701" style="fill:#fbe6ef"/>
<path d="" class="polyStyle" id="210781" style="fill:#fbe6ef"/>
<path d="" class="polyStyle" id="460204" style="fill:#f6f67b"/>
<path d="" class="polyStyle" id="210211" style="fill:#f6f67b"/>
<path d="" class="polyStyle" id="450512" style="fill:#ee8b94"/>
<path d="" class="polyStyle" id="450602" style="fill:#fbe6ef"/>
<path d="" class="polyStyle" id="440404" style="fill:#ee8b94"/>
<path d="" class="polyStyle" id="440403" style="fill:#f6f67b"/>
<path d="" class="polyStyle" id="441502" style="fill:#f6f67b"/>
<polygon points="4727,4763 4745,4774 4756,4782 4762,4798 4776,4809 4785,4809 4791,4809 4799,4809 4807,4802 4829,4795 4857,4805 4866,4812 4881,4815 4887,4823 4885,4832 4889,4840 4893,4847 4904,4856 4915,4865 4917,4886 4919,4893 4923,4893 4931,4892 4935,4902 4948,4907 4954,4914 4975,4914 4986,4912 4995,4909 5003,4909 5008,4908 5016,4916 5040,4920 5052,4909 5092,4906 5097,4902 5108,4902 5117,4906 5129,4906 5153,4919 5173,4913 5189,4916 5198,4938 5211,4944 5217,4953 5232,4970 5251,4966 5259,4964 5282,4978 5296,4985 5296,4989 5284,5011 5280,5025 5286,5033 5322,5061 5332,5067 5332,5083 5326,5111 5322,5143 5314,5145 5300,5155 5268,5169 5252,5179 5246,5197 5244,5231 5236,5249 5206,5281 5196,5307 5190,5329 5182,5367 5180,5381 5178,5389 5178,5403 5182,5411 5192,5425 5228,5439 5244,5447 5254,5453 5260,5457 5262,5465 5262,5475 5254,5501 5252,5507 5236,5521 5218,5529 5200,5539 5182,5549 5176,5561 5170,5571 5158,5581 5148,5585 5136,5583 5130,5589 5130,5601 5146,5607 5152,5617 5150,5627 5138,5633 5124,5643 5114,5661 5112,5681 5120,5693 5132,5695 5150,5691 5170,5683 5184,5679 5200,5687 5208,5693 5218,5701 5226,5709 5230,5715 5230,5721 5222,5761 5210,5785 5198,5801 5192,5819 5196,5835 5212,5855 5242,5885 5252,5901 5252,5925 5250,5941 5256,5949 5272,5959 5296,5961 5308,5969 5310,5975 5308,5989 5294,6041 5282,6077 5282,6091 5282,6105 5284,6123 5284,6177 5288,6193 5302,6197 5338,6187 5352,6193 5360,6213 5358,6237 5340,6249 5310,6261 5270,6273 5234,6285 5210,6291 5188,6307 5190,6317 5226,6317 5246,6325 5254,6371 5256,6381 5266,6387 5278,6391 5282,6399 5278,6407 5260,6415 5254,6425 5252,6465 5244,6517 5238,6565 5238,6581 5248,6595 5264,6613 5284,6627 5322,6649 5368,6667 5416,6689 5450,6697 5478,6691 5494,6685 5518,6667 5532,6663 5538,6667 5544,6673 5542,6685 5534,6699 5516,6715 5506,6737 5506,6765 5510,6771 5516,6775 5538,6795 5548,6815 5544,6837 5520,6863 5494,6861 5476,6873 5452,6903 5446,6919 5448,6935 5442,6945 5408,6951 5370,6959 5342,6973 5324,6985 5316,6998 5316,7013 5324,7029 5350,7047 5368,7057 5382,7067 5386,7071 5384,7079 5356,7117 5348,7121 5312,7143 5292,7153 5266,7167 5248,7177 5228,7183 5188,7183 5186,7185 5185,7187 5177,7186 5163,7188 5158,7180 5157,7170 5150,7159 5133,7147 5132,7142 5145,7126 5160,7112 5167,7101 5176,7088 5177,7078 5173,7064 5168,7060 5163,7050 5158,7040 5155,7035 5150,7029 5131,7014 5124,7008 5116,7002 5104,6992 5101,6990 5089,6979 5077,6973 5055,6961 5025,6969 5024,6972 5026,6990 5019,7010 4992,7022 4995,7011 4997,7002 4991,6982 4963,6985 4949,6986 4933,6969 4929,6966 4898,6968 4854,6990 4820,6939 4814,6930 4822,6918 4827,6899 4841,6865 4842,6860 4843,6850 4844,6837 4833,6834 4829,6826 4810,6803 4801,6788 4800,6766 4800,6763 4799,6752 4799,6742 4793,6737 4774,6731 4764,6729 4755,6739 4747,6740 4739,6724 4736,6719 4733,6722 4721,6737 4708,6723 4684,6726 4661,6740 4645,6733 4632,6720 4610,6702 4602,6699 4594,6699 4589,6703 4582,6716 4566,6720 4546,6708 4541,6705 4547,6688 4548,6682 4548,6668 4540,6661 4534,6655 4533,6652 4533,6647 4543,6643 4550,6639 4576,6640 4589,6636 4592,6633 4595,6631 4595,6616 4591,6599 4595,6579 4612,6561 4615,6555 4614,6546 4587,6523 4556,6504 4535,6497 4498,6480 4486,6482 4467,6490 4464,6482 4474,6468 4477,6457 4451,6425 4436,6395 4442,6377 4437,6363 4425,6364 4416,6371 4405,6369 4399,6385 4390,6406 4365,6399 4343,6384 4335,6381 4329,6374 4300,6375 4289,6394 4288,6399 4291,6419 4266,6423 4240,6405 4233,6406 4217,6412 4206,6412 4197,6411 4171,6394 4166,6399 4162,6398 4148,6394 4134,6379 4113,6394 4096,6410 4086,6389 4078,6389 4062,6388 4064,6412 4058,6436 4008,6438 3995,6422 3981,6407 3981,6399 3989,6393 3988,6383 3982,6377 3976,6371 3981,6347 3983,6337 3981,6327 3981,6316 3976,6307 3967,6293 3966,6271 3969,6256 3972,6249 3985,6219 4003,6195 4008,6172 4003,6151 3997,6120 4001,6108 4008,6096 4022,6069 4031,6067 4042,6075 4054,6081 4057,6063 4060,6058 4064,6052 4077,6050 4094,6043 4098,6034 4097,6025 4095,6010 4086,5984 4080,5967 4083,5961 4098,5957 4103,5951 4098,5928 4098,5919 4101,5908 4115,5894 4128,5883 4127,5869 4153,5857 4158,5850 4178,5855 4184,5848 4163,5834 4161,5831 4153,5821 4126,5774 4113,5773 4115,5759 4128,5740 4128,5726 4152,5726 4159,5704 4151,5681 4145,5670 4125,5663 4125,5654 4118,5630 4117,5605 4119,5595 4111,5553 4113,5546 4136,5488 4130,5474 4123,5443 4117,5433 4110,5422 4097,5416 4092,5409 4097,5389 4099,5381 4092,5369 4090,5345 4086,5323 4094,5297 4096,5285 4115,5258 4134,5244 4158,5239 4175,5227 4198,5221 4208,5227 4211,5235 4228,5240 4243,5243 4259,5248 4287,5249 4305,5251 4323,5263 4336,5249 4347,5213 4348,5182 4337,5175 4334,5167 4331,5150 4349,5144 4338,5130 4326,5131 4313,5135 4304,5126 4306,5117 4299,5112 4281,5113 4268,5098 4269,5093 4274,5085 4278,5076 4279,5047 4281,5043 4289,5036 4295,5035 4291,5025 4272,5014 4260,5002 4257,4988 4256,4982 4259,4968 4252,4959 4250,4956 4248,4949 4252,4942 4249,4929 4281,4930 4307,4933 4360,4941 4412,4939 4497,4921 4590,4898 4626,4871 4678,4802 4707,4755 4719,4758 " class="polyStyle" id="450406" style="fill:#d4ecb2"/>
<polygon points="4335,3704 4350,3706 4381,3703 4413,3706 4429,3711 4451,3711 4454,3716 4450,3721 4457,3723 4460,3745 4470,3761 4451,3794 4431,3810 4433,3826 4428,3852 4441,3868 4419,3882 4420,3905 4401,3928 4407,3944 4411,3949 4424,3949 4429,3962 4437,3968 4501,3968 4483,3978 4480,3981 4482,3985 4495,3985 4526,3970 4525,3963 4536,3966 4535,3972 4546,3970 4546,3955 4558,3954 4585,3961 4585,3976 4598,3992 4600,4002 4608,4007 4605,4033 4614,4043 4608,4051 4610,4058 4606,4064 4591,4074 4597,4086 4602,4082 4624,4085 4629,4108 4626,4113 4617,4117 4598,4116 4589,4132 4588,4143 4591,4146 4574,4160 4574,4175 4569,4182 4575,4187 4578,4208 4554,4216 4543,4225 4502,4227 4496,4223 4482,4228 4475,4252 4460,4261 4454,4296 4459,4316 4470,4327 4503,4333 4529,4349 4650,4448 4734,4502 4740,4501 4747,4491 4763,4500 4796,4495 4801,4502 4805,4527 4800,4540 4821,4558 4824,4583 4833,4592 4831,4601 4815,4609 4812,4616 4813,4631 4823,4633 4829,4697 4787,4701 4753,4709 4720,4728 4711,4741 4707,4755 4678,4802 4626,4871 4590,4898 4497,4921 4412,4939 4360,4941 4307,4933 4281,4930 4249,4929 4223,4922 4208,4915 4172,4901 4149,4890 4141,4886 4177,4859 4189,4859 4213,4858 4222,4845 4213,4839 4207,4822 4224,4809 4245,4790 4258,4793 4279,4774 4295,4749 4295,4723 4303,4701 4326,4691 4346,4682 4368,4661 4381,4617 4373,4611 4367,4598 4357,4584 4352,4583 4334,4578 4320,4572 4302,4562 4294,4553 4288,4537 4278,4531 4258,4555 4237,4563 4219,4557 4189,4561 4171,4550 4156,4546 4139,4550 4097,4545 4081,4535 4076,4502 4073,4480 4046,4453 4028,4440 4004,4418 3988,4420 3959,4453 3939,4434 3921,4410 3898,4402 3874,4375 3851,4370 3842,4371 3837,4385 3818,4388 3806,4364 3802,4343 3786,4323 3768,4315 3763,4289 3769,4268 3751,4254 3748,4252 3741,4248 3746,4244 3749,4242 3741,4236 3732,4243 3729,4246 3722,4247 3690,4246 3677,4226 3670,4213 3650,4203 3641,4186 3634,4170 3617,4159 3617,4149 3590,4142 3587,4125 3583,4111 3557,4113 3540,4111 3532,4090 3531,4058 3525,4013 3512,4006 3508,3990 3522,3973 3531,3952 3503,3938 3484,3941 3479,3915 3476,3883 3492,3888 3544,3902 3553,3902 3557,3871 3560,3842 3591,3840 3615,3830 3627,3834 3639,3823 3643,3802 3657,3802 3663,3816 3670,3828 3668,3845 3692,3845 3705,3851 3735,3852 3762,3843 3770,3825 3780,3796 3798,3774 3819,3784 3837,3784 3836,3796 3851,3802 3857,3792 3865,3792 3874,3822 3882,3832 3895,3817 3903,3813 3912,3820 3910,3824 3908,3827 3923,3834 3930,3831 3942,3835 3946,3837 3949,3844 3947,3850 3944,3858 3949,3868 3967,3888 3974,3892 3980,3889 3993,3890 3998,3892 3995,3893 3984,3894 3980,3897 3978,3903 3981,3906 3989,3909 3990,3906 3991,3900 4000,3898 3993,3911 3990,3918 3999,3925 4004,3926 4008,3923 4019,3922 4035,3905 4047,3905 4057,3891 4035,3867 4023,3830 4018,3800 4022,3793 4041,3778 4066,3759 4091,3751 4103,3747 4129,3726 4161,3725 4188,3737 4210,3729 4208,3719 4218,3706 4239,3701 4260,3686 4284,3680 4310,3688 " class="polyStyle" id="450405" style="fill:#ee8b94"/>
<polygon points="4991,3374 4992,3408 5025,3416 5036,3423 5035,3439 5029,3452 5013,3453 5019,3463 5047,3468 5060,3487 5068,3485 5093,3493 5094,3506 5107,3520 5105,3533 5113,3551 5106,3571 5115,3597 5108,3610 5108,3619 5091,3628 5085,3623 5063,3624 5051,3633 5048,3631 5038,3633 5027,3628 5007,3631 5000,3640 5003,3683 5018,3695 5019,3706 5017,3720 5020,3732 5031,3736 5034,3744 5026,3781 5041,3806 5041,3819 5048,3840 5057,3849 5044,3858 5046,3882 5057,3892 5062,3906 5044,3913 5051,3925 5047,3928 5047,3936 5039,3937 5029,3957 5029,3978 5026,3983 5043,3986 5050,3994 5050,4011 5056,4019 5054,4026 5068,4032 5067,4037 5059,4040 5065,4048 5058,4054 5066,4070 5059,4079 5050,4078 5048,4090 5039,4099 5037,4106 5042,4111 5035,4125 5052,4146 5048,4164 5054,4178 5053,4192 5040,4210 5021,4220 5021,4241 5013,4246 5012,4264 5002,4286 5011,4287 5018,4293 5027,4307 5034,4308 5041,4305 5040,4298 5036,4291 5037,4284 5041,4280 5046,4281 5049,4286 5051,4300 5056,4307 5063,4312 5087,4319 5107,4322 5207,4317 5234,4318 5260,4348 5278,4353 5324,4404 5339,4409 5420,4387 5477,4382 5516,4380 5535,4355 5574,4331 5602,4323 5640,4318 5663,4309 5696,4286 5724,4277 5748,4277 5771,4280 5770,4287 5754,4309 5756,4325 5766,4345 5770,4361 5766,4373 5740,4395 5730,4409 5722,4429 5710,4451 5692,4465 5686,4475 5688,4495 5684,4509 5660,4519 5628,4541 5602,4579 5574,4609 5562,4617 5544,4627 5534,4633 5530,4641 5522,4649 5516,4683 5512,4698 5369,4677 5362,4691 5356,4705 5356,4719 5370,4745 5364,4751 5330,4781 5324,4789 5332,4809 5352,4839 5334,4851 5320,4869 5318,4889 5326,4921 5302,4979 5296,4989 5296,4985 5282,4978 5259,4964 5251,4966 5232,4970 5217,4953 5211,4944 5198,4938 5189,4916 5173,4913 5153,4919 5129,4906 5117,4906 5108,4902 5097,4902 5092,4906 5052,4909 5040,4920 5016,4916 5008,4908 5003,4909 4995,4909 4986,4912 4975,4914 4954,4914 4948,4907 4935,4902 4931,4892 4923,4893 4919,4893 4917,4886 4915,4865 4904,4856 4893,4847 4889,4840 4885,4832 4887,4823 4881,4815 4866,4812 4857,4805 4829,4795 4807,4802 4799,4809 4791,4809 4785,4809 4776,4809 4762,4798 4756,4782 4745,4774 4727,4763 4719,4758 4707,4755 4711,4741 4720,4728 4753,4709 4787,4701 4829,4697 4823,4633 4813,4631 4812,4616 4815,4609 4831,4601 4833,4592 4824,4583 4821,4558 4800,4540 4805,4527 4801,4502 4796,4495 4763,4500 4747,4491 4740,4501 4734,4502 4650,4448 4529,4349 4503,4333 4470,4327 4459,4316 4454,4296 4460,4261 4475,4252 4482,4228 4496,4223 4502,4227 4543,4225 4554,4216 4578,4208 4575,4187 4569,4182 4574,4175 4574,4160 4591,4146 4588,4143 4589,4132 4598,4116 4617,4117 4626,4113 4629,4108 4624,4085 4602,4082 4597,4086 4591,4074 4606,4064 4610,4058 4608,4051 4614,4043 4605,4033 4608,4007 4600,4002 4598,3992 4585,3976 4585,3961 4558,3954 4546,3955 4546,3970 4535,3972 4536,3966 4525,3963 4526,3970 4495,3985 4482,3985 4480,3981 4483,3978 4501,3968 4437,3968 4429,3962 4424,3949 4411,3949 4407,3944 4401,3928 4420,3905 4419,3882 4441,3868 4428,3852 4433,3826 4431,3810 4451,3794 4470,3761 4460,3745 4457,3723 4450,3721 4454,3716 4451,3711 4456,3709 4463,3705 4464,3700 4460,3681 4467,3672 4487,3661 4489,3646 4480,3632 4484,3621 4482,3599 4474,3598 4446,3581 4446,3571 4455,3552 4459,3530 4488,3509 4493,3478 4508,3451 4543,3443 4549,3438 4593,3437 4605,3417 4608,3395 4639,3392 4646,3371 4650,3372 4697,3379 4739,3358 4759,3357 4765,3359 4791,3398 4816,3388 4838,3386 4875,3401 4892,3396 4893,3404 4898,3406 4911,3398 4912,3382 4928,3356 4948,3358 4965,3352 4981,3355 " class="polyStyle" id="450403" style="fill:#f8c67d"/>
<path d="" class="polyStyle" id="431002" style="fill:#d4ecb2"/>
<path d="" class="polyStyle" id="500107" style="fill:#fbe6ef"/>
<path d="" class="polyStyle" id="430611" style="fill:#d4ecb2"/>
<path d="" class="polyStyle" id="511304" style="fill:#fbe6ef"/>
<path d="" class="polyStyle" id="340711" style="fill:#ee8b94"/>
<path d="" class="polyStyle" id="320118" style="fill:#f6f67b"/>
<path d="" class="polyStyle" id="510704" style="fill:#f6f67b"/>
<path d="" class="polyStyle" id="411502" style="fill:#ee8b94"/>
<path d="" class="polyStyle" id="320302" style="fill:#d4ecb2"/>
<path d="" class="polyStyle" id="140311" style="fill:#ee8b94"/>
<path d="" class="polyStyle" id="610802" style="fill:#ee8b94"/>
<path d="" class="polyStyle" id="120116" style="fill:#f6f67b"/>
<path d="" class="polyStyle" id="130303" style="fill:#fbe6ef"/>
<path d="" class="polyStyle" id="140211" style="fill:#f6f67b"/>
<path d="" class="polyStyle" id="150207" style="fill:#fbe6ef"/>
<path d="" class="polyStyle" id="211403" style="fill:#f6f67b"/>
<path d="" class="polyStyle" id="150802" style="fill:#f8c67d"/>
<path d="" class="polyStyle" id="210112" style="fill:#ee8b94"/>
<path d="" class="polyStyle" id="230406" style="fill:#d4ecb2"/>
<path d="" class="polyStyle" id="110113" style="fill:#fbe6ef"/>
<path d="" class="polyStyle" id="341702" style="fill:#fbe6ef"/>
<path d="" class="polyStyle" id="420303" style="fill:#ee8b94"/>
<path d="" class="polyStyle" id="340702" style="fill:#d4ecb2"/>
<path d="" class="polyStyle" id="421002" style="fill:#f6f67b"/>
<path d="" class="polyStyle" id="420117" style="fill:#f6f67b"/>
<path d="" class="polyStyle" id="440904" style="fill:#f8c67d"/>
<path d="" class="polyStyle" id="460205" style="fill:#ee8b94"/>
<path d="" class="polyStyle" id="460202" style="fill:#f6f67b"/>
<path d="" class="polyStyle" id="460203" style="fill:#fbe6ef"/>
<path d="" class="polyStyle" id="420304" style="fill:#f6f67b"/>
<path d="" class="polyStyle" id="445302" style="fill:#ee8b94"/>
<path d="" class="polyStyle" id="410202" style="fill:#d4ecb2"/>
<path d="" class="polyStyle" id="440800" style="fill:#f6f67b"/>
<path d="" class="polyStyle" id="440900" style="fill:#ee8b94"/>
<path d="" class="polyStyle" id="340800" style="fill:#ee8b94"/>
<path d="" class="polyStyle" id="460200" style="fill:#f6f67b"/>
<path d="" class="polyStyle" id="460000" style="fill:#ee8b94"/>
<path d="" class="polyStyle" id="450500" style="fill:#ee8b94"/>
<path d="" class="polyStyle" id="450600" style="fill:#ee8b94"/>
<path d="" class="polyStyle" id="440400" style="fill:#f6f67b"/>
<path d="" class="polyStyle" id="441700" style="fill:#f6f67b"/>
<path d="" class="polyStyle" id="441500" style="fill:#f6f67b"/>
<path d="" class="polyStyle" id="350600" style="fill:#ee8b94"/>
<path d="" class="polyStyle" id="710000" style="fill:#f6f67b"/>
<path d="" class="polyStyle" id="510400" style="fill:#f6f67b"/>
<path d="" class="polyStyle" id="522600" style="fill:#fbe6ef"/>
<path d="" class="polyStyle" id="520500" style="fill:#ee8b94"/>
<path d="" class="polyStyle" id="431200" style="fill:#f6f67b"/>
<path d="" class="polyStyle" id="430600" style="fill:#f6f67b"/>
<path d="" class="polyStyle" id="511400" style="fill:#d4ecb2"/>
<path d="" class="polyStyle" id="421000" style="fill:#ee8b94"/>
<path d="" class="polyStyle" id="341700" style="fill:#f6f67b"/>
<path d="" class="polyStyle" id="420500" style="fill:#f6f67b"/>
<path d="" class="polyStyle" id="511300" style="fill:#f6f67b"/>
<path d="" class="polyStyle" id="420900" style="fill:#f6f67b"/>
<path d="" class="polyStyle" id="511700" style="fill:#ee8b94"/>
<path d="" class="polyStyle" id="420600" style="fill:#d4ecb2"/>
<path d="" class="polyStyle" id="411500" style="fill:#fbe6ef"/>
<path d="" class="polyStyle" id="510800" style="fill:#ee8b94"/>
<path d="" class="polyStyle" id="420300" style="fill:#fbe6ef"/>
<path d="" class="polyStyle" id="611000" style="fill:#ee8b94"/>
<path d="" class="polyStyle" id="620800" style="fill:#fbe6ef"/>
<path d="" class="polyStyle" id="370200" style="fill:#ee8b94"/>
<path d="" class="polyStyle" id="371000" style="fill:#f6f67b"/>
<path d="" class="polyStyle" id="370600" style="fill:#fbe6ef"/>
<path d="" class="polyStyle" id="120000" style="fill:#f6f67b"/>
<path d="" class="polyStyle" id="130200" style="fill:#ee8b94"/>
<path d="" class="polyStyle" id="130300" style="fill:#f6f67b"/>
<path d="" class="polyStyle" id="652900" style="fill:#fbe6ef"/>
<path d="" class="polyStyle" id="150500" style="fill:#d4ecb2"/>
<path d="" class="polyStyle" id="" style="fill:#d4ecb2"/>
<path d="" class="polyStyle" id="350500" style="fill:#fbe6ef"/>
<path d="" class="polyStyle" id="440400" style="fill:#f6f67b"/>
<path d="" class="polyStyle" id="421100" style="fill:#d4ecb2"/>
<path d="" class="polyStyle" id="420100" style="fill:#fbe6ef"/>
<path d="" class="polyStyle" id="532500" style="fill:#fbe6ef"/>
<path d="" class="polyStyle" id="654200" style="fill:#fbe6ef"/>
<path d="" class="polyStyle" id="210700" style="fill:#d4ecb2"/>
<path d="" class="polyStyle" id="522300" style="fill:#fbe6ef"/>
<path d="" class="polyStyle" id="" style="fill:#ee8b94"/>
<path d="" class="polyStyle" id="440400" style="fill:#f6f67b"/>
<path d="" class="polyStyle" id="620000" style="fill:#f6f67b"/>
<path d="" class="polyStyle" id="430000" style="fill:#fbe6ef"/>
<path d="" class="polyStyle" id="420000" style="fill:#ee8b94"/>
<path d="" class="polyStyle" id="410000" style="fill:#f6f67b"/>
<path d="" class="polyStyle" id="350000" style="fill:#fbe6ef"/>
<path d="" class="polyStyle" id="520000" style="fill:#f6f67b"/>
<path d="" class="polyStyle" id="" style="fill:#ee8b94"/>
</svg>
