<?xml version="1.0" encoding="UTF-8"?>
<!DOCTYPE svg PUBLIC "-//W3C//DTD SVG 1.1 Tiny//EN" "http://www.w3.org/Graphics/SVG/1.1/DTD/svg11-tiny.dtd">
<svg version="1.1" xmlns="http://www.w3.org/2000/svg" xmlns:xlink="http://www.w3.org/1999/xlink" width="100%" height="100%" viewBox="0,0,4608,5095">
<title>SVG</title>
<desc>Poligon Test</desc>
<style id="style_css_sheet" type="text/css">
.polyStyle{fill: #cccccc;stroke-width:0;fill-rule:evenodd;}
</style>
<circle cx="1689" cy="1251" r="200" stroke="black" stroke-width="1" fill="red" id="450521" name="合浦县"/>
<circle cx="1354" cy="2372" r="200" stroke="black" stroke-width="1" fill="red" id="450503" position="433" name="银海区"/>
<circle cx="2888" cy="1961" r="200" stroke="black" stroke-width="1" fill="red" id="450512" name="铁山港区"/>
<circle cx="1288" cy="2316" r="200" stroke="black" stroke-width="1" fill="red" id="450502" position="11" name="海城区"/>
<path d="" class="polyStyle" id="" style="fill:#ee8b94"/>
<path d="" class="polyStyle" id="623022" style="fill:#fbe6ef"/>
<path d="" class="polyStyle" id="211421" style="fill:#f6f67b"/>
<path d="" class="polyStyle" id="532524" style="fill:#ee8b94"/>
<path d="" class="polyStyle" id="440825" style="fill:#f6f67b"/>
<path d="" class="polyStyle" id="441721" style="fill:#f6f67b"/>
<path d="M2882,2 L2898,5 L2917,12 L2934,20 L2938,40 L2933,60 L2935,71 L2940,82 L2941,92 L2941,98 L2946,115 L2969,122 L2976,133 L2985,142 L3004,147 L3014,155 L3030,164 L3036,167 L3049,166 L3062,164 L3078,152 L3085,143 L3088,134 L3089,93 L3096,86 L3113,81 L3128,83 L3141,88 L3148,96 L3151,113 L3151,128 L3153,140 L3157,153 L3162,165 L3173,177 L3185,184 L3193,190 L3208,197 L3226,199 L3242,193 L3250,190 L3251,196 L3251,202 L3258,207 L3263,213 L3269,214 L3276,213 L3282,216 L3288,218 L3295,222 L3310,222 L3316,232 L3322,234 L3326,228 L3336,226 L3342,228 L3345,221 L3347,215 L3348,209 L3354,203 L3358,195 L3366,186 L3365,180 L3372,170 L3372,164 L3368,155 L3363,149 L3369,147 L3375,146 L3381,147 L3390,149 L3396,143 L3400,135 L3399,129 L3404,122 L3401,116 L3406,109 L3412,109 L3414,101 L3416,92 L3422,87 L3428,87 L3430,93 L3434,99 L3445,101 L3451,102 L3456,108 L3468,108 L3464,118 L3470,120 L3476,117 L3483,109 L3489,104 L3495,105 L3501,107 L3506,114 L3515,123 L3521,123 L3528,121 L3535,117 L3541,113 L3547,111 L3550,117 L3556,122 L3586,111 L3597,108 L3603,107 L3609,105 L3609,99 L3612,92 L3619,90 L3624,84 L3634,78 L3635,72 L3641,66 L3652,58 L3647,49 L3641,47 L3634,47 L3628,48 L3624,42 L3624,36 L3638,36 L3651,39 L3660,40 L3668,38 L3674,34 L3689,29 L3695,26 L3698,32 L3704,36 L3716,36 L3720,42 L3721,49 L3728,52 L3744,52 L3751,53 L3757,52 L3762,49 L3768,57 L3770,66 L3778,73 L3791,77 L3802,80 L3810,90 L3818,103 L3823,113 L3829,113 L3838,110 L3846,111 L3853,113 L3856,98 L3853,85 L3862,74 L3883,63 L3889,60 L3905,54 L3909,61 L3915,70 L3925,72 L3937,69 L3951,74 L3960,76 L3974,70 L3981,66 L3990,66 L3993,81 L3992,93 L4003,99 L4013,113 L4018,122 L4021,129 L4027,128 L4034,124 L4040,118 L4051,113 L4057,113 L4063,108 L4075,108 L4083,104 L4089,105 L4093,115 L4099,118 L4105,119 L4117,118 L4123,117 L4131,115 L4141,108 L4147,104 L4154,101 L4160,99 L4175,94 L4182,91 L4188,89 L4194,84 L4203,83 L4211,87 L4213,93 L4213,100 L4214,106 L4218,112 L4224,110 L4230,111 L4239,115 L4247,122 L4249,128 L4247,134 L4242,141 L4241,147 L4241,176 L4243,183 L4241,194 L4238,200 L4242,207 L4248,211 L4247,221 L4248,227 L4246,233 L4239,241 L4238,247 L4235,253 L4230,259 L4235,269 L4234,275 L4226,275 L4219,280 L4211,285 L4205,286 L4212,299 L4224,309 L4231,316 L4235,322 L4229,324 L4234,333 L4240,336 L4244,343 L4253,353 L4260,363 L4261,369 L4259,375 L4259,382 L4257,390 L4258,396 L4264,402 L4263,408 L4260,416 L4255,422 L4251,428 L4248,434 L4240,436 L4234,439 L4232,445 L4232,460 L4234,467 L4240,471 L4239,477 L4240,483 L4238,491 L4232,492 L4226,494 L4225,501 L4215,504 L4213,511 L4217,518 L4217,524 L4215,530 L4216,537 L4217,544 L4216,558 L4216,564 L4214,570 L4220,575 L4228,576 L4237,575 L4244,580 L4251,575 L4257,579 L4260,585 L4266,588 L4263,597 L4257,602 L4251,606 L4251,614 L4252,621 L4246,622 L4244,628 L4237,633 L4234,639 L4234,645 L4231,651 L4226,662 L4227,668 L4233,674 L4227,679 L4215,678 L4209,681 L4203,683 L4200,689 L4197,696 L4190,703 L4185,709 L4177,713 L4177,719 L4171,723 L4176,729 L4175,736 L4174,742 L4180,747 L4184,754 L4183,760 L4177,759 L4171,763 L4170,769 L4172,775 L4172,782 L4175,788 L4178,797 L4179,803 L4183,809 L4183,815 L4194,818 L4200,817 L4204,823 L4206,829 L4200,831 L4196,837 L4199,844 L4199,850 L4200,858 L4198,865 L4192,866 L4188,872 L4192,879 L4188,885 L4186,891 L4187,900 L4184,906 L4186,912 L4181,918 L4180,924 L4179,931 L4174,938 L4174,946 L4185,949 L4199,951 L4205,953 L4202,960 L4202,968 L4204,986 L4212,1008 L4213,1018 L4204,1047 L4203,1054 L4207,1083 L4199,1095 L4192,1100 L4176,1122 L4171,1138 L4167,1145 L4169,1163 L4192,1195 L4197,1206 L4199,1215 L4199,1234 L4202,1245 L4206,1256 L4212,1263 L4224,1271 L4240,1277 L4249,1282 L4257,1288 L4260,1282 L4255,1274 L4262,1276 L4270,1277 L4272,1270 L4278,1269 L4292,1272 L4295,1266 L4301,1260 L4301,1253 L4303,1245 L4310,1243 L4322,1243 L4336,1238 L4343,1247 L4344,1254 L4354,1256 L4362,1259 L4361,1267 L4366,1274 L4372,1279 L4384,1279 L4390,1288 L4397,1291 L4393,1301 L4396,1309 L4407,1304 L4410,1298 L4415,1292 L4427,1287 L4437,1292 L4444,1296 L4443,1303 L4448,1309 L4447,1315 L4448,1325 L4449,1331 L4466,1331 L4476,1316 L4485,1309 L4488,1302 L4489,1294 L4493,1287 L4497,1281 L4510,1272 L4512,1262 L4522,1263 L4532,1268 L4541,1268 L4548,1267 L4554,1260 L4557,1259 L4550,1275 L4494,1393 L4482,1423 L4480,1437 L4492,1459 L4460,1475 L4450,1485 L4446,1533 L4448,1601 L4454,1631 L4454,1635 L4467,1645 L4467,1650 L4470,1651 L4474,1652 L4475,1656 L4476,1663 L4477,1671 L4477,1677 L4478,1682 L4479,1685 L4481,1688 L4483,1693 L4484,1698 L4484,1701 L4484,1706 L4481,1711 L4477,1712 L4474,1713 L4467,1713 L4464,1712 L4457,1709 L4453,1707 L4449,1704 L4444,1705 L4440,1704 L4435,1705 L4431,1699 L4432,1703 L4435,1705 L4441,1708 L4444,1713 L4447,1713 L4451,1714 L4458,1715 L4461,1717 L4464,1718 L4467,1718 L4472,1718 L4476,1717 L4480,1718 L4484,1719 L4487,1724 L4488,1727 L4489,1731 L4489,1735 L4488,1741 L4484,1747 L4486,1750 L4487,1753 L4487,1765 L4487,1773 L4483,1781 L4481,1787 L4477,1791 L4474,1796 L4475,1801 L4475,1807 L4477,1810 L4478,1818 L4485,1829 L4490,1832 L4494,1835 L4497,1837 L4498,1840 L4499,1843 L4500,1846 L4504,1855 L4505,1863 L4512,1871 L4513,1874 L4510,1881 L4506,1887 L4503,1891 L4497,1891 L4494,1893 L4487,1895 L4490,1898 L4496,1898 L4498,1900 L4494,1901 L4495,1904 L4500,1903 L4503,1903 L4505,1906 L4505,1910 L4515,1905 L4520,1905 L4522,1908 L4523,1912 L4524,1915 L4526,1923 L4526,1928 L4526,1934 L4535,1937 L4537,1955 L4529,1958 L4525,1960 L4533,1977 L4530,1983 L4530,1991 L4532,1994 L4535,1996 L4536,1999 L4536,2002 L4539,2006 L4542,2007 L4548,2008 L4551,2010 L4552,2013 L4554,2018 L4555,2022 L4554,2028 L4554,2034 L4555,2037 L4555,2041 L4554,2046 L4553,2050 L4553,2054 L4555,2060 L4557,2064 L4558,2068 L4560,2077 L4560,2080 L4563,2086 L4564,2090 L4566,2093 L4570,2097 L4576,2100 L4580,2105 L4585,2109 L4586,2113 L4583,2124 L4584,2127 L4588,2132 L4592,2140 L4596,2144 L4600,2147 L4603,2149 L4603,2153 L4604,2156 L4607,2163 L4606,2169 L4607,2174 L4608,2177 L4608,2181 L4604,2187 L4600,2186 L4598,2181 L4598,2175 L4598,2167 L4597,2163 L4594,2161 L4591,2158 L4585,2152 L4578,2149 L4575,2146 L4571,2137 L4569,2133 L4564,2124 L4562,2121 L4557,2118 L4554,2116 L4551,2115 L4548,2112 L4546,2108 L4543,2108 L4542,2111 L4539,2117 L4531,2129 L4528,2135 L4528,2138 L4529,2141 L4531,2146 L4530,2150 L4525,2155 L4524,2158 L4524,2166 L4523,2174 L4524,2178 L4525,2181 L4526,2187 L4528,2190 L4533,2195 L4534,2200 L4535,2204 L4538,2217 L4539,2222 L4540,2231 L4542,2235 L4545,2242 L4544,2253 L4543,2257 L4543,2260 L4541,2267 L4542,2274 L4537,2282 L4535,2290 L4533,2294 L4524,2305 L4516,2310 L4512,2311 L4508,2312 L4502,2313 L4499,2312 L4495,2310 L4490,2309 L4485,2306 L4482,2305 L4479,2303 L4475,2300 L4470,2295 L4469,2291 L4467,2288 L4464,2286 L4461,2284 L4457,2280 L4453,2280 L4440,2279 L4437,2277 L4434,2275 L4425,2267 L4416,2260 L4412,2256 L4405,2252 L4400,2249 L4398,2252 L4396,2256 L4393,2261 L4391,2264 L4389,2267 L4388,2270 L4385,2273 L4381,2272 L4375,2270 L4366,2266 L4363,2264 L4360,2263 L4357,2262 L4350,2260 L4347,2258 L4344,2257 L4340,2255 L4334,2252 L4329,2251 L4326,2248 L4327,2245 L4328,2242 L4330,2239 L4331,2235 L4333,2231 L4334,2227 L4338,2225 L4337,2222 L4334,2222 L4334,2227 L4329,2228 L4324,2225 L4321,2222 L4322,2216 L4319,2214 L4316,2211 L4313,2210 L4310,2208 L4306,2206 L4299,2202 L4296,2201 L4291,2198 L4288,2197 L4284,2195 L4280,2194 L4275,2194 L4271,2192 L4266,2191 L4263,2189 L4260,2187 L4253,2183 L4248,2181 L4244,2178 L4240,2174 L4236,2170 L4234,2167 L4232,2164 L4229,2162 L4224,2157 L4221,2155 L4218,2153 L4215,2150 L4212,2148 L4209,2146 L4206,2143 L4202,2140 L4199,2138 L4196,2136 L4193,2134 L4190,2132 L4187,2131 L4184,2129 L4181,2128 L4174,2124 L4171,2123 L4168,2122 L4164,2121 L4154,2117 L4151,2119 L4149,2122 L4145,2126 L4141,2124 L4137,2122 L4139,2119 L4141,2116 L4145,2109 L4146,2104 L4143,2107 L4140,2110 L4136,2117 L4134,2120 L4132,2123 L4128,2122 L4124,2122 L4121,2121 L4125,2112 L4122,2108 L4121,2104 L4118,2100 L4115,2098 L4110,2092 L4107,2088 L4104,2084 L4102,2081 L4098,2079 L4095,2076 L4092,2074 L4091,2070 L4093,2069 L4091,2066 L4087,2063 L4085,2061 L4082,2059 L4077,2054 L4073,2052 L4069,2049 L4064,2046 L4060,2044 L4057,2042 L4054,2041 L4051,2039 L4043,2035 L4039,2032 L4036,2030 L4032,2028 L4029,2026 L4026,2025 L4023,2023 L4020,2022 L4017,2020 L4013,2018 L4010,2016 L4007,2015 L4004,2013 L4004,2008 L4005,2005 L4009,2001 L4013,2001 L4014,1997 L4018,1999 L4022,1998 L4025,1998 L4028,1998 L4016,1990 L4021,1988 L4024,1991 L4031,1995 L4040,1994 L4040,1990 L4052,1988 L4054,1985 L4057,1983 L4058,1979 L4063,1977 L4067,1978 L4070,1975 L4074,1971 L4077,1970 L4079,1967 L4081,1960 L4081,1956 L4080,1953 L4080,1947 L4080,1943 L4081,1938 L4082,1935 L4084,1932 L4081,1929 L4084,1927 L4090,1923 L4088,1920 L4084,1917 L4084,1910 L4084,1902 L4086,1898 L4088,1894 L4088,1889 L4086,1886 L4082,1885 L4078,1880 L4079,1877 L4084,1877 L4087,1875 L4091,1874 L4094,1875 L4092,1869 L4091,1866 L4091,1863 L4095,1860 L4097,1857 L4098,1854 L4101,1851 L4102,1848 L4103,1843 L4104,1840 L4103,1837 L4102,1833 L4101,1829 L4106,1822 L4101,1821 L4103,1815 L4104,1807 L4105,1801 L4108,1798 L4111,1794 L4113,1789 L4116,1786 L4110,1781 L4110,1779 L4111,1776 L4115,1774 L4121,1774 L4122,1770 L4123,1767 L4123,1763 L4121,1760 L4116,1758 L4116,1753 L4118,1748 L4119,1742 L4120,1736 L4119,1730 L4116,1729 L4111,1728 L4105,1728 L4102,1727 L4099,1726 L4095,1724 L4096,1719 L4098,1716 L4099,1711 L4100,1705 L4097,1700 L4095,1696 L4095,1692 L4095,1688 L4097,1684 L4099,1680 L4099,1675 L4098,1669 L4098,1664 L4099,1661 L4099,1657 L4103,1648 L4105,1645 L4105,1641 L4102,1643 L4099,1646 L4096,1647 L4092,1647 L4088,1646 L4084,1646 L4081,1644 L4078,1642 L4074,1639 L4074,1635 L4076,1629 L4078,1624 L4079,1621 L4084,1618 L4087,1617 L4092,1614 L4095,1613 L4100,1611 L4104,1609 L4113,1606 L4116,1605 L4119,1605 L4122,1605 L4125,1602 L4126,1598 L4122,1595 L4125,1591 L4128,1589 L4131,1588 L4135,1589 L4138,1595 L4142,1594 L4146,1591 L4147,1588 L4151,1586 L4155,1585 L4158,1582 L4162,1580 L4167,1574 L4175,1569 L4179,1568 L4184,1567 L4188,1567 L4192,1566 L4195,1563 L4193,1560 L4190,1561 L4184,1563 L4181,1563 L4178,1564 L4172,1567 L4167,1568 L4162,1570 L4154,1577 L4149,1579 L4145,1581 L4140,1581 L4137,1580 L4126,1582 L4123,1582 L4122,1579 L4120,1575 L4118,1571 L4118,1568 L4121,1563 L4119,1562 L4116,1561 L4114,1558 L4116,1555 L4121,1553 L4124,1552 L4128,1554 L4132,1555 L4135,1554 L4141,1553 L4146,1553 L4149,1553 L4152,1552 L4158,1549 L4161,1546 L4160,1543 L4160,1540 L4160,1537 L4157,1534 L4153,1532 L4151,1529 L4154,1526 L4156,1522 L4156,1518 L4160,1515 L4160,1512 L4162,1509 L4164,1505 L4160,1507 L4157,1511 L4156,1515 L4156,1518 L4151,1522 L4148,1526 L4148,1529 L4148,1532 L4150,1535 L4154,1537 L4153,1541 L4152,1545 L4149,1547 L4144,1548 L4140,1546 L4138,1541 L4135,1539 L4132,1537 L4136,1546 L4133,1547 L4129,1546 L4125,1546 L4119,1547 L4116,1547 L4112,1548 L4108,1548 L4105,1541 L4105,1547 L4104,1550 L4097,1558 L4095,1561 L4091,1563 L4088,1563 L4084,1565 L4076,1569 L4072,1571 L4064,1576 L4061,1577 L4053,1583 L4050,1584 L4047,1587 L4044,1588 L4041,1590 L4038,1591 L4033,1593 L4029,1594 L4023,1594 L4019,1593 L4016,1592 L4014,1596 L4013,1599 L4012,1602 L4010,1605 L4009,1608 L4008,1611 L4006,1614 L4004,1618 L4000,1621 L3995,1621 L3991,1621 L3982,1618 L3977,1615 L3973,1617 L3971,1621 L3969,1624 L3966,1625 L3963,1626 L3957,1630 L3955,1633 L3953,1636 L3953,1639 L3951,1642 L3948,1647 L3942,1651 L3937,1655 L3939,1659 L3937,1663 L3933,1665 L3933,1668 L3931,1679 L3929,1683 L3928,1687 L3923,1690 L3922,1694 L3926,1697 L3925,1705 L3920,1707 L3920,1711 L3923,1714 L3929,1723 L3930,1726 L3929,1740 L3926,1743 L3920,1747 L3919,1757 L3919,1760 L3919,1763 L3922,1777 L3926,1781 L3928,1785 L3933,1789 L3933,1792 L3934,1795 L3935,1801 L3931,1806 L3928,1808 L3921,1805 L3917,1804 L3912,1799 L3909,1795 L3902,1793 L3897,1791 L3895,1789 L3889,1785 L3886,1783 L3877,1779 L3872,1777 L3864,1773 L3863,1769 L3862,1767 L3859,1767 L3856,1767 L3853,1766 L3851,1762 L3852,1758 L3848,1755 L3845,1754 L3840,1754 L3835,1753 L3827,1749 L3823,1746 L3819,1742 L3816,1740 L3815,1737 L3812,1736 L3810,1733 L3808,1730 L3805,1728 L3804,1725 L3802,1722 L3799,1720 L3795,1715 L3795,1712 L3794,1707 L3794,1704 L3794,1701 L3793,1695 L3793,1691 L3794,1686 L3797,1679 L3798,1676 L3806,1673 L3811,1674 L3813,1671 L3815,1668 L3816,1665 L3818,1660 L3822,1656 L3825,1651 L3830,1642 L3833,1638 L3836,1634 L3836,1631 L3833,1629 L3834,1626 L3837,1622 L3840,1618 L3845,1616 L3850,1610 L3851,1606 L3856,1602 L3861,1603 L3866,1604 L3870,1602 L3866,1601 L3861,1603 L3861,1599 L3857,1598 L3862,1595 L3865,1592 L3862,1592 L3857,1598 L3853,1601 L3849,1604 L3845,1607 L3836,1615 L3832,1618 L3828,1620 L3825,1621 L3822,1620 L3818,1619 L3815,1617 L3812,1614 L3813,1611 L3816,1607 L3815,1601 L3811,1601 L3808,1601 L3803,1597 L3797,1596 L3794,1599 L3791,1598 L3785,1595 L3783,1591 L3783,1587 L3780,1583 L3778,1580 L3778,1577 L3778,1574 L3779,1571 L3781,1568 L3782,1562 L3785,1560 L3786,1557 L3784,1554 L3782,1550 L3783,1546 L3784,1543 L3780,1537 L3777,1534 L3774,1532 L3770,1530 L3767,1526 L3765,1522 L3763,1518 L3759,1514 L3756,1515 L3753,1515 L3751,1512 L3752,1507 L3749,1500 L3749,1497 L3750,1494 L3753,1491 L3758,1491 L3762,1492 L3765,1492 L3772,1496 L3773,1499 L3774,1500 L3775,1498 L3777,1494 L3776,1489 L3775,1486 L3777,1483 L3780,1480 L3777,1479 L3774,1480 L3774,1477 L3776,1474 L3772,1467 L3772,1464 L3774,1461 L3777,1459 L3779,1455 L3777,1453 L3771,1449 L3769,1446 L3766,1444 L3767,1441 L3771,1440 L3775,1442 L3778,1441 L3777,1438 L3776,1434 L3775,1429 L3777,1425 L3778,1421 L3777,1418 L3778,1415 L3781,1414 L3784,1413 L3787,1412 L3791,1411 L3797,1409 L3800,1408 L3805,1404 L3810,1401 L3813,1401 L3815,1395 L3818,1394 L3820,1391 L3824,1383 L3825,1378 L3829,1374 L3831,1371 L3835,1369 L3839,1369 L3843,1368 L3844,1364 L3839,1360 L3841,1357 L3840,1354 L3843,1351 L3845,1346 L3840,1349 L3839,1352 L3840,1354 L3839,1360 L3835,1363 L3829,1367 L3825,1369 L3822,1371 L3818,1373 L3819,1377 L3815,1384 L3811,1388 L3807,1385 L3805,1382 L3799,1376 L3795,1372 L3791,1375 L3788,1376 L3785,1378 L3785,1382 L3788,1386 L3793,1392 L3795,1395 L3791,1397 L3788,1399 L3784,1401 L3780,1404 L3773,1406 L3769,1407 L3763,1406 L3761,1402 L3759,1404 L3763,1406 L3764,1411 L3759,1415 L3754,1417 L3750,1419 L3745,1416 L3741,1420 L3739,1424 L3736,1425 L3732,1423 L3729,1422 L3727,1425 L3726,1431 L3730,1433 L3733,1435 L3731,1438 L3728,1440 L3725,1441 L3725,1444 L3725,1447 L3726,1450 L3723,1453 L3717,1456 L3713,1455 L3712,1461 L3712,1464 L3709,1465 L3702,1466 L3698,1467 L3695,1469 L3692,1470 L3689,1470 L3686,1469 L3683,1469 L3680,1468 L3678,1464 L3676,1459 L3674,1463 L3673,1466 L3672,1470 L3672,1474 L3672,1477 L3668,1478 L3658,1472 L3657,1470 L3655,1467 L3653,1463 L3652,1458 L3652,1455 L3656,1453 L3659,1452 L3657,1449 L3657,1446 L3654,1444 L3651,1444 L3650,1439 L3649,1431 L3650,1428 L3648,1425 L3647,1421 L3643,1421 L3640,1419 L3640,1414 L3641,1410 L3642,1406 L3646,1403 L3649,1403 L3653,1405 L3657,1405 L3659,1398 L3656,1398 L3654,1395 L3651,1391 L3649,1388 L3649,1382 L3651,1379 L3654,1378 L3654,1372 L3655,1369 L3655,1366 L3658,1362 L3662,1360 L3662,1357 L3658,1355 L3656,1352 L3656,1349 L3658,1344 L3652,1347 L3649,1346 L3647,1343 L3646,1340 L3644,1337 L3641,1336 L3638,1336 L3634,1333 L3632,1336 L3628,1339 L3623,1341 L3620,1341 L3617,1341 L3613,1339 L3608,1342 L3605,1341 L3604,1338 L3604,1331 L3604,1328 L3604,1325 L3605,1322 L3609,1314 L3612,1312 L3618,1312 L3621,1315 L3625,1315 L3630,1318 L3634,1320 L3637,1318 L3638,1314 L3640,1308 L3640,1304 L3639,1300 L3635,1297 L3631,1296 L3631,1293 L3636,1287 L3639,1284 L3645,1278 L3647,1275 L3650,1274 L3652,1272 L3655,1271 L3654,1268 L3655,1264 L3659,1263 L3658,1259 L3655,1264 L3653,1266 L3654,1268 L3652,1272 L3649,1271 L3645,1272 L3641,1273 L3639,1277 L3634,1281 L3630,1281 L3626,1280 L3623,1279 L3620,1275 L3617,1276 L3612,1277 L3609,1274 L3608,1270 L3601,1270 L3595,1274 L3592,1277 L3589,1278 L3586,1278 L3583,1274 L3579,1267 L3577,1270 L3574,1271 L3570,1273 L3565,1270 L3564,1266 L3562,1262 L3559,1256 L3558,1253 L3556,1247 L3555,1244 L3558,1242 L3565,1240 L3569,1240 L3573,1239 L3577,1239 L3580,1239 L3582,1242 L3584,1247 L3592,1247 L3595,1248 L3598,1247 L3602,1244 L3605,1242 L3609,1241 L3613,1241 L3617,1241 L3612,1237 L3612,1232 L3610,1232 L3607,1232 L3604,1229 L3602,1223 L3602,1220 L3599,1220 L3596,1218 L3595,1214 L3595,1209 L3590,1205 L3587,1201 L3587,1197 L3586,1194 L3584,1197 L3581,1198 L3577,1197 L3573,1197 L3570,1199 L3569,1204 L3566,1208 L3565,1212 L3562,1215 L3560,1213 L3558,1209 L3558,1199 L3558,1194 L3555,1193 L3552,1192 L3549,1190 L3546,1187 L3546,1184 L3548,1180 L3551,1177 L3555,1176 L3564,1173 L3567,1173 L3571,1174 L3575,1175 L3583,1169 L3585,1166 L3590,1162 L3594,1154 L3590,1153 L3587,1153 L3588,1149 L3585,1146 L3581,1147 L3577,1149 L3580,1150 L3581,1153 L3581,1156 L3580,1160 L3579,1163 L3578,1166 L3575,1168 L3571,1168 L3569,1163 L3566,1163 L3563,1163 L3559,1163 L3554,1166 L3550,1165 L3547,1161 L3549,1156 L3552,1156 L3555,1153 L3557,1148 L3560,1144 L3555,1142 L3552,1141 L3548,1141 L3545,1142 L3545,1145 L3540,1145 L3536,1145 L3533,1145 L3529,1143 L3522,1138 L3522,1134 L3525,1132 L3528,1129 L3533,1127 L3536,1126 L3533,1124 L3526,1123 L3522,1122 L3519,1121 L3520,1116 L3523,1115 L3524,1108 L3525,1104 L3530,1095 L3536,1089 L3539,1082 L3544,1080 L3545,1077 L3540,1074 L3536,1070 L3537,1066 L3540,1059 L3542,1053 L3543,1050 L3545,1047 L3546,1042 L3547,1039 L3549,1036 L3550,1032 L3552,1028 L3554,1025 L3560,1020 L3565,1014 L3570,1008 L3576,1002 L3582,999 L3590,996 L3595,991 L3599,988 L3602,985 L3605,986 L3616,992 L3625,997 L3626,994 L3627,991 L3628,988 L3631,986 L3633,986 L3633,984 L3636,982 L3639,981 L3642,983 L3647,984 L3648,987 L3652,987 L3655,982 L3658,982 L3661,984 L3659,989 L3661,992 L3665,997 L3665,1001 L3664,1009 L3668,1008 L3670,1005 L3671,1001 L3670,995 L3671,991 L3670,988 L3666,984 L3667,981 L3674,980 L3677,979 L3679,976 L3682,980 L3682,985 L3685,987 L3689,986 L3696,982 L3695,978 L3695,975 L3694,971 L3686,968 L3685,963 L3689,962 L3691,965 L3693,962 L3696,959 L3695,956 L3696,953 L3699,952 L3703,955 L3703,951 L3706,946 L3712,939 L3714,936 L3718,939 L3721,941 L3726,941 L3729,939 L3728,936 L3729,929 L3729,925 L3731,922 L3731,919 L3737,913 L3741,915 L3745,917 L3749,918 L3749,922 L3751,922 L3755,924 L3758,925 L3762,927 L3766,927 L3769,925 L3769,922 L3766,922 L3766,918 L3767,914 L3768,911 L3771,911 L3768,907 L3772,907 L3775,905 L3777,902 L3781,902 L3784,899 L3778,893 L3778,889 L3781,891 L3782,885 L3777,884 L3770,887 L3767,888 L3761,888 L3757,890 L3753,887 L3754,884 L3757,884 L3760,883 L3761,880 L3763,875 L3764,870 L3763,867 L3759,869 L3756,870 L3752,871 L3748,873 L3746,877 L3743,877 L3740,876 L3733,873 L3729,871 L3730,866 L3727,863 L3723,861 L3722,857 L3721,852 L3723,848 L3726,847 L3725,844 L3722,844 L3719,842 L3720,839 L3722,832 L3723,825 L3727,823 L3730,821 L3735,819 L3735,816 L3737,812 L3740,814 L3743,816 L3747,814 L3744,811 L3745,807 L3750,806 L3747,805 L3745,807 L3740,810 L3737,812 L3733,811 L3732,808 L3734,804 L3734,801 L3734,798 L3735,794 L3737,791 L3740,789 L3743,786 L3746,783 L3749,780 L3749,775 L3747,778 L3743,780 L3740,779 L3740,776 L3742,773 L3743,769 L3746,764 L3745,760 L3744,756 L3742,751 L3746,748 L3745,744 L3742,743 L3742,747 L3742,751 L3739,756 L3739,761 L3738,765 L3735,767 L3732,769 L3729,774 L3728,778 L3727,782 L3729,785 L3733,786 L3732,789 L3727,789 L3729,792 L3729,795 L3729,800 L3728,804 L3726,808 L3725,811 L3722,813 L3722,817 L3721,821 L3718,825 L3717,831 L3715,836 L3712,842 L3709,842 L3709,844 L3710,848 L3713,850 L3713,855 L3712,859 L3716,859 L3723,861 L3722,865 L3722,868 L3720,873 L3719,876 L3719,883 L3720,887 L3719,891 L3715,891 L3710,888 L3711,892 L3714,894 L3718,895 L3719,898 L3718,901 L3717,904 L3716,907 L3714,910 L3711,913 L3706,917 L3703,918 L3702,914 L3704,908 L3705,905 L3706,901 L3708,897 L3704,896 L3705,899 L3703,901 L3701,904 L3698,906 L3695,907 L3692,907 L3691,904 L3690,901 L3687,903 L3684,901 L3681,897 L3680,901 L3681,905 L3681,908 L3678,908 L3675,909 L3672,912 L3667,912 L3663,912 L3663,915 L3666,916 L3667,919 L3665,923 L3662,925 L3660,928 L3658,931 L3655,932 L3649,928 L3651,925 L3653,922 L3657,915 L3658,911 L3655,908 L3660,902 L3664,904 L3665,901 L3668,898 L3665,896 L3668,895 L3671,893 L3670,889 L3667,887 L3668,884 L3663,884 L3659,887 L3656,883 L3656,877 L3654,881 L3650,879 L3651,883 L3650,887 L3648,895 L3645,898 L3642,894 L3640,892 L3640,895 L3637,899 L3635,903 L3632,906 L3631,909 L3629,912 L3625,917 L3622,921 L3624,930 L3621,938 L3616,943 L3614,946 L3610,946 L3606,946 L3603,945 L3602,942 L3599,938 L3600,932 L3595,931 L3592,931 L3590,935 L3586,934 L3585,931 L3581,930 L3577,931 L3573,930 L3568,929 L3564,929 L3561,928 L3558,928 L3555,927 L3552,927 L3549,926 L3546,926 L3543,925 L3539,925 L3536,925 L3532,924 L3529,925 L3529,928 L3529,932 L3525,935 L3521,934 L3515,940 L3512,943 L3505,940 L3506,936 L3502,933 L3498,933 L3495,931 L3495,928 L3490,925 L3487,924 L3488,919 L3484,923 L3487,924 L3488,930 L3484,935 L3479,936 L3481,940 L3481,944 L3477,946 L3471,950 L3467,953 L3463,951 L3461,954 L3456,959 L3455,962 L3454,969 L3448,972 L3443,973 L3438,974 L3434,973 L3428,975 L3425,976 L3422,977 L3413,980 L3410,981 L3405,984 L3402,987 L3400,990 L3397,993 L3394,996 L3391,999 L3388,1002 L3388,1005 L3391,1006 L3393,1009 L3392,1013 L3395,1016 L3398,1018 L3401,1021 L3401,1025 L3398,1029 L3394,1032 L3389,1035 L3385,1037 L3380,1040 L3374,1044 L3374,1048 L3370,1052 L3371,1057 L3373,1061 L3380,1069 L3383,1074 L3384,1078 L3380,1081 L3376,1085 L3370,1087 L3367,1084 L3365,1081 L3361,1079 L3358,1078 L3355,1073 L3354,1070 L3351,1072 L3348,1073 L3348,1070 L3347,1067 L3344,1064 L3342,1061 L3339,1064 L3335,1067 L3332,1070 L3334,1076 L3330,1082 L3328,1086 L3323,1091 L3321,1094 L3318,1096 L3315,1097 L3304,1097 L3301,1097 L3297,1096 L3293,1096 L3288,1094 L3283,1092 L3278,1090 L3274,1092 L3266,1092 L3263,1091 L3259,1091 L3255,1090 L3252,1089 L3250,1092 L3250,1096 L3253,1097 L3257,1096 L3261,1097 L3264,1099 L3267,1100 L3268,1098 L3273,1099 L3274,1103 L3278,1103 L3281,1105 L3284,1105 L3287,1104 L3290,1104 L3290,1108 L3283,1114 L3279,1115 L3277,1118 L3278,1121 L3285,1124 L3294,1128 L3298,1131 L3304,1134 L3307,1136 L3309,1140 L3309,1144 L3309,1147 L3303,1151 L3300,1151 L3298,1152 L3293,1153 L3290,1154 L3288,1156 L3285,1158 L3282,1159 L3280,1161 L3278,1162 L3276,1164 L3276,1167 L3277,1170 L3275,1174 L3278,1174 L3281,1172 L3285,1168 L3290,1165 L3295,1163 L3298,1162 L3301,1161 L3305,1161 L3315,1160 L3318,1159 L3321,1158 L3324,1156 L3329,1155 L3331,1158 L3332,1162 L3333,1165 L3334,1167 L3335,1163 L3336,1159 L3337,1154 L3339,1151 L3342,1150 L3344,1148 L3341,1146 L3344,1142 L3347,1141 L3353,1137 L3357,1137 L3358,1141 L3358,1145 L3363,1144 L3365,1150 L3366,1153 L3366,1156 L3367,1159 L3366,1162 L3362,1162 L3358,1165 L3360,1169 L3363,1172 L3365,1176 L3368,1180 L3367,1184 L3370,1183 L3375,1179 L3378,1177 L3384,1173 L3388,1170 L3391,1167 L3395,1164 L3398,1163 L3403,1162 L3406,1165 L3409,1168 L3411,1172 L3415,1177 L3420,1183 L3422,1187 L3422,1191 L3419,1193 L3415,1195 L3412,1196 L3409,1197 L3406,1198 L3403,1199 L3400,1201 L3397,1201 L3393,1204 L3394,1210 L3394,1218 L3398,1220 L3402,1220 L3412,1220 L3412,1223 L3409,1223 L3406,1223 L3400,1223 L3419,1228 L3406,1227 L3402,1228 L3405,1231 L3405,1237 L3404,1241 L3396,1241 L3395,1249 L3394,1253 L3387,1261 L3389,1265 L3394,1263 L3399,1260 L3402,1260 L3406,1258 L3409,1257 L3412,1257 L3415,1257 L3417,1260 L3419,1263 L3420,1268 L3422,1274 L3425,1287 L3427,1294 L3428,1299 L3429,1305 L3430,1311 L3432,1316 L3432,1320 L3432,1323 L3431,1326 L3430,1329 L3427,1329 L3423,1330 L3396,1330 L3386,1330 L3372,1330 L3367,1332 L3364,1333 L3360,1335 L3353,1336 L3325,1336 L3319,1337 L3312,1338 L3295,1339 L3291,1339 L3288,1338 L3285,1337 L3282,1335 L3279,1332 L3274,1330 L3265,1327 L3260,1325 L3254,1321 L3249,1319 L3248,1316 L3244,1313 L3236,1308 L3233,1306 L3228,1303 L3224,1300 L3220,1298 L3216,1300 L3213,1301 L3209,1301 L3205,1302 L3201,1302 L3198,1302 L3195,1302 L3192,1302 L3188,1303 L3185,1303 L3182,1303 L3178,1304 L3174,1305 L3170,1305 L3163,1305 L3159,1304 L3156,1303 L3149,1301 L3151,1298 L3153,1294 L3157,1288 L3159,1285 L3156,1284 L3152,1284 L3149,1284 L3146,1284 L3143,1283 L3140,1283 L3137,1282 L3133,1280 L3130,1277 L3126,1273 L3123,1269 L3121,1264 L3121,1259 L3122,1255 L3118,1252 L3119,1257 L3116,1260 L3113,1261 L3111,1263 L3108,1260 L3104,1257 L3102,1253 L3104,1252 L3105,1249 L3103,1246 L3099,1246 L3101,1249 L3102,1253 L3098,1250 L3082,1245 L3064,1245 L3009,1242 L2996,1239 L2964,1241 L2952,1235 L2951,1229 L2945,1225 L2935,1229 L2923,1243 L2915,1243 L2908,1249 L2898,1254 L2871,1275 L2865,1284 L2858,1283 L2849,1275 L2842,1272 L2834,1267 L2829,1262 L2825,1254 L2817,1246 L2800,1244 L2794,1252 L2785,1256 L2748,1265 L2741,1265 L2734,1270 L2730,1294 L2727,1301 L2730,1309 L2736,1312 L2739,1325 L2745,1329 L2755,1324 L2785,1351 L2768,1353 L2770,1378 L2753,1377 L2744,1359 L2734,1354 L2719,1341 L2727,1322 L2723,1308 L2716,1304 L2703,1306 L2694,1303 L2662,1350 L2647,1350 L2643,1344 L2637,1339 L2633,1333 L2629,1327 L2625,1313 L2623,1305 L2620,1298 L2619,1292 L2617,1284 L2615,1278 L2610,1271 L2603,1265 L2599,1258 L2598,1252 L2600,1244 L2603,1238 L2604,1221 L2596,1208 L2584,1201 L2575,1195 L2567,1188 L2561,1181 L2555,1178 L2548,1181 L2545,1188 L2542,1194 L2536,1198 L2527,1191 L2521,1186 L2515,1180 L2501,1169 L2494,1164 L2486,1168 L2475,1173 L2478,1182 L2478,1188 L2474,1194 L2465,1203 L2458,1207 L2449,1212 L2442,1216 L2434,1218 L2427,1221 L2421,1222 L2400,1219 L2393,1222 L2386,1226 L2377,1226 L2368,1229 L2361,1229 L2355,1230 L2348,1232 L2350,1238 L2352,1246 L2355,1256 L2355,1262 L2341,1266 L2335,1269 L2334,1275 L2332,1281 L2326,1285 L2320,1287 L2313,1289 L2303,1293 L2295,1296 L2278,1304 L2269,1317 L2265,1323 L2259,1332 L2253,1330 L2243,1331 L2241,1338 L2238,1345 L2231,1352 L2223,1357 L2214,1363 L2211,1372 L2212,1378 L2205,1384 L2199,1387 L2193,1391 L2190,1397 L2194,1405 L2200,1411 L2195,1418 L2189,1421 L2184,1427 L2183,1434 L2183,1445 L2182,1453 L2180,1459 L2174,1464 L2160,1471 L2153,1475 L2145,1480 L2131,1487 L2121,1496 L2114,1503 L2095,1520 L2091,1526 L2090,1532 L2096,1547 L2100,1554 L2103,1560 L2105,1566 L2116,1595 L2118,1601 L2118,1608 L2115,1623 L2108,1629 L2098,1638 L2089,1641 L2078,1650 L2074,1658 L2068,1658 L2062,1657 L2054,1657 L2047,1656 L2040,1655 L2048,1645 L2051,1639 L2045,1635 L2039,1635 L2033,1630 L2033,1624 L2030,1617 L2024,1615 L2019,1609 L2017,1603 L2015,1596 L2010,1588 L2006,1578 L2003,1572 L2002,1565 L2000,1558 L1998,1552 L1993,1546 L1989,1539 L1983,1536 L1977,1532 L1971,1530 L1965,1528 L1958,1525 L1951,1526 L1945,1532 L1940,1538 L1934,1542 L1929,1548 L1923,1551 L1916,1549 L1910,1544 L1908,1538 L1909,1532 L1912,1526 L1908,1520 L1902,1519 L1896,1521 L1890,1523 L1878,1529 L1872,1530 L1865,1532 L1851,1532 L1848,1538 L1845,1547 L1842,1556 L1838,1564 L1832,1565 L1825,1564 L1809,1564 L1798,1563 L1786,1563 L1779,1567 L1770,1571 L1761,1581 L1763,1587 L1764,1594 L1759,1601 L1745,1616 L1730,1628 L1717,1636 L1709,1642 L1703,1649 L1700,1657 L1700,1661 L1699,1668 L1696,1678 L1696,1686 L1687,1694 L1677,1704 L1674,1708 L1672,1718 L1661,1728 L1625,1759 L1616,1783 L1614,1794 L1605,1791 L1575,1779 L1570,1778 L1559,1774 L1552,1774 L1546,1778 L1545,1789 L1538,1797 L1537,1804 L1537,1811 L1540,1814 L1536,1816 L1534,1812 L1530,1807 L1525,1798 L1517,1796 L1510,1792 L1506,1793 L1499,1796 L1495,1798 L1497,1803 L1490,1803 L1488,1799 L1489,1793 L1492,1790 L1496,1789 L1499,1786 L1502,1784 L1503,1780 L1509,1776 L1511,1772 L1507,1771 L1501,1768 L1497,1765 L1497,1761 L1502,1753 L1501,1750 L1500,1742 L1500,1739 L1500,1734 L1499,1731 L1499,1721 L1500,1715 L1497,1711 L1498,1707 L1499,1704 L1496,1701 L1493,1700 L1490,1699 L1485,1698 L1481,1697 L1475,1691 L1472,1687 L1465,1679 L1461,1674 L1460,1671 L1456,1663 L1454,1656 L1457,1654 L1460,1652 L1462,1649 L1468,1644 L1471,1643 L1474,1642 L1474,1639 L1475,1635 L1478,1631 L1479,1628 L1481,1624 L1484,1611 L1484,1607 L1483,1604 L1481,1600 L1479,1594 L1478,1587 L1482,1580 L1487,1572 L1495,1563 L1503,1558 L1505,1552 L1506,1547 L1509,1538 L1509,1532 L1508,1528 L1504,1520 L1504,1515 L1506,1509 L1510,1506 L1515,1505 L1520,1504 L1523,1496 L1525,1489 L1526,1483 L1525,1479 L1524,1476 L1523,1470 L1520,1464 L1519,1459 L1520,1456 L1525,1454 L1528,1449 L1529,1440 L1524,1437 L1521,1435 L1516,1435 L1512,1434 L1511,1439 L1516,1441 L1516,1446 L1516,1450 L1515,1455 L1513,1459 L1512,1462 L1513,1471 L1514,1476 L1517,1482 L1517,1491 L1513,1494 L1509,1497 L1500,1501 L1498,1504 L1495,1508 L1495,1518 L1496,1527 L1496,1532 L1498,1539 L1496,1548 L1493,1555 L1485,1562 L1481,1565 L1473,1576 L1471,1584 L1471,1596 L1472,1605 L1474,1614 L1475,1624 L1473,1628 L1471,1633 L1468,1635 L1465,1637 L1461,1639 L1457,1642 L1454,1646 L1452,1649 L1449,1653 L1448,1656 L1447,1659 L1449,1663 L1450,1671 L1452,1675 L1457,1682 L1459,1685 L1461,1690 L1458,1695 L1456,1698 L1453,1704 L1450,1709 L1447,1714 L1443,1716 L1440,1717 L1434,1717 L1428,1714 L1425,1712 L1422,1711 L1417,1706 L1414,1705 L1403,1699 L1400,1698 L1398,1694 L1397,1691 L1396,1688 L1395,1685 L1392,1682 L1394,1679 L1396,1676 L1398,1673 L1395,1671 L1395,1668 L1399,1665 L1403,1662 L1398,1657 L1395,1659 L1391,1662 L1389,1668 L1384,1673 L1379,1677 L1375,1677 L1371,1676 L1368,1674 L1364,1675 L1360,1680 L1353,1687 L1350,1687 L1347,1685 L1346,1681 L1347,1677 L1350,1673 L1355,1673 L1355,1670 L1356,1667 L1357,1663 L1361,1658 L1364,1656 L1367,1654 L1369,1650 L1372,1648 L1371,1645 L1371,1642 L1371,1639 L1371,1636 L1370,1631 L1370,1626 L1375,1627 L1375,1625 L1372,1624 L1370,1626 L1367,1624 L1365,1621 L1363,1617 L1363,1614 L1361,1611 L1357,1612 L1360,1615 L1363,1617 L1363,1623 L1363,1628 L1361,1627 L1360,1630 L1363,1628 L1365,1632 L1367,1635 L1368,1638 L1367,1642 L1364,1649 L1361,1651 L1358,1654 L1354,1658 L1350,1661 L1347,1665 L1344,1667 L1340,1671 L1337,1674 L1335,1677 L1332,1679 L1329,1683 L1329,1687 L1326,1691 L1323,1694 L1319,1697 L1316,1698 L1313,1699 L1310,1699 L1305,1699 L1298,1698 L1295,1698 L1291,1696 L1287,1696 L1284,1695 L1280,1694 L1277,1694 L1273,1693 L1271,1697 L1268,1698 L1263,1697 L1259,1694 L1260,1691 L1262,1686 L1264,1676 L1265,1672 L1266,1667 L1270,1663 L1272,1660 L1275,1657 L1280,1647 L1280,1643 L1281,1639 L1281,1636 L1281,1625 L1279,1622 L1274,1614 L1271,1608 L1273,1602 L1278,1598 L1281,1595 L1286,1591 L1289,1586 L1293,1582 L1297,1577 L1302,1574 L1305,1572 L1308,1572 L1315,1569 L1318,1565 L1324,1561 L1328,1556 L1331,1542 L1332,1533 L1333,1528 L1333,1522 L1336,1517 L1341,1512 L1343,1497 L1343,1494 L1344,1487 L1344,1474 L1342,1470 L1340,1467 L1333,1462 L1330,1460 L1328,1456 L1326,1451 L1324,1446 L1320,1440 L1315,1437 L1309,1433 L1304,1432 L1301,1430 L1298,1425 L1298,1420 L1301,1415 L1303,1412 L1309,1411 L1316,1412 L1319,1414 L1326,1416 L1331,1418 L1337,1421 L1349,1421 L1353,1419 L1359,1417 L1360,1414 L1362,1407 L1364,1404 L1359,1397 L1355,1392 L1355,1385 L1357,1372 L1356,1367 L1352,1364 L1349,1361 L1347,1358 L1342,1355 L1333,1349 L1329,1349 L1323,1346 L1316,1346 L1307,1341 L1305,1339 L1308,1330 L1317,1325 L1329,1313 L1341,1305 L1358,1294 L1369,1283 L1359,1279 L1343,1292 L1329,1300 L1319,1311 L1309,1317 L1302,1321 L1298,1324 L1294,1325 L1290,1326 L1287,1327 L1282,1330 L1274,1333 L1271,1335 L1268,1338 L1256,1341 L1247,1341 L1243,1342 L1234,1349 L1230,1356 L1228,1359 L1221,1374 L1218,1380 L1212,1395 L1211,1400 L1210,1404 L1209,1407 L1208,1411 L1206,1415 L1203,1417 L1197,1418 L1189,1418 L1183,1419 L1179,1420 L1175,1420 L1168,1420 L1164,1421 L1157,1421 L1153,1422 L1142,1422 L1138,1425 L1135,1426 L1132,1428 L1129,1431 L1126,1432 L1121,1437 L1117,1441 L1114,1445 L1112,1448 L1110,1451 L1108,1455 L1106,1459 L1102,1467 L1101,1470 L1101,1473 L1099,1477 L1098,1483 L1097,1491 L1095,1495 L1094,1499 L1093,1504 L1093,1508 L1093,1511 L1095,1514 L1098,1515 L1099,1519 L1102,1524 L1103,1529 L1104,1533 L1104,1537 L1105,1546 L1105,1556 L1105,1560 L1105,1567 L1105,1570 L1105,1573 L1105,1578 L1106,1584 L1108,1588 L1108,1592 L1108,1596 L1108,1600 L1107,1604 L1106,1607 L1099,1610 L1094,1610 L1094,1613 L1095,1616 L1096,1620 L1095,1623 L1092,1625 L1088,1628 L1083,1632 L1078,1634 L1074,1635 L1071,1635 L1068,1634 L1065,1634 L1061,1632 L1056,1632 L1053,1631 L1050,1631 L1047,1630 L1043,1628 L1041,1625 L1039,1622 L1036,1617 L1029,1612 L1025,1611 L1021,1609 L1015,1605 L1000,1598 L987,1598 L982,1598 L980,1595 L978,1591 L979,1587 L982,1583 L988,1580 L999,1573 L1002,1571 L1005,1569 L1009,1567 L1012,1564 L1015,1563 L1017,1562 L1019,1565 L1023,1565 L1024,1568 L1027,1571 L1030,1569 L1032,1565 L1033,1561 L1039,1556 L1043,1555 L1052,1550 L1058,1549 L1062,1550 L1063,1544 L1064,1538 L1067,1532 L1070,1529 L1075,1523 L1079,1522 L1081,1518 L1079,1513 L1072,1516 L1069,1520 L1064,1527 L1056,1538 L1048,1546 L1033,1553 L1027,1558 L1024,1560 L1021,1558 L1019,1555 L1017,1551 L1013,1550 L1009,1551 L1005,1548 L1009,1542 L1010,1539 L1013,1537 L1018,1535 L1023,1532 L1030,1528 L1037,1522 L1042,1520 L1046,1517 L1049,1515 L1053,1512 L1057,1508 L1060,1504 L1070,1494 L1076,1485 L1078,1479 L1079,1474 L1081,1470 L1088,1460 L1090,1455 L1092,1446 L1095,1435 L1097,1428 L1098,1423 L1098,1418 L1101,1415 L1102,1412 L1105,1408 L1105,1404 L1105,1398 L1102,1390 L1099,1379 L1097,1375 L1096,1369 L1096,1363 L1096,1352 L1103,1342 L1117,1334 L1123,1329 L1126,1328 L1129,1325 L1132,1322 L1135,1318 L1137,1315 L1142,1312 L1147,1308 L1150,1306 L1157,1302 L1172,1295 L1185,1277 L1177,1278 L1174,1277 L1166,1277 L1163,1282 L1148,1287 L1130,1302 L1114,1312 L1105,1317 L1098,1323 L1084,1339 L1083,1342 L1082,1345 L1080,1350 L1078,1354 L1077,1359 L1076,1364 L1075,1367 L1075,1370 L1076,1374 L1078,1378 L1081,1381 L1086,1387 L1086,1390 L1086,1394 L1086,1397 L1086,1401 L1084,1405 L1085,1408 L1084,1411 L1082,1415 L1082,1419 L1082,1423 L1082,1426 L1078,1429 L1073,1427 L1067,1424 L1060,1424 L1057,1428 L1054,1439 L1050,1443 L1047,1445 L1043,1447 L1039,1450 L1031,1454 L1023,1460 L1019,1462 L1016,1464 L1012,1466 L1005,1471 L1001,1475 L995,1478 L980,1483 L975,1485 L972,1486 L969,1487 L965,1487 L959,1487 L955,1488 L952,1489 L949,1491 L941,1494 L937,1494 L929,1495 L917,1496 L903,1499 L899,1501 L896,1502 L893,1502 L881,1507 L876,1510 L872,1512 L869,1514 L866,1516 L863,1516 L861,1513 L860,1509 L859,1504 L855,1503 L855,1506 L857,1510 L857,1516 L857,1519 L839,1522 L832,1533 L828,1536 L819,1544 L816,1546 L813,1549 L809,1552 L805,1556 L802,1558 L798,1561 L794,1564 L789,1568 L785,1571 L781,1572 L777,1573 L775,1570 L774,1567 L772,1564 L765,1562 L767,1565 L769,1569 L774,1576 L775,1580 L773,1584 L767,1590 L763,1593 L760,1594 L756,1594 L753,1591 L750,1590 L747,1590 L743,1592 L740,1594 L737,1596 L733,1594 L729,1593 L725,1591 L722,1591 L719,1590 L713,1594 L704,1594 L697,1594 L681,1594 L675,1596 L671,1598 L667,1599 L663,1595 L660,1594 L657,1596 L653,1598 L648,1602 L640,1607 L628,1607 L624,1607 L615,1608 L603,1610 L600,1611 L598,1617 L595,1618 L576,1623 L562,1618 L553,1615 L550,1611 L547,1608 L544,1605 L539,1601 L519,1595 L506,1589 L496,1586 L490,1587 L487,1586 L482,1585 L479,1584 L474,1580 L477,1574 L472,1572 L464,1568 L461,1567 L456,1567 L453,1567 L447,1565 L426,1565 L420,1563 L411,1561 L405,1560 L401,1560 L396,1560 L392,1559 L388,1555 L381,1552 L371,1548 L368,1547 L358,1544 L349,1544 L331,1539 L326,1537 L312,1532 L304,1528 L295,1523 L288,1518 L285,1514 L284,1510 L284,1504 L283,1498 L284,1494 L283,1484 L283,1481 L284,1476 L285,1472 L285,1460 L285,1450 L284,1446 L284,1442 L283,1439 L281,1436 L280,1430 L279,1427 L278,1420 L275,1414 L206,1354 L215,1339 L215,1332 L219,1324 L211,1316 L202,1311 L196,1309 L191,1307 L181,1310 L175,1308 L176,1303 L178,1299 L184,1291 L187,1285 L193,1281 L198,1280 L202,1280 L207,1282 L213,1284 L217,1285 L226,1289 L235,1290 L238,1294 L241,1294 L241,1290 L235,1290 L232,1288 L230,1285 L234,1280 L230,1282 L222,1282 L209,1279 L200,1277 L193,1277 L189,1279 L184,1283 L181,1279 L179,1282 L177,1285 L174,1288 L171,1291 L175,1293 L172,1298 L171,1301 L168,1301 L166,1305 L160,1320 L154,1321 L153,1317 L153,1314 L154,1307 L148,1306 L133,1300 L125,1314 L122,1317 L109,1316 L105,1312 L101,1308 L102,1295 L104,1282 L96,1273 L93,1270 L88,1265 L86,1262 L84,1259 L74,1247 L74,1244 L77,1239 L79,1235 L77,1232 L69,1229 L63,1226 L60,1225 L56,1221 L50,1217 L47,1215 L40,1210 L32,1205 L27,1203 L24,1201 L20,1199 L16,1197 L12,1195 L8,1191 L2,1188 L1,1184 L2,1179 L3,1174 L3,1170 L2,1167 L1,1162 L0,1158 L1,1153 L2,1150 L2,1140 L2,1136 L2,1128 L2,1121 L4,1116 L6,1111 L15,1106 L22,1103 L26,1101 L29,1101 L35,1100 L41,1096 L48,1094 L53,1091 L57,1089 L65,1087 L75,1090 L78,1090 L81,1085 L82,1078 L80,1075 L83,1074 L87,1071 L90,1070 L94,1065 L93,1061 L94,1057 L95,1054 L97,1048 L98,1045 L96,1042 L91,1037 L88,1036 L83,1032 L83,1026 L83,1023 L82,1019 L81,1015 L81,1012 L81,1009 L77,1005 L76,1001 L75,997 L76,994 L80,994 L84,995 L86,992 L82,988 L79,988 L76,986 L75,981 L75,978 L74,975 L74,972 L73,968 L74,965 L70,965 L67,964 L64,963 L62,960 L60,957 L58,954 L57,951 L53,949 L52,946 L50,943 L46,945 L44,939 L50,935 L54,935 L59,931 L63,926 L61,922 L62,914 L63,909 L67,904 L66,897 L67,892 L73,889 L81,887 L85,887 L94,886 L99,888 L99,895 L100,902 L103,902 L107,895 L112,892 L118,890 L119,885 L124,883 L130,886 L133,891 L141,899 L146,902 L155,910 L161,912 L180,915 L184,912 L191,908 L195,906 L202,904 L209,901 L213,899 L220,893 L226,890 L230,883 L242,875 L247,870 L251,867 L260,858 L265,855 L268,849 L273,845 L277,839 L281,837 L288,836 L294,836 L299,836 L303,837 L305,841 L310,842 L314,842 L317,843 L320,844 L324,846 L327,848 L331,849 L335,847 L338,845 L334,841 L328,840 L328,836 L331,835 L334,833 L339,835 L342,836 L347,833 L350,830 L353,825 L359,822 L363,818 L372,815 L378,811 L383,807 L392,806 L403,806 L409,805 L416,801 L418,796 L419,792 L422,785 L423,782 L428,783 L432,785 L437,789 L440,791 L446,791 L450,794 L453,794 L457,794 L460,793 L457,790 L459,785 L455,777 L454,769 L460,759 L461,743 L465,734 L486,721 L489,711 L483,701 L485,694 L502,686 L511,682 L516,688 L524,684 L524,674 L521,667 L528,663 L536,658 L545,654 L551,647 L552,640 L553,632 L557,624 L550,617 L541,612 L535,608 L548,606 L558,606 L561,600 L553,592 L545,581 L544,575 L551,572 L558,565 L565,561 L565,551 L559,546 L563,539 L558,532 L552,530 L543,531 L535,532 L526,539 L520,541 L512,543 L506,534 L507,528 L510,522 L510,505 L504,490 L503,484 L503,477 L512,473 L522,476 L528,476 L535,473 L542,467 L548,461 L559,455 L569,449 L577,452 L584,455 L583,449 L578,443 L577,436 L585,433 L592,433 L601,434 L605,443 L605,449 L601,456 L596,463 L590,465 L583,467 L574,472 L565,475 L564,484 L569,497 L576,505 L581,517 L586,524 L599,518 L596,507 L594,498 L604,496 L610,492 L611,477 L623,460 L624,452 L620,445 L622,439 L634,442 L643,446 L648,439 L647,428 L655,422 L664,434 L674,430 L686,426 L697,419 L707,422 L713,421 L713,415 L717,408 L725,403 L733,403 L741,401 L757,401 L765,400 L772,402 L786,403 L798,408 L805,408 L813,412 L818,422 L826,425 L834,428 L842,429 L849,429 L855,428 L853,421 L855,411 L863,409 L868,403 L869,392 L870,384 L877,376 L882,369 L886,363 L889,356 L896,347 L904,346 L910,347 L913,353 L919,357 L930,361 L941,364 L976,371 L1003,367 L1032,369 L1048,374 L1056,370 L1058,357 L1075,354 L1089,349 L1100,339 L1100,329 L1107,322 L1117,327 L1134,334 L1143,336 L1163,338 L1170,332 L1165,321 L1155,311 L1148,301 L1155,292 L1167,286 L1173,280 L1173,274 L1181,273 L1191,271 L1196,263 L1202,255 L1198,246 L1205,242 L1208,236 L1203,228 L1206,220 L1214,221 L1219,207 L1240,202 L1257,205 L1267,222 L1270,229 L1268,242 L1276,242 L1293,249 L1294,258 L1300,260 L1310,264 L1316,267 L1325,270 L1332,273 L1341,280 L1346,286 L1354,291 L1363,306 L1372,324 L1381,338 L1396,341 L1420,345 L1428,342 L1428,327 L1433,321 L1441,322 L1448,320 L1454,317 L1465,308 L1475,304 L1489,299 L1496,298 L1500,306 L1508,318 L1510,331 L1524,346 L1530,348 L1539,345 L1547,344 L1548,336 L1548,329 L1551,320 L1552,314 L1560,320 L1565,327 L1572,331 L1580,335 L1595,338 L1603,346 L1617,352 L1623,364 L1627,378 L1646,381 L1667,386 L1678,378 L1686,374 L1693,377 L1696,370 L1707,370 L1710,353 L1721,344 L1727,337 L1751,332 L1749,325 L1764,322 L1772,323 L1778,332 L1791,329 L1800,318 L1805,311 L1815,313 L1817,322 L1822,329 L1835,327 L1835,320 L1841,320 L1844,335 L1834,341 L1832,351 L1838,353 L1844,353 L1849,346 L1856,337 L1863,333 L1870,330 L1876,326 L1880,318 L1886,309 L1881,297 L1870,294 L1860,299 L1854,299 L1846,297 L1841,290 L1843,281 L1850,282 L1862,284 L1870,284 L1876,280 L1884,278 L1895,278 L1896,288 L1899,298 L1913,297 L1911,287 L1924,289 L1931,290 L1932,283 L1923,278 L1921,267 L1930,266 L1939,258 L1949,254 L1949,266 L1943,270 L1950,280 L1957,282 L1965,285 L1974,277 L1987,279 L1996,274 L2008,264 L2018,263 L2025,271 L2034,272 L2040,268 L2032,253 L2035,246 L2034,237 L2031,224 L2035,215 L2031,208 L2024,207 L2015,205 L2015,194 L2018,187 L2020,180 L2023,174 L2017,164 L2014,156 L2014,145 L2016,139 L2027,141 L2038,152 L2046,157 L2055,161 L2062,160 L2062,145 L2065,138 L2072,139 L2079,142 L2095,146 L2107,146 L2113,145 L2114,136 L2105,125 L2099,108 L2091,102 L2088,90 L2089,84 L2094,76 L2096,69 L2090,66 L2084,61 L2077,63 L2080,74 L2079,81 L2072,80 L2065,80 L2062,74 L2062,62 L2056,56 L2055,46 L2060,39 L2069,42 L2082,42 L2090,40 L2100,45 L2109,41 L2124,26 L2130,34 L2131,41 L2131,48 L2134,57 L2144,62 L2157,69 L2170,68 L2162,60 L2152,54 L2149,46 L2153,38 L2153,29 L2159,30 L2165,35 L2170,42 L2176,47 L2176,19 L2184,14 L2186,28 L2187,39 L2196,46 L2192,53 L2200,57 L2203,49 L2213,50 L2211,60 L2207,74 L2209,80 L2221,101 L2228,105 L2238,102 L2248,99 L2245,92 L2231,84 L2223,77 L2231,76 L2240,66 L2252,69 L2259,71 L2267,71 L2275,76 L2276,84 L2286,88 L2288,95 L2286,103 L2286,125 L2282,131 L2276,137 L2270,138 L2264,145 L2257,149 L2257,156 L2264,164 L2269,171 L2276,175 L2285,171 L2286,165 L2292,158 L2303,155 L2313,156 L2312,146 L2312,139 L2313,133 L2326,132 L2333,135 L2331,149 L2331,157 L2338,153 L2345,150 L2351,141 L2355,133 L2357,124 L2357,116 L2352,110 L2350,100 L2362,90 L2372,85 L2384,76 L2386,70 L2388,59 L2398,56 L2406,56 L2413,54 L2423,53 L2432,62 L2440,67 L2453,67 L2460,68 L2460,84 L2473,94 L2479,98 L2492,101 L2501,110 L2512,113 L2520,117 L2524,125 L2526,132 L2533,136 L2539,136 L2541,126 L2552,117 L2561,111 L2572,109 L2582,106 L2591,105 L2615,111 L2631,117 L2644,118 L2653,120 L2656,129 L2648,142 L2662,144 L2668,145 L2676,142 L2673,131 L2673,123 L2678,95 L2681,81 L2677,58 L2682,49 L2689,46 L2700,44 L2713,45 L2723,48 L2732,51 L2740,54 L2748,55 L2755,58 L2762,60 L2768,60 L2784,62 L2792,67 L2805,70 L2815,64 L2817,58 L2817,44 L2820,37 L2834,38 L2843,30 L2856,3 L2866,0 L2882,2z M3707,864 L3709,862 L3712,866 L3709,871 L3708,874 L3704,877 L3702,884 L3696,884 L3693,883 L3696,881 L3699,877 L3702,875 L3704,871 L3705,867 L3707,864z M3671,877 L3668,877 L3670,873 L3669,869 L3673,866 L3677,864 L3679,868 L3676,867 L3673,869 L3670,873 L3671,877z M3666,867 L3662,869 L3664,867 L3666,867z M329,1183 L330,1180 L333,1181 L329,1183z M318,1187 L323,1186 L321,1188 L317,1191 L316,1195 L312,1201 L310,1205 L306,1206 L305,1211 L301,1213 L296,1215 L292,1215 L297,1212 L301,1209 L306,1206 L305,1203 L309,1201 L311,1198 L313,1194 L317,1191 L318,1187z M288,1214 L285,1216 L281,1216 L285,1213 L288,1214z M268,1220 L272,1219 L275,1219 L268,1223 L264,1225 L261,1229 L260,1233 L255,1237 L251,1240 L250,1244 L250,1250 L248,1254 L247,1259 L247,1263 L244,1266 L243,1270 L243,1273 L242,1276 L237,1278 L239,1273 L240,1268 L241,1265 L244,1262 L247,1259 L246,1256 L248,1254 L247,1250 L247,1245 L248,1240 L249,1237 L253,1234 L256,1231 L257,1228 L258,1225 L259,1221 L264,1220 L268,1220z M3332,1176 L3335,1174 L3337,1176 L3332,1176 L3330,1180 L3326,1183 L3321,1184 L3323,1182 L3325,1179 L3328,1177 L3332,1176z M3070,1227 L3072,1226 L3074,1228 L3070,1227z M3117,1244 L3121,1243 L3122,1246 L3118,1248 L3117,1244z M3601,1151 L3605,1148 L3606,1151 L3601,1151z M3618,1227 L3622,1223 L3620,1228 L3615,1229 L3618,1227z M3835,1334 L3839,1333 L3838,1336 L3838,1340 L3837,1343 L3832,1341 L3825,1337 L3828,1334 L3832,1341 L3834,1337 L3835,1334z M4123,1532 L4122,1528 L4126,1531 L4123,1532z M3870,1596 L3876,1595 L3873,1597 L3870,1596z " class="polyStyle" id="450521" style="fill:#f6f67b"/>
<path d="" class="polyStyle" id="450123" style="fill:#fbe6ef"/>
<path d="" class="polyStyle" id="350624" style="fill:#f6f67b"/>
<path d="" class="polyStyle" id="" style="fill:#fbe6ef"/>
<path d="" class="polyStyle" id="451224" style="fill:#fbe6ef"/>
<path d="" class="polyStyle" id="350627" style="fill:#f6f67b"/>
<path d="" class="polyStyle" id="" style="fill:#f6f67b"/>
<path d="" class="polyStyle" id="350525" style="fill:#f6f67b"/>
<path d="" class="polyStyle" id="530124" style="fill:#ee8b94"/>
<path d="" class="polyStyle" id="522627" style="fill:#ee8b94"/>
<path d="" class="polyStyle" id="510421" style="fill:#fbe6ef"/>
<path d="" class="polyStyle" id="522623" style="fill:#d4ecb2"/>
<path d="" class="polyStyle" id="430321" style="fill:#d4ecb2"/>
<path d="" class="polyStyle" id="511129" style="fill:#d4ecb2"/>
<path d="" class="polyStyle" id="511423" style="fill:#ee8b94"/>
<path d="" class="polyStyle" id="421023" style="fill:#f6f67b"/>
<path d="" class="polyStyle" id="511724" style="fill:#f6f67b"/>
<path d="" class="polyStyle" id="420526" style="fill:#fbe6ef"/>
<path d="" class="polyStyle" id="511923" style="fill:#fbe6ef"/>
<path d="" class="polyStyle" id="420325" style="fill:#fbe6ef"/>
<path d="" class="polyStyle" id="511921" style="fill:#f6f67b"/>
<path d="" class="polyStyle" id="542525" style="fill:#f6f67b"/>
<path d="" class="polyStyle" id="611026" style="fill:#ee8b94"/>
<path d="" class="polyStyle" id="411023" style="fill:#fbe6ef"/>
<path d="" class="polyStyle" id="632323" style="fill:#f6f67b"/>
<path d="" class="polyStyle" id="140525" style="fill:#d4ecb2"/>
<path d="" class="polyStyle" id="410922" style="fill:#ee8b94"/>
<path d="" class="polyStyle" id="621027" style="fill:#ee8b94"/>
<path d="" class="polyStyle" id="130427" style="fill:#f6f67b"/>
<path d="" class="polyStyle" id="130121" style="fill:#ee8b94"/>
<path d="" class="polyStyle" id="610823" style="fill:#fbe6ef"/>
<path d="" class="polyStyle" id="130225" style="fill:#fbe6ef"/>
<path d="" class="polyStyle" id="130322" style="fill:#d4ecb2"/>
<path d="" class="polyStyle" id="653130" style="fill:#f6f67b"/>
<path d="" class="polyStyle" id="130822" style="fill:#fbe6ef"/>
<path d="" class="polyStyle" id="211221" style="fill:#f6f67b"/>
<path d="" class="polyStyle" id="210921" style="fill:#f6f67b"/>
<path d="" class="polyStyle" id="150223" style="fill:#f8c67d"/>
<path d="" class="polyStyle" id="220422" style="fill:#d4ecb2"/>
<path d="" class="polyStyle" id="340721" style="fill:#f6f67b"/>
<path d="" class="polyStyle" id="510824" style="fill:#d4ecb2"/>
<path d="" class="polyStyle" id="610324" style="fill:#f6f67b"/>
<path d="" class="polyStyle" id="530722" style="fill:#ee8b94"/>
<path d="" class="polyStyle" id="340823" style="fill:#d4ecb2"/>
<path d="" class="polyStyle" id="620825" style="fill:#d4ecb2"/>
<polygon points="1318,1557 1314,1561 1311,1564 1308,1567 1305,1568 1301,1570 1297,1571 1291,1571 1288,1572 1282,1574 1278,1577 1274,1581 1267,1590 1265,1598 1265,1601 1264,1609 1265,1612 1267,1615 1271,1620 1273,1623 1274,1627 1274,1630 1273,1637 1273,1640 1271,1646 1270,1648 1268,1655 1264,1660 1261,1663 1256,1666 1253,1669 1248,1675 1246,1676 1243,1676 1240,1678 1237,1680 1236,1683 1233,1685 1229,1684 1226,1682 1222,1680 1219,1677 1217,1675 1216,1672 1216,1670 1219,1667 1222,1664 1226,1661 1223,1658 1220,1656 1217,1659 1216,1661 1213,1664 1210,1666 1208,1667 1204,1668 1202,1668 1200,1667 1197,1667 1194,1663 1194,1661 1193,1658 1187,1656 1183,1656 1180,1653 1173,1648 1171,1646 1164,1639 1159,1635 1157,1630 1153,1629 1148,1629 1143,1629 1137,1622 1131,1616 1127,1609 1127,1605 1127,1596 1126,1593 1126,1584 1125,1580 1125,1573 1125,1569 1124,1553 1123,1549 1122,1545 1122,1542 1122,1540 1121,1537 1121,1534 1120,1531 1120,1529 1119,1525 1119,1522 1119,1519 1118,1516 1117,1513 1117,1510 1116,1506 1116,1501 1115,1494 1116,1484 1116,1482 1117,1479 1118,1476 1119,1474 1120,1469 1121,1466 1122,1463 1126,1456 1129,1453 1131,1450 1134,1448 1136,1446 1139,1445 1142,1444 1144,1443 1147,1442 1150,1441 1154,1440 1157,1439 1160,1438 1162,1437 1165,1437 1168,1436 1197,1437 1201,1437 1206,1436 1209,1434 1215,1430 1217,1425 1222,1416 1226,1398 1231,1385 1232,1379 1233,1370 1236,1364 1245,1356 1253,1352 1258,1351 1262,1349 1268,1348 1274,1346 1278,1344 1281,1344 1284,1346 1288,1351 1291,1353 1296,1353 1299,1353 1304,1349 1306,1346 1315,1347 1323,1351 1333,1356 1341,1359 1348,1362 1351,1365 1353,1370 1353,1373 1352,1378 1353,1389 1357,1398 1360,1403 1360,1408 1356,1414 1351,1416 1347,1418 1343,1417 1337,1417 1333,1415 1328,1413 1320,1409 1314,1407 1307,1407 1303,1409 1299,1412 1295,1417 1293,1422 1293,1425 1294,1430 1295,1433 1298,1435 1303,1436 1308,1438 1311,1440 1313,1443 1317,1448 1321,1453 1324,1459 1328,1463 1333,1467 1336,1471 1336,1474 1335,1478 1334,1483 1333,1486 1333,1491 1335,1494 1336,1498 1336,1502 1335,1506 1334,1509 1333,1512 1330,1516 1328,1521 1327,1524 1326,1529 1325,1533 1325,1537 1325,1543 1324,1547 1321,1552 1319,1554 " class="polyStyle" id="450521" style="fill:#f6f67b"/>
<polygon points="929,1526 932,1525 952,1517 960,1513 965,1511 971,1509 977,1506 981,1504 986,1501 993,1498 996,1497 1002,1493 1005,1491 1011,1486 1013,1484 1020,1478 1023,1476 1025,1472 1031,1467 1035,1464 1040,1461 1043,1459 1047,1457 1052,1454 1058,1450 1060,1448 1075,1439 1079,1438 1082,1438 1082,1442 1081,1444 1081,1447 1080,1449 1079,1452 1078,1455 1077,1457 1076,1461 1071,1476 1068,1484 1067,1487 1065,1490 1063,1493 1060,1496 1057,1498 1054,1501 1050,1505 1046,1509 1040,1512 1029,1517 1026,1518 1023,1520 1021,1521 1017,1523 1014,1525 1012,1526 1009,1526 1006,1525 1002,1525 999,1526 996,1527 991,1528 989,1530 988,1534 984,1536 982,1538 979,1539 976,1542 972,1543 969,1544 965,1545 962,1547 958,1550 955,1552 950,1559 949,1561 947,1565 945,1568 940,1571 939,1574 936,1577 933,1578 929,1580 926,1582 924,1583 921,1582 918,1582 915,1581 912,1581 909,1580 906,1578 904,1572 903,1570 905,1564 908,1556 911,1543 912,1540 913,1537 914,1535 918,1532 921,1530 924,1529 " class="polyStyle" id="450521" style="fill:#f6f67b"/>
<path d="" class="polyStyle" id="421125" style="fill:#ee8b94"/>
<path d="" class="polyStyle" id="210281" style="fill:#ee8b94"/>
<path d="" class="polyStyle" id="440883" style="fill:#f6f67b"/>
<path d="" class="polyStyle" id="469006" style="fill:#d4ecb2"/>
<path d="" class="polyStyle" id="469002" style="fill:#ee8b94"/>
<path d="" class="polyStyle" id="469005" style="fill:#fbe6ef"/>
<path d="" class="polyStyle" id="440882" style="fill:#ee8b94"/>
<path d="" class="polyStyle" id="450681" style="fill:#ee8b94"/>
<path d="" class="polyStyle" id="441581" style="fill:#d4ecb2"/>
<path d="" class="polyStyle" id="421087" style="fill:#ee8b94"/>
<path d="" class="polyStyle" id="420984" style="fill:#fbe6ef"/>
<path d="" class="polyStyle" id="420582" style="fill:#ee8b94"/>
<path d="" class="polyStyle" id="370282" style="fill:#f6f67b"/>
<path d="" class="polyStyle" id="371083" style="fill:#f6f67b"/>
<path d="" class="polyStyle" id="371082" style="fill:#fbe6ef"/>
<path d="" class="polyStyle" id="652801" style="fill:#f8c67d"/>
<path d="" class="polyStyle" id="654301" style="fill:#ee8b94"/>
<path d="" class="polyStyle" id="370687" style="fill:#ee8b94"/>
<path d="" class="polyStyle" id="371482" style="fill:#d4ecb2"/>
<path d="" class="polyStyle" id="421081" style="fill:#fbe6ef"/>
<path d="" class="polyStyle" id="429006" style="fill:#f6f67b"/>
<path d="" class="polyStyle" id="440982" style="fill:#d4ecb2"/>
<path d="" class="polyStyle" id="421181" style="fill:#d4ecb2"/>
<path d="" class="polyStyle" id="321181" style="fill:#d4ecb2"/>
<path d="" class="polyStyle" id="659007" style="fill:#ee8b94"/>
<path d="" class="polyStyle" id="652701" style="fill:#fbe6ef"/>
<path d="" class="polyStyle" id="210781" style="fill:#fbe6ef"/>
<path d="" class="polyStyle" id="460204" style="fill:#f6f67b"/>
<path d="" class="polyStyle" id="210211" style="fill:#f6f67b"/>
<polygon points="1744,1710 1745,1720 1747,1728 1748,1786 1752,1812 1756,1820 1778,1883 1785,1913 1784,1916 1776,1989 1773,2016 1761,2046 1743,2070 1735,2086 1715,2112 1643,2214 1641,2217 1612,2236 1609,2240 1580,2251 1567,2257 1567,2272 1579,2280 1591,2293 1592,2310 1590,2313 1562,2335 1556,2341 1559,2356 1557,2375 1528,2377 1514,2346 1496,2298 1491,2294 1471,2298 1453,2308 1369,2334 1313,2351 1264,2366 1242,2372 1227,2377 1217,2377 1205,2373 1197,2370 1180,2364 1169,2360 1154,2355 1139,2343 1124,2360 1116,2369 1103,2362 1079,2355 1063,2343 1045,2333 1021,2329 1008,2331 988,2322 990,2321 992,2318 994,2309 995,2306 995,2303 998,2301 1002,2300 1005,2298 1010,2296 1014,2294 1016,2291 1020,2288 1021,2283 1012,2273 1031,2258 1042,2249 1032,2238 1044,2228 1057,2242 1060,2241 1064,2237 1071,2232 1081,2229 1084,2229 1089,2226 1098,2218 1101,2211 1103,2207 1105,2204 1110,2194 1112,2185 1112,2182 1115,2182 1118,2180 1122,2180 1126,2181 1130,2182 1135,2184 1138,2186 1154,2187 1160,2188 1161,2191 1164,2192 1167,2195 1169,2198 1166,2199 1163,2200 1160,2199 1157,2200 1154,2201 1142,2208 1139,2208 1132,2211 1129,2212 1130,2219 1136,2217 1141,2215 1145,2212 1151,2209 1156,2207 1164,2205 1168,2204 1172,2203 1178,2202 1183,2201 1189,2200 1192,2200 1197,2199 1201,2199 1204,2199 1209,2198 1214,2197 1220,2197 1223,2196 1226,2196 1229,2195 1233,2194 1239,2193 1244,2193 1247,2192 1250,2192 1253,2191 1257,2188 1260,2187 1264,2185 1270,2184 1278,2182 1286,2180 1288,2179 1292,2177 1296,2177 1299,2176 1302,2174 1305,2171 1314,2169 1325,2166 1329,2165 1355,2158 1367,2154 1371,2152 1378,2149 1383,2147 1391,2143 1399,2139 1405,2136 1413,2131 1422,2126 1430,2124 1444,2116 1453,2111 1461,2105 1466,2101 1472,2098 1478,2091 1489,2075 1496,2070 1509,2059 1515,2055 1518,2053 1521,2051 1529,2044 1532,2042 1539,2035 1550,2024 1557,2017 1561,2013 1566,2005 1569,2001 1571,1998 1574,1992 1575,1989 1577,1986 1578,1982 1580,1979 1582,1973 1584,1967 1587,1958 1588,1954 1588,1951 1588,1925 1588,1921 1582,1907 1578,1901 1572,1896 1570,1893 1568,1889 1566,1885 1563,1879 1560,1877 1558,1872 1549,1871 1546,1868 1542,1864 1540,1861 1532,1852 1531,1849 1527,1843 1522,1837 1523,1834 1528,1829 1532,1827 1537,1825 1540,1823 1539,1819 1536,1816 1540,1814 1537,1811 1537,1804 1538,1797 1545,1789 1546,1778 1552,1774 1559,1774 1570,1778 1575,1779 1605,1791 1614,1794 1616,1783 1625,1759 1661,1728 1672,1718 1674,1708 1677,1704 1687,1694 1696,1686 1696,1678 1699,1668 1700,1661 1700,1657 1703,1649 1709,1642 1717,1636 1730,1628 1742,1652 " class="polyStyle" id="450502" style="fill:#ee8b94"/>
<path d="M2951,1229 L2952,1235 L2964,1241 L2996,1239 L3009,1242 L3064,1245 L3082,1245 L3098,1250 L3102,1253 L3102,1256 L3099,1259 L3102,1261 L3104,1263 L3101,1266 L3098,1267 L3098,1270 L3098,1273 L3095,1275 L3093,1278 L3101,1275 L3103,1271 L3103,1267 L3104,1263 L3108,1263 L3111,1263 L3113,1266 L3116,1268 L3119,1269 L3121,1271 L3122,1274 L3125,1279 L3126,1283 L3123,1284 L3120,1283 L3117,1284 L3116,1291 L3117,1294 L3122,1294 L3124,1291 L3129,1289 L3133,1292 L3136,1294 L3137,1299 L3132,1302 L3131,1305 L3129,1308 L3130,1311 L3133,1308 L3134,1305 L3137,1299 L3141,1301 L3144,1305 L3148,1307 L3151,1304 L3157,1308 L3160,1309 L3167,1309 L3170,1309 L3173,1311 L3174,1314 L3179,1315 L3184,1315 L3188,1316 L3191,1316 L3194,1316 L3194,1319 L3195,1323 L3194,1326 L3193,1329 L3197,1327 L3195,1323 L3197,1318 L3201,1318 L3205,1319 L3208,1322 L3211,1326 L3213,1329 L3215,1333 L3219,1336 L3222,1336 L3225,1338 L3231,1342 L3236,1342 L3239,1344 L3243,1347 L3247,1348 L3250,1349 L3255,1350 L3260,1353 L3264,1355 L3268,1357 L3273,1358 L3276,1356 L3280,1357 L3281,1360 L3285,1359 L3291,1359 L3294,1359 L3296,1356 L3300,1359 L3302,1357 L3308,1358 L3312,1358 L3316,1359 L3320,1359 L3322,1357 L3325,1357 L3330,1358 L3333,1359 L3336,1359 L3340,1364 L3350,1363 L3353,1360 L3357,1361 L3361,1362 L3371,1364 L3378,1366 L3381,1369 L3384,1372 L3389,1374 L3394,1375 L3399,1376 L3402,1377 L3405,1378 L3411,1378 L3414,1379 L3416,1382 L3416,1385 L3414,1388 L3410,1389 L3407,1391 L3410,1394 L3413,1395 L3416,1393 L3419,1393 L3422,1394 L3420,1397 L3421,1400 L3425,1403 L3428,1405 L3429,1409 L3433,1410 L3437,1412 L3444,1417 L3446,1420 L3447,1423 L3448,1428 L3451,1433 L3453,1437 L3456,1441 L3457,1445 L3458,1448 L3461,1450 L3461,1453 L3460,1456 L3456,1458 L3457,1461 L3459,1464 L3464,1465 L3471,1464 L3473,1467 L3473,1471 L3474,1475 L3476,1478 L3479,1479 L3483,1479 L3492,1487 L3498,1493 L3505,1500 L3509,1503 L3512,1506 L3515,1509 L3516,1513 L3517,1516 L3520,1518 L3525,1523 L3530,1528 L3534,1530 L3539,1529 L3543,1532 L3545,1535 L3550,1535 L3553,1536 L3556,1536 L3560,1538 L3564,1541 L3568,1543 L3574,1546 L3576,1542 L3578,1535 L3582,1537 L3587,1539 L3584,1548 L3588,1551 L3590,1554 L3587,1555 L3587,1558 L3587,1562 L3586,1567 L3585,1575 L3584,1579 L3583,1584 L3584,1589 L3586,1593 L3590,1599 L3593,1605 L3595,1608 L3596,1612 L3597,1615 L3597,1619 L3596,1624 L3596,1629 L3599,1633 L3603,1636 L3607,1635 L3610,1636 L3615,1637 L3619,1640 L3624,1642 L3629,1645 L3632,1643 L3635,1649 L3636,1654 L3633,1656 L3634,1660 L3637,1661 L3640,1660 L3643,1658 L3647,1657 L3650,1658 L3652,1661 L3655,1668 L3657,1673 L3658,1676 L3660,1680 L3665,1678 L3671,1691 L3680,1710 L3650,1723 L3643,1725 L3631,1729 L3633,1718 L3633,1713 L3630,1715 L3629,1718 L3626,1722 L3624,1726 L3621,1730 L3617,1735 L3614,1735 L3611,1734 L3607,1736 L3605,1739 L3602,1740 L3599,1742 L3602,1744 L3608,1744 L3616,1744 L3621,1747 L3627,1752 L3631,1756 L3636,1762 L3640,1766 L3642,1769 L3644,1774 L3646,1778 L3648,1782 L3649,1785 L3649,1790 L3648,1793 L3647,1796 L3646,1799 L3644,1802 L3643,1806 L3642,1809 L3640,1814 L3636,1821 L3635,1824 L3632,1828 L3629,1830 L3625,1830 L3621,1832 L3618,1831 L3614,1831 L3609,1831 L3604,1830 L3601,1830 L3597,1830 L3592,1829 L3588,1829 L3585,1829 L3581,1829 L3578,1828 L3575,1828 L3570,1829 L3567,1833 L3567,1842 L3568,1846 L3568,1849 L3568,1853 L3568,1856 L3566,1861 L3561,1864 L3554,1863 L3550,1863 L3546,1862 L3542,1861 L3537,1860 L3532,1856 L3529,1852 L3530,1857 L3529,1861 L3531,1865 L3534,1867 L3538,1867 L3543,1867 L3547,1866 L3553,1866 L3558,1869 L3565,1876 L3564,1880 L3564,1883 L3562,1889 L3560,1893 L3557,1897 L3552,1900 L3545,1904 L3539,1906 L3534,1910 L3535,1914 L3538,1914 L3541,1911 L3545,1910 L3554,1910 L3557,1913 L3560,1916 L3562,1922 L3564,1926 L3565,1930 L3564,1933 L3562,1938 L3559,1942 L3559,1952 L3558,1957 L3557,1960 L3556,1964 L3554,1969 L3549,1970 L3535,1970 L3533,1975 L3537,1974 L3540,1974 L3544,1973 L3548,1973 L3549,1976 L3542,1984 L3539,1987 L3535,1991 L3532,1994 L3528,2000 L3523,2005 L3520,2008 L3516,2012 L3513,2016 L3510,2019 L3508,2022 L3506,2025 L3503,2029 L3499,2034 L3497,2037 L3494,2039 L3491,2043 L3488,2046 L3487,2049 L3484,2051 L3481,2055 L3479,2058 L3477,2062 L3476,2065 L3472,2068 L3466,2073 L3461,2078 L3458,2080 L3455,2083 L3450,2087 L3445,2090 L3440,2094 L3437,2095 L3433,2098 L3429,2100 L3425,2103 L3422,2106 L3419,2107 L3416,2109 L3412,2112 L3409,2115 L3398,2120 L3389,2125 L3386,2127 L3383,2129 L3374,2133 L3371,2136 L3366,2139 L3362,2141 L3359,2143 L3354,2147 L3350,2151 L3345,2155 L3342,2156 L3339,2156 L3335,2158 L3332,2159 L3327,2160 L3323,2162 L3317,2165 L3313,2166 L3309,2169 L3306,2170 L3303,2172 L3299,2174 L3294,2177 L3290,2179 L3287,2182 L3281,2187 L3277,2190 L3274,2193 L3268,2195 L3265,2197 L3260,2199 L3257,2201 L3254,2202 L3250,2204 L3233,2214 L3216,2224 L3191,2236 L3169,2245 L3147,2254 L3126,2263 L3109,2267 L3088,2270 L3034,2250 L3033,2260 L3029,2270 L3026,2277 L3022,2283 L3019,2288 L3013,2293 L3002,2299 L2993,2307 L2998,2308 L3002,2312 L2987,2318 L2977,2322 L2975,2318 L2971,2319 L2966,2320 L2959,2322 L2950,2323 L2945,2324 L2942,2319 L2933,2323 L2922,2326 L2902,2328 L2893,2330 L2882,2334 L2876,2337 L2872,2339 L2866,2338 L2856,2337 L2835,2337 L2824,2336 L2818,2334 L2808,2329 L2797,2325 L2773,2319 L2757,2316 L2746,2313 L2736,2311 L2727,2310 L2722,2309 L2714,2307 L2701,2304 L2702,2301 L2702,2297 L2698,2295 L2695,2294 L2691,2293 L2688,2293 L2685,2291 L2681,2287 L2682,2292 L2685,2297 L2688,2298 L2695,2298 L2696,2301 L2695,2304 L2686,2307 L2669,2316 L2663,2318 L2649,2318 L2636,2320 L2619,2324 L2586,2327 L2537,2335 L2534,2336 L2519,2338 L2508,2340 L2496,2343 L2476,2347 L2467,2349 L2459,2350 L2448,2352 L2439,2354 L2423,2354 L2417,2353 L2409,2349 L2401,2345 L2400,2339 L2398,2335 L2402,2333 L2406,2331 L2408,2327 L2413,2322 L2417,2317 L2420,2311 L2423,2306 L2426,2299 L2425,2289 L2427,2285 L2429,2279 L2430,2275 L2425,2270 L2417,2260 L2416,2257 L2413,2252 L2410,2245 L2405,2233 L2401,2224 L2399,2221 L2398,2218 L2394,2214 L2392,2210 L2390,2207 L2387,2207 L2384,2208 L2381,2209 L2381,2205 L2386,2197 L2385,2191 L2381,2184 L2380,2176 L2386,2167 L2396,2160 L2402,2160 L2425,2156 L2441,2155 L2460,2151 L2482,2138 L2484,2130 L2487,2123 L2501,2121 L2515,2110 L2548,2108 L2572,2107 L2598,2111 L2637,2124 L2662,2129 L2685,2133 L2703,2129 L2712,2126 L2713,2117 L2712,2109 L2726,2098 L2722,2084 L2723,2076 L2729,2068 L2727,2054 L2727,2045 L2726,2029 L2724,2021 L2714,2010 L2713,1999 L2719,1974 L2719,1959 L2721,1953 L2721,1933 L2719,1925 L2720,1911 L2724,1904 L2717,1896 L2711,1893 L2693,1889 L2695,1878 L2691,1859 L2689,1843 L2677,1834 L2675,1827 L2675,1814 L2685,1811 L2691,1810 L2705,1814 L2713,1807 L2710,1796 L2705,1784 L2703,1778 L2695,1760 L2683,1742 L2674,1732 L2666,1720 L2658,1715 L2644,1693 L2644,1684 L2648,1677 L2646,1669 L2643,1655 L2640,1640 L2642,1634 L2644,1628 L2648,1622 L2651,1616 L2655,1610 L2659,1604 L2661,1598 L2662,1592 L2663,1586 L2664,1580 L2670,1575 L2676,1576 L2683,1577 L2690,1577 L2702,1571 L2708,1567 L2714,1562 L2717,1556 L2717,1550 L2713,1542 L2707,1544 L2701,1545 L2694,1549 L2686,1553 L2677,1547 L2672,1541 L2666,1538 L2665,1531 L2669,1523 L2670,1515 L2669,1508 L2662,1504 L2655,1500 L2648,1497 L2640,1492 L2633,1489 L2625,1482 L2622,1474 L2619,1468 L2617,1462 L2616,1451 L2610,1432 L2613,1421 L2615,1414 L2622,1399 L2626,1388 L2633,1374 L2646,1362 L2647,1356 L2647,1350 L2662,1350 L2694,1303 L2703,1306 L2716,1304 L2723,1308 L2727,1322 L2719,1341 L2734,1354 L2744,1359 L2753,1377 L2770,1378 L2768,1353 L2785,1351 L2755,1324 L2745,1329 L2739,1325 L2736,1312 L2730,1309 L2727,1301 L2730,1294 L2734,1270 L2741,1265 L2748,1265 L2785,1256 L2794,1252 L2800,1244 L2817,1246 L2825,1254 L2829,1262 L2834,1267 L2842,1272 L2849,1275 L2858,1283 L2865,1284 L2871,1275 L2898,1254 L2908,1249 L2915,1243 L2923,1243 L2935,1229 L2945,1225 L2951,1229z M3084,1279 L3090,1279 L3088,1281 L3084,1279 L3080,1283 L3077,1283 L3075,1287 L3072,1283 L3075,1283 L3077,1283 L3080,1280 L3084,1279z M3525,1842 L3522,1835 L3526,1839 L3525,1842z " class="polyStyle" id="450512" style="fill:#ee8b94"/>
<polygon points="2515,1180 2521,1186 2527,1191 2536,1198 2542,1194 2545,1188 2548,1181 2555,1178 2561,1181 2567,1188 2575,1195 2584,1201 2596,1208 2604,1221 2603,1238 2600,1244 2598,1252 2599,1258 2603,1265 2610,1271 2615,1278 2617,1284 2619,1292 2620,1298 2623,1305 2625,1313 2629,1327 2633,1333 2637,1339 2643,1344 2647,1350 2647,1356 2646,1362 2633,1374 2626,1388 2622,1399 2615,1414 2613,1421 2610,1432 2616,1451 2617,1462 2619,1468 2622,1474 2625,1482 2633,1489 2640,1492 2648,1497 2655,1500 2662,1504 2669,1508 2670,1515 2669,1523 2665,1531 2666,1538 2672,1541 2677,1547 2686,1553 2694,1549 2701,1545 2707,1544 2713,1542 2717,1550 2717,1556 2714,1562 2708,1567 2702,1571 2690,1577 2683,1577 2676,1576 2670,1575 2664,1580 2663,1586 2662,1592 2661,1598 2659,1604 2655,1610 2651,1616 2648,1622 2644,1628 2642,1634 2640,1640 2643,1655 2646,1669 2648,1677 2644,1684 2644,1693 2658,1715 2666,1720 2674,1732 2683,1742 2695,1760 2703,1778 2705,1784 2710,1796 2713,1807 2705,1814 2691,1810 2685,1811 2675,1814 2675,1827 2677,1834 2689,1843 2691,1859 2695,1878 2693,1889 2711,1893 2717,1896 2724,1904 2720,1911 2719,1925 2721,1933 2721,1953 2719,1959 2719,1974 2713,1999 2714,2010 2724,2021 2726,2029 2727,2045 2727,2054 2729,2068 2723,2076 2722,2084 2726,2098 2712,2109 2713,2117 2712,2126 2703,2129 2685,2133 2662,2129 2637,2124 2598,2111 2572,2107 2548,2108 2515,2110 2501,2121 2487,2123 2484,2130 2482,2138 2460,2151 2441,2155 2425,2156 2402,2160 2396,2160 2386,2167 2380,2176 2381,2184 2385,2191 2386,2197 2381,2205 2381,2209 2379,2215 2380,2220 2383,2225 2384,2229 2388,2233 2395,2237 2399,2241 2400,2246 2396,2247 2393,2248 2390,2248 2387,2249 2388,2253 2391,2255 2393,2261 2392,2273 2383,2288 2374,2305 2362,2319 2359,2321 2356,2324 2352,2329 2348,2333 2340,2337 2336,2340 2333,2342 2329,2343 2324,2346 2320,2348 2316,2351 2313,2352 2310,2354 2306,2356 2302,2359 2298,2361 2297,2364 2294,2366 2291,2367 2288,2369 2285,2370 2275,2372 2267,2363 2258,2351 2255,2346 2249,2342 2245,2342 2238,2342 2240,2346 2245,2350 2248,2353 2253,2358 2260,2363 2261,2367 2262,2370 2262,2373 2261,2377 2260,2380 2260,2383 2258,2387 2257,2390 2255,2393 2251,2395 2243,2398 2239,2400 2236,2400 2233,2401 2226,2404 2220,2406 2213,2408 2195,2415 2161,2426 2158,2428 2148,2431 2141,2433 2134,2436 2128,2437 2120,2439 2117,2439 2112,2440 2103,2441 2091,2443 2087,2444 2078,2445 2051,2449 2048,2449 2040,2450 2033,2452 2029,2452 2024,2453 2011,2455 2008,2455 2005,2454 2002,2453 1998,2452 1994,2450 1991,2449 1984,2442 1979,2436 1977,2433 1969,2425 1967,2422 1948,2385 1946,2382 1934,2370 1933,2365 1936,2356 1939,2349 1943,2346 1945,2340 1947,2334 1947,2330 1947,2314 1949,2306 1950,2302 1955,2293 1963,2288 1969,2287 1973,2284 1970,2274 1968,2267 1965,2261 1973,2254 1976,2251 1975,2246 1970,2237 1971,2231 1968,2211 1967,2207 1967,2192 1967,2188 1966,2185 1963,2179 1962,2174 1962,2169 1964,2163 1966,2154 1968,2149 1967,2141 1964,2137 1961,2131 1960,2127 1960,2124 1961,2120 1964,2118 1966,2114 1966,2091 1964,2086 1962,2080 1960,2077 1955,2068 1950,2064 1945,2062 1938,2062 1940,2065 1941,2070 1946,2073 1950,2080 1951,2084 1956,2087 1958,2093 1958,2101 1957,2107 1956,2116 1952,2119 1953,2122 1951,2125 1947,2126 1951,2128 1954,2129 1957,2134 1959,2139 1960,2145 1958,2152 1954,2154 1955,2159 1955,2168 1954,2181 1947,2182 1944,2187 1943,2196 1946,2202 1946,2205 1946,2208 1947,2212 1946,2220 1945,2229 1944,2234 1944,2242 1944,2246 1943,2252 1943,2255 1942,2258 1941,2261 1940,2266 1940,2271 1940,2274 1939,2277 1939,2280 1937,2284 1935,2287 1932,2293 1930,2296 1926,2303 1924,2306 1922,2309 1920,2312 1915,2313 1911,2313 1905,2313 1902,2312 1897,2310 1893,2308 1891,2305 1888,2303 1886,2300 1882,2301 1881,2305 1881,2308 1881,2312 1881,2317 1884,2324 1885,2327 1885,2331 1886,2336 1889,2336 1895,2337 1895,2343 1892,2346 1888,2345 1885,2348 1885,2351 1890,2352 1894,2352 1897,2355 1896,2360 1895,2364 1895,2367 1892,2366 1889,2366 1884,2365 1881,2367 1885,2381 1888,2381 1888,2391 1887,2397 1891,2404 1894,2407 1894,2412 1890,2415 1889,2419 1891,2424 1894,2428 1895,2431 1898,2433 1902,2432 1905,2431 1908,2429 1911,2429 1912,2433 1910,2437 1909,2441 1909,2445 1906,2450 1903,2456 1902,2459 1902,2462 1900,2465 1898,2468 1896,2471 1893,2476 1890,2480 1888,2483 1885,2486 1880,2491 1877,2494 1873,2497 1868,2500 1863,2503 1858,2505 1851,2506 1837,2506 1833,2507 1813,2507 1805,2507 1798,2507 1795,2507 1791,2506 1786,2505 1783,2505 1774,2497 1769,2496 1763,2496 1757,2495 1753,2496 1750,2499 1746,2502 1745,2508 1739,2512 1736,2507 1733,2506 1730,2506 1720,2509 1716,2511 1711,2512 1707,2515 1704,2518 1701,2519 1698,2519 1695,2520 1692,2521 1688,2522 1689,2525 1690,2528 1691,2531 1688,2532 1682,2534 1681,2537 1686,2546 1682,2548 1674,2549 1671,2550 1665,2551 1659,2553 1655,2554 1643,2556 1639,2549 1636,2543 1636,2540 1634,2537 1629,2538 1626,2538 1622,2539 1618,2538 1615,2538 1611,2539 1608,2540 1605,2540 1601,2539 1591,2538 1584,2539 1579,2541 1573,2542 1567,2543 1563,2543 1560,2542 1557,2542 1550,2540 1550,2533 1551,2529 1546,2526 1540,2526 1538,2530 1540,2533 1539,2539 1536,2543 1532,2544 1529,2547 1529,2552 1534,2558 1540,2563 1549,2568 1555,2568 1553,2565 1553,2560 1556,2556 1564,2558 1563,2562 1563,2568 1564,2571 1565,2577 1564,2581 1551,2590 1545,2592 1536,2594 1533,2595 1530,2594 1516,2590 1512,2588 1509,2588 1501,2585 1497,2584 1494,2584 1490,2582 1488,2586 1485,2587 1473,2580 1476,2577 1476,2574 1470,2569 1456,2565 1451,2563 1447,2560 1428,2551 1416,2548 1409,2545 1405,2542 1401,2540 1392,2537 1387,2536 1382,2536 1375,2535 1371,2534 1367,2534 1367,2530 1368,2526 1371,2523 1374,2522 1378,2521 1381,2521 1384,2509 1381,2508 1377,2506 1371,2505 1371,2499 1372,2493 1374,2489 1380,2489 1386,2490 1391,2491 1391,2486 1386,2484 1382,2483 1377,2483 1373,2485 1369,2486 1364,2486 1360,2486 1356,2485 1351,2484 1345,2482 1343,2487 1348,2489 1356,2491 1359,2492 1362,2493 1363,2497 1363,2501 1360,2504 1357,2504 1354,2502 1351,2501 1346,2499 1341,2497 1337,2495 1336,2498 1334,2502 1334,2507 1338,2510 1348,2514 1353,2516 1356,2518 1360,2521 1360,2524 1360,2527 1360,2530 1358,2535 1357,2533 1355,2531 1347,2526 1344,2525 1333,2520 1330,2519 1326,2517 1322,2516 1319,2515 1316,2513 1312,2511 1309,2509 1306,2507 1303,2505 1299,2503 1296,2501 1293,2499 1290,2498 1286,2498 1283,2499 1280,2500 1274,2498 1270,2497 1267,2496 1264,2495 1259,2494 1256,2492 1253,2491 1250,2491 1250,2488 1252,2485 1254,2482 1258,2480 1262,2476 1270,2471 1267,2468 1261,2473 1258,2477 1255,2479 1254,2482 1248,2480 1243,2479 1242,2474 1243,2470 1238,2468 1235,2474 1233,2477 1229,2477 1224,2475 1220,2474 1219,2477 1216,2479 1213,2478 1210,2477 1207,2475 1204,2474 1205,2470 1208,2466 1213,2461 1215,2457 1211,2454 1208,2453 1205,2451 1196,2446 1192,2445 1187,2442 1184,2439 1178,2434 1167,2430 1158,2426 1150,2424 1140,2422 1129,2422 1123,2422 1118,2423 1114,2423 1111,2421 1105,2415 1101,2413 1095,2410 1090,2407 1087,2404 1084,2402 1081,2400 1079,2397 1073,2392 1065,2390 1062,2389 1057,2387 1047,2387 1035,2388 1025,2387 1019,2388 1013,2395 1006,2403 1002,2407 999,2409 996,2412 992,2411 989,2411 989,2408 988,2405 988,2394 986,2391 982,2387 978,2374 974,2368 965,2363 961,2360 965,2349 970,2342 976,2334 979,2329 988,2322 1008,2331 1021,2329 1045,2333 1063,2343 1079,2355 1103,2362 1116,2369 1124,2360 1139,2343 1154,2355 1169,2360 1180,2364 1197,2370 1205,2373 1217,2377 1227,2377 1242,2372 1264,2366 1313,2351 1369,2334 1453,2308 1471,2298 1491,2294 1496,2298 1514,2346 1528,2377 1557,2375 1559,2356 1556,2341 1562,2335 1590,2313 1592,2310 1591,2293 1579,2280 1567,2272 1567,2257 1580,2251 1609,2240 1612,2236 1641,2217 1643,2214 1715,2112 1735,2086 1743,2070 1761,2046 1773,2016 1776,1989 1784,1916 1785,1913 1778,1883 1756,1820 1752,1812 1748,1786 1747,1728 1745,1720 1744,1710 1742,1652 1730,1628 1745,1616 1759,1601 1764,1594 1763,1587 1761,1581 1770,1571 1779,1567 1786,1563 1798,1563 1809,1564 1825,1564 1832,1565 1838,1564 1842,1556 1845,1547 1848,1538 1851,1532 1865,1532 1872,1530 1878,1529 1890,1523 1896,1521 1902,1519 1908,1520 1912,1526 1909,1532 1908,1538 1910,1544 1916,1549 1923,1551 1929,1548 1934,1542 1940,1538 1945,1532 1951,1526 1958,1525 1965,1528 1971,1530 1977,1532 1983,1536 1989,1539 1993,1546 1998,1552 2000,1558 2002,1565 2003,1572 2006,1578 2010,1588 2015,1596 2017,1603 2019,1609 2024,1615 2030,1617 2033,1624 2033,1630 2039,1635 2045,1635 2051,1639 2048,1645 2040,1655 2047,1656 2054,1657 2062,1657 2068,1658 2074,1658 2078,1650 2089,1641 2098,1638 2108,1629 2115,1623 2118,1608 2118,1601 2116,1595 2105,1566 2103,1560 2100,1554 2096,1547 2090,1532 2091,1526 2095,1520 2114,1503 2121,1496 2131,1487 2145,1480 2153,1475 2160,1471 2174,1464 2180,1459 2182,1453 2183,1445 2183,1434 2184,1427 2189,1421 2195,1418 2200,1411 2194,1405 2190,1397 2193,1391 2199,1387 2205,1384 2212,1378 2211,1372 2214,1363 2223,1357 2231,1352 2238,1345 2241,1338 2243,1331 2253,1330 2259,1332 2265,1323 2269,1317 2278,1304 2295,1296 2303,1293 2313,1289 2320,1287 2326,1285 2332,1281 2334,1275 2335,1269 2341,1266 2355,1262 2355,1256 2352,1246 2350,1238 2348,1232 2355,1230 2361,1229 2368,1229 2377,1226 2386,1226 2393,1222 2400,1219 2421,1222 2427,1221 2434,1218 2442,1216 2449,1212 2458,1207 2465,1203 2474,1194 2478,1188 2478,1182 2475,1173 2486,1168 2494,1164 2501,1169 " class="polyStyle" id="450503" style="fill:#fbe6ef"/>
<path d="" class="polyStyle" id="450602" style="fill:#fbe6ef"/>
<path d="" class="polyStyle" id="440404" style="fill:#ee8b94"/>
<path d="" class="polyStyle" id="440403" style="fill:#f6f67b"/>
<path d="" class="polyStyle" id="441502" style="fill:#f6f67b"/>
<path d="" class="polyStyle" id="431002" style="fill:#d4ecb2"/>
<path d="" class="polyStyle" id="500107" style="fill:#fbe6ef"/>
<path d="" class="polyStyle" id="430611" style="fill:#d4ecb2"/>
<path d="" class="polyStyle" id="511304" style="fill:#fbe6ef"/>
<path d="" class="polyStyle" id="340711" style="fill:#ee8b94"/>
<path d="" class="polyStyle" id="320118" style="fill:#f6f67b"/>
<path d="" class="polyStyle" id="510704" style="fill:#f6f67b"/>
<path d="" class="polyStyle" id="411502" style="fill:#ee8b94"/>
<path d="" class="polyStyle" id="320302" style="fill:#d4ecb2"/>
<path d="" class="polyStyle" id="140311" style="fill:#ee8b94"/>
<path d="" class="polyStyle" id="610802" style="fill:#ee8b94"/>
<path d="" class="polyStyle" id="120116" style="fill:#f6f67b"/>
<path d="" class="polyStyle" id="130303" style="fill:#fbe6ef"/>
<path d="" class="polyStyle" id="140211" style="fill:#f6f67b"/>
<path d="" class="polyStyle" id="150207" style="fill:#fbe6ef"/>
<path d="" class="polyStyle" id="211403" style="fill:#f6f67b"/>
<path d="" class="polyStyle" id="150802" style="fill:#f8c67d"/>
<path d="" class="polyStyle" id="210112" style="fill:#ee8b94"/>
<path d="" class="polyStyle" id="230406" style="fill:#d4ecb2"/>
<path d="" class="polyStyle" id="110113" style="fill:#fbe6ef"/>
<path d="" class="polyStyle" id="341702" style="fill:#fbe6ef"/>
<path d="" class="polyStyle" id="420303" style="fill:#ee8b94"/>
<path d="" class="polyStyle" id="340702" style="fill:#d4ecb2"/>
<path d="" class="polyStyle" id="421002" style="fill:#f6f67b"/>
<path d="" class="polyStyle" id="420117" style="fill:#f6f67b"/>
<polygon points="1171,2191 1177,2182 1185,2181 1211,2179 1247,2175 1268,2171 1281,2167 1287,2167 1291,2172 1290,2177 1286,2179 1273,2180 1261,2182 1255,2185 1247,2187 1236,2188 1210,2189 1186,2193 1173,2194 " class="polyStyle" id="450502" style="fill:#ee8b94"/>
<polygon points="1806,5095 1803,5094 1801,5091 1799,5087 1795,5087 1791,5086 1788,5087 1784,5085 1780,5079 1776,5071 1774,5067 1774,5062 1769,5058 1769,5056 1769,5052 1766,5048 1764,5044 1764,5039 1764,5034 1763,5031 1762,5028 1765,5025 1768,5023 1767,5018 1766,5015 1770,5012 1773,5011 1777,5012 1782,5013 1785,5016 1785,5018 1788,5020 1791,5019 1795,5020 1797,5023 1801,5025 1804,5025 1807,5025 1809,5029 1812,5028 1815,5028 1820,5032 1824,5035 1827,5038 1832,5044 1833,5047 1836,5052 1837,5055 1837,5060 1836,5066 1834,5069 1833,5072 1829,5076 1826,5079 1824,5081 1820,5083 1816,5083 1812,5084 1812,5087 1814,5091 1812,5094 1809,5095 " class="polyStyle" id="450502" style="fill:#ee8b94"/>
<polygon points="1373,4510 1364,4517 1360,4514 1353,4504 1349,4501 1342,4499 1336,4498 1332,4497 1305,4493 1304,4487 1306,4483 1296,4473 1290,4464 1285,4461 1276,4459 1267,4460 1252,4463 1237,4468 1223,4481 1217,4490 1213,4498 1212,4509 1216,4518 1225,4531 1232,4536 1245,4540 1247,4546 1246,4554 1242,4561 1239,4563 1235,4564 1232,4563 1222,4557 1209,4545 1205,4539 1190,4534 1182,4530 1176,4523 1173,4514 1172,4500 1174,4494 1175,4488 1177,4483 1177,4478 1179,4471 1182,4459 1184,4445 1184,4439 1179,4431 1176,4422 1176,4416 1172,4411 1165,4395 1167,4385 1164,4367 1165,4356 1171,4350 1183,4349 1191,4343 1195,4329 1202,4324 1209,4317 1226,4309 1244,4301 1260,4292 1273,4284 1279,4280 1290,4272 1301,4268 1310,4265 1322,4260 1326,4259 1330,4258 1350,4255 1355,4253 1366,4253 1384,4253 1391,4256 1395,4258 1413,4272 1422,4285 1427,4290 1439,4305 1442,4323 1445,4344 1445,4356 1443,4369 1440,4379 1434,4396 1426,4412 1416,4432 1406,4445 1403,4450 1397,4461 1389,4478 1381,4498 " class="polyStyle" id="450502" style="fill:#ee8b94"/>
<path d="" class="polyStyle" id="440904" style="fill:#f8c67d"/>
<path d="" class="polyStyle" id="460205" style="fill:#ee8b94"/>
<path d="" class="polyStyle" id="460202" style="fill:#f6f67b"/>
<path d="" class="polyStyle" id="460203" style="fill:#fbe6ef"/>
<path d="" class="polyStyle" id="420304" style="fill:#f6f67b"/>
<path d="" class="polyStyle" id="445302" style="fill:#ee8b94"/>
<path d="" class="polyStyle" id="410202" style="fill:#d4ecb2"/>
<path d="" class="polyStyle" id="440800" style="fill:#f6f67b"/>
<path d="" class="polyStyle" id="440900" style="fill:#ee8b94"/>
<path d="" class="polyStyle" id="340800" style="fill:#ee8b94"/>
<path d="" class="polyStyle" id="460200" style="fill:#f6f67b"/>
<path d="" class="polyStyle" id="460000" style="fill:#ee8b94"/>
<path d="" class="polyStyle" id="450500" style="fill:#ee8b94"/>
<path d="" class="polyStyle" id="450600" style="fill:#ee8b94"/>
<path d="" class="polyStyle" id="440400" style="fill:#f6f67b"/>
<path d="" class="polyStyle" id="441700" style="fill:#f6f67b"/>
<path d="" class="polyStyle" id="441500" style="fill:#f6f67b"/>
<path d="" class="polyStyle" id="350600" style="fill:#ee8b94"/>
<path d="" class="polyStyle" id="710000" style="fill:#f6f67b"/>
<path d="" class="polyStyle" id="510400" style="fill:#f6f67b"/>
<path d="" class="polyStyle" id="522600" style="fill:#fbe6ef"/>
<path d="" class="polyStyle" id="520500" style="fill:#ee8b94"/>
<path d="" class="polyStyle" id="431200" style="fill:#f6f67b"/>
<path d="" class="polyStyle" id="430600" style="fill:#f6f67b"/>
<path d="" class="polyStyle" id="511400" style="fill:#d4ecb2"/>
<path d="" class="polyStyle" id="421000" style="fill:#ee8b94"/>
<path d="" class="polyStyle" id="341700" style="fill:#f6f67b"/>
<path d="" class="polyStyle" id="420500" style="fill:#f6f67b"/>
<path d="" class="polyStyle" id="511300" style="fill:#f6f67b"/>
<path d="" class="polyStyle" id="420900" style="fill:#f6f67b"/>
<path d="" class="polyStyle" id="511700" style="fill:#ee8b94"/>
<path d="" class="polyStyle" id="420600" style="fill:#d4ecb2"/>
<path d="" class="polyStyle" id="411500" style="fill:#fbe6ef"/>
<path d="" class="polyStyle" id="510800" style="fill:#ee8b94"/>
<path d="" class="polyStyle" id="420300" style="fill:#fbe6ef"/>
<path d="" class="polyStyle" id="611000" style="fill:#ee8b94"/>
<path d="" class="polyStyle" id="620800" style="fill:#fbe6ef"/>
<path d="" class="polyStyle" id="370200" style="fill:#ee8b94"/>
<path d="" class="polyStyle" id="371000" style="fill:#f6f67b"/>
<path d="" class="polyStyle" id="370600" style="fill:#fbe6ef"/>
<path d="" class="polyStyle" id="120000" style="fill:#f6f67b"/>
<path d="" class="polyStyle" id="130200" style="fill:#ee8b94"/>
<path d="" class="polyStyle" id="130300" style="fill:#f6f67b"/>
<path d="" class="polyStyle" id="652900" style="fill:#fbe6ef"/>
<path d="" class="polyStyle" id="150500" style="fill:#d4ecb2"/>
<path d="" class="polyStyle" id="" style="fill:#d4ecb2"/>
<path d="" class="polyStyle" id="350500" style="fill:#fbe6ef"/>
<path d="" class="polyStyle" id="440400" style="fill:#f6f67b"/>
<path d="" class="polyStyle" id="421100" style="fill:#d4ecb2"/>
<path d="" class="polyStyle" id="420100" style="fill:#fbe6ef"/>
<path d="" class="polyStyle" id="532500" style="fill:#fbe6ef"/>
<path d="" class="polyStyle" id="654200" style="fill:#fbe6ef"/>
<path d="" class="polyStyle" id="210700" style="fill:#d4ecb2"/>
<path d="" class="polyStyle" id="522300" style="fill:#fbe6ef"/>
<path d="" class="polyStyle" id="" style="fill:#ee8b94"/>
<path d="" class="polyStyle" id="440400" style="fill:#f6f67b"/>
<path d="" class="polyStyle" id="620000" style="fill:#f6f67b"/>
<path d="" class="polyStyle" id="430000" style="fill:#fbe6ef"/>
<path d="" class="polyStyle" id="420000" style="fill:#ee8b94"/>
<path d="" class="polyStyle" id="410000" style="fill:#f6f67b"/>
<path d="" class="polyStyle" id="350000" style="fill:#fbe6ef"/>
<path d="" class="polyStyle" id="520000" style="fill:#f6f67b"/>
<path d="" class="polyStyle" id="" style="fill:#ee8b94"/>
</svg>
