<?xml version="1.0" encoding="UTF-8"?>
<!DOCTYPE svg PUBLIC "-//W3C//DTD SVG 1.1 Tiny//EN" "http://www.w3.org/Graphics/SVG/1.1/DTD/svg11-tiny.dtd">
<svg version="1.1" xmlns="http://www.w3.org/2000/svg" xmlns:xlink="http://www.w3.org/1999/xlink" width="100%" height="100%" viewBox="0,0,5488,4376">
<title>SVG</title>
<desc>Poligon Test</desc>
<style id="style_css_sheet" type="text/css">
.polyStyle{fill: #cccccc;stroke-width:0;fill-rule:evenodd;}
</style>
<circle cx="2425" cy="4165" r="200" stroke="black" stroke-width="1" fill="red" id="450681"position="11" name="东兴市"/>
<circle cx="2494" cy="1105" r="200" stroke="black" stroke-width="1" fill="red" id="450621" name="上思县"/>
<circle cx="4481" cy="3612" r="200" stroke="black" stroke-width="1" fill="red" id="450602"position="222" name="港口区"/>
<circle cx="4363" cy="3062" r="200" stroke="black" stroke-width="1" fill="red" id="450603" name="防城区"/>
<path d="" class="polyStyle" id="" style="fill:#ee8b94"/>
<path d="" class="polyStyle" id="623022" style="fill:#fbe6ef"/>
<path d="" class="polyStyle" id="211421" style="fill:#f6f67b"/>
<path d="" class="polyStyle" id="532524" style="fill:#ee8b94"/>
<path d="" class="polyStyle" id="440825" style="fill:#f6f67b"/>
<path d="" class="polyStyle" id="441721" style="fill:#f6f67b"/>
<path d="" class="polyStyle" id="450521" style="fill:#f6f67b"/>
<polygon points="3054,4 3063,5 3068,6 3075,15 3081,34 3078,44 3075,55 3077,64 3087,75 3100,84 3107,86 3117,87 3125,85 3137,79 3142,81 3159,92 3175,100 3180,104 3195,130 3200,133 3214,131 3239,147 3251,152 3254,162 3250,177 3245,183 3244,185 3241,187 3240,193 3240,200 3243,207 3242,210 3240,215 3241,222 3250,227 3257,229 3258,235 3257,241 3251,249 3248,253 3246,260 3246,268 3253,278 3254,286 3250,299 3256,311 3259,330 3259,336 3269,340 3287,339 3295,343 3308,368 3309,371 3309,377 3318,395 3323,407 3323,412 3328,418 3340,420 3350,412 3374,413 3394,412 3403,418 3415,428 3430,434 3437,438 3443,457 3459,465 3489,474 3501,473 3522,493 3538,479 3556,455 3585,423 3600,407 3609,400 3622,416 3633,424 3642,432 3651,429 3660,411 3671,401 3682,401 3713,415 3737,427 3758,449 3758,452 3748,471 3739,499 3738,531 3749,546 3763,555 3772,560 3796,571 3806,580 3809,588 3794,597 3796,616 3801,645 3810,665 3829,676 3846,671 3859,679 3876,694 3880,713 3896,718 3915,708 3923,715 3933,729 3952,744 3980,745 3980,752 3978,774 3979,806 3974,827 3959,810 3945,814 3914,832 3890,845 3880,846 3867,848 3845,872 3845,883 3811,879 3788,886 3771,885 3765,890 3728,910 3715,922 3710,930 3705,949 3697,950 3685,947 3667,954 3636,965 3630,969 3623,977 3620,980 3620,989 3624,994 3629,994 3636,995 3637,999 3638,1008 3627,1016 3619,1019 3612,1021 3592,1035 3582,1035 3563,1035 3551,1035 3541,1044 3537,1055 3534,1066 3527,1088 3525,1093 3523,1099 3521,1107 3519,1110 3510,1110 3502,1114 3499,1117 3495,1125 3495,1131 3501,1142 3501,1145 3501,1155 3507,1162 3511,1164 3520,1169 3530,1169 3537,1181 3538,1186 3534,1191 3533,1197 3540,1205 3544,1205 3554,1204 3560,1204 3570,1226 3576,1241 3570,1266 3563,1283 3595,1295 3616,1304 3619,1305 3633,1301 3657,1309 3658,1324 3658,1336 3655,1345 3647,1358 3634,1377 3622,1383 3615,1392 3600,1390 3598,1385 3586,1379 3578,1379 3579,1371 3578,1366 3569,1359 3565,1356 3561,1355 3554,1365 3551,1377 3550,1383 3565,1386 3568,1386 3571,1387 3571,1390 3568,1397 3566,1401 3566,1407 3567,1411 3572,1417 3572,1423 3568,1430 3567,1442 3573,1445 3578,1449 3587,1459 3588,1464 3585,1474 3583,1477 3578,1480 3571,1482 3568,1483 3564,1486 3558,1497 3556,1505 3560,1517 3566,1516 3579,1521 3582,1524 3588,1535 3590,1543 3591,1557 3592,1560 3595,1561 3603,1564 3610,1565 3616,1569 3625,1573 3631,1574 3635,1576 3640,1580 3656,1586 3665,1588 3677,1595 3683,1596 3693,1595 3694,1600 3692,1606 3684,1619 3676,1626 3664,1627 3661,1628 3653,1630 3639,1645 3627,1658 3615,1663 3613,1669 3613,1674 3596,1686 3590,1687 3584,1695 3583,1708 3575,1716 3573,1719 3580,1737 3586,1759 3597,1767 3601,1771 3603,1779 3600,1795 3592,1797 3591,1800 3590,1810 3586,1820 3586,1823 3579,1829 3571,1829 3567,1834 3563,1842 3560,1850 3558,1854 3549,1853 3546,1853 3542,1858 3539,1862 3536,1864 3532,1866 3532,1872 3527,1876 3515,1901 3515,1904 3515,1915 3516,1925 3513,1930 3509,1933 3504,1936 3502,1946 3499,1951 3492,1957 3477,1972 3472,1973 3461,1963 3455,1960 3433,1963 3429,1947 3427,1935 3407,1928 3400,1924 3392,1922 3382,1929 3366,1942 3354,1949 3349,1954 3346,1959 3342,1967 3334,1975 3330,1980 3331,1986 3333,1998 3319,2014 3313,2024 3303,2034 3288,2040 3272,2038 3264,2042 3252,2045 3247,2046 3239,2047 3233,2050 3224,2052 3217,2050 3204,2052 3195,2062 3189,2074 3183,2080 3172,2084 3165,2089 3152,2108 3140,2116 3130,2124 3116,2141 3104,2148 3094,2148 3085,2152 3075,2163 3060,2170 3023,2183 3020,2190 3023,2210 3019,2216 3014,2216 3006,2212 2997,2213 2984,2218 2954,2245 2931,2273 2900,2300 2891,2305 2880,2308 2866,2310 2858,2312 2853,2313 2830,2328 2820,2335 2815,2336 2811,2334 2791,2333 2764,2333 2747,2343 2729,2348 2704,2346 2699,2347 2695,2351 2692,2363 2689,2368 2687,2376 2684,2378 2679,2378 2676,2376 2666,2376 2647,2389 2640,2390 2630,2389 2616,2394 2598,2407 2579,2396 2568,2392 2558,2391 2526,2396 2510,2402 2499,2408 2489,2407 2470,2404 2460,2404 2451,2405 2445,2411 2438,2436 2433,2448 2422,2455 2402,2457 2385,2462 2370,2460 2351,2455 2321,2453 2293,2453 2271,2464 2254,2465 2230,2472 2192,2481 2160,2490 2126,2506 2106,2520 2089,2536 2071,2546 2057,2547 2041,2544 2028,2537 2024,2538 2020,2545 2022,2573 2034,2604 2043,2619 2044,2632 2051,2659 2053,2675 2052,2695 2048,2703 2036,2705 2021,2704 2008,2708 1989,2723 1980,2725 1951,2722 1926,2715 1914,2717 1904,2723 1881,2731 1854,2746 1844,2759 1829,2773 1816,2782 1799,2790 1768,2796 1751,2802 1741,2807 1730,2808 1720,2803 1708,2799 1705,2800 1701,2803 1700,2807 1700,2814 1699,2819 1693,2822 1687,2821 1682,2818 1667,2811 1653,2809 1637,2811 1621,2808 1617,2806 1609,2794 1603,2790 1587,2780 1584,2780 1576,2783 1572,2790 1561,2797 1549,2801 1540,2801 1524,2804 1509,2812 1498,2813 1482,2806 1444,2793 1429,2790 1410,2790 1396,2793 1384,2800 1375,2811 1369,2834 1361,2848 1351,2854 1327,2859 1312,2858 1303,2862 1287,2876 1274,2883 1268,2893 1261,2896 1248,2889 1239,2889 1225,2897 1220,2897 1202,2886 1188,2887 1175,2895 1171,2904 1165,2912 1161,2914 1137,2924 1130,2939 1124,2948 1121,2955 1119,2963 1120,2973 1128,2986 1141,3000 1158,3011 1161,3019 1144,3052 1133,3065 1115,3074 1106,3076 1066,3086 1021,3097 1016,3097 997,3091 989,3089 980,3091 975,3095 963,3098 946,3100 927,3117 917,3124 897,3130 879,3137 841,3146 830,3145 820,3140 810,3132 802,3121 771,3092 754,3083 738,3084 721,3090 702,3102 681,3117 647,3143 637,3149 625,3152 609,3152 588,3162 574,3172 540,3194 502,3210 461,3219 454,3218 442,3215 434,3218 420,3228 413,3235 405,3238 366,3233 368,3231 371,3221 368,3207 360,3187 340,3154 338,3144 342,3135 341,3124 335,3117 336,3113 342,3108 342,3099 330,3079 319,3060 313,3048 320,3038 335,3028 352,3007 363,2991 381,2962 385,2955 400,2946 413,2941 420,2931 425,2924 434,2913 435,2908 425,2900 405,2893 389,2885 370,2872 355,2858 338,2846 334,2836 330,2826 327,2812 327,2799 331,2792 340,2786 348,2779 351,2770 347,2760 340,2752 338,2741 342,2725 347,2719 361,2708 386,2683 418,2662 429,2655 435,2647 437,2635 427,2614 417,2600 413,2584 412,2577 414,2569 417,2559 419,2548 415,2540 409,2533 400,2526 392,2519 384,2515 380,2509 377,2501 372,2493 365,2480 358,2471 349,2462 340,2457 332,2455 325,2453 318,2450 310,2449 304,2449 290,2431 290,2421 308,2389 327,2358 330,2352 347,2340 358,2336 362,2333 374,2321 375,2316 376,2307 371,2302 354,2288 350,2285 348,2280 349,2274 364,2258 373,2245 375,2240 375,2226 370,2214 369,2203 373,2200 381,2199 394,2206 408,2214 414,2214 419,2210 428,2186 435,2179 447,2177 460,2180 482,2181 488,2179 491,2178 492,2172 471,2154 458,2140 456,2126 453,2116 449,2110 447,2106 446,2097 452,2083 464,2071 474,2062 475,2056 469,2048 466,2045 463,2043 457,2037 459,2031 486,2021 494,2019 499,2015 498,2009 493,2002 490,2000 486,1996 480,1991 478,1987 480,1981 499,1976 507,1967 511,1957 524,1945 533,1940 544,1935 554,1926 556,1922 561,1905 566,1901 571,1900 577,1903 582,1904 586,1901 588,1895 590,1876 593,1867 600,1860 621,1848 632,1846 643,1846 650,1843 655,1840 657,1836 658,1828 654,1820 653,1808 657,1804 662,1802 674,1799 681,1797 691,1787 692,1780 693,1773 692,1767 692,1749 695,1741 706,1732 712,1731 743,1730 746,1729 754,1726 762,1720 765,1714 766,1705 761,1699 756,1695 747,1686 746,1677 747,1673 763,1662 782,1657 797,1654 805,1654 809,1657 813,1665 817,1677 823,1681 830,1680 836,1675 839,1665 840,1650 834,1637 826,1625 816,1613 809,1603 808,1591 809,1588 815,1584 822,1583 825,1585 838,1590 851,1596 859,1596 864,1592 864,1587 852,1577 850,1573 849,1566 856,1551 862,1544 867,1543 895,1542 908,1538 918,1530 923,1522 932,1498 959,1470 969,1458 970,1453 970,1445 966,1442 955,1441 940,1445 927,1445 919,1442 910,1437 890,1419 874,1403 870,1401 873,1397 877,1391 878,1386 878,1373 876,1366 868,1353 864,1350 862,1324 877,1299 910,1294 922,1287 923,1279 916,1260 906,1240 900,1237 878,1236 875,1239 865,1240 853,1249 841,1241 797,1209 781,1188 789,1169 771,1126 755,1072 746,1037 738,1003 726,960 721,930 717,922 715,920 728,912 730,904 736,900 746,903 771,916 785,927 798,929 834,926 847,928 852,929 865,939 874,945 888,945 912,949 922,952 927,952 933,950 939,944 944,938 953,935 961,935 981,935 1002,929 1040,919 1080,907 1127,902 1158,904 1195,916 1204,924 1216,928 1225,926 1235,916 1245,901 1247,879 1252,866 1257,860 1265,856 1275,854 1278,851 1290,844 1298,839 1307,837 1316,838 1326,843 1333,851 1343,851 1356,846 1370,840 1386,840 1400,841 1408,837 1497,841 1542,841 1573,834 1595,820 1597,816 1612,790 1632,786 1646,781 1664,773 1672,770 1681,770 1695,781 1708,792 1720,798 1733,801 1753,801 1789,797 1807,797 1825,798 1852,805 1866,810 1876,813 1890,813 1923,810 1947,805 1963,792 1982,772 1993,764 2005,764 2016,766 2034,772 2048,777 2057,782 2059,794 2057,826 2058,833 2062,838 2068,838 2077,833 2099,822 2135,810 2140,804 2141,795 2142,757 2141,745 2132,734 2128,726 2130,719 2143,712 2162,705 2167,701 2169,694 2168,677 2165,663 2165,657 2183,645 2185,637 2183,618 2184,615 2205,608 2214,599 2220,591 2231,586 2249,593 2268,602 2290,619 2298,626 2306,626 2316,624 2323,623 2332,621 2337,616 2337,611 2331,603 2318,576 2305,545 2303,531 2306,518 2309,511 2319,499 2353,480 2358,471 2364,466 2373,462 2371,448 2374,440 2382,431 2392,424 2416,419 2436,410 2455,400 2464,390 2481,387 2494,381 2504,377 2509,371 2511,365 2510,362 2503,356 2498,354 2495,351 2495,346 2497,345 2499,341 2498,336 2492,332 2485,330 2480,327 2477,324 2474,318 2474,313 2474,309 2476,303 2476,294 2475,283 2478,272 2486,262 2496,252 2506,248 2518,247 2528,245 2537,236 2546,230 2557,225 2568,220 2578,213 2589,207 2598,198 2614,178 2619,178 2624,180 2643,192 2667,185 2692,194 2706,197 2724,192 2743,175 2775,136 2787,111 2793,106 2799,110 2807,113 2816,103 2820,73 2823,70 2864,64 2879,69 2884,86 2888,94 2905,84 2921,90 2929,96 2937,92 2930,84 2923,73 2927,66 2937,57 2948,49 2973,39 2989,25 2990,18 2999,12 3011,5 3027,0 3044,2 " class="polyStyle" id="450621" style="fill:#ee8b94"/>
<path d="" class="polyStyle" id="450123" style="fill:#fbe6ef"/>
<path d="" class="polyStyle" id="350624" style="fill:#f6f67b"/>
<path d="" class="polyStyle" id="" style="fill:#fbe6ef"/>
<path d="" class="polyStyle" id="451224" style="fill:#fbe6ef"/>
<path d="" class="polyStyle" id="350627" style="fill:#f6f67b"/>
<path d="" class="polyStyle" id="" style="fill:#f6f67b"/>
<path d="" class="polyStyle" id="350525" style="fill:#f6f67b"/>
<path d="" class="polyStyle" id="530124" style="fill:#ee8b94"/>
<path d="" class="polyStyle" id="522627" style="fill:#ee8b94"/>
<path d="" class="polyStyle" id="510421" style="fill:#fbe6ef"/>
<path d="" class="polyStyle" id="522623" style="fill:#d4ecb2"/>
<path d="" class="polyStyle" id="430321" style="fill:#d4ecb2"/>
<path d="" class="polyStyle" id="511129" style="fill:#d4ecb2"/>
<path d="" class="polyStyle" id="511423" style="fill:#ee8b94"/>
<path d="" class="polyStyle" id="421023" style="fill:#f6f67b"/>
<path d="" class="polyStyle" id="511724" style="fill:#f6f67b"/>
<path d="" class="polyStyle" id="420526" style="fill:#fbe6ef"/>
<path d="" class="polyStyle" id="511923" style="fill:#fbe6ef"/>
<path d="" class="polyStyle" id="420325" style="fill:#fbe6ef"/>
<path d="" class="polyStyle" id="511921" style="fill:#f6f67b"/>
<path d="" class="polyStyle" id="542525" style="fill:#f6f67b"/>
<path d="" class="polyStyle" id="611026" style="fill:#ee8b94"/>
<path d="" class="polyStyle" id="411023" style="fill:#fbe6ef"/>
<path d="" class="polyStyle" id="632323" style="fill:#f6f67b"/>
<path d="" class="polyStyle" id="140525" style="fill:#d4ecb2"/>
<path d="" class="polyStyle" id="410922" style="fill:#ee8b94"/>
<path d="" class="polyStyle" id="621027" style="fill:#ee8b94"/>
<path d="" class="polyStyle" id="130427" style="fill:#f6f67b"/>
<path d="" class="polyStyle" id="130121" style="fill:#ee8b94"/>
<path d="" class="polyStyle" id="610823" style="fill:#fbe6ef"/>
<path d="" class="polyStyle" id="130225" style="fill:#fbe6ef"/>
<path d="" class="polyStyle" id="130322" style="fill:#d4ecb2"/>
<path d="" class="polyStyle" id="653130" style="fill:#f6f67b"/>
<path d="" class="polyStyle" id="130822" style="fill:#fbe6ef"/>
<path d="" class="polyStyle" id="211221" style="fill:#f6f67b"/>
<path d="" class="polyStyle" id="210921" style="fill:#f6f67b"/>
<path d="" class="polyStyle" id="150223" style="fill:#f8c67d"/>
<path d="" class="polyStyle" id="220422" style="fill:#d4ecb2"/>
<path d="" class="polyStyle" id="340721" style="fill:#f6f67b"/>
<path d="" class="polyStyle" id="510824" style="fill:#d4ecb2"/>
<path d="" class="polyStyle" id="610324" style="fill:#f6f67b"/>
<path d="" class="polyStyle" id="530722" style="fill:#ee8b94"/>
<path d="" class="polyStyle" id="340823" style="fill:#d4ecb2"/>
<path d="" class="polyStyle" id="620825" style="fill:#d4ecb2"/>
<path d="" class="polyStyle" id="421125" style="fill:#ee8b94"/>
<path d="" class="polyStyle" id="210281" style="fill:#ee8b94"/>
<path d="" class="polyStyle" id="440883" style="fill:#f6f67b"/>
<path d="" class="polyStyle" id="469006" style="fill:#d4ecb2"/>
<path d="" class="polyStyle" id="469002" style="fill:#ee8b94"/>
<path d="" class="polyStyle" id="469005" style="fill:#fbe6ef"/>
<path d="" class="polyStyle" id="440882" style="fill:#ee8b94"/>
<path d="M2320,3259 L2330,3260 L2353,3257 L2388,3261 L2416,3260 L2464,3264 L2489,3276 L2499,3279 L2511,3276 L2522,3269 L2532,3266 L2544,3266 L2553,3266 L2558,3268 L2560,3273 L2563,3279 L2567,3283 L2573,3284 L2588,3286 L2598,3284 L2609,3317 L2616,3321 L2621,3328 L2625,3334 L2630,3337 L2633,3342 L2642,3345 L2659,3348 L2666,3351 L2672,3362 L2675,3368 L2683,3373 L2698,3374 L2729,3384 L2732,3386 L2737,3391 L2742,3397 L2749,3414 L2758,3425 L2761,3427 L2764,3431 L2768,3434 L2775,3443 L2780,3448 L2787,3454 L2793,3473 L2802,3485 L2815,3489 L2833,3492 L2854,3491 L2861,3490 L2866,3493 L2871,3495 L2874,3498 L2879,3500 L2882,3501 L2889,3506 L2898,3511 L2908,3519 L2912,3531 L2913,3534 L2916,3537 L2920,3541 L2926,3545 L2930,3550 L2941,3550 L2951,3549 L2954,3550 L2959,3550 L2962,3552 L2965,3556 L2965,3561 L2966,3564 L2969,3565 L2974,3565 L2979,3563 L2981,3559 L2984,3554 L2984,3549 L2988,3542 L2992,3538 L2998,3534 L3008,3528 L3021,3521 L3027,3517 L3030,3514 L3040,3510 L3049,3507 L3054,3507 L3057,3511 L3058,3514 L3062,3516 L3065,3523 L3066,3529 L3065,3534 L3065,3538 L3066,3542 L3071,3548 L3078,3549 L3082,3551 L3099,3557 L3108,3563 L3113,3572 L3115,3576 L3115,3579 L3121,3579 L3126,3579 L3133,3589 L3137,3593 L3137,3598 L3139,3605 L3150,3613 L3156,3609 L3163,3605 L3178,3602 L3189,3596 L3203,3593 L3211,3585 L3217,3578 L3230,3574 L3251,3563 L3267,3559 L3275,3547 L3270,3537 L3262,3530 L3262,3517 L3267,3510 L3271,3499 L3272,3494 L3268,3486 L3265,3475 L3257,3460 L3253,3455 L3244,3439 L3241,3430 L3240,3427 L3241,3419 L3251,3416 L3262,3416 L3267,3416 L3280,3414 L3290,3410 L3299,3406 L3309,3398 L3326,3391 L3337,3390 L3352,3381 L3380,3363 L3387,3360 L3392,3355 L3401,3352 L3412,3348 L3421,3344 L3425,3342 L3431,3328 L3443,3321 L3465,3321 L3485,3317 L3493,3316 L3506,3314 L3517,3308 L3540,3296 L3562,3287 L3570,3286 L3580,3296 L3588,3304 L3593,3317 L3595,3328 L3597,3334 L3607,3343 L3623,3340 L3629,3340 L3633,3340 L3638,3341 L3643,3345 L3647,3355 L3651,3363 L3654,3369 L3653,3379 L3654,3389 L3655,3397 L3656,3408 L3666,3414 L3666,3425 L3675,3428 L3682,3436 L3679,3444 L3661,3462 L3659,3471 L3666,3484 L3659,3503 L3650,3524 L3646,3528 L3637,3533 L3634,3539 L3627,3552 L3624,3562 L3624,3569 L3626,3576 L3630,3591 L3631,3599 L3631,3607 L3634,3614 L3640,3624 L3642,3635 L3645,3640 L3649,3644 L3651,3648 L3651,3653 L3649,3666 L3650,3669 L3650,3675 L3652,3680 L3657,3683 L3662,3687 L3663,3693 L3665,3702 L3662,3709 L3658,3712 L3653,3717 L3648,3722 L3646,3728 L3650,3730 L3655,3730 L3658,3730 L3661,3731 L3665,3737 L3668,3741 L3672,3746 L3675,3750 L3678,3755 L3680,3758 L3682,3764 L3684,3768 L3684,3772 L3681,3774 L3678,3776 L3671,3776 L3670,3779 L3677,3779 L3680,3780 L3681,3783 L3682,3789 L3679,3790 L3676,3793 L3673,3795 L3670,3800 L3672,3806 L3670,3813 L3657,3836 L3654,3840 L3647,3849 L3639,3854 L3631,3859 L3628,3860 L3624,3861 L3620,3858 L3616,3853 L3609,3845 L3607,3841 L3609,3838 L3606,3834 L3599,3830 L3592,3829 L3588,3829 L3585,3830 L3582,3830 L3575,3828 L3566,3823 L3563,3823 L3560,3823 L3556,3824 L3558,3828 L3563,3840 L3564,3843 L3566,3847 L3562,3856 L3559,3857 L3556,3857 L3541,3859 L3534,3859 L3518,3860 L3512,3861 L3502,3865 L3495,3867 L3483,3873 L3480,3873 L3476,3870 L3474,3866 L3473,3860 L3475,3856 L3471,3856 L3464,3857 L3453,3859 L3446,3861 L3443,3861 L3439,3861 L3425,3866 L3416,3869 L3413,3871 L3423,3876 L3431,3879 L3436,3883 L3440,3886 L3441,3890 L3445,3892 L3450,3897 L3457,3907 L3467,3918 L3478,3929 L3482,3933 L3484,3937 L3483,3940 L3480,3950 L3477,3959 L3474,3962 L3470,3963 L3464,3965 L3456,3971 L3453,3973 L3448,3974 L3444,3973 L3430,3974 L3424,3974 L3420,3970 L3419,3965 L3417,3962 L3416,3957 L3414,3953 L3408,3952 L3405,3953 L3403,3956 L3404,3961 L3398,3964 L3392,3966 L3388,3969 L3384,3969 L3381,3968 L3373,3969 L3368,3971 L3365,3973 L3352,3984 L3346,3990 L3346,3997 L3343,3998 L3340,3999 L3336,4002 L3333,4005 L3329,4005 L3326,4005 L3323,4001 L3322,3998 L3322,3994 L3321,3988 L3319,3980 L3317,3976 L3314,3970 L3311,3964 L3310,3959 L3310,3951 L3311,3945 L3312,3942 L3317,3938 L3324,3933 L3329,3931 L3329,3922 L3332,3919 L3338,3915 L3335,3915 L3332,3919 L3326,3921 L3323,3926 L3314,3932 L3307,3938 L3303,3942 L3302,3945 L3303,3950 L3303,3954 L3301,3959 L3296,3964 L3291,3966 L3288,3970 L3284,3977 L3284,3985 L3283,3997 L3287,4021 L3295,4022 L3298,4030 L3299,4045 L3303,4083 L3336,4107 L3371,4130 L3383,4134 L3417,4140 L3436,4149 L3440,4147 L3445,4149 L3449,4151 L3454,4152 L3469,4159 L3474,4162 L3478,4163 L3481,4167 L3483,4170 L3487,4174 L3491,4177 L3501,4187 L3504,4191 L3509,4195 L3511,4198 L3515,4201 L3520,4205 L3527,4210 L3533,4215 L3530,4218 L3526,4221 L3520,4221 L3508,4223 L3502,4224 L3499,4225 L3494,4226 L3487,4226 L3475,4229 L3454,4233 L3434,4237 L3418,4242 L3397,4245 L3377,4248 L3368,4249 L3349,4255 L3330,4260 L3311,4266 L3293,4271 L3274,4277 L3253,4284 L3243,4288 L3230,4289 L3225,4289 L3217,4289 L3204,4287 L3198,4286 L3190,4283 L3184,4279 L3176,4273 L3177,4270 L3181,4270 L3185,4270 L3198,4273 L3210,4273 L3218,4276 L3222,4277 L3230,4280 L3236,4279 L3239,4277 L3243,4271 L3246,4267 L3249,4265 L3253,4262 L3256,4261 L3262,4259 L3266,4256 L3265,4249 L3262,4237 L3257,4217 L3254,4202 L3251,4198 L3248,4198 L3243,4200 L3236,4204 L3232,4207 L3225,4210 L3216,4217 L3207,4219 L3199,4220 L3194,4220 L3187,4220 L3184,4220 L3170,4219 L3158,4219 L3145,4218 L3138,4218 L3130,4215 L3123,4210 L3118,4215 L3112,4212 L3118,4204 L3118,4193 L3118,4188 L3119,4182 L3110,4172 L3098,4164 L3090,4157 L3088,4151 L3092,4141 L3100,4125 L3104,4118 L3099,4115 L3094,4123 L3091,4124 L3094,4117 L3097,4106 L3096,4102 L3091,4091 L3090,4086 L3085,4085 L3090,4094 L3091,4097 L3093,4103 L3091,4106 L3090,4110 L3086,4118 L3081,4126 L3073,4136 L3067,4135 L3064,4135 L3062,4132 L3059,4128 L3055,4121 L3053,4116 L3050,4112 L3051,4108 L3052,4104 L3057,4097 L3058,4093 L3056,4088 L3054,4085 L3055,4092 L3054,4096 L3052,4100 L3049,4102 L3046,4106 L3043,4109 L3039,4112 L3035,4108 L3024,4100 L3017,4097 L3013,4091 L3011,4086 L3007,4079 L3005,4076 L3002,4072 L3000,4067 L2996,4061 L2992,4058 L2988,4055 L2991,4061 L2995,4066 L2997,4069 L2999,4072 L3001,4075 L3003,4079 L3004,4082 L3006,4088 L3011,4098 L3015,4102 L3018,4105 L3018,4108 L3014,4108 L3005,4104 L3001,4101 L2994,4101 L2988,4101 L2998,4104 L3001,4105 L3009,4110 L3012,4112 L3018,4112 L3023,4111 L3028,4112 L3028,4115 L3027,4120 L3024,4120 L3011,4120 L3001,4120 L3001,4123 L3004,4123 L3009,4124 L3013,4128 L3012,4131 L3009,4132 L3004,4137 L3002,4145 L3015,4147 L3023,4141 L3024,4146 L3018,4151 L3020,4158 L3025,4162 L3032,4161 L3033,4168 L3019,4173 L3008,4173 L3001,4177 L3001,4186 L3002,4189 L2999,4194 L2994,4196 L2985,4199 L2954,4204 L2919,4200 L2894,4196 L2890,4194 L2880,4189 L2873,4184 L2865,4176 L2862,4172 L2860,4167 L2855,4152 L2846,4151 L2832,4147 L2827,4145 L2801,4138 L2781,4132 L2766,4130 L2765,4137 L2758,4135 L2745,4134 L2735,4133 L2718,4132 L2706,4133 L2692,4135 L2672,4137 L2657,4138 L2649,4138 L2634,4136 L2623,4134 L2616,4134 L2612,4135 L2601,4141 L2596,4145 L2593,4146 L2584,4148 L2573,4149 L2561,4151 L2554,4154 L2530,4162 L2501,4162 L2495,4165 L2483,4179 L2475,4182 L2456,4183 L2447,4188 L2433,4202 L2417,4200 L2400,4200 L2387,4200 L2379,4197 L2370,4192 L2362,4183 L2342,4139 L2322,4078 L2316,4060 L2313,4053 L2313,4046 L2314,4037 L2314,4031 L2309,4024 L2267,4000 L2246,3988 L2240,3980 L2231,3966 L2226,3955 L2225,3947 L2223,3941 L2218,3940 L2208,3942 L2192,3950 L2185,3952 L2180,3952 L2172,3948 L2164,3941 L2142,3935 L2132,3927 L2123,3928 L2116,3938 L2110,3943 L2102,3942 L2099,3939 L2096,3934 L2095,3917 L2092,3911 L2082,3901 L2061,3892 L2057,3889 L2057,3883 L2064,3867 L2064,3858 L2061,3850 L2055,3846 L2045,3844 L2037,3844 L2023,3840 L2018,3833 L2020,3823 L2025,3818 L2038,3810 L2046,3804 L2046,3797 L2030,3780 L2037,3761 L2037,3751 L2032,3742 L2024,3735 L2006,3726 L1997,3717 L2051,3697 L2064,3696 L2087,3696 L2094,3695 L2098,3693 L2108,3684 L2131,3652 L2136,3640 L2140,3621 L2156,3598 L2158,3593 L2153,3582 L2144,3574 L2141,3565 L2142,3553 L2149,3534 L2151,3519 L2155,3507 L2162,3502 L2177,3498 L2184,3493 L2190,3482 L2193,3471 L2194,3459 L2192,3447 L2189,3438 L2180,3430 L2178,3425 L2185,3417 L2196,3410 L2230,3399 L2248,3391 L2269,3377 L2277,3367 L2281,3352 L2279,3338 L2274,3330 L2265,3323 L2255,3318 L2247,3312 L2243,3307 L2242,3288 L2246,3270 L2249,3264 L2253,3259 L2259,3255 L2268,3253 L2305,3253 L2320,3259z M3347,3898 L3345,3895 L3350,3898 L3351,3901 L3353,3906 L3352,3909 L3349,3911 L3345,3913 L3342,3914 L3347,3908 L3350,3906 L3351,3901 L3347,3898z M2948,4027 L2945,4024 L2951,4026 L2948,4027z M2959,4028 L2962,4028 L2967,4032 L2968,4035 L2963,4031 L2959,4028z M3061,4048 L3060,4043 L3062,4045 L3061,4048z M2979,4052 L2984,4051 L2986,4053 L2979,4052z M3070,4078 L3069,4074 L3072,4078 L3070,4078z " class="polyStyle" id="450681" style="fill:#ee8b94"/>
<path d="" class="polyStyle" id="441581" style="fill:#d4ecb2"/>
<path d="" class="polyStyle" id="421087" style="fill:#ee8b94"/>
<path d="" class="polyStyle" id="420984" style="fill:#fbe6ef"/>
<path d="" class="polyStyle" id="420582" style="fill:#ee8b94"/>
<path d="" class="polyStyle" id="370282" style="fill:#f6f67b"/>
<path d="" class="polyStyle" id="371083" style="fill:#f6f67b"/>
<path d="" class="polyStyle" id="371082" style="fill:#fbe6ef"/>
<path d="" class="polyStyle" id="652801" style="fill:#f8c67d"/>
<path d="" class="polyStyle" id="654301" style="fill:#ee8b94"/>
<path d="" class="polyStyle" id="370687" style="fill:#ee8b94"/>
<path d="" class="polyStyle" id="371482" style="fill:#d4ecb2"/>
<path d="" class="polyStyle" id="421081" style="fill:#fbe6ef"/>
<path d="" class="polyStyle" id="429006" style="fill:#f6f67b"/>
<path d="" class="polyStyle" id="440982" style="fill:#d4ecb2"/>
<path d="" class="polyStyle" id="421181" style="fill:#d4ecb2"/>
<path d="" class="polyStyle" id="321181" style="fill:#d4ecb2"/>
<path d="" class="polyStyle" id="659007" style="fill:#ee8b94"/>
<path d="" class="polyStyle" id="652701" style="fill:#fbe6ef"/>
<path d="" class="polyStyle" id="210781" style="fill:#fbe6ef"/>
<path d="" class="polyStyle" id="460204" style="fill:#f6f67b"/>
<path d="" class="polyStyle" id="210211" style="fill:#f6f67b"/>
<path d="" class="polyStyle" id="450512" style="fill:#ee8b94"/>
<path d="M4897,3138 L4897,3150 L4912,3159 L4923,3157 L4935,3160 L4939,3170 L4952,3172 L4961,3175 L4968,3173 L4975,3169 L4989,3167 L5000,3172 L5009,3175 L5018,3179 L5020,3180 L5019,3184 L5024,3190 L5027,3190 L5030,3189 L5034,3189 L5039,3193 L5045,3196 L5051,3200 L5053,3204 L5060,3204 L5063,3207 L5065,3210 L5070,3209 L5073,3210 L5076,3211 L5079,3213 L5083,3214 L5087,3214 L5093,3214 L5099,3217 L5104,3227 L5104,3230 L5103,3234 L5102,3239 L5099,3243 L5096,3248 L5100,3255 L5105,3248 L5108,3245 L5111,3242 L5114,3243 L5116,3248 L5118,3252 L5121,3253 L5124,3251 L5128,3257 L5132,3261 L5133,3264 L5135,3267 L5138,3269 L5140,3273 L5139,3279 L5136,3281 L5136,3285 L5134,3290 L5134,3296 L5138,3298 L5142,3300 L5145,3300 L5146,3303 L5145,3306 L5142,3309 L5144,3313 L5141,3315 L5138,3317 L5135,3317 L5132,3317 L5129,3320 L5128,3324 L5126,3327 L5122,3326 L5117,3326 L5113,3328 L5107,3331 L5102,3331 L5104,3335 L5106,3338 L5106,3342 L5105,3345 L5110,3350 L5114,3349 L5118,3347 L5122,3348 L5123,3345 L5126,3345 L5129,3348 L5129,3352 L5128,3356 L5129,3359 L5132,3361 L5135,3362 L5139,3364 L5143,3362 L5145,3355 L5144,3352 L5139,3347 L5136,3345 L5134,3342 L5134,3339 L5136,3335 L5140,3335 L5144,3334 L5149,3332 L5149,3328 L5145,3324 L5149,3321 L5150,3317 L5153,3315 L5154,3312 L5158,3308 L5160,3305 L5160,3302 L5161,3299 L5164,3299 L5168,3300 L5170,3303 L5168,3306 L5165,3310 L5162,3313 L5163,3317 L5163,3320 L5164,3323 L5165,3327 L5168,3328 L5171,3329 L5176,3325 L5177,3321 L5177,3317 L5179,3314 L5183,3311 L5186,3314 L5186,3317 L5186,3321 L5184,3325 L5185,3330 L5186,3336 L5187,3339 L5190,3341 L5193,3342 L5193,3338 L5196,3333 L5197,3330 L5199,3326 L5202,3325 L5203,3328 L5204,3331 L5206,3335 L5207,3339 L5208,3342 L5212,3339 L5212,3334 L5214,3327 L5217,3324 L5215,3321 L5213,3318 L5211,3314 L5211,3311 L5211,3308 L5214,3304 L5217,3302 L5220,3305 L5224,3306 L5228,3303 L5232,3303 L5235,3304 L5240,3310 L5246,3311 L5244,3308 L5241,3303 L5238,3297 L5237,3294 L5235,3290 L5241,3287 L5248,3287 L5251,3288 L5249,3284 L5251,3281 L5255,3278 L5259,3279 L5259,3275 L5262,3272 L5268,3274 L5271,3276 L5275,3277 L5279,3276 L5284,3278 L5287,3280 L5290,3283 L5291,3286 L5294,3288 L5294,3279 L5294,3276 L5289,3274 L5286,3272 L5284,3269 L5281,3270 L5277,3269 L5280,3266 L5282,3263 L5281,3260 L5278,3259 L5275,3260 L5274,3256 L5278,3254 L5280,3251 L5283,3247 L5283,3244 L5288,3240 L5291,3241 L5294,3243 L5297,3241 L5297,3236 L5301,3236 L5306,3242 L5308,3247 L5312,3249 L5315,3248 L5318,3247 L5322,3248 L5329,3255 L5332,3257 L5335,3260 L5342,3265 L5346,3267 L5348,3272 L5350,3276 L5350,3279 L5349,3283 L5349,3286 L5348,3290 L5347,3293 L5344,3295 L5341,3298 L5338,3300 L5336,3303 L5332,3303 L5328,3305 L5325,3308 L5321,3315 L5320,3319 L5319,3329 L5314,3327 L5310,3324 L5306,3323 L5303,3324 L5302,3328 L5305,3331 L5309,3332 L5310,3335 L5310,3338 L5309,3341 L5308,3344 L5304,3344 L5301,3342 L5298,3343 L5294,3343 L5287,3343 L5281,3342 L5276,3341 L5272,3339 L5267,3338 L5265,3343 L5265,3348 L5267,3351 L5272,3351 L5277,3351 L5281,3350 L5284,3350 L5291,3352 L5294,3352 L5302,3356 L5303,3359 L5303,3362 L5302,3366 L5298,3367 L5294,3370 L5294,3373 L5296,3376 L5296,3381 L5294,3385 L5295,3388 L5294,3392 L5292,3395 L5289,3396 L5284,3401 L5285,3404 L5284,3407 L5280,3410 L5277,3411 L5272,3410 L5270,3406 L5268,3403 L5267,3400 L5263,3397 L5257,3400 L5259,3404 L5259,3407 L5256,3411 L5252,3415 L5246,3417 L5243,3421 L5243,3425 L5243,3430 L5246,3433 L5249,3435 L5253,3436 L5260,3436 L5262,3448 L5265,3448 L5268,3448 L5272,3447 L5275,3443 L5280,3437 L5282,3434 L5281,3431 L5284,3428 L5285,3425 L5289,3420 L5292,3418 L5296,3417 L5299,3415 L5302,3417 L5303,3421 L5300,3425 L5300,3432 L5297,3436 L5297,3440 L5294,3443 L5295,3446 L5296,3449 L5301,3454 L5305,3457 L5308,3454 L5305,3452 L5302,3448 L5300,3443 L5300,3439 L5303,3437 L5307,3436 L5313,3433 L5316,3435 L5323,3436 L5328,3436 L5327,3432 L5327,3429 L5324,3426 L5321,3425 L5317,3421 L5312,3418 L5313,3414 L5318,3411 L5318,3407 L5323,3404 L5327,3402 L5325,3398 L5325,3393 L5328,3392 L5331,3392 L5334,3395 L5335,3399 L5335,3403 L5336,3407 L5342,3403 L5342,3400 L5347,3399 L5351,3401 L5355,3399 L5356,3395 L5352,3394 L5349,3392 L5346,3389 L5343,3386 L5338,3384 L5338,3380 L5341,3379 L5346,3375 L5353,3370 L5356,3372 L5356,3376 L5359,3379 L5363,3382 L5367,3385 L5370,3386 L5378,3386 L5380,3382 L5376,3383 L5373,3383 L5370,3380 L5367,3378 L5370,3370 L5366,3363 L5367,3359 L5370,3359 L5373,3359 L5377,3356 L5377,3352 L5377,3349 L5380,3347 L5383,3345 L5385,3342 L5391,3343 L5394,3341 L5399,3343 L5403,3344 L5407,3344 L5408,3348 L5405,3352 L5402,3353 L5399,3355 L5403,3359 L5407,3360 L5410,3359 L5410,3362 L5410,3365 L5410,3368 L5415,3368 L5417,3365 L5421,3364 L5425,3368 L5428,3367 L5431,3365 L5433,3369 L5433,3373 L5433,3377 L5435,3380 L5436,3383 L5433,3385 L5434,3388 L5435,3391 L5438,3393 L5442,3396 L5448,3392 L5451,3394 L5453,3399 L5454,3403 L5451,3404 L5444,3407 L5448,3410 L5452,3411 L5449,3413 L5448,3418 L5448,3421 L5448,3424 L5450,3428 L5451,3432 L5451,3436 L5453,3439 L5458,3445 L5461,3446 L5460,3449 L5460,3453 L5456,3454 L5453,3455 L5450,3458 L5448,3462 L5446,3466 L5446,3469 L5444,3473 L5443,3476 L5440,3479 L5438,3482 L5434,3486 L5434,3492 L5433,3497 L5430,3503 L5429,3507 L5429,3510 L5428,3513 L5423,3515 L5420,3514 L5415,3511 L5412,3510 L5409,3510 L5410,3514 L5412,3517 L5416,3519 L5422,3520 L5425,3523 L5429,3527 L5430,3531 L5434,3536 L5436,3540 L5436,3547 L5434,3552 L5430,3551 L5431,3548 L5429,3545 L5424,3545 L5420,3545 L5417,3548 L5414,3548 L5411,3547 L5405,3547 L5402,3545 L5402,3542 L5400,3539 L5397,3539 L5394,3540 L5390,3538 L5386,3537 L5383,3536 L5379,3535 L5374,3536 L5367,3536 L5360,3539 L5360,3544 L5361,3549 L5358,3553 L5352,3551 L5349,3550 L5350,3554 L5353,3561 L5351,3565 L5347,3569 L5343,3571 L5338,3575 L5336,3578 L5335,3582 L5332,3584 L5330,3588 L5328,3592 L5326,3595 L5325,3598 L5321,3599 L5316,3600 L5313,3607 L5312,3610 L5316,3610 L5320,3610 L5326,3610 L5329,3611 L5332,3612 L5337,3613 L5335,3607 L5335,3603 L5338,3597 L5341,3594 L5344,3590 L5346,3586 L5349,3583 L5352,3583 L5355,3585 L5357,3588 L5358,3584 L5360,3580 L5361,3576 L5363,3573 L5366,3570 L5368,3566 L5369,3563 L5372,3560 L5379,3562 L5382,3563 L5387,3564 L5394,3563 L5392,3566 L5390,3569 L5388,3573 L5389,3581 L5389,3588 L5383,3594 L5380,3598 L5378,3603 L5375,3607 L5372,3610 L5370,3613 L5367,3616 L5364,3619 L5360,3624 L5358,3628 L5357,3631 L5359,3640 L5357,3648 L5356,3656 L5353,3658 L5348,3663 L5345,3666 L5342,3669 L5337,3673 L5333,3676 L5328,3680 L5325,3683 L5321,3686 L5318,3688 L5316,3691 L5312,3696 L5310,3700 L5304,3703 L5299,3704 L5295,3705 L5290,3706 L5285,3707 L5280,3707 L5277,3706 L5274,3706 L5268,3707 L5264,3707 L5261,3704 L5258,3703 L5260,3697 L5264,3693 L5267,3691 L5270,3691 L5274,3692 L5277,3692 L5281,3691 L5282,3688 L5282,3685 L5281,3680 L5280,3676 L5277,3671 L5280,3665 L5282,3661 L5283,3657 L5280,3654 L5277,3650 L5275,3647 L5275,3644 L5278,3639 L5284,3636 L5282,3632 L5278,3630 L5273,3626 L5271,3622 L5267,3625 L5273,3630 L5277,3634 L5277,3637 L5273,3639 L5272,3645 L5272,3648 L5273,3652 L5275,3655 L5279,3658 L5278,3661 L5275,3662 L5271,3665 L5270,3668 L5270,3673 L5271,3677 L5271,3681 L5268,3683 L5265,3686 L5260,3687 L5257,3686 L5248,3685 L5240,3683 L5239,3680 L5237,3676 L5233,3677 L5229,3678 L5226,3679 L5224,3684 L5228,3691 L5231,3694 L5231,3697 L5229,3701 L5225,3702 L5222,3702 L5218,3701 L5215,3698 L5212,3694 L5209,3692 L5207,3689 L5203,3683 L5199,3682 L5190,3681 L5185,3681 L5181,3679 L5177,3677 L5172,3677 L5169,3679 L5167,3684 L5164,3692 L5170,3694 L5173,3690 L5177,3689 L5182,3689 L5185,3690 L5189,3692 L5192,3693 L5196,3695 L5201,3698 L5208,3703 L5216,3710 L5219,3710 L5222,3711 L5227,3711 L5230,3712 L5229,3719 L5231,3724 L5237,3719 L5241,3717 L5245,3714 L5248,3715 L5254,3716 L5258,3719 L5260,3723 L5261,3729 L5264,3737 L5264,3743 L5260,3748 L5253,3753 L5252,3757 L5251,3760 L5250,3763 L5250,3772 L5252,3775 L5256,3776 L5260,3780 L5260,3784 L5257,3787 L5250,3794 L5246,3798 L5239,3804 L5236,3807 L5235,3810 L5236,3813 L5239,3815 L5238,3818 L5235,3820 L5230,3822 L5225,3824 L5221,3825 L5215,3828 L5213,3831 L5207,3838 L5204,3838 L5198,3841 L5193,3840 L5196,3831 L5197,3828 L5201,3828 L5205,3830 L5208,3829 L5205,3827 L5202,3823 L5201,3819 L5204,3814 L5211,3810 L5217,3809 L5216,3805 L5214,3801 L5209,3799 L5205,3798 L5199,3790 L5196,3789 L5193,3789 L5191,3792 L5189,3800 L5184,3807 L5181,3809 L5181,3812 L5184,3812 L5187,3814 L5191,3819 L5189,3824 L5183,3833 L5181,3836 L5180,3839 L5177,3846 L5180,3848 L5183,3847 L5186,3846 L5191,3846 L5195,3847 L5199,3849 L5202,3851 L5208,3859 L5209,3864 L5209,3868 L5207,3873 L5204,3883 L5202,3887 L5194,3887 L5190,3889 L5187,3891 L5184,3893 L5181,3895 L5178,3901 L5172,3910 L5169,3913 L5164,3912 L5159,3912 L5156,3914 L5156,3917 L5153,3920 L5152,3913 L5149,3913 L5141,3917 L5140,3921 L5138,3924 L5134,3925 L5130,3927 L5127,3928 L5124,3928 L5121,3929 L5118,3930 L5114,3931 L5110,3930 L5106,3929 L5100,3925 L5095,3928 L5088,3936 L5085,3939 L5082,3942 L5076,3945 L5072,3947 L5068,3948 L5062,3951 L5058,3952 L5053,3954 L5046,3956 L5039,3958 L5034,3960 L5029,3963 L5023,3964 L5019,3966 L5011,3967 L5008,3967 L5005,3968 L4999,3968 L4995,3966 L4991,3964 L4988,3962 L4985,3961 L4980,3959 L4978,3955 L4980,3951 L4989,3948 L4992,3943 L4998,3941 L5001,3938 L5004,3936 L5010,3936 L5014,3934 L5018,3935 L5021,3932 L5027,3921 L5023,3924 L5019,3926 L5012,3930 L5004,3931 L5000,3930 L4992,3934 L4994,3937 L4992,3943 L4987,3943 L4984,3944 L4975,3941 L4972,3939 L4972,3935 L4974,3932 L4980,3921 L4983,3915 L4988,3910 L4991,3906 L4995,3903 L5001,3900 L5005,3901 L5009,3903 L5012,3904 L5015,3901 L5019,3898 L5023,3896 L5024,3893 L5021,3893 L5018,3890 L5016,3879 L5018,3874 L5020,3871 L5022,3868 L5028,3864 L5031,3864 L5034,3862 L5035,3859 L5036,3856 L5039,3853 L5039,3849 L5041,3846 L5044,3841 L5046,3838 L5052,3836 L5063,3837 L5067,3839 L5071,3845 L5072,3849 L5069,3854 L5065,3860 L5060,3863 L5056,3864 L5058,3868 L5060,3872 L5060,3879 L5064,3879 L5065,3876 L5067,3873 L5073,3860 L5076,3859 L5079,3860 L5082,3858 L5083,3855 L5084,3849 L5083,3845 L5081,3842 L5085,3836 L5090,3835 L5092,3831 L5097,3828 L5097,3825 L5093,3825 L5087,3824 L5084,3822 L5081,3821 L5070,3814 L5067,3816 L5064,3817 L5060,3817 L5056,3814 L5058,3809 L5058,3805 L5063,3804 L5066,3805 L5069,3804 L5072,3801 L5076,3797 L5080,3796 L5083,3794 L5087,3790 L5084,3789 L5083,3794 L5079,3793 L5076,3789 L5076,3786 L5078,3783 L5080,3780 L5084,3779 L5089,3779 L5087,3776 L5083,3774 L5080,3770 L5077,3768 L5073,3765 L5072,3761 L5069,3759 L5068,3762 L5067,3766 L5064,3772 L5060,3772 L5059,3776 L5060,3780 L5063,3779 L5069,3779 L5072,3780 L5073,3783 L5072,3786 L5070,3790 L5067,3793 L5062,3797 L5059,3801 L5058,3805 L5053,3803 L5049,3799 L5048,3790 L5050,3787 L5051,3782 L5052,3779 L5048,3780 L5046,3783 L5044,3786 L5041,3788 L5038,3789 L5036,3795 L5032,3795 L5026,3797 L5022,3805 L5018,3809 L5015,3808 L5011,3805 L5008,3801 L5006,3798 L5003,3795 L4999,3790 L4995,3792 L4991,3797 L4987,3801 L4991,3804 L4994,3804 L4998,3804 L5001,3802 L5005,3805 L5009,3808 L5012,3811 L5012,3814 L5007,3818 L5009,3821 L5016,3824 L5018,3820 L5019,3817 L5022,3816 L5032,3819 L5032,3823 L5033,3826 L5032,3832 L5030,3835 L5030,3838 L5028,3842 L5028,3845 L5025,3848 L5021,3852 L5015,3848 L5010,3845 L5007,3843 L5001,3842 L4998,3845 L4994,3845 L4990,3849 L4988,3853 L4989,3857 L4991,3862 L4991,3866 L4987,3870 L4986,3875 L4984,3879 L4983,3883 L4980,3886 L4983,3889 L4984,3892 L4979,3898 L4977,3902 L4972,3909 L4969,3907 L4968,3904 L4968,3899 L4967,3891 L4960,3893 L4954,3896 L4950,3893 L4946,3893 L4946,3897 L4944,3900 L4948,3903 L4957,3908 L4957,3914 L4956,3920 L4954,3923 L4953,3928 L4956,3931 L4957,3934 L4958,3937 L4961,3940 L4964,3942 L4966,3945 L4967,3948 L4968,3952 L4968,3955 L4969,3958 L4974,3967 L4977,3970 L4978,3973 L4977,3976 L4976,3979 L4976,3987 L4975,3990 L4974,3994 L4973,4001 L4974,4004 L4976,4007 L4983,4014 L4989,4020 L4990,4023 L4987,4024 L4983,4026 L4974,4028 L4970,4030 L4967,4033 L4964,4035 L4960,4042 L4956,4041 L4949,4039 L4944,4037 L4941,4037 L4935,4035 L4929,4032 L4927,4029 L4920,4025 L4916,4020 L4909,4019 L4903,4021 L4898,4019 L4896,4013 L4895,4010 L4895,4007 L4898,4002 L4894,4000 L4891,3997 L4887,3996 L4887,4000 L4891,4004 L4895,4007 L4892,4009 L4889,4010 L4885,4012 L4887,4017 L4888,4021 L4887,4025 L4883,4022 L4879,4022 L4881,4027 L4884,4030 L4882,4034 L4877,4036 L4884,4038 L4888,4038 L4890,4042 L4887,4045 L4883,4048 L4856,4048 L4856,4054 L4859,4056 L4863,4056 L4868,4056 L4871,4055 L4875,4055 L4883,4054 L4887,4053 L4890,4053 L4896,4052 L4900,4052 L4903,4051 L4907,4051 L4910,4050 L4911,4045 L4912,4038 L4914,4033 L4919,4036 L4924,4040 L4926,4045 L4931,4049 L4938,4053 L4941,4052 L4942,4048 L4946,4049 L4950,4052 L4957,4052 L4969,4052 L4973,4050 L4977,4052 L4974,4056 L4973,4062 L4974,4065 L4977,4070 L4979,4075 L4978,4078 L4975,4080 L4971,4080 L4968,4081 L4964,4083 L4956,4083 L4952,4083 L4944,4083 L4940,4082 L4930,4082 L4926,4083 L4922,4082 L4919,4082 L4910,4082 L4902,4083 L4898,4083 L4893,4083 L4889,4083 L4885,4084 L4881,4085 L4877,4085 L4873,4086 L4867,4088 L4863,4090 L4860,4090 L4854,4093 L4850,4096 L4847,4097 L4844,4099 L4840,4101 L4835,4104 L4831,4108 L4828,4110 L4821,4110 L4817,4108 L4811,4107 L4808,4107 L4805,4107 L4801,4106 L4798,4105 L4793,4105 L4789,4105 L4785,4106 L4782,4107 L4777,4107 L4775,4103 L4780,4100 L4781,4096 L4777,4092 L4779,4085 L4781,4081 L4786,4077 L4784,4073 L4781,4072 L4781,4069 L4781,4065 L4778,4064 L4775,4067 L4777,4071 L4779,4077 L4777,4081 L4774,4085 L4773,4091 L4773,4094 L4774,4099 L4765,4103 L4760,4099 L4752,4098 L4751,4101 L4758,4103 L4764,4106 L4759,4106 L4753,4104 L4749,4104 L4744,4104 L4740,4104 L4735,4103 L4732,4103 L4729,4104 L4725,4104 L4722,4104 L4714,4104 L4711,4104 L4703,4104 L4698,4104 L4690,4104 L4687,4105 L4684,4105 L4681,4105 L4677,4106 L4673,4107 L4669,4106 L4666,4107 L4662,4107 L4659,4107 L4653,4107 L4649,4107 L4646,4107 L4642,4106 L4638,4106 L4634,4106 L4630,4106 L4625,4106 L4622,4106 L4613,4106 L4610,4105 L4602,4105 L4599,4107 L4596,4107 L4588,4106 L4577,4106 L4573,4105 L4566,4105 L4561,4103 L4562,4100 L4564,4094 L4562,4090 L4559,4087 L4556,4084 L4555,4080 L4553,4074 L4554,4071 L4557,4067 L4559,4062 L4560,4058 L4564,4052 L4568,4050 L4570,4047 L4571,4042 L4572,4037 L4570,4033 L4570,4030 L4573,4028 L4577,4025 L4580,4024 L4583,4021 L4585,4018 L4585,4015 L4586,4012 L4587,4009 L4591,4004 L4594,3996 L4597,3993 L4598,3989 L4598,3981 L4596,3974 L4594,3968 L4592,3965 L4591,3962 L4585,3953 L4584,3950 L4579,3944 L4576,3940 L4573,3936 L4567,3929 L4563,3924 L4560,3920 L4557,3916 L4559,3911 L4561,3907 L4563,3901 L4567,3896 L4571,3889 L4575,3887 L4579,3887 L4585,3890 L4590,3890 L4593,3891 L4602,3892 L4607,3893 L4613,3892 L4618,3889 L4620,3886 L4622,3883 L4625,3883 L4629,3885 L4629,3888 L4631,3892 L4635,3895 L4639,3896 L4642,3895 L4646,3896 L4649,3897 L4654,3895 L4658,3893 L4664,3890 L4666,3887 L4669,3886 L4673,3886 L4673,3891 L4676,3893 L4682,3893 L4686,3893 L4690,3892 L4693,3897 L4690,3905 L4687,3907 L4688,3910 L4690,3913 L4691,3916 L4693,3919 L4695,3924 L4698,3924 L4698,3921 L4697,3918 L4695,3915 L4694,3912 L4694,3908 L4704,3904 L4704,3907 L4703,3912 L4706,3914 L4709,3914 L4709,3911 L4711,3907 L4714,3904 L4714,3901 L4710,3897 L4709,3891 L4709,3888 L4705,3885 L4700,3881 L4698,3878 L4698,3875 L4701,3875 L4702,3878 L4707,3882 L4711,3882 L4726,3882 L4734,3882 L4739,3889 L4740,3892 L4737,3895 L4735,3900 L4739,3900 L4743,3900 L4746,3897 L4747,3893 L4750,3890 L4753,3889 L4759,3890 L4762,3890 L4765,3892 L4767,3896 L4766,3904 L4764,3907 L4762,3910 L4760,3913 L4760,3917 L4763,3920 L4767,3923 L4769,3926 L4771,3929 L4770,3933 L4767,3938 L4763,3941 L4759,3943 L4754,3947 L4755,3952 L4759,3953 L4760,3960 L4763,3960 L4767,3961 L4770,3961 L4774,3962 L4777,3962 L4777,3959 L4778,3955 L4779,3950 L4778,3947 L4777,3941 L4780,3938 L4783,3937 L4785,3940 L4788,3939 L4787,3935 L4789,3930 L4787,3925 L4786,3922 L4784,3917 L4781,3912 L4781,3909 L4782,3904 L4783,3901 L4784,3898 L4782,3895 L4778,3890 L4775,3886 L4772,3883 L4768,3880 L4763,3878 L4760,3877 L4759,3870 L4759,3867 L4760,3864 L4761,3861 L4765,3860 L4770,3861 L4776,3860 L4780,3858 L4780,3855 L4777,3854 L4772,3852 L4766,3849 L4766,3846 L4769,3845 L4774,3842 L4777,3842 L4782,3840 L4785,3839 L4789,3837 L4794,3833 L4801,3838 L4804,3840 L4810,3837 L4813,3837 L4818,3839 L4822,3842 L4820,3845 L4822,3849 L4825,3853 L4827,3857 L4829,3854 L4826,3849 L4825,3846 L4828,3844 L4832,3839 L4835,3839 L4837,3842 L4840,3845 L4843,3846 L4850,3849 L4853,3846 L4852,3842 L4849,3840 L4846,3838 L4843,3836 L4838,3833 L4835,3833 L4831,3835 L4828,3836 L4825,3835 L4822,3831 L4815,3827 L4811,3827 L4807,3827 L4801,3828 L4798,3825 L4802,3821 L4806,3814 L4808,3810 L4813,3806 L4817,3804 L4821,3799 L4826,3795 L4830,3795 L4833,3794 L4836,3790 L4836,3786 L4836,3779 L4839,3775 L4843,3771 L4846,3769 L4849,3769 L4853,3768 L4856,3766 L4860,3766 L4863,3769 L4867,3767 L4872,3768 L4876,3768 L4879,3766 L4882,3764 L4879,3763 L4870,3759 L4863,3756 L4858,3759 L4853,3762 L4849,3764 L4846,3766 L4842,3767 L4837,3771 L4833,3775 L4829,3779 L4826,3782 L4821,3784 L4818,3786 L4815,3783 L4814,3780 L4812,3776 L4809,3776 L4806,3777 L4804,3782 L4807,3783 L4811,3784 L4813,3787 L4812,3792 L4803,3800 L4798,3803 L4795,3805 L4792,3805 L4788,3801 L4782,3803 L4776,3807 L4772,3810 L4769,3810 L4766,3810 L4763,3807 L4759,3808 L4754,3809 L4750,3813 L4747,3814 L4741,3817 L4737,3824 L4733,3825 L4729,3828 L4727,3831 L4726,3836 L4722,3836 L4719,3832 L4716,3835 L4712,3832 L4709,3828 L4705,3827 L4701,3828 L4698,3830 L4695,3829 L4699,3824 L4703,3821 L4703,3818 L4704,3815 L4707,3814 L4710,3813 L4714,3810 L4712,3806 L4707,3807 L4703,3810 L4700,3813 L4697,3813 L4694,3808 L4691,3803 L4688,3801 L4682,3803 L4679,3803 L4672,3800 L4667,3798 L4664,3797 L4658,3798 L4655,3795 L4657,3792 L4660,3789 L4663,3786 L4667,3783 L4670,3782 L4673,3779 L4677,3780 L4681,3781 L4684,3781 L4687,3780 L4690,3782 L4693,3785 L4696,3784 L4699,3780 L4698,3777 L4695,3776 L4692,3775 L4691,3772 L4691,3769 L4693,3767 L4697,3766 L4701,3766 L4704,3770 L4707,3774 L4709,3777 L4711,3773 L4710,3770 L4705,3767 L4704,3764 L4707,3760 L4710,3758 L4713,3757 L4716,3761 L4720,3762 L4723,3763 L4726,3764 L4729,3762 L4726,3761 L4724,3758 L4728,3755 L4727,3752 L4723,3753 L4719,3757 L4716,3756 L4717,3753 L4715,3748 L4712,3744 L4708,3742 L4708,3739 L4706,3735 L4707,3732 L4710,3731 L4711,3728 L4709,3723 L4705,3720 L4701,3717 L4698,3714 L4697,3710 L4700,3706 L4704,3707 L4705,3712 L4709,3716 L4710,3720 L4714,3720 L4715,3716 L4712,3714 L4713,3711 L4716,3710 L4720,3709 L4721,3713 L4720,3716 L4721,3719 L4724,3717 L4727,3718 L4727,3723 L4726,3727 L4729,3727 L4731,3721 L4735,3721 L4737,3718 L4735,3715 L4731,3711 L4732,3707 L4737,3701 L4738,3697 L4738,3694 L4737,3690 L4739,3686 L4742,3681 L4746,3682 L4750,3682 L4753,3679 L4754,3682 L4757,3684 L4762,3683 L4765,3682 L4768,3679 L4771,3680 L4773,3683 L4776,3685 L4777,3681 L4774,3679 L4777,3676 L4781,3675 L4787,3673 L4789,3675 L4792,3673 L4787,3673 L4780,3671 L4777,3672 L4774,3672 L4771,3670 L4770,3667 L4768,3662 L4767,3657 L4769,3654 L4772,3647 L4775,3643 L4779,3636 L4781,3632 L4784,3630 L4788,3628 L4793,3627 L4799,3628 L4804,3627 L4808,3625 L4810,3628 L4810,3632 L4808,3635 L4812,3635 L4815,3635 L4818,3633 L4815,3632 L4813,3629 L4814,3625 L4814,3619 L4810,3615 L4812,3612 L4814,3609 L4818,3607 L4821,3604 L4824,3607 L4825,3611 L4827,3614 L4830,3617 L4831,3621 L4830,3625 L4834,3627 L4841,3625 L4844,3623 L4847,3623 L4850,3619 L4849,3613 L4846,3609 L4848,3605 L4852,3609 L4857,3613 L4858,3611 L4855,3607 L4853,3604 L4849,3602 L4850,3599 L4853,3597 L4857,3597 L4860,3599 L4869,3599 L4876,3598 L4880,3598 L4883,3599 L4884,3607 L4883,3610 L4880,3609 L4877,3611 L4881,3614 L4887,3617 L4887,3621 L4887,3624 L4888,3628 L4889,3631 L4891,3635 L4895,3631 L4894,3628 L4898,3626 L4895,3622 L4891,3623 L4891,3617 L4890,3612 L4893,3610 L4896,3610 L4901,3612 L4905,3613 L4908,3617 L4911,3620 L4913,3624 L4915,3628 L4916,3631 L4922,3631 L4926,3632 L4928,3635 L4928,3638 L4927,3641 L4933,3644 L4936,3643 L4936,3639 L4938,3635 L4936,3630 L4933,3626 L4927,3627 L4925,3624 L4925,3621 L4923,3618 L4919,3616 L4916,3615 L4917,3612 L4920,3610 L4921,3607 L4917,3604 L4913,3602 L4908,3604 L4907,3607 L4904,3607 L4901,3605 L4901,3601 L4904,3592 L4905,3589 L4902,3585 L4902,3582 L4898,3578 L4893,3579 L4889,3579 L4885,3577 L4885,3568 L4888,3566 L4892,3567 L4899,3568 L4904,3569 L4907,3559 L4910,3557 L4913,3559 L4918,3557 L4916,3553 L4915,3549 L4915,3546 L4916,3543 L4915,3539 L4919,3538 L4922,3541 L4926,3543 L4931,3544 L4934,3546 L4939,3548 L4945,3546 L4948,3546 L4953,3541 L4949,3540 L4946,3540 L4943,3540 L4940,3539 L4936,3538 L4932,3534 L4933,3529 L4939,3524 L4945,3523 L4953,3520 L4955,3518 L4954,3514 L4953,3510 L4952,3506 L4949,3509 L4947,3515 L4947,3518 L4944,3520 L4939,3520 L4935,3518 L4932,3518 L4929,3520 L4929,3523 L4929,3527 L4926,3528 L4922,3528 L4918,3528 L4908,3528 L4905,3529 L4901,3529 L4898,3528 L4897,3524 L4893,3521 L4894,3517 L4897,3516 L4900,3518 L4902,3515 L4897,3516 L4894,3514 L4889,3519 L4887,3522 L4886,3527 L4885,3530 L4881,3532 L4875,3534 L4870,3536 L4867,3538 L4863,3536 L4859,3535 L4856,3537 L4851,3537 L4846,3541 L4839,3546 L4835,3549 L4832,3550 L4829,3552 L4826,3552 L4822,3551 L4818,3549 L4818,3546 L4821,3545 L4822,3541 L4825,3540 L4822,3536 L4818,3530 L4818,3527 L4815,3526 L4814,3530 L4816,3535 L4818,3538 L4822,3541 L4818,3542 L4814,3542 L4809,3546 L4804,3548 L4801,3548 L4798,3546 L4794,3545 L4795,3548 L4799,3551 L4799,3557 L4794,3559 L4791,3559 L4787,3559 L4784,3557 L4785,3554 L4786,3551 L4787,3548 L4789,3545 L4785,3544 L4780,3545 L4779,3548 L4775,3552 L4772,3555 L4769,3557 L4766,3554 L4763,3556 L4763,3560 L4764,3563 L4760,3564 L4756,3566 L4753,3563 L4749,3566 L4749,3570 L4746,3571 L4740,3571 L4740,3574 L4742,3577 L4741,3580 L4738,3583 L4738,3580 L4734,3579 L4730,3577 L4726,3576 L4723,3578 L4720,3579 L4716,3579 L4714,3584 L4714,3587 L4713,3590 L4710,3593 L4707,3596 L4704,3598 L4701,3600 L4698,3602 L4694,3604 L4690,3605 L4687,3604 L4684,3601 L4687,3598 L4688,3595 L4691,3590 L4692,3587 L4693,3583 L4697,3578 L4698,3573 L4697,3567 L4698,3562 L4699,3555 L4701,3551 L4701,3546 L4702,3542 L4705,3538 L4704,3534 L4704,3527 L4708,3524 L4713,3525 L4721,3530 L4725,3535 L4726,3538 L4725,3542 L4730,3543 L4733,3542 L4732,3539 L4732,3536 L4733,3532 L4736,3531 L4740,3533 L4741,3529 L4738,3526 L4732,3527 L4729,3530 L4724,3529 L4723,3526 L4723,3521 L4720,3520 L4719,3517 L4716,3514 L4717,3510 L4720,3506 L4723,3504 L4727,3503 L4729,3497 L4732,3498 L4741,3500 L4742,3503 L4742,3507 L4742,3510 L4744,3513 L4747,3514 L4753,3511 L4754,3507 L4753,3504 L4754,3500 L4757,3497 L4763,3491 L4767,3485 L4769,3482 L4771,3479 L4768,3479 L4764,3479 L4760,3479 L4760,3475 L4756,3474 L4752,3476 L4748,3474 L4749,3471 L4754,3467 L4752,3462 L4751,3459 L4756,3456 L4759,3459 L4761,3456 L4759,3452 L4754,3447 L4756,3444 L4759,3443 L4763,3442 L4767,3442 L4770,3442 L4774,3442 L4777,3440 L4779,3436 L4782,3432 L4785,3427 L4787,3424 L4790,3424 L4794,3422 L4798,3422 L4802,3423 L4804,3422 L4802,3419 L4796,3419 L4792,3418 L4788,3418 L4784,3417 L4777,3412 L4775,3408 L4775,3404 L4773,3400 L4774,3395 L4779,3391 L4776,3389 L4772,3388 L4768,3392 L4765,3396 L4765,3399 L4770,3405 L4772,3412 L4775,3415 L4777,3422 L4775,3426 L4773,3429 L4770,3432 L4767,3434 L4763,3433 L4759,3430 L4756,3426 L4753,3424 L4749,3422 L4741,3421 L4738,3417 L4735,3416 L4732,3420 L4732,3425 L4727,3425 L4726,3422 L4724,3419 L4721,3420 L4721,3423 L4718,3426 L4715,3425 L4712,3423 L4707,3429 L4704,3433 L4701,3436 L4699,3439 L4703,3441 L4706,3443 L4707,3447 L4704,3449 L4699,3450 L4698,3454 L4693,3456 L4688,3456 L4687,3460 L4690,3466 L4692,3470 L4689,3472 L4688,3475 L4689,3478 L4692,3481 L4694,3485 L4695,3491 L4691,3496 L4688,3500 L4690,3503 L4690,3507 L4687,3511 L4684,3512 L4683,3509 L4682,3505 L4679,3503 L4676,3504 L4673,3505 L4669,3507 L4665,3510 L4667,3513 L4671,3515 L4672,3518 L4667,3520 L4663,3524 L4659,3526 L4656,3528 L4653,3529 L4649,3531 L4646,3531 L4642,3530 L4636,3532 L4632,3535 L4629,3536 L4624,3539 L4620,3541 L4616,3543 L4614,3546 L4608,3548 L4603,3548 L4597,3551 L4594,3552 L4589,3553 L4582,3554 L4578,3555 L4575,3558 L4572,3559 L4566,3561 L4563,3563 L4560,3565 L4557,3563 L4554,3562 L4555,3557 L4558,3554 L4561,3554 L4564,3555 L4567,3553 L4568,3549 L4571,3546 L4574,3545 L4577,3546 L4580,3546 L4583,3545 L4585,3542 L4586,3538 L4583,3539 L4580,3539 L4581,3536 L4583,3533 L4587,3533 L4586,3530 L4581,3526 L4577,3530 L4570,3530 L4562,3534 L4565,3536 L4569,3535 L4572,3533 L4577,3536 L4577,3539 L4573,3541 L4569,3541 L4566,3542 L4565,3545 L4565,3548 L4563,3551 L4556,3550 L4549,3542 L4546,3541 L4543,3537 L4543,3532 L4549,3524 L4549,3520 L4547,3514 L4542,3509 L4538,3510 L4535,3512 L4535,3515 L4534,3519 L4533,3522 L4528,3522 L4521,3516 L4523,3513 L4525,3510 L4524,3507 L4520,3503 L4518,3506 L4519,3511 L4519,3514 L4521,3516 L4522,3521 L4522,3524 L4517,3524 L4513,3523 L4508,3523 L4502,3521 L4492,3520 L4487,3525 L4484,3526 L4479,3524 L4477,3521 L4471,3515 L4463,3513 L4461,3510 L4460,3507 L4458,3500 L4455,3491 L4454,3484 L4452,3476 L4453,3462 L4459,3460 L4461,3452 L4462,3446 L4460,3443 L4456,3443 L4455,3440 L4454,3436 L4456,3432 L4460,3428 L4463,3426 L4473,3421 L4477,3421 L4480,3419 L4484,3420 L4488,3419 L4493,3416 L4496,3410 L4500,3406 L4503,3404 L4506,3405 L4510,3403 L4514,3397 L4515,3394 L4516,3391 L4517,3388 L4522,3383 L4530,3376 L4535,3372 L4542,3365 L4557,3355 L4560,3352 L4561,3348 L4559,3345 L4558,3348 L4555,3351 L4550,3354 L4546,3355 L4539,3360 L4536,3363 L4533,3365 L4530,3367 L4523,3375 L4513,3386 L4505,3393 L4503,3396 L4493,3407 L4479,3411 L4479,3406 L4480,3403 L4477,3400 L4475,3403 L4472,3405 L4469,3408 L4461,3414 L4458,3419 L4454,3425 L4454,3436 L4452,3441 L4449,3445 L4448,3448 L4445,3449 L4440,3449 L4438,3451 L4436,3454 L4432,3457 L4428,3457 L4422,3460 L4418,3464 L4411,3468 L4407,3470 L4403,3473 L4400,3473 L4396,3476 L4392,3479 L4390,3482 L4387,3483 L4384,3483 L4378,3480 L4377,3477 L4376,3474 L4376,3471 L4376,3465 L4376,3461 L4371,3458 L4367,3459 L4363,3459 L4359,3460 L4356,3460 L4346,3460 L4342,3459 L4339,3458 L4334,3454 L4328,3449 L4323,3448 L4318,3446 L4314,3445 L4301,3442 L4298,3441 L4294,3439 L4291,3437 L4282,3429 L4278,3424 L4274,3419 L4273,3416 L4278,3410 L4281,3407 L4284,3405 L4288,3403 L4295,3396 L4299,3392 L4308,3386 L4310,3378 L4307,3366 L4307,3362 L4304,3361 L4303,3357 L4303,3354 L4302,3351 L4299,3349 L4296,3343 L4303,3339 L4310,3337 L4317,3330 L4323,3329 L4331,3327 L4346,3318 L4347,3310 L4355,3310 L4363,3305 L4373,3298 L4379,3295 L4386,3296 L4384,3303 L4380,3310 L4382,3321 L4382,3329 L4388,3334 L4396,3334 L4395,3328 L4402,3321 L4407,3315 L4406,3309 L4416,3304 L4422,3303 L4425,3297 L4427,3289 L4433,3292 L4437,3298 L4447,3306 L4453,3311 L4461,3318 L4465,3324 L4471,3321 L4472,3315 L4478,3305 L4485,3301 L4495,3301 L4495,3308 L4497,3314 L4510,3307 L4519,3311 L4528,3317 L4533,3324 L4545,3332 L4555,3338 L4565,3342 L4573,3346 L4579,3352 L4586,3347 L4583,3340 L4582,3333 L4588,3332 L4594,3334 L4600,3329 L4607,3325 L4616,3323 L4625,3321 L4631,3328 L4642,3335 L4654,3335 L4658,3328 L4665,3321 L4671,3321 L4678,3318 L4673,3310 L4676,3300 L4680,3291 L4673,3285 L4669,3279 L4667,3272 L4668,3262 L4675,3261 L4674,3251 L4673,3241 L4676,3234 L4682,3234 L4696,3232 L4707,3230 L4714,3228 L4713,3221 L4721,3210 L4727,3207 L4731,3200 L4739,3207 L4743,3215 L4749,3216 L4755,3224 L4763,3230 L4764,3223 L4765,3214 L4766,3207 L4762,3201 L4761,3195 L4759,3186 L4761,3178 L4770,3179 L4777,3189 L4785,3185 L4792,3186 L4799,3184 L4801,3178 L4801,3171 L4813,3169 L4820,3163 L4834,3149 L4847,3145 L4858,3137 L4864,3133 L4870,3131 L4886,3131 L4897,3138z M5242,3377 L5245,3376 L5247,3379 L5248,3384 L5245,3387 L5242,3386 L5239,3386 L5238,3382 L5239,3378 L5242,3377z M5339,3441 L5339,3444 L5335,3442 L5331,3440 L5336,3440 L5339,3441z M5298,3297 L5295,3300 L5295,3296 L5295,3293 L5299,3294 L5298,3297z " class="polyStyle" id="450602" style="fill:#fbe6ef"/>
<polygon points="3560,1859 3564,1866 3568,1870 3569,1873 3570,1876 3568,1885 3571,1897 3576,1919 3577,1925 3579,1931 3584,1937 3591,1936 3599,1933 3605,1938 3606,1945 3615,1962 3620,1969 3639,1980 3649,1986 3660,1988 3676,1994 3687,2004 3691,2010 3697,2013 3704,2018 3717,2026 3723,2028 3729,2027 3746,2014 3760,2010 3767,2013 3771,2019 3778,2033 3784,2037 3790,2042 3799,2053 3803,2072 3799,2078 3793,2086 3787,2092 3784,2099 3789,2105 3794,2113 3798,2120 3804,2130 3806,2139 3802,2145 3801,2155 3813,2154 3819,2151 3827,2149 3833,2146 3840,2148 3847,2147 3854,2148 3860,2154 3865,2160 3867,2166 3863,2172 3861,2178 3857,2186 3852,2201 3854,2207 3860,2217 3861,2224 3861,2230 3867,2235 3875,2234 3881,2235 3883,2245 3883,2252 3887,2258 3901,2265 3908,2271 3920,2274 3929,2277 3940,2280 3947,2280 3962,2278 3969,2278 3974,2284 3982,2293 3994,2297 4000,2300 4010,2306 4014,2312 4016,2324 4019,2335 4031,2343 4040,2345 4048,2350 4057,2339 4059,2331 4062,2325 4071,2322 4079,2328 4085,2331 4094,2322 4098,2314 4102,2303 4105,2292 4123,2293 4140,2297 4148,2300 4161,2304 4167,2307 4173,2308 4179,2307 4192,2301 4201,2291 4209,2283 4210,2277 4215,2266 4221,2265 4227,2264 4250,2267 4268,2265 4286,2257 4292,2256 4298,2255 4319,2254 4338,2252 4345,2253 4351,2259 4355,2265 4363,2268 4369,2269 4375,2270 4384,2266 4390,2264 4396,2260 4403,2255 4412,2253 4437,2261 4459,2270 4469,2268 4489,2252 4496,2237 4501,2231 4508,2227 4519,2221 4526,2218 4534,2220 4540,2221 4545,2227 4550,2235 4555,2241 4561,2244 4567,2246 4575,2253 4589,2273 4595,2278 4605,2288 4611,2292 4616,2298 4623,2300 4629,2302 4641,2302 4648,2301 4655,2299 4661,2300 4667,2301 4674,2301 4680,2302 4686,2298 4690,2292 4694,2286 4705,2281 4713,2280 4719,2280 4729,2270 4733,2264 4739,2261 4747,2259 4755,2261 4759,2267 4760,2273 4767,2284 4774,2289 4780,2290 4783,2296 4780,2304 4778,2310 4784,2312 4790,2311 4796,2311 4802,2312 4807,2306 4811,2300 4819,2294 4825,2296 4831,2298 4843,2308 4846,2314 4844,2320 4851,2326 4857,2328 4857,2334 4853,2340 4863,2348 4872,2356 4880,2369 4889,2379 4907,2399 4911,2406 4914,2413 4918,2419 4923,2426 4923,2441 4920,2447 4916,2453 4912,2459 4913,2466 4914,2472 4916,2479 4913,2485 4909,2491 4903,2498 4898,2505 4892,2506 4888,2510 4883,2513 4880,2516 4879,2521 4874,2527 4870,2525 4864,2524 4866,2521 4862,2519 4853,2519 4849,2518 4841,2518 4836,2516 4831,2516 4828,2512 4823,2509 4821,2513 4820,2516 4818,2522 4815,2530 4810,2540 4809,2544 4807,2549 4798,2559 4793,2566 4784,2576 4778,2584 4773,2592 4760,2602 4758,2609 4757,2619 4748,2631 4742,2637 4735,2642 4726,2647 4718,2645 4710,2647 4705,2650 4708,2655 4712,2660 4716,2664 4719,2666 4723,2665 4719,2661 4721,2655 4725,2652 4731,2649 4738,2650 4743,2648 4751,2641 4756,2635 4758,2628 4760,2621 4763,2616 4766,2606 4775,2599 4787,2586 4794,2580 4798,2577 4806,2567 4811,2557 4815,2551 4816,2542 4821,2534 4822,2531 4824,2528 4828,2525 4832,2525 4836,2524 4841,2525 4845,2526 4849,2527 4853,2528 4857,2529 4862,2531 4871,2538 4873,2541 4873,2545 4878,2549 4880,2553 4881,2558 4883,2562 4882,2566 4880,2569 4879,2572 4880,2576 4884,2578 4888,2580 4891,2583 4893,2587 4894,2591 4895,2596 4901,2606 4901,2609 4904,2617 4901,2618 4898,2621 4894,2624 4891,2628 4887,2632 4885,2635 4882,2639 4879,2643 4876,2649 4876,2652 4876,2656 4875,2660 4874,2664 4873,2670 4870,2673 4867,2674 4863,2678 4866,2680 4868,2684 4868,2690 4869,2693 4864,2697 4863,2701 4861,2704 4856,2708 4853,2707 4848,2707 4843,2707 4838,2708 4834,2709 4832,2712 4835,2712 4839,2712 4844,2711 4847,2710 4850,2710 4853,2710 4856,2708 4864,2709 4867,2707 4866,2703 4868,2700 4870,2697 4869,2693 4871,2689 4871,2685 4872,2682 4871,2676 4876,2672 4878,2668 4879,2663 4880,2658 4882,2655 4884,2652 4885,2648 4884,2645 4885,2642 4889,2637 4894,2633 4898,2631 4900,2628 4904,2625 4908,2625 4912,2627 4916,2628 4919,2629 4922,2631 4925,2633 4935,2638 4940,2647 4948,2657 4948,2661 4948,2667 4948,2671 4951,2674 4954,2677 4949,2683 4954,2688 4961,2693 4969,2700 4977,2709 4982,2712 4984,2718 4984,2724 4987,2727 4992,2726 4994,2721 4998,2722 5003,2720 5007,2717 5007,2712 5012,2711 5021,2715 5026,2721 5028,2725 5030,2731 5033,2731 5039,2731 5042,2740 5047,2746 5051,2749 5056,2754 5057,2762 5065,2768 5067,2773 5073,2780 5070,2786 5063,2787 5056,2782 5052,2787 5055,2788 5067,2794 5071,2791 5074,2789 5078,2790 5083,2790 5086,2786 5093,2786 5097,2792 5104,2796 5107,2803 5114,2809 5115,2819 5115,2827 5115,2833 5109,2836 5104,2840 5101,2840 5101,2845 5103,2850 5108,2851 5113,2859 5114,2863 5118,2869 5122,2874 5129,2880 5136,2889 5137,2893 5136,2896 5135,2904 5132,2910 5131,2915 5127,2921 5129,2924 5135,2928 5140,2930 5140,2955 5145,2960 5149,2963 5149,2969 5153,2973 5160,2974 5165,2975 5170,2979 5170,2982 5169,2986 5169,2994 5167,2998 5162,2999 5158,3002 5156,3010 5158,3017 5160,3021 5156,3024 5153,3028 5150,3030 5152,3035 5148,3039 5148,3043 5134,3048 5132,3052 5125,3056 5115,3060 5109,3073 5105,3089 5107,3105 5104,3107 5102,3110 5103,3114 5103,3117 5106,3119 5107,3122 5106,3125 5105,3128 5105,3131 5105,3135 5104,3138 5104,3143 5105,3149 5106,3155 5105,3158 5108,3162 5107,3165 5108,3169 5109,3174 5109,3182 5110,3185 5109,3190 5106,3193 5104,3196 5104,3199 5104,3204 5102,3207 5101,3210 5098,3209 5093,3202 5086,3205 5083,3204 5071,3201 5063,3199 5059,3196 5056,3194 5053,3192 5050,3190 5046,3187 5044,3184 5042,3183 5040,3180 5039,3177 5034,3176 5030,3176 5028,3174 5027,3170 5023,3169 5022,3173 5022,3176 5020,3180 5018,3179 5009,3175 5000,3172 4989,3167 4975,3169 4968,3173 4961,3175 4952,3172 4939,3170 4935,3160 4923,3157 4912,3159 4897,3150 4897,3138 4886,3131 4870,3131 4864,3133 4858,3137 4847,3145 4834,3149 4820,3163 4813,3169 4801,3171 4801,3178 4799,3184 4792,3186 4785,3185 4777,3189 4770,3179 4761,3178 4759,3186 4761,3195 4762,3201 4766,3207 4765,3214 4764,3223 4763,3230 4755,3224 4749,3216 4743,3215 4739,3207 4731,3200 4727,3207 4721,3210 4713,3221 4714,3228 4707,3230 4696,3232 4682,3234 4676,3234 4673,3241 4674,3251 4675,3261 4668,3262 4667,3272 4669,3279 4673,3285 4680,3291 4676,3300 4673,3310 4678,3318 4671,3321 4665,3321 4658,3328 4654,3335 4642,3335 4631,3328 4625,3321 4616,3323 4607,3325 4600,3329 4594,3334 4588,3332 4582,3333 4583,3340 4586,3347 4579,3352 4573,3346 4565,3342 4555,3338 4545,3332 4533,3324 4528,3317 4519,3311 4510,3307 4497,3314 4495,3308 4495,3301 4485,3301 4478,3305 4472,3315 4471,3321 4465,3324 4461,3318 4453,3311 4447,3306 4437,3298 4433,3292 4427,3289 4425,3297 4422,3303 4416,3304 4406,3309 4407,3315 4402,3321 4395,3328 4396,3334 4388,3334 4382,3329 4382,3321 4380,3310 4384,3303 4386,3296 4379,3295 4373,3298 4363,3305 4355,3310 4347,3310 4346,3318 4331,3327 4323,3329 4317,3330 4310,3337 4303,3339 4296,3343 4293,3341 4291,3338 4289,3332 4289,3328 4291,3324 4290,3320 4291,3317 4293,3312 4288,3312 4280,3312 4275,3313 4273,3317 4269,3323 4267,3326 4264,3328 4263,3331 4260,3335 4256,3338 4254,3347 4250,3349 4247,3362 4246,3365 4243,3368 4239,3380 4238,3383 4235,3391 4235,3397 4238,3400 4241,3404 4242,3407 4253,3410 4258,3414 4260,3417 4264,3422 4263,3425 4264,3429 4268,3429 4268,3432 4271,3437 4272,3440 4272,3443 4275,3447 4277,3450 4277,3453 4277,3458 4281,3460 4281,3464 4280,3469 4278,3475 4275,3477 4272,3478 4273,3481 4276,3483 4276,3486 4275,3491 4272,3492 4271,3498 4273,3505 4275,3508 4277,3510 4277,3516 4277,3519 4277,3522 4276,3525 4270,3525 4267,3524 4264,3524 4264,3530 4263,3533 4268,3535 4267,3543 4261,3544 4253,3544 4250,3544 4247,3544 4243,3542 4245,3534 4244,3530 4244,3527 4250,3524 4250,3521 4247,3520 4247,3517 4249,3510 4250,3505 4250,3502 4247,3502 4241,3501 4237,3500 4234,3499 4229,3496 4225,3492 4228,3488 4230,3485 4231,3482 4232,3479 4233,3475 4235,3472 4236,3469 4238,3466 4241,3463 4244,3463 4248,3462 4248,3459 4249,3455 4250,3452 4253,3447 4249,3443 4245,3440 4241,3443 4238,3447 4234,3453 4228,3461 4226,3464 4221,3470 4216,3476 4215,3479 4213,3482 4209,3485 4205,3489 4198,3491 4196,3494 4188,3495 4184,3494 4180,3493 4177,3491 4175,3488 4175,3483 4176,3480 4176,3477 4179,3474 4178,3470 4172,3476 4172,3480 4169,3479 4164,3476 4160,3476 4156,3476 4153,3477 4148,3478 4140,3473 4141,3476 4145,3480 4149,3482 4153,3483 4156,3483 4161,3485 4165,3485 4168,3486 4166,3490 4165,3493 4166,3496 4169,3498 4172,3500 4176,3500 4181,3498 4188,3499 4188,3503 4187,3507 4184,3516 4180,3521 4179,3525 4176,3530 4173,3531 4170,3531 4170,3534 4168,3537 4167,3542 4169,3547 4172,3554 4175,3563 4175,3581 4175,3587 4175,3590 4174,3594 4174,3598 4174,3604 4176,3610 4181,3614 4184,3619 4186,3622 4189,3624 4194,3627 4194,3631 4197,3633 4200,3632 4203,3630 4206,3629 4209,3629 4212,3630 4216,3632 4218,3635 4221,3638 4219,3653 4218,3658 4216,3662 4216,3666 4223,3671 4227,3675 4229,3679 4228,3682 4226,3686 4223,3687 4222,3690 4221,3695 4220,3699 4218,3704 4218,3707 4217,3710 4214,3710 4211,3710 4207,3708 4204,3708 4201,3711 4201,3716 4201,3720 4200,3723 4199,3726 4195,3729 4192,3729 4189,3732 4186,3735 4183,3740 4177,3745 4177,3748 4175,3752 4174,3756 4173,3759 4173,3766 4177,3771 4182,3772 4185,3772 4193,3775 4196,3776 4198,3779 4197,3784 4194,3788 4191,3791 4188,3794 4185,3796 4181,3797 4177,3799 4173,3798 4170,3796 4167,3792 4163,3787 4157,3786 4153,3787 4153,3790 4154,3793 4153,3797 4153,3800 4151,3803 4149,3806 4146,3809 4143,3811 4140,3810 4136,3813 4136,3816 4137,3820 4137,3823 4135,3827 4132,3829 4129,3830 4124,3837 4120,3846 4118,3854 4117,3859 4116,3862 4116,3865 4114,3869 4114,3873 4109,3879 4106,3880 4103,3881 4102,3884 4101,3888 4103,3893 4107,3894 4114,3898 4117,3899 4120,3900 4123,3902 4127,3904 4138,3904 4142,3902 4147,3896 4150,3893 4149,3889 4146,3888 4143,3886 4141,3883 4141,3880 4142,3877 4145,3878 4150,3881 4152,3885 4152,3889 4155,3891 4158,3892 4162,3893 4166,3896 4170,3897 4172,3900 4174,3905 4179,3907 4183,3907 4189,3906 4198,3905 4200,3899 4198,3896 4195,3894 4193,3891 4193,3888 4202,3875 4208,3874 4213,3878 4217,3883 4218,3886 4219,3891 4219,3897 4217,3902 4215,3905 4212,3908 4208,3914 4207,3917 4208,3927 4210,3931 4214,3934 4215,3938 4211,3942 4208,3944 4205,3946 4203,3949 4201,3952 4194,3956 4190,3962 4187,3965 4183,3970 4180,3972 4177,3968 4174,3967 4173,3975 4173,3979 4174,3983 4177,3987 4176,3991 4173,3995 4170,3999 4167,4001 4164,4004 4162,4007 4154,4006 4150,4007 4147,4008 4143,4010 4139,4017 4139,4021 4137,4025 4134,4032 4130,4035 4129,4041 4127,4045 4124,4045 4116,4048 4112,4049 4112,4055 4110,4059 4104,4064 4094,4072 4091,4073 4088,4075 4080,4079 4076,4085 4078,4090 4079,4093 4073,4097 4066,4100 4062,4102 4057,4106 4054,4107 4051,4114 4053,4119 4054,4122 4055,4125 4065,4148 4066,4151 4068,4154 4070,4159 4068,4166 4067,4169 4067,4173 4064,4176 4060,4178 4056,4178 4053,4179 4050,4179 4042,4179 4035,4179 4029,4179 4023,4179 4015,4178 4008,4179 4003,4179 3997,4177 3991,4176 3984,4179 3981,4181 3978,4183 3973,4185 3970,4187 3965,4190 3961,4192 3959,4195 3955,4197 3951,4198 3948,4199 3939,4201 3934,4204 3931,4207 3931,4210 3928,4216 3921,4218 3915,4215 3911,4212 3905,4212 3899,4215 3896,4218 3895,4221 3894,4224 3893,4228 3894,4231 3898,4231 3902,4234 3906,4237 3905,4241 3902,4246 3898,4249 3894,4253 3892,4256 3892,4259 3894,4262 3892,4266 3886,4269 3879,4272 3876,4273 3873,4273 3866,4270 3860,4270 3855,4273 3846,4275 3839,4276 3835,4279 3830,4283 3827,4286 3823,4291 3818,4297 3813,4302 3804,4304 3801,4307 3796,4311 3794,4314 3790,4317 3784,4318 3780,4320 3777,4321 3773,4321 3766,4324 3762,4326 3760,4330 3757,4335 3758,4338 3761,4339 3762,4342 3759,4345 3756,4347 3753,4346 3751,4343 3748,4342 3745,4341 3741,4341 3737,4347 3737,4351 3734,4351 3728,4351 3723,4353 3716,4359 3711,4362 3701,4371 3694,4376 3687,4375 3686,4371 3684,4368 3680,4368 3676,4367 3671,4362 3665,4355 3660,4352 3657,4351 3652,4349 3647,4346 3649,4341 3649,4338 3652,4338 3654,4335 3653,4329 3651,4324 3654,4322 3659,4321 3662,4323 3661,4326 3660,4330 3663,4330 3669,4330 3676,4327 3680,4323 3685,4320 3688,4315 3687,4310 3691,4308 3695,4306 3700,4302 3702,4299 3706,4297 3714,4297 3719,4293 3727,4293 3730,4293 3733,4292 3734,4288 3738,4285 3739,4282 3733,4284 3728,4287 3724,4288 3716,4289 3715,4282 3719,4283 3724,4282 3728,4283 3731,4279 3735,4276 3736,4273 3732,4275 3728,4274 3725,4272 3723,4269 3725,4266 3729,4267 3733,4268 3738,4264 3732,4262 3729,4262 3732,4255 3743,4248 3747,4247 3752,4246 3750,4239 3746,4237 3740,4235 3735,4234 3732,4234 3732,4231 3740,4226 3746,4221 3750,4219 3760,4219 3760,4223 3757,4225 3755,4228 3753,4232 3754,4235 3755,4238 3759,4238 3759,4230 3760,4227 3764,4222 3767,4221 3770,4217 3770,4214 3766,4212 3762,4213 3758,4214 3754,4214 3752,4210 3756,4207 3760,4204 3769,4198 3772,4197 3775,4197 3779,4199 3778,4202 3777,4205 3785,4204 3798,4189 3800,4184 3802,4179 3806,4175 3813,4170 3812,4161 3815,4159 3818,4157 3822,4156 3824,4151 3826,4147 3828,4143 3824,4144 3822,4148 3818,4150 3815,4152 3811,4154 3807,4155 3805,4150 3806,4147 3810,4143 3815,4138 3821,4129 3827,4124 3830,4120 3835,4116 3837,4113 3840,4110 3844,4109 3846,4107 3842,4106 3838,4106 3834,4106 3829,4109 3825,4107 3826,4104 3829,4099 3832,4092 3836,4085 3844,4079 3851,4073 3854,4068 3851,4067 3847,4067 3841,4068 3842,4065 3844,4062 3844,4058 3847,4055 3854,4053 3857,4053 3861,4055 3866,4049 3869,4045 3873,4039 3876,4037 3878,4033 3881,4029 3884,4029 3887,4029 3887,4026 3884,4025 3879,4025 3878,4022 3878,4018 3884,4012 3893,4004 3896,4000 3899,4004 3901,4010 3904,4007 3907,4004 3907,3999 3905,3996 3903,3993 3900,3991 3898,3986 3889,3983 3886,3978 3879,3974 3880,3968 3886,3968 3896,3967 3900,3966 3904,3971 3910,3972 3915,3971 3917,3974 3916,3978 3918,3981 3922,3979 3925,3975 3925,3971 3923,3965 3920,3963 3919,3958 3921,3953 3925,3947 3932,3951 3936,3952 3941,3942 3942,3937 3936,3936 3938,3933 3941,3929 3947,3924 3949,3920 3945,3918 3941,3921 3938,3917 3942,3916 3942,3913 3942,3910 3948,3911 3949,3908 3949,3905 3949,3901 3952,3897 3954,3893 3956,3890 3960,3887 3963,3882 3964,3879 3961,3880 3957,3883 3952,3885 3953,3889 3951,3892 3948,3896 3945,3899 3941,3898 3939,3895 3935,3892 3932,3891 3929,3889 3926,3890 3929,3894 3928,3897 3925,3897 3921,3900 3919,3903 3916,3902 3914,3898 3911,3898 3906,3899 3906,3902 3907,3909 3909,3913 3905,3912 3900,3914 3900,3918 3898,3924 3897,3927 3892,3930 3870,3930 3860,3929 3857,3929 3856,3926 3854,3921 3851,3914 3847,3909 3844,3902 3842,3890 3842,3886 3843,3882 3844,3877 3843,3874 3843,3865 3844,3855 3845,3851 3848,3849 3852,3851 3855,3844 3851,3842 3846,3842 3841,3842 3844,3839 3847,3836 3848,3833 3851,3821 3851,3814 3846,3812 3842,3810 3838,3807 3833,3802 3831,3798 3830,3794 3830,3791 3829,3786 3823,3781 3814,3778 3807,3777 3801,3778 3797,3779 3789,3779 3785,3780 3782,3782 3776,3785 3772,3786 3768,3787 3763,3787 3758,3788 3757,3791 3753,3790 3753,3787 3749,3787 3739,3790 3733,3792 3729,3797 3725,3797 3723,3793 3720,3793 3715,3792 3712,3790 3711,3787 3708,3786 3705,3786 3706,3783 3711,3781 3715,3775 3718,3775 3722,3776 3725,3774 3722,3770 3718,3770 3720,3765 3725,3762 3732,3759 3735,3755 3735,3750 3737,3747 3738,3743 3735,3742 3729,3745 3725,3748 3722,3748 3719,3748 3711,3747 3708,3748 3709,3751 3714,3752 3717,3752 3721,3754 3719,3757 3713,3763 3708,3767 3704,3770 3701,3772 3698,3771 3694,3769 3688,3762 3684,3757 3676,3748 3675,3750 3672,3746 3668,3741 3665,3737 3661,3731 3658,3730 3655,3730 3650,3730 3646,3728 3648,3722 3653,3717 3658,3712 3662,3709 3665,3702 3663,3693 3662,3687 3657,3683 3652,3680 3650,3675 3650,3669 3649,3666 3651,3653 3651,3648 3649,3644 3645,3640 3642,3635 3640,3624 3634,3614 3631,3607 3631,3599 3630,3591 3626,3576 3624,3569 3624,3562 3627,3552 3634,3539 3637,3533 3646,3528 3650,3524 3659,3503 3666,3484 3659,3471 3661,3462 3679,3444 3682,3436 3675,3428 3666,3425 3666,3414 3656,3408 3655,3397 3654,3389 3653,3379 3654,3369 3651,3363 3647,3355 3643,3345 3638,3341 3633,3340 3629,3340 3623,3340 3607,3343 3597,3334 3595,3328 3593,3317 3588,3304 3580,3296 3570,3286 3562,3287 3540,3296 3517,3308 3506,3314 3493,3316 3485,3317 3465,3321 3443,3321 3431,3328 3425,3342 3421,3344 3412,3348 3401,3352 3392,3355 3387,3360 3380,3363 3352,3381 3337,3390 3326,3391 3309,3398 3299,3406 3290,3410 3280,3414 3267,3416 3262,3416 3251,3416 3241,3419 3240,3427 3241,3430 3244,3439 3253,3455 3257,3460 3265,3475 3268,3486 3272,3494 3271,3499 3267,3510 3262,3517 3262,3530 3270,3537 3275,3547 3267,3559 3251,3563 3230,3574 3217,3578 3211,3585 3203,3593 3189,3596 3178,3602 3163,3605 3156,3609 3150,3613 3139,3605 3137,3598 3137,3593 3133,3589 3126,3579 3121,3579 3115,3579 3115,3576 3113,3572 3108,3563 3099,3557 3082,3551 3078,3549 3071,3548 3066,3542 3065,3538 3065,3534 3066,3529 3065,3523 3062,3516 3058,3514 3057,3511 3054,3507 3049,3507 3040,3510 3030,3514 3027,3517 3021,3521 3008,3528 2998,3534 2992,3538 2988,3542 2984,3549 2984,3554 2981,3559 2979,3563 2974,3565 2969,3565 2966,3564 2965,3561 2965,3556 2962,3552 2959,3550 2954,3550 2951,3549 2941,3550 2930,3550 2926,3545 2920,3541 2916,3537 2913,3534 2912,3531 2908,3519 2898,3511 2889,3506 2882,3501 2879,3500 2874,3498 2871,3495 2866,3493 2861,3490 2854,3491 2833,3492 2815,3489 2802,3485 2793,3473 2787,3454 2780,3448 2775,3443 2768,3434 2764,3431 2761,3427 2758,3425 2749,3414 2742,3397 2737,3391 2732,3386 2729,3384 2698,3374 2683,3373 2675,3368 2672,3362 2666,3351 2659,3348 2642,3345 2633,3342 2630,3337 2625,3334 2621,3328 2616,3321 2609,3317 2598,3284 2588,3286 2573,3284 2567,3283 2563,3279 2560,3273 2558,3268 2553,3266 2544,3266 2532,3266 2522,3269 2511,3276 2499,3279 2489,3276 2464,3264 2416,3260 2388,3261 2353,3257 2330,3260 2320,3259 2305,3253 2268,3253 2259,3255 2253,3259 2249,3264 2246,3270 2242,3288 2243,3307 2247,3312 2255,3318 2265,3323 2274,3330 2279,3338 2281,3352 2277,3367 2269,3377 2248,3391 2230,3399 2196,3410 2185,3417 2178,3425 2180,3430 2189,3438 2192,3447 2194,3459 2193,3471 2190,3482 2184,3493 2177,3498 2162,3502 2155,3507 2151,3519 2149,3534 2142,3553 2141,3565 2144,3574 2153,3582 2158,3593 2156,3598 2140,3621 2136,3640 2131,3652 2108,3684 2098,3693 2094,3695 2087,3696 2064,3696 2051,3697 1997,3717 1994,3713 1992,3704 1992,3696 1991,3688 1991,3680 1984,3673 1964,3664 1958,3656 1953,3639 1947,3633 1943,3630 1936,3627 1919,3628 1910,3625 1906,3619 1903,3609 1898,3604 1895,3602 1887,3602 1880,3605 1867,3616 1854,3625 1839,3630 1835,3632 1828,3639 1826,3644 1826,3652 1824,3663 1817,3669 1811,3670 1801,3667 1791,3659 1786,3657 1776,3657 1768,3653 1752,3627 1745,3619 1730,3611 1723,3608 1712,3608 1702,3603 1695,3598 1690,3594 1679,3589 1667,3588 1663,3589 1659,3592 1655,3592 1646,3592 1637,3586 1629,3587 1624,3588 1610,3603 1603,3606 1593,3608 1568,3607 1557,3607 1546,3605 1529,3601 1518,3601 1512,3602 1506,3605 1501,3629 1494,3637 1474,3641 1465,3644 1451,3658 1448,3659 1429,3663 1410,3665 1397,3667 1387,3667 1376,3666 1359,3669 1351,3669 1335,3672 1319,3678 1310,3684 1289,3704 1275,3714 1268,3718 1256,3723 1232,3730 1213,3737 1202,3741 1194,3748 1188,3757 1177,3766 1158,3774 1138,3784 1116,3792 1097,3798 1077,3800 1067,3803 1051,3811 1037,3823 1026,3827 1003,3830 988,3834 985,3835 966,3843 938,3854 912,3853 879,3836 851,3847 818,3846 781,3841 740,3843 712,3836 671,3826 636,3830 602,3849 554,3849 547,3844 530,3831 520,3825 516,3820 510,3804 503,3795 495,3792 484,3792 463,3802 449,3811 438,3815 421,3816 394,3811 381,3811 377,3815 377,3827 373,3835 358,3858 351,3872 340,3886 332,3900 323,3923 319,3929 314,3930 304,3926 296,3921 285,3913 279,3913 272,3914 260,3920 250,3924 232,3926 218,3927 207,3922 195,3911 180,3908 167,3906 147,3895 128,3891 108,3898 93,3901 88,3901 78,3901 57,3896 49,3886 43,3883 33,3881 27,3881 54,3861 60,3860 66,3853 72,3845 75,3826 81,3810 82,3797 69,3774 59,3761 37,3749 31,3744 25,3732 23,3720 22,3692 22,3666 22,3658 23,3655 18,3650 7,3622 0,3583 22,3579 41,3574 60,3565 82,3558 106,3542 109,3534 108,3526 106,3518 100,3511 89,3503 68,3493 64,3486 64,3483 66,3479 73,3475 80,3472 89,3471 102,3472 106,3471 110,3469 122,3457 137,3447 152,3437 162,3414 174,3392 191,3372 220,3344 230,3335 251,3319 273,3305 282,3293 281,3278 285,3266 296,3259 323,3252 352,3245 363,3239 366,3233 405,3238 413,3235 420,3228 434,3218 442,3215 454,3218 461,3219 502,3210 540,3194 574,3172 588,3162 609,3152 625,3152 637,3149 647,3143 681,3117 702,3102 721,3090 738,3084 754,3083 771,3092 802,3121 810,3132 820,3140 830,3145 841,3146 879,3137 897,3130 917,3124 927,3117 946,3100 963,3098 975,3095 980,3091 989,3089 997,3091 1016,3097 1021,3097 1066,3086 1106,3076 1115,3074 1133,3065 1144,3052 1161,3019 1158,3011 1141,3000 1128,2986 1120,2973 1119,2963 1121,2955 1124,2948 1130,2939 1137,2924 1161,2914 1165,2912 1171,2904 1175,2895 1188,2887 1202,2886 1220,2897 1225,2897 1239,2889 1248,2889 1261,2896 1268,2893 1274,2883 1287,2876 1303,2862 1312,2858 1327,2859 1351,2854 1361,2848 1369,2834 1375,2811 1384,2800 1396,2793 1410,2790 1429,2790 1444,2793 1482,2806 1498,2813 1509,2812 1524,2804 1540,2801 1549,2801 1561,2797 1572,2790 1576,2783 1584,2780 1587,2780 1603,2790 1609,2794 1617,2806 1621,2808 1637,2811 1653,2809 1667,2811 1682,2818 1687,2821 1693,2822 1699,2819 1700,2814 1700,2807 1701,2803 1705,2800 1708,2799 1720,2803 1730,2808 1741,2807 1751,2802 1768,2796 1799,2790 1816,2782 1829,2773 1844,2759 1854,2746 1881,2731 1904,2723 1914,2717 1926,2715 1951,2722 1980,2725 1989,2723 2008,2708 2021,2704 2036,2705 2048,2703 2052,2695 2053,2675 2051,2659 2044,2632 2043,2619 2034,2604 2022,2573 2020,2545 2024,2538 2028,2537 2041,2544 2057,2547 2071,2546 2089,2536 2106,2520 2126,2506 2160,2490 2192,2481 2230,2472 2254,2465 2271,2464 2293,2453 2321,2453 2351,2455 2370,2460 2385,2462 2402,2457 2422,2455 2433,2448 2438,2436 2445,2411 2451,2405 2460,2404 2470,2404 2489,2407 2499,2408 2510,2402 2526,2396 2558,2391 2568,2392 2579,2396 2598,2407 2616,2394 2630,2389 2640,2390 2647,2389 2666,2376 2676,2376 2679,2378 2684,2378 2687,2376 2689,2368 2692,2363 2695,2351 2699,2347 2704,2346 2729,2348 2747,2343 2764,2333 2791,2333 2811,2334 2815,2336 2820,2335 2830,2328 2853,2313 2858,2312 2866,2310 2880,2308 2891,2305 2900,2300 2931,2273 2954,2245 2984,2218 2997,2213 3006,2212 3014,2216 3019,2216 3023,2210 3020,2190 3023,2183 3060,2170 3075,2163 3085,2152 3094,2148 3104,2148 3116,2141 3130,2124 3140,2116 3152,2108 3165,2089 3172,2084 3183,2080 3189,2074 3195,2062 3204,2052 3217,2050 3224,2052 3233,2050 3239,2047 3247,2046 3252,2045 3264,2042 3272,2038 3288,2040 3303,2034 3313,2024 3319,2014 3333,1998 3331,1986 3330,1980 3334,1975 3342,1967 3346,1959 3349,1954 3354,1949 3366,1942 3382,1929 3392,1922 3400,1924 3407,1928 3427,1935 3429,1947 3433,1963 3455,1960 3461,1963 3472,1973 3477,1972 3492,1957 3499,1951 3502,1946 3504,1936 3509,1933 3513,1930 3516,1925 3515,1915 3515,1904 3515,1901 3527,1876 3532,1872 3532,1866 3536,1864 3539,1862 3542,1858 3546,1853 3549,1853 3558,1854 " class="polyStyle" id="450603" style="fill:#f6f67b"/>
<path d="" class="polyStyle" id="440404" style="fill:#ee8b94"/>
<path d="" class="polyStyle" id="440403" style="fill:#f6f67b"/>
<path d="" class="polyStyle" id="441502" style="fill:#f6f67b"/>
<path d="" class="polyStyle" id="431002" style="fill:#d4ecb2"/>
<path d="" class="polyStyle" id="500107" style="fill:#fbe6ef"/>
<path d="" class="polyStyle" id="430611" style="fill:#d4ecb2"/>
<path d="" class="polyStyle" id="511304" style="fill:#fbe6ef"/>
<path d="" class="polyStyle" id="340711" style="fill:#ee8b94"/>
<path d="" class="polyStyle" id="320118" style="fill:#f6f67b"/>
<path d="" class="polyStyle" id="510704" style="fill:#f6f67b"/>
<path d="" class="polyStyle" id="411502" style="fill:#ee8b94"/>
<path d="" class="polyStyle" id="320302" style="fill:#d4ecb2"/>
<path d="" class="polyStyle" id="140311" style="fill:#ee8b94"/>
<path d="" class="polyStyle" id="610802" style="fill:#ee8b94"/>
<path d="" class="polyStyle" id="120116" style="fill:#f6f67b"/>
<path d="" class="polyStyle" id="130303" style="fill:#fbe6ef"/>
<path d="" class="polyStyle" id="140211" style="fill:#f6f67b"/>
<path d="" class="polyStyle" id="150207" style="fill:#fbe6ef"/>
<path d="" class="polyStyle" id="211403" style="fill:#f6f67b"/>
<path d="" class="polyStyle" id="150802" style="fill:#f8c67d"/>
<path d="" class="polyStyle" id="210112" style="fill:#ee8b94"/>
<path d="" class="polyStyle" id="230406" style="fill:#d4ecb2"/>
<path d="" class="polyStyle" id="110113" style="fill:#fbe6ef"/>
<path d="" class="polyStyle" id="341702" style="fill:#fbe6ef"/>
<path d="" class="polyStyle" id="420303" style="fill:#ee8b94"/>
<path d="" class="polyStyle" id="340702" style="fill:#d4ecb2"/>
<path d="" class="polyStyle" id="421002" style="fill:#f6f67b"/>
<path d="" class="polyStyle" id="420117" style="fill:#f6f67b"/>
<polygon points="4325,3514 4326,3511 4327,3508 4329,3506 4332,3504 4333,3501 4334,3499 4333,3496 4332,3493 4330,3490 4329,3486 4327,3483 4325,3481 4323,3479 4320,3477 4317,3475 4315,3473 4312,3476 4311,3479 4311,3482 4309,3486 4305,3485 4305,3488 4304,3490 4302,3493 4301,3496 4301,3501 4302,3506 4303,3508 4305,3512 4307,3515 4310,3516 4314,3517 4312,3517 4309,3517 4306,3515 4304,3513 4300,3505 4300,3503 4300,3499 4301,3496 4302,3492 4304,3488 4305,3486 4304,3483 4304,3480 4304,3477 4305,3474 4309,3473 4312,3472 4309,3469 4306,3468 4303,3466 4300,3464 4298,3462 4293,3459 4295,3459 4298,3461 4301,3462 4304,3465 4306,3466 4309,3469 4312,3470 4315,3473 4321,3477 4323,3479 4326,3480 4329,3483 4330,3486 4331,3489 4333,3492 4333,3494 4335,3497 4336,3501 4339,3503 4340,3505 4343,3512 4344,3515 4345,3519 4346,3522 4346,3530 4345,3533 4344,3536 4341,3539 4339,3543 4337,3545 4336,3548 4336,3552 4333,3553 4330,3555 4323,3555 4323,3551 4325,3549 4326,3545 4327,3542 4330,3540 4330,3537 4328,3535 4325,3533 4323,3530 4321,3523 4320,3521 4319,3518 4317,3517 4319,3517 4322,3516 " class="polyStyle" id="450603" style="fill:#f6f67b"/>
<polygon points="4546,3561 4549,3565 4548,3569 4544,3569 4541,3568 4537,3566 4533,3566 4526,3569 4521,3571 4517,3573 4510,3575 4505,3578 4504,3580 4500,3583 4502,3586 4504,3589 4508,3586 4512,3584 4516,3586 4522,3589 4525,3590 4528,3591 4530,3593 4533,3598 4531,3601 4529,3604 4526,3609 4524,3612 4521,3614 4516,3616 4513,3618 4510,3621 4509,3624 4508,3626 4508,3631 4498,3641 4498,3645 4495,3648 4491,3652 4487,3655 4485,3656 4480,3654 4474,3655 4472,3654 4466,3655 4462,3656 4457,3653 4454,3652 4449,3652 4446,3655 4443,3658 4442,3662 4439,3664 4438,3667 4435,3673 4431,3678 4428,3683 4431,3686 4432,3690 4432,3694 4416,3714 4413,3717 4413,3724 4410,3726 4408,3728 4410,3732 4406,3736 4404,3739 4402,3742 4399,3743 4399,3747 4405,3751 4409,3752 4412,3749 4415,3748 4419,3747 4422,3750 4422,3753 4419,3755 4418,3760 4411,3755 4405,3752 4401,3750 4398,3747 4394,3742 4389,3742 4387,3745 4384,3748 4382,3754 4380,3759 4379,3766 4377,3769 4374,3772 4372,3775 4370,3779 4368,3781 4367,3784 4365,3786 4369,3790 4374,3793 4377,3796 4381,3790 4387,3782 4390,3783 4392,3788 4394,3790 4398,3793 4403,3796 4409,3800 4412,3802 4414,3805 4417,3808 4422,3812 4429,3816 4436,3819 4427,3834 4423,3841 4402,3869 4399,3865 4395,3860 4392,3856 4391,3850 4391,3845 4388,3841 4399,3824 4364,3804 4363,3813 4364,3824 4355,3845 4331,3834 4310,3843 4303,3849 4302,3855 4300,3860 4299,3869 4295,3882 4251,3895 4260,3919 4253,3921 4242,3896 4241,3893 4235,3878 4229,3862 4232,3854 4234,3846 4239,3827 4241,3821 4243,3814 4245,3800 4248,3797 4252,3792 4255,3785 4269,3774 4294,3773 4301,3772 4306,3771 4313,3742 4319,3703 4324,3675 4327,3664 4326,3657 4328,3653 4330,3648 4333,3642 4339,3635 4343,3627 4345,3620 4348,3614 4354,3613 4359,3610 4363,3605 4366,3599 4370,3592 4372,3586 4380,3573 4383,3569 4383,3563 4379,3558 4374,3552 4375,3546 4377,3542 4377,3538 4375,3535 4370,3528 4372,3522 4376,3517 4379,3512 4384,3511 4387,3510 4389,3507 4393,3505 4397,3505 4400,3503 4402,3500 4405,3495 4408,3490 4413,3490 4416,3490 4420,3486 4422,3482 4423,3479 4426,3475 4429,3473 4430,3469 4434,3470 4436,3473 4438,3477 4437,3480 4438,3484 4441,3488 4447,3491 4450,3492 4451,3495 4452,3498 4454,3503 4454,3508 4455,3511 4457,3515 4460,3518 4464,3520 4467,3520 4473,3521 4474,3527 4476,3531 4480,3535 4481,3538 4478,3542 4480,3547 4485,3549 4488,3549 4491,3552 4488,3557 4485,3561 4484,3564 4491,3566 4491,3562 4496,3559 4503,3559 4509,3556 4516,3559 4519,3559 4523,3558 4527,3557 4530,3557 4533,3557 4535,3557 4539,3556 4542,3556 4544,3559 " class="polyStyle" id="450602" style="fill:#fbe6ef"/>
<polygon points="4270,3410 4268,3410 4265,3408 4264,3405 4263,3391 4263,3388 4263,3385 4263,3382 4263,3379 4264,3376 4264,3373 4264,3369 4265,3366 4266,3363 4266,3361 4267,3358 4267,3354 4268,3352 4269,3347 4270,3343 4274,3337 4275,3335 4280,3328 4282,3326 4284,3323 4288,3324 4288,3328 4289,3337 4290,3340 4291,3343 4295,3349 4298,3352 4300,3354 4302,3358 4303,3361 4305,3363 4306,3367 4306,3374 4306,3379 4305,3381 4304,3384 4301,3386 4298,3389 4294,3393 4290,3398 4287,3400 4284,3405 4280,3407 4274,3410 4272,3410 " class="polyStyle" id="450602" style="fill:#fbe6ef"/>
<polygon points="4354,3476 4351,3474 4350,3471 4350,3468 4350,3466 4351,3463 4353,3461 4356,3461 4359,3460 4360,3462 4359,3465 4361,3468 4362,3471 4361,3473 4358,3476 4355,3477 " class="polyStyle" id="450602" style="fill:#fbe6ef"/>
<polygon points="4504,3542 4504,3539 4501,3538 4498,3538 4495,3538 4492,3538 4490,3536 4489,3533 4491,3531 4489,3528 4489,3525 4491,3523 4494,3523 4498,3525 4500,3527 4503,3528 4505,3528 4509,3527 4511,3527 4512,3529 4511,3532 4509,3535 4507,3539 4505,3542 " class="polyStyle" id="450602" style="fill:#fbe6ef"/>
<polygon points="4738,3493 4736,3491 4735,3488 4735,3485 4734,3483 4737,3483 4739,3484 4742,3484 4745,3483 4745,3486 4748,3485 4751,3485 4753,3486 4756,3489 4754,3491 4751,3490 4751,3493 4748,3492 4742,3492 4739,3494 " class="polyStyle" id="450602" style="fill:#fbe6ef"/>
<polygon points="5248,3259 5247,3257 5249,3254 5254,3249 5258,3246 5261,3247 5261,3252 5260,3254 5256,3257 5251,3259 5249,3259 " class="polyStyle" id="450602" style="fill:#fbe6ef"/>
<polygon points="5487,3438 5485,3435 5483,3432 5482,3429 5480,3424 5477,3423 5474,3421 5474,3418 5473,3416 5472,3413 5472,3410 5474,3411 5477,3414 5477,3417 5480,3420 5482,3425 5485,3428 5486,3430 5487,3433 5488,3435 5488,3438 " class="polyStyle" id="450602" style="fill:#fbe6ef"/>
<polygon points="5443,3358 5442,3355 5440,3353 5438,3352 5435,3354 5434,3356 5432,3358 5429,3358 5426,3357 5423,3355 5422,3353 5421,3350 5420,3348 5420,3345 5419,3342 5419,3339 5420,3336 5421,3334 5424,3335 5426,3338 5429,3340 5431,3340 5434,3338 5433,3335 5435,3335 5438,3336 5440,3338 5441,3342 5443,3342 5446,3343 5449,3344 5451,3347 5452,3349 5452,3352 5452,3355 5450,3357 5448,3359 5445,3359 " class="polyStyle" id="450602" style="fill:#fbe6ef"/>
<polygon points="5456,3342 5455,3340 5457,3337 5455,3334 5453,3333 5450,3331 5446,3329 5447,3326 5449,3324 5452,3324 5453,3327 5456,3331 5459,3334 5462,3337 5460,3340 5458,3343 " class="polyStyle" id="450602" style="fill:#fbe6ef"/>
<polygon points="5174,3937 5172,3937 5169,3936 5166,3935 5163,3935 5161,3932 5160,3929 5163,3929 5166,3929 5169,3930 5171,3930 5174,3930 5177,3931 5180,3932 5180,3935 5177,3937 " class="polyStyle" id="450602" style="fill:#fbe6ef"/>
<path d="" class="polyStyle" id="440904" style="fill:#f8c67d"/>
<path d="" class="polyStyle" id="460205" style="fill:#ee8b94"/>
<path d="" class="polyStyle" id="460202" style="fill:#f6f67b"/>
<path d="" class="polyStyle" id="460203" style="fill:#fbe6ef"/>
<path d="" class="polyStyle" id="420304" style="fill:#f6f67b"/>
<path d="" class="polyStyle" id="445302" style="fill:#ee8b94"/>
<path d="" class="polyStyle" id="410202" style="fill:#d4ecb2"/>
<path d="" class="polyStyle" id="440800" style="fill:#f6f67b"/>
<path d="" class="polyStyle" id="440900" style="fill:#ee8b94"/>
<path d="" class="polyStyle" id="340800" style="fill:#ee8b94"/>
<path d="" class="polyStyle" id="460200" style="fill:#f6f67b"/>
<path d="" class="polyStyle" id="460000" style="fill:#ee8b94"/>
<path d="" class="polyStyle" id="450500" style="fill:#ee8b94"/>
<path d="" class="polyStyle" id="450600" style="fill:#ee8b94"/>
<path d="" class="polyStyle" id="440400" style="fill:#f6f67b"/>
<path d="" class="polyStyle" id="441700" style="fill:#f6f67b"/>
<path d="" class="polyStyle" id="441500" style="fill:#f6f67b"/>
<path d="" class="polyStyle" id="350600" style="fill:#ee8b94"/>
<path d="" class="polyStyle" id="710000" style="fill:#f6f67b"/>
<path d="" class="polyStyle" id="510400" style="fill:#f6f67b"/>
<path d="" class="polyStyle" id="522600" style="fill:#fbe6ef"/>
<path d="" class="polyStyle" id="520500" style="fill:#ee8b94"/>
<path d="" class="polyStyle" id="431200" style="fill:#f6f67b"/>
<path d="" class="polyStyle" id="430600" style="fill:#f6f67b"/>
<path d="" class="polyStyle" id="511400" style="fill:#d4ecb2"/>
<path d="" class="polyStyle" id="421000" style="fill:#ee8b94"/>
<path d="" class="polyStyle" id="341700" style="fill:#f6f67b"/>
<path d="" class="polyStyle" id="420500" style="fill:#f6f67b"/>
<path d="" class="polyStyle" id="511300" style="fill:#f6f67b"/>
<path d="" class="polyStyle" id="420900" style="fill:#f6f67b"/>
<path d="" class="polyStyle" id="511700" style="fill:#ee8b94"/>
<path d="" class="polyStyle" id="420600" style="fill:#d4ecb2"/>
<path d="" class="polyStyle" id="411500" style="fill:#fbe6ef"/>
<path d="" class="polyStyle" id="510800" style="fill:#ee8b94"/>
<path d="" class="polyStyle" id="420300" style="fill:#fbe6ef"/>
<path d="" class="polyStyle" id="611000" style="fill:#ee8b94"/>
<path d="" class="polyStyle" id="620800" style="fill:#fbe6ef"/>
<path d="" class="polyStyle" id="370200" style="fill:#ee8b94"/>
<path d="" class="polyStyle" id="371000" style="fill:#f6f67b"/>
<path d="" class="polyStyle" id="370600" style="fill:#fbe6ef"/>
<path d="" class="polyStyle" id="120000" style="fill:#f6f67b"/>
<path d="" class="polyStyle" id="130200" style="fill:#ee8b94"/>
<path d="" class="polyStyle" id="130300" style="fill:#f6f67b"/>
<path d="" class="polyStyle" id="652900" style="fill:#fbe6ef"/>
<path d="" class="polyStyle" id="150500" style="fill:#d4ecb2"/>
<path d="" class="polyStyle" id="" style="fill:#d4ecb2"/>
<path d="" class="polyStyle" id="350500" style="fill:#fbe6ef"/>
<path d="" class="polyStyle" id="440400" style="fill:#f6f67b"/>
<path d="" class="polyStyle" id="421100" style="fill:#d4ecb2"/>
<path d="" class="polyStyle" id="420100" style="fill:#fbe6ef"/>
<path d="" class="polyStyle" id="532500" style="fill:#fbe6ef"/>
<path d="" class="polyStyle" id="654200" style="fill:#fbe6ef"/>
<path d="" class="polyStyle" id="210700" style="fill:#d4ecb2"/>
<path d="" class="polyStyle" id="522300" style="fill:#fbe6ef"/>
<path d="" class="polyStyle" id="" style="fill:#ee8b94"/>
<path d="" class="polyStyle" id="440400" style="fill:#f6f67b"/>
<path d="" class="polyStyle" id="620000" style="fill:#f6f67b"/>
<path d="" class="polyStyle" id="430000" style="fill:#fbe6ef"/>
<path d="" class="polyStyle" id="420000" style="fill:#ee8b94"/>
<path d="" class="polyStyle" id="410000" style="fill:#f6f67b"/>
<path d="" class="polyStyle" id="350000" style="fill:#fbe6ef"/>
<path d="" class="polyStyle" id="520000" style="fill:#f6f67b"/>
<path d="" class="polyStyle" id="" style="fill:#ee8b94"/>
</svg>
