<?xml version="1.0" encoding="UTF-8"?>
<!DOCTYPE svg PUBLIC "-//W3C//DTD SVG 1.1 Tiny//EN" "http://www.w3.org/Graphics/SVG/1.1/DTD/svg11-tiny.dtd">
<svg version="1.1" xmlns="http://www.w3.org/2000/svg" xmlns:xlink="http://www.w3.org/1999/xlink" width="100%" height="100%" viewBox="0,0,7280,6945">
<title>SVG</title>
<desc>Poligon Test</desc>
<style id="style_css_sheet" type="text/css">
.polyStyle{fill: #cccccc;stroke-width:0;fill-rule:evenodd;}
</style>
<circle cx="4349" cy="3256" r="200" stroke="black" stroke-width="1" fill="red" id="450881" name="桂平市"/>
<circle cx="5928" cy="2514" r="200" stroke="black" stroke-width="1" fill="red" id="450821" name="平南县"/>
<circle cx="1894" cy="4648" r="200" stroke="black" stroke-width="1" fill="red" id="450802" name="港北区"/>
<circle cx="2014" cy="4847" r="200" stroke="black" stroke-width="1" fill="red" id="450803" name="港南区"/>
<circle cx="1060" cy="4524" r="200" stroke="black" stroke-width="1" fill="red" id="450804"position="444" name="覃塘区"/>
<path d="" class="polyStyle" id="" style="fill:#ee8b94"/>
<path d="" class="polyStyle" id="623022" style="fill:#fbe6ef"/>
<path d="" class="polyStyle" id="211421" style="fill:#f6f67b"/>
<path d="" class="polyStyle" id="532524" style="fill:#ee8b94"/>
<path d="" class="polyStyle" id="440825" style="fill:#f6f67b"/>
<path d="" class="polyStyle" id="441721" style="fill:#f6f67b"/>
<path d="" class="polyStyle" id="450521" style="fill:#f6f67b"/>
<path d="" class="polyStyle" id="450123" style="fill:#fbe6ef"/>
<polygon points="5927,11 5929,19 5932,23 5937,24 5942,22 5949,21 5956,22 5959,26 5963,38 5964,43 5953,61 5952,73 5952,81 5953,86 5957,89 5968,95 5973,97 5979,111 5979,123 5980,136 5977,151 5973,161 5968,169 5960,183 5957,195 5951,202 5947,209 5945,216 5949,224 5948,227 5946,234 5945,240 5945,245 5942,252 5942,258 5945,272 5951,287 5952,293 5953,298 5951,309 5949,318 5951,325 5954,332 5955,338 5955,341 5951,348 5949,353 5947,357 5949,370 5952,382 5954,394 5956,404 5958,411 5959,417 5954,421 5947,424 5940,427 5935,428 5923,441 5913,454 5908,461 5904,467 5903,478 5900,484 5892,489 5887,492 5870,501 5854,504 5844,511 5836,519 5831,526 5826,531 5819,538 5804,544 5790,549 5780,549 5769,554 5759,558 5750,566 5746,575 5749,595 5757,616 5758,625 5760,634 5760,644 5760,653 5760,662 5760,671 5757,679 5754,685 5748,693 5744,700 5746,716 5751,731 5748,747 5745,760 5744,773 5746,787 5753,799 5760,808 5769,812 5772,818 5776,823 5780,823 5784,819 5785,814 5788,809 5788,805 5796,803 5800,798 5805,796 5808,797 5813,799 5818,797 5823,794 5831,796 5832,800 5831,807 5832,813 5828,817 5831,824 5840,828 5856,830 5862,824 5872,822 5880,822 5884,819 5890,815 5895,815 5901,817 5904,819 5911,817 5915,814 5920,812 5924,814 5929,817 5933,826 5945,835 5953,843 5962,851 5966,852 5973,850 5979,851 5983,855 5986,855 5990,854 5991,850 5996,849 6007,849 6011,849 6014,852 6014,858 6014,869 6011,880 6017,883 6021,886 6022,889 6019,896 6013,900 6010,901 6004,902 5999,905 5997,908 5997,914 6004,915 6007,915 6013,917 6016,921 6020,924 6023,924 6027,922 6028,919 6033,917 6038,916 6042,917 6047,915 6056,913 6060,908 6067,907 6070,907 6075,909 6086,907 6102,902 6108,900 6113,896 6120,895 6129,895 6135,895 6143,895 6148,896 6153,894 6164,890 6167,888 6173,888 6178,885 6184,888 6184,891 6187,898 6195,912 6197,915 6198,925 6200,929 6204,930 6211,931 6219,931 6222,933 6222,937 6225,945 6228,952 6232,964 6237,974 6240,979 6243,985 6244,995 6243,1005 6246,1008 6253,1010 6260,1010 6267,1010 6268,1003 6273,990 6276,980 6281,970 6281,964 6283,961 6287,958 6291,956 6295,957 6300,959 6306,962 6311,963 6317,963 6316,967 6316,972 6315,979 6318,983 6324,984 6328,982 6332,975 6337,966 6338,960 6340,955 6343,953 6351,950 6355,952 6359,957 6365,958 6373,959 6375,963 6376,966 6377,971 6379,975 6390,982 6396,986 6398,990 6402,996 6396,1001 6393,1006 6392,1010 6390,1016 6390,1020 6390,1024 6387,1028 6378,1035 6376,1042 6376,1048 6370,1061 6367,1065 6366,1069 6366,1072 6369,1080 6372,1093 6373,1101 6378,1107 6385,1110 6393,1111 6404,1114 6408,1116 6409,1120 6417,1128 6417,1134 6421,1140 6425,1144 6428,1147 6433,1148 6438,1153 6437,1156 6436,1161 6434,1166 6434,1170 6437,1173 6438,1177 6442,1180 6446,1183 6452,1183 6457,1185 6460,1185 6461,1189 6460,1193 6466,1203 6469,1204 6475,1206 6480,1207 6483,1203 6488,1203 6497,1198 6504,1193 6511,1190 6515,1190 6521,1192 6523,1200 6525,1206 6528,1210 6528,1217 6530,1223 6533,1226 6541,1225 6547,1222 6553,1221 6556,1220 6563,1217 6569,1218 6573,1222 6579,1224 6582,1220 6585,1217 6596,1220 6603,1215 6606,1214 6613,1210 6618,1206 6617,1201 6623,1200 6626,1202 6632,1202 6638,1200 6643,1195 6652,1189 6655,1184 6656,1179 6655,1174 6657,1171 6660,1168 6665,1164 6673,1161 6687,1151 6690,1147 6690,1144 6687,1144 6679,1144 6678,1140 6681,1137 6683,1133 6687,1130 6691,1127 6690,1122 6690,1117 6689,1113 6691,1110 6697,1108 6700,1109 6702,1103 6707,1100 6720,1098 6726,1100 6735,1101 6737,1104 6739,1107 6743,1112 6746,1114 6758,1119 6762,1122 6765,1126 6768,1131 6769,1137 6771,1145 6773,1152 6780,1161 6789,1167 6805,1176 6822,1183 6828,1186 6832,1190 6833,1207 6831,1224 6831,1235 6835,1240 6835,1246 6835,1252 6832,1256 6829,1262 6829,1265 6831,1271 6832,1276 6836,1277 6842,1274 6852,1270 6860,1270 6866,1269 6873,1269 6879,1269 6882,1272 6881,1275 6881,1281 6877,1284 6873,1286 6870,1289 6869,1296 6866,1303 6866,1308 6874,1311 6877,1314 6876,1321 6873,1327 6868,1329 6861,1338 6851,1344 6841,1348 6831,1352 6828,1353 6824,1362 6821,1362 6816,1361 6811,1360 6806,1361 6801,1361 6800,1364 6792,1374 6792,1382 6792,1394 6792,1402 6793,1407 6791,1416 6789,1426 6787,1432 6786,1441 6785,1448 6779,1453 6768,1462 6761,1465 6758,1465 6751,1464 6743,1467 6741,1472 6740,1480 6741,1486 6743,1492 6744,1496 6744,1500 6743,1510 6742,1516 6739,1517 6735,1520 6730,1523 6724,1530 6720,1536 6716,1542 6716,1549 6716,1555 6715,1561 6715,1569 6714,1580 6714,1590 6709,1600 6706,1606 6707,1617 6706,1623 6710,1627 6715,1628 6716,1633 6721,1638 6723,1646 6724,1652 6724,1655 6721,1662 6724,1680 6724,1691 6724,1696 6728,1700 6732,1698 6737,1694 6744,1693 6747,1694 6752,1696 6763,1699 6767,1695 6771,1691 6776,1690 6780,1687 6783,1683 6786,1675 6789,1673 6794,1675 6798,1675 6804,1674 6809,1672 6815,1675 6823,1677 6823,1686 6820,1693 6821,1699 6823,1704 6824,1717 6823,1723 6824,1727 6821,1730 6815,1737 6813,1747 6810,1752 6811,1757 6813,1761 6812,1765 6810,1769 6807,1776 6804,1779 6798,1783 6796,1791 6793,1794 6791,1797 6793,1803 6800,1808 6806,1814 6813,1816 6820,1821 6819,1825 6818,1827 6820,1834 6817,1842 6811,1850 6806,1848 6799,1845 6792,1846 6784,1850 6777,1853 6778,1857 6777,1860 6773,1862 6768,1863 6764,1868 6759,1870 6754,1869 6747,1870 6739,1872 6731,1872 6722,1871 6714,1869 6707,1868 6702,1872 6695,1872 6690,1873 6686,1876 6681,1886 6680,1896 6682,1907 6683,1913 6678,1917 6676,1923 6676,1926 6677,1931 6679,1934 6684,1936 6687,1939 6687,1948 6687,1953 6690,1955 6696,1959 6700,1962 6702,1968 6704,1972 6704,1978 6711,1982 6715,1979 6722,1980 6726,1983 6733,1988 6736,1991 6742,1994 6746,1997 6750,2001 6753,2007 6756,2008 6761,2008 6766,2007 6773,2003 6776,2003 6780,2002 6785,2001 6790,2006 6793,2009 6810,2021 6816,2024 6823,2027 6829,2028 6836,2029 6844,2033 6848,2038 6848,2046 6847,2054 6846,2060 6848,2065 6861,2069 6876,2072 6883,2075 6889,2079 6892,2085 6892,2095 6895,2099 6899,2102 6905,2106 6907,2110 6904,2120 6906,2127 6909,2138 6905,2141 6904,2145 6907,2148 6910,2155 6913,2156 6918,2158 6918,2164 6914,2167 6910,2172 6903,2175 6903,2180 6905,2185 6907,2192 6904,2199 6902,2204 6899,2210 6895,2210 6890,2211 6886,2214 6883,2221 6881,2224 6879,2229 6874,2232 6865,2238 6861,2243 6859,2248 6858,2253 6855,2257 6858,2261 6862,2265 6873,2265 6881,2263 6892,2263 6901,2261 6918,2261 6941,2260 6950,2264 6952,2270 6957,2283 6963,2296 6976,2308 6977,2311 6986,2317 6991,2324 6990,2330 6991,2336 6991,2344 6989,2350 6988,2353 6985,2356 6977,2362 6971,2366 6968,2370 6969,2374 6972,2380 6973,2386 6969,2392 6970,2398 6974,2403 6980,2402 6986,2405 6994,2407 7005,2407 7010,2410 7016,2412 7023,2414 7033,2419 7038,2426 7047,2437 7057,2455 7064,2472 7062,2478 7059,2483 7042,2489 7035,2493 7030,2498 7027,2510 7028,2515 7031,2527 7037,2539 7045,2552 7051,2562 7056,2565 7059,2571 7058,2577 7057,2583 7054,2594 7054,2603 7054,2624 7055,2661 7056,2697 7056,2708 7061,2721 7062,2728 7060,2733 7056,2736 7054,2742 7050,2753 7050,2759 7052,2765 7055,2768 7061,2768 7072,2775 7087,2783 7094,2791 7100,2801 7106,2807 7108,2814 7108,2821 7107,2826 7104,2830 7101,2836 7098,2844 7097,2857 7097,2865 7093,2871 7092,2874 7087,2877 7083,2881 7084,2885 7093,2885 7098,2887 7102,2893 7107,2901 7110,2909 7109,2914 7104,2914 7095,2924 7085,2931 7082,2936 7076,2937 7072,2936 7067,2934 7061,2935 7057,2936 7056,2940 7056,2947 7054,2955 7055,2968 7043,2979 7035,2980 7027,2980 7012,2977 7000,2968 6996,2959 6995,2953 6992,2948 6989,2940 6987,2934 6984,2930 6978,2929 6972,2929 6967,2929 6963,2930 6951,2934 6943,2941 6932,2949 6918,2959 6899,2974 6878,2990 6876,2996 6876,3003 6875,3010 6876,3017 6883,3030 6885,3034 6887,3045 6887,3054 6883,3060 6876,3067 6875,3072 6873,3079 6869,3085 6865,3089 6864,3093 6867,3097 6869,3102 6869,3106 6877,3108 6883,3110 6886,3114 6884,3119 6881,3124 6880,3131 6880,3138 6883,3144 6882,3151 6880,3155 6878,3162 6875,3171 6869,3173 6867,3177 6864,3181 6857,3183 6852,3186 6851,3190 6846,3192 6840,3190 6837,3191 6835,3195 6838,3201 6842,3204 6846,3211 6845,3218 6843,3228 6843,3232 6838,3236 6837,3241 6835,3249 6832,3255 6832,3261 6839,3265 6845,3267 6848,3273 6852,3278 6854,3282 6852,3287 6846,3287 6840,3287 6832,3289 6825,3290 6816,3293 6815,3297 6820,3303 6828,3304 6834,3303 6838,3301 6848,3300 6855,3302 6856,3307 6859,3312 6862,3322 6867,3328 6873,3332 6875,3336 6871,3341 6864,3342 6861,3339 6852,3338 6849,3339 6845,3345 6844,3351 6837,3355 6828,3356 6821,3357 6807,3360 6794,3362 6789,3364 6787,3372 6790,3383 6792,3391 6792,3396 6795,3397 6798,3394 6802,3401 6802,3407 6805,3412 6811,3410 6814,3407 6820,3403 6829,3398 6834,3397 6845,3396 6853,3393 6862,3390 6874,3394 6875,3398 6877,3403 6881,3409 6888,3414 6893,3419 6897,3422 6896,3426 6892,3429 6892,3432 6898,3434 6909,3444 6910,3451 6911,3459 6906,3472 6900,3479 6895,3480 6887,3483 6880,3484 6876,3486 6876,3491 6879,3499 6884,3504 6893,3508 6899,3511 6900,3514 6905,3525 6911,3531 6916,3529 6920,3529 6922,3534 6924,3542 6918,3547 6917,3552 6913,3558 6910,3565 6908,3570 6912,3578 6914,3584 6916,3591 6917,3594 6922,3595 6930,3595 6934,3592 6938,3589 6943,3589 6948,3592 6953,3595 6962,3595 6968,3592 6980,3590 6990,3585 6998,3577 7009,3569 7016,3568 7028,3565 7042,3565 7047,3569 7050,3573 7049,3577 7053,3582 7055,3585 7066,3590 7073,3594 7081,3596 7087,3595 7094,3595 7100,3600 7106,3607 7111,3612 7117,3614 7122,3619 7122,3624 7124,3632 7131,3637 7141,3639 7150,3640 7154,3637 7159,3634 7167,3638 7169,3643 7176,3648 7182,3652 7189,3656 7197,3657 7198,3661 7200,3665 7204,3666 7211,3666 7215,3665 7218,3666 7226,3669 7234,3667 7241,3668 7245,3671 7249,3675 7256,3679 7259,3679 7265,3678 7269,3679 7274,3680 7279,3682 7280,3686 7276,3690 7269,3699 7261,3707 7253,3715 7244,3724 7243,3727 7245,3730 7249,3737 7251,3746 7253,3756 7256,3761 7263,3764 7268,3772 7274,3781 7279,3789 7276,3796 7276,3802 7278,3808 7277,3813 7274,3823 7273,3828 7274,3834 7275,3840 7275,3848 7273,3856 7273,3861 7272,3867 7271,3872 7267,3877 7260,3878 7256,3873 7251,3868 7245,3866 7238,3866 7230,3860 7226,3852 7221,3853 7218,3859 7220,3864 7222,3868 7224,3872 7223,3876 7214,3883 7211,3885 7208,3890 7211,3899 7213,3905 7211,3909 7207,3921 7207,3930 7208,3940 7211,3948 7217,3955 7228,3968 7227,3972 7223,3972 7218,3972 7211,3972 7204,3974 7198,3978 7196,3981 7195,3986 7181,3988 7176,3988 7169,3991 7159,3991 7151,3990 7146,3986 7141,3984 7137,3985 7136,3990 7137,3993 7138,4000 7138,4012 7132,4017 7126,4014 7118,4020 7114,4022 7107,4021 7104,4022 7102,4025 7104,4028 7102,4033 7098,4033 7093,4034 7082,4036 7077,4038 7077,4041 7080,4046 7082,4050 7086,4051 7089,4052 7088,4058 7083,4058 7074,4060 7068,4065 7061,4067 7057,4071 7048,4070 7043,4065 7035,4063 7032,4065 7028,4069 7021,4070 7014,4074 7012,4079 7014,4082 7010,4088 7007,4094 7001,4099 6994,4103 6993,4107 6988,4114 6988,4117 6991,4121 6992,4125 6988,4126 6982,4124 6977,4123 6972,4128 6966,4134 6955,4138 6948,4142 6938,4152 6934,4163 6929,4170 6920,4178 6912,4174 6911,4168 6913,4162 6911,4157 6906,4154 6901,4146 6896,4135 6891,4127 6887,4121 6885,4117 6879,4114 6874,4115 6871,4115 6867,4115 6866,4111 6866,4104 6864,4101 6860,4093 6853,4087 6853,4079 6848,4078 6844,4078 6839,4078 6832,4077 6831,4080 6829,4087 6824,4091 6819,4095 6816,4098 6809,4099 6800,4099 6799,4105 6798,4110 6794,4115 6790,4122 6784,4127 6781,4134 6777,4141 6777,4148 6776,4154 6769,4161 6761,4169 6754,4171 6745,4172 6737,4177 6730,4182 6727,4183 6719,4183 6713,4187 6701,4190 6697,4194 6694,4201 6690,4207 6687,4214 6686,4217 6682,4219 6683,4223 6686,4227 6689,4231 6687,4241 6687,4247 6688,4252 6688,4261 6686,4268 6690,4274 6693,4283 6693,4288 6693,4298 6696,4302 6700,4309 6702,4315 6700,4321 6700,4327 6703,4334 6707,4339 6715,4341 6724,4343 6730,4349 6730,4355 6725,4357 6720,4359 6710,4360 6712,4364 6717,4366 6726,4369 6730,4369 6735,4371 6738,4373 6740,4381 6741,4387 6744,4393 6749,4398 6752,4405 6756,4407 6761,4411 6761,4421 6766,4427 6771,4432 6769,4436 6763,4436 6756,4434 6754,4431 6749,4430 6742,4431 6735,4428 6729,4428 6725,4430 6727,4433 6731,4437 6740,4447 6744,4453 6740,4457 6740,4462 6747,4468 6752,4479 6750,4486 6752,4496 6745,4501 6738,4506 6736,4510 6735,4517 6726,4523 6726,4527 6735,4534 6741,4545 6742,4554 6740,4565 6732,4568 6726,4566 6717,4553 6711,4556 6707,4560 6709,4565 6711,4569 6717,4575 6714,4580 6711,4578 6705,4575 6698,4571 6693,4572 6686,4576 6682,4575 6678,4571 6672,4571 6671,4575 6667,4580 6661,4587 6653,4590 6649,4595 6649,4600 6651,4608 6650,4614 6646,4621 6641,4626 6635,4628 6629,4627 6618,4626 6611,4626 6608,4632 6607,4640 6600,4643 6595,4640 6589,4636 6585,4628 6580,4621 6571,4613 6568,4614 6564,4619 6564,4624 6570,4631 6579,4638 6583,4645 6580,4648 6576,4652 6570,4654 6566,4657 6562,4659 6564,4663 6568,4665 6574,4673 6579,4676 6581,4679 6588,4687 6589,4692 6588,4699 6587,4705 6583,4706 6579,4704 6574,4704 6562,4715 6558,4715 6555,4713 6548,4709 6539,4703 6532,4701 6525,4701 6518,4703 6516,4708 6521,4716 6522,4722 6519,4726 6513,4725 6507,4723 6504,4722 6497,4722 6489,4724 6483,4729 6483,4737 6479,4743 6474,4747 6465,4752 6465,4756 6472,4762 6475,4766 6476,4769 6475,4773 6473,4777 6472,4780 6476,4782 6481,4783 6486,4783 6491,4786 6492,4793 6491,4802 6487,4805 6482,4809 6477,4815 6475,4818 6473,4821 6476,4825 6472,4828 6462,4831 6453,4833 6447,4839 6443,4849 6438,4848 6434,4848 6432,4851 6431,4858 6426,4863 6424,4867 6428,4871 6431,4874 6432,4878 6432,4883 6428,4883 6424,4883 6414,4877 6408,4872 6403,4873 6404,4876 6405,4883 6403,4888 6400,4889 6391,4888 6380,4887 6371,4884 6358,4884 6348,4880 6334,4879 6321,4875 6315,4869 6307,4861 6301,4860 6295,4863 6290,4863 6287,4861 6285,4856 6282,4854 6276,4853 6271,4852 6264,4850 6263,4855 6265,4859 6262,4864 6259,4875 6255,4883 6258,4890 6256,4895 6252,4900 6245,4901 6238,4903 6232,4903 6224,4905 6219,4908 6212,4908 6204,4909 6203,4905 6200,4900 6193,4900 6177,4898 6172,4901 6172,4910 6170,4916 6169,4927 6166,4928 6161,4930 6160,4935 6157,4939 6152,4939 6143,4940 6130,4942 6121,4951 6125,4954 6127,4960 6125,4964 6119,4963 6117,4959 6110,4964 6113,4971 6110,4972 6105,4975 6101,4977 6099,4982 6102,4986 6106,4987 6111,4989 6111,4995 6107,4996 6104,4995 6097,4997 6096,5000 6098,5005 6102,5008 6100,5013 6093,5012 6088,5010 6085,5003 6082,4998 6075,4997 6071,4998 6065,4996 6057,4998 6052,5000 6046,5002 6038,5001 6038,4996 6040,4992 6040,4984 6035,4981 6028,4979 6025,4976 6025,4973 6026,4968 6035,4965 6037,4962 6037,4957 6034,4954 6031,4952 6030,4947 6035,4945 6040,4947 6045,4949 6054,4948 6058,4945 6056,4940 6053,4934 6052,4931 6046,4927 6038,4928 6031,4929 6024,4926 6008,4912 6007,4907 6004,4901 5997,4903 5981,4903 5966,4902 5957,4904 5949,4906 5944,4908 5940,4910 5936,4922 5930,4927 5928,4934 5924,4941 5919,4948 5918,4954 5907,4957 5896,4958 5887,4960 5879,4962 5874,4969 5869,4973 5852,4976 5849,4976 5841,4981 5832,4983 5827,4987 5820,4989 5814,4986 5806,4986 5798,4986 5793,4990 5789,4995 5783,5000 5780,5002 5774,5000 5774,4995 5774,4990 5770,4985 5766,4983 5763,4983 5762,4986 5758,4990 5749,4991 5746,4991 5739,4994 5734,4992 5728,4990 5724,4984 5720,4983 5715,4979 5709,4972 5701,4972 5694,4972 5692,4977 5687,4984 5675,4987 5666,4990 5663,4986 5659,4982 5657,4977 5657,4971 5658,4964 5657,4955 5655,4945 5651,4937 5645,4932 5639,4931 5635,4930 5636,4919 5635,4912 5631,4907 5631,4903 5634,4899 5632,4890 5636,4879 5645,4869 5655,4862 5659,4854 5661,4849 5666,4847 5669,4847 5674,4845 5680,4843 5684,4841 5684,4835 5684,4827 5685,4824 5689,4821 5693,4821 5696,4818 5701,4814 5701,4809 5703,4804 5706,4800 5710,4800 5711,4794 5710,4790 5712,4786 5717,4782 5717,4778 5709,4770 5705,4763 5705,4758 5707,4755 5711,4751 5713,4747 5719,4742 5718,4737 5716,4731 5715,4725 5709,4720 5704,4719 5699,4721 5694,4720 5689,4715 5684,4710 5683,4705 5680,4703 5680,4700 5682,4697 5681,4691 5680,4685 5676,4685 5673,4690 5669,4688 5664,4684 5659,4684 5656,4684 5654,4681 5652,4677 5656,4668 5661,4658 5663,4652 5667,4649 5669,4645 5660,4641 5656,4641 5653,4643 5646,4647 5640,4648 5638,4645 5631,4645 5626,4642 5621,4635 5616,4632 5608,4634 5605,4636 5597,4637 5593,4631 5588,4630 5583,4633 5576,4635 5572,4637 5566,4637 5564,4633 5561,4631 5549,4629 5545,4631 5541,4636 5537,4635 5535,4632 5530,4630 5524,4629 5519,4634 5516,4634 5513,4630 5507,4628 5499,4625 5498,4621 5495,4619 5490,4619 5484,4622 5480,4625 5472,4624 5470,4621 5471,4617 5472,4612 5476,4612 5481,4612 5485,4609 5481,4606 5482,4600 5487,4599 5491,4599 5493,4596 5491,4591 5485,4588 5479,4589 5474,4591 5467,4593 5458,4593 5452,4589 5445,4586 5438,4582 5431,4580 5420,4578 5414,4579 5410,4576 5410,4571 5413,4570 5416,4565 5411,4560 5407,4558 5402,4559 5397,4560 5390,4562 5382,4554 5376,4553 5366,4550 5361,4546 5358,4539 5357,4533 5356,4527 5353,4523 5348,4520 5342,4516 5331,4496 5330,4492 5324,4488 5321,4481 5317,4475 5315,4471 5318,4470 5324,4469 5326,4466 5322,4460 5317,4452 5314,4448 5309,4445 5307,4441 5311,4441 5314,4440 5313,4434 5307,4431 5303,4429 5300,4425 5300,4422 5298,4414 5298,4410 5300,4406 5305,4406 5311,4407 5315,4409 5318,4409 5321,4406 5322,4403 5318,4397 5314,4393 5309,4389 5306,4386 5309,4382 5316,4379 5324,4378 5327,4375 5330,4372 5333,4368 5335,4365 5338,4366 5344,4364 5345,4359 5345,4354 5347,4348 5350,4344 5351,4341 5355,4337 5360,4336 5371,4333 5380,4333 5383,4332 5384,4329 5383,4325 5376,4318 5372,4310 5371,4300 5375,4288 5380,4276 5387,4265 5394,4253 5396,4247 5397,4241 5404,4234 5407,4229 5411,4216 5415,4213 5421,4213 5426,4213 5428,4206 5425,4200 5424,4195 5426,4189 5427,4184 5432,4183 5435,4185 5440,4187 5445,4187 5449,4187 5450,4183 5456,4180 5461,4178 5474,4159 5477,4152 5478,4144 5474,4131 5466,4120 5457,4107 5450,4098 5452,4084 5452,4076 5454,4068 5456,4062 5456,4055 5453,4048 5449,4037 5445,4028 5445,4016 5443,4010 5438,4009 5437,4006 5443,4004 5447,4004 5450,4006 5454,4004 5456,3998 5459,3992 5473,3988 5477,3987 5481,3983 5490,3981 5495,3981 5498,3984 5500,3987 5505,3986 5511,3985 5513,3981 5514,3973 5511,3968 5514,3957 5518,3941 5525,3932 5531,3932 5535,3929 5536,3924 5537,3919 5538,3914 5536,3909 5530,3905 5528,3896 5530,3888 5531,3878 5531,3874 5534,3872 5540,3866 5540,3863 5539,3856 5534,3851 5526,3848 5523,3843 5523,3838 5521,3830 5515,3822 5512,3816 5515,3806 5518,3802 5521,3800 5529,3796 5534,3794 5538,3792 5544,3793 5553,3791 5566,3789 5570,3785 5574,3782 5581,3780 5587,3779 5594,3781 5603,3782 5614,3780 5624,3781 5627,3780 5634,3785 5639,3785 5645,3787 5647,3783 5649,3775 5649,3770 5652,3765 5656,3759 5657,3754 5656,3751 5652,3751 5649,3748 5646,3744 5640,3739 5637,3733 5632,3724 5633,3719 5637,3716 5640,3716 5643,3719 5647,3715 5653,3707 5656,3698 5655,3690 5651,3682 5649,3679 5638,3669 5630,3658 5631,3654 5635,3654 5639,3657 5643,3657 5648,3655 5649,3650 5656,3639 5659,3635 5658,3631 5662,3625 5665,3618 5663,3614 5657,3616 5653,3619 5648,3621 5646,3627 5647,3634 5643,3637 5636,3640 5631,3642 5628,3640 5628,3634 5625,3634 5618,3634 5612,3631 5607,3628 5601,3625 5597,3621 5598,3617 5597,3611 5589,3602 5587,3596 5587,3592 5587,3587 5583,3580 5582,3575 5582,3569 5577,3569 5573,3566 5572,3561 5569,3558 5569,3554 5567,3548 5569,3545 5572,3541 5576,3539 5584,3537 5590,3534 5592,3528 5594,3521 5596,3513 5597,3510 5600,3510 5604,3512 5616,3511 5629,3509 5639,3508 5644,3506 5649,3500 5648,3489 5648,3483 5642,3476 5637,3465 5640,3460 5646,3457 5651,3454 5659,3455 5662,3453 5663,3447 5662,3440 5664,3434 5673,3437 5680,3437 5681,3432 5680,3426 5680,3421 5680,3417 5682,3413 5686,3412 5690,3412 5697,3408 5699,3402 5703,3393 5706,3389 5706,3379 5705,3370 5702,3362 5697,3356 5691,3348 5684,3340 5683,3337 5679,3325 5683,3320 5686,3318 5692,3316 5698,3313 5700,3309 5700,3304 5698,3297 5697,3292 5697,3286 5696,3279 5695,3273 5698,3270 5698,3265 5695,3262 5689,3255 5687,3248 5687,3242 5688,3237 5689,3230 5691,3223 5692,3217 5692,3210 5696,3209 5701,3212 5708,3213 5714,3211 5723,3210 5729,3211 5736,3211 5742,3204 5743,3196 5741,3187 5739,3180 5740,3167 5740,3158 5742,3151 5745,3148 5751,3145 5755,3143 5761,3141 5769,3139 5775,3136 5781,3132 5784,3128 5789,3121 5792,3116 5800,3108 5801,3104 5804,3092 5811,3084 5816,3079 5821,3077 5828,3072 5835,3069 5838,3067 5839,3061 5839,3054 5841,3045 5841,3041 5835,3033 5833,3030 5831,3026 5831,3021 5832,3013 5833,3003 5835,2996 5835,2987 5836,2979 5833,2976 5828,2972 5825,2965 5822,2958 5824,2952 5835,2948 5837,2944 5835,2940 5833,2935 5827,2933 5825,2929 5825,2925 5827,2919 5826,2915 5823,2909 5816,2895 5810,2895 5800,2894 5795,2890 5796,2886 5797,2879 5797,2876 5790,2872 5786,2875 5786,2880 5783,2886 5777,2890 5769,2890 5759,2889 5747,2888 5739,2886 5733,2880 5728,2877 5728,2872 5721,2864 5726,2859 5732,2858 5735,2856 5731,2850 5724,2848 5718,2844 5718,2837 5719,2827 5724,2822 5724,2815 5724,2809 5718,2806 5712,2806 5709,2801 5710,2796 5711,2789 5707,2785 5700,2776 5693,2769 5685,2760 5687,2757 5692,2752 5695,2747 5695,2741 5695,2735 5697,2730 5697,2723 5694,2720 5689,2712 5675,2709 5666,2704 5661,2693 5661,2688 5669,2681 5673,2672 5677,2662 5680,2655 5681,2649 5680,2645 5674,2645 5668,2645 5662,2649 5654,2653 5644,2652 5638,2649 5630,2644 5612,2638 5596,2626 5590,2614 5591,2607 5591,2600 5593,2594 5598,2592 5603,2589 5604,2585 5607,2580 5611,2578 5611,2573 5611,2570 5614,2565 5614,2562 5614,2552 5612,2541 5613,2531 5612,2523 5610,2514 5601,2510 5592,2508 5571,2500 5558,2502 5536,2506 5506,2503 5474,2497 5458,2486 5448,2476 5440,2460 5443,2447 5453,2432 5458,2421 5463,2404 5464,2393 5459,2371 5455,2355 5445,2342 5424,2332 5394,2323 5374,2323 5315,2331 5296,2332 5278,2331 5261,2324 5251,2312 5251,2300 5254,2293 5259,2288 5269,2286 5276,2285 5282,2283 5284,2279 5279,2269 5277,2266 5280,2261 5297,2263 5302,2259 5302,2249 5297,2241 5293,2235 5292,2232 5292,2224 5297,2218 5303,2211 5306,2207 5305,2203 5301,2202 5294,2205 5287,2211 5281,2210 5282,2203 5282,2194 5280,2190 5273,2184 5268,2178 5268,2167 5262,2146 5263,2141 5264,2136 5259,2134 5253,2134 5252,2131 5253,2128 5256,2122 5250,2119 5242,2118 5240,2122 5235,2124 5231,2122 5227,2120 5220,2114 5219,2103 5215,2094 5210,2083 5204,2068 5198,2055 5188,2048 5178,2045 5166,2043 5162,2043 5147,2048 5135,2050 5121,2050 5114,2042 5109,2032 5108,2024 5110,2014 5114,2008 5115,2002 5118,1995 5124,1984 5123,1978 5124,1970 5125,1964 5128,1954 5129,1946 5132,1940 5138,1932 5141,1925 5146,1921 5152,1906 5158,1893 5162,1890 5168,1886 5171,1883 5168,1873 5166,1867 5169,1859 5171,1853 5170,1845 5169,1839 5169,1834 5169,1827 5168,1820 5159,1811 5151,1800 5151,1793 5152,1789 5157,1785 5166,1779 5170,1771 5170,1761 5170,1758 5173,1748 5176,1745 5180,1741 5175,1735 5169,1728 5167,1720 5172,1715 5176,1709 5183,1705 5185,1700 5187,1690 5191,1679 5194,1672 5192,1663 5186,1658 5178,1647 5178,1643 5179,1635 5175,1629 5169,1629 5163,1633 5156,1633 5151,1633 5146,1627 5137,1624 5131,1624 5124,1626 5117,1630 5109,1634 5100,1644 5087,1646 5073,1648 5060,1651 5053,1648 5048,1648 5044,1651 5041,1656 5035,1664 5034,1673 5031,1679 5033,1686 5032,1693 5032,1696 5031,1702 5029,1707 5029,1712 5028,1719 5028,1726 5030,1731 5034,1734 5037,1737 5043,1741 5046,1748 5050,1751 5051,1754 5050,1758 5047,1764 5043,1768 5040,1773 5038,1779 5032,1783 5027,1783 5024,1784 5020,1784 5016,1788 5013,1788 5009,1785 5005,1784 4999,1782 4993,1779 4985,1776 4976,1773 4972,1775 4969,1779 4964,1781 4962,1786 4952,1790 4947,1796 4948,1801 4945,1807 4944,1812 4942,1818 4943,1824 4946,1838 4945,1844 4944,1847 4939,1848 4934,1855 4930,1858 4924,1858 4919,1860 4914,1862 4906,1863 4902,1870 4899,1875 4893,1876 4888,1875 4877,1874 4869,1871 4862,1869 4857,1869 4849,1873 4842,1872 4834,1870 4829,1863 4824,1859 4819,1858 4812,1855 4804,1852 4804,1846 4806,1842 4810,1837 4812,1830 4816,1822 4817,1816 4821,1814 4824,1813 4834,1806 4837,1802 4853,1779 4856,1772 4858,1762 4856,1750 4858,1740 4857,1732 4854,1723 4851,1721 4843,1717 4836,1717 4830,1715 4821,1695 4816,1689 4814,1683 4815,1679 4817,1676 4819,1672 4819,1669 4814,1667 4811,1663 4807,1657 4799,1640 4793,1633 4791,1623 4794,1620 4799,1613 4805,1607 4807,1603 4807,1597 4804,1590 4805,1585 4802,1579 4798,1574 4796,1571 4787,1561 4782,1554 4776,1552 4773,1552 4765,1546 4759,1543 4755,1543 4749,1553 4746,1555 4743,1560 4735,1570 4726,1572 4717,1573 4704,1572 4693,1571 4683,1573 4669,1572 4661,1570 4657,1566 4652,1552 4650,1546 4649,1539 4646,1534 4640,1533 4633,1539 4625,1545 4620,1548 4617,1548 4609,1545 4605,1548 4601,1547 4599,1543 4596,1538 4593,1535 4585,1529 4584,1522 4579,1519 4575,1518 4570,1519 4556,1518 4547,1516 4542,1509 4535,1503 4527,1499 4519,1497 4512,1496 4503,1493 4492,1490 4488,1484 4484,1483 4481,1485 4478,1487 4471,1487 4466,1485 4458,1479 4450,1480 4446,1475 4445,1471 4447,1466 4447,1460 4447,1455 4447,1449 4443,1440 4438,1434 4434,1429 4429,1419 4424,1409 4414,1398 4404,1396 4400,1394 4397,1388 4392,1381 4382,1376 4372,1369 4366,1364 4361,1355 4356,1347 4349,1340 4350,1334 4348,1324 4344,1315 4334,1304 4325,1293 4321,1283 4320,1273 4318,1261 4318,1248 4316,1240 4314,1231 4311,1225 4305,1216 4308,1213 4309,1209 4311,1204 4314,1197 4317,1192 4321,1187 4322,1182 4326,1178 4336,1176 4344,1176 4352,1172 4355,1168 4359,1164 4365,1158 4367,1153 4370,1141 4376,1126 4376,1123 4376,1115 4377,1110 4377,1106 4380,1102 4385,1099 4391,1099 4397,1101 4401,1101 4404,1097 4409,1096 4411,1093 4415,1088 4420,1086 4419,1083 4417,1080 4418,1077 4423,1074 4429,1072 4431,1066 4431,1062 4434,1057 4437,1048 4441,1043 4444,1041 4448,1038 4458,1034 4466,1029 4475,1024 4479,1019 4482,1011 4483,1008 4490,1000 4493,999 4494,996 4493,992 4495,989 4500,986 4512,984 4513,980 4516,973 4521,967 4522,964 4524,958 4528,955 4531,952 4536,952 4552,948 4566,941 4573,933 4576,924 4583,917 4586,914 4592,913 4597,911 4610,907 4619,905 4638,897 4645,891 4651,883 4654,873 4658,861 4663,848 4664,843 4666,838 4668,832 4671,828 4675,825 4676,818 4679,812 4682,804 4684,800 4688,795 4691,792 4695,792 4700,796 4704,800 4715,807 4722,814 4724,819 4725,822 4734,829 4739,834 4749,836 4755,840 4766,845 4773,844 4778,844 4783,843 4788,845 4793,844 4794,841 4797,841 4802,841 4807,841 4811,841 4814,843 4817,844 4818,848 4820,854 4824,862 4826,868 4831,876 4835,882 4837,886 4842,894 4849,903 4852,906 4857,909 4860,911 4865,915 4870,920 4872,924 4876,924 4881,922 4888,920 4893,920 4897,922 4900,921 4905,921 4911,921 4914,923 4917,926 4921,928 4926,926 4929,924 4931,920 4932,910 4936,900 4941,891 4948,886 4957,881 4966,874 4973,866 4978,863 4979,859 4977,855 4975,851 4975,847 4980,845 4985,842 4990,838 4991,835 4993,829 4993,824 4991,819 4988,814 4987,811 4986,806 4983,802 4979,793 4982,787 4981,783 4977,780 4973,778 4973,774 4975,769 4976,764 4978,759 4981,755 4984,751 4987,736 4986,730 4988,724 4988,721 4985,717 4980,713 4978,709 4980,707 4982,703 4982,700 4982,695 4983,691 4986,688 4986,685 4992,672 5001,665 5013,660 5018,659 5027,656 5031,655 5037,656 5042,662 5045,666 5048,672 5049,677 5052,677 5056,681 5062,685 5069,687 5071,690 5076,692 5080,695 5085,697 5091,697 5094,697 5098,697 5101,698 5104,702 5106,707 5112,710 5116,709 5120,711 5125,713 5128,715 5131,717 5132,722 5133,727 5141,735 5145,737 5151,739 5157,745 5162,750 5167,755 5170,758 5177,761 5179,765 5182,768 5186,769 5190,766 5194,766 5199,767 5204,766 5208,767 5211,764 5214,760 5217,756 5221,752 5224,750 5228,750 5233,752 5236,753 5240,752 5243,749 5248,745 5252,743 5257,741 5261,738 5266,736 5269,734 5274,731 5280,732 5282,738 5283,742 5286,748 5290,759 5293,766 5296,772 5299,773 5302,778 5306,787 5308,793 5311,800 5311,805 5313,809 5321,820 5325,825 5332,835 5340,853 5354,870 5362,879 5368,884 5373,885 5378,890 5380,897 5384,905 5387,910 5390,920 5394,933 5395,938 5394,943 5395,946 5395,950 5400,951 5404,948 5409,946 5412,945 5416,944 5419,944 5424,944 5427,941 5431,940 5435,938 5435,935 5430,929 5426,925 5424,921 5425,910 5429,906 5436,903 5439,901 5440,898 5443,895 5446,893 5454,890 5458,886 5462,883 5461,878 5459,874 5456,872 5454,865 5452,862 5451,859 5449,855 5448,851 5446,845 5444,839 5442,836 5439,834 5436,832 5436,829 5436,824 5437,820 5436,817 5437,813 5440,810 5441,804 5441,800 5443,796 5446,793 5449,790 5453,789 5457,787 5458,782 5464,776 5468,772 5471,765 5476,760 5481,758 5487,755 5492,752 5502,749 5507,746 5511,743 5517,738 5525,722 5533,701 5532,696 5533,691 5535,686 5537,682 5538,677 5539,671 5539,666 5534,663 5529,658 5528,651 5526,645 5524,639 5522,635 5521,630 5515,624 5514,619 5512,614 5511,610 5504,609 5497,609 5493,609 5490,610 5485,610 5481,608 5477,609 5472,612 5468,614 5462,615 5456,616 5453,618 5450,617 5451,614 5454,609 5457,603 5458,597 5461,593 5462,588 5462,582 5459,579 5456,576 5456,571 5455,565 5457,560 5463,558 5469,558 5476,551 5479,542 5476,533 5472,527 5469,522 5465,517 5462,514 5462,509 5466,505 5469,499 5461,485 5457,482 5455,478 5454,474 5455,469 5455,464 5454,460 5452,454 5447,447 5445,441 5442,434 5442,431 5449,421 5455,415 5461,407 5464,401 5464,396 5463,393 5459,393 5455,393 5449,394 5449,400 5448,404 5447,408 5445,412 5442,414 5437,415 5433,416 5429,418 5424,420 5416,420 5418,412 5418,408 5414,403 5413,398 5414,394 5419,388 5424,381 5428,379 5432,375 5435,365 5438,361 5439,358 5442,352 5443,349 5449,346 5454,343 5461,339 5466,336 5466,333 5469,331 5478,330 5483,330 5487,331 5490,331 5494,327 5496,321 5496,318 5495,315 5493,310 5491,306 5491,300 5491,296 5491,286 5490,283 5490,279 5488,272 5488,267 5488,263 5490,258 5493,255 5496,251 5497,247 5497,242 5502,239 5505,236 5504,232 5504,228 5503,224 5504,212 5501,193 5501,181 5506,165 5511,148 5510,129 5514,121 5523,115 5531,103 5536,98 5542,92 5550,87 5558,89 5569,92 5578,88 5584,80 5592,72 5597,67 5604,65 5613,64 5630,60 5642,54 5650,52 5661,49 5672,41 5680,37 5687,35 5692,36 5700,42 5708,42 5713,40 5721,37 5728,33 5739,33 5752,35 5770,42 5783,43 5793,42 5807,45 5818,41 5825,34 5832,25 5841,17 5846,9 5856,8 5864,11 5879,14 5886,14 5900,12 5912,6 5923,0 5924,7 " class="polyStyle" id="450821" style="fill:#f6f67b"/>
<path d="" class="polyStyle" id="350624" style="fill:#f6f67b"/>
<path d="" class="polyStyle" id="" style="fill:#fbe6ef"/>
<path d="" class="polyStyle" id="451224" style="fill:#fbe6ef"/>
<path d="" class="polyStyle" id="350627" style="fill:#f6f67b"/>
<path d="" class="polyStyle" id="" style="fill:#f6f67b"/>
<path d="" class="polyStyle" id="350525" style="fill:#f6f67b"/>
<path d="" class="polyStyle" id="530124" style="fill:#ee8b94"/>
<path d="" class="polyStyle" id="522627" style="fill:#ee8b94"/>
<path d="" class="polyStyle" id="510421" style="fill:#fbe6ef"/>
<path d="" class="polyStyle" id="522623" style="fill:#d4ecb2"/>
<path d="" class="polyStyle" id="430321" style="fill:#d4ecb2"/>
<path d="" class="polyStyle" id="511129" style="fill:#d4ecb2"/>
<path d="" class="polyStyle" id="511423" style="fill:#ee8b94"/>
<path d="" class="polyStyle" id="421023" style="fill:#f6f67b"/>
<path d="" class="polyStyle" id="511724" style="fill:#f6f67b"/>
<path d="" class="polyStyle" id="420526" style="fill:#fbe6ef"/>
<path d="" class="polyStyle" id="511923" style="fill:#fbe6ef"/>
<path d="" class="polyStyle" id="420325" style="fill:#fbe6ef"/>
<path d="" class="polyStyle" id="511921" style="fill:#f6f67b"/>
<path d="" class="polyStyle" id="542525" style="fill:#f6f67b"/>
<path d="" class="polyStyle" id="611026" style="fill:#ee8b94"/>
<path d="" class="polyStyle" id="411023" style="fill:#fbe6ef"/>
<path d="" class="polyStyle" id="632323" style="fill:#f6f67b"/>
<path d="" class="polyStyle" id="140525" style="fill:#d4ecb2"/>
<path d="" class="polyStyle" id="410922" style="fill:#ee8b94"/>
<path d="" class="polyStyle" id="621027" style="fill:#ee8b94"/>
<path d="" class="polyStyle" id="130427" style="fill:#f6f67b"/>
<path d="" class="polyStyle" id="130121" style="fill:#ee8b94"/>
<path d="" class="polyStyle" id="610823" style="fill:#fbe6ef"/>
<path d="" class="polyStyle" id="130225" style="fill:#fbe6ef"/>
<path d="" class="polyStyle" id="130322" style="fill:#d4ecb2"/>
<path d="" class="polyStyle" id="653130" style="fill:#f6f67b"/>
<path d="" class="polyStyle" id="130822" style="fill:#fbe6ef"/>
<path d="" class="polyStyle" id="211221" style="fill:#f6f67b"/>
<path d="" class="polyStyle" id="210921" style="fill:#f6f67b"/>
<path d="" class="polyStyle" id="150223" style="fill:#f8c67d"/>
<path d="" class="polyStyle" id="220422" style="fill:#d4ecb2"/>
<path d="" class="polyStyle" id="340721" style="fill:#f6f67b"/>
<path d="" class="polyStyle" id="510824" style="fill:#d4ecb2"/>
<path d="" class="polyStyle" id="610324" style="fill:#f6f67b"/>
<path d="" class="polyStyle" id="530722" style="fill:#ee8b94"/>
<path d="" class="polyStyle" id="340823" style="fill:#d4ecb2"/>
<path d="" class="polyStyle" id="620825" style="fill:#d4ecb2"/>
<path d="" class="polyStyle" id="421125" style="fill:#ee8b94"/>
<path d="" class="polyStyle" id="210281" style="fill:#ee8b94"/>
<path d="" class="polyStyle" id="440883" style="fill:#f6f67b"/>
<path d="" class="polyStyle" id="469006" style="fill:#d4ecb2"/>
<path d="" class="polyStyle" id="469002" style="fill:#ee8b94"/>
<path d="" class="polyStyle" id="469005" style="fill:#fbe6ef"/>
<path d="" class="polyStyle" id="440882" style="fill:#ee8b94"/>
<path d="" class="polyStyle" id="450681" style="fill:#ee8b94"/>
<path d="" class="polyStyle" id="441581" style="fill:#d4ecb2"/>
<polygon points="4314,1231 4316,1240 4318,1248 4318,1261 4320,1273 4321,1283 4325,1293 4334,1304 4344,1315 4348,1324 4350,1334 4349,1340 4356,1347 4361,1355 4366,1364 4372,1369 4382,1376 4392,1381 4397,1388 4400,1394 4404,1396 4414,1398 4424,1409 4429,1419 4434,1429 4438,1434 4443,1440 4447,1449 4447,1455 4447,1460 4447,1466 4445,1471 4446,1475 4450,1480 4458,1479 4466,1485 4471,1487 4478,1487 4481,1485 4484,1483 4488,1484 4492,1490 4503,1493 4512,1496 4519,1497 4527,1499 4535,1503 4542,1509 4547,1516 4556,1518 4570,1519 4575,1518 4579,1519 4584,1522 4585,1529 4593,1535 4596,1538 4599,1543 4601,1547 4605,1548 4609,1545 4617,1548 4620,1548 4625,1545 4633,1539 4640,1533 4646,1534 4649,1539 4650,1546 4652,1552 4657,1566 4661,1570 4669,1572 4683,1573 4693,1571 4704,1572 4717,1573 4726,1572 4735,1570 4743,1560 4746,1555 4749,1553 4755,1543 4759,1543 4765,1546 4773,1552 4776,1552 4782,1554 4787,1561 4796,1571 4798,1574 4802,1579 4805,1585 4804,1590 4807,1597 4807,1603 4805,1607 4799,1613 4794,1620 4791,1623 4793,1633 4799,1640 4807,1657 4811,1663 4814,1667 4819,1669 4819,1672 4817,1676 4815,1679 4814,1683 4816,1689 4821,1695 4830,1715 4836,1717 4843,1717 4851,1721 4854,1723 4857,1732 4858,1740 4856,1750 4858,1762 4856,1772 4853,1779 4837,1802 4834,1806 4824,1813 4821,1814 4817,1816 4816,1822 4812,1830 4810,1837 4806,1842 4804,1846 4804,1852 4812,1855 4819,1858 4824,1859 4829,1863 4834,1870 4842,1872 4849,1873 4857,1869 4862,1869 4869,1871 4877,1874 4888,1875 4893,1876 4899,1875 4902,1870 4906,1863 4914,1862 4919,1860 4924,1858 4930,1858 4934,1855 4939,1848 4944,1847 4945,1844 4946,1838 4943,1824 4942,1818 4944,1812 4945,1807 4948,1801 4947,1796 4952,1790 4962,1786 4964,1781 4969,1779 4972,1775 4976,1773 4985,1776 4993,1779 4999,1782 5005,1784 5009,1785 5013,1788 5016,1788 5020,1784 5024,1784 5027,1783 5032,1783 5038,1779 5040,1773 5043,1768 5047,1764 5050,1758 5051,1754 5050,1751 5046,1748 5043,1741 5037,1737 5034,1734 5030,1731 5028,1726 5028,1719 5029,1712 5029,1707 5031,1702 5032,1696 5032,1693 5033,1686 5031,1679 5034,1673 5035,1664 5041,1656 5044,1651 5048,1648 5053,1648 5060,1651 5073,1648 5087,1646 5100,1644 5109,1634 5117,1630 5124,1626 5131,1624 5137,1624 5146,1627 5151,1633 5156,1633 5163,1633 5169,1629 5175,1629 5179,1635 5178,1643 5178,1647 5186,1658 5192,1663 5194,1672 5191,1679 5187,1690 5185,1700 5183,1705 5176,1709 5172,1715 5167,1720 5169,1728 5175,1735 5180,1741 5176,1745 5173,1748 5170,1758 5170,1761 5170,1771 5166,1779 5157,1785 5152,1789 5151,1793 5151,1800 5159,1811 5168,1820 5169,1827 5169,1834 5169,1839 5170,1845 5171,1853 5169,1859 5166,1867 5168,1873 5171,1883 5168,1886 5162,1890 5158,1893 5152,1906 5146,1921 5141,1925 5138,1932 5132,1940 5129,1946 5128,1954 5125,1964 5124,1970 5123,1978 5124,1984 5118,1995 5115,2002 5114,2008 5110,2014 5108,2024 5109,2032 5114,2042 5121,2050 5135,2050 5147,2048 5162,2043 5166,2043 5178,2045 5188,2048 5198,2055 5204,2068 5210,2083 5215,2094 5219,2103 5220,2114 5227,2120 5231,2122 5235,2124 5240,2122 5242,2118 5250,2119 5256,2122 5253,2128 5252,2131 5253,2134 5259,2134 5264,2136 5263,2141 5262,2146 5268,2167 5268,2178 5273,2184 5280,2190 5282,2194 5282,2203 5281,2210 5287,2211 5294,2205 5301,2202 5305,2203 5306,2207 5303,2211 5297,2218 5292,2224 5292,2232 5293,2235 5297,2241 5302,2249 5302,2259 5297,2263 5280,2261 5277,2266 5279,2269 5284,2279 5282,2283 5276,2285 5269,2286 5259,2288 5254,2293 5251,2300 5251,2312 5261,2324 5278,2331 5296,2332 5315,2331 5374,2323 5394,2323 5424,2332 5445,2342 5455,2355 5459,2371 5464,2393 5463,2404 5458,2421 5453,2432 5443,2447 5440,2460 5448,2476 5458,2486 5474,2497 5506,2503 5536,2506 5558,2502 5571,2500 5592,2508 5601,2510 5610,2514 5612,2523 5613,2531 5612,2541 5614,2552 5614,2562 5614,2565 5611,2570 5611,2573 5611,2578 5607,2580 5604,2585 5603,2589 5598,2592 5593,2594 5591,2600 5591,2607 5590,2614 5596,2626 5612,2638 5630,2644 5638,2649 5644,2652 5654,2653 5662,2649 5668,2645 5674,2645 5680,2645 5681,2649 5680,2655 5677,2662 5673,2672 5669,2681 5661,2688 5661,2693 5666,2704 5675,2709 5689,2712 5694,2720 5697,2723 5697,2730 5695,2735 5695,2741 5695,2747 5692,2752 5687,2757 5685,2760 5693,2769 5700,2776 5707,2785 5711,2789 5710,2796 5709,2801 5712,2806 5718,2806 5724,2809 5724,2815 5724,2822 5719,2827 5718,2837 5718,2844 5724,2848 5731,2850 5735,2856 5732,2858 5726,2859 5721,2864 5728,2872 5728,2877 5733,2880 5739,2886 5747,2888 5759,2889 5769,2890 5777,2890 5783,2886 5786,2880 5786,2875 5790,2872 5797,2876 5797,2879 5796,2886 5795,2890 5800,2894 5810,2895 5816,2895 5823,2909 5826,2915 5827,2919 5825,2925 5825,2929 5827,2933 5833,2935 5835,2940 5837,2944 5835,2948 5824,2952 5822,2958 5825,2965 5828,2972 5833,2976 5836,2979 5835,2987 5835,2996 5833,3003 5832,3013 5831,3021 5831,3026 5833,3030 5835,3033 5841,3041 5841,3045 5839,3054 5839,3061 5838,3067 5835,3069 5828,3072 5821,3077 5816,3079 5811,3084 5804,3092 5801,3104 5800,3108 5792,3116 5789,3121 5784,3128 5781,3132 5775,3136 5769,3139 5761,3141 5755,3143 5751,3145 5745,3148 5742,3151 5740,3158 5740,3167 5739,3180 5741,3187 5743,3196 5742,3204 5736,3211 5729,3211 5723,3210 5714,3211 5708,3213 5701,3212 5696,3209 5692,3210 5692,3217 5691,3223 5689,3230 5688,3237 5687,3242 5687,3248 5689,3255 5695,3262 5698,3265 5698,3270 5695,3273 5696,3279 5697,3286 5697,3292 5698,3297 5700,3304 5700,3309 5698,3313 5692,3316 5686,3318 5683,3320 5679,3325 5683,3337 5684,3340 5691,3348 5697,3356 5702,3362 5705,3370 5706,3379 5706,3389 5703,3393 5699,3402 5697,3408 5690,3412 5686,3412 5682,3413 5680,3417 5680,3421 5680,3426 5681,3432 5680,3437 5673,3437 5664,3434 5662,3440 5663,3447 5662,3453 5659,3455 5651,3454 5646,3457 5640,3460 5637,3465 5642,3476 5648,3483 5648,3489 5649,3500 5644,3506 5639,3508 5629,3509 5616,3511 5604,3512 5600,3510 5597,3510 5596,3513 5594,3521 5592,3528 5590,3534 5584,3537 5576,3539 5572,3541 5569,3545 5567,3548 5569,3554 5569,3558 5572,3561 5573,3566 5577,3569 5582,3569 5582,3575 5583,3580 5587,3587 5587,3592 5587,3596 5589,3602 5597,3611 5598,3617 5597,3621 5601,3625 5607,3628 5612,3631 5618,3634 5625,3634 5628,3634 5628,3640 5631,3642 5636,3640 5643,3637 5647,3634 5646,3627 5648,3621 5653,3619 5657,3616 5663,3614 5665,3618 5662,3625 5658,3631 5659,3635 5656,3639 5649,3650 5648,3655 5643,3657 5639,3657 5635,3654 5631,3654 5630,3658 5638,3669 5649,3679 5651,3682 5655,3690 5656,3698 5653,3707 5647,3715 5643,3719 5640,3716 5637,3716 5633,3719 5632,3724 5637,3733 5640,3739 5646,3744 5649,3748 5652,3751 5656,3751 5657,3754 5656,3759 5652,3765 5649,3770 5649,3775 5647,3783 5645,3787 5639,3785 5634,3785 5627,3780 5624,3781 5614,3780 5603,3782 5594,3781 5587,3779 5581,3780 5574,3782 5570,3785 5566,3789 5553,3791 5544,3793 5538,3792 5534,3794 5529,3796 5521,3800 5518,3802 5515,3806 5512,3816 5515,3822 5521,3830 5523,3838 5523,3843 5526,3848 5534,3851 5539,3856 5540,3863 5540,3866 5534,3872 5531,3874 5531,3878 5530,3888 5528,3896 5530,3905 5536,3909 5538,3914 5537,3919 5536,3924 5535,3929 5531,3932 5525,3932 5518,3941 5514,3957 5511,3968 5514,3973 5513,3981 5511,3985 5505,3986 5500,3987 5498,3984 5495,3981 5490,3981 5481,3983 5477,3987 5473,3988 5459,3992 5456,3998 5454,4004 5450,4006 5447,4004 5443,4004 5437,4006 5438,4009 5443,4010 5445,4016 5445,4028 5449,4037 5453,4048 5456,4055 5456,4062 5454,4068 5452,4076 5452,4084 5450,4098 5457,4107 5466,4120 5474,4131 5478,4144 5477,4152 5474,4159 5461,4178 5456,4180 5450,4183 5449,4187 5445,4187 5440,4187 5435,4185 5432,4183 5427,4184 5426,4189 5424,4195 5425,4200 5428,4206 5426,4213 5421,4213 5415,4213 5411,4216 5407,4229 5404,4234 5397,4241 5396,4247 5394,4253 5387,4265 5380,4276 5375,4288 5371,4300 5372,4310 5376,4318 5383,4325 5384,4329 5383,4332 5380,4333 5371,4333 5360,4336 5355,4337 5351,4341 5350,4344 5347,4348 5345,4354 5345,4359 5344,4364 5338,4366 5335,4365 5333,4368 5330,4372 5327,4375 5324,4378 5316,4379 5309,4382 5306,4386 5309,4389 5314,4393 5318,4397 5322,4403 5321,4406 5318,4409 5315,4409 5311,4407 5305,4406 5300,4406 5298,4410 5298,4414 5300,4422 5300,4425 5303,4429 5307,4431 5313,4434 5314,4440 5311,4441 5307,4441 5309,4445 5314,4448 5317,4452 5322,4460 5326,4466 5324,4469 5318,4470 5315,4471 5317,4475 5321,4481 5324,4488 5330,4492 5331,4496 5342,4516 5348,4520 5353,4523 5356,4527 5357,4533 5358,4539 5361,4546 5366,4550 5376,4553 5382,4554 5390,4562 5397,4560 5402,4559 5407,4558 5411,4560 5416,4565 5413,4570 5410,4571 5410,4576 5414,4579 5420,4578 5431,4580 5438,4582 5445,4586 5452,4589 5458,4593 5467,4593 5474,4591 5479,4589 5485,4588 5491,4591 5493,4596 5491,4599 5487,4599 5482,4600 5481,4606 5485,4609 5481,4612 5476,4612 5472,4612 5471,4617 5470,4621 5472,4624 5480,4625 5484,4622 5490,4619 5495,4619 5498,4621 5499,4625 5507,4628 5513,4630 5516,4634 5519,4634 5524,4629 5530,4630 5535,4632 5537,4635 5541,4636 5545,4631 5549,4629 5561,4631 5564,4633 5566,4637 5572,4637 5576,4635 5583,4633 5588,4630 5593,4631 5597,4637 5605,4636 5608,4634 5616,4632 5621,4635 5626,4642 5631,4645 5638,4645 5640,4648 5646,4647 5653,4643 5656,4641 5660,4641 5669,4645 5667,4649 5663,4652 5661,4658 5656,4668 5652,4677 5654,4681 5656,4684 5659,4684 5664,4684 5669,4688 5673,4690 5676,4685 5680,4685 5681,4691 5682,4697 5680,4700 5680,4703 5683,4705 5684,4710 5689,4715 5694,4720 5699,4721 5704,4719 5709,4720 5715,4725 5716,4731 5718,4737 5719,4742 5713,4747 5711,4751 5707,4755 5705,4758 5705,4763 5709,4770 5717,4778 5717,4782 5712,4786 5710,4790 5711,4794 5710,4800 5706,4800 5703,4804 5701,4809 5701,4814 5696,4818 5693,4821 5689,4821 5685,4824 5684,4827 5684,4835 5684,4841 5680,4843 5674,4845 5669,4847 5666,4847 5661,4849 5659,4854 5655,4862 5645,4869 5636,4879 5632,4890 5634,4899 5631,4903 5631,4907 5635,4912 5636,4919 5635,4930 5639,4931 5645,4932 5651,4937 5655,4945 5657,4955 5658,4964 5642,4959 5638,4966 5628,4967 5620,4966 5615,4968 5607,4971 5605,4976 5606,4980 5611,4983 5614,4986 5614,4992 5614,4998 5611,5003 5611,5009 5611,5015 5607,5017 5601,5020 5596,5028 5594,5031 5589,5040 5590,5052 5589,5062 5580,5068 5572,5073 5565,5073 5562,5077 5562,5082 5557,5088 5556,5093 5561,5093 5564,5093 5572,5095 5577,5097 5577,5100 5577,5103 5575,5110 5574,5118 5579,5122 5585,5125 5585,5128 5580,5131 5577,5136 5575,5141 5570,5146 5568,5150 5561,5151 5559,5146 5556,5139 5554,5136 5547,5134 5543,5136 5535,5140 5526,5152 5522,5155 5519,5155 5514,5152 5511,5138 5510,5134 5506,5124 5511,5121 5512,5114 5508,5108 5503,5107 5499,5106 5497,5101 5498,5096 5499,5084 5498,5076 5497,5069 5490,5069 5485,5069 5480,5070 5475,5075 5469,5080 5468,5086 5469,5090 5464,5093 5459,5100 5456,5111 5452,5118 5449,5126 5442,5137 5435,5146 5428,5151 5425,5157 5423,5161 5425,5167 5425,5174 5428,5181 5425,5187 5421,5190 5421,5194 5421,5198 5411,5203 5411,5209 5407,5212 5403,5214 5407,5217 5417,5219 5428,5219 5435,5217 5438,5213 5441,5215 5452,5223 5460,5224 5464,5240 5458,5258 5457,5271 5463,5289 5464,5305 5459,5321 5457,5326 5456,5330 5438,5347 5428,5354 5414,5379 5400,5390 5396,5396 5385,5432 5382,5448 5373,5461 5362,5472 5332,5481 5324,5481 5318,5482 5312,5486 5283,5510 5273,5516 5264,5536 5255,5546 5245,5552 5237,5576 5237,5604 5237,5607 5243,5612 5252,5616 5271,5625 5290,5629 5296,5642 5300,5659 5303,5666 5298,5690 5293,5692 5284,5702 5296,5711 5300,5727 5287,5721 5276,5721 5264,5721 5257,5729 5253,5738 5260,5748 5275,5766 5278,5778 5294,5810 5302,5829 5306,5844 5304,5848 5302,5853 5300,5856 5297,5859 5295,5861 5283,5870 5280,5871 5277,5872 5272,5871 5267,5870 5262,5868 5241,5863 5238,5862 5235,5862 5214,5855 5211,5855 5208,5855 5186,5851 5166,5853 5135,5861 5131,5863 5119,5870 5115,5873 5109,5876 5105,5877 5100,5879 5097,5881 5093,5882 5090,5882 5087,5883 5084,5885 5079,5884 5075,5883 5072,5881 5069,5879 5074,5871 5074,5863 5075,5855 5080,5848 5086,5843 5094,5832 5109,5826 5121,5817 5113,5800 5107,5792 5099,5781 5092,5769 5081,5750 5072,5738 5066,5732 5053,5719 5044,5718 5025,5719 5003,5717 4988,5717 4973,5714 4952,5709 4951,5703 4951,5696 4945,5689 4936,5685 4906,5679 4865,5690 4822,5676 4804,5675 4777,5695 4769,5693 4765,5691 4752,5690 4735,5689 4711,5695 4705,5695 4697,5701 4690,5709 4680,5717 4656,5717 4615,5736 4590,5764 4582,5768 4557,5764 4546,5758 4534,5752 4518,5746 4508,5734 4505,5730 4503,5726 4502,5721 4500,5712 4500,5707 4512,5692 4516,5676 4521,5663 4524,5652 4519,5646 4505,5640 4489,5632 4472,5623 4459,5614 4451,5609 4446,5606 4443,5598 4444,5593 4453,5583 4453,5573 4446,5565 4442,5559 4435,5551 4428,5541 4427,5537 4423,5533 4417,5527 4409,5496 4401,5484 4398,5473 4399,5464 4399,5460 4404,5456 4408,5446 4408,5425 4405,5416 4403,5409 4393,5400 4392,5391 4390,5386 4387,5380 4377,5370 4367,5367 4345,5372 4338,5383 4340,5394 4352,5400 4349,5416 4335,5439 4325,5460 4315,5457 4303,5453 4295,5454 4295,5476 4266,5484 4265,5480 4262,5476 4257,5473 4252,5470 4246,5472 4240,5472 4235,5475 4231,5477 4217,5477 4206,5472 4197,5465 4192,5454 4183,5444 4174,5432 4171,5431 4150,5423 4132,5416 4109,5417 4093,5430 4089,5427 4076,5415 4058,5410 4045,5402 4041,5396 4042,5389 4043,5386 4049,5360 4047,5348 4046,5336 4020,5321 4003,5314 4004,5303 4006,5297 4007,5292 4007,5284 3981,5276 3945,5248 3929,5231 3929,5224 3936,5219 3937,5213 3937,5207 3931,5203 3928,5203 3921,5203 3916,5203 3911,5206 3906,5211 3901,5213 3889,5211 3883,5200 3882,5196 3878,5192 3873,5191 3870,5187 3867,5185 3867,5182 3868,5179 3869,5176 3867,5173 3862,5172 3859,5173 3855,5174 3852,5174 3847,5174 3845,5171 3843,5166 3841,5162 3828,5161 3821,5157 3810,5158 3802,5155 3798,5155 3794,5156 3793,5153 3790,5152 3787,5151 3790,5149 3795,5150 3800,5152 3797,5145 3796,5140 3793,5139 3789,5145 3787,5148 3784,5148 3778,5144 3781,5139 3781,5135 3774,5132 3770,5134 3764,5131 3758,5134 3752,5136 3749,5134 3748,5131 3754,5132 3757,5129 3759,5125 3762,5121 3762,5117 3756,5116 3754,5118 3754,5122 3750,5125 3746,5124 3746,5114 3742,5109 3738,5104 3730,5099 3726,5096 3721,5102 3718,5107 3713,5115 3709,5116 3700,5114 3693,5112 3694,5108 3695,5104 3696,5100 3695,5096 3690,5093 3683,5092 3679,5094 3676,5096 3671,5094 3660,5090 3658,5093 3654,5096 3656,5104 3654,5112 3651,5113 3651,5106 3648,5104 3649,5100 3649,5096 3650,5092 3648,5090 3644,5092 3642,5096 3638,5098 3638,5101 3643,5105 3640,5107 3632,5102 3633,5097 3634,5092 3632,5088 3625,5090 3626,5095 3622,5099 3616,5100 3614,5105 3609,5110 3606,5111 3603,5106 3599,5103 3596,5102 3585,5107 3582,5112 3583,5118 3578,5120 3572,5122 3566,5117 3570,5117 3574,5114 3576,5110 3574,5107 3570,5107 3565,5108 3560,5109 3553,5107 3547,5107 3544,5102 3534,5096 3531,5095 3531,5093 3527,5092 3526,5089 3524,5085 3521,5087 3520,5090 3516,5093 3513,5092 3507,5096 3507,5100 3508,5104 3504,5105 3500,5101 3498,5096 3494,5097 3490,5099 3488,5103 3490,5108 3486,5108 3484,5102 3484,5094 3484,5090 3481,5090 3477,5092 3474,5095 3466,5095 3461,5095 3460,5092 3460,5088 3460,5082 3458,5079 3453,5079 3443,5082 3437,5085 3432,5082 3428,5077 3423,5076 3421,5072 3419,5069 3415,5065 3412,5061 3410,5056 3407,5052 3403,5046 3395,5037 3390,5028 3368,5002 3358,4992 3360,4979 3368,4963 3375,4955 3372,4931 3372,4913 3375,4900 3379,4894 3382,4890 3385,4886 3389,4883 3390,4879 3389,4873 3381,4865 3377,4863 3367,4861 3358,4852 3347,4848 3340,4848 3336,4847 3328,4846 3326,4840 3326,4833 3332,4829 3340,4827 3346,4826 3352,4822 3351,4815 3351,4812 3348,4810 3345,4810 3341,4811 3335,4812 3327,4813 3313,4812 3307,4809 3306,4801 3315,4791 3327,4787 3331,4785 3331,4780 3326,4776 3319,4776 3312,4778 3308,4781 3305,4785 3302,4786 3297,4787 3294,4785 3295,4780 3299,4773 3303,4768 3305,4762 3304,4756 3300,4756 3296,4760 3293,4767 3290,4774 3287,4780 3283,4784 3279,4786 3271,4783 3263,4779 3262,4774 3262,4769 3262,4764 3263,4761 3267,4756 3271,4751 3273,4744 3277,4743 3281,4743 3291,4740 3297,4738 3306,4733 3310,4727 3314,4718 3315,4709 3315,4700 3311,4688 3304,4677 3296,4666 3288,4658 3280,4646 3269,4631 3264,4625 3257,4621 3242,4620 3240,4617 3239,4613 3235,4610 3228,4606 3223,4600 3217,4599 3208,4599 3201,4595 3193,4594 3181,4591 3175,4589 3174,4583 3174,4578 3173,4572 3171,4569 3174,4565 3175,4560 3178,4558 3178,4552 3180,4548 3180,4544 3173,4541 3167,4542 3162,4541 3158,4533 3157,4529 3155,4526 3149,4525 3143,4525 3138,4526 3133,4528 3128,4529 3124,4525 3121,4523 3121,4519 3122,4516 3119,4510 3112,4503 3102,4500 3097,4493 3093,4486 3088,4479 3083,4480 3075,4482 3067,4479 3066,4475 3061,4471 3055,4466 3046,4462 3042,4455 3037,4449 3034,4443 3027,4439 3026,4434 3027,4429 3024,4423 3024,4419 3028,4413 3036,4407 3040,4403 3045,4400 3055,4398 3071,4393 3084,4387 3094,4379 3103,4372 3109,4361 3114,4351 3115,4343 3114,4338 3108,4334 3096,4328 3083,4327 3077,4324 3067,4313 3061,4308 3061,4300 3062,4294 3060,4284 3059,4270 3057,4256 3054,4248 3052,4240 3050,4232 3051,4227 3051,4223 3048,4221 3041,4222 3026,4224 3018,4225 3011,4227 3008,4227 3005,4224 3004,4212 3004,4190 3001,4169 3001,4155 3001,4148 3001,4132 3002,4118 3001,4108 3001,4101 3002,4097 3007,4097 3018,4099 3023,4100 3027,4100 3034,4098 3039,4103 3045,4107 3050,4104 3056,4100 3061,4098 3067,4098 3074,4100 3077,4096 3077,4090 3075,4087 3065,4087 3053,4086 3046,4083 3040,4079 3031,4078 3025,4079 3020,4069 3017,4062 3015,4057 3008,4055 3003,4053 3000,4049 3000,4046 3000,4039 3003,4035 3005,4031 3006,4027 3007,4023 3009,4020 3009,4017 3007,4011 3018,4010 3031,4009 3042,4008 3050,4007 3061,4007 3063,4003 3063,3999 3063,3996 3068,3995 3074,3995 3083,3994 3088,3993 3090,3965 3090,3956 3090,3948 3088,3945 3084,3945 3079,3943 3074,3941 3072,3938 3072,3929 3073,3923 3072,3913 3069,3909 3065,3902 3066,3892 3072,3877 3080,3855 3088,3838 3093,3827 3095,3817 3096,3813 3103,3810 3109,3806 3110,3803 3111,3799 3115,3796 3120,3792 3123,3786 3123,3780 3120,3777 3115,3772 3112,3768 3111,3759 3095,3745 3080,3738 3073,3729 3073,3721 3082,3717 3090,3713 3096,3702 3095,3695 3093,3689 3089,3683 3088,3676 3090,3673 3090,3668 3086,3665 3078,3664 3074,3662 3070,3658 3061,3659 3057,3660 3052,3658 3048,3654 3047,3651 3044,3648 3038,3649 3032,3654 3024,3655 3010,3656 3008,3661 3004,3661 2999,3655 2996,3651 2992,3650 2989,3648 2983,3652 2974,3652 2964,3652 2961,3647 2961,3634 2966,3623 2970,3611 2968,3605 2964,3595 2960,3587 2958,3581 2953,3572 2949,3567 2941,3559 2931,3546 2923,3536 2920,3534 2906,3532 2898,3529 2886,3513 2876,3509 2872,3507 2867,3498 2866,3489 2852,3478 2848,3470 2842,3460 2839,3440 2835,3428 2830,3419 2824,3415 2818,3421 2813,3427 2805,3431 2797,3437 2789,3441 2789,3445 2793,3456 2793,3462 2790,3463 2780,3461 2773,3461 2768,3466 2764,3468 2754,3461 2745,3452 2737,3448 2733,3444 2730,3441 2728,3435 2729,3427 2727,3423 2723,3408 2724,3400 2728,3393 2731,3384 2731,3375 2729,3369 2723,3365 2712,3365 2702,3364 2694,3359 2687,3353 2669,3353 2662,3348 2659,3344 2658,3338 2652,3331 2643,3327 2640,3321 2635,3315 2631,3313 2625,3305 2625,3299 2629,3289 2629,3281 2630,3275 2627,3267 2629,3261 2635,3256 2640,3254 2636,3249 2628,3242 2618,3239 2606,3237 2595,3234 2584,3228 2573,3226 2565,3226 2558,3227 2552,3225 2550,3218 2546,3213 2542,3209 2531,3214 2524,3219 2519,3219 2517,3210 2514,3200 2511,3197 2502,3197 2496,3203 2490,3204 2484,3203 2480,3202 2473,3201 2479,3198 2480,3194 2481,3188 2480,3184 2472,3181 2469,3174 2467,3167 2463,3162 2461,3158 2461,3154 2466,3152 2470,3154 2476,3157 2480,3158 2485,3158 2490,3158 2493,3162 2496,3164 2500,3163 2503,3160 2501,3154 2509,3152 2518,3155 2523,3157 2528,3157 2535,3157 2543,3158 2550,3155 2560,3155 2568,3155 2572,3151 2574,3148 2578,3149 2583,3148 2590,3146 2594,3144 2600,3138 2604,3132 2610,3126 2614,3119 2616,3116 2617,3112 2618,3109 2618,3104 2618,3099 2618,3095 2614,3093 2610,3091 2609,3086 2611,3083 2612,3080 2614,3077 2615,3072 2614,3069 2614,3064 2616,3060 2618,3057 2618,3052 2616,3050 2612,3048 2613,3042 2610,3037 2606,3038 2599,3038 2598,3031 2601,3026 2604,3021 2606,3019 2609,3013 2609,3007 2608,3002 2607,2997 2606,2994 2601,2990 2598,2986 2598,2982 2598,2977 2600,2974 2603,2974 2606,2975 2609,2975 2612,2972 2614,2967 2615,2964 2618,2960 2619,2949 2618,2945 2619,2942 2621,2940 2621,2938 2620,2934 2621,2930 2626,2931 2628,2929 2628,2926 2629,2922 2633,2917 2638,2916 2641,2914 2645,2913 2648,2911 2652,2908 2660,2895 2665,2883 2670,2875 2673,2875 2684,2881 2687,2893 2690,2905 2689,2915 2695,2919 2701,2922 2708,2924 2718,2933 2721,2936 2724,2933 2726,2928 2727,2924 2727,2918 2731,2918 2736,2920 2743,2920 2747,2921 2763,2921 2778,2921 2791,2921 2801,2920 2815,2917 2825,2914 2837,2907 2849,2901 2856,2893 2860,2887 2866,2879 2872,2870 2876,2862 2879,2855 2880,2846 2881,2835 2882,2825 2883,2815 2884,2805 2885,2801 2887,2797 2892,2795 2897,2794 2904,2793 2914,2792 2926,2791 2940,2788 2956,2786 2980,2790 2990,2790 2999,2793 3015,2796 3031,2797 3051,2799 3064,2801 3075,2803 3089,2806 3101,2807 3114,2810 3126,2810 3137,2810 3148,2814 3163,2819 3176,2825 3188,2833 3194,2838 3200,2846 3208,2858 3214,2881 3216,2892 3217,2902 3219,2913 3221,2927 3221,2938 3221,2945 3222,2956 3225,2962 3231,2973 3238,2984 3245,2992 3254,3000 3272,3016 3276,3015 3280,3009 3281,3005 3283,3000 3281,2994 3280,2986 3281,2979 3281,2974 3285,2970 3291,2970 3292,2965 3292,2960 3291,2957 3294,2958 3297,2959 3300,2957 3301,2953 3307,2952 3311,2950 3311,2945 3309,2941 3306,2935 3308,2931 3312,2931 3318,2935 3321,2936 3328,2934 3331,2932 3334,2932 3338,2931 3337,2927 3335,2924 3337,2921 3340,2917 3345,2918 3351,2921 3354,2919 3354,2914 3358,2909 3359,2900 3360,2896 3368,2887 3372,2885 3377,2883 3383,2880 3389,2879 3391,2873 3391,2867 3397,2860 3400,2860 3403,2858 3404,2854 3407,2852 3410,2850 3412,2846 3416,2845 3422,2844 3424,2841 3426,2837 3435,2831 3435,2828 3431,2819 3428,2812 3426,2802 3425,2794 3423,2786 3422,2783 3421,2779 3423,2776 3429,2770 3435,2765 3436,2762 3436,2755 3433,2747 3430,2741 3427,2735 3428,2729 3434,2718 3440,2709 3444,2701 3449,2696 3452,2690 3457,2677 3454,2667 3453,2662 3455,2655 3456,2648 3459,2646 3463,2644 3464,2641 3464,2637 3463,2632 3463,2629 3465,2626 3469,2624 3472,2619 3473,2612 3469,2606 3466,2604 3462,2600 3458,2596 3457,2593 3457,2590 3459,2587 3462,2580 3464,2576 3466,2571 3468,2567 3466,2562 3462,2555 3463,2552 3467,2548 3469,2539 3470,2534 3471,2531 3466,2529 3461,2528 3451,2527 3446,2525 3439,2520 3436,2517 3429,2515 3424,2512 3421,2509 3421,2505 3421,2502 3428,2498 3432,2495 3436,2490 3435,2486 3434,2483 3434,2479 3437,2476 3437,2472 3437,2468 3437,2463 3441,2460 3443,2455 3448,2447 3448,2443 3444,2440 3441,2437 3439,2432 3437,2427 3435,2424 3435,2421 3438,2418 3452,2407 3459,2402 3463,2399 3460,2395 3459,2391 3460,2388 3462,2382 3467,2378 3472,2374 3473,2369 3476,2364 3480,2362 3483,2356 3487,2352 3492,2348 3497,2344 3500,2338 3504,2333 3509,2329 3516,2326 3520,2324 3523,2316 3526,2306 3533,2295 3542,2286 3550,2278 3561,2272 3568,2266 3568,2258 3566,2251 3567,2241 3571,2233 3574,2225 3574,2219 3575,2215 3567,2213 3560,2217 3558,2213 3559,2207 3559,2196 3559,2183 3558,2165 3557,2155 3561,2144 3567,2136 3576,2125 3586,2110 3596,2094 3604,2079 3613,2063 3614,2050 3614,2037 3609,2017 3604,2004 3602,1992 3598,1985 3590,1978 3587,1963 3583,1948 3581,1932 3582,1921 3584,1914 3587,1910 3592,1909 3593,1904 3592,1897 3584,1887 3584,1878 3587,1861 3591,1855 3594,1850 3593,1845 3589,1844 3584,1843 3586,1840 3590,1840 3596,1834 3599,1830 3600,1821 3599,1817 3598,1812 3597,1807 3601,1802 3610,1798 3614,1791 3616,1783 3617,1779 3619,1774 3626,1772 3631,1772 3638,1773 3650,1772 3655,1769 3659,1767 3666,1766 3671,1764 3676,1763 3681,1763 3686,1764 3690,1768 3697,1771 3706,1772 3710,1772 3712,1769 3715,1767 3719,1767 3726,1767 3730,1758 3732,1752 3734,1748 3732,1744 3733,1738 3735,1734 3736,1730 3738,1725 3739,1721 3743,1720 3746,1719 3749,1715 3752,1710 3750,1705 3747,1701 3746,1692 3748,1683 3752,1676 3754,1666 3755,1659 3756,1655 3759,1652 3760,1648 3758,1641 3756,1636 3748,1632 3745,1629 3742,1627 3736,1627 3732,1628 3731,1625 3725,1624 3721,1625 3717,1622 3716,1619 3718,1615 3722,1600 3723,1595 3731,1588 3741,1584 3750,1580 3755,1576 3761,1566 3763,1562 3767,1562 3769,1557 3774,1548 3781,1546 3784,1542 3790,1542 3793,1541 3801,1542 3808,1542 3814,1543 3819,1544 3825,1543 3829,1536 3832,1536 3836,1537 3839,1537 3842,1533 3847,1529 3850,1527 3856,1526 3858,1522 3857,1514 3862,1514 3866,1510 3866,1504 3866,1499 3869,1493 3870,1490 3875,1488 3879,1486 3880,1482 3883,1478 3882,1473 3885,1467 3890,1458 3894,1451 3896,1436 3898,1431 3902,1430 3904,1427 3905,1423 3906,1415 3911,1413 3913,1409 3915,1403 3916,1399 3919,1396 3921,1392 3928,1390 3930,1387 3933,1379 3934,1370 3934,1355 3934,1339 3934,1331 3935,1324 3934,1321 3936,1315 3942,1317 3953,1318 3961,1319 3970,1321 3982,1324 3992,1324 3999,1324 4006,1324 4012,1321 4020,1320 4026,1317 4030,1314 4032,1311 4036,1309 4043,1312 4049,1316 4052,1321 4055,1324 4061,1326 4071,1325 4081,1327 4089,1325 4097,1321 4102,1314 4109,1301 4109,1296 4111,1292 4111,1285 4111,1279 4118,1273 4122,1270 4131,1268 4142,1265 4150,1262 4159,1258 4173,1252 4179,1247 4183,1242 4187,1241 4197,1241 4202,1241 4204,1245 4207,1248 4211,1248 4214,1245 4217,1241 4220,1238 4224,1234 4228,1235 4234,1235 4241,1235 4248,1236 4254,1236 4258,1238 4261,1238 4266,1239 4269,1235 4271,1231 4275,1228 4281,1224 4284,1221 4288,1220 4295,1219 4303,1217 4305,1216 4311,1225 " class="polyStyle" id="450881" style="fill:#ee8b94"/>
<path d="" class="polyStyle" id="421087" style="fill:#ee8b94"/>
<path d="" class="polyStyle" id="420984" style="fill:#fbe6ef"/>
<path d="" class="polyStyle" id="420582" style="fill:#ee8b94"/>
<path d="" class="polyStyle" id="370282" style="fill:#f6f67b"/>
<path d="" class="polyStyle" id="371083" style="fill:#f6f67b"/>
<path d="" class="polyStyle" id="371082" style="fill:#fbe6ef"/>
<path d="" class="polyStyle" id="652801" style="fill:#f8c67d"/>
<path d="" class="polyStyle" id="654301" style="fill:#ee8b94"/>
<path d="" class="polyStyle" id="370687" style="fill:#ee8b94"/>
<path d="" class="polyStyle" id="371482" style="fill:#d4ecb2"/>
<path d="" class="polyStyle" id="421081" style="fill:#fbe6ef"/>
<path d="" class="polyStyle" id="429006" style="fill:#f6f67b"/>
<path d="" class="polyStyle" id="440982" style="fill:#d4ecb2"/>
<path d="" class="polyStyle" id="421181" style="fill:#d4ecb2"/>
<path d="" class="polyStyle" id="321181" style="fill:#d4ecb2"/>
<path d="" class="polyStyle" id="659007" style="fill:#ee8b94"/>
<path d="" class="polyStyle" id="652701" style="fill:#fbe6ef"/>
<path d="" class="polyStyle" id="210781" style="fill:#fbe6ef"/>
<path d="" class="polyStyle" id="460204" style="fill:#f6f67b"/>
<path d="" class="polyStyle" id="210211" style="fill:#f6f67b"/>
<polygon points="737,3144 745,3143 759,3133 763,3131 770,3147 771,3158 790,3167 796,3172 804,3180 809,3176 813,3179 817,3182 813,3188 813,3192 833,3207 823,3215 821,3231 810,3252 805,3258 809,3281 823,3307 832,3306 842,3298 855,3305 856,3312 853,3317 866,3322 885,3316 907,3310 925,3305 932,3303 947,3301 969,3297 973,3300 983,3307 985,3322 992,3334 1001,3343 1007,3349 1011,3357 1024,3364 1042,3353 1060,3364 1066,3359 1083,3372 1076,3379 1088,3386 1092,3401 1111,3412 1133,3402 1146,3384 1155,3376 1161,3362 1164,3345 1183,3319 1189,3315 1204,3308 1223,3306 1255,3300 1276,3296 1298,3295 1307,3297 1312,3292 1325,3295 1341,3315 1371,3297 1379,3292 1381,3305 1383,3319 1383,3322 1390,3329 1394,3350 1390,3358 1383,3370 1395,3389 1407,3386 1408,3392 1398,3393 1411,3403 1402,3407 1403,3417 1406,3416 1421,3413 1438,3421 1441,3445 1442,3455 1458,3466 1481,3476 1470,3500 1466,3514 1469,3519 1473,3528 1480,3529 1489,3532 1497,3535 1503,3540 1511,3539 1527,3541 1535,3546 1535,3555 1535,3568 1531,3574 1538,3586 1548,3580 1552,3587 1569,3600 1594,3617 1599,3619 1607,3630 1616,3640 1631,3650 1639,3663 1653,3667 1663,3678 1665,3689 1666,3699 1668,3707 1673,3712 1671,3716 1669,3724 1666,3731 1663,3733 1656,3734 1649,3736 1647,3744 1646,3750 1638,3752 1626,3756 1620,3764 1615,3772 1609,3778 1602,3785 1596,3791 1594,3795 1590,3800 1582,3802 1574,3807 1570,3811 1562,3816 1557,3821 1555,3827 1555,3833 1561,3839 1570,3845 1576,3852 1580,3863 1583,3868 1580,3870 1569,3866 1557,3860 1552,3858 1543,3860 1535,3863 1531,3864 1529,3869 1528,3872 1531,3877 1535,3882 1537,3888 1538,3896 1538,3902 1536,3911 1534,3915 1535,3921 1536,3928 1538,3935 1543,3942 1543,3950 1543,3957 1545,3965 1546,3974 1545,3979 1544,3984 1543,3990 1546,3993 1549,3998 1552,4004 1557,4005 1559,4009 1559,4013 1559,4017 1554,4021 1547,4024 1546,4030 1541,4034 1538,4039 1535,4045 1533,4050 1524,4055 1521,4060 1517,4061 1508,4058 1502,4057 1496,4061 1489,4060 1476,4054 1471,4070 1454,4065 1444,4072 1434,4070 1422,4083 1376,4073 1392,4088 1376,4089 1359,4112 1333,4112 1305,4126 1290,4088 1224,4096 1195,4112 1223,4117 1226,4112 1250,4157 1232,4163 1199,4203 1185,4271 1157,4308 1167,4321 1166,4336 1181,4349 1211,4361 1226,4353 1262,4377 1267,4390 1271,4399 1289,4403 1307,4402 1305,4390 1292,4384 1309,4370 1309,4358 1317,4369 1336,4372 1322,4390 1314,4410 1341,4416 1355,4405 1361,4416 1364,4408 1377,4405 1390,4432 1434,4442 1389,4502 1369,4557 1385,4577 1390,4607 1373,4607 1357,4618 1356,4627 1374,4634 1377,4645 1386,4644 1387,4650 1426,4643 1428,4649 1414,4654 1414,4662 1371,4665 1371,4673 1346,4668 1350,4688 1341,4701 1357,4717 1361,4762 1412,4759 1383,4772 1386,4779 1412,4783 1416,4796 1411,4820 1385,4831 1387,4841 1405,4846 1403,4865 1363,4868 1358,4881 1369,4884 1374,4901 1371,4911 1362,4922 1356,4919 1355,4886 1338,4884 1324,4891 1311,4879 1297,4892 1296,4907 1280,4918 1279,4941 1291,4956 1301,4954 1310,4971 1305,4975 1312,4990 1301,4996 1314,5004 1328,5004 1338,5017 1370,4982 1435,4968 1441,4974 1469,4969 1473,4979 1485,4979 1489,4989 1498,5000 1503,5005 1518,5004 1534,5004 1546,5001 1553,5000 1565,4999 1582,5006 1593,5011 1602,5011 1611,5016 1620,5019 1631,5020 1637,5022 1645,5025 1648,5032 1648,5040 1653,5039 1666,5036 1672,5031 1683,5029 1693,5024 1703,5019 1711,5017 1717,5014 1721,5010 1732,5007 1734,5001 1737,4998 1742,4999 1747,4995 1750,4991 1756,4990 1759,4995 1759,5004 1769,5007 1778,5009 1781,5006 1785,5002 1792,5000 1791,4993 1790,4983 1789,4975 1790,4968 1793,4963 1795,4957 1793,4951 1798,4946 1805,4941 1811,4935 1817,4925 1821,4914 1826,4915 1833,4921 1839,4927 1845,4927 1845,4938 1846,4943 1852,4953 1832,4969 1820,4982 1819,4989 1828,5008 1852,5028 1871,5040 1876,5054 1877,5067 1874,5076 1864,5086 1817,5106 1797,5115 1785,5129 1783,5146 1787,5152 1803,5161 1838,5166 1858,5170 1865,5178 1868,5194 1858,5214 1836,5238 1830,5256 1833,5272 1847,5285 1871,5288 1900,5285 1970,5260 1984,5257 2001,5259 2013,5270 2018,5284 2014,5299 1977,5343 1957,5369 1922,5404 1920,5419 1926,5436 1940,5448 1985,5468 2032,5480 2097,5496 2143,5519 2177,5546 2195,5567 2203,5580 2203,5599 2192,5607 2158,5613 2106,5617 2048,5630 2013,5642 2000,5646 1991,5645 1981,5634 1977,5614 1975,5597 1969,5588 1945,5572 1923,5566 1895,5546 1867,5541 1849,5546 1837,5559 1830,5593 1827,5624 1829,5644 1841,5676 1843,5703 1835,5753 1824,5789 1824,5805 1828,5829 1823,5843 1803,5857 1751,5883 1735,5906 1706,5959 1658,5989 1619,6021 1570,6056 1558,6067 1550,6073 1543,6077 1521,6083 1502,6089 1489,6094 1445,6091 1417,6091 1400,6089 1383,6092 1369,6092 1367,6088 1370,6082 1366,6072 1358,6069 1354,6065 1356,6062 1359,6061 1361,6058 1365,6055 1362,6050 1352,6038 1348,6034 1338,6026 1332,6014 1325,5995 1323,5989 1319,5989 1313,5994 1304,5993 1293,5990 1273,5977 1253,5971 1244,5965 1241,5961 1244,5954 1262,5926 1260,5919 1245,5913 1233,5905 1226,5895 1225,5890 1226,5883 1228,5879 1237,5874 1249,5870 1293,5864 1297,5862 1303,5853 1303,5847 1307,5841 1311,5839 1326,5834 1345,5835 1350,5837 1356,5834 1366,5834 1375,5830 1390,5817 1389,5812 1386,5807 1385,5804 1386,5797 1380,5773 1377,5771 1374,5765 1374,5757 1376,5752 1366,5742 1351,5738 1321,5730 1295,5723 1269,5709 1234,5694 1187,5686 1169,5677 1159,5674 1142,5668 1142,5665 1144,5661 1133,5650 1112,5646 1090,5652 1069,5660 1052,5663 1017,5645 1010,5639 1015,5626 1020,5608 1022,5598 1019,5583 1012,5578 959,5582 955,5579 942,5570 905,5565 901,5566 893,5565 887,5563 871,5552 845,5524 840,5513 842,5506 857,5492 858,5484 856,5476 852,5471 814,5441 801,5421 785,5413 772,5410 765,5401 762,5399 754,5384 754,5380 748,5368 743,5360 739,5345 739,5341 747,5313 746,5309 737,5299 723,5295 714,5291 700,5285 693,5269 680,5241 658,5230 646,5224 641,5214 630,5212 625,5207 624,5193 603,5193 597,5190 582,5189 574,5183 567,5179 560,5176 542,5177 536,5172 534,5167 526,5152 517,5145 524,5141 524,5126 532,5117 538,5116 542,5110 562,5088 573,5073 579,5072 582,5075 578,5076 576,5079 581,5078 584,5079 587,5080 591,5079 591,5083 592,5086 597,5088 600,5085 601,5087 601,5092 604,5087 608,5087 611,5093 615,5096 615,5100 608,5096 605,5100 604,5104 608,5100 611,5100 613,5102 613,5107 610,5113 614,5110 616,5107 618,5105 621,5106 622,5111 625,5115 627,5107 622,5102 618,5092 617,5088 614,5089 613,5078 610,5080 608,5080 605,5072 604,5077 601,5079 593,5077 590,5072 599,5071 602,5066 607,5064 612,5058 614,5052 614,5047 623,5043 633,5041 645,5038 649,5034 646,5033 642,5031 632,5034 629,5031 623,5009 649,5007 663,5000 676,5002 691,5003 680,4981 675,4969 656,4967 659,4942 665,4922 673,4928 685,4933 692,4908 700,4902 707,4895 712,4890 715,4875 707,4863 699,4860 676,4850 658,4838 647,4826 640,4812 634,4810 636,4798 633,4786 623,4780 614,4775 604,4772 600,4755 593,4731 584,4729 573,4730 565,4738 558,4749 534,4751 528,4749 524,4748 510,4750 497,4742 476,4732 469,4730 460,4727 456,4725 455,4717 455,4712 445,4713 431,4710 415,4707 412,4703 400,4702 397,4710 394,4711 384,4720 373,4721 370,4726 354,4721 342,4719 339,4719 335,4717 321,4711 311,4718 298,4722 276,4720 266,4721 248,4729 243,4730 236,4733 234,4724 230,4707 216,4690 226,4689 244,4676 245,4662 235,4658 221,4644 220,4638 217,4629 213,4627 205,4622 204,4617 206,4607 216,4602 225,4590 231,4583 227,4565 216,4549 214,4550 211,4540 201,4524 198,4515 197,4511 196,4499 197,4488 193,4479 174,4486 171,4489 168,4494 163,4489 162,4479 162,4473 164,4458 169,4441 173,4423 174,4410 178,4385 181,4367 187,4361 188,4347 191,4341 196,4337 199,4324 200,4316 197,4311 197,4294 201,4285 205,4271 205,4261 213,4256 219,4254 232,4244 239,4234 245,4221 250,4212 246,4206 238,4203 238,4199 242,4200 249,4201 251,4193 247,4185 236,4192 235,4189 235,4184 240,4184 247,4180 257,4172 265,4171 266,4156 259,4152 248,4142 235,4141 235,4121 232,4064 210,4062 197,4054 185,4048 166,4043 149,4030 132,4031 125,4028 132,4006 153,4016 152,4003 159,3992 176,3966 151,3967 143,3947 128,3937 123,3918 125,3895 118,3892 100,3892 88,3884 66,3870 31,3850 40,3842 46,3844 46,3850 54,3852 56,3845 59,3846 72,3854 98,3861 130,3850 131,3845 133,3842 117,3835 144,3829 150,3824 155,3822 159,3818 138,3817 134,3810 140,3803 144,3799 170,3793 170,3788 166,3785 161,3784 154,3783 144,3781 121,3771 111,3774 80,3767 69,3759 67,3735 50,3726 66,3707 55,3700 59,3693 47,3688 41,3691 35,3694 15,3683 17,3676 18,3672 7,3669 0,3661 7,3660 7,3657 15,3643 30,3638 39,3633 43,3624 55,3619 67,3609 62,3596 52,3595 39,3598 33,3594 38,3589 48,3579 41,3565 29,3562 21,3558 19,3549 24,3545 35,3533 62,3532 73,3514 78,3510 94,3504 122,3504 123,3491 128,3484 147,3482 157,3487 171,3488 175,3488 177,3483 184,3467 194,3470 208,3466 214,3457 216,3449 230,3450 234,3460 264,3469 281,3466 294,3476 310,3460 305,3452 314,3440 325,3403 336,3406 341,3411 357,3407 359,3383 342,3376 342,3367 345,3360 343,3345 346,3339 359,3334 362,3322 374,3315 383,3305 397,3303 400,3309 405,3308 415,3303 432,3304 441,3303 446,3302 451,3296 450,3284 449,3271 450,3258 456,3248 469,3238 473,3231 485,3231 488,3234 492,3236 495,3233 501,3229 510,3229 520,3229 531,3220 542,3217 559,3227 562,3226 555,3216 552,3215 541,3214 530,3215 524,3221 519,3224 515,3221 525,3207 531,3202 547,3197 554,3195 559,3187 559,3179 556,3171 566,3165 569,3164 568,3161 571,3155 577,3152 581,3129 589,3134 589,3146 599,3153 606,3138 609,3132 618,3131 628,3138 634,3136 641,3133 643,3141 654,3151 663,3160 673,3164 679,3165 684,3166 697,3159 693,3155 695,3152 698,3142 707,3134 721,3131 726,3133 728,3127 731,3134 " class="polyStyle" id="450804" style="fill:#ee8b94"/>
<path d="" class="polyStyle" id="450512" style="fill:#ee8b94"/>
<path d="" class="polyStyle" id="450602" style="fill:#fbe6ef"/>
<path d="" class="polyStyle" id="440404" style="fill:#ee8b94"/>
<path d="" class="polyStyle" id="440403" style="fill:#f6f67b"/>
<path d="" class="polyStyle" id="441502" style="fill:#f6f67b"/>
<polygon points="2709,4690 2725,4707 2736,4725 2742,4742 2747,4775 2756,4819 2766,4830 2787,4839 2850,4856 2906,4864 3004,4860 3038,4846 3062,4821 3092,4757 3117,4736 3155,4727 3175,4727 3200,4731 3259,4741 3273,4744 3271,4751 3267,4756 3263,4761 3262,4764 3262,4769 3262,4774 3263,4779 3271,4783 3279,4786 3283,4784 3287,4780 3290,4774 3293,4767 3296,4760 3300,4756 3304,4756 3305,4762 3303,4768 3299,4773 3295,4780 3294,4785 3297,4787 3302,4786 3305,4785 3308,4781 3312,4778 3319,4776 3326,4776 3331,4780 3331,4785 3327,4787 3315,4791 3306,4801 3307,4809 3313,4812 3327,4813 3335,4812 3341,4811 3345,4810 3348,4810 3351,4812 3351,4815 3352,4822 3346,4826 3340,4827 3332,4829 3326,4833 3326,4840 3328,4846 3336,4847 3340,4848 3347,4848 3358,4852 3367,4861 3377,4863 3381,4865 3389,4873 3390,4879 3389,4883 3385,4886 3382,4890 3379,4894 3375,4900 3372,4913 3372,4931 3375,4955 3368,4963 3360,4979 3358,4992 3368,5002 3390,5028 3395,5037 3403,5046 3407,5052 3410,5056 3412,5061 3415,5065 3419,5069 3421,5072 3423,5076 3428,5077 3432,5082 3437,5085 3428,5089 3423,5090 3418,5093 3411,5095 3405,5095 3403,5092 3400,5091 3397,5096 3395,5100 3393,5104 3391,5110 3388,5115 3385,5117 3382,5119 3383,5124 3385,5130 3385,5135 3385,5140 3387,5143 3387,5146 3384,5151 3376,5154 3375,5160 3378,5163 3379,5168 3376,5170 3369,5171 3362,5172 3358,5165 3355,5161 3356,5155 3356,5152 3352,5149 3347,5148 3341,5149 3340,5154 3341,5158 3342,5162 3338,5166 3337,5170 3337,5173 3338,5176 3341,5177 3345,5176 3349,5176 3351,5179 3355,5185 3359,5190 3363,5192 3363,5197 3359,5203 3352,5206 3345,5209 3342,5210 3338,5211 3336,5219 3332,5222 3325,5219 3321,5217 3314,5214 3313,5210 3312,5206 3311,5203 3308,5200 3310,5196 3312,5193 3318,5193 3316,5190 3310,5188 3305,5193 3302,5196 3296,5196 3289,5200 3283,5198 3275,5200 3271,5204 3268,5207 3265,5209 3269,5210 3273,5213 3274,5217 3260,5224 3253,5230 3237,5236 3231,5237 3226,5236 3221,5237 3219,5241 3213,5247 3210,5251 3203,5255 3197,5263 3192,5271 3189,5279 3182,5284 3179,5286 3175,5291 3166,5300 3162,5305 3157,5310 3148,5317 3145,5317 3141,5318 3135,5320 3131,5322 3126,5326 3121,5326 3117,5325 3114,5322 3107,5320 3103,5323 3100,5326 3093,5330 3086,5332 3083,5336 3076,5336 3069,5327 3062,5321 3052,5315 3042,5314 3032,5314 3025,5314 3021,5318 3014,5322 3008,5324 3001,5325 2997,5325 2991,5323 2987,5321 2983,5326 2987,5332 2989,5339 2990,5343 2992,5348 2997,5356 2997,5359 2990,5375 2990,5383 2991,5390 2994,5395 2997,5401 3011,5405 3024,5412 3036,5420 3043,5422 3049,5421 3056,5418 3062,5416 3061,5410 3059,5406 3060,5403 3065,5400 3071,5395 3077,5394 3080,5394 3080,5397 3080,5400 3074,5405 3072,5412 3073,5417 3076,5421 3080,5428 3085,5436 3089,5443 3097,5451 3103,5458 3105,5462 3102,5470 3103,5476 3111,5484 3115,5489 3121,5494 3127,5500 3130,5505 3131,5512 3135,5519 3138,5522 3143,5526 3146,5532 3151,5541 3152,5550 3152,5555 3156,5565 3161,5570 3170,5566 3171,5563 3172,5560 3178,5554 3183,5547 3186,5546 3190,5550 3190,5555 3190,5568 3187,5575 3180,5575 3174,5576 3177,5582 3183,5587 3182,5594 3182,5602 3182,5612 3182,5617 3180,5622 3175,5625 3173,5630 3179,5632 3183,5629 3193,5638 3199,5642 3214,5651 3227,5659 3242,5663 3256,5668 3265,5675 3269,5681 3274,5689 3271,5695 3259,5701 3245,5704 3238,5706 3233,5703 3226,5696 3222,5695 3216,5695 3204,5692 3199,5688 3194,5684 3188,5680 3180,5679 3173,5681 3165,5681 3157,5683 3151,5689 3146,5693 3145,5697 3139,5702 3132,5709 3130,5714 3129,5723 3133,5726 3136,5731 3140,5735 3143,5737 3151,5736 3154,5738 3161,5742 3168,5750 3173,5756 3176,5758 3181,5762 3190,5768 3193,5769 3189,5783 3184,5798 3193,5808 3201,5814 3212,5818 3220,5820 3229,5817 3230,5811 3227,5807 3218,5801 3208,5790 3211,5782 3223,5775 3228,5772 3234,5772 3240,5779 3242,5790 3252,5799 3257,5800 3260,5803 3263,5808 3266,5817 3271,5823 3281,5826 3295,5824 3302,5821 3307,5820 3308,5828 3305,5838 3300,5842 3295,5846 3292,5850 3287,5852 3282,5853 3277,5852 3271,5852 3266,5847 3259,5840 3247,5835 3233,5833 3221,5830 3216,5827 3205,5825 3195,5823 3192,5819 3178,5813 3172,5809 3172,5803 3176,5797 3175,5793 3175,5789 3173,5780 3162,5773 3153,5769 3145,5772 3139,5775 3135,5780 3131,5781 3125,5782 3118,5782 3107,5782 3101,5775 3093,5772 3086,5773 3078,5779 3068,5781 3058,5782 3051,5786 3048,5796 3050,5805 3051,5813 3050,5821 3044,5829 3042,5837 3044,5842 3044,5847 3049,5854 3052,5858 3048,5865 3048,5872 3048,5881 3048,5887 3045,5910 3045,5914 3043,5917 3030,5920 3014,5924 3011,5924 3008,5924 2996,5924 2990,5933 2988,5946 2983,5952 2981,5955 2990,5959 3000,5969 3000,5976 2990,5983 2983,5986 2967,5986 2953,5972 2943,5965 2941,5964 2935,5959 2929,5955 2919,5946 2912,5936 2897,5931 2880,5941 2870,5943 2857,5945 2843,5947 2837,5947 2830,5945 2820,5939 2810,5925 2799,5922 2791,5926 2790,5931 2793,5942 2797,5955 2792,5965 2785,5975 2783,5978 2763,5987 2746,5994 2742,6002 2741,6011 2741,6019 2743,6029 2746,6038 2753,6048 2753,6057 2757,6071 2761,6079 2769,6090 2770,6109 2774,6114 2782,6122 2789,6128 2793,6136 2793,6146 2795,6157 2792,6166 2787,6173 2777,6173 2778,6181 2778,6191 2778,6202 2790,6212 2786,6221 2784,6226 2790,6242 2800,6258 2800,6266 2797,6272 2780,6307 2776,6321 2778,6329 2788,6334 2801,6345 2811,6352 2818,6361 2829,6363 2843,6365 2868,6367 2872,6368 2883,6380 2889,6402 2890,6409 2893,6416 2898,6417 2904,6421 2918,6431 2921,6443 2920,6455 2900,6468 2898,6474 2892,6484 2887,6500 2881,6513 2872,6517 2862,6520 2837,6525 2812,6529 2784,6534 2762,6540 2757,6548 2756,6557 2747,6562 2739,6563 2730,6558 2722,6548 2716,6540 2710,6533 2701,6527 2691,6523 2673,6527 2656,6534 2637,6540 2621,6548 2604,6562 2594,6579 2594,6587 2584,6624 2565,6643 2566,6659 2566,6672 2576,6681 2580,6689 2598,6697 2606,6704 2599,6719 2583,6732 2568,6745 2533,6738 2501,6749 2486,6756 2471,6759 2458,6759 2446,6758 2434,6761 2423,6763 2415,6770 2409,6777 2394,6785 2381,6793 2360,6805 2342,6818 2331,6828 2324,6839 2314,6854 2304,6868 2294,6879 2283,6886 2275,6890 2276,6896 2261,6889 2257,6887 2253,6884 2249,6883 2244,6881 2226,6869 2220,6867 2212,6869 2206,6874 2200,6880 2200,6884 2203,6892 2205,6901 2197,6911 2191,6908 2184,6909 2178,6913 2173,6915 2166,6915 2160,6915 2156,6915 2149,6915 2141,6916 2136,6917 2126,6920 2112,6926 2107,6932 2104,6937 2101,6940 2095,6945 2088,6941 2087,6937 2085,6928 2082,6920 2077,6914 2073,6908 2061,6897 2055,6896 2051,6896 2047,6896 2036,6894 2031,6891 2031,6882 2035,6867 2037,6863 2038,6858 2033,6853 2026,6849 2024,6846 2030,6842 2048,6836 2051,6835 2063,6826 2066,6825 2069,6821 2072,6817 2074,6812 2073,6805 2060,6798 2060,6774 2056,6766 2053,6763 2050,6760 2047,6757 2044,6755 2040,6751 2036,6747 2032,6742 2030,6738 2027,6734 2025,6731 2022,6726 2018,6722 2012,6720 2008,6720 2005,6720 2000,6721 1997,6719 1997,6717 1994,6706 2004,6692 1976,6661 1953,6641 1945,6636 1941,6636 1938,6635 1935,6636 1931,6636 1926,6640 1923,6645 1921,6648 1920,6651 1918,6654 1914,6656 1910,6658 1906,6660 1904,6659 1902,6656 1900,6652 1897,6645 1873,6622 1895,6610 1900,6606 1902,6602 1907,6590 1907,6587 1905,6578 1902,6575 1900,6571 1897,6569 1894,6566 1884,6550 1875,6544 1870,6541 1861,6536 1856,6532 1854,6527 1851,6521 1850,6516 1850,6513 1849,6507 1849,6503 1848,6494 1848,6491 1849,6488 1850,6485 1852,6482 1855,6480 1859,6478 1864,6476 1867,6474 1870,6470 1872,6465 1866,6453 1848,6439 1844,6430 1848,6410 1845,6408 1840,6404 1837,6403 1829,6398 1826,6396 1823,6396 1822,6399 1820,6402 1818,6403 1816,6405 1812,6407 1807,6408 1803,6406 1800,6405 1797,6403 1777,6390 1774,6386 1770,6383 1766,6380 1764,6376 1763,6371 1762,6367 1762,6363 1765,6357 1766,6353 1765,6348 1750,6340 1745,6337 1724,6341 1705,6344 1700,6339 1695,6334 1686,6335 1676,6333 1662,6333 1646,6337 1637,6350 1634,6350 1626,6346 1617,6344 1605,6352 1600,6354 1597,6355 1592,6356 1589,6357 1587,6355 1584,6347 1568,6342 1557,6346 1540,6339 1535,6353 1531,6354 1527,6355 1523,6355 1516,6355 1503,6355 1494,6350 1500,6335 1500,6331 1500,6327 1501,6324 1504,6323 1507,6323 1511,6324 1513,6324 1516,6323 1518,6321 1522,6298 1519,6289 1512,6284 1504,6270 1501,6259 1509,6251 1520,6251 1525,6240 1528,6233 1528,6225 1523,6214 1533,6203 1551,6182 1538,6171 1538,6164 1538,6154 1540,6143 1541,6141 1545,6139 1549,6138 1556,6136 1563,6138 1568,6140 1573,6141 1577,6141 1580,6141 1583,6142 1587,6145 1592,6149 1593,6152 1596,6161 1609,6160 1612,6159 1617,6154 1624,6149 1640,6133 1624,6125 1623,6116 1620,6103 1599,6093 1596,6090 1593,6087 1584,6080 1572,6070 1569,6068 1561,6067 1558,6067 1570,6056 1619,6021 1658,5989 1706,5959 1735,5906 1751,5883 1803,5857 1823,5843 1828,5829 1824,5805 1824,5789 1835,5753 1843,5703 1841,5676 1829,5644 1827,5624 1830,5593 1837,5559 1849,5546 1867,5541 1895,5546 1923,5566 1945,5572 1969,5588 1975,5597 1977,5614 1981,5634 1991,5645 2000,5646 2013,5642 2048,5630 2106,5617 2158,5613 2192,5607 2203,5599 2203,5580 2195,5567 2177,5546 2143,5519 2097,5496 2032,5480 1985,5468 1940,5448 1926,5436 1920,5419 1922,5404 1957,5369 1977,5343 2014,5299 2018,5284 2013,5270 2001,5259 1984,5257 1970,5260 1900,5285 1871,5288 1847,5285 1833,5272 1830,5256 1836,5238 1858,5214 1868,5194 1865,5178 1858,5170 1838,5166 1803,5161 1787,5152 1783,5146 1785,5129 1797,5115 1817,5106 1864,5086 1874,5076 1877,5067 1876,5054 1871,5040 1852,5028 1828,5008 1819,4989 1820,4982 1832,4969 1852,4953 1882,4929 1894,4913 1902,4885 1917,4850 1943,4824 1993,4794 2020,4784 2047,4788 2084,4810 2130,4836 2155,4836 2165,4827 2188,4803 2213,4794 2260,4788 2272,4779 2277,4760 2282,4722 2287,4714 2299,4709 2329,4701 2377,4706 2440,4708 2468,4716 2513,4735 2537,4742 2549,4741 2560,4736 2569,4723 2586,4689 2600,4679 2615,4672 2631,4668 2646,4668 2668,4675 " class="polyStyle" id="450803" style="fill:#fbe6ef"/>
<polygon points="2285,3071 2293,3081 2302,3087 2313,3096 2324,3103 2327,3107 2336,3103 2342,3102 2352,3102 2361,3115 2368,3127 2375,3131 2383,3132 2390,3140 2392,3151 2390,3159 2388,3169 2393,3172 2398,3178 2407,3184 2413,3193 2420,3197 2427,3200 2434,3203 2436,3200 2439,3198 2442,3196 2444,3199 2449,3202 2452,3203 2455,3206 2456,3203 2460,3204 2465,3201 2473,3201 2480,3202 2484,3203 2490,3204 2496,3203 2502,3197 2511,3197 2514,3200 2517,3210 2519,3219 2524,3219 2531,3214 2542,3209 2546,3213 2550,3218 2552,3225 2558,3227 2565,3226 2573,3226 2584,3228 2595,3234 2606,3237 2618,3239 2628,3242 2636,3249 2640,3254 2635,3256 2629,3261 2627,3267 2630,3275 2629,3281 2629,3289 2625,3299 2625,3305 2631,3313 2635,3315 2640,3321 2643,3327 2652,3331 2658,3338 2659,3344 2662,3348 2669,3353 2687,3353 2694,3359 2702,3364 2712,3365 2723,3365 2729,3369 2731,3375 2731,3384 2728,3393 2724,3400 2723,3408 2727,3423 2729,3427 2728,3435 2730,3441 2733,3444 2737,3448 2745,3452 2754,3461 2764,3468 2768,3466 2773,3461 2780,3461 2790,3463 2793,3462 2793,3456 2789,3445 2789,3441 2797,3437 2805,3431 2813,3427 2818,3421 2824,3415 2830,3419 2835,3428 2839,3440 2842,3460 2848,3470 2852,3478 2866,3489 2867,3498 2872,3507 2876,3509 2886,3513 2898,3529 2906,3532 2920,3534 2923,3536 2931,3546 2941,3559 2949,3567 2953,3572 2958,3581 2960,3587 2964,3595 2968,3605 2970,3611 2966,3623 2961,3634 2961,3647 2964,3652 2974,3652 2983,3652 2989,3648 2992,3650 2996,3651 2999,3655 3004,3661 3008,3661 3010,3656 3024,3655 3032,3654 3038,3649 3044,3648 3047,3651 3048,3654 3052,3658 3057,3660 3061,3659 3070,3658 3074,3662 3078,3664 3086,3665 3090,3668 3090,3673 3088,3676 3089,3683 3093,3689 3095,3695 3096,3702 3090,3713 3082,3717 3073,3721 3073,3729 3080,3738 3095,3745 3111,3759 3112,3768 3115,3772 3120,3777 3123,3780 3123,3786 3120,3792 3115,3796 3111,3799 3110,3803 3109,3806 3103,3810 3096,3813 3095,3817 3093,3827 3088,3838 3080,3855 3072,3877 3066,3892 3065,3902 3069,3909 3072,3913 3073,3923 3072,3929 3072,3938 3074,3941 3079,3943 3084,3945 3088,3945 3090,3948 3090,3956 3090,3965 3088,3993 3083,3994 3074,3995 3068,3995 3063,3996 3063,3999 3063,4003 3061,4007 3050,4007 3042,4008 3031,4009 3018,4010 3007,4011 3009,4017 3009,4020 3007,4023 3006,4027 3005,4031 3003,4035 3000,4039 3000,4046 3000,4049 3003,4053 3008,4055 3015,4057 3017,4062 3020,4069 3025,4079 3031,4078 3040,4079 3046,4083 3053,4086 3065,4087 3075,4087 3077,4090 3077,4096 3074,4100 3067,4098 3061,4098 3056,4100 3050,4104 3045,4107 3039,4103 3034,4098 3027,4100 3023,4100 3018,4099 3007,4097 3002,4097 3001,4101 3001,4108 3002,4118 3001,4132 3001,4148 3001,4155 3001,4169 3004,4190 3004,4212 3005,4224 3008,4227 3011,4227 3018,4225 3026,4224 3041,4222 3048,4221 3051,4223 3051,4227 3050,4232 3052,4240 3054,4248 3057,4256 3059,4270 3060,4284 3062,4294 3061,4300 3061,4308 3067,4313 3077,4324 3083,4327 3096,4328 3108,4334 3114,4338 3115,4343 3114,4351 3109,4361 3103,4372 3094,4379 3084,4387 3071,4393 3055,4398 3045,4400 3040,4403 3036,4407 3028,4413 3024,4419 3024,4423 3027,4429 3026,4434 3027,4439 3034,4443 3037,4449 3042,4455 3046,4462 3055,4466 3061,4471 3066,4475 3067,4479 3075,4482 3083,4480 3088,4479 3093,4486 3097,4493 3102,4500 3112,4503 3119,4510 3122,4516 3121,4519 3121,4523 3124,4525 3128,4529 3133,4528 3138,4526 3143,4525 3149,4525 3155,4526 3157,4529 3158,4533 3162,4541 3167,4542 3173,4541 3180,4544 3180,4548 3178,4552 3178,4558 3175,4560 3174,4565 3171,4569 3173,4572 3174,4578 3174,4583 3175,4589 3181,4591 3193,4594 3201,4595 3208,4599 3217,4599 3223,4600 3228,4606 3235,4610 3239,4613 3240,4617 3242,4620 3257,4621 3264,4625 3269,4631 3280,4646 3288,4658 3296,4666 3304,4677 3311,4688 3315,4700 3315,4709 3314,4718 3310,4727 3306,4733 3297,4738 3291,4740 3281,4743 3277,4743 3273,4744 3259,4741 3200,4731 3175,4727 3155,4727 3117,4736 3092,4757 3062,4821 3038,4846 3004,4860 2906,4864 2850,4856 2787,4839 2766,4830 2756,4819 2747,4775 2742,4742 2736,4725 2725,4707 2709,4690 2668,4675 2646,4668 2631,4668 2615,4672 2600,4679 2586,4689 2569,4723 2560,4736 2549,4741 2537,4742 2513,4735 2468,4716 2440,4708 2377,4706 2329,4701 2299,4709 2287,4714 2282,4722 2277,4760 2272,4779 2260,4788 2213,4794 2188,4803 2165,4827 2155,4836 2130,4836 2084,4810 2047,4788 2020,4784 1993,4794 1943,4824 1917,4850 1902,4885 1894,4913 1882,4929 1852,4953 1846,4943 1845,4938 1845,4927 1839,4927 1833,4921 1826,4915 1821,4914 1817,4925 1811,4935 1805,4941 1798,4946 1793,4951 1795,4957 1793,4963 1790,4968 1789,4975 1790,4983 1791,4993 1792,5000 1785,5002 1781,5006 1778,5009 1769,5007 1759,5004 1759,4995 1756,4990 1750,4991 1747,4995 1742,4999 1737,4998 1734,5001 1732,5007 1721,5010 1717,5014 1711,5017 1703,5019 1693,5024 1683,5029 1672,5031 1666,5036 1653,5039 1648,5040 1648,5032 1645,5025 1637,5022 1631,5020 1620,5019 1611,5016 1602,5011 1593,5011 1582,5006 1565,4999 1553,5000 1546,5001 1534,5004 1518,5004 1503,5005 1498,5000 1489,4989 1485,4979 1473,4979 1469,4969 1441,4974 1435,4968 1370,4982 1338,5017 1328,5004 1314,5004 1301,4996 1312,4990 1305,4975 1310,4971 1301,4954 1291,4956 1279,4941 1280,4918 1296,4907 1297,4892 1311,4879 1324,4891 1338,4884 1355,4886 1356,4919 1362,4922 1371,4911 1374,4901 1369,4884 1358,4881 1363,4868 1403,4865 1405,4846 1387,4841 1385,4831 1411,4820 1416,4796 1412,4783 1386,4779 1383,4772 1412,4759 1361,4762 1357,4717 1341,4701 1350,4688 1346,4668 1371,4673 1371,4665 1414,4662 1414,4654 1428,4649 1426,4643 1387,4650 1386,4644 1377,4645 1374,4634 1356,4627 1357,4618 1373,4607 1390,4607 1385,4577 1369,4557 1389,4502 1434,4442 1390,4432 1377,4405 1364,4408 1361,4416 1355,4405 1341,4416 1314,4410 1322,4390 1336,4372 1317,4369 1309,4358 1309,4370 1292,4384 1305,4390 1307,4402 1289,4403 1271,4399 1267,4390 1262,4377 1226,4353 1211,4361 1181,4349 1166,4336 1167,4321 1157,4308 1185,4271 1199,4203 1232,4163 1250,4157 1226,4112 1223,4117 1195,4112 1224,4096 1290,4088 1305,4126 1333,4112 1359,4112 1376,4089 1392,4088 1376,4073 1422,4083 1434,4070 1444,4072 1454,4065 1471,4070 1476,4054 1489,4060 1496,4061 1502,4057 1508,4058 1517,4061 1521,4060 1524,4055 1533,4050 1535,4045 1538,4039 1541,4034 1546,4030 1547,4024 1554,4021 1559,4017 1559,4013 1559,4009 1557,4005 1552,4004 1549,3998 1546,3993 1543,3990 1544,3984 1545,3979 1546,3974 1545,3965 1543,3957 1543,3950 1543,3942 1538,3935 1536,3928 1535,3921 1534,3915 1536,3911 1538,3902 1538,3896 1537,3888 1535,3882 1531,3877 1528,3872 1529,3869 1531,3864 1535,3863 1543,3860 1552,3858 1557,3860 1569,3866 1580,3870 1583,3868 1580,3863 1576,3852 1570,3845 1561,3839 1555,3833 1555,3827 1557,3821 1562,3816 1570,3811 1574,3807 1582,3802 1590,3800 1594,3795 1596,3791 1602,3785 1609,3778 1615,3772 1620,3764 1626,3756 1638,3752 1646,3750 1647,3744 1649,3736 1656,3734 1663,3733 1666,3731 1669,3724 1671,3716 1673,3712 1685,3705 1700,3694 1704,3685 1724,3677 1735,3669 1735,3659 1743,3650 1747,3635 1757,3628 1778,3624 1786,3623 1792,3621 1796,3612 1799,3600 1801,3583 1797,3575 1797,3564 1800,3559 1813,3555 1823,3547 1823,3539 1820,3523 1821,3518 1824,3510 1831,3501 1837,3493 1843,3481 1849,3469 1850,3458 1858,3454 1854,3447 1849,3442 1842,3435 1843,3429 1850,3427 1859,3423 1869,3417 1882,3409 1899,3398 1923,3392 1931,3397 1935,3407 1936,3415 1931,3422 1926,3430 1933,3434 1946,3431 1957,3419 1961,3409 1973,3403 1981,3393 1995,3387 2004,3380 2012,3372 2022,3367 2020,3356 2020,3348 2027,3333 2025,3322 2028,3321 2038,3314 2049,3302 2057,3292 2067,3282 2077,3275 2086,3269 2090,3264 2103,3261 2111,3256 2116,3248 2116,3235 2120,3231 2124,3225 2131,3220 2136,3210 2139,3197 2143,3183 2153,3169 2163,3159 2174,3154 2176,3148 2180,3135 2186,3124 2198,3107 2203,3103 2210,3099 2228,3096 2243,3092 2251,3085 2258,3076 2261,3070 2273,3065 2278,3066 " class="polyStyle" id="450802" style="fill:#d4ecb2"/>
<path d="" class="polyStyle" id="431002" style="fill:#d4ecb2"/>
<path d="" class="polyStyle" id="500107" style="fill:#fbe6ef"/>
<path d="" class="polyStyle" id="430611" style="fill:#d4ecb2"/>
<path d="" class="polyStyle" id="511304" style="fill:#fbe6ef"/>
<path d="" class="polyStyle" id="340711" style="fill:#ee8b94"/>
<path d="" class="polyStyle" id="320118" style="fill:#f6f67b"/>
<path d="" class="polyStyle" id="510704" style="fill:#f6f67b"/>
<path d="" class="polyStyle" id="411502" style="fill:#ee8b94"/>
<path d="" class="polyStyle" id="320302" style="fill:#d4ecb2"/>
<path d="" class="polyStyle" id="140311" style="fill:#ee8b94"/>
<path d="" class="polyStyle" id="610802" style="fill:#ee8b94"/>
<path d="" class="polyStyle" id="120116" style="fill:#f6f67b"/>
<path d="" class="polyStyle" id="130303" style="fill:#fbe6ef"/>
<path d="" class="polyStyle" id="140211" style="fill:#f6f67b"/>
<path d="" class="polyStyle" id="150207" style="fill:#fbe6ef"/>
<path d="" class="polyStyle" id="211403" style="fill:#f6f67b"/>
<path d="" class="polyStyle" id="150802" style="fill:#f8c67d"/>
<path d="" class="polyStyle" id="210112" style="fill:#ee8b94"/>
<path d="" class="polyStyle" id="230406" style="fill:#d4ecb2"/>
<path d="" class="polyStyle" id="110113" style="fill:#fbe6ef"/>
<path d="" class="polyStyle" id="341702" style="fill:#fbe6ef"/>
<path d="" class="polyStyle" id="420303" style="fill:#ee8b94"/>
<path d="" class="polyStyle" id="340702" style="fill:#d4ecb2"/>
<path d="" class="polyStyle" id="421002" style="fill:#f6f67b"/>
<path d="" class="polyStyle" id="420117" style="fill:#f6f67b"/>
<path d="" class="polyStyle" id="440904" style="fill:#f8c67d"/>
<path d="" class="polyStyle" id="460205" style="fill:#ee8b94"/>
<path d="" class="polyStyle" id="460202" style="fill:#f6f67b"/>
<path d="" class="polyStyle" id="460203" style="fill:#fbe6ef"/>
<path d="" class="polyStyle" id="420304" style="fill:#f6f67b"/>
<path d="" class="polyStyle" id="445302" style="fill:#ee8b94"/>
<path d="" class="polyStyle" id="410202" style="fill:#d4ecb2"/>
<path d="" class="polyStyle" id="440800" style="fill:#f6f67b"/>
<path d="" class="polyStyle" id="440900" style="fill:#ee8b94"/>
<path d="" class="polyStyle" id="340800" style="fill:#ee8b94"/>
<path d="" class="polyStyle" id="460200" style="fill:#f6f67b"/>
<path d="" class="polyStyle" id="460000" style="fill:#ee8b94"/>
<path d="" class="polyStyle" id="450500" style="fill:#ee8b94"/>
<path d="" class="polyStyle" id="450600" style="fill:#ee8b94"/>
<path d="" class="polyStyle" id="440400" style="fill:#f6f67b"/>
<path d="" class="polyStyle" id="441700" style="fill:#f6f67b"/>
<path d="" class="polyStyle" id="441500" style="fill:#f6f67b"/>
<path d="" class="polyStyle" id="350600" style="fill:#ee8b94"/>
<path d="" class="polyStyle" id="710000" style="fill:#f6f67b"/>
<path d="" class="polyStyle" id="510400" style="fill:#f6f67b"/>
<path d="" class="polyStyle" id="522600" style="fill:#fbe6ef"/>
<path d="" class="polyStyle" id="520500" style="fill:#ee8b94"/>
<path d="" class="polyStyle" id="431200" style="fill:#f6f67b"/>
<path d="" class="polyStyle" id="430600" style="fill:#f6f67b"/>
<path d="" class="polyStyle" id="511400" style="fill:#d4ecb2"/>
<path d="" class="polyStyle" id="421000" style="fill:#ee8b94"/>
<path d="" class="polyStyle" id="341700" style="fill:#f6f67b"/>
<path d="" class="polyStyle" id="420500" style="fill:#f6f67b"/>
<path d="" class="polyStyle" id="511300" style="fill:#f6f67b"/>
<path d="" class="polyStyle" id="420900" style="fill:#f6f67b"/>
<path d="" class="polyStyle" id="511700" style="fill:#ee8b94"/>
<path d="" class="polyStyle" id="420600" style="fill:#d4ecb2"/>
<path d="" class="polyStyle" id="411500" style="fill:#fbe6ef"/>
<path d="" class="polyStyle" id="510800" style="fill:#ee8b94"/>
<path d="" class="polyStyle" id="420300" style="fill:#fbe6ef"/>
<path d="" class="polyStyle" id="611000" style="fill:#ee8b94"/>
<path d="" class="polyStyle" id="620800" style="fill:#fbe6ef"/>
<path d="" class="polyStyle" id="370200" style="fill:#ee8b94"/>
<path d="" class="polyStyle" id="371000" style="fill:#f6f67b"/>
<path d="" class="polyStyle" id="370600" style="fill:#fbe6ef"/>
<path d="" class="polyStyle" id="120000" style="fill:#f6f67b"/>
<path d="" class="polyStyle" id="130200" style="fill:#ee8b94"/>
<path d="" class="polyStyle" id="130300" style="fill:#f6f67b"/>
<path d="" class="polyStyle" id="652900" style="fill:#fbe6ef"/>
<path d="" class="polyStyle" id="150500" style="fill:#d4ecb2"/>
<path d="" class="polyStyle" id="" style="fill:#d4ecb2"/>
<path d="" class="polyStyle" id="350500" style="fill:#fbe6ef"/>
<path d="" class="polyStyle" id="440400" style="fill:#f6f67b"/>
<path d="" class="polyStyle" id="421100" style="fill:#d4ecb2"/>
<path d="" class="polyStyle" id="420100" style="fill:#fbe6ef"/>
<path d="" class="polyStyle" id="532500" style="fill:#fbe6ef"/>
<path d="" class="polyStyle" id="654200" style="fill:#fbe6ef"/>
<path d="" class="polyStyle" id="210700" style="fill:#d4ecb2"/>
<path d="" class="polyStyle" id="522300" style="fill:#fbe6ef"/>
<path d="" class="polyStyle" id="" style="fill:#ee8b94"/>
<path d="" class="polyStyle" id="440400" style="fill:#f6f67b"/>
<path d="" class="polyStyle" id="620000" style="fill:#f6f67b"/>
<path d="" class="polyStyle" id="430000" style="fill:#fbe6ef"/>
<path d="" class="polyStyle" id="420000" style="fill:#ee8b94"/>
<path d="" class="polyStyle" id="410000" style="fill:#f6f67b"/>
<path d="" class="polyStyle" id="350000" style="fill:#fbe6ef"/>
<path d="" class="polyStyle" id="520000" style="fill:#f6f67b"/>
<path d="" class="polyStyle" id="" style="fill:#ee8b94"/>
</svg>
