<?xml version="1.0" encoding="UTF-8"?>
<!DOCTYPE svg PUBLIC "-//W3C//DTD SVG 1.1 Tiny//EN" "http://www.w3.org/Graphics/SVG/1.1/DTD/svg11-tiny.dtd">
<svg version="1.1" xmlns="http://www.w3.org/2000/svg" xmlns:xlink="http://www.w3.org/1999/xlink" width="100%" height="100%" viewBox="0,0,7783,8804">
<title>SVG</title>
<desc>Poligon Test</desc>
<style id="style_css_sheet" type="text/css">
.polyStyle{fill: #cccccc;stroke-width:0;fill-rule:evenodd;}
</style>
<circle cx="974" cy="6231" r="200" stroke="black" stroke-width="1" fill="red" id="451481"position="33" name="凭祥市"/>
<circle cx="2906" cy="1381" r="200" stroke="black" stroke-width="1" fill="red" id="451425" name="天等县"/>
<circle cx="6753" cy="3602" r="200" stroke="black" stroke-width="1" fill="red" id="451421" name="扶绥县"/>
<circle cx="2526" cy="6099" r="200" stroke="black" stroke-width="1" fill="red" id="451422" name="宁明县"/>
<circle cx="1463" cy="5049" r="200" stroke="black" stroke-width="1" fill="red" id="451423" name="龙州县"/>
<circle cx="3191" cy="2611" r="200" stroke="black" stroke-width="1" fill="red" id="451424" name="大新县"/>
<circle cx="3960" cy="4738" r="200" stroke="black" stroke-width="1" fill="red" id="451402" name="江州区"/>
<path d="" class="polyStyle" id="" style="fill:#ee8b94"/>
<path d="" class="polyStyle" id="623022" style="fill:#fbe6ef"/>
<path d="" class="polyStyle" id="211421" style="fill:#f6f67b"/>
<path d="" class="polyStyle" id="532524" style="fill:#ee8b94"/>
<path d="" class="polyStyle" id="440825" style="fill:#f6f67b"/>
<path d="" class="polyStyle" id="441721" style="fill:#f6f67b"/>
<path d="" class="polyStyle" id="450521" style="fill:#f6f67b"/>
<polygon points="2797,4902 2814,4925 2818,4929 2828,4935 2863,4939 2871,4945 2880,4946 2901,4943 2917,4938 2938,4937 2954,4934 2970,4925 2996,4924 3014,4928 3024,4934 3035,4938 3033,4946 3031,4980 3033,5012 3035,5025 3038,5036 3042,5043 3041,5051 3028,5066 3024,5074 3025,5084 3029,5097 3031,5104 3031,5116 3038,5124 3044,5129 3066,5132 3074,5133 3081,5134 3097,5125 3107,5122 3111,5118 3111,5113 3107,5107 3097,5099 3089,5088 3089,5081 3094,5070 3114,5051 3129,5039 3137,5032 3138,5027 3134,5020 3127,5013 3119,5008 3113,5005 3112,5001 3112,4994 3118,4993 3131,4997 3141,4998 3147,4997 3160,4989 3171,4982 3177,4984 3180,4990 3182,5007 3183,5025 3184,5035 3190,5046 3195,5051 3202,5053 3209,5052 3216,5048 3225,5033 3234,5016 3245,5004 3255,5001 3267,5000 3287,4999 3311,5000 3331,5004 3346,5011 3362,5021 3374,5035 3378,5046 3383,5063 3385,5081 3389,5091 3390,5098 3403,5117 3410,5125 3414,5128 3419,5133 3428,5137 3437,5140 3443,5141 3472,5143 3480,5143 3493,5137 3502,5132 3506,5128 3508,5125 3516,5097 3535,5077 3538,5070 3543,5063 3557,5070 3564,5076 3575,5077 3580,5074 3597,5071 3605,5073 3618,5080 3624,5087 3627,5101 3631,5104 3639,5107 3646,5110 3649,5113 3648,5117 3634,5126 3631,5132 3631,5142 3634,5151 3646,5167 3647,5172 3637,5181 3631,5198 3630,5201 3630,5209 3633,5212 3638,5212 3640,5215 3632,5239 3627,5246 3615,5253 3607,5259 3600,5269 3587,5264 3576,5267 3571,5274 3571,5293 3570,5305 3562,5315 3551,5318 3544,5310 3540,5297 3535,5294 3526,5297 3518,5306 3513,5318 3509,5331 3511,5348 3519,5364 3536,5384 3545,5397 3545,5408 3542,5416 3531,5427 3518,5435 3511,5446 3506,5452 3497,5453 3484,5452 3475,5447 3466,5441 3458,5439 3453,5442 3454,5456 3449,5460 3439,5463 3435,5473 3437,5494 3444,5502 3448,5511 3452,5520 3463,5532 3469,5541 3469,5545 3469,5560 3469,5583 3466,5595 3460,5609 3449,5624 3434,5636 3428,5650 3431,5661 3439,5670 3445,5675 3452,5679 3459,5684 3467,5692 3483,5696 3504,5698 3512,5698 3521,5695 3534,5690 3568,5693 3572,5686 3576,5677 3583,5675 3592,5679 3597,5684 3597,5692 3597,5702 3615,5713 3635,5716 3656,5715 3663,5709 3672,5698 3679,5694 3686,5697 3693,5711 3700,5718 3714,5724 3724,5725 3729,5724 3747,5718 3760,5720 3776,5727 3790,5743 3804,5748 3821,5756 3837,5774 3858,5787 3862,5793 3864,5801 3854,5816 3852,5826 3855,5834 3865,5848 3863,5853 3860,5857 3851,5869 3849,5876 3853,5907 3863,5917 3873,5922 3891,5924 3914,5924 3939,5920 3980,5907 3997,5908 4022,5908 4039,5905 4056,5899 4073,5892 4086,5881 4100,5863 4111,5848 4113,5842 4123,5840 4141,5844 4153,5849 4164,5846 4180,5835 4194,5821 4203,5817 4214,5821 4231,5833 4243,5847 4252,5854 4266,5857 4288,5856 4302,5853 4312,5844 4321,5825 4326,5816 4335,5816 4347,5819 4365,5820 4378,5821 4383,5816 4385,5809 4384,5797 4385,5788 4390,5779 4398,5775 4410,5774 4418,5777 4434,5783 4459,5784 4473,5782 4483,5777 4491,5760 4498,5752 4506,5750 4514,5759 4528,5762 4542,5759 4554,5767 4565,5786 4581,5801 4625,5808 4658,5809 4682,5806 4697,5797 4708,5789 4709,5785 4707,5773 4718,5761 4728,5749 4727,5737 4718,5715 4718,5706 4735,5714 4750,5711 4759,5705 4766,5706 4765,5721 4768,5735 4778,5742 4784,5749 4780,5782 4776,5799 4769,5818 4753,5841 4748,5851 4754,5858 4761,5868 4766,5884 4768,5897 4765,5910 4762,5916 4759,5919 4751,5928 4741,5946 4738,5960 4740,5972 4745,5980 4756,5988 4769,5992 4784,6000 4804,6008 4812,6009 4820,6007 4830,5994 4837,5986 4845,5981 4856,5983 4863,5981 4874,5985 4887,5984 4895,5981 4900,5983 4909,5986 4916,5986 4926,5983 4934,5978 4942,5979 4956,5982 4968,5981 4976,5978 4980,5977 4986,5984 4994,5985 4999,5981 5004,5969 5006,5956 5009,5931 5013,5911 5028,5887 5026,5870 5027,5857 5037,5839 5055,5815 5073,5797 5090,5781 5100,5777 5113,5779 5122,5787 5123,5798 5121,5811 5136,5809 5151,5808 5165,5813 5184,5825 5199,5836 5212,5851 5227,5857 5245,5859 5257,5863 5272,5859 5280,5846 5295,5840 5313,5836 5329,5836 5338,5834 5346,5833 5350,5841 5355,5871 5367,5914 5375,5948 5384,5983 5400,6037 5418,6080 5410,6099 5426,6120 5470,6152 5482,6160 5494,6151 5504,6150 5507,6147 5529,6148 5535,6151 5545,6171 5552,6190 5551,6198 5539,6205 5506,6210 5491,6235 5493,6261 5497,6264 5505,6277 5507,6284 5507,6297 5506,6302 5502,6308 5499,6312 5503,6314 5519,6330 5539,6348 5548,6353 5556,6356 5569,6356 5584,6352 5595,6353 5599,6356 5599,6364 5598,6369 5588,6381 5561,6409 5552,6433 5547,6441 5537,6449 5524,6453 5496,6454 5491,6455 5485,6462 5478,6477 5479,6484 5481,6488 5493,6498 5493,6503 5488,6507 5480,6507 5467,6501 5454,6496 5451,6494 5444,6495 5438,6499 5437,6502 5438,6514 5445,6524 5455,6536 5463,6548 5469,6561 5468,6576 5465,6586 5459,6591 5452,6592 5446,6588 5442,6576 5438,6568 5434,6565 5426,6565 5411,6568 5392,6573 5376,6584 5375,6588 5376,6597 5385,6606 5390,6610 5395,6616 5394,6625 5391,6631 5383,6637 5375,6640 5372,6641 5341,6642 5335,6643 5324,6652 5321,6660 5321,6678 5322,6684 5321,6691 5320,6698 5310,6708 5303,6710 5291,6713 5286,6715 5282,6719 5283,6731 5287,6739 5286,6747 5284,6751 5279,6754 5272,6757 5261,6757 5250,6759 5229,6771 5222,6778 5219,6787 5217,6806 5215,6812 5211,6815 5206,6814 5200,6811 5195,6812 5190,6816 5185,6833 5183,6837 5173,6846 5162,6851 5153,6856 5140,6868 5136,6878 5128,6887 5109,6892 5107,6898 5109,6902 5115,6907 5119,6911 5122,6913 5127,6920 5128,6926 5123,6930 5115,6932 5088,6942 5086,6948 5092,6954 5095,6956 5098,6959 5104,6967 5103,6973 5093,6982 5081,6994 5075,7008 5076,7017 5078,7021 5082,7027 5085,7037 5087,7051 5100,7065 5121,7083 5120,7089 5117,7090 5111,7092 5089,7091 5076,7088 5064,7090 5057,7097 5048,7121 5043,7125 5037,7125 5023,7117 5010,7110 5002,7111 4998,7114 4999,7125 5004,7137 5004,7151 5002,7156 4993,7169 4978,7185 4977,7191 4979,7196 4983,7199 5000,7213 5005,7218 5004,7227 5003,7232 4991,7244 4987,7247 4976,7251 4959,7263 4956,7269 4937,7300 4919,7332 4919,7342 4933,7360 4939,7360 4947,7361 4954,7364 4961,7366 4969,7368 4978,7373 4987,7382 4994,7391 5001,7404 5006,7412 5009,7420 5013,7426 5021,7430 5029,7437 5038,7444 5044,7451 5048,7459 5046,7470 5043,7480 5041,7488 5042,7495 5046,7511 5056,7525 5066,7546 5064,7558 5058,7566 5047,7573 5015,7594 4990,7619 4976,7630 4971,7636 4967,7652 4969,7663 4976,7671 4980,7681 4977,7690 4969,7697 4960,7703 4956,7710 4956,7723 4959,7737 4963,7747 4967,7757 4984,7769 4999,7783 5018,7796 5034,7804 5054,7811 5064,7819 5063,7824 5054,7835 5049,7842 5042,7852 5029,7857 5014,7866 5010,7873 4992,7902 4981,7918 4964,7939 4949,7949 4942,7959 4948,7971 4959,7990 4971,8010 4971,8019 4965,8024 4964,8028 4970,8035 4971,8046 4967,8055 4969,8065 4989,8098 4997,8118 5000,8132 4997,8142 4995,8144 4992,8150 4981,8156 4952,8163 4925,8170 4914,8177 4910,8189 4911,8204 4902,8216 4880,8230 4859,8246 4849,8255 4820,8283 4803,8303 4791,8325 4781,8348 4766,8358 4751,8368 4739,8380 4735,8382 4731,8383 4718,8382 4709,8383 4702,8386 4695,8390 4693,8394 4693,8397 4697,8404 4718,8414 4729,8422 4735,8429 4737,8437 4738,8445 4735,8453 4711,8469 4689,8476 4670,8485 4651,8490 4629,8494 4586,8475 4541,8469 4503,8482 4472,8500 4420,8526 4391,8535 4347,8566 4308,8599 4289,8636 4254,8677 4206,8712 4200,8745 4164,8775 4130,8804 4099,8801 4064,8790 4031,8778 4019,8741 4013,8715 4005,8685 4011,8650 4021,8606 4026,8579 4026,8545 4023,8513 4019,8469 3999,8431 3959,8389 3943,8356 3914,8332 3901,8305 3875,8273 3857,8250 3834,8216 3826,8189 3812,8162 3787,8134 3767,8117 3751,8089 3725,8067 3673,8097 3648,8124 3612,8118 3573,8132 3541,8157 3510,8177 3481,8207 3471,8255 3443,8262 3385,8250 3337,8235 3298,8221 3248,8200 3214,8173 3206,8149 3198,8124 3184,8092 3165,8061 3135,8043 3100,8037 3074,8026 3046,8020 3010,8003 2953,7978 2907,7952 2882,7906 2842,7890 2814,7855 2775,7815 2743,7812 2716,7805 2688,7782 2665,7763 2648,7741 2611,7735 2578,7737 2524,7734 2468,7724 2433,7719 2405,7711 2381,7699 2347,7683 2318,7672 2290,7657 2249,7625 2245,7584 2250,7557 2270,7528 2293,7495 2332,7461 2367,7452 2401,7420 2426,7397 2482,7384 2504,7358 2515,7333 2521,7298 2521,7255 2523,7229 2513,7200 2471,7145 2441,7125 2397,7101 2373,7078 2344,7061 2306,7057 2265,7047 2234,7039 2208,7025 2179,7043 2188,7070 2152,7088 2143,7114 2118,7153 2089,7170 2051,7180 2020,7188 1996,7183 1974,7174 1934,7162 1877,7125 1863,7091 1843,7046 1835,7014 1831,6974 1819,6931 1801,6912 1803,6902 1800,6892 1800,6882 1802,6873 1806,6866 1809,6860 1816,6857 1821,6858 1827,6861 1831,6866 1834,6870 1840,6870 1844,6866 1848,6860 1852,6854 1859,6852 1866,6850 1872,6848 1880,6849 1887,6852 1894,6856 1901,6861 1908,6870 1915,6879 1922,6885 1927,6889 1931,6890 1937,6889 1942,6882 1947,6879 1957,6875 1964,6874 1974,6876 1981,6876 1985,6876 1990,6873 1993,6870 1997,6863 1999,6854 2002,6844 2006,6837 2014,6831 2021,6827 2024,6822 2025,6814 2027,6787 2047,6777 2059,6772 2077,6769 2095,6765 2105,6761 2113,6755 2118,6747 2120,6737 2120,6725 2108,6707 2091,6691 2082,6684 2076,6680 2068,6670 2062,6656 2055,6639 2050,6628 2047,6621 2043,6610 2042,6598 2045,6590 2068,6576 2077,6574 2088,6570 2091,6566 2185,6545 2200,6533 2207,6512 2205,6484 2208,6480 2199,6464 2194,6457 2193,6448 2192,6443 2185,6432 2176,6427 2167,6424 2165,6419 2164,6409 2169,6393 2169,6372 2169,6363 2169,6347 2163,6325 2154,6303 2142,6294 2128,6287 2111,6284 2094,6284 2069,6285 2056,6285 2035,6283 2015,6275 2002,6273 1992,6267 1985,6255 1976,6242 1971,6236 1972,6218 1990,6170 1997,6131 1990,6106 1977,6093 1967,6083 1956,6078 1948,6068 1943,6055 1944,6046 1946,6032 1952,6017 1969,5998 1973,5980 1983,5963 2001,5942 2017,5927 2028,5922 2056,5911 2069,5902 2080,5897 2092,5893 2118,5876 2124,5866 2125,5854 2125,5845 2107,5826 2106,5821 2099,5816 2094,5797 2092,5775 2094,5763 2094,5754 2082,5749 2068,5743 2063,5732 2062,5722 2036,5718 2026,5713 2028,5708 2030,5705 2031,5692 2037,5681 2041,5678 2052,5674 2065,5665 2075,5654 2098,5637 2106,5628 2109,5623 2114,5604 2117,5601 2126,5600 2130,5597 2135,5588 2134,5581 2139,5571 2155,5564 2169,5559 2177,5554 2180,5550 2188,5526 2188,5517 2186,5501 2182,5493 2175,5483 2174,5471 2177,5462 2180,5450 2179,5435 2177,5421 2181,5412 2181,5404 2179,5395 2167,5386 2149,5376 2137,5366 2135,5359 2139,5353 2146,5350 2156,5351 2170,5357 2187,5368 2197,5373 2214,5377 2227,5380 2230,5387 2232,5397 2233,5406 2231,5413 2223,5420 2217,5429 2216,5437 2216,5446 2219,5453 2221,5456 2225,5462 2242,5468 2256,5473 2268,5479 2279,5482 2290,5487 2310,5488 2331,5484 2340,5486 2352,5483 2368,5477 2390,5469 2406,5466 2421,5464 2429,5456 2435,5452 2445,5453 2464,5457 2473,5454 2483,5447 2490,5436 2497,5426 2507,5421 2518,5414 2523,5405 2542,5399 2570,5380 2578,5379 2589,5384 2596,5384 2600,5382 2607,5367 2615,5353 2618,5345 2613,5333 2603,5325 2603,5311 2606,5297 2604,5290 2594,5285 2590,5280 2590,5269 2586,5253 2583,5249 2579,5249 2571,5253 2568,5252 2565,5248 2563,5242 2557,5211 2551,5206 2515,5190 2499,5190 2496,5189 2490,5184 2483,5170 2482,5159 2488,5141 2488,5138 2480,5125 2478,5118 2480,5112 2490,5105 2525,5089 2552,5075 2564,5063 2574,5050 2594,5037 2598,5032 2603,5030 2611,5024 2617,5014 2619,4997 2622,4988 2632,4971 2645,4952 2652,4942 2656,4938 2660,4938 2669,4944 2677,4949 2684,4950 2692,4945 2694,4939 2696,4930 2696,4927 2697,4916 2697,4909 2700,4907 2709,4907 2720,4910 2729,4913 2733,4915 2736,4916 2746,4919 2749,4918 2753,4903 2758,4901 2780,4898 2793,4899 " class="polyStyle" id="451422" style="fill:#fbe6ef"/>
<polygon points="1125,3084 1131,3092 1136,3092 1144,3086 1149,3085 1162,3084 1174,3074 1181,3075 1200,3085 1211,3097 1213,3107 1212,3116 1210,3120 1199,3123 1190,3123 1182,3125 1181,3130 1183,3136 1189,3143 1194,3149 1197,3155 1205,3158 1208,3168 1217,3172 1230,3178 1233,3184 1242,3191 1259,3196 1268,3201 1269,3206 1261,3215 1262,3225 1284,3235 1286,3244 1281,3258 1289,3262 1297,3263 1310,3256 1327,3251 1344,3255 1358,3254 1362,3259 1362,3262 1356,3269 1351,3273 1341,3277 1334,3282 1336,3290 1342,3294 1359,3301 1377,3313 1391,3322 1402,3328 1413,3359 1425,3373 1441,3389 1467,3390 1475,3389 1491,3388 1500,3390 1506,3393 1508,3397 1508,3402 1503,3406 1493,3408 1489,3407 1483,3409 1480,3418 1483,3428 1499,3442 1515,3448 1527,3450 1543,3460 1557,3465 1582,3468 1592,3474 1597,3483 1587,3490 1585,3494 1586,3502 1590,3514 1587,3526 1588,3532 1598,3539 1610,3547 1619,3552 1623,3551 1641,3535 1653,3529 1669,3535 1684,3547 1694,3559 1705,3567 1715,3578 1721,3582 1728,3586 1732,3587 1744,3598 1759,3610 1776,3628 1780,3636 1780,3645 1776,3655 1772,3662 1769,3670 1771,3677 1778,3681 1786,3680 1801,3681 1816,3684 1824,3685 1834,3682 1843,3666 1855,3670 1866,3682 1862,3693 1862,3699 1868,3706 1877,3715 1885,3715 1917,3698 1923,3696 1931,3695 1944,3699 1949,3702 1955,3702 1967,3690 1974,3687 1987,3692 2000,3685 2001,3701 2004,3709 2012,3716 2032,3723 2043,3728 2060,3731 2069,3728 2076,3724 2082,3710 2088,3707 2106,3712 2128,3718 2133,3741 2141,3749 2151,3757 2161,3758 2171,3756 2188,3764 2200,3769 2204,3773 2207,3783 2231,3791 2243,3799 2251,3802 2272,3802 2276,3805 2280,3808 2280,3815 2276,3821 2270,3827 2243,3841 2233,3853 2228,3869 2228,3879 2231,3895 2239,3911 2242,3917 2252,3939 2259,3948 2278,3958 2290,3968 2296,3980 2301,3989 2310,3992 2314,3998 2314,4029 2318,4035 2327,4034 2341,4030 2359,4027 2368,4027 2374,4027 2379,4023 2385,4020 2390,4019 2394,4023 2397,4034 2402,4048 2406,4058 2410,4065 2418,4071 2421,4080 2422,4088 2415,4129 2414,4142 2416,4149 2421,4153 2427,4153 2448,4134 2465,4130 2476,4130 2488,4137 2496,4146 2505,4153 2515,4153 2537,4147 2554,4148 2560,4149 2567,4153 2574,4163 2574,4173 2569,4183 2571,4190 2572,4194 2581,4198 2584,4204 2585,4210 2587,4215 2588,4223 2587,4230 2582,4238 2580,4246 2583,4256 2588,4265 2589,4273 2594,4284 2604,4284 2611,4284 2629,4282 2643,4285 2668,4294 2670,4284 2672,4278 2676,4274 2684,4276 2690,4279 2695,4290 2708,4291 2711,4286 2716,4281 2729,4278 2744,4276 2759,4274 2768,4272 2774,4272 2778,4275 2777,4280 2772,4288 2772,4296 2776,4302 2784,4297 2797,4291 2804,4285 2810,4282 2821,4284 2829,4282 2838,4280 2843,4282 2845,4287 2845,4296 2844,4304 2861,4308 2855,4321 2857,4331 2861,4339 2867,4341 2867,4350 2857,4357 2855,4366 2860,4381 2869,4390 2879,4394 2892,4401 2900,4415 2900,4428 2901,4439 2904,4445 2914,4448 2921,4452 2926,4461 2930,4470 2943,4499 2956,4517 2961,4521 2967,4525 2976,4526 2997,4523 3016,4519 3020,4516 3021,4513 3020,4502 3018,4486 3019,4471 3025,4467 3035,4468 3049,4471 3067,4466 3074,4469 3081,4481 3091,4491 3100,4493 3114,4493 3132,4488 3142,4484 3146,4480 3156,4482 3169,4489 3180,4492 3194,4494 3219,4485 3235,4487 3235,4494 3229,4513 3223,4522 3217,4544 3219,4548 3230,4551 3246,4549 3256,4547 3272,4547 3278,4548 3283,4554 3283,4565 3281,4571 3274,4580 3269,4585 3261,4588 3245,4600 3243,4604 3245,4614 3250,4622 3257,4646 3256,4662 3253,4671 3245,4681 3231,4694 3213,4706 3201,4710 3187,4710 3183,4712 3175,4718 3160,4739 3157,4746 3145,4762 3140,4764 3132,4764 3110,4759 3102,4760 3096,4763 3089,4773 3078,4782 3069,4789 3065,4790 3048,4797 3043,4802 3042,4812 3041,4817 3045,4819 3056,4817 3059,4821 3056,4832 3053,4840 3048,4846 3046,4854 3044,4859 3047,4866 3052,4874 3059,4882 3065,4889 3067,4895 3064,4902 3057,4911 3052,4920 3042,4929 3035,4938 3024,4934 3014,4928 2996,4924 2970,4925 2954,4934 2938,4937 2917,4938 2901,4943 2880,4946 2871,4945 2863,4939 2828,4935 2818,4929 2814,4925 2797,4902 2793,4899 2780,4898 2758,4901 2753,4903 2749,4918 2746,4919 2736,4916 2733,4915 2729,4913 2720,4910 2709,4907 2700,4907 2697,4909 2697,4916 2696,4927 2696,4930 2694,4939 2692,4945 2684,4950 2677,4949 2669,4944 2660,4938 2656,4938 2652,4942 2645,4952 2632,4971 2622,4988 2619,4997 2617,5014 2611,5024 2603,5030 2598,5032 2594,5037 2574,5050 2564,5063 2552,5075 2525,5089 2490,5105 2480,5112 2478,5118 2480,5125 2488,5138 2488,5141 2482,5159 2483,5170 2490,5184 2496,5189 2499,5190 2515,5190 2551,5206 2557,5211 2563,5242 2565,5248 2568,5252 2571,5253 2579,5249 2583,5249 2586,5253 2590,5269 2590,5280 2594,5285 2604,5290 2606,5297 2603,5311 2603,5325 2613,5333 2618,5345 2615,5353 2607,5367 2600,5382 2596,5384 2589,5384 2578,5379 2570,5380 2542,5399 2523,5405 2518,5414 2507,5421 2497,5426 2490,5436 2483,5447 2473,5454 2464,5457 2445,5453 2435,5452 2429,5456 2421,5464 2406,5466 2390,5469 2368,5477 2352,5483 2340,5486 2331,5484 2310,5488 2290,5487 2279,5482 2268,5479 2256,5473 2242,5468 2225,5462 2221,5456 2219,5453 2216,5446 2216,5437 2217,5429 2223,5420 2231,5413 2233,5406 2232,5397 2230,5387 2227,5380 2214,5377 2197,5373 2187,5368 2170,5357 2156,5351 2146,5350 2139,5353 2135,5359 2137,5366 2149,5376 2167,5386 2179,5395 2181,5404 2181,5412 2177,5421 2179,5435 2180,5450 2177,5462 2174,5471 2175,5483 2182,5493 2186,5501 2188,5517 2188,5526 2180,5550 2177,5554 2169,5559 2155,5564 2139,5571 2134,5581 2135,5588 2130,5597 2126,5600 2117,5601 2114,5604 2109,5623 2106,5628 2098,5637 2075,5654 2065,5665 2052,5674 2041,5678 2037,5681 2031,5692 2030,5705 2028,5708 2026,5713 2023,5719 2011,5732 1997,5742 1961,5750 1943,5750 1930,5747 1920,5741 1918,5737 1912,5732 1906,5735 1894,5746 1885,5753 1846,5769 1844,5772 1841,5780 1835,5788 1805,5805 1795,5814 1794,5821 1796,5824 1809,5838 1809,5845 1805,5859 1797,5878 1792,5899 1787,5904 1773,5915 1756,5933 1736,5949 1724,5955 1701,5965 1693,5972 1685,5980 1679,5984 1674,5984 1669,5980 1666,5972 1659,5962 1655,5958 1649,5956 1644,5952 1643,5929 1639,5924 1633,5919 1627,5919 1623,5921 1607,5936 1597,5939 1569,5933 1562,5933 1517,5942 1512,5945 1508,5948 1504,5960 1484,5984 1462,6015 1457,6018 1448,6021 1440,6020 1418,6021 1402,6035 1390,6040 1370,6044 1352,6044 1336,6040 1325,6035 1316,6030 1311,6028 1303,6028 1292,6030 1282,6030 1276,6025 1269,6015 1260,6008 1251,6006 1242,6005 1225,6013 1219,6013 1212,6009 1207,5987 1202,5985 1174,5980 1159,5984 1142,5984 1134,5982 1128,5975 1124,5964 1121,5950 1121,5938 1127,5929 1140,5923 1145,5920 1149,5918 1155,5916 1177,5917 1189,5915 1206,5907 1214,5901 1221,5894 1225,5887 1233,5862 1233,5847 1231,5833 1228,5827 1217,5813 1210,5812 1192,5825 1173,5832 1162,5832 1148,5826 1138,5814 1125,5807 1111,5809 1083,5821 1072,5821 1054,5818 1038,5818 1031,5812 1024,5797 1014,5783 1003,5774 998,5775 990,5780 969,5793 966,5798 957,5804 947,5805 936,5797 929,5781 927,5776 923,5768 918,5763 917,5759 914,5755 901,5749 886,5749 877,5740 870,5732 868,5722 869,5717 874,5703 887,5690 887,5687 882,5684 869,5676 866,5672 863,5668 864,5658 869,5645 874,5633 875,5627 873,5616 871,5608 866,5601 855,5589 838,5578 829,5568 823,5558 820,5547 820,5535 825,5513 826,5485 818,5476 810,5473 783,5470 772,5466 763,5460 745,5440 734,5433 710,5428 691,5418 677,5417 660,5380 619,5371 575,5367 557,5340 563,5302 556,5271 549,5235 544,5216 530,5180 524,5153 519,5119 500,5106 456,5086 423,5084 396,5089 366,5099 340,5102 305,5104 268,5106 227,5106 208,5106 183,5110 155,5113 115,5114 65,5091 26,5066 0,5042 8,5015 17,4979 31,4949 55,4932 86,4928 118,4916 144,4899 149,4861 120,4825 83,4793 68,4768 60,4746 50,4721 49,4706 46,4681 52,4650 54,4621 41,4594 16,4559 19,4529 15,4482 27,4454 55,4418 87,4403 117,4424 126,4421 138,4415 143,4410 145,4405 145,4395 142,4387 138,4377 136,4367 136,4354 135,4331 138,4325 138,4312 136,4308 131,4296 130,4290 129,4282 129,4263 133,4236 134,4221 135,4191 139,4184 151,4171 156,4161 164,4141 169,4125 176,4096 181,4061 181,4053 181,4033 200,3987 200,3977 203,3950 205,3916 207,3890 215,3864 227,3849 236,3821 253,3794 275,3764 311,3749 349,3748 374,3761 391,3792 395,3818 417,3849 439,3879 473,3891 496,3897 544,3889 572,3887 615,3891 648,3897 687,3902 719,3908 753,3902 775,3886 806,3870 833,3853 846,3825 856,3793 846,3757 820,3745 798,3717 814,3693 836,3665 845,3637 848,3608 862,3571 883,3544 890,3524 909,3482 939,3442 973,3428 991,3416 1012,3387 1004,3340 1019,3316 1049,3298 1072,3269 1114,3253 1093,3220 1059,3212 1038,3152 1037,3131 1073,3105 1089,3076 1099,3066 1118,3073 " class="polyStyle" id="451423" style="fill:#f6f67b"/>
<polygon points="5817,2051 5835,2068 5859,2073 5883,2066 5903,2055 5916,2052 5926,2052 5940,2063 5945,2068 5949,2077 5960,2096 5967,2118 5967,2151 5968,2161 5977,2166 5989,2173 6026,2195 6028,2204 6035,2211 6040,2225 6046,2233 6059,2237 6069,2249 6076,2263 6088,2281 6107,2303 6121,2318 6138,2325 6148,2332 6157,2353 6172,2367 6188,2370 6220,2382 6228,2382 6235,2381 6247,2377 6251,2377 6254,2377 6261,2380 6268,2383 6274,2392 6284,2397 6298,2394 6312,2391 6329,2392 6349,2403 6367,2408 6389,2407 6418,2409 6451,2403 6456,2402 6485,2405 6504,2406 6522,2413 6540,2428 6552,2446 6565,2465 6572,2471 6581,2473 6591,2477 6600,2486 6614,2514 6620,2523 6628,2527 6635,2528 6671,2530 6714,2535 6719,2536 6739,2538 6766,2541 6776,2541 6806,2538 6813,2538 6858,2540 6870,2541 6876,2541 6893,2538 6897,2538 6902,2537 6911,2538 6925,2540 6933,2542 6936,2543 6950,2548 6970,2552 6983,2552 6993,2556 7009,2565 7025,2577 7044,2588 7059,2599 7065,2608 7067,2622 7071,2631 7080,2640 7092,2649 7104,2654 7111,2661 7115,2670 7114,2689 7104,2713 7094,2733 7090,2752 7082,2772 7083,2776 7089,2784 7089,2789 7086,2793 7075,2795 7071,2800 7072,2806 7078,2818 7086,2825 7094,2826 7110,2820 7134,2821 7168,2823 7202,2830 7227,2849 7237,2848 7245,2846 7254,2846 7257,2846 7270,2851 7283,2857 7309,2857 7311,2860 7315,2862 7324,2863 7327,2861 7331,2856 7344,2850 7352,2852 7356,2866 7360,2873 7368,2880 7370,2885 7371,2890 7371,2906 7367,2912 7359,2918 7347,2924 7344,2924 7336,2931 7330,2931 7325,2928 7318,2925 7307,2921 7303,2920 7299,2922 7297,2925 7295,2932 7297,2955 7299,2958 7304,2961 7316,2961 7316,2972 7308,2978 7301,2987 7301,2990 7306,2992 7309,2994 7313,2997 7314,3002 7314,3011 7322,3027 7327,3030 7333,3031 7339,3032 7340,3036 7328,3046 7316,3051 7303,3062 7301,3065 7300,3085 7294,3099 7294,3102 7298,3105 7297,3110 7293,3113 7282,3116 7276,3119 7269,3125 7269,3129 7277,3134 7276,3138 7275,3142 7267,3151 7266,3156 7267,3160 7269,3167 7267,3171 7263,3171 7255,3169 7247,3167 7243,3167 7240,3169 7236,3171 7231,3173 7227,3173 7220,3176 7213,3181 7203,3189 7199,3199 7197,3215 7197,3230 7211,3237 7216,3242 7219,3247 7218,3253 7216,3256 7211,3261 7207,3265 7202,3273 7198,3301 7200,3311 7204,3322 7211,3336 7227,3351 7233,3356 7236,3363 7245,3363 7249,3363 7273,3363 7283,3366 7304,3376 7318,3385 7320,3391 7326,3400 7333,3418 7335,3432 7338,3439 7345,3443 7361,3448 7382,3459 7397,3473 7411,3494 7427,3495 7447,3490 7456,3487 7459,3483 7457,3475 7459,3469 7471,3461 7494,3458 7497,3454 7498,3449 7502,3444 7517,3441 7539,3439 7547,3436 7559,3428 7569,3413 7578,3395 7580,3375 7577,3338 7572,3325 7576,3302 7582,3294 7599,3290 7620,3266 7629,3262 7633,3263 7641,3281 7640,3291 7642,3296 7649,3301 7656,3315 7654,3328 7658,3342 7672,3361 7676,3370 7674,3378 7666,3387 7656,3386 7651,3389 7649,3404 7656,3425 7683,3448 7687,3450 7695,3449 7700,3454 7703,3459 7700,3471 7700,3476 7704,3479 7710,3479 7719,3480 7723,3483 7726,3491 7727,3502 7727,3510 7718,3515 7715,3521 7713,3528 7720,3545 7721,3554 7721,3557 7716,3561 7709,3560 7705,3562 7700,3573 7697,3577 7686,3587 7687,3592 7689,3598 7685,3602 7676,3614 7667,3622 7656,3633 7643,3649 7640,3659 7638,3663 7635,3666 7631,3666 7625,3660 7622,3659 7616,3661 7608,3664 7607,3667 7602,3672 7596,3672 7595,3669 7595,3663 7594,3657 7587,3656 7582,3654 7572,3644 7568,3645 7560,3649 7549,3653 7541,3664 7531,3674 7526,3674 7522,3673 7518,3673 7516,3679 7514,3683 7511,3684 7506,3682 7504,3676 7503,3667 7498,3657 7487,3658 7483,3659 7475,3664 7470,3664 7448,3665 7445,3669 7438,3674 7435,3675 7432,3677 7430,3680 7420,3687 7411,3693 7401,3697 7397,3697 7392,3696 7388,3692 7385,3693 7384,3697 7381,3702 7368,3706 7363,3710 7352,3719 7347,3720 7344,3719 7341,3719 7336,3725 7336,3732 7336,3736 7334,3739 7331,3740 7327,3741 7324,3742 7323,3739 7318,3737 7307,3735 7302,3730 7300,3726 7295,3723 7277,3715 7269,3717 7266,3717 7262,3718 7257,3718 7254,3726 7248,3730 7235,3734 7227,3763 7218,3767 7210,3793 7204,3801 7205,3804 7208,3818 7207,3828 7200,3829 7194,3832 7190,3840 7185,3854 7182,3864 7180,3872 7181,3880 7184,3890 7192,3898 7201,3908 7206,3914 7209,3921 7212,3924 7215,3929 7215,3941 7215,3949 7220,3954 7227,3966 7248,3968 7252,3973 7260,3979 7259,3984 7252,3988 7250,3994 7255,3999 7273,4001 7290,4023 7297,4033 7299,4062 7285,4062 7274,4063 7273,4070 7273,4099 7272,4106 7254,4128 7239,4143 7234,4150 7227,4179 7219,4181 7212,4182 7199,4180 7195,4183 7187,4194 7184,4201 7183,4208 7184,4212 7183,4219 7179,4226 7167,4234 7159,4240 7150,4243 7136,4249 7128,4259 7127,4265 7127,4273 7130,4275 7138,4274 7146,4270 7152,4268 7154,4272 7153,4281 7157,4290 7164,4297 7178,4303 7184,4310 7194,4314 7197,4314 7204,4308 7208,4304 7227,4300 7238,4294 7259,4287 7265,4287 7266,4290 7264,4306 7263,4313 7253,4324 7254,4330 7261,4346 7272,4362 7272,4368 7275,4377 7283,4384 7293,4387 7300,4385 7305,4376 7320,4372 7327,4378 7327,4386 7339,4390 7369,4388 7408,4380 7421,4373 7425,4377 7415,4385 7390,4395 7390,4398 7418,4400 7442,4411 7451,4411 7473,4415 7484,4418 7498,4422 7503,4433 7499,4448 7498,4453 7494,4456 7498,4463 7508,4467 7521,4472 7525,4476 7525,4480 7547,4489 7561,4487 7569,4483 7580,4471 7584,4469 7600,4464 7608,4466 7626,4474 7635,4475 7643,4481 7638,4498 7631,4505 7628,4510 7649,4512 7651,4532 7649,4545 7639,4549 7628,4549 7626,4567 7625,4571 7625,4584 7620,4589 7617,4597 7617,4603 7621,4608 7627,4618 7630,4628 7618,4643 7620,4652 7625,4665 7626,4687 7627,4690 7624,4707 7620,4710 7617,4713 7618,4717 7625,4719 7642,4721 7645,4727 7640,4739 7640,4743 7645,4747 7656,4742 7669,4741 7677,4741 7680,4724 7688,4719 7708,4726 7707,4732 7718,4744 7735,4760 7752,4769 7760,4773 7765,4779 7775,4782 7781,4797 7782,4814 7783,4830 7779,4836 7772,4833 7768,4824 7762,4822 7753,4825 7749,4830 7749,4842 7749,4848 7745,4859 7734,4872 7721,4883 7709,4890 7702,4894 7703,4910 7695,4911 7684,4908 7683,4915 7673,4913 7656,4911 7640,4916 7628,4923 7619,4929 7618,4936 7602,4950 7577,4960 7566,4968 7556,4977 7552,4984 7559,4995 7566,5003 7558,5007 7550,5001 7534,4995 7517,5005 7513,4997 7508,4980 7493,4975 7452,4981 7449,4984 7445,5014 7436,5024 7428,5021 7422,5017 7416,5022 7404,5047 7372,5086 7353,5103 7335,5108 7321,5105 7296,5096 7272,5103 7253,5091 7248,5089 7243,5089 7227,5109 7218,5118 7207,5124 7197,5131 7186,5136 7175,5141 7166,5147 7157,5156 7147,5158 7135,5159 7125,5163 7115,5173 7107,5183 7104,5194 7105,5205 7105,5214 7103,5220 7103,5224 7103,5229 7106,5235 7109,5238 7114,5241 7121,5243 7127,5247 7128,5252 7126,5256 7124,5257 7124,5262 7127,5265 7132,5267 7139,5273 7140,5276 7138,5282 7133,5288 7123,5292 7110,5298 7093,5301 7084,5311 7065,5321 7045,5330 7021,5335 7011,5342 7003,5351 7000,5359 7002,5373 6993,5377 6987,5382 6982,5391 6948,5410 6938,5422 6935,5429 6932,5442 6934,5456 6947,5487 6960,5514 6966,5522 6966,5527 6961,5532 6952,5534 6945,5535 6935,5537 6927,5537 6919,5530 6897,5513 6878,5504 6860,5497 6849,5502 6843,5510 6834,5519 6813,5526 6812,5529 6814,5548 6812,5556 6794,5568 6794,5574 6797,5588 6798,5605 6796,5612 6791,5616 6772,5623 6759,5630 6757,5637 6761,5645 6770,5656 6771,5668 6770,5706 6769,5715 6764,5721 6728,5733 6706,5744 6697,5749 6691,5749 6687,5744 6686,5737 6688,5705 6686,5693 6677,5688 6663,5683 6645,5677 6634,5675 6622,5675 6611,5683 6592,5703 6576,5716 6552,5721 6519,5724 6505,5724 6495,5721 6481,5716 6454,5709 6436,5708 6418,5708 6382,5712 6362,5712 6349,5709 6337,5703 6324,5692 6310,5681 6301,5681 6293,5684 6275,5692 6261,5697 6241,5701 6226,5727 6224,5731 6202,5745 6171,5752 6126,5752 6037,5748 6029,5752 6015,5751 5999,5751 5985,5757 5972,5762 5962,5762 5955,5754 5945,5749 5936,5748 5927,5750 5919,5755 5907,5762 5904,5765 5894,5767 5886,5771 5881,5777 5876,5790 5874,5812 5864,5827 5854,5837 5845,5839 5833,5835 5824,5827 5787,5815 5756,5813 5709,5818 5669,5830 5631,5840 5610,5846 5590,5846 5582,5846 5573,5849 5568,5855 5562,5861 5556,5863 5551,5863 5541,5860 5517,5856 5503,5856 5494,5850 5481,5840 5476,5839 5463,5837 5427,5840 5414,5838 5400,5827 5375,5814 5365,5811 5359,5815 5357,5823 5344,5831 5346,5833 5338,5834 5329,5836 5313,5836 5295,5840 5280,5846 5272,5859 5257,5863 5245,5859 5227,5857 5212,5851 5199,5836 5184,5825 5165,5813 5151,5808 5136,5809 5121,5811 5123,5798 5122,5787 5113,5779 5100,5777 5118,5750 5129,5736 5132,5726 5131,5719 5128,5710 5110,5689 5107,5687 5103,5687 5087,5697 5077,5702 5071,5702 5064,5698 5054,5688 5046,5674 5041,5664 5033,5652 5022,5640 5018,5635 5019,5627 5020,5618 5014,5606 5005,5595 4992,5585 4978,5573 4979,5569 4984,5565 4977,5545 4976,5537 4986,5520 4987,5516 4984,5515 4976,5516 4976,5513 4980,5501 4981,5489 4978,5485 4972,5470 4980,5469 4987,5468 5015,5463 5038,5451 5068,5425 5079,5413 5083,5401 5083,5387 5085,5379 5091,5374 5100,5373 5113,5375 5127,5373 5138,5365 5159,5363 5171,5363 5179,5358 5186,5348 5192,5343 5204,5343 5218,5342 5227,5335 5232,5329 5246,5326 5256,5327 5270,5333 5280,5344 5281,5356 5281,5366 5282,5372 5287,5376 5294,5374 5304,5370 5313,5364 5319,5355 5325,5350 5329,5346 5337,5345 5344,5339 5347,5329 5349,5316 5349,5307 5345,5298 5335,5285 5324,5271 5318,5261 5316,5258 5313,5256 5301,5260 5291,5261 5284,5259 5282,5255 5283,5242 5283,5224 5281,5208 5277,5197 5271,5193 5261,5189 5246,5176 5249,5163 5254,5150 5264,5135 5273,5123 5274,5117 5281,5114 5286,5113 5299,5120 5314,5122 5339,5124 5375,5118 5411,5118 5433,5114 5441,5109 5440,5100 5438,5090 5434,5081 5432,5070 5432,5056 5435,5044 5449,5023 5449,5015 5446,5006 5433,4980 5428,4967 5429,4950 5435,4935 5438,4921 5435,4908 5432,4888 5429,4850 5422,4802 5418,4787 5416,4779 5411,4768 5405,4763 5370,4764 5357,4762 5346,4764 5334,4764 5323,4755 5311,4758 5300,4753 5284,4742 5277,4743 5270,4747 5258,4745 5248,4740 5245,4735 5244,4719 5249,4709 5250,4702 5238,4691 5225,4661 5213,4650 5203,4642 5199,4635 5200,4629 5187,4622 5179,4623 5171,4631 5164,4629 5161,4615 5158,4612 5150,4614 5143,4614 5134,4616 5128,4613 5124,4603 5118,4597 5103,4596 5090,4599 5071,4597 5047,4590 5024,4581 5009,4581 4982,4574 4974,4570 4964,4563 4962,4555 4966,4546 4954,4537 4950,4539 4953,4543 4950,4549 4929,4539 4912,4535 4906,4531 4895,4506 4890,4496 4887,4487 4891,4474 4891,4466 4884,4457 4883,4444 4878,4441 4865,4441 4857,4435 4854,4428 4847,4418 4840,4420 4838,4417 4848,4397 4854,4393 4869,4386 4881,4375 4887,4364 4890,4353 4890,4348 4884,4342 4864,4331 4848,4321 4834,4309 4826,4296 4820,4284 4819,4272 4828,4261 4835,4246 4838,4228 4839,4219 4846,4214 4856,4214 4863,4218 4869,4222 4872,4232 4874,4243 4883,4253 4889,4260 4894,4268 4897,4280 4901,4290 4908,4299 4918,4294 4920,4287 4920,4281 4924,4275 4933,4273 4946,4266 4949,4258 4948,4250 4940,4243 4936,4239 4938,4232 4944,4229 4957,4228 4966,4222 4978,4215 4987,4209 4987,4204 4983,4198 4975,4195 4956,4194 4942,4190 4934,4190 4931,4187 4931,4181 4935,4175 4942,4169 4954,4163 4959,4159 4966,4156 4974,4152 4975,4147 4973,4142 4964,4134 4959,4127 4960,4121 4966,4116 4971,4114 4976,4117 4984,4121 4990,4122 4997,4121 5000,4126 5007,4135 5010,4145 5022,4154 5031,4160 5035,4161 5038,4159 5037,4156 5035,4148 5038,4142 5045,4136 5049,4130 5049,4118 5046,4107 5053,4098 5067,4093 5083,4096 5095,4094 5104,4088 5114,4081 5125,4070 5136,4062 5146,4058 5159,4058 5169,4060 5180,4066 5187,4076 5201,4080 5208,4080 5214,4077 5216,4070 5213,4054 5200,4034 5173,4016 5156,4001 5154,3992 5163,3980 5171,3968 5191,3956 5190,3949 5192,3942 5197,3934 5207,3929 5215,3929 5219,3931 5223,3939 5227,3949 5232,3958 5239,3953 5247,3940 5253,3928 5263,3918 5279,3912 5288,3911 5293,3913 5308,3926 5314,3929 5321,3927 5325,3922 5329,3907 5337,3909 5347,3914 5356,3921 5362,3928 5369,3930 5376,3925 5387,3914 5397,3907 5413,3900 5423,3893 5432,3882 5442,3868 5449,3859 5454,3851 5466,3852 5470,3856 5470,3863 5473,3873 5482,3884 5483,3892 5479,3900 5471,3899 5457,3894 5450,3894 5445,3903 5441,3914 5438,3926 5436,3934 5442,3942 5449,3949 5455,3954 5455,3962 5460,3967 5473,3972 5477,3977 5476,3987 5472,4003 5475,4011 5483,4015 5504,4015 5522,4016 5529,4015 5542,4006 5549,4004 5556,4013 5565,4015 5571,4012 5576,4004 5580,3987 5589,3974 5602,3963 5614,3956 5627,3942 5628,3931 5632,3929 5644,3936 5651,3944 5659,3946 5666,3945 5669,3940 5673,3928 5680,3925 5691,3929 5702,3926 5714,3916 5720,3915 5735,3921 5750,3917 5761,3915 5775,3923 5784,3921 5787,3914 5782,3901 5785,3892 5792,3889 5787,3881 5766,3859 5752,3850 5742,3849 5735,3846 5733,3837 5738,3830 5743,3827 5746,3822 5739,3812 5725,3802 5718,3807 5707,3818 5697,3819 5692,3817 5686,3810 5683,3801 5683,3790 5688,3783 5697,3777 5718,3760 5733,3742 5755,3708 5767,3695 5782,3685 5806,3680 5811,3675 5817,3666 5825,3659 5836,3656 5851,3660 5865,3659 5874,3654 5880,3643 5884,3632 5895,3628 5904,3623 5907,3617 5900,3608 5893,3599 5888,3588 5887,3578 5890,3569 5897,3564 5908,3560 5925,3558 5938,3559 5942,3558 5945,3553 5947,3541 5945,3530 5941,3519 5932,3509 5922,3502 5914,3498 5909,3487 5910,3475 5928,3453 5941,3440 5947,3438 5958,3441 5964,3439 5966,3434 5966,3426 5963,3418 5968,3410 5978,3408 5991,3411 6000,3420 6006,3433 6012,3440 6021,3443 6030,3441 6040,3436 6047,3428 6052,3427 6063,3437 6067,3438 6080,3435 6101,3433 6119,3426 6133,3425 6142,3431 6149,3449 6158,3451 6169,3441 6186,3440 6193,3442 6194,3436 6187,3428 6183,3411 6177,3399 6173,3387 6167,3382 6164,3374 6166,3366 6170,3359 6166,3345 6159,3336 6149,3337 6144,3332 6142,3321 6137,3317 6128,3320 6120,3318 6114,3312 6111,3302 6105,3296 6095,3292 6075,3293 6059,3292 6044,3289 6037,3278 6029,3279 6024,3276 6017,3265 6006,3261 5981,3260 5970,3253 5956,3249 5948,3245 5940,3240 5938,3233 5939,3222 5940,3217 5942,3214 5943,3201 5942,3190 5938,3173 5933,3159 5930,3147 5925,3144 5915,3152 5907,3154 5891,3155 5890,3151 5894,3140 5899,3130 5898,3119 5887,3107 5887,3094 5877,3077 5875,3070 5875,3051 5873,3028 5869,3013 5860,3004 5845,3000 5828,2992 5816,2981 5810,2970 5814,2965 5812,2960 5789,2953 5775,2945 5770,2937 5770,2919 5771,2896 5769,2877 5765,2865 5763,2851 5766,2828 5766,2815 5756,2806 5746,2804 5736,2806 5728,2804 5723,2800 5718,2793 5710,2788 5705,2786 5701,2784 5695,2778 5692,2772 5687,2765 5685,2759 5698,2738 5701,2725 5693,2707 5696,2697 5708,2684 5704,2673 5706,2666 5715,2661 5720,2656 5730,2646 5734,2638 5738,2625 5746,2615 5754,2604 5756,2590 5751,2577 5742,2557 5736,2544 5735,2529 5732,2519 5727,2509 5720,2504 5692,2475 5667,2462 5669,2455 5668,2437 5671,2425 5683,2417 5715,2392 5718,2384 5715,2377 5705,2377 5695,2375 5689,2364 5683,2347 5674,2326 5669,2318 5660,2307 5649,2298 5643,2294 5637,2291 5630,2291 5623,2287 5618,2280 5621,2274 5618,2268 5609,2266 5595,2263 5580,2261 5573,2249 5566,2234 5558,2224 5550,2206 5548,2196 5548,2184 5541,2179 5524,2180 5505,2181 5493,2175 5476,2161 5460,2156 5453,2150 5450,2144 5446,2131 5445,2118 5442,2110 5431,2104 5408,2099 5383,2097 5377,2091 5374,2082 5373,2070 5375,2060 5380,2053 5386,2042 5390,2035 5394,2033 5405,2040 5421,2046 5444,2045 5483,2046 5503,2048 5525,2054 5556,2056 5582,2063 5585,2063 5590,2059 5598,2051 5606,2049 5624,2054 5635,2060 5647,2063 5657,2072 5679,2078 5693,2078 5717,2068 5745,2039 5766,2027 5788,2028 " class="polyStyle" id="451421" style="fill:#f6f67b"/>
<polygon points="1435,1315 1438,1346 1435,1385 1421,1417 1407,1437 1388,1449 1379,1457 1378,1463 1380,1470 1386,1476 1400,1483 1408,1487 1411,1486 1414,1482 1421,1470 1428,1462 1439,1459 1446,1460 1452,1457 1456,1456 1462,1457 1463,1467 1461,1480 1462,1491 1465,1498 1470,1510 1477,1526 1486,1540 1494,1551 1497,1559 1503,1566 1505,1585 1511,1598 1515,1611 1515,1621 1508,1628 1504,1638 1503,1647 1505,1653 1507,1660 1512,1664 1521,1669 1528,1671 1538,1674 1551,1672 1563,1674 1571,1678 1579,1684 1592,1701 1599,1707 1605,1711 1605,1717 1602,1721 1594,1725 1589,1731 1583,1741 1583,1757 1583,1761 1583,1769 1585,1779 1590,1780 1602,1771 1610,1769 1619,1771 1624,1787 1632,1793 1640,1797 1650,1803 1653,1809 1650,1818 1640,1831 1627,1846 1617,1856 1622,1870 1633,1880 1636,1894 1636,1901 1634,1911 1629,1917 1612,1926 1598,1933 1589,1932 1582,1932 1576,1931 1566,1923 1558,1921 1554,1923 1551,1931 1550,1939 1549,1946 1542,1953 1528,1965 1525,1969 1522,1970 1510,1978 1497,1996 1488,2011 1481,2014 1472,2015 1464,2009 1454,2011 1449,2020 1445,2020 1433,2010 1423,2008 1418,2009 1414,2012 1407,2024 1402,2045 1398,2054 1390,2059 1363,2070 1352,2075 1330,2078 1304,2098 1304,2105 1307,2110 1312,2117 1311,2125 1303,2133 1304,2139 1311,2151 1310,2171 1313,2201 1315,2213 1324,2220 1339,2225 1362,2243 1377,2252 1396,2246 1404,2238 1411,2225 1416,2217 1426,2221 1430,2228 1435,2238 1434,2284 1427,2290 1419,2300 1419,2312 1420,2324 1425,2324 1432,2323 1442,2319 1449,2313 1454,2309 1457,2308 1462,2312 1466,2316 1472,2317 1482,2316 1489,2315 1494,2318 1499,2326 1504,2340 1505,2349 1503,2356 1497,2365 1495,2376 1510,2384 1524,2394 1528,2415 1534,2431 1526,2437 1520,2443 1518,2450 1521,2456 1532,2462 1545,2462 1552,2464 1555,2472 1555,2485 1546,2501 1542,2515 1543,2527 1546,2530 1563,2537 1578,2543 1603,2553 1630,2559 1638,2563 1643,2570 1644,2588 1655,2603 1664,2604 1677,2602 1686,2601 1696,2601 1700,2602 1707,2611 1713,2621 1720,2624 1734,2626 1741,2625 1750,2622 1756,2614 1762,2599 1766,2592 1769,2589 1780,2590 1787,2592 1790,2597 1792,2605 1795,2618 1797,2625 1800,2630 1804,2635 1812,2635 1826,2627 1835,2624 1845,2626 1853,2632 1859,2633 1864,2633 1867,2629 1881,2614 1901,2596 1912,2593 1922,2599 1932,2604 1943,2605 1956,2597 1982,2583 1983,2576 1984,2567 1983,2562 1985,2558 1992,2559 1999,2560 2006,2563 2019,2561 2043,2557 2055,2548 2064,2532 2071,2530 2083,2542 2109,2562 2116,2566 2121,2570 2127,2573 2135,2577 2149,2583 2157,2584 2161,2579 2162,2575 2159,2573 2151,2565 2141,2556 2137,2551 2140,2546 2147,2525 2152,2513 2157,2507 2185,2500 2187,2493 2169,2480 2164,2466 2164,2459 2167,2449 2172,2443 2183,2440 2201,2445 2211,2442 2216,2431 2223,2431 2242,2439 2249,2439 2263,2431 2274,2420 2277,2415 2279,2404 2285,2400 2302,2402 2327,2398 2347,2406 2365,2410 2376,2418 2393,2414 2407,2410 2420,2412 2432,2422 2451,2434 2458,2436 2469,2434 2478,2428 2484,2417 2504,2393 2506,2380 2502,2368 2509,2336 2507,2326 2502,2318 2496,2311 2494,2307 2492,2302 2486,2294 2477,2285 2472,2283 2463,2284 2460,2282 2459,2276 2458,2265 2459,2259 2465,2252 2475,2247 2495,2247 2510,2239 2520,2239 2533,2239 2541,2234 2548,2222 2549,2208 2550,2191 2554,2182 2567,2172 2591,2168 2615,2173 2625,2173 2641,2166 2655,2162 2662,2165 2666,2170 2664,2175 2663,2180 2669,2187 2682,2190 2694,2191 2703,2195 2717,2204 2727,2209 2734,2211 2746,2209 2756,2209 2762,2206 2763,2200 2760,2193 2742,2187 2728,2181 2724,2178 2724,2173 2724,2163 2718,2159 2707,2154 2704,2149 2708,2142 2709,2138 2705,2135 2701,2130 2704,2124 2708,2118 2714,2118 2725,2119 2732,2117 2751,2114 2769,2100 2774,2084 2782,2074 2792,2067 2805,2064 2820,2065 2836,2071 2848,2068 2856,2066 2865,2065 2870,2066 2873,2070 2867,2090 2866,2094 2869,2096 2890,2096 2916,2094 2934,2092 2948,2086 2959,2067 2969,2062 2973,2057 2983,2053 2987,2047 2990,2036 2988,2028 2987,2022 2989,2017 2993,2009 2986,2003 2983,1999 2983,1994 2986,1988 2996,1987 3000,1984 2997,1977 2990,1977 2986,1973 2981,1967 2969,1966 2941,1966 2918,1968 2894,1970 2884,1966 2880,1956 2881,1940 2887,1931 2897,1925 2904,1918 2904,1908 2922,1886 2937,1873 2952,1868 2961,1870 2969,1878 2975,1886 2986,1890 3005,1894 3015,1892 3020,1881 3030,1869 3037,1856 3044,1847 3055,1848 3060,1841 3064,1829 3079,1822 3108,1816 3135,1818 3150,1825 3162,1835 3169,1836 3177,1832 3209,1813 3220,1809 3230,1813 3236,1812 3253,1798 3265,1796 3270,1793 3275,1786 3276,1781 3283,1773 3296,1771 3305,1771 3321,1768 3337,1772 3344,1783 3344,1787 3351,1797 3349,1805 3351,1814 3361,1815 3372,1811 3381,1815 3380,1820 3377,1829 3381,1835 3387,1837 3396,1836 3409,1838 3414,1843 3421,1846 3431,1846 3440,1842 3452,1841 3467,1844 3481,1842 3502,1833 3522,1819 3532,1808 3534,1796 3539,1787 3555,1773 3565,1765 3573,1757 3585,1752 3585,1746 3580,1735 3581,1727 3579,1720 3565,1717 3551,1718 3540,1723 3534,1723 3528,1719 3522,1711 3517,1706 3499,1688 3483,1670 3461,1670 3447,1667 3443,1661 3442,1653 3444,1646 3447,1642 3462,1640 3472,1635 3480,1624 3487,1615 3483,1604 3475,1595 3474,1591 3485,1583 3495,1580 3516,1564 3524,1556 3536,1550 3562,1547 3584,1535 3606,1533 3611,1531 3621,1531 3627,1526 3628,1517 3620,1510 3605,1503 3596,1501 3586,1495 3580,1488 3580,1482 3583,1477 3590,1469 3598,1461 3607,1456 3618,1453 3628,1452 3634,1450 3640,1442 3644,1432 3650,1427 3659,1428 3672,1433 3680,1434 3684,1435 3694,1439 3706,1449 3714,1452 3724,1449 3731,1444 3742,1432 3757,1422 3769,1410 3800,1404 3825,1392 3835,1385 3852,1405 3856,1410 3866,1411 3876,1406 3888,1393 3895,1392 3904,1386 3907,1381 3909,1373 3915,1365 3928,1360 3948,1344 3958,1338 3965,1343 3969,1352 3971,1370 3976,1376 3972,1396 3973,1413 3975,1428 3973,1437 3970,1444 3962,1449 3953,1456 3941,1473 3935,1475 3924,1475 3901,1480 3901,1487 3900,1494 3889,1525 3890,1531 3893,1536 3930,1553 3937,1568 3963,1571 3969,1579 3974,1588 3983,1588 4000,1586 4007,1591 4008,1597 4007,1604 4010,1612 4013,1615 4022,1619 4027,1620 4041,1616 4051,1607 4071,1584 4094,1564 4103,1563 4108,1559 4110,1550 4120,1549 4131,1546 4138,1533 4154,1528 4162,1529 4171,1531 4181,1541 4181,1547 4184,1551 4192,1559 4202,1561 4216,1554 4252,1527 4257,1521 4262,1519 4269,1518 4276,1521 4292,1536 4299,1540 4308,1549 4319,1552 4343,1551 4355,1554 4366,1554 4373,1550 4378,1545 4385,1535 4388,1525 4406,1535 4410,1536 4419,1532 4427,1525 4433,1524 4440,1524 4445,1526 4450,1534 4450,1538 4454,1542 4462,1545 4472,1548 4480,1551 4483,1550 4491,1551 4508,1559 4506,1570 4505,1573 4507,1578 4512,1580 4519,1580 4527,1580 4532,1590 4535,1594 4546,1611 4554,1616 4560,1616 4577,1608 4588,1609 4595,1615 4597,1623 4594,1640 4596,1648 4603,1656 4610,1660 4611,1667 4602,1674 4594,1678 4590,1687 4595,1697 4597,1704 4583,1713 4583,1718 4587,1723 4597,1728 4611,1729 4623,1738 4629,1759 4633,1763 4640,1769 4642,1787 4644,1817 4649,1830 4656,1839 4670,1849 4684,1853 4689,1863 4696,1866 4704,1873 4705,1883 4702,1902 4693,1913 4683,1925 4680,1932 4682,1940 4691,1946 4696,1957 4692,1969 4690,1989 4685,1999 4673,2010 4668,2021 4667,2029 4670,2038 4677,2048 4682,2056 4697,2070 4702,2081 4703,2089 4702,2094 4697,2101 4688,2105 4670,2107 4662,2120 4650,2125 4635,2135 4626,2145 4614,2146 4598,2144 4592,2148 4594,2163 4594,2177 4597,2191 4603,2200 4614,2211 4627,2229 4634,2239 4637,2253 4642,2274 4649,2294 4648,2307 4646,2333 4642,2353 4642,2373 4643,2398 4645,2413 4650,2423 4659,2428 4669,2437 4682,2450 4694,2473 4697,2484 4696,2492 4692,2505 4688,2515 4671,2521 4661,2521 4643,2516 4623,2524 4609,2526 4604,2529 4599,2536 4598,2540 4598,2551 4607,2572 4616,2585 4637,2598 4644,2606 4644,2610 4637,2620 4630,2626 4614,2634 4599,2633 4578,2636 4561,2640 4555,2639 4541,2642 4535,2640 4531,2635 4531,2632 4521,2622 4511,2615 4493,2611 4480,2608 4465,2610 4458,2608 4452,2598 4449,2583 4437,2564 4425,2553 4421,2553 4414,2557 4403,2579 4391,2590 4374,2598 4350,2600 4346,2599 4339,2595 4332,2588 4324,2589 4320,2596 4326,2609 4328,2628 4323,2639 4314,2644 4308,2646 4295,2658 4290,2668 4293,2680 4298,2690 4305,2698 4315,2707 4322,2728 4325,2732 4333,2737 4340,2738 4348,2735 4363,2747 4365,2756 4363,2766 4358,2775 4328,2802 4325,2804 4321,2804 4321,2808 4328,2828 4335,2839 4334,2847 4331,2853 4320,2861 4309,2865 4295,2875 4290,2883 4290,2887 4293,2899 4297,2907 4297,2917 4283,2949 4283,2957 4288,2968 4297,2978 4300,2982 4301,2989 4297,2991 4288,2989 4272,2986 4266,2987 4257,2987 4249,2986 4240,2980 4220,2962 4218,2956 4217,2942 4210,2936 4207,2936 4200,2939 4191,2951 4186,2963 4184,2972 4188,2990 4190,3000 4190,3005 4183,3009 4167,3007 4137,3013 4124,3012 4112,3015 4104,3019 4101,3023 4106,3039 4117,3055 4125,3062 4137,3068 4150,3070 4162,3073 4180,3079 4193,3088 4201,3098 4203,3118 4204,3126 4201,3133 4195,3146 4194,3155 4198,3162 4201,3165 4197,3170 4183,3177 4165,3196 4152,3211 4140,3216 4133,3217 4134,3213 4134,3203 4129,3196 4120,3192 4096,3188 4073,3187 4071,3188 4059,3190 4042,3195 4035,3201 4031,3212 4016,3218 4008,3223 3999,3230 3993,3242 3984,3253 3974,3257 3962,3258 3956,3260 3948,3259 3928,3264 3908,3276 3895,3285 3871,3316 3863,3325 3846,3338 3827,3348 3819,3357 3814,3371 3804,3376 3792,3387 3788,3401 3787,3413 3791,3420 3804,3428 3807,3440 3799,3470 3797,3477 3792,3481 3776,3490 3773,3495 3772,3501 3772,3505 3776,3516 3781,3522 3786,3526 3792,3528 3795,3526 3799,3521 3819,3519 3812,3542 3811,3553 3812,3556 3816,3558 3838,3548 3846,3541 3849,3540 3867,3557 3881,3564 3883,3573 3880,3581 3869,3590 3859,3596 3852,3606 3853,3614 3857,3620 3857,3625 3853,3645 3857,3655 3864,3660 3877,3661 3885,3658 3894,3653 3895,3656 3881,3677 3878,3708 3879,3718 3890,3746 3888,3750 3875,3753 3868,3754 3859,3761 3853,3772 3842,3790 3837,3800 3831,3808 3830,3811 3831,3815 3837,3823 3847,3828 3857,3831 3861,3833 3854,3843 3855,3846 3859,3847 3866,3843 3877,3832 3881,3830 3887,3832 3921,3856 3947,3873 3966,3883 3973,3895 3973,3900 3951,3929 3940,3942 3938,3947 3939,3951 3946,3953 3966,3952 3971,3954 3973,3963 3964,3986 3958,3995 3956,3998 3954,4004 3951,4013 3945,4029 3939,4041 3933,4050 3926,4056 3919,4057 3909,4055 3903,4053 3898,4054 3887,4056 3884,4063 3873,4076 3881,4084 3886,4094 3886,4099 3881,4108 3870,4121 3866,4127 3862,4128 3856,4125 3848,4118 3843,4116 3838,4111 3835,4104 3837,4091 3846,4068 3847,4054 3845,4047 3840,4047 3820,4052 3797,4054 3786,4066 3772,4072 3767,4073 3744,4068 3732,4074 3729,4075 3717,4068 3689,4073 3662,4073 3639,4069 3619,4058 3594,4044 3575,4038 3565,4034 3559,4023 3558,4015 3559,4004 3552,3991 3544,3978 3537,3971 3524,3966 3518,3957 3516,3943 3504,3933 3499,3925 3497,3911 3494,3901 3505,3895 3507,3890 3500,3878 3498,3860 3498,3840 3497,3835 3497,3828 3495,3812 3492,3800 3485,3785 3472,3769 3473,3756 3470,3742 3470,3732 3475,3721 3481,3719 3495,3722 3503,3724 3508,3719 3509,3711 3505,3702 3498,3693 3491,3678 3487,3660 3475,3652 3463,3646 3457,3641 3456,3634 3459,3625 3466,3609 3470,3602 3473,3599 3479,3600 3486,3597 3497,3594 3510,3593 3521,3583 3526,3566 3531,3559 3533,3552 3533,3546 3533,3533 3534,3523 3538,3518 3545,3514 3551,3514 3556,3515 3558,3523 3559,3528 3561,3541 3563,3546 3568,3549 3573,3547 3586,3542 3600,3542 3613,3539 3616,3537 3618,3526 3617,3504 3617,3492 3618,3486 3621,3481 3623,3476 3621,3464 3620,3456 3618,3452 3611,3450 3602,3452 3589,3457 3582,3462 3579,3463 3574,3465 3560,3476 3549,3480 3536,3484 3507,3483 3488,3493 3475,3494 3457,3494 3450,3504 3443,3512 3423,3514 3413,3520 3390,3542 3381,3545 3373,3539 3369,3535 3369,3530 3369,3524 3364,3513 3356,3503 3353,3496 3352,3490 3354,3480 3352,3472 3345,3468 3341,3470 3336,3475 3329,3484 3321,3490 3317,3491 3310,3490 3296,3485 3291,3489 3290,3495 3291,3514 3294,3533 3293,3544 3287,3555 3277,3569 3276,3587 3275,3602 3265,3611 3248,3617 3242,3625 3244,3636 3251,3651 3258,3659 3266,3666 3267,3672 3265,3677 3246,3694 3236,3704 3230,3707 3216,3710 3173,3712 3128,3711 3115,3715 3102,3725 3082,3750 3068,3760 3058,3764 3047,3766 3031,3766 3025,3770 3025,3774 3028,3780 3025,3782 3012,3784 2975,3799 2969,3801 2962,3808 2953,3823 2945,3826 2923,3827 2913,3832 2897,3847 2886,3852 2872,3856 2862,3860 2859,3866 2862,3875 2867,3880 2864,3897 2857,3919 2858,3926 2862,3931 2872,3938 2869,3942 2862,3948 2852,3959 2842,3972 2839,3982 2836,3988 2824,3986 2811,3984 2802,3986 2795,3990 2791,3995 2777,3999 2770,4000 2760,3997 2736,3990 2717,3984 2710,3984 2707,3990 2709,3999 2716,4008 2721,4011 2726,4012 2735,4008 2742,4006 2750,4008 2760,4012 2766,4015 2783,4020 2800,4029 2800,4041 2804,4054 2810,4063 2820,4084 2829,4092 2850,4098 2852,4116 2859,4127 2861,4139 2857,4167 2856,4179 2857,4189 2852,4198 2843,4201 2845,4207 2859,4218 2868,4217 2885,4218 2894,4223 2901,4231 2904,4239 2904,4251 2902,4260 2897,4268 2888,4277 2882,4281 2876,4287 2866,4299 2861,4308 2844,4304 2845,4296 2845,4287 2843,4282 2838,4280 2829,4282 2821,4284 2810,4282 2804,4285 2797,4291 2784,4297 2776,4302 2772,4296 2772,4288 2777,4280 2778,4275 2774,4272 2768,4272 2759,4274 2744,4276 2729,4278 2716,4281 2711,4286 2708,4291 2695,4290 2690,4279 2684,4276 2676,4274 2672,4278 2670,4284 2668,4294 2643,4285 2629,4282 2611,4284 2604,4284 2594,4284 2589,4273 2588,4265 2583,4256 2580,4246 2582,4238 2587,4230 2588,4223 2587,4215 2585,4210 2584,4204 2581,4198 2572,4194 2571,4190 2569,4183 2574,4173 2574,4163 2567,4153 2560,4149 2554,4148 2537,4147 2515,4153 2505,4153 2496,4146 2488,4137 2476,4130 2465,4130 2448,4134 2427,4153 2421,4153 2416,4149 2414,4142 2415,4129 2422,4088 2421,4080 2418,4071 2410,4065 2406,4058 2402,4048 2397,4034 2394,4023 2390,4019 2385,4020 2379,4023 2374,4027 2368,4027 2359,4027 2341,4030 2327,4034 2318,4035 2314,4029 2314,3998 2310,3992 2301,3989 2296,3980 2290,3968 2278,3958 2259,3948 2252,3939 2242,3917 2239,3911 2231,3895 2228,3879 2228,3869 2233,3853 2243,3841 2270,3827 2276,3821 2280,3815 2280,3808 2276,3805 2272,3802 2251,3802 2243,3799 2231,3791 2207,3783 2204,3773 2200,3769 2188,3764 2171,3756 2161,3758 2151,3757 2141,3749 2133,3741 2128,3718 2106,3712 2088,3707 2082,3710 2076,3724 2069,3728 2060,3731 2043,3728 2032,3723 2012,3716 2004,3709 2001,3701 2000,3685 1987,3692 1974,3687 1967,3690 1955,3702 1949,3702 1944,3699 1931,3695 1923,3696 1917,3698 1885,3715 1877,3715 1868,3706 1862,3699 1862,3693 1866,3682 1855,3670 1843,3666 1834,3682 1824,3685 1816,3684 1801,3681 1786,3680 1778,3681 1771,3677 1769,3670 1772,3662 1776,3655 1780,3645 1780,3636 1776,3628 1759,3610 1744,3598 1732,3587 1728,3586 1721,3582 1715,3578 1705,3567 1694,3559 1684,3547 1669,3535 1653,3529 1641,3535 1623,3551 1619,3552 1610,3547 1598,3539 1588,3532 1587,3526 1590,3514 1586,3502 1585,3494 1587,3490 1597,3483 1592,3474 1582,3468 1557,3465 1543,3460 1527,3450 1515,3448 1499,3442 1483,3428 1480,3418 1483,3409 1489,3407 1493,3408 1503,3406 1508,3402 1508,3397 1506,3393 1500,3390 1491,3388 1475,3389 1467,3390 1441,3389 1425,3373 1413,3359 1402,3328 1391,3322 1377,3313 1359,3301 1342,3294 1336,3290 1334,3282 1341,3277 1351,3273 1356,3269 1362,3262 1362,3259 1358,3254 1344,3255 1327,3251 1310,3256 1297,3263 1289,3262 1281,3258 1286,3244 1284,3235 1262,3225 1261,3215 1269,3206 1268,3201 1259,3196 1242,3191 1233,3184 1230,3178 1217,3172 1208,3168 1205,3158 1197,3155 1194,3149 1189,3143 1183,3136 1181,3130 1182,3125 1190,3123 1199,3123 1210,3120 1212,3116 1213,3107 1211,3097 1200,3085 1181,3075 1174,3074 1162,3084 1149,3085 1144,3086 1136,3092 1131,3092 1125,3084 1118,3073 1099,3066 1101,3065 1125,3032 1177,3002 1168,2929 1190,2933 1206,2936 1231,2941 1260,2944 1294,2933 1321,2926 1336,2904 1341,2868 1355,2841 1383,2808 1395,2781 1394,2754 1367,2733 1339,2718 1325,2697 1323,2697 1316,2690 1299,2687 1287,2685 1269,2683 1247,2685 1232,2686 1220,2689 1216,2691 1197,2707 1192,2710 1174,2709 1163,2710 1151,2714 1140,2715 1130,2710 1111,2703 1095,2704 1083,2710 1073,2721 1056,2736 1051,2738 1049,2733 1050,2724 1060,2694 1069,2668 1070,2658 1065,2653 1050,2646 1033,2641 1016,2633 995,2628 991,2625 988,2617 986,2611 983,2608 977,2604 963,2597 943,2588 941,2585 937,2574 934,2567 929,2561 921,2557 916,2554 913,2552 909,2547 907,2543 875,2528 857,2517 844,2508 836,2505 829,2504 821,2501 803,2470 805,2443 800,2410 783,2362 755,2345 711,2342 672,2335 643,2338 619,2338 584,2330 556,2336 550,2333 542,2327 536,2319 537,2306 541,2298 552,2287 557,2270 556,2249 560,2240 569,2232 590,2222 594,2219 604,2216 612,2211 615,2204 615,2190 612,2161 613,2156 616,2151 630,2142 649,2129 676,2121 697,2118 713,2112 726,2101 734,2086 749,2076 764,2070 790,2061 800,2059 799,2055 799,2049 800,2039 801,2027 800,2021 792,2009 785,2002 787,1996 804,1972 818,1956 835,1943 864,1931 880,1934 895,1944 906,1948 914,1946 933,1928 942,1916 943,1905 956,1895 987,1881 993,1876 994,1872 997,1868 1001,1864 1004,1860 1007,1856 1009,1851 1008,1846 1004,1840 1003,1833 1004,1828 1008,1825 1018,1824 1025,1821 1033,1818 1038,1816 1047,1804 1054,1793 1053,1786 1042,1778 1034,1770 1033,1764 1042,1756 1060,1750 1076,1740 1094,1726 1111,1713 1128,1701 1134,1693 1132,1682 1138,1675 1155,1672 1165,1670 1176,1671 1191,1679 1200,1680 1205,1680 1209,1675 1210,1670 1209,1663 1205,1654 1204,1644 1204,1638 1211,1633 1217,1630 1220,1623 1219,1618 1211,1615 1202,1612 1188,1612 1179,1611 1170,1606 1166,1601 1165,1598 1167,1594 1172,1592 1178,1590 1182,1588 1185,1584 1185,1580 1184,1575 1183,1571 1176,1547 1181,1534 1192,1518 1203,1503 1220,1488 1235,1480 1244,1468 1248,1451 1259,1437 1265,1425 1276,1410 1283,1399 1281,1393 1295,1379 1315,1367 1325,1356 1333,1344 1353,1325 1369,1314 1388,1304 1394,1297 1411,1290 1425,1291 " class="polyStyle" id="451424" style="fill:#ee8b94"/>
<path d="" class="polyStyle" id="450123" style="fill:#fbe6ef"/>
<path d="" class="polyStyle" id="350624" style="fill:#f6f67b"/>
<path d="" class="polyStyle" id="" style="fill:#fbe6ef"/>
<path d="" class="polyStyle" id="451224" style="fill:#fbe6ef"/>
<path d="" class="polyStyle" id="350627" style="fill:#f6f67b"/>
<path d="" class="polyStyle" id="" style="fill:#f6f67b"/>
<path d="" class="polyStyle" id="350525" style="fill:#f6f67b"/>
<path d="" class="polyStyle" id="530124" style="fill:#ee8b94"/>
<path d="" class="polyStyle" id="522627" style="fill:#ee8b94"/>
<path d="" class="polyStyle" id="510421" style="fill:#fbe6ef"/>
<path d="" class="polyStyle" id="522623" style="fill:#d4ecb2"/>
<path d="" class="polyStyle" id="430321" style="fill:#d4ecb2"/>
<path d="" class="polyStyle" id="511129" style="fill:#d4ecb2"/>
<path d="" class="polyStyle" id="511423" style="fill:#ee8b94"/>
<path d="" class="polyStyle" id="421023" style="fill:#f6f67b"/>
<path d="" class="polyStyle" id="511724" style="fill:#f6f67b"/>
<path d="" class="polyStyle" id="420526" style="fill:#fbe6ef"/>
<path d="" class="polyStyle" id="511923" style="fill:#fbe6ef"/>
<path d="" class="polyStyle" id="420325" style="fill:#fbe6ef"/>
<path d="" class="polyStyle" id="511921" style="fill:#f6f67b"/>
<path d="" class="polyStyle" id="542525" style="fill:#f6f67b"/>
<path d="" class="polyStyle" id="611026" style="fill:#ee8b94"/>
<path d="" class="polyStyle" id="411023" style="fill:#fbe6ef"/>
<path d="" class="polyStyle" id="632323" style="fill:#f6f67b"/>
<path d="" class="polyStyle" id="140525" style="fill:#d4ecb2"/>
<path d="" class="polyStyle" id="410922" style="fill:#ee8b94"/>
<path d="" class="polyStyle" id="621027" style="fill:#ee8b94"/>
<path d="" class="polyStyle" id="130427" style="fill:#f6f67b"/>
<path d="" class="polyStyle" id="130121" style="fill:#ee8b94"/>
<path d="" class="polyStyle" id="610823" style="fill:#fbe6ef"/>
<path d="" class="polyStyle" id="130225" style="fill:#fbe6ef"/>
<path d="" class="polyStyle" id="130322" style="fill:#d4ecb2"/>
<path d="" class="polyStyle" id="653130" style="fill:#f6f67b"/>
<path d="" class="polyStyle" id="130822" style="fill:#fbe6ef"/>
<path d="" class="polyStyle" id="211221" style="fill:#f6f67b"/>
<path d="" class="polyStyle" id="210921" style="fill:#f6f67b"/>
<path d="" class="polyStyle" id="150223" style="fill:#f8c67d"/>
<path d="" class="polyStyle" id="220422" style="fill:#d4ecb2"/>
<path d="" class="polyStyle" id="340721" style="fill:#f6f67b"/>
<path d="" class="polyStyle" id="510824" style="fill:#d4ecb2"/>
<polygon points="3713,14 3716,23 3718,33 3723,47 3724,59 3725,73 3732,86 3740,90 3749,93 3757,91 3763,85 3769,78 3779,75 3790,72 3798,72 3807,77 3813,90 3818,97 3824,100 3832,99 3852,85 3860,84 3869,82 3884,84 3893,90 3910,97 3916,101 3919,107 3921,116 3922,124 3924,129 3934,137 3942,139 3958,137 3964,138 3971,141 3980,148 3985,156 3990,172 3991,187 3986,200 3979,214 3975,221 3969,226 3965,230 3964,234 3967,239 3973,247 3975,250 3977,253 3978,256 3977,259 3974,261 3966,270 3966,285 3969,299 3973,311 3980,318 3990,324 4007,344 4009,350 4014,355 4023,357 4030,358 4034,359 4035,362 4037,365 4037,371 4037,377 4037,383 4038,389 4038,395 4039,401 4037,408 4036,418 4039,422 4051,426 4067,429 4073,428 4078,427 4085,424 4093,421 4100,422 4109,427 4117,432 4120,435 4123,442 4124,449 4123,464 4121,468 4114,471 4104,475 4096,482 4090,490 4088,500 4090,510 4094,521 4098,525 4118,538 4125,548 4131,551 4132,553 4135,557 4136,563 4135,569 4130,572 4118,575 4107,579 4100,583 4097,589 4096,597 4098,603 4097,607 4096,610 4094,614 4094,617 4091,621 4090,627 4089,632 4088,636 4087,642 4087,646 4087,652 4087,656 4086,663 4085,668 4085,674 4084,679 4083,684 4081,689 4080,694 4077,697 4074,700 4071,702 4067,704 4064,706 4059,708 4056,710 4052,711 4048,712 4044,715 4040,717 4036,720 4034,725 4034,728 4035,732 4036,735 4037,738 4041,742 4045,747 4049,749 4052,753 4054,756 4055,759 4055,763 4054,767 4054,770 4053,775 4053,780 4052,784 4051,787 4048,791 4045,794 4042,796 4038,797 4035,797 4032,796 4030,794 4027,790 4025,787 4021,785 4018,780 4014,779 4010,777 4005,777 4001,777 3997,777 3994,778 3987,780 3981,780 3976,782 3972,784 3969,787 3968,791 3966,795 3965,798 3963,801 3959,804 3955,806 3952,807 3948,808 3945,809 3941,812 3939,816 3937,819 3936,823 3936,827 3937,831 3938,835 3941,838 3943,841 3948,843 3951,846 3954,850 3957,855 3958,859 3959,863 3961,866 3961,869 3960,873 3956,876 3954,877 3951,881 3950,885 3950,889 3950,893 3953,896 3957,899 3961,901 3964,902 3966,905 3967,908 3967,912 3967,916 3967,919 3966,923 3966,926 3967,930 3968,933 3969,936 3972,939 3975,943 3977,946 3977,949 3979,952 3978,956 3976,960 3974,963 3973,966 3969,970 3962,973 3958,976 3952,978 3948,980 3944,981 3941,982 3938,984 3942,986 3945,987 3948,989 3951,990 3954,992 3957,993 3960,995 3964,997 3968,998 3973,998 3977,996 3982,994 3986,996 3990,998 3992,1002 3994,1006 3996,1010 3997,1015 3997,1018 3997,1021 3994,1026 3991,1030 3988,1032 3984,1033 3980,1032 3975,1031 3970,1029 3966,1028 3962,1028 3958,1030 3952,1034 3949,1038 3945,1041 3941,1043 3935,1045 3930,1045 3924,1044 3918,1041 3916,1040 3914,1038 3911,1036 3908,1035 3905,1032 3900,1032 3897,1032 3893,1032 3890,1037 3888,1040 3887,1045 3887,1048 3886,1053 3886,1057 3885,1061 3885,1065 3883,1067 3881,1070 3880,1074 3879,1077 3876,1080 3873,1082 3869,1082 3865,1082 3861,1084 3857,1085 3854,1088 3852,1092 3851,1096 3852,1101 3857,1104 3863,1106 3869,1107 3874,1109 3875,1112 3875,1116 3873,1118 3871,1121 3870,1125 3870,1127 3872,1129 3873,1132 3876,1134 3879,1135 3883,1135 3887,1135 3890,1135 3894,1134 3897,1133 3901,1132 3905,1132 3910,1132 3913,1135 3914,1138 3911,1140 3908,1142 3905,1146 3903,1149 3901,1154 3904,1157 3907,1157 3911,1157 3915,1158 3918,1158 3921,1158 3925,1158 3928,1158 3932,1159 3937,1159 3942,1161 3946,1163 3949,1164 3953,1166 3959,1168 3961,1171 3962,1175 3962,1178 3964,1181 3965,1185 3966,1189 3969,1193 3973,1194 3976,1194 3979,1195 3982,1195 3985,1196 3988,1196 3990,1196 3993,1198 3994,1202 3995,1206 3997,1209 4000,1211 4005,1214 4009,1217 4013,1219 4015,1222 4016,1226 4017,1229 4017,1232 4017,1235 4017,1239 4017,1242 4016,1247 4015,1252 4013,1256 4014,1261 4016,1263 4019,1263 4021,1261 4023,1259 4026,1256 4031,1254 4036,1253 4038,1254 4039,1258 4040,1263 4043,1266 4046,1267 4049,1268 4053,1268 4056,1269 4060,1270 4064,1269 4068,1268 4071,1268 4074,1267 4078,1268 4084,1269 4088,1270 4095,1272 4098,1276 4102,1277 4105,1280 4108,1281 4111,1283 4114,1283 4119,1284 4123,1284 4128,1284 4133,1284 4137,1284 4141,1284 4145,1284 4150,1285 4152,1288 4153,1290 4154,1293 4155,1296 4154,1300 4153,1304 4151,1307 4149,1310 4146,1314 4142,1316 4134,1321 4129,1323 4125,1324 4121,1326 4118,1327 4113,1330 4108,1333 4104,1336 4100,1339 4098,1342 4096,1345 4093,1351 4090,1354 4087,1356 4082,1357 4077,1356 4073,1356 4068,1355 4065,1355 4059,1355 4056,1355 4053,1357 4050,1359 4046,1362 4041,1364 4037,1364 4033,1365 4029,1365 4025,1366 4021,1366 4018,1366 4014,1366 4007,1366 4002,1366 3997,1366 3992,1365 3989,1366 3986,1366 3983,1366 3980,1366 3976,1367 3973,1369 3971,1370 3969,1352 3965,1343 3958,1338 3948,1344 3928,1360 3915,1365 3909,1373 3907,1381 3904,1386 3895,1392 3888,1393 3876,1406 3866,1411 3856,1410 3852,1405 3835,1385 3825,1392 3800,1404 3769,1410 3757,1422 3742,1432 3731,1444 3724,1449 3714,1452 3706,1449 3694,1439 3684,1435 3680,1434 3672,1433 3659,1428 3650,1427 3644,1432 3640,1442 3634,1450 3628,1452 3618,1453 3607,1456 3598,1461 3590,1469 3583,1477 3580,1482 3580,1488 3586,1495 3596,1501 3605,1503 3620,1510 3628,1517 3627,1526 3621,1531 3611,1531 3606,1533 3584,1535 3562,1547 3536,1550 3524,1556 3516,1564 3495,1580 3485,1583 3474,1591 3475,1595 3483,1604 3487,1615 3480,1624 3472,1635 3462,1640 3447,1642 3444,1646 3442,1653 3443,1661 3447,1667 3461,1670 3483,1670 3499,1688 3517,1706 3522,1711 3528,1719 3534,1723 3540,1723 3551,1718 3565,1717 3579,1720 3581,1727 3580,1735 3585,1746 3585,1752 3573,1757 3565,1765 3555,1773 3539,1787 3534,1796 3532,1808 3522,1819 3502,1833 3481,1842 3467,1844 3452,1841 3440,1842 3431,1846 3421,1846 3414,1843 3409,1838 3396,1836 3387,1837 3381,1835 3377,1829 3380,1820 3381,1815 3372,1811 3361,1815 3351,1814 3349,1805 3351,1797 3344,1787 3344,1783 3337,1772 3321,1768 3305,1771 3296,1771 3283,1773 3276,1781 3275,1786 3270,1793 3265,1796 3253,1798 3236,1812 3230,1813 3220,1809 3209,1813 3177,1832 3169,1836 3162,1835 3150,1825 3135,1818 3108,1816 3079,1822 3064,1829 3060,1841 3055,1848 3044,1847 3037,1856 3030,1869 3020,1881 3015,1892 3005,1894 2986,1890 2975,1886 2969,1878 2961,1870 2952,1868 2937,1873 2922,1886 2904,1908 2904,1918 2897,1925 2887,1931 2881,1940 2880,1956 2884,1966 2894,1970 2918,1968 2941,1966 2969,1966 2981,1967 2986,1973 2990,1977 2997,1977 3000,1984 2996,1987 2986,1988 2983,1994 2983,1999 2986,2003 2993,2009 2989,2017 2987,2022 2988,2028 2990,2036 2987,2047 2983,2053 2973,2057 2969,2062 2959,2067 2948,2086 2934,2092 2916,2094 2890,2096 2869,2096 2866,2094 2867,2090 2873,2070 2870,2066 2865,2065 2856,2066 2848,2068 2836,2071 2820,2065 2805,2064 2792,2067 2782,2074 2774,2084 2769,2100 2751,2114 2732,2117 2725,2119 2714,2118 2708,2118 2704,2124 2701,2130 2705,2135 2709,2138 2708,2142 2704,2149 2707,2154 2718,2159 2724,2163 2724,2173 2724,2178 2728,2181 2742,2187 2760,2193 2763,2200 2762,2206 2756,2209 2746,2209 2734,2211 2727,2209 2717,2204 2703,2195 2694,2191 2682,2190 2669,2187 2663,2180 2664,2175 2666,2170 2662,2165 2655,2162 2641,2166 2625,2173 2615,2173 2591,2168 2567,2172 2554,2182 2550,2191 2549,2208 2548,2222 2541,2234 2533,2239 2520,2239 2510,2239 2495,2247 2475,2247 2465,2252 2459,2259 2458,2265 2459,2276 2460,2282 2463,2284 2472,2283 2477,2285 2486,2294 2492,2302 2494,2307 2496,2311 2502,2318 2507,2326 2509,2336 2502,2368 2506,2380 2504,2393 2484,2417 2478,2428 2469,2434 2458,2436 2451,2434 2432,2422 2420,2412 2407,2410 2393,2414 2376,2418 2365,2410 2347,2406 2327,2398 2302,2402 2285,2400 2279,2404 2277,2415 2274,2420 2263,2431 2249,2439 2242,2439 2223,2431 2216,2431 2211,2442 2201,2445 2183,2440 2172,2443 2167,2449 2164,2459 2164,2466 2169,2480 2187,2493 2185,2500 2157,2507 2152,2513 2147,2525 2140,2546 2137,2551 2141,2556 2151,2565 2159,2573 2162,2575 2161,2579 2157,2584 2149,2583 2135,2577 2127,2573 2121,2570 2116,2566 2109,2562 2083,2542 2071,2530 2064,2532 2055,2548 2043,2557 2019,2561 2006,2563 1999,2560 1992,2559 1985,2558 1983,2562 1984,2567 1983,2576 1982,2583 1956,2597 1943,2605 1932,2604 1922,2599 1912,2593 1901,2596 1881,2614 1867,2629 1864,2633 1859,2633 1853,2632 1845,2626 1835,2624 1826,2627 1812,2635 1804,2635 1800,2630 1797,2625 1795,2618 1792,2605 1790,2597 1787,2592 1780,2590 1769,2589 1766,2592 1762,2599 1756,2614 1750,2622 1741,2625 1734,2626 1720,2624 1713,2621 1707,2611 1700,2602 1696,2601 1686,2601 1677,2602 1664,2604 1655,2603 1644,2588 1643,2570 1638,2563 1630,2559 1603,2553 1578,2543 1563,2537 1546,2530 1543,2527 1542,2515 1546,2501 1555,2485 1555,2472 1552,2464 1545,2462 1532,2462 1521,2456 1518,2450 1520,2443 1526,2437 1534,2431 1528,2415 1524,2394 1510,2384 1495,2376 1497,2365 1503,2356 1505,2349 1504,2340 1499,2326 1494,2318 1489,2315 1482,2316 1472,2317 1466,2316 1462,2312 1457,2308 1454,2309 1449,2313 1442,2319 1432,2323 1425,2324 1420,2324 1419,2312 1419,2300 1427,2290 1434,2284 1435,2238 1430,2228 1426,2221 1416,2217 1411,2225 1404,2238 1396,2246 1377,2252 1362,2243 1339,2225 1324,2220 1315,2213 1313,2201 1310,2171 1311,2151 1304,2139 1303,2133 1311,2125 1312,2117 1307,2110 1304,2105 1304,2098 1330,2078 1352,2075 1363,2070 1390,2059 1398,2054 1402,2045 1407,2024 1414,2012 1418,2009 1423,2008 1433,2010 1445,2020 1449,2020 1454,2011 1464,2009 1472,2015 1481,2014 1488,2011 1497,1996 1510,1978 1522,1970 1525,1969 1528,1965 1542,1953 1549,1946 1550,1939 1551,1931 1554,1923 1558,1921 1566,1923 1576,1931 1582,1932 1589,1932 1598,1933 1612,1926 1629,1917 1634,1911 1636,1901 1636,1894 1633,1880 1622,1870 1617,1856 1627,1846 1640,1831 1650,1818 1653,1809 1650,1803 1640,1797 1632,1793 1624,1787 1619,1771 1610,1769 1602,1771 1590,1780 1585,1779 1583,1769 1583,1761 1583,1757 1583,1741 1589,1731 1594,1725 1602,1721 1605,1717 1605,1711 1599,1707 1592,1701 1579,1684 1571,1678 1563,1674 1551,1672 1538,1674 1528,1671 1521,1669 1512,1664 1507,1660 1505,1653 1503,1647 1504,1638 1508,1628 1515,1621 1515,1611 1511,1598 1505,1585 1503,1566 1497,1559 1494,1551 1486,1540 1477,1526 1470,1510 1465,1498 1462,1491 1461,1480 1463,1467 1462,1457 1456,1456 1452,1457 1446,1460 1439,1459 1428,1462 1421,1470 1414,1482 1411,1486 1408,1487 1400,1483 1386,1476 1380,1470 1378,1463 1379,1457 1388,1449 1407,1437 1421,1417 1435,1385 1438,1346 1435,1315 1425,1291 1411,1290 1394,1297 1388,1304 1369,1314 1353,1325 1333,1344 1325,1356 1315,1367 1295,1379 1281,1393 1271,1385 1259,1377 1238,1367 1222,1362 1218,1356 1221,1345 1217,1339 1209,1336 1195,1336 1179,1335 1173,1335 1167,1338 1159,1349 1143,1377 1139,1383 1134,1387 1130,1390 1122,1395 1116,1397 1110,1399 1104,1401 1100,1401 1096,1398 1068,1387 1057,1386 1049,1380 1043,1376 1038,1367 1035,1357 1032,1342 1034,1339 1033,1319 1041,1307 1047,1300 1056,1288 1067,1280 1079,1272 1099,1259 1100,1252 1096,1242 1095,1231 1093,1223 1086,1218 1072,1213 1048,1208 1037,1208 1031,1204 1029,1197 1031,1190 1040,1176 1044,1162 1044,1139 1039,1118 1038,1108 1042,1102 1053,1090 1063,1085 1078,1080 1087,1080 1100,1077 1111,1069 1120,1056 1124,1050 1140,1036 1157,1015 1164,1005 1165,1001 1164,995 1160,989 1151,973 1142,944 1138,937 1133,932 1125,924 1120,918 1118,911 1114,906 1109,903 1100,902 1087,902 1071,904 1063,900 1059,897 1057,894 1060,890 1069,887 1072,883 1076,877 1083,872 1094,869 1104,870 1117,867 1129,860 1135,858 1145,856 1158,856 1170,857 1180,859 1186,862 1191,866 1197,870 1200,870 1206,870 1212,866 1222,856 1224,849 1225,844 1227,839 1260,812 1269,789 1271,786 1274,785 1280,787 1288,793 1296,798 1301,801 1306,802 1311,801 1318,796 1321,793 1327,792 1336,794 1346,794 1366,792 1375,791 1379,793 1393,801 1401,799 1408,789 1423,782 1433,774 1440,765 1448,759 1465,749 1476,744 1486,740 1497,738 1508,734 1520,730 1538,720 1544,713 1545,710 1549,704 1583,665 1594,658 1604,652 1622,649 1637,644 1645,641 1652,639 1656,639 1664,643 1672,652 1680,659 1697,668 1710,671 1721,670 1730,666 1739,656 1760,635 1764,613 1770,602 1783,591 1794,586 1803,580 1815,576 1822,569 1824,561 1818,554 1814,546 1815,537 1819,529 1829,525 1832,518 1831,512 1827,508 1821,504 1811,487 1797,473 1793,468 1790,460 1795,454 1803,454 1806,453 1808,449 1812,439 1817,430 1821,424 1826,421 1830,421 1840,418 1850,411 1861,406 1881,400 1894,394 1901,388 1903,384 1901,379 1894,379 1886,380 1879,378 1869,367 1866,349 1869,343 1881,337 1888,331 1904,318 1918,304 1925,299 1928,294 1928,284 1924,273 1919,265 1918,259 1920,256 1925,255 1935,258 1940,262 1948,260 1955,257 1959,250 1966,247 1973,247 1978,248 1984,255 1993,259 2001,261 2008,264 2015,266 2028,267 2049,268 2073,272 2093,273 2109,272 2142,273 2169,277 2174,277 2177,274 2179,267 2183,257 2193,248 2195,247 2202,246 2209,247 2213,245 2219,241 2228,230 2235,222 2240,221 2249,220 2258,225 2264,228 2275,229 2281,230 2288,233 2296,238 2304,243 2312,249 2335,258 2350,259 2361,259 2372,256 2394,247 2401,246 2410,248 2415,249 2419,252 2421,255 2421,259 2419,265 2410,274 2380,293 2375,299 2372,305 2373,310 2377,315 2419,339 2426,343 2429,349 2431,356 2428,372 2410,387 2407,396 2411,407 2420,414 2441,415 2470,401 2493,389 2518,385 2538,388 2554,396 2565,402 2574,404 2583,405 2587,403 2591,399 2600,391 2620,380 2637,377 2653,375 2666,373 2684,367 2702,364 2711,362 2723,358 2733,351 2746,349 2760,352 2769,355 2778,357 2788,357 2800,352 2819,348 2839,347 2849,339 2862,325 2867,309 2873,298 2882,277 2887,268 2897,261 2918,254 2938,256 2955,254 2971,253 2976,251 2983,245 2993,233 2997,222 3003,217 3011,214 3028,212 3044,210 3051,207 3059,197 3068,187 3078,180 3087,172 3099,159 3106,148 3113,125 3120,118 3134,118 3156,117 3175,120 3192,120 3205,118 3215,109 3221,106 3227,108 3234,112 3238,123 3238,135 3234,150 3233,160 3235,168 3241,177 3252,186 3270,194 3284,198 3298,201 3310,202 3318,199 3328,190 3341,179 3353,175 3364,173 3372,179 3375,186 3383,192 3391,195 3399,194 3411,189 3423,184 3444,172 3453,162 3462,153 3479,140 3485,132 3484,127 3481,121 3477,115 3477,101 3483,94 3494,90 3508,91 3521,85 3528,78 3530,67 3530,59 3533,55 3545,53 3561,45 3571,43 3588,45 3603,42 3612,45 3622,48 3635,47 3645,44 3653,38 3665,22 3679,10 3695,2 3703,0 3708,5 " class="polyStyle" id="451425" style="fill:#d4ecb2"/>
<path d="" class="polyStyle" id="610324" style="fill:#f6f67b"/>
<path d="" class="polyStyle" id="530722" style="fill:#ee8b94"/>
<path d="" class="polyStyle" id="340823" style="fill:#d4ecb2"/>
<path d="" class="polyStyle" id="620825" style="fill:#d4ecb2"/>
<path d="" class="polyStyle" id="421125" style="fill:#ee8b94"/>
<path d="" class="polyStyle" id="210281" style="fill:#ee8b94"/>
<path d="" class="polyStyle" id="440883" style="fill:#f6f67b"/>
<path d="" class="polyStyle" id="469006" style="fill:#d4ecb2"/>
<path d="" class="polyStyle" id="469002" style="fill:#ee8b94"/>
<path d="" class="polyStyle" id="469005" style="fill:#fbe6ef"/>
<path d="" class="polyStyle" id="440882" style="fill:#ee8b94"/>
<path d="" class="polyStyle" id="450681" style="fill:#ee8b94"/>
<polygon points="710,5428 734,5433 745,5440 763,5460 772,5466 783,5470 810,5473 818,5476 826,5485 825,5513 820,5535 820,5547 823,5558 829,5568 838,5578 855,5589 866,5601 871,5608 873,5616 875,5627 874,5633 869,5645 864,5658 863,5668 866,5672 869,5676 882,5684 887,5687 887,5690 874,5703 869,5717 868,5722 870,5732 877,5740 886,5749 901,5749 914,5755 917,5759 918,5763 923,5768 927,5776 929,5781 936,5797 947,5805 957,5804 966,5798 969,5793 990,5780 998,5775 1003,5774 1014,5783 1024,5797 1031,5812 1038,5818 1054,5818 1072,5821 1083,5821 1111,5809 1125,5807 1138,5814 1148,5826 1162,5832 1173,5832 1192,5825 1210,5812 1217,5813 1228,5827 1231,5833 1233,5847 1233,5862 1225,5887 1221,5894 1214,5901 1206,5907 1189,5915 1177,5917 1155,5916 1149,5918 1145,5920 1140,5923 1127,5929 1121,5938 1121,5950 1124,5964 1128,5975 1134,5982 1142,5984 1159,5984 1174,5980 1202,5985 1207,5987 1212,6009 1219,6013 1225,6013 1242,6005 1251,6006 1260,6008 1269,6015 1276,6025 1282,6030 1292,6030 1303,6028 1311,6028 1316,6030 1325,6035 1336,6040 1352,6044 1370,6044 1390,6040 1402,6035 1418,6021 1440,6020 1448,6021 1457,6018 1462,6015 1484,5984 1504,5960 1508,5948 1512,5945 1517,5942 1562,5933 1569,5933 1597,5939 1607,5936 1623,5921 1627,5919 1633,5919 1639,5924 1643,5929 1644,5952 1649,5956 1655,5958 1659,5962 1666,5972 1669,5980 1674,5984 1679,5984 1685,5980 1693,5972 1701,5965 1724,5955 1736,5949 1756,5933 1773,5915 1787,5904 1792,5899 1797,5878 1805,5859 1809,5845 1809,5838 1796,5824 1794,5821 1795,5814 1805,5805 1835,5788 1841,5780 1844,5772 1846,5769 1885,5753 1894,5746 1906,5735 1912,5732 1918,5737 1920,5741 1930,5747 1943,5750 1961,5750 1997,5742 2011,5732 2023,5719 2026,5713 2036,5718 2062,5722 2063,5732 2068,5743 2082,5749 2094,5754 2094,5763 2092,5775 2094,5797 2099,5816 2106,5821 2107,5826 2125,5845 2125,5854 2124,5866 2118,5876 2092,5893 2080,5897 2069,5902 2056,5911 2028,5922 2017,5927 2001,5942 1983,5963 1973,5980 1969,5998 1952,6017 1946,6032 1944,6046 1943,6055 1948,6068 1956,6078 1967,6083 1977,6093 1990,6106 1997,6131 1990,6170 1972,6218 1971,6236 1976,6242 1985,6255 1992,6267 2002,6273 2015,6275 2035,6283 2056,6285 2069,6285 2094,6284 2111,6284 2128,6287 2142,6294 2154,6303 2163,6325 2169,6347 2169,6363 2169,6372 2169,6393 2164,6409 2165,6419 2167,6424 2176,6427 2185,6432 2192,6443 2193,6448 2194,6457 2199,6464 2208,6480 2205,6484 2207,6512 2200,6533 2185,6545 2091,6566 2088,6570 2077,6574 2068,6576 2045,6590 2042,6598 2043,6610 2047,6621 2050,6628 2055,6639 2062,6656 2068,6670 2076,6680 2082,6684 2091,6691 2108,6707 2120,6725 2120,6737 2118,6747 2113,6755 2105,6761 2095,6765 2077,6769 2059,6772 2047,6777 2027,6787 2025,6814 2024,6822 2021,6827 2014,6831 2006,6837 2002,6844 1999,6854 1997,6863 1993,6870 1990,6873 1985,6876 1981,6876 1974,6876 1964,6874 1957,6875 1947,6879 1942,6882 1937,6889 1931,6890 1927,6889 1922,6885 1915,6879 1908,6870 1901,6861 1894,6856 1887,6852 1880,6849 1872,6848 1866,6850 1859,6852 1852,6854 1848,6860 1844,6866 1840,6870 1834,6870 1831,6866 1827,6861 1821,6858 1816,6857 1809,6860 1806,6866 1802,6873 1800,6882 1800,6892 1803,6902 1801,6912 1760,6925 1734,6923 1702,6908 1667,6896 1632,6881 1604,6877 1576,6868 1552,6855 1526,6848 1495,6852 1456,6856 1412,6871 1373,6916 1339,6919 1306,6920 1281,6919 1228,6891 1207,6863 1167,6833 1158,6787 1157,6766 1112,6749 1078,6728 1043,6720 1005,6726 973,6725 941,6731 899,6755 884,6787 875,6825 870,6853 857,6879 826,6917 795,6925 768,6938 739,6978 701,6988 684,6957 685,6927 660,6901 644,6872 642,6844 647,6813 646,6787 651,6761 684,6735 720,6710 738,6684 758,6654 756,6619 753,6587 735,6574 715,6540 714,6497 751,6468 766,6448 772,6418 775,6394 781,6350 778,6325 773,6293 755,6270 729,6257 706,6226 694,6194 689,6156 683,6117 684,6085 690,6054 711,6030 753,6011 745,5984 708,5974 676,5964 627,5943 600,5919 593,5896 591,5856 591,5792 598,5775 620,5761 650,5768 660,5771 673,5770 688,5765 694,5761 702,5757 710,5748 716,5734 717,5719 717,5707 719,5699 725,5694 732,5691 739,5691 705,5636 702,5594 686,5551 676,5520 653,5466 656,5438 677,5417 691,5418 " class="polyStyle" id="451481" style="fill:#ee8b94"/>
<path d="" class="polyStyle" id="441581" style="fill:#d4ecb2"/>
<path d="" class="polyStyle" id="421087" style="fill:#ee8b94"/>
<path d="" class="polyStyle" id="420984" style="fill:#fbe6ef"/>
<path d="" class="polyStyle" id="420582" style="fill:#ee8b94"/>
<path d="" class="polyStyle" id="370282" style="fill:#f6f67b"/>
<path d="" class="polyStyle" id="371083" style="fill:#f6f67b"/>
<path d="" class="polyStyle" id="371082" style="fill:#fbe6ef"/>
<path d="" class="polyStyle" id="652801" style="fill:#f8c67d"/>
<path d="" class="polyStyle" id="654301" style="fill:#ee8b94"/>
<path d="" class="polyStyle" id="370687" style="fill:#ee8b94"/>
<path d="" class="polyStyle" id="371482" style="fill:#d4ecb2"/>
<path d="" class="polyStyle" id="421081" style="fill:#fbe6ef"/>
<path d="" class="polyStyle" id="429006" style="fill:#f6f67b"/>
<path d="" class="polyStyle" id="440982" style="fill:#d4ecb2"/>
<path d="" class="polyStyle" id="421181" style="fill:#d4ecb2"/>
<path d="" class="polyStyle" id="321181" style="fill:#d4ecb2"/>
<path d="" class="polyStyle" id="659007" style="fill:#ee8b94"/>
<path d="" class="polyStyle" id="652701" style="fill:#fbe6ef"/>
<path d="" class="polyStyle" id="210781" style="fill:#fbe6ef"/>
<path d="" class="polyStyle" id="460204" style="fill:#f6f67b"/>
<path d="" class="polyStyle" id="210211" style="fill:#f6f67b"/>
<path d="" class="polyStyle" id="450512" style="fill:#ee8b94"/>
<path d="" class="polyStyle" id="450602" style="fill:#fbe6ef"/>
<path d="" class="polyStyle" id="440404" style="fill:#ee8b94"/>
<path d="" class="polyStyle" id="440403" style="fill:#f6f67b"/>
<polygon points="5338,2256 5360,2258 5385,2255 5417,2257 5435,2261 5449,2267 5458,2274 5459,2284 5454,2312 5444,2328 5447,2336 5460,2342 5475,2350 5497,2380 5501,2400 5506,2408 5506,2426 5508,2437 5514,2445 5523,2446 5537,2448 5541,2462 5546,2486 5553,2495 5563,2498 5573,2496 5584,2489 5595,2487 5608,2474 5626,2464 5646,2460 5667,2462 5692,2475 5720,2504 5727,2509 5732,2519 5735,2529 5736,2544 5742,2557 5751,2577 5756,2590 5754,2604 5746,2615 5738,2625 5734,2638 5730,2646 5720,2656 5715,2661 5706,2666 5704,2673 5708,2684 5696,2697 5693,2707 5701,2725 5698,2738 5685,2759 5687,2765 5692,2772 5695,2778 5701,2784 5705,2786 5710,2788 5718,2793 5723,2800 5728,2804 5736,2806 5746,2804 5756,2806 5766,2815 5766,2828 5763,2851 5765,2865 5769,2877 5771,2896 5770,2919 5770,2937 5775,2945 5789,2953 5812,2960 5814,2965 5810,2970 5816,2981 5828,2992 5845,3000 5860,3004 5869,3013 5873,3028 5875,3051 5875,3070 5877,3077 5887,3094 5887,3107 5898,3119 5899,3130 5894,3140 5890,3151 5891,3155 5907,3154 5915,3152 5925,3144 5930,3147 5933,3159 5938,3173 5942,3190 5943,3201 5942,3214 5940,3217 5939,3222 5938,3233 5940,3240 5948,3245 5956,3249 5970,3253 5981,3260 6006,3261 6017,3265 6024,3276 6029,3279 6037,3278 6044,3289 6059,3292 6075,3293 6095,3292 6105,3296 6111,3302 6114,3312 6120,3318 6128,3320 6137,3317 6142,3321 6144,3332 6149,3337 6159,3336 6166,3345 6170,3359 6166,3366 6164,3374 6167,3382 6173,3387 6177,3399 6183,3411 6187,3428 6194,3436 6193,3442 6186,3440 6169,3441 6158,3451 6149,3449 6142,3431 6133,3425 6119,3426 6101,3433 6080,3435 6067,3438 6063,3437 6052,3427 6047,3428 6040,3436 6030,3441 6021,3443 6012,3440 6006,3433 6000,3420 5991,3411 5978,3408 5968,3410 5963,3418 5966,3426 5966,3434 5964,3439 5958,3441 5947,3438 5941,3440 5928,3453 5910,3475 5909,3487 5914,3498 5922,3502 5932,3509 5941,3519 5945,3530 5947,3541 5945,3553 5942,3558 5938,3559 5925,3558 5908,3560 5897,3564 5890,3569 5887,3578 5888,3588 5893,3599 5900,3608 5907,3617 5904,3623 5895,3628 5884,3632 5880,3643 5874,3654 5865,3659 5851,3660 5836,3656 5825,3659 5817,3666 5811,3675 5806,3680 5782,3685 5767,3695 5755,3708 5733,3742 5718,3760 5697,3777 5688,3783 5683,3790 5683,3801 5686,3810 5692,3817 5697,3819 5707,3818 5718,3807 5725,3802 5739,3812 5746,3822 5743,3827 5738,3830 5733,3837 5735,3846 5742,3849 5752,3850 5766,3859 5787,3881 5792,3889 5785,3892 5782,3901 5787,3914 5784,3921 5775,3923 5761,3915 5750,3917 5735,3921 5720,3915 5714,3916 5702,3926 5691,3929 5680,3925 5673,3928 5669,3940 5666,3945 5659,3946 5651,3944 5644,3936 5632,3929 5628,3931 5627,3942 5614,3956 5602,3963 5589,3974 5580,3987 5576,4004 5571,4012 5565,4015 5556,4013 5549,4004 5542,4006 5529,4015 5522,4016 5504,4015 5483,4015 5475,4011 5472,4003 5476,3987 5477,3977 5473,3972 5460,3967 5455,3962 5455,3954 5449,3949 5442,3942 5436,3934 5438,3926 5441,3914 5445,3903 5450,3894 5457,3894 5471,3899 5479,3900 5483,3892 5482,3884 5473,3873 5470,3863 5470,3856 5466,3852 5454,3851 5449,3859 5442,3868 5432,3882 5423,3893 5413,3900 5397,3907 5387,3914 5376,3925 5369,3930 5362,3928 5356,3921 5347,3914 5337,3909 5329,3907 5325,3922 5321,3927 5314,3929 5308,3926 5293,3913 5288,3911 5279,3912 5263,3918 5253,3928 5247,3940 5239,3953 5232,3958 5227,3949 5223,3939 5219,3931 5215,3929 5207,3929 5197,3934 5192,3942 5190,3949 5191,3956 5171,3968 5163,3980 5154,3992 5156,4001 5173,4016 5200,4034 5213,4054 5216,4070 5214,4077 5208,4080 5201,4080 5187,4076 5180,4066 5169,4060 5159,4058 5146,4058 5136,4062 5125,4070 5114,4081 5104,4088 5095,4094 5083,4096 5067,4093 5053,4098 5046,4107 5049,4118 5049,4130 5045,4136 5038,4142 5035,4148 5037,4156 5038,4159 5035,4161 5031,4160 5022,4154 5010,4145 5007,4135 5000,4126 4997,4121 4990,4122 4984,4121 4976,4117 4971,4114 4966,4116 4960,4121 4959,4127 4964,4134 4973,4142 4975,4147 4974,4152 4966,4156 4959,4159 4954,4163 4942,4169 4935,4175 4931,4181 4931,4187 4934,4190 4942,4190 4956,4194 4975,4195 4983,4198 4987,4204 4987,4209 4978,4215 4966,4222 4957,4228 4944,4229 4938,4232 4936,4239 4940,4243 4948,4250 4949,4258 4946,4266 4933,4273 4924,4275 4920,4281 4920,4287 4918,4294 4908,4299 4901,4290 4897,4280 4894,4268 4889,4260 4883,4253 4874,4243 4872,4232 4869,4222 4863,4218 4856,4214 4846,4214 4839,4219 4838,4228 4835,4246 4828,4261 4819,4272 4820,4284 4826,4296 4834,4309 4848,4321 4864,4331 4884,4342 4890,4348 4890,4353 4887,4364 4881,4375 4869,4386 4854,4393 4848,4397 4838,4417 4840,4420 4847,4418 4854,4428 4857,4435 4865,4441 4878,4441 4883,4444 4884,4457 4891,4466 4891,4474 4887,4487 4890,4496 4895,4506 4906,4531 4912,4535 4929,4539 4950,4549 4953,4543 4950,4539 4954,4537 4966,4546 4962,4555 4964,4563 4974,4570 4982,4574 5009,4581 5024,4581 5047,4590 5071,4597 5090,4599 5103,4596 5118,4597 5124,4603 5128,4613 5134,4616 5143,4614 5150,4614 5158,4612 5161,4615 5164,4629 5171,4631 5179,4623 5187,4622 5200,4629 5199,4635 5203,4642 5213,4650 5225,4661 5238,4691 5250,4702 5249,4709 5244,4719 5245,4735 5248,4740 5258,4745 5270,4747 5277,4743 5284,4742 5300,4753 5311,4758 5323,4755 5334,4764 5346,4764 5357,4762 5370,4764 5405,4763 5411,4768 5416,4779 5418,4787 5422,4802 5429,4850 5432,4888 5435,4908 5438,4921 5435,4935 5429,4950 5428,4967 5433,4980 5446,5006 5449,5015 5449,5023 5435,5044 5432,5056 5432,5070 5434,5081 5438,5090 5440,5100 5441,5109 5433,5114 5411,5118 5375,5118 5339,5124 5314,5122 5299,5120 5286,5113 5281,5114 5274,5117 5273,5123 5264,5135 5254,5150 5249,5163 5246,5176 5261,5189 5271,5193 5277,5197 5281,5208 5283,5224 5283,5242 5282,5255 5284,5259 5291,5261 5301,5260 5313,5256 5316,5258 5318,5261 5324,5271 5335,5285 5345,5298 5349,5307 5349,5316 5347,5329 5344,5339 5337,5345 5329,5346 5325,5350 5319,5355 5313,5364 5304,5370 5294,5374 5287,5376 5282,5372 5281,5366 5281,5356 5280,5344 5270,5333 5256,5327 5246,5326 5232,5329 5227,5335 5218,5342 5204,5343 5192,5343 5186,5348 5179,5358 5171,5363 5159,5363 5138,5365 5127,5373 5113,5375 5100,5373 5091,5374 5085,5379 5083,5387 5083,5401 5079,5413 5068,5425 5038,5451 5015,5463 4987,5468 4980,5469 4972,5470 4978,5485 4981,5489 4980,5501 4976,5513 4976,5516 4984,5515 4987,5516 4986,5520 4976,5537 4977,5545 4984,5565 4979,5569 4978,5573 4992,5585 5005,5595 5014,5606 5020,5618 5019,5627 5018,5635 5022,5640 5033,5652 5041,5664 5046,5674 5054,5688 5064,5698 5071,5702 5077,5702 5087,5697 5103,5687 5107,5687 5110,5689 5128,5710 5131,5719 5132,5726 5129,5736 5118,5750 5100,5777 5090,5781 5073,5797 5055,5815 5037,5839 5027,5857 5026,5870 5028,5887 5013,5911 5009,5931 5006,5956 5004,5969 4999,5981 4994,5985 4986,5984 4980,5977 4976,5978 4968,5981 4956,5982 4942,5979 4934,5978 4926,5983 4916,5986 4909,5986 4900,5983 4895,5981 4887,5984 4874,5985 4863,5981 4856,5983 4845,5981 4837,5986 4830,5994 4820,6007 4812,6009 4804,6008 4784,6000 4769,5992 4756,5988 4745,5980 4740,5972 4738,5960 4741,5946 4751,5928 4759,5919 4762,5916 4765,5910 4768,5897 4766,5884 4761,5868 4754,5858 4748,5851 4753,5841 4769,5818 4776,5799 4780,5782 4784,5749 4778,5742 4768,5735 4765,5721 4766,5706 4759,5705 4750,5711 4735,5714 4718,5706 4718,5715 4727,5737 4728,5749 4718,5761 4707,5773 4709,5785 4708,5789 4697,5797 4682,5806 4658,5809 4625,5808 4581,5801 4565,5786 4554,5767 4542,5759 4528,5762 4514,5759 4506,5750 4498,5752 4491,5760 4483,5777 4473,5782 4459,5784 4434,5783 4418,5777 4410,5774 4398,5775 4390,5779 4385,5788 4384,5797 4385,5809 4383,5816 4378,5821 4365,5820 4347,5819 4335,5816 4326,5816 4321,5825 4312,5844 4302,5853 4288,5856 4266,5857 4252,5854 4243,5847 4231,5833 4214,5821 4203,5817 4194,5821 4180,5835 4164,5846 4153,5849 4141,5844 4123,5840 4113,5842 4111,5848 4100,5863 4086,5881 4073,5892 4056,5899 4039,5905 4022,5908 3997,5908 3980,5907 3939,5920 3914,5924 3891,5924 3873,5922 3863,5917 3853,5907 3849,5876 3851,5869 3860,5857 3863,5853 3865,5848 3855,5834 3852,5826 3854,5816 3864,5801 3862,5793 3858,5787 3837,5774 3821,5756 3804,5748 3790,5743 3776,5727 3760,5720 3747,5718 3729,5724 3724,5725 3714,5724 3700,5718 3693,5711 3686,5697 3679,5694 3672,5698 3663,5709 3656,5715 3635,5716 3615,5713 3597,5702 3597,5692 3597,5684 3592,5679 3583,5675 3576,5677 3572,5686 3568,5693 3534,5690 3521,5695 3512,5698 3504,5698 3483,5696 3467,5692 3459,5684 3452,5679 3445,5675 3439,5670 3431,5661 3428,5650 3434,5636 3449,5624 3460,5609 3466,5595 3469,5583 3469,5560 3469,5545 3469,5541 3463,5532 3452,5520 3448,5511 3444,5502 3437,5494 3435,5473 3439,5463 3449,5460 3454,5456 3453,5442 3458,5439 3466,5441 3475,5447 3484,5452 3497,5453 3506,5452 3511,5446 3518,5435 3531,5427 3542,5416 3545,5408 3545,5397 3536,5384 3519,5364 3511,5348 3509,5331 3513,5318 3518,5306 3526,5297 3535,5294 3540,5297 3544,5310 3551,5318 3562,5315 3570,5305 3571,5293 3571,5274 3576,5267 3587,5264 3600,5269 3607,5259 3615,5253 3627,5246 3632,5239 3640,5215 3638,5212 3633,5212 3630,5209 3630,5201 3631,5198 3637,5181 3647,5172 3646,5167 3634,5151 3631,5142 3631,5132 3634,5126 3648,5117 3649,5113 3646,5110 3639,5107 3631,5104 3627,5101 3624,5087 3618,5080 3605,5073 3597,5071 3580,5074 3575,5077 3564,5076 3557,5070 3543,5063 3538,5070 3535,5077 3516,5097 3508,5125 3506,5128 3502,5132 3493,5137 3480,5143 3472,5143 3443,5141 3437,5140 3428,5137 3419,5133 3414,5128 3410,5125 3403,5117 3390,5098 3389,5091 3385,5081 3383,5063 3378,5046 3374,5035 3362,5021 3346,5011 3331,5004 3311,5000 3287,4999 3267,5000 3255,5001 3245,5004 3234,5016 3225,5033 3216,5048 3209,5052 3202,5053 3195,5051 3190,5046 3184,5035 3183,5025 3182,5007 3180,4990 3177,4984 3171,4982 3160,4989 3147,4997 3141,4998 3131,4997 3118,4993 3112,4994 3112,5001 3113,5005 3119,5008 3127,5013 3134,5020 3138,5027 3137,5032 3129,5039 3114,5051 3094,5070 3089,5081 3089,5088 3097,5099 3107,5107 3111,5113 3111,5118 3107,5122 3097,5125 3081,5134 3074,5133 3066,5132 3044,5129 3038,5124 3031,5116 3031,5104 3029,5097 3025,5084 3024,5074 3028,5066 3041,5051 3042,5043 3038,5036 3035,5025 3033,5012 3031,4980 3033,4946 3035,4938 3042,4929 3052,4920 3057,4911 3064,4902 3067,4895 3065,4889 3059,4882 3052,4874 3047,4866 3044,4859 3046,4854 3048,4846 3053,4840 3056,4832 3059,4821 3056,4817 3045,4819 3041,4817 3042,4812 3043,4802 3048,4797 3065,4790 3069,4789 3078,4782 3089,4773 3096,4763 3102,4760 3110,4759 3132,4764 3140,4764 3145,4762 3157,4746 3160,4739 3175,4718 3183,4712 3187,4710 3201,4710 3213,4706 3231,4694 3245,4681 3253,4671 3256,4662 3257,4646 3250,4622 3245,4614 3243,4604 3245,4600 3261,4588 3269,4585 3274,4580 3281,4571 3283,4565 3283,4554 3278,4548 3272,4547 3256,4547 3246,4549 3230,4551 3219,4548 3217,4544 3223,4522 3229,4513 3235,4494 3235,4487 3219,4485 3194,4494 3180,4492 3169,4489 3156,4482 3146,4480 3142,4484 3132,4488 3114,4493 3100,4493 3091,4491 3081,4481 3074,4469 3067,4466 3049,4471 3035,4468 3025,4467 3019,4471 3018,4486 3020,4502 3021,4513 3020,4516 3016,4519 2997,4523 2976,4526 2967,4525 2961,4521 2956,4517 2943,4499 2930,4470 2926,4461 2921,4452 2914,4448 2904,4445 2901,4439 2900,4428 2900,4415 2892,4401 2879,4394 2869,4390 2860,4381 2855,4366 2857,4357 2867,4350 2867,4341 2861,4339 2857,4331 2855,4321 2861,4308 2866,4299 2876,4287 2882,4281 2888,4277 2897,4268 2902,4260 2904,4251 2904,4239 2901,4231 2894,4223 2885,4218 2868,4217 2859,4218 2845,4207 2843,4201 2852,4198 2857,4189 2856,4179 2857,4167 2861,4139 2859,4127 2852,4116 2850,4098 2829,4092 2820,4084 2810,4063 2804,4054 2800,4041 2800,4029 2783,4020 2766,4015 2760,4012 2750,4008 2742,4006 2735,4008 2726,4012 2721,4011 2716,4008 2709,3999 2707,3990 2710,3984 2717,3984 2736,3990 2760,3997 2770,4000 2777,3999 2791,3995 2795,3990 2802,3986 2811,3984 2824,3986 2836,3988 2839,3982 2842,3972 2852,3959 2862,3948 2869,3942 2872,3938 2862,3931 2858,3926 2857,3919 2864,3897 2867,3880 2862,3875 2859,3866 2862,3860 2872,3856 2886,3852 2897,3847 2913,3832 2923,3827 2945,3826 2953,3823 2962,3808 2969,3801 2975,3799 3012,3784 3025,3782 3028,3780 3025,3774 3025,3770 3031,3766 3047,3766 3058,3764 3068,3760 3082,3750 3102,3725 3115,3715 3128,3711 3173,3712 3216,3710 3230,3707 3236,3704 3246,3694 3265,3677 3267,3672 3266,3666 3258,3659 3251,3651 3244,3636 3242,3625 3248,3617 3265,3611 3275,3602 3276,3587 3277,3569 3287,3555 3293,3544 3294,3533 3291,3514 3290,3495 3291,3489 3296,3485 3310,3490 3317,3491 3321,3490 3329,3484 3336,3475 3341,3470 3345,3468 3352,3472 3354,3480 3352,3490 3353,3496 3356,3503 3364,3513 3369,3524 3369,3530 3369,3535 3373,3539 3381,3545 3390,3542 3413,3520 3423,3514 3443,3512 3450,3504 3457,3494 3475,3494 3488,3493 3507,3483 3536,3484 3549,3480 3560,3476 3574,3465 3579,3463 3582,3462 3589,3457 3602,3452 3611,3450 3618,3452 3620,3456 3621,3464 3623,3476 3621,3481 3618,3486 3617,3492 3617,3504 3618,3526 3616,3537 3613,3539 3600,3542 3586,3542 3573,3547 3568,3549 3563,3546 3561,3541 3559,3528 3558,3523 3556,3515 3551,3514 3545,3514 3538,3518 3534,3523 3533,3533 3533,3546 3533,3552 3531,3559 3526,3566 3521,3583 3510,3593 3497,3594 3486,3597 3479,3600 3473,3599 3470,3602 3466,3609 3459,3625 3456,3634 3457,3641 3463,3646 3475,3652 3487,3660 3491,3678 3498,3693 3505,3702 3509,3711 3508,3719 3503,3724 3495,3722 3481,3719 3475,3721 3470,3732 3470,3742 3473,3756 3472,3769 3485,3785 3492,3800 3495,3812 3497,3828 3497,3835 3498,3840 3498,3860 3500,3878 3507,3890 3505,3895 3494,3901 3497,3911 3499,3925 3504,3933 3516,3943 3518,3957 3524,3966 3537,3971 3544,3978 3552,3991 3559,4004 3558,4015 3559,4023 3565,4034 3575,4038 3594,4044 3619,4058 3639,4069 3662,4073 3689,4073 3717,4068 3729,4075 3732,4074 3744,4068 3767,4073 3772,4072 3786,4066 3797,4054 3820,4052 3840,4047 3845,4047 3847,4054 3846,4068 3837,4091 3835,4104 3838,4111 3843,4116 3848,4118 3856,4125 3862,4128 3866,4127 3870,4121 3881,4108 3886,4099 3886,4094 3881,4084 3873,4076 3884,4063 3887,4056 3898,4054 3903,4053 3909,4055 3919,4057 3926,4056 3933,4050 3939,4041 3945,4029 3951,4013 3954,4004 3956,3998 3958,3995 3964,3986 3973,3963 3971,3954 3966,3952 3946,3953 3939,3951 3938,3947 3940,3942 3951,3929 3973,3900 3973,3895 3966,3883 3947,3873 3921,3856 3887,3832 3881,3830 3877,3832 3866,3843 3859,3847 3855,3846 3854,3843 3861,3833 3857,3831 3847,3828 3837,3823 3831,3815 3830,3811 3831,3808 3837,3800 3842,3790 3853,3772 3859,3761 3868,3754 3875,3753 3888,3750 3890,3746 3879,3718 3878,3708 3881,3677 3895,3656 3894,3653 3885,3658 3877,3661 3864,3660 3857,3655 3853,3645 3857,3625 3857,3620 3853,3614 3852,3606 3859,3596 3869,3590 3880,3581 3883,3573 3881,3564 3867,3557 3849,3540 3846,3541 3838,3548 3816,3558 3812,3556 3811,3553 3812,3542 3819,3519 3799,3521 3795,3526 3792,3528 3786,3526 3781,3522 3776,3516 3772,3505 3772,3501 3773,3495 3776,3490 3792,3481 3797,3477 3799,3470 3807,3440 3804,3428 3791,3420 3787,3413 3788,3401 3792,3387 3804,3376 3814,3371 3819,3357 3827,3348 3846,3338 3863,3325 3871,3316 3895,3285 3908,3276 3928,3264 3948,3259 3956,3260 3962,3258 3974,3257 3984,3253 3993,3242 3999,3230 4008,3223 4016,3218 4031,3212 4035,3201 4042,3195 4059,3190 4071,3188 4073,3187 4096,3188 4120,3192 4129,3196 4134,3203 4134,3213 4133,3217 4140,3216 4152,3211 4165,3196 4183,3177 4197,3170 4201,3165 4198,3162 4194,3155 4195,3146 4201,3133 4204,3126 4203,3118 4201,3098 4193,3088 4180,3079 4162,3073 4150,3070 4137,3068 4125,3062 4117,3055 4106,3039 4101,3023 4104,3019 4112,3015 4124,3012 4137,3013 4167,3007 4183,3009 4190,3005 4190,3000 4188,2990 4184,2972 4186,2963 4191,2951 4200,2939 4207,2936 4210,2936 4217,2942 4218,2956 4220,2962 4240,2980 4249,2986 4257,2987 4266,2987 4272,2986 4288,2989 4297,2991 4301,2989 4300,2982 4297,2978 4288,2968 4283,2957 4283,2949 4297,2917 4297,2907 4293,2899 4290,2887 4290,2883 4295,2875 4309,2865 4320,2861 4331,2853 4334,2847 4335,2839 4328,2828 4321,2808 4321,2804 4325,2804 4328,2802 4358,2775 4363,2766 4365,2756 4363,2747 4348,2735 4340,2738 4333,2737 4325,2732 4322,2728 4315,2707 4305,2698 4298,2690 4293,2680 4290,2668 4295,2658 4308,2646 4314,2644 4323,2639 4328,2628 4326,2609 4320,2596 4324,2589 4332,2588 4339,2595 4346,2599 4350,2600 4374,2598 4391,2590 4403,2579 4414,2557 4421,2553 4425,2553 4437,2564 4449,2583 4452,2598 4458,2608 4465,2610 4480,2608 4493,2611 4511,2615 4521,2622 4531,2632 4531,2635 4535,2640 4541,2642 4555,2639 4561,2640 4578,2636 4599,2633 4614,2634 4630,2626 4637,2620 4644,2610 4644,2606 4637,2598 4616,2585 4607,2572 4598,2551 4598,2540 4599,2536 4604,2529 4609,2526 4623,2524 4643,2516 4661,2521 4671,2521 4688,2515 4705,2530 4726,2546 4743,2551 4762,2549 4776,2548 4790,2545 4804,2536 4831,2527 4844,2511 4856,2502 4871,2502 4892,2503 4902,2498 4919,2478 4931,2475 4942,2474 4959,2476 4975,2479 4988,2481 5007,2474 5020,2473 5043,2473 5069,2473 5077,2470 5080,2462 5079,2453 5087,2446 5090,2437 5087,2430 5080,2423 5068,2417 5069,2410 5083,2391 5081,2378 5070,2365 5068,2342 5061,2335 5058,2332 5060,2328 5072,2325 5083,2316 5097,2316 5107,2318 5122,2323 5138,2320 5158,2306 5179,2299 5191,2289 5204,2286 5227,2286 5242,2283 5248,2280 5259,2273 5267,2256 5275,2251 5292,2251 5316,2255 " class="polyStyle" id="451402" style="fill:#d4ecb2"/>
<path d="" class="polyStyle" id="441502" style="fill:#f6f67b"/>
<path d="" class="polyStyle" id="431002" style="fill:#d4ecb2"/>
<path d="" class="polyStyle" id="500107" style="fill:#fbe6ef"/>
<path d="" class="polyStyle" id="430611" style="fill:#d4ecb2"/>
<path d="" class="polyStyle" id="511304" style="fill:#fbe6ef"/>
<path d="" class="polyStyle" id="340711" style="fill:#ee8b94"/>
<path d="" class="polyStyle" id="320118" style="fill:#f6f67b"/>
<path d="" class="polyStyle" id="510704" style="fill:#f6f67b"/>
<path d="" class="polyStyle" id="411502" style="fill:#ee8b94"/>
<path d="" class="polyStyle" id="320302" style="fill:#d4ecb2"/>
<path d="" class="polyStyle" id="140311" style="fill:#ee8b94"/>
<path d="" class="polyStyle" id="610802" style="fill:#ee8b94"/>
<path d="" class="polyStyle" id="120116" style="fill:#f6f67b"/>
<path d="" class="polyStyle" id="130303" style="fill:#fbe6ef"/>
<path d="" class="polyStyle" id="140211" style="fill:#f6f67b"/>
<path d="" class="polyStyle" id="150207" style="fill:#fbe6ef"/>
<path d="" class="polyStyle" id="211403" style="fill:#f6f67b"/>
<path d="" class="polyStyle" id="150802" style="fill:#f8c67d"/>
<path d="" class="polyStyle" id="210112" style="fill:#ee8b94"/>
<path d="" class="polyStyle" id="230406" style="fill:#d4ecb2"/>
<path d="" class="polyStyle" id="110113" style="fill:#fbe6ef"/>
<path d="" class="polyStyle" id="341702" style="fill:#fbe6ef"/>
<path d="" class="polyStyle" id="420303" style="fill:#ee8b94"/>
<path d="" class="polyStyle" id="340702" style="fill:#d4ecb2"/>
<path d="" class="polyStyle" id="421002" style="fill:#f6f67b"/>
<path d="" class="polyStyle" id="420117" style="fill:#f6f67b"/>
<path d="" class="polyStyle" id="440904" style="fill:#f8c67d"/>
<path d="" class="polyStyle" id="460205" style="fill:#ee8b94"/>
<path d="" class="polyStyle" id="460202" style="fill:#f6f67b"/>
<path d="" class="polyStyle" id="460203" style="fill:#fbe6ef"/>
<path d="" class="polyStyle" id="420304" style="fill:#f6f67b"/>
<path d="" class="polyStyle" id="445302" style="fill:#ee8b94"/>
<path d="" class="polyStyle" id="410202" style="fill:#d4ecb2"/>
<path d="" class="polyStyle" id="440800" style="fill:#f6f67b"/>
<path d="" class="polyStyle" id="440900" style="fill:#ee8b94"/>
<path d="" class="polyStyle" id="340800" style="fill:#ee8b94"/>
<path d="" class="polyStyle" id="460200" style="fill:#f6f67b"/>
<path d="" class="polyStyle" id="460000" style="fill:#ee8b94"/>
<path d="" class="polyStyle" id="450500" style="fill:#ee8b94"/>
<path d="" class="polyStyle" id="450600" style="fill:#ee8b94"/>
<path d="" class="polyStyle" id="440400" style="fill:#f6f67b"/>
<path d="" class="polyStyle" id="441700" style="fill:#f6f67b"/>
<path d="" class="polyStyle" id="441500" style="fill:#f6f67b"/>
<path d="" class="polyStyle" id="350600" style="fill:#ee8b94"/>
<path d="" class="polyStyle" id="710000" style="fill:#f6f67b"/>
<path d="" class="polyStyle" id="510400" style="fill:#f6f67b"/>
<path d="" class="polyStyle" id="522600" style="fill:#fbe6ef"/>
<path d="" class="polyStyle" id="520500" style="fill:#ee8b94"/>
<path d="" class="polyStyle" id="431200" style="fill:#f6f67b"/>
<path d="" class="polyStyle" id="430600" style="fill:#f6f67b"/>
<path d="" class="polyStyle" id="511400" style="fill:#d4ecb2"/>
<path d="" class="polyStyle" id="421000" style="fill:#ee8b94"/>
<path d="" class="polyStyle" id="341700" style="fill:#f6f67b"/>
<path d="" class="polyStyle" id="420500" style="fill:#f6f67b"/>
<path d="" class="polyStyle" id="511300" style="fill:#f6f67b"/>
<path d="" class="polyStyle" id="420900" style="fill:#f6f67b"/>
<path d="" class="polyStyle" id="511700" style="fill:#ee8b94"/>
<path d="" class="polyStyle" id="420600" style="fill:#d4ecb2"/>
<path d="" class="polyStyle" id="411500" style="fill:#fbe6ef"/>
<path d="" class="polyStyle" id="510800" style="fill:#ee8b94"/>
<path d="" class="polyStyle" id="420300" style="fill:#fbe6ef"/>
<path d="" class="polyStyle" id="611000" style="fill:#ee8b94"/>
<path d="" class="polyStyle" id="620800" style="fill:#fbe6ef"/>
<path d="" class="polyStyle" id="370200" style="fill:#ee8b94"/>
<path d="" class="polyStyle" id="371000" style="fill:#f6f67b"/>
<path d="" class="polyStyle" id="370600" style="fill:#fbe6ef"/>
<path d="" class="polyStyle" id="120000" style="fill:#f6f67b"/>
<path d="" class="polyStyle" id="130200" style="fill:#ee8b94"/>
<path d="" class="polyStyle" id="130300" style="fill:#f6f67b"/>
<path d="" class="polyStyle" id="652900" style="fill:#fbe6ef"/>
<path d="" class="polyStyle" id="150500" style="fill:#d4ecb2"/>
<path d="" class="polyStyle" id="" style="fill:#d4ecb2"/>
<path d="" class="polyStyle" id="350500" style="fill:#fbe6ef"/>
<path d="" class="polyStyle" id="440400" style="fill:#f6f67b"/>
<path d="" class="polyStyle" id="421100" style="fill:#d4ecb2"/>
<path d="" class="polyStyle" id="420100" style="fill:#fbe6ef"/>
<path d="" class="polyStyle" id="532500" style="fill:#fbe6ef"/>
<path d="" class="polyStyle" id="654200" style="fill:#fbe6ef"/>
<path d="" class="polyStyle" id="210700" style="fill:#d4ecb2"/>
<path d="" class="polyStyle" id="522300" style="fill:#fbe6ef"/>
<path d="" class="polyStyle" id="" style="fill:#ee8b94"/>
<path d="" class="polyStyle" id="440400" style="fill:#f6f67b"/>
<path d="" class="polyStyle" id="620000" style="fill:#f6f67b"/>
<path d="" class="polyStyle" id="430000" style="fill:#fbe6ef"/>
<path d="" class="polyStyle" id="420000" style="fill:#ee8b94"/>
<path d="" class="polyStyle" id="410000" style="fill:#f6f67b"/>
<path d="" class="polyStyle" id="350000" style="fill:#fbe6ef"/>
<path d="" class="polyStyle" id="520000" style="fill:#f6f67b"/>
<path d="" class="polyStyle" id="" style="fill:#ee8b94"/>
</svg>
