<?xml version="1.0" encoding="UTF-8"?>
<!DOCTYPE svg PUBLIC "-//W3C//DTD SVG 1.1 Tiny//EN" "http://www.w3.org/Graphics/SVG/1.1/DTD/svg11-tiny.dtd">
<svg version="1.1" xmlns="http://www.w3.org/2000/svg" xmlns:xlink="http://www.w3.org/1999/xlink" width="100%" height="100%" viewBox="0,0,2920,2815">
<title>SVG</title>
<desc>Poligon Test</desc>
<style id="style_css_sheet" type="text/css">
.polyStyle{fill: #cccccc;stroke-width:0;fill-rule:evenodd;}
</style>
<circle cx="1184" cy="293" r="200" stroke="black" stroke-width="1" fill="red" id="460108"position="22" name="美兰区"/>
<circle cx="1123" cy="423" r="200" stroke="black" stroke-width="1" fill="red" id="460107"position="4" name="琼山区"/>
<circle cx="885" cy="294" r="200" stroke="black" stroke-width="1" fill="red" id="460106" position="34"name="龙华区"/>
<circle cx="822" cy="401" r="200" stroke="black" stroke-width="1" fill="red" id="460105"position="444" name="秀英区"/>
<path d="" class="polyStyle" id="" style="fill:#ee8b94"/>
<path d="" class="polyStyle" id="623022" style="fill:#fbe6ef"/>
<path d="" class="polyStyle" id="211421" style="fill:#f6f67b"/>
<path d="" class="polyStyle" id="532524" style="fill:#ee8b94"/>
<path d="" class="polyStyle" id="440825" style="fill:#f6f67b"/>
<path d="" class="polyStyle" id="441721" style="fill:#f6f67b"/>
<path d="" class="polyStyle" id="450521" style="fill:#f6f67b"/>
<path d="" class="polyStyle" id="450123" style="fill:#fbe6ef"/>
<path d="" class="polyStyle" id="350624" style="fill:#f6f67b"/>
<path d="" class="polyStyle" id="" style="fill:#fbe6ef"/>
<path d="" class="polyStyle" id="451224" style="fill:#fbe6ef"/>
<path d="" class="polyStyle" id="350627" style="fill:#f6f67b"/>
<path d="" class="polyStyle" id="" style="fill:#f6f67b"/>
<path d="" class="polyStyle" id="350525" style="fill:#f6f67b"/>
<path d="" class="polyStyle" id="530124" style="fill:#ee8b94"/>
<path d="" class="polyStyle" id="522627" style="fill:#ee8b94"/>
<path d="" class="polyStyle" id="510421" style="fill:#fbe6ef"/>
<path d="" class="polyStyle" id="522623" style="fill:#d4ecb2"/>
<path d="" class="polyStyle" id="430321" style="fill:#d4ecb2"/>
<path d="" class="polyStyle" id="511129" style="fill:#d4ecb2"/>
<path d="" class="polyStyle" id="511423" style="fill:#ee8b94"/>
<path d="" class="polyStyle" id="421023" style="fill:#f6f67b"/>
<path d="" class="polyStyle" id="511724" style="fill:#f6f67b"/>
<path d="" class="polyStyle" id="420526" style="fill:#fbe6ef"/>
<path d="" class="polyStyle" id="511923" style="fill:#fbe6ef"/>
<path d="" class="polyStyle" id="420325" style="fill:#fbe6ef"/>
<path d="" class="polyStyle" id="511921" style="fill:#f6f67b"/>
<path d="" class="polyStyle" id="542525" style="fill:#f6f67b"/>
<path d="" class="polyStyle" id="611026" style="fill:#ee8b94"/>
<path d="" class="polyStyle" id="411023" style="fill:#fbe6ef"/>
<path d="" class="polyStyle" id="632323" style="fill:#f6f67b"/>
<path d="" class="polyStyle" id="140525" style="fill:#d4ecb2"/>
<path d="" class="polyStyle" id="410922" style="fill:#ee8b94"/>
<path d="" class="polyStyle" id="621027" style="fill:#ee8b94"/>
<path d="" class="polyStyle" id="130427" style="fill:#f6f67b"/>
<path d="" class="polyStyle" id="130121" style="fill:#ee8b94"/>
<path d="" class="polyStyle" id="610823" style="fill:#fbe6ef"/>
<path d="" class="polyStyle" id="130225" style="fill:#fbe6ef"/>
<path d="" class="polyStyle" id="130322" style="fill:#d4ecb2"/>
<path d="" class="polyStyle" id="653130" style="fill:#f6f67b"/>
<path d="" class="polyStyle" id="130822" style="fill:#fbe6ef"/>
<path d="" class="polyStyle" id="211221" style="fill:#f6f67b"/>
<path d="" class="polyStyle" id="210921" style="fill:#f6f67b"/>
<path d="" class="polyStyle" id="150223" style="fill:#f8c67d"/>
<path d="" class="polyStyle" id="220422" style="fill:#d4ecb2"/>
<path d="" class="polyStyle" id="340721" style="fill:#f6f67b"/>
<path d="" class="polyStyle" id="510824" style="fill:#d4ecb2"/>
<path d="" class="polyStyle" id="610324" style="fill:#f6f67b"/>
<path d="" class="polyStyle" id="530722" style="fill:#ee8b94"/>
<path d="" class="polyStyle" id="340823" style="fill:#d4ecb2"/>
<path d="" class="polyStyle" id="620825" style="fill:#d4ecb2"/>
<path d="" class="polyStyle" id="421125" style="fill:#ee8b94"/>
<path d="" class="polyStyle" id="210281" style="fill:#ee8b94"/>
<path d="" class="polyStyle" id="440883" style="fill:#f6f67b"/>
<path d="" class="polyStyle" id="469006" style="fill:#d4ecb2"/>
<path d="" class="polyStyle" id="469002" style="fill:#ee8b94"/>
<path d="" class="polyStyle" id="469005" style="fill:#fbe6ef"/>
<path d="" class="polyStyle" id="440882" style="fill:#ee8b94"/>
<path d="" class="polyStyle" id="450681" style="fill:#ee8b94"/>
<path d="" class="polyStyle" id="441581" style="fill:#d4ecb2"/>
<path d="" class="polyStyle" id="421087" style="fill:#ee8b94"/>
<path d="" class="polyStyle" id="420984" style="fill:#fbe6ef"/>
<path d="" class="polyStyle" id="420582" style="fill:#ee8b94"/>
<path d="" class="polyStyle" id="370282" style="fill:#f6f67b"/>
<path d="" class="polyStyle" id="371083" style="fill:#f6f67b"/>
<path d="" class="polyStyle" id="371082" style="fill:#fbe6ef"/>
<path d="" class="polyStyle" id="652801" style="fill:#f8c67d"/>
<path d="" class="polyStyle" id="654301" style="fill:#ee8b94"/>
<path d="" class="polyStyle" id="370687" style="fill:#ee8b94"/>
<path d="" class="polyStyle" id="371482" style="fill:#d4ecb2"/>
<path d="" class="polyStyle" id="421081" style="fill:#fbe6ef"/>
<path d="" class="polyStyle" id="429006" style="fill:#f6f67b"/>
<path d="" class="polyStyle" id="440982" style="fill:#d4ecb2"/>
<path d="" class="polyStyle" id="421181" style="fill:#d4ecb2"/>
<path d="" class="polyStyle" id="321181" style="fill:#d4ecb2"/>
<path d="" class="polyStyle" id="659007" style="fill:#ee8b94"/>
<path d="" class="polyStyle" id="652701" style="fill:#fbe6ef"/>
<path d="" class="polyStyle" id="210781" style="fill:#fbe6ef"/>
<path d="" class="polyStyle" id="460204" style="fill:#f6f67b"/>
<path d="" class="polyStyle" id="210211" style="fill:#f6f67b"/>
<polygon points="1285,354 1267,372 1251,387 1245,402 1246,413 1272,435 1287,446 1287,454 1287,473 1290,482 1324,511 1351,518 1399,536 1412,545 1426,568 1424,625 1424,651 1431,691 1436,696 1449,726 1448,736 1443,752 1454,778 1469,792 1485,826 1504,848 1517,868 1523,872 1536,873 1551,858 1566,860 1577,880 1586,889 1608,889 1618,897 1633,897 1639,874 1646,852 1644,833 1631,816 1636,803 1668,798 1687,804 1711,806 1725,825 1733,860 1758,875 1776,867 1801,862 1816,875 1836,879 1857,859 1875,855 1890,861 1901,871 1911,874 1917,871 1924,877 1929,886 1927,899 1933,907 1936,917 1936,924 1934,929 1937,941 1940,946 1947,948 1954,950 1959,949 1974,950 1983,953 1992,956 1998,954 2003,953 2030,959 2056,970 2064,975 2069,980 2056,984 2038,990 2039,995 2048,999 2056,1004 2053,1014 2048,1017 2047,1021 2048,1038 2051,1048 2076,1052 2098,1058 2120,1081 2127,1095 2129,1129 2125,1137 2128,1142 2130,1148 2132,1151 2133,1165 2151,1179 2176,1184 2190,1183 2215,1212 2223,1218 2221,1236 2195,1247 2170,1250 2164,1259 2161,1268 2153,1281 2142,1293 2149,1322 2163,1344 2179,1365 2181,1386 2173,1399 2164,1411 2156,1413 2156,1420 2166,1432 2171,1446 2191,1458 2203,1467 2213,1484 2215,1495 2226,1509 2220,1529 2211,1538 2215,1567 2218,1589 2221,1599 2237,1592 2248,1581 2260,1581 2270,1593 2273,1606 2294,1617 2329,1616 2353,1613 2371,1611 2401,1611 2410,1613 2409,1623 2405,1631 2410,1651 2409,1656 2398,1668 2399,1671 2405,1679 2422,1674 2432,1664 2434,1652 2440,1646 2453,1652 2463,1656 2470,1641 2481,1622 2488,1614 2504,1602 2514,1589 2533,1589 2545,1592 2540,1594 2532,1597 2552,1609 2547,1629 2541,1654 2540,1676 2536,1693 2521,1699 2511,1705 2497,1719 2483,1769 2489,1782 2500,1810 2504,1819 2508,1828 2526,1839 2557,1848 2590,1865 2597,1885 2597,1908 2575,1913 2538,1919 2511,1925 2504,1918 2492,1918 2474,1931 2462,1934 2454,1940 2447,1936 2438,1931 2427,1934 2413,1949 2405,1959 2408,1964 2435,1971 2442,1972 2456,1969 2476,1962 2485,1970 2487,1995 2479,2009 2467,2019 2467,2031 2475,2052 2483,2081 2483,2104 2488,2133 2501,2151 2526,2168 2559,2180 2604,2184 2644,2193 2652,2207 2664,2211 2687,2208 2709,2205 2727,2204 2717,2219 2687,2233 2677,2241 2675,2248 2667,2249 2649,2247 2642,2255 2631,2264 2617,2276 2622,2284 2631,2286 2631,2293 2627,2307 2621,2316 2622,2326 2634,2343 2623,2368 2602,2400 2588,2425 2572,2437 2561,2457 2539,2478 2535,2502 2534,2553 2533,2566 2532,2583 2539,2597 2556,2623 2555,2634 2546,2643 2546,2652 2552,2654 2567,2654 2569,2660 2566,2681 2570,2696 2574,2702 2569,2713 2557,2734 2550,2734 2540,2740 2513,2767 2468,2777 2436,2774 2421,2782 2410,2799 2403,2804 2394,2804 2371,2802 2360,2799 2339,2790 2217,2813 2199,2815 2181,2811 2163,2804 2147,2793 2129,2769 2114,2760 2096,2756 2078,2756 2065,2758 2067,2731 2075,2714 2089,2683 2092,2670 2098,2648 2099,2629 2096,2626 2082,2625 2057,2629 2026,2628 2001,2631 1995,2640 1993,2650 1979,2645 1957,2637 1958,2630 1954,2623 1953,2621 1949,2604 1933,2589 1917,2579 1906,2565 1899,2553 1891,2541 1885,2529 1880,2514 1877,2507 1865,2511 1849,2508 1840,2497 1830,2489 1817,2487 1820,2486 1790,2476 1761,2484 1744,2514 1715,2519 1709,2521 1694,2514 1684,2508 1676,2510 1665,2510 1655,2508 1645,2512 1640,2527 1640,2542 1642,2555 1642,2563 1631,2573 1618,2580 1607,2581 1595,2569 1582,2558 1573,2553 1566,2558 1561,2563 1553,2562 1541,2558 1533,2552 1529,2539 1511,2533 1500,2533 1493,2525 1483,2519 1474,2516 1470,2511 1457,2482 1449,2468 1455,2448 1457,2437 1462,2422 1470,2414 1473,2405 1460,2393 1457,2395 1450,2398 1442,2398 1427,2392 1417,2392 1403,2393 1376,2400 1361,2403 1341,2397 1329,2386 1321,2373 1316,2363 1312,2347 1311,2329 1309,2317 1306,2308 1302,2300 1292,2295 1281,2294 1273,2291 1269,2280 1265,2262 1264,2247 1261,2240 1252,2234 1234,2222 1225,2210 1222,2200 1220,2183 1220,2170 1222,2151 1224,2126 1227,2106 1228,2088 1232,2077 1240,2069 1251,2058 1252,2043 1251,2035 1248,2025 1248,2021 1247,2013 1254,2007 1266,1997 1288,1987 1303,1978 1310,1973 1314,1965 1321,1953 1322,1941 1322,1934 1317,1930 1313,1928 1309,1925 1308,1919 1310,1912 1311,1905 1307,1895 1296,1881 1294,1875 1290,1862 1289,1853 1287,1846 1281,1843 1275,1840 1269,1832 1269,1820 1273,1809 1277,1801 1271,1798 1258,1797 1248,1798 1246,1784 1237,1763 1233,1751 1237,1735 1249,1719 1257,1703 1263,1689 1269,1678 1290,1663 1311,1654 1325,1639 1328,1621 1325,1607 1325,1589 1323,1568 1314,1543 1303,1517 1291,1501 1285,1486 1284,1477 1289,1466 1299,1446 1309,1432 1322,1416 1328,1397 1324,1380 1318,1360 1319,1347 1326,1339 1335,1337 1343,1341 1355,1348 1365,1348 1375,1351 1390,1356 1400,1361 1411,1359 1417,1352 1415,1342 1410,1325 1403,1308 1401,1299 1403,1291 1409,1284 1413,1267 1415,1256 1414,1245 1424,1232 1429,1223 1421,1221 1411,1225 1397,1226 1380,1225 1361,1222 1340,1209 1320,1193 1306,1179 1295,1170 1283,1161 1276,1142 1275,1124 1276,1110 1266,1099 1256,1086 1254,1076 1252,1061 1250,1048 1252,1040 1261,1032 1274,1025 1283,1015 1284,996 1290,973 1298,950 1306,940 1313,933 1313,924 1307,923 1295,921 1294,910 1304,901 1317,892 1330,885 1334,880 1325,868 1322,857 1320,848 1314,849 1307,851 1299,849 1291,838 1290,826 1295,815 1300,806 1312,798 1315,793 1310,784 1306,769 1296,760 1286,757 1271,755 1260,750 1249,736 1238,723 1225,710 1206,705 1186,703 1167,700 1162,697 1165,690 1166,681 1169,676 1165,666 1158,659 1158,656 1160,648 1166,642 1171,630 1165,626 1156,624 1147,622 1142,626 1141,633 1132,639 1127,632 1124,625 1127,615 1124,609 1112,613 1094,613 1078,611 1069,605 1072,596 1078,588 1094,576 1099,568 1096,560 1097,554 1095,554 1095,551 1096,549 1097,547 1097,544 1097,538 1098,532 1099,527 1103,519 1109,504 1083,507 1074,508 1070,509 1067,506 1065,504 1061,469 1054,469 1051,469 1048,467 1046,465 1046,459 1045,456 1045,453 1042,454 1039,455 1038,452 1038,449 1032,450 1031,449 1031,445 1031,442 1028,439 1029,435 1032,433 1036,429 1039,425 1043,425 1047,424 1048,419 1051,417 1054,415 1053,407 1053,402 1052,397 1049,391 1042,374 1036,363 1031,351 1088,351 1192,354 " class="polyStyle" id="460107" style="fill:#ee8b94"/>
<polygon points="1025,207 1036,214 1044,216 1053,215 1060,213 1071,207 1078,207 1080,213 1081,218 1080,221 1080,225 1081,228 1083,232 1084,235 1086,241 1088,247 1091,254 1092,258 1092,262 1092,267 1087,272 1082,275 1073,282 1066,289 1051,303 1044,311 1039,316 1035,319 1032,320 1019,324 1020,328 1029,347 1031,351 1036,363 1042,374 1049,391 1052,397 1053,402 1053,407 1054,415 1051,417 1048,419 1047,424 1043,425 1039,425 1036,429 1032,433 1029,435 1028,439 1031,442 1031,445 1031,449 1032,450 1038,449 1038,452 1039,455 1042,454 1045,453 1045,456 1046,459 1046,465 1048,467 1051,469 1054,469 1061,469 1065,504 1067,506 1070,509 1074,508 1083,507 1109,504 1103,519 1099,527 1098,532 1097,538 1097,544 1097,547 1096,549 1095,551 1095,554 1097,554 1096,560 1099,568 1094,576 1078,588 1072,596 1069,605 1078,611 1094,613 1112,613 1124,609 1127,615 1124,625 1127,632 1132,639 1141,633 1142,626 1147,622 1156,624 1165,626 1171,630 1166,642 1160,648 1158,656 1158,659 1165,666 1169,676 1166,681 1165,690 1162,697 1167,700 1186,703 1206,705 1225,710 1238,723 1249,736 1260,750 1271,755 1286,757 1296,760 1306,769 1310,784 1315,793 1312,798 1300,806 1295,815 1290,826 1291,838 1299,849 1307,851 1314,849 1320,848 1322,857 1325,868 1334,880 1330,885 1317,892 1304,901 1294,910 1295,921 1307,923 1313,924 1313,933 1306,940 1298,950 1290,973 1284,996 1283,1015 1274,1025 1261,1032 1252,1040 1250,1048 1252,1061 1254,1076 1256,1086 1266,1099 1276,1110 1275,1124 1276,1142 1283,1161 1295,1170 1306,1179 1320,1193 1340,1209 1361,1222 1380,1225 1397,1226 1411,1225 1421,1221 1429,1223 1424,1232 1414,1245 1415,1256 1413,1267 1409,1284 1403,1291 1401,1299 1403,1308 1410,1325 1415,1342 1417,1352 1411,1359 1400,1361 1390,1356 1375,1351 1365,1348 1355,1348 1343,1341 1335,1337 1326,1339 1319,1347 1318,1360 1324,1380 1328,1397 1322,1416 1309,1432 1299,1446 1289,1466 1284,1477 1285,1486 1291,1501 1303,1517 1314,1543 1323,1568 1325,1589 1325,1607 1328,1621 1325,1639 1311,1654 1290,1663 1269,1678 1263,1689 1257,1703 1249,1719 1237,1735 1233,1751 1237,1763 1246,1784 1248,1798 1246,1826 1240,1853 1222,1862 1201,1863 1141,1855 1116,1862 1086,1849 1057,1838 1048,1839 1050,1817 1048,1800 1047,1772 1049,1754 1051,1734 1049,1718 1048,1697 1048,1681 1039,1670 1012,1653 992,1653 968,1655 943,1659 919,1654 902,1646 885,1643 867,1641 858,1647 849,1644 844,1633 843,1619 835,1603 823,1598 811,1588 805,1579 792,1586 783,1596 771,1590 767,1572 765,1560 754,1552 727,1542 721,1532 725,1526 720,1519 701,1504 684,1498 661,1494 641,1488 634,1483 635,1473 648,1436 644,1414 648,1397 676,1348 701,1333 736,1320 745,1313 749,1300 758,1294 758,1278 746,1259 756,1246 780,1239 796,1231 810,1212 826,1191 860,1152 870,1120 868,1105 874,1069 876,1016 890,983 894,962 902,956 908,944 909,917 912,886 907,860 916,835 928,818 931,796 931,761 922,723 918,696 927,678 921,671 912,670 903,678 887,701 872,685 849,675 832,664 808,674 785,686 761,695 728,699 701,698 713,684 720,660 715,647 722,640 723,635 723,630 729,626 743,623 750,619 753,613 756,602 760,589 761,570 762,567 765,566 770,564 778,563 796,563 812,561 829,560 833,558 837,555 846,543 849,539 850,523 850,505 850,489 849,484 841,480 827,480 827,460 827,429 827,404 827,374 827,332 836,330 833,322 823,280 822,272 827,281 839,279 852,277 865,275 882,272 891,267 894,265 897,263 901,258 907,254 910,253 913,264 913,272 920,281 921,285 924,282 927,281 934,280 936,277 931,275 923,278 917,274 916,269 916,253 919,248 925,246 941,247 946,250 955,255 959,257 958,263 958,268 961,268 967,261 972,261 967,254 956,250 950,246 944,240 946,234 948,219 950,215 955,205 954,202 951,200 945,199 957,198 972,199 986,199 986,202 990,200 997,198 1000,192 1007,195 " class="polyStyle" id="460106" style="fill:#fbe6ef"/>
<polygon points="387,140 413,149 425,155 429,158 440,168 453,181 470,194 481,202 499,216 527,235 547,248 565,261 589,278 617,288 627,293 633,295 642,299 648,301 658,304 677,313 691,318 697,319 704,321 713,322 721,324 727,326 737,326 744,326 748,325 762,323 768,325 770,321 780,323 782,330 785,333 791,333 791,326 788,324 787,319 784,310 767,308 760,307 763,305 765,297 783,299 790,299 793,296 792,291 788,274 798,271 805,271 813,272 816,272 822,272 823,280 833,322 836,330 827,332 827,374 827,404 827,429 827,460 827,480 841,480 849,484 850,489 850,505 850,523 849,539 846,543 837,555 833,558 829,560 812,561 796,563 778,563 770,564 765,566 762,567 761,570 760,589 756,602 753,613 750,619 743,623 729,626 723,630 723,635 722,640 715,647 720,660 713,684 701,698 728,699 761,695 785,686 808,674 832,664 849,675 872,685 887,701 903,678 912,670 921,671 927,678 918,696 922,723 931,761 931,796 928,818 916,835 907,860 912,886 909,917 908,944 902,956 894,962 890,983 876,1016 874,1069 868,1105 870,1120 860,1152 826,1191 810,1212 796,1231 780,1239 756,1246 746,1259 758,1278 758,1294 749,1300 745,1313 736,1320 701,1333 676,1348 648,1397 644,1414 648,1436 635,1473 634,1483 641,1488 661,1494 684,1498 701,1504 720,1519 725,1526 721,1532 727,1542 754,1552 765,1560 767,1572 771,1590 783,1596 792,1586 805,1579 811,1588 823,1598 835,1603 843,1619 844,1633 849,1644 858,1647 867,1641 885,1643 902,1646 919,1654 943,1659 968,1655 992,1653 1012,1653 1039,1670 1048,1681 1048,1697 1049,1718 1051,1734 1049,1754 1047,1772 1048,1800 1050,1817 1048,1839 1026,1844 993,1881 967,1889 946,1918 927,1950 893,1964 858,1946 842,1935 826,1932 809,1941 791,1943 781,1943 768,1941 759,1943 750,1947 742,1952 732,1960 727,1960 717,1961 701,1961 686,1963 672,1969 666,1974 664,1983 666,1993 666,2003 656,2005 632,2008 610,2010 587,2012 575,2017 555,2027 544,2035 535,2042 526,2048 516,2051 505,2053 479,2052 476,2047 469,2041 464,2033 460,2023 457,2014 455,2008 453,2003 459,1998 466,1993 471,1991 471,1984 472,1973 472,1960 474,1952 475,1948 481,1940 487,1933 487,1923 492,1913 500,1905 501,1900 499,1895 493,1891 485,1888 480,1880 479,1872 479,1865 476,1862 469,1865 460,1869 451,1872 437,1870 430,1868 427,1867 426,1863 418,1858 412,1857 411,1849 409,1842 409,1834 406,1827 409,1820 406,1815 404,1811 407,1808 412,1806 418,1803 424,1796 426,1786 433,1776 445,1768 442,1759 441,1753 441,1742 436,1731 442,1730 454,1724 465,1717 472,1715 482,1708 485,1697 492,1688 501,1688 509,1691 519,1688 517,1684 514,1678 507,1673 496,1672 492,1667 491,1657 488,1650 484,1640 484,1630 487,1619 494,1606 493,1600 484,1588 472,1572 461,1565 438,1552 426,1543 423,1533 419,1525 414,1518 409,1507 404,1498 402,1486 398,1477 393,1465 389,1455 385,1444 384,1432 382,1420 380,1411 373,1404 371,1398 375,1388 381,1370 384,1358 393,1338 389,1329 382,1316 377,1301 374,1282 372,1265 362,1253 337,1227 319,1218 306,1213 291,1216 273,1218 259,1222 247,1222 241,1217 235,1209 237,1196 248,1182 260,1180 274,1183 295,1191 297,1185 299,1179 310,1176 313,1167 310,1156 302,1140 296,1129 296,1120 288,1124 278,1131 260,1137 242,1141 225,1137 201,1128 180,1121 168,1115 155,1121 123,1144 101,1159 87,1166 72,1160 59,1155 60,1146 55,1136 57,1128 74,1123 99,1117 106,1113 117,1104 124,1091 121,1070 130,1054 128,1037 122,1022 113,1011 94,1004 82,1002 71,988 76,980 79,969 91,958 106,950 115,947 130,938 136,932 138,923 132,918 128,912 120,900 110,905 96,905 81,889 63,873 50,861 46,839 47,819 61,808 70,809 75,820 88,826 92,822 109,813 118,805 120,796 129,801 139,810 153,818 166,832 166,822 162,811 154,799 139,789 145,787 165,789 182,788 180,778 168,771 157,770 147,776 133,773 117,766 115,760 127,736 136,703 151,674 160,653 170,643 173,637 172,628 166,613 170,607 172,593 170,572 158,548 145,556 130,562 117,560 102,552 92,549 76,553 56,531 54,528 45,517 31,515 16,503 20,482 26,457 0,445 6,439 13,433 35,409 59,379 82,344 93,324 108,285 121,241 134,206 144,185 152,172 170,137 173,137 184,137 193,133 205,132 218,135 235,137 246,135 250,130 254,129 261,130 286,133 294,131 303,129 315,128 344,133 361,131 365,128 371,133 " class="polyStyle" id="460105" style="fill:#d4ecb2"/>
<polygon points="1235,8 1238,12 1241,16 1243,19 1248,30 1248,35 1267,30 1263,28 1266,26 1270,28 1280,33 1288,37 1295,41 1303,46 1309,50 1322,57 1344,72 1400,103 1410,107 1425,115 1448,129 1471,141 1574,200 1625,230 1640,239 1709,274 1718,277 1751,292 1779,304 1810,317 1818,321 1837,329 1879,341 1916,352 1963,357 1999,356 2033,352 2050,347 2078,346 2090,345 2096,345 2105,347 2113,349 2115,352 2114,357 2110,361 2105,363 2102,364 2096,364 2095,361 2091,363 2086,368 2082,369 2079,369 2078,374 2075,375 2075,372 2072,372 2061,412 2065,415 2064,420 2065,427 2065,433 2065,436 2064,440 2067,444 2070,448 2072,451 2075,455 2081,458 2081,465 2081,468 2080,472 2076,474 2068,476 2064,477 2067,479 2064,483 2061,487 2058,487 2054,488 2051,490 2048,492 2049,496 2054,498 2057,497 2060,496 2066,496 2070,496 2073,495 2076,497 2078,502 2078,506 2081,507 2085,509 2087,514 2088,518 2089,525 2089,528 2089,531 2092,531 2095,534 2093,538 2095,540 2099,539 2102,540 2104,544 2105,547 2109,551 2112,555 2112,558 2108,558 2105,559 2102,562 2099,562 2096,565 2091,568 2092,574 2094,578 2096,581 2098,586 2100,592 2102,599 2104,605 2106,608 2108,614 2111,617 2114,619 2117,623 2119,626 2125,629 2127,625 2130,622 2132,616 2128,613 2129,607 2130,604 2139,600 2142,597 2145,595 2152,588 2159,575 2162,571 2166,570 2169,571 2173,570 2177,566 2180,566 2185,564 2189,561 2194,557 2198,557 2203,558 2209,562 2213,566 2214,562 2215,557 2215,552 2209,548 2205,545 2205,542 2209,538 2215,535 2220,533 2223,530 2227,528 2226,522 2225,514 2223,505 2223,502 2223,499 2223,493 2220,490 2219,486 2218,482 2216,478 2213,478 2213,473 2215,469 2216,466 2222,462 2229,460 2233,459 2237,459 2238,455 2239,451 2243,448 2253,450 2257,450 2264,453 2270,454 2275,453 2281,453 2289,454 2299,454 2305,456 2313,458 2316,459 2320,458 2320,462 2317,464 2313,464 2309,470 2308,477 2310,481 2309,484 2313,490 2313,493 2312,498 2313,502 2316,506 2319,509 2316,511 2313,512 2308,515 2306,519 2302,520 2298,519 2295,523 2291,529 2290,533 2289,537 2290,542 2290,546 2286,548 2284,556 2286,559 2284,565 2283,569 2285,573 2283,577 2279,579 2275,583 2275,586 2276,590 2280,595 2283,600 2286,604 2290,606 2294,611 2299,617 2303,619 2306,620 2312,624 2315,624 2318,625 2320,628 2320,631 2322,635 2327,639 2328,642 2327,649 2330,655 2331,658 2330,661 2327,665 2323,667 2319,666 2314,666 2310,669 2305,668 2302,667 2297,663 2302,662 2304,660 2303,655 2301,652 2292,651 2288,651 2285,652 2282,652 2282,656 2284,661 2282,665 2279,668 2273,674 2269,679 2265,684 2265,689 2264,692 2259,695 2254,696 2246,696 2241,694 2237,690 2234,686 2230,684 2226,680 2222,679 2217,681 2212,682 2207,685 2200,688 2192,691 2187,694 2180,693 2180,689 2179,686 2176,686 2173,688 2170,691 2170,694 2172,698 2176,697 2180,699 2183,703 2188,706 2192,706 2197,705 2199,702 2206,698 2208,695 2212,691 2216,690 2220,691 2224,694 2230,698 2236,699 2243,702 2252,705 2257,706 2258,709 2256,712 2256,715 2258,721 2260,726 2261,730 2263,733 2269,733 2274,731 2276,726 2280,721 2282,716 2282,711 2281,708 2284,694 2285,691 2284,688 2280,687 2284,681 2290,678 2293,678 2297,679 2301,681 2299,685 2296,692 2296,695 2297,699 2301,708 2304,710 2307,711 2310,713 2315,712 2320,707 2325,703 2330,702 2334,704 2337,709 2337,712 2340,716 2338,719 2337,722 2337,725 2337,731 2335,734 2334,737 2334,741 2330,744 2328,748 2321,750 2316,748 2314,745 2311,741 2307,740 2303,741 2297,740 2293,738 2288,740 2284,742 2281,748 2280,753 2279,758 2274,759 2273,763 2277,764 2282,764 2285,762 2293,765 2295,761 2300,760 2303,761 2307,764 2307,768 2304,772 2302,775 2303,778 2306,779 2310,781 2314,781 2314,784 2315,787 2316,791 2318,794 2322,797 2325,800 2325,803 2331,804 2335,802 2348,805 2351,806 2354,806 2355,810 2354,814 2354,820 2352,826 2351,829 2341,841 2339,847 2339,850 2337,854 2337,857 2338,861 2342,864 2346,871 2349,877 2351,881 2356,885 2361,892 2364,895 2369,901 2370,905 2370,910 2369,913 2368,917 2362,923 2360,931 2363,930 2367,930 2369,927 2372,927 2373,932 2375,936 2377,940 2382,940 2385,940 2389,942 2392,949 2395,947 2399,948 2399,952 2394,955 2390,964 2388,968 2390,975 2394,980 2391,981 2388,982 2387,985 2391,986 2396,987 2400,989 2399,993 2396,994 2397,997 2400,998 2399,1005 2392,1007 2389,1006 2386,1006 2389,1009 2392,1011 2396,1009 2400,1010 2404,1014 2406,1019 2406,1016 2404,1014 2404,1009 2405,1001 2405,995 2407,988 2409,981 2410,976 2413,971 2416,968 2417,964 2421,960 2426,956 2428,952 2430,949 2426,947 2419,944 2413,941 2397,935 2387,931 2382,928 2379,921 2379,917 2382,909 2385,903 2385,899 2390,895 2397,888 2399,881 2399,871 2400,855 2400,844 2401,835 2404,833 2414,833 2442,833 2459,834 2465,834 2486,833 2503,834 2512,834 2520,839 2527,844 2530,846 2532,842 2537,840 2540,840 2542,844 2546,839 2550,837 2550,832 2551,829 2551,826 2551,823 2548,823 2544,823 2542,828 2538,827 2534,823 2529,822 2534,819 2537,815 2540,813 2543,810 2547,814 2553,813 2553,809 2551,806 2545,800 2543,796 2540,791 2537,788 2532,778 2527,771 2525,768 2521,767 2520,763 2518,758 2516,753 2510,750 2506,751 2505,748 2504,744 2502,739 2502,736 2505,734 2509,735 2511,729 2507,724 2503,721 2500,720 2497,715 2497,710 2496,702 2493,695 2490,694 2489,691 2489,688 2490,685 2490,681 2486,677 2485,674 2481,674 2478,675 2475,672 2474,669 2473,664 2473,661 2479,661 2483,661 2485,658 2486,654 2486,650 2485,647 2484,642 2483,638 2482,634 2480,630 2477,630 2474,627 2472,624 2470,620 2473,619 2476,618 2479,619 2482,617 2481,614 2481,611 2481,607 2478,605 2475,604 2475,598 2477,593 2478,589 2481,585 2511,600 2522,633 2545,662 2573,683 2585,715 2589,740 2572,765 2573,793 2601,795 2632,798 2663,828 2684,842 2698,858 2714,882 2724,898 2729,910 2726,919 2729,956 2757,992 2757,1022 2737,1049 2732,1063 2717,1075 2713,1088 2716,1104 2720,1120 2726,1132 2741,1144 2756,1141 2766,1140 2786,1136 2811,1130 2825,1129 2837,1129 2850,1133 2858,1140 2866,1160 2879,1172 2898,1184 2914,1196 2920,1205 2918,1212 2902,1224 2882,1232 2867,1243 2852,1255 2846,1268 2847,1287 2854,1294 2862,1296 2863,1301 2863,1311 2867,1327 2874,1336 2883,1377 2879,1407 2843,1433 2816,1437 2780,1438 2742,1423 2716,1391 2689,1396 2670,1396 2658,1405 2653,1407 2646,1414 2637,1427 2627,1433 2616,1438 2605,1440 2602,1447 2600,1460 2598,1469 2587,1483 2578,1493 2572,1494 2563,1491 2556,1491 2551,1496 2548,1509 2554,1517 2565,1519 2592,1521 2609,1519 2618,1518 2619,1524 2621,1532 2616,1538 2593,1540 2588,1549 2592,1565 2588,1578 2573,1587 2558,1588 2545,1592 2533,1589 2514,1589 2504,1602 2488,1614 2481,1622 2470,1641 2463,1656 2453,1652 2440,1646 2434,1652 2432,1664 2422,1674 2405,1679 2399,1671 2398,1668 2409,1656 2410,1651 2405,1631 2409,1623 2410,1613 2401,1611 2371,1611 2353,1613 2329,1616 2294,1617 2273,1606 2270,1593 2260,1581 2248,1581 2237,1592 2221,1599 2218,1589 2215,1567 2211,1538 2220,1529 2226,1509 2215,1495 2213,1484 2203,1467 2191,1458 2171,1446 2166,1432 2156,1420 2156,1413 2164,1411 2173,1399 2181,1386 2179,1365 2163,1344 2149,1322 2142,1293 2153,1281 2161,1268 2164,1259 2170,1250 2195,1247 2221,1236 2223,1218 2215,1212 2190,1183 2176,1184 2151,1179 2133,1165 2132,1151 2130,1148 2128,1142 2125,1137 2129,1129 2127,1095 2120,1081 2098,1058 2076,1052 2051,1048 2048,1038 2047,1021 2048,1017 2053,1014 2056,1004 2048,999 2039,995 2038,990 2056,984 2069,980 2064,975 2056,970 2030,959 2003,953 1998,954 1992,956 1983,953 1974,950 1959,949 1954,950 1947,948 1940,946 1937,941 1934,929 1936,924 1936,917 1933,907 1927,899 1929,886 1924,877 1917,871 1911,874 1901,871 1890,861 1875,855 1857,859 1836,879 1816,875 1801,862 1776,867 1758,875 1733,860 1725,825 1711,806 1687,804 1668,798 1636,803 1631,816 1644,833 1646,852 1639,874 1633,897 1618,897 1608,889 1586,889 1577,880 1566,860 1551,858 1536,873 1523,872 1517,868 1504,848 1485,826 1469,792 1454,778 1443,752 1448,736 1449,726 1436,696 1431,691 1424,651 1424,625 1426,568 1412,545 1399,536 1351,518 1324,511 1290,482 1287,473 1287,454 1287,446 1272,435 1246,413 1245,402 1251,387 1267,372 1285,354 1192,354 1088,351 1031,351 1029,347 1020,328 1019,324 1032,320 1035,319 1039,316 1044,311 1051,303 1066,289 1073,282 1082,275 1087,272 1092,267 1092,262 1092,258 1091,254 1088,247 1086,241 1084,235 1083,232 1081,228 1080,225 1080,221 1081,218 1080,213 1078,207 1071,207 1060,213 1053,215 1044,216 1036,214 1025,207 1007,195 1000,192 1001,184 979,176 965,174 947,168 940,165 934,157 927,157 923,155 917,154 920,150 925,150 930,149 930,143 928,131 927,125 931,114 939,107 944,92 953,88 959,84 954,85 946,84 958,80 972,78 982,76 989,74 993,73 994,70 999,68 1005,62 1018,55 1036,50 1044,47 1049,45 1054,41 1053,37 1054,33 1059,37 1064,40 1068,44 1072,47 1075,51 1079,54 1083,53 1081,50 1079,45 1082,43 1089,42 1092,41 1096,42 1102,42 1116,45 1124,46 1129,46 1137,47 1144,48 1148,49 1156,49 1164,48 1170,48 1175,48 1171,51 1174,52 1177,51 1181,54 1184,57 1188,55 1192,55 1195,54 1190,52 1187,51 1184,49 1183,45 1188,43 1193,41 1205,35 1208,32 1213,30 1219,28 1222,28 1220,31 1213,35 1219,34 1224,33 1227,32 1226,29 1229,27 1233,26 1238,27 1238,25 1235,22 1238,20 1237,16 1234,11 1231,8 1227,6 1224,4 1226,0 1231,2 " class="polyStyle" id="460108" style="fill:#f6f67b"/>
<path d="" class="polyStyle" id="450512" style="fill:#ee8b94"/>
<path d="" class="polyStyle" id="450602" style="fill:#fbe6ef"/>
<path d="" class="polyStyle" id="440404" style="fill:#ee8b94"/>
<path d="" class="polyStyle" id="440403" style="fill:#f6f67b"/>
<path d="" class="polyStyle" id="441502" style="fill:#f6f67b"/>
<path d="" class="polyStyle" id="431002" style="fill:#d4ecb2"/>
<path d="" class="polyStyle" id="500107" style="fill:#fbe6ef"/>
<path d="" class="polyStyle" id="430611" style="fill:#d4ecb2"/>
<path d="" class="polyStyle" id="511304" style="fill:#fbe6ef"/>
<path d="" class="polyStyle" id="340711" style="fill:#ee8b94"/>
<path d="" class="polyStyle" id="320118" style="fill:#f6f67b"/>
<path d="" class="polyStyle" id="510704" style="fill:#f6f67b"/>
<path d="" class="polyStyle" id="411502" style="fill:#ee8b94"/>
<path d="" class="polyStyle" id="320302" style="fill:#d4ecb2"/>
<path d="" class="polyStyle" id="140311" style="fill:#ee8b94"/>
<path d="" class="polyStyle" id="610802" style="fill:#ee8b94"/>
<path d="" class="polyStyle" id="120116" style="fill:#f6f67b"/>
<path d="" class="polyStyle" id="130303" style="fill:#fbe6ef"/>
<path d="" class="polyStyle" id="140211" style="fill:#f6f67b"/>
<path d="" class="polyStyle" id="150207" style="fill:#fbe6ef"/>
<path d="" class="polyStyle" id="211403" style="fill:#f6f67b"/>
<path d="" class="polyStyle" id="150802" style="fill:#f8c67d"/>
<path d="" class="polyStyle" id="210112" style="fill:#ee8b94"/>
<path d="" class="polyStyle" id="230406" style="fill:#d4ecb2"/>
<path d="" class="polyStyle" id="110113" style="fill:#fbe6ef"/>
<path d="" class="polyStyle" id="341702" style="fill:#fbe6ef"/>
<path d="" class="polyStyle" id="420303" style="fill:#ee8b94"/>
<path d="" class="polyStyle" id="340702" style="fill:#d4ecb2"/>
<path d="" class="polyStyle" id="421002" style="fill:#f6f67b"/>
<path d="" class="polyStyle" id="420117" style="fill:#f6f67b"/>
<polygon points="881,149 885,146 889,142 893,131 897,124 902,114 905,114 905,118 904,123 903,126 903,129 903,133 903,136 901,133 899,131 895,141 894,144 891,146 888,150 885,151 " class="polyStyle" id="460108" style="fill:#f6f67b"/>
<polygon points="1194,25 1198,21 1199,16 1203,13 1205,10 1214,8 1219,6 1224,5 1218,8 1215,9 1212,12 1209,11 1206,14 1204,18 1201,20 1197,24 1196,26 " class="polyStyle" id="460108" style="fill:#f6f67b"/>
<polygon points="2145,371 2145,368 2145,365 2147,360 2150,355 2153,347 2156,340 2158,335 2160,332 2166,330 2174,328 2180,324 2193,323 2208,326 2212,330 2212,338 2209,343 2207,349 2203,353 2195,352 2185,372 2173,369 2161,365 2157,368 2153,370 2150,371 2148,371 2147,374 2146,375 " class="polyStyle" id="460108" style="fill:#f6f67b"/>
<polygon points="2510,798 2509,794 2507,791 2506,788 2507,782 2507,771 2507,768 2509,763 2514,764 2514,769 2513,773 2513,783 2514,787 2512,791 2512,794 2510,799 " class="polyStyle" id="460108" style="fill:#f6f67b"/>
<polygon points="2479,700 2478,695 2477,692 2476,688 2477,684 2479,685 2482,688 2481,691 2481,695 2482,698 2485,702 2483,705 2482,704 " class="polyStyle" id="460108" style="fill:#f6f67b"/>
<polygon points="2474,654 2470,653 2469,650 2465,648 2462,644 2463,640 2466,639 2469,637 2472,636 2475,638 2477,641 2477,644 2478,647 2478,651 2478,652 " class="polyStyle" id="460108" style="fill:#f6f67b"/>
<polygon points="2432,625 2423,621 2421,619 2421,616 2426,613 2430,612 2437,609 2442,609 2446,613 2444,618 2441,624 2436,626 " class="polyStyle" id="460108" style="fill:#f6f67b"/>
<path d="" class="polyStyle" id="440904" style="fill:#f8c67d"/>
<path d="" class="polyStyle" id="460205" style="fill:#ee8b94"/>
<path d="" class="polyStyle" id="460202" style="fill:#f6f67b"/>
<path d="" class="polyStyle" id="460203" style="fill:#fbe6ef"/>
<path d="" class="polyStyle" id="420304" style="fill:#f6f67b"/>
<path d="" class="polyStyle" id="445302" style="fill:#ee8b94"/>
<path d="" class="polyStyle" id="410202" style="fill:#d4ecb2"/>
<path d="" class="polyStyle" id="440800" style="fill:#f6f67b"/>
<path d="" class="polyStyle" id="440900" style="fill:#ee8b94"/>
<path d="" class="polyStyle" id="340800" style="fill:#ee8b94"/>
<path d="" class="polyStyle" id="460200" style="fill:#f6f67b"/>
<path d="" class="polyStyle" id="460000" style="fill:#ee8b94"/>
<path d="" class="polyStyle" id="450500" style="fill:#ee8b94"/>
<path d="" class="polyStyle" id="450600" style="fill:#ee8b94"/>
<path d="" class="polyStyle" id="440400" style="fill:#f6f67b"/>
<path d="" class="polyStyle" id="441700" style="fill:#f6f67b"/>
<path d="" class="polyStyle" id="441500" style="fill:#f6f67b"/>
<path d="" class="polyStyle" id="350600" style="fill:#ee8b94"/>
<path d="" class="polyStyle" id="710000" style="fill:#f6f67b"/>
<path d="" class="polyStyle" id="510400" style="fill:#f6f67b"/>
<path d="" class="polyStyle" id="522600" style="fill:#fbe6ef"/>
<path d="" class="polyStyle" id="520500" style="fill:#ee8b94"/>
<path d="" class="polyStyle" id="431200" style="fill:#f6f67b"/>
<path d="" class="polyStyle" id="430600" style="fill:#f6f67b"/>
<path d="" class="polyStyle" id="511400" style="fill:#d4ecb2"/>
<path d="" class="polyStyle" id="421000" style="fill:#ee8b94"/>
<path d="" class="polyStyle" id="341700" style="fill:#f6f67b"/>
<path d="" class="polyStyle" id="420500" style="fill:#f6f67b"/>
<path d="" class="polyStyle" id="511300" style="fill:#f6f67b"/>
<path d="" class="polyStyle" id="420900" style="fill:#f6f67b"/>
<path d="" class="polyStyle" id="511700" style="fill:#ee8b94"/>
<path d="" class="polyStyle" id="420600" style="fill:#d4ecb2"/>
<path d="" class="polyStyle" id="411500" style="fill:#fbe6ef"/>
<path d="" class="polyStyle" id="510800" style="fill:#ee8b94"/>
<path d="" class="polyStyle" id="420300" style="fill:#fbe6ef"/>
<path d="" class="polyStyle" id="611000" style="fill:#ee8b94"/>
<path d="" class="polyStyle" id="620800" style="fill:#fbe6ef"/>
<path d="" class="polyStyle" id="370200" style="fill:#ee8b94"/>
<path d="" class="polyStyle" id="371000" style="fill:#f6f67b"/>
<path d="" class="polyStyle" id="370600" style="fill:#fbe6ef"/>
<path d="" class="polyStyle" id="120000" style="fill:#f6f67b"/>
<path d="" class="polyStyle" id="130200" style="fill:#ee8b94"/>
<path d="" class="polyStyle" id="130300" style="fill:#f6f67b"/>
<path d="" class="polyStyle" id="652900" style="fill:#fbe6ef"/>
<path d="" class="polyStyle" id="150500" style="fill:#d4ecb2"/>
<path d="" class="polyStyle" id="" style="fill:#d4ecb2"/>
<path d="" class="polyStyle" id="350500" style="fill:#fbe6ef"/>
<path d="" class="polyStyle" id="440400" style="fill:#f6f67b"/>
<path d="" class="polyStyle" id="421100" style="fill:#d4ecb2"/>
<path d="" class="polyStyle" id="420100" style="fill:#fbe6ef"/>
<path d="" class="polyStyle" id="532500" style="fill:#fbe6ef"/>
<path d="" class="polyStyle" id="654200" style="fill:#fbe6ef"/>
<path d="" class="polyStyle" id="210700" style="fill:#d4ecb2"/>
<path d="" class="polyStyle" id="522300" style="fill:#fbe6ef"/>
<path d="" class="polyStyle" id="" style="fill:#ee8b94"/>
<path d="" class="polyStyle" id="440400" style="fill:#f6f67b"/>
<path d="" class="polyStyle" id="620000" style="fill:#f6f67b"/>
<path d="" class="polyStyle" id="430000" style="fill:#fbe6ef"/>
<path d="" class="polyStyle" id="420000" style="fill:#ee8b94"/>
<path d="" class="polyStyle" id="410000" style="fill:#f6f67b"/>
<path d="" class="polyStyle" id="350000" style="fill:#fbe6ef"/>
<path d="" class="polyStyle" id="520000" style="fill:#f6f67b"/>
<path d="" class="polyStyle" id="" style="fill:#ee8b94"/>
</svg>
