<?xml version="1.0" encoding="UTF-8"?>
<!DOCTYPE svg PUBLIC "-//W3C//DTD SVG 1.1 Tiny//EN" "http://www.w3.org/Graphics/SVG/1.1/DTD/svg11-tiny.dtd">
<svg version="1.1" xmlns="http://www.w3.org/2000/svg" xmlns:xlink="http://www.w3.org/1999/xlink" width="100%" height="100%" viewBox="0,0,6893,5866">
<title>SVG</title>
<desc>Poligon Test</desc>
<style id="style_css_sheet" type="text/css">
.polyStyle{fill: #cccccc;stroke-width:0;fill-rule:evenodd;}
</style>
<circle cx="2011" cy="1783" r="200" stroke="black" stroke-width="1" fill="red" id="510683" name="绵竹市"/>
<circle cx="2437" cy="3592" r="200" stroke="black" stroke-width="1" fill="red" id="510681" name="广汉市"/>
<circle cx="1865" cy="2863" r="200" stroke="black" stroke-width="1" fill="red" id="510682" name="什邡市"/>
<circle cx="4405" cy="3300" r="200" stroke="black" stroke-width="1" fill="red" id="510623" name="中江县"/>
<circle cx="3592" cy="1919" r="200" stroke="black" stroke-width="1" fill="red" id="510604" name="罗江区"/>
<circle cx="2972" cy="2778" r="200" stroke="black" stroke-width="1" fill="red" id="510603" name="旌阳区"/>
<path d="" class="polyStyle" id="" style="fill:#ee8b94"/>
<path d="" class="polyStyle" id="623022" style="fill:#fbe6ef"/>
<path d="" class="polyStyle" id="211421" style="fill:#f6f67b"/>
<path d="" class="polyStyle" id="532524" style="fill:#ee8b94"/>
<path d="" class="polyStyle" id="440825" style="fill:#f6f67b"/>
<path d="" class="polyStyle" id="441721" style="fill:#f6f67b"/>
<path d="" class="polyStyle" id="450521" style="fill:#f6f67b"/>
<path d="" class="polyStyle" id="450123" style="fill:#fbe6ef"/>
<path d="" class="polyStyle" id="350624" style="fill:#f6f67b"/>
<path d="" class="polyStyle" id="" style="fill:#fbe6ef"/>
<path d="" class="polyStyle" id="451224" style="fill:#fbe6ef"/>
<path d="" class="polyStyle" id="350627" style="fill:#f6f67b"/>
<path d="" class="polyStyle" id="" style="fill:#f6f67b"/>
<path d="" class="polyStyle" id="350525" style="fill:#f6f67b"/>
<path d="" class="polyStyle" id="530124" style="fill:#ee8b94"/>
<path d="" class="polyStyle" id="522627" style="fill:#ee8b94"/>
<path d="" class="polyStyle" id="510421" style="fill:#fbe6ef"/>
<path d="" class="polyStyle" id="522623" style="fill:#d4ecb2"/>
<path d="" class="polyStyle" id="430321" style="fill:#d4ecb2"/>
<path d="" class="polyStyle" id="511129" style="fill:#d4ecb2"/>
<path d="" class="polyStyle" id="511423" style="fill:#ee8b94"/>
<path d="" class="polyStyle" id="421023" style="fill:#f6f67b"/>
<path d="" class="polyStyle" id="511724" style="fill:#f6f67b"/>
<polygon points="4710,2087 4719,2088 4727,2091 4736,2094 4749,2101 4755,2106 4764,2116 4769,2125 4771,2131 4772,2143 4772,2150 4770,2164 4769,2171 4763,2178 4755,2186 4748,2195 4744,2202 4736,2215 4729,2226 4725,2239 4723,2246 4720,2264 4720,2282 4723,2299 4727,2317 4730,2329 4726,2335 4714,2339 4699,2340 4691,2340 4682,2347 4678,2364 4678,2371 4675,2377 4656,2380 4636,2381 4616,2384 4604,2389 4597,2395 4591,2405 4591,2411 4593,2417 4597,2426 4602,2441 4605,2450 4608,2456 4611,2463 4617,2476 4620,2482 4632,2501 4638,2508 4640,2517 4629,2522 4622,2524 4616,2532 4614,2543 4615,2555 4617,2568 4620,2578 4622,2589 4622,2599 4619,2611 4618,2627 4618,2640 4617,2651 4618,2659 4618,2668 4619,2678 4627,2687 4644,2696 4657,2700 4661,2694 4661,2683 4664,2673 4677,2662 4691,2661 4698,2660 4706,2664 4714,2671 4726,2672 4736,2661 4740,2655 4748,2664 4757,2682 4763,2692 4770,2695 4776,2696 4783,2700 4789,2703 4795,2711 4798,2721 4802,2738 4802,2754 4805,2763 4808,2769 4809,2775 4819,2780 4818,2787 4811,2791 4805,2796 4806,2802 4808,2809 4812,2815 4815,2822 4820,2830 4826,2831 4832,2831 4839,2830 4849,2828 4864,2824 4871,2823 4879,2820 4885,2819 4901,2819 4911,2822 4922,2826 4931,2831 4956,2837 4965,2840 4970,2849 4974,2859 4978,2887 4980,2899 4973,2919 4965,2927 4963,2933 4954,2944 4947,2950 4936,2960 4922,2971 4902,2987 4895,2993 4892,3001 4894,3010 4895,3016 4898,3023 4904,3029 4913,3038 4922,3047 4929,3053 4935,3059 4944,3066 4954,3068 4964,3073 4971,3079 4981,3091 4987,3098 4994,3105 5008,3113 5018,3119 5025,3121 5036,3129 5043,3138 5051,3151 5060,3157 5076,3159 5097,3159 5108,3161 5117,3167 5126,3179 5133,3190 5140,3200 5144,3208 5150,3223 5153,3237 5155,3254 5157,3267 5157,3288 5156,3298 5153,3308 5146,3333 5143,3341 5142,3347 5143,3354 5144,3360 5150,3373 5158,3380 5167,3388 5173,3393 5179,3396 5188,3402 5197,3407 5208,3414 5213,3421 5207,3428 5199,3434 5193,3439 5186,3449 5180,3457 5172,3464 5165,3472 5160,3481 5156,3490 5152,3498 5150,3502 5153,3514 5157,3525 5159,3532 5163,3541 5165,3550 5177,3559 5187,3563 5201,3568 5215,3570 5226,3572 5233,3573 5253,3583 5259,3592 5270,3605 5278,3616 5285,3625 5289,3633 5293,3643 5298,3654 5301,3667 5301,3675 5299,3685 5295,3693 5287,3702 5265,3724 5260,3730 5233,3753 5228,3763 5229,3770 5233,3776 5239,3779 5247,3779 5253,3775 5258,3769 5269,3764 5278,3759 5284,3756 5291,3752 5297,3743 5304,3740 5322,3758 5328,3762 5338,3760 5344,3754 5351,3753 5357,3754 5366,3754 5372,3758 5373,3768 5373,3778 5374,3784 5380,3790 5390,3790 5395,3797 5401,3802 5408,3802 5414,3795 5422,3789 5428,3783 5439,3788 5445,3791 5453,3794 5460,3801 5462,3810 5469,3815 5477,3809 5484,3802 5492,3803 5502,3809 5508,3809 5515,3800 5513,3790 5506,3780 5511,3773 5520,3768 5526,3770 5532,3773 5543,3774 5552,3767 5561,3765 5569,3768 5576,3768 5583,3767 5610,3768 5617,3768 5624,3766 5643,3767 5664,3760 5671,3760 5679,3761 5684,3769 5685,3775 5701,3799 5718,3833 5731,3857 5738,3873 5744,3886 5750,3900 5754,3910 5757,3921 5758,3930 5755,3940 5751,3950 5748,3960 5746,3968 5744,3974 5743,3984 5743,3992 5744,3999 5755,4003 5769,4003 5780,4006 5848,4012 5857,4016 5856,4025 5856,4038 5855,4049 5849,4071 5850,4082 5849,4090 5851,4099 5849,4110 5843,4126 5830,4150 5822,4165 5820,4174 5820,4185 5821,4197 5821,4206 5825,4215 5827,4223 5828,4235 5833,4245 5840,4253 5846,4255 5854,4250 5860,4243 5865,4235 5869,4224 5874,4215 5880,4203 5882,4194 5881,4188 5888,4183 5904,4179 5914,4174 5921,4168 5928,4159 5935,4149 5943,4142 5950,4136 5959,4132 5968,4131 5975,4132 5980,4143 5977,4174 5979,4188 5978,4195 5977,4212 5975,4222 5973,4232 5969,4242 5965,4249 5960,4257 5958,4265 5956,4274 5960,4291 5966,4315 5967,4335 5974,4363 5977,4377 5981,4390 5984,4403 5989,4416 5995,4426 6002,4438 6007,4450 6012,4461 6021,4471 6028,4479 6036,4485 6046,4488 6054,4494 6063,4503 6063,4509 6060,4517 6067,4520 6073,4519 6080,4518 6087,4518 6094,4520 6100,4526 6107,4531 6113,4534 6120,4538 6123,4544 6122,4551 6121,4560 6124,4567 6131,4574 6138,4577 6144,4579 6154,4579 6168,4577 6174,4575 6183,4573 6189,4574 6195,4578 6191,4586 6190,4592 6190,4598 6197,4598 6212,4584 6218,4579 6224,4578 6226,4584 6226,4590 6228,4599 6234,4604 6241,4603 6251,4599 6257,4601 6256,4610 6253,4621 6251,4627 6257,4632 6263,4632 6277,4628 6283,4626 6290,4625 6298,4626 6304,4628 6312,4629 6318,4623 6324,4620 6330,4620 6338,4623 6342,4630 6341,4636 6332,4646 6322,4655 6322,4662 6331,4663 6337,4662 6346,4657 6358,4651 6366,4643 6372,4637 6378,4636 6386,4647 6391,4655 6398,4662 6403,4669 6401,4676 6398,4682 6396,4689 6397,4697 6414,4706 6425,4711 6433,4711 6439,4708 6445,4699 6452,4693 6466,4686 6474,4683 6482,4683 6489,4688 6495,4693 6502,4694 6512,4693 6519,4695 6523,4702 6519,4708 6512,4712 6508,4719 6508,4725 6521,4728 6532,4719 6538,4715 6546,4711 6552,4710 6559,4712 6566,4717 6572,4721 6578,4719 6580,4711 6581,4705 6584,4698 6590,4693 6596,4693 6604,4699 6609,4712 6611,4731 6613,4737 6619,4740 6636,4740 6644,4741 6651,4746 6657,4750 6663,4754 6670,4755 6677,4756 6683,4761 6688,4767 6695,4770 6704,4770 6715,4769 6716,4777 6713,4784 6710,4791 6712,4798 6719,4798 6726,4795 6735,4787 6741,4783 6744,4796 6746,4805 6750,4813 6754,4819 6761,4827 6768,4831 6777,4832 6784,4831 6791,4830 6797,4830 6800,4837 6792,4848 6791,4854 6797,4859 6803,4860 6810,4862 6808,4877 6804,4889 6803,4896 6808,4904 6814,4905 6828,4909 6833,4916 6832,4926 6829,4933 6824,4939 6817,4939 6810,4936 6803,4937 6797,4942 6797,4948 6800,4954 6809,4960 6815,4961 6829,4960 6844,4960 6855,4961 6863,4963 6871,4964 6879,4968 6882,4974 6880,4981 6880,4988 6887,4995 6893,5001 6883,5005 6877,5010 6874,5017 6872,5023 6865,5027 6859,5029 6852,5036 6851,5049 6853,5059 6845,5067 6842,5076 6843,5086 6842,5097 6842,5108 6836,5119 6825,5128 6814,5132 6802,5134 6790,5136 6779,5139 6764,5143 6754,5146 6746,5149 6736,5156 6735,5162 6744,5170 6747,5177 6745,5186 6737,5197 6729,5206 6727,5216 6733,5225 6746,5234 6757,5239 6765,5243 6773,5253 6779,5263 6784,5273 6787,5282 6789,5291 6770,5291 6762,5289 6756,5295 6755,5301 6749,5304 6746,5311 6744,5317 6736,5317 6728,5311 6722,5312 6720,5330 6721,5341 6722,5348 6716,5348 6710,5346 6702,5350 6692,5357 6679,5363 6672,5366 6670,5372 6674,5378 6678,5385 6680,5391 6677,5398 6669,5400 6661,5401 6655,5396 6648,5390 6642,5386 6636,5383 6628,5381 6622,5381 6618,5387 6621,5394 6632,5409 6635,5416 6632,5422 6626,5427 6618,5433 6613,5439 6613,5446 6615,5453 6618,5459 6616,5467 6611,5474 6604,5477 6597,5473 6591,5472 6584,5477 6582,5483 6584,5495 6585,5501 6578,5505 6569,5497 6563,5496 6558,5503 6556,5509 6550,5515 6542,5519 6535,5522 6528,5524 6514,5520 6507,5519 6503,5525 6514,5532 6518,5538 6515,5544 6503,5557 6495,5568 6494,5574 6505,5584 6519,5593 6525,5599 6526,5606 6525,5612 6519,5616 6512,5620 6506,5629 6501,5635 6495,5639 6482,5640 6476,5642 6472,5651 6473,5657 6472,5663 6466,5666 6458,5666 6452,5669 6461,5680 6463,5688 6454,5693 6448,5696 6441,5698 6435,5703 6434,5710 6435,5719 6440,5731 6442,5739 6436,5745 6432,5752 6432,5759 6425,5768 6419,5773 6409,5776 6394,5753 6386,5750 6384,5758 6382,5765 6375,5771 6374,5778 6374,5784 6369,5791 6371,5798 6367,5804 6355,5810 6352,5811 6348,5814 6342,5817 6332,5826 6323,5829 6312,5830 6304,5830 6297,5827 6287,5821 6283,5815 6280,5808 6278,5799 6267,5777 6262,5766 6256,5759 6249,5756 6237,5752 6226,5752 6215,5747 6208,5744 6201,5746 6196,5754 6191,5761 6183,5760 6176,5758 6170,5757 6166,5750 6157,5748 6151,5750 6142,5758 6134,5761 6132,5767 6133,5774 6153,5789 6156,5796 6154,5805 6153,5813 6152,5822 6150,5829 6148,5835 6145,5841 6135,5845 6128,5846 6121,5844 6113,5841 6104,5837 6092,5832 6086,5839 6086,5846 6087,5852 6086,5859 6080,5863 6070,5864 6060,5865 6049,5866 6042,5866 6036,5865 6036,5862 6030,5858 6019,5857 6012,5853 6000,5850 5986,5850 5972,5851 5960,5852 5948,5850 5939,5843 5933,5831 5894,5768 5880,5731 5876,5718 5869,5706 5862,5695 5849,5677 5840,5668 5836,5660 5836,5653 5845,5643 5850,5636 5853,5628 5852,5622 5850,5615 5846,5605 5843,5596 5846,5587 5849,5579 5865,5565 5872,5557 5864,5545 5859,5539 5843,5516 5832,5503 5829,5495 5828,5480 5822,5472 5821,5465 5824,5459 5822,5453 5816,5452 5803,5455 5790,5461 5782,5466 5774,5463 5776,5457 5783,5450 5788,5443 5787,5427 5782,5420 5773,5423 5766,5431 5753,5442 5745,5444 5732,5443 5720,5442 5712,5446 5710,5471 5715,5483 5714,5490 5708,5495 5700,5492 5684,5488 5677,5485 5670,5478 5672,5471 5674,5456 5679,5438 5679,5430 5669,5432 5661,5434 5665,5426 5677,5411 5681,5405 5678,5398 5670,5395 5671,5389 5675,5383 5660,5375 5651,5370 5639,5353 5633,5353 5627,5358 5615,5364 5607,5364 5601,5361 5595,5354 5587,5353 5578,5357 5568,5381 5564,5387 5559,5394 5553,5396 5543,5399 5542,5407 5534,5411 5526,5409 5517,5405 5508,5405 5498,5406 5488,5411 5482,5415 5478,5434 5484,5457 5484,5464 5479,5470 5471,5472 5465,5471 5457,5460 5453,5443 5449,5387 5437,5346 5432,5339 5421,5337 5412,5343 5408,5350 5416,5389 5415,5399 5408,5405 5400,5405 5379,5399 5371,5400 5374,5409 5373,5420 5368,5430 5361,5438 5348,5443 5336,5440 5326,5434 5316,5433 5312,5452 5310,5474 5324,5502 5330,5513 5330,5530 5332,5542 5333,5551 5333,5558 5332,5568 5322,5575 5315,5578 5308,5571 5305,5559 5301,5550 5292,5549 5284,5561 5277,5571 5270,5577 5261,5577 5257,5567 5256,5556 5247,5556 5240,5553 5234,5547 5228,5544 5223,5550 5222,5557 5221,5568 5222,5575 5215,5577 5206,5581 5195,5578 5186,5574 5179,5574 5173,5579 5167,5585 5161,5589 5152,5594 5146,5593 5139,5593 5129,5598 5123,5599 5115,5598 5120,5590 5121,5581 5117,5575 5112,5568 5107,5559 5105,5553 5111,5541 5120,5533 5120,5517 5121,5509 5123,5502 5127,5493 5133,5485 5139,5479 5145,5474 5151,5470 5159,5465 5163,5456 5165,5450 5176,5442 5182,5436 5186,5427 5190,5419 5199,5408 5205,5399 5205,5390 5206,5379 5213,5372 5221,5370 5232,5363 5241,5353 5257,5334 5264,5311 5264,5302 5263,5293 5260,5286 5256,5279 5246,5272 5234,5254 5235,5243 5229,5243 5222,5245 5216,5247 5210,5248 5202,5247 5174,5247 5167,5255 5163,5262 5160,5269 5156,5275 5147,5281 5138,5278 5130,5272 5125,5261 5128,5240 5128,5234 5122,5219 5120,5210 5118,5201 5117,5191 5116,5181 5112,5168 5108,5161 5103,5154 5099,5147 5092,5137 5086,5127 5084,5119 5083,5110 5082,5099 5077,5089 5070,5081 5060,5075 5051,5068 5050,5062 5046,5052 5042,5043 5035,5038 5028,5036 5019,5036 5004,5037 4989,5036 4974,5033 4967,5029 4965,5019 4968,5011 4968,5000 4969,4992 4968,4984 4966,4973 4965,4962 4964,4950 4965,4940 4968,4934 4974,4927 4983,4919 4993,4909 4995,4899 4987,4891 4977,4887 4964,4884 4956,4885 4948,4886 4934,4888 4921,4885 4913,4884 4901,4882 4890,4885 4880,4888 4871,4893 4863,4899 4855,4896 4855,4882 4854,4874 4857,4867 4860,4861 4854,4857 4845,4854 4834,4860 4827,4858 4818,4850 4812,4849 4802,4848 4792,4850 4785,4854 4774,4856 4765,4851 4757,4839 4755,4833 4764,4815 4760,4804 4747,4797 4738,4793 4730,4788 4730,4782 4733,4772 4738,4763 4743,4757 4750,4745 4751,4735 4746,4728 4735,4722 4726,4715 4720,4709 4715,4700 4712,4690 4708,4681 4702,4670 4701,4655 4692,4630 4691,4615 4688,4604 4682,4599 4670,4595 4661,4594 4651,4596 4643,4601 4636,4610 4632,4616 4626,4622 4612,4631 4599,4634 4590,4634 4581,4631 4573,4625 4570,4617 4571,4608 4571,4600 4578,4598 4585,4605 4591,4608 4597,4599 4593,4584 4591,4566 4587,4556 4583,4542 4570,4498 4563,4483 4556,4474 4550,4466 4542,4457 4533,4447 4527,4439 4520,4418 4522,4410 4526,4402 4530,4396 4536,4391 4541,4385 4542,4377 4536,4369 4526,4364 4513,4363 4504,4363 4495,4364 4466,4365 4456,4362 4450,4361 4438,4363 4426,4360 4418,4353 4414,4341 4405,4334 4393,4333 4382,4332 4367,4330 4353,4330 4341,4327 4333,4324 4312,4317 4302,4312 4292,4309 4285,4309 4275,4306 4265,4306 4250,4305 4238,4304 4224,4300 4215,4296 4203,4286 4197,4279 4191,4270 4187,4261 4184,4251 4181,4242 4177,4236 4169,4231 4158,4229 4150,4229 4140,4231 4128,4236 4116,4243 4105,4247 4092,4251 4073,4251 4065,4247 4059,4243 4056,4232 4055,4223 4055,4216 4053,4209 4046,4202 4033,4193 4024,4188 4016,4184 4008,4175 4006,4169 4000,4165 3983,4165 3970,4169 3960,4175 3949,4175 3934,4171 3924,4167 3911,4164 3903,4162 3895,4157 3884,4149 3878,4144 3871,4141 3859,4138 3844,4136 3830,4132 3811,4125 3793,4122 3776,4119 3763,4114 3757,4108 3742,4101 3729,4093 3719,4091 3700,4088 3687,4087 3676,4085 3665,4082 3656,4079 3646,4080 3634,4081 3626,4078 3622,4071 3621,4063 3620,4055 3622,4048 3627,4040 3635,4034 3642,4028 3654,4024 3660,4021 3665,4014 3668,4005 3669,3986 3667,3961 3688,3901 3687,3894 3679,3885 3655,3874 3643,3868 3634,3863 3623,3856 3616,3850 3607,3841 3601,3832 3596,3823 3590,3816 3582,3811 3570,3816 3560,3819 3554,3819 3548,3817 3538,3814 3526,3810 3522,3810 3520,3806 3522,3785 3522,3777 3514,3773 3507,3770 3498,3764 3491,3753 3490,3745 3490,3739 3488,3729 3485,3718 3480,3710 3475,3704 3467,3695 3459,3685 3456,3676 3457,3664 3459,3653 3463,3647 3466,3638 3468,3632 3465,3625 3460,3618 3456,3612 3448,3607 3444,3600 3431,3590 3419,3581 3412,3571 3409,3561 3408,3554 3409,3542 3413,3531 3417,3520 3422,3508 3423,3502 3420,3495 3417,3490 3415,3486 3412,3483 3408,3481 3394,3476 3384,3472 3377,3469 3374,3464 3370,3461 3362,3459 3355,3461 3341,3468 3333,3469 3325,3470 3319,3471 3315,3475 3301,3494 3297,3496 3293,3495 3289,3495 3285,3496 3285,3499 3285,3502 3276,3502 3272,3502 3268,3500 3265,3499 3264,3495 3265,3489 3268,3485 3271,3480 3274,3475 3278,3469 3284,3457 3286,3450 3281,3444 3271,3437 3264,3431 3253,3419 3250,3411 3249,3401 3252,3383 3253,3377 3253,3374 3251,3369 3251,3364 3260,3357 3266,3352 3275,3349 3283,3347 3290,3345 3298,3342 3309,3338 3322,3331 3332,3324 3340,3320 3350,3316 3362,3313 3374,3312 3380,3312 3389,3316 3405,3310 3419,3307 3430,3310 3436,3313 3446,3322 3461,3337 3472,3344 3481,3350 3488,3354 3495,3358 3502,3359 3509,3358 3515,3356 3526,3350 3532,3344 3538,3336 3538,3325 3540,3316 3546,3304 3550,3289 3571,3233 3580,3211 3583,3205 3585,3199 3610,3167 3625,3149 3638,3132 3638,3123 3633,3117 3627,3112 3626,3103 3623,3089 3622,3073 3624,3056 3626,3047 3626,3026 3622,3016 3619,2998 3624,2991 3630,2980 3632,2974 3636,2968 3644,2961 3650,2962 3674,2974 3692,2980 3698,2981 3708,2981 3724,2984 3735,2978 3743,2971 3751,2967 3757,2968 3766,2975 3772,2979 3782,2982 3788,2986 3796,2988 3808,2988 3822,2986 3830,2981 3837,2972 3840,2965 3843,2957 3848,2943 3851,2926 3852,2917 3856,2911 3869,2906 3875,2912 3881,2909 3886,2900 3896,2897 3890,2885 3890,2877 3895,2870 3893,2860 3885,2846 3879,2837 3868,2834 3849,2828 3839,2821 3832,2816 3823,2813 3816,2813 3797,2814 3789,2807 3791,2799 3808,2789 3818,2782 3823,2776 3832,2767 3833,2758 3827,2743 3824,2736 3819,2725 3812,2720 3800,2719 3791,2723 3777,2728 3763,2728 3757,2726 3750,2723 3743,2716 3741,2710 3746,2699 3760,2689 3766,2687 3775,2685 3788,2684 3796,2677 3802,2673 3808,2672 3819,2672 3828,2668 3822,2658 3822,2651 3816,2650 3804,2650 3796,2648 3790,2643 3789,2635 3798,2639 3806,2640 3804,2634 3797,2618 3798,2608 3805,2602 3812,2597 3819,2596 3826,2597 3848,2596 3879,2584 3895,2574 3911,2561 3925,2551 3938,2540 3947,2532 3953,2521 3956,2508 3956,2499 3949,2491 3938,2485 3932,2484 3926,2486 3918,2489 3910,2495 3901,2496 3895,2492 3905,2487 3908,2478 3897,2468 3899,2456 3905,2457 3911,2463 3922,2460 3924,2451 3923,2439 3926,2431 3929,2423 3925,2417 3915,2403 3910,2395 3915,2388 3923,2392 3931,2397 3938,2398 3945,2392 3949,2385 3954,2378 3962,2366 3969,2354 3976,2343 3983,2338 3992,2330 3997,2324 4001,2316 3995,2309 3988,2299 3986,2291 3986,2285 3982,2271 3986,2265 3996,2265 4005,2267 4022,2274 4034,2280 4050,2276 4057,2280 4064,2280 4073,2275 4081,2278 4087,2285 4090,2293 4096,2298 4106,2300 4115,2305 4127,2310 4141,2314 4150,2316 4174,2338 4179,2348 4181,2356 4184,2371 4187,2379 4190,2386 4196,2390 4208,2395 4220,2395 4222,2388 4227,2378 4232,2371 4238,2368 4251,2364 4257,2363 4263,2357 4267,2349 4267,2333 4271,2323 4280,2308 4289,2294 4305,2278 4314,2266 4321,2260 4332,2258 4342,2259 4358,2258 4369,2259 4386,2261 4409,2263 4425,2264 4439,2263 4456,2262 4477,2258 4502,2248 4542,2227 4551,2222 4557,2215 4563,2206 4570,2186 4573,2168 4575,2148 4579,2140 4586,2136 4592,2131 4598,2124 4603,2118 4613,2119 4619,2123 4624,2130 4631,2134 4639,2136 4645,2135 4653,2120 4657,2113 4662,2105 4664,2098 4672,2089 4679,2086 4689,2085 4700,2086 " class="polyStyle" id="510623" style="fill:#f6f67b"/>
<polygon points="3660,1285 3671,1288 3683,1293 3693,1299 3702,1307 3710,1316 3727,1342 3743,1358 3753,1364 3769,1368 3780,1372 3787,1375 3794,1376 3807,1379 3821,1388 3831,1399 3836,1408 3839,1417 3840,1424 3841,1433 3847,1444 3866,1450 3881,1449 3892,1448 3901,1449 3912,1448 3920,1450 3926,1452 3932,1456 3941,1466 3948,1478 3949,1484 3946,1494 3942,1502 3940,1508 3942,1522 3943,1531 3946,1548 3949,1554 3957,1569 3960,1575 3964,1581 3968,1592 3973,1599 3974,1606 3975,1612 3973,1620 3949,1656 3943,1666 3943,1678 3946,1688 3949,1695 3953,1702 3959,1707 3972,1714 3990,1719 4005,1725 4022,1730 4037,1732 4051,1733 4072,1749 4085,1762 4094,1766 4100,1770 4107,1774 4113,1777 4130,1781 4146,1785 4153,1786 4159,1788 4169,1792 4184,1795 4195,1799 4209,1801 4222,1807 4247,1814 4255,1817 4263,1820 4273,1823 4286,1825 4295,1825 4306,1836 4311,1847 4316,1860 4317,1871 4318,1880 4318,1889 4314,1899 4309,1913 4308,1919 4309,1927 4313,1936 4323,1943 4329,1947 4335,1950 4343,1960 4350,1971 4360,1981 4366,1986 4376,1992 4384,2003 4387,2019 4379,2030 4369,2041 4364,2054 4369,2062 4378,2070 4385,2079 4391,2103 4396,2114 4403,2126 4401,2137 4398,2149 4409,2157 4422,2156 4454,2154 4477,2151 4491,2149 4497,2141 4502,2128 4508,2120 4518,2121 4534,2127 4546,2131 4560,2136 4573,2139 4579,2140 4575,2148 4573,2168 4570,2186 4563,2206 4557,2215 4551,2222 4542,2227 4502,2248 4477,2258 4456,2262 4439,2263 4425,2264 4409,2263 4386,2261 4369,2259 4358,2258 4342,2259 4332,2258 4321,2260 4314,2266 4305,2278 4289,2294 4280,2308 4271,2323 4267,2333 4267,2349 4263,2357 4257,2363 4251,2364 4238,2368 4232,2371 4227,2378 4222,2388 4220,2395 4208,2395 4196,2390 4190,2386 4187,2379 4184,2371 4181,2356 4179,2348 4174,2338 4150,2316 4141,2314 4127,2310 4115,2305 4106,2300 4096,2298 4090,2293 4087,2285 4081,2278 4073,2275 4064,2280 4057,2280 4050,2276 4034,2280 4022,2274 4005,2267 3996,2265 3986,2265 3982,2271 3986,2285 3986,2291 3988,2299 3995,2309 4001,2316 3997,2324 3992,2330 3983,2338 3976,2343 3969,2354 3962,2366 3954,2378 3949,2385 3945,2392 3938,2398 3931,2397 3923,2392 3915,2388 3910,2395 3915,2403 3925,2417 3929,2423 3926,2431 3923,2439 3924,2451 3922,2460 3911,2463 3905,2457 3899,2456 3897,2468 3908,2478 3905,2487 3895,2492 3886,2487 3883,2486 3877,2482 3875,2488 3872,2496 3865,2490 3859,2482 3846,2466 3839,2461 3832,2459 3826,2459 3818,2458 3817,2452 3813,2445 3803,2442 3799,2436 3797,2430 3796,2420 3792,2414 3785,2413 3771,2420 3765,2416 3758,2416 3751,2419 3737,2430 3739,2437 3746,2447 3747,2453 3741,2461 3732,2469 3719,2469 3707,2459 3700,2459 3694,2457 3688,2457 3680,2454 3666,2458 3659,2461 3654,2467 3648,2475 3642,2475 3635,2470 3631,2464 3625,2455 3625,2449 3627,2441 3628,2435 3629,2428 3631,2422 3635,2416 3633,2410 3619,2388 3612,2388 3601,2394 3595,2398 3588,2395 3584,2389 3594,2381 3590,2374 3584,2372 3564,2362 3558,2358 3553,2352 3546,2346 3540,2347 3533,2349 3524,2347 3518,2340 3512,2335 3502,2338 3496,2338 3490,2342 3481,2342 3469,2353 3461,2356 3453,2354 3445,2349 3437,2343 3433,2337 3420,2328 3415,2313 3410,2300 3405,2288 3400,2267 3395,2260 3387,2261 3379,2262 3372,2263 3367,2269 3355,2263 3351,2257 3344,2254 3338,2250 3332,2246 3326,2243 3320,2243 3312,2244 3302,2243 3298,2236 3294,2222 3283,2208 3277,2204 3272,2198 3270,2188 3273,2180 3278,2174 3274,2167 3267,2170 3260,2172 3254,2174 3247,2175 3241,2167 3237,2155 3230,2139 3229,2132 3233,2126 3230,2116 3228,2103 3224,2087 3226,2080 3227,2074 3221,2066 3211,2060 3204,2056 3200,2049 3195,2039 3191,2033 3185,2030 3179,2033 3171,2033 3164,2026 3164,2012 3167,2005 3161,2000 3152,1993 3146,1990 3138,1981 3132,1975 3125,1969 3118,1964 3112,1964 3105,1969 3098,1972 3091,1971 3088,1964 3089,1958 3088,1951 3088,1936 3091,1930 3088,1923 3081,1915 3076,1909 3067,1901 3059,1895 3048,1887 3038,1884 3029,1885 2983,1885 2977,1886 2969,1887 2956,1885 2948,1883 2941,1881 2932,1878 2925,1877 2915,1873 2906,1870 2899,1867 2892,1864 2881,1861 2870,1857 2863,1853 2852,1842 2848,1836 2843,1828 2841,1822 2840,1816 2838,1810 2832,1799 2828,1790 2820,1774 2814,1770 2808,1766 2804,1760 2799,1744 2797,1738 2795,1731 2789,1729 2781,1727 2771,1726 2764,1723 2750,1722 2741,1716 2731,1706 2718,1684 2717,1680 2715,1677 2712,1674 2708,1670 2702,1663 2702,1657 2700,1647 2697,1641 2693,1634 2688,1631 2684,1628 2680,1626 2676,1626 2673,1626 2670,1627 2666,1630 2663,1632 2661,1633 2657,1634 2653,1633 2648,1629 2645,1624 2644,1619 2660,1606 2671,1602 2684,1599 2698,1599 2706,1598 2709,1595 2712,1594 2716,1591 2716,1586 2717,1576 2718,1570 2722,1560 2742,1572 2754,1581 2770,1581 2783,1573 2797,1564 2812,1561 2822,1569 2836,1592 2846,1609 2900,1624 2929,1620 2947,1609 2946,1596 2947,1583 2956,1578 2970,1582 2978,1587 2993,1594 3008,1595 3029,1594 3043,1598 3061,1606 3082,1612 3094,1615 3112,1619 3126,1626 3138,1633 3149,1639 3148,1633 3158,1619 3157,1609 3154,1600 3158,1593 3172,1583 3181,1581 3180,1591 3177,1599 3184,1607 3191,1610 3202,1609 3229,1596 3243,1594 3253,1591 3261,1586 3267,1585 3278,1588 3292,1596 3298,1599 3304,1597 3310,1592 3316,1598 3327,1594 3329,1588 3334,1582 3340,1581 3351,1579 3357,1579 3377,1572 3396,1567 3409,1566 3418,1565 3424,1560 3426,1551 3428,1544 3437,1540 3452,1540 3455,1533 3461,1527 3462,1518 3446,1506 3439,1502 3430,1496 3419,1485 3416,1473 3414,1464 3412,1456 3422,1453 3433,1454 3439,1451 3442,1442 3450,1436 3457,1440 3466,1440 3476,1436 3485,1438 3491,1444 3498,1453 3506,1453 3518,1446 3527,1439 3533,1433 3538,1421 3538,1412 3537,1397 3539,1385 3544,1374 3556,1365 3566,1360 3574,1357 3564,1356 3569,1348 3567,1341 3561,1340 3553,1343 3556,1337 3550,1334 3551,1328 3558,1330 3565,1334 3572,1337 3581,1343 3588,1348 3596,1350 3597,1343 3591,1336 3584,1331 3580,1325 3584,1317 3582,1309 3588,1309 3590,1315 3589,1323 3593,1329 3604,1337 3612,1341 3609,1333 3605,1326 3602,1319 3604,1309 3612,1304 3622,1307 3628,1307 3636,1292 3640,1279 3646,1282 " class="polyStyle" id="510626" style="fill:#ee8b94"/>
<path d="" class="polyStyle" id="420526" style="fill:#fbe6ef"/>
<path d="" class="polyStyle" id="511923" style="fill:#fbe6ef"/>
<path d="" class="polyStyle" id="420325" style="fill:#fbe6ef"/>
<path d="" class="polyStyle" id="511921" style="fill:#f6f67b"/>
<path d="" class="polyStyle" id="542525" style="fill:#f6f67b"/>
<path d="" class="polyStyle" id="611026" style="fill:#ee8b94"/>
<path d="" class="polyStyle" id="411023" style="fill:#fbe6ef"/>
<path d="" class="polyStyle" id="632323" style="fill:#f6f67b"/>
<path d="" class="polyStyle" id="140525" style="fill:#d4ecb2"/>
<path d="" class="polyStyle" id="410922" style="fill:#ee8b94"/>
<path d="" class="polyStyle" id="621027" style="fill:#ee8b94"/>
<path d="" class="polyStyle" id="130427" style="fill:#f6f67b"/>
<path d="" class="polyStyle" id="130121" style="fill:#ee8b94"/>
<path d="" class="polyStyle" id="610823" style="fill:#fbe6ef"/>
<path d="" class="polyStyle" id="130225" style="fill:#fbe6ef"/>
<path d="" class="polyStyle" id="130322" style="fill:#d4ecb2"/>
<path d="" class="polyStyle" id="653130" style="fill:#f6f67b"/>
<path d="" class="polyStyle" id="130822" style="fill:#fbe6ef"/>
<path d="" class="polyStyle" id="211221" style="fill:#f6f67b"/>
<path d="" class="polyStyle" id="210921" style="fill:#f6f67b"/>
<path d="" class="polyStyle" id="150223" style="fill:#f8c67d"/>
<path d="" class="polyStyle" id="220422" style="fill:#d4ecb2"/>
<path d="" class="polyStyle" id="340721" style="fill:#f6f67b"/>
<path d="" class="polyStyle" id="510824" style="fill:#d4ecb2"/>
<path d="" class="polyStyle" id="610324" style="fill:#f6f67b"/>
<path d="" class="polyStyle" id="530722" style="fill:#ee8b94"/>
<path d="" class="polyStyle" id="340823" style="fill:#d4ecb2"/>
<path d="" class="polyStyle" id="620825" style="fill:#d4ecb2"/>
<path d="" class="polyStyle" id="421125" style="fill:#ee8b94"/>
<path d="" class="polyStyle" id="210281" style="fill:#ee8b94"/>
<path d="" class="polyStyle" id="440883" style="fill:#f6f67b"/>
<path d="" class="polyStyle" id="469006" style="fill:#d4ecb2"/>
<path d="" class="polyStyle" id="469002" style="fill:#ee8b94"/>
<path d="" class="polyStyle" id="469005" style="fill:#fbe6ef"/>
<path d="" class="polyStyle" id="440882" style="fill:#ee8b94"/>
<path d="" class="polyStyle" id="450681" style="fill:#ee8b94"/>
<path d="" class="polyStyle" id="441581" style="fill:#d4ecb2"/>
<path d="" class="polyStyle" id="421087" style="fill:#ee8b94"/>
<path d="" class="polyStyle" id="420984" style="fill:#fbe6ef"/>
<polygon points="2413,2763 2419,2774 2423,2787 2429,2794 2435,2797 2442,2800 2448,2801 2456,2804 2463,2810 2467,2817 2475,2828 2488,2843 2494,2852 2493,2858 2491,2867 2488,2876 2488,2883 2491,2890 2495,2897 2503,2900 2512,2900 2529,2892 2543,2892 2558,2894 2568,2898 2574,2903 2581,2914 2572,2932 2576,2939 2592,2952 2617,2966 2628,2973 2635,2979 2639,2986 2643,3009 2660,3028 2667,3034 2674,3041 2680,3049 2682,3055 2686,3061 2704,3070 2722,3080 2729,3084 2735,3092 2737,3104 2738,3110 2742,3119 2748,3124 2761,3131 2775,3137 2783,3141 2790,3149 2796,3170 2797,3176 2794,3182 2785,3191 2784,3199 2783,3209 2787,3216 2795,3221 2821,3234 2830,3234 2844,3235 2853,3233 2860,3226 2867,3229 2870,3235 2873,3242 2881,3250 2900,3255 2910,3258 2913,3266 2907,3270 2900,3278 2906,3279 2914,3278 2921,3284 2930,3282 2939,3289 2949,3293 2956,3293 2963,3288 2968,3273 2976,3274 2990,3278 2996,3287 3002,3291 3015,3291 3023,3290 3034,3294 3039,3307 3050,3320 3053,3329 3058,3346 3066,3364 3070,3375 3073,3390 3074,3400 3081,3409 3093,3406 3096,3398 3098,3382 3105,3375 3112,3370 3126,3364 3139,3362 3150,3360 3157,3362 3164,3365 3172,3366 3176,3358 3181,3351 3187,3348 3196,3343 3211,3338 3222,3334 3229,3332 3235,3330 3242,3324 3250,3325 3260,3328 3270,3330 3283,3336 3290,3345 3283,3347 3275,3349 3266,3352 3260,3357 3251,3364 3251,3369 3253,3374 3253,3377 3252,3383 3249,3401 3250,3411 3253,3419 3264,3431 3271,3437 3281,3444 3286,3450 3284,3457 3278,3469 3274,3475 3271,3480 3268,3485 3265,3489 3264,3495 3265,3499 3268,3500 3272,3502 3276,3502 3285,3502 3285,3499 3285,3496 3289,3495 3293,3495 3297,3496 3301,3494 3315,3475 3319,3471 3325,3470 3333,3469 3341,3468 3355,3461 3362,3459 3370,3461 3374,3464 3377,3469 3384,3472 3394,3476 3408,3481 3412,3483 3415,3486 3417,3490 3420,3495 3423,3502 3422,3508 3417,3520 3413,3531 3409,3542 3408,3554 3409,3561 3412,3571 3419,3581 3431,3590 3444,3600 3448,3607 3456,3612 3460,3618 3465,3625 3468,3632 3466,3638 3463,3647 3459,3653 3457,3664 3456,3676 3459,3685 3467,3695 3475,3704 3480,3710 3485,3718 3488,3729 3490,3739 3490,3745 3491,3753 3498,3764 3507,3770 3514,3773 3522,3777 3522,3785 3520,3806 3522,3810 3511,3807 3481,3802 3451,3782 3422,3768 3385,3758 3351,3745 3317,3746 3278,3760 3250,3779 3216,3781 3189,3784 3154,3773 3117,3781 3084,3794 3052,3805 3022,3784 2990,3795 2984,3826 2969,3863 2943,3857 2926,3830 2889,3805 2854,3827 2830,3859 2819,3891 2809,3920 2800,3947 2773,3976 2770,3973 2765,3966 2760,3963 2755,3963 2752,3965 2751,3968 2749,3976 2748,3980 2744,3983 2740,3985 2735,3987 2731,3990 2729,3994 2726,3996 2723,3997 2720,3999 2715,3998 2713,3996 2714,3989 2712,3985 2709,3983 2705,3983 2699,3984 2693,3985 2688,3986 2681,3988 2676,3992 2664,4007 2657,4016 2640,4029 2633,4032 2627,4033 2623,4031 2603,4023 2597,4021 2590,4017 2580,4007 2577,4005 2572,4002 2556,4000 2543,3999 2533,3995 2521,3990 2512,3986 2498,3984 2487,3981 2480,3978 2474,3976 2466,3976 2452,3985 2443,3988 2438,3989 2429,3988 2415,3986 2401,3984 2393,3982 2381,3982 2371,3985 2364,3992 2356,3996 2347,3997 2341,3995 2336,3991 2335,3985 2335,3977 2335,3970 2331,3966 2324,3964 2316,3964 2310,3965 2305,3968 2304,3974 2294,3986 2286,3990 2277,3996 2267,4000 2257,4005 2250,4006 2245,4006 2220,4002 2215,4003 2201,4002 2190,4002 2183,4004 2180,4009 2175,4015 2169,4017 2165,4016 2162,4012 2158,4004 2138,3987 2129,3983 2120,3985 2118,3988 2112,3999 2105,4000 2102,3999 2098,3995 2092,3989 2086,3978 2082,3972 2083,3967 2081,3964 2077,3962 2073,3962 2069,3963 2066,3966 2061,3968 2058,3968 2054,3966 2053,3961 2054,3957 2056,3950 2056,3944 2054,3940 2048,3934 2037,3930 2024,3927 2019,3926 2015,3926 2009,3925 2002,3924 1998,3925 1993,3926 1987,3926 1972,3926 1946,3936 1928,3947 1900,3954 1871,3952 1869,3926 1854,3898 1828,3901 1799,3923 1769,3921 1769,3919 1765,3912 1763,3905 1760,3896 1757,3887 1752,3878 1738,3872 1735,3866 1740,3857 1746,3855 1752,3854 1764,3853 1775,3851 1786,3844 1786,3824 1787,3816 1788,3810 1788,3802 1784,3791 1787,3785 1793,3779 1801,3781 1813,3776 1820,3768 1822,3761 1824,3747 1826,3740 1833,3735 1839,3735 1856,3732 1857,3724 1854,3718 1847,3709 1840,3695 1845,3689 1851,3685 1860,3676 1861,3668 1861,3661 1862,3655 1870,3646 1872,3638 1871,3632 1870,3625 1870,3619 1868,3607 1864,3599 1853,3585 1850,3577 1854,3568 1860,3565 1870,3561 1869,3551 1867,3543 1863,3533 1857,3524 1841,3511 1832,3502 1828,3495 1819,3486 1813,3484 1807,3483 1798,3477 1795,3467 1789,3465 1783,3468 1778,3479 1769,3479 1761,3474 1767,3470 1769,3464 1762,3461 1747,3460 1748,3454 1743,3448 1739,3434 1729,3431 1721,3430 1712,3430 1691,3425 1680,3422 1673,3420 1666,3417 1651,3410 1643,3403 1636,3401 1628,3401 1620,3405 1614,3406 1607,3401 1604,3395 1602,3389 1602,3382 1603,3373 1608,3367 1616,3363 1623,3361 1633,3356 1631,3343 1637,3342 1654,3339 1664,3336 1670,3339 1683,3347 1694,3349 1716,3350 1722,3350 1730,3345 1733,3337 1739,3331 1749,3338 1752,3346 1753,3357 1756,3363 1762,3367 1792,3364 1821,3364 1831,3358 1839,3352 1849,3350 1864,3352 1872,3351 1878,3348 1882,3340 1881,3332 1875,3326 1867,3321 1855,3315 1848,3308 1845,3301 1836,3288 1814,3270 1796,3258 1788,3253 1778,3250 1771,3246 1760,3240 1753,3236 1743,3230 1733,3220 1733,3211 1736,3203 1748,3194 1761,3188 1773,3187 1793,3189 1800,3188 1806,3184 1818,3175 1826,3174 1834,3171 1837,3164 1841,3147 1847,3142 1853,3147 1866,3159 1874,3160 1880,3158 1888,3155 1898,3158 1905,3164 1913,3168 1919,3161 1921,3154 1931,3152 1943,3148 1950,3142 1958,3143 1968,3146 1976,3135 1974,3129 1965,3111 1974,3109 1984,3107 1989,3100 1996,3101 2002,3102 2009,3096 1995,3070 2003,3067 2012,3066 2022,3065 2029,3054 2038,3059 2047,3054 2053,3045 2050,3038 2051,3030 2054,3024 2060,3019 2060,3012 2072,2998 2080,2996 2090,2994 2096,2996 2102,2997 2115,2995 2122,2996 2131,2991 2139,2983 2146,2976 2154,2964 2165,2950 2165,2943 2153,2923 2161,2923 2173,2922 2174,2916 2172,2905 2175,2894 2182,2895 2191,2892 2193,2884 2191,2878 2184,2860 2180,2850 2174,2849 2173,2843 2179,2832 2183,2826 2183,2820 2189,2814 2219,2814 2228,2812 2234,2809 2244,2806 2250,2816 2257,2823 2288,2828 2288,2820 2296,2816 2304,2814 2313,2811 2327,2809 2337,2805 2346,2805 2355,2799 2361,2799 2372,2793 2374,2787 2380,2787 2384,2793 2391,2793 2400,2789 2396,2782 2389,2778 2388,2772 2398,2754 2401,2747 2406,2753 " class="polyStyle" id="510681" style="fill:#ee8b94"/>
<path d="" class="polyStyle" id="420582" style="fill:#ee8b94"/>
<polygon points="320,806 338,826 363,839 368,846 374,854 386,856 394,853 404,852 413,853 423,857 430,862 446,883 464,892 476,901 488,913 495,920 505,925 515,927 522,924 526,915 530,907 538,900 547,898 560,898 568,893 569,886 576,846 592,826 602,819 605,812 604,803 614,805 626,803 632,808 625,818 636,840 644,849 656,857 662,864 666,876 667,885 671,895 683,911 689,928 696,950 703,969 715,973 724,975 719,986 716,1001 719,1014 726,1026 733,1028 741,1024 750,1021 757,1022 762,1028 770,1035 784,1035 798,1037 827,1059 836,1064 858,1064 866,1061 869,1055 862,1047 864,1033 868,1021 876,1014 888,1017 894,1027 902,1046 908,1058 918,1062 948,1053 959,1048 968,1046 978,1049 991,1066 1000,1073 1004,1080 1003,1094 1002,1103 1003,1109 1011,1118 1036,1126 1042,1130 1045,1136 1045,1161 1046,1180 1047,1187 1049,1194 1053,1203 1035,1221 1026,1243 1019,1253 1013,1259 1007,1267 1003,1281 1000,1288 1012,1302 1019,1310 1031,1323 1039,1323 1052,1322 1062,1324 1077,1335 1101,1353 1112,1357 1123,1360 1136,1360 1143,1362 1153,1367 1163,1376 1169,1384 1172,1393 1174,1414 1172,1433 1168,1445 1160,1455 1154,1457 1144,1462 1136,1467 1126,1478 1122,1486 1119,1497 1119,1510 1121,1516 1130,1526 1144,1536 1147,1543 1151,1551 1153,1558 1154,1574 1155,1582 1158,1591 1163,1598 1164,1605 1170,1629 1174,1642 1178,1650 1171,1656 1160,1661 1155,1667 1163,1677 1172,1683 1174,1692 1166,1701 1160,1710 1156,1716 1156,1723 1157,1731 1162,1742 1170,1747 1187,1752 1196,1763 1203,1765 1215,1761 1230,1764 1239,1772 1242,1778 1248,1789 1246,1799 1236,1810 1226,1815 1214,1819 1202,1826 1193,1835 1185,1846 1174,1858 1165,1868 1159,1874 1139,1885 1135,1892 1133,1898 1130,1904 1131,1915 1132,1923 1136,1944 1140,1956 1141,1968 1141,1986 1144,1997 1149,2007 1156,2023 1159,2032 1161,2041 1164,2048 1173,2056 1188,2068 1194,2074 1202,2080 1214,2090 1223,2099 1232,2108 1238,2120 1237,2129 1237,2140 1236,2153 1233,2160 1235,2176 1245,2186 1276,2207 1325,2240 1342,2252 1358,2261 1374,2271 1386,2281 1407,2292 1420,2298 1436,2309 1446,2312 1457,2315 1470,2316 1482,2320 1496,2324 1504,2326 1512,2330 1523,2333 1530,2334 1538,2336 1548,2335 1554,2334 1564,2335 1570,2336 1584,2340 1600,2352 1608,2356 1615,2362 1625,2368 1638,2372 1654,2379 1666,2386 1690,2398 1706,2407 1730,2420 1753,2433 1768,2443 1784,2448 1796,2453 1810,2456 1828,2458 1844,2470 1858,2481 1869,2487 1881,2494 1902,2504 1918,2509 1936,2514 1944,2516 1954,2518 1962,2522 1969,2526 1975,2531 1978,2539 1984,2541 2001,2543 2012,2545 2020,2546 2034,2548 2053,2557 2061,2558 2069,2559 2076,2561 2085,2564 2091,2566 2099,2569 2111,2572 2120,2575 2129,2579 2137,2583 2144,2587 2157,2595 2166,2600 2182,2604 2193,2606 2201,2610 2212,2614 2230,2623 2236,2627 2247,2631 2256,2641 2265,2652 2270,2658 2279,2663 2286,2665 2301,2669 2309,2673 2318,2680 2335,2696 2351,2711 2362,2719 2374,2725 2382,2730 2395,2740 2401,2747 2398,2754 2388,2772 2389,2778 2396,2782 2400,2789 2391,2793 2384,2793 2380,2787 2374,2787 2372,2793 2361,2799 2355,2799 2346,2805 2337,2805 2327,2809 2313,2811 2304,2814 2296,2816 2288,2820 2288,2828 2257,2823 2250,2816 2244,2806 2234,2809 2228,2812 2219,2814 2189,2814 2183,2820 2183,2826 2179,2832 2173,2843 2174,2849 2180,2850 2184,2860 2191,2878 2193,2884 2191,2892 2182,2895 2175,2894 2172,2905 2174,2916 2173,2922 2161,2923 2153,2923 2165,2943 2165,2950 2154,2964 2146,2976 2139,2983 2131,2991 2122,2996 2115,2995 2102,2997 2096,2996 2090,2994 2080,2996 2072,2998 2060,3012 2060,3019 2054,3024 2051,3030 2050,3038 2053,3045 2047,3054 2038,3059 2029,3054 2022,3065 2012,3066 2003,3067 1995,3070 2009,3096 2002,3102 1996,3101 1989,3100 1984,3107 1974,3109 1965,3111 1974,3129 1976,3135 1968,3146 1958,3143 1950,3142 1943,3148 1931,3152 1921,3154 1919,3161 1913,3168 1905,3164 1898,3158 1888,3155 1880,3158 1874,3160 1866,3159 1853,3147 1847,3142 1841,3147 1837,3164 1834,3171 1826,3174 1818,3175 1806,3184 1800,3188 1793,3189 1773,3187 1761,3188 1748,3194 1736,3203 1733,3211 1733,3220 1743,3230 1753,3236 1760,3240 1771,3246 1778,3250 1788,3253 1796,3258 1814,3270 1836,3288 1845,3301 1848,3308 1855,3315 1867,3321 1875,3326 1881,3332 1882,3340 1878,3348 1872,3351 1864,3352 1849,3350 1839,3352 1831,3358 1821,3364 1792,3364 1762,3367 1756,3363 1753,3357 1752,3346 1749,3338 1739,3331 1733,3337 1730,3345 1722,3350 1716,3350 1694,3349 1683,3347 1670,3339 1664,3336 1654,3339 1637,3342 1631,3343 1620,3344 1612,3345 1606,3345 1598,3344 1591,3343 1575,3342 1575,3336 1569,3331 1567,3325 1556,3325 1556,3331 1550,3333 1551,3339 1543,3337 1496,3328 1488,3326 1481,3319 1480,3312 1473,3308 1464,3307 1453,3302 1458,3295 1460,3284 1458,3276 1446,3270 1443,3264 1437,3257 1427,3253 1420,3246 1411,3241 1413,3235 1417,3228 1418,3215 1417,3205 1411,3203 1404,3195 1397,3192 1388,3187 1379,3182 1371,3179 1359,3176 1350,3174 1323,3168 1320,3157 1324,3151 1324,3144 1322,3136 1322,3124 1319,3116 1313,3119 1314,3112 1312,3104 1305,3101 1297,3100 1291,3099 1281,3095 1275,3094 1249,3081 1240,3078 1239,3071 1238,3060 1232,3054 1236,3048 1243,3043 1238,3036 1224,3031 1213,3028 1205,3025 1199,3025 1193,3023 1189,3016 1180,3010 1179,3004 1173,3000 1164,3001 1170,2990 1164,2991 1158,2992 1158,2982 1167,2981 1167,2975 1161,2974 1156,2968 1150,2968 1122,2970 1124,2964 1130,2959 1138,2953 1145,2947 1154,2946 1167,2943 1174,2935 1168,2931 1160,2931 1154,2926 1145,2923 1139,2925 1133,2927 1127,2925 1121,2924 1113,2923 1109,2917 1115,2915 1124,2910 1131,2907 1129,2900 1130,2894 1130,2888 1134,2882 1146,2872 1138,2857 1143,2851 1136,2848 1130,2843 1136,2840 1134,2830 1135,2821 1127,2812 1125,2804 1126,2797 1127,2789 1137,2778 1127,2768 1108,2755 1101,2751 1093,2752 1087,2750 1087,2743 1084,2737 1078,2737 1070,2725 1070,2712 1073,2705 1074,2699 1077,2692 1077,2685 1072,2673 1078,2671 1086,2671 1093,2670 1098,2664 1095,2651 1088,2646 1083,2640 1071,2630 1074,2623 1072,2617 1068,2606 1060,2599 1056,2605 1049,2603 1042,2605 1035,2605 1029,2602 1022,2589 1019,2583 1019,2574 1013,2568 1008,2559 1000,2554 991,2543 984,2539 971,2534 962,2536 957,2528 960,2516 944,2502 943,2496 938,2487 931,2486 923,2488 916,2484 908,2483 904,2477 897,2474 891,2475 892,2465 887,2458 877,2454 870,2454 862,2459 855,2468 839,2450 832,2454 832,2461 817,2474 810,2476 804,2475 798,2471 791,2470 783,2473 774,2475 762,2469 756,2456 757,2449 760,2441 766,2439 768,2431 769,2422 775,2416 769,2411 763,2412 756,2414 755,2408 749,2407 743,2409 735,2409 728,2407 731,2401 746,2399 754,2399 750,2393 746,2387 739,2383 727,2374 720,2375 712,2378 705,2379 699,2375 681,2350 674,2341 670,2330 673,2314 679,2304 689,2292 693,2285 695,2270 692,2263 684,2253 674,2242 668,2235 658,2223 654,2212 654,2199 658,2191 669,2185 677,2180 688,2170 688,2161 683,2151 675,2140 670,2133 664,2128 639,2116 625,2109 605,2101 595,2096 590,2089 586,2073 577,2067 570,2065 560,2060 553,2049 550,2043 546,2037 542,2030 538,2023 527,2009 505,2002 496,1991 491,1984 485,1972 484,1965 482,1951 482,1940 483,1928 484,1911 486,1894 489,1877 496,1861 511,1844 524,1833 536,1819 551,1805 565,1793 581,1781 595,1771 609,1766 621,1762 629,1762 635,1761 642,1758 651,1753 657,1744 663,1729 666,1716 664,1704 660,1698 651,1689 639,1683 631,1680 624,1676 622,1669 627,1660 629,1650 628,1643 625,1636 616,1626 604,1614 594,1604 584,1596 572,1590 564,1580 564,1564 565,1550 560,1542 549,1526 538,1509 531,1502 518,1491 515,1485 512,1472 502,1452 499,1444 502,1433 508,1422 511,1415 512,1409 508,1402 497,1392 489,1388 477,1385 470,1389 464,1395 456,1405 449,1409 443,1412 430,1415 420,1417 412,1417 399,1414 391,1410 382,1402 377,1396 366,1386 359,1384 348,1388 339,1395 328,1405 317,1411 305,1417 291,1422 280,1424 271,1425 263,1426 246,1427 238,1424 231,1422 223,1420 209,1419 198,1426 192,1430 182,1435 174,1433 167,1429 152,1416 136,1402 122,1390 111,1378 111,1369 109,1361 108,1351 108,1345 104,1332 90,1323 84,1320 78,1318 68,1315 55,1316 53,1322 50,1330 44,1336 38,1340 35,1341 30,1330 27,1324 26,1318 27,1311 32,1297 30,1290 29,1283 29,1275 20,1261 12,1257 5,1251 8,1245 9,1239 8,1228 10,1219 18,1203 20,1196 18,1190 14,1184 8,1176 1,1163 0,1150 1,1143 2,1133 5,1124 11,1115 18,1106 24,1099 30,1090 60,1060 68,1051 82,1040 91,1033 98,1029 106,1025 120,1016 129,1007 140,995 144,985 148,966 153,954 162,945 176,942 188,940 199,938 230,938 239,930 240,919 242,911 244,901 248,886 251,873 258,859 266,846 274,828 281,819 290,809 298,801 307,797 313,799 " class="polyStyle" id="510682" style="fill:#d4ecb2"/>
<polygon points="1269,6 1273,7 1281,9 1291,11 1310,15 1326,14 1333,13 1340,14 1350,16 1362,20 1371,25 1389,33 1406,39 1427,48 1437,51 1446,52 1451,52 1461,49 1466,46 1470,42 1473,37 1477,33 1481,30 1485,29 1492,25 1496,25 1502,26 1523,36 1547,46 1574,59 1590,66 1598,70 1604,78 1601,90 1602,96 1606,104 1605,113 1595,128 1583,138 1577,142 1563,154 1553,167 1546,178 1532,199 1525,215 1519,231 1515,241 1514,250 1519,265 1523,274 1526,293 1529,303 1529,320 1530,327 1532,333 1535,340 1542,348 1546,354 1552,358 1560,364 1578,374 1590,380 1603,389 1615,399 1622,408 1629,416 1633,424 1634,433 1635,441 1643,448 1659,452 1668,453 1676,457 1686,466 1682,473 1676,485 1673,492 1670,499 1674,506 1682,515 1689,520 1698,525 1708,531 1716,537 1722,542 1727,548 1736,555 1742,566 1744,575 1748,583 1750,593 1752,603 1753,614 1752,625 1750,640 1750,657 1751,664 1755,672 1767,679 1776,681 1788,683 1803,689 1810,693 1816,696 1822,702 1826,708 1827,716 1824,728 1820,738 1812,745 1805,754 1798,763 1789,774 1784,784 1786,798 1791,811 1799,820 1802,835 1808,845 1811,852 1812,860 1811,868 1809,875 1806,884 1802,894 1801,900 1812,905 1819,906 1828,907 1834,908 1842,911 1850,914 1861,922 1869,927 1875,931 1882,926 1888,920 1893,913 1897,907 1909,901 1922,895 1929,892 1935,891 1950,891 1959,892 1967,895 1976,898 1982,900 1993,903 2007,909 2015,911 2021,913 2032,918 2041,923 2043,929 2048,935 2052,941 2057,947 2062,954 2066,960 2066,971 2061,987 2065,995 2074,999 2081,1002 2102,1004 2108,1005 2109,1014 2106,1021 2112,1029 2126,1035 2139,1050 2149,1063 2156,1071 2164,1084 2169,1092 2174,1101 2178,1108 2181,1116 2184,1124 2187,1130 2188,1142 2187,1149 2191,1161 2195,1168 2205,1174 2215,1176 2230,1178 2242,1181 2264,1187 2275,1192 2284,1196 2291,1197 2302,1197 2308,1195 2315,1191 2322,1186 2339,1182 2349,1181 2359,1184 2369,1190 2377,1195 2383,1202 2394,1216 2398,1223 2402,1231 2406,1243 2420,1263 2428,1272 2433,1283 2438,1293 2442,1299 2447,1305 2455,1313 2463,1318 2474,1324 2487,1326 2496,1328 2511,1330 2525,1332 2538,1336 2548,1339 2557,1344 2577,1354 2583,1359 2591,1371 2598,1384 2606,1393 2613,1401 2621,1411 2629,1427 2639,1430 2651,1430 2658,1433 2659,1439 2657,1447 2651,1456 2646,1465 2646,1473 2650,1480 2653,1486 2656,1496 2670,1512 2676,1519 2682,1524 2691,1531 2698,1539 2706,1544 2722,1560 2718,1570 2717,1576 2716,1586 2716,1591 2712,1594 2709,1595 2706,1598 2698,1599 2684,1599 2671,1602 2660,1606 2644,1619 2645,1624 2648,1629 2653,1633 2657,1634 2661,1633 2663,1632 2666,1630 2670,1627 2673,1626 2676,1626 2680,1626 2684,1628 2688,1631 2693,1634 2697,1641 2700,1647 2702,1657 2702,1663 2708,1670 2712,1674 2715,1677 2717,1680 2718,1684 2731,1706 2741,1716 2750,1722 2748,1731 2741,1739 2738,1745 2739,1751 2738,1766 2736,1776 2733,1786 2724,1789 2717,1788 2711,1789 2701,1792 2685,1799 2670,1809 2652,1826 2642,1840 2639,1854 2639,1873 2643,1892 2646,1903 2647,1917 2648,1924 2649,1935 2649,1949 2645,1958 2627,1967 2626,1974 2632,1985 2631,1992 2626,1999 2613,2005 2594,2021 2593,2030 2596,2038 2592,2046 2583,2048 2577,2054 2569,2063 2557,2078 2549,2086 2537,2100 2526,2112 2518,2118 2502,2124 2494,2127 2488,2129 2476,2133 2469,2143 2457,2143 2445,2148 2443,2165 2436,2169 2428,2168 2412,2168 2407,2176 2406,2183 2408,2194 2414,2201 2419,2207 2417,2216 2412,2222 2406,2234 2405,2243 2402,2259 2401,2271 2400,2278 2396,2288 2392,2297 2391,2304 2385,2313 2372,2328 2360,2340 2350,2348 2335,2354 2329,2357 2322,2363 2315,2368 2309,2373 2296,2376 2283,2380 2277,2388 2282,2396 2291,2398 2297,2399 2308,2407 2310,2420 2312,2434 2314,2447 2317,2454 2324,2460 2335,2465 2334,2474 2327,2478 2319,2483 2314,2490 2315,2496 2320,2513 2321,2530 2322,2547 2325,2561 2326,2571 2333,2585 2350,2624 2362,2653 2375,2689 2379,2704 2384,2716 2391,2730 2401,2747 2395,2740 2382,2730 2374,2725 2362,2719 2351,2711 2335,2696 2318,2680 2309,2673 2301,2669 2286,2665 2279,2663 2270,2658 2265,2652 2256,2641 2247,2631 2236,2627 2230,2623 2212,2614 2201,2610 2193,2606 2182,2604 2166,2600 2157,2595 2144,2587 2137,2583 2129,2579 2120,2575 2111,2572 2099,2569 2091,2566 2085,2564 2076,2561 2069,2559 2061,2558 2053,2557 2034,2548 2020,2546 2012,2545 2001,2543 1984,2541 1978,2539 1975,2531 1969,2526 1962,2522 1954,2518 1944,2516 1936,2514 1918,2509 1902,2504 1881,2494 1869,2487 1858,2481 1844,2470 1828,2458 1810,2456 1796,2453 1784,2448 1768,2443 1753,2433 1730,2420 1706,2407 1690,2398 1666,2386 1654,2379 1638,2372 1625,2368 1615,2362 1608,2356 1600,2352 1584,2340 1570,2336 1564,2335 1554,2334 1548,2335 1538,2336 1530,2334 1523,2333 1512,2330 1504,2326 1496,2324 1482,2320 1470,2316 1457,2315 1446,2312 1436,2309 1420,2298 1407,2292 1386,2281 1374,2271 1358,2261 1342,2252 1325,2240 1276,2207 1245,2186 1235,2176 1233,2160 1236,2153 1237,2140 1237,2129 1238,2120 1232,2108 1223,2099 1214,2090 1202,2080 1194,2074 1188,2068 1173,2056 1164,2048 1161,2041 1159,2032 1156,2023 1149,2007 1144,1997 1141,1986 1141,1968 1140,1956 1136,1944 1132,1923 1131,1915 1130,1904 1133,1898 1135,1892 1139,1885 1159,1874 1165,1868 1174,1858 1185,1846 1193,1835 1202,1826 1214,1819 1226,1815 1236,1810 1246,1799 1248,1789 1242,1778 1239,1772 1230,1764 1215,1761 1203,1765 1196,1763 1187,1752 1170,1747 1162,1742 1157,1731 1156,1723 1156,1716 1160,1710 1166,1701 1174,1692 1172,1683 1163,1677 1155,1667 1160,1661 1171,1656 1178,1650 1174,1642 1170,1629 1164,1605 1163,1598 1158,1591 1155,1582 1154,1574 1153,1558 1151,1551 1147,1543 1144,1536 1130,1526 1121,1516 1119,1510 1119,1497 1122,1486 1126,1478 1136,1467 1144,1462 1154,1457 1160,1455 1168,1445 1172,1433 1174,1414 1172,1393 1169,1384 1163,1376 1153,1367 1143,1362 1136,1360 1123,1360 1112,1357 1101,1353 1077,1335 1062,1324 1052,1322 1039,1323 1031,1323 1019,1310 1012,1302 1000,1288 1003,1281 1007,1267 1013,1259 1019,1253 1026,1243 1035,1221 1053,1203 1049,1194 1047,1187 1046,1180 1045,1161 1045,1136 1042,1130 1036,1126 1011,1118 1003,1109 1002,1103 1003,1094 1004,1080 1000,1073 991,1066 978,1049 968,1046 959,1048 948,1053 918,1062 908,1058 902,1046 894,1027 888,1017 876,1014 868,1021 864,1033 862,1047 869,1055 866,1061 858,1064 836,1064 827,1059 798,1037 784,1035 770,1035 762,1028 757,1022 750,1021 741,1024 733,1028 726,1026 719,1014 716,1001 719,986 724,975 715,973 703,969 696,950 689,928 683,911 671,895 667,885 666,876 662,864 656,857 644,849 636,840 625,818 632,808 626,803 614,805 604,803 598,799 597,784 598,774 599,771 597,768 591,763 588,759 585,756 583,749 581,740 579,732 578,723 577,713 572,697 569,691 567,685 563,677 561,667 564,655 567,639 568,628 568,616 568,612 577,606 582,599 597,581 605,569 606,559 608,544 613,527 613,521 626,499 633,490 640,474 639,464 635,457 628,449 611,431 618,427 620,420 620,410 618,401 616,388 616,378 623,365 633,357 638,352 648,346 667,331 674,324 674,316 672,310 667,306 663,303 665,293 676,287 688,280 704,272 732,259 745,255 760,247 782,237 794,230 809,220 822,215 838,209 841,204 845,195 856,176 860,168 870,157 890,139 907,128 921,124 928,115 940,101 958,88 970,80 981,77 993,76 1009,76 1016,77 1029,76 1046,81 1053,82 1062,85 1077,92 1089,98 1095,99 1103,99 1117,94 1129,85 1143,70 1164,50 1180,32 1193,20 1201,15 1215,8 1226,4 1239,2 1251,1 1260,0 1263,2 " class="polyStyle" id="510683" style="fill:#fbe6ef"/>
<path d="" class="polyStyle" id="370282" style="fill:#f6f67b"/>
<path d="" class="polyStyle" id="371083" style="fill:#f6f67b"/>
<path d="" class="polyStyle" id="371082" style="fill:#fbe6ef"/>
<path d="" class="polyStyle" id="652801" style="fill:#f8c67d"/>
<path d="" class="polyStyle" id="654301" style="fill:#ee8b94"/>
<path d="" class="polyStyle" id="370687" style="fill:#ee8b94"/>
<path d="" class="polyStyle" id="371482" style="fill:#d4ecb2"/>
<path d="" class="polyStyle" id="421081" style="fill:#fbe6ef"/>
<path d="" class="polyStyle" id="429006" style="fill:#f6f67b"/>
<path d="" class="polyStyle" id="440982" style="fill:#d4ecb2"/>
<path d="" class="polyStyle" id="421181" style="fill:#d4ecb2"/>
<path d="" class="polyStyle" id="321181" style="fill:#d4ecb2"/>
<path d="" class="polyStyle" id="659007" style="fill:#ee8b94"/>
<path d="" class="polyStyle" id="652701" style="fill:#fbe6ef"/>
<path d="" class="polyStyle" id="210781" style="fill:#fbe6ef"/>
<path d="" class="polyStyle" id="460204" style="fill:#f6f67b"/>
<path d="" class="polyStyle" id="210211" style="fill:#f6f67b"/>
<path d="" class="polyStyle" id="450512" style="fill:#ee8b94"/>
<path d="" class="polyStyle" id="450602" style="fill:#fbe6ef"/>
<path d="" class="polyStyle" id="440404" style="fill:#ee8b94"/>
<path d="" class="polyStyle" id="440403" style="fill:#f6f67b"/>
<path d="" class="polyStyle" id="441502" style="fill:#f6f67b"/>
<path d="" class="polyStyle" id="431002" style="fill:#d4ecb2"/>
<path d="" class="polyStyle" id="500107" style="fill:#fbe6ef"/>
<path d="" class="polyStyle" id="430611" style="fill:#d4ecb2"/>
<path d="" class="polyStyle" id="511304" style="fill:#fbe6ef"/>
<path d="" class="polyStyle" id="340711" style="fill:#ee8b94"/>
<polygon points="2771,1726 2781,1727 2789,1729 2795,1731 2797,1738 2799,1744 2804,1760 2808,1766 2814,1770 2820,1774 2828,1790 2832,1799 2838,1810 2840,1816 2841,1822 2843,1828 2848,1836 2852,1842 2863,1853 2870,1857 2881,1861 2892,1864 2899,1867 2906,1870 2915,1873 2925,1877 2932,1878 2941,1881 2948,1883 2956,1885 2969,1887 2977,1886 2983,1885 3029,1885 3038,1884 3048,1887 3059,1895 3067,1901 3076,1909 3081,1915 3088,1923 3091,1930 3088,1936 3088,1951 3089,1958 3088,1964 3091,1971 3098,1972 3105,1969 3112,1964 3118,1964 3125,1969 3132,1975 3138,1981 3146,1990 3152,1993 3161,2000 3167,2005 3164,2012 3164,2026 3171,2033 3179,2033 3185,2030 3191,2033 3195,2039 3200,2049 3204,2056 3211,2060 3221,2066 3227,2074 3226,2080 3224,2087 3228,2103 3230,2116 3233,2126 3229,2132 3230,2139 3237,2155 3241,2167 3247,2175 3254,2174 3260,2172 3267,2170 3274,2167 3278,2174 3273,2180 3270,2188 3272,2198 3277,2204 3283,2208 3294,2222 3298,2236 3302,2243 3312,2244 3320,2243 3326,2243 3332,2246 3338,2250 3344,2254 3351,2257 3355,2263 3367,2269 3372,2263 3379,2262 3387,2261 3395,2260 3400,2267 3405,2288 3410,2300 3415,2313 3420,2328 3433,2337 3437,2343 3445,2349 3453,2354 3461,2356 3469,2353 3481,2342 3490,2342 3496,2338 3502,2338 3512,2335 3518,2340 3524,2347 3533,2349 3540,2347 3546,2346 3553,2352 3558,2358 3564,2362 3584,2372 3590,2374 3594,2381 3584,2389 3588,2395 3595,2398 3601,2394 3612,2388 3619,2388 3633,2410 3635,2416 3631,2422 3629,2428 3628,2435 3627,2441 3625,2449 3625,2455 3631,2464 3635,2470 3642,2475 3648,2475 3654,2467 3659,2461 3666,2458 3680,2454 3688,2457 3694,2457 3700,2459 3707,2459 3719,2469 3732,2469 3741,2461 3747,2453 3746,2447 3739,2437 3737,2430 3751,2419 3758,2416 3765,2416 3771,2420 3785,2413 3792,2414 3796,2420 3797,2430 3799,2436 3803,2442 3813,2445 3817,2452 3818,2458 3826,2459 3832,2459 3839,2461 3846,2466 3859,2482 3865,2490 3872,2496 3875,2488 3877,2482 3883,2486 3886,2487 3895,2492 3901,2496 3910,2495 3918,2489 3926,2486 3932,2484 3938,2485 3949,2491 3956,2499 3956,2508 3953,2521 3947,2532 3938,2540 3925,2551 3911,2561 3895,2574 3879,2584 3848,2596 3826,2597 3819,2596 3812,2597 3805,2602 3798,2608 3797,2618 3804,2634 3806,2640 3798,2639 3789,2635 3790,2643 3796,2648 3804,2650 3816,2650 3822,2651 3822,2658 3828,2668 3819,2672 3808,2672 3802,2673 3796,2677 3788,2684 3775,2685 3766,2687 3760,2689 3746,2699 3741,2710 3743,2716 3750,2723 3757,2726 3763,2728 3777,2728 3791,2723 3800,2719 3812,2720 3819,2725 3824,2736 3827,2743 3833,2758 3832,2767 3823,2776 3818,2782 3808,2789 3791,2799 3789,2807 3797,2814 3816,2813 3823,2813 3832,2816 3839,2821 3849,2828 3868,2834 3879,2837 3885,2846 3893,2860 3895,2870 3890,2877 3890,2885 3896,2897 3886,2900 3881,2909 3875,2912 3869,2906 3856,2911 3852,2917 3851,2926 3848,2943 3843,2957 3840,2965 3837,2972 3830,2981 3822,2986 3808,2988 3796,2988 3788,2986 3782,2982 3772,2979 3766,2975 3757,2968 3751,2967 3743,2971 3735,2978 3724,2984 3708,2981 3698,2981 3692,2980 3674,2974 3650,2962 3644,2961 3636,2968 3632,2974 3630,2980 3624,2991 3619,2998 3622,3016 3626,3026 3626,3047 3624,3056 3622,3073 3623,3089 3626,3103 3627,3112 3633,3117 3638,3123 3638,3132 3625,3149 3610,3167 3585,3199 3583,3205 3580,3211 3571,3233 3550,3289 3546,3304 3540,3316 3538,3325 3538,3336 3532,3344 3526,3350 3515,3356 3509,3358 3502,3359 3495,3358 3488,3354 3481,3350 3472,3344 3461,3337 3446,3322 3436,3313 3430,3310 3419,3307 3405,3310 3389,3316 3380,3312 3374,3312 3362,3313 3350,3316 3340,3320 3332,3324 3322,3331 3309,3338 3298,3342 3290,3345 3283,3336 3270,3330 3260,3328 3250,3325 3242,3324 3235,3330 3229,3332 3222,3334 3211,3338 3196,3343 3187,3348 3181,3351 3176,3358 3172,3366 3164,3365 3157,3362 3150,3360 3139,3362 3126,3364 3112,3370 3105,3375 3098,3382 3096,3398 3093,3406 3081,3409 3074,3400 3073,3390 3070,3375 3066,3364 3058,3346 3053,3329 3050,3320 3039,3307 3034,3294 3023,3290 3015,3291 3002,3291 2996,3287 2990,3278 2976,3274 2968,3273 2963,3288 2956,3293 2949,3293 2939,3289 2930,3282 2921,3284 2914,3278 2906,3279 2900,3278 2907,3270 2913,3266 2910,3258 2900,3255 2881,3250 2873,3242 2870,3235 2867,3229 2860,3226 2853,3233 2844,3235 2830,3234 2821,3234 2795,3221 2787,3216 2783,3209 2784,3199 2785,3191 2794,3182 2797,3176 2796,3170 2790,3149 2783,3141 2775,3137 2761,3131 2748,3124 2742,3119 2738,3110 2737,3104 2735,3092 2729,3084 2722,3080 2704,3070 2686,3061 2682,3055 2680,3049 2674,3041 2667,3034 2660,3028 2643,3009 2639,2986 2635,2979 2628,2973 2617,2966 2592,2952 2576,2939 2572,2932 2581,2914 2574,2903 2568,2898 2558,2894 2543,2892 2529,2892 2512,2900 2503,2900 2495,2897 2491,2890 2488,2883 2488,2876 2491,2867 2493,2858 2494,2852 2488,2843 2475,2828 2467,2817 2463,2810 2456,2804 2448,2801 2442,2800 2435,2797 2429,2794 2423,2787 2419,2774 2413,2763 2406,2753 2401,2747 2391,2730 2384,2716 2379,2704 2375,2689 2362,2653 2350,2624 2333,2585 2326,2571 2325,2561 2322,2547 2321,2530 2320,2513 2315,2496 2314,2490 2319,2483 2327,2478 2334,2474 2335,2465 2324,2460 2317,2454 2314,2447 2312,2434 2310,2420 2308,2407 2297,2399 2291,2398 2282,2396 2277,2388 2283,2380 2296,2376 2309,2373 2315,2368 2322,2363 2329,2357 2335,2354 2350,2348 2360,2340 2372,2328 2385,2313 2391,2304 2392,2297 2396,2288 2400,2278 2401,2271 2402,2259 2405,2243 2406,2234 2412,2222 2417,2216 2419,2207 2414,2201 2408,2194 2406,2183 2407,2176 2412,2168 2428,2168 2436,2169 2443,2165 2445,2148 2457,2143 2469,2143 2476,2133 2488,2129 2494,2127 2502,2124 2518,2118 2526,2112 2537,2100 2549,2086 2557,2078 2569,2063 2577,2054 2583,2048 2592,2046 2596,2038 2593,2030 2594,2021 2613,2005 2626,1999 2631,1992 2632,1985 2626,1974 2627,1967 2645,1958 2649,1949 2649,1935 2648,1924 2647,1917 2646,1903 2643,1892 2639,1873 2639,1854 2642,1840 2652,1826 2670,1809 2685,1799 2701,1792 2711,1789 2717,1788 2724,1789 2733,1786 2736,1776 2738,1766 2739,1751 2738,1745 2741,1739 2748,1731 2750,1722 2764,1723 " class="polyStyle" id="510603" style="fill:#d4ecb2"/>
<path d="" class="polyStyle" id="320118" style="fill:#f6f67b"/>
<path d="" class="polyStyle" id="510704" style="fill:#f6f67b"/>
<path d="" class="polyStyle" id="411502" style="fill:#ee8b94"/>
<path d="" class="polyStyle" id="320302" style="fill:#d4ecb2"/>
<path d="" class="polyStyle" id="140311" style="fill:#ee8b94"/>
<path d="" class="polyStyle" id="610802" style="fill:#ee8b94"/>
<path d="" class="polyStyle" id="120116" style="fill:#f6f67b"/>
<path d="" class="polyStyle" id="130303" style="fill:#fbe6ef"/>
<path d="" class="polyStyle" id="140211" style="fill:#f6f67b"/>
<path d="" class="polyStyle" id="150207" style="fill:#fbe6ef"/>
<path d="" class="polyStyle" id="211403" style="fill:#f6f67b"/>
<path d="" class="polyStyle" id="150802" style="fill:#f8c67d"/>
<path d="" class="polyStyle" id="210112" style="fill:#ee8b94"/>
<path d="" class="polyStyle" id="230406" style="fill:#d4ecb2"/>
<path d="" class="polyStyle" id="110113" style="fill:#fbe6ef"/>
<path d="" class="polyStyle" id="341702" style="fill:#fbe6ef"/>
<path d="" class="polyStyle" id="420303" style="fill:#ee8b94"/>
<path d="" class="polyStyle" id="340702" style="fill:#d4ecb2"/>
<path d="" class="polyStyle" id="421002" style="fill:#f6f67b"/>
<path d="" class="polyStyle" id="420117" style="fill:#f6f67b"/>
<path d="" class="polyStyle" id="440904" style="fill:#f8c67d"/>
<path d="" class="polyStyle" id="460205" style="fill:#ee8b94"/>
<path d="" class="polyStyle" id="460202" style="fill:#f6f67b"/>
<path d="" class="polyStyle" id="460203" style="fill:#fbe6ef"/>
<path d="" class="polyStyle" id="420304" style="fill:#f6f67b"/>
<path d="" class="polyStyle" id="445302" style="fill:#ee8b94"/>
<path d="" class="polyStyle" id="410202" style="fill:#d4ecb2"/>
<path d="" class="polyStyle" id="440800" style="fill:#f6f67b"/>
<path d="" class="polyStyle" id="440900" style="fill:#ee8b94"/>
<path d="" class="polyStyle" id="340800" style="fill:#ee8b94"/>
<path d="" class="polyStyle" id="460200" style="fill:#f6f67b"/>
<path d="" class="polyStyle" id="460000" style="fill:#ee8b94"/>
<path d="" class="polyStyle" id="450500" style="fill:#ee8b94"/>
<path d="" class="polyStyle" id="450600" style="fill:#ee8b94"/>
<path d="" class="polyStyle" id="440400" style="fill:#f6f67b"/>
<path d="" class="polyStyle" id="441700" style="fill:#f6f67b"/>
<path d="" class="polyStyle" id="441500" style="fill:#f6f67b"/>
<path d="" class="polyStyle" id="350600" style="fill:#ee8b94"/>
<path d="" class="polyStyle" id="710000" style="fill:#f6f67b"/>
<path d="" class="polyStyle" id="510400" style="fill:#f6f67b"/>
<path d="" class="polyStyle" id="522600" style="fill:#fbe6ef"/>
<path d="" class="polyStyle" id="520500" style="fill:#ee8b94"/>
<path d="" class="polyStyle" id="431200" style="fill:#f6f67b"/>
<path d="" class="polyStyle" id="430600" style="fill:#f6f67b"/>
<path d="" class="polyStyle" id="511400" style="fill:#d4ecb2"/>
<path d="" class="polyStyle" id="421000" style="fill:#ee8b94"/>
<path d="" class="polyStyle" id="341700" style="fill:#f6f67b"/>
<path d="" class="polyStyle" id="420500" style="fill:#f6f67b"/>
<path d="" class="polyStyle" id="511300" style="fill:#f6f67b"/>
<path d="" class="polyStyle" id="420900" style="fill:#f6f67b"/>
<path d="" class="polyStyle" id="511700" style="fill:#ee8b94"/>
<path d="" class="polyStyle" id="420600" style="fill:#d4ecb2"/>
<path d="" class="polyStyle" id="411500" style="fill:#fbe6ef"/>
<path d="" class="polyStyle" id="510800" style="fill:#ee8b94"/>
<path d="" class="polyStyle" id="420300" style="fill:#fbe6ef"/>
<path d="" class="polyStyle" id="611000" style="fill:#ee8b94"/>
<path d="" class="polyStyle" id="620800" style="fill:#fbe6ef"/>
<path d="" class="polyStyle" id="370200" style="fill:#ee8b94"/>
<path d="" class="polyStyle" id="371000" style="fill:#f6f67b"/>
<path d="" class="polyStyle" id="370600" style="fill:#fbe6ef"/>
<path d="" class="polyStyle" id="120000" style="fill:#f6f67b"/>
<path d="" class="polyStyle" id="130200" style="fill:#ee8b94"/>
<path d="" class="polyStyle" id="130300" style="fill:#f6f67b"/>
<path d="" class="polyStyle" id="652900" style="fill:#fbe6ef"/>
<path d="" class="polyStyle" id="150500" style="fill:#d4ecb2"/>
<path d="" class="polyStyle" id="" style="fill:#d4ecb2"/>
<path d="" class="polyStyle" id="350500" style="fill:#fbe6ef"/>
<path d="" class="polyStyle" id="440400" style="fill:#f6f67b"/>
<path d="" class="polyStyle" id="421100" style="fill:#d4ecb2"/>
<path d="" class="polyStyle" id="420100" style="fill:#fbe6ef"/>
<path d="" class="polyStyle" id="532500" style="fill:#fbe6ef"/>
<path d="" class="polyStyle" id="654200" style="fill:#fbe6ef"/>
<path d="" class="polyStyle" id="210700" style="fill:#d4ecb2"/>
<path d="" class="polyStyle" id="522300" style="fill:#fbe6ef"/>
<path d="" class="polyStyle" id="" style="fill:#ee8b94"/>
<path d="" class="polyStyle" id="440400" style="fill:#f6f67b"/>
<path d="" class="polyStyle" id="620000" style="fill:#f6f67b"/>
<path d="" class="polyStyle" id="430000" style="fill:#fbe6ef"/>
<path d="" class="polyStyle" id="420000" style="fill:#ee8b94"/>
<path d="" class="polyStyle" id="410000" style="fill:#f6f67b"/>
<path d="" class="polyStyle" id="350000" style="fill:#fbe6ef"/>
<path d="" class="polyStyle" id="520000" style="fill:#f6f67b"/>
<path d="" class="polyStyle" id="" style="fill:#ee8b94"/>
</svg>
