<?xml version="1.0" encoding="UTF-8"?>
<!DOCTYPE svg PUBLIC "-//W3C//DTD SVG 1.1 Tiny//EN" "http://www.w3.org/Graphics/SVG/1.1/DTD/svg11-tiny.dtd">
<svg version="1.1" xmlns="http://www.w3.org/2000/svg" xmlns:xlink="http://www.w3.org/1999/xlink" width="100%" height="100%" viewBox="0,0,8276,4798">
<title>SVG</title>
<desc>Poligon Test</desc>
<style id="style_css_sheet" type="text/css">
.polyStyle{fill: #cccccc;stroke-width:0;fill-rule:evenodd;}
</style>
<circle cx="2647" cy="2270" r="200" stroke="black" stroke-width="1" fill="red" id="511423" name="洪雅县"/>
<circle cx="6471" cy="1832" r="200" stroke="black" stroke-width="1" fill="red" id="511421" name="仁寿县"/>
<circle cx="4990" cy="2643" r="200" stroke="black" stroke-width="1" fill="red" id="511425" name="青神县"/>
<circle cx="3326" cy="1722" r="200" stroke="black" stroke-width="1" fill="red" id="511424"position="1444" name="丹棱县"/>
<circle cx="4927" cy="1605" r="200" stroke="black" stroke-width="1" fill="red" id="511402" name="东坡区"/>
<circle cx="5139" cy="829" r="200" stroke="black" stroke-width="1" fill="red" id="511403" name="彭山区"/>
<path d="" class="polyStyle" id="" style="fill:#ee8b94"/>
<path d="" class="polyStyle" id="623022" style="fill:#fbe6ef"/>
<path d="" class="polyStyle" id="211421" style="fill:#f6f67b"/>
<path d="" class="polyStyle" id="532524" style="fill:#ee8b94"/>
<path d="" class="polyStyle" id="440825" style="fill:#f6f67b"/>
<path d="" class="polyStyle" id="441721" style="fill:#f6f67b"/>
<path d="" class="polyStyle" id="450521" style="fill:#f6f67b"/>
<path d="" class="polyStyle" id="450123" style="fill:#fbe6ef"/>
<path d="" class="polyStyle" id="350624" style="fill:#f6f67b"/>
<path d="" class="polyStyle" id="" style="fill:#fbe6ef"/>
<path d="" class="polyStyle" id="451224" style="fill:#fbe6ef"/>
<path d="" class="polyStyle" id="350627" style="fill:#f6f67b"/>
<path d="" class="polyStyle" id="" style="fill:#f6f67b"/>
<path d="" class="polyStyle" id="350525" style="fill:#f6f67b"/>
<path d="" class="polyStyle" id="530124" style="fill:#ee8b94"/>
<path d="" class="polyStyle" id="522627" style="fill:#ee8b94"/>
<path d="" class="polyStyle" id="510421" style="fill:#fbe6ef"/>
<path d="" class="polyStyle" id="522623" style="fill:#d4ecb2"/>
<path d="" class="polyStyle" id="430321" style="fill:#d4ecb2"/>
<path d="" class="polyStyle" id="511129" style="fill:#d4ecb2"/>
<polygon points="4719,2175 4726,2177 4733,2177 4745,2176 4762,2175 4776,2176 4783,2181 4790,2188 4798,2197 4804,2203 4814,2212 4821,2221 4825,2227 4829,2234 4836,2247 4845,2257 4853,2264 4864,2268 4874,2270 4880,2271 4886,2272 4894,2273 4901,2274 4907,2274 4915,2276 4922,2277 4932,2279 4938,2282 4950,2289 4960,2297 4965,2309 4973,2320 4987,2334 4995,2334 5006,2326 5020,2314 5031,2302 5040,2298 5047,2297 5060,2298 5068,2303 5077,2313 5091,2318 5098,2315 5104,2315 5110,2313 5104,2307 5097,2303 5091,2296 5088,2287 5090,2278 5094,2270 5100,2262 5110,2260 5119,2266 5133,2274 5139,2274 5151,2273 5164,2274 5182,2286 5209,2314 5219,2318 5230,2317 5234,2311 5228,2290 5227,2282 5235,2276 5249,2279 5260,2288 5259,2294 5252,2305 5257,2311 5270,2318 5282,2319 5290,2318 5296,2315 5301,2294 5304,2288 5309,2281 5318,2272 5330,2270 5341,2257 5347,2255 5353,2256 5358,2263 5364,2270 5372,2273 5378,2273 5388,2271 5395,2269 5402,2270 5409,2279 5416,2287 5422,2296 5430,2302 5436,2303 5442,2304 5450,2306 5456,2308 5463,2310 5471,2314 5478,2316 5487,2319 5495,2323 5507,2331 5514,2335 5520,2336 5526,2337 5532,2333 5533,2325 5537,2314 5539,2303 5543,2291 5548,2284 5554,2275 5560,2283 5566,2287 5578,2294 5586,2298 5600,2312 5607,2324 5614,2331 5618,2340 5615,2347 5612,2353 5620,2362 5628,2360 5643,2371 5656,2376 5678,2377 5694,2374 5707,2367 5719,2355 5725,2351 5731,2349 5739,2346 5757,2337 5765,2336 5764,2346 5761,2353 5757,2361 5754,2370 5750,2376 5739,2384 5733,2390 5733,2406 5725,2416 5709,2420 5679,2427 5671,2429 5663,2435 5630,2465 5623,2467 5620,2474 5620,2488 5611,2492 5604,2496 5601,2505 5599,2512 5598,2520 5596,2525 5589,2531 5582,2536 5574,2529 5568,2530 5559,2553 5553,2560 5544,2564 5535,2571 5528,2573 5517,2578 5511,2586 5515,2593 5526,2601 5532,2610 5537,2626 5543,2631 5554,2637 5564,2641 5573,2652 5572,2658 5571,2664 5565,2666 5557,2668 5545,2673 5539,2675 5533,2674 5524,2675 5509,2675 5497,2669 5488,2662 5483,2655 5470,2649 5462,2650 5456,2654 5447,2658 5440,2663 5431,2664 5423,2664 5415,2666 5407,2667 5398,2674 5396,2680 5397,2687 5398,2695 5395,2701 5393,2711 5391,2718 5392,2724 5395,2731 5399,2740 5405,2746 5412,2753 5423,2763 5431,2771 5433,2778 5426,2782 5420,2783 5409,2787 5402,2794 5394,2804 5388,2810 5384,2821 5379,2843 5373,2847 5367,2849 5361,2852 5354,2855 5342,2858 5325,2867 5317,2869 5306,2876 5299,2880 5292,2881 5286,2880 5277,2883 5273,2897 5274,2905 5278,2912 5285,2916 5313,2915 5323,2922 5326,2949 5318,2968 5308,2965 5284,2951 5275,2954 5268,2961 5255,2998 5255,3011 5253,3028 5255,3036 5256,3042 5255,3053 5251,3059 5250,3067 5248,3065 5246,3070 5242,3076 5233,3081 5226,3086 5215,3088 5205,3090 5198,3090 5188,3090 5178,3090 5169,3090 5162,3089 5156,3088 5147,3085 5140,3081 5119,3082 5098,3081 5077,3074 5061,3067 5050,3066 5040,3067 5034,3074 5033,3082 5032,3094 5031,3104 5027,3111 5021,3113 5011,3118 4995,3125 4990,3128 4982,3136 4979,3138 4975,3143 4971,3146 4966,3147 4960,3147 4952,3148 4945,3149 4937,3149 4931,3149 4927,3148 4923,3144 4919,3142 4911,3140 4899,3144 4888,3146 4881,3147 4871,3148 4865,3150 4859,3154 4853,3159 4843,3167 4833,3174 4825,3181 4815,3189 4805,3198 4796,3206 4787,3213 4780,3219 4771,3223 4763,3228 4755,3232 4748,3232 4742,3232 4736,3229 4733,3228 4726,3224 4717,3228 4705,3234 4695,3237 4683,3241 4665,3241 4654,3244 4646,3251 4644,3260 4644,3271 4643,3276 4641,3281 4636,3282 4631,3282 4633,3285 4630,3287 4628,3285 4625,3285 4621,3283 4616,3280 4606,3275 4588,3269 4579,3265 4575,3262 4573,3257 4554,3218 4542,3204 4536,3201 4528,3200 4522,3200 4517,3201 4508,3203 4503,3203 4498,3202 4492,3201 4487,3198 4482,3192 4477,3187 4473,3182 4454,3150 4451,3148 4447,3147 4440,3147 4433,3147 4425,3149 4420,3149 4415,3149 4412,3152 4415,3156 4418,3159 4423,3164 4425,3170 4426,3173 4427,3176 4427,3181 4424,3186 4421,3189 4417,3192 4412,3195 4406,3196 4395,3197 4388,3197 4382,3197 4377,3198 4373,3201 4369,3205 4364,3210 4358,3215 4356,3218 4355,3221 4350,3220 4341,3218 4330,3222 4320,3229 4313,3233 4305,3234 4296,3234 4288,3233 4280,3225 4278,3216 4278,3198 4279,3184 4286,3178 4296,3171 4295,3162 4292,3155 4286,3143 4286,3133 4288,3123 4287,3116 4284,3109 4280,3103 4277,3096 4274,3089 4271,3083 4263,3074 4252,3070 4244,3065 4234,3054 4231,3047 4225,3035 4215,3028 4208,3022 4200,3011 4202,3001 4206,2994 4208,2987 4205,2973 4201,2965 4200,2958 4200,2951 4201,2945 4205,2936 4212,2931 4221,2929 4227,2930 4233,2932 4242,2936 4258,2944 4265,2945 4276,2944 4285,2940 4292,2936 4303,2929 4313,2934 4319,2934 4325,2931 4331,2927 4338,2924 4348,2918 4354,2915 4369,2909 4377,2917 4392,2922 4406,2933 4429,2947 4438,2942 4436,2933 4433,2927 4431,2919 4429,2910 4428,2901 4426,2895 4433,2886 4440,2878 4450,2870 4461,2867 4480,2867 4492,2862 4495,2853 4494,2847 4493,2840 4495,2830 4500,2823 4501,2812 4496,2806 4488,2802 4479,2799 4469,2797 4458,2789 4458,2783 4464,2771 4467,2763 4469,2756 4464,2747 4434,2747 4426,2746 4413,2741 4405,2732 4403,2722 4402,2715 4403,2708 4407,2696 4409,2684 4414,2678 4421,2670 4430,2659 4431,2653 4431,2645 4430,2639 4423,2631 4414,2627 4406,2622 4396,2608 4395,2601 4395,2595 4402,2589 4416,2576 4415,2569 4413,2561 4404,2556 4398,2557 4380,2564 4369,2564 4361,2563 4355,2560 4339,2556 4328,2551 4330,2545 4339,2526 4350,2522 4364,2518 4374,2515 4377,2509 4370,2495 4366,2489 4355,2474 4337,2461 4334,2458 4340,2458 4350,2460 4358,2461 4377,2468 4391,2470 4404,2468 4415,2463 4426,2459 4445,2450 4484,2436 4503,2432 4521,2429 4541,2419 4562,2409 4572,2409 4580,2410 4589,2414 4599,2418 4608,2420 4630,2420 4638,2418 4647,2416 4655,2422 4667,2428 4674,2430 4682,2432 4688,2436 4692,2442 4699,2443 4725,2448 4753,2448 4773,2450 4788,2456 4806,2470 4814,2464 4816,2458 4816,2432 4813,2422 4811,2412 4807,2402 4805,2395 4802,2389 4794,2379 4785,2369 4778,2363 4772,2358 4765,2354 4751,2344 4740,2342 4733,2341 4719,2344 4712,2344 4705,2339 4703,2333 4701,2324 4699,2317 4697,2311 4702,2302 4710,2295 4717,2291 4726,2286 4734,2283 4741,2279 4744,2270 4737,2262 4733,2253 4734,2247 4737,2239 4738,2233 4732,2225 4726,2223 4717,2220 4709,2218 4703,2217 4695,2214 4687,2211 4680,2207 4675,2201 4672,2195 4671,2186 4674,2178 4682,2175 4690,2173 4696,2171 4703,2170 4709,2171 " class="polyStyle" id="511425" style="fill:#f6f67b"/>
<path d="M2001,1780 L2001,1792 L2005,1799 L2015,1803 L2043,1810 L2052,1812 L2054,1818 L2049,1825 L2046,1831 L2047,1839 L2051,1847 L2073,1865 L2077,1874 L2068,1885 L2064,1892 L2064,1910 L2071,1921 L2071,1932 L2065,1942 L2065,1954 L2072,1965 L2086,1973 L2103,1978 L2121,1981 L2138,1988 L2158,1997 L2174,2004 L2190,1996 L2195,1984 L2198,1969 L2199,1954 L2205,1937 L2214,1918 L2221,1903 L2225,1889 L2226,1873 L2230,1861 L2236,1852 L2245,1848 L2259,1850 L2276,1852 L2287,1849 L2294,1845 L2292,1839 L2282,1837 L2286,1825 L2288,1819 L2294,1818 L2292,1825 L2290,1831 L2295,1837 L2305,1843 L2311,1844 L2318,1846 L2332,1856 L2347,1865 L2357,1874 L2365,1877 L2372,1878 L2377,1886 L2384,1889 L2388,1896 L2394,1896 L2399,1889 L2405,1887 L2412,1889 L2413,1898 L2412,1904 L2418,1908 L2423,1921 L2426,1928 L2436,1931 L2448,1929 L2456,1925 L2463,1927 L2465,1934 L2468,1940 L2478,1943 L2500,1945 L2507,1947 L2513,1951 L2521,1971 L2529,1981 L2540,1979 L2557,1977 L2564,1978 L2576,1981 L2581,1993 L2580,2012 L2582,2018 L2598,2024 L2618,2027 L2633,2032 L2644,2039 L2668,2050 L2686,2055 L2699,2043 L2703,2036 L2705,2029 L2703,2023 L2692,2016 L2684,2007 L2683,2001 L2689,1995 L2695,1991 L2699,1980 L2710,1970 L2716,1963 L2729,1962 L2736,1964 L2749,1976 L2762,1979 L2769,1978 L2774,1986 L2782,1992 L2786,1998 L2785,2007 L2781,2016 L2784,2025 L2792,2022 L2799,2019 L2806,2022 L2812,2028 L2819,2030 L2829,2027 L2844,2020 L2850,2019 L2857,2022 L2858,2030 L2858,2039 L2854,2045 L2852,2051 L2859,2056 L2866,2059 L2876,2059 L2883,2061 L2882,2069 L2898,2067 L2914,2064 L2943,2064 L2951,2062 L2965,2051 L2972,2050 L2984,2051 L2994,2056 L3002,2063 L3002,2069 L3005,2078 L3009,2092 L3012,2098 L3026,2099 L3035,2099 L3044,2088 L3049,2082 L3047,2075 L3041,2071 L3035,2067 L3027,2065 L3020,2057 L3020,2048 L3022,2042 L3028,2035 L3033,2028 L3042,2025 L3048,2026 L3055,2031 L3054,2041 L3054,2050 L3066,2056 L3079,2056 L3092,2054 L3114,2051 L3126,2054 L3132,2062 L3137,2068 L3145,2073 L3155,2079 L3164,2089 L3170,2101 L3175,2110 L3197,2137 L3208,2149 L3221,2164 L3229,2177 L3233,2185 L3240,2197 L3257,2216 L3264,2222 L3268,2229 L3270,2235 L3272,2246 L3277,2254 L3285,2260 L3292,2264 L3299,2270 L3308,2284 L3316,2292 L3331,2302 L3337,2312 L3333,2318 L3340,2333 L3333,2346 L3325,2355 L3319,2362 L3313,2371 L3313,2378 L3314,2384 L3319,2390 L3335,2395 L3333,2400 L3329,2411 L3330,2420 L3340,2427 L3347,2428 L3358,2428 L3371,2427 L3382,2427 L3391,2433 L3387,2440 L3375,2449 L3369,2451 L3371,2460 L3380,2463 L3392,2466 L3402,2467 L3409,2469 L3415,2470 L3422,2476 L3424,2484 L3426,2493 L3428,2506 L3429,2516 L3430,2526 L3430,2538 L3431,2548 L3432,2556 L3430,2565 L3430,2573 L3429,2581 L3428,2588 L3422,2599 L3415,2603 L3405,2605 L3398,2604 L3391,2601 L3381,2598 L3374,2596 L3367,2593 L3353,2586 L3345,2584 L3338,2584 L3331,2587 L3325,2591 L3319,2597 L3317,2604 L3315,2612 L3311,2621 L3307,2635 L3308,2642 L3303,2651 L3297,2655 L3288,2663 L3284,2670 L3277,2681 L3271,2684 L3267,2682 L3259,2681 L3246,2681 L3229,2685 L3215,2694 L3202,2710 L3194,2722 L3188,2729 L3178,2729 L3150,2715 L3137,2709 L3123,2701 L3104,2697 L3081,2695 L3051,2695 L3037,2697 L2999,2697 L2970,2702 L2959,2705 L2952,2705 L2941,2703 L2930,2700 L2922,2702 L2921,2714 L2921,2739 L2926,2749 L2927,2755 L2923,2764 L2927,2773 L2928,2780 L2926,2791 L2923,2802 L2925,2812 L2927,2825 L2921,2840 L2914,2854 L2911,2864 L2915,2877 L2930,2909 L2947,2925 L2951,2932 L2955,2942 L2955,2949 L2952,2956 L2947,2970 L2940,2987 L2934,2996 L2928,3000 L2914,2999 L2909,2991 L2904,2975 L2904,2969 L2906,2956 L2902,2946 L2893,2940 L2886,2943 L2878,2945 L2871,2943 L2869,2936 L2861,2932 L2854,2935 L2848,2933 L2840,2925 L2842,2918 L2841,2906 L2835,2902 L2829,2905 L2813,2918 L2801,2918 L2800,2909 L2802,2903 L2802,2894 L2799,2888 L2791,2879 L2785,2874 L2776,2864 L2771,2857 L2769,2848 L2772,2839 L2787,2827 L2805,2816 L2801,2807 L2792,2803 L2785,2803 L2770,2802 L2761,2801 L2750,2794 L2739,2776 L2729,2776 L2724,2785 L2720,2791 L2702,2814 L2679,2832 L2662,2840 L2649,2837 L2640,2833 L2632,2829 L2612,2829 L2605,2827 L2599,2821 L2592,2824 L2593,2832 L2586,2832 L2576,2825 L2570,2816 L2560,2808 L2554,2806 L2547,2806 L2537,2807 L2531,2807 L2523,2808 L2513,2808 L2502,2809 L2495,2810 L2487,2811 L2481,2814 L2475,2813 L2469,2815 L2468,2827 L2462,2834 L2454,2836 L2445,2834 L2437,2832 L2426,2832 L2423,2839 L2422,2865 L2418,2877 L2412,2888 L2407,2895 L2400,2901 L2394,2906 L2384,2910 L2370,2915 L2361,2924 L2347,2939 L2337,2949 L2338,2957 L2336,2970 L2336,2985 L2344,2983 L2339,2994 L2326,3010 L2317,3027 L2309,3040 L2340,3061 L2345,3067 L2347,3077 L2344,3087 L2338,3095 L2330,3101 L2318,3106 L2301,3113 L2291,3119 L2285,3125 L2271,3141 L2261,3154 L2257,3165 L2256,3179 L2255,3194 L2254,3211 L2256,3224 L2263,3240 L2280,3272 L2274,3276 L2267,3282 L2255,3294 L2248,3303 L2240,3312 L2237,3323 L2240,3331 L2245,3337 L2252,3344 L2264,3352 L2272,3356 L2280,3361 L2285,3367 L2287,3374 L2287,3381 L2286,3399 L2279,3408 L2282,3418 L2305,3418 L2313,3419 L2319,3416 L2325,3414 L2331,3410 L2339,3405 L2326,3392 L2323,3386 L2323,3380 L2330,3377 L2343,3376 L2353,3370 L2361,3369 L2371,3368 L2389,3362 L2398,3363 L2405,3373 L2400,3380 L2394,3381 L2388,3382 L2381,3383 L2374,3385 L2368,3387 L2370,3393 L2385,3410 L2398,3410 L2405,3411 L2411,3414 L2417,3424 L2420,3433 L2426,3440 L2433,3441 L2444,3439 L2459,3433 L2474,3426 L2487,3417 L2494,3410 L2499,3403 L2506,3376 L2509,3364 L2510,3353 L2505,3343 L2487,3328 L2482,3321 L2481,3314 L2485,3308 L2495,3306 L2503,3305 L2512,3305 L2523,3309 L2531,3314 L2537,3320 L2541,3329 L2537,3336 L2529,3346 L2532,3355 L2543,3367 L2547,3378 L2550,3393 L2557,3399 L2562,3407 L2564,3417 L2570,3425 L2579,3429 L2587,3428 L2608,3418 L2618,3415 L2627,3414 L2633,3417 L2639,3424 L2645,3435 L2649,3454 L2630,3449 L2619,3449 L2609,3451 L2602,3455 L2598,3461 L2599,3469 L2599,3482 L2592,3492 L2576,3496 L2454,3543 L2445,3544 L2440,3555 L2438,3565 L2437,3576 L2441,3585 L2451,3623 L2453,3632 L2447,3638 L2423,3643 L2416,3647 L2411,3655 L2408,3664 L2403,3680 L2399,3689 L2394,3697 L2384,3705 L2369,3706 L2353,3710 L2340,3717 L2333,3727 L2325,3739 L2317,3749 L2304,3753 L2285,3755 L2270,3760 L2263,3765 L2262,3775 L2264,3785 L2263,3792 L2254,3803 L2245,3804 L2231,3805 L2213,3801 L2195,3796 L2174,3791 L2157,3789 L2144,3790 L2130,3798 L2121,3806 L2100,3825 L2108,3837 L2115,3848 L2119,3862 L2122,3877 L2119,3885 L2116,3895 L2117,3910 L2116,3928 L2111,3934 L2103,3937 L2094,3939 L2087,3942 L2080,3944 L2074,3947 L2064,3957 L2057,3971 L2054,3987 L2048,4002 L2043,4014 L2043,4020 L2044,4028 L2048,4034 L2056,4044 L2068,4060 L2074,4071 L2085,4091 L2093,4106 L2100,4118 L2105,4129 L2116,4141 L2115,4147 L2107,4155 L2099,4161 L2092,4168 L2091,4175 L2083,4186 L2081,4195 L2080,4203 L2076,4211 L2071,4218 L2064,4226 L2060,4234 L2058,4240 L2061,4248 L2067,4253 L2078,4256 L2093,4260 L2105,4261 L2117,4261 L2124,4259 L2130,4256 L2136,4254 L2144,4251 L2151,4249 L2159,4252 L2169,4254 L2191,4254 L2206,4256 L2223,4263 L2230,4268 L2227,4276 L2219,4286 L2205,4297 L2190,4307 L2173,4315 L2170,4324 L2164,4336 L2154,4350 L2152,4356 L2150,4366 L2148,4374 L2143,4381 L2135,4384 L2124,4385 L2114,4388 L2103,4395 L2091,4399 L2074,4403 L2056,4406 L2036,4411 L2019,4412 L2013,4408 L2007,4398 L2002,4385 L1996,4381 L1986,4382 L1974,4385 L1966,4386 L1952,4387 L1936,4389 L1926,4388 L1906,4387 L1894,4388 L1882,4385 L1867,4379 L1851,4376 L1836,4374 L1823,4379 L1814,4382 L1805,4379 L1794,4370 L1780,4360 L1766,4356 L1756,4360 L1747,4367 L1744,4379 L1744,4390 L1737,4398 L1726,4409 L1720,4428 L1717,4439 L1713,4451 L1706,4469 L1706,4483 L1708,4495 L1708,4511 L1704,4533 L1704,4579 L1702,4589 L1698,4601 L1690,4613 L1686,4626 L1685,4638 L1685,4656 L1690,4671 L1676,4664 L1650,4647 L1624,4640 L1591,4647 L1547,4654 L1517,4663 L1485,4655 L1445,4624 L1410,4605 L1376,4602 L1349,4612 L1328,4641 L1292,4640 L1260,4649 L1225,4667 L1196,4674 L1165,4664 L1132,4650 L1101,4621 L1071,4606 L1045,4583 L1019,4569 L994,4576 L958,4581 L935,4569 L922,4568 L877,4553 L852,4555 L825,4588 L796,4629 L757,4666 L740,4694 L706,4706 L678,4709 L656,4744 L625,4775 L621,4772 L605,4769 L589,4767 L571,4770 L557,4767 L550,4760 L542,4760 L526,4764 L501,4773 L478,4785 L450,4795 L432,4798 L422,4796 L412,4788 L404,4779 L396,4771 L383,4762 L365,4753 L345,4744 L327,4737 L311,4734 L305,4735 L296,4718 L294,4687 L306,4628 L291,4610 L274,4595 L259,4573 L233,4437 L226,4424 L216,4418 L184,4422 L151,4432 L147,4431 L137,4424 L117,4393 L96,4369 L61,4347 L0,4312 L4,4306 L5,4303 L9,4291 L11,4276 L18,4266 L32,4249 L49,4229 L62,4214 L75,4208 L92,4196 L106,4182 L124,4167 L139,4148 L150,4132 L163,4120 L174,4113 L184,4110 L187,4110 L195,4110 L201,4110 L205,4109 L208,4108 L214,4101 L219,4095 L224,4093 L230,4093 L245,4087 L261,4082 L274,4077 L291,4065 L309,4051 L324,4042 L345,4032 L362,4024 L375,4014 L386,4001 L391,3987 L389,3976 L385,3960 L380,3943 L374,3929 L373,3911 L376,3897 L382,3882 L384,3866 L382,3853 L378,3837 L379,3825 L381,3813 L388,3800 L397,3791 L404,3784 L418,3774 L427,3760 L426,3749 L423,3736 L416,3720 L410,3705 L409,3692 L411,3680 L419,3668 L426,3655 L428,3643 L421,3634 L410,3619 L407,3602 L407,3584 L408,3557 L408,3540 L408,3523 L409,3508 L405,3497 L398,3487 L398,3476 L404,3467 L415,3457 L427,3446 L444,3430 L454,3418 L457,3409 L454,3400 L447,3392 L435,3384 L425,3374 L422,3361 L423,3346 L429,3330 L436,3320 L439,3311 L436,3301 L431,3288 L429,3277 L423,3268 L411,3259 L405,3246 L417,3241 L426,3237 L458,3232 L550,3193 L562,3191 L572,3193 L575,3198 L578,3201 L595,3216 L627,3236 L646,3248 L662,3254 L685,3258 L714,3262 L741,3261 L755,3254 L758,3252 L762,3247 L766,3243 L767,3240 L770,3238 L775,3228 L781,3218 L787,3205 L788,3195 L789,3190 L790,3184 L795,3177 L799,3175 L803,3174 L806,3173 L809,3171 L811,3173 L814,3174 L826,3172 L840,3170 L846,3170 L852,3172 L860,3180 L865,3187 L868,3194 L871,3201 L872,3207 L874,3211 L876,3211 L881,3213 L885,3215 L890,3215 L895,3217 L900,3219 L904,3222 L911,3232 L916,3242 L919,3244 L919,3257 L915,3264 L908,3270 L904,3275 L903,3281 L905,3288 L914,3296 L922,3299 L932,3301 L946,3301 L961,3299 L973,3300 L983,3302 L992,3309 L999,3317 L1000,3320 L1000,3326 L1002,3334 L1006,3336 L1009,3338 L1012,3341 L1013,3343 L1014,3352 L1012,3361 L1012,3367 L1013,3370 L1015,3381 L1006,3394 L1008,3407 L1011,3415 L1022,3425 L1028,3427 L1035,3428 L1043,3426 L1050,3420 L1058,3413 L1064,3409 L1068,3407 L1071,3406 L1100,3394 L1119,3381 L1129,3380 L1132,3380 L1137,3382 L1143,3386 L1149,3391 L1153,3393 L1158,3393 L1169,3391 L1181,3390 L1191,3390 L1197,3388 L1204,3388 L1212,3388 L1219,3386 L1222,3386 L1228,3380 L1233,3373 L1239,3367 L1244,3361 L1247,3360 L1249,3345 L1255,3334 L1262,3333 L1269,3337 L1276,3346 L1280,3353 L1288,3366 L1295,3374 L1305,3378 L1316,3377 L1325,3377 L1336,3384 L1350,3397 L1361,3412 L1374,3421 L1401,3446 L1415,3454 L1437,3463 L1463,3466 L1489,3464 L1505,3456 L1509,3448 L1509,3441 L1493,3418 L1491,3408 L1488,3398 L1485,3396 L1484,3393 L1476,3384 L1468,3377 L1465,3372 L1464,3366 L1465,3358 L1466,3353 L1468,3347 L1472,3342 L1475,3334 L1475,3325 L1471,3320 L1466,3314 L1464,3306 L1465,3298 L1465,3294 L1466,3287 L1499,3256 L1515,3243 L1529,3236 L1530,3230 L1531,3221 L1530,3216 L1528,3212 L1518,3201 L1505,3189 L1500,3181 L1497,3174 L1495,3168 L1491,3162 L1485,3155 L1478,3149 L1505,3142 L1519,3139 L1536,3132 L1547,3122 L1563,3117 L1574,3114 L1574,3106 L1570,3097 L1567,3084 L1571,3076 L1572,3069 L1567,3064 L1556,3058 L1535,3052 L1514,3046 L1502,3042 L1485,3037 L1473,3031 L1473,3026 L1471,3014 L1476,2999 L1488,2991 L1506,2981 L1521,2976 L1538,2969 L1552,2961 L1571,2958 L1585,2951 L1592,2939 L1593,2928 L1592,2915 L1587,2896 L1580,2874 L1572,2854 L1565,2839 L1550,2826 L1540,2815 L1535,2799 L1530,2783 L1523,2767 L1514,2753 L1502,2737 L1488,2721 L1480,2701 L1478,2684 L1473,2663 L1468,2649 L1456,2639 L1448,2628 L1448,2616 L1447,2603 L1441,2582 L1433,2565 L1431,2560 L1426,2548 L1422,2538 L1418,2530 L1406,2515 L1387,2492 L1369,2478 L1350,2466 L1337,2460 L1319,2452 L1302,2440 L1290,2428 L1285,2415 L1288,2404 L1288,2399 L1280,2399 L1269,2401 L1262,2402 L1247,2405 L1237,2407 L1222,2400 L1212,2387 L1201,2369 L1198,2351 L1197,2328 L1204,2317 L1220,2310 L1231,2297 L1247,2286 L1264,2277 L1284,2275 L1297,2267 L1305,2259 L1323,2251 L1343,2242 L1353,2239 L1361,2232 L1364,2232 L1368,2229 L1371,2228 L1373,2227 L1378,2227 L1397,2226 L1417,2225 L1422,2222 L1426,2219 L1426,2211 L1443,2202 L1456,2200 L1470,2201 L1488,2198 L1499,2195 L1512,2192 L1531,2188 L1547,2176 L1558,2155 L1572,2126 L1588,2106 L1621,2074 L1633,2070 L1650,2067 L1680,2070 L1706,2075 L1712,2077 L1716,2086 L1718,2093 L1724,2093 L1733,2092 L1738,2087 L1742,2081 L1744,2072 L1747,2066 L1745,2056 L1742,2050 L1734,2040 L1734,2037 L1734,2032 L1733,2022 L1728,2014 L1721,2005 L1713,1990 L1711,1981 L1712,1975 L1716,1971 L1721,1970 L1725,1970 L1741,1974 L1762,1977 L1781,1977 L1799,1976 L1805,1974 L1820,1968 L1827,1959 L1840,1952 L1846,1950 L1850,1949 L1856,1949 L1877,1951 L1890,1949 L1898,1943 L1903,1934 L1904,1922 L1903,1912 L1901,1904 L1901,1901 L1900,1897 L1902,1895 L1905,1892 L1908,1888 L1911,1883 L1913,1877 L1915,1871 L1918,1865 L1920,1863 L1923,1861 L1927,1856 L1940,1853 L1942,1849 L1941,1845 L1937,1840 L1918,1831 L1902,1825 L1893,1821 L1894,1815 L1894,1811 L1896,1807 L1905,1803 L1908,1801 L1912,1801 L1916,1800 L1932,1799 L1945,1796 L1954,1793 L1958,1791 L1959,1788 L1965,1794 L1973,1797 L1985,1779 L1995,1774 L2001,1780z M3337,2491 L3343,2489 L3339,2496 L3344,2502 L3345,2508 L3345,2514 L3352,2520 L3358,2523 L3364,2527 L3365,2533 L3362,2539 L3356,2542 L3354,2548 L3347,2551 L3341,2553 L3335,2552 L3335,2539 L3323,2533 L3316,2532 L3310,2538 L3309,2532 L3303,2532 L3297,2528 L3293,2521 L3291,2515 L3298,2510 L3305,2509 L3311,2506 L3317,2508 L3323,2506 L3329,2501 L3330,2495 L3337,2491z " class="polyStyle" id="511423" style="fill:#ee8b94"/>
<polygon points="3079,1140 3105,1151 3129,1144 3133,1168 3127,1203 3142,1214 3161,1225 3168,1243 3175,1264 3200,1253 3215,1236 3217,1215 3264,1190 3271,1182 3277,1174 3284,1169 3282,1161 3289,1157 3299,1159 3314,1166 3314,1177 3315,1187 3318,1196 3321,1206 3326,1218 3333,1227 3343,1233 3347,1239 3341,1246 3333,1248 3318,1250 3306,1253 3289,1265 3282,1272 3279,1278 3271,1285 3264,1287 3261,1293 3266,1306 3269,1315 3270,1322 3270,1330 3266,1339 3259,1340 3252,1336 3245,1337 3245,1343 3242,1349 3236,1350 3223,1346 3212,1348 3205,1358 3199,1383 3194,1392 3189,1401 3186,1410 3185,1421 3189,1430 3197,1438 3240,1459 3271,1474 3282,1481 3288,1489 3291,1496 3290,1509 3288,1521 3286,1532 3285,1544 3284,1553 3283,1565 3283,1575 3287,1591 3289,1598 3294,1608 3297,1617 3299,1625 3300,1633 3303,1643 3306,1652 3313,1656 3323,1656 3333,1646 3334,1637 3335,1627 3341,1623 3347,1623 3355,1626 3360,1636 3365,1647 3365,1663 3368,1669 3380,1677 3387,1677 3397,1681 3410,1681 3415,1675 3418,1667 3423,1661 3436,1648 3444,1643 3454,1642 3463,1642 3471,1644 3471,1664 3475,1672 3481,1677 3488,1684 3498,1688 3507,1692 3512,1685 3514,1677 3518,1670 3523,1664 3530,1661 3539,1662 3546,1664 3554,1672 3564,1678 3567,1686 3574,1697 3579,1708 3591,1728 3594,1736 3594,1743 3592,1750 3587,1756 3581,1758 3569,1755 3568,1748 3567,1737 3559,1736 3553,1738 3549,1746 3549,1757 3547,1766 3547,1783 3545,1789 3535,1798 3528,1800 3520,1800 3514,1803 3507,1807 3500,1815 3493,1823 3489,1829 3488,1836 3494,1844 3499,1850 3501,1856 3503,1867 3499,1875 3490,1883 3480,1889 3474,1895 3472,1903 3473,1915 3475,1921 3479,1928 3484,1936 3491,1947 3499,1956 3497,1962 3484,1969 3476,1972 3462,1979 3459,1986 3463,1994 3470,1995 3480,2001 3485,2008 3486,2015 3486,2022 3483,2029 3479,2035 3474,2044 3477,2052 3484,2061 3491,2065 3501,2070 3510,2073 3537,2082 3547,2083 3553,2082 3562,2074 3568,2073 3575,2075 3581,2074 3595,2071 3602,2076 3607,2086 3612,2095 3621,2099 3627,2098 3633,2097 3642,2094 3654,2091 3662,2089 3673,2087 3681,2096 3687,2106 3682,2115 3680,2122 3688,2133 3693,2140 3702,2153 3702,2170 3703,2180 3710,2186 3716,2194 3711,2207 3700,2209 3693,2216 3701,2225 3707,2229 3718,2239 3723,2247 3727,2256 3728,2262 3727,2272 3725,2280 3718,2286 3707,2295 3698,2301 3691,2305 3684,2311 3676,2316 3670,2321 3664,2324 3657,2325 3648,2323 3640,2316 3632,2315 3625,2319 3619,2324 3618,2333 3624,2337 3632,2340 3636,2348 3643,2356 3653,2358 3661,2356 3663,2362 3659,2371 3662,2378 3671,2386 3683,2390 3683,2398 3671,2412 3664,2418 3656,2422 3650,2422 3643,2425 3635,2432 3627,2443 3619,2448 3609,2447 3598,2445 3592,2445 3583,2446 3570,2446 3561,2448 3555,2455 3550,2461 3543,2461 3537,2460 3529,2459 3523,2457 3515,2454 3509,2453 3503,2447 3496,2447 3490,2450 3483,2448 3474,2449 3467,2447 3465,2441 3460,2433 3453,2429 3439,2429 3433,2431 3426,2433 3419,2429 3422,2421 3419,2414 3417,2407 3409,2401 3403,2401 3393,2398 3388,2391 3382,2382 3376,2381 3367,2381 3357,2383 3349,2385 3343,2389 3337,2393 3335,2395 3319,2390 3314,2384 3313,2378 3313,2371 3319,2362 3325,2355 3333,2346 3340,2333 3333,2318 3337,2312 3331,2302 3316,2292 3308,2284 3299,2270 3292,2264 3285,2260 3277,2254 3272,2246 3270,2235 3268,2229 3264,2222 3257,2216 3240,2197 3233,2185 3229,2177 3221,2164 3208,2149 3197,2137 3175,2110 3170,2101 3164,2089 3155,2079 3145,2073 3137,2068 3132,2062 3126,2054 3114,2051 3092,2054 3079,2056 3066,2056 3054,2050 3054,2041 3055,2031 3048,2026 3042,2025 3033,2028 3028,2035 3022,2042 3020,2048 3020,2057 3027,2065 3035,2067 3041,2071 3047,2075 3049,2082 3044,2088 3035,2099 3026,2099 3012,2098 3009,2092 3005,2078 3002,2069 3002,2063 2994,2056 2984,2051 2972,2050 2965,2051 2951,2062 2943,2064 2914,2064 2898,2067 2882,2069 2883,2061 2876,2059 2866,2059 2859,2056 2852,2051 2854,2045 2858,2039 2858,2030 2857,2022 2850,2019 2844,2020 2829,2027 2819,2030 2812,2028 2806,2022 2799,2019 2792,2022 2784,2025 2781,2016 2785,2007 2786,1998 2782,1992 2774,1986 2769,1978 2762,1979 2749,1976 2736,1964 2729,1962 2716,1963 2710,1970 2699,1980 2695,1991 2689,1995 2683,2001 2684,2007 2692,2016 2703,2023 2705,2029 2703,2036 2699,2043 2686,2055 2668,2050 2644,2039 2633,2032 2618,2027 2598,2024 2582,2018 2580,2012 2581,1993 2576,1981 2564,1978 2557,1977 2540,1979 2529,1981 2521,1971 2513,1951 2507,1947 2500,1945 2478,1943 2468,1940 2465,1934 2463,1927 2456,1925 2448,1929 2436,1931 2426,1928 2423,1921 2418,1908 2412,1904 2413,1898 2412,1889 2405,1887 2399,1889 2394,1896 2388,1896 2384,1889 2377,1886 2372,1878 2365,1877 2357,1874 2347,1865 2332,1856 2318,1846 2311,1844 2305,1843 2295,1837 2290,1831 2292,1825 2294,1818 2288,1819 2286,1825 2282,1837 2292,1839 2294,1845 2287,1849 2276,1852 2259,1850 2245,1848 2236,1852 2230,1861 2226,1873 2225,1889 2221,1903 2214,1918 2205,1937 2199,1954 2198,1969 2195,1984 2190,1996 2174,2004 2158,1997 2138,1988 2121,1981 2103,1978 2086,1973 2072,1965 2065,1954 2065,1942 2071,1932 2071,1921 2064,1910 2064,1892 2068,1885 2077,1874 2073,1865 2051,1847 2047,1839 2046,1831 2049,1825 2054,1818 2052,1812 2043,1810 2015,1803 2005,1799 2001,1792 2001,1780 1995,1774 1985,1779 1973,1797 1965,1794 1959,1788 1964,1783 1971,1768 1974,1762 1980,1748 1980,1740 1974,1734 1963,1728 1958,1721 1967,1714 1968,1708 1969,1701 1989,1688 1999,1683 2004,1677 2007,1670 2012,1653 2023,1645 2033,1641 2040,1635 2047,1617 2054,1608 2055,1585 2053,1574 2052,1564 2053,1557 2057,1549 2062,1543 2079,1536 2098,1519 2099,1506 2096,1497 2101,1491 2109,1491 2128,1487 2140,1487 2147,1485 2153,1482 2160,1470 2171,1463 2180,1461 2188,1459 2195,1452 2197,1441 2199,1435 2217,1413 2260,1380 2270,1375 2278,1373 2286,1373 2294,1382 2292,1393 2286,1403 2283,1412 2289,1422 2297,1428 2309,1446 2315,1449 2323,1450 2332,1449 2343,1446 2371,1438 2378,1437 2385,1439 2392,1442 2399,1447 2409,1452 2417,1453 2449,1439 2456,1428 2467,1407 2469,1380 2472,1371 2485,1366 2492,1361 2499,1354 2501,1346 2498,1333 2499,1323 2493,1307 2499,1302 2505,1305 2516,1309 2523,1306 2535,1301 2540,1310 2541,1316 2561,1318 2562,1326 2547,1332 2540,1339 2545,1347 2551,1352 2560,1354 2568,1362 2575,1373 2582,1383 2582,1400 2586,1407 2592,1408 2601,1408 2609,1406 2614,1399 2614,1393 2608,1382 2610,1374 2616,1371 2623,1367 2626,1361 2636,1353 2646,1349 2662,1353 2676,1355 2694,1355 2700,1354 2717,1341 2723,1336 2733,1329 2745,1333 2759,1329 2771,1323 2808,1289 2836,1262 2846,1258 2857,1261 2898,1273 2917,1268 2936,1251 2945,1219 2985,1229 2984,1244 2970,1271 2993,1289 3002,1310 3041,1351 3053,1349 3069,1329 3085,1319 3106,1299 3107,1290 3106,1275 3098,1242 3089,1220 3066,1202 3030,1192 3005,1198 2965,1206 2948,1205 2939,1181 2977,1171 2991,1150 3027,1135 3053,1139 " class="polyStyle" id="511424" style="fill:#d4ecb2"/>
<path d="" class="polyStyle" id="421023" style="fill:#f6f67b"/>
<polygon points="4331,433 4337,436 4340,443 4334,448 4328,447 4326,453 4329,460 4322,467 4316,470 4310,471 4304,474 4298,475 4292,471 4286,475 4280,480 4278,486 4284,489 4287,495 4291,501 4301,506 4307,511 4304,517 4293,522 4288,529 4288,535 4287,541 4289,548 4283,549 4281,556 4274,560 4268,563 4262,563 4256,567 4250,567 4245,573 4239,575 4233,576 4227,577 4221,571 4215,567 4213,561 4210,555 4210,549 4211,543 4217,541 4216,535 4214,528 4206,525 4200,523 4194,523 4196,517 4196,509 4195,495 4189,490 4183,488 4175,487 4168,481 4167,474 4167,465 4168,456 4169,450 4175,444 4181,446 4188,449 4196,455 4206,460 4216,463 4222,458 4223,451 4228,442 4236,439 4243,436 4256,436 4263,442 4247,446 4248,454 4268,459 4276,460 4283,460 4291,458 4303,451 4309,444 4320,424 4323,417 4324,427 " class="polyStyle" id="511422" style="fill:#f6f67b"/>
<polygon points="6729,166 6730,172 6723,187 6718,194 6717,200 6726,207 6740,202 6750,200 6759,204 6763,213 6770,220 6785,221 6796,212 6804,206 6815,200 6824,201 6835,205 6846,210 6856,215 6864,217 6878,219 6889,225 6899,228 6911,231 6918,234 6925,237 6933,246 6935,253 6936,259 6934,267 6927,271 6923,277 6929,290 6932,296 6933,303 6932,312 6930,327 6927,339 6926,356 6927,362 6928,368 6924,383 6918,389 6912,395 6923,412 6934,417 6944,415 6952,418 6953,432 6954,439 6958,447 6969,456 6975,465 6971,474 6959,488 6950,490 6944,490 6935,502 6926,507 6920,512 6912,522 6912,529 6916,538 6923,547 6935,551 6947,554 6955,558 6970,577 6976,584 6984,582 6993,579 7005,580 7016,587 7026,591 7034,595 7046,598 7057,595 7069,593 7079,594 7085,601 7094,615 7102,617 7110,615 7118,614 7125,622 7127,628 7127,634 7124,641 7116,650 7118,661 7118,668 7114,674 7107,681 7105,687 7107,695 7114,705 7119,714 7127,715 7136,712 7145,708 7151,703 7157,701 7163,699 7171,700 7176,708 7183,717 7186,727 7194,731 7204,735 7211,739 7221,748 7227,755 7232,763 7240,764 7258,756 7266,753 7276,755 7282,759 7286,765 7294,775 7299,782 7302,790 7308,798 7319,801 7334,800 7347,796 7361,791 7372,787 7383,784 7395,782 7401,782 7407,787 7410,794 7412,800 7419,803 7425,803 7435,817 7441,820 7452,823 7470,826 7486,828 7512,832 7521,832 7533,837 7542,843 7550,848 7558,853 7569,860 7576,868 7581,874 7586,881 7589,887 7588,896 7582,900 7564,900 7555,898 7539,894 7532,894 7526,897 7526,907 7530,914 7536,922 7544,931 7553,938 7564,944 7572,947 7581,949 7587,949 7596,957 7604,963 7611,968 7621,974 7632,979 7645,981 7662,983 7677,983 7689,996 7698,1022 7699,1038 7706,1073 7708,1080 7707,1087 7708,1094 7711,1102 7713,1108 7709,1121 7702,1128 7699,1134 7701,1143 7712,1153 7720,1164 7729,1172 7740,1178 7750,1181 7763,1180 7777,1180 7785,1178 7794,1177 7801,1176 7810,1180 7810,1187 7812,1195 7814,1204 7821,1211 7830,1218 7836,1225 7846,1245 7846,1251 7845,1257 7847,1263 7850,1271 7857,1278 7852,1286 7843,1292 7832,1296 7833,1303 7839,1311 7847,1319 7860,1331 7872,1340 7888,1349 7898,1355 7908,1357 7918,1356 7926,1354 7936,1349 7935,1343 7932,1336 7932,1328 7939,1322 7941,1313 7940,1307 7945,1299 7954,1299 7963,1302 7971,1305 7977,1306 7984,1306 7993,1304 8000,1300 8008,1299 8018,1304 8022,1310 8019,1321 8029,1329 8037,1333 8045,1339 8053,1349 8052,1355 8055,1367 8061,1370 8075,1370 8086,1371 8101,1369 8107,1365 8113,1362 8123,1355 8136,1359 8144,1363 8151,1369 8154,1381 8154,1389 8150,1400 8143,1405 8137,1407 8135,1416 8141,1418 8154,1417 8160,1418 8166,1419 8169,1432 8163,1437 8159,1444 8150,1453 8143,1457 8135,1460 8123,1463 8109,1465 8102,1466 8096,1467 8092,1473 8094,1486 8098,1496 8099,1502 8102,1509 8108,1515 8132,1533 8141,1541 8148,1549 8154,1553 8157,1559 8157,1567 8150,1570 8143,1569 8135,1568 8129,1565 8105,1556 8098,1556 8091,1555 8078,1555 8069,1556 8063,1558 8055,1563 8051,1570 8047,1580 8042,1586 8038,1598 8039,1607 8040,1613 8043,1619 8049,1623 8055,1625 8064,1625 8073,1623 8084,1621 8090,1620 8100,1621 8094,1639 8079,1639 8072,1642 8064,1656 8058,1663 8053,1671 8048,1678 8046,1685 8046,1693 8053,1703 8061,1706 8064,1714 8058,1723 8049,1729 8041,1756 8041,1774 8036,1791 8032,1802 8019,1811 8020,1817 8026,1818 8033,1823 8039,1832 8046,1832 8054,1830 8062,1825 8073,1818 8081,1818 8095,1822 8101,1825 8110,1829 8117,1831 8126,1837 8137,1846 8145,1853 8153,1859 8146,1870 8139,1874 8133,1876 8130,1883 8128,1891 8124,1899 8118,1906 8112,1914 8110,1920 8106,1926 8099,1935 8089,1943 8084,1950 8082,1958 8081,1964 8077,1971 8071,1981 8070,1992 8070,1998 8069,2008 8062,2015 8058,2023 8058,2034 8060,2045 8066,2050 8075,2046 8080,2040 8092,2035 8099,2040 8095,2049 8092,2058 8101,2063 8110,2063 8116,2065 8126,2067 8133,2068 8141,2070 8152,2074 8159,2080 8166,2091 8167,2097 8166,2107 8161,2114 8150,2116 8143,2115 8131,2115 8125,2118 8123,2129 8131,2137 8140,2145 8147,2149 8154,2155 8162,2163 8168,2174 8173,2184 8177,2193 8185,2194 8192,2194 8202,2198 8205,2205 8205,2212 8207,2219 8207,2225 8208,2237 8204,2248 8200,2254 8197,2264 8203,2275 8211,2280 8221,2281 8227,2282 8237,2284 8249,2290 8259,2299 8267,2307 8274,2315 8272,2326 8268,2335 8264,2342 8254,2351 8240,2357 8233,2362 8236,2373 8235,2381 8233,2387 8231,2400 8235,2409 8236,2415 8240,2427 8246,2433 8252,2436 8263,2437 8270,2439 8269,2448 8262,2457 8255,2462 8248,2464 8242,2466 8236,2468 8224,2467 8218,2470 8210,2477 8205,2483 8200,2491 8193,2502 8186,2512 8182,2520 8175,2529 8174,2538 8171,2545 8170,2552 8169,2558 8168,2565 8166,2572 8165,2579 8161,2588 8156,2597 8154,2603 8151,2609 8150,2616 8149,2623 8149,2639 8150,2647 8151,2653 8157,2664 8166,2671 8169,2677 8169,2684 8168,2690 8168,2698 8163,2706 8159,2714 8158,2723 8155,2731 8148,2739 8144,2746 8152,2753 8164,2759 8170,2763 8179,2768 8192,2769 8200,2763 8206,2762 8212,2760 8216,2754 8225,2751 8233,2749 8240,2749 8250,2751 8259,2755 8269,2762 8275,2770 8276,2777 8260,2789 8250,2800 8244,2810 8243,2820 8242,2823 8239,2830 8230,2836 8219,2840 8212,2851 8206,2858 8200,2862 8190,2868 8184,2870 8174,2866 8164,2866 8158,2874 8150,2880 8138,2883 8130,2881 8123,2880 8117,2878 8108,2876 8102,2881 8099,2887 8091,2904 8083,2916 8078,2922 8072,2929 8062,2943 8054,2959 8050,2968 8047,2976 8044,2985 8040,2992 8038,3000 8037,3007 8037,3027 8039,3033 8040,3039 8040,3048 8041,3055 8043,3062 8040,3069 8029,3080 8018,3085 8012,3089 8005,3093 7991,3100 7978,3109 7978,3117 7977,3127 7974,3133 7956,3133 7946,3134 7937,3130 7922,3126 7916,3125 7910,3127 7902,3130 7889,3130 7880,3129 7870,3131 7858,3136 7852,3140 7844,3143 7832,3139 7823,3132 7817,3130 7811,3130 7798,3124 7795,3118 7787,3108 7785,3101 7781,3091 7777,3084 7772,3075 7766,3068 7759,3061 7753,3060 7745,3061 7727,3070 7718,3076 7712,3079 7705,3081 7694,3086 7685,3091 7678,3097 7671,3100 7661,3100 7648,3099 7639,3104 7635,3111 7628,3122 7625,3128 7618,3130 7611,3123 7603,3118 7594,3117 7585,3120 7582,3129 7574,3127 7567,3119 7558,3115 7550,3116 7543,3122 7541,3132 7535,3141 7529,3143 7520,3144 7513,3145 7510,3152 7506,3163 7497,3170 7488,3174 7482,3175 7475,3180 7458,3180 7451,3186 7441,3191 7440,3198 7442,3208 7445,3219 7452,3224 7460,3228 7468,3235 7474,3239 7480,3243 7488,3248 7501,3255 7506,3263 7510,3269 7511,3278 7510,3284 7509,3294 7502,3301 7495,3305 7487,3309 7479,3312 7468,3315 7450,3315 7443,3313 7433,3309 7423,3302 7418,3295 7412,3289 7407,3283 7401,3272 7391,3265 7380,3256 7372,3254 7364,3253 7358,3255 7353,3261 7349,3271 7347,3278 7338,3285 7328,3289 7322,3296 7322,3308 7316,3318 7298,3327 7295,3334 7292,3346 7287,3356 7278,3363 7274,3370 7270,3376 7268,3387 7268,3396 7262,3403 7256,3405 7250,3408 7245,3415 7243,3427 7243,3433 7240,3442 7234,3446 7226,3450 7218,3461 7215,3471 7208,3477 7202,3475 7194,3472 7185,3464 7180,3470 7185,3477 7188,3485 7189,3492 7188,3501 7179,3510 7170,3520 7167,3526 7166,3532 7165,3545 7164,3552 7160,3560 7154,3562 7144,3567 7140,3575 7138,3582 7143,3594 7137,3603 7130,3615 7126,3625 7119,3632 7112,3637 7105,3640 7097,3641 7089,3640 7082,3635 7074,3631 7067,3627 7058,3626 7050,3628 7041,3629 7033,3632 7025,3635 7016,3636 7009,3632 7006,3625 7005,3620 7008,3621 7015,3617 7018,3609 7008,3608 7000,3608 6993,3609 6981,3606 6975,3602 6969,3599 6963,3594 6960,3586 6962,3579 6969,3576 6976,3575 6988,3571 6981,3560 6974,3558 6964,3557 6957,3557 6945,3556 6936,3553 6930,3550 6933,3541 6944,3538 6950,3534 6958,3525 6956,3515 6943,3514 6936,3513 6939,3507 6932,3504 6922,3504 6916,3500 6912,3490 6911,3484 6911,3478 6913,3469 6920,3461 6926,3455 6925,3445 6920,3437 6912,3429 6900,3422 6893,3422 6878,3425 6867,3432 6859,3436 6849,3435 6842,3436 6841,3443 6842,3451 6845,3458 6846,3468 6839,3475 6826,3470 6817,3470 6802,3471 6793,3473 6782,3474 6776,3474 6772,3466 6777,3456 6778,3446 6777,3434 6768,3429 6758,3427 6754,3420 6755,3414 6755,3403 6747,3397 6745,3390 6748,3377 6755,3371 6759,3363 6769,3355 6775,3349 6772,3339 6760,3333 6750,3336 6743,3343 6737,3361 6726,3366 6711,3370 6695,3371 6689,3368 6689,3357 6692,3343 6695,3326 6701,3302 6705,3294 6709,3285 6714,3276 6714,3270 6707,3264 6703,3258 6697,3256 6691,3255 6681,3258 6675,3260 6667,3260 6661,3252 6658,3244 6649,3238 6641,3235 6630,3234 6619,3229 6612,3227 6605,3227 6599,3228 6592,3227 6582,3226 6572,3223 6561,3221 6545,3222 6534,3224 6526,3228 6523,3237 6522,3267 6513,3269 6503,3270 6493,3261 6485,3255 6478,3253 6463,3253 6457,3254 6451,3255 6440,3253 6439,3246 6436,3238 6430,3231 6413,3225 6395,3219 6388,3216 6376,3202 6371,3196 6367,3184 6364,3173 6363,3167 6360,3160 6352,3149 6342,3136 6333,3135 6323,3134 6317,3133 6311,3128 6302,3126 6294,3120 6298,3112 6299,3101 6300,3094 6290,3090 6280,3087 6270,3083 6264,3080 6254,3078 6247,3081 6238,3088 6226,3095 6219,3094 6213,3091 6204,3085 6199,3073 6197,3062 6195,3056 6191,3048 6186,3042 6179,3037 6170,3038 6163,3031 6161,3024 6154,3016 6146,3009 6135,3000 6129,2991 6126,2981 6126,2961 6123,2949 6115,2946 6106,2941 6100,2939 6094,2930 6088,2925 6079,2919 6070,2914 6067,2908 6069,2898 6076,2889 6084,2886 6092,2885 6109,2885 6121,2880 6126,2874 6129,2862 6128,2855 6128,2848 6133,2835 6140,2824 6145,2816 6152,2808 6156,2801 6160,2795 6165,2789 6171,2786 6185,2783 6192,2782 6198,2773 6199,2765 6199,2750 6201,2744 6201,2735 6195,2729 6185,2728 6172,2728 6162,2735 6156,2739 6149,2739 6138,2732 6136,2724 6137,2715 6137,2706 6138,2694 6136,2684 6132,2677 6124,2671 6116,2667 6098,2660 6090,2658 6078,2658 6062,2660 6055,2661 6047,2662 6041,2661 6033,2660 6026,2659 6018,2653 6009,2646 6000,2649 5993,2655 5986,2655 5977,2650 5977,2639 5978,2628 5981,2618 5988,2614 6000,2613 6009,2606 6015,2599 6020,2590 6024,2583 6028,2577 6036,2572 6040,2563 6041,2557 6043,2551 6043,2545 6044,2536 6045,2524 6045,2517 6043,2508 6039,2499 6028,2493 6019,2489 6013,2481 6015,2474 6016,2468 6012,2461 6005,2462 5994,2467 5989,2474 5988,2481 5978,2485 5970,2486 5949,2472 5945,2466 5943,2460 5932,2459 5930,2452 5922,2446 5912,2442 5901,2436 5888,2439 5881,2448 5873,2453 5864,2454 5857,2456 5846,2458 5840,2458 5834,2456 5823,2452 5816,2449 5806,2447 5795,2446 5785,2448 5776,2453 5771,2459 5763,2472 5757,2481 5754,2488 5753,2494 5744,2504 5737,2508 5732,2515 5726,2522 5717,2525 5709,2526 5702,2528 5691,2535 5685,2539 5678,2547 5668,2553 5659,2552 5643,2544 5635,2536 5628,2530 5619,2526 5609,2524 5598,2520 5599,2512 5601,2505 5604,2496 5611,2492 5620,2488 5620,2474 5623,2467 5630,2465 5663,2435 5671,2429 5679,2427 5709,2420 5725,2416 5733,2406 5733,2390 5739,2384 5750,2376 5754,2370 5757,2361 5761,2353 5764,2346 5765,2336 5757,2337 5739,2346 5731,2349 5725,2351 5719,2355 5707,2367 5694,2374 5678,2377 5656,2376 5643,2371 5628,2360 5620,2362 5612,2353 5615,2347 5618,2340 5614,2331 5607,2324 5600,2312 5586,2298 5578,2294 5566,2287 5560,2283 5554,2275 5554,2260 5552,2249 5547,2242 5538,2226 5547,2219 5559,2204 5573,2191 5577,2184 5577,2173 5571,2168 5560,2164 5552,2158 5551,2147 5550,2141 5549,2135 5544,2125 5538,2114 5536,2108 5535,2101 5534,2093 5534,2054 5531,2046 5523,2030 5516,2018 5511,2008 5509,2001 5506,1984 5509,1977 5511,1971 5511,1962 5501,1958 5494,1959 5478,1961 5465,1959 5458,1956 5451,1954 5442,1949 5434,1944 5427,1939 5419,1936 5412,1934 5406,1932 5385,1932 5376,1930 5370,1926 5366,1919 5362,1911 5360,1904 5361,1893 5363,1884 5371,1891 5378,1893 5385,1890 5385,1884 5387,1876 5393,1867 5400,1865 5409,1867 5409,1874 5411,1881 5420,1886 5426,1887 5450,1887 5458,1891 5475,1887 5491,1880 5502,1876 5516,1881 5530,1901 5541,1907 5550,1907 5562,1904 5568,1895 5577,1881 5578,1874 5574,1866 5567,1859 5556,1850 5556,1844 5560,1836 5568,1832 5575,1829 5584,1826 5593,1824 5594,1815 5592,1806 5599,1800 5606,1801 5612,1803 5618,1808 5625,1805 5610,1784 5606,1777 5605,1771 5608,1762 5614,1753 5619,1746 5626,1740 5629,1734 5630,1728 5626,1719 5619,1708 5624,1698 5630,1693 5636,1687 5643,1681 5649,1675 5656,1672 5655,1665 5650,1658 5643,1651 5641,1644 5639,1636 5638,1627 5637,1620 5634,1612 5631,1606 5629,1600 5626,1592 5628,1586 5634,1580 5638,1574 5646,1567 5655,1560 5661,1553 5667,1544 5669,1535 5672,1526 5686,1480 5692,1467 5695,1450 5699,1439 5702,1428 5702,1408 5701,1400 5700,1394 5697,1387 5692,1377 5683,1370 5677,1365 5670,1358 5664,1350 5659,1341 5661,1332 5667,1322 5669,1315 5668,1304 5667,1297 5663,1290 5656,1281 5647,1278 5640,1272 5621,1259 5616,1250 5613,1243 5613,1237 5617,1229 5620,1222 5626,1216 5631,1209 5638,1200 5646,1191 5650,1183 5652,1175 5652,1168 5650,1161 5647,1153 5643,1144 5638,1133 5635,1126 5629,1117 5618,1104 5610,1091 5623,1093 5631,1095 5637,1090 5641,1080 5647,1080 5659,1082 5665,1077 5668,1049 5667,1041 5670,1028 5670,1017 5663,1011 5657,1007 5654,1000 5655,994 5661,982 5668,965 5666,957 5663,951 5659,945 5649,939 5633,929 5624,922 5624,915 5628,906 5635,885 5639,872 5646,870 5660,869 5674,869 5684,867 5692,863 5699,856 5705,848 5709,840 5712,831 5711,825 5705,819 5698,814 5685,805 5666,801 5637,797 5630,794 5621,791 5612,787 5604,781 5597,776 5592,770 5588,760 5581,751 5574,746 5568,739 5561,732 5580,708 5583,700 5586,693 5593,683 5599,680 5609,670 5604,663 5600,655 5605,649 5612,644 5618,638 5626,625 5632,622 5644,620 5663,614 5664,603 5660,595 5651,585 5636,581 5629,578 5621,573 5614,569 5608,563 5603,557 5596,549 5595,543 5597,536 5602,530 5608,523 5613,515 5610,507 5609,501 5607,494 5610,487 5616,480 5623,475 5633,475 5641,477 5648,472 5654,473 5662,473 5670,469 5682,452 5687,445 5690,436 5690,420 5718,442 5737,469 5763,482 5769,482 5785,491 5806,474 5819,456 5851,443 5885,441 5898,461 5909,476 5937,474 5964,462 5994,451 6015,478 6043,490 6070,474 6084,500 6103,527 6130,527 6156,526 6157,554 6191,553 6218,569 6232,597 6261,609 6288,613 6315,641 6339,668 6368,667 6394,655 6423,638 6453,626 6482,603 6507,579 6509,553 6512,524 6513,498 6524,470 6542,443 6556,414 6585,393 6599,362 6601,334 6627,310 6642,273 6652,242 6650,212 6683,185 6696,159 6717,149 6726,158 " class="polyStyle" id="511421" style="fill:#d4ecb2"/>
<path d="" class="polyStyle" id="511724" style="fill:#f6f67b"/>
<path d="" class="polyStyle" id="420526" style="fill:#fbe6ef"/>
<path d="" class="polyStyle" id="511923" style="fill:#fbe6ef"/>
<path d="" class="polyStyle" id="420325" style="fill:#fbe6ef"/>
<path d="" class="polyStyle" id="511921" style="fill:#f6f67b"/>
<path d="" class="polyStyle" id="542525" style="fill:#f6f67b"/>
<path d="" class="polyStyle" id="611026" style="fill:#ee8b94"/>
<path d="" class="polyStyle" id="411023" style="fill:#fbe6ef"/>
<path d="" class="polyStyle" id="632323" style="fill:#f6f67b"/>
<path d="" class="polyStyle" id="140525" style="fill:#d4ecb2"/>
<path d="" class="polyStyle" id="410922" style="fill:#ee8b94"/>
<path d="" class="polyStyle" id="621027" style="fill:#ee8b94"/>
<path d="" class="polyStyle" id="130427" style="fill:#f6f67b"/>
<path d="" class="polyStyle" id="130121" style="fill:#ee8b94"/>
<path d="" class="polyStyle" id="610823" style="fill:#fbe6ef"/>
<path d="" class="polyStyle" id="130225" style="fill:#fbe6ef"/>
<path d="" class="polyStyle" id="130322" style="fill:#d4ecb2"/>
<path d="" class="polyStyle" id="653130" style="fill:#f6f67b"/>
<path d="" class="polyStyle" id="130822" style="fill:#fbe6ef"/>
<path d="" class="polyStyle" id="211221" style="fill:#f6f67b"/>
<path d="" class="polyStyle" id="210921" style="fill:#f6f67b"/>
<path d="" class="polyStyle" id="150223" style="fill:#f8c67d"/>
<path d="" class="polyStyle" id="220422" style="fill:#d4ecb2"/>
<path d="" class="polyStyle" id="340721" style="fill:#f6f67b"/>
<path d="" class="polyStyle" id="510824" style="fill:#d4ecb2"/>
<path d="" class="polyStyle" id="610324" style="fill:#f6f67b"/>
<path d="" class="polyStyle" id="530722" style="fill:#ee8b94"/>
<path d="" class="polyStyle" id="340823" style="fill:#d4ecb2"/>
<path d="" class="polyStyle" id="620825" style="fill:#d4ecb2"/>
<path d="" class="polyStyle" id="421125" style="fill:#ee8b94"/>
<path d="" class="polyStyle" id="210281" style="fill:#ee8b94"/>
<path d="" class="polyStyle" id="440883" style="fill:#f6f67b"/>
<path d="" class="polyStyle" id="469006" style="fill:#d4ecb2"/>
<path d="" class="polyStyle" id="469002" style="fill:#ee8b94"/>
<path d="" class="polyStyle" id="469005" style="fill:#fbe6ef"/>
<path d="" class="polyStyle" id="440882" style="fill:#ee8b94"/>
<path d="" class="polyStyle" id="450681" style="fill:#ee8b94"/>
<path d="" class="polyStyle" id="441581" style="fill:#d4ecb2"/>
<path d="" class="polyStyle" id="421087" style="fill:#ee8b94"/>
<path d="" class="polyStyle" id="420984" style="fill:#fbe6ef"/>
<path d="" class="polyStyle" id="420582" style="fill:#ee8b94"/>
<path d="" class="polyStyle" id="370282" style="fill:#f6f67b"/>
<path d="" class="polyStyle" id="371083" style="fill:#f6f67b"/>
<path d="" class="polyStyle" id="371082" style="fill:#fbe6ef"/>
<path d="" class="polyStyle" id="652801" style="fill:#f8c67d"/>
<path d="" class="polyStyle" id="654301" style="fill:#ee8b94"/>
<path d="" class="polyStyle" id="370687" style="fill:#ee8b94"/>
<path d="" class="polyStyle" id="371482" style="fill:#d4ecb2"/>
<path d="" class="polyStyle" id="421081" style="fill:#fbe6ef"/>
<path d="" class="polyStyle" id="429006" style="fill:#f6f67b"/>
<path d="" class="polyStyle" id="440982" style="fill:#d4ecb2"/>
<path d="" class="polyStyle" id="421181" style="fill:#d4ecb2"/>
<path d="" class="polyStyle" id="321181" style="fill:#d4ecb2"/>
<path d="" class="polyStyle" id="659007" style="fill:#ee8b94"/>
<path d="" class="polyStyle" id="652701" style="fill:#fbe6ef"/>
<path d="" class="polyStyle" id="210781" style="fill:#fbe6ef"/>
<path d="" class="polyStyle" id="460204" style="fill:#f6f67b"/>
<path d="" class="polyStyle" id="210211" style="fill:#f6f67b"/>
<path d="" class="polyStyle" id="450512" style="fill:#ee8b94"/>
<path d="" class="polyStyle" id="450602" style="fill:#fbe6ef"/>
<path d="" class="polyStyle" id="440404" style="fill:#ee8b94"/>
<path d="" class="polyStyle" id="440403" style="fill:#f6f67b"/>
<path d="" class="polyStyle" id="441502" style="fill:#f6f67b"/>
<path d="" class="polyStyle" id="431002" style="fill:#d4ecb2"/>
<path d="" class="polyStyle" id="500107" style="fill:#fbe6ef"/>
<path d="" class="polyStyle" id="430611" style="fill:#d4ecb2"/>
<polygon points="4363,410 4371,419 4380,433 4387,447 4395,468 4402,478 4405,486 4407,498 4400,508 4395,515 4391,524 4388,532 4398,538 4409,541 4422,542 4422,549 4407,550 4396,551 4388,553 4376,552 4368,550 4359,550 4355,560 4356,573 4361,587 4368,598 4371,607 4372,614 4370,622 4362,625 4355,630 4349,636 4349,642 4355,652 4352,660 4347,667 4344,676 4343,684 4345,695 4348,704 4348,713 4349,725 4350,736 4352,747 4354,756 4359,768 4366,780 4374,791 4379,799 4385,809 4389,815 4403,824 4420,832 4442,843 4450,848 4461,853 4474,854 4486,853 4495,853 4502,854 4515,856 4526,862 4538,869 4547,875 4559,883 4569,887 4575,891 4582,892 4592,888 4599,883 4604,871 4617,865 4629,866 4640,866 4648,867 4657,869 4663,874 4668,881 4673,887 4682,894 4692,899 4708,900 4730,906 4743,908 4752,910 4762,913 4775,915 4787,915 4799,911 4812,909 4821,908 4831,910 4840,910 4850,913 4858,918 4864,925 4869,934 4878,942 4894,950 4909,958 4925,962 4942,969 4958,970 4968,971 4976,972 4986,974 4995,976 5004,981 5012,986 5024,1002 5031,1009 5046,1015 5064,1018 5091,1020 5097,1019 5098,991 5106,983 5119,982 5167,983 5173,987 5171,993 5153,1020 5148,1030 5147,1133 5156,1139 5161,1157 5168,1164 5174,1164 5184,1166 5190,1174 5198,1179 5205,1178 5213,1177 5235,1182 5241,1181 5246,1170 5250,1160 5240,1156 5237,1149 5254,1139 5261,1132 5264,1124 5264,1118 5256,1108 5255,1102 5258,1094 5270,1085 5275,1078 5278,1067 5280,1054 5282,1043 5285,1030 5287,1013 5293,1013 5301,1015 5307,1018 5316,1025 5327,1030 5337,1034 5348,1037 5355,1040 5362,1041 5375,1049 5382,1051 5391,1057 5398,1060 5404,1062 5412,1068 5421,1075 5427,1077 5435,1077 5441,1076 5449,1073 5456,1070 5462,1067 5468,1066 5474,1063 5481,1058 5490,1055 5496,1056 5505,1065 5516,1071 5522,1074 5533,1081 5537,1092 5530,1103 5520,1109 5513,1119 5512,1125 5513,1132 5515,1140 5518,1147 5523,1157 5538,1161 5545,1161 5555,1160 5561,1160 5569,1157 5579,1148 5580,1140 5577,1133 5569,1122 5568,1113 5569,1104 5579,1097 5589,1094 5599,1091 5610,1091 5618,1104 5629,1117 5635,1126 5638,1133 5643,1144 5647,1153 5650,1161 5652,1168 5652,1175 5650,1183 5646,1191 5638,1200 5631,1209 5626,1216 5620,1222 5617,1229 5613,1237 5613,1243 5616,1250 5621,1259 5640,1272 5647,1278 5656,1281 5663,1290 5667,1297 5668,1304 5669,1315 5667,1322 5661,1332 5659,1341 5664,1350 5670,1358 5677,1365 5683,1370 5692,1377 5697,1387 5700,1394 5701,1400 5702,1408 5702,1428 5699,1439 5695,1450 5692,1467 5686,1480 5672,1526 5669,1535 5667,1544 5661,1553 5655,1560 5646,1567 5638,1574 5634,1580 5628,1586 5626,1592 5629,1600 5631,1606 5634,1612 5637,1620 5638,1627 5639,1636 5641,1644 5643,1651 5650,1658 5655,1665 5656,1672 5649,1675 5643,1681 5636,1687 5630,1693 5624,1698 5619,1708 5626,1719 5630,1728 5629,1734 5626,1740 5619,1746 5614,1753 5608,1762 5605,1771 5606,1777 5610,1784 5625,1805 5618,1808 5612,1803 5606,1801 5599,1800 5592,1806 5594,1815 5593,1824 5584,1826 5575,1829 5568,1832 5560,1836 5556,1844 5556,1850 5567,1859 5574,1866 5578,1874 5577,1881 5568,1895 5562,1904 5550,1907 5541,1907 5530,1901 5516,1881 5502,1876 5491,1880 5475,1887 5458,1891 5450,1887 5426,1887 5420,1886 5411,1881 5409,1874 5409,1867 5400,1865 5393,1867 5387,1876 5385,1884 5385,1890 5378,1893 5371,1891 5363,1884 5361,1893 5360,1904 5362,1911 5366,1919 5370,1926 5376,1930 5385,1932 5406,1932 5412,1934 5419,1936 5427,1939 5434,1944 5442,1949 5451,1954 5458,1956 5465,1959 5478,1961 5494,1959 5501,1958 5511,1962 5511,1971 5509,1977 5506,1984 5509,2001 5511,2008 5516,2018 5523,2030 5531,2046 5534,2054 5534,2093 5535,2101 5536,2108 5538,2114 5544,2125 5549,2135 5550,2141 5551,2147 5552,2158 5560,2164 5571,2168 5577,2173 5577,2184 5573,2191 5559,2204 5547,2219 5538,2226 5547,2242 5552,2249 5554,2260 5554,2275 5548,2284 5543,2291 5539,2303 5537,2314 5533,2325 5532,2333 5526,2337 5520,2336 5514,2335 5507,2331 5495,2323 5487,2319 5478,2316 5471,2314 5463,2310 5456,2308 5450,2306 5442,2304 5436,2303 5430,2302 5422,2296 5416,2287 5409,2279 5402,2270 5395,2269 5388,2271 5378,2273 5372,2273 5364,2270 5358,2263 5353,2256 5347,2255 5341,2257 5330,2270 5318,2272 5309,2281 5304,2288 5301,2294 5296,2315 5290,2318 5282,2319 5270,2318 5257,2311 5252,2305 5259,2294 5260,2288 5249,2279 5235,2276 5227,2282 5228,2290 5234,2311 5230,2317 5219,2318 5209,2314 5182,2286 5164,2274 5151,2273 5139,2274 5133,2274 5119,2266 5110,2260 5100,2262 5094,2270 5090,2278 5088,2287 5091,2296 5097,2303 5104,2307 5110,2313 5104,2315 5098,2315 5091,2318 5077,2313 5068,2303 5060,2298 5047,2297 5040,2298 5031,2302 5020,2314 5006,2326 4995,2334 4987,2334 4973,2320 4965,2309 4960,2297 4950,2289 4938,2282 4932,2279 4922,2277 4915,2276 4907,2274 4901,2274 4894,2273 4886,2272 4880,2271 4874,2270 4864,2268 4853,2264 4845,2257 4836,2247 4829,2234 4825,2227 4821,2221 4814,2212 4804,2203 4798,2197 4790,2188 4783,2181 4776,2176 4762,2175 4745,2176 4733,2177 4726,2177 4719,2175 4709,2171 4703,2170 4696,2171 4690,2173 4682,2175 4674,2178 4671,2186 4672,2195 4675,2201 4680,2207 4687,2211 4695,2214 4703,2217 4709,2218 4717,2220 4726,2223 4732,2225 4738,2233 4737,2239 4734,2247 4733,2253 4737,2262 4744,2270 4741,2279 4734,2283 4726,2286 4717,2291 4710,2295 4702,2302 4697,2311 4699,2317 4701,2324 4703,2333 4705,2339 4712,2344 4719,2344 4733,2341 4740,2342 4751,2344 4765,2354 4772,2358 4778,2363 4785,2369 4794,2379 4802,2389 4805,2395 4807,2402 4811,2412 4813,2422 4816,2432 4816,2458 4814,2464 4806,2470 4788,2456 4773,2450 4753,2448 4725,2448 4699,2443 4692,2442 4688,2436 4682,2432 4674,2430 4667,2428 4655,2422 4647,2416 4638,2418 4630,2420 4608,2420 4599,2418 4589,2414 4580,2410 4572,2409 4562,2409 4541,2419 4521,2429 4503,2432 4484,2436 4445,2450 4426,2459 4415,2463 4404,2468 4391,2470 4377,2468 4358,2461 4350,2460 4340,2458 4334,2458 4329,2452 4319,2449 4314,2443 4308,2442 4302,2438 4304,2432 4307,2424 4314,2418 4314,2408 4308,2403 4297,2398 4286,2399 4256,2393 4247,2393 4242,2386 4237,2373 4235,2367 4237,2361 4242,2354 4239,2347 4233,2343 4219,2342 4213,2339 4209,2332 4214,2324 4225,2313 4218,2306 4211,2308 4201,2312 4193,2315 4182,2316 4168,2310 4165,2301 4170,2292 4163,2287 4148,2285 4140,2277 4144,2271 4149,2265 4152,2255 4153,2247 4150,2240 4152,2229 4153,2214 4149,2204 4140,2200 4133,2198 4125,2197 4117,2196 4102,2192 4092,2186 4085,2180 4078,2176 4070,2172 4061,2170 4051,2168 4040,2165 4032,2163 4023,2160 4012,2159 4000,2161 4002,2168 4005,2174 4009,2187 4005,2194 3999,2197 3992,2199 3984,2203 3978,2208 3970,2212 3964,2213 3957,2213 3950,2212 3940,2214 3928,2216 3916,2217 3908,2218 3892,2210 3880,2208 3868,2211 3860,2215 3854,2219 3848,2224 3841,2229 3835,2233 3823,2241 3823,2248 3822,2254 3814,2256 3795,2253 3783,2249 3774,2245 3766,2239 3766,2232 3757,2225 3748,2221 3739,2218 3729,2215 3719,2210 3711,2207 3716,2194 3710,2186 3703,2180 3702,2170 3702,2153 3693,2140 3688,2133 3680,2122 3682,2115 3687,2106 3681,2096 3673,2087 3662,2089 3654,2091 3642,2094 3633,2097 3627,2098 3621,2099 3612,2095 3607,2086 3602,2076 3595,2071 3581,2074 3575,2075 3568,2073 3562,2074 3553,2082 3547,2083 3537,2082 3510,2073 3501,2070 3491,2065 3484,2061 3477,2052 3474,2044 3479,2035 3483,2029 3486,2022 3486,2015 3485,2008 3480,2001 3470,1995 3463,1994 3459,1986 3462,1979 3476,1972 3484,1969 3497,1962 3499,1956 3491,1947 3484,1936 3479,1928 3475,1921 3473,1915 3472,1903 3474,1895 3480,1889 3490,1883 3499,1875 3503,1867 3501,1856 3499,1850 3494,1844 3488,1836 3489,1829 3493,1823 3500,1815 3507,1807 3514,1803 3520,1800 3528,1800 3535,1798 3545,1789 3547,1783 3547,1766 3549,1757 3549,1746 3553,1738 3559,1736 3567,1737 3568,1748 3569,1755 3581,1758 3587,1756 3592,1750 3594,1743 3594,1736 3591,1728 3579,1708 3574,1697 3567,1686 3564,1678 3554,1672 3546,1664 3539,1662 3530,1661 3523,1664 3518,1670 3514,1677 3512,1685 3507,1692 3498,1688 3488,1684 3481,1677 3475,1672 3471,1664 3471,1644 3463,1642 3454,1642 3444,1643 3436,1648 3423,1661 3418,1667 3415,1675 3410,1681 3397,1681 3387,1677 3380,1677 3368,1669 3365,1663 3365,1647 3360,1636 3355,1626 3347,1623 3341,1623 3335,1627 3334,1637 3333,1646 3323,1656 3313,1656 3306,1652 3303,1643 3300,1633 3299,1625 3297,1617 3294,1608 3289,1598 3287,1591 3283,1575 3283,1565 3284,1553 3285,1544 3286,1532 3288,1521 3290,1509 3291,1496 3288,1489 3282,1481 3271,1474 3240,1459 3197,1438 3189,1430 3185,1421 3186,1410 3189,1401 3194,1392 3199,1383 3205,1358 3212,1348 3223,1346 3236,1350 3242,1349 3245,1343 3245,1337 3252,1336 3259,1340 3266,1339 3270,1330 3270,1322 3269,1315 3266,1306 3261,1293 3264,1287 3271,1285 3279,1278 3282,1272 3289,1265 3306,1253 3318,1250 3333,1248 3341,1246 3347,1239 3343,1233 3333,1227 3326,1218 3321,1206 3318,1196 3315,1187 3314,1177 3314,1166 3321,1162 3326,1154 3329,1140 3328,1129 3330,1122 3333,1114 3339,1108 3349,1104 3361,1099 3381,1093 3396,1087 3410,1079 3427,1070 3433,1067 3447,1055 3454,1047 3464,1036 3475,1029 3482,1025 3485,1019 3485,995 3483,987 3480,981 3476,974 3468,965 3450,935 3449,928 3435,909 3433,902 3439,899 3450,901 3462,916 3468,914 3478,902 3495,881 3506,872 3521,870 3540,870 3574,871 3585,875 3596,875 3602,869 3603,863 3602,857 3599,850 3606,841 3613,842 3620,837 3622,828 3636,810 3643,809 3649,813 3657,821 3669,825 3681,825 3690,822 3697,816 3704,805 3714,803 3726,799 3734,792 3740,786 3746,784 3755,783 3770,785 3783,789 3794,792 3812,792 3819,794 3818,804 3813,810 3803,820 3802,826 3805,836 3812,836 3822,837 3830,834 3840,832 3846,828 3850,821 3856,811 3865,793 3867,785 3872,777 3878,774 3885,770 3880,762 3877,755 3883,748 3885,740 3894,730 3900,728 3911,730 3919,737 3923,744 3921,752 3924,760 3930,769 3938,771 3950,773 3960,774 3966,776 3974,781 4008,804 4016,805 4022,804 4026,798 4027,790 4026,782 4027,774 4027,768 4026,762 4022,755 4017,749 4015,743 4010,734 4011,728 4014,722 4017,711 4012,703 3992,698 3986,692 3981,686 3981,674 3984,667 3991,661 3999,653 4008,640 4012,634 4020,627 4031,623 4041,621 4054,619 4066,618 4080,617 4096,614 4103,614 4119,617 4129,617 4138,614 4141,605 4156,573 4164,567 4169,560 4176,541 4177,531 4188,527 4194,523 4200,523 4206,525 4214,528 4216,535 4217,541 4211,543 4210,549 4210,555 4213,561 4215,567 4221,571 4227,577 4233,576 4239,575 4245,573 4250,567 4256,567 4262,563 4268,563 4274,560 4281,556 4283,549 4289,548 4287,541 4288,535 4288,529 4293,522 4304,517 4307,511 4301,506 4291,501 4287,495 4284,489 4278,486 4280,480 4286,475 4292,471 4298,475 4304,474 4310,471 4316,470 4322,467 4329,460 4326,453 4328,447 4334,448 4340,443 4337,436 4331,433 4324,427 4323,417 4345,404 4354,405 " class="polyStyle" id="511402" style="fill:#ee8b94"/>
<path d="" class="polyStyle" id="511304" style="fill:#fbe6ef"/>
<path d="" class="polyStyle" id="340711" style="fill:#ee8b94"/>
<path d="" class="polyStyle" id="320118" style="fill:#f6f67b"/>
<path d="" class="polyStyle" id="510704" style="fill:#f6f67b"/>
<path d="" class="polyStyle" id="411502" style="fill:#ee8b94"/>
<path d="" class="polyStyle" id="320302" style="fill:#d4ecb2"/>
<path d="" class="polyStyle" id="140311" style="fill:#ee8b94"/>
<path d="" class="polyStyle" id="610802" style="fill:#ee8b94"/>
<path d="" class="polyStyle" id="120116" style="fill:#f6f67b"/>
<path d="" class="polyStyle" id="130303" style="fill:#fbe6ef"/>
<path d="" class="polyStyle" id="140211" style="fill:#f6f67b"/>
<path d="" class="polyStyle" id="150207" style="fill:#fbe6ef"/>
<path d="" class="polyStyle" id="211403" style="fill:#f6f67b"/>
<path d="" class="polyStyle" id="150802" style="fill:#f8c67d"/>
<path d="" class="polyStyle" id="210112" style="fill:#ee8b94"/>
<path d="" class="polyStyle" id="230406" style="fill:#d4ecb2"/>
<path d="" class="polyStyle" id="110113" style="fill:#fbe6ef"/>
<path d="" class="polyStyle" id="341702" style="fill:#fbe6ef"/>
<path d="" class="polyStyle" id="420303" style="fill:#ee8b94"/>
<path d="" class="polyStyle" id="340702" style="fill:#d4ecb2"/>
<path d="" class="polyStyle" id="421002" style="fill:#f6f67b"/>
<path d="" class="polyStyle" id="420117" style="fill:#f6f67b"/>
<path d="" class="polyStyle" id="440904" style="fill:#f8c67d"/>
<path d="" class="polyStyle" id="460205" style="fill:#ee8b94"/>
<path d="" class="polyStyle" id="460202" style="fill:#f6f67b"/>
<path d="" class="polyStyle" id="460203" style="fill:#fbe6ef"/>
<path d="" class="polyStyle" id="420304" style="fill:#f6f67b"/>
<path d="" class="polyStyle" id="445302" style="fill:#ee8b94"/>
<path d="" class="polyStyle" id="410202" style="fill:#d4ecb2"/>
<polygon points="5419,4 5429,7 5445,11 5453,9 5467,11 5471,18 5455,32 5448,38 5439,43 5435,54 5434,62 5437,71 5446,84 5452,94 5458,102 5463,111 5468,117 5471,124 5473,132 5475,139 5481,145 5487,151 5497,160 5510,170 5518,176 5523,182 5530,189 5536,192 5545,196 5555,198 5566,199 5574,203 5582,210 5588,218 5592,227 5597,236 5600,243 5606,250 5614,257 5621,262 5629,265 5638,274 5641,284 5636,307 5633,318 5631,328 5630,337 5632,348 5637,357 5646,368 5656,375 5665,381 5671,385 5677,390 5682,397 5685,405 5686,412 5690,420 5690,436 5687,445 5682,452 5670,469 5662,473 5654,473 5648,472 5641,477 5633,475 5623,475 5616,480 5610,487 5607,494 5609,501 5610,507 5613,515 5608,523 5602,530 5597,536 5595,543 5596,549 5603,557 5608,563 5614,569 5621,573 5629,578 5636,581 5651,585 5660,595 5664,603 5663,614 5644,620 5632,622 5626,625 5618,638 5612,644 5605,649 5600,655 5604,663 5609,670 5599,680 5593,683 5586,693 5583,700 5580,708 5561,732 5568,739 5574,746 5581,751 5588,760 5592,770 5597,776 5604,781 5612,787 5621,791 5630,794 5637,797 5666,801 5685,805 5698,814 5705,819 5711,825 5712,831 5709,840 5705,848 5699,856 5692,863 5684,867 5674,869 5660,869 5646,870 5639,872 5635,885 5628,906 5624,915 5624,922 5633,929 5649,939 5659,945 5663,951 5666,957 5668,965 5661,982 5655,994 5654,1000 5657,1007 5663,1011 5670,1017 5670,1028 5667,1041 5668,1049 5665,1077 5659,1082 5647,1080 5641,1080 5637,1090 5631,1095 5623,1093 5610,1091 5599,1091 5589,1094 5579,1097 5569,1104 5568,1113 5569,1122 5577,1133 5580,1140 5579,1148 5569,1157 5561,1160 5555,1160 5545,1161 5538,1161 5523,1157 5518,1147 5515,1140 5513,1132 5512,1125 5513,1119 5520,1109 5530,1103 5537,1092 5533,1081 5522,1074 5516,1071 5505,1065 5496,1056 5490,1055 5481,1058 5474,1063 5468,1066 5462,1067 5456,1070 5449,1073 5441,1076 5435,1077 5427,1077 5421,1075 5412,1068 5404,1062 5398,1060 5391,1057 5382,1051 5375,1049 5362,1041 5355,1040 5348,1037 5337,1034 5327,1030 5316,1025 5307,1018 5301,1015 5293,1013 5287,1013 5285,1030 5282,1043 5280,1054 5278,1067 5275,1078 5270,1085 5258,1094 5255,1102 5256,1108 5264,1118 5264,1124 5261,1132 5254,1139 5237,1149 5240,1156 5250,1160 5246,1170 5241,1181 5235,1182 5213,1177 5205,1178 5198,1179 5190,1174 5184,1166 5174,1164 5168,1164 5161,1157 5156,1139 5147,1133 5148,1030 5153,1020 5171,993 5173,987 5167,983 5119,982 5106,983 5098,991 5097,1019 5091,1020 5064,1018 5046,1015 5031,1009 5024,1002 5012,986 5004,981 4995,976 4986,974 4976,972 4968,971 4958,970 4942,969 4925,962 4909,958 4894,950 4878,942 4869,934 4864,925 4858,918 4850,913 4840,910 4831,910 4821,908 4812,909 4799,911 4787,915 4775,915 4762,913 4752,910 4743,908 4730,906 4708,900 4692,899 4682,894 4673,887 4668,881 4663,874 4657,869 4648,867 4640,866 4629,866 4617,865 4604,871 4599,883 4592,888 4582,892 4575,891 4569,887 4559,883 4547,875 4538,869 4526,862 4515,856 4502,854 4495,853 4486,853 4474,854 4461,853 4450,848 4442,843 4420,832 4403,824 4389,815 4385,809 4379,799 4374,791 4366,780 4359,768 4354,756 4352,747 4350,736 4349,725 4348,713 4348,704 4345,695 4343,684 4344,676 4347,667 4352,660 4355,652 4349,642 4349,636 4355,630 4362,625 4370,622 4372,614 4371,607 4368,598 4361,587 4356,573 4355,560 4359,550 4368,550 4376,552 4388,553 4396,551 4407,550 4422,549 4422,542 4409,541 4398,538 4388,532 4391,524 4395,515 4400,508 4407,498 4405,486 4402,478 4395,468 4387,447 4380,433 4371,419 4363,410 4354,405 4345,404 4323,417 4329,410 4333,404 4338,398 4347,390 4357,387 4363,388 4372,387 4377,380 4381,374 4388,367 4396,366 4404,367 4413,370 4422,373 4428,375 4440,374 4446,365 4448,356 4450,349 4447,341 4441,331 4429,314 4421,305 4414,295 4407,290 4398,281 4397,275 4395,269 4398,263 4407,257 4418,255 4430,253 4439,252 4452,252 4464,260 4470,266 4478,272 4484,269 4492,263 4501,264 4512,269 4518,272 4524,270 4522,263 4518,256 4519,246 4526,235 4519,223 4512,212 4520,208 4530,209 4539,208 4549,201 4557,198 4566,196 4578,202 4579,213 4585,218 4596,214 4601,207 4604,199 4601,187 4593,181 4592,174 4592,165 4602,157 4615,143 4609,138 4602,142 4596,140 4600,134 4599,125 4605,121 4615,123 4622,125 4619,118 4616,112 4624,115 4630,118 4637,114 4632,127 4639,130 4652,115 4658,109 4669,107 4683,91 4712,81 4738,68 4754,65 4783,67 4794,65 4803,63 4809,62 4812,79 4825,81 4836,83 4894,79 4903,78 4914,78 4929,79 4979,85 4996,85 5006,83 5016,78 5026,70 5037,66 5047,63 5057,62 5069,61 5079,61 5095,60 5103,57 5110,49 5117,32 5120,25 5130,23 5131,61 5138,70 5148,77 5152,84 5157,94 5162,102 5167,109 5170,120 5174,130 5181,138 5181,151 5188,155 5198,158 5230,146 5249,142 5267,142 5279,143 5298,151 5306,152 5314,141 5319,118 5323,111 5329,104 5336,103 5345,99 5352,91 5352,85 5350,75 5347,68 5343,62 5338,54 5333,47 5330,39 5329,32 5332,25 5337,18 5348,11 5360,6 5366,4 5386,0 5394,0 5408,3 " class="polyStyle" id="511403" style="fill:#f6f67b"/>
<path d="" class="polyStyle" id="440800" style="fill:#f6f67b"/>
<path d="" class="polyStyle" id="440900" style="fill:#ee8b94"/>
<path d="" class="polyStyle" id="340800" style="fill:#ee8b94"/>
<path d="" class="polyStyle" id="460200" style="fill:#f6f67b"/>
<path d="" class="polyStyle" id="460000" style="fill:#ee8b94"/>
<path d="" class="polyStyle" id="450500" style="fill:#ee8b94"/>
<path d="" class="polyStyle" id="450600" style="fill:#ee8b94"/>
<path d="" class="polyStyle" id="440400" style="fill:#f6f67b"/>
<path d="" class="polyStyle" id="441700" style="fill:#f6f67b"/>
<path d="" class="polyStyle" id="441500" style="fill:#f6f67b"/>
<path d="" class="polyStyle" id="350600" style="fill:#ee8b94"/>
<path d="" class="polyStyle" id="710000" style="fill:#f6f67b"/>
<path d="" class="polyStyle" id="510400" style="fill:#f6f67b"/>
<path d="" class="polyStyle" id="522600" style="fill:#fbe6ef"/>
<path d="" class="polyStyle" id="520500" style="fill:#ee8b94"/>
<path d="" class="polyStyle" id="431200" style="fill:#f6f67b"/>
<path d="" class="polyStyle" id="430600" style="fill:#f6f67b"/>
<path d="" class="polyStyle" id="511400" style="fill:#d4ecb2"/>
<path d="" class="polyStyle" id="421000" style="fill:#ee8b94"/>
<path d="" class="polyStyle" id="341700" style="fill:#f6f67b"/>
<path d="" class="polyStyle" id="420500" style="fill:#f6f67b"/>
<path d="" class="polyStyle" id="511300" style="fill:#f6f67b"/>
<path d="" class="polyStyle" id="420900" style="fill:#f6f67b"/>
<path d="" class="polyStyle" id="511700" style="fill:#ee8b94"/>
<path d="" class="polyStyle" id="420600" style="fill:#d4ecb2"/>
<path d="" class="polyStyle" id="411500" style="fill:#fbe6ef"/>
<path d="" class="polyStyle" id="510800" style="fill:#ee8b94"/>
<path d="" class="polyStyle" id="420300" style="fill:#fbe6ef"/>
<path d="" class="polyStyle" id="611000" style="fill:#ee8b94"/>
<path d="" class="polyStyle" id="620800" style="fill:#fbe6ef"/>
<path d="" class="polyStyle" id="370200" style="fill:#ee8b94"/>
<path d="" class="polyStyle" id="371000" style="fill:#f6f67b"/>
<path d="" class="polyStyle" id="370600" style="fill:#fbe6ef"/>
<path d="" class="polyStyle" id="120000" style="fill:#f6f67b"/>
<path d="" class="polyStyle" id="130200" style="fill:#ee8b94"/>
<path d="" class="polyStyle" id="130300" style="fill:#f6f67b"/>
<path d="" class="polyStyle" id="652900" style="fill:#fbe6ef"/>
<path d="" class="polyStyle" id="150500" style="fill:#d4ecb2"/>
<path d="" class="polyStyle" id="" style="fill:#d4ecb2"/>
<path d="" class="polyStyle" id="350500" style="fill:#fbe6ef"/>
<path d="" class="polyStyle" id="440400" style="fill:#f6f67b"/>
<path d="" class="polyStyle" id="421100" style="fill:#d4ecb2"/>
<path d="" class="polyStyle" id="420100" style="fill:#fbe6ef"/>
<path d="" class="polyStyle" id="532500" style="fill:#fbe6ef"/>
<path d="" class="polyStyle" id="654200" style="fill:#fbe6ef"/>
<path d="" class="polyStyle" id="210700" style="fill:#d4ecb2"/>
<path d="" class="polyStyle" id="522300" style="fill:#fbe6ef"/>
<path d="" class="polyStyle" id="" style="fill:#ee8b94"/>
<path d="" class="polyStyle" id="440400" style="fill:#f6f67b"/>
<path d="" class="polyStyle" id="620000" style="fill:#f6f67b"/>
<path d="" class="polyStyle" id="430000" style="fill:#fbe6ef"/>
<path d="" class="polyStyle" id="420000" style="fill:#ee8b94"/>
<path d="" class="polyStyle" id="410000" style="fill:#f6f67b"/>
<path d="" class="polyStyle" id="350000" style="fill:#fbe6ef"/>
<path d="" class="polyStyle" id="520000" style="fill:#f6f67b"/>
<path d="" class="polyStyle" id="" style="fill:#ee8b94"/>
</svg>
