<?xml version="1.0" encoding="UTF-8"?>
<!DOCTYPE svg PUBLIC "-//W3C//DTD SVG 1.1 Tiny//EN" "http://www.w3.org/Graphics/SVG/1.1/DTD/svg11-tiny.dtd">
<svg version="1.1" xmlns="http://www.w3.org/2000/svg" xmlns:xlink="http://www.w3.org/1999/xlink" width="100%" height="100%" viewBox="0,0,7289,10446">
<title>SVG</title>
<desc>Poligon Test</desc>
<style id="style_css_sheet" type="text/css">
.polyStyle{fill: #cccccc;stroke-width:0;fill-rule:evenodd;}
</style>
<circle cx="4541" cy="5726" r="200" stroke="black" stroke-width="1" fill="red" id="511822" name="荥经县"/>
<circle cx="2129" cy="8511" r="200" stroke="black" stroke-width="1" fill="red" id="511824" name="石棉县"/>
<circle cx="4113" cy="4356" r="200" stroke="black" stroke-width="1" fill="red" id="511825" name="天全县"/>
<circle cx="4946" cy="3917" r="200" stroke="black" stroke-width="1" fill="red" id="511826"position="11" name="芦山县"/>
<circle cx="4396" cy="2842" r="200" stroke="black" stroke-width="1" fill="red" id="511827" name="宝兴县"/>
<circle cx="3581" cy="7970" r="200" stroke="black" stroke-width="1" fill="red" id="511823" name="汉源县"/>
<circle cx="5353" cy="4801" r="200" stroke="black" stroke-width="1" fill="red" id="511802"position="44" name="雨城区"/>
<circle cx="5874" cy="4251" r="200" stroke="black" stroke-width="1" fill="red" id="511803" name="名山区"/>
<path d="" class="polyStyle" id="" style="fill:#ee8b94"/>
<path d="" class="polyStyle" id="623022" style="fill:#fbe6ef"/>
<path d="" class="polyStyle" id="211421" style="fill:#f6f67b"/>
<path d="" class="polyStyle" id="532524" style="fill:#ee8b94"/>
<path d="" class="polyStyle" id="440825" style="fill:#f6f67b"/>
<path d="" class="polyStyle" id="441721" style="fill:#f6f67b"/>
<path d="" class="polyStyle" id="450521" style="fill:#f6f67b"/>
<path d="" class="polyStyle" id="450123" style="fill:#fbe6ef"/>
<path d="" class="polyStyle" id="350624" style="fill:#f6f67b"/>
<path d="" class="polyStyle" id="" style="fill:#fbe6ef"/>
<path d="" class="polyStyle" id="451224" style="fill:#fbe6ef"/>
<path d="" class="polyStyle" id="350627" style="fill:#f6f67b"/>
<path d="" class="polyStyle" id="" style="fill:#f6f67b"/>
<path d="" class="polyStyle" id="350525" style="fill:#f6f67b"/>
<path d="" class="polyStyle" id="530124" style="fill:#ee8b94"/>
<path d="" class="polyStyle" id="522627" style="fill:#ee8b94"/>
<path d="" class="polyStyle" id="510421" style="fill:#fbe6ef"/>
<path d="" class="polyStyle" id="522623" style="fill:#d4ecb2"/>
<path d="" class="polyStyle" id="430321" style="fill:#d4ecb2"/>
<path d="" class="polyStyle" id="511129" style="fill:#d4ecb2"/>
<polygon points="1156,7085 1148,7114 1177,7118 1215,7121 1216,7151 1212,7182 1212,7234 1210,7270 1183,7301 1182,7334 1199,7359 1225,7359 1251,7349 1278,7368 1295,7396 1318,7421 1350,7392 1377,7372 1411,7345 1442,7322 1484,7299 1521,7282 1551,7273 1578,7246 1618,7230 1654,7204 1691,7177 1725,7148 1760,7118 1797,7087 1824,7079 1859,7056 1889,7025 1886,7037 1885,7052 1879,7068 1874,7083 1872,7096 1872,7106 1877,7118 1876,7132 1877,7147 1883,7162 1898,7178 1911,7190 1920,7198 1921,7209 1917,7222 1912,7235 1913,7247 1922,7261 1935,7279 1950,7299 1961,7314 1978,7326 1991,7341 2001,7352 2013,7359 2028,7362 2045,7364 2060,7365 2074,7373 2089,7384 2105,7394 2120,7395 2136,7390 2149,7383 2156,7376 2167,7374 2180,7380 2193,7392 2209,7407 2227,7421 2244,7432 2268,7438 2293,7442 2314,7446 2330,7449 2358,7456 2379,7458 2402,7460 2422,7466 2454,7471 2481,7473 2509,7473 2526,7470 2541,7464 2555,7455 2568,7450 2593,7451 2611,7452 2633,7451 2650,7454 2672,7456 2695,7451 2712,7450 2730,7453 2747,7459 2763,7469 2773,7481 2776,7494 2777,7508 2786,7522 2801,7534 2817,7551 2830,7565 2845,7575 2862,7579 2880,7582 2900,7587 2919,7591 2939,7601 2958,7616 2974,7633 2988,7653 3000,7672 3007,7683 3014,7699 3027,7723 3038,7739 3042,7749 3043,7761 3042,7773 3046,7780 3058,7793 3070,7801 3082,7811 3096,7830 3101,7842 3109,7852 3119,7861 3124,7864 3120,7877 3117,7891 3120,7903 3130,7914 3144,7929 3158,7945 3168,7961 3177,7979 3179,7989 3176,8003 3172,8017 3167,8026 3163,8028 3147,8043 3135,8050 3121,8056 3110,8064 3102,8076 3099,8086 3099,8095 3109,8123 3111,8132 3111,8137 3111,8142 3109,8148 3099,8156 3090,8165 3071,8197 3059,8211 3045,8224 3029,8236 3001,8252 2965,8267 2932,8272 2918,8273 2899,8273 2882,8275 2843,8289 2824,8295 2815,8301 2808,8310 2803,8318 2799,8329 2795,8345 2793,8355 2793,8363 2792,8376 2784,8387 2776,8397 2779,8397 2782,8399 2786,8399 2793,8402 2800,8405 2808,8413 2813,8421 2816,8428 2817,8435 2818,8438 2818,8442 2820,8447 2820,8452 2821,8467 2825,8482 2829,8491 2834,8500 2843,8511 2853,8522 2880,8545 2906,8566 2909,8571 2911,8575 2913,8582 2914,8589 2911,8613 2906,8637 2903,8645 2896,8654 2890,8664 2884,8675 2881,8683 2877,8689 2866,8694 2854,8709 2843,8722 2837,8738 2834,8754 2834,8770 2830,8797 2828,8814 2819,8829 2806,8846 2796,8862 2788,8881 2779,8903 2769,8922 2763,8938 2763,8952 2774,8971 2786,8986 2800,8999 2809,9010 2813,9026 2810,9040 2801,9054 2786,9068 2774,9079 2764,9091 2758,9109 2757,9128 2759,9151 2763,9166 2769,9173 2782,9173 2794,9176 2806,9184 2820,9194 2825,9205 2824,9217 2825,9225 2834,9231 2848,9230 2862,9226 2880,9223 2892,9222 2896,9227 2911,9247 2919,9261 2925,9273 2935,9278 2939,9285 2942,9296 2939,9309 2931,9324 2918,9340 2905,9356 2900,9370 2902,9384 2909,9404 2920,9425 2931,9448 2938,9469 2943,9485 2944,9501 2942,9511 2937,9523 2926,9532 2917,9536 2903,9534 2885,9532 2874,9538 2864,9547 2853,9564 2845,9583 2840,9602 2833,9625 2829,9640 2826,9656 2816,9666 2808,9675 2798,9688 2793,9696 2789,9704 2781,9713 2763,9724 2747,9734 2741,9746 2735,9756 2726,9763 2708,9769 2699,9780 2696,9789 2693,9795 2687,9802 2678,9812 2675,9819 2675,9828 2679,9838 2686,9849 2688,9856 2691,9862 2693,9869 2697,9882 2697,9888 2691,9899 2683,9909 2679,9915 2678,9921 2684,9930 2696,9947 2700,9966 2705,9974 2718,9983 2728,9993 2734,10002 2739,10014 2738,10021 2738,10028 2737,10037 2729,10049 2721,10073 2721,10093 2720,10111 2711,10118 2709,10127 2708,10133 2689,10142 2683,10151 2677,10161 2671,10170 2660,10180 2649,10191 2639,10201 2632,10211 2624,10224 2622,10233 2621,10242 2619,10250 2620,10273 2622,10291 2622,10317 2627,10328 2623,10335 2616,10338 2613,10338 2607,10340 2598,10342 2586,10343 2567,10346 2543,10352 2535,10356 2532,10356 2524,10360 2519,10364 2515,10369 2512,10374 2511,10380 2511,10385 2510,10391 2510,10396 2508,10400 2491,10407 2483,10415 2481,10421 2482,10424 2480,10430 2479,10433 2477,10434 2454,10446 2428,10438 2398,10430 2370,10427 2341,10414 2315,10417 2286,10420 2255,10424 2229,10417 2197,10419 2172,10423 2145,10418 2116,10417 2087,10423 2056,10413 2028,10391 2010,10364 1987,10338 1977,10310 1974,10284 1945,10286 1911,10279 1892,10253 1890,10223 1880,10195 1851,10202 1821,10213 1788,10202 1762,10184 1734,10192 1703,10191 1675,10169 1644,10182 1616,10211 1586,10207 1586,10182 1574,10154 1556,10129 1564,10101 1570,10072 1570,10045 1545,10015 1520,10003 1491,9978 1489,9952 1492,9926 1490,9896 1472,9870 1445,9866 1419,9856 1388,9839 1361,9826 1335,9812 1343,9782 1330,9754 1312,9725 1283,9704 1263,9662 1248,9641 1231,9635 1218,9626 1225,9604 1248,9585 1257,9566 1249,9545 1227,9530 1203,9514 1173,9510 1139,9516 1143,9508 1126,9504 1116,9497 1108,9485 1103,9472 1098,9462 1097,9452 1101,9439 1111,9418 1119,9398 1131,9373 1145,9349 1160,9325 1171,9312 1172,9308 1175,9301 1168,9295 1161,9294 1149,9291 1133,9287 1120,9283 1101,9271 1103,9268 1102,9259 1100,9255 1099,9251 1096,9246 1093,9243 1092,9234 1091,9225 1090,9222 1088,9218 1084,9214 1080,9210 1075,9204 1069,9199 1067,9194 1065,9188 1067,9181 1068,9174 1070,9169 1074,9163 1079,9154 1087,9145 1092,9138 1096,9131 1099,9122 1101,9113 1102,9109 1103,9105 1106,9097 1108,9090 1112,9080 1113,9070 1114,9056 1116,9041 1116,9038 1114,9034 1113,9031 1110,9028 1104,9020 1099,9012 1096,9009 1089,8997 1084,8983 1083,8979 1078,8975 1072,8973 1061,8968 1055,8965 1048,8959 1041,8950 1037,8940 1033,8926 1026,8925 1013,8923 996,8914 981,8901 967,8885 960,8868 959,8854 965,8844 971,8836 972,8827 968,8818 963,8807 948,8792 930,8783 911,8779 897,8775 881,8764 867,8758 852,8757 839,8760 815,8771 796,8781 779,8794 758,8810 741,8826 726,8842 717,8851 702,8851 686,8846 669,8838 645,8830 627,8824 608,8814 598,8804 596,8796 597,8787 602,8776 609,8767 615,8756 622,8745 630,8736 641,8726 656,8718 670,8711 684,8707 702,8703 717,8694 736,8684 749,8674 760,8665 775,8656 787,8649 801,8643 817,8635 826,8630 834,8621 844,8611 856,8604 869,8601 880,8600 894,8592 910,8583 919,8572 924,8560 930,8546 938,8537 947,8528 951,8519 950,8506 941,8494 926,8484 910,8476 899,8466 890,8457 882,8445 875,8431 867,8414 859,8402 851,8390 838,8376 821,8359 807,8342 794,8328 780,8311 770,8301 759,8300 745,8301 730,8297 717,8291 703,8281 691,8271 680,8258 670,8245 658,8238 647,8234 631,8228 614,8225 596,8218 582,8212 564,8205 546,8202 535,8205 525,8214 511,8224 493,8232 475,8235 449,8233 430,8232 416,8222 412,8211 409,8203 400,8205 386,8207 368,8206 353,8204 335,8207 327,8205 317,8201 309,8200 299,8201 286,8202 275,8203 250,8201 238,8197 227,8189 201,8173 177,8155 158,8150 146,8142 135,8133 124,8122 120,8118 105,8097 92,8069 77,8036 68,7998 61,7960 71,7935 95,7908 113,7874 119,7849 142,7822 170,7804 183,7777 199,7747 184,7721 184,7689 199,7661 211,7635 210,7609 239,7582 231,7555 203,7552 178,7538 156,7511 130,7501 93,7496 57,7486 45,7455 48,7429 64,7397 66,7370 60,7336 45,7302 34,7274 29,7247 23,7221 2,7191 0,7188 18,7178 52,7172 80,7173 109,7189 139,7217 169,7236 214,7238 240,7230 266,7231 327,7242 349,7240 377,7236 403,7230 429,7223 454,7211 480,7198 506,7197 532,7201 557,7207 588,7211 624,7203 650,7194 679,7205 704,7215 733,7212 775,7211 801,7204 827,7196 854,7184 878,7157 905,7150 931,7142 964,7142 990,7143 1017,7165 1046,7171 1045,7145 1041,7119 1044,7087 1037,7051 1060,7024 1109,7024 1142,7024 1157,7058 " class="polyStyle" id="511824" style="fill:#fbe6ef"/>
<polygon points="2022,6104 2042,6116 2061,6127 2081,6135 2107,6138 2128,6137 2143,6134 2155,6128 2164,6118 2175,6109 2190,6104 2210,6111 2227,6121 2243,6137 2257,6148 2272,6152 2291,6151 2311,6151 2329,6148 2347,6142 2364,6138 2376,6138 2384,6142 2398,6154 2407,6162 2413,6165 2428,6172 2443,6176 2460,6180 2471,6176 2482,6169 2495,6163 2511,6152 2527,6135 2536,6129 2545,6118 2558,6111 2572,6108 2594,6100 2611,6095 2631,6095 2644,6098 2659,6097 2672,6101 2680,6106 2677,6116 2671,6129 2669,6139 2671,6150 2678,6162 2682,6170 2695,6182 2703,6191 2710,6204 2721,6216 2734,6229 2755,6245 2773,6258 2782,6269 2784,6286 2787,6301 2796,6320 2804,6337 2813,6345 2827,6350 2844,6350 2861,6349 2873,6348 2883,6354 2888,6366 2889,6380 2886,6399 2890,6414 2902,6426 2915,6443 2924,6456 2930,6467 2934,6475 2943,6477 2961,6477 2982,6474 3000,6469 3017,6461 3029,6452 3044,6449 3060,6447 3077,6449 3093,6455 3104,6460 3120,6468 3124,6481 3127,6497 3136,6507 3155,6512 3167,6513 3178,6507 3190,6498 3207,6495 3226,6495 3248,6492 3268,6485 3280,6479 3296,6481 3315,6487 3327,6487 3333,6478 3337,6470 3345,6463 3355,6458 3371,6459 3386,6460 3407,6463 3423,6463 3442,6458 3456,6451 3465,6442 3475,6434 3492,6428 3508,6425 3523,6423 3532,6427 3537,6437 3536,6459 3533,6478 3534,6500 3539,6517 3544,6534 3549,6548 3558,6565 3573,6575 3586,6589 3598,6602 3602,6610 3600,6621 3609,6631 3623,6638 3641,6641 3659,6649 3671,6658 3679,6668 3684,6680 3690,6691 3693,6699 3699,6708 3695,6715 3688,6724 3686,6732 3692,6738 3704,6742 3707,6743 3718,6748 3720,6754 3720,6757 3720,6768 3724,6779 3738,6794 3747,6802 3758,6807 3773,6809 3790,6817 3807,6827 3824,6838 3835,6852 3842,6866 3848,6885 3850,6901 3852,6925 3853,6938 3854,6946 3860,6948 3865,6959 3863,6976 3864,6997 3850,7005 3841,7012 3831,7022 3822,7027 3827,7032 3847,7047 3866,7066 3883,7091 3893,7114 3901,7132 3901,7137 3926,7149 3950,7165 3964,7174 3973,7185 3978,7199 3982,7209 3988,7218 3997,7224 4008,7233 4017,7249 4024,7259 4035,7265 4049,7265 4069,7259 4087,7256 4110,7257 4129,7261 4148,7270 4165,7282 4178,7291 4195,7299 4207,7302 4222,7304 4231,7301 4243,7294 4256,7287 4268,7283 4278,7283 4287,7282 4309,7278 4330,7274 4348,7272 4366,7272 4377,7279 4389,7295 4399,7311 4406,7332 4410,7339 4443,7317 4471,7300 4493,7291 4504,7288 4514,7278 4521,7253 4523,7238 4534,7228 4547,7213 4556,7201 4617,7236 4652,7258 4673,7282 4693,7313 4703,7320 4707,7321 4740,7311 4772,7307 4782,7313 4789,7326 4815,7462 4830,7484 4847,7499 4862,7517 4850,7576 4852,7607 4861,7624 4867,7623 4883,7626 4901,7633 4921,7642 4939,7651 4952,7660 4960,7668 4968,7677 4978,7685 4988,7687 5006,7684 5034,7674 5057,7662 5082,7653 5098,7649 5106,7649 5113,7656 5127,7659 5145,7656 5161,7658 5177,7661 5181,7664 5189,7674 5191,7688 5195,7703 5201,7715 5211,7730 5222,7742 5234,7753 5250,7760 5259,7766 5274,7773 5288,7784 5296,7796 5301,7815 5305,7833 5310,7849 5308,7860 5302,7873 5293,7883 5280,7890 5270,7901 5263,7915 5257,7928 5250,7941 5241,7952 5230,7963 5223,7974 5219,7988 5222,8009 5226,8028 5229,8046 5232,8056 5235,8068 5234,8074 5224,8081 5216,8087 5215,8097 5225,8110 5239,8123 5255,8137 5269,8154 5275,8163 5280,8169 5286,8181 5292,8190 5296,8199 5304,8213 5329,8243 5336,8255 5326,8255 5314,8250 5306,8248 5299,8245 5291,8244 5285,8242 5279,8241 5271,8239 5264,8238 5258,8237 5250,8235 5242,8234 5236,8232 5230,8228 5224,8225 5217,8219 5211,8217 5196,8208 5186,8201 5179,8198 5168,8191 5158,8188 5152,8187 5143,8184 5135,8182 5129,8181 5116,8180 5103,8180 5097,8179 5090,8179 5080,8177 5072,8177 5065,8176 5058,8176 5047,8175 5039,8174 5024,8174 5018,8175 5011,8180 5003,8184 4995,8190 4988,8194 4973,8204 4966,8211 4962,8225 4959,8238 4958,8245 4957,8254 4955,8263 4954,8269 4948,8281 4939,8287 4928,8297 4921,8305 4914,8314 4908,8321 4901,8334 4896,8345 4890,8353 4883,8361 4881,8367 4875,8380 4873,8390 4868,8407 4863,8423 4860,8431 4859,8438 4857,8444 4854,8458 4851,8472 4854,8497 4858,8519 4858,8545 4857,8555 4854,8566 4850,8572 4845,8579 4837,8583 4831,8587 4823,8589 4816,8596 4806,8601 4799,8607 4795,8614 4793,8621 4787,8625 4779,8631 4773,8634 4764,8640 4756,8645 4750,8647 4742,8649 4733,8652 4724,8656 4717,8659 4703,8665 4694,8670 4688,8673 4677,8676 4671,8676 4664,8675 4654,8674 4641,8673 4628,8672 4611,8669 4590,8668 4572,8666 4555,8664 4543,8666 4534,8665 4522,8660 4516,8658 4506,8656 4500,8651 4498,8642 4496,8631 4494,8618 4494,8608 4493,8600 4490,8590 4488,8581 4484,8563 4484,8545 4485,8535 4486,8525 4488,8518 4489,8509 4489,8497 4490,8482 4482,8475 4475,8471 4468,8469 4460,8466 4453,8465 4445,8463 4432,8460 4415,8456 4404,8449 4398,8442 4384,8442 4372,8445 4361,8450 4352,8456 4317,8445 4271,8422 4258,8421 4239,8432 4223,8443 4211,8457 4206,8471 4211,8488 4222,8507 4229,8520 4235,8530 4237,8539 4235,8550 4232,8560 4229,8568 4217,8579 4209,8586 4197,8595 4182,8611 4171,8628 4161,8647 4156,8661 4151,8682 4144,8699 4144,8728 4148,8747 4154,8759 4166,8767 4176,8775 4185,8782 4195,8792 4202,8802 4205,8813 4209,8822 4206,8835 4200,8851 4189,8868 4180,8890 4172,8901 4161,8909 4149,8910 4135,8903 4118,8895 4102,8893 4082,8893 4066,8898 4048,8908 4033,8919 4017,8925 4000,8927 3988,8925 3972,8917 3959,8911 3940,8905 3928,8896 3923,8887 3918,8877 3908,8873 3892,8870 3871,8870 3851,8867 3831,8863 3814,8858 3795,8854 3783,8855 3771,8860 3752,8869 3734,8874 3717,8876 3697,8877 3680,8871 3667,8863 3651,8856 3636,8849 3616,8843 3594,8836 3579,8828 3568,8816 3565,8804 3566,8790 3571,8776 3578,8763 3585,8751 3589,8741 3582,8731 3567,8733 3559,8729 3555,8718 3550,8706 3537,8690 3528,8678 3521,8666 3513,8652 3504,8642 3494,8634 3480,8630 3467,8631 3450,8638 3434,8643 3425,8641 3413,8639 3399,8645 3386,8656 3375,8660 3357,8665 3336,8670 3321,8676 3306,8689 3293,8701 3280,8708 3270,8716 3263,8726 3257,8742 3257,8756 3258,8766 3268,8773 3275,8784 3280,8794 3286,8809 3294,8816 3305,8822 3314,8826 3321,8832 3321,8840 3318,8850 3307,8866 3294,8883 3287,8894 3278,8893 3263,8888 3247,8883 3229,8879 3208,8877 3193,8876 3173,8879 3158,8878 3144,8885 3129,8894 3106,8909 3092,8920 3076,8933 3080,8940 3092,8944 3105,8947 3116,8951 3123,8956 3127,8964 3126,8973 3123,8983 3123,8997 3124,9013 3122,9022 3113,9028 3099,9034 3091,9042 3089,9052 3089,9066 3087,9080 3082,9090 3072,9100 3058,9107 3038,9108 3015,9111 2998,9112 2987,9120 2978,9132 2963,9140 2949,9136 2939,9129 2930,9126 2926,9134 2922,9148 2917,9165 2911,9175 2896,9195 2891,9212 2892,9222 2880,9223 2862,9226 2848,9230 2834,9231 2825,9225 2824,9217 2825,9205 2820,9194 2806,9184 2794,9176 2782,9173 2769,9173 2763,9166 2759,9151 2757,9128 2758,9109 2764,9091 2774,9079 2786,9068 2801,9054 2810,9040 2813,9026 2809,9010 2800,8999 2786,8986 2774,8971 2763,8952 2763,8938 2769,8922 2779,8903 2788,8881 2796,8862 2806,8846 2819,8829 2828,8814 2830,8797 2834,8770 2834,8754 2837,8738 2843,8722 2854,8709 2866,8694 2877,8689 2881,8683 2884,8675 2890,8664 2896,8654 2903,8645 2906,8637 2911,8613 2914,8589 2913,8582 2911,8575 2909,8571 2906,8566 2880,8545 2853,8522 2843,8511 2834,8500 2829,8491 2825,8482 2821,8467 2820,8452 2820,8447 2818,8442 2818,8438 2817,8435 2816,8428 2813,8421 2808,8413 2800,8405 2793,8402 2786,8399 2782,8399 2779,8397 2776,8397 2784,8387 2792,8376 2793,8363 2793,8355 2795,8345 2799,8329 2803,8318 2808,8310 2815,8301 2824,8295 2843,8289 2882,8275 2899,8273 2918,8273 2932,8272 2965,8267 3001,8252 3029,8236 3045,8224 3059,8211 3071,8197 3090,8165 3099,8156 3109,8148 3111,8142 3111,8137 3111,8132 3109,8123 3099,8095 3099,8086 3102,8076 3110,8064 3121,8056 3135,8050 3147,8043 3163,8028 3167,8026 3172,8017 3176,8003 3179,7989 3177,7979 3168,7961 3158,7945 3144,7929 3130,7914 3120,7903 3117,7891 3120,7877 3124,7864 3119,7861 3109,7852 3101,7842 3096,7830 3082,7811 3070,7801 3058,7793 3046,7780 3042,7773 3043,7761 3042,7749 3038,7739 3027,7723 3014,7699 3007,7683 3000,7672 2988,7653 2974,7633 2958,7616 2939,7601 2919,7591 2900,7587 2880,7582 2862,7579 2845,7575 2830,7565 2817,7551 2801,7534 2786,7522 2777,7508 2776,7494 2773,7481 2763,7469 2747,7459 2730,7453 2712,7450 2695,7451 2672,7456 2650,7454 2633,7451 2611,7452 2593,7451 2568,7450 2555,7455 2541,7464 2526,7470 2509,7473 2481,7473 2454,7471 2422,7466 2402,7460 2379,7458 2358,7456 2330,7449 2314,7446 2293,7442 2268,7438 2244,7432 2227,7421 2209,7407 2193,7392 2180,7380 2167,7374 2156,7376 2149,7383 2136,7390 2120,7395 2105,7394 2089,7384 2074,7373 2060,7365 2045,7364 2028,7362 2013,7359 2001,7352 1991,7341 1978,7326 1961,7314 1950,7299 1935,7279 1922,7261 1913,7247 1912,7235 1917,7222 1921,7209 1920,7198 1911,7190 1898,7178 1883,7162 1877,7147 1876,7132 1877,7118 1872,7106 1872,7096 1874,7083 1879,7068 1885,7052 1886,7037 1889,7025 1891,7023 1897,7014 1901,6992 1903,6968 1910,6947 1917,6929 1916,6915 1912,6904 1904,6890 1903,6876 1899,6867 1894,6862 1882,6852 1866,6839 1845,6820 1832,6811 1816,6801 1793,6791 1785,6782 1781,6768 1777,6752 1768,6735 1755,6713 1741,6692 1728,6671 1713,6656 1706,6646 1706,6637 1712,6629 1723,6616 1734,6603 1750,6586 1765,6568 1772,6553 1772,6544 1771,6535 1761,6525 1748,6515 1741,6506 1743,6498 1752,6489 1767,6475 1786,6455 1795,6435 1799,6410 1795,6390 1789,6373 1783,6358 1785,6346 1787,6327 1791,6307 1801,6288 1812,6264 1825,6247 1841,6232 1859,6216 1884,6201 1898,6189 1911,6171 1933,6149 1951,6131 1969,6115 1987,6100 1997,6092 2006,6095 " class="polyStyle" id="511823" style="fill:#f6f67b"/>
<polygon points="3252,4992 3254,5003 3260,5008 3272,5012 3283,5013 3293,5014 3299,5024 3304,5032 3309,5039 3322,5042 3338,5038 3354,5035 3370,5034 3387,5036 3400,5039 3410,5040 3418,5034 3431,5022 3440,5011 3451,5004 3468,4996 3485,4991 3499,4995 3512,5000 3524,5002 3541,5000 3552,5003 3561,5008 3565,5014 3566,5023 3568,5032 3575,5040 3581,5047 3587,5057 3592,5067 3599,5077 3606,5082 3613,5086 3624,5087 3630,5090 3640,5083 3650,5077 3658,5078 3665,5082 3668,5090 3665,5102 3663,5112 3667,5120 3675,5130 3679,5138 3680,5150 3685,5161 3693,5170 3703,5175 3718,5172 3731,5165 3746,5157 3758,5154 3774,5153 3778,5132 3782,5118 3786,5112 3795,5109 3810,5113 3827,5120 3841,5130 3856,5139 3868,5147 3870,5153 3871,5169 3875,5187 3879,5203 3881,5215 3891,5224 3902,5230 3912,5235 3922,5240 3935,5250 3948,5259 3961,5269 3975,5271 3987,5267 3999,5278 4012,5288 4026,5295 4038,5299 4054,5306 4064,5311 4080,5319 4089,5325 4093,5334 4097,5343 4102,5354 4109,5367 4116,5377 4122,5386 4130,5390 4150,5397 4158,5399 4172,5399 4192,5396 4197,5396 4201,5397 4209,5398 4214,5397 4225,5389 4232,5382 4238,5375 4248,5365 4258,5354 4270,5345 4281,5338 4289,5329 4296,5317 4301,5303 4312,5284 4318,5274 4334,5269 4350,5273 4363,5273 4377,5272 4388,5266 4392,5259 4397,5246 4408,5236 4425,5233 4441,5231 4453,5227 4463,5219 4479,5207 4492,5197 4503,5190 4516,5183 4527,5181 4531,5176 4534,5170 4537,5159 4542,5155 4550,5153 4558,5153 4567,5155 4591,5162 4603,5161 4620,5158 4641,5150 4645,5148 4655,5138 4665,5129 4682,5120 4696,5113 4708,5108 4720,5107 4727,5107 4734,5118 4750,5132 4762,5141 4769,5150 4775,5162 4775,5172 4773,5180 4773,5188 4779,5199 4783,5207 4784,5216 4782,5225 4777,5238 4772,5251 4764,5267 4759,5279 4758,5290 4755,5297 4745,5301 4733,5302 4721,5301 4707,5299 4696,5295 4686,5296 4676,5299 4663,5304 4652,5308 4640,5312 4637,5321 4637,5333 4636,5347 4641,5364 4648,5375 4660,5387 4676,5397 4711,5417 4730,5424 4763,5427 4790,5424 4801,5420 4814,5414 4824,5415 4829,5421 4829,5431 4834,5443 4837,5450 4848,5456 4856,5458 4872,5462 4887,5472 4897,5480 4907,5487 4921,5490 4935,5492 4947,5490 4955,5490 4961,5499 4967,5514 4975,5530 4982,5545 4986,5559 4989,5573 4989,5592 4989,5605 4992,5616 5006,5625 5016,5631 5022,5636 5026,5645 5029,5659 5032,5673 5034,5680 5036,5688 5030,5696 5020,5703 5008,5712 4996,5725 4983,5742 4973,5752 4955,5759 4942,5768 4933,5781 4926,5801 4925,5813 4928,5826 4936,5837 4940,5849 4938,5863 4936,5879 4936,5896 4933,5913 4929,5928 4922,5934 4927,5944 4934,5962 4938,5976 4941,5983 4944,5995 4948,6004 4950,6008 4953,6020 4964,6035 4968,6045 4970,6061 4974,6080 4979,6097 4982,6109 4986,6120 4982,6126 4973,6130 4961,6135 4967,6148 4979,6157 4985,6166 4987,6177 4992,6190 4995,6200 4992,6209 4985,6219 4979,6235 4978,6250 4981,6263 4991,6273 5003,6281 5010,6289 5013,6298 5010,6307 5000,6319 4983,6335 4971,6346 4960,6356 4954,6365 4954,6376 4961,6386 4965,6397 4964,6412 4964,6429 4964,6446 4963,6473 4963,6491 4966,6508 4977,6523 4984,6532 4982,6544 4975,6557 4967,6569 4965,6581 4966,6594 4972,6609 4979,6625 4982,6638 4983,6649 4974,6663 4960,6673 4953,6680 4944,6689 4937,6702 4935,6714 4934,6726 4938,6742 4940,6755 4938,6771 4932,6786 4929,6800 4930,6818 4936,6832 4941,6849 4945,6865 4947,6876 4942,6890 4931,6903 4918,6913 4901,6921 4880,6931 4865,6940 4847,6954 4830,6966 4817,6971 4801,6976 4786,6982 4780,6982 4775,6984 4770,6990 4764,6997 4761,6998 4757,6999 4751,6999 4743,6999 4740,6999 4730,7002 4719,7009 4706,7021 4695,7037 4680,7056 4662,7071 4648,7085 4631,7097 4618,7103 4605,7118 4588,7138 4574,7155 4567,7165 4565,7180 4561,7192 4560,7195 4556,7201 4547,7213 4534,7228 4523,7238 4521,7253 4514,7278 4504,7288 4493,7291 4471,7300 4443,7317 4410,7339 4406,7332 4399,7311 4389,7295 4377,7279 4366,7272 4348,7272 4330,7274 4309,7278 4287,7282 4278,7283 4268,7283 4256,7287 4243,7294 4231,7301 4222,7304 4207,7302 4195,7299 4178,7291 4165,7282 4148,7270 4129,7261 4110,7257 4087,7256 4069,7259 4049,7265 4035,7265 4024,7259 4017,7249 4008,7233 3997,7224 3988,7218 3982,7209 3978,7199 3973,7185 3964,7174 3950,7165 3926,7149 3901,7137 3901,7132 3893,7114 3883,7091 3866,7066 3847,7047 3827,7032 3822,7027 3831,7022 3841,7012 3850,7005 3864,6997 3863,6976 3865,6959 3860,6948 3854,6946 3853,6938 3852,6925 3850,6901 3848,6885 3842,6866 3835,6852 3824,6838 3807,6827 3790,6817 3773,6809 3758,6807 3747,6802 3738,6794 3724,6779 3720,6768 3720,6757 3720,6754 3718,6748 3707,6743 3704,6742 3692,6738 3686,6732 3688,6724 3695,6715 3699,6708 3693,6699 3690,6691 3684,6680 3679,6668 3671,6658 3659,6649 3641,6641 3623,6638 3609,6631 3600,6621 3602,6610 3598,6602 3586,6589 3573,6575 3558,6565 3549,6548 3544,6534 3539,6517 3534,6500 3533,6478 3536,6459 3537,6437 3532,6427 3523,6423 3508,6425 3492,6428 3475,6434 3465,6442 3456,6451 3442,6458 3423,6463 3407,6463 3386,6460 3371,6459 3355,6458 3345,6463 3337,6470 3333,6478 3327,6487 3315,6487 3296,6481 3280,6479 3268,6485 3248,6492 3226,6495 3207,6495 3190,6498 3178,6507 3167,6513 3155,6512 3136,6507 3127,6497 3124,6481 3120,6468 3104,6460 3093,6455 3077,6449 3060,6447 3044,6449 3029,6452 3017,6461 3000,6469 2982,6474 2961,6477 2943,6477 2934,6475 2930,6467 2924,6456 2915,6443 2902,6426 2890,6414 2886,6399 2889,6380 2888,6366 2883,6354 2873,6348 2861,6349 2844,6350 2827,6350 2813,6345 2804,6337 2796,6320 2787,6301 2784,6286 2782,6269 2773,6258 2755,6245 2734,6229 2721,6216 2710,6204 2703,6191 2695,6182 2682,6170 2678,6162 2671,6150 2669,6139 2671,6129 2677,6116 2680,6106 2672,6101 2659,6097 2644,6098 2631,6095 2611,6095 2594,6100 2572,6108 2558,6111 2545,6118 2536,6129 2527,6135 2511,6152 2495,6163 2482,6169 2471,6176 2460,6180 2443,6176 2428,6172 2413,6165 2407,6162 2398,6154 2384,6142 2376,6138 2364,6138 2347,6142 2329,6148 2311,6151 2291,6151 2272,6152 2257,6148 2243,6137 2227,6121 2210,6111 2190,6104 2175,6109 2164,6118 2155,6128 2143,6134 2128,6137 2107,6138 2081,6135 2061,6127 2042,6116 2022,6104 2006,6095 1997,6092 1993,6085 1993,6075 1990,6063 1985,6049 1975,6034 1965,6021 1960,6008 1959,5997 1962,5985 1972,5977 1991,5973 2009,5968 2020,5962 2024,5954 2024,5942 2027,5933 2040,5928 2052,5922 2061,5912 2067,5896 2075,5878 2087,5863 2096,5850 2102,5836 2101,5825 2096,5813 2092,5806 2083,5795 2072,5784 2061,5773 2052,5761 2049,5747 2051,5735 2053,5726 2048,5721 2034,5715 2014,5714 1993,5716 1975,5716 1960,5708 1949,5696 1943,5677 1941,5660 1943,5642 1944,5622 1942,5609 1937,5597 1935,5578 1934,5569 1944,5564 1963,5552 1984,5543 1998,5542 2014,5545 2033,5551 2047,5559 2057,5567 2065,5577 2078,5587 2093,5593 2107,5596 2124,5596 2139,5591 2152,5582 2165,5574 2177,5571 2190,5570 2198,5566 2210,5550 2224,5528 2236,5513 2253,5493 2265,5483 2272,5473 2278,5454 2284,5439 2286,5432 2295,5426 2310,5423 2330,5425 2347,5424 2356,5420 2390,5421 2424,5425 2476,5430 2488,5430 2506,5421 2571,5387 2610,5373 2641,5366 2670,5364 2678,5363 2685,5360 2694,5352 2714,5335 2735,5329 2759,5321 2778,5317 2793,5311 2806,5301 2813,5292 2818,5283 2819,5273 2817,5266 2816,5253 2815,5243 2815,5232 2816,5222 2822,5213 2833,5210 2847,5211 2865,5202 2875,5197 2888,5198 2906,5198 2927,5194 2941,5187 2957,5178 2974,5176 2993,5173 3009,5171 3025,5165 3040,5152 3050,5142 3053,5132 3057,5121 3064,5112 3074,5102 3083,5094 3096,5081 3112,5064 3127,5048 3138,5035 3149,5025 3166,5012 3186,5000 3207,4994 3225,4984 3237,4980 3247,4985 " class="polyStyle" id="511822" style="fill:#fbe6ef"/>
<path d="" class="polyStyle" id="511423" style="fill:#ee8b94"/>
<path d="" class="polyStyle" id="421023" style="fill:#f6f67b"/>
<polygon points="3159,2933 3181,2931 3186,2930 3194,2931 3197,2935 3200,2939 3207,2946 3212,2961 3221,2974 3235,2983 3248,2997 3266,3011 3287,3031 3294,3041 3297,3055 3303,3070 3325,3089 3335,3101 3344,3114 3350,3133 3352,3148 3365,3159 3378,3155 3394,3145 3412,3142 3428,3142 3436,3149 3445,3160 3451,3166 3465,3173 3486,3173 3507,3169 3530,3168 3555,3163 3566,3159 3573,3153 3579,3152 3586,3153 3590,3155 3593,3169 3601,3183 3617,3186 3638,3186 3648,3188 3655,3196 3655,3211 3657,3230 3656,3260 3659,3275 3667,3291 3671,3308 3670,3326 3670,3342 3676,3355 3689,3369 3721,3411 3731,3428 3743,3437 3758,3437 3777,3429 3795,3420 3817,3418 3836,3420 3849,3425 3857,3432 3868,3446 3886,3469 3898,3475 3914,3479 3937,3476 3946,3474 3952,3477 3953,3482 3952,3485 3950,3490 3946,3497 3934,3538 3930,3550 3913,3568 3906,3576 3903,3585 3905,3597 3909,3608 3917,3617 3932,3629 3948,3645 3954,3655 3956,3666 3951,3679 3942,3689 3929,3702 3921,3717 3922,3726 3930,3734 3943,3742 3961,3745 3979,3748 3995,3757 4013,3770 4028,3774 4039,3774 4064,3772 4089,3766 4125,3765 4155,3767 4173,3772 4194,3789 4211,3813 4217,3827 4214,3841 4214,3866 4222,3891 4236,3915 4253,3923 4274,3924 4300,3916 4314,3909 4321,3904 4328,3900 4333,3884 4334,3863 4339,3844 4355,3832 4358,3821 4360,3801 4366,3785 4370,3772 4376,3761 4385,3744 4406,3726 4424,3704 4466,3673 4486,3666 4507,3660 4527,3658 4545,3659 4568,3662 4576,3663 4589,3664 4592,3666 4604,3668 4620,3668 4633,3673 4646,3683 4650,3688 4651,3695 4649,3702 4643,3710 4643,3715 4650,3722 4652,3725 4655,3728 4658,3739 4655,3749 4648,3756 4645,3760 4646,3766 4648,3773 4649,3780 4646,3787 4644,3791 4643,3796 4648,3802 4656,3804 4661,3807 4663,3814 4662,3818 4667,3826 4670,3829 4672,3835 4672,3843 4667,3851 4663,3858 4661,3865 4662,3870 4665,3876 4675,3881 4687,3887 4698,3896 4703,3901 4706,3907 4708,3914 4708,3923 4705,3929 4696,3936 4689,3941 4686,3945 4682,3953 4674,3957 4661,3960 4657,3961 4654,3962 4651,3964 4651,3970 4653,3990 4661,4005 4679,4016 4696,4018 4716,4021 4725,4025 4735,4036 4738,4051 4746,4066 4760,4076 4767,4084 4772,4100 4780,4113 4796,4125 4815,4133 4830,4137 4843,4142 4851,4150 4855,4155 4858,4158 4866,4158 4879,4157 4883,4154 4888,4153 4892,4153 4896,4157 4901,4159 4903,4163 4901,4170 4893,4178 4882,4186 4877,4188 4871,4191 4864,4194 4858,4197 4855,4202 4842,4207 4797,4254 4775,4268 4770,4273 4769,4278 4769,4284 4772,4295 4772,4301 4772,4305 4768,4307 4764,4314 4764,4329 4766,4335 4768,4342 4771,4347 4776,4356 4779,4360 4782,4364 4789,4369 4793,4373 4794,4378 4791,4384 4782,4393 4778,4397 4770,4405 4763,4415 4762,4421 4762,4435 4761,4439 4760,4454 4760,4459 4757,4470 4755,4481 4752,4489 4750,4492 4748,4497 4744,4502 4743,4509 4744,4515 4746,4519 4753,4521 4759,4522 4763,4525 4764,4529 4764,4538 4764,4543 4765,4549 4765,4553 4766,4559 4770,4566 4772,4570 4777,4575 4780,4577 4785,4576 4796,4576 4806,4580 4825,4587 4850,4602 4854,4605 4862,4611 4866,4614 4874,4618 4880,4651 4880,4672 4879,4687 4873,4699 4872,4704 4872,4707 4867,4725 4870,4745 4873,4763 4872,4777 4865,4790 4859,4804 4856,4825 4853,4840 4849,4861 4843,4879 4832,4898 4823,4911 4809,4925 4791,4937 4770,4951 4756,4959 4745,4965 4741,4966 4729,4968 4716,4970 4707,4972 4703,4974 4696,4980 4692,4983 4691,4990 4689,5001 4688,5008 4689,5021 4689,5039 4695,5050 4705,5060 4718,5070 4728,5080 4732,5087 4730,5098 4727,5107 4720,5107 4708,5108 4696,5113 4682,5120 4665,5129 4655,5138 4645,5148 4641,5150 4620,5158 4603,5161 4591,5162 4567,5155 4558,5153 4550,5153 4542,5155 4537,5159 4534,5170 4531,5176 4527,5181 4516,5183 4503,5190 4492,5197 4479,5207 4463,5219 4453,5227 4441,5231 4425,5233 4408,5236 4397,5246 4392,5259 4388,5266 4377,5272 4363,5273 4350,5273 4334,5269 4318,5274 4312,5284 4301,5303 4296,5317 4289,5329 4281,5338 4270,5345 4258,5354 4248,5365 4238,5375 4232,5382 4225,5389 4214,5397 4209,5398 4201,5397 4197,5396 4192,5396 4172,5399 4158,5399 4150,5397 4130,5390 4122,5386 4116,5377 4109,5367 4102,5354 4097,5343 4093,5334 4089,5325 4080,5319 4064,5311 4054,5306 4038,5299 4026,5295 4012,5288 3999,5278 3987,5267 3975,5271 3961,5269 3948,5259 3935,5250 3922,5240 3912,5235 3902,5230 3891,5224 3881,5215 3879,5203 3875,5187 3871,5169 3870,5153 3868,5147 3856,5139 3841,5130 3827,5120 3810,5113 3795,5109 3786,5112 3782,5118 3778,5132 3774,5153 3758,5154 3746,5157 3731,5165 3718,5172 3703,5175 3693,5170 3685,5161 3680,5150 3679,5138 3675,5130 3667,5120 3663,5112 3665,5102 3668,5090 3665,5082 3658,5078 3650,5077 3640,5083 3630,5090 3624,5087 3613,5086 3606,5082 3599,5077 3592,5067 3587,5057 3581,5047 3575,5040 3568,5032 3566,5023 3565,5014 3561,5008 3552,5003 3541,5000 3524,5002 3512,5000 3499,4995 3485,4991 3468,4996 3451,5004 3440,5011 3431,5022 3418,5034 3410,5040 3400,5039 3387,5036 3370,5034 3354,5035 3338,5038 3322,5042 3309,5039 3304,5032 3299,5024 3293,5014 3283,5013 3272,5012 3260,5008 3254,5003 3252,4992 3247,4985 3237,4980 3225,4984 3207,4994 3186,5000 3166,5012 3149,5025 3138,5035 3127,5048 3112,5064 3096,5081 3083,5094 3074,5102 3064,5112 3057,5121 3053,5132 3050,5142 3040,5152 3025,5165 3009,5171 2993,5173 2974,5176 2957,5178 2941,5187 2927,5194 2906,5198 2888,5198 2875,5197 2865,5202 2847,5211 2833,5210 2822,5213 2816,5222 2815,5232 2815,5243 2816,5253 2817,5266 2819,5273 2818,5283 2813,5292 2806,5301 2793,5311 2778,5317 2759,5321 2735,5329 2714,5335 2694,5352 2685,5360 2678,5363 2670,5364 2641,5366 2610,5373 2571,5387 2506,5421 2488,5430 2476,5430 2424,5425 2390,5421 2356,5420 2347,5424 2330,5425 2310,5423 2295,5426 2286,5432 2284,5439 2278,5454 2272,5473 2265,5483 2253,5493 2236,5513 2224,5528 2210,5550 2198,5566 2190,5570 2177,5571 2165,5574 2152,5582 2139,5591 2124,5596 2107,5596 2093,5593 2078,5587 2065,5577 2057,5567 2047,5559 2033,5551 2014,5545 1998,5542 1984,5543 1963,5552 1944,5564 1934,5569 1933,5566 1925,5568 1914,5572 1893,5575 1878,5576 1866,5570 1854,5558 1842,5547 1826,5537 1804,5525 1786,5513 1771,5499 1772,5490 1775,5475 1776,5458 1776,5433 1775,5418 1766,5411 1752,5404 1740,5398 1727,5393 1716,5382 1709,5369 1699,5357 1691,5344 1682,5328 1674,5311 1672,5296 1677,5280 1695,5255 1720,5233 1726,5221 1730,5207 1732,5194 1732,5190 1730,5180 1727,5169 1728,5154 1729,5145 1731,5131 1735,5114 1738,5107 1746,5096 1761,5080 1774,5068 1793,5056 1808,5043 1814,5028 1814,5017 1807,5003 1797,4990 1794,4979 1799,4964 1808,4954 1827,4938 1834,4925 1834,4917 1829,4901 1826,4881 1820,4873 1817,4867 1810,4856 1803,4838 1801,4832 1796,4821 1793,4798 1797,4780 1802,4765 1801,4749 1794,4733 1772,4720 1754,4709 1749,4704 1745,4701 1741,4699 1733,4694 1720,4690 1708,4688 1703,4687 1702,4683 1705,4676 1706,4671 1706,4664 1706,4655 1706,4652 1706,4647 1703,4642 1700,4638 1697,4631 1696,4624 1696,4613 1697,4603 1700,4595 1699,4590 1693,4583 1689,4573 1688,4563 1690,4551 1693,4534 1698,4514 1706,4501 1713,4488 1713,4479 1709,4467 1707,4463 1707,4453 1700,4439 1690,4435 1685,4425 1686,4402 1685,4376 1679,4365 1667,4352 1662,4335 1658,4315 1659,4305 1660,4298 1665,4290 1668,4287 1681,4277 1698,4264 1714,4247 1727,4234 1744,4221 1767,4211 1798,4202 1803,4193 1799,4186 1791,4175 1776,4161 1762,4145 1757,4130 1756,4116 1761,4104 1772,4080 1784,4060 1795,4046 1804,4033 1806,4021 1804,4008 1803,3994 1810,3981 1822,3963 1825,3945 1835,3934 1846,3921 1858,3902 1869,3880 1879,3866 1891,3860 1913,3856 1927,3840 1933,3829 1933,3817 1934,3804 1937,3794 1942,3776 1948,3769 1950,3766 1960,3757 1967,3746 1968,3739 1968,3731 1971,3721 1980,3708 1994,3691 1999,3681 1987,3674 1986,3662 1995,3658 2007,3658 2020,3663 2032,3672 2041,3684 2051,3697 2059,3701 2068,3697 2081,3688 2083,3676 2079,3657 2080,3650 2087,3644 2092,3642 2101,3640 2114,3639 2121,3638 2124,3634 2124,3629 2121,3622 2122,3617 2124,3608 2130,3601 2133,3595 2138,3580 2145,3570 2144,3555 2150,3548 2161,3551 2171,3553 2187,3555 2195,3563 2207,3572 2214,3565 2222,3569 2229,3580 2241,3585 2251,3583 2258,3576 2258,3563 2264,3553 2272,3546 2282,3545 2298,3546 2308,3543 2312,3534 2317,3519 2324,3499 2336,3471 2340,3450 2353,3421 2355,3400 2356,3376 2360,3368 2371,3356 2380,3344 2381,3335 2377,3328 2365,3319 2353,3306 2348,3294 2353,3286 2363,3272 2377,3254 2390,3238 2390,3228 2379,3216 2373,3204 2378,3195 2382,3183 2375,3166 2378,3152 2388,3146 2398,3137 2420,3141 2437,3143 2460,3142 2472,3139 2479,3138 2493,3137 2504,3142 2518,3148 2531,3143 2542,3128 2548,3117 2564,3107 2588,3102 2605,3094 2622,3089 2637,3092 2646,3090 2652,3084 2657,3073 2661,3067 2668,3063 2686,3062 2703,3059 2717,3051 2726,3042 2728,3031 2732,3025 2741,3022 2763,3021 2786,3025 2809,3033 2828,3040 2836,3045 2841,3050 2848,3058 2855,3064 2865,3065 2878,3056 2890,3048 2910,3041 2919,3040 2926,3035 2947,3020 2962,3006 2966,3004 2978,2999 2998,2990 3012,2977 3024,2963 3039,2952 3054,2937 3069,2929 3085,2927 3103,2927 3127,2930 " class="polyStyle" id="511825" style="fill:#f6f67b"/>
<polygon points="4661,47 4689,80 4715,123 4737,152 4777,177 4786,188 4794,218 4790,258 4772,297 4748,352 4737,386 4731,422 4725,462 4708,503 4682,566 4669,604 4655,630 4640,656 4660,685 4666,713 4664,742 4692,763 4713,791 4727,817 4734,845 4764,870 4791,873 4817,874 4843,868 4868,871 4897,896 4890,915 4889,935 4887,953 4876,975 4872,986 4875,1005 4885,1019 4891,1038 4903,1050 4915,1056 4933,1058 4947,1060 4962,1066 4974,1071 4981,1075 4983,1090 4975,1105 4967,1122 4965,1138 4962,1157 4951,1177 4939,1193 4922,1208 4917,1220 4926,1244 4935,1265 4937,1288 4932,1314 4927,1335 4924,1347 4935,1365 4954,1377 4973,1380 4993,1377 5020,1370 5056,1359 5080,1353 5093,1352 5104,1355 5117,1366 5132,1384 5166,1424 5190,1445 5220,1461 5240,1462 5252,1460 5261,1478 5271,1484 5289,1485 5305,1483 5317,1486 5338,1499 5353,1505 5367,1511 5381,1528 5413,1556 5436,1576 5450,1585 5466,1588 5487,1582 5501,1583 5508,1589 5511,1601 5506,1613 5487,1623 5463,1638 5452,1648 5449,1662 5455,1677 5457,1695 5449,1708 5434,1717 5398,1737 5372,1745 5355,1750 5343,1755 5335,1763 5332,1774 5330,1791 5324,1806 5311,1820 5291,1837 5273,1853 5261,1870 5254,1889 5249,1909 5241,1925 5229,1938 5216,1950 5205,1956 5195,1961 5189,1967 5183,2017 5171,2076 5164,2105 5161,2126 5147,2149 5127,2175 5114,2199 5105,2217 5097,2229 5096,2243 5095,2263 5082,2281 5064,2299 5032,2335 5023,2350 5019,2362 5020,2373 5030,2389 5031,2397 5067,2433 5092,2466 5101,2478 5103,2484 5104,2490 5101,2497 5088,2518 5080,2523 5063,2523 5033,2518 5021,2520 4997,2527 4980,2528 4966,2532 4956,2535 4943,2538 4927,2537 4916,2537 4906,2542 4896,2552 4889,2572 4878,2589 4865,2601 4837,2621 4807,2640 4793,2657 4785,2672 4778,2699 4777,2721 4779,2743 4783,2752 4804,2770 4820,2780 4842,2782 4858,2783 4868,2789 4883,2814 4895,2827 4908,2835 4923,2843 4932,2849 4936,2856 4939,2865 4942,2878 4948,2891 4961,2907 4989,2932 4996,2940 4995,2951 4986,2958 4980,2966 4977,2972 4972,2991 4969,3010 4961,3029 4946,3052 4924,3072 4913,3081 4883,3098 4837,3129 4803,3150 4794,3161 4785,3180 4779,3195 4765,3197 4740,3196 4720,3197 4711,3204 4708,3215 4708,3234 4709,3258 4703,3280 4703,3286 4690,3297 4672,3308 4662,3318 4656,3331 4659,3348 4666,3369 4673,3397 4676,3424 4681,3447 4681,3466 4683,3474 4690,3482 4702,3486 4717,3481 4731,3476 4740,3476 4746,3480 4764,3520 4765,3526 4764,3534 4755,3540 4731,3546 4703,3547 4683,3543 4669,3541 4655,3543 4646,3560 4617,3581 4615,3590 4617,3601 4629,3616 4636,3635 4628,3646 4620,3650 4605,3655 4598,3662 4592,3666 4589,3664 4576,3663 4568,3662 4545,3659 4527,3658 4507,3660 4486,3666 4466,3673 4424,3704 4406,3726 4385,3744 4376,3761 4370,3772 4366,3785 4360,3801 4358,3821 4355,3832 4339,3844 4334,3863 4333,3884 4328,3900 4321,3904 4314,3909 4300,3916 4274,3924 4253,3923 4236,3915 4222,3891 4214,3866 4214,3841 4217,3827 4211,3813 4194,3789 4173,3772 4155,3767 4125,3765 4089,3766 4064,3772 4039,3774 4028,3774 4013,3770 3995,3757 3979,3748 3961,3745 3943,3742 3930,3734 3922,3726 3921,3717 3929,3702 3942,3689 3951,3679 3956,3666 3954,3655 3948,3645 3932,3629 3917,3617 3909,3608 3905,3597 3903,3585 3906,3576 3913,3568 3930,3550 3934,3538 3946,3497 3950,3490 3952,3485 3953,3482 3952,3477 3946,3474 3937,3476 3914,3479 3898,3475 3886,3469 3868,3446 3857,3432 3849,3425 3836,3420 3817,3418 3795,3420 3777,3429 3758,3437 3743,3437 3731,3428 3721,3411 3689,3369 3676,3355 3670,3342 3670,3326 3671,3308 3667,3291 3659,3275 3656,3260 3657,3230 3655,3211 3655,3196 3648,3188 3638,3186 3617,3186 3601,3183 3593,3169 3590,3155 3586,3153 3579,3152 3573,3153 3566,3159 3555,3163 3530,3168 3507,3169 3486,3173 3465,3173 3451,3166 3445,3160 3436,3149 3428,3142 3412,3142 3394,3145 3378,3155 3365,3159 3352,3148 3350,3133 3344,3114 3335,3101 3325,3089 3303,3070 3297,3055 3294,3041 3287,3031 3266,3011 3248,2997 3235,2983 3221,2974 3212,2961 3207,2946 3200,2939 3197,2935 3194,2931 3186,2930 3181,2931 3159,2933 3127,2930 3103,2927 3085,2927 3069,2929 3054,2937 3039,2952 3024,2963 3012,2977 2998,2990 2978,2999 2966,3004 2962,3006 2947,3020 2926,3035 2919,3040 2910,3041 2890,3048 2878,3056 2865,3065 2855,3064 2848,3058 2841,3050 2836,3045 2828,3040 2809,3033 2786,3025 2763,3021 2741,3022 2732,3025 2728,3031 2726,3042 2717,3051 2703,3059 2686,3062 2668,3063 2661,3067 2657,3073 2652,3084 2646,3090 2637,3092 2622,3089 2605,3094 2588,3102 2564,3107 2548,3117 2542,3128 2531,3143 2518,3148 2504,3142 2493,3137 2479,3138 2472,3139 2460,3142 2437,3143 2420,3141 2398,3137 2407,3120 2412,3094 2417,3069 2420,3006 2432,2969 2467,2941 2482,2904 2475,2870 2466,2822 2421,2760 2415,2731 2433,2696 2440,2670 2451,2637 2456,2610 2491,2585 2474,2559 2448,2531 2454,2504 2437,2478 2398,2443 2416,2416 2421,2374 2423,2335 2409,2308 2408,2279 2393,2252 2388,2225 2388,2198 2392,2162 2408,2132 2407,2106 2410,2066 2416,2037 2419,2002 2433,1974 2449,1948 2451,1920 2453,1892 2481,1855 2454,1832 2452,1796 2481,1760 2497,1716 2501,1685 2510,1644 2534,1614 2549,1588 2577,1551 2606,1527 2636,1521 2668,1494 2684,1449 2689,1420 2697,1383 2680,1356 2690,1330 2728,1309 2749,1266 2742,1223 2744,1190 2767,1160 2790,1122 2764,1105 2763,1076 2751,1046 2746,1008 2751,971 2722,945 2708,919 2689,893 2663,849 2700,831 2738,797 2760,771 2783,738 2813,717 2852,707 2905,715 2946,719 2973,708 2986,671 2969,644 2997,631 3029,608 3066,597 3100,605 3130,597 3161,543 3177,503 3202,462 3219,436 3252,446 3289,457 3329,449 3356,462 3404,455 3450,450 3479,443 3513,449 3539,450 3577,425 3610,430 3635,434 3661,425 3707,410 3748,392 3746,360 3741,330 3755,303 3746,217 3757,183 3783,153 3790,125 3824,130 3853,122 3889,96 3900,68 3938,83 3972,77 4018,121 4054,139 4082,121 4091,94 4104,64 4136,58 4169,72 4197,92 4224,74 4230,41 4272,34 4308,40 4337,40 4386,11 4417,24 4456,48 4497,32 4535,15 4568,7 4601,0 4644,18 " class="polyStyle" id="511827" style="fill:#d4ecb2"/>
<path d="" class="polyStyle" id="511724" style="fill:#f6f67b"/>
<path d="" class="polyStyle" id="420526" style="fill:#fbe6ef"/>
<path d="" class="polyStyle" id="511923" style="fill:#fbe6ef"/>
<path d="" class="polyStyle" id="420325" style="fill:#fbe6ef"/>
<path d="" class="polyStyle" id="511921" style="fill:#f6f67b"/>
<path d="" class="polyStyle" id="542525" style="fill:#f6f67b"/>
<path d="" class="polyStyle" id="611026" style="fill:#ee8b94"/>
<path d="" class="polyStyle" id="411023" style="fill:#fbe6ef"/>
<path d="" class="polyStyle" id="632323" style="fill:#f6f67b"/>
<path d="" class="polyStyle" id="140525" style="fill:#d4ecb2"/>
<path d="" class="polyStyle" id="410922" style="fill:#ee8b94"/>
<path d="" class="polyStyle" id="621027" style="fill:#ee8b94"/>
<path d="" class="polyStyle" id="130427" style="fill:#f6f67b"/>
<path d="" class="polyStyle" id="130121" style="fill:#ee8b94"/>
<path d="" class="polyStyle" id="610823" style="fill:#fbe6ef"/>
<path d="" class="polyStyle" id="130225" style="fill:#fbe6ef"/>
<path d="" class="polyStyle" id="130322" style="fill:#d4ecb2"/>
<path d="" class="polyStyle" id="653130" style="fill:#f6f67b"/>
<path d="" class="polyStyle" id="130822" style="fill:#fbe6ef"/>
<path d="" class="polyStyle" id="211221" style="fill:#f6f67b"/>
<path d="" class="polyStyle" id="210921" style="fill:#f6f67b"/>
<path d="" class="polyStyle" id="150223" style="fill:#f8c67d"/>
<path d="" class="polyStyle" id="220422" style="fill:#d4ecb2"/>
<path d="" class="polyStyle" id="340721" style="fill:#f6f67b"/>
<path d="" class="polyStyle" id="510824" style="fill:#d4ecb2"/>
<path d="" class="polyStyle" id="610324" style="fill:#f6f67b"/>
<polygon points="5287,842 5292,869 5304,895 5320,923 5342,960 5355,976 5375,994 5397,1005 5417,1013 5465,1062 5476,1076 5484,1090 5486,1097 5476,1148 5472,1159 5472,1174 5479,1181 5495,1180 5520,1173 5659,1112 5682,1111 5695,1116 5708,1133 5707,1152 5701,1175 5703,1192 5716,1203 5737,1215 5758,1227 5772,1239 5789,1291 5806,1312 5831,1328 5859,1335 5886,1336 5910,1338 5920,1343 5934,1357 5940,1376 5943,1390 5955,1404 5973,1419 5982,1435 5985,1458 5982,1481 5982,1511 5989,1542 5993,1573 5981,1595 5967,1612 5956,1628 5953,1644 5953,1668 5954,1695 5948,1705 5949,1723 5955,1743 5969,1759 5988,1772 6001,1778 6020,1775 6044,1765 6054,1763 6067,1771 6071,1782 6070,1800 6073,1818 6087,1839 6117,1862 6125,1866 6137,1882 6147,1914 6137,1959 6119,2004 6108,2027 6104,2042 6109,2057 6137,2070 6168,2072 6209,2066 6217,2066 6220,2066 6215,2075 6214,2083 6216,2089 6228,2093 6232,2108 6239,2122 6245,2132 6244,2142 6232,2158 6215,2173 6206,2182 6201,2192 6195,2213 6189,2222 6175,2238 6166,2250 6163,2262 6161,2269 6154,2274 6146,2278 6145,2288 6142,2299 6134,2308 6127,2315 6130,2323 6127,2329 6120,2332 6107,2332 6103,2315 6093,2306 6065,2313 6048,2319 6024,2338 6010,2359 5984,2387 5971,2404 5950,2418 5943,2429 5945,2437 5972,2456 6013,2478 6022,2487 6022,2493 6015,2500 6011,2511 6004,2510 5994,2512 5968,2508 5947,2495 5936,2486 5929,2486 5919,2495 5907,2520 5907,2529 5930,2566 5925,2574 5920,2588 5917,2598 5910,2608 5895,2623 5907,2638 5906,2682 5913,2693 5920,2705 5921,2716 5920,2725 5913,2749 5910,2766 5901,2782 5897,2793 5902,2801 5915,2806 5931,2808 5948,2819 5955,2830 5958,2839 5955,2857 5934,2883 5906,2916 5875,2950 5851,2974 5827,3004 5793,3036 5771,3060 5757,3070 5744,3075 5722,3075 5714,3069 5708,3074 5691,3098 5682,3114 5675,3121 5652,3126 5644,3130 5634,3143 5627,3163 5626,3180 5634,3193 5650,3207 5658,3221 5655,3237 5651,3250 5648,3259 5640,3278 5629,3309 5623,3340 5625,3359 5630,3371 5642,3382 5662,3387 5673,3388 5675,3412 5679,3437 5679,3454 5678,3473 5676,3489 5681,3496 5647,3513 5606,3532 5574,3549 5532,3576 5469,3620 5441,3646 5404,3680 5382,3710 5364,3736 5348,3766 5332,3796 5316,3829 5292,3864 5280,3908 5264,3937 5236,3973 5220,4016 5227,4059 5236,4092 5228,4132 5211,4180 5183,4210 5163,4248 5127,4289 5098,4345 5074,4398 5057,4438 5045,4448 5024,4449 5007,4449 4998,4453 4991,4462 4972,4465 4953,4466 4938,4472 4928,4481 4915,4496 4914,4499 4910,4502 4904,4509 4901,4516 4901,4522 4906,4552 4905,4562 4902,4572 4895,4576 4881,4587 4868,4593 4858,4597 4854,4605 4850,4602 4825,4587 4806,4580 4796,4576 4785,4576 4780,4577 4777,4575 4772,4570 4770,4566 4766,4559 4765,4553 4765,4549 4764,4543 4764,4538 4764,4529 4763,4525 4759,4522 4753,4521 4746,4519 4744,4515 4743,4509 4744,4502 4748,4497 4750,4492 4752,4489 4755,4481 4757,4470 4760,4459 4760,4454 4761,4439 4762,4435 4762,4421 4763,4415 4770,4405 4778,4397 4782,4393 4791,4384 4794,4378 4793,4373 4789,4369 4782,4364 4779,4360 4776,4356 4771,4347 4768,4342 4766,4335 4764,4329 4764,4314 4768,4307 4772,4305 4772,4301 4772,4295 4769,4284 4769,4278 4770,4273 4775,4268 4797,4254 4842,4207 4855,4202 4858,4197 4864,4194 4871,4191 4877,4188 4882,4186 4893,4178 4901,4170 4903,4163 4901,4159 4896,4157 4892,4153 4888,4153 4883,4154 4879,4157 4866,4158 4858,4158 4855,4155 4851,4150 4843,4142 4830,4137 4815,4133 4796,4125 4780,4113 4772,4100 4767,4084 4760,4076 4746,4066 4738,4051 4735,4036 4725,4025 4716,4021 4696,4018 4679,4016 4661,4005 4653,3990 4651,3970 4651,3964 4654,3962 4657,3961 4661,3960 4674,3957 4682,3953 4686,3945 4689,3941 4696,3936 4705,3929 4708,3923 4708,3914 4706,3907 4703,3901 4698,3896 4687,3887 4675,3881 4665,3876 4662,3870 4661,3865 4663,3858 4667,3851 4672,3843 4672,3835 4670,3829 4667,3826 4662,3818 4663,3814 4661,3807 4656,3804 4648,3802 4643,3796 4644,3791 4646,3787 4649,3780 4648,3773 4646,3766 4645,3760 4648,3756 4655,3749 4658,3739 4655,3728 4652,3725 4650,3722 4643,3715 4643,3710 4649,3702 4651,3695 4650,3688 4646,3683 4633,3673 4620,3668 4604,3668 4592,3666 4598,3662 4605,3655 4620,3650 4628,3646 4636,3635 4629,3616 4617,3601 4615,3590 4617,3581 4646,3560 4655,3543 4669,3541 4683,3543 4703,3547 4731,3546 4755,3540 4764,3534 4765,3526 4764,3520 4746,3480 4740,3476 4731,3476 4717,3481 4702,3486 4690,3482 4683,3474 4681,3466 4681,3447 4676,3424 4673,3397 4666,3369 4659,3348 4656,3331 4662,3318 4672,3308 4690,3297 4703,3286 4703,3280 4709,3258 4708,3234 4708,3215 4711,3204 4720,3197 4740,3196 4765,3197 4779,3195 4785,3180 4794,3161 4803,3150 4837,3129 4883,3098 4913,3081 4924,3072 4946,3052 4961,3029 4969,3010 4972,2991 4977,2972 4980,2966 4986,2958 4995,2951 4996,2940 4989,2932 4961,2907 4948,2891 4942,2878 4939,2865 4936,2856 4932,2849 4923,2843 4908,2835 4895,2827 4883,2814 4868,2789 4858,2783 4842,2782 4820,2780 4804,2770 4783,2752 4779,2743 4777,2721 4778,2699 4785,2672 4793,2657 4807,2640 4837,2621 4865,2601 4878,2589 4889,2572 4896,2552 4906,2542 4916,2537 4927,2537 4943,2538 4956,2535 4966,2532 4980,2528 4997,2527 5021,2520 5033,2518 5063,2523 5080,2523 5088,2518 5101,2497 5104,2490 5103,2484 5101,2478 5092,2466 5067,2433 5031,2397 5030,2389 5020,2373 5019,2362 5023,2350 5032,2335 5064,2299 5082,2281 5095,2263 5096,2243 5097,2229 5105,2217 5114,2199 5127,2175 5147,2149 5161,2126 5164,2105 5171,2076 5183,2017 5189,1967 5195,1961 5205,1956 5216,1950 5229,1938 5241,1925 5249,1909 5254,1889 5261,1870 5273,1853 5291,1837 5311,1820 5324,1806 5330,1791 5332,1774 5335,1763 5343,1755 5355,1750 5372,1745 5398,1737 5434,1717 5449,1708 5457,1695 5455,1677 5449,1662 5452,1648 5463,1638 5487,1623 5506,1613 5511,1601 5508,1589 5501,1583 5487,1582 5466,1588 5450,1585 5436,1576 5413,1556 5381,1528 5367,1511 5353,1505 5338,1499 5317,1486 5305,1483 5289,1485 5271,1484 5261,1478 5252,1460 5240,1462 5220,1461 5190,1445 5166,1424 5132,1384 5117,1366 5104,1355 5093,1352 5080,1353 5056,1359 5020,1370 4993,1377 4973,1380 4954,1377 4935,1365 4924,1347 4927,1335 4932,1314 4937,1288 4935,1265 4926,1244 4917,1220 4922,1208 4939,1193 4951,1177 4962,1157 4965,1138 4967,1122 4975,1105 4983,1090 4981,1075 4974,1071 4962,1066 4947,1060 4933,1058 4915,1056 4903,1050 4891,1038 4885,1019 4875,1005 4872,986 4876,975 4887,953 4889,935 4890,915 4897,896 4903,898 4909,900 4916,901 4922,901 4929,900 4935,898 4941,894 4945,890 4947,885 4948,879 4950,873 4952,868 4954,862 4957,857 4962,854 4968,855 4976,855 4982,855 4989,853 4995,851 5000,847 5006,846 5013,846 5020,848 5025,851 5030,856 5035,859 5041,861 5048,861 5054,860 5061,859 5068,858 5074,856 5080,855 5086,853 5093,851 5099,849 5106,847 5112,845 5118,844 5124,842 5130,840 5137,838 5143,835 5149,833 5155,831 5161,828 5167,826 5172,823 5178,820 5183,816 5188,812 5192,807 5196,803 5202,800 5208,798 5215,797 5221,797 5228,799 5234,800 5241,800 5248,800 5254,798 5260,796 5267,795 5273,792 5277,790 5278,793 5287,816 " class="polyStyle" id="511826" style="fill:#fbe6ef"/>
<path d="" class="polyStyle" id="530722" style="fill:#ee8b94"/>
<path d="" class="polyStyle" id="340823" style="fill:#d4ecb2"/>
<path d="" class="polyStyle" id="620825" style="fill:#d4ecb2"/>
<path d="" class="polyStyle" id="421125" style="fill:#ee8b94"/>
<path d="" class="polyStyle" id="210281" style="fill:#ee8b94"/>
<path d="" class="polyStyle" id="440883" style="fill:#f6f67b"/>
<path d="" class="polyStyle" id="469006" style="fill:#d4ecb2"/>
<path d="" class="polyStyle" id="469002" style="fill:#ee8b94"/>
<path d="" class="polyStyle" id="469005" style="fill:#fbe6ef"/>
<path d="" class="polyStyle" id="440882" style="fill:#ee8b94"/>
<path d="" class="polyStyle" id="450681" style="fill:#ee8b94"/>
<path d="" class="polyStyle" id="441581" style="fill:#d4ecb2"/>
<path d="" class="polyStyle" id="421087" style="fill:#ee8b94"/>
<path d="" class="polyStyle" id="420984" style="fill:#fbe6ef"/>
<path d="" class="polyStyle" id="420582" style="fill:#ee8b94"/>
<path d="" class="polyStyle" id="370282" style="fill:#f6f67b"/>
<path d="" class="polyStyle" id="371083" style="fill:#f6f67b"/>
<path d="" class="polyStyle" id="371082" style="fill:#fbe6ef"/>
<path d="" class="polyStyle" id="652801" style="fill:#f8c67d"/>
<path d="" class="polyStyle" id="654301" style="fill:#ee8b94"/>
<path d="" class="polyStyle" id="370687" style="fill:#ee8b94"/>
<path d="" class="polyStyle" id="371482" style="fill:#d4ecb2"/>
<path d="" class="polyStyle" id="421081" style="fill:#fbe6ef"/>
<path d="" class="polyStyle" id="429006" style="fill:#f6f67b"/>
<path d="" class="polyStyle" id="440982" style="fill:#d4ecb2"/>
<path d="" class="polyStyle" id="421181" style="fill:#d4ecb2"/>
<path d="" class="polyStyle" id="321181" style="fill:#d4ecb2"/>
<path d="" class="polyStyle" id="659007" style="fill:#ee8b94"/>
<path d="" class="polyStyle" id="652701" style="fill:#fbe6ef"/>
<path d="" class="polyStyle" id="210781" style="fill:#fbe6ef"/>
<path d="" class="polyStyle" id="460204" style="fill:#f6f67b"/>
<path d="" class="polyStyle" id="210211" style="fill:#f6f67b"/>
<path d="" class="polyStyle" id="450512" style="fill:#ee8b94"/>
<path d="" class="polyStyle" id="450602" style="fill:#fbe6ef"/>
<path d="" class="polyStyle" id="440404" style="fill:#ee8b94"/>
<path d="" class="polyStyle" id="440403" style="fill:#f6f67b"/>
<path d="" class="polyStyle" id="441502" style="fill:#f6f67b"/>
<path d="" class="polyStyle" id="431002" style="fill:#d4ecb2"/>
<path d="" class="polyStyle" id="500107" style="fill:#fbe6ef"/>
<path d="" class="polyStyle" id="430611" style="fill:#d4ecb2"/>
<polygon points="6365,4707 6372,4709 6382,4710 6389,4712 6396,4712 6406,4713 6413,4711 6428,4711 6435,4712 6445,4711 6448,4712 6458,4714 6474,4720 6493,4729 6497,4734 6498,4738 6496,4742 6483,4745 6479,4750 6476,4752 6474,4754 6471,4760 6469,4766 6467,4772 6464,4777 6461,4781 6458,4784 6456,4786 6440,4789 6429,4789 6421,4787 6411,4783 6397,4776 6382,4768 6372,4764 6350,4753 6338,4750 6332,4748 6326,4748 6319,4750 6318,4738 6320,4728 6323,4720 6328,4712 6337,4706 6348,4706 6359,4707 " class="polyStyle" id="511802" style="fill:#d4ecb2"/>
<polygon points="5705,3524 5707,3542 5706,3559 5700,3572 5698,3584 5699,3591 5738,3601 5788,3609 5843,3617 5902,3628 5924,3632 5947,3640 5956,3650 5961,3656 5967,3660 5972,3662 5968,3669 5961,3684 5951,3713 5930,3735 5905,3758 5882,3782 5868,3797 5851,3808 5830,3825 5820,3838 5807,3856 5793,3871 5777,3889 5758,3922 5747,3944 5741,3969 5735,3993 5734,4020 5736,4047 5737,4069 5738,4088 5733,4104 5717,4118 5699,4125 5677,4130 5624,4137 5612,4139 5605,4147 5600,4153 5597,4163 5601,4173 5613,4183 5624,4192 5632,4202 5634,4211 5634,4219 5630,4232 5624,4238 5618,4248 5587,4268 5559,4282 5539,4295 5534,4303 5532,4314 5530,4333 5529,4345 5533,4357 5541,4369 5575,4409 5582,4415 5590,4420 5596,4422 5614,4430 5631,4426 5644,4416 5655,4411 5672,4418 5682,4425 5688,4432 5697,4437 5707,4444 5709,4465 5711,4475 5722,4482 5732,4481 5752,4471 5763,4468 5775,4467 5792,4463 5803,4456 5812,4454 5818,4457 5821,4468 5820,4476 5818,4484 5812,4495 5802,4501 5795,4499 5786,4492 5768,4490 5758,4494 5751,4503 5753,4511 5759,4528 5768,4535 5782,4537 5795,4538 5808,4531 5817,4514 5823,4504 5833,4498 5841,4500 5851,4502 5860,4503 5875,4505 5885,4504 5903,4499 5921,4493 5932,4491 5943,4494 5968,4506 5980,4511 5986,4520 5985,4530 5994,4538 6009,4545 6019,4560 6023,4566 6024,4572 6017,4580 6006,4583 5997,4579 5985,4573 5977,4575 5981,4585 5992,4592 6008,4594 6015,4597 6016,4606 6007,4616 5978,4623 5971,4632 5976,4640 5989,4648 6015,4657 6041,4668 6052,4687 6055,4701 6057,4705 6071,4719 6099,4744 6131,4761 6157,4775 6184,4783 6222,4793 6248,4795 6282,4798 6308,4814 6331,4840 6361,4863 6355,4865 6337,4866 6318,4866 6297,4863 6281,4859 6277,4859 6272,4860 6268,4864 6267,4870 6269,4879 6277,4894 6284,4903 6289,4911 6290,4921 6290,4926 6290,4929 6298,4939 6301,4945 6303,4955 6300,4961 6298,4970 6294,4976 6289,4981 6280,4982 6274,4982 6272,4975 6268,4966 6262,4964 6236,4959 6206,4956 6189,4959 6177,4963 6144,4995 6128,5015 6114,5044 6103,5065 6087,5077 6068,5081 6055,5084 6044,5087 6026,5090 6012,5089 5999,5091 5982,5100 5982,5108 5978,5111 5973,5114 5953,5115 5934,5116 5929,5116 5927,5117 5924,5118 5920,5121 5917,5121 5909,5128 5899,5131 5879,5140 5861,5148 5853,5156 5840,5164 5820,5166 5803,5175 5787,5186 5776,5199 5760,5206 5753,5217 5754,5240 5757,5258 5768,5276 5778,5289 5793,5296 5803,5294 5818,5291 5825,5290 5836,5288 5844,5288 5844,5293 5841,5304 5846,5317 5858,5329 5875,5341 5893,5349 5906,5355 5925,5367 5943,5381 5962,5404 5974,5419 5978,5427 5982,5437 5987,5449 5989,5454 5997,5471 6003,5492 6004,5505 6004,5517 6012,5528 6024,5538 6029,5552 6034,5573 6036,5590 6044,5610 6058,5626 6070,5642 6079,5656 6086,5672 6091,5688 6096,5704 6106,5715 6121,5728 6128,5743 6136,5763 6143,5785 6148,5804 6149,5817 6148,5828 6141,5840 6127,5847 6108,5850 6094,5858 6077,5865 6062,5870 6044,5880 6032,5888 6027,5903 6029,5915 6029,5920 6041,5926 6058,5931 6070,5935 6091,5941 6112,5947 6123,5953 6128,5958 6127,5965 6123,5973 6126,5986 6130,5995 6130,6003 6119,6006 6103,6011 6092,6021 6075,6028 6061,6031 6034,6038 6041,6044 6047,6051 6051,6057 6053,6063 6056,6070 6061,6078 6074,6090 6084,6101 6086,6105 6087,6110 6086,6119 6085,6125 6071,6132 6055,6145 6022,6176 6021,6183 6021,6187 6020,6195 6022,6203 6027,6209 6031,6214 6031,6223 6028,6231 6024,6236 6022,6242 6021,6247 6020,6255 6021,6261 6024,6266 6032,6273 6040,6282 6041,6285 6044,6287 6047,6297 6049,6307 6065,6330 6065,6337 6061,6345 6045,6353 6019,6355 5993,6352 5971,6343 5957,6335 5930,6310 5917,6301 5906,6286 5892,6273 5881,6266 5872,6266 5861,6267 5851,6263 5844,6255 5836,6242 5832,6235 5825,6226 5818,6222 5811,6223 5805,6234 5803,6249 5800,6250 5795,6256 5789,6262 5784,6269 5778,6275 5775,6275 5768,6277 5760,6277 5753,6277 5747,6279 5737,6279 5725,6280 5714,6282 5709,6282 5705,6280 5699,6275 5693,6271 5688,6269 5685,6269 5675,6270 5656,6283 5627,6295 5624,6296 5620,6298 5614,6302 5606,6309 5599,6315 5591,6317 5584,6316 5578,6314 5567,6304 5564,6296 5562,6283 5571,6270 5569,6259 5568,6256 5568,6250 5570,6241 5569,6232 5568,6230 5565,6227 5562,6225 5558,6223 5556,6215 5556,6209 5555,6206 5548,6198 5539,6191 5529,6189 5517,6188 5502,6190 5488,6190 5478,6188 5470,6185 5461,6177 5459,6170 5460,6164 5464,6159 5471,6153 5475,6146 5475,6133 5472,6131 5467,6121 5460,6111 5456,6108 5451,6106 5446,6104 5441,6104 5437,6102 5432,6100 5430,6100 5428,6096 5427,6090 5424,6083 5421,6076 5416,6069 5408,6061 5402,6059 5396,6059 5382,6061 5370,6063 5367,6062 5365,6060 5362,6062 5359,6063 5355,6064 5351,6066 5346,6073 5345,6079 5344,6084 5343,6094 5337,6107 5331,6117 5326,6127 5323,6129 5322,6132 5318,6136 5314,6141 5311,6143 5297,6150 5270,6151 5241,6147 5218,6143 5202,6137 5183,6125 5151,6105 5134,6090 5131,6087 5128,6082 5118,6080 5106,6082 5014,6121 4982,6126 4986,6120 4982,6109 4979,6097 4974,6080 4970,6061 4968,6045 4964,6035 4953,6020 4950,6008 4948,6004 4944,5995 4941,5983 4938,5976 4934,5962 4927,5944 4922,5934 4929,5928 4933,5913 4936,5896 4936,5879 4938,5863 4940,5849 4936,5837 4928,5826 4925,5813 4926,5801 4933,5781 4942,5768 4955,5759 4973,5752 4983,5742 4996,5725 5008,5712 5020,5703 5030,5696 5036,5688 5034,5680 5032,5673 5029,5659 5026,5645 5022,5636 5016,5631 5006,5625 4992,5616 4989,5605 4989,5592 4989,5573 4986,5559 4982,5545 4975,5530 4967,5514 4961,5499 4955,5490 4947,5490 4935,5492 4921,5490 4907,5487 4897,5480 4887,5472 4872,5462 4856,5458 4848,5456 4837,5450 4834,5443 4829,5431 4829,5421 4824,5415 4814,5414 4801,5420 4790,5424 4763,5427 4730,5424 4711,5417 4676,5397 4660,5387 4648,5375 4641,5364 4636,5347 4637,5333 4637,5321 4640,5312 4652,5308 4663,5304 4676,5299 4686,5296 4696,5295 4707,5299 4721,5301 4733,5302 4745,5301 4755,5297 4758,5290 4759,5279 4764,5267 4772,5251 4777,5238 4782,5225 4784,5216 4783,5207 4779,5199 4773,5188 4773,5180 4775,5172 4775,5162 4769,5150 4762,5141 4750,5132 4734,5118 4727,5107 4730,5098 4732,5087 4728,5080 4718,5070 4705,5060 4695,5050 4689,5039 4689,5021 4688,5008 4689,5001 4691,4990 4692,4983 4696,4980 4703,4974 4707,4972 4716,4970 4729,4968 4741,4966 4745,4965 4756,4959 4770,4951 4791,4937 4809,4925 4823,4911 4832,4898 4843,4879 4849,4861 4853,4840 4856,4825 4859,4804 4865,4790 4872,4777 4873,4763 4870,4745 4867,4725 4872,4707 4872,4704 4873,4699 4879,4687 4880,4672 4880,4651 4874,4618 4866,4614 4862,4611 4854,4605 4858,4597 4868,4593 4881,4587 4895,4576 4902,4572 4905,4562 4906,4552 4901,4522 4901,4516 4904,4509 4910,4502 4914,4499 4915,4496 4928,4481 4938,4472 4953,4466 4972,4465 4991,4462 4998,4453 5007,4449 5024,4449 5045,4448 5057,4438 5074,4398 5098,4345 5127,4289 5163,4248 5183,4210 5211,4180 5228,4132 5236,4092 5227,4059 5220,4016 5236,3973 5264,3937 5280,3908 5292,3864 5316,3829 5332,3796 5348,3766 5364,3736 5382,3710 5404,3680 5441,3646 5469,3620 5532,3576 5574,3549 5606,3532 5647,3513 5681,3496 5696,3511 " class="polyStyle" id="511802" style="fill:#d4ecb2"/>
<polygon points="6842,3373 6851,3381 6857,3384 6863,3390 6870,3394 6873,3392 6875,3395 6880,3395 6887,3394 6894,3390 6902,3392 6896,3397 6899,3404 6906,3411 6913,3409 6920,3414 6921,3430 6926,3438 6930,3446 6931,3453 6931,3460 6930,3490 6922,3502 6913,3506 6909,3515 6922,3535 6930,3541 6937,3540 6947,3536 6971,3519 6980,3517 6993,3518 7010,3518 7023,3514 7030,3508 7037,3504 7044,3504 7056,3509 7090,3525 7099,3532 7107,3539 7116,3539 7131,3533 7137,3533 7136,3540 7140,3546 7147,3551 7153,3549 7160,3548 7172,3551 7176,3558 7180,3571 7181,3583 7182,3593 7186,3599 7188,3609 7186,3617 7182,3623 7179,3629 7178,3636 7174,3647 7167,3652 7161,3653 7155,3651 7144,3653 7146,3660 7157,3680 7162,3687 7179,3698 7175,3706 7165,3705 7154,3701 7151,3714 7151,3721 7147,3727 7136,3732 7126,3731 7113,3731 7110,3740 7112,3746 7117,3752 7121,3760 7122,3770 7124,3776 7132,3783 7137,3790 7134,3797 7128,3803 7117,3813 7111,3825 7115,3835 7123,3842 7136,3854 7136,3862 7135,3870 7133,3876 7133,3888 7130,3900 7130,3907 7136,3913 7152,3918 7177,3932 7182,3943 7182,3958 7180,3965 7175,3971 7161,3976 7154,3984 7150,3996 7149,4003 7153,4011 7165,4018 7187,4062 7204,4114 7215,4152 7217,4158 7224,4157 7230,4157 7237,4158 7247,4163 7251,4172 7255,4183 7271,4202 7282,4215 7289,4218 7279,4225 7273,4230 7256,4243 7250,4244 7232,4244 7218,4242 7202,4238 7192,4242 7182,4250 7179,4256 7172,4260 7166,4263 7164,4271 7170,4282 7170,4288 7165,4295 7157,4297 7148,4297 7142,4296 7138,4289 7138,4272 7131,4262 7124,4251 7116,4243 7107,4241 7101,4236 7096,4228 7103,4221 7118,4215 7117,4207 7097,4205 7096,4199 7091,4190 7079,4195 7072,4198 7061,4194 7055,4191 7049,4196 7055,4212 7054,4222 7057,4235 7055,4243 7048,4250 7041,4255 7028,4260 7025,4269 7023,4296 7012,4317 7005,4328 6973,4342 6965,4341 6955,4336 6948,4331 6941,4328 6934,4326 6927,4327 6899,4335 6888,4338 6879,4339 6871,4338 6865,4335 6853,4317 6845,4311 6839,4301 6842,4292 6848,4282 6850,4271 6842,4262 6834,4262 6826,4264 6816,4269 6773,4302 6755,4324 6753,4330 6751,4341 6744,4348 6736,4350 6727,4352 6716,4359 6709,4371 6703,4374 6696,4376 6684,4376 6665,4380 6657,4380 6652,4386 6655,4395 6654,4408 6635,4425 6618,4432 6613,4438 6609,4446 6608,4453 6609,4463 6611,4474 6610,4497 6603,4506 6596,4524 6589,4530 6579,4534 6568,4542 6563,4559 6560,4566 6555,4572 6545,4577 6525,4590 6524,4597 6523,4603 6514,4610 6519,4617 6530,4623 6536,4629 6536,4637 6530,4651 6527,4657 6520,4672 6515,4677 6514,4680 6510,4682 6501,4685 6488,4688 6472,4689 6468,4690 6464,4690 6461,4692 6452,4696 6450,4700 6450,4704 6449,4710 6458,4714 6448,4712 6445,4711 6435,4712 6428,4711 6413,4711 6406,4713 6396,4712 6389,4712 6382,4710 6372,4709 6365,4707 6359,4707 6348,4706 6337,4706 6328,4712 6323,4720 6320,4728 6318,4738 6319,4750 6326,4748 6332,4748 6338,4750 6350,4753 6372,4764 6382,4768 6397,4776 6411,4783 6421,4787 6429,4789 6440,4789 6456,4786 6457,4790 6457,4793 6459,4801 6460,4811 6459,4823 6454,4832 6446,4838 6433,4840 6412,4838 6406,4838 6402,4839 6396,4841 6383,4848 6376,4857 6361,4863 6331,4840 6308,4814 6282,4798 6248,4795 6222,4793 6184,4783 6157,4775 6131,4761 6099,4744 6071,4719 6057,4705 6055,4701 6052,4687 6041,4668 6015,4657 5989,4648 5976,4640 5971,4632 5978,4623 6007,4616 6016,4606 6015,4597 6008,4594 5992,4592 5981,4585 5977,4575 5985,4573 5997,4579 6006,4583 6017,4580 6024,4572 6023,4566 6019,4560 6009,4545 5994,4538 5985,4530 5986,4520 5980,4511 5968,4506 5943,4494 5932,4491 5921,4493 5903,4499 5885,4504 5875,4505 5860,4503 5851,4502 5841,4500 5833,4498 5823,4504 5817,4514 5808,4531 5795,4538 5782,4537 5768,4535 5759,4528 5753,4511 5751,4503 5758,4494 5768,4490 5786,4492 5795,4499 5802,4501 5812,4495 5818,4484 5820,4476 5821,4468 5818,4457 5812,4454 5803,4456 5792,4463 5775,4467 5763,4468 5752,4471 5732,4481 5722,4482 5711,4475 5709,4465 5707,4444 5697,4437 5688,4432 5682,4425 5672,4418 5655,4411 5644,4416 5631,4426 5614,4430 5596,4422 5590,4420 5582,4415 5575,4409 5541,4369 5533,4357 5529,4345 5530,4333 5532,4314 5534,4303 5539,4295 5559,4282 5587,4268 5618,4248 5624,4238 5630,4232 5634,4219 5634,4211 5632,4202 5624,4192 5613,4183 5601,4173 5597,4163 5600,4153 5605,4147 5612,4139 5624,4137 5677,4130 5699,4125 5717,4118 5733,4104 5738,4088 5737,4069 5736,4047 5734,4020 5735,3993 5741,3969 5747,3944 5758,3922 5777,3889 5793,3871 5807,3856 5820,3838 5830,3825 5851,3808 5868,3797 5882,3782 5905,3758 5930,3735 5951,3713 5961,3684 5968,3669 5972,3662 5984,3659 5993,3657 6009,3658 6021,3659 6035,3658 6051,3657 6061,3654 6073,3648 6084,3643 6097,3632 6123,3588 6154,3544 6172,3525 6193,3498 6205,3470 6213,3457 6224,3450 6234,3451 6241,3456 6257,3470 6288,3502 6301,3510 6316,3501 6325,3494 6337,3492 6344,3496 6351,3503 6356,3516 6364,3521 6374,3530 6377,3538 6378,3553 6382,3566 6385,3574 6391,3582 6394,3589 6394,3597 6391,3611 6388,3625 6391,3635 6396,3645 6410,3652 6428,3657 6435,3656 6448,3651 6458,3648 6465,3643 6472,3636 6482,3624 6486,3608 6482,3590 6486,3580 6494,3572 6501,3544 6508,3522 6515,3505 6520,3496 6529,3476 6545,3464 6558,3456 6581,3442 6674,3396 6684,3390 6693,3384 6713,3374 6720,3373 6727,3374 6736,3377 6745,3380 6752,3381 6760,3380 6767,3379 6779,3375 6787,3369 6797,3367 6815,3367 6829,3366 6836,3368 " class="polyStyle" id="511803" style="fill:#f6f67b"/>
<path d="" class="polyStyle" id="511304" style="fill:#fbe6ef"/>
<path d="" class="polyStyle" id="340711" style="fill:#ee8b94"/>
<path d="" class="polyStyle" id="320118" style="fill:#f6f67b"/>
<path d="" class="polyStyle" id="510704" style="fill:#f6f67b"/>
<path d="" class="polyStyle" id="411502" style="fill:#ee8b94"/>
<path d="" class="polyStyle" id="320302" style="fill:#d4ecb2"/>
<path d="" class="polyStyle" id="140311" style="fill:#ee8b94"/>
<path d="" class="polyStyle" id="610802" style="fill:#ee8b94"/>
<path d="" class="polyStyle" id="120116" style="fill:#f6f67b"/>
<path d="" class="polyStyle" id="130303" style="fill:#fbe6ef"/>
<path d="" class="polyStyle" id="140211" style="fill:#f6f67b"/>
<path d="" class="polyStyle" id="150207" style="fill:#fbe6ef"/>
<path d="" class="polyStyle" id="211403" style="fill:#f6f67b"/>
<path d="" class="polyStyle" id="150802" style="fill:#f8c67d"/>
<path d="" class="polyStyle" id="210112" style="fill:#ee8b94"/>
<path d="" class="polyStyle" id="230406" style="fill:#d4ecb2"/>
<path d="" class="polyStyle" id="110113" style="fill:#fbe6ef"/>
<path d="" class="polyStyle" id="341702" style="fill:#fbe6ef"/>
<path d="" class="polyStyle" id="420303" style="fill:#ee8b94"/>
<path d="" class="polyStyle" id="340702" style="fill:#d4ecb2"/>
<path d="" class="polyStyle" id="421002" style="fill:#f6f67b"/>
<path d="" class="polyStyle" id="420117" style="fill:#f6f67b"/>
<path d="" class="polyStyle" id="440904" style="fill:#f8c67d"/>
<path d="" class="polyStyle" id="460205" style="fill:#ee8b94"/>
<path d="" class="polyStyle" id="460202" style="fill:#f6f67b"/>
<path d="" class="polyStyle" id="460203" style="fill:#fbe6ef"/>
<path d="" class="polyStyle" id="420304" style="fill:#f6f67b"/>
<path d="" class="polyStyle" id="445302" style="fill:#ee8b94"/>
<path d="" class="polyStyle" id="410202" style="fill:#d4ecb2"/>
<path d="" class="polyStyle" id="440800" style="fill:#f6f67b"/>
<path d="" class="polyStyle" id="440900" style="fill:#ee8b94"/>
<path d="" class="polyStyle" id="340800" style="fill:#ee8b94"/>
<path d="" class="polyStyle" id="460200" style="fill:#f6f67b"/>
<path d="" class="polyStyle" id="460000" style="fill:#ee8b94"/>
<path d="" class="polyStyle" id="450500" style="fill:#ee8b94"/>
<path d="" class="polyStyle" id="450600" style="fill:#ee8b94"/>
<path d="" class="polyStyle" id="440400" style="fill:#f6f67b"/>
<path d="" class="polyStyle" id="441700" style="fill:#f6f67b"/>
<path d="" class="polyStyle" id="441500" style="fill:#f6f67b"/>
<path d="" class="polyStyle" id="350600" style="fill:#ee8b94"/>
<path d="" class="polyStyle" id="710000" style="fill:#f6f67b"/>
<path d="" class="polyStyle" id="510400" style="fill:#f6f67b"/>
<path d="" class="polyStyle" id="522600" style="fill:#fbe6ef"/>
<path d="" class="polyStyle" id="520500" style="fill:#ee8b94"/>
<path d="" class="polyStyle" id="431200" style="fill:#f6f67b"/>
<path d="" class="polyStyle" id="430600" style="fill:#f6f67b"/>
<path d="" class="polyStyle" id="511400" style="fill:#d4ecb2"/>
<path d="" class="polyStyle" id="421000" style="fill:#ee8b94"/>
<path d="" class="polyStyle" id="341700" style="fill:#f6f67b"/>
<path d="" class="polyStyle" id="420500" style="fill:#f6f67b"/>
<path d="" class="polyStyle" id="511300" style="fill:#f6f67b"/>
<path d="" class="polyStyle" id="420900" style="fill:#f6f67b"/>
<path d="" class="polyStyle" id="511700" style="fill:#ee8b94"/>
<path d="" class="polyStyle" id="420600" style="fill:#d4ecb2"/>
<path d="" class="polyStyle" id="411500" style="fill:#fbe6ef"/>
<path d="" class="polyStyle" id="510800" style="fill:#ee8b94"/>
<path d="" class="polyStyle" id="420300" style="fill:#fbe6ef"/>
<path d="" class="polyStyle" id="611000" style="fill:#ee8b94"/>
<path d="" class="polyStyle" id="620800" style="fill:#fbe6ef"/>
<path d="" class="polyStyle" id="370200" style="fill:#ee8b94"/>
<path d="" class="polyStyle" id="371000" style="fill:#f6f67b"/>
<path d="" class="polyStyle" id="370600" style="fill:#fbe6ef"/>
<path d="" class="polyStyle" id="120000" style="fill:#f6f67b"/>
<path d="" class="polyStyle" id="130200" style="fill:#ee8b94"/>
<path d="" class="polyStyle" id="130300" style="fill:#f6f67b"/>
<path d="" class="polyStyle" id="652900" style="fill:#fbe6ef"/>
<path d="" class="polyStyle" id="150500" style="fill:#d4ecb2"/>
<path d="" class="polyStyle" id="" style="fill:#d4ecb2"/>
<path d="" class="polyStyle" id="350500" style="fill:#fbe6ef"/>
<path d="" class="polyStyle" id="440400" style="fill:#f6f67b"/>
<path d="" class="polyStyle" id="421100" style="fill:#d4ecb2"/>
<path d="" class="polyStyle" id="420100" style="fill:#fbe6ef"/>
<path d="" class="polyStyle" id="532500" style="fill:#fbe6ef"/>
<path d="" class="polyStyle" id="654200" style="fill:#fbe6ef"/>
<path d="" class="polyStyle" id="210700" style="fill:#d4ecb2"/>
<path d="" class="polyStyle" id="522300" style="fill:#fbe6ef"/>
<path d="" class="polyStyle" id="" style="fill:#ee8b94"/>
<path d="" class="polyStyle" id="440400" style="fill:#f6f67b"/>
<path d="" class="polyStyle" id="620000" style="fill:#f6f67b"/>
<path d="" class="polyStyle" id="430000" style="fill:#fbe6ef"/>
<path d="" class="polyStyle" id="420000" style="fill:#ee8b94"/>
<path d="" class="polyStyle" id="410000" style="fill:#f6f67b"/>
<path d="" class="polyStyle" id="350000" style="fill:#fbe6ef"/>
<path d="" class="polyStyle" id="520000" style="fill:#f6f67b"/>
<path d="" class="polyStyle" id="" style="fill:#ee8b94"/>
</svg>
