<?xml version="1.0" encoding="UTF-8"?>
<!DOCTYPE svg PUBLIC "-//W3C//DTD SVG 1.1 Tiny//EN" "http://www.w3.org/Graphics/SVG/1.1/DTD/svg11-tiny.dtd">
<svg version="1.1" xmlns="http://www.w3.org/2000/svg" xmlns:xlink="http://www.w3.org/1999/xlink" width="100%" height="100%" viewBox="0,0,7065,7970">
<title>SVG</title>
<desc>Poligon Test</desc>
<style id="style_css_sheet" type="text/css">
.polyStyle{fill: #cccccc;stroke-width:0;fill-rule:evenodd;}
</style>
<circle cx="3087" cy="1781" r="200" stroke="black" stroke-width="1" fill="red" id="520221"position="3" name="水城县"/>
<circle cx="883" cy="6022" r="200" stroke="black" stroke-width="1" fill="red" id="520281" position="2" name="盘州市"/>
<circle cx="5876" cy="3560" r="200" stroke="black" stroke-width="1" fill="red" id="520203"position="444" name="六枝特区"/>
<circle cx="2656" cy="1705" r="200" stroke="black" stroke-width="1" fill="red" id="520201"position="14" name="钟山区"/>
<path d="" class="polyStyle" id="" style="fill:#ee8b94"/>
<path d="" class="polyStyle" id="623022" style="fill:#fbe6ef"/>
<path d="" class="polyStyle" id="211421" style="fill:#f6f67b"/>
<path d="" class="polyStyle" id="532524" style="fill:#ee8b94"/>
<path d="" class="polyStyle" id="440825" style="fill:#f6f67b"/>
<path d="" class="polyStyle" id="441721" style="fill:#f6f67b"/>
<path d="" class="polyStyle" id="450521" style="fill:#f6f67b"/>
<path d="" class="polyStyle" id="450123" style="fill:#fbe6ef"/>
<path d="" class="polyStyle" id="350624" style="fill:#f6f67b"/>
<path d="" class="polyStyle" id="" style="fill:#fbe6ef"/>
<path d="" class="polyStyle" id="451224" style="fill:#fbe6ef"/>
<path d="" class="polyStyle" id="350627" style="fill:#f6f67b"/>
<path d="" class="polyStyle" id="" style="fill:#f6f67b"/>
<path d="" class="polyStyle" id="350525" style="fill:#f6f67b"/>
<path d="" class="polyStyle" id="530124" style="fill:#ee8b94"/>
<polygon points="1444,3128 1486,3128 1531,3153 1554,3191 1561,3228 1541,3253 1496,3268 1494,3308 1504,3351 1551,3371 1579,3391 1631,3438 1641,3476 1621,3508 1609,3543 1611,3578 1616,3581 1623,3607 1632,3633 1629,3659 1644,3687 1651,3726 1636,3786 1609,3828 1599,3861 1604,3886 1644,3903 1699,3908 1731,3916 1784,3926 1846,3928 1884,3946 1919,3991 1928,3998 1947,4027 1947,4056 1958,4086 1979,4116 1978,4142 1973,4175 1993,4202 2019,4185 2044,4171 2071,4144 2098,4138 2126,4148 2152,4168 2183,4178 2211,4187 2240,4182 2266,4191 2284,4193 2295,4196 2319,4191 2346,4188 2374,4198 2399,4204 2426,4204 2455,4182 2482,4166 2501,4158 2529,4156 2554,4168 2571,4148 2566,4126 2569,4091 2581,4085 2606,4061 2632,4058 2660,4071 2685,4082 2711,4070 2739,4071 2765,4076 2796,4068 2823,4078 2852,4085 2878,4097 2892,4110 2921,4130 2920,4158 2913,4194 2919,4220 2941,4245 2990,4246 3005,4253 2998,4278 2988,4289 3003,4314 3022,4336 3036,4345 3068,4344 3098,4340 3111,4338 3149,4316 3214,4303 3274,4318 3287,4323 3270,4338 3253,4365 3244,4391 3246,4420 3255,4463 3253,4491 3244,4517 3234,4545 3225,4575 3218,4604 3190,4629 3180,4656 3173,4688 3162,4721 3161,4748 3153,4775 3131,4806 3125,4833 3121,4862 3114,4891 3123,4923 3129,4949 3155,4972 3182,4962 3200,4996 3182,5026 3176,5055 3203,5080 3189,5108 3188,5135 3182,5165 3191,5197 3194,5227 3193,5255 3164,5245 3131,5250 3107,5277 3078,5288 3058,5319 3032,5328 3015,5356 2989,5354 2961,5344 2949,5372 2919,5392 2899,5424 2896,5450 2890,5475 2864,5501 2843,5537 2816,5560 2816,5588 2825,5625 2828,5656 2816,5687 2834,5716 2814,5741 2830,5777 2841,5806 2855,5839 2846,5850 2849,5860 2873,5872 2876,5896 2882,5914 2893,5919 2906,5922 2913,5944 2924,5962 2941,5967 2952,5976 2956,5994 2957,6014 2964,6036 2982,6052 2982,6070 2981,6084 2969,6104 2952,6112 2936,6121 2942,6132 2964,6151 2964,6171 2956,6196 2954,6227 2967,6245 2971,6264 2964,6289 2946,6314 2917,6326 2892,6358 2877,6384 2840,6405 2810,6417 2774,6440 2747,6447 2734,6477 2767,6498 2795,6518 2814,6554 2823,6581 2843,6613 2863,6641 2870,6667 2871,6699 2859,6728 2844,6753 2830,6779 2855,6788 2885,6784 2910,6787 2935,6790 2962,6791 2989,6805 3016,6830 3033,6858 3007,6872 3009,6899 3025,6925 3023,6960 3029,6985 3034,7012 3015,7039 2989,7061 2963,7076 2967,7108 2949,7137 2922,7152 2911,7181 2896,7215 2877,7248 2847,7257 2825,7288 2806,7314 2783,7343 2756,7363 2763,7389 2742,7416 2722,7442 2731,7473 2724,7498 2712,7527 2703,7555 2710,7582 2717,7611 2722,7637 2733,7671 2761,7680 2790,7699 2819,7711 2847,7717 2876,7728 2897,7755 2896,7768 2878,7782 2845,7794 2827,7819 2796,7817 2770,7794 2741,7774 2712,7768 2681,7741 2649,7760 2649,7791 2652,7825 2625,7837 2599,7839 2568,7850 2543,7869 2510,7868 2479,7884 2451,7891 2423,7904 2391,7905 2356,7916 2347,7887 2320,7866 2294,7869 2264,7900 2237,7908 2209,7898 2173,7890 2147,7892 2126,7917 2096,7931 2070,7919 2042,7907 2014,7898 1987,7926 1967,7961 1942,7970 1915,7940 1889,7918 1894,7888 1900,7855 1910,7823 1902,7795 1876,7767 1848,7763 1818,7764 1826,7736 1808,7705 1779,7711 1745,7723 1749,7751 1758,7783 1730,7809 1682,7806 1680,7792 1673,7783 1660,7776 1654,7770 1643,7759 1639,7758 1635,7757 1622,7758 1618,7759 1610,7760 1602,7759 1593,7758 1583,7756 1579,7757 1573,7758 1562,7760 1558,7760 1546,7761 1532,7761 1522,7760 1514,7756 1500,7746 1482,7734 1462,7716 1440,7696 1426,7686 1420,7672 1416,7646 1412,7638 1404,7630 1374,7618 1344,7586 1326,7572 1312,7568 1298,7568 1292,7570 1285,7577 1280,7580 1270,7596 1268,7604 1264,7618 1262,7626 1258,7628 1254,7632 1248,7632 1236,7630 1210,7608 1190,7596 1158,7570 1148,7564 1142,7556 1142,7546 1144,7542 1150,7532 1172,7524 1176,7516 1176,7484 1184,7444 1178,7396 1184,7342 1178,7330 1166,7326 1160,7316 1162,7300 1174,7262 1198,7238 1210,7164 1210,7140 1218,7094 1224,7074 1234,7034 1240,6986 1242,6972 1238,6966 1232,6958 1218,6948 1206,6942 1198,6941 1195,6944 1191,6948 1189,6952 1187,6957 1180,6961 1175,6967 1173,6971 1174,6976 1196,6999 1202,7008 1204,7022 1205,7031 1196,7034 1190,7034 1180,7030 1165,7017 1160,7010 1153,6998 1151,6994 1148,6986 1145,6984 1140,6975 1136,6971 1132,6972 1130,6977 1128,6980 1124,6982 1119,6981 1111,6979 1104,6976 1098,6971 1092,6965 1087,6962 1081,6959 1077,6956 1042,6980 974,7052 970,7054 934,7076 896,7104 886,7114 878,7120 874,7122 868,7126 862,7128 856,7128 852,7128 802,7120 796,7120 792,7118 758,7114 718,7110 714,7110 709,7112 702,7118 698,7126 698,7154 700,7160 700,7170 702,7180 704,7184 704,7198 702,7208 698,7214 690,7224 678,7228 670,7230 644,7230 636,7224 632,7220 622,7170 604,7152 562,7126 556,7120 552,7108 552,7102 550,7094 554,7088 558,7082 563,7077 570,7074 594,7068 604,7066 608,7066 622,7060 630,7044 634,7012 634,6982 632,6968 636,6960 636,6952 622,6938 632,6900 614,6862 618,6848 630,6832 630,6822 618,6814 600,6796 592,6788 584,6764 582,6744 588,6738 594,6734 598,6730 590,6714 574,6688 556,6664 546,6662 522,6658 510,6654 502,6634 488,6620 476,6618 442,6622 404,6624 392,6630 380,6642 368,6658 354,6672 294,6710 280,6714 276,6706 276,6698 276,6692 284,6680 304,6650 306,6628 304,6620 302,6606 294,6590 288,6584 282,6580 274,6578 228,6582 220,6580 190,6562 172,6562 168,6574 166,6596 164,6602 160,6608 156,6612 152,6612 144,6608 124,6562 116,6538 114,6514 102,6498 90,6484 78,6472 64,6468 50,6460 38,6446 36,6436 34,6426 76,6391 76,6388 74,6378 68,6372 56,6362 22,6330 6,6310 4,6304 0,6294 0,6286 2,6282 16,6272 26,6260 32,6246 38,6230 32,6166 40,6132 48,6110 52,6104 66,6076 70,6058 70,6046 68,6040 56,6016 52,6006 48,5994 48,5988 50,5980 56,5974 66,5966 72,5956 76,5948 86,5918 88,5912 88,5908 90,5896 90,5888 90,5880 88,5874 74,5848 74,5844 74,5838 74,5830 80,5814 102,5770 107,5769 112,5770 122,5786 132,5804 142,5822 164,5838 190,5854 212,5862 208,5878 208,5890 214,5900 240,5920 268,5934 280,5936 302,5938 310,5934 326,5926 336,5916 350,5906 356,5898 366,5886 368,5882 380,5864 390,5834 394,5818 396,5806 398,5782 402,5776 411,5774 414,5776 422,5786 429,5790 438,5792 446,5790 450,5790 454,5782 452,5708 478,5670 480,5652 478,5634 456,5602 454,5592 460,5588 470,5588 478,5594 482,5604 503,5609 508,5608 512,5606 516,5598 556,5542 604,5500 610,5486 608,5462 602,5440 576,5394 574,5382 576,5374 588,5356 636,5264 648,5252 660,5246 662,5238 660,5232 650,5226 638,5222 630,5128 626,5118 618,5112 606,5108 596,5112 588,5114 572,5128 564,5134 560,5136 554,5134 548,5132 544,5128 542,5122 528,5062 526,5044 524,5036 524,5030 524,5026 526,5020 529,5015 566,4986 602,4990 610,4984 618,4966 646,4948 668,4914 676,4902 686,4888 688,4884 690,4878 690,4872 688,4866 676,4854 654,4824 652,4814 658,4800 668,4788 680,4776 702,4744 720,4746 746,4704 754,4690 766,4646 760,4626 766,4606 776,4596 780,4588 780,4550 806,4538 798,4528 776,4502 762,4458 760,4448 758,4442 756,4433 761,4430 764,4430 772,4430 792,4432 802,4430 806,4418 818,4344 820,4330 812,4326 766,4314 754,4308 772,4302 802,4298 802,4286 794,4272 788,4256 776,4248 744,4236 735,4231 730,4226 730,4218 730,4210 730,4202 736,4180 748,4160 772,4142 786,4136 798,4150 826,4176 844,4190 900,4220 916,4224 923,4228 930,4228 940,4230 954,4234 968,4234 988,4236 1001,4235 1001,4233 1001,4229 998,4220 990,4197 992,4192 994,4185 999,4178 1006,4173 1014,4170 1020,4168 1033,4164 1043,4159 1046,4157 1054,4148 1059,4142 1072,4123 1077,4116 1085,4102 1089,4094 1092,4089 1094,4079 1096,4071 1097,4053 1098,4048 1101,4036 1102,4031 1102,4021 1101,4015 1101,4009 1098,3994 1097,3989 1087,3973 1080,3965 1066,3952 1063,3947 1061,3942 1057,3933 1057,3926 1057,3919 1056,3915 1054,3907 1053,3902 1053,3897 1052,3891 1051,3885 1052,3879 1050,3874 1051,3844 1052,3834 1053,3822 1054,3811 1055,3805 1056,3799 1056,3770 1055,3764 1054,3757 1056,3752 1059,3745 1064,3738 1074,3728 1079,3727 1094,3718 1104,3711 1108,3706 1116,3692 1119,3685 1123,3672 1124,3666 1133,3643 1139,3632 1144,3624 1155,3606 1159,3596 1160,3591 1161,3584 1160,3577 1156,3568 1152,3558 1150,3552 1151,3545 1154,3539 1161,3529 1169,3520 1174,3517 1183,3516 1195,3516 1203,3512 1208,3503 1211,3493 1212,3487 1214,3482 1216,3476 1219,3468 1219,3465 1216,3462 1209,3459 1201,3455 1197,3450 1194,3445 1193,3439 1191,3429 1190,3425 1188,3416 1185,3407 1180,3399 1175,3384 1173,3377 1172,3361 1171,3348 1170,3342 1169,3337 1169,3333 1168,3328 1166,3325 1174,3320 1192,3307 1200,3298 1206,3287 1217,3259 1223,3247 1234,3230 1245,3220 1253,3213 1263,3206 1270,3202 1288,3192 1290,3189 1319,3166 1322,3165 1323,3162 1335,3150 1354,3132 1363,3122 1367,3115 1391,3116 " class="polyStyle" id="520222" style="fill:#ee8b94"/>
<polygon points="3540,20 3566,19 3592,39 3600,65 3594,108 3600,156 3603,197 3608,229 3591,250 3561,261 3535,275 3522,300 3495,315 3469,311 3448,320 3435,347 3429,374 3437,401 3444,427 3427,453 3441,479 3468,491 3496,503 3526,506 3552,502 3581,495 3607,500 3632,528 3661,548 3686,557 3712,565 3728,590 3754,606 3761,635 3752,660 3725,671 3699,667 3679,696 3683,723 3710,748 3742,755 3768,765 3793,783 3819,802 3846,796 3872,802 3890,828 3906,855 3923,882 3896,903 3870,927 3844,953 3818,979 3805,1005 3816,1031 3844,1048 3854,1076 3850,1108 3852,1138 3880,1147 3905,1156 3905,1182 3908,1211 3917,1238 3923,1265 3919,1291 3898,1317 3889,1344 3917,1359 3943,1358 3963,1385 3979,1417 3989,1442 3991,1469 4008,1496 4020,1510 4052,1490 4080,1472 4077,1500 4069,1526 4100,1548 4124,1577 4125,1610 4145,1637 4150,1663 4159,1692 4185,1706 4214,1685 4243,1661 4272,1650 4304,1633 4334,1629 4360,1632 4385,1637 4405,1662 4433,1688 4463,1698 4490,1696 4520,1703 4521,1743 4515,1769 4506,1801 4488,1827 4483,1852 4515,1885 4540,1915 4572,1925 4599,1944 4626,1946 4652,1954 4678,1962 4711,1973 4716,1974 4701,2000 4685,2026 4663,2054 4636,2070 4611,2081 4584,2089 4563,2098 4554,2113 4562,2147 4581,2173 4597,2194 4621,2215 4653,2236 4681,2252 4687,2256 4703,2266 4715,2276 4737,2311 4750,2330 4737,2362 4713,2388 4689,2414 4662,2426 4636,2453 4610,2477 4585,2491 4560,2507 4534,2532 4504,2535 4486,2556 4474,2586 4449,2598 4401,2596 4384,2601 4377,2607 4371,2634 4372,2674 4383,2687 4394,2692 4387,2717 4393,2744 4405,2761 4439,2774 4478,2781 4551,2772 4578,2775 4588,2782 4610,2811 4618,2825 4623,2849 4636,2874 4658,2905 4655,2925 4652,2940 4640,2978 4624,3004 4620,3032 4598,3053 4558,3075 4534,3099 4528,3113 4519,3142 4507,3169 4499,3195 4487,3220 4489,3247 4476,3273 4484,3298 4491,3327 4482,3353 4475,3377 4460,3388 4408,3398 4399,3421 4390,3456 4378,3472 4370,3480 4356,3497 4354,3509 4350,3544 4329,3556 4288,3557 4261,3560 4234,3563 4226,3565 4213,3587 4210,3614 4201,3647 4190,3670 4161,3688 4130,3715 4103,3736 4077,3763 4069,3777 4053,3777 4031,3766 3989,3779 3932,3792 3863,3792 3818,3761 3807,3739 3783,3730 3763,3727 3737,3721 3708,3723 3690,3751 3662,3772 3634,3785 3603,3819 3573,3839 3542,3868 3522,3893 3493,3922 3468,3964 3486,3973 3493,3999 3468,4025 3446,4056 3450,4083 3468,4100 3483,4100 3509,4102 3518,4108 3547,4090 3553,4090 3552,4097 3538,4113 3513,4133 3486,4151 3453,4169 3430,4183 3419,4197 3417,4212 3420,4226 3425,4242 3427,4255 3422,4258 3399,4251 3373,4245 3348,4249 3323,4277 3313,4304 3293,4318 3287,4323 3274,4318 3214,4303 3149,4316 3111,4338 3098,4340 3068,4344 3036,4345 3022,4336 3003,4314 2988,4289 2998,4278 3005,4253 2990,4246 2941,4245 2919,4220 2913,4194 2920,4158 2921,4130 2892,4110 2878,4097 2852,4085 2823,4078 2796,4068 2765,4076 2739,4071 2711,4070 2685,4082 2660,4071 2632,4058 2606,4061 2581,4085 2569,4091 2566,4126 2571,4148 2554,4168 2529,4156 2501,4158 2482,4166 2455,4182 2426,4204 2399,4204 2374,4198 2346,4188 2319,4191 2295,4196 2284,4193 2266,4191 2240,4182 2211,4187 2183,4178 2152,4168 2126,4148 2098,4138 2071,4144 2044,4171 2019,4185 1993,4202 1973,4175 1978,4142 1979,4116 1958,4086 1947,4056 1947,4027 1928,3998 1919,3991 1884,3946 1846,3928 1784,3926 1731,3916 1699,3908 1644,3903 1604,3886 1599,3861 1609,3828 1636,3786 1651,3726 1644,3687 1629,3659 1632,3633 1623,3607 1616,3581 1611,3578 1609,3543 1621,3508 1641,3476 1631,3438 1579,3391 1551,3371 1504,3351 1494,3308 1496,3268 1541,3253 1561,3228 1554,3191 1531,3153 1486,3128 1444,3128 1391,3116 1367,3115 1368,3107 1370,3097 1369,3094 1371,3089 1374,3077 1382,3063 1392,3052 1403,3040 1409,3032 1411,3026 1414,3016 1415,3009 1416,3004 1421,3001 1426,2999 1432,2996 1451,2991 1456,2989 1464,2987 1479,2984 1496,2981 1501,2980 1514,2980 1519,2979 1526,2977 1538,2971 1546,2967 1570,2952 1576,2949 1581,2948 1587,2948 1594,2949 1599,2950 1603,2951 1621,2950 1627,2950 1637,2948 1642,2948 1647,2946 1662,2943 1668,2941 1689,2936 1696,2934 1704,2931 1712,2926 1718,2924 1736,2919 1745,2914 1755,2907 1757,2898 1756,2886 1756,2871 1755,2864 1753,2851 1753,2841 1752,2833 1753,2825 1754,2820 1755,2815 1757,2810 1762,2803 1770,2797 1785,2782 1801,2768 1809,2765 1816,2765 1822,2766 1827,2767 1836,2769 1850,2771 1858,2769 1865,2764 1871,2755 1875,2746 1877,2737 1877,2730 1877,2724 1875,2713 1877,2706 1881,2700 1875,2698 1870,2696 1863,2693 1851,2685 1842,2678 1829,2666 1825,2661 1816,2648 1812,2639 1802,2624 1790,2609 1784,2598 1782,2591 1783,2588 1784,2584 1786,2578 1798,2552 1800,2542 1799,2530 1796,2522 1793,2513 1785,2496 1785,2492 1786,2479 1786,2472 1786,2461 1783,2451 1784,2439 1785,2435 1787,2423 1786,2420 1780,2415 1772,2410 1757,2405 1746,2403 1735,2402 1730,2401 1719,2399 1712,2397 1706,2396 1698,2395 1683,2394 1679,2394 1672,2392 1664,2390 1656,2381 1652,2374 1651,2369 1649,2361 1645,2353 1642,2350 1635,2342 1629,2338 1622,2328 1619,2321 1618,2317 1618,2311 1619,2302 1620,2298 1623,2285 1629,2274 1632,2266 1636,2254 1638,2250 1640,2246 1644,2231 1644,2224 1648,2216 1650,2209 1652,2205 1653,2199 1645,2186 1638,2178 1631,2168 1628,2165 1618,2148 1616,2145 1607,2134 1599,2126 1592,2124 1585,2119 1574,2109 1568,2099 1565,2093 1560,2083 1555,2076 1548,2068 1545,2061 1538,2050 1531,2044 1526,2043 1516,2040 1509,2037 1499,2030 1493,2023 1481,2008 1479,2005 1467,1995 1456,1988 1453,1988 1449,1985 1441,1983 1435,1981 1429,1979 1411,1973 1405,1971 1392,1967 1386,1965 1373,1961 1369,1960 1364,1960 1350,1960 1344,1962 1335,1965 1322,1967 1315,1965 1310,1956 1308,1944 1307,1940 1307,1935 1306,1929 1305,1924 1303,1919 1301,1909 1304,1901 1316,1888 1319,1884 1322,1877 1324,1872 1326,1865 1354,1869 1385,1876 1412,1883 1437,1891 1466,1891 1499,1910 1526,1914 1555,1926 1584,1941 1611,1953 1642,1965 1672,1974 1699,1977 1727,1983 1752,1994 1778,2006 1808,2014 1835,2002 1857,1974 1849,1947 1823,1929 1815,1902 1836,1876 1847,1858 1837,1840 1854,1826 1902,1835 1904,1807 1906,1781 1907,1753 1913,1721 1924,1692 1928,1663 1910,1635 1911,1615 1929,1580 1940,1548 1959,1530 1986,1516 2007,1490 2037,1468 2062,1451 2072,1454 2083,1456 2104,1460 2121,1467 2132,1477 2141,1491 2151,1508 2161,1515 2178,1521 2180,1524 2178,1529 2170,1538 2166,1545 2162,1556 2162,1562 2165,1566 2171,1568 2192,1565 2217,1562 2237,1559 2249,1561 2250,1567 2259,1604 2279,1638 2316,1674 2373,1700 2491,1740 2547,1773 2617,1828 2708,1883 2852,1947 2890,1943 2913,1927 2969,1854 3028,1777 3080,1755 3136,1742 3173,1741 3234,1754 3273,1774 3306,1746 3318,1748 3325,1746 3324,1743 3319,1735 3322,1733 3331,1731 3335,1727 3341,1720 3348,1718 3359,1720 3365,1717 3367,1711 3365,1699 3366,1689 3371,1681 3377,1674 3379,1665 3380,1658 3385,1649 3385,1639 3383,1633 3379,1630 3363,1623 3357,1617 3358,1604 3359,1598 3362,1593 3384,1571 3370,1559 3358,1536 3360,1510 3369,1478 3387,1447 3405,1420 3411,1399 3407,1388 3390,1384 3323,1410 3231,1425 3145,1427 3132,1431 3124,1445 3127,1505 3122,1542 3103,1550 3090,1544 3078,1535 3041,1529 3003,1516 2986,1504 2886,1492 2853,1480 2843,1461 2848,1430 2896,1370 2916,1339 2924,1303 2914,1279 2880,1272 2805,1282 2788,1281 2778,1273 2780,1238 2813,1197 2835,1161 2835,1120 2825,1092 2803,1086 2778,1081 2763,1066 2763,1050 2773,1030 2823,990 2851,966 2858,940 2853,926 2826,900 2790,862 2783,847 2785,834 2800,825 2813,806 2808,797 2789,790 2740,800 2721,805 2701,798 2639,772 2593,761 2515,762 2474,773 2436,812 2407,835 2386,842 2371,829 2361,792 2323,685 2297,650 2247,603 2260,601 2289,576 2307,547 2335,534 2361,524 2391,508 2410,483 2424,457 2442,429 2469,405 2468,378 2485,350 2513,325 2537,297 2547,267 2543,239 2559,212 2584,188 2599,162 2626,143 2641,108 2673,107 2683,145 2700,172 2725,198 2754,206 2781,221 2786,251 2779,278 2788,305 2801,331 2825,360 2851,373 2879,384 2908,409 2937,416 2964,436 2993,444 3020,427 3051,415 3080,424 3109,418 3136,390 3122,362 3092,337 3085,312 3110,290 3112,265 3123,238 3146,210 3157,180 3186,166 3212,146 3237,122 3266,92 3291,62 3322,44 3350,34 3379,28 3409,24 3438,4 3476,1 3488,0 3514,16 " class="polyStyle" id="520221" style="fill:#fbe6ef"/>
<path d="" class="polyStyle" id="522627" style="fill:#ee8b94"/>
<path d="" class="polyStyle" id="510421" style="fill:#fbe6ef"/>
<path d="" class="polyStyle" id="522623" style="fill:#d4ecb2"/>
<path d="" class="polyStyle" id="430321" style="fill:#d4ecb2"/>
<path d="" class="polyStyle" id="511129" style="fill:#d4ecb2"/>
<path d="" class="polyStyle" id="511423" style="fill:#ee8b94"/>
<path d="" class="polyStyle" id="421023" style="fill:#f6f67b"/>
<path d="" class="polyStyle" id="511724" style="fill:#f6f67b"/>
<path d="" class="polyStyle" id="420526" style="fill:#fbe6ef"/>
<path d="" class="polyStyle" id="511923" style="fill:#fbe6ef"/>
<path d="" class="polyStyle" id="420325" style="fill:#fbe6ef"/>
<path d="" class="polyStyle" id="511921" style="fill:#f6f67b"/>
<path d="" class="polyStyle" id="542525" style="fill:#f6f67b"/>
<path d="" class="polyStyle" id="611026" style="fill:#ee8b94"/>
<path d="" class="polyStyle" id="411023" style="fill:#fbe6ef"/>
<path d="" class="polyStyle" id="632323" style="fill:#f6f67b"/>
<path d="" class="polyStyle" id="140525" style="fill:#d4ecb2"/>
<path d="" class="polyStyle" id="410922" style="fill:#ee8b94"/>
<path d="" class="polyStyle" id="621027" style="fill:#ee8b94"/>
<path d="" class="polyStyle" id="130427" style="fill:#f6f67b"/>
<path d="" class="polyStyle" id="130121" style="fill:#ee8b94"/>
<path d="" class="polyStyle" id="610823" style="fill:#fbe6ef"/>
<path d="" class="polyStyle" id="130225" style="fill:#fbe6ef"/>
<path d="" class="polyStyle" id="130322" style="fill:#d4ecb2"/>
<path d="" class="polyStyle" id="653130" style="fill:#f6f67b"/>
<path d="" class="polyStyle" id="130822" style="fill:#fbe6ef"/>
<path d="" class="polyStyle" id="211221" style="fill:#f6f67b"/>
<path d="" class="polyStyle" id="210921" style="fill:#f6f67b"/>
<path d="" class="polyStyle" id="150223" style="fill:#f8c67d"/>
<path d="" class="polyStyle" id="220422" style="fill:#d4ecb2"/>
<path d="" class="polyStyle" id="340721" style="fill:#f6f67b"/>
<path d="" class="polyStyle" id="510824" style="fill:#d4ecb2"/>
<path d="" class="polyStyle" id="610324" style="fill:#f6f67b"/>
<path d="" class="polyStyle" id="530722" style="fill:#ee8b94"/>
<path d="" class="polyStyle" id="340823" style="fill:#d4ecb2"/>
<path d="" class="polyStyle" id="620825" style="fill:#d4ecb2"/>
<path d="" class="polyStyle" id="421125" style="fill:#ee8b94"/>
<path d="" class="polyStyle" id="210281" style="fill:#ee8b94"/>
<path d="" class="polyStyle" id="440883" style="fill:#f6f67b"/>
<path d="" class="polyStyle" id="469006" style="fill:#d4ecb2"/>
<path d="" class="polyStyle" id="469002" style="fill:#ee8b94"/>
<path d="" class="polyStyle" id="469005" style="fill:#fbe6ef"/>
<path d="" class="polyStyle" id="440882" style="fill:#ee8b94"/>
<path d="" class="polyStyle" id="450681" style="fill:#ee8b94"/>
<path d="" class="polyStyle" id="441581" style="fill:#d4ecb2"/>
<path d="" class="polyStyle" id="421087" style="fill:#ee8b94"/>
<path d="" class="polyStyle" id="420984" style="fill:#fbe6ef"/>
<path d="" class="polyStyle" id="420582" style="fill:#ee8b94"/>
<path d="" class="polyStyle" id="370282" style="fill:#f6f67b"/>
<path d="" class="polyStyle" id="371083" style="fill:#f6f67b"/>
<path d="" class="polyStyle" id="371082" style="fill:#fbe6ef"/>
<path d="" class="polyStyle" id="652801" style="fill:#f8c67d"/>
<path d="" class="polyStyle" id="654301" style="fill:#ee8b94"/>
<path d="" class="polyStyle" id="370687" style="fill:#ee8b94"/>
<path d="" class="polyStyle" id="371482" style="fill:#d4ecb2"/>
<path d="" class="polyStyle" id="421081" style="fill:#fbe6ef"/>
<path d="" class="polyStyle" id="429006" style="fill:#f6f67b"/>
<path d="" class="polyStyle" id="440982" style="fill:#d4ecb2"/>
<path d="" class="polyStyle" id="421181" style="fill:#d4ecb2"/>
<path d="" class="polyStyle" id="321181" style="fill:#d4ecb2"/>
<path d="" class="polyStyle" id="659007" style="fill:#ee8b94"/>
<path d="" class="polyStyle" id="652701" style="fill:#fbe6ef"/>
<path d="" class="polyStyle" id="210781" style="fill:#fbe6ef"/>
<path d="" class="polyStyle" id="460204" style="fill:#f6f67b"/>
<path d="" class="polyStyle" id="210211" style="fill:#f6f67b"/>
<path d="" class="polyStyle" id="450512" style="fill:#ee8b94"/>
<path d="" class="polyStyle" id="450602" style="fill:#fbe6ef"/>
<path d="" class="polyStyle" id="440404" style="fill:#ee8b94"/>
<path d="" class="polyStyle" id="440403" style="fill:#f6f67b"/>
<path d="" class="polyStyle" id="441502" style="fill:#f6f67b"/>
<path d="" class="polyStyle" id="431002" style="fill:#d4ecb2"/>
<polygon points="5000,1936 5030,1946 5055,1967 5081,1990 5098,2017 5124,2034 5150,2043 5159,2044 5163,2045 5167,2045 5173,2045 5181,2045 5186,2045 5191,2044 5195,2043 5200,2041 5205,2039 5209,2038 5214,2037 5218,2037 5221,2040 5220,2043 5218,2048 5212,2055 5211,2058 5209,2061 5207,2063 5206,2067 5204,2072 5203,2076 5202,2080 5202,2083 5203,2086 5192,2091 5178,2097 5163,2105 5158,2112 5157,2118 5158,2122 5167,2136 5181,2156 5185,2163 5194,2177 5196,2180 5198,2187 5201,2199 5205,2211 5208,2224 5212,2236 5214,2239 5220,2242 5230,2240 5246,2232 5247,2223 5249,2209 5254,2198 5263,2188 5273,2185 5283,2186 5291,2190 5299,2200 5304,2213 5309,2226 5315,2238 5327,2254 5342,2264 5355,2265 5367,2266 5380,2268 5393,2270 5405,2272 5419,2274 5434,2287 5455,2292 5465,2292 5476,2292 5486,2292 5496,2292 5506,2290 5516,2287 5526,2285 5535,2285 5544,2285 5553,2285 5564,2289 5574,2293 5584,2296 5602,2296 5622,2297 5635,2301 5638,2313 5638,2325 5632,2335 5626,2345 5626,2352 5626,2362 5626,2372 5626,2382 5627,2392 5629,2401 5631,2411 5637,2422 5645,2425 5655,2425 5671,2421 5680,2415 5689,2408 5698,2401 5707,2397 5715,2393 5725,2389 5749,2379 5766,2375 5784,2375 5791,2383 5803,2386 5813,2380 5816,2365 5822,2348 5834,2340 5842,2341 5846,2350 5862,2363 5871,2364 5881,2366 5890,2366 5900,2369 5910,2371 5920,2374 5930,2376 5941,2381 5951,2386 5962,2390 5981,2401 5991,2413 5991,2423 5991,2426 5991,2429 5993,2432 5994,2438 5995,2445 5994,2449 5993,2452 5992,2455 5988,2461 5981,2467 5979,2471 5975,2476 5973,2480 5971,2483 5971,2486 5974,2490 5978,2493 5982,2495 5985,2497 5990,2498 5994,2501 5997,2503 6002,2507 6003,2510 6015,2514 6021,2520 6026,2532 6027,2553 6026,2562 6025,2571 6025,2580 6026,2601 6040,2627 6054,2644 6055,2649 6057,2655 6060,2660 6065,2666 6072,2671 6077,2673 6088,2691 6093,2696 6096,2702 6099,2706 6105,2711 6108,2714 6119,2720 6129,2731 6130,2738 6123,2747 6119,2759 6124,2770 6123,2777 6123,2783 6123,2791 6122,2793 6121,2799 6118,2804 6114,2807 6106,2810 6094,2813 6083,2815 6071,2815 6062,2814 6057,2814 6051,2815 6050,2821 6050,2825 6053,2832 6052,2837 6049,2840 6044,2840 6038,2839 6032,2840 6026,2841 6020,2843 6011,2846 6002,2850 5992,2853 5988,2857 5984,2860 5981,2863 5975,2868 5973,2871 5970,2873 5969,2876 5966,2878 5962,2882 5958,2885 5956,2888 5953,2890 5950,2893 5946,2896 5942,2900 5939,2904 5938,2908 5939,2914 5939,2923 5941,2931 5943,2935 5945,2942 5944,2948 5930,2971 5925,2978 5920,2981 5914,2982 5908,2984 5907,2989 5903,2994 5895,3004 5889,3011 5886,3019 5884,3022 5882,3027 5885,3032 5891,3033 5903,3035 5905,3038 5905,3047 5904,3053 5905,3058 5908,3058 5920,3056 5928,3053 5933,3054 5934,3059 5931,3067 5925,3078 5920,3087 5912,3099 5906,3106 5899,3114 5874,3130 5872,3133 5869,3137 5864,3141 5861,3142 5856,3146 5849,3148 5845,3151 5841,3152 5839,3153 5836,3154 5828,3156 5823,3157 5819,3157 5815,3160 5811,3165 5809,3169 5809,3172 5811,3175 5815,3179 5819,3182 5822,3183 5827,3184 5830,3186 5834,3187 5836,3191 5838,3194 5839,3198 5839,3202 5838,3206 5836,3208 5833,3211 5829,3217 5826,3219 5821,3223 5815,3246 5812,3250 5807,3254 5804,3257 5806,3262 5807,3266 5807,3269 5806,3272 5806,3274 5817,3279 5820,3283 5823,3287 5825,3290 5828,3294 5831,3296 5834,3299 5838,3302 5841,3307 5851,3313 5863,3318 5875,3323 5886,3328 5896,3333 5907,3337 5916,3340 5924,3342 5924,3346 5918,3355 5919,3361 5921,3368 5925,3373 5932,3379 5939,3385 5940,3388 5934,3390 5931,3393 5933,3399 5940,3412 5943,3414 5946,3415 5953,3419 5956,3420 5959,3421 5963,3424 5970,3428 5972,3430 5977,3434 5983,3439 5985,3442 5988,3446 5995,3456 5996,3460 5996,3468 5999,3468 6002,3469 6012,3469 6023,3463 6033,3458 6042,3451 6049,3442 6055,3432 6062,3420 6064,3414 6066,3411 6070,3407 6076,3404 6082,3404 6091,3404 6101,3406 6109,3410 6108,3413 6104,3417 6111,3421 6119,3421 6118,3425 6115,3433 6113,3442 6112,3449 6109,3457 6108,3461 6108,3470 6108,3478 6112,3479 6116,3478 6128,3477 6131,3476 6141,3477 6152,3480 6165,3476 6170,3471 6176,3461 6182,3450 6187,3448 6191,3446 6195,3444 6198,3444 6202,3442 6205,3441 6210,3438 6214,3436 6223,3432 6227,3432 6235,3431 6240,3430 6245,3430 6250,3432 6254,3434 6260,3438 6266,3444 6270,3448 6274,3452 6281,3458 6285,3460 6291,3463 6295,3464 6304,3463 6307,3463 6310,3463 6314,3461 6322,3460 6326,3459 6331,3459 6336,3458 6345,3458 6361,3447 6378,3432 6389,3427 6404,3427 6411,3428 6415,3431 6415,3435 6409,3451 6408,3462 6411,3472 6418,3482 6424,3484 6432,3484 6439,3489 6440,3494 6443,3499 6446,3503 6446,3509 6446,3514 6449,3520 6454,3521 6457,3522 6460,3522 6462,3525 6469,3528 6472,3529 6481,3530 6484,3530 6506,3534 6513,3536 6521,3537 6531,3538 6544,3540 6555,3541 6566,3544 6577,3544 6589,3544 6599,3546 6609,3549 6620,3552 6646,3549 6654,3549 6658,3549 6662,3548 6667,3547 6671,3546 6673,3545 6677,3545 6680,3544 6684,3543 6687,3542 6692,3543 6696,3543 6699,3544 6703,3544 6707,3544 6712,3544 6719,3545 6724,3543 6737,3543 6740,3543 6747,3544 6753,3544 6757,3544 6760,3544 6764,3545 6770,3548 6773,3549 6777,3549 6780,3550 6786,3553 6794,3557 6798,3560 6803,3562 6810,3565 6816,3567 6820,3569 6823,3571 6827,3572 6832,3573 6836,3576 6839,3579 6843,3580 6848,3581 6851,3583 6854,3584 6857,3587 6860,3589 6864,3593 6866,3594 6871,3597 6874,3600 6878,3603 6883,3607 6886,3608 6890,3611 6893,3613 6897,3614 6901,3617 6906,3620 6909,3622 6913,3625 6916,3628 6922,3632 6926,3635 6930,3638 6936,3642 6940,3645 6945,3650 6947,3652 6951,3656 6955,3661 6958,3665 6965,3672 6973,3679 6976,3680 6979,3682 6985,3682 6994,3677 6998,3675 7004,3670 7010,3663 7016,3657 7023,3649 7030,3643 7038,3645 7044,3651 7048,3659 7050,3664 7052,3674 7054,3686 7055,3697 7059,3707 7055,3712 7057,3724 7059,3729 7063,3736 7065,3737 7062,3740 7058,3746 7051,3749 7046,3755 7046,3759 7044,3766 7035,3767 7014,3767 7004,3767 6998,3764 6997,3760 6995,3749 6988,3745 6983,3745 6960,3736 6950,3736 6940,3736 6930,3736 6911,3741 6902,3742 6896,3745 6893,3749 6890,3752 6885,3757 6877,3762 6859,3769 6849,3773 6850,3780 6851,3783 6852,3786 6853,3793 6853,3796 6853,3801 6852,3806 6851,3811 6849,3815 6843,3821 6840,3823 6837,3825 6833,3827 6830,3827 6822,3828 6819,3829 6814,3829 6811,3830 6805,3830 6802,3830 6798,3833 6796,3839 6797,3842 6796,3845 6795,3848 6805,3858 6814,3871 6817,3890 6814,3898 6811,3902 6808,3905 6805,3907 6802,3909 6799,3911 6796,3911 6793,3911 6780,3907 6776,3906 6771,3905 6767,3905 6764,3905 6758,3905 6753,3904 6741,3898 6729,3892 6718,3886 6708,3883 6699,3880 6690,3876 6669,3875 6650,3882 6635,3889 6617,3887 6607,3877 6599,3866 6592,3854 6584,3842 6577,3831 6573,3828 6568,3823 6565,3819 6562,3814 6561,3811 6559,3805 6558,3802 6556,3798 6552,3797 6549,3796 6542,3794 6539,3793 6534,3790 6530,3788 6528,3787 6525,3787 6520,3786 6516,3786 6513,3785 6503,3784 6498,3783 6494,3783 6491,3783 6486,3785 6483,3789 6482,3792 6481,3796 6482,3806 6481,3812 6481,3817 6481,3821 6481,3824 6481,3828 6480,3831 6479,3838 6478,3842 6478,3848 6476,3856 6476,3859 6476,3862 6476,3866 6475,3869 6475,3873 6476,3876 6477,3880 6479,3885 6482,3888 6484,3893 6485,3914 6485,3928 6485,3940 6485,3953 6485,3966 6485,3978 6485,3991 6485,4004 6477,4014 6462,4019 6449,4023 6449,4026 6448,4028 6447,4031 6446,4036 6446,4039 6445,4042 6445,4044 6444,4049 6444,4054 6446,4057 6446,4063 6446,4066 6445,4070 6444,4075 6441,4079 6439,4083 6436,4093 6436,4099 6431,4111 6429,4115 6429,4120 6430,4132 6429,4135 6428,4141 6426,4147 6422,4153 6418,4161 6411,4169 6411,4182 6412,4194 6412,4205 6413,4207 6415,4211 6414,4217 6413,4224 6413,4235 6415,4239 6415,4244 6416,4248 6417,4250 6417,4258 6406,4271 6400,4272 6398,4270 6394,4265 6391,4264 6385,4253 6379,4243 6373,4233 6366,4222 6361,4217 6357,4213 6344,4208 6340,4207 6336,4206 6332,4206 6326,4206 6323,4207 6320,4207 6315,4208 6307,4218 6304,4223 6296,4225 6286,4232 6279,4232 6272,4231 6268,4227 6261,4220 6255,4213 6254,4209 6251,4204 6246,4201 6243,4201 6241,4201 6235,4201 6232,4201 6224,4202 6216,4204 6211,4207 6207,4208 6203,4211 6197,4213 6194,4215 6180,4220 6173,4221 6167,4224 6163,4226 6160,4228 6152,4232 6150,4233 6147,4234 6143,4235 6140,4235 6125,4245 6121,4254 6119,4267 6114,4273 6115,4278 6114,4282 6111,4286 6108,4287 6102,4290 6091,4290 6078,4283 6066,4283 6058,4288 6051,4297 6045,4316 6042,4325 6039,4334 6036,4342 6027,4353 6019,4364 6010,4375 6004,4386 6007,4397 6007,4405 6007,4415 6007,4425 6006,4435 6006,4444 6003,4453 5993,4458 5981,4457 5968,4457 5956,4456 5946,4451 5937,4446 5928,4442 5917,4441 5913,4444 5909,4459 5899,4475 5895,4478 5887,4478 5878,4474 5869,4470 5860,4465 5856,4463 5846,4463 5836,4464 5826,4464 5815,4463 5805,4463 5789,4470 5779,4474 5769,4478 5759,4482 5747,4482 5736,4482 5719,4484 5708,4491 5700,4502 5693,4521 5681,4527 5666,4524 5661,4520 5646,4507 5641,4505 5638,4504 5631,4501 5627,4501 5623,4501 5620,4500 5615,4500 5611,4501 5608,4501 5602,4502 5598,4504 5594,4505 5591,4506 5588,4507 5584,4508 5580,4508 5577,4509 5574,4510 5569,4511 5565,4511 5558,4511 5555,4510 5550,4510 5546,4509 5542,4509 5539,4508 5536,4507 5532,4507 5526,4507 5518,4508 5511,4511 5505,4514 5500,4516 5493,4519 5489,4521 5484,4522 5473,4523 5467,4524 5464,4525 5461,4526 5457,4525 5453,4525 5449,4525 5444,4524 5439,4524 5436,4524 5430,4526 5426,4531 5419,4537 5417,4540 5413,4545 5409,4549 5405,4553 5402,4553 5394,4552 5386,4549 5381,4545 5376,4542 5358,4527 5335,4519 5310,4516 5289,4518 5277,4522 5264,4528 5250,4528 5233,4532 5222,4541 5212,4550 5197,4553 5176,4551 5163,4551 5136,4558 5135,4560 5128,4565 5121,4565 5117,4564 5113,4561 5112,4558 5112,4555 5110,4550 5108,4549 5099,4548 5089,4546 5080,4545 5063,4544 5046,4544 5032,4549 5022,4556 5011,4560 5001,4558 4998,4551 4995,4545 4989,4544 4970,4546 4944,4540 4933,4537 4922,4533 4911,4530 4900,4526 4887,4525 4874,4525 4862,4524 4856,4522 4853,4521 4850,4521 4848,4521 4845,4520 4842,4519 4834,4518 4828,4518 4822,4517 4813,4517 4808,4517 4805,4517 4802,4519 4799,4521 4796,4525 4796,4532 4796,4541 4789,4544 4779,4545 4769,4548 4753,4559 4745,4566 4745,4573 4743,4580 4740,4584 4737,4586 4735,4589 4732,4593 4730,4596 4729,4599 4726,4602 4723,4604 4717,4607 4711,4612 4703,4616 4698,4624 4696,4631 4697,4638 4698,4643 4703,4651 4710,4654 4717,4656 4720,4658 4727,4665 4703,4688 4677,4685 4650,4667 4619,4642 4594,4605 4595,4598 4584,4571 4557,4555 4546,4529 4530,4504 4540,4478 4546,4449 4528,4420 4514,4389 4494,4361 4463,4332 4453,4303 4420,4284 4396,4256 4401,4226 4412,4198 4420,4168 4420,4136 4410,4108 4401,4077 4374,4048 4355,4020 4327,3992 4331,3964 4345,3911 4350,3883 4356,3850 4355,3823 4348,3792 4375,3784 4392,3758 4392,3730 4367,3716 4339,3711 4314,3710 4286,3710 4258,3712 4231,3723 4215,3748 4198,3774 4174,3802 4149,3822 4122,3833 4119,3826 4094,3804 4069,3777 4077,3763 4103,3736 4130,3715 4161,3688 4190,3670 4201,3647 4210,3614 4213,3587 4226,3565 4234,3563 4261,3560 4288,3557 4329,3556 4350,3544 4354,3509 4356,3497 4370,3480 4378,3472 4390,3456 4399,3421 4408,3398 4460,3388 4475,3377 4482,3353 4491,3327 4484,3298 4476,3273 4489,3247 4487,3220 4499,3195 4507,3169 4519,3142 4528,3113 4534,3099 4558,3075 4598,3053 4620,3032 4624,3004 4640,2978 4652,2940 4655,2925 4658,2905 4636,2874 4623,2849 4618,2825 4610,2811 4588,2782 4578,2775 4551,2772 4478,2781 4439,2774 4405,2761 4393,2744 4387,2717 4394,2692 4383,2687 4372,2674 4371,2634 4377,2607 4384,2601 4401,2596 4449,2598 4474,2586 4486,2556 4504,2535 4534,2532 4560,2507 4585,2491 4610,2477 4636,2453 4662,2426 4689,2414 4713,2388 4737,2362 4750,2330 4737,2311 4715,2276 4703,2266 4687,2256 4681,2252 4653,2236 4621,2215 4597,2194 4581,2173 4562,2147 4554,2113 4563,2098 4584,2089 4611,2081 4636,2070 4663,2054 4685,2026 4701,2000 4716,1974 4752,1981 4778,1989 4815,1999 4843,1996 4868,1969 4893,1949 4920,1927 4946,1924 4971,1925 " class="polyStyle" id="520203" style="fill:#ee8b94"/>
<polygon points="2323,685 2361,792 2371,829 2386,842 2407,835 2436,812 2474,773 2515,762 2593,761 2639,772 2701,798 2721,805 2740,800 2789,790 2808,797 2813,806 2800,825 2785,834 2783,847 2790,862 2826,900 2853,926 2858,940 2851,966 2823,990 2773,1030 2763,1050 2763,1066 2778,1081 2803,1086 2825,1092 2835,1120 2835,1161 2813,1197 2780,1238 2778,1273 2788,1281 2805,1282 2880,1272 2914,1279 2924,1303 2916,1339 2896,1370 2848,1430 2843,1461 2853,1480 2886,1492 2986,1504 3003,1516 3041,1529 3078,1535 3090,1544 3103,1550 3122,1542 3127,1505 3124,1445 3132,1431 3145,1427 3231,1425 3323,1410 3390,1384 3407,1388 3411,1399 3405,1420 3387,1447 3369,1478 3360,1510 3358,1536 3370,1559 3384,1571 3362,1593 3359,1598 3358,1604 3357,1617 3363,1623 3379,1630 3383,1633 3385,1639 3385,1649 3380,1658 3379,1665 3377,1674 3371,1681 3366,1689 3365,1699 3367,1711 3365,1717 3359,1720 3348,1718 3341,1720 3335,1727 3331,1731 3322,1733 3319,1735 3324,1743 3325,1746 3318,1748 3306,1746 3273,1774 3234,1754 3173,1741 3136,1742 3080,1755 3028,1777 2969,1854 2913,1927 2890,1943 2852,1947 2708,1883 2617,1828 2547,1773 2491,1740 2373,1700 2316,1674 2279,1638 2259,1604 2250,1567 2249,1561 2237,1559 2217,1562 2192,1565 2171,1568 2165,1566 2162,1562 2162,1556 2166,1545 2170,1538 2178,1529 2180,1524 2178,1521 2161,1515 2151,1508 2141,1491 2132,1477 2121,1467 2104,1460 2083,1456 2072,1454 2062,1451 2066,1448 2092,1433 2119,1418 2144,1412 2173,1407 2189,1377 2189,1360 2186,1333 2160,1317 2136,1285 2125,1245 2151,1197 2205,1142 2262,1113 2290,1101 2288,1085 2262,1053 2252,1019 2258,993 2270,968 2265,940 2262,911 2259,885 2256,853 2252,825 2227,806 2228,779 2239,752 2243,743 2238,731 2231,713 2212,685 2237,658 2231,633 2234,606 2247,603 2297,650 " class="polyStyle" id="520201" style="fill:#f6f67b"/>
<polygon points="1677,329 1682,356 1691,388 1713,414 1742,424 1771,431 1798,429 1827,399 1852,377 1881,349 1917,347 1944,375 1955,403 1958,429 1957,459 1964,486 1976,514 1976,543 1973,569 1973,574 1965,601 1948,630 1920,648 1892,654 1865,664 1847,693 1840,724 1851,759 1841,780 1820,810 1815,824 1781,833 1774,860 1765,896 1738,901 1715,909 1696,916 1673,919 1622,921 1572,913 1508,890 1475,882 1451,888 1430,883 1417,863 1416,838 1426,808 1438,778 1449,751 1459,725 1461,698 1450,671 1442,644 1459,615 1488,585 1516,559 1536,529 1560,503 1586,492 1613,467 1613,438 1617,411 1633,382 1634,353 1633,324 1660,301 1665,302 " class="polyStyle" id="520201" style="fill:#f6f67b"/>
<path d="" class="polyStyle" id="500107" style="fill:#fbe6ef"/>
<path d="" class="polyStyle" id="430611" style="fill:#d4ecb2"/>
<path d="" class="polyStyle" id="511304" style="fill:#fbe6ef"/>
<path d="" class="polyStyle" id="340711" style="fill:#ee8b94"/>
<path d="" class="polyStyle" id="320118" style="fill:#f6f67b"/>
<path d="" class="polyStyle" id="510704" style="fill:#f6f67b"/>
<path d="" class="polyStyle" id="411502" style="fill:#ee8b94"/>
<path d="" class="polyStyle" id="320302" style="fill:#d4ecb2"/>
<path d="" class="polyStyle" id="140311" style="fill:#ee8b94"/>
<path d="" class="polyStyle" id="610802" style="fill:#ee8b94"/>
<path d="" class="polyStyle" id="120116" style="fill:#f6f67b"/>
<path d="" class="polyStyle" id="130303" style="fill:#fbe6ef"/>
<path d="" class="polyStyle" id="140211" style="fill:#f6f67b"/>
<path d="" class="polyStyle" id="150207" style="fill:#fbe6ef"/>
<path d="" class="polyStyle" id="211403" style="fill:#f6f67b"/>
<path d="" class="polyStyle" id="150802" style="fill:#f8c67d"/>
<path d="" class="polyStyle" id="210112" style="fill:#ee8b94"/>
<path d="" class="polyStyle" id="230406" style="fill:#d4ecb2"/>
<path d="" class="polyStyle" id="110113" style="fill:#fbe6ef"/>
<path d="" class="polyStyle" id="341702" style="fill:#fbe6ef"/>
<path d="" class="polyStyle" id="420303" style="fill:#ee8b94"/>
<path d="" class="polyStyle" id="340702" style="fill:#d4ecb2"/>
<path d="" class="polyStyle" id="421002" style="fill:#f6f67b"/>
<path d="" class="polyStyle" id="420117" style="fill:#f6f67b"/>
<path d="" class="polyStyle" id="440904" style="fill:#f8c67d"/>
<path d="" class="polyStyle" id="460205" style="fill:#ee8b94"/>
<path d="" class="polyStyle" id="460202" style="fill:#f6f67b"/>
<path d="" class="polyStyle" id="460203" style="fill:#fbe6ef"/>
<path d="" class="polyStyle" id="420304" style="fill:#f6f67b"/>
<path d="" class="polyStyle" id="445302" style="fill:#ee8b94"/>
<path d="" class="polyStyle" id="410202" style="fill:#d4ecb2"/>
<path d="" class="polyStyle" id="440800" style="fill:#f6f67b"/>
<path d="" class="polyStyle" id="440900" style="fill:#ee8b94"/>
<path d="" class="polyStyle" id="340800" style="fill:#ee8b94"/>
<path d="" class="polyStyle" id="460200" style="fill:#f6f67b"/>
<path d="" class="polyStyle" id="460000" style="fill:#ee8b94"/>
<path d="" class="polyStyle" id="450500" style="fill:#ee8b94"/>
<path d="" class="polyStyle" id="450600" style="fill:#ee8b94"/>
<path d="" class="polyStyle" id="440400" style="fill:#f6f67b"/>
<path d="" class="polyStyle" id="441700" style="fill:#f6f67b"/>
<path d="" class="polyStyle" id="441500" style="fill:#f6f67b"/>
<path d="" class="polyStyle" id="350600" style="fill:#ee8b94"/>
<path d="" class="polyStyle" id="710000" style="fill:#f6f67b"/>
<path d="" class="polyStyle" id="510400" style="fill:#f6f67b"/>
<path d="" class="polyStyle" id="522600" style="fill:#fbe6ef"/>
<path d="" class="polyStyle" id="520500" style="fill:#ee8b94"/>
<path d="" class="polyStyle" id="431200" style="fill:#f6f67b"/>
<path d="" class="polyStyle" id="430600" style="fill:#f6f67b"/>
<path d="" class="polyStyle" id="511400" style="fill:#d4ecb2"/>
<path d="" class="polyStyle" id="421000" style="fill:#ee8b94"/>
<path d="" class="polyStyle" id="341700" style="fill:#f6f67b"/>
<path d="" class="polyStyle" id="420500" style="fill:#f6f67b"/>
<path d="" class="polyStyle" id="511300" style="fill:#f6f67b"/>
<path d="" class="polyStyle" id="420900" style="fill:#f6f67b"/>
<path d="" class="polyStyle" id="511700" style="fill:#ee8b94"/>
<path d="" class="polyStyle" id="420600" style="fill:#d4ecb2"/>
<path d="" class="polyStyle" id="411500" style="fill:#fbe6ef"/>
<path d="" class="polyStyle" id="510800" style="fill:#ee8b94"/>
<path d="" class="polyStyle" id="420300" style="fill:#fbe6ef"/>
<path d="" class="polyStyle" id="611000" style="fill:#ee8b94"/>
<path d="" class="polyStyle" id="620800" style="fill:#fbe6ef"/>
<path d="" class="polyStyle" id="370200" style="fill:#ee8b94"/>
<path d="" class="polyStyle" id="371000" style="fill:#f6f67b"/>
<path d="" class="polyStyle" id="370600" style="fill:#fbe6ef"/>
<path d="" class="polyStyle" id="120000" style="fill:#f6f67b"/>
<path d="" class="polyStyle" id="130200" style="fill:#ee8b94"/>
<path d="" class="polyStyle" id="130300" style="fill:#f6f67b"/>
<path d="" class="polyStyle" id="652900" style="fill:#fbe6ef"/>
<path d="" class="polyStyle" id="150500" style="fill:#d4ecb2"/>
<path d="" class="polyStyle" id="" style="fill:#d4ecb2"/>
<path d="" class="polyStyle" id="350500" style="fill:#fbe6ef"/>
<path d="" class="polyStyle" id="440400" style="fill:#f6f67b"/>
<path d="" class="polyStyle" id="421100" style="fill:#d4ecb2"/>
<path d="" class="polyStyle" id="420100" style="fill:#fbe6ef"/>
<path d="" class="polyStyle" id="532500" style="fill:#fbe6ef"/>
<path d="" class="polyStyle" id="654200" style="fill:#fbe6ef"/>
<path d="" class="polyStyle" id="210700" style="fill:#d4ecb2"/>
<path d="" class="polyStyle" id="522300" style="fill:#fbe6ef"/>
<path d="" class="polyStyle" id="" style="fill:#ee8b94"/>
<path d="" class="polyStyle" id="440400" style="fill:#f6f67b"/>
<path d="" class="polyStyle" id="620000" style="fill:#f6f67b"/>
<path d="" class="polyStyle" id="430000" style="fill:#fbe6ef"/>
<path d="" class="polyStyle" id="420000" style="fill:#ee8b94"/>
<path d="" class="polyStyle" id="410000" style="fill:#f6f67b"/>
<path d="" class="polyStyle" id="350000" style="fill:#fbe6ef"/>
<path d="" class="polyStyle" id="520000" style="fill:#f6f67b"/>
<path d="" class="polyStyle" id="" style="fill:#ee8b94"/>
</svg>
