<?xml version="1.0" encoding="UTF-8"?>
<!DOCTYPE svg PUBLIC "-//W3C//DTD SVG 1.1 Tiny//EN" "http://www.w3.org/Graphics/SVG/1.1/DTD/svg11-tiny.dtd">
<svg version="1.1" xmlns="http://www.w3.org/2000/svg" xmlns:xlink="http://www.w3.org/1999/xlink" width="100%" height="100%" viewBox="0,0,9371,9775">
<title>SVG</title>
<desc>Poligon Test</desc>
<style id="style_css_sheet" type="text/css">
.polyStyle{fill: #cccccc;stroke-width:0;fill-rule:evenodd;}
</style>
<circle cx="764" cy="6307" r="200" stroke="black" stroke-width="1" fill="red" id="530924"position="122" name="镇康县"/>
<circle cx="5762" cy="7790" r="200" stroke="black" stroke-width="1" fill="red" id="530925"position="444" name="双江拉祜族佤族布朗族傣族自治县"/>
<circle cx="3635" cy="7490" r="200" stroke="black" stroke-width="1" fill="red" id="530926"position="414444" name="耿马傣族佤族自治县"/>
<circle cx="2880" cy="9395" r="200" stroke="black" stroke-width="1" fill="red" id="530927"position="4114" name="沧源佤族自治县"/>
<circle cx="6192" cy="2188" r="200" stroke="black" stroke-width="1" fill="red" id="530921"position="444" name="凤庆县"/>
<circle cx="7288" cy="2942" r="200" stroke="black" stroke-width="1" fill="red" id="530922"position="233" name="云县"/>
<circle cx="2899" cy="5025" r="200" stroke="black" stroke-width="1" fill="red" id="530923"position="222" name="永德县"/>
<circle cx="7089" cy="5809" r="200" stroke="black" stroke-width="1" fill="red" id="530902" name="临翔区"/>
<path d="" class="polyStyle" id="" style="fill:#ee8b94"/>
<path d="" class="polyStyle" id="623022" style="fill:#fbe6ef"/>
<path d="" class="polyStyle" id="211421" style="fill:#f6f67b"/>
<path d="" class="polyStyle" id="532524" style="fill:#ee8b94"/>
<path d="" class="polyStyle" id="440825" style="fill:#f6f67b"/>
<path d="" class="polyStyle" id="441721" style="fill:#f6f67b"/>
<path d="" class="polyStyle" id="450521" style="fill:#f6f67b"/>
<path d="" class="polyStyle" id="450123" style="fill:#fbe6ef"/>
<polygon points="1335,7696 1347,7705 1373,7697 1398,7697 1415,7722 1474,7743 1496,7769 1525,7775 1551,7805 1566,7816 1581,7808 1593,7783 1597,7771 1624,7772 1641,7770 1654,7744 1679,7731 1709,7721 1757,7710 1772,7712 1792,7684 1807,7686 1818,7691 1823,7705 1833,7713 1842,7740 1862,7740 1872,7745 1872,7774 1863,7796 1864,7802 1867,7807 1870,7813 1872,7817 1878,7830 1884,7840 1894,7850 1901,7855 1904,7857 1915,7857 1925,7854 1933,7855 1939,7858 1948,7864 1951,7868 1956,7871 1963,7874 1970,7874 1977,7873 1981,7880 1988,7891 1993,7893 2006,7894 2011,7895 2015,7901 2017,7909 2020,7913 2020,7919 2017,7923 2009,7927 2003,7932 2001,7935 2001,7958 2011,7965 2015,7972 2020,7989 2022,7992 2030,8001 2037,8007 2045,8020 2047,8023 2050,8027 2070,8049 2072,8052 2074,8055 2081,8062 2086,8069 2098,8078 2108,8086 2115,8093 2122,8094 2128,8091 2137,8087 2140,8086 2144,8086 2147,8087 2152,8091 2156,8101 2157,8105 2157,8108 2159,8111 2161,8114 2165,8127 2168,8131 2173,8131 2183,8129 2190,8126 2200,8117 2206,8108 2211,8098 2220,8088 2235,8082 2244,8081 2254,8082 2260,8083 2271,8088 2277,8097 2280,8103 2281,8107 2283,8110 2287,8118 2305,8130 2323,8151 2333,8158 2344,8165 2354,8172 2357,8178 2363,8187 2369,8189 2388,8192 2396,8194 2401,8196 2413,8202 2431,8219 2441,8227 2450,8230 2466,8234 2470,8234 2481,8233 2486,8234 2490,8235 2515,8251 2526,8253 2542,8262 2548,8264 2556,8270 2567,8279 2579,8287 2590,8291 2599,8288 2614,8280 2628,8289 2640,8292 2657,8291 2662,8300 2664,8310 2665,8317 2670,8328 2678,8350 2694,8366 2712,8379 2730,8380 2737,8383 2753,8387 2759,8382 2762,8373 2766,8364 2770,8357 2775,8351 2777,8347 2784,8344 2788,8341 2792,8338 2802,8334 2806,8331 2815,8324 2829,8312 2840,8304 2845,8302 2852,8300 2861,8301 2874,8300 2884,8296 2888,8294 2902,8288 2911,8282 2918,8273 2922,8269 2928,8262 2937,8256 2942,8255 2955,8253 2971,8254 2983,8253 2988,8253 2997,8248 3001,8240 3000,8237 2998,8227 2999,8222 3001,8215 3006,8209 3015,8199 3017,8195 3020,8186 3025,8178 3028,8172 3032,8163 3036,8153 3040,8144 3045,8137 3056,8128 3066,8117 3070,8112 3070,8107 3069,8097 3080,8097 3084,8095 3087,8093 3098,8079 3107,8069 3112,8069 3128,8069 3139,8072 3149,8075 3160,8077 3163,8078 3170,8075 3179,8070 3185,8068 3194,8068 3208,8073 3212,8076 3228,8085 3239,8089 3243,8089 3257,8088 3264,8087 3270,8085 3284,8082 3290,8082 3296,8082 3309,8085 3322,8084 3331,8082 3341,8081 3351,8081 3361,8080 3366,8079 3369,8075 3370,8066 3377,8063 3384,8064 3392,8063 3397,8062 3416,8066 3423,8069 3422,8073 3417,8081 3418,8084 3423,8084 3429,8083 3438,8079 3443,8079 3448,8080 3468,8081 3485,8076 3493,8076 3504,8081 3510,8082 3521,8084 3526,8087 3527,8097 3526,8109 3529,8113 3534,8115 3541,8116 3548,8115 3555,8116 3558,8116 3569,8116 3572,8117 3578,8124 3584,8126 3589,8125 3596,8123 3621,8107 3625,8106 3630,8105 3638,8106 3646,8115 3652,8125 3660,8135 3662,8138 3669,8144 3677,8146 3693,8146 3702,8144 3710,8146 3717,8152 3721,8161 3722,8165 3724,8174 3726,8183 3728,8186 3738,8208 3738,8212 3739,8217 3741,8230 3741,8238 3739,8258 3739,8270 3739,8281 3739,8292 3737,8291 3740,8318 3745,8349 3763,8375 3790,8381 3814,8423 3839,8427 3848,8387 3868,8358 3910,8349 3936,8335 3967,8308 3998,8313 4034,8320 4068,8320 4104,8319 4140,8332 4171,8345 4202,8349 4227,8340 4258,8347 4303,8362 4338,8374 4376,8390 4408,8397 4439,8421 4474,8411 4500,8404 4529,8412 4555,8417 4582,8411 4610,8410 4649,8425 4679,8435 4709,8436 4739,8429 4765,8412 4789,8386 4806,8356 4827,8330 4851,8301 4883,8282 4906,8270 4932,8265 4983,8302 5012,8331 5066,8336 5091,8330 5127,8307 5154,8301 5188,8342 5212,8371 5223,8398 5222,8426 5220,8453 5227,8481 5225,8509 5230,8537 5231,8564 5209,8592 5189,8621 5202,8646 5213,8674 5214,8702 5184,8711 5148,8712 5122,8714 5079,8717 5059,8742 5046,8777 5030,8813 5020,8851 5011,8876 5003,8902 5006,8925 4971,8964 4957,8996 4936,9023 4895,9038 4867,9049 4833,9072 4802,9105 4785,9136 4777,9163 4748,9191 4716,9216 4732,9241 4746,9270 4753,9302 4777,9328 4806,9345 4806,9353 4797,9357 4794,9362 4818,9378 4818,9397 4831,9408 4842,9395 4851,9403 4848,9414 4831,9413 4807,9410 4778,9405 4772,9412 4788,9427 4791,9431 4790,9436 4783,9436 4776,9435 4752,9428 4728,9419 4722,9401 4715,9374 4685,9346 4659,9341 4629,9333 4596,9314 4569,9324 4539,9334 4491,9365 4460,9390 4429,9410 4399,9429 4367,9448 4333,9484 4336,9517 4327,9542 4298,9544 4259,9563 4226,9565 4198,9573 4169,9584 4143,9589 4152,9624 4169,9653 4194,9684 4180,9712 4200,9750 4201,9762 4174,9758 4149,9753 4126,9742 4073,9726 4031,9740 4000,9746 3961,9753 3929,9755 3906,9762 3876,9770 3839,9757 3804,9744 3774,9730 3748,9719 3690,9698 3659,9696 3622,9687 3575,9680 3556,9651 3522,9636 3487,9606 3439,9544 3407,9529 3368,9504 3340,9499 3309,9499 3281,9494 3275,9525 3282,9570 3275,9599 3262,9630 3227,9650 3201,9663 3166,9669 3135,9656 3085,9642 3060,9640 3032,9642 2999,9640 2952,9666 2946,9704 2950,9735 2953,9743 2955,9757 2947,9765 2941,9769 2933,9772 2924,9774 2902,9774 2894,9774 2890,9774 2883,9775 2873,9775 2865,9775 2852,9769 2830,9749 2816,9731 2783,9723 2772,9726 2762,9727 2755,9726 2749,9728 2738,9723 2734,9720 2723,9711 2720,9707 2707,9696 2702,9693 2695,9690 2685,9681 2681,9674 2678,9670 2676,9655 2674,9650 2667,9630 2666,9626 2665,9622 2653,9623 2639,9624 2634,9625 2627,9628 2590,9662 2573,9655 2524,9646 2493,9645 2450,9648 2411,9645 2376,9642 2342,9646 2303,9666 2260,9676 2223,9662 2215,9695 2192,9720 2164,9721 2138,9700 2096,9657 2058,9648 2029,9638 1998,9622 1964,9615 1930,9592 1904,9580 1874,9566 1876,9541 1881,9510 1886,9478 1891,9450 1915,9407 1930,9374 1950,9333 1952,9317 1949,9307 1942,9306 1937,9310 1918,9341 1896,9360 1871,9367 1837,9376 1804,9370 1800,9371 1797,9369 1789,9366 1785,9365 1780,9363 1760,9358 1722,9352 1712,9352 1702,9356 1698,9358 1692,9361 1678,9366 1660,9369 1655,9368 1652,9367 1643,9360 1624,9352 1616,9350 1601,9346 1596,9345 1591,9344 1584,9342 1576,9340 1562,9336 1551,9333 1545,9331 1538,9328 1524,9323 1519,9321 1514,9320 1503,9318 1495,9319 1490,9320 1485,9322 1479,9324 1475,9326 1467,9331 1456,9326 1441,9316 1435,9315 1418,9309 1413,9306 1402,9294 1389,9282 1382,9279 1371,9278 1363,9275 1358,9273 1351,9270 1347,9268 1338,9265 1335,9264 1320,9270 1313,9271 1309,9272 1306,9272 1301,9269 1295,9266 1286,9256 1279,9248 1270,9245 1261,9244 1254,9241 1246,9239 1242,9238 1236,9239 1225,9243 1221,9244 1210,9241 1204,9239 1198,9238 1186,9236 1176,9240 1168,9246 1162,9254 1160,9258 1158,9263 1154,9276 1144,9280 1137,9278 1132,9277 1120,9276 1113,9277 1102,9280 1089,9286 1086,9277 1079,9274 1073,9273 1066,9268 1062,9261 1059,9253 1057,9247 1056,9232 1057,9222 1059,9217 1060,9214 1067,9207 1075,9200 1081,9197 1084,9192 1090,9184 1094,9177 1097,9172 1101,9165 1108,9156 1108,9147 1107,9142 1103,9135 1089,9123 1086,9119 1086,9113 1090,9107 1096,9101 1107,9095 1114,9092 1129,9084 1136,9079 1147,9071 1161,9053 1165,9046 1168,9039 1173,9031 1180,9021 1187,9008 1189,9003 1189,8993 1188,8983 1188,8965 1190,8956 1190,8949 1190,8940 1189,8934 1190,8928 1192,8919 1195,8913 1200,8904 1207,8896 1214,8889 1228,8880 1233,8878 1245,8871 1249,8865 1253,8860 1260,8857 1271,8851 1275,8847 1279,8840 1281,8833 1282,8817 1281,8811 1280,8799 1274,8779 1273,8774 1271,8764 1269,8760 1267,8755 1265,8747 1261,8739 1258,8730 1259,8726 1254,8717 1283,8702 1317,8696 1320,8665 1332,8639 1359,8629 1353,8626 1348,8622 1342,8616 1331,8611 1326,8610 1321,8609 1316,8607 1307,8601 1295,8588 1290,8586 1286,8583 1283,8583 1278,8570 1275,8566 1269,8558 1264,8555 1254,8549 1251,8546 1250,8543 1239,8538 1230,8537 1224,8538 1220,8537 1212,8535 1207,8530 1203,8524 1190,8512 1185,8511 1180,8508 1178,8504 1172,8494 1170,8488 1162,8482 1149,8482 1138,8489 1119,8499 1090,8512 1070,8517 1058,8513 1052,8511 1049,8506 1050,8500 1055,8495 1069,8489 1090,8477 1103,8460 1119,8430 1127,8420 1144,8402 1152,8396 1161,8394 1165,8394 1169,8398 1188,8411 1236,8409 1240,8376 1240,8344 1237,8307 1239,8273 1219,8242 1202,8215 1192,8189 1201,8159 1221,8125 1232,8099 1227,8061 1198,8020 1166,7982 1129,7952 1131,7925 1126,7887 1100,7850 1073,7822 1051,7791 1031,7756 1014,7739 1008,7734 1014,7730 1025,7724 1054,7722 1081,7718 1107,7707 1137,7697 1166,7691 1191,7691 1206,7683 1221,7671 1254,7668 1269,7668 1281,7656 1299,7646 1325,7684 " class="polyStyle" id="530927" style="fill:#f6f67b"/>
<polygon points="6125,6150 6136,6152 6151,6152 6160,6155 6177,6160 6194,6170 6201,6183 6202,6186 6203,6190 6203,6209 6205,6220 6212,6227 6231,6231 6237,6234 6242,6234 6251,6236 6263,6239 6267,6239 6283,6243 6297,6243 6303,6242 6310,6242 6318,6242 6326,6247 6333,6255 6343,6266 6361,6280 6367,6285 6371,6288 6375,6295 6377,6301 6379,6307 6383,6313 6397,6316 6403,6317 6407,6320 6409,6324 6410,6327 6410,6334 6409,6345 6410,6360 6410,6363 6410,6366 6420,6390 6427,6404 6433,6413 6444,6422 6449,6427 6453,6431 6459,6435 6466,6439 6473,6446 6481,6451 6501,6461 6512,6469 6516,6474 6520,6476 6524,6479 6526,6489 6531,6495 6538,6505 6543,6516 6550,6532 6558,6550 6560,6574 6577,6576 6592,6580 6601,6586 6608,6591 6610,6597 6611,6607 6602,6622 6597,6633 6591,6643 6596,6656 6616,6661 6629,6657 6640,6667 6641,6669 6644,6672 6652,6680 6660,6700 6642,6724 6633,6741 6628,6750 6630,6761 6643,6773 6658,6795 6670,6814 6680,6831 6689,6841 6700,6852 6715,6864 6730,6879 6740,6889 6740,6900 6729,6921 6732,6935 6744,6958 6760,6980 6765,6989 6772,7007 6777,7020 6770,7031 6768,7045 6776,7050 6784,7053 6786,7061 6784,7071 6782,7076 6776,7083 6757,7087 6749,7089 6740,7090 6726,7094 6718,7097 6707,7103 6702,7112 6700,7115 6699,7128 6698,7140 6698,7148 6700,7156 6710,7172 6711,7177 6718,7188 6711,7194 6710,7201 6695,7203 6685,7201 6675,7203 6665,7204 6651,7205 6645,7209 6639,7215 6635,7225 6631,7242 6631,7249 6630,7263 6628,7281 6626,7291 6624,7301 6621,7311 6609,7324 6594,7331 6584,7332 6576,7335 6569,7342 6564,7350 6565,7367 6569,7378 6574,7390 6578,7404 6578,7419 6565,7418 6569,7435 6580,7448 6585,7458 6590,7468 6595,7478 6600,7488 6601,7499 6602,7510 6603,7522 6604,7533 6604,7545 6605,7558 6605,7571 6603,7585 6597,7593 6594,7603 6604,7607 6627,7596 6645,7600 6671,7591 6691,7582 6711,7579 6734,7576 6754,7574 6774,7576 6794,7583 6802,7587 6819,7600 6829,7612 6839,7620 6852,7627 6866,7630 6878,7637 6900,7644 6917,7651 6924,7660 6934,7669 6943,7674 6958,7678 6972,7679 6989,7675 7012,7670 7037,7658 7042,7643 7040,7637 7040,7624 7037,7611 7038,7603 7041,7598 7047,7587 7051,7581 7058,7576 7070,7569 7087,7565 7100,7562 7109,7558 7120,7553 7129,7546 7150,7521 7156,7515 7162,7512 7167,7513 7174,7518 7179,7525 7182,7535 7181,7541 7183,7546 7180,7551 7175,7552 7170,7557 7169,7564 7170,7580 7165,7598 7161,7610 7157,7621 7153,7633 7149,7644 7144,7660 7144,7664 7149,7665 7159,7662 7180,7653 7197,7643 7207,7635 7217,7627 7227,7619 7240,7606 7247,7602 7253,7598 7262,7584 7272,7569 7278,7562 7282,7561 7285,7561 7289,7569 7297,7571 7306,7571 7311,7571 7318,7569 7327,7565 7332,7564 7336,7565 7340,7568 7344,7573 7347,7579 7346,7597 7345,7607 7348,7613 7352,7616 7356,7618 7364,7620 7370,7624 7374,7628 7377,7634 7381,7640 7386,7643 7401,7646 7408,7651 7414,7654 7420,7656 7420,7662 7420,7688 7418,7706 7413,7723 7403,7753 7406,7780 7407,7794 7398,7808 7379,7834 7357,7869 7338,7902 7322,7928 7309,7940 7290,7944 7264,7947 7235,7962 7212,7994 7190,8030 7180,8057 7149,8087 7143,8112 7144,8145 7149,8170 7181,8191 7192,8201 7195,8218 7187,8244 7172,8279 7147,8304 7107,8334 7087,8365 7070,8390 7055,8415 7040,8440 7036,8474 7028,8507 7019,8542 7018,8576 7028,8611 7054,8637 7073,8651 7088,8668 7091,8701 7095,8738 7102,8768 7089,8796 7089,8823 7083,8858 7067,8887 7060,8915 7041,8946 7038,8977 7021,9006 6993,9025 6955,9037 6920,9043 6888,9061 6867,9090 6850,9088 6822,9085 6778,9080 6747,9084 6721,9077 6691,9072 6652,9054 6624,9049 6597,9036 6566,9042 6531,9038 6504,9041 6475,9030 6463,9002 6433,8995 6406,8980 6367,8947 6331,8918 6303,8914 6276,8921 6250,8914 6221,8910 6186,8903 6160,8896 6128,8888 6097,8894 6066,8909 6035,8928 6008,8957 5973,8988 5943,9022 5929,9048 5900,9077 5872,9094 5841,9122 5804,9119 5769,9122 5742,9133 5713,9146 5676,9160 5641,9176 5615,9172 5596,9142 5562,9106 5530,9095 5505,9090 5477,9076 5449,9063 5414,9043 5387,9036 5360,9026 5333,9016 5306,9005 5275,8990 5229,8990 5201,8988 5174,8983 5147,8979 5119,8971 5089,8955 5059,8935 5032,8932 5006,8925 5003,8902 5011,8876 5020,8851 5030,8813 5046,8777 5059,8742 5079,8717 5122,8714 5148,8712 5184,8711 5214,8702 5213,8674 5202,8646 5189,8621 5209,8592 5231,8564 5230,8537 5225,8509 5227,8481 5220,8453 5222,8426 5223,8398 5212,8371 5188,8342 5154,8301 5127,8307 5091,8330 5066,8336 5012,8331 4983,8302 4932,8265 4906,8270 4894,8247 4895,8236 4894,8225 4890,8216 4880,8214 4868,8173 4867,8152 4861,8144 4845,8136 4823,8117 4818,8104 4818,8079 4796,8061 4791,8029 4784,8015 4766,8012 4735,8010 4712,7999 4697,7994 4680,8000 4652,7994 4622,7971 4612,7933 4587,7919 4584,7905 4591,7891 4609,7887 4617,7877 4624,7859 4625,7845 4625,7835 4605,7807 4591,7800 4584,7789 4598,7776 4617,7748 4651,7721 4669,7696 4675,7668 4680,7635 4690,7622 4707,7629 4729,7628 4770,7608 4791,7603 4813,7611 4825,7624 4849,7641 4861,7660 4894,7689 4918,7702 4928,7696 4958,7691 4980,7690 4990,7695 4997,7706 5008,7699 5018,7683 5027,7663 5025,7646 5024,7626 5030,7618 5041,7614 5057,7614 5029,7551 5037,7535 5040,7500 5027,7463 5029,7426 5059,7408 5086,7409 5137,7432 5143,7393 5156,7387 5165,7347 5171,7336 5190,7328 5191,7319 5186,7289 5207,7276 5209,7257 5215,7235 5225,7225 5261,7213 5274,7193 5289,7182 5301,7179 5319,7174 5336,7169 5351,7155 5366,7126 5376,7095 5384,7064 5398,7037 5425,7005 5455,6973 5464,6941 5485,6908 5488,6873 5491,6845 5489,6820 5492,6803 5509,6782 5542,6754 5564,6723 5586,6691 5608,6648 5606,6628 5599,6610 5598,6597 5601,6584 5626,6568 5658,6551 5671,6528 5692,6493 5717,6478 5744,6462 5772,6444 5807,6446 5802,6429 5820,6406 5856,6360 5884,6330 5914,6283 5913,6272 5916,6264 5933,6252 5948,6243 5942,6222 5931,6204 5931,6184 5933,6183 5945,6176 5953,6176 5957,6175 5970,6171 5980,6171 5991,6170 6002,6169 6019,6170 6033,6172 6039,6172 6048,6170 6055,6165 6070,6150 6077,6146 6083,6147 6091,6145 6103,6148 6113,6145 6117,6147 " class="polyStyle" id="530925" style="fill:#ee8b94"/>
<polygon points="5720,5050 5737,5071 5743,5081 5750,5086 5756,5093 5766,5100 5792,5107 5807,5113 5824,5113 5840,5113 5847,5117 5856,5122 5860,5130 5864,5138 5870,5155 5873,5159 5877,5164 5882,5169 5889,5175 5892,5177 5897,5180 5919,5190 5928,5198 5938,5206 5947,5213 5967,5225 5979,5231 5987,5234 5998,5237 6009,5238 6013,5237 6029,5238 6033,5240 6044,5243 6057,5247 6073,5251 6091,5253 6103,5256 6114,5263 6132,5278 6147,5286 6160,5300 6170,5309 6173,5313 6172,5324 6170,5336 6164,5343 6158,5353 6159,5359 6160,5366 6172,5377 6185,5383 6184,5402 6180,5428 6174,5445 6174,5457 6170,5473 6170,5485 6169,5490 6165,5505 6158,5517 6153,5534 6157,5551 6170,5581 6135,5573 6125,5588 6121,5598 6111,5607 6103,5618 6096,5624 6076,5634 6061,5641 6049,5649 6036,5657 6027,5665 6018,5670 6002,5682 5994,5691 5987,5709 5982,5727 5983,5740 5994,5751 6020,5749 6035,5749 6038,5764 6017,5775 6005,5782 6004,5799 6004,5817 5999,5839 5989,5862 5976,5889 5970,5911 5960,5924 5955,5939 5948,5951 5936,5962 5921,5971 5907,5979 5894,5988 5897,6006 5905,6020 5913,6033 5920,6047 5925,6064 5929,6069 5929,6081 5929,6097 5927,6113 5924,6131 5926,6146 5929,6155 5932,6166 5933,6174 5933,6183 5931,6184 5931,6204 5942,6222 5948,6243 5933,6252 5916,6264 5913,6272 5914,6283 5884,6330 5856,6360 5820,6406 5802,6429 5807,6446 5772,6444 5744,6462 5717,6478 5692,6493 5671,6528 5658,6551 5626,6568 5601,6584 5598,6597 5599,6610 5606,6628 5608,6648 5586,6691 5564,6723 5542,6754 5509,6782 5492,6803 5489,6820 5491,6845 5488,6873 5485,6908 5464,6941 5455,6973 5425,7005 5398,7037 5384,7064 5376,7095 5366,7126 5351,7155 5336,7169 5319,7174 5301,7179 5289,7182 5274,7193 5261,7213 5225,7225 5215,7235 5209,7257 5207,7276 5186,7289 5191,7319 5190,7328 5171,7336 5165,7347 5156,7387 5143,7393 5137,7432 5086,7409 5059,7408 5029,7426 5027,7463 5040,7500 5037,7535 5029,7551 5057,7614 5041,7614 5030,7618 5024,7626 5025,7646 5027,7663 5018,7683 5008,7699 4997,7706 4990,7695 4980,7690 4958,7691 4928,7696 4918,7702 4894,7689 4861,7660 4849,7641 4825,7624 4813,7611 4791,7603 4770,7608 4729,7628 4707,7629 4690,7622 4680,7635 4675,7668 4669,7696 4651,7721 4617,7748 4598,7776 4584,7789 4591,7800 4605,7807 4625,7835 4625,7845 4624,7859 4617,7877 4609,7887 4591,7891 4584,7905 4587,7919 4612,7933 4622,7971 4652,7994 4680,8000 4697,7994 4712,7999 4735,8010 4766,8012 4784,8015 4791,8029 4796,8061 4818,8079 4818,8104 4823,8117 4845,8136 4861,8144 4867,8152 4868,8173 4880,8214 4890,8216 4894,8225 4895,8236 4894,8247 4906,8270 4883,8282 4851,8301 4827,8330 4806,8356 4789,8386 4765,8412 4739,8429 4709,8436 4679,8435 4649,8425 4610,8410 4582,8411 4555,8417 4529,8412 4500,8404 4474,8411 4439,8421 4408,8397 4376,8390 4338,8374 4303,8362 4258,8347 4227,8340 4202,8349 4171,8345 4140,8332 4104,8319 4068,8320 4034,8320 3998,8313 3967,8308 3936,8335 3910,8349 3868,8358 3848,8387 3839,8427 3814,8423 3790,8381 3763,8375 3745,8349 3740,8318 3737,8291 3739,8292 3739,8281 3739,8270 3739,8258 3741,8238 3741,8230 3739,8217 3738,8212 3738,8208 3728,8186 3726,8183 3724,8174 3722,8165 3721,8161 3717,8152 3710,8146 3702,8144 3693,8146 3677,8146 3669,8144 3662,8138 3660,8135 3652,8125 3646,8115 3638,8106 3630,8105 3625,8106 3621,8107 3596,8123 3589,8125 3584,8126 3578,8124 3572,8117 3569,8116 3558,8116 3555,8116 3548,8115 3541,8116 3534,8115 3529,8113 3526,8109 3527,8097 3526,8087 3521,8084 3510,8082 3504,8081 3493,8076 3485,8076 3468,8081 3448,8080 3443,8079 3438,8079 3429,8083 3423,8084 3418,8084 3417,8081 3422,8073 3423,8069 3416,8066 3397,8062 3392,8063 3384,8064 3377,8063 3370,8066 3369,8075 3366,8079 3361,8080 3351,8081 3341,8081 3331,8082 3322,8084 3309,8085 3296,8082 3290,8082 3284,8082 3270,8085 3264,8087 3257,8088 3243,8089 3239,8089 3228,8085 3212,8076 3208,8073 3194,8068 3185,8068 3179,8070 3170,8075 3163,8078 3160,8077 3149,8075 3139,8072 3128,8069 3112,8069 3107,8069 3098,8079 3087,8093 3084,8095 3080,8097 3069,8097 3070,8107 3070,8112 3066,8117 3056,8128 3045,8137 3040,8144 3036,8153 3032,8163 3028,8172 3025,8178 3020,8186 3017,8195 3015,8199 3006,8209 3001,8215 2999,8222 2998,8227 3000,8237 3001,8240 2997,8248 2988,8253 2983,8253 2971,8254 2955,8253 2942,8255 2937,8256 2928,8262 2922,8269 2918,8273 2911,8282 2902,8288 2888,8294 2884,8296 2874,8300 2861,8301 2852,8300 2845,8302 2840,8304 2829,8312 2815,8324 2806,8331 2802,8334 2792,8338 2788,8341 2784,8344 2777,8347 2775,8351 2770,8357 2766,8364 2762,8373 2759,8382 2753,8387 2737,8383 2730,8380 2712,8379 2694,8366 2678,8350 2670,8328 2665,8317 2664,8310 2662,8300 2657,8291 2640,8292 2628,8289 2614,8280 2599,8288 2590,8291 2579,8287 2567,8279 2556,8270 2548,8264 2542,8262 2526,8253 2515,8251 2490,8235 2486,8234 2481,8233 2470,8234 2466,8234 2450,8230 2441,8227 2431,8219 2413,8202 2401,8196 2396,8194 2388,8192 2369,8189 2363,8187 2357,8178 2354,8172 2344,8165 2333,8158 2323,8151 2305,8130 2287,8118 2283,8110 2281,8107 2280,8103 2277,8097 2271,8088 2260,8083 2254,8082 2244,8081 2235,8082 2220,8088 2211,8098 2206,8108 2200,8117 2190,8126 2183,8129 2173,8131 2168,8131 2165,8127 2161,8114 2159,8111 2157,8108 2157,8105 2156,8101 2152,8091 2147,8087 2144,8086 2140,8086 2137,8087 2128,8091 2122,8094 2115,8093 2108,8086 2098,8078 2086,8069 2081,8062 2074,8055 2072,8052 2070,8049 2050,8027 2047,8023 2045,8020 2037,8007 2030,8001 2022,7992 2020,7989 2015,7972 2011,7965 2001,7958 2001,7935 2003,7932 2009,7927 2017,7923 2020,7919 2020,7913 2017,7909 2015,7901 2011,7895 2006,7894 1993,7893 1988,7891 1981,7880 1977,7873 1970,7874 1963,7874 1956,7871 1951,7868 1948,7864 1939,7858 1933,7855 1925,7854 1915,7857 1904,7857 1901,7855 1894,7850 1884,7840 1878,7830 1872,7817 1870,7813 1867,7807 1864,7802 1863,7796 1872,7774 1872,7745 1862,7740 1842,7740 1833,7713 1823,7705 1818,7691 1807,7686 1792,7684 1772,7712 1757,7710 1709,7721 1679,7731 1654,7744 1641,7770 1624,7772 1597,7771 1593,7783 1581,7808 1566,7816 1551,7805 1525,7775 1496,7769 1474,7743 1415,7722 1398,7697 1373,7697 1347,7705 1335,7696 1325,7684 1299,7646 1281,7656 1269,7668 1254,7668 1221,7671 1206,7683 1191,7691 1166,7691 1137,7697 1107,7707 1081,7718 1054,7722 1025,7724 1014,7730 1008,7734 1000,7736 997,7740 992,7746 986,7749 979,7751 965,7752 960,7753 954,7754 951,7757 946,7758 939,7764 930,7765 926,7764 910,7762 908,7759 886,7762 883,7770 885,7777 885,7785 879,7790 866,7790 845,7790 830,7788 817,7788 798,7800 785,7811 768,7770 754,7751 740,7727 732,7686 722,7646 701,7620 681,7577 669,7548 657,7508 665,7472 682,7451 706,7431 734,7404 758,7388 784,7371 816,7353 830,7335 851,7314 878,7299 912,7281 947,7277 976,7277 1004,7270 1028,7240 1051,7214 1080,7189 1096,7151 1096,7107 1063,7070 1038,7056 998,7050 959,7042 932,7027 902,7001 879,6975 872,6949 874,6917 861,6873 849,6835 839,6805 842,6763 816,6724 776,6710 759,6692 751,6671 751,6647 754,6617 770,6577 790,6542 802,6532 815,6531 824,6540 830,6564 846,6564 864,6561 884,6566 908,6574 939,6600 952,6628 961,6671 982,6693 1052,6691 1060,6677 1067,6646 1078,6627 1116,6593 1153,6560 1158,6521 1179,6496 1199,6494 1215,6499 1221,6510 1224,6548 1221,6566 1212,6585 1238,6599 1254,6607 1265,6616 1262,6656 1291,6668 1313,6686 1324,6701 1316,6717 1321,6727 1324,6749 1319,6782 1322,6816 1321,6843 1321,6874 1339,6903 1370,6918 1394,6945 1419,6977 1455,7005 1475,7040 1502,7038 1558,7053 1581,7057 1610,7065 1627,7063 1638,7068 1645,7070 1663,7072 1688,7057 1718,7054 1744,7052 1775,7045 1801,7035 1830,7032 1857,7029 1891,7005 1923,6997 1956,6993 1983,6993 1986,6993 1999,6991 2008,6994 2008,7008 2012,7025 2017,7037 2027,7034 2034,7019 2038,7015 2059,7031 2085,7027 2092,7020 2086,7009 2067,6991 2073,6977 2065,6962 2069,6955 2070,6944 2076,6937 2077,6926 2077,6918 2083,6916 2092,6917 2103,6933 2111,6944 2122,6955 2136,6960 2153,6960 2174,6977 2196,6987 2241,6973 2280,6966 2300,6963 2313,6964 2346,6951 2375,6946 2411,6938 2421,6919 2430,6910 2436,6908 2440,6913 2448,6930 2467,6946 2492,6951 2509,6945 2513,6933 2503,6920 2479,6905 2474,6895 2482,6889 2511,6889 2527,6889 2544,6889 2572,6880 2578,6856 2590,6851 2615,6861 2631,6859 2631,6824 2656,6832 2660,6823 2644,6809 2640,6796 2651,6790 2676,6797 2687,6796 2699,6785 2723,6770 2741,6752 2767,6759 2782,6765 2799,6755 2819,6762 2818,6782 2821,6793 2838,6777 2864,6785 2877,6768 2937,6733 2961,6731 2971,6719 2987,6705 2998,6711 2999,6717 3011,6740 3023,6745 3026,6740 3026,6732 3028,6718 3057,6691 3072,6675 3084,6672 3108,6673 3114,6667 3131,6670 3146,6665 3162,6653 3166,6637 3180,6610 3212,6589 3239,6568 3265,6548 3291,6546 3318,6547 3348,6542 3375,6515 3382,6481 3409,6453 3442,6440 3470,6446 3496,6441 3511,6416 3541,6416 3569,6406 3597,6390 3622,6365 3653,6350 3683,6335 3710,6329 3739,6321 3768,6308 3800,6302 3831,6275 3860,6258 3890,6226 3914,6201 3932,6170 3957,6164 3988,6175 4017,6177 4043,6169 4043,6160 4026,6137 4042,6126 4077,6114 4107,6108 4136,6093 4163,6080 4189,6075 4224,6084 4252,6079 4280,6064 4305,6043 4312,6016 4324,5986 4335,5959 4345,5925 4321,5898 4330,5872 4364,5843 4394,5824 4427,5798 4455,5780 4481,5755 4517,5742 4548,5742 4583,5749 4612,5748 4626,5740 4626,5727 4608,5699 4587,5672 4562,5667 4558,5654 4563,5638 4592,5617 4621,5601 4638,5572 4668,5559 4700,5530 4712,5505 4737,5478 4762,5453 4789,5423 4816,5410 4839,5380 4867,5373 4901,5355 4926,5335 4959,5317 4988,5318 5040,5315 5069,5291 5095,5268 5123,5255 5152,5250 5178,5255 5208,5260 5240,5250 5274,5226 5285,5199 5313,5202 5339,5187 5370,5196 5398,5209 5429,5227 5454,5237 5480,5242 5511,5242 5520,5242 5536,5233 5514,5207 5511,5196 5511,5186 5518,5175 5526,5165 5540,5163 5542,5153 5559,5146 5569,5071 5610,5075 5662,5083 5683,5069 5693,5049 5702,5034 5705,5032 5712,5041 " class="polyStyle" id="530926" style="fill:#d4ecb2"/>
<path d="" class="polyStyle" id="350624" style="fill:#f6f67b"/>
<polygon points="2271,3937 2295,3962 2326,3976 2359,3990 2387,4011 2398,4043 2375,4076 2340,4104 2313,4127 2294,4156 2293,4186 2293,4220 2305,4248 2315,4248 2326,4249 2339,4254 2349,4256 2357,4258 2369,4262 2375,4265 2381,4269 2394,4276 2403,4285 2418,4294 2422,4301 2423,4308 2419,4315 2413,4320 2408,4325 2403,4328 2399,4334 2391,4343 2386,4350 2381,4355 2378,4360 2376,4364 2374,4367 2374,4372 2376,4380 2381,4389 2379,4396 2373,4399 2368,4402 2364,4403 2361,4404 2352,4406 2343,4412 2335,4414 2329,4417 2329,4423 2332,4428 2334,4435 2336,4453 2331,4464 2322,4469 2311,4472 2298,4473 2291,4476 2287,4478 2266,4486 2256,4493 2244,4503 2237,4512 2234,4521 2231,4530 2230,4542 2227,4550 2226,4555 2221,4562 2212,4569 2207,4572 2202,4576 2198,4579 2194,4582 2192,4587 2191,4590 2189,4602 2188,4612 2186,4618 2185,4624 2180,4631 2171,4639 2163,4647 2154,4655 2147,4660 2140,4664 2132,4666 2118,4674 2105,4680 2095,4686 2087,4691 2081,4696 2078,4703 2076,4707 2077,4716 2078,4723 2080,4729 2083,4733 2087,4738 2092,4744 2100,4751 2103,4757 2106,4761 2113,4770 2120,4779 2118,4787 2113,4794 2106,4801 2103,4808 2111,4815 2119,4814 2124,4816 2135,4815 2143,4815 2149,4821 2155,4830 2157,4844 2158,4850 2159,4858 2160,4869 2159,4881 2157,4897 2154,4906 2149,4911 2144,4917 2142,4920 2136,4925 2124,4931 2114,4937 2101,4946 2095,4951 2092,4955 2090,4959 2089,4966 2090,4971 2094,4977 2099,4983 2101,4984 2104,4982 2113,4979 2121,4979 2129,4980 2144,4980 2152,4978 2155,4978 2169,4973 2179,4972 2182,4973 2186,4980 2190,4991 2191,5004 2190,5019 2190,5027 2191,5031 2195,5037 2204,5045 2210,5049 2221,5056 2226,5061 2239,5069 2245,5076 2255,5089 2271,5102 2280,5112 2285,5121 2291,5125 2297,5128 2303,5133 2315,5129 2323,5131 2328,5139 2341,5139 2351,5140 2361,5141 2368,5143 2375,5147 2382,5152 2390,5157 2396,5161 2401,5167 2410,5174 2411,5177 2413,5180 2421,5189 2428,5197 2430,5205 2432,5214 2432,5223 2432,5234 2430,5242 2428,5259 2425,5267 2425,5275 2425,5293 2428,5311 2430,5319 2434,5327 2443,5332 2452,5331 2460,5332 2467,5339 2474,5351 2494,5344 2504,5347 2510,5354 2514,5361 2515,5370 2518,5388 2519,5407 2527,5418 2540,5425 2553,5431 2564,5437 2573,5448 2578,5460 2571,5474 2562,5480 2557,5486 2549,5492 2540,5502 2537,5513 2535,5527 2535,5539 2529,5556 2530,5569 2531,5582 2532,5595 2522,5612 2540,5621 2545,5631 2544,5655 2555,5669 2558,5682 2540,5702 2550,5710 2549,5730 2557,5738 2568,5742 2570,5749 2572,5760 2567,5773 2562,5786 2556,5796 2556,5804 2560,5818 2562,5827 2566,5836 2562,5840 2551,5843 2530,5866 2522,5872 2516,5876 2501,5884 2491,5890 2482,5896 2473,5903 2461,5909 2449,5915 2438,5921 2433,5928 2432,5936 2438,5948 2442,5959 2448,5971 2453,5982 2458,5985 2466,5986 2474,5983 2491,5975 2510,5963 2521,5961 2529,5964 2532,5973 2543,5999 2546,6010 2549,6022 2553,6033 2561,6057 2561,6064 2559,6073 2552,6081 2540,6090 2528,6099 2517,6108 2512,6112 2513,6120 2523,6121 2528,6125 2536,6135 2538,6139 2543,6147 2543,6151 2542,6156 2538,6163 2531,6172 2529,6181 2535,6189 2537,6193 2546,6196 2555,6196 2565,6192 2579,6184 2589,6179 2600,6174 2611,6169 2620,6164 2629,6160 2638,6155 2646,6151 2653,6151 2657,6151 2671,6173 2675,6174 2678,6173 2689,6164 2697,6158 2705,6147 2713,6139 2730,6135 2741,6134 2751,6132 2762,6130 2772,6128 2783,6126 2801,6126 2811,6126 2821,6126 2831,6125 2847,6120 2859,6117 2871,6113 2883,6109 2895,6105 2907,6101 2929,6091 2941,6081 2956,6071 2979,6060 2989,6059 3000,6058 3011,6057 3023,6054 3046,6046 3068,6041 3079,6038 3090,6038 3102,6037 3114,6035 3125,6034 3137,6034 3149,6032 3163,6033 3194,6068 3217,6120 3235,6152 3268,6155 3293,6160 3334,6161 3364,6162 3390,6181 3419,6194 3444,6222 3459,6249 3467,6280 3470,6308 3495,6342 3508,6368 3525,6396 3511,6416 3496,6441 3470,6446 3442,6440 3409,6453 3382,6481 3375,6515 3348,6542 3318,6547 3291,6546 3265,6548 3239,6568 3212,6589 3180,6610 3166,6637 3162,6653 3146,6665 3131,6670 3114,6667 3108,6673 3084,6672 3072,6675 3057,6691 3028,6718 3026,6732 3026,6740 3023,6745 3011,6740 2999,6717 2998,6711 2987,6705 2971,6719 2961,6731 2937,6733 2877,6768 2864,6785 2838,6777 2821,6793 2818,6782 2819,6762 2799,6755 2782,6765 2767,6759 2741,6752 2723,6770 2699,6785 2687,6796 2676,6797 2651,6790 2640,6796 2644,6809 2660,6823 2656,6832 2631,6824 2631,6859 2615,6861 2590,6851 2578,6856 2572,6880 2544,6889 2527,6889 2511,6889 2482,6889 2474,6895 2479,6905 2503,6920 2513,6933 2509,6945 2492,6951 2467,6946 2448,6930 2440,6913 2436,6908 2430,6910 2421,6919 2411,6938 2375,6946 2346,6951 2313,6964 2300,6963 2280,6966 2241,6973 2196,6987 2174,6977 2153,6960 2136,6960 2122,6955 2111,6944 2103,6933 2092,6917 2083,6916 2077,6918 2077,6926 2076,6937 2070,6944 2069,6955 2065,6962 2073,6977 2067,6991 2086,7009 2092,7020 2085,7027 2059,7031 2038,7015 2034,7019 2027,7034 2017,7037 2012,7025 2008,7008 2008,6994 1999,6991 1986,6993 1983,6993 1956,6993 1923,6997 1891,7005 1857,7029 1830,7032 1801,7035 1775,7045 1744,7052 1718,7054 1688,7057 1663,7072 1645,7070 1638,7068 1627,7063 1610,7065 1581,7057 1558,7053 1502,7038 1475,7040 1455,7005 1419,6977 1394,6945 1370,6918 1339,6903 1321,6874 1321,6843 1322,6816 1319,6782 1324,6749 1321,6727 1316,6717 1324,6701 1313,6686 1291,6668 1262,6656 1265,6616 1254,6607 1238,6599 1212,6585 1221,6566 1224,6548 1221,6510 1215,6499 1199,6494 1179,6496 1158,6521 1153,6560 1116,6593 1078,6627 1067,6646 1060,6677 1052,6691 982,6693 961,6671 952,6628 939,6600 908,6574 884,6566 864,6561 846,6564 830,6564 824,6540 815,6531 802,6532 790,6542 792,6538 767,6514 749,6484 733,6451 710,6419 683,6391 663,6357 651,6316 626,6285 601,6268 575,6262 543,6267 515,6281 499,6283 491,6283 485,6283 477,6283 461,6284 456,6285 449,6285 444,6286 438,6287 431,6290 425,6290 419,6292 414,6293 409,6294 395,6290 379,6277 373,6267 374,6264 374,6255 368,6259 355,6260 345,6256 341,6253 336,6243 334,6237 328,6231 323,6230 308,6229 297,6231 289,6230 279,6227 268,6224 259,6220 252,6218 240,6215 231,6214 207,6214 199,6215 190,6219 165,6234 159,6237 147,6243 142,6245 135,6246 121,6247 116,6243 113,6237 111,6232 108,6225 104,6217 100,6209 99,6204 96,6191 94,6182 90,6175 84,6168 78,6164 74,6162 69,6160 60,6157 52,6155 45,6150 0,6121 50,6102 92,6097 115,6085 136,6055 146,6024 156,5992 152,5953 125,5948 108,5920 125,5895 134,5869 133,5832 124,5804 115,5770 110,5734 97,5707 88,5683 72,5650 53,5619 54,5582 85,5534 97,5508 112,5479 130,5463 141,5432 110,5408 69,5407 29,5385 38,5351 63,5325 97,5294 126,5276 154,5252 182,5272 211,5294 244,5319 280,5325 306,5326 339,5300 371,5284 393,5270 417,5239 427,5213 457,5197 481,5177 464,5148 459,5118 476,5092 499,5065 526,5042 554,5047 586,5049 622,5048 647,5048 674,5037 679,5008 701,4980 731,4958 788,4940 817,4926 845,4915 872,4905 899,4887 927,4868 959,4850 983,4825 990,4798 978,4769 995,4744 1028,4731 1053,4718 1089,4684 1121,4655 1140,4629 1125,4599 1113,4586 1111,4554 1105,4535 1091,4507 1083,4478 1078,4465 1070,4451 1047,4421 1029,4410 1036,4403 1064,4380 1115,4346 1147,4317 1167,4288 1183,4262 1218,4250 1249,4249 1292,4237 1323,4229 1348,4227 1385,4218 1420,4203 1455,4189 1485,4167 1514,4155 1549,4137 1582,4130 1616,4126 1642,4120 1646,4118 1671,4113 1698,4105 1728,4099 1756,4085 1771,4049 1762,4021 1794,4006 1820,4010 1851,4017 1880,4028 1916,4014 1945,4002 1985,3982 2017,3974 2053,3980 2083,3985 2116,3976 2141,3933 2158,3902 2193,3895 2219,3889 2240,3918 " class="polyStyle" id="530924" style="fill:#ee8b94"/>
<path d="" class="polyStyle" id="" style="fill:#fbe6ef"/>
<polygon points="3127,2936 3136,2940 3146,2946 3154,2952 3159,2960 3164,2963 3167,2965 3172,2966 3177,2964 3183,2962 3186,2961 3199,2962 3205,2966 3210,2974 3215,2986 3219,2995 3222,3003 3223,3006 3227,3013 3231,3017 3239,3027 3244,3031 3250,3038 3264,3049 3271,3057 3272,3060 3272,3064 3270,3070 3269,3074 3266,3078 3264,3088 3266,3095 3269,3101 3274,3108 3276,3111 3284,3124 3288,3134 3290,3145 3294,3153 3299,3161 3301,3165 3300,3170 3296,3175 3292,3179 3290,3182 3291,3191 3296,3200 3299,3201 3308,3210 3314,3221 3316,3226 3319,3239 3321,3250 3324,3267 3325,3272 3337,3284 3346,3291 3352,3294 3364,3302 3373,3311 3377,3321 3377,3332 3376,3335 3376,3342 3375,3346 3374,3352 3374,3356 3374,3360 3375,3365 3375,3375 3373,3385 3370,3391 3368,3401 3369,3413 3371,3424 3374,3437 3378,3448 3386,3461 3386,3464 3385,3472 3383,3482 3383,3486 3386,3494 3393,3504 3398,3513 3405,3523 3412,3535 3418,3541 3421,3542 3424,3542 3432,3546 3434,3552 3432,3560 3432,3568 3432,3578 3436,3586 3443,3589 3457,3591 3465,3593 3468,3594 3473,3599 3474,3604 3472,3616 3469,3627 3468,3635 3469,3649 3467,3661 3464,3672 3460,3683 3456,3693 3452,3700 3443,3709 3433,3714 3422,3718 3419,3720 3416,3723 3414,3729 3412,3740 3412,3750 3411,3757 3411,3761 3410,3766 3409,3770 3406,3781 3407,3795 3409,3804 3413,3811 3416,3814 3419,3815 3424,3820 3428,3828 3430,3837 3428,3845 3426,3853 3424,3863 3423,3867 3424,3874 3431,3885 3436,3892 3438,3900 3439,3905 3438,3914 3437,3918 3433,3922 3427,3925 3413,3927 3407,3930 3406,3937 3407,3940 3411,3946 3421,3956 3428,3960 3438,3963 3447,3964 3462,3962 3468,3961 3475,3960 3480,3960 3486,3960 3495,3961 3502,3961 3507,3963 3521,3972 3530,3979 3541,3988 3551,3995 3563,4000 3571,4002 3578,4001 3593,3998 3604,3998 3607,3999 3621,4002 3625,4004 3638,4010 3651,4016 3665,4020 3677,4020 3685,4018 3698,4012 3702,4012 3706,4013 3711,4018 3713,4022 3717,4031 3720,4036 3722,4040 3726,4039 3734,4035 3738,4028 3742,4018 3746,4007 3752,3996 3757,3992 3765,3988 3769,3984 3771,3980 3774,3971 3776,3966 3786,3959 3796,3952 3802,3946 3813,3937 3822,3932 3831,3928 3838,3931 3846,3936 3855,3940 3858,3940 3864,3944 3874,3952 3880,3954 3886,3957 3889,3957 3901,3961 3904,3962 3908,3963 3919,3965 3925,3965 3928,3965 3939,3964 3943,3962 3948,3958 3950,3954 3952,3950 3952,3941 3952,3931 3951,3923 3955,3913 3958,3909 3970,3900 3983,3889 3992,3885 4007,3882 4015,3879 4020,3874 4023,3865 4026,3856 4025,3848 4024,3833 4022,3819 4022,3795 4022,3767 4023,3760 4026,3753 4031,3744 4036,3732 4039,3720 4039,3710 4040,3703 4043,3694 4047,3685 4053,3680 4058,3677 4066,3673 4070,3670 4074,3667 4084,3657 4087,3651 4090,3642 4093,3637 4105,3625 4108,3614 4108,3601 4110,3595 4114,3587 4124,3578 4128,3577 4134,3576 4137,3575 4155,3575 4173,3570 4187,3567 4207,3566 4211,3566 4224,3562 4231,3558 4243,3548 4254,3542 4261,3540 4267,3541 4276,3542 4267,3552 4265,3556 4265,3564 4266,3570 4270,3576 4279,3586 4287,3596 4293,3611 4289,3620 4280,3627 4268,3638 4263,3645 4263,3651 4265,3657 4269,3662 4277,3673 4290,3689 4292,3693 4297,3695 4307,3709 4308,3725 4312,3737 4321,3743 4342,3744 4349,3749 4349,3755 4346,3767 4346,3776 4351,3784 4365,3786 4378,3789 4388,3794 4398,3800 4406,3799 4415,3794 4421,3786 4436,3775 4449,3766 4456,3763 4467,3759 4487,3755 4493,3754 4499,3754 4504,3752 4506,3749 4510,3737 4515,3729 4521,3720 4527,3711 4530,3706 4530,3699 4531,3694 4530,3688 4531,3680 4533,3674 4538,3670 4543,3670 4549,3670 4554,3669 4554,3662 4553,3654 4552,3649 4555,3644 4562,3641 4567,3639 4574,3638 4584,3641 4590,3644 4598,3647 4607,3653 4617,3661 4627,3664 4638,3662 4644,3660 4651,3658 4657,3658 4668,3662 4674,3665 4689,3673 4697,3678 4706,3686 4715,3703 4725,3712 4735,3718 4745,3720 4754,3716 4757,3704 4762,3692 4766,3685 4770,3682 4775,3682 4785,3691 4791,3701 4794,3704 4801,3715 4806,3724 4814,3737 4818,3747 4821,3757 4826,3767 4832,3774 4840,3778 4849,3780 4857,3782 4863,3786 4869,3795 4873,3801 4881,3807 4887,3810 4894,3812 4901,3812 4910,3813 4916,3816 4922,3818 4928,3819 4935,3819 4945,3816 4955,3813 4969,3811 4980,3812 4989,3814 4997,3817 5003,3822 5005,3827 5006,3832 5008,3837 5014,3845 5026,3851 5037,3852 5046,3856 5060,3865 5066,3871 5071,3875 5076,3879 5079,3880 5086,3880 5094,3880 5100,3879 5103,3879 5111,3882 5122,3885 5132,3889 5140,3891 5150,3897 5161,3907 5173,3913 5179,3913 5189,3913 5203,3917 5218,3918 5229,3919 5240,3920 5248,3921 5253,3921 5261,3920 5266,3919 5272,3917 5277,3914 5283,3910 5287,3906 5294,3900 5299,3898 5306,3896 5311,3896 5318,3897 5323,3898 5328,3899 5334,3900 5345,3900 5355,3901 5366,3901 5391,3899 5409,3900 5422,3900 5438,3900 5439,3906 5440,3917 5443,3920 5448,3923 5459,3922 5471,3921 5476,3922 5481,3924 5481,3938 5489,3939 5497,3942 5504,3949 5516,3948 5522,3951 5523,3962 5522,3973 5528,3975 5533,3976 5537,3978 5539,3984 5542,3991 5546,3995 5557,3998 5562,4001 5564,4004 5563,4007 5553,4014 5556,4017 5566,4017 5580,4024 5599,4025 5611,4021 5636,4009 5649,4004 5661,4000 5671,3996 5680,3998 5688,4007 5695,4020 5704,4035 5713,4044 5717,4045 5722,4042 5722,4030 5722,4016 5723,4009 5722,4006 5723,4002 5726,3998 5732,3999 5748,4011 5761,4020 5768,4019 5778,4011 5783,4011 5790,4016 5795,4022 5802,4034 5805,4036 5808,4036 5817,4040 5824,4042 5830,4037 5837,4033 5845,4033 5852,4055 5856,4083 5835,4109 5809,4119 5795,4152 5794,4187 5790,4221 5784,4253 5768,4284 5742,4306 5714,4281 5675,4277 5645,4284 5607,4298 5574,4302 5549,4299 5508,4296 5490,4311 5469,4316 5440,4312 5415,4311 5389,4315 5364,4321 5334,4330 5306,4338 5276,4351 5253,4362 5250,4368 5253,4384 5260,4410 5250,4440 5232,4477 5241,4507 5267,4527 5295,4530 5317,4564 5352,4592 5361,4632 5378,4658 5388,4678 5371,4700 5380,4726 5419,4759 5457,4773 5491,4787 5512,4817 5537,4837 5588,4857 5592,4876 5597,4880 5633,4879 5664,4890 5678,4895 5695,4907 5704,4913 5730,4918 5751,4920 5764,4921 5765,4931 5744,4942 5731,4946 5730,4950 5743,4964 5761,4991 5762,5001 5749,5004 5743,5022 5710,5030 5705,5032 5702,5034 5693,5049 5683,5069 5662,5083 5610,5075 5569,5071 5559,5146 5542,5153 5540,5163 5526,5165 5518,5175 5511,5186 5511,5196 5514,5207 5536,5233 5520,5242 5511,5242 5480,5242 5454,5237 5429,5227 5398,5209 5370,5196 5339,5187 5313,5202 5285,5199 5274,5226 5240,5250 5208,5260 5178,5255 5152,5250 5123,5255 5095,5268 5069,5291 5040,5315 4988,5318 4959,5317 4926,5335 4901,5355 4867,5373 4839,5380 4816,5410 4789,5423 4762,5453 4737,5478 4712,5505 4700,5530 4668,5559 4638,5572 4621,5601 4592,5617 4563,5638 4558,5654 4562,5667 4587,5672 4608,5699 4626,5727 4626,5740 4612,5748 4583,5749 4548,5742 4517,5742 4481,5755 4455,5780 4427,5798 4394,5824 4364,5843 4330,5872 4321,5898 4345,5925 4335,5959 4324,5986 4312,6016 4305,6043 4280,6064 4252,6079 4224,6084 4189,6075 4163,6080 4136,6093 4107,6108 4077,6114 4042,6126 4026,6137 4043,6160 4043,6169 4017,6177 3988,6175 3957,6164 3932,6170 3914,6201 3890,6226 3860,6258 3831,6275 3800,6302 3768,6308 3739,6321 3710,6329 3683,6335 3653,6350 3622,6365 3597,6390 3569,6406 3541,6416 3511,6416 3525,6396 3508,6368 3495,6342 3470,6308 3467,6280 3459,6249 3444,6222 3419,6194 3390,6181 3364,6162 3334,6161 3293,6160 3268,6155 3235,6152 3217,6120 3194,6068 3163,6033 3149,6032 3137,6034 3125,6034 3114,6035 3102,6037 3090,6038 3079,6038 3068,6041 3046,6046 3023,6054 3011,6057 3000,6058 2989,6059 2979,6060 2956,6071 2941,6081 2929,6091 2907,6101 2895,6105 2883,6109 2871,6113 2859,6117 2847,6120 2831,6125 2821,6126 2811,6126 2801,6126 2783,6126 2772,6128 2762,6130 2751,6132 2741,6134 2730,6135 2713,6139 2705,6147 2697,6158 2689,6164 2678,6173 2675,6174 2671,6173 2657,6151 2653,6151 2646,6151 2638,6155 2629,6160 2620,6164 2611,6169 2600,6174 2589,6179 2579,6184 2565,6192 2555,6196 2546,6196 2537,6193 2535,6189 2529,6181 2531,6172 2538,6163 2542,6156 2543,6151 2543,6147 2538,6139 2536,6135 2528,6125 2523,6121 2513,6120 2512,6112 2517,6108 2528,6099 2540,6090 2552,6081 2559,6073 2561,6064 2561,6057 2553,6033 2549,6022 2546,6010 2543,5999 2532,5973 2529,5964 2521,5961 2510,5963 2491,5975 2474,5983 2466,5986 2458,5985 2453,5982 2448,5971 2442,5959 2438,5948 2432,5936 2433,5928 2438,5921 2449,5915 2461,5909 2473,5903 2482,5896 2491,5890 2501,5884 2516,5876 2522,5872 2530,5866 2551,5843 2562,5840 2566,5836 2562,5827 2560,5818 2556,5804 2556,5796 2562,5786 2567,5773 2572,5760 2570,5749 2568,5742 2557,5738 2549,5730 2550,5710 2540,5702 2558,5682 2555,5669 2544,5655 2545,5631 2540,5621 2522,5612 2532,5595 2531,5582 2530,5569 2529,5556 2535,5539 2535,5527 2537,5513 2540,5502 2549,5492 2557,5486 2562,5480 2571,5474 2578,5460 2573,5448 2564,5437 2553,5431 2540,5425 2527,5418 2519,5407 2518,5388 2515,5370 2514,5361 2510,5354 2504,5347 2494,5344 2474,5351 2467,5339 2460,5332 2452,5331 2443,5332 2434,5327 2430,5319 2428,5311 2425,5293 2425,5275 2425,5267 2428,5259 2430,5242 2432,5234 2432,5223 2432,5214 2430,5205 2428,5197 2421,5189 2413,5180 2411,5177 2410,5174 2401,5167 2396,5161 2390,5157 2382,5152 2375,5147 2368,5143 2361,5141 2351,5140 2341,5139 2328,5139 2323,5131 2315,5129 2303,5133 2297,5128 2291,5125 2285,5121 2280,5112 2271,5102 2255,5089 2245,5076 2239,5069 2226,5061 2221,5056 2210,5049 2204,5045 2195,5037 2191,5031 2190,5027 2190,5019 2191,5004 2190,4991 2186,4980 2182,4973 2179,4972 2169,4973 2155,4978 2152,4978 2144,4980 2129,4980 2121,4979 2113,4979 2104,4982 2101,4984 2099,4983 2094,4977 2090,4971 2089,4966 2090,4959 2092,4955 2095,4951 2101,4946 2114,4937 2124,4931 2136,4925 2142,4920 2144,4917 2149,4911 2154,4906 2157,4897 2159,4881 2160,4869 2159,4858 2158,4850 2157,4844 2155,4830 2149,4821 2143,4815 2135,4815 2124,4816 2119,4814 2111,4815 2103,4808 2106,4801 2113,4794 2118,4787 2120,4779 2113,4770 2106,4761 2103,4757 2100,4751 2092,4744 2087,4738 2083,4733 2080,4729 2078,4723 2077,4716 2076,4707 2078,4703 2081,4696 2087,4691 2095,4686 2105,4680 2118,4674 2132,4666 2140,4664 2147,4660 2154,4655 2163,4647 2171,4639 2180,4631 2185,4624 2186,4618 2188,4612 2189,4602 2191,4590 2192,4587 2194,4582 2198,4579 2202,4576 2207,4572 2212,4569 2221,4562 2226,4555 2227,4550 2230,4542 2231,4530 2234,4521 2237,4512 2244,4503 2256,4493 2266,4486 2287,4478 2291,4476 2298,4473 2311,4472 2322,4469 2331,4464 2336,4453 2334,4435 2332,4428 2329,4423 2329,4417 2335,4414 2343,4412 2352,4406 2361,4404 2364,4403 2368,4402 2373,4399 2379,4396 2381,4389 2376,4380 2374,4372 2374,4367 2376,4364 2378,4360 2381,4355 2386,4350 2391,4343 2399,4334 2403,4328 2408,4325 2413,4320 2419,4315 2423,4308 2422,4301 2418,4294 2403,4285 2394,4276 2381,4269 2375,4265 2369,4262 2357,4258 2349,4256 2339,4254 2326,4249 2315,4248 2305,4248 2293,4220 2293,4186 2294,4156 2313,4127 2340,4104 2375,4076 2398,4043 2387,4011 2359,3990 2326,3976 2295,3962 2271,3937 2240,3918 2219,3889 2247,3861 2275,3835 2308,3810 2351,3791 2378,3776 2411,3744 2433,3714 2444,3683 2453,3649 2469,3614 2497,3603 2529,3606 2561,3599 2575,3572 2570,3545 2557,3529 2550,3520 2554,3518 2559,3515 2571,3509 2576,3508 2591,3505 2595,3505 2600,3505 2612,3508 2626,3512 2639,3514 2645,3514 2653,3511 2662,3505 2672,3496 2680,3486 2686,3477 2690,3467 2694,3455 2696,3445 2697,3435 2698,3430 2696,3426 2694,3417 2692,3403 2693,3396 2692,3389 2692,3385 2693,3376 2694,3371 2694,3361 2694,3352 2692,3344 2691,3331 2692,3325 2694,3317 2696,3313 2697,3310 2702,3303 2709,3295 2713,3291 2717,3285 2724,3278 2727,3276 2733,3272 2734,3269 2734,3263 2735,3256 2742,3250 2751,3243 2758,3236 2763,3228 2766,3219 2766,3208 2766,3205 2766,3199 2768,3194 2775,3185 2782,3181 2787,3179 2793,3174 2797,3169 2801,3163 2803,3154 2805,3143 2805,3139 2813,3133 2821,3132 2824,3132 2830,3133 2839,3134 2852,3135 2855,3135 2858,3132 2861,3127 2863,3122 2862,3115 2860,3108 2858,3103 2857,3095 2860,3090 2869,3084 2881,3076 2892,3068 2900,3059 2905,3055 2910,3045 2914,3033 2919,3023 2922,3017 2924,3009 2926,3005 2927,2998 2929,2984 2931,2980 2937,2975 2941,2971 2946,2966 2954,2956 2955,2951 2958,2946 2967,2939 2972,2937 2976,2937 2982,2936 2987,2936 2992,2935 3000,2935 3010,2935 3016,2934 3038,2935 3052,2937 3061,2938 3069,2940 3075,2941 3085,2940 3099,2937 3111,2934 3114,2934 3123,2935 " class="polyStyle" id="530923" style="fill:#f6f67b"/>
<polygon points="8267,1404 8298,1431 8333,1438 8361,1434 8390,1416 8416,1427 8427,1454 8450,1480 8465,1509 8494,1536 8525,1531 8554,1520 8575,1556 8593,1586 8621,1597 8661,1600 8676,1629 8673,1661 8662,1694 8656,1744 8657,1770 8685,1785 8713,1775 8739,1798 8753,1839 8760,1869 8736,1895 8739,1922 8775,1948 8810,1964 8835,1990 8841,2032 8879,2040 8915,2051 8883,2072 8911,2098 8942,2123 8939,2154 8944,2186 8971,2187 9013,2198 9032,2236 9061,2265 9070,2298 9065,2325 9094,2333 9117,2364 9128,2393 9118,2419 9114,2456 9128,2482 9132,2511 9129,2545 9143,2565 9180,2570 9208,2579 9234,2601 9263,2608 9292,2623 9295,2651 9301,2687 9311,2721 9331,2749 9364,2775 9371,2801 9371,2834 9368,2861 9340,2875 9313,2882 9284,2881 9256,2887 9226,2893 9200,2920 9190,2946 9177,2972 9167,3001 9157,3033 9165,3059 9170,3086 9159,3115 9163,3141 9172,3168 9160,3195 9143,3224 9131,3257 9143,3269 9171,3285 9173,3311 9171,3338 9166,3365 9162,3391 9160,3420 9152,3446 9143,3454 9126,3487 9143,3506 9168,3525 9190,3553 9190,3581 9179,3607 9166,3645 9176,3672 9184,3717 9191,3743 9209,3771 9210,3796 9201,3822 9170,3830 9160,3856 9143,3878 9136,3907 9143,3913 9170,3922 9195,3940 9211,3966 9229,3994 9225,4022 9227,4060 9226,4088 9225,4125 9235,4150 9248,4176 9249,4201 9245,4237 9238,4268 9215,4300 9231,4327 9229,4356 9220,4382 9198,4411 9188,4450 9189,4475 9193,4503 9176,4530 9168,4557 9162,4586 9143,4623 9119,4661 9118,4691 9101,4722 9072,4738 9059,4765 9026,4776 9001,4779 8970,4793 8939,4811 8905,4816 8865,4815 8838,4816 8803,4817 8771,4821 8731,4838 8702,4841 8665,4839 8629,4829 8602,4824 8571,4819 8527,4821 8501,4826 8471,4841 8456,4867 8449,4894 8445,4922 8452,4956 8467,4995 8478,5030 8493,5057 8522,5066 8530,5094 8513,5125 8509,5151 8514,5179 8524,5190 8544,5220 8581,5257 8591,5283 8589,5312 8605,5343 8597,5373 8591,5397 8594,5404 8589,5406 8587,5409 8581,5414 8576,5416 8573,5416 8570,5415 8566,5413 8563,5411 8559,5413 8549,5418 8543,5420 8539,5422 8535,5422 8532,5420 8529,5418 8516,5412 8497,5403 8473,5387 8463,5381 8452,5373 8442,5365 8431,5357 8421,5345 8412,5338 8403,5334 8395,5334 8386,5336 8372,5338 8359,5338 8344,5331 8331,5324 8315,5312 8301,5305 8281,5303 8270,5306 8262,5307 8256,5306 8245,5295 8233,5293 8218,5297 8205,5303 8190,5312 8180,5322 8173,5334 8167,5345 8162,5356 8154,5367 8141,5353 8132,5342 8122,5330 8113,5318 8104,5314 8094,5310 8086,5306 8076,5302 8066,5298 8057,5294 8039,5280 8024,5270 8018,5269 8012,5271 8003,5276 7992,5283 7988,5289 7984,5297 7984,5307 7984,5316 7984,5325 7980,5342 7967,5367 7959,5382 7952,5387 7943,5389 7931,5387 7918,5381 7909,5375 7894,5369 7886,5360 7878,5348 7871,5335 7863,5322 7861,5315 7861,5303 7863,5295 7867,5283 7871,5273 7871,5265 7871,5256 7871,5247 7872,5229 7875,5222 7876,5217 7883,5203 7884,5180 7885,5173 7886,5165 7884,5162 7876,5153 7861,5146 7851,5140 7835,5132 7828,5129 7814,5121 7799,5111 7789,5108 7779,5102 7774,5098 7771,5093 7769,5089 7767,5078 7766,5072 7765,5061 7766,5054 7765,5045 7766,5039 7764,5021 7764,5012 7761,4998 7757,4989 7752,4977 7749,4962 7748,4948 7748,4938 7749,4928 7746,4917 7742,4911 7738,4906 7732,4896 7728,4892 7727,4884 7728,4876 7728,4869 7729,4863 7725,4856 7717,4850 7705,4844 7695,4838 7688,4829 7680,4817 7673,4810 7665,4802 7647,4793 7631,4791 7625,4789 7618,4786 7608,4781 7603,4776 7594,4767 7592,4763 7586,4753 7583,4747 7580,4740 7580,4734 7579,4729 7579,4722 7575,4712 7572,4702 7570,4699 7563,4694 7557,4689 7551,4685 7542,4679 7529,4674 7519,4671 7507,4665 7496,4658 7490,4654 7481,4648 7473,4642 7465,4636 7460,4632 7453,4626 7442,4614 7434,4608 7429,4604 7425,4605 7420,4607 7415,4613 7412,4613 7408,4610 7404,4607 7397,4600 7386,4590 7377,4587 7371,4584 7369,4580 7369,4575 7370,4570 7372,4567 7379,4565 7389,4564 7387,4558 7387,4554 7386,4547 7385,4540 7387,4534 7390,4528 7394,4524 7400,4519 7404,4516 7409,4514 7415,4509 7423,4500 7425,4491 7428,4471 7435,4451 7449,4431 7455,4421 7456,4413 7456,4406 7456,4396 7452,4383 7443,4370 7435,4358 7426,4346 7424,4334 7418,4328 7414,4321 7408,4310 7400,4289 7400,4284 7401,4258 7407,4238 7414,4223 7415,4209 7413,4204 7409,4204 7402,4206 7394,4206 7390,4204 7387,4198 7387,4193 7388,4185 7389,4179 7391,4176 7396,4167 7396,4161 7395,4155 7394,4149 7390,4145 7387,4138 7385,4132 7383,4118 7381,4112 7379,4106 7380,4100 7383,4090 7380,4084 7375,4077 7368,4070 7342,4054 7331,4048 7320,4043 7305,4037 7297,4033 7280,4031 7272,4028 7270,4020 7269,4016 7269,4013 7269,4003 7269,3996 7268,3987 7266,3982 7259,3981 7245,3979 7241,3977 7236,3971 7230,3962 7222,3946 7217,3939 7213,3927 7213,3921 7213,3909 7211,3901 7205,3892 7197,3889 7190,3893 7187,3893 7180,3891 7169,3887 7159,3884 7146,3883 7140,3883 7132,3885 7124,3885 7121,3884 7116,3881 7113,3881 7110,3882 7105,3886 7090,3903 7086,3913 7084,3918 7083,3921 7082,3926 7079,3940 7074,3948 7070,3954 7068,3958 7068,3965 7072,3972 7077,3983 7081,3999 7083,4011 7084,4022 7086,4028 7084,4038 7080,4044 7077,4045 7074,4046 7063,4050 7057,4051 7045,4057 7039,4063 7035,4067 7032,4071 7028,4077 7022,4083 7017,4085 7008,4084 6997,4086 6988,4089 6978,4096 6967,4103 6954,4113 6950,4115 6942,4118 6935,4119 6930,4119 6925,4120 6919,4119 6910,4116 6904,4113 6896,4111 6880,4110 6860,4108 6854,4108 6838,4110 6828,4113 6822,4116 6819,4121 6811,4133 6807,4137 6801,4146 6797,4151 6798,4160 6801,4172 6800,4178 6798,4186 6792,4198 6788,4208 6787,4217 6788,4223 6791,4231 6796,4242 6800,4252 6804,4259 6805,4262 6809,4262 6819,4258 6822,4258 6837,4259 6843,4259 6851,4261 6858,4265 6865,4270 6876,4274 6885,4279 6894,4285 6901,4294 6909,4302 6917,4306 6923,4306 6930,4307 6939,4309 6947,4311 6952,4313 6960,4321 6963,4326 6967,4328 6975,4333 6981,4335 6988,4338 6991,4340 6994,4342 6995,4345 6993,4350 6989,4359 6982,4371 6981,4374 6981,4378 6981,4382 6983,4387 6987,4392 6991,4395 6996,4397 7008,4403 7018,4410 7022,4413 7026,4420 7025,4426 7024,4429 7020,4436 7011,4451 7008,4457 7006,4467 7006,4472 7008,4476 7012,4481 7016,4488 7017,4497 7016,4510 7011,4520 7011,4522 7005,4524 7002,4525 6993,4530 6981,4539 6973,4548 6968,4553 6962,4557 6959,4558 6955,4561 6948,4573 6942,4582 6932,4590 6921,4598 6910,4603 6905,4604 6894,4608 6880,4610 6876,4609 6870,4603 6863,4596 6853,4589 6841,4582 6830,4576 6822,4573 6809,4571 6798,4571 6794,4568 6788,4564 6766,4555 6758,4551 6754,4551 6751,4552 6747,4555 6738,4562 6724,4567 6698,4569 6683,4569 6672,4571 6663,4575 6658,4576 6651,4579 6646,4583 6645,4588 6647,4592 6650,4593 6657,4595 6662,4596 6666,4598 6670,4600 6673,4602 6676,4606 6678,4613 6680,4622 6680,4628 6678,4634 6676,4641 6672,4647 6669,4652 6663,4658 6659,4667 6656,4676 6653,4684 6653,4692 6653,4696 6654,4704 6659,4710 6665,4715 6672,4720 6675,4724 6677,4729 6675,4735 6673,4740 6667,4745 6652,4751 6645,4754 6638,4755 6630,4754 6621,4752 6613,4752 6608,4754 6602,4755 6598,4755 6591,4751 6583,4748 6579,4748 6576,4750 6572,4757 6566,4773 6554,4785 6547,4794 6544,4796 6535,4796 6527,4796 6523,4797 6521,4800 6515,4819 6511,4824 6507,4826 6504,4826 6501,4826 6495,4829 6491,4841 6491,4852 6492,4872 6486,4898 6484,4907 6480,4911 6474,4913 6465,4913 6449,4912 6436,4910 6424,4907 6411,4903 6400,4912 6397,4917 6394,4921 6393,4927 6392,4944 6394,4947 6398,4951 6400,4954 6401,4963 6401,4971 6401,4976 6412,4985 6416,4993 6417,4996 6417,5002 6415,5020 6412,5022 6404,5020 6389,5016 6380,5015 6376,5016 6372,5020 6349,5043 6346,5045 6346,5048 6351,5053 6359,5059 6359,5061 6355,5063 6351,5063 6346,5062 6343,5060 6335,5055 6324,5051 6314,5048 6303,5044 6293,5041 6288,5039 6282,5030 6278,5026 6273,5024 6266,5027 6253,5035 6239,5044 6235,5046 6232,5048 6231,5061 6227,5068 6225,5071 6214,5071 6200,5072 6194,5075 6184,5083 6178,5099 6173,5108 6166,5113 6162,5113 6154,5114 6141,5114 6127,5114 6117,5119 6108,5124 6099,5128 6092,5132 6084,5137 6081,5145 6079,5167 6076,5171 6073,5180 6066,5189 6059,5194 6057,5200 6055,5205 6053,5210 6049,5215 6044,5221 6040,5227 6036,5230 6033,5240 6029,5238 6013,5237 6009,5238 5998,5237 5987,5234 5979,5231 5967,5225 5947,5213 5938,5206 5928,5198 5919,5190 5897,5180 5892,5177 5889,5175 5882,5169 5877,5164 5873,5159 5870,5155 5864,5138 5860,5130 5856,5122 5847,5117 5840,5113 5824,5113 5807,5113 5792,5107 5766,5100 5756,5093 5750,5086 5743,5081 5737,5071 5720,5050 5712,5041 5705,5032 5710,5030 5743,5022 5749,5004 5762,5001 5761,4991 5743,4964 5730,4950 5731,4946 5744,4942 5765,4931 5764,4921 5751,4920 5730,4918 5704,4913 5695,4907 5678,4895 5664,4890 5633,4879 5597,4880 5592,4876 5588,4857 5537,4837 5512,4817 5491,4787 5457,4773 5419,4759 5380,4726 5371,4700 5388,4678 5378,4658 5361,4632 5352,4592 5317,4564 5295,4530 5267,4527 5241,4507 5232,4477 5250,4440 5260,4410 5253,4384 5250,4368 5253,4362 5276,4351 5306,4338 5334,4330 5364,4321 5389,4315 5415,4311 5440,4312 5469,4316 5490,4311 5508,4296 5549,4299 5574,4302 5607,4298 5645,4284 5675,4277 5714,4281 5742,4306 5768,4284 5784,4253 5790,4221 5794,4187 5795,4152 5809,4119 5835,4109 5856,4083 5852,4055 5845,4033 5847,4031 5857,4016 5864,3998 5870,3980 5882,3966 5897,3951 5903,3941 5892,3917 5887,3896 5885,3848 5884,3838 5888,3825 5894,3822 5901,3821 5916,3827 5951,3843 5979,3845 6004,3838 6031,3819 6062,3832 6087,3830 6112,3830 6138,3823 6173,3823 6200,3808 6226,3802 6258,3801 6259,3827 6285,3851 6323,3857 6358,3859 6395,3842 6424,3841 6454,3839 6492,3835 6519,3847 6551,3867 6579,3857 6610,3845 6636,3823 6656,3797 6664,3766 6697,3747 6718,3721 6741,3693 6767,3672 6796,3658 6825,3636 6800,3603 6787,3573 6773,3544 6758,3517 6743,3483 6713,3466 6678,3471 6645,3463 6675,3416 6702,3406 6709,3380 6709,3347 6691,3318 6664,3295 6651,3267 6662,3238 6654,3210 6670,3182 6672,3147 6645,3118 6630,3093 6615,3059 6586,3032 6566,3006 6543,2980 6539,2919 6561,2914 6609,2905 6638,2887 6667,2891 6692,2874 6718,2851 6744,2852 6772,2864 6801,2890 6834,2924 6865,2938 6891,2937 6929,2916 6956,2927 6991,2925 7020,2917 7048,2912 7064,2884 7079,2846 7110,2812 7136,2819 7162,2839 7177,2844 7191,2840 7206,2832 7219,2811 7241,2802 7251,2790 7253,2759 7266,2739 7284,2719 7288,2703 7285,2696 7269,2666 7292,2640 7278,2614 7297,2588 7324,2562 7347,2536 7357,2501 7370,2465 7381,2425 7391,2400 7404,2369 7412,2337 7416,2310 7422,2283 7439,2254 7473,2221 7501,2194 7528,2169 7557,2162 7586,2152 7602,2120 7610,2091 7620,2060 7621,2024 7646,2000 7680,1988 7710,1979 7718,1966 7719,1952 7709,1925 7712,1897 7731,1869 7718,1839 7714,1811 7694,1802 7665,1801 7662,1775 7665,1739 7674,1706 7681,1676 7679,1649 7684,1620 7658,1589 7641,1561 7638,1535 7611,1503 7583,1473 7622,1465 7661,1466 7693,1465 7733,1464 7762,1463 7791,1458 7825,1460 7853,1439 7888,1431 7913,1435 7945,1425 7971,1422 7999,1409 8028,1416 8058,1394 8105,1379 8142,1382 8178,1369 8214,1368 8241,1372 " class="polyStyle" id="530922" style="fill:#ee8b94"/>
<path d="" class="polyStyle" id="451224" style="fill:#fbe6ef"/>
<path d="" class="polyStyle" id="350627" style="fill:#f6f67b"/>
<polygon points="6613,4 6624,17 6634,29 6643,41 6651,52 6658,58 6669,65 6677,69 6685,71 6695,70 6698,70 6704,70 6713,72 6716,77 6720,84 6723,96 6725,108 6725,112 6724,118 6724,122 6726,137 6727,166 6730,179 6739,208 6739,235 6733,273 6736,302 6743,337 6754,366 6763,397 6771,411 6784,422 6812,431 6849,444 6872,445 6896,440 6919,431 6931,429 6942,421 6956,400 6962,368 6968,339 6976,308 6999,293 7006,278 7015,273 7042,278 7064,275 7082,285 7096,287 7115,275 7134,240 7145,221 7165,214 7200,217 7215,220 7234,231 7246,242 7261,248 7292,242 7312,246 7327,244 7343,248 7356,260 7371,265 7386,259 7401,257 7412,263 7424,268 7438,253 7451,247 7468,246 7483,236 7493,243 7540,244 7555,255 7554,278 7565,294 7586,303 7617,298 7645,295 7653,301 7661,318 7672,324 7693,336 7693,354 7677,381 7674,396 7674,417 7669,460 7668,468 7660,504 7637,520 7631,537 7636,561 7642,591 7636,624 7608,638 7591,669 7583,683 7575,686 7565,688 7553,694 7550,704 7550,714 7555,728 7551,743 7545,756 7538,771 7537,781 7550,797 7549,815 7539,841 7533,851 7539,871 7520,886 7515,902 7512,913 7499,928 7493,943 7487,957 7451,989 7418,1019 7412,1029 7412,1046 7393,1074 7391,1084 7398,1103 7397,1126 7397,1132 7399,1148 7399,1153 7400,1158 7400,1164 7400,1169 7401,1177 7402,1187 7401,1199 7400,1202 7398,1212 7394,1224 7392,1228 7390,1231 7389,1235 7386,1242 7381,1253 7375,1262 7368,1274 7367,1277 7367,1280 7366,1290 7367,1297 7366,1300 7366,1306 7364,1312 7363,1316 7356,1327 7350,1333 7346,1337 7337,1342 7325,1348 7314,1354 7312,1357 7311,1368 7308,1374 7301,1382 7297,1388 7296,1393 7293,1409 7291,1417 7289,1432 7289,1446 7289,1460 7289,1470 7291,1481 7293,1493 7292,1498 7291,1505 7284,1512 7278,1515 7272,1517 7269,1517 7255,1518 7251,1517 7242,1516 7233,1515 7229,1514 7225,1514 7219,1516 7216,1518 7212,1522 7204,1532 7195,1544 7185,1553 7174,1561 7170,1562 7164,1562 7161,1562 7152,1564 7146,1566 7139,1573 7131,1582 7125,1590 7121,1592 7117,1595 7114,1601 7106,1630 7098,1663 7113,1697 7128,1727 7132,1763 7127,1801 7127,1830 7155,1841 7184,1858 7221,1862 7254,1861 7269,1853 7285,1835 7302,1802 7299,1777 7316,1738 7322,1702 7325,1663 7325,1637 7328,1627 7334,1620 7344,1617 7366,1621 7395,1616 7425,1595 7457,1581 7484,1566 7503,1539 7536,1514 7572,1485 7583,1473 7611,1503 7638,1535 7641,1561 7658,1589 7684,1620 7679,1649 7681,1676 7674,1706 7665,1739 7662,1775 7665,1801 7694,1802 7714,1811 7718,1839 7731,1869 7712,1897 7709,1925 7719,1952 7718,1966 7710,1979 7680,1988 7646,2000 7621,2024 7620,2060 7610,2091 7602,2120 7586,2152 7557,2162 7528,2169 7501,2194 7473,2221 7439,2254 7422,2283 7416,2310 7412,2337 7404,2369 7391,2400 7381,2425 7370,2465 7357,2501 7347,2536 7324,2562 7297,2588 7278,2614 7292,2640 7269,2666 7285,2696 7288,2703 7284,2719 7266,2739 7253,2759 7251,2790 7241,2802 7219,2811 7206,2832 7191,2840 7177,2844 7162,2839 7136,2819 7110,2812 7079,2846 7064,2884 7048,2912 7020,2917 6991,2925 6956,2927 6929,2916 6891,2937 6865,2938 6834,2924 6801,2890 6772,2864 6744,2852 6718,2851 6692,2874 6667,2891 6638,2887 6609,2905 6561,2914 6539,2919 6543,2980 6566,3006 6586,3032 6615,3059 6630,3093 6645,3118 6672,3147 6670,3182 6654,3210 6662,3238 6651,3267 6664,3295 6691,3318 6709,3347 6709,3380 6702,3406 6675,3416 6645,3463 6678,3471 6713,3466 6743,3483 6758,3517 6773,3544 6787,3573 6800,3603 6825,3636 6796,3658 6767,3672 6741,3693 6718,3721 6697,3747 6664,3766 6656,3797 6636,3823 6610,3845 6579,3857 6551,3867 6519,3847 6492,3835 6454,3839 6424,3841 6395,3842 6358,3859 6323,3857 6285,3851 6259,3827 6258,3801 6226,3802 6200,3808 6173,3823 6138,3823 6112,3830 6087,3830 6062,3832 6031,3819 6004,3838 5979,3845 5951,3843 5916,3827 5901,3821 5894,3822 5888,3825 5884,3838 5885,3848 5887,3896 5892,3917 5903,3941 5897,3951 5882,3966 5870,3980 5864,3998 5857,4016 5847,4031 5845,4033 5837,4033 5830,4037 5824,4042 5817,4040 5808,4036 5805,4036 5802,4034 5795,4022 5790,4016 5783,4011 5778,4011 5768,4019 5761,4020 5748,4011 5732,3999 5726,3998 5723,4002 5722,4006 5723,4009 5722,4016 5722,4030 5722,4042 5717,4045 5713,4044 5704,4035 5695,4020 5688,4007 5680,3998 5671,3996 5661,4000 5649,4004 5636,4009 5611,4021 5599,4025 5580,4024 5566,4017 5556,4017 5553,4014 5563,4007 5564,4004 5562,4001 5557,3998 5546,3995 5542,3991 5539,3984 5537,3978 5533,3976 5528,3975 5522,3973 5523,3962 5522,3951 5516,3948 5504,3949 5497,3942 5489,3939 5481,3938 5481,3924 5476,3922 5471,3921 5459,3922 5448,3923 5443,3920 5440,3917 5439,3906 5438,3900 5422,3900 5409,3900 5391,3899 5366,3901 5355,3901 5345,3900 5334,3900 5328,3899 5323,3898 5318,3897 5311,3896 5306,3896 5299,3898 5294,3900 5287,3906 5283,3910 5277,3914 5272,3917 5266,3919 5261,3920 5253,3921 5248,3921 5240,3920 5229,3919 5218,3918 5203,3917 5189,3913 5179,3913 5173,3913 5161,3907 5150,3897 5140,3891 5132,3889 5122,3885 5111,3882 5103,3879 5100,3879 5094,3880 5086,3880 5079,3880 5076,3879 5071,3875 5066,3871 5060,3865 5046,3856 5037,3852 5026,3851 5014,3845 5008,3837 5006,3832 5005,3827 5003,3822 4997,3817 4989,3814 4980,3812 4969,3811 4955,3813 4945,3816 4935,3819 4928,3819 4922,3818 4916,3816 4910,3813 4901,3812 4894,3812 4887,3810 4881,3807 4873,3801 4869,3795 4863,3786 4857,3782 4849,3780 4840,3778 4832,3774 4826,3767 4821,3757 4818,3747 4814,3737 4806,3724 4801,3715 4794,3704 4791,3701 4785,3691 4775,3682 4770,3682 4766,3685 4762,3692 4757,3704 4754,3716 4745,3720 4735,3718 4725,3712 4715,3703 4706,3686 4697,3678 4689,3673 4674,3665 4668,3662 4657,3658 4651,3658 4644,3660 4638,3662 4627,3664 4617,3661 4607,3653 4598,3647 4590,3644 4584,3641 4574,3638 4567,3639 4562,3641 4555,3644 4552,3649 4553,3654 4554,3662 4554,3669 4549,3670 4543,3670 4538,3670 4533,3674 4531,3680 4530,3688 4531,3694 4530,3699 4530,3706 4527,3711 4521,3720 4515,3729 4510,3737 4506,3749 4504,3752 4499,3754 4493,3754 4487,3755 4467,3759 4456,3763 4449,3766 4436,3775 4421,3786 4415,3794 4406,3799 4398,3800 4388,3794 4378,3789 4365,3786 4351,3784 4346,3776 4346,3767 4349,3755 4349,3749 4342,3744 4321,3743 4312,3737 4308,3725 4307,3709 4297,3695 4292,3693 4290,3689 4277,3673 4269,3662 4265,3657 4263,3651 4263,3645 4268,3638 4280,3627 4289,3620 4293,3611 4287,3596 4279,3586 4270,3576 4266,3570 4265,3564 4265,3556 4267,3552 4276,3542 4281,3543 4287,3542 4296,3540 4309,3536 4322,3532 4336,3528 4349,3526 4370,3526 4373,3526 4377,3526 4382,3527 4388,3525 4392,3522 4399,3515 4402,3510 4406,3507 4417,3505 4424,3500 4428,3492 4422,3486 4419,3479 4420,3475 4426,3473 4439,3476 4442,3475 4444,3470 4440,3462 4438,3454 4440,3450 4442,3446 4449,3442 4453,3441 4468,3443 4480,3443 4487,3443 4496,3439 4504,3435 4512,3427 4515,3424 4518,3418 4523,3408 4529,3398 4534,3395 4539,3393 4546,3392 4565,3390 4568,3387 4570,3381 4571,3377 4569,3362 4566,3346 4565,3336 4565,3326 4565,3320 4568,3306 4571,3295 4578,3283 4581,3279 4588,3271 4601,3257 4603,3253 4605,3245 4604,3236 4604,3226 4604,3223 4607,3216 4612,3207 4617,3198 4617,3192 4615,3186 4615,3175 4616,3165 4616,3161 4618,3153 4620,3150 4624,3140 4632,3128 4639,3120 4647,3113 4653,3110 4661,3108 4665,3104 4666,3097 4664,3091 4664,3085 4665,3079 4671,3068 4676,3061 4686,3049 4692,3044 4702,3033 4719,3016 4722,3012 4727,3007 4734,3000 4749,2989 4758,2981 4760,2977 4764,2968 4771,2962 4775,2960 4781,2955 4784,2950 4787,2943 4786,2940 4783,2937 4776,2934 4781,2932 4794,2928 4804,2923 4811,2920 4825,2913 4836,2907 4846,2904 4856,2902 4862,2899 4865,2898 4881,2891 4885,2889 4897,2886 4906,2889 4915,2895 4919,2901 4925,2912 4928,2914 4933,2917 4943,2915 4952,2913 4956,2912 4968,2913 4979,2917 4991,2923 5002,2927 5009,2927 5020,2924 5025,2920 5029,2917 5035,2912 5041,2910 5047,2905 5050,2896 5052,2888 5053,2873 5055,2855 5056,2841 5056,2831 5056,2821 5056,2811 5056,2800 5053,2786 5049,2777 5042,2769 5032,2765 5015,2751 5008,2741 5012,2733 5016,2722 5021,2718 5030,2712 5047,2702 5059,2695 5073,2692 5077,2680 5080,2668 5080,2659 5083,2649 5086,2638 5092,2632 5096,2620 5095,2614 5084,2610 5072,2609 5056,2610 5040,2615 5035,2611 5031,2608 5028,2601 5025,2597 5023,2589 5025,2579 5032,2568 5039,2559 5046,2550 5052,2541 5052,2529 5052,2517 5046,2503 5041,2493 5037,2482 5032,2471 5030,2463 5021,2456 5011,2453 4994,2451 4981,2451 4972,2447 4967,2445 4971,2439 4976,2432 4982,2427 4990,2421 4997,2416 5008,2409 5011,2405 5013,2396 5015,2384 5013,2372 5012,2360 5011,2348 5005,2339 4997,2330 4980,2316 4972,2314 4958,2314 4951,2316 4939,2320 4926,2326 4915,2329 4906,2324 4895,2316 4875,2295 4866,2287 4862,2280 4861,2273 4866,2265 4878,2259 4888,2256 4898,2253 4908,2249 4923,2241 4933,2226 4942,2208 4947,2200 4952,2195 4960,2187 4964,2184 4971,2183 4978,2186 4985,2190 4993,2196 5001,2200 5015,2200 5027,2200 5039,2196 5043,2191 5049,2182 5055,2168 5057,2156 5059,2145 5062,2134 5064,2122 5067,2110 5066,2091 5055,2071 5047,2056 5047,2052 5049,2044 5051,2040 5053,2036 5057,2033 5063,2030 5067,2028 5072,2027 5080,2028 5085,2027 5094,2024 5106,2019 5118,2013 5137,2007 5153,2002 5166,1999 5187,2000 5204,2008 5211,2013 5221,2016 5239,2014 5252,2013 5262,2009 5278,1999 5281,1987 5277,1969 5274,1964 5274,1960 5274,1955 5274,1948 5273,1940 5269,1934 5262,1927 5259,1921 5256,1913 5253,1906 5252,1899 5252,1892 5254,1881 5256,1874 5257,1866 5259,1862 5265,1853 5263,1849 5260,1847 5256,1843 5252,1840 5249,1835 5249,1828 5252,1825 5263,1820 5271,1815 5283,1808 5287,1805 5293,1805 5297,1806 5300,1810 5304,1813 5307,1813 5311,1813 5316,1813 5319,1813 5321,1815 5324,1816 5328,1816 5331,1814 5333,1811 5338,1803 5345,1796 5348,1792 5355,1786 5368,1779 5389,1765 5394,1762 5398,1762 5402,1763 5408,1766 5411,1762 5421,1756 5425,1755 5428,1755 5431,1757 5435,1754 5443,1745 5448,1740 5452,1738 5460,1738 5463,1738 5470,1738 5482,1736 5485,1733 5487,1731 5495,1717 5499,1710 5504,1706 5511,1702 5515,1700 5520,1700 5527,1698 5531,1697 5540,1694 5547,1693 5559,1690 5569,1689 5574,1690 5587,1695 5594,1698 5601,1700 5611,1700 5620,1697 5629,1694 5632,1693 5639,1689 5648,1680 5650,1675 5663,1670 5686,1665 5697,1666 5702,1665 5706,1662 5705,1658 5703,1655 5699,1652 5695,1650 5684,1648 5669,1645 5658,1634 5653,1629 5644,1619 5642,1616 5644,1611 5654,1602 5661,1600 5666,1595 5671,1589 5673,1586 5676,1572 5679,1561 5689,1546 5692,1541 5693,1533 5694,1530 5697,1517 5700,1505 5703,1493 5706,1480 5706,1475 5703,1469 5696,1462 5693,1458 5692,1455 5698,1440 5698,1436 5694,1431 5689,1427 5682,1424 5672,1414 5669,1410 5662,1389 5656,1378 5647,1359 5643,1354 5637,1349 5633,1347 5622,1347 5614,1348 5610,1348 5604,1343 5598,1337 5585,1322 5582,1319 5579,1317 5573,1318 5552,1321 5542,1317 5537,1312 5520,1291 5513,1282 5509,1279 5503,1274 5490,1262 5479,1244 5480,1236 5485,1231 5491,1225 5504,1219 5508,1218 5511,1218 5523,1218 5534,1216 5538,1215 5542,1211 5549,1205 5553,1198 5570,1185 5580,1180 5586,1177 5597,1177 5606,1177 5625,1169 5633,1155 5638,1145 5644,1135 5649,1125 5649,1117 5645,1108 5645,1105 5646,1098 5651,1092 5673,1071 5680,1067 5693,1064 5700,1064 5704,1063 5715,1063 5722,1061 5729,1058 5742,1054 5753,1050 5761,1048 5764,1046 5768,1036 5770,1029 5777,1015 5786,1007 5792,1003 5798,1001 5817,1000 5822,996 5827,992 5827,989 5824,986 5811,982 5801,981 5791,979 5779,972 5768,959 5755,943 5747,933 5737,926 5717,917 5704,910 5701,905 5696,899 5689,886 5684,869 5686,863 5691,855 5699,850 5702,846 5708,834 5715,820 5722,815 5726,813 5735,813 5744,813 5760,812 5774,805 5780,801 5790,795 5797,784 5804,773 5811,762 5816,754 5823,749 5838,744 5852,738 5860,734 5867,727 5871,722 5876,717 5881,709 5883,706 5883,702 5889,693 5897,686 5915,679 5939,669 5950,662 5952,656 5956,652 5943,637 5927,622 5911,609 5907,605 5903,600 5897,592 5891,582 5887,577 5881,565 5875,554 5870,544 5863,533 5856,524 5850,513 5841,499 5837,489 5837,482 5839,477 5843,472 5851,467 5859,461 5862,458 5865,456 5867,451 5869,448 5869,444 5870,438 5870,435 5868,429 5870,424 5874,420 5881,418 5888,414 5894,411 5898,409 5907,390 5912,382 5924,376 5935,373 5947,371 5958,369 5970,366 5987,359 5999,360 6008,360 6015,358 6021,354 6036,333 6056,322 6062,320 6066,314 6074,310 6083,302 6090,295 6094,288 6098,282 6103,274 6107,265 6112,255 6118,246 6123,238 6129,227 6134,222 6136,219 6141,217 6146,215 6149,215 6154,217 6162,220 6166,222 6173,226 6179,227 6185,227 6197,226 6207,224 6216,220 6221,216 6223,211 6224,206 6225,201 6226,193 6227,179 6231,177 6240,171 6247,166 6258,162 6269,157 6280,152 6297,148 6308,145 6320,141 6330,137 6340,133 6348,133 6357,133 6367,134 6381,136 6397,138 6413,139 6426,139 6435,138 6442,136 6447,132 6450,126 6456,117 6460,111 6463,109 6470,106 6481,100 6493,96 6500,91 6506,87 6509,83 6513,79 6515,73 6516,63 6512,56 6511,48 6513,40 6517,33 6524,27 6531,23 6539,20 6564,13 6575,10 6585,7 6596,3 6604,0 6610,2 " class="polyStyle" id="530921" style="fill:#fbe6ef"/>
<path d="" class="polyStyle" id="" style="fill:#f6f67b"/>
<path d="" class="polyStyle" id="350525" style="fill:#f6f67b"/>
<path d="" class="polyStyle" id="530124" style="fill:#ee8b94"/>
<path d="" class="polyStyle" id="522627" style="fill:#ee8b94"/>
<path d="" class="polyStyle" id="510421" style="fill:#fbe6ef"/>
<path d="" class="polyStyle" id="522623" style="fill:#d4ecb2"/>
<path d="" class="polyStyle" id="430321" style="fill:#d4ecb2"/>
<path d="" class="polyStyle" id="511129" style="fill:#d4ecb2"/>
<path d="" class="polyStyle" id="511423" style="fill:#ee8b94"/>
<path d="" class="polyStyle" id="421023" style="fill:#f6f67b"/>
<path d="" class="polyStyle" id="511724" style="fill:#f6f67b"/>
<path d="" class="polyStyle" id="420526" style="fill:#fbe6ef"/>
<path d="" class="polyStyle" id="511923" style="fill:#fbe6ef"/>
<path d="" class="polyStyle" id="420325" style="fill:#fbe6ef"/>
<path d="" class="polyStyle" id="511921" style="fill:#f6f67b"/>
<path d="" class="polyStyle" id="542525" style="fill:#f6f67b"/>
<path d="" class="polyStyle" id="611026" style="fill:#ee8b94"/>
<path d="" class="polyStyle" id="411023" style="fill:#fbe6ef"/>
<path d="" class="polyStyle" id="632323" style="fill:#f6f67b"/>
<path d="" class="polyStyle" id="140525" style="fill:#d4ecb2"/>
<path d="" class="polyStyle" id="410922" style="fill:#ee8b94"/>
<path d="" class="polyStyle" id="621027" style="fill:#ee8b94"/>
<path d="" class="polyStyle" id="130427" style="fill:#f6f67b"/>
<path d="" class="polyStyle" id="130121" style="fill:#ee8b94"/>
<path d="" class="polyStyle" id="610823" style="fill:#fbe6ef"/>
<path d="" class="polyStyle" id="130225" style="fill:#fbe6ef"/>
<path d="" class="polyStyle" id="130322" style="fill:#d4ecb2"/>
<path d="" class="polyStyle" id="653130" style="fill:#f6f67b"/>
<path d="" class="polyStyle" id="130822" style="fill:#fbe6ef"/>
<path d="" class="polyStyle" id="211221" style="fill:#f6f67b"/>
<path d="" class="polyStyle" id="210921" style="fill:#f6f67b"/>
<path d="" class="polyStyle" id="150223" style="fill:#f8c67d"/>
<path d="" class="polyStyle" id="220422" style="fill:#d4ecb2"/>
<path d="" class="polyStyle" id="340721" style="fill:#f6f67b"/>
<path d="" class="polyStyle" id="510824" style="fill:#d4ecb2"/>
<path d="" class="polyStyle" id="610324" style="fill:#f6f67b"/>
<path d="" class="polyStyle" id="530722" style="fill:#ee8b94"/>
<path d="" class="polyStyle" id="340823" style="fill:#d4ecb2"/>
<path d="" class="polyStyle" id="620825" style="fill:#d4ecb2"/>
<path d="" class="polyStyle" id="421125" style="fill:#ee8b94"/>
<path d="" class="polyStyle" id="210281" style="fill:#ee8b94"/>
<path d="" class="polyStyle" id="440883" style="fill:#f6f67b"/>
<path d="" class="polyStyle" id="469006" style="fill:#d4ecb2"/>
<path d="" class="polyStyle" id="469002" style="fill:#ee8b94"/>
<path d="" class="polyStyle" id="469005" style="fill:#fbe6ef"/>
<path d="" class="polyStyle" id="440882" style="fill:#ee8b94"/>
<path d="" class="polyStyle" id="450681" style="fill:#ee8b94"/>
<path d="" class="polyStyle" id="441581" style="fill:#d4ecb2"/>
<path d="" class="polyStyle" id="421087" style="fill:#ee8b94"/>
<path d="" class="polyStyle" id="420984" style="fill:#fbe6ef"/>
<path d="" class="polyStyle" id="420582" style="fill:#ee8b94"/>
<path d="" class="polyStyle" id="370282" style="fill:#f6f67b"/>
<path d="" class="polyStyle" id="371083" style="fill:#f6f67b"/>
<path d="" class="polyStyle" id="371082" style="fill:#fbe6ef"/>
<path d="" class="polyStyle" id="652801" style="fill:#f8c67d"/>
<path d="" class="polyStyle" id="654301" style="fill:#ee8b94"/>
<path d="" class="polyStyle" id="370687" style="fill:#ee8b94"/>
<path d="" class="polyStyle" id="371482" style="fill:#d4ecb2"/>
<path d="" class="polyStyle" id="421081" style="fill:#fbe6ef"/>
<path d="" class="polyStyle" id="429006" style="fill:#f6f67b"/>
<path d="" class="polyStyle" id="440982" style="fill:#d4ecb2"/>
<path d="" class="polyStyle" id="421181" style="fill:#d4ecb2"/>
<path d="" class="polyStyle" id="321181" style="fill:#d4ecb2"/>
<path d="" class="polyStyle" id="659007" style="fill:#ee8b94"/>
<path d="" class="polyStyle" id="652701" style="fill:#fbe6ef"/>
<path d="" class="polyStyle" id="210781" style="fill:#fbe6ef"/>
<path d="" class="polyStyle" id="460204" style="fill:#f6f67b"/>
<path d="" class="polyStyle" id="210211" style="fill:#f6f67b"/>
<path d="" class="polyStyle" id="450512" style="fill:#ee8b94"/>
<path d="" class="polyStyle" id="450602" style="fill:#fbe6ef"/>
<path d="" class="polyStyle" id="440404" style="fill:#ee8b94"/>
<path d="" class="polyStyle" id="440403" style="fill:#f6f67b"/>
<path d="" class="polyStyle" id="441502" style="fill:#f6f67b"/>
<polygon points="7124,3885 7132,3885 7140,3883 7146,3883 7159,3884 7169,3887 7180,3891 7187,3893 7190,3893 7197,3889 7205,3892 7211,3901 7213,3909 7213,3921 7213,3927 7217,3939 7222,3946 7230,3962 7236,3971 7241,3977 7245,3979 7259,3981 7266,3982 7268,3987 7269,3996 7269,4003 7269,4013 7269,4016 7270,4020 7272,4028 7280,4031 7297,4033 7305,4037 7320,4043 7331,4048 7342,4054 7368,4070 7375,4077 7380,4084 7383,4090 7380,4100 7379,4106 7381,4112 7383,4118 7385,4132 7387,4138 7390,4145 7394,4149 7395,4155 7396,4161 7396,4167 7391,4176 7389,4179 7388,4185 7387,4193 7387,4198 7390,4204 7394,4206 7402,4206 7409,4204 7413,4204 7415,4209 7414,4223 7407,4238 7401,4258 7400,4284 7400,4289 7408,4310 7414,4321 7418,4328 7424,4334 7426,4346 7435,4358 7443,4370 7452,4383 7456,4396 7456,4406 7456,4413 7455,4421 7449,4431 7435,4451 7428,4471 7425,4491 7423,4500 7415,4509 7409,4514 7404,4516 7400,4519 7394,4524 7390,4528 7387,4534 7385,4540 7386,4547 7387,4554 7387,4558 7389,4564 7379,4565 7372,4567 7370,4570 7369,4575 7369,4580 7371,4584 7377,4587 7386,4590 7397,4600 7404,4607 7408,4610 7412,4613 7415,4613 7420,4607 7425,4605 7429,4604 7434,4608 7442,4614 7453,4626 7460,4632 7465,4636 7473,4642 7481,4648 7490,4654 7496,4658 7507,4665 7519,4671 7529,4674 7542,4679 7551,4685 7557,4689 7563,4694 7570,4699 7572,4702 7575,4712 7579,4722 7579,4729 7580,4734 7580,4740 7583,4747 7586,4753 7592,4763 7594,4767 7603,4776 7608,4781 7618,4786 7625,4789 7631,4791 7647,4793 7665,4802 7673,4810 7680,4817 7688,4829 7695,4838 7705,4844 7717,4850 7725,4856 7729,4863 7728,4869 7728,4876 7727,4884 7728,4892 7732,4896 7738,4906 7742,4911 7746,4917 7749,4928 7748,4938 7748,4948 7749,4962 7752,4977 7757,4989 7761,4998 7764,5012 7764,5021 7766,5039 7765,5045 7766,5054 7765,5061 7766,5072 7767,5078 7769,5089 7771,5093 7774,5098 7779,5102 7789,5108 7799,5111 7814,5121 7828,5129 7835,5132 7851,5140 7861,5146 7876,5153 7884,5162 7886,5165 7885,5173 7884,5180 7883,5203 7876,5217 7875,5222 7872,5229 7871,5247 7871,5256 7871,5265 7871,5273 7867,5283 7863,5295 7861,5303 7861,5315 7863,5322 7871,5335 7878,5348 7886,5360 7894,5369 7909,5375 7918,5381 7931,5387 7943,5389 7952,5387 7959,5382 7967,5367 7980,5342 7984,5325 7984,5316 7984,5307 7984,5297 7988,5289 7992,5283 8003,5276 8012,5271 8018,5269 8024,5270 8039,5280 8057,5294 8066,5298 8076,5302 8086,5306 8094,5310 8104,5314 8113,5318 8122,5330 8132,5342 8141,5353 8154,5367 8162,5356 8167,5345 8173,5334 8180,5322 8190,5312 8205,5303 8218,5297 8233,5293 8245,5295 8256,5306 8262,5307 8270,5306 8281,5303 8301,5305 8315,5312 8331,5324 8344,5331 8359,5338 8372,5338 8386,5336 8395,5334 8403,5334 8412,5338 8421,5345 8431,5357 8442,5365 8452,5373 8463,5381 8473,5387 8497,5403 8516,5412 8529,5418 8532,5420 8535,5422 8539,5422 8543,5420 8549,5418 8559,5413 8563,5411 8566,5413 8570,5415 8573,5416 8576,5416 8581,5414 8587,5409 8589,5406 8594,5404 8596,5407 8598,5411 8598,5418 8599,5422 8600,5425 8603,5437 8610,5452 8614,5462 8616,5466 8621,5470 8627,5471 8648,5477 8659,5480 8663,5481 8668,5486 8672,5488 8674,5493 8680,5500 8684,5510 8689,5531 8695,5551 8704,5569 8710,5590 8708,5597 8698,5609 8693,5621 8688,5639 8688,5648 8688,5652 8689,5656 8697,5667 8700,5672 8701,5675 8701,5679 8701,5686 8699,5689 8697,5693 8689,5704 8681,5719 8676,5732 8674,5742 8671,5753 8669,5763 8667,5773 8662,5788 8660,5795 8652,5800 8646,5802 8639,5803 8629,5799 8605,5788 8593,5784 8589,5784 8586,5786 8583,5787 8577,5801 8574,5805 8569,5807 8565,5806 8561,5806 8549,5807 8540,5812 8532,5823 8528,5839 8528,5854 8529,5864 8530,5869 8530,5876 8526,5882 8515,5889 8504,5893 8490,5893 8474,5893 8470,5891 8466,5887 8460,5869 8457,5865 8451,5862 8446,5862 8439,5862 8436,5865 8432,5872 8423,5885 8414,5896 8400,5911 8395,5919 8392,5933 8392,5943 8395,5949 8400,5953 8416,5963 8424,5968 8431,5972 8436,5973 8439,5976 8447,5977 8457,5977 8462,5979 8461,5990 8456,6010 8452,6027 8446,6035 8437,6036 8434,6036 8431,6038 8423,6052 8421,6065 8407,6086 8387,6110 8383,6123 8386,6126 8389,6128 8395,6130 8401,6130 8408,6130 8415,6132 8419,6135 8424,6145 8430,6165 8431,6177 8431,6189 8432,6201 8433,6205 8439,6207 8444,6210 8449,6215 8452,6241 8452,6249 8459,6257 8461,6262 8461,6265 8461,6270 8458,6273 8453,6278 8449,6281 8445,6292 8445,6304 8445,6321 8443,6334 8442,6340 8441,6347 8440,6354 8438,6359 8430,6361 8422,6360 8415,6356 8408,6352 8398,6351 8390,6351 8381,6356 8378,6362 8378,6369 8378,6376 8380,6384 8378,6406 8375,6418 8376,6425 8379,6431 8383,6433 8389,6434 8396,6435 8402,6437 8409,6441 8415,6447 8419,6455 8422,6464 8425,6469 8430,6471 8436,6471 8446,6471 8455,6474 8478,6483 8497,6483 8509,6486 8515,6491 8518,6496 8517,6500 8513,6523 8513,6531 8517,6540 8523,6544 8532,6550 8535,6551 8543,6552 8563,6551 8587,6549 8591,6552 8592,6555 8587,6565 8583,6575 8580,6584 8580,6587 8580,6595 8581,6602 8580,6611 8577,6617 8565,6633 8564,6639 8564,6644 8563,6648 8556,6653 8552,6655 8549,6659 8549,6664 8549,6670 8549,6683 8548,6692 8552,6698 8564,6707 8577,6715 8588,6724 8601,6732 8613,6744 8625,6755 8638,6766 8648,6771 8663,6780 8682,6790 8708,6796 8730,6803 8746,6810 8760,6823 8777,6831 8786,6835 8800,6842 8808,6849 8819,6858 8826,6865 8821,6883 8817,6894 8812,6898 8803,6899 8793,6898 8777,6897 8754,6898 8746,6903 8735,6905 8729,6904 8724,6905 8718,6907 8710,6913 8698,6930 8690,6938 8680,6940 8671,6941 8664,6945 8651,6959 8637,6970 8630,6974 8619,6974 8611,6976 8601,6983 8600,6989 8595,7001 8585,7015 8576,7021 8573,7026 8569,7033 8563,7041 8558,7046 8556,7049 8546,7051 8538,7051 8536,7052 8527,7054 8516,7054 8510,7051 8502,7051 8494,7051 8487,7053 8484,7056 8481,7061 8476,7065 8472,7067 8466,7075 8463,7087 8461,7103 8452,7111 8446,7112 8442,7110 8417,7092 8410,7091 8405,7093 8402,7095 8396,7097 8393,7097 8387,7096 8371,7093 8362,7095 8352,7096 8342,7096 8333,7097 8317,7100 8311,7100 8296,7100 8285,7100 8266,7099 8253,7098 8247,7097 8237,7090 8229,7084 8214,7078 8201,7079 8193,7081 8184,7079 8175,7072 8161,7051 8146,7029 8143,7018 8135,7012 8132,7010 8123,7006 8103,6989 8086,6978 8075,6965 8066,6955 8062,6951 8051,6951 8042,6955 8025,6968 8019,6968 8008,6968 7997,6969 7983,6975 7974,6981 7966,6982 7958,6983 7954,6985 7951,6990 7948,6996 7946,6999 7941,7000 7931,7004 7920,7006 7914,7006 7911,7008 7909,7012 7909,7015 7913,7020 7918,7029 7916,7033 7911,7035 7893,7039 7890,7043 7890,7048 7890,7051 7893,7070 7897,7081 7897,7088 7894,7094 7890,7099 7882,7104 7873,7108 7868,7110 7863,7110 7860,7110 7853,7112 7830,7112 7822,7114 7817,7116 7806,7123 7799,7129 7791,7132 7782,7133 7769,7131 7758,7127 7752,7121 7738,7104 7728,7082 7721,7077 7707,7073 7696,7074 7687,7081 7675,7090 7659,7100 7650,7100 7638,7105 7620,7106 7613,7104 7591,7103 7572,7107 7569,7109 7569,7115 7567,7122 7566,7127 7564,7134 7563,7141 7562,7150 7560,7159 7562,7166 7563,7172 7566,7179 7569,7186 7572,7193 7573,7197 7575,7203 7574,7210 7573,7219 7570,7226 7568,7231 7563,7239 7557,7247 7551,7255 7546,7262 7542,7270 7538,7276 7535,7284 7533,7294 7531,7305 7530,7311 7527,7316 7524,7329 7521,7340 7517,7351 7517,7357 7515,7361 7512,7369 7508,7376 7505,7378 7501,7388 7496,7392 7495,7396 7495,7406 7491,7428 7487,7446 7486,7460 7481,7475 7476,7488 7472,7500 7470,7507 7469,7511 7468,7517 7466,7522 7465,7527 7463,7534 7461,7542 7459,7549 7458,7554 7454,7561 7447,7569 7442,7578 7436,7588 7432,7597 7427,7612 7425,7628 7422,7641 7421,7650 7420,7656 7414,7654 7408,7651 7401,7646 7386,7643 7381,7640 7377,7634 7374,7628 7370,7624 7364,7620 7356,7618 7352,7616 7348,7613 7345,7607 7346,7597 7347,7579 7344,7573 7340,7568 7336,7565 7332,7564 7327,7565 7318,7569 7311,7571 7306,7571 7297,7571 7289,7569 7285,7561 7282,7561 7278,7562 7272,7569 7262,7584 7253,7598 7247,7602 7240,7606 7227,7619 7217,7627 7207,7635 7197,7643 7180,7653 7159,7662 7149,7665 7144,7664 7144,7660 7149,7644 7153,7633 7157,7621 7161,7610 7165,7598 7170,7580 7169,7564 7170,7557 7175,7552 7180,7551 7183,7546 7181,7541 7182,7535 7179,7525 7174,7518 7167,7513 7162,7512 7156,7515 7150,7521 7129,7546 7120,7553 7109,7558 7100,7562 7087,7565 7070,7569 7058,7576 7051,7581 7047,7587 7041,7598 7038,7603 7037,7611 7040,7624 7040,7637 7042,7643 7037,7658 7012,7670 6989,7675 6972,7679 6958,7678 6943,7674 6934,7669 6924,7660 6917,7651 6900,7644 6878,7637 6866,7630 6852,7627 6839,7620 6829,7612 6819,7600 6802,7587 6794,7583 6774,7576 6754,7574 6734,7576 6711,7579 6691,7582 6671,7591 6645,7600 6627,7596 6604,7607 6594,7603 6597,7593 6603,7585 6605,7571 6605,7558 6604,7545 6604,7533 6603,7522 6602,7510 6601,7499 6600,7488 6595,7478 6590,7468 6585,7458 6580,7448 6569,7435 6565,7418 6578,7419 6578,7404 6574,7390 6569,7378 6565,7367 6564,7350 6569,7342 6576,7335 6584,7332 6594,7331 6609,7324 6621,7311 6624,7301 6626,7291 6628,7281 6630,7263 6631,7249 6631,7242 6635,7225 6639,7215 6645,7209 6651,7205 6665,7204 6675,7203 6685,7201 6695,7203 6710,7201 6711,7194 6718,7188 6711,7177 6710,7172 6700,7156 6698,7148 6698,7140 6699,7128 6700,7115 6702,7112 6707,7103 6718,7097 6726,7094 6740,7090 6749,7089 6757,7087 6776,7083 6782,7076 6784,7071 6786,7061 6784,7053 6776,7050 6768,7045 6770,7031 6777,7020 6772,7007 6765,6989 6760,6980 6744,6958 6732,6935 6729,6921 6740,6900 6740,6889 6730,6879 6715,6864 6700,6852 6689,6841 6680,6831 6670,6814 6658,6795 6643,6773 6630,6761 6628,6750 6633,6741 6642,6724 6660,6700 6652,6680 6644,6672 6641,6669 6640,6667 6629,6657 6616,6661 6596,6656 6591,6643 6597,6633 6602,6622 6611,6607 6610,6597 6608,6591 6601,6586 6592,6580 6577,6576 6560,6574 6558,6550 6550,6532 6543,6516 6538,6505 6531,6495 6526,6489 6524,6479 6520,6476 6516,6474 6512,6469 6501,6461 6481,6451 6473,6446 6466,6439 6459,6435 6453,6431 6449,6427 6444,6422 6433,6413 6427,6404 6420,6390 6410,6366 6410,6363 6410,6360 6409,6345 6410,6334 6410,6327 6409,6324 6407,6320 6403,6317 6397,6316 6383,6313 6379,6307 6377,6301 6375,6295 6371,6288 6367,6285 6361,6280 6343,6266 6333,6255 6326,6247 6318,6242 6310,6242 6303,6242 6297,6243 6283,6243 6267,6239 6263,6239 6251,6236 6242,6234 6237,6234 6231,6231 6212,6227 6205,6220 6203,6209 6203,6190 6202,6186 6201,6183 6194,6170 6177,6160 6160,6155 6151,6152 6136,6152 6125,6150 6117,6147 6113,6145 6103,6148 6091,6145 6083,6147 6077,6146 6070,6150 6055,6165 6048,6170 6039,6172 6033,6172 6019,6170 6002,6169 5991,6170 5980,6171 5970,6171 5957,6175 5953,6176 5945,6176 5933,6183 5933,6174 5932,6166 5929,6155 5926,6146 5924,6131 5927,6113 5929,6097 5929,6081 5929,6069 5925,6064 5920,6047 5913,6033 5905,6020 5897,6006 5894,5988 5907,5979 5921,5971 5936,5962 5948,5951 5955,5939 5960,5924 5970,5911 5976,5889 5989,5862 5999,5839 6004,5817 6004,5799 6005,5782 6017,5775 6038,5764 6035,5749 6020,5749 5994,5751 5983,5740 5982,5727 5987,5709 5994,5691 6002,5682 6018,5670 6027,5665 6036,5657 6049,5649 6061,5641 6076,5634 6096,5624 6103,5618 6111,5607 6121,5598 6125,5588 6135,5573 6170,5581 6157,5551 6153,5534 6158,5517 6165,5505 6169,5490 6170,5485 6170,5473 6174,5457 6174,5445 6180,5428 6184,5402 6185,5383 6172,5377 6160,5366 6159,5359 6158,5353 6164,5343 6170,5336 6172,5324 6173,5313 6170,5309 6160,5300 6147,5286 6132,5278 6114,5263 6103,5256 6091,5253 6073,5251 6057,5247 6044,5243 6033,5240 6036,5230 6040,5227 6044,5221 6049,5215 6053,5210 6055,5205 6057,5200 6059,5194 6066,5189 6073,5180 6076,5171 6079,5167 6081,5145 6084,5137 6092,5132 6099,5128 6108,5124 6117,5119 6127,5114 6141,5114 6154,5114 6162,5113 6166,5113 6173,5108 6178,5099 6184,5083 6194,5075 6200,5072 6214,5071 6225,5071 6227,5068 6231,5061 6232,5048 6235,5046 6239,5044 6253,5035 6266,5027 6273,5024 6278,5026 6282,5030 6288,5039 6293,5041 6303,5044 6314,5048 6324,5051 6335,5055 6343,5060 6346,5062 6351,5063 6355,5063 6359,5061 6359,5059 6351,5053 6346,5048 6346,5045 6349,5043 6372,5020 6376,5016 6380,5015 6389,5016 6404,5020 6412,5022 6415,5020 6417,5002 6417,4996 6416,4993 6412,4985 6401,4976 6401,4971 6401,4963 6400,4954 6398,4951 6394,4947 6392,4944 6393,4927 6394,4921 6397,4917 6400,4912 6411,4903 6424,4907 6436,4910 6449,4912 6465,4913 6474,4913 6480,4911 6484,4907 6486,4898 6492,4872 6491,4852 6491,4841 6495,4829 6501,4826 6504,4826 6507,4826 6511,4824 6515,4819 6521,4800 6523,4797 6527,4796 6535,4796 6544,4796 6547,4794 6554,4785 6566,4773 6572,4757 6576,4750 6579,4748 6583,4748 6591,4751 6598,4755 6602,4755 6608,4754 6613,4752 6621,4752 6630,4754 6638,4755 6645,4754 6652,4751 6667,4745 6673,4740 6675,4735 6677,4729 6675,4724 6672,4720 6665,4715 6659,4710 6654,4704 6653,4696 6653,4692 6653,4684 6656,4676 6659,4667 6663,4658 6669,4652 6672,4647 6676,4641 6678,4634 6680,4628 6680,4622 6678,4613 6676,4606 6673,4602 6670,4600 6666,4598 6662,4596 6657,4595 6650,4593 6647,4592 6645,4588 6646,4583 6651,4579 6658,4576 6663,4575 6672,4571 6683,4569 6698,4569 6724,4567 6738,4562 6747,4555 6751,4552 6754,4551 6758,4551 6766,4555 6788,4564 6794,4568 6798,4571 6809,4571 6822,4573 6830,4576 6841,4582 6853,4589 6863,4596 6870,4603 6876,4609 6880,4610 6894,4608 6905,4604 6910,4603 6921,4598 6932,4590 6942,4582 6948,4573 6955,4561 6959,4558 6962,4557 6968,4553 6973,4548 6981,4539 6993,4530 7002,4525 7005,4524 7011,4522 7011,4520 7016,4510 7017,4497 7016,4488 7012,4481 7008,4476 7006,4472 7006,4467 7008,4457 7011,4451 7020,4436 7024,4429 7025,4426 7026,4420 7022,4413 7018,4410 7008,4403 6996,4397 6991,4395 6987,4392 6983,4387 6981,4382 6981,4378 6981,4374 6982,4371 6989,4359 6993,4350 6995,4345 6994,4342 6991,4340 6988,4338 6981,4335 6975,4333 6967,4328 6963,4326 6960,4321 6952,4313 6947,4311 6939,4309 6930,4307 6923,4306 6917,4306 6909,4302 6901,4294 6894,4285 6885,4279 6876,4274 6865,4270 6858,4265 6851,4261 6843,4259 6837,4259 6822,4258 6819,4258 6809,4262 6805,4262 6804,4259 6800,4252 6796,4242 6791,4231 6788,4223 6787,4217 6788,4208 6792,4198 6798,4186 6800,4178 6801,4172 6798,4160 6797,4151 6801,4146 6807,4137 6811,4133 6819,4121 6822,4116 6828,4113 6838,4110 6854,4108 6860,4108 6880,4110 6896,4111 6904,4113 6910,4116 6919,4119 6925,4120 6930,4119 6935,4119 6942,4118 6950,4115 6954,4113 6967,4103 6978,4096 6988,4089 6997,4086 7008,4084 7017,4085 7022,4083 7028,4077 7032,4071 7035,4067 7039,4063 7045,4057 7057,4051 7063,4050 7074,4046 7077,4045 7080,4044 7084,4038 7086,4028 7084,4022 7083,4011 7081,3999 7077,3983 7072,3972 7068,3965 7068,3958 7070,3954 7074,3948 7079,3940 7082,3926 7083,3921 7084,3918 7086,3913 7090,3903 7105,3886 7110,3882 7113,3881 7116,3881 7121,3884 " class="polyStyle" id="530902" style="fill:#fbe6ef"/>
<path d="" class="polyStyle" id="431002" style="fill:#d4ecb2"/>
<path d="" class="polyStyle" id="500107" style="fill:#fbe6ef"/>
<path d="" class="polyStyle" id="430611" style="fill:#d4ecb2"/>
<path d="" class="polyStyle" id="511304" style="fill:#fbe6ef"/>
<path d="" class="polyStyle" id="340711" style="fill:#ee8b94"/>
<path d="" class="polyStyle" id="320118" style="fill:#f6f67b"/>
<path d="" class="polyStyle" id="510704" style="fill:#f6f67b"/>
<path d="" class="polyStyle" id="411502" style="fill:#ee8b94"/>
<path d="" class="polyStyle" id="320302" style="fill:#d4ecb2"/>
<path d="" class="polyStyle" id="140311" style="fill:#ee8b94"/>
<path d="" class="polyStyle" id="610802" style="fill:#ee8b94"/>
<path d="" class="polyStyle" id="120116" style="fill:#f6f67b"/>
<path d="" class="polyStyle" id="130303" style="fill:#fbe6ef"/>
<path d="" class="polyStyle" id="140211" style="fill:#f6f67b"/>
<path d="" class="polyStyle" id="150207" style="fill:#fbe6ef"/>
<path d="" class="polyStyle" id="211403" style="fill:#f6f67b"/>
<path d="" class="polyStyle" id="150802" style="fill:#f8c67d"/>
<path d="" class="polyStyle" id="210112" style="fill:#ee8b94"/>
<path d="" class="polyStyle" id="230406" style="fill:#d4ecb2"/>
<path d="" class="polyStyle" id="110113" style="fill:#fbe6ef"/>
<path d="" class="polyStyle" id="341702" style="fill:#fbe6ef"/>
<path d="" class="polyStyle" id="420303" style="fill:#ee8b94"/>
<path d="" class="polyStyle" id="340702" style="fill:#d4ecb2"/>
<path d="" class="polyStyle" id="421002" style="fill:#f6f67b"/>
<path d="" class="polyStyle" id="420117" style="fill:#f6f67b"/>
<path d="" class="polyStyle" id="440904" style="fill:#f8c67d"/>
<path d="" class="polyStyle" id="460205" style="fill:#ee8b94"/>
<path d="" class="polyStyle" id="460202" style="fill:#f6f67b"/>
<path d="" class="polyStyle" id="460203" style="fill:#fbe6ef"/>
<path d="" class="polyStyle" id="420304" style="fill:#f6f67b"/>
<path d="" class="polyStyle" id="445302" style="fill:#ee8b94"/>
<path d="" class="polyStyle" id="410202" style="fill:#d4ecb2"/>
<path d="" class="polyStyle" id="440800" style="fill:#f6f67b"/>
<path d="" class="polyStyle" id="440900" style="fill:#ee8b94"/>
<path d="" class="polyStyle" id="340800" style="fill:#ee8b94"/>
<path d="" class="polyStyle" id="460200" style="fill:#f6f67b"/>
<path d="" class="polyStyle" id="460000" style="fill:#ee8b94"/>
<path d="" class="polyStyle" id="450500" style="fill:#ee8b94"/>
<path d="" class="polyStyle" id="450600" style="fill:#ee8b94"/>
<path d="" class="polyStyle" id="440400" style="fill:#f6f67b"/>
<path d="" class="polyStyle" id="441700" style="fill:#f6f67b"/>
<path d="" class="polyStyle" id="441500" style="fill:#f6f67b"/>
<path d="" class="polyStyle" id="350600" style="fill:#ee8b94"/>
<path d="" class="polyStyle" id="710000" style="fill:#f6f67b"/>
<path d="" class="polyStyle" id="510400" style="fill:#f6f67b"/>
<path d="" class="polyStyle" id="522600" style="fill:#fbe6ef"/>
<path d="" class="polyStyle" id="520500" style="fill:#ee8b94"/>
<path d="" class="polyStyle" id="431200" style="fill:#f6f67b"/>
<path d="" class="polyStyle" id="430600" style="fill:#f6f67b"/>
<path d="" class="polyStyle" id="511400" style="fill:#d4ecb2"/>
<path d="" class="polyStyle" id="421000" style="fill:#ee8b94"/>
<path d="" class="polyStyle" id="341700" style="fill:#f6f67b"/>
<path d="" class="polyStyle" id="420500" style="fill:#f6f67b"/>
<path d="" class="polyStyle" id="511300" style="fill:#f6f67b"/>
<path d="" class="polyStyle" id="420900" style="fill:#f6f67b"/>
<path d="" class="polyStyle" id="511700" style="fill:#ee8b94"/>
<path d="" class="polyStyle" id="420600" style="fill:#d4ecb2"/>
<path d="" class="polyStyle" id="411500" style="fill:#fbe6ef"/>
<path d="" class="polyStyle" id="510800" style="fill:#ee8b94"/>
<path d="" class="polyStyle" id="420300" style="fill:#fbe6ef"/>
<path d="" class="polyStyle" id="611000" style="fill:#ee8b94"/>
<path d="" class="polyStyle" id="620800" style="fill:#fbe6ef"/>
<path d="" class="polyStyle" id="370200" style="fill:#ee8b94"/>
<path d="" class="polyStyle" id="371000" style="fill:#f6f67b"/>
<path d="" class="polyStyle" id="370600" style="fill:#fbe6ef"/>
<path d="" class="polyStyle" id="120000" style="fill:#f6f67b"/>
<path d="" class="polyStyle" id="130200" style="fill:#ee8b94"/>
<path d="" class="polyStyle" id="130300" style="fill:#f6f67b"/>
<path d="" class="polyStyle" id="652900" style="fill:#fbe6ef"/>
<path d="" class="polyStyle" id="150500" style="fill:#d4ecb2"/>
<path d="" class="polyStyle" id="" style="fill:#d4ecb2"/>
<path d="" class="polyStyle" id="350500" style="fill:#fbe6ef"/>
<path d="" class="polyStyle" id="440400" style="fill:#f6f67b"/>
<path d="" class="polyStyle" id="421100" style="fill:#d4ecb2"/>
<path d="" class="polyStyle" id="420100" style="fill:#fbe6ef"/>
<path d="" class="polyStyle" id="532500" style="fill:#fbe6ef"/>
<path d="" class="polyStyle" id="654200" style="fill:#fbe6ef"/>
<path d="" class="polyStyle" id="210700" style="fill:#d4ecb2"/>
<path d="" class="polyStyle" id="522300" style="fill:#fbe6ef"/>
<path d="" class="polyStyle" id="" style="fill:#ee8b94"/>
<path d="" class="polyStyle" id="440400" style="fill:#f6f67b"/>
<path d="" class="polyStyle" id="620000" style="fill:#f6f67b"/>
<path d="" class="polyStyle" id="430000" style="fill:#fbe6ef"/>
<path d="" class="polyStyle" id="420000" style="fill:#ee8b94"/>
<path d="" class="polyStyle" id="410000" style="fill:#f6f67b"/>
<path d="" class="polyStyle" id="350000" style="fill:#fbe6ef"/>
<path d="" class="polyStyle" id="520000" style="fill:#f6f67b"/>
<path d="" class="polyStyle" id="" style="fill:#ee8b94"/>
</svg>
