<?xml version="1.0" encoding="UTF-8"?>
<!DOCTYPE svg PUBLIC "-//W3C//DTD SVG 1.1 Tiny//EN" "http://www.w3.org/Graphics/SVG/1.1/DTD/svg11-tiny.dtd">
<svg version="1.1" xmlns="http://www.w3.org/2000/svg" xmlns:xlink="http://www.w3.org/1999/xlink" width="100%" height="100%" viewBox="0,0,13116,8962">
<title>SVG</title>
<desc>Poligon Test</desc>
<style id="style_css_sheet" type="text/css">
.polyStyle{fill: #cccccc;stroke-width:0;fill-rule:evenodd;}
</style>
<circle cx="3385" cy="5546" r="200" stroke="black" stroke-width="1" fill="red" id="532601"position="444" name="文山市"/>
<circle cx="3805" cy="4333" r="200" stroke="black" stroke-width="1" fill="red" id="532622"position="1" name="砚山县"/>
<circle cx="5495" cy="5177" r="200" stroke="black" stroke-width="1" fill="red" id="532623"position="443" name="西畴县"/>
<circle cx="4119" cy="7315" r="200" stroke="black" stroke-width="1" fill="red" id="532625"position="444" name="马关县"/>
<circle cx="5633" cy="6752" r="200" stroke="black" stroke-width="1" fill="red" id="532624"position="1" name="麻栗坡县"/>
<circle cx="10217" cy="4244" r="200" stroke="black" stroke-width="1" fill="red" id="532628"position="211" name="富宁县"/>
<circle cx="3101" cy="2157" r="200" stroke="black" stroke-width="1" fill="red" id="532626"position="414" name="丘北县"/>
<circle cx="7449" cy="2132" r="200" stroke="black" stroke-width="1" fill="red" id="532627"position="4334" name="广南县"/>
<path d="" class="polyStyle" id="" style="fill:#ee8b94"/>
<path d="" class="polyStyle" id="623022" style="fill:#fbe6ef"/>
<path d="" class="polyStyle" id="211421" style="fill:#f6f67b"/>
<path d="" class="polyStyle" id="532524" style="fill:#ee8b94"/>
<path d="" class="polyStyle" id="440825" style="fill:#f6f67b"/>
<path d="" class="polyStyle" id="441721" style="fill:#f6f67b"/>
<path d="" class="polyStyle" id="450521" style="fill:#f6f67b"/>
<polygon points="4284,6214 4304,6246 4333,6258 4369,6273 4396,6282 4408,6283 4425,6275 4434,6274 4440,6285 4440,6301 4447,6315 4452,6329 4461,6360 4468,6385 4476,6401 4467,6416 4462,6441 4451,6467 4440,6500 4436,6525 4429,6552 4416,6593 4376,6636 4380,6674 4393,6701 4423,6700 4455,6700 4481,6699 4506,6695 4532,6701 4558,6714 4584,6713 4612,6698 4670,6656 4658,6690 4665,6715 4687,6720 4686,6778 4714,6802 4735,6807 4741,6838 4736,6864 4735,6890 4751,6916 4782,6918 4810,6919 4812,6921 4834,6945 4871,6953 4898,6956 4918,6988 4917,7014 4916,7041 4932,7067 4953,7067 4959,7073 4969,7083 4977,7092 4975,7104 4960,7111 4962,7122 4986,7137 4986,7162 4974,7172 4964,7192 4973,7209 4983,7221 4990,7257 5004,7264 4993,7285 4978,7301 4943,7313 4911,7321 4883,7337 4872,7349 4883,7366 4886,7400 4878,7403 4862,7406 4864,7421 4864,7432 4867,7440 4872,7449 4886,7443 4890,7448 4884,7470 4903,7501 4930,7526 4951,7541 4998,7539 5008,7597 5005,7627 4986,7643 4978,7645 4995,7666 5011,7686 5018,7705 5026,7727 5035,7733 5060,7733 5070,7743 5077,7755 5086,7764 5123,7764 5152,7762 5186,7757 5223,7754 5257,7751 5275,7773 5297,7800 5314,7804 5348,7801 5374,7792 5397,7782 5424,7775 5439,7774 5448,7783 5445,7799 5432,7816 5422,7840 5394,7871 5370,7889 5381,7916 5394,7936 5423,7954 5420,7975 5415,7996 5405,8015 5374,8039 5368,8048 5349,8052 5346,8040 5331,8048 5324,8049 5316,8069 5304,8059 5296,8064 5294,8073 5278,8070 5282,8099 5275,8119 5277,8130 5268,8140 5266,8144 5259,8154 5257,8156 5256,8159 5254,8162 5243,8178 5240,8184 5239,8192 5236,8198 5228,8209 5229,8214 5234,8218 5244,8221 5253,8226 5256,8229 5257,8237 5255,8243 5253,8248 5252,8251 5247,8257 5241,8264 5233,8263 5224,8260 5220,8261 5220,8265 5221,8269 5220,8277 5218,8281 5215,8287 5208,8297 5202,8301 5193,8300 5190,8303 5179,8294 5170,8294 5163,8292 5158,8292 5140,8298 5131,8299 5129,8296 5128,8290 5127,8273 5128,8268 5129,8264 5136,8256 5143,8249 5149,8248 5154,8246 5157,8243 5157,8238 5155,8228 5151,8219 5141,8206 5137,8200 5132,8180 5131,8175 5131,8162 5129,8155 5114,8143 5101,8133 5094,8126 5091,8124 5087,8121 5083,8118 5049,8120 5028,8134 4997,8154 4970,8166 4949,8184 4924,8206 4890,8223 4861,8229 4825,8247 4800,8271 4772,8316 4756,8349 4728,8355 4723,8393 4711,8419 4686,8436 4658,8442 4622,8466 4594,8495 4564,8522 4537,8556 4506,8574 4479,8598 4439,8621 4411,8636 4384,8642 4353,8654 4307,8670 4279,8682 4233,8714 4200,8743 4173,8778 4158,8807 4149,8847 4131,8876 4091,8863 4060,8869 4039,8901 4008,8930 3968,8928 3940,8923 3894,8909 3877,8878 3861,8853 3847,8825 3850,8812 3849,8804 3847,8796 3846,8792 3842,8787 3838,8780 3831,8773 3822,8766 3812,8759 3796,8750 3781,8743 3778,8741 3772,8739 3763,8734 3755,8730 3749,8729 3743,8726 3739,8725 3734,8723 3722,8721 3714,8722 3710,8723 3699,8726 3693,8727 3685,8729 3672,8731 3649,8731 3644,8729 3641,8726 3635,8723 3629,8721 3625,8719 3616,8714 3604,8707 3601,8706 3591,8701 3587,8699 3557,8684 3547,8681 3541,8680 3533,8678 3520,8677 3513,8676 3496,8677 3489,8678 3484,8679 3484,8674 3483,8669 3482,8662 3482,8642 3482,8623 3480,8609 3478,8602 3472,8597 3456,8586 3444,8576 3434,8565 3431,8561 3424,8549 3421,8543 3416,8530 3413,8520 3409,8503 3407,8498 3404,8495 3404,8487 3411,8479 3418,8475 3420,8471 3422,8467 3423,8457 3424,8450 3425,8440 3427,8435 3434,8419 3435,8414 3438,8409 3440,8405 3447,8393 3454,8378 3461,8363 3466,8348 3470,8335 3471,8330 3473,8326 3473,8322 3474,8317 3475,8305 3473,8294 3472,8289 3471,8285 3472,8280 3481,8263 3484,8256 3488,8250 3494,8237 3498,8234 3499,8229 3501,8225 3519,8200 3533,8171 3535,8143 3525,8114 3513,8086 3489,8041 3461,8027 3423,8002 3390,8011 3360,8027 3330,8039 3304,8044 3277,8018 3252,8004 3214,8011 3178,8049 3145,8087 3100,8106 3075,8145 3035,8149 3003,8130 3021,8089 3023,8055 3026,8025 3027,8004 3009,7996 2994,8008 2975,8033 2936,8048 2899,8054 2874,8037 2861,8012 2857,7983 2859,7948 2847,7942 2815,7947 2816,7938 2818,7909 2821,7883 2811,7861 2796,7859 2781,7878 2756,7889 2711,7894 2702,7925 2688,7957 2664,7958 2655,7973 2643,7988 2618,8011 2605,8023 2599,8056 2588,8085 2569,8101 2547,8127 2533,8156 2524,8185 2481,8194 2450,8215 2491,8229 2460,8249 2429,8250 2395,8233 2364,8231 2357,8200 2341,8168 2300,8169 2270,8201 2268,8227 2237,8257 2252,8281 2256,8317 2267,8319 2285,8305 2313,8307 2295,8340 2289,8346 2310,8371 2284,8416 2267,8445 2267,8474 2291,8503 2262,8537 2239,8575 2211,8596 2181,8661 2177,8613 2169,8601 2139,8601 2131,8621 2127,8710 2128,8729 2107,8773 2086,8802 2051,8834 2031,8846 2016,8877 1979,8900 1956,8953 1931,8962 1937,8874 1919,8846 1881,8825 1853,8818 1827,8822 1804,8824 1782,8832 1762,8846 1758,8855 1759,8866 1764,8879 1775,8888 1770,8930 1728,8914 1701,8927 1671,8937 1651,8915 1651,8889 1625,8886 1613,8880 1603,8832 1579,8801 1580,8744 1613,8714 1633,8688 1653,8651 1636,8621 1625,8596 1619,8571 1604,8541 1595,8513 1589,8482 1583,8452 1584,8427 1599,8396 1607,8369 1603,8337 1568,8311 1550,8289 1543,8281 1549,8275 1574,8266 1603,8271 1638,8277 1671,8258 1690,8228 1702,8194 1708,8169 1711,8143 1718,8118 1719,8093 1714,8062 1714,8037 1713,8009 1704,7982 1696,7953 1696,7924 1713,7895 1704,7869 1693,7836 1684,7809 1671,7777 1686,7751 1720,7712 1759,7677 1773,7651 1807,7608 1838,7592 1867,7587 1872,7558 1878,7525 1878,7483 1881,7445 1890,7417 1905,7381 1903,7376 1904,7349 1898,7313 1879,7287 1861,7260 1833,7219 1822,7188 1798,7158 1792,7131 1790,7106 1794,7079 1821,7054 1836,7027 1819,6998 1823,6969 1837,6944 1855,6912 1882,6902 1915,6899 1941,6892 1994,6886 2020,6880 2047,6865 2072,6859 2103,6856 2129,6832 2141,6795 2169,6769 2204,6745 2231,6720 2259,6707 2275,6703 2319,6700 2344,6685 2364,6645 2378,6623 2394,6643 2400,6648 2410,6650 2423,6635 2447,6626 2472,6639 2493,6656 2514,6659 2559,6652 2593,6654 2605,6672 2619,6728 2638,6742 2655,6730 2666,6727 2686,6739 2707,6738 2724,6735 2754,6735 2770,6740 2778,6749 2779,6775 2789,6787 2841,6775 2879,6771 2884,6753 2929,6732 2949,6703 2989,6696 3013,6696 3047,6691 3077,6686 3105,6684 3142,6676 3182,6678 3214,6685 3256,6719 3285,6735 3302,6717 3309,6704 3320,6705 3334,6714 3357,6712 3376,6702 3387,6690 3406,6678 3415,6678 3420,6685 3425,6691 3435,6695 3435,6712 3443,6719 3440,6769 3443,6780 3465,6775 3485,6771 3511,6762 3522,6743 3527,6731 3537,6728 3556,6727 3566,6728 3578,6729 3594,6731 3619,6723 3653,6711 3671,6697 3689,6710 3703,6710 3751,6693 3746,6673 3750,6663 3778,6658 3776,6649 3774,6637 3778,6628 3788,6618 3802,6612 3817,6612 3828,6611 3847,6604 3874,6568 3896,6561 3945,6555 3982,6538 3994,6531 3987,6510 3989,6500 4003,6493 4032,6491 4057,6483 4083,6467 4087,6457 4076,6440 4108,6427 4124,6427 4126,6403 4131,6399 4144,6399 4148,6396 4141,6376 4152,6343 4161,6326 4184,6318 4204,6312 4214,6301 4211,6295 4197,6286 4190,6281 4193,6267 4215,6248 4229,6237 4235,6230 4243,6193 4255,6181 4275,6192 " class="polyStyle" id="532625" style="fill:#ee8b94"/>
<path d="" class="polyStyle" id="450123" style="fill:#fbe6ef"/>
<polygon points="7541,4663 7567,4682 7591,4686 7602,4678 7626,4671 7636,4677 7662,4695 7698,4709 7728,4706 7756,4728 7785,4735 7813,4735 7843,4722 7879,4711 7907,4706 7937,4719 7980,4749 8016,4765 8042,4776 8068,4783 8096,4797 8134,4796 8161,4811 8182,4828 8199,4847 8230,4845 8276,4875 8303,4884 8328,4890 8352,4884 8336,4900 8323,4910 8299,4913 8301,4930 8318,4951 8346,4965 8386,4980 8392,4992 8373,5006 8341,5016 8313,5043 8308,5071 8308,5104 8323,5155 8349,5166 8385,5177 8417,5183 8447,5180 8474,5197 8497,5203 8528,5205 8533,5199 8527,5190 8536,5181 8559,5185 8572,5197 8582,5213 8590,5222 8579,5229 8568,5230 8518,5230 8497,5237 8492,5282 8464,5322 8458,5352 8475,5384 8505,5424 8531,5457 8591,5461 8614,5453 8638,5453 8683,5478 8659,5502 8633,5525 8620,5553 8583,5582 8570,5608 8555,5651 8521,5675 8493,5679 8467,5683 8442,5687 8400,5695 8384,5721 8394,5754 8398,5790 8395,5814 8395,5831 8387,5865 8373,5896 8359,5922 8341,5941 8332,5957 8326,5985 8325,6011 8324,6041 8304,6072 8271,6082 8209,6051 8179,6037 8154,6021 8129,6005 8090,5992 8058,5982 8028,5983 8000,5985 7956,5999 7888,6054 7860,6070 7840,6083 7800,6100 7774,6110 7740,6122 7712,6134 7686,6148 7658,6138 7645,6112 7625,6086 7639,6058 7609,6037 7579,6034 7547,6036 7516,6058 7483,6080 7453,6100 7428,6117 7404,6134 7377,6160 7363,6187 7337,6214 7322,6235 7295,6262 7268,6281 7233,6293 7197,6298 7166,6295 7136,6313 7126,6348 7106,6391 7065,6393 7030,6394 6994,6392 6963,6377 6937,6397 6925,6425 6925,6455 6906,6496 6883,6523 6882,6553 6891,6579 6883,6611 6855,6610 6825,6601 6813,6576 6799,6544 6770,6557 6752,6531 6726,6500 6692,6481 6652,6479 6617,6486 6585,6509 6557,6541 6549,6575 6550,6603 6544,6636 6541,6673 6516,6723 6484,6750 6455,6762 6425,6753 6404,6759 6379,6773 6344,6782 6315,6785 6282,6786 6266,6826 6235,6791 6207,6782 6169,6795 6157,6833 6157,6870 6163,6908 6168,6942 6180,6978 6206,6992 6203,7018 6210,7045 6204,7086 6237,7106 6242,7140 6240,7171 6242,7198 6262,7233 6276,7259 6283,7301 6289,7334 6288,7366 6287,7375 6298,7409 6307,7428 6318,7457 6355,7468 6387,7486 6415,7493 6434,7508 6446,7536 6456,7564 6457,7604 6455,7642 6423,7679 6384,7715 6353,7737 6319,7754 6289,7762 6257,7762 6233,7763 6209,7777 6187,7801 6162,7825 6113,7853 6070,7857 6042,7852 6009,7872 5984,7901 5976,7939 5961,7968 5949,8011 5937,8046 5910,8081 5879,8092 5845,8090 5808,8094 5783,8114 5787,8140 5788,8173 5791,8203 5779,8269 5767,8298 5744,8285 5715,8270 5678,8259 5650,8259 5620,8263 5588,8270 5557,8284 5526,8287 5498,8285 5467,8254 5423,8220 5398,8203 5351,8201 5306,8216 5303,8215 5280,8192 5278,8188 5259,8154 5266,8144 5268,8140 5277,8130 5275,8119 5282,8099 5278,8070 5294,8073 5296,8064 5304,8059 5316,8069 5324,8049 5331,8048 5346,8040 5349,8052 5368,8048 5374,8039 5405,8015 5415,7996 5420,7975 5423,7954 5394,7936 5381,7916 5370,7889 5394,7871 5422,7840 5432,7816 5445,7799 5448,7783 5439,7774 5424,7775 5397,7782 5374,7792 5348,7801 5314,7804 5297,7800 5275,7773 5257,7751 5223,7754 5186,7757 5152,7762 5123,7764 5086,7764 5077,7755 5070,7743 5060,7733 5035,7733 5026,7727 5018,7705 5011,7686 4995,7666 4978,7645 4986,7643 5005,7627 5008,7597 4998,7539 4951,7541 4930,7526 4903,7501 4884,7470 4890,7448 4886,7443 4872,7449 4867,7440 4864,7432 4864,7421 4862,7406 4878,7403 4886,7400 4883,7366 4872,7349 4883,7337 4911,7321 4943,7313 4978,7301 4993,7285 5004,7264 4990,7257 4983,7221 4973,7209 4964,7192 4974,7172 4986,7162 4986,7137 4962,7122 4960,7111 4975,7104 4977,7092 4969,7083 4959,7073 4953,7067 4932,7067 4916,7041 4917,7014 4918,6988 4898,6956 4871,6953 4834,6945 4812,6921 4821,6907 4842,6863 4863,6858 4862,6839 4870,6818 4884,6806 4896,6792 4932,6785 4951,6784 4968,6785 4973,6772 4963,6758 4954,6729 4960,6715 4982,6723 5003,6720 5006,6708 4999,6692 4976,6667 4972,6654 4985,6639 4955,6624 4927,6594 4905,6579 4905,6565 4933,6543 4924,6518 4929,6513 4992,6511 5037,6479 5052,6460 5069,6456 5094,6457 5111,6463 5155,6457 5165,6461 5165,6472 5154,6477 5128,6485 5118,6497 5117,6512 5122,6526 5130,6544 5147,6552 5171,6559 5201,6586 5227,6583 5259,6578 5290,6563 5317,6548 5333,6538 5342,6524 5341,6515 5325,6510 5311,6503 5314,6482 5315,6477 5309,6472 5287,6470 5278,6463 5290,6405 5316,6401 5327,6424 5336,6426 5364,6420 5399,6430 5427,6409 5428,6361 5441,6329 5461,6315 5491,6303 5509,6258 5522,6252 5536,6258 5543,6254 5546,6238 5551,6233 5559,6234 5563,6239 5603,6260 5608,6274 5608,6291 5627,6296 5634,6301 5634,6310 5606,6331 5605,6350 5618,6369 5632,6369 5650,6387 5665,6409 5670,6423 5659,6456 5649,6464 5641,6476 5647,6484 5674,6495 5702,6502 5721,6505 5736,6504 5766,6482 5793,6476 5818,6485 5824,6483 5827,6477 5826,6463 5821,6424 5825,6396 5855,6385 5863,6354 5874,6342 5892,6321 5903,6307 5913,6293 5919,6279 5926,6266 5931,6256 5937,6252 5953,6248 5964,6244 5975,6232 5977,6213 5971,6200 5974,6189 5979,6181 6004,6155 6013,6137 6018,6111 5996,6093 5966,6084 5948,6075 5950,6067 5982,6034 5995,5998 5978,5971 5980,5955 5973,5944 5962,5937 5959,5929 5958,5913 5970,5908 5989,5914 6001,5909 6008,5896 6013,5884 6006,5874 5994,5870 5984,5862 5966,5855 5957,5854 5956,5845 5960,5828 5967,5814 5982,5800 5987,5775 5989,5750 5989,5735 6001,5722 6031,5711 6060,5693 6087,5666 6100,5639 6128,5639 6157,5659 6171,5673 6228,5656 6245,5665 6271,5678 6280,5673 6285,5665 6289,5642 6306,5602 6348,5596 6386,5584 6404,5550 6438,5547 6466,5526 6497,5522 6522,5519 6568,5518 6602,5517 6632,5494 6665,5513 6681,5497 6700,5498 6707,5514 6720,5527 6744,5529 6772,5527 6794,5509 6805,5504 6825,5505 6857,5497 6868,5488 6869,5472 6864,5465 6850,5450 6831,5432 6829,5392 6837,5383 6845,5375 6846,5354 6853,5343 6861,5334 6867,5329 6882,5322 6910,5318 6933,5321 6938,5313 6932,5299 6928,5289 6946,5281 6954,5284 6959,5296 6970,5303 6981,5302 6985,5292 7013,5292 7023,5288 7024,5276 7014,5253 7000,5242 6979,5243 6962,5245 6951,5255 6921,5259 6897,5250 6877,5242 6856,5238 6838,5235 6830,5225 6833,5214 6850,5206 6857,5197 6858,5190 6842,5175 6835,5164 6842,5144 6836,5134 6801,5124 6791,5101 6783,5108 6771,5112 6760,5099 6758,5088 6750,5094 6738,5096 6716,5094 6695,5088 6679,5074 6656,5056 6652,5042 6647,5032 6649,5027 6658,5027 6667,5032 6675,5040 6684,5042 6691,5039 6698,5033 6699,5024 6710,5020 6722,5026 6729,5037 6748,5032 6753,4998 6762,4996 6776,4987 6784,4982 6781,4969 6761,4959 6758,4950 6770,4938 6776,4926 6774,4903 6781,4882 6798,4877 6808,4881 6818,4873 6814,4852 6777,4852 6751,4824 6761,4779 6788,4732 6810,4715 6856,4679 6879,4695 6924,4691 6909,4748 6918,4753 6951,4756 6970,4752 6989,4731 7001,4711 7069,4698 7097,4697 7109,4704 7113,4723 7134,4734 7194,4742 7227,4744 7239,4756 7257,4776 7283,4788 7317,4785 7342,4797 7372,4804 7398,4836 7436,4844 7450,4856 7459,4855 7460,4848 7447,4831 7428,4823 7418,4808 7428,4785 7432,4744 7432,4719 7420,4697 7433,4696 7439,4688 7459,4686 7466,4675 7475,4645 7501,4635 7532,4634 7532,4651 " class="polyStyle" id="532624" style="fill:#fbe6ef"/>
<polygon points="6067,4339 6082,4366 6110,4396 6135,4404 6166,4411 6199,4412 6230,4409 6258,4412 6284,4416 6323,4423 6352,4444 6364,4471 6390,4500 6416,4510 6442,4510 6476,4520 6502,4532 6534,4539 6560,4543 6590,4557 6620,4562 6650,4561 6676,4575 6695,4603 6696,4629 6703,4659 6730,4674 6762,4707 6788,4732 6761,4779 6751,4824 6777,4852 6814,4852 6818,4873 6808,4881 6798,4877 6781,4882 6774,4903 6776,4926 6770,4938 6758,4950 6761,4959 6781,4969 6784,4982 6776,4987 6762,4996 6753,4998 6748,5032 6729,5037 6722,5026 6710,5020 6699,5024 6698,5033 6691,5039 6684,5042 6675,5040 6667,5032 6658,5027 6649,5027 6647,5032 6652,5042 6656,5056 6679,5074 6695,5088 6716,5094 6738,5096 6750,5094 6758,5088 6760,5099 6771,5112 6783,5108 6791,5101 6801,5124 6836,5134 6842,5144 6835,5164 6842,5175 6858,5190 6857,5197 6850,5206 6833,5214 6830,5225 6838,5235 6856,5238 6877,5242 6897,5250 6921,5259 6951,5255 6962,5245 6979,5243 7000,5242 7014,5253 7024,5276 7023,5288 7013,5292 6985,5292 6981,5302 6970,5303 6959,5296 6954,5284 6946,5281 6928,5289 6932,5299 6938,5313 6933,5321 6910,5318 6882,5322 6867,5329 6861,5334 6853,5343 6846,5354 6845,5375 6837,5383 6829,5392 6831,5432 6850,5450 6864,5465 6869,5472 6868,5488 6857,5497 6825,5505 6805,5504 6794,5509 6772,5527 6744,5529 6720,5527 6707,5514 6700,5498 6681,5497 6665,5513 6632,5494 6602,5517 6568,5518 6522,5519 6497,5522 6466,5526 6438,5547 6404,5550 6386,5584 6348,5596 6306,5602 6289,5642 6285,5665 6280,5673 6271,5678 6245,5665 6228,5656 6171,5673 6157,5659 6128,5639 6100,5639 6087,5666 6060,5693 6031,5711 6001,5722 5989,5735 5989,5750 5987,5775 5982,5800 5967,5814 5960,5828 5956,5845 5957,5854 5966,5855 5984,5862 5994,5870 6006,5874 6013,5884 6008,5896 6001,5909 5989,5914 5970,5908 5958,5913 5959,5929 5962,5937 5973,5944 5980,5955 5978,5971 5995,5998 5982,6034 5950,6067 5948,6075 5966,6084 5996,6093 6018,6111 6013,6137 6004,6155 5979,6181 5974,6189 5971,6200 5977,6213 5975,6232 5964,6244 5953,6248 5937,6252 5931,6256 5926,6266 5919,6279 5913,6293 5903,6307 5892,6321 5874,6342 5863,6354 5855,6385 5825,6396 5821,6424 5826,6463 5827,6477 5824,6483 5818,6485 5793,6476 5766,6482 5736,6504 5721,6505 5702,6502 5674,6495 5647,6484 5641,6476 5649,6464 5659,6456 5670,6423 5665,6409 5650,6387 5632,6369 5618,6369 5605,6350 5606,6331 5634,6310 5634,6301 5627,6296 5608,6291 5608,6274 5603,6260 5563,6239 5559,6234 5551,6233 5546,6238 5543,6254 5536,6258 5522,6252 5509,6258 5491,6303 5461,6315 5441,6329 5428,6361 5427,6409 5399,6430 5364,6420 5336,6426 5327,6424 5316,6401 5290,6405 5278,6463 5287,6470 5309,6472 5315,6477 5314,6482 5311,6503 5325,6510 5341,6515 5342,6524 5333,6538 5317,6548 5290,6563 5259,6578 5227,6583 5201,6586 5171,6559 5147,6552 5130,6544 5122,6526 5117,6512 5118,6497 5128,6485 5154,6477 5165,6472 5165,6461 5155,6457 5111,6463 5094,6457 5069,6456 5052,6460 5037,6479 4992,6511 4929,6513 4924,6518 4933,6543 4905,6565 4905,6579 4927,6594 4955,6624 4985,6639 4972,6654 4976,6667 4999,6692 5006,6708 5003,6720 4982,6723 4960,6715 4954,6729 4963,6758 4973,6772 4968,6785 4951,6784 4932,6785 4896,6792 4884,6806 4870,6818 4862,6839 4863,6858 4842,6863 4821,6907 4812,6921 4810,6919 4782,6918 4751,6916 4735,6890 4736,6864 4741,6838 4735,6807 4714,6802 4686,6778 4687,6720 4665,6715 4658,6690 4670,6656 4612,6698 4584,6713 4558,6714 4532,6701 4506,6695 4481,6699 4455,6700 4423,6700 4393,6701 4380,6674 4376,6636 4416,6593 4429,6552 4436,6525 4440,6500 4451,6467 4462,6441 4467,6416 4476,6401 4468,6385 4461,6360 4452,6329 4447,6315 4440,6301 4440,6285 4434,6274 4425,6275 4408,6283 4396,6282 4369,6273 4333,6258 4304,6246 4284,6214 4275,6192 4255,6181 4260,6178 4254,6172 4227,6165 4202,6146 4174,6129 4145,6132 4117,6121 4087,6108 4049,6100 4020,6085 3998,6053 3994,6024 4003,6022 4026,6025 4056,6024 4101,6026 4136,6010 4147,5998 4194,5992 4226,5976 4238,5954 4247,5926 4257,5904 4277,5878 4302,5855 4305,5846 4305,5841 4304,5836 4299,5828 4294,5821 4288,5816 4299,5799 4319,5773 4340,5763 4359,5753 4365,5722 4364,5683 4359,5646 4354,5613 4354,5589 4370,5583 4408,5595 4433,5588 4460,5583 4469,5557 4492,5552 4523,5551 4550,5546 4554,5519 4562,5488 4604,5483 4625,5484 4663,5508 4688,5505 4723,5491 4736,5444 4747,5414 4789,5389 4805,5363 4798,5335 4800,5318 4808,5312 4820,5303 4831,5302 4860,5317 4911,5326 4929,5322 4946,5310 4958,5302 4955,5269 4976,5248 4985,5212 4991,5181 5001,5173 5012,5151 5013,5130 5006,5116 5012,5110 5026,5104 5045,5101 5056,5104 5061,5107 5063,5111 5063,5122 5072,5136 5080,5141 5121,5143 5150,5140 5184,5140 5195,5114 5205,5113 5240,5113 5267,5117 5283,5114 5311,5111 5325,5113 5343,5106 5372,5089 5382,5091 5393,5109 5399,5111 5414,5101 5429,5101 5483,5107 5515,5089 5534,5068 5528,5040 5519,5014 5506,4998 5490,4989 5484,4961 5477,4921 5468,4892 5461,4866 5470,4858 5501,4851 5527,4842 5536,4839 5569,4829 5579,4827 5589,4835 5601,4834 5606,4830 5618,4816 5627,4786 5636,4767 5683,4769 5704,4764 5720,4750 5743,4740 5774,4739 5791,4722 5797,4707 5808,4693 5824,4690 5830,4679 5825,4668 5811,4642 5795,4608 5789,4577 5773,4553 5751,4537 5736,4523 5739,4501 5766,4464 5781,4447 5815,4401 5837,4374 5866,4369 5934,4404 5947,4375 5967,4357 5958,4297 5978,4293 6007,4279 6044,4305 " class="polyStyle" id="532623" style="fill:#d4ecb2"/>
<polygon points="4559,2455 4575,2477 4590,2485 4612,2480 4647,2461 4669,2445 4685,2453 4699,2459 4742,2473 4748,2481 4741,2492 4732,2492 4729,2507 4733,2518 4742,2550 4729,2565 4724,2578 4741,2594 4765,2601 4777,2593 4774,2583 4785,2574 4794,2575 4801,2570 4809,2564 4802,2551 4810,2541 4819,2536 4825,2549 4829,2555 4847,2572 4868,2586 4876,2590 4877,2593 4864,2604 4864,2617 4868,2632 4874,2646 4872,2653 4868,2662 4854,2670 4857,2678 4886,2685 4897,2694 4892,2706 4890,2717 4886,2730 4888,2743 4902,2752 4916,2772 4931,2785 4929,2805 4918,2801 4881,2785 4867,2791 4849,2798 4796,2844 4775,2884 4777,2914 4773,2926 4758,2941 4763,2960 4784,2963 4806,2961 4802,2983 4806,3003 4820,3007 4844,2991 4871,2997 4889,2992 4893,2979 4901,2971 4933,2959 4968,2958 4995,2964 5036,2975 5063,2984 5075,3002 5082,3032 5086,3070 5096,3096 5108,3140 5126,3149 5139,3152 5144,3160 5139,3182 5173,3189 5202,3175 5215,3165 5234,3161 5243,3177 5245,3206 5239,3233 5218,3249 5196,3265 5191,3279 5189,3287 5194,3301 5215,3310 5232,3300 5244,3294 5259,3295 5276,3301 5287,3316 5290,3324 5274,3352 5291,3368 5331,3386 5361,3405 5381,3417 5387,3427 5395,3444 5397,3459 5394,3492 5420,3493 5437,3488 5418,3468 5429,3462 5450,3458 5461,3456 5483,3480 5507,3478 5535,3459 5551,3455 5588,3472 5594,3484 5588,3498 5578,3516 5560,3532 5540,3553 5541,3562 5560,3574 5566,3580 5566,3591 5557,3601 5536,3611 5516,3611 5498,3610 5497,3621 5496,3636 5490,3647 5479,3656 5475,3672 5479,3705 5478,3724 5437,3765 5416,3786 5421,3818 5422,3842 5419,3877 5416,3902 5422,3909 5447,3909 5448,3920 5446,3941 5445,3964 5443,3996 5440,4008 5453,4013 5505,4000 5535,3996 5566,4003 5587,4010 5605,4020 5604,4032 5597,4038 5582,4056 5570,4080 5557,4117 5535,4142 5533,4163 5549,4184 5582,4217 5578,4231 5562,4256 5560,4275 5581,4306 5611,4328 5624,4338 5609,4375 5621,4399 5639,4418 5663,4438 5675,4449 5692,4458 5705,4458 5718,4449 5737,4455 5766,4464 5739,4501 5736,4523 5751,4537 5773,4553 5789,4577 5795,4608 5811,4642 5825,4668 5830,4679 5824,4690 5808,4693 5797,4707 5791,4722 5774,4739 5743,4740 5720,4750 5704,4764 5683,4769 5636,4767 5627,4786 5618,4816 5606,4830 5601,4834 5589,4835 5579,4827 5569,4829 5536,4839 5527,4842 5501,4851 5470,4858 5461,4866 5468,4892 5477,4921 5484,4961 5490,4989 5506,4998 5519,5014 5528,5040 5534,5068 5515,5089 5483,5107 5429,5101 5414,5101 5399,5111 5393,5109 5382,5091 5372,5089 5343,5106 5325,5113 5311,5111 5283,5114 5267,5117 5240,5113 5205,5113 5195,5114 5184,5140 5150,5140 5121,5143 5080,5141 5072,5136 5063,5122 5063,5111 5061,5107 5056,5104 5045,5101 5026,5104 5012,5110 5006,5116 5013,5130 5012,5151 5001,5173 4991,5181 4985,5212 4976,5248 4955,5269 4958,5302 4946,5310 4929,5322 4911,5326 4860,5317 4831,5302 4820,5303 4808,5312 4800,5318 4798,5335 4805,5363 4789,5389 4747,5414 4736,5444 4723,5491 4688,5505 4663,5508 4625,5484 4604,5483 4562,5488 4554,5519 4550,5546 4523,5551 4492,5552 4469,5557 4460,5583 4433,5588 4408,5595 4370,5583 4354,5589 4354,5613 4359,5646 4364,5683 4365,5722 4359,5753 4340,5763 4319,5773 4299,5799 4288,5816 4254,5784 4254,5766 4264,5748 4255,5732 4241,5707 4227,5709 4221,5702 4203,5662 4199,5653 4175,5622 4137,5631 4120,5613 4104,5605 4074,5630 4060,5631 4055,5618 4059,5604 4073,5600 4071,5592 4055,5586 4044,5576 4043,5543 4022,5540 4016,5520 4009,5516 3997,5522 3987,5522 3984,5513 3992,5496 3984,5475 3964,5470 3961,5462 3968,5452 3982,5452 3987,5445 3982,5428 3990,5423 3996,5437 4012,5433 4034,5393 4044,5351 4033,5336 4003,5308 3987,5302 3980,5287 3998,5256 3999,5233 3986,5225 3948,5231 3925,5209 3893,5226 3882,5226 3867,5214 3865,5195 3893,5202 3937,5175 3962,5134 3938,5102 3931,5068 3903,5047 3870,5008 3847,5007 3834,5024 3825,5018 3816,4988 3811,4963 3773,4962 3725,4975 3689,4976 3640,4968 3615,4969 3579,4948 3540,4925 3512,4924 3474,4922 3436,4949 3396,4960 3356,4944 3322,4961 3302,4973 3293,4971 3277,4941 3261,4938 3246,4944 3234,4943 3223,4927 3215,4922 3198,4920 3179,4922 3174,4916 3163,4905 3150,4884 3129,4883 3105,4885 3090,4884 3086,4876 3091,4844 3078,4837 3062,4828 3042,4795 3066,4766 3086,4739 3102,4702 3144,4693 3164,4690 3178,4679 3172,4634 3157,4615 3154,4605 3169,4596 3188,4593 3197,4576 3200,4563 3194,4557 3180,4549 3184,4532 3195,4506 3188,4496 3161,4486 3153,4483 3146,4469 3153,4459 3158,4449 3166,4443 3185,4427 3187,4404 3174,4378 3176,4366 3194,4339 3194,4326 3182,4321 3153,4317 3146,4306 3139,4292 3123,4297 3110,4287 3102,4271 3092,4264 3077,4272 3043,4272 3049,4263 3051,4239 3052,4219 3039,4203 3012,4193 2997,4183 2980,4183 2965,4187 2952,4186 2937,4175 2924,4174 2910,4179 2900,4179 2871,4167 2865,4141 2852,4094 2833,4055 2807,4028 2773,4010 2736,3989 2698,3955 2678,3926 2649,3917 2616,3908 2586,3889 2550,3888 2535,3856 2517,3833 2501,3823 2471,3826 2455,3810 2443,3798 2432,3803 2413,3812 2398,3801 2384,3800 2367,3828 2354,3841 2344,3834 2320,3834 2321,3860 2305,3863 2267,3859 2251,3851 2230,3854 2220,3865 2221,3879 2231,3889 2247,3927 2242,3952 2227,3964 2225,3990 2223,4001 2214,4002 2174,3975 2147,3960 2133,3950 2106,3946 2066,3957 2039,3967 2023,3968 2008,3948 2000,3947 1995,3956 1989,3968 1982,3970 1976,3955 1965,3951 1949,3954 1945,3928 1933,3915 1929,3911 1918,3905 1912,3910 1913,3936 1901,3950 1884,3950 1876,3938 1850,3937 1830,3944 1819,3961 1821,3977 1802,4005 1788,4041 1781,4048 1764,4046 1758,4038 1745,4031 1734,4049 1686,4057 1647,4062 1627,4087 1614,4108 1599,4120 1584,4111 1570,4093 1531,4075 1502,4063 1479,4056 1464,4039 1440,4028 1423,4028 1399,4028 1387,4024 1373,4027 1370,4051 1371,4065 1376,4107 1381,4136 1377,4164 1369,4182 1352,4193 1335,4195 1302,4184 1283,4188 1268,4178 1248,4179 1221,4196 1197,4188 1174,4192 1157,4186 1133,4193 1119,4207 1102,4233 1118,4249 1104,4277 1105,4290 1114,4294 1144,4283 1152,4292 1148,4324 1120,4356 1088,4385 1066,4402 1058,4413 1053,4429 1053,4454 1040,4468 1038,4480 1051,4496 1050,4508 1002,4546 982,4561 985,4594 956,4607 946,4619 929,4630 903,4626 882,4621 865,4627 855,4629 851,4636 850,4650 855,4671 846,4671 831,4675 812,4677 799,4663 783,4636 769,4622 747,4616 698,4631 668,4656 654,4679 656,4698 624,4741 603,4783 567,4764 527,4736 495,4751 474,4776 447,4793 440,4816 395,4847 370,4843 352,4831 335,4841 319,4842 295,4832 268,4812 252,4785 235,4758 217,4742 192,4733 160,4717 97,4657 88,4627 88,4586 91,4560 86,4536 80,4519 67,4507 59,4486 67,4476 80,4470 114,4470 171,4450 206,4445 217,4411 239,4390 261,4373 308,4344 307,4323 300,4298 317,4282 333,4267 354,4247 372,4223 379,4203 381,4180 394,4160 428,4128 440,4101 429,4068 428,4044 429,4033 395,4012 371,3997 364,3978 359,3926 368,3899 380,3888 387,3858 383,3843 360,3824 365,3816 378,3795 365,3767 362,3732 337,3712 355,3675 351,3663 318,3671 297,3655 279,3628 287,3613 310,3601 337,3572 352,3526 352,3484 348,3451 357,3408 371,3381 379,3338 379,3326 378,3319 390,3300 409,3282 396,3278 383,3277 366,3284 349,3284 343,3283 332,3262 333,3252 357,3248 369,3250 378,3243 384,3236 387,3227 386,3216 387,3207 393,3202 405,3186 418,3170 425,3152 450,3117 445,3084 429,3037 456,3015 484,3008 524,3007 548,2997 556,2986 557,2974 561,2956 586,2955 603,2939 635,2945 642,2941 650,2933 654,2923 658,2917 695,2918 728,2930 772,2938 813,2946 832,2952 858,3018 898,3045 930,3054 969,3046 998,3039 1026,3023 1002,2986 1013,2965 1041,2938 1082,2909 1139,2869 1158,2856 1192,2854 1224,2856 1239,2868 1254,2890 1262,2923 1277,2949 1295,2955 1328,2948 1345,2947 1362,2963 1395,2973 1421,2972 1438,2969 1457,2973 1476,2987 1490,3008 1485,3030 1468,3063 1448,3100 1438,3135 1422,3169 1426,3180 1451,3181 1468,3180 1486,3190 1511,3206 1530,3200 1547,3189 1604,3196 1636,3200 1645,3195 1650,3187 1646,3176 1634,3163 1635,3153 1642,3143 1698,3154 1733,3161 1755,3157 1790,3129 1824,3128 1844,3112 1853,3112 1862,3125 1860,3147 1877,3161 1897,3185 1886,3211 1883,3225 1883,3236 1887,3247 1905,3251 1942,3248 1960,3265 1995,3319 2015,3353 2048,3379 2078,3390 2113,3384 2119,3389 2123,3421 2126,3438 2140,3447 2165,3447 2198,3446 2236,3444 2249,3456 2262,3435 2276,3423 2295,3405 2322,3394 2344,3387 2356,3386 2373,3394 2379,3417 2408,3431 2416,3457 2449,3463 2460,3472 2474,3496 2478,3528 2480,3553 2486,3578 2508,3573 2521,3572 2529,3578 2529,3589 2514,3614 2536,3632 2558,3636 2574,3617 2599,3613 2637,3629 2667,3636 2679,3629 2692,3625 2713,3637 2737,3632 2743,3618 2746,3605 2736,3585 2707,3578 2691,3547 2686,3529 2696,3517 2742,3494 2748,3486 2733,3472 2720,3466 2735,3445 2768,3425 2808,3398 2831,3361 2845,3343 2867,3335 2889,3346 2897,3350 2903,3344 2901,3337 2893,3321 2890,3310 2895,3303 2903,3295 2922,3287 2957,3283 2979,3285 2994,3277 2993,3258 2981,3237 2966,3203 2945,3163 2939,3132 2942,3116 2944,3107 2936,3103 2913,3104 2889,3097 2884,3086 2897,3078 2913,3072 2915,3050 2946,3043 2971,3048 3013,3042 3021,3028 3064,3041 3079,3042 3085,3025 3085,3005 3095,3003 3116,3012 3131,3005 3147,2984 3160,2982 3174,2987 3178,2998 3199,3007 3246,2995 3262,2986 3274,2954 3281,2943 3302,2947 3313,2947 3319,2935 3325,2925 3339,2929 3351,2931 3359,2934 3378,2933 3416,2916 3432,2913 3441,2916 3435,2941 3444,2948 3460,2948 3517,2947 3559,2946 3593,2955 3635,2978 3650,2990 3659,2993 3671,2975 3683,2969 3697,2983 3735,2985 3745,2994 3742,3023 3764,3028 3800,3026 3822,3003 3831,2996 3851,2996 3882,2999 3898,2969 3952,2959 3970,2948 3983,2942 3985,2909 4010,2871 4030,2852 4059,2841 4080,2840 4106,2848 4136,2802 4166,2777 4192,2732 4223,2718 4259,2710 4291,2709 4299,2706 4289,2687 4291,2673 4305,2660 4307,2651 4306,2642 4308,2633 4311,2628 4326,2617 4331,2606 4327,2586 4330,2571 4340,2551 4367,2520 4392,2505 4399,2483 4407,2471 4431,2445 4448,2436 4474,2448 4524,2433 4540,2438 " class="polyStyle" id="532622" style="fill:#fbe6ef"/>
<polygon points="10142,1682 10159,1685 10170,1689 10186,1693 10200,1688 10210,1693 10215,1705 10222,1709 10225,1711 10229,1711 10249,1724 10259,1733 10262,1739 10260,1745 10260,1756 10259,1784 10270,1806 10269,1816 10261,1833 10260,1838 10258,1852 10264,1876 10292,1928 10296,1930 10300,1930 10326,1924 10332,1924 10338,1928 10342,1934 10344,1938 10344,1956 10342,1970 10336,1976 10326,1982 10314,1986 10312,1992 10312,2002 10320,2012 10326,2018 10336,2028 10336,2034 10312,2082 10310,2092 10310,2098 10310,2108 10314,2120 10316,2126 10332,2164 10334,2168 10336,2172 10342,2190 10352,2210 10356,2214 10360,2216 10366,2218 10372,2218 10376,2218 10380,2216 10388,2212 10394,2206 10416,2176 10432,2172 10442,2178 10452,2186 10464,2186 10480,2180 10508,2170 10512,2166 10518,2158 10518,2142 10522,2132 10530,2128 10542,2130 10552,2130 10564,2130 10574,2122 10594,2106 10606,2096 10610,2090 10612,2070 10614,2064 10616,2054 10620,2050 10624,2048 10650,2046 10656,2048 10664,2052 10682,2068 10688,2070 10718,2080 10722,2078 10792,2090 10796,2092 10804,2090 10814,2088 10822,2086 10848,2076 10856,2062 10862,2040 10866,2036 10874,2028 10882,2024 10886,2022 10900,2016 10906,2014 10918,2010 10922,2010 10928,2012 10936,2016 10944,2022 10956,2028 10992,2036 10996,2036 11006,2034 11012,2030 11018,2028 11030,2028 11046,2030 11060,2036 11068,2042 11116,2083 11120,2104 11120,2112 11114,2124 11112,2130 11108,2136 11090,2148 11080,2162 11068,2192 11066,2210 11066,2216 11072,2226 11078,2232 11084,2236 11094,2246 11098,2248 11102,2250 11106,2250 11112,2250 11118,2246 11126,2234 11130,2232 11170,2218 11186,2230 11232,2210 11250,2220 11276,2230 11300,2218 11328,2216 11332,2214 11334,2210 11344,2176 11344,2172 11346,2164 11356,2118 11356,2102 11362,2090 11366,2088 11370,2086 11404,2086 11409,2088 11482,2120 11488,2124 11498,2126 11502,2128 11556,2162 11566,2170 11572,2170 11598,2160 11606,2158 11610,2154 11618,2142 11620,2134 11626,2128 11632,2110 11638,2096 11642,2086 11652,2064 11656,2026 11658,2011 11652,2006 11648,2002 11634,1990 11624,1982 11594,1958 11592,1952 11592,1946 11594,1936 11594,1930 11598,1928 11606,1930 11614,1930 11628,1930 11632,1926 11628,1920 11622,1914 11614,1906 11614,1898 11612,1882 11614,1874 11620,1850 11620,1844 11632,1818 11638,1812 11650,1806 11658,1802 11668,1796 11676,1792 11686,1788 11694,1784 11718,1768 11724,1764 11730,1762 11740,1760 11750,1760 11774,1766 11796,1778 11840,1810 11853,1819 11858,1822 11926,1816 11934,1814 11942,1814 11956,1812 11978,1804 11992,1798 11996,1788 12000,1782 12018,1782 12040,1778 12058,1772 12068,1768 12080,1762 12092,1754 12108,1744 12118,1742 12128,1740 12134,1740 12152,1738 12158,1739 12158,1748 12152,1752 12136,1755 12117,1759 12110,1767 12110,1775 12113,1782 12127,1794 12142,1810 12151,1823 12151,1826 12158,1845 12174,1869 12182,1872 12198,1872 12220,1862 12235,1853 12238,1853 12244,1853 12248,1854 12254,1857 12255,1860 12254,1869 12258,1870 12276,1870 12286,1874 12296,1882 12350,1918 12354,1924 12356,1928 12362,1940 12364,1946 12366,1950 12372,1964 12382,2000 12384,2038 12376,2070 12374,2084 12374,2088 12382,2116 12386,2126 12390,2134 12392,2140 12396,2144 12408,2150 12416,2154 12426,2158 12432,2162 12450,2170 12472,2178 12486,2186 12468,2218 12510,2232 12539,2199 12572,2218 12578,2222 12586,2232 12592,2238 12598,2248 12604,2258 12568,2314 12568,2318 12573,2332 12579,2348 12576,2365 12569,2373 12548,2372 12541,2381 12529,2390 12523,2398 12524,2406 12534,2414 12551,2423 12561,2424 12568,2421 12578,2418 12591,2419 12600,2426 12610,2439 12618,2448 12624,2454 12631,2459 12654,2486 12656,2490 12678,2524 12686,2536 12706,2548 12720,2554 12756,2566 12768,2566 12777,2565 12786,2570 12804,2590 12808,2596 12810,2602 12812,2614 12812,2622 12814,2628 12814,2634 12812,2644 12812,2652 12810,2662 12812,2704 12814,2722 12816,2730 12818,2758 12823,2765 12844,2785 12848,2790 12854,2795 12862,2803 12868,2812 12882,2824 12890,2856 12894,2859 12898,2860 12902,2864 12903,2870 12902,2873 12894,2890 12908,2900 12916,2912 12924,2922 12924,2940 12922,2950 12925,2955 12936,2958 12944,2960 12988,2964 13008,2962 13024,2956 13036,2950 13046,2948 13058,2948 13068,2950 13086,2956 13088,2960 13102,2970 13110,2982 13112,2998 13116,3014 13114,3034 13092,3066 13084,3070 13076,3074 13068,3074 13062,3072 13038,3056 13030,3052 13022,3050 13016,3050 13010,3050 13002,3048 12998,3048 12990,3050 12981,3055 12984,3078 12988,3094 12994,3102 13004,3126 13010,3136 13016,3140 13024,3140 13030,3140 13040,3142 13048,3146 13054,3150 13066,3158 13086,3172 13092,3176 13100,3182 13104,3186 13106,3194 13108,3208 13106,3216 13106,3220 13104,3226 13100,3236 13098,3240 13088,3256 13082,3268 13078,3272 13066,3280 13054,3286 13036,3292 13026,3292 12998,3292 12994,3292 12986,3290 12980,3286 12974,3284 12970,3282 12966,3280 12964,3276 12962,3272 12958,3256 12955,3249 12948,3246 12944,3246 12940,3246 12898,3288 12884,3306 12857,3326 12836,3314 12830,3314 12816,3316 12813,3334 12822,3342 12822,3354 12811,3361 12810,3390 12822,3486 12824,3490 12826,3494 12832,3498 12840,3502 12846,3506 12854,3512 12854,3516 12856,3522 12856,3528 12840,3544 12832,3564 12832,3580 12836,3628 12842,3658 12854,3690 12856,3698 12858,3707 12862,3712 12866,3726 12876,3734 12884,3738 12894,3744 12908,3748 12914,3752 12924,3765 12926,3774 12928,3786 12920,3818 12910,3838 12900,3860 12900,3868 12912,3884 12900,3898 12880,3916 12870,3928 12870,3938 12872,3944 12876,3950 12884,3960 12890,3982 12886,4046 12886,4060 12884,4070 12884,4076 12882,4084 12876,4096 12854,4114 12838,4128 12826,4140 12820,4152 12818,4160 12820,4184 12822,4214 12820,4228 12814,4244 12806,4264 12799,4281 12790,4288 12786,4288 12778,4292 12774,4294 12759,4303 12752,4308 12748,4312 12742,4318 12730,4332 12720,4344 12714,4358 12710,4364 12710,4368 12712,4376 12716,4396 12716,4408 12720,4420 12724,4436 12728,4440 12730,4444 12736,4448 12744,4452 12768,4464 12774,4468 12784,4474 12796,4482 12802,4488 12814,4492 12822,4498 12822,4506 12818,4516 12808,4528 12794,4542 12783,4552 12768,4556 12764,4556 12753,4559 12752,4562 12754,4566 12755,4575 12760,4584 12751,4601 12744,4617 12744,4635 12736,4646 12714,4662 12688,4678 12656,4694 12650,4698 12654,4720 12651,4732 12624,4736 12583,4742 12578,4740 12576,4732 12574,4724 12572,4720 12570,4716 12566,4712 12562,4710 12559,4710 12554,4714 12552,4718 12548,4724 12550,4728 12550,4732 12548,4738 12534,4752 12532,4760 12538,4772 12532,4778 12518,4778 12516,4781 12526,4790 12528,4796 12528,4802 12522,4810 12504,4820 12496,4826 12492,4832 12490,4836 12490,4842 12496,4848 12504,4848 12512,4846 12516,4848 12518,4852 12518,4856 12516,4864 12514,4866 12480,4924 12476,4928 12472,4930 12464,4930 12442,4928 12436,4924 12428,4922 12423,4923 12416,4928 12406,4944 12386,4964 12369,4972 12358,4966 12340,4954 12332,4944 12326,4936 12322,4934 12312,4932 12302,4932 12295,4935 12294,4940 12298,4948 12296,4954 12296,4958 12292,4964 12288,4972 12286,4978 12280,4986 12258,4992 12252,4994 12240,5004 12234,5013 12234,5018 12238,5030 12238,5040 12174,5108 12168,5114 12162,5120 12148,5128 12136,5134 12118,5136 12092,5132 12064,5112 12052,5098 12046,5080 12048,5070 12050,5062 12054,5058 12066,5050 12074,5048 12088,5044 12096,5040 12100,5038 12102,5034 12104,5026 12104,5016 12104,5004 12104,4980 12090,4936 12080,4914 12076,4912 12070,4910 12054,4910 12042,4912 12022,4916 11994,4918 11984,4920 11964,4918 11954,4898 11946,4892 11944,4886 11938,4884 11926,4894 11922,4900 11918,4908 11886,4904 11872,4908 11866,4910 11852,4918 11842,4900 11838,4896 11812,4878 11828,4856 11812,4842 11794,4841 11788,4840 11774,4838 11762,4838 11736,4840 11716,4848 11702,4856 11696,4862 11686,4868 11676,4872 11662,4880 11654,4880 11646,4880 11636,4874 11626,4859 11628,4856 11632,4854 11636,4852 11640,4844 11640,4840 11644,4834 11644,4830 11640,4828 11632,4824 11628,4818 11630,4812 11638,4798 11638,4794 11638,4786 11636,4776 11632,4772 11622,4764 11618,4758 11608,4750 11598,4744 11586,4736 11574,4730 11564,4724 11554,4720 11546,4718 11530,4714 11526,4712 11516,4712 11502,4710 11496,4710 11490,4710 11474,4712 11448,4718 11412,4740 11394,4748 11386,4748 11386,4736 11386,4728 11386,4720 11372,4722 11322,4736 11316,4740 11304,4748 11286,4764 11278,4772 11272,4778 11262,4776 11250,4764 11246,4760 11236,4758 11232,4762 11232,4772 11232,4788 11232,4798 11226,4812 11216,4818 11206,4824 11202,4830 11200,4834 11196,4860 11196,4872 11198,4882 11200,4888 11202,4894 11204,4902 11206,4910 11212,4972 11210,4978 11206,4984 11204,4988 11202,4994 11198,5002 11178,5038 11170,5042 11156,5036 11150,5032 11142,5026 11136,5022 11122,5018 11110,5016 11080,5022 11056,5026 11036,5034 10984,5046 10966,5054 10942,5062 10934,5064 10920,5068 10910,5072 10898,5080 10892,5082 10886,5086 10884,5090 10878,5104 10878,5118 10880,5124 10882,5136 10888,5146 10886,5154 10868,5185 10856,5194 10850,5196 10835,5198 10830,5198 10814,5204 10790,5214 10784,5218 10780,5220 10764,5236 10754,5248 10740,5260 10728,5274 10720,5284 10708,5300 10700,5314 10692,5322 10676,5334 10642,5352 10638,5352 10632,5358 10626,5362 10620,5370 10616,5378 10610,5386 10608,5390 10604,5394 10597,5397 10560,5390 10544,5374 10539,5365 10531,5351 10528,5348 10526,5344 10520,5338 10514,5334 10506,5332 10482,5326 10478,5326 10474,5326 10468,5328 10466,5332 10462,5342 10460,5348 10442,5364 10434,5364 10418,5358 10384,5350 10330,5344 10322,5344 10318,5344 10300,5348 10286,5350 10266,5356 10264,5359 10266,5362 10272,5366 10278,5370 10282,5372 10294,5376 10302,5380 10308,5380 10318,5378 10326,5376 10350,5376 10358,5378 10362,5378 10380,5390 10390,5396 10410,5408 10446,5422 10452,5426 10464,5432 10476,5438 10484,5446 10487,5451 10492,5464 10494,5468 10492,5474 10486,5482 10486,5486 10490,5490 10496,5496 10500,5498 10516,5500 10530,5502 10538,5504 10542,5506 10556,5512 10570,5518 10584,5530 10587,5535 10588,5542 10586,5552 10584,5560 10572,5576 10566,5580 10560,5584 10554,5586 10532,5588 10526,5588 10518,5586 10508,5584 10498,5580 10490,5578 10485,5578 10478,5580 10468,5594 10466,5602 10468,5612 10478,5618 10484,5622 10488,5624 10502,5624 10544,5632 10550,5638 10560,5645 10574,5658 10594,5674 10600,5680 10618,5716 10612,5722 10608,5726 10596,5736 10562,5752 10534,5760 10520,5760 10516,5760 10496,5750 10472,5736 10468,5730 10468,5714 10470,5702 10470,5674 10466,5660 10464,5652 10451,5635 10444,5630 10440,5628 10426,5626 10420,5626 10412,5626 10406,5628 10400,5628 10390,5630 10380,5632 10374,5632 10368,5638 10364,5642 10360,5654 10360,5658 10362,5664 10358,5670 10352,5678 10256,5732 10246,5738 10232,5746 10214,5736 10208,5732 10202,5732 10199,5746 10187,5754 10172,5792 10136,5792 10114,5794 10104,5794 10094,5796 10086,5800 10072,5808 10056,5818 10050,5824 10048,5830 10072,5885 10070,5888 10030,5914 10022,5920 10018,5920 10010,5922 9994,5906 9989,5906 9986,5910 9982,5912 9977,5919 9966,5940 9960,5976 9958,6010 9960,6016 9964,6040 9968,6054 9964,6078 9956,6094 9948,6100 9942,6104 9932,6104 9920,6104 9906,6116 9894,6124 9892,6130 9888,6132 9886,6142 9884,6146 9874,6150 9858,6140 9850,6132 9840,6130 9830,6134 9824,6138 9815,6141 9787,6156 9782,6166 9782,6174 9786,6192 9792,6206 9794,6212 9794,6218 9792,6226 9782,6246 9772,6250 9765,6258 9768,6261 9783,6274 9792,6284 9796,6289 9798,6294 9806,6302 9820,6315 9827,6325 9837,6350 9842,6356 9842,6378 9842,6384 9840,6396 9840,6404 9838,6434 9825,6434 9807,6438 9776,6446 9750,6427 9717,6398 9683,6395 9652,6372 9614,6347 9614,6317 9596,6279 9595,6241 9582,6214 9550,6200 9537,6171 9515,6144 9474,6121 9461,6086 9455,6061 9431,6023 9383,5987 9369,5950 9367,5924 9345,5896 9317,5878 9282,5872 9266,5906 9257,5934 9221,5954 9176,5923 9145,5902 9119,5886 9091,5855 9071,5816 9043,5817 9032,5809 9023,5805 9016,5800 9009,5797 8996,5791 8988,5784 8983,5777 8972,5752 8947,5724 8945,5719 8939,5712 8937,5708 8924,5699 8909,5681 8902,5670 8897,5664 8891,5648 8889,5640 8889,5626 8886,5613 8890,5588 8890,5569 8886,5556 8880,5540 8871,5530 8838,5505 8827,5498 8809,5483 8794,5470 8783,5455 8773,5432 8770,5427 8764,5422 8748,5421 8740,5424 8734,5432 8732,5437 8715,5459 8701,5468 8695,5473 8686,5476 8683,5478 8638,5453 8614,5453 8591,5461 8531,5457 8505,5424 8475,5384 8458,5352 8464,5322 8492,5282 8497,5237 8518,5230 8568,5230 8579,5229 8590,5222 8582,5213 8572,5197 8559,5185 8536,5181 8527,5190 8533,5199 8528,5205 8497,5203 8474,5197 8447,5180 8417,5183 8385,5177 8349,5166 8323,5155 8308,5104 8308,5071 8313,5043 8341,5016 8373,5006 8392,4992 8386,4980 8346,4965 8318,4951 8301,4930 8299,4913 8323,4910 8336,4900 8352,4884 8360,4847 8361,4819 8358,4809 8349,4804 8305,4806 8296,4767 8264,4756 8255,4749 8249,4737 8248,4718 8267,4713 8275,4695 8268,4679 8250,4679 8233,4653 8232,4635 8231,4614 8246,4600 8244,4552 8252,4537 8261,4534 8274,4535 8286,4551 8294,4549 8299,4538 8299,4518 8292,4494 8294,4477 8302,4463 8311,4454 8326,4457 8334,4470 8345,4484 8355,4489 8370,4482 8379,4476 8388,4477 8395,4481 8421,4501 8447,4514 8480,4515 8507,4522 8517,4535 8520,4551 8527,4562 8540,4562 8549,4557 8561,4554 8570,4565 8568,4576 8552,4596 8544,4613 8544,4639 8542,4663 8544,4695 8559,4702 8574,4695 8591,4684 8599,4686 8621,4699 8644,4694 8659,4677 8670,4646 8687,4634 8722,4623 8755,4614 8767,4599 8752,4574 8735,4562 8729,4531 8751,4504 8760,4495 8769,4477 8758,4464 8754,4456 8752,4445 8754,4434 8766,4426 8796,4421 8811,4407 8813,4389 8804,4360 8793,4345 8777,4334 8749,4313 8753,4307 8756,4301 8766,4298 8790,4309 8812,4313 8830,4318 8849,4315 8857,4306 8864,4309 8882,4325 8914,4323 8931,4341 8951,4346 8958,4361 8965,4372 8983,4386 9004,4400 9037,4428 9058,4443 9071,4456 9072,4473 9087,4482 9113,4480 9126,4474 9135,4462 9144,4451 9159,4444 9191,4461 9220,4472 9246,4473 9267,4467 9287,4446 9290,4421 9296,4406 9310,4399 9358,4404 9373,4399 9378,4385 9388,4369 9378,4365 9347,4363 9341,4356 9343,4341 9350,4320 9363,4312 9385,4315 9406,4306 9416,4294 9427,4288 9436,4295 9438,4312 9441,4335 9443,4371 9449,4379 9457,4384 9466,4383 9480,4379 9495,4379 9507,4382 9524,4387 9539,4386 9548,4369 9546,4358 9541,4346 9560,4333 9583,4325 9597,4339 9620,4338 9646,4320 9673,4301 9685,4272 9684,4230 9666,4200 9680,4179 9721,4145 9739,4121 9743,4070 9740,4051 9746,4042 9764,4052 9777,4044 9797,4030 9807,4016 9835,3999 9844,4010 9858,4011 9871,4002 9873,3972 9865,3955 9834,3944 9799,3928 9810,3917 9828,3906 9843,3880 9880,3896 9905,3888 9922,3875 9933,3856 9945,3851 9967,3861 9995,3874 10036,3859 10051,3850 10061,3837 10071,3829 10085,3824 10128,3821 10157,3823 10167,3802 10172,3772 10165,3750 10158,3755 10156,3764 10142,3771 10109,3768 10098,3751 10083,3743 10067,3745 10055,3753 10041,3749 10033,3742 10026,3720 10036,3714 10055,3710 10058,3699 10050,3687 10053,3680 10062,3667 10061,3660 10041,3657 10042,3649 10053,3612 10045,3608 10033,3613 10014,3618 10000,3611 9989,3588 9977,3592 9977,3622 9977,3637 9965,3649 9955,3651 9954,3631 9937,3613 9918,3606 9894,3609 9881,3611 9869,3603 9859,3576 9833,3567 9797,3554 9788,3548 9782,3540 9774,3526 9776,3514 9799,3518 9806,3513 9797,3494 9801,3485 9813,3485 9835,3490 9860,3490 9874,3481 9879,3463 9867,3456 9839,3447 9785,3423 9778,3411 9774,3391 9773,3370 9816,3375 9825,3370 9824,3358 9810,3350 9801,3344 9803,3335 9806,3331 9807,3311 9800,3313 9786,3312 9776,3310 9771,3305 9773,3294 9770,3275 9758,3261 9745,3247 9736,3234 9722,3228 9699,3227 9685,3234 9664,3245 9631,3263 9609,3281 9595,3280 9578,3268 9577,3256 9601,3241 9607,3233 9594,3210 9576,3205 9555,3204 9548,3197 9555,3150 9551,3130 9532,3128 9511,3131 9510,3115 9504,3105 9489,3107 9474,3103 9459,3094 9465,3063 9471,3021 9494,2999 9539,2973 9586,2970 9639,2957 9692,2951 9727,2948 9760,2942 9793,2934 9793,2927 9804,2904 9826,2885 9858,2861 9880,2846 9909,2842 9937,2835 9944,2820 9953,2788 9920,2783 9904,2764 9911,2739 9902,2735 9882,2728 9860,2727 9850,2717 9849,2701 9846,2688 9846,2664 9846,2648 9837,2646 9811,2644 9777,2653 9744,2658 9709,2661 9688,2634 9672,2604 9653,2579 9640,2564 9649,2545 9669,2528 9666,2514 9672,2485 9690,2456 9682,2429 9683,2423 9683,2406 9688,2395 9687,2389 9684,2381 9683,2377 9683,2373 9681,2367 9680,2360 9677,2355 9673,2347 9663,2335 9655,2326 9647,2316 9632,2305 9619,2294 9605,2287 9597,2283 9591,2277 9596,2274 9602,2260 9610,2248 9618,2244 9630,2242 9642,2246 9656,2246 9664,2238 9665,2230 9669,2219 9669,2210 9663,2188 9660,2185 9648,2159 9646,2151 9644,2140 9647,2134 9654,2115 9661,2108 9662,2086 9661,2073 9672,2046 9679,2036 9695,2017 9699,2006 9702,2002 9706,1998 9708,1993 9710,1985 9710,1977 9712,1971 9709,1957 9709,1949 9706,1937 9707,1930 9706,1919 9705,1914 9706,1896 9707,1888 9719,1853 9728,1839 9735,1836 9736,1832 9740,1829 9744,1825 9748,1822 9752,1814 9755,1814 9761,1811 9771,1801 9773,1795 9774,1781 9764,1757 9760,1744 9759,1732 9767,1724 9780,1718 9786,1719 9796,1719 9804,1723 9809,1724 9839,1745 9855,1750 9866,1749 9881,1744 9898,1726 9907,1721 9918,1718 9941,1714 9949,1713 9953,1713 9963,1710 9972,1710 9984,1714 9997,1711 10001,1711 10007,1711 10014,1714 10027,1720 10037,1721 10047,1722 10053,1718 10062,1708 10068,1703 10072,1698 10079,1694 10083,1690 10089,1682 10094,1678 10106,1675 10114,1675 10122,1676 " class="polyStyle" id="532628" style="fill:#ee8b94"/>
<path d="" class="polyStyle" id="350624" style="fill:#f6f67b"/>
<path d="" class="polyStyle" id="" style="fill:#fbe6ef"/>
<polygon points="5972,78 5976,84 5980,86 5992,132 5998,144 6022,156 6056,156 6098,154 6128,154 6156,164 6174,178 6188,186 6202,186 6238,174 6294,128 6310,126 6326,124 6342,128 6350,130 6366,166 6378,184 6394,188 6408,180 6434,174 6442,178 6442,188 6446,202 6454,212 6464,216 6478,216 6504,206 6524,204 6558,208 6594,214 6624,222 6632,228 6638,242 6646,246 6660,246 6696,242 6720,240 6732,254 6742,276 6750,300 6748,312 6746,316 6746,324 6747,329 6762,332 6772,332 6826,338 6836,340 6842,336 6852,330 6856,326 6864,320 6872,316 6878,312 6886,312 6890,312 6914,308 6918,308 6926,312 6930,318 6932,322 6938,332 6940,338 6946,344 6950,342 6974,330 6984,328 6996,320 7010,310 7022,296 7030,290 7034,286 7038,282 7042,280 7048,274 7052,270 7056,259 7056,250 7056,246 7056,240 7058,236 7064,230 7068,226 7076,224 7080,226 7120,224 7134,220 7140,218 7150,216 7164,208 7178,192 7188,182 7194,180 7202,188 7208,202 7218,204 7232,202 7252,192 7266,180 7272,178 7280,172 7290,168 7298,166 7310,164 7328,158 7338,156 7346,154 7350,154 7354,154 7370,156 7384,160 7392,162 7394,168 7396,176 7396,186 7394,192 7389,207 7388,212 7396,210 7404,211 7415,223 7439,223 7445,226 7456,225 7462,220 7470,220 7478,230 7486,234 7501,234 7517,245 7522,247 7534,255 7536,258 7542,264 7546,268 7552,270 7556,272 7563,273 7570,272 7608,278 7660,300 7664,304 7668,308 7672,312 7674,316 7630,356 7670,380 7660,410 7654,416 7650,418 7644,418 7640,418 7632,416 7607,417 7604,422 7606,426 7606,432 7610,440 7616,444 7624,456 7630,460 7644,474 7654,480 7660,486 7666,494 7674,506 7674,514 7672,520 7672,526 7672,534 7676,540 7682,542 7688,544 7692,544 7696,542 7700,536 7712,530 7716,526 7718,524 7724,520 7776,512 7820,500 7834,502 7862,514 7872,528 7890,546 7900,554 7912,560 7920,562 7942,564 7958,574 7958,582 7960,596 7966,608 7992,624 8006,632 8034,640 8064,640 8084,650 8098,662 8100,672 8102,680 8106,692 8112,696 8122,702 8126,708 8120,728 8108,744 8098,750 8092,754 8088,758 8076,762 8072,764 8044,784 8038,786 8032,794 7978,850 7976,856 7972,868 7974,876 7978,882 7990,890 8007,899 8012,914 8012,918 8010,922 8008,932 8004,936 8000,938 7992,938 7976,934 7964,930 7958,926 7950,922 7924,948 7906,964 7918,970 7936,972 7956,970 7984,1014 7990,1020 8002,1030 8008,1034 8018,1040 8028,1048 8032,1054 8032,1058 8028,1066 8024,1072 8012,1082 8006,1086 8004,1090 8004,1094 8004,1100 8007,1104 8026,1110 8034,1112 8044,1110 8055,1107 8068,1102 8074,1096 8082,1096 8086,1096 8104,1100 8108,1102 8112,1104 8122,1116 8128,1122 8132,1130 8134,1138 8140,1164 8140,1171 8140,1180 8138,1188 8140,1198 8150,1240 8180,1284 8201,1303 8212,1292 8216,1280 8218,1276 8222,1274 8232,1272 8242,1270 8266,1266 8286,1268 8292,1272 8294,1280 8276,1304 8284,1320 8294,1324 8302,1328 8318,1314 8324,1310 8328,1314 8330,1320 8338,1338 8340,1346 8338,1350 8338,1356 8316,1410 8314,1416 8314,1426 8312,1434 8310,1442 8308,1446 8302,1468 8292,1482 8268,1484 8264,1542 8262,1546 8206,1566 8170,1584 8166,1584 8166,1578 8166,1566 8166,1558 8166,1554 8166,1547 8164,1538 8160,1532 8156,1526 8150,1524 8124,1528 8092,1530 8052,1528 8040,1528 8036,1530 8032,1558 8000,1582 8006,1628 8034,1620 8044,1646 8038,1684 8026,1702 8026,1706 8028,1710 8032,1714 8038,1720 8044,1722 8048,1726 8052,1728 8056,1730 8063,1735 8078,1740 8086,1746 8092,1753 8096,1766 8096,1770 8098,1774 8102,1788 8104,1800 8114,1838 8120,1844 8126,1848 8156,1866 8190,1900 8202,1910 8222,1924 8234,1922 8258,1936 8260,1956 8258,1970 8306,1996 8346,2004 8374,2016 8398,2054 8402,2062 8412,2064 8426,2060 8432,2046 8494,2060 8540,2048 8548,2034 8572,1998 8578,1992 8576,1982 8572,1970 8568,1960 8564,1956 8550,1956 8540,1952 8534,1940 8532,1930 8528,1926 8500,1916 8492,1914 8488,1912 8483,1909 8480,1898 8480,1892 8480,1874 8480,1868 8480,1860 8484,1858 8494,1858 8540,1870 8546,1864 8562,1832 8572,1812 8582,1800 8616,1802 8656,1806 8678,1800 8704,1782 8710,1780 8718,1780 8722,1786 8728,1792 8732,1796 8738,1804 8760,1822 8762,1840 8766,1874 8772,1890 8782,1896 8798,1896 8818,1886 8832,1888 8850,1900 8852,1906 8856,1920 8856,1926 8850,1936 8852,1940 8860,1946 8868,1950 8898,1956 8944,1984 8988,1978 8996,1984 9000,1996 9004,2010 9016,2024 9028,2034 9050,2044 9060,2046 9065,2048 9070,2048 9078,2044 9086,2042 9096,2042 9100,2046 9104,2048 9106,2054 9114,2074 9118,2086 9146,2150 9160,2176 9164,2184 9168,2194 9176,2210 9182,2220 9187,2225 9192,2226 9208,2226 9222,2228 9234,2226 9252,2224 9258,2222 9270,2202 9316,2194 9318,2206 9342,2202 9366,2222 9396,2214 9484,2256 9500,2250 9518,2268 9534,2272 9562,2268 9586,2280 9591,2277 9597,2283 9605,2287 9619,2294 9632,2305 9647,2316 9655,2326 9663,2335 9673,2347 9677,2355 9680,2360 9681,2367 9683,2373 9683,2377 9684,2381 9687,2389 9688,2395 9683,2406 9683,2423 9682,2429 9690,2456 9672,2485 9666,2514 9669,2528 9649,2545 9640,2564 9653,2579 9672,2604 9688,2634 9709,2661 9744,2658 9777,2653 9811,2644 9837,2646 9846,2648 9846,2664 9846,2688 9849,2701 9850,2717 9860,2727 9882,2728 9902,2735 9911,2739 9904,2764 9920,2783 9953,2788 9944,2820 9937,2835 9909,2842 9880,2846 9858,2861 9826,2885 9804,2904 9793,2927 9793,2934 9760,2942 9727,2948 9692,2951 9639,2957 9586,2970 9539,2973 9494,2999 9471,3021 9465,3063 9459,3094 9474,3103 9489,3107 9504,3105 9510,3115 9511,3131 9532,3128 9551,3130 9555,3150 9548,3197 9555,3204 9576,3205 9594,3210 9607,3233 9601,3241 9577,3256 9578,3268 9595,3280 9609,3281 9631,3263 9664,3245 9685,3234 9699,3227 9722,3228 9736,3234 9745,3247 9758,3261 9770,3275 9773,3294 9771,3305 9776,3310 9786,3312 9800,3313 9807,3311 9806,3331 9803,3335 9801,3344 9810,3350 9824,3358 9825,3370 9816,3375 9773,3370 9774,3391 9778,3411 9785,3423 9839,3447 9867,3456 9879,3463 9874,3481 9860,3490 9835,3490 9813,3485 9801,3485 9797,3494 9806,3513 9799,3518 9776,3514 9774,3526 9782,3540 9788,3548 9797,3554 9833,3567 9859,3576 9869,3603 9881,3611 9894,3609 9918,3606 9937,3613 9954,3631 9955,3651 9965,3649 9977,3637 9977,3622 9977,3592 9989,3588 10000,3611 10014,3618 10033,3613 10045,3608 10053,3612 10042,3649 10041,3657 10061,3660 10062,3667 10053,3680 10050,3687 10058,3699 10055,3710 10036,3714 10026,3720 10033,3742 10041,3749 10055,3753 10067,3745 10083,3743 10098,3751 10109,3768 10142,3771 10156,3764 10158,3755 10165,3750 10172,3772 10167,3802 10157,3823 10128,3821 10085,3824 10071,3829 10061,3837 10051,3850 10036,3859 9995,3874 9967,3861 9945,3851 9933,3856 9922,3875 9905,3888 9880,3896 9843,3880 9828,3906 9810,3917 9799,3928 9834,3944 9865,3955 9873,3972 9871,4002 9858,4011 9844,4010 9835,3999 9807,4016 9797,4030 9777,4044 9764,4052 9746,4042 9740,4051 9743,4070 9739,4121 9721,4145 9680,4179 9666,4200 9684,4230 9685,4272 9673,4301 9646,4320 9620,4338 9597,4339 9583,4325 9560,4333 9541,4346 9546,4358 9548,4369 9539,4386 9524,4387 9507,4382 9495,4379 9480,4379 9466,4383 9457,4384 9449,4379 9443,4371 9441,4335 9438,4312 9436,4295 9427,4288 9416,4294 9406,4306 9385,4315 9363,4312 9350,4320 9343,4341 9341,4356 9347,4363 9378,4365 9388,4369 9378,4385 9373,4399 9358,4404 9310,4399 9296,4406 9290,4421 9287,4446 9267,4467 9246,4473 9220,4472 9191,4461 9159,4444 9144,4451 9135,4462 9126,4474 9113,4480 9087,4482 9072,4473 9071,4456 9058,4443 9037,4428 9004,4400 8983,4386 8965,4372 8958,4361 8951,4346 8931,4341 8914,4323 8882,4325 8864,4309 8857,4306 8849,4315 8830,4318 8812,4313 8790,4309 8766,4298 8756,4301 8753,4307 8749,4313 8777,4334 8793,4345 8804,4360 8813,4389 8811,4407 8796,4421 8766,4426 8754,4434 8752,4445 8754,4456 8758,4464 8769,4477 8760,4495 8751,4504 8729,4531 8735,4562 8752,4574 8767,4599 8755,4614 8722,4623 8687,4634 8670,4646 8659,4677 8644,4694 8621,4699 8599,4686 8591,4684 8574,4695 8559,4702 8544,4695 8542,4663 8544,4639 8544,4613 8552,4596 8568,4576 8570,4565 8561,4554 8549,4557 8540,4562 8527,4562 8520,4551 8517,4535 8507,4522 8480,4515 8447,4514 8421,4501 8395,4481 8388,4477 8379,4476 8370,4482 8355,4489 8345,4484 8334,4470 8326,4457 8311,4454 8302,4463 8294,4477 8292,4494 8299,4518 8299,4538 8294,4549 8286,4551 8274,4535 8261,4534 8252,4537 8244,4552 8246,4600 8231,4614 8232,4635 8233,4653 8250,4679 8268,4679 8275,4695 8267,4713 8248,4718 8249,4737 8255,4749 8264,4756 8296,4767 8305,4806 8349,4804 8358,4809 8361,4819 8360,4847 8352,4884 8328,4890 8303,4884 8276,4875 8230,4845 8199,4847 8182,4828 8161,4811 8134,4796 8096,4797 8068,4783 8042,4776 8016,4765 7980,4749 7937,4719 7907,4706 7879,4711 7843,4722 7813,4735 7785,4735 7756,4728 7728,4706 7698,4709 7662,4695 7636,4677 7626,4671 7602,4678 7591,4686 7567,4682 7541,4663 7532,4651 7532,4634 7501,4635 7475,4645 7466,4675 7459,4686 7439,4688 7433,4696 7420,4697 7432,4719 7432,4744 7428,4785 7418,4808 7428,4823 7447,4831 7460,4848 7459,4855 7450,4856 7436,4844 7398,4836 7372,4804 7342,4797 7317,4785 7283,4788 7257,4776 7239,4756 7227,4744 7194,4742 7134,4734 7113,4723 7109,4704 7097,4697 7069,4698 7001,4711 6989,4731 6970,4752 6951,4756 6918,4753 6909,4748 6924,4691 6879,4695 6856,4679 6810,4715 6788,4732 6762,4707 6730,4674 6703,4659 6696,4629 6695,4603 6676,4575 6650,4561 6620,4562 6590,4557 6560,4543 6534,4539 6502,4532 6476,4520 6442,4510 6416,4510 6390,4500 6364,4471 6352,4444 6323,4423 6284,4416 6258,4412 6230,4409 6199,4412 6166,4411 6135,4404 6110,4396 6082,4366 6067,4339 6044,4305 6007,4279 5978,4293 5958,4297 5967,4357 5947,4375 5934,4404 5866,4369 5837,4374 5815,4401 5781,4447 5766,4464 5737,4455 5718,4449 5705,4458 5692,4458 5675,4449 5663,4438 5639,4418 5621,4399 5609,4375 5624,4338 5611,4328 5581,4306 5560,4275 5562,4256 5578,4231 5582,4217 5549,4184 5533,4163 5535,4142 5557,4117 5570,4080 5582,4056 5597,4038 5604,4032 5605,4020 5587,4010 5566,4003 5535,3996 5505,4000 5453,4013 5440,4008 5443,3996 5445,3964 5446,3941 5448,3920 5447,3909 5422,3909 5416,3902 5419,3877 5422,3842 5421,3818 5416,3786 5437,3765 5478,3724 5479,3705 5475,3672 5479,3656 5490,3647 5496,3636 5497,3621 5498,3610 5516,3611 5536,3611 5557,3601 5566,3591 5566,3580 5560,3574 5541,3562 5540,3553 5560,3532 5578,3516 5588,3498 5594,3484 5588,3472 5551,3455 5535,3459 5507,3478 5483,3480 5461,3456 5450,3458 5429,3462 5418,3468 5437,3488 5420,3493 5394,3492 5397,3459 5395,3444 5387,3427 5381,3417 5361,3405 5331,3386 5291,3368 5274,3352 5290,3324 5287,3316 5276,3301 5259,3295 5244,3294 5232,3300 5215,3310 5194,3301 5189,3287 5191,3279 5196,3265 5218,3249 5239,3233 5245,3206 5243,3177 5234,3161 5215,3165 5202,3175 5173,3189 5139,3182 5144,3160 5139,3152 5126,3149 5108,3140 5096,3096 5086,3070 5082,3032 5075,3002 5063,2984 5036,2975 4995,2964 4968,2958 4933,2959 4901,2971 4893,2979 4889,2992 4871,2997 4844,2991 4820,3007 4806,3003 4802,2983 4806,2961 4784,2963 4763,2960 4758,2941 4773,2926 4777,2914 4775,2884 4796,2844 4849,2798 4867,2791 4881,2785 4918,2801 4929,2805 4931,2785 4916,2772 4902,2752 4888,2743 4886,2730 4890,2717 4892,2706 4897,2694 4886,2685 4857,2678 4854,2670 4868,2662 4872,2653 4874,2646 4868,2632 4864,2617 4864,2604 4877,2593 4876,2590 4868,2586 4847,2572 4829,2555 4825,2549 4819,2536 4838,2527 4863,2515 4886,2523 4902,2527 4925,2536 4937,2542 4957,2547 4970,2547 4985,2540 4995,2520 4982,2506 4972,2491 4972,2477 4982,2453 4997,2416 4996,2399 4997,2379 5005,2355 4998,2338 4968,2324 4945,2313 4936,2304 4921,2288 4912,2288 4888,2297 4878,2285 4868,2271 4870,2261 4884,2242 4894,2245 4914,2253 4921,2249 4919,2232 4910,2220 4884,2212 4871,2198 4888,2186 4899,2182 4898,2174 4895,2169 4881,2171 4867,2179 4854,2185 4839,2191 4826,2187 4815,2175 4801,2151 4791,2122 4778,2090 4770,2068 4741,2056 4745,2037 4754,2008 4760,1981 4758,1954 4760,1924 4738,1891 4733,1866 4751,1837 4762,1808 4754,1776 4742,1747 4752,1712 4780,1686 4810,1655 4827,1622 4839,1595 4844,1580 4867,1571 4884,1567 4883,1549 4893,1519 4909,1490 4923,1459 4927,1445 4917,1429 4910,1410 4889,1409 4860,1397 4832,1386 4818,1357 4811,1344 4789,1343 4763,1342 4732,1309 4707,1281 4705,1250 4700,1223 4713,1197 4731,1169 4749,1143 4769,1118 4794,1093 4812,1066 4808,1036 4802,1006 4804,979 4812,946 4818,920 4809,888 4801,857 4786,828 4772,795 4764,770 4758,744 4767,713 4764,687 4740,654 4734,623 4731,593 4730,567 4714,538 4706,505 4708,475 4704,446 4704,419 4714,390 4697,357 4707,330 4724,298 4718,273 4755,248 4784,235 4793,207 4829,199 4862,204 4890,203 4915,189 4940,160 4989,138 4994,142 4995,146 4996,151 4996,157 4997,164 4999,169 5003,169 5007,168 5012,165 5017,165 5018,171 5020,177 5021,181 5020,187 5019,192 5017,199 5017,204 5018,207 5020,212 5023,217 5027,222 5029,227 5029,232 5030,237 5031,243 5033,247 5036,252 5037,257 5036,263 5038,268 5039,270 5070,256 5084,250 5100,250 5208,264 5236,304 5248,326 5270,360 5264,368 5226,390 5214,400 5210,406 5200,434 5196,446 5190,460 5180,470 5166,482 5164,490 5170,494 5178,498 5218,502 5232,506 5256,514 5268,518 5274,520 5286,524 5296,524 5312,526 5326,528 5336,532 5362,540 5372,546 5378,552 5386,558 5394,566 5414,590 5418,602 5428,616 5440,626 5466,638 5478,642 5496,654 5502,668 5528,700 5538,714 5564,736 5568,736 5576,742 5582,746 5596,760 5610,774 5616,780 5620,782 5626,782 5635,782 5670,758 5702,728 5718,716 5722,712 5726,708 5730,702 5738,692 5752,656 5752,650 5752,644 5750,640 5742,634 5738,632 5734,630 5728,628 5722,628 5716,624 5710,620 5702,614 5698,608 5690,594 5690,588 5688,580 5688,576 5688,570 5690,566 5692,562 5702,554 5704,550 5708,536 5710,528 5714,520 5714,514 5712,506 5710,496 5708,490 5706,482 5698,468 5686,434 5680,418 5664,392 5662,386 5662,376 5662,368 5662,360 5670,338 5664,306 5662,302 5660,298 5654,292 5644,284 5634,270 5632,266 5636,260 5638,256 5644,248 5648,244 5654,234 5664,226 5680,204 5684,188 5688,172 5692,160 5696,156 5700,152 5716,150 5734,154 5748,144 5756,138 5766,142 5774,146 5809,167 5835,182 5838,184 5865,191 5870,192 5876,192 5881,191 5884,186 5884,168 5882,116 5882,96 5884,90 5886,86 5892,84 5898,80 5914,76 5928,74 5952,74 5966,76 " class="polyStyle" id="532627" style="fill:#f6f67b"/>
<polygon points="4961,5 4964,10 4964,16 4964,24 4962,32 4961,43 4960,52 4963,58 4967,62 4971,67 4973,70 4978,75 4984,86 4989,100 4992,112 4993,122 4991,133 4989,138 4940,160 4915,189 4890,203 4862,204 4829,199 4793,207 4784,235 4755,248 4718,273 4724,298 4707,330 4697,357 4714,390 4704,419 4704,446 4708,475 4706,505 4714,538 4730,567 4731,593 4734,623 4740,654 4764,687 4767,713 4758,744 4764,770 4772,795 4786,828 4801,857 4809,888 4818,920 4812,946 4804,979 4802,1006 4808,1036 4812,1066 4794,1093 4769,1118 4749,1143 4731,1169 4713,1197 4700,1223 4705,1250 4707,1281 4732,1309 4763,1342 4789,1343 4811,1344 4818,1357 4832,1386 4860,1397 4889,1409 4910,1410 4917,1429 4927,1445 4923,1459 4909,1490 4893,1519 4883,1549 4884,1567 4867,1571 4844,1580 4839,1595 4827,1622 4810,1655 4780,1686 4752,1712 4742,1747 4754,1776 4762,1808 4751,1837 4733,1866 4738,1891 4760,1924 4758,1954 4760,1981 4754,2008 4745,2037 4741,2056 4770,2068 4778,2090 4791,2122 4801,2151 4815,2175 4826,2187 4839,2191 4854,2185 4867,2179 4881,2171 4895,2169 4898,2174 4899,2182 4888,2186 4871,2198 4884,2212 4910,2220 4919,2232 4921,2249 4914,2253 4894,2245 4884,2242 4870,2261 4868,2271 4878,2285 4888,2297 4912,2288 4921,2288 4936,2304 4945,2313 4968,2324 4998,2338 5005,2355 4997,2379 4996,2399 4997,2416 4982,2453 4972,2477 4972,2491 4982,2506 4995,2520 4985,2540 4970,2547 4957,2547 4937,2542 4925,2536 4902,2527 4886,2523 4863,2515 4838,2527 4819,2536 4810,2541 4802,2551 4809,2564 4801,2570 4794,2575 4785,2574 4774,2583 4777,2593 4765,2601 4741,2594 4724,2578 4729,2565 4742,2550 4733,2518 4729,2507 4732,2492 4741,2492 4748,2481 4742,2473 4699,2459 4685,2453 4669,2445 4647,2461 4612,2480 4590,2485 4575,2477 4559,2455 4540,2438 4524,2433 4474,2448 4448,2436 4431,2445 4407,2471 4399,2483 4392,2505 4367,2520 4340,2551 4330,2571 4327,2586 4331,2606 4326,2617 4311,2628 4308,2633 4306,2642 4307,2651 4305,2660 4291,2673 4289,2687 4299,2706 4291,2709 4259,2710 4223,2718 4192,2732 4166,2777 4136,2802 4106,2848 4080,2840 4059,2841 4030,2852 4010,2871 3985,2909 3983,2942 3970,2948 3952,2959 3898,2969 3882,2999 3851,2996 3831,2996 3822,3003 3800,3026 3764,3028 3742,3023 3745,2994 3735,2985 3697,2983 3683,2969 3671,2975 3659,2993 3650,2990 3635,2978 3593,2955 3559,2946 3517,2947 3460,2948 3444,2948 3435,2941 3441,2916 3432,2913 3416,2916 3378,2933 3359,2934 3351,2931 3339,2929 3325,2925 3319,2935 3313,2947 3302,2947 3281,2943 3274,2954 3262,2986 3246,2995 3199,3007 3178,2998 3174,2987 3160,2982 3147,2984 3131,3005 3116,3012 3095,3003 3085,3005 3085,3025 3079,3042 3064,3041 3021,3028 3013,3042 2971,3048 2946,3043 2915,3050 2913,3072 2897,3078 2884,3086 2889,3097 2913,3104 2936,3103 2944,3107 2942,3116 2939,3132 2945,3163 2966,3203 2981,3237 2993,3258 2994,3277 2979,3285 2957,3283 2922,3287 2903,3295 2895,3303 2890,3310 2893,3321 2901,3337 2903,3344 2897,3350 2889,3346 2867,3335 2845,3343 2831,3361 2808,3398 2768,3425 2735,3445 2720,3466 2733,3472 2748,3486 2742,3494 2696,3517 2686,3529 2691,3547 2707,3578 2736,3585 2746,3605 2743,3618 2737,3632 2713,3637 2692,3625 2679,3629 2667,3636 2637,3629 2599,3613 2574,3617 2558,3636 2536,3632 2514,3614 2529,3589 2529,3578 2521,3572 2508,3573 2486,3578 2480,3553 2478,3528 2474,3496 2460,3472 2449,3463 2416,3457 2408,3431 2379,3417 2373,3394 2356,3386 2344,3387 2322,3394 2295,3405 2276,3423 2262,3435 2249,3456 2236,3444 2198,3446 2165,3447 2140,3447 2126,3438 2123,3421 2119,3389 2113,3384 2078,3390 2048,3379 2015,3353 1995,3319 1960,3265 1942,3248 1905,3251 1887,3247 1883,3236 1883,3225 1886,3211 1897,3185 1877,3161 1860,3147 1862,3125 1853,3112 1844,3112 1824,3128 1790,3129 1755,3157 1733,3161 1698,3154 1642,3143 1635,3153 1634,3163 1646,3176 1650,3187 1645,3195 1636,3200 1604,3196 1547,3189 1530,3200 1511,3206 1486,3190 1468,3180 1451,3181 1426,3180 1422,3169 1438,3135 1448,3100 1468,3063 1485,3030 1490,3008 1476,2987 1457,2973 1438,2969 1421,2972 1395,2973 1362,2963 1345,2947 1328,2948 1295,2955 1277,2949 1262,2923 1254,2890 1239,2868 1224,2856 1192,2854 1158,2856 1139,2869 1082,2909 1041,2938 1013,2965 1002,2986 1026,3023 998,3039 969,3046 930,3054 898,3045 858,3018 832,2952 813,2946 772,2938 728,2930 695,2918 658,2917 628,2900 637,2874 647,2841 640,2830 596,2804 569,2782 557,2768 617,2719 606,2689 599,2670 593,2655 567,2646 553,2631 534,2630 514,2647 491,2617 437,2582 405,2556 378,2534 338,2513 314,2512 286,2508 286,2504 288,2503 292,2500 293,2496 304,2487 319,2476 322,2473 326,2465 329,2461 332,2454 333,2444 333,2439 333,2434 330,2428 329,2422 321,2412 314,2400 296,2385 291,2379 277,2375 271,2371 265,2367 260,2361 259,2356 257,2349 253,2345 249,2342 245,2339 243,2335 237,2324 232,2317 228,2312 222,2309 218,2307 215,2306 207,2302 204,2299 200,2294 196,2286 194,2280 191,2273 189,2268 182,2261 170,2251 163,2245 155,2236 147,2228 137,2220 128,2213 118,2205 109,2196 99,2187 91,2182 87,2178 83,2174 80,2169 76,2162 69,2155 63,2148 56,2141 51,2134 45,2127 41,2121 37,2117 36,2112 35,2106 35,2099 37,2091 39,2083 39,2078 36,2071 34,2063 33,2057 33,2053 33,2050 33,2042 34,2034 33,2027 32,2022 28,2016 24,2010 22,2005 21,2000 18,1993 15,1989 10,1984 6,1980 5,1977 5,1970 5,1964 3,1959 2,1949 1,1944 0,1938 2,1931 4,1924 8,1916 13,1910 14,1906 16,1904 19,1895 22,1886 26,1876 29,1868 31,1861 36,1853 43,1843 49,1835 55,1827 62,1820 68,1816 72,1812 74,1807 75,1802 75,1799 76,1796 78,1789 84,1781 90,1775 97,1770 102,1764 107,1758 114,1750 122,1744 128,1738 136,1732 145,1726 154,1721 162,1718 165,1717 169,1716 175,1711 180,1708 190,1706 198,1704 205,1701 213,1699 223,1694 228,1691 234,1687 240,1683 248,1678 256,1672 263,1667 268,1661 271,1657 272,1652 272,1649 272,1646 271,1640 270,1637 269,1633 266,1626 262,1619 260,1612 259,1608 258,1602 260,1594 264,1586 267,1582 274,1569 280,1560 285,1551 293,1542 300,1534 307,1524 315,1517 323,1510 332,1502 341,1495 349,1490 358,1485 367,1482 376,1479 386,1477 394,1476 401,1473 411,1467 422,1461 435,1455 445,1449 454,1443 462,1440 467,1438 472,1436 482,1434 490,1432 497,1433 504,1433 509,1434 518,1437 528,1442 537,1446 547,1448 553,1449 557,1450 566,1450 571,1447 574,1446 582,1441 587,1433 592,1424 596,1411 599,1397 604,1383 606,1372 608,1359 609,1349 611,1344 613,1341 617,1340 620,1341 623,1341 628,1343 637,1350 646,1357 652,1364 659,1368 665,1372 672,1373 681,1374 689,1374 705,1373 714,1372 723,1373 730,1374 739,1376 747,1378 756,1379 764,1380 775,1378 788,1375 800,1373 814,1369 824,1366 835,1363 848,1360 861,1357 872,1353 884,1350 897,1347 912,1345 927,1344 941,1344 952,1345 959,1346 962,1347 967,1348 975,1350 983,1350 992,1347 1000,1343 1008,1337 1016,1329 1024,1321 1030,1311 1036,1304 1043,1293 1047,1285 1049,1276 1049,1265 1047,1254 1047,1244 1047,1236 1049,1229 1052,1220 1056,1212 1060,1205 1063,1197 1064,1191 1064,1183 1062,1176 1058,1166 1054,1155 1052,1149 1051,1143 1051,1137 1053,1131 1059,1126 1068,1123 1081,1121 1093,1119 1104,1115 1116,1109 1128,1104 1141,1099 1152,1096 1160,1091 1167,1087 1174,1082 1177,1075 1178,1071 1178,1067 1180,1060 1182,1055 1189,1048 1197,1042 1204,1036 1207,1032 1211,1026 1212,1018 1210,1007 1210,1000 1209,997 1207,991 1207,983 1206,975 1206,969 1203,962 1200,955 1198,949 1200,946 1203,942 1208,936 1214,929 1214,925 1214,920 1214,914 1212,907 1209,900 1208,893 1208,885 1210,879 1213,873 1218,867 1219,864 1226,858 1234,853 1244,852 1254,848 1264,845 1276,842 1288,838 1300,833 1310,826 1317,819 1322,812 1325,802 1325,792 1325,784 1326,779 1330,773 1337,764 1344,753 1351,743 1358,733 1363,724 1368,714 1373,705 1375,698 1376,688 1377,679 1377,670 1379,663 1380,659 1386,652 1395,645 1404,639 1411,633 1416,627 1419,618 1421,610 1424,605 1428,598 1432,592 1435,583 1439,574 1443,568 1447,562 1453,558 1459,556 1469,556 1479,556 1495,556 1502,556 1508,552 1519,547 1526,544 1534,542 1542,540 1546,537 1548,528 1550,519 1552,511 1556,505 1563,501 1571,494 1580,491 1587,489 1594,486 1604,479 1615,473 1623,468 1631,464 1639,464 1648,465 1656,466 1664,463 1670,457 1676,450 1679,442 1682,435 1684,425 1684,417 1685,411 1688,406 1692,401 1700,395 1707,387 1713,380 1720,370 1729,361 1740,351 1750,339 1758,330 1766,320 1772,310 1775,302 1780,295 1786,291 1794,286 1801,283 1808,275 1812,265 1817,257 1823,248 1828,242 1835,235 1844,228 1853,221 1863,214 1877,208 1886,204 1895,200 1904,194 1913,185 1920,178 1928,172 1935,168 1946,164 1954,163 1961,164 1965,165 1972,165 1982,169 1990,170 2001,174 2011,179 2022,184 2033,189 2046,191 2055,192 2065,191 2074,185 2082,178 2092,165 2102,154 2108,146 2116,138 2124,132 2134,128 2146,125 2158,123 2166,121 2207,186 2208,215 2213,236 2221,235 2228,225 2230,216 2249,216 2256,230 2267,235 2274,230 2284,221 2295,231 2307,254 2321,278 2350,302 2377,298 2414,262 2431,261 2468,275 2560,272 2653,237 2679,208 2696,170 2724,139 2747,125 2774,117 2804,91 2830,79 2835,114 2864,151 2887,145 2918,106 2940,102 2971,102 3022,81 3039,84 3045,106 3049,126 3067,134 3094,146 3103,152 3104,171 3138,178 3143,183 3133,214 3131,220 3151,238 3155,260 3156,275 3170,288 3193,287 3215,286 3226,293 3230,319 3242,331 3262,331 3275,341 3287,349 3299,350 3309,353 3309,367 3292,374 3279,383 3269,397 3260,429 3242,444 3201,425 3188,426 3180,432 3178,446 3196,448 3201,453 3182,482 3160,502 3171,525 3162,552 3167,570 3187,579 3207,577 3233,548 3297,539 3302,558 3307,576 3326,585 3360,587 3377,584 3405,560 3429,533 3447,531 3471,544 3484,551 3501,566 3520,568 3541,585 3559,622 3579,635 3624,631 3658,583 3675,579 3688,588 3705,587 3735,584 3767,566 3788,573 3820,551 3878,547 3880,531 3843,476 3891,475 3916,462 3946,467 3973,477 3998,471 4013,458 4043,474 4073,478 4106,479 4130,465 4139,445 4173,457 4189,456 4210,444 4224,422 4223,399 4205,380 4175,357 4171,347 4193,338 4208,314 4222,296 4234,266 4246,247 4280,233 4316,217 4349,205 4377,197 4394,184 4395,169 4416,164 4455,170 4480,192 4526,170 4560,163 4583,160 4621,161 4650,162 4687,172 4710,183 4741,191 4756,189 4763,184 4765,172 4762,156 4739,119 4743,114 4764,116 4822,110 4851,108 4878,97 4897,82 4912,65 4922,44 4947,-1 4956,1 " class="polyStyle" id="532626" style="fill:#d4ecb2"/>
<path d="" class="polyStyle" id="451224" style="fill:#fbe6ef"/>
<path d="" class="polyStyle" id="350627" style="fill:#f6f67b"/>
<path d="" class="polyStyle" id="" style="fill:#f6f67b"/>
<path d="" class="polyStyle" id="350525" style="fill:#f6f67b"/>
<path d="" class="polyStyle" id="530124" style="fill:#ee8b94"/>
<path d="" class="polyStyle" id="522627" style="fill:#ee8b94"/>
<path d="" class="polyStyle" id="510421" style="fill:#fbe6ef"/>
<path d="" class="polyStyle" id="522623" style="fill:#d4ecb2"/>
<path d="" class="polyStyle" id="430321" style="fill:#d4ecb2"/>
<path d="" class="polyStyle" id="511129" style="fill:#d4ecb2"/>
<path d="" class="polyStyle" id="511423" style="fill:#ee8b94"/>
<path d="" class="polyStyle" id="421023" style="fill:#f6f67b"/>
<path d="" class="polyStyle" id="511724" style="fill:#f6f67b"/>
<path d="" class="polyStyle" id="420526" style="fill:#fbe6ef"/>
<path d="" class="polyStyle" id="511923" style="fill:#fbe6ef"/>
<path d="" class="polyStyle" id="420325" style="fill:#fbe6ef"/>
<path d="" class="polyStyle" id="511921" style="fill:#f6f67b"/>
<path d="" class="polyStyle" id="542525" style="fill:#f6f67b"/>
<path d="" class="polyStyle" id="611026" style="fill:#ee8b94"/>
<path d="" class="polyStyle" id="411023" style="fill:#fbe6ef"/>
<path d="" class="polyStyle" id="632323" style="fill:#f6f67b"/>
<path d="" class="polyStyle" id="140525" style="fill:#d4ecb2"/>
<path d="" class="polyStyle" id="410922" style="fill:#ee8b94"/>
<path d="" class="polyStyle" id="621027" style="fill:#ee8b94"/>
<path d="" class="polyStyle" id="130427" style="fill:#f6f67b"/>
<path d="" class="polyStyle" id="130121" style="fill:#ee8b94"/>
<path d="" class="polyStyle" id="610823" style="fill:#fbe6ef"/>
<path d="" class="polyStyle" id="130225" style="fill:#fbe6ef"/>
<path d="" class="polyStyle" id="130322" style="fill:#d4ecb2"/>
<path d="" class="polyStyle" id="653130" style="fill:#f6f67b"/>
<path d="" class="polyStyle" id="130822" style="fill:#fbe6ef"/>
<path d="" class="polyStyle" id="211221" style="fill:#f6f67b"/>
<path d="" class="polyStyle" id="210921" style="fill:#f6f67b"/>
<path d="" class="polyStyle" id="150223" style="fill:#f8c67d"/>
<path d="" class="polyStyle" id="220422" style="fill:#d4ecb2"/>
<path d="" class="polyStyle" id="340721" style="fill:#f6f67b"/>
<path d="" class="polyStyle" id="510824" style="fill:#d4ecb2"/>
<path d="" class="polyStyle" id="610324" style="fill:#f6f67b"/>
<path d="" class="polyStyle" id="530722" style="fill:#ee8b94"/>
<path d="" class="polyStyle" id="340823" style="fill:#d4ecb2"/>
<path d="" class="polyStyle" id="620825" style="fill:#d4ecb2"/>
<path d="" class="polyStyle" id="421125" style="fill:#ee8b94"/>
<path d="" class="polyStyle" id="210281" style="fill:#ee8b94"/>
<path d="" class="polyStyle" id="440883" style="fill:#f6f67b"/>
<path d="" class="polyStyle" id="469006" style="fill:#d4ecb2"/>
<path d="" class="polyStyle" id="469002" style="fill:#ee8b94"/>
<path d="" class="polyStyle" id="469005" style="fill:#fbe6ef"/>
<path d="" class="polyStyle" id="440882" style="fill:#ee8b94"/>
<path d="" class="polyStyle" id="450681" style="fill:#ee8b94"/>
<path d="" class="polyStyle" id="441581" style="fill:#d4ecb2"/>
<polygon points="2471,3826 2501,3823 2517,3833 2535,3856 2550,3888 2586,3889 2616,3908 2649,3917 2678,3926 2698,3955 2736,3989 2773,4010 2807,4028 2833,4055 2852,4094 2865,4141 2871,4167 2900,4179 2910,4179 2924,4174 2937,4175 2952,4186 2965,4187 2980,4183 2997,4183 3012,4193 3039,4203 3052,4219 3051,4239 3049,4263 3043,4272 3077,4272 3092,4264 3102,4271 3110,4287 3123,4297 3139,4292 3146,4306 3153,4317 3182,4321 3194,4326 3194,4339 3176,4366 3174,4378 3187,4404 3185,4427 3166,4443 3158,4449 3153,4459 3146,4469 3153,4483 3161,4486 3188,4496 3195,4506 3184,4532 3180,4549 3194,4557 3200,4563 3197,4576 3188,4593 3169,4596 3154,4605 3157,4615 3172,4634 3178,4679 3164,4690 3144,4693 3102,4702 3086,4739 3066,4766 3042,4795 3062,4828 3078,4837 3091,4844 3086,4876 3090,4884 3105,4885 3129,4883 3150,4884 3163,4905 3174,4916 3179,4922 3198,4920 3215,4922 3223,4927 3234,4943 3246,4944 3261,4938 3277,4941 3293,4971 3302,4973 3322,4961 3356,4944 3396,4960 3436,4949 3474,4922 3512,4924 3540,4925 3579,4948 3615,4969 3640,4968 3689,4976 3725,4975 3773,4962 3811,4963 3816,4988 3825,5018 3834,5024 3847,5007 3870,5008 3903,5047 3931,5068 3938,5102 3962,5134 3937,5175 3893,5202 3865,5195 3867,5214 3882,5226 3893,5226 3925,5209 3948,5231 3986,5225 3999,5233 3998,5256 3980,5287 3987,5302 4003,5308 4033,5336 4044,5351 4034,5393 4012,5433 3996,5437 3990,5423 3982,5428 3987,5445 3982,5452 3968,5452 3961,5462 3964,5470 3984,5475 3992,5496 3984,5513 3987,5522 3997,5522 4009,5516 4016,5520 4022,5540 4043,5543 4044,5576 4055,5586 4071,5592 4073,5600 4059,5604 4055,5618 4060,5631 4074,5630 4104,5605 4120,5613 4137,5631 4175,5622 4199,5653 4203,5662 4221,5702 4227,5709 4241,5707 4255,5732 4264,5748 4254,5766 4254,5784 4288,5816 4294,5821 4299,5828 4304,5836 4305,5841 4305,5846 4302,5855 4277,5878 4257,5904 4247,5926 4238,5954 4226,5976 4194,5992 4147,5998 4136,6010 4101,6026 4056,6024 4026,6025 4003,6022 3994,6024 3998,6053 4020,6085 4049,6100 4087,6108 4117,6121 4145,6132 4174,6129 4202,6146 4227,6165 4254,6172 4260,6178 4255,6181 4243,6193 4235,6230 4229,6237 4215,6248 4193,6267 4190,6281 4197,6286 4211,6295 4214,6301 4204,6312 4184,6318 4161,6326 4152,6343 4141,6376 4148,6396 4144,6399 4131,6399 4126,6403 4124,6427 4108,6427 4076,6440 4087,6457 4083,6467 4057,6483 4032,6491 4003,6493 3989,6500 3987,6510 3994,6531 3982,6538 3945,6555 3896,6561 3874,6568 3847,6604 3828,6611 3817,6612 3802,6612 3788,6618 3778,6628 3774,6637 3776,6649 3778,6658 3750,6663 3746,6673 3751,6693 3703,6710 3689,6710 3671,6697 3653,6711 3619,6723 3594,6731 3578,6729 3566,6728 3556,6727 3537,6728 3527,6731 3522,6743 3511,6762 3485,6771 3465,6775 3443,6780 3440,6769 3443,6719 3435,6712 3435,6695 3425,6691 3420,6685 3415,6678 3406,6678 3387,6690 3376,6702 3357,6712 3334,6714 3320,6705 3309,6704 3302,6717 3285,6735 3256,6719 3214,6685 3182,6678 3142,6676 3105,6684 3077,6686 3047,6691 3013,6696 2989,6696 2949,6703 2929,6732 2884,6753 2879,6771 2841,6775 2789,6787 2779,6775 2778,6749 2770,6740 2754,6735 2724,6735 2707,6738 2686,6739 2666,6727 2655,6730 2638,6742 2619,6728 2605,6672 2593,6654 2559,6652 2514,6659 2493,6656 2472,6639 2447,6626 2423,6635 2410,6650 2400,6648 2394,6643 2378,6623 2364,6645 2344,6685 2319,6700 2275,6703 2259,6707 2231,6720 2204,6745 2169,6769 2141,6795 2129,6832 2103,6856 2072,6859 2047,6865 2020,6880 1994,6886 1941,6892 1915,6899 1882,6902 1855,6912 1814,6875 1814,6844 1815,6801 1812,6772 1816,6745 1824,6710 1828,6680 1832,6653 1811,6621 1785,6597 1774,6571 1769,6543 1753,6515 1733,6489 1704,6462 1693,6435 1692,6410 1669,6377 1671,6348 1676,6322 1679,6296 1681,6263 1682,6222 1695,6197 1721,6175 1747,6162 1778,6133 1798,6101 1799,6070 1783,6043 1760,6016 1749,5990 1735,5954 1726,5929 1713,5904 1688,5873 1684,5846 1655,5813 1628,5797 1601,5790 1570,5772 1550,5746 1525,5724 1493,5720 1458,5715 1432,5707 1406,5706 1379,5690 1349,5673 1318,5650 1295,5610 1266,5607 1239,5622 1226,5645 1202,5674 1189,5648 1166,5577 1184,5546 1203,5513 1196,5428 1182,5391 1161,5365 1146,5343 1149,5328 1169,5312 1234,5276 1219,5255 1222,5225 1205,5195 1173,5168 1139,5151 1123,5139 1132,5124 1165,5095 1181,5043 1179,5019 1148,5014 1120,5019 1090,5020 1076,5011 1069,4998 1076,4975 1086,4971 1106,4936 1132,4907 1130,4901 1122,4898 1110,4902 1098,4913 1073,4900 1054,4913 1041,4916 1028,4911 1012,4893 1000,4872 983,4862 952,4869 925,4883 900,4896 884,4894 862,4885 828,4902 811,4906 792,4909 784,4906 784,4897 797,4890 802,4886 804,4840 806,4829 801,4816 785,4805 733,4785 725,4774 725,4761 737,4753 801,4727 822,4692 847,4692 867,4691 869,4682 867,4675 860,4672 855,4671 850,4650 851,4636 855,4629 865,4627 882,4621 903,4626 929,4630 946,4619 956,4607 985,4594 982,4561 1002,4546 1050,4508 1051,4496 1038,4480 1040,4468 1053,4454 1053,4429 1058,4413 1066,4402 1088,4385 1120,4356 1148,4324 1152,4292 1144,4283 1114,4294 1105,4290 1104,4277 1118,4249 1102,4233 1119,4207 1133,4193 1157,4186 1174,4192 1197,4188 1221,4196 1248,4179 1268,4178 1283,4188 1302,4184 1335,4195 1352,4193 1369,4182 1377,4164 1381,4136 1376,4107 1371,4065 1370,4051 1373,4027 1387,4024 1399,4028 1423,4028 1440,4028 1464,4039 1479,4056 1502,4063 1531,4075 1570,4093 1584,4111 1599,4120 1614,4108 1627,4087 1647,4062 1686,4057 1734,4049 1745,4031 1758,4038 1764,4046 1781,4048 1788,4041 1802,4005 1821,3977 1819,3961 1830,3944 1850,3937 1876,3938 1884,3950 1901,3950 1913,3936 1912,3910 1918,3905 1929,3911 1933,3915 1945,3928 1949,3954 1965,3951 1976,3955 1982,3970 1989,3968 1995,3956 2000,3947 2008,3948 2023,3968 2039,3967 2066,3957 2106,3946 2133,3950 2147,3960 2174,3975 2214,4002 2223,4001 2225,3990 2227,3964 2242,3952 2247,3927 2231,3889 2221,3879 2220,3865 2230,3854 2251,3851 2267,3859 2305,3863 2321,3860 2320,3834 2344,3834 2354,3841 2367,3828 2384,3800 2398,3801 2413,3812 2432,3803 2443,3798 2455,3810 " class="polyStyle" id="532621" style="fill:#f6f67b"/>
<path d="" class="polyStyle" id="421087" style="fill:#ee8b94"/>
<path d="" class="polyStyle" id="420984" style="fill:#fbe6ef"/>
<path d="" class="polyStyle" id="420582" style="fill:#ee8b94"/>
<path d="" class="polyStyle" id="370282" style="fill:#f6f67b"/>
<path d="" class="polyStyle" id="371083" style="fill:#f6f67b"/>
<path d="" class="polyStyle" id="371082" style="fill:#fbe6ef"/>
<path d="" class="polyStyle" id="652801" style="fill:#f8c67d"/>
<path d="" class="polyStyle" id="654301" style="fill:#ee8b94"/>
<path d="" class="polyStyle" id="370687" style="fill:#ee8b94"/>
<path d="" class="polyStyle" id="371482" style="fill:#d4ecb2"/>
<path d="" class="polyStyle" id="421081" style="fill:#fbe6ef"/>
<path d="" class="polyStyle" id="429006" style="fill:#f6f67b"/>
<path d="" class="polyStyle" id="440982" style="fill:#d4ecb2"/>
<path d="" class="polyStyle" id="421181" style="fill:#d4ecb2"/>
<path d="" class="polyStyle" id="321181" style="fill:#d4ecb2"/>
<path d="" class="polyStyle" id="659007" style="fill:#ee8b94"/>
<path d="" class="polyStyle" id="652701" style="fill:#fbe6ef"/>
<path d="" class="polyStyle" id="210781" style="fill:#fbe6ef"/>
<path d="" class="polyStyle" id="460204" style="fill:#f6f67b"/>
<path d="" class="polyStyle" id="210211" style="fill:#f6f67b"/>
<path d="" class="polyStyle" id="450512" style="fill:#ee8b94"/>
<path d="" class="polyStyle" id="450602" style="fill:#fbe6ef"/>
<path d="" class="polyStyle" id="440404" style="fill:#ee8b94"/>
<path d="" class="polyStyle" id="440403" style="fill:#f6f67b"/>
<path d="" class="polyStyle" id="441502" style="fill:#f6f67b"/>
<path d="" class="polyStyle" id="431002" style="fill:#d4ecb2"/>
<path d="" class="polyStyle" id="500107" style="fill:#fbe6ef"/>
<path d="" class="polyStyle" id="430611" style="fill:#d4ecb2"/>
<path d="" class="polyStyle" id="511304" style="fill:#fbe6ef"/>
<path d="" class="polyStyle" id="340711" style="fill:#ee8b94"/>
<path d="" class="polyStyle" id="320118" style="fill:#f6f67b"/>
<path d="" class="polyStyle" id="510704" style="fill:#f6f67b"/>
<path d="" class="polyStyle" id="411502" style="fill:#ee8b94"/>
<path d="" class="polyStyle" id="320302" style="fill:#d4ecb2"/>
<path d="" class="polyStyle" id="140311" style="fill:#ee8b94"/>
<path d="" class="polyStyle" id="610802" style="fill:#ee8b94"/>
<path d="" class="polyStyle" id="120116" style="fill:#f6f67b"/>
<path d="" class="polyStyle" id="130303" style="fill:#fbe6ef"/>
<path d="" class="polyStyle" id="140211" style="fill:#f6f67b"/>
<path d="" class="polyStyle" id="150207" style="fill:#fbe6ef"/>
<path d="" class="polyStyle" id="211403" style="fill:#f6f67b"/>
<path d="" class="polyStyle" id="150802" style="fill:#f8c67d"/>
<path d="" class="polyStyle" id="210112" style="fill:#ee8b94"/>
<path d="" class="polyStyle" id="230406" style="fill:#d4ecb2"/>
<path d="" class="polyStyle" id="110113" style="fill:#fbe6ef"/>
<path d="" class="polyStyle" id="341702" style="fill:#fbe6ef"/>
<path d="" class="polyStyle" id="420303" style="fill:#ee8b94"/>
<path d="" class="polyStyle" id="340702" style="fill:#d4ecb2"/>
<path d="" class="polyStyle" id="421002" style="fill:#f6f67b"/>
<path d="" class="polyStyle" id="420117" style="fill:#f6f67b"/>
<path d="" class="polyStyle" id="440904" style="fill:#f8c67d"/>
<path d="" class="polyStyle" id="460205" style="fill:#ee8b94"/>
<path d="" class="polyStyle" id="460202" style="fill:#f6f67b"/>
<path d="" class="polyStyle" id="460203" style="fill:#fbe6ef"/>
<path d="" class="polyStyle" id="420304" style="fill:#f6f67b"/>
<path d="" class="polyStyle" id="445302" style="fill:#ee8b94"/>
<path d="" class="polyStyle" id="410202" style="fill:#d4ecb2"/>
<path d="" class="polyStyle" id="440800" style="fill:#f6f67b"/>
<path d="" class="polyStyle" id="440900" style="fill:#ee8b94"/>
<path d="" class="polyStyle" id="340800" style="fill:#ee8b94"/>
<path d="" class="polyStyle" id="460200" style="fill:#f6f67b"/>
<path d="" class="polyStyle" id="460000" style="fill:#ee8b94"/>
<path d="" class="polyStyle" id="450500" style="fill:#ee8b94"/>
<path d="" class="polyStyle" id="450600" style="fill:#ee8b94"/>
<path d="" class="polyStyle" id="440400" style="fill:#f6f67b"/>
<path d="" class="polyStyle" id="441700" style="fill:#f6f67b"/>
<path d="" class="polyStyle" id="441500" style="fill:#f6f67b"/>
<path d="" class="polyStyle" id="350600" style="fill:#ee8b94"/>
<path d="" class="polyStyle" id="710000" style="fill:#f6f67b"/>
<path d="" class="polyStyle" id="510400" style="fill:#f6f67b"/>
<path d="" class="polyStyle" id="522600" style="fill:#fbe6ef"/>
<path d="" class="polyStyle" id="520500" style="fill:#ee8b94"/>
<path d="" class="polyStyle" id="431200" style="fill:#f6f67b"/>
<path d="" class="polyStyle" id="430600" style="fill:#f6f67b"/>
<path d="" class="polyStyle" id="511400" style="fill:#d4ecb2"/>
<path d="" class="polyStyle" id="421000" style="fill:#ee8b94"/>
<path d="" class="polyStyle" id="341700" style="fill:#f6f67b"/>
<path d="" class="polyStyle" id="420500" style="fill:#f6f67b"/>
<path d="" class="polyStyle" id="511300" style="fill:#f6f67b"/>
<path d="" class="polyStyle" id="420900" style="fill:#f6f67b"/>
<path d="" class="polyStyle" id="511700" style="fill:#ee8b94"/>
<path d="" class="polyStyle" id="420600" style="fill:#d4ecb2"/>
<path d="" class="polyStyle" id="411500" style="fill:#fbe6ef"/>
<path d="" class="polyStyle" id="510800" style="fill:#ee8b94"/>
<path d="" class="polyStyle" id="420300" style="fill:#fbe6ef"/>
<path d="" class="polyStyle" id="611000" style="fill:#ee8b94"/>
<path d="" class="polyStyle" id="620800" style="fill:#fbe6ef"/>
<path d="" class="polyStyle" id="370200" style="fill:#ee8b94"/>
<path d="" class="polyStyle" id="371000" style="fill:#f6f67b"/>
<path d="" class="polyStyle" id="370600" style="fill:#fbe6ef"/>
<path d="" class="polyStyle" id="120000" style="fill:#f6f67b"/>
<path d="" class="polyStyle" id="130200" style="fill:#ee8b94"/>
<path d="" class="polyStyle" id="130300" style="fill:#f6f67b"/>
<path d="" class="polyStyle" id="652900" style="fill:#fbe6ef"/>
<path d="" class="polyStyle" id="150500" style="fill:#d4ecb2"/>
<path d="" class="polyStyle" id="" style="fill:#d4ecb2"/>
<path d="" class="polyStyle" id="350500" style="fill:#fbe6ef"/>
<path d="" class="polyStyle" id="440400" style="fill:#f6f67b"/>
<path d="" class="polyStyle" id="421100" style="fill:#d4ecb2"/>
<path d="" class="polyStyle" id="420100" style="fill:#fbe6ef"/>
<path d="" class="polyStyle" id="532500" style="fill:#fbe6ef"/>
<path d="" class="polyStyle" id="654200" style="fill:#fbe6ef"/>
<path d="" class="polyStyle" id="210700" style="fill:#d4ecb2"/>
<path d="" class="polyStyle" id="522300" style="fill:#fbe6ef"/>
<path d="" class="polyStyle" id="" style="fill:#ee8b94"/>
<path d="" class="polyStyle" id="440400" style="fill:#f6f67b"/>
<path d="" class="polyStyle" id="620000" style="fill:#f6f67b"/>
<path d="" class="polyStyle" id="430000" style="fill:#fbe6ef"/>
<path d="" class="polyStyle" id="420000" style="fill:#ee8b94"/>
<path d="" class="polyStyle" id="410000" style="fill:#f6f67b"/>
<path d="" class="polyStyle" id="350000" style="fill:#fbe6ef"/>
<path d="" class="polyStyle" id="520000" style="fill:#f6f67b"/>
<path d="" class="polyStyle" id="" style="fill:#ee8b94"/>
</svg>
