<?xml version="1.0" encoding="UTF-8"?>
<!DOCTYPE svg PUBLIC "-//W3C//DTD SVG 1.1 Tiny//EN" "http://www.w3.org/Graphics/SVG/1.1/DTD/svg11-tiny.dtd">
<svg version="1.1" xmlns="http://www.w3.org/2000/svg" xmlns:xlink="http://www.w3.org/1999/xlink" width="100%" height="100%" viewBox="0,0,9495,7250">
<title>SVG</title>
<desc>Poligon Test</desc>
<style id="style_css_sheet" type="text/css">
.polyStyle{fill: #cccccc;stroke-width:0;fill-rule:evenodd;}
</style>
<circle cx="4271" cy="2881" r="200" stroke="black" stroke-width="1" fill="red" id="532801" name="景洪市"/>
<circle cx="2519" cy="3163" r="200" stroke="black" stroke-width="1" fill="red" id="532822"position="4444" name="勐海县"/>
<circle cx="8087" cy="5547" r="200" stroke="black" stroke-width="1" fill="red" id="532823"position="4114" name="勐腊县"/>
<path d="" class="polyStyle" id="" style="fill:#ee8b94"/>
<path d="" class="polyStyle" id="623022" style="fill:#fbe6ef"/>
<path d="" class="polyStyle" id="211421" style="fill:#f6f67b"/>
<path d="" class="polyStyle" id="532524" style="fill:#ee8b94"/>
<path d="" class="polyStyle" id="440825" style="fill:#f6f67b"/>
<path d="" class="polyStyle" id="441721" style="fill:#f6f67b"/>
<path d="" class="polyStyle" id="450521" style="fill:#f6f67b"/>
<polygon points="7875,981 7903,997 7925,1031 7955,1042 7983,1050 8015,1063 8045,1094 8077,1081 8083,1108 8085,1147 8073,1175 8047,1193 8049,1238 8026,1250 8022,1269 8047,1285 8075,1281 8082,1283 8149,1267 8173,1269 8193,1271 8206,1298 8232,1293 8254,1264 8287,1259 8313,1243 8401,1256 8453,1267 8488,1270 8525,1268 8531,1268 8531,1291 8516,1327 8488,1367 8456,1392 8445,1415 8424,1458 8419,1491 8424,1522 8413,1560 8381,1587 8342,1593 8312,1600 8286,1606 8245,1615 8217,1604 8185,1594 8147,1587 8118,1586 8109,1617 8057,1713 8029,1793 8045,1821 8085,1841 8113,1864 8129,1897 8133,1930 8136,1971 8156,1997 8176,2025 8226,2094 8234,2124 8259,2147 8266,2225 8264,2261 8275,2289 8269,2317 8235,2316 8204,2318 8175,2325 8154,2350 8162,2403 8221,2480 8231,2507 8255,2558 8312,2664 8339,2691 8344,2721 8365,2782 8369,2812 8383,2843 8416,2887 8411,2921 8374,2940 8371,2959 8372,2983 8370,3026 8354,3073 8322,3080 8302,3108 8328,3107 8377,3106 8426,3127 8472,3163 8496,3179 8577,3243 8621,3285 8666,3274 8700,3237 8728,3217 8757,3223 8779,3265 8797,3318 8806,3349 8787,3391 8769,3423 8767,3453 8800,3483 8826,3526 8853,3541 8887,3549 8931,3568 8954,3576 8973,3598 8964,3642 8964,3696 8992,3736 9049,3769 9100,3780 9147,3782 9187,3820 9174,3857 9139,3888 9135,3937 9125,3978 9104,4004 9079,4036 9072,4086 9081,4131 9069,4160 9040,4188 9012,4199 9007,4249 9010,4275 9022,4328 9056,4332 9093,4360 9130,4395 9138,4434 9126,4470 9146,4511 9146,4539 9141,4588 9138,4631 9136,4657 9156,4681 9171,4700 9178,4724 9188,4762 9214,4767 9245,4734 9276,4730 9311,4725 9337,4745 9331,4795 9349,4826 9385,4823 9411,4813 9449,4828 9448,4872 9424,4922 9406,4978 9394,5005 9376,5025 9350,5042 9321,5056 9293,5074 9244,5070 9217,5073 9163,5063 9137,5052 9111,5030 9077,5035 9051,5037 9021,5064 9020,5112 9044,5141 9076,5150 9078,5181 9051,5234 9073,5281 9104,5320 9148,5351 9160,5390 9111,5406 9090,5453 9049,5481 9006,5513 8983,5532 8979,5543 8977,5568 8990,5597 9005,5642 9034,5691 9045,5720 9050,5752 9032,5778 9005,5797 9005,5835 9005,5866 9002,5877 8993,5893 8979,5914 8969,5955 8970,5987 8982,6038 8992,6071 8980,6114 8956,6150 8917,6180 8922,6224 8933,6271 8946,6310 8965,6362 8984,6398 9018,6448 9065,6497 9098,6514 9156,6505 9191,6520 9251,6499 9269,6506 9274,6529 9285,6557 9286,6582 9306,6623 9328,6648 9365,6661 9395,6659 9429,6660 9470,6668 9495,6677 9487,6704 9472,6742 9461,6766 9462,6809 9465,6837 9483,6874 9481,6944 9451,6952 9399,6933 9371,6932 9325,6910 9297,6908 9250,6941 9219,6949 9211,6977 9206,7006 9211,7038 9206,7077 9181,7127 9148,7165 9099,7232 9067,7246 9054,7246 9026,7247 8986,7250 8957,7246 8920,7246 8884,7244 8859,7238 8824,7227 8790,7214 8756,7192 8774,7164 8781,7119 8766,7090 8730,7086 8693,7054 8689,7019 8660,6994 8660,6953 8628,6939 8595,6946 8548,6969 8507,6981 8471,6970 8446,6966 8412,6991 8380,7024 8360,7053 8324,7076 8274,7074 8249,7054 8218,7023 8225,6996 8246,6953 8276,6913 8298,6882 8315,6850 8337,6822 8328,6792 8302,6772 8260,6768 8234,6759 8202,6753 8156,6739 8130,6724 8084,6710 8033,6700 8001,6702 7950,6691 7915,6694 7880,6711 7835,6715 7809,6716 7778,6715 7737,6713 7708,6720 7666,6752 7622,6765 7587,6786 7564,6812 7529,6819 7493,6815 7466,6811 7437,6813 7402,6815 7345,6819 7297,6820 7266,6811 7233,6813 7194,6824 7167,6836 7136,6847 7112,6865 7087,6894 7056,6916 7018,6936 6978,6961 6942,6982 6898,7004 6847,6994 6818,7006 6781,7051 6745,7076 6704,7049 6663,7014 6645,6989 6619,6978 6594,6970 6552,6967 6527,6952 6507,6926 6503,6904 6482,6872 6446,6848 6421,6833 6398,6822 6369,6807 6354,6774 6384,6758 6400,6732 6401,6705 6413,6668 6439,6660 6450,6628 6475,6596 6495,6573 6515,6545 6517,6515 6518,6473 6499,6437 6485,6425 6433,6413 6399,6407 6354,6398 6326,6384 6306,6367 6282,6348 6257,6329 6229,6298 6186,6291 6177,6246 6190,6211 6170,6185 6137,6156 6109,6129 6093,6095 6078,6064 6055,6026 6033,6002 6005,5963 5985,5909 6013,5887 6079,5882 6124,5889 6173,5885 6210,5861 6234,5836 6249,5817 6255,5785 6248,5757 6241,5740 6233,5709 6231,5680 6230,5638 6232,5584 6251,5539 6300,5484 6347,5451 6351,5432 6314,5435 6309,5401 6308,5371 6302,5329 6329,5297 6343,5266 6325,5240 6332,5193 6323,5156 6296,5166 6255,5162 6216,5178 6171,5169 6146,5149 6107,5150 6063,5143 6034,5145 6001,5139 5989,5128 5977,5112 5973,5105 5972,5098 5972,5090 5972,5085 5975,5076 5994,5034 6001,5019 6007,5013 6015,5007 6029,5002 6039,5000 6079,4997 6094,4998 6104,4997 6110,4994 6118,4987 6122,4981 6130,4960 6133,4949 6133,4941 6131,4935 6119,4916 6102,4890 6091,4869 6085,4849 6079,4817 6078,4799 6078,4794 6080,4788 6090,4771 6092,4765 6092,4762 6088,4751 6080,4728 6074,4716 6067,4710 6061,4708 6046,4704 6042,4703 6038,4698 6035,4692 6031,4680 6029,4670 6030,4664 6036,4651 6040,4636 6041,4632 6041,4609 6036,4603 6028,4599 6021,4598 6014,4597 6011,4596 6005,4596 5994,4594 5983,4591 5979,4589 5963,4584 5958,4581 5954,4578 5949,4573 5937,4558 5920,4540 5914,4532 5914,4528 5914,4516 5912,4507 5908,4504 5895,4504 5871,4504 5865,4502 5862,4498 5862,4492 5862,4488 5863,4479 5866,4469 5871,4452 5875,4431 5876,4424 5877,4404 5875,4392 5875,4389 5876,4385 5876,4372 5875,4360 5874,4356 5869,4336 5861,4308 5857,4291 5855,4286 5852,4279 5849,4268 5844,4239 5841,4231 5837,4221 5836,4218 5832,4205 5831,4185 5832,4178 5833,4170 5835,4164 5840,4149 5846,4135 5847,4131 5851,4124 5858,4114 5867,4104 5884,4086 5887,4085 5917,4074 5944,4066 5977,4058 6005,4054 6033,4050 6062,4051 6088,4052 6120,4025 6145,3997 6170,3971 6178,3945 6166,3912 6138,3882 6080,3878 6108,3817 6117,3789 6123,3760 6119,3683 6093,3662 6074,3623 6074,3591 6094,3560 6089,3545 6070,3527 6060,3518 6062,3508 6079,3500 6092,3497 6106,3489 6109,3476 6099,3465 6033,3456 6034,3445 6035,3437 6038,3425 6046,3415 6061,3401 6082,3394 6095,3395 6122,3408 6153,3403 6160,3419 6191,3429 6207,3424 6235,3401 6249,3387 6249,3371 6254,3357 6251,3345 6258,3320 6249,3298 6228,3294 6194,3305 6177,3291 6149,3287 6156,3263 6168,3241 6185,3217 6209,3210 6246,3216 6259,3211 6261,3184 6268,3165 6301,3157 6334,3170 6380,3166 6416,3141 6448,3130 6464,3147 6475,3151 6499,3125 6528,3097 6571,3059 6580,3031 6557,2991 6532,2970 6495,2942 6466,2918 6422,2890 6403,2864 6391,2851 6372,2829 6326,2832 6316,2825 6305,2801 6287,2801 6278,2813 6265,2824 6252,2821 6239,2815 6204,2752 6194,2717 6159,2687 6127,2680 6098,2662 6078,2636 6039,2625 6001,2613 5972,2591 5943,2576 5941,2567 5972,2531 5979,2504 5978,2470 5987,2439 5981,2429 5914,2432 5889,2414 5873,2373 5858,2334 5814,2332 5771,2327 5752,2318 5752,2309 5843,2297 5850,2286 5845,2275 5847,2249 5849,2219 5866,2191 5900,2152 5932,2153 5967,2156 6010,2167 6045,2149 6058,2129 6064,2116 6073,2108 6095,2093 6103,2065 6128,2016 6157,1991 6170,2005 6187,2007 6223,1967 6234,1966 6244,1961 6275,1932 6283,1926 6295,1880 6298,1858 6308,1832 6327,1812 6339,1810 6350,1810 6409,1788 6414,1771 6426,1745 6425,1716 6441,1682 6470,1659 6506,1644 6533,1637 6551,1609 6580,1597 6619,1609 6651,1601 6667,1572 6670,1537 6664,1508 6665,1503 6667,1500 6704,1461 6708,1454 6716,1436 6722,1428 6742,1408 6744,1403 6749,1399 6754,1390 6757,1383 6769,1365 6775,1356 6783,1343 6786,1340 6797,1329 6811,1320 6817,1315 6819,1312 6815,1301 6815,1294 6818,1289 6831,1281 6838,1277 6843,1275 6853,1274 6867,1263 6881,1255 6890,1248 6903,1242 6909,1239 6914,1237 6923,1229 6933,1222 6938,1219 6952,1209 6955,1208 6958,1207 6965,1204 6967,1203 6972,1200 6978,1197 6992,1187 7002,1179 7016,1174 7030,1166 7042,1159 7050,1156 7057,1155 7062,1155 7073,1157 7077,1155 7090,1145 7096,1141 7101,1140 7106,1140 7110,1142 7125,1149 7131,1150 7135,1150 7155,1139 7161,1137 7176,1137 7183,1134 7195,1125 7200,1123 7204,1122 7216,1120 7225,1118 7232,1115 7237,1114 7242,1113 7270,1113 7276,1114 7297,1122 7304,1123 7309,1120 7314,1114 7319,1106 7324,1099 7335,1088 7339,1086 7344,1085 7348,1085 7364,1087 7373,1088 7382,1086 7388,1085 7397,1084 7412,1086 7438,1094 7471,1100 7479,1102 7491,1103 7499,1102 7504,1101 7508,1098 7517,1089 7525,1077 7529,1073 7533,1072 7536,1072 7597,1072 7602,1068 7602,1062 7599,1050 7598,1045 7599,1040 7606,1035 7615,1032 7620,1030 7627,1029 7635,1027 7640,1025 7660,1020 7683,1011 7688,1008 7690,1003 7694,999 7714,987 7726,978 7734,968 7745,958 7751,954 7754,953 7763,949 7772,946 7793,938 7800,933 7822,927 7845,957 " class="polyStyle" id="532823" style="fill:#ee8b94"/>
<polygon points="2980,645 3003,634 3022,635 3047,652 3109,656 3163,664 3161,667 3151,675 3123,692 3082,721 3067,751 3066,777 3071,809 3100,831 3133,855 3166,882 3197,909 3229,937 3246,966 3287,1011 3320,1029 3351,1047 3381,1072 3395,1105 3416,1133 3420,1161 3441,1190 3470,1230 3504,1273 3522,1301 3548,1324 3562,1350 3536,1369 3503,1369 3475,1361 3443,1343 3414,1339 3385,1362 3356,1382 3338,1408 3318,1436 3316,1465 3315,1490 3321,1519 3337,1549 3353,1575 3389,1581 3433,1589 3478,1594 3531,1609 3537,1612 3541,1636 3553,1729 3553,1770 3584,1801 3590,1814 3578,1825 3560,1825 3549,1833 3476,1909 3477,1925 3483,1941 3522,1983 3531,2004 3548,2026 3553,2050 3568,2066 3577,2087 3542,2094 3529,2096 3499,2159 3478,2181 3452,2203 3451,2211 3483,2236 3484,2259 3475,2271 3454,2288 3476,2304 3514,2311 3534,2316 3519,2332 3521,2344 3522,2369 3514,2379 3513,2418 3523,2483 3533,2533 3532,2552 3515,2571 3527,2594 3544,2604 3589,2594 3603,2614 3631,2682 3665,2721 3685,2735 3686,2745 3621,2750 3571,2750 3547,2756 3543,2789 3531,2831 3539,2864 3556,2924 3569,2964 3569,2974 3556,2983 3529,2995 3492,2998 3459,2989 3454,2987 3438,3003 3441,3072 3467,3094 3499,3100 3529,3103 3589,3113 3601,3128 3601,3144 3597,3170 3604,3221 3639,3249 3651,3271 3649,3319 3617,3338 3542,3345 3520,3351 3506,3368 3507,3381 3514,3407 3506,3420 3458,3457 3455,3475 3477,3501 3492,3517 3517,3569 3529,3590 3512,3621 3501,3655 3483,3665 3456,3659 3434,3673 3413,3704 3388,3737 3381,3755 3383,3767 3401,3781 3409,3791 3413,3800 3408,3833 3440,3875 3449,3909 3449,3945 3439,3957 3371,3944 3322,3931 3288,3916 3267,3916 3232,3944 3211,3947 3180,3942 3147,3945 3144,3970 3110,3981 3106,3991 3103,4016 3085,4030 3076,4031 3056,4015 3048,4005 3038,4000 3031,4007 3033,4026 3055,4068 3055,4098 3057,4137 3061,4166 3072,4188 3081,4250 3084,4265 3134,4290 3114,4319 3135,4335 3119,4361 3124,4401 3099,4419 3083,4443 3077,4450 3069,4471 3046,4472 3029,4468 3003,4459 2984,4451 2964,4460 2946,4477 2919,4485 2913,4490 2913,4514 2888,4546 2851,4581 2820,4598 2820,4609 2842,4635 2859,4701 2866,4778 2876,4795 2895,4807 2928,4809 2940,4812 2945,4816 2946,4826 2921,4832 2897,4839 2891,4846 2886,4853 2853,4846 2845,4859 2840,4881 2828,4922 2811,4946 2787,4962 2776,4986 2730,5006 2705,5037 2698,5046 2681,5077 2665,5099 2635,5090 2604,5070 2584,5065 2555,5076 2539,5088 2547,5120 2502,5110 2481,5114 2476,5126 2478,5136 2489,5161 2499,5189 2484,5198 2443,5220 2431,5254 2401,5257 2351,5274 2324,5286 2296,5297 2253,5323 2213,5335 2174,5312 2140,5300 2109,5295 2078,5295 2045,5295 2019,5295 2019,5299 2016,5303 2012,5310 1997,5325 1988,5335 1978,5343 1968,5350 1962,5354 1959,5360 1948,5372 1939,5383 1933,5393 1929,5399 1924,5405 1921,5409 1909,5422 1897,5433 1885,5441 1866,5455 1858,5466 1851,5480 1849,5484 1846,5488 1846,5491 1843,5494 1839,5499 1826,5498 1820,5497 1815,5497 1811,5498 1803,5505 1796,5509 1795,5514 1792,5526 1779,5532 1776,5539 1775,5542 1772,5546 1768,5548 1762,5550 1757,5551 1752,5552 1739,5552 1726,5554 1718,5551 1708,5543 1690,5528 1685,5525 1682,5525 1678,5528 1676,5533 1674,5537 1670,5545 1666,5552 1650,5553 1646,5558 1642,5568 1640,5572 1633,5579 1631,5583 1629,5587 1627,5590 1623,5590 1617,5591 1610,5592 1605,5593 1596,5600 1591,5600 1587,5598 1582,5595 1578,5597 1572,5601 1568,5600 1565,5597 1564,5592 1561,5593 1556,5596 1550,5601 1537,5601 1528,5610 1517,5619 1511,5622 1504,5619 1495,5614 1480,5608 1476,5606 1457,5606 1451,5608 1405,5529 1338,5442 1306,5406 1266,5379 1219,5361 1172,5360 1172,5365 1171,5370 1170,5374 1169,5380 1168,5386 1168,5392 1166,5398 1164,5408 1161,5418 1159,5428 1154,5445 1153,5449 1149,5469 1145,5482 1143,5487 1141,5497 1138,5504 1135,5510 1130,5517 1124,5525 1117,5531 1089,5505 1061,5483 1057,5479 1054,5478 1051,5476 1046,5473 1032,5464 1017,5456 996,5445 992,5445 988,5443 980,5439 977,5437 965,5432 961,5430 951,5427 942,5423 930,5418 919,5410 915,5407 908,5400 906,5396 901,5382 900,5377 895,5362 891,5352 889,5346 887,5338 886,5333 888,5326 895,5311 898,5305 898,5293 897,5285 896,5280 890,5262 889,5256 886,5254 883,5247 877,5239 874,5229 874,5225 873,5217 874,5212 876,5206 878,5202 880,5196 881,5192 885,5184 888,5174 889,5165 890,5155 892,5150 894,5143 895,5140 896,5135 896,5127 894,5117 892,5111 888,5102 884,5097 881,5094 878,5091 874,5086 870,5081 866,5075 860,5068 820,5027 816,5022 814,5016 813,5012 812,5008 811,4999 812,4994 813,4988 816,4981 818,4975 822,4967 827,4959 831,4952 841,4943 852,4936 859,4933 870,4927 881,4915 885,4910 892,4906 895,4905 901,4903 907,4901 915,4897 925,4892 937,4883 945,4872 946,4869 949,4862 950,4859 953,4841 954,4837 956,4834 956,4826 957,4821 959,4812 963,4797 964,4793 967,4783 977,4773 982,4770 990,4765 995,4763 1007,4753 1008,4750 1011,4747 1021,4735 1027,4726 1036,4715 1047,4708 1054,4705 1059,4704 1066,4703 1078,4705 1091,4708 1100,4710 1106,4711 1114,4713 1121,4714 1130,4713 1133,4713 1138,4710 1142,4707 1145,4703 1147,4701 1147,4696 1147,4690 1147,4686 1144,4676 1143,4671 1141,4666 1138,4660 1135,4655 1128,4643 1125,4637 1122,4634 1116,4627 1114,4624 1097,4606 1093,4599 1088,4587 1085,4581 1081,4576 1068,4568 1062,4560 1057,4555 1051,4546 1046,4540 1043,4538 1036,4537 1025,4539 1018,4539 1013,4539 1007,4537 1005,4531 1011,4519 1016,4513 1013,4506 1005,4504 1001,4503 990,4501 979,4498 972,4495 968,4493 960,4486 962,4482 966,4475 969,4472 971,4469 970,4463 969,4460 962,4460 957,4462 947,4464 939,4462 936,4458 936,4452 936,4445 933,4444 927,4445 915,4450 906,4451 901,4449 897,4446 894,4442 893,4438 886,4433 880,4431 873,4430 864,4431 858,4434 852,4435 842,4433 839,4431 836,4431 835,4435 835,4440 835,4444 836,4452 837,4464 831,4468 824,4468 817,4467 811,4462 804,4454 797,4442 786,4431 775,4425 769,4423 764,4422 759,4422 755,4424 752,4425 745,4430 740,4435 733,4446 731,4452 729,4457 721,4469 718,4471 715,4474 705,4477 695,4489 690,4492 683,4494 660,4494 653,4496 589,4531 552,4549 549,4551 528,4580 510,4610 506,4610 496,4586 494,4583 491,4581 465,4574 462,4573 459,4573 431,4573 428,4571 428,4568 433,4544 435,4540 451,4509 451,4505 439,4481 430,4479 425,4478 417,4479 410,4480 399,4483 393,4485 382,4486 373,4485 369,4484 361,4482 346,4475 330,4465 323,4462 317,4459 311,4457 303,4454 299,4454 292,4453 286,4450 267,4442 242,4426 232,4421 229,4416 225,4403 221,4395 202,4378 199,4374 197,4369 196,4364 195,4359 194,4355 193,4347 189,4330 188,4324 185,4314 183,4306 181,4298 174,4283 169,4275 161,4262 157,4254 156,4250 156,4242 157,4238 157,4232 158,4226 157,4217 154,4211 151,4204 141,4177 138,4169 138,4165 137,4159 136,4150 135,4140 133,4130 130,4123 126,4114 123,4110 116,4106 113,4103 108,4102 104,4097 96,4087 90,4077 88,4071 87,4065 85,4055 84,4049 83,4044 82,4037 82,4030 81,4017 80,4007 79,4000 79,3992 75,3978 68,3962 58,3947 55,3943 51,3937 45,3931 38,3926 34,3924 26,3918 18,3904 13,3895 5,3874 4,3868 4,3863 5,3860 3,3852 2,3847 0,3839 2,3832 6,3821 7,3816 10,3806 11,3801 10,3796 9,3790 8,3779 12,3766 15,3758 15,3751 16,3743 15,3740 14,3736 13,3729 12,3723 12,3718 11,3711 10,3688 10,3683 9,3679 8,3653 10,3645 12,3636 14,3630 18,3625 21,3621 40,3608 43,3605 53,3601 60,3592 68,3581 71,3577 78,3566 84,3557 87,3551 91,3541 92,3536 94,3529 95,3523 94,3519 93,3512 90,3503 87,3497 85,3489 85,3484 84,3475 84,3471 83,3464 82,3458 81,3451 81,3440 80,3427 79,3420 78,3416 78,3412 78,3409 79,3406 85,3406 92,3405 102,3403 112,3401 120,3399 130,3396 139,3393 146,3390 159,3378 169,3369 178,3355 186,3340 189,3334 189,3331 186,3324 186,3319 186,3315 184,3309 181,3294 180,3287 179,3273 180,3268 182,3263 187,3257 195,3248 197,3245 200,3239 201,3235 205,3224 209,3211 212,3204 219,3192 220,3187 223,3180 223,3164 224,3156 227,3149 228,3144 233,3137 241,3127 254,3109 271,3091 272,3087 275,3083 273,3079 266,3068 257,3051 252,3040 246,3025 243,3017 237,3007 231,2997 222,2984 220,2979 215,2975 207,2966 196,2959 173,2951 159,2934 155,2930 150,2924 146,2918 144,2914 142,2909 140,2905 138,2901 134,2896 131,2892 123,2886 116,2880 112,2878 106,2873 102,2868 96,2858 93,2851 91,2847 89,2841 82,2822 80,2816 77,2805 77,2800 77,2783 78,2776 78,2772 81,2766 84,2764 94,2753 105,2743 116,2734 118,2731 122,2726 125,2722 130,2711 132,2704 134,2696 136,2693 138,2690 140,2687 146,2678 150,2651 166,2623 196,2601 211,2575 232,2545 240,2505 263,2476 251,2442 254,2414 283,2404 313,2404 339,2391 350,2364 378,2353 406,2345 433,2335 464,2335 492,2317 501,2307 527,2283 551,2252 559,2225 578,2199 580,2172 606,2161 617,2136 622,2111 596,2089 612,2061 630,2036 644,2000 650,1975 670,1950 668,1921 645,1896 615,1862 623,1837 651,1839 678,1851 681,1844 679,1802 717,1777 706,1745 707,1703 742,1706 777,1687 803,1705 831,1725 857,1732 876,1752 907,1750 937,1762 965,1765 989,1787 1037,1763 1080,1762 1108,1759 1144,1747 1160,1719 1173,1691 1200,1687 1229,1678 1263,1675 1289,1658 1290,1635 1278,1608 1263,1585 1250,1558 1262,1538 1251,1516 1254,1493 1271,1486 1289,1486 1304,1481 1328,1492 1346,1496 1374,1499 1417,1472 1450,1501 1482,1488 1506,1500 1532,1496 1570,1483 1580,1496 1598,1522 1623,1557 1653,1571 1688,1582 1680,1597 1710,1612 1740,1627 1766,1635 1794,1644 1829,1658 1858,1673 1892,1682 1923,1700 1949,1714 1978,1727 2012,1737 2045,1721 2071,1677 2087,1660 2141,1635 2143,1612 2157,1571 2141,1551 2139,1535 2151,1510 2165,1517 2173,1513 2177,1501 2173,1475 2156,1446 2157,1433 2164,1400 2166,1329 2174,1311 2206,1310 2217,1304 2212,1295 2204,1273 2207,1247 2235,1230 2232,1219 2206,1210 2221,1153 2229,1116 2233,1090 2230,1082 2199,1079 2166,1073 2141,1062 2141,1053 2187,1023 2177,984 2183,962 2190,925 2203,908 2213,902 2236,908 2252,915 2264,912 2276,902 2282,875 2291,853 2335,816 2334,787 2351,760 2380,759 2407,765 2431,781 2454,825 2504,816 2512,807 2514,765 2544,754 2555,747 2555,727 2566,712 2593,704 2610,697 2643,689 2661,686 2693,681 2723,678 2743,673 2756,668 2795,661 2843,646 2901,643 2922,629 2956,647 " class="polyStyle" id="532822" style="fill:#ee8b94"/>
<path d="" class="polyStyle" id="450123" style="fill:#fbe6ef"/>
<path d="" class="polyStyle" id="350624" style="fill:#f6f67b"/>
<path d="" class="polyStyle" id="" style="fill:#fbe6ef"/>
<path d="" class="polyStyle" id="451224" style="fill:#fbe6ef"/>
<path d="" class="polyStyle" id="350627" style="fill:#f6f67b"/>
<path d="" class="polyStyle" id="" style="fill:#f6f67b"/>
<path d="" class="polyStyle" id="350525" style="fill:#f6f67b"/>
<path d="" class="polyStyle" id="530124" style="fill:#ee8b94"/>
<path d="" class="polyStyle" id="522627" style="fill:#ee8b94"/>
<path d="" class="polyStyle" id="510421" style="fill:#fbe6ef"/>
<path d="" class="polyStyle" id="522623" style="fill:#d4ecb2"/>
<path d="" class="polyStyle" id="430321" style="fill:#d4ecb2"/>
<path d="" class="polyStyle" id="511129" style="fill:#d4ecb2"/>
<path d="" class="polyStyle" id="511423" style="fill:#ee8b94"/>
<path d="" class="polyStyle" id="421023" style="fill:#f6f67b"/>
<path d="" class="polyStyle" id="511724" style="fill:#f6f67b"/>
<path d="" class="polyStyle" id="420526" style="fill:#fbe6ef"/>
<path d="" class="polyStyle" id="511923" style="fill:#fbe6ef"/>
<path d="" class="polyStyle" id="420325" style="fill:#fbe6ef"/>
<path d="" class="polyStyle" id="511921" style="fill:#f6f67b"/>
<path d="" class="polyStyle" id="542525" style="fill:#f6f67b"/>
<path d="" class="polyStyle" id="611026" style="fill:#ee8b94"/>
<path d="" class="polyStyle" id="411023" style="fill:#fbe6ef"/>
<path d="" class="polyStyle" id="632323" style="fill:#f6f67b"/>
<path d="" class="polyStyle" id="140525" style="fill:#d4ecb2"/>
<path d="" class="polyStyle" id="410922" style="fill:#ee8b94"/>
<path d="" class="polyStyle" id="621027" style="fill:#ee8b94"/>
<path d="" class="polyStyle" id="130427" style="fill:#f6f67b"/>
<path d="" class="polyStyle" id="130121" style="fill:#ee8b94"/>
<path d="" class="polyStyle" id="610823" style="fill:#fbe6ef"/>
<path d="" class="polyStyle" id="130225" style="fill:#fbe6ef"/>
<path d="" class="polyStyle" id="130322" style="fill:#d4ecb2"/>
<path d="" class="polyStyle" id="653130" style="fill:#f6f67b"/>
<path d="" class="polyStyle" id="130822" style="fill:#fbe6ef"/>
<path d="" class="polyStyle" id="211221" style="fill:#f6f67b"/>
<path d="" class="polyStyle" id="210921" style="fill:#f6f67b"/>
<path d="" class="polyStyle" id="150223" style="fill:#f8c67d"/>
<path d="" class="polyStyle" id="220422" style="fill:#d4ecb2"/>
<path d="" class="polyStyle" id="340721" style="fill:#f6f67b"/>
<path d="" class="polyStyle" id="510824" style="fill:#d4ecb2"/>
<path d="" class="polyStyle" id="610324" style="fill:#f6f67b"/>
<path d="" class="polyStyle" id="530722" style="fill:#ee8b94"/>
<path d="" class="polyStyle" id="340823" style="fill:#d4ecb2"/>
<path d="" class="polyStyle" id="620825" style="fill:#d4ecb2"/>
<path d="" class="polyStyle" id="421125" style="fill:#ee8b94"/>
<path d="" class="polyStyle" id="210281" style="fill:#ee8b94"/>
<path d="" class="polyStyle" id="440883" style="fill:#f6f67b"/>
<path d="" class="polyStyle" id="469006" style="fill:#d4ecb2"/>
<path d="" class="polyStyle" id="469002" style="fill:#ee8b94"/>
<path d="" class="polyStyle" id="469005" style="fill:#fbe6ef"/>
<path d="" class="polyStyle" id="440882" style="fill:#ee8b94"/>
<path d="" class="polyStyle" id="450681" style="fill:#ee8b94"/>
<polygon points="5457,3 5479,15 5480,40 5489,45 5503,46 5512,47 5526,57 5538,86 5548,91 5558,96 5569,103 5591,124 5601,131 5612,138 5622,145 5645,162 5658,163 5670,163 5683,163 5693,169 5703,175 5713,180 5724,186 5736,191 5748,197 5758,203 5769,209 5779,214 5790,220 5801,225 5812,231 5823,236 5833,233 5844,230 5855,227 5868,227 5881,227 5893,227 5907,227 5919,231 5932,235 5945,238 5955,235 5966,233 5976,230 5987,228 5997,225 6009,222 6020,219 6032,216 6044,213 6057,207 6069,202 6082,197 6094,199 6107,200 6119,202 6131,204 6135,207 6143,214 6153,225 6162,237 6172,243 6194,223 6207,215 6225,215 6233,221 6235,236 6230,255 6229,276 6244,279 6260,277 6266,277 6278,278 6289,276 6301,278 6313,279 6325,280 6337,281 6347,283 6358,286 6369,288 6379,288 6389,288 6400,288 6411,285 6423,281 6435,278 6455,264 6468,259 6481,253 6494,248 6504,244 6514,239 6525,235 6537,239 6548,243 6557,254 6573,271 6592,259 6616,251 6625,251 6634,249 6643,250 6653,249 6663,247 6673,245 6683,245 6694,244 6704,244 6714,243 6740,249 6762,265 6777,277 6792,285 6784,293 6782,298 6783,303 6790,313 6793,313 6808,308 6818,297 6828,284 6841,265 6855,262 6864,265 6874,268 6884,270 6900,255 6917,235 6931,228 6948,220 6971,209 6989,200 6995,190 7007,181 7011,172 7018,168 7027,156 7034,152 7045,150 7058,151 7074,155 7081,154 7106,147 7121,146 7128,144 7133,137 7141,131 7148,128 7156,122 7163,114 7168,112 7177,110 7187,109 7197,106 7201,104 7211,96 7218,94 7225,92 7246,84 7252,81 7277,72 7281,69 7290,69 7297,74 7310,85 7318,85 7321,84 7332,72 7335,70 7340,69 7345,68 7351,71 7358,76 7362,79 7365,79 7368,80 7371,77 7376,57 7378,54 7385,49 7397,43 7416,35 7420,34 7425,33 7435,37 7442,36 7449,33 7464,33 7477,38 7483,37 7499,30 7504,30 7514,45 7515,49 7515,53 7518,69 7519,72 7524,85 7530,96 7538,111 7538,118 7537,123 7529,142 7529,148 7529,154 7532,162 7539,177 7543,186 7546,200 7547,207 7549,215 7552,221 7562,238 7565,247 7568,259 7570,264 7572,267 7577,273 7583,276 7590,277 7598,275 7601,274 7613,267 7621,267 7624,271 7625,279 7623,292 7624,302 7625,306 7629,317 7634,329 7638,341 7639,350 7642,357 7655,376 7659,385 7660,391 7661,395 7660,410 7659,414 7660,426 7660,432 7661,440 7663,446 7665,453 7667,459 7680,487 7684,496 7700,520 7709,539 7716,554 7721,568 7727,582 7735,606 7737,609 7741,630 7742,644 7744,651 7745,654 7748,665 7748,672 7747,675 7742,689 7743,692 7747,694 7751,697 7753,700 7768,720 7792,745 7798,752 7807,765 7811,772 7813,778 7815,788 7817,799 7817,804 7818,810 7819,817 7821,822 7823,827 7831,847 7834,866 7836,884 7836,890 7836,895 7835,905 7835,908 7832,914 7827,923 7822,927 7800,933 7793,938 7772,946 7763,949 7754,953 7751,954 7745,958 7734,968 7726,978 7714,987 7694,999 7690,1003 7688,1008 7683,1011 7660,1020 7640,1025 7635,1027 7627,1029 7620,1030 7615,1032 7606,1035 7599,1040 7598,1045 7599,1050 7602,1062 7602,1068 7597,1072 7536,1072 7533,1072 7529,1073 7525,1077 7517,1089 7508,1098 7504,1101 7499,1102 7491,1103 7479,1102 7471,1100 7438,1094 7412,1086 7397,1084 7388,1085 7382,1086 7373,1088 7364,1087 7348,1085 7344,1085 7339,1086 7335,1088 7324,1099 7319,1106 7314,1114 7309,1120 7304,1123 7297,1122 7276,1114 7270,1113 7242,1113 7237,1114 7232,1115 7225,1118 7216,1120 7204,1122 7200,1123 7195,1125 7183,1134 7176,1137 7161,1137 7155,1139 7135,1150 7131,1150 7125,1149 7110,1142 7106,1140 7101,1140 7096,1141 7090,1145 7077,1155 7073,1157 7062,1155 7057,1155 7050,1156 7042,1159 7030,1166 7016,1174 7002,1179 6992,1187 6978,1197 6972,1200 6967,1203 6965,1204 6958,1207 6955,1208 6952,1209 6938,1219 6933,1222 6923,1229 6914,1237 6909,1239 6903,1242 6890,1248 6881,1255 6867,1263 6853,1274 6843,1275 6838,1277 6831,1281 6818,1289 6815,1294 6815,1301 6819,1312 6817,1315 6811,1320 6797,1329 6786,1340 6783,1343 6775,1356 6769,1365 6757,1383 6754,1390 6749,1399 6744,1403 6742,1408 6722,1428 6716,1436 6708,1454 6704,1461 6667,1500 6665,1503 6664,1508 6670,1537 6667,1572 6651,1601 6619,1609 6580,1597 6551,1609 6533,1637 6506,1644 6470,1659 6441,1682 6425,1716 6426,1745 6414,1771 6409,1788 6350,1810 6339,1810 6327,1812 6308,1832 6298,1858 6295,1880 6283,1926 6275,1932 6244,1961 6234,1966 6223,1967 6187,2007 6170,2005 6157,1991 6128,2016 6103,2065 6095,2093 6073,2108 6064,2116 6058,2129 6045,2149 6010,2167 5967,2156 5932,2153 5900,2152 5866,2191 5849,2219 5847,2249 5845,2275 5850,2286 5843,2297 5752,2309 5752,2318 5771,2327 5814,2332 5858,2334 5873,2373 5889,2414 5914,2432 5981,2429 5987,2439 5978,2470 5979,2504 5972,2531 5941,2567 5943,2576 5972,2591 6001,2613 6039,2625 6078,2636 6098,2662 6127,2680 6159,2687 6194,2717 6204,2752 6239,2815 6252,2821 6265,2824 6278,2813 6287,2801 6305,2801 6316,2825 6326,2832 6372,2829 6391,2851 6403,2864 6422,2890 6466,2918 6495,2942 6532,2970 6557,2991 6580,3031 6571,3059 6528,3097 6499,3125 6475,3151 6464,3147 6448,3130 6416,3141 6380,3166 6334,3170 6301,3157 6268,3165 6261,3184 6259,3211 6246,3216 6209,3210 6185,3217 6168,3241 6156,3263 6149,3287 6177,3291 6194,3305 6228,3294 6249,3298 6258,3320 6251,3345 6254,3357 6249,3371 6249,3387 6235,3401 6207,3424 6191,3429 6160,3419 6153,3403 6122,3408 6095,3395 6082,3394 6061,3401 6046,3415 6038,3425 6035,3437 6034,3445 6033,3456 6099,3465 6109,3476 6106,3489 6092,3497 6079,3500 6062,3508 6060,3518 6070,3527 6089,3545 6094,3560 6074,3591 6074,3623 6093,3662 6119,3683 6123,3760 6117,3789 6108,3817 6080,3878 6138,3882 6166,3912 6178,3945 6170,3971 6145,3997 6120,4025 6088,4052 6062,4051 6033,4050 6005,4054 5977,4058 5944,4066 5917,4074 5887,4085 5884,4077 5879,4071 5874,4070 5840,4078 5822,4080 5813,4078 5806,4075 5798,4071 5792,4069 5788,4068 5778,4071 5775,4074 5769,4076 5746,4077 5729,4074 5721,4074 5713,4077 5705,4085 5697,4095 5694,4100 5689,4117 5683,4123 5674,4128 5652,4137 5644,4139 5630,4145 5622,4148 5613,4156 5600,4170 5593,4176 5573,4186 5563,4195 5559,4200 5558,4203 5553,4209 5543,4216 5529,4222 5523,4224 5501,4242 5485,4257 5482,4263 5480,4267 5480,4275 5478,4285 5476,4288 5472,4292 5460,4295 5456,4295 5452,4297 5442,4307 5430,4319 5418,4325 5374,4341 5372,4345 5372,4348 5371,4353 5370,4358 5363,4363 5353,4372 5351,4377 5350,4395 5347,4408 5347,4411 5337,4415 5332,4416 5323,4417 5314,4416 5309,4414 5303,4414 5299,4413 5293,4414 5288,4416 5270,4416 5262,4418 5249,4426 5244,4428 5238,4429 5225,4431 5196,4429 5189,4431 5181,4434 5160,4453 5153,4457 5147,4458 5127,4459 5122,4460 5113,4461 5105,4458 5099,4456 5091,4456 5083,4457 5078,4458 5071,4457 5067,4455 5061,4453 5055,4455 5047,4460 5041,4462 5033,4461 5021,4457 5012,4455 5002,4453 4990,4454 4986,4455 4976,4458 4965,4467 4957,4471 4941,4484 4930,4489 4923,4491 4917,4494 4900,4505 4896,4507 4884,4508 4880,4507 4870,4505 4859,4501 4839,4496 4833,4496 4830,4502 4831,4513 4837,4526 4837,4531 4836,4535 4832,4537 4827,4539 4814,4536 4808,4528 4804,4522 4799,4519 4793,4517 4787,4517 4778,4517 4759,4523 4740,4531 4732,4532 4724,4531 4718,4529 4713,4526 4708,4522 4702,4519 4692,4521 4690,4528 4687,4535 4684,4540 4677,4549 4673,4551 4663,4554 4660,4555 4653,4561 4650,4567 4642,4575 4634,4577 4624,4579 4619,4581 4617,4584 4614,4588 4609,4595 4607,4601 4604,4609 4601,4613 4595,4617 4592,4621 4587,4632 4585,4641 4575,4652 4566,4669 4551,4674 4544,4678 4542,4681 4526,4712 4506,4740 4485,4767 4452,4771 4418,4796 4384,4819 4363,4848 4335,4863 4312,4891 4287,4929 4279,4959 4273,4993 4255,5023 4248,5059 4250,5088 4222,5111 4191,5112 4157,5115 4125,5138 4120,5172 4093,5173 4066,5175 4030,5202 4005,5246 3979,5287 3957,5323 3934,5354 3908,5385 3872,5406 3846,5409 3808,5393 3776,5391 3750,5399 3717,5427 3696,5453 3690,5482 3673,5524 3643,5550 3604,5557 3574,5551 3531,5546 3497,5544 3448,5560 3409,5582 3377,5599 3341,5630 3312,5646 3277,5649 3249,5656 3213,5683 3183,5700 3144,5706 3118,5698 3086,5680 3061,5670 3032,5660 3003,5643 2977,5621 2941,5604 2904,5595 2870,5602 2844,5611 2807,5631 2782,5642 2774,5649 2749,5663 2724,5673 2695,5676 2664,5659 2646,5633 2624,5598 2618,5573 2603,5541 2582,5512 2568,5491 2556,5463 2536,5432 2522,5403 2502,5380 2483,5346 2456,5300 2432,5256 2431,5254 2443,5220 2484,5198 2499,5189 2489,5161 2478,5136 2476,5126 2481,5114 2502,5110 2547,5120 2539,5088 2555,5076 2584,5065 2604,5070 2635,5090 2665,5099 2681,5077 2698,5046 2705,5037 2730,5006 2776,4986 2787,4962 2811,4946 2828,4922 2840,4881 2845,4859 2853,4846 2886,4853 2891,4846 2897,4839 2921,4832 2946,4826 2945,4816 2940,4812 2928,4809 2895,4807 2876,4795 2866,4778 2859,4701 2842,4635 2820,4609 2820,4598 2851,4581 2888,4546 2913,4514 2913,4490 2919,4485 2946,4477 2964,4460 2984,4451 3003,4459 3029,4468 3046,4472 3069,4471 3077,4450 3083,4443 3099,4419 3124,4401 3119,4361 3135,4335 3114,4319 3134,4290 3084,4265 3081,4250 3072,4188 3061,4166 3057,4137 3055,4098 3055,4068 3033,4026 3031,4007 3038,4000 3048,4005 3056,4015 3076,4031 3085,4030 3103,4016 3106,3991 3110,3981 3144,3970 3147,3945 3180,3942 3211,3947 3232,3944 3267,3916 3288,3916 3322,3931 3371,3944 3439,3957 3449,3945 3449,3909 3440,3875 3408,3833 3413,3800 3409,3791 3401,3781 3383,3767 3381,3755 3388,3737 3413,3704 3434,3673 3456,3659 3483,3665 3501,3655 3512,3621 3529,3590 3517,3569 3492,3517 3477,3501 3455,3475 3458,3457 3506,3420 3514,3407 3507,3381 3506,3368 3520,3351 3542,3345 3617,3338 3649,3319 3651,3271 3639,3249 3604,3221 3597,3170 3601,3144 3601,3128 3589,3113 3529,3103 3499,3100 3467,3094 3441,3072 3438,3003 3454,2987 3459,2989 3492,2998 3529,2995 3556,2983 3569,2974 3569,2964 3556,2924 3539,2864 3531,2831 3543,2789 3547,2756 3571,2750 3621,2750 3686,2745 3685,2735 3665,2721 3631,2682 3603,2614 3589,2594 3544,2604 3527,2594 3515,2571 3532,2552 3533,2533 3523,2483 3513,2418 3514,2379 3522,2369 3521,2344 3519,2332 3534,2316 3514,2311 3476,2304 3454,2288 3475,2271 3484,2259 3483,2236 3451,2211 3452,2203 3478,2181 3499,2159 3529,2096 3542,2094 3577,2087 3568,2066 3553,2050 3548,2026 3531,2004 3522,1983 3483,1941 3477,1925 3476,1909 3549,1833 3560,1825 3578,1825 3590,1814 3584,1801 3553,1770 3553,1729 3541,1636 3537,1612 3531,1609 3478,1594 3433,1589 3389,1581 3353,1575 3337,1549 3321,1519 3315,1490 3316,1465 3318,1436 3338,1408 3356,1382 3385,1362 3414,1339 3443,1343 3475,1361 3503,1369 3536,1369 3562,1350 3548,1324 3522,1301 3504,1273 3470,1230 3441,1190 3420,1161 3416,1133 3395,1105 3381,1072 3351,1047 3320,1029 3287,1011 3246,966 3229,937 3197,909 3166,882 3133,855 3100,831 3071,809 3066,777 3067,751 3082,721 3123,692 3151,675 3161,667 3163,664 3169,669 3172,670 3176,677 3177,682 3178,690 3179,695 3182,699 3192,714 3196,719 3208,729 3212,731 3224,734 3229,735 3239,736 3252,733 3256,731 3263,725 3266,720 3274,719 3280,721 3291,726 3297,727 3305,730 3312,731 3318,733 3324,734 3354,741 3376,714 3388,686 3359,652 3352,640 3341,625 3333,611 3340,592 3354,582 3364,575 3360,540 3366,517 3374,503 3396,495 3406,495 3415,496 3422,490 3427,490 3437,493 3447,490 3452,488 3457,487 3470,482 3476,480 3486,479 3495,480 3503,481 3508,479 3512,475 3517,475 3526,474 3541,471 3546,469 3562,458 3565,456 3564,442 3560,425 3556,406 3558,381 3566,356 3571,346 3584,349 3593,348 3602,348 3612,347 3630,341 3639,338 3648,335 3658,332 3674,328 3696,333 3720,344 3742,352 3758,357 3769,357 3779,357 3789,357 3811,350 3825,340 3838,326 3852,325 3869,329 3889,343 3912,335 3928,308 3942,302 3961,301 3968,288 3961,263 3961,250 3965,244 3973,237 3989,230 3992,213 3991,192 4005,185 4016,173 4020,161 4021,153 4021,141 4023,135 4023,127 4029,123 4036,121 4046,113 4047,110 4053,102 4056,93 4062,88 4066,88 4076,89 4102,89 4104,84 4096,81 4095,76 4100,74 4107,75 4116,74 4126,68 4130,67 4144,66 4149,67 4164,72 4171,71 4176,59 4179,58 4185,62 4190,63 4197,62 4203,63 4212,61 4223,56 4227,54 4231,51 4244,52 4248,53 4257,60 4262,62 4266,65 4269,64 4272,63 4279,61 4292,61 4304,51 4309,49 4322,47 4325,45 4325,38 4323,30 4327,28 4332,33 4342,48 4352,49 4357,52 4358,59 4356,68 4353,72 4352,76 4356,89 4358,93 4362,101 4366,102 4376,103 4386,110 4387,113 4391,119 4394,121 4403,131 4409,135 4412,136 4417,137 4427,135 4438,132 4449,129 4457,128 4464,127 4479,127 4487,127 4508,126 4520,127 4531,129 4545,129 4550,128 4555,126 4578,100 4585,96 4601,81 4607,77 4610,74 4615,74 4620,80 4622,92 4620,103 4619,113 4620,125 4621,135 4625,144 4631,150 4636,156 4646,166 4650,173 4655,182 4656,193 4654,209 4654,214 4652,220 4655,227 4655,231 4659,237 4669,245 4679,246 4685,245 4689,243 4701,235 4719,217 4726,214 4735,213 4740,216 4752,227 4757,229 4768,231 4779,226 4788,224 4790,219 4791,216 4791,208 4790,198 4788,187 4788,177 4790,169 4799,164 4809,159 4813,155 4815,149 4815,143 4814,138 4804,128 4802,124 4800,121 4800,115 4800,107 4804,103 4807,104 4811,102 4818,99 4827,93 4835,90 4839,88 4844,87 4849,86 4864,80 4872,76 4884,74 4902,66 4925,56 4935,49 4948,37 4952,31 4957,26 4975,18 4983,18 4986,20 5000,31 5005,34 5027,38 5036,42 5038,45 5043,56 5057,72 5058,80 5065,88 5076,95 5085,98 5094,98 5102,97 5107,94 5112,93 5117,95 5118,99 5121,107 5123,102 5131,97 5139,93 5144,90 5154,83 5165,72 5168,68 5170,65 5172,56 5171,53 5167,46 5166,43 5163,39 5161,30 5162,25 5164,22 5174,14 5180,15 5183,17 5190,16 5200,9 5213,24 5214,34 5217,38 5222,39 5226,38 5238,28 5242,29 5245,42 5246,47 5249,50 5254,52 5259,49 5265,45 5269,44 5282,45 5286,47 5291,53 5295,65 5301,72 5309,77 5314,77 5327,75 5334,77 5346,77 5349,73 5352,67 5358,62 5365,60 5373,59 5381,58 5386,40 5386,35 5383,28 5381,23 5385,19 5397,13 5400,12 5408,3 5414,0 5423,0 5444,2 " class="polyStyle" id="532801" style="fill:#f6f67b"/>
<path d="" class="polyStyle" id="441581" style="fill:#d4ecb2"/>
<path d="" class="polyStyle" id="421087" style="fill:#ee8b94"/>
<path d="" class="polyStyle" id="420984" style="fill:#fbe6ef"/>
<path d="" class="polyStyle" id="420582" style="fill:#ee8b94"/>
<path d="" class="polyStyle" id="370282" style="fill:#f6f67b"/>
<path d="" class="polyStyle" id="371083" style="fill:#f6f67b"/>
<path d="" class="polyStyle" id="371082" style="fill:#fbe6ef"/>
<path d="" class="polyStyle" id="652801" style="fill:#f8c67d"/>
<path d="" class="polyStyle" id="654301" style="fill:#ee8b94"/>
<path d="" class="polyStyle" id="370687" style="fill:#ee8b94"/>
<path d="" class="polyStyle" id="371482" style="fill:#d4ecb2"/>
<path d="" class="polyStyle" id="421081" style="fill:#fbe6ef"/>
<path d="" class="polyStyle" id="429006" style="fill:#f6f67b"/>
<path d="" class="polyStyle" id="440982" style="fill:#d4ecb2"/>
<path d="" class="polyStyle" id="421181" style="fill:#d4ecb2"/>
<path d="" class="polyStyle" id="321181" style="fill:#d4ecb2"/>
<path d="" class="polyStyle" id="659007" style="fill:#ee8b94"/>
<path d="" class="polyStyle" id="652701" style="fill:#fbe6ef"/>
<path d="" class="polyStyle" id="210781" style="fill:#fbe6ef"/>
<path d="" class="polyStyle" id="460204" style="fill:#f6f67b"/>
<path d="" class="polyStyle" id="210211" style="fill:#f6f67b"/>
<path d="" class="polyStyle" id="450512" style="fill:#ee8b94"/>
<path d="" class="polyStyle" id="450602" style="fill:#fbe6ef"/>
<path d="" class="polyStyle" id="440404" style="fill:#ee8b94"/>
<path d="" class="polyStyle" id="440403" style="fill:#f6f67b"/>
<path d="" class="polyStyle" id="441502" style="fill:#f6f67b"/>
<path d="" class="polyStyle" id="431002" style="fill:#d4ecb2"/>
<path d="" class="polyStyle" id="500107" style="fill:#fbe6ef"/>
<path d="" class="polyStyle" id="430611" style="fill:#d4ecb2"/>
<path d="" class="polyStyle" id="511304" style="fill:#fbe6ef"/>
<path d="" class="polyStyle" id="340711" style="fill:#ee8b94"/>
<path d="" class="polyStyle" id="320118" style="fill:#f6f67b"/>
<path d="" class="polyStyle" id="510704" style="fill:#f6f67b"/>
<path d="" class="polyStyle" id="411502" style="fill:#ee8b94"/>
<path d="" class="polyStyle" id="320302" style="fill:#d4ecb2"/>
<path d="" class="polyStyle" id="140311" style="fill:#ee8b94"/>
<path d="" class="polyStyle" id="610802" style="fill:#ee8b94"/>
<path d="" class="polyStyle" id="120116" style="fill:#f6f67b"/>
<path d="" class="polyStyle" id="130303" style="fill:#fbe6ef"/>
<path d="" class="polyStyle" id="140211" style="fill:#f6f67b"/>
<path d="" class="polyStyle" id="150207" style="fill:#fbe6ef"/>
<path d="" class="polyStyle" id="211403" style="fill:#f6f67b"/>
<path d="" class="polyStyle" id="150802" style="fill:#f8c67d"/>
<path d="" class="polyStyle" id="210112" style="fill:#ee8b94"/>
<path d="" class="polyStyle" id="230406" style="fill:#d4ecb2"/>
<path d="" class="polyStyle" id="110113" style="fill:#fbe6ef"/>
<path d="" class="polyStyle" id="341702" style="fill:#fbe6ef"/>
<path d="" class="polyStyle" id="420303" style="fill:#ee8b94"/>
<path d="" class="polyStyle" id="340702" style="fill:#d4ecb2"/>
<path d="" class="polyStyle" id="421002" style="fill:#f6f67b"/>
<path d="" class="polyStyle" id="420117" style="fill:#f6f67b"/>
<path d="" class="polyStyle" id="440904" style="fill:#f8c67d"/>
<path d="" class="polyStyle" id="460205" style="fill:#ee8b94"/>
<path d="" class="polyStyle" id="460202" style="fill:#f6f67b"/>
<path d="" class="polyStyle" id="460203" style="fill:#fbe6ef"/>
<path d="" class="polyStyle" id="420304" style="fill:#f6f67b"/>
<path d="" class="polyStyle" id="445302" style="fill:#ee8b94"/>
<path d="" class="polyStyle" id="410202" style="fill:#d4ecb2"/>
<path d="" class="polyStyle" id="440800" style="fill:#f6f67b"/>
<path d="" class="polyStyle" id="440900" style="fill:#ee8b94"/>
<path d="" class="polyStyle" id="340800" style="fill:#ee8b94"/>
<path d="" class="polyStyle" id="460200" style="fill:#f6f67b"/>
<path d="" class="polyStyle" id="460000" style="fill:#ee8b94"/>
<path d="" class="polyStyle" id="450500" style="fill:#ee8b94"/>
<path d="" class="polyStyle" id="450600" style="fill:#ee8b94"/>
<path d="" class="polyStyle" id="440400" style="fill:#f6f67b"/>
<path d="" class="polyStyle" id="441700" style="fill:#f6f67b"/>
<path d="" class="polyStyle" id="441500" style="fill:#f6f67b"/>
<path d="" class="polyStyle" id="350600" style="fill:#ee8b94"/>
<path d="" class="polyStyle" id="710000" style="fill:#f6f67b"/>
<path d="" class="polyStyle" id="510400" style="fill:#f6f67b"/>
<path d="" class="polyStyle" id="522600" style="fill:#fbe6ef"/>
<path d="" class="polyStyle" id="520500" style="fill:#ee8b94"/>
<path d="" class="polyStyle" id="431200" style="fill:#f6f67b"/>
<path d="" class="polyStyle" id="430600" style="fill:#f6f67b"/>
<path d="" class="polyStyle" id="511400" style="fill:#d4ecb2"/>
<path d="" class="polyStyle" id="421000" style="fill:#ee8b94"/>
<path d="" class="polyStyle" id="341700" style="fill:#f6f67b"/>
<path d="" class="polyStyle" id="420500" style="fill:#f6f67b"/>
<path d="" class="polyStyle" id="511300" style="fill:#f6f67b"/>
<path d="" class="polyStyle" id="420900" style="fill:#f6f67b"/>
<path d="" class="polyStyle" id="511700" style="fill:#ee8b94"/>
<path d="" class="polyStyle" id="420600" style="fill:#d4ecb2"/>
<path d="" class="polyStyle" id="411500" style="fill:#fbe6ef"/>
<path d="" class="polyStyle" id="510800" style="fill:#ee8b94"/>
<path d="" class="polyStyle" id="420300" style="fill:#fbe6ef"/>
<path d="" class="polyStyle" id="611000" style="fill:#ee8b94"/>
<path d="" class="polyStyle" id="620800" style="fill:#fbe6ef"/>
<path d="" class="polyStyle" id="370200" style="fill:#ee8b94"/>
<path d="" class="polyStyle" id="371000" style="fill:#f6f67b"/>
<path d="" class="polyStyle" id="370600" style="fill:#fbe6ef"/>
<path d="" class="polyStyle" id="120000" style="fill:#f6f67b"/>
<path d="" class="polyStyle" id="130200" style="fill:#ee8b94"/>
<path d="" class="polyStyle" id="130300" style="fill:#f6f67b"/>
<path d="" class="polyStyle" id="652900" style="fill:#fbe6ef"/>
<path d="" class="polyStyle" id="150500" style="fill:#d4ecb2"/>
<path d="" class="polyStyle" id="" style="fill:#d4ecb2"/>
<path d="" class="polyStyle" id="350500" style="fill:#fbe6ef"/>
<path d="" class="polyStyle" id="440400" style="fill:#f6f67b"/>
<path d="" class="polyStyle" id="421100" style="fill:#d4ecb2"/>
<path d="" class="polyStyle" id="420100" style="fill:#fbe6ef"/>
<path d="" class="polyStyle" id="532500" style="fill:#fbe6ef"/>
<path d="" class="polyStyle" id="654200" style="fill:#fbe6ef"/>
<path d="" class="polyStyle" id="210700" style="fill:#d4ecb2"/>
<path d="" class="polyStyle" id="522300" style="fill:#fbe6ef"/>
<path d="" class="polyStyle" id="" style="fill:#ee8b94"/>
<path d="" class="polyStyle" id="440400" style="fill:#f6f67b"/>
<path d="" class="polyStyle" id="620000" style="fill:#f6f67b"/>
<path d="" class="polyStyle" id="430000" style="fill:#fbe6ef"/>
<path d="" class="polyStyle" id="420000" style="fill:#ee8b94"/>
<path d="" class="polyStyle" id="410000" style="fill:#f6f67b"/>
<path d="" class="polyStyle" id="350000" style="fill:#fbe6ef"/>
<path d="" class="polyStyle" id="520000" style="fill:#f6f67b"/>
<path d="" class="polyStyle" id="" style="fill:#ee8b94"/>
</svg>
