<?xml version="1.0" encoding="UTF-8"?>
<!DOCTYPE svg PUBLIC "-//W3C//DTD SVG 1.1 Tiny//EN" "http://www.w3.org/Graphics/SVG/1.1/DTD/svg11-tiny.dtd">
<svg version="1.1" xmlns="http://www.w3.org/2000/svg" xmlns:xlink="http://www.w3.org/1999/xlink" width="100%" height="100%" viewBox="0,0,5998,7470">
<title>SVG</title>
<desc>Poligon Test</desc>
<style id="style_css_sheet" type="text/css">
.polyStyle{fill: #cccccc;stroke-width:0;fill-rule:evenodd;}
</style>
<circle cx="1579" cy="6624" r="200" stroke="black" stroke-width="1" fill="red" id="533102"position="44411" name="瑞丽市"/>
<circle cx="5323" cy="4487" r="200" stroke="black" stroke-width="1" fill="red" id="533103"position="44433" name="芒市"/>
<circle cx="3833" cy="2643" r="200" stroke="black" stroke-width="1" fill="red" id="533122"position="334" name="梁河县"/>
<circle cx="2017" cy="3146" r="200" stroke="black" stroke-width="1" fill="red" id="533123"position="41144" name="盈江县"/>
<circle cx="1354" cy="5712" r="200" stroke="black" stroke-width="1" fill="red" id="533124"position="111112" name="陇川县"/>
<path d="" class="polyStyle" id="" style="fill:#ee8b94"/>
<path d="" class="polyStyle" id="623022" style="fill:#fbe6ef"/>
<path d="" class="polyStyle" id="211421" style="fill:#f6f67b"/>
<path d="" class="polyStyle" id="532524" style="fill:#ee8b94"/>
<path d="" class="polyStyle" id="440825" style="fill:#f6f67b"/>
<path d="" class="polyStyle" id="441721" style="fill:#f6f67b"/>
<path d="" class="polyStyle" id="450521" style="fill:#f6f67b"/>
<path d="" class="polyStyle" id="450123" style="fill:#fbe6ef"/>
<path d="" class="polyStyle" id="350624" style="fill:#f6f67b"/>
<path d="" class="polyStyle" id="" style="fill:#fbe6ef"/>
<polygon points="2800,3396 2819,3406 2847,3431 2865,3453 2901,3452 2921,3490 2958,3508 2980,3515 2984,3525 2983,3535 2973,3551 2948,3565 2958,3580 2958,3590 2965,3606 2985,3627 3012,3651 2976,3679 2953,3704 2950,3716 2959,3749 2956,3777 2945,3787 2940,3794 2940,3800 2953,3806 2992,3808 3020,3815 3030,3820 3034,3829 3027,3848 3009,3876 3014,3892 3025,3905 3032,3924 3046,3942 3082,3953 3108,3974 3149,3977 3164,3981 3194,3993 3220,4004 3253,4028 3258,4025 3285,3992 3302,3993 3323,3999 3336,4007 3350,4043 3373,4047 3405,4041 3428,4047 3451,4054 3467,4061 3481,4063 3488,4060 3494,4053 3506,4048 3542,4059 3549,4062 3591,4052 3623,4075 3659,4096 3718,4082 3725,4085 3728,4101 3729,4124 3761,4121 3788,4126 3782,4138 3778,4146 3768,4172 3749,4200 3722,4223 3703,4234 3703,4258 3674,4264 3646,4291 3622,4316 3617,4347 3599,4373 3589,4404 3579,4435 3571,4461 3556,4489 3544,4517 3517,4527 3488,4535 3458,4562 3427,4584 3404,4612 3375,4633 3346,4642 3320,4629 3293,4633 3267,4657 3241,4685 3216,4700 3184,4723 3155,4751 3133,4781 3106,4807 3078,4828 3049,4860 3032,4886 3003,4903 2975,4926 2948,4913 2922,4920 2915,4954 2924,4979 2942,5009 2963,5037 2950,5065 2946,5096 2917,5109 2886,5126 2859,5136 2843,5161 2802,5153 2773,5175 2742,5187 2726,5212 2716,5237 2689,5241 2658,5256 2637,5282 2625,5320 2618,5347 2610,5383 2614,5409 2629,5435 2662,5455 2692,5455 2719,5454 2736,5455 2751,5466 2749,5474 2726,5487 2710,5496 2709,5518 2726,5547 2731,5575 2729,5602 2722,5628 2708,5656 2697,5682 2701,5708 2704,5725 2691,5737 2666,5755 2644,5781 2616,5805 2585,5831 2560,5839 2533,5848 2506,5867 2480,5889 2458,5911 2448,5917 2436,5927 2420,5937 2407,5945 2390,5956 2374,5967 2362,5972 2350,5968 2334,5962 2318,5954 2308,5948 2301,5941 2293,5928 2289,5918 2284,5912 2276,5910 2269,5909 2263,5905 2254,5901 2237,5894 2231,5894 2221,5897 2215,5903 2208,5911 2205,5916 2200,5917 2192,5915 2180,5908 2170,5908 2160,5912 2151,5919 2142,5929 2128,5938 2108,5949 2084,5961 2067,5974 2055,5982 2046,5987 2039,5988 2036,5985 2034,5978 2030,5976 2026,5979 2023,5983 2018,5987 2014,5991 2009,5991 2003,5991 1991,5990 1978,5986 1969,5985 1960,5985 1949,5990 1943,5992 1936,5998 1931,6000 1924,6001 1916,5999 1905,5991 1891,5980 1881,5974 1874,5967 1869,5965 1864,5964 1858,5964 1849,5960 1838,5957 1825,5954 1810,5952 1798,5949 1790,5944 1782,5935 1774,5926 1765,5917 1750,5903 1739,5895 1725,5887 1702,5871 1691,5861 1687,5854 1683,5850 1675,5848 1666,5848 1657,5848 1649,5848 1639,5849 1632,5847 1625,5843 1618,5842 1611,5843 1604,5845 1597,5846 1591,5843 1586,5842 1575,5842 1565,5844 1556,5848 1549,5854 1539,5858 1530,5858 1518,5855 1506,5851 1491,5848 1474,5844 1458,5840 1445,5836 1435,5834 1430,5835 1421,5842 1416,5850 1415,5857 1416,5865 1418,5873 1420,5886 1423,5901 1426,5922 1425,5936 1417,5944 1407,5947 1393,5950 1385,5951 1382,5944 1378,5938 1371,5938 1365,5940 1361,5940 1356,5936 1354,5932 1350,5921 1346,5914 1328,5907 1311,5899 1290,5895 1283,5895 1280,5898 1281,5901 1287,5910 1288,5920 1289,5924 1285,5927 1279,5929 1258,5929 1239,5926 1224,5922 1212,5916 1204,5908 1197,5907 1188,5910 1182,5915 1176,5916 1167,5914 1159,5909 1154,5910 1152,5915 1148,5918 1143,5917 1138,5915 1129,5911 1123,5910 1118,5914 1113,5923 1108,5930 1102,5933 1098,5934 1088,5931 1079,5928 1069,5925 1064,5922 1058,5922 1056,5920 1050,5920 1043,5917 1042,5913 1047,5911 1053,5910 1062,5909 1072,5907 1076,5906 1077,5899 1075,5896 1073,5895 1070,5892 1066,5886 1067,5881 1072,5878 1079,5877 1087,5877 1096,5875 1104,5872 1112,5867 1119,5863 1126,5860 1124,5856 1123,5849 1123,5844 1125,5840 1125,5836 1123,5832 1120,5829 1118,5826 1118,5823 1118,5819 1116,5817 1112,5816 1107,5813 1104,5812 1101,5808 1098,5806 1097,5800 1095,5794 1093,5791 1090,5787 1087,5784 1083,5782 1079,5778 1075,5771 1078,5766 1076,5763 1072,5763 1066,5763 1061,5761 1058,5761 1055,5757 1050,5757 1046,5756 1041,5755 1037,5753 1033,5750 1026,5748 1021,5748 1015,5748 1007,5750 996,5750 997,5746 994,5719 991,5691 990,5665 994,5616 1001,5573 1008,5537 1028,5510 1069,5464 1098,5441 1165,5397 1190,5378 1187,5374 1183,5366 1180,5361 1177,5358 1173,5353 1169,5346 1164,5341 1159,5338 1154,5336 1147,5335 1143,5332 1138,5326 1136,5321 1137,5316 1138,5311 1135,5308 1128,5309 1125,5308 1120,5305 1118,5302 1116,5297 1111,5294 1108,5290 1106,5285 1104,5281 1104,5276 1104,5270 1103,5264 1100,5263 1093,5265 1087,5267 1079,5266 1074,5265 1071,5262 1069,5259 1068,5255 1065,5251 1062,5249 1057,5245 1054,5242 1053,5239 1055,5235 1053,5233 1049,5234 1045,5235 1037,5238 1032,5238 1029,5237 1024,5233 1021,5232 1017,5232 1011,5233 1004,5233 1000,5231 995,5228 991,5224 991,5220 993,5217 992,5212 987,5208 984,5205 973,5200 968,5200 947,5198 938,5201 929,5203 921,5205 914,5207 907,5208 903,5208 898,5205 891,5203 887,5207 883,5208 880,5208 877,5208 871,5208 864,5209 861,5211 858,5214 855,5218 851,5220 847,5221 841,5221 836,5220 832,5218 828,5215 825,5213 820,5216 812,5218 808,5219 800,5219 796,5216 789,5211 778,5207 765,5203 754,5201 740,5198 729,5198 719,5198 710,5201 695,5204 680,5205 682,5177 678,5151 670,5124 660,5098 654,5065 649,5034 656,5008 667,4979 695,4949 749,4964 788,4985 820,4973 847,4960 878,4951 903,4919 933,4898 937,4859 935,4829 914,4795 884,4786 854,4757 860,4748 871,4730 879,4720 886,4720 917,4744 949,4702 982,4668 976,4642 977,4632 994,4609 1031,4590 1057,4586 1078,4585 1108,4589 1126,4594 1143,4600 1159,4604 1167,4606 1196,4608 1208,4599 1214,4577 1196,4556 1179,4525 1181,4501 1193,4482 1227,4433 1247,4393 1257,4378 1264,4372 1283,4368 1299,4367 1318,4373 1332,4371 1338,4365 1337,4353 1336,4348 1342,4344 1366,4340 1391,4317 1412,4301 1436,4276 1468,4250 1498,4232 1526,4207 1562,4232 1571,4226 1582,4212 1585,4196 1607,4169 1627,4151 1672,4146 1680,4139 1678,4116 1671,4091 1675,4086 1681,4086 1696,4093 1704,4094 1735,4071 1776,4065 1807,4054 1829,4022 1843,3987 1861,3969 1892,3958 1915,3941 1947,3929 1967,3916 1985,3897 2012,3916 2033,3923 2067,3925 2076,3919 2104,3896 2132,3865 2156,3831 2183,3821 2211,3820 2236,3823 2255,3817 2282,3806 2308,3787 2330,3754 2359,3723 2386,3715 2410,3704 2422,3673 2430,3662 2452,3643 2462,3625 2481,3617 2500,3586 2514,3561 2549,3550 2585,3525 2602,3520 2620,3521 2634,3516 2645,3499 2660,3471 2667,3462 2676,3460 2693,3461 2700,3457 2704,3426 2709,3417 2741,3402 2760,3389 2783,3374 2792,3375 " class="polyStyle" id="533124" style="fill:#fbe6ef"/>
<path d="" class="polyStyle" id="451224" style="fill:#fbe6ef"/>
<polygon points="3970,1901 3982,1906 3991,1911 3992,1915 3993,1920 3985,1921 3973,1924 3965,1926 3959,1927 3955,1933 3956,1939 3957,1946 3950,1949 3942,1954 3938,1958 3943,1962 3951,1959 3961,1959 3969,1962 3977,1967 3980,1972 3984,1971 3988,1964 3995,1957 4001,1952 4006,1948 4013,1949 4021,1952 4032,1959 4041,1966 4049,1986 4051,2000 4052,2006 4056,2013 4056,2016 4053,2020 4042,2015 4031,2010 4015,2003 4006,1999 3998,1993 3996,1986 3994,1981 3991,1978 3988,1978 3982,1979 3974,1979 3967,1979 3960,1979 3954,1977 3951,1978 3950,1981 3949,1987 3949,1992 3952,1993 3957,1993 3963,1990 3969,1991 3974,1996 3979,2003 3984,2005 3992,2005 3999,2008 4006,2014 4008,2019 4011,2022 4016,2025 4019,2030 4018,2037 4014,2046 4013,2052 4018,2053 4024,2057 4023,2061 4014,2069 4003,2079 4003,2086 4005,2094 4006,2102 4009,2111 4013,2117 4018,2122 4022,2126 4037,2138 4060,2147 4066,2148 4072,2145 4076,2143 4077,2138 4076,2134 4064,2117 4051,2106 4052,2103 4060,2101 4065,2104 4080,2114 4094,2127 4112,2138 4134,2147 4149,2157 4151,2163 4142,2172 4137,2179 4137,2192 4140,2198 4148,2205 4153,2206 4157,2205 4165,2199 4171,2193 4179,2191 4202,2203 4207,2199 4220,2185 4226,2180 4253,2191 4257,2190 4261,2184 4267,2166 4272,2156 4281,2147 4293,2147 4309,2149 4318,2151 4321,2156 4321,2163 4314,2180 4318,2189 4323,2192 4327,2193 4330,2193 4335,2193 4341,2192 4352,2191 4364,2191 4382,2188 4382,2177 4386,2174 4395,2171 4403,2171 4414,2171 4422,2170 4437,2170 4439,2183 4454,2174 4461,2179 4470,2187 4484,2181 4492,2173 4502,2173 4509,2178 4526,2172 4533,2175 4540,2176 4546,2181 4552,2187 4553,2189 4561,2194 4571,2205 4576,2212 4581,2223 4576,2241 4570,2247 4564,2253 4560,2259 4555,2265 4552,2271 4550,2277 4553,2285 4557,2291 4563,2297 4569,2300 4578,2303 4583,2305 4596,2302 4618,2292 4635,2278 4643,2270 4650,2264 4657,2256 4662,2253 4668,2249 4681,2233 4688,2230 4698,2231 4705,2237 4708,2238 4713,2239 4720,2238 4723,2235 4725,2226 4730,2223 4734,2222 4739,2220 4745,2220 4753,2217 4756,2214 4759,2213 4766,2213 4774,2216 4781,2221 4790,2225 4800,2227 4810,2227 4817,2226 4823,2223 4826,2219 4828,2212 4827,2207 4826,2199 4823,2194 4822,2189 4823,2185 4826,2181 4832,2180 4840,2179 4848,2177 4856,2176 4864,2174 4875,2171 4885,2169 4894,2169 4903,2169 4917,2167 4926,2169 4935,2169 4941,2169 4949,2170 4958,2172 4966,2174 4973,2178 4979,2181 4986,2184 4994,2180 5000,2175 5011,2172 5016,2181 5015,2202 5018,2208 5023,2215 5029,2223 5031,2231 5029,2239 5028,2246 5025,2254 5028,2262 5034,2270 5032,2278 5031,2287 5030,2294 5030,2301 5033,2308 5040,2317 5040,2326 5038,2333 5037,2340 5036,2349 5034,2356 5033,2363 5032,2368 5032,2377 5034,2384 5040,2391 5045,2398 5048,2404 5052,2413 5055,2422 5058,2433 5061,2438 5066,2449 5072,2459 5075,2466 5080,2472 5088,2482 5089,2489 5088,2500 5093,2503 5109,2503 5116,2509 5122,2518 5125,2522 5129,2527 5130,2530 5132,2533 5133,2539 5133,2543 5130,2548 5124,2552 5119,2554 5113,2556 5113,2562 5121,2567 5128,2575 5130,2585 5130,2592 5123,2601 5116,2608 5116,2614 5121,2623 5117,2627 5111,2628 5112,2647 5113,2657 5114,2668 5111,2673 5108,2677 5102,2679 5097,2679 5094,2678 5088,2677 5081,2675 5076,2672 5073,2670 5070,2669 5066,2665 5065,2662 5063,2656 5062,2648 5058,2644 5048,2640 5033,2640 5021,2648 5009,2655 4997,2661 4982,2661 4977,2657 4971,2648 4966,2648 4959,2653 4944,2653 4926,2651 4908,2649 4906,2640 4903,2632 4887,2626 4867,2627 4849,2630 4838,2629 4820,2629 4822,2646 4814,2651 4806,2656 4800,2659 4795,2670 4787,2676 4780,2680 4774,2684 4767,2689 4760,2694 4754,2700 4748,2707 4734,2717 4737,2729 4732,2739 4726,2748 4719,2757 4709,2765 4699,2770 4686,2774 4678,2776 4670,2778 4660,2779 4649,2779 4639,2779 4630,2777 4623,2777 4618,2777 4613,2779 4609,2783 4602,2788 4595,2790 4587,2789 4582,2787 4578,2785 4573,2783 4567,2783 4561,2784 4554,2787 4548,2789 4540,2791 4531,2791 4524,2791 4516,2792 4509,2796 4487,2804 4483,2816 4475,2824 4468,2832 4463,2838 4462,2846 4461,2854 4460,2865 4474,2870 4482,2877 4487,2883 4492,2889 4495,2896 4498,2905 4500,2912 4502,2920 4502,2929 4503,2937 4507,2946 4511,2953 4516,2960 4521,2968 4536,2964 4543,2968 4558,2976 4567,2971 4577,2970 4583,2974 4586,2983 4585,2995 4584,3007 4579,3018 4579,3029 4604,3050 4593,3070 4598,3083 4599,3099 4588,3108 4569,3114 4570,3126 4567,3140 4560,3151 4553,3162 4538,3186 4549,3186 4554,3192 4562,3207 4575,3205 4581,3204 4589,3208 4594,3214 4599,3219 4604,3231 4609,3243 4613,3255 4614,3267 4615,3280 4616,3292 4617,3305 4624,3309 4617,3312 4605,3320 4598,3325 4593,3328 4586,3330 4573,3331 4564,3332 4557,3333 4550,3335 4544,3339 4537,3345 4533,3351 4530,3358 4527,3365 4524,3371 4523,3375 4518,3379 4488,3383 4477,3396 4465,3388 4460,3388 4455,3391 4436,3412 4423,3426 4409,3434 4396,3437 4380,3433 4369,3432 4363,3432 4360,3434 4356,3438 4348,3456 4340,3464 4334,3473 4338,3479 4351,3487 4362,3502 4374,3523 4378,3537 4376,3559 4372,3584 4366,3613 4363,3629 4365,3640 4375,3651 4389,3660 4396,3665 4392,3675 4390,3681 4390,3687 4391,3691 4389,3694 4386,3697 4375,3700 4363,3699 4347,3701 4341,3705 4330,3721 4319,3729 4313,3732 4303,3732 4294,3730 4287,3731 4275,3733 4269,3732 4259,3730 4253,3726 4249,3726 4245,3729 4235,3741 4222,3746 4212,3746 4203,3745 4198,3745 4192,3746 4189,3748 4184,3748 4175,3748 4165,3748 4158,3751 4150,3753 4139,3752 4130,3752 4120,3756 4113,3756 4105,3755 4098,3751 4086,3744 4074,3737 4066,3735 4061,3735 4056,3736 4054,3739 4048,3747 4043,3751 4034,3750 4027,3747 4022,3742 4016,3740 4011,3741 4009,3745 4007,3752 4009,3762 4010,3775 4010,3781 4007,3791 4000,3805 3997,3810 3997,3819 3996,3831 3991,3838 3985,3845 3980,3851 3970,3862 3961,3872 3961,3883 3964,3901 3970,3913 3971,3923 3970,3928 3963,3928 3953,3926 3942,3921 3929,3916 3908,3910 3897,3906 3886,3906 3876,3909 3867,3910 3857,3909 3848,3911 3844,3917 3844,3922 3845,3929 3848,3934 3846,3938 3843,3942 3842,3947 3842,3954 3847,3961 3846,3973 3839,3984 3822,4011 3814,4016 3807,4025 3793,4033 3788,4041 3786,4054 3785,4074 3787,4080 3788,4093 3791,4105 3789,4120 3788,4126 3761,4121 3729,4124 3728,4101 3725,4085 3718,4082 3659,4096 3623,4075 3591,4052 3549,4062 3542,4059 3506,4048 3494,4053 3488,4060 3481,4063 3467,4061 3451,4054 3428,4047 3405,4041 3373,4047 3350,4043 3336,4007 3323,3999 3302,3993 3285,3992 3258,4025 3253,4028 3220,4004 3194,3993 3164,3981 3149,3977 3108,3974 3082,3953 3046,3942 3032,3924 3025,3905 3014,3892 3009,3876 3027,3848 3034,3829 3030,3820 3020,3815 2992,3808 2953,3806 2940,3800 2940,3794 2945,3787 2956,3777 2959,3749 2950,3716 2953,3704 2976,3679 3012,3651 2985,3627 2965,3606 2976,3599 2990,3593 3004,3581 3010,3575 3010,3568 3010,3560 3013,3554 3018,3549 3023,3544 3027,3539 3028,3529 3032,3523 3037,3519 3041,3516 3046,3515 3050,3512 3052,3509 3049,3502 3049,3498 3051,3494 3054,3493 3061,3499 3066,3505 3069,3506 3072,3504 3074,3499 3073,3495 3073,3490 3073,3485 3075,3482 3077,3478 3082,3476 3084,3470 3080,3465 3074,3463 3073,3456 3074,3452 3079,3449 3091,3453 3106,3456 3120,3460 3138,3462 3154,3462 3166,3461 3173,3459 3176,3461 3177,3470 3178,3473 3183,3473 3186,3471 3194,3466 3200,3461 3205,3454 3211,3447 3216,3444 3220,3444 3224,3444 3228,3443 3231,3441 3233,3436 3238,3431 3244,3423 3248,3420 3250,3423 3251,3427 3252,3432 3256,3436 3266,3438 3274,3438 3284,3433 3291,3427 3297,3420 3300,3415 3300,3409 3299,3403 3300,3399 3304,3396 3314,3397 3328,3399 3334,3398 3342,3396 3348,3392 3350,3387 3346,3383 3339,3379 3336,3373 3336,3369 3338,3366 3343,3361 3359,3355 3370,3350 3378,3345 3378,3338 3377,3329 3378,3317 3381,3312 3387,3308 3397,3309 3406,3309 3413,3306 3419,3300 3425,3292 3429,3284 3437,3281 3447,3282 3457,3283 3463,3282 3468,3280 3466,3273 3462,3267 3456,3263 3451,3259 3451,3254 3451,3248 3453,3242 3453,3238 3449,3233 3442,3227 3437,3223 3434,3216 3432,3203 3430,3189 3427,3177 3422,3172 3415,3171 3408,3170 3403,3170 3398,3166 3396,3160 3395,3143 3396,3129 3393,3120 3387,3119 3380,3118 3370,3120 3360,3128 3355,3132 3348,3133 3341,3131 3339,3127 3343,3119 3352,3107 3356,3094 3357,3081 3352,3072 3346,3061 3339,3053 3337,3047 3337,3041 3342,3036 3348,3030 3350,3027 3350,3021 3351,3018 3354,3014 3361,3012 3365,3011 3366,3006 3367,3000 3366,2991 3357,2982 3343,2972 3333,2967 3327,2965 3324,2961 3328,2957 3333,2953 3333,2948 3333,2941 3334,2938 3337,2935 3347,2934 3354,2934 3361,2934 3368,2932 3373,2927 3373,2921 3370,2903 3362,2877 3353,2856 3345,2847 3338,2841 3331,2835 3335,2830 3340,2820 3342,2815 3342,2806 3336,2799 3331,2796 3324,2791 3317,2790 3311,2787 3306,2785 3305,2781 3305,2776 3308,2773 3313,2771 3320,2771 3328,2773 3334,2771 3334,2763 3330,2757 3323,2746 3318,2739 3309,2728 3294,2711 3276,2692 3260,2682 3247,2673 3237,2669 3223,2662 3215,2661 3208,2658 3202,2657 3197,2652 3194,2646 3189,2634 3186,2628 3184,2622 3185,2616 3189,2613 3192,2609 3199,2603 3203,2594 3211,2582 3214,2575 3210,2572 3206,2569 3204,2564 3204,2559 3208,2550 3218,2535 3223,2527 3229,2513 3236,2507 3245,2500 3253,2493 3256,2484 3260,2477 3261,2470 3266,2466 3277,2464 3292,2459 3300,2458 3305,2454 3307,2446 3307,2438 3307,2430 3307,2419 3313,2403 3319,2394 3328,2383 3337,2374 3348,2365 3354,2360 3358,2357 3363,2357 3368,2358 3374,2359 3379,2357 3384,2356 3387,2352 3390,2345 3393,2341 3401,2332 3409,2326 3417,2323 3422,2318 3426,2310 3429,2300 3436,2293 3441,2287 3448,2282 3456,2279 3463,2274 3468,2270 3468,2263 3470,2256 3472,2248 3477,2241 3486,2234 3494,2223 3499,2213 3500,2205 3504,2200 3507,2197 3510,2198 3516,2200 3520,2196 3521,2186 3521,2176 3523,2169 3528,2165 3537,2162 3543,2158 3545,2152 3545,2139 3549,2122 3555,2108 3561,2095 3568,2078 3573,2067 3586,2070 3593,2075 3597,2079 3605,2084 3612,2086 3615,2086 3619,2083 3623,2067 3628,2056 3635,2049 3641,2046 3657,2039 3679,2025 3694,2007 3709,1998 3721,1993 3736,1991 3752,1991 3773,1992 3789,1993 3799,1992 3811,1987 3821,1981 3833,1973 3844,1964 3856,1956 3867,1948 3879,1939 3894,1925 3909,1913 3918,1900 3927,1895 3940,1895 3958,1899 " class="polyStyle" id="533122" style="fill:#f6f67b"/>
<path d="" class="polyStyle" id="350627" style="fill:#f6f67b"/>
<path d="" class="polyStyle" id="" style="fill:#f6f67b"/>
<polygon points="2816,58 2835,61 2856,61 2871,69 2870,80 2856,96 2855,113 2867,127 2886,136 2901,151 2902,170 2901,209 2916,227 2946,251 2967,266 2988,275 2994,273 2999,266 3007,254 3015,250 3042,245 3062,253 3092,271 3112,282 3124,303 3127,330 3135,351 3147,358 3162,358 3175,363 3190,381 3226,401 3251,413 3283,429 3303,442 3319,450 3323,453 3323,459 3322,467 3321,473 3320,481 3316,489 3311,500 3306,510 3298,521 3294,531 3289,542 3285,554 3284,564 3285,570 3291,581 3295,588 3303,601 3308,609 3312,619 3315,628 3314,639 3310,647 3304,654 3291,667 3286,675 3284,690 3283,700 3282,709 3280,718 3269,726 3267,729 3266,740 3262,745 3249,749 3243,751 3240,754 3235,761 3234,767 3230,777 3229,781 3219,791 3216,795 3213,803 3205,812 3196,818 3197,822 3202,831 3204,836 3204,839 3204,842 3205,848 3206,852 3210,858 3214,865 3215,868 3214,876 3213,880 3216,890 3219,896 3222,902 3225,909 3232,918 3243,924 3250,929 3252,932 3254,936 3255,941 3254,947 3251,959 3251,966 3253,969 3256,974 3265,979 3274,985 3275,988 3285,994 3304,995 3319,996 3336,998 3351,1004 3367,1033 3393,1071 3417,1086 3445,1106 3479,1129 3505,1151 3516,1161 3522,1158 3533,1149 3548,1140 3570,1132 3599,1129 3621,1135 3642,1151 3648,1164 3660,1178 3668,1181 3678,1179 3683,1182 3681,1186 3680,1195 3676,1207 3677,1213 3691,1214 3698,1214 3703,1218 3705,1232 3702,1252 3698,1260 3685,1262 3669,1271 3664,1276 3662,1287 3654,1301 3648,1312 3638,1322 3626,1341 3622,1360 3621,1378 3625,1402 3623,1416 3619,1425 3603,1436 3597,1445 3582,1472 3561,1506 3527,1547 3496,1603 3476,1641 3466,1660 3447,1675 3441,1680 3442,1686 3452,1703 3459,1723 3468,1748 3469,1770 3466,1799 3459,1819 3450,1843 3447,1869 3449,1878 3455,1882 3467,1881 3479,1879 3497,1892 3517,1905 3537,1922 3551,1935 3552,1944 3550,1951 3543,1954 3522,1948 3511,1938 3501,1923 3487,1913 3481,1911 3478,1913 3473,1917 3476,1927 3485,1937 3498,1947 3509,1961 3509,1975 3507,1988 3511,1993 3520,1993 3538,1996 3546,2003 3559,2021 3573,2025 3589,2024 3600,2026 3594,2038 3587,2057 3573,2067 3568,2078 3561,2095 3555,2108 3549,2122 3545,2139 3545,2152 3543,2158 3537,2162 3528,2165 3523,2169 3521,2176 3521,2186 3520,2196 3516,2200 3510,2198 3507,2197 3504,2200 3500,2205 3499,2213 3494,2223 3486,2234 3477,2241 3472,2248 3470,2256 3468,2263 3468,2270 3463,2274 3456,2279 3448,2282 3441,2287 3436,2293 3429,2300 3426,2310 3422,2318 3417,2323 3409,2326 3401,2332 3393,2341 3390,2345 3387,2352 3384,2356 3379,2357 3374,2359 3368,2358 3363,2357 3358,2357 3354,2360 3348,2365 3337,2374 3328,2383 3319,2394 3313,2403 3307,2419 3307,2430 3307,2438 3307,2446 3305,2454 3300,2458 3292,2459 3277,2464 3266,2466 3261,2470 3260,2477 3256,2484 3253,2493 3245,2500 3236,2507 3229,2513 3223,2527 3218,2535 3208,2550 3204,2559 3204,2564 3206,2569 3210,2572 3214,2575 3211,2582 3203,2594 3199,2603 3192,2609 3189,2613 3185,2616 3184,2622 3186,2628 3189,2634 3194,2646 3197,2652 3202,2657 3208,2658 3215,2661 3223,2662 3237,2669 3247,2673 3260,2682 3276,2692 3294,2711 3309,2728 3318,2739 3323,2746 3330,2757 3334,2763 3334,2771 3328,2773 3320,2771 3313,2771 3308,2773 3305,2776 3305,2781 3306,2785 3311,2787 3317,2790 3324,2791 3331,2796 3336,2799 3342,2806 3342,2815 3340,2820 3335,2830 3331,2835 3338,2841 3345,2847 3353,2856 3362,2877 3370,2903 3373,2921 3373,2927 3368,2932 3361,2934 3354,2934 3347,2934 3337,2935 3334,2938 3333,2941 3333,2948 3333,2953 3328,2957 3324,2961 3327,2965 3333,2967 3343,2972 3357,2982 3366,2991 3367,3000 3366,3006 3365,3011 3361,3012 3354,3014 3351,3018 3350,3021 3350,3027 3348,3030 3342,3036 3337,3041 3337,3047 3339,3053 3346,3061 3352,3072 3357,3081 3356,3094 3352,3107 3343,3119 3339,3127 3341,3131 3348,3133 3355,3132 3360,3128 3370,3120 3380,3118 3387,3119 3393,3120 3396,3129 3395,3143 3396,3160 3398,3166 3403,3170 3408,3170 3415,3171 3422,3172 3427,3177 3430,3189 3432,3203 3434,3216 3437,3223 3442,3227 3449,3233 3453,3238 3453,3242 3451,3248 3451,3254 3451,3259 3456,3263 3462,3267 3466,3273 3468,3280 3463,3282 3457,3283 3447,3282 3437,3281 3429,3284 3425,3292 3419,3300 3413,3306 3406,3309 3397,3309 3387,3308 3381,3312 3378,3317 3377,3329 3378,3338 3378,3345 3370,3350 3359,3355 3343,3361 3338,3366 3336,3369 3336,3373 3339,3379 3346,3383 3350,3387 3348,3392 3342,3396 3334,3398 3328,3399 3314,3397 3304,3396 3300,3399 3299,3403 3300,3409 3300,3415 3297,3420 3291,3427 3284,3433 3274,3438 3266,3438 3256,3436 3252,3432 3251,3427 3250,3423 3248,3420 3244,3423 3238,3431 3233,3436 3231,3441 3228,3443 3224,3444 3220,3444 3216,3444 3211,3447 3205,3454 3200,3461 3194,3466 3186,3471 3183,3473 3178,3473 3177,3470 3176,3461 3173,3459 3166,3461 3154,3462 3138,3462 3120,3460 3106,3456 3091,3453 3079,3449 3074,3452 3073,3456 3074,3463 3080,3465 3084,3470 3082,3476 3077,3478 3075,3482 3073,3485 3073,3490 3073,3495 3074,3499 3072,3504 3069,3506 3066,3505 3061,3499 3054,3493 3051,3494 3049,3498 3049,3502 3052,3509 3050,3512 3046,3515 3041,3516 3037,3519 3032,3523 3028,3529 3027,3539 3023,3544 3018,3549 3013,3554 3010,3560 3010,3568 3010,3575 3004,3581 2990,3593 2976,3599 2965,3606 2958,3590 2958,3580 2948,3565 2973,3551 2983,3535 2984,3525 2980,3515 2958,3508 2921,3490 2901,3452 2865,3453 2847,3431 2819,3406 2800,3396 2792,3375 2783,3374 2760,3389 2741,3402 2709,3417 2704,3426 2700,3457 2693,3461 2676,3460 2667,3462 2660,3471 2645,3499 2634,3516 2620,3521 2602,3520 2585,3525 2549,3550 2514,3561 2500,3586 2481,3617 2462,3625 2452,3643 2430,3662 2422,3673 2410,3704 2386,3715 2359,3723 2330,3754 2308,3787 2282,3806 2255,3817 2236,3823 2211,3820 2183,3821 2156,3831 2132,3865 2104,3896 2076,3919 2067,3925 2033,3923 2012,3916 1985,3897 1967,3916 1947,3929 1915,3941 1892,3958 1861,3969 1843,3987 1829,4022 1807,4054 1776,4065 1735,4071 1704,4094 1696,4093 1681,4086 1675,4086 1671,4091 1678,4116 1680,4139 1672,4146 1627,4151 1607,4169 1585,4196 1582,4212 1571,4226 1562,4232 1526,4207 1498,4232 1468,4250 1436,4276 1412,4301 1391,4317 1366,4340 1342,4344 1336,4348 1337,4353 1338,4365 1332,4371 1318,4373 1299,4367 1283,4368 1264,4372 1257,4378 1247,4393 1227,4433 1193,4482 1181,4501 1179,4525 1196,4556 1214,4577 1208,4599 1196,4608 1167,4606 1159,4604 1143,4600 1126,4594 1108,4589 1078,4585 1057,4586 1031,4590 994,4609 977,4632 976,4642 982,4668 949,4702 917,4744 886,4720 879,4720 871,4730 860,4748 854,4757 821,4751 792,4722 762,4683 755,4657 745,4631 735,4535 739,4507 739,4474 724,4439 705,4412 697,4416 690,4419 684,4421 676,4423 667,4424 660,4425 649,4430 639,4434 631,4436 624,4438 616,4440 609,4441 591,4442 586,4443 579,4445 571,4449 564,4451 556,4453 552,4453 547,4453 540,4454 535,4456 528,4457 522,4460 516,4461 506,4462 497,4463 490,4464 484,4466 478,4468 472,4470 465,4473 459,4477 453,4478 446,4480 437,4479 429,4478 423,4479 416,4480 410,4482 404,4484 397,4486 389,4485 381,4483 371,4476 363,4471 359,4467 356,4464 352,4464 348,4468 344,4471 341,4474 337,4476 332,4478 328,4478 324,4480 320,4484 316,4490 313,4496 309,4497 302,4499 297,4498 288,4492 279,4486 269,4481 263,4477 256,4474 250,4472 244,4471 239,4471 234,4474 229,4480 226,4484 222,4485 217,4482 214,4479 211,4476 208,4476 204,4478 198,4482 193,4484 186,4487 179,4487 171,4486 162,4484 158,4483 151,4483 142,4484 132,4485 123,4485 112,4485 104,4484 97,4484 91,4485 85,4488 78,4490 69,4493 59,4496 53,4497 49,4498 43,4501 38,4504 33,4509 30,4511 24,4508 17,4507 11,4507 9,4504 9,4501 10,4497 13,4494 17,4491 22,4487 27,4482 29,4479 27,4476 24,4475 21,4475 18,4476 15,4476 11,4476 8,4473 6,4470 6,4466 7,4460 9,4454 12,4448 18,4439 24,4429 28,4422 31,4416 32,4411 32,4407 32,4402 41,4390 45,4386 49,4383 53,4375 56,4368 61,4361 66,4351 72,4344 76,4338 83,4330 88,4324 92,4319 94,4313 94,4309 95,4301 98,4293 100,4286 102,4280 106,4274 110,4271 114,4269 115,4265 116,4259 119,4253 121,4250 122,4245 124,4237 126,4229 129,4223 130,4216 131,4207 130,4195 131,4168 131,4163 131,4157 130,4151 129,4147 128,4141 129,4135 133,4124 135,4117 135,4110 134,4103 132,4096 130,4092 128,4085 129,4078 143,4066 146,4062 147,4057 148,4052 149,4045 150,4039 149,4034 149,4027 149,4020 150,4012 151,4005 152,3997 152,3990 154,3984 155,3950 157,3941 157,3935 156,3929 156,3924 156,3919 156,3915 174,3893 174,3888 173,3884 171,3879 169,3871 167,3863 165,3856 164,3850 164,3842 163,3830 163,3822 164,3814 165,3809 167,3802 170,3799 172,3796 174,3792 182,3766 183,3758 184,3751 185,3744 183,3735 180,3728 180,3718 184,3710 191,3700 196,3695 200,3690 204,3685 207,3681 210,3674 211,3671 211,3667 209,3663 206,3658 202,3655 199,3653 197,3650 194,3645 192,3640 192,3627 194,3619 195,3616 195,3611 198,3608 201,3606 205,3603 209,3601 211,3597 210,3594 208,3591 205,3589 203,3586 202,3579 202,3570 202,3565 201,3559 200,3553 199,3548 198,3543 197,3538 196,3533 196,3528 195,3524 199,3494 201,3490 203,3485 204,3482 205,3478 205,3473 205,3468 202,3462 200,3457 198,3452 197,3445 198,3437 199,3431 200,3426 202,3420 206,3416 212,3412 216,3411 225,3406 228,3402 230,3398 231,3394 231,3390 229,3385 228,3381 224,3377 221,3374 218,3372 209,3370 204,3369 202,3364 202,3360 203,3355 203,3349 202,3344 200,3339 199,3335 199,3329 200,3322 200,3316 201,3311 202,3306 202,3303 203,3298 202,3293 200,3289 199,3285 198,3281 197,3276 197,3271 198,3266 197,3260 195,3254 195,3250 195,3246 195,3239 196,3234 196,3230 195,3224 188,3210 186,3205 184,3201 183,3195 183,3191 188,3171 191,3163 194,3156 198,3150 200,3144 201,3139 203,3133 203,3129 203,3124 203,3120 202,3117 199,3112 198,3109 197,3104 197,3099 199,3093 200,3087 200,3082 200,3078 198,3073 195,3068 190,3066 186,3065 185,3062 183,3058 181,3053 178,3048 176,3045 171,3041 168,3042 164,3042 159,3042 156,3043 153,3042 147,3042 140,3041 135,3040 131,3037 123,3034 119,3031 115,3026 108,3021 105,3017 101,3013 99,3009 96,3001 95,2998 96,2995 96,2991 96,2986 93,2984 89,2984 93,2981 96,2977 101,2971 105,2966 110,2960 116,2956 125,2946 132,2942 137,2939 141,2938 145,2936 149,2934 153,2931 158,2928 161,2926 163,2921 166,2916 169,2911 175,2905 177,2899 177,2893 178,2886 179,2879 180,2874 182,2870 187,2862 192,2859 196,2857 200,2853 204,2847 208,2843 212,2840 218,2839 223,2837 229,2838 237,2839 241,2838 245,2837 250,2835 255,2834 259,2833 263,2834 268,2834 273,2836 279,2839 285,2841 292,2842 299,2843 306,2842 312,2840 317,2838 323,2834 328,2829 332,2825 335,2821 340,2815 344,2813 350,2810 355,2810 359,2809 364,2809 369,2808 381,2809 391,2808 396,2808 400,2806 404,2804 413,2800 420,2798 426,2797 432,2796 437,2797 445,2798 448,2796 451,2794 453,2791 454,2786 459,2777 461,2774 466,2771 471,2768 476,2765 487,2758 501,2751 516,2745 524,2741 529,2739 536,2735 548,2731 552,2730 563,2728 575,2724 578,2722 580,2719 584,2716 590,2713 595,2712 602,2713 605,2719 609,2721 615,2720 619,2718 622,2713 624,2707 627,2702 632,2698 634,2695 640,2687 647,2680 651,2674 656,2667 660,2659 665,2650 670,2641 676,2634 680,2625 685,2620 691,2617 697,2612 701,2606 719,2581 743,2555 772,2539 798,2534 824,2520 853,2493 860,2467 888,2491 924,2510 949,2515 981,2522 1011,2536 1033,2541 1060,2535 1090,2543 1115,2550 1143,2550 1173,2549 1209,2546 1242,2528 1258,2500 1285,2488 1313,2470 1341,2449 1346,2433 1347,2430 1348,2424 1348,2419 1349,2414 1350,2409 1354,2404 1354,2399 1353,2395 1348,2390 1344,2387 1337,2385 1333,2384 1328,2383 1322,2383 1318,2382 1314,2381 1310,2379 1307,2376 1305,2371 1304,2365 1304,2360 1304,2354 1304,2347 1305,2342 1306,2336 1303,2333 1297,2328 1293,2324 1290,2321 1288,2315 1288,2311 1287,2308 1285,2303 1284,2300 1283,2297 1282,2294 1278,2291 1270,2288 1257,2284 1249,2280 1242,2274 1235,2269 1230,2265 1224,2263 1218,2261 1213,2260 1207,2259 1200,2261 1194,2262 1190,2266 1185,2272 1182,2277 1179,2281 1176,2282 1172,2283 1168,2283 1163,2281 1159,2279 1154,2276 1148,2272 1143,2268 1140,2265 1138,2262 1136,2257 1132,2252 1128,2248 1124,2244 1120,2239 1115,2236 1109,2234 1104,2232 1097,2230 1093,2228 1088,2224 1084,2221 1080,2217 1077,2213 1074,2208 1073,2204 1071,2198 1068,2194 1066,2191 1063,2188 1061,2182 1058,2177 1055,2171 1049,2166 1045,2159 1039,2153 1033,2148 1027,2147 1020,2145 1014,2142 1009,2139 1006,2137 1003,2134 1002,2128 1002,2123 1004,2118 1004,2113 1004,2106 1003,2099 1005,2092 1005,2086 1005,2081 1003,2073 1001,2063 999,2057 999,2049 999,2043 1000,2036 1002,2029 1006,2022 1009,2015 1012,2008 1013,2001 1014,1994 1012,1988 1010,1979 1009,1972 1009,1965 1011,1956 1013,1951 1013,1946 1013,1942 1010,1935 1007,1929 1004,1923 1002,1916 1000,1907 998,1896 995,1885 995,1877 994,1872 989,1867 982,1862 977,1857 971,1854 962,1847 957,1843 955,1839 952,1835 952,1831 952,1825 954,1820 953,1814 951,1807 946,1800 942,1794 938,1785 938,1779 939,1772 943,1764 945,1758 947,1754 947,1750 946,1745 946,1742 947,1736 950,1730 951,1725 951,1722 949,1716 946,1712 944,1708 941,1703 942,1700 947,1696 955,1691 955,1687 955,1673 956,1665 954,1642 955,1638 955,1633 954,1626 952,1622 948,1617 948,1612 950,1598 953,1585 956,1573 960,1562 962,1552 967,1541 973,1528 975,1523 977,1519 981,1511 984,1499 984,1492 984,1483 986,1477 992,1468 999,1456 1001,1448 1001,1444 999,1439 998,1436 997,1430 996,1419 993,1411 989,1404 989,1397 988,1394 990,1386 990,1382 987,1375 986,1370 986,1367 990,1353 988,1344 984,1334 977,1326 975,1322 971,1319 968,1312 967,1302 968,1295 967,1291 963,1280 962,1273 962,1270 964,1266 966,1264 969,1266 974,1265 981,1262 990,1255 993,1251 999,1246 1004,1244 1008,1248 1009,1254 1011,1265 1013,1273 1018,1279 1027,1283 1042,1287 1050,1287 1060,1288 1067,1286 1074,1282 1082,1277 1087,1268 1090,1257 1094,1247 1100,1237 1104,1227 1107,1221 1112,1216 1121,1212 1129,1211 1136,1210 1141,1207 1147,1201 1150,1190 1152,1181 1155,1175 1166,1169 1170,1166 1173,1152 1176,1148 1179,1147 1183,1145 1190,1139 1197,1128 1203,1118 1206,1112 1215,1101 1222,1093 1227,1086 1234,1079 1239,1072 1240,1067 1239,1057 1240,1043 1243,1031 1248,1017 1254,1007 1257,1003 1261,996 1266,990 1278,977 1279,969 1280,956 1284,944 1286,941 1292,933 1309,920 1317,911 1320,904 1323,901 1336,896 1339,891 1342,884 1342,879 1343,875 1347,866 1357,858 1360,854 1361,850 1358,845 1349,842 1346,840 1345,833 1346,830 1350,817 1354,807 1359,803 1369,800 1373,790 1366,778 1365,769 1366,761 1367,754 1369,746 1374,735 1380,729 1385,726 1392,717 1396,710 1398,699 1401,692 1402,689 1402,684 1399,679 1397,675 1396,672 1404,657 1407,650 1416,635 1421,626 1422,623 1427,611 1432,601 1434,593 1434,580 1435,574 1440,565 1449,555 1458,547 1460,544 1456,534 1455,528 1455,515 1456,513 1459,504 1463,497 1475,484 1482,477 1494,464 1499,455 1504,440 1508,431 1513,422 1520,414 1527,404 1529,394 1531,384 1535,373 1541,353 1545,341 1547,323 1580,331 1607,345 1633,358 1664,367 1693,361 1724,379 1743,411 1763,441 1782,466 1801,496 1833,522 1849,548 1864,574 1890,596 1918,613 1944,620 1974,613 2003,610 2027,610 2057,609 2076,592 2106,569 2120,543 2139,517 2155,491 2178,471 2204,457 2230,440 2263,412 2289,393 2309,367 2326,338 2350,311 2381,290 2378,257 2378,226 2381,200 2404,168 2430,149 2465,137 2496,157 2526,164 2562,164 2596,158 2629,151 2656,142 2688,123 2711,96 2712,65 2717,38 2733,12 2763,4 2794,1 2796,0 2802,31 " class="polyStyle" id="533123" style="fill:#ee8b94"/>
<path d="" class="polyStyle" id="350525" style="fill:#f6f67b"/>
<path d="" class="polyStyle" id="530124" style="fill:#ee8b94"/>
<path d="" class="polyStyle" id="522627" style="fill:#ee8b94"/>
<path d="" class="polyStyle" id="510421" style="fill:#fbe6ef"/>
<path d="" class="polyStyle" id="522623" style="fill:#d4ecb2"/>
<path d="" class="polyStyle" id="430321" style="fill:#d4ecb2"/>
<path d="" class="polyStyle" id="511129" style="fill:#d4ecb2"/>
<path d="" class="polyStyle" id="511423" style="fill:#ee8b94"/>
<path d="" class="polyStyle" id="421023" style="fill:#f6f67b"/>
<path d="" class="polyStyle" id="511724" style="fill:#f6f67b"/>
<path d="" class="polyStyle" id="420526" style="fill:#fbe6ef"/>
<path d="" class="polyStyle" id="511923" style="fill:#fbe6ef"/>
<path d="" class="polyStyle" id="420325" style="fill:#fbe6ef"/>
<path d="" class="polyStyle" id="511921" style="fill:#f6f67b"/>
<path d="" class="polyStyle" id="542525" style="fill:#f6f67b"/>
<path d="" class="polyStyle" id="611026" style="fill:#ee8b94"/>
<path d="" class="polyStyle" id="411023" style="fill:#fbe6ef"/>
<path d="" class="polyStyle" id="632323" style="fill:#f6f67b"/>
<path d="" class="polyStyle" id="140525" style="fill:#d4ecb2"/>
<path d="" class="polyStyle" id="410922" style="fill:#ee8b94"/>
<path d="" class="polyStyle" id="621027" style="fill:#ee8b94"/>
<path d="" class="polyStyle" id="130427" style="fill:#f6f67b"/>
<path d="" class="polyStyle" id="130121" style="fill:#ee8b94"/>
<path d="" class="polyStyle" id="610823" style="fill:#fbe6ef"/>
<path d="" class="polyStyle" id="130225" style="fill:#fbe6ef"/>
<path d="" class="polyStyle" id="130322" style="fill:#d4ecb2"/>
<path d="" class="polyStyle" id="653130" style="fill:#f6f67b"/>
<path d="" class="polyStyle" id="130822" style="fill:#fbe6ef"/>
<path d="" class="polyStyle" id="211221" style="fill:#f6f67b"/>
<path d="" class="polyStyle" id="210921" style="fill:#f6f67b"/>
<path d="" class="polyStyle" id="150223" style="fill:#f8c67d"/>
<path d="" class="polyStyle" id="220422" style="fill:#d4ecb2"/>
<path d="" class="polyStyle" id="340721" style="fill:#f6f67b"/>
<path d="" class="polyStyle" id="510824" style="fill:#d4ecb2"/>
<path d="" class="polyStyle" id="610324" style="fill:#f6f67b"/>
<path d="" class="polyStyle" id="530722" style="fill:#ee8b94"/>
<path d="" class="polyStyle" id="340823" style="fill:#d4ecb2"/>
<path d="" class="polyStyle" id="620825" style="fill:#d4ecb2"/>
<path d="" class="polyStyle" id="421125" style="fill:#ee8b94"/>
<path d="" class="polyStyle" id="210281" style="fill:#ee8b94"/>
<path d="" class="polyStyle" id="440883" style="fill:#f6f67b"/>
<path d="" class="polyStyle" id="469006" style="fill:#d4ecb2"/>
<path d="" class="polyStyle" id="469002" style="fill:#ee8b94"/>
<path d="" class="polyStyle" id="469005" style="fill:#fbe6ef"/>
<path d="" class="polyStyle" id="440882" style="fill:#ee8b94"/>
<path d="" class="polyStyle" id="450681" style="fill:#ee8b94"/>
<path d="" class="polyStyle" id="441581" style="fill:#d4ecb2"/>
<polygon points="1458,5840 1474,5844 1491,5848 1506,5851 1518,5855 1530,5858 1539,5858 1549,5854 1556,5848 1565,5844 1575,5842 1586,5842 1591,5843 1597,5846 1604,5845 1611,5843 1618,5842 1625,5843 1632,5847 1639,5849 1649,5848 1657,5848 1666,5848 1675,5848 1683,5850 1687,5854 1691,5861 1702,5871 1725,5887 1739,5895 1750,5903 1765,5917 1774,5926 1782,5935 1790,5944 1798,5949 1810,5952 1825,5954 1838,5957 1849,5960 1858,5964 1864,5964 1869,5965 1874,5967 1881,5974 1891,5980 1905,5991 1916,5999 1924,6001 1931,6000 1936,5998 1943,5992 1949,5990 1960,5985 1969,5985 1978,5986 1991,5990 2003,5991 2009,5991 2014,5991 2018,5987 2023,5983 2026,5979 2030,5976 2034,5978 2036,5985 2039,5988 2046,5987 2055,5982 2067,5974 2084,5961 2108,5949 2128,5938 2142,5929 2151,5919 2160,5912 2170,5908 2180,5908 2192,5915 2200,5917 2205,5916 2208,5911 2215,5903 2221,5897 2231,5894 2237,5894 2254,5901 2263,5905 2269,5909 2276,5910 2284,5912 2289,5918 2293,5928 2301,5941 2308,5948 2318,5954 2334,5962 2350,5968 2362,5972 2374,5967 2390,5956 2407,5945 2420,5937 2436,5927 2448,5917 2458,5911 2467,5921 2475,5939 2520,5964 2532,6010 2546,6051 2563,6064 2592,6051 2617,6047 2643,6050 2668,6028 2698,6012 2729,5999 2772,5976 2791,5978 2828,6017 2832,6041 2841,6046 2856,6051 2865,6055 2888,6061 2898,6053 2924,6056 2950,6060 2964,6052 2977,6032 3006,6023 3037,6027 3070,6037 3102,6048 3167,6059 3159,6081 3165,6109 3180,6138 3192,6184 3184,6184 3174,6185 3164,6186 3154,6188 3145,6191 3134,6195 3125,6198 3116,6200 3107,6203 3100,6205 3096,6208 3085,6207 3074,6207 3065,6208 3058,6209 3050,6211 3042,6213 3032,6214 3025,6215 3019,6216 3008,6213 3003,6213 2996,6213 2990,6213 2983,6214 2977,6215 2972,6216 2966,6218 2962,6219 2956,6220 2951,6220 2947,6220 2943,6220 2939,6219 2933,6218 2927,6217 2920,6217 2915,6217 2910,6217 2905,6215 2902,6219 2897,6222 2891,6225 2887,6227 2882,6228 2877,6231 2874,6234 2869,6235 2864,6237 2859,6241 2853,6244 2849,6245 2843,6247 2834,6247 2829,6248 2823,6248 2819,6248 2814,6248 2809,6249 2802,6252 2799,6254 2797,6257 2797,6262 2797,6267 2798,6270 2798,6273 2798,6277 2797,6281 2792,6283 2788,6282 2783,6279 2778,6279 2771,6280 2766,6281 2761,6283 2755,6286 2752,6288 2748,6292 2747,6295 2743,6297 2727,6297 2724,6294 2721,6290 2719,6286 2714,6284 2709,6286 2704,6289 2698,6291 2694,6291 2689,6293 2684,6297 2681,6298 2677,6300 2673,6299 2670,6297 2667,6296 2664,6296 2660,6297 2657,6298 2654,6298 2650,6297 2647,6297 2643,6297 2637,6302 2633,6305 2630,6309 2628,6312 2625,6315 2622,6317 2617,6318 2610,6319 2604,6318 2597,6315 2592,6315 2588,6314 2583,6316 2578,6320 2574,6324 2571,6325 2565,6327 2560,6327 2556,6328 2553,6329 2550,6331 2546,6333 2543,6334 2540,6336 2537,6339 2532,6343 2528,6344 2524,6346 2521,6350 2517,6350 2512,6352 2509,6353 2502,6358 2496,6361 2490,6366 2485,6371 2480,6375 2475,6378 2470,6383 2462,6388 2456,6391 2450,6395 2448,6400 2447,6403 2444,6406 2440,6407 2435,6408 2430,6408 2425,6408 2422,6411 2419,6417 2416,6421 2410,6423 2405,6424 2401,6425 2396,6428 2393,6432 2389,6435 2383,6436 2378,6435 2375,6433 2370,6430 2365,6431 2361,6433 2357,6436 2351,6435 2347,6436 2343,6437 2337,6440 2334,6445 2332,6449 2331,6455 2327,6461 2322,6467 2320,6471 2318,6476 2317,6480 2313,6485 2310,6489 2306,6492 2301,6494 2297,6496 2293,6499 2290,6504 2288,6509 2285,6514 2281,6518 2278,6520 2272,6523 2265,6525 2251,6529 2246,6530 2234,6531 2211,6532 2203,6533 2198,6534 2189,6537 2159,6551 2142,6556 2123,6561 2115,6564 2094,6574 2066,6587 2055,6591 2044,6591 2038,6588 2032,6585 2026,6583 2017,6582 2002,6581 1976,6576 1966,6575 1956,6575 1939,6579 1888,6598 1867,6609 1845,6626 1780,6690 1775,6698 1773,6707 1772,6718 1774,6731 1783,6760 1799,6788 1802,6796 1802,6802 1798,6812 1795,6816 1790,6819 1785,6821 1779,6821 1757,6817 1735,6808 1720,6797 1695,6770 1681,6762 1671,6760 1661,6761 1633,6769 1620,6775 1613,6781 1599,6795 1592,6805 1587,6816 1584,6832 1583,6853 1581,6860 1574,6866 1563,6870 1552,6870 1543,6868 1535,6859 1522,6837 1515,6826 1507,6817 1502,6814 1493,6813 1488,6816 1485,6837 1491,6862 1492,6879 1488,6896 1480,6912 1469,6927 1454,6942 1442,6951 1434,6955 1428,6955 1423,6950 1421,6946 1422,6941 1427,6930 1438,6913 1450,6889 1453,6880 1453,6865 1448,6854 1443,6855 1432,6866 1409,6891 1397,6900 1388,6904 1375,6905 1349,6901 1342,6904 1338,6911 1325,6948 1318,6958 1308,6967 1292,6975 1252,6991 1239,6997 1231,7003 1215,7019 1207,7040 1202,7071 1198,7094 1195,7101 1189,7109 1165,7136 1149,7147 1129,7156 1061,7177 1022,7192 1009,7200 996,7212 985,7223 976,7235 968,7248 961,7264 957,7272 953,7276 948,7278 941,7277 913,7267 898,7264 890,7266 875,7274 866,7281 867,7286 876,7293 892,7299 917,7303 926,7306 933,7312 936,7319 935,7328 930,7340 913,7370 906,7377 898,7378 891,7377 879,7372 831,7339 825,7335 821,7330 814,7319 810,7308 806,7284 802,7282 797,7283 784,7289 779,7293 769,7303 766,7313 762,7351 756,7369 744,7384 728,7395 706,7404 696,7407 688,7407 679,7406 673,7403 668,7394 666,7377 662,7369 658,7366 650,7364 644,7365 628,7389 613,7408 610,7417 611,7439 605,7465 603,7468 599,7470 595,7470 592,7468 590,7462 590,7451 592,7437 590,7432 580,7414 575,7393 572,7388 567,7384 557,7374 554,7371 552,7366 553,7358 553,7353 557,7341 560,7326 559,7317 557,7314 553,7312 540,7311 531,7310 526,7305 524,7298 524,7285 523,7278 519,7274 512,7273 502,7276 486,7279 471,7272 466,7266 454,7239 444,7229 432,7224 424,7223 405,7223 400,7224 393,7223 377,7218 370,7216 356,7209 349,7205 344,7201 339,7197 330,7188 327,7184 323,7178 318,7173 313,7166 306,7159 299,7153 293,7151 279,7147 261,7143 256,7141 243,7133 234,7127 230,7122 226,7118 217,7116 210,7118 198,7127 192,7128 187,7127 183,7125 169,7113 149,7097 139,7089 132,7085 126,7081 119,7078 111,7076 98,7075 91,7077 86,7078 79,7079 74,7078 69,7077 53,7071 37,7064 32,7062 13,7053 8,7049 4,7045 2,7039 0,7035 0,7021 1,7008 2,6994 1,6988 2,6977 4,6969 7,6959 11,6951 24,6938 31,6932 35,6929 39,6926 43,6923 52,6918 57,6916 62,6914 71,6911 75,6910 79,6909 85,6905 92,6900 99,6895 104,6892 110,6890 115,6887 125,6881 132,6878 139,6875 144,6874 154,6871 162,6869 170,6865 175,6861 180,6855 186,6846 192,6841 202,6832 206,6823 209,6818 210,6813 211,6808 212,6800 212,6792 214,6784 217,6775 220,6769 223,6764 227,6758 231,6754 239,6749 253,6744 260,6743 267,6742 273,6741 281,6741 286,6740 293,6739 305,6733 310,6730 315,6727 322,6724 342,6716 349,6714 357,6711 366,6708 372,6706 380,6704 395,6699 402,6697 411,6694 415,6691 432,6680 438,6675 444,6672 450,6671 457,6671 464,6667 467,6667 473,6663 478,6661 482,6660 490,6664 497,6665 500,6658 500,6653 497,6648 494,6644 486,6637 478,6628 476,6623 477,6619 480,6607 479,6603 478,6599 476,6594 474,6587 476,6577 478,6571 483,6568 487,6568 492,6569 509,6579 516,6582 521,6582 524,6580 526,6576 525,6572 524,6567 523,6562 524,6547 525,6534 523,6529 521,6525 519,6522 517,6516 520,6508 523,6500 525,6497 530,6492 534,6484 536,6476 536,6471 534,6467 530,6462 526,6454 527,6445 530,6442 535,6438 542,6437 546,6440 551,6447 561,6456 567,6458 573,6456 584,6447 588,6440 592,6437 598,6434 607,6431 610,6428 612,6424 611,6419 611,6413 613,6408 616,6406 623,6400 624,6394 620,6391 614,6386 608,6382 611,6377 614,6376 624,6376 632,6376 637,6373 640,6369 641,6365 641,6361 641,6354 645,6353 648,6353 654,6354 664,6352 670,6350 675,6348 679,6342 690,6329 694,6325 697,6323 701,6324 708,6327 717,6323 719,6320 722,6316 726,6318 732,6324 736,6323 739,6322 743,6318 747,6313 748,6308 749,6301 753,6294 759,6287 763,6283 769,6280 774,6276 775,6272 777,6264 781,6261 785,6258 793,6254 800,6251 807,6247 815,6239 816,6233 816,6228 816,6219 816,6211 819,6208 824,6207 827,6208 832,6209 840,6213 850,6212 858,6211 866,6208 873,6205 878,6200 883,6198 888,6198 894,6198 900,6196 902,6192 901,6188 899,6183 900,6176 903,6173 908,6168 912,6166 915,6163 917,6157 921,6152 925,6146 930,6143 938,6142 946,6140 954,6137 962,6136 971,6135 979,6132 985,6127 990,6123 995,6120 1000,6119 1005,6119 1008,6118 1010,6114 1009,6110 1008,6108 1006,6105 1004,6102 1002,6096 1001,6089 1002,6080 1004,6074 1005,6071 1007,6067 1010,6059 1013,6051 1016,6042 1017,6035 1019,6031 1025,6027 1032,6022 1037,6018 1039,6015 1039,6011 1038,6004 1038,5998 1045,5987 1047,5984 1048,5979 1049,5973 1049,5967 1047,5961 1044,5955 1040,5950 1036,5946 1032,5941 1030,5935 1031,5929 1037,5928 1040,5928 1047,5929 1058,5929 1066,5929 1069,5925 1079,5928 1088,5931 1098,5934 1102,5933 1108,5930 1113,5923 1118,5914 1123,5910 1129,5911 1138,5915 1143,5917 1148,5918 1152,5915 1154,5910 1159,5909 1167,5914 1176,5916 1182,5915 1188,5910 1197,5907 1204,5908 1212,5916 1224,5922 1239,5926 1258,5929 1279,5929 1285,5927 1289,5924 1288,5920 1287,5910 1281,5901 1280,5898 1283,5895 1290,5895 1311,5899 1328,5907 1346,5914 1350,5921 1354,5932 1356,5936 1361,5940 1365,5940 1371,5938 1378,5938 1382,5944 1385,5951 1393,5950 1407,5947 1417,5944 1425,5936 1426,5922 1423,5901 1420,5886 1418,5873 1416,5865 1415,5857 1416,5850 1421,5842 1430,5835 1435,5834 1445,5836 " class="polyStyle" id="533102" style="fill:#f6f67b"/>
<polygon points="4467,3409 4442,3427 4443,3452 4445,3461 4437,3490 4435,3502 4435,3515 4437,3519 4443,3517 4453,3505 4460,3497 4468,3491 4475,3487 4481,3489 4492,3495 4510,3502 4523,3507 4538,3512 4549,3513 4557,3519 4561,3532 4564,3542 4573,3546 4582,3552 4583,3558 4586,3563 4589,3567 4602,3571 4606,3577 4605,3583 4604,3586 4605,3590 4615,3592 4629,3594 4641,3598 4652,3601 4660,3608 4660,3612 4658,3615 4650,3622 4645,3630 4645,3636 4648,3643 4656,3651 4665,3662 4669,3670 4667,3675 4661,3683 4655,3692 4657,3698 4665,3702 4675,3703 4685,3706 4696,3714 4707,3728 4719,3743 4724,3750 4730,3753 4736,3755 4741,3757 4742,3762 4740,3771 4738,3778 4736,3785 4737,3789 4742,3791 4752,3791 4757,3796 4761,3807 4767,3821 4774,3831 4776,3838 4776,3846 4772,3848 4768,3848 4760,3846 4755,3845 4751,3846 4748,3848 4745,3858 4737,3873 4730,3891 4723,3907 4722,3915 4724,3918 4728,3919 4731,3919 4736,3914 4740,3909 4746,3902 4749,3898 4755,3893 4758,3892 4763,3895 4763,3900 4761,3909 4762,3913 4762,3916 4769,3918 4781,3921 4788,3923 4789,3927 4788,3932 4781,3934 4777,3938 4774,3944 4775,3954 4780,3958 4785,3960 4796,3960 4803,3956 4811,3950 4819,3944 4829,3941 4840,3939 4851,3936 4863,3933 4872,3928 4881,3921 4888,3916 4895,3915 4903,3916 4912,3926 4927,3935 4941,3941 4953,3945 4964,3946 4973,3944 4979,3941 4988,3937 5000,3933 5013,3928 5028,3921 5040,3917 5056,3914 5076,3914 5090,3915 5100,3914 5108,3914 5115,3913 5119,3910 5120,3906 5122,3897 5126,3889 5133,3882 5144,3878 5157,3876 5169,3873 5175,3868 5181,3860 5183,3851 5189,3847 5197,3845 5204,3844 5211,3841 5215,3836 5222,3831 5233,3823 5243,3814 5255,3810 5273,3807 5288,3809 5308,3812 5326,3812 5344,3812 5354,3809 5366,3806 5380,3801 5392,3795 5405,3790 5423,3785 5439,3778 5448,3776 5462,3774 5470,3778 5479,3785 5488,3786 5501,3787 5515,3788 5528,3794 5537,3804 5548,3817 5557,3826 5569,3829 5583,3828 5595,3826 5609,3826 5614,3828 5624,3837 5635,3850 5645,3859 5654,3862 5660,3861 5664,3858 5670,3856 5674,3856 5679,3858 5684,3861 5692,3863 5699,3865 5711,3865 5722,3863 5730,3861 5736,3857 5742,3848 5746,3844 5752,3840 5758,3838 5772,3840 5785,3846 5805,3857 5813,3866 5822,3885 5834,3908 5844,3918 5851,3929 5851,3937 5847,3943 5836,3951 5797,3963 5772,3979 5759,3983 5752,3995 5753,4003 5759,4007 5770,4014 5777,4023 5781,4030 5786,4031 5789,4028 5791,4023 5792,4019 5796,4019 5801,4024 5811,4035 5817,4041 5823,4040 5830,4037 5836,4034 5841,4032 5845,4032 5850,4032 5848,4039 5843,4055 5837,4069 5837,4074 5837,4080 5840,4082 5846,4081 5852,4078 5863,4074 5868,4075 5868,4078 5867,4082 5860,4087 5851,4093 5848,4098 5848,4103 5854,4108 5863,4114 5872,4121 5878,4129 5886,4137 5893,4140 5898,4140 5903,4138 5908,4138 5911,4144 5913,4163 5916,4190 5916,4206 5918,4213 5924,4215 5931,4213 5935,4214 5942,4218 5950,4223 5961,4228 5968,4228 5976,4227 5982,4224 5988,4223 5993,4223 5998,4225 5998,4230 5993,4238 5981,4254 5972,4262 5966,4271 5961,4274 5951,4277 5940,4282 5924,4292 5911,4304 5897,4318 5890,4327 5878,4329 5870,4333 5868,4337 5863,4352 5860,4368 5854,4386 5844,4398 5830,4415 5820,4424 5811,4429 5796,4425 5788,4425 5782,4429 5779,4435 5779,4439 5779,4445 5782,4456 5793,4475 5801,4488 5810,4499 5815,4502 5823,4503 5830,4507 5834,4510 5833,4514 5826,4517 5822,4519 5817,4524 5817,4528 5824,4538 5830,4548 5840,4560 5841,4569 5838,4573 5833,4577 5826,4576 5821,4574 5813,4573 5809,4576 5801,4583 5795,4594 5795,4601 5797,4607 5811,4619 5836,4636 5857,4653 5862,4661 5859,4664 5855,4670 5843,4679 5842,4685 5843,4690 5846,4695 5869,4707 5890,4718 5905,4726 5915,4727 5923,4726 5927,4723 5930,4722 5935,4725 5935,4733 5931,4738 5924,4749 5907,4762 5900,4772 5900,4776 5903,4783 5912,4784 5924,4785 5930,4788 5935,4792 5935,4798 5931,4806 5929,4817 5929,4826 5929,4835 5932,4842 5938,4850 5938,4855 5937,4862 5937,4867 5940,4871 5945,4871 5949,4868 5955,4864 5961,4858 5969,4852 5976,4848 5983,4845 5989,4848 5989,4853 5983,4862 5983,4869 5984,4881 5991,4889 5994,4896 5995,4900 5991,4902 5980,4903 5969,4904 5956,4907 5951,4913 5945,4928 5941,4937 5937,4941 5931,4942 5928,4946 5928,4953 5930,4961 5930,4967 5930,4977 5927,4986 5928,4990 5931,4995 5936,4997 5938,5003 5941,5008 5951,5010 5960,5017 5968,5026 5971,5033 5971,5041 5968,5050 5961,5062 5958,5069 5959,5075 5964,5079 5968,5082 5968,5086 5963,5091 5948,5094 5930,5102 5916,5113 5908,5120 5906,5126 5903,5133 5899,5142 5891,5150 5890,5155 5891,5160 5894,5165 5899,5169 5899,5173 5896,5179 5891,5183 5884,5196 5870,5225 5864,5241 5856,5263 5857,5272 5862,5300 5868,5321 5874,5343 5875,5356 5873,5363 5870,5369 5866,5372 5861,5379 5861,5385 5861,5391 5862,5396 5873,5412 5881,5421 5888,5436 5892,5448 5892,5460 5894,5465 5899,5468 5907,5471 5920,5474 5935,5479 5941,5487 5947,5497 5949,5506 5947,5514 5943,5526 5942,5533 5942,5537 5948,5538 5958,5543 5965,5552 5975,5561 5980,5571 5980,5578 5978,5584 5977,5588 5978,5595 5986,5608 5990,5626 5990,5642 5988,5652 5975,5658 5960,5665 5948,5674 5943,5681 5938,5681 5931,5680 5924,5674 5916,5671 5912,5673 5906,5680 5893,5703 5882,5724 5874,5730 5866,5730 5857,5729 5846,5727 5840,5728 5824,5733 5811,5744 5806,5759 5800,5775 5796,5788 5787,5816 5784,5828 5781,5841 5782,5852 5787,5854 5795,5853 5802,5849 5806,5848 5811,5849 5811,5854 5809,5862 5803,5886 5784,5940 5773,5971 5771,5979 5774,5991 5778,6003 5782,6007 5796,6013 5814,6021 5833,6035 5845,6045 5856,6049 5868,6051 5881,6054 5891,6056 5897,6057 5910,6062 5897,6083 5885,6103 5873,6119 5853,6140 5841,6149 5826,6154 5809,6161 5799,6163 5790,6164 5782,6167 5775,6172 5766,6176 5758,6179 5750,6179 5738,6175 5716,6170 5698,6167 5685,6163 5679,6159 5671,6153 5664,6150 5648,6147 5615,6145 5600,6145 5590,6146 5565,6157 5543,6166 5535,6172 5519,6182 5500,6192 5488,6201 5460,6224 5438,6238 5418,6250 5407,6254 5382,6260 5360,6263 5350,6264 5340,6268 5324,6276 5323,6272 5321,6269 5320,6263 5320,6260 5320,6257 5320,6253 5317,6249 5313,6246 5312,6242 5311,6238 5312,6234 5312,6229 5309,6224 5306,6221 5303,6220 5297,6218 5292,6215 5287,6212 5284,6210 5278,6209 5274,6209 5270,6210 5266,6207 5261,6205 5256,6204 5252,6202 5246,6199 5243,6196 5238,6193 5233,6192 5224,6189 5219,6186 5213,6182 5208,6176 5204,6170 5198,6164 5195,6163 5189,6162 5184,6160 5179,6158 5174,6155 5171,6152 5164,6146 5159,6144 5154,6142 5148,6141 5142,6139 5137,6137 5133,6134 5131,6130 5129,6126 5128,6121 5127,6116 5126,6112 5124,6107 5121,6103 5117,6097 5114,6092 5112,6088 5111,6084 5111,6079 5111,6074 5112,6066 5112,6058 5111,6054 5110,6051 5107,6048 5104,6044 5100,6041 5096,6038 5090,6036 5084,6033 5077,6034 5071,6035 5065,6037 5060,6038 5055,6041 5047,6043 5039,6045 5032,6044 5027,6043 5022,6044 5016,6045 5010,6046 5005,6048 5000,6049 4996,6049 4992,6050 4986,6050 4978,6053 4970,6055 4963,6055 4956,6056 4950,6055 4943,6055 4936,6054 4930,6053 4924,6054 4919,6055 4913,6056 4906,6055 4898,6054 4887,6052 4878,6051 4873,6053 4868,6057 4863,6061 4860,6062 4855,6063 4850,6063 4845,6062 4840,6061 4834,6060 4828,6056 4815,6052 4802,6058 4799,6060 4795,6061 4789,6062 4784,6062 4777,6062 4772,6064 4766,6065 4762,6065 4756,6064 4752,6062 4748,6060 4743,6058 4736,6055 4725,6053 4715,6055 4708,6054 4705,6051 4699,6049 4695,6050 4690,6052 4682,6051 4677,6049 4672,6049 4667,6048 4663,6049 4658,6051 4653,6052 4649,6053 4638,6053 4635,6054 4628,6055 4619,6057 4608,6058 4598,6057 4590,6056 4582,6057 4576,6058 4573,6060 4569,6062 4565,6062 4560,6062 4551,6062 4543,6062 4535,6062 4528,6065 4521,6066 4511,6069 4501,6071 4492,6070 4486,6069 4477,6071 4463,6073 4453,6075 4445,6076 4440,6076 4430,6076 4424,6077 4418,6078 4414,6078 4410,6079 4404,6079 4396,6079 4392,6081 4388,6082 4383,6083 4378,6084 4375,6084 4366,6085 4362,6087 4354,6089 4344,6091 4333,6092 4324,6094 4326,6103 4320,6102 4314,6103 4307,6104 4301,6104 4296,6104 4291,6103 4287,6104 4281,6105 4273,6106 4268,6107 4262,6108 4255,6108 4250,6107 4245,6108 4242,6108 4237,6108 4232,6111 4227,6112 4221,6114 4215,6114 4208,6116 4204,6117 4199,6119 4194,6119 4190,6120 4185,6121 4180,6123 4176,6125 4172,6129 4168,6131 4167,6134 4166,6137 4164,6143 4162,6150 4160,6155 4157,6161 4155,6167 4154,6175 4153,6178 4154,6184 4154,6187 4156,6192 4151,6193 4144,6192 4141,6188 4138,6186 4135,6185 4130,6183 4128,6180 4128,6176 4128,6172 4128,6168 4126,6165 4122,6164 4118,6165 4115,6165 4112,6166 4108,6168 4103,6170 4097,6175 4088,6180 4079,6183 4075,6183 4070,6182 4065,6180 4058,6178 4050,6177 4040,6176 4036,6173 4033,6169 4028,6169 4022,6168 4015,6168 4010,6167 4007,6164 4004,6163 3998,6161 3993,6162 3989,6163 3982,6164 3974,6166 3966,6167 3961,6166 3954,6166 3948,6166 3943,6165 3935,6163 3929,6162 3923,6161 3914,6161 3907,6161 3902,6163 3898,6167 3893,6171 3887,6174 3882,6175 3876,6176 3871,6176 3866,6175 3860,6174 3854,6173 3849,6172 3844,6171 3839,6172 3834,6173 3827,6174 3820,6173 3814,6171 3807,6169 3803,6166 3799,6162 3787,6152 3776,6144 3770,6141 3764,6141 3758,6141 3753,6141 3743,6137 3740,6136 3737,6137 3733,6137 3725,6134 3722,6133 3719,6133 3715,6134 3711,6134 3704,6135 3698,6136 3692,6138 3683,6139 3677,6136 3673,6136 3668,6135 3661,6135 3656,6134 3651,6132 3644,6131 3637,6130 3630,6131 3626,6132 3622,6134 3615,6136 3608,6138 3603,6141 3597,6141 3591,6138 3585,6136 3580,6133 3575,6132 3571,6131 3564,6129 3558,6127 3555,6126 3551,6125 3546,6125 3540,6124 3533,6123 3526,6123 3517,6123 3509,6122 3502,6119 3495,6116 3481,6109 3475,6108 3469,6108 3462,6109 3456,6110 3451,6112 3446,6114 3443,6116 3438,6118 3430,6123 3420,6128 3411,6130 3399,6130 3391,6130 3383,6130 3376,6131 3370,6132 3362,6134 3352,6138 3346,6141 3336,6144 3330,6145 3325,6146 3319,6144 3314,6140 3309,6135 3306,6129 3290,6139 3280,6146 3261,6157 3251,6163 3243,6169 3234,6169 3227,6168 3220,6167 3204,6163 3197,6160 3193,6156 3189,6156 3210,6182 3206,6183 3198,6184 3192,6184 3180,6138 3165,6109 3159,6081 3167,6059 3102,6048 3070,6037 3037,6027 3006,6023 2977,6032 2964,6052 2950,6060 2924,6056 2898,6053 2888,6061 2865,6055 2856,6051 2841,6046 2832,6041 2828,6017 2791,5978 2772,5976 2729,5999 2698,6012 2668,6028 2643,6050 2617,6047 2592,6051 2563,6064 2546,6051 2532,6010 2520,5964 2475,5939 2467,5921 2458,5911 2480,5889 2506,5867 2533,5848 2560,5839 2585,5831 2616,5805 2644,5781 2666,5755 2691,5737 2704,5725 2701,5708 2697,5682 2708,5656 2722,5628 2729,5602 2731,5575 2726,5547 2709,5518 2710,5496 2726,5487 2749,5474 2751,5466 2736,5455 2719,5454 2692,5455 2662,5455 2629,5435 2614,5409 2610,5383 2618,5347 2625,5320 2637,5282 2658,5256 2689,5241 2716,5237 2726,5212 2742,5187 2773,5175 2802,5153 2843,5161 2859,5136 2886,5126 2917,5109 2946,5096 2950,5065 2963,5037 2942,5009 2924,4979 2915,4954 2922,4920 2948,4913 2975,4926 3003,4903 3032,4886 3049,4860 3078,4828 3106,4807 3133,4781 3155,4751 3184,4723 3216,4700 3241,4685 3267,4657 3293,4633 3320,4629 3346,4642 3375,4633 3404,4612 3427,4584 3458,4562 3488,4535 3517,4527 3544,4517 3556,4489 3571,4461 3579,4435 3589,4404 3599,4373 3617,4347 3622,4316 3646,4291 3674,4264 3703,4258 3703,4234 3722,4223 3749,4200 3768,4172 3778,4146 3782,4138 3788,4126 3789,4120 3791,4105 3788,4093 3787,4080 3785,4074 3786,4054 3788,4041 3793,4033 3807,4025 3814,4016 3822,4011 3839,3984 3846,3973 3847,3961 3842,3954 3842,3947 3843,3942 3846,3938 3848,3934 3845,3929 3844,3922 3844,3917 3848,3911 3857,3909 3867,3910 3876,3909 3886,3906 3897,3906 3908,3910 3929,3916 3942,3921 3953,3926 3963,3928 3970,3928 3971,3923 3970,3913 3964,3901 3961,3883 3961,3872 3970,3862 3980,3851 3985,3845 3991,3838 3996,3831 3997,3819 3997,3810 4000,3805 4007,3791 4010,3781 4010,3775 4009,3762 4007,3752 4009,3745 4011,3741 4016,3740 4022,3742 4027,3747 4034,3750 4043,3751 4048,3747 4054,3739 4056,3736 4061,3735 4066,3735 4074,3737 4086,3744 4098,3751 4105,3755 4113,3756 4120,3756 4130,3752 4139,3752 4150,3753 4158,3751 4165,3748 4175,3748 4184,3748 4189,3748 4192,3746 4198,3745 4203,3745 4212,3746 4222,3746 4235,3741 4245,3729 4249,3726 4253,3726 4259,3730 4269,3732 4275,3733 4287,3731 4294,3730 4303,3732 4313,3732 4319,3729 4330,3721 4341,3705 4347,3701 4363,3699 4375,3700 4386,3697 4389,3694 4391,3691 4390,3687 4390,3681 4392,3675 4396,3665 4389,3660 4375,3651 4365,3640 4363,3629 4366,3613 4372,3584 4376,3559 4378,3537 4374,3523 4362,3502 4351,3487 4338,3479 4334,3473 4340,3464 4348,3456 4356,3438 4360,3434 4363,3432 4369,3432 4380,3433 4396,3437 4409,3434 4423,3426 4436,3412 4455,3391 4460,3388 4465,3388 4477,3396 " class="polyStyle" id="533103" style="fill:#ee8b94"/>
<path d="" class="polyStyle" id="421087" style="fill:#ee8b94"/>
<path d="" class="polyStyle" id="420984" style="fill:#fbe6ef"/>
<path d="" class="polyStyle" id="420582" style="fill:#ee8b94"/>
<path d="" class="polyStyle" id="370282" style="fill:#f6f67b"/>
<path d="" class="polyStyle" id="371083" style="fill:#f6f67b"/>
<path d="" class="polyStyle" id="371082" style="fill:#fbe6ef"/>
<path d="" class="polyStyle" id="652801" style="fill:#f8c67d"/>
<path d="" class="polyStyle" id="654301" style="fill:#ee8b94"/>
<path d="" class="polyStyle" id="370687" style="fill:#ee8b94"/>
<path d="" class="polyStyle" id="371482" style="fill:#d4ecb2"/>
<path d="" class="polyStyle" id="421081" style="fill:#fbe6ef"/>
<path d="" class="polyStyle" id="429006" style="fill:#f6f67b"/>
<path d="" class="polyStyle" id="440982" style="fill:#d4ecb2"/>
<path d="" class="polyStyle" id="421181" style="fill:#d4ecb2"/>
<path d="" class="polyStyle" id="321181" style="fill:#d4ecb2"/>
<path d="" class="polyStyle" id="659007" style="fill:#ee8b94"/>
<path d="" class="polyStyle" id="652701" style="fill:#fbe6ef"/>
<path d="" class="polyStyle" id="210781" style="fill:#fbe6ef"/>
<path d="" class="polyStyle" id="460204" style="fill:#f6f67b"/>
<path d="" class="polyStyle" id="210211" style="fill:#f6f67b"/>
<path d="" class="polyStyle" id="450512" style="fill:#ee8b94"/>
<path d="" class="polyStyle" id="450602" style="fill:#fbe6ef"/>
<path d="" class="polyStyle" id="440404" style="fill:#ee8b94"/>
<path d="" class="polyStyle" id="440403" style="fill:#f6f67b"/>
<path d="" class="polyStyle" id="441502" style="fill:#f6f67b"/>
<path d="" class="polyStyle" id="431002" style="fill:#d4ecb2"/>
<path d="" class="polyStyle" id="500107" style="fill:#fbe6ef"/>
<path d="" class="polyStyle" id="430611" style="fill:#d4ecb2"/>
<path d="" class="polyStyle" id="511304" style="fill:#fbe6ef"/>
<path d="" class="polyStyle" id="340711" style="fill:#ee8b94"/>
<path d="" class="polyStyle" id="320118" style="fill:#f6f67b"/>
<path d="" class="polyStyle" id="510704" style="fill:#f6f67b"/>
<path d="" class="polyStyle" id="411502" style="fill:#ee8b94"/>
<path d="" class="polyStyle" id="320302" style="fill:#d4ecb2"/>
<path d="" class="polyStyle" id="140311" style="fill:#ee8b94"/>
<path d="" class="polyStyle" id="610802" style="fill:#ee8b94"/>
<path d="" class="polyStyle" id="120116" style="fill:#f6f67b"/>
<path d="" class="polyStyle" id="130303" style="fill:#fbe6ef"/>
<path d="" class="polyStyle" id="140211" style="fill:#f6f67b"/>
<path d="" class="polyStyle" id="150207" style="fill:#fbe6ef"/>
<path d="" class="polyStyle" id="211403" style="fill:#f6f67b"/>
<path d="" class="polyStyle" id="150802" style="fill:#f8c67d"/>
<path d="" class="polyStyle" id="210112" style="fill:#ee8b94"/>
<path d="" class="polyStyle" id="230406" style="fill:#d4ecb2"/>
<path d="" class="polyStyle" id="110113" style="fill:#fbe6ef"/>
<path d="" class="polyStyle" id="341702" style="fill:#fbe6ef"/>
<path d="" class="polyStyle" id="420303" style="fill:#ee8b94"/>
<path d="" class="polyStyle" id="340702" style="fill:#d4ecb2"/>
<path d="" class="polyStyle" id="421002" style="fill:#f6f67b"/>
<path d="" class="polyStyle" id="420117" style="fill:#f6f67b"/>
<path d="" class="polyStyle" id="440904" style="fill:#f8c67d"/>
<path d="" class="polyStyle" id="460205" style="fill:#ee8b94"/>
<path d="" class="polyStyle" id="460202" style="fill:#f6f67b"/>
<path d="" class="polyStyle" id="460203" style="fill:#fbe6ef"/>
<path d="" class="polyStyle" id="420304" style="fill:#f6f67b"/>
<path d="" class="polyStyle" id="445302" style="fill:#ee8b94"/>
<path d="" class="polyStyle" id="410202" style="fill:#d4ecb2"/>
<path d="" class="polyStyle" id="440800" style="fill:#f6f67b"/>
<path d="" class="polyStyle" id="440900" style="fill:#ee8b94"/>
<path d="" class="polyStyle" id="340800" style="fill:#ee8b94"/>
<path d="" class="polyStyle" id="460200" style="fill:#f6f67b"/>
<path d="" class="polyStyle" id="460000" style="fill:#ee8b94"/>
<path d="" class="polyStyle" id="450500" style="fill:#ee8b94"/>
<path d="" class="polyStyle" id="450600" style="fill:#ee8b94"/>
<path d="" class="polyStyle" id="440400" style="fill:#f6f67b"/>
<path d="" class="polyStyle" id="441700" style="fill:#f6f67b"/>
<path d="" class="polyStyle" id="441500" style="fill:#f6f67b"/>
<path d="" class="polyStyle" id="350600" style="fill:#ee8b94"/>
<path d="" class="polyStyle" id="710000" style="fill:#f6f67b"/>
<path d="" class="polyStyle" id="510400" style="fill:#f6f67b"/>
<path d="" class="polyStyle" id="522600" style="fill:#fbe6ef"/>
<path d="" class="polyStyle" id="520500" style="fill:#ee8b94"/>
<path d="" class="polyStyle" id="431200" style="fill:#f6f67b"/>
<path d="" class="polyStyle" id="430600" style="fill:#f6f67b"/>
<path d="" class="polyStyle" id="511400" style="fill:#d4ecb2"/>
<path d="" class="polyStyle" id="421000" style="fill:#ee8b94"/>
<path d="" class="polyStyle" id="341700" style="fill:#f6f67b"/>
<path d="" class="polyStyle" id="420500" style="fill:#f6f67b"/>
<path d="" class="polyStyle" id="511300" style="fill:#f6f67b"/>
<path d="" class="polyStyle" id="420900" style="fill:#f6f67b"/>
<path d="" class="polyStyle" id="511700" style="fill:#ee8b94"/>
<path d="" class="polyStyle" id="420600" style="fill:#d4ecb2"/>
<path d="" class="polyStyle" id="411500" style="fill:#fbe6ef"/>
<path d="" class="polyStyle" id="510800" style="fill:#ee8b94"/>
<path d="" class="polyStyle" id="420300" style="fill:#fbe6ef"/>
<path d="" class="polyStyle" id="611000" style="fill:#ee8b94"/>
<path d="" class="polyStyle" id="620800" style="fill:#fbe6ef"/>
<path d="" class="polyStyle" id="370200" style="fill:#ee8b94"/>
<path d="" class="polyStyle" id="371000" style="fill:#f6f67b"/>
<path d="" class="polyStyle" id="370600" style="fill:#fbe6ef"/>
<path d="" class="polyStyle" id="120000" style="fill:#f6f67b"/>
<path d="" class="polyStyle" id="130200" style="fill:#ee8b94"/>
<path d="" class="polyStyle" id="130300" style="fill:#f6f67b"/>
<path d="" class="polyStyle" id="652900" style="fill:#fbe6ef"/>
<path d="" class="polyStyle" id="150500" style="fill:#d4ecb2"/>
<path d="" class="polyStyle" id="" style="fill:#d4ecb2"/>
<path d="" class="polyStyle" id="350500" style="fill:#fbe6ef"/>
<path d="" class="polyStyle" id="440400" style="fill:#f6f67b"/>
<path d="" class="polyStyle" id="421100" style="fill:#d4ecb2"/>
<path d="" class="polyStyle" id="420100" style="fill:#fbe6ef"/>
<path d="" class="polyStyle" id="532500" style="fill:#fbe6ef"/>
<path d="" class="polyStyle" id="654200" style="fill:#fbe6ef"/>
<path d="" class="polyStyle" id="210700" style="fill:#d4ecb2"/>
<path d="" class="polyStyle" id="522300" style="fill:#fbe6ef"/>
<path d="" class="polyStyle" id="" style="fill:#ee8b94"/>
<path d="" class="polyStyle" id="440400" style="fill:#f6f67b"/>
<path d="" class="polyStyle" id="620000" style="fill:#f6f67b"/>
<path d="" class="polyStyle" id="430000" style="fill:#fbe6ef"/>
<path d="" class="polyStyle" id="420000" style="fill:#ee8b94"/>
<path d="" class="polyStyle" id="410000" style="fill:#f6f67b"/>
<path d="" class="polyStyle" id="350000" style="fill:#fbe6ef"/>
<path d="" class="polyStyle" id="520000" style="fill:#f6f67b"/>
<path d="" class="polyStyle" id="" style="fill:#ee8b94"/>
</svg>
