<?xml version="1.0" encoding="UTF-8"?>
<!DOCTYPE svg PUBLIC "-//W3C//DTD SVG 1.1 Tiny//EN" "http://www.w3.org/Graphics/SVG/1.1/DTD/svg11-tiny.dtd">
<svg version="1.1" xmlns="http://www.w3.org/2000/svg" xmlns:xlink="http://www.w3.org/1999/xlink" width="100%" height="100%" viewBox="0,0,8705,7627">
<title>SVG</title>
<desc>Poligon Test</desc>
<style id="style_css_sheet" type="text/css">
.polyStyle{fill: #cccccc;stroke-width:0;fill-rule:evenodd;}
</style>
<circle cx="2738" cy="1056" r="200" stroke="black" stroke-width="1" fill="red" id="610327" name="陇县"/>
<circle cx="5036" cy="5219" r="200" stroke="black" stroke-width="1" fill="red" id="610331"position="33" name="太白县"/>
<circle cx="7207" cy="4141" r="200" stroke="black" stroke-width="1" fill="red" id="610326"position="33" name="眉县"/>
<circle cx="7826" cy="3723" r="200" stroke="black" stroke-width="1" fill="red" id="610324" name="扶风县"/>
<circle cx="6536" cy="3295" r="200" stroke="black" stroke-width="1" fill="red" id="610323" name="岐山县"/>
<circle cx="5412" cy="2908" r="200" stroke="black" stroke-width="1" fill="red" id="610322" name="凤翔县"/>
<circle cx="4120" cy="2320" r="200" stroke="black" stroke-width="1" fill="red" id="610328"position="11" name="千阳县"/>
<circle cx="7412" cy="2134" r="200" stroke="black" stroke-width="1" fill="red" id="610329" name="麟游县"/>
<circle cx="1064" cy="5977" r="200" stroke="black" stroke-width="1" fill="red" id="610330"position="212222" name="凤县"/>
<circle cx="4209" cy="3656" r="200" stroke="black" stroke-width="1" fill="red" id="610302"position="33" name="渭滨区"/>
<circle cx="4191" cy="3642" r="200" stroke="black" stroke-width="1" fill="red" id="610303" name="金台区"/>
<circle cx="5228" cy="3698" r="200" stroke="black" stroke-width="1" fill="red" id="610304"position="23" name="陈仓区"/>
<path d="" class="polyStyle" id="" style="fill:#ee8b94"/>
<path d="" class="polyStyle" id="623022" style="fill:#fbe6ef"/>
<path d="" class="polyStyle" id="211421" style="fill:#f6f67b"/>
<path d="" class="polyStyle" id="532524" style="fill:#ee8b94"/>
<path d="" class="polyStyle" id="440825" style="fill:#f6f67b"/>
<path d="" class="polyStyle" id="441721" style="fill:#f6f67b"/>
<path d="" class="polyStyle" id="450521" style="fill:#f6f67b"/>
<path d="" class="polyStyle" id="450123" style="fill:#fbe6ef"/>
<path d="" class="polyStyle" id="350624" style="fill:#f6f67b"/>
<path d="" class="polyStyle" id="" style="fill:#fbe6ef"/>
<path d="" class="polyStyle" id="451224" style="fill:#fbe6ef"/>
<path d="" class="polyStyle" id="350627" style="fill:#f6f67b"/>
<path d="" class="polyStyle" id="" style="fill:#f6f67b"/>
<path d="" class="polyStyle" id="350525" style="fill:#f6f67b"/>
<path d="" class="polyStyle" id="530124" style="fill:#ee8b94"/>
<path d="" class="polyStyle" id="522627" style="fill:#ee8b94"/>
<path d="" class="polyStyle" id="510421" style="fill:#fbe6ef"/>
<path d="" class="polyStyle" id="522623" style="fill:#d4ecb2"/>
<path d="" class="polyStyle" id="430321" style="fill:#d4ecb2"/>
<path d="" class="polyStyle" id="511129" style="fill:#d4ecb2"/>
<path d="" class="polyStyle" id="511423" style="fill:#ee8b94"/>
<path d="" class="polyStyle" id="421023" style="fill:#f6f67b"/>
<path d="" class="polyStyle" id="511724" style="fill:#f6f67b"/>
<path d="" class="polyStyle" id="420526" style="fill:#fbe6ef"/>
<path d="" class="polyStyle" id="511923" style="fill:#fbe6ef"/>
<path d="" class="polyStyle" id="420325" style="fill:#fbe6ef"/>
<path d="" class="polyStyle" id="511921" style="fill:#f6f67b"/>
<path d="" class="polyStyle" id="542525" style="fill:#f6f67b"/>
<path d="" class="polyStyle" id="611026" style="fill:#ee8b94"/>
<polygon points="4874,4686 4897,4693 4902,4695 4932,4706 4963,4718 4994,4728 5028,4745 5066,4740 5105,4732 5134,4725 5158,4724 5181,4723 5195,4742 5220,4751 5254,4751 5291,4754 5326,4752 5357,4726 5387,4706 5412,4701 5429,4710 5450,4728 5475,4740 5507,4767 5532,4781 5560,4801 5579,4830 5604,4858 5630,4869 5666,4889 5700,4894 5734,4891 5744,4872 5761,4837 5791,4829 5827,4823 5850,4811 5878,4806 5901,4802 5925,4816 5962,4805 5998,4783 6039,4761 6078,4745 6108,4739 6120,4733 6127,4733 6133,4733 6165,4747 6191,4754 6213,4739 6230,4716 6262,4716 6292,4719 6327,4712 6346,4709 6367,4712 6370,4731 6365,4762 6372,4797 6400,4826 6412,4853 6430,4863 6454,4847 6479,4826 6515,4833 6541,4855 6578,4868 6596,4855 6625,4843 6646,4833 6664,4814 6677,4796 6671,4768 6686,4742 6698,4733 6702,4731 6720,4750 6753,4759 6779,4767 6806,4777 6831,4802 6861,4814 6895,4844 6933,4863 6954,4894 6972,4926 6970,4961 6960,4988 6943,5023 6941,5059 6947,5088 6933,5118 6922,5149 6929,5186 6933,5235 6954,5269 6976,5294 7009,5317 7032,5339 7050,5361 7066,5375 7072,5397 7065,5428 7078,5454 7100,5469 7119,5500 7122,5527 7122,5556 7146,5581 7176,5589 7203,5593 7236,5595 7266,5604 7295,5606 7320,5615 7350,5622 7358,5627 7343,5657 7328,5682 7312,5707 7278,5746 7267,5772 7231,5787 7205,5797 7171,5812 7139,5830 7113,5842 7082,5870 7052,5882 7025,5897 7012,5916 7010,5942 7012,5968 7007,6006 7001,6043 7001,6086 6988,6135 6982,6165 6971,6196 6961,6230 6959,6253 6959,6277 6944,6307 6931,6332 6918,6352 6905,6386 6878,6406 6860,6434 6834,6459 6823,6484 6808,6512 6806,6539 6823,6547 6820,6575 6808,6611 6784,6641 6755,6662 6746,6684 6752,6714 6778,6735 6814,6757 6845,6778 6866,6799 6874,6823 6872,6849 6881,6868 6900,6879 6918,6905 6892,6913 6860,6935 6837,6956 6817,6975 6797,6991 6783,6995 6775,6998 6752,7002 6732,7005 6710,6994 6682,6983 6656,6956 6636,6930 6610,6924 6581,6923 6569,6924 6542,6931 6510,6937 6483,6941 6457,6961 6437,6987 6410,7002 6373,7020 6346,7009 6301,6999 6271,6988 6245,6993 6217,7014 6184,7033 6158,7038 6144,7065 6121,7091 6095,7100 6060,7110 6035,7105 6003,7099 5972,7093 5946,7090 5920,7097 5891,7097 5889,7132 5867,7161 5839,7166 5813,7171 5790,7197 5762,7216 5732,7223 5698,7226 5668,7242 5649,7271 5620,7267 5589,7273 5556,7292 5519,7297 5497,7291 5487,7267 5468,7242 5455,7225 5427,7186 5406,7150 5362,7127 5333,7107 5305,7084 5276,7081 5250,7101 5222,7100 5191,7095 5163,7082 5129,7072 5100,7054 5070,7054 5043,7035 5022,7008 4997,7002 4991,7002 4990,6994 4989,6974 4997,6948 5012,6923 5029,6897 5030,6869 5019,6863 5001,6848 4976,6831 4969,6786 4969,6743 4987,6708 5001,6674 5032,6659 5064,6649 5083,6619 5081,6588 5087,6565 5100,6539 5130,6507 5152,6483 5162,6458 5152,6439 5122,6439 5111,6438 5106,6423 5085,6417 5061,6438 5046,6466 5027,6477 5010,6488 5001,6513 4986,6541 4972,6550 4941,6550 4901,6546 4867,6531 4839,6531 4830,6550 4808,6570 4780,6582 4742,6604 4716,6625 4690,6634 4664,6658 4634,6668 4608,6680 4589,6725 4564,6740 4540,6751 4512,6768 4468,6771 4421,6766 4392,6757 4374,6721 4367,6685 4365,6648 4339,6638 4309,6634 4281,6617 4260,6589 4235,6578 4208,6576 4181,6575 4162,6581 4139,6605 4101,6635 4088,6619 4096,6596 4116,6573 4108,6549 4110,6521 4127,6486 4135,6457 4122,6443 4094,6453 4064,6472 4043,6477 4017,6467 3983,6442 3958,6410 3926,6412 3896,6419 3861,6422 3834,6407 3804,6383 3790,6357 3777,6331 3761,6304 3760,6277 3748,6249 3751,6220 3749,6190 3758,6163 3752,6137 3766,6120 3776,6104 3772,6088 3747,6070 3734,6048 3742,6012 3763,5987 3780,5962 3807,5946 3842,5959 3871,5947 3896,5937 3912,5910 3933,5891 3955,5862 3972,5843 3994,5827 4018,5815 4046,5803 4055,5785 4039,5773 4010,5776 3979,5786 3950,5795 3911,5807 3872,5813 3842,5825 3809,5831 3793,5833 3779,5823 3775,5802 3789,5782 3821,5769 3852,5754 3882,5742 3919,5738 3959,5738 3997,5738 4039,5736 4062,5736 4072,5713 4062,5690 4055,5660 4045,5639 4038,5613 4024,5583 4002,5564 3977,5546 3971,5524 3969,5500 3952,5471 3921,5450 3903,5410 3882,5358 3889,5323 3906,5306 3934,5290 3940,5263 3943,5229 3946,5202 3937,5169 3946,5134 3959,5103 3963,5076 3947,5043 3928,5013 3908,4982 3896,4954 3891,4923 3922,4917 3945,4883 3951,4854 3951,4817 3954,4788 3984,4757 4011,4734 4047,4726 4087,4712 4113,4711 4140,4718 4170,4728 4209,4745 4235,4751 4262,4752 4301,4752 4344,4744 4370,4754 4400,4765 4432,4767 4464,4768 4501,4772 4533,4776 4574,4784 4600,4788 4632,4797 4662,4802 4689,4785 4706,4759 4735,4736 4750,4708 4774,4681 4814,4673 4846,4677 " class="polyStyle" id="610331" style="fill:#f6f67b"/>
<path d="" class="polyStyle" id="411023" style="fill:#fbe6ef"/>
<polygon points="8104,4367 8076,4371 8057,4381 8040,4392 8021,4392 8004,4390 7987,4382 7967,4382 7952,4366 7967,4362 7980,4360 7998,4360 8027,4352 8049,4347 8076,4347 8094,4347 8107,4343 8117,4343 8119,4354 " class="polyStyle" id="610326" style="fill:#fbe6ef"/>
<polygon points="2358,4014 2389,4012 2422,4018 2448,4038 2475,4042 2515,4042 2544,4041 2569,4039 2596,4053 2623,4087 2648,4088 2676,4102 2704,4123 2735,4133 2759,4128 2775,4106 2779,4076 2780,4051 2811,4034 2841,4047 2874,4049 2908,4046 2943,4043 2956,4044 2969,4045 3003,4071 3040,4084 3070,4104 3098,4131 3127,4151 3131,4169 3134,4199 3132,4227 3131,4264 3143,4286 3161,4294 3175,4297 3193,4306 3217,4314 3247,4324 3272,4326 3314,4322 3346,4332 3381,4353 3408,4371 3435,4385 3468,4402 3488,4418 3504,4433 3512,4469 3518,4494 3549,4522 3577,4523 3594,4540 3605,4564 3610,4596 3616,4623 3632,4657 3654,4685 3693,4710 3725,4708 3752,4741 3749,4771 3744,4803 3748,4821 3765,4828 3801,4838 3835,4850 3863,4874 3878,4896 3891,4923 3896,4954 3908,4982 3928,5013 3947,5043 3963,5076 3959,5103 3946,5134 3937,5169 3946,5202 3943,5229 3940,5263 3934,5290 3906,5306 3889,5323 3882,5358 3903,5410 3921,5450 3952,5471 3969,5500 3971,5524 3977,5546 4002,5564 4024,5583 4038,5613 4045,5639 4055,5660 4062,5690 4072,5713 4062,5736 4039,5736 3997,5738 3959,5738 3919,5738 3882,5742 3852,5754 3821,5769 3789,5782 3775,5802 3779,5823 3793,5833 3809,5831 3842,5825 3872,5813 3911,5807 3950,5795 3979,5786 4010,5776 4039,5773 4055,5785 4046,5803 4018,5815 3994,5827 3972,5843 3955,5862 3933,5891 3912,5910 3896,5937 3871,5947 3842,5959 3807,5946 3780,5962 3763,5987 3742,6012 3734,6048 3747,6070 3772,6088 3776,6104 3766,6120 3752,6137 3725,6136 3700,6140 3674,6157 3648,6173 3651,6203 3657,6229 3655,6258 3654,6285 3626,6309 3622,6335 3639,6367 3651,6396 3664,6424 3653,6451 3664,6493 3668,6524 3640,6536 3626,6551 3611,6571 3597,6585 3562,6588 3520,6577 3487,6574 3455,6571 3422,6564 3383,6546 3354,6532 3327,6520 3302,6502 3266,6475 3237,6465 3211,6462 3199,6435 3166,6408 3140,6402 3113,6403 3092,6371 3065,6353 3034,6325 3009,6297 2983,6287 2953,6298 2927,6299 2899,6288 2907,6254 2887,6227 2861,6222 2835,6210 2809,6195 2789,6168 2760,6140 2731,6143 2722,6169 2724,6196 2721,6222 2715,6254 2711,6281 2679,6312 2656,6342 2636,6369 2608,6370 2574,6369 2539,6367 2514,6396 2497,6422 2481,6452 2482,6482 2477,6511 2468,6538 2469,6566 2486,6594 2466,6627 2483,6653 2506,6680 2505,6708 2503,6736 2489,6761 2488,6787 2486,6819 2479,6847 2452,6871 2442,6898 2444,6911 2466,6938 2458,6967 2454,6996 2455,7022 2470,7050 2477,7076 2461,7102 2452,7129 2416,7149 2387,7150 2360,7142 2333,7133 2306,7123 2277,7113 2251,7095 2218,7087 2192,7081 2167,7084 2133,7075 2105,7064 2076,7066 2051,7066 2020,7058 1993,7048 1957,7038 1927,7034 1898,7022 1864,7010 1832,7005 1835,7031 1861,7041 1887,7056 1912,7057 1922,7091 1952,7119 1969,7145 1938,7159 1905,7168 1880,7187 1851,7194 1816,7209 1789,7213 1762,7209 1737,7208 1705,7210 1678,7217 1661,7247 1690,7261 1704,7287 1717,7314 1704,7340 1700,7339 1693,7340 1667,7346 1637,7352 1618,7377 1603,7408 1583,7435 1567,7467 1575,7495 1572,7528 1562,7554 1534,7561 1508,7564 1483,7576 1458,7591 1449,7617 1421,7627 1393,7618 1343,7574 1351,7565 1349,7547 1349,7525 1349,7509 1345,7479 1361,7441 1355,7421 1349,7389 1345,7377 1335,7357 1327,7347 1307,7337 1287,7325 1279,7323 1275,7309 1273,7283 1271,7277 1265,7271 1253,7263 1237,7255 1211,7235 1191,7227 1193,7215 1193,7205 1197,7195 1203,7171 1223,7161 1213,7147 1197,7137 1181,7143 1165,7139 1141,7125 1119,7093 1091,7063 1075,7039 1065,7015 1037,7011 1015,7001 1001,7011 961,7007 949,6997 907,6971 887,6963 869,6967 859,6957 855,6945 849,6925 851,6895 853,6877 863,6863 877,6855 883,6837 885,6815 883,6789 861,6781 861,6725 867,6665 853,6631 857,6611 853,6599 849,6593 845,6589 825,6589 809,6589 777,6593 761,6591 755,6587 751,6581 743,6571 741,6563 741,6529 743,6503 757,6457 749,6431 757,6395 765,6377 771,6367 777,6363 789,6359 801,6355 807,6357 825,6367 841,6371 849,6371 861,6365 873,6355 887,6339 913,6287 935,6287 935,6265 925,6245 907,6243 883,6227 841,6205 831,6195 825,6179 817,6145 791,6141 781,6131 757,6102 751,6103 744,6105 732,6110 732,6118 745,6119 751,6117 755,6121 752,6130 745,6135 740,6139 731,6147 721,6150 711,6146 707,6143 701,6147 703,6163 701,6173 695,6179 687,6179 659,6179 609,6181 591,6181 581,6179 565,6167 551,6145 527,6111 533,6103 543,6089 549,6075 555,6055 537,6041 535,6023 527,6009 523,6005 495,5993 491,5991 491,5987 495,5977 511,5967 559,5953 585,5921 617,5895 635,5873 667,5851 677,5841 685,5827 687,5821 677,5793 673,5779 675,5773 713,5745 735,5735 767,5735 777,5731 785,5707 801,5691 803,5631 821,5581 849,5569 847,5559 839,5505 831,5483 809,5451 799,5423 795,5397 799,5363 823,5359 825,5345 841,5343 863,5349 867,5347 877,5329 887,5289 913,5271 911,5253 933,5229 983,5177 989,5159 991,5143 981,5127 977,5107 965,5075 951,5063 945,5057 941,5041 939,5011 939,4989 943,4975 947,4969 953,4965 975,4961 1009,4959 1049,4965 1079,4971 1093,4975 1107,4977 1165,4951 1229,4969 1245,4971 1249,4971 1261,4957 1291,4891 1321,4849 1339,4819 1369,4783 1369,4775 1363,4761 1357,4751 1343,4741 1313,4725 1301,4713 1297,4705 1297,4699 1297,4665 1293,4647 1287,4639 1273,4619 1247,4583 1247,4577 1247,4571 1259,4555 1271,4539 1261,4529 1233,4509 1231,4483 1235,4427 1229,4405 1219,4381 1207,4373 1183,4367 1173,4327 1163,4309 1153,4293 1127,4273 1111,4263 1089,4243 1081,4243 1071,4245 1067,4253 1061,4267 1059,4281 1057,4303 1055,4309 1051,4311 1035,4307 997,4301 973,4313 961,4313 941,4307 933,4303 919,4289 887,4277 885,4273 887,4269 893,4261 911,4243 957,4207 969,4193 979,4177 987,4157 993,4145 993,4137 991,4129 981,4115 979,4111 985,4105 1007,4097 1045,4087 1059,4081 1067,4071 1075,4053 1080,4043 1093,4043 1101,4047 1115,4057 1127,4069 1147,4089 1167,4097 1223,4119 1229,4119 1237,4119 1263,4109 1277,4107 1297,4109 1309,4115 1321,4125 1337,4151 1351,4179 1355,4191 1357,4201 1359,4219 1359,4229 1377,4257 1387,4267 1393,4271 1399,4271 1407,4265 1427,4241 1455,4215 1473,4209 1507,4225 1535,4203 1553,4201 1567,4213 1589,4239 1607,4255 1645,4273 1673,4287 1685,4291 1701,4283 1715,4277 1751,4275 1787,4271 1823,4261 1837,4253 1843,4247 1849,4237 1851,4223 1853,4193 1867,4173 1873,4155 1879,4153 1907,4163 1913,4163 1923,4161 1933,4155 1945,4145 1966,4112 2001,4109 2029,4124 2062,4138 2091,4140 2121,4148 2171,4142 2196,4157 2213,4151 2211,4138 2208,4121 2200,4102 2220,4067 2251,4044 2270,4013 2296,4006 2326,4019 " class="polyStyle" id="610330" style="fill:#ee8b94"/>
<polygon points="6971,3923 6998,3924 7030,3927 7065,3935 7094,3931 7120,3935 7151,3942 7188,3932 7217,3953 7250,3963 7282,3972 7312,3986 7338,4000 7374,4015 7408,4026 7433,4031 7463,4037 7495,4049 7526,4053 7557,4053 7589,4053 7620,4063 7650,4067 7686,4077 7695,4107 7687,4136 7688,4173 7711,4202 7745,4221 7741,4247 7742,4277 7721,4309 7716,4337 7734,4362 7762,4364 7788,4362 7819,4366 7848,4375 7876,4376 7904,4394 7925,4432 7953,4444 7991,4449 8027,4453 8057,4452 8098,4446 8124,4447 8154,4437 8188,4441 8210,4415 8238,4423 8265,4419 8296,4407 8329,4395 8363,4408 8389,4409 8387,4419 8384,4424 8394,4424 8415,4421 8429,4411 8445,4407 8482,4401 8532,4396 8567,4395 8582,4393 8594,4446 8591,4476 8586,4509 8574,4542 8558,4569 8559,4601 8560,4628 8526,4660 8515,4687 8498,4721 8467,4741 8443,4768 8438,4798 8451,4829 8452,4862 8435,4892 8436,4919 8433,4947 8433,4975 8438,5002 8428,5028 8401,5061 8381,5088 8340,5127 8311,5148 8300,5174 8305,5203 8293,5232 8260,5249 8228,5269 8215,5297 8177,5305 8144,5336 8131,5363 8130,5395 8143,5425 8147,5453 8154,5498 8175,5532 8183,5548 8180,5575 8189,5600 8163,5607 8126,5609 8098,5602 8069,5600 8041,5602 8016,5586 8000,5558 7987,5532 7973,5520 7925,5514 7892,5532 7880,5545 7850,5552 7823,5560 7785,5582 7755,5608 7729,5639 7704,5645 7674,5649 7646,5639 7618,5610 7586,5587 7559,5568 7527,5555 7495,5549 7466,5561 7441,5588 7414,5601 7385,5606 7358,5627 7350,5622 7320,5615 7295,5606 7266,5604 7236,5595 7203,5593 7176,5589 7146,5581 7122,5556 7122,5527 7119,5500 7100,5469 7078,5454 7065,5428 7072,5397 7066,5375 7050,5361 7032,5339 7009,5317 6976,5294 6954,5269 6933,5235 6929,5186 6922,5149 6933,5118 6947,5088 6941,5059 6943,5023 6960,4988 6970,4961 6972,4926 6954,4894 6933,4863 6895,4844 6861,4814 6831,4802 6806,4777 6779,4767 6753,4759 6720,4750 6702,4731 6698,4733 6715,4700 6737,4664 6759,4640 6782,4609 6810,4566 6813,4536 6820,4499 6832,4476 6836,4448 6850,4418 6866,4392 6877,4363 6862,4338 6846,4319 6832,4298 6820,4261 6819,4234 6803,4205 6789,4174 6777,4154 6757,4123 6737,4094 6742,4062 6755,4029 6777,3996 6804,3996 6837,4002 6863,3983 6872,3955 6884,3918 6904,3908 6938,3914 " class="polyStyle" id="610326" style="fill:#fbe6ef"/>
<polygon points="6218,1753 6249,1766 6291,1799 6316,1811 6339,1827 6362,1832 6387,1832 6392,1846 6382,1872 6375,1902 6368,1920 6371,1932 6388,1926 6408,1910 6419,1921 6428,1944 6444,1977 6473,2019 6492,2030 6504,2022 6525,2008 6541,2020 6562,2053 6575,2095 6585,2125 6609,2157 6627,2191 6631,2225 6615,2250 6629,2266 6654,2262 6677,2256 6690,2280 6709,2306 6708,2336 6705,2359 6684,2371 6666,2396 6669,2427 6659,2462 6665,2467 6645,2485 6628,2496 6611,2496 6592,2500 6587,2515 6584,2533 6575,2567 6557,2588 6533,2590 6500,2579 6459,2571 6428,2565 6399,2570 6366,2579 6339,2599 6335,2616 6343,2634 6365,2655 6411,2665 6443,2665 6474,2686 6504,2716 6534,2728 6548,2715 6566,2721 6568,2738 6552,2766 6534,2788 6536,2803 6531,2828 6523,2860 6511,2886 6484,2906 6452,2927 6433,2948 6425,2966 6397,2973 6358,2972 6332,3000 6329,3027 6305,3058 6304,3085 6310,3110 6313,3145 6320,3174 6340,3194 6340,3217 6322,3234 6305,3257 6292,3266 6276,3287 6272,3303 6253,3300 6239,3284 6215,3291 6213,3311 6221,3332 6233,3359 6253,3370 6275,3384 6291,3398 6294,3424 6280,3435 6271,3437 6258,3435 6238,3438 6223,3451 6231,3466 6249,3477 6269,3496 6265,3526 6278,3558 6264,3588 6238,3607 6225,3631 6230,3643 6250,3653 6275,3674 6270,3701 6283,3716 6304,3728 6309,3754 6294,3775 6290,3793 6299,3802 6290,3801 6262,3794 6237,3796 6206,3783 6180,3793 6137,3777 6113,3767 6094,3761 6066,3774 6038,3770 5997,3760 5977,3733 5949,3709 5923,3693 5893,3671 5871,3653 5866,3628 5887,3600 5895,3572 5884,3544 5872,3531 5853,3535 5831,3538 5808,3533 5795,3514 5791,3493 5802,3461 5806,3434 5779,3431 5752,3410 5729,3400 5697,3393 5676,3402 5648,3407 5608,3400 5584,3384 5553,3376 5521,3360 5490,3351 5467,3349 5424,3364 5386,3377 5357,3389 5322,3388 5292,3389 5263,3394 5247,3424 5217,3436 5192,3445 5165,3447 5137,3424 5111,3401 5086,3392 5054,3410 5010,3437 5004,3457 4995,3467 4975,3445 4953,3416 4920,3391 4902,3354 4883,3325 4851,3328 4823,3325 4794,3308 4775,3300 4756,3276 4735,3256 4722,3243 4701,3235 4674,3237 4642,3233 4612,3224 4580,3199 4554,3170 4524,3140 4509,3111 4480,3080 4454,3047 4442,3017 4447,3001 4454,2984 4456,2956 4457,2944 4450,2928 4428,2922 4409,2926 4387,2928 4366,2917 4371,2888 4354,2871 4368,2860 4405,2859 4439,2834 4465,2803 4481,2772 4485,2746 4483,2712 4480,2685 4476,2645 4471,2619 4471,2588 4481,2560 4512,2529 4546,2506 4579,2493 4609,2486 4635,2465 4650,2434 4670,2409 4680,2371 4703,2343 4729,2320 4755,2302 4783,2281 4818,2267 4846,2243 4869,2214 4883,2180 4884,2143 4884,2108 4884,2078 4884,2041 4885,2009 4897,1983 4917,1956 4944,1932 4980,1911 5003,1891 5012,1877 5017,1862 5016,1836 5002,1823 4987,1814 4982,1799 4987,1791 5001,1791 5008,1791 5029,1797 5059,1812 5076,1821 5087,1826 5086,1840 5080,1873 5077,1902 5064,1915 5061,1934 5092,1937 5112,1914 5127,1881 5150,1852 5177,1840 5202,1844 5228,1852 5256,1830 5285,1806 5301,1813 5320,1840 5328,1869 5345,1902 5356,1929 5377,1921 5402,1903 5428,1907 5449,1893 5455,1869 5459,1847 5443,1826 5451,1807 5473,1802 5494,1809 5511,1804 5530,1789 5555,1776 5586,1779 5610,1794 5632,1797 5649,1783 5667,1770 5684,1770 5712,1774 5734,1780 5737,1799 5722,1814 5724,1828 5741,1836 5769,1839 5804,1843 5813,1866 5823,1887 5852,1890 5883,1886 5902,1873 5906,1855 5902,1832 5888,1815 5883,1795 5901,1781 5924,1784 5940,1796 5961,1798 5996,1785 6033,1771 6067,1764 6097,1758 6127,1751 6154,1748 6185,1749 " class="polyStyle" id="610322" style="fill:#f6f67b"/>
<polygon points="4184,804 4198,820 4202,840 4206,842 4210,844 4220,846 4228,846 4236,842 4260,828 4286,842 4306,842 4322,846 4314,876 4338,884 4366,938 4354,952 4380,962 4386,982 4384,1006 4362,1030 4354,1046 4370,1050 4378,1056 4390,1082 4390,1100 4396,1104 4424,1112 4432,1110 4455,1097 4475,1095 4489,1097 4495,1107 4501,1123 4505,1131 4519,1139 4549,1137 4556,1139 4564,1130 4574,1114 4588,1078 4594,1066 4602,1062 4614,1078 4640,1078 4660,1088 4658,1104 4662,1108 4692,1120 4700,1122 4706,1120 4710,1112 4722,1080 4742,1022 4752,1000 4762,986 4784,984 4798,974 4816,986 4826,992 4842,988 4854,980 4854,976 4856,970 4842,958 4842,950 4854,926 4882,882 4894,828 4908,816 4926,808 4930,810 4938,826 4946,836 4958,840 4980,842 5012,842 5066,844 5084,848 5088,840 5096,828 5120,826 5140,828 5168,830 5190,848 5204,880 5234,880 5248,902 5254,912 5262,936 5272,958 5284,966 5285,999 5287,1028 5299,1055 5320,1090 5308,1118 5302,1149 5331,1171 5314,1179 5284,1172 5278,1186 5289,1204 5292,1218 5288,1239 5261,1257 5233,1258 5213,1271 5207,1286 5224,1315 5239,1339 5245,1371 5243,1397 5230,1436 5228,1461 5224,1488 5211,1514 5185,1548 5155,1577 5139,1598 5141,1621 5154,1632 5176,1640 5175,1654 5162,1657 5129,1656 5115,1675 5122,1704 5111,1727 5104,1747 5094,1775 5090,1797 5087,1826 5076,1821 5059,1812 5029,1797 5008,1791 5001,1791 4987,1791 4982,1799 4987,1814 5002,1823 5016,1836 5017,1862 5012,1877 5003,1891 4980,1911 4944,1932 4917,1956 4897,1983 4885,2009 4884,2041 4884,2078 4884,2108 4884,2143 4883,2180 4869,2214 4846,2243 4818,2267 4783,2281 4755,2302 4729,2320 4703,2343 4680,2371 4670,2409 4650,2434 4635,2465 4609,2486 4579,2493 4546,2506 4512,2529 4481,2560 4471,2588 4471,2619 4476,2645 4480,2685 4483,2712 4469,2713 4436,2718 4399,2716 4374,2715 4339,2718 4310,2721 4279,2719 4262,2710 4252,2698 4242,2680 4244,2652 4239,2627 4213,2628 4189,2624 4165,2625 4156,2642 4137,2659 4117,2667 4118,2681 4124,2696 4095,2705 4069,2705 4040,2680 4016,2653 3985,2622 3981,2593 3970,2566 3940,2551 3919,2548 3880,2540 3844,2518 3816,2498 3787,2485 3758,2467 3733,2444 3712,2400 3694,2378 3661,2373 3637,2368 3606,2345 3572,2353 3532,2358 3502,2336 3478,2294 3464,2247 3457,2212 3425,2193 3400,2207 3379,2203 3372,2185 3364,2152 3349,2113 3331,2095 3310,2078 3281,2060 3260,2047 3265,2023 3275,2005 3289,1990 3286,1962 3263,1956 3230,1946 3199,1929 3169,1926 3170,1905 3192,1901 3206,1894 3221,1887 3235,1865 3233,1847 3206,1830 3205,1811 3248,1801 3261,1772 3284,1737 3293,1711 3319,1687 3354,1690 3382,1684 3394,1672 3410,1642 3437,1623 3471,1616 3511,1623 3541,1607 3566,1609 3589,1592 3595,1553 3611,1536 3632,1504 3633,1478 3636,1447 3659,1420 3691,1397 3708,1373 3716,1339 3704,1309 3677,1283 3666,1265 3679,1253 3710,1246 3724,1215 3729,1189 3734,1151 3740,1126 3745,1094 3750,1064 3752,1021 3769,993 3796,982 3821,972 3855,964 3882,968 3913,986 3945,1003 3979,1010 4013,1008 4017,980 3996,966 3999,950 4011,929 4037,914 4082,909 4097,896 4107,858 4116,832 4125,805 4130,804 4148,786 4154,786 4172,796 " class="polyStyle" id="610328" style="fill:#ee8b94"/>
<polygon points="2058,54 2064,54 2100,20 2110,12 2130,12 2172,22 2204,42 2230,26 2242,30 2252,50 2258,60 2268,64 2282,64 2312,56 2336,76 2368,62 2442,74 2476,84 2518,100 2532,112 2540,118 2562,122 2598,124 2624,126 2654,124 2668,120 2676,114 2690,96 2702,84 2728,68 2744,60 2770,58 2802,60 2846,62 2852,60 2858,58 2870,54 2878,50 2894,72 2942,48 2964,66 2996,72 3004,80 3002,90 3004,108 3008,114 3028,126 3070,146 3080,146 3090,140 3094,134 3104,114 3110,108 3114,106 3124,106 3138,108 3164,114 3166,122 3178,142 3186,156 3214,160 3226,182 3256,184 3300,196 3328,184 3358,176 3390,174 3398,182 3374,214 3398,232 3436,226 3470,278 3496,326 3500,334 3500,346 3492,366 3490,372 3490,376 3494,380 3520,386 3550,372 3574,368 3602,376 3610,374 3618,368 3620,344 3622,330 3632,318 3640,314 3650,310 3656,340 3668,348 3698,326 3698,334 3694,348 3674,402 3680,408 3708,392 3734,399 3740,422 3766,430 3868,436 3876,438 3894,458 3910,480 3912,516 3928,558 3922,574 3910,586 3880,622 3868,634 3866,638 3894,648 3900,668 3932,670 3948,700 3970,724 3972,742 3972,756 3976,762 3984,762 4000,752 4014,752 4030,754 4040,756 4046,764 4064,798 4096,794 4112,782 4122,782 4122,806 4125,805 4116,832 4107,858 4097,896 4082,909 4037,914 4011,929 3999,950 3996,966 4017,980 4013,1008 3979,1010 3945,1003 3913,986 3882,968 3855,964 3821,972 3796,982 3769,993 3752,1021 3750,1064 3745,1094 3740,1126 3734,1151 3729,1189 3724,1215 3710,1246 3679,1253 3666,1265 3677,1283 3704,1309 3716,1339 3708,1373 3691,1397 3659,1420 3636,1447 3633,1478 3632,1504 3611,1536 3595,1553 3589,1592 3566,1609 3541,1607 3511,1623 3471,1616 3437,1623 3410,1642 3394,1672 3382,1684 3354,1690 3319,1687 3293,1711 3284,1737 3261,1772 3248,1801 3205,1811 3206,1830 3233,1847 3235,1865 3221,1887 3206,1894 3192,1901 3170,1905 3142,1908 3116,1916 3092,1900 3071,1877 3042,1857 3019,1833 2998,1816 2976,1803 2956,1807 2929,1807 2910,1830 2885,1856 2880,1888 2859,1901 2840,1916 2813,1943 2781,1953 2746,1955 2716,1975 2700,2000 2665,2024 2641,2047 2627,2073 2606,2105 2596,2141 2602,2169 2607,2195 2606,2225 2593,2250 2584,2283 2566,2291 2553,2306 2556,2326 2579,2348 2605,2364 2638,2392 2657,2406 2664,2440 2648,2471 2639,2505 2639,2532 2644,2568 2636,2595 2606,2595 2580,2577 2552,2548 2525,2526 2494,2503 2481,2472 2449,2455 2407,2466 2375,2495 2348,2489 2320,2497 2304,2524 2272,2542 2255,2514 2240,2511 2214,2512 2178,2520 2159,2510 2149,2484 2149,2452 2148,2423 2137,2395 2121,2363 2088,2357 2059,2353 2039,2342 2022,2307 2016,2276 1980,2290 1952,2299 1932,2296 1905,2300 1880,2315 1871,2351 1870,2397 1890,2418 1913,2442 1899,2462 1881,2478 1862,2487 1836,2486 1824,2476 1805,2455 1789,2447 1761,2475 1731,2487 1686,2486 1651,2476 1625,2463 1594,2437 1557,2410 1519,2398 1491,2405 1454,2413 1425,2415 1388,2397 1363,2396 1341,2405 1316,2421 1290,2440 1270,2462 1236,2468 1215,2453 1212,2438 1221,2425 1246,2415 1246,2402 1217,2378 1187,2361 1147,2341 1116,2314 1089,2302 1057,2280 1029,2271 1004,2270 972,2269 956,2262 936,2242 906,2236 878,2235 849,2239 821,2244 815,2272 813,2281 808,2270 798,2258 772,2236 752,2224 728,2214 698,2196 690,2164 684,2152 682,2142 690,2140 704,2136 716,2124 722,2106 722,2102 718,2096 700,2092 694,2088 690,2076 686,2062 696,2036 726,2022 708,2004 726,1974 738,1960 752,1952 762,1948 770,1948 775,1953 778,1982 800,1976 816,1972 858,1952 880,1928 904,1892 914,1886 934,1884 940,1878 940,1872 938,1858 934,1842 928,1827 928,1818 932,1808 936,1800 942,1792 946,1788 950,1788 954,1790 976,1804 990,1810 996,1812 1012,1808 1062,1792 1090,1784 1112,1780 1134,1780 1166,1784 1186,1788 1208,1788 1196,1764 1180,1736 1178,1724 1184,1716 1212,1700 1224,1694 1242,1688 1252,1694 1262,1702 1284,1694 1300,1686 1314,1678 1322,1674 1328,1654 1340,1634 1340,1624 1342,1604 1342,1588 1326,1572 1308,1554 1272,1536 1270,1486 1260,1470 1212,1456 1208,1444 1220,1434 1208,1404 1202,1388 1202,1374 1204,1366 1228,1368 1252,1356 1256,1352 1240,1304 1238,1282 1238,1250 1246,1220 1230,1220 1212,1216 1200,1208 1188,1188 1176,1174 1148,1148 1140,1138 1126,1128 1110,1132 1068,1138 1066,1134 1064,1114 1042,1094 1014,1076 994,1054 994,1048 1010,1026 1018,978 1028,964 1040,922 1032,910 992,910 964,894 964,874 952,846 912,830 890,822 900,776 910,738 912,728 906,714 899,698 897,676 895,672 883,658 867,636 863,622 871,606 891,592 921,584 943,574 949,568 956,547 942,541 934,538 927,536 923,533 922,528 922,524 922,518 923,512 924,507 920,500 921,494 935,456 937,446 919,440 911,436 899,424 891,418 900,414 931,402 939,384 964,356 970,359 975,362 983,367 990,370 997,374 1003,377 1011,376 1017,374 1024,372 1031,372 1037,376 1045,381 1050,385 1056,384 1064,379 1073,375 1078,376 1082,379 1081,350 1081,328 1089,316 1147,218 1159,198 1175,168 1173,152 1167,136 1153,114 1155,106 1173,94 1179,92 1203,82 1225,74 1245,74 1259,82 1285,108 1303,120 1313,122 1317,120 1319,116 1321,108 1309,84 1319,74 1331,72 1353,84 1383,72 1393,70 1399,76 1405,94 1433,100 1449,112 1472,101 1487,116 1499,132 1515,146 1523,168 1541,172 1559,176 1581,156 1617,170 1661,164 1665,162 1675,126 1731,155 1763,180 1774,152 1780,146 1806,142 1842,136 1874,134 1932,122 1956,116 1980,112 1984,86 2024,52 2006,20 2000,14 2004,6 2020,0 2040,18 " class="polyStyle" id="610327" style="fill:#d4ecb2"/>
<path d="" class="polyStyle" id="632323" style="fill:#f6f67b"/>
<path d="" class="polyStyle" id="140525" style="fill:#d4ecb2"/>
<path d="" class="polyStyle" id="410922" style="fill:#ee8b94"/>
<path d="" class="polyStyle" id="621027" style="fill:#ee8b94"/>
<path d="" class="polyStyle" id="130427" style="fill:#f6f67b"/>
<path d="" class="polyStyle" id="130121" style="fill:#ee8b94"/>
<path d="" class="polyStyle" id="610823" style="fill:#fbe6ef"/>
<path d="" class="polyStyle" id="130225" style="fill:#fbe6ef"/>
<path d="" class="polyStyle" id="130322" style="fill:#d4ecb2"/>
<path d="" class="polyStyle" id="653130" style="fill:#f6f67b"/>
<path d="" class="polyStyle" id="130822" style="fill:#fbe6ef"/>
<path d="" class="polyStyle" id="211221" style="fill:#f6f67b"/>
<path d="" class="polyStyle" id="210921" style="fill:#f6f67b"/>
<path d="" class="polyStyle" id="150223" style="fill:#f8c67d"/>
<path d="" class="polyStyle" id="220422" style="fill:#d4ecb2"/>
<path d="" class="polyStyle" id="340721" style="fill:#f6f67b"/>
<polygon points="6303,3807 6299,3802 6290,3793 6294,3775 6309,3754 6304,3728 6283,3716 6270,3701 6275,3674 6250,3653 6230,3643 6225,3631 6238,3607 6264,3588 6278,3558 6265,3526 6269,3496 6249,3477 6231,3466 6223,3451 6238,3438 6258,3435 6271,3437 6280,3435 6294,3424 6291,3398 6275,3384 6253,3370 6233,3359 6221,3332 6213,3311 6215,3291 6239,3284 6253,3300 6272,3303 6276,3287 6292,3266 6305,3257 6322,3234 6340,3217 6340,3194 6320,3174 6313,3145 6310,3110 6304,3085 6305,3058 6329,3027 6332,3000 6358,2972 6397,2973 6425,2966 6433,2948 6452,2927 6484,2906 6511,2886 6523,2860 6531,2828 6536,2803 6534,2788 6552,2766 6568,2738 6566,2721 6548,2715 6534,2728 6504,2716 6474,2686 6443,2665 6411,2665 6365,2655 6343,2634 6335,2616 6339,2599 6366,2579 6399,2570 6428,2565 6459,2571 6500,2579 6533,2590 6557,2588 6575,2567 6584,2533 6587,2515 6592,2500 6611,2496 6628,2496 6645,2485 6665,2467 6671,2471 6696,2459 6713,2441 6726,2441 6738,2458 6757,2498 6776,2519 6812,2531 6844,2557 6883,2569 6884,2589 6894,2602 6934,2602 6962,2581 6978,2552 6982,2520 7013,2511 7044,2511 7077,2499 7097,2511 7111,2526 7117,2556 7114,2583 7142,2589 7176,2598 7205,2594 7240,2577 7271,2564 7299,2589 7325,2605 7344,2600 7364,2608 7390,2607 7421,2606 7448,2626 7464,2626 7484,2618 7510,2618 7517,2642 7492,2677 7492,2708 7509,2734 7509,2739 7509,2765 7509,2793 7512,2827 7523,2854 7554,2880 7567,2916 7573,2949 7597,2982 7619,3007 7637,3012 7663,3010 7682,3013 7690,3030 7693,3056 7702,3092 7713,3125 7710,3153 7683,3181 7662,3213 7675,3246 7701,3262 7727,3278 7758,3301 7765,3328 7786,3355 7807,3385 7834,3406 7861,3430 7863,3456 7849,3483 7832,3510 7797,3523 7770,3511 7743,3529 7705,3548 7672,3564 7641,3553 7616,3527 7583,3505 7557,3491 7528,3484 7499,3496 7477,3484 7442,3478 7410,3487 7392,3515 7394,3543 7386,3570 7364,3575 7330,3572 7300,3599 7285,3631 7287,3661 7311,3685 7308,3710 7274,3723 7254,3748 7251,3781 7249,3809 7240,3840 7223,3867 7240,3891 7236,3908 7210,3912 7195,3924 7188,3932 7151,3942 7120,3935 7094,3931 7065,3935 7030,3927 6998,3924 6971,3923 6938,3914 6904,3908 6884,3918 6872,3955 6863,3983 6837,4002 6804,3996 6777,3996 6755,4029 6742,4062 6737,4094 6757,4123 6777,4154 6789,4174 6803,4205 6819,4234 6820,4261 6832,4298 6846,4319 6862,4338 6877,4363 6866,4392 6850,4418 6836,4448 6832,4476 6820,4499 6813,4536 6810,4566 6782,4609 6759,4640 6737,4664 6715,4700 6698,4733 6686,4742 6671,4768 6677,4796 6664,4814 6646,4833 6625,4843 6596,4855 6578,4868 6541,4855 6515,4833 6479,4826 6454,4847 6430,4863 6412,4853 6400,4826 6372,4797 6365,4762 6370,4731 6367,4712 6346,4709 6327,4712 6292,4719 6262,4716 6230,4716 6213,4739 6191,4754 6165,4747 6133,4733 6127,4733 6126,4692 6127,4653 6135,4628 6136,4596 6135,4573 6138,4553 6148,4526 6155,4497 6170,4465 6189,4436 6213,4408 6235,4370 6243,4344 6260,4328 6282,4309 6292,4285 6305,4258 6319,4233 6328,4204 6329,4175 6332,4150 6340,4117 6368,4081 6365,4050 6365,4016 6362,3983 6367,3955 6363,3926 6341,3903 6341,3871 6351,3842 6338,3808 6322,3807 " class="polyStyle" id="610323" style="fill:#ee8b94"/>
<path d="" class="polyStyle" id="510824" style="fill:#d4ecb2"/>
<polygon points="8615,2394 8617,2397 8613,2399 8610,2400 8607,2400 8603,2399 8600,2400 8596,2404 8593,2408 8585,2411 8582,2415 8580,2418 8580,2421 8577,2425 8572,2426 8569,2425 8565,2425 8558,2423 8555,2422 8552,2420 8548,2418 8545,2416 8541,2414 8538,2412 8534,2411 8531,2410 8527,2409 8522,2410 8518,2411 8515,2413 8515,2416 8520,2421 8520,2424 8519,2427 8516,2428 8512,2428 8509,2428 8509,2431 8510,2434 8511,2437 8512,2442 8510,2445 8507,2446 8504,2445 8500,2444 8497,2443 8493,2442 8490,2442 8487,2442 8483,2443 8480,2444 8477,2444 8473,2446 8468,2443 8446,2441 8431,2446 8427,2454 8422,2461 8420,2463 8402,2463 8371,2462 8342,2456 8314,2447 8315,2418 8288,2434 8259,2435 8226,2441 8202,2463 8170,2460 8133,2433 8105,2420 8066,2408 8041,2420 8002,2444 7971,2449 7945,2454 7918,2456 7883,2455 7857,2468 7835,2489 7812,2505 7779,2515 7749,2544 7742,2570 7760,2588 7794,2593 7827,2598 7838,2612 7821,2625 7780,2630 7755,2642 7723,2656 7700,2661 7673,2680 7642,2685 7613,2707 7581,2723 7547,2727 7528,2741 7509,2739 7509,2734 7492,2708 7492,2677 7517,2642 7510,2618 7484,2618 7464,2626 7448,2626 7421,2606 7390,2607 7364,2608 7344,2600 7325,2605 7299,2589 7271,2564 7240,2577 7205,2594 7176,2598 7142,2589 7114,2583 7117,2556 7111,2526 7097,2511 7077,2499 7044,2511 7013,2511 6982,2520 6978,2552 6962,2581 6934,2602 6894,2602 6884,2589 6883,2569 6844,2557 6812,2531 6776,2519 6757,2498 6738,2458 6726,2441 6713,2441 6696,2459 6671,2471 6665,2467 6659,2462 6669,2427 6666,2396 6684,2371 6705,2359 6708,2336 6709,2306 6690,2280 6677,2256 6654,2262 6629,2266 6615,2250 6631,2225 6627,2191 6609,2157 6585,2125 6575,2095 6562,2053 6541,2020 6525,2008 6504,2022 6492,2030 6473,2019 6444,1977 6428,1944 6419,1921 6408,1910 6388,1926 6371,1932 6368,1920 6375,1902 6382,1872 6392,1846 6387,1832 6362,1832 6339,1827 6316,1811 6291,1799 6249,1766 6218,1753 6185,1749 6154,1748 6127,1751 6097,1758 6067,1764 6033,1771 5996,1785 5961,1798 5940,1796 5924,1784 5901,1781 5883,1795 5888,1815 5902,1832 5906,1855 5902,1873 5883,1886 5852,1890 5823,1887 5813,1866 5804,1843 5769,1839 5741,1836 5724,1828 5722,1814 5737,1799 5734,1780 5712,1774 5684,1770 5667,1770 5649,1783 5632,1797 5610,1794 5586,1779 5555,1776 5530,1789 5511,1804 5494,1809 5473,1802 5451,1807 5443,1826 5459,1847 5455,1869 5449,1893 5428,1907 5402,1903 5377,1921 5356,1929 5345,1902 5328,1869 5320,1840 5301,1813 5285,1806 5256,1830 5228,1852 5202,1844 5177,1840 5150,1852 5127,1881 5112,1914 5092,1937 5061,1934 5064,1915 5077,1902 5080,1873 5086,1840 5087,1826 5090,1797 5094,1775 5104,1747 5111,1727 5122,1704 5115,1675 5129,1656 5162,1657 5175,1654 5176,1640 5154,1632 5141,1621 5139,1598 5155,1577 5185,1548 5211,1514 5224,1488 5228,1461 5230,1436 5243,1397 5245,1371 5239,1339 5224,1315 5207,1286 5213,1271 5233,1258 5261,1257 5288,1239 5292,1218 5289,1204 5278,1186 5284,1172 5314,1179 5331,1171 5302,1149 5308,1118 5320,1090 5299,1055 5287,1028 5285,999 5284,966 5302,920 5322,922 5332,872 5362,854 5412,850 5444,872 5474,848 5508,862 5528,852 5542,868 5558,878 5570,898 5590,906 5620,924 5638,924 5658,916 5684,960 5692,964 5706,964 5716,944 5730,928 5748,946 5778,950 5800,958 5830,938 5834,924 5830,912 5836,910 5850,916 5860,924 5882,940 5904,962 5912,980 5916,986 5928,992 5936,992 5950,988 5974,962 5990,958 6030,962 6074,960 6088,956 6092,942 6090,936 6086,930 6074,922 6070,912 6074,906 6082,890 6086,882 6098,874 6122,874 6132,876 6140,868 6156,858 6170,846 6184,832 6220,762 6248,740 6268,708 6286,714 6308,692 6318,686 6336,692 6352,710 6390,722 6408,752 6426,764 6434,768 6438,766 6442,764 6456,748 6454,716 6468,698 6482,692 6502,686 6516,686 6526,694 6536,698 6584,714 6596,720 6610,734 6616,742 6618,748 6618,756 6616,772 6610,800 6598,846 6584,892 6572,916 6570,924 6576,926 6608,920 6622,922 6648,928 6652,924 6636,880 6632,868 6638,850 6660,846 6688,864 6716,858 6732,844 6742,824 6748,818 6768,810 6782,806 6782,790 6822,768 6832,790 6856,770 6900,766 6912,768 6966,772 6994,734 7008,710 7016,712 7022,720 7026,740 7029,769 7034,770 7050,770 7074,766 7100,754 7140,756 7164,760 7196,720 7212,716 7268,722 7288,710 7312,714 7366,734 7388,736 7430,718 7472,742 7450,692 7459,683 7485,651 7527,651 7542,656 7545,687 7548,711 7560,737 7584,771 7597,810 7585,827 7573,859 7580,904 7598,938 7617,968 7618,1003 7641,1020 7675,1025 7684,1061 7670,1077 7658,1093 7656,1121 7670,1142 7694,1153 7709,1161 7716,1186 7707,1229 7700,1263 7704,1291 7733,1303 7763,1303 7781,1293 7784,1270 7790,1253 7805,1249 7814,1275 7832,1307 7865,1315 7895,1312 7924,1312 7952,1309 7982,1307 8013,1300 8042,1294 8078,1288 8107,1267 8131,1260 8158,1250 8161,1256 8165,1263 8156,1282 8155,1309 8166,1338 8187,1385 8197,1414 8196,1440 8203,1469 8218,1505 8242,1535 8267,1543 8294,1553 8337,1561 8373,1589 8408,1610 8438,1625 8449,1659 8452,1692 8467,1706 8470,1723 8474,1752 8484,1780 8489,1806 8484,1837 8485,1842 8487,1847 8488,1850 8490,1853 8493,1857 8496,1861 8498,1864 8502,1866 8506,1870 8510,1874 8515,1878 8519,1882 8522,1885 8526,1891 8530,1893 8531,1899 8533,1902 8533,1906 8533,1910 8533,1913 8533,1916 8533,1919 8531,1923 8531,1927 8531,1930 8530,1933 8529,1937 8528,1941 8528,1944 8527,1947 8526,1950 8526,1953 8526,1956 8525,1960 8528,1966 8530,1970 8532,1973 8532,1977 8533,1981 8534,1984 8534,1987 8535,1991 8535,1995 8535,1998 8536,2005 8536,2009 8538,2013 8538,2017 8538,2021 8538,2025 8538,2028 8537,2031 8538,2035 8539,2039 8541,2042 8544,2045 8546,2048 8549,2053 8549,2056 8549,2059 8550,2063 8550,2067 8550,2070 8550,2073 8550,2076 8549,2080 8548,2084 8548,2087 8548,2090 8548,2094 8549,2101 8549,2104 8552,2109 8552,2112 8554,2115 8555,2118 8556,2121 8558,2125 8561,2129 8565,2136 8569,2140 8571,2143 8574,2145 8577,2148 8579,2151 8582,2154 8583,2158 8582,2161 8580,2163 8579,2167 8576,2171 8576,2175 8577,2178 8577,2181 8576,2185 8573,2189 8570,2190 8566,2189 8563,2189 8559,2189 8560,2196 8561,2200 8564,2207 8565,2211 8567,2214 8570,2217 8575,2220 8578,2225 8577,2229 8576,2232 8575,2235 8573,2238 8572,2242 8576,2246 8580,2248 8583,2250 8587,2252 8589,2255 8591,2262 8593,2266 8594,2269 8593,2272 8592,2275 8588,2280 8587,2283 8586,2286 8585,2289 8584,2293 8584,2297 8586,2300 8589,2302 8592,2305 8594,2308 8594,2311 8594,2315 8594,2319 8594,2322 8594,2325 8594,2329 8595,2333 8596,2336 8596,2339 8597,2343 8598,2347 8598,2350 8597,2353 8598,2356 8596,2360 8595,2364 8594,2367 8594,2370 8593,2374 8596,2378 8599,2377 8603,2376 8606,2376 8609,2379 8608,2383 8607,2386 8606,2389 8607,2392 8612,2393 " class="polyStyle" id="610329" style="fill:#fbe6ef"/>
<path d="M8701,3905 L8698,3907 L8694,3905 L8691,3905 L8687,3904 L8684,3905 L8681,3909 L8680,3913 L8678,3916 L8675,3918 L8668,3920 L8665,3920 L8661,3920 L8658,3920 L8654,3920 L8648,3922 L8645,3924 L8642,3926 L8638,3927 L8635,3927 L8631,3927 L8628,3928 L8625,3931 L8623,3934 L8619,3936 L8616,3936 L8612,3936 L8609,3935 L8606,3935 L8602,3935 L8599,3938 L8597,3941 L8594,3943 L8590,3945 L8587,3945 L8583,3945 L8580,3944 L8577,3943 L8570,3934 L8568,3930 L8564,3925 L8560,3921 L8556,3919 L8553,3917 L8550,3917 L8546,3916 L8543,3916 L8539,3916 L8533,3917 L8529,3917 L8526,3917 L8522,3917 L8519,3918 L8516,3918 L8512,3918 L8509,3918 L8506,3919 L8502,3920 L8499,3923 L8499,3926 L8499,3929 L8497,3933 L8493,3935 L8489,3934 L8486,3933 L8483,3931 L8479,3928 L8476,3926 L8473,3923 L8470,3921 L8469,3914 L8468,3911 L8462,3911 L8459,3908 L8460,3904 L8457,3897 L8450,3888 L8442,3876 L8441,3869 L8442,3861 L8442,3855 L8435,3852 L8430,3852 L8423,3857 L8418,3863 L8413,3871 L8415,3886 L8421,3911 L8421,3920 L8418,3924 L8412,3926 L8403,3928 L8397,3932 L8394,3932 L8383,3934 L8369,3939 L8367,3943 L8364,3943 L8359,3945 L8357,3942 L8353,3932 L8349,3930 L8340,3929 L8330,3927 L8327,3919 L8326,3911 L8322,3910 L8317,3911 L8314,3911 L8309,3909 L8307,3905 L8304,3901 L8295,3900 L8281,3899 L8268,3903 L8254,3911 L8249,3911 L8241,3910 L8234,3908 L8224,3902 L8220,3901 L8217,3903 L8210,3913 L8203,3929 L8198,3940 L8197,3946 L8194,3959 L8188,3968 L8179,3984 L8174,3996 L8174,4011 L8182,4021 L8198,4046 L8200,4055 L8199,4069 L8198,4076 L8202,4081 L8207,4081 L8212,4075 L8222,4069 L8234,4068 L8238,4069 L8240,4072 L8237,4086 L8238,4092 L8242,4096 L8255,4096 L8260,4094 L8263,4087 L8266,4081 L8269,4079 L8274,4079 L8282,4082 L8286,4095 L8289,4108 L8298,4114 L8304,4117 L8312,4118 L8323,4120 L8333,4119 L8334,4138 L8333,4145 L8314,4145 L8310,4159 L8311,4177 L8316,4180 L8334,4182 L8379,4185 L8387,4188 L8401,4189 L8417,4191 L8428,4208 L8434,4220 L8425,4227 L8402,4237 L8394,4241 L8391,4250 L8388,4273 L8390,4279 L8394,4283 L8397,4287 L8398,4292 L8399,4307 L8396,4332 L8394,4374 L8391,4404 L8389,4409 L8363,4408 L8329,4395 L8296,4407 L8265,4419 L8238,4423 L8210,4415 L8188,4441 L8154,4437 L8124,4447 L8098,4446 L8057,4452 L8027,4453 L7991,4449 L7953,4444 L7925,4432 L7904,4394 L7876,4376 L7848,4375 L7819,4366 L7788,4362 L7762,4364 L7734,4362 L7716,4337 L7721,4309 L7742,4277 L7741,4247 L7745,4221 L7711,4202 L7688,4173 L7687,4136 L7695,4107 L7686,4077 L7650,4067 L7620,4063 L7589,4053 L7557,4053 L7526,4053 L7495,4049 L7463,4037 L7433,4031 L7408,4026 L7374,4015 L7338,4000 L7312,3986 L7282,3972 L7250,3963 L7217,3953 L7188,3932 L7195,3924 L7210,3912 L7236,3908 L7240,3891 L7223,3867 L7240,3840 L7249,3809 L7251,3781 L7254,3748 L7274,3723 L7308,3710 L7311,3685 L7287,3661 L7285,3631 L7300,3599 L7330,3572 L7364,3575 L7386,3570 L7394,3543 L7392,3515 L7410,3487 L7442,3478 L7477,3484 L7499,3496 L7528,3484 L7557,3491 L7583,3505 L7616,3527 L7641,3553 L7672,3564 L7705,3548 L7743,3529 L7770,3511 L7797,3523 L7832,3510 L7849,3483 L7863,3456 L7861,3430 L7834,3406 L7807,3385 L7786,3355 L7765,3328 L7758,3301 L7727,3278 L7701,3262 L7675,3246 L7662,3213 L7683,3181 L7710,3153 L7713,3125 L7702,3092 L7693,3056 L7690,3030 L7682,3013 L7663,3010 L7637,3012 L7619,3007 L7597,2982 L7573,2949 L7567,2916 L7554,2880 L7523,2854 L7512,2827 L7509,2793 L7509,2765 L7509,2739 L7528,2741 L7547,2727 L7581,2723 L7613,2707 L7642,2685 L7673,2680 L7700,2661 L7723,2656 L7755,2642 L7780,2630 L7821,2625 L7838,2612 L7827,2598 L7794,2593 L7760,2588 L7742,2570 L7749,2544 L7779,2515 L7812,2505 L7835,2489 L7857,2468 L7883,2455 L7918,2456 L7945,2454 L7971,2449 L8002,2444 L8041,2420 L8066,2408 L8105,2420 L8133,2433 L8170,2460 L8202,2463 L8226,2441 L8259,2435 L8288,2434 L8315,2418 L8314,2447 L8342,2456 L8371,2462 L8402,2463 L8420,2463 L8420,2492 L8396,2525 L8369,2557 L8364,2582 L8352,2615 L8344,2647 L8352,2675 L8379,2691 L8405,2704 L8425,2737 L8443,2765 L8460,2795 L8467,2802 L8473,2811 L8481,2837 L8484,2865 L8467,2892 L8460,2922 L8456,2947 L8453,2974 L8461,3003 L8435,3025 L8417,3058 L8431,3090 L8467,3101 L8491,3111 L8532,3093 L8543,3101 L8558,3113 L8550,3139 L8523,3172 L8501,3197 L8499,3225 L8511,3268 L8514,3306 L8495,3332 L8518,3364 L8536,3382 L8556,3404 L8580,3436 L8591,3462 L8602,3492 L8603,3524 L8610,3541 L8616,3570 L8612,3588 L8601,3601 L8582,3621 L8584,3651 L8592,3678 L8607,3706 L8610,3738 L8616,3762 L8638,3782 L8665,3795 L8695,3819 L8695,3849 L8700,3880 L8705,3905 L8701,3905 L8701,3905z M8107,4343 L8117,4343 L8119,4354 L8104,4367 L8076,4371 L8057,4381 L8040,4392 L8021,4392 L8004,4390 L7987,4382 L7967,4382 L7952,4366 L7967,4362 L7980,4360 L7998,4360 L8027,4352 L8049,4347 L8076,4347 L8094,4347 L8107,4343 L8107,4343z " class="polyStyle" id="610324" style="fill:#f6f67b"/>
<path d="" class="polyStyle" id="530722" style="fill:#ee8b94"/>
<path d="" class="polyStyle" id="340823" style="fill:#d4ecb2"/>
<path d="" class="polyStyle" id="620825" style="fill:#d4ecb2"/>
<path d="" class="polyStyle" id="421125" style="fill:#ee8b94"/>
<path d="" class="polyStyle" id="210281" style="fill:#ee8b94"/>
<path d="" class="polyStyle" id="440883" style="fill:#f6f67b"/>
<path d="" class="polyStyle" id="469006" style="fill:#d4ecb2"/>
<path d="" class="polyStyle" id="469002" style="fill:#ee8b94"/>
<path d="" class="polyStyle" id="469005" style="fill:#fbe6ef"/>
<path d="" class="polyStyle" id="440882" style="fill:#ee8b94"/>
<path d="" class="polyStyle" id="450681" style="fill:#ee8b94"/>
<path d="" class="polyStyle" id="441581" style="fill:#d4ecb2"/>
<path d="" class="polyStyle" id="421087" style="fill:#ee8b94"/>
<path d="" class="polyStyle" id="420984" style="fill:#fbe6ef"/>
<path d="" class="polyStyle" id="420582" style="fill:#ee8b94"/>
<path d="" class="polyStyle" id="370282" style="fill:#f6f67b"/>
<path d="" class="polyStyle" id="371083" style="fill:#f6f67b"/>
<path d="" class="polyStyle" id="371082" style="fill:#fbe6ef"/>
<path d="" class="polyStyle" id="652801" style="fill:#f8c67d"/>
<path d="" class="polyStyle" id="654301" style="fill:#ee8b94"/>
<path d="" class="polyStyle" id="370687" style="fill:#ee8b94"/>
<path d="" class="polyStyle" id="371482" style="fill:#d4ecb2"/>
<path d="" class="polyStyle" id="421081" style="fill:#fbe6ef"/>
<path d="" class="polyStyle" id="429006" style="fill:#f6f67b"/>
<path d="" class="polyStyle" id="440982" style="fill:#d4ecb2"/>
<path d="" class="polyStyle" id="421181" style="fill:#d4ecb2"/>
<path d="" class="polyStyle" id="321181" style="fill:#d4ecb2"/>
<path d="" class="polyStyle" id="659007" style="fill:#ee8b94"/>
<path d="" class="polyStyle" id="652701" style="fill:#fbe6ef"/>
<path d="" class="polyStyle" id="210781" style="fill:#fbe6ef"/>
<path d="" class="polyStyle" id="460204" style="fill:#f6f67b"/>
<path d="" class="polyStyle" id="210211" style="fill:#f6f67b"/>
<path d="" class="polyStyle" id="450512" style="fill:#ee8b94"/>
<path d="" class="polyStyle" id="450602" style="fill:#fbe6ef"/>
<path d="" class="polyStyle" id="440404" style="fill:#ee8b94"/>
<path d="" class="polyStyle" id="440403" style="fill:#f6f67b"/>
<path d="" class="polyStyle" id="441502" style="fill:#f6f67b"/>
<path d="" class="polyStyle" id="431002" style="fill:#d4ecb2"/>
<path d="" class="polyStyle" id="500107" style="fill:#fbe6ef"/>
<path d="" class="polyStyle" id="430611" style="fill:#d4ecb2"/>
<path d="" class="polyStyle" id="511304" style="fill:#fbe6ef"/>
<path d="" class="polyStyle" id="340711" style="fill:#ee8b94"/>
<path d="" class="polyStyle" id="320118" style="fill:#f6f67b"/>
<path d="" class="polyStyle" id="510704" style="fill:#f6f67b"/>
<path d="" class="polyStyle" id="411502" style="fill:#ee8b94"/>
<path d="" class="polyStyle" id="320302" style="fill:#d4ecb2"/>
<polygon points="3187,3147 3221,3154 3236,3179 3238,3203 3242,3231 3246,3257 3259,3280 3266,3299 3279,3306 3287,3297 3291,3278 3302,3274 3311,3286 3343,3302 3377,3321 3399,3340 3418,3362 3431,3381 3448,3377 3467,3372 3491,3366 3508,3377 3516,3392 3532,3409 3559,3428 3574,3445 3577,3464 3581,3488 3581,3499 3587,3520 3589,3541 3602,3546 3619,3563 3637,3572 3656,3574 3679,3591 3692,3604 3714,3621 3726,3642 3746,3653 3774,3662 3825,3662 3855,3662 3883,3662 3911,3662 3936,3653 3947,3646 3960,3651 3992,3662 4003,3674 4020,3679 4034,3688 4056,3692 4059,3681 4074,3650 4099,3641 4166,3649 4269,3657 4268,3667 4248,3691 4243,3703 4252,3734 4269,3739 4285,3751 4298,3765 4305,3783 4332,3790 4346,3791 4374,3765 4388,3755 4404,3756 4426,3760 4444,3750 4471,3750 4507,3750 4538,3752 4567,3747 4594,3736 4605,3732 4633,3733 4659,3745 4674,3754 4687,3762 4695,3761 4713,3759 4737,3767 4745,3767 4759,3769 4788,3764 4815,3754 4855,3749 4870,3751 4879,3754 4897,3761 4937,3760 4959,3769 4977,3770 4986,3775 4984,3816 4991,3817 4994,3836 4997,3843 4992,3850 4998,3854 4993,3862 5002,3864 5005,3873 5011,3874 5017,3870 5031,3866 5046,3867 5046,3881 5048,3889 5047,3896 5059,3909 5066,3908 5073,3912 5074,3920 5073,3933 5075,3944 5073,3952 5079,3960 5077,3975 5068,3987 5068,4004 5081,4011 5070,4026 5068,4033 5083,4041 5077,4050 5054,4074 5056,4088 5066,4093 5065,4099 5041,4100 5030,4105 5034,4112 5032,4124 5026,4129 5027,4140 5023,4149 5014,4156 4990,4165 4989,4172 4998,4173 4992,4179 5005,4177 5012,4179 5016,4191 5013,4209 4995,4213 4995,4219 5016,4225 5016,4231 4999,4246 4989,4250 4982,4256 4973,4266 4975,4272 4997,4276 5012,4271 5029,4270 5036,4271 5034,4277 5018,4283 5011,4288 5013,4294 5005,4313 4999,4319 4997,4326 5011,4329 5001,4340 4991,4343 4974,4341 4963,4338 4943,4329 4927,4338 4923,4344 4933,4351 4944,4356 4958,4357 4976,4363 4982,4361 4984,4378 4990,4392 5000,4391 5016,4405 5003,4407 4991,4406 4996,4422 5006,4439 4993,4451 4983,4455 4978,4463 4977,4469 4969,4478 4961,4484 4971,4500 4970,4506 4978,4512 4985,4526 4985,4534 4979,4541 4969,4541 4962,4554 4962,4560 4947,4589 4947,4595 4944,4605 4935,4613 4909,4663 4899,4675 4897,4686 4897,4693 4874,4686 4846,4677 4814,4673 4774,4681 4750,4708 4735,4736 4706,4759 4689,4785 4662,4802 4632,4797 4600,4788 4574,4784 4533,4776 4501,4772 4464,4768 4432,4767 4400,4765 4370,4754 4344,4744 4301,4752 4262,4752 4235,4751 4209,4745 4170,4728 4140,4718 4113,4711 4087,4712 4047,4726 4011,4734 3984,4757 3954,4788 3951,4817 3951,4854 3945,4883 3922,4917 3891,4923 3878,4896 3863,4874 3835,4850 3801,4838 3765,4828 3748,4821 3744,4803 3749,4771 3752,4741 3725,4708 3693,4710 3654,4685 3632,4657 3616,4623 3610,4596 3605,4564 3594,4540 3577,4523 3549,4522 3518,4494 3512,4469 3504,4433 3488,4418 3468,4402 3435,4385 3408,4371 3381,4353 3346,4332 3314,4322 3272,4326 3247,4324 3217,4314 3193,4306 3175,4297 3161,4294 3143,4286 3131,4264 3132,4227 3134,4199 3131,4169 3127,4151 3098,4131 3070,4104 3040,4084 3003,4071 2969,4045 2956,4044 2946,4026 2934,4004 2938,3987 2964,3977 2957,3961 2929,3942 2917,3919 2927,3902 2957,3878 2968,3859 2964,3837 2968,3816 2983,3812 3006,3805 3006,3794 2987,3781 2989,3767 3004,3751 3021,3726 3021,3702 3015,3687 3009,3661 3024,3653 3047,3644 3064,3623 3069,3608 3069,3589 3094,3582 3109,3571 3112,3557 3131,3541 3165,3531 3180,3520 3169,3516 3139,3511 3124,3501 3107,3501 3097,3488 3096,3473 3096,3447 3096,3424 3084,3415 3081,3400 3082,3387 3086,3372 3088,3355 3087,3332 3067,3306 3067,3280 3069,3244 3067,3218 3045,3182 3040,3170 3073,3149 3109,3141 3137,3141 3161,3143 " class="polyStyle" id="610302" style="fill:#d4ecb2"/>
<polygon points="3272,2899 3317,2916 3345,2931 3369,2941 3401,2942 3444,2952 3467,2956 3482,2944 3501,2948 3512,2961 3529,2963 3547,2952 3562,2950 3589,2954 3609,2956 3626,2952 3647,2939 3673,2948 3688,2971 3696,2991 3711,3027 3735,3061 3774,3077 3797,3098 3812,3126 3814,3160 3827,3177 3846,3190 3857,3212 3876,3224 3887,3212 3906,3197 3924,3175 3947,3154 3967,3139 3996,3128 4027,3117 4048,3106 4065,3107 4074,3122 4082,3134 4099,3149 4121,3158 4147,3181 4172,3203 4189,3229 4207,3259 4232,3284 4252,3306 4279,3329 4303,3334 4316,3319 4333,3312 4357,3312 4382,3332 4408,3347 4438,3374 4447,3385 4462,3389 4476,3400 4492,3422 4513,3434 4539,3436 4573,3436 4601,3439 4627,3460 4646,3477 4665,3497 4687,3520 4695,3539 4710,3556 4721,3567 4742,3584 4762,3608 4777,3632 4792,3649 4811,3662 4837,3683 4858,3696 4886,3709 4909,3717 4912,3736 4896,3749 4879,3754 4870,3751 4855,3749 4815,3754 4788,3764 4759,3769 4745,3767 4737,3767 4713,3759 4695,3761 4687,3762 4674,3754 4659,3745 4633,3733 4605,3732 4594,3736 4567,3747 4538,3752 4507,3750 4471,3750 4444,3750 4426,3760 4404,3756 4388,3755 4374,3765 4346,3791 4332,3790 4305,3783 4298,3765 4285,3751 4269,3739 4252,3734 4243,3703 4248,3691 4268,3667 4269,3657 4166,3649 4099,3641 4074,3650 4059,3681 4056,3692 4034,3688 4020,3679 4003,3674 3992,3662 3960,3651 3947,3646 3936,3653 3911,3662 3883,3662 3855,3662 3825,3662 3774,3662 3746,3653 3726,3642 3714,3621 3692,3604 3679,3591 3656,3574 3637,3572 3619,3563 3602,3546 3589,3541 3587,3520 3581,3499 3581,3488 3577,3464 3574,3445 3559,3428 3532,3409 3516,3392 3508,3377 3491,3366 3467,3372 3448,3377 3431,3381 3418,3362 3399,3340 3377,3321 3343,3302 3311,3286 3302,3274 3291,3278 3287,3297 3279,3306 3266,3299 3259,3280 3246,3257 3242,3231 3238,3203 3236,3179 3221,3154 3187,3147 3161,3143 3137,3141 3109,3141 3073,3149 3040,3170 3039,3167 3011,3164 2979,3156 2955,3151 2936,3137 2938,3115 2949,3091 2951,3064 2949,3049 2951,3031 2976,3014 2992,3004 2992,2982 3006,2969 3028,2965 3047,2965 3071,2974 3103,2971 3127,2946 3148,2916 3165,2897 3191,2886 3227,2890 " class="polyStyle" id="610303" style="fill:#f6f67b"/>
<polygon points="3019,1833 3042,1857 3071,1877 3092,1900 3116,1916 3142,1908 3170,1905 3169,1926 3199,1929 3230,1946 3263,1956 3286,1962 3289,1990 3275,2005 3265,2023 3260,2047 3281,2060 3310,2078 3331,2095 3349,2113 3364,2152 3372,2185 3379,2203 3400,2207 3425,2193 3457,2212 3464,2247 3478,2294 3502,2336 3532,2358 3572,2353 3606,2345 3637,2368 3661,2373 3694,2378 3712,2400 3733,2444 3758,2467 3787,2485 3816,2498 3844,2518 3880,2540 3919,2548 3940,2551 3970,2566 3981,2593 3985,2622 4016,2653 4040,2680 4069,2705 4095,2705 4124,2696 4118,2681 4117,2667 4137,2659 4156,2642 4165,2625 4189,2624 4213,2628 4239,2627 4244,2652 4242,2680 4252,2698 4262,2710 4279,2719 4310,2721 4339,2718 4374,2715 4399,2716 4436,2718 4469,2713 4483,2712 4485,2746 4481,2772 4465,2803 4439,2834 4405,2859 4368,2860 4354,2871 4371,2888 4366,2917 4387,2928 4409,2926 4428,2922 4450,2928 4457,2944 4456,2956 4454,2984 4447,3001 4442,3017 4454,3047 4480,3080 4509,3111 4524,3140 4554,3170 4580,3199 4612,3224 4642,3233 4674,3237 4701,3235 4722,3243 4735,3256 4756,3276 4775,3300 4794,3308 4823,3325 4851,3328 4883,3325 4902,3354 4920,3391 4953,3416 4975,3445 4995,3467 5004,3457 5010,3437 5054,3410 5086,3392 5111,3401 5137,3424 5165,3447 5192,3445 5217,3436 5247,3424 5263,3394 5292,3389 5322,3388 5357,3389 5386,3377 5424,3364 5467,3349 5490,3351 5521,3360 5553,3376 5584,3384 5608,3400 5648,3407 5676,3402 5697,3393 5729,3400 5752,3410 5779,3431 5806,3434 5802,3461 5791,3493 5795,3514 5808,3533 5831,3538 5853,3535 5872,3531 5884,3544 5895,3572 5887,3600 5866,3628 5871,3653 5893,3671 5923,3693 5949,3709 5977,3733 5997,3760 6038,3770 6066,3774 6094,3761 6113,3767 6137,3777 6180,3793 6206,3783 6237,3796 6262,3794 6290,3801 6299,3802 6303,3807 6322,3807 6338,3808 6351,3842 6341,3871 6341,3903 6363,3926 6367,3955 6362,3983 6365,4016 6365,4050 6368,4081 6340,4117 6332,4150 6329,4175 6328,4204 6319,4233 6305,4258 6292,4285 6282,4309 6260,4328 6243,4344 6235,4370 6213,4408 6189,4436 6170,4465 6155,4497 6148,4526 6138,4553 6135,4573 6136,4596 6135,4628 6127,4653 6126,4692 6127,4733 6120,4733 6108,4739 6078,4745 6039,4761 5998,4783 5962,4805 5925,4816 5901,4802 5878,4806 5850,4811 5827,4823 5791,4829 5761,4837 5744,4872 5734,4891 5700,4894 5666,4889 5630,4869 5604,4858 5579,4830 5560,4801 5532,4781 5507,4767 5475,4740 5450,4728 5429,4710 5412,4701 5387,4706 5357,4726 5326,4752 5291,4754 5254,4751 5220,4751 5195,4742 5181,4723 5158,4724 5134,4725 5105,4732 5066,4740 5028,4745 4994,4728 4963,4718 4932,4706 4902,4695 4897,4693 4897,4686 4899,4675 4909,4663 4935,4613 4944,4605 4947,4595 4947,4589 4962,4560 4962,4554 4969,4541 4979,4541 4985,4534 4985,4526 4978,4512 4970,4506 4971,4500 4961,4484 4969,4478 4977,4469 4978,4463 4983,4455 4993,4451 5006,4439 4996,4422 4991,4406 5003,4407 5016,4405 5000,4391 4990,4392 4984,4378 4982,4361 4976,4363 4958,4357 4944,4356 4933,4351 4923,4344 4927,4338 4943,4329 4963,4338 4974,4341 4991,4343 5001,4340 5011,4329 4997,4326 4999,4319 5005,4313 5013,4294 5011,4288 5018,4283 5034,4277 5036,4271 5029,4270 5012,4271 4997,4276 4975,4272 4973,4266 4982,4256 4989,4250 4999,4246 5016,4231 5016,4225 4995,4219 4995,4213 5013,4209 5016,4191 5012,4179 5005,4177 4992,4179 4998,4173 4989,4172 4990,4165 5014,4156 5023,4149 5027,4140 5026,4129 5032,4124 5034,4112 5030,4105 5041,4100 5065,4099 5066,4093 5056,4088 5054,4074 5077,4050 5083,4041 5068,4033 5070,4026 5081,4011 5068,4004 5068,3987 5077,3975 5079,3960 5073,3952 5075,3944 5073,3933 5074,3920 5073,3912 5066,3908 5059,3909 5047,3896 5048,3889 5046,3881 5046,3867 5031,3866 5017,3870 5011,3874 5005,3873 5002,3864 4993,3862 4998,3854 4992,3850 4997,3843 4994,3836 4991,3817 4984,3816 4986,3775 4977,3770 4959,3769 4937,3760 4897,3761 4879,3754 4896,3749 4912,3736 4909,3717 4886,3709 4858,3696 4837,3683 4811,3662 4792,3649 4777,3632 4762,3608 4742,3584 4721,3567 4710,3556 4695,3539 4687,3520 4665,3497 4646,3477 4627,3460 4601,3439 4573,3436 4539,3436 4513,3434 4492,3422 4476,3400 4462,3389 4447,3385 4438,3374 4408,3347 4382,3332 4357,3312 4333,3312 4316,3319 4303,3334 4279,3329 4252,3306 4232,3284 4207,3259 4189,3229 4172,3203 4147,3181 4121,3158 4099,3149 4082,3134 4074,3122 4065,3107 4048,3106 4027,3117 3996,3128 3967,3139 3947,3154 3924,3175 3906,3197 3887,3212 3876,3224 3857,3212 3846,3190 3827,3177 3814,3160 3812,3126 3797,3098 3774,3077 3735,3061 3711,3027 3696,2991 3688,2971 3673,2948 3647,2939 3626,2952 3609,2956 3589,2954 3562,2950 3547,2952 3529,2963 3512,2961 3501,2948 3482,2944 3467,2956 3444,2952 3401,2942 3369,2941 3345,2931 3317,2916 3272,2899 3227,2890 3191,2886 3165,2897 3148,2916 3127,2946 3103,2971 3071,2974 3047,2965 3028,2965 3006,2969 2992,2982 2992,3004 2976,3014 2951,3031 2949,3049 2951,3064 2949,3091 2938,3115 2936,3137 2955,3151 2979,3156 3011,3164 3039,3167 3040,3170 3045,3182 3067,3218 3069,3244 3067,3280 3067,3306 3087,3332 3088,3355 3086,3372 3082,3387 3081,3400 3084,3415 3096,3424 3096,3447 3096,3473 3097,3488 3107,3501 3124,3501 3139,3511 3169,3516 3180,3520 3165,3531 3131,3541 3112,3557 3109,3571 3094,3582 3069,3589 3069,3608 3064,3623 3047,3644 3024,3653 3009,3661 3015,3687 3021,3702 3021,3726 3004,3751 2989,3767 2987,3781 3006,3794 3006,3805 2983,3812 2968,3816 2964,3837 2968,3859 2957,3878 2927,3902 2917,3919 2929,3942 2957,3961 2964,3977 2938,3987 2934,4004 2946,4026 2956,4044 2943,4043 2908,4046 2874,4049 2841,4047 2811,4034 2780,4051 2779,4076 2775,4106 2759,4128 2735,4133 2704,4123 2676,4102 2648,4088 2623,4087 2596,4053 2569,4039 2544,4041 2515,4042 2475,4042 2448,4038 2422,4018 2389,4012 2358,4014 2326,4019 2296,4006 2270,4013 2251,4044 2220,4067 2200,4102 2208,4121 2211,4138 2213,4151 2196,4157 2171,4142 2121,4148 2091,4140 2062,4138 2029,4124 2001,4109 1966,4112 1969,4107 1941,4097 1931,4079 1957,4013 1959,4003 1961,3975 1961,3937 1957,3911 1953,3897 1947,3885 1905,3879 1875,3865 1875,3855 1877,3845 1887,3829 1897,3819 1907,3809 1919,3805 1959,3791 2009,3775 2029,3757 2051,3739 2045,3735 2037,3725 2037,3677 2036,3673 2028,3675 2019,3675 2012,3667 2005,3651 1995,3641 1990,3640 1983,3641 1978,3645 1967,3658 1956,3670 1948,3674 1943,3673 1934,3669 1932,3665 1922,3650 1910,3634 1904,3631 1896,3631 1891,3633 1877,3642 1868,3646 1858,3647 1854,3647 1853,3643 1853,3640 1855,3630 1857,3621 1854,3612 1851,3610 1843,3605 1835,3603 1825,3603 1814,3605 1806,3608 1791,3611 1771,3611 1753,3607 1738,3594 1727,3583 1716,3572 1703,3564 1689,3563 1686,3563 1667,3564 1654,3565 1643,3562 1636,3555 1634,3548 1637,3541 1640,3529 1641,3518 1637,3512 1635,3506 1630,3505 1622,3505 1607,3505 1599,3504 1595,3499 1591,3496 1584,3485 1577,3478 1574,3473 1570,3453 1566,3441 1559,3425 1557,3418 1559,3411 1561,3395 1564,3382 1564,3379 1560,3377 1553,3371 1551,3371 1541,3366 1534,3362 1532,3351 1528,3342 1527,3334 1523,3326 1522,3321 1522,3316 1528,3306 1540,3295 1543,3288 1541,3281 1537,3279 1533,3279 1528,3281 1521,3285 1517,3285 1513,3283 1511,3280 1511,3274 1510,3261 1507,3254 1502,3251 1492,3251 1482,3253 1474,3258 1468,3266 1461,3275 1457,3277 1454,3277 1450,3275 1447,3269 1443,3261 1435,3254 1423,3249 1410,3245 1405,3241 1405,3236 1416,3224 1426,3214 1440,3212 1454,3211 1456,3199 1444,3192 1436,3192 1417,3195 1402,3201 1391,3202 1380,3200 1372,3199 1365,3193 1365,3188 1370,3177 1369,3169 1363,3162 1351,3155 1337,3154 1324,3155 1307,3154 1299,3153 1292,3150 1291,3147 1290,3139 1292,3129 1298,3123 1308,3116 1311,3110 1314,3107 1309,3102 1302,3102 1296,3106 1289,3109 1278,3113 1265,3114 1251,3112 1247,3100 1244,3089 1233,3079 1220,3077 1205,3077 1188,3087 1178,3094 1175,3105 1175,3118 1172,3122 1166,3125 1156,3125 1144,3117 1146,3106 1152,3094 1150,3082 1143,3068 1132,3059 1121,3055 1109,3055 1101,3056 1091,3055 1081,3054 1071,3053 1063,3049 1058,3046 1053,3042 1045,3036 1031,3033 1023,3033 1016,3026 1011,3021 1005,3010 1004,2998 1006,2987 1012,2976 1014,2964 1006,2958 993,2959 979,2962 970,2964 951,2964 922,2950 900,2943 889,2937 885,2931 881,2914 872,2902 868,2901 863,2903 847,2915 837,2917 823,2916 806,2913 797,2907 794,2905 791,2899 792,2889 790,2878 785,2874 778,2873 771,2874 766,2879 762,2885 755,2903 750,2909 746,2911 741,2911 730,2904 728,2897 729,2892 740,2881 743,2875 742,2872 739,2870 730,2867 716,2869 709,2874 704,2881 699,2895 697,2900 693,2904 683,2908 670,2908 624,2891 609,2892 603,2893 595,2897 584,2902 571,2905 558,2908 544,2908 516,2904 501,2905 491,2907 483,2911 471,2920 464,2934 459,2957 453,2972 448,2976 445,2978 438,2979 416,2980 398,2979 388,2977 381,2971 378,2964 374,2938 368,2929 361,2923 355,2921 349,2921 343,2923 337,2928 314,2950 307,2956 298,2960 288,2962 277,2962 227,2946 195,2931 190,2930 185,2931 177,2933 154,2941 145,2942 136,2940 122,2939 114,2941 103,2948 105,2944 158,2862 164,2838 168,2818 150,2798 140,2778 153,2756 166,2734 156,2696 152,2688 146,2680 136,2672 108,2654 92,2648 78,2642 18,2632 8,2628 2,2622 0,2614 4,2600 10,2586 18,2582 82,2566 102,2560 128,2548 160,2528 184,2512 200,2500 206,2490 220,2462 232,2450 262,2444 278,2468 292,2468 328,2420 346,2386 352,2372 360,2376 376,2410 382,2416 392,2416 398,2414 404,2400 442,2352 464,2338 504,2344 522,2326 538,2312 540,2302 544,2276 548,2262 552,2254 554,2246 592,2272 630,2302 636,2308 646,2326 654,2328 673,2326 680,2346 690,2348 698,2346 724,2332 736,2328 780,2344 794,2352 800,2355 805,2350 805,2344 804,2338 798,2334 792,2328 788,2323 786,2316 788,2306 791,2305 796,2303 801,2300 804,2297 805,2293 805,2287 805,2284 810,2281 813,2281 815,2272 821,2244 849,2239 878,2235 906,2236 936,2242 956,2262 972,2269 1004,2270 1029,2271 1057,2280 1089,2302 1116,2314 1147,2341 1187,2361 1217,2378 1246,2402 1246,2415 1221,2425 1212,2438 1215,2453 1236,2468 1270,2462 1290,2440 1316,2421 1341,2405 1363,2396 1388,2397 1425,2415 1454,2413 1491,2405 1519,2398 1557,2410 1594,2437 1625,2463 1651,2476 1686,2486 1731,2487 1761,2475 1789,2447 1805,2455 1824,2476 1836,2486 1862,2487 1881,2478 1899,2462 1913,2442 1890,2418 1870,2397 1871,2351 1880,2315 1905,2300 1932,2296 1952,2299 1980,2290 2016,2276 2022,2307 2039,2342 2059,2353 2088,2357 2121,2363 2137,2395 2148,2423 2149,2452 2149,2484 2159,2510 2178,2520 2214,2512 2240,2511 2255,2514 2272,2542 2304,2524 2320,2497 2348,2489 2375,2495 2407,2466 2449,2455 2481,2472 2494,2503 2525,2526 2552,2548 2580,2577 2606,2595 2636,2595 2644,2568 2639,2532 2639,2505 2648,2471 2664,2440 2657,2406 2638,2392 2605,2364 2579,2348 2556,2326 2553,2306 2566,2291 2584,2283 2593,2250 2606,2225 2607,2195 2602,2169 2596,2141 2606,2105 2627,2073 2641,2047 2665,2024 2700,2000 2716,1975 2746,1955 2781,1953 2813,1943 2840,1916 2859,1901 2880,1888 2885,1856 2910,1830 2929,1807 2956,1807 2976,1803 2998,1816 " class="polyStyle" id="610304" style="fill:#fbe6ef"/>
<path d="" class="polyStyle" id="140311" style="fill:#ee8b94"/>
<path d="" class="polyStyle" id="610802" style="fill:#ee8b94"/>
<path d="" class="polyStyle" id="120116" style="fill:#f6f67b"/>
<path d="" class="polyStyle" id="130303" style="fill:#fbe6ef"/>
<path d="" class="polyStyle" id="140211" style="fill:#f6f67b"/>
<path d="" class="polyStyle" id="150207" style="fill:#fbe6ef"/>
<path d="" class="polyStyle" id="211403" style="fill:#f6f67b"/>
<path d="" class="polyStyle" id="150802" style="fill:#f8c67d"/>
<path d="" class="polyStyle" id="210112" style="fill:#ee8b94"/>
<path d="" class="polyStyle" id="230406" style="fill:#d4ecb2"/>
<path d="" class="polyStyle" id="110113" style="fill:#fbe6ef"/>
<path d="" class="polyStyle" id="341702" style="fill:#fbe6ef"/>
<path d="" class="polyStyle" id="420303" style="fill:#ee8b94"/>
<path d="" class="polyStyle" id="340702" style="fill:#d4ecb2"/>
<path d="" class="polyStyle" id="421002" style="fill:#f6f67b"/>
<path d="" class="polyStyle" id="420117" style="fill:#f6f67b"/>
<path d="" class="polyStyle" id="440904" style="fill:#f8c67d"/>
<path d="" class="polyStyle" id="460205" style="fill:#ee8b94"/>
<path d="" class="polyStyle" id="460202" style="fill:#f6f67b"/>
<path d="" class="polyStyle" id="460203" style="fill:#fbe6ef"/>
<path d="" class="polyStyle" id="420304" style="fill:#f6f67b"/>
<path d="" class="polyStyle" id="445302" style="fill:#ee8b94"/>
<path d="" class="polyStyle" id="410202" style="fill:#d4ecb2"/>
<path d="" class="polyStyle" id="440800" style="fill:#f6f67b"/>
<path d="" class="polyStyle" id="440900" style="fill:#ee8b94"/>
<path d="" class="polyStyle" id="340800" style="fill:#ee8b94"/>
<path d="" class="polyStyle" id="460200" style="fill:#f6f67b"/>
<path d="" class="polyStyle" id="460000" style="fill:#ee8b94"/>
<path d="" class="polyStyle" id="450500" style="fill:#ee8b94"/>
<path d="" class="polyStyle" id="450600" style="fill:#ee8b94"/>
<path d="" class="polyStyle" id="440400" style="fill:#f6f67b"/>
<path d="" class="polyStyle" id="441700" style="fill:#f6f67b"/>
<path d="" class="polyStyle" id="441500" style="fill:#f6f67b"/>
<path d="" class="polyStyle" id="350600" style="fill:#ee8b94"/>
<path d="" class="polyStyle" id="710000" style="fill:#f6f67b"/>
<path d="" class="polyStyle" id="510400" style="fill:#f6f67b"/>
<path d="" class="polyStyle" id="522600" style="fill:#fbe6ef"/>
<path d="" class="polyStyle" id="520500" style="fill:#ee8b94"/>
<path d="" class="polyStyle" id="431200" style="fill:#f6f67b"/>
<path d="" class="polyStyle" id="430600" style="fill:#f6f67b"/>
<path d="" class="polyStyle" id="511400" style="fill:#d4ecb2"/>
<path d="" class="polyStyle" id="421000" style="fill:#ee8b94"/>
<path d="" class="polyStyle" id="341700" style="fill:#f6f67b"/>
<path d="" class="polyStyle" id="420500" style="fill:#f6f67b"/>
<path d="" class="polyStyle" id="511300" style="fill:#f6f67b"/>
<path d="" class="polyStyle" id="420900" style="fill:#f6f67b"/>
<path d="" class="polyStyle" id="511700" style="fill:#ee8b94"/>
<path d="" class="polyStyle" id="420600" style="fill:#d4ecb2"/>
<path d="" class="polyStyle" id="411500" style="fill:#fbe6ef"/>
<path d="" class="polyStyle" id="510800" style="fill:#ee8b94"/>
<path d="" class="polyStyle" id="420300" style="fill:#fbe6ef"/>
<path d="" class="polyStyle" id="611000" style="fill:#ee8b94"/>
<path d="" class="polyStyle" id="620800" style="fill:#fbe6ef"/>
<path d="" class="polyStyle" id="370200" style="fill:#ee8b94"/>
<path d="" class="polyStyle" id="371000" style="fill:#f6f67b"/>
<path d="" class="polyStyle" id="370600" style="fill:#fbe6ef"/>
<path d="" class="polyStyle" id="120000" style="fill:#f6f67b"/>
<path d="" class="polyStyle" id="130200" style="fill:#ee8b94"/>
<path d="" class="polyStyle" id="130300" style="fill:#f6f67b"/>
<path d="" class="polyStyle" id="652900" style="fill:#fbe6ef"/>
<path d="" class="polyStyle" id="150500" style="fill:#d4ecb2"/>
<path d="" class="polyStyle" id="" style="fill:#d4ecb2"/>
<path d="" class="polyStyle" id="350500" style="fill:#fbe6ef"/>
<path d="" class="polyStyle" id="440400" style="fill:#f6f67b"/>
<path d="" class="polyStyle" id="421100" style="fill:#d4ecb2"/>
<path d="" class="polyStyle" id="420100" style="fill:#fbe6ef"/>
<path d="" class="polyStyle" id="532500" style="fill:#fbe6ef"/>
<path d="" class="polyStyle" id="654200" style="fill:#fbe6ef"/>
<path d="" class="polyStyle" id="210700" style="fill:#d4ecb2"/>
<path d="" class="polyStyle" id="522300" style="fill:#fbe6ef"/>
<path d="" class="polyStyle" id="" style="fill:#ee8b94"/>
<path d="" class="polyStyle" id="440400" style="fill:#f6f67b"/>
<path d="" class="polyStyle" id="620000" style="fill:#f6f67b"/>
<path d="" class="polyStyle" id="430000" style="fill:#fbe6ef"/>
<path d="" class="polyStyle" id="420000" style="fill:#ee8b94"/>
<path d="" class="polyStyle" id="410000" style="fill:#f6f67b"/>
<path d="" class="polyStyle" id="350000" style="fill:#fbe6ef"/>
<path d="" class="polyStyle" id="520000" style="fill:#f6f67b"/>
<path d="" class="polyStyle" id="" style="fill:#ee8b94"/>
</svg>
