<?xml version="1.0" encoding="UTF-8"?>
<!DOCTYPE svg PUBLIC "-//W3C//DTD SVG 1.1 Tiny//EN" "http://www.w3.org/Graphics/SVG/1.1/DTD/svg11-tiny.dtd">
<svg version="1.1" xmlns="http://www.w3.org/2000/svg" xmlns:xlink="http://www.w3.org/1999/xlink" width="100%" height="100%" viewBox="0,0,7598,6741">
<title>SVG</title>
<desc>Poligon Test</desc>
<style id="style_css_sheet" type="text/css">
.polyStyle{fill: #cccccc;stroke-width:0;fill-rule:evenodd;}
</style>
<circle cx="4173" cy="6226" r="200" stroke="black" stroke-width="1" fill="red" id="610481" name="兴平市"/>
<circle cx="2149" cy="2541" r="200" stroke="black" stroke-width="1" fill="red" id="610427" name="彬县"/>
<circle cx="3397" cy="2169" r="200" stroke="black" stroke-width="1" fill="red" id="610429" name="旬邑县"/>
<circle cx="697" cy="1697" r="200" stroke="black" stroke-width="1" fill="red" id="610428" name="长武县"/>
<circle cx="6402" cy="4628" r="200" stroke="black" stroke-width="1" fill="red" id="610422" name="三原县"/>
<circle cx="4671" cy="3775" r="200" stroke="black" stroke-width="1" fill="red" id="610430" name="淳化县"/>
<circle cx="2773" cy="6400" r="200" stroke="black" stroke-width="1" fill="red" id="610431" name="武功县"/>
<circle cx="5939" cy="5076" r="200" stroke="black" stroke-width="1" fill="red" id="610423"position="411" name="泾阳县"/>
<circle cx="3868" cy="5280" r="200" stroke="black" stroke-width="1" fill="red" id="610425"position="211" name="礼泉县"/>
<circle cx="2943" cy="5058" r="200" stroke="black" stroke-width="1" fill="red" id="610424" name="乾县"/>
<circle cx="2458" cy="4257" r="200" stroke="black" stroke-width="1" fill="red" id="610426"position="11" name="永寿县"/>
<circle cx="5516" cy="5961" r="200" stroke="black" stroke-width="1" fill="red" id="610404"position="11" name="渭城区"/>
<circle cx="5292" cy="6076" r="200" stroke="black" stroke-width="1" fill="red" id="610402"position="44" name="秦都区"/>
<circle cx="2098" cy="6337" r="200" stroke="black" stroke-width="1" fill="red" id="610403"position="43" name="杨陵区"/>
<path d="" class="polyStyle" id="" style="fill:#ee8b94"/>
<path d="" class="polyStyle" id="623022" style="fill:#fbe6ef"/>
<path d="" class="polyStyle" id="211421" style="fill:#f6f67b"/>
<path d="" class="polyStyle" id="532524" style="fill:#ee8b94"/>
<path d="" class="polyStyle" id="440825" style="fill:#f6f67b"/>
<path d="" class="polyStyle" id="441721" style="fill:#f6f67b"/>
<path d="" class="polyStyle" id="450521" style="fill:#f6f67b"/>
<path d="" class="polyStyle" id="450123" style="fill:#fbe6ef"/>
<path d="" class="polyStyle" id="350624" style="fill:#f6f67b"/>
<path d="" class="polyStyle" id="" style="fill:#fbe6ef"/>
<path d="" class="polyStyle" id="451224" style="fill:#fbe6ef"/>
<path d="" class="polyStyle" id="350627" style="fill:#f6f67b"/>
<path d="" class="polyStyle" id="" style="fill:#f6f67b"/>
<path d="" class="polyStyle" id="350525" style="fill:#f6f67b"/>
<path d="" class="polyStyle" id="530124" style="fill:#ee8b94"/>
<path d="" class="polyStyle" id="522627" style="fill:#ee8b94"/>
<path d="" class="polyStyle" id="510421" style="fill:#fbe6ef"/>
<path d="" class="polyStyle" id="522623" style="fill:#d4ecb2"/>
<path d="" class="polyStyle" id="430321" style="fill:#d4ecb2"/>
<path d="" class="polyStyle" id="511129" style="fill:#d4ecb2"/>
<path d="" class="polyStyle" id="511423" style="fill:#ee8b94"/>
<path d="" class="polyStyle" id="421023" style="fill:#f6f67b"/>
<path d="" class="polyStyle" id="511724" style="fill:#f6f67b"/>
<path d="" class="polyStyle" id="420526" style="fill:#fbe6ef"/>
<path d="" class="polyStyle" id="511923" style="fill:#fbe6ef"/>
<path d="" class="polyStyle" id="420325" style="fill:#fbe6ef"/>
<path d="" class="polyStyle" id="511921" style="fill:#f6f67b"/>
<path d="" class="polyStyle" id="542525" style="fill:#f6f67b"/>
<path d="" class="polyStyle" id="611026" style="fill:#ee8b94"/>
<path d="" class="polyStyle" id="411023" style="fill:#fbe6ef"/>
<polygon points="2295,5548 2290,5582 2274,5608 2246,5639 2246,5665 2253,5694 2269,5722 2296,5723 2326,5743 2345,5768 2348,5800 2320,5804 2315,5830 2321,5855 2349,5862 2375,5863 2410,5858 2441,5867 2473,5863 2495,5859 2526,5866 2545,5873 2559,5885 2550,5913 2542,5939 2570,5965 2598,5964 2626,5966 2660,5967 2673,5957 2652,5926 2668,5900 2694,5885 2715,5878 2742,5888 2753,5915 2728,5944 2730,5973 2765,5989 2799,5982 2831,5955 2846,5929 2878,5898 2901,5886 2932,5874 2963,5874 2989,5892 3014,5910 3035,5920 3067,5932 3093,5938 3119,5922 3161,5924 3194,5921 3218,5902 3252,5890 3278,5890 3291,5899 3320,5900 3342,5924 3366,5939 3355,5953 3331,5957 3297,5958 3266,5960 3262,5976 3275,6001 3306,6008 3330,5997 3352,5987 3373,5983 3383,5999 3387,6009 3377,6008 3374,6030 3370,6058 3339,6067 3319,6093 3312,6116 3323,6148 3330,6181 3318,6214 3297,6234 3283,6264 3291,6294 3278,6323 3258,6363 3262,6392 3270,6413 3285,6436 3289,6463 3269,6491 3262,6527 3270,6551 3285,6576 3294,6596 3299,6628 3288,6649 3283,6687 3265,6683 3232,6675 3204,6673 3166,6688 3133,6695 3098,6705 3072,6714 3027,6727 3000,6729 2963,6723 2935,6716 2909,6703 2876,6679 2850,6672 2816,6662 2790,6640 2763,6632 2737,6618 2703,6607 2665,6603 2631,6602 2604,6598 2569,6595 2534,6596 2501,6600 2465,6609 2432,6622 2395,6627 2364,6611 2334,6596 2324,6591 2318,6564 2316,6532 2321,6504 2338,6473 2354,6469 2381,6473 2395,6454 2400,6438 2421,6429 2425,6403 2404,6376 2376,6361 2382,6335 2391,6308 2386,6291 2368,6281 2365,6256 2339,6233 2311,6223 2283,6202 2256,6178 2230,6167 2203,6169 2176,6176 2149,6183 2138,6181 2119,6194 2089,6203 2072,6188 2064,6175 2054,6150 2047,6135 2052,6124 2027,6106 1997,6100 1992,6075 1987,6044 1987,6014 1957,5990 1930,5977 1908,5957 1902,5933 1899,5901 1884,5873 1876,5846 1874,5816 1893,5796 1904,5783 1908,5765 1902,5736 1895,5719 1894,5687 1883,5657 1872,5631 1848,5599 1828,5577 1810,5559 1841,5561 1867,5568 1887,5580 1913,5589 1945,5603 1960,5596 1981,5560 2003,5549 2030,5547 2064,5558 2095,5548 2124,5566 2153,5579 2183,5559 2195,5530 2223,5546 2250,5564 2252,5533 2278,5516 2301,5527 " class="polyStyle" id="610431" style="fill:#fbe6ef"/>
<polygon points="2287,4611 2313,4627 2324,4658 2356,4684 2359,4709 2385,4733 2411,4754 2439,4781 2464,4808 2495,4816 2515,4831 2505,4863 2501,4888 2478,4918 2448,4932 2421,4923 2393,4932 2393,4954 2402,4986 2407,5016 2404,5039 2382,5049 2355,5053 2328,5056 2301,5045 2277,5037 2247,5027 2219,5006 2197,4992 2170,4972 2144,4955 2120,4948 2103,4963 2092,4949 2067,4923 2059,4901 2037,4906 2027,4934 2021,4961 2007,4990 2001,5018 1974,5023 1969,5046 1987,5060 1985,5078 1969,5105 1951,5117 1923,5124 1910,5135 1900,5158 1887,5176 1872,5205 1859,5231 1849,5258 1835,5296 1824,5288 1783,5306 1759,5296 1723,5285 1709,5253 1727,5220 1753,5198 1745,5169 1748,5142 1752,5117 1759,5087 1776,5060 1773,5032 1765,5006 1759,4997 1752,4990 1735,4960 1717,4932 1697,4899 1671,4886 1644,4870 1636,4842 1644,4810 1656,4777 1661,4752 1688,4720 1712,4687 1712,4658 1714,4656 1719,4649 1723,4641 1738,4636 1760,4638 1765,4641 1769,4639 1772,4639 1775,4638 1779,4637 1782,4637 1785,4637 1789,4638 1792,4639 1796,4640 1799,4641 1802,4640 1804,4637 1803,4632 1802,4629 1801,4626 1801,4623 1804,4623 1808,4623 1811,4622 1812,4619 1812,4616 1807,4611 1807,4608 1810,4606 1814,4605 1819,4604 1823,4605 1826,4606 1830,4607 1833,4609 1837,4611 1840,4613 1844,4615 1847,4617 1850,4618 1857,4620 1861,4620 1864,4621 1869,4620 1872,4616 1872,4613 1874,4610 1877,4606 1885,4603 1888,4599 1892,4595 1895,4594 1899,4595 1902,4595 1905,4594 1909,4592 1934,4606 1959,4613 1950,4639 1980,4648 2007,4672 2040,4664 2064,4643 2090,4628 2121,4608 2147,4604 2182,4605 2209,4606 2241,4592 2255,4573 2280,4583 " class="polyStyle" id="610426" style="fill:#d4ecb2"/>
<polygon points="4373,4070 4401,4069 4427,4073 4460,4066 4492,4063 4521,4058 4553,4057 4581,4055 4607,4055 4636,4063 4663,4067 4692,4064 4729,4067 4757,4077 4783,4096 4810,4102 4839,4084 4865,4084 4891,4101 4922,4122 4948,4123 4980,4112 5012,4113 5038,4122 5066,4127 5094,4132 5121,4133 5149,4138 5175,4143 5215,4139 5242,4137 5269,4136 5304,4130 5335,4114 5363,4098 5397,4090 5424,4097 5453,4113 5480,4119 5510,4121 5536,4119 5555,4108 5572,4090 5592,4076 5622,4070 5647,4056 5676,4047 5684,4047 5713,4068 5743,4086 5774,4095 5797,4101 5822,4111 5851,4115 5893,4123 5918,4126 5946,4130 5974,4143 5984,4168 5995,4202 6012,4220 6028,4214 6034,4187 6044,4172 6059,4181 6070,4196 6097,4200 6124,4211 6153,4212 6179,4214 6191,4191 6191,4168 6221,4160 6263,4176 6290,4192 6306,4198 6304,4218 6313,4248 6322,4264 6302,4284 6300,4306 6310,4318 6329,4325 6330,4353 6323,4382 6302,4411 6262,4396 6244,4410 6224,4392 6189,4404 6163,4388 6150,4402 6151,4433 6141,4463 6157,4488 6160,4515 6140,4541 6140,4569 6152,4595 6153,4622 6163,4650 6153,4676 6169,4704 6199,4732 6226,4739 6263,4739 6268,4767 6245,4798 6264,4832 6292,4818 6306,4792 6336,4811 6362,4789 6394,4806 6424,4788 6452,4787 6454,4812 6446,4840 6459,4870 6484,4876 6510,4880 6512,4903 6527,4933 6547,4962 6567,4998 6598,5006 6604,5033 6602,5065 6586,5086 6590,5106 6604,5120 6600,5150 6586,5175 6590,5203 6613,5230 6606,5258 6613,5285 6594,5311 6610,5338 6615,5364 6596,5391 6593,5416 6584,5439 6587,5466 6593,5486 6586,5497 6561,5472 6534,5474 6510,5500 6476,5495 6447,5491 6415,5485 6389,5492 6364,5484 6334,5478 6311,5453 6291,5421 6266,5407 6234,5407 6205,5394 6187,5396 6165,5412 6134,5429 6110,5423 6097,5386 6068,5378 6035,5380 6008,5380 5983,5358 5967,5342 5933,5347 5890,5347 5859,5337 5827,5316 5797,5316 5770,5321 5742,5321 5755,5296 5731,5294 5705,5288 5675,5291 5645,5305 5615,5322 5597,5348 5570,5358 5537,5355 5496,5337 5464,5327 5436,5324 5405,5325 5378,5330 5351,5338 5322,5339 5296,5321 5269,5306 5241,5299 5230,5296 5220,5272 5213,5243 5186,5227 5156,5213 5134,5199 5146,5173 5171,5162 5194,5134 5211,5106 5194,5074 5165,5063 5160,5036 5191,5020 5211,4993 5206,4968 5181,4944 5176,4918 5191,4893 5201,4867 5179,4842 5161,4815 5133,4808 5106,4811 5081,4817 5057,4827 5029,4831 5003,4826 4976,4811 4949,4788 4930,4763 4917,4737 4889,4708 4862,4690 4837,4680 4809,4676 4782,4659 4755,4645 4728,4639 4731,4626 4745,4608 4761,4583 4739,4555 4712,4534 4685,4522 4657,4508 4636,4477 4627,4452 4613,4424 4618,4410 4630,4398 4657,4391 4631,4377 4624,4361 4628,4350 4651,4344 4656,4332 4631,4329 4605,4332 4574,4328 4547,4327 4520,4315 4542,4288 4550,4263 4523,4259 4496,4271 4469,4279 4444,4292 4427,4301 4416,4285 4436,4259 4411,4233 4385,4236 4358,4214 4331,4228 4328,4256 4300,4249 4285,4221 4281,4196 4281,4171 4273,4145 4247,4118 4236,4091 4250,4072 4277,4064 4291,4054 4294,4043 4323,4040 4343,4039 4358,4045 " class="polyStyle" id="610423" style="fill:#ee8b94"/>
<polygon points="3179,4000 3179,4019 3187,4031 3214,4046 3247,4043 3254,4049 3278,4077 3295,4105 3296,4131 3304,4167 3304,4198 3311,4229 3323,4249 3347,4251 3358,4273 3373,4294 3393,4316 3403,4335 3401,4357 3388,4387 3395,4427 3422,4455 3427,4470 3424,4500 3421,4526 3426,4554 3433,4583 3420,4599 3407,4616 3408,4635 3414,4665 3412,4691 3416,4719 3411,4747 3397,4756 3394,4776 3418,4802 3444,4819 3460,4824 3468,4844 3475,4862 3487,4874 3500,4894 3496,4912 3504,4938 3515,4974 3522,5011 3527,5037 3554,5041 3564,5069 3591,5077 3625,5088 3655,5092 3684,5085 3724,5073 3746,5087 3751,5118 3762,5147 3763,5177 3741,5191 3716,5204 3711,5219 3715,5237 3730,5250 3746,5278 3767,5301 3772,5322 3756,5341 3743,5369 3718,5387 3711,5417 3714,5449 3690,5478 3664,5479 3624,5476 3605,5482 3590,5504 3589,5523 3608,5536 3627,5547 3665,5564 3697,5575 3696,5605 3671,5619 3644,5632 3637,5654 3630,5686 3627,5716 3630,5743 3647,5773 3660,5809 3659,5836 3639,5859 3613,5883 3588,5889 3577,5906 3585,5932 3597,5953 3601,5977 3605,5994 3608,5994 3608,6016 3605,6043 3594,6076 3579,6094 3548,6091 3524,6073 3515,6044 3488,6031 3462,6028 3436,6027 3408,6034 3387,6009 3383,5999 3373,5983 3352,5987 3330,5997 3306,6008 3275,6001 3262,5976 3266,5960 3297,5958 3331,5957 3355,5953 3366,5939 3342,5924 3320,5900 3291,5899 3278,5890 3252,5890 3218,5902 3194,5921 3161,5924 3119,5922 3093,5938 3067,5932 3035,5920 3014,5910 2989,5892 2963,5874 2932,5874 2901,5886 2878,5898 2846,5929 2831,5955 2799,5982 2765,5989 2730,5973 2728,5944 2753,5915 2742,5888 2715,5878 2694,5885 2668,5900 2652,5926 2673,5957 2660,5967 2626,5966 2598,5964 2570,5965 2542,5939 2550,5913 2559,5885 2545,5873 2526,5866 2495,5859 2473,5863 2441,5867 2410,5858 2375,5863 2349,5862 2321,5855 2315,5830 2320,5804 2348,5800 2345,5768 2326,5743 2296,5723 2269,5722 2253,5694 2246,5665 2246,5639 2274,5608 2290,5582 2295,5548 2301,5527 2278,5516 2252,5533 2250,5564 2223,5546 2195,5530 2183,5559 2153,5579 2124,5566 2095,5548 2064,5558 2030,5547 2003,5549 1981,5560 1960,5596 1945,5603 1913,5589 1887,5580 1867,5568 1841,5561 1810,5559 1787,5527 1806,5501 1803,5463 1791,5420 1793,5392 1815,5367 1842,5334 1850,5308 1835,5296 1849,5258 1859,5231 1872,5205 1887,5176 1900,5158 1910,5135 1923,5124 1951,5117 1969,5105 1985,5078 1987,5060 1969,5046 1974,5023 2001,5018 2007,4990 2021,4961 2027,4934 2037,4906 2059,4901 2067,4923 2092,4949 2103,4963 2120,4948 2144,4955 2170,4972 2197,4992 2219,5006 2247,5027 2277,5037 2301,5045 2328,5056 2355,5053 2382,5049 2404,5039 2407,5016 2402,4986 2393,4954 2393,4932 2421,4923 2448,4932 2478,4918 2501,4888 2505,4863 2515,4831 2495,4816 2464,4808 2439,4781 2411,4754 2385,4733 2359,4709 2356,4684 2324,4658 2313,4627 2287,4611 2280,4583 2255,4573 2241,4592 2209,4606 2182,4605 2147,4604 2121,4608 2090,4628 2064,4643 2040,4664 2007,4672 1980,4648 1950,4639 1959,4613 1934,4606 1909,4592 1907,4589 1904,4588 1899,4587 1898,4584 1899,4581 1900,4578 1901,4574 1898,4571 1895,4571 1891,4572 1888,4573 1885,4569 1886,4565 1886,4562 1887,4559 1888,4555 1890,4551 1889,4548 1890,4545 1890,4542 1889,4538 1888,4534 1888,4531 1887,4528 1886,4524 1886,4520 1886,4517 1886,4514 1886,4510 1886,4506 1886,4503 1884,4500 1881,4497 1878,4495 1876,4492 1876,4488 1877,4484 1878,4481 1879,4478 1880,4475 1884,4470 1885,4467 1886,4464 1885,4461 1883,4457 1881,4450 1879,4447 1875,4445 1872,4443 1868,4441 1864,4437 1865,4433 1867,4430 1868,4427 1869,4424 1870,4420 1867,4415 1862,4412 1859,4409 1857,4406 1856,4402 1853,4395 1852,4391 1851,4384 1855,4384 1858,4384 1862,4385 1865,4384 1868,4380 1869,4376 1869,4373 1868,4370 1868,4366 1871,4362 1872,4358 1874,4356 1897,4346 1921,4337 1945,4331 1969,4322 2000,4311 2019,4310 2048,4325 2077,4355 2114,4381 2143,4391 2166,4401 2173,4385 2186,4360 2202,4354 2224,4361 2240,4378 2229,4407 2235,4437 2264,4441 2273,4421 2292,4398 2319,4391 2341,4393 2362,4415 2363,4442 2369,4461 2389,4452 2407,4441 2424,4444 2440,4440 2459,4445 2476,4425 2500,4413 2525,4402 2562,4396 2593,4397 2619,4403 2653,4400 2680,4381 2708,4367 2742,4380 2768,4385 2787,4355 2817,4342 2845,4352 2872,4336 2872,4304 2860,4268 2846,4237 2834,4208 2816,4178 2831,4160 2859,4144 2892,4131 2913,4105 2942,4099 2969,4090 2989,4064 3020,4052 3034,4022 3059,4021 3091,4032 3113,4022 3125,3996 3141,3971 3156,3969 3171,3972 " class="polyStyle" id="610424" style="fill:#ee8b94"/>
<polygon points="3533,3584 3566,3584 3592,3579 3606,3590 3605,3605 3615,3630 3641,3631 3668,3630 3671,3643 3667,3657 3677,3673 3692,3669 3697,3644 3693,3617 3704,3611 3720,3616 3734,3644 3735,3669 3743,3678 3763,3683 3766,3682 3779,3682 3791,3692 3794,3717 3796,3742 3781,3752 3800,3758 3824,3753 3851,3754 3881,3762 3909,3772 3936,3767 3963,3768 3984,3762 3982,3740 3985,3719 4002,3728 4007,3750 4022,3775 4026,3793 4011,3801 3990,3803 3964,3823 3956,3849 3969,3854 3983,3853 4010,3834 4038,3814 4052,3787 4054,3762 4067,3747 4082,3745 4098,3755 4104,3771 4089,3797 4064,3824 4039,3848 4041,3873 4051,3882 4069,3884 4095,3860 4120,3856 4147,3861 4157,3856 4170,3834 4185,3837 4179,3860 4182,3885 4182,3911 4209,3913 4224,3917 4218,3939 4224,3950 4244,3955 4261,3964 4268,3982 4290,4012 4296,4038 4294,4043 4291,4054 4277,4064 4250,4072 4236,4091 4247,4118 4273,4145 4281,4171 4281,4196 4285,4221 4300,4249 4328,4256 4331,4228 4358,4214 4385,4236 4411,4233 4436,4259 4416,4285 4427,4301 4444,4292 4469,4279 4496,4271 4523,4259 4550,4263 4542,4288 4520,4315 4547,4327 4574,4328 4605,4332 4631,4329 4656,4332 4651,4344 4628,4350 4624,4361 4631,4377 4657,4391 4630,4398 4618,4410 4613,4424 4627,4452 4636,4477 4657,4508 4685,4522 4712,4534 4739,4555 4761,4583 4745,4608 4731,4626 4728,4639 4755,4645 4782,4659 4809,4676 4837,4680 4862,4690 4889,4708 4917,4737 4930,4763 4949,4788 4976,4811 5003,4826 5029,4831 5057,4827 5081,4817 5106,4811 5133,4808 5161,4815 5179,4842 5201,4867 5191,4893 5176,4918 5181,4944 5206,4968 5211,4993 5191,5020 5160,5036 5165,5063 5194,5074 5211,5106 5194,5134 5171,5162 5146,5173 5134,5199 5156,5213 5186,5227 5213,5243 5220,5272 5230,5296 5207,5311 5188,5344 5161,5351 5130,5344 5112,5364 5118,5389 5105,5397 5084,5389 5043,5396 5021,5399 5010,5378 5013,5353 4989,5330 4983,5299 4973,5276 4952,5273 4922,5278 4891,5283 4862,5290 4840,5297 4817,5318 4807,5340 4803,5366 4821,5384 4850,5399 4856,5434 4845,5468 4822,5479 4794,5483 4756,5492 4753,5517 4785,5537 4810,5555 4822,5583 4794,5594 4765,5622 4740,5630 4726,5607 4722,5575 4700,5548 4671,5552 4639,5538 4609,5541 4582,5546 4568,5524 4533,5516 4502,5498 4479,5486 4451,5487 4413,5494 4374,5508 4342,5525 4309,5527 4279,5531 4258,5558 4248,5578 4226,5578 4225,5597 4246,5618 4264,5635 4282,5668 4276,5693 4270,5719 4241,5736 4217,5747 4196,5753 4191,5782 4168,5799 4141,5811 4115,5820 4094,5830 4084,5854 4080,5878 4049,5885 4019,5876 4002,5854 3982,5820 3980,5793 3957,5780 3940,5797 3932,5822 3931,5843 3910,5847 3889,5832 3859,5820 3823,5810 3799,5815 3769,5822 3759,5835 3742,5862 3743,5893 3746,5923 3735,5950 3713,5977 3688,5986 3654,5994 3613,5994 3608,5994 3605,5994 3601,5977 3597,5953 3585,5932 3577,5906 3588,5889 3613,5883 3639,5859 3659,5836 3660,5809 3647,5773 3630,5743 3627,5716 3630,5686 3637,5654 3644,5632 3671,5619 3696,5605 3697,5575 3665,5564 3627,5547 3608,5536 3589,5523 3590,5504 3605,5482 3624,5476 3664,5479 3690,5478 3714,5449 3711,5417 3718,5387 3743,5369 3756,5341 3772,5322 3767,5301 3746,5278 3730,5250 3715,5237 3711,5219 3716,5204 3741,5191 3763,5177 3762,5147 3751,5118 3746,5087 3724,5073 3684,5085 3655,5092 3625,5088 3591,5077 3564,5069 3554,5041 3527,5037 3522,5011 3515,4974 3504,4938 3496,4912 3500,4894 3487,4874 3475,4862 3468,4844 3460,4824 3444,4819 3418,4802 3394,4776 3397,4756 3411,4747 3416,4719 3412,4691 3414,4665 3408,4635 3407,4616 3420,4599 3433,4583 3426,4554 3421,4526 3424,4500 3427,4470 3422,4455 3395,4427 3388,4387 3401,4357 3403,4335 3393,4316 3373,4294 3358,4273 3347,4251 3323,4249 3311,4229 3304,4198 3304,4167 3296,4131 3295,4105 3278,4077 3254,4049 3247,4043 3249,4028 3246,4002 3237,3975 3236,3950 3235,3912 3260,3888 3280,3861 3294,3822 3323,3795 3322,3769 3293,3754 3296,3728 3322,3705 3351,3700 3376,3691 3407,3671 3422,3642 3435,3611 3461,3583 3488,3573 3515,3557 3519,3572 " class="polyStyle" id="610425" style="fill:#f6f67b"/>
<polygon points="6428,3563 6474,3573 6501,3570 6528,3572 6547,3599 6574,3610 6603,3613 6609,3613 6614,3613 6638,3612 6663,3622 6688,3645 6690,3649 6700,3656 6703,3664 6701,3670 6707,3675 6729,3679 6728,3696 6731,3701 6740,3701 6747,3700 6748,3707 6741,3713 6753,3723 6757,3737 6777,3758 6790,3763 6808,3795 6806,3807 6813,3812 6833,3814 6854,3830 6859,3838 6877,3845 6886,3852 6911,3872 6937,3900 6948,3927 6953,3953 6949,3984 6942,4016 6935,4046 6918,4068 6884,4094 6881,4122 6875,4154 6877,4193 6901,4219 6926,4255 6959,4280 6986,4279 7014,4257 7041,4232 7058,4207 7062,4177 7078,4152 7103,4137 7130,4141 7156,4166 7175,4201 7205,4216 7230,4213 7262,4209 7290,4209 7319,4207 7346,4201 7374,4206 7401,4211 7436,4206 7464,4200 7489,4189 7523,4190 7551,4197 7569,4216 7578,4234 7598,4240 7597,4257 7586,4273 7570,4292 7560,4304 7560,4325 7571,4345 7584,4378 7573,4400 7540,4406 7516,4413 7503,4436 7492,4454 7475,4475 7459,4486 7455,4496 7452,4505 7433,4527 7431,4555 7428,4573 7420,4585 7407,4583 7387,4584 7379,4601 7385,4629 7392,4653 7389,4677 7394,4707 7400,4736 7408,4755 7408,4786 7394,4805 7373,4816 7349,4825 7342,4826 7315,4831 7269,4836 7225,4828 7191,4820 7162,4815 7161,4793 7158,4775 7136,4771 7105,4755 7078,4752 7051,4752 7017,4755 6996,4756 6980,4737 6964,4738 6952,4757 6922,4761 6890,4763 6855,4769 6830,4775 6800,4786 6765,4806 6743,4831 6710,4838 6670,4834 6641,4832 6618,4840 6592,4860 6572,4871 6553,4886 6536,4879 6519,4866 6510,4880 6484,4876 6459,4870 6446,4840 6454,4812 6452,4787 6424,4788 6394,4806 6362,4789 6336,4811 6306,4792 6292,4818 6264,4832 6245,4798 6268,4767 6263,4739 6226,4739 6199,4732 6169,4704 6153,4676 6163,4650 6153,4622 6152,4595 6140,4569 6140,4541 6160,4515 6157,4488 6141,4463 6151,4433 6150,4402 6163,4388 6189,4404 6224,4392 6244,4410 6262,4396 6302,4411 6323,4382 6330,4353 6329,4325 6310,4318 6300,4306 6302,4284 6322,4264 6313,4248 6304,4218 6306,4198 6290,4192 6263,4176 6221,4160 6191,4168 6191,4191 6179,4214 6153,4212 6124,4211 6097,4200 6070,4196 6059,4181 6044,4172 6034,4187 6028,4214 6012,4220 5995,4202 5984,4168 5974,4143 5946,4130 5918,4126 5893,4123 5851,4115 5822,4111 5797,4101 5774,4095 5743,4086 5713,4068 5684,4047 5676,4047 5677,4033 5651,4005 5652,3977 5658,3944 5665,3918 5670,3890 5660,3864 5658,3838 5640,3807 5638,3782 5666,3767 5697,3764 5729,3745 5772,3738 5804,3735 5834,3736 5859,3726 5851,3696 5854,3696 5882,3672 5905,3654 5925,3626 5955,3607 5976,3605 5997,3614 6027,3620 6056,3627 6082,3633 6105,3617 6118,3618 6149,3643 6177,3666 6204,3661 6227,3653 6233,3636 6218,3612 6213,3584 6237,3576 6280,3576 6308,3567 6331,3546 6358,3528 6378,3525 6401,3539 " class="polyStyle" id="610422" style="fill:#f6f67b"/>
<polygon points="2672,2951 2700,2960 2727,2954 2737,2980 2758,3008 2746,3020 2744,3034 2770,3033 2788,3036 2796,3054 2792,3085 2807,3082 2818,3074 2843,3053 2833,3028 2826,3013 2830,3000 2841,2996 2856,3005 2867,3030 2871,3055 2852,3081 2841,3107 2853,3132 2881,3139 2908,3143 2933,3149 2919,3168 2892,3178 2897,3197 2913,3205 2940,3183 2966,3167 2983,3168 2992,3191 3002,3219 3013,3218 3016,3192 3007,3178 3012,3165 3024,3165 3032,3179 3031,3190 3032,3215 3035,3243 3040,3256 3054,3268 3072,3262 3081,3245 3107,3249 3134,3248 3146,3243 3163,3242 3174,3254 3166,3269 3150,3280 3123,3278 3095,3279 3070,3296 3096,3311 3109,3324 3121,3328 3132,3302 3160,3322 3174,3350 3171,3376 3197,3377 3224,3372 3232,3389 3249,3395 3277,3397 3304,3388 3313,3364 3327,3360 3327,3389 3313,3414 3308,3440 3320,3445 3334,3442 3361,3427 3370,3423 3387,3435 3390,3460 3388,3485 3399,3500 3416,3507 3424,3480 3438,3480 3445,3495 3444,3505 3442,3531 3455,3539 3470,3540 3497,3535 3513,3545 3515,3557 3488,3573 3461,3583 3435,3611 3422,3642 3407,3671 3376,3691 3351,3700 3322,3705 3296,3728 3293,3754 3322,3769 3323,3795 3294,3822 3280,3861 3260,3888 3235,3912 3236,3950 3237,3975 3246,4002 3249,4028 3247,4043 3214,4046 3187,4031 3179,4019 3179,4000 3171,3972 3156,3969 3141,3971 3125,3996 3113,4022 3091,4032 3059,4021 3034,4022 3020,4052 2989,4064 2969,4090 2942,4099 2913,4105 2892,4131 2859,4144 2831,4160 2816,4178 2834,4208 2846,4237 2860,4268 2872,4304 2872,4336 2845,4352 2817,4342 2787,4355 2768,4385 2742,4380 2708,4367 2680,4381 2653,4400 2619,4403 2593,4397 2562,4396 2525,4402 2500,4413 2476,4425 2459,4445 2440,4440 2424,4444 2407,4441 2389,4452 2369,4461 2363,4442 2362,4415 2341,4393 2319,4391 2292,4398 2273,4421 2264,4441 2235,4437 2229,4407 2240,4378 2224,4361 2202,4354 2186,4360 2173,4385 2166,4401 2143,4391 2114,4381 2077,4355 2048,4325 2019,4310 2000,4311 1969,4322 1945,4331 1921,4337 1897,4346 1874,4356 1875,4353 1874,4349 1871,4346 1869,4343 1866,4340 1863,4338 1861,4335 1857,4331 1853,4324 1850,4320 1848,4316 1847,4313 1846,4310 1844,4307 1844,4304 1841,4299 1841,4296 1840,4289 1840,4285 1840,4282 1840,4279 1841,4275 1842,4271 1842,4268 1842,4265 1842,4262 1842,4258 1841,4254 1841,4251 1841,4248 1838,4243 1836,4240 1833,4237 1831,4234 1830,4230 1829,4226 1830,4223 1830,4220 1830,4216 1830,4212 1830,4208 1828,4204 1828,4200 1827,4193 1827,4190 1827,4186 1826,4182 1826,4179 1825,4176 1824,4172 1824,4168 1822,4165 1820,4161 1817,4155 1818,4151 1818,4148 1818,4145 1819,4142 1820,4139 1820,4136 1821,4132 1822,4128 1823,4125 1823,4122 1823,4118 1825,4114 1825,4111 1825,4108 1825,4105 1825,4101 1825,4097 1823,4094 1822,4088 1818,4086 1814,4080 1811,4077 1807,4073 1802,4069 1798,4065 1794,4061 1790,4059 1788,4056 1785,4052 1782,4048 1780,4045 1779,4042 1777,4037 1776,4032 1781,4001 1776,3975 1766,3947 1762,3918 1759,3901 1744,3887 1741,3854 1730,3820 1700,3805 1665,3784 1629,3756 1586,3748 1559,3738 1534,3730 1510,3700 1495,3664 1488,3635 1489,3609 1479,3580 1458,3533 1447,3504 1448,3477 1457,3458 1453,3451 1463,3439 1484,3411 1510,3390 1546,3377 1572,3365 1604,3337 1639,3325 1665,3317 1698,3301 1717,3269 1732,3244 1745,3223 1773,3222 1799,3240 1816,3255 1832,3256 1856,3237 1875,3203 1882,3188 1898,3175 1924,3180 1954,3166 1984,3156 2010,3154 2038,3172 2063,3186 2097,3198 2135,3198 2165,3175 2193,3152 2231,3128 2258,3130 2286,3110 2313,3099 2338,3100 2359,3097 2386,3086 2413,3064 2441,3050 2468,3041 2495,3028 2520,3010 2545,2983 2566,2958 2593,2929 2619,2916 2645,2935 " class="polyStyle" id="610426" style="fill:#d4ecb2"/>
<polygon points="4679,2559 4708,2581 4730,2609 4760,2606 4790,2610 4813,2630 4841,2666 4846,2692 4850,2724 4873,2770 4881,2801 4900,2833 4929,2844 4956,2852 4972,2883 4981,2914 4987,2945 5012,2976 5029,3005 5046,3036 5063,3060 5082,3060 5080,3080 5068,3095 5069,3128 5079,3154 5104,3171 5134,3175 5151,3197 5145,3215 5132,3243 5113,3262 5117,3283 5139,3304 5166,3322 5196,3321 5224,3323 5249,3332 5279,3345 5298,3371 5325,3377 5352,3385 5380,3383 5406,3375 5434,3371 5462,3367 5492,3366 5519,3366 5546,3361 5577,3368 5582,3370 5584,3374 5583,3377 5582,3380 5581,3383 5579,3386 5580,3388 5586,3388 5590,3387 5594,3386 5597,3386 5602,3389 5605,3393 5607,3396 5607,3399 5606,3402 5606,3406 5606,3410 5609,3413 5612,3416 5615,3418 5619,3419 5622,3421 5625,3422 5630,3424 5634,3426 5637,3431 5640,3435 5640,3439 5641,3443 5640,3446 5640,3449 5640,3453 5643,3457 5646,3459 5649,3460 5652,3461 5656,3461 5659,3462 5663,3462 5666,3463 5671,3466 5672,3470 5670,3473 5668,3476 5668,3480 5670,3484 5674,3485 5677,3485 5681,3485 5684,3486 5687,3488 5694,3488 5698,3490 5702,3492 5705,3494 5707,3497 5710,3501 5715,3505 5716,3508 5720,3510 5722,3513 5726,3514 5729,3513 5733,3511 5736,3509 5740,3508 5743,3509 5746,3510 5746,3513 5744,3516 5744,3519 5742,3524 5742,3527 5741,3530 5742,3533 5746,3535 5749,3535 5752,3533 5757,3528 5761,3522 5766,3522 5770,3524 5772,3528 5775,3532 5780,3537 5783,3541 5785,3544 5787,3547 5789,3551 5792,3555 5795,3557 5799,3559 5802,3560 5805,3559 5809,3559 5812,3557 5816,3557 5819,3557 5820,3560 5818,3563 5817,3566 5816,3570 5815,3574 5815,3577 5816,3580 5820,3584 5823,3588 5823,3591 5823,3594 5823,3597 5821,3601 5819,3603 5822,3611 5825,3615 5828,3618 5831,3620 5835,3621 5838,3623 5841,3624 5845,3625 5847,3628 5845,3631 5841,3633 5838,3636 5835,3638 5834,3642 5835,3646 5833,3649 5830,3652 5829,3655 5831,3658 5834,3659 5837,3659 5837,3669 5851,3696 5859,3726 5834,3736 5804,3735 5772,3738 5729,3745 5697,3764 5666,3767 5638,3782 5640,3807 5658,3838 5660,3864 5670,3890 5665,3918 5658,3944 5652,3977 5651,4005 5677,4033 5676,4047 5647,4056 5622,4070 5592,4076 5572,4090 5555,4108 5536,4119 5510,4121 5480,4119 5453,4113 5424,4097 5397,4090 5363,4098 5335,4114 5304,4130 5269,4136 5242,4137 5215,4139 5175,4143 5149,4138 5121,4133 5094,4132 5066,4127 5038,4122 5012,4113 4980,4112 4948,4123 4922,4122 4891,4101 4865,4084 4839,4084 4810,4102 4783,4096 4757,4077 4729,4067 4692,4064 4663,4067 4636,4063 4607,4055 4581,4055 4553,4057 4521,4058 4492,4063 4460,4066 4427,4073 4401,4069 4373,4070 4358,4045 4343,4039 4323,4040 4294,4043 4296,4038 4290,4012 4268,3982 4261,3964 4244,3955 4224,3950 4218,3939 4224,3917 4209,3913 4182,3911 4182,3885 4179,3860 4185,3837 4170,3834 4157,3856 4147,3861 4120,3856 4095,3860 4069,3884 4051,3882 4041,3873 4039,3848 4064,3824 4089,3797 4104,3771 4098,3755 4082,3745 4067,3747 4054,3762 4052,3787 4038,3814 4010,3834 3983,3853 3969,3854 3956,3849 3964,3823 3990,3803 4011,3801 4026,3793 4022,3775 4007,3750 4002,3728 3985,3719 3982,3740 3984,3762 3963,3768 3936,3767 3909,3772 3881,3762 3851,3754 3824,3753 3800,3758 3781,3752 3796,3742 3794,3717 3791,3692 3779,3682 3766,3682 3763,3683 3743,3678 3735,3669 3734,3644 3720,3616 3704,3611 3693,3617 3697,3644 3692,3669 3677,3673 3667,3657 3671,3643 3668,3630 3641,3631 3615,3630 3605,3605 3606,3590 3592,3579 3566,3584 3533,3584 3519,3572 3515,3557 3513,3545 3497,3535 3470,3540 3455,3539 3442,3531 3444,3505 3445,3495 3438,3480 3424,3480 3416,3507 3399,3500 3388,3485 3390,3460 3387,3435 3370,3423 3361,3427 3334,3442 3320,3445 3308,3440 3313,3414 3327,3389 3327,3360 3331,3334 3344,3307 3370,3280 3374,3255 3373,3226 3396,3200 3418,3175 3434,3150 3441,3117 3456,3092 3476,3063 3494,3032 3492,3004 3494,3003 3497,3013 3523,2968 3539,2944 3560,2929 3593,2907 3629,2879 3654,2861 3689,2833 3715,2809 3742,2786 3771,2786 3804,2806 3835,2828 3866,2841 3892,2850 3921,2856 3953,2860 3978,2832 4005,2832 4010,2803 4036,2777 4045,2752 4057,2724 4074,2687 4095,2666 4097,2647 4105,2626 4125,2613 4153,2590 4184,2570 4210,2554 4237,2551 4265,2553 4298,2564 4325,2582 4357,2602 4385,2601 4421,2587 4446,2580 4474,2572 4509,2567 4537,2558 4564,2542 4594,2533 4620,2521 4647,2507 4653,2504 4662,2530 " class="polyStyle" id="610430" style="fill:#fbe6ef"/>
<polygon points="2415,1343 2428,1371 2436,1399 2463,1421 2485,1428 2503,1419 2516,1427 2517,1443 2498,1470 2490,1501 2499,1525 2510,1543 2525,1558 2537,1588 2552,1608 2572,1624 2588,1643 2615,1649 2643,1668 2673,1683 2699,1701 2721,1708 2741,1695 2767,1679 2794,1683 2796,1708 2811,1732 2836,1739 2874,1756 2885,1796 2870,1822 2842,1848 2823,1866 2809,1889 2794,1915 2782,1947 2758,1980 2761,2012 2751,2040 2746,2074 2754,2102 2739,2130 2736,2158 2718,2186 2707,2215 2692,2242 2694,2270 2690,2298 2686,2327 2684,2356 2677,2385 2663,2410 2641,2442 2639,2466 2676,2473 2703,2478 2727,2494 2716,2522 2704,2543 2717,2562 2747,2576 2767,2604 2793,2616 2812,2630 2806,2654 2817,2661 2843,2659 2868,2652 2898,2674 2924,2698 2946,2724 2931,2737 2949,2765 2980,2783 3010,2798 3037,2808 3064,2803 3091,2795 3125,2806 3135,2831 3141,2852 3158,2857 3183,2860 3208,2860 3235,2863 3261,2864 3298,2866 3326,2871 3355,2876 3385,2888 3415,2913 3441,2920 3469,2946 3486,2974 3489,2986 3494,3003 3492,3004 3494,3032 3476,3063 3456,3092 3441,3117 3434,3150 3418,3175 3396,3200 3373,3226 3374,3255 3370,3280 3344,3307 3331,3334 3327,3360 3313,3364 3304,3388 3277,3397 3249,3395 3232,3389 3224,3372 3197,3377 3171,3376 3174,3350 3160,3322 3132,3302 3121,3328 3109,3324 3096,3311 3070,3296 3095,3279 3123,3278 3150,3280 3166,3269 3174,3254 3163,3242 3146,3243 3134,3248 3107,3249 3081,3245 3072,3262 3054,3268 3040,3256 3035,3243 3032,3215 3031,3190 3032,3179 3024,3165 3012,3165 3007,3178 3016,3192 3013,3218 3002,3219 2992,3191 2983,3168 2966,3167 2940,3183 2913,3205 2897,3197 2892,3178 2919,3168 2933,3149 2908,3143 2881,3139 2853,3132 2841,3107 2852,3081 2871,3055 2867,3030 2856,3005 2841,2996 2830,3000 2826,3013 2833,3028 2843,3053 2818,3074 2807,3082 2792,3085 2796,3054 2788,3036 2770,3033 2744,3034 2746,3020 2758,3008 2737,2980 2727,2954 2700,2960 2672,2951 2645,2935 2619,2916 2593,2929 2566,2958 2545,2983 2520,3010 2495,3028 2468,3041 2441,3050 2413,3064 2386,3086 2359,3097 2338,3100 2313,3099 2286,3110 2258,3130 2231,3128 2193,3152 2165,3175 2135,3198 2097,3198 2063,3186 2038,3172 2010,3154 1984,3156 1954,3166 1924,3180 1898,3175 1882,3188 1875,3203 1856,3237 1832,3256 1816,3255 1799,3240 1773,3222 1745,3223 1732,3244 1717,3269 1698,3301 1665,3317 1639,3325 1604,3337 1572,3365 1546,3377 1510,3390 1484,3411 1463,3439 1453,3451 1450,3445 1423,3455 1399,3462 1370,3483 1334,3489 1305,3495 1274,3502 1244,3504 1216,3507 1187,3507 1157,3510 1124,3502 1106,3470 1097,3444 1082,3448 1076,3465 1073,3488 1055,3498 1025,3498 996,3486 992,3458 999,3424 1008,3381 1001,3356 986,3348 962,3337 948,3316 950,3288 962,3272 976,3256 967,3220 933,3215 910,3198 909,3163 890,3133 872,3099 865,3054 877,3022 889,3005 876,2966 852,2932 840,2906 837,2882 834,2851 849,2856 865,2838 881,2820 905,2814 923,2808 943,2802 957,2802 979,2814 987,2816 1023,2786 1045,2768 1067,2748 1071,2736 1067,2730 1062,2727 1074,2705 1073,2676 1084,2661 1085,2644 1109,2636 1126,2634 1133,2616 1135,2597 1147,2578 1156,2552 1171,2542 1197,2540 1216,2546 1218,2567 1225,2585 1238,2599 1246,2617 1262,2616 1275,2598 1294,2581 1319,2577 1347,2564 1366,2542 1372,2513 1385,2472 1406,2446 1422,2411 1432,2396 1458,2375 1491,2357 1504,2346 1504,2326 1519,2299 1547,2288 1520,2281 1514,2269 1521,2252 1529,2241 1525,2225 1511,2200 1494,2199 1481,2206 1464,2193 1449,2173 1438,2156 1422,2146 1396,2131 1393,2115 1398,2099 1429,2083 1444,2065 1448,2054 1447,2023 1456,1998 1473,1958 1477,1927 1464,1916 1446,1915 1420,1901 1407,1890 1397,1871 1399,1858 1423,1848 1455,1827 1480,1795 1480,1767 1458,1740 1424,1723 1414,1689 1438,1661 1468,1672 1506,1687 1534,1688 1561,1685 1589,1675 1581,1647 1568,1616 1566,1588 1536,1571 1508,1566 1481,1551 1455,1535 1458,1516 1478,1503 1495,1476 1502,1483 1514,1489 1532,1495 1542,1511 1558,1505 1574,1511 1581,1514 1587,1515 1594,1510 1601,1507 1608,1505 1614,1504 1621,1502 1628,1498 1635,1496 1642,1498 1645,1499 1651,1499 1658,1501 1665,1501 1672,1499 1679,1496 1686,1495 1693,1496 1700,1496 1705,1491 1712,1493 1719,1494 1726,1491 1733,1492 1740,1492 1752,1487 1761,1485 1798,1479 1805,1479 1812,1480 1819,1480 1826,1474 1832,1472 1839,1472 1846,1472 1849,1473 1856,1471 1857,1465 1861,1464 1866,1464 1876,1465 1884,1463 1891,1461 1898,1461 1905,1459 1912,1459 1919,1459 1926,1458 1932,1455 1939,1453 1946,1452 1952,1452 1969,1453 1979,1449 1987,1445 1994,1439 1997,1436 2034,1430 2039,1425 2044,1420 2049,1418 2055,1414 2065,1413 2076,1411 2085,1405 2092,1400 2103,1395 2118,1389 2129,1381 2132,1376 2133,1366 2140,1363 2151,1356 2164,1349 2184,1350 2200,1351 2216,1349 2208,1329 2228,1331 2244,1331 2278,1327 2332,1307 2352,1325 2376,1307 2381,1302 2389,1316 " class="polyStyle" id="610427" style="fill:#ee8b94"/>
<polygon points="477,1180 483,1187 491,1194 502,1195 517,1194 527,1195 535,1199 538,1204 548,1210 561,1213 569,1214 576,1213 583,1210 590,1210 597,1209 608,1211 613,1214 619,1224 623,1228 628,1233 635,1238 642,1240 649,1237 656,1236 661,1239 668,1244 675,1245 683,1242 687,1243 690,1242 693,1243 700,1248 706,1264 716,1280 717,1283 720,1289 724,1294 731,1298 738,1297 745,1294 752,1291 760,1287 768,1285 772,1287 786,1290 802,1302 812,1315 819,1324 831,1333 841,1334 857,1334 867,1334 870,1335 875,1340 879,1345 885,1351 891,1353 898,1354 916,1354 919,1354 930,1350 937,1344 942,1339 946,1337 949,1335 954,1338 957,1340 964,1345 968,1351 970,1367 968,1370 968,1376 974,1382 981,1382 987,1382 994,1382 1001,1382 1008,1382 1015,1381 1022,1382 1029,1383 1035,1385 1040,1391 1041,1396 1038,1402 1040,1408 1045,1413 1050,1419 1056,1425 1061,1430 1068,1434 1074,1436 1079,1436 1086,1433 1089,1432 1097,1428 1107,1422 1114,1421 1129,1419 1136,1418 1142,1418 1149,1418 1156,1418 1163,1419 1177,1419 1184,1420 1191,1420 1197,1420 1219,1422 1230,1417 1234,1415 1241,1413 1248,1411 1255,1413 1262,1415 1269,1418 1274,1423 1278,1428 1282,1434 1285,1440 1288,1445 1293,1451 1300,1453 1307,1456 1314,1456 1321,1453 1328,1450 1333,1445 1340,1440 1347,1434 1354,1431 1361,1431 1365,1437 1368,1442 1370,1448 1376,1459 1381,1465 1388,1467 1395,1468 1402,1466 1409,1461 1413,1456 1414,1450 1416,1445 1416,1439 1416,1433 1413,1428 1413,1422 1409,1416 1409,1411 1408,1405 1409,1400 1412,1394 1417,1388 1427,1385 1445,1385 1463,1384 1481,1383 1489,1384 1510,1386 1520,1390 1527,1395 1531,1399 1534,1404 1535,1410 1535,1416 1535,1421 1535,1427 1532,1433 1531,1438 1528,1444 1524,1449 1520,1455 1513,1460 1506,1465 1501,1471 1495,1476 1478,1503 1458,1516 1455,1535 1481,1551 1508,1566 1536,1571 1566,1588 1568,1616 1581,1647 1589,1675 1561,1685 1534,1688 1506,1687 1468,1672 1438,1661 1414,1689 1424,1723 1458,1740 1480,1767 1480,1795 1455,1827 1423,1848 1399,1858 1397,1871 1407,1890 1420,1901 1446,1915 1464,1916 1477,1927 1473,1958 1456,1998 1447,2023 1448,2054 1444,2065 1429,2083 1398,2099 1393,2115 1396,2131 1422,2146 1438,2156 1449,2173 1464,2193 1481,2206 1494,2199 1511,2200 1525,2225 1529,2241 1521,2252 1514,2269 1520,2281 1547,2288 1519,2299 1504,2326 1504,2346 1491,2357 1458,2375 1432,2396 1422,2411 1406,2446 1385,2472 1372,2513 1366,2542 1347,2564 1319,2577 1294,2581 1275,2598 1262,2616 1246,2617 1238,2599 1225,2585 1218,2567 1216,2546 1197,2540 1171,2542 1156,2552 1147,2578 1135,2597 1133,2616 1126,2634 1109,2636 1085,2644 1084,2661 1073,2676 1074,2705 1062,2727 1051,2720 1027,2718 997,2722 985,2722 971,2716 959,2706 959,2676 955,2664 949,2650 951,2642 977,2614 989,2596 985,2594 921,2598 889,2610 847,2598 803,2596 797,2594 787,2568 761,2566 735,2546 728,2546 728,2538 717,2525 713,2519 708,2515 703,2510 697,2506 693,2500 689,2494 684,2489 677,2483 670,2477 666,2472 663,2466 659,2461 657,2455 651,2450 644,2447 637,2446 631,2445 615,2439 611,2437 611,2431 609,2426 603,2420 598,2414 596,2409 592,2403 587,2397 580,2394 573,2388 560,2379 553,2376 546,2371 539,2367 534,2362 529,2357 527,2351 523,2344 531,2331 536,2324 541,2318 546,2313 553,2308 558,2304 564,2298 564,2293 564,2287 557,2281 550,2280 544,2278 537,2276 531,2269 531,2266 489,2234 467,2238 445,2212 461,2192 425,2200 361,2162 351,2156 347,2144 349,2132 355,2128 373,2122 379,2120 385,2110 385,2102 385,2090 377,2022 379,2010 377,2000 359,1996 347,2004 321,1960 311,1946 306,1926 317,1911 339,1892 336,1885 315,1878 311,1866 311,1852 329,1842 333,1836 329,1828 321,1818 315,1814 309,1816 299,1820 293,1820 289,1816 287,1808 291,1800 293,1792 265,1760 255,1754 205,1744 191,1736 189,1729 195,1698 189,1660 185,1652 177,1638 167,1632 159,1628 143,1628 89,1650 81,1638 53,1590 33,1568 26,1565 54,1535 40,1513 0,1517 0,1511 10,1489 22,1473 50,1445 58,1439 66,1437 86,1443 120,1453 144,1459 176,1465 194,1463 210,1465 224,1439 238,1435 264,1451 264,1481 266,1493 276,1501 288,1505 302,1511 320,1511 332,1505 348,1495 356,1487 358,1483 362,1477 356,1471 344,1467 328,1475 316,1475 308,1457 286,1437 302,1417 354,1431 384,1403 384,1395 352,1403 322,1399 340,1373 348,1367 354,1365 374,1363 388,1365 392,1369 398,1385 402,1385 408,1385 416,1385 432,1371 448,1353 450,1329 414,1337 446,1267 450,1257 448,1247 436,1243 410,1231 386,1223 372,1221 356,1221 344,1225 330,1247 322,1253 310,1257 298,1259 286,1251 284,1243 290,1233 296,1223 310,1211 318,1205 342,1203 368,1197 398,1187 436,1169 466,1159 471,1166 " class="polyStyle" id="610428" style="fill:#fbe6ef"/>
<path d="" class="polyStyle" id="632323" style="fill:#f6f67b"/>
<polygon points="4900,21 4932,21 4960,7 4965,34 4986,62 5015,47 5046,36 5072,61 5074,89 5101,113 5128,116 5127,143 5110,171 5136,178 5165,195 5191,193 5217,164 5247,167 5274,178 5304,186 5334,196 5361,194 5404,202 5410,238 5416,262 5438,265 5463,281 5491,287 5516,265 5547,270 5575,290 5605,311 5615,336 5639,362 5615,390 5628,415 5618,441 5621,469 5653,496 5681,502 5706,520 5717,554 5727,585 5702,604 5682,626 5681,663 5707,669 5735,681 5736,710 5759,737 5769,764 5754,794 5747,821 5773,831 5801,827 5827,832 5856,826 5887,816 5904,833 5904,866 5899,888 5902,904 5930,905 5948,920 5959,946 5966,974 5991,985 6018,1001 6048,1007 6078,1011 6089,1037 6102,1064 6097,1094 6070,1103 6039,1114 6017,1115 6013,1116 5979,1115 5953,1120 5919,1149 5887,1148 5851,1165 5831,1190 5806,1198 5779,1217 5751,1204 5723,1191 5695,1201 5667,1206 5641,1218 5613,1216 5587,1223 5565,1240 5544,1248 5514,1247 5488,1257 5464,1283 5443,1308 5434,1334 5434,1364 5423,1389 5397,1407 5369,1428 5344,1438 5322,1464 5311,1484 5303,1507 5288,1534 5273,1561 5247,1562 5222,1570 5220,1598 5201,1624 5172,1620 5144,1610 5119,1629 5091,1657 5100,1682 5126,1708 5125,1726 5109,1737 5078,1729 5052,1726 5044,1751 5017,1752 5011,1778 5011,1807 4997,1834 4971,1848 4945,1845 4926,1871 4903,1898 4911,1924 4933,1953 4961,1957 4986,1953 5017,1949 5015,1953 5012,1981 5025,2007 5036,2034 5055,2060 5031,2085 5003,2084 4977,2101 4951,2123 4926,2113 4893,2116 4856,2130 4828,2133 4795,2141 4772,2159 4765,2179 4742,2196 4713,2206 4697,2218 4701,2234 4722,2242 4739,2227 4765,2212 4790,2204 4815,2202 4843,2207 4857,2220 4849,2248 4836,2275 4831,2304 4805,2324 4792,2355 4772,2383 4746,2400 4719,2423 4694,2449 4679,2475 4653,2504 4647,2507 4620,2521 4594,2533 4564,2542 4537,2558 4509,2567 4474,2572 4446,2580 4421,2587 4385,2601 4357,2602 4325,2582 4298,2564 4265,2553 4237,2551 4210,2554 4184,2570 4153,2590 4125,2613 4105,2626 4097,2647 4095,2666 4074,2687 4057,2724 4045,2752 4036,2777 4010,2803 4005,2832 3978,2832 3953,2860 3921,2856 3892,2850 3866,2841 3835,2828 3804,2806 3771,2786 3742,2786 3715,2809 3689,2833 3654,2861 3629,2879 3593,2907 3560,2929 3539,2944 3523,2968 3497,3013 3494,3003 3489,2986 3486,2974 3469,2946 3441,2920 3415,2913 3385,2888 3355,2876 3326,2871 3298,2866 3261,2864 3235,2863 3208,2860 3183,2860 3158,2857 3141,2852 3135,2831 3125,2806 3091,2795 3064,2803 3037,2808 3010,2798 2980,2783 2949,2765 2931,2737 2946,2724 2924,2698 2898,2674 2868,2652 2843,2659 2817,2661 2806,2654 2812,2630 2793,2616 2767,2604 2747,2576 2717,2562 2704,2543 2716,2522 2727,2494 2703,2478 2676,2473 2639,2466 2641,2442 2663,2410 2677,2385 2684,2356 2686,2327 2690,2298 2694,2270 2692,2242 2707,2215 2718,2186 2736,2158 2739,2130 2754,2102 2746,2074 2751,2040 2761,2012 2758,1980 2782,1947 2794,1915 2809,1889 2823,1866 2842,1848 2870,1822 2885,1796 2874,1756 2836,1739 2811,1732 2796,1708 2794,1683 2767,1679 2741,1695 2721,1708 2699,1701 2673,1683 2643,1668 2615,1649 2588,1643 2572,1624 2552,1608 2537,1588 2525,1558 2510,1543 2499,1525 2490,1501 2498,1470 2517,1443 2516,1427 2503,1419 2485,1428 2463,1421 2436,1399 2428,1371 2415,1343 2389,1316 2381,1302 2400,1287 2388,1271 2418,1263 2434,1265 2454,1273 2480,1301 2488,1297 2498,1269 2520,1251 2566,1223 2592,1209 2598,1191 2622,1219 2636,1221 2670,1219 2694,1213 2712,1189 2720,1191 2726,1209 2734,1223 2754,1227 2760,1213 2790,1231 2788,1245 2798,1247 2808,1243 2844,1197 2852,1199 2848,1243 2858,1269 2866,1277 2878,1285 2896,1287 2905,1291 2878,1323 2879,1332 2886,1345 2904,1367 2910,1377 2914,1387 2920,1409 2926,1425 2940,1421 2954,1420 2982,1430 2986,1461 3014,1459 3016,1437 3013,1407 3012,1391 3020,1385 3078,1366 3084,1375 3063,1396 3069,1401 3092,1402 3116,1400 3134,1404 3150,1403 3198,1387 3222,1379 3248,1367 3272,1351 3278,1337 3278,1333 3269,1293 3259,1251 3263,1241 3275,1239 3289,1247 3291,1279 3305,1287 3337,1279 3355,1289 3358,1293 3369,1289 3381,1285 3389,1279 3403,1272 3402,1253 3409,1230 3423,1222 3439,1224 3479,1214 3503,1230 3483,1246 3523,1272 3497,1288 3531,1314 3539,1328 3569,1328 3581,1318 3581,1300 3579,1290 3581,1280 3589,1276 3613,1298 3627,1262 3637,1262 3659,1280 3675,1288 3693,1292 3722,1303 3725,1308 3719,1326 3729,1332 3745,1326 3747,1318 3755,1318 3774,1317 3777,1328 3785,1342 3827,1350 3843,1342 3867,1330 3889,1330 3923,1336 3968,1353 3971,1358 3980,1356 3987,1356 3994,1355 4001,1354 4008,1353 4014,1353 4028,1350 4035,1349 4042,1347 4056,1345 4062,1342 4069,1340 4076,1339 4090,1339 4094,1339 4111,1339 4119,1343 4137,1333 4175,1321 4199,1295 4211,1293 4225,1306 4234,1317 4265,1299 4293,1297 4325,1289 4351,1283 4367,1274 4393,1249 4457,1186 4518,1236 4530,1246 4540,1252 4556,1260 4568,1264 4590,1268 4653,1261 4666,1220 4674,1192 4702,1196 4728,1178 4770,1164 4776,1156 4780,1150 4782,1130 4796,1104 4822,1088 4834,1068 4834,1054 4806,1060 4800,1060 4792,1060 4788,1056 4786,1050 4804,952 4784,936 4806,906 4828,858 4814,834 4818,824 4822,818 4836,800 4850,786 4896,752 4916,738 4926,730 4934,718 4938,702 4922,672 4922,642 4902,636 4874,590 4884,564 4886,506 4882,486 4876,476 4856,462 4852,452 4850,440 4846,416 4828,398 4842,354 4838,310 4832,304 4802,286 4788,274 4780,262 4768,216 4774,182 4792,156 4776,136 4782,130 4796,126 4826,118 4838,110 4846,100 4858,74 4868,32 4846,18 4840,-1 4874,2 " class="polyStyle" id="610429" style="fill:#f6f67b"/>
<path d="" class="polyStyle" id="140525" style="fill:#d4ecb2"/>
<path d="" class="polyStyle" id="410922" style="fill:#ee8b94"/>
<path d="" class="polyStyle" id="621027" style="fill:#ee8b94"/>
<path d="" class="polyStyle" id="130427" style="fill:#f6f67b"/>
<path d="" class="polyStyle" id="130121" style="fill:#ee8b94"/>
<path d="" class="polyStyle" id="610823" style="fill:#fbe6ef"/>
<path d="" class="polyStyle" id="130225" style="fill:#fbe6ef"/>
<path d="" class="polyStyle" id="130322" style="fill:#d4ecb2"/>
<path d="" class="polyStyle" id="653130" style="fill:#f6f67b"/>
<path d="" class="polyStyle" id="130822" style="fill:#fbe6ef"/>
<path d="" class="polyStyle" id="211221" style="fill:#f6f67b"/>
<path d="" class="polyStyle" id="210921" style="fill:#f6f67b"/>
<path d="" class="polyStyle" id="150223" style="fill:#f8c67d"/>
<path d="" class="polyStyle" id="220422" style="fill:#d4ecb2"/>
<path d="" class="polyStyle" id="340721" style="fill:#f6f67b"/>
<path d="" class="polyStyle" id="510824" style="fill:#d4ecb2"/>
<path d="" class="polyStyle" id="610324" style="fill:#f6f67b"/>
<path d="" class="polyStyle" id="530722" style="fill:#ee8b94"/>
<path d="" class="polyStyle" id="340823" style="fill:#d4ecb2"/>
<path d="" class="polyStyle" id="620825" style="fill:#d4ecb2"/>
<path d="" class="polyStyle" id="421125" style="fill:#ee8b94"/>
<path d="" class="polyStyle" id="210281" style="fill:#ee8b94"/>
<path d="" class="polyStyle" id="440883" style="fill:#f6f67b"/>
<path d="" class="polyStyle" id="469006" style="fill:#d4ecb2"/>
<path d="" class="polyStyle" id="469002" style="fill:#ee8b94"/>
<path d="" class="polyStyle" id="469005" style="fill:#fbe6ef"/>
<path d="" class="polyStyle" id="440882" style="fill:#ee8b94"/>
<path d="" class="polyStyle" id="450681" style="fill:#ee8b94"/>
<path d="" class="polyStyle" id="441581" style="fill:#d4ecb2"/>
<path d="" class="polyStyle" id="421087" style="fill:#ee8b94"/>
<path d="" class="polyStyle" id="420984" style="fill:#fbe6ef"/>
<path d="" class="polyStyle" id="420582" style="fill:#ee8b94"/>
<polygon points="4533,5516 4568,5524 4582,5546 4587,5566 4596,5594 4586,5623 4580,5652 4566,5681 4564,5698 4582,5713 4606,5726 4629,5751 4638,5780 4660,5802 4667,5824 4655,5845 4652,5860 4665,5888 4700,5895 4728,5909 4757,5928 4791,5927 4810,5950 4822,5982 4857,5990 4857,6021 4843,6047 4818,6060 4791,6081 4763,6086 4752,6112 4752,6141 4756,6168 4774,6176 4804,6175 4821,6184 4831,6196 4826,6215 4814,6228 4791,6254 4785,6281 4798,6302 4807,6325 4811,6350 4836,6377 4866,6426 4864,6427 4845,6440 4819,6454 4787,6462 4761,6481 4733,6496 4722,6512 4698,6525 4677,6512 4657,6514 4635,6533 4606,6550 4580,6565 4552,6577 4522,6580 4493,6588 4460,6599 4431,6602 4401,6602 4373,6601 4347,6602 4314,6602 4288,6605 4285,6606 4258,6619 4229,6626 4201,6637 4172,6656 4140,6671 4103,6670 4073,6662 4036,6656 4007,6676 3976,6700 3938,6698 3902,6696 3869,6698 3836,6698 3811,6706 3774,6702 3745,6685 3717,6682 3679,6681 3652,6684 3616,6695 3570,6709 3529,6723 3503,6730 3470,6737 3444,6740 3415,6741 3387,6736 3352,6714 3315,6701 3297,6691 3283,6687 3288,6649 3299,6628 3294,6596 3285,6576 3270,6551 3262,6527 3269,6491 3289,6463 3285,6436 3270,6413 3262,6392 3258,6363 3278,6323 3291,6294 3283,6264 3297,6234 3318,6214 3330,6181 3323,6148 3312,6116 3319,6093 3339,6067 3370,6058 3374,6030 3377,6008 3387,6009 3408,6034 3436,6027 3462,6028 3488,6031 3515,6044 3524,6073 3548,6091 3579,6094 3594,6076 3605,6043 3608,6016 3608,5994 3613,5994 3654,5994 3688,5986 3713,5977 3735,5950 3746,5923 3743,5893 3742,5862 3759,5835 3769,5822 3799,5815 3823,5810 3859,5820 3889,5832 3910,5847 3931,5843 3932,5822 3940,5797 3957,5780 3980,5793 3982,5820 4002,5854 4019,5876 4049,5885 4080,5878 4084,5854 4094,5830 4115,5820 4141,5811 4168,5799 4191,5782 4196,5753 4217,5747 4241,5736 4270,5719 4276,5693 4282,5668 4264,5635 4246,5618 4225,5597 4226,5578 4248,5578 4258,5558 4279,5531 4309,5527 4342,5525 4374,5508 4413,5494 4451,5487 4479,5486 4502,5498 " class="polyStyle" id="610481" style="fill:#d4ecb2"/>
<path d="" class="polyStyle" id="370282" style="fill:#f6f67b"/>
<path d="" class="polyStyle" id="371083" style="fill:#f6f67b"/>
<path d="" class="polyStyle" id="371082" style="fill:#fbe6ef"/>
<path d="" class="polyStyle" id="652801" style="fill:#f8c67d"/>
<path d="" class="polyStyle" id="654301" style="fill:#ee8b94"/>
<path d="" class="polyStyle" id="370687" style="fill:#ee8b94"/>
<path d="" class="polyStyle" id="371482" style="fill:#d4ecb2"/>
<path d="" class="polyStyle" id="421081" style="fill:#fbe6ef"/>
<path d="" class="polyStyle" id="429006" style="fill:#f6f67b"/>
<path d="" class="polyStyle" id="440982" style="fill:#d4ecb2"/>
<path d="" class="polyStyle" id="421181" style="fill:#d4ecb2"/>
<path d="" class="polyStyle" id="321181" style="fill:#d4ecb2"/>
<path d="" class="polyStyle" id="659007" style="fill:#ee8b94"/>
<path d="" class="polyStyle" id="652701" style="fill:#fbe6ef"/>
<path d="" class="polyStyle" id="210781" style="fill:#fbe6ef"/>
<path d="" class="polyStyle" id="460204" style="fill:#f6f67b"/>
<path d="" class="polyStyle" id="210211" style="fill:#f6f67b"/>
<path d="" class="polyStyle" id="450512" style="fill:#ee8b94"/>
<path d="" class="polyStyle" id="450602" style="fill:#fbe6ef"/>
<path d="" class="polyStyle" id="440404" style="fill:#ee8b94"/>
<path d="" class="polyStyle" id="440403" style="fill:#f6f67b"/>
<path d="" class="polyStyle" id="441502" style="fill:#f6f67b"/>
<path d="" class="polyStyle" id="431002" style="fill:#d4ecb2"/>
<path d="" class="polyStyle" id="500107" style="fill:#fbe6ef"/>
<path d="" class="polyStyle" id="430611" style="fill:#d4ecb2"/>
<path d="" class="polyStyle" id="511304" style="fill:#fbe6ef"/>
<path d="" class="polyStyle" id="340711" style="fill:#ee8b94"/>
<path d="" class="polyStyle" id="320118" style="fill:#f6f67b"/>
<path d="" class="polyStyle" id="510704" style="fill:#f6f67b"/>
<path d="" class="polyStyle" id="411502" style="fill:#ee8b94"/>
<polygon points="1734,6056 1733,6064 1734,6071 1742,6083 1749,6092 1752,6099 1751,6103 1754,6106 1760,6106 1761,6109 1762,6116 1765,6118 1768,6121 1771,6123 1775,6126 1778,6128 1781,6129 1785,6130 1789,6128 1791,6124 1791,6121 1791,6118 1794,6115 1798,6114 1801,6113 1804,6113 1808,6113 1811,6113 1814,6112 1818,6112 1821,6112 1825,6112 1831,6111 1835,6111 1838,6111 1842,6112 1845,6112 1848,6114 1852,6116 1856,6120 1860,6125 1862,6129 1869,6138 1872,6139 1875,6140 1879,6140 1882,6140 1886,6138 1889,6136 1891,6133 1894,6130 1898,6130 1901,6130 1904,6131 1908,6131 1911,6131 1915,6129 1917,6126 1920,6123 1923,6122 1927,6122 1930,6122 1934,6121 1937,6119 1940,6117 1946,6115 1950,6115 1953,6115 1957,6115 1960,6115 1967,6113 1970,6111 1972,6108 1973,6104 1976,6100 1979,6099 1983,6100 1986,6100 1990,6102 1993,6100 1997,6100 2027,6106 2052,6124 2047,6135 2054,6150 2064,6175 2072,6188 2089,6203 2119,6194 2138,6181 2149,6183 2176,6176 2203,6169 2230,6167 2256,6178 2283,6202 2311,6223 2339,6233 2365,6256 2368,6281 2386,6291 2391,6308 2382,6335 2376,6361 2404,6376 2425,6403 2421,6429 2400,6438 2395,6454 2381,6473 2354,6469 2338,6473 2321,6504 2316,6532 2318,6564 2324,6591 2284,6571 2251,6564 2221,6557 2194,6552 2153,6555 2126,6556 2089,6564 2063,6562 2035,6570 2016,6571 2008,6572 2001,6570 2001,6564 2001,6559 2002,6550 1982,6559 1968,6571 1960,6575 1947,6578 1921,6579 1883,6587 1874,6588 1859,6590 1824,6591 1774,6596 1737,6602 1721,6606 1707,6616 1686,6619 1676,6619 1679,6614 1681,6604 1683,6599 1686,6569 1688,6527 1691,6502 1690,6487 1689,6482 1686,6478 1682,6474 1680,6468 1683,6445 1686,6436 1694,6432 1717,6422 1726,6415 1720,6403 1709,6386 1693,6384 1679,6383 1671,6380 1626,6377 1608,6375 1603,6372 1602,6354 1606,6340 1625,6340 1626,6333 1625,6314 1615,6315 1604,6313 1596,6312 1590,6309 1581,6303 1578,6290 1574,6277 1566,6274 1561,6274 1558,6276 1555,6282 1552,6289 1547,6291 1534,6291 1530,6287 1529,6281 1532,6267 1530,6264 1526,6263 1514,6264 1504,6270 1499,6276 1494,6276 1490,6271 1491,6264 1492,6250 1490,6241 1474,6216 1466,6206 1466,6191 1471,6179 1480,6163 1486,6154 1489,6141 1490,6135 1495,6124 1502,6108 1509,6098 1512,6096 1516,6097 1526,6103 1533,6105 1541,6106 1546,6106 1560,6098 1573,6094 1587,6095 1596,6096 1599,6100 1601,6104 1606,6106 1609,6106 1614,6105 1618,6106 1619,6114 1622,6122 1632,6124 1641,6125 1645,6127 1649,6137 1651,6140 1656,6138 1659,6138 1661,6134 1675,6129 1686,6127 1689,6127 1695,6123 1704,6121 1710,6119 1713,6115 1713,6106 1707,6081 1705,6066 1710,6058 1715,6052 1722,6047 1727,6047 1734,6050 " class="polyStyle" id="610403" style="fill:#d4ecb2"/>
<path d="" class="polyStyle" id="320302" style="fill:#d4ecb2"/>
<polygon points="5755,5296 5742,5321 5770,5321 5797,5316 5827,5316 5859,5337 5890,5347 5933,5347 5967,5342 5983,5358 6008,5380 6035,5380 6068,5378 6097,5386 6110,5423 6134,5429 6165,5412 6187,5396 6205,5394 6234,5407 6266,5407 6291,5421 6311,5453 6334,5478 6364,5484 6389,5492 6415,5485 6447,5491 6476,5495 6510,5500 6525,5523 6531,5550 6535,5578 6544,5609 6558,5635 6528,5663 6497,5681 6467,5696 6440,5705 6410,5707 6382,5700 6356,5685 6326,5669 6300,5674 6272,5697 6244,5716 6213,5754 6196,5763 6165,5775 6130,5782 6101,5790 6073,5803 6044,5798 6011,5794 5990,5787 5940,5787 5910,5802 5894,5816 5896,5831 5895,5848 5874,5881 5847,5897 5821,5904 5790,5908 5763,5923 5746,5915 5729,5918 5708,5926 5681,5934 5656,5944 5649,5955 5634,5968 5616,5973 5596,5978 5578,5980 5554,5981 5524,5994 5509,6004 5494,6016 5482,6026 5472,6031 5458,6039 5437,6045 5412,6054 5397,6063 5372,6070 5347,6081 5328,6085 5312,6086 5307,6084 5307,6069 5306,6051 5306,6033 5303,6020 5296,5999 5289,5981 5271,5963 5253,5953 5227,5948 5199,5945 5176,5944 5153,5944 5132,5939 5127,5923 5131,5911 5143,5894 5159,5876 5159,5863 5153,5850 5141,5831 5126,5813 5118,5794 5119,5780 5127,5765 5127,5750 5123,5729 5128,5711 5142,5700 5159,5690 5179,5681 5206,5673 5227,5666 5233,5654 5228,5636 5222,5618 5226,5601 5238,5584 5257,5574 5269,5559 5277,5550 5264,5535 5258,5534 5236,5520 5226,5508 5203,5501 5179,5493 5168,5481 5167,5461 5167,5449 5162,5434 5153,5421 5131,5413 5105,5397 5118,5389 5112,5364 5130,5344 5161,5351 5188,5344 5207,5311 5230,5296 5241,5299 5269,5306 5296,5321 5322,5339 5351,5338 5378,5330 5405,5325 5436,5324 5464,5327 5496,5337 5537,5355 5570,5358 5597,5348 5615,5322 5645,5305 5675,5291 5705,5288 5731,5294 " class="polyStyle" id="610404" style="fill:#fbe6ef"/>
<polygon points="4983,5299 4989,5330 5013,5353 5010,5378 5021,5399 5043,5396 5084,5389 5105,5397 5131,5413 5153,5421 5162,5434 5167,5449 5167,5461 5168,5481 5179,5493 5203,5501 5226,5508 5236,5520 5258,5534 5264,5535 5277,5550 5269,5559 5257,5574 5238,5584 5226,5601 5222,5618 5228,5636 5233,5654 5227,5666 5206,5673 5179,5681 5159,5690 5142,5700 5128,5711 5123,5729 5127,5750 5127,5765 5119,5780 5118,5794 5126,5813 5141,5831 5153,5850 5159,5863 5159,5876 5143,5894 5131,5911 5127,5923 5132,5939 5153,5944 5176,5944 5199,5945 5227,5948 5253,5953 5271,5963 5289,5981 5296,5999 5303,6020 5306,6033 5306,6051 5307,6069 5307,6084 5312,6086 5328,6085 5347,6081 5372,6070 5397,6063 5412,6054 5437,6045 5458,6039 5472,6031 5482,6026 5494,6016 5509,6004 5524,5994 5554,5981 5578,5980 5596,5978 5616,5973 5634,5968 5649,5955 5656,5944 5681,5934 5708,5926 5729,5918 5746,5915 5763,5923 5757,5951 5754,5985 5746,6008 5734,6033 5729,6063 5724,6097 5723,6130 5728,6162 5732,6190 5733,6217 5727,6243 5720,6248 5685,6251 5683,6252 5655,6243 5626,6244 5597,6247 5566,6247 5558,6228 5535,6227 5502,6238 5485,6248 5500,6269 5508,6295 5487,6321 5459,6334 5438,6323 5413,6315 5386,6332 5357,6338 5329,6340 5302,6339 5271,6347 5245,6349 5219,6371 5223,6398 5241,6426 5210,6440 5192,6468 5195,6495 5197,6520 5169,6527 5144,6510 5115,6503 5090,6499 5061,6471 5039,6445 5017,6415 4997,6401 4981,6397 4948,6407 4940,6407 4927,6407 4895,6417 4866,6426 4836,6377 4811,6350 4807,6325 4798,6302 4785,6281 4791,6254 4814,6228 4826,6215 4831,6196 4821,6184 4804,6175 4774,6176 4756,6168 4752,6141 4752,6112 4763,6086 4791,6081 4818,6060 4843,6047 4857,6021 4857,5990 4822,5982 4810,5950 4791,5927 4757,5928 4728,5909 4700,5895 4665,5888 4652,5860 4655,5845 4667,5824 4660,5802 4638,5780 4629,5751 4606,5726 4582,5713 4564,5698 4566,5681 4580,5652 4586,5623 4596,5594 4587,5566 4582,5546 4609,5541 4639,5538 4671,5552 4700,5548 4722,5575 4726,5607 4740,5630 4765,5622 4794,5594 4822,5583 4810,5555 4785,5537 4753,5517 4756,5492 4794,5483 4822,5479 4845,5468 4856,5434 4850,5399 4821,5384 4803,5366 4807,5340 4817,5318 4840,5297 4862,5290 4891,5283 4922,5278 4952,5273 4973,5276 " class="polyStyle" id="610402" style="fill:#ee8b94"/>
<path d="" class="polyStyle" id="140311" style="fill:#ee8b94"/>
<path d="" class="polyStyle" id="610802" style="fill:#ee8b94"/>
<path d="" class="polyStyle" id="120116" style="fill:#f6f67b"/>
<path d="" class="polyStyle" id="130303" style="fill:#fbe6ef"/>
<path d="" class="polyStyle" id="140211" style="fill:#f6f67b"/>
<path d="" class="polyStyle" id="150207" style="fill:#fbe6ef"/>
<path d="" class="polyStyle" id="211403" style="fill:#f6f67b"/>
<path d="" class="polyStyle" id="150802" style="fill:#f8c67d"/>
<path d="" class="polyStyle" id="210112" style="fill:#ee8b94"/>
<path d="" class="polyStyle" id="230406" style="fill:#d4ecb2"/>
<path d="" class="polyStyle" id="110113" style="fill:#fbe6ef"/>
<path d="" class="polyStyle" id="341702" style="fill:#fbe6ef"/>
<path d="" class="polyStyle" id="420303" style="fill:#ee8b94"/>
<path d="" class="polyStyle" id="340702" style="fill:#d4ecb2"/>
<path d="" class="polyStyle" id="421002" style="fill:#f6f67b"/>
<path d="" class="polyStyle" id="420117" style="fill:#f6f67b"/>
<path d="" class="polyStyle" id="440904" style="fill:#f8c67d"/>
<path d="" class="polyStyle" id="460205" style="fill:#ee8b94"/>
<path d="" class="polyStyle" id="460202" style="fill:#f6f67b"/>
<path d="" class="polyStyle" id="460203" style="fill:#fbe6ef"/>
<path d="" class="polyStyle" id="420304" style="fill:#f6f67b"/>
<path d="" class="polyStyle" id="445302" style="fill:#ee8b94"/>
<path d="" class="polyStyle" id="410202" style="fill:#d4ecb2"/>
<path d="" class="polyStyle" id="440800" style="fill:#f6f67b"/>
<path d="" class="polyStyle" id="440900" style="fill:#ee8b94"/>
<path d="" class="polyStyle" id="340800" style="fill:#ee8b94"/>
<path d="" class="polyStyle" id="460200" style="fill:#f6f67b"/>
<path d="" class="polyStyle" id="460000" style="fill:#ee8b94"/>
<path d="" class="polyStyle" id="450500" style="fill:#ee8b94"/>
<path d="" class="polyStyle" id="450600" style="fill:#ee8b94"/>
<path d="" class="polyStyle" id="440400" style="fill:#f6f67b"/>
<path d="" class="polyStyle" id="441700" style="fill:#f6f67b"/>
<path d="" class="polyStyle" id="441500" style="fill:#f6f67b"/>
<path d="" class="polyStyle" id="350600" style="fill:#ee8b94"/>
<path d="" class="polyStyle" id="710000" style="fill:#f6f67b"/>
<path d="" class="polyStyle" id="510400" style="fill:#f6f67b"/>
<path d="" class="polyStyle" id="522600" style="fill:#fbe6ef"/>
<path d="" class="polyStyle" id="520500" style="fill:#ee8b94"/>
<path d="" class="polyStyle" id="431200" style="fill:#f6f67b"/>
<path d="" class="polyStyle" id="430600" style="fill:#f6f67b"/>
<path d="" class="polyStyle" id="511400" style="fill:#d4ecb2"/>
<path d="" class="polyStyle" id="421000" style="fill:#ee8b94"/>
<path d="" class="polyStyle" id="341700" style="fill:#f6f67b"/>
<path d="" class="polyStyle" id="420500" style="fill:#f6f67b"/>
<path d="" class="polyStyle" id="511300" style="fill:#f6f67b"/>
<path d="" class="polyStyle" id="420900" style="fill:#f6f67b"/>
<path d="" class="polyStyle" id="511700" style="fill:#ee8b94"/>
<path d="" class="polyStyle" id="420600" style="fill:#d4ecb2"/>
<path d="" class="polyStyle" id="411500" style="fill:#fbe6ef"/>
<path d="" class="polyStyle" id="510800" style="fill:#ee8b94"/>
<path d="" class="polyStyle" id="420300" style="fill:#fbe6ef"/>
<path d="" class="polyStyle" id="611000" style="fill:#ee8b94"/>
<path d="" class="polyStyle" id="620800" style="fill:#fbe6ef"/>
<path d="" class="polyStyle" id="370200" style="fill:#ee8b94"/>
<path d="" class="polyStyle" id="371000" style="fill:#f6f67b"/>
<path d="" class="polyStyle" id="370600" style="fill:#fbe6ef"/>
<path d="" class="polyStyle" id="120000" style="fill:#f6f67b"/>
<path d="" class="polyStyle" id="130200" style="fill:#ee8b94"/>
<path d="" class="polyStyle" id="130300" style="fill:#f6f67b"/>
<path d="" class="polyStyle" id="652900" style="fill:#fbe6ef"/>
<path d="" class="polyStyle" id="150500" style="fill:#d4ecb2"/>
<path d="" class="polyStyle" id="" style="fill:#d4ecb2"/>
<path d="" class="polyStyle" id="350500" style="fill:#fbe6ef"/>
<path d="" class="polyStyle" id="440400" style="fill:#f6f67b"/>
<path d="" class="polyStyle" id="421100" style="fill:#d4ecb2"/>
<path d="" class="polyStyle" id="420100" style="fill:#fbe6ef"/>
<path d="" class="polyStyle" id="532500" style="fill:#fbe6ef"/>
<path d="" class="polyStyle" id="654200" style="fill:#fbe6ef"/>
<path d="" class="polyStyle" id="210700" style="fill:#d4ecb2"/>
<path d="" class="polyStyle" id="522300" style="fill:#fbe6ef"/>
<path d="" class="polyStyle" id="" style="fill:#ee8b94"/>
<path d="" class="polyStyle" id="440400" style="fill:#f6f67b"/>
<path d="" class="polyStyle" id="620000" style="fill:#f6f67b"/>
<path d="" class="polyStyle" id="430000" style="fill:#fbe6ef"/>
<path d="" class="polyStyle" id="420000" style="fill:#ee8b94"/>
<path d="" class="polyStyle" id="410000" style="fill:#f6f67b"/>
<path d="" class="polyStyle" id="350000" style="fill:#fbe6ef"/>
<path d="" class="polyStyle" id="520000" style="fill:#f6f67b"/>
<path d="" class="polyStyle" id="" style="fill:#ee8b94"/>
</svg>
