<?xml version="1.0" encoding="UTF-8"?>
<!DOCTYPE svg PUBLIC "-//W3C//DTD SVG 1.1 Tiny//EN" "http://www.w3.org/Graphics/SVG/1.1/DTD/svg11-tiny.dtd">
<svg version="1.1" xmlns="http://www.w3.org/2000/svg" xmlns:xlink="http://www.w3.org/1999/xlink" width="100%" height="100%" viewBox="0,0,6964,4884">
<title>SVG</title>
<desc>Poligon Test</desc>
<style id="style_css_sheet" type="text/css">
.polyStyle{fill: #cccccc;stroke-width:0;fill-rule:evenodd;}
</style>
<circle cx="3160" cy="3757" r="200" stroke="black" stroke-width="1" fill="red" id="620321" name="永昌县"/>
<circle cx="4303" cy="2486" r="200" stroke="black" stroke-width="1" fill="red" id="620302" name="金川区"/>
<path d="" class="polyStyle" id="" style="fill:#ee8b94"/>
<path d="" class="polyStyle" id="623022" style="fill:#fbe6ef"/>
<path d="" class="polyStyle" id="211421" style="fill:#f6f67b"/>
<path d="" class="polyStyle" id="532524" style="fill:#ee8b94"/>
<path d="" class="polyStyle" id="440825" style="fill:#f6f67b"/>
<path d="" class="polyStyle" id="441721" style="fill:#f6f67b"/>
<path d="" class="polyStyle" id="450521" style="fill:#f6f67b"/>
<path d="" class="polyStyle" id="450123" style="fill:#fbe6ef"/>
<path d="" class="polyStyle" id="350624" style="fill:#f6f67b"/>
<path d="" class="polyStyle" id="" style="fill:#fbe6ef"/>
<path d="" class="polyStyle" id="451224" style="fill:#fbe6ef"/>
<path d="" class="polyStyle" id="350627" style="fill:#f6f67b"/>
<path d="" class="polyStyle" id="" style="fill:#f6f67b"/>
<path d="" class="polyStyle" id="350525" style="fill:#f6f67b"/>
<path d="" class="polyStyle" id="530124" style="fill:#ee8b94"/>
<path d="" class="polyStyle" id="522627" style="fill:#ee8b94"/>
<path d="" class="polyStyle" id="510421" style="fill:#fbe6ef"/>
<path d="" class="polyStyle" id="522623" style="fill:#d4ecb2"/>
<path d="" class="polyStyle" id="430321" style="fill:#d4ecb2"/>
<path d="" class="polyStyle" id="511129" style="fill:#d4ecb2"/>
<path d="" class="polyStyle" id="511423" style="fill:#ee8b94"/>
<path d="" class="polyStyle" id="421023" style="fill:#f6f67b"/>
<path d="" class="polyStyle" id="511724" style="fill:#f6f67b"/>
<path d="" class="polyStyle" id="420526" style="fill:#fbe6ef"/>
<path d="" class="polyStyle" id="511923" style="fill:#fbe6ef"/>
<path d="" class="polyStyle" id="420325" style="fill:#fbe6ef"/>
<path d="" class="polyStyle" id="511921" style="fill:#f6f67b"/>
<path d="" class="polyStyle" id="542525" style="fill:#f6f67b"/>
<path d="" class="polyStyle" id="611026" style="fill:#ee8b94"/>
<path d="" class="polyStyle" id="411023" style="fill:#fbe6ef"/>
<path d="" class="polyStyle" id="632323" style="fill:#f6f67b"/>
<path d="" class="polyStyle" id="140525" style="fill:#d4ecb2"/>
<path d="" class="polyStyle" id="410922" style="fill:#ee8b94"/>
<path d="" class="polyStyle" id="621027" style="fill:#ee8b94"/>
<path d="" class="polyStyle" id="130427" style="fill:#f6f67b"/>
<path d="" class="polyStyle" id="130121" style="fill:#ee8b94"/>
<path d="" class="polyStyle" id="610823" style="fill:#fbe6ef"/>
<polygon points="1242,1871 1274,1887 1297,1898 1333,1914 1358,1923 1378,1931 1402,1938 1430,1947 1449,1952 1456,1953 1482,1961 1516,1973 1534,1980 1555,1992 1566,1998 1575,2008 1583,2019 1589,2026 1596,2031 1608,2034 1627,2035 1640,2036 1648,2036 1661,2039 1673,2044 1689,2055 1704,2066 1717,2076 1726,2083 1733,2094 1744,2112 1754,2129 1765,2146 1775,2159 1786,2168 1803,2180 1845,2158 1915,2088 1943,2059 1967,2039 1978,2028 1997,2027 2033,2037 2043,2049 2039,2068 2006,2115 1993,2147 1987,2176 1995,2200 2017,2215 2042,2224 2061,2222 2069,2220 2077,2215 2114,2203 2140,2192 2149,2186 2156,2178 2163,2147 2162,2123 2157,2097 2158,2080 2165,2075 2188,2069 2209,2074 2212,2075 2243,2087 2240,2109 2223,2170 2215,2243 2216,2302 2240,2322 2286,2323 2304,2324 2321,2319 2326,2303 2330,2268 2333,2240 2357,2222 2425,2177 2449,2166 2467,2166 2592,2209 2713,2252 2741,2281 2764,2305 2771,2326 2779,2384 2804,2423 2823,2468 2823,2480 2831,2494 2845,2511 2854,2520 2860,2533 2860,2544 2854,2569 2850,2593 2956,2603 2962,2604 3004,2591 3021,2571 3025,2546 3033,2513 3046,2468 3064,2442 3077,2421 3083,2409 3096,2402 3120,2401 3132,2401 3140,2406 3144,2418 3164,2452 3183,2499 3182,2504 3184,2513 3190,2518 3222,2545 3244,2562 3316,2571 3335,2576 3344,2587 3352,2591 3358,2591 3361,2595 3368,2600 3367,2606 3366,2615 3379,2627 3397,2629 3407,2625 3422,2630 3440,2640 3481,2644 3488,2656 3494,2670 3506,2677 3515,2689 3522,2702 3551,2717 3568,2730 3598,2751 3634,2773 3664,2798 3672,2806 3679,2810 3687,2815 3698,2829 3700,2846 3703,2856 3715,2856 3720,2853 3728,2856 3734,2863 3747,2867 3774,2891 3814,2925 3839,2944 3850,2958 3855,2970 3877,2983 3885,2992 3918,3006 3950,3023 3982,3032 4164,3046 4221,3052 4241,3060 4251,3068 4259,3077 4269,3083 4277,3084 4280,3083 4282,3079 4282,3071 4284,3066 4285,3063 4287,3060 4294,3060 4367,3063 4389,3070 4413,3083 4442,3095 4453,3101 4460,3100 4461,3092 4455,3082 4441,3069 4523,3082 4607,3114 4640,3131 4670,3148 4699,3162 4713,3177 4713,3191 4715,3201 4716,3203 4721,3206 4724,3207 4728,3207 4733,3207 4737,3207 4740,3203 4744,3199 4749,3192 4754,3188 4759,3187 4764,3186 4770,3185 4775,3185 4778,3185 4806,3193 4813,3193 4816,3190 4819,3188 4820,3184 4823,3177 4827,3171 4833,3167 4841,3165 4848,3165 4851,3169 4854,3178 4855,3192 4863,3202 4874,3210 5002,3242 5058,3116 5870,3016 5910,2866 6157,2908 6183,2916 6199,2916 6211,2917 6227,2918 6248,2921 6263,2921 6281,2920 6294,2922 6336,2915 6432,2908 6481,2909 6488,2912 6730,2924 6823,2941 6847,2982 6832,3046 6785,3259 6789,3263 6792,3270 6792,3290 6798,3318 6787,3356 6773,3392 6767,3424 6771,3460 6767,3493 6761,3518 6758,3535 6754,3550 6755,3570 6761,3578 6766,3583 6775,3585 6789,3588 6801,3591 6809,3595 6816,3601 6823,3608 6829,3621 6833,3632 6833,3643 6835,3653 6841,3662 6851,3676 6856,3682 6856,3688 6851,3694 6842,3700 6831,3707 6829,3711 6831,3715 6837,3717 6851,3717 6870,3713 6878,3713 6891,3717 6913,3727 6937,3759 6964,3828 6961,3873 6933,3893 6906,3912 6921,3952 6945,3986 6948,3995 6928,4028 6927,4033 6920,4047 6915,4049 6902,4064 6889,4071 6875,4070 6840,4061 6820,4063 6807,4062 6803,4060 6795,4050 6786,4052 6767,4063 6754,4062 6747,4058 6739,4046 6694,4055 6696,4063 6702,4070 6702,4082 6701,4108 6707,4128 6706,4137 6702,4142 6713,4146 6715,4163 6718,4202 6714,4206 6705,4199 6691,4193 6679,4192 6669,4193 6649,4202 6627,4214 6613,4215 6598,4211 6592,4211 6569,4207 6562,4204 6541,4206 6527,4200 6501,4183 6489,4179 6465,4167 6453,4164 6444,4164 6437,4162 6408,4146 6393,4140 6373,4136 6340,4136 6326,4134 6306,4132 6277,4133 6255,4136 6220,4137 6192,4131 6163,4120 6159,4119 6147,4112 6139,4110 6133,4106 6123,4096 6109,4087 6094,4082 6065,4078 6044,4081 6034,4079 6026,4076 6020,4078 5992,4087 5952,4098 5940,4112 5939,4115 5936,4124 5930,4127 5926,4131 5926,4137 5922,4142 5916,4147 5909,4146 5906,4148 5903,4154 5893,4159 5883,4163 5877,4164 5871,4163 5865,4167 5858,4170 5832,4176 5819,4184 5813,4186 5801,4190 5796,4204 5769,4234 5733,4258 5705,4276 5693,4284 5684,4292 5670,4299 5656,4306 5641,4311 5625,4318 5617,4323 5610,4328 5598,4347 5591,4359 5571,4391 5554,4419 5548,4424 5534,4429 5502,4441 5476,4445 5446,4442 5411,4442 5393,4438 5378,4429 5367,4418 5369,4409 5368,4401 5360,4389 5357,4365 5367,4351 5365,4346 5347,4341 5329,4317 5315,4308 5263,4284 5182,4268 5169,4267 5158,4269 5127,4276 5111,4282 5100,4285 5082,4287 5063,4290 5052,4291 5033,4293 5020,4297 5008,4304 5000,4306 4986,4304 4967,4305 4953,4306 4940,4308 4936,4309 4938,4343 4868,4343 4861,4346 4850,4350 4809,4348 4763,4349 4733,4354 4716,4356 4706,4358 4696,4364 4688,4371 4679,4378 4658,4386 4644,4390 4633,4393 4615,4398 4599,4404 4587,4410 4583,4412 4574,4414 4550,4414 4522,4412 4506,4411 4490,4411 4481,4411 4476,4413 4472,4420 4468,4433 4467,4446 4469,4459 4472,4482 4472,4491 4471,4499 4462,4518 4455,4533 4443,4548 4430,4561 4424,4572 4416,4589 4408,4603 4413,4628 4411,4645 4409,4650 4406,4656 4399,4672 4378,4694 4364,4700 4351,4704 4346,4701 4341,4702 4337,4703 4337,4710 4332,4711 4327,4711 4320,4704 4316,4703 4302,4711 4293,4718 4289,4719 4284,4718 4281,4715 4276,4706 4269,4697 4257,4686 4250,4685 4244,4691 4238,4694 4235,4698 4240,4701 4237,4704 4230,4705 4223,4703 4221,4698 4217,4698 4217,4702 4211,4706 4215,4710 4223,4715 4221,4720 4212,4730 4192,4744 4183,4739 4182,4724 4171,4712 4152,4701 4150,4693 4144,4687 4132,4689 4118,4700 4104,4712 4093,4723 4082,4729 4070,4732 4045,4736 4030,4741 4013,4750 4004,4761 3998,4772 3989,4779 3982,4779 3970,4780 3956,4773 3940,4770 3937,4770 3932,4775 3922,4780 3918,4785 3914,4786 3904,4787 3896,4784 3893,4786 3889,4795 3880,4794 3870,4788 3867,4784 3864,4784 3858,4792 3852,4794 3843,4794 3837,4794 3833,4804 3831,4807 3822,4809 3819,4810 3814,4818 3801,4821 3793,4825 3790,4827 3784,4830 3774,4837 3771,4842 3772,4846 3775,4851 3775,4854 3766,4863 3752,4870 3745,4874 3728,4870 3716,4869 3718,4866 3741,4858 3743,4855 3741,4853 3730,4851 3722,4844 3717,4846 3711,4845 3704,4840 3698,4841 3684,4849 3676,4853 3669,4854 3663,4852 3658,4849 3653,4849 3647,4848 3640,4848 3637,4851 3635,4856 3625,4866 3619,4883 3613,4883 3590,4878 3581,4878 3575,4873 3570,4871 3564,4872 3556,4873 3551,4876 3545,4875 3534,4870 3523,4860 3511,4851 3504,4835 3489,4817 3482,4811 3480,4808 3469,4800 3449,4783 3447,4767 3447,4754 3450,4749 3451,4742 3451,4739 3447,4731 3447,4727 3450,4717 3450,4711 3434,4691 3423,4684 3420,4679 3416,4669 3406,4663 3399,4648 3399,4638 3396,4628 3405,4614 3401,4604 3403,4597 3401,4591 3397,4588 3376,4585 3369,4582 3361,4568 3337,4524 3330,4523 3310,4532 3297,4532 3284,4529 3266,4521 3252,4518 3237,4520 3232,4523 3226,4529 3217,4540 3208,4555 3196,4570 3164,4573 3158,4573 3143,4590 3130,4593 3120,4589 3097,4593 3068,4595 3047,4596 3024,4585 3001,4576 2976,4570 2934,4557 2905,4548 2896,4532 2882,4518 2855,4513 2838,4509 2813,4510 2807,4510 2802,4503 2796,4499 2785,4497 2774,4499 2759,4483 2749,4482 2730,4491 2704,4500 2692,4501 2676,4498 2664,4500 2646,4507 2628,4508 2613,4504 2596,4500 2569,4513 2546,4528 2524,4554 2510,4583 2499,4611 2494,4622 2486,4626 2478,4627 2469,4626 2466,4628 2454,4639 2427,4661 2414,4667 2402,4670 2380,4673 2368,4673 2344,4670 2330,4669 2317,4666 2311,4659 2302,4650 2290,4648 2264,4641 2254,4637 2226,4634 2223,4631 2220,4618 2215,4612 2207,4614 2204,4615 2199,4614 2185,4609 2166,4604 2152,4601 2143,4596 2137,4590 2131,4582 2128,4573 2123,4564 2112,4556 2104,4556 2079,4557 2066,4556 2046,4555 2038,4554 2033,4550 2023,4527 2020,4519 2014,4518 2008,4519 2000,4522 1992,4524 1988,4523 1985,4524 1981,4530 1980,4539 1979,4542 1975,4544 1970,4543 1961,4541 1956,4538 1952,4538 1939,4545 1918,4549 1909,4549 1894,4542 1869,4536 1862,4535 1857,4535 1851,4539 1826,4568 1812,4588 1789,4610 1780,4639 1780,4655 1778,4662 1772,4665 1728,4633 1709,4618 1673,4591 1640,4570 1597,4554 1581,4549 1576,4548 1569,4550 1553,4560 1540,4578 1533,4594 1525,4611 1514,4623 1496,4652 1481,4668 1469,4679 1457,4684 1446,4683 1431,4678 1406,4669 1399,4668 1371,4673 1358,4683 1320,4701 1281,4704 1209,4714 1132,4693 1114,4690 1091,4687 1062,4683 1051,4683 1028,4686 1014,4683 1008,4678 993,4670 978,4665 944,4670 910,4685 881,4691 854,4685 827,4687 797,4661 789,4646 768,4621 735,4602 722,4591 694,4587 650,4577 615,4564 588,4546 565,4512 555,4480 547,4452 531,4438 486,4430 420,4416 372,4398 344,4375 342,4367 349,4356 351,4351 349,4339 351,4328 353,4317 360,4306 369,4294 379,4272 383,4266 391,4244 397,4232 404,4221 411,4210 418,4199 440,4185 454,4179 475,4166 489,4156 503,4142 518,4126 533,4112 536,4108 547,4099 562,4089 597,4063 608,4052 618,4040 630,4029 643,4020 669,3969 678,3957 697,3926 722,3893 743,3868 758,3850 761,3831 758,3819 733,3804 715,3794 690,3785 678,3780 670,3775 604,3724 597,3722 583,3714 564,3701 554,3695 538,3690 512,3680 489,3670 456,3656 432,3644 410,3636 403,3630 399,3621 397,3601 398,3585 393,3580 378,3578 361,3578 335,3577 325,3575 320,3570 315,3561 311,3549 309,3532 309,3517 309,3497 307,3483 299,3460 292,3441 285,3423 278,3418 202,3411 53,3412 42,3369 32,3345 26,3308 26,3283 26,3266 23,3249 19,3224 15,3196 1,3170 0,3159 7,3150 22,3147 31,3147 42,3151 53,3156 75,3164 92,3173 99,3174 107,3169 124,3155 139,3150 168,3148 173,3144 174,3137 167,3127 157,3101 155,3094 154,3087 158,3081 162,3076 168,3068 172,3059 178,3056 206,3060 223,3061 239,3057 252,3049 263,3049 279,3056 291,3056 313,3051 336,3047 356,3043 369,3039 382,3023 393,3011 416,3014 439,3020 463,3025 513,3041 553,3048 577,3052 585,3051 590,3045 590,3040 590,3031 593,3027 600,3029 616,3032 631,3032 646,3029 662,3025 672,3019 677,3015 683,3004 687,2995 697,2982 730,2952 747,2927 762,2907 782,2889 812,2868 845,2847 887,2822 909,2804 938,2768 958,2738 972,2707 978,2693 978,2686 974,2678 967,2674 960,2673 954,2673 947,2670 940,2667 933,2667 920,2672 909,2675 895,2673 878,2670 866,2669 857,2667 851,2664 850,2660 851,2656 852,2650 852,2641 851,2618 850,2603 842,2588 837,2573 834,2555 834,2542 843,2532 858,2522 878,2517 891,2517 899,2518 909,2528 920,2547 927,2552 937,2550 957,2542 970,2538 987,2538 1018,2538 1040,2539 1061,2539 1072,2537 1076,2533 1078,2524 1071,2498 1065,2476 1066,2456 1060,2430 1050,2399 1040,2372 1017,2335 976,2279 947,2264 917,2239 931,2224 966,2201 1004,2186 1046,2167 1110,2135 1161,2110 1170,2100 1157,2079 1148,2067 1151,2056 1156,2040 1144,1973 1140,1941 1138,1914 1179,1877 1199,1863 1212,1856 1218,1859 " class="polyStyle" id="620321" style="fill:#f6f67b"/>
<path d="" class="polyStyle" id="130225" style="fill:#fbe6ef"/>
<path d="" class="polyStyle" id="130322" style="fill:#d4ecb2"/>
<path d="" class="polyStyle" id="653130" style="fill:#f6f67b"/>
<path d="" class="polyStyle" id="130822" style="fill:#fbe6ef"/>
<path d="" class="polyStyle" id="211221" style="fill:#f6f67b"/>
<path d="" class="polyStyle" id="210921" style="fill:#f6f67b"/>
<path d="" class="polyStyle" id="150223" style="fill:#f8c67d"/>
<path d="" class="polyStyle" id="220422" style="fill:#d4ecb2"/>
<path d="" class="polyStyle" id="340721" style="fill:#f6f67b"/>
<path d="" class="polyStyle" id="510824" style="fill:#d4ecb2"/>
<path d="" class="polyStyle" id="610324" style="fill:#f6f67b"/>
<path d="" class="polyStyle" id="530722" style="fill:#ee8b94"/>
<path d="" class="polyStyle" id="340823" style="fill:#d4ecb2"/>
<path d="" class="polyStyle" id="620825" style="fill:#d4ecb2"/>
<path d="" class="polyStyle" id="421125" style="fill:#ee8b94"/>
<path d="" class="polyStyle" id="210281" style="fill:#ee8b94"/>
<path d="" class="polyStyle" id="440883" style="fill:#f6f67b"/>
<path d="" class="polyStyle" id="469006" style="fill:#d4ecb2"/>
<path d="" class="polyStyle" id="469002" style="fill:#ee8b94"/>
<path d="" class="polyStyle" id="469005" style="fill:#fbe6ef"/>
<path d="" class="polyStyle" id="440882" style="fill:#ee8b94"/>
<path d="" class="polyStyle" id="450681" style="fill:#ee8b94"/>
<path d="" class="polyStyle" id="441581" style="fill:#d4ecb2"/>
<path d="" class="polyStyle" id="421087" style="fill:#ee8b94"/>
<path d="" class="polyStyle" id="420984" style="fill:#fbe6ef"/>
<path d="" class="polyStyle" id="420582" style="fill:#ee8b94"/>
<path d="" class="polyStyle" id="370282" style="fill:#f6f67b"/>
<path d="" class="polyStyle" id="371083" style="fill:#f6f67b"/>
<path d="" class="polyStyle" id="371082" style="fill:#fbe6ef"/>
<path d="" class="polyStyle" id="652801" style="fill:#f8c67d"/>
<path d="" class="polyStyle" id="654301" style="fill:#ee8b94"/>
<path d="" class="polyStyle" id="370687" style="fill:#ee8b94"/>
<path d="" class="polyStyle" id="371482" style="fill:#d4ecb2"/>
<path d="" class="polyStyle" id="421081" style="fill:#fbe6ef"/>
<path d="" class="polyStyle" id="429006" style="fill:#f6f67b"/>
<path d="" class="polyStyle" id="440982" style="fill:#d4ecb2"/>
<path d="" class="polyStyle" id="421181" style="fill:#d4ecb2"/>
<path d="" class="polyStyle" id="321181" style="fill:#d4ecb2"/>
<path d="" class="polyStyle" id="659007" style="fill:#ee8b94"/>
<path d="" class="polyStyle" id="652701" style="fill:#fbe6ef"/>
<path d="" class="polyStyle" id="210781" style="fill:#fbe6ef"/>
<path d="" class="polyStyle" id="460204" style="fill:#f6f67b"/>
<path d="" class="polyStyle" id="210211" style="fill:#f6f67b"/>
<path d="" class="polyStyle" id="450512" style="fill:#ee8b94"/>
<path d="" class="polyStyle" id="450602" style="fill:#fbe6ef"/>
<path d="" class="polyStyle" id="440404" style="fill:#ee8b94"/>
<path d="" class="polyStyle" id="440403" style="fill:#f6f67b"/>
<path d="" class="polyStyle" id="441502" style="fill:#f6f67b"/>
<path d="" class="polyStyle" id="431002" style="fill:#d4ecb2"/>
<path d="" class="polyStyle" id="500107" style="fill:#fbe6ef"/>
<path d="" class="polyStyle" id="430611" style="fill:#d4ecb2"/>
<path d="" class="polyStyle" id="511304" style="fill:#fbe6ef"/>
<path d="" class="polyStyle" id="340711" style="fill:#ee8b94"/>
<path d="" class="polyStyle" id="320118" style="fill:#f6f67b"/>
<path d="" class="polyStyle" id="510704" style="fill:#f6f67b"/>
<path d="" class="polyStyle" id="411502" style="fill:#ee8b94"/>
<path d="" class="polyStyle" id="320302" style="fill:#d4ecb2"/>
<path d="" class="polyStyle" id="140311" style="fill:#ee8b94"/>
<path d="" class="polyStyle" id="610802" style="fill:#ee8b94"/>
<polygon points="3335,40 3344,42 3463,63 3755,95 3792,199 4043,300 4666,429 4727,281 4830,319 5041,398 5223,465 5403,534 5380,573 5444,612 5452,646 5520,967 5452,1037 5386,1117 5375,1132 5371,1154 5369,1205 5368,1229 5330,1439 5298,1621 5294,1653 5296,1658 5362,1701 5349,1718 5416,1765 5516,1829 5523,1835 5543,1849 5558,1859 5566,1868 5590,1901 5597,1912 5608,1965 5614,2019 5624,2034 5711,2073 5730,2093 5764,2164 5778,2213 5802,2269 5843,2301 5920,2402 5971,2443 5986,2450 5996,2457 5996,2492 6000,2497 6325,2615 6394,2641 6402,2647 6306,2765 6183,2916 6157,2908 5910,2866 5870,3016 5058,3116 5002,3242 4874,3210 4863,3202 4855,3192 4854,3178 4851,3169 4848,3165 4841,3165 4833,3167 4827,3171 4823,3177 4820,3184 4819,3188 4816,3190 4813,3193 4806,3193 4778,3185 4775,3185 4770,3185 4764,3186 4759,3187 4754,3188 4749,3192 4744,3199 4740,3203 4737,3207 4733,3207 4728,3207 4724,3207 4721,3206 4716,3203 4715,3201 4713,3191 4713,3177 4699,3162 4670,3148 4640,3131 4607,3114 4523,3082 4441,3069 4455,3082 4461,3092 4460,3100 4453,3101 4442,3095 4413,3083 4389,3070 4367,3063 4294,3060 4287,3060 4285,3063 4284,3066 4282,3071 4282,3079 4280,3083 4277,3084 4269,3083 4259,3077 4251,3068 4241,3060 4221,3052 4164,3046 3982,3032 3950,3023 3918,3006 3885,2992 3877,2983 3855,2970 3850,2958 3839,2944 3814,2925 3774,2891 3747,2867 3734,2863 3728,2856 3720,2853 3715,2856 3703,2856 3700,2846 3698,2829 3687,2815 3679,2810 3672,2806 3664,2798 3634,2773 3598,2751 3568,2730 3551,2717 3522,2702 3515,2689 3506,2677 3494,2670 3488,2656 3481,2644 3440,2640 3422,2630 3407,2625 3397,2629 3379,2627 3366,2615 3367,2606 3368,2600 3361,2595 3358,2591 3352,2591 3344,2587 3335,2576 3316,2571 3244,2562 3222,2545 3190,2518 3184,2513 3182,2504 3183,2499 3164,2452 3144,2418 3140,2406 3132,2401 3120,2401 3096,2402 3083,2409 3077,2421 3064,2442 3046,2468 3033,2513 3025,2546 3021,2571 3004,2591 2962,2604 2956,2603 2850,2593 2854,2569 2860,2544 2860,2533 2854,2520 2845,2511 2831,2494 2823,2480 2823,2468 2804,2423 2779,2384 2771,2326 2764,2305 2741,2281 2713,2252 2592,2209 2467,2166 2449,2166 2425,2177 2357,2222 2333,2240 2330,2268 2326,2303 2321,2319 2304,2324 2286,2323 2240,2322 2216,2302 2215,2243 2223,2170 2240,2109 2243,2087 2212,2075 2209,2074 2188,2069 2165,2075 2158,2080 2157,2097 2162,2123 2163,2147 2156,2178 2149,2186 2140,2192 2114,2203 2077,2215 2069,2220 2061,2222 2042,2224 2017,2215 1995,2200 1987,2176 1993,2147 2006,2115 2039,2068 2043,2049 2033,2037 1997,2027 1978,2028 1967,2039 1943,2059 1915,2088 1845,2158 1803,2180 1786,2168 1775,2159 1765,2146 1754,2129 1744,2112 1733,2094 1726,2083 1717,2076 1704,2066 1689,2055 1673,2044 1661,2039 1648,2036 1640,2036 1627,2035 1608,2034 1596,2031 1589,2026 1583,2019 1575,2008 1566,1998 1555,1992 1534,1980 1516,1973 1482,1961 1456,1953 1449,1952 1430,1947 1402,1938 1378,1931 1358,1923 1333,1914 1297,1898 1274,1887 1242,1871 1218,1859 1212,1856 1282,1812 1315,1779 1337,1746 1346,1758 1352,1760 1356,1758 1374,1732 1374,1706 1404,1710 1448,1682 1482,1660 1492,1652 1506,1642 1520,1612 1524,1610 1552,1584 1568,1570 1576,1566 1616,1554 1654,1548 1666,1548 1676,1548 1746,1566 1842,1596 1922,1614 1960,1614 2012,1608 2032,1610 2044,1612 2058,1624 2068,1642 2090,1640 2114,1646 2126,1650 2134,1654 2138,1658 2144,1662 2192,1702 2198,1702 2204,1698 2224,1682 2250,1662 2264,1650 2300,1624 2600,1408 3014,936 3028,926 3320,758 3328,752 3684,544 3328,254 3208,156 3050,22 3025,-1 3126,13 " class="polyStyle" id="620302" style="fill:#f8c67d"/>
<path d="" class="polyStyle" id="120116" style="fill:#f6f67b"/>
<path d="" class="polyStyle" id="130303" style="fill:#fbe6ef"/>
<path d="" class="polyStyle" id="140211" style="fill:#f6f67b"/>
<path d="" class="polyStyle" id="150207" style="fill:#fbe6ef"/>
<path d="" class="polyStyle" id="211403" style="fill:#f6f67b"/>
<path d="" class="polyStyle" id="150802" style="fill:#f8c67d"/>
<path d="" class="polyStyle" id="210112" style="fill:#ee8b94"/>
<path d="" class="polyStyle" id="230406" style="fill:#d4ecb2"/>
<path d="" class="polyStyle" id="110113" style="fill:#fbe6ef"/>
<path d="" class="polyStyle" id="341702" style="fill:#fbe6ef"/>
<path d="" class="polyStyle" id="420303" style="fill:#ee8b94"/>
<path d="" class="polyStyle" id="340702" style="fill:#d4ecb2"/>
<path d="" class="polyStyle" id="421002" style="fill:#f6f67b"/>
<path d="" class="polyStyle" id="420117" style="fill:#f6f67b"/>
<path d="" class="polyStyle" id="440904" style="fill:#f8c67d"/>
<path d="" class="polyStyle" id="460205" style="fill:#ee8b94"/>
<path d="" class="polyStyle" id="460202" style="fill:#f6f67b"/>
<path d="" class="polyStyle" id="460203" style="fill:#fbe6ef"/>
<path d="" class="polyStyle" id="420304" style="fill:#f6f67b"/>
<path d="" class="polyStyle" id="445302" style="fill:#ee8b94"/>
<path d="" class="polyStyle" id="410202" style="fill:#d4ecb2"/>
<path d="" class="polyStyle" id="440800" style="fill:#f6f67b"/>
<path d="" class="polyStyle" id="440900" style="fill:#ee8b94"/>
<path d="" class="polyStyle" id="340800" style="fill:#ee8b94"/>
<path d="" class="polyStyle" id="460200" style="fill:#f6f67b"/>
<path d="" class="polyStyle" id="460000" style="fill:#ee8b94"/>
<path d="" class="polyStyle" id="450500" style="fill:#ee8b94"/>
<path d="" class="polyStyle" id="450600" style="fill:#ee8b94"/>
<path d="" class="polyStyle" id="440400" style="fill:#f6f67b"/>
<path d="" class="polyStyle" id="441700" style="fill:#f6f67b"/>
<path d="" class="polyStyle" id="441500" style="fill:#f6f67b"/>
<path d="" class="polyStyle" id="350600" style="fill:#ee8b94"/>
<path d="" class="polyStyle" id="710000" style="fill:#f6f67b"/>
<path d="" class="polyStyle" id="510400" style="fill:#f6f67b"/>
<path d="" class="polyStyle" id="522600" style="fill:#fbe6ef"/>
<path d="" class="polyStyle" id="520500" style="fill:#ee8b94"/>
<path d="" class="polyStyle" id="431200" style="fill:#f6f67b"/>
<path d="" class="polyStyle" id="430600" style="fill:#f6f67b"/>
<path d="" class="polyStyle" id="511400" style="fill:#d4ecb2"/>
<path d="" class="polyStyle" id="421000" style="fill:#ee8b94"/>
<path d="" class="polyStyle" id="341700" style="fill:#f6f67b"/>
<path d="" class="polyStyle" id="420500" style="fill:#f6f67b"/>
<path d="" class="polyStyle" id="511300" style="fill:#f6f67b"/>
<path d="" class="polyStyle" id="420900" style="fill:#f6f67b"/>
<path d="" class="polyStyle" id="511700" style="fill:#ee8b94"/>
<path d="" class="polyStyle" id="420600" style="fill:#d4ecb2"/>
<path d="" class="polyStyle" id="411500" style="fill:#fbe6ef"/>
<path d="" class="polyStyle" id="510800" style="fill:#ee8b94"/>
<path d="" class="polyStyle" id="420300" style="fill:#fbe6ef"/>
<path d="" class="polyStyle" id="611000" style="fill:#ee8b94"/>
<path d="" class="polyStyle" id="620800" style="fill:#fbe6ef"/>
<path d="" class="polyStyle" id="370200" style="fill:#ee8b94"/>
<path d="" class="polyStyle" id="371000" style="fill:#f6f67b"/>
<path d="" class="polyStyle" id="370600" style="fill:#fbe6ef"/>
<path d="" class="polyStyle" id="120000" style="fill:#f6f67b"/>
<path d="" class="polyStyle" id="130200" style="fill:#ee8b94"/>
<path d="" class="polyStyle" id="130300" style="fill:#f6f67b"/>
<path d="" class="polyStyle" id="652900" style="fill:#fbe6ef"/>
<path d="" class="polyStyle" id="150500" style="fill:#d4ecb2"/>
<path d="" class="polyStyle" id="" style="fill:#d4ecb2"/>
<path d="" class="polyStyle" id="350500" style="fill:#fbe6ef"/>
<path d="" class="polyStyle" id="440400" style="fill:#f6f67b"/>
<path d="" class="polyStyle" id="421100" style="fill:#d4ecb2"/>
<path d="" class="polyStyle" id="420100" style="fill:#fbe6ef"/>
<path d="" class="polyStyle" id="532500" style="fill:#fbe6ef"/>
<path d="" class="polyStyle" id="654200" style="fill:#fbe6ef"/>
<path d="" class="polyStyle" id="210700" style="fill:#d4ecb2"/>
<path d="" class="polyStyle" id="522300" style="fill:#fbe6ef"/>
<path d="" class="polyStyle" id="" style="fill:#ee8b94"/>
<path d="" class="polyStyle" id="440400" style="fill:#f6f67b"/>
<path d="" class="polyStyle" id="620000" style="fill:#f6f67b"/>
<path d="" class="polyStyle" id="430000" style="fill:#fbe6ef"/>
<path d="" class="polyStyle" id="420000" style="fill:#ee8b94"/>
<path d="" class="polyStyle" id="410000" style="fill:#f6f67b"/>
<path d="" class="polyStyle" id="350000" style="fill:#fbe6ef"/>
<path d="" class="polyStyle" id="520000" style="fill:#f6f67b"/>
<path d="" class="polyStyle" id="" style="fill:#ee8b94"/>
</svg>
