<?xml version="1.0" encoding="UTF-8"?>
<!DOCTYPE svg PUBLIC "-//W3C//DTD SVG 1.1 Tiny//EN" "http://www.w3.org/Graphics/SVG/1.1/DTD/svg11-tiny.dtd">
<svg version="1.1" xmlns="http://www.w3.org/2000/svg" xmlns:xlink="http://www.w3.org/1999/xlink" width="100%" height="100%" viewBox="0,0,11851,13542">
<title>SVG</title>
<desc>Poligon Test</desc>
<style id="style_css_sheet" type="text/css">
.polyStyle{fill: #cccccc;stroke-width:0;fill-rule:evenodd;}
</style>
<circle cx="6308" cy="4184" r="200" stroke="black" stroke-width="1" fill="red" id="620621" name="民勤县"/>
<circle cx="5327" cy="9993" r="200" stroke="black" stroke-width="1" fill="red" id="620622"position="2222" name="古浪县"/>
<circle cx="6512" cy="12405" r="200" stroke="black" stroke-width="1" fill="red" id="620623"position="4441" name="天祝藏族自治县"/>
<circle cx="4047" cy="7681" r="200" stroke="black" stroke-width="1" fill="red" id="620602" name="凉州区"/>
<path d="" class="polyStyle" id="" style="fill:#ee8b94"/>
<path d="" class="polyStyle" id="623022" style="fill:#fbe6ef"/>
<path d="" class="polyStyle" id="211421" style="fill:#f6f67b"/>
<path d="" class="polyStyle" id="532524" style="fill:#ee8b94"/>
<path d="" class="polyStyle" id="440825" style="fill:#f6f67b"/>
<path d="" class="polyStyle" id="441721" style="fill:#f6f67b"/>
<path d="" class="polyStyle" id="450521" style="fill:#f6f67b"/>
<path d="" class="polyStyle" id="450123" style="fill:#fbe6ef"/>
<path d="" class="polyStyle" id="350624" style="fill:#f6f67b"/>
<path d="" class="polyStyle" id="" style="fill:#fbe6ef"/>
<path d="" class="polyStyle" id="451224" style="fill:#fbe6ef"/>
<path d="" class="polyStyle" id="350627" style="fill:#f6f67b"/>
<path d="" class="polyStyle" id="" style="fill:#f6f67b"/>
<path d="" class="polyStyle" id="350525" style="fill:#f6f67b"/>
<path d="" class="polyStyle" id="530124" style="fill:#ee8b94"/>
<path d="" class="polyStyle" id="522627" style="fill:#ee8b94"/>
<path d="" class="polyStyle" id="510421" style="fill:#fbe6ef"/>
<path d="" class="polyStyle" id="522623" style="fill:#d4ecb2"/>
<path d="" class="polyStyle" id="430321" style="fill:#d4ecb2"/>
<path d="" class="polyStyle" id="511129" style="fill:#d4ecb2"/>
<path d="" class="polyStyle" id="511423" style="fill:#ee8b94"/>
<path d="" class="polyStyle" id="421023" style="fill:#f6f67b"/>
<path d="" class="polyStyle" id="511724" style="fill:#f6f67b"/>
<path d="" class="polyStyle" id="420526" style="fill:#fbe6ef"/>
<path d="" class="polyStyle" id="511923" style="fill:#fbe6ef"/>
<path d="" class="polyStyle" id="420325" style="fill:#fbe6ef"/>
<path d="" class="polyStyle" id="511921" style="fill:#f6f67b"/>
<path d="" class="polyStyle" id="542525" style="fill:#f6f67b"/>
<path d="" class="polyStyle" id="611026" style="fill:#ee8b94"/>
<path d="" class="polyStyle" id="411023" style="fill:#fbe6ef"/>
<path d="" class="polyStyle" id="632323" style="fill:#f6f67b"/>
<path d="" class="polyStyle" id="140525" style="fill:#d4ecb2"/>
<path d="" class="polyStyle" id="410922" style="fill:#ee8b94"/>
<path d="" class="polyStyle" id="621027" style="fill:#ee8b94"/>
<path d="" class="polyStyle" id="130427" style="fill:#f6f67b"/>
<polygon points="2871,7857 2880,7860 2885,7867 2881,7875 2884,7885 2889,7895 2897,7902 2922,7908 2959,7910 2997,7916 3020,7923 3056,7937 3072,7945 3080,7954 3092,7963 3097,7993 3104,8010 3104,8019 3108,8027 3109,8034 3096,8050 3073,8050 3051,8052 3041,8061 3035,8069 3036,8078 3042,8088 3048,8093 3058,8106 3065,8122 3066,8136 3079,8150 3081,8159 3090,8165 3095,8171 3096,8185 3108,8197 3112,8219 3118,8231 3122,8249 3122,8257 3113,8270 3091,8280 3067,8282 3053,8286 3032,8297 3013,8313 2997,8323 2987,8333 2984,8339 2983,8349 2995,8346 3006,8337 3020,8330 3031,8319 3055,8301 3066,8295 3074,8295 3082,8301 3086,8323 3090,8330 3092,8340 3090,8351 3082,8363 3082,8372 3091,8375 3101,8375 3110,8377 3119,8382 3136,8385 3143,8395 3147,8408 3146,8424 3138,8434 3144,8442 3179,8471 3181,8477 3175,8484 3179,8504 3165,8516 3151,8534 3126,8544 3118,8550 3111,8560 3115,8568 3121,8574 3145,8572 3151,8581 3149,8605 3155,8610 3175,8621 3186,8630 3199,8634 3206,8639 3224,8647 3233,8636 3245,8627 3283,8603 3325,8585 3360,8577 3375,8569 3384,8570 3388,8584 3392,8590 3393,8610 3391,8627 3382,8653 3376,8665 3421,8687 3431,8688 3440,8695 3442,8714 3444,8721 3449,8728 3459,8724 3465,8719 3482,8712 3494,8702 3508,8696 3520,8695 3528,8697 3537,8702 3542,8708 3555,8715 3567,8748 3576,8756 3584,8760 3591,8769 3590,8776 3570,8788 3565,8799 3549,8815 3539,8822 3530,8835 3531,8843 3536,8849 3556,8854 3562,8860 3563,8869 3559,8884 3560,8890 3567,8895 3577,8891 3591,8888 3608,8887 3632,8890 3641,8894 3642,8898 3629,8907 3618,8919 3604,8928 3578,8933 3562,8939 3556,8944 3557,8950 3564,8955 3570,8957 3576,8962 3576,8967 3566,8976 3556,8982 3540,9006 3540,9016 3549,9024 3567,9026 3606,9025 3638,9016 3649,9008 3665,8990 3668,8968 3677,8961 3687,8961 3703,8974 3712,8971 3727,8954 3742,8948 3760,8945 3768,8942 3773,8930 3772,8915 3779,8905 3780,8899 3784,8892 3792,8885 3800,8886 3805,8896 3813,8902 3830,8900 3857,8886 3865,8887 3866,8906 3873,8913 3898,8915 3911,8918 3941,8915 3952,8922 3959,8929 3962,8936 3962,8950 3969,8961 3992,8982 3998,8992 4002,9014 4014,9023 4028,9042 4032,9060 4031,9068 4028,9074 4030,9080 4046,9081 4094,9072 4116,9063 4125,9063 4148,9081 4159,9098 4173,9114 4192,9128 4207,9133 4218,9143 4245,9180 4245,9188 4237,9198 4232,9213 4232,9219 4236,9230 4237,9238 4231,9260 4224,9270 4226,9278 4230,9285 4225,9291 4195,9299 4187,9306 4179,9309 4163,9302 4154,9305 4135,9319 4119,9337 4110,9352 4105,9368 4106,9395 4109,9415 4119,9433 4146,9472 4148,9478 4136,9484 4129,9485 4092,9511 4078,9517 4066,9520 4057,9526 4053,9550 4049,9557 4039,9555 3988,9528 3976,9526 3925,9531 3922,9523 3917,9516 3904,9507 3888,9505 3857,9516 3826,9545 3801,9571 3793,9577 3753,9592 3711,9599 3689,9599 3654,9574 3653,9561 3637,9533 3630,9530 3608,9528 3586,9536 3573,9548 3570,9563 3578,9584 3589,9599 3608,9605 3642,9606 3663,9622 3669,9629 3670,9654 3696,9705 3701,9722 3697,9738 3690,9748 3684,9754 3676,9759 3675,9775 3684,9805 3689,9828 3699,9834 3709,9832 3718,9835 3746,9865 3772,9890 3780,9903 3795,9918 3808,9925 3816,9935 3814,9957 3812,9964 3804,9978 3803,9988 3811,9997 3794,10000 3778,10011 3764,10026 3753,10033 3752,10039 3763,10052 3793,10081 3799,10082 3809,10080 3817,10071 3831,10047 3832,10034 3845,10012 3859,10006 3870,10018 3880,10037 3905,10102 3932,10126 3952,10154 3969,10163 4005,10174 4055,10179 4104,10192 4113,10196 4121,10220 4122,10231 4100,10248 4084,10256 4080,10268 4097,10291 4110,10300 4112,10312 4111,10322 4114,10340 4120,10353 4132,10357 4151,10343 4165,10340 4187,10347 4216,10368 4223,10364 4234,10339 4214,10319 4211,10310 4210,10300 4211,10284 4214,10277 4221,10270 4228,10268 4237,10270 4243,10275 4247,10284 4247,10300 4277,10285 4327,10271 4411,10234 4439,10217 4449,10214 4462,10222 4467,10230 4466,10253 4468,10264 4472,10274 4486,10288 4494,10309 4498,10315 4506,10325 4495,10329 4480,10345 4463,10369 4453,10399 4446,10407 4445,10416 4450,10429 4456,10436 4456,10443 4450,10447 4449,10454 4479,10452 4484,10445 4499,10430 4525,10413 4534,10409 4539,10417 4539,10430 4542,10442 4554,10460 4562,10458 4563,10449 4571,10441 4577,10437 4586,10435 4604,10434 4613,10442 4635,10452 4646,10455 4663,10453 4673,10449 4690,10446 4704,10441 4710,10437 4746,10438 4773,10447 4816,10446 4825,10443 4829,10437 4843,10429 4853,10419 4859,10408 4887,10406 4929,10391 4945,10389 4969,10390 4987,10398 4997,10399 5067,10392 5075,10393 5073,10399 5059,10406 5063,10418 5070,10422 5076,10430 5076,10444 5057,10449 5048,10455 5043,10466 5027,10475 5002,10484 4990,10494 4986,10503 4986,10509 4980,10523 4980,10537 4972,10564 4957,10567 4929,10569 4885,10585 4868,10598 4860,10609 4843,10639 4797,10665 4789,10672 4784,10684 4784,10694 4788,10701 4803,10716 4818,10716 4839,10712 4856,10712 4865,10717 4875,10717 4889,10716 4899,10711 4903,10705 4941,10684 4979,10674 5003,10673 5032,10685 5056,10685 5061,10691 5057,10705 5057,10711 5063,10718 5079,10726 5084,10733 5087,10770 5084,10785 5087,10792 5083,10799 5083,10808 5094,10813 5101,10823 5101,10841 5124,10848 5127,10854 5127,10860 5125,10869 5121,10877 5131,10891 5136,10907 5144,10912 5154,10926 5170,10927 5183,10931 5190,10939 5192,10946 5204,10962 5217,10969 5235,10986 5242,11000 5244,11026 5250,11032 5277,11042 5290,11050 5299,11059 5309,11066 5328,11066 5333,11050 5355,11031 5361,11021 5380,10971 5388,10964 5406,10957 5423,10957 5462,10953 5487,10954 5501,10939 5507,10936 5514,10941 5522,10954 5578,10956 5588,10958 5596,10964 5606,10975 5612,10978 5623,10980 5649,10980 5656,10973 5660,10965 5653,10947 5654,10941 5651,10931 5642,10926 5635,10919 5633,10909 5635,10901 5633,10895 5621,10889 5615,10882 5607,10876 5596,10874 5584,10874 5567,10870 5559,10865 5553,10864 5549,10857 5546,10847 5546,10835 5539,10822 5525,10819 5518,10813 5499,10787 5499,10780 5503,10774 5500,10761 5503,10750 5511,10745 5518,10738 5520,10732 5526,10727 5538,10723 5525,10711 5514,10695 5515,10683 5518,10675 5524,10670 5531,10668 5547,10667 5563,10668 5577,10675 5575,10685 5575,10701 5593,10700 5601,10698 5610,10693 5618,10685 5626,10673 5635,10668 5653,10665 5659,10665 5673,10669 5683,10667 5688,10661 5687,10647 5689,10640 5688,10627 5690,10621 5708,10616 5722,10607 5731,10599 5737,10599 5756,10609 5773,10605 5798,10603 5807,10599 5814,10599 5822,10602 5834,10610 5840,10611 5861,10603 5870,10604 5885,10612 5905,10638 5914,10643 5930,10650 5939,10652 5965,10652 5966,10646 5961,10638 5946,10623 5942,10617 5944,10611 5952,10601 5974,10588 5991,10589 6046,10588 6073,10599 6114,10606 6123,10606 6152,10597 6159,10590 6175,10586 6200,10593 6205,10600 6208,10608 6217,10614 6225,10616 6237,10624 6241,10633 6257,10640 6263,10648 6273,10649 6308,10644 6315,10645 6343,10655 6360,10651 6384,10650 6404,10637 6418,10625 6422,10619 6429,10618 6444,10599 6463,10584 6473,10578 6492,10571 6497,10564 6527,10550 6532,10543 6526,10537 6510,10532 6513,10525 6528,10510 6579,10476 6602,10466 6646,10462 6685,10456 6715,10449 6727,10450 6753,10437 6809,10430 6816,10436 6823,10446 6831,10451 6877,10490 6884,10505 6890,10509 6905,10504 6916,10507 6923,10512 6942,10527 6971,10568 7028,10606 7039,10618 7050,10626 7073,10638 7097,10643 7106,10650 7122,10647 7153,10656 7177,10656 7187,10658 7185,10664 7179,10671 7176,10678 7177,10706 7169,10715 7165,10718 7161,10719 7145,10720 7132,10725 7118,10734 7109,10750 7109,10753 7109,10765 7106,10774 7099,10785 7096,10793 7093,10798 7091,10804 7081,10824 7069,10833 7070,10841 7094,10849 7115,10852 7125,10855 7136,10862 7147,10882 7170,10914 7175,10924 7190,10943 7197,10948 7226,10961 7245,10972 7255,10981 7262,10979 7263,10971 7280,10965 7294,10964 7304,10966 7331,10981 7338,10994 7370,11022 7398,11030 7445,11027 7453,11021 7457,11009 7465,11008 7473,11012 7492,11029 7502,11033 7513,11033 7528,11028 7554,11031 7575,11043 7584,11044 7590,11048 7602,11061 7624,11059 7636,11061 7663,11074 7669,11074 7690,11068 7706,11074 7708,11084 7707,11112 7709,11132 7720,11154 7725,11175 7741,11195 7761,11206 7768,11225 7786,11243 7803,11254 7812,11262 7831,11268 7851,11262 7903,11272 7913,11272 7923,11269 7931,11271 7981,11271 8002,11274 8023,11281 8038,11281 8047,11285 8060,11281 8081,11257 8094,11253 8102,11244 8120,11252 8133,11275 8144,11289 8150,11292 8159,11293 8165,11299 8170,11307 8204,11301 8217,11305 8220,11321 8219,11327 8213,11332 8201,11336 8192,11343 8190,11356 8215,11378 8228,11395 8246,11409 8250,11415 8264,11415 8277,11409 8284,11414 8291,11413 8298,11407 8306,11397 8306,11391 8301,11384 8302,11366 8300,11360 8300,11341 8304,11334 8311,11330 8326,11330 8334,11332 8358,11352 8387,11352 8434,11340 8468,11334 8481,11339 8487,11346 8503,11356 8526,11386 8547,11399 8553,11414 8546,11437 8527,11472 8498,11489 8483,11502 8463,11523 8463,11536 8472,11556 8470,11566 8470,11578 8482,11594 8494,11600 8519,11609 8552,11618 8587,11616 8666,11635 8691,11638 8802,11647 8819,11633 8828,11630 8839,11631 8859,11636 8875,11642 8897,11657 8911,11663 8930,11665 8940,11670 8946,11680 8953,11678 8951,11685 8989,11707 8999,11721 9015,11739 9017,11750 9014,11788 9006,11832 9013,11854 9018,11880 9014,11901 8993,11927 8971,11937 8947,11954 8936,11987 8929,11987 8890,11969 8837,11953 8811,11954 8796,11961 8775,11992 8750,12066 8735,12088 8719,12105 8699,12121 8676,12147 8667,12154 8641,12168 8636,12175 8639,12184 8646,12188 8654,12191 8663,12191 8674,12194 8704,12237 8748,12292 8745,12306 8739,12315 8735,12328 8734,12355 8736,12361 8736,12371 8730,12378 8716,12385 8713,12392 8713,12398 8704,12414 8687,12427 8684,12433 8672,12431 8664,12435 8657,12434 8649,12433 8642,12432 8621,12432 8605,12433 8591,12436 8569,12441 8560,12443 8553,12446 8543,12452 8536,12453 8529,12451 8522,12450 8507,12450 8500,12451 8494,12454 8488,12454 8482,12455 8476,12457 8468,12464 8461,12464 8454,12466 8448,12467 8442,12468 8436,12475 8430,12478 8424,12479 8414,12485 8408,12495 8401,12493 8395,12488 8380,12488 8376,12494 8370,12491 8364,12495 8354,12489 8353,12496 8353,12502 8346,12502 8343,12493 8331,12488 8316,12484 8299,12478 8279,12477 8260,12473 8245,12467 8235,12461 8221,12457 8214,12452 8210,12445 8201,12440 8194,12443 8179,12443 8167,12435 8148,12413 8139,12407 8126,12402 8107,12399 8092,12396 8084,12391 8080,12385 8078,12363 8072,12354 8062,12346 8057,12339 8054,12333 8044,12326 8024,12320 7975,12314 7922,12312 7864,12310 7820,12312 7758,12313 7695,12318 7639,12322 7566,12339 7463,12365 7446,12369 7428,12372 7427,12384 7427,12408 7424,12422 7417,12451 7417,12475 7410,12488 7408,12497 7404,12503 7397,12507 7391,12511 7380,12514 7380,12523 7384,12535 7386,12550 7394,12558 7404,12561 7414,12564 7422,12566 7435,12570 7455,12570 7465,12576 7473,12585 7479,12581 7480,12575 7482,12566 7481,12557 7482,12551 7492,12536 7499,12522 7506,12515 7534,12508 7547,12507 7561,12507 7573,12509 7582,12514 7587,12522 7590,12529 7593,12545 7591,12553 7587,12561 7587,12621 7593,12627 7595,12633 7590,12641 7590,12657 7588,12663 7584,12669 7587,12675 7595,12681 7604,12686 7616,12688 7630,12702 7635,12709 7636,12720 7637,12726 7642,12732 7656,12740 7672,12750 7678,12757 7683,12767 7689,12769 7697,12770 7709,12764 7710,12758 7713,12747 7718,12738 7727,12732 7740,12726 7743,12716 7749,12710 7763,12705 7771,12711 7780,12712 7789,12710 7807,12705 7835,12698 7866,12690 7879,12684 7872,12680 7860,12666 7860,12659 7863,12653 7872,12647 7889,12640 7897,12644 7911,12648 7921,12650 7930,12651 7943,12649 7951,12631 7963,12629 7973,12626 7989,12619 7990,12611 7985,12598 7987,12592 7999,12591 8003,12585 8003,12579 8008,12573 8015,12570 8023,12565 8033,12557 8041,12554 8049,12553 8060,12557 8070,12563 8076,12570 8075,12592 8079,12604 8086,12611 8092,12612 8118,12623 8126,12626 8132,12619 8138,12620 8147,12619 8156,12612 8164,12606 8171,12605 8177,12606 8184,12606 8193,12609 8197,12618 8204,12617 8212,12618 8217,12611 8229,12605 8235,12605 8244,12609 8249,12617 8249,12623 8251,12629 8258,12633 8266,12637 8271,12645 8279,12652 8285,12656 8294,12662 8296,12671 8298,12680 8304,12683 8307,12691 8304,12717 8304,12731 8306,12740 8312,12746 8319,12748 8328,12746 8332,12739 8334,12733 8342,12738 8343,12760 8344,12778 8347,12796 8347,12811 8348,12821 8352,12829 8361,12826 8367,12822 8373,12818 8381,12814 8387,12813 8395,12810 8404,12804 8411,12804 8418,12797 8424,12797 8431,12795 8437,12792 8445,12795 8453,12809 8466,12826 8472,12833 8478,12835 8486,12837 8498,12847 8506,12848 8505,12854 8507,12863 8508,12870 8515,12872 8522,12875 8527,12885 8533,12890 8539,12887 8546,12891 8549,12899 8551,12910 8549,12916 8542,12922 8537,12933 8523,12952 8525,12961 8528,12968 8523,12974 8516,12980 8515,12986 8511,12992 8504,12999 8495,13005 8488,13007 8484,13014 8478,13022 8472,13024 8464,13025 8457,13026 8453,13033 8446,13045 8439,13053 8433,13055 8425,13050 8419,13047 8414,13041 8408,13033 8399,13033 8392,13027 8386,13022 8379,13018 8373,13015 8363,13012 8353,13011 8345,13010 8342,13004 8334,13002 8328,12996 8319,12989 8313,12985 8307,12981 8302,12975 8296,12974 8296,12967 8288,12961 8278,12957 8277,12963 8271,12975 8265,12974 8259,12970 8255,12963 8251,12957 8245,12954 8238,12954 8230,12951 8218,12942 8213,12936 8207,12934 8200,12939 8194,12941 8188,12946 8191,12952 8202,12964 8204,12981 8205,12996 8200,13009 8190,13023 8184,13033 8178,13041 8169,13051 8159,13058 8133,13079 8117,13099 8111,13108 8108,13122 8107,13134 8103,13143 8095,13149 8077,13153 8055,13157 8045,13155 8037,13153 8028,13154 8013,13158 7984,13163 7959,13163 7946,13166 7932,13167 7921,13162 7908,13160 7897,13160 7881,13171 7867,13175 7851,13176 7836,13175 7828,13171 7820,13162 7811,13153 7800,13146 7790,13139 7784,13132 7780,13124 7779,13111 7780,13105 7777,13097 7770,13089 7764,13084 7756,13074 7752,13065 7749,13057 7743,13050 7731,13039 7728,13033 7733,13027 7742,13022 7742,13014 7744,12989 7743,12966 7742,12946 7749,12935 7753,12926 7751,12919 7743,12911 7732,12908 7715,12908 7706,12906 7701,12898 7703,12889 7709,12881 7703,12880 7697,12874 7694,12862 7686,12858 7679,12863 7670,12858 7663,12851 7657,12847 7651,12848 7644,12850 7637,12847 7631,12847 7623,12849 7615,12850 7607,12848 7608,12840 7594,12834 7584,12826 7586,12815 7589,12791 7588,12760 7590,12751 7585,12744 7583,12738 7581,12728 7577,12722 7570,12724 7563,12731 7554,12729 7551,12723 7545,12729 7537,12726 7529,12722 7523,12720 7515,12719 7504,12723 7502,12732 7496,12733 7485,12731 7479,12736 7473,12740 7466,12744 7461,12752 7454,12754 7446,12750 7440,12749 7434,12750 7428,12754 7423,12762 7416,12771 7408,12770 7402,12762 7392,12754 7384,12747 7370,12745 7357,12742 7349,12741 7336,12751 7322,12758 7311,12761 7304,12762 7297,12765 7291,12759 7290,12753 7287,12740 7274,12735 7265,12733 7254,12730 7248,12729 7240,12740 7232,12747 7224,12744 7218,12742 7212,12740 7206,12742 7198,12744 7192,12747 7185,12752 7180,12762 7172,12765 7160,12762 7143,12756 7128,12748 7116,12738 7104,12732 7089,12728 7083,12722 7084,12715 7088,12705 7096,12674 7106,12665 7128,12650 7158,12626 7177,12604 7190,12585 7203,12565 7210,12557 7214,12545 7221,12544 7230,12540 7224,12535 7201,12526 7180,12521 7151,12512 7134,12512 7113,12523 7098,12533 7068,12557 7049,12569 7041,12572 7026,12576 7011,12576 7001,12575 6993,12575 6996,12581 7000,12587 7001,12593 6995,12601 6996,12612 6995,12620 6987,12619 6980,12623 6974,12628 6967,12628 6960,12626 6953,12620 6948,12614 6942,12610 6936,12612 6929,12612 6918,12605 6911,12605 6889,12604 6879,12602 6870,12594 6860,12591 6863,12611 6863,12623 6866,12630 6868,12642 6863,12649 6850,12656 6829,12658 6815,12658 6785,12661 6761,12662 6752,12660 6738,12653 6727,12640 6725,12625 6728,12612 6740,12587 6744,12572 6737,12568 6720,12564 6706,12564 6691,12565 6682,12566 6665,12567 6650,12557 6638,12550 6611,12550 6587,12549 6580,12551 6574,12573 6566,12575 6560,12572 6547,12565 6526,12557 6503,12551 6486,12547 6459,12547 6442,12546 6430,12550 6423,12551 6414,12550 6407,12549 6397,12546 6391,12552 6381,12561 6371,12566 6359,12570 6350,12569 6329,12565 6309,12564 6298,12568 6288,12573 6274,12579 6256,12581 6245,12581 6230,12579 6222,12580 6215,12580 6211,12574 6205,12563 6198,12548 6198,12542 6199,12536 6201,12524 6194,12514 6183,12508 6176,12518 6170,12525 6161,12526 6151,12530 6143,12530 6134,12525 6125,12526 6118,12529 6111,12533 6104,12536 6093,12540 6084,12539 6071,12539 6059,12534 6047,12528 6038,12530 6029,12536 6015,12536 6003,12537 5977,12545 5962,12550 5937,12555 5919,12557 5905,12561 5886,12567 5866,12570 5841,12569 5830,12570 5824,12570 5815,12568 5787,12572 5767,12571 5746,12566 5733,12564 5724,12565 5715,12571 5704,12578 5693,12585 5674,12589 5671,12599 5671,12618 5655,12636 5649,12646 5632,12657 5620,12660 5613,12658 5601,12655 5587,12654 5575,12654 5569,12653 5563,12650 5556,12646 5549,12645 5538,12649 5531,12644 5520,12640 5505,12639 5496,12638 5482,12636 5468,12632 5451,12627 5444,12627 5433,12631 5427,12633 5420,12636 5414,12640 5405,12646 5400,12654 5398,12660 5392,12663 5386,12667 5380,12668 5371,12675 5371,12682 5365,12692 5359,12703 5359,12712 5355,12719 5349,12723 5342,12727 5332,12735 5317,12743 5310,12749 5304,12752 5296,12754 5286,12760 5277,12766 5270,12773 5269,12780 5268,12786 5261,12792 5264,12800 5270,12806 5276,12809 5284,12817 5300,12825 5306,12832 5309,12838 5308,12848 5306,12858 5312,12861 5319,12867 5325,12871 5331,12874 5343,12881 5346,12888 5349,12897 5358,12904 5360,12914 5354,12919 5339,12929 5334,12935 5332,12941 5338,12947 5341,12953 5346,12961 5356,12971 5356,12980 5349,12983 5343,12984 5335,12988 5327,12994 5319,12997 5307,12995 5301,12994 5295,12994 5289,12995 5276,12999 5268,13003 5261,13008 5248,13015 5241,13019 5235,13026 5230,13035 5231,13042 5230,13051 5230,13057 5228,13064 5224,13071 5218,13072 5211,13072 5200,13075 5196,13082 5199,13088 5199,13095 5191,13102 5181,13105 5172,13105 5164,13107 5159,13114 5152,13115 5145,13116 5138,13114 5131,13114 5127,13121 5118,13123 5110,13122 5102,13123 5093,13119 5087,13109 5083,13103 5077,13096 5067,13082 5059,13080 5053,13087 5046,13088 5036,13080 5026,13079 5016,13083 5003,13085 4991,13082 4982,13075 4973,13081 4963,13081 4954,13078 4936,13077 4928,13079 4921,13084 4915,13089 4906,13091 4899,13095 4898,13102 4902,13109 4908,13121 4915,13127 4925,13133 4934,13143 4940,13147 4949,13156 4953,13164 4961,13169 4969,13174 4975,13178 4982,13181 4988,13182 4999,13182 5008,13185 5015,13193 5024,13195 5030,13197 5042,13205 5046,13211 5058,13221 5060,13228 5061,13236 5064,13242 5073,13253 5077,13261 5073,13267 5067,13270 5061,13268 5053,13274 5046,13274 5039,13269 5031,13268 5019,13265 5011,13271 5009,13286 5008,13293 4999,13295 4966,13319 4959,13330 4958,13337 4963,13348 4970,13350 4977,13353 4991,13355 5001,13351 5008,13349 5018,13348 5025,13352 5033,13360 5043,13369 5052,13376 5058,13385 5060,13401 5060,13412 5061,13421 5060,13431 5058,13438 5051,13448 5046,13457 5008,13495 4986,13495 4976,13493 4967,13493 4955,13501 4949,13502 4942,13502 4935,13501 4913,13490 4908,13484 4901,13472 4896,13459 4890,13452 4887,13446 4883,13436 4876,13432 4866,13434 4858,13441 4853,13452 4846,13456 4836,13457 4828,13456 4819,13457 4805,13462 4792,13467 4781,13469 4773,13474 4766,13481 4757,13492 4749,13494 4740,13494 4729,13488 4722,13476 4700,13471 4676,13471 4668,13472 4659,13475 4652,13476 4637,13476 4623,13474 4608,13473 4601,13475 4592,13479 4586,13482 4577,13483 4564,13485 4553,13489 4549,13495 4541,13499 4528,13510 4518,13516 4510,13523 4505,13532 4497,13541 4483,13542 4475,13539 4473,13532 4475,13526 4483,13524 4494,13522 4501,13519 4504,13513 4506,13505 4507,13498 4506,13492 4494,13485 4484,13471 4477,13458 4462,13451 4456,13451 4442,13447 4436,13443 4432,13437 4424,13420 4418,13412 4400,13402 4393,13397 4380,13385 4374,13368 4365,13357 4364,13351 4365,13340 4361,13334 4354,13329 4340,13320 4328,13308 4323,13305 4314,13299 4300,13293 4286,13282 4280,13271 4280,13265 4278,13260 4272,13254 4265,13255 4251,13263 4241,13268 4233,13260 4231,13255 4217,13233 4205,13221 4194,13210 4190,13199 4191,13193 4192,13182 4186,13180 4178,13181 4164,13184 4157,13184 4150,13186 4143,13184 4141,13178 4145,13161 4142,13156 4128,13147 4114,13141 4100,13135 4092,13133 4089,13123 4091,13117 4096,13112 4098,13106 4085,13095 4078,13091 4068,13082 4063,13071 4047,13043 4034,13033 4027,13034 4012,13041 3998,13047 3991,13047 3984,13044 3982,13038 3982,13032 3984,13027 3984,13017 3979,13010 3965,13002 3958,13001 3952,13002 3938,13001 3931,12997 3926,12986 3919,12982 3905,12976 3891,12972 3877,12969 3863,12968 3849,12964 3842,12961 3828,12950 3821,12946 3814,12947 3807,12951 3793,12955 3786,12954 3780,12948 3777,12941 3770,12926 3761,12915 3748,12909 3735,12905 3728,12900 3712,12883 3705,12872 3699,12855 3695,12843 3692,12832 3688,12821 3683,12815 3662,12799 3657,12794 3656,12788 3656,12777 3659,12766 3665,12754 3669,12743 3669,12732 3666,12721 3662,12715 3656,12710 3642,12705 3635,12705 3621,12699 3616,12693 3609,12689 3602,12688 3574,12685 3560,12681 3546,12675 3532,12670 3504,12666 3490,12666 3483,12663 3476,12657 3471,12651 3464,12640 3464,12629 3467,12623 3469,12612 3462,12604 3444,12598 3432,12600 3411,12606 3404,12606 3390,12603 3376,12598 3362,12593 3348,12582 3341,12571 3341,12562 3343,12539 3338,12527 3333,12522 3326,12519 3317,12519 3312,12524 3298,12529 3284,12532 3263,12532 3242,12519 3228,12514 3221,12515 3192,12524 3178,12524 3164,12517 3157,12511 3145,12500 3134,12483 3122,12473 3128,12460 3168,12444 3188,12412 3196,12372 3212,12342 3240,12318 3264,12302 3346,12232 3382,12210 3386,12202 3342,12108 3334,12084 3336,12058 3344,12042 3344,12028 3338,12012 3316,11994 3304,11962 3302,11932 3302,11920 3303,11914 3308,11892 3348,11854 3396,11842 3402,11840 3470,11856 3528,11864 3556,11832 3610,11830 3720,11816 3764,11800 3782,11783 3786,11784 3800,11789 3814,11791 3835,11788 3849,11784 3863,11783 3905,11783 3933,11788 3968,11788 3975,11790 3990,11794 4004,11795 4018,11797 4046,11805 4051,11809 4058,11809 4065,11811 4069,11810 4070,11802 4070,11798 4070,11792 4064,11756 4062,11738 4058,11728 4002,11676 3932,11556 3898,11488 3876,11446 3870,11438 3860,11432 3850,11432 3844,11432 3790,11446 3778,11442 3760,11442 3750,11440 3660,11346 3656,11342 3578,11284 3522,11248 3474,11222 3434,11212 3368,11208 3322,11194 3278,11152 3140,11028 3122,11000 3086,10948 3028,10896 2960,10844 2954,10834 2952,10824 2970,10800 2988,10766 2952,10744 2864,10710 2846,10700 2588,10602 2418,10506 2406,10498 2374,10474 2356,10450 2350,10430 2352,10372 2330,10348 2298,10340 2246,10342 2196,10338 2140,10286 2094,10248 2016,10234 1892,10214 1846,10208 1810,10190 1792,10156 1760,10060 1726,10006 1694,9986 1666,9974 1544,9912 1528,9906 1508,9900 1434,9894 1384,9904 1366,9870 1364,9842 1422,9776 1446,9712 1446,9650 1450,9640 1462,9624 1486,9610 1508,9580 1494,9558 1478,9542 1408,9492 1380,9410 1364,9396 1331,9390 1274,9400 1266,9398 1256,9402 1212,9372 1194,9338 1178,9290 1164,9268 1132,9250 1072,9226 1042,9194 1036,9160 1088,9104 1116,9048 1110,9024 1098,9004 1085,8998 1085,8989 1086,8983 1100,8957 1111,8933 1112,8917 1109,8907 1109,8900 1108,8895 1111,8888 1115,8887 1122,8886 1127,8885 1136,8884 1144,8882 1149,8881 1153,8878 1155,8875 1156,8871 1155,8866 1155,8863 1155,8857 1158,8854 1166,8849 1174,8849 1179,8850 1183,8852 1187,8854 1192,8855 1195,8857 1198,8858 1203,8861 1206,8862 1212,8863 1216,8863 1219,8863 1222,8861 1228,8854 1238,8843 1239,8840 1239,8836 1235,8831 1233,8826 1232,8820 1233,8816 1235,8812 1238,8809 1240,8800 1240,8797 1238,8794 1236,8791 1232,8783 1231,8777 1231,8771 1233,8769 1236,8767 1239,8764 1239,8761 1239,8758 1243,8758 1247,8759 1250,8758 1253,8758 1257,8758 1271,8754 1278,8752 1281,8749 1277,8746 1275,8743 1273,8736 1269,8720 1266,8704 1265,8688 1265,8677 1269,8671 1274,8665 1280,8660 1287,8654 1295,8645 1298,8640 1301,8636 1300,8632 1301,8629 1301,8624 1304,8621 1306,8619 1306,8615 1307,8612 1310,8611 1316,8608 1321,8605 1322,8602 1326,8599 1334,8594 1338,8592 1342,8589 1345,8588 1348,8586 1356,8585 1359,8585 1366,8584 1368,8583 1373,8580 1376,8576 1381,8571 1386,8568 1388,8565 1390,8561 1392,8559 1394,8555 1397,8551 1400,8548 1401,8544 1403,8540 1402,8536 1401,8532 1402,8529 1403,8525 1405,8523 1411,8516 1414,8512 1419,8508 1424,8506 1433,8502 1437,8501 1447,8501 1455,8500 1462,8499 1466,8497 1471,8495 1474,8493 1480,8488 1485,8485 1489,8482 1490,8478 1487,8470 1486,8464 1487,8460 1487,8456 1484,8454 1481,8450 1480,8444 1476,8439 1472,8436 1477,8431 1480,8426 1486,8420 1491,8416 1494,8416 1497,8416 1502,8415 1508,8413 1514,8410 1517,8410 1520,8412 1524,8413 1527,8415 1531,8416 1538,8416 1542,8414 1552,8399 1582,8350 1606,8308 1608,8301 1618,8294 1629,8283 1635,8277 1636,8274 1636,8265 1636,8256 1637,8250 1638,8246 1641,8243 1649,8238 1653,8235 1657,8232 1661,8229 1666,8230 1670,8229 1675,8226 1679,8221 1682,8215 1685,8209 1691,8206 1707,8201 1720,8197 1732,8191 1757,8177 1774,8168 1784,8164 1788,8161 1792,8157 1797,8152 1800,8148 1803,8147 1807,8145 1817,8145 1825,8147 1832,8147 1842,8148 1848,8147 1849,8143 1849,8138 1851,8132 1848,8116 1849,8103 1851,8097 1856,8085 1861,8078 1863,8074 1865,8069 1866,8058 1868,8045 1869,8034 1870,8030 1873,8026 1874,8020 1880,8019 1885,8026 1894,8057 1901,8062 1909,8064 1922,8072 1962,8073 1970,8067 1972,8057 1978,8050 1990,8049 1997,8041 2023,7999 2047,7992 2080,7988 2130,7990 2138,7987 2143,7970 2150,7967 2204,7969 2214,7971 2220,7976 2226,7978 2238,7974 2259,7964 2276,7960 2369,7951 2382,7951 2399,7955 2411,7955 2425,7951 2442,7937 2455,7921 2463,7920 2481,7928 2490,7930 2502,7931 2511,7926 2517,7926 2524,7930 2550,7936 2574,7952 2577,7964 2586,7971 2607,7970 2610,7958 2618,7943 2619,7930 2622,7923 2635,7919 2647,7918 2658,7915 2674,7904 2697,7899 2703,7895 2718,7889 2761,7874 2777,7871 2780,7861 2797,7843 2814,7836 2833,7833 2865,7857 " class="polyStyle" id="620623" style="fill:#f6f67b"/>
<polygon points="7822,7974 7830,7994 7832,8001 7850,8000 7870,8002 7900,8010 9212,8380 10040,9066 10174,9253 10050,9146 9925,9258 9874,9307 9853,9313 9846,9319 9832,9336 9818,9343 9794,9350 9784,9361 9777,9371 9770,9392 9749,9423 9735,9464 9698,9505 9673,9547 9658,9583 9632,9620 9624,9658 9623,9716 9642,9729 9661,9733 9666,9739 9672,9757 9675,9786 9679,9795 9685,9804 9692,9809 9716,9821 9732,9844 9740,9851 9746,9861 9738,9875 9714,9954 9700,9973 9676,10020 9667,10045 9658,10061 9661,10074 9669,10084 9686,10126 9692,10149 9688,10167 9680,10179 9670,10179 9639,10166 9620,10164 9609,10171 9597,10176 9587,10185 9576,10198 9557,10248 9537,10290 9513,10320 9505,10333 9503,10346 9511,10358 9515,10368 9514,10383 9511,10393 9512,10402 9521,10415 9545,10422 9596,10443 9613,10457 9631,10468 9661,10491 9671,10497 9677,10503 9689,10522 9692,10531 9673,10557 9665,10585 9660,10595 9660,10604 9664,10611 9691,10627 9707,10646 9721,10657 9727,10667 9727,10676 9711,10686 9703,10696 9695,10712 9692,10730 9673,10781 9667,10796 9662,10802 9649,10802 9645,10795 9637,10762 9632,10753 9620,10749 9604,10752 9587,10761 9580,10769 9580,10781 9585,10792 9594,10799 9606,10805 9615,10813 9619,10823 9625,10832 9634,10866 9632,10882 9629,10888 9628,10905 9630,10919 9626,10925 9616,10929 9604,10924 9596,10916 9577,10891 9558,10888 9547,10892 9528,10908 9516,10932 9506,10959 9466,10988 9457,10999 9456,11012 9463,11021 9480,11030 9498,11051 9509,11057 9550,11067 9568,11074 9574,11084 9573,11092 9538,11116 9530,11127 9518,11137 9485,11154 9467,11159 9455,11157 9436,11148 9427,11147 9417,11150 9408,11155 9393,11158 9380,11153 9371,11144 9352,11131 9334,11123 9306,11115 9294,11116 9282,11127 9266,11177 9260,11216 9253,11240 9241,11258 9226,11285 9202,11354 9174,11399 9148,11450 9129,11476 9127,11492 9115,11520 9107,11533 9104,11547 9108,11581 9108,11606 9104,11623 9074,11647 9052,11657 9022,11656 8998,11653 8980,11661 8953,11678 8946,11680 8940,11670 8930,11665 8911,11663 8897,11657 8875,11642 8859,11636 8839,11631 8828,11630 8819,11633 8802,11647 8691,11638 8666,11635 8587,11616 8552,11618 8519,11609 8494,11600 8482,11594 8470,11578 8470,11566 8472,11556 8463,11536 8463,11523 8483,11502 8498,11489 8527,11472 8546,11437 8553,11414 8547,11399 8526,11386 8503,11356 8487,11346 8481,11339 8468,11334 8434,11340 8387,11352 8358,11352 8334,11332 8326,11330 8311,11330 8304,11334 8300,11341 8300,11360 8302,11366 8301,11384 8306,11391 8306,11397 8298,11407 8291,11413 8284,11414 8277,11409 8264,11415 8250,11415 8246,11409 8228,11395 8215,11378 8190,11356 8192,11343 8201,11336 8213,11332 8219,11327 8220,11321 8217,11305 8204,11301 8170,11307 8165,11299 8159,11293 8150,11292 8144,11289 8133,11275 8120,11252 8102,11244 8094,11253 8081,11257 8060,11281 8047,11285 8038,11281 8023,11281 8002,11274 7981,11271 7931,11271 7923,11269 7913,11272 7903,11272 7851,11262 7831,11268 7812,11262 7803,11254 7786,11243 7768,11225 7761,11206 7741,11195 7725,11175 7720,11154 7709,11132 7707,11112 7708,11084 7706,11074 7690,11068 7669,11074 7663,11074 7636,11061 7624,11059 7602,11061 7590,11048 7584,11044 7575,11043 7554,11031 7528,11028 7513,11033 7502,11033 7492,11029 7473,11012 7465,11008 7457,11009 7453,11021 7445,11027 7398,11030 7370,11022 7338,10994 7331,10981 7304,10966 7294,10964 7280,10965 7263,10971 7262,10979 7255,10981 7245,10972 7226,10961 7197,10948 7190,10943 7175,10924 7170,10914 7147,10882 7136,10862 7125,10855 7115,10852 7094,10849 7070,10841 7069,10833 7081,10824 7091,10804 7093,10798 7096,10793 7099,10785 7106,10774 7109,10765 7109,10753 7109,10750 7118,10734 7132,10725 7145,10720 7161,10719 7165,10718 7169,10715 7177,10706 7176,10678 7179,10671 7185,10664 7187,10658 7177,10656 7153,10656 7122,10647 7106,10650 7097,10643 7073,10638 7050,10626 7039,10618 7028,10606 6971,10568 6942,10527 6923,10512 6916,10507 6905,10504 6890,10509 6884,10505 6877,10490 6831,10451 6823,10446 6816,10436 6809,10430 6753,10437 6727,10450 6715,10449 6685,10456 6646,10462 6602,10466 6579,10476 6528,10510 6513,10525 6510,10532 6526,10537 6532,10543 6527,10550 6497,10564 6492,10571 6473,10578 6463,10584 6444,10599 6429,10618 6422,10619 6418,10625 6404,10637 6384,10650 6360,10651 6343,10655 6315,10645 6308,10644 6273,10649 6263,10648 6257,10640 6241,10633 6237,10624 6225,10616 6217,10614 6208,10608 6205,10600 6200,10593 6175,10586 6159,10590 6152,10597 6123,10606 6114,10606 6073,10599 6046,10588 5991,10589 5974,10588 5952,10601 5944,10611 5942,10617 5946,10623 5961,10638 5966,10646 5965,10652 5939,10652 5930,10650 5914,10643 5905,10638 5885,10612 5870,10604 5861,10603 5840,10611 5834,10610 5822,10602 5814,10599 5807,10599 5798,10603 5773,10605 5756,10609 5737,10599 5731,10599 5722,10607 5708,10616 5690,10621 5688,10627 5689,10640 5687,10647 5688,10661 5683,10667 5673,10669 5659,10665 5653,10665 5635,10668 5626,10673 5618,10685 5610,10693 5601,10698 5593,10700 5575,10701 5575,10685 5577,10675 5563,10668 5547,10667 5531,10668 5524,10670 5518,10675 5515,10683 5514,10695 5525,10711 5538,10723 5526,10727 5520,10732 5518,10738 5511,10745 5503,10750 5500,10761 5503,10774 5499,10780 5499,10787 5518,10813 5525,10819 5539,10822 5546,10835 5546,10847 5549,10857 5553,10864 5559,10865 5567,10870 5584,10874 5596,10874 5607,10876 5615,10882 5621,10889 5633,10895 5635,10901 5633,10909 5635,10919 5642,10926 5651,10931 5654,10941 5653,10947 5660,10965 5656,10973 5649,10980 5623,10980 5612,10978 5606,10975 5596,10964 5588,10958 5578,10956 5522,10954 5514,10941 5507,10936 5501,10939 5487,10954 5462,10953 5423,10957 5406,10957 5388,10964 5380,10971 5361,11021 5355,11031 5333,11050 5328,11066 5309,11066 5299,11059 5290,11050 5277,11042 5250,11032 5244,11026 5242,11000 5235,10986 5217,10969 5204,10962 5192,10946 5190,10939 5183,10931 5170,10927 5154,10926 5144,10912 5136,10907 5131,10891 5121,10877 5125,10869 5127,10860 5127,10854 5124,10848 5101,10841 5101,10823 5094,10813 5083,10808 5083,10799 5087,10792 5084,10785 5087,10770 5084,10733 5079,10726 5063,10718 5057,10711 5057,10705 5061,10691 5056,10685 5032,10685 5003,10673 4979,10674 4941,10684 4903,10705 4899,10711 4889,10716 4875,10717 4865,10717 4856,10712 4839,10712 4818,10716 4803,10716 4788,10701 4784,10694 4784,10684 4789,10672 4797,10665 4843,10639 4860,10609 4868,10598 4885,10585 4929,10569 4957,10567 4972,10564 4980,10537 4980,10523 4986,10509 4986,10503 4990,10494 5002,10484 5027,10475 5043,10466 5048,10455 5057,10449 5076,10444 5076,10430 5070,10422 5063,10418 5059,10406 5073,10399 5075,10393 5067,10392 4997,10399 4987,10398 4969,10390 4945,10389 4929,10391 4887,10406 4859,10408 4853,10419 4843,10429 4829,10437 4825,10443 4816,10446 4773,10447 4746,10438 4710,10437 4704,10441 4690,10446 4673,10449 4663,10453 4646,10455 4635,10452 4613,10442 4604,10434 4586,10435 4577,10437 4571,10441 4563,10449 4562,10458 4554,10460 4542,10442 4539,10430 4539,10417 4534,10409 4525,10413 4499,10430 4484,10445 4479,10452 4449,10454 4450,10447 4456,10443 4456,10436 4450,10429 4445,10416 4446,10407 4453,10399 4463,10369 4480,10345 4495,10329 4506,10325 4516,10322 4538,10312 4554,10291 4575,10252 4591,10233 4601,10216 4624,10186 4630,10169 4625,10161 4608,10149 4595,10134 4590,10125 4588,10111 4589,10096 4596,10077 4604,10067 4640,10041 4648,10031 4648,10010 4635,9967 4637,9946 4660,9894 4671,9877 4679,9868 4681,9856 4679,9847 4680,9837 4696,9826 4715,9818 4724,9807 4723,9796 4737,9779 4746,9773 4756,9763 4777,9738 4787,9729 4794,9719 4799,9702 4800,9683 4814,9691 4825,9688 4832,9680 4842,9660 4851,9646 4891,9602 4900,9593 4911,9585 4940,9550 4954,9531 4962,9517 4970,9513 4988,9494 5004,9474 5020,9448 5054,9412 5087,9365 5098,9341 5114,9324 5137,9305 5142,9299 5150,9279 5180,9264 5184,9250 5186,9192 5177,9164 5179,9157 5192,9154 5202,9147 5213,9123 5220,9094 5232,9072 5302,9007 5317,8999 5387,8985 5405,8974 5419,8968 5487,8962 5516,8953 5526,8945 5535,8928 5546,8922 5559,8911 5575,8907 5614,8907 5648,8912 5692,8928 5705,8930 5721,8929 5754,8923 5763,8918 5769,8909 5771,8899 5770,8884 5777,8848 5784,8822 5789,8815 5796,8809 5806,8805 5810,8786 5808,8780 5712,8735 5674,8619 5674,8499 5722,8497 5824,8484 6122,8436 6166,8418 6215,8401 6408,8319 6522,8276 6811,8158 7087,8018 7264,7943 7515,7844 7761,7741 7792,7725 7806,7814 " class="polyStyle" id="620622" style="fill:#fbe6ef"/>
<path d="" class="polyStyle" id="130121" style="fill:#ee8b94"/>
<path d="" class="polyStyle" id="610823" style="fill:#fbe6ef"/>
<polygon points="10853,90 11289,208 11287,212 11147,636 11073,822 11321,1096 11725,1536 11851,1884 11781,2078 11821,2366 11697,2610 11011,2846 10979,2894 10853,3080 10150,4074 8992,4696 8354,5044 7914,5280 7914,5283 7938,5300 7970,5322 7984,5338 8000,5350 8048,5404 8156,5528 8170,5550 8174,5554 8180,5568 8206,5636 8354,5960 8602,6508 7882,6786 7688,6862 7682,6868 7679,6871 7656,6883 7631,6894 7446,6942 7369,6920 7318,6837 7269,6802 7101,6777 6707,6471 5696,6460 5037,6440 4932,6441 4855,6389 4679,6396 4630,6412 4626,6414 4606,6398 4608,6376 4612,6359 4599,6335 4604,6314 4607,6290 4602,6268 4578,6275 4550,6283 4548,6292 4559,6306 4559,6314 4550,6320 4542,6326 4517,6338 4512,6354 4504,6365 4499,6377 4504,6387 4506,6396 4503,6407 4482,6426 4471,6449 4438,6477 4436,6488 4422,6507 4403,6504 4392,6507 4375,6514 4354,6526 4339,6536 4324,6538 4272,6529 4253,6525 4240,6514 4244,6510 4241,6471 4239,6454 4228,6450 4232,6445 4233,6436 4227,6416 4228,6390 4228,6378 4222,6371 4220,6363 4265,6354 4273,6366 4280,6370 4293,6371 4312,6360 4321,6358 4329,6368 4333,6370 4346,6371 4366,6369 4401,6378 4415,6379 4428,6372 4441,6357 4446,6355 4453,6341 4454,6336 4474,6303 4471,6294 4447,6260 4432,6220 4459,6201 4487,6181 4490,6136 4463,6067 4439,6035 4417,6025 4404,6021 4396,6021 4377,6025 4363,6025 4357,6023 4355,6019 4357,6015 4368,6008 4377,6002 4382,5996 4382,5990 4377,5984 4367,5970 4361,5961 4359,5951 4359,5940 4355,5929 4349,5916 4342,5909 4335,5903 4327,5899 4315,5896 4301,5893 4292,5891 4287,5886 4281,5878 4280,5858 4284,5843 4287,5826 4293,5801 4297,5768 4293,5732 4299,5700 4313,5664 4324,5626 4318,5598 4318,5578 4315,5571 4311,5567 4358,5354 4373,5290 4349,5249 4256,5232 4014,5220 4007,5217 3958,5216 3862,5223 3820,5230 3807,5228 3789,5229 3774,5229 3753,5226 3737,5225 3725,5224 3709,5224 3832,5073 3928,4955 3920,4949 3851,4923 3526,4805 3522,4800 3522,4765 3512,4758 3497,4751 3446,4710 3369,4609 3328,4577 3304,4521 3290,4472 3256,4401 3237,4381 3150,4342 3140,4327 3134,4273 3123,4220 3116,4209 3092,4176 3084,4167 3069,4157 3049,4143 3042,4137 2942,4073 2875,4026 2888,4009 2822,3966 2820,3961 2824,3929 2856,3747 2894,3537 2895,3513 2897,3462 2901,3440 2912,3425 2978,3345 3046,3275 2978,2954 2970,2920 2906,2881 2929,2842 2749,2773 2567,2706 2356,2627 2253,2589 2192,2737 1569,2608 1318,2507 1281,2403 989,2371 870,2350 861,2348 652,2321 551,2307 512,2272 432,2206 60,1898 0,1832 98,1818 854,1652 2262,1346 2608,1148 3116,1032 3124,1030 3354,1160 3358,1162 3406,1190 3566,1278 3858,1438 3868,1442 4340,1516 4856,1600 5296,1688 5854,1802 5904,1812 6184,1594 6456,1382 6542,1314 6698,1278 6946,1112 7150,976 7287,868 7459,740 7563,660 7641,636 8776,345 10081,0 10591,14 " class="polyStyle" id="620621" style="fill:#fbe6ef"/>
<path d="" class="polyStyle" id="130225" style="fill:#fbe6ef"/>
<path d="" class="polyStyle" id="130322" style="fill:#d4ecb2"/>
<path d="" class="polyStyle" id="653130" style="fill:#f6f67b"/>
<path d="" class="polyStyle" id="130822" style="fill:#fbe6ef"/>
<path d="" class="polyStyle" id="211221" style="fill:#f6f67b"/>
<path d="" class="polyStyle" id="210921" style="fill:#f6f67b"/>
<path d="" class="polyStyle" id="150223" style="fill:#f8c67d"/>
<path d="" class="polyStyle" id="220422" style="fill:#d4ecb2"/>
<path d="" class="polyStyle" id="340721" style="fill:#f6f67b"/>
<path d="" class="polyStyle" id="510824" style="fill:#d4ecb2"/>
<path d="" class="polyStyle" id="610324" style="fill:#f6f67b"/>
<path d="" class="polyStyle" id="530722" style="fill:#ee8b94"/>
<path d="" class="polyStyle" id="340823" style="fill:#d4ecb2"/>
<path d="" class="polyStyle" id="620825" style="fill:#d4ecb2"/>
<path d="" class="polyStyle" id="421125" style="fill:#ee8b94"/>
<path d="" class="polyStyle" id="210281" style="fill:#ee8b94"/>
<path d="" class="polyStyle" id="440883" style="fill:#f6f67b"/>
<path d="" class="polyStyle" id="469006" style="fill:#d4ecb2"/>
<path d="" class="polyStyle" id="469002" style="fill:#ee8b94"/>
<path d="" class="polyStyle" id="469005" style="fill:#fbe6ef"/>
<path d="" class="polyStyle" id="440882" style="fill:#ee8b94"/>
<path d="" class="polyStyle" id="450681" style="fill:#ee8b94"/>
<path d="" class="polyStyle" id="441581" style="fill:#d4ecb2"/>
<path d="" class="polyStyle" id="421087" style="fill:#ee8b94"/>
<path d="" class="polyStyle" id="420984" style="fill:#fbe6ef"/>
<path d="" class="polyStyle" id="420582" style="fill:#ee8b94"/>
<path d="" class="polyStyle" id="370282" style="fill:#f6f67b"/>
<path d="" class="polyStyle" id="371083" style="fill:#f6f67b"/>
<path d="" class="polyStyle" id="371082" style="fill:#fbe6ef"/>
<path d="" class="polyStyle" id="652801" style="fill:#f8c67d"/>
<path d="" class="polyStyle" id="654301" style="fill:#ee8b94"/>
<path d="" class="polyStyle" id="370687" style="fill:#ee8b94"/>
<path d="" class="polyStyle" id="371482" style="fill:#d4ecb2"/>
<path d="" class="polyStyle" id="421081" style="fill:#fbe6ef"/>
<path d="" class="polyStyle" id="429006" style="fill:#f6f67b"/>
<path d="" class="polyStyle" id="440982" style="fill:#d4ecb2"/>
<path d="" class="polyStyle" id="421181" style="fill:#d4ecb2"/>
<path d="" class="polyStyle" id="321181" style="fill:#d4ecb2"/>
<path d="" class="polyStyle" id="659007" style="fill:#ee8b94"/>
<path d="" class="polyStyle" id="652701" style="fill:#fbe6ef"/>
<path d="" class="polyStyle" id="210781" style="fill:#fbe6ef"/>
<path d="" class="polyStyle" id="460204" style="fill:#f6f67b"/>
<path d="" class="polyStyle" id="210211" style="fill:#f6f67b"/>
<path d="" class="polyStyle" id="450512" style="fill:#ee8b94"/>
<path d="" class="polyStyle" id="450602" style="fill:#fbe6ef"/>
<path d="" class="polyStyle" id="440404" style="fill:#ee8b94"/>
<path d="" class="polyStyle" id="440403" style="fill:#f6f67b"/>
<path d="" class="polyStyle" id="441502" style="fill:#f6f67b"/>
<path d="" class="polyStyle" id="431002" style="fill:#d4ecb2"/>
<path d="" class="polyStyle" id="500107" style="fill:#fbe6ef"/>
<path d="" class="polyStyle" id="430611" style="fill:#d4ecb2"/>
<path d="" class="polyStyle" id="511304" style="fill:#fbe6ef"/>
<path d="" class="polyStyle" id="340711" style="fill:#ee8b94"/>
<path d="" class="polyStyle" id="320118" style="fill:#f6f67b"/>
<path d="" class="polyStyle" id="510704" style="fill:#f6f67b"/>
<path d="" class="polyStyle" id="411502" style="fill:#ee8b94"/>
<path d="" class="polyStyle" id="320302" style="fill:#d4ecb2"/>
<path d="" class="polyStyle" id="140311" style="fill:#ee8b94"/>
<polygon points="4604,6314 4599,6335 4612,6359 4608,6376 4606,6398 4626,6414 4630,6412 4679,6396 4855,6389 4932,6441 5037,6440 5696,6460 6707,6471 7101,6777 7269,6802 7318,6837 7369,6920 7446,6942 7631,6894 7656,6883 7679,6871 7618,6954 7609,6962 7610,6968 7612,6994 7622,7040 7632,7092 7638,7122 7670,7226 7686,7270 7700,7328 7720,7398 7728,7436 7742,7476 7754,7532 7772,7584 7776,7622 7783,7662 7792,7725 7761,7741 7515,7844 7264,7943 7087,8018 6811,8158 6522,8276 6408,8319 6215,8401 6166,8418 6122,8436 5824,8484 5722,8497 5674,8499 5674,8619 5712,8735 5808,8780 5810,8786 5806,8805 5796,8809 5789,8815 5784,8822 5777,8848 5770,8884 5771,8899 5769,8909 5763,8918 5754,8923 5721,8929 5705,8930 5692,8928 5648,8912 5614,8907 5575,8907 5559,8911 5546,8922 5535,8928 5526,8945 5516,8953 5487,8962 5419,8968 5405,8974 5387,8985 5317,8999 5302,9007 5232,9072 5220,9094 5213,9123 5202,9147 5192,9154 5179,9157 5177,9164 5186,9192 5184,9250 5180,9264 5150,9279 5142,9299 5137,9305 5114,9324 5098,9341 5087,9365 5054,9412 5020,9448 5004,9474 4988,9494 4970,9513 4962,9517 4954,9531 4940,9550 4911,9585 4900,9593 4891,9602 4851,9646 4842,9660 4832,9680 4825,9688 4814,9691 4800,9683 4799,9702 4794,9719 4787,9729 4777,9738 4756,9763 4746,9773 4737,9779 4723,9796 4724,9807 4715,9818 4696,9826 4680,9837 4679,9847 4681,9856 4679,9868 4671,9877 4660,9894 4637,9946 4635,9967 4648,10010 4648,10031 4640,10041 4604,10067 4596,10077 4589,10096 4588,10111 4590,10125 4595,10134 4608,10149 4625,10161 4630,10169 4624,10186 4601,10216 4591,10233 4575,10252 4554,10291 4538,10312 4516,10322 4506,10325 4498,10315 4494,10309 4486,10288 4472,10274 4468,10264 4466,10253 4467,10230 4462,10222 4449,10214 4439,10217 4411,10234 4327,10271 4277,10285 4247,10300 4247,10284 4243,10275 4237,10270 4228,10268 4221,10270 4214,10277 4211,10284 4210,10300 4211,10310 4214,10319 4234,10339 4223,10364 4216,10368 4187,10347 4165,10340 4151,10343 4132,10357 4120,10353 4114,10340 4111,10322 4112,10312 4110,10300 4097,10291 4080,10268 4084,10256 4100,10248 4122,10231 4121,10220 4113,10196 4104,10192 4055,10179 4005,10174 3969,10163 3952,10154 3932,10126 3905,10102 3880,10037 3870,10018 3859,10006 3845,10012 3832,10034 3831,10047 3817,10071 3809,10080 3799,10082 3793,10081 3763,10052 3752,10039 3753,10033 3764,10026 3778,10011 3794,10000 3811,9997 3803,9988 3804,9978 3812,9964 3814,9957 3816,9935 3808,9925 3795,9918 3780,9903 3772,9890 3746,9865 3718,9835 3709,9832 3699,9834 3689,9828 3684,9805 3675,9775 3676,9759 3684,9754 3690,9748 3697,9738 3701,9722 3696,9705 3670,9654 3669,9629 3663,9622 3642,9606 3608,9605 3589,9599 3578,9584 3570,9563 3573,9548 3586,9536 3608,9528 3630,9530 3637,9533 3653,9561 3654,9574 3689,9599 3711,9599 3753,9592 3793,9577 3801,9571 3826,9545 3857,9516 3888,9505 3904,9507 3917,9516 3922,9523 3925,9531 3976,9526 3988,9528 4039,9555 4049,9557 4053,9550 4057,9526 4066,9520 4078,9517 4092,9511 4129,9485 4136,9484 4148,9478 4146,9472 4119,9433 4109,9415 4106,9395 4105,9368 4110,9352 4119,9337 4135,9319 4154,9305 4163,9302 4179,9309 4187,9306 4195,9299 4225,9291 4230,9285 4226,9278 4224,9270 4231,9260 4237,9238 4236,9230 4232,9219 4232,9213 4237,9198 4245,9188 4245,9180 4218,9143 4207,9133 4192,9128 4173,9114 4159,9098 4148,9081 4125,9063 4116,9063 4094,9072 4046,9081 4030,9080 4028,9074 4031,9068 4032,9060 4028,9042 4014,9023 4002,9014 3998,8992 3992,8982 3969,8961 3962,8950 3962,8936 3959,8929 3952,8922 3941,8915 3911,8918 3898,8915 3873,8913 3866,8906 3865,8887 3857,8886 3830,8900 3813,8902 3805,8896 3800,8886 3792,8885 3784,8892 3780,8899 3779,8905 3772,8915 3773,8930 3768,8942 3760,8945 3742,8948 3727,8954 3712,8971 3703,8974 3687,8961 3677,8961 3668,8968 3665,8990 3649,9008 3638,9016 3606,9025 3567,9026 3549,9024 3540,9016 3540,9006 3556,8982 3566,8976 3576,8967 3576,8962 3570,8957 3564,8955 3557,8950 3556,8944 3562,8939 3578,8933 3604,8928 3618,8919 3629,8907 3642,8898 3641,8894 3632,8890 3608,8887 3591,8888 3577,8891 3567,8895 3560,8890 3559,8884 3563,8869 3562,8860 3556,8854 3536,8849 3531,8843 3530,8835 3539,8822 3549,8815 3565,8799 3570,8788 3590,8776 3591,8769 3584,8760 3576,8756 3567,8748 3555,8715 3542,8708 3537,8702 3528,8697 3520,8695 3508,8696 3494,8702 3482,8712 3465,8719 3459,8724 3449,8728 3444,8721 3442,8714 3440,8695 3431,8688 3421,8687 3376,8665 3382,8653 3391,8627 3393,8610 3392,8590 3388,8584 3384,8570 3375,8569 3360,8577 3325,8585 3283,8603 3245,8627 3233,8636 3224,8647 3206,8639 3199,8634 3186,8630 3175,8621 3155,8610 3149,8605 3151,8581 3145,8572 3121,8574 3115,8568 3111,8560 3118,8550 3126,8544 3151,8534 3165,8516 3179,8504 3175,8484 3181,8477 3179,8471 3144,8442 3138,8434 3146,8424 3147,8408 3143,8395 3136,8385 3119,8382 3110,8377 3101,8375 3091,8375 3082,8372 3082,8363 3090,8351 3092,8340 3090,8330 3086,8323 3082,8301 3074,8295 3066,8295 3055,8301 3031,8319 3020,8330 3006,8337 2995,8346 2983,8349 2984,8339 2987,8333 2997,8323 3013,8313 3032,8297 3053,8286 3067,8282 3091,8280 3113,8270 3122,8257 3122,8249 3118,8231 3112,8219 3108,8197 3096,8185 3095,8171 3090,8165 3081,8159 3079,8150 3066,8136 3065,8122 3058,8106 3048,8093 3042,8088 3036,8078 3035,8069 3041,8061 3051,8052 3073,8050 3096,8050 3109,8034 3108,8027 3104,8019 3104,8010 3097,7993 3092,7963 3080,7954 3072,7945 3056,7937 3020,7923 2997,7916 2959,7910 2922,7908 2897,7902 2889,7895 2884,7885 2881,7875 2885,7867 2880,7860 2871,7857 2865,7857 2833,7833 2814,7836 2797,7843 2780,7861 2777,7871 2761,7874 2718,7889 2703,7895 2697,7899 2674,7904 2658,7915 2647,7918 2635,7919 2622,7923 2619,7930 2618,7943 2610,7958 2607,7970 2586,7971 2577,7964 2574,7952 2550,7936 2524,7930 2517,7926 2511,7926 2502,7931 2490,7930 2481,7928 2463,7920 2455,7921 2442,7937 2425,7951 2411,7955 2399,7955 2382,7951 2369,7951 2276,7960 2259,7964 2238,7974 2226,7978 2220,7976 2214,7971 2204,7969 2150,7967 2143,7970 2138,7987 2130,7990 2080,7988 2047,7992 2023,7999 1997,8041 1990,8049 1978,8050 1972,8057 1970,8067 1962,8073 1922,8072 1909,8064 1901,8062 1894,8057 1885,8026 1880,8019 1874,8020 1874,8016 1871,8011 1866,8008 1862,8007 1859,8005 1856,8004 1850,8003 1846,8003 1842,8002 1833,7999 1828,7998 1825,7997 1822,7997 1817,7998 1813,7998 1807,7998 1802,7997 1799,7996 1796,7995 1792,7995 1788,7995 1784,7996 1780,7996 1776,7997 1772,7998 1769,7999 1766,7999 1763,8001 1759,8002 1756,8003 1753,8002 1749,8001 1745,7998 1743,7996 1741,7993 1740,7984 1739,7974 1739,7971 1736,7971 1732,7971 1726,7971 1720,7972 1716,7972 1711,7971 1706,7969 1700,7966 1695,7965 1689,7964 1678,7962 1665,7957 1658,7954 1654,7951 1648,7947 1642,7944 1635,7941 1624,7937 1622,7935 1622,7931 1622,7927 1622,7921 1622,7917 1620,7914 1616,7911 1612,7907 1611,7904 1609,7900 1609,7896 1611,7893 1612,7889 1613,7885 1613,7882 1618,7881 1622,7879 1626,7878 1632,7874 1642,7866 1644,7861 1646,7858 1651,7855 1659,7852 1665,7849 1673,7843 1678,7841 1684,7840 1692,7841 1695,7841 1698,7842 1701,7843 1705,7842 1707,7840 1712,7834 1715,7825 1717,7820 1719,7815 1720,7811 1718,7809 1716,7806 1716,7803 1714,7800 1712,7798 1709,7794 1706,7790 1701,7785 1696,7782 1690,7771 1682,7759 1678,7752 1678,7749 1677,7743 1677,7736 1677,7730 1675,7725 1673,7720 1672,7717 1671,7712 1669,7702 1666,7694 1663,7686 1663,7681 1663,7678 1665,7675 1672,7668 1676,7666 1680,7665 1686,7666 1691,7665 1696,7664 1699,7661 1702,7659 1704,7657 1704,7647 1704,7641 1703,7637 1700,7635 1698,7632 1698,7630 1701,7628 1704,7626 1707,7621 1709,7618 1711,7611 1711,7606 1711,7599 1709,7595 1707,7588 1706,7581 1705,7571 1707,7563 1709,7559 1709,7556 1707,7552 1705,7549 1706,7545 1706,7536 1707,7533 1709,7531 1708,7527 1708,7523 1707,7515 1708,7511 1712,7506 1712,7503 1712,7498 1711,7493 1708,7490 1700,7488 1696,7487 1692,7485 1687,7484 1682,7483 1677,7482 1674,7480 1671,7478 1668,7476 1662,7472 1656,7470 1653,7469 1649,7468 1646,7468 1642,7469 1639,7470 1636,7471 1633,7471 1628,7470 1625,7469 1622,7468 1613,7464 1608,7463 1605,7462 1605,7458 1605,7451 1603,7446 1603,7441 1604,7437 1605,7429 1605,7423 1604,7419 1602,7416 1595,7409 1589,7402 1582,7399 1578,7395 1573,7393 1570,7392 1567,7392 1564,7391 1562,7389 1559,7386 1555,7383 1552,7381 1549,7381 1545,7382 1541,7383 1538,7383 1534,7381 1531,7379 1528,7377 1525,7374 1522,7373 1518,7371 1516,7370 1512,7367 1504,7361 1504,7357 1506,7354 1506,7350 1505,7346 1502,7343 1497,7339 1493,7337 1484,7331 1478,7322 1476,7316 1480,7312 1487,7310 1502,7308 1530,7302 1530,7297 1525,7293 1521,7290 1516,7290 1511,7291 1504,7291 1492,7286 1480,7274 1468,7266 1459,7262 1434,7257 1415,7257 1404,7255 1394,7248 1390,7236 1384,7224 1381,7207 1385,7194 1391,7186 1393,7181 1387,7177 1380,7173 1367,7171 1357,7168 1349,7162 1337,7150 1330,7145 1316,7135 1319,7133 1327,7129 1340,7126 1345,7118 1348,7117 1357,7115 1359,7112 1363,7102 1369,7102 1378,7102 1384,7100 1390,7092 1393,7092 1396,7096 1406,7102 1415,7103 1419,7094 1422,7092 1430,7095 1440,7094 1444,7093 1448,7088 1458,7083 1463,7078 1466,7078 1482,7081 1496,7088 1508,7087 1515,7087 1524,7080 1530,7069 1539,7058 1556,7049 1571,7044 1596,7040 1608,7037 1619,7031 1630,7020 1644,7008 1658,6997 1670,6995 1676,7001 1678,7009 1697,7020 1708,7032 1709,7047 1718,7052 1738,7038 1747,7028 1749,7023 1741,7018 1737,7014 1743,7010 1743,7006 1747,7006 1749,7011 1756,7013 1763,7012 1766,7009 1761,7006 1764,7002 1770,6999 1776,6993 1783,6994 1795,7005 1802,7014 1807,7023 1810,7026 1815,7027 1819,7026 1828,7019 1842,7011 1846,7012 1853,7019 1858,7019 1863,7018 1863,7011 1867,7010 1872,7009 1877,7012 1890,7008 1904,7002 1925,6980 1932,6964 1935,6958 1937,6953 1939,6936 1934,6911 1942,6897 1950,6880 1956,6869 1969,6856 1981,6841 1988,6826 1997,6807 1998,6799 1998,6790 1995,6767 1993,6754 1994,6741 1998,6728 2002,6721 2007,6719 2016,6719 2032,6719 2048,6720 2076,6722 2100,6722 2109,6720 2113,6718 2125,6712 2141,6706 2159,6701 2170,6698 2184,6694 2205,6686 2214,6679 2222,6672 2232,6666 2242,6664 2259,6662 2289,6657 2335,6656 2376,6658 2387,6654 2394,6651 2464,6651 2462,6617 2466,6616 2479,6614 2493,6613 2512,6612 2526,6614 2534,6612 2546,6605 2559,6601 2578,6599 2589,6598 2608,6595 2626,6593 2637,6590 2653,6584 2684,6577 2695,6575 2708,6576 2789,6592 2841,6616 2855,6625 2873,6649 2891,6654 2893,6659 2883,6673 2886,6697 2894,6709 2895,6717 2893,6726 2904,6737 2919,6746 2937,6750 2972,6750 3002,6753 3028,6749 3060,6737 3074,6732 3080,6727 3097,6699 3117,6667 3124,6655 3136,6636 3143,6631 3151,6626 3167,6619 3182,6614 3196,6607 3210,6600 3219,6592 3231,6584 3259,6566 3295,6542 3322,6512 3327,6498 3339,6494 3345,6492 3358,6484 3384,6478 3391,6475 3397,6471 3403,6472 3409,6471 3419,6467 3429,6462 3432,6456 3435,6454 3442,6455 3448,6450 3452,6445 3452,6439 3456,6435 3462,6432 3465,6423 3466,6420 3478,6406 3518,6395 3546,6386 3552,6384 3560,6387 3570,6389 3591,6386 3620,6390 3635,6395 3649,6404 3659,6414 3665,6418 3673,6420 3685,6427 3689,6428 3718,6439 3746,6445 3781,6444 3803,6441 3832,6440 3852,6442 3866,6444 3899,6444 3919,6448 3934,6454 3963,6470 3970,6472 3979,6472 3991,6475 4015,6487 4027,6491 4053,6508 4067,6514 4088,6512 4095,6515 4118,6519 4124,6519 4139,6523 4153,6522 4175,6510 4195,6501 4205,6500 4217,6501 4231,6507 4240,6514 4253,6525 4272,6529 4324,6538 4339,6536 4354,6526 4375,6514 4392,6507 4403,6504 4422,6507 4436,6488 4438,6477 4471,6449 4482,6426 4503,6407 4506,6396 4504,6387 4499,6377 4504,6365 4512,6354 4517,6338 4542,6326 4550,6320 4559,6314 4559,6306 4548,6292 4550,6283 4578,6275 4602,6268 4607,6290 " class="polyStyle" id="620602" style="fill:#ee8b94"/>
<path d="" class="polyStyle" id="610802" style="fill:#ee8b94"/>
<path d="" class="polyStyle" id="120116" style="fill:#f6f67b"/>
<path d="" class="polyStyle" id="130303" style="fill:#fbe6ef"/>
<path d="" class="polyStyle" id="140211" style="fill:#f6f67b"/>
<path d="" class="polyStyle" id="150207" style="fill:#fbe6ef"/>
<path d="" class="polyStyle" id="211403" style="fill:#f6f67b"/>
<path d="" class="polyStyle" id="150802" style="fill:#f8c67d"/>
<path d="" class="polyStyle" id="210112" style="fill:#ee8b94"/>
<path d="" class="polyStyle" id="230406" style="fill:#d4ecb2"/>
<path d="" class="polyStyle" id="110113" style="fill:#fbe6ef"/>
<path d="" class="polyStyle" id="341702" style="fill:#fbe6ef"/>
<path d="" class="polyStyle" id="420303" style="fill:#ee8b94"/>
<path d="" class="polyStyle" id="340702" style="fill:#d4ecb2"/>
<path d="" class="polyStyle" id="421002" style="fill:#f6f67b"/>
<path d="" class="polyStyle" id="420117" style="fill:#f6f67b"/>
<path d="" class="polyStyle" id="440904" style="fill:#f8c67d"/>
<path d="" class="polyStyle" id="460205" style="fill:#ee8b94"/>
<path d="" class="polyStyle" id="460202" style="fill:#f6f67b"/>
<path d="" class="polyStyle" id="460203" style="fill:#fbe6ef"/>
<path d="" class="polyStyle" id="420304" style="fill:#f6f67b"/>
<path d="" class="polyStyle" id="445302" style="fill:#ee8b94"/>
<path d="" class="polyStyle" id="410202" style="fill:#d4ecb2"/>
<path d="" class="polyStyle" id="440800" style="fill:#f6f67b"/>
<path d="" class="polyStyle" id="440900" style="fill:#ee8b94"/>
<path d="" class="polyStyle" id="340800" style="fill:#ee8b94"/>
<path d="" class="polyStyle" id="460200" style="fill:#f6f67b"/>
<path d="" class="polyStyle" id="460000" style="fill:#ee8b94"/>
<path d="" class="polyStyle" id="450500" style="fill:#ee8b94"/>
<path d="" class="polyStyle" id="450600" style="fill:#ee8b94"/>
<path d="" class="polyStyle" id="440400" style="fill:#f6f67b"/>
<path d="" class="polyStyle" id="441700" style="fill:#f6f67b"/>
<path d="" class="polyStyle" id="441500" style="fill:#f6f67b"/>
<path d="" class="polyStyle" id="350600" style="fill:#ee8b94"/>
<path d="" class="polyStyle" id="710000" style="fill:#f6f67b"/>
<path d="" class="polyStyle" id="510400" style="fill:#f6f67b"/>
<path d="" class="polyStyle" id="522600" style="fill:#fbe6ef"/>
<path d="" class="polyStyle" id="520500" style="fill:#ee8b94"/>
<path d="" class="polyStyle" id="431200" style="fill:#f6f67b"/>
<path d="" class="polyStyle" id="430600" style="fill:#f6f67b"/>
<path d="" class="polyStyle" id="511400" style="fill:#d4ecb2"/>
<path d="" class="polyStyle" id="421000" style="fill:#ee8b94"/>
<path d="" class="polyStyle" id="341700" style="fill:#f6f67b"/>
<path d="" class="polyStyle" id="420500" style="fill:#f6f67b"/>
<path d="" class="polyStyle" id="511300" style="fill:#f6f67b"/>
<path d="" class="polyStyle" id="420900" style="fill:#f6f67b"/>
<path d="" class="polyStyle" id="511700" style="fill:#ee8b94"/>
<path d="" class="polyStyle" id="420600" style="fill:#d4ecb2"/>
<path d="" class="polyStyle" id="411500" style="fill:#fbe6ef"/>
<path d="" class="polyStyle" id="510800" style="fill:#ee8b94"/>
<path d="" class="polyStyle" id="420300" style="fill:#fbe6ef"/>
<path d="" class="polyStyle" id="611000" style="fill:#ee8b94"/>
<path d="" class="polyStyle" id="620800" style="fill:#fbe6ef"/>
<path d="" class="polyStyle" id="370200" style="fill:#ee8b94"/>
<path d="" class="polyStyle" id="371000" style="fill:#f6f67b"/>
<path d="" class="polyStyle" id="370600" style="fill:#fbe6ef"/>
<path d="" class="polyStyle" id="120000" style="fill:#f6f67b"/>
<path d="" class="polyStyle" id="130200" style="fill:#ee8b94"/>
<path d="" class="polyStyle" id="130300" style="fill:#f6f67b"/>
<path d="" class="polyStyle" id="652900" style="fill:#fbe6ef"/>
<path d="" class="polyStyle" id="150500" style="fill:#d4ecb2"/>
<path d="" class="polyStyle" id="" style="fill:#d4ecb2"/>
<path d="" class="polyStyle" id="350500" style="fill:#fbe6ef"/>
<path d="" class="polyStyle" id="440400" style="fill:#f6f67b"/>
<path d="" class="polyStyle" id="421100" style="fill:#d4ecb2"/>
<path d="" class="polyStyle" id="420100" style="fill:#fbe6ef"/>
<path d="" class="polyStyle" id="532500" style="fill:#fbe6ef"/>
<path d="" class="polyStyle" id="654200" style="fill:#fbe6ef"/>
<path d="" class="polyStyle" id="210700" style="fill:#d4ecb2"/>
<path d="" class="polyStyle" id="522300" style="fill:#fbe6ef"/>
<path d="" class="polyStyle" id="" style="fill:#ee8b94"/>
<path d="" class="polyStyle" id="440400" style="fill:#f6f67b"/>
<path d="" class="polyStyle" id="620000" style="fill:#f6f67b"/>
<path d="" class="polyStyle" id="430000" style="fill:#fbe6ef"/>
<path d="" class="polyStyle" id="420000" style="fill:#ee8b94"/>
<path d="" class="polyStyle" id="410000" style="fill:#f6f67b"/>
<path d="" class="polyStyle" id="350000" style="fill:#fbe6ef"/>
<path d="" class="polyStyle" id="520000" style="fill:#f6f67b"/>
<path d="" class="polyStyle" id="" style="fill:#ee8b94"/>
</svg>
