<?xml version="1.0" encoding="UTF-8"?>
<!DOCTYPE svg PUBLIC "-//W3C//DTD SVG 1.1 Tiny//EN" "http://www.w3.org/Graphics/SVG/1.1/DTD/svg11-tiny.dtd">
<svg version="1.1" xmlns="http://www.w3.org/2000/svg" xmlns:xlink="http://www.w3.org/1999/xlink" width="100%" height="100%" viewBox="0,0,12604,4358">
<title>SVG</title>
<desc>Poligon Test</desc>
<style id="style_css_sheet" type="text/css">
.polyStyle{fill: #cccccc;stroke-width:0;fill-rule:evenodd;}
</style>
<circle cx="11351" cy="3405" r="200" stroke="black" stroke-width="1" fill="red" id="620822"position="444" name="灵台县"/>
<circle cx="10108" cy="2081" r="200" stroke="black" stroke-width="1" fill="red" id="620821" name="泾川县"/>
<circle cx="8413" cy="2228" r="200" stroke="black" stroke-width="1" fill="red" id="620823"position="4" name="崇信县"/>
<circle cx="6520" cy="2660" r="200" stroke="black" stroke-width="1" fill="red" id="620824" name="华亭县"/>
<circle cx="3493" cy="2739" r="200" stroke="black" stroke-width="1" fill="red" id="620825"position="4" name="庄浪县"/>
<circle cx="1927" cy="1142" r="200" stroke="black" stroke-width="1" fill="red" id="620826"position="4" name="静宁县"/>
<circle cx="6703" cy="1032" r="200" stroke="black" stroke-width="1" fill="red" id="620802" name="崆峒区"/>
<path d="" class="polyStyle" id="" style="fill:#ee8b94"/>
<path d="" class="polyStyle" id="623022" style="fill:#fbe6ef"/>
<path d="" class="polyStyle" id="211421" style="fill:#f6f67b"/>
<path d="" class="polyStyle" id="532524" style="fill:#ee8b94"/>
<path d="" class="polyStyle" id="440825" style="fill:#f6f67b"/>
<path d="" class="polyStyle" id="441721" style="fill:#f6f67b"/>
<path d="" class="polyStyle" id="450521" style="fill:#f6f67b"/>
<path d="" class="polyStyle" id="450123" style="fill:#fbe6ef"/>
<path d="" class="polyStyle" id="350624" style="fill:#f6f67b"/>
<path d="" class="polyStyle" id="" style="fill:#fbe6ef"/>
<path d="" class="polyStyle" id="451224" style="fill:#fbe6ef"/>
<path d="" class="polyStyle" id="350627" style="fill:#f6f67b"/>
<path d="" class="polyStyle" id="" style="fill:#f6f67b"/>
<path d="" class="polyStyle" id="350525" style="fill:#f6f67b"/>
<path d="" class="polyStyle" id="530124" style="fill:#ee8b94"/>
<path d="" class="polyStyle" id="522627" style="fill:#ee8b94"/>
<path d="" class="polyStyle" id="510421" style="fill:#fbe6ef"/>
<path d="" class="polyStyle" id="522623" style="fill:#d4ecb2"/>
<path d="" class="polyStyle" id="430321" style="fill:#d4ecb2"/>
<path d="" class="polyStyle" id="511129" style="fill:#d4ecb2"/>
<path d="" class="polyStyle" id="511423" style="fill:#ee8b94"/>
<path d="" class="polyStyle" id="421023" style="fill:#f6f67b"/>
<path d="" class="polyStyle" id="511724" style="fill:#f6f67b"/>
<path d="" class="polyStyle" id="420526" style="fill:#fbe6ef"/>
<path d="" class="polyStyle" id="511923" style="fill:#fbe6ef"/>
<path d="" class="polyStyle" id="420325" style="fill:#fbe6ef"/>
<path d="" class="polyStyle" id="511921" style="fill:#f6f67b"/>
<path d="" class="polyStyle" id="542525" style="fill:#f6f67b"/>
<path d="" class="polyStyle" id="611026" style="fill:#ee8b94"/>
<path d="" class="polyStyle" id="411023" style="fill:#fbe6ef"/>
<polygon points="8766,2525 8773,2532 8776,2538 8780,2543 8782,2548 8784,2554 8787,2560 8790,2565 8793,2571 8793,2577 8796,2582 8800,2588 8807,2593 8814,2598 8818,2603 8822,2609 8826,2615 8832,2620 8835,2626 8837,2632 8836,2636 8831,2638 8817,2638 8811,2641 8809,2645 8807,2655 8808,2661 8815,2663 8835,2663 8849,2666 8856,2674 8866,2692 8873,2703 8887,2714 8896,2724 8913,2726 8928,2709 8937,2696 8949,2688 8963,2686 8975,2686 8984,2673 8992,2662 9001,2656 9019,2660 9029,2649 9034,2640 9042,2633 9060,2630 9071,2635 9092,2636 9109,2637 9118,2640 9129,2645 9135,2645 9142,2645 9149,2645 9156,2645 9163,2644 9170,2643 9176,2641 9183,2638 9190,2636 9197,2635 9204,2633 9219,2631 9230,2637 9232,2641 9238,2645 9245,2648 9252,2654 9253,2659 9258,2666 9274,2664 9289,2670 9306,2663 9313,2653 9317,2642 9325,2633 9336,2625 9349,2619 9359,2612 9374,2600 9382,2603 9389,2609 9396,2613 9403,2614 9410,2616 9417,2620 9424,2622 9430,2627 9433,2627 9437,2632 9448,2640 9453,2642 9459,2645 9466,2649 9473,2653 9480,2657 9494,2661 9501,2663 9508,2667 9514,2670 9521,2675 9528,2680 9532,2684 9538,2685 9541,2678 9547,2678 9566,2682 9576,2689 9582,2712 9593,2734 9603,2738 9609,2737 9613,2731 9619,2718 9628,2708 9628,2705 9628,2700 9625,2697 9605,2688 9603,2683 9603,2678 9604,2670 9606,2661 9614,2648 9627,2636 9635,2623 9641,2605 9648,2598 9657,2593 9660,2588 9671,2586 9684,2589 9696,2595 9710,2604 9720,2614 9723,2625 9723,2637 9720,2650 9720,2660 9728,2670 9741,2675 9750,2681 9752,2691 9753,2700 9760,2707 9775,2708 9795,2704 9819,2703 9886,2698 9900,2699 9908,2701 9921,2708 9935,2717 9947,2724 9956,2732 9964,2754 9973,2760 9982,2761 9996,2755 10013,2739 10025,2716 10035,2709 10039,2707 10055,2706 10080,2706 10101,2712 10122,2714 10130,2710 10140,2704 10152,2703 10159,2703 10208,2707 10221,2705 10226,2702 10229,2699 10241,2682 10249,2673 10271,2655 10283,2648 10298,2648 10312,2651 10328,2650 10344,2650 10354,2645 10363,2640 10377,2641 10390,2647 10410,2640 10423,2632 10436,2623 10447,2614 10460,2608 10482,2603 10499,2596 10526,2591 10547,2589 10563,2589 10574,2589 10587,2592 10591,2596 10596,2616 10600,2627 10608,2637 10624,2641 10642,2645 10658,2653 10665,2662 10679,2674 10697,2682 10714,2687 10728,2688 10740,2685 10754,2682 10767,2684 10778,2683 10788,2680 10803,2676 10821,2676 10839,2685 10857,2689 10872,2688 10890,2686 10909,2685 10927,2685 10935,2689 10938,2695 10941,2706 10954,2700 10965,2696 10974,2695 10981,2699 10984,2714 10985,2731 10985,2747 10991,2764 10998,2775 11015,2777 11034,2777 11056,2781 11080,2789 11102,2796 11117,2807 11135,2819 11154,2831 11170,2832 11187,2841 11194,2848 11204,2852 11214,2852 11219,2850 11230,2845 11239,2827 11260,2818 11275,2818 11290,2819 11301,2820 11307,2820 11326,2813 11342,2810 11349,2817 11357,2820 11364,2814 11368,2804 11384,2799 11399,2800 11417,2801 11440,2802 11451,2802 11461,2794 11473,2786 11488,2773 11502,2772 11518,2771 11530,2777 11539,2789 11553,2793 11565,2790 11575,2789 11587,2788 11599,2788 11618,2789 11632,2790 11646,2789 11659,2784 11670,2778 11683,2770 11696,2758 11705,2753 11715,2752 11722,2753 11724,2760 11738,2768 11788,2778 11798,2784 11826,2816 11824,2824 11820,2832 11822,2840 11826,2844 11832,2844 11842,2840 11848,2838 11854,2842 11862,2852 11866,2860 11862,2866 11844,2876 11844,2890 11848,2902 11869,2909 11872,2916 11850,2935 11839,2950 11844,2970 11854,2984 11880,3028 11892,3020 11910,3024 11912,3034 11910,3046 11918,3114 11918,3126 11918,3134 11912,3144 11906,3146 11888,3152 11882,3156 11880,3168 11884,3180 11894,3186 11958,3224 11994,3216 11978,3236 12000,3262 12022,3258 12064,3290 12064,3293 12070,3300 12077,3302 12083,3304 12090,3305 12097,3311 12097,3317 12097,3322 12091,3328 12086,3332 12079,3337 12074,3342 12069,3348 12064,3355 12056,3368 12060,3375 12062,3381 12067,3386 12072,3391 12079,3395 12086,3400 12093,3403 12106,3412 12113,3418 12120,3421 12125,3427 12129,3433 12131,3438 12136,3444 12142,3450 12144,3455 12144,3461 12148,3463 12164,3469 12170,3470 12177,3471 12184,3474 12190,3479 12192,3485 12196,3490 12199,3496 12203,3501 12210,3507 12217,3513 12222,3518 12226,3524 12230,3530 12236,3534 12241,3539 12246,3543 12250,3549 12261,3562 12261,3570 12268,3570 12294,3590 12320,3592 12330,3618 12336,3620 12380,3622 12422,3634 12454,3622 12518,3618 12522,3620 12510,3638 12484,3666 12482,3674 12488,3688 12492,3700 12492,3730 12504,3740 12518,3746 12530,3746 12560,3742 12584,3744 12595,3751 12600,3754 12604,3760 12600,3772 12578,3792 12556,3810 12520,3840 12512,3838 12490,3826 12476,3826 12456,3832 12438,3838 12414,3844 12398,3862 12382,3880 12367,3875 12352,3870 12310,3870 12284,3902 12275,3911 12297,3961 12255,3937 12213,3955 12191,3953 12137,3933 12113,3929 12093,3941 12037,3935 12021,3939 11989,3979 11965,3975 11925,3973 11899,3985 11875,3989 11859,3989 11854,3988 11851,3959 11847,3939 11841,3931 11833,3929 11819,3953 11791,3991 11737,3987 11725,3985 11681,3989 11657,4009 11647,3987 11607,4009 11607,4025 11593,4029 11573,4037 11567,4043 11557,4063 11541,4077 11513,4083 11485,4065 11463,4069 11457,4087 11461,4099 11477,4143 11473,4147 11447,4141 11433,4139 11401,4145 11395,4143 11397,4135 11409,4111 11423,4065 11435,4019 11441,3991 11443,3975 11443,3967 11441,3961 11435,3953 11421,3939 11409,3933 11361,3917 11351,3913 11341,3905 11327,3905 11307,3911 11293,3917 11279,3935 11281,3967 11267,3983 11263,3985 11259,3987 11251,3983 11233,3971 11215,3941 11177,3929 11161,3911 11143,3905 11133,3911 11111,3933 11093,3927 11073,3959 11045,3981 11009,4051 10995,4065 10981,4077 10965,4087 10957,4095 10947,4093 10923,4093 10911,4101 10907,4109 10899,4125 10895,4131 10899,4141 10911,4149 10915,4155 10917,4161 10913,4175 10899,4179 10855,4181 10815,4177 10799,4181 10775,4207 10761,4211 10753,4211 10741,4205 10737,4199 10729,4181 10707,4159 10685,4143 10675,4135 10661,4129 10655,4131 10659,4143 10655,4157 10625,4177 10603,4169 10573,4165 10555,4147 10541,4163 10531,4183 10517,4183 10509,4179 10483,4135 10463,4143 10445,4143 10415,4125 10395,4117 10383,4097 10367,4087 10353,4071 10333,4081 10299,4067 10269,4091 10237,4069 10187,4073 10157,4091 10147,4141 10127,4139 10109,4185 10097,4177 10087,4155 10079,4131 10073,4121 10059,4099 10029,4099 10015,4067 9993,4049 9965,4047 9945,4045 9921,4047 9913,4059 9909,4067 9891,4063 9837,4061 9805,4061 9783,4059 9771,4055 9763,4045 9755,4029 9751,4027 9733,4035 9719,4047 9707,4101 9679,4145 9667,4169 9667,4177 9681,4189 9679,4195 9679,4199 9667,4207 9651,4211 9641,4205 9623,4193 9609,4203 9587,4205 9577,4219 9567,4241 9547,4299 9535,4331 9531,4339 9525,4341 9517,4339 9487,4327 9483,4323 9485,4307 9465,4297 9439,4297 9427,4281 9419,4285 9413,4297 9399,4333 9389,4349 9381,4358 9374,4356 9344,4358 9330,4350 9326,4342 9320,4326 9314,4316 9300,4314 9280,4316 9257,4329 9249,4331 9221,4323 9215,4319 9215,4301 9203,4275 9195,4269 9179,4265 9187,4249 9209,4225 9211,4201 9205,4181 9179,4171 9191,4157 9163,4103 9139,4095 9147,4065 9131,4061 9111,4061 9085,4047 9061,4061 9053,4065 9045,4065 9035,4063 9031,4061 9027,4059 9023,4039 9009,4023 8997,4015 8979,4005 8973,4005 8955,4023 8950,4024 8947,4025 8947,4001 8937,4001 8921,4013 8889,4017 8871,3983 8865,3975 8855,3973 8839,3971 8825,3971 8809,3981 8801,3981 8797,3975 8797,3961 8795,3943 8773,3919 8757,3889 8725,3887 8719,3867 8691,3857 8693,3853 8705,3841 8735,3805 8747,3793 8753,3777 8737,3735 8735,3699 8719,3677 8701,3657 8693,3655 8591,3649 8565,3641 8559,3618 8568,3605 8584,3596 8595,3587 8596,3572 8595,3569 8596,3563 8598,3548 8603,3534 8620,3512 8625,3507 8625,3501 8624,3495 8620,3486 8619,3482 8615,3480 8609,3482 8600,3486 8592,3486 8596,3470 8597,3454 8594,3443 8586,3430 8587,3414 8587,3403 8576,3389 8570,3378 8571,3374 8571,3367 8566,3362 8560,3355 8544,3348 8532,3346 8522,3345 8508,3348 8489,3357 8475,3356 8463,3352 8453,3348 8425,3339 8401,3334 8395,3327 8392,3310 8392,3294 8392,3286 8392,3279 8388,3276 8377,3275 8356,3278 8349,3277 8344,3273 8339,3267 8339,3263 8339,3259 8344,3254 8345,3249 8344,3246 8342,3243 8328,3234 8323,3226 8321,3217 8320,3211 8320,3207 8323,3196 8328,3192 8336,3187 8342,3184 8346,3180 8356,3158 8370,3144 8380,3134 8380,3122 8377,3109 8373,3095 8372,3080 8368,3066 8369,3051 8375,3040 8389,3041 8397,3030 8400,3022 8409,3015 8426,3013 8445,3007 8454,3011 8467,3015 8491,3014 8499,3005 8513,2995 8532,2994 8548,2989 8560,2984 8569,2977 8573,2974 8576,2975 8576,2979 8576,2986 8577,2993 8590,2994 8602,2991 8611,2981 8614,2972 8624,2965 8634,2955 8634,2939 8629,2927 8626,2914 8626,2907 8627,2902 8630,2897 8639,2885 8645,2877 8645,2860 8644,2850 8644,2838 8645,2826 8645,2817 8646,2807 8653,2786 8652,2777 8648,2764 8642,2751 8639,2740 8637,2734 8636,2725 8640,2717 8653,2701 8659,2699 8674,2700 8679,2698 8680,2695 8680,2692 8676,2687 8672,2684 8668,2680 8666,2674 8661,2669 8654,2664 8649,2658 8646,2653 8645,2647 8638,2643 8631,2641 8624,2638 8616,2636 8610,2627 8611,2621 8611,2616 8611,2610 8610,2604 8610,2599 8609,2593 8609,2588 8609,2582 8607,2576 8609,2571 8607,2565 8610,2559 8608,2554 8613,2549 8622,2536 8641,2527 8663,2520 8686,2520 8704,2520 8722,2522 8739,2517 8761,2521 " class="polyStyle" id="620822" style="fill:#f6f67b"/>
<polygon points="6083,1788 6084,1797 6073,1823 6074,1839 6080,1843 6091,1842 6104,1827 6101,1800 6111,1803 6118,1812 6118,1820 6121,1830 6149,1820 6163,1817 6177,1820 6189,1830 6196,1851 6202,1855 6211,1849 6218,1841 6235,1835 6239,1841 6244,1852 6244,1861 6249,1879 6250,1892 6262,1906 6256,1924 6257,1940 6260,1949 6268,1963 6277,1965 6289,1955 6301,1951 6327,1938 6338,1940 6338,1955 6341,1963 6347,1972 6354,1977 6381,1948 6391,1934 6401,1931 6407,1934 6422,1934 6452,1904 6460,1903 6466,1910 6486,1922 6498,1984 6504,1992 6518,1999 6519,2010 6517,2017 6518,2039 6533,2064 6542,2091 6549,2099 6564,2107 6596,2112 6619,2112 6629,2115 6636,2120 6654,2137 6658,2138 6668,2141 6687,2144 6704,2138 6714,2137 6732,2148 6751,2177 6767,2175 6777,2187 6796,2189 6818,2208 6830,2214 6844,2218 6851,2239 6869,2268 6880,2273 6896,2272 6901,2279 6920,2296 6922,2304 6929,2310 6936,2324 6945,2331 6958,2325 6970,2323 6979,2309 7001,2302 7032,2300 7055,2310 7083,2300 7104,2297 7128,2308 7140,2303 7145,2297 7157,2276 7168,2275 7186,2292 7191,2300 7208,2314 7214,2326 7222,2335 7234,2342 7288,2351 7301,2355 7312,2361 7321,2362 7335,2358 7355,2347 7371,2348 7406,2358 7428,2366 7464,2391 7490,2396 7500,2394 7511,2401 7511,2416 7511,2434 7512,2451 7516,2472 7518,2486 7525,2496 7530,2508 7538,2532 7542,2547 7542,2559 7535,2574 7525,2584 7519,2597 7516,2616 7516,2626 7514,2637 7502,2642 7487,2652 7475,2664 7471,2678 7471,2685 7474,2696 7479,2703 7493,2715 7505,2721 7515,2722 7526,2728 7537,2732 7547,2737 7555,2742 7560,2748 7563,2760 7562,2773 7557,2781 7542,2784 7526,2782 7506,2788 7499,2790 7491,2793 7477,2789 7464,2786 7456,2783 7445,2788 7439,2796 7432,2811 7426,2832 7415,2849 7408,2862 7412,2880 7415,2893 7423,2903 7425,2913 7420,2921 7408,2925 7399,2932 7391,2939 7387,2949 7392,2959 7401,2966 7413,2973 7414,2981 7415,2993 7412,3002 7419,3010 7431,3010 7447,3007 7457,3007 7467,3013 7485,3041 7497,3060 7504,3077 7518,3079 7535,3079 7549,3078 7561,3079 7574,3081 7587,3080 7596,3076 7605,3071 7616,3069 7624,3074 7629,3081 7635,3088 7643,3097 7647,3107 7653,3115 7660,3124 7665,3130 7671,3139 7671,3148 7667,3165 7661,3181 7659,3194 7656,3210 7654,3221 7653,3231 7655,3244 7656,3257 7664,3262 7675,3267 7683,3277 7677,3279 7671,3281 7627,3279 7595,3277 7569,3279 7553,3287 7527,3303 7515,3315 7501,3333 7493,3339 7479,3343 7449,3345 7423,3343 7387,3341 7365,3337 7357,3331 7343,3319 7301,3303 7267,3293 7193,3281 7161,3295 7137,3275 7107,3283 7093,3283 7083,3279 7077,3269 7067,3249 7055,3245 7029,3261 6997,3241 6955,3231 6935,3231 6925,3239 6889,3273 6883,3273 6865,3237 6845,3219 6829,3225 6825,3233 6831,3239 6849,3271 6809,3305 6805,3331 6781,3335 6757,3341 6699,3353 6667,3355 6631,3361 6605,3365 6599,3371 6588,3399 6556,3374 6500,3345 6490,3381 6486,3383 6442,3389 6406,3375 6384,3395 6366,3391 6348,3387 6340,3365 6324,3351 6312,3335 6297,3320 6274,3331 6258,3319 6230,3313 6224,3295 6218,3289 6208,3291 6178,3303 6156,3291 6144,3293 6134,3303 6146,3327 6144,3335 6142,3339 6138,3341 6128,3339 6110,3327 6084,3301 6070,3293 6050,3293 6028,3301 6004,3311 5998,3313 5980,3325 5978,3333 5992,3355 5998,3371 6000,3387 5984,3417 5972,3437 5914,3535 5906,3547 5906,3569 5907,3598 5903,3595 5898,3594 5889,3598 5881,3603 5875,3604 5870,3600 5862,3595 5856,3591 5849,3591 5842,3593 5836,3595 5828,3596 5822,3593 5815,3589 5808,3586 5800,3581 5795,3578 5789,3575 5764,3603 5756,3621 5725,3633 5716,3637 5711,3639 5691,3631 5680,3623 5678,3618 5671,3609 5662,3595 5659,3591 5653,3583 5645,3576 5633,3568 5622,3563 5614,3558 5601,3551 5591,3544 5582,3543 5550,3558 5527,3572 5515,3577 5504,3577 5480,3569 5469,3560 5463,3558 5429,3554 5416,3555 5379,3567 5357,3576 5339,3581 5323,3572 5300,3569 5292,3564 5283,3555 5269,3529 5263,3522 5257,3520 5249,3514 5251,3508 5251,3497 5246,3489 5240,3490 5215,3484 5208,3467 5198,3456 5188,3453 5182,3445 5181,3439 5186,3420 5196,3396 5224,3379 5246,3355 5261,3335 5261,3326 5245,3324 5238,3321 5166,3313 5161,3306 5163,3296 5163,3283 5158,3277 5158,3270 5139,3248 5140,3239 5147,3234 5154,3219 5161,3216 5177,3214 5177,3204 5175,3195 5161,3167 5151,3140 5153,3111 5147,3093 5150,3081 5151,3063 5173,3058 5185,3042 5191,3031 5189,3020 5209,3011 5232,2986 5242,2986 5253,2983 5266,2970 5291,2935 5298,2920 5297,2911 5290,2896 5283,2889 5271,2884 5256,2873 5238,2839 5208,2820 5202,2809 5202,2797 5204,2787 5211,2769 5211,2763 5197,2746 5196,2740 5199,2729 5189,2714 5189,2707 5198,2678 5198,2671 5185,2652 5192,2638 5203,2631 5202,2625 5186,2621 5152,2616 5130,2607 5122,2600 5109,2592 5097,2570 5087,2555 5090,2555 5104,2543 5120,2523 5136,2499 5146,2473 5144,2465 5120,2435 5112,2421 5108,2403 5110,2399 5118,2387 5130,2369 5142,2367 5192,2393 5214,2393 5286,2367 5316,2347 5352,2355 5362,2359 5370,2357 5378,2353 5382,2345 5384,2327 5388,2317 5420,2283 5452,2255 5460,2251 5473,2252 5484,2257 5500,2261 5518,2251 5544,2225 5556,2205 5564,2201 5614,2195 5642,2187 5678,2141 5704,2115 5716,2107 5720,2097 5718,2083 5716,2069 5712,2055 5710,2043 5720,2027 5726,2011 5734,1991 5742,1987 5752,1985 5766,1983 5786,1977 5800,1961 5800,1943 5780,1913 5752,1875 5752,1863 5763,1814 5773,1811 5798,1819 5808,1819 5826,1814 5840,1816 5856,1814 5873,1808 5891,1813 5906,1812 5924,1796 5942,1786 5956,1787 5970,1793 5982,1795 6001,1794 6009,1792 6028,1805 6036,1803 6046,1796 6049,1785 6059,1773 6073,1778 " class="polyStyle" id="620824" style="fill:#f6f67b"/>
<polygon points="8003,1722 8017,1728 8025,1740 8029,1751 8038,1760 8070,1747 8091,1776 8102,1783 8118,1787 8166,1786 8182,1782 8196,1785 8227,1824 8237,1817 8273,1783 8283,1788 8289,1796 8298,1801 8306,1811 8315,1817 8349,1823 8379,1816 8399,1817 8417,1820 8433,1817 8446,1809 8459,1807 8470,1816 8483,1821 8492,1827 8515,1817 8528,1817 8534,1825 8530,1863 8534,1870 8545,1868 8561,1847 8570,1838 8584,1831 8590,1840 8600,1848 8605,1855 8616,1858 8664,1832 8677,1824 8689,1814 8705,1807 8717,1808 8726,1814 8745,1835 8759,1846 8789,1844 8800,1840 8823,1842 8825,1858 8824,1874 8823,1886 8824,1897 8819,1910 8818,1915 8823,1919 8836,1921 8865,1921 8874,1923 8877,1925 8877,1929 8877,1933 8886,1940 8894,1940 8904,1936 8911,1929 8914,1921 8907,1908 8907,1904 8908,1901 8911,1899 8921,1896 8937,1893 8946,1889 8964,1894 8980,1896 8992,1894 9006,1898 9017,1906 9033,1909 9052,1914 9066,1919 9078,1926 9088,1934 9101,1938 9119,1936 9132,1931 9147,1929 9160,1936 9167,1938 9179,1936 9188,1941 9194,1949 9202,1955 9215,1964 9221,1969 9233,1972 9252,1973 9258,1978 9257,1983 9257,1986 9254,1991 9235,2012 9231,2019 9233,2025 9241,2031 9256,2035 9273,2034 9283,2034 9295,2037 9303,2044 9310,2058 9310,2062 9309,2071 9298,2083 9292,2096 9292,2110 9292,2121 9290,2125 9284,2129 9276,2131 9263,2134 9248,2140 9232,2151 9218,2155 9206,2155 9191,2155 9182,2154 9172,2158 9164,2161 9157,2169 9149,2194 9143,2214 9135,2218 9119,2224 9105,2225 9095,2235 9094,2245 9096,2253 9100,2266 9096,2281 9098,2296 9103,2301 9108,2304 9139,2314 9147,2321 9152,2331 9150,2350 9150,2367 9158,2378 9173,2388 9207,2400 9236,2408 9251,2416 9255,2427 9255,2441 9251,2469 9245,2489 9238,2498 9237,2502 9238,2508 9244,2514 9257,2523 9264,2528 9277,2534 9284,2536 9291,2539 9296,2541 9304,2541 9313,2540 9322,2534 9334,2531 9345,2534 9355,2542 9362,2559 9362,2565 9362,2572 9362,2579 9361,2587 9363,2593 9374,2600 9359,2612 9349,2619 9336,2625 9325,2633 9317,2642 9313,2653 9306,2663 9289,2670 9274,2664 9258,2666 9253,2659 9252,2654 9245,2648 9238,2645 9232,2641 9230,2637 9219,2631 9204,2633 9197,2635 9190,2636 9183,2638 9176,2641 9170,2643 9163,2644 9156,2645 9149,2645 9142,2645 9135,2645 9129,2645 9118,2640 9109,2637 9092,2636 9071,2635 9060,2630 9042,2633 9034,2640 9029,2649 9019,2660 9001,2656 8992,2662 8984,2673 8975,2686 8963,2686 8949,2688 8937,2696 8928,2709 8913,2726 8896,2724 8887,2714 8873,2703 8866,2692 8856,2674 8849,2666 8835,2663 8815,2663 8808,2661 8807,2655 8809,2645 8811,2641 8817,2638 8831,2638 8836,2636 8837,2632 8835,2626 8832,2620 8826,2615 8822,2609 8818,2603 8814,2598 8807,2593 8800,2588 8796,2582 8793,2577 8793,2571 8790,2565 8787,2560 8784,2554 8782,2548 8780,2543 8776,2538 8773,2532 8766,2525 8761,2521 8739,2517 8722,2522 8704,2520 8686,2520 8663,2520 8641,2527 8622,2536 8613,2549 8608,2554 8610,2559 8607,2565 8609,2571 8607,2576 8609,2582 8609,2588 8609,2593 8610,2599 8610,2604 8611,2610 8611,2616 8611,2621 8610,2627 8616,2636 8624,2638 8631,2641 8638,2643 8645,2647 8646,2653 8649,2658 8654,2664 8661,2669 8666,2674 8668,2680 8672,2684 8676,2687 8680,2692 8680,2695 8679,2698 8674,2700 8659,2699 8653,2701 8640,2717 8636,2725 8637,2734 8639,2740 8642,2751 8648,2764 8652,2777 8653,2786 8646,2807 8645,2817 8645,2826 8644,2838 8644,2850 8645,2860 8645,2877 8639,2885 8630,2897 8627,2902 8626,2907 8626,2914 8629,2927 8634,2939 8634,2955 8624,2965 8614,2972 8611,2981 8602,2991 8590,2994 8577,2993 8576,2986 8576,2979 8576,2975 8573,2974 8569,2977 8560,2984 8548,2989 8532,2994 8513,2995 8499,3005 8491,3014 8467,3015 8454,3011 8445,3007 8426,3013 8409,3015 8400,3022 8397,3030 8389,3041 8375,3040 8369,3051 8368,3066 8372,3080 8373,3095 8377,3109 8380,3122 8380,3134 8370,3144 8356,3158 8346,3180 8342,3184 8336,3187 8328,3192 8323,3196 8320,3207 8320,3211 8321,3217 8323,3226 8328,3234 8342,3243 8344,3246 8345,3249 8344,3254 8339,3259 8339,3263 8339,3267 8344,3273 8349,3277 8356,3278 8377,3275 8388,3276 8392,3279 8392,3286 8392,3294 8392,3310 8395,3327 8401,3334 8425,3339 8453,3348 8463,3352 8475,3356 8489,3357 8508,3348 8522,3345 8532,3346 8544,3348 8560,3355 8566,3362 8571,3367 8571,3374 8570,3378 8576,3389 8587,3403 8587,3414 8586,3430 8594,3443 8597,3454 8596,3470 8592,3486 8600,3486 8609,3482 8615,3480 8619,3482 8620,3486 8624,3495 8625,3501 8625,3507 8620,3512 8603,3534 8598,3548 8596,3563 8595,3569 8596,3572 8595,3587 8584,3596 8568,3605 8559,3618 8533,3611 8505,3627 8499,3621 8519,3567 8523,3553 8523,3545 8493,3567 8481,3559 8475,3529 8465,3533 8457,3537 8447,3549 8445,3563 8443,3587 8435,3593 8427,3595 8399,3587 8375,3591 8345,3605 8319,3599 8315,3595 8315,3591 8317,3585 8325,3565 8325,3553 8321,3545 8295,3497 8261,3445 8223,3451 8199,3433 8223,3401 8215,3393 8183,3395 8153,3403 8125,3415 8081,3403 8051,3401 8039,3379 8011,3375 8003,3361 7991,3341 7989,3333 7963,3327 7949,3325 7939,3325 7935,3327 7929,3333 7919,3353 7915,3359 7905,3365 7895,3365 7853,3345 7833,3333 7829,3327 7827,3309 7829,3299 7821,3291 7789,3285 7767,3267 7719,3291 7703,3269 7695,3273 7683,3277 7675,3267 7664,3262 7656,3257 7655,3244 7653,3231 7654,3221 7656,3210 7659,3194 7661,3181 7667,3165 7671,3148 7671,3139 7665,3130 7660,3124 7653,3115 7647,3107 7643,3097 7635,3088 7629,3081 7624,3074 7616,3069 7605,3071 7596,3076 7587,3080 7574,3081 7561,3079 7549,3078 7535,3079 7518,3079 7504,3077 7497,3060 7485,3041 7467,3013 7457,3007 7447,3007 7431,3010 7419,3010 7412,3002 7415,2993 7414,2981 7413,2973 7401,2966 7392,2959 7387,2949 7391,2939 7399,2932 7408,2925 7420,2921 7425,2913 7423,2903 7415,2893 7412,2880 7408,2862 7415,2849 7426,2832 7432,2811 7439,2796 7445,2788 7456,2783 7464,2786 7477,2789 7491,2793 7499,2790 7506,2788 7526,2782 7542,2784 7557,2781 7562,2773 7563,2760 7560,2748 7555,2742 7547,2737 7537,2732 7526,2728 7515,2722 7505,2721 7493,2715 7479,2703 7474,2696 7471,2685 7471,2678 7475,2664 7487,2652 7502,2642 7514,2637 7516,2626 7516,2616 7519,2597 7525,2584 7535,2574 7542,2559 7542,2547 7538,2532 7530,2508 7525,2496 7518,2486 7516,2472 7512,2451 7511,2434 7511,2416 7511,2401 7516,2380 7535,2341 7539,2324 7539,2302 7528,2289 7511,2281 7494,2282 7487,2292 7480,2320 7473,2329 7456,2329 7442,2323 7401,2253 7388,2239 7379,2225 7373,2210 7377,2190 7385,2179 7408,2167 7430,2161 7453,2161 7475,2145 7485,2131 7498,2107 7522,2100 7544,2096 7567,2095 7578,2100 7591,2122 7601,2127 7618,2127 7627,2131 7617,2158 7629,2189 7642,2183 7656,2182 7676,2185 7692,2172 7709,2161 7728,2156 7757,2151 7756,2139 7738,2137 7741,2124 7740,2115 7730,2105 7710,2102 7694,2103 7662,2111 7656,2088 7647,2079 7622,2060 7618,2045 7613,2034 7598,2025 7580,2019 7567,2008 7545,1973 7536,1951 7531,1920 7536,1903 7548,1893 7568,1890 7636,1894 7653,1898 7660,1903 7669,1923 7684,1927 7706,1919 7717,1906 7723,1893 7736,1890 7753,1894 7770,1892 7788,1893 7806,1886 7817,1879 7822,1888 7832,1896 7845,1898 7857,1891 7872,1885 7886,1885 7901,1889 7912,1896 7924,1896 7932,1888 7931,1875 7925,1860 7906,1837 7904,1831 7916,1832 7921,1825 7900,1810 7898,1797 7903,1782 7897,1776 7893,1769 7896,1758 7906,1752 7923,1750 7945,1727 7961,1703 7971,1700 7991,1712 " class="polyStyle" id="620823" style="fill:#ee8b94"/>
<path d="" class="polyStyle" id="632323" style="fill:#f6f67b"/>
<polygon points="9584,1152 9601,1158 9615,1158 9623,1162 9649,1167 9680,1160 9706,1158 9726,1158 9737,1155 9756,1155 9773,1160 9780,1171 9778,1189 9777,1203 9776,1210 9788,1223 9808,1230 9828,1235 9848,1241 9866,1248 9872,1258 9880,1274 9886,1288 9901,1300 9918,1310 9932,1317 9950,1317 9957,1307 9966,1303 9977,1310 9996,1311 10009,1308 10017,1300 10025,1279 10035,1270 10049,1269 10063,1271 10073,1279 10089,1288 10107,1293 10123,1297 10146,1301 10157,1306 10175,1314 10187,1325 10204,1333 10223,1330 10231,1318 10232,1304 10242,1292 10257,1279 10266,1267 10262,1255 10253,1245 10253,1234 10262,1224 10271,1230 10281,1238 10287,1249 10294,1256 10311,1256 10326,1254 10334,1242 10348,1234 10367,1239 10388,1246 10402,1255 10411,1262 10422,1273 10432,1271 10438,1265 10449,1265 10462,1272 10470,1281 10487,1280 10499,1276 10512,1279 10517,1288 10509,1298 10510,1311 10515,1321 10529,1327 10543,1328 10565,1332 10575,1338 10594,1341 10613,1338 10627,1336 10640,1344 10640,1357 10635,1373 10634,1390 10635,1405 10639,1420 10642,1434 10650,1448 10669,1455 10718,1455 10734,1453 10749,1455 10772,1448 10786,1429 10796,1410 10797,1388 10787,1369 10782,1353 10787,1338 10811,1328 10835,1322 10855,1310 10867,1293 10878,1282 10888,1270 10898,1257 10909,1245 10919,1231 10925,1229 10932,1231 10960,1241 10982,1248 10992,1268 10996,1282 10997,1303 10999,1321 11002,1340 11008,1351 11018,1362 11045,1373 11070,1376 11087,1375 11101,1376 11111,1387 11110,1401 11112,1416 11122,1429 11121,1448 11124,1457 11140,1455 11156,1443 11178,1438 11213,1427 11227,1416 11233,1410 11232,1403 11224,1396 11190,1372 11184,1356 11185,1347 11194,1334 11204,1328 11242,1311 11281,1307 11273,1313 11265,1318 11266,1324 11272,1332 11280,1347 11280,1355 11273,1358 11259,1364 11251,1378 11249,1393 11248,1408 11246,1422 11246,1435 11254,1445 11266,1459 11277,1467 11289,1469 11301,1470 11309,1465 11318,1456 11349,1436 11358,1434 11367,1437 11383,1448 11394,1460 11401,1469 11397,1479 11391,1486 11397,1496 11424,1511 11438,1519 11449,1529 11449,1537 11447,1545 11436,1559 11436,1569 11447,1583 11462,1597 11477,1609 11489,1611 11497,1610 11506,1604 11517,1596 11527,1595 11536,1598 11548,1598 11561,1595 11568,1596 11580,1601 11592,1606 11600,1605 11605,1595 11608,1587 11616,1584 11623,1589 11630,1594 11637,1593 11640,1586 11639,1581 11646,1569 11655,1569 11660,1572 11663,1585 11661,1590 11662,1595 11667,1599 11681,1599 11688,1598 11695,1598 11702,1598 11709,1599 11715,1600 11722,1602 11736,1612 11742,1619 11749,1621 11756,1622 11762,1623 11769,1624 11776,1625 11782,1631 11793,1653 11797,1663 11793,1670 11790,1676 11784,1681 11774,1692 11768,1698 11761,1709 11759,1716 11761,1722 11768,1727 11773,1726 11778,1739 11769,1755 11760,1763 11773,1775 11774,1789 11764,1797 11753,1812 11754,1829 11761,1850 11771,1865 11788,1874 11803,1884 11804,1895 11810,1908 11824,1916 11832,1927 11841,1938 11853,1945 11868,1951 11873,1965 11876,1978 11892,1983 11899,1982 11906,1981 11912,1979 11919,1976 11926,1973 11933,1972 11940,1973 11950,1977 11956,1986 11959,1995 11959,2002 11973,2008 11985,2021 11990,2030 11992,2036 11991,2047 11984,2066 11969,2081 11964,2089 11956,2096 11950,2106 11957,2117 11964,2123 11966,2134 11966,2141 11970,2152 11983,2163 11993,2168 11996,2175 11999,2183 11969,2193 11931,2211 11901,2221 11875,2227 11851,2229 11843,2235 11829,2247 11823,2257 11817,2267 11819,2275 11831,2283 11843,2281 11855,2277 11863,2271 11877,2249 11889,2245 11905,2245 11919,2247 11943,2255 11969,2267 11981,2271 11983,2281 11979,2291 11947,2361 11983,2353 11981,2377 11965,2395 11949,2409 11941,2409 11935,2409 11931,2409 11925,2393 11921,2389 11907,2387 11887,2389 11881,2391 11873,2397 11855,2423 11885,2427 11917,2419 11917,2427 11887,2455 11835,2441 11819,2461 11841,2481 11849,2499 11861,2499 11877,2491 11889,2495 11895,2501 11891,2507 11889,2511 11881,2519 11865,2529 11853,2535 11835,2535 11821,2529 11809,2525 11799,2517 11797,2505 11797,2475 11771,2459 11757,2463 11743,2489 11727,2487 11709,2489 11677,2483 11653,2477 11619,2467 11599,2461 11591,2463 11583,2469 11555,2497 11543,2513 11533,2535 11533,2541 11573,2537 11587,2559 11559,2589 11566,2592 11586,2614 11614,2662 11622,2674 11676,2652 11692,2652 11700,2656 11710,2662 11718,2676 11722,2684 11728,2722 11722,2753 11715,2752 11705,2753 11696,2758 11683,2770 11670,2778 11659,2784 11646,2789 11632,2790 11618,2789 11599,2788 11587,2788 11575,2789 11565,2790 11553,2793 11539,2789 11530,2777 11518,2771 11502,2772 11488,2773 11473,2786 11461,2794 11451,2802 11440,2802 11417,2801 11399,2800 11384,2799 11368,2804 11364,2814 11357,2820 11349,2817 11342,2810 11326,2813 11307,2820 11301,2820 11290,2819 11275,2818 11260,2818 11239,2827 11230,2845 11219,2850 11214,2852 11204,2852 11194,2848 11187,2841 11170,2832 11154,2831 11135,2819 11117,2807 11102,2796 11080,2789 11056,2781 11034,2777 11015,2777 10998,2775 10991,2764 10985,2747 10985,2731 10984,2714 10981,2699 10974,2695 10965,2696 10954,2700 10941,2706 10938,2695 10935,2689 10927,2685 10909,2685 10890,2686 10872,2688 10857,2689 10839,2685 10821,2676 10803,2676 10788,2680 10778,2683 10767,2684 10754,2682 10740,2685 10728,2688 10714,2687 10697,2682 10679,2674 10665,2662 10658,2653 10642,2645 10624,2641 10608,2637 10600,2627 10596,2616 10591,2596 10587,2592 10574,2589 10563,2589 10547,2589 10526,2591 10499,2596 10482,2603 10460,2608 10447,2614 10436,2623 10423,2632 10410,2640 10390,2647 10377,2641 10363,2640 10354,2645 10344,2650 10328,2650 10312,2651 10298,2648 10283,2648 10271,2655 10249,2673 10241,2682 10229,2699 10226,2702 10221,2705 10208,2707 10159,2703 10152,2703 10140,2704 10130,2710 10122,2714 10101,2712 10080,2706 10055,2706 10039,2707 10035,2709 10025,2716 10013,2739 9996,2755 9982,2761 9973,2760 9964,2754 9956,2732 9947,2724 9935,2717 9921,2708 9908,2701 9900,2699 9886,2698 9819,2703 9795,2704 9775,2708 9760,2707 9753,2700 9752,2691 9750,2681 9741,2675 9728,2670 9720,2660 9720,2650 9723,2637 9723,2625 9720,2614 9710,2604 9696,2595 9684,2589 9671,2586 9660,2588 9657,2593 9648,2598 9641,2605 9635,2623 9627,2636 9614,2648 9606,2661 9604,2670 9603,2678 9603,2683 9605,2688 9625,2697 9628,2700 9628,2705 9628,2708 9619,2718 9613,2731 9609,2737 9603,2738 9593,2734 9582,2712 9576,2689 9566,2682 9547,2678 9541,2678 9538,2685 9532,2684 9528,2680 9521,2675 9514,2670 9508,2667 9501,2663 9494,2661 9480,2657 9473,2653 9466,2649 9459,2645 9453,2642 9448,2640 9437,2632 9433,2627 9430,2627 9424,2622 9417,2620 9410,2616 9403,2614 9396,2613 9389,2609 9382,2603 9374,2600 9363,2593 9361,2587 9362,2579 9362,2572 9362,2565 9362,2559 9355,2542 9345,2534 9334,2531 9322,2534 9313,2540 9304,2541 9296,2541 9291,2539 9284,2536 9277,2534 9264,2528 9257,2523 9244,2514 9238,2508 9237,2502 9238,2498 9245,2489 9251,2469 9255,2441 9255,2427 9251,2416 9236,2408 9207,2400 9173,2388 9158,2378 9150,2367 9150,2350 9152,2331 9147,2321 9139,2314 9108,2304 9103,2301 9098,2296 9096,2281 9100,2266 9096,2253 9094,2245 9095,2235 9105,2225 9119,2224 9135,2218 9143,2214 9149,2194 9157,2169 9164,2161 9172,2158 9182,2154 9191,2155 9206,2155 9218,2155 9232,2151 9248,2140 9263,2134 9276,2131 9284,2129 9290,2125 9292,2121 9292,2110 9292,2096 9298,2083 9309,2071 9310,2062 9310,2058 9303,2044 9295,2037 9283,2034 9273,2034 9256,2035 9241,2031 9233,2025 9231,2019 9235,2012 9254,1991 9257,1986 9257,1983 9258,1978 9252,1973 9233,1972 9221,1969 9215,1964 9202,1955 9194,1949 9188,1941 9179,1936 9167,1938 9160,1936 9147,1929 9132,1931 9119,1936 9101,1938 9088,1934 9078,1926 9066,1919 9052,1914 9033,1909 9017,1906 9006,1898 8992,1894 8980,1896 8964,1894 8946,1889 8937,1893 8921,1896 8911,1899 8908,1901 8907,1904 8907,1908 8914,1921 8911,1929 8904,1936 8894,1940 8886,1940 8877,1933 8877,1929 8877,1925 8874,1923 8865,1921 8836,1921 8823,1919 8818,1915 8819,1910 8824,1897 8823,1886 8824,1874 8825,1858 8823,1842 8829,1844 8833,1845 8846,1845 8854,1839 8863,1829 8872,1819 8876,1807 8880,1790 8887,1771 8891,1753 8897,1745 8901,1742 8916,1748 8938,1755 8986,1756 9000,1757 9022,1770 9036,1779 9048,1787 9056,1790 9072,1790 9078,1790 9092,1794 9099,1797 9107,1804 9114,1803 9120,1804 9135,1809 9146,1800 9152,1787 9142,1774 9131,1758 9132,1750 9139,1728 9136,1709 9134,1691 9138,1660 9144,1634 9138,1621 9136,1610 9131,1603 9118,1597 9110,1592 9109,1579 9112,1567 9116,1559 9118,1552 9121,1545 9128,1547 9140,1552 9150,1556 9165,1559 9180,1557 9197,1553 9212,1546 9225,1539 9233,1529 9239,1519 9240,1512 9239,1502 9232,1499 9225,1497 9222,1490 9218,1485 9212,1479 9205,1473 9198,1470 9192,1468 9185,1466 9170,1457 9166,1452 9152,1442 9144,1438 9139,1431 9137,1426 9129,1420 9124,1414 9121,1408 9139,1401 9149,1392 9156,1373 9164,1357 9173,1339 9178,1325 9172,1308 9155,1293 9147,1276 9146,1265 9155,1247 9167,1232 9178,1221 9183,1210 9187,1192 9188,1176 9199,1167 9206,1158 9211,1149 9220,1149 9243,1165 9249,1175 9254,1189 9262,1200 9285,1202 9306,1200 9334,1194 9358,1192 9376,1183 9405,1180 9415,1182 9424,1181 9430,1179 9439,1179 9446,1184 9446,1193 9436,1207 9442,1215 9451,1217 9457,1221 9461,1231 9470,1236 9477,1233 9489,1227 9495,1227 9505,1228 9514,1233 9516,1245 9516,1251 9522,1254 9529,1256 9537,1255 9545,1253 9552,1248 9556,1241 9562,1227 9562,1221 9551,1213 9546,1185 9546,1170 9548,1158 9544,1148 9543,1141 9547,1134 9556,1133 9568,1141 " class="polyStyle" id="620821" style="fill:#d4ecb2"/>
<path d="" class="polyStyle" id="140525" style="fill:#d4ecb2"/>
<polygon points="1641,21 1659,59 1683,53 1709,55 1753,73 1777,77 1795,73 1813,59 1827,47 1843,43 1861,45 1871,57 1919,85 1953,125 1973,121 1987,89 2007,83 2035,83 2049,87 2055,93 2061,99 2067,105 2071,121 2071,127 2067,141 2056,160 2045,173 2033,189 2003,213 1995,227 1983,249 1977,253 1963,255 1951,253 1939,251 1919,243 1915,239 1911,229 1909,217 1909,203 1909,175 1909,169 1907,153 1901,123 1893,115 1875,117 1861,125 1845,155 1833,179 1819,195 1787,217 1771,227 1759,231 1739,241 1729,251 1721,271 1721,313 1729,325 1733,325 1751,327 1781,321 1797,315 1805,325 1813,343 1821,355 1831,359 1859,351 1871,345 1883,355 1887,365 1889,385 1889,397 1881,415 1875,427 1869,441 1857,461 1841,483 1839,493 1839,503 1842,513 1853,519 1873,529 1905,547 1933,557 1969,565 1977,569 1979,577 1971,587 1969,595 1971,601 1979,609 2003,623 2017,627 2023,625 2039,613 2063,593 2075,587 2087,585 2093,591 2091,603 2079,633 2067,657 2045,667 2017,667 2011,667 2001,673 2001,681 2023,697 2053,713 2081,735 2155,743 2175,751 2191,755 2188,762 2191,776 2202,791 2202,800 2196,804 2187,805 2172,802 2161,805 2156,810 2157,817 2162,824 2173,827 2209,855 2233,885 2257,907 2271,919 2279,919 2291,917 2327,895 2342,874 2353,866 2359,871 2395,947 2383,987 2383,1027 2383,1047 2385,1055 2391,1055 2401,1053 2419,1045 2431,1043 2441,1047 2449,1053 2455,1075 2447,1153 2437,1179 2441,1219 2437,1233 2443,1265 2451,1279 2471,1287 2501,1285 2523,1271 2559,1193 2577,1149 2589,1107 2593,1085 2599,1067 2605,1047 2611,1041 2621,1039 2641,1047 2657,1049 2679,1041 2697,1027 2727,1007 2759,1007 2783,1009 2827,1035 2889,1059 2933,1067 2999,1063 3011,1063 3065,1063 3081,1065 3107,1071 3133,1077 3191,1093 3227,1103 3243,1109 3257,1115 3265,1129 3281,1157 3293,1165 3305,1155 3315,1127 3323,1119 3343,1123 3355,1139 3359,1153 3361,1169 3355,1189 3355,1195 3351,1197 3339,1195 3329,1193 3317,1195 3315,1205 3325,1233 3355,1265 3373,1277 3421,1271 3467,1259 3585,1227 3605,1229 3615,1233 3613,1263 3615,1273 3631,1273 3671,1249 3665,1233 3661,1229 3649,1209 3655,1203 3697,1187 3707,1189 3717,1191 3729,1193 3743,1199 3755,1215 3761,1221 3763,1237 3761,1243 3751,1255 3710,1296 3703,1299 3691,1303 3669,1303 3633,1297 3605,1305 3605,1309 3609,1329 3627,1375 3631,1395 3633,1407 3631,1423 3627,1431 3615,1430 3580,1441 3548,1468 3538,1431 3534,1419 3534,1413 3534,1379 3540,1365 3558,1343 3560,1333 3566,1319 3566,1305 3564,1302 3553,1302 3539,1302 3526,1306 3512,1306 3498,1304 3484,1304 3471,1310 3457,1309 3443,1311 3429,1312 3415,1314 3414,1325 3410,1331 3400,1340 3386,1342 3372,1343 3359,1351 3345,1346 3331,1351 3325,1352 3319,1353 3310,1353 3297,1355 3283,1355 3269,1355 3258,1355 3205,1368 3167,1380 3148,1391 3138,1393 3122,1397 3106,1403 3086,1411 3068,1419 3054,1421 3006,1431 2950,1445 2924,1451 2910,1457 2908,1465 2911,1493 2906,1495 2877,1494 2864,1496 2850,1479 2844,1475 2832,1469 2818,1469 2798,1473 2790,1477 2774,1483 2756,1491 2746,1499 2732,1513 2726,1523 2724,1535 2722,1555 2726,1577 2728,1585 2734,1609 2738,1633 2742,1667 2752,1681 2759,1684 2757,1699 2753,1707 2750,1713 2743,1716 2736,1717 2732,1719 2728,1723 2728,1728 2727,1734 2728,1738 2730,1741 2740,1739 2767,1741 2771,1745 2774,1748 2774,1755 2774,1765 2767,1777 2713,1839 2704,1848 2696,1851 2690,1848 2684,1834 2681,1829 2676,1824 2669,1820 2664,1819 2660,1822 2655,1831 2653,1839 2649,1846 2646,1852 2640,1857 2640,1862 2641,1869 2648,1876 2652,1884 2653,1890 2651,1896 2648,1897 2641,1895 2632,1890 2626,1887 2621,1886 2615,1886 2611,1887 2607,1894 2609,1902 2614,1910 2617,1917 2619,1922 2620,1929 2616,1937 2609,1944 2584,1962 2561,1973 2545,1976 2533,1979 2528,1981 2520,1987 2516,1995 2523,2005 2525,2008 2527,2019 2540,2014 2545,2016 2556,2023 2566,2026 2569,2030 2565,2033 2561,2039 2560,2044 2566,2044 2573,2046 2573,2050 2559,2060 2547,2068 2545,2073 2549,2078 2559,2092 2575,2118 2578,2130 2578,2142 2572,2152 2569,2163 2574,2173 2584,2180 2590,2182 2603,2185 2614,2191 2615,2195 2610,2199 2603,2204 2605,2213 2615,2232 2624,2249 2625,2258 2620,2270 2628,2282 2625,2295 2627,2303 2637,2314 2633,2319 2616,2318 2605,2318 2593,2323 2590,2320 2590,2316 2587,2311 2583,2313 2581,2321 2582,2331 2578,2334 2565,2335 2560,2338 2550,2339 2553,2343 2561,2350 2561,2356 2559,2361 2553,2355 2545,2352 2538,2355 2535,2359 2537,2369 2541,2379 2542,2397 2541,2408 2530,2413 2518,2413 2512,2409 2507,2403 2492,2404 2478,2394 2466,2396 2458,2412 2458,2418 2457,2430 2452,2436 2448,2444 2451,2455 2461,2466 2460,2469 2456,2474 2442,2472 2436,2474 2434,2479 2439,2483 2445,2491 2439,2498 2428,2504 2421,2511 2410,2520 2404,2530 2408,2532 2415,2531 2418,2532 2420,2540 2413,2552 2414,2558 2419,2562 2405,2591 2398,2605 2386,2621 2392,2634 2384,2639 2375,2649 2370,2657 2367,2665 2363,2672 2354,2676 2343,2677 2334,2679 2326,2679 2319,2678 2310,2679 2305,2684 2303,2693 2302,2702 2299,2711 2288,2717 2276,2721 2267,2723 2261,2726 2258,2731 2260,2738 2266,2744 2274,2755 2279,2762 2282,2767 2284,2775 2277,2778 2270,2783 2267,2789 2262,2794 2258,2797 2251,2801 2245,2803 2238,2803 2230,2805 2222,2812 2190,2855 2177,2876 2177,2883 2177,2890 2181,2900 2187,2907 2191,2914 2193,2922 2191,2929 2189,2936 2188,2943 2187,2952 2189,2962 2193,2972 2197,2978 2197,2982 2195,2988 2191,2995 2180,3002 2170,3007 2163,3015 2160,3024 2156,3043 2155,3060 2157,3068 2158,3075 2153,3085 2146,3097 2142,3106 2141,3112 2146,3121 2153,3128 2161,3136 2176,3144 2184,3148 2191,3151 2192,3158 2185,3163 2181,3168 2181,3172 2188,3176 2198,3174 2215,3170 2220,3169 2228,3171 2235,3173 2239,3176 2247,3191 2259,3208 2266,3221 2267,3233 2267,3246 2265,3260 2264,3272 2259,3282 2251,3286 2241,3288 2227,3289 2218,3288 2211,3291 2208,3293 2207,3300 2210,3311 2213,3323 2218,3338 2221,3353 2219,3362 2210,3365 2195,3376 2194,3382 2205,3396 2199,3399 2184,3411 2180,3418 2181,3425 2190,3430 2194,3437 2194,3448 2192,3458 2183,3480 2153,3529 2151,3539 2152,3545 2163,3551 2179,3545 2203,3533 2213,3533 2219,3538 2213,3580 2193,3606 2173,3611 2145,3622 2095,3637 2083,3636 2070,3630 2049,3626 2038,3633 2032,3644 2023,3652 2018,3645 2019,3638 2015,3625 1986,3600 1974,3593 1971,3583 1967,3577 1973,3570 1988,3559 1997,3548 2000,3535 1998,3520 1990,3503 1987,3490 1980,3482 1970,3481 1953,3486 1942,3493 1936,3499 1928,3516 1932,3525 1937,3564 1939,3570 1935,3578 1925,3582 1914,3586 1903,3587 1890,3583 1880,3568 1875,3548 1866,3525 1858,3518 1848,3513 1842,3512 1835,3517 1828,3537 1827,3550 1821,3553 1809,3550 1802,3512 1809,3493 1810,3484 1808,3472 1812,3463 1815,3441 1809,3421 1783,3373 1765,3365 1737,3356 1702,3342 1680,3330 1658,3304 1636,3272 1618,3258 1592,3247 1565,3249 1532,3249 1522,3247 1502,3224 1497,3200 1499,3186 1493,3180 1470,3189 1463,3190 1457,3190 1451,3183 1451,3176 1458,3154 1459,3145 1459,3130 1453,3115 1452,3108 1454,3101 1466,3098 1473,3091 1474,3083 1482,3073 1491,3065 1493,3056 1492,3044 1499,3007 1508,2988 1509,2971 1490,2954 1474,2946 1464,2932 1450,2906 1449,2899 1454,2890 1449,2880 1438,2875 1429,2879 1422,2879 1395,2873 1357,2876 1346,2874 1345,2864 1348,2858 1356,2850 1368,2842 1377,2830 1378,2824 1377,2809 1373,2800 1368,2793 1353,2782 1346,2779 1337,2769 1333,2753 1332,2740 1358,2734 1360,2727 1357,2719 1353,2696 1357,2617 1351,2612 1337,2614 1323,2619 1313,2619 1306,2622 1298,2630 1277,2641 1229,2659 1219,2667 1198,2691 1189,2710 1177,2723 1165,2730 1147,2734 1136,2727 1122,2710 1096,2658 1093,2646 1077,2625 1057,2589 1044,2576 1043,2568 1048,2554 1050,2541 1042,2530 1035,2527 1019,2528 1007,2525 1004,2517 1004,2502 996,2490 974,2469 963,2453 959,2444 964,2435 988,2423 993,2415 995,2361 994,2351 993,2343 979,2318 981,2310 989,2304 995,2303 1015,2304 1025,2303 1032,2301 1039,2295 1045,2286 1052,2245 1050,2233 1043,2225 1035,2223 990,2242 980,2241 962,2231 954,2224 948,2212 946,2202 939,2192 913,2192 909,2186 913,2179 922,2170 922,2162 926,2153 928,2143 937,2127 945,2091 965,2079 970,2069 990,2064 993,2058 984,2045 985,2039 979,2030 960,2023 915,2014 891,1997 879,1994 866,1993 844,1996 843,1988 853,1983 857,1973 855,1967 848,1966 831,1977 818,1980 809,1976 793,1962 780,1956 774,1955 764,1960 757,1966 748,1965 756,1941 756,1918 750,1910 728,1871 725,1863 728,1849 743,1833 726,1812 690,1800 682,1800 658,1810 646,1824 644,1839 649,1852 673,1869 670,1878 664,1885 658,1896 655,1906 652,1936 666,1975 663,1987 659,1993 653,1998 625,2011 610,2016 595,2017 584,2017 569,2014 553,2004 527,1978 522,1968 520,1958 525,1952 550,1938 548,1920 545,1912 539,1908 530,1906 514,1919 507,1930 500,1948 491,1956 475,1963 464,1966 450,1967 432,1965 434,1959 477,1938 482,1932 483,1924 480,1912 474,1899 472,1888 463,1869 456,1863 430,1857 424,1849 422,1840 423,1832 409,1805 405,1794 405,1783 402,1766 396,1763 361,1757 351,1753 348,1745 343,1714 335,1701 328,1696 322,1694 309,1694 287,1691 242,1657 208,1627 209,1615 220,1589 223,1578 221,1562 215,1543 213,1506 203,1482 194,1474 181,1465 154,1458 143,1450 142,1442 144,1430 142,1417 139,1409 132,1401 109,1382 72,1370 53,1371 37,1385 28,1387 18,1380 12,1371 0,1321 50,1269 64,1265 97,1266 104,1269 122,1273 143,1292 174,1301 194,1300 242,1282 263,1277 283,1279 299,1277 310,1284 320,1286 326,1284 335,1285 347,1292 353,1298 362,1297 365,1283 343,1248 289,1183 287,1177 287,1167 293,1155 322,1115 325,1104 327,1083 343,1081 361,1083 368,1082 377,1075 397,1075 426,1082 445,1066 456,1042 478,1028 501,1023 520,1027 543,1015 576,1025 597,1024 619,1009 638,1001 644,992 640,982 641,967 644,961 645,941 636,926 635,910 654,887 655,878 654,862 656,851 667,820 656,791 656,784 659,774 659,765 654,742 661,737 694,723 707,720 717,721 725,724 746,740 761,738 767,732 771,717 777,709 784,715 787,723 794,729 800,725 819,719 833,717 847,719 861,715 893,698 896,688 885,679 877,681 843,682 827,677 819,670 806,648 794,632 768,615 732,580 720,572 716,560 706,552 700,544 695,526 683,501 675,494 668,492 659,492 644,479 641,453 637,447 603,437 588,407 589,401 596,392 597,379 596,372 585,361 578,356 565,351 560,345 558,328 560,320 552,287 547,278 531,261 528,255 527,239 528,221 543,202 545,193 542,179 539,173 542,165 556,159 565,144 571,141 598,143 609,145 618,149 658,143 667,139 677,124 681,112 699,117 725,115 741,121 765,135 791,155 803,159 825,159 837,153 871,127 889,117 907,111 925,109 953,139 969,151 985,133 995,121 1005,103 1019,99 1031,105 1047,113 1091,147 1109,157 1113,173 1105,187 1081,231 1071,251 1073,271 1081,285 1094,302 1099,305 1111,303 1129,297 1145,277 1169,239 1175,227 1153,185 1167,169 1189,165 1235,165 1251,163 1258,162 1261,159 1255,145 1253,135 1261,129 1283,121 1307,117 1318,116 1329,113 1343,109 1356,105 1370,102 1384,101 1398,95 1408,87 1417,83 1426,81 1434,80 1438,71 1449,69 1456,69 1460,64 1466,55 1474,50 1484,47 1498,46 1511,45 1518,34 1532,32 1545,26 1558,22 1572,19 1586,12 1600,10 1612,8 1618,0 1635,5 " class="polyStyle" id="620826" style="fill:#f6f67b"/>
<path d="" class="polyStyle" id="410922" style="fill:#ee8b94"/>
<path d="" class="polyStyle" id="621027" style="fill:#ee8b94"/>
<path d="" class="polyStyle" id="130427" style="fill:#f6f67b"/>
<path d="" class="polyStyle" id="130121" style="fill:#ee8b94"/>
<path d="" class="polyStyle" id="610823" style="fill:#fbe6ef"/>
<path d="" class="polyStyle" id="130225" style="fill:#fbe6ef"/>
<path d="" class="polyStyle" id="130322" style="fill:#d4ecb2"/>
<path d="" class="polyStyle" id="653130" style="fill:#f6f67b"/>
<path d="" class="polyStyle" id="130822" style="fill:#fbe6ef"/>
<path d="" class="polyStyle" id="211221" style="fill:#f6f67b"/>
<path d="" class="polyStyle" id="210921" style="fill:#f6f67b"/>
<path d="" class="polyStyle" id="150223" style="fill:#f8c67d"/>
<path d="" class="polyStyle" id="220422" style="fill:#d4ecb2"/>
<path d="" class="polyStyle" id="340721" style="fill:#f6f67b"/>
<path d="" class="polyStyle" id="510824" style="fill:#d4ecb2"/>
<path d="" class="polyStyle" id="610324" style="fill:#f6f67b"/>
<path d="" class="polyStyle" id="530722" style="fill:#ee8b94"/>
<path d="" class="polyStyle" id="340823" style="fill:#d4ecb2"/>
<path d="M4474,1699 L4477,1707 L4478,1709 L4478,1721 L4478,1755 L4478,1763 L4478,1769 L4480,1789 L4484,1809 L4484,1841 L4486,1859 L4500,1867 L4514,1865 L4518,1869 L4522,1873 L4526,1889 L4528,1903 L4528,1909 L4520,1917 L4508,1925 L4482,1945 L4480,1951 L4480,1957 L4484,1967 L4488,1973 L4514,1991 L4528,2007 L4532,2023 L4534,2045 L4546,2063 L4560,2073 L4572,2085 L4582,2091 L4594,2095 L4610,2095 L4644,2101 L4652,2105 L4664,2127 L4680,2155 L4708,2185 L4710,2195 L4710,2211 L4704,2223 L4710,2241 L4722,2257 L4736,2269 L4748,2283 L4772,2303 L4784,2305 L4804,2301 L4814,2301 L4826,2307 L4830,2311 L4834,2321 L4852,2341 L4876,2355 L4878,2359 L4880,2369 L4878,2375 L4872,2389 L4868,2397 L4866,2405 L4868,2413 L4876,2421 L4888,2423 L4906,2429 L4918,2443 L4936,2485 L4944,2493 L4948,2495 L4960,2495 L4984,2487 L4990,2487 L4996,2485 L5006,2485 L5012,2485 L5016,2487 L5022,2491 L5032,2515 L5036,2523 L5040,2531 L5052,2545 L5070,2551 L5082,2555 L5087,2555 L5097,2570 L5109,2592 L5122,2600 L5130,2607 L5152,2616 L5186,2621 L5202,2625 L5203,2631 L5192,2638 L5185,2652 L5198,2671 L5198,2678 L5189,2707 L5189,2714 L5199,2729 L5196,2740 L5197,2746 L5211,2763 L5211,2769 L5204,2787 L5202,2797 L5202,2809 L5208,2820 L5238,2839 L5256,2873 L5271,2884 L5283,2889 L5290,2896 L5297,2911 L5298,2920 L5291,2935 L5266,2970 L5253,2983 L5242,2986 L5232,2986 L5209,3011 L5189,3020 L5191,3031 L5185,3042 L5173,3058 L5151,3063 L5141,3065 L5129,3063 L5110,3058 L5104,3061 L5093,3070 L5080,3076 L5066,3079 L5060,3075 L5053,3073 L5025,3089 L5015,3087 L5008,3088 L4995,3096 L4966,3127 L4945,3139 L4936,3138 L4923,3133 L4914,3135 L4904,3143 L4887,3149 L4867,3162 L4856,3163 L4849,3154 L4847,3141 L4858,3118 L4860,3110 L4855,3103 L4854,3095 L4865,3087 L4864,3079 L4860,3070 L4850,3073 L4830,3072 L4823,3076 L4817,3077 L4808,3076 L4801,3048 L4803,3024 L4797,3003 L4787,2993 L4740,2964 L4722,2962 L4706,2955 L4692,2951 L4685,2944 L4680,2935 L4666,2917 L4661,2901 L4645,2886 L4622,2892 L4605,2886 L4598,2888 L4584,2906 L4573,2911 L4560,2906 L4521,2901 L4512,2905 L4511,2914 L4506,2921 L4481,2945 L4463,2951 L4452,2951 L4432,2960 L4401,2963 L4385,2967 L4369,2978 L4363,2978 L4351,2974 L4344,2977 L4337,2984 L4330,2984 L4324,2980 L4310,2962 L4299,2953 L4274,2952 L4256,2945 L4241,2934 L4215,2931 L4191,2918 L4182,2917 L4179,2923 L4177,2949 L4164,2980 L4151,2998 L4134,3007 L4126,3018 L4125,3033 L4112,3048 L4100,3056 L4089,3076 L4088,3088 L4102,3129 L4096,3138 L4068,3144 L4060,3136 L4041,3107 L4035,3095 L4027,3089 L4016,3084 L4013,3078 L4014,3070 L4027,3037 L4026,3019 L4023,3013 L4010,3009 L4000,3009 L3988,3013 L3976,3022 L3971,3034 L3971,3050 L3976,3060 L3982,3065 L3978,3075 L3962,3077 L3938,3083 L3910,3094 L3875,3114 L3859,3128 L3812,3137 L3803,3140 L3789,3148 L3736,3172 L3708,3173 L3697,3171 L3632,3147 L3611,3141 L3593,3129 L3581,3130 L3567,3141 L3551,3160 L3536,3181 L3525,3192 L3501,3208 L3484,3214 L3468,3226 L3463,3235 L3456,3241 L3440,3247 L3431,3259 L3428,3266 L3413,3283 L3400,3286 L3381,3282 L3366,3283 L3349,3296 L3340,3292 L3331,3295 L3315,3307 L3293,3313 L3283,3314 L3277,3310 L3280,3303 L3286,3295 L3299,3288 L3309,3286 L3330,3274 L3339,3256 L3342,3246 L3342,3236 L3337,3228 L3310,3233 L3304,3231 L3304,3224 L3297,3216 L3280,3209 L3249,3188 L3243,3182 L3237,3154 L3224,3146 L3207,3150 L3195,3151 L3179,3148 L3167,3156 L3167,3162 L3157,3175 L3100,3226 L3089,3250 L3079,3257 L3053,3256 L3014,3265 L2986,3258 L2972,3260 L2963,3258 L2947,3262 L2947,3300 L2943,3332 L2942,3356 L2937,3369 L2935,3387 L2949,3408 L2951,3416 L2950,3425 L2944,3432 L2928,3431 L2918,3443 L2878,3434 L2871,3428 L2863,3418 L2852,3414 L2832,3418 L2818,3418 L2811,3412 L2800,3409 L2773,3420 L2767,3427 L2769,3441 L2776,3448 L2781,3459 L2781,3468 L2775,3483 L2767,3483 L2763,3477 L2764,3461 L2756,3446 L2744,3445 L2732,3449 L2723,3455 L2720,3465 L2711,3484 L2701,3489 L2681,3489 L2666,3488 L2636,3478 L2623,3476 L2592,3478 L2580,3476 L2563,3458 L2557,3455 L2539,3457 L2524,3455 L2518,3451 L2514,3441 L2512,3428 L2496,3390 L2481,3387 L2422,3394 L2404,3398 L2399,3406 L2399,3415 L2393,3420 L2370,3414 L2346,3412 L2339,3406 L2334,3399 L2325,3402 L2313,3402 L2294,3394 L2287,3393 L2280,3397 L2264,3414 L2254,3417 L2245,3416 L2236,3402 L2263,3388 L2264,3381 L2250,3365 L2240,3360 L2229,3359 L2219,3362 L2221,3353 L2218,3338 L2213,3323 L2210,3311 L2207,3300 L2208,3293 L2211,3291 L2218,3288 L2227,3289 L2241,3288 L2251,3286 L2259,3282 L2264,3272 L2265,3260 L2267,3246 L2267,3233 L2266,3221 L2259,3208 L2247,3191 L2239,3176 L2235,3173 L2228,3171 L2220,3169 L2215,3170 L2198,3174 L2188,3176 L2181,3172 L2181,3168 L2185,3163 L2192,3158 L2191,3151 L2184,3148 L2176,3144 L2161,3136 L2153,3128 L2146,3121 L2141,3112 L2142,3106 L2146,3097 L2153,3085 L2158,3075 L2157,3068 L2155,3060 L2156,3043 L2160,3024 L2163,3015 L2170,3007 L2180,3002 L2191,2995 L2195,2988 L2197,2982 L2197,2978 L2193,2972 L2189,2962 L2187,2952 L2188,2943 L2189,2936 L2191,2929 L2193,2922 L2191,2914 L2187,2907 L2181,2900 L2177,2890 L2177,2883 L2177,2876 L2190,2855 L2222,2812 L2230,2805 L2238,2803 L2245,2803 L2251,2801 L2258,2797 L2262,2794 L2267,2789 L2270,2783 L2277,2778 L2284,2775 L2282,2767 L2279,2762 L2274,2755 L2266,2744 L2260,2738 L2258,2731 L2261,2726 L2267,2723 L2276,2721 L2288,2717 L2299,2711 L2302,2702 L2303,2693 L2305,2684 L2310,2679 L2319,2678 L2326,2679 L2334,2679 L2343,2677 L2354,2676 L2363,2672 L2367,2665 L2370,2657 L2375,2649 L2384,2639 L2392,2634 L2386,2621 L2398,2605 L2405,2591 L2419,2562 L2414,2558 L2413,2552 L2420,2540 L2418,2532 L2415,2531 L2408,2532 L2404,2530 L2410,2520 L2421,2511 L2428,2504 L2439,2498 L2445,2491 L2439,2483 L2434,2479 L2436,2474 L2442,2472 L2456,2474 L2460,2469 L2461,2466 L2451,2455 L2448,2444 L2452,2436 L2457,2430 L2458,2418 L2458,2412 L2466,2396 L2478,2394 L2492,2404 L2507,2403 L2512,2409 L2518,2413 L2530,2413 L2541,2408 L2542,2397 L2541,2379 L2537,2369 L2535,2359 L2538,2355 L2545,2352 L2553,2355 L2559,2361 L2561,2356 L2561,2350 L2553,2343 L2550,2339 L2560,2338 L2565,2335 L2578,2334 L2582,2331 L2581,2321 L2583,2313 L2587,2311 L2590,2316 L2590,2320 L2593,2323 L2605,2318 L2616,2318 L2633,2319 L2637,2314 L2627,2303 L2625,2295 L2628,2282 L2620,2270 L2625,2258 L2624,2249 L2615,2232 L2605,2213 L2603,2204 L2610,2199 L2615,2195 L2614,2191 L2603,2185 L2590,2182 L2584,2180 L2574,2173 L2569,2163 L2572,2152 L2578,2142 L2578,2130 L2575,2118 L2559,2092 L2549,2078 L2545,2073 L2547,2068 L2559,2060 L2573,2050 L2573,2046 L2566,2044 L2560,2044 L2561,2039 L2565,2033 L2569,2030 L2566,2026 L2556,2023 L2545,2016 L2540,2014 L2527,2019 L2525,2008 L2523,2005 L2516,1995 L2520,1987 L2528,1981 L2533,1979 L2545,1976 L2561,1973 L2584,1962 L2609,1944 L2616,1937 L2620,1929 L2619,1922 L2617,1917 L2614,1910 L2609,1902 L2607,1894 L2611,1887 L2615,1886 L2621,1886 L2626,1887 L2632,1890 L2641,1895 L2648,1897 L2651,1896 L2653,1890 L2652,1884 L2648,1876 L2641,1869 L2640,1862 L2640,1857 L2646,1852 L2649,1846 L2653,1839 L2655,1831 L2660,1822 L2664,1819 L2669,1820 L2676,1824 L2681,1829 L2684,1834 L2690,1848 L2696,1851 L2704,1848 L2713,1839 L2767,1777 L2774,1765 L2774,1755 L2774,1748 L2771,1745 L2767,1741 L2740,1739 L2730,1741 L2728,1738 L2727,1734 L2728,1728 L2728,1723 L2732,1719 L2736,1717 L2743,1716 L2750,1713 L2753,1707 L2757,1699 L2759,1684 L2762,1685 L2780,1683 L2826,1669 L2848,1657 L2864,1649 L2898,1623 L2912,1617 L2928,1615 L2942,1617 L2968,1631 L2988,1637 L3008,1639 L3014,1633 L3014,1623 L3010,1613 L3012,1603 L3018,1595 L3044,1595 L3068,1585 L3078,1589 L3084,1589 L3092,1599 L3096,1609 L3100,1613 L3110,1615 L3126,1613 L3146,1593 L3158,1581 L3166,1569 L3190,1561 L3208,1557 L3236,1547 L3242,1525 L3250,1511 L3256,1503 L3278,1503 L3288,1519 L3282,1549 L3298,1551 L3306,1543 L3324,1541 L3328,1523 L3328,1509 L3320,1485 L3320,1477 L3330,1465 L3354,1439 L3384,1413 L3422,1397 L3430,1395 L3438,1397 L3444,1403 L3470,1447 L3494,1475 L3506,1487 L3518,1497 L3531,1504 L3538,1503 L3544,1497 L3550,1479 L3550,1475 L3548,1468 L3580,1441 L3615,1430 L3627,1431 L3625,1435 L3613,1469 L3613,1473 L3625,1501 L3633,1509 L3639,1509 L3647,1509 L3658,1509 L3671,1555 L3671,1571 L3677,1587 L3681,1609 L3683,1629 L3685,1641 L3689,1651 L3687,1661 L3683,1665 L3683,1669 L3683,1681 L3705,1723 L3713,1735 L3719,1737 L3741,1733 L3769,1737 L3783,1739 L3787,1745 L3795,1751 L3787,1753 L3780,1759 L3778,1763 L3770,1774 L3768,1777 L3764,1785 L3763,1796 L3758,1800 L3766,1811 L3776,1827 L3784,1851 L3802,1901 L3804,1911 L3810,1925 L3822,1931 L3832,1937 L3840,1937 L3844,1937 L3852,1919 L3862,1893 L3880,1873 L3900,1837 L3910,1795 L3910,1775 L3912,1761 L3916,1753 L3924,1749 L3952,1745 L3974,1735 L4048,1671 L4076,1655 L4092,1647 L4112,1629 L4118,1611 L4128,1571 L4132,1565 L4138,1563 L4168,1563 L4176,1589 L4186,1601 L4204,1603 L4218,1669 L4224,1681 L4232,1689 L4234,1695 L4240,1697 L4250,1697 L4258,1697 L4276,1699 L4292,1699 L4310,1699 L4332,1699 L4354,1683 L4358,1679 L4370,1675 L4382,1677 L4422,1693 L4436,1695 L4454,1697 L4464,1697 L4469,1698 L4474,1699 L4474,1699z M3590,1551 L3601,1551 L3606,1553 L3616,1563 L3626,1577 L3638,1583 L3642,1587 L3648,1592 L3648,1596 L3644,1601 L3640,1605 L3634,1613 L3634,1619 L3634,1627 L3638,1633 L3638,1641 L3636,1645 L3633,1645 L3628,1645 L3621,1645 L3618,1643 L3608,1629 L3601,1622 L3590,1615 L3588,1608 L3590,1607 L3594,1601 L3594,1593 L3588,1577 L3584,1569 L3584,1560 L3587,1553 L3590,1551 L3590,1551z " class="polyStyle" id="620825" style="fill:#d4ecb2"/>
<path d="" class="polyStyle" id="421125" style="fill:#ee8b94"/>
<path d="" class="polyStyle" id="210281" style="fill:#ee8b94"/>
<path d="" class="polyStyle" id="440883" style="fill:#f6f67b"/>
<path d="" class="polyStyle" id="469006" style="fill:#d4ecb2"/>
<path d="" class="polyStyle" id="469002" style="fill:#ee8b94"/>
<path d="" class="polyStyle" id="469005" style="fill:#fbe6ef"/>
<path d="" class="polyStyle" id="440882" style="fill:#ee8b94"/>
<path d="" class="polyStyle" id="450681" style="fill:#ee8b94"/>
<path d="" class="polyStyle" id="441581" style="fill:#d4ecb2"/>
<path d="" class="polyStyle" id="421087" style="fill:#ee8b94"/>
<path d="" class="polyStyle" id="420984" style="fill:#fbe6ef"/>
<path d="" class="polyStyle" id="420582" style="fill:#ee8b94"/>
<path d="" class="polyStyle" id="370282" style="fill:#f6f67b"/>
<path d="" class="polyStyle" id="371083" style="fill:#f6f67b"/>
<path d="" class="polyStyle" id="371082" style="fill:#fbe6ef"/>
<path d="" class="polyStyle" id="652801" style="fill:#f8c67d"/>
<path d="" class="polyStyle" id="654301" style="fill:#ee8b94"/>
<path d="" class="polyStyle" id="370687" style="fill:#ee8b94"/>
<path d="" class="polyStyle" id="371482" style="fill:#d4ecb2"/>
<path d="" class="polyStyle" id="421081" style="fill:#fbe6ef"/>
<path d="" class="polyStyle" id="429006" style="fill:#f6f67b"/>
<path d="" class="polyStyle" id="440982" style="fill:#d4ecb2"/>
<path d="" class="polyStyle" id="421181" style="fill:#d4ecb2"/>
<path d="" class="polyStyle" id="321181" style="fill:#d4ecb2"/>
<path d="" class="polyStyle" id="659007" style="fill:#ee8b94"/>
<path d="" class="polyStyle" id="652701" style="fill:#fbe6ef"/>
<path d="" class="polyStyle" id="210781" style="fill:#fbe6ef"/>
<path d="" class="polyStyle" id="460204" style="fill:#f6f67b"/>
<path d="" class="polyStyle" id="210211" style="fill:#f6f67b"/>
<path d="" class="polyStyle" id="450512" style="fill:#ee8b94"/>
<path d="" class="polyStyle" id="450602" style="fill:#fbe6ef"/>
<path d="" class="polyStyle" id="440404" style="fill:#ee8b94"/>
<path d="" class="polyStyle" id="440403" style="fill:#f6f67b"/>
<path d="" class="polyStyle" id="441502" style="fill:#f6f67b"/>
<path d="" class="polyStyle" id="431002" style="fill:#d4ecb2"/>
<path d="" class="polyStyle" id="500107" style="fill:#fbe6ef"/>
<path d="" class="polyStyle" id="430611" style="fill:#d4ecb2"/>
<path d="" class="polyStyle" id="511304" style="fill:#fbe6ef"/>
<path d="" class="polyStyle" id="340711" style="fill:#ee8b94"/>
<path d="" class="polyStyle" id="320118" style="fill:#f6f67b"/>
<path d="" class="polyStyle" id="510704" style="fill:#f6f67b"/>
<path d="" class="polyStyle" id="411502" style="fill:#ee8b94"/>
<path d="" class="polyStyle" id="320302" style="fill:#d4ecb2"/>
<polygon points="6296,25 6318,43 6318,61 6324,97 6328,103 6336,101 6350,41 6352,33 6354,29 6366,25 6376,25 6378,35 6386,59 6382,101 6384,113 6394,135 6406,155 6416,165 6436,181 6472,195 6506,201 6534,195 6564,191 6576,203 6588,221 6602,237 6614,245 6624,245 6630,243 6636,241 6638,237 6630,207 6618,159 6626,137 6638,117 6654,101 6678,93 6688,95 6700,101 6714,113 6734,137 6748,157 6760,171 6782,191 6790,199 6848,219 6872,235 6906,291 6922,307 6940,309 6958,297 6964,289 6982,281 6992,285 7006,291 7024,297 7028,297 7032,307 7039,309 7067,328 7107,339 7125,347 7139,349 7153,357 7180,365 7201,374 7218,391 7225,396 7239,396 7249,399 7290,425 7338,445 7373,455 7384,457 7399,457 7406,459 7414,464 7439,471 7461,482 7502,498 7523,509 7544,518 7563,529 7588,546 7603,548 7614,554 7626,564 7634,569 7648,576 7660,586 7663,592 7674,600 7690,607 7703,620 7713,626 7720,629 7724,634 7734,646 7744,654 7763,662 7776,674 7795,696 7799,707 7800,724 7805,731 7812,733 7819,736 7829,751 7832,766 7851,782 7865,800 7863,810 7870,812 7876,818 7876,824 7880,830 7887,833 7892,836 7897,842 7904,847 7932,854 7944,864 7956,876 7961,877 7970,887 7991,898 7993,904 8000,909 8006,911 8020,926 8034,933 8041,931 8048,932 8056,939 8063,940 8071,941 8078,940 8085,942 8094,955 8100,965 8099,971 8103,977 8110,977 8117,978 8118,986 8123,994 8134,993 8142,995 8154,1013 8168,1017 8184,1035 8197,1042 8211,1054 8217,1056 8221,1061 8222,1075 8234,1084 8244,1089 8244,1099 8264,1110 8259,1117 8266,1121 8275,1132 8282,1131 8289,1134 8290,1138 8294,1144 8306,1154 8316,1158 8319,1151 8326,1151 8329,1156 8331,1163 8336,1168 8340,1173 8346,1179 8360,1176 8365,1187 8379,1197 8386,1197 8408,1204 8420,1212 8451,1242 8463,1249 8477,1253 8490,1260 8496,1267 8508,1270 8513,1281 8517,1286 8530,1291 8538,1316 8549,1335 8552,1346 8551,1360 8540,1396 8543,1412 8551,1420 8562,1414 8569,1403 8580,1370 8591,1353 8613,1349 8629,1349 8645,1352 8656,1358 8684,1386 8696,1395 8708,1409 8722,1416 8753,1419 8759,1401 8788,1351 8805,1341 8829,1331 8853,1304 8874,1287 8881,1286 8895,1288 8915,1299 8942,1323 8949,1326 8960,1338 8973,1338 8980,1342 8989,1351 8996,1354 9003,1354 9016,1362 9037,1365 9071,1386 9109,1404 9121,1408 9124,1414 9129,1420 9137,1426 9139,1431 9144,1438 9152,1442 9166,1452 9170,1457 9185,1466 9192,1468 9198,1470 9205,1473 9212,1479 9218,1485 9222,1490 9225,1497 9232,1499 9239,1502 9240,1512 9239,1519 9233,1529 9225,1539 9212,1546 9197,1553 9180,1557 9165,1559 9150,1556 9140,1552 9128,1547 9121,1545 9118,1552 9116,1559 9112,1567 9109,1579 9110,1592 9118,1597 9131,1603 9136,1610 9138,1621 9144,1634 9138,1660 9134,1691 9136,1709 9139,1728 9132,1750 9131,1758 9142,1774 9152,1787 9146,1800 9135,1809 9120,1804 9114,1803 9107,1804 9099,1797 9092,1794 9078,1790 9072,1790 9056,1790 9048,1787 9036,1779 9022,1770 9000,1757 8986,1756 8938,1755 8916,1748 8901,1742 8897,1745 8891,1753 8887,1771 8880,1790 8876,1807 8872,1819 8863,1829 8854,1839 8846,1845 8833,1845 8829,1844 8823,1842 8800,1840 8789,1844 8759,1846 8745,1835 8726,1814 8717,1808 8705,1807 8689,1814 8677,1824 8664,1832 8616,1858 8605,1855 8600,1848 8590,1840 8584,1831 8570,1838 8561,1847 8545,1868 8534,1870 8530,1863 8534,1825 8528,1817 8515,1817 8492,1827 8483,1821 8470,1816 8459,1807 8446,1809 8433,1817 8417,1820 8399,1817 8379,1816 8349,1823 8315,1817 8306,1811 8298,1801 8289,1796 8283,1788 8273,1783 8237,1817 8227,1824 8196,1785 8182,1782 8166,1786 8118,1787 8102,1783 8091,1776 8070,1747 8038,1760 8029,1751 8025,1740 8017,1728 8003,1722 7991,1712 7971,1700 7961,1703 7945,1727 7923,1750 7906,1752 7896,1758 7893,1769 7897,1776 7903,1782 7898,1797 7900,1810 7921,1825 7916,1832 7904,1831 7906,1837 7925,1860 7931,1875 7932,1888 7924,1896 7912,1896 7901,1889 7886,1885 7872,1885 7857,1891 7845,1898 7832,1896 7822,1888 7817,1879 7806,1886 7788,1893 7770,1892 7753,1894 7736,1890 7723,1893 7717,1906 7706,1919 7684,1927 7669,1923 7660,1903 7653,1898 7636,1894 7568,1890 7548,1893 7536,1903 7531,1920 7536,1951 7545,1973 7567,2008 7580,2019 7598,2025 7613,2034 7618,2045 7622,2060 7647,2079 7656,2088 7662,2111 7694,2103 7710,2102 7730,2105 7740,2115 7741,2124 7738,2137 7756,2139 7757,2151 7728,2156 7709,2161 7692,2172 7676,2185 7656,2182 7642,2183 7629,2189 7617,2158 7627,2131 7618,2127 7601,2127 7591,2122 7578,2100 7567,2095 7544,2096 7522,2100 7498,2107 7485,2131 7475,2145 7453,2161 7430,2161 7408,2167 7385,2179 7377,2190 7373,2210 7379,2225 7388,2239 7401,2253 7442,2323 7456,2329 7473,2329 7480,2320 7487,2292 7494,2282 7511,2281 7528,2289 7539,2302 7539,2324 7535,2341 7516,2380 7511,2401 7500,2394 7490,2396 7464,2391 7428,2366 7406,2358 7371,2348 7355,2347 7335,2358 7321,2362 7312,2361 7301,2355 7288,2351 7234,2342 7222,2335 7214,2326 7208,2314 7191,2300 7186,2292 7168,2275 7157,2276 7145,2297 7140,2303 7128,2308 7104,2297 7083,2300 7055,2310 7032,2300 7001,2302 6979,2309 6970,2323 6958,2325 6945,2331 6936,2324 6929,2310 6922,2304 6920,2296 6901,2279 6896,2272 6880,2273 6869,2268 6851,2239 6844,2218 6830,2214 6818,2208 6796,2189 6777,2187 6767,2175 6751,2177 6732,2148 6714,2137 6704,2138 6687,2144 6668,2141 6658,2138 6654,2137 6636,2120 6629,2115 6619,2112 6596,2112 6564,2107 6549,2099 6542,2091 6533,2064 6518,2039 6517,2017 6519,2010 6518,1999 6504,1992 6498,1984 6486,1922 6466,1910 6460,1903 6452,1904 6422,1934 6407,1934 6401,1931 6391,1934 6381,1948 6354,1977 6347,1972 6341,1963 6338,1955 6338,1940 6327,1938 6301,1951 6289,1955 6277,1965 6268,1963 6260,1949 6257,1940 6256,1924 6262,1906 6250,1892 6249,1879 6244,1861 6244,1852 6239,1841 6235,1835 6218,1841 6211,1849 6202,1855 6196,1851 6189,1830 6177,1820 6163,1817 6149,1820 6121,1830 6118,1820 6118,1812 6111,1803 6101,1800 6104,1827 6091,1842 6080,1843 6074,1839 6073,1823 6084,1797 6083,1788 6073,1778 6059,1773 6049,1785 6046,1796 6036,1803 6028,1805 6009,1792 6001,1794 5982,1795 5970,1793 5956,1787 5942,1786 5924,1796 5906,1812 5891,1813 5873,1808 5856,1814 5840,1816 5826,1814 5808,1819 5798,1819 5773,1811 5763,1814 5764,1811 5762,1799 5738,1789 5742,1767 5768,1717 5792,1657 5784,1651 5772,1649 5764,1643 5758,1637 5756,1629 5760,1607 5748,1579 5722,1543 5694,1523 5686,1511 5686,1497 5700,1469 5712,1451 5714,1417 5726,1365 5726,1345 5722,1335 5717,1327 5708,1330 5701,1333 5698,1335 5691,1340 5677,1343 5667,1345 5654,1346 5640,1351 5626,1353 5612,1349 5604,1345 5600,1339 5594,1331 5600,1309 5602,1293 5598,1269 5596,1251 5586,1235 5574,1225 5538,1213 5528,1207 5522,1201 5520,1195 5534,1169 5532,1155 5524,1153 5512,1155 5496,1153 5488,1149 5480,1141 5474,1133 5470,1125 5488,1097 5492,1091 5516,1075 5532,1065 5542,1057 5542,1049 5528,1019 5526,997 5528,981 5534,951 5536,937 5540,923 5544,903 5546,897 5556,879 5564,867 5568,863 5574,857 5582,851 5592,844 5605,850 5606,852 5614,858 5628,864 5642,866 5648,869 5657,870 5665,873 5674,871 5678,861 5676,849 5666,831 5650,797 5646,785 5642,775 5636,761 5630,749 5606,717 5596,691 5600,651 5576,625 5542,599 5538,585 5536,575 5540,563 5562,551 5578,543 5580,539 5580,531 5572,529 5562,525 5554,523 5546,521 5542,517 5532,511 5518,501 5508,491 5504,481 5500,471 5498,467 5496,455 5492,443 5490,437 5482,423 5476,411 5468,401 5454,383 5446,361 5446,353 5442,329 5446,309 5446,303 5460,293 5478,287 5488,287 5502,289 5514,285 5522,275 5524,255 5528,245 5554,213 5576,187 5594,169 5606,159 5616,154 5619,152 5638,143 5684,135 5714,133 5718,125 5714,95 5722,81 5732,67 5740,59 5798,53 5830,51 5842,55 5858,85 5876,119 5882,121 5888,91 5894,39 5902,33 5916,31 5928,33 5950,37 5984,45 5998,45 6016,45 6046,47 6072,45 6094,49 6100,51 6116,63 6128,73 6138,79 6156,85 6182,95 6220,105 6250,109 6270,103 6278,93 6278,81 6272,65 6256,25 6256,17 6260,15 6270,9 6284,11 " class="polyStyle" id="620802" style="fill:#fbe6ef"/>
<path d="" class="polyStyle" id="140311" style="fill:#ee8b94"/>
<path d="" class="polyStyle" id="610802" style="fill:#ee8b94"/>
<path d="" class="polyStyle" id="120116" style="fill:#f6f67b"/>
<path d="" class="polyStyle" id="130303" style="fill:#fbe6ef"/>
<path d="" class="polyStyle" id="140211" style="fill:#f6f67b"/>
<path d="" class="polyStyle" id="150207" style="fill:#fbe6ef"/>
<path d="" class="polyStyle" id="211403" style="fill:#f6f67b"/>
<path d="" class="polyStyle" id="150802" style="fill:#f8c67d"/>
<path d="" class="polyStyle" id="210112" style="fill:#ee8b94"/>
<path d="" class="polyStyle" id="230406" style="fill:#d4ecb2"/>
<path d="" class="polyStyle" id="110113" style="fill:#fbe6ef"/>
<path d="" class="polyStyle" id="341702" style="fill:#fbe6ef"/>
<path d="" class="polyStyle" id="420303" style="fill:#ee8b94"/>
<path d="" class="polyStyle" id="340702" style="fill:#d4ecb2"/>
<path d="" class="polyStyle" id="421002" style="fill:#f6f67b"/>
<path d="" class="polyStyle" id="420117" style="fill:#f6f67b"/>
<path d="" class="polyStyle" id="440904" style="fill:#f8c67d"/>
<path d="" class="polyStyle" id="460205" style="fill:#ee8b94"/>
<path d="" class="polyStyle" id="460202" style="fill:#f6f67b"/>
<path d="" class="polyStyle" id="460203" style="fill:#fbe6ef"/>
<path d="" class="polyStyle" id="420304" style="fill:#f6f67b"/>
<path d="" class="polyStyle" id="445302" style="fill:#ee8b94"/>
<path d="" class="polyStyle" id="410202" style="fill:#d4ecb2"/>
<path d="" class="polyStyle" id="440800" style="fill:#f6f67b"/>
<path d="" class="polyStyle" id="440900" style="fill:#ee8b94"/>
<path d="" class="polyStyle" id="340800" style="fill:#ee8b94"/>
<path d="" class="polyStyle" id="460200" style="fill:#f6f67b"/>
<path d="" class="polyStyle" id="460000" style="fill:#ee8b94"/>
<path d="" class="polyStyle" id="450500" style="fill:#ee8b94"/>
<path d="" class="polyStyle" id="450600" style="fill:#ee8b94"/>
<path d="" class="polyStyle" id="440400" style="fill:#f6f67b"/>
<path d="" class="polyStyle" id="441700" style="fill:#f6f67b"/>
<path d="" class="polyStyle" id="441500" style="fill:#f6f67b"/>
<path d="" class="polyStyle" id="350600" style="fill:#ee8b94"/>
<path d="" class="polyStyle" id="710000" style="fill:#f6f67b"/>
<path d="" class="polyStyle" id="510400" style="fill:#f6f67b"/>
<path d="" class="polyStyle" id="522600" style="fill:#fbe6ef"/>
<path d="" class="polyStyle" id="520500" style="fill:#ee8b94"/>
<path d="" class="polyStyle" id="431200" style="fill:#f6f67b"/>
<path d="" class="polyStyle" id="430600" style="fill:#f6f67b"/>
<path d="" class="polyStyle" id="511400" style="fill:#d4ecb2"/>
<path d="" class="polyStyle" id="421000" style="fill:#ee8b94"/>
<path d="" class="polyStyle" id="341700" style="fill:#f6f67b"/>
<path d="" class="polyStyle" id="420500" style="fill:#f6f67b"/>
<path d="" class="polyStyle" id="511300" style="fill:#f6f67b"/>
<path d="" class="polyStyle" id="420900" style="fill:#f6f67b"/>
<path d="" class="polyStyle" id="511700" style="fill:#ee8b94"/>
<path d="" class="polyStyle" id="420600" style="fill:#d4ecb2"/>
<path d="" class="polyStyle" id="411500" style="fill:#fbe6ef"/>
<path d="" class="polyStyle" id="510800" style="fill:#ee8b94"/>
<path d="" class="polyStyle" id="420300" style="fill:#fbe6ef"/>
<path d="" class="polyStyle" id="611000" style="fill:#ee8b94"/>
<path d="" class="polyStyle" id="620800" style="fill:#fbe6ef"/>
<path d="" class="polyStyle" id="370200" style="fill:#ee8b94"/>
<path d="" class="polyStyle" id="371000" style="fill:#f6f67b"/>
<path d="" class="polyStyle" id="370600" style="fill:#fbe6ef"/>
<path d="" class="polyStyle" id="120000" style="fill:#f6f67b"/>
<path d="" class="polyStyle" id="130200" style="fill:#ee8b94"/>
<path d="" class="polyStyle" id="130300" style="fill:#f6f67b"/>
<path d="" class="polyStyle" id="652900" style="fill:#fbe6ef"/>
<path d="" class="polyStyle" id="150500" style="fill:#d4ecb2"/>
<path d="" class="polyStyle" id="" style="fill:#d4ecb2"/>
<path d="" class="polyStyle" id="350500" style="fill:#fbe6ef"/>
<path d="" class="polyStyle" id="440400" style="fill:#f6f67b"/>
<path d="" class="polyStyle" id="421100" style="fill:#d4ecb2"/>
<path d="" class="polyStyle" id="420100" style="fill:#fbe6ef"/>
<path d="" class="polyStyle" id="532500" style="fill:#fbe6ef"/>
<path d="" class="polyStyle" id="654200" style="fill:#fbe6ef"/>
<path d="" class="polyStyle" id="210700" style="fill:#d4ecb2"/>
<path d="" class="polyStyle" id="522300" style="fill:#fbe6ef"/>
<path d="" class="polyStyle" id="" style="fill:#ee8b94"/>
<path d="" class="polyStyle" id="440400" style="fill:#f6f67b"/>
<path d="" class="polyStyle" id="620000" style="fill:#f6f67b"/>
<path d="" class="polyStyle" id="430000" style="fill:#fbe6ef"/>
<path d="" class="polyStyle" id="420000" style="fill:#ee8b94"/>
<path d="" class="polyStyle" id="410000" style="fill:#f6f67b"/>
<path d="" class="polyStyle" id="350000" style="fill:#fbe6ef"/>
<path d="" class="polyStyle" id="520000" style="fill:#f6f67b"/>
<path d="" class="polyStyle" id="" style="fill:#ee8b94"/>
</svg>
