<?xml version="1.0" encoding="UTF-8"?>
<!DOCTYPE svg PUBLIC "-//W3C//DTD SVG 1.1 Tiny//EN" "http://www.w3.org/Graphics/SVG/1.1/DTD/svg11-tiny.dtd">
<svg version="1.1" xmlns="http://www.w3.org/2000/svg" xmlns:xlink="http://www.w3.org/1999/xlink" width="100%" height="100%" viewBox="0,0,5221,6193">
<title>SVG</title>
<desc>Poligon Test</desc>
<style id="style_css_sheet" type="text/css">
.polyStyle{fill: #cccccc;stroke-width:0;fill-rule:evenodd;}
</style>
<circle cx="3496" cy="4856" r="200" stroke="black" stroke-width="1" fill="red" id="630122" name="湟中县"/>
<circle cx="1970" cy="3910" r="200" stroke="black" stroke-width="1" fill="red" id="630123"position="444" name="湟源县"/>
<circle cx="4023" cy="2654" r="200" stroke="black" stroke-width="1" fill="red" id="630121"position="41144" name="大通回族土族自治县"/>
<circle cx="4479" cy="4213" r="200" stroke="black" stroke-width="1" fill="red" id="630104"position="144" name="城西区"/>
<circle cx="4573" cy="4233" r="200" stroke="black" stroke-width="1" fill="red" id="630103" name="城中区"/>
<circle cx="4671" cy="4354" r="200" stroke="black" stroke-width="1" fill="red" id="630102" name="城东区"/>
<circle cx="4481" cy="4100" r="200" stroke="black" stroke-width="1" fill="red" id="630105"position="44" name="城北区"/>
<path d="" class="polyStyle" id="" style="fill:#ee8b94"/>
<path d="" class="polyStyle" id="623022" style="fill:#fbe6ef"/>
<path d="" class="polyStyle" id="211421" style="fill:#f6f67b"/>
<path d="" class="polyStyle" id="532524" style="fill:#ee8b94"/>
<path d="" class="polyStyle" id="440825" style="fill:#f6f67b"/>
<path d="" class="polyStyle" id="441721" style="fill:#f6f67b"/>
<path d="" class="polyStyle" id="450521" style="fill:#f6f67b"/>
<path d="" class="polyStyle" id="450123" style="fill:#fbe6ef"/>
<path d="" class="polyStyle" id="350624" style="fill:#f6f67b"/>
<path d="" class="polyStyle" id="" style="fill:#fbe6ef"/>
<path d="" class="polyStyle" id="451224" style="fill:#fbe6ef"/>
<path d="" class="polyStyle" id="350627" style="fill:#f6f67b"/>
<path d="" class="polyStyle" id="" style="fill:#f6f67b"/>
<path d="" class="polyStyle" id="350525" style="fill:#f6f67b"/>
<path d="" class="polyStyle" id="530124" style="fill:#ee8b94"/>
<path d="" class="polyStyle" id="522627" style="fill:#ee8b94"/>
<path d="" class="polyStyle" id="510421" style="fill:#fbe6ef"/>
<path d="" class="polyStyle" id="522623" style="fill:#d4ecb2"/>
<path d="" class="polyStyle" id="430321" style="fill:#d4ecb2"/>
<path d="" class="polyStyle" id="511129" style="fill:#d4ecb2"/>
<path d="" class="polyStyle" id="511423" style="fill:#ee8b94"/>
<path d="" class="polyStyle" id="421023" style="fill:#f6f67b"/>
<path d="" class="polyStyle" id="511724" style="fill:#f6f67b"/>
<path d="" class="polyStyle" id="420526" style="fill:#fbe6ef"/>
<path d="" class="polyStyle" id="511923" style="fill:#fbe6ef"/>
<path d="" class="polyStyle" id="420325" style="fill:#fbe6ef"/>
<path d="" class="polyStyle" id="511921" style="fill:#f6f67b"/>
<path d="" class="polyStyle" id="542525" style="fill:#f6f67b"/>
<path d="" class="polyStyle" id="611026" style="fill:#ee8b94"/>
<path d="" class="polyStyle" id="411023" style="fill:#fbe6ef"/>
<path d="" class="polyStyle" id="632323" style="fill:#f6f67b"/>
<path d="" class="polyStyle" id="140525" style="fill:#d4ecb2"/>
<path d="" class="polyStyle" id="410922" style="fill:#ee8b94"/>
<path d="" class="polyStyle" id="621027" style="fill:#ee8b94"/>
<path d="" class="polyStyle" id="130427" style="fill:#f6f67b"/>
<polygon points="2089,2111 2117,2118 2126,2145 2153,2177 2184,2208 2218,2226 2256,2241 2290,2249 2322,2260 2355,2305 2371,2329 2397,2329 2423,2343 2425,2348 2452,2383 2493,2402 2527,2406 2567,2438 2585,2465 2614,2500 2638,2526 2666,2546 2693,2567 2726,2567 2759,2575 2789,2595 2825,2618 2849,2647 2876,2655 2912,2675 2944,2679 2972,2704 3002,2708 3047,2717 3082,2700 3115,2693 3153,2725 3186,2749 3215,2753 3245,2789 3248,2815 3275,2838 3303,2839 3332,2861 3338,2898 3375,2929 3388,2964 3433,2978 3470,3011 3489,3037 3516,3074 3527,3100 3532,3125 3529,3152 3526,3179 3540,3219 3523,3249 3519,3285 3539,3319 3563,3361 3594,3387 3630,3371 3657,3379 3690,3390 3724,3389 3764,3404 3792,3422 3829,3448 3857,3485 3867,3517 3907,3517 3940,3515 3974,3503 4006,3506 4031,3508 4059,3517 4085,3518 4112,3490 4140,3492 4154,3519 4168,3551 4205,3557 4243,3546 4271,3552 4283,3560 4277,3572 4271,3585 4267,3611 4264,3641 4263,3660 4259,3685 4258,3696 4260,3705 4269,3719 4276,3733 4288,3755 4294,3771 4292,3786 4287,3803 4284,3816 4293,3826 4291,3844 4288,3865 4287,3873 4286,3896 4290,3923 4297,3948 4303,3962 4306,3968 4305,3972 4297,3972 4284,3967 4267,3955 4251,3943 4234,3931 4227,3925 4218,3922 4204,3915 4199,3912 4195,3900 4197,3882 4191,3874 4176,3865 4159,3862 4135,3868 4115,3874 4084,3879 4064,3878 4043,3875 4024,3872 4014,3871 4003,3872 3993,3878 3978,3896 3966,3914 3966,3925 3955,3944 3952,3951 3945,3956 3936,3957 3922,3951 3920,3948 3907,3929 3892,3921 3872,3919 3853,3925 3834,3928 3818,3931 3810,3930 3795,3923 3779,3917 3763,3917 3738,3915 3711,3914 3683,3914 3658,3911 3635,3905 3604,3890 3574,3870 3559,3855 3538,3834 3521,3819 3516,3817 3511,3819 3499,3838 3492,3861 3476,3896 3468,3910 3471,3928 3479,3940 3485,3950 3498,3966 3510,3981 3514,4001 3508,4024 3505,4041 3503,4058 3500,4072 3500,4084 3507,4100 3515,4106 3528,4109 3548,4112 3565,4114 3590,4123 3604,4127 3618,4130 3631,4133 3645,4138 3659,4139 3673,4136 3680,4132 3708,4137 3736,4136 3743,4137 3749,4136 3772,4141 3797,4147 3805,4147 3809,4152 3817,4170 3827,4181 3840,4189 3866,4202 3880,4211 3886,4214 3888,4217 3885,4229 3882,4240 3873,4257 3864,4271 3860,4286 3859,4303 3860,4313 3862,4326 3868,4341 3875,4347 3893,4354 3918,4360 3939,4363 3950,4364 3963,4359 3981,4351 4003,4341 4024,4335 4036,4333 4043,4335 4051,4344 4054,4360 4056,4380 4065,4397 4077,4404 4094,4402 4110,4394 4124,4380 4135,4377 4148,4380 4163,4385 4179,4388 4211,4393 4234,4397 4250,4399 4272,4401 4290,4405 4319,4415 4342,4420 4369,4431 4389,4437 4392,4442 4388,4451 4374,4467 4359,4484 4339,4500 4329,4509 4329,4514 4333,4519 4348,4521 4359,4527 4376,4539 4400,4556 4418,4571 4428,4587 4450,4592 4473,4592 4493,4594 4511,4597 4534,4603 4554,4610 4572,4617 4593,4624 4613,4627 4632,4636 4647,4642 4656,4645 4684,4655 4702,4665 4718,4679 4727,4693 4737,4713 4741,4717 4755,4723 4766,4724 4799,4720 4826,4712 4858,4703 4888,4692 4902,4690 4920,4692 4953,4695 4981,4694 4990,4688 4998,4686 5013,4683 5038,4682 5066,4682 5066,4685 5077,4695 5096,4709 5113,4729 5113,4744 5102,4762 5102,4771 5118,4795 5133,4818 5137,4833 5138,4842 5124,4876 5084,4904 5060,4933 5031,4963 4993,4999 5007,5031 4996,5072 4958,5076 4923,5105 4908,5134 4905,5173 4899,5212 4898,5249 4898,5289 4899,5295 4898,5334 4919,5345 4929,5381 4949,5408 4958,5419 4963,5424 4969,5436 4950,5476 4929,5515 4910,5555 4874,5602 4836,5646 4812,5683 4792,5714 4796,5754 4797,5757 4794,5773 4781,5805 4766,5820 4739,5836 4735,5846 4740,5856 4751,5865 4756,5877 4740,5885 4700,5886 4646,5885 4588,5885 4551,5891 4520,5904 4483,5902 4448,5888 4412,5866 4376,5846 4350,5860 4341,5894 4342,5926 4333,5955 4290,5960 4228,5954 4234,5988 4220,6022 4202,6052 4185,6087 4157,6109 4118,6128 4084,6147 4054,6159 4026,6187 3990,6193 3958,6171 3925,6126 3902,6092 3878,6055 3876,6028 3870,6002 3839,5997 3814,5969 3785,5955 3753,5931 3736,5931 3706,5934 3684,5935 3671,5935 3657,5925 3642,5915 3632,5912 3627,5902 3639,5883 3656,5856 3668,5833 3669,5822 3670,5818 3667,5777 3672,5743 3637,5722 3608,5714 3571,5705 3545,5699 3517,5711 3468,5725 3429,5723 3386,5725 3355,5721 3329,5711 3290,5697 3252,5680 3218,5678 3189,5665 3163,5665 3124,5650 3081,5627 3040,5610 2993,5599 2957,5594 2927,5584 2871,5547 2840,5520 2838,5493 2811,5485 2780,5483 2731,5480 2683,5470 2647,5456 2599,5437 2571,5427 2568,5401 2532,5381 2501,5352 2460,5332 2395,5334 2370,5311 2340,5307 2314,5304 2270,5295 2252,5259 2267,5225 2275,5192 2238,5163 2207,5147 2167,5159 2118,5165 2093,5146 2077,5119 2093,5091 2100,5054 2081,5019 2111,4987 2117,4955 2131,4922 2136,4896 2133,4865 2138,4819 2139,4792 2114,4762 2109,4732 2121,4702 2126,4668 2126,4642 2129,4615 2130,4570 2148,4539 2146,4509 2148,4466 2163,4434 2179,4407 2189,4382 2191,4341 2222,4334 2266,4320 2302,4288 2313,4256 2340,4222 2372,4199 2412,4176 2442,4157 2408,4144 2381,4113 2388,4086 2403,4056 2425,4029 2445,4004 2475,4008 2507,4025 2534,4029 2575,4032 2601,4056 2640,4056 2686,4054 2713,4055 2760,4042 2776,4031 2781,4024 2778,4018 2769,4013 2761,4010 2747,4020 2737,4023 2723,4019 2711,4020 2702,4011 2689,3990 2677,3972 2668,3950 2664,3940 2664,3928 2668,3915 2674,3908 2671,3903 2658,3898 2632,3890 2616,3882 2601,3872 2586,3872 2571,3869 2555,3852 2551,3842 2551,3823 2555,3793 2563,3757 2550,3720 2526,3687 2506,3666 2507,3655 2519,3652 2539,3657 2567,3668 2584,3670 2594,3667 2602,3654 2604,3635 2604,3609 2611,3594 2621,3589 2641,3587 2667,3583 2677,3575 2671,3563 2634,3535 2591,3520 2556,3499 2520,3492 2493,3494 2466,3493 2422,3482 2393,3480 2355,3486 2327,3480 2287,3482 2257,3481 2216,3461 2175,3446 2139,3437 2110,3426 2090,3390 2056,3361 2032,3323 2014,3277 1988,3252 1960,3240 1931,3221 1894,3213 1853,3195 1818,3191 1785,3175 1758,3162 1734,3132 1702,3105 1678,3079 1639,3049 1604,3032 1579,3022 1543,3007 1516,3010 1482,3039 1480,3036 1493,3014 1504,2988 1516,2959 1528,2939 1542,2915 1560,2901 1577,2895 1594,2891 1605,2884 1618,2880 1632,2882 1641,2883 1647,2877 1649,2872 1656,2870 1664,2871 1673,2874 1688,2869 1701,2854 1712,2842 1720,2833 1736,2821 1752,2807 1767,2793 1780,2779 1797,2775 1811,2777 1817,2785 1839,2793 1861,2798 1877,2805 1893,2810 1910,2809 1924,2809 1938,2809 1954,2814 1963,2820 1976,2821 1992,2818 2009,2818 2022,2825 2027,2840 2030,2851 2041,2857 2056,2853 2072,2845 2091,2835 2092,2832 2109,2794 2112,2766 2115,2745 2126,2730 2121,2719 2104,2705 2099,2691 2098,2659 2082,2637 2074,2634 2075,2626 2087,2608 2087,2596 2061,2564 2045,2558 2035,2542 2042,2531 2045,2509 2055,2476 2075,2452 2083,2432 2082,2411 2087,2393 2097,2388 2105,2379 2105,2364 2092,2338 2083,2320 2072,2308 2062,2292 2062,2278 2045,2267 2029,2244 2019,2220 2024,2198 2033,2186 2013,2177 1998,2172 1998,2158 2005,2145 2000,2134 1981,2115 1985,2100 1995,2093 2015,2083 2019,2068 2058,2099 " class="polyStyle" id="630122" style="fill:#f6f67b"/>
<polygon points="473,33 504,33 475,64 467,94 505,118 532,125 555,154 574,184 603,206 639,208 667,203 693,222 727,242 740,269 765,291 811,311 847,325 864,332 900,341 918,351 930,354 952,347 971,335 989,332 1016,335 1031,351 1050,364 1058,373 1050,393 1052,409 1063,424 1099,430 1137,426 1165,434 1189,436 1204,432 1219,435 1241,449 1260,455 1270,466 1276,468 1302,464 1327,456 1337,456 1351,453 1368,437 1386,433 1402,436 1424,448 1460,461 1483,460 1495,459 1503,474 1519,480 1536,487 1541,482 1549,470 1560,470 1588,469 1620,470 1650,469 1690,462 1716,462 1732,494 1768,509 1806,499 1835,498 1875,517 1905,525 1931,506 1959,484 1985,470 2016,456 2046,440 2074,434 2104,460 2138,471 2171,487 2200,507 2226,505 2242,532 2266,567 2295,589 2328,586 2366,599 2391,618 2429,619 2460,621 2497,623 2543,621 2578,617 2609,602 2646,600 2677,607 2704,609 2734,613 2760,624 2790,623 2819,629 2851,653 2891,656 2925,650 2956,640 2990,638 3019,646 3048,672 3078,680 3104,666 3136,663 3162,683 3191,699 3227,715 3254,721 3281,720 3312,726 3325,761 3322,794 3314,819 3305,848 3324,882 3358,915 3362,942 3364,968 3392,968 3420,970 3451,961 3477,945 3505,962 3522,988 3550,994 3585,1004 3614,1019 3647,1029 3680,1028 3707,1027 3732,1043 3765,1078 3796,1098 3821,1085 3847,1077 3880,1078 3910,1090 3936,1095 3964,1097 3995,1101 4021,1093 4047,1097 4072,1122 4101,1126 4141,1149 4175,1158 4222,1174 4238,1178 4269,1171 4295,1149 4296,1123 4325,1110 4355,1110 4366,1136 4394,1150 4405,1176 4442,1187 4453,1219 4453,1245 4496,1251 4540,1255 4579,1253 4606,1251 4633,1249 4662,1267 4688,1291 4702,1325 4731,1349 4765,1361 4797,1380 4840,1412 4875,1429 4912,1443 4954,1444 4991,1451 5027,1463 5054,1481 5084,1511 5093,1539 5118,1569 5152,1585 5183,1599 5221,1610 5204,1637 5198,1663 5197,1691 5166,1696 5141,1685 5114,1688 5089,1708 5074,1733 5071,1761 5071,1787 5074,1819 5084,1853 5100,1886 5114,1919 5113,1951 5105,1984 5096,2011 5084,2048 5075,2080 5072,2113 5046,2125 5018,2117 4992,2144 4966,2162 4938,2176 4932,2202 4919,2232 4892,2252 4864,2275 4850,2301 4848,2327 4846,2348 4810,2389 4798,2425 4827,2453 4853,2475 4866,2502 4895,2540 4878,2576 4853,2612 4839,2643 4834,2671 4802,2684 4753,2705 4721,2722 4723,2753 4705,2789 4676,2803 4684,2833 4702,2870 4685,2910 4685,2941 4682,2968 4673,3011 4672,3041 4673,3071 4649,3103 4656,3135 4670,3164 4677,3191 4675,3230 4648,3263 4636,3291 4604,3306 4613,3344 4648,3372 4646,3402 4634,3436 4643,3468 4614,3484 4609,3516 4597,3553 4596,3584 4601,3616 4590,3647 4557,3680 4553,3715 4590,3727 4574,3757 4571,3761 4560,3760 4546,3758 4525,3764 4509,3769 4491,3770 4476,3761 4470,3746 4473,3731 4477,3714 4478,3703 4483,3681 4488,3652 4490,3630 4494,3613 4497,3601 4499,3592 4499,3583 4494,3578 4491,3573 4486,3572 4472,3571 4449,3569 4427,3571 4406,3575 4393,3579 4378,3581 4366,3579 4340,3570 4314,3562 4298,3559 4283,3560 4271,3552 4243,3546 4205,3557 4168,3551 4154,3519 4140,3492 4112,3490 4085,3518 4059,3517 4031,3508 4006,3506 3974,3503 3940,3515 3907,3517 3867,3517 3857,3485 3829,3448 3792,3422 3764,3404 3724,3389 3690,3390 3657,3379 3630,3371 3594,3387 3563,3361 3539,3319 3519,3285 3523,3249 3540,3219 3526,3179 3529,3152 3532,3125 3527,3100 3516,3074 3489,3037 3470,3011 3433,2978 3388,2964 3375,2929 3338,2898 3332,2861 3303,2839 3275,2838 3248,2815 3245,2789 3215,2753 3186,2749 3153,2725 3115,2693 3082,2700 3047,2717 3002,2708 2972,2704 2944,2679 2912,2675 2876,2655 2849,2647 2825,2618 2789,2595 2759,2575 2726,2567 2693,2567 2666,2546 2638,2526 2614,2500 2585,2465 2567,2438 2527,2406 2493,2402 2452,2383 2425,2348 2423,2343 2397,2329 2371,2329 2355,2305 2322,2260 2290,2249 2256,2241 2218,2226 2184,2208 2153,2177 2126,2145 2117,2118 2089,2111 2058,2099 2019,2068 2015,2060 1988,2036 1973,2028 1961,2023 1947,2018 1935,2007 1916,1994 1899,1989 1884,1983 1856,1961 1847,1930 1833,1905 1800,1870 1794,1844 1777,1817 1748,1800 1720,1802 1680,1806 1652,1801 1622,1793 1583,1768 1555,1745 1519,1729 1499,1697 1482,1662 1462,1635 1437,1609 1434,1582 1428,1550 1420,1519 1411,1478 1388,1451 1360,1424 1338,1394 1326,1363 1319,1325 1291,1301 1265,1292 1228,1279 1202,1269 1171,1257 1138,1245 1109,1230 1071,1217 1033,1202 1000,1201 969,1216 936,1241 910,1250 903,1250 875,1250 871,1239 841,1227 797,1206 778,1184 775,1168 758,1158 730,1147 718,1133 705,1115 687,1109 662,1113 648,1121 634,1115 621,1103 612,1106 591,1117 571,1123 551,1116 533,1096 523,1085 501,1088 480,1117 463,1143 432,1137 417,1129 407,1116 385,1107 367,1099 357,1086 348,1073 330,1063 303,1051 298,1023 294,997 288,987 293,977 301,955 270,932 226,905 222,886 227,857 233,834 222,815 211,808 207,790 203,769 191,762 158,757 145,733 149,711 149,692 136,671 135,662 124,657 115,653 87,637 53,616 25,609 0,580 29,563 39,537 35,504 56,477 56,450 55,424 75,388 60,362 60,336 58,308 57,274 33,242 43,225 69,201 96,181 123,177 153,178 181,201 209,197 238,171 235,145 268,119 292,93 318,85 350,63 356,37 386,6 417,0 448,24 " class="polyStyle" id="630121" style="fill:#d4ecb2"/>
<path d="" class="polyStyle" id="130121" style="fill:#ee8b94"/>
<path d="" class="polyStyle" id="610823" style="fill:#fbe6ef"/>
<path d="" class="polyStyle" id="130225" style="fill:#fbe6ef"/>
<path d="" class="polyStyle" id="130322" style="fill:#d4ecb2"/>
<path d="" class="polyStyle" id="653130" style="fill:#f6f67b"/>
<path d="" class="polyStyle" id="130822" style="fill:#fbe6ef"/>
<path d="" class="polyStyle" id="211221" style="fill:#f6f67b"/>
<path d="" class="polyStyle" id="210921" style="fill:#f6f67b"/>
<path d="" class="polyStyle" id="150223" style="fill:#f8c67d"/>
<path d="" class="polyStyle" id="220422" style="fill:#d4ecb2"/>
<path d="" class="polyStyle" id="340721" style="fill:#f6f67b"/>
<path d="" class="polyStyle" id="510824" style="fill:#d4ecb2"/>
<path d="" class="polyStyle" id="610324" style="fill:#f6f67b"/>
<polygon points="234,3642 236,3643 264,3653 258,3619 250,3577 255,3541 245,3504 218,3464 184,3432 182,3405 170,3375 206,3350 239,3342 276,3331 302,3306 342,3289 375,3280 411,3272 441,3254 475,3241 512,3269 549,3280 586,3302 616,3327 642,3349 678,3369 710,3375 744,3409 785,3431 815,3427 843,3420 871,3404 914,3388 949,3364 979,3353 1010,3351 1058,3345 1090,3332 1124,3297 1163,3259 1191,3227 1221,3204 1280,3174 1313,3153 1330,3122 1370,3085 1410,3065 1446,3056 1463,3044 1480,3036 1482,3039 1516,3010 1543,3007 1579,3022 1604,3032 1639,3049 1678,3079 1702,3105 1734,3132 1758,3162 1785,3175 1818,3191 1853,3195 1894,3213 1931,3221 1960,3240 1988,3252 2014,3277 2032,3323 2056,3361 2090,3390 2110,3426 2139,3437 2175,3446 2216,3461 2257,3481 2287,3482 2327,3480 2355,3486 2393,3480 2422,3482 2466,3493 2493,3494 2520,3492 2556,3499 2591,3520 2634,3535 2671,3563 2677,3575 2667,3583 2641,3587 2621,3589 2611,3594 2604,3609 2604,3635 2602,3654 2594,3667 2584,3670 2567,3668 2539,3657 2519,3652 2507,3655 2506,3666 2526,3687 2550,3720 2563,3757 2555,3793 2551,3823 2551,3842 2555,3852 2571,3869 2586,3872 2601,3872 2616,3882 2632,3890 2658,3898 2671,3903 2674,3908 2668,3915 2664,3928 2664,3940 2668,3950 2677,3972 2689,3990 2702,4011 2711,4020 2723,4019 2737,4023 2747,4020 2761,4010 2769,4013 2778,4018 2781,4024 2776,4031 2760,4042 2713,4055 2686,4054 2640,4056 2601,4056 2575,4032 2534,4029 2507,4025 2475,4008 2445,4004 2425,4029 2403,4056 2388,4086 2381,4113 2408,4144 2442,4157 2412,4176 2372,4199 2340,4222 2313,4256 2302,4288 2266,4320 2222,4334 2191,4341 2189,4382 2179,4407 2163,4434 2148,4466 2146,4509 2148,4539 2130,4570 2129,4615 2126,4642 2126,4668 2121,4702 2109,4732 2114,4762 2139,4792 2138,4819 2133,4865 2136,4896 2131,4922 2117,4955 2111,4987 2081,5019 2100,5054 2093,5091 2077,5119 2093,5146 2118,5165 2167,5159 2207,5147 2238,5163 2275,5192 2267,5225 2252,5259 2270,5295 2314,5304 2340,5307 2370,5311 2395,5334 2366,5344 2350,5378 2323,5401 2287,5434 2259,5443 2227,5450 2203,5478 2152,5501 2120,5511 2089,5526 2062,5561 2044,5587 2005,5629 1965,5668 1914,5703 1877,5717 1834,5735 1805,5736 1777,5726 1744,5711 1737,5685 1702,5672 1663,5660 1651,5648 1620,5611 1605,5581 1611,5552 1588,5517 1579,5492 1540,5478 1511,5473 1471,5465 1419,5450 1377,5437 1336,5418 1307,5390 1279,5352 1258,5321 1247,5295 1214,5259 1202,5244 1213,5224 1219,5203 1215,5188 1202,5170 1183,5166 1150,5166 1113,5153 1084,5133 1055,5120 1038,5082 1063,5054 1041,5027 1026,5000 1024,4972 1024,4937 997,4904 962,4884 952,4861 931,4854 899,4849 872,4823 862,4807 829,4802 795,4795 783,4783 762,4776 753,4771 742,4744 717,4732 691,4717 700,4692 722,4666 701,4654 696,4645 699,4629 680,4611 667,4576 661,4556 637,4544 614,4531 619,4514 640,4472 627,4469 614,4457 624,4441 624,4420 631,4407 644,4382 646,4370 641,4353 617,4305 600,4258 599,4245 604,4231 599,4221 565,4206 556,4194 553,4177 548,4161 530,4150 485,4109 440,4084 422,4075 406,4048 390,4011 381,3979 376,3944 377,3932 403,3912 418,3894 402,3877 364,3841 347,3806 316,3788 290,3770 273,3741 247,3714 230,3699 228,3678 233,3647 " class="polyStyle" id="630123" style="fill:#d4ecb2"/>
<path d="" class="polyStyle" id="530722" style="fill:#ee8b94"/>
<path d="" class="polyStyle" id="340823" style="fill:#d4ecb2"/>
<path d="" class="polyStyle" id="620825" style="fill:#d4ecb2"/>
<path d="" class="polyStyle" id="421125" style="fill:#ee8b94"/>
<path d="" class="polyStyle" id="210281" style="fill:#ee8b94"/>
<path d="" class="polyStyle" id="440883" style="fill:#f6f67b"/>
<path d="" class="polyStyle" id="469006" style="fill:#d4ecb2"/>
<path d="" class="polyStyle" id="469002" style="fill:#ee8b94"/>
<path d="" class="polyStyle" id="469005" style="fill:#fbe6ef"/>
<path d="" class="polyStyle" id="440882" style="fill:#ee8b94"/>
<path d="" class="polyStyle" id="450681" style="fill:#ee8b94"/>
<path d="" class="polyStyle" id="441581" style="fill:#d4ecb2"/>
<path d="" class="polyStyle" id="421087" style="fill:#ee8b94"/>
<path d="" class="polyStyle" id="420984" style="fill:#fbe6ef"/>
<path d="" class="polyStyle" id="420582" style="fill:#ee8b94"/>
<path d="" class="polyStyle" id="370282" style="fill:#f6f67b"/>
<path d="" class="polyStyle" id="371083" style="fill:#f6f67b"/>
<path d="" class="polyStyle" id="371082" style="fill:#fbe6ef"/>
<path d="" class="polyStyle" id="652801" style="fill:#f8c67d"/>
<path d="" class="polyStyle" id="654301" style="fill:#ee8b94"/>
<path d="" class="polyStyle" id="370687" style="fill:#ee8b94"/>
<path d="" class="polyStyle" id="371482" style="fill:#d4ecb2"/>
<path d="" class="polyStyle" id="421081" style="fill:#fbe6ef"/>
<path d="" class="polyStyle" id="429006" style="fill:#f6f67b"/>
<path d="" class="polyStyle" id="440982" style="fill:#d4ecb2"/>
<path d="" class="polyStyle" id="421181" style="fill:#d4ecb2"/>
<path d="" class="polyStyle" id="321181" style="fill:#d4ecb2"/>
<path d="" class="polyStyle" id="659007" style="fill:#ee8b94"/>
<path d="" class="polyStyle" id="652701" style="fill:#fbe6ef"/>
<path d="" class="polyStyle" id="210781" style="fill:#fbe6ef"/>
<path d="" class="polyStyle" id="460204" style="fill:#f6f67b"/>
<path d="" class="polyStyle" id="210211" style="fill:#f6f67b"/>
<path d="" class="polyStyle" id="450512" style="fill:#ee8b94"/>
<path d="" class="polyStyle" id="450602" style="fill:#fbe6ef"/>
<path d="" class="polyStyle" id="440404" style="fill:#ee8b94"/>
<path d="" class="polyStyle" id="440403" style="fill:#f6f67b"/>
<path d="" class="polyStyle" id="441502" style="fill:#f6f67b"/>
<path d="" class="polyStyle" id="431002" style="fill:#d4ecb2"/>
<path d="" class="polyStyle" id="500107" style="fill:#fbe6ef"/>
<path d="" class="polyStyle" id="430611" style="fill:#d4ecb2"/>
<path d="" class="polyStyle" id="511304" style="fill:#fbe6ef"/>
<path d="" class="polyStyle" id="340711" style="fill:#ee8b94"/>
<path d="" class="polyStyle" id="320118" style="fill:#f6f67b"/>
<path d="" class="polyStyle" id="510704" style="fill:#f6f67b"/>
<path d="" class="polyStyle" id="411502" style="fill:#ee8b94"/>
<path d="" class="polyStyle" id="320302" style="fill:#d4ecb2"/>
<polygon points="4601,4221 4605,4234 4597,4248 4582,4268 4575,4281 4569,4303 4571,4318 4567,4340 4565,4358 4575,4379 4566,4390 4552,4397 4533,4408 4528,4420 4539,4454 4558,4517 4556,4539 4556,4554 4557,4566 4565,4574 4597,4591 4619,4604 4631,4616 4647,4642 4632,4636 4613,4627 4593,4624 4572,4617 4554,4610 4534,4603 4511,4597 4493,4594 4473,4592 4450,4592 4428,4587 4418,4571 4400,4556 4376,4539 4359,4527 4348,4521 4333,4519 4329,4514 4329,4509 4339,4500 4359,4484 4374,4467 4388,4451 4392,4442 4420,4420 4456,4382 4476,4348 4480,4318 4483,4295 4493,4269 4511,4241 4531,4223 4555,4198 4572,4203 " class="polyStyle" id="630103" style="fill:#ee8b94"/>
<polygon points="4123,4085 4153,4085 4171,4084 4186,4083 4199,4085 4218,4091 4239,4093 4262,4102 4283,4110 4311,4114 4340,4117 4363,4130 4394,4144 4431,4151 4442,4153 4462,4157 4480,4177 4497,4184 4521,4187 4541,4193 4555,4198 4531,4223 4511,4241 4493,4269 4483,4295 4480,4318 4476,4348 4456,4382 4420,4420 4392,4442 4389,4437 4369,4431 4342,4420 4319,4415 4290,4405 4272,4401 4250,4399 4234,4397 4211,4393 4179,4388 4163,4385 4148,4380 4135,4377 4124,4380 4110,4394 4094,4402 4077,4404 4065,4397 4056,4380 4054,4360 4051,4344 4043,4335 4036,4333 4024,4335 4003,4341 3981,4351 3963,4359 3950,4364 3939,4363 3918,4360 3893,4354 3875,4347 3868,4341 3862,4326 3860,4313 3859,4303 3860,4286 3864,4271 3873,4257 3882,4240 3885,4229 3888,4217 3886,4214 3880,4211 3866,4202 3840,4189 3827,4181 3817,4170 3809,4152 3805,4147 3797,4147 3772,4141 3808,4136 3849,4127 3880,4113 3892,4109 3907,4103 3922,4093 3933,4093 3953,4098 3970,4100 3992,4101 4010,4098 4019,4094 4036,4086 4056,4084 4079,4082 4104,4084 " class="polyStyle" id="630104" style="fill:#d4ecb2"/>
<polygon points="4794,4092 4807,4099 4816,4112 4825,4126 4834,4131 4854,4134 4866,4127 4878,4113 4893,4107 4906,4109 4912,4117 4913,4131 4911,4141 4903,4158 4894,4181 4893,4190 4900,4200 4911,4213 4925,4218 4955,4221 4972,4227 4991,4238 4996,4242 5011,4258 5026,4272 5037,4277 5046,4280 5052,4293 5054,4301 5056,4316 5062,4320 5071,4322 5086,4326 5095,4333 5107,4348 5115,4361 5138,4389 5146,4400 5160,4416 5169,4432 5178,4446 5193,4466 5208,4483 5220,4518 5220,4537 5220,4546 5216,4552 5211,4561 5211,4568 5214,4580 5211,4595 5205,4606 5190,4619 5175,4634 5152,4646 5138,4654 5122,4667 5115,4678 5109,4683 5090,4681 5077,4681 5066,4682 5038,4682 5013,4683 4998,4686 4990,4688 4981,4694 4953,4695 4920,4692 4902,4690 4888,4692 4858,4703 4826,4712 4799,4720 4766,4724 4755,4723 4741,4717 4737,4713 4727,4693 4718,4679 4702,4665 4684,4655 4656,4645 4647,4642 4631,4616 4619,4604 4597,4591 4565,4574 4557,4566 4556,4554 4556,4539 4558,4517 4539,4454 4528,4420 4533,4408 4552,4397 4566,4390 4575,4379 4565,4358 4567,4340 4571,4318 4569,4303 4575,4281 4582,4268 4597,4248 4605,4234 4601,4221 4627,4179 4651,4135 4662,4101 4673,4106 4687,4099 4709,4087 4737,4082 4759,4084 " class="polyStyle" id="630102" style="fill:#d4ecb2"/>
<polygon points="4340,3570 4366,3579 4378,3581 4393,3579 4406,3575 4427,3571 4449,3569 4472,3571 4486,3572 4491,3573 4494,3578 4499,3583 4499,3592 4497,3601 4494,3613 4490,3630 4488,3652 4483,3681 4478,3703 4477,3714 4473,3731 4470,3746 4476,3761 4491,3770 4509,3769 4525,3764 4546,3758 4560,3760 4571,3761 4579,3770 4592,3790 4600,3805 4603,3820 4598,3834 4580,3848 4573,3856 4567,3873 4558,3896 4556,3918 4548,3936 4531,3952 4526,3962 4526,3967 4538,3987 4556,4010 4579,4027 4594,4037 4598,4041 4607,4039 4626,4022 4632,4010 4639,4002 4652,3993 4660,3992 4668,3998 4679,4015 4679,4025 4665,4038 4657,4064 4656,4086 4662,4101 4651,4135 4627,4179 4601,4221 4572,4203 4555,4198 4541,4193 4521,4187 4497,4184 4480,4177 4462,4157 4442,4153 4431,4151 4394,4144 4363,4130 4340,4117 4311,4114 4283,4110 4262,4102 4239,4093 4218,4091 4199,4085 4186,4083 4171,4084 4153,4085 4123,4085 4104,4084 4079,4082 4056,4084 4036,4086 4019,4094 4010,4098 3992,4101 3970,4100 3953,4098 3933,4093 3922,4093 3907,4103 3892,4109 3880,4113 3849,4127 3808,4136 3772,4141 3749,4136 3743,4137 3736,4136 3708,4137 3680,4132 3673,4136 3659,4139 3645,4138 3631,4133 3618,4130 3604,4127 3590,4123 3565,4114 3548,4112 3528,4109 3515,4106 3507,4100 3500,4084 3500,4072 3503,4058 3505,4041 3508,4024 3514,4001 3510,3981 3498,3966 3485,3950 3479,3940 3471,3928 3468,3910 3476,3896 3492,3861 3499,3838 3511,3819 3516,3817 3521,3819 3538,3834 3559,3855 3574,3870 3604,3890 3635,3905 3658,3911 3683,3914 3711,3914 3738,3915 3763,3917 3779,3917 3795,3923 3810,3930 3818,3931 3834,3928 3853,3925 3872,3919 3892,3921 3907,3929 3920,3948 3922,3951 3936,3957 3945,3956 3952,3951 3955,3944 3966,3925 3966,3914 3978,3896 3993,3878 4003,3872 4014,3871 4024,3872 4043,3875 4064,3878 4084,3879 4115,3874 4135,3868 4159,3862 4176,3865 4191,3874 4197,3882 4195,3900 4199,3912 4204,3915 4218,3922 4227,3925 4234,3931 4251,3943 4267,3955 4284,3967 4297,3972 4305,3972 4306,3968 4303,3962 4297,3948 4290,3923 4286,3896 4287,3873 4288,3865 4291,3844 4293,3826 4284,3816 4287,3803 4292,3786 4294,3771 4288,3755 4276,3733 4269,3719 4260,3705 4258,3696 4259,3685 4263,3660 4264,3641 4267,3611 4271,3585 4277,3572 4283,3560 4298,3559 4314,3562 " class="polyStyle" id="630105" style="fill:#fbe6ef"/>
<path d="" class="polyStyle" id="140311" style="fill:#ee8b94"/>
<path d="" class="polyStyle" id="610802" style="fill:#ee8b94"/>
<path d="" class="polyStyle" id="120116" style="fill:#f6f67b"/>
<path d="" class="polyStyle" id="130303" style="fill:#fbe6ef"/>
<path d="" class="polyStyle" id="140211" style="fill:#f6f67b"/>
<path d="" class="polyStyle" id="150207" style="fill:#fbe6ef"/>
<path d="" class="polyStyle" id="211403" style="fill:#f6f67b"/>
<path d="" class="polyStyle" id="150802" style="fill:#f8c67d"/>
<path d="" class="polyStyle" id="210112" style="fill:#ee8b94"/>
<path d="" class="polyStyle" id="230406" style="fill:#d4ecb2"/>
<path d="" class="polyStyle" id="110113" style="fill:#fbe6ef"/>
<path d="" class="polyStyle" id="341702" style="fill:#fbe6ef"/>
<path d="" class="polyStyle" id="420303" style="fill:#ee8b94"/>
<path d="" class="polyStyle" id="340702" style="fill:#d4ecb2"/>
<path d="" class="polyStyle" id="421002" style="fill:#f6f67b"/>
<path d="" class="polyStyle" id="420117" style="fill:#f6f67b"/>
<path d="" class="polyStyle" id="440904" style="fill:#f8c67d"/>
<path d="" class="polyStyle" id="460205" style="fill:#ee8b94"/>
<path d="" class="polyStyle" id="460202" style="fill:#f6f67b"/>
<path d="" class="polyStyle" id="460203" style="fill:#fbe6ef"/>
<path d="" class="polyStyle" id="420304" style="fill:#f6f67b"/>
<path d="" class="polyStyle" id="445302" style="fill:#ee8b94"/>
<path d="" class="polyStyle" id="410202" style="fill:#d4ecb2"/>
<path d="" class="polyStyle" id="440800" style="fill:#f6f67b"/>
<path d="" class="polyStyle" id="440900" style="fill:#ee8b94"/>
<path d="" class="polyStyle" id="340800" style="fill:#ee8b94"/>
<path d="" class="polyStyle" id="460200" style="fill:#f6f67b"/>
<path d="" class="polyStyle" id="460000" style="fill:#ee8b94"/>
<path d="" class="polyStyle" id="450500" style="fill:#ee8b94"/>
<path d="" class="polyStyle" id="450600" style="fill:#ee8b94"/>
<path d="" class="polyStyle" id="440400" style="fill:#f6f67b"/>
<path d="" class="polyStyle" id="441700" style="fill:#f6f67b"/>
<path d="" class="polyStyle" id="441500" style="fill:#f6f67b"/>
<path d="" class="polyStyle" id="350600" style="fill:#ee8b94"/>
<path d="" class="polyStyle" id="710000" style="fill:#f6f67b"/>
<path d="" class="polyStyle" id="510400" style="fill:#f6f67b"/>
<path d="" class="polyStyle" id="522600" style="fill:#fbe6ef"/>
<path d="" class="polyStyle" id="520500" style="fill:#ee8b94"/>
<path d="" class="polyStyle" id="431200" style="fill:#f6f67b"/>
<path d="" class="polyStyle" id="430600" style="fill:#f6f67b"/>
<path d="" class="polyStyle" id="511400" style="fill:#d4ecb2"/>
<path d="" class="polyStyle" id="421000" style="fill:#ee8b94"/>
<path d="" class="polyStyle" id="341700" style="fill:#f6f67b"/>
<path d="" class="polyStyle" id="420500" style="fill:#f6f67b"/>
<path d="" class="polyStyle" id="511300" style="fill:#f6f67b"/>
<path d="" class="polyStyle" id="420900" style="fill:#f6f67b"/>
<path d="" class="polyStyle" id="511700" style="fill:#ee8b94"/>
<path d="" class="polyStyle" id="420600" style="fill:#d4ecb2"/>
<path d="" class="polyStyle" id="411500" style="fill:#fbe6ef"/>
<path d="" class="polyStyle" id="510800" style="fill:#ee8b94"/>
<path d="" class="polyStyle" id="420300" style="fill:#fbe6ef"/>
<path d="" class="polyStyle" id="611000" style="fill:#ee8b94"/>
<path d="" class="polyStyle" id="620800" style="fill:#fbe6ef"/>
<path d="" class="polyStyle" id="370200" style="fill:#ee8b94"/>
<path d="" class="polyStyle" id="371000" style="fill:#f6f67b"/>
<path d="" class="polyStyle" id="370600" style="fill:#fbe6ef"/>
<path d="" class="polyStyle" id="120000" style="fill:#f6f67b"/>
<path d="" class="polyStyle" id="130200" style="fill:#ee8b94"/>
<path d="" class="polyStyle" id="130300" style="fill:#f6f67b"/>
<path d="" class="polyStyle" id="652900" style="fill:#fbe6ef"/>
<path d="" class="polyStyle" id="150500" style="fill:#d4ecb2"/>
<path d="" class="polyStyle" id="" style="fill:#d4ecb2"/>
<path d="" class="polyStyle" id="350500" style="fill:#fbe6ef"/>
<path d="" class="polyStyle" id="440400" style="fill:#f6f67b"/>
<path d="" class="polyStyle" id="421100" style="fill:#d4ecb2"/>
<path d="" class="polyStyle" id="420100" style="fill:#fbe6ef"/>
<path d="" class="polyStyle" id="532500" style="fill:#fbe6ef"/>
<path d="" class="polyStyle" id="654200" style="fill:#fbe6ef"/>
<path d="" class="polyStyle" id="210700" style="fill:#d4ecb2"/>
<path d="" class="polyStyle" id="522300" style="fill:#fbe6ef"/>
<path d="" class="polyStyle" id="" style="fill:#ee8b94"/>
<path d="" class="polyStyle" id="440400" style="fill:#f6f67b"/>
<path d="" class="polyStyle" id="620000" style="fill:#f6f67b"/>
<path d="" class="polyStyle" id="430000" style="fill:#fbe6ef"/>
<path d="" class="polyStyle" id="420000" style="fill:#ee8b94"/>
<path d="" class="polyStyle" id="410000" style="fill:#f6f67b"/>
<path d="" class="polyStyle" id="350000" style="fill:#fbe6ef"/>
<path d="" class="polyStyle" id="520000" style="fill:#f6f67b"/>
<path d="" class="polyStyle" id="" style="fill:#ee8b94"/>
</svg>
