<?xml version="1.0" encoding="UTF-8"?>
<!DOCTYPE svg PUBLIC "-//W3C//DTD SVG 1.1 Tiny//EN" "http://www.w3.org/Graphics/SVG/1.1/DTD/svg11-tiny.dtd">
<svg version="1.1" xmlns="http://www.w3.org/2000/svg" xmlns:xlink="http://www.w3.org/1999/xlink" width="100%" height="100%" viewBox="0,0,8815,10434">
<title>SVG</title>
<desc>Poligon Test</desc>
<style id="style_css_sheet" type="text/css">
.polyStyle{fill: #cccccc;stroke-width:0;fill-rule:evenodd;}
</style>
<circle cx="4639" cy="7169" r="200" stroke="black" stroke-width="1" fill="red" id="632324"position="44333" name="河南蒙古族自治县"/>
<circle cx="3905" cy="5662" r="200" stroke="black" stroke-width="1" fill="red" id="632323" name="泽库县"/>
<circle cx="6638" cy="3267" r="200" stroke="black" stroke-width="1" fill="red" id="632321" name="同仁县"/>
<circle cx="6733" cy="1145" r="200" stroke="black" stroke-width="1" fill="red" id="632322"position="444" name="尖扎县"/>
<path d="" class="polyStyle" id="" style="fill:#ee8b94"/>
<path d="" class="polyStyle" id="623022" style="fill:#fbe6ef"/>
<path d="" class="polyStyle" id="211421" style="fill:#f6f67b"/>
<path d="" class="polyStyle" id="532524" style="fill:#ee8b94"/>
<path d="" class="polyStyle" id="440825" style="fill:#f6f67b"/>
<path d="" class="polyStyle" id="441721" style="fill:#f6f67b"/>
<path d="" class="polyStyle" id="450521" style="fill:#f6f67b"/>
<path d="" class="polyStyle" id="450123" style="fill:#fbe6ef"/>
<path d="" class="polyStyle" id="350624" style="fill:#f6f67b"/>
<path d="" class="polyStyle" id="" style="fill:#fbe6ef"/>
<path d="" class="polyStyle" id="451224" style="fill:#fbe6ef"/>
<path d="" class="polyStyle" id="350627" style="fill:#f6f67b"/>
<path d="" class="polyStyle" id="" style="fill:#f6f67b"/>
<path d="" class="polyStyle" id="350525" style="fill:#f6f67b"/>
<path d="" class="polyStyle" id="530124" style="fill:#ee8b94"/>
<path d="" class="polyStyle" id="522627" style="fill:#ee8b94"/>
<path d="" class="polyStyle" id="510421" style="fill:#fbe6ef"/>
<path d="" class="polyStyle" id="522623" style="fill:#d4ecb2"/>
<path d="" class="polyStyle" id="430321" style="fill:#d4ecb2"/>
<path d="" class="polyStyle" id="511129" style="fill:#d4ecb2"/>
<path d="" class="polyStyle" id="511423" style="fill:#ee8b94"/>
<path d="" class="polyStyle" id="421023" style="fill:#f6f67b"/>
<path d="" class="polyStyle" id="511724" style="fill:#f6f67b"/>
<path d="" class="polyStyle" id="420526" style="fill:#fbe6ef"/>
<path d="" class="polyStyle" id="511923" style="fill:#fbe6ef"/>
<path d="" class="polyStyle" id="420325" style="fill:#fbe6ef"/>
<path d="" class="polyStyle" id="511921" style="fill:#f6f67b"/>
<path d="" class="polyStyle" id="542525" style="fill:#f6f67b"/>
<path d="" class="polyStyle" id="611026" style="fill:#ee8b94"/>
<path d="" class="polyStyle" id="411023" style="fill:#fbe6ef"/>
<polygon points="4001,6281 4000,6289 3999,6295 4000,6300 4004,6303 4010,6306 4013,6306 4017,6307 4027,6309 4037,6310 4044,6308 4048,6307 4052,6307 4056,6308 4058,6310 4062,6314 4067,6323 4071,6337 4072,6348 4073,6352 4074,6369 4074,6381 4075,6387 4079,6387 4086,6383 4091,6378 4096,6373 4100,6376 4106,6377 4109,6374 4115,6364 4118,6356 4123,6353 4133,6357 4135,6364 4140,6382 4144,6385 4148,6385 4157,6386 4162,6385 4165,6381 4170,6375 4174,6375 4180,6381 4187,6388 4195,6389 4198,6390 4203,6392 4215,6391 4221,6386 4226,6381 4225,6372 4224,6368 4223,6361 4220,6358 4210,6348 4209,6345 4213,6340 4218,6337 4221,6335 4227,6336 4238,6343 4247,6347 4252,6347 4259,6343 4263,6340 4271,6336 4286,6337 4312,6338 4322,6337 4350,6340 4370,6341 4376,6341 4406,6343 4429,6343 4441,6345 4453,6341 4458,6341 4472,6339 4479,6339 4485,6341 4499,6342 4504,6342 4508,6342 4517,6343 4532,6342 4537,6346 4544,6351 4549,6354 4556,6360 4564,6366 4569,6371 4582,6373 4600,6374 4616,6379 4623,6380 4627,6373 4623,6355 4623,6345 4625,6334 4629,6324 4635,6314 4641,6310 4648,6307 4655,6302 4659,6296 4663,6293 4671,6294 4676,6297 4680,6309 4682,6319 4685,6325 4692,6330 4702,6337 4708,6338 4716,6337 4722,6336 4727,6338 4730,6343 4733,6348 4742,6359 4749,6361 4756,6365 4754,6371 4758,6377 4765,6382 4772,6398 4776,6404 4783,6410 4786,6410 4790,6407 4793,6402 4796,6400 4799,6399 4813,6403 4830,6405 4831,6410 4830,6414 4830,6420 4834,6423 4839,6425 4842,6424 4846,6419 4847,6413 4850,6409 4854,6406 4858,6406 4865,6410 4864,6420 4866,6425 4873,6423 4887,6417 4894,6416 4901,6418 4909,6428 4916,6430 4921,6425 4920,6419 4914,6413 4917,6409 4924,6409 4930,6415 4932,6420 4939,6420 4941,6414 4932,6403 4932,6397 4939,6393 4946,6396 4953,6396 4967,6390 4973,6387 4980,6386 4987,6388 4991,6394 4998,6392 5001,6386 5005,6382 5014,6390 5021,6394 5026,6395 5028,6403 5025,6409 5027,6420 5029,6425 5022,6428 5016,6427 5009,6430 5007,6435 5011,6447 5004,6447 4984,6440 4977,6439 4970,6441 4966,6447 4963,6458 4957,6460 4950,6449 4943,6449 4936,6453 4933,6459 4934,6465 4939,6470 4944,6475 4951,6478 4955,6484 4955,6489 4943,6498 4941,6504 4942,6510 4937,6513 4923,6512 4918,6516 4918,6522 4924,6526 4938,6523 4945,6524 4951,6529 4952,6534 4947,6540 4927,6545 4926,6551 4935,6556 4944,6566 4943,6572 4942,6575 4935,6577 4928,6575 4917,6563 4910,6562 4904,6565 4896,6577 4889,6579 4885,6568 4881,6565 4874,6568 4869,6573 4869,6579 4872,6585 4884,6596 4887,6602 4884,6607 4878,6610 4871,6608 4864,6610 4857,6615 4857,6620 4868,6632 4868,6637 4854,6644 4850,6649 4854,6654 4861,6658 4866,6663 4866,6669 4858,6686 4858,6692 4870,6703 4871,6714 4871,6731 4875,6742 4885,6759 4883,6765 4876,6768 4869,6769 4865,6775 4867,6786 4864,6792 4865,6797 4871,6803 4872,6809 4870,6820 4871,6824 4880,6829 4889,6836 4892,6841 4889,6846 4882,6849 4881,6855 4885,6861 4892,6865 4893,6868 4908,6874 4911,6880 4910,6886 4914,6889 4924,6889 4931,6890 4942,6892 4953,6901 4959,6904 4968,6903 4975,6902 4979,6900 4982,6902 4984,6909 4986,6913 4988,6916 4990,6922 4991,6926 4990,6932 4991,6940 4995,6950 4997,6953 5006,6954 5020,6955 5023,6953 5030,6947 5036,6939 5051,6928 5060,6921 5068,6920 5093,6924 5119,6929 5130,6931 5144,6927 5165,6924 5185,6921 5208,6917 5228,6916 5242,6916 5259,6919 5278,6923 5289,6925 5302,6930 5323,6930 5342,6929 5353,6931 5366,6934 5367,6937 5367,6946 5367,6955 5367,6960 5371,6966 5375,6968 5374,6971 5368,6977 5367,6984 5365,6992 5363,6997 5363,7003 5363,7008 5365,7014 5371,7015 5374,7013 5375,7011 5378,7009 5382,7007 5384,7007 5387,7007 5390,7008 5393,7007 5396,7005 5398,7003 5402,7001 5405,7001 5407,7001 5412,7001 5415,7000 5419,6998 5421,6996 5424,6996 5427,6994 5429,6995 5432,6996 5437,6995 5437,6991 5441,6990 5445,6989 5450,6988 5453,6987 5457,6985 5460,6983 5462,6982 5465,6981 5468,6980 5470,6979 5472,6978 5475,6977 5478,6976 5482,6976 5486,6976 5490,6974 5492,6970 5495,6969 5498,6969 5507,6969 5512,6971 5515,6971 5518,6970 5524,6968 5530,6968 5535,6968 5539,6968 5542,6966 5544,6966 5546,6966 5550,6966 5553,6965 5556,6965 5559,6964 5564,6962 5568,6962 5575,6959 5578,6958 5581,6957 5584,6956 5587,6955 5593,6952 5595,6952 5598,6950 5602,6949 5606,6948 5611,6948 5615,6949 5617,6950 5620,6951 5622,6953 5625,6953 5628,6954 5650,6962 5675,6969 5686,6976 5707,6982 5729,6989 5744,6997 5773,7013 5780,7017 5798,7020 5809,7027 5813,7029 5816,7028 5824,7025 5831,7020 5835,7022 5840,7025 5849,7032 5853,7040 5864,7053 5877,7065 5886,7073 5893,7079 5899,7082 5905,7090 5909,7095 5912,7099 5915,7099 5919,7101 5922,7102 5925,7103 5930,7106 5934,7108 5937,7109 5942,7111 5951,7116 5955,7118 5958,7120 5961,7122 5965,7123 5974,7128 5978,7130 5981,7132 5985,7134 5989,7135 5992,7135 5995,7134 6000,7131 6004,7127 6006,7125 6009,7124 6013,7124 6017,7125 6020,7123 6023,7122 6025,7118 6026,7114 6026,7110 6027,7107 6027,7104 6030,7100 6033,7100 6038,7100 6042,7101 6047,7102 6051,7103 6054,7104 6058,7104 6061,7105 6065,7106 6072,7110 6076,7110 6079,7111 6082,7112 6085,7113 6089,7113 6091,7114 6095,7116 6100,7116 6103,7116 6106,7117 6110,7118 6115,7120 6122,7123 6130,7126 6135,7129 6139,7131 6144,7133 6147,7135 6153,7136 6158,7130 6154,7225 6166,7329 6168,7337 6171,7354 6186,7381 6196,7393 6206,7401 6212,7411 6214,7427 6214,7431 6196,7459 6180,7477 6164,7493 6160,7529 6164,7569 6172,7617 6182,7677 6184,7751 6206,7857 6226,7879 6252,7897 6346,7927 6354,7941 6364,7995 6388,8025 6434,8047 6444,8075 6456,8097 6492,8119 6550,8133 6604,8145 6672,8155 6796,8153 6824,8151 6850,8149 6856,8149 6922,8145 6971,8154 6978,8155 7032,8167 7090,8219 7104,8237 7120,8239 7156,8227 7180,8235 7190,8243 7194,8247 7204,8265 7209,8277 7210,8281 7222,8293 7232,8303 7252,8319 7258,8321 7270,8321 7294,8315 7342,8305 7352,8333 7382,8403 7388,8411 7398,8439 7424,8522 7422,8530 7418,8541 7418,8553 7424,8564 7435,8575 7438,8579 7438,8586 7441,8589 7453,8598 7460,8609 7469,8619 7483,8627 7495,8636 7506,8647 7509,8649 7516,8652 7527,8654 7536,8665 7540,8672 7548,8677 7553,8682 7551,8693 7550,8704 7553,8716 7562,8727 7573,8738 7585,8749 7591,8761 7595,8772 7594,8783 7595,8794 7598,8806 7610,8817 7618,8828 7618,8839 7630,8846 7638,8857 7644,8869 7656,8880 7667,8889 7678,8900 7679,8905 7677,8908 7681,8915 7693,8922 7707,8917 7720,8922 7734,8929 7745,8941 7749,8944 7754,8951 7760,8962 7770,8973 7773,8977 7776,8983 7783,8991 7791,8995 7796,8997 7804,9007 7807,9010 7814,9014 7818,9014 7826,9021 7833,9032 7845,9042 7852,9053 7857,9063 7860,9067 7847,9078 7833,9088 7827,9092 7820,9096 7806,9103 7792,9108 7779,9115 7765,9122 7752,9125 7738,9130 7724,9134 7711,9138 7697,9141 7689,9142 7684,9143 7676,9143 7670,9142 7657,9137 7643,9128 7629,9119 7616,9113 7602,9110 7589,9106 7575,9103 7567,9101 7561,9101 7548,9096 7534,9088 7530,9077 7518,9068 7512,9065 7500,9069 7494,9073 7490,9081 7454,9155 7434,9193 7418,9235 7408,9277 7394,9309 7374,9339 7356,9353 7318,9373 7312,9377 7308,9385 7310,9393 7324,9417 7308,9469 7302,9481 7268,9481 7228,9473 7180,9453 7152,9437 7104,9421 6990,9387 6901,9379 6898,9390 6897,9394 6890,9407 6882,9418 6880,9429 6883,9436 6882,9440 6877,9446 6870,9448 6868,9453 6871,9463 6870,9471 6865,9479 6868,9485 6870,9490 6872,9498 6875,9505 6880,9539 6882,9581 6882,9627 6886,9637 6886,9663 6884,9671 6884,9679 6874,9697 6868,9703 6850,9705 6830,9701 6780,9691 6734,9693 6688,9695 6642,9713 6632,9729 6628,9733 6637,9751 6687,9789 6693,9793 6705,9813 6707,9817 6717,9871 6713,9881 6661,9891 6643,9895 6635,9909 6635,9935 6633,9961 6615,10007 6611,10010 6607,10013 6591,10019 6569,10025 6543,10023 6491,10013 6473,10007 6439,10003 6425,10003 6409,10001 6391,10003 6361,10027 6359,10039 6363,10045 6389,10069 6395,10099 6383,10157 6379,10179 6361,10243 6357,10275 6357,10295 6353,10299 6339,10299 6249,10263 6179,10231 6135,10209 6085,10181 6053,10173 6049,10171 6025,10181 6013,10191 5987,10193 5949,10191 5939,10185 5933,10179 5909,10113 5907,10105 5899,10093 5893,10089 5875,10085 5823,10077 5803,10077 5797,10079 5797,10085 5805,10101 5817,10117 5821,10125 5825,10135 5829,10151 5825,10175 5801,10203 5771,10219 5745,10217 5739,10215 5675,10203 5581,10195 5511,10195 5414,10218 5381,10226 5381,10235 5379,10247 5377,10252 5372,10268 5361,10289 5357,10301 5357,10318 5353,10329 5343,10340 5334,10351 5330,10357 5326,10368 5317,10385 5305,10396 5298,10401 5278,10407 5266,10419 5255,10430 5252,10434 5245,10433 5234,10427 5224,10418 5217,10407 5216,10403 5217,10393 5219,10380 5220,10363 5218,10351 5213,10343 5204,10340 5193,10341 5186,10345 5183,10355 5183,10372 5187,10392 5186,10401 5182,10410 5174,10416 5165,10419 5158,10419 5147,10417 5138,10414 5128,10407 5121,10400 5118,10391 5128,10298 5127,10283 5122,10273 5113,10269 5099,10268 5083,10269 5071,10274 5062,10282 5059,10287 5058,10293 5053,10306 5049,10311 5043,10314 5035,10315 5025,10314 5015,10311 5007,10306 4996,10297 4982,10289 4925,10275 4894,10263 4882,10258 4871,10252 4853,10239 4835,10224 4819,10207 4807,10191 4796,10174 4792,10153 4793,10144 4795,10138 4798,10133 4804,10129 4810,10126 4817,10125 4857,10119 4861,10117 4863,10113 4863,10110 4860,10106 4830,10096 4822,10092 4814,10085 4784,10044 4778,10039 4771,10036 4737,10026 4724,10019 4717,10013 4713,10007 4709,10001 4706,9991 4702,9973 4696,9961 4690,9952 4683,9946 4673,9942 4661,9940 4609,9941 4582,9939 4560,9934 4536,9923 4503,9900 4491,9894 4485,9888 4481,9881 4477,9866 4470,9857 4461,9853 4452,9853 4443,9859 4436,9866 4427,9871 4409,9878 4383,9881 4362,9880 4356,9879 4350,9876 4346,9873 4344,9868 4343,9860 4345,9842 4345,9835 4344,9829 4339,9821 4331,9817 4317,9816 4305,9816 4296,9812 4293,9808 4289,9796 4286,9790 4282,9785 4276,9781 4271,9780 4259,9779 4230,9782 4216,9787 4177,9809 4159,9820 4142,9828 4129,9832 4113,9834 4102,9836 4092,9838 4085,9842 4076,9853 4069,9856 4047,9858 4028,9855 4019,9852 4011,9847 4005,9841 4002,9835 4000,9832 4000,9828 4000,9820 4002,9813 4007,9807 4015,9795 4017,9783 4016,9776 4013,9768 4003,9759 3991,9752 3978,9747 3949,9740 3917,9732 3902,9731 3885,9731 3850,9732 3815,9728 3801,9725 3789,9720 3777,9715 3763,9706 3753,9701 3745,9699 3677,9700 3651,9701 3638,9698 3620,9679 3605,9666 3591,9659 3576,9655 3554,9654 3513,9651 3498,9647 3481,9641 3476,9639 3468,9633 3451,9616 3441,9609 3430,9603 3423,9601 3411,9599 3403,9597 3384,9596 3379,9595 3375,9593 3364,9588 3357,9589 3352,9592 3346,9597 3339,9600 3327,9601 3310,9597 3290,9591 3271,9592 3251,9596 3217,9608 3197,9612 3190,9610 3186,9606 3185,9599 3188,9593 3194,9588 3203,9586 3217,9582 3222,9577 3223,9573 3222,9567 3218,9562 3211,9557 3202,9555 3187,9552 3181,9550 3178,9546 3180,9539 3187,9530 3196,9522 3199,9516 3198,9509 3193,9499 3187,9493 3181,9491 3174,9492 3165,9496 3151,9505 3142,9506 3128,9504 3114,9502 3101,9498 3087,9494 3072,9498 3055,9497 3046,9494 3038,9488 3032,9481 3029,9473 3027,9468 3022,9466 3010,9465 2983,9470 2972,9470 2963,9467 2952,9460 2943,9455 2902,9434 2888,9424 2881,9414 2880,9408 2882,9404 2890,9396 2899,9389 2901,9386 2902,9380 2901,9376 2897,9372 2890,9368 2871,9361 2838,9354 2826,9348 2817,9345 2807,9346 2797,9353 2785,9366 2780,9369 2775,9370 2770,9371 2761,9371 2739,9366 2732,9364 2727,9361 2722,9358 2719,9355 2715,9348 2716,9341 2720,9331 2722,9321 2722,9312 2725,9295 2726,9280 2733,9273 2738,9268 2740,9263 2739,9250 2740,9244 2743,9232 2745,9222 2744,9214 2740,9209 2735,9206 2727,9198 2723,9194 2719,9192 2710,9190 2699,9188 2683,9188 2616,9187 2577,9179 2559,9174 2551,9170 2544,9164 2540,9154 2538,9146 2486,9211 2464,9227 2446,9237 2422,9237 2404,9235 2380,9225 2374,9219 2366,9211 2360,9203 2348,9195 2330,9185 2300,9179 2288,9179 2280,9179 2274,9185 2270,9203 2262,9213 2240,9213 2222,9209 2208,9207 2182,9201 2154,9199 2124,9199 2052,9207 1975,9225 1970,9225 1946,9201 1930,9195 1904,9193 1888,9197 1870,9205 1856,9211 1836,9219 1832,9211 1826,9161 1822,9153 1816,9145 1796,9135 1786,9133 1774,9133 1764,9133 1758,9137 1754,9147 1748,9157 1744,9157 1730,9151 1708,9141 1700,9137 1690,9129 1680,9123 1614,9057 1612,9053 1578,9021 1532,8991 1494,8973 1476,8969 1466,8979 1444,8991 1428,8989 1394,8973 1384,8969 1366,8959 1344,8947 1332,8933 1320,8925 1328,8902 1349,8850 1367,8810 1370,8772 1373,8746 1385,8718 1410,8689 1419,8662 1422,8627 1448,8600 1447,8567 1445,8536 1445,8481 1456,8447 1441,8414 1438,8382 1433,8356 1420,8296 1399,8180 1389,8155 1357,8098 1342,8106 1319,8130 1308,8141 1288,8141 1280,8141 1258,8123 1243,8108 1233,8098 1228,8083 1216,8076 1214,8066 1208,8057 1178,8033 1169,8023 1160,8008 1162,7993 1163,7980 1177,7965 1184,7952 1179,7928 1160,7898 1144,7886 1139,7874 1143,7849 1143,7825 1136,7798 1132,7787 1139,7768 1145,7755 1145,7736 1141,7720 1125,7704 1097,7693 1081,7688 1071,7682 1063,7676 1059,7665 1063,7650 1063,7635 1059,7622 1051,7600 1051,7585 1042,7571 1031,7562 1042,7559 1075,7552 1103,7549 1129,7547 1158,7547 1200,7540 1237,7535 1265,7538 1305,7540 1336,7537 1391,7535 1429,7544 1464,7551 1489,7577 1515,7607 1545,7634 1583,7624 1623,7620 1656,7624 1688,7615 1719,7600 1748,7578 1774,7548 1800,7532 1828,7511 1854,7482 1853,7452 1872,7421 1862,7393 1849,7366 1850,7333 1869,7302 1910,7261 1943,7252 1982,7259 2017,7268 2033,7243 2048,7217 2053,7191 2058,7160 2034,7134 2017,7105 2010,7074 2026,7035 2019,7002 1980,6978 1954,6963 1942,6936 1954,6905 1979,6886 1994,6855 1999,6847 2022,6847 2070,6852 2117,6838 2139,6829 2170,6782 2234,6712 2274,6669 2282,6650 2275,6610 2255,6584 2250,6549 2250,6516 2240,6466 2232,6455 2238,6456 2246,6463 2259,6464 2269,6465 2273,6469 2278,6474 2283,6485 2289,6496 2291,6500 2294,6500 2304,6499 2313,6498 2316,6498 2320,6499 2324,6500 2329,6502 2333,6505 2337,6509 2343,6516 2352,6521 2362,6528 2370,6532 2374,6534 2380,6536 2386,6537 2390,6537 2394,6537 2406,6536 2409,6536 2415,6534 2422,6533 2427,6531 2430,6530 2441,6527 2445,6526 2449,6525 2462,6525 2465,6526 2468,6528 2477,6533 2493,6544 2510,6552 2522,6554 2531,6559 2552,6561 2566,6563 2571,6565 2577,6572 2581,6580 2584,6587 2590,6593 2599,6595 2608,6590 2613,6580 2616,6566 2617,6561 2630,6552 2648,6544 2659,6542 2670,6541 2681,6542 2695,6547 2708,6556 2722,6558 2731,6557 2743,6555 2754,6550 2763,6538 2774,6527 2789,6516 2804,6505 2818,6492 2838,6481 2851,6472 2859,6464 2865,6458 2876,6453 2885,6452 2893,6454 2907,6459 2918,6468 2931,6475 2939,6478 2948,6478 2958,6476 2969,6469 2979,6459 2985,6448 2989,6440 2995,6434 3003,6428 3010,6425 3018,6423 3029,6425 3038,6428 3047,6431 3055,6432 3066,6431 3090,6427 3106,6425 3117,6427 3130,6434 3144,6441 3154,6443 3165,6444 3189,6442 3208,6441 3224,6434 3237,6428 3243,6426 3246,6430 3247,6436 3249,6439 3254,6441 3268,6438 3284,6435 3299,6434 3316,6436 3328,6436 3341,6436 3362,6433 3378,6431 3396,6429 3416,6423 3433,6419 3447,6413 3469,6404 3486,6394 3497,6390 3502,6389 3505,6394 3505,6406 3506,6411 3508,6417 3511,6420 3518,6423 3527,6422 3543,6415 3564,6405 3582,6397 3587,6395 3594,6397 3606,6405 3616,6409 3630,6406 3642,6405 3658,6403 3675,6404 3692,6408 3704,6412 3715,6414 3723,6414 3732,6404 3741,6384 3741,6371 3742,6362 3746,6356 3751,6351 3760,6346 3769,6342 3803,6327 3825,6315 3829,6313 3833,6312 3836,6311 3843,6310 3851,6311 3859,6310 3868,6305 3877,6300 3882,6296 3887,6291 3888,6288 3889,6283 3894,6282 3907,6281 3926,6279 3961,6278 3991,6275 3996,6275 4000,6277 " class="polyStyle" id="632324" style="fill:#ee8b94"/>
<path d="M3591,3312 L3599,3320 L3604,3325 L3610,3334 L3612,3339 L3614,3344 L3619,3361 L3630,3368 L3640,3374 L3652,3382 L3664,3389 L3669,3391 L3673,3392 L3677,3392 L3684,3394 L3692,3395 L3702,3396 L3704,3398 L3706,3398 L3716,3396 L3720,3396 L3724,3400 L3727,3402 L3730,3403 L3734,3403 L3743,3403 L3758,3398 L3768,3399 L3781,3410 L3794,3425 L3803,3436 L3813,3442 L3820,3446 L3837,3451 L3849,3452 L3860,3456 L3869,3460 L3882,3468 L3892,3474 L3901,3476 L3908,3473 L3917,3461 L3917,3454 L3921,3445 L3926,3439 L3931,3431 L3935,3423 L3939,3416 L3946,3410 L3954,3406 L3971,3396 L3987,3389 L4000,3385 L4016,3383 L4027,3384 L4048,3385 L4056,3387 L4065,3392 L4071,3398 L4076,3404 L4087,3415 L4092,3422 L4100,3425 L4108,3427 L4119,3428 L4133,3433 L4146,3447 L4151,3456 L4158,3465 L4166,3481 L4178,3490 L4188,3493 L4199,3491 L4207,3488 L4214,3482 L4222,3478 L4232,3474 L4243,3470 L4262,3463 L4275,3459 L4285,3456 L4292,3451 L4297,3447 L4300,3433 L4300,3417 L4302,3404 L4304,3398 L4305,3391 L4307,3385 L4318,3378 L4327,3376 L4336,3375 L4348,3374 L4363,3370 L4369,3365 L4375,3356 L4374,3348 L4378,3341 L4385,3329 L4400,3327 L4411,3327 L4421,3327 L4431,3325 L4442,3320 L4449,3317 L4458,3317 L4466,3318 L4477,3323 L4487,3328 L4495,3332 L4503,3338 L4509,3343 L4516,3348 L4523,3356 L4534,3362 L4547,3353 L4555,3347 L4565,3341 L4575,3337 L4585,3335 L4594,3335 L4606,3335 L4618,3328 L4627,3325 L4636,3327 L4647,3332 L4656,3337 L4662,3338 L4660,3365 L4663,3375 L4685,3390 L4700,3406 L4715,3410 L4742,3402 L4760,3405 L4788,3401 L4794,3388 L4808,3393 L4834,3393 L4859,3407 L4885,3410 L4900,3416 L4950,3425 L4969,3430 L4980,3425 L4989,3416 L5029,3416 L5039,3422 L5052,3426 L5058,3433 L5071,3439 L5085,3439 L5098,3444 L5108,3452 L5136,3462 L5147,3461 L5169,3472 L5169,3461 L5171,3455 L5187,3449 L5192,3451 L5219,3438 L5232,3439 L5248,3428 L5259,3425 L5275,3418 L5290,3415 L5315,3420 L5403,3392 L5434,3403 L5462,3409 L5504,3421 L5533,3425 L5566,3434 L5596,3434 L5611,3441 L5626,3456 L5658,3459 L5670,3453 L5686,3456 L5705,3461 L5716,3472 L5728,3503 L5735,3511 L5762,3512 L5779,3516 L5787,3537 L5791,3548 L5815,3558 L5818,3590 L5845,3616 L5856,3641 L5858,3674 L5857,3691 L5845,3709 L5837,3724 L5835,3744 L5838,3774 L5851,3801 L5852,3818 L5833,3829 L5828,3840 L5830,3859 L5833,3873 L5826,3884 L5812,3904 L5805,3925 L5799,3952 L5801,3971 L5809,3983 L5809,3994 L5782,4007 L5772,4010 L5749,3999 L5730,3986 L5715,3986 L5697,3988 L5683,3996 L5650,4021 L5622,4031 L5596,4034 L5558,4042 L5527,4052 L5520,4061 L5524,4080 L5533,4110 L5544,4128 L5545,4143 L5543,4158 L5548,4172 L5556,4189 L5551,4210 L5543,4225 L5549,4238 L5553,4247 L5566,4254 L5570,4265 L5572,4279 L5554,4298 L5533,4312 L5526,4321 L5513,4332 L5493,4338 L5460,4340 L5447,4339 L5433,4331 L5424,4328 L5405,4331 L5377,4337 L5364,4343 L5364,4357 L5371,4367 L5365,4384 L5347,4393 L5315,4412 L5281,4422 L5239,4410 L5209,4398 L5181,4391 L5170,4388 L5155,4394 L5142,4423 L5128,4448 L5139,4477 L5175,4506 L5202,4540 L5226,4574 L5249,4599 L5277,4638 L5291,4669 L5299,4700 L5320,4722 L5326,4733 L5343,4711 L5345,4698 L5358,4686 L5414,4679 L5442,4674 L5445,4667 L5463,4653 L5476,4636 L5510,4616 L5504,4601 L5519,4589 L5528,4578 L5539,4574 L5582,4582 L5628,4612 L5658,4612 L5681,4603 L5742,4607 L5755,4616 L5769,4629 L5801,4636 L5817,4627 L5831,4613 L5846,4606 L5862,4609 L5875,4613 L5890,4604 L5908,4583 L5911,4569 L5911,4532 L5915,4507 L5923,4466 L5930,4432 L5940,4405 L5955,4377 L5968,4349 L5987,4323 L6028,4311 L6058,4295 L6080,4284 L6100,4279 L6110,4263 L6117,4265 L6127,4279 L6129,4295 L6139,4309 L6149,4307 L6158,4297 L6175,4281 L6186,4272 L6197,4255 L6196,4207 L6199,4192 L6215,4181 L6222,4178 L6217,4168 L6220,4157 L6223,4154 L6222,4148 L6232,4147 L6245,4149 L6262,4162 L6281,4171 L6297,4189 L6349,4223 L6375,4246 L6384,4259 L6406,4264 L6446,4262 L6458,4267 L6478,4286 L6504,4304 L6523,4340 L6520,4352 L6526,4361 L6524,4383 L6487,4444 L6505,4471 L6526,4506 L6539,4535 L6561,4563 L6573,4567 L6591,4566 L6615,4584 L6627,4587 L6643,4596 L6651,4619 L6655,4649 L6673,4678 L6688,4699 L6689,4720 L6703,4730 L6749,4759 L6759,4770 L6764,4803 L6774,4816 L6791,4826 L6808,4846 L6820,4877 L6820,4895 L6824,4925 L6816,4933 L6795,4944 L6737,4965 L6724,4977 L6698,4980 L6670,4991 L6643,5015 L6646,5019 L6662,5022 L6675,5028 L6681,5038 L6682,5052 L6674,5099 L6705,5111 L6739,5132 L6765,5140 L6776,5146 L6788,5177 L6795,5209 L6794,5235 L6797,5267 L6797,5280 L6808,5296 L6823,5308 L6832,5324 L6845,5349 L6830,5384 L6827,5412 L6835,5443 L6842,5453 L6863,5451 L6888,5469 L6922,5477 L6937,5477 L6951,5487 L6978,5499 L7010,5514 L7042,5511 L7055,5508 L7068,5535 L7100,5564 L7112,5590 L7100,5618 L7097,5628 L7108,5647 L7107,5659 L7096,5672 L7094,5680 L7108,5701 L7137,5730 L7168,5747 L7195,5755 L7220,5763 L7224,5768 L7220,5769 L7206,5775 L7174,5803 L7146,5833 L7084,5891 L7046,5925 L7012,5959 L6932,6043 L6924,6061 L6942,6097 L6936,6105 L6930,6113 L6888,6141 L6842,6181 L6814,6231 L6808,6255 L6814,6293 L6832,6323 L6892,6367 L6898,6371 L6900,6375 L6898,6379 L6892,6383 L6866,6393 L6842,6401 L6808,6407 L6804,6405 L6766,6397 L6750,6391 L6734,6381 L6718,6367 L6694,6347 L6684,6341 L6676,6341 L6614,6353 L6548,6353 L6496,6349 L6468,6351 L6380,6389 L6338,6393 L6280,6393 L6234,6403 L6206,6421 L6186,6441 L6166,6465 L6160,6509 L6160,6533 L6182,6561 L6202,6581 L6224,6597 L6230,6615 L6218,6637 L6216,6641 L6200,6669 L6196,6707 L6196,6765 L6204,6815 L6204,6819 L6200,6821 L6186,6823 L6172,6829 L6168,6831 L6166,6841 L6158,6871 L6152,6909 L6152,6919 L6158,7025 L6160,7105 L6158,7130 L6153,7136 L6147,7135 L6144,7133 L6139,7131 L6135,7129 L6130,7126 L6122,7123 L6115,7120 L6110,7118 L6106,7117 L6103,7116 L6100,7116 L6095,7116 L6091,7114 L6089,7113 L6085,7113 L6082,7112 L6079,7111 L6076,7110 L6072,7110 L6065,7106 L6061,7105 L6058,7104 L6054,7104 L6051,7103 L6047,7102 L6042,7101 L6038,7100 L6033,7100 L6030,7100 L6027,7104 L6027,7107 L6026,7110 L6026,7114 L6025,7118 L6023,7122 L6020,7123 L6017,7125 L6013,7124 L6009,7124 L6006,7125 L6004,7127 L6000,7131 L5995,7134 L5992,7135 L5989,7135 L5985,7134 L5981,7132 L5978,7130 L5974,7128 L5965,7123 L5961,7122 L5958,7120 L5955,7118 L5951,7116 L5942,7111 L5937,7109 L5934,7108 L5930,7106 L5925,7103 L5922,7102 L5919,7101 L5915,7099 L5912,7099 L5909,7095 L5905,7090 L5899,7082 L5893,7079 L5886,7073 L5877,7065 L5864,7053 L5853,7040 L5849,7032 L5840,7025 L5835,7022 L5831,7020 L5824,7025 L5816,7028 L5813,7029 L5809,7027 L5798,7020 L5780,7017 L5773,7013 L5744,6997 L5729,6989 L5707,6982 L5686,6976 L5675,6969 L5650,6962 L5628,6954 L5625,6953 L5622,6953 L5620,6951 L5617,6950 L5615,6949 L5611,6948 L5606,6948 L5602,6949 L5598,6950 L5595,6952 L5593,6952 L5587,6955 L5584,6956 L5581,6957 L5578,6958 L5575,6959 L5568,6962 L5564,6962 L5559,6964 L5556,6965 L5553,6965 L5550,6966 L5546,6966 L5544,6966 L5542,6966 L5539,6968 L5535,6968 L5530,6968 L5524,6968 L5518,6970 L5515,6971 L5512,6971 L5507,6969 L5498,6969 L5495,6969 L5492,6970 L5490,6974 L5486,6976 L5482,6976 L5478,6976 L5475,6977 L5472,6978 L5470,6979 L5468,6980 L5465,6981 L5462,6982 L5460,6983 L5457,6985 L5453,6987 L5450,6988 L5445,6989 L5441,6990 L5437,6991 L5437,6995 L5432,6996 L5429,6995 L5427,6994 L5424,6996 L5421,6996 L5419,6998 L5415,7000 L5412,7001 L5407,7001 L5405,7001 L5402,7001 L5398,7003 L5396,7005 L5393,7007 L5390,7008 L5387,7007 L5384,7007 L5382,7007 L5378,7009 L5375,7011 L5374,7013 L5371,7015 L5365,7014 L5363,7008 L5363,7003 L5363,6997 L5365,6992 L5367,6984 L5368,6977 L5374,6971 L5375,6968 L5371,6966 L5367,6960 L5367,6955 L5367,6946 L5367,6937 L5366,6934 L5353,6931 L5342,6929 L5323,6930 L5302,6930 L5289,6925 L5278,6923 L5259,6919 L5242,6916 L5228,6916 L5208,6917 L5185,6921 L5165,6924 L5144,6927 L5130,6931 L5119,6929 L5093,6924 L5068,6920 L5060,6921 L5051,6928 L5036,6939 L5030,6947 L5023,6953 L5020,6955 L5006,6954 L4997,6953 L4995,6950 L4991,6940 L4990,6932 L4991,6926 L4990,6922 L4988,6916 L4986,6913 L4984,6909 L4982,6902 L4979,6900 L4975,6902 L4968,6903 L4959,6904 L4953,6901 L4942,6892 L4931,6890 L4924,6889 L4914,6889 L4910,6886 L4911,6880 L4908,6874 L4893,6868 L4892,6865 L4885,6861 L4881,6855 L4882,6849 L4889,6846 L4892,6841 L4889,6836 L4880,6829 L4871,6824 L4870,6820 L4872,6809 L4871,6803 L4865,6797 L4864,6792 L4867,6786 L4865,6775 L4869,6769 L4876,6768 L4883,6765 L4885,6759 L4875,6742 L4871,6731 L4871,6714 L4870,6703 L4858,6692 L4858,6686 L4866,6669 L4866,6663 L4861,6658 L4854,6654 L4850,6649 L4854,6644 L4868,6637 L4868,6632 L4857,6620 L4857,6615 L4864,6610 L4871,6608 L4878,6610 L4884,6607 L4887,6602 L4884,6596 L4872,6585 L4869,6579 L4869,6573 L4874,6568 L4881,6565 L4885,6568 L4889,6579 L4896,6577 L4904,6565 L4910,6562 L4917,6563 L4928,6575 L4935,6577 L4942,6575 L4943,6572 L4944,6566 L4935,6556 L4926,6551 L4927,6545 L4947,6540 L4952,6534 L4951,6529 L4945,6524 L4938,6523 L4924,6526 L4918,6522 L4918,6516 L4923,6512 L4937,6513 L4942,6510 L4941,6504 L4943,6498 L4955,6489 L4955,6484 L4951,6478 L4944,6475 L4939,6470 L4934,6465 L4933,6459 L4936,6453 L4943,6449 L4950,6449 L4957,6460 L4963,6458 L4966,6447 L4970,6441 L4977,6439 L4984,6440 L5004,6447 L5011,6447 L5007,6435 L5009,6430 L5016,6427 L5022,6428 L5029,6425 L5027,6420 L5025,6409 L5028,6403 L5026,6395 L5021,6394 L5014,6390 L5005,6382 L5001,6386 L4998,6392 L4991,6394 L4987,6388 L4980,6386 L4973,6387 L4967,6390 L4953,6396 L4946,6396 L4939,6393 L4932,6397 L4932,6403 L4941,6414 L4939,6420 L4932,6420 L4930,6415 L4924,6409 L4917,6409 L4914,6413 L4920,6419 L4921,6425 L4916,6430 L4909,6428 L4901,6418 L4894,6416 L4887,6417 L4873,6423 L4866,6425 L4864,6420 L4865,6410 L4858,6406 L4854,6406 L4850,6409 L4847,6413 L4846,6419 L4842,6424 L4839,6425 L4834,6423 L4830,6420 L4830,6414 L4831,6410 L4830,6405 L4813,6403 L4799,6399 L4796,6400 L4793,6402 L4790,6407 L4786,6410 L4783,6410 L4776,6404 L4772,6398 L4765,6382 L4758,6377 L4754,6371 L4756,6365 L4749,6361 L4742,6359 L4733,6348 L4730,6343 L4727,6338 L4722,6336 L4716,6337 L4708,6338 L4702,6337 L4692,6330 L4685,6325 L4682,6319 L4680,6309 L4676,6297 L4671,6294 L4663,6293 L4659,6296 L4655,6302 L4648,6307 L4641,6310 L4635,6314 L4629,6324 L4625,6334 L4623,6345 L4623,6355 L4627,6373 L4623,6380 L4616,6379 L4600,6374 L4582,6373 L4569,6371 L4564,6366 L4556,6360 L4549,6354 L4544,6351 L4537,6346 L4532,6342 L4517,6343 L4508,6342 L4504,6342 L4499,6342 L4485,6341 L4479,6339 L4472,6339 L4458,6341 L4453,6341 L4441,6345 L4429,6343 L4406,6343 L4376,6341 L4370,6341 L4350,6340 L4322,6337 L4312,6338 L4286,6337 L4271,6336 L4263,6340 L4259,6343 L4252,6347 L4247,6347 L4238,6343 L4227,6336 L4221,6335 L4218,6337 L4213,6340 L4209,6345 L4210,6348 L4220,6358 L4223,6361 L4224,6368 L4225,6372 L4226,6381 L4221,6386 L4215,6391 L4203,6392 L4198,6390 L4195,6389 L4187,6388 L4180,6381 L4174,6375 L4170,6375 L4165,6381 L4162,6385 L4157,6386 L4148,6385 L4144,6385 L4140,6382 L4135,6364 L4133,6357 L4123,6353 L4118,6356 L4115,6364 L4109,6374 L4106,6377 L4100,6376 L4096,6373 L4091,6378 L4086,6383 L4079,6387 L4075,6387 L4074,6381 L4074,6369 L4073,6352 L4072,6348 L4071,6337 L4067,6323 L4062,6314 L4058,6310 L4056,6308 L4052,6307 L4048,6307 L4044,6308 L4037,6310 L4027,6309 L4017,6307 L4013,6306 L4010,6306 L4004,6303 L4000,6300 L3999,6295 L4000,6289 L4001,6281 L4000,6277 L3996,6275 L3991,6275 L3961,6278 L3926,6279 L3907,6281 L3894,6282 L3889,6283 L3888,6288 L3887,6291 L3882,6296 L3877,6300 L3868,6305 L3859,6310 L3851,6311 L3843,6310 L3836,6311 L3833,6312 L3829,6313 L3825,6315 L3803,6327 L3769,6342 L3760,6346 L3751,6351 L3746,6356 L3742,6362 L3741,6371 L3741,6384 L3732,6404 L3723,6414 L3715,6414 L3704,6412 L3692,6408 L3675,6404 L3658,6403 L3642,6405 L3630,6406 L3616,6409 L3606,6405 L3594,6397 L3587,6395 L3582,6397 L3564,6405 L3543,6415 L3527,6422 L3518,6423 L3511,6420 L3508,6417 L3506,6411 L3505,6406 L3505,6394 L3502,6389 L3497,6390 L3486,6394 L3469,6404 L3447,6413 L3433,6419 L3416,6423 L3396,6429 L3378,6431 L3362,6433 L3341,6436 L3328,6436 L3316,6436 L3299,6434 L3284,6435 L3268,6438 L3254,6441 L3249,6439 L3247,6436 L3246,6430 L3243,6426 L3237,6428 L3224,6434 L3208,6441 L3189,6442 L3165,6444 L3154,6443 L3144,6441 L3130,6434 L3117,6427 L3106,6425 L3090,6427 L3066,6431 L3055,6432 L3047,6431 L3038,6428 L3029,6425 L3018,6423 L3010,6425 L3003,6428 L2995,6434 L2989,6440 L2985,6448 L2979,6459 L2969,6469 L2958,6476 L2948,6478 L2939,6478 L2931,6475 L2918,6468 L2907,6459 L2893,6454 L2885,6452 L2876,6453 L2865,6458 L2859,6464 L2851,6472 L2838,6481 L2818,6492 L2804,6505 L2789,6516 L2774,6527 L2763,6538 L2754,6550 L2743,6555 L2731,6557 L2722,6558 L2708,6556 L2695,6547 L2681,6542 L2670,6541 L2659,6542 L2648,6544 L2630,6552 L2617,6561 L2616,6566 L2613,6580 L2608,6590 L2599,6595 L2590,6593 L2584,6587 L2581,6580 L2577,6572 L2571,6565 L2566,6563 L2552,6561 L2531,6559 L2522,6554 L2510,6552 L2493,6544 L2477,6533 L2468,6528 L2465,6526 L2462,6525 L2449,6525 L2445,6526 L2441,6527 L2430,6530 L2427,6531 L2422,6533 L2415,6534 L2409,6536 L2406,6536 L2394,6537 L2390,6537 L2386,6537 L2380,6536 L2374,6534 L2370,6532 L2362,6528 L2352,6521 L2343,6516 L2337,6509 L2333,6505 L2329,6502 L2324,6500 L2320,6499 L2316,6498 L2313,6498 L2304,6499 L2294,6500 L2291,6500 L2289,6496 L2283,6485 L2278,6474 L2273,6469 L2269,6465 L2259,6464 L2246,6463 L2238,6456 L2232,6455 L2228,6451 L2224,6443 L2223,6435 L2221,6427 L2216,6423 L2209,6421 L2203,6420 L2191,6420 L2179,6414 L2167,6406 L2151,6396 L2147,6396 L2136,6393 L2132,6394 L2126,6398 L2118,6404 L2110,6413 L2096,6423 L2089,6422 L2081,6416 L2073,6409 L2060,6396 L2045,6387 L2034,6383 L2016,6378 L1999,6378 L1985,6378 L1968,6384 L1954,6388 L1942,6388 L1922,6388 L1903,6389 L1886,6388 L1874,6386 L1859,6389 L1841,6393 L1827,6389 L1809,6384 L1798,6381 L1792,6374 L1781,6354 L1767,6335 L1758,6326 L1750,6324 L1741,6320 L1736,6312 L1739,6302 L1751,6287 L1758,6279 L1759,6272 L1758,6267 L1753,6261 L1730,6254 L1703,6251 L1689,6249 L1681,6251 L1670,6254 L1660,6254 L1647,6249 L1635,6244 L1625,6239 L1617,6238 L1604,6240 L1587,6248 L1578,6247 L1568,6244 L1557,6241 L1547,6239 L1534,6240 L1523,6243 L1516,6243 L1497,6234 L1481,6224 L1466,6212 L1459,6197 L1456,6188 L1450,6178 L1441,6173 L1436,6171 L1424,6172 L1409,6178 L1401,6181 L1394,6180 L1381,6172 L1370,6159 L1361,6154 L1353,6150 L1344,6150 L1329,6150 L1320,6147 L1306,6129 L1292,6114 L1289,6104 L1288,6095 L1288,6087 L1289,6076 L1289,6061 L1283,6046 L1277,6033 L1264,6020 L1254,6014 L1245,6006 L1241,5999 L1241,5989 L1239,5981 L1237,5978 L1225,5974 L1203,5971 L1188,5968 L1176,5962 L1171,5953 L1171,5942 L1170,5933 L1168,5926 L1164,5920 L1153,5915 L1144,5912 L1131,5914 L1115,5927 L1106,5933 L1096,5934 L1087,5931 L1072,5921 L1061,5917 L1048,5916 L1039,5915 L1026,5910 L1014,5903 L1003,5899 L990,5898 L985,5897 L978,5894 L973,5889 L970,5882 L959,5869 L949,5868 L931,5865 L919,5861 L906,5857 L896,5856 L886,5853 L872,5842 L856,5837 L838,5831 L828,5831 L822,5837 L812,5843 L803,5844 L782,5844 L759,5844 L736,5844 L714,5844 L705,5844 L684,5838 L673,5837 L659,5834 L647,5832 L628,5823 L614,5815 L597,5804 L586,5798 L580,5793 L575,5788 L570,5782 L570,5775 L573,5764 L578,5758 L582,5748 L582,5741 L581,5731 L570,5726 L554,5724 L542,5720 L526,5716 L516,5713 L502,5716 L491,5720 L479,5724 L471,5722 L458,5713 L444,5710 L434,5706 L421,5699 L413,5692 L405,5688 L392,5683 L381,5678 L373,5672 L365,5665 L354,5660 L345,5653 L334,5649 L319,5648 L310,5649 L297,5651 L285,5654 L274,5655 L264,5647 L259,5640 L255,5634 L251,5624 L246,5615 L242,5606 L237,5597 L231,5589 L223,5577 L204,5558 L192,5544 L187,5536 L182,5526 L175,5520 L166,5519 L160,5510 L155,5500 L151,5493 L143,5481 L135,5483 L126,5481 L115,5480 L106,5480 L103,5479 L97,5477 L92,5476 L89,5475 L88,5473 L85,5469 L72,5462 L65,5458 L63,5457 L58,5453 L57,5451 L56,5448 L54,5442 L54,5438 L54,5434 L56,5429 L56,5422 L56,5419 L54,5416 L54,5414 L53,5412 L53,5409 L51,5406 L50,5402 L49,5397 L50,5393 L49,5389 L50,5384 L50,5379 L50,5373 L50,5369 L51,5365 L52,5362 L52,5359 L54,5356 L57,5353 L60,5349 L61,5346 L64,5343 L65,5340 L66,5338 L67,5334 L67,5331 L68,5326 L70,5320 L71,5317 L72,5313 L71,5306 L72,5302 L72,5300 L71,5297 L70,5292 L67,5288 L62,5278 L61,5274 L60,5269 L58,5265 L56,5260 L50,5253 L55,5250 L68,5238 L78,5231 L88,5226 L92,5222 L96,5217 L105,5201 L110,5195 L115,5193 L119,5192 L121,5191 L129,5184 L136,5177 L137,5172 L136,5169 L135,5165 L127,5156 L125,5151 L122,5148 L118,5144 L116,5139 L111,5129 L109,5123 L106,5116 L98,5107 L89,5102 L84,5097 L91,5094 L100,5095 L110,5098 L120,5103 L130,5106 L141,5107 L148,5107 L156,5104 L167,5099 L180,5093 L189,5089 L202,5085 L220,5081 L226,5076 L242,5055 L255,5043 L280,5015 L292,5005 L298,5001 L303,4998 L321,4985 L333,4975 L345,4969 L362,4964 L373,4962 L392,4958 L434,4941 L450,4935 L479,4923 L499,4916 L512,4911 L551,4894 L568,4886 L589,4875 L608,4866 L624,4857 L637,4853 L662,4816 L712,4756 L847,4671 L933,4602 L976,4553 L987,4541 L1061,4460 L1066,4454 L1145,4368 L1152,4363 L1150,4359 L1132,4345 L1128,4340 L1125,4331 L1122,4323 L1107,4324 L1096,4322 L1087,4320 L1077,4312 L1070,4311 L1056,4311 L1045,4311 L1020,4311 L1011,4312 L999,4313 L997,4310 L978,4273 L955,4265 L937,4260 L920,4253 L896,4245 L875,4240 L852,4230 L839,4226 L815,4216 L789,4222 L711,4244 L703,4244 L636,4246 L632,4244 L630,4235 L629,4212 L631,4176 L630,4173 L628,4172 L609,4168 L553,4159 L532,4157 L475,4147 L452,4144 L404,4137 L390,4136 L372,4134 L349,4134 L329,4134 L324,4133 L299,4133 L291,4133 L232,4129 L230,4128 L220,4095 L216,4081 L207,4057 L165,4035 L151,4030 L83,3992 L78,3987 L74,3984 L72,3981 L70,3979 L68,3977 L66,3974 L54,3960 L47,3950 L44,3943 L44,3935 L44,3928 L42,3917 L41,3909 L38,3901 L26,3891 L18,3887 L12,3879 L10,3872 L9,3865 L11,3855 L14,3847 L15,3840 L17,3831 L16,3821 L12,3812 L7,3804 L0,3792 L5,3781 L10,3774 L16,3769 L24,3765 L31,3761 L34,3760 L49,3760 L56,3757 L65,3754 L74,3754 L84,3756 L100,3754 L116,3747 L129,3743 L141,3738 L153,3734 L161,3734 L170,3736 L175,3742 L181,3750 L184,3757 L194,3762 L203,3764 L214,3766 L222,3770 L236,3769 L251,3764 L261,3762 L280,3758 L292,3753 L303,3751 L326,3754 L345,3755 L365,3759 L376,3763 L392,3761 L403,3753 L406,3747 L412,3737 L419,3730 L430,3727 L440,3728 L448,3731 L455,3736 L463,3743 L469,3747 L478,3751 L497,3754 L507,3755 L521,3762 L531,3768 L541,3775 L558,3776 L567,3776 L575,3775 L582,3781 L588,3790 L594,3794 L602,3794 L612,3793 L625,3792 L637,3792 L652,3791 L661,3785 L663,3775 L665,3767 L672,3758 L679,3754 L689,3747 L700,3741 L708,3731 L712,3725 L714,3713 L723,3702 L736,3700 L758,3705 L768,3704 L782,3702 L796,3700 L803,3701 L814,3706 L822,3710 L829,3714 L840,3720 L848,3720 L862,3722 L875,3718 L887,3716 L896,3716 L910,3718 L927,3721 L943,3723 L967,3731 L986,3734 L1004,3740 L1033,3750 L1049,3752 L1080,3761 L1099,3765 L1120,3767 L1154,3769 L1173,3769 L1214,3766 L1226,3764 L1245,3766 L1259,3766 L1270,3769 L1279,3776 L1286,3781 L1309,3802 L1324,3810 L1335,3816 L1346,3823 L1355,3827 L1368,3830 L1379,3834 L1402,3838 L1414,3838 L1422,3839 L1431,3838 L1454,3831 L1470,3827 L1479,3824 L1492,3820 L1509,3816 L1521,3813 L1530,3810 L1542,3803 L1553,3816 L1564,3817 L1581,3810 L1591,3803 L1599,3800 L1610,3799 L1624,3801 L1640,3802 L1652,3799 L1662,3794 L1672,3796 L1683,3800 L1690,3803 L1699,3803 L1707,3802 L1718,3800 L1727,3796 L1738,3792 L1754,3785 L1761,3781 L1771,3775 L1779,3772 L1787,3771 L1797,3773 L1812,3775 L1825,3781 L1837,3789 L1849,3790 L1859,3788 L1874,3784 L1885,3786 L1898,3788 L1914,3789 L1933,3789 L1945,3786 L1954,3783 L1962,3782 L1974,3791 L1981,3795 L1989,3801 L1995,3807 L2001,3812 L2011,3817 L2020,3808 L2025,3800 L2034,3797 L2040,3801 L2052,3810 L2061,3819 L2069,3824 L2080,3817 L2085,3811 L2092,3802 L2103,3798 L2111,3799 L2119,3800 L2127,3799 L2135,3798 L2147,3798 L2162,3799 L2172,3803 L2182,3805 L2218,3820 L2227,3825 L2241,3829 L2250,3833 L2258,3835 L2268,3840 L2275,3844 L2285,3849 L2292,3850 L2302,3847 L2319,3839 L2329,3833 L2338,3830 L2351,3831 L2362,3828 L2372,3823 L2388,3822 L2394,3829 L2406,3847 L2416,3856 L2427,3867 L2435,3875 L2444,3882 L2451,3886 L2463,3889 L2472,3888 L2482,3885 L2493,3885 L2507,3889 L2524,3890 L2535,3890 L2546,3896 L2559,3901 L2568,3900 L2577,3902 L2589,3903 L2603,3909 L2610,3910 L2619,3910 L2630,3907 L2638,3904 L2648,3901 L2657,3901 L2664,3906 L2672,3913 L2679,3920 L2690,3930 L2698,3935 L2707,3940 L2714,3946 L2720,3954 L2730,3967 L2733,3974 L2748,3982 L2761,3988 L2771,3993 L2782,3994 L2793,3995 L2803,3996 L2820,4001 L2828,3996 L2831,3990 L2834,3983 L2844,3978 L2858,3978 L2879,3982 L2894,3985 L2923,3992 L2932,3991 L2941,3990 L2956,3995 L2963,4000 L2976,4013 L2985,4023 L3012,4039 L3021,4044 L3035,4040 L3047,4034 L3055,4030 L3075,4027 L3092,4023 L3100,4024 L3112,4035 L3142,4061 L3149,4067 L3158,4068 L3172,4070 L3190,4069 L3205,4072 L3216,4075 L3230,4085 L3237,4093 L3243,4099 L3250,4108 L3262,4112 L3277,4114 L3286,4119 L3298,4123 L3315,4127 L3327,4128 L3343,4131 L3353,4131 L3369,4133 L3377,4136 L3385,4139 L3399,4146 L3404,4151 L3414,4161 L3424,4168 L3437,4173 L3455,4173 L3486,4171 L3502,4171 L3523,4170 L3550,4166 L3578,4166 L3611,4166 L3655,4168 L3685,4171 L3711,4173 L3728,4174 L3734,4175 L3739,4174 L3749,4172 L3762,4168 L3778,4161 L3791,4155 L3807,4147 L3842,4122 L3868,4107 L3900,4097 L3922,4092 L3947,4088 L3955,4085 L3962,4082 L3965,4076 L3966,4072 L3974,4054 L3974,4044 L3973,4038 L3964,4034 L3951,4034 L3937,4024 L3935,4017 L3931,4010 L3930,4002 L3928,3994 L3926,3987 L3913,3978 L3904,3971 L3893,3965 L3886,3958 L3881,3948 L3878,3937 L3877,3927 L3874,3914 L3872,3904 L3868,3892 L3865,3883 L3849,3875 L3842,3872 L3839,3861 L3842,3854 L3842,3840 L3842,3832 L3829,3827 L3813,3819 L3799,3811 L3792,3806 L3786,3797 L3780,3783 L3763,3775 L3754,3767 L3747,3761 L3740,3750 L3733,3744 L3730,3741 L3729,3737 L3728,3733 L3728,3729 L3730,3723 L3732,3717 L3737,3709 L3738,3706 L3739,3703 L3726,3696 L3715,3690 L3701,3687 L3697,3685 L3685,3684 L3672,3680 L3667,3678 L3662,3667 L3659,3664 L3655,3662 L3649,3661 L3636,3660 L3623,3656 L3613,3652 L3609,3648 L3603,3641 L3601,3635 L3602,3627 L3602,3616 L3600,3612 L3597,3609 L3585,3604 L3577,3599 L3574,3594 L3568,3584 L3562,3577 L3559,3575 L3555,3574 L3547,3573 L3540,3572 L3540,3568 L3543,3560 L3551,3548 L3555,3543 L3556,3540 L3554,3537 L3552,3533 L3545,3525 L3542,3522 L3534,3518 L3529,3514 L3528,3511 L3534,3505 L3544,3495 L3545,3492 L3545,3487 L3544,3483 L3543,3477 L3544,3475 L3552,3472 L3555,3462 L3551,3451 L3549,3446 L3544,3441 L3541,3439 L3538,3437 L3538,3432 L3538,3428 L3537,3423 L3537,3420 L3538,3416 L3543,3413 L3543,3409 L3542,3405 L3543,3403 L3544,3400 L3544,3396 L3542,3393 L3539,3392 L3536,3391 L3533,3389 L3531,3387 L3532,3384 L3531,3380 L3526,3378 L3523,3377 L3522,3376 L3520,3372 L3518,3369 L3517,3364 L3515,3360 L3513,3357 L3512,3354 L3513,3352 L3516,3350 L3519,3349 L3522,3349 L3525,3347 L3525,3343 L3524,3340 L3522,3336 L3527,3333 L3533,3329 L3540,3322 L3558,3317 L3570,3313 L3579,3311 L3584,3310 L3587,3310 L3591,3312z M4096,4202 L4099,4202 L4102,4208 L4107,4210 L4113,4211 L4127,4212 L4136,4214 L4148,4215 L4157,4216 L4169,4221 L4174,4222 L4178,4219 L4180,4217 L4183,4216 L4187,4216 L4195,4216 L4199,4217 L4242,4234 L4249,4236 L4254,4237 L4259,4241 L4263,4243 L4268,4246 L4277,4251 L4281,4253 L4283,4258 L4293,4269 L4301,4274 L4311,4280 L4314,4284 L4315,4288 L4315,4294 L4314,4299 L4310,4303 L4303,4306 L4300,4308 L4299,4311 L4296,4319 L4290,4329 L4289,4335 L4290,4345 L4290,4354 L4285,4362 L4277,4387 L4270,4409 L4270,4412 L4270,4415 L4272,4418 L4275,4423 L4283,4431 L4283,4434 L4282,4439 L4281,4442 L4281,4447 L4282,4452 L4282,4455 L4284,4457 L4291,4461 L4303,4466 L4308,4468 L4312,4470 L4314,4473 L4316,4479 L4314,4485 L4313,4490 L4312,4494 L4318,4497 L4320,4498 L4322,4502 L4323,4508 L4324,4513 L4324,4517 L4324,4523 L4324,4531 L4323,4536 L4321,4540 L4318,4545 L4308,4557 L4298,4567 L4289,4577 L4284,4579 L4282,4581 L4261,4582 L4249,4584 L4240,4586 L4232,4588 L4229,4589 L4226,4593 L4222,4597 L4217,4599 L4212,4600 L4212,4603 L4211,4606 L4212,4622 L4212,4627 L4211,4629 L4210,4632 L4206,4637 L4202,4641 L4198,4641 L4189,4642 L4184,4643 L4178,4645 L4161,4656 L4157,4660 L4153,4664 L4145,4667 L4143,4668 L4138,4673 L4134,4682 L4134,4686 L4132,4689 L4128,4693 L4123,4696 L4120,4699 L4120,4703 L4119,4706 L4120,4710 L4120,4714 L4120,4718 L4119,4721 L4117,4724 L4110,4735 L4109,4740 L4106,4743 L4099,4748 L4099,4752 L4101,4757 L4098,4758 L4093,4756 L4080,4750 L4075,4749 L4069,4746 L4061,4743 L4055,4743 L4049,4742 L4044,4740 L4035,4737 L4032,4735 L4029,4735 L4026,4735 L4009,4739 L3997,4741 L3986,4742 L3955,4743 L3930,4742 L3921,4743 L3918,4743 L3915,4744 L3906,4754 L3900,4758 L3896,4758 L3892,4758 L3888,4757 L3885,4752 L3880,4747 L3876,4746 L3868,4746 L3863,4746 L3861,4743 L3859,4738 L3858,4734 L3854,4725 L3851,4713 L3848,4700 L3841,4682 L3833,4661 L3826,4647 L3810,4610 L3803,4588 L3801,4578 L3801,4574 L3801,4570 L3800,4564 L3798,4561 L3792,4561 L3787,4561 L3780,4564 L3776,4565 L3772,4565 L3766,4563 L3756,4561 L3748,4561 L3742,4562 L3736,4564 L3728,4565 L3719,4566 L3714,4567 L3710,4569 L3700,4569 L3694,4568 L3690,4568 L3677,4575 L3661,4585 L3641,4597 L3582,4632 L3566,4642 L3558,4647 L3554,4646 L3550,4646 L3548,4647 L3549,4651 L3559,4663 L3593,4697 L3602,4712 L3605,4716 L3607,4723 L3608,4733 L3609,4737 L3609,4743 L3611,4747 L3614,4754 L3621,4769 L3625,4782 L3627,4788 L3628,4794 L3631,4803 L3633,4812 L3634,4819 L3632,4823 L3630,4828 L3636,4833 L3639,4836 L3643,4845 L3647,4852 L3651,4854 L3653,4859 L3652,4864 L3650,4868 L3649,4872 L3649,4876 L3649,4880 L3651,4886 L3654,4889 L3657,4891 L3659,4894 L3660,4899 L3660,4902 L3659,4907 L3656,4909 L3654,4911 L3651,4913 L3647,4916 L3643,4919 L3640,4920 L3636,4922 L3632,4924 L3629,4925 L3627,4925 L3620,4927 L3616,4929 L3611,4931 L3607,4935 L3603,4941 L3597,4946 L3592,4948 L3585,4952 L3582,4956 L3578,4959 L3574,4962 L3569,4965 L3565,4969 L3562,4974 L3560,4978 L3557,4981 L3554,4982 L3550,4982 L3546,4981 L3543,4979 L3538,4977 L3534,4976 L3531,4976 L3526,4977 L3524,4979 L3520,4980 L3515,4981 L3510,4982 L3502,4982 L3499,4982 L3494,4982 L3491,4982 L3487,4981 L3484,4981 L3475,4979 L3467,4978 L3458,4978 L3455,4978 L3452,4978 L3448,4978 L3445,4978 L3442,4978 L3437,4978 L3427,4978 L3418,4979 L3413,4979 L3409,4980 L3406,4981 L3402,4981 L3398,4982 L3395,4982 L3392,4984 L3390,4984 L3385,4982 L3380,4981 L3377,4981 L3372,4980 L3366,4978 L3362,4978 L3359,4978 L3354,4975 L3335,4965 L3317,4958 L3306,4953 L3294,4946 L3290,4939 L3292,4930 L3297,4902 L3306,4884 L3317,4855 L3327,4837 L3334,4827 L3341,4818 L3341,4808 L3340,4803 L3334,4781 L3333,4770 L3330,4757 L3324,4734 L3314,4719 L3311,4709 L3307,4692 L3304,4678 L3305,4668 L3305,4661 L3306,4650 L3306,4645 L3307,4621 L3302,4607 L3305,4603 L3306,4600 L3302,4593 L3292,4580 L3285,4568 L3271,4550 L3248,4522 L3239,4513 L3237,4510 L3238,4506 L3243,4497 L3241,4495 L3240,4492 L3236,4490 L3233,4489 L3230,4489 L3227,4488 L3223,4486 L3222,4484 L3224,4482 L3228,4480 L3227,4476 L3219,4474 L3215,4475 L3212,4476 L3209,4474 L3207,4473 L3205,4471 L3204,4469 L3203,4465 L3205,4460 L3210,4451 L3215,4449 L3219,4450 L3223,4451 L3227,4452 L3232,4453 L3237,4453 L3240,4453 L3250,4454 L3270,4457 L3284,4454 L3316,4445 L3337,4441 L3349,4439 L3385,4431 L3404,4427 L3429,4421 L3451,4418 L3470,4419 L3494,4413 L3560,4403 L3565,4402 L3569,4402 L3625,4393 L3629,4393 L3636,4392 L3638,4391 L3641,4390 L3651,4387 L3654,4387 L3657,4386 L3662,4386 L3665,4387 L3667,4388 L3673,4390 L3688,4395 L3692,4396 L3743,4413 L3828,4434 L3847,4438 L3858,4436 L3906,4397 L3941,4368 L3984,4343 L3986,4342 L3989,4341 L3992,4339 L4000,4335 L4006,4332 L4009,4330 L4012,4328 L4019,4324 L4037,4308 L4046,4300 L4053,4294 L4057,4289 L4059,4286 L4065,4272 L4071,4254 L4075,4251 L4075,4246 L4079,4237 L4092,4209 L4094,4205 L4096,4202z " class="polyStyle" id="632323" style="fill:#f6f67b"/>
<path d="" class="polyStyle" id="140525" style="fill:#d4ecb2"/>
<polygon points="7211,2003 7226,2043 7261,2074 7273,2092 7272,2106 7254,2118 7195,2126 7179,2137 7174,2149 7183,2167 7232,2184 7291,2188 7322,2191 7364,2191 7402,2193 7417,2203 7412,2212 7392,2221 7327,2265 7324,2282 7334,2306 7359,2336 7368,2363 7371,2369 7378,2377 7419,2380 7464,2366 7503,2336 7527,2312 7552,2297 7583,2290 7619,2299 7649,2314 7661,2325 7672,2355 7678,2383 7675,2413 7678,2426 7695,2440 7706,2453 7705,2474 7679,2505 7659,2525 7657,2535 7661,2547 7676,2567 7704,2588 7738,2595 7752,2598 7766,2608 7778,2621 7776,2635 7784,2649 7806,2663 7833,2680 7865,2687 7881,2694 7897,2706 7907,2723 7925,2732 7963,2734 7979,2741 7992,2742 8026,2734 8041,2727 8038,2711 8027,2697 8032,2690 8095,2686 8120,2690 8139,2698 8146,2706 8161,2720 8164,2732 8162,2752 8157,2764 8159,2772 8176,2784 8188,2785 8203,2795 8230,2788 8256,2787 8282,2783 8311,2785 8314,2817 8336,2891 8342,2897 8392,2937 8457,2999 8503,3035 8563,3065 8591,3073 8600,3086 8602,3100 8594,3119 8596,3147 8602,3151 8632,3142 8653,3130 8673,3128 8685,3130 8697,3146 8697,3158 8689,3177 8682,3206 8671,3239 8667,3273 8666,3300 8674,3327 8682,3355 8680,3383 8675,3391 8607,3434 8590,3445 8587,3448 8582,3459 8578,3470 8586,3494 8624,3523 8637,3529 8662,3535 8673,3546 8685,3553 8713,3569 8743,3582 8749,3585 8780,3601 8795,3603 8815,3604 8814,3609 8810,3647 8806,3661 8802,3661 8710,3711 8678,3725 8648,3735 8634,3737 8618,3737 8602,3735 8604,3801 8578,3799 8562,3793 8520,3765 8492,3751 8464,3743 8398,3733 8314,3709 8238,3693 8168,3677 8128,3671 8106,3681 8098,3685 8038,3719 8032,3723 8028,3733 8026,3739 8032,3775 8031,3794 7990,3861 7984,3869 7980,3879 7974,3901 7972,3915 7994,4001 8000,4017 8004,4019 8018,4023 8050,4029 8072,4033 8086,4037 8094,4039 8098,4043 8100,4057 8100,4067 8096,4089 8100,4097 8106,4103 8130,4119 8146,4137 8148,4165 8130,4237 8122,4265 8115,4276 8110,4277 8050,4257 8040,4257 8028,4259 7996,4271 7978,4283 7970,4293 7960,4309 7958,4315 7960,4323 7964,4325 8026,4375 8202,4451 8212,4449 8218,4447 8238,4429 8244,4425 8264,4429 8280,4437 8312,4453 8374,4499 8398,4515 8412,4537 8406,4595 8396,4629 8396,4659 8414,4687 8464,4739 8518,4821 8540,4849 8558,4873 8578,4903 8596,4925 8594,4941 8574,4967 8490,5017 8482,5021 8466,5027 8448,5031 8390,5023 8326,5015 8316,5015 8294,5025 8276,5041 8270,5055 8268,5081 8262,5129 8252,5153 8210,5171 8172,5179 8144,5185 8130,5189 8116,5207 8096,5297 8072,5357 8044,5465 8038,5493 7996,5527 7952,5549 7880,5573 7852,5579 7802,5583 7746,5569 7734,5565 7692,5553 7664,5553 7644,5563 7636,5587 7630,5605 7632,5661 7626,5667 7618,5671 7532,5679 7520,5679 7492,5675 7458,5679 7440,5679 7432,5683 7410,5693 7388,5729 7356,5787 7354,5791 7314,5793 7276,5783 7230,5767 7224,5768 7220,5763 7195,5755 7168,5747 7137,5730 7108,5701 7094,5680 7096,5672 7107,5659 7108,5647 7097,5628 7100,5618 7112,5590 7100,5564 7068,5535 7055,5508 7042,5511 7010,5514 6978,5499 6951,5487 6937,5477 6922,5477 6888,5469 6863,5451 6842,5453 6835,5443 6827,5412 6830,5384 6845,5349 6832,5324 6823,5308 6808,5296 6797,5280 6797,5267 6794,5235 6795,5209 6788,5177 6776,5146 6765,5140 6739,5132 6705,5111 6674,5099 6682,5052 6681,5038 6675,5028 6662,5022 6646,5019 6643,5015 6670,4991 6698,4980 6724,4977 6737,4965 6795,4944 6816,4933 6824,4925 6820,4895 6820,4877 6808,4846 6791,4826 6774,4816 6764,4803 6759,4770 6749,4759 6703,4730 6689,4720 6688,4699 6673,4678 6655,4649 6651,4619 6643,4596 6627,4587 6615,4584 6591,4566 6573,4567 6561,4563 6539,4535 6526,4506 6505,4471 6487,4444 6524,4383 6526,4361 6520,4352 6523,4340 6504,4304 6478,4286 6458,4267 6446,4262 6406,4264 6384,4259 6375,4246 6349,4223 6297,4189 6281,4171 6262,4162 6245,4149 6232,4147 6222,4148 6223,4154 6220,4157 6217,4168 6222,4178 6215,4181 6199,4192 6196,4207 6197,4255 6186,4272 6175,4281 6158,4297 6149,4307 6139,4309 6129,4295 6127,4279 6117,4265 6110,4263 6100,4279 6080,4284 6058,4295 6028,4311 5987,4323 5968,4349 5955,4377 5940,4405 5930,4432 5923,4466 5915,4507 5911,4532 5911,4569 5908,4583 5890,4604 5875,4613 5862,4609 5846,4606 5831,4613 5817,4627 5801,4636 5769,4629 5755,4616 5742,4607 5681,4603 5658,4612 5628,4612 5582,4582 5539,4574 5528,4578 5519,4589 5504,4601 5510,4616 5476,4636 5463,4653 5445,4667 5442,4674 5414,4679 5358,4686 5345,4698 5343,4711 5326,4733 5320,4722 5299,4700 5291,4669 5277,4638 5249,4599 5226,4574 5202,4540 5175,4506 5139,4477 5128,4448 5142,4423 5155,4394 5170,4388 5181,4391 5209,4398 5239,4410 5281,4422 5315,4412 5347,4393 5365,4384 5371,4367 5364,4357 5364,4343 5377,4337 5405,4331 5424,4328 5433,4331 5447,4339 5460,4340 5493,4338 5513,4332 5526,4321 5533,4312 5554,4298 5572,4279 5570,4265 5566,4254 5553,4247 5549,4238 5543,4225 5551,4210 5556,4189 5548,4172 5543,4158 5545,4143 5544,4128 5533,4110 5524,4080 5520,4061 5527,4052 5558,4042 5596,4034 5622,4031 5650,4021 5683,3996 5697,3988 5715,3986 5730,3986 5749,3999 5772,4010 5782,4007 5809,3994 5809,3983 5801,3971 5799,3952 5805,3925 5812,3904 5826,3884 5833,3873 5830,3859 5828,3840 5833,3829 5852,3818 5851,3801 5838,3774 5835,3744 5837,3724 5845,3709 5857,3691 5858,3674 5856,3641 5845,3616 5818,3590 5815,3558 5791,3548 5787,3537 5779,3516 5762,3512 5735,3511 5728,3503 5716,3472 5705,3461 5686,3456 5670,3453 5658,3459 5626,3456 5611,3441 5596,3434 5566,3434 5533,3425 5504,3421 5462,3409 5434,3403 5403,3392 5315,3420 5290,3415 5275,3418 5259,3425 5248,3428 5232,3439 5219,3438 5192,3451 5187,3449 5171,3455 5169,3461 5169,3472 5147,3461 5136,3462 5108,3452 5098,3444 5085,3439 5071,3439 5058,3433 5052,3426 5039,3422 5029,3416 4989,3416 4980,3425 4969,3430 4950,3425 4900,3416 4885,3410 4859,3407 4834,3393 4808,3393 4794,3388 4788,3401 4760,3405 4742,3402 4715,3410 4700,3406 4685,3390 4663,3375 4660,3365 4662,3338 4676,3333 4685,3308 4698,3300 4716,3294 4738,3289 4758,3274 4775,3273 4798,3262 4821,3242 4834,3238 4881,3213 4901,3199 4908,3178 4894,3173 4877,3170 4857,3159 4852,3153 4878,3116 4893,3100 4899,3095 4909,3083 4914,3071 4918,3056 4927,3036 4929,3025 4930,3018 4933,3010 4936,3003 4942,2986 4952,2962 4952,2952 4941,2934 4962,2946 4988,2947 4997,2942 5008,2927 5017,2922 5021,2933 5045,2930 5042,2912 5037,2895 5029,2888 5020,2864 5019,2849 5012,2822 5021,2818 5040,2816 5061,2802 5071,2791 5075,2778 5082,2767 5102,2756 5115,2737 5126,2726 5123,2710 5124,2705 5137,2693 5145,2681 5151,2678 5173,2677 5177,2673 5174,2667 5177,2656 5184,2651 5192,2641 5198,2628 5203,2623 5213,2618 5229,2614 5243,2605 5276,2593 5285,2581 5290,2579 5295,2575 5321,2564 5324,2557 5340,2548 5359,2529 5364,2519 5372,2501 5378,2478 5384,2446 5388,2433 5402,2420 5414,2414 5416,2403 5413,2365 5427,2337 5435,2316 5437,2279 5428,2259 5445,2263 5490,2273 5492,2258 5501,2237 5506,2227 5505,2217 5523,2191 5541,2184 5551,2185 5560,2194 5576,2192 5580,2202 5593,2207 5603,2213 5622,2215 5645,2216 5664,2211 5675,2219 5697,2232 5705,2245 5711,2254 5738,2244 5751,2253 5788,2257 5798,2265 5829,2272 5820,2283 5817,2297 5818,2308 5812,2315 5813,2321 5807,2330 5803,2343 5787,2351 5786,2356 5791,2376 5781,2386 5785,2406 5764,2432 5767,2447 5774,2449 5816,2447 5821,2446 5830,2446 5837,2446 5848,2446 5868,2450 5875,2455 5903,2466 5917,2475 5950,2509 5957,2513 5984,2525 6004,2531 6011,2530 6025,2529 6031,2531 6045,2539 6055,2540 6067,2545 6081,2549 6095,2552 6102,2552 6116,2552 6125,2554 6131,2548 6123,2537 6123,2528 6127,2520 6125,2510 6123,2493 6128,2456 6121,2448 6123,2441 6118,2427 6118,2412 6125,2390 6146,2398 6193,2402 6216,2401 6247,2419 6250,2430 6255,2439 6264,2452 6277,2459 6297,2481 6314,2489 6339,2497 6353,2521 6370,2534 6389,2536 6389,2518 6392,2507 6399,2499 6407,2494 6412,2489 6426,2480 6445,2471 6459,2465 6473,2464 6493,2456 6506,2453 6565,2451 6578,2454 6585,2454 6590,2455 6597,2453 6604,2451 6611,2447 6618,2443 6625,2438 6632,2434 6639,2429 6646,2426 6652,2421 6659,2418 6666,2414 6673,2410 6680,2405 6687,2400 6694,2396 6701,2392 6707,2388 6724,2387 6731,2389 6739,2388 6746,2384 6747,2378 6749,2373 6754,2367 6761,2365 6768,2361 6774,2356 6775,2350 6778,2344 6785,2339 6791,2335 6798,2333 6805,2331 6812,2326 6819,2322 6826,2316 6833,2311 6838,2307 6845,2302 6852,2299 6859,2294 6866,2290 6873,2287 6881,2282 6878,2266 6878,2250 6878,2233 6872,2224 6862,2214 6864,2209 6886,2205 6896,2200 6920,2189 6941,2178 6963,2173 6968,2166 6964,2158 6917,2148 6905,2146 6896,2138 6895,2130 6902,2124 6935,2117 6974,2100 6977,2086 6972,2065 6976,2053 6989,2041 7007,2032 7056,2024 7078,2015 7099,2002 7114,1984 7134,1989 7157,1984 7178,1972 7201,1993 " class="polyStyle" id="632321" style="fill:#ee8b94"/>
<path d="" class="polyStyle" id="410922" style="fill:#ee8b94"/>
<polygon points="5348,47 5337,58 5328,69 5334,83 5345,91 5363,90 5381,78 5399,67 5422,56 5436,56 5446,60 5458,79 5484,104 5493,118 5513,124 5531,139 5527,174 5527,187 5536,205 5536,225 5553,248 5580,281 5594,291 5609,289 5621,282 5628,270 5632,254 5639,247 5663,248 5696,254 5727,257 5762,263 5780,263 5796,257 5802,241 5808,235 5824,228 5850,235 5862,255 5870,276 5894,282 5922,279 5954,291 5980,305 6012,300 6029,296 6043,308 6044,319 6032,329 6015,344 6014,356 6030,373 6045,381 6071,385 6090,381 6109,375 6127,375 6133,387 6133,403 6115,411 6086,420 6063,426 6048,435 6038,442 6032,458 6060,478 6084,477 6107,478 6124,484 6181,501 6229,515 6248,531 6270,545 6300,541 6324,531 6348,524 6360,536 6364,558 6358,576 6341,590 6313,596 6293,596 6284,603 6281,610 6291,635 6311,639 6334,640 6339,645 6333,656 6321,670 6322,679 6330,685 6365,692 6397,688 6421,680 6441,677 6461,690 6479,720 6477,747 6471,779 6485,794 6503,809 6514,837 6536,858 6565,854 6591,846 6624,849 6645,862 6663,892 6675,899 6694,915 6719,926 6731,940 6740,948 6742,977 6739,1005 6726,1016 6715,1038 6720,1060 6746,1074 6789,1080 6820,1076 6884,1095 6984,1111 6988,1124 6973,1140 6894,1163 6837,1170 6821,1178 6812,1186 6794,1198 6775,1210 6767,1219 6784,1255 6788,1264 6796,1274 6813,1277 6830,1312 6855,1300 6867,1305 6898,1291 6911,1293 6938,1302 6953,1301 6992,1278 7019,1243 7033,1247 7116,1313 7139,1372 7144,1415 7139,1454 7139,1485 7129,1505 7113,1514 7092,1520 7071,1521 7013,1515 6969,1524 6954,1538 6961,1554 6963,1573 6953,1588 6948,1597 6986,1645 6995,1660 7011,1671 7035,1668 7046,1671 7060,1677 7099,1699 7103,1707 7079,1709 7070,1711 7064,1710 7055,1713 7040,1715 7029,1719 7021,1721 6990,1734 6990,1749 6989,1759 6986,1764 6975,1770 6974,1777 6997,1806 7000,1816 7038,1860 7078,1898 7132,1928 7178,1972 7157,1984 7134,1989 7114,1984 7099,2002 7078,2015 7056,2024 7007,2032 6989,2041 6976,2053 6972,2065 6977,2086 6974,2100 6935,2117 6902,2124 6895,2130 6896,2138 6905,2146 6917,2148 6964,2158 6968,2166 6963,2173 6941,2178 6920,2189 6896,2200 6886,2205 6864,2209 6862,2214 6872,2224 6878,2233 6878,2250 6878,2266 6881,2282 6873,2287 6866,2290 6859,2294 6852,2299 6845,2302 6838,2307 6833,2311 6826,2316 6819,2322 6812,2326 6805,2331 6798,2333 6791,2335 6785,2339 6778,2344 6775,2350 6774,2356 6768,2361 6761,2365 6754,2367 6749,2373 6747,2378 6746,2384 6739,2388 6731,2389 6724,2387 6707,2388 6701,2392 6694,2396 6687,2400 6680,2405 6673,2410 6666,2414 6659,2418 6652,2421 6646,2426 6639,2429 6632,2434 6625,2438 6618,2443 6611,2447 6604,2451 6597,2453 6590,2455 6585,2454 6578,2454 6565,2451 6506,2453 6493,2456 6473,2464 6459,2465 6445,2471 6426,2480 6412,2489 6407,2494 6399,2499 6392,2507 6389,2518 6389,2536 6370,2534 6353,2521 6339,2497 6314,2489 6297,2481 6277,2459 6264,2452 6255,2439 6250,2430 6247,2419 6216,2401 6193,2402 6146,2398 6125,2390 6118,2412 6118,2427 6123,2441 6121,2448 6128,2456 6123,2493 6125,2510 6127,2520 6123,2528 6123,2537 6131,2548 6125,2554 6116,2552 6102,2552 6095,2552 6081,2549 6067,2545 6055,2540 6045,2539 6031,2531 6025,2529 6011,2530 6004,2531 5984,2525 5957,2513 5950,2509 5917,2475 5903,2466 5875,2455 5868,2450 5848,2446 5837,2446 5830,2446 5821,2446 5816,2447 5774,2449 5767,2447 5764,2432 5785,2406 5781,2386 5791,2376 5786,2356 5787,2351 5803,2343 5807,2330 5813,2321 5812,2315 5818,2308 5817,2297 5820,2283 5829,2272 5798,2265 5788,2257 5751,2253 5738,2244 5711,2254 5705,2245 5697,2232 5675,2219 5664,2211 5645,2216 5622,2215 5603,2213 5593,2207 5580,2202 5576,2192 5560,2194 5551,2185 5541,2184 5523,2191 5505,2217 5506,2227 5501,2237 5492,2258 5490,2273 5445,2263 5428,2259 5425,2259 5402,2249 5375,2238 5364,2207 5377,2181 5373,2161 5377,2148 5394,2134 5396,2119 5390,2109 5376,2106 5363,2097 5346,2100 5329,2106 5304,2088 5268,2070 5231,2067 5206,2070 5167,2075 5155,2083 5113,2055 5082,2056 4995,2055 4977,2054 4963,2048 4958,2033 4955,2028 4949,2015 4929,2006 4913,1993 4910,1983 4900,1978 4895,1965 4880,1962 4874,1956 4875,1947 4872,1930 4871,1921 4860,1919 4858,1914 4865,1908 4876,1907 4896,1908 4902,1898 4915,1890 4933,1886 4935,1882 4929,1869 4905,1840 4891,1801 4890,1767 4900,1755 4920,1737 4929,1714 4949,1686 4949,1673 4962,1666 4966,1661 4982,1619 4990,1609 4997,1597 5008,1593 5027,1580 5039,1566 5058,1547 5085,1514 5089,1500 5101,1490 5118,1462 5140,1441 5156,1414 5177,1390 5217,1402 5239,1402 5245,1388 5262,1374 5258,1358 5242,1348 5232,1331 5201,1328 5189,1318 5176,1314 5162,1305 5149,1305 5133,1297 5113,1298 5099,1278 5082,1266 5049,1264 5025,1244 5014,1240 5001,1225 4990,1225 4986,1218 4967,1207 4963,1200 4981,1179 4982,1160 4991,1147 4988,1116 4981,1107 4985,1092 4977,1081 4977,1067 4964,1048 4964,1038 4973,1026 4971,1017 4948,997 4949,973 4937,967 4937,958 4912,934 4902,918 4888,919 4884,909 4875,902 4856,899 4847,885 4847,862 4833,855 4790,844 4789,836 4802,830 4846,837 4866,829 4867,821 4855,805 4827,792 4820,783 4816,767 4827,712 4808,691 4796,678 4794,650 4809,601 4828,572 4847,557 4843,543 4827,528 4814,500 4803,477 4786,464 4780,446 4791,422 4808,406 4812,394 4804,376 4785,355 4755,310 4748,296 4750,277 4753,249 4755,218 4768,212 4786,181 4789,167 4785,147 4792,109 4803,71 4841,62 4873,55 4898,35 4922,31 4935,30 4957,28 4972,28 4984,33 4997,36 5004,34 5028,28 5045,26 5064,29 5079,28 5101,26 5129,16 5147,13 5158,13 5173,24 5178,22 5186,7 5203,3 5217,12 5213,35 5217,73 5229,97 5257,103 5286,97 5296,75 5291,49 5294,24 5306,9 5318,0 5337,0 5347,23 " class="polyStyle" id="632322" style="fill:#d4ecb2"/>
<path d="" class="polyStyle" id="621027" style="fill:#ee8b94"/>
<path d="" class="polyStyle" id="130427" style="fill:#f6f67b"/>
<path d="" class="polyStyle" id="130121" style="fill:#ee8b94"/>
<path d="" class="polyStyle" id="610823" style="fill:#fbe6ef"/>
<path d="" class="polyStyle" id="130225" style="fill:#fbe6ef"/>
<path d="" class="polyStyle" id="130322" style="fill:#d4ecb2"/>
<path d="" class="polyStyle" id="653130" style="fill:#f6f67b"/>
<path d="" class="polyStyle" id="130822" style="fill:#fbe6ef"/>
<path d="" class="polyStyle" id="211221" style="fill:#f6f67b"/>
<path d="" class="polyStyle" id="210921" style="fill:#f6f67b"/>
<path d="" class="polyStyle" id="150223" style="fill:#f8c67d"/>
<path d="" class="polyStyle" id="220422" style="fill:#d4ecb2"/>
<path d="" class="polyStyle" id="340721" style="fill:#f6f67b"/>
<path d="" class="polyStyle" id="510824" style="fill:#d4ecb2"/>
<path d="" class="polyStyle" id="610324" style="fill:#f6f67b"/>
<path d="" class="polyStyle" id="530722" style="fill:#ee8b94"/>
<path d="" class="polyStyle" id="340823" style="fill:#d4ecb2"/>
<path d="" class="polyStyle" id="620825" style="fill:#d4ecb2"/>
<path d="" class="polyStyle" id="421125" style="fill:#ee8b94"/>
<path d="" class="polyStyle" id="210281" style="fill:#ee8b94"/>
<path d="" class="polyStyle" id="440883" style="fill:#f6f67b"/>
<path d="" class="polyStyle" id="469006" style="fill:#d4ecb2"/>
<path d="" class="polyStyle" id="469002" style="fill:#ee8b94"/>
<path d="" class="polyStyle" id="469005" style="fill:#fbe6ef"/>
<path d="" class="polyStyle" id="440882" style="fill:#ee8b94"/>
<path d="" class="polyStyle" id="450681" style="fill:#ee8b94"/>
<path d="" class="polyStyle" id="441581" style="fill:#d4ecb2"/>
<path d="" class="polyStyle" id="421087" style="fill:#ee8b94"/>
<path d="" class="polyStyle" id="420984" style="fill:#fbe6ef"/>
<path d="" class="polyStyle" id="420582" style="fill:#ee8b94"/>
<path d="" class="polyStyle" id="370282" style="fill:#f6f67b"/>
<path d="" class="polyStyle" id="371083" style="fill:#f6f67b"/>
<path d="" class="polyStyle" id="371082" style="fill:#fbe6ef"/>
<path d="" class="polyStyle" id="652801" style="fill:#f8c67d"/>
<path d="" class="polyStyle" id="654301" style="fill:#ee8b94"/>
<path d="" class="polyStyle" id="370687" style="fill:#ee8b94"/>
<path d="" class="polyStyle" id="371482" style="fill:#d4ecb2"/>
<path d="" class="polyStyle" id="421081" style="fill:#fbe6ef"/>
<path d="" class="polyStyle" id="429006" style="fill:#f6f67b"/>
<path d="" class="polyStyle" id="440982" style="fill:#d4ecb2"/>
<path d="" class="polyStyle" id="421181" style="fill:#d4ecb2"/>
<path d="" class="polyStyle" id="321181" style="fill:#d4ecb2"/>
<path d="" class="polyStyle" id="659007" style="fill:#ee8b94"/>
<path d="" class="polyStyle" id="652701" style="fill:#fbe6ef"/>
<path d="" class="polyStyle" id="210781" style="fill:#fbe6ef"/>
<path d="" class="polyStyle" id="460204" style="fill:#f6f67b"/>
<path d="" class="polyStyle" id="210211" style="fill:#f6f67b"/>
<path d="" class="polyStyle" id="450512" style="fill:#ee8b94"/>
<path d="" class="polyStyle" id="450602" style="fill:#fbe6ef"/>
<path d="" class="polyStyle" id="440404" style="fill:#ee8b94"/>
<path d="" class="polyStyle" id="440403" style="fill:#f6f67b"/>
<path d="" class="polyStyle" id="441502" style="fill:#f6f67b"/>
<path d="" class="polyStyle" id="431002" style="fill:#d4ecb2"/>
<path d="" class="polyStyle" id="500107" style="fill:#fbe6ef"/>
<path d="" class="polyStyle" id="430611" style="fill:#d4ecb2"/>
<path d="" class="polyStyle" id="511304" style="fill:#fbe6ef"/>
<path d="" class="polyStyle" id="340711" style="fill:#ee8b94"/>
<path d="" class="polyStyle" id="320118" style="fill:#f6f67b"/>
<path d="" class="polyStyle" id="510704" style="fill:#f6f67b"/>
<path d="" class="polyStyle" id="411502" style="fill:#ee8b94"/>
<path d="" class="polyStyle" id="320302" style="fill:#d4ecb2"/>
<path d="" class="polyStyle" id="140311" style="fill:#ee8b94"/>
<path d="" class="polyStyle" id="610802" style="fill:#ee8b94"/>
<path d="" class="polyStyle" id="120116" style="fill:#f6f67b"/>
<path d="" class="polyStyle" id="130303" style="fill:#fbe6ef"/>
<path d="" class="polyStyle" id="140211" style="fill:#f6f67b"/>
<path d="" class="polyStyle" id="150207" style="fill:#fbe6ef"/>
<path d="" class="polyStyle" id="211403" style="fill:#f6f67b"/>
<path d="" class="polyStyle" id="150802" style="fill:#f8c67d"/>
<path d="" class="polyStyle" id="210112" style="fill:#ee8b94"/>
<path d="" class="polyStyle" id="230406" style="fill:#d4ecb2"/>
<path d="" class="polyStyle" id="110113" style="fill:#fbe6ef"/>
<path d="" class="polyStyle" id="341702" style="fill:#fbe6ef"/>
<path d="" class="polyStyle" id="420303" style="fill:#ee8b94"/>
<path d="" class="polyStyle" id="340702" style="fill:#d4ecb2"/>
<path d="" class="polyStyle" id="421002" style="fill:#f6f67b"/>
<path d="" class="polyStyle" id="420117" style="fill:#f6f67b"/>
<path d="" class="polyStyle" id="440904" style="fill:#f8c67d"/>
<path d="" class="polyStyle" id="460205" style="fill:#ee8b94"/>
<path d="" class="polyStyle" id="460202" style="fill:#f6f67b"/>
<path d="" class="polyStyle" id="460203" style="fill:#fbe6ef"/>
<path d="" class="polyStyle" id="420304" style="fill:#f6f67b"/>
<path d="" class="polyStyle" id="445302" style="fill:#ee8b94"/>
<path d="" class="polyStyle" id="410202" style="fill:#d4ecb2"/>
<path d="" class="polyStyle" id="440800" style="fill:#f6f67b"/>
<path d="" class="polyStyle" id="440900" style="fill:#ee8b94"/>
<path d="" class="polyStyle" id="340800" style="fill:#ee8b94"/>
<path d="" class="polyStyle" id="460200" style="fill:#f6f67b"/>
<path d="" class="polyStyle" id="460000" style="fill:#ee8b94"/>
<path d="" class="polyStyle" id="450500" style="fill:#ee8b94"/>
<path d="" class="polyStyle" id="450600" style="fill:#ee8b94"/>
<path d="" class="polyStyle" id="440400" style="fill:#f6f67b"/>
<path d="" class="polyStyle" id="441700" style="fill:#f6f67b"/>
<path d="" class="polyStyle" id="441500" style="fill:#f6f67b"/>
<path d="" class="polyStyle" id="350600" style="fill:#ee8b94"/>
<path d="" class="polyStyle" id="710000" style="fill:#f6f67b"/>
<path d="" class="polyStyle" id="510400" style="fill:#f6f67b"/>
<path d="" class="polyStyle" id="522600" style="fill:#fbe6ef"/>
<path d="" class="polyStyle" id="520500" style="fill:#ee8b94"/>
<path d="" class="polyStyle" id="431200" style="fill:#f6f67b"/>
<path d="" class="polyStyle" id="430600" style="fill:#f6f67b"/>
<path d="" class="polyStyle" id="511400" style="fill:#d4ecb2"/>
<path d="" class="polyStyle" id="421000" style="fill:#ee8b94"/>
<path d="" class="polyStyle" id="341700" style="fill:#f6f67b"/>
<path d="" class="polyStyle" id="420500" style="fill:#f6f67b"/>
<path d="" class="polyStyle" id="511300" style="fill:#f6f67b"/>
<path d="" class="polyStyle" id="420900" style="fill:#f6f67b"/>
<path d="" class="polyStyle" id="511700" style="fill:#ee8b94"/>
<path d="" class="polyStyle" id="420600" style="fill:#d4ecb2"/>
<path d="" class="polyStyle" id="411500" style="fill:#fbe6ef"/>
<path d="" class="polyStyle" id="510800" style="fill:#ee8b94"/>
<path d="" class="polyStyle" id="420300" style="fill:#fbe6ef"/>
<path d="" class="polyStyle" id="611000" style="fill:#ee8b94"/>
<path d="" class="polyStyle" id="620800" style="fill:#fbe6ef"/>
<path d="" class="polyStyle" id="370200" style="fill:#ee8b94"/>
<path d="" class="polyStyle" id="371000" style="fill:#f6f67b"/>
<path d="" class="polyStyle" id="370600" style="fill:#fbe6ef"/>
<path d="" class="polyStyle" id="120000" style="fill:#f6f67b"/>
<path d="" class="polyStyle" id="130200" style="fill:#ee8b94"/>
<path d="" class="polyStyle" id="130300" style="fill:#f6f67b"/>
<path d="" class="polyStyle" id="652900" style="fill:#fbe6ef"/>
<path d="" class="polyStyle" id="150500" style="fill:#d4ecb2"/>
<path d="" class="polyStyle" id="" style="fill:#d4ecb2"/>
<path d="" class="polyStyle" id="350500" style="fill:#fbe6ef"/>
<path d="" class="polyStyle" id="440400" style="fill:#f6f67b"/>
<path d="" class="polyStyle" id="421100" style="fill:#d4ecb2"/>
<path d="" class="polyStyle" id="420100" style="fill:#fbe6ef"/>
<path d="" class="polyStyle" id="532500" style="fill:#fbe6ef"/>
<path d="" class="polyStyle" id="654200" style="fill:#fbe6ef"/>
<path d="" class="polyStyle" id="210700" style="fill:#d4ecb2"/>
<path d="" class="polyStyle" id="522300" style="fill:#fbe6ef"/>
<path d="" class="polyStyle" id="" style="fill:#ee8b94"/>
<path d="" class="polyStyle" id="440400" style="fill:#f6f67b"/>
<path d="" class="polyStyle" id="620000" style="fill:#f6f67b"/>
<path d="" class="polyStyle" id="430000" style="fill:#fbe6ef"/>
<path d="" class="polyStyle" id="420000" style="fill:#ee8b94"/>
<path d="" class="polyStyle" id="410000" style="fill:#f6f67b"/>
<path d="" class="polyStyle" id="350000" style="fill:#fbe6ef"/>
<path d="" class="polyStyle" id="520000" style="fill:#f6f67b"/>
<path d="" class="polyStyle" id="" style="fill:#ee8b94"/>
</svg>
