<?xml version="1.0" encoding="UTF-8"?>
<!DOCTYPE svg PUBLIC "-//W3C//DTD SVG 1.1 Tiny//EN" "http://www.w3.org/Graphics/SVG/1.1/DTD/svg11-tiny.dtd">
<svg version="1.1" xmlns="http://www.w3.org/2000/svg" xmlns:xlink="http://www.w3.org/1999/xlink" width="100%" height="100%" viewBox="0,0,10542,8425">
<title>SVG</title>
<desc>Poligon Test</desc>
<style id="style_css_sheet" type="text/css">
.polyStyle{fill: #cccccc;stroke-width:0;fill-rule:evenodd;}
</style>
<circle cx="2554" cy="1213" r="200" stroke="black" stroke-width="1" fill="red" id="640381"position="4344" name="青铜峡市"/>
<circle cx="9249" cy="2391" r="200" stroke="black" stroke-width="1" fill="red" id="640323"position="444444" name="盐池县"/>
<circle cx="1781" cy="6416" r="200" stroke="black" stroke-width="1" fill="red" id="640324"position="2232" name="同心县"/>
<circle cx="3194" cy="1413" r="200" stroke="black" stroke-width="1" fill="red" id="640302" position="43"name="利通区"/>
<circle cx="2568" cy="4307" r="200" stroke="black" stroke-width="1" fill="red" id="640303" name="红寺堡区"/>
<path d="" class="polyStyle" id="" style="fill:#ee8b94"/>
<path d="" class="polyStyle" id="623022" style="fill:#fbe6ef"/>
<path d="" class="polyStyle" id="211421" style="fill:#f6f67b"/>
<path d="" class="polyStyle" id="532524" style="fill:#ee8b94"/>
<path d="" class="polyStyle" id="440825" style="fill:#f6f67b"/>
<path d="" class="polyStyle" id="441721" style="fill:#f6f67b"/>
<path d="" class="polyStyle" id="450521" style="fill:#f6f67b"/>
<path d="" class="polyStyle" id="450123" style="fill:#fbe6ef"/>
<path d="" class="polyStyle" id="350624" style="fill:#f6f67b"/>
<path d="" class="polyStyle" id="" style="fill:#fbe6ef"/>
<path d="" class="polyStyle" id="451224" style="fill:#fbe6ef"/>
<path d="" class="polyStyle" id="350627" style="fill:#f6f67b"/>
<path d="" class="polyStyle" id="" style="fill:#f6f67b"/>
<path d="" class="polyStyle" id="350525" style="fill:#f6f67b"/>
<path d="" class="polyStyle" id="530124" style="fill:#ee8b94"/>
<path d="" class="polyStyle" id="522627" style="fill:#ee8b94"/>
<path d="" class="polyStyle" id="510421" style="fill:#fbe6ef"/>
<path d="" class="polyStyle" id="522623" style="fill:#d4ecb2"/>
<path d="" class="polyStyle" id="430321" style="fill:#d4ecb2"/>
<path d="" class="polyStyle" id="511129" style="fill:#d4ecb2"/>
<path d="" class="polyStyle" id="511423" style="fill:#ee8b94"/>
<path d="" class="polyStyle" id="421023" style="fill:#f6f67b"/>
<path d="" class="polyStyle" id="511724" style="fill:#f6f67b"/>
<path d="" class="polyStyle" id="420526" style="fill:#fbe6ef"/>
<path d="" class="polyStyle" id="511923" style="fill:#fbe6ef"/>
<path d="" class="polyStyle" id="420325" style="fill:#fbe6ef"/>
<path d="" class="polyStyle" id="511921" style="fill:#f6f67b"/>
<path d="" class="polyStyle" id="542525" style="fill:#f6f67b"/>
<path d="" class="polyStyle" id="611026" style="fill:#ee8b94"/>
<path d="" class="polyStyle" id="411023" style="fill:#fbe6ef"/>
<path d="" class="polyStyle" id="632323" style="fill:#f6f67b"/>
<path d="" class="polyStyle" id="140525" style="fill:#d4ecb2"/>
<path d="" class="polyStyle" id="410922" style="fill:#ee8b94"/>
<path d="" class="polyStyle" id="621027" style="fill:#ee8b94"/>
<path d="" class="polyStyle" id="130427" style="fill:#f6f67b"/>
<polygon points="4549,4318 4552,4323 4559,4326 4565,4329 4574,4346 4574,4357 4581,4361 4595,4365 4598,4370 4591,4376 4592,4380 4606,4379 4614,4380 4621,4386 4624,4392 4627,4403 4625,4414 4625,4425 4630,4430 4637,4430 4641,4434 4638,4440 4633,4444 4630,4450 4634,4456 4641,4459 4646,4465 4648,4476 4658,4493 4656,4498 4650,4504 4643,4515 4643,4521 4642,4532 4644,4543 4646,4555 4651,4560 4664,4571 4681,4588 4689,4599 4703,4604 4709,4608 4713,4614 4714,4619 4707,4627 4694,4639 4701,4652 4701,4659 4698,4666 4711,4671 4779,4687 4795,4691 4802,4695 4800,4704 4801,4708 4805,4711 4813,4711 4839,4711 4896,4718 4957,4728 5021,4728 5053,4730 5094,4729 5115,4724 5120,4721 5121,4717 5110,4683 5112,4677 5118,4675 5144,4675 5154,4668 5164,4656 5179,4655 5202,4656 5214,4652 5220,4646 5228,4644 5271,4643 5358,4645 5358,4650 5358,4663 5355,4682 5354,4698 5354,4708 5370,4724 5402,4749 5439,4780 5451,4796 5456,4810 5472,4834 5480,4837 5502,4838 5527,4843 5571,4849 5685,4869 5694,4865 5705,4872 5712,4881 5717,4890 5716,4903 5725,4914 5730,4924 5704,4937 5698,4942 5702,4954 5694,4964 5697,4976 5695,4985 5689,4988 5689,4994 5697,5000 5699,5008 5689,5010 5683,5015 5682,5020 5689,5026 5698,5030 5700,5034 5693,5035 5683,5031 5682,5036 5688,5043 5689,5058 5694,5066 5699,5068 5698,5071 5689,5076 5687,5080 5701,5082 5699,5092 5693,5096 5684,5097 5656,5096 5642,5088 5629,5098 5624,5109 5604,5121 5595,5129 5577,5128 5568,5137 5541,5210 5535,5222 5509,5223 5496,5229 5488,5246 5479,5252 5475,5261 5477,5279 5471,5290 5462,5301 5456,5324 5460,5333 5458,5342 5461,5361 5435,5380 5404,5393 5380,5419 5338,5438 5315,5443 5292,5464 5283,5477 5285,5485 5303,5498 5309,5511 5310,5530 5310,5545 5321,5560 5315,5574 5310,5588 5299,5606 5295,5620 5307,5641 5298,5639 5278,5643 5264,5657 5244,5667 5240,5673 5246,5689 5268,5725 5276,5743 5282,5753 5290,5769 5302,5789 5326,5839 5344,5871 5346,5883 5354,5893 5370,5895 5392,5899 5410,5907 5414,5923 5426,5941 5434,5965 5446,5997 5464,6101 5468,6131 5474,6145 5512,6177 5542,6215 5546,6227 5520,6259 5504,6275 5498,6273 5480,6261 5462,6249 5452,6249 5442,6247 5430,6249 5420,6255 5424,6271 5436,6303 5436,6331 5424,6369 5416,6449 5430,6487 5422,6497 5398,6499 5366,6509 5332,6513 5300,6509 5272,6499 5246,6489 5218,6473 5204,6467 5196,6467 5184,6477 5174,6489 5166,6507 5178,6547 5184,6571 5196,6607 5188,6615 5166,6623 5136,6635 5118,6639 5080,6619 5070,6613 5066,6605 5062,6599 5058,6595 5056,6591 5056,6579 5068,6579 5104,6587 5120,6581 5120,6575 5076,6529 5071,6514 5066,6507 5054,6501 5042,6497 5026,6491 5010,6483 4996,6469 4974,6447 4966,6433 4954,6415 4948,6403 4938,6391 4926,6387 4916,6393 4910,6411 4910,6441 4926,6465 4932,6473 4958,6505 4982,6533 4990,6545 4992,6557 4982,6567 4974,6573 4968,6579 4962,6599 4970,6617 4984,6627 5008,6641 5040,6657 5062,6669 5106,6685 5158,6701 5192,6711 5216,6719 5226,6723 5230,6727 5242,6737 5250,6749 5262,6769 5262,6787 5242,6807 5236,6817 5224,6837 5220,6847 5220,6855 5222,6861 5228,6873 5240,6893 5248,6901 5256,6915 5264,6921 5270,6921 5276,6919 5286,6915 5294,6901 5300,6891 5310,6869 5320,6861 5334,6855 5346,6851 5350,6851 5362,6857 5390,6869 5414,6897 5422,6913 5418,6961 5412,6971 5384,6975 5360,6983 5348,6991 5342,6999 5340,7005 5344,7011 5360,7021 5414,7043 5426,7057 5428,7073 5428,7101 5422,7123 5416,7137 5406,7147 5402,7155 5404,7161 5412,7163 5460,7183 5498,7205 5504,7213 5510,7223 5510,7241 5506,7251 5506,7257 5498,7271 5476,7269 5448,7269 5440,7285 5424,7297 5434,7321 5440,7339 5430,7361 5418,7371 5408,7377 5404,7389 5400,7399 5400,7417 5402,7431 5412,7449 5416,7459 5418,7473 5408,7503 5394,7535 5390,7543 5380,7545 5364,7545 5358,7547 5354,7550 5356,7559 5360,7569 5368,7591 5376,7619 5384,7631 5394,7641 5410,7653 5420,7661 5430,7669 5438,7675 5442,7681 5442,7687 5440,7695 5434,7699 5420,7701 5392,7699 5372,7695 5360,7685 5304,7629 5290,7631 5270,7661 5258,7653 5222,7601 5208,7577 5194,7565 5180,7561 5170,7559 5164,7559 5136,7571 5108,7575 5092,7577 5088,7581 5086,7589 5080,7633 5080,7641 5078,7645 5070,7649 5060,7651 5048,7649 5036,7645 5022,7635 5004,7627 4994,7623 4988,7623 4980,7623 4974,7629 4972,7635 4960,7659 4940,7671 4910,7677 4894,7673 4890,7669 4876,7667 4862,7669 4848,7679 4808,7713 4798,7725 4796,7739 4800,7755 4814,7773 4854,7839 4858,7859 4855,7873 4837,7875 4821,7873 4803,7869 4793,7863 4779,7857 4769,7855 4757,7855 4737,7859 4731,7861 4715,7867 4697,7873 4675,7883 4671,7885 4667,7893 4667,7911 4671,7937 4681,7947 4697,7979 4699,7997 4679,8029 4685,8047 4705,8089 4703,8105 4681,8161 4669,8173 4647,8175 4631,8179 4607,8189 4591,8197 4563,8211 4559,8213 4551,8213 4531,8209 4503,8199 4475,8189 4459,8185 4445,8191 4443,8195 4428,8182 4407,8169 4392,8158 4385,8141 4370,8135 4362,8145 4364,8156 4359,8167 4344,8175 4317,8186 4297,8192 4274,8188 4257,8195 4242,8208 4222,8210 4186,8203 4149,8197 4120,8197 4111,8208 4117,8222 4126,8231 4130,8242 4113,8257 4104,8270 4092,8280 4066,8272 4040,8268 4012,8282 3989,8304 3965,8312 3929,8321 3895,8334 3862,8349 3830,8357 3789,8355 3764,8338 3738,8319 3712,8295 3687,8273 3665,8278 3650,8297 3639,8304 3614,8295 3599,8285 3599,8274 3599,8250 3594,8227 3575,8208 3558,8190 3549,8188 3550,8199 3554,8212 3550,8222 3530,8220 3517,8216 3507,8218 3502,8231 3494,8244 3481,8246 3462,8252 3457,8267 3457,8278 3444,8282 3427,8274 3402,8263 3384,8259 3369,8268 3361,8278 3339,8280 3316,8272 3303,8265 3292,8270 3277,8285 3273,8310 3269,8353 3273,8379 3271,8390 3256,8388 3237,8377 3213,8368 3187,8368 3164,8381 3144,8388 3132,8383 3132,8370 3115,8370 3097,8375 3099,8388 3100,8398 3091,8407 3072,8415 3056,8425 3053,8422 3039,8415 3025,8404 3016,8392 3009,8390 3002,8390 2995,8392 2975,8394 2961,8386 2957,8375 2958,8363 2959,8352 2963,8341 2968,8326 2968,8315 2962,8304 2958,8298 2945,8287 2938,8275 2940,8270 2954,8260 2975,8253 2987,8244 2996,8227 2999,8216 2997,8210 2983,8200 2948,8180 2934,8173 2920,8168 2906,8162 2901,8156 2898,8151 2897,8130 2895,8119 2888,8108 2883,8102 2876,8097 2869,8095 2855,8095 2841,8101 2820,8111 2813,8111 2807,8109 2803,8103 2800,8092 2799,8080 2794,8069 2792,8064 2792,8058 2794,8052 2801,8049 2804,8049 2815,8048 2822,8047 2828,8041 2828,8030 2824,8019 2818,8007 2811,8003 2804,8000 2797,7996 2781,7973 2776,7962 2774,7936 2774,7928 2771,7906 2767,7883 2761,7872 2757,7867 2748,7844 2740,7833 2719,7816 2705,7807 2684,7797 2670,7791 2665,7785 2651,7763 2634,7740 2630,7734 2625,7729 2611,7721 2599,7710 2595,7699 2595,7682 2596,7676 2596,7669 2593,7657 2583,7642 2562,7629 2557,7623 2554,7612 2554,7601 2553,7595 2555,7578 2562,7567 2567,7561 2581,7552 2595,7549 2607,7542 2607,7537 2585,7508 2578,7504 2571,7503 2550,7499 2522,7488 2515,7483 2515,7477 2529,7468 2532,7462 2527,7451 2525,7445 2518,7440 2511,7439 2505,7436 2498,7435 2491,7432 2481,7421 2477,7415 2471,7410 2450,7404 2443,7392 2439,7381 2432,7380 2425,7385 2419,7390 2411,7389 2408,7385 2404,7368 2398,7364 2384,7361 2377,7360 2372,7354 2373,7343 2377,7332 2375,7326 2361,7323 2354,7318 2354,7307 2358,7302 2365,7300 2379,7301 2393,7305 2400,7305 2407,7302 2405,7291 2401,7280 2397,7274 2383,7266 2369,7261 2355,7259 2349,7253 2352,7247 2373,7237 2387,7228 2390,7222 2390,7217 2384,7213 2370,7218 2356,7225 2349,7225 2344,7219 2347,7213 2361,7203 2375,7197 2382,7194 2386,7190 2379,7186 2365,7185 2358,7184 2344,7190 2330,7191 2317,7181 2313,7175 2312,7170 2307,7164 2300,7159 2295,7157 2283,7158 2274,7161 2265,7157 2250,7144 2237,7132 2223,7122 2209,7114 2195,7113 2174,7117 2167,7117 2163,7111 2168,7100 2167,7089 2161,7085 2147,7091 2135,7102 2125,7113 2104,7120 2097,7121 2090,7120 2087,7114 2094,7103 2100,7098 2101,7086 2100,7081 2101,7075 2111,7064 2118,7062 2125,7066 2132,7066 2136,7061 2132,7056 2125,7053 2121,7048 2122,7042 2129,7039 2143,7039 2150,7037 2154,7031 2156,7025 2161,7020 2175,7012 2178,7007 2177,7002 2163,6991 2156,6988 2150,6992 2147,6997 2146,7009 2139,7009 2135,7003 2132,6986 2135,6975 2133,6969 2125,6962 2121,6958 2119,6950 2122,6944 2136,6935 2142,6930 2140,6924 2133,6922 2119,6923 2101,6924 2081,6925 2072,6920 2072,6917 2069,6912 2069,6906 2073,6901 2067,6896 2053,6902 2046,6903 2043,6897 2043,6892 2048,6886 2055,6883 2062,6883 2056,6874 2055,6871 2053,6866 2056,6854 2066,6843 2071,6838 2070,6832 2063,6827 2053,6816 2045,6799 2038,6796 2031,6795 2024,6797 2010,6806 2003,6807 1996,6804 1983,6787 1983,6781 1990,6778 2018,6778 2025,6773 2022,6762 2015,6756 2001,6754 1987,6746 1980,6735 1988,6724 1987,6718 1973,6721 1966,6721 1959,6717 1953,6720 1955,6732 1953,6737 1948,6740 1941,6740 1937,6734 1937,6728 1944,6717 1945,6712 1944,6706 1929,6699 1908,6691 1903,6687 1899,6681 1900,6670 1904,6659 1904,6653 1900,6648 1893,6647 1886,6644 1872,6638 1866,6633 1862,6627 1855,6635 1832,6649 1832,6662 1835,6670 1832,6679 1811,6689 1775,6711 1768,6719 1758,6723 1738,6725 1727,6734 1712,6732 1706,6725 1700,6718 1686,6711 1674,6712 1663,6718 1654,6726 1683,6770 1753,6839 1756,6849 1754,6863 1729,6888 1702,6901 1703,6909 1711,6922 1685,6957 1646,6998 1626,7014 1592,7031 1584,7038 1584,7053 1588,7069 1585,7077 1574,7085 1554,7090 1528,7095 1517,7101 1516,7123 1497,7135 1426,7157 1411,7167 1402,7203 1402,7244 1393,7282 1369,7299 1354,7300 1345,7296 1333,7265 1333,7230 1326,7203 1308,7189 1294,7180 1256,7172 1226,7177 1187,7191 1171,7204 1160,7211 1143,7211 1126,7208 1110,7211 1086,7216 1080,7215 1064,7216 1053,7214 1047,7212 1040,7203 1026,7187 1016,7185 999,7197 959,7231 946,7239 940,7239 919,7215 913,7208 921,7204 925,7195 927,7185 907,7148 899,7113 896,7084 893,7049 895,7024 903,7005 912,7001 932,6999 943,6995 953,6989 956,6970 947,6939 939,6914 946,6893 987,6850 1010,6821 1009,6813 986,6787 941,6759 921,6744 904,6726 908,6725 916,6729 918,6731 920,6733 924,6734 927,6736 931,6740 934,6742 936,6742 937,6740 940,6739 943,6739 946,6739 949,6740 952,6739 956,6739 966,6741 973,6743 981,6746 990,6752 994,6758 997,6762 1000,6763 1003,6765 1010,6766 1013,6766 1021,6766 1025,6767 1030,6770 1035,6771 1038,6772 1042,6772 1046,6772 1050,6773 1054,6772 1052,6767 1050,6761 1049,6756 1049,6752 1051,6744 1054,6740 1060,6735 1068,6730 1074,6723 1080,6718 1087,6715 1093,6714 1097,6713 1102,6711 1107,6708 1112,6708 1117,6708 1123,6708 1128,6705 1130,6700 1130,6695 1132,6689 1133,6681 1137,6674 1144,6668 1151,6663 1155,6664 1158,6664 1162,6663 1164,6662 1167,6659 1170,6656 1175,6652 1181,6649 1188,6645 1207,6635 1223,6626 1230,6623 1233,6621 1234,6618 1237,6613 1240,6612 1243,6611 1250,6609 1257,6607 1263,6606 1268,6602 1276,6595 1280,6589 1283,6584 1288,6583 1299,6582 1306,6581 1311,6579 1320,6575 1330,6568 1336,6560 1340,6558 1347,6552 1351,6547 1357,6539 1359,6535 1359,6526 1364,6523 1368,6520 1371,6517 1371,6514 1368,6500 1364,6493 1364,6487 1364,6484 1367,6481 1367,6476 1365,6472 1364,6468 1365,6463 1366,6460 1368,6457 1369,6454 1372,6452 1374,6449 1374,6446 1377,6444 1378,6441 1382,6441 1385,6441 1387,6438 1390,6436 1394,6435 1398,6434 1401,6433 1404,6430 1408,6429 1411,6428 1414,6425 1416,6423 1419,6423 1422,6423 1427,6422 1432,6421 1439,6417 1440,6414 1443,6413 1447,6412 1450,6412 1454,6412 1423,6379 1417,6369 1396,6335 1384,6313 1361,6280 1264,6125 1230,6074 1192,6018 1147,5941 1136,5922 1119,5897 1103,5888 1074,5887 1004,5887 954,5887 918,5865 884,5832 791,5748 766,5731 736,5721 695,5713 664,5699 629,5677 606,5643 589,5619 579,5593 565,5557 558,5535 556,5511 568,5496 574,5478 575,5455 574,5433 566,5419 550,5411 547,5398 547,5375 544,5363 536,5355 526,5354 501,5358 479,5359 449,5360 424,5361 409,5364 402,5366 383,5361 333,5339 312,5332 296,5325 268,5322 239,5322 210,5327 145,5324 121,5318 105,5311 92,5301 87,5293 82,5274 67,5259 57,5253 48,5247 32,5241 21,5239 12,5238 4,5237 0,5235 8,5231 19,5226 31,5225 40,5226 50,5228 66,5229 79,5229 96,5225 108,5219 111,5209 124,5205 140,5204 155,5204 166,5207 182,5207 199,5207 220,5203 240,5200 257,5187 277,5171 312,5141 333,5122 363,5107 395,5081 428,5051 437,5040 448,5028 459,5018 474,5010 484,5004 522,4983 532,4980 543,4975 551,4971 554,4966 563,4956 574,4940 582,4934 586,4930 594,4931 606,4941 615,4948 618,4956 618,4959 614,4961 596,4963 591,4969 592,4974 604,4983 606,4992 608,5000 607,5007 616,5011 626,5016 635,5025 646,5039 661,5079 664,5091 674,5106 683,5120 682,5142 682,5152 681,5159 677,5163 670,5168 660,5177 655,5186 654,5194 653,5203 647,5211 636,5221 633,5229 633,5233 647,5240 661,5248 666,5264 675,5274 704,5294 734,5319 748,5329 771,5357 773,5369 775,5378 786,5378 809,5377 834,5373 854,5373 881,5374 896,5374 916,5368 923,5366 935,5365 947,5368 953,5367 961,5363 969,5358 978,5357 987,5357 1010,5356 1024,5356 1037,5355 1048,5353 1058,5349 1070,5344 1081,5339 1088,5333 1105,5323 1110,5320 1114,5317 1116,5314 1113,5311 1120,5311 1138,5316 1155,5325 1156,5331 1147,5341 1138,5345 1132,5348 1126,5354 1124,5361 1135,5369 1141,5368 1158,5360 1167,5360 1175,5367 1177,5377 1174,5394 1181,5399 1196,5405 1202,5414 1204,5421 1203,5428 1211,5436 1220,5436 1233,5432 1244,5426 1251,5422 1258,5418 1269,5414 1285,5412 1305,5411 1322,5411 1337,5414 1353,5419 1372,5426 1389,5429 1414,5428 1430,5427 1448,5424 1459,5421 1479,5421 1495,5427 1514,5434 1527,5437 1540,5441 1554,5439 1562,5436 1574,5429 1585,5425 1595,5422 1611,5424 1627,5430 1645,5435 1667,5436 1691,5444 1704,5450 1725,5460 1745,5471 1757,5479 1771,5487 1784,5493 1829,5493 1846,5495 1857,5500 1873,5501 1894,5498 1905,5496 1916,5497 1931,5500 1946,5502 1958,5502 1967,5499 1986,5495 1993,5492 2000,5481 2009,5477 2024,5475 2039,5476 2054,5484 2070,5491 2093,5500 2106,5502 2120,5504 2129,5505 2137,5504 2144,5495 2148,5488 2154,5478 2160,5468 2177,5460 2193,5457 2203,5456 2213,5451 2221,5443 2231,5434 2250,5431 2289,5427 2342,5429 2413,5425 2438,5426 2489,5440 2525,5457 2538,5478 2541,5490 2537,5502 2537,5520 2533,5537 2534,5555 2542,5576 2548,5589 2560,5601 2572,5611 2586,5626 2603,5659 2609,5677 2632,5691 2649,5698 2680,5715 2697,5723 2725,5730 2812,5759 2911,5795 3018,5832 3044,5841 3062,5847 3075,5847 3093,5845 3110,5839 3155,5825 3165,5822 3182,5820 3202,5821 3217,5822 3268,5826 3287,5827 3351,5827 3358,5828 3365,5832 3372,5840 3379,5851 3391,5866 3411,5884 3427,5904 3443,5923 3452,5936 3459,5942 3456,5926 3456,5918 3460,5910 3470,5904 3479,5907 3488,5915 3498,5926 3506,5935 3517,5946 3523,5942 3523,5936 3524,5928 3521,5921 3517,5914 3510,5906 3496,5886 3476,5866 3463,5850 3451,5829 3448,5809 3455,5800 3463,5792 3472,5786 3483,5784 3509,5784 3520,5788 3537,5798 3556,5803 3568,5803 3578,5801 3589,5797 3597,5789 3607,5782 3620,5774 3634,5767 3643,5766 3653,5763 3661,5758 3665,5749 3665,5742 3658,5734 3653,5727 3662,5723 3683,5718 3695,5717 3702,5721 3711,5725 3725,5726 3753,5726 3762,5723 3782,5726 3789,5727 3801,5730 3808,5729 3814,5723 3829,5713 3836,5710 3844,5711 3855,5715 3869,5716 3875,5712 3883,5706 3891,5702 3906,5692 3914,5687 3924,5681 3934,5678 3941,5678 3942,5667 3935,5630 3927,5614 3918,5599 3913,5583 3906,5557 3903,5539 3892,5522 3885,5515 3875,5511 3870,5505 3870,5481 3863,5467 3849,5443 3844,5419 3841,5408 3834,5395 3829,5373 3813,5354 3809,5340 3810,5324 3806,5309 3797,5293 3789,5277 3793,5266 3800,5260 3797,5250 3789,5240 3780,5228 3768,5209 3763,5197 3764,5185 3775,5179 3776,5170 3772,5163 3751,5157 3734,5153 3717,5145 3701,5140 3693,5136 3682,5131 3671,5128 3662,5129 3653,5128 3645,5122 3637,5112 3643,5108 3649,5106 3646,5100 3635,5098 3624,5100 3614,5100 3608,5099 3600,5096 3587,5095 3578,5095 3570,5100 3563,5109 3552,5112 3550,5105 3543,5091 3542,5084 3550,5080 3559,5081 3568,5080 3566,5074 3560,5073 3551,5071 3553,5063 3547,5053 3544,5045 3552,5043 3560,5040 3560,5026 3558,5019 3552,5016 3545,5012 3551,5002 3556,4993 3547,4975 3541,4972 3540,4966 3546,4959 3551,4950 3555,4941 3557,4933 3549,4930 3540,4925 3532,4920 3523,4912 3510,4905 3503,4902 3498,4894 3495,4882 3490,4866 3472,4832 3465,4804 3466,4778 3467,4768 3469,4761 3468,4753 3463,4743 3455,4728 3451,4715 3447,4705 3444,4696 3444,4689 3458,4680 3461,4671 3462,4658 3461,4649 3454,4640 3455,4632 3464,4626 3471,4622 3479,4621 3487,4620 3495,4622 3501,4623 3506,4614 3498,4607 3491,4605 3480,4603 3472,4599 3470,4580 3470,4570 3472,4560 3475,4553 3482,4551 3498,4555 3508,4562 3517,4570 3526,4563 3527,4556 3520,4546 3520,4540 3535,4541 3544,4544 3553,4546 3561,4545 3551,4540 3542,4533 3536,4523 3533,4513 3531,4506 3528,4496 3527,4487 3539,4489 3546,4494 3555,4501 3571,4512 3581,4514 3589,4514 3595,4511 3595,4505 3600,4498 3612,4498 3620,4500 3624,4507 3623,4513 3628,4519 3635,4519 3643,4518 3649,4517 3655,4519 3656,4525 3664,4526 3669,4518 3667,4512 3668,4504 3681,4508 3682,4517 3681,4523 3687,4525 3698,4525 3709,4527 3719,4534 3734,4542 3747,4549 3758,4560 3778,4575 3783,4587 3795,4597 3804,4606 3818,4615 3827,4642 3845,4650 3872,4657 3889,4667 3903,4671 3917,4668 3937,4660 3966,4646 4000,4629 4048,4615 4075,4606 4096,4595 4115,4586 4128,4579 4196,4560 4224,4553 4238,4547 4246,4540 4251,4532 4258,4526 4271,4520 4281,4518 4288,4513 4296,4509 4303,4508 4312,4526 4313,4541 4319,4545 4334,4548 4354,4547 4369,4546 4413,4544 4423,4542 4432,4539 4444,4532 4462,4522 4468,4519 4421,4474 4428,4465 4437,4457 4446,4451 4479,4423 4501,4410 4511,4404 4517,4399 4526,4394 4537,4385 4544,4380 4542,4373 4523,4344 4518,4333 4515,4327 4521,4321 4536,4310 4551,4312 " class="polyStyle" id="640324" style="fill:#d4ecb2"/>
<polygon points="6472,525 6531,537 6603,553 6680,572 6765,587 6836,611 6927,633 7027,653 7099,675 7180,693 7280,719 7344,734 7374,743 7386,722 7410,686 7830,605 7834,602 7836,594 7842,582 7846,576 7850,572 7862,550 7873,531 7892,522 7906,520 7914,520 7920,522 7942,540 7958,544 7964,546 7974,544 8012,522 8034,512 8042,512 8066,514 8160,542 8176,562 8186,570 8200,584 8240,632 8268,660 8284,670 8330,696 8360,704 8378,712 8390,722 8422,756 8438,764 8484,782 8506,790 8516,792 8652,832 8686,836 8756,844 8872,872 8882,876 8906,892 8926,912 8934,930 8942,944 8958,1000 8966,1012 8986,1044 9002,1062 9040,1086 9104,1144 9126,1164 9160,1182 9236,1224 9250,1234 9276,1254 9350,1304 9382,1322 9404,1332 9412,1340 9298,1506 9266,1574 9274,1582 9288,1596 9318,1622 9460,1652 9500,1610 9584,1594 9680,1594 9736,1656 9738,1660 10014,1850 10018,1852 10042,1856 10066,1862 10092,1872 10106,1874 10138,1882 10166,1892 10170,1892 10202,1902 10226,1910 10266,1922 10300,1930 10318,1934 10332,1936 10354,1944 10364,1946 10386,1952 10396,1960 10408,1966 10426,1980 10440,1988 10449,1992 10476,2003 10538,2049 10542,2055 10542,2113 10542,2127 10542,2133 10538,2137 10476,2155 10472,2159 10472,2163 10482,2190 10488,2199 10488,2209 10462,2269 10510,2285 10496,2317 10426,2301 10416,2299 10408,2305 10369,2374 10356,2449 10354,2453 10334,2463 10292,2471 10288,2471 10262,2437 10254,2423 10242,2401 10214,2361 10208,2357 10184,2345 10156,2333 10132,2323 10110,2341 10090,2359 10124,2381 10158,2407 10152,2419 10124,2419 10120,2421 10056,2449 10032,2453 9954,2463 9908,2407 9694,2495 9692,2507 9688,2533 9688,2579 9694,2597 9706,2617 9726,2637 9727,2640 9712,2667 9684,2699 9658,2703 9636,2713 9630,2735 9622,2747 9576,2787 9566,2801 9556,2817 9546,2849 9548,2855 9566,2875 9566,2881 9430,2869 9420,2873 9312,2927 9290,2915 9294,2898 9294,2895 9288,2891 9232,2857 9138,2855 9136,2859 9140,2885 9142,2917 9141,2958 9146,2961 9322,2993 9313,3067 9309,3067 9204,3049 9086,3153 9048,3179 9030,3193 9024,3199 9022,3209 9022,3219 9022,3229 9020,3243 9012,3255 8992,3265 8950,3279 8922,3285 8902,3289 8852,3287 8830,3281 8790,3271 8772,3267 8768,3269 8770,3273 8782,3289 8865,3400 8926,3409 9046,3377 9051,3378 9068,3408 9070,3428 9058,3446 9046,3482 9036,3504 8958,3668 8936,3706 8926,3718 8876,3752 8862,3760 8862,3764 8860,3774 8864,3812 8864,3840 8850,3844 8822,3850 8816,3820 8811,3791 8772,3808 8760,3814 8748,3820 8714,3840 8684,3858 8666,3874 8660,3878 8642,3904 8640,3918 8640,3936 8642,3988 8642,4000 8648,4056 8662,4060 8658,4072 8644,4080 8636,4088 8626,4110 8600,4172 8600,4190 8594,4228 8632,4234 8614,4300 8608,4318 8598,4330 8582,4336 8568,4340 8546,4342 8534,4346 8534,4378 8532,4396 8532,4416 8532,4460 8528,4474 8522,4526 8526,4548 8526,4572 8520,4594 8512,4612 8502,4630 8494,4640 8478,4652 8474,4656 8474,4668 8480,4684 8506,4736 8544,4804 8550,4822 8560,4834 8592,4852 8608,4858 8628,4870 8662,4902 8674,4915 8676,4918 8681,4920 8684,4924 8685,4927 8685,4930 8685,4934 8687,4938 8690,4942 8693,4944 8697,4948 8702,4951 8707,4956 8710,4959 8713,4961 8713,4966 8712,4971 8714,4975 8719,4978 8723,4980 8726,4982 8727,4986 8727,4990 8727,4993 8728,4997 8729,5000 8730,5003 8732,5008 8734,5013 8737,5018 8741,5021 8744,5024 8749,5030 8751,5033 8751,5038 8752,5042 8754,5048 8755,5051 8755,5054 8756,5057 8759,5058 8762,5056 8764,5058 8764,5061 8762,5063 8760,5066 8759,5071 8759,5075 8763,5077 8764,5081 8764,5084 8761,5086 8760,5089 8759,5092 8762,5093 8765,5097 8766,5100 8766,5103 8764,5106 8761,5109 8760,5113 8761,5116 8763,5118 8764,5123 8758,5125 8752,5130 8749,5132 8749,5136 8752,5138 8753,5141 8753,5145 8750,5148 8746,5148 8726,5134 8714,5130 8696,5130 8684,5132 8664,5132 8640,5134 8572,5136 8564,5136 8546,5140 8538,5144 8526,5150 8514,5160 8510,5170 8510,5178 8524,5192 8544,5196 8592,5202 8622,5214 8648,5226 8676,5246 8701,5263 8705,5267 8732,5284 8738,5288 8760,5304 8778,5316 8787,5318 8806,5316 8806,5320 8806,5324 8809,5326 8812,5328 8816,5331 8819,5334 8823,5338 8818,5340 8813,5341 8819,5347 8822,5350 8826,5352 8829,5352 8832,5352 8836,5353 8840,5357 8843,5363 8845,5368 8847,5372 8849,5376 8851,5379 8852,5382 8852,5385 8853,5389 8852,5394 8852,5397 8853,5401 8855,5404 8856,5407 8859,5408 8862,5408 8865,5408 8868,5407 8870,5408 8873,5412 8875,5416 8875,5419 8874,5423 8874,5428 8873,5433 8872,5437 8876,5440 8881,5442 8884,5443 8886,5445 8889,5447 8890,5451 8890,5455 8891,5460 8892,5464 8893,5467 8894,5470 8894,5473 8895,5477 8895,5482 8895,5491 8895,5494 8896,5497 8896,5501 8897,5503 8899,5506 8902,5509 8904,5512 8904,5516 8901,5518 8897,5519 8894,5523 8894,5527 8895,5531 8897,5535 8901,5538 8902,5542 8900,5545 8897,5548 8892,5550 8888,5554 8886,5557 8885,5561 8891,5563 8895,5564 8900,5566 8900,5569 8895,5573 8891,5575 8887,5576 8885,5580 8887,5583 8890,5585 8891,5588 8891,5594 8888,5598 8884,5600 8880,5601 8878,5604 8877,5608 8880,5609 8884,5610 8886,5614 8885,5617 8882,5619 8879,5620 8873,5621 8870,5623 8869,5627 8870,5631 8871,5635 8870,5638 8870,5643 8870,5649 8869,5652 8868,5655 8868,5659 8864,5662 8860,5664 8856,5666 8851,5668 8846,5673 8843,5688 8813,5728 8796,5737 8792,5744 8792,5750 8792,5754 8788,5757 8785,5758 8781,5757 8777,5757 8773,5756 8770,5759 8774,5765 8775,5770 8775,5774 8774,5780 8770,5785 8765,5792 8764,5797 8761,5798 8758,5800 8755,5802 8751,5804 8743,5799 8739,5797 8736,5794 8733,5790 8732,5787 8732,5784 8731,5781 8729,5777 8725,5772 8722,5769 8718,5766 8714,5764 8710,5761 8707,5761 8703,5758 8698,5755 8696,5752 8695,5748 8694,5744 8690,5743 8687,5744 8683,5742 8680,5741 8675,5737 8669,5733 8666,5726 8663,5721 8659,5715 8654,5708 8650,5702 8646,5695 8641,5690 8638,5686 8631,5678 8627,5676 8624,5675 8621,5673 8612,5671 8575,5684 8590,5731 8565,5749 8565,5769 8577,5774 8590,5771 8617,5784 8640,5804 8652,5836 8645,5844 8620,5836 8577,5829 8543,5816 8540,5814 8522,5807 8516,5804 8488,5794 8464,5784 8454,5786 8442,5794 8420,5818 8404,5829 8393,5833 8393,5829 8393,5825 8391,5820 8389,5816 8385,5812 8382,5809 8378,5807 8373,5801 8368,5795 8364,5789 8358,5783 8356,5780 8354,5774 8347,5769 8342,5767 8338,5763 8336,5760 8333,5756 8328,5755 8324,5755 8317,5752 8314,5748 8312,5744 8308,5740 8303,5740 8297,5739 8293,5735 8291,5730 8287,5728 8284,5725 8279,5720 8264,5707 8255,5697 8252,5692 8250,5689 8246,5686 8243,5685 8239,5684 8235,5681 8230,5678 8228,5675 8225,5672 8222,5670 8220,5667 8215,5664 8210,5662 8204,5660 8200,5657 8196,5654 8192,5651 8187,5647 8185,5643 8181,5641 8177,5638 8170,5635 8165,5632 8161,5630 8158,5627 8156,5623 8155,5620 8152,5615 8146,5611 8141,5607 8137,5604 8132,5599 8129,5595 8124,5590 8121,5588 8104,5600 8098,5603 8076,5615 8050,5621 8032,5621 8008,5619 7992,5621 7976,5623 7954,5627 7930,5633 7902,5639 7884,5645 7856,5659 7814,5683 7768,5685 7750,5695 7728,5715 7710,5735 7704,5737 7696,5736 7695,5733 7696,5728 7693,5724 7689,5721 7686,5717 7683,5715 7679,5711 7676,5709 7673,5705 7670,5702 7665,5699 7662,5695 7660,5692 7657,5689 7642,5684 7638,5683 7634,5683 7618,5681 7606,5677 7588,5669 7562,5669 7520,5689 7494,5685 7442,5661 7420,5645 7398,5633 7384,5623 7378,5619 7368,5619 7360,5619 7352,5627 7344,5647 7344,5673 7354,5695 7376,5739 7376,5767 7368,5777 7360,5777 7354,5775 7350,5765 7344,5757 7336,5751 7314,5745 7298,5741 7278,5733 7222,5715 7194,5707 7186,5707 7172,5709 7162,5717 7160,5723 7160,5727 7168,5737 7214,5769 7215,5772 7200,5783 7182,5785 7158,5781 7098,5769 7052,5757 7046,5755 7034,5751 7016,5741 7010,5731 7012,5727 7008,5711 7006,5701 6998,5691 6964,5659 6934,5641 6910,5627 6870,5601 6834,5589 6792,5577 6776,5573 6758,5567 6738,5561 6730,5559 6714,5561 6692,5585 6676,5603 6670,5611 6670,5621 6684,5631 6724,5649 6756,5655 6772,5659 6786,5667 6794,5673 6798,5689 6796,5699 6786,5703 6758,5699 6749,5704 6746,5719 6750,5733 6754,5741 6766,5749 6774,5761 6772,5767 6768,5769 6762,5771 6756,5771 6716,5779 6696,5785 6692,5793 6690,5801 6694,5813 6694,5817 6686,5827 6672,5827 6652,5813 6640,5801 6624,5781 6622,5775 6588,5743 6570,5735 6562,5735 6552,5739 6532,5745 6514,5747 6506,5749 6494,5747 6490,5745 6472,5735 6466,5727 6432,5693 6410,5681 6396,5677 6386,5675 6374,5673 6362,5665 6350,5657 6340,5649 6328,5635 6324,5625 6318,5621 6312,5611 6292,5597 6276,5591 6230,5587 6214,5581 6184,5557 6158,5545 6142,5533 6124,5525 6116,5523 6108,5523 6098,5525 6086,5531 6084,5539 6112,5575 6110,5579 6102,5581 6078,5563 6070,5563 6050,5625 6046,5637 6046,5649 6050,5655 6056,5665 6068,5677 6074,5685 6082,5693 6082,5701 6082,5709 6080,5721 6062,5743 6042,5763 6014,5779 6000,5797 5998,5805 5998,5811 6004,5817 6016,5825 6036,5835 6036,5845 6026,5865 6017,5910 6008,5911 5996,5901 5984,5887 5970,5869 5970,5843 5970,5831 5964,5823 5958,5815 5952,5811 5946,5809 5918,5813 5902,5809 5880,5795 5862,5779 5858,5767 5858,5753 5866,5725 5864,5715 5859,5710 5844,5707 5822,5711 5752,5721 5724,5721 5698,5711 5682,5689 5668,5675 5654,5673 5646,5677 5636,5689 5626,5705 5614,5727 5608,5737 5600,5749 5594,5755 5586,5759 5574,5761 5562,5755 5554,5747 5552,5739 5548,5705 5542,5693 5528,5685 5520,5685 5482,5687 5462,5697 5444,5707 5430,5713 5424,5717 5417,5717 5412,5715 5408,5707 5402,5685 5398,5673 5368,5665 5318,5643 5307,5641 5295,5620 5299,5606 5310,5588 5315,5574 5321,5560 5310,5545 5310,5530 5309,5511 5303,5498 5285,5485 5283,5477 5292,5464 5315,5443 5338,5438 5380,5419 5404,5393 5435,5380 5461,5361 5458,5342 5460,5333 5456,5324 5462,5301 5471,5290 5477,5279 5475,5261 5479,5252 5488,5246 5496,5229 5509,5223 5535,5222 5541,5210 5568,5137 5577,5128 5595,5129 5604,5121 5624,5109 5629,5098 5642,5088 5656,5096 5684,5097 5693,5096 5699,5092 5701,5082 5687,5080 5689,5076 5698,5071 5699,5068 5694,5066 5689,5058 5688,5043 5682,5036 5683,5031 5693,5035 5700,5034 5698,5030 5689,5026 5682,5020 5683,5015 5689,5010 5699,5008 5697,5000 5689,4994 5689,4988 5695,4985 5697,4976 5694,4964 5702,4954 5698,4942 5704,4937 5730,4924 5725,4914 5716,4903 5717,4890 5712,4881 5705,4872 5694,4865 5685,4869 5571,4849 5527,4843 5502,4838 5480,4837 5472,4834 5456,4810 5451,4796 5439,4780 5402,4749 5370,4724 5354,4708 5354,4698 5355,4682 5358,4663 5358,4650 5358,4645 5370,4601 5526,4616 5595,4619 5644,4617 5653,4615 5659,4611 5669,4605 5688,4598 5751,4580 5708,4514 5696,4445 5640,4330 5630,4306 5623,4283 5508,4277 5481,4252 5492,4164 5470,4103 5482,3952 5526,3890 5391,3651 5300,3559 5264,3525 5255,3514 5192,3422 5176,3402 5163,3392 5121,3379 5044,3359 5055,3348 5067,3338 5108,3283 5173,3193 5280,3161 5391,3119 5432,3101 5461,3039 5466,3039 5528,3053 5677,3089 5784,3117 5900,3122 6075,3133 6084,3131 6086,3110 6091,3025 6080,2991 6063,2805 6049,2706 6063,2628 6073,2616 6134,2602 6250,2566 6375,2511 6446,2425 6523,2332 6584,2198 6608,2160 6619,2134 6638,2071 6643,2000 6639,1998 6569,1995 6532,1993 6452,1984 6442,1984 6422,1996 6391,2020 6387,2020 6368,1998 6332,1953 6328,1941 6312,1753 6314,1687 6303,1665 6323,1592 6314,1590 6226,1597 6189,1596 6172,1601 6153,1611 6132,1622 6122,1618 6110,1601 6071,1546 6063,1527 6051,1481 6039,1432 6036,1413 6036,1380 6039,1343 6040,1329 6041,1324 6043,1317 6039,1312 6033,1309 6026,1304 6028,1301 6030,1297 6032,1293 6034,1290 6036,1286 6041,1274 6043,1270 6046,1265 6050,1260 6053,1255 6055,1251 6060,1243 6062,1239 6063,1235 6067,1229 6070,1222 6071,1219 6073,1215 6074,1211 6077,1208 6139,1114 6329,1143 6371,1145 6483,1092 6501,1073 6477,1023 6294,752 6293,747 6273,684 6270,637 6280,598 6301,559 6351,526 6365,508 6395,513 " class="polyStyle" id="640323" style="fill:#ee8b94"/>
<path d="" class="polyStyle" id="130121" style="fill:#ee8b94"/>
<path d="" class="polyStyle" id="610823" style="fill:#fbe6ef"/>
<path d="" class="polyStyle" id="130225" style="fill:#fbe6ef"/>
<path d="" class="polyStyle" id="130322" style="fill:#d4ecb2"/>
<path d="" class="polyStyle" id="653130" style="fill:#f6f67b"/>
<path d="" class="polyStyle" id="130822" style="fill:#fbe6ef"/>
<path d="" class="polyStyle" id="211221" style="fill:#f6f67b"/>
<path d="" class="polyStyle" id="210921" style="fill:#f6f67b"/>
<path d="" class="polyStyle" id="150223" style="fill:#f8c67d"/>
<path d="" class="polyStyle" id="220422" style="fill:#d4ecb2"/>
<path d="" class="polyStyle" id="340721" style="fill:#f6f67b"/>
<path d="" class="polyStyle" id="510824" style="fill:#d4ecb2"/>
<path d="" class="polyStyle" id="610324" style="fill:#f6f67b"/>
<path d="" class="polyStyle" id="530722" style="fill:#ee8b94"/>
<path d="" class="polyStyle" id="340823" style="fill:#d4ecb2"/>
<path d="" class="polyStyle" id="620825" style="fill:#d4ecb2"/>
<path d="" class="polyStyle" id="421125" style="fill:#ee8b94"/>
<path d="" class="polyStyle" id="210281" style="fill:#ee8b94"/>
<path d="" class="polyStyle" id="440883" style="fill:#f6f67b"/>
<path d="" class="polyStyle" id="469006" style="fill:#d4ecb2"/>
<path d="" class="polyStyle" id="469002" style="fill:#ee8b94"/>
<path d="" class="polyStyle" id="469005" style="fill:#fbe6ef"/>
<path d="" class="polyStyle" id="440882" style="fill:#ee8b94"/>
<path d="" class="polyStyle" id="450681" style="fill:#ee8b94"/>
<path d="" class="polyStyle" id="441581" style="fill:#d4ecb2"/>
<path d="" class="polyStyle" id="421087" style="fill:#ee8b94"/>
<path d="" class="polyStyle" id="420984" style="fill:#fbe6ef"/>
<path d="" class="polyStyle" id="420582" style="fill:#ee8b94"/>
<path d="" class="polyStyle" id="370282" style="fill:#f6f67b"/>
<path d="" class="polyStyle" id="371083" style="fill:#f6f67b"/>
<path d="" class="polyStyle" id="371082" style="fill:#fbe6ef"/>
<polygon points="1679,16 1698,16 1702,44 1715,51 1723,62 1731,73 1735,79 1743,87 1753,92 1778,100 1804,106 1819,111 1836,116 1863,126 1884,133 1915,143 1947,155 1977,165 2014,179 2031,186 2053,195 2070,223 1982,388 1918,514 2042,590 2120,422 2182,335 2238,367 2250,379 2262,391 2267,371 2275,380 2280,389 2291,393 2307,392 2317,395 2328,399 2362,414 2378,419 2399,429 2411,433 2425,438 2436,433 2446,423 2474,399 2484,391 2493,384 2500,375 2503,367 2504,357 2506,343 2510,336 2518,329 2528,325 2539,325 2545,321 2563,302 2571,292 2595,269 2601,263 2609,258 2618,257 2630,256 2635,266 2630,274 2617,278 2608,282 2600,289 2600,297 2618,303 2634,308 2639,317 2629,322 2619,324 2604,330 2605,338 2611,345 2623,357 2626,367 2618,379 2609,387 2604,392 2610,400 2624,404 2638,407 2653,410 2666,414 2676,414 2681,408 2684,400 2689,391 2698,387 2770,410 2770,419 2760,432 2756,438 2760,441 2764,441 2794,449 2811,453 2826,459 2834,463 2837,471 2838,489 2839,495 2842,514 2844,536 2847,553 2849,574 2850,583 2856,592 2864,595 2875,585 2887,572 2907,545 2918,531 2925,527 2939,522 2959,520 2977,521 2991,525 3002,530 3012,536 3029,548 3039,555 3048,559 3062,563 3075,565 3088,566 3102,566 3113,565 3132,561 3127,586 3124,598 3132,603 3144,607 3197,635 3220,643 3233,646 3242,647 3269,651 3284,657 3303,669 3311,708 3323,737 3336,762 3340,780 3339,790 3336,799 3331,809 3323,819 3289,863 3262,908 3251,941 3251,953 3253,958 3241,970 3230,989 3223,1004 3212,1056 3204,1082 3193,1104 3177,1119 3162,1132 3154,1144 3139,1189 3130,1206 3120,1220 3109,1229 3099,1233 3069,1243 3053,1250 3043,1257 3023,1272 3016,1280 3012,1288 3006,1299 2999,1307 2992,1315 2981,1324 2947,1341 2933,1351 2925,1360 2911,1382 2906,1389 2901,1393 2892,1400 2870,1412 2847,1418 2795,1423 2784,1427 2765,1437 2695,1482 2667,1498 2633,1514 2621,1518 2615,1522 2608,1525 2600,1532 2589,1544 2575,1565 2567,1570 2556,1574 2526,1578 2507,1587 2493,1597 2489,1605 2490,1614 2495,1626 2506,1640 2521,1661 2544,1676 2574,1689 2609,1706 2641,1717 2706,1708 2737,1709 2736,1722 2722,1734 2722,1747 2746,1749 2782,1752 2828,1756 2829,1766 2827,1779 2825,1805 2823,1830 2813,1857 2793,1857 2785,1897 2752,1896 2746,1916 2739,1945 2764,1954 2797,1965 2817,1973 2825,1998 2851,2010 2875,2023 2882,2035 2874,2052 2869,2069 2865,2092 2858,2165 2832,2263 2805,2357 2784,2486 2758,2648 2751,2702 2732,2772 2732,2807 2739,2858 2740,2930 2698,2995 2687,3061 2650,3117 2622,3145 2602,3167 2559,3211 2500,3260 2444,3275 2389,3272 2316,3266 2321,3264 2328,3256 2333,3249 2330,3239 2323,3215 2321,3189 2325,3168 2338,3152 2339,3123 2333,3097 2321,3087 2304,3081 2282,3078 2269,3073 2259,3062 2249,3045 2238,3040 2210,3039 2161,3042 2150,3040 2130,3034 2118,3023 2100,3017 2068,3017 2041,3017 2002,3027 1991,3027 1969,3027 1942,3017 1922,3008 1915,3000 1907,2988 1897,2977 1883,2967 1867,2965 1865,2970 1868,2989 1874,3001 1873,3016 1865,3042 1844,3077 1838,3084 1826,3093 1815,3100 1806,3117 1796,3134 1764,3168 1757,3181 1749,3204 1748,3224 1745,3236 1739,3243 1734,3245 1626,3239 1624,3236 1631,3225 1639,3215 1649,3206 1661,3198 1673,3190 1680,3182 1682,3171 1674,3156 1663,3141 1652,3128 1645,3110 1643,3097 1634,3091 1618,3084 1608,3079 1609,3068 1619,3062 1625,3052 1622,3028 1615,3014 1622,2998 1629,2988 1635,2980 1642,2961 1642,2948 1648,2931 1653,2918 1655,2894 1654,2878 1657,2857 1659,2837 1656,2809 1656,2788 1657,2773 1657,2756 1657,2744 1685,2721 1699,2705 1712,2695 1723,2680 1721,2666 1719,2655 1718,2644 1719,2632 1718,2623 1711,2618 1695,2621 1685,2626 1675,2630 1661,2633 1639,2635 1625,2635 1601,2629 1585,2625 1536,2616 1519,2616 1499,2616 1485,2615 1478,2616 1473,2620 1436,2668 1433,2672 1427,2668 1415,2661 1391,2656 1369,2650 1336,2639 1314,2639 1290,2644 1273,2642 1245,2637 1215,2634 1192,2633 1155,2625 1147,2622 1131,2622 1123,2627 1073,2652 1015,2673 982,2677 955,2678 937,2678 921,2678 885,2671 867,2669 844,2666 826,2663 812,2659 798,2657 788,2660 779,2666 764,2670 742,2671 726,2673 711,2681 693,2686 671,2686 648,2685 628,2688 605,2690 559,2704 526,2714 482,2732 471,2737 466,2743 464,2751 462,2759 457,2763 446,2765 430,2768 359,2777 296,2779 233,2780 220,2780 296,2722 298,2550 324,2432 332,2422 346,2416 380,2412 410,2412 428,2416 478,2426 494,2434 510,2450 522,2470 536,2470 558,2464 578,2456 598,2446 676,2412 790,2370 830,2356 896,2335 926,2323 967,2317 994,2332 1026,2342 1069,2340 1081,2337 1088,2332 1091,2288 1095,2251 1102,2220 1105,2208 1134,2147 1144,2132 1171,2099 1202,2061 1231,2013 1255,1986 1262,1938 1256,1896 1249,1860 1236,1814 1225,1762 1210,1720 1207,1688 1207,1655 1216,1618 1238,1578 1253,1552 1274,1519 1297,1481 1319,1449 1342,1417 1377,1371 1416,1331 1425,1315 1425,1301 1424,1287 1422,1271 1414,1252 1411,1247 1385,1211 1366,1181 1346,1150 1325,1122 1302,1090 1278,1060 1258,1032 1202,953 1184,926 1169,905 1143,865 1113,817 1092,773 1088,760 1083,714 1080,695 1078,668 1074,626 1074,554 1075,534 1075,522 1098,453 1118,392 1130,354 1139,322 1164,290 1195,267 1271,222 1297,210 1322,198 1343,189 1368,171 1384,159 1402,145 1416,135 1425,123 1459,89 1478,60 1497,29 1513,0 1672,14 " class="polyStyle" id="640381" style="fill:#fbe6ef"/>
<path d="" class="polyStyle" id="652801" style="fill:#f8c67d"/>
<path d="" class="polyStyle" id="654301" style="fill:#ee8b94"/>
<path d="" class="polyStyle" id="370687" style="fill:#ee8b94"/>
<path d="" class="polyStyle" id="371482" style="fill:#d4ecb2"/>
<path d="" class="polyStyle" id="421081" style="fill:#fbe6ef"/>
<path d="" class="polyStyle" id="429006" style="fill:#f6f67b"/>
<path d="" class="polyStyle" id="440982" style="fill:#d4ecb2"/>
<path d="" class="polyStyle" id="421181" style="fill:#d4ecb2"/>
<path d="" class="polyStyle" id="321181" style="fill:#d4ecb2"/>
<path d="" class="polyStyle" id="659007" style="fill:#ee8b94"/>
<path d="" class="polyStyle" id="652701" style="fill:#fbe6ef"/>
<path d="" class="polyStyle" id="210781" style="fill:#fbe6ef"/>
<path d="" class="polyStyle" id="460204" style="fill:#f6f67b"/>
<path d="" class="polyStyle" id="210211" style="fill:#f6f67b"/>
<path d="" class="polyStyle" id="450512" style="fill:#ee8b94"/>
<path d="" class="polyStyle" id="450602" style="fill:#fbe6ef"/>
<path d="" class="polyStyle" id="440404" style="fill:#ee8b94"/>
<path d="" class="polyStyle" id="440403" style="fill:#f6f67b"/>
<path d="" class="polyStyle" id="441502" style="fill:#f6f67b"/>
<path d="" class="polyStyle" id="431002" style="fill:#d4ecb2"/>
<path d="" class="polyStyle" id="500107" style="fill:#fbe6ef"/>
<path d="" class="polyStyle" id="430611" style="fill:#d4ecb2"/>
<path d="" class="polyStyle" id="511304" style="fill:#fbe6ef"/>
<path d="" class="polyStyle" id="340711" style="fill:#ee8b94"/>
<path d="" class="polyStyle" id="320118" style="fill:#f6f67b"/>
<path d="" class="polyStyle" id="510704" style="fill:#f6f67b"/>
<path d="" class="polyStyle" id="411502" style="fill:#ee8b94"/>
<path d="" class="polyStyle" id="320302" style="fill:#d4ecb2"/>
<polygon points="2676,3212 2722,3198 2736,3194 2749,3193 2760,3194 2769,3198 2811,3220 2824,3230 2850,3236 2942,3243 3034,3240 3083,3241 3106,3245 3136,3254 3152,3257 3164,3262 3178,3270 3197,3272 3208,3272 3218,3274 3233,3282 3245,3290 3258,3296 3270,3302 3283,3306 3307,3310 3316,3313 3337,3323 3358,3319 3381,3311 3396,3310 3405,3310 3421,3307 3430,3306 3441,3310 3453,3312 3476,3312 3512,3310 3520,3311 3530,3311 3538,3307 3544,3304 3553,3303 3557,3301 3561,3294 3583,3261 3586,3255 3590,3252 3597,3251 3604,3253 3634,3267 3650,3268 3656,3267 3660,3264 3670,3253 3676,3251 3680,3250 3687,3240 3708,3222 3714,3219 3718,3220 3721,3237 3724,3238 3732,3236 3746,3227 3749,3227 3749,3230 3749,3236 3752,3240 3757,3243 3764,3244 3775,3240 3780,3244 3780,3247 3774,3256 3776,3258 3786,3258 3790,3253 3795,3245 3805,3242 3808,3243 3803,3253 3802,3255 3812,3262 3832,3270 3839,3271 3927,3273 4223,3278 4277,3276 4293,3273 4300,3269 4318,3247 4326,3234 4330,3231 4339,3231 4346,3233 4354,3236 4363,3243 4377,3256 4387,3256 4396,3256 4404,3258 4410,3261 4414,3266 4418,3269 4423,3269 4429,3268 4438,3262 4445,3258 4451,3257 4457,3257 4468,3261 4497,3272 4525,3283 4531,3286 4535,3291 4538,3297 4543,3300 4549,3302 4558,3301 4571,3300 4576,3297 4585,3292 4587,3297 4586,3309 4588,3312 4592,3313 4597,3312 4606,3306 4611,3308 4627,3325 4636,3329 4646,3328 4651,3329 4652,3342 4653,3348 4656,3351 4660,3353 4664,3352 4672,3350 4690,3353 4709,3355 4724,3346 4734,3338 4747,3332 4773,3328 4804,3327 4814,3324 4820,3320 4824,3316 4831,3313 4848,3311 4872,3320 4893,3322 4929,3322 4943,3330 4978,3339 5015,3350 5044,3359 5121,3379 5163,3392 5176,3402 5192,3422 5255,3514 5264,3525 5300,3559 5391,3651 5526,3890 5482,3952 5470,4103 5492,4164 5481,4252 5508,4277 5623,4283 5630,4306 5640,4330 5696,4445 5708,4514 5751,4580 5688,4598 5669,4605 5659,4611 5653,4615 5644,4617 5595,4619 5526,4616 5370,4601 5358,4645 5271,4643 5228,4644 5220,4646 5214,4652 5202,4656 5179,4655 5164,4656 5154,4668 5144,4675 5118,4675 5112,4677 5110,4683 5121,4717 5120,4721 5115,4724 5094,4729 5053,4730 5021,4728 4957,4728 4896,4718 4839,4711 4813,4711 4805,4711 4801,4708 4800,4704 4802,4695 4795,4691 4779,4687 4711,4671 4698,4666 4701,4659 4701,4652 4694,4639 4707,4627 4714,4619 4713,4614 4709,4608 4703,4604 4689,4599 4681,4588 4664,4571 4651,4560 4646,4555 4644,4543 4642,4532 4643,4521 4643,4515 4650,4504 4656,4498 4658,4493 4648,4476 4646,4465 4641,4459 4634,4456 4630,4450 4633,4444 4638,4440 4641,4434 4637,4430 4630,4430 4625,4425 4625,4414 4627,4403 4624,4392 4621,4386 4614,4380 4606,4379 4592,4380 4591,4376 4598,4370 4595,4365 4581,4361 4574,4357 4574,4346 4565,4329 4559,4326 4552,4323 4549,4318 4551,4312 4536,4310 4521,4321 4515,4327 4518,4333 4523,4344 4542,4373 4544,4380 4537,4385 4526,4394 4517,4399 4511,4404 4501,4410 4479,4423 4446,4451 4437,4457 4428,4465 4421,4474 4468,4519 4462,4522 4444,4532 4432,4539 4423,4542 4413,4544 4369,4546 4354,4547 4334,4548 4319,4545 4313,4541 4312,4526 4303,4508 4296,4509 4288,4513 4281,4518 4271,4520 4258,4526 4251,4532 4246,4540 4238,4547 4224,4553 4196,4560 4128,4579 4115,4586 4096,4595 4075,4606 4048,4615 4000,4629 3966,4646 3937,4660 3917,4668 3903,4671 3889,4667 3872,4657 3845,4650 3827,4642 3818,4615 3804,4606 3795,4597 3783,4587 3778,4575 3758,4560 3747,4549 3734,4542 3719,4534 3709,4527 3698,4525 3687,4525 3681,4523 3682,4517 3681,4508 3668,4504 3667,4512 3669,4518 3664,4526 3656,4525 3655,4519 3649,4517 3643,4518 3635,4519 3628,4519 3623,4513 3624,4507 3620,4500 3612,4498 3600,4498 3595,4505 3595,4511 3589,4514 3581,4514 3571,4512 3555,4501 3546,4494 3539,4489 3527,4487 3528,4496 3531,4506 3533,4513 3536,4523 3542,4533 3551,4540 3561,4545 3553,4546 3544,4544 3535,4541 3520,4540 3520,4546 3527,4556 3526,4563 3517,4570 3508,4562 3498,4555 3482,4551 3475,4553 3472,4560 3470,4570 3470,4580 3472,4599 3480,4603 3491,4605 3498,4607 3506,4614 3501,4623 3495,4622 3487,4620 3479,4621 3471,4622 3464,4626 3455,4632 3454,4640 3461,4649 3462,4658 3461,4671 3458,4680 3444,4689 3444,4696 3447,4705 3451,4715 3455,4728 3463,4743 3468,4753 3469,4761 3467,4768 3466,4778 3465,4804 3472,4832 3490,4866 3495,4882 3498,4894 3503,4902 3510,4905 3523,4912 3532,4920 3540,4925 3549,4930 3557,4933 3555,4941 3551,4950 3546,4959 3540,4966 3541,4972 3547,4975 3556,4993 3551,5002 3545,5012 3552,5016 3558,5019 3560,5026 3560,5040 3552,5043 3544,5045 3547,5053 3553,5063 3551,5071 3560,5073 3566,5074 3568,5080 3559,5081 3550,5080 3542,5084 3543,5091 3550,5105 3552,5112 3563,5109 3570,5100 3578,5095 3587,5095 3600,5096 3608,5099 3614,5100 3624,5100 3635,5098 3646,5100 3649,5106 3643,5108 3637,5112 3645,5122 3653,5128 3662,5129 3671,5128 3682,5131 3693,5136 3701,5140 3717,5145 3734,5153 3751,5157 3772,5163 3776,5170 3775,5179 3764,5185 3763,5197 3768,5209 3780,5228 3789,5240 3797,5250 3800,5260 3793,5266 3789,5277 3797,5293 3806,5309 3810,5324 3809,5340 3813,5354 3829,5373 3834,5395 3841,5408 3844,5419 3849,5443 3863,5467 3870,5481 3870,5505 3875,5511 3885,5515 3892,5522 3903,5539 3906,5557 3913,5583 3918,5599 3927,5614 3935,5630 3942,5667 3941,5678 3934,5678 3924,5681 3914,5687 3906,5692 3891,5702 3883,5706 3875,5712 3869,5716 3855,5715 3844,5711 3836,5710 3829,5713 3814,5723 3808,5729 3801,5730 3789,5727 3782,5726 3762,5723 3753,5726 3725,5726 3711,5725 3702,5721 3695,5717 3683,5718 3662,5723 3653,5727 3658,5734 3665,5742 3665,5749 3661,5758 3653,5763 3643,5766 3634,5767 3620,5774 3607,5782 3597,5789 3589,5797 3578,5801 3568,5803 3556,5803 3537,5798 3520,5788 3509,5784 3483,5784 3472,5786 3463,5792 3455,5800 3448,5809 3451,5829 3463,5850 3476,5866 3496,5886 3510,5906 3517,5914 3521,5921 3524,5928 3523,5936 3523,5942 3517,5946 3506,5935 3498,5926 3488,5915 3479,5907 3470,5904 3460,5910 3456,5918 3456,5926 3459,5942 3452,5936 3443,5923 3427,5904 3411,5884 3391,5866 3379,5851 3372,5840 3365,5832 3358,5828 3351,5827 3287,5827 3268,5826 3217,5822 3202,5821 3182,5820 3165,5822 3155,5825 3110,5839 3093,5845 3075,5847 3062,5847 3044,5841 3018,5832 2911,5795 2812,5759 2725,5730 2697,5723 2680,5715 2649,5698 2632,5691 2609,5677 2603,5659 2586,5626 2572,5611 2560,5601 2548,5589 2542,5576 2534,5555 2533,5537 2537,5520 2537,5502 2541,5490 2538,5478 2525,5457 2489,5440 2438,5426 2413,5425 2342,5429 2289,5427 2250,5431 2231,5434 2221,5443 2213,5451 2203,5456 2193,5457 2177,5460 2160,5468 2154,5478 2148,5488 2144,5495 2137,5504 2129,5505 2120,5504 2106,5502 2093,5500 2070,5491 2054,5484 2039,5476 2024,5475 2009,5477 2000,5481 1993,5492 1986,5495 1967,5499 1958,5502 1946,5502 1931,5500 1916,5497 1905,5496 1894,5498 1873,5501 1857,5500 1846,5495 1829,5493 1784,5493 1771,5487 1757,5479 1745,5471 1725,5460 1704,5450 1691,5444 1667,5436 1645,5435 1627,5430 1611,5424 1595,5422 1585,5425 1574,5429 1562,5436 1554,5439 1540,5441 1527,5437 1514,5434 1495,5427 1479,5421 1459,5421 1448,5424 1430,5427 1414,5428 1389,5429 1372,5426 1353,5419 1337,5414 1322,5411 1305,5411 1285,5412 1269,5414 1258,5418 1251,5422 1244,5426 1233,5432 1220,5436 1211,5436 1203,5428 1204,5421 1202,5414 1196,5405 1181,5399 1174,5394 1177,5377 1175,5367 1167,5360 1158,5360 1141,5368 1135,5369 1124,5361 1126,5354 1132,5348 1138,5345 1147,5341 1156,5331 1155,5325 1138,5316 1120,5311 1113,5311 1103,5309 1096,5309 1092,5304 1089,5297 1085,5289 1085,5284 1094,5273 1099,5269 1105,5269 1110,5270 1117,5270 1122,5267 1125,5263 1127,5259 1128,5254 1126,5249 1119,5245 1108,5238 1103,5235 1094,5232 1089,5232 1080,5227 1073,5215 1070,5202 1064,5188 1057,5171 1054,5148 1039,5127 1017,5114 998,5089 996,5078 986,5049 977,5022 961,5001 956,4981 947,4957 938,4941 925,4921 905,4892 897,4884 890,4876 885,4871 886,4866 898,4860 912,4857 934,4850 955,4843 971,4838 987,4833 1006,4831 1022,4827 1047,4818 1064,4815 1074,4814 1087,4808 1099,4794 1109,4785 1117,4780 1126,4779 1135,4780 1143,4776 1153,4770 1168,4759 1171,4746 1174,4736 1177,4727 1182,4722 1190,4722 1207,4724 1219,4725 1399,4738 1795,4771 1840,4776 1875,4752 1892,4735 1917,4709 1927,4687 1931,4673 1930,4653 1909,4632 1884,4615 1862,4595 1854,4584 1832,4576 1813,4567 1794,4556 1781,4555 1764,4557 1740,4555 1710,4537 1680,4522 1657,4512 1630,4507 1596,4500 1573,4492 1545,4479 1519,4462 1474,4441 1454,4429 1440,4416 1428,4408 1424,4401 1434,4385 1442,4359 1444,4351 1444,4341 1450,4333 1462,4332 1493,4339 1520,4343 1558,4348 1580,4350 1614,4349 1633,4350 1641,4342 1640,4323 1630,4306 1616,4286 1594,4249 1590,4241 1590,4236 1602,4222 1614,4211 1630,4198 1641,4190 1662,4185 1687,4181 1757,4162 1770,4158 1777,4157 1788,4158 1796,4164 1809,4172 1818,4176 1823,4183 1826,4188 1831,4190 1840,4185 1850,4178 1861,4176 1875,4178 1885,4175 1894,4157 1901,4147 1902,4139 1896,4105 1895,4096 1895,4089 1896,4085 1901,4083 2062,4066 2112,4059 2125,4058 2128,4055 2120,4048 2114,4042 2108,4035 2100,4023 2097,4015 2091,4007 2081,3996 2059,3983 2049,3973 2043,3970 2033,3972 2025,3973 2017,3970 2003,3966 1988,3961 1986,3957 1987,3953 1994,3949 2005,3944 2013,3940 2022,3939 2031,3942 2047,3945 2062,3946 2067,3946 2078,3945 2089,3944 2108,3937 2116,3932 2126,3927 2143,3928 2160,3935 2174,3944 2184,3948 2192,3947 2205,3939 2213,3932 2231,3930 2244,3924 2262,3902 2271,3892 2274,3877 2275,3861 2283,3848 2288,3837 2287,3826 2290,3822 2301,3819 2309,3812 2325,3796 2335,3790 2355,3782 2370,3775 2375,3764 2380,3746 2380,3738 2385,3728 2395,3721 2399,3719 2414,3720 2426,3729 2443,3732 2454,3732 2462,3726 2471,3717 2477,3706 2492,3696 2505,3692 2543,3684 2553,3683 2560,3686 2573,3686 2584,3683 2586,3678 2580,3670 2563,3653 2544,3639 2535,3626 2521,3606 2511,3589 2490,3578 2469,3570 2444,3566 2429,3566 2407,3566 2398,3561 2383,3549 2371,3543 2361,3529 2359,3523 2368,3516 2380,3520 2385,3520 2385,3516 2376,3510 2360,3495 2345,3480 2322,3456 2292,3428 2276,3411 2255,3394 2232,3363 2224,3346 2217,3332 2216,3318 2222,3302 2228,3280 2238,3271 2254,3262 2299,3267 2314,3268 2316,3266 2389,3272 2444,3275 2500,3260 2559,3211 2602,3167 2622,3145 2659,3195 " class="polyStyle" id="640303" style="fill:#f6f67b"/>
<polygon points="3257,969 3263,979 3313,999 3350,1023 3361,1034 3392,1088 3406,1120 3409,1131 3418,1142 3439,1153 3461,1161 3482,1176 3496,1190 3506,1200 3510,1209 3509,1226 3514,1243 3529,1271 3526,1282 3521,1288 3523,1294 3537,1298 3543,1305 3542,1312 3540,1316 3535,1326 3528,1329 3550,1354 3560,1375 3560,1383 3573,1378 3587,1373 3600,1367 3633,1348 3636,1348 3678,1373 3684,1380 3684,1391 3691,1404 3698,1416 3702,1423 3707,1432 3719,1440 3766,1472 3778,1480 3780,1485 3770,1493 3730,1539 3725,1543 3717,1544 3708,1550 3705,1556 3704,1564 3708,1573 3739,1604 3751,1604 3853,1603 3877,1604 3891,1607 3894,1608 3897,1682 3899,1685 3906,1685 3959,1688 3978,1689 4005,1696 4004,1834 4008,1836 4024,1843 4022,1848 4022,1852 4012,1873 4003,1891 3990,1901 3953,1935 3948,1944 3944,1948 3920,1948 3911,1948 3899,1948 3896,1947 3890,1943 3883,1939 3871,1940 3852,1945 3805,1955 3783,1956 3730,1959 3663,1961 3636,1970 3638,1976 3635,1981 3628,1981 3625,1985 3631,1997 3631,2002 3627,2008 3614,2019 3619,2031 3618,2042 3615,2047 3616,2053 3631,2056 3636,2062 3635,2073 3629,2079 3628,2090 3633,2096 3637,2113 3636,2124 3634,2129 3636,2135 3650,2142 3656,2146 3659,2157 3668,2174 3681,2191 3686,2197 3701,2194 3708,2199 3719,2210 3723,2214 3725,2219 3728,2227 3728,2238 3732,2247 3741,2252 3752,2253 3770,2256 3801,2270 3817,2270 3834,2270 3859,2280 3868,2278 3877,2274 3884,2275 3891,2281 3904,2281 3924,2281 3929,2283 3932,2289 3932,2299 3926,2300 3925,2305 3930,2312 3935,2315 3950,2318 3966,2325 3989,2331 4002,2338 4006,2341 4008,2345 4010,2358 4016,2385 4018,2390 4022,2392 4055,2389 4061,2391 4061,2403 4062,2409 4066,2415 4071,2417 4086,2422 4097,2429 4104,2436 4106,2439 4106,2443 4107,2465 4109,2471 4113,2473 4128,2475 4132,2477 4134,2480 4152,2510 4169,2530 4216,2555 4228,2564 4247,2583 4270,2595 4287,2603 4315,2620 4327,2624 4356,2628 4371,2632 4403,2669 4416,2690 4420,2712 4429,2729 4446,2750 4474,2775 4494,2790 4516,2803 4583,2828 4596,2837 4607,2849 4654,2906 4695,2951 4713,2966 4769,3007 4777,3014 4785,3025 4807,3071 4815,3083 4821,3089 4833,3105 4841,3127 4845,3140 4847,3154 4850,3184 4857,3209 4877,3249 4901,3290 4922,3318 4929,3322 4893,3322 4872,3320 4848,3311 4831,3313 4824,3316 4820,3320 4814,3324 4804,3327 4773,3328 4747,3332 4734,3338 4724,3346 4709,3355 4690,3353 4672,3350 4664,3352 4660,3353 4656,3351 4653,3348 4652,3342 4651,3329 4646,3328 4636,3329 4627,3325 4611,3308 4606,3306 4597,3312 4592,3313 4588,3312 4586,3309 4587,3297 4585,3292 4576,3297 4571,3300 4558,3301 4549,3302 4543,3300 4538,3297 4535,3291 4531,3286 4525,3283 4497,3272 4468,3261 4457,3257 4451,3257 4445,3258 4438,3262 4429,3268 4423,3269 4418,3269 4414,3266 4410,3261 4404,3258 4396,3256 4387,3256 4377,3256 4363,3243 4354,3236 4346,3233 4339,3231 4330,3231 4326,3234 4318,3247 4300,3269 4293,3273 4277,3276 4223,3278 3927,3273 3839,3271 3832,3270 3812,3262 3802,3255 3803,3253 3808,3243 3805,3242 3795,3245 3790,3253 3786,3258 3776,3258 3774,3256 3780,3247 3780,3244 3775,3240 3764,3244 3757,3243 3752,3240 3749,3236 3749,3230 3749,3227 3746,3227 3732,3236 3724,3238 3721,3237 3718,3220 3714,3219 3708,3222 3687,3240 3680,3250 3676,3251 3670,3253 3660,3264 3656,3267 3650,3268 3634,3267 3604,3253 3597,3251 3590,3252 3586,3255 3583,3261 3561,3294 3557,3301 3553,3303 3544,3304 3538,3307 3530,3311 3520,3311 3512,3310 3476,3312 3453,3312 3441,3310 3430,3306 3421,3307 3405,3310 3396,3310 3381,3311 3358,3319 3337,3323 3316,3313 3307,3310 3283,3306 3270,3302 3258,3296 3245,3290 3233,3282 3218,3274 3208,3272 3197,3272 3178,3270 3164,3262 3152,3257 3136,3254 3106,3245 3083,3241 3034,3240 2942,3243 2850,3236 2824,3230 2811,3220 2769,3198 2760,3194 2749,3193 2736,3194 2722,3198 2676,3212 2659,3195 2622,3145 2650,3117 2687,3061 2698,2995 2740,2930 2739,2858 2732,2807 2732,2772 2751,2702 2758,2648 2784,2486 2805,2357 2832,2263 2858,2165 2865,2092 2869,2069 2874,2052 2882,2035 2875,2023 2851,2010 2825,1998 2817,1973 2797,1965 2764,1954 2739,1945 2746,1916 2752,1896 2785,1897 2793,1857 2813,1857 2823,1830 2825,1805 2827,1779 2829,1766 2828,1756 2782,1752 2746,1749 2722,1747 2722,1734 2736,1722 2737,1709 2706,1708 2641,1717 2609,1706 2574,1689 2544,1676 2521,1661 2506,1640 2495,1626 2490,1614 2489,1605 2493,1597 2507,1587 2526,1578 2556,1574 2567,1570 2575,1565 2589,1544 2600,1532 2608,1525 2615,1522 2621,1518 2633,1514 2667,1498 2695,1482 2765,1437 2784,1427 2795,1423 2847,1418 2870,1412 2892,1400 2901,1393 2906,1389 2911,1382 2925,1360 2933,1351 2947,1341 2981,1324 2992,1315 2999,1307 3006,1299 3012,1288 3016,1280 3023,1272 3043,1257 3053,1250 3069,1243 3099,1233 3109,1229 3120,1220 3130,1206 3139,1189 3154,1144 3162,1132 3177,1119 3193,1104 3204,1082 3212,1056 3223,1004 3230,989 3241,970 3253,958 3254,962 " class="polyStyle" id="640302" style="fill:#ee8b94"/>
<path d="" class="polyStyle" id="140311" style="fill:#ee8b94"/>
<path d="" class="polyStyle" id="610802" style="fill:#ee8b94"/>
<path d="" class="polyStyle" id="120116" style="fill:#f6f67b"/>
<path d="" class="polyStyle" id="130303" style="fill:#fbe6ef"/>
<path d="" class="polyStyle" id="140211" style="fill:#f6f67b"/>
<path d="" class="polyStyle" id="150207" style="fill:#fbe6ef"/>
<path d="" class="polyStyle" id="211403" style="fill:#f6f67b"/>
<path d="" class="polyStyle" id="150802" style="fill:#f8c67d"/>
<path d="" class="polyStyle" id="210112" style="fill:#ee8b94"/>
<path d="" class="polyStyle" id="230406" style="fill:#d4ecb2"/>
<path d="" class="polyStyle" id="110113" style="fill:#fbe6ef"/>
<path d="" class="polyStyle" id="341702" style="fill:#fbe6ef"/>
<path d="" class="polyStyle" id="420303" style="fill:#ee8b94"/>
<path d="" class="polyStyle" id="340702" style="fill:#d4ecb2"/>
<path d="" class="polyStyle" id="421002" style="fill:#f6f67b"/>
<path d="" class="polyStyle" id="420117" style="fill:#f6f67b"/>
<path d="" class="polyStyle" id="440904" style="fill:#f8c67d"/>
<path d="" class="polyStyle" id="460205" style="fill:#ee8b94"/>
<path d="" class="polyStyle" id="460202" style="fill:#f6f67b"/>
<path d="" class="polyStyle" id="460203" style="fill:#fbe6ef"/>
<path d="" class="polyStyle" id="420304" style="fill:#f6f67b"/>
<path d="" class="polyStyle" id="445302" style="fill:#ee8b94"/>
<path d="" class="polyStyle" id="410202" style="fill:#d4ecb2"/>
<path d="" class="polyStyle" id="440800" style="fill:#f6f67b"/>
<path d="" class="polyStyle" id="440900" style="fill:#ee8b94"/>
<path d="" class="polyStyle" id="340800" style="fill:#ee8b94"/>
<path d="" class="polyStyle" id="460200" style="fill:#f6f67b"/>
<path d="" class="polyStyle" id="460000" style="fill:#ee8b94"/>
<path d="" class="polyStyle" id="450500" style="fill:#ee8b94"/>
<path d="" class="polyStyle" id="450600" style="fill:#ee8b94"/>
<path d="" class="polyStyle" id="440400" style="fill:#f6f67b"/>
<path d="" class="polyStyle" id="441700" style="fill:#f6f67b"/>
<path d="" class="polyStyle" id="441500" style="fill:#f6f67b"/>
<path d="" class="polyStyle" id="350600" style="fill:#ee8b94"/>
<path d="" class="polyStyle" id="710000" style="fill:#f6f67b"/>
<path d="" class="polyStyle" id="510400" style="fill:#f6f67b"/>
<path d="" class="polyStyle" id="522600" style="fill:#fbe6ef"/>
<path d="" class="polyStyle" id="520500" style="fill:#ee8b94"/>
<path d="" class="polyStyle" id="431200" style="fill:#f6f67b"/>
<path d="" class="polyStyle" id="430600" style="fill:#f6f67b"/>
<path d="" class="polyStyle" id="511400" style="fill:#d4ecb2"/>
<path d="" class="polyStyle" id="421000" style="fill:#ee8b94"/>
<path d="" class="polyStyle" id="341700" style="fill:#f6f67b"/>
<path d="" class="polyStyle" id="420500" style="fill:#f6f67b"/>
<path d="" class="polyStyle" id="511300" style="fill:#f6f67b"/>
<path d="" class="polyStyle" id="420900" style="fill:#f6f67b"/>
<path d="" class="polyStyle" id="511700" style="fill:#ee8b94"/>
<path d="" class="polyStyle" id="420600" style="fill:#d4ecb2"/>
<path d="" class="polyStyle" id="411500" style="fill:#fbe6ef"/>
<path d="" class="polyStyle" id="510800" style="fill:#ee8b94"/>
<path d="" class="polyStyle" id="420300" style="fill:#fbe6ef"/>
<path d="" class="polyStyle" id="611000" style="fill:#ee8b94"/>
<path d="" class="polyStyle" id="620800" style="fill:#fbe6ef"/>
<path d="" class="polyStyle" id="370200" style="fill:#ee8b94"/>
<path d="" class="polyStyle" id="371000" style="fill:#f6f67b"/>
<path d="" class="polyStyle" id="370600" style="fill:#fbe6ef"/>
<path d="" class="polyStyle" id="120000" style="fill:#f6f67b"/>
<path d="" class="polyStyle" id="130200" style="fill:#ee8b94"/>
<path d="" class="polyStyle" id="130300" style="fill:#f6f67b"/>
<path d="" class="polyStyle" id="652900" style="fill:#fbe6ef"/>
<path d="" class="polyStyle" id="150500" style="fill:#d4ecb2"/>
<path d="" class="polyStyle" id="" style="fill:#d4ecb2"/>
<path d="" class="polyStyle" id="350500" style="fill:#fbe6ef"/>
<path d="" class="polyStyle" id="440400" style="fill:#f6f67b"/>
<path d="" class="polyStyle" id="421100" style="fill:#d4ecb2"/>
<path d="" class="polyStyle" id="420100" style="fill:#fbe6ef"/>
<path d="" class="polyStyle" id="532500" style="fill:#fbe6ef"/>
<path d="" class="polyStyle" id="654200" style="fill:#fbe6ef"/>
<path d="" class="polyStyle" id="210700" style="fill:#d4ecb2"/>
<path d="" class="polyStyle" id="522300" style="fill:#fbe6ef"/>
<path d="" class="polyStyle" id="" style="fill:#ee8b94"/>
<path d="" class="polyStyle" id="440400" style="fill:#f6f67b"/>
<path d="" class="polyStyle" id="620000" style="fill:#f6f67b"/>
<path d="" class="polyStyle" id="430000" style="fill:#fbe6ef"/>
<path d="" class="polyStyle" id="420000" style="fill:#ee8b94"/>
<path d="" class="polyStyle" id="410000" style="fill:#f6f67b"/>
<path d="" class="polyStyle" id="350000" style="fill:#fbe6ef"/>
<path d="" class="polyStyle" id="520000" style="fill:#f6f67b"/>
<path d="" class="polyStyle" id="" style="fill:#ee8b94"/>
</svg>
