<?xml version="1.0" encoding="UTF-8"?>
<!DOCTYPE svg PUBLIC "-//W3C//DTD SVG 1.1 Tiny//EN" "http://www.w3.org/Graphics/SVG/1.1/DTD/svg11-tiny.dtd">
<svg version="1.1" xmlns="http://www.w3.org/2000/svg" xmlns:xlink="http://www.w3.org/1999/xlink" width="100%" height="100%" viewBox="0,0,10908,8089">
<title>SVG</title>
<desc>Poligon Test</desc>
<style id="style_css_sheet" type="text/css">
.polyStyle{fill: #cccccc;stroke-width:0;fill-rule:evenodd;}
</style>
<circle cx="6933" cy="1251" r="200" stroke="black" stroke-width="1" fill="red" id="640521" name="中宁县"/>
<circle cx="9167" cy="6859" r="200" stroke="black" stroke-width="1" fill="red" id="640522"position="44414441" name="海原县"/>
<circle cx="4507" cy="1127" r="200" stroke="black" stroke-width="1" fill="red" id="640502"position="33" name="沙坡头区"/>
<path d="" class="polyStyle" id="" style="fill:#ee8b94"/>
<path d="" class="polyStyle" id="623022" style="fill:#fbe6ef"/>
<path d="" class="polyStyle" id="211421" style="fill:#f6f67b"/>
<path d="" class="polyStyle" id="532524" style="fill:#ee8b94"/>
<path d="" class="polyStyle" id="440825" style="fill:#f6f67b"/>
<path d="" class="polyStyle" id="441721" style="fill:#f6f67b"/>
<path d="" class="polyStyle" id="450521" style="fill:#f6f67b"/>
<path d="" class="polyStyle" id="450123" style="fill:#fbe6ef"/>
<path d="" class="polyStyle" id="350624" style="fill:#f6f67b"/>
<path d="" class="polyStyle" id="" style="fill:#fbe6ef"/>
<path d="" class="polyStyle" id="451224" style="fill:#fbe6ef"/>
<path d="" class="polyStyle" id="350627" style="fill:#f6f67b"/>
<path d="" class="polyStyle" id="" style="fill:#f6f67b"/>
<path d="" class="polyStyle" id="350525" style="fill:#f6f67b"/>
<path d="" class="polyStyle" id="530124" style="fill:#ee8b94"/>
<path d="" class="polyStyle" id="522627" style="fill:#ee8b94"/>
<path d="" class="polyStyle" id="510421" style="fill:#fbe6ef"/>
<path d="" class="polyStyle" id="522623" style="fill:#d4ecb2"/>
<path d="" class="polyStyle" id="430321" style="fill:#d4ecb2"/>
<path d="" class="polyStyle" id="511129" style="fill:#d4ecb2"/>
<path d="" class="polyStyle" id="511423" style="fill:#ee8b94"/>
<path d="" class="polyStyle" id="421023" style="fill:#f6f67b"/>
<path d="" class="polyStyle" id="511724" style="fill:#f6f67b"/>
<path d="" class="polyStyle" id="420526" style="fill:#fbe6ef"/>
<path d="" class="polyStyle" id="511923" style="fill:#fbe6ef"/>
<path d="" class="polyStyle" id="420325" style="fill:#fbe6ef"/>
<path d="" class="polyStyle" id="511921" style="fill:#f6f67b"/>
<path d="" class="polyStyle" id="542525" style="fill:#f6f67b"/>
<path d="" class="polyStyle" id="611026" style="fill:#ee8b94"/>
<path d="" class="polyStyle" id="411023" style="fill:#fbe6ef"/>
<path d="" class="polyStyle" id="632323" style="fill:#f6f67b"/>
<path d="" class="polyStyle" id="140525" style="fill:#d4ecb2"/>
<path d="" class="polyStyle" id="410922" style="fill:#ee8b94"/>
<path d="" class="polyStyle" id="621027" style="fill:#ee8b94"/>
<path d="" class="polyStyle" id="130427" style="fill:#f6f67b"/>
<polygon points="8215,4023 8229,4029 8236,4032 8243,4033 8247,4038 8247,4044 8243,4055 8242,4066 8246,4072 8251,4076 8272,4084 8287,4091 8288,4097 8287,4102 8280,4113 8280,4119 8284,4125 8291,4125 8296,4122 8298,4117 8296,4105 8302,4102 8309,4106 8316,4106 8330,4103 8331,4109 8323,4120 8330,4131 8344,4139 8358,4141 8365,4147 8368,4158 8361,4163 8333,4163 8326,4166 8326,4172 8339,4189 8346,4192 8353,4191 8367,4182 8374,4180 8381,4181 8388,4184 8396,4201 8406,4212 8413,4217 8414,4223 8409,4228 8399,4239 8396,4251 8398,4256 8399,4259 8405,4268 8398,4268 8391,4271 8386,4277 8386,4282 8389,4288 8396,4287 8410,4281 8416,4286 8412,4291 8412,4297 8415,4302 8415,4305 8424,4310 8444,4309 8462,4308 8476,4307 8483,4309 8485,4315 8479,4320 8465,4329 8462,4335 8464,4343 8468,4347 8476,4354 8478,4360 8475,4371 8478,4388 8482,4394 8489,4394 8490,4382 8493,4377 8499,4373 8506,4376 8520,4387 8521,4392 8518,4397 8504,4405 8499,4410 8497,4416 8493,4422 8486,4424 8472,4424 8465,4427 8464,4433 8468,4438 8475,4441 8479,4446 8475,4451 8468,4451 8461,4447 8454,4449 8444,4460 8443,4466 8444,4471 8443,4483 8437,4488 8430,4499 8433,4505 8440,4506 8447,4505 8468,4498 8478,4487 8490,4476 8504,4470 8510,4474 8511,4485 8506,4496 8510,4502 8517,4502 8538,4498 8552,4499 8566,4507 8580,4517 8593,4529 8608,4542 8617,4546 8626,4543 8638,4542 8643,4544 8650,4549 8655,4555 8656,4560 8660,4566 8673,4576 8687,4575 8701,4569 8708,4570 8722,4571 8729,4575 8725,4579 8718,4582 8704,4588 8690,4598 8687,4604 8692,4610 8699,4610 8713,4603 8727,4598 8733,4602 8733,4607 8730,4613 8716,4622 8695,4632 8692,4638 8698,4644 8712,4646 8726,4651 8740,4659 8744,4665 8748,4676 8750,4687 8743,4690 8736,4690 8722,4686 8708,4685 8701,4687 8697,4692 8697,4703 8704,4708 8718,4711 8720,4717 8716,4728 8715,4739 8720,4745 8727,4746 8741,4749 8747,4753 8751,4770 8754,4774 8762,4775 8768,4770 8775,4765 8782,4766 8786,4777 8793,4789 8814,4795 8820,4800 8824,4806 8834,4817 8841,4820 8848,4821 8854,4824 8861,4825 8868,4830 8870,4836 8875,4847 8872,4853 8858,4862 8858,4868 8865,4873 8893,4884 8914,4888 8921,4889 8928,4893 8950,4922 8950,4927 8938,4934 8924,4937 8910,4946 8905,4952 8898,4963 8896,4980 8897,4986 8897,4997 8900,5008 8905,5014 8926,5027 8936,5042 8939,5054 8939,5061 8938,5067 8938,5084 8942,5095 8954,5106 8968,5114 8973,5119 8977,5125 8994,5148 9008,5170 9013,5176 9027,5182 9048,5192 9062,5201 9083,5218 9091,5229 9100,5252 9104,5257 9110,5268 9114,5291 9117,5313 9117,5321 9119,5347 9124,5358 9140,5381 9147,5385 9154,5388 9161,5392 9167,5404 9171,5415 9171,5426 9165,5432 9158,5433 9147,5434 9144,5434 9137,5437 9135,5443 9135,5449 9137,5454 9142,5465 9143,5477 9146,5488 9150,5494 9156,5496 9163,5496 9184,5486 9198,5480 9212,5480 9219,5482 9226,5487 9231,5493 9238,5504 9240,5515 9241,5536 9244,5541 9249,5547 9263,5553 9277,5558 9291,5565 9326,5585 9340,5595 9342,5601 9339,5612 9330,5629 9318,5638 9297,5645 9283,5655 9281,5660 9288,5672 9301,5683 9305,5689 9311,5700 9311,5711 9306,5726 9302,5737 9301,5748 9300,5760 9304,5771 9318,5779 9338,5777 9345,5775 9352,5775 9359,5777 9368,5789 9382,5800 9396,5807 9399,5810 9415,5800 9434,5792 9443,5783 9442,5773 9440,5760 9458,5755 9475,5755 9475,5768 9487,5773 9507,5766 9530,5753 9556,5753 9580,5762 9599,5773 9614,5775 9616,5764 9612,5738 9616,5695 9620,5670 9635,5655 9646,5650 9659,5657 9682,5665 9704,5663 9712,5653 9727,5644 9745,5648 9770,5659 9787,5667 9800,5663 9800,5652 9805,5637 9824,5631 9837,5629 9845,5616 9850,5603 9860,5601 9873,5605 9893,5607 9897,5597 9893,5584 9892,5573 9901,5575 9918,5593 9937,5612 9942,5635 9942,5659 9942,5670 9957,5680 9982,5689 9993,5682 10008,5663 10030,5658 10055,5680 10081,5704 10107,5723 10132,5740 10173,5742 10205,5734 10238,5719 10272,5706 10308,5697 10332,5689 10355,5667 10383,5653 10409,5657 10435,5665 10447,5655 10456,5642 10473,5627 10469,5616 10460,5607 10454,5593 10463,5582 10492,5582 10529,5588 10565,5595 10585,5593 10600,5580 10617,5573 10640,5577 10660,5571 10687,5560 10702,5552 10707,5541 10705,5530 10713,5520 10728,5526 10735,5543 10750,5554 10771,5567 10786,5580 10784,5586 10786,5600 10788,5620 10788,5644 10784,5652 10784,5660 10780,5668 10780,5674 10776,5694 10786,5708 10792,5714 10800,5718 10818,5722 10836,5726 10864,5750 10882,5762 10894,5776 10906,5786 10908,5796 10890,5800 10834,5806 10818,5808 10806,5816 10806,5826 10818,5834 10848,5850 10854,5860 10856,5868 10848,5880 10828,5898 10788,5906 10740,5904 10712,5904 10688,5896 10678,5892 10642,5870 10584,5826 10556,5814 10544,5810 10538,5810 10536,5824 10538,5878 10536,5898 10530,5908 10526,5910 10520,5914 10504,5912 10500,5908 10494,5902 10452,5856 10410,5818 10394,5812 10386,5810 10382,5810 10374,5816 10368,5822 10368,5826 10366,5830 10376,5864 10416,5908 10410,5940 10414,5948 10436,5964 10462,5972 10492,5970 10512,5960 10524,5956 10540,5956 10552,5960 10560,5962 10566,5968 10642,6046 10650,6060 10650,6064 10642,6076 10624,6090 10616,6096 10618,6100 10613,6103 10616,6120 10604,6130 10587,6139 10574,6147 10567,6150 10548,6150 10523,6146 10503,6138 10456,6125 10434,6120 10414,6121 10406,6126 10388,6131 10372,6132 10352,6140 10341,6148 10325,6168 10315,6193 10305,6202 10297,6203 10271,6199 10254,6195 10248,6196 10245,6199 10243,6214 10239,6235 10230,6249 10217,6263 10210,6268 10203,6269 10191,6271 10174,6273 10141,6287 10119,6301 10113,6315 10113,6322 10115,6327 10122,6331 10127,6334 10133,6343 10137,6373 10141,6400 10141,6444 10146,6448 10152,6447 10170,6438 10195,6411 10201,6410 10201,6418 10163,6475 10143,6517 10134,6552 10131,6587 10135,6639 10130,6647 10122,6650 10111,6649 10103,6645 10073,6639 10060,6642 10048,6650 10036,6662 10003,6664 9987,6658 9975,6645 9965,6641 9958,6645 9948,6672 9926,6745 9920,6774 9911,6786 9899,6792 9883,6794 9856,6790 9817,6780 9800,6781 9789,6786 9728,6822 9696,6838 9609,6905 9579,6929 9563,6949 9554,6977 9546,6990 9534,6997 9511,7003 9492,7004 9469,7009 9453,7014 9433,7021 9353,7039 9317,7052 9267,7075 9240,7076 9227,7076 9195,7073 9172,7079 9140,7092 9106,7118 9086,7122 9039,7096 9014,7078 8987,7041 8976,7038 8958,7038 8950,7039 8944,7051 8943,7069 8940,7073 8933,7074 8901,7061 8880,7053 8867,7045 8852,7035 8841,7033 8834,7034 8814,7043 8789,7049 8764,7059 8750,7063 8732,7064 8708,7061 8690,7059 8671,7063 8658,7070 8654,7076 8654,7079 8655,7083 8654,7089 8651,7091 8647,7092 8645,7092 8643,7089 8640,7087 8635,7087 8634,7089 8635,7090 8637,7093 8639,7100 8641,7103 8640,7105 8636,7107 8633,7107 8630,7105 8627,7104 8623,7102 8619,7101 8619,7105 8620,7110 8616,7111 8613,7108 8610,7107 8607,7109 8605,7111 8602,7109 8598,7106 8595,7106 8592,7109 8589,7113 8587,7118 8586,7125 8587,7135 8589,7139 8592,7143 8589,7145 8585,7147 8579,7148 8575,7145 8571,7142 8566,7139 8562,7139 8559,7142 8556,7149 8554,7155 8551,7159 8548,7163 8541,7165 8536,7164 8530,7161 8523,7159 8513,7157 8501,7157 8494,7155 8491,7152 8487,7146 8482,7142 8476,7138 8467,7136 8461,7137 8458,7140 8454,7146 8452,7153 8449,7161 8437,7178 8435,7184 8435,7190 8432,7194 8427,7194 8423,7196 8416,7201 8406,7209 8403,7216 8400,7222 8399,7231 8397,7248 8401,7258 8406,7268 8412,7277 8416,7283 8423,7287 8430,7289 8440,7298 8444,7305 8449,7311 8454,7316 8456,7319 8459,7324 8460,7329 8458,7337 8458,7347 8463,7359 8466,7365 8474,7375 8476,7379 8479,7383 8479,7387 8478,7390 8478,7393 8474,7400 8472,7406 8475,7409 8478,7412 8482,7417 8483,7420 8482,7424 8480,7428 8481,7431 8483,7437 8486,7444 8491,7452 8494,7457 8495,7461 8496,7476 8496,7480 8498,7483 8503,7484 8506,7485 8510,7487 8513,7490 8514,7494 8514,7497 8514,7507 8515,7512 8517,7516 8523,7518 8527,7519 8535,7523 8536,7526 8533,7531 8532,7534 8529,7539 8529,7544 8532,7547 8537,7551 8541,7556 8541,7560 8541,7564 8542,7567 8544,7570 8545,7574 8545,7580 8545,7585 8548,7590 8553,7594 8557,7597 8558,7603 8560,7607 8562,7612 8565,7616 8569,7622 8573,7634 8575,7642 8575,7650 8575,7656 8575,7665 8576,7671 8574,7691 8576,7697 8582,7703 8589,7703 8596,7703 8602,7704 8603,7707 8603,7714 8603,7720 8603,7727 8602,7733 8599,7735 8595,7735 8589,7734 8582,7735 8575,7735 8567,7735 8557,7735 8547,7730 8537,7730 8527,7733 8525,7730 8524,7708 8523,7699 8514,7692 8504,7684 8490,7678 8476,7675 8462,7673 8453,7670 8443,7664 8433,7662 8418,7659 8414,7657 8405,7649 8394,7639 8376,7626 8344,7618 8316,7609 8299,7604 8286,7599 8273,7593 8265,7589 8259,7587 8251,7585 8245,7585 8228,7588 8218,7588 8211,7590 8204,7594 8199,7597 8195,7601 8191,7603 8188,7606 8188,7609 8188,7613 8187,7617 8181,7617 8177,7614 8175,7609 8168,7597 8164,7590 8162,7586 8159,7582 8156,7581 8153,7583 8152,7586 8151,7593 8151,7598 8150,7602 8147,7605 8143,7605 8138,7602 8134,7599 8130,7596 8124,7592 8114,7593 8099,7596 8081,7595 8071,7597 8061,7597 8053,7595 8049,7595 8042,7594 8039,7591 8034,7587 8030,7583 8027,7582 8025,7585 8024,7589 8024,7594 8023,7600 8023,7615 8018,7616 8010,7614 8004,7610 7996,7609 7987,7611 7982,7614 7980,7617 7979,7624 7978,7631 7976,7644 7972,7657 7968,7663 7965,7666 7963,7674 7961,7685 7962,7696 7967,7703 7972,7710 7978,7715 7981,7719 7983,7725 7985,7741 7983,7745 7980,7747 7978,7750 7976,7754 7977,7758 7979,7762 7983,7769 7986,7774 7989,7783 7985,7785 7982,7785 7975,7785 7968,7785 7963,7786 7955,7785 7949,7785 7944,7787 7943,7790 7942,7794 7941,7799 7938,7804 7928,7820 7923,7827 7918,7833 7914,7839 7911,7844 7908,7849 7904,7853 7900,7855 7887,7855 7883,7855 7872,7863 7866,7868 7863,7876 7863,7884 7861,7890 7855,7898 7849,7902 7847,7911 7847,7919 7849,7927 7852,7933 7851,7938 7847,7939 7841,7942 7834,7943 7827,7948 7822,7954 7816,7960 7809,7967 7801,7970 7791,7975 7786,7976 7779,7978 7772,7978 7764,7980 7758,7983 7755,7987 7754,7992 7751,7996 7748,8000 7743,8005 7727,8018 7720,8023 7717,8027 7714,8031 7706,8041 7701,8047 7700,8052 7696,8056 7693,8057 7688,8059 7679,8062 7676,8067 7672,8072 7668,8076 7665,8079 7660,8083 7657,8088 7653,8088 7650,8086 7640,8079 7637,8075 7625,8066 7623,8060 7620,8053 7617,8048 7616,8044 7619,8039 7621,8035 7622,8028 7619,8018 7615,8011 7607,8005 7598,7999 7595,7994 7586,7989 7579,7989 7564,7996 7558,7998 7554,8000 7550,8005 7546,8005 7542,8004 7530,8002 7525,8004 7520,8006 7516,8006 7513,8005 7506,8002 7498,8002 7492,8006 7485,8007 7480,8008 7472,8007 7467,8007 7464,8002 7459,7998 7454,7995 7448,7995 7441,7997 7437,8002 7429,8004 7422,8005 7412,8006 7403,8010 7397,8015 7392,8021 7389,8028 7386,8032 7382,8031 7377,8031 7365,8031 7358,8031 7355,8030 7353,8026 7348,8021 7345,8017 7350,8012 7361,8002 7361,7998 7365,7991 7372,7987 7382,7984 7390,7982 7401,7974 7403,7967 7404,7961 7416,7955 7425,7951 7432,7945 7439,7935 7449,7931 7454,7925 7444,7917 7438,7914 7440,7911 7448,7907 7453,7906 7454,7903 7454,7900 7451,7899 7445,7897 7442,7894 7439,7890 7436,7886 7430,7878 7432,7869 7434,7859 7434,7852 7432,7847 7429,7841 7423,7835 7418,7829 7410,7820 7398,7818 7382,7815 7372,7814 7367,7810 7362,7803 7352,7795 7345,7795 7330,7797 7320,7800 7308,7805 7297,7813 7294,7825 7284,7830 7273,7832 7241,7826 7228,7826 7214,7825 7201,7823 7187,7820 7165,7824 7151,7833 7140,7842 7116,7861 7101,7863 7088,7869 7084,7877 7082,7888 7077,7898 7066,7907 7050,7918 7037,7928 7028,7939 7020,7945 7012,7948 7006,7947 6996,7946 6993,7948 6984,7955 6979,7956 6975,7952 6972,7943 6970,7933 6969,7926 6960,7919 6944,7911 6934,7906 6924,7906 6910,7899 6895,7894 6875,7893 6864,7888 6861,7880 6859,7872 6858,7862 6852,7856 6840,7857 6825,7851 6822,7843 6822,7837 6813,7830 6801,7825 6786,7817 6787,7811 6793,7803 6792,7798 6781,7791 6770,7784 6761,7779 6758,7773 6757,7762 6745,7755 6736,7748 6726,7743 6714,7737 6707,7734 6706,7731 6701,7726 6694,7724 6685,7722 6684,7719 6688,7711 6688,7701 6685,7694 6680,7685 6667,7668 6655,7655 6647,7647 6637,7644 6627,7641 6616,7635 6606,7624 6596,7612 6595,7606 6596,7586 6596,7573 6594,7566 6592,7561 6586,7556 6584,7552 6583,7549 6582,7545 6579,7543 6575,7542 6571,7541 6564,7541 6557,7541 6550,7540 6546,7539 6542,7536 6538,7534 6534,7534 6530,7534 6525,7533 6523,7529 6522,7525 6519,7524 6509,7521 6504,7518 6500,7517 6496,7517 6488,7521 6483,7523 6479,7523 6474,7524 6471,7524 6467,7524 6463,7524 6459,7525 6455,7531 6454,7534 6451,7538 6446,7540 6443,7542 6436,7548 6430,7548 6427,7546 6423,7545 6420,7545 6416,7546 6413,7546 6406,7547 6403,7549 6400,7551 6399,7554 6394,7566 6392,7572 6392,7576 6390,7579 6386,7579 6383,7579 6377,7584 6373,7592 6368,7597 6363,7603 6359,7611 6356,7615 6353,7617 6349,7618 6346,7618 6340,7619 6337,7621 6335,7625 6333,7629 6330,7628 6329,7625 6327,7621 6323,7620 6316,7619 6313,7618 6311,7614 6307,7611 6301,7609 6296,7607 6295,7612 6291,7613 6288,7613 6281,7613 6279,7616 6278,7619 6276,7622 6273,7625 6269,7625 6264,7623 6261,7619 6257,7621 6251,7629 6248,7631 6247,7635 6247,7645 6245,7646 6242,7647 6237,7647 6233,7645 6229,7645 6226,7645 6223,7645 6219,7645 6216,7645 6211,7645 6208,7647 6208,7651 6206,7655 6206,7658 6205,7663 6202,7664 6198,7663 6195,7662 6191,7659 6188,7660 6185,7662 6181,7663 6178,7664 6173,7665 6168,7669 6162,7674 6157,7678 6153,7681 6149,7683 6144,7680 6141,7678 6140,7675 6135,7670 6131,7666 6127,7663 6122,7662 6119,7662 6116,7663 6114,7666 6113,7669 6109,7676 6105,7682 6097,7686 6092,7687 6087,7690 6083,7695 6083,7700 6079,7705 6074,7710 6069,7714 6063,7721 6055,7732 6052,7733 6048,7734 6045,7735 6043,7738 6043,7742 6041,7745 6039,7748 6036,7750 6033,7749 6027,7745 6023,7743 6020,7744 6016,7744 6013,7743 5999,7724 5981,7690 5969,7670 5963,7644 5951,7630 5921,7612 5885,7596 5871,7590 5861,7582 5857,7560 5853,7530 5857,7490 5859,7480 5881,7458 5887,7426 5865,7382 5867,7358 5879,7340 5895,7324 5901,7318 5915,7318 5929,7316 5941,7298 5945,7258 5945,7236 5893,7178 5861,7152 5847,7128 5843,7110 5843,7096 5837,7086 5819,7078 5799,7076 5717,7064 5693,7052 5689,7044 5683,7032 5671,7006 5657,6990 5645,6976 5629,6958 5619,6948 5609,6934 5597,6912 5573,6866 5563,6854 5571,6846 5597,6852 5621,6852 5635,6848 5655,6808 5649,6796 5633,6782 5619,6778 5597,6776 5569,6774 5565,6760 5543,6652 5547,6606 5559,6580 5561,6576 5555,6546 5519,6530 5487,6494 5457,6498 5415,6510 5413,6518 5415,6540 5407,6542 5399,6542 5389,6538 5375,6516 5371,6504 5373,6486 5389,6456 5413,6414 5415,6396 5409,6382 5395,6362 5391,6350 5395,6324 5403,6310 5401,6298 5403,6282 5397,6260 5391,6244 5369,6210 5331,6172 5299,6144 5283,6130 5263,6110 5249,6106 5231,6096 5221,6086 5193,6052 5177,6028 5169,6018 5155,6018 5133,6028 5101,6052 5087,6068 5075,6078 5063,6080 5049,6070 5025,6068 4999,6070 4989,6074 4973,6086 4963,6084 4947,6070 4937,6058 4931,6050 4921,6038 4905,6032 4893,6028 4859,6030 4857,6026 4857,5994 4844,5977 4825,5968 4811,5960 4805,5948 4811,5938 4823,5930 4841,5920 4875,5912 4893,5906 4919,5894 4935,5886 4939,5882 4941,5876 4939,5856 4921,5798 4901,5778 4891,5752 4897,5742 4915,5730 4911,5720 4895,5706 4887,5702 4879,5696 4869,5688 4861,5686 4857,5686 4843,5688 4819,5688 4805,5684 4781,5646 4777,5632 4773,5582 4769,5570 4749,5568 4729,5566 4699,5558 4669,5550 4663,5544 4663,5532 4667,5514 4671,5496 4677,5470 4683,5436 4691,5422 4703,5408 4703,5396 4697,5384 4653,5352 4639,5344 4625,5336 4613,5324 4601,5308 4587,5276 4571,5232 4567,5214 4565,5190 4574,5169 4604,5173 4624,5172 4655,5164 4665,5164 4676,5174 4695,5193 4705,5198 4715,5199 4731,5196 4750,5198 4766,5210 4786,5218 4793,5219 4802,5217 4818,5207 4824,5206 4840,5210 4876,5227 4917,5245 4949,5258 4959,5260 4976,5265 4988,5262 4999,5252 5021,5224 5043,5198 5073,5165 5086,5155 5097,5154 5110,5148 5117,5124 5124,5117 5127,5116 5134,5124 5139,5141 5138,5149 5136,5160 5136,5171 5138,5187 5145,5199 5152,5206 5178,5230 5179,5233 5179,5237 5179,5258 5182,5277 5190,5308 5194,5309 5202,5310 5221,5306 5248,5306 5262,5309 5269,5313 5274,5318 5280,5329 5286,5336 5333,5378 5347,5382 5362,5379 5375,5372 5382,5347 5391,5328 5422,5291 5505,5216 5568,5183 5580,5171 5579,5163 5562,5156 5549,5139 5552,5126 5583,5105 5624,5061 5637,5058 5664,5060 5677,5063 5701,5076 5755,5112 5787,5123 5815,5128 5835,5124 5850,5104 5867,5062 5890,5041 5938,5019 5998,4976 6038,4939 6079,4905 6108,4887 6132,4865 6138,4866 6165,4891 6175,4904 6183,4910 6192,4916 6210,4937 6220,4940 6235,4937 6250,4937 6268,4930 6279,4926 6286,4919 6297,4906 6311,4898 6339,4884 6359,4878 6381,4877 6392,4875 6401,4869 6405,4863 6414,4863 6408,4855 6397,4852 6392,4849 6386,4844 6383,4834 6376,4802 6379,4773 6385,4759 6393,4753 6406,4744 6418,4743 6476,4756 6510,4767 6535,4780 6552,4799 6564,4804 6573,4805 6593,4786 6601,4786 6611,4790 6631,4807 6639,4809 6642,4809 6650,4804 6662,4802 6672,4799 6690,4783 6707,4780 6716,4777 6721,4769 6731,4762 6764,4741 6788,4738 6849,4735 6866,4733 6869,4729 6877,4716 6892,4705 6922,4694 6948,4665 6964,4652 6984,4644 6989,4637 6973,4620 6959,4596 6957,4585 6953,4563 6952,4554 6952,4532 6962,4493 6969,4485 6986,4476 7004,4472 7013,4467 7021,4457 7026,4452 7021,4425 7023,4408 7028,4380 7033,4371 7038,4372 7043,4374 7064,4403 7085,4428 7099,4450 7108,4495 7115,4515 7118,4517 7133,4518 7148,4520 7166,4525 7199,4541 7230,4562 7256,4593 7262,4600 7283,4624 7289,4624 7302,4616 7342,4582 7359,4570 7369,4572 7383,4588 7390,4597 7396,4599 7407,4601 7423,4600 7429,4601 7453,4596 7469,4593 7486,4596 7503,4596 7514,4589 7530,4576 7569,4562 7599,4557 7637,4565 7651,4574 7669,4588 7676,4615 7676,4650 7688,4681 7697,4685 7712,4684 7736,4667 7745,4629 7745,4588 7754,4552 7769,4542 7840,4520 7859,4508 7860,4486 7871,4480 7897,4475 7917,4470 7928,4462 7931,4454 7927,4438 7927,4423 7935,4416 7969,4399 7989,4383 8028,4342 8054,4307 8046,4294 8045,4286 8072,4273 8097,4248 8099,4234 8096,4224 8026,4155 7997,4111 8006,4103 8017,4097 8029,4096 8043,4103 8049,4110 8055,4117 8070,4119 8081,4110 8101,4108 8111,4104 8118,4096 8154,4074 8175,4064 8178,4055 8175,4047 8175,4034 8198,4020 8205,4012 8209,4018 " class="polyStyle" id="640522" style="fill:#f6f67b"/>
<polygon points="7862,1 7879,1 7928,10 7944,14 7968,20 7982,20 8004,18 8018,15 8028,11 8038,6 8054,3 8061,8 8062,17 8061,29 8062,40 8064,51 8066,65 8055,80 8042,90 8028,106 8000,129 8000,141 8000,158 7999,173 7999,194 8002,222 8000,242 7997,263 7998,279 7996,303 7991,316 7985,333 7985,346 7978,365 7972,373 7965,383 7958,399 7965,413 7968,437 7962,447 7952,453 7951,464 7961,469 7977,476 7986,482 7988,495 7995,513 8006,526 8017,541 8025,556 8023,567 8016,575 8004,583 7992,591 7982,600 7974,610 7967,621 7969,624 8077,630 8082,628 8088,621 8091,609 8092,589 8100,566 8107,553 8139,519 8149,502 8158,485 8169,478 8181,469 8187,462 8208,427 8216,401 8217,386 8211,374 8208,355 8210,350 8226,352 8240,362 8250,373 8258,385 8265,393 8285,402 8312,412 8334,412 8345,412 8384,402 8411,402 8443,402 8461,408 8473,419 8493,425 8504,427 8553,424 8581,425 8592,430 8602,447 8612,458 8625,463 8647,466 8664,472 8676,482 8682,508 8681,537 8668,553 8664,574 8666,600 8673,624 8676,634 8671,641 8664,649 8659,651 8657,653 8642,652 8597,647 8581,656 8571,665 8565,687 8559,703 8560,717 8567,731 8575,748 8598,779 8619,796 8635,813 8665,841 8688,865 8703,880 8719,895 8728,901 8728,905 8723,905 8711,901 8702,908 8704,914 8714,928 8726,934 8741,946 8750,951 8772,951 8787,951 8812,955 8833,963 8854,974 8864,991 8878,1011 8887,1024 8906,1038 8923,1055 8929,1063 8927,1068 8916,1071 8903,1071 8896,1068 8886,1069 8848,1077 8835,1081 8820,1091 8814,1102 8805,1111 8797,1117 8786,1117 8769,1114 8757,1105 8742,1104 8738,1106 8728,1113 8723,1123 8723,1131 8718,1149 8713,1160 8698,1167 8678,1175 8668,1181 8652,1197 8644,1204 8633,1207 8630,1211 8631,1222 8626,1233 8618,1246 8617,1262 8614,1277 8605,1287 8587,1309 8574,1315 8556,1317 8548,1324 8535,1332 8527,1333 8517,1329 8503,1320 8486,1313 8469,1312 8459,1317 8451,1322 8432,1329 8421,1330 8410,1331 8405,1331 8390,1330 8374,1327 8365,1324 8356,1325 8348,1329 8337,1334 8330,1338 8329,1342 8331,1346 8346,1351 8360,1355 8368,1358 8376,1357 8386,1355 8392,1358 8402,1368 8424,1381 8434,1392 8440,1400 8443,1408 8451,1420 8457,1427 8463,1433 8471,1440 8468,1443 8455,1444 8405,1451 8244,1468 8239,1470 8238,1474 8238,1481 8239,1490 8245,1524 8244,1532 8237,1542 8228,1560 8218,1563 8204,1561 8193,1563 8183,1570 8174,1575 8169,1573 8166,1568 8161,1561 8152,1557 8139,1549 8131,1543 8120,1542 8113,1543 8100,1547 8030,1566 8005,1570 7984,1575 7973,1583 7957,1596 7945,1607 7933,1621 7933,1626 7937,1634 7959,1671 7973,1691 7983,1708 7984,1727 7976,1735 7957,1734 7923,1735 7901,1733 7863,1728 7836,1724 7805,1717 7793,1718 7787,1726 7787,1736 7785,1744 7777,1770 7767,1786 7771,1793 7783,1801 7797,1814 7817,1826 7862,1847 7888,1864 7916,1877 7939,1885 7973,1892 8000,1897 8023,1907 8053,1922 8083,1940 8107,1942 8124,1940 8137,1941 8156,1952 8175,1961 8197,1969 8205,1980 8227,2000 8252,2017 8273,2038 8274,2058 8270,2072 8260,2094 8235,2120 8218,2137 8183,2161 8138,2156 7742,2123 7562,2110 7550,2109 7533,2107 7525,2107 7520,2112 7517,2121 7514,2131 7511,2144 7496,2155 7486,2161 7478,2165 7469,2164 7460,2165 7452,2170 7442,2179 7430,2193 7417,2199 7407,2200 7390,2203 7365,2212 7349,2216 7330,2218 7314,2223 7298,2228 7277,2235 7255,2242 7241,2245 7229,2251 7228,2256 7233,2261 7240,2269 7248,2277 7268,2306 7281,2326 7290,2342 7299,2366 7304,2386 7320,2407 7329,2434 7339,2463 7341,2474 7360,2499 7382,2512 7397,2533 7400,2556 7407,2573 7413,2587 7416,2600 7423,2612 7432,2617 7437,2617 7446,2620 7451,2623 7462,2630 7469,2634 7471,2639 7470,2644 7468,2648 7465,2652 7460,2655 7453,2655 7448,2654 7442,2654 7437,2658 7428,2669 7428,2674 7432,2682 7435,2689 7439,2694 7446,2694 7456,2696 7459,2699 7457,2702 7453,2705 7448,2708 7431,2718 7424,2724 7413,2729 7401,2734 7391,2738 7380,2740 7367,2741 7353,2741 7330,2742 7321,2742 7312,2743 7304,2748 7296,2752 7290,2753 7278,2750 7266,2751 7259,2753 7239,2759 7224,2759 7197,2758 7177,2758 7152,2762 7129,2763 7118,2763 7116,2754 7114,2742 7091,2714 7077,2704 7047,2679 7018,2659 7009,2649 7004,2633 6990,2625 6976,2618 6976,2614 6979,2606 6990,2596 6996,2588 6997,2579 6998,2571 7003,2562 7013,2553 7020,2548 7024,2544 7025,2537 7025,2527 7026,2505 7017,2491 7007,2476 7004,2464 6989,2424 6978,2410 6969,2401 6959,2396 6950,2392 6951,2385 6949,2377 6947,2368 6935,2359 6934,2354 6939,2348 6957,2346 6961,2344 6961,2341 6958,2333 6949,2326 6937,2316 6929,2315 6925,2319 6917,2325 6906,2341 6897,2351 6894,2356 6886,2360 6875,2365 6865,2368 6827,2389 6817,2395 6802,2403 6791,2413 6780,2425 6771,2436 6738,2466 6706,2492 6676,2507 6655,2526 6620,2556 6600,2572 6583,2585 6563,2588 6542,2592 6525,2592 6509,2592 6498,2589 6483,2589 6467,2590 6454,2594 6451,2604 6439,2610 6422,2614 6409,2614 6393,2613 6383,2611 6374,2610 6362,2611 6351,2616 6343,2620 6347,2622 6355,2623 6364,2624 6375,2626 6391,2632 6400,2638 6410,2644 6425,2659 6430,2678 6435,2686 6448,2696 6464,2703 6488,2709 6553,2712 6582,2707 6611,2707 6639,2710 6655,2717 6676,2724 6726,2746 6745,2751 6752,2749 6767,2746 6792,2745 6822,2744 6844,2743 6869,2739 6879,2740 6887,2748 6890,2760 6890,2783 6893,2796 6909,2804 6917,2818 6918,2840 6917,2863 6911,2881 6899,2896 6901,2920 6908,2942 6922,2978 6932,3004 6949,3028 6972,3062 7007,3084 7038,3098 7079,3106 7109,3116 7134,3133 7227,3217 7261,3250 7297,3272 7347,3272 7417,3272 7446,3273 7462,3282 7479,3307 7490,3326 7535,3403 7573,3459 7607,3510 7704,3665 7727,3698 7739,3720 7760,3754 7766,3764 7797,3797 7793,3797 7790,3797 7786,3798 7783,3799 7782,3802 7775,3806 7770,3807 7765,3808 7762,3808 7759,3808 7757,3810 7754,3813 7751,3814 7747,3815 7744,3818 7741,3819 7737,3820 7733,3821 7730,3823 7728,3826 7725,3826 7721,3826 7720,3829 7717,3831 7717,3834 7715,3837 7712,3839 7711,3842 7709,3845 7708,3848 7707,3853 7708,3857 7710,3861 7710,3866 7707,3869 7707,3872 7707,3878 7711,3885 7714,3899 7714,3902 7711,3905 7707,3908 7702,3911 7702,3920 7700,3924 7694,3932 7690,3937 7683,3943 7679,3945 7673,3953 7663,3960 7654,3964 7649,3966 7642,3967 7631,3968 7626,3969 7623,3974 7619,3980 7611,3987 7606,3991 7600,3992 7593,3994 7586,3996 7583,3997 7580,3998 7577,4003 7576,4006 7573,4008 7566,4011 7550,4020 7531,4030 7524,4034 7518,4037 7513,4041 7510,4044 7507,4047 7505,4048 7501,4049 7498,4049 7494,4048 7487,4053 7480,4059 7476,4066 7475,4074 7473,4080 7473,4085 7471,4090 7466,4093 7460,4093 7455,4093 7450,4093 7445,4096 7440,4098 7436,4099 7430,4100 7423,4103 7417,4108 7411,4115 7403,4120 7397,4125 7394,4129 7392,4137 7392,4141 7393,4146 7395,4152 7397,4157 7393,4158 7389,4157 7385,4157 7381,4157 7378,4156 7373,4155 7368,4152 7364,4151 7356,4151 7353,4151 7346,4150 7343,4148 7340,4147 7337,4143 7333,4137 7324,4131 7316,4128 7309,4126 7299,4124 7295,4124 7292,4125 7289,4124 7286,4124 7283,4124 7280,4125 7279,4127 7277,4127 7274,4125 7270,4121 7267,4119 7263,4118 7261,4116 7259,4114 7251,4110 7247,4111 7264,4129 7284,4144 7329,4172 7352,4198 7353,4206 7330,4235 7289,4278 7282,4299 7290,4324 7299,4355 7296,4374 7286,4380 7275,4384 7255,4386 7246,4390 7238,4409 7236,4434 7239,4469 7242,4498 7250,4533 7270,4570 7268,4580 7264,4589 7256,4593 7230,4562 7199,4541 7166,4525 7148,4520 7133,4518 7118,4517 7115,4515 7108,4495 7099,4450 7085,4428 7064,4403 7043,4374 7038,4372 7033,4371 7028,4380 7023,4408 7021,4425 7026,4452 7021,4457 7013,4467 7004,4472 6986,4476 6969,4485 6962,4493 6952,4532 6952,4554 6953,4563 6937,4560 6907,4557 6898,4552 6876,4531 6857,4497 6850,4493 6834,4493 6817,4499 6810,4506 6804,4509 6795,4513 6785,4512 6774,4511 6768,4511 6762,4514 6754,4519 6743,4524 6735,4526 6712,4524 6686,4529 6636,4517 6591,4510 6573,4500 6548,4468 6530,4442 6504,4413 6469,4392 6428,4372 6420,4365 6412,4361 6400,4357 6388,4358 6379,4355 6366,4352 6356,4344 6335,4334 6322,4320 6302,4296 6274,4272 6247,4251 6224,4223 6208,4213 6178,4206 6163,4206 6147,4207 6138,4210 6134,4213 6131,4218 6131,4230 6127,4238 6122,4245 6108,4246 6101,4247 6100,4253 6101,4259 6099,4262 6096,4264 6093,4264 6087,4263 6062,4252 6051,4246 6041,4241 6036,4243 6035,4246 6035,4250 6035,4257 6043,4271 6041,4283 6036,4293 6028,4304 6019,4305 5992,4298 5970,4288 5938,4269 5924,4265 5906,4265 5887,4270 5854,4282 5848,4282 5842,4280 5835,4273 5829,4264 5821,4258 5803,4250 5793,4251 5745,4241 5732,4236 5728,4231 5726,4215 5724,4207 5713,4203 5698,4202 5682,4207 5670,4212 5659,4219 5652,4225 5642,4228 5621,4229 5604,4233 5594,4243 5587,4247 5582,4251 5574,4253 5563,4253 5549,4252 5543,4252 5537,4253 5506,4279 5483,4295 5468,4305 5425,4311 5410,4312 5403,4307 5391,4281 5395,4244 5390,4237 5381,4234 5350,4222 5340,4213 5335,4206 5335,4200 5335,4191 5342,4161 5365,4136 5387,4109 5426,4044 5442,4014 5466,3967 5472,3921 5472,3905 5468,3884 5462,3886 5455,3888 5449,3888 5442,3890 5434,3893 5414,3899 5405,3902 5402,3903 5397,3904 5394,3903 5392,3900 5390,3896 5386,3893 5382,3889 5378,3883 5375,3878 5369,3872 5368,3865 5368,3862 5368,3858 5368,3855 5366,3849 5362,3845 5355,3841 5352,3838 5348,3835 5343,3833 5340,3833 5334,3833 5331,3833 5324,3831 5316,3827 5310,3825 5293,3822 5286,3818 5274,3813 5252,3802 5242,3796 5235,3792 5228,3786 5225,3784 5221,3781 5215,3778 5209,3775 5205,3772 5201,3770 5197,3770 5190,3769 5185,3767 5181,3764 5179,3759 5176,3756 5173,3753 5170,3749 5169,3742 5169,3737 5168,3731 5165,3727 5163,3724 5162,3720 5164,3707 5164,3702 5166,3698 5161,3687 5154,3675 5149,3669 5144,3658 5142,3650 5130,3616 5127,3607 5117,3588 5114,3582 5107,3577 5103,3573 5100,3572 5092,3571 5085,3571 5059,3572 5043,3576 5039,3585 5035,3592 5021,3601 5013,3602 5008,3597 5000,3587 5000,3584 4993,3550 4983,3518 4968,3468 4951,3429 4931,3399 4931,3396 4935,3394 4945,3396 4962,3399 4965,3399 4974,3398 4978,3396 5014,3366 5064,3316 5117,3262 5121,3255 5121,3248 5117,3244 5114,3237 5114,3230 5120,3219 5133,3191 5141,3184 5155,3185 5172,3183 5179,3174 5182,3173 5186,3176 5193,3183 5201,3192 5209,3199 5228,3200 5245,3198 5260,3196 5269,3200 5288,3204 5295,3204 5305,3204 5317,3202 5323,3197 5335,3181 5342,3175 5348,3168 5354,3162 5364,3154 5372,3147 5380,3141 5390,3135 5400,3130 5409,3127 5425,3120 5439,3115 5464,3109 5480,3105 5494,3102 5504,3099 5516,3097 5526,3096 5535,3095 5543,3093 5555,3092 5563,3093 5569,3095 5575,3098 5585,3103 5600,3112 5617,3119 5632,3126 5650,3132 5665,3138 5679,3143 5693,3145 5700,3145 5714,3141 5724,3138 5737,3135 5748,3134 5757,3133 5766,3134 5773,3134 5787,3131 5798,3128 5807,3124 5818,3118 5829,3112 5839,3105 5847,3103 5854,3101 5871,3099 5875,3096 5874,3093 5870,3082 5870,3072 5872,3066 5877,3054 5883,3040 5894,3023 5905,3010 5927,2985 5936,2979 5955,2977 5965,2979 5974,2978 5983,2973 5994,2962 6019,2907 6027,2868 6048,2825 6078,2786 6085,2780 6094,2768 6108,2753 6122,2740 6132,2724 6136,2704 6142,2682 6150,2662 6166,2643 6194,2596 6203,2570 6225,2558 6253,2544 6284,2526 6296,2518 6306,2499 6308,2482 6316,2455 6366,2392 6378,2366 6392,2340 6407,2307 6440,2264 6451,2246 6452,2228 6449,2221 6439,2220 6428,2219 6419,2210 6425,2186 6426,2166 6426,2150 6426,2129 6432,2119 6451,2107 6476,2091 6484,2069 6498,2052 6504,2030 6500,2013 6493,1989 6483,1974 6447,1952 6426,1941 6407,1927 6390,1909 6373,1883 6355,1862 6331,1849 6305,1835 6285,1818 6271,1802 6222,1768 6201,1755 6154,1745 6115,1733 6081,1720 6058,1710 6054,1689 6049,1672 6048,1587 6047,1559 6048,1540 6048,1527 6059,1526 6127,1518 6148,1518 6165,1515 6173,1512 6176,1511 6183,1506 6188,1499 6191,1490 6188,1488 6169,1486 6169,1468 6170,1433 6178,1432 6217,1441 6223,1441 6226,1435 6267,1371 6271,1366 6281,1367 6285,1367 6285,1365 6283,1362 6279,1361 6273,1357 6270,1355 6269,1352 6270,1348 6268,1344 6259,1331 6248,1321 6245,1314 6240,1308 6238,1303 6238,1298 6238,1293 6244,1282 6246,1273 6257,1265 6279,1265 6286,1263 6291,1258 6291,1253 6290,1249 6283,1246 6271,1245 6262,1243 6256,1237 6248,1232 6245,1230 6237,1229 6229,1227 6223,1226 6217,1224 6209,1222 6196,1219 6186,1216 6173,1211 6160,1209 6145,1207 6128,1202 6110,1198 6093,1195 6076,1194 6059,1199 6044,1197 6031,1195 6021,1200 6005,1205 5990,1206 5973,1205 5958,1211 5941,1217 5923,1220 5907,1221 5867,1216 5851,1209 5843,1196 5841,1182 5841,1166 5841,1162 5842,1149 5842,1138 5841,1126 5842,1113 5843,1100 5844,1096 5853,1079 5852,1071 5848,1063 5840,1046 5837,1037 5835,1024 5833,1019 5828,999 5826,990 5821,985 5808,981 5804,981 5799,979 5797,974 5797,969 5801,962 5799,959 5794,957 5788,952 5787,948 5787,945 5790,940 5793,936 5795,932 5797,929 5800,927 5808,925 5814,923 5829,921 5838,919 5841,917 5839,911 5838,905 5835,900 5838,895 5846,887 5849,883 5853,879 5857,875 5859,870 5859,865 5854,859 5844,852 5834,845 5827,839 5824,836 5823,830 5828,825 5831,820 5836,818 5842,816 5851,816 5859,818 5873,821 5879,824 5884,824 5890,823 5899,817 5902,814 5907,804 5909,796 5908,787 5904,781 5897,774 5891,765 5890,760 5891,753 5895,747 5897,741 5900,730 5898,716 5897,713 5894,699 5887,685 5886,682 5883,672 5883,663 5884,649 5887,633 5895,615 5902,605 5907,584 5906,568 5895,553 5889,543 5879,532 5865,518 5847,500 5849,490 5859,477 5871,467 5889,442 5893,437 5899,422 5902,413 5904,393 5901,361 5896,341 5885,327 5855,306 5814,286 5797,275 5792,268 5784,266 5776,267 5762,266 5762,264 5766,258 5818,197 5903,187 6079,195 6365,197 6427,197 6453,189 6475,187 6483,185 6547,169 6561,167 6563,165 6576,165 6639,164 6702,162 6773,153 6789,150 6800,148 6805,144 6807,136 6809,128 6814,122 6825,117 6869,99 6902,89 6948,75 6971,73 6991,70 7014,71 7036,71 7054,66 7069,58 7085,56 7107,55 7122,51 7131,45 7141,42 7155,44 7169,48 7187,51 7210,54 7228,56 7264,63 7280,63 7298,63 7325,62 7358,58 7416,37 7466,12 7474,7 7490,7 7498,10 7535,18 7558,19 7588,22 7616,27 7633,29 7657,24 7679,24 7712,35 7734,41 7758,46 7770,53 7776,57 7779,53 7816,5 7821,1 7828,0 7842,1 " class="polyStyle" id="640521" style="fill:#ee8b94"/>
<path d="" class="polyStyle" id="130121" style="fill:#ee8b94"/>
<path d="" class="polyStyle" id="610823" style="fill:#fbe6ef"/>
<path d="" class="polyStyle" id="130225" style="fill:#fbe6ef"/>
<path d="" class="polyStyle" id="130322" style="fill:#d4ecb2"/>
<path d="" class="polyStyle" id="653130" style="fill:#f6f67b"/>
<path d="" class="polyStyle" id="130822" style="fill:#fbe6ef"/>
<path d="" class="polyStyle" id="211221" style="fill:#f6f67b"/>
<path d="" class="polyStyle" id="210921" style="fill:#f6f67b"/>
<path d="" class="polyStyle" id="150223" style="fill:#f8c67d"/>
<path d="" class="polyStyle" id="220422" style="fill:#d4ecb2"/>
<path d="" class="polyStyle" id="340721" style="fill:#f6f67b"/>
<path d="" class="polyStyle" id="510824" style="fill:#d4ecb2"/>
<path d="" class="polyStyle" id="610324" style="fill:#f6f67b"/>
<path d="" class="polyStyle" id="530722" style="fill:#ee8b94"/>
<path d="" class="polyStyle" id="340823" style="fill:#d4ecb2"/>
<path d="" class="polyStyle" id="620825" style="fill:#d4ecb2"/>
<path d="" class="polyStyle" id="421125" style="fill:#ee8b94"/>
<path d="" class="polyStyle" id="210281" style="fill:#ee8b94"/>
<path d="" class="polyStyle" id="440883" style="fill:#f6f67b"/>
<path d="" class="polyStyle" id="469006" style="fill:#d4ecb2"/>
<path d="" class="polyStyle" id="469002" style="fill:#ee8b94"/>
<path d="" class="polyStyle" id="469005" style="fill:#fbe6ef"/>
<path d="" class="polyStyle" id="440882" style="fill:#ee8b94"/>
<path d="" class="polyStyle" id="450681" style="fill:#ee8b94"/>
<path d="" class="polyStyle" id="441581" style="fill:#d4ecb2"/>
<path d="" class="polyStyle" id="421087" style="fill:#ee8b94"/>
<path d="" class="polyStyle" id="420984" style="fill:#fbe6ef"/>
<path d="" class="polyStyle" id="420582" style="fill:#ee8b94"/>
<path d="" class="polyStyle" id="370282" style="fill:#f6f67b"/>
<path d="" class="polyStyle" id="371083" style="fill:#f6f67b"/>
<path d="" class="polyStyle" id="371082" style="fill:#fbe6ef"/>
<path d="" class="polyStyle" id="652801" style="fill:#f8c67d"/>
<path d="" class="polyStyle" id="654301" style="fill:#ee8b94"/>
<path d="" class="polyStyle" id="370687" style="fill:#ee8b94"/>
<path d="" class="polyStyle" id="371482" style="fill:#d4ecb2"/>
<path d="" class="polyStyle" id="421081" style="fill:#fbe6ef"/>
<path d="" class="polyStyle" id="429006" style="fill:#f6f67b"/>
<path d="" class="polyStyle" id="440982" style="fill:#d4ecb2"/>
<path d="" class="polyStyle" id="421181" style="fill:#d4ecb2"/>
<path d="" class="polyStyle" id="321181" style="fill:#d4ecb2"/>
<path d="" class="polyStyle" id="659007" style="fill:#ee8b94"/>
<path d="" class="polyStyle" id="652701" style="fill:#fbe6ef"/>
<path d="" class="polyStyle" id="210781" style="fill:#fbe6ef"/>
<path d="" class="polyStyle" id="460204" style="fill:#f6f67b"/>
<path d="" class="polyStyle" id="210211" style="fill:#f6f67b"/>
<path d="" class="polyStyle" id="450512" style="fill:#ee8b94"/>
<path d="" class="polyStyle" id="450602" style="fill:#fbe6ef"/>
<path d="" class="polyStyle" id="440404" style="fill:#ee8b94"/>
<path d="" class="polyStyle" id="440403" style="fill:#f6f67b"/>
<path d="" class="polyStyle" id="441502" style="fill:#f6f67b"/>
<path d="" class="polyStyle" id="431002" style="fill:#d4ecb2"/>
<path d="" class="polyStyle" id="500107" style="fill:#fbe6ef"/>
<path d="" class="polyStyle" id="430611" style="fill:#d4ecb2"/>
<path d="" class="polyStyle" id="511304" style="fill:#fbe6ef"/>
<path d="" class="polyStyle" id="340711" style="fill:#ee8b94"/>
<path d="" class="polyStyle" id="320118" style="fill:#f6f67b"/>
<path d="" class="polyStyle" id="510704" style="fill:#f6f67b"/>
<path d="" class="polyStyle" id="411502" style="fill:#ee8b94"/>
<path d="" class="polyStyle" id="320302" style="fill:#d4ecb2"/>
<polygon points="5805,199 5818,197 5766,258 5762,264 5762,266 5776,267 5784,266 5792,268 5797,275 5814,286 5855,306 5885,327 5896,341 5901,361 5904,393 5902,413 5899,422 5893,437 5889,442 5871,467 5859,477 5849,490 5847,500 5865,518 5879,532 5889,543 5895,553 5906,568 5907,584 5902,605 5895,615 5887,633 5884,649 5883,663 5883,672 5886,682 5887,685 5894,699 5897,713 5898,716 5900,730 5897,741 5895,747 5891,753 5890,760 5891,765 5897,774 5904,781 5908,787 5909,796 5907,804 5902,814 5899,817 5890,823 5884,824 5879,824 5873,821 5859,818 5851,816 5842,816 5836,818 5831,820 5828,825 5823,830 5824,836 5827,839 5834,845 5844,852 5854,859 5859,865 5859,870 5857,875 5853,879 5849,883 5846,887 5838,895 5835,900 5838,905 5839,911 5841,917 5838,919 5829,921 5814,923 5808,925 5800,927 5797,929 5795,932 5793,936 5790,940 5787,945 5787,948 5788,952 5794,957 5799,959 5801,962 5797,969 5797,974 5799,979 5804,981 5808,981 5821,985 5826,990 5828,999 5833,1019 5835,1024 5837,1037 5840,1046 5848,1063 5852,1071 5853,1079 5844,1096 5843,1100 5842,1113 5841,1126 5842,1138 5842,1149 5841,1162 5841,1166 5841,1182 5843,1196 5851,1209 5867,1216 5907,1221 5923,1220 5941,1217 5958,1211 5973,1205 5990,1206 6005,1205 6021,1200 6031,1195 6044,1197 6059,1199 6076,1194 6093,1195 6110,1198 6128,1202 6145,1207 6160,1209 6173,1211 6186,1216 6196,1219 6209,1222 6217,1224 6223,1226 6229,1227 6237,1229 6245,1230 6248,1232 6256,1237 6262,1243 6271,1245 6283,1246 6290,1249 6291,1253 6291,1258 6286,1263 6279,1265 6257,1265 6246,1273 6244,1282 6238,1293 6238,1298 6238,1303 6240,1308 6245,1314 6248,1321 6259,1331 6268,1344 6270,1348 6269,1352 6270,1355 6273,1357 6279,1361 6283,1362 6285,1365 6285,1367 6281,1367 6271,1366 6267,1371 6226,1435 6223,1441 6217,1441 6178,1432 6170,1433 6169,1468 6169,1486 6188,1488 6191,1490 6188,1499 6183,1506 6176,1511 6173,1512 6165,1515 6148,1518 6127,1518 6059,1526 6048,1527 6048,1540 6047,1559 6048,1587 6049,1672 6054,1689 6058,1710 6081,1720 6115,1733 6154,1745 6201,1755 6222,1768 6271,1802 6285,1818 6305,1835 6331,1849 6355,1862 6373,1883 6390,1909 6407,1927 6426,1941 6447,1952 6483,1974 6493,1989 6500,2013 6504,2030 6498,2052 6484,2069 6476,2091 6451,2107 6432,2119 6426,2129 6426,2150 6426,2166 6425,2186 6419,2210 6428,2219 6439,2220 6449,2221 6452,2228 6451,2246 6440,2264 6407,2307 6392,2340 6378,2366 6366,2392 6316,2455 6308,2482 6306,2499 6296,2518 6284,2526 6253,2544 6225,2558 6203,2570 6194,2596 6166,2643 6150,2662 6142,2682 6136,2704 6132,2724 6122,2740 6108,2753 6094,2768 6085,2780 6078,2786 6048,2825 6027,2868 6019,2907 5994,2962 5983,2973 5974,2978 5965,2979 5955,2977 5936,2979 5927,2985 5905,3010 5894,3023 5883,3040 5877,3054 5872,3066 5870,3072 5870,3082 5874,3093 5875,3096 5871,3099 5854,3101 5847,3103 5839,3105 5829,3112 5818,3118 5807,3124 5798,3128 5787,3131 5773,3134 5766,3134 5757,3133 5748,3134 5737,3135 5724,3138 5714,3141 5700,3145 5693,3145 5679,3143 5665,3138 5650,3132 5632,3126 5617,3119 5600,3112 5585,3103 5575,3098 5569,3095 5563,3093 5555,3092 5543,3093 5535,3095 5526,3096 5516,3097 5504,3099 5494,3102 5480,3105 5464,3109 5439,3115 5425,3120 5409,3127 5400,3130 5390,3135 5380,3141 5372,3147 5364,3154 5354,3162 5348,3168 5342,3175 5335,3181 5323,3197 5317,3202 5305,3204 5295,3204 5288,3204 5269,3200 5260,3196 5245,3198 5228,3200 5209,3199 5201,3192 5193,3183 5186,3176 5182,3173 5179,3174 5172,3183 5155,3185 5141,3184 5133,3191 5120,3219 5114,3230 5114,3237 5117,3244 5121,3248 5121,3255 5117,3262 5064,3316 5014,3366 4978,3396 4974,3398 4965,3399 4962,3399 4945,3396 4935,3394 4931,3396 4931,3399 4951,3429 4968,3468 4983,3518 4993,3550 5000,3584 5000,3587 5008,3597 5013,3602 5021,3601 5035,3592 5039,3585 5043,3576 5059,3572 5085,3571 5092,3571 5100,3572 5103,3573 5107,3577 5114,3582 5117,3588 5127,3607 5130,3616 5142,3650 5144,3658 5149,3669 5154,3675 5161,3687 5166,3698 5164,3702 5164,3707 5162,3720 5163,3724 5165,3727 5168,3731 5169,3737 5169,3742 5170,3749 5173,3753 5176,3756 5179,3759 5181,3764 5185,3767 5190,3769 5197,3770 5201,3770 5205,3772 5209,3775 5215,3778 5221,3781 5225,3784 5228,3786 5235,3792 5242,3796 5252,3802 5274,3813 5286,3818 5293,3822 5310,3825 5316,3827 5324,3831 5331,3833 5334,3833 5340,3833 5343,3833 5348,3835 5352,3838 5355,3841 5362,3845 5366,3849 5368,3855 5368,3858 5368,3862 5368,3865 5369,3872 5375,3878 5378,3883 5382,3889 5386,3893 5390,3896 5392,3900 5394,3903 5397,3904 5402,3903 5405,3902 5414,3899 5434,3893 5442,3890 5449,3888 5455,3888 5462,3886 5468,3884 5472,3905 5472,3921 5466,3967 5442,4014 5426,4044 5387,4109 5365,4136 5342,4161 5335,4191 5335,4200 5335,4206 5340,4213 5350,4222 5381,4234 5390,4237 5395,4244 5391,4281 5403,4307 5410,4312 5425,4311 5468,4305 5483,4295 5506,4279 5537,4253 5543,4252 5549,4252 5563,4253 5574,4253 5582,4251 5587,4247 5594,4243 5604,4233 5621,4229 5642,4228 5652,4225 5659,4219 5670,4212 5682,4207 5698,4202 5713,4203 5724,4207 5726,4215 5728,4231 5732,4236 5745,4241 5793,4251 5803,4250 5821,4258 5829,4264 5835,4273 5842,4280 5848,4282 5854,4282 5887,4270 5906,4265 5924,4265 5938,4269 5970,4288 5992,4298 6019,4305 6028,4304 6036,4293 6041,4283 6043,4271 6035,4257 6035,4250 6035,4246 6036,4243 6041,4241 6051,4246 6062,4252 6087,4263 6093,4264 6096,4264 6099,4262 6101,4259 6100,4253 6101,4247 6108,4246 6122,4245 6127,4238 6131,4230 6131,4218 6134,4213 6138,4210 6147,4207 6163,4206 6178,4206 6208,4213 6224,4223 6247,4251 6274,4272 6302,4296 6322,4320 6335,4334 6356,4344 6366,4352 6379,4355 6388,4358 6400,4357 6412,4361 6420,4365 6428,4372 6469,4392 6504,4413 6530,4442 6548,4468 6573,4500 6591,4510 6636,4517 6686,4529 6712,4524 6735,4526 6743,4524 6754,4519 6762,4514 6768,4511 6774,4511 6785,4512 6795,4513 6804,4509 6810,4506 6817,4499 6834,4493 6850,4493 6857,4497 6876,4531 6898,4552 6907,4557 6937,4560 6953,4563 6957,4585 6959,4596 6973,4620 6989,4637 6984,4644 6964,4652 6948,4665 6922,4694 6892,4705 6877,4716 6869,4729 6866,4733 6849,4735 6788,4738 6764,4741 6731,4762 6721,4769 6716,4777 6707,4780 6690,4783 6672,4799 6662,4802 6650,4804 6642,4809 6639,4809 6631,4807 6611,4790 6601,4786 6593,4786 6573,4805 6564,4804 6552,4799 6535,4780 6510,4767 6476,4756 6418,4743 6406,4744 6393,4753 6385,4759 6379,4773 6376,4802 6383,4834 6386,4844 6392,4849 6397,4852 6408,4855 6414,4863 6405,4863 6401,4869 6392,4875 6381,4877 6359,4878 6339,4884 6311,4898 6297,4906 6286,4919 6279,4926 6268,4930 6250,4937 6235,4937 6220,4940 6210,4937 6192,4916 6183,4910 6175,4904 6165,4891 6138,4866 6132,4865 6108,4887 6079,4905 6038,4939 5998,4976 5938,5019 5890,5041 5867,5062 5850,5104 5835,5124 5815,5128 5787,5123 5755,5112 5701,5076 5677,5063 5664,5060 5637,5058 5624,5061 5583,5105 5552,5126 5549,5139 5562,5156 5579,5163 5580,5171 5568,5183 5505,5216 5422,5291 5391,5328 5382,5347 5375,5372 5362,5379 5347,5382 5333,5378 5286,5336 5280,5329 5274,5318 5269,5313 5262,5309 5248,5306 5221,5306 5202,5310 5194,5309 5190,5308 5182,5277 5179,5258 5179,5237 5179,5233 5178,5230 5152,5206 5145,5199 5138,5187 5136,5171 5136,5160 5138,5149 5139,5141 5134,5124 5127,5116 5124,5117 5117,5124 5110,5148 5097,5154 5086,5155 5073,5165 5043,5198 5021,5224 4999,5252 4988,5262 4976,5265 4959,5260 4949,5258 4917,5245 4876,5227 4840,5210 4824,5206 4818,5207 4802,5217 4793,5219 4786,5218 4766,5210 4750,5198 4731,5196 4715,5199 4705,5198 4695,5193 4676,5174 4665,5164 4655,5164 4624,5172 4604,5173 4574,5169 4579,5162 4597,5144 4613,5126 4621,5108 4625,5100 4631,5090 4634,5077 4637,5064 4643,5052 4649,5050 4657,5046 4671,5042 4687,5040 4729,5040 4737,5040 4751,5038 4755,5030 4751,4998 4755,4990 4775,4988 4861,4994 4909,5004 4923,5000 4933,4962 4939,4938 4951,4934 4979,4938 5019,4946 5035,4952 5063,4972 5089,4986 5113,4994 5139,4990 5161,4982 5175,4974 5205,4946 5213,4924 5215,4900 5217,4890 5225,4882 5259,4878 5265,4866 5265,4854 5261,4840 5249,4818 5237,4778 5235,4720 5233,4684 5227,4670 5221,4666 5199,4674 5189,4674 5099,4610 5061,4578 5039,4552 5025,4534 5021,4526 5021,4516 5033,4502 5041,4496 5051,4488 5049,4480 4964,4441 4949,4432 4957,4410 4965,4380 4961,4362 4951,4352 4933,4340 4885,4304 4847,4276 4823,4258 4801,4236 4773,4216 4761,4218 4693,4264 4663,4246 4589,4206 4579,4206 4525,4232 4523,4242 4519,4268 4511,4268 4485,4254 4473,4248 4457,4236 4469,4222 4479,4198 4477,4144 4467,4108 4445,4062 4443,4056 4453,4054 4483,4064 4493,4070 4499,4064 4495,4036 4491,4000 4489,3990 4463,3974 4459,3960 4447,3900 4429,3880 4407,3864 4385,3794 4385,3750 4387,3730 4385,3724 4361,3716 4343,3716 4313,3724 4289,3724 4253,3722 4221,3722 4181,3716 4169,3712 4151,3700 4139,3698 4111,3700 4095,3698 4039,3668 4003,3644 3979,3634 3965,3634 3959,3634 3953,3636 3947,3640 3941,3638 3931,3634 3901,3614 3865,3586 3853,3582 3841,3586 3821,3596 3807,3600 3797,3610 3779,3628 3773,3636 3763,3660 3759,3666 3751,3668 3719,3666 3703,3648 3641,3622 3619,3616 3631,3540 3621,3534 3603,3530 3585,3522 3533,3526 3523,3520 3517,3512 3511,3504 3505,3502 3499,3504 3495,3528 3485,3532 3465,3534 3439,3540 3415,3546 3411,3546 3393,3544 3337,3500 3337,3330 3331,3306 3321,3294 3301,3286 3235,3270 3217,3264 3199,3250 3145,3220 3137,3196 3141,3186 3159,3170 3167,3158 3153,3132 3129,3098 3107,3074 3103,3072 3091,3068 3063,3066 3057,3062 3055,3054 3053,3042 3051,3030 3057,3026 3067,3018 3065,3008 3067,2988 3063,2986 3055,2986 3045,2986 3039,2984 3035,2976 3031,2952 3017,2924 3001,2900 2987,2892 2973,2882 2953,2870 2917,2854 2899,2846 2889,2838 2889,2828 2893,2814 2889,2802 2879,2794 2875,2792 2863,2788 2855,2778 2855,2766 2853,2732 2855,2712 2857,2698 2855,2680 2847,2662 2854,2649 2854,2643 2791,2608 2744,2596 2728,2589 2708,2570 2643,2543 2611,2531 2597,2527 2589,2527 2583,2529 2577,2531 2567,2539 2561,2543 2541,2553 2533,2557 2529,2557 2525,2549 2519,2533 2511,2517 2477,2483 2453,2473 2447,2469 2439,2467 2431,2471 2419,2485 2393,2505 2351,2515 2337,2515 2323,2515 2313,2523 2305,2535 2301,2553 2281,2571 2249,2593 2209,2627 2171,2657 2147,2663 2115,2659 2085,2663 2067,2673 2029,2683 1979,2685 1939,2685 1917,2683 1899,2681 1891,2667 1881,2659 1869,2661 1859,2675 1843,2683 1799,2683 1767,2689 1755,2689 1725,2687 1719,2685 1695,2673 1687,2663 1689,2645 1685,2633 1659,2621 1653,2601 1631,2595 1619,2593 1605,2581 1607,2561 1603,2551 1577,2517 1559,2487 1559,2477 1571,2469 1569,2455 1567,2425 1573,2403 1613,2351 1621,2339 1623,2316 1631,2313 1635,2312 1641,2312 1668,2315 1674,2314 1681,2313 1693,2305 1696,2298 1696,2288 1687,2268 1679,2259 1671,2253 1665,2247 1663,2240 1664,2232 1668,2224 1674,2217 1683,2212 1693,2209 1703,2209 1726,2211 1739,2215 1752,2222 1777,2239 1791,2247 1806,2250 1821,2249 1829,2247 1836,2243 1841,2237 1846,2229 1854,2223 1864,2219 1878,2214 1887,2207 1892,2196 1894,2182 1895,2167 1898,2155 1904,2143 1915,2129 1924,2121 1934,2115 1943,2111 1950,2109 1965,2109 1996,2108 2008,2105 2018,2100 2031,2091 2052,2075 2080,2057 2089,2054 2094,2054 2110,2054 2122,2053 2128,2051 2136,2046 2141,2037 2148,2018 2152,1992 2149,1959 2144,1956 2124,1958 2088,1972 2050,1974 2028,1966 2008,1958 1976,1940 1956,1938 1928,1934 1910,1924 1904,1918 1890,1896 1880,1874 1872,1856 1868,1838 1866,1824 1874,1814 1896,1806 1907,1797 1910,1760 1916,1720 1926,1704 1944,1694 1960,1674 1962,1660 1960,1656 1924,1644 1862,1636 1828,1624 1786,1604 1770,1600 1754,1602 1746,1608 1726,1616 1710,1620 1698,1622 1680,1622 1662,1618 1642,1610 1562,1600 1520,1598 1512,1584 1504,1576 1480,1572 1450,1572 1432,1572 1402,1574 1354,1576 1308,1580 1288,1586 1282,1586 1256,1568 1236,1556 1228,1532 1218,1530 1196,1530 1180,1526 1162,1528 1154,1538 1140,1552 1076,1592 1070,1592 1058,1596 1046,1600 1042,1598 1028,1598 1012,1596 996,1592 986,1586 964,1594 936,1598 892,1604 854,1600 816,1584 804,1556 796,1526 778,1502 760,1476 756,1470 750,1470 734,1472 716,1480 686,1488 610,1504 592,1510 504,1564 470,1568 446,1574 438,1580 430,1592 420,1600 408,1606 390,1610 354,1610 318,1604 310,1602 300,1598 228,1610 156,1624 118,1630 90,1630 66,1628 54,1630 44,1620 32,1610 4,1594 0,1566 30,1542 55,1520 98,1489 129,1479 161,1468 180,1462 196,1458 205,1457 218,1460 254,1478 277,1481 288,1480 362,1454 376,1443 404,1411 422,1402 433,1393 448,1391 520,1397 549,1397 586,1385 603,1382 603,1380 602,1377 608,1349 663,1145 676,1147 714,1147 730,1127 1080,1117 1630,1095 2330,1027 2588,1007 2734,927 2908,867 3082,867 3176,841 3580,811 3686,805 3750,777 4032,619 4370,409 4430,381 4586,347 4744,339 4830,299 4885,271 5207,181 5371,129 5409,127 5515,155 " class="polyStyle" id="640502" style="fill:#fbe6ef"/>
<path d="" class="polyStyle" id="140311" style="fill:#ee8b94"/>
<path d="" class="polyStyle" id="610802" style="fill:#ee8b94"/>
<path d="" class="polyStyle" id="120116" style="fill:#f6f67b"/>
<path d="" class="polyStyle" id="130303" style="fill:#fbe6ef"/>
<path d="" class="polyStyle" id="140211" style="fill:#f6f67b"/>
<path d="" class="polyStyle" id="150207" style="fill:#fbe6ef"/>
<path d="" class="polyStyle" id="211403" style="fill:#f6f67b"/>
<path d="" class="polyStyle" id="150802" style="fill:#f8c67d"/>
<path d="" class="polyStyle" id="210112" style="fill:#ee8b94"/>
<path d="" class="polyStyle" id="230406" style="fill:#d4ecb2"/>
<path d="" class="polyStyle" id="110113" style="fill:#fbe6ef"/>
<path d="" class="polyStyle" id="341702" style="fill:#fbe6ef"/>
<path d="" class="polyStyle" id="420303" style="fill:#ee8b94"/>
<path d="" class="polyStyle" id="340702" style="fill:#d4ecb2"/>
<path d="" class="polyStyle" id="421002" style="fill:#f6f67b"/>
<path d="" class="polyStyle" id="420117" style="fill:#f6f67b"/>
<path d="" class="polyStyle" id="440904" style="fill:#f8c67d"/>
<path d="" class="polyStyle" id="460205" style="fill:#ee8b94"/>
<path d="" class="polyStyle" id="460202" style="fill:#f6f67b"/>
<path d="" class="polyStyle" id="460203" style="fill:#fbe6ef"/>
<path d="" class="polyStyle" id="420304" style="fill:#f6f67b"/>
<path d="" class="polyStyle" id="445302" style="fill:#ee8b94"/>
<path d="" class="polyStyle" id="410202" style="fill:#d4ecb2"/>
<path d="" class="polyStyle" id="440800" style="fill:#f6f67b"/>
<path d="" class="polyStyle" id="440900" style="fill:#ee8b94"/>
<path d="" class="polyStyle" id="340800" style="fill:#ee8b94"/>
<path d="" class="polyStyle" id="460200" style="fill:#f6f67b"/>
<path d="" class="polyStyle" id="460000" style="fill:#ee8b94"/>
<path d="" class="polyStyle" id="450500" style="fill:#ee8b94"/>
<path d="" class="polyStyle" id="450600" style="fill:#ee8b94"/>
<path d="" class="polyStyle" id="440400" style="fill:#f6f67b"/>
<path d="" class="polyStyle" id="441700" style="fill:#f6f67b"/>
<path d="" class="polyStyle" id="441500" style="fill:#f6f67b"/>
<path d="" class="polyStyle" id="350600" style="fill:#ee8b94"/>
<path d="" class="polyStyle" id="710000" style="fill:#f6f67b"/>
<path d="" class="polyStyle" id="510400" style="fill:#f6f67b"/>
<path d="" class="polyStyle" id="522600" style="fill:#fbe6ef"/>
<path d="" class="polyStyle" id="520500" style="fill:#ee8b94"/>
<path d="" class="polyStyle" id="431200" style="fill:#f6f67b"/>
<path d="" class="polyStyle" id="430600" style="fill:#f6f67b"/>
<path d="" class="polyStyle" id="511400" style="fill:#d4ecb2"/>
<path d="" class="polyStyle" id="421000" style="fill:#ee8b94"/>
<path d="" class="polyStyle" id="341700" style="fill:#f6f67b"/>
<path d="" class="polyStyle" id="420500" style="fill:#f6f67b"/>
<path d="" class="polyStyle" id="511300" style="fill:#f6f67b"/>
<path d="" class="polyStyle" id="420900" style="fill:#f6f67b"/>
<path d="" class="polyStyle" id="511700" style="fill:#ee8b94"/>
<path d="" class="polyStyle" id="420600" style="fill:#d4ecb2"/>
<path d="" class="polyStyle" id="411500" style="fill:#fbe6ef"/>
<path d="" class="polyStyle" id="510800" style="fill:#ee8b94"/>
<path d="" class="polyStyle" id="420300" style="fill:#fbe6ef"/>
<path d="" class="polyStyle" id="611000" style="fill:#ee8b94"/>
<path d="" class="polyStyle" id="620800" style="fill:#fbe6ef"/>
<path d="" class="polyStyle" id="370200" style="fill:#ee8b94"/>
<path d="" class="polyStyle" id="371000" style="fill:#f6f67b"/>
<path d="" class="polyStyle" id="370600" style="fill:#fbe6ef"/>
<path d="" class="polyStyle" id="120000" style="fill:#f6f67b"/>
<path d="" class="polyStyle" id="130200" style="fill:#ee8b94"/>
<path d="" class="polyStyle" id="130300" style="fill:#f6f67b"/>
<path d="" class="polyStyle" id="652900" style="fill:#fbe6ef"/>
<path d="" class="polyStyle" id="150500" style="fill:#d4ecb2"/>
<path d="" class="polyStyle" id="" style="fill:#d4ecb2"/>
<path d="" class="polyStyle" id="350500" style="fill:#fbe6ef"/>
<path d="" class="polyStyle" id="440400" style="fill:#f6f67b"/>
<path d="" class="polyStyle" id="421100" style="fill:#d4ecb2"/>
<path d="" class="polyStyle" id="420100" style="fill:#fbe6ef"/>
<path d="" class="polyStyle" id="532500" style="fill:#fbe6ef"/>
<path d="" class="polyStyle" id="654200" style="fill:#fbe6ef"/>
<path d="" class="polyStyle" id="210700" style="fill:#d4ecb2"/>
<path d="" class="polyStyle" id="522300" style="fill:#fbe6ef"/>
<path d="" class="polyStyle" id="" style="fill:#ee8b94"/>
<path d="" class="polyStyle" id="440400" style="fill:#f6f67b"/>
<path d="" class="polyStyle" id="620000" style="fill:#f6f67b"/>
<path d="" class="polyStyle" id="430000" style="fill:#fbe6ef"/>
<path d="" class="polyStyle" id="420000" style="fill:#ee8b94"/>
<path d="" class="polyStyle" id="410000" style="fill:#f6f67b"/>
<path d="" class="polyStyle" id="350000" style="fill:#fbe6ef"/>
<path d="" class="polyStyle" id="520000" style="fill:#f6f67b"/>
<path d="" class="polyStyle" id="" style="fill:#ee8b94"/>
</svg>
