<?xml version="1.0" encoding="UTF-8"?>
<!DOCTYPE svg PUBLIC "-//W3C//DTD SVG 1.1 Tiny//EN" "http://www.w3.org/Graphics/SVG/1.1/DTD/svg11-tiny.dtd">
<svg version="1.1" xmlns="http://www.w3.org/2000/svg" xmlns:xlink="http://www.w3.org/1999/xlink" width="100%" height="100%" viewBox="0,0,10882,10892">
<title>SVG</title>
<desc>Poligon Test</desc>
<style id="style_css_sheet" type="text/css">
.polyStyle{fill: #cccccc;stroke-width:0;fill-rule:evenodd;}
</style>
<circle cx="3067" cy="7644" r="200" stroke="black" stroke-width="1" fill="red" id="650121" name="乌鲁木齐县"/>
<circle cx="3874" cy="5788" r="200" stroke="black" stroke-width="1" fill="red" id="650104"position="4" name="新市区"/>
<circle cx="3161" cy="5625" r="200" stroke="black" stroke-width="1" fill="red" id="650106"position="44" name="头屯河区"/>
<circle cx="7543" cy="8209" r="200" stroke="black" stroke-width="1" fill="red" id="650107" name="达坂城区"/>
<circle cx="4165" cy="6036" r="200" stroke="black" stroke-width="1" fill="red" id="650102"position="3" name="天山区"/>
<circle cx="3994" cy="6020" r="200" stroke="black" stroke-width="1" fill="red" id="650103"position="444" name="沙依巴克区"/>
<circle cx="4215" cy="5843" r="200" stroke="black" stroke-width="1" fill="red" id="650105"position="34" name="水磨沟区"/>
<circle cx="4388" cy="5220" r="200" stroke="black" stroke-width="1" fill="red" id="650109" name="米东区"/>
<path d="" class="polyStyle" id="" style="fill:#ee8b94"/>
<path d="" class="polyStyle" id="623022" style="fill:#fbe6ef"/>
<path d="" class="polyStyle" id="211421" style="fill:#f6f67b"/>
<path d="" class="polyStyle" id="532524" style="fill:#ee8b94"/>
<path d="" class="polyStyle" id="440825" style="fill:#f6f67b"/>
<path d="" class="polyStyle" id="441721" style="fill:#f6f67b"/>
<path d="" class="polyStyle" id="450521" style="fill:#f6f67b"/>
<path d="" class="polyStyle" id="450123" style="fill:#fbe6ef"/>
<path d="" class="polyStyle" id="350624" style="fill:#f6f67b"/>
<path d="" class="polyStyle" id="" style="fill:#fbe6ef"/>
<path d="" class="polyStyle" id="451224" style="fill:#fbe6ef"/>
<path d="" class="polyStyle" id="350627" style="fill:#f6f67b"/>
<path d="" class="polyStyle" id="" style="fill:#f6f67b"/>
<path d="" class="polyStyle" id="350525" style="fill:#f6f67b"/>
<path d="" class="polyStyle" id="530124" style="fill:#ee8b94"/>
<path d="" class="polyStyle" id="522627" style="fill:#ee8b94"/>
<path d="" class="polyStyle" id="510421" style="fill:#fbe6ef"/>
<path d="" class="polyStyle" id="522623" style="fill:#d4ecb2"/>
<path d="" class="polyStyle" id="430321" style="fill:#d4ecb2"/>
<path d="" class="polyStyle" id="511129" style="fill:#d4ecb2"/>
<path d="" class="polyStyle" id="511423" style="fill:#ee8b94"/>
<path d="" class="polyStyle" id="421023" style="fill:#f6f67b"/>
<path d="" class="polyStyle" id="511724" style="fill:#f6f67b"/>
<path d="" class="polyStyle" id="420526" style="fill:#fbe6ef"/>
<path d="" class="polyStyle" id="511923" style="fill:#fbe6ef"/>
<path d="" class="polyStyle" id="420325" style="fill:#fbe6ef"/>
<path d="" class="polyStyle" id="511921" style="fill:#f6f67b"/>
<path d="" class="polyStyle" id="542525" style="fill:#f6f67b"/>
<path d="" class="polyStyle" id="611026" style="fill:#ee8b94"/>
<path d="" class="polyStyle" id="411023" style="fill:#fbe6ef"/>
<path d="" class="polyStyle" id="632323" style="fill:#f6f67b"/>
<path d="" class="polyStyle" id="140525" style="fill:#d4ecb2"/>
<path d="" class="polyStyle" id="410922" style="fill:#ee8b94"/>
<path d="" class="polyStyle" id="621027" style="fill:#ee8b94"/>
<path d="" class="polyStyle" id="130427" style="fill:#f6f67b"/>
<path d="" class="polyStyle" id="130121" style="fill:#ee8b94"/>
<path d="" class="polyStyle" id="610823" style="fill:#fbe6ef"/>
<path d="" class="polyStyle" id="130225" style="fill:#fbe6ef"/>
<path d="" class="polyStyle" id="130322" style="fill:#d4ecb2"/>
<path d="" class="polyStyle" id="653130" style="fill:#f6f67b"/>
<path d="" class="polyStyle" id="130822" style="fill:#fbe6ef"/>
<path d="" class="polyStyle" id="211221" style="fill:#f6f67b"/>
<path d="" class="polyStyle" id="210921" style="fill:#f6f67b"/>
<path d="" class="polyStyle" id="150223" style="fill:#f8c67d"/>
<path d="" class="polyStyle" id="220422" style="fill:#d4ecb2"/>
<polygon points="2937,5754 2920,5782 2916,5797 2914,5815 2906,5826 2898,5844 2898,5862 2900,5891 2904,5910 2899,5923 2889,5948 2903,5969 2912,5960 2916,5949 2927,5946 2944,5941 2943,5927 2934,5925 2924,5923 2934,5910 2960,5885 2978,5866 2989,5852 2998,5826 3005,5803 3015,5794 3034,5798 3120,5838 3163,5854 3206,5866 3224,5864 3259,5856 3286,5857 3298,5861 3304,5880 3287,5881 3257,5881 3256,5888 3261,5903 3259,5913 3270,5919 3299,5934 3303,5946 3291,5954 3274,5961 3250,5959 3236,5962 3229,5970 3237,5977 3274,5985 3300,5980 3314,5973 3335,5973 3383,5980 3414,5981 3439,5987 3469,5996 3489,5999 3499,6013 3495,6033 3484,6035 3456,6036 3441,6044 3435,6046 3395,6045 3364,6051 3317,6059 3266,6061 3238,6057 3226,6054 3199,6055 3167,6064 3116,6077 3098,6083 3083,6082 3060,6067 3039,6060 3009,6064 2948,6073 2941,6069 2918,6068 2870,6069 2825,6064 2786,6063 2755,6067 2738,6069 2744,6085 2766,6112 2779,6156 2795,6236 2824,6323 2844,6388 2843,6442 2829,6501 2814,6547 2811,6607 2811,6676 2824,6692 2850,6710 2854,6727 2852,6745 2859,6795 2865,6821 2843,6859 2837,6877 2828,6891 2834,6911 2838,6927 2854,6944 2870,6952 2882,6966 2897,6983 2908,7004 2909,7051 2918,7102 2930,7147 2923,7165 2914,7186 2919,7195 2929,7193 2986,7168 3043,7148 3079,7133 3096,7124 3113,7124 3136,7126 3163,7119 3210,7098 3229,7083 3259,7065 3281,7052 3305,7048 3320,7050 3336,7043 3367,7029 3408,7003 3429,6983 3439,6968 3452,6949 3457,6936 3464,6924 3473,6912 3492,6896 3502,6893 3514,6894 3534,6888 3545,6882 3566,6871 3580,6865 3632,6846 3663,6825 3669,6822 3679,6825 3707,6834 3727,6831 3750,6825 3759,6827 3768,6853 3805,6898 3817,6904 3820,6913 3820,6943 3850,6936 3858,6921 3879,6898 3900,6878 3909,6870 3924,6872 3942,6877 3955,6874 3970,6873 4014,6888 4035,6888 4046,6888 4049,6894 4047,6901 4054,6903 4068,6902 4072,6895 4078,6872 4089,6857 4096,6848 4097,6841 4107,6840 4170,6854 4194,6862 4204,6857 4199,6840 4196,6827 4196,6818 4212,6817 4257,6820 4309,6823 4379,6822 4437,6826 4470,6828 4494,6825 4501,6818 4515,6836 4540,6858 4540,6867 4535,6875 4527,6882 4524,6888 4524,6903 4520,6910 4400,6879 4358,6865 4309,6846 4297,6861 4286,6887 4283,6920 4260,6980 4259,6986 4298,7000 4333,7010 4387,7030 4381,7060 4471,7075 4462,7101 4499,7108 4485,7135 4522,7143 4519,7152 4513,7155 4526,7158 4531,7145 4547,7148 4551,7137 4625,7150 4647,7150 4657,7122 4693,7128 4728,7119 4719,7151 4745,7155 4770,7160 4791,7134 4780,7130 4783,7101 4755,7110 4754,7103 4688,7123 4707,7030 4580,7006 4584,6983 4590,6966 4600,6973 4611,6978 4629,6983 4691,6986 4711,6991 4756,7019 4776,7028 4799,7052 4819,7076 4837,7103 4858,7129 4873,7153 4880,7158 4923,7199 4957,7237 5110,7424 5134,7455 5155,7485 5162,7501 5174,7515 5181,7538 5214,7577 5220,7579 5255,7600 5281,7606 5377,7636 5598,7701 5715,7741 5946,7812 6097,7855 6214,7883 6267,7901 6275,7915 6292,7939 6287,8030 6287,8235 6302,8245 6328,8257 6394,8282 6409,8286 6460,8308 6533,8325 6553,8328 6575,8327 6581,8330 6581,8336 6586,8343 6588,8349 6595,8353 6618,8358 6632,8363 6641,8376 6655,8382 6632,8384 6613,8379 6600,8379 6580,8383 6559,8393 6550,8396 6518,8399 6492,8395 6472,8395 6462,8397 6433,8406 6413,8415 6400,8422 6385,8427 6376,8427 6366,8416 6336,8419 6313,8430 6296,8432 6279,8423 6264,8420 6233,8420 6181,8429 6150,8435 6114,8447 6085,8459 6050,8481 6025,8499 6005,8508 5968,8498 5925,8466 5907,8446 5895,8441 5881,8440 5819,8453 5753,8464 5675,8471 5611,8471 5574,8485 5540,8497 5502,8507 5472,8511 5438,8515 5420,8517 5417,8517 5414,8516 5410,8515 5404,8514 5400,8514 5394,8516 5381,8515 5375,8513 5371,8508 5368,8507 5363,8506 5358,8508 5352,8510 5348,8511 5340,8511 5335,8511 5327,8513 5324,8514 5309,8517 5294,8519 5282,8518 5265,8517 5262,8517 5247,8515 5242,8514 5238,8514 5222,8510 5212,8504 5197,8500 5185,8497 5181,8497 5178,8498 5169,8504 5162,8507 5150,8512 5143,8516 5135,8521 5112,8529 5107,8529 5098,8530 5077,8533 5069,8533 5041,8532 5018,8529 4999,8528 4996,8528 4985,8527 4974,8526 4969,8525 4966,8525 4962,8524 4958,8524 4950,8523 4947,8523 4942,8524 4932,8525 4923,8528 4901,8533 4896,8536 4885,8540 4879,8542 4872,8544 4866,8544 4862,8544 4847,8542 4827,8539 4814,8538 4808,8538 4804,8536 4800,8534 4797,8532 4794,8531 4790,8529 4783,8525 4774,8520 4769,8519 4766,8520 4763,8521 4760,8523 4749,8527 4734,8533 4729,8537 4710,8545 4686,8547 4668,8546 4664,8545 4653,8545 4645,8548 4640,8553 4632,8556 4621,8560 4614,8562 4608,8561 4593,8558 4580,8560 4570,8564 4561,8569 4554,8572 4548,8573 4540,8573 4531,8573 4527,8575 4518,8576 4512,8575 4506,8570 4502,8564 4497,8560 4487,8559 4484,8561 4485,8568 4484,8572 4484,8575 4481,8579 4479,8586 4480,8593 4488,8593 4495,8597 4495,8604 4497,8608 4497,8611 4493,8616 4491,8621 4488,8622 4483,8628 4478,8632 4471,8635 4463,8638 4459,8640 4455,8641 4452,8641 4445,8641 4438,8645 4431,8645 4419,8645 4415,8644 4411,8640 4407,8636 4403,8636 4380,8635 4369,8636 4355,8636 4343,8635 4327,8634 4320,8631 4309,8626 4302,8622 4299,8621 4296,8620 4293,8620 4290,8621 4280,8626 4263,8635 4250,8641 4247,8642 4238,8653 4233,8657 4218,8664 4208,8669 4205,8669 4191,8676 4176,8681 4161,8682 4148,8678 4136,8680 4126,8681 4108,8680 4100,8679 4091,8679 4081,8682 4062,8687 4042,8690 4028,8693 4016,8695 4003,8696 3995,8697 3983,8699 3974,8701 3947,8703 3921,8702 3902,8702 3875,8706 3858,8706 3847,8704 3839,8698 3838,8693 3838,8688 3836,8677 3830,8672 3826,8672 3822,8672 3817,8674 3808,8676 3792,8678 3761,8679 3744,8680 3729,8681 3718,8680 3708,8677 3698,8672 3684,8666 3672,8663 3664,8663 3655,8664 3651,8665 3645,8664 3640,8666 3640,8669 3638,8674 3633,8676 3629,8676 3626,8675 3619,8672 3614,8671 3600,8672 3587,8674 3571,8672 3557,8669 3524,8663 3509,8659 3504,8659 3501,8660 3497,8665 3493,8671 3486,8674 3471,8674 3460,8673 3453,8672 3436,8673 3418,8675 3411,8671 3409,8668 3407,8662 3392,8655 3381,8650 3368,8648 3355,8648 3344,8652 3323,8656 3318,8657 3301,8662 3289,8664 3270,8660 3256,8663 3242,8666 3228,8663 3220,8660 3214,8654 3210,8651 3198,8643 3183,8633 3172,8631 3164,8625 3159,8620 3154,8616 3128,8618 3121,8619 3107,8623 3097,8624 3080,8629 3059,8632 3047,8629 3042,8628 3029,8627 3025,8622 3024,8614 3018,8605 3006,8597 2998,8595 2992,8594 2986,8597 2980,8603 2970,8611 2960,8615 2949,8615 2941,8614 2933,8608 2930,8606 2904,8602 2900,8600 2886,8599 2882,8599 2873,8599 2863,8600 2853,8600 2846,8603 2841,8612 2838,8626 2831,8635 2828,8669 2832,8686 2836,8690 2838,8693 2842,8697 2843,8700 2846,8704 2848,8707 2851,8711 2854,8714 2856,8718 2858,8722 2861,8725 2862,8729 2866,8732 2869,8736 2870,8740 2873,8743 2876,8747 2879,8750 2881,8754 2883,8758 2886,8762 2893,8769 2899,8778 2907,8787 2909,8793 2912,8800 2914,8811 2915,8814 2916,8824 2920,8848 2922,8862 2924,8875 2923,8884 2923,8898 2922,8908 2922,8917 2925,8925 2928,8933 2927,8943 2925,8955 2925,8958 2925,8961 2925,8965 2925,8969 2925,8972 2925,8976 2925,8979 2926,8983 2926,8986 2928,8989 2930,8999 2932,9004 2936,9011 2941,9017 2944,9022 2945,9026 2946,9029 2947,9033 2948,9036 2948,9040 2950,9045 2960,9060 2970,9087 2968,9104 2968,9108 2969,9111 2969,9115 2970,9119 2970,9122 2969,9126 2969,9129 2968,9133 2967,9137 2965,9140 2963,9144 2957,9159 2943,9172 2934,9181 2932,9193 2938,9214 2938,9234 2938,9248 2934,9272 2935,9287 2938,9314 2939,9330 2935,9349 2936,9372 2931,9393 2938,9416 2938,9422 2940,9430 2943,9435 2945,9441 2931,9439 2925,9438 2922,9438 2919,9438 2915,9439 2912,9439 2906,9438 2903,9437 2898,9433 2892,9429 2889,9427 2883,9424 2879,9422 2875,9419 2873,9417 2870,9415 2866,9413 2860,9412 2856,9413 2852,9414 2849,9413 2843,9410 2838,9408 2835,9411 2834,9417 2831,9420 2829,9424 2825,9428 2822,9430 2818,9431 2811,9432 2808,9432 2802,9434 2796,9439 2789,9442 2786,9443 2783,9442 2781,9442 2779,9440 2775,9436 2773,9434 2770,9433 2762,9429 2758,9429 2755,9429 2752,9429 2748,9429 2742,9428 2735,9428 2729,9427 2725,9426 2722,9425 2719,9424 2717,9424 2713,9424 2708,9424 2700,9421 2695,9419 2697,9415 2697,9413 2695,9410 2695,9408 2693,9406 2691,9404 2687,9402 2678,9399 2673,9397 2670,9396 2666,9396 2662,9398 2658,9400 2654,9400 2651,9400 2640,9402 2637,9403 2634,9404 2630,9403 2624,9403 2620,9403 2617,9402 2608,9402 2603,9401 2600,9399 2599,9397 2597,9394 2594,9393 2591,9393 2582,9394 2578,9394 2575,9393 2568,9389 2560,9383 2552,9376 2549,9375 2514,9367 2510,9366 2490,9361 2484,9356 2479,9353 2474,9351 2469,9350 2461,9346 2451,9343 2445,9341 2442,9342 2440,9345 2437,9348 2434,9348 2428,9346 2425,9345 2422,9345 2418,9345 2412,9345 2407,9344 2403,9345 2397,9343 2390,9341 2387,9339 2382,9335 2378,9334 2373,9331 2368,9329 2363,9328 2361,9329 2358,9329 2352,9328 2349,9328 2345,9327 2340,9327 2337,9327 2334,9326 2330,9324 2326,9323 2321,9322 2318,9324 2318,9328 2315,9332 2313,9336 2309,9339 2300,9359 2297,9362 2285,9376 2283,9378 2281,9382 2280,9386 2277,9389 2273,9391 2269,9394 2266,9396 2260,9398 2251,9400 2248,9403 2245,9405 2248,9411 2249,9415 2246,9417 2238,9420 2235,9422 2228,9423 2217,9425 2204,9428 2196,9429 2189,9431 2180,9431 2173,9430 2168,9429 2162,9428 2155,9427 2150,9426 2141,9426 2134,9426 2128,9425 2124,9421 2121,9420 2122,9424 2123,9428 2120,9431 2119,9434 2118,9440 2119,9449 2120,9459 2120,9466 2121,9472 2116,9476 2102,9478 2093,9483 2090,9484 2084,9485 2078,9486 2072,9487 2067,9489 2069,9493 2069,9497 2069,9502 2069,9506 2070,9510 2074,9513 2080,9517 2083,9521 2085,9524 2086,9528 2084,9534 2082,9539 2081,9544 2081,9552 2080,9562 2080,9570 2080,9576 2081,9579 2087,9585 2090,9590 2093,9592 2096,9597 2095,9600 2090,9603 2083,9608 2080,9610 2073,9614 2069,9617 2062,9624 2053,9630 2045,9634 2035,9639 2031,9643 2031,9646 2031,9651 2031,9655 2029,9659 2026,9663 2019,9672 2015,9677 2011,9685 2007,9691 2006,9695 2002,9701 1995,9706 1990,9708 1985,9710 1977,9712 1971,9714 1970,9717 1969,9721 1970,9737 1971,9749 1971,9752 1961,9751 1940,9750 1921,9748 1914,9748 1852,9744 1807,9738 1803,9737 1793,9734 1737,9724 1732,9723 1719,9719 1715,9716 1707,9713 1701,9712 1694,9714 1685,9717 1676,9715 1654,9710 1641,9706 1625,9697 1614,9692 1600,9689 1587,9688 1574,9688 1566,9690 1562,9695 1565,9719 1560,9741 1561,9753 1562,9762 1562,9776 1554,9780 1531,9787 1515,9795 1503,9803 1467,9821 1442,9834 1410,9840 1393,9846 1374,9851 1356,9867 1349,9878 1342,9888 1330,9892 1318,9895 1301,9895 1280,9895 1271,9893 1259,9886 1249,9876 1232,9845 1210,9821 1195,9816 1174,9818 1157,9822 1146,9826 1138,9835 1135,9841 1129,9854 1125,9862 1103,9857 1050,9837 1020,9826 1007,9826 995,9824 971,9817 954,9802 939,9773 927,9761 911,9763 909,9765 887,9770 857,9786 847,9790 828,9790 803,9779 780,9770 772,9771 740,9774 711,9773 705,9772 695,9769 664,9759 642,9751 621,9734 600,9706 588,9683 587,9660 586,9649 580,9640 570,9635 561,9637 554,9641 526,9650 514,9641 505,9628 498,9621 489,9612 465,9611 450,9604 431,9595 425,9590 416,9583 400,9576 385,9575 359,9569 356,9569 333,9571 297,9593 279,9591 276,9584 273,9575 256,9561 229,9556 209,9556 201,9552 191,9548 184,9543 167,9531 162,9526 153,9514 137,9514 116,9507 106,9503 98,9500 82,9492 65,9484 45,9482 30,9480 23,9462 18,9455 12,9447 0,9446 6,9437 6,9434 9,9421 23,9405 39,9393 53,9388 68,9383 74,9379 83,9369 89,9355 92,9343 92,9325 94,9319 94,9315 96,9312 98,9307 103,9303 117,9299 144,9294 171,9290 199,9285 226,9268 237,9260 239,9251 234,9235 231,9214 232,9210 229,9207 227,9203 223,9203 218,9202 215,9202 207,9200 198,9197 193,9193 187,9190 185,9187 181,9185 175,9180 174,9176 170,9175 166,9172 161,9171 155,9170 147,9168 144,9166 141,9165 140,9163 131,9159 121,9159 103,9155 95,9155 88,9153 85,9151 86,9145 86,9138 87,9135 87,9132 87,9127 87,9122 89,9116 90,9112 93,9108 100,9104 109,9100 114,9098 124,9094 133,9090 140,9086 145,9083 148,9079 151,9075 155,9071 158,9069 163,9068 167,9067 170,9067 173,9066 177,9064 180,9062 182,9061 187,9052 193,9043 198,9034 199,9030 199,9027 198,9024 196,9022 193,9020 193,9015 196,9010 196,9006 197,9002 200,8999 207,8994 212,8992 220,8989 225,8986 231,8983 235,8979 238,8976 244,8975 249,8974 255,8972 258,8972 262,8969 266,8966 271,8962 275,8959 283,8952 286,8945 287,8938 291,8929 291,8926 292,8908 297,8879 299,8854 302,8846 312,8835 327,8822 350,8807 368,8787 381,8768 390,8745 393,8722 390,8694 407,8679 428,8676 459,8676 481,8676 493,8672 500,8666 504,8658 505,8634 508,8590 515,8562 519,8539 489,8494 492,8488 502,8481 524,8464 548,8450 565,8437 588,8418 609,8399 623,8383 620,8372 614,8354 612,8331 615,8303 619,8293 632,8264 648,8248 667,8226 676,8212 682,8193 681,8182 680,8158 672,8144 659,8126 648,8114 625,8096 612,8085 603,8078 595,8067 587,8062 573,8058 557,8051 546,8047 539,8044 535,8041 533,8036 533,8028 530,8019 527,8013 525,8009 522,8005 519,8002 518,7998 517,7995 516,7991 516,7987 515,7984 514,7980 514,7977 514,7973 514,7969 514,7966 514,7962 515,7959 515,7955 516,7952 516,7948 515,7945 514,7941 512,7938 511,7934 510,7930 509,7927 509,7923 508,7920 508,7916 509,7912 510,7909 512,7905 514,7902 516,7898 517,7895 517,7891 518,7887 518,7884 518,7880 518,7877 519,7873 519,7869 516,7866 517,7861 533,7851 538,7847 543,7845 548,7842 548,7837 549,7834 552,7830 556,7827 561,7827 566,7826 571,7823 576,7820 581,7814 585,7808 587,7806 595,7804 598,7797 599,7789 604,7786 616,7783 621,7779 634,7770 638,7766 643,7763 647,7759 651,7755 655,7752 656,7748 658,7744 659,7740 662,7737 663,7733 666,7730 668,7727 671,7724 676,7723 681,7723 686,7722 691,7720 695,7716 696,7712 697,7709 698,7701 700,7694 706,7693 714,7692 720,7688 725,7688 730,7689 735,7689 740,7688 745,7684 750,7682 755,7678 759,7679 765,7678 771,7677 775,7674 779,7670 783,7666 786,7663 790,7663 795,7664 800,7665 805,7666 810,7666 815,7662 817,7659 818,7655 820,7652 825,7648 833,7644 831,7640 830,7634 832,7630 836,7628 842,7628 845,7630 849,7633 855,7631 860,7632 864,7636 867,7636 873,7632 878,7629 883,7627 887,7624 893,7621 897,7617 897,7613 897,7610 895,7606 893,7602 892,7599 892,7595 895,7592 899,7585 899,7581 898,7576 902,7570 903,7566 906,7563 906,7559 905,7556 904,7552 904,7549 907,7545 911,7543 915,7539 920,7536 923,7532 928,7528 930,7523 934,7517 933,7513 934,7510 935,7506 938,7503 941,7499 942,7496 944,7492 945,7489 947,7485 949,7481 952,7478 955,7473 960,7468 965,7463 972,7456 977,7450 979,7445 978,7441 978,7437 978,7434 978,7430 979,7427 981,7423 983,7420 985,7416 987,7412 988,7409 989,7405 989,7402 989,7398 989,7395 990,7391 991,7387 992,7384 993,7380 994,7377 994,7373 995,7369 996,7366 998,7362 1000,7358 1002,7354 1008,7348 1013,7342 1021,7333 1026,7329 1027,7325 1028,7321 1029,7318 1032,7314 1037,7314 1042,7311 1047,7309 1051,7306 1053,7302 1055,7299 1056,7295 1061,7291 1066,7290 1071,7289 1075,7286 1079,7282 1084,7280 1089,7278 1105,7271 1110,7269 1113,7265 1118,7261 1123,7260 1128,7259 1132,7255 1133,7251 1136,7248 1141,7246 1146,7244 1151,7243 1156,7241 1160,7237 1162,7234 1166,7230 1171,7227 1176,7226 1181,7224 1186,7223 1191,7220 1195,7216 1196,7213 1200,7209 1205,7208 1210,7208 1215,7204 1218,7201 1220,7197 1223,7194 1228,7190 1233,7187 1237,7184 1239,7180 1241,7177 1243,7173 1246,7169 1250,7166 1255,7164 1260,7160 1265,7157 1268,7156 1273,7153 1278,7150 1283,7147 1288,7145 1293,7142 1298,7139 1301,7135 1306,7132 1311,7129 1316,7129 1321,7127 1326,7127 1330,7129 1335,7128 1340,7124 1344,7121 1349,7117 1356,7114 1364,7111 1367,7110 1372,7107 1377,7104 1382,7101 1387,7097 1391,7094 1396,7090 1401,7089 1406,7087 1413,7086 1417,7084 1422,7080 1426,7077 1430,7073 1442,7067 1458,7060 1469,7056 1474,7054 1479,7052 1484,7049 1487,7045 1490,7042 1494,7038 1499,7036 1504,7034 1509,7032 1514,7030 1519,7028 1524,7025 1528,7021 1532,7017 1535,7014 1538,7010 1540,7007 1543,7003 1545,7000 1547,6996 1549,6992 1552,6989 1557,6985 1562,6982 1567,6980 1572,6979 1577,6975 1579,6972 1581,6968 1582,6965 1583,6961 1585,6957 1588,6954 1593,6950 1598,6947 1601,6943 1604,6940 1606,6936 1608,6933 1611,6929 1615,6925 1620,6922 1625,6918 1628,6915 1631,6911 1633,6908 1634,6904 1635,6900 1635,6897 1637,6893 1638,6890 1642,6886 1646,6883 1651,6879 1656,6875 1661,6872 1665,6868 1667,6865 1669,6861 1671,6858 1673,6854 1674,6850 1676,6847 1677,6843 1680,6840 1683,6836 1687,6833 1692,6829 1696,6825 1699,6822 1702,6818 1705,6815 1706,6811 1707,6808 1707,6804 1707,6801 1707,6797 1710,6793 1713,6790 1715,6786 1716,6783 1715,6779 1715,6776 1716,6772 1719,6768 1724,6767 1729,6764 1734,6762 1739,6758 1743,6755 1747,6751 1751,6748 1755,6744 1757,6741 1758,6737 1759,6733 1760,6730 1761,6726 1762,6723 1764,6719 1766,6716 1769,6712 1772,6708 1776,6705 1780,6701 1784,6698 1789,6695 1794,6691 1798,6688 1803,6685 1805,6681 1808,6678 1811,6674 1815,6671 1818,6667 1820,6664 1821,6660 1822,6656 1824,6653 1828,6649 1832,6646 1834,6642 1835,6639 1836,6635 1838,6631 1840,6628 1844,6624 1848,6621 1852,6617 1855,6614 1860,6611 1865,6609 1870,6608 1875,6604 1878,6601 1881,6597 1886,6595 1890,6594 1895,6593 1900,6591 1904,6587 1907,6584 1909,6580 1913,6577 1918,6577 1923,6575 1925,6572 1927,6568 1932,6564 1937,6562 1942,6560 1947,6559 1952,6558 1957,6557 1962,6557 1967,6555 1971,6553 1976,6550 1981,6547 1985,6543 1989,6540 1994,6538 2002,6532 2006,6530 2010,6526 2014,6522 2018,6519 2021,6515 2023,6512 2024,6508 2024,6505 2024,6501 2025,6497 2025,6494 2026,6490 2028,6487 2030,6483 2032,6480 2034,6476 2037,6472 2040,6469 2045,6466 2050,6462 2053,6459 2056,6455 2056,6452 2057,6448 2059,6445 2061,6441 2063,6437 2064,6434 2065,6430 2070,6427 2075,6423 2078,6420 2079,6416 2080,6413 2079,6409 2080,6405 2081,6402 2083,6398 2086,6395 2088,6391 2088,6388 2088,6384 2087,6380 2087,6377 2088,6373 2089,6370 2091,6366 2093,6363 2094,6359 2097,6355 2099,6352 2101,6348 2105,6345 2108,6341 2111,6338 2113,6334 2114,6330 2115,6327 2115,6323 2115,6320 2115,6316 2115,6313 2117,6309 2122,6306 2126,6305 2132,6303 2139,6294 2141,6289 2144,6284 2146,6281 2148,6277 2152,6273 2157,6271 2162,6268 2167,6266 2170,6262 2173,6258 2175,6255 2177,6251 2178,6248 2179,6244 2184,6241 2189,6238 2192,6235 2194,6231 2199,6228 2203,6224 2209,6220 2224,6214 2232,6198 2237,6190 2244,6179 2246,6173 2253,6163 2258,6159 2261,6156 2268,6144 2270,6141 2273,6137 2278,6134 2280,6130 2281,6126 2282,6123 2285,6119 2290,6117 2295,6116 2300,6114 2305,6112 2309,6108 2311,6104 2313,6101 2336,6101 2349,6094 2421,6009 2471,5940 2499,5879 2514,5845 2527,5826 2544,5806 2568,5762 2584,5735 2585,5726 2588,5718 2591,5712 2638,5717 2687,5717 2747,5722 2797,5719 2835,5713 2873,5705 2915,5700 2947,5722 " class="polyStyle" id="650121" style="fill:#ee8b94"/>
<path d="" class="polyStyle" id="340721" style="fill:#f6f67b"/>
<path d="" class="polyStyle" id="510824" style="fill:#d4ecb2"/>
<path d="" class="polyStyle" id="610324" style="fill:#f6f67b"/>
<path d="" class="polyStyle" id="530722" style="fill:#ee8b94"/>
<path d="" class="polyStyle" id="340823" style="fill:#d4ecb2"/>
<path d="" class="polyStyle" id="620825" style="fill:#d4ecb2"/>
<path d="" class="polyStyle" id="421125" style="fill:#ee8b94"/>
<path d="" class="polyStyle" id="210281" style="fill:#ee8b94"/>
<path d="" class="polyStyle" id="440883" style="fill:#f6f67b"/>
<path d="" class="polyStyle" id="469006" style="fill:#d4ecb2"/>
<path d="" class="polyStyle" id="469002" style="fill:#ee8b94"/>
<path d="" class="polyStyle" id="469005" style="fill:#fbe6ef"/>
<path d="" class="polyStyle" id="440882" style="fill:#ee8b94"/>
<path d="" class="polyStyle" id="450681" style="fill:#ee8b94"/>
<path d="" class="polyStyle" id="441581" style="fill:#d4ecb2"/>
<path d="" class="polyStyle" id="421087" style="fill:#ee8b94"/>
<path d="" class="polyStyle" id="420984" style="fill:#fbe6ef"/>
<path d="" class="polyStyle" id="420582" style="fill:#ee8b94"/>
<path d="" class="polyStyle" id="370282" style="fill:#f6f67b"/>
<path d="" class="polyStyle" id="371083" style="fill:#f6f67b"/>
<path d="" class="polyStyle" id="371082" style="fill:#fbe6ef"/>
<path d="" class="polyStyle" id="652801" style="fill:#f8c67d"/>
<path d="" class="polyStyle" id="654301" style="fill:#ee8b94"/>
<path d="" class="polyStyle" id="370687" style="fill:#ee8b94"/>
<path d="" class="polyStyle" id="371482" style="fill:#d4ecb2"/>
<path d="" class="polyStyle" id="421081" style="fill:#fbe6ef"/>
<path d="" class="polyStyle" id="429006" style="fill:#f6f67b"/>
<path d="" class="polyStyle" id="440982" style="fill:#d4ecb2"/>
<path d="" class="polyStyle" id="421181" style="fill:#d4ecb2"/>
<path d="" class="polyStyle" id="321181" style="fill:#d4ecb2"/>
<path d="" class="polyStyle" id="659007" style="fill:#ee8b94"/>
<path d="" class="polyStyle" id="652701" style="fill:#fbe6ef"/>
<path d="" class="polyStyle" id="210781" style="fill:#fbe6ef"/>
<path d="" class="polyStyle" id="460204" style="fill:#f6f67b"/>
<path d="" class="polyStyle" id="210211" style="fill:#f6f67b"/>
<path d="" class="polyStyle" id="450512" style="fill:#ee8b94"/>
<path d="" class="polyStyle" id="450602" style="fill:#fbe6ef"/>
<path d="" class="polyStyle" id="440404" style="fill:#ee8b94"/>
<path d="" class="polyStyle" id="440403" style="fill:#f6f67b"/>
<path d="" class="polyStyle" id="441502" style="fill:#f6f67b"/>
<path d="" class="polyStyle" id="431002" style="fill:#d4ecb2"/>
<path d="" class="polyStyle" id="500107" style="fill:#fbe6ef"/>
<path d="" class="polyStyle" id="430611" style="fill:#d4ecb2"/>
<path d="" class="polyStyle" id="511304" style="fill:#fbe6ef"/>
<path d="" class="polyStyle" id="340711" style="fill:#ee8b94"/>
<path d="" class="polyStyle" id="320118" style="fill:#f6f67b"/>
<path d="" class="polyStyle" id="510704" style="fill:#f6f67b"/>
<path d="" class="polyStyle" id="411502" style="fill:#ee8b94"/>
<path d="" class="polyStyle" id="320302" style="fill:#d4ecb2"/>
<path d="" class="polyStyle" id="140311" style="fill:#ee8b94"/>
<path d="" class="polyStyle" id="610802" style="fill:#ee8b94"/>
<path d="" class="polyStyle" id="120116" style="fill:#f6f67b"/>
<path d="" class="polyStyle" id="130303" style="fill:#fbe6ef"/>
<path d="" class="polyStyle" id="140211" style="fill:#f6f67b"/>
<path d="" class="polyStyle" id="150207" style="fill:#fbe6ef"/>
<path d="" class="polyStyle" id="211403" style="fill:#f6f67b"/>
<path d="" class="polyStyle" id="150802" style="fill:#f8c67d"/>
<path d="" class="polyStyle" id="210112" style="fill:#ee8b94"/>
<polygon points="2330,9324 2334,9326 2337,9327 2340,9327 2345,9327 2349,9328 2352,9328 2358,9329 2361,9329 2363,9328 2368,9329 2373,9331 2378,9334 2382,9335 2387,9339 2390,9341 2397,9343 2403,9345 2407,9344 2412,9345 2418,9345 2422,9345 2425,9345 2428,9346 2434,9348 2437,9348 2440,9345 2442,9342 2445,9341 2451,9343 2461,9346 2469,9350 2474,9351 2479,9353 2484,9356 2490,9361 2510,9366 2514,9367 2549,9375 2552,9376 2560,9383 2568,9389 2575,9393 2578,9394 2582,9394 2591,9393 2594,9393 2597,9394 2599,9397 2600,9399 2603,9401 2608,9402 2617,9402 2620,9403 2624,9403 2630,9403 2634,9404 2637,9403 2640,9402 2651,9400 2654,9400 2658,9400 2662,9398 2666,9396 2670,9396 2673,9397 2678,9399 2687,9402 2691,9404 2693,9406 2695,9408 2695,9410 2697,9413 2697,9415 2695,9419 2700,9421 2708,9424 2713,9424 2717,9424 2719,9424 2722,9425 2725,9426 2729,9427 2735,9428 2742,9428 2748,9429 2752,9429 2755,9429 2758,9429 2762,9429 2770,9433 2773,9434 2775,9436 2779,9440 2781,9442 2783,9442 2786,9443 2789,9442 2796,9439 2802,9434 2808,9432 2811,9432 2818,9431 2822,9430 2825,9428 2829,9424 2831,9420 2834,9417 2835,9411 2838,9408 2843,9410 2849,9413 2852,9414 2856,9413 2860,9412 2866,9413 2870,9415 2873,9417 2875,9419 2879,9422 2883,9424 2889,9427 2892,9429 2898,9433 2903,9437 2906,9438 2912,9439 2915,9439 2919,9438 2922,9438 2925,9438 2931,9439 2945,9441 2949,9441 2954,9439 2963,9436 2975,9434 2983,9435 2992,9433 2997,9433 3003,9433 3012,9436 3018,9441 3028,9453 3045,9459 3059,9473 3076,9482 3082,9483 3087,9481 3093,9479 3108,9478 3128,9475 3137,9473 3147,9471 3160,9462 3173,9455 3180,9454 3194,9454 3198,9455 3207,9460 3217,9464 3231,9466 3241,9467 3258,9474 3269,9486 3289,9500 3302,9507 3312,9508 3326,9510 3357,9501 3387,9493 3403,9491 3417,9491 3446,9496 3470,9509 3500,9523 3524,9535 3549,9545 3602,9583 3631,9606 3643,9618 3655,9629 3666,9635 3675,9638 3687,9639 3706,9641 3714,9643 3719,9647 3730,9668 3736,9685 3750,9692 3768,9694 3785,9697 3817,9707 3831,9715 3857,9730 3879,9742 3906,9767 3924,9784 3949,9797 3966,9802 3969,9803 3982,9807 3995,9808 4028,9800 4049,9792 4057,9790 4081,9790 4093,9793 4105,9796 4141,9810 4155,9812 4159,9815 4180,9826 4184,9829 4187,9835 4199,9865 4204,9892 4203,9917 4208,9934 4214,9952 4212,9963 4211,9979 4207,9991 4204,10000 4200,10006 4199,10017 4204,10020 4253,10033 4264,10040 4277,10043 4307,10049 4320,10058 4338,10064 4372,10071 4411,10076 4436,10079 4458,10086 4510,10110 4617,10145 4669,10161 4698,10176 4710,10179 4786,10203 4809,10216 4828,10234 4848,10251 4865,10271 4871,10279 4875,10288 4888,10307 4894,10313 4933,10338 4957,10352 5016,10364 5085,10382 5136,10420 5156,10439 5185,10469 5219,10508 5263,10544 5298,10569 5306,10575 5321,10586 5345,10598 5365,10603 5394,10604 5406,10606 5449,10620 5497,10633 5536,10645 5549,10652 5585,10679 5613,10704 5643,10718 5659,10727 5665,10733 5666,10736 5679,10759 5695,10788 5708,10816 5738,10843 5740,10848 5738,10852 5734,10858 5724,10867 5716,10869 5642,10866 5585,10862 5518,10857 5493,10855 5448,10862 5442,10862 5438,10861 5431,10858 5425,10856 5421,10857 5408,10863 5402,10866 5399,10869 5383,10885 5374,10891 5369,10892 5365,10892 5358,10887 5355,10882 5339,10870 5324,10858 5320,10855 5307,10849 5299,10847 5286,10843 5282,10839 5277,10832 5268,10825 5266,10821 5259,10809 5245,10796 5209,10777 5177,10762 5161,10757 5144,10752 5140,10750 5134,10741 5121,10736 5109,10731 5096,10726 5088,10717 5085,10707 5080,10696 5071,10686 5061,10677 5056,10674 5052,10674 5028,10675 5003,10674 4991,10670 4969,10658 4954,10648 4942,10637 4923,10620 4910,10610 4904,10600 4889,10595 4873,10584 4852,10557 4829,10539 4808,10522 4797,10514 4793,10514 4773,10521 4754,10523 4747,10524 4740,10529 4731,10540 4721,10543 4716,10543 4704,10543 4696,10541 4675,10531 4638,10510 4625,10504 4600,10496 4580,10493 4573,10494 4567,10496 4564,10498 4562,10501 4567,10510 4568,10514 4568,10520 4566,10524 4563,10527 4541,10532 4509,10534 4489,10530 4479,10528 4466,10524 4431,10510 4399,10502 4347,10493 4297,10491 4214,10491 4149,10500 4129,10507 4113,10516 4108,10517 4099,10518 4079,10514 4027,10503 3993,10498 3943,10492 3917,10490 3903,10493 3891,10498 3856,10513 3834,10512 3822,10507 3783,10494 3741,10490 3734,10487 3732,10481 3718,10472 3698,10468 3695,10466 3701,10458 3705,10451 3704,10442 3701,10429 3688,10410 3683,10397 3681,10392 3664,10386 3632,10367 3621,10354 3616,10349 3590,10340 3556,10328 3512,10314 3492,10309 3480,10308 3457,10308 3436,10312 3427,10312 3395,10302 3367,10291 3344,10286 3307,10282 3263,10277 3243,10268 3231,10262 3211,10252 3196,10242 3193,10238 3171,10219 3167,10217 3152,10218 3144,10219 3136,10215 3086,10189 3080,10187 3076,10187 3037,10192 3021,10192 2995,10180 2931,10145 2916,10131 2905,10117 2903,10114 2895,10105 2878,10099 2854,10095 2845,10093 2811,10077 2787,10072 2783,10069 2752,10028 2738,10015 2732,10010 2721,10007 2718,10006 2692,10003 2681,10001 2567,9948 2554,9945 2531,9941 2514,9939 2497,9937 2479,9934 2459,9913 2431,9885 2418,9873 2387,9863 2373,9858 2358,9848 2344,9843 2334,9839 2294,9830 2259,9823 2218,9817 2196,9812 2179,9803 2161,9800 2077,9779 2062,9775 2052,9774 2034,9781 2020,9783 2005,9771 1983,9754 1971,9752 1971,9749 1970,9737 1969,9721 1970,9717 1971,9714 1977,9712 1985,9710 1990,9708 1995,9706 2002,9701 2006,9695 2007,9691 2011,9685 2015,9677 2019,9672 2026,9663 2029,9659 2031,9655 2031,9651 2031,9646 2031,9643 2035,9639 2045,9634 2053,9630 2062,9624 2069,9617 2073,9614 2080,9610 2083,9608 2090,9603 2095,9600 2096,9597 2093,9592 2090,9590 2087,9585 2081,9579 2080,9576 2080,9570 2080,9562 2081,9552 2081,9544 2082,9539 2084,9534 2086,9528 2085,9524 2083,9521 2080,9517 2074,9513 2070,9510 2069,9506 2069,9502 2069,9497 2069,9493 2067,9489 2072,9487 2078,9486 2084,9485 2090,9484 2093,9483 2102,9478 2116,9476 2121,9472 2120,9466 2120,9459 2119,9449 2118,9440 2119,9434 2120,9431 2123,9428 2122,9424 2121,9420 2124,9421 2128,9425 2134,9426 2141,9426 2150,9426 2155,9427 2162,9428 2168,9429 2173,9430 2180,9431 2189,9431 2196,9429 2204,9428 2217,9425 2228,9423 2235,9422 2238,9420 2246,9417 2249,9415 2248,9411 2245,9405 2248,9403 2251,9400 2260,9398 2266,9396 2269,9394 2273,9391 2277,9389 2280,9386 2281,9382 2283,9378 2285,9376 2297,9362 2300,9359 2309,9339 2313,9336 2315,9332 2318,9328 2318,9324 2321,9322 2326,9323 " class="polyStyle" id="650107" style="fill:#d4ecb2"/>
<polygon points="8585,5738 8588,5750 8585,5779 8595,5819 8604,5831 8615,5837 8651,5847 8674,5862 8679,5874 8678,5883 8669,5901 8667,5921 8650,5934 8640,5948 8638,5954 8639,5962 8651,5977 8659,5994 8665,6001 8687,6001 8705,6003 8711,6001 8718,5992 8724,5989 8742,5986 8767,5986 8796,6005 8811,6009 8841,6011 8866,6000 8879,5988 8885,5987 8891,5993 8898,5997 8924,6003 8957,6002 8989,5990 9005,5987 9009,5994 9005,6021 9008,6038 9012,6044 9023,6053 9044,6066 9055,6079 9057,6086 9063,6093 9079,6108 9085,6117 9094,6122 9100,6128 9100,6135 9096,6152 9097,6164 9111,6167 9144,6179 9174,6181 9198,6175 9207,6169 9221,6163 9235,6162 9250,6175 9282,6186 9287,6194 9289,6201 9297,6208 9306,6210 9314,6208 9331,6198 9353,6180 9359,6178 9368,6178 9374,6181 9380,6186 9386,6194 9397,6202 9418,6210 9426,6212 9440,6212 9453,6207 9476,6211 9492,6242 9499,6249 9520,6258 9528,6266 9544,6277 9568,6282 9604,6283 9622,6289 9619,6299 9607,6320 9610,6332 9614,6338 9616,6345 9601,6360 9597,6366 9581,6377 9578,6383 9562,6390 9522,6397 9520,6403 9531,6431 9527,6445 9528,6456 9533,6464 9539,6469 9545,6470 9569,6467 9583,6467 9627,6457 9633,6455 9650,6438 9656,6436 9696,6447 9711,6454 9721,6455 9742,6454 9793,6464 9800,6477 9806,6477 9824,6474 9859,6461 9871,6462 9896,6452 9921,6455 9935,6455 9978,6426 9987,6423 10016,6423 10023,6421 10031,6415 10036,6409 10044,6404 10050,6404 10066,6410 10085,6411 10101,6417 10116,6420 10157,6405 10176,6401 10182,6403 10189,6410 10193,6418 10194,6425 10191,6447 10205,6450 10254,6440 10258,6446 10266,6453 10281,6459 10289,6466 10289,6473 10278,6488 10314,6506 10316,6513 10321,6519 10327,6522 10360,6527 10362,6544 10366,6550 10384,6563 10407,6585 10438,6609 10455,6610 10467,6608 10489,6599 10506,6597 10514,6599 10520,6604 10523,6610 10526,6628 10526,6642 10518,6662 10518,6669 10527,6695 10539,6715 10547,6734 10548,6762 10555,6769 10570,6771 10577,6775 10583,6782 10591,6786 10600,6788 10635,6790 10666,6798 10668,6807 10663,6828 10665,6834 10672,6839 10687,6844 10687,6852 10682,6859 10681,6864 10684,6876 10672,6896 10678,6906 10686,6914 10694,6916 10699,6920 10702,6941 10711,6950 10717,6953 10721,6962 10759,6994 10778,7007 10782,7013 10789,7034 10792,7060 10771,7111 10789,7156 10800,7169 10818,7182 10843,7197 10877,7234 10882,7248 10877,7264 10866,7280 10827,7325 10815,7342 10783,7417 10773,7433 10771,7449 10777,7466 10775,7483 10762,7502 10743,7521 10730,7531 10716,7554 10706,7577 10693,7596 10693,7628 10690,7671 10683,7688 10674,7697 10672,7703 10665,7751 10662,7789 10659,7796 10659,7804 10657,7811 10662,7831 10660,7838 10649,7846 10632,7854 10602,7863 10595,7867 10567,7874 10548,7876 10518,7883 10504,7882 10489,7885 10453,7888 10446,7893 10442,7899 10434,7894 10428,7894 10419,7900 10390,7904 10379,7910 10375,7925 10365,7933 10356,7947 10346,7957 10317,7975 10308,7984 10301,8000 10273,8032 10243,8052 10222,8063 10212,8065 10160,8055 10083,8048 10045,8042 10028,8042 10013,8045 9983,8038 9954,8037 9929,8028 9901,8027 9893,8028 9887,8031 9854,8030 9842,8034 9817,8034 9808,8033 9794,8028 9788,8029 9782,8025 9776,8029 9771,8035 9765,8036 9762,8043 9763,8051 9757,8058 9751,8061 9747,8068 9741,8074 9728,8080 9718,8092 9711,8096 9707,8103 9701,8107 9695,8107 9691,8101 9676,8104 9662,8100 9652,8100 9633,8108 9619,8109 9611,8109 9603,8104 9536,8102 9524,8107 9515,8120 9489,8139 9476,8144 9470,8149 9462,8152 9453,8153 9424,8162 9402,8165 9396,8165 9381,8160 9352,8164 9348,8171 9349,8185 9335,8188 9323,8194 9308,8199 9302,8204 9294,8207 9280,8209 9253,8227 9236,8231 9218,8238 9231,8261 9230,8269 9224,8275 9201,8270 9174,8270 9166,8267 9144,8269 9122,8262 9106,8263 9092,8255 9080,8264 9055,8262 9041,8255 9037,8249 9031,8249 9023,8253 9017,8254 9016,8241 9009,8234 9001,8232 8976,8241 8956,8243 8941,8252 8932,8266 8899,8280 8874,8269 8858,8264 8852,8260 8850,8266 8857,8273 8859,8279 8858,8285 8835,8289 8828,8293 8806,8297 8790,8297 8773,8293 8769,8287 8768,8281 8755,8279 8749,8276 8748,8268 8745,8262 8732,8260 8712,8252 8706,8252 8700,8256 8684,8254 8671,8249 8665,8255 8649,8261 8641,8266 8635,8274 8637,8281 8644,8285 8648,8291 8644,8297 8641,8310 8631,8324 8637,8330 8640,8348 8639,8358 8643,8367 8655,8383 8657,8393 8663,8400 8661,8406 8648,8416 8647,8425 8644,8431 8646,8452 8649,8459 8645,8471 8649,8477 8656,8479 8658,8485 8652,8491 8649,8498 8652,8520 8646,8525 8644,8531 8638,8537 8640,8543 8638,8550 8643,8562 8638,8569 8639,8577 8645,8583 8655,8586 8665,8601 8669,8624 8666,8636 8662,8648 8647,8669 8621,8700 8614,8703 8599,8716 8567,8739 8554,8742 8535,8755 8528,8757 8444,8788 8421,8799 8400,8814 8388,8828 8374,8892 8359,8908 8335,8927 8324,8944 8318,8953 8306,8965 8286,8969 8253,8979 8216,8994 8160,9023 8134,9026 8107,9026 8068,9019 8012,8993 7963,8984 7922,8969 7852,8923 7765,8875 7742,8868 7696,8868 7677,8893 7671,8896 7628,8886 7601,8885 7590,8890 7584,8895 7579,8914 7579,8931 7572,8945 7559,8948 7494,8946 7465,8933 7436,8923 7413,8923 7350,8909 7329,8907 7293,8907 7281,8905 7248,8887 7216,8827 7171,8752 7102,8652 7093,8624 7092,8587 7103,8545 7124,8515 7150,8495 7155,8435 7143,8421 7143,8413 7160,8412 7157,8394 7133,8384 7091,8388 7070,8393 7028,8389 6997,8391 6986,8379 6961,8359 6935,8372 6916,8372 6873,8364 6850,8355 6831,8355 6809,8362 6797,8368 6780,8368 6766,8372 6752,8379 6732,8379 6689,8351 6672,8348 6661,8377 6655,8382 6641,8376 6632,8363 6618,8358 6595,8353 6588,8349 6586,8343 6581,8336 6581,8330 6575,8327 6553,8328 6533,8325 6460,8308 6409,8286 6394,8282 6328,8257 6302,8245 6287,8235 6287,8030 6292,7939 6275,7915 6267,7901 6214,7883 6097,7855 5946,7812 5715,7741 5598,7701 5377,7636 5281,7606 5255,7600 5220,7579 5214,7577 5181,7538 5174,7515 5162,7501 5155,7485 5134,7455 5110,7424 4957,7237 4923,7199 4880,7158 4873,7153 4858,7129 4837,7103 4819,7076 4799,7052 4776,7028 4756,7019 4711,6991 4691,6986 4629,6983 4611,6978 4600,6973 4590,6966 4584,6983 4580,7006 4707,7030 4688,7123 4754,7103 4755,7110 4783,7101 4780,7130 4791,7134 4770,7160 4745,7155 4719,7151 4728,7119 4693,7128 4657,7122 4647,7150 4625,7150 4551,7137 4547,7148 4531,7145 4526,7158 4513,7155 4519,7152 4522,7143 4485,7135 4499,7108 4462,7101 4471,7075 4381,7060 4387,7030 4333,7010 4298,7000 4259,6986 4260,6980 4283,6920 4286,6887 4297,6861 4309,6846 4358,6865 4400,6879 4520,6910 4524,6903 4524,6888 4527,6882 4535,6875 4540,6867 4540,6858 4515,6836 4501,6818 4520,6795 4520,6789 4515,6775 4506,6760 4508,6754 4505,6747 4499,6741 4497,6735 4504,6710 4511,6703 4514,6696 4509,6690 4495,6681 4488,6674 4478,6674 4449,6688 4441,6683 4426,6678 4420,6666 4405,6659 4403,6652 4408,6636 4402,6615 4403,6607 4413,6590 4411,6574 4417,6567 4424,6562 4426,6556 4411,6555 4404,6557 4380,6557 4372,6555 4366,6551 4353,6548 4339,6541 4326,6539 4305,6542 4283,6535 4242,6534 4221,6531 4210,6526 4195,6524 4161,6515 4152,6510 4153,6504 4164,6501 4196,6501 4211,6505 4217,6513 4224,6515 4256,6514 4262,6516 4280,6517 4302,6515 4316,6511 4322,6507 4325,6500 4322,6493 4318,6487 4312,6482 4298,6475 4299,6469 4297,6462 4287,6450 4284,6442 4331,6381 4368,6340 4380,6329 4381,6322 4369,6318 4364,6312 4369,6303 4390,6285 4405,6275 4411,6279 4416,6285 4423,6283 4471,6237 4483,6224 4493,6209 4525,6176 4532,6172 4535,6176 4540,6182 4566,6186 4580,6181 4598,6169 4610,6156 4622,6146 4655,6146 4666,6150 4669,6157 4669,6164 4677,6167 4690,6164 4697,6165 4711,6158 4725,6155 4732,6150 4745,6147 4764,6151 4792,6162 4802,6162 4819,6151 4833,6149 4846,6150 4867,6163 4873,6169 4873,6177 4866,6191 4874,6192 4883,6188 4883,6179 4889,6176 4907,6184 4913,6185 4935,6181 4960,6182 4982,6180 4993,6177 4998,6169 5004,6137 5007,6131 5018,6119 5036,6110 5086,6092 5099,6090 5114,6095 5121,6094 5170,6070 5176,6070 5183,6074 5195,6088 5233,6090 5248,6089 5254,6087 5286,6069 5294,6067 5309,6073 5316,6072 5328,6075 5366,6069 5373,6066 5389,6066 5401,6064 5407,6069 5411,6075 5417,6072 5429,6079 5443,6079 5451,6081 5460,6086 5476,6090 5483,6091 5496,6086 5502,6087 5506,6099 5518,6104 5528,6130 5550,6140 5570,6143 5587,6134 5600,6136 5624,6125 5637,6123 5643,6124 5646,6131 5652,6136 5650,6142 5644,6149 5642,6159 5647,6165 5673,6186 5687,6192 5701,6195 5774,6203 5817,6206 5841,6199 5874,6179 5885,6176 5921,6174 5933,6175 5957,6190 5979,6197 6008,6221 6015,6223 6028,6221 6034,6218 6045,6209 6052,6195 6055,6178 6067,6161 6074,6155 6100,6149 6108,6145 6152,6136 6160,6136 6168,6140 6177,6140 6190,6135 6210,6132 6226,6126 6252,6120 6295,6107 6308,6108 6350,6104 6372,6104 6388,6107 6400,6113 6422,6138 6431,6142 6448,6145 6483,6139 6493,6139 6505,6144 6516,6152 6529,6169 6539,6207 6533,6233 6539,6247 6549,6259 6563,6266 6583,6265 6594,6260 6605,6260 6624,6268 6634,6266 6655,6242 6665,6234 6682,6225 6698,6225 6714,6217 6728,6213 6741,6207 6769,6204 6817,6212 6836,6212 6848,6207 6849,6199 6838,6172 6840,6163 6848,6154 6856,6149 6868,6151 6880,6159 6891,6164 6930,6175 6986,6183 6998,6190 7021,6215 7031,6220 7046,6221 7061,6215 7058,6172 7060,6165 7069,6162 7083,6162 7094,6164 7104,6169 7121,6174 7159,6176 7170,6179 7180,6189 7193,6181 7206,6160 7214,6152 7226,6146 7248,6130 7259,6114 7273,6099 7285,6092 7304,6074 7303,6066 7297,6053 7296,6044 7282,6023 7266,6006 7244,5992 7243,5984 7246,5978 7253,5971 7258,5956 7257,5946 7266,5925 7281,5917 7297,5919 7305,5921 7323,5938 7335,5940 7343,5939 7359,5924 7388,5887 7396,5868 7401,5861 7408,5857 7421,5854 7445,5861 7451,5868 7461,5874 7486,5883 7531,5903 7549,5916 7559,5931 7559,5950 7543,5966 7538,5974 7538,5987 7543,5996 7567,6004 7570,6013 7566,6037 7573,6050 7579,6056 7585,6056 7606,6051 7630,6039 7664,6017 7700,6002 7732,6014 7766,6023 7846,6019 7912,6021 7921,6024 7965,6024 8000,6032 8027,6054 8043,6057 8060,6057 8075,6052 8083,6045 8099,6026 8119,6010 8161,5989 8173,5981 8183,5965 8196,5954 8203,5952 8226,5966 8267,5973 8304,5972 8350,5955 8380,5933 8392,5921 8399,5917 8404,5909 8410,5903 8408,5892 8415,5853 8427,5841 8445,5829 8452,5819 8459,5784 8472,5769 8521,5738 8534,5738 8544,5734 8557,5723 8561,5721 8567,5719 8574,5724 " class="polyStyle" id="650107" style="fill:#d4ecb2"/>
<polygon points="3455,5690 3459,5693 3459,5700 3454,5712 3447,5717 3437,5720 3432,5725 3425,5747 3424,5758 3424,5762 3460,5750 3474,5753 3487,5759 3497,5764 3508,5767 3520,5768 3539,5766 3554,5765 3562,5767 3580,5774 3627,5801 3642,5787 3662,5763 3677,5755 3686,5767 3695,5773 3725,5770 3745,5761 3746,5737 3753,5731 3768,5735 3770,5752 3779,5772 3797,5772 3815,5766 3827,5779 3847,5802 3854,5816 3874,5843 3887,5858 3894,5857 3907,5856 3944,5855 3977,5853 3998,5848 3998,5889 3996,5926 3999,5961 4003,5966 4010,5975 4030,5987 4030,5991 4039,6010 4037,6038 4043,6067 4042,6091 4024,6152 4023,6160 4017,6177 4004,6217 3997,6223 3993,6246 3980,6279 3974,6292 3970,6297 3957,6333 3949,6355 3924,6438 3919,6456 3918,6491 3921,6521 3897,6527 3864,6532 3826,6554 3785,6586 3779,6616 3768,6688 3760,6752 3751,6773 3753,6793 3760,6824 3759,6827 3750,6825 3727,6831 3707,6834 3679,6825 3669,6822 3663,6825 3632,6846 3580,6865 3566,6871 3545,6882 3534,6888 3514,6894 3502,6893 3492,6896 3473,6912 3464,6924 3457,6936 3452,6949 3439,6968 3429,6983 3408,7003 3367,7029 3336,7043 3320,7050 3305,7048 3281,7052 3259,7065 3229,7083 3210,7098 3163,7119 3136,7126 3113,7124 3096,7124 3079,7133 3043,7148 2986,7168 2929,7193 2919,7195 2914,7186 2923,7165 2930,7147 2918,7102 2909,7051 2908,7004 2897,6983 2882,6966 2870,6952 2854,6944 2838,6927 2834,6911 2828,6891 2837,6877 2843,6859 2865,6821 2859,6795 2852,6745 2854,6727 2850,6710 2824,6692 2811,6676 2811,6607 2814,6547 2829,6501 2843,6442 2844,6388 2824,6323 2795,6236 2779,6156 2766,6112 2744,6085 2738,6069 2755,6067 2786,6063 2825,6064 2870,6069 2918,6068 2941,6069 2948,6073 3009,6064 3039,6060 3060,6067 3083,6082 3098,6083 3116,6077 3167,6064 3199,6055 3226,6054 3238,6057 3266,6061 3317,6059 3364,6051 3395,6045 3435,6046 3441,6044 3456,6036 3484,6035 3495,6033 3499,6013 3489,5999 3469,5996 3439,5987 3414,5981 3383,5980 3335,5973 3314,5973 3300,5980 3274,5985 3237,5977 3229,5970 3236,5962 3250,5959 3274,5961 3291,5954 3303,5946 3299,5934 3270,5919 3259,5913 3261,5903 3256,5888 3257,5881 3287,5881 3304,5880 3298,5861 3286,5857 3259,5856 3266,5848 3259,5830 3265,5819 3279,5802 3298,5791 3322,5790 3342,5792 3356,5772 3365,5759 3362,5741 3354,5716 3358,5704 3374,5700 3394,5703 3410,5707 3417,5699 3415,5688 3422,5684 3438,5688 " class="polyStyle" id="650103" style="fill:#f6f67b"/>
<polygon points="4452,5435 4472,5449 4480,5452 4483,5459 4481,5465 4485,5472 4487,5497 4490,5503 4502,5511 4528,5518 4544,5541 4549,5554 4561,5561 4567,5569 4580,5561 4586,5567 4573,5573 4504,5624 4491,5650 4485,5654 4484,5661 4485,5675 4491,5677 4510,5690 4519,5703 4529,5738 4539,5757 4589,5742 4596,5742 4607,5755 4624,5784 4628,5797 4635,5809 4638,5826 4643,5834 4634,5854 4621,5860 4602,5879 4570,5897 4558,5912 4535,5931 4532,5937 4577,5963 4603,5982 4624,6007 4643,6016 4665,6032 4650,6052 4635,6066 4615,6079 4593,6097 4572,6118 4559,6128 4538,6136 4531,6142 4525,6150 4524,6156 4520,6154 4516,6151 4510,6144 4506,6138 4505,6131 4505,6128 4508,6127 4512,6127 4518,6127 4522,6126 4523,6123 4523,6121 4521,6115 4521,6108 4519,6105 4516,6105 4510,6105 4503,6104 4502,6101 4503,6097 4503,6094 4503,6090 4503,6085 4503,6079 4502,6076 4502,6073 4501,6066 4500,6062 4500,6059 4500,6055 4504,6050 4505,6047 4508,6046 4509,6041 4508,6038 4505,6034 4503,6031 4501,6028 4500,6026 4499,6022 4498,6019 4495,6015 4493,6010 4491,6005 4486,6001 4483,5998 4481,5994 4479,5988 4476,5985 4472,5982 4467,5979 4463,5975 4461,5972 4458,5971 4455,5971 4452,5970 4448,5971 4443,5972 4439,5974 4436,5974 4432,5974 4428,5973 4425,5970 4422,5967 4419,5964 4418,5961 4416,5958 4415,5955 4415,5952 4416,5948 4416,5942 4415,5938 4411,5932 4408,5928 4405,5923 4403,5917 4401,5914 4399,5910 4393,5904 4388,5899 4384,5894 4379,5889 4376,5889 4373,5891 4370,5892 4366,5892 4355,5892 4350,5892 4345,5893 4328,5891 4322,5891 4317,5892 4313,5895 4309,5898 4304,5902 4287,5910 4278,5914 4270,5923 4262,5927 4256,5928 4250,5932 4246,5935 4243,5938 4238,5940 4234,5941 4228,5941 4224,5942 4219,5943 4212,5944 4209,5944 4201,5944 4195,5945 4191,5945 4188,5946 4180,5948 4174,5949 4167,5951 4158,5952 4152,5953 4148,5954 4142,5957 4135,5959 4128,5962 4123,5964 4117,5965 4110,5966 4106,5966 4103,5967 4100,5969 4095,5972 4092,5974 4087,5975 4080,5976 4076,5978 4072,5979 4067,5980 4059,5982 4050,5983 4047,5984 4041,5985 4038,5986 4030,5987 4010,5975 4003,5966 3999,5961 3996,5926 3998,5889 3998,5848 3998,5825 4000,5789 4006,5761 4004,5750 3997,5734 3992,5725 3993,5688 3994,5641 4005,5630 4085,5630 4087,5623 4085,5617 4079,5614 4084,5608 4090,5604 4095,5597 4102,5596 4108,5590 4121,5586 4128,5581 4130,5574 4136,5579 4142,5580 4148,5584 4164,5584 4162,5578 4188,5554 4205,5527 4207,5520 4207,5501 4211,5493 4218,5492 4226,5494 4224,5502 4246,5509 4252,5503 4266,5504 4267,5510 4285,5506 4291,5501 4304,5504 4311,5517 4314,5505 4322,5500 4324,5494 4338,5492 4350,5486 4352,5479 4350,5467 4344,5466 4345,5458 4349,5452 4361,5453 4367,5451 4377,5444 4383,5444 4391,5448 4409,5444 4430,5431 4436,5431 4442,5424 4449,5421 4447,5429 " class="polyStyle" id="650105" style="fill:#fbe6ef"/>
<polygon points="3111,4731 3135,4747 3141,4750 3147,4753 3141,4769 3135,4784 3133,4787 3144,4790 3135,4809 3138,4812 3142,4819 3141,4822 3135,4821 3127,4830 3133,4833 3137,4834 3142,4836 3144,4838 3142,4842 3141,4845 3139,4848 3136,4852 3135,4855 3133,4859 3130,4862 3127,4869 3122,4878 3119,4883 3112,4894 3107,4900 3102,4903 3094,4905 3089,4910 3077,4922 3066,4933 3058,4939 3056,4941 3059,4942 3067,4948 3075,4954 3080,4958 3084,4960 3086,4962 3093,4966 3097,4969 3099,4970 3106,4973 3113,4976 3120,4978 3134,4984 3139,4986 3146,4988 3150,4990 3161,4993 3170,4997 3178,5000 3193,5006 3213,5012 3228,5017 3231,5019 3235,5020 3239,5022 3245,5024 3255,5028 3269,5031 3280,5034 3286,5036 3290,5037 3293,5037 3293,5042 3292,5045 3291,5048 3290,5051 3290,5054 3288,5058 3288,5072 3287,5074 3282,5082 3279,5083 3276,5084 3273,5085 3271,5095 3277,5106 3281,5107 3285,5107 3287,5107 3287,5111 3286,5113 3285,5116 3284,5119 3285,5122 3288,5124 3288,5126 3285,5128 3287,5131 3289,5134 3290,5137 3288,5140 3288,5143 3288,5145 3287,5148 3286,5151 3283,5155 3282,5158 3282,5161 3282,5163 3281,5167 3280,5171 3273,5182 3272,5186 3272,5190 3273,5192 3274,5194 3274,5197 3271,5200 3265,5210 3255,5211 3249,5216 3244,5249 3236,5271 3207,5255 3191,5247 3133,5316 3149,5328 3188,5361 3229,5397 3248,5411 3259,5432 3259,5448 3258,5491 3274,5519 3317,5538 3350,5554 3393,5581 3413,5588 3429,5600 3425,5621 3421,5638 3417,5653 3415,5670 3423,5681 3422,5684 3415,5688 3417,5699 3410,5707 3394,5703 3374,5700 3358,5704 3354,5716 3362,5741 3365,5759 3356,5772 3342,5792 3322,5790 3298,5791 3279,5802 3265,5819 3259,5830 3266,5848 3259,5856 3224,5864 3206,5866 3163,5854 3120,5838 3034,5798 3015,5794 3005,5803 2998,5826 2989,5852 2978,5866 2960,5885 2934,5910 2924,5923 2934,5925 2943,5927 2944,5941 2927,5946 2916,5949 2912,5960 2903,5969 2889,5948 2899,5923 2904,5910 2900,5891 2898,5862 2898,5844 2906,5826 2914,5815 2916,5797 2920,5782 2937,5754 2947,5722 2915,5700 2873,5705 2835,5713 2797,5719 2747,5722 2687,5717 2638,5717 2591,5712 2588,5718 2585,5726 2584,5735 2568,5762 2544,5806 2527,5826 2514,5845 2499,5879 2471,5940 2421,6009 2349,6094 2336,6101 2313,6101 2315,6097 2316,6094 2320,6090 2323,6087 2327,6083 2330,6079 2334,6076 2337,6072 2340,6069 2344,6065 2346,6062 2349,6058 2351,6055 2353,6051 2356,6047 2358,6044 2362,6040 2365,6037 2366,6033 2367,6030 2371,6026 2376,6024 2381,6022 2386,6020 2390,6016 2393,6012 2395,6009 2402,5999 2405,5993 2402,5990 2397,5990 2391,5992 2386,5993 2384,5990 2384,5986 2388,5985 2394,5985 2400,5985 2404,5983 2407,5980 2412,5976 2414,5972 2415,5969 2414,5965 2409,5962 2406,5958 2405,5955 2405,5951 2405,5947 2410,5944 2414,5940 2415,5937 2417,5933 2417,5930 2417,5926 2417,5923 2417,5919 2416,5915 2415,5912 2415,5908 2415,5905 2416,5901 2417,5897 2418,5894 2419,5890 2415,5887 2413,5883 2410,5880 2410,5876 2411,5866 2415,5862 2419,5854 2419,5847 2416,5835 2417,5826 2416,5817 2415,5807 2415,5795 2412,5790 2408,5783 2408,5777 2407,5767 2406,5758 2404,5751 2404,5744 2404,5741 2404,5729 2401,5721 2398,5710 2399,5699 2404,5688 2404,5681 2402,5671 2397,5659 2395,5643 2394,5632 2391,5622 2380,5607 2378,5596 2376,5593 2370,5583 2362,5569 2353,5554 2348,5544 2347,5539 2347,5526 2344,5517 2340,5509 2333,5496 2328,5489 2321,5484 2316,5474 2316,5468 2319,5460 2321,5450 2320,5440 2317,5429 2314,5417 2314,5400 2316,5389 2319,5380 2326,5370 2331,5363 2340,5354 2344,5350 2352,5336 2357,5324 2367,5309 2375,5296 2384,5282 2394,5265 2403,5252 2409,5242 2414,5235 2424,5225 2435,5217 2440,5212 2449,5207 2454,5204 2460,5197 2463,5190 2466,5185 2473,5180 2482,5178 2498,5173 2511,5168 2517,5160 2523,5152 2529,5141 2537,5132 2544,5124 2549,5117 2557,5107 2565,5098 2571,5090 2574,5081 2579,5076 2585,5070 2592,5064 2605,5054 2617,5044 2628,5037 2638,5034 2651,5029 2665,5018 2678,5013 2690,5011 2707,5005 2712,5000 2715,4990 2717,4983 2721,4971 2730,4966 2740,4963 2746,4960 2755,4953 2767,4943 2771,4938 2776,4932 2774,4929 2771,4924 2767,4915 2770,4911 2774,4904 2784,4894 2796,4885 2806,4873 2810,4870 2819,4868 2829,4865 2833,4861 2833,4856 2835,4853 2841,4846 2854,4840 2863,4837 2872,4831 2883,4821 2892,4812 2905,4796 2921,4784 2939,4781 2957,4790 2966,4791 2972,4783 2982,4790 2997,4784 3002,4774 3008,4777 3015,4771 3032,4778 3042,4776 3051,4777 3056,4773 3054,4763 3069,4758 3082,4752 3088,4747 3100,4747 3100,4742 3091,4736 3095,4731 3113,4724 3112,4728 " class="polyStyle" id="650106" style="fill:#fbe6ef"/>
<polygon points="3418,4609 3422,4610 3427,4608 3431,4610 3438,4612 3441,4614 3441,4618 3445,4621 3452,4626 3467,4635 3481,4645 3495,4655 3511,4664 3515,4668 3520,4673 3519,4686 3505,4737 3495,4776 3491,4792 3484,4841 3477,4890 3470,4910 3471,4920 3469,4943 3463,4966 3474,4971 3489,4972 3490,4987 3490,5001 3500,5002 3508,5002 3507,4975 3539,4979 3540,4992 3557,4991 3571,4958 3584,4952 3588,4946 3594,4926 3594,4916 3577,4909 3572,4903 3558,4902 3547,4900 3550,4880 3551,4874 3554,4861 3555,4849 3555,4841 3558,4826 3560,4805 3560,4800 3563,4794 3562,4791 3578,4772 3580,4766 3582,4764 3585,4761 3591,4759 3596,4756 3635,4739 3651,4739 3645,4758 3642,4775 3649,4780 3678,4774 3689,4776 3685,4803 3720,4795 3787,4801 3788,4808 3791,4814 3798,4817 3800,4847 3796,4876 3798,4923 3803,4931 3819,4936 3823,4955 3823,4985 3835,4987 3838,5001 3833,5084 3848,5093 3850,5102 3860,5106 3935,5134 3945,5146 3988,5178 4021,5217 4022,5223 4027,5231 4039,5244 4050,5252 4059,5266 4085,5288 4083,5319 4075,5357 4052,5408 4045,5434 4042,5466 4034,5521 4029,5533 4015,5551 4015,5577 4013,5600 4011,5612 4005,5630 3994,5641 3993,5688 3992,5725 3997,5734 4004,5750 4006,5761 4000,5789 3998,5825 3998,5848 3977,5853 3944,5855 3907,5856 3894,5857 3887,5858 3874,5843 3854,5816 3847,5802 3827,5779 3815,5766 3797,5772 3779,5772 3770,5752 3768,5735 3753,5731 3746,5737 3745,5761 3725,5770 3695,5773 3686,5767 3677,5755 3662,5763 3642,5787 3627,5801 3580,5774 3562,5767 3554,5765 3539,5766 3520,5768 3508,5767 3497,5764 3487,5759 3474,5753 3460,5750 3424,5762 3424,5758 3425,5747 3432,5725 3437,5720 3447,5717 3454,5712 3459,5700 3459,5693 3455,5690 3438,5688 3422,5684 3423,5681 3415,5670 3417,5653 3421,5638 3425,5621 3429,5600 3413,5588 3393,5581 3350,5554 3317,5538 3274,5519 3258,5491 3259,5448 3259,5432 3248,5411 3229,5397 3188,5361 3149,5328 3133,5316 3191,5247 3207,5255 3236,5271 3244,5249 3249,5216 3255,5211 3265,5210 3271,5200 3274,5197 3274,5194 3273,5192 3272,5190 3272,5186 3273,5182 3280,5171 3281,5167 3282,5163 3282,5161 3282,5158 3283,5155 3286,5151 3287,5148 3288,5145 3288,5143 3288,5140 3290,5137 3289,5134 3287,5131 3285,5128 3288,5126 3288,5124 3285,5122 3284,5119 3285,5116 3286,5113 3287,5111 3287,5107 3285,5107 3281,5107 3277,5106 3271,5095 3273,5085 3276,5084 3279,5083 3282,5082 3287,5074 3288,5072 3288,5058 3290,5054 3290,5051 3291,5048 3292,5045 3293,5042 3293,5037 3290,5037 3286,5036 3280,5034 3269,5031 3255,5028 3245,5024 3239,5022 3235,5020 3231,5019 3228,5017 3213,5012 3193,5006 3178,5000 3170,4997 3161,4993 3150,4990 3146,4988 3139,4986 3134,4984 3120,4978 3113,4976 3106,4973 3099,4970 3097,4969 3093,4966 3086,4962 3084,4960 3080,4958 3075,4954 3067,4948 3059,4942 3056,4941 3058,4939 3066,4933 3077,4922 3089,4910 3094,4905 3102,4903 3107,4900 3112,4894 3119,4883 3122,4878 3127,4869 3130,4862 3133,4859 3135,4855 3136,4852 3139,4848 3141,4845 3142,4842 3144,4838 3142,4836 3137,4834 3133,4833 3127,4830 3135,4821 3141,4822 3142,4819 3138,4812 3135,4809 3144,4790 3133,4787 3135,4784 3141,4769 3147,4753 3141,4750 3135,4747 3111,4731 3112,4728 3113,4724 3117,4724 3120,4722 3123,4720 3126,4719 3132,4716 3136,4714 3140,4713 3144,4711 3147,4710 3149,4708 3152,4707 3160,4703 3163,4700 3174,4693 3184,4691 3187,4691 3198,4688 3204,4686 3207,4687 3211,4688 3215,4685 3222,4677 3224,4674 3228,4673 3233,4672 3236,4673 3238,4676 3241,4677 3245,4679 3251,4679 3270,4681 3270,4677 3272,4674 3276,4673 3280,4673 3282,4673 3285,4673 3288,4671 3294,4664 3299,4658 3301,4654 3306,4644 3307,4642 3307,4637 3306,4635 3306,4632 3307,4629 3311,4625 3314,4618 3312,4618 3309,4616 3311,4612 3318,4614 3321,4614 3354,4615 3364,4616 3375,4616 3392,4617 3399,4617 3400,4608 3409,4608 3414,4609 " class="polyStyle" id="650104" style="fill:#d4ecb2"/>
<polygon points="5902,363 5669,1093 5622,1232 5573,1396 5484,1666 5018,3116 4984,3195 4983,3283 4980,3361 5088,3564 5100,3881 5064,3966 5033,4045 4945,4259 4877,4421 4940,4418 5124,4390 5131,4394 5134,4406 5133,4414 5135,4420 5146,4435 5151,4448 5164,4466 5185,4484 5192,4488 5200,4490 5262,4490 5275,4497 5280,4503 5286,4506 5293,4506 5298,4512 5305,4524 5306,4538 5309,4545 5306,4551 5310,4577 5307,4610 5312,4616 5318,4620 5321,4633 5324,4639 5330,4645 5330,4651 5326,4658 5327,4664 5333,4670 5339,4688 5379,4707 5418,4729 5424,4733 5429,4739 5441,4743 5461,4757 5518,4789 5531,4797 5536,4803 5566,4820 5570,4826 5588,4838 5595,4840 5600,4846 5612,4855 5618,4857 5643,4872 5670,4883 5681,4894 5699,4906 5711,4910 5742,4928 5755,4937 5760,4943 5773,4947 5786,4948 5797,4960 5804,4962 5835,4957 5849,4957 5855,4954 5870,4954 5876,4952 5949,4982 5955,4986 5959,4999 5980,5015 5982,5022 5988,5028 5991,5034 5998,5043 5996,5047 5995,5051 5992,5054 5990,5058 5988,5061 5986,5065 5985,5068 5984,5072 5982,5075 5981,5079 5980,5083 5979,5086 5979,5090 5978,5093 5978,5097 5978,5100 5979,5104 5980,5108 5982,5111 5983,5115 5985,5118 5987,5122 5989,5126 5991,5129 5991,5133 5992,5136 5990,5140 5988,5143 5987,5147 5988,5151 5989,5154 5991,5158 5996,5161 6001,5163 6006,5166 6010,5169 6015,5172 6019,5176 6023,5179 6027,5183 6029,5187 6032,5190 6034,5194 6035,5197 6035,5201 6036,5205 6036,5208 6037,5212 6038,5215 6039,5219 6042,5222 6046,5226 6050,5230 6054,5233 6057,5237 6059,5240 6060,5244 6062,5248 6064,5251 6066,5255 6068,5258 6068,5262 6070,5266 6072,5269 6074,5273 6076,5276 6078,5280 6080,5284 6082,5287 6084,5291 6085,5294 6085,5298 6086,5301 6087,5305 6092,5309 6095,5312 6099,5316 6103,5319 6105,5323 6107,5327 6108,5330 6108,5334 6103,5337 6098,5338 6094,5342 6092,5345 6091,5349 6091,5352 6092,5356 6093,5359 6094,5363 6094,5367 6094,5370 6094,5374 6095,5377 6096,5381 6098,5384 6100,5388 6102,5392 6104,5395 6106,5399 6109,5402 6110,5406 6110,5410 6110,5413 6110,5417 6109,5420 6107,5424 6106,5427 6105,5431 6106,5435 6109,5438 6113,5442 6117,5445 6121,5449 6125,5453 6130,5456 6133,5460 6136,5463 6138,5467 6138,5471 6138,5474 6135,5478 6130,5481 6125,5483 6120,5487 6115,5490 6111,5494 6107,5497 6104,5501 6100,5505 6098,5508 6095,5512 6093,5515 6090,5523 6088,5527 6086,5530 6084,5534 6082,5537 6081,5541 6081,5544 6080,5548 6080,5552 6080,5555 6081,5559 6082,5562 6083,5566 6086,5569 6088,5573 6091,5577 6094,5580 6098,5584 6101,5587 6104,5591 6106,5595 6108,5598 6109,5602 6108,5605 6107,5609 6107,5613 6106,5616 6105,5620 6104,5623 6105,5627 6106,5630 6108,5634 6112,5638 6117,5640 6122,5642 6127,5645 6130,5648 6133,5652 6136,5656 6142,5662 6152,5664 6156,5663 6161,5664 6166,5667 6169,5671 6174,5673 6179,5675 6182,5679 6185,5683 6187,5686 6188,5690 6193,5693 6198,5696 6203,5700 6206,5703 6209,5707 6212,5711 6215,5714 6217,5718 6222,5721 6227,5723 6232,5724 6243,5726 6246,5727 6250,5728 6255,5729 6260,5729 6265,5729 6270,5730 6275,5730 6280,5731 6285,5731 6290,5731 6295,5729 6300,5729 6305,5729 6310,5729 6315,5732 6318,5735 6322,5739 6326,5743 6331,5743 6336,5743 6340,5747 6341,5750 6346,5753 6351,5755 6352,5758 6352,5762 6356,5764 6360,5765 6365,5769 6368,5773 6369,5776 6369,5780 6369,5784 6368,5787 6368,5791 6367,5794 6366,5798 6366,5801 6365,5805 6364,5809 6364,5812 6365,5816 6366,5819 6368,5823 6371,5827 6376,5830 6381,5833 6386,5837 6388,5840 6389,5844 6389,5847 6388,5851 6388,5855 6389,5858 6389,5862 6391,5865 6392,5869 6397,5875 6402,5879 6402,5883 6402,5891 6404,5899 6412,5904 6420,5908 6426,5911 6431,5911 6435,5912 6440,5912 6445,5914 6450,5917 6454,5920 6456,5924 6458,5927 6460,5931 6463,5935 6464,5938 6465,5942 6471,5945 6490,5946 6496,5942 6495,5933 6498,5927 6504,5922 6527,5922 6535,5914 6535,5907 6553,5900 6560,5895 6577,5901 6590,5910 6604,5905 6618,5913 6668,5923 6678,5929 6687,5959 6690,5980 6698,5994 6700,6002 6700,6023 6708,6045 6707,6066 6713,6080 6719,6088 6729,6092 6732,6099 6731,6107 6726,6114 6722,6128 6728,6142 6727,6149 6720,6156 6717,6163 6709,6168 6703,6193 6698,6225 6682,6225 6665,6234 6655,6242 6634,6266 6624,6268 6605,6260 6594,6260 6583,6265 6563,6266 6549,6259 6539,6247 6533,6233 6539,6207 6529,6169 6516,6152 6505,6144 6493,6139 6483,6139 6448,6145 6431,6142 6422,6138 6400,6113 6388,6107 6372,6104 6350,6104 6308,6108 6295,6107 6252,6120 6226,6126 6210,6132 6190,6135 6177,6140 6168,6140 6160,6136 6152,6136 6108,6145 6100,6149 6074,6155 6067,6161 6055,6178 6052,6195 6045,6209 6034,6218 6028,6221 6015,6223 6008,6221 5979,6197 5957,6190 5933,6175 5921,6174 5885,6176 5874,6179 5841,6199 5817,6206 5774,6203 5701,6195 5687,6192 5673,6186 5647,6165 5642,6159 5644,6149 5650,6142 5652,6136 5646,6131 5643,6124 5637,6123 5624,6125 5600,6136 5587,6134 5570,6143 5550,6140 5528,6130 5518,6104 5506,6099 5502,6087 5496,6086 5483,6091 5476,6090 5460,6086 5451,6081 5443,6079 5429,6079 5417,6072 5411,6075 5407,6069 5401,6064 5389,6066 5373,6066 5366,6069 5328,6075 5316,6072 5309,6073 5294,6067 5286,6069 5254,6087 5248,6089 5233,6090 5195,6088 5183,6074 5176,6070 5170,6070 5121,6094 5114,6095 5099,6090 5086,6092 5036,6110 5018,6119 5007,6131 5004,6137 4998,6169 4993,6177 4982,6180 4960,6182 4935,6181 4913,6185 4907,6184 4889,6176 4883,6179 4883,6188 4874,6192 4866,6191 4873,6177 4873,6169 4867,6163 4846,6150 4833,6149 4819,6151 4802,6162 4792,6162 4764,6151 4745,6147 4732,6150 4725,6155 4711,6158 4697,6165 4690,6164 4677,6167 4669,6164 4669,6157 4666,6150 4655,6146 4622,6146 4610,6156 4598,6169 4580,6181 4566,6186 4540,6182 4535,6176 4532,6172 4531,6169 4530,6163 4524,6156 4525,6150 4531,6142 4538,6136 4559,6128 4572,6118 4593,6097 4615,6079 4635,6066 4650,6052 4665,6032 4643,6016 4624,6007 4603,5982 4577,5963 4532,5937 4535,5931 4558,5912 4570,5897 4602,5879 4621,5860 4634,5854 4643,5834 4638,5826 4635,5809 4628,5797 4624,5784 4607,5755 4596,5742 4589,5742 4539,5757 4529,5738 4519,5703 4510,5690 4491,5677 4485,5675 4484,5661 4485,5654 4491,5650 4504,5624 4573,5573 4586,5567 4580,5561 4567,5569 4561,5561 4549,5554 4544,5541 4528,5518 4502,5511 4490,5503 4487,5497 4485,5472 4481,5465 4483,5459 4480,5452 4472,5449 4452,5435 4447,5429 4449,5421 4442,5424 4436,5431 4430,5431 4409,5444 4391,5448 4383,5444 4377,5444 4367,5451 4361,5453 4349,5452 4345,5458 4344,5466 4350,5467 4352,5479 4350,5486 4338,5492 4324,5494 4322,5500 4314,5505 4311,5517 4304,5504 4291,5501 4285,5506 4267,5510 4266,5504 4252,5503 4246,5509 4224,5502 4226,5494 4218,5492 4211,5493 4207,5501 4207,5520 4205,5527 4188,5554 4162,5578 4164,5584 4148,5584 4142,5580 4136,5579 4130,5574 4128,5581 4121,5586 4108,5590 4102,5596 4095,5597 4090,5604 4084,5608 4079,5614 4085,5617 4087,5623 4085,5630 4005,5630 4011,5612 4013,5600 4015,5577 4015,5551 4029,5533 4034,5521 4042,5466 4045,5434 4052,5408 4075,5357 4083,5319 4085,5288 4059,5266 4050,5252 4039,5244 4027,5231 4022,5223 4021,5217 3988,5178 3945,5146 3935,5134 3860,5106 3850,5102 3848,5093 3833,5084 3838,5001 3835,4987 3823,4985 3823,4955 3819,4936 3803,4931 3798,4923 3796,4876 3800,4847 3798,4817 3791,4814 3788,4808 3787,4801 3720,4795 3685,4803 3689,4776 3678,4774 3649,4780 3642,4775 3645,4758 3651,4739 3635,4739 3596,4756 3591,4759 3591,4755 3644,4540 3660,4540 3666,4530 3688,4532 3694,4529 3701,4530 3707,4526 3714,4526 3717,4533 3724,4532 3731,4530 3729,4523 3733,4517 3749,4518 3766,4517 3772,4513 3790,4517 3813,4514 3821,4495 3831,4493 3835,4486 3836,4479 3832,4473 3835,4467 3827,4466 3831,4459 3837,4454 3845,4454 3870,4459 3866,4466 3865,4472 3871,4478 3876,4487 3883,4487 3889,4490 3891,4483 3891,4427 3895,4421 3887,4417 3882,4411 3875,4390 3883,4386 3869,4370 3859,4374 3828,4344 3822,4348 3818,4346 3817,4335 3817,4330 3818,4325 3819,4320 3819,4315 3820,4310 3820,4305 3821,4300 3823,4295 3825,4290 3826,4285 3827,4280 3828,4275 3829,4270 3830,4265 3834,4237 3838,4219 3838,4215 3838,4210 3840,4205 3846,4200 3852,4195 3849,4190 3844,4185 3837,4181 3830,4181 3823,4176 3823,4171 3824,4166 3823,4161 3823,4156 3822,4151 3823,4146 3824,4141 3827,4136 3828,4131 3830,4126 3832,4122 3834,4117 3837,4112 3839,4107 3843,4102 3845,4097 3866,4102 3871,4089 3874,4078 3875,4073 3878,4068 3882,4063 3886,4058 3889,4053 3891,4048 3892,4043 3894,4038 3894,4033 3894,4028 3895,4023 3897,4018 3901,4013 3905,4008 3909,4003 3911,3998 3911,3993 3913,3988 3917,3984 3920,3982 3922,3979 3918,3969 3915,3956 3913,3949 3913,3936 3913,3932 3912,3927 3910,3922 3909,3917 3908,3912 3908,3907 3910,3902 3912,3897 3914,3892 3915,3887 3915,3882 3916,3877 3918,3872 3918,3867 3918,3862 3916,3857 3915,3852 3913,3847 3913,3842 3912,3837 3913,3832 3916,3827 3919,3822 3921,3817 3926,3812 3934,3808 3941,3804 3948,3799 3954,3793 3960,3789 3966,3784 3970,3779 3974,3774 3978,3769 3982,3764 3994,3762 4010,3792 4021,3805 4022,3811 4019,3817 4014,3824 4008,3829 4027,3835 4068,3841 4099,3848 4106,3851 4208,3874 4206,3883 4200,3890 4198,3896 4197,3909 4187,3955 4190,3980 4233,4000 4234,4010 4238,4017 4246,4024 4270,4026 4360,3967 4363,3959 4462,3897 4448,3873 4432,3855 4472,3832 4460,3778 4552,3705 4564,3697 4548,3607 4552,3565 4552,3538 4555,3511 4555,3489 4557,3476 4557,3459 4567,3331 4567,3285 4574,3224 4572,3218 4507,3175 4481,3163 4470,3159 4473,2924 4325,2921 4324,2913 4317,2896 4302,2868 4297,2851 4296,2842 4291,2832 4290,2817 4287,2811 4287,2794 4285,2786 4276,2773 4270,2754 4202,2740 4181,2689 4127,2652 4045,2626 4017,2620 4008,2620 4001,2617 3986,2602 3978,2599 3977,2594 3975,2589 3974,2584 3974,2579 3974,2574 3975,2569 3978,2564 3981,2559 3985,2554 3988,2549 3991,2545 3994,2540 3995,2535 3997,2530 3998,2525 4001,2520 4002,2515 4005,2510 4006,2500 4003,2489 4001,2484 3998,2479 3998,2474 3990,2456 3980,2435 3973,2418 3972,2410 3973,2404 3975,2399 3977,2394 3974,2389 3970,2384 3965,2379 3961,2374 3959,2369 3957,2364 3955,2359 3953,2354 3953,2349 3953,2344 3953,2341 3954,2339 3955,2334 3956,2329 3957,2324 3958,2319 3959,2314 3961,2309 3959,2304 3954,2299 3951,2294 3950,2289 3949,2284 3948,2279 3945,2274 3944,2269 3943,2264 3942,2258 3942,2253 3939,2246 3935,2243 3932,2234 3926,2227 3916,2208 3884,2163 3896,2157 3890,2145 3888,2133 3885,2127 3879,2122 3876,2111 3877,2105 3881,2099 3877,2093 3883,2090 3884,2084 3889,2078 3888,2071 3890,2065 3888,2059 3900,2035 3906,2031 3908,2028 3912,2020 3781,1665 3633,1440 3197,777 2898,317 2686,2 2706,0 2748,0 2789,0 2831,1 2873,0 2914,1 2956,0 2998,0 3039,0 3081,0 3123,0 3164,0 3206,0 3248,0 3289,0 3331,0 3373,0 3414,0 3456,0 3498,0 3539,0 3581,0 3623,0 3664,0 3706,0 3748,0 3789,0 3831,1 3873,0 3914,0 3956,1 3998,0 4039,0 4081,0 4123,0 4164,0 4206,0 4248,1 4289,0 4331,0 4373,1 4414,0 4456,0 4498,0 4539,0 4581,0 4623,0 4664,0 4706,0 4748,0 4789,0 4831,0 4873,0 4914,0 4956,0 4998,0 5039,0 5081,0 5123,0 5164,0 5206,0 5248,0 5289,0 5331,1 5373,0 5414,0 5456,0 5498,0 5539,0 5581,0 5623,0 5664,0 5706,0 5748,0 5789,0 5831,0 5873,0 5914,0 5956,0 5998,0 6026,0 5952,201 " class="polyStyle" id="650109" style="fill:#ee8b94"/>
<path d="" class="polyStyle" id="230406" style="fill:#d4ecb2"/>
<path d="" class="polyStyle" id="110113" style="fill:#fbe6ef"/>
<path d="" class="polyStyle" id="341702" style="fill:#fbe6ef"/>
<path d="" class="polyStyle" id="420303" style="fill:#ee8b94"/>
<polygon points="4030,5987 4038,5986 4041,5985 4047,5984 4050,5983 4059,5982 4067,5980 4072,5979 4076,5978 4080,5976 4087,5975 4092,5974 4095,5972 4100,5969 4103,5967 4106,5966 4110,5966 4117,5965 4123,5964 4128,5962 4135,5959 4142,5957 4148,5954 4152,5953 4158,5952 4167,5951 4174,5949 4180,5948 4188,5946 4191,5945 4195,5945 4201,5944 4209,5944 4212,5944 4219,5943 4224,5942 4228,5941 4234,5941 4238,5940 4243,5938 4246,5935 4250,5932 4256,5928 4262,5927 4270,5923 4278,5914 4287,5910 4304,5902 4309,5898 4313,5895 4317,5892 4322,5891 4328,5891 4345,5893 4350,5892 4355,5892 4366,5892 4370,5892 4373,5891 4376,5889 4379,5889 4384,5894 4388,5899 4393,5904 4399,5910 4401,5914 4403,5917 4405,5923 4408,5928 4411,5932 4415,5938 4416,5942 4416,5948 4415,5952 4415,5955 4416,5958 4418,5961 4419,5964 4422,5967 4425,5970 4428,5973 4432,5974 4436,5974 4439,5974 4443,5972 4448,5971 4452,5970 4455,5971 4458,5971 4461,5972 4463,5975 4467,5979 4472,5982 4476,5985 4479,5988 4481,5994 4483,5998 4486,6001 4491,6005 4493,6010 4495,6015 4498,6019 4499,6022 4500,6026 4501,6028 4503,6031 4505,6034 4508,6038 4509,6041 4508,6046 4505,6047 4504,6050 4500,6055 4500,6059 4500,6062 4501,6066 4502,6073 4502,6076 4503,6079 4503,6085 4503,6090 4503,6094 4503,6097 4502,6101 4503,6104 4510,6105 4516,6105 4519,6105 4521,6108 4521,6115 4523,6121 4523,6123 4522,6126 4518,6127 4512,6127 4508,6127 4505,6128 4505,6131 4506,6138 4510,6144 4516,6151 4520,6154 4524,6156 4530,6163 4531,6169 4532,6172 4525,6176 4493,6209 4483,6224 4471,6237 4423,6283 4416,6285 4411,6279 4405,6275 4390,6285 4369,6303 4364,6312 4369,6318 4381,6322 4380,6329 4368,6340 4331,6381 4284,6442 4287,6450 4297,6462 4299,6469 4298,6475 4312,6482 4318,6487 4322,6493 4325,6500 4322,6507 4316,6511 4302,6515 4280,6517 4262,6516 4256,6514 4224,6515 4217,6513 4211,6505 4196,6501 4164,6501 4153,6504 4152,6510 4161,6515 4195,6524 4210,6526 4221,6531 4242,6534 4283,6535 4305,6542 4326,6539 4339,6541 4353,6548 4366,6551 4372,6555 4380,6557 4404,6557 4411,6555 4426,6556 4424,6562 4417,6567 4411,6574 4413,6590 4403,6607 4402,6615 4408,6636 4403,6652 4405,6659 4420,6666 4426,6678 4441,6683 4449,6688 4478,6674 4488,6674 4495,6681 4509,6690 4514,6696 4511,6703 4504,6710 4497,6735 4499,6741 4505,6747 4508,6754 4506,6760 4515,6775 4520,6789 4520,6795 4501,6818 4494,6825 4470,6828 4437,6826 4379,6822 4309,6823 4257,6820 4212,6817 4196,6818 4196,6827 4199,6840 4204,6857 4194,6862 4170,6854 4107,6840 4097,6841 4096,6848 4089,6857 4078,6872 4072,6895 4068,6902 4054,6903 4047,6901 4049,6894 4046,6888 4035,6888 4014,6888 3970,6873 3955,6874 3942,6877 3924,6872 3909,6870 3900,6878 3879,6898 3858,6921 3850,6936 3820,6943 3820,6913 3817,6904 3805,6898 3768,6853 3759,6827 3760,6824 3753,6793 3751,6773 3760,6752 3768,6688 3779,6616 3785,6586 3826,6554 3864,6532 3897,6527 3921,6521 3918,6491 3919,6456 3924,6438 3949,6355 3957,6333 3970,6297 3974,6292 3980,6279 3993,6246 3997,6223 4004,6217 4017,6177 4023,6160 4024,6152 4042,6091 4043,6067 4037,6038 4039,6010 4030,5991 " class="polyStyle" id="650102" style="fill:#f8c67d"/>
<path d="" class="polyStyle" id="340702" style="fill:#d4ecb2"/>
<path d="" class="polyStyle" id="421002" style="fill:#f6f67b"/>
<path d="" class="polyStyle" id="420117" style="fill:#f6f67b"/>
<path d="" class="polyStyle" id="440904" style="fill:#f8c67d"/>
<path d="" class="polyStyle" id="460205" style="fill:#ee8b94"/>
<path d="" class="polyStyle" id="460202" style="fill:#f6f67b"/>
<path d="" class="polyStyle" id="460203" style="fill:#fbe6ef"/>
<path d="" class="polyStyle" id="420304" style="fill:#f6f67b"/>
<path d="" class="polyStyle" id="445302" style="fill:#ee8b94"/>
<path d="" class="polyStyle" id="410202" style="fill:#d4ecb2"/>
<path d="" class="polyStyle" id="440800" style="fill:#f6f67b"/>
<path d="" class="polyStyle" id="440900" style="fill:#ee8b94"/>
<path d="" class="polyStyle" id="340800" style="fill:#ee8b94"/>
<path d="" class="polyStyle" id="460200" style="fill:#f6f67b"/>
<path d="" class="polyStyle" id="460000" style="fill:#ee8b94"/>
<path d="" class="polyStyle" id="450500" style="fill:#ee8b94"/>
<path d="" class="polyStyle" id="450600" style="fill:#ee8b94"/>
<path d="" class="polyStyle" id="440400" style="fill:#f6f67b"/>
<path d="" class="polyStyle" id="441700" style="fill:#f6f67b"/>
<path d="" class="polyStyle" id="441500" style="fill:#f6f67b"/>
<path d="" class="polyStyle" id="350600" style="fill:#ee8b94"/>
<path d="" class="polyStyle" id="710000" style="fill:#f6f67b"/>
<path d="" class="polyStyle" id="510400" style="fill:#f6f67b"/>
<path d="" class="polyStyle" id="522600" style="fill:#fbe6ef"/>
<path d="" class="polyStyle" id="520500" style="fill:#ee8b94"/>
<path d="" class="polyStyle" id="431200" style="fill:#f6f67b"/>
<path d="" class="polyStyle" id="430600" style="fill:#f6f67b"/>
<path d="" class="polyStyle" id="511400" style="fill:#d4ecb2"/>
<path d="" class="polyStyle" id="421000" style="fill:#ee8b94"/>
<path d="" class="polyStyle" id="341700" style="fill:#f6f67b"/>
<path d="" class="polyStyle" id="420500" style="fill:#f6f67b"/>
<path d="" class="polyStyle" id="511300" style="fill:#f6f67b"/>
<path d="" class="polyStyle" id="420900" style="fill:#f6f67b"/>
<path d="" class="polyStyle" id="511700" style="fill:#ee8b94"/>
<path d="" class="polyStyle" id="420600" style="fill:#d4ecb2"/>
<path d="" class="polyStyle" id="411500" style="fill:#fbe6ef"/>
<path d="" class="polyStyle" id="510800" style="fill:#ee8b94"/>
<path d="" class="polyStyle" id="420300" style="fill:#fbe6ef"/>
<path d="" class="polyStyle" id="611000" style="fill:#ee8b94"/>
<path d="" class="polyStyle" id="620800" style="fill:#fbe6ef"/>
<path d="" class="polyStyle" id="370200" style="fill:#ee8b94"/>
<path d="" class="polyStyle" id="371000" style="fill:#f6f67b"/>
<path d="" class="polyStyle" id="370600" style="fill:#fbe6ef"/>
<path d="" class="polyStyle" id="120000" style="fill:#f6f67b"/>
<path d="" class="polyStyle" id="130200" style="fill:#ee8b94"/>
<path d="" class="polyStyle" id="130300" style="fill:#f6f67b"/>
<path d="" class="polyStyle" id="652900" style="fill:#fbe6ef"/>
<path d="" class="polyStyle" id="150500" style="fill:#d4ecb2"/>
<path d="" class="polyStyle" id="" style="fill:#d4ecb2"/>
<path d="" class="polyStyle" id="350500" style="fill:#fbe6ef"/>
<path d="" class="polyStyle" id="440400" style="fill:#f6f67b"/>
<path d="" class="polyStyle" id="421100" style="fill:#d4ecb2"/>
<path d="" class="polyStyle" id="420100" style="fill:#fbe6ef"/>
<path d="" class="polyStyle" id="532500" style="fill:#fbe6ef"/>
<path d="" class="polyStyle" id="654200" style="fill:#fbe6ef"/>
<path d="" class="polyStyle" id="210700" style="fill:#d4ecb2"/>
<path d="" class="polyStyle" id="522300" style="fill:#fbe6ef"/>
<path d="" class="polyStyle" id="" style="fill:#ee8b94"/>
<path d="" class="polyStyle" id="440400" style="fill:#f6f67b"/>
<path d="" class="polyStyle" id="620000" style="fill:#f6f67b"/>
<path d="" class="polyStyle" id="430000" style="fill:#fbe6ef"/>
<path d="" class="polyStyle" id="420000" style="fill:#ee8b94"/>
<path d="" class="polyStyle" id="410000" style="fill:#f6f67b"/>
<path d="" class="polyStyle" id="350000" style="fill:#fbe6ef"/>
<path d="" class="polyStyle" id="520000" style="fill:#f6f67b"/>
<path d="" class="polyStyle" id="" style="fill:#ee8b94"/>
</svg>
