<?xml version="1.0" encoding="UTF-8"?>
<!DOCTYPE svg PUBLIC "-//W3C//DTD SVG 1.1 Tiny//EN" "http://www.w3.org/Graphics/SVG/1.1/DTD/svg11-tiny.dtd">
<svg version="1.1" xmlns="http://www.w3.org/2000/svg" xmlns:xlink="http://www.w3.org/1999/xlink" width="100%" height="100%" viewBox="0,0,7223,10429">
<title>SVG</title>
<desc>Poligon Test</desc>
<style id="style_css_sheet" type="text/css">
.polyStyle{fill: #cccccc;stroke-width:0;fill-rule:evenodd;}
</style>
<circle cx="1428" cy="9491" r="200" stroke="black" stroke-width="1" fill="red" id="650202"position="44" name="独山子区"/>
<circle cx="1419" cy="3127" r="200" stroke="black" stroke-width="1" fill="red" id="650203"position="3333" name="克拉玛依区"/>
<circle cx="2847" cy="2581" r="200" stroke="black" stroke-width="1" fill="red" id="650204" name="白碱滩区"/>
<circle cx="5584" cy="599" r="200" stroke="black" stroke-width="1" fill="red" id="650205" name="乌尔禾区"/>
<path d="" class="polyStyle" id="" style="fill:#ee8b94"/>
<path d="" class="polyStyle" id="623022" style="fill:#fbe6ef"/>
<path d="" class="polyStyle" id="211421" style="fill:#f6f67b"/>
<path d="" class="polyStyle" id="532524" style="fill:#ee8b94"/>
<path d="" class="polyStyle" id="440825" style="fill:#f6f67b"/>
<path d="" class="polyStyle" id="441721" style="fill:#f6f67b"/>
<path d="" class="polyStyle" id="450521" style="fill:#f6f67b"/>
<path d="" class="polyStyle" id="450123" style="fill:#fbe6ef"/>
<path d="" class="polyStyle" id="350624" style="fill:#f6f67b"/>
<path d="" class="polyStyle" id="" style="fill:#fbe6ef"/>
<path d="" class="polyStyle" id="451224" style="fill:#fbe6ef"/>
<path d="" class="polyStyle" id="350627" style="fill:#f6f67b"/>
<path d="" class="polyStyle" id="" style="fill:#f6f67b"/>
<path d="" class="polyStyle" id="350525" style="fill:#f6f67b"/>
<path d="" class="polyStyle" id="530124" style="fill:#ee8b94"/>
<path d="" class="polyStyle" id="522627" style="fill:#ee8b94"/>
<path d="" class="polyStyle" id="510421" style="fill:#fbe6ef"/>
<path d="" class="polyStyle" id="522623" style="fill:#d4ecb2"/>
<path d="" class="polyStyle" id="430321" style="fill:#d4ecb2"/>
<path d="" class="polyStyle" id="511129" style="fill:#d4ecb2"/>
<path d="" class="polyStyle" id="511423" style="fill:#ee8b94"/>
<path d="" class="polyStyle" id="421023" style="fill:#f6f67b"/>
<path d="" class="polyStyle" id="511724" style="fill:#f6f67b"/>
<path d="" class="polyStyle" id="420526" style="fill:#fbe6ef"/>
<path d="" class="polyStyle" id="511923" style="fill:#fbe6ef"/>
<path d="" class="polyStyle" id="420325" style="fill:#fbe6ef"/>
<path d="" class="polyStyle" id="511921" style="fill:#f6f67b"/>
<path d="" class="polyStyle" id="542525" style="fill:#f6f67b"/>
<path d="" class="polyStyle" id="611026" style="fill:#ee8b94"/>
<path d="" class="polyStyle" id="411023" style="fill:#fbe6ef"/>
<path d="" class="polyStyle" id="632323" style="fill:#f6f67b"/>
<path d="" class="polyStyle" id="140525" style="fill:#d4ecb2"/>
<path d="" class="polyStyle" id="410922" style="fill:#ee8b94"/>
<path d="" class="polyStyle" id="621027" style="fill:#ee8b94"/>
<path d="" class="polyStyle" id="130427" style="fill:#f6f67b"/>
<path d="" class="polyStyle" id="130121" style="fill:#ee8b94"/>
<path d="" class="polyStyle" id="610823" style="fill:#fbe6ef"/>
<path d="" class="polyStyle" id="130225" style="fill:#fbe6ef"/>
<path d="" class="polyStyle" id="130322" style="fill:#d4ecb2"/>
<path d="" class="polyStyle" id="653130" style="fill:#f6f67b"/>
<path d="" class="polyStyle" id="130822" style="fill:#fbe6ef"/>
<path d="" class="polyStyle" id="211221" style="fill:#f6f67b"/>
<path d="" class="polyStyle" id="210921" style="fill:#f6f67b"/>
<path d="" class="polyStyle" id="150223" style="fill:#f8c67d"/>
<path d="" class="polyStyle" id="220422" style="fill:#d4ecb2"/>
<path d="" class="polyStyle" id="340721" style="fill:#f6f67b"/>
<path d="" class="polyStyle" id="510824" style="fill:#d4ecb2"/>
<path d="" class="polyStyle" id="610324" style="fill:#f6f67b"/>
<path d="" class="polyStyle" id="530722" style="fill:#ee8b94"/>
<path d="" class="polyStyle" id="340823" style="fill:#d4ecb2"/>
<path d="" class="polyStyle" id="620825" style="fill:#d4ecb2"/>
<path d="" class="polyStyle" id="421125" style="fill:#ee8b94"/>
<path d="" class="polyStyle" id="210281" style="fill:#ee8b94"/>
<path d="" class="polyStyle" id="440883" style="fill:#f6f67b"/>
<path d="" class="polyStyle" id="469006" style="fill:#d4ecb2"/>
<path d="" class="polyStyle" id="469002" style="fill:#ee8b94"/>
<path d="" class="polyStyle" id="469005" style="fill:#fbe6ef"/>
<path d="" class="polyStyle" id="440882" style="fill:#ee8b94"/>
<path d="" class="polyStyle" id="450681" style="fill:#ee8b94"/>
<path d="" class="polyStyle" id="441581" style="fill:#d4ecb2"/>
<path d="" class="polyStyle" id="421087" style="fill:#ee8b94"/>
<path d="" class="polyStyle" id="420984" style="fill:#fbe6ef"/>
<path d="" class="polyStyle" id="420582" style="fill:#ee8b94"/>
<path d="" class="polyStyle" id="370282" style="fill:#f6f67b"/>
<path d="" class="polyStyle" id="371083" style="fill:#f6f67b"/>
<path d="" class="polyStyle" id="371082" style="fill:#fbe6ef"/>
<path d="" class="polyStyle" id="652801" style="fill:#f8c67d"/>
<path d="" class="polyStyle" id="654301" style="fill:#ee8b94"/>
<path d="" class="polyStyle" id="370687" style="fill:#ee8b94"/>
<path d="" class="polyStyle" id="371482" style="fill:#d4ecb2"/>
<path d="" class="polyStyle" id="421081" style="fill:#fbe6ef"/>
<path d="" class="polyStyle" id="429006" style="fill:#f6f67b"/>
<path d="" class="polyStyle" id="440982" style="fill:#d4ecb2"/>
<path d="" class="polyStyle" id="421181" style="fill:#d4ecb2"/>
<path d="" class="polyStyle" id="321181" style="fill:#d4ecb2"/>
<path d="" class="polyStyle" id="659007" style="fill:#ee8b94"/>
<path d="" class="polyStyle" id="652701" style="fill:#fbe6ef"/>
<path d="" class="polyStyle" id="210781" style="fill:#fbe6ef"/>
<path d="" class="polyStyle" id="460204" style="fill:#f6f67b"/>
<path d="" class="polyStyle" id="210211" style="fill:#f6f67b"/>
<path d="" class="polyStyle" id="450512" style="fill:#ee8b94"/>
<path d="" class="polyStyle" id="450602" style="fill:#fbe6ef"/>
<path d="" class="polyStyle" id="440404" style="fill:#ee8b94"/>
<path d="" class="polyStyle" id="440403" style="fill:#f6f67b"/>
<path d="" class="polyStyle" id="441502" style="fill:#f6f67b"/>
<path d="" class="polyStyle" id="431002" style="fill:#d4ecb2"/>
<path d="" class="polyStyle" id="500107" style="fill:#fbe6ef"/>
<path d="" class="polyStyle" id="430611" style="fill:#d4ecb2"/>
<path d="" class="polyStyle" id="511304" style="fill:#fbe6ef"/>
<path d="" class="polyStyle" id="340711" style="fill:#ee8b94"/>
<path d="" class="polyStyle" id="320118" style="fill:#f6f67b"/>
<path d="" class="polyStyle" id="510704" style="fill:#f6f67b"/>
<path d="" class="polyStyle" id="411502" style="fill:#ee8b94"/>
<path d="" class="polyStyle" id="320302" style="fill:#d4ecb2"/>
<path d="" class="polyStyle" id="140311" style="fill:#ee8b94"/>
<path d="" class="polyStyle" id="610802" style="fill:#ee8b94"/>
<path d="" class="polyStyle" id="120116" style="fill:#f6f67b"/>
<path d="" class="polyStyle" id="130303" style="fill:#fbe6ef"/>
<path d="" class="polyStyle" id="140211" style="fill:#f6f67b"/>
<path d="" class="polyStyle" id="150207" style="fill:#fbe6ef"/>
<path d="" class="polyStyle" id="211403" style="fill:#f6f67b"/>
<path d="" class="polyStyle" id="150802" style="fill:#f8c67d"/>
<path d="" class="polyStyle" id="210112" style="fill:#ee8b94"/>
<polygon points="1101,9111 1109,9111 1233,9115 1290,9117 1311,9118 1369,9120 1379,9120 1411,9121 1471,9123 1517,9124 1554,9125 1569,9126 1578,9126 1596,9127 1672,9129 1719,9131 1780,9133 1842,9135 1877,9136 1933,9138 1952,9138 1969,9139 1985,9141 1998,9145 2011,9149 2026,9153 2076,9168 2083,9170 2272,9227 2301,9235 2368,9256 2401,9266 2423,9272 2429,9274 2480,9290 2518,9301 2528,9304 2590,9322 2667,9346 2678,9369 2678,9377 2681,9407 2694,9436 2683,9458 2664,9475 2649,9479 2633,9479 2612,9479 2514,9466 2421,9460 2338,9466 2244,9466 2154,9471 2085,9494 2036,9526 1993,9548 1963,9571 1955,9586 1948,9598 1931,9636 1916,9681 1899,9721 1861,9767 1837,9784 1811,9803 1800,9833 1801,9863 1792,9910 1781,9938 1785,9972 1785,10009 1747,10081 1725,10111 1691,10161 1672,10169 1646,10165 1614,10178 1591,10197 1558,10208 1515,10206 1481,10214 1447,10221 1410,10217 1400,10208 1385,10199 1363,10195 1333,10204 1301,10206 1286,10210 1276,10217 1269,10231 1261,10242 1237,10257 1209,10261 1164,10247 1128,10247 1091,10251 1061,10259 1031,10277 1003,10300 969,10324 916,10354 881,10377 853,10396 825,10414 803,10429 774,10420 765,10409 771,10399 782,10373 793,10344 829,10306 857,10275 897,10233 922,10199 943,10173 959,10145 984,10087 1002,10060 1020,10014 1039,9983 1060,9946 1060,9903 1067,9854 1076,9817 1092,9771 1089,9753 1079,9726 1084,9691 1078,9661 1071,9648 1067,9627 1064,9600 1056,9567 1023,9534 1013,9519 1022,9497 1029,9480 1030,9449 1019,9432 1011,9415 1002,9369 995,9319 999,9291 992,9262 993,9234 990,9203 990,9163 991,9134 990,9106 1003,9101 1021,9097 1059,9110 " class="polyStyle" id="650202" style="fill:#f6f67b"/>
<polygon points="1952,2695 1961,2710 1850,2722 1836,2732 1830,2749 1828,2766 1844,2796 1871,2807 1918,2819 1926,2832 1929,2856 1937,2867 1951,2875 1958,2899 1978,2946 2049,2947 2171,2936 2185,2955 2177,2973 2186,2995 2214,3034 2231,3037 2242,3058 2233,3075 2281,3098 2308,3081 2529,3243 2634,3335 3485,4002 3484,4004 3458,4022 3363,4083 3337,4124 3329,4134 3324,4145 3308,4169 3300,4184 3345,4236 3334,4368 3331,4375 3328,4390 3323,4412 3316,4458 3317,4466 3312,4514 3313,4526 3309,4590 3223,4723 3133,4800 3111,4842 3111,4850 3130,4924 3129,4940 3131,4971 3130,5020 3131,5027 3264,5192 3343,5263 3351,5268 3352,5274 3351,5281 3335,5348 3328,5363 3323,5370 3310,5399 3305,5432 3294,5483 3293,5513 3284,5622 3286,5628 3295,5634 3293,5658 3297,5666 3314,5680 3330,5688 3338,5690 3353,5704 3359,5742 3369,5756 3368,5763 3358,5783 3359,5792 3374,5805 3390,5841 3402,5876 3400,5891 3393,5905 3378,5918 3316,5958 3306,5963 3210,5942 3172,5923 3076,5915 2959,5950 2927,6056 2914,6095 2892,6174 2880,6208 2756,6261 2529,6348 2360,6404 2337,6433 2289,6500 2283,6511 2282,6518 2278,6525 2254,6587 2246,6611 2237,6630 2244,6658 2261,6767 2250,6812 2205,6870 2200,6905 2199,6930 2200,6946 2211,6990 2216,7001 2236,7033 2252,7049 2261,7066 2269,7074 2276,7079 2282,7080 2299,7090 2306,7095 2312,7103 2330,7110 2336,7198 2338,7208 2335,7215 2289,7242 2273,7249 2152,7287 2123,7259 2109,7242 2075,7222 2069,7220 2063,7219 2052,7220 2038,7227 2004,7214 1996,7202 1981,7189 1967,7182 1936,7155 1928,7153 1907,7124 1899,7101 1891,7086 1888,7075 1874,7063 1859,7059 1822,7056 1809,7050 1794,7034 1788,7033 1705,7049 1692,7053 1679,7054 1594,7047 1391,6947 1380,6939 1363,6932 1352,6930 1302,6946 1293,6944 1286,6945 1271,6958 1203,6984 1158,7004 1088,7017 1063,7020 1066,7044 1369,7625 1373,7634 1175,7644 1130,7649 1122,7646 1115,7646 1101,7652 1094,7661 1083,7700 1075,7699 1066,7702 1044,7719 1034,7720 1015,7717 1008,7711 993,7702 980,7684 974,7682 966,7684 959,7690 952,7691 929,7678 922,7680 916,7677 920,7671 920,7667 906,7657 904,7650 905,7641 901,7635 890,7630 887,7632 883,7631 874,7632 874,7623 876,7615 873,7609 858,7599 846,7596 840,7588 836,7579 834,7568 825,7564 831,7563 835,7558 811,7543 807,7528 802,7523 793,7517 783,7516 779,7514 787,7503 783,7501 779,7501 775,7503 765,7503 758,7504 746,7500 738,7496 732,7492 724,7491 720,7494 713,7494 710,7491 709,7487 701,7483 686,7483 680,7487 675,7488 659,7486 644,7473 641,7463 642,7454 646,7444 665,7427 655,7406 645,7395 634,7385 622,7386 618,7396 609,7392 577,7390 576,7379 558,7368 537,7361 518,7361 507,7364 489,7364 480,7358 473,7359 467,7353 466,7346 480,7342 490,7335 494,7322 485,7315 476,7311 473,7291 446,7276 361,7242 347,7234 336,7213 328,7193 322,7188 289,7166 276,7162 260,7151 244,7143 235,7141 233,7103 242,7100 366,7107 359,7005 346,6730 281,6726 280,6719 281,6703 284,6679 273,6536 280,6471 282,6422 281,6411 316,6416 332,6289 341,6258 363,6067 355,6056 332,6038 338,6023 353,6017 403,5606 440,5325 446,5291 447,5270 428,5253 384,5223 351,5192 324,5170 304,5156 283,5146 270,5134 263,5119 256,5098 240,5072 233,5056 214,5022 210,5009 197,4995 181,4970 156,4954 121,4924 104,4915 95,4908 86,4888 68,4875 47,4853 40,4801 22,4691 13,4618 0,4511 6,4504 13,4499 21,4497 27,4492 23,4485 36,4484 37,4477 42,4471 49,4466 55,4466 54,4459 73,4449 80,4437 86,4432 104,4423 128,4408 148,4391 154,4389 168,4378 187,4366 209,4348 222,4341 227,4328 238,4316 246,4302 252,4297 264,4279 274,4280 268,4273 281,4267 286,4258 286,4249 298,4243 304,4236 309,4215 307,4192 301,4190 307,4187 317,4187 324,4189 324,4182 330,4179 337,4178 338,4171 331,4166 337,4166 340,4159 334,4153 327,4132 349,4117 367,4114 389,4121 371,4100 362,4084 368,4081 373,4063 380,4058 386,4059 391,4053 400,4054 404,4061 417,4059 423,4056 425,4047 421,4040 425,4033 434,4028 448,4029 444,4020 446,4014 441,4007 434,4005 435,3998 448,3989 457,3986 453,3978 460,3973 485,3977 492,3975 486,3969 483,3963 490,3959 495,3965 508,3955 525,3948 519,3943 518,3936 528,3920 530,3912 524,3887 530,3884 536,3878 536,3870 542,3866 550,3869 559,3869 566,3860 565,3852 570,3846 582,3844 587,3850 593,3849 612,3851 615,3844 609,3838 615,3833 611,3825 617,3825 624,3832 630,3834 635,3826 631,3820 633,3814 639,3812 646,3812 658,3799 661,3787 655,3779 660,3754 664,3748 672,3744 682,3732 685,3718 684,3707 691,3707 698,3711 704,3711 716,3701 707,3694 687,3690 693,3685 714,3681 721,3684 722,3678 720,3666 733,3666 739,3660 734,3652 732,3645 736,3639 740,3616 746,3616 745,3597 750,3587 748,3580 762,3577 756,3573 748,3561 753,3547 747,3542 761,3533 773,3532 782,3533 783,3527 776,3520 776,3512 774,3506 786,3509 783,3503 790,3501 786,3494 790,3488 784,3483 800,3477 798,3458 791,3451 784,3447 770,3446 776,3442 777,3428 784,3428 787,3422 780,3420 774,3416 777,3408 783,3404 788,3398 775,3384 773,3377 776,3370 776,3363 778,3357 806,3347 813,3347 819,3350 825,3347 831,3342 837,3340 841,3333 842,3327 848,3322 855,3320 868,3310 869,3304 881,3300 885,3294 887,3287 864,3269 870,3266 882,3256 880,3250 886,3249 880,3243 880,3237 887,3235 892,3242 900,3249 906,3250 907,3244 901,3242 921,3231 928,3225 951,3192 958,3194 956,3187 950,3184 952,3178 945,3174 961,3178 959,3172 952,3170 949,3158 956,3156 962,3152 961,3146 974,3143 983,3137 988,3131 981,3128 978,3122 971,3118 983,3118 990,3113 997,3113 1004,3107 999,3101 1005,3097 1010,3089 1016,3083 1018,3077 1024,3075 1038,3076 1051,3070 1057,3070 1077,3057 1094,3049 1100,3042 1109,3035 1116,3020 1123,3019 1131,3022 1133,3006 1132,2999 1128,2992 1126,2984 1127,2978 1118,2964 1119,2954 1112,2947 1105,2943 1063,2897 996,2865 989,2864 983,2866 968,2865 972,2858 972,2852 962,2820 966,2811 990,2804 1019,2787 1025,2782 1031,2774 1029,2758 1045,2746 1062,2744 1070,2746 1085,2754 1093,2761 1107,2766 1118,2773 1121,2792 1132,2799 1158,2808 1189,2805 1202,2809 1209,2808 1217,2810 1224,2815 1251,2826 1240,2841 1237,2896 1270,2923 1289,2906 1295,2893 1302,2890 1311,2893 1317,2898 1334,2904 1358,2906 1371,2904 1379,2901 1387,2895 1394,2894 1399,2882 1405,2880 1412,2879 1419,2880 1427,2875 1435,2877 1441,2874 1455,2873 1462,2870 1476,2874 1491,2875 1497,2871 1511,2869 1525,2863 1527,2856 1533,2857 1542,2854 1562,2841 1581,2835 1595,2832 1601,2835 1607,2834 1626,2828 1632,2829 1638,2825 1644,2827 1650,2820 1652,2814 1648,2808 1658,2806 1666,2801 1674,2793 1679,2779 1680,2758 1692,2747 1693,2740 1701,2732 1702,2726 1700,2718 1713,2703 1717,2690 1726,2682 1731,2667 1735,2660 1742,2658 1748,2653 1760,2649 1768,2643 1775,2644 1781,2639 1790,2635 1796,2628 1805,2622 1810,2613 1813,2598 1816,2592 1824,2586 1830,2578 1833,2575 1928,2596 " class="polyStyle" id="650203" style="fill:#f6f67b"/>
<polygon points="3476,2112 3488,2117 3580,2224 3733,2395 3814,2391 4782,2465 4823,2457 5111,2625 5108,2634 5095,2688 5060,2790 5054,2795 5066,2806 5072,2808 5080,2822 5076,2831 5076,2838 5079,2846 5084,2852 5082,2860 5075,2862 5057,2875 5019,2911 4991,2939 4980,2955 4977,2962 4971,2965 4956,2977 4942,2976 4936,2978 4933,2984 4938,2990 4930,3005 4933,3012 4939,3017 4930,3022 4924,3023 4925,3030 4931,3034 4935,3041 4935,3048 4932,3056 4915,3061 4896,3070 4888,3071 4883,3077 4873,3083 4869,3092 4860,3096 4838,3097 4829,3113 4823,3115 4819,3124 4807,3188 4761,3256 4733,3277 4663,3318 4652,3329 4646,3341 4613,3392 4565,3491 4559,3500 4501,3549 4420,3622 4300,3736 4272,3765 4204,3790 4198,3795 4165,3813 4152,3822 4046,3881 4024,3887 3917,3909 3853,3924 3716,3947 3707,3946 3693,3948 3683,3952 3667,3954 3631,3970 3625,3971 3612,3967 3601,3967 3593,3965 3586,3961 3572,3960 3548,3953 3519,3956 3515,3966 3510,3972 3504,3974 3488,3998 3485,4002 2634,3335 2529,3243 2308,3081 2281,3098 2233,3075 2242,3058 2231,3037 2214,3034 2186,2995 2177,2973 2185,2955 2171,2936 2049,2947 1978,2946 1958,2899 1951,2875 1937,2867 1929,2856 1926,2832 1918,2819 1871,2807 1844,2796 1828,2766 1830,2749 1836,2732 1850,2722 1961,2710 1952,2695 1928,2596 1833,2575 1837,2571 1842,2563 1880,2536 1886,2534 1882,2525 1889,2527 1899,2549 1905,2540 1896,2524 1896,2518 1902,2517 1911,2512 1926,2513 1937,2518 1943,2524 1951,2528 1959,2528 1963,2520 1971,2521 1967,2514 1961,2508 1972,2501 1996,2493 2019,2490 2025,2486 2033,2485 2041,2480 2055,2481 2061,2478 2071,2477 2085,2469 2121,2466 2129,2467 2136,2463 2146,2468 2149,2474 2143,2475 2142,2482 2171,2490 2181,2489 2188,2475 2195,2470 2202,2469 2208,2464 2214,2465 2212,2459 2220,2457 2232,2462 2248,2466 2257,2472 2280,2472 2288,2477 2304,2477 2320,2482 2355,2487 2357,2494 2378,2496 2384,2490 2396,2495 2405,2495 2411,2491 2418,2496 2420,2489 2437,2480 2446,2477 2456,2470 2472,2468 2480,2463 2483,2456 2490,2455 2497,2456 2503,2454 2510,2446 2517,2442 2528,2430 2536,2427 2545,2418 2552,2414 2555,2408 2567,2412 2566,2406 2573,2404 2592,2405 2597,2398 2603,2394 2610,2395 2617,2390 2631,2389 2635,2383 2649,2385 2650,2375 2658,2377 2665,2375 2672,2369 2686,2367 2699,2359 2706,2360 2704,2354 2711,2353 2717,2349 2710,2345 2720,2342 2726,2342 2728,2336 2748,2337 2753,2331 2748,2325 2742,2322 2757,2322 2759,2316 2777,2300 2784,2297 2791,2298 2795,2292 2787,2289 2793,2284 2807,2292 2814,2293 2814,2287 2810,2281 2802,2278 2790,2269 2804,2273 2811,2273 2806,2265 2814,2267 2822,2272 2832,2265 2829,2259 2847,2257 2840,2249 2856,2241 2860,2235 2866,2232 2863,2226 2871,2222 2880,2222 2879,2216 2865,2209 2871,2207 2893,2208 2898,2201 2897,2194 2884,2190 2873,2184 2886,2178 2893,2172 2897,2166 2904,2166 2908,2160 2915,2156 2914,2149 2907,2145 2929,2134 2935,2133 2944,2135 2950,2128 2959,2127 2961,2118 2968,2121 2985,2125 2991,2122 2997,2122 3004,2116 3013,2115 3014,2109 3001,2108 2991,2110 3005,2102 3011,2096 3017,2094 3031,2077 3045,2070 3044,2063 3052,2062 3068,2054 3069,2048 3061,2049 3073,2039 3074,2048 3080,2050 3092,2049 3099,2050 3093,2044 3100,2041 3097,2034 3103,2032 3102,2025 3104,2019 3098,2015 3100,2008 3091,2002 3101,2003 3099,1997 3106,1994 3112,1988 3120,1987 3126,1982 3133,1980 3148,1967 3153,1959 3148,1953 3158,1941 3165,1943 " class="polyStyle" id="650204" style="fill:#fbe6ef"/>
<polygon points="5240,9 5255,14 5286,13 5322,8 5331,5 5337,1 5343,2 5355,9 5367,35 5380,47 5403,55 5401,61 5432,77 5498,106 5517,106 5571,101 5579,97 5591,96 5607,96 5623,101 5632,101 5656,97 5803,99 5864,97 6056,97 6062,98 6131,129 6170,171 6180,168 6186,164 6212,163 6220,158 6226,157 6234,159 6241,156 6252,155 6289,159 6296,162 6304,159 6310,153 6316,151 6328,152 6335,156 6358,161 6376,162 6393,153 6411,139 6417,136 6504,148 6594,150 6626,153 6632,155 6714,207 6765,242 6880,316 7051,430 7064,440 7073,459 7080,481 7090,500 7094,519 7104,528 7113,532 7119,537 7125,546 7125,555 7117,562 7115,568 7118,576 7134,589 7153,610 7159,625 7169,662 7174,670 7183,680 7200,692 7211,697 7222,713 7223,721 7209,729 7130,765 7035,787 6914,838 6909,908 6905,918 6863,967 6862,1025 6874,1056 6833,1086 6814,1097 6782,1105 6781,1112 6784,1119 6790,1123 6798,1137 6801,1146 6800,1152 6768,1173 6762,1185 6765,1192 6771,1196 6780,1199 6799,1218 6808,1219 6817,1226 6822,1238 6813,1246 6807,1249 6800,1249 6781,1243 6763,1240 6755,1237 6748,1229 6713,1217 6700,1214 6696,1224 6680,1227 6661,1225 6655,1228 6649,1235 6659,1249 6647,1251 6615,1245 6593,1239 6587,1241 6594,1250 6604,1255 6617,1259 6624,1267 6619,1274 6607,1275 6582,1269 6577,1282 6570,1282 6555,1289 6535,1291 6539,1297 6533,1300 6524,1296 6508,1296 6501,1299 6499,1306 6480,1310 6486,1318 6480,1329 6481,1335 6487,1334 6494,1337 6500,1343 6510,1347 6539,1344 6544,1350 6544,1356 6541,1363 6533,1368 6513,1362 6506,1362 6500,1367 6506,1371 6505,1377 6510,1383 6500,1387 6491,1387 6484,1389 6479,1395 6472,1397 6454,1397 6458,1404 6452,1408 6445,1408 6451,1417 6447,1423 6441,1427 6438,1434 6424,1439 6414,1438 6406,1442 6388,1442 6368,1433 6362,1432 6362,1440 6356,1441 6345,1451 6335,1456 6329,1457 6297,1453 6295,1460 6298,1466 6286,1469 6285,1475 6287,1481 6285,1488 6281,1494 6273,1498 6271,1510 6265,1515 6257,1518 6243,1520 6242,1527 6217,1528 6218,1541 6209,1542 6202,1545 6209,1549 6202,1556 6189,1561 6182,1561 6182,1569 6178,1575 6170,1577 6170,1584 6161,1588 6154,1587 6130,1599 6131,1606 6110,1614 6111,1620 6104,1621 6093,1632 6093,1640 6087,1643 6081,1642 6069,1648 6062,1649 6055,1648 6056,1663 6045,1659 6038,1658 6031,1659 6025,1665 6018,1667 6014,1679 6006,1680 5999,1679 6006,1684 5992,1683 5986,1689 5990,1697 5973,1697 5978,1703 5972,1705 5967,1711 5958,1711 5951,1709 5947,1717 5938,1716 5930,1722 5932,1728 5924,1728 5923,1734 5919,1741 5904,1750 5892,1744 5896,1759 5889,1762 5883,1760 5880,1767 5873,1772 5877,1778 5871,1780 5864,1777 5858,1777 5857,1784 5850,1784 5845,1790 5839,1793 5839,1799 5832,1799 5832,1805 5826,1806 5820,1803 5807,1804 5812,1810 5804,1817 5797,1820 5790,1820 5784,1822 5778,1818 5771,1822 5775,1828 5769,1831 5769,1843 5762,1842 5761,1854 5747,1849 5749,1856 5742,1855 5735,1857 5729,1856 5736,1865 5728,1867 5722,1865 5714,1866 5711,1872 5718,1877 5708,1880 5702,1880 5695,1886 5680,1887 5683,1893 5667,1898 5655,1904 5655,1910 5648,1914 5642,1913 5636,1917 5639,1923 5633,1925 5624,1925 5625,1932 5601,1940 5600,1946 5593,1948 5586,1946 5579,1948 5579,1960 5565,1968 5569,1974 5562,1976 5556,1975 5555,1981 5548,1980 5542,1984 5529,1987 5523,1991 5526,1997 5515,2001 5509,2006 5497,2009 5483,2015 5483,2021 5476,2023 5470,2021 5455,2022 5452,2028 5443,2032 5436,2033 5433,2039 5418,2042 5412,2047 5399,2051 5318,2112 5310,2120 5312,2126 5318,2133 5318,2139 5324,2143 5341,2149 5340,2155 5331,2163 5318,2167 5313,2173 5315,2180 5314,2186 5306,2194 5288,2200 5213,2244 5204,2268 5186,2347 5173,2449 5163,2492 5157,2512 5111,2625 4823,2457 4782,2465 3814,2391 3733,2395 3580,2224 3488,2117 3476,2112 3165,1943 3158,1941 3152,1939 3154,1933 3161,1920 3163,1911 3176,1906 3180,1900 3186,1899 3191,1893 3184,1889 3176,1887 3182,1886 3196,1888 3193,1880 3187,1880 3187,1874 3181,1872 3192,1870 3195,1863 3185,1855 3196,1858 3202,1859 3208,1856 3214,1859 3217,1852 3219,1845 3213,1844 3211,1837 3217,1835 3211,1831 3217,1828 3224,1833 3227,1827 3235,1819 3241,1818 3242,1812 3227,1811 3221,1813 3212,1808 3201,1808 3207,1804 3214,1804 3220,1807 3228,1808 3235,1807 3243,1800 3241,1793 3234,1790 3221,1794 3213,1788 3232,1784 3224,1781 3238,1773 3244,1777 3244,1770 3251,1773 3252,1760 3246,1757 3252,1751 3249,1745 3255,1738 3267,1729 3261,1725 3269,1721 3276,1721 3282,1718 3274,1713 3259,1715 3244,1714 3251,1712 3255,1706 3262,1711 3276,1707 3269,1701 3275,1697 3274,1690 3268,1689 3282,1686 3286,1680 3281,1674 3277,1666 3276,1660 3269,1658 3268,1651 3279,1649 3300,1656 3306,1652 3303,1646 3302,1629 3295,1627 3287,1629 3290,1623 3303,1613 3324,1611 3326,1604 3332,1604 3334,1598 3321,1589 3312,1585 3299,1582 3284,1581 3298,1578 3323,1580 3317,1574 3324,1575 3331,1572 3325,1568 3322,1553 3335,1554 3334,1548 3339,1542 3352,1537 3346,1530 3361,1534 3361,1528 3355,1524 3362,1522 3369,1525 3376,1523 3377,1517 3371,1511 3388,1505 3384,1499 3376,1496 3357,1483 3363,1483 3383,1494 3389,1494 3383,1488 3391,1488 3390,1482 3393,1476 3390,1469 3380,1455 3363,1440 3356,1436 3349,1436 3343,1439 3344,1433 3358,1426 3382,1436 3385,1429 3391,1435 3397,1433 3407,1426 3414,1425 3418,1418 3417,1412 3424,1409 3435,1412 3445,1408 3447,1401 3454,1399 3457,1393 3451,1390 3459,1387 3466,1389 3472,1387 3473,1381 3480,1379 3476,1373 3464,1372 3475,1357 3466,1355 3460,1357 3454,1354 3448,1355 3434,1350 3411,1350 3422,1346 3429,1346 3435,1342 3447,1342 3454,1340 3451,1333 3435,1328 3445,1322 3449,1316 3456,1331 3462,1332 3468,1331 3481,1323 3499,1326 3507,1319 3513,1318 3507,1314 3499,1315 3493,1313 3494,1306 3487,1300 3490,1294 3484,1290 3469,1300 3461,1303 3454,1301 3447,1304 3440,1301 3408,1299 3424,1294 3439,1296 3453,1291 3454,1285 3447,1286 3438,1290 3431,1290 3449,1281 3430,1263 3448,1263 3455,1266 3458,1272 3466,1277 3472,1277 3478,1273 3468,1259 3462,1256 3456,1249 3448,1244 3441,1245 3438,1238 3438,1229 3446,1225 3452,1225 3460,1235 3464,1244 3464,1251 3483,1264 3497,1262 3512,1255 3527,1241 3525,1235 3531,1234 3536,1228 3542,1226 3542,1220 3536,1212 3522,1205 3500,1203 3473,1197 3463,1199 3460,1206 3445,1202 3444,1195 3450,1192 3444,1187 3415,1182 3408,1186 3397,1187 3401,1181 3396,1174 3415,1161 3417,1153 3434,1149 3436,1143 3429,1138 3421,1137 3413,1141 3407,1141 3404,1135 3409,1128 3423,1128 3425,1122 3442,1121 3448,1116 3476,1121 3493,1121 3511,1117 3517,1118 3524,1115 3531,1109 3531,1103 3516,1099 3523,1094 3515,1089 3521,1088 3548,1099 3556,1099 3563,1097 3568,1088 3568,1074 3561,1078 3562,1070 3553,1068 3547,1070 3546,1056 3535,1045 3541,1040 3547,1041 3556,1035 3567,1015 3560,1010 3552,1011 3545,1015 3545,1006 3536,1005 3523,1019 3517,1015 3510,1015 3498,1019 3478,1029 3480,1022 3486,1018 3493,1016 3499,1011 3513,1010 3523,1003 3524,997 3496,995 3508,990 3514,990 3528,982 3521,977 3515,978 3512,972 3518,969 3523,963 3514,961 3505,963 3502,957 3508,953 3514,952 3521,946 3507,945 3486,947 3500,938 3486,935 3495,918 3493,911 3486,905 3479,903 3457,902 3456,896 3450,889 3450,875 3445,869 3447,863 3439,858 3447,854 3453,848 3454,842 3459,835 3441,834 3435,828 3425,824 3431,811 3429,803 3421,798 3425,791 3442,792 3446,786 3434,780 3435,774 3441,770 3442,761 3436,755 3442,753 3448,747 3449,740 3461,732 3461,721 3474,720 3480,714 3483,708 3480,702 3485,685 3496,687 3502,690 3500,680 3484,667 3493,669 3509,677 3507,669 3499,666 3507,662 3511,656 3511,650 3507,643 3513,630 3515,608 3532,597 3555,590 3581,577 3607,572 3642,571 3650,567 3659,566 3680,558 3693,550 3699,541 3725,467 3740,463 3751,458 3787,434 3806,433 3823,427 3838,428 3864,422 3887,419 3893,416 3900,415 3936,388 3943,387 3971,377 3980,372 3987,353 3994,347 3997,346 4043,332 4049,335 4051,347 4060,354 4073,360 4073,375 4093,382 4109,382 4128,390 4147,400 4154,409 4161,415 4167,417 4180,418 4193,414 4198,408 4205,406 4213,407 4228,404 4252,406 4263,392 4270,378 4280,370 4280,363 4272,356 4266,342 4264,333 4286,315 4308,305 4320,305 4337,301 4343,296 4360,299 4383,292 4399,285 4408,284 4428,277 4437,276 4494,254 4507,254 4513,249 4504,244 4508,238 4510,229 4517,226 4538,226 4551,223 4557,217 4586,206 4610,189 4623,189 4632,175 4673,159 4718,149 4747,135 4758,122 4764,119 4791,117 4797,115 4831,92 4843,87 4872,79 4889,71 4923,70 4937,73 4944,72 4966,64 4989,60 5016,49 5017,36 5026,34 5035,35 5042,33 5059,32 5065,28 5075,26 5099,25 5107,29 5114,30 5129,23 5135,18 5138,10 5144,6 5170,3 5176,0 5193,0 5200,4 " class="polyStyle" id="650205" style="fill:#f6f67b"/>
<path d="" class="polyStyle" id="230406" style="fill:#d4ecb2"/>
<path d="" class="polyStyle" id="110113" style="fill:#fbe6ef"/>
<path d="" class="polyStyle" id="341702" style="fill:#fbe6ef"/>
<path d="" class="polyStyle" id="420303" style="fill:#ee8b94"/>
<path d="" class="polyStyle" id="340702" style="fill:#d4ecb2"/>
<path d="" class="polyStyle" id="421002" style="fill:#f6f67b"/>
<path d="" class="polyStyle" id="420117" style="fill:#f6f67b"/>
<path d="" class="polyStyle" id="440904" style="fill:#f8c67d"/>
<path d="" class="polyStyle" id="460205" style="fill:#ee8b94"/>
<path d="" class="polyStyle" id="460202" style="fill:#f6f67b"/>
<path d="" class="polyStyle" id="460203" style="fill:#fbe6ef"/>
<path d="" class="polyStyle" id="420304" style="fill:#f6f67b"/>
<path d="" class="polyStyle" id="445302" style="fill:#ee8b94"/>
<path d="" class="polyStyle" id="410202" style="fill:#d4ecb2"/>
<path d="" class="polyStyle" id="440800" style="fill:#f6f67b"/>
<path d="" class="polyStyle" id="440900" style="fill:#ee8b94"/>
<path d="" class="polyStyle" id="340800" style="fill:#ee8b94"/>
<path d="" class="polyStyle" id="460200" style="fill:#f6f67b"/>
<path d="" class="polyStyle" id="460000" style="fill:#ee8b94"/>
<path d="" class="polyStyle" id="450500" style="fill:#ee8b94"/>
<path d="" class="polyStyle" id="450600" style="fill:#ee8b94"/>
<path d="" class="polyStyle" id="440400" style="fill:#f6f67b"/>
<path d="" class="polyStyle" id="441700" style="fill:#f6f67b"/>
<path d="" class="polyStyle" id="441500" style="fill:#f6f67b"/>
<path d="" class="polyStyle" id="350600" style="fill:#ee8b94"/>
<path d="" class="polyStyle" id="710000" style="fill:#f6f67b"/>
<path d="" class="polyStyle" id="510400" style="fill:#f6f67b"/>
<path d="" class="polyStyle" id="522600" style="fill:#fbe6ef"/>
<path d="" class="polyStyle" id="520500" style="fill:#ee8b94"/>
<path d="" class="polyStyle" id="431200" style="fill:#f6f67b"/>
<path d="" class="polyStyle" id="430600" style="fill:#f6f67b"/>
<path d="" class="polyStyle" id="511400" style="fill:#d4ecb2"/>
<path d="" class="polyStyle" id="421000" style="fill:#ee8b94"/>
<path d="" class="polyStyle" id="341700" style="fill:#f6f67b"/>
<path d="" class="polyStyle" id="420500" style="fill:#f6f67b"/>
<path d="" class="polyStyle" id="511300" style="fill:#f6f67b"/>
<path d="" class="polyStyle" id="420900" style="fill:#f6f67b"/>
<path d="" class="polyStyle" id="511700" style="fill:#ee8b94"/>
<path d="" class="polyStyle" id="420600" style="fill:#d4ecb2"/>
<path d="" class="polyStyle" id="411500" style="fill:#fbe6ef"/>
<path d="" class="polyStyle" id="510800" style="fill:#ee8b94"/>
<path d="" class="polyStyle" id="420300" style="fill:#fbe6ef"/>
<path d="" class="polyStyle" id="611000" style="fill:#ee8b94"/>
<path d="" class="polyStyle" id="620800" style="fill:#fbe6ef"/>
<path d="" class="polyStyle" id="370200" style="fill:#ee8b94"/>
<path d="" class="polyStyle" id="371000" style="fill:#f6f67b"/>
<path d="" class="polyStyle" id="370600" style="fill:#fbe6ef"/>
<path d="" class="polyStyle" id="120000" style="fill:#f6f67b"/>
<path d="" class="polyStyle" id="130200" style="fill:#ee8b94"/>
<path d="" class="polyStyle" id="130300" style="fill:#f6f67b"/>
<path d="" class="polyStyle" id="652900" style="fill:#fbe6ef"/>
<path d="" class="polyStyle" id="150500" style="fill:#d4ecb2"/>
<path d="" class="polyStyle" id="" style="fill:#d4ecb2"/>
<path d="" class="polyStyle" id="350500" style="fill:#fbe6ef"/>
<path d="" class="polyStyle" id="440400" style="fill:#f6f67b"/>
<path d="" class="polyStyle" id="421100" style="fill:#d4ecb2"/>
<path d="" class="polyStyle" id="420100" style="fill:#fbe6ef"/>
<path d="" class="polyStyle" id="532500" style="fill:#fbe6ef"/>
<path d="" class="polyStyle" id="654200" style="fill:#fbe6ef"/>
<path d="" class="polyStyle" id="210700" style="fill:#d4ecb2"/>
<path d="" class="polyStyle" id="522300" style="fill:#fbe6ef"/>
<path d="" class="polyStyle" id="" style="fill:#ee8b94"/>
<path d="" class="polyStyle" id="440400" style="fill:#f6f67b"/>
<path d="" class="polyStyle" id="620000" style="fill:#f6f67b"/>
<path d="" class="polyStyle" id="430000" style="fill:#fbe6ef"/>
<path d="" class="polyStyle" id="420000" style="fill:#ee8b94"/>
<path d="" class="polyStyle" id="410000" style="fill:#f6f67b"/>
<path d="" class="polyStyle" id="350000" style="fill:#fbe6ef"/>
<path d="" class="polyStyle" id="520000" style="fill:#f6f67b"/>
<path d="" class="polyStyle" id="" style="fill:#ee8b94"/>
</svg>
